<?xml version="1.0" encoding="UTF-8" standalone="no"?>
<!DOCTYPE svg PUBLIC "-//W3C//DTD SVG 1.1//EN" "http://www.w3.org/Graphics/SVG/1.1/DTD/svg11.dtd">
<svg width="100%" height="100%" viewBox="0 0 229 293" version="1.1" xmlns="http://www.w3.org/2000/svg" xmlns:xlink="http://www.w3.org/1999/xlink" xml:space="preserve" xmlns:serif="http://www.serif.com/" style="fill-rule:evenodd;clip-rule:evenodd;stroke-linecap:round;stroke-linejoin:round;">
    <g transform="matrix(1,0,0,1,-40.481,-40.5907)">
        <g transform="matrix(3.35881,0,0,3.35881,-769.177,-486.984)">
            <g id="shape0" transform="matrix(3.2369,0,0,3.2369,223.9,208.701)">
                <path d="M10.55,6.65L10.3,6.8L10,6.65L9.9,6.3L10,6L10,5.95C10.1,5.85 10.2,5.8 10.3,5.8L10.55,5.95L10.7,6.3L10.55,6.65M10.3,6.8L10,6L10.3,6.8" style="fill:#96c0cf;"/>
                <path d="M8.55,10.1C8.317,8.967 8.267,7.767 8.4,6.5M10,6L10.3,6.8" style="fill:none;fill-rule:nonzero;stroke:#fff;stroke-width:0.05px;"/>
                <path d="M13.25,0.8C12.617,-2.3 11.983,-4.1 11.35,-4.6C10.717,-5.1 10.45,-5.717 10.55,-6.45C10.883,-8.95 9.983,-10.883 7.85,-12.25C6.383,-13.183 5.55,-13.883 5.35,-14.35L5.35,-14.65C5.617,-14.983 6.183,-15.217 7.05,-15.35C11.683,-16.083 16.2,-16.083 20.6,-15.35L20.65,-15.35C23.417,-14.517 25.167,-13.533 25.9,-12.4C26.567,-11.3 26.25,-10.017 24.95,-8.55C23.55,-7.017 21.717,-5.583 19.45,-4.25L17.3,-3.05L14.75,-1.2" style="fill:none;fill-rule:nonzero;stroke:#28383e;stroke-width:0.1px;"/>
            </g>
            <g id="shape1" transform="matrix(0.1577,-1.8341,-1.8341,-0.1577,287.05,202)">
                <path d="M1.8,-3.5L2.1,0L1.8,3.5C1.6,4.467 1.35,4.95 1.05,4.95C0.75,4.95 0.5,4.467 0.3,3.5C0.1,2.533 0,1.367 0,0C0,-1.367 0.1,-2.533 0.3,-3.5C0.5,-4.467 0.75,-4.95 1.05,-4.95C1.35,-4.95 1.6,-4.467 1.8,-3.5" style="fill:#9eae77;"/>
                <path d="M1.6,-0.75L1.8,1.5L1.6,3.75L1.1,4.7C0.9,4.667 0.75,4.35 0.65,3.75L0.45,1.5L0.65,-0.75C0.75,-1.383 0.9,-1.7 1.1,-1.7C1.3,-1.7 1.467,-1.383 1.6,-0.75" style="fill:#657e2e;"/>
            </g>
            <g id="shape11" serif:id="shape1" transform="matrix(-0.2325,-1.2663,-1.2663,0.2325,284.8,198.3)">
                <path d="M1.8,-3.5L2.1,0L1.8,3.5C1.6,4.467 1.35,4.95 1.05,4.95C0.75,4.95 0.5,4.467 0.3,3.5C0.1,2.533 0,1.367 0,0C0,-1.367 0.1,-2.533 0.3,-3.5C0.5,-4.467 0.75,-4.95 1.05,-4.95C1.35,-4.95 1.6,-4.467 1.8,-3.5" style="fill:#9eae77;"/>
                <path d="M1.6,-0.75L1.8,1.5L1.6,3.75L1.1,4.7C0.9,4.667 0.75,4.35 0.65,3.75L0.45,1.5L0.65,-0.75C0.75,-1.383 0.9,-1.7 1.1,-1.7C1.3,-1.7 1.467,-1.383 1.6,-0.75" style="fill:#657e2e;"/>
            </g>
            <g id="shape12" serif:id="shape1" transform="matrix(0.669,-1.4843,-1.4843,-0.669,284.65,204.3)">
                <path d="M1.8,-3.5L2.1,0L1.8,3.5C1.6,4.467 1.35,4.95 1.05,4.95C0.75,4.95 0.5,4.467 0.3,3.5C0.1,2.533 0,1.367 0,0C0,-1.367 0.1,-2.533 0.3,-3.5C0.5,-4.467 0.75,-4.95 1.05,-4.95C1.35,-4.95 1.6,-4.467 1.8,-3.5" style="fill:#9eae77;"/>
                <path d="M1.6,-0.75L1.8,1.5L1.6,3.75L1.1,4.7C0.9,4.667 0.75,4.35 0.65,3.75L0.45,1.5L0.65,-0.75C0.75,-1.383 0.9,-1.7 1.1,-1.7C1.3,-1.7 1.467,-1.383 1.6,-0.75" style="fill:#657e2e;"/>
            </g>
            <g id="shape2" transform="matrix(0.0211,-0.2736,-0.3607,-0.0277,295.2,201.8)">
                <path d="M4.05,-4.05C5.183,-4.05 6.133,-3.667 6.9,-2.9C7.7,-2.1 8.1,-1.133 8.1,0C8.1,1.133 7.7,2.083 6.9,2.85C6.133,3.65 5.183,4.05 4.05,4.05C2.917,4.05 1.95,3.65 1.15,2.85C0.383,2.083 0,1.133 0,0C0,-1.133 0.383,-2.1 1.15,-2.9C1.95,-3.667 2.917,-4.05 4.05,-4.05" style="fill:url(#_Radial1);"/>
            </g>
            <g id="shape21" serif:id="shape2" transform="matrix(0.0167,-0.2169,-0.2859,-0.022,292.15,202.2)">
                <path d="M4.05,-4.05C5.183,-4.05 6.133,-3.667 6.9,-2.9C7.7,-2.1 8.1,-1.133 8.1,0C8.1,1.133 7.7,2.083 6.9,2.85C6.133,3.65 5.183,4.05 4.05,4.05C2.917,4.05 1.95,3.65 1.15,2.85C0.383,2.083 0,1.133 0,0C0,-1.133 0.383,-2.1 1.15,-2.9C1.95,-3.667 2.917,-4.05 4.05,-4.05" style="fill:url(#_Radial2);"/>
            </g>
            <g id="shape22" serif:id="shape2" transform="matrix(0.0145,-0.1879,-0.2477,-0.019,290.55,200.3)">
                <path d="M4.05,-4.05C5.183,-4.05 6.133,-3.667 6.9,-2.9C7.7,-2.1 8.1,-1.133 8.1,0C8.1,1.133 7.7,2.083 6.9,2.85C6.133,3.65 5.183,4.05 4.05,4.05C2.917,4.05 1.95,3.65 1.15,2.85C0.383,2.083 0,1.133 0,0C0,-1.133 0.383,-2.1 1.15,-2.9C1.95,-3.667 2.917,-4.05 4.05,-4.05" style="fill:url(#_Radial3);"/>
            </g>
            <g id="shape23" serif:id="shape2" transform="matrix(-0.0728,-0.1957,-0.258,0.096,290.1,196.7)">
                <path d="M4.05,-4.05C5.183,-4.05 6.133,-3.667 6.9,-2.9C7.7,-2.1 8.1,-1.133 8.1,0C8.1,1.133 7.7,2.083 6.9,2.85C6.133,3.65 5.183,4.05 4.05,4.05C2.917,4.05 1.95,3.65 1.15,2.85C0.383,2.083 0,1.133 0,0C0,-1.133 0.383,-2.1 1.15,-2.9C1.95,-3.667 2.917,-4.05 4.05,-4.05" style="fill:url(#_Radial4);"/>
            </g>
            <g id="shape24" serif:id="shape2" transform="matrix(-0.0577,-0.1552,-0.2045,0.0761,288.4,197.9)">
                <path d="M4.05,-4.05C5.183,-4.05 6.133,-3.667 6.9,-2.9C7.7,-2.1 8.1,-1.133 8.1,0C8.1,1.133 7.7,2.083 6.9,2.85C6.133,3.65 5.183,4.05 4.05,4.05C2.917,4.05 1.95,3.65 1.15,2.85C0.383,2.083 0,1.133 0,0C0,-1.133 0.383,-2.1 1.15,-2.9C1.95,-3.667 2.917,-4.05 4.05,-4.05" style="fill:url(#_Radial5);"/>
            </g>
            <g id="shape25" serif:id="shape2" transform="matrix(-0.05,-0.1344,-0.1772,0.0659,286.6,196.8)">
                <path d="M4.05,-4.05C5.183,-4.05 6.133,-3.667 6.9,-2.9C7.7,-2.1 8.1,-1.133 8.1,0C8.1,1.133 7.7,2.083 6.9,2.85C6.133,3.65 5.183,4.05 4.05,4.05C2.917,4.05 1.95,3.65 1.15,2.85C0.383,2.083 0,1.133 0,0C0,-1.133 0.383,-2.1 1.15,-2.9C1.95,-3.667 2.917,-4.05 4.05,-4.05" style="fill:url(#_Radial6);"/>
            </g>
            <g id="shape26" serif:id="shape2" transform="matrix(0.0633,-0.19,-0.2505,-0.0835,290.6,205.75)">
                <path d="M4.05,-4.05C5.183,-4.05 6.133,-3.667 6.9,-2.9C7.7,-2.1 8.1,-1.133 8.1,0C8.1,1.133 7.7,2.083 6.9,2.85C6.133,3.65 5.183,4.05 4.05,4.05C2.917,4.05 1.95,3.65 1.15,2.85C0.383,2.083 0,1.133 0,0C0,-1.133 0.383,-2.1 1.15,-2.9C1.95,-3.667 2.917,-4.05 4.05,-4.05" style="fill:url(#_Radial7);"/>
            </g>
            <g id="shape27" serif:id="shape2" transform="matrix(0.0502,-0.1506,-0.1986,-0.0662,288.75,205.65)">
                <path d="M4.05,-4.05C5.183,-4.05 6.133,-3.667 6.9,-2.9C7.7,-2.1 8.1,-1.133 8.1,0C8.1,1.133 7.7,2.083 6.9,2.85C6.133,3.65 5.183,4.05 4.05,4.05C2.917,4.05 1.95,3.65 1.15,2.85C0.383,2.083 0,1.133 0,0C0,-1.133 0.383,-2.1 1.15,-2.9C1.95,-3.667 2.917,-4.05 4.05,-4.05" style="fill:url(#_Radial8);"/>
            </g>
            <g id="shape28" serif:id="shape2" transform="matrix(0.0435,-0.1305,-0.172,-0.0573,288,203.7)">
                <path d="M4.05,-4.05C5.183,-4.05 6.133,-3.667 6.9,-2.9C7.7,-2.1 8.1,-1.133 8.1,0C8.1,1.133 7.7,2.083 6.9,2.85C6.133,3.65 5.183,4.05 4.05,4.05C2.917,4.05 1.95,3.65 1.15,2.85C0.383,2.083 0,1.133 0,0C0,-1.133 0.383,-2.1 1.15,-2.9C1.95,-3.667 2.917,-4.05 4.05,-4.05" style="fill:url(#_Radial9);"/>
            </g>
            <g id="shape13" serif:id="shape1" transform="matrix(0.7131,-1.7029,-1.7029,-0.7131,282.85,205.6)">
                <path d="M1.8,-3.5L2.1,0L1.8,3.5C1.6,4.467 1.35,4.95 1.05,4.95C0.75,4.95 0.5,4.467 0.3,3.5C0.1,2.533 0,1.367 0,0C0,-1.367 0.1,-2.533 0.3,-3.5C0.5,-4.467 0.75,-4.95 1.05,-4.95C1.35,-4.95 1.6,-4.467 1.8,-3.5" style="fill:#9eae77;"/>
                <path d="M1.6,-0.75L1.8,1.5L1.6,3.75L1.1,4.7C0.9,4.667 0.75,4.35 0.65,3.75L0.45,1.5L0.65,-0.75C0.75,-1.383 0.9,-1.7 1.1,-1.7C1.3,-1.7 1.467,-1.383 1.6,-0.75" style="fill:#657e2e;"/>
            </g>
            <g id="shape14" serif:id="shape1" transform="matrix(0.1664,-1.2805,-1.2805,-0.1664,281.85,201.35)">
                <path d="M1.8,-3.5L2.1,0L1.8,3.5C1.6,4.467 1.35,4.95 1.05,4.95C0.75,4.95 0.5,4.467 0.3,3.5C0.1,2.533 0,1.367 0,0C0,-1.367 0.1,-2.533 0.3,-3.5C0.5,-4.467 0.75,-4.95 1.05,-4.95C1.35,-4.95 1.6,-4.467 1.8,-3.5" style="fill:#9eae77;"/>
                <path d="M1.6,-0.75L1.8,1.5L1.6,3.75L1.1,4.7C0.9,4.667 0.75,4.35 0.65,3.75L0.45,1.5L0.65,-0.75C0.75,-1.383 0.9,-1.7 1.1,-1.7C1.3,-1.7 1.467,-1.383 1.6,-0.75" style="fill:#657e2e;"/>
            </g>
            <g id="shape15" serif:id="shape1" transform="matrix(1.094,-1.2121,-1.2121,-1.094,279.9,207)">
                <path d="M1.8,-3.5L2.1,0L1.8,3.5C1.6,4.467 1.35,4.95 1.05,4.95C0.75,4.95 0.5,4.467 0.3,3.5C0.1,2.533 0,1.367 0,0C0,-1.367 0.1,-2.533 0.3,-3.5C0.5,-4.467 0.75,-4.95 1.05,-4.95C1.35,-4.95 1.6,-4.467 1.8,-3.5" style="fill:#9eae77;"/>
                <path d="M1.6,-0.75L1.8,1.5L1.6,3.75L1.1,4.7C0.9,4.667 0.75,4.35 0.65,3.75L0.45,1.5L0.65,-0.75C0.75,-1.383 0.9,-1.7 1.1,-1.7C1.3,-1.7 1.467,-1.383 1.6,-0.75" style="fill:#657e2e;"/>
            </g>
            <g id="shape29" serif:id="shape2" transform="matrix(0.104,-0.2548,-0.3359,-0.1371,290.7,207.85)">
                <path d="M4.05,-4.05C5.183,-4.05 6.133,-3.667 6.9,-2.9C7.7,-2.1 8.1,-1.133 8.1,0C8.1,1.133 7.7,2.083 6.9,2.85C6.133,3.65 5.183,4.05 4.05,4.05C2.917,4.05 1.95,3.65 1.15,2.85C0.383,2.083 0,1.133 0,0C0,-1.133 0.383,-2.1 1.15,-2.9C1.95,-3.667 2.917,-4.05 4.05,-4.05" style="fill:url(#_Radial10);"/>
            </g>
            <g id="shape210" serif:id="shape2" transform="matrix(0.0824,-0.202,-0.2663,-0.1087,287.7,207.3)">
                <path d="M4.05,-4.05C5.183,-4.05 6.133,-3.667 6.9,-2.9C7.7,-2.1 8.1,-1.133 8.1,0C8.1,1.133 7.7,2.083 6.9,2.85C6.133,3.65 5.183,4.05 4.05,4.05C2.917,4.05 1.95,3.65 1.15,2.85C0.383,2.083 0,1.133 0,0C0,-1.133 0.383,-2.1 1.15,-2.9C1.95,-3.667 2.917,-4.05 4.05,-4.05" style="fill:url(#_Radial11);"/>
            </g>
            <g id="shape211" serif:id="shape2" transform="matrix(0.0714,-0.175,-0.2307,-0.0942,286.75,205)">
                <path d="M4.05,-4.05C5.183,-4.05 6.133,-3.667 6.9,-2.9C7.7,-2.1 8.1,-1.133 8.1,0C8.1,1.133 7.7,2.083 6.9,2.85C6.133,3.65 5.183,4.05 4.05,4.05C2.917,4.05 1.95,3.65 1.15,2.85C0.383,2.083 0,1.133 0,0C0,-1.133 0.383,-2.1 1.15,-2.9C1.95,-3.667 2.917,-4.05 4.05,-4.05" style="fill:url(#_Radial12);"/>
            </g>
            <g id="shape212" serif:id="shape2" transform="matrix(-0.0095,-0.2092,-0.2758,0.0126,287.4,201.5)">
                <path d="M4.05,-4.05C5.183,-4.05 6.133,-3.667 6.9,-2.9C7.7,-2.1 8.1,-1.133 8.1,0C8.1,1.133 7.7,2.083 6.9,2.85C6.133,3.65 5.183,4.05 4.05,4.05C2.917,4.05 1.95,3.65 1.15,2.85C0.383,2.083 0,1.133 0,0C0,-1.133 0.383,-2.1 1.15,-2.9C1.95,-3.667 2.917,-4.05 4.05,-4.05" style="fill:url(#_Radial13);"/>
            </g>
            <g id="shape213" serif:id="shape2" transform="matrix(-0.0075,-0.1658,-0.2186,0.0099,285.45,202.05)">
                <path d="M4.05,-4.05C5.183,-4.05 6.133,-3.667 6.9,-2.9C7.7,-2.1 8.1,-1.133 8.1,0C8.1,1.133 7.7,2.083 6.9,2.85C6.133,3.65 5.183,4.05 4.05,4.05C2.917,4.05 1.95,3.65 1.15,2.85C0.383,2.083 0,1.133 0,0C0,-1.133 0.383,-2.1 1.15,-2.9C1.95,-3.667 2.917,-4.05 4.05,-4.05" style="fill:url(#_Radial14);"/>
            </g>
            <g id="shape214" serif:id="shape2" transform="matrix(-0.0065,-0.1437,-0.1894,0.0086,284,200.45)">
                <path d="M4.05,-4.05C5.183,-4.05 6.133,-3.667 6.9,-2.9C7.7,-2.1 8.1,-1.133 8.1,0C8.1,1.133 7.7,2.083 6.9,2.85C6.133,3.65 5.183,4.05 4.05,4.05C2.917,4.05 1.95,3.65 1.15,2.85C0.383,2.083 0,1.133 0,0C0,-1.133 0.383,-2.1 1.15,-2.9C1.95,-3.667 2.917,-4.05 4.05,-4.05" style="fill:url(#_Radial15);"/>
            </g>
            <g id="shape215" serif:id="shape2" transform="matrix(0.1187,-0.162,-0.2136,-0.1565,285.15,210.25)">
                <path d="M4.05,-4.05C5.183,-4.05 6.133,-3.667 6.9,-2.9C7.7,-2.1 8.1,-1.133 8.1,0C8.1,1.133 7.7,2.083 6.9,2.85C6.133,3.65 5.183,4.05 4.05,4.05C2.917,4.05 1.95,3.65 1.15,2.85C0.383,2.083 0,1.133 0,0C0,-1.133 0.383,-2.1 1.15,-2.9C1.95,-3.667 2.917,-4.05 4.05,-4.05" style="fill:url(#_Radial16);"/>
            </g>
            <g id="shape216" serif:id="shape2" transform="matrix(0.0941,-0.1284,-0.1693,-0.1241,283.4,209.6)">
                <path d="M4.05,-4.05C5.183,-4.05 6.133,-3.667 6.9,-2.9C7.7,-2.1 8.1,-1.133 8.1,0C8.1,1.133 7.7,2.083 6.9,2.85C6.133,3.65 5.183,4.05 4.05,4.05C2.917,4.05 1.95,3.65 1.15,2.85C0.383,2.083 0,1.133 0,0C0,-1.133 0.383,-2.1 1.15,-2.9C1.95,-3.667 2.917,-4.05 4.05,-4.05" style="fill:url(#_Radial17);"/>
            </g>
            <g id="shape217" serif:id="shape2" transform="matrix(0.0815,-0.1113,-0.1467,-0.1075,283.3,207.45)">
                <path d="M4.05,-4.05C5.183,-4.05 6.133,-3.667 6.9,-2.9C7.7,-2.1 8.1,-1.133 8.1,0C8.1,1.133 7.7,2.083 6.9,2.85C6.133,3.65 5.183,4.05 4.05,4.05C2.917,4.05 1.95,3.65 1.15,2.85C0.383,2.083 0,1.133 0,0C0,-1.133 0.383,-2.1 1.15,-2.9C1.95,-3.667 2.917,-4.05 4.05,-4.05" style="fill:url(#_Radial18);"/>
            </g>
            <g id="shape3" transform="matrix(3.2369,0,0,3.2369,223.9,208.7)">
                <path d="M8.25,5.3L8.05,6.3L8,6.65L7.85,6.45C7.717,6.283 7.683,6.1 7.75,5.9L8.05,5.4L8.25,5.3" style="fill:#474132;"/>
                <path d="M8.75,3.55L9.5,3.55L10,3.6L10.4,3.9L10.35,5.25L10.05,5.35C9.817,5.517 9.667,5.75 9.6,6.05C9.533,6.35 9.583,6.617 9.75,6.85L10.25,7.3L10.25,7.7L10,9.25L8.55,10.8L8.3,10.6C8,8.933 7.9,7.617 8,6.65L8.05,6.3L8.25,5.3L8.45,4.5L8.75,3.55" style="fill:#cdc098;"/>
                <path d="M10.45,3.15L11.1,3.35L11.55,3.55L11.4,4.1L11.05,5.3L10.8,5.2L10.35,5.25L10.4,3.9L10,3.6L9.5,3.55L8.75,3.55L8.75,3.5L8.8,3.5L9.05,3.1L10.45,3.15" style="fill:#eadbc4;"/>
                <path d="M11.05,5.3L11.4,4.1L11.55,3.55L12.35,4.7C12.817,5.167 13,5.583 12.9,5.95L12.75,6.3L10,9.25L10.25,7.7L10.25,7.3L10.35,7.35L10.5,7.35L11.15,7.15L11.55,6.5L11.45,5.65L11.05,5.3" style="fill:#83795c;"/>
                <path d="M10.35,5.25L10.8,5.2L11.05,5.3L11.45,5.65L11.55,6.5L11.15,7.15L10.5,7.35L10.35,7.35L10.25,7.3L9.75,6.85C9.583,6.617 9.533,6.35 9.6,6.05C9.667,5.75 9.817,5.517 10.05,5.35L10.35,5.25" style="fill:#d05b5b;"/>
                <path d="M10.45,3.15L9.05,3.1L8.8,3.5L8.75,3.5L8.75,3.55L8.45,4.5L8.25,5.3L8.05,6.3L8,6.65C7.9,7.617 8,8.933 8.3,10.6L8.55,10.8M11.55,3.55L11.1,3.35M12.75,6.3L12.9,5.95C13,5.583 12.817,5.167 12.35,4.7L11.55,3.55" style="fill:none;fill-rule:nonzero;stroke:#69604b;stroke-width:0.25px;"/>
                <path d="M11.1,3.35L10.45,3.15M10.35,5.25L10.8,5.2L11.05,5.3L11.45,5.65L11.55,6.5L11.15,7.15L10.5,7.35L10.35,7.35L10.25,7.3L9.75,6.85C9.583,6.617 9.533,6.35 9.6,6.05C9.667,5.75 9.817,5.517 10.05,5.35L10.35,5.25M10,9.25L12.75,6.3M8.55,10.8L10,9.25" style="fill:none;fill-rule:nonzero;stroke:#4d4637;stroke-width:0.25px;"/>
            </g>
            <g id="shape16" serif:id="shape1" transform="matrix(2.1351,-1.1194,-1.1194,-2.1351,275.15,212.35)">
                <path d="M1.8,-3.5L2.1,0L1.8,3.5C1.6,4.467 1.35,4.95 1.05,4.95C0.75,4.95 0.5,4.467 0.3,3.5C0.1,2.533 0,1.367 0,0C0,-1.367 0.1,-2.533 0.3,-3.5C0.5,-4.467 0.75,-4.95 1.05,-4.95C1.35,-4.95 1.6,-4.467 1.8,-3.5" style="fill:#9eae77;"/>
                <path d="M1.6,-0.75L1.8,1.5L1.6,3.75L1.1,4.7C0.9,4.667 0.75,4.35 0.65,3.75L0.45,1.5L0.65,-0.75C0.75,-1.383 0.9,-1.7 1.1,-1.7C1.3,-1.7 1.467,-1.383 1.6,-0.75" style="fill:#657e2e;"/>
            </g>
            <g id="shape17" serif:id="shape1" transform="matrix(1.2334,-1.1496,-1.1496,-1.2334,277.65,207.2)">
                <path d="M1.8,-3.5L2.1,0L1.8,3.5C1.6,4.467 1.35,4.95 1.05,4.95C0.75,4.95 0.5,4.467 0.3,3.5C0.1,2.533 0,1.367 0,0C0,-1.367 0.1,-2.533 0.3,-3.5C0.5,-4.467 0.75,-4.95 1.05,-4.95C1.35,-4.95 1.6,-4.467 1.8,-3.5" style="fill:#9eae77;"/>
                <path d="M1.6,-0.75L1.8,1.5L1.6,3.75L1.1,4.7C0.9,4.667 0.75,4.35 0.65,3.75L0.45,1.5L0.65,-0.75C0.75,-1.383 0.9,-1.7 1.1,-1.7C1.3,-1.7 1.467,-1.383 1.6,-0.75" style="fill:#657e2e;"/>
            </g>
            <g id="shape18" serif:id="shape1" transform="matrix(2.1097,-0.3085,-0.3085,-2.1097,270.95,211.25)">
                <path d="M1.8,-3.5L2.1,0L1.8,3.5C1.6,4.467 1.35,4.95 1.05,4.95C0.75,4.95 0.5,4.467 0.3,3.5C0.1,2.533 0,1.367 0,0C0,-1.367 0.1,-2.533 0.3,-3.5C0.5,-4.467 0.75,-4.95 1.05,-4.95C1.35,-4.95 1.6,-4.467 1.8,-3.5" style="fill:#9eae77;"/>
                <path d="M1.6,-0.75L1.8,1.5L1.6,3.75L1.1,4.7C0.9,4.667 0.75,4.35 0.65,3.75L0.45,1.5L0.65,-0.75C0.75,-1.383 0.9,-1.7 1.1,-1.7C1.3,-1.7 1.467,-1.383 1.6,-0.75" style="fill:#657e2e;"/>
            </g>
            <g id="shape218" serif:id="shape2" transform="matrix(0.3168,-0.1697,-0.2238,-0.4176,281.15,221.2)">
                <path d="M4.05,-4.05C5.183,-4.05 6.133,-3.667 6.9,-2.9C7.7,-2.1 8.1,-1.133 8.1,0C8.1,1.133 7.7,2.083 6.9,2.85C6.133,3.65 5.183,4.05 4.05,4.05C2.917,4.05 1.95,3.65 1.15,2.85C0.383,2.083 0,1.133 0,0C0,-1.133 0.383,-2.1 1.15,-2.9C1.95,-3.667 2.917,-4.05 4.05,-4.05" style="fill:url(#_Radial19);"/>
            </g>
            <g id="shape219" serif:id="shape2" transform="matrix(0.2511,-0.1346,-0.1774,-0.331,278.55,218.05)">
                <path d="M4.05,-4.05C5.183,-4.05 6.133,-3.667 6.9,-2.9C7.7,-2.1 8.1,-1.133 8.1,0C8.1,1.133 7.7,2.083 6.9,2.85C6.133,3.65 5.183,4.05 4.05,4.05C2.917,4.05 1.95,3.65 1.15,2.85C0.383,2.083 0,1.133 0,0C0,-1.133 0.383,-2.1 1.15,-2.9C1.95,-3.667 2.917,-4.05 4.05,-4.05" style="fill:url(#_Radial20);"/>
            </g>
            <g id="shape220" serif:id="shape2" transform="matrix(0.2175,-0.1165,-0.1537,-0.2868,279.55,214.9)">
                <path d="M4.05,-4.05C5.183,-4.05 6.133,-3.667 6.9,-2.9C7.7,-2.1 8.1,-1.133 8.1,0C8.1,1.133 7.7,2.083 6.9,2.85C6.133,3.65 5.183,4.05 4.05,4.05C2.917,4.05 1.95,3.65 1.15,2.85C0.383,2.083 0,1.133 0,0C0,-1.133 0.383,-2.1 1.15,-2.9C1.95,-3.667 2.917,-4.05 4.05,-4.05" style="fill:url(#_Radial21);"/>
            </g>
            <g id="shape221" serif:id="shape2" transform="matrix(0.1646,-0.2184,-0.2879,-0.217,283.15,211.95)">
                <path d="M4.05,-4.05C5.183,-4.05 6.133,-3.667 6.9,-2.9C7.7,-2.1 8.1,-1.133 8.1,0C8.1,1.133 7.7,2.083 6.9,2.85C6.133,3.65 5.183,4.05 4.05,4.05C2.917,4.05 1.95,3.65 1.15,2.85C0.383,2.083 0,1.133 0,0C0,-1.133 0.383,-2.1 1.15,-2.9C1.95,-3.667 2.917,-4.05 4.05,-4.05" style="fill:url(#_Radial22);"/>
            </g>
            <g id="shape222" serif:id="shape2" transform="matrix(0.1305,-0.1731,-0.2282,-0.172,280.7,210.9)">
                <path d="M4.05,-4.05C5.183,-4.05 6.133,-3.667 6.9,-2.9C7.7,-2.1 8.1,-1.133 8.1,0C8.1,1.133 7.7,2.083 6.9,2.85C6.133,3.65 5.183,4.05 4.05,4.05C2.917,4.05 1.95,3.65 1.15,2.85C0.383,2.083 0,1.133 0,0C0,-1.133 0.383,-2.1 1.15,-2.9C1.95,-3.667 2.917,-4.05 4.05,-4.05" style="fill:url(#_Radial23);"/>
            </g>
            <g id="shape223" serif:id="shape2" transform="matrix(0.113,-0.15,-0.1977,-0.149,280.55,208.1)">
                <path d="M4.05,-4.05C5.183,-4.05 6.133,-3.667 6.9,-2.9C7.7,-2.1 8.1,-1.133 8.1,0C8.1,1.133 7.7,2.083 6.9,2.85C6.133,3.65 5.183,4.05 4.05,4.05C2.917,4.05 1.95,3.65 1.15,2.85C0.383,2.083 0,1.133 0,0C0,-1.133 0.383,-2.1 1.15,-2.9C1.95,-3.667 2.917,-4.05 4.05,-4.05" style="fill:url(#_Radial24);"/>
            </g>
            <g id="shape224" serif:id="shape2" transform="matrix(0.2543,-0.0641,-0.0846,-0.3353,273.55,218.85)">
                <path d="M4.05,-4.05C5.183,-4.05 6.133,-3.667 6.9,-2.9C7.7,-2.1 8.1,-1.133 8.1,0C8.1,1.133 7.7,2.083 6.9,2.85C6.133,3.65 5.183,4.05 4.05,4.05C2.917,4.05 1.95,3.65 1.15,2.85C0.383,2.083 0,1.133 0,0C0,-1.133 0.383,-2.1 1.15,-2.9C1.95,-3.667 2.917,-4.05 4.05,-4.05" style="fill:url(#_Radial25);"/>
            </g>
            <g id="shape225" serif:id="shape2" transform="matrix(0.2016,-0.0509,-0.067,-0.2658,272.35,216.8)">
                <path d="M4.05,-4.05C5.183,-4.05 6.133,-3.667 6.9,-2.9C7.7,-2.1 8.1,-1.133 8.1,0C8.1,1.133 7.7,2.083 6.9,2.85C6.133,3.65 5.183,4.05 4.05,4.05C2.917,4.05 1.95,3.65 1.15,2.85C0.383,2.083 0,1.133 0,0C0,-1.133 0.383,-2.1 1.15,-2.9C1.95,-3.667 2.917,-4.05 4.05,-4.05" style="fill:url(#_Radial26);"/>
            </g>
            <g id="shape226" serif:id="shape2" transform="matrix(0.1747,-0.0441,-0.0581,-0.2303,274.05,214.55)">
                <path d="M4.05,-4.05C5.183,-4.05 6.133,-3.667 6.9,-2.9C7.7,-2.1 8.1,-1.133 8.1,0C8.1,1.133 7.7,2.083 6.9,2.85C6.133,3.65 5.183,4.05 4.05,4.05C2.917,4.05 1.95,3.65 1.15,2.85C0.383,2.083 0,1.133 0,0C0,-1.133 0.383,-2.1 1.15,-2.9C1.95,-3.667 2.917,-4.05 4.05,-4.05" style="fill:url(#_Radial27);"/>
            </g>
            <g id="shape19" serif:id="shape1" transform="matrix(1.5275,-1.0393,1.0393,1.5275,255.35,192.05)">
                <path d="M1.8,-3.5L2.1,0L1.8,3.5C1.6,4.467 1.35,4.95 1.05,4.95C0.75,4.95 0.5,4.467 0.3,3.5C0.1,2.533 0,1.367 0,0C0,-1.367 0.1,-2.533 0.3,-3.5C0.5,-4.467 0.75,-4.95 1.05,-4.95C1.35,-4.95 1.6,-4.467 1.8,-3.5" style="fill:#9eae77;"/>
                <path d="M1.6,-0.75L1.8,1.5L1.6,3.75L1.1,4.7C0.9,4.667 0.75,4.35 0.65,3.75L0.45,1.5L0.65,-0.75C0.75,-1.383 0.9,-1.7 1.1,-1.7C1.3,-1.7 1.467,-1.383 1.6,-0.75" style="fill:#657e2e;"/>
            </g>
            <g id="shape110" serif:id="shape1" transform="matrix(1.2224,-0.4189,0.4189,1.2224,259.7,192.2)">
                <path d="M1.8,-3.5L2.1,0L1.8,3.5C1.6,4.467 1.35,4.95 1.05,4.95C0.75,4.95 0.5,4.467 0.3,3.5C0.1,2.533 0,1.367 0,0C0,-1.367 0.1,-2.533 0.3,-3.5C0.5,-4.467 0.75,-4.95 1.05,-4.95C1.35,-4.95 1.6,-4.467 1.8,-3.5" style="fill:#9eae77;"/>
                <path d="M1.6,-0.75L1.8,1.5L1.6,3.75L1.1,4.7C0.9,4.667 0.75,4.35 0.65,3.75L0.45,1.5L0.65,-0.75C0.75,-1.383 0.9,-1.7 1.1,-1.7C1.3,-1.7 1.467,-1.383 1.6,-0.75" style="fill:#657e2e;"/>
            </g>
            <g id="shape111" serif:id="shape1" transform="matrix(0.9701,-1.3148,1.3148,0.9701,254.5,195.25)">
                <path d="M1.8,-3.5L2.1,0L1.8,3.5C1.6,4.467 1.35,4.95 1.05,4.95C0.75,4.95 0.5,4.467 0.3,3.5C0.1,2.533 0,1.367 0,0C0,-1.367 0.1,-2.533 0.3,-3.5C0.5,-4.467 0.75,-4.95 1.05,-4.95C1.35,-4.95 1.6,-4.467 1.8,-3.5" style="fill:#9eae77;"/>
                <path d="M1.6,-0.75L1.8,1.5L1.6,3.75L1.1,4.7C0.9,4.667 0.75,4.35 0.65,3.75L0.45,1.5L0.65,-0.75C0.75,-1.383 0.9,-1.7 1.1,-1.7C1.3,-1.7 1.467,-1.383 1.6,-0.75" style="fill:#657e2e;"/>
            </g>
            <g id="shape227" serif:id="shape2" transform="matrix(0.2291,-0.1529,0.2015,0.302,251.5,184.8)">
                <path d="M4.05,-4.05C5.183,-4.05 6.133,-3.667 6.9,-2.9C7.7,-2.1 8.1,-1.133 8.1,0C8.1,1.133 7.7,2.083 6.9,2.85C6.133,3.65 5.183,4.05 4.05,4.05C2.917,4.05 1.95,3.65 1.15,2.85C0.383,2.083 0,1.133 0,0C0,-1.133 0.383,-2.1 1.15,-2.9C1.95,-3.667 2.917,-4.05 4.05,-4.05" style="fill:url(#_Radial28);"/>
            </g>
            <g id="shape228" serif:id="shape2" transform="matrix(0.1816,-0.1212,0.1597,0.2394,252.65,187.7)">
                <path d="M4.05,-4.05C5.183,-4.05 6.133,-3.667 6.9,-2.9C7.7,-2.1 8.1,-1.133 8.1,0C8.1,1.133 7.7,2.083 6.9,2.85C6.133,3.65 5.183,4.05 4.05,4.05C2.917,4.05 1.95,3.65 1.15,2.85C0.383,2.083 0,1.133 0,0C0,-1.133 0.383,-2.1 1.15,-2.9C1.95,-3.667 2.917,-4.05 4.05,-4.05" style="fill:url(#_Radial29);"/>
            </g>
            <g id="shape229" serif:id="shape2" transform="matrix(0.1573,-0.105,0.1384,0.2074,255.15,188.15)">
                <path d="M4.05,-4.05C5.183,-4.05 6.133,-3.667 6.9,-2.9C7.7,-2.1 8.1,-1.133 8.1,0C8.1,1.133 7.7,2.083 6.9,2.85C6.133,3.65 5.183,4.05 4.05,4.05C2.917,4.05 1.95,3.65 1.15,2.85C0.383,2.083 0,1.133 0,0C0,-1.133 0.383,-2.1 1.15,-2.9C1.95,-3.667 2.917,-4.05 4.05,-4.05" style="fill:url(#_Radial30);"/>
            </g>
            <g id="shape230" serif:id="shape2" transform="matrix(0.207,-0.0325,0.0428,0.273,258.45,186.8)">
                <path d="M4.05,-4.05C5.183,-4.05 6.133,-3.667 6.9,-2.9C7.7,-2.1 8.1,-1.133 8.1,0C8.1,1.133 7.7,2.083 6.9,2.85C6.133,3.65 5.183,4.05 4.05,4.05C2.917,4.05 1.95,3.65 1.15,2.85C0.383,2.083 0,1.133 0,0C0,-1.133 0.383,-2.1 1.15,-2.9C1.95,-3.667 2.917,-4.05 4.05,-4.05" style="fill:url(#_Radial31);"/>
            </g>
            <g id="shape231" serif:id="shape2" transform="matrix(0.1641,-0.0257,0.0339,0.2164,258.25,188.8)">
                <path d="M4.05,-4.05C5.183,-4.05 6.133,-3.667 6.9,-2.9C7.7,-2.1 8.1,-1.133 8.1,0C8.1,1.133 7.7,2.083 6.9,2.85C6.133,3.65 5.183,4.05 4.05,4.05C2.917,4.05 1.95,3.65 1.15,2.85C0.383,2.083 0,1.133 0,0C0,-1.133 0.383,-2.1 1.15,-2.9C1.95,-3.667 2.917,-4.05 4.05,-4.05" style="fill:url(#_Radial32);"/>
            </g>
            <g id="shape232" serif:id="shape2" transform="matrix(0.1422,-0.0223,0.0294,0.1874,260.1,189.9)">
                <path d="M4.05,-4.05C5.183,-4.05 6.133,-3.667 6.9,-2.9C7.7,-2.1 8.1,-1.133 8.1,0C8.1,1.133 7.7,2.083 6.9,2.85C6.133,3.65 5.183,4.05 4.05,4.05C2.917,4.05 1.95,3.65 1.15,2.85C0.383,2.083 0,1.133 0,0C0,-1.133 0.383,-2.1 1.15,-2.9C1.95,-3.667 2.917,-4.05 4.05,-4.05" style="fill:url(#_Radial33);"/>
            </g>
            <g id="shape233" serif:id="shape2" transform="matrix(0.1351,-0.1488,0.1961,0.1782,250.3,190.75)">
                <path d="M4.05,-4.05C5.183,-4.05 6.133,-3.667 6.9,-2.9C7.7,-2.1 8.1,-1.133 8.1,0C8.1,1.133 7.7,2.083 6.9,2.85C6.133,3.65 5.183,4.05 4.05,4.05C2.917,4.05 1.95,3.65 1.15,2.85C0.383,2.083 0,1.133 0,0C0,-1.133 0.383,-2.1 1.15,-2.9C1.95,-3.667 2.917,-4.05 4.05,-4.05" style="fill:url(#_Radial34);"/>
            </g>
            <g id="shape234" serif:id="shape2" transform="matrix(0.1071,-0.1179,0.1555,0.1412,251.3,192.3)">
                <path d="M4.05,-4.05C5.183,-4.05 6.133,-3.667 6.9,-2.9C7.7,-2.1 8.1,-1.133 8.1,0C8.1,1.133 7.7,2.083 6.9,2.85C6.133,3.65 5.183,4.05 4.05,4.05C2.917,4.05 1.95,3.65 1.15,2.85C0.383,2.083 0,1.133 0,0C0,-1.133 0.383,-2.1 1.15,-2.9C1.95,-3.667 2.917,-4.05 4.05,-4.05" style="fill:url(#_Radial35);"/>
            </g>
            <g id="shape235" serif:id="shape2" transform="matrix(0.0928,-0.1022,0.1347,0.1224,253.4,192)">
                <path d="M4.05,-4.05C5.183,-4.05 6.133,-3.667 6.9,-2.9C7.7,-2.1 8.1,-1.133 8.1,0C8.1,1.133 7.7,2.083 6.9,2.85C6.133,3.65 5.183,4.05 4.05,4.05C2.917,4.05 1.95,3.65 1.15,2.85C0.383,2.083 0,1.133 0,0C0,-1.133 0.383,-2.1 1.15,-2.9C1.95,-3.667 2.917,-4.05 4.05,-4.05" style="fill:url(#_Radial36);"/>
            </g>
            <g id="shape112" serif:id="shape1" transform="matrix(0.3808,-1.8109,1.8109,0.3808,253.35,199.15)">
                <path d="M1.8,-3.5L2.1,0L1.8,3.5C1.6,4.467 1.35,4.95 1.05,4.95C0.75,4.95 0.5,4.467 0.3,3.5C0.1,2.533 0,1.367 0,0C0,-1.367 0.1,-2.533 0.3,-3.5C0.5,-4.467 0.75,-4.95 1.05,-4.95C1.35,-4.95 1.6,-4.467 1.8,-3.5" style="fill:#9eae77;"/>
                <path d="M1.6,-0.75L1.8,1.5L1.6,3.75L1.1,4.7C0.9,4.667 0.75,4.35 0.65,3.75L0.45,1.5L0.65,-0.75C0.75,-1.383 0.9,-1.7 1.1,-1.7C1.3,-1.7 1.467,-1.383 1.6,-0.75" style="fill:#657e2e;"/>
            </g>
            <g id="shape113" serif:id="shape1" transform="matrix(0.5914,-1.1512,1.1512,0.5914,256.65,196.25)">
                <path d="M1.8,-3.5L2.1,0L1.8,3.5C1.6,4.467 1.35,4.95 1.05,4.95C0.75,4.95 0.5,4.467 0.3,3.5C0.1,2.533 0,1.367 0,0C0,-1.367 0.1,-2.533 0.3,-3.5C0.5,-4.467 0.75,-4.95 1.05,-4.95C1.35,-4.95 1.6,-4.467 1.8,-3.5" style="fill:#9eae77;"/>
                <path d="M1.6,-0.75L1.8,1.5L1.6,3.75L1.1,4.7C0.9,4.667 0.75,4.35 0.65,3.75L0.45,1.5L0.65,-0.75C0.75,-1.383 0.9,-1.7 1.1,-1.7C1.3,-1.7 1.467,-1.383 1.6,-0.75" style="fill:#657e2e;"/>
            </g>
            <g id="shape114" serif:id="shape1" transform="matrix(-0.2129,-1.6227,1.6227,-0.2129,255.05,202.1)">
                <path d="M1.8,-3.5L2.1,0L1.8,3.5C1.6,4.467 1.35,4.95 1.05,4.95C0.75,4.95 0.5,4.467 0.3,3.5C0.1,2.533 0,1.367 0,0C0,-1.367 0.1,-2.533 0.3,-3.5C0.5,-4.467 0.75,-4.95 1.05,-4.95C1.35,-4.95 1.6,-4.467 1.8,-3.5" style="fill:#9eae77;"/>
                <path d="M1.6,-0.75L1.8,1.5L1.6,3.75L1.1,4.7C0.9,4.667 0.75,4.35 0.65,3.75L0.45,1.5L0.65,-0.75C0.75,-1.383 0.9,-1.7 1.1,-1.7C1.3,-1.7 1.467,-1.383 1.6,-0.75" style="fill:#657e2e;"/>
            </g>
            <g id="shape236" serif:id="shape2" transform="matrix(0.0592,-0.2694,0.3552,0.078,245.6,196.6)">
                <path d="M4.05,-4.05C5.183,-4.05 6.133,-3.667 6.9,-2.9C7.7,-2.1 8.1,-1.133 8.1,0C8.1,1.133 7.7,2.083 6.9,2.85C6.133,3.65 5.183,4.05 4.05,4.05C2.917,4.05 1.95,3.65 1.15,2.85C0.383,2.083 0,1.133 0,0C0,-1.133 0.383,-2.1 1.15,-2.9C1.95,-3.667 2.917,-4.05 4.05,-4.05" style="fill:url(#_Radial37);"/>
            </g>
            <g id="shape237" serif:id="shape2" transform="matrix(0.0469,-0.2136,0.2816,0.0619,248.5,197.8)">
                <path d="M4.05,-4.05C5.183,-4.05 6.133,-3.667 6.9,-2.9C7.7,-2.1 8.1,-1.133 8.1,0C8.1,1.133 7.7,2.083 6.9,2.85C6.133,3.65 5.183,4.05 4.05,4.05C2.917,4.05 1.95,3.65 1.15,2.85C0.383,2.083 0,1.133 0,0C0,-1.133 0.383,-2.1 1.15,-2.9C1.95,-3.667 2.917,-4.05 4.05,-4.05" style="fill:url(#_Radial38);"/>
            </g>
            <g id="shape238" serif:id="shape2" transform="matrix(0.0406,-0.185,0.244,0.0536,250.55,196.5)">
                <path d="M4.05,-4.05C5.183,-4.05 6.133,-3.667 6.9,-2.9C7.7,-2.1 8.1,-1.133 8.1,0C8.1,1.133 7.7,2.083 6.9,2.85C6.133,3.65 5.183,4.05 4.05,4.05C2.917,4.05 1.95,3.65 1.15,2.85C0.383,2.083 0,1.133 0,0C0,-1.133 0.383,-2.1 1.15,-2.9C1.95,-3.667 2.917,-4.05 4.05,-4.05" style="fill:url(#_Radial39);"/>
            </g>
            <g id="shape239" serif:id="shape2" transform="matrix(0.1269,-0.1672,0.2204,0.1673,252,193.2)">
                <path d="M4.05,-4.05C5.183,-4.05 6.133,-3.667 6.9,-2.9C7.7,-2.1 8.1,-1.133 8.1,0C8.1,1.133 7.7,2.083 6.9,2.85C6.133,3.65 5.183,4.05 4.05,4.05C2.917,4.05 1.95,3.65 1.15,2.85C0.383,2.083 0,1.133 0,0C0,-1.133 0.383,-2.1 1.15,-2.9C1.95,-3.667 2.917,-4.05 4.05,-4.05" style="fill:url(#_Radial40);"/>
            </g>
            <g id="shape240" serif:id="shape2" transform="matrix(0.1006,-0.1326,0.1747,0.1326,253.25,194.75)">
                <path d="M4.05,-4.05C5.183,-4.05 6.133,-3.667 6.9,-2.9C7.7,-2.1 8.1,-1.133 8.1,0C8.1,1.133 7.7,2.083 6.9,2.85C6.133,3.65 5.183,4.05 4.05,4.05C2.917,4.05 1.95,3.65 1.15,2.85C0.383,2.083 0,1.133 0,0C0,-1.133 0.383,-2.1 1.15,-2.9C1.95,-3.667 2.917,-4.05 4.05,-4.05" style="fill:url(#_Radial41);"/>
            </g>
            <g id="shape241" serif:id="shape2" transform="matrix(0.0872,-0.1148,0.1514,0.1149,255.35,194.25)">
                <path d="M4.05,-4.05C5.183,-4.05 6.133,-3.667 6.9,-2.9C7.7,-2.1 8.1,-1.133 8.1,0C8.1,1.133 7.7,2.083 6.9,2.85C6.133,3.65 5.183,4.05 4.05,4.05C2.917,4.05 1.95,3.65 1.15,2.85C0.383,2.083 0,1.133 0,0C0,-1.133 0.383,-2.1 1.15,-2.9C1.95,-3.667 2.917,-4.05 4.05,-4.05" style="fill:url(#_Radial42);"/>
            </g>
            <g id="shape242" serif:id="shape2" transform="matrix(-0.0058,-0.2012,0.2654,-0.0076,248.85,201.7)">
                <path d="M4.05,-4.05C5.183,-4.05 6.133,-3.667 6.9,-2.9C7.7,-2.1 8.1,-1.133 8.1,0C8.1,1.133 7.7,2.083 6.9,2.85C6.133,3.65 5.183,4.05 4.05,4.05C2.917,4.05 1.95,3.65 1.15,2.85C0.383,2.083 0,1.133 0,0C0,-1.133 0.383,-2.1 1.15,-2.9C1.95,-3.667 2.917,-4.05 4.05,-4.05" style="fill:url(#_Radial43);"/>
            </g>
            <g id="shape243" serif:id="shape2" transform="matrix(-0.0045,-0.1595,0.2103,-0.006,250.65,202.15)">
                <path d="M4.05,-4.05C5.183,-4.05 6.133,-3.667 6.9,-2.9C7.7,-2.1 8.1,-1.133 8.1,0C8.1,1.133 7.7,2.083 6.9,2.85C6.133,3.65 5.183,4.05 4.05,4.05C2.917,4.05 1.95,3.65 1.15,2.85C0.383,2.083 0,1.133 0,0C0,-1.133 0.383,-2.1 1.15,-2.9C1.95,-3.667 2.917,-4.05 4.05,-4.05" style="fill:url(#_Radial44);"/>
            </g>
            <g id="shape244" serif:id="shape2" transform="matrix(-0.004,-0.1382,0.1822,-0.0052,252,200.45)">
                <path d="M4.05,-4.05C5.183,-4.05 6.133,-3.667 6.9,-2.9C7.7,-2.1 8.1,-1.133 8.1,0C8.1,1.133 7.7,2.083 6.9,2.85C6.133,3.65 5.183,4.05 4.05,4.05C2.917,4.05 1.95,3.65 1.15,2.85C0.383,2.083 0,1.133 0,0C0,-1.133 0.383,-2.1 1.15,-2.9C1.95,-3.667 2.917,-4.05 4.05,-4.05" style="fill:url(#_Radial45);"/>
            </g>
            <g id="shape115" serif:id="shape1" transform="matrix(-1.1246,-2.1387,2.1387,-1.1246,257.95,208.45)">
                <path d="M1.8,-3.5L2.1,0L1.8,3.5C1.6,4.467 1.35,4.95 1.05,4.95C0.75,4.95 0.5,4.467 0.3,3.5C0.1,2.533 0,1.367 0,0C0,-1.367 0.1,-2.533 0.3,-3.5C0.5,-4.467 0.75,-4.95 1.05,-4.95C1.35,-4.95 1.6,-4.467 1.8,-3.5" style="fill:#9eae77;"/>
                <path d="M1.6,-0.75L1.8,1.5L1.6,3.75L1.1,4.7C0.9,4.667 0.75,4.35 0.65,3.75L0.45,1.5L0.65,-0.75C0.75,-1.383 0.9,-1.7 1.1,-1.7C1.3,-1.7 1.467,-1.383 1.6,-0.75" style="fill:#657e2e;"/>
            </g>
            <g id="shape116" serif:id="shape1" transform="matrix(-0.3635,-1.6505,1.6505,-0.3635,258.8,202.85)">
                <path d="M1.8,-3.5L2.1,0L1.8,3.5C1.6,4.467 1.35,4.95 1.05,4.95C0.75,4.95 0.5,4.467 0.3,3.5C0.1,2.533 0,1.367 0,0C0,-1.367 0.1,-2.533 0.3,-3.5C0.5,-4.467 0.75,-4.95 1.05,-4.95C1.35,-4.95 1.6,-4.467 1.8,-3.5" style="fill:#9eae77;"/>
                <path d="M1.6,-0.75L1.8,1.5L1.6,3.75L1.1,4.7C0.9,4.667 0.75,4.35 0.65,3.75L0.45,1.5L0.65,-0.75C0.75,-1.383 0.9,-1.7 1.1,-1.7C1.3,-1.7 1.467,-1.383 1.6,-0.75" style="fill:#657e2e;"/>
            </g>
            <g id="shape117" serif:id="shape1" transform="matrix(-1.5651,-1.4552,1.4552,-1.5651,262.05,210.05)">
                <path d="M1.8,-3.5L2.1,0L1.8,3.5C1.6,4.467 1.35,4.95 1.05,4.95C0.75,4.95 0.5,4.467 0.3,3.5C0.1,2.533 0,1.367 0,0C0,-1.367 0.1,-2.533 0.3,-3.5C0.5,-4.467 0.75,-4.95 1.05,-4.95C1.35,-4.95 1.6,-4.467 1.8,-3.5" style="fill:#9eae77;"/>
                <path d="M1.6,-0.75L1.8,1.5L1.6,3.75L1.1,4.7C0.9,4.667 0.75,4.35 0.65,3.75L0.45,1.5L0.65,-0.75C0.75,-1.383 0.9,-1.7 1.1,-1.7C1.3,-1.7 1.467,-1.383 1.6,-0.75" style="fill:#657e2e;"/>
            </g>
            <g id="shape245" serif:id="shape2" transform="matrix(-0.1648,-0.3203,0.4223,-0.2172,247.95,212.35)">
                <path d="M4.05,-4.05C5.183,-4.05 6.133,-3.667 6.9,-2.9C7.7,-2.1 8.1,-1.133 8.1,0C8.1,1.133 7.7,2.083 6.9,2.85C6.133,3.65 5.183,4.05 4.05,4.05C2.917,4.05 1.95,3.65 1.15,2.85C0.383,2.083 0,1.133 0,0C0,-1.133 0.383,-2.1 1.15,-2.9C1.95,-3.667 2.917,-4.05 4.05,-4.05" style="fill:url(#_Radial46);"/>
            </g>
            <g id="shape246" serif:id="shape2" transform="matrix(-0.1306,-0.2539,0.3347,-0.1722,251.9,211.25)">
                <path d="M4.05,-4.05C5.183,-4.05 6.133,-3.667 6.9,-2.9C7.7,-2.1 8.1,-1.133 8.1,0C8.1,1.133 7.7,2.083 6.9,2.85C6.133,3.65 5.183,4.05 4.05,4.05C2.917,4.05 1.95,3.65 1.15,2.85C0.383,2.083 0,1.133 0,0C0,-1.133 0.383,-2.1 1.15,-2.9C1.95,-3.667 2.917,-4.05 4.05,-4.05" style="fill:url(#_Radial47);"/>
            </g>
            <g id="shape247" serif:id="shape2" transform="matrix(-0.1132,-0.22,0.29,-0.1492,252.85,208.15)">
                <path d="M4.05,-4.05C5.183,-4.05 6.133,-3.667 6.9,-2.9C7.7,-2.1 8.1,-1.133 8.1,0C8.1,1.133 7.7,2.083 6.9,2.85C6.133,3.65 5.183,4.05 4.05,4.05C2.917,4.05 1.95,3.65 1.15,2.85C0.383,2.083 0,1.133 0,0C0,-1.133 0.383,-2.1 1.15,-2.9C1.95,-3.667 2.917,-4.05 4.05,-4.05" style="fill:url(#_Radial48);"/>
            </g>
            <g id="shape248" serif:id="shape2" transform="matrix(-0.0115,-0.2739,0.3611,-0.0152,251.55,203.65)">
                <path d="M4.05,-4.05C5.183,-4.05 6.133,-3.667 6.9,-2.9C7.7,-2.1 8.1,-1.133 8.1,0C8.1,1.133 7.7,2.083 6.9,2.85C6.133,3.65 5.183,4.05 4.05,4.05C2.917,4.05 1.95,3.65 1.15,2.85C0.383,2.083 0,1.133 0,0C0,-1.133 0.383,-2.1 1.15,-2.9C1.95,-3.667 2.917,-4.05 4.05,-4.05" style="fill:url(#_Radial49);"/>
            </g>
            <g id="shape249" serif:id="shape2" transform="matrix(-0.0091,-0.2171,0.2862,-0.0121,254.2,204.2)">
                <path d="M4.05,-4.05C5.183,-4.05 6.133,-3.667 6.9,-2.9C7.7,-2.1 8.1,-1.133 8.1,0C8.1,1.133 7.7,2.083 6.9,2.85C6.133,3.65 5.183,4.05 4.05,4.05C2.917,4.05 1.95,3.65 1.15,2.85C0.383,2.083 0,1.133 0,0C0,-1.133 0.383,-2.1 1.15,-2.9C1.95,-3.667 2.917,-4.05 4.05,-4.05" style="fill:url(#_Radial50);"/>
            </g>
            <g id="shape250" serif:id="shape2" transform="matrix(-0.0079,-0.1881,0.2479,-0.0104,255.9,201.9)">
                <path d="M4.05,-4.05C5.183,-4.05 6.133,-3.667 6.9,-2.9C7.7,-2.1 8.1,-1.133 8.1,0C8.1,1.133 7.7,2.083 6.9,2.85C6.133,3.65 5.183,4.05 4.05,4.05C2.917,4.05 1.95,3.65 1.15,2.85C0.383,2.083 0,1.133 0,0C0,-1.133 0.383,-2.1 1.15,-2.9C1.95,-3.667 2.917,-4.05 4.05,-4.05" style="fill:url(#_Radial51);"/>
            </g>
            <g id="shape251" serif:id="shape2" transform="matrix(-0.1734,-0.1976,0.2606,-0.2285,255.55,214.8)">
                <path d="M4.05,-4.05C5.183,-4.05 6.133,-3.667 6.9,-2.9C7.7,-2.1 8.1,-1.133 8.1,0C8.1,1.133 7.7,2.083 6.9,2.85C6.133,3.65 5.183,4.05 4.05,4.05C2.917,4.05 1.95,3.65 1.15,2.85C0.383,2.083 0,1.133 0,0C0,-1.133 0.383,-2.1 1.15,-2.9C1.95,-3.667 2.917,-4.05 4.05,-4.05" style="fill:url(#_Radial52);"/>
            </g>
            <g id="shape252" serif:id="shape2" transform="matrix(-0.1374,-0.1567,0.2065,-0.1812,257.7,213.75)">
                <path d="M4.05,-4.05C5.183,-4.05 6.133,-3.667 6.9,-2.9C7.7,-2.1 8.1,-1.133 8.1,0C8.1,1.133 7.7,2.083 6.9,2.85C6.133,3.65 5.183,4.05 4.05,4.05C2.917,4.05 1.95,3.65 1.15,2.85C0.383,2.083 0,1.133 0,0C0,-1.133 0.383,-2.1 1.15,-2.9C1.95,-3.667 2.917,-4.05 4.05,-4.05" style="fill:url(#_Radial53);"/>
            </g>
            <g id="shape253" serif:id="shape2" transform="matrix(-0.119,-0.1358,0.179,-0.1569,257.65,210.95)">
                <path d="M4.05,-4.05C5.183,-4.05 6.133,-3.667 6.9,-2.9C7.7,-2.1 8.1,-1.133 8.1,0C8.1,1.133 7.7,2.083 6.9,2.85C6.133,3.65 5.183,4.05 4.05,4.05C2.917,4.05 1.95,3.65 1.15,2.85C0.383,2.083 0,1.133 0,0C0,-1.133 0.383,-2.1 1.15,-2.9C1.95,-3.667 2.917,-4.05 4.05,-4.05" style="fill:url(#_Radial54);"/>
            </g>
            <g id="shape118" serif:id="shape1" transform="matrix(-2.7623,-2.0774,2.0774,-2.7623,264,216.55)">
                <path d="M1.8,-3.5L2.1,0L1.8,3.5C1.6,4.467 1.35,4.95 1.05,4.95C0.75,4.95 0.5,4.467 0.3,3.5C0.1,2.533 0,1.367 0,0C0,-1.367 0.1,-2.533 0.3,-3.5C0.5,-4.467 0.75,-4.95 1.05,-4.95C1.35,-4.95 1.6,-4.467 1.8,-3.5" style="fill:#c4d894;"/>
                <path d="M1.6,-0.75L1.8,1.5L1.6,3.75L1.1,4.7C0.9,4.667 0.75,4.35 0.65,3.75L0.45,1.5L0.65,-0.75C0.75,-1.383 0.9,-1.7 1.1,-1.7C1.3,-1.7 1.467,-1.383 1.6,-0.75" style="fill:#7e9c39;"/>
            </g>
            <g id="shape119" serif:id="shape1" transform="matrix(-1.4795,-1.9117,1.9117,-1.4795,261.65,208.75)">
                <path d="M1.8,-3.5L2.1,0L1.8,3.5C1.6,4.467 1.35,4.95 1.05,4.95C0.75,4.95 0.5,4.467 0.3,3.5C0.1,2.533 0,1.367 0,0C0,-1.367 0.1,-2.533 0.3,-3.5C0.5,-4.467 0.75,-4.95 1.05,-4.95C1.35,-4.95 1.6,-4.467 1.8,-3.5" style="fill:#c4d894;"/>
                <path d="M1.6,-0.75L1.8,1.5L1.6,3.75L1.1,4.7C0.9,4.667 0.75,4.35 0.65,3.75L0.45,1.5L0.65,-0.75C0.75,-1.383 0.9,-1.7 1.1,-1.7C1.3,-1.7 1.467,-1.383 1.6,-0.75" style="fill:#7e9c39;"/>
            </g>
            <g id="shape120" serif:id="shape1" transform="matrix(-2.9138,-0.9242,0.9242,-2.9138,270.25,216.05)">
                <path d="M1.8,-3.5L2.1,0L1.8,3.5C1.6,4.467 1.35,4.95 1.05,4.95C0.75,4.95 0.5,4.467 0.3,3.5C0.1,2.533 0,1.367 0,0C0,-1.367 0.1,-2.533 0.3,-3.5C0.5,-4.467 0.75,-4.95 1.05,-4.95C1.35,-4.95 1.6,-4.467 1.8,-3.5" style="fill:#c4d894;"/>
                <path d="M1.6,-0.75L1.8,1.5L1.6,3.75L1.1,4.7C0.9,4.667 0.75,4.35 0.65,3.75L0.45,1.5L0.65,-0.75C0.75,-1.383 0.9,-1.7 1.1,-1.7C1.3,-1.7 1.467,-1.383 1.6,-0.75" style="fill:#7e9c39;"/>
            </g>
            <g id="shape254" serif:id="shape2" transform="matrix(-0.409,-0.3134,0.4131,-0.5392,253.45,227.65)">
                <path d="M4.05,-4.05C5.183,-4.05 6.133,-3.667 6.9,-2.9C7.7,-2.1 8.1,-1.133 8.1,0C8.1,1.133 7.7,2.083 6.9,2.85C6.133,3.65 5.183,4.05 4.05,4.05C2.917,4.05 1.95,3.65 1.15,2.85C0.383,2.083 0,1.133 0,0C0,-1.133 0.383,-2.1 1.15,-2.9C1.95,-3.667 2.917,-4.05 4.05,-4.05" style="fill:url(#_Radial55);"/>
            </g>
            <g id="shape255" serif:id="shape2" transform="matrix(-0.3242,-0.2484,0.3275,-0.4274,257.9,223.85)">
                <path d="M4.05,-4.05C5.183,-4.05 6.133,-3.667 6.9,-2.9C7.7,-2.1 8.1,-1.133 8.1,0C8.1,1.133 7.7,2.083 6.9,2.85C6.133,3.65 5.183,4.05 4.05,4.05C2.917,4.05 1.95,3.65 1.15,2.85C0.383,2.083 0,1.133 0,0C0,-1.133 0.383,-2.1 1.15,-2.9C1.95,-3.667 2.917,-4.05 4.05,-4.05" style="fill:url(#_Radial56);"/>
            </g>
            <g id="shape256" serif:id="shape2" transform="matrix(-0.2809,-0.2152,0.2838,-0.3703,257.2,219.25)">
                <path d="M4.05,-4.05C5.183,-4.05 6.133,-3.667 6.9,-2.9C7.7,-2.1 8.1,-1.133 8.1,0C8.1,1.133 7.7,2.083 6.9,2.85C6.133,3.65 5.183,4.05 4.05,4.05C2.917,4.05 1.95,3.65 1.15,2.85C0.383,2.083 0,1.133 0,0C0,-1.133 0.383,-2.1 1.15,-2.9C1.95,-3.667 2.917,-4.05 4.05,-4.05" style="fill:url(#_Radial57);"/>
            </g>
            <g id="shape257" serif:id="shape2" transform="matrix(-0.1824,-0.347,0.4576,-0.2405,252.8,214.15)">
                <path d="M4.05,-4.05C5.183,-4.05 6.133,-3.667 6.9,-2.9C7.7,-2.1 8.1,-1.133 8.1,0C8.1,1.133 7.7,2.083 6.9,2.85C6.133,3.65 5.183,4.05 4.05,4.05C2.917,4.05 1.95,3.65 1.15,2.85C0.383,2.083 0,1.133 0,0C0,-1.133 0.383,-2.1 1.15,-2.9C1.95,-3.667 2.917,-4.05 4.05,-4.05" style="fill:url(#_Radial58);"/>
            </g>
            <g id="shape258" serif:id="shape2" transform="matrix(-0.1446,-0.2751,0.3627,-0.1906,256.5,213.3)">
                <path d="M4.05,-4.05C5.183,-4.05 6.133,-3.667 6.9,-2.9C7.7,-2.1 8.1,-1.133 8.1,0C8.1,1.133 7.7,2.083 6.9,2.85C6.133,3.65 5.183,4.05 4.05,4.05C2.917,4.05 1.95,3.65 1.15,2.85C0.383,2.083 0,1.133 0,0C0,-1.133 0.383,-2.1 1.15,-2.9C1.95,-3.667 2.917,-4.05 4.05,-4.05" style="fill:url(#_Radial59);"/>
            </g>
            <g id="shape259" serif:id="shape2" transform="matrix(-0.1253,-0.2383,0.3142,-0.1651,257.3,209.4)">
                <path d="M4.05,-4.05C5.183,-4.05 6.133,-3.667 6.9,-2.9C7.7,-2.1 8.1,-1.133 8.1,0C8.1,1.133 7.7,2.083 6.9,2.85C6.133,3.65 5.183,4.05 4.05,4.05C2.917,4.05 1.95,3.65 1.15,2.85C0.383,2.083 0,1.133 0,0C0,-1.133 0.383,-2.1 1.15,-2.9C1.95,-3.667 2.917,-4.05 4.05,-4.05" style="fill:url(#_Radial60);"/>
            </g>
            <g id="shape260" serif:id="shape2" transform="matrix(-0.345,-0.1495,0.1972,-0.4549,264.75,226.2)">
                <path d="M4.05,-4.05C5.183,-4.05 6.133,-3.667 6.9,-2.9C7.7,-2.1 8.1,-1.133 8.1,0C8.1,1.133 7.7,2.083 6.9,2.85C6.133,3.65 5.183,4.05 4.05,4.05C2.917,4.05 1.95,3.65 1.15,2.85C0.383,2.083 0,1.133 0,0C0,-1.133 0.383,-2.1 1.15,-2.9C1.95,-3.667 2.917,-4.05 4.05,-4.05" style="fill:url(#_Radial61);"/>
            </g>
            <g id="shape261" serif:id="shape2" transform="matrix(-0.2735,-0.1185,0.1562,-0.3606,266.95,223.55)">
                <path d="M4.05,-4.05C5.183,-4.05 6.133,-3.667 6.9,-2.9C7.7,-2.1 8.1,-1.133 8.1,0C8.1,1.133 7.7,2.083 6.9,2.85C6.133,3.65 5.183,4.05 4.05,4.05C2.917,4.05 1.95,3.65 1.15,2.85C0.383,2.083 0,1.133 0,0C0,-1.133 0.383,-2.1 1.15,-2.9C1.95,-3.667 2.917,-4.05 4.05,-4.05" style="fill:url(#_Radial62);"/>
            </g>
            <g id="shape262" serif:id="shape2" transform="matrix(-0.237,-0.1027,0.1354,-0.3124,265.1,219.95)">
                <path d="M4.05,-4.05C5.183,-4.05 6.133,-3.667 6.9,-2.9C7.7,-2.1 8.1,-1.133 8.1,0C8.1,1.133 7.7,2.083 6.9,2.85C6.133,3.65 5.183,4.05 4.05,4.05C2.917,4.05 1.95,3.65 1.15,2.85C0.383,2.083 0,1.133 0,0C0,-1.133 0.383,-2.1 1.15,-2.9C1.95,-3.667 2.917,-4.05 4.05,-4.05" style="fill:url(#_Radial63);"/>
            </g>
        </g>
    </g>
    <defs>
        <radialGradient id="_Radial1" cx="0" cy="0" r="1" gradientUnits="userSpaceOnUse" gradientTransform="matrix(4.17792,0,0,4.17792,4.05,0)"><stop offset="0" style="stop-color:#cecece;stop-opacity:1"/><stop offset="1" style="stop-color:#cecece;stop-opacity:0"/></radialGradient>
        <radialGradient id="_Radial2" cx="0" cy="0" r="1" gradientUnits="userSpaceOnUse" gradientTransform="matrix(4.17792,0,0,4.17792,4.05,0)"><stop offset="0" style="stop-color:#cecece;stop-opacity:1"/><stop offset="1" style="stop-color:#cecece;stop-opacity:0"/></radialGradient>
        <radialGradient id="_Radial3" cx="0" cy="0" r="1" gradientUnits="userSpaceOnUse" gradientTransform="matrix(4.17792,0,0,4.17792,4.05,0)"><stop offset="0" style="stop-color:#cecece;stop-opacity:1"/><stop offset="1" style="stop-color:#cecece;stop-opacity:0"/></radialGradient>
        <radialGradient id="_Radial4" cx="0" cy="0" r="1" gradientUnits="userSpaceOnUse" gradientTransform="matrix(4.17792,0,0,4.17792,4.05,0)"><stop offset="0" style="stop-color:#cecece;stop-opacity:1"/><stop offset="1" style="stop-color:#cecece;stop-opacity:0"/></radialGradient>
        <radialGradient id="_Radial5" cx="0" cy="0" r="1" gradientUnits="userSpaceOnUse" gradientTransform="matrix(4.17792,0,0,4.17792,4.05,0)"><stop offset="0" style="stop-color:#cecece;stop-opacity:1"/><stop offset="1" style="stop-color:#cecece;stop-opacity:0"/></radialGradient>
        <radialGradient id="_Radial6" cx="0" cy="0" r="1" gradientUnits="userSpaceOnUse" gradientTransform="matrix(4.17792,0,0,4.17792,4.05,0)"><stop offset="0" style="stop-color:#cecece;stop-opacity:1"/><stop offset="1" style="stop-color:#cecece;stop-opacity:0"/></radialGradient>
        <radialGradient id="_Radial7" cx="0" cy="0" r="1" gradientUnits="userSpaceOnUse" gradientTransform="matrix(4.17792,0,0,4.17792,4.05,0)"><stop offset="0" style="stop-color:#cecece;stop-opacity:0.61"/><stop offset="1" style="stop-color:#cecece;stop-opacity:0"/></radialGradient>
        <radialGradient id="_Radial8" cx="0" cy="0" r="1" gradientUnits="userSpaceOnUse" gradientTransform="matrix(4.17792,0,0,4.17792,4.05,0)"><stop offset="0" style="stop-color:#cecece;stop-opacity:1"/><stop offset="1" style="stop-color:#cecece;stop-opacity:0"/></radialGradient>
        <radialGradient id="_Radial9" cx="0" cy="0" r="1" gradientUnits="userSpaceOnUse" gradientTransform="matrix(4.17792,0,0,4.17792,4.05,0)"><stop offset="0" style="stop-color:#cecece;stop-opacity:0.61"/><stop offset="1" style="stop-color:#cecece;stop-opacity:0"/></radialGradient>
        <radialGradient id="_Radial10" cx="0" cy="0" r="1" gradientUnits="userSpaceOnUse" gradientTransform="matrix(4.17792,0,0,4.17792,4.05,0)"><stop offset="0" style="stop-color:#cecece;stop-opacity:1"/><stop offset="1" style="stop-color:#cecece;stop-opacity:0"/></radialGradient>
        <radialGradient id="_Radial11" cx="0" cy="0" r="1" gradientUnits="userSpaceOnUse" gradientTransform="matrix(4.17792,0,0,4.17792,4.05,0)"><stop offset="0" style="stop-color:#cecece;stop-opacity:1"/><stop offset="1" style="stop-color:#cecece;stop-opacity:0"/></radialGradient>
        <radialGradient id="_Radial12" cx="0" cy="0" r="1" gradientUnits="userSpaceOnUse" gradientTransform="matrix(4.17792,0,0,4.17792,4.05,0)"><stop offset="0" style="stop-color:#cecece;stop-opacity:1"/><stop offset="1" style="stop-color:#cecece;stop-opacity:0"/></radialGradient>
        <radialGradient id="_Radial13" cx="0" cy="0" r="1" gradientUnits="userSpaceOnUse" gradientTransform="matrix(4.17792,0,0,4.17792,4.05,0)"><stop offset="0" style="stop-color:#cecece;stop-opacity:1"/><stop offset="1" style="stop-color:#cecece;stop-opacity:0"/></radialGradient>
        <radialGradient id="_Radial14" cx="0" cy="0" r="1" gradientUnits="userSpaceOnUse" gradientTransform="matrix(4.17792,0,0,4.17792,4.05,0)"><stop offset="0" style="stop-color:#cecece;stop-opacity:1"/><stop offset="1" style="stop-color:#cecece;stop-opacity:0"/></radialGradient>
        <radialGradient id="_Radial15" cx="0" cy="0" r="1" gradientUnits="userSpaceOnUse" gradientTransform="matrix(4.17792,0,0,4.17792,4.05,0)"><stop offset="0" style="stop-color:#cecece;stop-opacity:1"/><stop offset="1" style="stop-color:#cecece;stop-opacity:0"/></radialGradient>
        <radialGradient id="_Radial16" cx="0" cy="0" r="1" gradientUnits="userSpaceOnUse" gradientTransform="matrix(4.17792,0,0,4.17792,4.05,0)"><stop offset="0" style="stop-color:#cecece;stop-opacity:0.61"/><stop offset="1" style="stop-color:#cecece;stop-opacity:0"/></radialGradient>
        <radialGradient id="_Radial17" cx="0" cy="0" r="1" gradientUnits="userSpaceOnUse" gradientTransform="matrix(4.17792,0,0,4.17792,4.05,0)"><stop offset="0" style="stop-color:#cecece;stop-opacity:0.61"/><stop offset="1" style="stop-color:#cecece;stop-opacity:0"/></radialGradient>
        <radialGradient id="_Radial18" cx="0" cy="0" r="1" gradientUnits="userSpaceOnUse" gradientTransform="matrix(4.17792,0,0,4.17792,4.05,0)"><stop offset="0" style="stop-color:#cecece;stop-opacity:0.61"/><stop offset="1" style="stop-color:#cecece;stop-opacity:0"/></radialGradient>
        <radialGradient id="_Radial19" cx="0" cy="0" r="1" gradientUnits="userSpaceOnUse" gradientTransform="matrix(4.17792,0,0,4.17792,4.05,0)"><stop offset="0" style="stop-color:#cecece;stop-opacity:1"/><stop offset="1" style="stop-color:#cecece;stop-opacity:0"/></radialGradient>
        <radialGradient id="_Radial20" cx="0" cy="0" r="1" gradientUnits="userSpaceOnUse" gradientTransform="matrix(4.17792,0,0,4.17792,4.05,0)"><stop offset="0" style="stop-color:#cecece;stop-opacity:1"/><stop offset="1" style="stop-color:#cecece;stop-opacity:0"/></radialGradient>
        <radialGradient id="_Radial21" cx="0" cy="0" r="1" gradientUnits="userSpaceOnUse" gradientTransform="matrix(4.17792,0,0,4.17792,4.05,0)"><stop offset="0" style="stop-color:#cecece;stop-opacity:1"/><stop offset="1" style="stop-color:#cecece;stop-opacity:0"/></radialGradient>
        <radialGradient id="_Radial22" cx="0" cy="0" r="1" gradientUnits="userSpaceOnUse" gradientTransform="matrix(4.17792,0,0,4.17792,4.05,0)"><stop offset="0" style="stop-color:#cecece;stop-opacity:1"/><stop offset="1" style="stop-color:#cecece;stop-opacity:0"/></radialGradient>
        <radialGradient id="_Radial23" cx="0" cy="0" r="1" gradientUnits="userSpaceOnUse" gradientTransform="matrix(4.17792,0,0,4.17792,4.05,0)"><stop offset="0" style="stop-color:#cecece;stop-opacity:1"/><stop offset="1" style="stop-color:#cecece;stop-opacity:0"/></radialGradient>
        <radialGradient id="_Radial24" cx="0" cy="0" r="1" gradientUnits="userSpaceOnUse" gradientTransform="matrix(4.17792,0,0,4.17792,4.05,0)"><stop offset="0" style="stop-color:#cecece;stop-opacity:1"/><stop offset="1" style="stop-color:#cecece;stop-opacity:0"/></radialGradient>
        <radialGradient id="_Radial25" cx="0" cy="0" r="1" gradientUnits="userSpaceOnUse" gradientTransform="matrix(4.17792,0,0,4.17792,4.05,0)"><stop offset="0" style="stop-color:#cecece;stop-opacity:0.61"/><stop offset="1" style="stop-color:#cecece;stop-opacity:0"/></radialGradient>
        <radialGradient id="_Radial26" cx="0" cy="0" r="1" gradientUnits="userSpaceOnUse" gradientTransform="matrix(4.17792,0,0,4.17792,4.05,0)"><stop offset="0" style="stop-color:#cecece;stop-opacity:0.61"/><stop offset="1" style="stop-color:#cecece;stop-opacity:0"/></radialGradient>
        <radialGradient id="_Radial27" cx="0" cy="0" r="1" gradientUnits="userSpaceOnUse" gradientTransform="matrix(4.17792,0,0,4.17792,4.05,0)"><stop offset="0" style="stop-color:#cecece;stop-opacity:0.61"/><stop offset="1" style="stop-color:#cecece;stop-opacity:0"/></radialGradient>
        <radialGradient id="_Radial28" cx="0" cy="0" r="1" gradientUnits="userSpaceOnUse" gradientTransform="matrix(4.17792,0,0,4.17792,4.05,0)"><stop offset="0" style="stop-color:#cecece;stop-opacity:1"/><stop offset="1" style="stop-color:#cecece;stop-opacity:0"/></radialGradient>
        <radialGradient id="_Radial29" cx="0" cy="0" r="1" gradientUnits="userSpaceOnUse" gradientTransform="matrix(4.17792,0,0,4.17792,4.05,0)"><stop offset="0" style="stop-color:#cecece;stop-opacity:1"/><stop offset="1" style="stop-color:#cecece;stop-opacity:0"/></radialGradient>
        <radialGradient id="_Radial30" cx="0" cy="0" r="1" gradientUnits="userSpaceOnUse" gradientTransform="matrix(4.17792,0,0,4.17792,4.05,0)"><stop offset="0" style="stop-color:#cecece;stop-opacity:1"/><stop offset="1" style="stop-color:#cecece;stop-opacity:0"/></radialGradient>
        <radialGradient id="_Radial31" cx="0" cy="0" r="1" gradientUnits="userSpaceOnUse" gradientTransform="matrix(4.17792,0,0,4.17792,4.05,0)"><stop offset="0" style="stop-color:#cecece;stop-opacity:1"/><stop offset="1" style="stop-color:#cecece;stop-opacity:0"/></radialGradient>
        <radialGradient id="_Radial32" cx="0" cy="0" r="1" gradientUnits="userSpaceOnUse" gradientTransform="matrix(4.17792,0,0,4.17792,4.05,0)"><stop offset="0" style="stop-color:#cecece;stop-opacity:1"/><stop offset="1" style="stop-color:#cecece;stop-opacity:0"/></radialGradient>
        <radialGradient id="_Radial33" cx="0" cy="0" r="1" gradientUnits="userSpaceOnUse" gradientTransform="matrix(4.17792,0,0,4.17792,4.05,0)"><stop offset="0" style="stop-color:#cecece;stop-opacity:1"/><stop offset="1" style="stop-color:#cecece;stop-opacity:0"/></radialGradient>
        <radialGradient id="_Radial34" cx="0" cy="0" r="1" gradientUnits="userSpaceOnUse" gradientTransform="matrix(4.17792,0,0,4.17792,4.05,0)"><stop offset="0" style="stop-color:#cecece;stop-opacity:1"/><stop offset="1" style="stop-color:#cecece;stop-opacity:0"/></radialGradient>
        <radialGradient id="_Radial35" cx="0" cy="0" r="1" gradientUnits="userSpaceOnUse" gradientTransform="matrix(4.17792,0,0,4.17792,4.05,0)"><stop offset="0" style="stop-color:#cecece;stop-opacity:1"/><stop offset="1" style="stop-color:#cecece;stop-opacity:0"/></radialGradient>
        <radialGradient id="_Radial36" cx="0" cy="0" r="1" gradientUnits="userSpaceOnUse" gradientTransform="matrix(4.17792,0,0,4.17792,4.05,0)"><stop offset="0" style="stop-color:#cecece;stop-opacity:1"/><stop offset="1" style="stop-color:#cecece;stop-opacity:0"/></radialGradient>
        <radialGradient id="_Radial37" cx="0" cy="0" r="1" gradientUnits="userSpaceOnUse" gradientTransform="matrix(4.17792,0,0,4.17792,4.05,0)"><stop offset="0" style="stop-color:#cecece;stop-opacity:1"/><stop offset="1" style="stop-color:#cecece;stop-opacity:0"/></radialGradient>
        <radialGradient id="_Radial38" cx="0" cy="0" r="1" gradientUnits="userSpaceOnUse" gradientTransform="matrix(4.17792,0,0,4.17792,4.05,0)"><stop offset="0" style="stop-color:#cecece;stop-opacity:1"/><stop offset="1" style="stop-color:#cecece;stop-opacity:0"/></radialGradient>
        <radialGradient id="_Radial39" cx="0" cy="0" r="1" gradientUnits="userSpaceOnUse" gradientTransform="matrix(4.17792,0,0,4.17792,4.05,0)"><stop offset="0" style="stop-color:#cecece;stop-opacity:1"/><stop offset="1" style="stop-color:#cecece;stop-opacity:0"/></radialGradient>
        <radialGradient id="_Radial40" cx="0" cy="0" r="1" gradientUnits="userSpaceOnUse" gradientTransform="matrix(4.17792,0,0,4.17792,4.05,0)"><stop offset="0" style="stop-color:#cecece;stop-opacity:1"/><stop offset="1" style="stop-color:#cecece;stop-opacity:0"/></radialGradient>
        <radialGradient id="_Radial41" cx="0" cy="0" r="1" gradientUnits="userSpaceOnUse" gradientTransform="matrix(4.17792,0,0,4.17792,4.05,0)"><stop offset="0" style="stop-color:#cecece;stop-opacity:1"/><stop offset="1" style="stop-color:#cecece;stop-opacity:0"/></radialGradient>
        <radialGradient id="_Radial42" cx="0" cy="0" r="1" gradientUnits="userSpaceOnUse" gradientTransform="matrix(4.17792,0,0,4.17792,4.05,0)"><stop offset="0" style="stop-color:#cecece;stop-opacity:1"/><stop offset="1" style="stop-color:#cecece;stop-opacity:0"/></radialGradient>
        <radialGradient id="_Radial43" cx="0" cy="0" r="1" gradientUnits="userSpaceOnUse" gradientTransform="matrix(4.17792,0,0,4.17792,4.05,0)"><stop offset="0" style="stop-color:#cecece;stop-opacity:0.61"/><stop offset="1" style="stop-color:#cecece;stop-opacity:0"/></radialGradient>
        <radialGradient id="_Radial44" cx="0" cy="0" r="1" gradientUnits="userSpaceOnUse" gradientTransform="matrix(4.17792,0,0,4.17792,4.05,0)"><stop offset="0" style="stop-color:#cecece;stop-opacity:0.61"/><stop offset="1" style="stop-color:#cecece;stop-opacity:0"/></radialGradient>
        <radialGradient id="_Radial45" cx="0" cy="0" r="1" gradientUnits="userSpaceOnUse" gradientTransform="matrix(4.17792,0,0,4.17792,4.05,0)"><stop offset="0" style="stop-color:#cecece;stop-opacity:0.61"/><stop offset="1" style="stop-color:#cecece;stop-opacity:0"/></radialGradient>
        <radialGradient id="_Radial46" cx="0" cy="0" r="1" gradientUnits="userSpaceOnUse" gradientTransform="matrix(4.17792,0,0,4.17792,4.05,0)"><stop offset="0" style="stop-color:#cecece;stop-opacity:1"/><stop offset="1" style="stop-color:#cecece;stop-opacity:0"/></radialGradient>
        <radialGradient id="_Radial47" cx="0" cy="0" r="1" gradientUnits="userSpaceOnUse" gradientTransform="matrix(4.17792,0,0,4.17792,4.05,0)"><stop offset="0" style="stop-color:#cecece;stop-opacity:1"/><stop offset="1" style="stop-color:#cecece;stop-opacity:0"/></radialGradient>
        <radialGradient id="_Radial48" cx="0" cy="0" r="1" gradientUnits="userSpaceOnUse" gradientTransform="matrix(4.17792,0,0,4.17792,4.05,0)"><stop offset="0" style="stop-color:#cecece;stop-opacity:1"/><stop offset="1" style="stop-color:#cecece;stop-opacity:0"/></radialGradient>
        <radialGradient id="_Radial49" cx="0" cy="0" r="1" gradientUnits="userSpaceOnUse" gradientTransform="matrix(4.17792,0,0,4.17792,4.05,0)"><stop offset="0" style="stop-color:#cecece;stop-opacity:1"/><stop offset="1" style="stop-color:#cecece;stop-opacity:0"/></radialGradient>
        <radialGradient id="_Radial50" cx="0" cy="0" r="1" gradientUnits="userSpaceOnUse" gradientTransform="matrix(4.17792,0,0,4.17792,4.05,0)"><stop offset="0" style="stop-color:#cecece;stop-opacity:1"/><stop offset="1" style="stop-color:#cecece;stop-opacity:0"/></radialGradient>
        <radialGradient id="_Radial51" cx="0" cy="0" r="1" gradientUnits="userSpaceOnUse" gradientTransform="matrix(4.17792,0,0,4.17792,4.05,0)"><stop offset="0" style="stop-color:#cecece;stop-opacity:1"/><stop offset="1" style="stop-color:#cecece;stop-opacity:0"/></radialGradient>
        <radialGradient id="_Radial52" cx="0" cy="0" r="1" gradientUnits="userSpaceOnUse" gradientTransform="matrix(4.17792,0,0,4.17792,4.05,0)"><stop offset="0" style="stop-color:#cecece;stop-opacity:0.61"/><stop offset="1" style="stop-color:#cecece;stop-opacity:0"/></radialGradient>
        <radialGradient id="_Radial53" cx="0" cy="0" r="1" gradientUnits="userSpaceOnUse" gradientTransform="matrix(4.17792,0,0,4.17792,4.05,0)"><stop offset="0" style="stop-color:#cecece;stop-opacity:0.61"/><stop offset="1" style="stop-color:#cecece;stop-opacity:0"/></radialGradient>
        <radialGradient id="_Radial54" cx="0" cy="0" r="1" gradientUnits="userSpaceOnUse" gradientTransform="matrix(4.17792,0,0,4.17792,4.05,0)"><stop offset="0" style="stop-color:#cecece;stop-opacity:1"/><stop offset="1" style="stop-color:#cecece;stop-opacity:0"/></radialGradient>
        <radialGradient id="_Radial55" cx="0" cy="0" r="1" gradientUnits="userSpaceOnUse" gradientTransform="matrix(4.17792,0,0,4.17792,4.05,0)"><stop offset="0" style="stop-color:#fff;stop-opacity:1"/><stop offset="1" style="stop-color:#fff;stop-opacity:0"/></radialGradient>
        <radialGradient id="_Radial56" cx="0" cy="0" r="1" gradientUnits="userSpaceOnUse" gradientTransform="matrix(4.17792,0,0,4.17792,4.05,0)"><stop offset="0" style="stop-color:#fff;stop-opacity:1"/><stop offset="1" style="stop-color:#fff;stop-opacity:0"/></radialGradient>
        <radialGradient id="_Radial57" cx="0" cy="0" r="1" gradientUnits="userSpaceOnUse" gradientTransform="matrix(4.17792,0,0,4.17792,4.05,0)"><stop offset="0" style="stop-color:#fff;stop-opacity:1"/><stop offset="1" style="stop-color:#fff;stop-opacity:0"/></radialGradient>
        <radialGradient id="_Radial58" cx="0" cy="0" r="1" gradientUnits="userSpaceOnUse" gradientTransform="matrix(4.17792,0,0,4.17792,4.05,0)"><stop offset="0" style="stop-color:#fff;stop-opacity:1"/><stop offset="1" style="stop-color:#fff;stop-opacity:0"/></radialGradient>
        <radialGradient id="_Radial59" cx="0" cy="0" r="1" gradientUnits="userSpaceOnUse" gradientTransform="matrix(4.17792,0,0,4.17792,4.05,0)"><stop offset="0" style="stop-color:#fff;stop-opacity:1"/><stop offset="1" style="stop-color:#fff;stop-opacity:0"/></radialGradient>
        <radialGradient id="_Radial60" cx="0" cy="0" r="1" gradientUnits="userSpaceOnUse" gradientTransform="matrix(4.17792,0,0,4.17792,4.05,0)"><stop offset="0" style="stop-color:#fff;stop-opacity:1"/><stop offset="1" style="stop-color:#fff;stop-opacity:0"/></radialGradient>
        <radialGradient id="_Radial61" cx="0" cy="0" r="1" gradientUnits="userSpaceOnUse" gradientTransform="matrix(4.17792,0,0,4.17792,4.05,0)"><stop offset="0" style="stop-color:#fff;stop-opacity:0.61"/><stop offset="1" style="stop-color:#fff;stop-opacity:0"/></radialGradient>
        <radialGradient id="_Radial62" cx="0" cy="0" r="1" gradientUnits="userSpaceOnUse" gradientTransform="matrix(4.17792,0,0,4.17792,4.05,0)"><stop offset="0" style="stop-color:#fff;stop-opacity:0.61"/><stop offset="1" style="stop-color:#fff;stop-opacity:0"/></radialGradient>
        <radialGradient id="_Radial63" cx="0" cy="0" r="1" gradientUnits="userSpaceOnUse" gradientTransform="matrix(4.17792,0,0,4.17792,4.05,0)"><stop offset="0" style="stop-color:#fff;stop-opacity:0.61"/><stop offset="1" style="stop-color:#fff;stop-opacity:0"/></radialGradient>
    </defs>
</svg>
