<?xml version="1.0" encoding="UTF-8" standalone="no"?>
<!DOCTYPE svg PUBLIC "-//W3C//DTD SVG 1.1//EN" "http://www.w3.org/Graphics/SVG/1.1/DTD/svg11.dtd">
<svg width="100%" height="100%" viewBox="0 0 162 229" version="1.1" xmlns="http://www.w3.org/2000/svg" xmlns:xlink="http://www.w3.org/1999/xlink" xml:space="preserve" xmlns:serif="http://www.serif.com/" style="fill-rule:evenodd;clip-rule:evenodd;stroke-linecap:round;stroke-linejoin:round;">
    <g transform="matrix(1,0,0,1,-248.164,-124.689)">
        <g transform="matrix(4.48588,0,0,4.48588,-1147.09,-837.45)">
            <g id="shape0">
                <path d="M317.55,242.85L317.55,242.8L317.55,242.85M322.85,241.85L322.8,242L322.8,241.95L322.85,241.85" style="fill:#36c;"/>
                <path d="M327.6,241.6L327.8,241.65L327.6,241.6" style="fill:#f7a29d;"/>
                <path d="M339.1,240.5L339,240.55L338.4,240.3L339.05,240.45L339.1,240.5" style="fill:#82a0df;"/>
                <path d="M311.85,236.6L311.9,236.6L311.85,236.6" style="fill:#390;"/>
                <path d="M344.15,236L344,236.2L343.65,236.55C342.85,236.283 342.433,236.05 342.4,235.85L342.3,235.4L342.35,235.15L343.2,234.4L344,235.65L344.15,236M314.1,236.3L313.8,235.55C313.867,234.917 314.217,234.633 314.85,234.7C315.45,234.6 315.567,234.867 315.2,235.5C314.967,235.967 314.6,236.233 314.1,236.3" style="fill:#ffff80;"/>
                <path d="M332.75,245.55L332.7,246.5L332.35,249.25C332.117,250.417 331.65,251.483 330.95,252.45L330.7,252.7C330.233,253.233 329.7,253.567 329.1,253.7L327.75,253.45C326.683,253.217 325.9,252.533 325.4,251.4C324.833,250.2 324.467,248.917 324.3,247.55C324.967,246.45 325.75,245.817 326.65,245.65C327.55,245.45 328.167,245.633 328.5,246.2L328.85,246.9L328.85,248.1C328.483,248.7 328.067,248.867 327.6,248.6L328.1,248L328.05,247.15L327.9,246.95L327.7,246.75L327.35,246.65L326.85,246.7L326.2,247.15L325.85,247.75L325.85,249C326.017,249.467 326.25,249.817 326.55,250.05L327.35,250.5C328.25,250.8 328.95,250.717 329.45,250.25L330.5,248.4C331,246.8 331.083,245.2 330.75,243.6C330.35,241.833 329.517,240.383 328.25,239.25C328.917,239.25 329.533,239.45 330.1,239.85C331,240.417 331.65,241.233 332.05,242.3C332.45,243.333 332.683,244.417 332.75,245.55" style="fill:#f5732e;"/>
                <path d="M340.8,233.4L341.85,233.45C342.617,233.583 343.383,233.933 344.15,234.5L344.15,234.55L344.6,234.9C345.4,235.6 345.967,236.367 346.3,237.2L346.4,237.45L346.55,237.95L343.15,237.15C342.35,237.117 341.75,236.783 341.35,236.15C340.85,235.283 340.667,234.367 340.8,233.4M339.75,241.8L339.95,242.35L340.25,244.2C339.75,244.267 339.267,244.483 338.8,244.85C337.6,244.95 336.9,244.35 336.7,243.05C336.467,241.517 336.817,240.367 337.75,239.6L337.3,239C337.667,239.1 338.033,239.317 338.4,239.65L339.1,240.5L339.05,240.45L338.4,240.3L339,240.55L338.05,240.75C337.517,241.383 337.383,242.067 337.65,242.8L339.15,242.95C339.517,242.417 339.667,241.9 339.6,241.4L339.75,241.8M324.3,247.55L324.25,246.5L324.3,245.5C324.4,243.933 324.8,242.55 325.5,241.35C326.267,240.05 327.183,239.35 328.25,239.25C329.517,240.383 330.35,241.833 330.75,243.6C331.083,245.2 331,246.8 330.5,248.4L329.45,250.25C328.95,250.717 328.25,250.8 327.35,250.5L326.55,250.05C326.25,249.817 326.017,249.467 325.85,249L325.85,247.75L326.2,247.15L326.85,246.7L327.35,246.65L327.7,246.75L327.9,246.95L328.05,247.15L328.1,248L327.6,248.6C328.067,248.867 328.483,248.7 328.85,248.1L328.85,246.9L328.5,246.2C328.167,245.633 327.55,245.45 326.65,245.65C325.75,245.817 324.967,246.45 324.3,247.55M317.55,242.8L317.75,241.85L317.8,241.65L317.95,241.3C318.283,240.4 318.75,239.683 319.35,239.15L320.55,238.5C321.383,239.267 321.7,240.317 321.5,241.65L321.3,242.85C321.033,243.617 320.767,243.917 320.5,243.75C320.433,243.183 320.067,242.683 319.4,242.25C318.467,242.117 317.85,242.3 317.55,242.8M311.9,236.6C312.2,235.8 312.717,235.083 313.45,234.45L313.85,234.05L314.45,233.65C314.95,233.317 315.483,233.1 316.05,233C316.45,232.9 316.817,232.9 317.15,233L316.35,234.25L315.45,235.6L314.6,236.45C313.667,237.217 312.767,237.267 311.9,236.6M327.8,241.65L327.6,241.6C326.767,241.767 326.35,242 326.35,242.3L326.1,243.25L326.1,243.85L326.25,244.6C326.983,245.2 327.733,245.333 328.5,245L329.05,244.85L329.25,244.45L329.35,243.6C329.383,242.6 328.867,241.95 327.8,241.65M344.15,236L344,235.65L343.2,234.4L342.35,235.15L342.3,235.4L342.4,235.85C342.433,236.05 342.85,236.283 343.65,236.55L344,236.2L344.15,236M320.7,240.1L320.25,240L319.5,240.1L319.35,240.3C319.283,240.767 319.55,241.383 320.15,242.15L321.2,241.5L321.3,241.05L320.9,240.25L320.7,240.1M314.1,236.3C314.6,236.233 314.967,235.967 315.2,235.5C315.567,234.867 315.45,234.6 314.85,234.7C314.217,234.633 313.867,234.917 313.8,235.55L314.1,236.3" style="fill:#fabb29;"/>
                <path d="M340.8,233.4C340.667,234.367 340.85,235.283 341.35,236.15C341.75,236.783 342.35,237.117 343.15,237.15L346.55,237.95C346.683,238.65 346.567,239.217 346.2,239.65C345.867,240.083 345.383,240.283 344.75,240.25L344.15,240.2C343.383,240.067 342.65,239.733 341.95,239.2L341.4,238.8L341,238.4C340.333,237.7 339.867,236.967 339.6,236.2C339.267,235.267 339.317,234.533 339.75,234C340.017,233.667 340.367,233.467 340.8,233.4M340.25,244.2L340.2,245.25L340.15,245.5C339.917,246.467 339.467,247.067 338.8,247.3C338.3,247.467 337.783,247.367 337.25,247L336.75,246.65C336.183,246.117 335.75,245.45 335.45,244.65L335.2,244L335.05,243.4C334.817,242.467 334.8,241.6 335,240.8C335.233,239.833 335.683,239.25 336.35,239.05L337.3,239L337.75,239.6C336.817,240.367 336.467,241.517 336.7,243.05C336.9,244.35 337.6,244.95 338.8,244.85C339.267,244.483 339.75,244.267 340.25,244.2M322.05,244.75L320.95,246.15L320.5,246.5C319.933,246.867 319.4,246.967 318.9,246.8C318.233,246.567 317.8,245.967 317.6,245L317.55,244.75C317.417,244.15 317.417,243.517 317.55,242.85L317.55,242.8C317.85,242.3 318.467,242.117 319.4,242.25C320.067,242.683 320.433,243.183 320.5,243.75C320.767,243.917 321.033,243.617 321.3,242.85L321.5,241.65C321.7,240.317 321.383,239.267 320.55,238.5L321.4,238.55L321.75,238.7C322.183,239 322.5,239.533 322.7,240.3L322.85,241.6L322.85,241.85L322.8,241.95L322.8,242L322.7,242.9L322.55,243.5L322.05,244.75M315.9,238.8C315.233,239.3 314.55,239.617 313.85,239.75L313.3,239.8C312.7,239.833 312.233,239.633 311.9,239.2C311.467,238.667 311.417,237.933 311.75,237L311.8,236.75L311.85,236.6L311.9,236.6C312.767,237.267 313.667,237.217 314.6,236.45L315.45,235.6L316.35,234.25L317.15,233C317.517,233.067 317.817,233.25 318.05,233.55C318.45,234.083 318.5,234.817 318.2,235.75C317.933,236.517 317.483,237.25 316.85,237.95L316.45,238.35L315.95,238.75L315.9,238.8" style="fill:#f7732d;"/>
                <path d="M327.6,241.6L327.8,241.65C328.867,241.95 329.383,242.6 329.35,243.6L329.25,244.45L329.05,244.85L328.5,245C327.733,245.333 326.983,245.2 326.25,244.6L326.1,243.85L326.1,243.25L326.35,242.3C326.35,242 326.767,241.767 327.6,241.6M339,240.55L339.1,240.5L339.6,241.4C339.667,241.9 339.517,242.417 339.15,242.95L337.65,242.8C337.383,242.067 337.517,241.383 338.05,240.75L339,240.55M320.7,240.1L320.9,240.25L321.3,241.05L321.2,241.5L320.15,242.15C319.55,241.383 319.283,240.767 319.35,240.3L319.5,240.1L320.25,240L320.7,240.1" style="fill:#fff;"/>
                <path d="M344.55,234.1C344.783,232.933 344.667,231.883 344.2,230.95L343.05,228.45C341.983,226.15 341.433,223.733 341.4,221.2C341.4,219.8 340.917,218.533 339.95,217.4C339.317,216.6 338.55,215.983 337.65,215.55C335.317,214.583 333.233,214.85 331.4,216.35C330.133,217.317 328.9,218.333 327.7,219.4L323.5,223.2L320.9,224.7C319.633,225.167 318.483,225.9 317.45,226.9C316.283,228.033 315.35,229.367 314.65,230.9C314.317,231.567 314.217,232.3 314.35,233.1" style="fill:none;fill-rule:nonzero;stroke:#600;stroke-width:1px;"/>
                <path d="M346.55,237.95L346.4,237.45L346.3,237.2C345.967,236.367 345.4,235.6 344.6,234.9L344.15,234.55L344.15,234.5C343.383,233.933 342.617,233.583 341.85,233.45L340.8,233.4C340.367,233.467 340.017,233.667 339.75,234C339.317,234.533 339.267,235.267 339.6,236.2C339.867,236.967 340.333,237.7 341,238.4L341.4,238.8L341.95,239.2L341,240.45L339.75,241.8L339.95,242.35L340.25,244.2L340.2,245.25L340.15,245.5C339.917,246.467 339.467,247.067 338.8,247.3C338.3,247.467 337.783,247.367 337.25,247L336.75,246.65C336.183,246.117 335.75,245.45 335.45,244.65L335.4,244.7L334.5,245.05L332.75,245.55L332.7,246.5L332.35,249.25C332.117,250.417 331.65,251.483 330.95,252.45M346.55,237.95C346.683,238.65 346.567,239.217 346.2,239.65C345.867,240.083 345.383,240.283 344.75,240.25L344.15,240.2C343.383,240.067 342.65,239.733 341.95,239.2M330.7,252.7C330.233,253.233 329.7,253.567 329.1,253.7L327.75,253.45C326.683,253.217 325.9,252.533 325.4,251.4C324.833,250.2 324.467,248.917 324.3,247.55L324.25,246.5L324.3,245.5L323.1,245.15L322.05,244.75L320.95,246.15L320.5,246.5C319.933,246.867 319.4,246.967 318.9,246.8C318.233,246.567 317.8,245.967 317.6,245L317.55,244.75C317.417,244.15 317.417,243.517 317.55,242.85L317.55,242.8L317.75,241.85L317.8,241.65L316.65,240.1L315.9,238.8C315.233,239.3 314.55,239.617 313.85,239.75L313.3,239.8C312.7,239.833 312.233,239.633 311.9,239.2C311.467,238.667 311.417,237.933 311.75,237L311.8,236.75L311.85,236.6L311.9,236.6C312.2,235.8 312.717,235.083 313.45,234.45L313.85,234.05L314.45,233.65C314.95,233.317 315.483,233.1 316.05,233C316.45,232.9 316.817,232.9 317.15,233C317.517,233.067 317.817,233.25 318.05,233.55C318.45,234.083 318.5,234.817 318.2,235.75C317.933,236.517 317.483,237.25 316.85,237.95L316.45,238.35L315.95,238.75L315.9,238.8M328.25,239.25C327.183,239.35 326.267,240.05 325.5,241.35C324.8,242.55 324.4,243.933 324.3,245.5M332.75,245.55C332.683,244.417 332.45,243.333 332.05,242.3C331.65,241.233 331,240.417 330.1,239.85C329.533,239.45 328.917,239.25 328.25,239.25M337.3,239L336.35,239.05C335.683,239.25 335.233,239.833 335,240.8C334.8,241.6 334.817,242.467 335.05,243.4L335.2,244L335.45,244.65M339.6,241.4L339.1,240.5L338.4,239.65C338.033,239.317 337.667,239.1 337.3,239M339.75,241.8L339.6,241.4M317.8,241.65L317.95,241.3C318.283,240.4 318.75,239.683 319.35,239.15L320.55,238.5L321.4,238.55L321.75,238.7C322.183,239 322.5,239.533 322.7,240.3L322.85,241.6L322.85,241.85L322.8,242L322.7,242.9L322.55,243.5L322.05,244.75" style="fill:none;fill-rule:nonzero;stroke:#600;stroke-width:1px;"/>
            </g>
            <g id="sprite0" transform="matrix(0.7513,0,0,1.0625,319.3,260.4)">
                <g id="shape1">
                    <path d="M25.35,2.4C25.317,3.067 24.067,3.633 21.6,4.1L12.7,4.8L3.75,4.1C1.25,3.633 0.017,3.067 0.05,2.4C0.017,1.733 1.25,1.167 3.75,0.7L12.7,0L21.6,0.7C24.067,1.167 25.317,1.733 25.35,2.4" style="fill-opacity:0.6;"/>
                </g>
            </g>
        </g>
    </g>
</svg>
