<?xml version="1.0" encoding="UTF-8" standalone="no"?>
<svg xmlns:xlink="http://www.w3.org/1999/xlink" height="40.05px" width="40.05px" xmlns="http://www.w3.org/2000/svg">
  <g transform="matrix(1.0, 0.0, 0.0, 1.0, 0.15, 0.1)">
    <path d="M39.9 -0.1 L39.9 39.95 -0.15 39.95 -0.15 -0.1 39.9 -0.1" fill="#ffffff" fill-rule="evenodd" stroke="none"/>
    <path d="M1.75 36.9 L1.75 1.9 1.75 1.5 1.75 1.0 38.75 1.0 38.75 38.0 38.55 38.0 1.75 38.0 1.75 37.8 1.75 37.1 1.75 36.9 M1.75 1.9 L19.8 19.45 38.45 37.7 38.55 37.8 38.55 38.0 38.55 37.8 38.45 37.7 19.8 19.45 1.75 1.9 M1.75 37.8 L19.9 20.35 1.75 37.8 M38.45 37.7 L38.45 1.5 1.75 1.5 38.45 1.5 38.45 37.7 M37.75 2.0 L19.8 19.45 37.75 2.0" fill="#ffffff" fill-rule="evenodd" stroke="none"/>
    <path d="M1.75 37.1 L1.75 36.9 M19.9 20.35 L1.75 37.8 M19.8 19.45 L37.75 2.0" fill="none" stroke="#3a1d46" stroke-linecap="round" stroke-linejoin="round" stroke-width="0.75"/>
    <path d="M1.75 1.5 L1.55 1.5 1.55 38.5 38.55 38.5 38.55 38.0 38.55 37.8 38.45 37.7 19.8 19.45 1.75 1.9 M1.75 1.5 L38.45 1.5 38.45 37.7" fill="none" stroke="#3a1d46" stroke-linecap="round" stroke-linejoin="round" stroke-width="1.0"/>
    <path d="M31.0 8.9 Q35.45 13.35 35.55 19.65 L35.55 19.8 Q35.5 25.9 31.35 30.3 L31.0 30.65 Q26.55 35.1 20.3 35.15 L20.15 35.15 Q13.8 35.15 9.3 30.65 L9.05 30.4 Q4.8 25.95 4.8 19.8 4.75 13.45 9.25 8.95 L9.3 8.9 Q13.8 4.4 20.15 4.4 L20.45 4.4 Q26.5 4.5 30.85 8.75 L31.0 8.9" fill="#ffffff" fill-rule="evenodd" stroke="none"/>
    <path d="M23.25 34.85 Q27.65 34.0 31.0 30.65 L31.35 30.3 Q35.5 25.9 35.55 19.8 L35.55 19.65 Q35.45 13.35 31.0 8.9 L30.85 8.75 Q27.55 5.55 23.3 4.75 L20.45 4.4 20.3 4.4 20.25 4.4 20.15 4.4 19.95 4.4 16.95 4.7 Q12.6 5.55 9.3 8.9 L9.25 8.95 Q4.75 13.45 4.8 19.8 4.8 25.95 9.05 30.4 L9.3 30.65 Q12.6 33.95 16.95 34.85 L19.95 35.15 20.1 35.15 20.15 35.15 20.3 35.15 23.25 34.85 M37.85 20.05 Q37.85 27.0 33.2 32.1 L32.6 32.75 Q27.45 37.85 20.3 38.05 L19.9 38.05 Q12.45 38.05 7.2 32.75 L7.0 32.55 Q1.9 27.35 1.9 20.05 L1.9 19.8 Q2.0 12.55 7.2 7.35 L7.4 7.15 Q12.6 2.05 19.9 2.1 L20.45 2.1 Q27.3 2.3 32.3 7.1 L32.6 7.35 Q37.7 12.5 37.85 19.65 L37.85 20.05 M37.85 19.65 L35.55 19.65 37.85 19.65 M9.15 8.85 L9.1 8.9 9.05 8.95 Q4.55 13.45 4.6 19.8 4.55 13.45 9.05 8.95 L9.1 8.9 9.15 8.85 7.4 7.15 9.15 8.85 9.25 8.95 9.15 8.85 Q12.5 5.5 16.95 4.7 12.5 5.5 9.15 8.85 M4.6 19.8 L4.8 19.8 4.6 19.8 1.9 19.8 4.6 19.8 Q4.6 25.95 8.85 30.4 L8.95 30.5 8.85 30.4 Q4.6 25.95 4.6 19.8 M20.45 2.1 L20.45 4.4 20.45 2.1 M9.05 30.4 L8.95 30.5 9.05 30.4 M7.0 32.55 L8.95 30.5 7.0 32.55 M20.3 38.05 L20.3 35.15 20.3 38.05 M8.95 30.5 L9.1 30.65 Q12.5 34.05 16.95 34.85 12.5 34.05 9.1 30.65 L8.95 30.5 M30.85 8.75 L32.3 7.1 30.85 8.75 M33.2 32.1 L31.35 30.3 33.2 32.1" fill="#ffffff" fill-rule="evenodd" stroke="none"/>
    <path d="M37.85 20.05 Q37.85 27.0 33.2 32.1 L32.6 32.75 Q27.45 37.85 20.3 38.05 L19.9 38.05 Q12.45 38.05 7.2 32.75 L7.0 32.55 Q1.9 27.35 1.9 20.05 L1.9 19.8 Q2.0 12.55 7.2 7.35 L7.4 7.15 Q12.6 2.05 19.9 2.1 L20.45 2.1 Q27.3 2.3 32.3 7.1 L32.6 7.35 Q37.7 12.5 37.85 19.65 L37.85 20.05" fill="none" stroke="#3a1d46" stroke-linecap="round" stroke-linejoin="round" stroke-width="1.0"/>
    <path d="M23.3 4.75 Q27.45 5.6 30.65 8.75 L30.8 8.9 Q35.25 13.35 35.35 19.65 L35.35 19.8 Q35.3 25.9 31.15 30.3 L30.8 30.65 Q27.5 33.9 23.25 34.85 M23.3 4.75 L20.45 4.4 20.3 4.4 20.25 4.4 20.15 4.4 19.95 4.4 16.95 4.7 Q12.5 5.5 9.15 8.85 M16.95 34.85 L19.95 35.15 20.1 35.15 20.15 35.15 20.3 35.15 23.25 34.85 M4.6 19.8 Q4.55 13.45 9.05 8.95 L9.1 8.9 9.15 8.85 M4.6 19.8 Q4.6 25.95 8.85 30.4 L8.95 30.5 M16.95 34.85 Q12.5 34.05 9.1 30.65 L8.95 30.5" fill="none" stroke="#3a1d46" stroke-linecap="round" stroke-linejoin="round" stroke-width="0.75"/>
    <path d="M35.55 19.65 L37.85 19.65 M9.15 8.85 L7.4 7.15 M9.15 8.85 L9.25 8.95 M4.6 19.8 L1.9 19.8 M4.8 19.8 L4.6 19.8 M8.95 30.5 L9.05 30.4 M20.45 4.4 L20.45 2.1 M20.3 35.15 L20.3 38.05 M8.95 30.5 L7.0 32.55 M31.35 30.3 L33.2 32.1 M32.3 7.1 L30.85 8.75" fill="none" stroke="#3a1d46" stroke-linecap="round" stroke-linejoin="round" stroke-width="0.75"/>
    <path d="M34.8 16.95 L30.9 21.1 29.4 17.0 27.2 18.15 26.7 15.5 23.65 19.95 22.65 13.7 21.0 16.2 18.95 12.9 16.1 21.45 12.75 14.2 11.75 16.85 9.55 14.7 7.7 20.45 4.8 16.75 Q5.6 12.45 9.0 9.15 13.5 4.8 19.8 4.8 26.1 4.8 30.55 9.15 34.0 12.5 34.8 16.95 M7.7 28.7 L10.2 26.85 10.6 29.9 11.75 29.3 13.6 30.6 15.1 27.15 17.1 30.1 17.6 28.15 20.3 30.6 23.0 25.7 25.35 29.8 26.85 27.5 28.55 29.3 28.9 25.2 31.9 28.75 30.55 30.15 Q26.1 34.55 19.8 34.55 13.75 34.55 9.4 30.55 L9.0 30.15 7.7 28.7" fill="#ffffff" fill-rule="evenodd" stroke="none"/>
    <path d="M4.8 16.75 L7.7 20.45 9.55 14.7 11.75 16.85 12.75 14.2 16.1 21.45 18.95 12.9 21.0 16.2 22.65 13.7 23.65 19.95 26.7 15.5 27.2 18.15 29.4 17.0 30.9 21.1 34.8 16.95 35.05 19.65 Q35.05 24.8 31.9 28.75 L28.9 25.2 28.55 29.3 26.85 27.5 25.35 29.8 23.0 25.7 20.3 30.6 17.6 28.15 17.1 30.1 15.1 27.15 13.6 30.6 11.75 29.3 10.6 29.9 10.2 26.85 7.7 28.7 Q4.55 24.8 4.55 19.65 4.55 18.15 4.8 16.75" fill="#3a1d46" fill-rule="evenodd" stroke="none"/>
    <path d="M4.8 16.75 L7.7 20.45 9.55 14.7 11.75 16.85 12.75 14.2 16.1 21.45 18.95 12.9 21.0 16.2 22.65 13.7 23.65 19.95 26.7 15.5 27.2 18.15 29.4 17.0 30.9 21.1 34.8 16.95 M4.8 16.75 L4.35 16.2 M31.9 28.75 L32.25 29.15 M7.7 28.7 L10.2 26.85 10.6 29.9 11.75 29.3 13.6 30.6 15.1 27.15 17.1 30.1 17.6 28.15 20.3 30.6 23.0 25.7 25.35 29.8 26.85 27.5 28.55 29.3 28.9 25.2 31.9 28.75" fill="none" stroke="#5c4566" stroke-linecap="round" stroke-linejoin="round" stroke-opacity="0.3019608" stroke-width="0.05"/>
  </g>
</svg>
