<?xml version="1.0" encoding="UTF-8" standalone="no"?>
<svg xmlns:xlink="http://www.w3.org/1999/xlink" height="23.4px" width="19.75px" xmlns="http://www.w3.org/2000/svg">
  <g transform="matrix(1.0, 0.0, 0.0, 1.0, -10.5, -9.45)">
    <path d="M18.55 21.0 Q19.3 20.0 19.3 18.55 19.3 17.1 18.55 16.1 17.8 15.1 16.7 15.1 15.6 15.1 14.8 16.1 14.05 17.1 14.05 18.55 14.05 20.0 14.8 21.0 15.6 22.0 16.7 22.0 17.8 22.0 18.55 21.0 M22.0 21.0 Q22.8 22.0 23.9 22.0 25.0 22.0 25.75 21.0 26.5 20.0 26.5 18.55 26.5 17.1 25.75 16.1 25.0 15.1 23.9 15.1 22.8 15.1 22.0 16.1 21.25 17.1 21.25 18.55 21.25 20.0 22.0 21.0 M28.45 23.15 L28.45 25.6 25.65 25.6 25.65 29.0 Q20.7 36.75 15.35 29.0 L15.35 25.6 12.8 25.6 12.8 23.75 12.55 23.45 Q10.5 21.15 10.5 18.1 10.5 15.1 12.55 12.8 L12.8 12.55 13.35 12.0 Q16.25 9.45 20.35 9.45 24.5 9.45 27.35 12.0 L28.0 12.55 Q30.25 14.95 30.25 18.1 30.25 20.95 28.45 23.15 M20.35 31.05 Q21.35 31.05 21.65 30.0 21.9 28.9 21.65 27.4 21.35 25.9 21.35 25.0 21.35 24.05 20.35 24.05 19.35 24.05 19.25 25.2 L18.85 27.7 Q18.55 29.15 18.95 30.1 19.35 31.05 20.35 31.05" fill="#372d2d" fill-rule="evenodd" stroke="none"/>
  </g>
</svg>
