<?xml version="1.0" encoding="UTF-8" standalone="no"?>
<svg xmlns:xlink="http://www.w3.org/1999/xlink" height="22.8px" width="23.7px" xmlns="http://www.w3.org/2000/svg">
  <g transform="matrix(1.0, 0.0, 0.0, 1.0, -6.75, -9.55)">
    <path d="M27.45 11.35 L28.9 11.3 28.6 12.7 29.9 13.05 29.2 14.9 28.1 14.45 25.95 16.2 28.25 17.2 29.95 16.45 30.45 17.85 29.35 18.65 29.4 20.25 28.1 20.85 27.75 19.2 25.15 18.15 25.55 21.4 26.85 21.9 26.15 23.55 24.65 22.95 23.65 24.25 22.6 23.45 23.65 21.6 23.7 18.45 21.8 20.35 21.6 22.15 20.7 22.4 20.65 24.6 20.05 24.7 20.7 25.0 20.7 25.05 20.5 27.4 17.1 26.4 16.8 25.9 16.85 25.3 16.8 24.35 16.25 22.15 17.8 21.7 18.75 20.7 18.7 20.45 18.55 20.35 18.65 20.3 18.35 19.1 18.3 19.1 18.3 18.9 18.3 18.85 17.55 16.05 18.25 16.05 18.05 15.85 19.35 14.75 19.15 12.95 20.8 12.5 21.1 14.1 23.6 15.25 23.1 12.2 21.8 11.75 22.85 10.0 24.0 10.45 25.2 9.55 26.1 11.05 24.9 12.0 25.2 14.85 26.85 13.4 27.45 11.35 M20.65 18.65 L20.7 18.75 20.55 18.8 20.2 19.1 20.45 19.25 22.65 17.2 20.5 16.2 20.65 18.65 M15.05 19.5 L14.25 18.3 15.25 20.7 13.85 26.0 13.0 26.25 13.5 26.25 14.0 26.2 15.4 21.05 15.95 22.1 16.55 24.6 16.5 26.1 16.9 26.7 18.75 27.25 Q17.05 28.95 15.55 29.15 L14.25 29.0 10.9 32.35 6.75 26.55 11.0 23.45 12.9 15.6 16.8 15.35 18.3 20.45 17.15 21.55 16.1 21.7 15.05 19.5" fill="#313131" fill-rule="evenodd" stroke="none"/>
  </g>
</svg>
