<?xml version="1.0" encoding="UTF-8" standalone="no"?>
<svg xmlns:xlink="http://www.w3.org/1999/xlink" height="18.6px" width="18.0px" xmlns="http://www.w3.org/2000/svg">
  <g transform="matrix(1.0, 0.0, 0.0, 1.0, -11.45, -10.65)">
    <path d="M21.95 10.65 L27.4 11.5 Q27.8 11.75 27.9 11.95 L28.05 12.5 27.4 15.9 Q27.3 16.4 27.8 16.95 27.95 17.1 28.2 17.1 L28.8 16.95 29.3 17.25 29.45 17.8 29.3 19.4 29.05 19.9 28.55 20.2 Q24.25 20.7 23.6 17.25 22.8 16.75 21.95 16.65 L20.65 24.85 20.65 25.0 20.5 25.9 20.5 26.0 Q20.1 27.4 18.65 28.4 17.2 29.5 15.35 29.15 13.5 29.0 12.35 27.35 11.2 25.9 11.5 24.0 11.7 22.2 13.35 20.9 14.9 19.75 16.7 20.2 18.45 20.4 19.5 21.6 L20.2 16.95 20.2 16.9 21.0 11.35 21.25 10.95 Q21.35 10.7 21.6 10.7 L21.95 10.65" fill="#372d2d" fill-rule="evenodd" stroke="none"/>
  </g>
</svg>
