<?xml version="1.0" encoding="UTF-8" standalone="no"?>
<svg xmlns:xlink="http://www.w3.org/1999/xlink" height="20.95px" width="22.35px" xmlns="http://www.w3.org/2000/svg">
  <g transform="matrix(1.0, 0.0, 0.0, 1.0, -8.15, -9.4)">
    <path d="M20.65 9.85 L21.95 10.25 23.1 9.4 24.4 10.6 23.25 11.55 24.1 14.3 25.65 12.65 25.8 10.85 25.8 10.8 27.4 10.6 27.55 11.9 28.85 12.2 28.3 13.95 27.2 13.65 25.3 15.4 28.0 16.15 29.5 15.25 30.5 16.4 29.45 17.5 29.9 18.9 28.45 19.55 27.75 18.0 24.8 17.25 25.8 20.25 27.4 20.6 26.9 22.2 25.1 21.7 24.4 23.05 23.1 22.35 23.95 20.55 23.4 18.5 Q22.75 20.55 21.75 21.05 L21.75 21.25 20.2 21.7 19.9 20.85 19.45 20.55 10.8 30.35 8.15 28.7 15.5 19.9 Q15.6 17.65 17.35 16.35 L16.6 15.75 17.75 14.65 17.15 12.9 19.0 12.4 19.6 13.95 22.5 14.75 21.35 12.0 19.9 11.55 20.65 9.85" fill="#313131" fill-rule="evenodd" stroke="none"/>
  </g>
</svg>
