<?xml version="1.0" encoding="UTF-8" standalone="no"?>
<svg xmlns:xlink="http://www.w3.org/1999/xlink" height="26.4px" width="19.4px" xmlns="http://www.w3.org/2000/svg">
  <g transform="matrix(1.0, 0.0, 0.0, 1.0, -11.4, -7.1)">
    <path d="M14.7 13.1 L13.5 10.7 12.7 11.15 11.7 9.25 15.4 7.1 16.4 9.0 15.6 9.45 16.85 11.85 18.7 10.8 20.5 13.95 19.85 14.35 18.7 12.6 17.95 13.0 22.9 20.15 21.75 24.3 17.55 22.95 14.95 14.7 14.2 15.15 15.05 17.1 14.3 17.55 12.85 14.2 14.7 13.1 M17.2 13.3 L16.25 13.85 21.0 23.05 21.9 20.15 17.2 13.3" fill="#313131" fill-rule="evenodd" stroke="none"/>
    <path d="M21.3 15.25 L22.25 15.45 Q24.9 16.35 26.15 18.9 27.3 21.45 26.45 24.05 25.55 26.7 23.0 27.85 20.45 29.15 17.85 28.2 15.2 27.3 14.05 24.75 12.8 22.25 13.7 19.6 M27.65 17.5 L29.15 19.75 Q30.75 23.15 29.55 26.65 28.3 30.2 24.95 31.75 21.55 33.45 18.05 32.2 14.55 31.0 12.95 27.6 12.35 26.4 12.15 25.1" fill="none" stroke="#313131" stroke-linecap="round" stroke-linejoin="round" stroke-width="1.5"/>
  </g>
</svg>
