<?xml version="1.0" encoding="UTF-8" standalone="no"?>
<svg xmlns:xlink="http://www.w3.org/1999/xlink" height="23.85px" width="23.65px" xmlns="http://www.w3.org/2000/svg">
  <g transform="matrix(1.0, 0.0, 0.0, 1.0, 1.75, -2.45)">
    <path d="M15.55 7.95 Q16.05 6.9 16.9 6.25 18.15 5.2 19.5 5.65 20.85 6.0 21.5 7.6 22.15 9.2 21.7 11.05 21.25 12.85 19.95 13.9 18.65 14.95 17.3 14.55 16.1 14.2 15.45 12.9 L15.85 12.6 16.8 11.8 17.25 11.05 17.25 10.55 17.0 10.3 15.9 9.75 15.45 9.2 15.4 9.0 15.4 8.75 15.55 7.95 M12.9 5.05 L12.75 5.05 12.5 5.1 Q12.05 5.2 11.75 5.5 L11.65 5.6 11.45 6.05 10.9 6.75 10.5 6.8 9.85 6.35 Q9.35 5.5 9.4 4.6 L9.6 4.6 Q10.55 4.75 10.9 3.85 L11.0 3.6 Q11.25 3.25 11.7 3.25 L12.2 3.85 12.9 5.05 M7.0 4.55 L7.2 4.85 7.95 5.6 8.25 5.85 8.4 6.15 8.55 6.8 8.55 7.1 8.5 7.5 Q8.4 7.9 8.75 8.05 L10.0 8.45 Q10.75 8.65 11.2 9.15 L11.45 9.85 11.2 10.65 10.3 11.65 9.8 11.7 Q8.4 11.7 7.4 10.35 6.4 9.0 6.4 7.1 L6.4 6.8 6.5 6.15 Q6.6 5.25 7.0 4.55 M1.35 15.9 Q0.75 15.7 0.2 15.3 L-0.9 13.95 -1.55 12.4 Q-2.0 10.55 -1.35 9.0 L-1.05 8.4 Q-0.45 7.3 0.65 7.0 L1.65 6.9 1.5 7.1 1.2 7.85 1.25 8.0 2.35 9.3 2.55 9.5 2.6 10.0 2.35 11.6 2.2 12.6 2.3 12.9 3.35 13.6 3.7 13.8 3.8 14.2 Q3.65 14.75 3.15 15.05 L1.35 15.9 M11.8 14.05 Q14.05 14.35 15.7 15.75 17.85 17.6 17.85 20.15 17.85 22.5 16.0 24.2 L15.7 24.45 Q13.6 26.25 10.6 26.3 7.6 26.25 5.45 24.45 4.2 23.4 3.7 22.1 L3.9 21.95 5.6 21.25 6.1 21.15 6.6 21.15 Q7.7 21.35 8.6 22.1 L9.8 22.85 10.85 22.8 11.95 22.05 12.65 21.15 12.8 20.1 12.8 19.6 12.9 18.65 13.5 17.0 13.5 16.5 12.8 15.7 11.85 14.5 11.8 14.05 M14.1 19.6 Q13.95 20.0 13.95 20.6 L13.9 21.05 13.9 21.15 13.85 21.6 13.6 21.95 13.85 22.1 15.25 22.2 15.5 22.0 Q16.1 21.35 16.05 20.5 L15.85 19.55 15.4 18.85 15.1 18.75 Q14.4 18.85 14.1 19.6" fill="#ffffff" fill-opacity="0.9019608" fill-rule="evenodd" stroke="none"/>
    <path d="M15.45 12.9 L15.3 12.55 Q14.65 10.95 15.15 9.15 L15.2 8.95 15.55 7.95 15.4 8.75 15.4 9.0 15.45 9.2 15.9 9.75 17.0 10.3 17.25 10.55 17.25 11.05 16.8 11.8 15.85 12.6 15.45 12.9 M11.7 3.25 Q11.25 3.25 11.0 3.6 L10.9 3.85 Q10.55 4.75 9.6 4.6 L9.4 4.6 Q9.35 5.5 9.85 6.35 L10.5 6.8 10.9 6.75 11.45 6.05 11.65 5.6 11.75 5.5 Q12.05 5.2 12.5 5.1 L12.75 5.05 12.9 5.05 13.2 7.1 13.1 8.3 Q12.85 9.45 12.2 10.35 11.35 11.45 10.3 11.65 L11.2 10.65 11.45 9.85 11.2 9.15 Q10.75 8.65 10.0 8.45 L8.75 8.05 Q8.4 7.9 8.5 7.5 L8.55 7.1 8.55 6.8 8.4 6.15 8.25 5.85 7.95 5.6 7.2 4.85 7.0 4.55 7.4 3.85 Q8.4 2.45 9.8 2.45 10.85 2.45 11.7 3.25 M1.65 6.9 Q2.5 7.0 3.3 7.65 L3.7 8.0 Q4.65 8.95 5.05 10.5 5.5 12.3 4.85 13.9 L4.85 13.95 Q4.2 15.5 2.85 15.9 2.1 16.15 1.35 15.9 L3.15 15.05 Q3.65 14.75 3.8 14.2 L3.7 13.8 3.35 13.6 2.3 12.9 2.2 12.6 2.35 11.6 2.6 10.0 2.55 9.5 2.35 9.3 1.25 8.0 1.2 7.85 1.5 7.1 1.65 6.9 M3.7 22.1 Q3.35 21.15 3.35 20.15 3.35 17.6 5.45 15.75 L6.25 15.2 Q8.15 13.95 10.6 14.0 L11.8 14.05 11.85 14.5 12.8 15.7 13.5 16.5 13.5 17.0 12.9 18.65 12.8 19.6 12.8 20.1 12.65 21.15 11.95 22.05 10.85 22.8 9.8 22.85 8.6 22.1 Q7.7 21.35 6.6 21.15 L6.1 21.15 5.6 21.25 3.9 21.95 3.7 22.1 M14.1 19.6 Q14.4 18.85 15.1 18.75 L15.4 18.85 15.85 19.55 16.05 20.5 Q16.1 21.35 15.5 22.0 L15.25 22.2 13.85 22.1 13.6 21.95 13.85 21.6 13.9 21.15 13.9 21.05 13.95 20.6 Q13.95 20.0 14.1 19.6" fill="#efcbcb" fill-rule="evenodd" stroke="none"/>
  </g>
</svg>
