<?xml version="1.0" encoding="UTF-8" standalone="no"?>
<svg xmlns:xlink="http://www.w3.org/1999/xlink" height="23.65px" width="21.55px" xmlns="http://www.w3.org/2000/svg">
  <g transform="matrix(1.0, 0.0, 0.0, 1.0, -9.65, -9.15)">
    <path d="M18.0 10.55 Q19.45 12.0 19.45 14.0 L19.45 14.1 20.35 14.05 21.45 14.1 21.45 14.0 Q21.45 12.0 22.85 10.55 24.3 9.15 26.35 9.15 28.35 9.15 29.8 10.55 31.2 12.0 31.2 14.0 31.2 16.05 29.8 17.5 28.75 18.55 27.3 18.8 L27.75 21.4 Q27.75 24.45 25.6 26.6 23.45 28.75 20.35 28.75 17.35 28.75 15.15 26.6 13.0 24.45 13.0 21.4 13.0 20.05 13.5 18.8 12.1 18.5 11.1 17.5 9.65 16.05 9.65 14.0 9.65 12.0 11.1 10.55 12.5 9.15 14.55 9.15 16.6 9.15 18.0 10.55 M26.15 28.2 L26.2 28.2 27.4 27.4 27.55 27.4 29.55 30.35 29.45 30.35 Q26.85 32.1 24.0 32.75 L23.3 29.3 26.15 28.2 M23.3 18.3 Q22.4 18.3 21.8 18.95 21.15 19.55 21.15 20.45 21.15 21.35 21.8 21.95 22.4 22.6 23.3 22.6 24.15 22.6 24.8 21.95 25.45 21.35 25.45 20.45 25.45 19.55 24.8 18.95 24.15 18.3 23.3 18.3 M16.1 18.95 Q15.45 19.55 15.45 20.45 15.45 21.35 16.1 21.95 16.7 22.6 17.6 22.6 18.45 22.6 19.1 21.95 19.75 21.35 19.75 20.45 19.75 19.55 19.1 18.95 18.45 18.3 17.6 18.3 16.7 18.3 16.1 18.95 M16.05 28.55 L16.15 28.6 18.6 29.3 18.7 29.3 18.1 32.8 17.95 32.8 Q14.95 32.2 12.5 30.6 L14.35 27.7 16.05 28.55" fill="#313131" fill-rule="evenodd" stroke="none"/>
  </g>
</svg>
