<?xml version="1.0" encoding="UTF-8" standalone="no"?>
<svg xmlns:xlink="http://www.w3.org/1999/xlink" height="23.45px" width="22.7px" xmlns="http://www.w3.org/2000/svg">
  <g transform="matrix(1.0, 0.0, 0.0, 1.0, -6.7, -7.6)">
    <path d="M27.2 9.2 L27.95 9.15 27.95 9.75 28.65 9.85 28.45 10.75 27.8 10.55 26.9 11.4 28.2 11.8 29.0 11.4 29.4 11.95 28.9 12.4 29.1 13.05 28.45 13.4 28.15 12.7 26.65 12.35 27.15 13.75 27.95 13.95 27.7 14.7 26.85 14.5 26.5 15.1 25.85 14.8 26.2 13.95 25.95 12.5 25.1 13.45 25.2 14.25 24.45 14.5 24.2 13.8 23.4 13.55 23.75 12.85 24.3 13.0 25.25 12.0 23.95 11.65 23.4 12.15 22.75 11.6 23.3 11.05 23.0 10.25 23.85 10.0 24.15 10.75 25.55 11.1 25.0 9.75 24.3 9.6 24.65 8.75 25.3 8.95 25.85 8.5 26.5 9.15 25.95 9.6 26.35 10.85 27.1 10.15 27.2 9.2 M26.95 21.2 L24.4 22.7 26.05 25.95 27.1 25.35 28.45 27.9 23.45 30.8 22.15 28.2 23.2 27.6 21.55 24.35 19.0 25.8 16.6 21.55 17.5 21.0 19.05 23.4 20.05 22.85 13.35 13.15 14.9 7.6 20.6 9.4 24.1 20.55 25.1 19.95 23.95 17.3 24.95 16.7 26.95 21.2 M15.95 9.25 L14.7 13.2 21.05 22.45 22.35 21.7 15.95 9.25 M13.0 15.65 L13.75 15.8 13.5 16.8 12.8 16.65 11.75 17.65 13.25 18.05 14.15 17.55 14.7 18.25 14.15 18.8 14.35 19.6 13.55 20.0 13.15 19.1 11.45 18.65 12.0 20.4 12.95 20.6 12.65 21.55 11.6 21.25 11.2 22.0 10.45 21.65 10.9 20.55 10.5 18.9 9.55 20.05 9.7 21.0 8.8 21.25 8.5 20.45 7.55 20.15 7.95 19.35 8.6 19.5 9.8 18.35 8.2 17.85 7.55 18.5 6.7 17.85 7.4 17.2 7.1 16.25 8.1 15.9 8.45 16.8 10.1 17.25 9.45 15.7 8.65 15.4 9.05 14.45 9.85 14.65 10.45 14.15 11.2 14.9 10.55 15.4 11.05 16.95 11.95 16.1 12.0 15.0 12.95 14.9 13.0 15.65 M19.65 28.15 L19.05 28.7 19.9 28.95 20.4 28.7 20.65 29.1 20.35 29.35 20.5 29.75 20.05 29.95 19.85 29.55 18.95 29.3 19.2 30.25 19.7 30.3 19.55 30.85 19.0 30.7 18.8 31.05 18.4 30.85 18.65 30.3 18.45 29.4 17.95 30.0 17.95 30.5 17.5 30.7 17.35 30.25 16.85 30.1 17.05 29.65 17.4 29.75 18.0 29.15 17.2 28.9 16.85 29.2 16.4 28.85 16.8 28.5 16.55 28.0 17.1 27.85 17.35 28.3 18.2 28.55 17.9 27.65 17.4 27.6 17.6 27.05 18.05 27.15 18.4 26.85 18.8 27.3 18.45 27.6 18.7 28.35 19.15 27.9 19.25 27.3 19.7 27.3 19.7 27.65 20.15 27.75 20.05 28.3 19.65 28.15" fill="#313131" fill-rule="evenodd" stroke="none"/>
  </g>
</svg>
