<?xml version="1.0" encoding="UTF-8" standalone="no"?>
<svg xmlns:xlink="http://www.w3.org/1999/xlink" height="24.85px" width="24.85px" xmlns="http://www.w3.org/2000/svg">
  <g transform="matrix(1.0, 0.0, 0.0, 1.0, -7.9, -7.7)">
    <path d="M22.1 10.6 L22.55 7.7 Q25.15 8.15 27.2 9.45 L25.6 11.9 Q24.05 10.95 22.1 10.6 M10.85 22.15 Q11.25 24.0 12.3 25.6 L9.95 27.3 Q8.5 25.1 8.0 22.75 L10.85 22.15 M12.2 14.8 L12.05 15.0 Q11.15 16.5 10.8 18.4 L7.9 17.9 Q8.4 15.3 9.7 13.2 L12.2 14.8 M15.05 19.55 Q15.2 19.9 14.85 20.05 14.1 19.25 14.1 18.4 L15.05 19.55 M14.5 11.7 L13.2 9.75 Q15.35 8.15 17.75 7.75 L18.3 10.6 Q16.7 10.95 15.2 11.9 19.55 13.35 21.15 17.6 L21.1 17.7 22.0 18.6 22.3 18.75 23.2 19.05 22.25 14.45 Q23.5 17.45 25.35 19.65 L25.8 19.9 26.75 20.75 27.6 21.95 27.9 22.5 28.05 22.75 28.2 23.3 28.25 23.6 28.2 23.65 Q28.3 27.45 26.25 28.6 L27.6 30.5 27.55 30.5 Q25.35 31.95 23.05 32.5 L22.45 29.6 24.15 29.1 22.7 28.95 22.3 28.8 22.55 28.85 Q21.55 28.65 20.55 27.65 L20.25 27.35 19.1 26.1 17.45 24.75 17.15 24.6 14.45 23.7 17.6 23.85 Q18.55 24.0 17.3 22.3 L17.1 22.15 16.3 21.05 15.8 20.0 15.35 20.1 15.7 19.7 15.6 18.85 15.6 18.7 Q15.3 15.75 12.05 15.0 14.65 14.0 16.8 16.4 16.5 13.9 13.05 11.35 L14.5 11.7 M28.35 14.65 L30.7 12.9 Q32.2 15.05 32.7 17.45 L29.9 18.1 Q29.45 16.25 28.35 14.65 M19.35 24.75 L18.9 24.9 19.45 25.05 19.85 25.1 Q20.85 25.45 21.55 26.35 22.45 27.25 23.4 27.4 L24.15 27.4 Q25.75 26.85 26.55 25.05 26.9 24.4 26.45 23.7 26.1 22.85 24.75 22.0 22.65 21.6 20.95 19.95 21.15 20.85 22.1 22.15 19.25 21.55 17.75 19.7 19.25 22.2 21.35 24.45 L19.55 24.65 19.35 24.75 M16.75 25.05 L16.6 24.95 15.85 24.6 17.0 24.85 16.75 25.05 M18.65 29.6 L18.1 32.55 18.05 32.55 Q15.5 32.05 13.5 30.75 L15.05 28.3 Q16.55 29.25 18.55 29.6 L18.65 29.6 M28.5 25.35 Q29.5 23.8 29.9 21.85 L32.75 22.35 Q32.35 25.0 31.0 26.95 L28.5 25.35" fill="#313131" fill-rule="evenodd" stroke="none"/>
  </g>
</svg>
