<?xml version="1.0" encoding="UTF-8" standalone="no"?>
<svg xmlns:xlink="http://www.w3.org/1999/xlink" height="22.8px" width="27.65px" xmlns="http://www.w3.org/2000/svg">
  <g transform="matrix(1.0, 0.0, 0.0, 1.0, -7.0, -9.7)">
    <path d="M29.95 25.75 L24.15 26.4 18.3 25.75 Q15.9 25.15 15.9 24.25 15.9 23.35 18.3 22.7 L24.15 22.1 29.95 22.7 Q32.4 23.35 32.4 24.25 32.4 25.15 29.95 25.75" fill="#382d2d" fill-rule="evenodd" stroke="none"/>
    <path d="M21.1 25.1 Q19.2 25.9 16.5 25.9 13.8 25.9 11.9 25.1 10.0 24.4 10.0 23.4 10.0 22.4 11.9 21.6 13.8 20.9 16.5 20.9 19.2 20.9 21.1 21.6 23.0 22.4 23.0 23.4 23.0 24.4 21.1 25.1" fill="#382d2d" fill-rule="evenodd" stroke="none"/>
    <path d="M34.25 23.4 Q34.0 23.8 32.55 24.2 L27.5 24.55 21.3 23.8 Q18.75 23.15 18.75 22.2 18.75 21.25 21.3 20.55 23.85 19.8 27.25 19.45 30.65 19.1 34.35 20.25 35.0 21.8 34.25 23.4" fill="#382d2d" fill-rule="evenodd" stroke="none"/>
    <path d="M16.45 19.85 Q15.45 20.4 14.0 20.4 12.55 20.4 11.5 19.85 10.5 19.4 10.5 18.65 10.5 17.9 11.5 17.35 12.55 16.9 14.0 16.9 15.45 16.9 16.45 17.35 17.5 17.9 17.5 18.65 17.5 19.4 16.45 19.85" fill="#382d2d" fill-rule="evenodd" stroke="none"/>
    <path d="M22.8 27.35 L18.95 27.9 15.1 27.35 Q13.5 26.85 13.5 26.15 13.5 25.5 15.1 24.9 L18.95 24.4 22.8 24.9 Q24.4 25.5 24.4 26.15 24.4 26.85 22.8 27.35" fill="#382d2d" fill-rule="evenodd" stroke="none"/>
    <path d="M10.3 22.15 L8.95 22.45 7.55 22.15 Q7.0 21.8 7.0 21.4 7.0 20.95 7.55 20.65 8.15 20.3 8.95 20.3 9.75 20.3 10.3 20.65 10.9 20.95 10.9 21.4 10.9 21.8 10.3 22.15" fill="#382d2d" fill-rule="evenodd" stroke="none"/>
    <path d="M18.35 20.1 Q18.35 19.25 19.75 18.6 21.15 18.05 23.1 18.05 25.05 18.05 26.45 18.6 27.85 19.25 27.85 20.1 27.85 21.0 26.45 21.55 25.05 22.15 23.1 22.15 21.15 22.15 19.75 21.55 18.35 21.0 18.35 20.1" fill="#382d2d" fill-rule="evenodd" stroke="none"/>
    <path d="M31.6 17.9 Q30.75 18.4 29.5 18.4 28.25 18.4 27.35 17.9 26.5 17.5 26.5 16.95 26.5 16.35 27.35 15.85 L29.5 15.5 Q30.75 15.5 31.6 15.85 32.5 16.35 32.5 16.95 32.5 17.5 31.6 17.9" fill="#382d2d" fill-rule="evenodd" stroke="none"/>
    <path d="M20.5 10.2 Q20.05 10.55 20.1 10.95 20.1 11.35 20.5 11.85 21.05 12.4 20.5 13.3 20.0 13.85 20.2 14.35 L20.5 14.9 M17.85 10.2 Q17.4 10.55 17.4 10.95 17.4 11.35 17.85 11.85 18.5 12.4 17.85 13.3 17.35 13.85 17.6 14.35 L17.85 14.9 M22.95 10.2 Q22.45 10.55 22.5 10.95 22.5 11.35 22.95 11.85 23.6 12.4 22.95 13.3 22.45 13.85 22.7 14.35 L22.95 14.9" fill="none" stroke="#372d2d" stroke-linecap="round" stroke-linejoin="round" stroke-width="1.0"/>
    <path d="M30.2 29.2 L27.4 29.75 Q25.85 29.75 24.75 29.2 23.6 28.7 23.65 28.05 23.7 27.35 24.85 26.75 L27.6 26.3 30.3 26.75 Q31.45 27.35 31.4 28.05 31.35 28.7 30.2 29.2" fill="#382d2d" fill-rule="evenodd" stroke="none"/>
    <path d="M17.8 31.25 Q16.9 31.8 15.6 31.8 14.3 31.8 13.35 31.25 12.4 30.75 12.4 30.1 12.4 29.45 13.35 28.85 14.3 28.4 15.6 28.4 L17.8 28.85 Q18.75 29.45 18.75 30.1 18.75 30.75 17.8 31.25" fill="#382d2d" fill-rule="evenodd" stroke="none"/>
    <path d="M24.65 32.15 L23.3 32.5 Q22.5 32.5 21.9 32.15 21.35 31.8 21.35 31.35 21.35 30.9 21.9 30.55 22.5 30.2 23.3 30.2 24.1 30.2 24.65 30.55 25.25 30.9 25.25 31.35 25.25 31.8 24.65 32.15" fill="#382d2d" fill-rule="evenodd" stroke="none"/>
  </g>
</svg>
