<?xml version="1.0" encoding="UTF-8" standalone="no"?>
<!DOCTYPE svg PUBLIC "-//W3C//DTD SVG 1.1//EN" "http://www.w3.org/Graphics/SVG/1.1/DTD/svg11.dtd">
<svg width="100%" height="100%" viewBox="0 0 160 189" version="1.1" xmlns="http://www.w3.org/2000/svg" xmlns:xlink="http://www.w3.org/1999/xlink" xml:space="preserve" xmlns:serif="http://www.serif.com/" style="fill-rule:evenodd;clip-rule:evenodd;stroke-linecap:round;stroke-linejoin:round;">
    <g transform="matrix(1,0,0,1,-111.95,-27.25)">
        <g>
            <g id="shape0">
                <path d="M222.6,43.95L225.75,40.75L227.3,41.15C229.6,37.983 230.117,34.1 228.85,29.5L232.25,27.25C232.783,32.383 231.65,37.15 228.85,41.55L228.85,43.5C233.35,43.667 237.3,42.567 240.7,40.2L242.65,44.65C237.517,46.117 232.917,46.05 228.85,44.45L228.85,47.75C239.25,54.683 248.833,63.483 257.6,74.15C266.867,92.35 262.317,110.667 243.95,129.1C243.717,128.333 243.433,127.75 243.1,127.35C261.6,104.283 264.183,85.35 250.85,70.55C240.983,61.183 233.45,54.4 228.25,50.2L225.4,50.2L221.85,47.4L223.1,47.4C206.267,36.033 196.933,36.867 195.1,49.9C195.933,55.467 189.2,64.6 174.9,77.3C166.133,89.8 164.2,104.567 169.1,121.6C168.6,121.8 168.067,122.117 167.5,122.55C161.333,104.583 162.9,89.2 172.2,76.4C184.4,65.933 190.983,57.55 191.95,51.25C193.183,43.183 196.033,38.533 200.5,37.3C208.033,36.133 214.783,37.783 220.75,42.25C221.95,42.983 222.567,43.55 222.6,43.95" style="fill:#633;"/>
                <path d="M174.9,131.7L169.95,133.5" style="fill:none;fill-rule:nonzero;stroke:#333;stroke-width:0.05px;"/>
                <path d="M176.7,146.05L187.4,134.3C189.4,136.867 188.867,140.583 185.8,145.45C182.433,147.35 179.517,149.533 177.05,152C178.383,150.033 178.267,148.05 176.7,146.05M173.15,156.7C171.65,158.867 170.433,161.2 169.5,163.7C165.167,168.267 161.033,171.783 157.1,174.25L159.75,163.95L154.8,172.5L154.1,167.2C152.7,172.3 150.6,175.983 147.8,178.25L143.2,178.65C141.767,177.283 142.45,173.15 145.25,166.25C153.35,164.983 162.65,159.4 173.15,149.5C174.183,151.9 174.183,154.3 173.15,156.7M138.6,177.8L135.5,176.5C134.833,174.833 134.417,173.117 134.25,171.35L138.1,166.15L143.8,166.4L138.6,177.8" style="fill:#6d4638;"/>
                <path d="M157.1,174.25C153.867,176.283 150.767,177.617 147.8,178.25C150.6,175.983 152.7,172.3 154.1,167.2L154.8,172.5L159.75,163.95L157.1,174.25M143.2,178.65L138.6,177.8L143.8,166.4L146,161.7L145.25,166.25C142.45,173.15 141.767,177.283 143.2,178.65M134.25,171.35C134.05,169.317 134.15,167.233 134.55,165.1L134.6,165.1C136.733,165.133 139.167,163.75 141.9,160.95L138.1,166.15L134.25,171.35" style="fill:#8d2e2e;"/>
                <path d="M180.2,130.7C183.667,131.4 186.067,132.6 187.4,134.3L176.7,146.05C172.367,139.117 166.783,136.433 159.95,138C167.117,134.1 173.867,131.667 180.2,130.7M134.6,165.1C135.5,160.5 137.867,155.567 141.7,150.3C146,146.9 150.167,143.933 154.2,141.4C161.233,138.133 167.55,140.833 173.15,149.5C162.65,159.4 153.35,164.983 145.25,166.25L146,161.7L143.8,166.4L138.1,166.15L141.9,160.95C139.167,163.75 136.733,165.133 134.6,165.1" style="fill:url(#_Linear1);"/>
                <path d="M159.95,138C166.783,136.433 172.367,139.117 176.7,146.05L173.15,149.5C167.55,140.833 161.233,138.133 154.2,141.4C156.133,140.167 158.05,139.033 159.95,138" style="fill:#0f9;"/>
                <path d="M177.05,152C175.583,153.467 174.283,155.033 173.15,156.7C174.183,154.3 174.183,151.9 173.15,149.5L176.7,146.05C178.267,148.05 178.383,150.033 177.05,152" style="fill:#093;"/>
                <path d="M187.4,134.3C186.067,132.6 183.667,131.4 180.2,130.7M187.4,134.3C189.4,136.867 188.867,140.583 185.8,145.45C182.433,147.35 179.517,149.533 177.05,152C175.583,153.467 174.283,155.033 173.15,156.7C171.65,158.867 170.433,161.2 169.5,163.7C165.167,168.267 161.033,171.783 157.1,174.25C153.867,176.283 150.767,177.617 147.8,178.25L143.2,178.65L138.6,177.8L135.5,176.5C134.833,174.833 134.417,173.117 134.25,171.35C134.05,169.317 134.15,167.233 134.55,165.1L134.6,165.1C135.5,160.5 137.867,155.567 141.7,150.3" style="fill:none;fill-rule:nonzero;stroke:#333;stroke-width:0.05px;"/>
                <path d="M180.2,130.7C173.867,131.667 167.117,134.1 159.95,138C158.05,139.033 156.133,140.167 154.2,141.4C150.167,143.933 146,146.9 141.7,150.3" style="fill:none;fill-rule:nonzero;stroke:#333;stroke-width:0.05px;"/>
                <path d="M185.4,138.85L185.4,139.35C185.3,140.35 184.933,141.4 184.3,142.5C183.633,143.6 182.9,144.433 182.1,145L181.65,145.35L180.15,145.5C179.65,145.2 179.467,144.55 179.6,143.55C179.667,142.583 180.033,141.55 180.7,140.45C181.333,139.35 182.067,138.5 182.9,137.9C183.667,137.333 184.3,137.2 184.8,137.5C185.2,137.733 185.4,138.183 185.4,138.85" style="fill:#472f25;"/>
                <path d="M181.65,145.35L180.15,145.5C179.65,145.2 179.467,144.55 179.6,143.55C179.667,142.583 180.033,141.55 180.7,140.45C181.333,139.35 182.067,138.5 182.9,137.9C183.667,137.333 184.3,137.2 184.8,137.5C185.2,137.733 185.4,138.183 185.4,138.85" style="fill:none;fill-rule:nonzero;stroke:#333;stroke-width:0.05px;"/>
                <path d="M196.15,163.45C198.183,164.683 199.817,168.017 201.05,173.45C201.017,174.883 201.233,176.95 201.7,179.65C199.833,187.417 197.517,193.933 194.75,199.2L191.05,186.1L191.05,198.7L186.95,193.3C188.65,199.833 188.667,205.233 187,209.5C185.467,210.833 183.867,211.95 182.2,212.85C179.767,212.25 177.883,207.267 176.55,197.9C183.95,191.967 190.483,180.483 196.15,163.45M202.05,164.85C201.617,161.383 200.317,158.733 198.15,156.9C199.683,151.1 201.2,144.067 202.7,135.8C206.567,137.333 208.35,141.767 208.05,149.1C205.15,154.067 203.15,159.317 202.05,164.85M164.05,203.45L164.1,203.45L164.05,203.45M168.6,202.35C170.833,201.583 173,200.467 175.1,199L176.55,214.9L172.3,215.4C170.5,214 168.95,212.383 167.65,210.55L168.6,202.35" style="fill:#6d4638;"/>
                <path d="M175.1,199L174.45,192.4L176.55,197.9C177.883,207.267 179.767,212.25 182.2,212.85C180.4,213.783 178.517,214.467 176.55,214.9L175.1,199M164.1,203.45C166.467,202.117 168.267,199.033 169.5,194.2L168.6,202.35L167.65,210.55C166.15,208.45 164.95,206.083 164.05,203.45L164.1,203.45M194.75,199.2C192.45,203.467 189.867,206.9 187,209.5C188.667,205.233 188.65,199.833 186.95,193.3L191.05,198.7L191.05,186.1L194.75,199.2" style="fill:#8d2e2e;"/>
                <path d="M198.15,156.9C188.683,150.667 181.167,150.383 175.6,156.05C180.8,147.817 186.417,141.267 192.45,136.4C196.75,134.967 200.167,134.767 202.7,135.8C201.2,144.067 199.683,151.1 198.15,156.9M171.4,163.25C178.267,156.45 186.517,156.517 196.15,163.45C190.483,180.483 183.95,191.967 176.55,197.9L174.45,192.4L175.1,199C173,200.467 170.833,201.583 168.6,202.35L169.5,194.2C168.267,199.033 166.467,202.117 164.1,203.45L164.05,203.45C162.15,197.75 161.633,190.783 162.5,182.55C165.3,175.45 168.267,169.017 171.4,163.25" style="fill:url(#_Linear2);"/>
                <path d="M196.15,163.45L198.15,156.9C200.317,158.733 201.617,161.383 202.05,164.85C201.483,167.65 201.15,170.517 201.05,173.45C199.817,168.017 198.183,164.683 196.15,163.45" style="fill:#093;"/>
                <path d="M198.15,156.9L196.15,163.45C186.517,156.517 178.267,156.45 171.4,163.25C172.767,160.717 174.167,158.317 175.6,156.05C181.167,150.383 188.683,150.667 198.15,156.9" style="fill:#0f9;"/>
                <path d="M201.05,173.45C201.15,170.517 201.483,167.65 202.05,164.85C203.15,159.317 205.15,154.067 208.05,149.1C208.35,141.767 206.567,137.333 202.7,135.8C200.167,134.767 196.75,134.967 192.45,136.4M194.75,199.2C197.517,193.933 199.833,187.417 201.7,179.65C201.233,176.95 201.017,174.883 201.05,173.45M162.5,182.55C161.633,190.783 162.15,197.75 164.05,203.45C164.95,206.083 166.15,208.45 167.65,210.55C168.95,212.383 170.5,214 172.3,215.4L176.55,214.9C178.517,214.467 180.4,213.783 182.2,212.85C183.867,211.95 185.467,210.833 187,209.5C189.867,206.9 192.45,203.467 194.75,199.2" style="fill:none;fill-rule:nonzero;stroke:#333;stroke-width:0.05px;"/>
                <path d="M175.6,156.05C174.167,158.317 172.767,160.717 171.4,163.25C168.267,169.017 165.3,175.45 162.5,182.55M192.45,136.4C186.417,141.267 180.8,147.817 175.6,156.05" style="fill:none;fill-rule:nonzero;stroke:#333;stroke-width:0.05px;"/>
                <path d="M203.4,142.05L203.75,142.65C204.25,143.817 204.5,145.217 204.5,146.85C204.5,148.483 204.25,149.867 203.75,151L203.4,151.65C202.967,152.383 202.467,152.75 201.9,152.75C201.167,152.75 200.533,152.167 200,151C199.5,149.867 199.25,148.483 199.25,146.85C199.25,145.217 199.5,143.817 200,142.65C200.533,141.517 201.167,140.95 201.9,140.95C202.467,140.95 202.967,141.317 203.4,142.05" style="fill:#472f25;"/>
                <path d="M203.4,151.65C202.967,152.383 202.467,152.75 201.9,152.75C201.167,152.75 200.533,152.167 200,151C199.5,149.867 199.25,148.483 199.25,146.85C199.25,145.217 199.5,143.817 200,142.65C200.533,141.517 201.167,140.95 201.9,140.95C202.467,140.95 202.967,141.317 203.4,142.05" style="fill:none;fill-rule:nonzero;stroke:#333;stroke-width:0.05px;"/>
                <path d="M226.4,154.3C226.333,149.967 226.1,145.283 225.7,140.25C228.933,141.55 231.183,145.183 232.45,151.15C231.65,153.75 231.167,156.35 231,158.95C229.833,156.55 228.3,155 226.4,154.3M231.05,164.85C231.383,168.55 232.317,172.267 233.85,176C234.017,182.3 233.583,187.583 232.55,191.85L227.05,181.15L229.65,191.4L225.4,187C228.033,192.333 229.15,196.733 228.75,200.2L225.8,202.9C223.833,202.4 221.383,198.317 218.45,190.65C223.55,185.15 226.217,174.683 226.45,159.25C228.683,160.383 230.217,162.25 231.05,164.85M221.95,204.5L218.8,204.9C217.133,203.733 215.617,202.4 214.25,200.9L213.35,194.25C214.883,193.617 216.3,192.717 217.6,191.55L221.95,204.5M210.1,195.1L210.1,195.05L210.15,195.05L210.1,195.1" style="fill:#6d4638;"/>
                <path d="M232.55,191.85C231.683,195.317 230.417,198.1 228.75,200.2C229.15,196.733 228.033,192.333 225.4,187L229.65,191.4L227.05,181.15L232.55,191.85M225.8,202.9C224.633,203.633 223.35,204.167 221.95,204.5L217.6,191.55L215.75,186.15L218.45,190.65C221.383,198.317 223.833,202.4 225.8,202.9M214.25,200.9C212.683,199.167 211.3,197.233 210.1,195.1L210.15,195.05C211.683,193.983 212.433,191.5 212.4,187.6L213.35,194.25L214.25,200.9" style="fill:#8d2e2e;"/>
                <path d="M218.05,140.7C221.017,139.533 223.567,139.383 225.7,140.25C226.1,145.283 226.333,149.967 226.4,154.3C220.2,151.5 214.333,152.7 208.8,157.9C211.133,150.6 214.217,144.867 218.05,140.7M210.1,195.05C207.5,190.417 205.7,184.75 204.7,178.05C205.333,172.683 206.183,167.8 207.25,163.4C213.217,157.333 219.617,155.95 226.45,159.25C226.217,174.683 223.55,185.15 218.45,190.65L215.75,186.15L217.6,191.55C216.3,192.717 214.883,193.617 213.35,194.25L212.4,187.6C212.433,191.5 211.683,193.983 210.15,195.05L210.1,195.05" style="fill:url(#_Linear3);"/>
                <path d="M208.8,157.9C214.333,152.7 220.2,151.5 226.4,154.3L226.45,159.25C219.617,155.95 213.217,157.333 207.25,163.4C207.717,161.467 208.233,159.633 208.8,157.9" style="fill:#0f9;"/>
                <path d="M231,158.95C230.833,160.917 230.85,162.883 231.05,164.85C230.217,162.25 228.683,160.383 226.45,159.25L226.4,154.3C228.3,155 229.833,156.55 231,158.95" style="fill:#093;"/>
                <path d="M225.7,140.25C223.567,139.383 221.017,139.533 218.05,140.7M225.7,140.25C228.933,141.55 231.183,145.183 232.45,151.15C231.65,153.75 231.167,156.35 231,158.95C230.833,160.917 230.85,162.883 231.05,164.85C231.383,168.55 232.317,172.267 233.85,176C234.017,182.3 233.583,187.583 232.55,191.85C231.683,195.317 230.417,198.1 228.75,200.2L225.8,202.9C224.633,203.633 223.35,204.167 221.95,204.5L218.8,204.9C217.133,203.733 215.617,202.4 214.25,200.9C212.683,199.167 211.3,197.233 210.1,195.1L210.1,195.05C207.5,190.417 205.7,184.75 204.7,178.05" style="fill:none;fill-rule:nonzero;stroke:#333;stroke-width:0.05px;"/>
                <path d="M218.05,140.7C214.217,144.867 211.133,150.6 208.8,157.9C208.233,159.633 207.717,161.467 207.25,163.4C206.183,167.8 205.333,172.683 204.7,178.05" style="fill:none;fill-rule:nonzero;stroke:#333;stroke-width:0.05px;"/>
                <path d="M227.45,145.35L227.85,145.85C228.483,146.783 228.967,147.917 229.3,149.25C229.633,150.583 229.717,151.717 229.55,152.65L229.4,153.15C229.233,153.75 228.933,154.05 228.5,154.05C227.967,154.05 227.367,153.583 226.7,152.65C226.1,151.683 225.633,150.533 225.3,149.2C224.967,147.867 224.867,146.75 225,145.85C225.2,144.917 225.567,144.45 226.1,144.45C226.533,144.45 226.983,144.75 227.45,145.35" style="fill:#472f25;"/>
                <path d="M229.4,153.15C229.233,153.75 228.933,154.05 228.5,154.05C227.967,154.05 227.367,153.583 226.7,152.65C226.1,151.683 225.633,150.533 225.3,149.2C224.967,147.867 224.867,146.75 225,145.85C225.2,144.917 225.567,144.45 226.1,144.45C226.533,144.45 226.983,144.75 227.45,145.35" style="fill:none;fill-rule:nonzero;stroke:#333;stroke-width:0.05px;"/>
                <path d="M247.1,190L249.9,183.95L260.05,191.3L247.1,190" style="fill:#5b1e00;"/>
                <path d="M240.65,144.75L240.75,145.55C240.383,147.517 239.567,148.617 238.3,148.85C234.3,145.183 231.8,140 230.8,133.3C231.567,131.733 232.683,131.133 234.15,131.5C235.117,136.633 237.283,141.05 240.65,144.75" style="fill:#9d7d00;"/>
                <path d="M240.65,144.75C240.383,142.283 239.833,139.767 239,137.2C238.033,134.333 236.65,132.517 234.85,131.75L234.15,131.5C232.683,131.133 231.567,131.733 230.8,133.3C231.133,129.5 233.033,127.583 236.5,127.55C242.767,129.25 245.583,134.85 244.95,144.35C244.317,146.75 243.85,148.1 243.55,148.4C241.683,148 240.4,148.417 239.7,149.65L238.3,148.85C239.567,148.617 240.383,147.517 240.75,145.55L240.65,144.75" style="fill:url(#_Linear4);"/>
                <path d="M239.7,149.65C240.4,148.417 241.683,148 243.55,148.4L246.7,155.15C245.533,154.583 244.533,154.4 243.7,154.6C243.1,154.733 242.583,155.067 242.15,155.6C241.717,156.1 241.35,156.817 241.05,157.75L239.7,149.65" style="fill:url(#_Linear5);"/>
                <path d="M243.7,154.6C244.533,154.4 245.533,154.583 246.7,155.15L263.85,179.9L256.65,179.2L243.7,154.6" style="fill:url(#_Linear6);"/>
                <path d="M249.9,183.95L242.15,155.6C242.583,155.067 243.1,154.733 243.7,154.6L256.65,179.2L249.9,183.95" style="fill:url(#_Linear7);"/>
                <path d="M260.05,191.3L256.65,179.2L263.85,179.9L260.05,191.3" style="fill:url(#_Linear8);"/>
                <path d="M260.05,191.3L249.9,183.95L256.65,179.2L260.05,191.3" style="fill:url(#_Linear9);"/>
                <path d="M241.05,157.75C241.35,156.817 241.717,156.1 242.15,155.6L249.9,183.95L247.1,190L241.05,157.75" style="fill:url(#_Linear10);"/>
                <path d="M234.15,131.5L234.85,131.75C236.65,132.517 238.033,134.333 239,137.2C239.833,139.767 240.383,142.283 240.65,144.75L240.75,145.55C240.383,147.517 239.567,148.617 238.3,148.85L239.7,149.65C240.4,148.417 241.683,148 243.55,148.4C243.85,148.1 244.317,146.75 244.95,144.35C245.583,134.85 242.767,129.25 236.5,127.55C233.033,127.583 231.133,129.5 230.8,133.3C231.567,131.733 232.683,131.133 234.15,131.5" style="fill:none;fill-rule:nonzero;stroke:#333;stroke-opacity:0.4;stroke-width:0.05px;"/>
                <path d="M234.15,131.5C235.117,136.633 237.283,141.05 240.65,144.75M242.15,155.6C241.717,156.1 241.35,156.817 241.05,157.75L247.1,190L260.05,191.3L263.85,179.9L246.7,155.15L243.55,148.4M242.15,155.6C242.583,155.067 243.1,154.733 243.7,154.6C244.533,154.4 245.533,154.583 246.7,155.15M241.05,157.75L239.7,149.65M230.8,133.3C231.8,140 234.3,145.183 238.3,148.85" style="fill:none;fill-rule:nonzero;stroke:#333;stroke-opacity:0.4;stroke-width:0.05px;"/>
                <path d="M175.65,121.8C176.85,122.667 177.133,123.917 176.5,125.55C170.867,129.25 165.383,130.833 160.05,130.3C159.383,129.167 159.65,127.817 160.85,126.25L161.5,125.8C166.467,125.833 171.183,124.5 175.65,121.8" style="fill:#9d7d00;"/>
                <path d="M114.25,142.35L126.4,145.05L123.8,151.2L114.25,142.35" style="fill:#003;"/>
                <path d="M176.5,125.55C177.133,123.917 176.85,122.667 175.65,121.8L175,121.45C173.233,120.583 170.967,120.767 168.2,122C165.7,123.067 163.467,124.333 161.5,125.8L160.85,126.25C159.65,127.817 159.383,129.167 160.05,130.3L158.5,129.75C158.967,128.417 158.433,127.183 156.9,126.05C156.9,125.617 157.583,124.367 158.95,122.3C165.55,115.433 171.567,113.8 177,117.4C179.267,120 179.1,122.717 176.5,125.55" style="fill:url(#_Linear11);"/>
                <path d="M156.9,126.05C158.433,127.183 158.967,128.417 158.5,129.75L151.65,134.2C152.117,133.333 152.4,132.567 152.5,131.9C152.567,131.233 152.467,130.633 152.2,130.1C151.8,129.3 151.017,128.667 149.85,128.2L156.9,126.05" style="fill:url(#_Linear12);"/>
                <path d="M126.4,145.05C135.1,140.683 143.8,136.3 152.5,131.9C152.4,132.567 152.117,133.333 151.65,134.2L123.8,151.2L126.4,145.05" style="fill:url(#_Linear13);"/>
                <path d="M125.45,136.8L126.4,145.05L114.25,142.35L125.45,136.8" style="fill:url(#_Linear14);"/>
                <path d="M126.4,145.05L125.45,136.8L152.2,130.1C152.467,130.633 152.567,131.233 152.5,131.9C143.8,136.3 135.1,140.683 126.4,145.05" style="fill:url(#_Linear15);"/>
                <path d="M125.45,136.8L114.25,142.35L120.2,131.9L125.45,136.8" style="fill:url(#_Linear16);"/>
                <path d="M152.2,130.1L125.45,136.8L120.2,131.9L149.85,128.2C151.017,128.667 151.8,129.3 152.2,130.1" style="fill:url(#_Linear17);"/>
                <path d="M176.5,125.55C177.133,123.917 176.85,122.667 175.65,121.8L175,121.45C173.233,120.583 170.967,120.767 168.2,122C165.7,123.067 163.467,124.333 161.5,125.8L160.85,126.25C159.65,127.817 159.383,129.167 160.05,130.3L158.5,129.75C158.967,128.417 158.433,127.183 156.9,126.05C156.9,125.617 157.583,124.367 158.95,122.3C165.55,115.433 171.567,113.8 177,117.4C179.267,120 179.1,122.717 176.5,125.55" style="fill:none;fill-rule:nonzero;stroke:#333;stroke-opacity:0.4;stroke-width:0.05px;"/>
                <path d="M175.65,121.8C171.183,124.5 166.467,125.833 161.5,125.8M160.05,130.3C165.383,130.833 170.867,129.25 176.5,125.55M152.5,131.9C152.567,131.233 152.467,130.633 152.2,130.1C151.8,129.3 151.017,128.667 149.85,128.2L156.9,126.05M120.2,131.9L114.25,142.35L123.8,151.2L151.65,134.2L158.5,129.75M152.5,131.9C152.4,132.567 152.117,133.333 151.65,134.2M120.2,131.9L149.85,128.2" style="fill:none;fill-rule:nonzero;stroke:#333;stroke-opacity:0.4;stroke-width:0.05px;"/>
                <path d="M240.4,129.3L241.4,126.75C242.033,126.583 242.6,126.783 243.1,127.35C243.433,127.75 243.717,128.333 243.95,129.1L244.55,132.15L243.85,134.15C242.817,131.75 241.667,130.133 240.4,129.3" style="fill:#fc0;"/>
                <path d="M237.7,134.5C239,136.7 239.717,138.917 239.85,141.15C236.417,145.583 231.7,148.733 225.7,150.6L224.8,146.1C230.067,143.6 234.367,139.733 237.7,134.5M169.95,133.5C166.683,130.367 165.333,127.217 165.9,124.05L167.5,122.55C168.067,122.117 168.6,121.8 169.1,121.6C169.967,121.233 170.7,121.3 171.3,121.8C171.367,126.233 172.567,129.533 174.9,131.7L169.95,133.5M183.4,146.1L179.85,143.85C179.65,140.75 180.533,138.8 182.5,138L187,141.15L183.4,146.1M210.85,152.4C206.95,152.533 203.5,151.783 200.5,150.15C198.9,147.15 198.75,145.35 200.05,144.75C204.55,147.15 209.05,147.75 213.55,146.55L210.85,152.4" style="fill:url(#_Linear18);"/>
                <path d="M237.7,134.5C234.367,139.733 230.067,143.6 224.8,146.1L225.7,150.6C231.7,148.733 236.417,145.583 239.85,141.15M240.4,129.3L241.4,126.75C242.033,126.583 242.6,126.783 243.1,127.35C243.433,127.75 243.717,128.333 243.95,129.1L244.55,132.15L243.85,134.15M174.9,131.7C172.567,129.533 171.367,126.233 171.3,121.8C170.7,121.3 169.967,121.233 169.1,121.6C168.6,121.8 168.067,122.117 167.5,122.55L165.9,124.05C165.333,127.217 166.683,130.367 169.95,133.5" style="fill:none;fill-rule:nonzero;stroke:#333;stroke-opacity:0.4;stroke-width:0.05px;"/>
                <path d="M183.4,146.1L179.85,143.85C179.65,140.75 180.533,138.8 182.5,138L187,141.15L183.4,146.1M210.85,152.4L213.55,146.55C209.05,147.75 204.55,147.15 200.05,144.75C198.75,145.35 198.9,147.15 200.5,150.15C203.5,151.783 206.95,152.533 210.85,152.4" style="fill:none;fill-rule:nonzero;stroke:#333;stroke-opacity:0.4;stroke-width:0.05px;"/>
                <path d="M115.15,124.6C117.35,122.433 119.983,121.35 123.05,121.35C126.117,121.35 128.717,122.433 130.85,124.6C133.05,126.767 134.15,129.383 134.15,132.45C134.15,135.517 133.05,138.133 130.85,140.3C128.717,142.467 126.117,143.55 123.05,143.55C119.983,143.55 117.35,142.467 115.15,140.3C113.017,138.133 111.95,135.517 111.95,132.45C111.95,129.383 113.017,126.767 115.15,124.6" style="fill:url(#_Radial19);"/>
                <path d="M252.4,171.7C254.6,169.533 257.233,168.45 260.3,168.45C263.367,168.45 265.967,169.533 268.1,171.7C270.3,173.867 271.4,176.483 271.4,179.55C271.4,182.617 270.3,185.233 268.1,187.4C265.967,189.567 263.367,190.65 260.3,190.65C257.233,190.65 254.6,189.567 252.4,187.4C250.267,185.233 249.2,182.617 249.2,179.55C249.2,176.483 250.267,173.867 252.4,171.7" style="fill:url(#_Radial20);"/>
                <path d="M231.8,124.6C234,122.433 236.633,121.35 239.7,121.35C242.767,121.35 245.367,122.433 247.5,124.6C249.7,126.767 250.8,129.383 250.8,132.45C250.8,135.517 249.7,138.133 247.5,140.3C245.367,142.467 242.767,143.55 239.7,143.55C236.633,143.55 234,142.467 231.8,140.3C229.667,138.133 228.6,135.517 228.6,132.45C228.6,129.383 229.667,126.767 231.8,124.6" style="fill:url(#_Radial21);"/>
                <path d="M165.3,107.6C167.5,105.433 170.133,104.35 173.2,104.35C176.267,104.35 178.867,105.433 181,107.6C183.2,109.767 184.3,112.383 184.3,115.45C184.3,118.517 183.2,121.133 181,123.3C178.867,125.467 176.267,126.55 173.2,126.55C170.133,126.55 167.5,125.467 165.3,123.3C163.167,121.133 162.1,118.517 162.1,115.45C162.1,112.383 163.167,109.767 165.3,107.6" style="fill:url(#_Radial22);"/>
                <path d="M196.3,150.35C195.767,157.083 193.7,164.633 190.1,173C186.5,181.367 182.467,188.033 178,193C173.533,198.067 169.917,200.017 167.15,198.85C164.383,197.65 163.283,193.683 163.85,186.95C164.417,180.283 166.5,172.767 170.1,164.4C173.7,156.033 177.717,149.333 182.15,144.3C186.65,139.233 190.283,137.333 193.05,138.6C195.817,139.7 196.9,143.617 196.3,150.35" style="fill:url(#_Radial23);"/>
                <path d="M237.05,145.95C239.25,143.783 241.883,142.7 244.95,142.7C248.017,142.7 250.617,143.783 252.75,145.95C254.95,148.117 256.05,150.733 256.05,153.8C256.05,156.867 254.95,159.483 252.75,161.65C250.617,163.817 248.017,164.9 244.95,164.9C241.883,164.9 239.25,163.817 237.05,161.65C234.917,159.483 233.85,156.867 233.85,153.8C233.85,150.733 234.917,148.117 237.05,145.95" style="fill:url(#_Radial24);"/>
                <path d="M145.4,119.95C147.6,117.783 150.233,116.7 153.3,116.7C156.367,116.7 158.967,117.783 161.1,119.95C163.3,122.117 164.4,124.733 164.4,127.8C164.4,130.867 163.3,133.483 161.1,135.65C158.967,137.817 156.367,138.9 153.3,138.9C150.233,138.9 147.6,137.817 145.4,135.65C143.267,133.483 142.2,130.867 142.2,127.8C142.2,124.733 143.267,122.117 145.4,119.95" style="fill:url(#_Radial25);"/>
                <path d="M223.7,155.75C226.167,160.75 227.4,166.85 227.4,174.05C227.4,181.217 226.167,187.317 223.7,192.35C221.3,197.383 218.367,199.9 214.9,199.9C211.467,199.9 208.517,197.383 206.05,192.35C203.65,187.317 202.45,181.217 202.45,174.05C202.45,166.85 203.65,160.75 206.05,155.75C208.517,150.683 211.467,148.167 214.9,148.2C218.367,148.167 221.3,150.683 223.7,155.75" style="fill:url(#_Radial26);"/>
                <path d="M171.9,151.85C168.833,156.283 164.283,160.233 158.25,163.7C152.217,167.2 146.517,169.167 141.15,169.6C135.75,170.033 132.233,168.833 130.6,166C128.967,163.2 129.7,159.583 132.8,155.15C135.867,150.75 140.417,146.8 146.45,143.3C152.483,139.833 158.183,137.867 163.55,137.4C168.95,136.933 172.45,138.117 174.05,140.95C175.717,143.75 175,147.383 171.9,151.85" style="fill:url(#_Radial27);"/>
            </g>
        </g>
    </g>
    <defs>
        <linearGradient id="_Linear1" x1="0" y1="0" x2="1" y2="0" gradientUnits="userSpaceOnUse" gradientTransform="matrix(26.7059,-15.401,15.401,26.7059,149.568,156.771)"><stop offset="0" style="stop-color:#8f673a;stop-opacity:1"/><stop offset="1" style="stop-color:#7c5538;stop-opacity:1"/></linearGradient>
        <linearGradient id="_Linear2" x1="0" y1="0" x2="1" y2="0" gradientUnits="userSpaceOnUse" gradientTransform="matrix(19.497,-34.0787,34.0787,19.497,175.445,184.789)"><stop offset="0" style="stop-color:#8f673a;stop-opacity:1"/><stop offset="1" style="stop-color:#7c5538;stop-opacity:1"/></linearGradient>
        <linearGradient id="_Linear3" x1="0" y1="0" x2="1" y2="0" gradientUnits="userSpaceOnUse" gradientTransform="matrix(7.86432,-27.5251,27.5251,7.86432,214.996,179.915)"><stop offset="0" style="stop-color:#8f673a;stop-opacity:1"/><stop offset="1" style="stop-color:#7c5538;stop-opacity:1"/></linearGradient>
        <linearGradient id="_Linear4" x1="0" y1="0" x2="1" y2="0" gradientUnits="userSpaceOnUse" gradientTransform="matrix(-10.1581,-17.6947,17.6947,-10.1581,243.058,142.975)"><stop offset="0" style="stop-color:#fc0;stop-opacity:1"/><stop offset="0.52" style="stop-color:#655101;stop-opacity:1"/><stop offset="0.67" style="stop-color:#fdeba4;stop-opacity:1"/><stop offset="1" style="stop-color:#ffce0d;stop-opacity:1"/></linearGradient>
        <linearGradient id="_Linear5" x1="0" y1="0" x2="1" y2="0" gradientUnits="userSpaceOnUse" gradientTransform="matrix(12.7795,-7.3728,7.3728,12.7795,242.446,153.518)"><stop offset="0" style="stop-color:#fc0;stop-opacity:1"/><stop offset="0.52" style="stop-color:#655101;stop-opacity:1"/><stop offset="0.67" style="stop-color:#fdeba4;stop-opacity:1"/><stop offset="1" style="stop-color:#ffce0d;stop-opacity:1"/></linearGradient>
        <linearGradient id="_Linear6" x1="0" y1="0" x2="1" y2="0" gradientUnits="userSpaceOnUse" gradientTransform="matrix(-10.4858,-38.9939,38.9939,-10.4858,257.567,176.788)"><stop offset="0" style="stop-color:#f60;stop-opacity:1"/><stop offset="0.67" style="stop-color:#fec7a3;stop-opacity:1"/><stop offset="1" style="stop-color:#f60;stop-opacity:1"/></linearGradient>
        <linearGradient id="_Linear7" x1="0" y1="0" x2="1" y2="0" gradientUnits="userSpaceOnUse" gradientTransform="matrix(-3.93216,-48.9882,48.9882,-3.93216,251.506,178.401)"><stop offset="0" style="stop-color:#f00;stop-opacity:1"/><stop offset="0.67" style="stop-color:#fcc;stop-opacity:1"/><stop offset="1" style="stop-color:#f00;stop-opacity:1"/></linearGradient>
        <linearGradient id="_Linear8" x1="0" y1="0" x2="1" y2="0" gradientUnits="userSpaceOnUse" gradientTransform="matrix(2.78528,-10.6496,10.6496,2.78528,259.11,186.922)"><stop offset="0" style="stop-color:#f00;stop-opacity:1"/><stop offset="0.67" style="stop-color:#fcc;stop-opacity:1"/><stop offset="1" style="stop-color:#f00;stop-opacity:1"/></linearGradient>
        <linearGradient id="_Linear9" x1="0" y1="0" x2="1" y2="0" gradientUnits="userSpaceOnUse" gradientTransform="matrix(-10.9773,-19.0054,19.0054,-10.9773,257.827,187.605)"><stop offset="0" style="stop-color:#930;stop-opacity:1"/><stop offset="1" style="stop-color:#f8a37e;stop-opacity:1"/></linearGradient>
        <linearGradient id="_Linear10" x1="0" y1="0" x2="1" y2="0" gradientUnits="userSpaceOnUse" gradientTransform="matrix(-5.7344,-36.7002,36.7002,-5.7344,247.718,182.438)"><stop offset="0" style="stop-color:#930;stop-opacity:1"/><stop offset="1" style="stop-color:#f8a37e;stop-opacity:1"/></linearGradient>
        <linearGradient id="_Linear11" x1="0" y1="0" x2="1" y2="0" gradientUnits="userSpaceOnUse" gradientTransform="matrix(22.1184,-5.89824,5.89824,22.1184,160.949,124.796)"><stop offset="0" style="stop-color:#fc0;stop-opacity:1"/><stop offset="0.52" style="stop-color:#655101;stop-opacity:1"/><stop offset="0.67" style="stop-color:#fdeba4;stop-opacity:1"/><stop offset="1" style="stop-color:#ffce0d;stop-opacity:1"/></linearGradient>
        <linearGradient id="_Linear12" x1="0" y1="0" x2="1" y2="0" gradientUnits="userSpaceOnUse" gradientTransform="matrix(5.11648e-16,-8.35584,8.35584,5.11648e-16,154.931,129.878)"><stop offset="0" style="stop-color:#fc0;stop-opacity:1"/><stop offset="0.52" style="stop-color:#655101;stop-opacity:1"/><stop offset="0.67" style="stop-color:#fdeba4;stop-opacity:1"/><stop offset="1" style="stop-color:#ffce0d;stop-opacity:1"/></linearGradient>
        <linearGradient id="_Linear13" x1="0" y1="0" x2="1" y2="0" gradientUnits="userSpaceOnUse" gradientTransform="matrix(48.3328,-27.8528,27.8528,48.3328,127.592,147.117)"><stop offset="0" style="stop-color:#339;stop-opacity:1"/><stop offset="1" style="stop-color:#afb0e0;stop-opacity:1"/></linearGradient>
        <linearGradient id="_Linear14" x1="0" y1="0" x2="1" y2="0" gradientUnits="userSpaceOnUse" gradientTransform="matrix(7.70048,-2.12992,2.12992,7.70048,120.628,143.022)"><stop offset="0" style="stop-color:#339;stop-opacity:1"/><stop offset="1" style="stop-color:#afb0e0;stop-opacity:1"/></linearGradient>
        <linearGradient id="_Linear15" x1="0" y1="0" x2="1" y2="0" gradientUnits="userSpaceOnUse" gradientTransform="matrix(49.3158,-19.497,19.497,49.3158,126.626,141.347)"><stop offset="0" style="stop-color:#03c;stop-opacity:1"/><stop offset="1" style="stop-color:#afb0e0;stop-opacity:1"/></linearGradient>
        <linearGradient id="_Linear16" x1="0" y1="0" x2="1" y2="0" gradientUnits="userSpaceOnUse" gradientTransform="matrix(3.11296,-5.40672,5.40672,3.11296,120.232,139.88)"><stop offset="0" style="stop-color:#03c;stop-opacity:1"/><stop offset="1" style="stop-color:#afb0e0;stop-opacity:1"/></linearGradient>
        <linearGradient id="_Linear17" x1="0" y1="0" x2="1" y2="0" gradientUnits="userSpaceOnUse" gradientTransform="matrix(21.2992,-5.7344,5.7344,21.2992,127.229,133.954)"><stop offset="0" style="stop-color:#0cf;stop-opacity:1"/><stop offset="1" style="stop-color:#fff;stop-opacity:1"/></linearGradient>
        <linearGradient id="_Linear18" x1="0" y1="0" x2="1" y2="0" gradientUnits="userSpaceOnUse" gradientTransform="matrix(-62.2592,-12.7795,12.7795,-62.2592,232.032,143.628)"><stop offset="0" style="stop-color:#fc0;stop-opacity:1"/><stop offset="0.52" style="stop-color:#655101;stop-opacity:1"/><stop offset="0.67" style="stop-color:#fdeba4;stop-opacity:1"/><stop offset="1" style="stop-color:#ffce0d;stop-opacity:1"/></linearGradient>
        <radialGradient id="_Radial19" cx="0" cy="0" r="1" gradientUnits="userSpaceOnUse" gradientTransform="matrix(11.3869,0,0,11.3869,123.05,132.45)"><stop offset="0" style="stop-color:#fff;stop-opacity:1"/><stop offset="1" style="stop-color:#fff;stop-opacity:0"/></radialGradient>
        <radialGradient id="_Radial20" cx="0" cy="0" r="1" gradientUnits="userSpaceOnUse" gradientTransform="matrix(11.3869,0,0,11.3869,260.3,179.55)"><stop offset="0" style="stop-color:#fff;stop-opacity:1"/><stop offset="1" style="stop-color:#fff;stop-opacity:0"/></radialGradient>
        <radialGradient id="_Radial21" cx="0" cy="0" r="1" gradientUnits="userSpaceOnUse" gradientTransform="matrix(11.3869,0,0,11.3869,239.7,132.45)"><stop offset="0" style="stop-color:#fff;stop-opacity:1"/><stop offset="1" style="stop-color:#fff;stop-opacity:0"/></radialGradient>
        <radialGradient id="_Radial22" cx="0" cy="0" r="1" gradientUnits="userSpaceOnUse" gradientTransform="matrix(11.3869,0,0,11.3869,173.2,115.45)"><stop offset="0" style="stop-color:#fff;stop-opacity:1"/><stop offset="1" style="stop-color:#fff;stop-opacity:0"/></radialGradient>
        <radialGradient id="_Radial23" cx="0" cy="0" r="1" gradientUnits="userSpaceOnUse" gradientTransform="matrix(10.24,4.42368,-13.271,30.9658,180.1,168.7)"><stop offset="0" style="stop-color:#ffd83c;stop-opacity:0.38"/><stop offset="1" style="stop-color:#fff;stop-opacity:0"/></radialGradient>
        <radialGradient id="_Radial24" cx="0" cy="0" r="1" gradientUnits="userSpaceOnUse" gradientTransform="matrix(11.3869,0,0,11.3869,244.95,153.8)"><stop offset="0" style="stop-color:#fff;stop-opacity:1"/><stop offset="1" style="stop-color:#fff;stop-opacity:0"/></radialGradient>
        <radialGradient id="_Radial25" cx="0" cy="0" r="1" gradientUnits="userSpaceOnUse" gradientTransform="matrix(11.3869,0,0,11.3869,153.3,127.8)"><stop offset="0" style="stop-color:#fff;stop-opacity:1"/><stop offset="1" style="stop-color:#fff;stop-opacity:0"/></radialGradient>
        <radialGradient id="_Radial26" cx="0" cy="0" r="1" gradientUnits="userSpaceOnUse" gradientTransform="matrix(12.7795,0,0,26.5421,214.95,174.05)"><stop offset="0" style="stop-color:#ffd83c;stop-opacity:0.38"/><stop offset="1" style="stop-color:#fff;stop-opacity:0"/></radialGradient>
        <radialGradient id="_Radial27" cx="0" cy="0" r="1" gradientUnits="userSpaceOnUse" gradientTransform="matrix(6.06208,10.4858,-22.2822,12.8614,152.35,153.5)"><stop offset="0" style="stop-color:#ffd83c;stop-opacity:0.38"/><stop offset="1" style="stop-color:#fff;stop-opacity:0"/></radialGradient>
    </defs>
</svg>
