<?xml version="1.0" encoding="UTF-8"?>
<svg version="1.1" viewBox="0 0 63.75 44.657" xmlns="http://www.w3.org/2000/svg" xmlns:cc="http://creativecommons.org/ns#" xmlns:dc="http://purl.org/dc/elements/1.1/" xmlns:rdf="http://www.w3.org/1999/02/22-rdf-syntax-ns#" xmlns:xlink="http://www.w3.org/1999/xlink">
<metadata>
<rdf:RDF>
<cc:Work rdf:about="">
<dc:format>image/svg+xml</dc:format>
<dc:type rdf:resource="http://purl.org/dc/dcmitype/StillImage"/>
</cc:Work>
</rdf:RDF>
</metadata>
<g transform="translate(-243.07 -177.62)">
<use transform="translate(243.1,177.65)" width="63.700001" height="44.599998" xlink:href="#a"/>
</g>
<defs>
<g id="a" transform="translate(-243.1,-177.65)">
<path d="m248.6 179-0.8 0.9-4.05-1.6v0.7l16.9 5.9v0.85l4.75 2.1v0.75l0.1 0.05-0.1-0.05q0.05-0.05 0.1 0.05v0.3q-11.2-5.55-22.1-8.4-0.6-1.85 0-2.9l5.2 1.35m21.35 11.75 0.15-0.8 1.5 1v-0.8l6.4 3.25v-0.55l7.4 4.1 8.5 4.45-1.2 2.8q-11.05-7.75-22.8-13.1l0.05-0.35" fill="#960" fill-rule="evenodd"/>
<path d="m265.4 188.6v-0.75l-4.75-2.1v-0.85l-16.9-5.9v-0.7l4.05 1.6 0.8-0.9q-0.2 0.3 0.1 0.55 19.2 6.35 41.7 19.1l0.55 0.3 3.2 1.85-0.25 0.6-8.5-4.45-7.4-4.1v0.55l-6.4-3.25v0.8l-1.5-1-0.15 0.8-4.45-2.1q-0.05-0.1-0.1-0.05" fill="#b37800" fill-rule="evenodd"/>
<path d="m265.4 188.6v-0.75l-4.75-2.1v-0.85l-16.9-5.9v-0.7l4.05 1.6 0.8-0.9-5.2-1.35q-0.6 1.05 0 2.9 10.9 2.85 22.1 8.4v-0.3l-0.1-0.05q0.05-0.05 0.1 0.05l4.45 2.1 0.15-0.8 1.5 1v-0.8l6.4 3.25v-0.55l7.4 4.1 8.5 4.45 0.25-0.6-3.2-1.85-0.55-0.3q-22.5-12.75-41.7-19.1-0.3-0.25-0.1-0.55m21.35 11.75-0.05 0.35q11.75 5.35 22.8 13.1l1.2-2.8" fill="none" stroke="#000" stroke-linecap="round" stroke-linejoin="round" stroke-opacity=".41961" stroke-width=".05"/>
<path d="m297.75 206.5 2-0.8-2 0.8-5.35-4.25q4.3 1.6 7.35 3.45l2.25 1.55q3.85 2.95 4.8 6.5-2.95 1.7-8.85-3.65l-0.85-2.6-0.7 1.55q-2.2-2.35-4.15-6.15l12.9 9.5-6.1-4.85-1.3-1.05m4.25 0.75-2.95 0.3 2.95-0.3" fill="#ffe682" fill-rule="evenodd"/>
<path d="m297.75 206.5 1.3 1.05 6.1 4.85-12.9-9.5-4.6-3.75 4.75 3.1 5.35 4.25" fill="#fc3" fill-rule="evenodd"/>
<path d="m297.75 206.5 1.3 1.05 6.1 4.85-12.9-9.5-4.6-3.75 4.75 3.1 5.35 4.25m4.25 0.75-2.25-1.55q-3.05-1.85-7.35-3.45m-0.15 0.65q1.95 3.8 4.15 6.15l0.7-1.55 0.85 2.6q5.9 5.35 8.85 3.65-0.95-3.55-4.8-6.5" fill="none" stroke="#000" stroke-linecap="round" stroke-linejoin="round" stroke-opacity=".41961" stroke-width=".05"/>
<path d="m299.75 205.7-2 0.8m1.3 1.05 2.95-0.3" fill="none" stroke="#000" stroke-linecap="round" stroke-linejoin="round" stroke-opacity=".41961" stroke-width=".05"/>
<path d="m290.2 201.45 0.6 15.5-0.05-15.8q4.1 12.3 0 17.85-3.1-1.2-2.6-8.9l1.5-2.25-1.65 0.45q0.55-3.1 2.2-6.85" fill="#ffe682" fill-rule="evenodd"/>
<path d="m290.2 201.45 0.05-5.8 0.5 5.5 0.05 15.8-0.6-15.5" fill="#fc3" fill-rule="evenodd"/>
<path d="m290.75 201.15-0.5-5.5-0.05 5.8 0.6 15.5-0.05-15.8q4.1 12.3 0 17.85-3.1-1.2-2.6-8.9l1.5-2.25-1.65 0.45q0.55-3.1 2.2-6.85" fill="none" stroke="#000" stroke-linecap="round" stroke-linejoin="round" stroke-opacity=".41961" stroke-width=".05"/>
<path d="m290.7 198.7q0.1-0.9-1.05-1.15-2.85 1.35-1.75 3.8 0.3 1.2 1.15 1-1.5-2.9 1.65-3.65" fill="#900" fill-rule="evenodd"/>
<path d="m289.9 201.05-9.05 5.75 9.45-5.5q-6 6.75-10.7 6.25-0.45-2.3 4.4-4.75l1.85 0.15-0.8-0.8q2.05-0.8 4.85-1.1" fill="#ffe682" fill-rule="evenodd"/>
<path d="m289.9 201.05 3.5-1.95-3.1 2.2-9.45 5.5 9.05-5.75" fill="#fc3" fill-rule="evenodd"/>
<path d="m290.3 201.3 3.1-2.2-3.5 1.95-9.05 5.75 9.45-5.5q-6 6.75-10.7 6.25-0.45-2.3 4.4-4.75l1.85 0.15-0.8-0.8q2.05-0.8 4.85-1.1" fill="none" stroke="#000" stroke-linecap="round" stroke-linejoin="round" stroke-opacity=".41961" stroke-width=".05"/>
<path d="m296.7 212.75 3.55 6.9-9.2-19.65q12.35 13.05 10.4 22.25-2.65 0.15-5.05-3l0.3-6.5-0.3 6.5-1.6-2.55-1.85-4.05 0.6-3.65-1.8 1.45-0.35-1.4 1.6-3.55-1.6 3.55q-0.85-3.65-0.9-8.35l2.5 4.8 1.05 2.1 1.8 3.45 0.85 1.7m-2.65-5.15-0.5 1.4 0.5-1.4m1.8 3.45-1.05 5.65 1.05-5.65" fill="#ffe682" fill-rule="evenodd"/>
<path d="m291.05 200 9.2 19.65-3.55-6.9-0.85-1.7-1.8-3.45-1.05-2.1-2.5-4.8-3.3-7.25 3.85 6.55" fill="#fc3" fill-rule="evenodd"/>
<path d="m291.05 200 9.2 19.65-3.55-6.9m-0.3 6.5q2.4 3.15 5.05 3 1.95-9.2-10.4-22.25l-3.85-6.55 3.3 7.25 2.5 4.8 1.05 2.1 1.8 3.45 0.85 1.7m-5.3-3.7 0.35 1.4 1.8-1.45-0.6 3.65 1.85 4.05 1.6 2.55m-5.9-18.55q0.05 4.7 0.9 8.35" fill="none" stroke="#000" stroke-linecap="round" stroke-linejoin="round" stroke-opacity=".41961" stroke-width=".05"/>
<path d="m296.7 212.75-0.3 6.5m-3.4-13.75-1.6 3.55m2.15-0.05 0.5-1.4m0.75 9.1 1.05-5.65" fill="none" stroke="#000" stroke-linecap="round" stroke-linejoin="round" stroke-opacity=".41961" stroke-width=".05"/>
<path d="m290.3 203.05q-0.8 0.45-1.45-0.6 0.3-3.35 3-3.15 1.2-0.1 1.35 0.8-3.25-0.4-2.9 2.95" fill="#900" fill-rule="evenodd"/>
</g>
</defs>
</svg>
