<?xml version="1.0" encoding="UTF-8"?>
<svg version="1.1" viewBox="0 0 311.96 386.76" xmlns="http://www.w3.org/2000/svg" xmlns:cc="http://creativecommons.org/ns#" xmlns:dc="http://purl.org/dc/elements/1.1/" xmlns:rdf="http://www.w3.org/1999/02/22-rdf-syntax-ns#" xmlns:xlink="http://www.w3.org/1999/xlink">
<metadata>
<rdf:RDF>
<cc:Work rdf:about="">
<dc:format>image/svg+xml</dc:format>
<dc:type rdf:resource="http://purl.org/dc/dcmitype/StillImage"/>
</cc:Work>
</rdf:RDF>
</metadata>
<g transform="translate(-163.79 -245.19)">
<use transform="matrix(1.0692 .6173 -.6696 1.1597 299.29 139.3)" width="197.3" height="368.54999" xlink:href="#o"/>
</g>
<defs>
<g id="o" transform="translate(44.35,159.15)">
<use transform="translate(19,-4.1)" width="13" height="4.25" xlink:href="#aj"/>
<use transform="translate(10.75 -.85)" width="18.25" height="48.450001" xlink:href="#n"/>
<use transform="matrix(.8774 .1352 -.1352 .8774 117.5 -139.44)" width="25.799999" height="26.6" xlink:href="#d"/>
<use transform="matrix(.9436 -.5448 .5989 .7832 89.44 -140.98)" width="25.799999" height="26.6" xlink:href="#d"/>
<use transform="matrix(.2033 .7586 -.7586 .2033 137.49 -116.84)" width="25.799999" height="26.6" xlink:href="#d"/>
<use transform="translate(6.05,26.95)" width="11.55" height="3.05" xlink:href="#c"/>
<use transform="matrix(.6952 0 0 1.8 21.802 18.35)" width="11.55" height="3.05" xlink:href="#c"/>
<use transform="matrix(1,0,0,1.8,17.5,14.9)" width="11.55" height="3.05" xlink:href="#c"/>
<use transform="matrix(1,0,0,5.67,19,28.815)" width="11.55" height="3.05" xlink:href="#c"/>
<use transform="matrix(.5241 .8499 -.9073 .5595 108.67 -159.13)" width="78.650002" height="78.699997" xlink:href="#a"/>
<use transform="matrix(.7999 .5983 -.5983 .7999 45.174 -127.88)" width="78.650002" height="78.699997" xlink:href="#a"/>
<use transform="matrix(.9659 .2588 -.2588 .9659 1.0602 -79.042)" width="78.650002" height="78.699997" xlink:href="#a"/>
<use transform="matrix(.5241 -.8499 -.9073 -.5595 111.72 209.38)" width="78.650002" height="78.699997" xlink:href="#a"/>
<use transform="matrix(.7999 -.5983 -.5983 -.7999 48.224 178.13)" width="78.650002" height="78.699997" xlink:href="#a"/>
<use transform="matrix(.9659 -.2588 -.2588 -.9659 4.1102 129.29)" width="78.650002" height="78.699997" xlink:href="#a"/>
<use transform="matrix(.8882 0 0 .8882 -44.344 -36.185)" width="128.45" height="50.700001" xlink:href="#e"/>
<use transform="matrix(.8882 0 0 -.8882 -44.344 83.685)" width="128.45" height="50.700001" xlink:href="#e"/>
<use transform="translate(-18.6,-18.3)" width="72.400002" height="72.099998" xlink:href="#f"/>
<use transform="matrix(.5026 0 0 .5026 11.8 -4.7)" width="82.5" height="80" xlink:href="#l"/>
<use transform="translate(32.9,-108.5)" width="82.5" height="256.54999" xlink:href="#aa"/>
<use transform="matrix(.5462 0 0 .5 14.073 13.95)" width="35.400002" height="36.900002" xlink:href="#k"/>
</g>
<g id="aj" transform="translate(-19,4.1)">
<path d="m31.5-0.35h-0.75v-0.7m-11.25-2.55v3.25" fill="none" stroke="#000" stroke-linecap="round" stroke-linejoin="round" stroke-opacity=".10196"/>
</g>
<g id="n" transform="translate(.55 .5)">
<use transform="translate(-.55 -.5)" width="18.25" height="48.450001" xlink:href="#ai"/>
</g>
<g id="ai" transform="translate(.55 .5)">
<path d="m3.55 47q-7.15-23.5 0-47h13.65q-6 23.75 0 47.45h-13.05l-0.6-0.45" fill="#52828a" fill-rule="evenodd"/>
<path d="m4.15 47.45h13.05q-6-23.7 0-47.45h-13.65q-7.15 23.5 0 47" fill="none" stroke="#000" stroke-linecap="round" stroke-linejoin="round" stroke-opacity=".10196"/>
</g>
<g id="d" transform="translate(-33.9,65.45)">
<use transform="translate(35.35,-59.8)" width="24.25" height="20.950001" xlink:href="#x"/>
<use transform="matrix(.3914 -.1049 .0684 .2554 33.925 -59.564)" width="56" height="56" xlink:href="#b"/>
<use transform="translate(40.35,-58.65)" width="12.4" height="4.5999999" xlink:href="#u"/>
</g>
<g id="x" transform="translate(-35.35,59.8)">
<path d="m58.4-58.95q4.05 3.15-15.7 15.15l-6.2 3.75-0.55 0.3v-0.3l-0.05-0.75q-0.75-11.35 6.9-15.6 7.8-3.9 15.6-2.55m-21.9 18.9 0.05-0.05-0.05 0.05m0.05-0.05 15.95-14.7q-4.65-2.7-12.35 3.65l-4.25 10.35 0.65 0.7" fill="#d9d9d9" fill-rule="evenodd"/>
<path d="m36.55-40.1-0.65-0.7 4.25-10.35q7.7-6.35 12.35-3.65l-15.95 14.7" fill="url(#aw)" fill-rule="evenodd"/>
<path d="m58.4-58.95q4.05 3.15-15.7 15.15l-6.2 3.75-0.55 0.3v-0.3l-0.05-0.75q-0.75-11.35 6.9-15.6 7.8-3.9 15.6-2.55m-21.85 18.85-0.05 0.05" fill="none" stroke="#000" stroke-linecap="round" stroke-linejoin="round" stroke-opacity=".10196"/>
<path d="m53.75-51.2 0.7-0.45q-19.75 19.8-18.7 8.95v-3.55q10.5-6.75 18-4.95" fill="#9ecae3" fill-opacity=".4" fill-rule="evenodd"/>
</g>
<linearGradient id="aw" x1="-819.2" x2="819.2" gradientTransform="matrix(.0101 0 0 .009 44.2 -47.45)" gradientUnits="userSpaceOnUse">
<stop stop-color="#d9d9d9" offset="0"/>
<stop stop-color="#fffce3" offset="1"/>
</linearGradient>
<g id="b" transform="translate(28,28)">
<use transform="translate(-28,-28)" width="56" height="56" xlink:href="#v"/>
</g>
<g id="v" transform="translate(28,28)">
<path d="m19.8-19.8q8.2 8.2 8.2 19.8t-8.2 19.8-19.8 8.2-19.8-8.2-8.2-19.8 8.2-19.8 19.8-8.2 19.8 8.2" fill="url(#av)" fill-rule="evenodd"/>
</g>
<radialGradient id="av" cx="0" cy="0" r="819.2" gradientTransform="scale(.0349)" gradientUnits="userSpaceOnUse">
<stop stop-color="#ffee69" stop-opacity=".8" offset="0"/>
<stop stop-color="#fef18a" stop-opacity="0" offset="1"/>
</radialGradient>
<g id="u" transform="translate(-40.35,58.65)">
<path d="m46.1-57.95 4.5-0.7q1.95 0 2.15 0.65 0.15 0.7-1.55 1.6-1.65 0.95-4.25 1.65-2.55 0.7-4.5 0.7-1.9 0-2.1-0.7-0.15-0.65 1.5-1.6 1.7-0.9 4.25-1.6" fill="#fff" fill-rule="evenodd"/>
</g>
<g id="c" transform="translate(.5 .5)">
<use transform="translate(-.5 -.5)" width="11.55" height="3.05" xlink:href="#t"/>
</g>
<g id="t" transform="translate(.5 .5)">
<path d="m0 2.05v-0.7l7.95-1.35 2.6 2.05h-10.55" fill="#fefefe" fill-rule="evenodd"/>
<path d="M 0,1.35 7.95,0 10.55,2.05 H 0" fill="none" stroke="#c4c4c4" stroke-linecap="round" stroke-linejoin="round" stroke-opacity=".10196"/>
</g>
<g id="a" transform="translate(24.85,11.45)">
<clipPath id="ax" transform="translate(24.85 11.45)">
<use transform="translate(-24.85,-11.45)" width="78.650002" height="78.699997" xlink:href="#s"/>
</clipPath>
<g clip-path="url(#ax)">
<use transform="matrix(.4983 0 0 .4983 -6.5278 -6.3783)" width="72.400002" height="72.099998" xlink:href="#f"/>
<use transform="translate(2,4.4)" width="26.450001" height="56.150002" xlink:href="#ah"/>
<use transform="matrix(.1748 .1009 -.248 .4296 6.7995 -6.9032)" width="56" height="56" xlink:href="#b"/>
<use transform="matrix(.0556 -.0057 .0504 .4927 9.8306 26.865)" width="56" height="56" xlink:href="#b"/>
<use transform="translate(15.05,25.6)" width="9" height="25.5" xlink:href="#ag"/>
</g>
</g>
<g id="s" transform="translate(24.85,11.45)">
<path d="m14.55 21.15q2.7 0 4.6-1.9t1.9-4.6-1.9-4.6-4.6-1.9-4.6 1.9-1.9 4.6 1.9 4.6 4.6 1.9m3.85 45.6-42.75-24.7 34.9-53 42.75 24.7-34.9 53" fill="#a5dee1" fill-rule="evenodd"/>
<path d="m18.4 66.75-42.75-24.7 34.9-53 42.75 24.7-34.9 53" fill="none" stroke="#0c4548" stroke-linecap="round" stroke-linejoin="round" stroke-opacity=".10196"/>
<path d="m14.55 21.15q-2.7 0-4.6-1.9t-1.9-4.6 1.9-4.6 4.6-1.9 4.6 1.9 1.9 4.6-1.9 4.6-4.6 1.9" fill="none" stroke="#0c4548" stroke-linecap="round" stroke-linejoin="round" stroke-opacity=".15294"/>
</g>
<g id="f" transform="translate(13.1,12.8)">
<use transform="translate(-.5 -.5)" width="59.799999" height="59.799999" xlink:href="#r"/>
<use transform="matrix(.3392 .4488 -.7041 .5321 26.316 -12.816)" width="56" height="56" xlink:href="#h"/>
<use transform="translate(23.85,1.2)" width="27.75" height="11.45" xlink:href="#p"/>
</g>
<g id="r" transform="translate(.5 .5)">
<path d="m48.25 29.4q0-7.8-5.55-13.35-5.5-5.55-13.3-5.55t-13.35 5.55-5.55 13.35 5.55 13.3q5.55 5.55 13.35 5.55t13.3-5.55q5.55-5.5 5.55-13.3m-41.8 18.4q-6.45-7.85-6.45-18.4 0-12.2 8.6-20.8t20.8-8.6 20.8 8.6l0.7 0.75q6.35 14.8 0.85 29.6-6.4 11.7-17 13.4-17.75 5.05-28.3-4.55" fill="#6bbfd0" fill-rule="evenodd"/>
<path d="m48.25 29.4q0 7.8-5.55 13.3-5.5 5.55-13.3 5.55t-13.35-5.55q-5.55-5.5-5.55-13.3t5.55-13.35 13.35-5.55 13.3 5.55q5.55 5.55 5.55 13.35" fill="url(#ar)" fill-rule="evenodd"/>
<path d="m50.9 9.35q7.9 8.35 7.9 20.05 0 12.2-8.6 20.8t-20.8 8.6-20.8-8.6l-2.15-2.4q10.55 9.6 28.3 4.55 10.6-1.7 17-13.4 5.5-14.8-0.85-29.6" fill="#5db9bc" fill-rule="evenodd"/>
<path d="m50.9 9.35q7.9 8.35 7.9 20.05 0 12.2-8.6 20.8t-20.8 8.6-20.8-8.6l-2.15-2.4q-6.45-7.85-6.45-18.4 0-12.2 8.6-20.8t20.8-8.6 20.8 8.6z" fill="none" stroke="#629382" stroke-linecap="round" stroke-linejoin="round" stroke-opacity=".2"/>
<path d="m4.25 27.05 0.5-0.8q0.25-12 11-18.7 10.05-4.4 11.75 4.75-0.65 8.25-23.25 14.75" fill="#a5dee1" fill-rule="evenodd"/>
<path d="m4.25 27.05 0.5-0.8q0.25-12 11-18.7 10.05-4.4 11.75 4.75-0.65 8.25-23.25 14.75z" fill="none" stroke="#629282" stroke-linecap="round" stroke-linejoin="round" stroke-opacity=".10196"/>
<path d="m42.45 21.9-0.3 0.7-0.7 0.3q-0.4 0-0.7-0.3t-0.3-0.7 0.3-0.7 0.7-0.3 0.7 0.3l0.3 0.7m1.55 3.95 0.3 0.7-0.3 0.7-0.7 0.3-0.7-0.3q-0.3-0.3-0.3-0.7t0.3-0.7 0.7-0.3 0.7 0.3m0.1 5 0.3 0.7-0.3 0.7-0.7 0.3q-0.4 0-0.7-0.3t-0.3-0.7 0.3-0.7 0.7-0.3 0.7 0.3m-2.9 4.65q0.3-0.3 0.7-0.3t0.7 0.3l0.3 0.7-0.3 0.7-0.7 0.3q-0.4 0-0.7-0.3t-0.3-0.7 0.3-0.7m-11.4-20.95 0.3 0.7-0.3 0.7q-0.3 0.3-0.7 0.3l-0.7-0.3-0.3-0.7q0-0.4 0.3-0.7t0.7-0.3 0.7 0.3m-6.25 0.95q0.3-0.3 0.7-0.3t0.7 0.3l0.3 0.7-0.3 0.7-0.7 0.3q-0.4 0-0.7-0.3t-0.3-0.7 0.3-0.7m-2.75 3.95q-0.3 0.3-0.7 0.3l-0.7-0.3q-0.3-0.3-0.3-0.7t0.3-0.7 0.7-0.3 0.7 0.3l0.3 0.7-0.3 0.7m16.8-1.8q0.3-0.3 0.7-0.3t0.7 0.3l0.3 0.7-0.3 0.7-0.7 0.3q-0.4 0-0.7-0.3t-0.3-0.7 0.3-0.7m-4.3-2.4q0.3-0.3 0.7-0.3t0.7 0.3l0.3 0.7-0.3 0.7q-0.3 0.3-0.7 0.3l-0.7-0.3q-0.3-0.3-0.3-0.7t0.3-0.7m-17.1 6.75q0.3-0.3 0.7-0.3t0.7 0.3l0.3 0.7-0.3 0.7-0.7 0.3q-0.4 0-0.7-0.3t-0.3-0.7 0.3-0.7m0.15 5.4-0.3 0.7-0.7 0.3q-0.4 0-0.7-0.3t-0.3-0.7 0.3-0.7 0.7-0.3l0.7 0.3 0.3 0.7m-1.5 4.4q0.3-0.3 0.7-0.3t0.7 0.3l0.3 0.7-0.3 0.7-0.7 0.3-0.7-0.3q-0.3-0.3-0.3-0.7t0.3-0.7m2.65 4.35q0.4 0 0.7 0.3l0.3 0.7-0.3 0.7-0.7 0.3q-0.4 0-0.7-0.3t-0.3-0.7 0.3-0.7 0.7-0.3m2.6 3.8q0.3-0.3 0.7-0.3t0.7 0.3l0.3 0.7-0.3 0.7-0.7 0.3-0.7-0.3q-0.3-0.3-0.3-0.7t0.3-0.7m6.1 3-0.3 0.7-0.7 0.3-0.7-0.3q-0.3-0.3-0.3-0.7t0.3-0.7 0.7-0.3 0.7 0.3l0.3 0.7m3.9-0.1 0.3 0.7-0.3 0.7-0.7 0.3-0.7-0.3q-0.3-0.3-0.3-0.7t0.3-0.7 0.7-0.3 0.7 0.3m7.7-3.25q0.3-0.3 0.7-0.3t0.7 0.3l0.3 0.7-0.3 0.7-0.7 0.3q-0.4 0-0.7-0.3t-0.3-0.7 0.3-0.7m-2.8 2.45 0.3 0.7-0.3 0.7-0.7 0.3q-0.4 0-0.7-0.3t-0.3-0.7 0.3-0.7 0.7-0.3 0.7 0.3" fill="#498285" fill-opacity=".6" fill-rule="evenodd"/>
<path d="m47.05 20.25q1.3-0.8 3.1-0.8t3.1 0.8q1.3 0.75 1.3 1.85t-1.3 1.9q-1.3 0.75-3.1 0.75t-3.1-0.75q-1.3-0.8-1.3-1.9t1.3-1.85m3.2-2.75q-1.05 0.75-2.5 0.75t-2.45-0.75q-1.05-0.75-1.05-1.85t1.05-1.85q1-0.75 2.45-0.75t2.5 0.75q1 0.75 1 1.85t-1 1.85" fill="#65b0b0" fill-opacity=".50196" fill-rule="evenodd"/>
</g>
<radialGradient id="ar" cx="0" cy="0" r="819.2" gradientTransform="matrix(.0341 0 0 .0341 23.75 21.25)" gradientUnits="userSpaceOnUse">
<stop stop-color="#8ed1d9" offset="0"/>
<stop stop-color="#71c8d9" offset="1"/>
</radialGradient>
<g id="h" transform="translate(28,28)">
<use transform="translate(-28,-28)" width="56" height="56" xlink:href="#q"/>
</g>
<g id="q" transform="translate(28,28)">
<path d="m19.8-19.8q8.2 8.2 8.2 19.8t-8.2 19.8-19.8 8.2-19.8-8.2-8.2-19.8 8.2-19.8 19.8-8.2 19.8 8.2" fill="url(#aq)" fill-rule="evenodd"/>
</g>
<radialGradient id="aq" cx="0" cy="0" r="819.2" gradientTransform="scale(.0349)" gradientUnits="userSpaceOnUse">
<stop stop-color="#a5dee1" stop-opacity=".8" offset="0"/>
<stop stop-color="#a4d59b" stop-opacity="0" offset="1"/>
</radialGradient>
<g id="p" transform="translate(-23.85,-1.2)">
<path d="m27.5 3.95q-10.65-3.75 9.95-2.35 10.3 3.95 14.15 11.05-9.25-9.3-24.05-8.25l-0.05-0.45" fill="url(#ap)" fill-rule="evenodd"/>
</g>
<linearGradient id="ap" x1="-819.2" x2="819.2" gradientTransform="matrix(.015 0 0 .0063 39.75 7.8)" gradientUnits="userSpaceOnUse">
<stop stop-color="#8aced0" offset="0"/>
<stop stop-color="#a5dcd0" offset="1"/>
</linearGradient>
<g id="ah" transform="translate(-2,-4.4)">
<path d="m17.35 51.05h-0.35l0.35-0.05v0.05" fill="#6bbfd0" fill-rule="evenodd"/>
<path d="m2.5 22.9q13.45 10.9 24.25 0-8.4 13.1-9.4 28.1l-0.35 0.05h0.35l0.05-0.05 4.25 1.7q0.8 6.85-7.25 7.35-7.05-0.65-7.15-7.5l4.6-1.65q0.5-15.55-9.35-28" fill="url(#ao)" fill-rule="evenodd"/>
<path d="m2.5 22.9q9.85 12.45 9.35 28l-4.6 1.65q0.1 6.85 7.15 7.5 8.05-0.5 7.25-7.35l-4.25-1.7h-0.05q1-15 9.4-28.1m-9.4 28.15h-0.35l0.35-0.05v0.05" fill="none" stroke="#0c4548" stroke-linecap="round" stroke-linejoin="round" stroke-opacity=".15294"/>
<path d="m5.85 26.8q5.5 1.65 6.5 10.2l1.4 12.45q-2.4-12.9-7.9-22.65" fill="#a5dee1" fill-opacity=".6" fill-rule="evenodd"/>
<path d="m28.45 15.75q-0.4 4.55-5.25 11.5 4.65-11.4 0.9-22.85 4 4.55 4.35 11.35" fill="#2e7e8b" fill-opacity=".4" fill-rule="evenodd"/>
</g>
<linearGradient id="ao" x1="-819.2" x2="819.2" gradientTransform="matrix(0 -.0148 .0227 0 14.6 41.45)" gradientUnits="userSpaceOnUse">
<stop stop-color="#6bbfd0" offset="0"/>
<stop stop-color="#88ced0" offset="1"/>
</linearGradient>
<g id="ag" transform="translate(-15.05,-25.6)">
<path d="m16.15 50q1.05-12.35 6.8-23.3" fill="none" stroke="#52a4b4" stroke-linecap="round" stroke-linejoin="round" stroke-opacity=".46274" stroke-width="2.2"/>
</g>
<g id="e" transform="translate(16.15,5.95)">
<use transform="translate(-10.15 -.5)" width="122.45" height="39.549999" xlink:href="#af"/>
<use transform="matrix(.5219 -.1398 .0912 .3405 71.983 1.8821)" width="56" height="56" xlink:href="#b"/>
<use transform="matrix(.8872 -.0833 .0636 .2373 -16.173 31.438)" width="56" height="56" xlink:href="#b"/>
<use transform="translate(25.6 -.8)" width="71.900002" height="29.75" xlink:href="#ae"/>
<use transform="translate(47.8,11.65)" width="30.450001" height="14.85" xlink:href="#g"/>
</g>
<g id="af" transform="translate(10.15 .5)">
<path d="m104.4 33.15-0.25 0.2q-1.85 1.35-3.9 2.2l-3.25 0.95-0.4 0.05-3.2 0.25-3.15-0.25q-1.9-0.3-3.65-1-2.1-0.85-3.95-2.2l-1.8-1.5-1.15-1.15 1.4 0.45q-2.4-6.95 3.85-13 6.55-3.1 11.95 1.95l0.1 1.55q0 4.3-3.05 7.35-1.55 1.55-3.45 2.3l-1.8 0.55h-0.25l-1.8 0.15-1.75-0.15 1.75 0.15 1.8-0.15h0.25l1.8-0.55q1.9-0.75 3.45-2.3 3.05-3.05 3.05-7.35l-0.1-1.55q-0.5-3.3-2.95-5.75-3.05-3-7.3-3-3.6 0-6.3 2.15-3.3 1.35-8.35 3.75 0.3-1.65 1.75-3.85 0.6-0.9-0.8-2.35l0.5-0.3q10.95-6.55 22.4-4.1 9.35 5.55 8.55 16v10.5m-28-9.65 0.25 2.2-0.05-0.15-0.2-0.05q-0.35-0.85 0-2" fill-opacity=".15294" fill-rule="evenodd"/>
<path d="m86.6 36.55h-86.6q49.15-10.35 72.5-25.2l0.45-0.3q1.4 1.45 0.8 2.35-1.45 2.2-1.75 3.85l-42.8 16.05q45.3-0.75 53.15 0.1 2.1 1.7 4.25 2.15v1m-6.9-5.85 0.2 0.25 0.05 0.05-0.25-0.05v-0.25" fill="#d9d9d9" fill-rule="evenodd"/>
<path d="m80.35 13.5-1 0.85-0.3 0.35q-1.4 1.55-2.1 3.35-0.65 1.7-0.65 3.6l0.1 1.85q-0.35 1.15 0 2l0.2 0.05 0.05 0.15 0.1 0.25 2.95 4.75v0.25l0.25 0.05 2.4 2.4q-7.85-0.85-53.15-0.1l42.8-16.05q5.05-2.4 8.35-3.75" fill="url(#an)" fill-rule="evenodd"/>
<path d="m73.45 10.75q4.45-2.95 7.85-6.35 1.1-1.1 2.45-1.9 3.95-2.5 9.65-2.5 7.6 0 13 5.4t5.4 13-5.4 13l-2 1.75v-10.5q0.8-10.45-8.55-16-11.45-2.45-22.4 4.1" fill="url(#am)" fill-rule="evenodd"/>
<path d="m80.35 13.5q2.7-2.15 6.3-2.15 4.25 0 7.3 3 2.45 2.45 2.95 5.75-5.4-5.05-11.95-1.95-6.25 6.05-3.85 13l-1.4-0.45-2.95-4.75-0.1-0.25-0.25-2.2-0.1-1.85q0-1.9 0.65-3.6 0.7-1.8 2.1-3.35l0.3-0.35 1-0.85" fill="url(#al)" fill-rule="evenodd"/>
<path d="m73.45 10.75q4.45-2.95 7.85-6.35 1.1-1.1 2.45-1.9 3.95-2.5 9.65-2.5 7.6 0 13 5.4t5.4 13-5.4 13l-2 1.75m-0.25 0.2q-1.85 1.35-3.9 2.2l-3.25 0.95-0.4 0.05-3.2 0.25-3.15-0.25h-90.25q49.15-10.35 72.5-25.2l0.45-0.3 0.5-0.3m23.45 9.35 0.1 1.55q0 4.3-3.05 7.35-1.55 1.55-3.45 2.3l-1.8 0.55h-0.25l-1.8 0.15-1.75-0.15m12-11.75q-0.5-3.3-2.95-5.75-3.05-3-7.3-3-3.6 0-6.3 2.15l-1 0.85-0.3 0.35q-1.4 1.55-2.1 3.35-0.65 1.7-0.65 3.6l0.1 1.85 0.25 2.2m0.1 0.25 2.95 4.75 0.2 0.25 2.45 2.45m4.25 2.15q-2.15-0.45-4.25-2.15m7.9 3.15q-1.9-0.3-3.65-1" fill="none" stroke="#000" stroke-linecap="round" stroke-linejoin="round" stroke-opacity=".15294"/>
<path d="m104.4 33.15-0.25 0.2" fill="none" stroke="#000" stroke-linecap="round" stroke-linejoin="round" stroke-opacity=".15294" stroke-width="2"/>
<path d="m55.9 37.25-58.55 1.3q-13.25-0.55-1.45-3l37.15-7.15 6.55-1.3q-39.45 8.95 16.3 10.15" fill="#9ecae3" fill-opacity=".4" fill-rule="evenodd"/>
<path d="m39.6 27.1-6.55 1.3-37.15 7.15q-11.8 2.45 1.45 3l58.55-1.3m-22.85-8.85-0.55-0.75" fill="none" stroke="#000" stroke-linecap="round" stroke-linejoin="round" stroke-opacity=".05098"/>
</g>
<linearGradient id="an" x1="-819.2" x2="819.2" gradientTransform="matrix(.0308 0 0 .0098 59.4 25.9)" gradientUnits="userSpaceOnUse">
<stop stop-color="#d9d9d9" offset="0"/>
<stop stop-color="#fffce3" offset="1"/>
</linearGradient>
<linearGradient id="am" x1="-819.2" x2="819.2" gradientTransform="matrix(-.0166 -.0166 .0143 -.0143 92.55 16.65)" gradientUnits="userSpaceOnUse">
<stop stop-color="#d9d9d9" offset="0"/>
<stop stop-color="#fffce3" offset="1"/>
</linearGradient>
<linearGradient id="al" x1="-819.2" x2="819.2" gradientTransform="matrix(-.0089 -.0089 .0085 -.0085 86.6 21.25)" gradientUnits="userSpaceOnUse">
<stop stop-color="#d9d9d9" offset="0"/>
<stop stop-color="#fffce3" offset="1"/>
</linearGradient>
<g id="ae" transform="translate(-25.6 .8)">
<path d="m95.4 2.3q-2.25 1.3-5.75 2.25l-6.1 0.9q-2.6 0.05-2.85-0.9-0.25-0.9 2.05-2.2 2.3-1.25 5.75-2.15 3.5-0.95 6.1-1 2.65 0 2.9 0.9 0.25 0.95-2.1 2.2m-10 13.5q-0.55 0.55-1.35 0.55-0.75 0-1.35-0.55-0.55-0.5-0.55-1.25 0-0.7 0.55-1.25 0.6-0.5 1.35-0.5 0.8 0 1.35 0.5 0.6 0.55 0.6 1.3 0 0.7-0.6 1.2" fill="#fff" fill-rule="evenodd"/>
<path d="m55 28.45h23.65m-1.8-3.9q-0.25-8.2 6.05-11.8" fill="none" stroke="#fff" stroke-linecap="round" stroke-linejoin="round" stroke-opacity=".4"/>
<path d="m28.5 14.25q5.45 0.2 21.35 5.65l4.75 0.35-8.65 3.85-0.2 0.05-9.3-1.05q-11.35-4.3-10.8-7.8 0.2-1.15 2.85-1.05" fill="#d9d9d9" fill-rule="evenodd"/>
<path d="m28.5 14.25q5-0.25 22.2 5.65l4.75 0.35" fill="none" stroke="#000" stroke-linecap="round" stroke-linejoin="round" stroke-opacity=".15294"/>
</g>
<g id="g" transform="translate(.5)">
<use transform="matrix(.828 -.4277 .1508 .2294 5.5575 12.212)" width="28" height="8" xlink:href="#m"/>
<use transform="translate(-.5)" width="27.4" height="14.85" xlink:href="#ac"/>
</g>
<g id="m" transform="translate(0 -.05)">
<use transform="translate(0 .05)" width="28" height="8" xlink:href="#ad"/>
</g>
<g id="ad" transform="translate(0 -.05)">
<path d="m28 8.05h-28v-8h28v8" fill="url(#ak)" fill-rule="evenodd"/>
</g>
<linearGradient id="ak" x1="-819.2" x2="819.2" gradientTransform="matrix(.0171 0 0 .0049 14 4.05)" gradientUnits="userSpaceOnUse">
<stop stop-color="#464a23" stop-opacity=".6" offset="0"/>
<stop stop-color="#444a22" stop-opacity="0" offset="1"/>
</linearGradient>
<g id="ac" transform="translate(.5)">
<path d="m24.2 3.65-2.35 2.05-0.1 0.05-0.25 0.25-1.1 0.7q-22.7 14.45-20.15 1.6 0.75-5.3 2.5-6.45 1.7-1.1 4.15-1 2.4 0.1 6.8 3.35 2.7 0.45 3.85-0.85l0.4-0.3q13.9-6.4 6.25 0.6m-19.4 1.35q0-1.1-0.55-1.9-0.5-0.75-1.25-0.75t-1.3 0.75q-0.5 0.8-0.5 1.9t0.5 1.85q0.55 0.8 1.3 0.8t1.25-0.8q0.55-0.75 0.55-1.85" fill="#d9d9d9" fill-opacity=".6" fill-rule="evenodd"/>
<path d="m4.8 5q0 1.1-0.55 1.85-0.5 0.8-1.25 0.8t-1.3-0.8q-0.5-0.75-0.5-1.85t0.5-1.9q0.55-0.75 1.3-0.75t1.25 0.75q0.55 0.8 0.55 1.9" fill="#fff" fill-rule="evenodd"/>
<path d="m21.75 5.75 0.1-0.05 2.35-2.05m-6.65-0.3q-1.15 1.3-3.85 0.85-4.4-3.25-6.8-3.35-2.45-0.1-4.15 1-1.75 1.15-2.5 6.45-2.55 12.85 20.15-1.6l1.1-0.7" fill="none" stroke="#000" stroke-linecap="round" stroke-linejoin="round" stroke-opacity=".10196"/>
</g>
<g id="l">
<use width="82.5" height="80" xlink:href="#ab"/>
</g>
<g id="ab">
<path d="M 82.5,40 Q 82.5,56.55 70.35,68.25 58.35,80 41.25,80 24.1,80 12,68.25 0,56.55 0,40 0,23.45 12,11.7 24.1,0 41.25,0 58.35,0 70.35,11.7 82.5,23.45 82.5,40" fill="url(#au)" fill-rule="evenodd"/>
</g>
<radialGradient id="au" cx="0" cy="0" r="819.2" gradientTransform="matrix(.0461 0 0 .0499 41.25 40)" gradientUnits="userSpaceOnUse">
<stop stop-color="#91c1d7" offset="0"/>
<stop stop-color="#a0e9b6" stop-opacity="0" offset="1"/>
</radialGradient>
<g id="aa" transform="translate(-32.9,108.5)">
<path d="m38.2-19-4.45 3.5-0.1 0.05-0.25 0.25 0.25-0.25" fill="none" stroke="#000" stroke-linecap="round" stroke-linejoin="round" stroke-opacity=".10196"/>
<path d="m109.3-107q8.2 2.1 1.75 9.7m-8.15-7.75q-6.9 6 0.75 9.15" fill="none" stroke="#5e7173" stroke-linecap="round" stroke-linejoin="round" stroke-opacity=".66274" stroke-width="3"/>
<path d="m108.25-95.7 1 242.65" fill="none" stroke="url(#at)" stroke-linecap="round" stroke-linejoin="round" stroke-width="2.2"/>
</g>
<radialGradient id="at" cx="0" cy="0" r="819.2" gradientTransform="matrix(.1701 0 0 .1701 75.35 25.35)" gradientUnits="userSpaceOnUse">
<stop stop-color="#6a898c" stop-opacity="0" offset="0"/>
<stop stop-color="#6a898c" stop-opacity=".10196" offset=".31765"/>
<stop stop-color="#6b8a8c" offset="1"/>
</radialGradient>
<g id="k" transform="translate(.05 2)">
<use transform="translate(-.05 -.5)" width="35.400002" height="35.400002" xlink:href="#j"/>
<use transform="matrix(.866 -.5 .4299 .7446 1.4 6.2)" width="16.4" height="16.4" xlink:href="#i"/>
<use transform="translate(8.05,2.9)" width="4.8499999" height="4.4000001" xlink:href="#w"/>
</g>
<g id="j" transform="translate(.5 .5)">
<use transform="translate(-.5 -.5)" width="35.400002" height="35.400002" xlink:href="#z"/>
</g>
<g id="z" transform="translate(.5 .5)">
<path d="m28.6 17.65q0 4.8-3.35 8.15t-8.15 3.35q-4.75 0-8.1-3.35t-2.8-4.45q0.5-1.15 13.65-4.45-11.55-6.65-10.85-7.35 3.35-3.35 8.1-3.35 4.8 0 8.15 3.35t3.35 8.1" fill="#60add1" fill-opacity=".8" fill-rule="evenodd"/>
<path d="m20.1 0.25q5.25 0.8 9.25 4.8 5.05 5.05 5.05 12.15t-5.05 12.15q-4.65 4.65-11.1 5.05 16.5-12.5 1.85-34.15" fill="#5c9ab6" fill-opacity=".8" fill-rule="evenodd"/>
<path d="m18.25 34.4h-1.05q-7.1 0-12.15-5.05t-5.05-12.15 5.05-12.15 12.15-5.05l2.9 0.25q14.65 21.65-1.85 34.15" fill="#60add1" fill-opacity=".8" fill-rule="evenodd"/>
<path d="m20.1 0.25q5.25 0.8 9.25 4.8 5.05 5.05 5.05 12.15t-5.05 12.15q-4.65 4.65-11.1 5.05h-1.05q-7.1 0-12.15-5.05t-5.05-12.15 5.05-12.15 12.15-5.05z" fill="none" stroke="#5c7174" stroke-linecap="round" stroke-linejoin="round" stroke-opacity=".25098"/>
<path d="m15.75 8.25-1.7-3.7m8.4 4.7 1.45-3.65m2.8 9.25 3.1-0.95" fill="none" stroke="#a6d7ed" stroke-linecap="round" stroke-linejoin="round" stroke-opacity=".2"/>
<path d="m1.55 13.9h0.1q1.35 4.35 2 5.4 2 3.6 6 3.6l2.4-0.3 2.5-0.3q1.5 0 2.2 0.6 1 0.85 1 3.1t-1.4 3.9q-1.5 1.8-3.8 1.8-3.55 0-7-4.6-4-5.35-4-13.2" fill="#65c2ed" fill-rule="evenodd"/>
<path d="m22.7 2.25q3.5 2.25 6.8 6.15l0.35 0.35q5.45 7.4 0 17.1l-1.35 2.15q-3.8 3.25-6.9 3.85 6.5-7.15 7-15.45 0.45-8.35-5.9-14.15" fill="#5c9ab6" fill-rule="evenodd"/>
</g>
<g id="i">
<use width="16.4" height="16.4" xlink:href="#y"/>
</g>
<g id="y">
<path d="m14 14q-2.4 2.4-5.8 2.4t-5.8-2.4-2.4-5.8 2.4-5.8 5.8-2.4 5.8 2.4 2.4 5.8-2.4 5.8" fill="url(#as)" fill-rule="evenodd"/>
</g>
<radialGradient id="as" cx="0" cy="0" r="819.2" gradientTransform="matrix(.011 0 0 .011 8.2 8.2)" gradientUnits="userSpaceOnUse">
<stop stop-color="#cde5dd" offset="0"/>
<stop stop-color="#d0e5ed" stop-opacity="0" offset="1"/>
</radialGradient>
<g id="w" transform="translate(-8.05,-2.9)">
<path d="m12.15 6.65q-0.7 0.65-1.7 0.65t-1.7-0.65-0.7-1.55 0.7-1.55 1.7-0.65 1.7 0.65q0.75 0.65 0.75 1.55t-0.75 1.55" fill="#d0e5ed" fill-rule="evenodd"/>
</g>
</defs>
</svg>
