<?xml version="1.0" encoding="UTF-8"?>
<svg version="1.1" viewBox="0 0 318.58 412.3" xmlns="http://www.w3.org/2000/svg" xmlns:cc="http://creativecommons.org/ns#" xmlns:dc="http://purl.org/dc/elements/1.1/" xmlns:rdf="http://www.w3.org/1999/02/22-rdf-syntax-ns#" xmlns:xlink="http://www.w3.org/1999/xlink">
<metadata>
<rdf:RDF>
<cc:Work rdf:about="">
<dc:format>image/svg+xml</dc:format>
<dc:type rdf:resource="http://purl.org/dc/dcmitype/StillImage"/>
</cc:Work>
</rdf:RDF>
</metadata>
<g transform="translate(-152.28 -241.87)">
<use transform="matrix(.935 .3403 -.3403 .935 236.68 129.86)" width="270" height="485.54999" xlink:href="#i"/>
</g>
<defs>
<g id="i" transform="translate(163.8,314.1)">
<use transform="translate(62.75,-232.25)" width="20.4" height="331.85001" xlink:href="#s"/>
<use transform="matrix(.5037 .1349 -.1852 .691 -19.482 -314.12)" width="234.7" height="323.89999" xlink:href="#b"/>
<use transform="matrix(.5367 -.0518 -.057 -.5896 -49.031 171.46)" width="234.7" height="323.89999" xlink:href="#b"/>
<use transform="translate(63.35,-239.45)" width="35.650002" height="35.950001" xlink:href="#a"/>
<use transform="matrix(.7071 -.7071 .7071 .7071 43.393 108.1)" width="35.650002" height="35.950001" xlink:href="#a"/>
<use transform="translate(78.3,-64.7)" width="1.45" height="2" xlink:href="#p"/>
<use transform="matrix(.9351 0 0 .9351 -163.82 -163.82)" width="124.45" height="181.05" xlink:href="#h"/>
<use transform="translate(69.15,-63.7)" width="18.4" height="30.450001" xlink:href="#g"/>
<use transform="matrix(.5 0 0 .5 -104.02 -101.55)" width="35.400002" height="36.900002" xlink:href="#f"/>
<use transform="matrix(2.0043 -1.2556 .378 .4739 -27.206 -223.81)" width="56" height="56" xlink:href="#c"/>
</g>
<g id="s" transform="translate(-62.75,232.25)">
<path d="m63.25-231.75 4.25 1.5 0.35-0.5" fill="none" stroke="#804733" stroke-linecap="round" stroke-linejoin="round" stroke-opacity=".10196"/>
<path d="m82.05-211.35-8 309.85" fill="none" stroke="url(#ak)" stroke-linecap="round" stroke-linejoin="round" stroke-width="2.2"/>
</g>
<radialGradient id="ak" cx="0" cy="0" r="819.2" gradientTransform="matrix(.1701 0 0 .1701 41.15 -57.5)" gradientUnits="userSpaceOnUse">
<stop stop-color="#6a888c" stop-opacity="0" offset="0"/>
<stop stop-color="#6a888c" stop-opacity=".10196" offset=".31765"/>
<stop stop-color="#6b8a8c" offset="1"/>
</radialGradient>
<g id="b" transform="translate(.5 .65)">
<use transform="translate(-.5 -.65)" width="234.7" height="323.89999" xlink:href="#r"/>
</g>
<g id="r" transform="translate(.5 .65)">
<path d="m26.1 298.85-0.75 1.2-12.3 19.15q2.9-7.1 6.8-14.3l0.2-0.3q2.75-5.2 6.1-10.5l1.25-2-0.2 0.65-2.1 7.55 0.3-0.45-0.05 0.2-0.25 0.25 0.25-0.25 0.05-0.2 0.7-1m-14.7 22.85-0.7 1.05h-9.6l-0.8-0.2q-4.35-102.85 51.5-190.65l1.3 0.8q-22.25 59.15-22.5 113.95 19.3-32.8 34.75-43.55-32.85 47-57.05 114.3l-0.85 2.4 4.15 1.6-0.2 0.3-5.45 1.05 5.45-1.05m-4.75 0.3 0.8-2.2-0.8 2.2m13.4-17.4 7.15-11.85-7.15 11.85" fill="url(#aj)" fill-rule="evenodd"/>
<path d="m216.2 67.7q-6.35 18.4-12.9 33.95l-55.15 42.7 55.15-42.7-3.65 8.3q-16.85 37.2-35.2 55.45-6.45 7.35-14.9 14.75l2.85-3.25-3.85 4.1 3.85-4.1-2.85 3.25-1 0.85-3 2.5-27.2-12.8 33.25-21.9 0.1-0.05-3.55-4.4 16.55-23.65 5.4-7.8q-5 2.2-9.9 4.65 4.9-2.45 9.9-4.65l-5.4 7.8-4.5-3.15q9.35-8.9 19.05-17.7 17.85-16.25 36.95-32.15m-16.1 34.6q-15.45 4.2-30 10.6l9.15-13.05-9.15 13.05q14.55-6.4 30-10.6m-57.45 83.55q-13.35 10.6-30.95 21.3-13.85 8.35-21.85 13.95l-11 10.3-40.4 48.8q3.35-5.2 1.7-3.05l-0.6 0.75-2.85 4.45q-7.35 9.3-11.3 17.5l-0.3 0.45 2.1-7.55 0.2-0.65-1.25 2q3.3-7.55 7.1-15.25l1.45-2.9q28.05-44.9 61.6-88.85l0.5-0.5 5.4-5 1.3-1.15 10.95-7.2 28.2 12.6m-129.6 133.35-1 2.35-0.45-0.15-4.15-1.6 0.85-2.4 3.5 1.3 8.05-13.8q-3.9 7.2-6.8 14.3m89.2-109.15q-6.4 5.55-12.4 11.05 6-5.5 12.4-11.05m-74.85 82.05 2.65-4.1-2.85 4.75 2.85-4.75-2.65 4.1m51.45-60.7q-30.7 29.5-48.8 56.6 18.1-27.1 48.8-56.6m120.8-121.45-47.95 38.8 47.95-38.8" fill="#91873e" fill-rule="evenodd"/>
<path d="m160.2 117.55 4.5 3.15-16.55 23.65 3.55 4.4-0.1 0.05q-25.4 11.5-48.1 31.65l-1.3 1.15-5.4 5-0.5 0.5q-11.45 11.05-22.15 24.35-23.6 33-39.45 64.5l-1.45 2.9q-3.8 7.7-7.1 15.25-3.35 5.3-6.1 10.5l-0.2 0.3-8.05 13.8-3.5-1.3q24.2-67.3 57.05-114.3 40.75-58.45 94.85-85.55" fill="#8f913f" fill-rule="evenodd"/>
<path d="m34.7 275.95q15.85-31.5 39.45-64.5 10.7-13.3 22.15-24.35-33.55 43.95-61.6 88.85" fill="url(#aa)" fill-rule="evenodd"/>
<path d="m103.5 180.45q22.7-20.15 48.1-31.65l-33.25 21.9-3.9 2.55 3.9-2.55 27.2 12.8-2.9 2.35-28.2-12.6-10.95 7.2" fill="#7d7335" fill-rule="evenodd"/>
<path d="m51.8 131.9 1.35-2.15q44.8-47.35 111-72.1 40.05-28.05 67.55-57.65 5.75-2.15-4.85 32.65l-10.65 35.05q-19.1 15.9-36.95 32.15-9.7 8.8-19.05 17.7-54.1 27.1-94.85 85.55-15.45 10.75-34.75 43.55 0.25-54.8 22.5-113.95l-1.3-0.8m134.8-42.6-7.35 10.55 7.35-10.55" fill="#a89c53" fill-rule="evenodd"/>
<path d="m51.8 131.9 1.35-2.15q44.8-47.35 111-72.1 40.05-28.05 67.55-57.65 5.75-2.15-4.85 32.65l-10.65 35.05q-6.35 18.4-12.9 33.95l2.9-2.3m-26.95 0.5-9.15 13.05q14.55-6.4 30-10.6m-0.45 7.65 1.9-1.55m-36.85 12.3 5.4-7.8q-5 2.2-9.9 4.65 9.35-8.9 19.05-17.7l7.35-10.55m-21.9 31.4-16.55 23.65 55.15-42.7-3.65 8.3q-16.85 37.2-35.2 55.45-6.45 7.35-14.9 14.75l-5.6 6.25-1.3-0.55q-13.35 10.6-30.95 21.3-13.85 8.35-21.85 13.95l-11 10.3-40.4 48.8-12.1 18.25-1 1.6-12.3 19.15-1 2.35-0.65 0.15-0.7 1.05h-9.6m-0.8-0.2q-4.35-102.85 51.5-190.65m1.3 0.8q-22.25 59.15-22.5 113.95 19.3-32.8 34.75-43.55 40.75-58.45 94.85-85.55m19.05-17.7q17.85-16.25 36.95-32.15m-119.9 119.4 0.5-0.5 5.4-5 1.3-1.15q22.7-20.15 48.1-31.65l0.1-0.05 47.95-38.8m-85.2 63.3 3.9-2.55 33.25-21.9m-48.1 31.65 10.95-7.2 28.2 12.6 2.9-2.35-27.2-12.8m30.2 10.3-3 2.5 0.4 0.2 2.6-2.7 3.85-4.1-2.85 3.25-1 0.85m-58.7 40.1q6-5.5 12.4-11.05m-63.8 70.15q3.35-5.2 1.7-3.05l-0.6 0.75-2.85 4.45 1.75-2.15m-12.3 13.9q3.3-7.55 7.1-15.25l1.45-2.9q15.85-31.5 39.45-64.5 10.7-13.3 22.15-24.35-33.55 43.95-61.6 88.85m-7.5 16.8 2.85-4.75-2.65 4.1-0.2 0.65-2.1 7.55 0.3-0.45q3.95-8.2 11.3-17.5l-10.35 16.1m-0.2-4.35 1.25-2m2.65-4.1q18.1-27.1 48.8-56.6m-53.45 68.45-0.05 0.2-0.25 0.25m0.3-0.45 0.7-1m-6.05 5.75-0.2 0.3q-3.9 7.2-6.8 14.3m-5.6 0.6 0.85-2.4q24.2-67.3 57.05-114.3m-53.75 118.3-0.2 0.3-5.45 1.05m1.5-2.95-0.8 2.2m5.15-3.3 8.05-13.8m0.2-0.3q2.75-5.2 6.1-10.5m1.05-1.35-7.15 11.85" fill="none" stroke="#804733" stroke-linecap="round" stroke-linejoin="round" stroke-opacity=".10196"/>
<path d="m211.7 71.65-3.45 3.3-0.05 0.05 0.65-2-0.65 2-0.05 0.05q-19.5 18.6-28.6 25.45l-21.95 28.9-89.6 72.95-1.55-1.85q29.5-45.5 84.35-90.65l54.4-34.55q0.25-0.15 0.55-0.35l0.3-0.2 2.1-1.3 0.7-0.45 1.85-1.15 2.3-1.5-1.3 1.3-1 0.2 1-0.2m-3.55 1.8v1.6-1.6" fill="#8b913f" fill-opacity=".6" fill-rule="evenodd"/>
<path d="m205.75 74.95q-0.3 0.2-0.55 0.35l-54.4 34.55q-54.85 45.15-84.35 90.65l-0.2-0.1 26.45-42.1q22.45-25.95 47.15-45.7 32.2-21.4 66.2-37.85l-0.3 0.2" fill="url(#z)" fill-rule="evenodd"/>
<path d="m163.6 142.4q-7 5.2-23.15 13.8 45.9-36.6 72.95-82.6-9.05 24.1-49.8 68.8m-23.15 13.8 8.9-6.05-8.9 6.05" fill="url(#y)" fill-rule="evenodd"/>
<path d="m230.45 1-38.85 53.35q-121.95 59.4-44.45 14.4l83.3-67.75" fill="url(#x)" fill-rule="evenodd"/>
<path d="m231.8 2.2q3.3 8.15-2.15 24.75l-14.75 43.2 0.15 0.85-3.35 0.65 1.3-1.3-2.3 1.5-1.6 0.3 22.7-69.95m-23.55 72.75-0.1 0.1 0.1-0.1" fill="#8f813c" fill-rule="evenodd"/>
<path d="m37.6 282.45q17.65-33.1 49.1-62.7 20.25-15.35 47.4-27.8-60.45 42.9-96.5 90.5" fill="#756931" fill-rule="evenodd"/>
<path d="m231.8 2.2q3.3 8.15-2.15 24.75l-14.75 43.2m0.15 0.85-3.35 0.65-3.45 3.3m-0.1 0.1q-19.5 18.6-28.6 25.45l-21.95 28.9-89.6 72.95-1.25 1m165.05-201.15 0.1-1.05 0.35-0.3-0.45 1.35-22.7 69.95 1.6-0.3 2.3-1.5-1.3 1.3-1 0.2-1.85 1.15-0.65 2 0.05-0.05m0.6-1.95 0.25-0.85-0.95 0.15v1.15l0.7-0.45m-142.4 127.5q29.5-45.5 84.35-90.65l54.4-34.55q0.25-0.15 0.55-0.35m0.3-0.2q-34 16.45-66.2 37.85-24.7 19.75-47.15 45.7l-26.45 42.1m139.8-125.65h-1.4m3.55 0.25-0.05 0.05v-1.6l-2.1 1.3m2.15 0.25-0.05 0.05m22.3-74.05-83.3 67.75q-77.5 45 44.45-14.4l38.85-53.35m-66.85 141.4q-7 5.2-23.15 13.8 45.9-36.6 72.95-82.6-9.05 24.1-49.8 68.8m-21.7-71.95 5.25-1.7m2.2 81.4-8.9 6.05m-107.45 130.55 4.6-4.3q17.65-33.1 49.1-62.7 20.25-15.35 47.4-27.8-60.45 42.9-96.5 90.5" fill="none" stroke="#804733" stroke-linecap="round" stroke-linejoin="round" stroke-opacity=".10196"/>
<path d="m16.05 230.95-0.45-0.2q8.55-54.2 40.25-103.9 51.45-49.3 114.9-72.15-121.7 71.05-154.7 176.25" fill="#e7dc85" fill-rule="evenodd"/>
<path d="m15.6 230.75-1.5 3.45m1.95-3.25q33-105.2 154.7-176.25-63.45 22.85-114.9 72.15-31.7 49.7-40.25 103.9z" fill="none" stroke="#804733" stroke-linecap="round" stroke-linejoin="round" stroke-opacity=".10196"/>
</g>
<linearGradient id="aj" x1="-819.2" x2="819.2" gradientTransform="matrix(-.0282 .1064 -.1125 -.0298 53.8 228.3)" gradientUnits="userSpaceOnUse">
<stop stop-color="#e6da7c" offset="0"/>
<stop stop-color="#f2ebba" offset="1"/>
</linearGradient>
<linearGradient id="aa" x1="-819.2" x2="819.2" gradientTransform="matrix(0 .0447 -.0542 0 62 238.75)" gradientUnits="userSpaceOnUse">
<stop stop-color="#91873e" offset="0"/>
<stop stop-color="#524b23" offset="1"/>
</linearGradient>
<linearGradient id="z" x1="-819.2" x2="819.2" gradientTransform="matrix(-.0077 .051 -.0563 -.0085 87.65 153.6)" gradientUnits="userSpaceOnUse">
<stop stop-color="#91873e" offset="0"/>
<stop stop-color="#524b23" offset="1"/>
</linearGradient>
<linearGradient id="y" x1="-819.2" x2="819.2" gradientTransform="matrix(-.0272 -.0272 .0326 -.0326 181.8 111.4)" gradientUnits="userSpaceOnUse">
<stop stop-color="#91873e" offset="0"/>
<stop stop-color="#524b23" offset="1"/>
</linearGradient>
<linearGradient id="x" x1="-819.2" x2="819.2" gradientTransform="matrix(-.0131 .049 -.0398 -.0107 183.55 49)" gradientUnits="userSpaceOnUse">
<stop stop-color="#e7dc85" offset="0"/>
<stop stop-color="#b5aa5a" offset="1"/>
</linearGradient>
<g id="a" transform="translate(.5 .5)">
<use transform="translate(-.5 -.5)" width="35.650002" height="35.950001" xlink:href="#q"/>
</g>
<g id="q" transform="translate(.5 .5)">
<path d="m0 11.8 2.45-3.1 11.8 4.1 6.8-12.8 13.6 5-12.9 28.1-0.1 0.15h-0.05l-11.55-4.8 0.05-0.05 2.85-10.4q-0.2 2.1 0.8-1.5l-13.75-4.7m21.75 21.3-0.15 0.15 0.15-0.15m3.05-20.3 0.85-2.6-3.3-0.85-0.95 2.7-3.95 10.95 3.6 1.25 3.75-11.45" fill="#6b622e" fill-rule="evenodd"/>
<path d="m21.6 33.25-2.05 1.7-11.3-5.2 1.8-1.3 11.55 4.8m-9.7-15.6-8.25-2-3.65-3.85 13.75 4.7q-1 3.6-0.8 1.5v-0.1l-1.05-0.25m9.5-5.6 0.95-2.7 3.3 0.85-0.85 2.6-3.4-0.75" fill="#403a1b" fill-rule="evenodd"/>
<path d="m8.15 29.75 3.75-12.1 1.05 0.25v0.1l-2.85 10.4-0.05 0.05-1.8 1.3h-0.1" fill="#3d381a" fill-rule="evenodd"/>
<path d="m0 11.8 2.45-3.1 11.8 4.1 6.8-12.8 13.6 5-12.9 28.1-0.1 0.15h-0.05l-2.05 1.7-11.3-5.2-0.15 0.1 0.05-0.1 3.75-12.1-8.25-2-3.65-3.85 13.75 4.7q-1 3.6-0.8 1.5l-2.85 10.4-0.05 0.05 11.55 4.8 0.15-0.15m3.05-20.3 0.85-2.6-3.3-0.85-0.95 2.7 3.4 0.75-3.75 11.45-3.6-1.25 3.95-10.95m-8.45 5.95v-0.1l-1.05-0.25m-1.85 10.8-1.8 1.3m1.8-1.3 0.05-0.05" fill="none" stroke="#804733" stroke-linecap="round" stroke-linejoin="round" stroke-opacity=".10196"/>
</g>
<g id="p" transform="translate(-78.3,64.7)">
<path d="m79.25-64.2-0.45 1" fill="none" stroke="#804733" stroke-linecap="round" stroke-linejoin="round" stroke-opacity=".10196"/>
</g>
<g id="h" transform="translate(.5 .5)">
<use transform="translate(-.5 -.5)" width="124.45" height="181.05" xlink:href="#o"/>
</g>
<g id="o" transform="translate(.5 .5)">
<path d="m91 55.95q4.6-16.45 13.9-31.45l11.8-18.65q2.15-2.05 4.45-4l-0.05 1.1 0.05-1.1 2.15-1.85-5.35 9q1.5-3.1 3.15-6.05-7.65 8.95-16.65 27.05-10.15 34.9-10.9 69l0.2 0.3-0.3 0.2h-53.85l-3.85-2.5q-6-8.5-11.45 2.55l-0.3 0.55-14.9 2.45q0.15-0.4 6.35-1.2-0.1-12.65 14.95-25.7l15.25-11.3 0.6-0.45-0.6 0.45-7.3 17.35 7.3-17.35 0.25-0.6 0.35 0.15 32.15-15.65q6.3-9.85 4.9-16.15l0.7-2.35 0.35-2.05 0.15-2.5 6.5 18.75v0.25-0.25l0.1 0.25h-0.1v11.75m17.55-23.95q-1.3 4.75-2.3 9.75v-1.75q-3.5 13.25-5.75 26.45 2.05-14 5.7-26.75 1.1-3.9 2.35-7.7m-2.35 7.7 0.05 0.3-0.05-0.3m-106.1 64 0.45 0.2h-0.55l0.1-0.2m36.55 32.7 0.9 0.05 3.25 0.1 51.45 5v17.45q-4.15-5.45-14.1-10.1l-41.5-12.2v-0.3m56.9-37.4-0.1 0.5 0.1-0.5" fill="#aacc65" fill-rule="evenodd"/>
<path d="m106.25 41.75q7.3 29.8 7.3 59.9l-5.4-1.8q-1.65 30.85-6.4 61.65h-1.8l-4.15-1.65 0.85-22.2v-0.95l-19 1.4-36.85-1.55-3.25-0.1-0.9-0.35v-1.55h61.05q3.05-14.6 0.25-27.9l-0.25-1.15-96.75-1.6h-0.15l8.3-1.35 14.9-2.45 0.3-0.55q5.45-11.05 11.45-2.55l-1.05-0.65-0.5 0.75 3.2 4.8 59.25 1.2h1q0.25-19.25 2.85-36.65 2.25-13.2 5.75-26.45v1.75m-73.45 52.95-3.6 5.8-4.9-0.95 4.9 0.95 3.6-5.8m-32.25 9.2h0.4-0.4m97.1 33-1 0.75 1-0.75m0.6-31.4h-0.55 0.55m-0.55 29.05h0.55-0.55" fill="#5b663d" fill-rule="evenodd"/>
<path d="m117.95 9q-5.4 10.95-9.4 23-1.25 3.8-2.35 7.7-3.65 12.75-5.7 26.75-2.6 17.4-2.85 36.65h-1l-2.9-3.8-0.2-0.3q0.75-34.1 10.9-69 9-18.1 16.65-27.05-1.65 2.95-3.15 6.05m-77.15 127.55 36.85 1.55 19-1.4v0.95q-1.65 0.25-4.4 3.9l-51.45-5" fill="#88a652" fill-rule="evenodd"/>
<path d="m93.75 99.3 2.9 3.8-59.25-1.2-3.2-4.8 0.5-0.75 1.05 0.65 3.85 2.5h53.85l0.3-0.2" fill="#799449" fill-rule="evenodd"/>
<path d="m0.95 103.9 96.75 1.6 0.25 1.15q-42-1.2-84.05 0l-12.95-2.75" fill="#384026" fill-rule="evenodd"/>
<path d="m47.55 59.8-1.65 3.95-0.25 0.6-15.25 11.3q-15.05 13.05-14.95 25.7-6.2 0.8-6.35 1.2l-8.3 1.35h-0.25l-0.45-0.2q10.25-23.75 47.45-43.9" fill="url(#w)" fill-rule="evenodd"/>
<path d="m83.3 32.1q1.4 6.3-4.9 16.15l-32.15 15.65-0.35-0.15 1.65-3.95 25.95-14.35q7.35-6.65 9.8-13.35" fill="url(#v)" fill-rule="evenodd"/>
<path d="m116.7 5.85-11.8 18.65q-9.3 15-13.9 31.45v-11.75h0.1q7.5-21.15 25.6-38.35" fill="url(#u)" fill-rule="evenodd"/>
<path d="m36.65 136.7 41.5 12.2q9.95 4.65 14.1 10.1v3.3q-25.7-12.6-55.6-24.7v-0.9" fill="url(#t)" fill-rule="evenodd"/>
<path d="m92.25 159v-17.45q2.75-3.65 4.4-3.9l-0.85 22.2-0.15 4.1-3.2-1.55-0.2-0.1v-3.3" fill="#718c44" fill-rule="evenodd"/>
<path d="m101.75 161.5q4.75-30.8 6.4-61.65l5.4 1.8q-0.05 29.75-7.3 59.85h-4.5" fill="url(#ai)" fill-rule="evenodd"/>
<path d="m91 55.95v-12l-6.5-18.75-0.15 2.5-0.35 2.05-0.7 2.35q-2.45 6.7-9.8 13.35l-25.95 14.35q-37.2 20.15-47.45 43.9m46.15-39.8-0.6 0.45-7.3 17.35m82.8-79.85q-2.3 1.95-4.45 4-18.1 17.2-25.6 38.35l-0.1-0.25m30.1-41 0.05-1.1 2.15-1.85m-5.35 9q-5.4 10.95-9.4 23-1.3 4.75-2.3 9.75 7.3 29.8 7.3 59.9l1.65 0.55m2.75-93.2q1.5-3.1 3.15-6.05m-27.55 96.05 0.2 0.3 2.9 3.8h1q0.25-19.25 2.85-36.65 2.05-14 5.7-26.75 1.1-3.9 2.35-7.7m-2.3 9.75v-1.75q-3.5 13.25-5.75 26.45m5.75-26.45-0.05-0.3m-71.5 56.65 1.05 0.65q-6-8.5-11.45 2.55l4.9 0.95 3.6-5.8m14.75-34.9-1.65 3.95-0.25 0.6m-36.55 38.2 14.9-2.45 0.3-0.55m-23.75 4.35h0.25l8.3-1.35m31.7 34 36.85 1.55 19-1.4v0.95l1-0.75m-96.85-33h0.15l96.75 1.6h0.55m-97.3-1.6h-0.95l0.1-0.2m0.85 0.2 12.95 2.75q42.05-1.2 84.05 0l-0.25-1.15m-61.05 30.9 0.9 0.05-0.9-0.35m0-1.55h61.05q3.05-14.6 0.25-27.9m-5.7 52.35v-17.45l-51.45-5-3.25-0.1m-0.9 1.15q29.9 12.1 55.6 24.7v-3.3m21.3-57.35-5.4-1.8q-1.65 30.85-6.4 61.65h4.5q7.25-30.1 7.3-59.85m-20.1-2.15h-53.85l-3.85-2.5m57.7 2.5 0.1-0.5m4.7 35.55h-0.55m-5.45 7q2.75-3.65 4.4-3.9l-0.85 22.2 4.15 1.65h1.8m-5.95-1.65-0.15 4.1-3.2-1.55-0.2-0.1m-58.05-65.2 3.2 4.8 59.25 1.2" fill="none" stroke="#804733" stroke-linecap="round" stroke-linejoin="round" stroke-opacity=".10196"/>
<path d="m82.45 80.75q-0.85 1.75-2.45 3.2-3.45 3.3-8.4 3.3t-8.45-3.3q-3.5-3.25-3.5-7.9t3.5-7.95q3.5-3.25 8.45-3.25t8.4 3.25q2.6 2.45 3.3 5.65-0.7-2.4-2.7-4.3-2.95-2.75-7.2-2.75-4.2 0-7.2 2.75-3 2.85-3 6.8 0 4 3 6.75 3 2.85 7.2 2.85 4.25 0 7.2-2.85l1.85-2.25" fill="#718f46" fill-rule="evenodd"/>
<path d="m83.3 73.75 0.3 2.5q0 2.5-1.15 4.5l-1.85 2.25q-2.95 2.85-7.2 2.85-4.2 0-7.2-2.85-3-2.75-3-6.75 0-3.95 3-6.8 3-2.75 7.2-2.75 4.25 0 7.2 2.75 2 1.9 2.7 4.3" fill="#4a5935" fill-rule="evenodd"/>
<path d="m83.3 73.75 0.3 2.5q0 2.5-1.15 4.5-0.85 1.75-2.45 3.2-3.45 3.3-8.4 3.3t-8.45-3.3q-3.5-3.25-3.5-7.9t3.5-7.95q3.5-3.25 8.45-3.25t8.4 3.25q2.6 2.45 3.3 5.65-0.7-2.4-2.7-4.3-2.95-2.75-7.2-2.75-4.2 0-7.2 2.75-3 2.85-3 6.8 0 4 3 6.75 3 2.85 7.2 2.85 4.25 0 7.2-2.85l1.85-2.25" fill="none" stroke="#804733" stroke-linecap="round" stroke-linejoin="round" stroke-opacity=".10196"/>
<path d="m101.05 80h-1.25l1.3-0.3-0.05 0.3 0.05-0.3q9.3-2.2 15.55 3.2l0.35 1.8q-4.8-3.3-9.9-4.5l-0.5 15.15 2.45-10.4-1.05 20.15q-6.3-0.35-10.65 1.5l-37.15-2.6h-0.05l-11-0.35 0.1-0.4q10.85-0.4 47.3-0.35l0.05-0.6 2.4-2.3 2.05-20m-2.15 0.3-0.45 3.55 0.35-3.55h0.1" fill="#90997a" fill-rule="evenodd"/>
<path d="m117 109.05q-0.25-0.2-0.75 1.85l0.05-0.6 0.1-0.8v-0.4l0.1-1.1 0.5 1.05m-0.55-0.35-0.35-0.35 0.35-0.4v0.75" fill="#5f6651" fill-rule="evenodd"/>
<path d="m116.3 110.3 0.05-0.65q-0.5 3.1-3.2 4.35l-0.1-2.75q-7.2-5.4-14.05 1.75l-4.35-2.25-24.5-3.4-10-3.2 0.05-0.15 37.15 2.6q4.35-1.85 10.65-1.5 5.5 0.8 8.1 3.25l0.35 0.35-0.05 0.4 0.05-0.4v-0.75l0.05 0.05-0.05-0.05v-0.05l0.05-0.4v0.5l-0.1 1.1v0.4-0.4 0.4l-0.1 0.8m0.1-0.8-0.05 0.15 0.05-0.55-0.05 0.55 0.05-0.15" fill="#3b4033" fill-rule="evenodd"/>
<path d="m99.8 80h1.25l-2.05 20-2.4 2.3 1.25-12.95 0.5-4.35 0.1-1.15 0.45-3.55 0.9-0.3" fill="#717a61" fill-rule="evenodd"/>
<path d="m108 105.1 1.05-20.15-2.45 10.4 0.5-15.15q5.1 1.2 9.9 4.5l0.05 0.3 0.25 1.45-0.8 20.75-0.05 0.7v0.05l-0.35 0.4q-2.6-2.45-8.1-3.25" fill="url(#ah)" fill-rule="evenodd"/>
<path d="m99.8 80h1.25l0.05-0.3-1.3 0.3-0.9 0.3-0.45 3.55-0.1 1.15-0.5 4.35-1.25 12.95 2.4-2.3m-0.1-19.7v-0.3h0.9m-1.35 3.85 0.35-3.55h0.1m9.1 24.8 1.05-20.15-2.45 10.4 0.5-15.15q5.1 1.2 9.9 4.5l0.05 0.3m-0.4-2.1q-6.25-5.4-15.55-3.2m16.2 6.75-0.8 20.75 0.5 1.85q-0.25-0.2-0.75 1.85l0.05-0.6 0.05-0.65q-0.5 3.1-3.2 4.35l-0.1-2.75q-7.2-5.4-14.05 1.75l-4.35-2.25-24.5-3.4-10-3.2m0.05-0.15h-0.05l-2.7 0.1-8.45 0.35-0.25 1.5-7.95-1.2-32.4 1.2m32.4-1.2-11.65-1.8 15.95 0.55 4.15-0.25 0.2-1.35m-8.65 2.85 8.2-0.3 0.15-0.7-4.05-0.25 4.05 0.15 0.1-0.4q10.85-0.4 47.3-0.35l0.05-0.6-0.3 0.3 1.55-13.25m-48.7 14.4v-0.1l11 0.35m-2.7 0.1-8.3-0.35m67.25 5.75v-0.4 0.4l-0.1 0.8m0.1-1.2-0.05 0.55 0.05-0.15m0.05-0.8-0.35-0.35q-2.6-2.45-8.1-3.25-6.3-0.35-10.65 1.5l-37.15-2.6m56.2 5.1 0.05-0.4v-0.8l0.05-0.7m0 0.8 0.5 1.05-0.5-1.55v0.5l-0.05-0.05m-0.05 1.15 0.1-1.1" fill="none" stroke="#804733" stroke-linecap="round" stroke-linejoin="round" stroke-opacity=".10196"/>
<path d="m97.4 139.45-1.3-1.25-1.1-1.05-0.05-0.6q-36.45 0.05-47.3-0.35l-0.1-0.4 11.05-0.35 37.15-2.6q4.35 1.85 10.65 1.5l0.25 4.35h0.3l0.5 9.9-2.3-9.9h-0.1l0.45 14.65q5.1-1.2 9.9-4.5l-0.35 1.8q-1.9 1.65-4.4 2.6h-0.1l-0.15 0.05-2.4 0.4-0.3 0.3-2.2 0.3-2.3 0.05-0.4-10.7-5.35-3.95-0.05-0.25m-0.9-0.45v-0.4l0.15 0.5-0.15-0.1 0.15 0.1h-0.15v-0.1" fill="#90997a" fill-rule="evenodd"/>
<path d="m106.95 138.7h-0.3l-0.25-4.35q5.5-0.8 8.1-3.25l0.35 0.4 0.3 7.2h-8.2" fill="url(#ag)" fill-rule="evenodd"/>
<path d="m115.4 148.85q-4.8 3.3-9.9 4.5l-0.45-14.65h0.1l2.3 9.9-0.5-9.9h8.45l0.3 8.4-0.25 1.45-0.05 0.3" fill="url(#af)" fill-rule="evenodd"/>
<path d="m106.4 134.35q-6.3 0.35-10.65-1.5l-37.15 2.6-0.05-0.15q-22.9-0.15 10-3.2l24.5-3.4 5.9-2.75q5.3 7.65 12.5 2.25l0.1-2.75q2.7 1.25 3.2 4.35l0.1 0.95-0.35 0.35q-2.6 2.45-8.1 3.25" fill="#afbf98" fill-rule="evenodd"/>
<path d="m97.45 139.7 5.35 3.95 0.4 10.7-6.2-0.7-0.3-0.05-0.2-0.05v-14.45h0.15l1.3 5.5-0.5-4.9" fill="#717a61" fill-rule="evenodd"/>
<path d="m103.2 154.35 2.3-0.05-0.8 4.7-0.1 0.35h-0.1l-8.25-1.05 0.45-4.65h0.3l6.2 0.7" fill="#4d5633" fill-rule="evenodd"/>
<path d="m107.7 154 0.3-0.3 2.4-0.4 0.15-0.05 9.8 16.65q-4.5-1.2-9 0.9-3.1 2.6-6.55 1.95l-1.4-11.05 1.1-2.35h0.1l0.1-0.35 2.45-4.45 0.55-0.55m-2.9 18.75q1.3 5.8 1 7.8l-1-7.8" fill="#4d5734" fill-opacity=".4" fill-rule="evenodd"/>
<path d="m58.6 135.45-11.05 0.35 0.1 0.4q10.85 0.4 47.3 0.35l0.05 0.6 1.1 1.05 1.3 1.25m18 9.4q-4.8 3.3-9.9 4.5l-0.45-14.65m0.1 0 2.3 9.9-0.5-9.9m-0.3 0-0.25-4.35q-6.3 0.35-10.65-1.5l-37.15 2.6m-0.05-0.15q-22.9-0.15 10-3.2l24.5-3.4 5.9-2.75q5.3 7.65 12.5 2.25l0.1-2.75q2.7 1.25 3.2 4.35l0.1 0.95-0.35 0.35m0.35 0.4 0.3 7.2m0.25 0 0.3 8.4m-0.25 1.45-0.05 0.3m-18.9-9.85 0.15 0.1 0.8 0.6m-1.35-1.5 0.4 0.8m9.9-4.65q5.5-0.8 8.1-3.25" fill="none" stroke="#804733" stroke-linecap="round" stroke-linejoin="round" stroke-opacity=".10196"/>
<path d="m123.3 43.6v-0.05 0.05l-0.3 0.2 0.1-0.2-0.2 0.05 0.2-0.05-0.1 0.2-7.7 12.3-3.6 19.8-2.95-1.1-4.1-1.55q1.15-15.2 6.85-35.75-0.05 19.5 0.9 19.8l0.1 1.8 0.3-4.65-0.3 4.65-0.1-1.8v-0.15q0.15-21.9 1.9-26.15-1.75 11.75-1.5 23.45 0.7-2.65 2.7-5.2 4.4-4.5 7.4-5.6l0.55-0.6-0.35 0.55 0.2-0.05 0.1-0.05-0.1 0.1m-10.9 13.55q0.05-1.4 0.4-2.7-0.35 1.3-0.4 2.7" fill="#ede5ac" fill-rule="evenodd"/>
<path d="m108.3 75.9-3.8-0.35 0.15-2.3 4.1 1.55-0.45 1.1" fill="#c9c292" fill-rule="evenodd"/>
<path d="m123.45 43.05-0.15 0.5-0.2 0.05 0.35-0.55m-0.45 0.75 0.3-0.2-3.6 12.3q-1.8 12.6-1.2 25.2h-2.2l-0.25 0.4-7.75-5.6 0.45-1.1 2.95 1.1 3.6-19.8 7.7-12.3" fill="url(#ae)" fill-rule="evenodd"/>
<path d="m112.4 57.3q-0.95-0.3-0.9-19.8-5.7 20.55-6.85 35.75l-0.15 2.3-4.8-0.45q0.1-20.1 7.1-37.9l7.5-6.75v0.55q-1.75 4.25-1.9 26.15v0.15" fill="url(#ad)" fill-rule="evenodd"/>
<path d="m123.3 43.55v0.05l-3.6 12.3q-1.8 12.6-1.2 25.2h-2.2m7.1-37.6-0.1 0.05 0.15-0.5-0.35 0.55 0.2-0.05m-7.25 37.95-7.75-5.6-3.8-0.35-0.2 0.75m18.6-32.65 0.2-0.05-0.1 0.2-7.7 12.3m7.6-12.45q-3 1.1-7.4 5.6-2 2.55-2.7 5.2l-0.3 4.65-0.1-1.8q-0.95-0.3-0.9-19.8-5.7 20.55-6.85 35.75l-0.15 2.3-4.8-0.45q0.1-20.1 7.1-37.9l0.3-1.55m-0.3 1.55 7.5-6.75v0.55q-1.75 11.75-1.5 23.45-0.35 1.3-0.4 2.7v0.15m0-0.15q0.15-21.9 1.9-26.15" fill="none" stroke="#804733" stroke-linecap="round" stroke-linejoin="round" stroke-opacity=".10196"/>
<path d="m112.35 80.25v-1.45l-4.65-2.8-8.5-0.3 0.45-3.45q4.75-0.95 12.05 2.25 4.1 2 6.9 4.9v1.85l-2.95 1-3.3-2" fill="#5b613a" fill-opacity=".6" fill-rule="evenodd"/>
<path d="m112.35 80.25v-1.45l-4.65-2.8-8.5-0.3 0.45-3.45q4.75-0.95 12.05 2.25 4.1 2 6.9 4.9v1.85l-2.95 1z" fill="none" stroke="#804733" stroke-linecap="round" stroke-linejoin="round" stroke-opacity=".10196"/>
</g>
<linearGradient id="w" x1="-819.2" x2="819.2" gradientTransform="matrix(.029 0 0 .0269 23.8 81.85)" gradientUnits="userSpaceOnUse">
<stop stop-color="#bede85" offset="0"/>
<stop stop-color="#d3ebae" offset=".5098"/>
<stop stop-color="#a8de58" offset="1"/>
</linearGradient>
<linearGradient id="v" x1="-819.2" x2="819.2" gradientTransform="matrix(.023 0 0 .0194 64.7 48)" gradientUnits="userSpaceOnUse">
<stop stop-color="#bede85" offset="0"/>
<stop stop-color="#d3ebae" offset=".5098"/>
<stop stop-color="#a8de58" offset="1"/>
</linearGradient>
<linearGradient id="u" x1="-819.2" x2="819.2" gradientTransform="matrix(.0157 0 0 .0306 103.85 30.9)" gradientUnits="userSpaceOnUse">
<stop stop-color="#bede85" offset="0"/>
<stop stop-color="#d3ebae" offset=".5098"/>
<stop stop-color="#a8de58" offset="1"/>
</linearGradient>
<linearGradient id="t" x1="-819.2" x2="819.2" gradientTransform="matrix(.0348 0 0 .0158 63.75 149.3)" gradientUnits="userSpaceOnUse">
<stop stop-color="#bede85" offset="0"/>
<stop stop-color="#d3ebae" offset=".5098"/>
<stop stop-color="#a8de58" offset="1"/>
</linearGradient>
<linearGradient id="ai" x1="-819.2" x2="819.2" gradientTransform="matrix(-.0055 .0205 -.0363 -.0097 107.65 130.65)" gradientUnits="userSpaceOnUse">
<stop stop-color="#3e472a" offset="0"/>
<stop stop-color="#485934" offset="1"/>
</linearGradient>
<linearGradient id="ah" x1="-819.2" x2="819.2" gradientTransform="matrix(-.0049 -4e-4 .0013 -.0171 108.2 93.8)" gradientUnits="userSpaceOnUse">
<stop stop-color="#5f6651" offset="0"/>
<stop stop-color="#90997a" offset="1"/>
</linearGradient>
<linearGradient id="ag" x1="-819.2" x2="819.2" gradientTransform="matrix(-.0049 4e-4 .0013 .0171 106.6 145.65)" gradientUnits="userSpaceOnUse">
<stop stop-color="#5f6651" offset="0"/>
<stop stop-color="#90997a" offset="1"/>
</linearGradient>
<linearGradient id="af" x1="-819.2" x2="819.2" gradientTransform="matrix(-.0049 4e-4 .0013 .0171 106.6 139.75)" gradientUnits="userSpaceOnUse">
<stop stop-color="#5f6651" offset="0"/>
<stop stop-color="#90997a" offset="1"/>
</linearGradient>
<linearGradient id="ae" x1="-819.2" x2="819.2" gradientTransform="matrix(.0099 0 0 .0233 116.4 62.35)" gradientUnits="userSpaceOnUse">
<stop stop-color="#c9c292" offset="0"/>
<stop stop-color="#948e6b" offset="1"/>
</linearGradient>
<linearGradient id="ad" x1="-819.2" x2="819.2" gradientTransform="matrix(-.0098 .0026 -.0071 -.0266 102.45 54.75)" gradientUnits="userSpaceOnUse">
<stop stop-color="#c9c292" offset="0"/>
<stop stop-color="#948e6b" offset="1"/>
</linearGradient>
<g id="g" transform="translate(2.9 .5)">
<use transform="translate(-2.9 -.5)" width="18.4" height="30.450001" xlink:href="#n"/>
</g>
<g id="n" transform="translate(2.9 .5)">
<path d="m7.15 1.55-0.7-0.45 0.3-1.1 0.45 0.2q1.05 7.35 7.8 14.45-6.15 6-9.1 13.95l4.4-13-3.15-14.05" fill="#b5ae7c" fill-rule="evenodd"/>
<path d="m5.5 29-2.8-13.8 4.45-13.65 3.15 14.05-4.4 13-0.3 0.85-0.1-0.45" fill="#aacc65" fill-rule="evenodd"/>
<path d="M 6.45,1.1 7.15,1.55 2.7,15.2 5.5,29 Q 3.75,21.35 -2.4,14.05 4.05,8.4 6.45,1.1" fill="#ede5ac" fill-rule="evenodd"/>
<path d="m7.15 1.55-0.7-0.45" fill="none" stroke="#000" stroke-linecap="round" stroke-linejoin="round" stroke-opacity=".10196"/>
<path d="m6.45 1.1q-2.4 7.3-8.85 12.95 6.15 7.3 7.9 14.95l0.1 0.45 0.3-0.85q2.95-7.95 9.1-13.95-6.75-7.1-7.8-14.45m-0.45-0.2-0.3 1.1" fill="none" stroke="#000" stroke-linecap="round" stroke-linejoin="round" stroke-opacity=".15294"/>
</g>
<g id="f" transform="translate(.05 2)">
<use transform="translate(-.05 -.5)" width="35.400002" height="35.400002" xlink:href="#e"/>
<use transform="matrix(.866 -.5 .4299 .7446 1.4 6.2)" width="16.4" height="16.4" xlink:href="#d"/>
<use transform="translate(8.05,2.9)" width="4.8499999" height="4.4000001" xlink:href="#k"/>
</g>
<g id="e" transform="translate(.5 .5)">
<use transform="translate(-.5 -.5)" width="35.400002" height="35.400002" xlink:href="#m"/>
</g>
<g id="m" transform="translate(.5 .5)">
<path d="m28.6 17.65q0 4.8-3.35 8.15t-8.15 3.35q-4.75 0-8.1-3.35t-2.8-4.45q0.5-1.15 13.65-4.45-11.55-6.65-10.85-7.35 3.35-3.35 8.1-3.35 4.8 0 8.15 3.35t3.35 8.1" fill="#1f8fc7" fill-opacity=".8" fill-rule="evenodd"/>
<path d="m20.1 0.25q5.25 0.8 9.25 4.8 5.05 5.05 5.05 12.15t-5.05 12.15q-4.65 4.65-11.1 5.05 16.5-12.5 1.85-34.15" fill="#176891" fill-opacity=".8" fill-rule="evenodd"/>
<path d="m18.25 34.4h-1.05q-7.1 0-12.15-5.05t-5.05-12.15 5.05-12.15 12.15-5.05l2.9 0.25q14.65 21.65-1.85 34.15" fill="#1f8fc7" fill-opacity=".8" fill-rule="evenodd"/>
<path d="m20.1 0.25q5.25 0.8 9.25 4.8 5.05 5.05 5.05 12.15t-5.05 12.15q-4.65 4.65-11.1 5.05h-1.05q-7.1 0-12.15-5.05t-5.05-12.15 5.05-12.15 12.15-5.05z" fill="none" stroke="#17170c" stroke-linecap="round" stroke-linejoin="round" stroke-opacity=".25098"/>
<path d="m15.75 8.25-1.7-3.7m8.4 4.7 1.45-3.65m2.8 9.25 3.1-0.95" fill="none" stroke="#abe3ff" stroke-linecap="round" stroke-linejoin="round" stroke-opacity=".2"/>
<path d="m1.55 13.9h0.1q1.35 4.35 2 5.4 2 3.6 6 3.6l2.4-0.3 2.5-0.3q1.5 0 2.2 0.6 1 0.85 1 3.1t-1.4 3.9q-1.5 1.8-3.8 1.8-3.55 0-7-4.6-4-5.35-4-13.2" fill="#29b8ff" fill-rule="evenodd"/>
<path d="m22.7 2.25q3.5 2.25 6.8 6.15l0.35 0.35q5.45 7.4 0 17.1l-1.35 2.15q-3.8 3.25-6.9 3.85 6.5-7.15 7-15.45 0.45-8.35-5.9-14.15" fill="#176891" fill-rule="evenodd"/>
</g>
<g id="d">
<use width="16.4" height="16.4" xlink:href="#l"/>
</g>
<g id="l">
<path d="m14 14q-2.4 2.4-5.8 2.4t-5.8-2.4-2.4-5.8 2.4-5.8 5.8-2.4 5.8 2.4 2.4 5.8-2.4 5.8" fill="url(#ac)" fill-rule="evenodd"/>
</g>
<radialGradient id="ac" cx="0" cy="0" r="819.2" gradientTransform="matrix(.011 0 0 .011 8.2 8.2)" gradientUnits="userSpaceOnUse">
<stop stop-color="#f9fede" offset="0"/>
<stop stop-color="#fff" stop-opacity="0" offset="1"/>
</radialGradient>
<g id="k" transform="translate(-8.05,-2.9)">
<path d="m12.15 6.65q-0.7 0.65-1.7 0.65t-1.7-0.65-0.7-1.55 0.7-1.55 1.7-0.65 1.7 0.65q0.75 0.65 0.75 1.55t-0.75 1.55" fill="#fff" fill-rule="evenodd"/>
</g>
<g id="c" transform="translate(28,28)">
<use transform="translate(-28,-28)" width="56" height="56" xlink:href="#j"/>
</g>
<g id="j" transform="translate(28,28)">
<path d="m19.8-19.8q8.2 8.2 8.2 19.8t-8.2 19.8-19.8 8.2-19.8-8.2-8.2-19.8 8.2-19.8 19.8-8.2 19.8 8.2" fill="url(#ab)" fill-rule="evenodd"/>
</g>
<radialGradient id="ab" cx="0" cy="0" r="819.2" gradientTransform="scale(.0349)" gradientUnits="userSpaceOnUse">
<stop stop-color="#fff" stop-opacity=".8" offset="0"/>
<stop stop-color="#fef18a" stop-opacity="0" offset="1"/>
</radialGradient>
</defs>
</svg>
