<?xml version="1.0" encoding="UTF-8"?>
<svg version="1.1" viewBox="0 0 45.036 64.5" xmlns="http://www.w3.org/2000/svg" xmlns:cc="http://creativecommons.org/ns#" xmlns:dc="http://purl.org/dc/elements/1.1/" xmlns:rdf="http://www.w3.org/1999/02/22-rdf-syntax-ns#" xmlns:xlink="http://www.w3.org/1999/xlink">
<metadata>
<rdf:RDF>
<cc:Work rdf:about="">
<dc:format>image/svg+xml</dc:format>
<dc:type rdf:resource="http://purl.org/dc/dcmitype/StillImage"/>
</cc:Work>
</rdf:RDF>
</metadata>
<g transform="translate(-252.81 -167.72)">
<use transform="translate(252.85,167.75)" width="45" height="64.449997" xlink:href="#a"/>
</g>
<defs>
<g id="a" transform="translate(-.05)">
<use transform="translate(.05)" width="45" height="64.449997" xlink:href="#b"/>
</g>
<g id="b" transform="translate(-.05)">
<path d="m37.35 1.8-0.25 3.4-2.1 1.1-1.5-3.95 0.7-2.35 3.15 1.8m-5.25 20h-0.2l0.05-0.1 0.15 0.1-0.15-0.1 0.5-1.6 0.1-0.4q1.65 0.6 3.1 1.45-1.45-0.85-3.1-1.45l0.45-1.35 3.4-0.45 1.55 1.8-1.3 0.8-1 0.65-0.7 0.45-0.55 0.4-2.3-0.2m2.85-0.2-2.5-1.5 2.5 1.5m1.7-1.1-3.7-2 3.7 2m-7.3 16.4 0.55 0.95-0.5 3.45-0.05 0.15-0.3-0.1-2.3-0.9-2.4-0.95-0.35-5 2.8-2.15 2.55 4.55" fill="#ff0" fill-opacity=".50196" fill-rule="evenodd"/>
<path d="m18.2 27.3 2.65-3.35 2.15-0.55-4.1 3.65 5.55-1.75-5.55 1.75 4.1-3.65 1.4-0.35 0.05 2.25v1.8l0.05 1.05v0.25l-4.5 2.3-0.25-0.15-0.6-0.35-0.35-0.25-0.4-0.2-1.45-0.85 0.2-0.25 1.05-1.35 0.7-0.25-1.75 1.6 1.75-1.6-0.7 0.25m6.25-1-4.7 4.25 4.7-4.25m15.4-13.4 3.5 2.4 0.75 2.35-3.6 0.3-1.7-2.9 1.05-2.15m-4.15-0.1 0.45-3.6 3.25-1.1 1.85 1.5-3.05 2.9-2.5 0.3" fill="#f00" fill-opacity=".51372" fill-rule="evenodd"/>
<path d="m38.5 3.25 2.1-0.4 1.6 1.55-1.75 1.9-1.7-0.2-0.25-2.85m-3.95 9.8 2.25 1.3 0.15 1.75-2.75 0.85-0.8-2.05 1.15-1.85m-14.75 20.45 1.6-0.05 0.2 0.75 0.8 3.45-1.55 0.5-1.3 0.4-0.2 0.1-1.55-1.1-0.8-0.55-0.3-0.25 0.25-0.3 0.05-0.1 1.85-2.8 0.95-0.05" fill="#6cf" fill-opacity=".59216" fill-rule="evenodd"/>
<path d="m29.75 25.05 3.05-0.35 3.15 1.9-2.15 2.2-4.05-3.75 4.05 3.75-0.15 0.15-5.75-3.65 5.75 3.65-0.5 0.55-0.95 0.95-0.4-0.15-3.7-1.25-0.7-0.2-0.1-0.55 0.8 0.75-0.8-0.75-0.25-0.95-0.1-0.35v-0.1l-0.2-0.65-0.2-0.8 1.35-0.15 1.85-0.25m4.5-16.45 0.25 2.4-4.2-0.15-1.95-1.55 2.9-2.2 3 1.5m5.25 14.5 0.85-3.15 2.25-0.75 0.75 4.15-1.1 2.2-2.4-2-0.35-0.45 0.35 0.45-0.4-0.35 0.05-0.1" fill="#9f0" fill-opacity=".6" fill-rule="evenodd"/>
<path d="m0.1 63.75v-0.05l-0.05-0.05v-0.15q-0.05-0.2 0.05-0.35l0.1-0.2 0.15-0.15 0.05 0.1v0.1l0.15 0.2 0.3 0.35-0.55 0.25-0.2-0.05" fill="#5c3a2e" fill-rule="evenodd"/>
<path d="m2.75 62.55h0.3v0.15l-0.25 0.95-0.95 0.35h-0.2l-0.05-0.05h0.05l0.85-0.35q0.35-0.4 0.25-0.95v-0.1m-2 1.8-0.4-0.25-0.15-0.2-0.1-0.15 0.2 0.05 0.55-0.25 0.6 0.4-0.1 0.15-0.2 0.15-0.3 0.1h-0.1" fill="#3c271e" fill-rule="evenodd"/>
<path d="m12.85 49 0.7-0.8 0.2 0.25-0.2-0.25 0.6-0.65 1.35-1.45 0.15 0.25-0.15-0.25 0.9-1 0.15 0.25-0.15-0.25 0.75-0.85-0.3 0.75 0.15-0.15-1.35 1.5-1.25 1.4-0.25-0.2 0.25 0.2-0.65 0.7-0.65 0.75-0.25 0.25-9.2 10.2-0.2-0.3-0.05-0.1 0.2-0.2 0.45-0.5 8.6-9.35 0.2 0.25-0.2-0.25 0.2-0.2 0.25 0.2-0.25-0.2m3.5-1.9-0.1 0.1v-0.05 0.05-0.05l0.1-0.1v0.05m-14.85 14.7 0.1-0.6v-0.05l0.85-0.9 0.95-1 0.05 0.1 0.2 0.3-1 1.1-0.95 1.05-0.1-0.15-0.05-0.15 0.05 0.15 0.1 0.15-0.1 0.1h-0.05v-0.05l-0.05-0.05m0.95-1.55 0.05 0.25 0.15 0.25-0.15-0.25-0.05-0.25" fill="#c6a73d" fill-rule="evenodd"/>
<path d="m16.25 47.2-1.1 1.25-0.65 0.7-0.6 0.7-0.4 0.5-2.1 2.35-1.4 1.55-5.2 5.95-0.85 0.95-0.15 0.2-0.8 0.9-0.2 0.25-0.05 0.05-0.2-0.05-0.6-0.2-0.3-0.3-0.05-0.1 0.1-0.1 0.35 0.4 0.65 0.3h0.1-0.1l-0.65-0.3-0.35-0.4 0.95-1.05 1-1.1 9.2-10.2 0.65 0.9-0.65-0.9 0.25-0.25 0.65-0.75 0.75 0.7-0.75-0.7 0.65-0.7 1.25-1.4 0.9-1 0.05 0.1 0.45 0.05-0.45-0.05-0.05-0.1 0.45-0.5 0.7-0.8-0.65 1.45-0.7 1.55-0.1 0.1v0.05m-15.05 17.15-0.05 0.1v-0.1h0.05m3.6-4.15h-0.25l-0.65-0.3-0.25-0.25 0.25 0.25 0.65 0.3h0.25m-1 1.15h-0.2l-0.65-0.3-0.3-0.3 0.3 0.3 0.65 0.3h0.2m9.3-12.15 0.8 0.65-0.8-0.65m3.15-2.05-0.6-0.8 0.6 0.8m-1.1 1.3-0.75-0.7 0.75 0.7" fill="#895f2c" fill-rule="evenodd"/>
<path d="m1.35 61.45 0.05 0.05 0.05 0.2 0.05 0.1-0.15-0.35" fill="#824f3e" fill-rule="evenodd"/>
<path d="m0.35 62.8-0.05-0.25q-0.05-0.35 0.05-0.6l0.2-0.35q0.3-0.3 0.75-0.35v0.05l0.05 0.05v0.1l0.15 0.35 0.05 0.05v0.05h0.05l0.05 0.1 0.25 0.25-0.25 0.4-0.3 0.25-0.6 0.1h-0.35v-0.1l-0.05-0.1" fill="#694634" fill-rule="evenodd"/>
<path d="m1.9 62.25 0.05 0.05 0.6 0.2 0.2 0.05v0.1q0.1 0.55-0.25 0.95l-0.85 0.35h-0.2l-0.6-0.4-0.3-0.35-0.15-0.2h0.35l0.6-0.1 0.3-0.25 0.25-0.4" fill="#563c2b" fill-rule="evenodd"/>
<path d="m1.65 64-0.1 0.15-0.35 0.2h-0.45 0.1l0.3-0.1 0.2-0.15 0.1-0.15h0.15l0.05 0.05" fill="#301f18" fill-rule="evenodd"/>
<path d="m17.7 45.55-1.35 1.55v-0.05l0.7-1.55 0.65 0.05-0.65-0.05 0.65-1.45-0.7 0.8-0.15 0.15 0.3-0.75 0.95-1.05 0.25 0.4 1.05 0.1-1.05-0.1-0.25-0.4 0.05-0.05 0.55-0.65 0.05-0.05 0.55-0.2q0.25 0 0.4 0.25l0.05 0.2 0.1 0.5-0.1 0.1-0.25 0.3-0.1 0.1-1.3 1.4-0.4 0.45" fill="#211d1b" fill-rule="evenodd"/>
<path d="m37.35 1.8-0.25 3.4-2.1 1.1-1.5-3.95 0.7-2.35 3.15 1.8m-23.55 22.1-1.95 0.6-1.05 0.35-1.75 0.55-3.75 13.95 4.55 6.15 1.4 1.85m4.25-1.25-5.25-7.05 0.75-2.7-0.85-1.4 1.6-1.45 1.25-4.55 5.2-1.65 2.65-3.35 2.15-0.55 2.5-2.25 4.25 3.9 3.05-0.35 3.15 1.9-2.15 2.2 0.85 0.8 3.8 2.45-2.8 13.5-0.5 0.1-0.15 1.45-5.35-0.45-12.15 2.15-1.25-1.6v-0.05m5.4 4.55 14.55-2.6m3.35-22.5-7.45-4.8h-0.2l0.05-0.1-3.85-2.4-14.3 4.6m3.35 4.75 1.75-1.6-0.7 0.25-1.05 1.35-0.2 0.25 1.45 0.85 0.4 0.2 0.35 0.25 0.6 0.35 4.7-4.25v-1l-5.55 1.75 4.1-3.65 1.4-0.35 0.05 2.25 2.3-0.75 1.15 0.75 1.85-0.25 4.05 3.75-0.15 0.15 1 0.65 2.2 2.05-1.7 14-5.5 1-11.95-1.1-0.65-0.05-0.45-0.05-0.05-0.1-0.15-0.25-5.4-8.75 0.75-2.85 5.4-4.85m7.3-2.35 0.35-0.3 0.25 0.25m1.7 0-0.2-0.8 1.35-0.15 5.75 3.65-0.5 0.55m1.55 2.7 0.8 0.5-0.3 1.5m-1.5 7.2-0.2 1.05-1.6 0.3-0.1 0.65-0.15 1.4-2.05-0.15-1.25-0.1-0.75-0.1-3.6-0.3-0.4 0.05-1.3 0.25-0.25 0.05-1.65 0.3-0.8-1.05-0.2-0.05-1.05-0.1-0.25-0.4-4.4-7.2 2.6-2.3-1.1 4.05 2.35 3.2 0.7 0.95 0.45 0.6m5.75-16.2v0.8l0.05 1.05v0.25l-4.5 2.3-0.25-0.15-1.9 1.7m7.75-5.5-0.55-0.5m0.75 0.7-0.2-0.2m1.35 0.15-0.2-0.65m11.75-23 2.1-0.4 1.6 1.55-1.75 1.9-1.7-0.2-0.25-2.85m1.35 9.65 3.5 2.4 0.75 2.35-3.6 0.3-1.7-2.9 1.05-2.15m-4.15-0.1 0.45-3.6 3.25-1.1 1.85 1.5-3.05 2.9-2.5 0.3m-1.45-4.2 0.25 2.4-4.2-0.15-1.95-1.55 2.9-2.2 3 1.5m0.3 4.45 2.25 1.3 0.15 1.75-2.75 0.85-0.8-2.05 1.15-1.85m-2.1 7.05 0.1-0.4 0.45-1.35 3.4-0.45 1.55 1.8-1.3 0.8-1 0.65m-0.7 0.45 0.7-0.45m3.85 1.95 0.85-3.15 2.25-0.75 0.75 4.15-1.1 2.2-2.4-2-0.4-0.35 0.05-0.1m3.25 5.6 1.55 0.95-0.6 2.75v0.15l-2.3 11.15-0.55 2.65-0.45 2-1.45 0.25-2.5 0.45-0.25 0.05m-17.85 3.15-3.05 0.55-1.8-2.45-0.65-0.9-0.2-0.25-1.4-1.85m14.55-20.4 0.65 0.55 0.6-0.15-0.1-0.35v-0.1m8-5.3-0.55 0.4-2.3-0.2-0.15-0.1 0.5-1.6m9.7 8.2 0.6 0.4m-23.7 23.45-0.7 0.1m3.3-0.55-2.6 0.45m-3.4-5.8-0.15-0.25m16.95-15.9-0.25 0.25-0.4-0.15 1.3 0.85m-0.65-0.95 0.7-0.7m-1.2 12.7-0.05 0.25v0.3l-0.45 0.1m2.55-2.8 1.2-5.75v-0.1m-0.85-2.2-1.25-0.85m1.6 1.05-0.35-0.2m-4.95 9.3 1.3-0.25 0.9-7.3-1.1-1.05-4.15-2.65-4.15 1.35-2.4 2.1 1.6-0.05 0.2 0.75 3.75-3.35 4.3 3.95-0.3 2.1 0.55 0.95-0.5 3.45-0.05 0.15-0.3-0.1-1.15 0.2 2.7 0.25 0.1-0.75 0.3-0.05 1.45-7.05-1.95-1.25-4.8-4.45-3.5 3.15-3 0.95-0.35 1.2 0.95-0.05m8.3-4.45-0.7-0.2-0.1-0.55-0.85-0.8-1.95 0.65m-7.5 8.2 1.85-2.8m8.45-5.25 0.8 0.75 3.7 1.25m2.2 9.75-0.3 1.35m-13.1 2.45-1-0.1-0.1-0.15m-3.85 2.75 0.6 0.8m10.5-6.7-2.4-0.95-0.35-5 2.8-2.15 2.55 4.55m2.6 5.3 1.05-8.55-4.9-4.6m3.1 13.85 0.25-0.05m-10.2 1.05-0.65-0.05m2.55 0.2-1.9-0.15m7.8-2.55-2.3-0.9-4.75-0.45-1.15-1.85-1.3 0.4 1.5 2.4 6.85 0.6-6.35 1.15-3.8-5.05 0.05-0.1-0.8-0.55-0.3-0.25 0.25-0.3 0.05-0.1m6.15 7.7 0.85 0.1 7.2-1.25m-13.2-12.7 0.6-0.15 0.2-0.1m-2.45 3.7 0.95-0.85 0.55-0.55m0.15-2.05-0.85 0.3-0.85 3.2 0.05-0.05m3.2 4.9-0.2 0.1-1.55-1.1m3.8-3.35 0.8 3.45-1.55 0.5m6.45-9.85-0.25-0.95m15.1 0.95-2.6-1.7" fill="none" stroke="#a86651" stroke-linecap="round" stroke-linejoin="round" stroke-width=".05"/>
<path d="m28.3 18.65q-6.25-1.4-11.95 1.65l-0.95 0.5q-2.75 1.65-4.6 4.05-2 2.5-3 5.8-2.15 7 1.25 13.4l0.8 1.45m1.4 1.85 1.6 1.65 0.25 0.2m23.1-0.1q3.65-3.15 5.15-8.1 2.15-7-1.2-13.4l-0.6-1q-1.85-3.05-4.6-5m-11.3 23.35-1.1-0.3-0.5-0.15-1.45-0.65-0.85-0.55m4.7-16.55h1.15l1.35 0.15m1.35-8.25 1.45 0.4q1.4 0.45 2.7 1.05l2.5 1.5m-12.45 31.7-3.1-0.7-1.05-0.35q-2.45-0.9-4.45-2.4l-0.8-0.65m22.35 0.5-2.65 1.7q-5 2.6-10.3 1.9m13.7-4.2-0.75 0.6m-2.35-18.55-0.65-0.95m0.65 0.95 0.25 0.45q1.75 3.35 0.65 7-0.7 2.1-2.05 3.6m-3.6 2.35q-2.25 0.85-4.7 0.4m6.9-1.55-1.05 0.6-1.15 0.55m2.85-1.65 0.75-0.7m-0.75 0.7-0.65 0.5m-12.15-13.65-0.4 0.45q-1 1.3-1.55 3l-0.1 0.45q-0.9 3.4 0.75 6.55l0.45 0.75m0.7 0.95 0.5 0.55" fill="none" stroke="#895f2c" stroke-linecap="round" stroke-linejoin="round" stroke-width="2"/>
<path d="m11.85 24.5q-1.55 2.25-2.4 5.05-1.35 4.25-0.55 8.3-0.35-3.35 0.75-6.85 1.25-4.2 4.15-7.1 1.85-1.95 4.4-3.3 4.85-2.6 10.1-1.95m-12.9 2.15q-2.1 1.6-3.55 3.7m1.7 23.7q-1.55-1.65-2.65-3.8-1.75-3.25-2-6.55 0.45 2.55 1.8 5.1 1.4 2.65 3.45 4.6l0.25 0.2 0.75 0.7q2.55 2 5.9 3.05l0.6 0.2m11.3-33.2-1.55-0.55q-7-2.2-13.4 1.2-1.45 0.75-2.6 1.65m9.65 5.45h1.7m6.4 3.25 1.05 1.6 0.5 1.1m0.5 2 0.05 0.35q0.35 2.1-0.3 4.3l-1.25 2.55-1 1.2-0.9 0.8-1.35 0.85-0.85 0.4q-2.85 1.15-5.95 0.3l-0.15-0.05-1.2-0.45-1.05-0.55-1.5-1.2m5.3-16.45-0.6 0.05m0 0.8 1.35-0.15m6.75-7.25-0.95-0.3-3.3-0.75m7.35 2.5q-1.45-0.85-3.1-1.45m4.1 0.8 2.85 2.6 0.35 0.45 1.95 2.95 0.95 2.2q0.7 1.8 0.95 3.7l0.1 0.65q0.7 4-0.6 8.3-0.85 2.75-2.35 5l-1.9 2.25q-1.85 1.8-4.3 3.1-5.85 3.1-12.15 1.6l-1.25-0.35-2.2-0.8q-2.55-1.15-4.55-3l-0.75-0.7-0.2-0.25m13.4-21.2-1.15-0.05m9.85-5.8q4 2.4 6.35 6.8l0.15 0.35q1.05 2.05 1.55 4.25l0.1 0.5q0.3 3.3-0.8 6.85l-1.6 3.8q-1.85 3.2-4.95 5.35l-1 0.65-1 0.55q-6.15 3.25-12.8 1.45m11.3-33.2 3.7 2m-4.75 21.95q1.3-1 2.1-2.4m1.2-5.75-0.85-2.3-0.05-0.15q-0.65-1.2-1.45-2.05m-15 2.45-0.45 1.2q-0.45 1.45-0.4 2.9m18.2-2.05 0.05 0.25q0.15 1.7-0.4 3.55l-0.85 1.95m1.2-5.85-0.5-2m-3.25 10.65 0.45-0.4m-0.45 0.4-0.9 0.55-0.2 0.1-2.75 0.95-4-0.25-0.2-0.05-0.25-0.1m-6.15-7.05q0.25 1.35 0.95 2.7 1.7 3.2 5.2 4.35m-4.55-14 0.1-0.15m-1.4 2.9v-0.1q0.45-1.5 1.3-2.65m0.7 12.2-1.25-1.8q-0.9-1.7-1.05-3.45m-0.05-0.55q-0.25-1.8 0.35-3.65m0.55-0.55q0.5-1.15 1.3-2.05" fill="none" stroke="#58382b" stroke-linecap="round" stroke-linejoin="round" stroke-width="2"/>
<path d="m12.85 49 0.7-0.8 0.6-0.65 1.35-1.45 0.9-1 0.75-0.85m-0.9 2.95-1.1 1.25-0.65 0.7-0.6 0.7-0.4 0.5-2.1 2.35-1.4 1.55-5.2 5.95-0.85 0.95m13.75-15.6-1.35 1.55-0.1 0.1m3.15-3.5-1.3 1.4-0.4 0.45m-13.9 15.8-0.8 0.9m-0.2 0.25-0.05 0.05h0.3v0.15l-0.25 0.95-0.95 0.35h-0.2l-0.1 0.15-0.35 0.2-0.05 0.1m0-0.1h-0.4l-0.4-0.25-0.15-0.2-0.1-0.15v-0.05l-0.05-0.05v-0.15q-0.05-0.2 0.05-0.35l0.1-0.2 0.15-0.15-0.05-0.25q-0.05-0.35 0.05-0.6l0.2-0.35q0.3-0.3 0.75-0.35v0.05l0.05 0.05v0.1m0.25-0.3 0.85-0.9 0.95-1m0.2-0.2 0.45-0.5 8.6-9.35 0.2-0.2m-11.25 12.9 0.05 0.1 0.3 0.3 0.6 0.2 0.2 0.05m-1.15-0.65h-0.05v-0.05l-0.05-0.05-0.15-0.35m-1 1.35 0.05 0.1v0.1l0.15 0.2 0.3 0.35 0.6 0.4h0.15l0.05 0.05m-0.45 0.35h-0.05m18.35-20.75-0.1 0.1m-1.3-0.5-0.95 1.05m2.6-0.95-0.25 0.3m0.35-0.4-0.1 0.1m-1.05-0.8-0.55 0.65-0.05 0.05" fill="none" stroke="#000" stroke-linecap="round" stroke-linejoin="round" stroke-width=".05"/>
<path d="m3.95 61.15-0.15 0.2m-0.8 0.9-0.2 0.25h-0.1l-0.65-0.3-0.35-0.4-0.1-0.15-0.05-0.15 0.05-0.3m1.8-1.95 0.2-0.2m0.05 0.6 0.25 0.25 0.65 0.3h0.25m-1.15-0.55-0.2-0.3-0.05-0.1m-0.75 1.5 0.3 0.3 0.65 0.3h0.2m-1.15-0.6-0.15-0.25-0.05-0.25" fill="none" stroke="#000" stroke-linecap="round" stroke-linejoin="round"/>
</g>
</defs>
</svg>
