<?xml version="1.0" encoding="UTF-8"?>
<svg version="1.1" viewBox="0 0 28.739 32.998" xmlns="http://www.w3.org/2000/svg" xmlns:cc="http://creativecommons.org/ns#" xmlns:dc="http://purl.org/dc/elements/1.1/" xmlns:rdf="http://www.w3.org/1999/02/22-rdf-syntax-ns#" xmlns:xlink="http://www.w3.org/1999/xlink">
<metadata>
<rdf:RDF>
<cc:Work rdf:about="">
<dc:format>image/svg+xml</dc:format>
<dc:type rdf:resource="http://purl.org/dc/dcmitype/StillImage"/>
</cc:Work>
</rdf:RDF>
</metadata>
<g transform="translate(-257.34 -187.59)">
<use transform="matrix(.2558 0 0 .2558 257.35 187.6)" width="112.3" height="128.95" xlink:href="#a"/>
</g>
<defs>
<g id="a">
<use width="112.3" height="128.95" xlink:href="#b"/>
</g>
<g id="b">
<path d="m92.4 36.95-0.25-0.5-0.55 0.85-4.1 1.6-0.2-0.55 4.85-1.9 5.75-2.35-0.45 0.8 0.45-0.8 4.5-1.85 5.3-2.15-0.05 0.05-2.05 1.45-3.7 1.5-4.45 1.8-5.05 2.05m-57.55 23.3-0.2-0.55 34.1-13.8 5.05-2.05 13.5-5.5-0.5 0.85-12.15 4.95-0.65 0.25-0.2-0.55-0.5 0.8v0.05l-1.9 0.75-0.95 0.4-0.45 0.15-1 0.45-0.25-0.55-0.45 0.8-33.45 13.55m67.05-27.15 0.5-0.85-0.5 0.85m-73.4 36.2-0.2 0.25-0.95-2.15 6.9-6.8-5.75 8.7" fill="#bcbcbc" fill-rule="evenodd"/>
<path d="m91.6 37.3 0.55-0.85 0.25 0.5-0.8 0.35m6.3-3.2-5.75 2.35-4.85 1.9 0.2 0.55-0.7 0.3 0.5-0.85-13.5 5.5-5.05 2.05-34.1 13.8 0.2 0.55-0.55 0.25-1.2-2.9 1.2 2.9-0.05 0.1-6.9 6.8-1.65-3.65 0.6-0.2-0.2-0.7-0.45-1.45-0.1 0.05-0.85 0.2-1.4-3.15 9.4-1 0.4 0.1v-0.1l35.7-14.45 0.45-0.15 0.95-0.4 1.95-0.8 1.3-0.5 26.3-10.65 4.45-1.85 0.2-0.05 4.7-1 3.2-0.7-4.45 3.1-0.2 0.1 0.05-0.05-5.3 2.15 1.8-3.55-1.8 3.55-4.5 1.85 1.85-3.55-1.85 3.55m9.95-4.05-0.15 0.05 1.4-2.45-1.4 2.45 0.15-0.05m-38.85 16.4-0.7 0.25 0.45-0.8 0.25 0.55m4.3-1.75v-0.05l0.5-0.8 0.2 0.55-0.7 0.3m-66.35-32.85-0.2-0.05-0.45-0.55q-0.15-0.3-0.05-0.7 0.2-0.45 0.6-0.6l0.65-0.1-0.1 1.9-0.3 0.05-0.15 0.05m40.65 109.05 0.4-0.35 0.75-0.1 0.1 0.1-0.35 1.8-0.65 0.05-0.45-0.55v-0.05l0.2-0.9" fill="#ccc" fill-rule="evenodd"/>
<path d="m81.5 61.85 5.5 1.85-12.8 26.15v0.15l-19.15 38.95-17.55-5.95 6.2-12.65 0.25-0.4 25.55-52.2 5.85 1.95v0.05l0.05-0.05 1.65 4.45 2.3-1.15-0.85-2.1 0.1-0.1 1.75 0.65 1.15 0.4m-70.6-39.95-10.9-3.45 8.65-18.45 62.95 19.95-3.45 7.25-0.05 0.2-0.4 0.8-1 2.05-0.15 0.15-0.8-2-2.2 1.15 0.5 1.3-1.6-0.3q-3.6-0.95-6.55-2.75 2.95 1.8 6.55 2.75l1.6 0.3 1.15 2.9-0.1 0.05-2.2 4.65-52-16.55-2-5.35 0.5 0.1q3.55 0.75 6.8 2.25l6.2 3.2q3.2 1.6 6.15 3.45 3.05 1.85 6.8 1.5l7.75-1.25q2.85-0.6 4.9 1.65l2.45 2.25 2.2 1.8-2.2-1.8-2.45-2.25q-2.05-2.25-4.9-1.65l-7.75 1.25q-3.75 0.35-6.8-1.5-2.95-1.85-6.15-3.45l-6.2-3.2q-3.25-1.5-6.8-2.25l-0.5-0.1 2 5.35m36.55 10.85q-1.9-3.7-5.2-2.55 3.3-1.15 5.2 2.55m19.95-5.8-1.25-1q-2.3-2-6.2-2.2-3.5-0.2-6.75-1.6-3.45-1.35-5.5-4.25-1.95-2.65-4.85-4.3-3-1.65-6.35-2.7 3.35 1.05 6.35 2.7 2.9 1.65 4.85 4.3 2.05 2.9 5.5 4.25 3.25 1.4 6.75 1.6 3.9 0.2 6.2 2.2l1.25 1m2-4.95q-1.9-0.8-3.5-1.8-2.65-1.5-5.95-1.95-3.4-0.45-5.3-2.5 1.9 2.05 5.3 2.5 3.3 0.45 5.95 1.95 1.6 1 3.5 1.8m-13.5 5.8q0.85 2 2.25 3.3 2.3 2.2 5.55 3.8-3.25-1.6-5.55-3.8-1.4-1.3-2.25-3.3m6.65 8.95q-2.45-0.1-4.8-1.55-2.6-1.65-5.1-3.7 2.5 2.05 5.1 3.7 2.35 1.45 4.8 1.55m-28.3-18-3.8-1.25 3.8 1.25m-8.3 0.7q-3.65-1.4-5.2-4.6 1.5-2.4 5.35-2.4 3.7 0 6.85 1.8l6.6 3.25q1.9 0.8 2.15 2.75 0.4 3.8-4.75 3-3.2-0.55-5.95-1.75l-5.05-2.05 5.05 2.05q2.75 1.2 5.95 1.75 5.15 0.8 4.75-3-0.25-1.95-2.15-2.75l-6.6-3.25q-3.15-1.8-6.85-1.8-3.85 0-5.35 2.4 1.55 3.2 5.2 4.6m10.55-8.55-5-1.3 5 1.3m-27.35-8 3.15-0.15 4.4 0.3-4.4-0.3-3.15 0.15m22.35 6.7q-2.95-0.8-6.5-0.6-3.45 0.25-6.15 0.1l-5.85-0.55q-3.35-0.55-5.45-2.55 2.1 2 5.45 2.55l5.85 0.55q2.7 0.15 6.15-0.1 3.55-0.2 6.5 0.6m-24 0.25-0.65 0.1q-0.4 0.15-0.6 0.6-0.1 0.4 0.05 0.7l0.45 0.55 0.2 0.05 0.15-0.05 0.3-0.05 0.1-0.05 0.5-0.6 0.05-0.75-0.5-0.45-0.05-0.05m65.15 49.7q-0.35 0.9-0.35 1.8 0 3.85-1.35 7.6l-2.9 7.25-3.2 7.25q-1.6 3.4-4.75 6.3-2.95 2.75-5.4 6.15-2.3 3.3-3.6 7.25-1.3 3.85-2.95 7.25l-2.55 5.1 2.55-5.1q1.65-3.4 2.95-7.25 1.3-3.95 3.6-7.25 2.45-3.4 5.4-6.15 3.15-2.9 4.75-6.3l3.2-7.25 2.9-7.25q1.35-3.75 1.35-7.6 0-0.9 0.35-1.8m7.6 3.2q-2.45 2.6-2.5 6.4 0 1.55-0.55 3.6-0.85 3.5 0.45 6.7-1.3-3.2-0.45-6.7 0.55-2.05 0.55-3.6 0.05-3.8 2.5-6.4m-11.2 31.3-6.4 4.7q-3.5 2.45-5.8 5.75-2.2 3.15-3.55 7l-2.55 7.65 2.55-7.65q1.35-3.85 3.55-7 2.3-3.3 5.8-5.75l6.4-4.7 3.9-3.65-3.9 3.65m-1.7 7.6q-0.55 0.25-0.75 0.45-3.2 2.05-5.75 4.9-2.7 2.95-2.85 6.8-0.2 3.3-1.75 7-1.45 3.45-1.85 7.15 0.4-3.7 1.85-7.15 1.55-3.7 1.75-7 0.15-3.85 2.85-6.8 2.55-2.85 5.75-4.9 0.2-0.2 0.75-0.45m-18.5 18.9-0.1-0.1-0.75 0.1-0.4 0.35-0.2 0.25q-0.15 0.3 0 0.65v0.05l0.45 0.55 0.65-0.05 0.15-0.05 0.5-0.55 0.05-0.8-0.35-0.4m-3.25-5.05 2 5.4-2-5.4-1 1.9 1-1.9-1.9-5.15 1.9 5.15m-4.2 8.25 3.2-6.35-3.2 6.35m9.35-4.6-2.15 7.2 2.15-7.2" fill="#fbe8ca" fill-rule="evenodd"/>
<path d="m72.15 41.7-1.95 0.8-5.25-13.2-0.95 0.5 5.25 13.1-0.45 0.15-3.6-9.3-1.15-2.9-0.5-1.3 2.2-1.15 0.8 2 0.15-0.15 0.15-0.25 0.7-0.35 0.05 0.2 4.55 11.85m-2.15 4.3 0.45-0.15 7.1 17.7 0.9-0.35-7.05-17.75 1.9-0.75 6 15.65-0.7 0.45-0.1 0.1 0.85 2.1-2.3 1.15-1.65-4.45-0.05 0.05v-0.05l-5.35-13.7m-62.5-36.15 0.05 0.05 0.5 0.45-0.05 0.75-0.5 0.6-0.1 0.05 0.1-1.9m41.35 110.7 0.35 0.4-0.05 0.8-0.5 0.55-0.15 0.05 0.35-1.8m-1.45 1.25q-0.15-0.35 0-0.65l0.2-0.25-0.2 0.9" fill="#999" fill-rule="evenodd"/>
<path d="m67.55 28.7 0.05 1.15-0.05-0.2-0.7 0.35 0.7-1.3" fill="#666" fill-rule="evenodd"/>
<path d="m73.45 41.2-1.3 0.5-4.55-11.85-0.05-1.15 0.15-0.5 0.4-0.8 5.35 13.8m5.15 19.6 0.7-0.45-6-15.65 0.7-0.3 0.65-0.25 6.85 17.7-1.15-0.4-1.75-0.65" fill="#838383" fill-rule="evenodd"/>
<path d="m70.2 42.5-0.95 0.4-5.25-13.1 0.95-0.5 5.25 13.2m1.2 2.95 7.05 17.75-0.9 0.35-7.1-17.7 0.95-0.4" fill="#fff" fill-rule="evenodd"/>
<path d="m23.3 58.5-1.35-3 1.45 0.3 9.3 1.7-9.4 1" fill="#dbdbdb" fill-rule="evenodd"/>
<path d="m91.6 37.3 0.8-0.35 5.05-2.05 0.45-0.8 1.85-3.55-26.3 10.65-1.3 0.5-1.95 0.8-0.95 0.4-0.45 0.15-35.7 14.45v0.1l1.2 2.9 0.55-0.25m52.65-21.35 4.1-1.6m-4.8 1.9 0.7-0.3m12.25-8.35 4.45-1.85 0.2-0.05 4.7-1 3.2-0.7-4.45 3.1-0.2 0.1-2.05 1.45-3.7 1.5-4.45 1.8m11.65-7.25-1.4 2.45 0.15-0.05m-0.2 0.1 0.05-0.05m-5.3 2.15-0.5 0.85m0.5-0.85 1.8-3.55m-75.7 40.6-0.2 0.25-0.95-2.15-1.65-3.65 0.6-0.2-0.2-0.7-0.45-1.45-0.1 0.05-0.85 0.2-1.4-3.15-1.35-3 1.45 0.3 9.3 1.7 0.4 0.1m33.75-27.6-0.15 0.25m-1.5 3.5-0.1 0.05m5.35 12.05-0.45 0.15-1 0.45-0.7 0.25-33.45 13.55m40.5-0.55v0.05l0.05-0.05m-2.1-15-1.9 0.75m-0.95 0.4 0.95-0.4m2.6-1.05 0.65-0.25 12.15-4.95m-12.8 5.2-0.7 0.3m-66.35-32.85-0.2-0.05-0.45-0.55q-0.15-0.3-0.05-0.7 0.2-0.45 0.6-0.6l0.65-0.1 0.05 0.05 0.5 0.45-0.05 0.75-0.5 0.6-0.1 0.05-0.3 0.05m27.2 48.7-0.05 0.1-5.75 8.7m19.1 51.6 0.4-0.35 0.75-0.1 0.1 0.1 0.35 0.4-0.05 0.8-0.5 0.55-0.15 0.05-0.65 0.05-0.45-0.55v-0.05q-0.15-0.35 0-0.65l0.2-0.25" fill="none" stroke="#666" stroke-linecap="round" stroke-linejoin="round" stroke-width=".05"/>
<path d="m81.5 61.85 5.5 1.85-12.8 26.15v0.15l-19.15 38.95-17.55-5.95 6.2-12.65m-32.8-88.45-10.9-3.45 8.65-18.45 62.95 19.95-3.45 7.25-0.05 0.2m-0.4 0.8 0.4-0.8m-0.4 0.8-0.15 0.5m-2.45 5.1-2.2 4.65-52-16.55m64.45 37.8-5.85-1.95-25.55 52.2-0.25 0.4m37.8-48.5-1.15-0.4" fill="none" stroke="#55390f" stroke-linecap="round" stroke-linejoin="round" stroke-width=".05"/>
<path d="m54.65 15.75q1.9 2.05 5.3 2.5 3.3 0.45 5.95 1.95 1.6 1 3.5 1.8m-32.9-11.1q3.35 1.05 6.35 2.7 2.9 1.65 4.85 4.3 2.05 2.9 5.5 4.25 3.25 1.4 6.75 1.6 3.9 0.2 6.2 2.2l1.25 1m-25.15 3.25q3.3-1.15 5.2 2.55m5.2-1.25q2.5 2.05 5.1 3.7 2.35 1.45 4.8 1.55m1.15-1.85q-3.25-1.6-5.55-3.8-1.4-1.3-2.25-3.3m-48.35-21.8q2.1 2 5.45 2.55l5.85 0.55q2.7 0.15 6.15-0.1 3.55-0.2 6.5 0.6m-14.8-6.55-4.4-0.3-3.15 0.15m68.5 76.55q-1.3-3.2-0.45-6.7 0.55-2.05 0.55-3.6 0.05-3.8 2.5-6.4m-11.2 31.3 3.9-3.65m-18.55 37.55q0.4-3.7 1.85-7.15 1.55-3.7 1.75-7 0.15-3.85 2.85-6.8 2.55-2.85 5.75-4.9 0.2-0.2 0.75-0.45m-18.75 24.7 2.15-7.2" fill="none" stroke="#e3ccac" stroke-linecap="round" stroke-linejoin="round" stroke-width=".05"/>
<path d="m8.9 16.55 0.5 0.1q3.55 0.75 6.8 2.25l6.2 3.2q3.2 1.6 6.15 3.45 3.05 1.85 6.8 1.5l7.75-1.25q2.85-0.6 4.9 1.65l2.45 2.25 2.2 1.8m3.25-3.7q2.95 1.8 6.55 2.75l1.6 0.3m-32.55-21.25 5 1.3m-10.55 8.55 5.05 2.05q2.75 1.2 5.95 1.75 5.15 0.8 4.75-3-0.25-1.95-2.15-2.75l-6.6-3.25q-3.15-1.8-6.85-1.8-3.85 0-5.35 2.4 1.55 3.2 5.2 4.6m4.5-1.95 3.8 1.25m11.35 96.75 2.55-5.1q1.65-3.4 2.95-7.25 1.3-3.95 3.6-7.25 2.45-3.4 5.4-6.15 3.15-2.9 4.75-6.3l3.2-7.25 2.9-7.25q1.35-3.75 1.35-7.6 0-0.9 0.35-1.8m-21.9 59.6 2.55-7.65q1.35-3.85 3.55-7 2.3-3.3 5.8-5.75l6.4-4.7" fill="none" stroke="#e3ccac" stroke-linecap="round" stroke-linejoin="round" stroke-width=".05"/>
<path d="m67.55 28.7 0.05 1.15m10.9 31.05 0.1-0.1" fill="none" stroke="#876214" stroke-linecap="round" stroke-linejoin="round" stroke-width=".05"/>
<path d="m64.05 30.85-0.5-1.3 2.2-1.15m-0.55 5.35-1.15-2.9m5.95 15.15 5.35 13.7m0.05 0 1.65 4.45 2.3-1.15m-10.55-19.95-3.6-9.3" fill="none" stroke="#737373" stroke-linecap="round" stroke-linejoin="round" stroke-width=".05"/>
<path d="m68.1 27.4 5.35 13.8m1.2 2.95 6.85 17.7" fill="none" stroke="#3e3e3e" stroke-linecap="round" stroke-linejoin="round" stroke-width=".05"/>
<path d="m43.7 110.35-15.2-41.05m-2.4-6.45-0.55-1.4m-2.15-5.65-12.5-33.9-2-5.35m-1.8-4.75-0.15 0.05m40.65 109.05-2-5.4m2 5.4-0.2 0.9m-3.7-11.45 1.9 5.15" fill="none" stroke="#ccc" stroke-linecap="round" stroke-linejoin="round" stroke-width=".05"/>
<path d="m7.4 11.75 0.1-1.9m41.35 110.7-0.35 1.8" fill="none" stroke="#fff" stroke-linecap="round" stroke-linejoin="round" stroke-width=".05"/>
<path d="m44.6 117.4-3.2 6.35" fill="none" stroke="#edd8b9" stroke-linecap="round" stroke-linejoin="round" stroke-width=".05"/>
<path d="m45.6 115.5-1 1.9" fill="none" stroke="#f4c175" stroke-linecap="round" stroke-linejoin="round" stroke-width=".05"/>
</g>
</defs>
</svg>
