<?xml version="1.0" encoding="UTF-8"?>
<svg version="1.1" viewBox="0 0 319.45 275.98" xmlns="http://www.w3.org/2000/svg" xmlns:cc="http://creativecommons.org/ns#" xmlns:dc="http://purl.org/dc/elements/1.1/" xmlns:rdf="http://www.w3.org/1999/02/22-rdf-syntax-ns#" xmlns:xlink="http://www.w3.org/1999/xlink">
<metadata>
<rdf:RDF>
<cc:Work rdf:about="">
<dc:format>image/svg+xml</dc:format>
<dc:type rdf:resource="http://purl.org/dc/dcmitype/StillImage"/>
</cc:Work>
</rdf:RDF>
</metadata>
<g transform="translate(-84.8 -74.07)">
<use transform="translate(84.8,74.1)" width="319.45001" height="275.89999" xlink:href="#a"/>
</g>
<defs>
<g id="a" transform="translate(-84.8,-74.1)">
<path d="m365.1 86.4q1.05-5.25-0.6-11.4 15.35-0.1 28.9 4.65 2.45 1.35 4.35 3.1-6.65-0.8-10 6.75 1.3 4.3 0.2 7.7l-13.5-6.7q-0.4-1.9-3.15-2.45-4.65 1.1-6.2-1.65m27.5 27.65q1.6-1.1 2.65-2.55 1.4-3-3.4-6.05-0.1-5.6 6.55-3.6 2.65 1.6 5.3-8.1 1.65 8.35-1.85 20.4l-14.6 17.45q-2.65-2.95-4.35 1.9-1.9 4.95-2.85-5.9l0.2-0.4 0.4-0.85 11.95-12.25v-0.05 0.05-0.05m-17 25.9q0.8 3.9 3.7 4.2l3.6-1.9-6 21.15 1.2 3.65 4.15 3.75q-0.3 2.2-3.35 2.6-2.4-2-3.95-4.4l3.15-1.95-3.15 1.95q-1.35-2.15-2.1-4.65-1.2-4.1-0.65-9.15 1.45-8.45 3.4-15.25m-2.75 24.4 4.05-0.95-4.05 0.95m-169.35 161.7q5.15 3.8 7.65 11.45 2.4 4.6-2.9 7.35 0.25-8.2-5.45-14.3l0.7-4.5-0.7 4.5-3.75-2.5-18.4 1.55q2-2.65 2.2-6.4l7.3-0.85q4.4-0.1 8 1l0.05 0.05 0.7 1 0.35-0.65 1.45 0.6q1.5 0.75 2.8 1.7m-5.5 18.35-1.3-2.95 5.85-3.2q-0.05 1.95-0.6 4.5l-3.95 1.65m-87.45-24q-1.2-25.7 12.8-55.8 2.15-1.75 4.3 2.1l1.35 9.8q5.55 3.55 9.75-4.75 1.85-5.65 0-15.15 2.6-7.25 8.75-10.75 4.4-4.7 0.35-17.2l3.5-3.65q4.1-15.85-0.9-37.05 1.75 1.45 4.2 0.7l1.6-0.7q5.8-3.7 1.35-7.45-5.95 0.75-8.05-5.05-1.15-6.15 1.05-7.7 22.6 17.6 54.75 27.05l3.2-0.75q-3.95 7.45 1.85 12.15-15.8-0.75-8.65 4.3 3.9 1.4 3.7 5.35-12.45 2.2-30.45 13.85-1.6-2-2.55-4.4-6-3.7-9.8 8.4-1.15 3-0.9 5.7-13.85 15.8-24.25 40.8l-2 5.75q-2 1.5-4.15 5.35 0.85 1.45 1.3 2.85v0.05l-3.4 7.05q-2.6 0-4.6 3.55 0.75 3.8 2.4 6.5-1 14.8 4.2 17l5.2 0.4q-0.2 10.6-14.5 8.4-4.95-5-4.05-13.45-1.15-9.1-7.35-3.25m25-155.9q-9.2-14.4 0-10.55l7.75 7.65q-6.55-1.25-7.75 2.9m107.3-1.15 2.4-7.15-1.15-5.7q5.7 3.4 9.25 0 5.35-2.7 0-9.6 0.35-2.3 2.25-3.05v-0.05q2-0.8 5.65 0.05 7-3.5-1.4-9.1 4.4-6.2 9.75-11.75l4.35-3.05q-16.2 1-32.4-4.2l4.75 4.4-1.55 7.9q-4.8-0.5-8 5.4-4.2-10.55-10.1-22.05 5.4 5.55 13.25-3.45 16.2 11.8 40.85 4.75 7.95-6.45 17.3-11.95 4.35 3.5 6.7 7.6-14.75 1.05-20.55 17.95 1.7 4.7 8.05 1.65-3.15 8.55-9.95 13.45-2.45-4.7-7.75 0.65-3.35 4.8-1.1 9.6l-2.85 4.3-0.05 0.05-3.95 2.35q-3.55 4.8-3.9 9.2l-9.9 2.4q-3.9-3.2-9.95-0.6m-62.75 34.7q-1.2-2.8-3.65-3.75-3.5-0.3-5.5 0.7l-11.2-2.6-5.1-3.7q5.35 17.15 2.7 30.35l3.65-2.65q5.85-4.7 12.2-8.5 0.2 2.05 1.65 3.6 1.75 1.9 5.35 3 10.05 1.55 13.1-11.1-1.9-10.25-7.05-6.4l-0.8 2.15-5.35-1.1m-32.9 147.15q1.75-3.85-3.05-5.05 3.75-5.2 12.95-10.4l4.5-1.6q2.85-1.05 6.15-1.95-0.5 4.25 2.7 7.2-8.95 7.7-23.25 11.8m53.5-20.85-1.65 3.7 1.65-3.7" fill="#0cc" fill-rule="evenodd"/>
<path d="m336 98.05q3.35-9.65 0.65-19.25 2.7 9.6-0.65 19.25l-1.4 3.4-0.35-2.85q-1.95-10.3-13.3-14.9 11.35 4.6 13.3 14.9l-17.45 5.45-10.1 3.15q-0.65-2.55-1.95-4.85-2.35-4.1-6.7-7.6 4.35-5.85 12.65-6.7 1.85-2.65 4.55-3.65 2.7-1.05 5.7-0.7 8-6.3 15.7-4.9 6.4-4.05 14.6-2.85-0.4 7.45-3.8 14.35l-2.95 5.05 2.95-5.05q3.4-6.9 3.8-14.35 7.3-3.15 13.25-0.95 1.65 6.15 0.6 11.4l-0.75 2.75-14.5 4.55q-0.85-1.7-2.4-3.4 1.55 1.7 2.4 3.4l-5.35 1.65-8.5 2.7m-127.45 96 3.6-1.45q6.5-5.75 12.95-7.25 0.5-0.95 2.65-3.4 2.1-2.5 5.9-4.15 3.05-7.5 7.25-10.4l1.95-4.05q6.05-2.6 9.95 0.6 1.25 1 2.25 2.6l-6.3 8.55-2.75 4.25-5.75 8.75-8.15 5.95-5.2-3-1.8-5.7 1.8 5.7 5.2 3-3.45 2.55-1.75-5.55 1.75 5.55-6.45 4.65-2.2 0.95-9.55 4h-0.05q-5.8-4.7-1.85-12.15m25.1-16.25q3 6.8 6.6 10.3-3.6-3.5-6.6-10.3m7.25-10.4 2.2 5.1 2.9 6.85-2.9-6.85-2.2-5.1m69.8-79.35q5.85 8 6.1 16-0.25-8-6.1-16m-67.6 84.45 5.65 2.6-5.65-2.6m-30.95 20.1q2.85 5.8 7.85 9.6-5-3.8-7.85-9.6" fill="#f5e2bc" fill-rule="evenodd"/>
<path d="m364.35 89.15 0.75-2.75q1.55 2.75 6.2 1.65 2.75 0.55 3.15 2.45l-10.1-1.35m23.4 8.55 0.2-0.5q1.1-3.4-0.2-7.7 3.35-7.55 10-6.75 4.6 4.3 5.95 11-2.65 9.7-5.3 8.1-6.65-2-6.55 3.6 4.8 3.05 3.4 6.05-1.05 1.45-2.65 2.55l-4.55-16.4-0.3 0.05m-12.15 42.25q2-7.05 4.45-12.35 0.95 10.85 2.85 5.9 1.7-4.85 4.35-1.9l-4.35 10.65-3.6 1.9q-2.9-0.3-3.7-4.2m15.1 23.3 0.9 5.3-4.55 0.25 3.65-5.55m-11.8 10.15q3.05-0.4 3.35-2.6l11.2 3.7q-3.2 5.7-7.8 2.85-3.95-1.7-6.75-3.95m-260.95 170.9q-2.95-2.75-4.8-6.8-2.2-8.3-2.6-17.1 6.2-5.85 7.35 3.25-0.9 8.45 4.05 13.45 14.3 2.2 14.5-8.4 5.65 5.7 20.65 1.05-9.2 5.2-12.95 10.4 4.8 1.2 3.05 5.05-13.55 2.65-29.25-0.9m5.4-79.7 1-2.1q10.25-19.6 23.5-33.85 4.05 12.5-0.35 17.2-6.15 3.5-8.75 10.75 1.85 9.5 0 15.15-4.2 8.3-9.75 4.75l-1.35-9.8q-2.15-3.85-4.3-2.1m27.1-76.65-1.7-6.4q-7.1-7.85-13.2-17.05 1.2-4.15 7.75-2.9l7.3 6.15q-2.2 1.55-1.05 7.7 2.1 5.8 8.05 5.05 4.45 3.75-1.35 7.45l-1.6 0.7q-2.45 0.75-4.2-0.7m93.65-37.45q-2.55-10.9-7.35-23.05 3.2-5.9 8-5.4l5.7 12.8 5.15 3q-1.9 0.75-2.25 3.05 5.35 6.9 0 9.6-3.55 3.4-9.25 0m-17.45-45.1q-5.9-11.45-13.5-23.85-1.35-12.7 9.9 0 7.75 9.3 13.95 18.1l2.9 2.3q-7.85 9-13.25 3.45m-55.7 89.6q2-1 5.5-0.7 2.45 0.95 3.65 3.75l-9.15-3.05m14.5 4.15 0.8-2.15q5.15-3.85 7.05 6.4-3.05 12.65-13.1 11.1-3.6-1.1-5.35-3-1.45-1.55-1.65-3.6l1.65 3.6 5.55-1.9q6.4-0.6 8.85-7.3l-3.8-3.15m119.3-96.8q1.3 2.3 1.95 4.85-11.2 5.65-14.45 14.75-6.35 3.05-8.05-1.65 5.8-16.9 20.55-17.95m-44.9 26.4q8.4 5.6 1.4 9.1-3.65-0.85-5.65-0.05l1.55-5.15 2.7-3.9m10.7 21.25-7.85 11.55q0.35-4.4 3.9-9.2l3.95-2.35m2.9-4.35q-2.25-4.8 1.1-9.6 5.3-5.35 7.75-0.65l-8.85 10.25m-98.45 84.05-13.25 9.7q-0.25-2.7 0.9-5.7 3.8-12.1 9.8-8.4 0.95 2.4 2.55 4.4m30.45-13.85q0.2-3.95-3.7-5.35-7.15-5.05 8.65-4.3h0.05l1.5 1.1q1.3 7.95-6.5 8.55m-69.95 70.1-2.85 8.2q-0.45-1.4-1.3-2.85 2.15-3.85 4.15-5.35m-6.25 15.3-2.2 10.05q-1.65-2.7-2.4-6.5 2-3.55 4.6-3.55m41.2 32.15q-3.2-2.95-2.7-7.2 6.6-1.85 15.1-3-0.2 3.75-2.2 6.4l-10.2 3.8" fill="#00a8cc" fill-rule="evenodd"/>
<path d="m357.25 98.95q5.15-4.4 7.1-9.8l10.1 1.35q0.25 1.25-0.5 3.1-0.8 2.6-5.1 4.25-4.95 0.05-11.4 1.3l-0.2-0.2m30.5-1.25 0.3-0.05 4.55 16.4q-3.1 2.05-8.35 2.65 2.75-10.55-2.15-15.2 3.65 1.4 5.65-3.8m-4.85 44.55 4.35-10.65q3.5 3 4.3 6.85l-4.1 7.45-1.9 3.4q1.6-4.8-2.65-7.05m8.7 26.3-0.9-5.3 5.7 3.05q-1.3 5.2-2.95 8.2l-11.2-3.7v-3.9q1.5 1.7 4.8 1.9l4.55-0.25m-254.95 181.45q-12.15 0.4-18.7-5.7 15.7 3.55 29.25 0.9-2.6 3.1-10.55 4.8m34.3-155 9.15 3.05 0.75 2.35q3 1.5 4.6-1.25l3.8 3.15q-2.45 6.7-8.85 7.3l-5.55 1.9-1.65-3.6 4.25-2.4q-4.7-2.9-9.1-6.15 0.1-3.2 2.6-4.35m135.75-87.8q1.55 6.1-0.85 13.3-5.8 4.35-10.7 9.5 3.05-9.25 0-9.7l-2.9 1.65q3.25-9.1 14.45-14.75m-22.45 36.95-1 1.6q-9.1 15.35-16.65 25.9-4.35-4.75-3.9-10.1l7.85-11.55 0.05-0.05 3.95-2.4-1.1-1.9 8.85-10.25q1.45 2.7 1.95 8.75m-28.65-6.35v0.05l-5.15-3-5.7-12.8q3.45 0.3 7.75 4 1.95 4.25 3.5 8.35l1.15-1.75-1.55 5.15m-100.3 122.45q-3-2.35 2-9.7 8.3-2.7 6.7-5.4-2-2.7-2.25-5.75l13.25-9.7q2.95 3.65 8.05 5.75-16.25 9.2-27.75 24.8m-19.8 25.7q2.95-2.35 5.5 0.6-3.15 7.85-5.55 16.65-2.1 7.6-2.35 13.2-3.8-1.55-6.05-5.1l2.2-10.05q1 0 2.1 0.5 2.55-3.45 1.3-7.55v-0.05l2.85-8.2m82.8-77.35q2 5.65-2.4 9.2l-0.95 0.55q-8.55 5.15-20.05 11.05-4.4-3.75 2.1-7.45 8.05-3.05 8.45-6.1 7.8-0.6 6.5-8.55 1.65 1 3.85 1.9l2.5-0.6m-37.65 121q-1.75 2.3-4.85 3.8-3.9 1.9-5.35 0l10.2-3.8" fill="#0092b0" fill-rule="evenodd"/>
<path d="m368.85 97.85q4.3-1.65 5.1-4.25 0.75-1.85 0.5-3.1l13.5 6.7-0.2 0.5q-2 5.2-5.65 3.8-4.05-3.8-13.25-3.65m23.75 16.2v0.05l-11.95 12.25q2.45-5.35 3.6-9.65 5.25-0.6 8.35-2.65m-1.05 24.4q-0.8-3.85-4.3-6.85l14.6-17.45q-3.15 10.65-10.3 24.3m-10.3 26.65q0.35 1.05 1 1.8v3.9l-4.15-3.75-1.2-3.65 4.05-0.95-4.05 0.95 6-21.15q4.25 2.25 2.65 7.05-4.4 8.35-4.6 13.15-0.05 1.5 0.3 2.65l-3.15 1.95 3.15-1.95m-173 179.75q-3.15 1.55-8.95 2.5l-1.3-2.95 3.95-1.65q0.55-2.55 0.6-4.5 0.05-1.85-0.45-3.15-1.05-2.95-4.65-3.35-5.7-0.7-17.8 5.05-26.6 12.6-43 13.2 7.95-1.7 10.55-4.8 14.3-4.1 23.25-11.8 1.45 1.9 5.35 0 3.1-1.5 4.85-3.8l18.4-1.55-1.6 3.7 1.6-3.7 3.75 2.5-0.7 4.55 0.7-4.55q5.7 6.1 5.45 14.3m-28.15-146.8 5.35 1.1q-1.6 2.75-4.6 1.25l-0.75-2.35m-19.1 18.35-3.65 2.65q2.65-13.2-2.7-30.35l5.1 3.7 11.2 2.6q-2.5 1.15-2.6 4.35-4.45-3.3-8.6-6.95 4.35 13.25 1.25 24m134.15-86.4q-6.15 6.45-10.9 14.15-0.5-6.05-1.95-8.75 6.8-4.9 9.95-13.45l2.9-1.65q3.05 0.45 0 9.7m-28.55 41.65v0.05l-0.65 0.9q-3.85 4.05-9.35 1.65l0.8-2.45q-1-3.15-2.35-5.25-1-1.6-2.25-2.6l9.9-2.4q-0.45 5.35 3.9 10.1m-21.85-49.6 1.55-7.9-4.75-4.4q16.2 5.2 32.4 4.2l-4.35 3.05q-12.9 3.6-23.3-2.85 3.5 6.05 6.2 11.9-4.3-3.7-7.75-4m28.7 23.6 1.1 1.9-3.95 2.4 2.85-4.3m-111.7 93.75q0.25 3.05 2.25 5.75 1.6 2.7-6.7 5.4-5 7.35-2 9.7-8.45 11.45-14.3 26.3-2.55-2.95-5.5-0.6l2-5.75q10.4-25 24.25-40.8m21.3-3.95q-5.1-2.1-8.05-5.75 18-11.65 30.45-13.85-0.4 3.05-8.45 6.1-6.5 3.7-2.1 7.45l-7.1 3.5q-2.45 1.2-4.75 2.55m-50.4 58.75q1.25 4.1-1.3 7.55-1.1-0.5-2.1-0.5l3.4-7.05m-5.6 17.1q2.25 3.55 6.05 5.1-0.4 8.45 3.35 12.3l-5.2-0.4q-5.2-2.2-4.2-17" fill="#00aeae" fill-rule="evenodd"/>
<path d="m336 98.05 8.5-2.7 5.35-1.65 14.5-4.55q-1.95 5.4-7.1 9.8l-0.4 0.35q-3.45 2.3-6.7 1.4-6.75 3.8-13.5 3.85-2.4 2.6-4.65 1.7l2.6-4.8-2.6 4.8q-8.85 5.85-17.25 8.3-4.25 4.45-8.9 5.95 2.4-7.2 0.85-13.3l10.1-3.15q0.15 5.25-2.05 10.5 2.2-5.25 2.05-10.5l17.45-5.45 0.35 2.85 1.4-3.4m14.15 2.65q1.4-3.5-0.3-7 1.7 3.5 0.3 7m-5.65-5.35q-3.2 4.75-7.85 9.2 4.65-4.45 7.85-9.2m-112.4 98.7 8.15-5.95q2.3 2.2 4.8 3.05-2.5-0.85-4.8-3.05l5.75-8.75 2.75-4.25 6.3-8.55q1.35 2.1 2.35 5.25l-0.8 2.45q0.35 3.2-2.15 3.4h-0.05l-0.25 0.5q-0.8 6.6-5.2 8.1-0.8 4.25-3.9 4.9-2.05 5.35-6.55 6.6l-6.4-3.7 6.4 3.7q-3.1 5.4-7.75 5.6-1.65 2.95-3.05 2.7l-1.45-0.35q-3.45-1.45-6.25-3.5 2.8 2.05 6.25 3.5-2.65 4.1-7.95 2.9l-2.5 0.6q-2.2-0.9-3.85-1.9l-1.5-1.1 9.55-4 2.2-0.95 6.45-4.65 3.45-2.55m22.3-16.4-5.65-2.55 5.65 2.55m-5.45 8.6-2.95-6.9 2.95 6.9m-20.3 10.35 2.1 6.75-2.1-6.75" fill="#ebc77a" fill-rule="evenodd"/>
<path d="m392.6 114.1v-0.05m-11.35 51.05-6.3 3.9m1.95-5.6 4.05-0.95m-4.05 0.95-4.05 0.95-169.35 161.7-0.7 4.5m-51.45-105.55q4.1-15.85-0.9-37.05l-1.7-6.4q-7.1-7.85-13.2-17.05-9.2-14.4 0-10.55l7.75 7.65 7.3 6.15q22.6 17.6 54.75 27.05m39.9-38.6-1.15-5.7q-2.55-10.9-7.35-23.05-4.2-10.55-10.1-22.05-5.9-11.45-13.5-23.85-1.35-12.7 9.9 0 7.75 9.3 13.95 18.1l2.9 2.3q16.2 11.8 40.85 4.75m-112.4 92.65q4.4 3.25 9.1 6.15m78.55-71.1q-1.55-4.1-3.5-8.35-2.7-5.85-6.2-11.9 10.4 6.45 23.3 2.85m-70.55 211.05 1.65-3.7m-1.65 3.7-1.6 3.7m4.65 3.35 0.7-4.55m-43.05-138.15q4.15 3.65 8.6 6.95m-7.35 17.05q3.1-10.75-1.25-24" fill="none" stroke="#339" stroke-linecap="round" stroke-linejoin="round" stroke-width=".05"/>
<path d="m357.45 99.15q6.45-1.25 11.4-1.3m28.9-15.1q-1.9-1.75-4.35-3.1-13.55-4.75-28.9-4.65m39.2 18.75q-1.35-6.7-5.95-11m-17.7 44.85q-2.45 5.3-4.45 12.35-1.95 6.8-3.4 15.25-0.55 5.05 0.65 9.15 0.75 2.5 2.1 4.65 1.55 2.4 3.95 4.4m1.15-45.8 0.2-0.4 0.4-0.85q2.45-5.35 3.6-9.65 2.75-10.55-2.15-15.2-4.05-3.8-13.25-3.65m33 16.3q3.5-12.05 1.85-20.4m-18.15 55.55 1.9-3.4 4.1-7.45q7.15-13.65 10.3-24.3m-45-14.85 0.6-0.15m33.25 64.1-3.65 5.55 4.55-0.25m1.85 5.95q1.65-3 2.95-8.2l-5.7-3.05m-8.45 3.65q-0.65-0.75-1-1.8-0.35-1.15-0.3-2.65 0.2-4.8 4.6-13.15m-3.3 17.6q1.5 1.7 4.8 1.9m6.4 5.7q-3.2 5.7-7.8 2.85-3.95-1.7-6.75-3.95m-175.4 152.65q5.15 3.8 7.65 11.45 2.4 4.6-2.9 7.35-3.15 1.55-8.95 2.5l-2.6-5.9 5.85-3.2q0.05-1.85-0.45-3.15-1.05-2.95-4.65-3.35-5.7-0.7-17.8 5.05-26.6 12.6-43 13.2-12.15 0.4-18.7-5.7-2.95-2.75-4.8-6.8-2.2-8.3-2.6-17.1-1.2-25.7 12.8-55.8l1-2.1q10.25-19.6 23.5-33.85l3.5-3.65m54-30.2 3.2-0.75m34.3-30.7 2.4-7.15m35.5-49.5q7.95-6.45 17.3-11.95m-124.85 113.15q-6.35 3.8-12.2 8.5m16.45-10.9-4.25 2.4m132.65-87.4q-5.8 4.35-10.7 9.5-6.15 6.45-10.9 14.15l-1 1.6q-9.1 15.35-16.65 25.9v0.05l-0.65 0.9q-3.85 4.05-9.35 1.65m-2.15 3.4-0.3 0.5m15.45-61.15q-5.35 5.55-9.75 11.75l-2.7 3.9-1.15 1.75m-115 152.15q5.85-14.85 14.3-26.3 11.5-15.6 27.75-24.8m-49.95 80.95q0.25-5.6 2.35-13.2 2.4-8.8 5.55-16.65m26.75 39.65q-3.3 0.9-6.15 1.95l-4.5 1.6q-15 4.65-20.65-1.05-3.75-3.85-3.35-12.3m85.2-107.8q2 5.65-2.4 9.2l-0.95 0.55q-8.55 5.15-20.05 11.05l-7.1 3.5q-2.45 1.2-4.75 2.55m15.1 87.9q-8.45-4.25-11.9-11.35-3.15-10.1 3-7l3.5 4.05q-0.2-2.05 0-4.15 3.5-12.15 8.15-5.65l0.85 3.65q2.3 11.8-2.5 20.85l1.45 0.6q1.5 0.75 2.8 1.7m-4.25-2.3-1.05-0.35 0.7 1 0.35-0.65m-1.05-0.35v-0.05 0.05l-0.05-0.05q-3.6-1.1-8-1l-7.3 0.85q-8.5 1.15-15.1 3m25-17.15q5.05 6.85 5.45 14.3-4.8-7.15-5.45-14.3m9.8 29.2q-0.05 1.95-0.6 4.5" fill="none" stroke="#339" stroke-linecap="round" stroke-linejoin="round" stroke-width=".05"/>
<path d="m336.65 78.8q2.7 9.6-0.65 19.25m8.5-2.7 2.95-5.05q3.4-6.9 3.8-14.35m-30.3 7.75q11.35 4.6 13.3 14.9l0.35 2.85 1.4-3.4m28.35-8.9 0.75-2.75q1.05-5.25-0.6-11.4m-0.15 14.15q-1.95 5.4-7.1 9.8m-7.4-5.25q-0.85-1.7-2.4-3.4m2.4 3.4q1.7 3.5 0.3 7m6.7-1.4 0.4-0.35m-22.65 2.5-2.6 4.8m4.65-1.7q4.65-4.45 7.85-9.2m-116.75 86.6q2.1-2.5 5.9-4.15 3.05-7.5 7.25-10.4l1.95-4.05m-17.75 22 1.8 5.7 5.2 3 6.4 3.7m1.75-9.65q-3.6-3.5-6.6-10.3m-6.75 13.25 1.75 5.55m16.4-5.45q-2.5-0.85-4.8-3.05m5.75-8.75-2.9-6.85-2.2-5.1m63.85-65.05q1.3 2.3 1.95 4.85 1.55 6.1-0.85 13.3m10.95-16.45q-0.25-8-6.1-16m4.05 26.5q2.2-5.25 2.05-10.5m-12.05-1.7q-2.35-4.1-6.7-7.6m-49.3 80.35 5.65 2.55h0.05m-8.45 1.7 2.95 6.9m-0.2-11.15-5.65-2.6m-12.35 30.85-2.1-6.75m-8.65 5.6q2.8 2.05 6.25 3.5m-6.25-3.5q-5-3.8-7.85-9.6" fill="none" stroke="#960" stroke-linecap="round" stroke-linejoin="round" stroke-width=".05"/>
<path d="m351.25 75.95q-8.2-1.2-14.6 2.85-7.7-1.4-15.7 4.9m43.55-8.7q-5.95-2.2-13.25 0.95m-1.1 24.75q3.25 0.9 6.7-1.4m-20.2 5.25q6.75-0.05 13.5-3.85m-18.15 5.55q2.25 0.9 4.65-1.7m-128.1 89.5 3.6-1.45q6.5-5.75 12.95-7.25 0.5-0.95 2.65-3.4m70.3-87.2q4.35-5.85 12.65-6.7 1.85-2.65 4.55-3.65 2.7-1.05 5.7-0.7m-82.45 114.05q4.5-1.25 6.55-6.6m60.8-70.65q4.65-1.5 8.9-5.95 8.4-2.45 17.25-8.3m-75.4 68q0.35 3.2-2.15 3.4m-0.3 0.5q-0.8 6.6-5.2 8.1-0.8 4.25-3.9 4.9m10-24.6q1.35 2.1 2.35 5.25l-0.8 2.45m-3.8-10.3q1.25 1 2.25 2.6m-2.25-2.6q-3.9-3.2-9.95-0.6m-32.45 42.85q-5.8-4.7-1.85-12.15m17.7 11.65 1.45 0.35q1.4 0.25 3.05-2.7 4.65-0.2 7.75-5.6m-12.25 7.95q-2.65 4.1-7.95 2.9m-6.35-1.3q1.65 1 3.85 1.9l2.5-0.6m-7.85-2.4h-0.05m1.55 1.1-1.5-1.1" fill="none" stroke="#960" stroke-linecap="round" stroke-linejoin="round" stroke-width=".05"/>
<path d="m155.95 136q9.45 9.95 9.45 24t-9.45 24-22.8 9.95-22.8-9.95q-9.4-9.95-9.4-24t9.4-24q9.45-9.95 22.8-9.95t22.8 9.95" fill="url(#d)" fill-rule="evenodd"/>
<path d="m139.8 284.45q9.45 9.95 9.45 24t-9.45 24-22.8 9.95-22.8-9.95q-9.4-9.95-9.4-24t9.4-24q9.45-9.95 22.8-9.95t22.8 9.95" fill="url(#c)" fill-rule="evenodd"/>
<path d="m260.15 87.7q9.45 9.95 9.45 24t-9.45 24-22.8 9.95-22.8-9.95q-9.4-9.95-9.4-24t9.4-24q9.45-9.95 22.8-9.95t22.8 9.95" fill="url(#b)" fill-rule="evenodd"/>
</g>
<radialGradient id="d" cx="0" cy="0" r="819.2" gradientTransform="matrix(.0396 0 0 .0417 133.15 160)" gradientUnits="userSpaceOnUse">
<stop stop-color="#fff" stop-opacity=".66275" offset="0"/>
<stop stop-color="#fff" stop-opacity=".05098" offset="1"/>
</radialGradient>
<radialGradient id="c" cx="0" cy="0" r="819.2" gradientTransform="matrix(.0396 0 0 .0417 117 308.45)" gradientUnits="userSpaceOnUse">
<stop stop-color="#fff" stop-opacity=".66275" offset="0"/>
<stop stop-color="#fff" stop-opacity=".05098" offset="1"/>
</radialGradient>
<radialGradient id="b" cx="0" cy="0" r="819.2" gradientTransform="matrix(.0396 0 0 .0417 237.35 111.7)" gradientUnits="userSpaceOnUse">
<stop stop-color="#fff" stop-opacity=".66275" offset="0"/>
<stop stop-color="#fff" stop-opacity=".05098" offset="1"/>
</radialGradient>
</defs>
</svg>
