<?xml version="1.0" encoding="UTF-8"?>
<svg version="1.1" viewBox="0 0 20.905 58.1" xmlns="http://www.w3.org/2000/svg" xmlns:cc="http://creativecommons.org/ns#" xmlns:dc="http://purl.org/dc/elements/1.1/" xmlns:rdf="http://www.w3.org/1999/02/22-rdf-syntax-ns#" xmlns:xlink="http://www.w3.org/1999/xlink">
<metadata>
<rdf:RDF>
<cc:Work rdf:about="">
<dc:format>image/svg+xml</dc:format>
<dc:type rdf:resource="http://purl.org/dc/dcmitype/StillImage"/>
</cc:Work>
</rdf:RDF>
</metadata>
<g transform="translate(-314.27 -137.02)">
<use transform="translate(314.3,137.05)" width="20.9" height="58.049999" xlink:href="#a"/>
</g>
<defs>
<g id="a" transform="translate(-314.3,-137.05)">
<path d="m325.05 151.45v0.1l-1.65 0.45-0.05 0.05q-2.45-3.25-3.65-7.15l-0.05-0.25q1.35-1.75-4.05-3.65 3.85-1.2 4.65 3.1 0.1 1.3 0.65 2.3 0.9 1.5 2.15 2.8l1.2 1.15 0.8 1.1m8.7 30.4-0.05 1.4-0.4 1.6q-0.4 1.7-0.35 3.45 0.05 1.1 0.6 2.2 2.3 3.45-2.6 4.6 2.8-2 1.8-4.85-1.05-3.95-0.7-8h0.05l1.65-0.45v0.05" fill="#a45900" fill-rule="evenodd"/>
<path d="m325.05 151.55v-0.1h0.05l-0.05 0.05 0.05 0.05h-0.05m8.8 30.3h-0.1v-0.05l0.1 0.05" fill="#8cae00" fill-rule="evenodd"/>
<path d="m323.4 152 1.65-0.45h0.05l-0.05-0.05 0.05-0.05 2.3 3.4-0.9 0.25-0.9 0.2-2.2-3.3m3.8 4.05 0.15-0.05 0.65-0.2 0.8 1.4-1.75 0.7-0.85-1.6 1-0.25m2.2 5.6 1.2-0.3q0 3.1 3 4.3l-2.55 0.55-1.65-4.55m4.45 13.15 0.1 1.8-1 0.35-0.75 0.2-0.15-1.85 0.85-0.2 0.95-0.3m0.15 2.9-0.15 4.15-0.1-0.05-1.65 0.45 0.1-3.95 0.75-0.25h0.1l0.95-0.35" fill="#914f00" fill-rule="evenodd"/>
<path d="m328 155.8-0.65 0.2-0.15 0.05-0.7-0.95 0.9-0.25 0.6 0.95m-0.2 1.8 1-0.4q1.8 0.7 2.3 1.6l-1.9 0.35q-0.25-0.85-1.4-1.55m1.1 2.4 2.4-0.45q0 0.75-0.7 1.8l-1 0.25q0.65-1.4-0.7-1.6m4.35 10.55q1.55 0.65 1.9 1.5-1.15 0.7-2.5 0.85 0.6-1.15-0.25-2.1l0.85-0.25m1.9 2.5q-0.25 0.8-1.3 1.75l-0.95 0.3q0.6-0.6-0.15-1.15 1.2-0.15 2.4-0.9m-1.2 3.55 0.05 1.1-0.95 0.35-0.1-1.1 1-0.35" fill="#fff" fill-rule="evenodd"/>
<path d="m328.9 160-2.2 0.45v-0.1l-0.15-0.85 2.65-0.35 1.9-0.35 0.2 0.75-2.4 0.45m4.7 5.65q-1.8 2.2-0.35 4.9l-0.85 0.25-0.95 0.25-1.15-4.65 0.75-0.2 2.55-0.55m1.55 6.4v1q-1.2 0.75-2.4 0.9l-2.1-0.2q-0.25-0.5-0.2-1l2.2 0.15q1.35-0.15 2.5-0.85" fill="#653f01" fill-rule="evenodd"/>
<path d="m327.2 156.05-1 0.25-0.6-1 0.9-0.2 0.7 0.95m-0.15 1.85 0.75-0.3q1.15 0.7 1.4 1.55l-2.65 0.35q0-0.7 0.5-1.6m-0.35 2.55 2.2-0.45q1.35 0.2 0.7 1.6l-0.8 0.2q-1.65-0.45-2.1-1.35m4.75 10.6 0.95-0.25q0.85 0.95 0.25 2.1l-2.2-0.15q0.05-0.85 1-1.7m-0.8 2.7 2.1 0.2q0.75 0.55 0.15 1.15l-0.85 0.2q-1.05-0.8-1.4-1.55m1.55 3.4 0.75-0.2 0.1 1.1h-0.1l-0.75 0.25v-1.15" fill="#cbe1e2" fill-rule="evenodd"/>
<path d="m328.8 161.8 0.6-0.15 1.65 4.55-0.75 0.2-1.5-4.6" fill="#7f4500" fill-rule="evenodd"/>
<path d="m325.05 151.55h0.05l-0.05-0.05m0.05-0.05h-0.05m1.15 4.85 0.85 1.6m1.75-0.7-0.8-1.4-0.6-0.95m-1.2 1.45-0.6-1-2.2-3.3m7.9 7.55-0.2-0.75m-4.55 0.7 0.15 0.85m0 0.1q0.45 0.9 2.1 1.35m-2.25-2.3q0-0.7 0.5-1.6m-1.95-6.45 2.3 3.4m1.4 2.35q1.8 0.7 2.3 1.6m-0.5 2.55q0 3.1 3 4.3-1.8 2.2-0.35 4.9 1.55 0.65 1.9 1.5v1q-0.25 0.8-1.3 1.75l0.1 1.8 0.05 1.1-0.15 4.15h-0.1m-1 8.4-13.05-45.35m13.9 20.75-2.55 0.55-0.75 0.2 1.15 4.65q-0.95 0.85-1 1.7-0.05 0.5 0.2 1 0.35 0.75 1.4 1.55l0.15 1.85v1.15l-0.1 3.95m-1.5-20.9q0.7-1.05 0.7-1.8m-1 6.85-1.5-4.6" fill="none" stroke="#000" stroke-linecap="round" stroke-linejoin="round" stroke-opacity=".34118" stroke-width=".05"/>
<path d="m325.05 151.55v-0.1l-0.8-1.1-1.2-1.15q-1.25-1.3-2.15-2.8-0.55-1-0.65-2.3-0.8-4.3-4.65-3.1 5.4 1.9 4.05 3.65l0.05 0.25q1.2 3.9 3.65 7.15l0.05-0.05 1.65-0.45m1.65 8.9 2.2-0.45 2.4-0.45m-0.2-0.75-1.9 0.35-2.65 0.35m0.15 0.85v0.1m7.05 21.4-0.05 1.4-0.4 1.6q-0.4 1.7-0.35 3.45 0.05 1.1 0.6 2.2 2.3 3.45-2.6 4.6 2.8-2 1.8-4.85m-0.1-17.35q1.35-0.15 2.5-0.85m-4.7 0.7 2.2 0.15m-2 0.85 2.1 0.2q1.2-0.15 2.4-0.9m-3.05 9.2 1.65-0.45v0.05m-1.65 0.4h-0.05q-0.35 4.05 0.7 8" fill="none" stroke="#000" stroke-linecap="round" stroke-linejoin="round" stroke-opacity=".37255" stroke-width=".05"/>
<path d="m324.25 160.6h0.4l0.1 0.95h-0.25l-0.7-0.4 0.2-0.65 0.25 0.1m-0.9-2.85 0.4 0.05 0.1 0.95-0.25-0.05-0.7-0.35 0.2-0.7 0.25 0.1m1.45 5.35 0.45 0.1 0.1 1-0.25-0.05-0.7-0.4 0.15-0.75 0.25 0.1" fill="#6c3c00" fill-rule="evenodd"/>
<path d="m317.25 137.4-0.75-0.05q-1.4 0.1-1.25 1.35l0.2 0.75-0.45-0.35v-0.35l0.05-0.15q-0.1-1.5 1.3-1.55 0.6 0.1 0.9 0.35m6.4 11.4-0.25 0.2-2.4-0.05-1.2-0.5 0.1-0.05 0.3-0.35q0.5 0.85 1.65 0.45 1.15-0.45 1.8 0.3m-6.3-2.6-1.2-1.2-0.25 0.1-0.4 0.3h-0.05l-0.75 0.05-0.05-0.05-0.35-0.4q-0.05-0.3 0.35-0.55l0.75 0.2q-0.45-0.35-0.2-0.6 0.15-0.4 0.6 0.35 0.6-0.25 0.3-1.1l-0.3-0.75-0.2-1v-0.3l-0.05-0.2-0.15-0.7 0.25 0.3 0.25 0.9 0.7 2.8 0.45 0.95 0.3-0.1-0.05 0.25 0.15 0.6-0.1 0.15" fill="#d0a35e" fill-rule="evenodd"/>
<path d="m322.75 145.25h0.15l0.55 0.4v0.05l0.15 0.2h-0.05l-0.1-0.1-0.2-0.05-0.1 0.15v0.2l0.1 0.05v0.25l0.1 0.15h0.15l0.15-0.15 0.05-0.1v0.2l-0.05 0.6-0.65-0.05-0.15-1.4-0.1-0.4m-3.2 3.2-0.95-0.3q-0.65-0.4-1-1-0.3-0.45-0.25-0.8v-0.15l0.1-0.15 0.15-0.15 0.7-0.05 0.95 0.5 0.5 0.5q0.7 1.3-0.2 1.6m-1.3-1.7-0.1-0.15h-0.25l-0.1 0.2-0.05 0.15 0.1 0.15 0.1 0.05v0.05l0.2 0.2h0.25l0.2-0.15v-0.3l-0.15-0.2h-0.2" fill="#bee0df" fill-rule="evenodd"/>
<path d="m323.65 147.1-0.1 0.15-0.4 0.4h-0.15v-0.6l0.65 0.05m-3.85 1.35h-0.25q0.9-0.3 0.2-1.6l0.35 0.6 0.1 0.6-0.3 0.35-0.1 0.05" fill="#4fa6a4" fill-rule="evenodd"/>
<path d="m319.7 138.65v-0.15l0.25 0.2-0.1 0.75-0.15-0.8m2.7 5.75 0.25 0.6-0.4-0.2 0.15-0.4m0.55 3.5 0.65 0.3 0.05 0.05-0.2 0.1h-0.05l-0.3-0.2-0.2-0.1 0.05-0.15m-1.45-3.15q-1.25-2.25-2.5-3l1.5 0.85 0.15 0.5h0.2l1.1 2.2-0.45-0.55m-4.85-2.95-0.05 0.2-0.15-0.05-0.05-0.1 0.25-0.05m1.15 1.1 0.4 0.8-0.3 0.05-0.55-0.4-0.25 0.1-0.5-0.15-0.05-0.5 0.5-0.4 0.75 0.5m-0.2 0.7-0.1 0.3-0.3-0.25 0.2-0.2 0.2 0.15m2.55 1.75-0.35 0.05 0.05-0.25 0.25 0.05 0.05 0.15m0.8-0.65 0.45 0.9-0.65-0.2-0.7-0.6 0.5-0.3 0.4 0.2" fill="#f2e4d0" fill-rule="evenodd"/>
<path d="m323.65 146.25 0.05 0.05-0.05 0.1-0.15 0.15h-0.15l-0.1-0.15v-0.2h0.15l0.1-0.1h0.05l0.1 0.15m-5.4 0.5h0.2l0.15 0.2v0.3l-0.2 0.15h-0.25l-0.2-0.2v-0.05h0.1l0.2-0.1v-0.3" fill="#2cbea8" fill-rule="evenodd"/>
<path d="m323.6 145.9 0.05 0.35-0.1-0.15h-0.05l0.05-0.2h0.05" fill="#d3f5f0" fill-rule="evenodd"/>
<path d="m321.9 143.6v-0.4q0-0.2 0.25-0.05l0.25 0.4-0.2 0.5-0.3-0.45m-3.6-1.95-0.45-0.25 1.05 0.25v0.05l0.1 0.05q1.25 0.75 2.5 3-1.4-2.1-3.2-3.1m1.1 3.9q-1.2-0.95-1.65-0.45 0.2-1.3 1.65 0.45" fill="#c89240" fill-rule="evenodd"/>
<path d="m321.65 148.25 0.45-0.25-0.35 0.3-0.1-0.05" fill="#517d46" fill-rule="evenodd"/>
<path d="m317.95 147.15 0.05-0.25q0.05-0.15 0.2-0.15h0.05v0.3l-0.2 0.1h-0.1m5.55-1.05-0.1 0.1h-0.15l0.15-0.1h0.1" fill="#73dfcf" fill-rule="evenodd"/>
<path d="m317.95 147.15-0.1-0.05-0.1-0.15 0.05-0.15 0.1-0.2h0.25l0.1 0.15h-0.05q-0.15 0-0.2 0.15l-0.05 0.25m5.3-0.95v-0.05l-0.1-0.05v-0.2l0.1-0.15 0.2 0.05 0.1 0.1-0.05 0.2h-0.1l-0.15 0.1" fill="#fff" fill-rule="evenodd"/>
<path d="m319.7 138.65 0.15 0.8-0.05 0.7 0.1 0.35-0.3-0.25q-1.85-1.6-1.45-1.75 0.6 0.55 0.9 0.45-0.6-1.2-1.55-1.5l-0.25-0.05q-0.3-0.25-0.9-0.35h0.45q1.85 0.2 2.6 1.85l0.3-0.25m-0.05 3.05q1.4 0.75 2.25 1.9l0.3 0.45 0.15 0.25 0.05 0.1-0.15 0.4 0.4 0.2 0.1 0.25 0.1 0.4q-1.2 2.1-3.45-0.1l-2.1-0.1 0.05-0.25-0.3 0.1-0.45-0.95-0.7-2.8 2.4 0.1q1.8 1 3.2 3.1l0.45 0.55-1.1-2.2h-0.2l-0.15-0.5-1.5-0.85-0.1-0.05v-0.05l0.75 0.05m-3 0.1-0.25 0.05 0.05 0.1 0.15 0.05 0.05-0.2m1.15 1.1-0.75-0.5-0.5 0.4 0.05 0.5 0.5 0.15 0.25-0.1 0.55 0.4 0.3-0.05-0.4-0.8m-0.2 0.7-0.2-0.15-0.2 0.2 0.3 0.25 0.1-0.3m1.8 1.95q-1.45-1.75-1.65-0.45 0.45-0.5 1.65 0.45m0.75-0.2-0.05-0.15-0.25-0.05-0.05 0.25 0.35-0.05m0.8-0.65-0.4-0.2-0.5 0.3 0.7 0.6 0.65 0.2-0.45-0.9" fill="#914f00" fill-rule="evenodd"/>
<path d="m315.45 139.45 0.55 0.7 0.65 0.45 1.25 0.4 0.25 0.05 1.5 0.65-0.75-0.05-1.05-0.25 0.45 0.25-2.4-0.1-0.25-0.9-0.25-0.3-0.3-0.75v-0.05l-0.1-0.45 0.45 0.35m7.55 8.2-0.05 0.25-0.85 0.1 0.85-0.1-0.05 0.15 0.2 0.1 0.3 0.2h0.05l0.2-0.1v0.55q-0.65-0.75-1.8-0.3-1.15 0.4-1.65-0.45l-0.1-0.6-0.35-0.6-0.5-0.5-0.95-0.5-0.7 0.05-0.15 0.15-0.15-0.6 2.1 0.1q2.25 2.2 3.45 0.1l0.15 1.4v0.6m-0.9 0.35-0.45 0.25 0.1 0.05 0.35-0.3" fill="#723901" fill-rule="evenodd"/>
<path d="m319.85 139.45 0.1-0.75-0.25-0.2v0.15m0.15 0.8-0.05 0.7 0.1 0.35-0.3-0.25q-1.85-1.6-1.45-1.75 0.6 0.55 0.9 0.45-0.6-1.2-1.55-1.5m-0.25-0.05-0.75-0.05q-1.4 0.1-1.25 1.35l0.2 0.75 0.55 0.7 0.65 0.45 1.25 0.4 0.25 0.05 1.5 0.65q1.4 0.75 2.25 1.9v-0.4q0-0.2 0.25-0.05l0.25 0.4-0.2 0.5 0.15 0.25m0.05 0.1 0.25 0.6 0.1 0.25h0.15l0.55 0.4v0.05l0.15 0.2 0.05 0.35 0.05 0.05v0.2l-0.05 0.6-0.1 0.15-0.4 0.4h-0.15l-0.05 0.25 0.65 0.3 0.05 0.05v0.55l-0.25 0.2-2.4-0.05-1.2-0.5h-0.25l-0.95-0.3q-0.65-0.4-1-1-0.3-0.45-0.25-0.8v-0.15l-1.2-1.2-0.25 0.1-0.4 0.3h-0.05l-0.75 0.05-0.05-0.05-0.35-0.4q-0.05-0.3 0.35-0.55l0.75 0.2q-0.45-0.35-0.2-0.6 0.15-0.4 0.6 0.35 0.6-0.25 0.3-1.1l-0.3-0.75-0.2-1v-0.3l-0.05-0.2-0.15-0.7-0.3-0.75v-0.05l-0.1-0.45v-0.35l0.05-0.15q-0.1-1.5 1.3-1.55h0.45q1.85 0.2 2.6 1.85l0.3-0.25m0.05 8.2-0.5-0.5-0.95-0.5-0.7 0.05-0.15 0.15-0.1 0.15m5.5-0.55-0.1-0.4m-0.55-1.2-0.3-0.45m-2.1 4.85 0.1-0.05 0.3-0.35-0.1-0.6-0.35-0.6m1.9 1.4 0.1 0.05 0.35-0.3 0.85-0.1m0.05-0.25v-0.6l-0.15-1.4" fill="none" stroke="#504832" stroke-linecap="round" stroke-linejoin="round" stroke-opacity=".50196" stroke-width=".05"/>
</g>
</defs>
</svg>
