<?xml version="1.0" encoding="UTF-8"?>
<svg version="1.1" viewBox="0 0 141.2 149.22" xmlns="http://www.w3.org/2000/svg" xmlns:cc="http://creativecommons.org/ns#" xmlns:dc="http://purl.org/dc/elements/1.1/" xmlns:rdf="http://www.w3.org/1999/02/22-rdf-syntax-ns#" xmlns:xlink="http://www.w3.org/1999/xlink">
<metadata>
<rdf:RDF>
<cc:Work rdf:about="">
<dc:format>image/svg+xml</dc:format>
<dc:type rdf:resource="http://purl.org/dc/dcmitype/StillImage"/>
</cc:Work>
</rdf:RDF>
</metadata>
<g transform="translate(-204.39 -125.38)">
<use transform="matrix(1.8312 0 0 1.8312 204.45 125.42)" width="77.050003" height="81.449997" xlink:href="#a"/>
</g>
<defs>
<g id="a" transform="translate(38.5,40.7)">
<use transform="translate(-38.5,-40.7)" width="77.050003" height="81.449997" xlink:href="#b"/>
</g>
<g id="b" transform="translate(38.5,40.7)">
<path d="m-26.05-28.85-0.45 0.65-0.55-0.15-0.35-0.25 0.2-0.65-0.2 0.65h-1l-1.05-0.6 1.55-0.3 0.7 0.25 1.15 0.4m22.65-1.8 0.1 0.1-0.1-0.1m22.4 54.1 0.4 0.45-0.85 3.8-0.3-1 0.75-3.25m9.6-2.55 0.05-0.05v0.05h-0.05m-12.25 12.55-0.2-1 1.55-3.75 0.6 1.65q-1 0.65-1.95 3.1m0.95 3.7 0.55-0.5-0.4 0.75-0.15-0.25m-45.7-65.75 0.5-0.9-0.5 0.9" fill="#660" fill-rule="evenodd"/>
<path d="m12.5-21.75-1.75-2.95-1.9-1.2-5.7-1.75 3.95 0.65-1.3-0.8-5.45-1.35h-4.5l2.25-0.55-1.4-0.85-0.1-0.1-2.55-2.1-2.1-4.2 0.85-0.3q2.05 7.1 9.9 8.3 8.4 1.3 10.15 6.9l-0.35 0.3m-17.2-9.05-2.15 1.55-3.45 0.75-6.1-0.8-1.45-0.9q-2.35-2.9-3.05-5.65l0.9-0.25q0.9 3.75 4.2 6.1 5.95 2.15 10.75-0.85l0.35 0.05m-13.65 1.5-4.3 0.3 4.1 1.15-6.9-1h-0.6l0.45-0.65-0.45 0.65-1.15-0.4 0.1-0.35-0.1 0.35-0.7-0.25-1.55 0.3-3.4-3.4q-1.65-1.4-2.1-3.2-0.7-1.4 0-2.45l1.3-1.35 1.4-0.5 0.05 0.1 1 1.15q-3.9-0.15-3 2.7 0.85 2.85 6.45 6.45l-0.15 0.2 0.15-0.2 0.65 0.1 1.5 0.1 6.9-0.2 0.35 0.4m4 4.05-1.25 1.4 3.95-1q-2.65 1.25-5.35 2.45l-4.6 1.55-0.2-0.25 0.2 0.25-4.95 0.6-1.8-0.85-0.95-1.5-0.95-2.55 0.55-0.3q1.05 5.45 7.4 4.5l0.5-0.15q4.2-1.3 6.85-4.15h0.6m37.6 15.15 0.45-0.45q2.9 0.95 4.6 3.7 1.1 2.05 1.5 5.15l0.15 1.4q0.1 1.8 0.6 3.35 1.55 5 6.8 6.65l-0.25 0.6q-3.95-0.45-5.95-3.95l-1.35-3.05-1.15 3.05 0.65-4h0.05v-3.3l-1-4.4-1.7-2.7-3.4-2.05m-3.85 34 1.75-3.65 3.65-3.75-0.05 0.75q-3.25 2.65-4.9 7.1l-0.05 0.15q-0.5 1.95-0.3 3.4 0.45 3.3 4.15 4.1l-0.35 0.5-4-1.9-0.65-2.5-0.1-0.4 0.95 0.2-0.85 0.2 0.85-0.2-0.95-0.2 0.85-3.8 0.45 0.45-0.45-0.45m7.8 5.95 0.4 0.15-0.25-5.15-1.1-8.6 1.55 7.15 0.8-2.5h0.05l0.2 0.2q-0.95 4.3-0.8 9v0.05l-0.85 0.7 0.85-0.7q2.55 5.4 5.55 6.5 2.9 1.15 3.3-2.95l1.1 1.1q-0.8 2.2-2.45 2.85l-2.45-0.4-2.6-2.05-3.3-4.35v-1m6.3-6.95-2.15-1.55-2.2-2.4-1-3.15-0.1-0.25-0.1-0.3-1.4-4 1.4 2.35v-1.45l1.1-3.2 2.1-1.8v0.3q-3.4 4.75-1.75 10.75 2.05 3.3 5.7 4.3l-0.3 0.85-1.3-0.45m-6.05-18.15-1.5-8.35 1.5 5.15v3.2m0.15 25.25 0.45 0.1-0.45-0.1m-9.1 1.05q-0.85 0.15-1.4 3.1 0.15 1.1 0.55 2l0.2 0.5q0.85 1.5 2.4 2.2 1.75 0 3.4-1.15l0.5 0.85-3.2 1.35-2.75-1.1-0.75-1.4 0.4-0.75-0.55 0.5-0.35-0.6-0.6-3.1q0.95-2.45 1.95-3.1l0.2 0.7m-1.55 5.5 0.7-0.4-0.7 0.4m-52.15-56.45-0.95-0.35q-1.35-0.65-1.55-2-0.4-2.2 0.75-3.6l0.85-0.6 0.7 0.5q-1.2 1.55-1.2 3.3 0.5 1.35 1.65 2.25l0.55 0.4 0.65 0.3q0.75 0.4 1.75 0.6l2.65-0.55-0.9 0.85-1.6 0.1-2.2-0.8 0.3-0.2-0.3 0.2-0.35-0.15-0.8-0.25 0.25-0.5-0.25 0.5m0.8-0.1v0.35-0.35" fill="#9f9f00" fill-rule="evenodd"/>
<path d="m15.25-19.95 0.45-0.5q2.4 4.05 6.25 7.4l-0.65 0.65q-4-3.45-6.05-7.55" fill="#eedec1" fill-rule="evenodd"/>
<path d="m15.7-20.45-0.45 0.5-0.5 0.45-0.55 0.55q-1.65 0.15-1.5-1l1.5-1.6q0 0.8 1.75 0.9l-0.25 0.2m4.85 9.5 1.55-1.6q0.25 0.6 1.25 1.05l-0.45 0.5-0.65 0.65q-1.65 0.35-1.7-0.6" fill="#c00" fill-rule="evenodd"/>
<path d="m11.7-20.95 0.15-0.2q-0.35 0.65 0.85 0.75l-2.8 2.85-0.65-1.1 2.45-2.3m2.5 2 0.55-0.55q2 3.5 5.4 6.85-3.7-2.8-5.95-6.3m6.05 11.9-0.9-0.5 2.7-2.6q-0.25 0.85 0.75 0.55l-2.55 2.55" fill="#a67c2f" fill-rule="evenodd"/>
<path d="m11.85-21.15 0.65-0.6 0.35-0.3q-0.15 0.95 0.6 0.95l-0.6 0.6-0.15 0.1q-1.2-0.1-0.85-0.75m6.8 11.45-3.8-5.05 4.3 4.5-0.5 0.55m4.15 0.1q-1 0.3-0.75-0.55l0.85-0.85q0 0.55 0.8 0.45l-0.45 0.45-0.45 0.5" fill="#d8b676" fill-rule="evenodd"/>
<path d="m12.7-19.95q-0.15 1.15 1.5 1l-0.85 0.85-2.45 2.35-0.45 0.45q-1.05-0.2-1.2-1.05l3.45-3.6m0-0.45 0.15-0.1-0.05 0.15-0.1-0.05m9.35 10.25-2.7 2.6-1.25 1.2q-0.95-0.2-1.15-0.9l3.6-3.7q0.05 0.95 1.7 0.6l-0.2 0.2" fill="#900" fill-rule="evenodd"/>
<path d="m-3.3-30.55-1.4-0.25-0.35-0.05q-2.95-2.3-3.4-5.95l0.4-0.15 2.1 4.2 2.55 2.1 0.1 0.1m-13.1 1.25h-1.95l-0.35-0.4q-2.55-2.95-3.1-5.9l0.9-0.25q0.7 2.75 3.05 5.65l1.45 0.9m-10.1 1.1 4.5 1.1h9.25l2.5 0.2-3.25 1.7-0.85-0.05h-0.6q-6.35-0.4-12.2-2.1l0.65-0.85-0.65 0.85-2.1-0.7q-4.45-3.2-6.55-7.45-1.65-4.9 3-5.2l0.55 0.6-1.4 0.5-1.3 1.35q-0.7 1.05 0 2.45 0.45 1.8 2.1 3.2l3.4 3.4 1.05 0.6q-0.4 0.3-0.85 0.55 0.45-0.25 0.85-0.55h1l0.35 0.25 0.55 0.15m32 5.85-3.15-0.7-6.45-3.25 9.6 3.95m25.65 28.7q2 3.5 5.95 3.95l-0.3 0.65q-3.6-0.5-5.65-3.5v-1.1m-6.35 10.15v-0.7l0.65-1.65q-0.05 6.55 1.55 12.9l0.2 2.8-1.25 0.25 1.25-0.25v1l-0.9 0.75-0.1-0.3-0.25-1.2q-1.4-6.2-1.2-12.85l0.05-0.75m3.8 4.35-0.6-0.7v-2.25l0.25 1.6 2.6 2.45 2.65 0.95 1.3 0.45-0.35 0.9q-2.9-0.6-5.6-3.15l-0.2-0.2v-0.05h-0.05m-5.3 11.65-0.35 0.5q-2.35-0.15-3.25-1.15-0.65-0.9-1.2-0.8l-0.2-0.7-0.6-1.65-1.55 3.75 0.2 1 0.6 3.1 0.35 0.6-0.65 0.6-0.4-0.8-0.35-1.1q-0.55-3.8-0.05-7.2l0.3-1.5q0.45-2.15 1.4-4.1l0.35-0.8 1.1 1.2-0.75 3.25 0.3 1-2.4-0.55 2.4 0.55 0.1 0.4 0.65 2.5 4 1.9m0.85 6.05 0.3 0.5q-2.25 2.5-5.3 1.3-1.35-0.6-2.25-2.1l-0.25-0.5 0.65-0.6 0.15 0.25 0.75 1.4 2.75 1.1 3.2-1.35m-5.5-10.45-2.8 0.55 2.8-0.55m-1.7 8.45-0.7 0.4 0.7-0.4m-0.05 1.7 0.55-0.85-0.55 0.85m21.1-3.45 0.55 0.55q-0.65 4.6-5.4 2.9-4.1-2.15-6.85-6.65l0.9-0.75 3.3 4.35 2.6 2.05 2.45 0.4q1.65-0.65 2.45-2.85m-73.7-53.8q-1.8-1.1-2.45-2.65-1.15-3.2 1.4-5.25l0.65 0.45-0.85 0.6q-1.15 1.4-0.75 3.6 0.2 1.35 1.55 2l0.95 0.35-0.5 0.9 0.5-0.9 0.8 0.25-0.05 0.45-0.7 0.5 0.7-0.5 0.05-0.45 0.35 0.15 2.2 0.8 1.6-0.1 4.6-0.4 4.65-1.05 1.15 1.3-1 0.4q-4.1 1.5-8.85 1.15l-4-0.65-0.8-0.3-0.65-0.35-0.55-0.3m6.35-0.65q1.2-0.65-0.3-1.85-1-1-1.1-3.35l0.5-0.3 0.95 2.55 0.95 1.5 1.8 0.85-2.8 0.6m1.6-7.9 0.35-1.05-0.35 1.05m-6.75 9.2 0.05-0.85 0.4-0.3-0.4 0.3-0.05 0.85" fill="#330" fill-rule="evenodd"/>
<path d="m-31.25 12.15h0.1q0.5 0 0.85 0.35l0.25 0.35 0.1 0.5-0.1 0.55-0.25 0.3-0.15 0.15-0.7 0.2-0.85-0.35-0.1-0.1-0.25-0.75 0.2-0.6 0.15-0.25q0.3-0.3 0.75-0.35" fill="#666" fill-rule="evenodd"/>
<path d="m28.6 20.9v-0.05h0.05l-0.05 0.05" fill="url(#l)" fill-rule="evenodd"/>
<path d="m-3.3-30.55 1.4 0.85-2.25 0.55h4.5l5.45 1.35 1.3 0.8-3.95-0.65 5.7 1.75 1.9 1.2 1.75 2.95-0.65 0.6-0.15 0.2-9.7-5.05 8.5 5.2-7.25-0.6-7.35-2.6h-5.45l-8.55 3.1-2.9 0.65-0.6-0.6 4.6-1.55q2.7-1.2 5.35-2.45l-3.95 1 1.25-1.4 0.85 0.05 3.25-1.7-2.5-0.2h-9.25l-4.5-1.1 0.45-0.65h0.6l6.9 1-4.1-1.15 4.3-0.3h1.95l6.1 0.8 3.45-0.75 2.15-1.55 1.4 0.25m8.8 8.2-9.6-3.95 6.45 3.25 3.15 0.7" fill="url(#k)" fill-rule="evenodd"/>
<path d="m22.8-9.6 0.45-0.5 3.4 2.05 1.7 2.7 1 4.4v3.3h-0.05l-0.65 4 1.15-3.05 1.35 3.05v0.8l-2.1 1.8-1.1 3.2v1.45l-1.4-2.35 1.4 4 0.1 0.3 0.1 0.25 1 3.15 2.2 2.4 2.15 1.55-2.65-0.95-2.6-2.45-0.25-1.6v2.25l0.6 0.7v0.05l-0.8 2.5-1.55-7.15 1.1 8.6 0.25 5.15-0.4-0.15-0.2-2.8q-1.6-6.35-1.55-12.9l-0.65 1.65v0.7l-3.65 3.75-1.75 3.65-0.4-0.45 0.15-0.75 4.6-9 2.7-10.25q0.2-4.95-3.65-11.75 2.6 2.15 5.2 6.4-0.4-3.9-5.2-7.7m4.65 14.35v-3.2l-1.5-5.15 1.5 8.35" fill="url(#j)" fill-rule="evenodd"/>
<path d="m-21.6-20.85 0.6 0.6-4.65 1.05-4.6 0.4 0.9-0.85 2.8-0.6 4.95-0.6" fill="url(#i)" fill-rule="evenodd"/>
<path d="m20.25-7.05 2.55-2.55q4.8 3.8 5.2 7.7-2.6-4.25-5.2-6.4 3.85 6.8 3.65 11.75l-2.7 10.25-4.6 9-0.15 0.75-1.1-1.2q5.2-10.9 3.4-15.65-1.35-3.45-1.8-6.2l-0.2-2.1q-0.4-3.15 0.95-5.35" fill="url(#h)" fill-rule="evenodd"/>
<path d="m-21-20.25 2.9-0.65 8.55-3.1h5.45l7.35 2.6 7.25 0.6-8.5-5.2 9.7 5.05-2.45 2.3q-3.95 2.25-10.9-0.85l-2.7-1.4-1.9-0.6-3.15-0.15-3.25 0.5-2.3 0.55-4.9 1.65-1.15-1.3" fill="url(#g)" fill-rule="evenodd"/>
<path d="m10.9-15.75 2.45-2.35q2.65 3.9 6.35 7.35l-0.55 0.5-4.3-4.5 3.8 5.05-1.4 1.45-2.05-3.15q-1.8-2.35-4.3-4.35" fill="url(#f)" fill-rule="evenodd"/>
<path d="m15.25-19.95q2.05 4.1 6.05 7.55l-1.6 1.65q-3.7-3.45-6.35-7.35l0.85-0.85q2.25 3.5 5.95 6.3-3.4-3.35-5.4-6.85l0.5-0.45" fill="url(#e)" fill-rule="evenodd"/>
<path d="m21.3-12.4 1.1-1.1q1.4 0.5 1.4 1.55l-0.45 0.45q-1-0.45-1.25-1.05l-1.55 1.6-3.6 3.7-0.1-0.65 0.4-0.35 1.4-1.45 0.5-0.55 0.55-0.5 1.6-1.65" fill="url(#d)" fill-rule="evenodd"/>
<path d="m15.95-20.65q-1.75-0.1-1.75-0.9l-1.5 1.6-3.45 3.6-0.05-0.5 0.7-0.7 2.8-2.85 0.1 0.05 0.05-0.15 0.6-0.6 1.3-1.35q1.4 0.5 1.4 1.55l-0.2 0.25" fill="url(#c)" fill-rule="evenodd"/>
<path d="m-21.6-20.85 0.6 0.6 1.15 1.3 2.15 2.35 1.45 1.55 1.1 1.25q0.7-1.7 2.7-1.5l-1.95-0.95q-0.35-1 0.4-1.45l-5.85-1.25m35.55-1.5-0.45 0.5m6.05 7.55 0.65-0.65q-3.85-3.35-6.25-7.4l0.25-0.2m-1.75 1.7 0.55-0.55 0.5-0.45m-1.8-1.15 1.3-1.35q1.4 0.5 1.4 1.55l-0.2 0.25m-3.1 0.15 0.6-0.6m-0.75 0.7-2.8 2.85-0.7 0.7 0.05 0.5m1.65 0.6-0.45 0.45q-1.05-0.2-1.2-1.05m4.1-1.75-2.45 2.35q2.5 2 4.3 4.35l2.05 3.15 1.4-1.45 0.5-0.55 0.55-0.5 1.6-1.65m-7.95-5.7 0.85-0.85m-15.85-0.55q-1.05 1.85 1.75 4.85l15.1 3.25m1.75 4.15-0.1-0.65 0.4-0.35m2.1 0.7-1.25 1.2q-0.95-0.2-1.15-0.9m6.4-4.25 0.45-0.45q0-1.05-1.4-1.55l-0.45 0.45m1.4 1.55-0.45 0.5m-3.9 34.45 0.4 0.45 0.45 0.45m-3.6 12.6-8.75-9.5-25.2-27.25-3.15-3.4-7.6-8.25-2.85-3.05q0.9 13.85 0.05 26.65h0.1q0.5 0 0.85 0.35l0.25 0.35q1.75-0.1 1.9 0.5m46.05 8.9 1.1 1.2m-1.1-1.2-7.1-7.75-3.3 12.95 8.65-0.3 2.4 0.55m0.1 0.4 0.85-0.2-0.95-0.2m-7.75-13.2q-1.65 3.15-3.35 0.7-0.75-2.35 0.35-3.95l-25.25-12.75-0.25 1.7m37.2 0.2-21.9-10.75q-3.5 0.9-5 5l15.2 16.6 3 3.25m5.05 14.15 2.8-0.55m7.55 3.2-6.35-6.95m-47.05-53.6-0.2 0.65-0.35 1.05m5.95 6.45 0.2 0.25m-0.2-0.25-5.95-6.45m0.65-2.05-0.1 0.35m-2.5 11.85-1.6 2.9m-3.85-4.2 0.7-0.5 0.05-0.45v-0.35m0.65 0.3-0.3 0.2-0.4 0.3-0.05 0.85m-0.65-0.35 3.85 4.2m10.45 11.3 4.5-3.35 2.05-6.35q-7.05 2-14.15 1.45m19.05-10.2q-1 2.35 1.25 5.25l4.35 0.9q-3.2-2.7-2.45-6m-1.9 5.1-3.6-0.8q-1.3 0.55-0.7 1.9l3.55 1.75q-0.9-1.75 0.75-2.85m-8.1 1.35q0.25-1.3 1.85-1.2l-5.45-2.7m7.2-2.2q-0.7 1.65 0.4 3.85l0.5 0.1m-3.4 3.4 0.85 0.9 1.65 1.8q0.75-2.1 3.75-2.45l3.9 1.95q-0.6-2.25 1.2-3.9l3.9 0.85q-2.4 1.25-2.5 4.3l-2.6-1.25q-3.55 0.3-4.8 3.6l2.4 2.65m-7.55-15.25q-0.5 1.45 0.95 2.9l1.75 0.4m-0.4 6.2 0.95 1.05 1.9 2.05m-1.9-2.05-4.65 3.5-1.1 5.05-3.4-1.7m3.15-13.4q-4.45 3.75-10.75 5.15m-2 25.8-0.7 0.2-0.85-0.35-0.1-0.1q-1.1 0.05-1.85 0.75m1.85-0.75-0.25-0.75q-1.05-0.45-1.7 0.6m1.7-0.6 0.2-0.6q-0.25-0.75-1.45-1.25m1.45 1.25 0.15-0.25q0.3-0.3 0.75-0.35m1.2 1.75q1.7 0.75 2 1.5m-2-2.55 0.1 0.5-0.1 0.55-0.25 0.3-0.15 0.15q1 0.65 1 1.3" fill="none" stroke="#333" stroke-linecap="round" stroke-linejoin="round" stroke-opacity=".52157" stroke-width=".05"/>
<path d="m-13.5-25.2-0.85-0.05m26.05 4.3 0.15-0.2 0.65-0.6 0.35-0.3q-1.75-5.6-10.15-6.9-7.85-1.2-9.9-8.3l-0.85 0.3m21.5 15.85q-0.75 0-0.6-0.95m-2.95 4.5-0.65-1.1q-3.95 2.25-10.9-0.85m21 11.95 0.9 0.5 2.55-2.55 0.45-0.5 0.45-0.45q-0.8 0.1-0.8-0.45l-0.85 0.85-2.7 2.6m0.15 7.95-0.2-2.1q-0.4-3.15 0.95-5.35m-11-11.6 2.45-2.3m25.4 31.25 0.25-0.6q-5.25-1.65-6.8-6.65-0.5-1.55-0.6-3.35l-0.15-1.4q-0.4-3.1-1.5-5.15-1.7-2.75-4.6-3.7m1.1 27.05v-0.7m6.35-8.35q2.05 3 5.65 3.5l0.3-0.65m-12.3 6.2-0.05 0.75q-0.2 6.65 1.2 12.85m2.1 0.05v-0.05m0.8-9-0.2-0.2m6.15 2.45-0.35 0.9q-2.9-0.6-5.6-3.15-0.95 4.3-0.8 9m3.1-22.65q-3.4 4.75-1.75 10.75 2.05 3.3 5.7 4.3l-0.3 0.85m-14.95 1-0.05 0.15q-0.5 1.95-0.3 3.4 0.45 3.3 4.15 4.1l-0.7 1q-2.35-0.15-3.25-1.15-0.65-0.9-1.2-0.8-0.85 0.15-1.4 3.1 0.15 1.1 0.55 2l0.2 0.5q0.85 1.5 2.4 2.2 1.75 0 3.4-1.15l0.5 0.85 0.3 0.5q-2.25 2.5-5.3 1.3-1.35-0.6-2.25-2.1l-0.65-1.3m3.6-12.6q1.65-4.45 4.9-7.1m-8.6 9.9q0.45-2.15 1.4-4.1l0.35-0.8q5.2-10.9 3.4-15.65-1.35-3.45-1.8-6.2m-3.35 26.75-0.3 1.5q-0.5 3.4 0.05 7.2l0.35 1.1m11.8-6.8q2.55 5.4 5.55 6.5 2.9 1.15 3.3-2.95l1.65 1.65q-0.65 4.6-5.4 2.9-4.1-2.15-6.85-6.65l-0.1-0.3-0.25-1.2m-44.65-59.8 0.35 0.4m3.4 4.05h0.6m9.3-5.6q-4.8 3-10.75 0.85-3.3-2.35-4.2-6.1l-1.8 0.5q0.55 2.95 3.1 5.9l-6.9 0.2-1.5-0.1-0.65-0.1q-5.6-3.6-6.45-6.45-0.9-2.85 3-2.7l-1-1.15m5.05 12.65q5.85 1.7 12.2 2.1-2.65 2.85-6.85 4.15m16.75-9.75q-2.95-2.3-3.4-5.95l0.4-0.15m-24.2-3.15-0.55-0.6q-4.65 0.3-3 5.2 2.1 4.25 6.55 7.45m-6.85 1.6-0.65-0.45q-2.55 2.05-1.4 5.25 0.65 1.55 2.45 2.65l0.55 0.3 0.65 0.35 0.8 0.3 4 0.65m-6.4-9.05 0.7 0.5q-1.2 1.55-1.2 3.3 0.5 1.35 1.65 2.25l0.55 0.4 0.65 0.3q0.75 0.4 1.75 0.6l2.65-0.55q1.2-0.65-0.3-1.85-1-1-1.1-3.35l0.5-0.3 0.55-0.3q1.05 5.45 7.4 4.5l0.5-0.15m-5.95-6.45-1.5-0.5m1.5 0.5 0.6 0.2m7.3 8.4 4.9-1.65 2.3-0.55 3.25-0.5 3.15 0.15 1.9 0.6 2.7 1.4m-18.2 0.55-1 0.4q-4.1 1.5-8.85 1.15" fill="none" stroke="#333" stroke-linecap="round" stroke-linejoin="round" stroke-opacity=".7098" stroke-width=".05"/>
<path d="m-26.05-28.85-0.45 0.65-0.65 0.85m54.35 57.2 0.4 0.15m-1.65 0.1 1.25-0.25m0 1 0.85-0.7m0-0.05-0.45-0.1m-11.35 6.95 0.7-0.4m0.7-0.4-0.7 0.4m0.35 0.6 0.55-0.5-0.4 0.75-0.55 0.85m0.4-1.1-0.65 0.6m10.55-6.9-0.9 0.75m-51.9-61.1-0.45 0.65m-1.85-0.65 0.15-0.2m-1.5 1.65q0.45-0.25 0.85-0.55m-7.3 9.6 0.5-0.9 0.25-0.5m7.05-9.1-0.5 0.9" fill="none" stroke="#333" stroke-linecap="round" stroke-linejoin="round" stroke-opacity=".7098" stroke-width=".05"/>
</g>
<linearGradient id="l" x1="-819.2" x2="819.2" gradientTransform="matrix(.0089 0 0 .0245 26.25 9.95)" gradientUnits="userSpaceOnUse">
<stop stop-color="#660" offset="0"/>
<stop stop-color="#62420d" offset="1"/>
</linearGradient>
<linearGradient id="k" x1="-819.2" x2="819.2" gradientTransform="matrix(-.0204 -7e-4 2e-4 -.0068 -9.65 -25.4)" gradientUnits="userSpaceOnUse">
<stop stop-color="#660" offset="0"/>
<stop stop-color="#635007" offset="1"/>
</linearGradient>
<linearGradient id="j" x1="-819.2" x2="819.2" gradientTransform="matrix(.001 .0173 -.0089 5e-4 25.45 9.3)" gradientUnits="userSpaceOnUse">
<stop stop-color="#660" offset="0"/>
<stop stop-color="#635007" offset="1"/>
</linearGradient>
<linearGradient id="i" x1="-819.2" x2="819.2" gradientTransform="matrix(1e-4 .001 -.0057 3e-4 -25.6 -19.8)" gradientUnits="userSpaceOnUse">
<stop stop-color="#660" offset="0"/>
<stop stop-color="#635007" offset="1"/>
</linearGradient>
<linearGradient id="h" x1="-819.2" x2="819.2" gradientTransform="matrix(.0062 0 0 .0202 22.95 6.9)" gradientUnits="userSpaceOnUse">
<stop stop-color="#330" offset="0"/>
<stop stop-color="#4a4003" offset="1"/>
</linearGradient>
<linearGradient id="g" x1="-819.2" x2="819.2" gradientTransform="matrix(.02 0 0 .0051 -4.65 -21.85)" gradientUnits="userSpaceOnUse">
<stop stop-color="#330" offset="0"/>
<stop stop-color="#4a4003" offset="1"/>
</linearGradient>
<linearGradient id="f" x1="-819.2" x2="819.2" gradientTransform="matrix(.0054 0 0 .006 15.3 -13.2)" gradientUnits="userSpaceOnUse">
<stop stop-color="#a67c2f" offset="0"/>
<stop stop-color="#a7692e" offset="1"/>
</linearGradient>
<linearGradient id="e" x1="-819.2" x2="819.2" gradientTransform="matrix(.0049 0 0 .0056 17.3 -15.35)" gradientUnits="userSpaceOnUse">
<stop stop-color="#d8b676" offset="0"/>
<stop stop-color="#d7d675" offset="1"/>
</linearGradient>
<linearGradient id="d" x1="-819.2" x2="819.2" gradientTransform="matrix(-.0023 .0028 -.0013 -.0011 20.9 -10.6)" gradientUnits="userSpaceOnUse">
<stop stop-color="#f90" offset="0"/>
<stop stop-color="#fde0b5" offset="1"/>
</linearGradient>
<linearGradient id="c" x1="-819.2" x2="819.2" gradientTransform="matrix(-.0044 .0044 -9e-4 -9e-4 11.95 -18.15)" gradientUnits="userSpaceOnUse">
<stop stop-color="#f90" offset="0"/>
<stop stop-color="#fde0b5" offset="1"/>
</linearGradient>
</defs>
</svg>
