<?xml version="1.0" encoding="UTF-8"?>
<svg version="1.1" viewBox="0 0 146.7 227.35" xmlns="http://www.w3.org/2000/svg" xmlns:cc="http://creativecommons.org/ns#" xmlns:dc="http://purl.org/dc/elements/1.1/" xmlns:rdf="http://www.w3.org/1999/02/22-rdf-syntax-ns#" xmlns:xlink="http://www.w3.org/1999/xlink">
<metadata>
<rdf:RDF>
<cc:Work rdf:about="">
<dc:format>image/svg+xml</dc:format>
<dc:type rdf:resource="http://purl.org/dc/dcmitype/StillImage"/>
</cc:Work>
</rdf:RDF>
</metadata>
<g transform="translate(-286.92 -62.875)">
<use transform="translate(286.95,62.9)" width="146.64999" height="227.3" xlink:href="#a"/>
</g>
<defs>
<g id="a" transform="translate(-286.95,-62.9)">
<path d="m346.5 97.85 7.45-1.7 0.8-0.15 0.6-0.15 16.75 1.35-1.6 6.85-2.25 1.35q-0.75-2.25-0.8 0.45 3.3 10.9-2.35 12.8l0.05 0.05q-2 3.2-4.2 5.35-8.9 8.6-21.3 0.25l-0.25-0.35q-1.35-0.9-2.95-0.45-3.45-0.25-8.4 2.7-3.5 0.9-5.85 2.6-0.45-3.6-0.15-6.85l14.1-7.6 0.15-0.05q1.2-0.85-1.3-3.55l-3.75-5.45 0.15-0.2 1.75-1.3 1.4-0.8 11.6-5 0.35-0.15m78.75 100.35 7.6 4.45-3.5 2.25 1 5.15 1.65 8.2 1.6 8.25-6.65 22.4-16.25 6.35-0.25-0.3-3.35-4.25-3.45-5.2q-4.35-0.6-0.7 3.35l3.45 4.55v-0.1l0.05 0.15 1.6 2.85-19.45 7.55q0.45-5.65-0.3-10.65l4.75-3.05-6-2.05q-2.6-8.15-9.05-14.3l24.25 10.85q-1.4-8.65 17.8-11.5l1.25-18.8 0.15-2.45 0.15-2.05 3.65-11.65m-80.25 35.55q-16.3-2.15-29.25-15.1l-4.6-4.75q-1.75-2.15-3.15-4.35-5.15-8.3-5.5-18.3l4.25-13.3 0.35 0.1-0.5-0.8v-0.5l0.35-2.55 0.85-3.3q2.5-8.5 10.05-24.95l0.15-0.3v-0.05q6.2-10.5 14.15-8.85l-1.6 17.35 21.15 10-0.2 0.25q-1.05 0.45-1.7 1.4l-2.45 3-0.95-3.55q-1.1-1.1-2.8-1-1.3 0.05-1.75 1.25-1.65 5.2-3.05 10.7-0.35 1.2 0.3 2.05-4.65 6.65-4.6 15.05 0 4 1.45 7.4v1.5l0.2 0.15 0.25 0.55q3.55 4.55 7.95 8.55 2.5 2.35 5.5 4.15-2.1 0.15-2.55 3.6-0.2 1.8 1.5 2.15l2.05 0.3q2.85 2.8 4.65 1.7-1.7 6.2-10.5 10.45m25.65-110.15q6.4 4.25 8.75 8.75l2.2 4.3-10.6-10.55-0.35-2.5m-42.45-15.5 1.75 3.1-6.55 4.75q1.55-4.35 4.8-7.85m103.8 110.15-10.7-3.9 10.7 3.9m-1.65-8.2-8.9 1.85 8.9-1.85m-47.6 35.6q0.9 1.85 1 2.85l0.2 0.3 0.15 2.15 0.3 1.85q0 0.95-0.75 0.6-3-1.55-3.2-6.1-0.7-2.1 0.35-2.9 0.95-0.65 1.95 1.25m-4.65-4.4q-0.85-0.85-0.55-2 0.65-2.4 2.35 0.4 0.9 4.45-1.8 1.6m-32.2-11.55q6.5 1.45 3.95-4.85-4.8-2.75-5.5 2.7-0.2 1.75 1.55 2.15m-16-15.95-2.2-2.25q-10.3-9.9-12.05-23.85l-0.5 1.95v-0.5q-0.25-1.6-0.15-3.2v-2.15l-0.6-3.25q-5.85 15.25-0.4 23.9 5.4 8.6 15.9 9.35m-20.2-46.1-1.9 3.25 1.9-3.25q-0.35 1.6 0.25 3.2 1.4 3.65 4.4 1.4 5.25-3.9 3.75-9.25-2.8-1.45-4.95-0.25-1.5 0.8-2.65 2.9-0.6 1-0.8 2m20.85-13.55q-9.45-1.25-17.4 8.65 7.95-9.9 17.4-8.65m-14.05 30h0.1l-1.25-0.25 1.15 0.25m-9.9-7.35 0.25 0.9-0.25-0.9" fill="#937544" fill-rule="evenodd"/>
<path d="m370.5 104.05 7.2 1.75v13.4l8.2 16.1-1.2 8.6h-5.4l-6.3-2.1-5.2-5.1-8.2-3.45 0.3-0.8v-0.1l-0.05 0.15-0.3 0.75-1.55-0.65 1.55 0.65-1.65 2.95-0.05 0.05q-3.8 5.05-12.15 6.4v1.5l-0.2 0.5q-0.7 2.15-0.7 4.25l0.1 2.15 0.45 2.15 0.5 1.45 1.3 2.6 0.9 1.45 1.65 2.2 0.15 0.15q1.7-0.3 3.45 0.9 2 1.3 4.1 4.55l-0.15 0.95v0.1l-0.05 0.3q-1 4.9-5.65 8.4l-8.1 12.25 1.55 13.85 9.3 3.45q4.9 1.9 7.35 3.4l-0.6-0.4q19.85 12.35 29.2 24.1 11.85-8.2 22.3-6.05l4.55-14.05-5.45-11.85 1.6-7.85 0.35-1.75 11.65 6.85-3.65 11.65-0.15 2.05-0.15 2.45-1.25 18.8q-19.2 2.85-17.8 11.5l-24.25-10.85q6.45 6.15 9.05 14.3l6 2.05-4.75 3.05q0.75 5 0.3 10.65-14.5-7.4-43.55-30.1h-0.05q8.8-4.25 10.5-10.45-1.8 1.1-4.65-1.7l-2.05-0.3q-1.7-0.35-1.5-2.15 0.45-3.45 2.55-3.6-3-1.8-5.5-4.15-4.4-4-7.95-8.55l-0.25-0.55-0.2-0.15v-1.5q-1.45-3.4-1.45-7.4-0.05-8.4 4.6-15.05-0.65-0.85-0.3-2.05 1.4-5.5 3.05-10.7 0.45-1.2 1.75-1.25 1.7-0.1 2.8 1l0.95 3.55 2.45-3q0.65-0.95 1.7-1.4l0.2-0.25-21.15-10 1.6-17.35q-7.95-1.65-14.15 8.85-2.75-11.55 3.95-16.6l0.25-0.2q2.35-1.7 5.85-2.6 4.95-2.95 8.4-2.7 1.6-0.45 2.95 0.45l0.25 0.35q12.4 8.35 21.3-0.25 2.2-2.15 4.2-5.35l-0.05-0.05q5.65-1.9 2.35-12.8 0.05-2.7 0.8-0.45l2.25-1.35m0.15 19.55-0.65-0.6 0.65 0.6 0.35 2.5 10.6 10.55-2.2-4.3q-2.35-4.5-8.75-8.75m17.25 16.8v-0.05 0.05m-57.95-29.2 1.75 3.1q3.3 0.55 4.45 0.05l-14.1 7.6q0.3-3.2 1.35-6l6.55-4.75m29.55 19.65v-0.05l-0.2-0.45 0.2 0.5m0.5 1.2-0.05 0.05 0.05 0.05 0.05-0.05v-0.1l-0.05 0.05m56.8 67.15-3.55-6.1 3.55 6.1m-71.1-56.55h-0.2 0.2m-5.3 0.35 5.1-0.35-5.1 0.35m8.35 35 1.1-0.65q0.1-0.1 0.15-0.1l1.55-1-1.55 1q-0.05 0-0.15 0.1l-1.1 0.65m72.55 36.35-4.2-1.55 4.35-0.9-4.35 0.9 4.2 1.55m-51.05 1.9 0.1 0.05v-0.1l-0.1 0.05m7.85 25q2.7 2.85 1.8-1.6-1.7-2.8-2.35-0.4-0.3 1.15 0.55 2m4.65 4.4q-1-1.9-1.95-1.25-1.05 0.8-0.35 2.9 0.2 4.55 3.2 6.1 0.75 0.35 0.75-0.6l-0.3-1.85-0.15-2.15-0.2-0.3q-0.1-1-1-2.85m-20.85-36.3 1 1 0.35 0.3 0.1-0.15-1.45-1.15m-32 4.4q-10.5-0.75-15.9-9.35-5.45-8.65 0.4-23.9l0.6 3.25v2.15q-0.1 1.6 0.15 3.2v0.5l0.5-1.95q1.75 13.95 12.05 23.85l2.2 2.25m16 15.95q-1.75-0.4-1.55-2.15 0.7-5.45 5.5-2.7 2.55 6.3-3.95 4.85m12.3 9.25-2.15-1.3-7.4-2.45-1.05-0.4-2.55-1.05 2.55 1.05 1.05 0.4 7.4 2.45 2.15 1.3m-48.5-71.3q0.2-1 0.8-2 1.15-2.1 2.65-2.9 2.15-1.2 4.95 0.25 1.5 5.35-3.75 9.25-3 2.25-4.4-1.4-0.6-1.6-0.25-3.2" fill="#4b3d23" fill-rule="evenodd"/>
<path d="m410.7 255.25q7.3 9.1 11.35 12.85l-0.65-9.05h0.1l6.55 2.55 1 2.9 1.5 13.95 0.05 0.45v0.1q-1.5 1.4-5.35-0.75l-0.1-0.05-0.85 10.1-5.55 1.9q-2.25-17.3-9.85-32.25l-0.85-1.65-1.6-2.85-0.05-0.15v0.1l-3.45-4.55q-3.65-3.95 0.7-3.35l3.45 5.2 3.35 4.25 0.25 0.3m-99.55-41.35q-3.55 5.25-5.05 8.7l7.25 0.8 0.1 0.1-0.45 7.85-2.05 0.75-11.15-0.5-0.3-0.05-0.1-0.05q-1.6-2.15-0.8-6.65v-0.1l-8.55-2.9-3.1-7.35q11.75 0.15 21.05-4.95 1.4 2.2 3.15 4.35m-1.1-127.05-0.5 0.9-3.75 8.85-0.15 0.1h-0.1l-10.85-3.85-0.15-0.05q-0.3-1.45-0.1-3.3l5.45-15.6 0.25-0.45v-0.05q3.75-1.35 9.85 1.65l0.05 0.05 7.8-10.95 11.7-1.25q-6.95 22.25 1.55 42.25l0.05 0.1v0.05h0.1l3.75 5.45q2.5 2.7 1.3 3.55l-0.15 0.05q-1.15 0.5-4.45-0.05l-3.5-6.2q-11.45-15.6-18.15-21.4l-0.5 1.05 0.5-1.05v0.15m110.05 187.6q2.9 2.4 5.05 3.75-2.15-1.35-5.05-3.75m1.95-6.35 0.1 0.05q2.35 2.15 5.9 4.05-3.55-1.9-5.9-4.05l-0.1-0.05m-127.6-178.6q-0.15 1.9 0.25 3.35-0.4-1.45-0.25-3.35m15.6-2.8-0.15-0.15q-3.3-2.75-8.9-5.3 5.6 2.55 8.9 5.3l0.15 0.15m7.55-6.75q-4.15-3.1-7.55-4.85 3.4 1.75 7.55 4.85m-17.3 139.05q-1.25 3.25-1.7 5.75 0.45-2.5 1.7-5.75m5.8 3.6v0.1q-1.2 2.6-1.75 6.75 0.55-4.15 1.75-6.75v-0.1" fill="#91c758" fill-rule="evenodd"/>
<path d="m333.15 103.8 1.15-0.7 0.25-0.1-1.4 0.8m-16.55 80.3h-0.1l-1.15-0.25 1.25 0.25" fill="#bea781" fill-rule="evenodd"/>
<path d="m370.1 141.9-2.35-0.65q1.65 0.6 3.55 0.8h-0.35l-0.85-0.15m-10.1-9.75v-0.1l0.05-0.05v0.1l-0.05 0.05m-2.05 4.05-0.1 0.05 0.05-0.05h0.05m-12.45 6.45h0.2-0.2" fill="#957e59" fill-rule="evenodd"/>
<path d="m345.35 153.2 0.5 1.45-0.5-1.45" fill="#b0ad99" fill-rule="evenodd"/>
<path d="m306.85 177.65-0.25-0.9" fill="none" stroke="#f4d940" stroke-linecap="round" stroke-linejoin="round" stroke-width=".05"/>
<path d="m410.7 255.25q7.3 9.1 11.35 12.85l-0.65-9.05h0.1m6.55 2.55 1 2.9 1.5 13.95 0.05 0.45v0.1q-1.5 1.4-5.35-0.75l-0.1-0.05-0.85 10.1-5.55 1.9q-2.25-17.3-9.85-32.25l-0.85-1.65-1.6-2.85-0.05-0.15v0.1l-3.45-4.55q-3.65-3.95 0.7-3.35l3.45 5.2 3.35 4.25 0.25 0.3m-99.55-41.35q-3.55 5.25-5.05 8.7l7.25 0.8 0.1 0.1m-0.45 7.85-2.05 0.75-11.15-0.5-0.3-0.05-0.1-0.05q-1.6-2.15-0.8-6.65v-0.1l-8.55-2.9-3.1-7.35q11.75 0.15 21.05-4.95m-1.15-31.9-0.25-0.4v-0.5m2.95-89-3.75 8.85-0.15 0.1h-0.1m-11.1-7.2 5.45-15.6 0.25-0.45v-0.05q3.75-1.35 9.85 1.65l0.05 0.05 7.8-10.95 11.7-1.25q-6.95 22.25 1.55 42.25l0.1 0.05m3.35-2.2q4.85-3 11.6-5l0.35-0.15m-15.25 7.45 0.15-0.2 1.75-1.3 1.4-0.8m-3.3 2.3h-0.1v-0.05l-0.05-0.1m0.15 0.15-0.05-0.1m-3 2.9 1.75 3.1m6.35 3.1q1.2-0.85-1.3-3.55l-3.75-5.45m28.65 27.05v0.1l-0.3 0.8-1.65 2.95-0.1 0.05q-3.8 5.05-12.15 6.4h-0.2l-5.1 0.35m5.3 1.15-0.2 0.5q-0.7 2.15-0.7 4.25l0.1 2.15 0.45 2.15 0.5 1.45 1.3 2.6 0.9 1.45 1.65 2.2 0.15 0.15q1.7-0.3 3.45 0.9 2 1.3 4.1 4.55m-0.15 0.95v0.1l-0.05 0.3q-1 4.9-5.65 8.4l-1.55 1q-0.05 0-0.15 0.1l-1.1 0.65m-12.3-54.5q-3.45-0.25-8.4 2.7-3.5 0.9-5.85 2.6l-0.25 0.2q-6.7 5.05-3.95 16.6v0.05l-0.15 0.3q-7.55 16.45-10.05 24.95l-0.85 3.3m121.1 98q-3.55-1.9-5.9-4.05l-0.1-0.05m3.1 10.1q-2.15-1.35-5.05-3.75m-125.4-181.6q-0.4-1.45-0.25-3.35m15.6-2.8-0.5 1.05m-8.55-6.5q5.6 2.55 8.9 5.3l0.15 0.15q6.7 5.8 18.15 21.4-3.25 3.5-4.8 7.85m-13.35-40.85q3.4 1.75 7.55 4.85m4.6 48.85q-0.45-3.6-0.15-6.85m-14.95 56.1-0.25-0.4m-2.5 51.8q0.55-4.15 1.75-6.75v-0.1m-7.5 2.15q0.45-2.5 1.7-5.75" fill="none" stroke="#2b0000" stroke-linecap="round" stroke-linejoin="round" stroke-opacity=".38039" stroke-width=".05"/>
<path d="m370.5 104.05 7.2 1.75v13.4l8.2 16.1-1.2 8.6 28.55 49.2 0.35-1.75 11.65 6.85 7.6 4.45-3.5 2.25 1 5.15 1.65 8.2 1.6 8.25-6.65 22.4-16.25 6.35m10.8 3.8 6.55 2.55m-20-5.3-19.45 7.55q-14.5-7.4-43.55-30.1h-0.05q-16.3-2.15-29.25-15.1l-4.6-4.75m2.3 9.6-0.45 7.85m-5-21.8q-5.15-8.3-5.5-18.3l4.25-13.3 0.1-0.3m-0.25-0.9 0.35-2.55q1.6-8.2 10.8-28.2l0.1-0.3q-2.75-11.6 3.95-16.65l0.2-0.15q-1.45-12.7 6.05-20.75-11.35-15.5-18-21.3m-4.5 9.85-10.85-3.85-0.15-0.05m15.45-17.75 7.65-10.85 0.2-0.05m13.35 41.05q0.9-0.75 1.95-1.4l1.15-0.7 0.25-0.1 11.6-5m23.85 25 0.65 0.6q6.4 4.25 8.75 8.75l2.2 4.3-10.6-10.55-0.35-2.5m-11.05 9.65 8.2 3.45 5.2 5.1 6.3 2.1h5.4m-53.5-38.7-0.05 0.05m5 9.1 0.15-0.05m76.25 112.55 4.55-14.05-5.45-11.85 1.6-7.85 3.55 6.1m-57.25-65.95h0.05m-1.6-0.65 1.55 0.65m-41.55 12.35q6.2-10.5 14.15-8.85m89.3 75.15-4.35 0.9 4.2 1.55 10.7 3.9m-10.55-6.35 8.9-1.85m-85.3 23.7 2.55 1.05 1.05 0.4 7.4 2.45 2.15 1.3m-40.2-93.35-0.15 0.1m-10.05 25.2 1.9-3.25m3.45-4.9q7.95-9.9 17.4-8.65m-13.95 30h-0.1m-8.5 25.45q1.4 2.2 3.15 4.35" fill="none" stroke="#634527" stroke-linecap="round" stroke-linejoin="round" stroke-width=".05"/>
</g>
</defs>
</svg>
