<?xml version="1.0" encoding="UTF-8"?>
<svg version="1.1" viewBox="0 0 43.092 32.201" xmlns="http://www.w3.org/2000/svg" xmlns:cc="http://creativecommons.org/ns#" xmlns:dc="http://purl.org/dc/elements/1.1/" xmlns:rdf="http://www.w3.org/1999/02/22-rdf-syntax-ns#" xmlns:xlink="http://www.w3.org/1999/xlink">
<metadata>
<rdf:RDF>
<cc:Work rdf:about="">
<dc:format>image/svg+xml</dc:format>
<dc:type rdf:resource="http://purl.org/dc/dcmitype/StillImage"/>
</cc:Work>
</rdf:RDF>
</metadata>
<g transform="translate(-268.41 -166.18)">
<use transform="matrix(.4298 -.0022 .0022 .4298 268.36 166.26)" width="100" height="75" xlink:href="#a"/>
</g>
<defs>
<g id="a" transform="translate(27.2,21.05)">
<use transform="translate(-27.2,-21.05)" width="100" height="75" xlink:href="#b"/>
</g>
<g id="b" transform="translate(27.2,21.05)">
<path d="m44.5-0.35 0.3 0.1-0.05 0.15-0.25-0.25m12.75 20.1 0.2 0.75-0.3-0.7 0.1-0.05m13.9 27.7 0.05 0.05h0.05v0.05l0.5 0.15 1.05 0.35h-2l0.35-0.6m-26.5-41.2-0.4-0.35 0.1-0.05 0.25 0.35 0.05 0.05m-13.4-11.25 1 0.3-0.45 0.4-0.55-0.7m12.65 5.65 0.2 0.15 0.35 0.2-0.15 0.1-0.4-0.45m10.25 19.9-0.4 0.3-1.7-3.7 2.1 3.4" fill="#98e0e0" fill-rule="evenodd"/>
<path d="m18.05-10 1.45 0.6-0.05 0.05-0.25 0.1v-0.05l-1.15-0.7m39.75 31.65 0.05 0.1v0.1l-0.05-0.2m-36.6-27.35v-0.05l-1.7-3 11.75 3.75 0.55 0.7 4.05 4.85 0.3 0.2-0.25-0.15 0.1 0.15-0.35-0.3-3.2-1.6-2.45-1.1-4-1.7-1.05-0.4-3.55-1.3-0.2-0.05m-2-3.6 0.25-0.05-0.25 0.05m38.2 51.05 0.6 0.6h-0.1l-0.45-0.45-0.05-0.15" fill="#f5f9fa" fill-rule="evenodd"/>
<path d="m57.6 42.45-0.15-0.55 0.45 0.45-0.3 0.1" fill="#298989" fill-rule="evenodd"/>
<path d="m58.35 45.15-0.05-0.05 0.3-0.05-0.25 0.1" fill="#54cbcb" fill-rule="evenodd"/>
<path d="m56.8 18.1-0.1 0.05-0.25 0.1 0.35-0.15" fill="#5aadad" fill-rule="evenodd"/>
<path d="m57.15 19.8 0.65 1.85-0.45 0.25 0.1-0.05 0.35-0.2 0.05 0.2 0.3 0.95 1.8 6.9-5.8-9.15-2.1-3.4-0.1-0.15-0.2-0.45-0.25-0.45-0.05-0.1-0.2 0.1 0.2-0.1q-1.8-3.25-3.6-5.8l-2.05-2.65-1.15-1.3-0.05-0.05-0.25-0.35-5.9-7.95 1.35 0.65 3.8 1.85q-0.3-0.15 0.3 0.25l0.4 0.45q6.5 7.85 12 17.15v0.1l0.85 1.45m-33.3 27.6 0.1-0.2 0.9-1.4-0.9 1.5 0.1-0.05-0.2 0.15 0.1-0.1h-0.05 0.05l-0.1 0.1-0.15 0.2 0.1-0.1 0.05-0.1-0.05 0.05v0.05-0.05l0.05-0.05-0.05 0.05 0.05-0.05 0.05 0.05-0.2 0.15 0.05-0.1h0.05l-0.1 0.1 0.15-0.2m6.95 6.45 0.1 0.1-0.35-0.15-7.5-5.3 0.85-1.05-0.45 0.5 0.25-0.35 0.2-0.15 6.9 6.4m-32.05-58.3-0.2 0.75-0.35-0.95 0.55 0.2m17.15 47.6 0.05-0.05 0.4-0.1 2.75 7.8 0.1 0.8-4.3-8.25 0.2 0.05 0.8-0.25m-31.9-27 0.15 0.75-0.75-0.65 0.6-0.1m40.05 31.1-0.15 0.1 0.15-0.1" fill="#fff" fill-rule="evenodd"/>
<path d="m19.5-9.4q1.35 0.55 3.05 1.15 3.15 1.15 8.25 2.75l0.45 0.5-11.75-3.75-0.3-0.5 0.25-0.1 0.05-0.05m18.1 6.1 2.5 0.9 1.95 0.7 1.6 2.05-0.05 0.05-3.8-1.85-1.35-0.65-0.85-1.2" fill="#cff1f1" fill-rule="evenodd"/>
<path d="m32.6-5 1.15 0.4 0.95 0.3 0.65 0.2 1.75 0.6-0.25 0.5 0.05 0.1-4.45-1.7 0.15-0.4" fill="#80d9d9" fill-rule="evenodd"/>
<path d="m56.8 18.1v0.05l-0.35 0.1 0.25-0.1 0.1-0.05m-13.2-17.7 0.05-0.05 0.05 0.05h-0.1" fill="#8adbdb" fill-rule="evenodd"/>
<path d="m30.8-5.5 0.95 0.25 0.85 0.25-0.15 0.4-0.2-0.1-1-0.3-0.45-0.5" fill="#3cc1c1" fill-rule="evenodd"/>
<path d="m56.8 18.15 0.45 1.6-0.1 0.05-0.85-1.45 0.15-0.1 0.35-0.1" fill="#6dd3d3" fill-rule="evenodd"/>
<path d="m56.45 18.25 0.35-0.15-0.35 0.15" fill="#a0e2e2" fill-rule="evenodd"/>
<path d="m5.5-20.75 0.35-0.3 0.45 1.55 0.05 0.1q0.55 1.4 1.55 2.7l0.15 0.15 0.35 0.45 0.2 0.2q1.55 1.8 3.1 2.85l0.1 0.05 1.5 0.85q1.6 0.85 4.3 2l0.2 0.1 0.25 0.05 1.15 0.7v0.05l0.3 0.5 1.7 3v0.05l-0.7-0.3-2.5-0.75-0.35-0.1q-5.3-1.55-7.45-2.6l-0.7-0.4q-1.4-0.9-2.4-2.45l-0.15-0.25-0.4-0.8q-0.45-0.95-0.65-2.4l-0.15-2h-0.1l-0.15-3m54.45 50.45 1.9 5.1 0.3 0.7 0.85 2.25 0.2 0.55-0.4 0.15 1.05 3.6 0.05 0.2q0.75 2.6 1.9 4.45l-0.65 0.35h-0.1l-1.6-1-0.4-0.35-1.35-1.65-0.3-0.5-0.05-0.2-0.65-1.55-1-3-0.7-3-0.7-2.55-0.2-0.6v-0.1q-1.6-5.25-4.35-11.7l0.4-0.3 5.8 9.15m-36.1 17.7h0.1l-0.05 0.05-0.05-0.05m0.15-0.05 2.2-1 4.6 7.25v0.25l-6.9-6.4 0.1-0.1-0.1 0.1 0.1-0.1m-1 1.1 0.9-1-0.85 1.05-0.05-0.05m21.25-42.55-2.9-2.1q-0.3-0.7-2.7-1.85l-2.8-1.4-4.05-4.85 0.45-0.4 0.2 0.1 4.45 1.7-0.05-0.1 0.3 0.15 1.3 0.75 5.9 7.95-0.1 0.05m-27.9 37.1-0.05-0.05 0.05 0.05 2.75 1.8v6l-2.75-7.8m28.1-42q2.3 1.35 4.3 3.4 1.95 2 3.4 4.25t2.3 4.5l2 5.1-0.15 0.1v-0.1q-5.5-9.3-12-17.15l0.15-0.1m-21 46.95-0.4 0.55 0.4-0.55" fill="#b6e9e9" fill-rule="evenodd"/>
<path d="m10.8-5.7q-2.3-0.65-3.5-1.25-0.4-0.2-0.65-0.35-1.45-0.9-2.4-2.5l-0.55-1q-0.65-1.4-0.75-3.85l-0.05-1.4 0.05-0.5 0.05-1.8 2.5-2.4 0.15 3h0.1l0.15 2q0.2 1.45 0.65 2.4l0.4 0.8 0.15 0.25q1 1.55 2.4 2.45l0.7 0.4q2.15 1.05 7.45 2.6l0.35 0.1 2.5 0.75 0.7 0.3 0.2 0.05 3.55 1.3 1.05 0.4 4 1.7 2.45 1.1 3.2 1.6 0.35 0.3-0.1-0.15 0.25 0.15-0.3-0.2 2.8 1.4q2.4 1.15 2.7 1.85l2.9 2.1 0.4 0.35 1.15 1.3-1.25 1.15-0.35-0.35q-2.4-2.1-5.8-4.05-3.7-2.15-8.55-4.1l-1.7-0.65-2.4-0.95q-6.8-2.5-11.35-3.45l-3.2-0.75-0.4-0.1-2.75-2.85 2.75 2.85" fill="#92dede" fill-rule="evenodd"/>
<path d="m65.05 47.05h0.1v0.05h-0.05l-0.05-0.05" fill="#72d3d3" fill-rule="evenodd"/>
<path d="m44.8-0.25 6.9 1.75 1.5 6.8q-1-1.45-1.55-3.3-0.6-1.85-2.1-2.55l-4.8-2.55 0.05-0.15" fill="#65d1d1" fill-rule="evenodd"/>
<path d="m37.1-3.5 0.25 0.1 0.15 0.05h0.05l0.05 0.05 0.85 1.2-1.3-0.75-0.3-0.15 0.25-0.5m4.95 1.8q1.7 0.65 2.45 1.35l0.25 0.25 4.8 2.55q1.5 0.7 2.1 2.55 0.55 1.85 1.55 3.3l0.1 0.35v0.1l0.05 0.05 1.75 4.1v0.05l1.7 5.15-0.35 0.15-2-5.1q-0.85-2.25-2.3-4.5t-3.4-4.25q-2-2.05-4.3-3.4l-0.35-0.2-0.2-0.15q-0.6-0.4-0.3-0.25h0.1l-0.05-0.05-1.6-2.05" fill="#87dcdc" fill-rule="evenodd"/>
<path d="m30.55 53.8-7-1.8-0.85-3.2 0.3-0.35 0.05 0.05 7.5 5.3m15.95-42.5 1.35-1.1q1.8 2.55 3.6 5.8l-0.2 0.1 0.2-0.1 0.05 0.1 0.25 0.45 0.2 0.45 0.1 0.15 1.7 3.7q2.75 6.45 4.35 11.7v0.1l0.2 0.6 0.7 2.55 0.7 3 1 3 0.65 1.55 0.05 0.2-1.55 0.8-1.95-2h0.1l-0.6-0.6-0.5-2.75-0.1-0.5q-1.1-5.85-4.5-15.1l-1.8-4.65-0.05-0.05-0.35-0.7-1.1-2.4-0.75-1.35-1.6-2.65-0.15-0.3m-27.3 40.3 0.05 0.2-1.25-0.85-4.05-4.2 0.95-3.25v-0.15l4.3 8.25" fill="#83dada" fill-rule="evenodd"/>
<path d="m44.55 8.7 1.25-1.15 2.05 2.65-1.35 1.1-1.9-2.5-0.05-0.1" fill="#6ad2d2" fill-rule="evenodd"/>
<path d="m63.2 38.3h0.05l1.55 3.25 0.05 0.15 0.1 0.15q1 1.6 2.8 3.3l0.25 0.25 1.3 1 0.1 0.1 1.75 0.95-0.35 0.6h2l-2.8 2.75h-0.5l-4.8-0.2q-4.2-1.25-4.75-2.25l-0.9-1.55-0.7-1.65 0.25-0.1-0.3 0.05-0.7-2.65 0.3-0.1 1.95 2 1.55-0.8 0.3 0.5 1.35 1.65 0.4 0.35 1.6 1 0.05 0.05h0.05v-0.05l0.65-0.35q-1.15-1.85-1.9-4.45l-0.05-0.2-1.05-3.6 0.4-0.15m6.2 8.2h-0.05l-0.1-0.1-0.3-0.2 0.05 0.1 0.35 0.25 0.05-0.05" fill="#a7e4e4" fill-rule="evenodd"/>
<path d="m-1.8-4.65 0.6 0.15-0.05 0.05-0.55-0.2m-14.2 20.8-0.6 0.1 0.6-0.15v0.05" fill="#e7f8f8" fill-rule="evenodd"/>
<path d="m0.65-4.35-0.2 0.55-1.7-0.65 0.05-0.05-0.6-0.15-4.2-13.3 0.05-0.05 1.8 0.9 1.35 2-1.35-2 0.8 0.4v-0.05l0.55 1.65 1.45 4.55-0.3 0.1 0.6 0.8 1.7 5.3m-14.15 19.9-0.3 0.05h-0.05l0.35-0.05m-0.55 0.25-0.65 0.1-0.2 0.05-1.1 0.2v-0.05l-0.6 0.15-1-0.9-0.2-0.15-9.4-8.2 3-0.2 0.05-0.05 10.3 8.85-0.2 0.2" fill="#7097a4" fill-rule="evenodd"/>
<path d="m2.85-7.65-0.45 0.3 0.2 0.3-0.05 0.15-1.35 3.3-0.2-0.05h-0.05l-0.05-0.1h-0.25l-0.2-0.05 0.2-0.55-1.7-5.3-0.6-0.8 0.3-0.1-1.45-4.55-0.55-1.65 1.5-4.3 4.7 13.4m-4.2-2.9 0.3 0.9-0.3-0.9m-22.85 17.25-0.55-2.35-0.1-0.45-0.35-1.65 11 9 0.7 4.3-0.35 0.05-10.3-8.85-0.05-0.05" fill="#a2bbc4" fill-rule="evenodd"/>
<path d="m28.15-0.45-0.25 0.75" fill="none" stroke="#f5f9fa" stroke-linecap="round" stroke-linejoin="round" stroke-width=".05"/>
<path d="m53.2 8.3 0.1 0.35m-8.75 0.05v0.05" fill="none" stroke="#366" stroke-linecap="round" stroke-linejoin="round" stroke-width=".05"/>
<path d="m60.65 41.65 0.05 0.15m8.3 4.5-0.05-0.1 0.3 0.2 0.1 0.1h0.05" fill="none" stroke="#298989" stroke-linecap="round" stroke-linejoin="round" stroke-width=".05"/>
<path d="m57.45 41.9-46.65-47.6m-2.75-2.85 2.75 2.85m47.1 48.05 1.95 2m-1.95-2-0.45-0.45" fill="none" stroke="#e4f8f8" stroke-linecap="round" stroke-linejoin="round" stroke-width=".05"/>
<path d="m19.45-9.35-0.25 0.05m0.3-0.1-0.05 0.05" fill="none" stroke="#0f0" stroke-linecap="round" stroke-linejoin="round" stroke-width=".05"/>
<path d="m63 37.75 0.2 0.55h0.05" fill="none" stroke="#5aa8c5" stroke-linecap="round" stroke-linejoin="round" stroke-width=".05"/>
<path d="m5.5-20.75 0.35-0.3 0.45 1.55 0.05 0.1q0.55 1.4 1.55 2.7l0.15 0.15 0.35 0.45 0.2 0.2q1.55 1.8 3.1 2.85l0.1 0.05 1.5 0.85q1.6 0.85 4.3 2l0.2 0.1 0.25 0.05 1.45 0.6q1.35 0.55 3.05 1.15 3.15 1.15 8.25 2.75l0.95 0.25 0.85 0.25 1.15 0.4 0.95 0.3 0.65 0.2 1.75 0.6 0.25 0.1 0.15 0.05h0.05l0.05 0.05 2.5 0.9 1.95 0.7q1.7 0.65 2.45 1.35l0.3 0.1 6.9 1.75 1.5 6.8m0.1 0.35v0.1l0.05 0.05 1.75 4.1v0.05l1.7 5.15v0.05l0.45 1.6 0.2 0.75-0.3-0.7 0.65 1.85 0.05 0.1v0.1l0.3 0.95 1.8 6.9 1.9 5.1 0.3 0.7 0.85 2.25m0.25 0.55 1.55 3.25 0.05 0.15 0.1 0.15q1 1.6 2.8 3.3l0.25 0.25 1.3 1 0.1 0.1 1.75 0.95 0.05 0.05h0.05v0.05l0.5 0.15 1.05 0.35-2.8 2.75h-0.5l-4.8-0.2q-4.2-1.25-4.75-2.25l-0.9-1.55-0.7-1.65-0.05-0.05-0.7-2.65-0.15-0.55-0.05-0.15-0.5-2.75-0.1-0.5q-1.1-5.85-4.5-15.1l-1.8-4.65-0.05-0.05-0.35-0.7-1.1-2.4-0.75-1.35-1.6-2.65-0.15-0.3m-35.7-17q-2.3-0.65-3.5-1.25-0.4-0.2-0.65-0.35-1.45-0.9-2.4-2.5l-0.55-1q-0.65-1.4-0.75-3.85l-0.05-1.4 0.05-0.5 0.05-1.8 2.5-2.4m22.65 20.3 1.7 0.65q4.85 1.95 8.55 4.1 3.4 1.95 5.8 4.05l0.35 0.35 0.05 0.1 1.9 2.5m-1.95-2.55 0.05 0.05m-0.05-0.05-0.15-0.2-0.2-0.2m25.2 38.15-0.1-0.1" fill="none" stroke="#67919e" stroke-linecap="round" stroke-linejoin="round" stroke-width=".05"/>
<path d="m10.8-5.7 0.4 0.1 3.2 0.75q4.55 0.95 11.35 3.45l2.4 0.95" fill="none" stroke="#67919e" stroke-linecap="round" stroke-linejoin="round" stroke-width=".05"/>
<path d="m66.05-7.6 0.35-0.1" fill="none" stroke="#f0ffff" stroke-linecap="round" stroke-linejoin="round" stroke-width=".05"/>
<path d="m0.9-3.75 0.05 0.1m-14.75 19.25 0.05 0.1" fill="none" stroke="#92c0bc" stroke-linecap="round" stroke-linejoin="round"/>
<path d="m0.95-3.65v0.1l0.05 0.05 14.15 44.2 2.45 2.25 1.5 1.3m0-0.15 1.05 0.9 3.15 2.75m-37.05-32.05 0.1 0.05 28.8 24.95 0.75 2.25m3.55 1.65-0.35-0.35" fill="none" stroke="#a8ccc9" stroke-linecap="round" stroke-linejoin="round"/>
<path d="m2.4-7.35 0.2 0.3-0.05 0.15m-5.35-8.2-1.35-2" fill="none" stroke="#7097a4" stroke-linecap="round" stroke-linejoin="round" stroke-width=".05"/>
<path d="m2.6-7.05 0.25-0.6-4.7-13.4-1.5 4.3v0.05l-2.7-1.35 0.05 0.1 4.2 13.3m4.35-2.25-1.35 3.3-0.2-0.05h-0.05l-0.3-0.1h0.25m18.2 48v-0.15m4.2 3.65q0.25-0.15 0.55-0.35l0.05-0.1m0.05 0 0.1-0.05-0.2 0.15h0.1l0.2-0.25v0.05l-0.15 0.15 2.2-1 4.6 7.25m0.1 0.35-0.35-0.15-7-1.8-0.85-3.2 0.3-0.35 0.45-0.5 0.25-0.35-0.7 0.7 0.75-0.8h0.05l0.05-0.1 0.1-0.1h-0.05m-23.45-51.1 0.2 0.05m0-0.6-1.7-5.3-0.3-0.9-1.45-4.55-0.55-1.65m2.1 12.3 1.7 0.65m-1.7-0.65-0.55-0.2m-11.7 20.2v0.05l-0.2 0.05-0.05 0.05-0.3 0.1-0.65 0.1m30.6 27.05v0.2l0.05-0.05 0.4-0.1 2.75 1.8v-0.5l-1.5-1.35m-1.3 0 0.05 0.05m-31.25-27.05-1.1 0.2m-0.6 0.1-1-0.9m-0.2-0.15-9.4-8.2 3-0.2v-0.1l-0.55-2.35m-0.1-0.45-0.35-1.65 11 9 0.7 4.3m-0.35 0.05h0.05l-0.2 0.15-0.05 0.05m0.2-0.2-10.3-8.85m7.55 9.5 0.6-0.1m-8.2-9.45 0.05 0.05m39.05 36.6v0.15l-0.95 3.25 4.05 4.2 1.25 0.85-0.05-0.2-0.1-0.8m-4.2-7.45 0.2 0.05 0.8-0.25m3.2 1.65 1.05 0.2m-1.05-0.75v0.05l0.35 0.3m4.35 2.9v-0.05l0.05-0.05-0.05 0.05m0.1-0.1 0.15-0.1m-0.25 0.25-0.1 0.1 0.15-0.2m0.05 0.05 0.15-0.15m-0.15 0.15 0.1-0.1-0.1 0.1-0.2 0.15 0.05-0.1m-0.3 0.45 0.45-0.5m-0.85 1.05 0.4-0.55m-0.4 0.55 0.85-1.05m-4.8-2.65v6" fill="none" stroke="#7097a4" stroke-linecap="round" stroke-linejoin="round" stroke-width=".05"/>
</g>
</defs>
</svg>
