<?xml version="1.0" encoding="UTF-8"?>
<svg version="1.1" viewBox="0 0 53 54.3" xmlns="http://www.w3.org/2000/svg" xmlns:cc="http://creativecommons.org/ns#" xmlns:dc="http://purl.org/dc/elements/1.1/" xmlns:rdf="http://www.w3.org/1999/02/22-rdf-syntax-ns#" xmlns:xlink="http://www.w3.org/1999/xlink">
<metadata>
<rdf:RDF>
<cc:Work rdf:about="">
<dc:format>image/svg+xml</dc:format>
<dc:type rdf:resource="http://purl.org/dc/dcmitype/StillImage"/>
</cc:Work>
</rdf:RDF>
</metadata>
<g transform="translate(-248.53 -173.18)">
<use transform="translate(248.55,173.2)" width="52.950001" height="54.5" xlink:href="#a"/>
</g>
<defs>
<g id="a" transform="translate(26.45,27.25)">
<path d="m-3.55-20.9-0.45 0.3-1.55-0.65q-2.95-1.1-5.7-0.9l-2.9 0.65-2.95 1.45-0.85 0.6-0.45 0.35-0.45 0.3-0.45 0.2-0.4 0.15h-0.05l-1.35 0.05q-1.45-0.3-2.05-1.65-0.65-1.4-0.05-3.1v-0.1q0.55-1.65 1.95-2.65 0.8-0.65 1.65-0.8l0.5-0.05h0.35l0.3 0.05h0.05l0.3 0.1h0.05l0.2 0.05 0.05 0.05v0.05l0.35 0.45q0.35 0.8 0.05 2-0.3 1.15-1.05 2h-0.05l-0.8 0.65-0.2 0.1h-0.1l-0.1 0.05-0.3 0.05h-0.1l-0.45-0.1h-0.05l-0.55-0.45-0.15-0.3-0.2-0.65q-0.2 3.65 1.15 3.6l1.05-0.05 0.15-0.05 0.45-0.25 0.8-0.6 0.75-0.5 0.2-0.1 3.05-1.45q2.2-0.75 4.5-0.55l3.95 0.85 1.9 0.85m-17.95-1.8v0.05-0.05l0.05-0.05v-0.1l-0.05 0.05v0.1m2.2-0.55 0.1-0.85v-0.05l-0.1-0.3-0.35-0.35-0.3-0.05q-0.45-0.05-1 0.55l-0.5 1.05v0.4-0.4l0.5-1.05q0.55-0.6 1-0.55l0.3 0.05 0.35 0.35 0.1 0.3v0.05l-0.1 0.85m13.9 44.1-1.35 0.35-1.15 0.2-0.7 0.05-2.9-0.25q-1.6-0.2-2.85 1.15l-0.15 0.15-0.3 0.15q-0.45 0.3-0.55 0.85l-0.05 0.7 0.05-0.7q0.1-0.55 0.55-0.85l0.3-0.15 0.3-0.05 0.7-0.1q0.7 0.2 1.05 0.95 0.35 0.8 0.1 1.65l-0.25 0.6-0.4 0.55-0.15 0.15-0.1 0.05h-0.05l-0.55 0.3-0.05 0.05h0.05l0.05 0.05-0.05 0.05-0.4 0.2-2.3 0.05q-1.05-0.55-1.3-1.8-0.2-1.35 0.55-2.65 0.7-1.3 1.9-1.85l0.45-0.2h0.1l0.6-0.15 0.65 0.05 0.15 0.05q2.45 0.8 4.85 0.7 2.8-0.15 5.5-1.65l1.7-1.1q1.9-1.4 3.35-3.25l0.5-0.1q-1.6 2.05-3.65 3.6-2.05 1.5-4.2 2.2m-15.05-44v0.05-0.05m0.05-0.25v0.15l0.1-0.35-0.1 0.2m5 47.6-0.05 0.05h0.05v-0.05m0 0.05 0.1 0.3 0.65 0.6 0.8-0.1 0.1-0.1 0.4-0.45-0.4 0.45-0.1 0.1-0.8 0.1-0.65-0.6-0.1-0.3" fill="#110e5f" fill-rule="evenodd"/>
<path d="m-0.3-21.4q-5.15-1.3-3.25 0.5l-1.9-0.85-3.95-0.85q3.55-0.75 7.3 0.45l1.8 0.75m-17.7-5.25h-0.05l-0.45-0.15 0.75-0.1h0.05l1.5-0.35 0.4 0.05 0.6 0.55q0.35 0.8 0.05 2-0.35 1.2-1.1 2l-1.2 0.8-1.85 0.5 0.8-0.65h0.05q0.75-0.85 1.05-2 0.3-1.2-0.05-2l-0.35-0.45 0.05-0.05-0.2-0.1-0.05-0.05m14.9 46.15q-2.7 1.5-5.5 1.65-2.4 0.1-4.85-0.7l-0.15-0.05-0.65-0.05-0.6 0.15v-0.05l2.75-1.05h0.05l0.15-0.05 0.05-0.05 1.35-0.15 0.3 0.05 7.1 0.3" fill="#1a1483" fill-rule="evenodd"/>
<path d="m-13.15 26.25-0.1 0.05-0.05 0.05 0.05-0.05 0.1-0.05m-4.7-52.8 0.1 0.05-0.05 0.05v-0.05l-0.05-0.05m-2.55 3.15 0.1-0.2-0.1 0.35v-0.15m-0.05 0.25v0.05-0.05m-1 0.4-0.05 0.05 0.05-0.15v0.1" fill="#58382b" fill-rule="evenodd"/>
<path d="m-18.7-19.4-0.45 0.25-0.15 0.05-1.05 0.05q-1.35 0.05-1.15-3.6l0.2 0.65 0.15 0.3 0.55 0.45h0.05l0.45 0.1h0.1l0.3-0.05 0.1-0.05q-0.35 1.05 0.3 1.55l0.6 0.3m32.9 12.9-0.3-0.1-0.05-0.3-0.15-0.55 2.55-1.15 10.25-1.8-0.1 0.35-9.7 4.25-2-0.55-0.5-0.15m-8.9 20.95q-4.15 4.55-10.7 6.4 2.15-0.7 4.2-2.2 2.05-1.55 3.65-3.6-0.75 2.1 2.85-0.6m-16.8 6.75q1.25 1.6 0.35 3.25l-1.85 1.65 0.4-0.55 0.25-0.6q0.25-0.85-0.1-1.65-0.35-0.75-1.05-0.95l-0.7 0.1h-0.1l-0.05-0.1q1.25-1.35 2.85-1.15m-7.6-39.8-0.2 0.05v-0.05l0.45-0.2 0.45-0.3 0.45-0.35 0.85-0.6 2.95-1.45 2.9-0.65q-2.15 0.75-4.25 2.25l-0.2 0.15-0.15 0.15-0.1 0.05-0.75 0.4-0.2 0.1-0.7 0.15-1.5 0.3m24.75 29.9q0.55 0.1 1.55-0.7l-1.8 2.9q0.4-1.1-0.95 0.15l1.2-2.35" fill-rule="evenodd"/>
<path d="m8.1 5.1 0.2-1.2 0.5 0.95-0.7 0.25m5.9-12.95 2-1.75 10.4-0.9 0.1 0.1-10.25 1.8-2.55 1.15v-0.1l0.3-0.3" fill="#45138a" fill-rule="evenodd"/>
<path d="m5.55-9.1 0.05 0.05 1.15 2 0.5 1.2-0.3 0.1-0.9-1.95-0.75-1.1 0.25-0.3m1.8 4.65 0.35-0.1 0.05 0.15 0.2 1v0.1l0.1 0.6 0.05 0.2v0.5l-0.6-1.95v-0.15l-0.15-0.35" fill="#824f3e" fill-rule="evenodd"/>
<path d="m5.6-9.05v-0.05l-0.85-2.15q-3-6.8-8.3-9.65-1.9-1.8 3.25-0.5 5.85 2.7 9 9.8l1.2 3.35q-0.1 0.75-0.05 1.65l-2.6 0.75-0.5-1.2-1.15-2m2.3 4.45 2-0.5q0.1 1.75 0.5 3.9l-0.15 0.05-0.05-0.05-1.6-2.5-0.2-0.35-0.5-0.55m0.25 2.15 1 1 0.5 0.6 1.15 2.3v0.2q-1.1 2.55-2 3.2l-0.5-0.95-0.2 1.2q-0.7-0.05-1.3-1.15v-0.1q1.45-2.9 1.3-5.85v-0.45h0.05m-27.45-18.9-0.2 0.1 0.2-0.1" fill="#fc3" fill-rule="evenodd"/>
<path d="m6.95-5.75 0.3-0.1 2.6-0.75 4.15-1.25-0.3 0.3v0.1l0.15 0.55-1.75 0.5-0.45 0.1-1.8 0.5-2.35 0.6-0.3 0.1-1.8 0.5-1 0.25-3.45 0.85-2.25 0.65-2.3 0.6-0.1 0.05-2.55 0.65h-0.1l-1.7 0.45-1.3 0.4-0.15 0.05-2.85 0.7-0.1 0.05-2.55 0.6-0.2 0.05 22.15-6.5" fill="#c4a773" fill-rule="evenodd"/>
<path d="m14.2-6.5h-0.15l-1.75 0.45-0.25 0.05-0.6 0.1-0.45 0.2-0.5 0.15h-0.05l-0.4 0.1h-0.05l-0.1 0.05-1.35 0.35h-0.05l-0.85 0.25h-0.05l-0.1 0.05-0.2 0.05-3.65 0.95-0.7 0.2-1.15 0.3-0.05-0.05-0.6 0.1-0.05 0.05-1.75 0.45h-0.1l-1.3 0.35-0.1 0.05-2.9 0.7h-0.05l-0.9 0.25-1.35 0.4-0.6 0.1-6.65 1.75h-0.05l-0.65 0.1-0.25-0.1-0.5 0.1 0.85-0.25 0.2-0.05 2.55-0.6 0.1-0.05 2.85-0.7 0.15-0.05 1.3-0.4 1.7-0.45h0.1l2.55-0.65 0.1-0.05 2.3-0.6 2.25-0.65 3.45-0.85 1-0.25 1.8-0.5 0.3-0.1 2.35-0.6 1.8-0.5 0.45-0.1 1.75-0.5 0.05 0.3 0.3 0.1m-34.9 8.85-0.05 0.05-0.65 0.2 0.7-0.25" fill="#b48d50" fill-rule="evenodd"/>
<path d="m-16.05 1 0.5-0.1 0.25 0.1 0.65-0.1h0.05l6.65-1.75 0.6-0.1 1.35-0.4 0.9-0.25h0.05l2.9-0.7 0.1-0.05 1.3-0.35h0.1l1.75-0.45 0.05-0.05 0.6-0.1 0.05 0.05 1.15-0.3 0.7-0.2 3.65-0.95 0.2-0.05 0.1-0.05h0.05l0.85-0.25h0.05l1.35-0.35 0.1-0.05h0.05l0.4-0.1h0.05l0.5-0.15 0.45-0.2 0.6-0.1 0.25-0.05 1.75-0.45h0.15l0.5 0.15-3.75 0.95-0.2 0.05-0.3 0.1h-0.1l-0.45 0.15-2.2 0.55-0.35 0.1-14.85 3.8-7.9 2.05-1.35 0.35h-0.1l-0.1 0.05-7.2 1.85-0.55 0.15h-0.05l-0.1-0.1v-0.05l0.1-0.1 0.5-0.15 2.25-0.65 0.1-0.05 0.5-0.1 0.65-0.2 0.05-0.05 1.1-0.3 3.55-1.05m-8.65 2.8-0.1-0.2 0.1 0.2-0.1-0.05 0.1 0.05m-0.15-0.1 0.05-0.1-0.05 0.1" fill="#8f713f" fill-rule="evenodd"/>
<path d="m5.55-9.1h0.05-0.05 0.05v0.05l-0.05-0.05m-27.05-13.6v-0.1l0.05-0.05-0.05 0.15m8.2 49.05-0.05 0.05h-0.05l-0.45 0.25h-0.05l0.05-0.05 0.55-0.3h0.05l-0.05 0.05v-0.05 0.05m-0.55 0.4-0.3 0.15 0.3-0.15" fill="#975b48" fill-rule="evenodd"/>
<path d="m-3.55-20.9q5.3 2.85 8.3 9.65l0.85 2.15h-0.05l-0.25 0.3-0.85-2.15q-3.15-7.1-8.45-9.65l0.45-0.3m11.25 16.35 0.2-0.05 0.5 0.55 0.2 0.35 1.6 2.5 0.05 0.05 0.2 0.25 0.05 0.2 0.25 1.25 0.1 0.35v0.15l-0.05 0.3h-0.05l-1.1-2.2-0.5-0.6-1.05-1.05-0.05-0.2-0.1-0.6v-0.1l0.05-0.1-0.1-0.15-0.15-0.75-0.05-0.15m-5.75 19.7q3.05-3.85 4.2-9.7l0.35-1.75 0.45-0.9q1.4-3.25 0.55-6.75l0.6 1.95q0.15 2.95-1.3 5.85v0.05l-0.05 0.1-0.25 1.45q-0.55 2.65-1.45 4.9-0.8 2.05-1.95 3.75v0.05l-0.6 0.85 0.6-0.85v0.05l-0.6 0.8-0.05 0.05-0.5 0.1m4.65-2.25-1.15 1.4-0.15 0.15q0.2-0.6 1.3-1.55m-20 13.5-0.45 0.35 0.05-0.05-0.05-0.05 0.45-0.25m-2-2.2v0.05h-0.05l0.05-0.05m1-1.75v-0.05l0.05 0.05h-0.05" fill="#cc7102" fill-rule="evenodd"/>
<path d="m7.9-3.65 0.1 0.15-0.05 0.1-0.05-0.25m0.2 1.15 0.05 0.05h-0.05v-0.05m2.35 1.6-0.2-0.25 0.15-0.05 0.05 0.3m-25.4 21.4 0.1-0.05v0.05h-0.1m18.05-6.35v-0.05 0.1-0.05" fill="#ba856d" fill-rule="evenodd"/>
<path d="m10.75 1.35h0.05v0.1l-0.05-0.1" fill="#9c614e" fill-rule="evenodd"/>
<path d="m6.8 3.9v0.05l-0.05 0.05 0.05-0.1" fill="#ad715c" fill-rule="evenodd"/>
<path d="m6.8 3.95q0.6 1.1 1.3 1.15-0.6 2.4-2.45 6.2-0.45-0.15-0.6-0.95 0.9-2.25 1.45-4.9l0.25-1.45 0.05-0.05m2 0.9q0.9-0.65 2-3.2l-0.35 2.75-0.1 0.7-0.25 1.1-0.1 0.4-0.2 0.5-0.65 1.55-1.95 1.95q2.3-4.1 2.7-7-0.65 1.6-1.1 1.25" fill="#f8ad01" fill-rule="evenodd"/>
<path d="m5.65 11.3q1.85-3.8 2.45-6.2l0.7-0.25q0.45 0.35 1.1-1.25-0.4 2.9-2.7 7-1 0.8-1.55 0.7" fill="#311070" fill-rule="evenodd"/>
<path d="m9.15 8.65q-1.1 2.3-2.55 4.25-1.1 0.95-1.3 1.55-3.6 2.7-2.85 0.6l0.05-0.05 0.6-0.8v-0.1q1.15-1.7 1.95-3.75 0.15 0.8 0.6 0.95l-1.2 2.35q1.35-1.25 0.95-0.15l1.8-2.9 1.95-1.95" fill="#d28606" fill-rule="evenodd"/>
<path d="m-19.3-18.55-0.4 0.1 0.4-0.15v0.05m4.8 41.05 0.05-0.05-0.05 0.05 0.05-0.05h0.1l-0.05-0.05 0.05-0.05 0.05 0.1h0.1l-0.3 0.05m0.2-0.05h-0.05 0.05" fill="#913a0d" fill-rule="evenodd"/>
<path d="m-19.6 2.05-1.1 0.3-0.7 0.25-0.5 0.1-0.1 0.05-2.25 0.65-0.25 0.05-0.25-0.15-1.7-0.6 2-0.55 0.8-0.2 4.1-1.15 2-0.05-3.3 0.9 1.25 0.4" fill="#9d876c" fill-rule="evenodd"/>
<path d="m-15.2 0.75-0.85 0.25-3.55 1.05-1.25-0.4 3.3-0.9 2.1-0.05 0.25 0.05" fill="#aa9780" fill-rule="evenodd"/>
<path d="m-15.45 0.7-2.1 0.05-2 0.05-4.1 1.15 0.45-1.2 4.5-1 3.25 0.95" fill="#f2edd5" fill-rule="evenodd"/>
<path d="m-24.15 3.65 7.2-1.85 0.1-0.05h0.1l1.35-0.35-3.75 2.75-3.1 1.4-1.9-1.9" fill="#bdad9b" fill-rule="evenodd"/>
<path d="m5.6-9.1h-0.05m0.05 0-0.85-2.15q-3-6.8-8.3-9.65l-0.45 0.3q5.3 2.55 8.45 9.65l0.85 2.15 0.25-0.3m-0.25 0.3 0.75 1.1 0.9 1.95 0.3-0.1 2.6-0.75 4.15-1.25m-4.15 1.25q-0.05-0.9 0.05-1.65l-1.2-3.35q-3.15-7.1-9-9.8-5.15-1.3-3.25 0.5l-1.9-0.85-3.95-0.85q-2.3-0.2-4.5 0.55l-3.05 1.45-0.2 0.1-0.75 0.5-0.8 0.6-0.45 0.25-0.15 0.05-1.05 0.05q-1.35 0.05-1.15-3.6v-0.15l0.05-0.05v-0.4l0.5-1.05q0.55-0.6 1-0.55l0.3 0.05 0.35 0.35 0.1 0.3v0.05l-0.1 0.85m4.1 24-0.85 0.25-3.55 1.05-1.1 0.3m-0.7 0.25-0.5 0.1m-0.1 0.05-2.25 0.65-0.5 0.15-0.05 0.05 0.1 0.2 0.55-0.15 7.2-1.85m0.1-0.05h0.1l1.35-0.35 7.9-2.05 14.85-3.8 0.35-0.1 2.2-0.55 0.45-0.15h0.1l0.3-0.1 0.2-0.05 3.75-0.95m-3.9 7.7 0.05-0.3v-0.15l-0.1-0.35-0.25-1.25-0.05-0.2m-8.5 16.05q3.05-3.85 4.2-9.7l0.35-1.75 0.45-0.9q1.4-3.25 0.55-6.75v-0.15l-0.15-0.35m0.15 0.5 0.6 1.95q0.15 2.95-1.3 5.85v0.05m1.3 1.2 0.2-1.2 0.5 0.95q0.45 0.35 1.1-1.25-0.4 2.9-2.7 7l-1.8 2.9q0.4-1.1-0.95 0.15l1.2-2.35q1.85-3.8 2.45-6.2m2.7-3.45v-0.3m-0.4-2.55q-0.4-2.15-0.5-3.9m0.5 3.9 0.05 0.3m16.05-9.5-10.25 1.8-2.55 1.15m-2.9 9.1-0.35 2.75-0.1 0.7-0.25 1.1-0.1 0.4-0.2 0.5-0.65 1.55q-1.1 2.3-2.55 4.25l-1.15 1.4-0.15 0.15q-4.15 4.55-10.7 6.4l-1.35 0.35-1.15 0.2-0.7 0.05-2.9-0.25q1.25 1.6 0.35 3.25l-1.85 1.65-0.15 0.15-0.1 0.05-0.1 0.1h-0.05l-0.45 0.35 0.05-0.05-0.05 0.05m-0.3 0.15-0.1 0.05-2.3 0.05q-1.05-0.55-1.3-1.8-0.2-1.35 0.55-2.65 0.7-1.3 1.9-1.85l0.45-0.2 0.1-0.05-9.85-16.65h-0.05l-0.1-0.1v-0.05l0.1-0.35-1.7-0.6 2-0.55 5.35-20.75-0.6 0.15h-0.05l-1.35 0.05q-1.45-0.3-2.05-1.65-0.65-1.4-0.05-3.1v-0.1q0.55-1.65 1.95-2.65 0.8-0.65 1.65-0.8l0.7-0.05h0.5l0.4 0.1h-0.05m-0.45-0.15 0.75-0.1h0.05l1.5-0.35 0.4 0.05 0.6 0.55q0.35 0.8 0.05 2-0.35 1.2-1.1 2l-1.2 0.8-1.85 0.5-0.2 0.1h-0.1q-0.35 1.05 0.3 1.55l0.6 0.3m25.45 23.4-0.25 1.45q-0.55 2.65-1.45 4.9m1.7-6.35 0.05-0.1m-4.35 11.15 0.05-0.05 0.6-0.85v-0.05q1.15-1.7 1.95-3.75m-2.6 4.7-0.5 0.1q-1.45 1.85-3.35 3.25l-1.7 1.1q-2.7 1.5-5.5 1.65-2.4 0.1-4.85-0.7l-0.15-0.05-0.65-0.05-0.6 0.15h-0.1m17.4-5.45q-0.75 2.1 2.85-0.6m-24.9-41.15 0.5-0.05h0.35l0.3 0.05h0.05l0.3 0.1h0.05l0.2 0.05 0.05 0.05v0.05l0.05-0.05-0.2-0.1-0.05-0.05m0.2 0.2 0.35 0.45q0.35 0.8 0.05 2-0.3 1.15-1.05 2h-0.05l-0.8 0.65m-2.2-1.35 0.05-0.05m0-0.1-0.05 0.15m0 0.05 0.2 0.65 0.15 0.3 0.55 0.45h0.05l0.45 0.1h0.1l0.3-0.05 0.1-0.05m8.35-0.9q2.75-0.2 5.7 0.9l1.55 0.65m-5.4-2q3.55-0.75 7.3 0.45l1.8 0.75m-19 2.8 0.45-0.2 0.45-0.3 0.45-0.35 0.85-0.6 2.95-1.45 2.9-0.65q-2.15 0.75-4.25 2.25l-0.2 0.15-0.15 0.15-0.1 0.05-0.75 0.4-0.2 0.1-0.7 0.15-1.5 0.3m-0.4-2.65 0.2-0.1m-0.4 2.9 0.4-0.15m3.85 19.3 0.25 0.05 22.15-6.5m-22.4 6.45-2.1 0.05-2 0.05-4.1 1.15-0.8 0.2m9.05-0.75-3.75 2.75-3.1 1.4-1.9-1.9m8.75 20.55-0.05 0.05h0.05v-0.05l0.05-0.7q0.1-0.55 0.55-0.85l0.3-0.15 0.15-0.15q1.25-1.35 2.85-1.15m-1.85 3.3-0.4 0.45-0.1 0.1-0.8 0.1-0.65-0.6-0.1-0.3m12.3-4.75-7.1-0.3-0.3-0.05-1.35 0.15-0.05 0.05-0.15 0.05m-0.05 0-2.75 1.05m2.75-1.05 0.2-0.05m-2.4 3.1h0.1l0.7-0.1q0.7 0.2 1.05 0.95 0.35 0.8 0.1 1.65l-0.25 0.6-0.4 0.55m-1.45-3.65-0.05 0.05m0.05-0.05h0.05v-0.05m0.05 0.05h0.05m-0.1 0h0.05m8.95-1.6q2.15-0.7 4.2-2.2 2.05-1.55 3.65-3.6m-23.85-12.45 0.7-0.25m-2.95-0.4 0.45-1.2 4.5-1 3.25 0.95m-9.3 2.6 0.25 0.15 0.25-0.05m-0.55 0.35 0.1 0.05m-0.1-0.2-0.05 0.1m0.05-0.1-0.05 0.05m11.6 22.65 0.1-0.05m-0.15 0.05v0.05m0-0.05h0.05m-0.9 0.6 0.3-0.15" fill="none" stroke="#000" stroke-linecap="round" stroke-linejoin="round" stroke-opacity=".52157" stroke-width=".05"/>
<path d="m8.45-10.1q-1.65-1.95-1.85 0.35-1.25-5.7-7-10.2 1.75 0.55 1.15-0.2 5.85 3.8 7.7 10.05" fill="#1a1483" fill-rule="evenodd"/>
</g>
</defs>
</svg>
