<?xml version="1.0" encoding="UTF-8"?>
<svg version="1.1" viewBox="0 0 94.038 95.566" xmlns="http://www.w3.org/2000/svg" xmlns:cc="http://creativecommons.org/ns#" xmlns:dc="http://purl.org/dc/elements/1.1/" xmlns:rdf="http://www.w3.org/1999/02/22-rdf-syntax-ns#" xmlns:xlink="http://www.w3.org/1999/xlink">
<metadata>
<rdf:RDF>
<cc:Work rdf:about="">
<dc:format>image/svg+xml</dc:format>
<dc:type rdf:resource="http://purl.org/dc/dcmitype/StillImage"/>
</cc:Work>
</rdf:RDF>
</metadata>
<g transform="translate(-227.96 -152.67)">
<use transform="translate(227.95,152.65)" width="94.050003" height="95.599998" xlink:href="#a"/>
</g>
<defs>
<g id="a" transform="translate(-227.95,-152.65)">
<path d="m310.35 162.75-8.9-3.2 6.3-6.15q5.9-1.95 6.3 4.9l-3.7 4.45" fill="#998948" fill-rule="evenodd"/>
<path d="m310.35 162.75-8.9-3.2 6.3-6.15q5.9-1.95 6.3 4.9z" fill="none" stroke="#000" stroke-linecap="round" stroke-linejoin="round" stroke-opacity=".6" stroke-width=".6"/>
<path d="m295.4 159.9 3.7-1.3 17.6-0.55-10.9 10.55-0.2 0.1-6.9 2h-2.2l1.3-2.9-5.65 2.6-23.35-1.2 17.95-10.2 7.6-0.25-2.7 1.8 0.9 0.35 2.85-1m4.6 1.1-0.75 2.35-1.45 4.45 1.45-4.45 0.75-2.35m7.9-0.25-8.65 2.6 8.65-2.6" fill="#c4d8df" fill-rule="evenodd"/>
<path d="m295.4 159.9-2.85 1-0.9-0.35 2.7-1.8h0.35l0.7 1.15m21.3-1.85 1.65 2 1.15 6.3-0.9 5 2.95 6 0.15 0.95-11.35 15-2.25-0.75-3.65-16.45 1.3-7.45-0.15 0.05 0.2-0.1 10.9-10.55" fill="#8eb5c1" fill-rule="evenodd"/>
<path d="m268.8 169.2 23.35 1.2 5.65-2.6-1.3 2.9h2.2l6.9-2 0.15-0.05-1.3 7.45 3.65 16.45 2.25 0.75-1.6 2.15-33.85-4-6.1-22.25m52.75 8.15-2.95-6 1.65 1.6 1.3 4.4" fill="#558b9b" fill-rule="evenodd"/>
<path d="m318.6 171.35 0.9-5 0.75 6.6-1.65-1.6" fill="#385c67" fill-rule="evenodd"/>
<path d="m294.7 158.75h-0.35" fill="none" stroke="#0b1f37" stroke-linecap="round" stroke-linejoin="round" stroke-opacity=".50196" stroke-width=".05"/>
<path d="m291.65 160.55 2.7-1.8 0.25-0.15 0.1 0.15" fill="none" stroke="#000" stroke-linecap="round" stroke-linejoin="round" stroke-opacity=".6" stroke-width=".05"/>
<path d="m292.15 170.4 5.65-2.6 1.45-4.45 0.75-2.35m-0.75 2.35 8.65-2.6m-11.4 9.95 1.3-2.9" fill="none" stroke="#8eb5c1" stroke-linecap="round" stroke-linejoin="round" stroke-width=".05"/>
<path d="m316.7 158.05-17.6 0.55-3.7 1.3m-1.05-1.15-7.6 0.25-17.95 10.2m50.7-2.85-1.15-6.3-1.65-2m-6.35 35.25 11.35-15-0.15-0.95m-2.05-11 0.75 6.6 1.3 4.4m-11.2 15.95-1.6 2.15-33.85-4-6.1-22.25m25.9-10.45 0.7 1.15" fill="none" stroke="#000" stroke-linecap="round" stroke-linejoin="round" stroke-opacity=".6" stroke-width=".6"/>
<path d="m229.6 234 0.25-0.85 50.5-49.35q5.1-0.75 5.35 3.95v0.2l-9.25 10.35-0.7-1.6-6.6 6.9-3.25 3.7 3.25-3.7 6.6-6.9 0.7 1.6-19.3 21.55-4.1 4.6q-6.15 6.3-12.6 10.8-4.35-4.8-8.25-2.75l-2.6 1.5m38.3-32.8-15.8 16.4 15.8-16.4 8.4-8.65-8.4 8.65 1.25 2.4-1.25-2.4m12.85-9.65-5 5.15 5-5.15" fill="#998948" fill-rule="evenodd"/>
<path d="m234 244.55-0.95-0.85q-4.65-4.45-3.45-9.7l2.6-1.5q3.9-2.05 8.25 2.75 6.45-4.5 12.6-10.8l3.7-3.9-14.6 17.4q2.05 2.7 1.3 5.4-1.6 4.5-9.45 1.2" fill="#796c39" fill-rule="evenodd"/>
<path d="m280.35 183.8 5.5-5.35q7.75-2.6 8.3 6.4l-50.9 61.3q-4.75 2.1-9.25-1.6 7.85 3.3 9.45-1.2 0.75-2.7-1.3-5.4l14.6-17.4-3.7 3.9 4.1-4.6-0.4 0.7 0.4-0.7 19.3-21.55 9.25-10.35v-0.2q-0.25-4.7-5.35-3.95m-1.4 13.2-2.1 2.1-0.4-0.8 0.4 0.8 2.1-2.1m-6 6.65 3.9-4.55-3.9 4.55" fill="#60552d" fill-rule="evenodd"/>
<path d="m234 244.55-0.95-0.85q-4.65-4.45-3.45-9.7m46.85-35.7 0.4 0.8 2.1-2.1m-22.2 23.55 0.4-0.7m-4.1 4.6 3.7-3.9-14.6 17.4m-9.95-5.45q3.9-2.05 8.25 2.75 6.45-4.5 12.6-10.8m23.4-26.15-0.7-1.6-6.6 6.9-3.25 3.7m10.95-8.2-3.9 4.55m3.35-11.1-8.4 8.65 1.25 2.4m6.6-6.9 5-5.15m-28.65 26.05 15.8-16.4" fill="none" stroke="#0b1f37" stroke-linecap="round" stroke-linejoin="round" stroke-opacity=".50196" stroke-width=".05"/>
<path d="m280.35 183.8 5.5-5.35q7.75-2.6 8.3 6.4l-50.9 61.3q-4.75 2.1-9.25-1.6m-4.4-10.55 0.25-0.85 50.5-49.35" fill="none" stroke="#000" stroke-linecap="round" stroke-linejoin="round" stroke-opacity=".6" stroke-width=".6"/>
<path d="m234.65 235.55q-0.55-0.55-1.4-0.55t-1.45 0.55q-0.55 0.6-0.55 1.45t0.55 1.4q0.6 0.6 1.45 0.6t1.4-0.6q0.6-0.55 0.6-1.4t-0.6-1.45m-6.3 3.7q-0.45-3 1.35-4.8 1.85-1.9 5-1.45 3.05 0.45 5.55 2.9 2.45 2.45 2.95 5.55v1.75q-6.15 6.3-14.85-3.95" fill="#f4db82" fill-rule="evenodd"/>
<path d="m243.2 243.2q-0.15 1.9-1.45 3.25-1.9 1.85-4.95 1.4-3.15-0.45-5.6-2.9t-2.85-5.6v-0.1q8.7 10.25 14.85 3.95" fill="#d7ab13" fill-rule="evenodd"/>
<path d="m234.65 235.55q0.6 0.6 0.6 1.45t-0.6 1.4q-0.55 0.6-1.4 0.6t-1.45-0.6q-0.55-0.55-0.55-1.4t0.55-1.45q0.6-0.55 1.45-0.55t1.4 0.55" fill="#f9eab7" fill-rule="evenodd"/>
<path d="m228.35 239.25q-0.45-3 1.35-4.8 1.85-1.9 5-1.45 3.05 0.45 5.55 2.9 2.45 2.45 2.95 5.55v1.75q-0.15 1.9-1.45 3.25-1.9 1.85-4.95 1.4-3.15-0.45-5.6-2.9t-2.85-5.6z" fill="none" stroke="#000" stroke-linecap="round" stroke-linejoin="round" stroke-opacity=".6" stroke-width=".6"/>
</g>
</defs>
</svg>
