<?xml version="1.0" encoding="UTF-8"?>
<svg version="1.1" viewBox="0 0 358.66 268.2" xmlns="http://www.w3.org/2000/svg" xmlns:cc="http://creativecommons.org/ns#" xmlns:dc="http://purl.org/dc/elements/1.1/" xmlns:rdf="http://www.w3.org/1999/02/22-rdf-syntax-ns#" xmlns:xlink="http://www.w3.org/1999/xlink">
<metadata>
<rdf:RDF>
<cc:Work rdf:about="">
<dc:format>image/svg+xml</dc:format>
<dc:type rdf:resource="http://purl.org/dc/dcmitype/StillImage"/>
</cc:Work>
</rdf:RDF>
</metadata>
<g transform="translate(-90.085 -61.15)">
<use transform="translate(90.1,61)" width="358.70001" height="268.35001" xlink:href="#a"/>
</g>
<defs>
<g id="a" transform="translate(-90.1,-61)">
<path d="m347.45 167.8q20.35 10.15 45.7 4.9 39.05-8.25 43.5-41.45 6.25-34.05-14.6-57.35-5.7-6.35-11.8-1.15l-0.3 0.25q-4.45 3.95-4.8 10.35v0.25q-0.25 5.85 3 10.8 4.15 3.5 9.85 2.25-4.25 3.95-8.15 3.8-1.85-0.1-3.6-1.05l-2.4-1.8q-2.8-3.3-3.5-8.95-0.45-3.8 0.05-8.65 1.2-11.3 5.35-15.3l1.2-1q3.65-2.9 7.6-1.55 3.7 1.3 9 7.15 13.6 15.05 20.15 35.4 6.5 20.4 3.5 36.7-4.4 33-44.2 41.4-14.8 3.05-35.65-3.3-13.1-4-24.6-10.2l4.7-1.5m-29.2 7.85q-0.75 5.55-2.5 10.2-12.8 13.4-21.7-23.5l0.05-0.35q-10.45 18.75-9.6 37.55l-12.6 8.9q-0.8 3.45-2.05 6.45l-0.05 0.1q-11.8 8.55-18.5-17.6v-0.75h-0.05l-0.25 0.35-0.05 0.1q-9.2 15.7-4.65 29.45l-16.45 11.65q-0.75 4.05-2.1 7.45-12.8 7.85-18-17.85v-0.85l-0.25 0.45-0.05 0.1q-8.1 14.3-6.5 29.75l-12.85 9.1q-0.7 3.05-1.8 5.7l-0.3 0.6q-10.7 7.35-15.95-12.95l-0.1-3.75q0-2.15 0.15-4.1-7.95 13.5-9.95 27l-65 46.7q-4.9-5.6-7-16l82.45-62.1q0.7-4.15 2.15-7.55 2.8-6.7 6.75-6.65 2.9-0.05 5.2 3.6l23.8-17.9q0.75-4.35 2.3-7.95 3.05-7.25 7.4-7.25 3.1 0 5.55 3.75l26.2-19.75q0.75-5.2 2.5-9.4 3.2-7.55 7.75-7.55 3.5 0 6.2 4.6l26.4-19.9q0.9-5.4 2.8-9.8 3.65-8.65 8.8-8.65 3.8 0 6.75 4.65l2 4q3.7 8.6 3.7 20.8 0 4.85-0.6 9.15" fill="#5b4a24" fill-rule="evenodd"/>
<path d="m319.35 137.05q-1.65-5.3-1.65-11.35-0.05-16.35 12.1-29.15 4.15-4.45 8.95-7.55 9.85-6.55 22.25-7.3 2.85-0.2 5.6-0.05l5.65 0.65q11.4 2.2 19.55 10.95l1.6 1.8q2.25 2.7 3.85 5.7 4.3 7.9 4 17.55l-0.5 4.95q-0.6 3.8-1.75 7.35-4 11.8-14.6 20.45-13.1 10.5-29.3 10.5-7.45 0-13.75-2.25l-2.8-1.1q-5.45-2.5-9.95-6.7l-0.5-0.5q-6.25-6.1-8.75-13.95m38.3-47.55q-10.15 0.65-18.3 5.7-4.6 2.85-8.5 7.05-10.45 11-10.4 25.05-0.05 5.15 1.4 9.7 2.15 6.75 7.55 12l0.4 0.45q3.9 3.6 8.55 5.75l2.4 0.95q5.4 1.9 11.8 1.95 13.9-0.05 25.15-9.05 9.5-7.75 12.8-18.4 0.8-2.65 1.25-5.45l0.45-4.25q0.3-9.15-4.25-16.5l-1.8-2.55-2.05-2.45q-5.05-5.45-11.55-7.9-3.25-1.3-6.9-1.8l-8-0.25m-13.4 18.05 0.1-0.5q-0.05-0.85-0.6-1.4-0.4-0.4-0.95-0.5l-0.4-0.05q-0.8 0-1.35 0.55-0.6 0.55-0.55 1.4-0.05 0.75 0.55 1.35 0.55 0.55 1.35 0.55t1.35-0.55l0.5-0.85m0 3.6q-1.45 1.25-3.5 1.25t-3.55-1.25q-1.45-1.25-1.45-3t1.45-3q1.5-1.25 3.55-1.25l1.5 0.2q1.1 0.3 2 1.05 1.5 1.25 1.5 3l-0.15 1.2q-0.4 1-1.35 1.8" fill="#f30" fill-rule="evenodd"/>
<path d="m357.65 89.5 8 0.25q3.65 0.5 6.9 1.8 6.5 2.45 11.55 7.9l2.05 2.45 1.8 2.55q4.55 7.35 4.25 16.5l-0.45 4.25q-0.45 2.8-1.25 5.45-3.3 10.65-12.8 18.4-11.25 9-25.15 9.05-6.4-0.05-11.8-1.95l-2.4-0.95q-4.65-2.15-8.55-5.75l-0.4-0.45q-5.4-5.25-7.55-12-1.45-4.55-1.4-9.7-0.05-14.05 10.4-25.05 3.9-4.2 8.5-7.05 8.15-5.05 18.3-5.7m17.85 6.9q-2.05 0-3.75 1.15-0.95 0.6-1.75 1.55l-0.55 0.8q-1.7 2.45-1.7 5.75l0.2 2.1q0.45 2.5 2.05 4.45 2.3 2.7 5.5 2.7 3 0 5.2-2.4l0.25-0.3q1.6-1.85 2.1-4.25l0.2-2.3-0.1-1.6q-0.4-2.85-2.2-4.95-2.25-2.7-5.45-2.7m-7.2 51.05q3.95-3.95 3.95-9.55t-3.95-9.55-9.55-3.95-9.55 3.95-3.95 9.55 3.95 9.55 9.55 3.95 9.55-3.95m-24.05-36.3q0.95-0.8 1.35-1.8l0.15-1.2q0-1.75-1.5-3-0.9-0.75-2-1.05l-1.5-0.2q-2.05 0-3.55 1.25-1.45 1.25-1.45 3t1.45 3q1.5 1.25 3.55 1.25t3.5-1.25" fill="#ff572d" fill-rule="evenodd"/>
<path d="m375.5 96.4q3.2 0 5.45 2.7 1.8 2.1 2.2 4.95l0.1 1.6-0.2 2.3q-0.5 2.4-2.1 4.25l-0.25 0.3q-2.2 2.4-5.2 2.4-3.2 0-5.5-2.7-1.6-1.95-2.05-4.45l-0.2-2.1q0-3.3 1.7-5.75l0.55-0.8q0.8-0.95 1.75-1.55 1.7-1.15 3.75-1.15m6.05 8.45 0.05-0.8q0-2.4-1.4-4-1.4-1.65-3.35-1.65t-3.35 1.65q-1.15 1.35-1.3 3.2l-0.05 0.8q0 2.35 1.35 4 1.4 1.6 3.35 1.65 1.95-0.05 3.35-1.65 1.15-1.35 1.35-3.2m-13.25 42.6q-3.95 3.95-9.55 3.95t-9.55-3.95-3.95-9.55 3.95-9.55 9.55-3.95 9.55 3.95 3.95 9.55-3.95 9.55m-3.6-10.8q1.55-1.55 1.55-3.75t-1.55-3.75-3.75-1.55-3.75 1.55-1.55 3.75 1.55 3.75 3.75 1.55 3.75-1.55" fill="#fa8f30" fill-rule="evenodd"/>
<path d="m381.55 104.85q-0.2 1.85-1.35 3.2-1.4 1.6-3.35 1.65-1.95-0.05-3.35-1.65-1.35-1.65-1.35-4l0.05-0.8q0.15-1.85 1.3-3.2 1.4-1.65 3.35-1.65t3.35 1.65q1.4 1.6 1.4 4l-0.05 0.8m-16.85 31.8q-1.55 1.55-3.75 1.55t-3.75-1.55-1.55-3.75 1.55-3.75 3.75-1.55 3.75 1.55 1.55 3.75-1.55 3.75" fill="#fdc897" fill-rule="evenodd"/>
<path d="m344.25 107.55-0.5 0.85q-0.55 0.55-1.35 0.55t-1.35-0.55q-0.6-0.6-0.55-1.35-0.05-0.85 0.55-1.4 0.55-0.55 1.35-0.55l0.4 0.05q0.55 0.1 0.95 0.5 0.55 0.55 0.6 1.4l-0.1 0.5" fill="#ff7d5e" fill-rule="evenodd"/>
<path d="m347.45 167.8-4.7 1.5-8.45-5-16.05 11.35q0.6-4.3 0.6-9.15 0-12.2-3.7-20.8l-2-4 6.2-4.65q2.5 7.85 8.75 13.95l0.5 0.5q4.5 4.2 9.95 6.7l2.8 1.1-3.65 2.55q4.7 3.45 9.75 5.95m-31.7 18.05-0.6 1.5q-3.6 8.65-8.75 8.65-4.45 0-7.8-6.45l-14.1 10q-0.85-18.8 9.6-37.55l-0.05 0.35q8.9 36.9 21.7 23.5m-45.95 29.15q-3.15 7.45-7.6 7.45-3 0-5.4-3.3l-10.5 7.4q-4.55-13.75 4.65-29.45l0.05-0.1 0.25-0.35h0.05v0.75q6.7 26.15 18.5 17.6m-42.05 30.65-0.2 0.45q-3.05 7.25-7.35 7.25-3.3 0-5.85-4.2l-11.4 8.1q-1.6-15.45 6.5-29.75l0.05-0.1 0.25-0.45v0.85q5.2 25.7 18 17.85m-39.75 27q-2.7 6.05-6.5 6.05-2.6 0-4.75-2.9l-75.35 53.35q-2.35-1.45-4.25-3.6l65-46.7q2-13.5 9.95-27-0.15 1.95-0.15 4.1l0.1 3.75q5.25 20.3 15.95 12.95" fill="#43371b" fill-rule="evenodd"/>
<path d="m422.2 67.85 1.4 1.75 1.35 1.25 1.3 1.45 1.35 1.65 1.25 1.6 1.05 1.5 1.05 1.7q0.45 1 1.35 1.85m-25.35-16.9 1.65-1.15q0.7-0.5 1.75-0.85l2.15-0.05 2.05 0.65 1.85 0.75 1.45 1.1 1.8 1.25q1.2 0.6 1.65 1.55m-7.05 3.7-2.1 0.85q-1.05 0.55-1.25 0.75l-0.65 0.5m14.4 4.3q-0.2-0.9-1.05-1.6l-1.65-1.35-1.4-1.35q-0.55-0.65-1.4-1.15l-1.8-0.8-1.9-0.3m-10.3 13.1 0.05 1.9 0.25 2.15q0.2 1.15 0.7 1.95 0.55 0.8 0.7 1.8l0.65 1.95m0.75 1.15 1.45 1.2q0.75 0.55 1.75 0.5l2.3 0.5 2.15 0.1q0.85-0.4 1.1 0t-0.65 1l-1.4 1.2m17.7-9.05-1-2-1-1.6q-0.65-0.9-0.8-1.8-0.15-0.85-0.65-1.75l-1.2-1.65-1.35-1.6-1.2-1.5m7.55 3.65q0.2 1.2 1.05 1.7 0.9 0.5 1.35 1.5l0.9 1.9 1.05 1.7 0.85 1.85 0.9 2.15q0.65 1.2 0.6 1.9 0 0.7 0.8 1.6m-3.4 8.2q-0.5-0.95-0.6-1.9l-0.05-1.75q0.05-0.75-0.5-1.95l-0.8-2.2-0.65-1.8-0.75-1.7-0.6-1.85m-94.4-2.05-1.8 1.1-1.45 1.15-1.45 1.4q-0.65 0.75-1.65 1.2-0.95 0.5-1.6 1.4l-1.4 1.7-1.45 1.7-1.25 1.55-1.2 1.45-1.1 1.5m72.85-2.4-1.3-1.6-1-1.65-0.75-1.25-0.8-1.2m12.85 4.35-1.65-1.1q-1.15-0.75-1.55-1.55l-0.85-1.55q-0.4-0.8-0.55-2.1l-0.5-2.3-0.45-1.5-0.35-0.65m-2.85 45.65 0.65-1.35 0.85-2.35m-14.3 20.25q0.75-1 1.75-1.6l1.25-1.25q0.25-0.65 1.15-1.5l1.55-1.2q0.6-0.4 1.2-1.4l1.25-1.85 1.1-1.6 1.1-1.65 0.75-1.7q0.25-0.75 1.2-1.7m-56.45 23.6q0.15-0.15 0.8 0.3 0.9 0.65 1.9 0.75l1.95 0.3 1.8 0.25 2.2 0.35 2.2 0.45 2 0.05 2 0.1m-14.05-2.25-1.65 1.25-1.2 0.65-0.8 0.65 1.75 1.05 1.4 1.15 1.8 1.2q1.1 0.5 2 1.1l1.8 1q0.95 0.45 1.8 0.7 0.9 0.25 1.8 1m10.85 8.3-1.45-0.55-2.2-0.85-1.75-0.75-1.95-0.75-2.05-0.6-1.45-0.8-1.8-1.15-2.05-0.9-1.65-0.75m6.7-0.7q0.95 0.8 1.7 0.95l1.9 0.35 2.3 0.6 2.1 0.7 1.85 0.3q0.9 0.05 1.85 0.55 1 0.55 2 0.5m-8.3-11.95 2.1-0.05 2.05-0.2 1.95-0.25 1.8-0.3 1.9-0.45 2-0.65 1.95-0.65m-43.3-9 1.5 1.65 1.7 1.35 1.75 1.25 1.7 1.3 1.9 1.25 1.8 1.1 1.85 0.6m4.15 11.15-1.7-1.1-1.8-0.85-1.75-1-1.6-1.15-1.2-0.75-1.1-0.5-1.3 1.3-1.5 1-1.8 1.35-1.65 1.15-1.65 0.75q-1.05 0.4-1.8 1.25l-1.45 1.1q-0.65 0.2-1.8 1.25m16.35-11.6-1.5 1.05-1.5 0.9-0.4 0.5m41.35 17.45-2.2-0.4-2-0.45q-0.75 0-1.9-0.55l-1.95-0.75-1.65-0.3q-0.8-0.1-2.1-0.75l-1.85-0.8m33.05-5.5 2-0.55q0.85-0.5 1.65-0.85l1.9-0.5 2-0.4 1.85-0.55 1.95-0.8 1.8-0.75 1.65-0.7 1.65-0.8 2.1-0.85m-31.9 8.75 2.05-0.25 2.1-0.05 1.9-0.3 1.95-0.4 2.1-0.35 2.05-0.35m-22.25-14q1.05-0.55 1.95-0.75 0.95-0.15 1.75-0.7l1.75-1.05 1.7-1 1.65-1.15 1.6-1.2 1.5-1.05m3.3 31.9-1.7 0.1-2.15-0.45-2.05-0.55-2.1-0.5-1.95-0.1m-10.65-8.35 2.15 0.15 1.8-0.1 2.1 0.4 2.05 0.1h2.2l1.85 0.1h2.05m23.6 8.25q-0.9 0.7-2 0.65l-2.1 0.05-1.95 0.2-1.95-0.05-2 0.05q-1 0.2-1.85 0-0.8-0.2-1.95 0l-2.2 0.15m-69.45-49.8q0 1 0.3 1.6l0.5 1.6 0.8 2.1 0.7 1.7 0.65 1.9q0.4 1.05 1.05 1.65l1 1.5 1.2 1.65 1.55 1.55m118.95-39.1q0.6 1.3 0.6 1.95l0.15 1.95 0.25 2.1 0.6 1.95 0.7 2 0.2 1.75q-0.05 1 0.05 1.85l0.3 4.3m0.05 1.3-0.05 1.8 0.15 2.05-0.15 1.95-0.35 2.1-0.2 2.15m-0.2 1.3-0.3 1.6-0.45 2-0.25 2-0.25 2.1q-0.15 1.05-0.7 1.95l-1.05 1.9-0.9 1.8-0.6 1.85-0.7 1.9m-1.15-60.45q0.15 1.1 0.85 1.95t0.8 1.8l0.6 2.15 0.7 2.2 0.35 1.75q0.15 0.85 0.65 1.8m-7 12.4v-2.2l0.2-2.05q0.25-0.85 0.05-1.95l-0.3-1.85-0.25-1.8-0.15-1.95 0.05-2.05q0.15-1.15-0.25-1.95m-23.4-5.85q-0.9 0.5-2.15 0.6l-1.8 0.2m24.85 39.95q0-0.6 0.3-1.8l0.45-2.15q0.15-0.95 0.6-2.05l0.55-2.1 0.2-2.2 0.1-1.8q0-0.65 0.5-1.9 0.5-1.2 0.35-1.95v-1.95m-10.05 31.3 1-1.9 1.2-1.65 1-1.5 1.05-1.6 0.95-1.8 0.65-2.05q0.25-1.05 0.75-1.75m7.15 17.25-0.95 1.55-1.15 1.6-1.4 1.95-1.25 1.55-1.3 1.05q-0.65 0.55-1.4 1.8m-19.4-3.3q0.5-0.85 1.7-1.15 1.25-0.25 1.9-1 0.7-0.75 1.35-1.2 0.7-0.4 1.4-1.15l1.55-1.4 1.5-1.45 1.4-1.5 1.5-1.35m6.2 14.35-1.45 0.85-1.85 1.25-1.75 1.45-1.65 1.2q-0.65 0.25-1.5 0.85l-1.75 1-1.85 0.9-1.75 0.75q-0.8 0.25-1.7 1m-1.2 0.5-1.8 0.8-1.85 0.65q-1 0.2-1.8 0.65-0.75 0.5-2.05 0.4l-2.25 0.2q-1 0.35-1.8 0.8m-153.7 19.7-0.2-2.05-0.2-2.1q-0.15-0.95 0-1.8l0.25-2-0.1-2.35q-0.15-1.2 0.25-1.95t0.45-2q-0.7 0.85-1.8 1.15-1.1 0.35-1.65 1.1l-1.4 1.5-1.75 1.15q-0.95 0.45-1.6 0.95l-1.45 1.3-1.55 1.25m82.95-91.9-0.95 1.75-0.85 1.85-0.7 1.8-0.65 1.75-0.85 2.1-0.6 1.9-0.6 1.75m-0.25 1.3-0.15 1.9-0.1 1.95-0.2 2.3 0.2 2.15 0.05 1.95q-0.15 0.85 0 2l0.25 1.9m-19.75 11.05q-0.4 1.1-1.1 1.75-0.7 0.7-0.9 1.7l-0.35 2.3-0.45 2.1-0.5 1.8m20.7-5.65q-0.05-0.9-0.85-2.05l-1.05-1.85-0.6-1.1q-0.35-0.3-0.3-0.95l-1.25-1.5-1.15-1.2-1.65-1.4q-1.15-0.7-2.15-0.6l-2.05 0.35q-1 0.2-1.65 0.5t-1.5 0.95l-1.45 1.5q-0.6 0.85-1.1 2.15m20.15-5.4-1.5 1.4-1.7 1.05q-0.9 0.5-1.4 0.95l-1.6 1.25m-30.55 23-1.85 1.45-1.35 1.05-1.65 1.15-1.55 1.15-1.65 0.95q-1 0.4-1.55 1.45m-0.15 19.45-0.25-1.75-0.25-2.2-0.2-2q-0.05-1.05-0.5-1.8-0.4-0.7-0.65-1.85l-0.8-2.05-0.85-1.85-0.35-1.2-0.6-1.25-1.15-1.8-1.35-1.4q-0.8-0.75-1.65-0.85l-1.9-0.4-2.05 0.2q-1 0.5-1.7 1.05l-1.6 1.4q-0.9 0.8-1.4 1.8t-0.55 1.7m-0.6 1.25-1 2.05-0.7 1.85q-0.35 1-0.15 1.9l0.05 1.35-0.7 2.25m20.05-15.05-1.55 1.05-1.3 1.05q-0.6 0.3-0.75 0.6m0.45 41.55q0.1-1.05 0.85-2t0.65-1.8q-0.05-0.8 0.65-1.85l0.7-1.5 0.2-1.35 0.15-1.85q0.1-1.05 0.55-2.15 0.45-1.05 0.3-2.2l-0.05-1.95 0.25-1.8 0.05-1.85q-0.1-0.9-0.05-2 0.1-1.05-0.15-2.1m45.5-33.9-0.4-1.95-0.35-2-0.35-1.95-0.55-1.7-0.45-2.2m-4.2 43.9q0.9-0.95 1.05-1.95 0.15-0.95 1.1-1.85 0.95-0.85 1.25-1.85l0.3-1.85q0-0.9 0.45-1.8l0.7-2 0.5-2 0.3-1.3 0.45-2.5q0.5-0.7 0.5-2l-0.15-2.15q-0.15-0.85 0.15-1.75 0.3-0.85 0.05-2-0.2-1.15 0.1-2.2l0.3-1.7-0.25-1.65-0.4-2.35m-23.55-5.25-0.2 0.9q-0.15 0.6-0.05 1.7l-0.1 2.3-0.45 2.2q-0.2 1-0.25 1.95v2.15l-0.05 1.95 0.1 1.85m0.8-14.1q-0.8 0.2-1.4 0.9l-1.45 1.45-1.85 1.35q-0.95 0.6-1.75 1.15l-1.55 1.35-1.65 1.15q-0.8 0.4-1.55 1.05m10.5 7q-0.4 1.4-0.1 2.25l0.45 1.85 0.25 1.95 0.4 2 0.4 1.8q0.05 0.8 0.6 2.3m15.25 10.6-1.7 1.35q-0.9 0.5-1.8 0.65l-1.9-0.05-2-0.45q-0.95-0.2-1.7-0.85l-1.4-1.45q-0.65-0.8-1.05-1.8-0.35-1-1.2-1.5l-1.45 1-1.75 1.4-1.65 1.15-1.6 0.9q-0.75 0.4-1.5 1.1l-1.7 1.35-1.7 1.3-1.55 1m10.8-14.45 0.8 1.8 0.45 1.65q0 0.5 0.85 1.8m21.75-15.4-0.9 1.05q-0.2 0.45-1.2 0.45m-207.2 118.1 1.5-1.15 1.7-1.35 1.45-0.9 1.4-1.2 1.75-1.6 1.8-1.05q0.9-0.35 1.6-1.15m-20.2 15.2q0.9-0.2 1.4-0.95 0.55-0.75 1.6-1.3l1.9-1.35 3.1-2.4m39.2-29.6q0.35-0.6 1.35-0.95t1.8-1.4q0.85-1 1.65-1.45l1.6-1 1.65-1.2 1.8-1.2q1.05-0.55 1.35-1.2m-25 18.8 1.55-1.25q0.8-0.6 1.8-1.15l1.6-1.05 1.3-1.35q0.75-0.85 1.6-1.35l1.75-1.25q0.9-0.8 1.65-1.2l1.55-1m-25 18.8 1.35-1.05 1.95-1.3 1.45-1.25q0.6-0.6 1.7-1.15l1.65-1 1.2-1.2q0.7-0.8 1.9-1.45m31.7 7.5q-0.75 1-1.55 1.2-0.75 0.2-1.65 1.1-0.85 0.9-1.55 1.2l-1.4 0.8-1.85 1.1q-1.05 0.7-1.5 1.35-0.4 0.65-1.7 1.15m-1 0.7-1.55 0.95-1.65 1.3-1.65 1.35-1.65 0.9q-0.7 0.3-1.5 1.1m-1 0.7-1.75 1.05-1.4 1.2-1.65 1.2-1.55 1.1-1.6 1.15-1.7 1.35-1.55 1.15q-0.8 0.55-1.6 0.8m-1 0.7q-0.4 0.75-1.6 1.2-1.15 0.45-1.85 1.1l-1.6 1.1q-0.95 0.45-1.8 1.05l-1.3 1.15-1.3 1.1-3.4 2.2-1.6 1.2-1.55 1.2m-1 0.7q-0.7 0.65-1.65 0.9-0.95 0.3-1.85 1.3l-1.5 1.4-1.5 0.95q-0.85 0.65-1.7 0.9t-1.75 1.05l-1.3 1.4m-11-12.25q-0.5-1-0.7-1.95l-0.5-2.1q-0.25-1.2 0.05-1.95l0.7-1.4q0.4-0.65 1.45-1.2l1.8-1.05 1.75-1.2 1.45-1.45q0.4-0.85 1.3-1.4t1.85-0.85m0.85 27.5-1.65-0.75-1.7-1.25-1.35-1.15-1.15-1.3-1.35-2.1-0.95-1.85-0.7-1.55-0.75-1.85m192.4-117.6q-0.55 0.45-1.8 0.95-1.2 0.5-1.55 1.2-0.3 0.7-1.2 1.25l-2.05 1.2q-1.1 0.6-1.75 1.2l-1.45 1.1-1.15 0.8-1.85 1.3m-15.7 9.85 0.6 0.85q0.85 0.35 1.35 1.3 0.5 1 1.4 1.35l2.15 0.45 1.9-0.15 1.65-0.75 1.8-1.45 1.2-1.8m-16.65-14.85q0.45 1.15 0.25 2.3-0.15 1.2 0.45 1.9 0.6 0.75 0.6 1.9l0.3 2.1 0.9 2 0.95 1.95 0.55 1.85m1.2 1.9q-0.6 0.2-1.65 1.05l-3.2 2.4q-0.6 0.6-1.75 1.25-1.1 0.65-1.7 1.3l-1.35 1.05-1.75 0.95m-5.65-30.2-1.6 1.5-1.5 1.1-1.45 1.05-1.85 1.25q-0.8 0.5-1.35 1.15l-1.45 1.2-2 1.15m-1 0.75-1.2 0.8-0.6 0.6q0.5 0.45 0.1 0.2l1.05 1.9 0.75 1.9 0.6 2q0.25 1.15 0.8 1.95 0.55 0.85 0.6 1.9l0.2 2q0.1 1 0.5 1.9 0.4 0.95 0.05 1.9m-4.65-15.65-1.2-1.45q-0.75-0.7-1.75-1.3l-1.7-0.85q-0.7-0.25-1.75 0-1.05 0.3-1.65 0.75l-1.7 1.05m-0.85 1-0.9 1.6-0.95 1.75q-0.6 0.95-0.8 1.85l-0.55 1.9-0.65 1.95-0.65 1.8q-0.35 0.8-0.15 1.4l-0.1 2.2q-0.05 1.1-0.45 1.8-0.4 0.75-0.25 1.95l0.05 2.25q-0.1 1.05-0.05 2.1l0.1 1.85 0.1 2.15m0.6-14.3-1.4 1.4-1.8 0.95q-1.1 0.3-1.7 1.1l-1.5 1.35-1.65 1.2-1.55 1.05-1.6 1.35m10.7 7.15q0.55 0.85 0.25 1.9-0.3 1.1 0.1 2.3l0.8 2.15 0.7 1.95 0.4 2.15q0.15 1.1 0.65 1.8l1.05 1.7q0.2 0 0.4 0.7l1.3 1.5 1.5 1.4q0.95 0.9 1.95 0.9l2 0.1q0.95 0.05 1.8-0.5 0.9-0.5 1.45-1.4 0.6-0.9 1.2-1.3m18.85-22q-1.15 0.55-1.65 1.1l-1.65 1.25-1.6 1.2-1.35 1.15-1.8 1.35-1.7 1.25-1.5 0.75m-6.95 12.9 1-1.85q0.25-0.8 0.65-1.65l0.75-1.9 0.25-1.95q0-0.9 0.4-1.4 0.45-0.45 0.6-1.85 0-1.1 0.45-2t0.4-1.95l-0.1-1.85v-2l0.2-2.05q0.2-0.9-0.2-1.85-0.35-0.9-0.1-2.15m1.65 12.25-1.35 0.85-0.95 0.75m-55.3 2.1-0.6 1.95-0.45 2q-0.15 0.95-0.6 1.5-0.45 0.6-0.3 1.7l0.1 1.8-0.3 2-0.35 2.25q-0.1 0.9 0.1 1.8 0.2 0.95-0.2 2.15m18.95-6.25-0.25-2.05-0.4-1.6-0.4-1.95-0.35-2.15-0.8-2.1-0.8-1.85-0.75-1.9-0.45-0.75-1.25-1.9q-0.65-0.7-1.45-1l-1.65-0.65-1.85 0.1q-1 0.5-1.85 1.05l-1.45 1.5-1.15 1.6-0.9 1.5m23.15-10.9-1.6 1.1q-1.25 0.7-1.85 1.5l-1.25 1.3-1.45 1.1-1.85 1.3q-1 0.75-1.75 1.1-0.7 0.4-1.45 1l-0.4 0.3m15.35 21-1.5 1.1-1.7 1.35-1.55 1.1-1.9 1.1q-1.1 0.7-1.6 1.3l-1.25 0.95q-0.7 0.4-1.75 1.1l-0.65 0.5q0.25-0.2 0.05 0.4l-1.3 3.7-0.7 1.9-1 1.9m2.95-7.9h-0.05l0.15-2q0-1 0.25-2.05l0.45-2.05-0.05-2.1q-0.2-1.1 0.15-1.75 0.4-0.6 0.3-1.65l-0.35-2.3m-29.55 3.4 1.6-1.15q0.35-0.55 1.45-1.15 1.15-0.55 1.85-1.25 0.7-0.65 1.65-1.2l1.6-1.15 1.15-1 1.85-1.5m-0.55 11.25 0.35 2.05 0.05 2.25q0 1.2 0.3 2.2l0.45 1.55 0.5 1.8 0.55 2.2m0.5 1.3q-0.05 0.95 0.45 1.45 0.55 0.5 1.55 2.3l1.4 1.75q0.7 0.65 1.75 0.9l2 0.1 1.7-0.45 1.65-1.15 1.4-1.65m-9.9 0.5-1.6 1.6-1.5 1.1-1.6 1q-0.9 0.5-1.8 1.25l-1.55 1.2-1.55 1m47.2-33.8q-0.55 0.8-1.5 1.15-0.9 0.4-1.55 1.25t-1.4 1.15l-1.55 1-1.65 1.2-1.8 0.9q-0.95 0.4-1.85 1.35" fill="none" stroke="#000" stroke-linecap="round" stroke-linejoin="round"/>
<path d="m187.35 255.25q-1.25 3.5-3.05 3.5t-3.1-3.5q-1.25-3.5-1.25-8.45t1.25-8.45q1.3-3.5 3.1-3.5t3.05 3.5q1.3 3.5 1.3 8.45t-1.3 8.45" fill="#bea05a" fill-rule="evenodd"/>
<path d="m226.45 226.4q-1.25 3.5-3.05 3.5t-3.1-3.5q-1.25-3.5-1.25-8.45t1.25-8.45q1.3-3.5 3.1-3.5t3.05 3.5q1.3 3.5 1.3 8.45t-1.3 8.45" fill="#bea05a" fill-rule="evenodd"/>
<path d="m266.7 192q-1.25 3.5-3.05 3.5t-3.1-3.5q-1.25-3.5-1.25-8.45t1.25-8.45q1.3-3.5 3.1-3.5t3.05 3.5q1.3 3.5 1.3 8.45t-1.3 8.45" fill="#bea05a" fill-rule="evenodd"/>
<path d="m311.45 158.45q-1.25 3.5-3.05 3.5t-3.1-3.5q-1.25-3.5-1.25-8.45t1.25-8.45q1.3-3.5 3.1-3.5t3.05 3.5q1.3 3.5 1.3 8.45t-1.3 8.45" fill="#bea05a" fill-rule="evenodd"/>
</g>
</defs>
</svg>
