<?xml version="1.0" encoding="UTF-8" standalone="no"?>
<!DOCTYPE svg PUBLIC "-//W3C//DTD SVG 1.1//EN" "http://www.w3.org/Graphics/SVG/1.1/DTD/svg11.dtd">
<svg width="100%" height="100%" viewBox="0 0 39 39" version="1.1" xmlns="http://www.w3.org/2000/svg" xmlns:xlink="http://www.w3.org/1999/xlink" xml:space="preserve" xmlns:serif="http://www.serif.com/" style="fill-rule:evenodd;clip-rule:evenodd;stroke-linecap:round;stroke-linejoin:round;">
    <g transform="matrix(1,0,0,1,-6.72161,-6.275)">
        <g>
            <g id="shape0">
                <path d="M12.75,30.15L12.25,29.65L12.2,28.95C12.3,28.683 12.483,28.5 12.75,28.4C12.95,28.3 13.183,28.3 13.45,28.4C13.683,28.5 13.85,28.65 13.95,28.85C14.083,29.117 14.083,29.383 13.95,29.65L13.5,30.1L12.75,30.15" style="fill:#336966;fill-opacity:0.7;"/>
                <path d="M14.35,27.9L14.2,27.7L14.2,27.5L14.35,27.3L14.55,27.35L14.75,27.45L14.75,27.7L14.35,27.9" style="fill:#336966;fill-opacity:0.7;"/>
                <path d="M15.95,28.6L15.8,28.4L15.8,28.2L15.95,28L16.15,28.05L16.35,28.15L16.35,28.4L15.95,28.6" style="fill:#336966;fill-opacity:0.7;"/>
                <path d="M17.45,28.95C17.417,29.717 17.117,30.367 16.55,30.9C15.983,31.433 15.283,31.683 14.45,31.65C13.683,31.617 13.033,31.317 12.5,30.75C11.967,30.183 11.717,29.483 11.75,28.65C11.783,27.883 12.1,27.233 12.7,26.7C13.233,26.167 13.917,25.917 14.75,25.95C15.517,25.983 16.167,26.3 16.7,26.9C17.233,27.433 17.483,28.117 17.45,28.95" style="fill:url(#_Linear1);"/>
                <path d="M17.45,28.95C17.417,29.717 17.117,30.367 16.55,30.9C15.983,31.433 15.283,31.683 14.45,31.65C13.683,31.617 13.033,31.317 12.5,30.75C11.967,30.183 11.717,29.483 11.75,28.65C11.783,27.883 12.1,27.233 12.7,26.7C13.233,26.167 13.917,25.917 14.75,25.95C15.517,25.983 16.167,26.3 16.7,26.9C17.233,27.433 17.483,28.117 17.45,28.95Z" style="fill:none;fill-rule:nonzero;stroke:#2e5c1d;stroke-opacity:0.8;stroke-width:0.05px;"/>
                <path d="M12.65,27.05C12.583,26.95 12.65,26.833 12.85,26.7L13.6,26.4L14.5,26.25C14.767,26.283 14.917,26.35 14.95,26.45L14.7,26.85L13.95,27.15L13.05,27.25C12.817,27.25 12.683,27.183 12.65,27.05" style="fill:#fff;fill-opacity:0.6;"/>
                <path d="M17.85,40.15L16.7,40.2C16.267,40.067 15.967,39.8 15.8,39.4C15.6,39.033 15.567,38.65 15.7,38.25C15.833,37.85 16.1,37.55 16.5,37.35L17.65,37.25C18.05,37.383 18.35,37.65 18.55,38.05C18.75,38.45 18.783,38.85 18.65,39.25L17.85,40.15" style="fill:#336966;fill-opacity:0.7;"/>
                <path d="M16.8,35.75L16.4,35.75L16.15,35.5L16.1,35.15C16.133,35.017 16.217,34.933 16.35,34.9L16.7,34.85L17,35.1L17,35.45L16.8,35.75" style="fill:#336966;fill-opacity:0.7;"/>
                <path d="M19.4,34.6L19,34.6L18.75,34.35L18.7,34C18.733,33.867 18.817,33.783 18.95,33.75L19.3,33.7L19.6,33.95L19.6,34.3L19.4,34.6" style="fill:#336966;fill-opacity:0.7;"/>
                <path d="M21.7,33.15C22.6,34.083 23.05,35.183 23.05,36.45C23.05,37.717 22.6,38.833 21.7,39.8C20.733,40.7 19.617,41.15 18.35,41.15C17.083,41.15 15.983,40.7 15.05,39.8C14.117,38.833 13.667,37.717 13.7,36.45C13.667,35.183 14.117,34.083 15.05,33.15C15.983,32.217 17.083,31.767 18.35,31.8C19.617,31.767 20.733,32.217 21.7,33.15" style="fill:url(#_Linear2);"/>
                <path d="M21.7,33.15C22.6,34.083 23.05,35.183 23.05,36.45C23.05,37.717 22.6,38.833 21.7,39.8C20.733,40.7 19.617,41.15 18.35,41.15C17.083,41.15 15.983,40.7 15.05,39.8C14.117,38.833 13.667,37.717 13.7,36.45C13.667,35.183 14.117,34.083 15.05,33.15C15.983,32.217 17.083,31.767 18.35,31.8C19.617,31.767 20.733,32.217 21.7,33.15Z" style="fill:none;fill-rule:nonzero;stroke:#d61a10;stroke-opacity:0.8;stroke-width:0.05px;"/>
                <path d="M13.95,36.95C13.783,36.85 13.717,36.617 13.75,36.25L14.25,34.95C14.483,34.45 14.767,34.05 15.1,33.75C15.4,33.483 15.65,33.383 15.85,33.45C16.05,33.517 16.1,33.75 16,34.15L15.55,35.45L14.7,36.6C14.4,36.9 14.15,37.017 13.95,36.95" style="fill:#fff;fill-opacity:0.6;"/>
                <path d="M12.4,35.35L12.2,35.65L11.8,35.75L11.5,35.55L11.4,35.15L11.6,34.85L12,34.75C12.133,34.75 12.233,34.8 12.3,34.9L12.4,35.35" style="fill:#336966;fill-opacity:0.7;"/>
                <path d="M11.05,34.7L11,34.8L10.9,34.85L10.8,34.8L10.7,34.7L10.8,34.6L10.9,34.55L11,34.6L11.05,34.7" style="fill:#336966;fill-opacity:0.7;"/>
                <path d="M11.25,33.75L11.2,33.85L11.1,33.9L11,33.85L10.9,33.75L11,33.65L11.1,33.6L11.2,33.65L11.25,33.75" style="fill:#336966;fill-opacity:0.7;"/>
                <path d="M9.75,34.95C9.65,34.55 9.717,34.167 9.95,33.8C10.183,33.467 10.517,33.267 10.95,33.2L12.05,33.45L12.7,34.45L12.45,35.55C12.217,35.917 11.9,36.133 11.5,36.2C11.067,36.267 10.683,36.167 10.35,35.9C10.017,35.667 9.817,35.35 9.75,34.95" style="fill:url(#_Linear3);"/>
                <path d="M9.75,34.95C9.65,34.55 9.717,34.167 9.95,33.8C10.183,33.467 10.517,33.267 10.95,33.2L12.05,33.45L12.7,34.45L12.45,35.55C12.217,35.917 11.9,36.133 11.5,36.2C11.067,36.267 10.683,36.167 10.35,35.9C10.017,35.667 9.817,35.35 9.75,34.95Z" style="fill:none;fill-rule:nonzero;stroke:#c7812c;stroke-opacity:0.8;stroke-width:0.05px;"/>
                <path d="M15.45,42.1L13.1,42.25C12.3,41.983 11.717,41.467 11.35,40.7C10.95,39.933 10.9,39.167 11.2,38.4C11.433,37.567 11.95,36.967 12.75,36.6L15.05,36.45C15.85,36.683 16.45,37.2 16.85,38C17.183,38.767 17.233,39.533 17,40.3C16.7,41.1 16.183,41.7 15.45,42.1" style="fill:#336966;fill-opacity:0.7;"/>
                <path d="M13.5,33.4L12.7,33.4C12.433,33.333 12.267,33.167 12.2,32.9C12.067,32.7 12.033,32.467 12.1,32.2C12.167,31.933 12.333,31.767 12.6,31.7L13.3,31.6C13.567,31.667 13.767,31.833 13.9,32.1L13.9,32.8L13.5,33.4" style="fill:#336966;fill-opacity:0.7;"/>
                <path d="M18.6,31.05L17.8,31.05C17.533,30.983 17.367,30.817 17.3,30.55C17.167,30.35 17.133,30.117 17.2,29.85C17.267,29.583 17.433,29.417 17.7,29.35L18.4,29.25L19,29.75L19,30.45L18.6,31.05" style="fill:#336966;fill-opacity:0.7;"/>
            </g>
            <g id="sprite0" transform="matrix(0.5922,0.0107,-0.0107,0.5935,16.6002,43.8003)">
                <g id="shape1">
                    <path d="M5.75,-1.9C7.183,-1.6 7.917,-1.15 7.95,-0.55C7.983,0.017 7.3,0.533 5.9,1C4.467,1.5 2.733,1.817 0.7,1.95L-4.55,1.65C-6.017,1.317 -6.75,0.867 -6.75,0.3C-6.783,-0.267 -6.1,-0.8 -4.7,-1.3C-3.267,-1.8 -1.533,-2.1 0.5,-2.2L5.75,-1.9" style="fill:#382c16;"/>
                </g>
            </g>
            <g id="shape2">
                <path d="M16,25.3C18.533,25.233 20.733,26.133 22.6,28C24.4,29.8 25.3,31.967 25.3,34.5C25.3,37.033 24.4,39.233 22.6,41.1C20.733,42.9 18.533,43.8 16,43.8C13.467,43.8 11.3,42.9 9.5,41.1C7.6,39.233 6.683,37.033 6.75,34.5C6.683,31.967 7.6,29.8 9.5,28C11.3,26.133 13.467,25.233 16,25.3" style="fill:url(#_Radial4);"/>
                <path d="M16,25.3C18.533,25.233 20.733,26.133 22.6,28C24.4,29.8 25.3,31.967 25.3,34.5C25.3,37.033 24.4,39.233 22.6,41.1C20.733,42.9 18.533,43.8 16,43.8C13.467,43.8 11.3,42.9 9.5,41.1C7.6,39.233 6.683,37.033 6.75,34.5C6.683,31.967 7.6,29.8 9.5,28C11.3,26.133 13.467,25.233 16,25.3Z" style="fill:none;fill-rule:nonzero;stroke:#3aa3b1;stroke-opacity:0.7;stroke-width:0.05px;"/>
                <path d="M7.75,35.8C7.35,35.633 7.217,35.2 7.35,34.5C7.483,33.667 7.8,32.783 8.3,31.85C8.8,30.883 9.367,30.1 10,29.5C10.567,28.933 11.067,28.717 11.5,28.85C11.867,28.983 11.983,29.433 11.85,30.2C11.75,31 11.45,31.883 10.95,32.85L9.25,35.15C8.583,35.717 8.083,35.933 7.75,35.8" style="fill:#fff;fill-opacity:0.6;"/>
                <path d="M42.2,23.95L40.95,22.8C39.45,21.767 37.767,21.267 35.9,21.3C34.4,21.3 33.033,20.933 31.8,20.2C31.3,19.9 30.967,19.5 30.8,19L30.75,18.2C31.083,16.633 33.133,15.217 36.9,13.95C37.6,13.617 38.117,13.1 38.45,12.4L38.6,11.8C38.467,10.2 37.617,9.033 36.05,8.3C34.35,7.467 32.567,7.017 30.7,6.95C28.867,6.85 27.2,7.3 25.7,8.3C24.833,8.833 24.083,9.517 23.45,10.35C22.383,11.65 21.55,13.083 20.95,14.65L20.45,15.8L19.9,16.75L19.1,17.35C17.733,18.05 16.267,18.417 14.7,18.45L9.35,19.05L8.45,19.45C7.75,19.917 7.467,20.567 7.6,21.4L7.8,22.2C8.133,23.7 8.95,25.433 10.25,27.4L9.7,27.85L7.85,24.15L7.15,22.2L7.1,22.15C6.933,21.517 6.883,20.9 6.95,20.3C7.05,19.667 7.55,19.083 8.45,18.55C9.35,18.017 10.733,17.767 12.6,17.8C14.567,18 16.45,17.7 18.25,16.9C19.05,16.533 19.65,15.933 20.05,15.1L20.85,13.25C21.483,11.783 22.267,10.433 23.2,9.2C23.567,8.667 24.017,8.25 24.55,7.95C26.15,7.017 27.917,6.467 29.85,6.3C31.617,6.2 33.35,6.4 35.05,6.9C36.85,7.467 38.3,8.533 39.4,10.1C40,10.933 40.167,11.833 39.9,12.8C39.667,13.567 39.217,14.133 38.55,14.5C37.817,14.867 37.033,15.167 36.2,15.4C34.667,15.767 33.283,16.433 32.05,17.4L31.55,18.05C31.417,18.317 31.4,18.6 31.5,18.9C31.633,19.533 31.983,19.967 32.55,20.2C33.65,20.633 34.817,20.833 36.05,20.8C38.017,20.733 39.883,21.1 41.65,21.9C42.417,22.233 43.05,22.717 43.55,23.35C44.483,24.65 44.933,26.083 44.9,27.65C44.833,29.383 44.433,31.033 43.7,32.6C42.867,34.3 41.717,35.75 40.25,36.95C38.917,38.05 37.45,38.9 35.85,39.5C34.183,40.167 32.467,40.433 30.7,40.3L27.5,39.95L26.7,39.75L26.4,39.7C25.533,40 24.317,39.7 22.75,38.8L22.75,37.3C24.183,38.233 25.65,38.717 27.15,38.75L27.85,38.95L33.1,39.4C34.867,39.1 36.25,38.683 37.25,38.15L40.45,35.75C41.583,34.717 42.6,33.333 43.5,31.6C43.9,30.833 44.1,30 44.1,29.1C44.1,27.133 43.467,25.417 42.2,23.95" style="fill:#6c260d;"/>
            </g>
        </g>
    </g>
    <defs>
        <linearGradient id="_Linear1" x1="0" y1="0" x2="1" y2="0" gradientUnits="userSpaceOnUse" gradientTransform="matrix(2.78528,-0.98304,0.98304,2.78528,12.8885,29.5271)"><stop offset="0" style="stop-color:#59be3a;stop-opacity:0.7"/><stop offset="0.07" style="stop-color:#59be3a;stop-opacity:0.7"/><stop offset="0.51" style="stop-color:#baf57c;stop-opacity:0.7"/><stop offset="1" style="stop-color:#d2f4d6;stop-opacity:0.65"/></linearGradient>
        <linearGradient id="_Linear2" x1="0" y1="0" x2="1" y2="0" gradientUnits="userSpaceOnUse" gradientTransform="matrix(4.25984,-5.24288,5.24288,4.25984,16.7632,38.7359)"><stop offset="0" style="stop-color:#ff0b0b;stop-opacity:0.7"/><stop offset="0.07" style="stop-color:#ff0b0b;stop-opacity:0.7"/><stop offset="0.51" style="stop-color:#f56b58;stop-opacity:0.7"/><stop offset="1" style="stop-color:#fbe7d9;stop-opacity:0.65"/></linearGradient>
        <linearGradient id="_Linear3" x1="0" y1="0" x2="1" y2="0" gradientUnits="userSpaceOnUse" gradientTransform="matrix(-0.8192,-2.29376,2.29376,-0.8192,11.6694,35.777)"><stop offset="0" style="stop-color:#e6ba73;stop-opacity:0.7"/><stop offset="0.07" style="stop-color:#e6ba73;stop-opacity:0.7"/><stop offset="0.51" style="stop-color:#f8ddb1;stop-opacity:0.7"/><stop offset="1" style="stop-color:#fef4e0;stop-opacity:0.65"/></linearGradient>
        <radialGradient id="_Radial4" cx="0" cy="0" r="1" gradientUnits="userSpaceOnUse" gradientTransform="matrix(19.0874,0,0,19.0874,10.2,42.1)"><stop offset="0" style="stop-color:#65d8f3;stop-opacity:0.7"/><stop offset="0.07" style="stop-color:#65d8f3;stop-opacity:0.7"/><stop offset="0.45" style="stop-color:#87d6f2;stop-opacity:0.7"/><stop offset="0.95" style="stop-color:#eff9fc;stop-opacity:0.65"/><stop offset="1" style="stop-color:#eff9fc;stop-opacity:0.65"/></radialGradient>
    </defs>
</svg>
