<?xml version="1.0" encoding="UTF-8"?>
<svg width="50px" height="49px" version="1.1" viewBox="250.12 175.75 49.682 49.475" xmlns="http://www.w3.org/2000/svg" xmlns:xlink="http://www.w3.org/1999/xlink">
<defs>
<g id="a">
<path d="m57.75 44.45-7-0.8h-0.05l-13.8-12.2-0.15-0.15-7.5-6.6h0.05l-1.3-7.7 5.35-10.15 8.85-6.55 7.1 0.85 0.05 0.05 1.3 7.7h-0.05l-1.8 3.5-3.45 6.6-2.3 1.7-6.5 4.8 1.05 0.9 20.15 18.05m-28.45-19.75 7.2 0.85 0.05-0.05-0.05 0.05-7.2-0.85" fill="#302925"/>
<path d="m63.1 13.4 4.1 3.65-8.45-5.6 4.35 1.95m-20.05 7.3-5.45 5.7-1.05-0.9 6.5-4.8m5.75-8.3-1.05 7 11 11.3-8.3-7.3-0.05-0.05-5.05-4.35 3.45-6.6" fill="#bea588"/>
<path d="m66.85 37.75-0.1 0.2-4.45 3.25-4.55 3.25-20.15-18.05 5.45-5.7 2.3-1.7 5.05 4.35 0.05 0.05 8.3 7.3 8.1 7.05" fill="#443c35"/>
<path d="m71.35 29.25-4.5 8.5-8.1-7.05-11-11.3 1.05-7 1.8-3.5 21.45 18.95-0.7 1.4" fill="#4d433a"/>
<path d="m67.2 17.05 3.5 3.05 1.35 7.75-21.45-18.95h0.05l-1.3-7.7 13.75 12.2-4.35-1.95 8.45 5.6" fill="#6d5f54"/>
<path d="m62.3 41.2-4.4 3.3-0.15-0.05 4.55-3.25" fill="#8e8e8e"/>
<path d="m50.75 43.65h-0.05 0.05" fill="#929292"/>
<path d="m63.1 13.4 4.1 3.65 3.5 3.05 1.35 7.75-0.7 1.4-4.5 8.5-0.1 0.2-4.45 3.25m-4.4 3.3-0.15-0.05-7-0.8h-0.05l-13.8-12.2m-0.15-0.15-7.5-6.6m0.05 0-1.3-7.7 5.35-10.15 8.85-6.55 7.1 0.85 0.05 0.05 13.75 12.2m-17.75 5.6-2.3 1.7-6.5 4.8 1.05 0.9 20.15 18.05 4.55-3.25m-3.55-10.5 8.1 7.05m-18.05-25.35-3.45 6.6 5.05 4.35 0.05 0.05 8.3 7.3m-9.4-29.5 1.3 7.7h-0.05l21.45 18.95m-21.45-18.95-1.8 3.5m1.95 31.25h-0.05m-14.15-18.15-0.05 0.05-7.2-0.85" fill="none" stroke="#000" stroke-width=".5"/>
<path d="m62.2 33.6-9 6.5-7-0.8m19.95-23.55 1.35 7.75-5.2 9.9" fill="none" stroke="#000" stroke-width=".5"/>
<path d="m68.45 17.95 1.35 7.75-5.2 9.9m-0.1 0.2-9 6.5-7-0.8" fill="none" stroke="#000" stroke-width=".5"/>
<path d="m2.15 66.75 0.05 0.1 0.1 0.35 0.1 0.25-0.25-0.7m0.8 1.45 0.25 0.2h0.05l-0.2-0.1-0.1-0.1" fill="#824f3e"/>
<path d="m2.15 71.55-1.2-0.8-0.55-0.75-0.25-0.45h0.05l0.55 0.1q1.1 0.15 1.8-0.55l0.5-0.8 0.2 0.1 1.05 0.5 0.4 0.05v0.2q0.1 1.1-0.6 1.8-0.75 0.7-1.85 0.6h-0.1" fill="#3c271e"/>
<path d="m0.2 69.55-0.05-0.15-0.1-0.2-0.05-0.45q-0.05-0.7 0.2-1.2l0.4-0.55q0.6-0.6 1.45-0.6l0.05 0.05v0.1l0.05 0.15v0.05l0.25 0.7 0.05 0.05v0.05l0.05 0.05 0.15 0.25 0.3 0.35 0.1 0.1-0.5 0.8q-0.7 0.7-1.8 0.55l-0.55-0.1" fill="#5c3a2e"/>
<path d="m4.7 68.95 0.5 0.1h0.05l0.05 0.25q0.05 1.1-0.65 1.8t-1.8 0.55h-0.3l-0.05-0.05h-0.1-0.05l-0.2-0.05h0.1q1.1 0.1 1.85-0.6 0.7-0.7 0.6-1.8v-0.2" fill="#301f18"/>
<path d="m4.7 68.95 0.5 0.1h0.05l0.05 0.25q0.05 1.1-0.65 1.8t-1.8 0.55h-0.3l-0.05-0.05h-0.1-0.05l-0.2-0.05-1.2-0.8-0.55-0.75-0.25-0.45h0.05l-0.05-0.15-0.1-0.2-0.05-0.45q-0.05-0.7 0.2-1.2l0.4-0.55q0.6-0.6 1.45-0.6l0.05 0.05v0.1l0.05 0.15v0.05m0.25 0.7 0.05 0.05v0.05l0.05 0.05 0.15 0.25 0.3 0.35m0.3 0.2 1.05 0.5 0.4 0.05m-1.65-0.65 0.2 0.1m-0.2-0.1-0.1-0.1m-0.55-0.75-0.25-0.7" fill="none" stroke="#000" stroke-width=".5"/>
<path d="m31.6 38 1.15 4.15-7.95 8.45-2.35 2.45-14.3 15.7-4.3-2.65 27.75-28.1" fill="#563c2b"/>
<path d="m31.25 36.8 0.35 1.2-27.75 28.1-1.6-1.05 4.5-4.1q10.3-9.5 24.5-24.15" fill="#6d4936"/>
<path d="m31.6 38-0.35-1.2 4.35-4.45 0.6-0.7 0.45-0.5 0.3-0.15 1.3-0.2 0.4 0.05q1.05 0.2 2.7 2.35l-0.05 0.05-5.4 5.6-3.15 3.3-1.15-4.15" fill="#442e22"/>
<path d="m32.75 42.15 3.15-3.3 5.4-5.6 0.05-0.05m-3.1-2.4-1.3 0.2m-0.3 0.15-0.45 0.5-0.6 0.7-4.35 4.45q-14.2 14.65-24.5 24.15l-4.5 4.1m30.5-22.9-7.95 8.45-2.35 2.45-14.3 15.7" fill="none" stroke="#000" stroke-width=".5"/>
<path d="m36.95 31-0.3 0.15" fill="none" stroke="#000" stroke-width=".5"/>
<path d="m5 63.6-0.4-1.15 0.25 0.75 0.15 0.4m1.15 1.45-0.2-0.2 0.4 0.35-0.2-0.15" fill="#824f3e"/>
<path d="m1.3 67.15 0.95 0.15q1.8 0.2 3-0.95l0.9-1.3 0.2 0.15 0.05 0.05 1.8 0.8 0.6 0.1 0.05 0.35q0.15 1.8-1.05 3-1.2 1.15-3 0.95h-0.2q-1.1-0.4-2.05-1.35l-0.9-1.2-0.35-0.75" fill="#563c2b"/>
<path d="m5 63.6 0.1 0.15 0.05 0.05 0.05 0.1 0.25 0.4 0.5 0.55 0.2 0.2-0.9 1.3q-1.2 1.15-3 0.95l-0.95-0.15v-0.05l-0.05-0.25-0.15-0.35-0.1-0.7h0.05q-0.15-1.15 0.3-2l0.7-0.95q0.95-0.95 2.4-1l0.05 0.1v0.15l0.1 0.25v0.1l0.4 1.15" fill="#694634"/>
<path d="m8.8 66.15 0.5 0.1h0.35 0.05v0.05l0.05-0.05 0.1 0.45q0.1 1.85-1.05 3-1.25 1.15-3.05 0.95l-0.45-0.05-0.1-0.05h-0.15l-0.1-0.05-0.35-0.05h0.2q1.8 0.2 3-0.95 1.2-1.2 1.05-3l-0.05-0.35" fill="#3c271e"/>
<path d="m5.95 64.85-0.5-0.55-0.25-0.4-0.05-0.1-0.05-0.05-0.1-0.15-0.4-1.15v-0.1l-0.1-0.25v-0.15l-0.05-0.1q-1.45 0.05-2.4 1l-0.7 0.95q-0.45 0.85-0.3 2h-0.05l0.1 0.7 0.15 0.35 0.05 0.25v0.05m4.85-2.1-0.2-0.2m0.4 0.35 0.05 0.05 1.8 0.8 0.6 0.1 0.5 0.1h0.35 0.05v0.05l0.05-0.05 0.1 0.45q0.1 1.85-1.05 3-1.25 1.15-3.05 0.95l-0.45-0.05-0.1-0.05h-0.15l-0.1-0.05-0.35-0.05q-1.1-0.4-2.05-1.35l-0.9-1.2-0.35-0.75m5.05-1.95-0.2-0.15" fill="none" stroke="#000" stroke-width=".5"/>
<path d="m17.7 57.95q-2.65-2.25-2.6-2.75 0-0.75 1.85 0.75-2-2.9-1.45-3.9l0.35-1.2 1.2-1.05q-0.4 0.6 0 1.65 0.5 1.1 1.65 2.05 1.2 0.9 2.35 1.05l0.55 0.05-1.2 0.6-2.65 0.25 1.65 0.75-1.7 1.75m-4.7-4.6v1.25l1.9 2.75-1.6-0.05-0.1-0.1h-0.4q0.45-1.65-0.05-2.75l-0.05-0.05 0.2-0.9 0.1-0.15m-3.75 3.7 0.15 0.65 0.75 1.05 0.25-1.05 0.9-2.2 1 1.55q0.4 0.65-0.2 2.05l0.7-1.85 0.5 0.05 2.3 1.7-2.35 0.35 1 0.15q0.4 0.1 0.75 1 0.3 0.9-4.8 0.45l2.9 1.8 0.1 0.85-4.8-0.2 1.65 1.6 0.65 0.8-2.45 0.35q-0.7-3.7-0.2-5.85 0.55-2.3 1.2-2.45l-0.1-0.7 0.1-0.1m-1.05 9.1-1.35 0.2-0.45-0.3q-1.15-0.95-1.65-2.05-0.4-1.05-0.2-1.8l1.55-1.75q0.7 2.95 2.1 5.7" fill="#4d433a"/>
<path d="m15.85 50.85-0.35 1.2q-0.55 1 1.45 3.9-1.85-1.5-1.85-0.75-0.05 0.5 2.6 2.75l-2.8-0.6-1.9-2.75v-1.25l2.85-2.5m-2.95 2.65-0.2 0.9 0.05 0.05q0.5 1.1 0.05 2.75h-0.1l0.1 0.05-0.7 1.85q0.6-1.4 0.2-2.05l-1-1.55-0.9 2.2-0.25 1.05-0.75-1.05-0.15-0.65 3.65-3.55m-4.65 12.65h-0.05q-1.4-2.75-2.1-5.7l3.05-3.3 0.1 0.7q-0.65 0.15-1.2 2.45-0.5 2.15 0.2 5.85" fill="#5c5047"/>
<path d="m14.9 57.35 2.8 0.6 1.7-1.75-1.65-0.75 2.65-0.25 1.2-0.6 0.65-0.15-2.2 3.05-0.55 0.75-0.7 0.9q-2.75 3.15-8.8 7.9l-1.25 0.05-1.9-0.75 1.35-0.2h0.05l2.45-0.35-0.65-0.8-1.65-1.6 4.8 0.2-0.1-0.85-2.9-1.8q5.1 0.45 4.8-0.45-0.35-0.9-0.75-1l-1-0.15 2.35-0.35-2.3-1.7-0.5-0.05-0.1-0.05h0.1 0.4l0.1 0.1 1.6 0.05" fill="#362f29"/>
<path d="m15.85 50.85-2.85 2.5m8.6 1.25-0.55-0.05q-1.15-0.15-2.35-1.05-1.15-0.95-1.65-2.05-0.4-1.05 0-1.65l-1.2 1.05m-2.95 2.65-3.65 3.55m3.65-3.55 0.1-0.15m-6.15 13 1.9 0.75 1.25-0.05q6.05-4.75 8.8-7.9l0.7-0.9 0.55-0.75 2.2-3.05-0.65 0.15m-12.45 2.55-3.05 3.3m3.05-3.3 0.1-0.1m-2.4 9.3-0.45-0.3q-1.15-0.95-1.65-2.05-0.4-1.05-0.2-1.8l1.55-1.75" fill="none" stroke="#000" stroke-width=".5"/>
<path d="m22.4 53.3-0.25 0.75q-0.45 0.5-1.45 0.25-0.95-0.25-1.95-1.1t-1.4-1.8q-0.35-0.95 0.1-1.45 0.25-0.3 0.65-0.35" fill="none" stroke="#000"/>
<path d="m10.9 66.3-0.3 0.95q-0.6 0.65-1.9 0.35t-2.55-1.4q-1.3-1.1-1.8-2.35t0.1-1.9l0.8-0.45" fill="none" stroke="#000"/>
<path d="m33.55 5.25 1.15-1.4 4.55-0.85 9-0.85 0.05 0.05 1.35 4.95 0.7 0.25 0.25 1.45-17.05-3.6" fill="#6d5f54"/>
<path d="m34.7 3.85-0.6-0.65 7.95-3.2 7.15 1.1-9.95 1.9-4.55 0.85" fill="#897469"/>
<path d="m36.65 25.45-5.6-17.15 1.4-1.7 12.95 12.3-8.75 6.55" fill="#443c35"/>
<path d="m32.45 6.6 1.1-1.35 17.05 3.6h0.1l-5.3 10.1v-0.05l-12.95-12.3" fill="#4d433a"/>
<path d="m29.65 10.05-0.2 13.95-0.15 0.6-1.75-7.85 1.35-6.6 0.75-0.1" fill="#211d1b"/>
<path d="m29.65 10.05 1.4-1.75 5.6 17.15-7.35-0.75 0.15-0.7 0.2-13.95" fill="#302925"/>
<path d="m49.2 1.1 0.15 0.1 1 6.2-0.7-0.25-1.35-4.95-0.05-0.05-9 0.85 9.95-1.9" fill="#bea588"/>
<path d="m45.4 18.9-8.75 6.55" fill="none" stroke="#000" stroke-width=".5"/>
<path d="m50.4 23.3 5.25-9.85 2.3 2.15-5.1 9.75-2.45-2.05" fill="#f63"/>
<path d="m55.65 13.2-1.3-7.55 2.4 2.4 1.2 7.55-2.3-2.15v-0.05-0.05-0.15" fill="#fe7a5a"/>
<path d="m43.85 32.05-2.35-2.15 8.9-6.55v-0.05l2.45 2.05 0.05 0.05-9.05 6.65" fill="#ba2501"/>
<path d="m43.85 32.05-0.2 0.15-6.65-0.75-2.45-2.2 6.65 0.75h0.15l0.15-0.1 2.35 2.15" fill="#8f1d01"/>
<path d="m41.5 29.9-0.15 0.1h-0.15l-6.65-0.75m2.45 2.2 6.65 0.75 0.2-0.15m-2.35-2.15 8.9-6.55v-0.05l5.25-9.85m0-0.25-1.3-7.55m2.25 2.25 0.15 0.15 1.2 7.55-5.1 9.75m0.05 0.05-9.05 6.65m11.8-18.85v0.15 0.05 0.05" fill="none" stroke="#000" stroke-width=".5"/>
<path d="m43.85 32.05-2.35-2.15m-6.95-0.65 2.45 2.2m4.2-1.45 0.3-0.1m14.15-16.45v-0.25m-1.3-7.55 2.25 2.25m-3.75 17.45 0.05 0.05m2.75-11.95 2.3 2.15m-5.1 9.75-2.45-2.05" fill="none" stroke="#000" stroke-width=".5"/>
<path d="m64.65 35.8-2.45-2.05 5.25-9.85 2.3 2.15-5.1 9.75" fill="#f63"/>
<path d="m69.75 26.05-2.3-2.15v-0.05-0.05-0.15l-1.3-7.55 2.4 2.4 1.2 7.55" fill="#fe7a5a"/>
<path d="m62.2 33.75 2.45 2.05 0.05 0.05-9.05 6.65-2.35-2.15 8.9-6.55v-0.05" fill="#ba2501"/>
<path d="m53.3 40.35 2.35 2.15-0.2 0.15-6.65-0.75-2.45-2.2 6.65 0.75h0.15l0.15-0.1" fill="#8f1d01"/>
<path d="m62.2 33.75v0.05l-8.9 6.55-0.15 0.1h-0.15l-6.65-0.75m9.3 2.8 9.05-6.65m-0.05-0.05 5.1-9.75m-2.3-2.15-5.25 9.85m-13.4 8.15 6.65 0.75m12.95-24.3 0.15 0.15 1.2 7.55m-2.3-2.4-1.3-7.55m1.3 7.55v0.15 0.05 0.05m-11.8 18.6-0.2 0.15" fill="none" stroke="#000" stroke-width=".5"/>
<path d="m64.65 35.8-2.45-2.05m-8.9 6.6 2.35 2.15m9.05-6.65-0.05-0.05m5.1-9.75-2.3-2.15v-0.25m-21.1 16.05 2.45 2.2m4.2-1.45 0.3-0.1m12.85-24.25 2.25 2.25" fill="none" stroke="#000" stroke-width=".5"/>
<path d="m49.65 1.75 21 18.8m-19.8-10.95 21.15 18.6" fill="none" stroke="#bea588" stroke-width=".5"/>
<path d="m41.9 0.05-6.4 2.6m0.8 22.45-4-13.45m-4.7 5.1 1.15-5.6m0.5 13.4 0.55-12.95m15.25 7.2-10.1-9.6m13.8-8.25-12.55 2.6m14.05 5.2-13.4-2.7" fill="none" stroke="#000" stroke-width=".5"/>
<path d="m37.05 3.45 0.05 0.05 0.45 2.9-2 3.8-3.3 2.45h-0.05l-2.7-0.3-0.5-2.9 2.05-3.85 3.3-2.45 2.7 0.3" fill="#302925"/>
<path d="m37.05 3.45 0.05 0.05 0.45 2.9-2 3.8-3.3 2.45h-0.05l-2.7-0.3-0.5-2.9 2.05-3.85 3.3-2.45 2.7 0.3" fill="none" stroke="#000" stroke-width=".5"/>
<path d="m37.55 6.4 13.05 2.95" fill="none" stroke="#bea588" stroke-width=".5"/>
</g>
</defs>
<use transform="matrix(.68907 0 0 .68907 250.15 175.75)" xlink:href="#a"/>
</svg>
