<?xml version="1.0" encoding="UTF-8" standalone="no"?>
<!DOCTYPE svg PUBLIC "-//W3C//DTD SVG 1.1//EN" "http://www.w3.org/Graphics/SVG/1.1/DTD/svg11.dtd">
<svg width="100%" height="100%" viewBox="0 0 115 153" version="1.1" xmlns="http://www.w3.org/2000/svg" xmlns:xlink="http://www.w3.org/1999/xlink" xml:space="preserve" xmlns:serif="http://www.serif.com/" style="fill-rule:evenodd;clip-rule:evenodd;stroke-linecap:round;stroke-linejoin:round;">
    <g transform="matrix(1,0,0,1,-241.314,-73.7232)">
        <g>
            <g id="shape0">
                <path d="M303.65,110.7L303.65,110.8C303.283,111.633 303.15,112.55 303.25,113.55C303.317,114.583 303.683,115.483 304.35,116.25C305.617,117.883 307.167,118.6 309,118.4C312.533,117.967 315.883,116.7 319.05,114.6C324.15,111.267 329.583,109.35 335.35,108.85C337.85,108.617 340.183,109.083 342.35,110.25C346.717,112.583 349.95,116.183 352.05,121.05C354.317,126.35 355.55,131.983 355.75,137.95C355.95,144.45 354.967,150.7 352.8,156.7C350.9,162.1 348.267,167.033 344.9,171.5C341.4,176.2 337.2,179.767 332.3,182.2C328.6,184.367 324.867,185.967 321.1,187L320.25,187.4C318.283,187.933 316.3,188.133 314.3,188L314.4,183.85L320.75,183.25L323,182.75C328.333,181.55 333.15,179.15 337.45,175.55C341.717,171.883 344.75,168.4 346.55,165.1C348.383,161.8 350.083,157.683 351.65,152.75C353.217,147.783 353.983,141.95 353.95,135.25C353.917,132.25 353.267,129.4 352,126.7C349.233,120.767 345.133,116.583 339.7,114.15C338.1,113.417 336.467,112.95 334.8,112.75C329.367,112.117 324.2,113.333 319.3,116.4C315.367,118.833 311.25,119.933 306.95,119.7C305.317,119.6 303.9,118.917 302.7,117.65C302.033,116.95 301.6,116.15 301.4,115.25C301,113.683 301.017,111.917 301.45,109.95L302.05,108.85C302.45,108.117 302.7,108.017 302.8,108.55L303.7,108.5C303.6,109.367 303.883,109.367 304.55,108.5L303.6,110.7L303.65,110.7M301.5,109.85L301.55,109.6L301.85,108.9L301.5,109.85M306.25,99.75C307.717,97.483 309.5,95.05 311.6,92.45C313.033,90.317 313.683,87.95 313.55,85.35C313.517,84.583 313.35,83.917 313.05,83.35C310.417,78.683 306.517,76.5 301.35,76.8C295.783,77.033 290.483,78.567 285.45,81.4C280.517,84.033 276.733,88.067 274.1,93.5C272.6,96.567 271.583,99.833 271.05,103.3C270.15,108.967 269.983,114.65 270.55,120.35L270.85,124.65C270.95,125.883 270.917,127.117 270.75,128.35C270.55,129.483 269.883,130.85 268.75,132.45L265.55,136.3L265.35,136.5L265.35,136.45L264.55,137.3L265.3,136.45L264.3,137.2L263.5,137.25C263.633,136.75 263.35,136.65 262.65,136.95C263.05,136.183 262.783,136.067 261.85,136.6L263.6,134.95L266.6,131.65C268.167,129.217 268.883,126.4 268.75,123.2L268.35,116.35C267.95,110.917 268.1,105.583 268.8,100.35C269.1,98.117 269.717,96.117 270.65,94.35C273.55,88.95 277.433,84.433 282.3,80.8C286.833,77.667 291.667,75.483 296.8,74.25C302.367,73.05 307.683,73.9 312.75,76.8C315.517,78.367 317.233,80.85 317.9,84.25C318.4,86.917 318.017,89.367 316.75,91.6C315.35,93.867 313.7,96.033 311.8,98.1C310.7,99.2 309.7,100.383 308.8,101.65L308.4,101.15L308.35,101.15C307.883,100.617 307.333,100.2 306.7,99.9L306.55,99.85L306.5,99.85L306.25,99.75M256.75,143.9C253.083,146.533 249.567,149.35 246.2,152.35C245.433,153.117 244.8,154.017 244.3,155.05C243.2,157.617 243.4,160.067 244.9,162.4C248.3,167.667 252.65,171.7 257.95,174.5L257.75,177.15L249.4,170.2C247.533,168.567 245.933,166.967 244.6,165.4C243.233,163.8 242.233,162 241.6,160C240.933,157.967 241.433,155.433 243.1,152.4C244.767,149.333 248.067,146.317 253,143.35L255.55,142.05L256.65,143.8L256.75,143.9" style="fill:#72793c;"/>
                <path d="M303.65,110.7L303.6,110.7L304.55,108.5C303.883,109.367 303.6,109.367 303.7,108.5L302.8,108.55C302.7,108.017 302.45,108.117 302.05,108.85L301.45,109.95L301.5,109.85L301.85,108.9L301.4,109.95L301.35,109.95C300.25,109.317 299.45,108.4 298.95,107.2C298.35,105.733 298.383,104.283 299.05,102.85C299.617,101.383 300.633,100.35 302.1,99.75C303.467,99.217 304.85,99.217 306.25,99.75L306.5,99.85L306.55,99.85L306.7,99.9C307.333,100.2 307.883,100.617 308.35,101.15L308.4,101.15L308.8,101.65L309.5,102.9C310.067,104.333 310.067,105.783 309.5,107.25C308.833,108.683 307.783,109.7 306.35,110.3C305.483,110.633 304.633,110.783 303.8,110.75L303.65,110.7" style="fill:url(#_Radial1);"/>
                <path d="M265.35,136.5C266.15,137.5 266.55,138.65 266.55,139.95C266.55,141.517 265.983,142.85 264.85,143.95C263.75,145.083 262.417,145.65 260.85,145.65C259.283,145.65 257.933,145.083 256.8,143.95L256.65,143.8L255.55,142.05L255.55,142C255.283,141.367 255.15,140.683 255.15,139.95C255.15,138.383 255.7,137.033 256.8,135.9C257.933,134.8 259.283,134.25 260.85,134.25C261.783,134.25 262.633,134.45 263.4,134.85L263.6,134.95L261.85,136.6C262.783,136.067 263.05,136.183 262.65,136.95C263.35,136.65 263.633,136.75 263.5,137.25L264.3,137.2L265.3,136.45L264.55,137.3L265.35,136.45L265.35,136.5" style="fill:url(#_Radial2);"/>
                <path d="M309.5,179L307.95,181.65" style="fill:none;fill-rule:nonzero;stroke:#6c260d;stroke-width:0.1px;"/>
                <path d="M270.1,92.4L272.15,92.15L272.35,92.1L271.55,93.85C272.083,93.183 272.317,93.2 272.25,93.9L272.9,93.85C272.967,94.25 273.167,94.167 273.5,93.6L274.05,92.8L273.75,93.6L274.1,92.75C275,93.25 275.633,93.983 276,94.95C276.433,96.117 276.383,97.267 275.85,98.4C275.35,99.567 274.517,100.367 273.35,100.8C272.183,101.267 271.033,101.25 269.9,100.75L269.8,100.7L269.75,100.7L268.4,99.7L268.35,99.65L267.5,98.25C267.033,97.083 267.05,95.933 267.55,94.8C268.083,93.667 268.933,92.867 270.1,92.4" style="fill:url(#_Radial3);"/>
                <path d="M278.7,168.75C282.9,164.45 288.2,162.45 294.6,162.75C301.033,163.017 306.667,165.517 311.5,170.25C316.3,174.95 318.917,180.5 319.35,186.9C319.783,193.3 317.9,198.65 313.7,202.95C309.467,207.25 304.133,209.267 297.7,209C291.333,208.7 285.733,206.2 280.9,201.5C276.067,196.767 273.433,191.2 273,184.8C272.6,178.4 274.5,173.05 278.7,168.75" style="fill:url(#_Radial4);"/>
                <path d="M278.7,168.75C282.9,164.45 288.2,162.45 294.6,162.75C301.033,163.017 306.667,165.517 311.5,170.25C316.3,174.95 318.917,180.5 319.35,186.9C319.783,193.3 317.9,198.65 313.7,202.95C309.467,207.25 304.133,209.267 297.7,209C291.333,208.7 285.733,206.2 280.9,201.5C276.067,196.767 273.433,191.2 273,184.8C272.6,178.4 274.5,173.05 278.7,168.75Z" style="fill:none;fill-rule:nonzero;stroke:#fff;stroke-width:1px;"/>
                <path d="M328.1,192.3C328,189.3 327.55,186.333 326.75,183.4L326,180.95L325.35,179.25C324.283,176.95 323.1,174.733 321.8,172.6C319.5,168.7 316.55,165.317 312.95,162.45L310.2,160.35C306.133,158.25 302,156.433 297.8,154.9C296.2,154.3 294.583,153.817 292.95,153.45L289.5,153.4L285.95,153.4L282.8,153.6L279.7,154L276.7,154.65C274.5,155.383 272.433,156.333 270.5,157.5L268.5,158.8L264.35,162.4C262.517,164.5 260.95,166.8 259.65,169.3C256.183,174.8 254.717,181.133 255.25,188.3C255.817,198.1 259.833,206.65 267.3,213.95C274.933,221.483 283.883,225.517 294.15,226.05C304.25,226.55 312.683,223.5 319.45,216.9L319.9,216.4C322.667,212.7 324.45,209.633 325.25,207.2L327.5,199.4L327.9,198L328.1,192.3Z" style="fill:none;fill-rule:nonzero;stroke:#6c6c24;stroke-width:1px;"/>
                <path d="M275.4,171.55C276.267,170.383 277.383,170.05 278.75,170.55C279.65,170.883 280.55,171.317 281.45,171.85C283.083,172.85 284.717,172.817 286.35,171.75C287.15,173.317 286.867,174.167 285.5,174.3C284.4,174.367 282.617,173.983 280.15,173.15L277.5,172.15L276.55,173.5C275.283,175.967 274.65,178.567 274.65,181.3L274.05,180.6L273.3,178.85C272.967,177.783 272.917,176.733 273.15,175.7L273.25,175.15L273.4,174.7C273.8,173.633 274.467,172.583 275.4,171.55M285.1,169.45L281.85,165.95L285,167.3C286.067,167.7 287.167,167.967 288.3,168.1L292.6,168.4L288.55,169.2L285.1,169.45M284.4,165.05L283.35,165.1C283.55,164.933 283.783,164.8 284.05,164.7L284.5,164.15L284.8,163.8L284.9,163.5L284,162.55C285.433,161.45 286.983,160.45 288.65,159.55C290.35,158.45 292,158.483 293.6,159.65L297.3,162.05C298.9,162.95 299.75,164.4 299.85,166.4C299.917,167.6 299.283,169.033 297.95,170.7L296.45,171.8L297.3,169.6C297.6,168.133 297.283,166.733 296.35,165.4L284.4,165.05M295.55,173.05L295.55,173.1L295.3,173.3L295.55,173.05M297.2,197.4C297.467,198.533 297.25,199.6 296.55,200.6C295.983,201.033 295.317,201.183 294.55,201.05C294.15,200.983 292.2,199.05 288.7,195.25C292.533,198.683 295.367,199.4 297.2,197.4M299.6,211.2L299.65,211.25L297.75,211.5C296.983,211.5 296.283,211.333 295.65,211L292.2,209.1C290.9,208.233 289.517,207.517 288.05,206.95L289.45,207.05L289.55,207.05L289.25,206.8L287.1,205L283.3,201.9C281.767,201.033 280.317,200.033 278.95,198.9C277.583,197.8 276.367,196.583 275.3,195.25L273.75,193C273.25,192.3 273.117,191.733 273.35,191.3C275.517,187.267 279.583,185.083 285.55,184.75C282.617,185.617 279.617,187.6 276.55,190.7L278,193.55C278.767,194.85 279.65,196.083 280.65,197.25C282.55,199.483 284.717,201.333 287.15,202.8L288.7,203.8L288.3,203.85L288,203.95L289.4,205.85L290.45,207.2C291.917,207.433 293.367,207.867 294.8,208.5C296.433,209.267 298.033,210.167 299.6,211.2M305.25,168.3L305.55,167.35L307.4,168.5C308.467,169.333 309.417,170.3 310.25,171.4C311.417,172.833 312.283,174.467 312.85,176.3C313.183,177.5 312.767,178.4 311.6,179L309.45,179.6C309.85,179.333 309.8,178.467 309.3,177C308.767,175.533 307.817,174.35 306.45,173.45C305.617,172.883 305.133,172.35 305,171.85C305.067,171.55 304.917,171.233 304.55,170.9L304.6,170.65L305.25,168.3M304.6,178.85L303.8,178.85C303.033,178.95 302.283,179.217 301.55,179.65L301.1,179.95L302.1,178.1L302.15,178.1L303.45,178.5L304.6,178.85M304.7,169.75L304.7,169.45L304.85,169.15L304.7,169.75M304,185.45L305.7,185.5L310.45,186.25C311.85,186.517 313.217,186.933 314.55,187.5C316.117,188.133 317.183,189.283 317.75,190.95C318.317,192.65 318.6,194.35 318.6,196.05L318.15,198.05L317.25,198.85L313.4,201.15L310.85,202.65C310.183,203.017 309.5,203.417 308.8,203.85L310.4,202.6L310.85,202.25L311,202.1L312.75,200.25C314.65,198.083 315.85,195.867 316.35,193.6C316.717,191.567 315.833,189.75 313.7,188.15C313.067,187.65 311.85,187.167 310.05,186.7L304,185.45M308.15,204.25L306.45,205.35L307.6,204.55L308.15,204.25" style="fill:#6c6c24;"/>
                <path d="M273.3,178.85L274.05,180.6L274.65,181.3L277.6,181.8L279.5,181.95C282.9,182.783 285.367,182.317 286.9,180.55L286.25,181.25L284.75,182.45L283.15,183L281.4,183.2L279.7,183.15L277.95,182.95L276,182.85C275.367,182.85 274.833,182.617 274.4,182.15C273.933,181.683 273.65,181.117 273.55,180.45L273.3,179.15L273.3,178.85" style="fill:#dafc9a;"/>
                <path d="M288.75,200.9C291.85,202 293.683,202.883 294.25,203.55C296.083,205.817 298.417,207.3 301.25,208L309.2,207.8C311.233,207.133 312.533,206.567 313.1,206.1C312.267,207.333 310.767,208.467 308.6,209.5C306.1,210.7 303.1,211.267 299.6,211.2C298.033,210.167 296.433,209.267 294.8,208.5C293.367,207.867 291.917,207.433 290.45,207.2L289.4,205.85L289.65,204.35L291.95,204.75L292.65,204.7L292.85,203.5C292.85,202.833 291.483,201.967 288.75,200.9" style="fill:#8fb629;"/>
                <path d="M325.25,179.55L325.9,181.25C324.5,182.217 323.667,183.45 323.4,184.95C323.3,185.917 323.317,186.867 323.45,187.8C323.617,188.7 323.933,189.583 324.4,190.45L325.75,192C326.383,192.567 327.133,192.767 328,192.6L327.8,198.3L327.4,199.7C326.1,203.433 324,206.517 321.1,208.95L319.2,210.2C319.233,211.367 319,212.533 318.5,213.7C317.7,215.1 316.95,216.533 316.25,218C315.283,216.767 314.017,216.2 312.45,216.3L308.2,217C306.767,217.333 305.45,217.917 304.25,218.75C302.917,219.583 301.783,220.6 300.85,221.8C299.983,223.133 299.233,224.517 298.6,225.95L289.9,225.35L286.3,224.65L283.3,223.7L282.75,223.4C280.45,222.167 278.483,220.433 276.85,218.2L276.6,218.25L276.8,218.05C278.3,216.75 279.517,215.217 280.45,213.45C281.15,212.117 281.5,210.733 281.5,209.3C283.033,208.1 284.85,207.367 286.95,207.1L288.05,206.95C289.517,207.517 290.9,208.233 292.2,209.1L295.65,211C296.283,211.333 296.983,211.5 297.75,211.5L299.65,211.25L299.6,211.2C303.1,211.267 306.1,210.7 308.6,209.5C310.767,208.467 312.267,207.333 313.1,206.1C312.533,206.567 311.233,207.133 309.2,207.8L301.25,208C298.417,207.3 296.083,205.817 294.25,203.55C293.683,202.883 291.85,202 288.75,200.9L287.5,200.45L292.5,201.25C292.1,200.183 291.533,199.183 290.8,198.25C291.267,198.717 291.167,198.533 290.5,197.7L288.7,195.25C292.2,199.05 294.15,200.983 294.55,201.05C295.317,201.183 295.983,201.033 296.55,200.6C297.25,199.6 297.467,198.533 297.2,197.4L296.65,187.1L296.55,182.75C297.017,181.317 297.6,179.95 298.3,178.65L299.65,175.35L299.95,173.85C300.017,172.583 299.3,172.167 297.8,172.6L295.55,173.1L295.55,173.05L296.45,171.8L297.95,170.7C299.283,169.033 299.917,167.6 299.85,166.4C299.75,164.4 298.9,162.95 297.3,162.05L293.6,159.65C292,158.483 290.35,158.45 288.65,159.55C286.983,160.45 285.433,161.45 284,162.55L284.9,163.5L284.8,163.8L284.5,164.15L284.05,164.7C283.783,164.8 283.55,164.933 283.35,165.1L284.4,165.05C285.567,165.817 286.917,166.383 288.45,166.75L291.55,167.5C292.05,167.5 292.433,167.75 292.7,168.25L292.6,168.4L288.3,168.1C287.167,167.967 286.067,167.7 285,167.3L281.85,165.95L285.1,169.45L285.5,170.3L285.75,170.65L286.35,171.75C284.717,172.817 283.083,172.85 281.45,171.85C280.55,171.317 279.65,170.883 278.75,170.55C277.383,170.05 276.267,170.383 275.4,171.55C274.6,170.083 273.667,168.717 272.6,167.45C271.567,166.317 270.35,165.333 268.95,164.5C267.483,163.667 265.917,163.067 264.25,162.7L268.4,159.15C269.033,160.183 269.933,160.917 271.1,161.35C272.767,161.983 274.4,161.967 276,161.3C277.867,160.467 278.617,159.067 278.25,157.1L277.6,155.8L276.6,154.95L279.6,154.3L282.7,153.95L285.8,153.7L289.4,153.7L292.85,153.75L295.95,156.55L299.85,160C301.25,161.133 302.85,161.883 304.65,162.25C306.117,162.517 307.5,162.267 308.8,161.5L310.1,160.65L312.85,162.8C312.15,164.7 311.833,166.633 311.9,168.6C311.9,170.333 312.383,171.95 313.35,173.45C314.417,175.083 315.667,176.45 317.1,177.55C318.5,178.583 320.033,179.2 321.7,179.4L325.25,179.55M282.2,156.85L283.55,157L284.5,155.8L286.95,155.15C285.85,154.617 284.767,154.483 283.7,154.75C282.633,154.983 281.733,155.483 281,156.25L282.2,156.85M309.45,179.6L311.6,179C312.767,178.4 313.183,177.5 312.85,176.3C312.283,174.467 311.417,172.833 310.25,171.4C309.417,170.3 308.467,169.333 307.4,168.5L305.55,167.35L305.25,168.3L305.25,167.85L304.85,169.15L304.7,169.45L304.7,169.75L302.1,178.1L301.1,179.95L301.55,179.65C302.283,179.217 303.033,178.95 303.8,178.85L304.6,178.85C306.1,179.383 307.65,179.65 309.25,179.65L309.35,179.6L309.45,179.6M304.6,170.65L304.55,170.9L304.45,171.1L304.6,170.65M303.6,185.4C304.5,185.2 305.3,184.867 306,184.4L306.15,184.15C304.683,183.317 303.05,182.983 301.25,183.15L301.2,183.15L300.75,186.15L300.5,186.45C299.233,187.85 298.5,189.5 298.3,191.4L298.2,192C298.067,193.7 298.167,195.317 298.5,196.85L298.9,198.35C298.467,199.017 298.367,199.717 298.6,200.45C298.9,201.483 299.4,202.317 300.1,202.95L302.1,204.8L301.25,203.95L306.8,199.7L310.4,196.85C306.867,202.55 305.317,205.35 305.75,205.25L307.6,204.55L306.45,205.35L308.15,204.25L308.8,203.85C309.5,203.417 310.183,203.017 310.85,202.65L313.4,201.15L317.25,198.85L318.15,198.05L318.6,196.05C318.6,194.35 318.317,192.65 317.75,190.95C317.183,189.283 316.117,188.133 314.55,187.5C313.217,186.933 311.85,186.517 310.45,186.25L305.7,185.5L304,185.45L303.6,185.4" style="fill:url(#_Linear5);"/>
                <path d="M325.9,181.25L326.65,183.75C327.45,186.65 327.9,189.6 328,192.6C327.133,192.767 326.383,192.567 325.75,192L324.4,190.45C323.933,189.583 323.617,188.7 323.45,187.8C323.317,186.867 323.3,185.917 323.4,184.95C323.667,183.45 324.5,182.217 325.9,181.25" style="fill:url(#_Linear6);"/>
                <path d="M327.4,199.7C326.733,202.333 325.933,204.8 325,207.1C323.233,211.6 320.45,215.417 316.65,218.55L316.5,218.65L316,219.2L316.25,218C316.95,216.533 317.7,215.1 318.5,213.7C319,212.533 319.233,211.367 319.2,210.2L321.1,208.95C324,206.517 326.1,203.433 327.4,199.7M283.3,223.7L282.55,223.45C279.483,222.25 276.6,220.85 273.9,219.25L276.7,218L276.7,218.05L276.75,218.1L276.6,218.25L276.85,218.2C278.483,220.433 280.45,222.167 282.75,223.4L283.3,223.7M288.05,206.95L286.95,207.1C284.85,207.367 283.033,208.1 281.5,209.3L280.5,209.55C281.433,208.35 281.8,207.033 281.6,205.6C281.4,204.067 280.767,202.733 279.7,201.6C278.667,200.467 277.4,199.683 275.9,199.25L273.5,196.1L271.65,194.1L273.75,193L275.3,195.25C276.367,196.583 277.583,197.8 278.95,198.9C280.317,200.033 281.767,201.033 283.3,201.9L287.1,205L289.25,206.8L289.55,207.05L289.45,207.05L288.05,206.95" style="fill:url(#_Linear7);"/>
                <path d="M268.4,159.15L270.4,157.85C272.333,156.65 274.4,155.683 276.6,154.95L277.6,155.8L278.25,157.1C278.617,159.067 277.867,160.467 276,161.3C274.4,161.967 272.767,161.983 271.1,161.35C269.933,160.917 269.033,160.183 268.4,159.15" style="fill:url(#_Linear8);"/>
                <path d="M255.5,189.6C255,184.067 255.733,178.783 257.7,173.75C259.3,169.617 261.483,165.933 264.25,162.7C265.917,163.067 267.483,163.667 268.95,164.5C270.35,165.333 271.567,166.317 272.6,167.45C273.667,168.717 274.6,170.083 275.4,171.55C274.467,172.583 273.8,173.633 273.4,174.7L273.25,175.15L273.15,175.7C272.917,176.733 272.967,177.783 273.3,178.85L273.3,179.15L273.55,180.45C273.65,181.117 273.933,181.683 274.4,182.15C274.833,182.617 275.367,182.85 276,182.85L277.95,182.95L279.7,183.15L281.4,183.2L283.15,183L284.75,182.45L286.25,181.25L286.9,180.55L288.05,178.5L288.1,178.35C288.2,178.083 288.117,176.85 287.85,174.65C289.417,178.917 290.967,181.483 292.5,182.35L296.55,182.75L296.65,187.1L293,184.95L290.4,185.15C289.133,185.017 291.133,187.95 296.4,193.95L285.55,184.75C279.583,185.083 275.517,187.267 273.35,191.3C273.117,191.733 273.25,192.3 273.75,193L271.65,194.1L266.95,190.05C266.25,191.083 265.283,191.733 264.05,192L262.85,192.25C262.717,190.317 262.3,188.517 261.6,186.85L261.25,186.85L260.7,189.95C260.6,188.783 260.367,187.7 260,186.7C259.433,185.233 258.55,184.983 257.35,185.95L256.95,187.3L255.4,187.5L255.5,189.6" style="fill:url(#_Linear9);"/>
                <path d="M274.65,181.3C274.65,178.567 275.283,175.967 276.55,173.5L277.5,172.15L280.15,173.15C282.617,173.983 284.4,174.367 285.5,174.3C285.533,174.833 285.083,175.133 284.15,175.2C282.383,175.3 280.767,174.883 279.3,173.95C278.967,174.283 278.717,174.7 278.55,175.2C277.917,176.933 277.9,178.633 278.5,180.3C278.733,180.933 279.067,181.483 279.5,181.95L277.6,181.8L274.65,181.3M285.75,170.65L285.5,170.3L285.1,169.45L288.55,169.2C287.55,169.467 286.617,169.95 285.75,170.65M291.55,167.5L288.45,166.75C286.917,166.383 285.567,165.817 284.4,165.05L296.35,165.4C297.283,166.733 297.6,168.133 297.3,169.6L297.05,169C296.317,167.233 295.05,166.517 293.25,166.85C292.317,166.983 291.75,167.2 291.55,167.5M285.55,184.75L296.4,193.95C289.7,188.683 286.183,186.217 285.85,186.55C284.35,187.817 282.95,189.183 281.65,190.65C280.583,191.817 279.367,192.783 278,193.55L276.55,190.7C279.617,187.6 282.617,185.617 285.55,184.75M305.25,168.3L304.6,170.65L304.45,171.1L304.55,170.9C304.917,171.233 305.067,171.55 305,171.85L304.9,172.35C304.467,173.85 304.183,175.333 304.05,176.8C303.983,177.467 303.783,178.033 303.45,178.5L302.15,178.1L302.1,178.1L304.7,169.75L304.85,169.15L305.25,167.85L305.25,168.3M306.8,199.7L301.25,203.95L302.1,204.8L300.1,202.95C299.4,202.317 298.9,201.483 298.6,200.45C298.367,199.717 298.467,199.017 298.9,198.35L298.5,196.85C298.167,195.317 298.067,193.7 298.2,192C298.267,193.967 298.667,195.783 299.4,197.45C300.133,199.15 300.833,200.567 301.5,201.7C302,202.5 303.767,201.833 306.8,199.7M310.05,186.7C311.85,187.167 313.067,187.65 313.7,188.15C315.833,189.75 316.717,191.567 316.35,193.6C315.85,195.867 314.65,198.083 312.75,200.25C313.383,198.617 313.683,196.85 313.65,194.95C313.517,191.717 312.317,188.967 310.05,186.7" style="fill:url(#_Radial10);"/>
                <path d="M255.55,190.85L255.5,189.6L255.4,187.5L256.95,187.3L257.35,185.95C258.55,184.983 259.433,185.233 260,186.7C260.367,187.7 260.6,188.783 260.7,189.95L261.25,186.85L261.6,186.85C262.3,188.517 262.717,190.317 262.85,192.25L264.05,192C265.283,191.733 266.25,191.083 266.95,190.05C267.617,191.317 268.233,192.933 268.8,194.9L266.15,195.15C262.017,195.183 258.483,193.75 255.55,190.85M300.75,186.15L301.2,183.15L301.25,183.15C303.05,182.983 304.683,183.317 306.15,184.15L306,184.4C305.3,184.867 304.5,185.2 303.6,185.4L303.05,185.55L301.1,186.1L300.75,186.15" style="fill:url(#_Linear11);"/>
                <path d="M261.45,206.55C259.917,204.05 258.683,201.517 257.75,198.95C256.75,196.283 256.017,193.583 255.55,190.85C258.483,193.75 262.017,195.183 266.15,195.15L268.8,194.9C268.233,192.933 267.617,191.317 266.95,190.05L271.65,194.1L273.5,196.1L275.9,199.25L277.15,201.3L276.35,201.1C274.65,200.733 273.267,199.95 272.2,198.75L271.5,198.8C270.033,199.033 268.65,199.517 267.35,200.25C266.783,200.45 266.283,200.717 265.85,201.05C264.917,201.517 264.217,202.15 263.75,202.95L261.45,206.55" style="fill:url(#_Linear12);"/>
                <path d="M292.85,153.75C294.483,154.117 296.1,154.6 297.7,155.2C301.9,156.767 306.033,158.583 310.1,160.65L308.8,161.5C307.5,162.267 306.117,162.517 304.65,162.25C302.85,161.883 301.25,161.133 299.85,160L295.95,156.55L292.85,153.75" style="fill:url(#_Linear13);"/>
                <path d="M312.85,162.8C316.45,165.667 319.4,169.033 321.7,172.9C323,175.067 324.183,177.283 325.25,179.55L321.7,179.4C320.033,179.2 318.5,178.583 317.1,177.55C315.667,176.45 314.417,175.083 313.35,173.45C312.383,171.95 311.9,170.333 311.9,168.6C311.833,166.633 312.15,164.7 312.85,162.8" style="fill:url(#_Linear14);"/>
                <path d="M313.5,221.15L311.4,222.3C309.1,223.533 306.767,224.45 304.4,225.05C305.333,222.65 306.967,220.983 309.3,220.05C310.933,219.45 312.333,219.817 313.5,221.15" style="fill:url(#_Linear15);"/>
                <path d="M316.55,218.9L313.5,221.15C312.333,219.817 310.933,219.45 309.3,220.05C306.967,220.983 305.333,222.65 304.4,225.05L298.6,225.95C299.233,224.517 299.983,223.133 300.85,221.8C301.783,220.6 302.917,219.583 304.25,218.75C305.45,217.917 306.767,217.333 308.2,217L312.45,216.3C314.017,216.2 315.283,216.767 316.25,218L316,219.2L316.5,218.65L316.55,218.9" style="fill:url(#_Linear16);"/>
                <path d="M316.65,218.55L316.65,218.85L316.55,218.9L316.5,218.65L316.65,218.55" style="fill:url(#_Linear17);"/>
                <path d="M273.9,219.25L273.2,218.65C271.933,217.783 270.783,216.9 269.75,216L266.6,213L264,209.9L261.45,206.55L263.75,202.95C264.217,202.15 264.917,201.517 265.85,201.05C266.283,200.717 266.783,200.45 267.35,200.25C268.65,199.517 270.033,199.033 271.5,198.8L272.2,198.75C273.267,199.95 274.65,200.733 276.35,201.1L277.15,201.3L275.9,199.25C277.4,199.683 278.667,200.467 279.7,201.6C280.767,202.733 281.4,204.067 281.6,205.6C281.8,207.033 281.433,208.35 280.5,209.55C280.267,211.05 279.817,212.517 279.15,213.95C278.85,214.517 278.4,214.85 277.8,214.95L278.15,215.65L276.75,218L276.7,218L273.9,219.25" style="fill:url(#_Linear18);"/>
                <path d="M281.5,209.3C281.5,210.733 281.15,212.117 280.45,213.45C279.517,215.217 278.3,216.75 276.8,218.05L276.75,218L278.15,215.65L277.8,214.95C278.4,214.85 278.85,214.517 279.15,213.95C279.817,212.517 280.267,211.05 280.5,209.55L281.5,209.3" style="fill:url(#_Linear19);"/>
                <path d="M297.75,176.5C297.783,177.3 297.533,178 297,178.6C296.433,179.2 295.75,179.517 294.95,179.55C294.15,179.55 293.467,179.283 292.9,178.75C292.3,178.217 291.983,177.55 291.95,176.75L292.05,175.8L291.4,176.05C291,176.083 290.667,175.983 290.4,175.75C290.133,175.483 290,175.15 290,174.75C290.033,174.35 290.2,174 290.5,173.7C290.8,173.333 291.167,173.117 291.6,173.05C292,172.983 292.333,173.083 292.6,173.35C292.867,173.583 292.983,173.917 292.95,174.35L292.95,174.45C293.45,173.983 294.05,173.75 294.75,173.75C295.517,173.683 296.2,173.933 296.8,174.5C297.4,175.033 297.717,175.7 297.75,176.5" style="fill:#fff;"/>
                <path d="M263.6,164.55C260.4,169.95 258.983,176.1 259.35,183C259.817,193.033 263.833,201.717 271.4,209.05C279.133,216.617 288.267,220.533 298.8,220.8C308.233,221 316,218.5 322.1,213.3L319.95,216.25C313.017,223.517 304.383,226.883 294.05,226.35C283.783,225.85 274.833,221.833 267.2,214.3C259.733,206.967 255.717,198.417 255.15,188.65C254.45,179.117 257.267,171.083 263.6,164.55" style="fill:url(#_Linear20);"/>
            </g>
        </g>
    </g>
    <defs>
        <radialGradient id="_Radial1" cx="0" cy="0" r="1" gradientUnits="userSpaceOnUse" gradientTransform="matrix(-8.68352,2.12992,-2.21184,-8.92928,306.65,106.05)"><stop offset="0" style="stop-color:#beebc4;stop-opacity:1"/><stop offset="0.62" style="stop-color:#2eb1b8;stop-opacity:1"/><stop offset="1" style="stop-color:#0a2524;stop-opacity:1"/></radialGradient>
        <radialGradient id="_Radial2" cx="0" cy="0" r="1" gradientUnits="userSpaceOnUse" gradientTransform="matrix(8.84736,1.31072,-1.31072,9.09312,258.95,138.05)"><stop offset="0" style="stop-color:#beebc4;stop-opacity:1"/><stop offset="0.62" style="stop-color:#2eb1b8;stop-opacity:1"/><stop offset="1" style="stop-color:#0a2524;stop-opacity:1"/></radialGradient>
        <radialGradient id="_Radial3" cx="0" cy="0" r="1" gradientUnits="userSpaceOnUse" gradientTransform="matrix(6.9632,-1.6384,1.6384,7.12704,269.8,95.75)"><stop offset="0" style="stop-color:#beebc4;stop-opacity:1"/><stop offset="0.62" style="stop-color:#2eb1b8;stop-opacity:1"/><stop offset="1" style="stop-color:#0a2524;stop-opacity:1"/></radialGradient>
        <radialGradient id="_Radial4" cx="0" cy="0" r="1" gradientUnits="userSpaceOnUse" gradientTransform="matrix(25.3133,-9.33888,10.4038,28.1805,294.45,179.8)"><stop offset="0" style="stop-color:#beebc4;stop-opacity:1"/><stop offset="0.62" style="stop-color:#2eb1b8;stop-opacity:1"/><stop offset="1" style="stop-color:#0a2524;stop-opacity:1"/></radialGradient>
        <linearGradient id="_Linear5" x1="0" y1="0" x2="1" y2="0" gradientUnits="userSpaceOnUse" gradientTransform="matrix(44.4006,-98.304,98.304,44.4006,277.647,239.868)"><stop offset="0" style="stop-color:#afaf18;stop-opacity:1"/><stop offset="0.62" style="stop-color:#b4db11;stop-opacity:1"/><stop offset="1" style="stop-color:#b4db11;stop-opacity:1"/></linearGradient>
        <linearGradient id="_Linear6" x1="0" y1="0" x2="1" y2="0" gradientUnits="userSpaceOnUse" gradientTransform="matrix(5.57056,-5.7344,5.7344,5.57056,324.376,190.91)"><stop offset="0" style="stop-color:#e7e64e;stop-opacity:1"/><stop offset="1" style="stop-color:#c0f13d;stop-opacity:1"/></linearGradient>
        <linearGradient id="_Linear7" x1="0" y1="0" x2="1" y2="0" gradientUnits="userSpaceOnUse" gradientTransform="matrix(47.3498,-48.3328,48.3328,47.3498,274.591,219.947)"><stop offset="0" style="stop-color:#e7e64e;stop-opacity:1"/><stop offset="1" style="stop-color:#c0f13d;stop-opacity:1"/></linearGradient>
        <linearGradient id="_Linear8" x1="0" y1="0" x2="1" y2="0" gradientUnits="userSpaceOnUse" gradientTransform="matrix(6.38976,-6.5536,6.5536,6.38976,271.401,162.307)"><stop offset="0" style="stop-color:#e7e64e;stop-opacity:1"/><stop offset="1" style="stop-color:#c0f13d;stop-opacity:1"/></linearGradient>
        <linearGradient id="_Linear9" x1="0" y1="0" x2="1" y2="0" gradientUnits="userSpaceOnUse" gradientTransform="matrix(20.1523,-20.48,20.48,20.1523,257.991,193.309)"><stop offset="0" style="stop-color:#a9a818;stop-opacity:1"/><stop offset="1" style="stop-color:#c0f13d;stop-opacity:1"/></linearGradient>
        <radialGradient id="_Radial10" cx="0" cy="0" r="1" gradientUnits="userSpaceOnUse" gradientTransform="matrix(571.965,-584.581,584.581,571.965,33.85,305.85)"><stop offset="0" style="stop-color:#30927b;stop-opacity:0.2"/><stop offset="0.09" style="stop-color:#30927b;stop-opacity:0.2"/><stop offset="0.53" style="stop-color:#307a5e;stop-opacity:1"/><stop offset="1" style="stop-color:#0b6875;stop-opacity:1"/></radialGradient>
        <linearGradient id="_Linear11" x1="0" y1="0" x2="1" y2="0" gradientUnits="userSpaceOnUse" gradientTransform="matrix(20.1523,-20.48,20.48,20.1523,258.244,193.556)"><stop offset="0" style="stop-color:#e7e64e;stop-opacity:1"/><stop offset="1" style="stop-color:#c0f13d;stop-opacity:1"/></linearGradient>
        <linearGradient id="_Linear12" x1="0" y1="0" x2="1" y2="0" gradientUnits="userSpaceOnUse" gradientTransform="matrix(47.3498,-48.3328,48.3328,47.3498,274.492,219.85)"><stop offset="0" style="stop-color:#bebd1b;stop-opacity:1"/><stop offset="1" style="stop-color:#c0f13d;stop-opacity:1"/></linearGradient>
        <linearGradient id="_Linear13" x1="0" y1="0" x2="1" y2="0" gradientUnits="userSpaceOnUse" gradientTransform="matrix(5.07904,-5.07904,5.07904,5.07904,300.064,160.877)"><stop offset="0" style="stop-color:#e7e64e;stop-opacity:1"/><stop offset="1" style="stop-color:#c0f13d;stop-opacity:1"/></linearGradient>
        <linearGradient id="_Linear14" x1="0" y1="0" x2="1" y2="0" gradientUnits="userSpaceOnUse" gradientTransform="matrix(5.7344,-5.89824,5.89824,5.7344,315.948,177.232)"><stop offset="0" style="stop-color:#e7e64e;stop-opacity:1"/><stop offset="1" style="stop-color:#c0f13d;stop-opacity:1"/></linearGradient>
        <linearGradient id="_Linear15" x1="0" y1="0" x2="1" y2="0" gradientUnits="userSpaceOnUse" gradientTransform="matrix(6.38976,-6.5536,6.5536,6.38976,305.895,226.566)"><stop offset="0" style="stop-color:#e7e64e;stop-opacity:1"/><stop offset="1" style="stop-color:#c0f13d;stop-opacity:1"/></linearGradient>
        <linearGradient id="_Linear16" x1="0" y1="0" x2="1" y2="0" gradientUnits="userSpaceOnUse" gradientTransform="matrix(12.6157,-12.9434,12.9434,12.6157,301.751,229.008)"><stop offset="0" style="stop-color:#e7e64e;stop-opacity:1"/><stop offset="1" style="stop-color:#c0f13d;stop-opacity:1"/></linearGradient>
        <linearGradient id="_Linear17" x1="0" y1="0" x2="1" y2="0" gradientUnits="userSpaceOnUse" gradientTransform="matrix(44.2368,-45.2198,45.2198,44.2368,278.453,217.607)"><stop offset="0" style="stop-color:#bebd1b;stop-opacity:1"/><stop offset="1" style="stop-color:#b4db11;stop-opacity:1"/></linearGradient>
        <linearGradient id="_Linear18" x1="0" y1="0" x2="1" y2="0" gradientUnits="userSpaceOnUse" gradientTransform="matrix(12.1242,-12.4518,12.4518,12.1242,268.887,215.335)"><stop offset="0" style="stop-color:#dfde24;stop-opacity:1"/><stop offset="1" style="stop-color:#b4db11;stop-opacity:1"/></linearGradient>
        <linearGradient id="_Linear19" x1="0" y1="0" x2="1" y2="0" gradientUnits="userSpaceOnUse" gradientTransform="matrix(12.1242,-12.4518,12.4518,12.1242,268.98,215.426)"><stop offset="0" style="stop-color:#e7e64e;stop-opacity:1"/><stop offset="1" style="stop-color:#c0f13d;stop-opacity:1"/></linearGradient>
        <linearGradient id="_Linear20" x1="0" y1="0" x2="1" y2="0" gradientUnits="userSpaceOnUse" gradientTransform="matrix(48.8243,-49.8074,49.8074,48.8243,273.233,220.417)"><stop offset="0" style="stop-color:#60600d;stop-opacity:0.51"/><stop offset="0.62" style="stop-color:#b4db11;stop-opacity:1"/><stop offset="1" style="stop-color:#b4db11;stop-opacity:1"/></linearGradient>
    </defs>
</svg>
