<?xml version="1.0" encoding="UTF-8"?>
<svg version="1.1" viewBox="0 0 113.6 113.6" xmlns="http://www.w3.org/2000/svg" xmlns:cc="http://creativecommons.org/ns#" xmlns:dc="http://purl.org/dc/elements/1.1/" xmlns:rdf="http://www.w3.org/1999/02/22-rdf-syntax-ns#" xmlns:xlink="http://www.w3.org/1999/xlink">
<metadata>
<rdf:RDF>
<cc:Work rdf:about="">
<dc:format>image/svg+xml</dc:format>
<dc:type rdf:resource="http://purl.org/dc/dcmitype/StillImage"/>
</cc:Work>
</rdf:RDF>
</metadata>
<g transform="translate(-341.03 -158.63)">
<use transform="translate(341.05,158.65)" width="113.55" height="113.55" xlink:href="#c"/>
<use transform="matrix(-.6996 -.6996 .6996 -.6996 397.6 220.63)" width="10.4" height="10.4" xlink:href="#b"/>
<use transform="translate(394.7,212.7)" width="3.7" height="3.7" xlink:href="#a"/>
</g>
<defs>
<g id="c" transform="translate(-341.05,-158.65)">
<path d="m434.85 181.7 6.6-9.8-1.4 0.3-5.7 1.2 8.5-3.6 3.45 0.45-11.45 11.45m-8.95 3.65-9.4 10.5-5.45 6.05-5.15 1.25-12.3 9.2 1.75-2.85 8.8-8 6.1-1.9 17.95-17.95 2.9-2.1-4.5 5-0.7 0.8" fill="#82a4cc" fill-rule="evenodd"/>
<path d="m440.05 172.2 1.4-0.3-6.6 9.8-4.6 6.8-4.85 2.55-8.9 4.8 9.4-10.5 3.85-0.55 0.25-0.35 10.05-12.25m-9.65 7.55 0.7-0.2-2.9 2.1-2.9 2.2-5.2 1.6 7.8-7.8-1.55 3.45 4.05-1.35m-13.3 10.1-8.15 6.05 5.95-8.85 2.2 2.8m-26.8 21.2 1.65 4.15 0.45-0.85 1.2-2 1.8 2.4 8.7-8.7 1.8-2.9 1.15 4.55 5.3 0.2-4.5 2.5-2.55 1.45-7.15 4.05-1.7 0.9-5.45 2.95 5.45-2.95 6 1.3-9.35 1.75-2.1-0.1-2.7 1.5 1.95-3.25 0.05-6.95m7.85 4.85 5.95-9.85-5.95 9.85m-7.9 2.1 1.7-2.8-1.7 2.8" fill="#5f83be" fill-rule="evenodd"/>
<path d="m446.3 170.25-3.45-0.45-8.5 3.6 2.95-2.15 17.3-12.6-8.3 11.6m-0.25-0.75-2.7-0.5-6.05 2.25 6.05-2.25 2.7 0.5" fill="url(#aj)" fill-rule="evenodd"/>
<path d="m434.35 173.4 5.7-1.2-10.05 12.25-0.55 0.05-2.85 0.05 4.5-5-0.7 0.2-3.2 0.6 1-3 3.4-3.4 2.75-0.55m4.35-0.25-9.25 11.35 9.25-11.35" fill="url(#ai)" fill-rule="evenodd"/>
<path d="m430 184.45-0.25 0.35-3.85 0.55 0.7-0.8 2.85-0.05 0.55-0.05m-1.8-7.1-1 3 3.2-0.6-4.05 1.35 1.55-3.45 0.3-0.3m-2.9 6.5 2.9-2.2-17.95 17.95-6.1 1.9-8.8 8 1.7-2.8 6.85-5.85 6.1-1.6 15.3-15.4m-9.85 3.05 2 2.7-0.35 0.25-2.2-2.8 0.55-0.15m-9.55 16.25-1.8 2.9-8.7 8.7-1.8-2.4 12.3-9.2m-2.85 2.95-7.5 7.5-1-1 1 1 7.5-7.5" fill="#b6e9fb" fill-rule="evenodd"/>
<path d="m420.1 185.45 5.2-1.6-7.85 5.75-2-2.7 4.65-1.45" fill="url(#x)" fill-rule="evenodd"/>
<path d="m417.45 189.6 7.85-5.75-15.3 15.4-6.1 1.6-6.85 5.85 2.3-3.8 9.6-7 8.15-6.05 0.35-0.25" fill="url(#m)" fill-rule="evenodd"/>
<path d="m416.5 195.85 8.9-4.8-13.05 16.85-5.3-0.2-1.15-4.55 5.15-1.25 5.45-6.05m0.35 0.55 6.85-3.85-6.85 3.85m-4.9 10.5-4.35-0.25-1.05-2.95 1.05 2.95 4.35 0.25" fill="url(#i)" fill-rule="evenodd"/>
<path d="m398.15 215.9 7.15-4.05 2.55-1.45-5.4 7.7-6-1.3 1.7-0.9m3.65 0.95-3.45-0.35 6.95-4.65-6.95 4.65 3.45 0.35" fill="url(#h)" fill-rule="evenodd"/>
<path d="m397.05 206.7-1.7 2.8-1.75 2.85-1.2 2-0.45 0.85-1.65-4.15 6.75-4.35m-6.1 4.6 1.45 3.05-1.45-3.05" fill="url(#g)" fill-rule="evenodd"/>
<path d="m440.05 172.2 1.4-0.3-6.6 9.8 11.45-11.45m-11.95 3.15 5.7-1.2m-14.15 13.15-9.4 10.5 8.9-4.8 4.85-2.55 4.6-6.8m-0.5-8.3 2.95-2.15 17.3-12.6-8.3 11.6m-11.95 3.15-2.75 0.55-3.4 3.4m2.9 2.2-4.5 5-0.7 0.8m2-7.7 0.3-0.3m-8.1 8.1 5.2-1.6 2.9-2.2 2.9-2.1m-3.2-1.9-7.8 7.8-4.65 1.45m2 2.7 7.85-5.75m-28.25 22.85-1.7 2.8m13.6-13.6 8.15-6.05 0.35-0.25m-2.55-2.55-5.95 8.85-9.6 7-2.3 3.8-6.75 4.35m1.65 4.15 0.45-0.85 1.2-2 1.75-2.85m19.55-22.45 0.55-0.15m-9.55 16.25 5.15-1.25 5.45-6.05m-4.15 12.05 13.05-16.85m-19.5 12.1-1.8 2.9-5.95 9.85 7.15-4.05 2.55-1.45 4.5-2.5m-15.9 8.9 1.7-0.9m-4.55-3.55 12.3-9.2m-3.45 14.95-9.35 1.75-2.1-0.1-2.7 1.5 1.95-3.25 0.05-6.95m0.7 8.7 5.45-2.95m6 1.3 5.4-7.7m-15.9 4.8-1.7 2.8" fill="none" stroke="#000" stroke-linecap="round" stroke-linejoin="round" stroke-opacity=".25098" stroke-width=".05"/>
<path d="m437.3 171.25 6.05-2.25 2.7 0.5m-17.85 7.85-1 3 3.2-0.6m-3.8 4.8 2.85-0.05 9.25-11.35m-8.7 11.3-0.55 0.05m-14 2.4 2 2.7m7.85-5.75-15.3 15.4-6.1 1.6-6.85 5.85m-4.65 7.65-1.45-3.05m15.6-7.6 1.05 2.95 4.35 0.25m11.75-14.35-6.85 3.85m-22.3 16.2 1 1 7.5-7.5m2.25 5.75-6.95 4.65 3.45 0.35" fill="none" stroke="#fff" stroke-linecap="round" stroke-linejoin="round" stroke-width=".05"/>
<path d="m427.15 194.7q-1.75 1.75-4.25 1.75-2.45 0.05-4.25-1.75-1.75-1.75-1.75-4.25 0.05-2.45 1.8-4.2t4.2-1.8q2.5 0 4.25 1.75 1.8 1.8 1.75 4.25 0 2.5-1.75 4.25" fill="url(#f)" fill-rule="evenodd"/>
<path d="m400.3 210.65 3.4-3.4v9.1l-3.4-5.7" fill="#7096c5" fill-rule="evenodd"/>
<path d="m403.7 211.85v-4.6l4.6-4.6 1.8 8.3-3.2 0.4-3.2 0.5m4.35-8.45 1.5 7.1-1.5-7.1" fill="url(#e)" fill-rule="evenodd"/>
<path d="m400.2 211.35 2.8 4.7-2.8-4.7m0.1-0.7 3.4 5.7-9.7 0.6 6.3-6.3" fill="url(#d)" fill-rule="evenodd"/>
<path d="m418.2 212.45-10.05 1.75-1.25-2.85 3.2-0.4 2.4-4.9 5.7 6.4m-5.5-5.6 4.55 5.05-4.55-5.05" fill="url(#ah)" fill-rule="evenodd"/>
<path d="m418.25 199.3-0.05 13.15-5.7-6.4 5.75-11.25v4.5" fill="#5f83be" fill-rule="evenodd"/>
<path d="m422.1 197.85-3.85 1.45v-4.5l1-2.1 2.85 5.15m-2.85-4.45 2.35 4.15-2.35-4.15" fill="url(#ag)" fill-rule="evenodd"/>
<path d="m408.3 202.65 12-12-1.05 2.05-1 2.1-5.75 11.25-2.4 4.9-1.8-8.3" fill="#82a4cc" fill-rule="evenodd"/>
<path d="m420.3 190.65 2.4-2.4 0.55 1.15-1.15 8.45-2.85-5.15 1.05-2.05" fill="#608abd" fill-rule="evenodd"/>
<path d="m403.7 207.25-3.4 3.4m3.4 5.7v-9.1l19-19 0.55 1.15-1.15 8.45-3.85 1.45-0.05 13.15-10.05 1.75-1.25-2.85-3.2 0.5m0 4.5-9.7 0.6 6.3-6.3m17.95-11.35v-4.5l-5.75 11.25-2.4 4.9-3.2 0.4m12.35-18.65 1.05-2.05m-1.05 2.05-1 2.1" fill="none" stroke="#000" stroke-linecap="round" stroke-linejoin="round" stroke-opacity=".26274" stroke-width=".05"/>
<path d="m403 216.05-2.8-4.7m9.35-0.85-1.5-7.1m9.2 8.5-4.55-5.05m8.9-9.3-2.35-4.15" fill="none" stroke="#fff" stroke-linecap="round" stroke-linejoin="round" stroke-width=".05"/>
<path d="m403.75 207.3h-9.1l5.7 3.4 3.4-3.4" fill="#7096c5" fill-rule="evenodd"/>
<path d="m399.65 204.1-0.5 3.2h4.6l4.6-4.6-8.3-1.8-0.4 3.2m7.95-1.15-7.1-1.5 7.1 1.5" fill="url(#af)" fill-rule="evenodd"/>
<path d="m394.65 207.3-0.6 9.7 6.3-6.3-5.7-3.4m5 3.5-4.7-2.8 4.7 2.8" fill="url(#ae)" fill-rule="evenodd"/>
<path d="m399.65 204.1 0.4-3.2 4.9-2.4-6.4-5.7-1.75 10.05 2.85 1.25m4.5-5.8-5.05-4.55 5.05 4.55" fill="url(#ad)" fill-rule="evenodd"/>
<path d="m398.55 192.8 6.4 5.7 11.25-5.75h-4.5l-13.15 0.05" fill="#5f83be" fill-rule="evenodd"/>
<path d="m411.7 192.75h4.5l2.1-1-5.15-2.85-1.45 3.85m5.9-1-4.15-2.35 4.15 2.35" fill="url(#ac)" fill-rule="evenodd"/>
<path d="m400.05 200.9 8.3 1.8 12-12-2.05 1.05-2.1 1-11.25 5.75-4.9 2.4" fill="#82a4cc" fill-rule="evenodd"/>
<path d="m418.3 191.75 2.05-1.05 2.4-2.4-1.15-0.55-8.45 1.15 5.15 2.85" fill="#608abd" fill-rule="evenodd"/>
<path d="m399.15 207.3 0.5-3.2 0.4-3.2m8.3 1.8-4.6 4.6h-9.1l-0.6 9.7 9.7-9.7m-4.1-3.2-2.85-1.25 1.75-10.05m6.4 5.7-4.9 2.4m11.65-8.15h4.5l-11.25 5.75m13.35-6.75 2.05-1.05-12 12m12-12 2.4-2.4-1.15-0.55-8.45 1.15-1.45 3.85-13.15 0.05m19.75-1.05-2.1 1" fill="none" stroke="#000" stroke-linecap="round" stroke-linejoin="round" stroke-opacity=".26274" stroke-width=".05"/>
<path d="m394.95 208 4.7 2.8m13.8-21.4 4.15 2.35m-18.5 2 5.05 4.55m-3.65 3.15 7.1 1.5" fill="none" stroke="#fff" stroke-linecap="round" stroke-linejoin="round" stroke-width=".05"/>
<path d="m364.1 252.45-9.8 6.6 0.3-1.4 1.2-5.7-3.6 8.5 0.45 3.45 11.45-11.45m3.65-8.95 10.5-9.4 6.05-5.45 1.25-5.15 9.2-12.3-2.85 1.75-8 8.8-1.9 6.1-17.95 17.95-2.1 2.9 5-4.5 0.8-0.7" fill="#82a4cc" fill-rule="evenodd"/>
<path d="m354.6 257.65-0.3 1.4 9.8-6.6 6.8-4.6 2.55-4.85 4.8-8.9-10.5 9.4-0.55 3.85-0.35 0.25-12.25 10.05m7.55-9.65-0.2 0.7 2.1-2.9 2.2-2.9 1.6-5.2-7.8 7.8 3.45-1.55-1.35 4.05m7.3-15.5 2.8 2.2 6.05-8.15-8.85 5.95m19-10.8-2.9 1.8 4.55 1.15 0.2 5.3 2.5-4.5 1.45-2.55 4.05-7.15-9.85 5.95 9.85-5.95 0.9-1.7 2.95-5.45 1.5-2.7-3.25 1.95-6.95 0.05 4.15 1.65-0.85 0.45-2 1.2 2.4 1.8-8.7 8.7m12.05-1.65 1.75-9.35-0.1-2.1-2.95 5.45 1.3 6m-0.1-12.2-2.8 1.7 2.8-1.7" fill="#5f83be" fill-rule="evenodd"/>
<path d="m351.9 263.65-0.5-2.7 2.25-6.05-2.25 6.05 0.5 2.7m0.75 0.25-0.45-3.45 3.6-8.5-2.15 2.95-12.6 17.3 11.6-8.3" fill="url(#ab)" fill-rule="evenodd"/>
<path d="m355.8 251.95-1.2 5.7 12.25-10.05 0.05-0.55 0.05-2.85-5 4.5 0.2-0.7 0.6-3.2-3 1-3.4 3.4-0.55 2.75m-0.25 4.35 11.35-9.25-11.35 9.25" fill="url(#aa)" fill-rule="evenodd"/>
<path d="m366.85 247.6 0.35-0.25 0.55-3.85-0.8 0.7-0.05 2.85-0.05 0.55m-4.7 0.4 1.35-4.05-3.45 1.55-0.3 0.3 3-1-0.6 3.2m4.1-5.1-2.2 2.9 17.95-17.95 1.9-6.1 8-8.8-2.8 1.7-5.85 6.85-1.6 6.1-15.4 15.3m3.05-9.85 2.7 2 0.25-0.35-2.8-2.2-0.15 0.55m16.25-9.55 2.9-1.8 8.7-8.7-2.4-1.8-9.2 12.3m2.95-2.85 7.5-7.5-1-1 1 1-7.5 7.5" fill="#b6e9fb" fill-rule="evenodd"/>
<path d="m367.85 237.7-1.6 5.2 5.75-7.85-2.7-2-1.45 4.65" fill="url(#z)" fill-rule="evenodd"/>
<path d="m372.25 234.7-0.25 0.35-5.75 7.85 15.4-15.3 1.6-6.1 5.85-6.85-3.8 2.3-7 9.6-6.05 8.15" fill="url(#y)" fill-rule="evenodd"/>
<path d="m378.25 234.1-4.8 8.9 16.85-13.05-0.2-5.3-4.55-1.15-1.25 5.15-6.05 5.45m11.05-4.55-0.25-4.35-2.95-1.05 2.95 1.05 0.25 4.35m-10.5 4.9-3.85 6.85 3.85-6.85" fill="url(#w)" fill-rule="evenodd"/>
<path d="m398.3 215.75-4.05 7.15-1.45 2.55 7.7-5.4-1.3-6-0.9 1.7m0.95 3.65-0.35-3.45-4.65 6.95 4.65-6.95 0.35 3.45" fill="url(#v)" fill-rule="evenodd"/>
<path d="m389.1 214.65 2.8-1.7 2.85-1.75 2-1.2-3.05-1.45 3.05 1.45 0.85-0.45-4.15-1.65-4.35 6.75" fill="url(#u)" fill-rule="evenodd"/>
<path d="m354.6 257.65-0.3 1.4 9.8-6.6-11.45 11.45m3.15-11.95-1.2 5.7m13.15-14.15 10.5-9.4-4.8 8.9-2.55 4.85-6.8 4.6m-8.3-0.5-2.15 2.95-12.6 17.3 11.6-8.3m7.4-18.4 7.8-7.8-1.6 5.2-2.2 2.9-2.1 2.9 5-4.5 0.8-0.7m-8 2.3-3.4 3.4-0.55 2.75m4.25-6.45-0.3 0.3m9.55-12.75 0.15-0.55m2.8 2.2-0.25 0.35-5.75 7.85m22.85-28.25 2.8-1.7m-13.6 13.6-6.05 8.15m6.05-8.15-8.85 5.95m16.1-9 2.9-1.8 9.85-5.95-4.05 7.15-1.45 2.55-2.5 4.5m-4.75-6.45-1.25 5.15-6.05 5.45m10.85-19.45-3.8 2.3-7 9.6m-4.85 16.45 16.85-13.05m-21 3.1-1.45 4.65m28.9-27.7-2 1.2-2.85 1.75m5.7-3.4-0.85 0.45m2.45 4.05-0.9 1.7m-3.55-4.55-9.2 12.3m7.9-15.6-4.35 6.75m11.4 5.4 1.75-9.35-0.1-2.1 1.5-2.7-3.25 1.95-6.95 0.05m4.15 1.65 2.8-1.7m1.75 0.75-2.95 5.45m1.3 6-7.7 5.4" fill="none" stroke="#000" stroke-linecap="round" stroke-linejoin="round" stroke-opacity=".25098" stroke-width=".05"/>
<path d="m353.65 254.9-2.25 6.05 0.5 2.7m15.05-19.45-0.05 2.85-11.35 9.25m4.2-10.5 3-1-0.6 3.2m4.7-0.4 0.05-0.55m5.1-12-2.7-2m-3.05 9.85 15.4-15.3 1.6-6.1 5.85-6.85m-3 9.5 2.95 1.05 0.25 4.35m-14.35 11.75 3.85-6.85m14.9-25.9 3.05 1.45m-1.75 2.15 1 1-7.5 7.5m5.75 2.25 4.65-6.95 0.35 3.45" fill="none" stroke="#fff" stroke-linecap="round" stroke-linejoin="round" stroke-width=".05"/>
<path d="m377.1 244.75q1.75-1.75 1.75-4.25 0.05-2.45-1.75-4.25-1.75-1.75-4.25-1.75-2.45 0.05-4.2 1.8t-1.8 4.2q0 2.5 1.75 4.25 1.8 1.8 4.25 1.75 2.5 0 4.25-1.75" fill="url(#t)" fill-rule="evenodd"/>
<path d="m389.7 221.25h9.1l-5.7-3.4-3.4 3.4" fill="#7096c5" fill-rule="evenodd"/>
<path d="m393.8 224.45 0.5-3.2h-4.6l-4.6 4.6 8.3 1.8 0.4-3.2m-7.95 1.15 7.1 1.5-7.1-1.5" fill="url(#s)" fill-rule="evenodd"/>
<path d="m398.8 221.25 0.6-9.7-6.3 6.3 5.7 3.4m-5-3.5 4.7 2.8-4.7-2.8" fill="url(#r)" fill-rule="evenodd"/>
<path d="m393.8 224.45-0.4 3.2-4.9 2.4 6.4 5.7 1.75-10.05-2.85-1.25m-4.5 5.8 5.05 4.55-5.05-4.55" fill="url(#q)" fill-rule="evenodd"/>
<path d="m394.9 235.75-6.4-5.7-11.25 5.75h4.5l13.15-0.05" fill="#5f83be" fill-rule="evenodd"/>
<path d="m381.75 235.8h-4.5l-2.1 1 5.15 2.85 1.45-3.85m-5.9 1 4.15 2.35-4.15-2.35" fill="url(#p)" fill-rule="evenodd"/>
<path d="m393.4 227.65-8.3-1.8-12 12 2.05-1.05 2.1-1 11.25-5.75 4.9-2.4" fill="#82a4cc" fill-rule="evenodd"/>
<path d="m375.15 236.8-2.05 1.05-2.4 2.4 1.15 0.55 8.45-1.15-5.15-2.85" fill="#608abd" fill-rule="evenodd"/>
<path d="m394.3 221.25-0.5 3.2-0.4 3.2m-8.3-1.8 4.6-4.6h9.1l0.6-9.7-9.7 9.7m4.1 3.2 2.85 1.25-1.75 10.05m-6.4-5.7 4.9-2.4m-11.65 8.15h-4.5l11.25-5.75m-13.35 6.75-2.05 1.05 12-12m-12 12-2.4 2.4 1.15 0.55 8.45-1.15 1.45-3.85 13.15-0.05m-19.75 1.05 2.1-1" fill="none" stroke="#000" stroke-linecap="round" stroke-linejoin="round" stroke-opacity=".26274" stroke-width=".05"/>
<path d="m398.5 220.55-4.7-2.8m-13.8 21.4-4.15-2.35m18.5-2-5.05-4.55m3.65-3.15-7.1-1.5" fill="none" stroke="#fff" stroke-linecap="round" stroke-linejoin="round" stroke-width=".05"/>
<path d="m393.15 217.9-3.4 3.4v-9.1l3.4 5.7" fill="#7096c5" fill-rule="evenodd"/>
<path d="m389.75 216.7v4.6l-4.6 4.6-1.8-8.3 3.2-0.4 3.2-0.5m-4.35 8.45-1.5-7.1 1.5 7.1" fill="url(#o)" fill-rule="evenodd"/>
<path d="m393.25 217.2-2.8-4.7 2.8 4.7m-0.1 0.7-3.4-5.7 9.7-0.6-6.3 6.3" fill="url(#n)" fill-rule="evenodd"/>
<path d="m375.25 216.1 10.05-1.75 1.25 2.85-3.2 0.4-2.4 4.9-5.7-6.4m5.5 5.6-4.55-5.05 4.55 5.05" fill="url(#l)" fill-rule="evenodd"/>
<path d="m375.2 229.25 0.05-13.15 5.7 6.4-5.75 11.25v-4.5" fill="#5f83be" fill-rule="evenodd"/>
<path d="m371.35 230.7 3.85-1.45v4.5l-1 2.1-2.85-5.15m2.85 4.45-2.35-4.15 2.35 4.15" fill="url(#k)" fill-rule="evenodd"/>
<path d="m385.15 225.9-12 12 1.05-2.05 1-2.1 5.75-11.25 2.4-4.9 1.8 8.3" fill="#82a4cc" fill-rule="evenodd"/>
<path d="m373.15 237.9-2.4 2.4-0.55-1.15 1.15-8.45 2.85 5.15-1.05 2.05" fill="#608abd" fill-rule="evenodd"/>
<path d="m389.75 221.3 3.4-3.4m-3.4-5.7v9.1l-19 19-0.55-1.15 1.15-8.45 3.85-1.45 0.05-13.15 10.05-1.75 1.25 2.85 3.2-0.5m0-4.5 9.7-0.6-6.3 6.3m-17.95 11.35v4.5l5.75-11.25 2.4-4.9 3.2-0.4m-12.35 18.65-1.05 2.05m1.05-2.05 1-2.1" fill="none" stroke="#000" stroke-linecap="round" stroke-linejoin="round" stroke-opacity=".26274" stroke-width=".05"/>
<path d="m390.45 212.5 2.8 4.7m-9.35 0.85 1.5 7.1m-9.2-8.5 4.55 5.05m-8.9 9.3 2.35 4.15" fill="none" stroke="#fff" stroke-linecap="round" stroke-linejoin="round" stroke-width=".05"/>
</g>
<radialGradient id="aj" cx="0" cy="0" r="819.2" gradientTransform="matrix(.0119 .0119 -.0119 .0119 446.05 169.5)" gradientUnits="userSpaceOnUse">
<stop stop-color="#a2b7e8" offset="0"/>
<stop stop-color="#a3e2fa" offset=".59608"/>
<stop stop-color="#dbf7fd" offset=".98039"/>
</radialGradient>
<radialGradient id="ai" cx="0" cy="0" r="819.2" gradientTransform="matrix(.0129 .0129 -.0129 .0129 428.85 182)" gradientUnits="userSpaceOnUse">
<stop stop-color="#a2b7e8" offset="0"/>
<stop stop-color="#a3e2fa" offset=".59608"/>
<stop stop-color="#dbf7fd" offset=".98039"/>
</radialGradient>
<radialGradient id="x" cx="0" cy="0" r="819.2" gradientTransform="matrix(.0069 .0069 -.0069 .0069 418.8 188.55)" gradientUnits="userSpaceOnUse">
<stop stop-color="#a2b7e8" offset="0"/>
<stop stop-color="#a3e2fa" offset=".59608"/>
<stop stop-color="#dbf7fd" offset=".98039"/>
</radialGradient>
<radialGradient id="m" cx="0" cy="0" r="819.2" gradientTransform="matrix(.0284 .0284 -.0284 .0284 399.35 204.1)" gradientUnits="userSpaceOnUse">
<stop stop-color="#a2b7e8" offset="0"/>
<stop stop-color="#a3e2fa" offset=".59608"/>
<stop stop-color="#dbf7fd" offset=".98039"/>
</radialGradient>
<radialGradient id="i" cx="0" cy="0" r="819.2" gradientTransform="matrix(.0204 .0204 -.0204 .0204 407.6 206.65)" gradientUnits="userSpaceOnUse">
<stop stop-color="#a2b7e8" offset="0"/>
<stop stop-color="#a3e2fa" offset=".59608"/>
<stop stop-color="#dbf7fd" offset=".98039"/>
</radialGradient>
<radialGradient id="h" cx="0" cy="0" r="819.2" gradientTransform="matrix(.0078 .0078 -.0078 .0078 400.45 215.7)" gradientUnits="userSpaceOnUse">
<stop stop-color="#a2b7e8" offset="0"/>
<stop stop-color="#a3e2fa" offset=".59608"/>
<stop stop-color="#dbf7fd" offset=".98039"/>
</radialGradient>
<radialGradient id="g" cx="0" cy="0" r="819.2" gradientTransform="matrix(.0054 .0054 -.0054 .0054 393.05 211.5)" gradientUnits="userSpaceOnUse">
<stop stop-color="#a2b7e8" offset="0"/>
<stop stop-color="#a3e2fa" offset=".59608"/>
<stop stop-color="#dbf7fd" offset=".98039"/>
</radialGradient>
<radialGradient id="f" cx="0" cy="0" r="819.2" gradientTransform="matrix(.0052 .0052 -.0052 .0052 422.9 190.45)" gradientUnits="userSpaceOnUse">
<stop stop-color="#fff" offset="0"/>
<stop stop-color="#fff" stop-opacity="0" offset="1"/>
</radialGradient>
<radialGradient id="e" cx="0" cy="0" r="819.2" gradientTransform="matrix(-.008 -.008 .008 -.008 404.35 211)" gradientUnits="userSpaceOnUse">
<stop stop-color="#9cb7d6" offset="0"/>
<stop stop-color="#a3e2fa" offset=".4549"/>
</radialGradient>
<radialGradient id="d" cx="0" cy="0" r="819.2" gradientTransform="matrix(-.0072 -.0072 .0072 -.0072 400.2 211.35)" gradientUnits="userSpaceOnUse">
<stop stop-color="#9cb7d6" offset="0"/>
<stop stop-color="#a3e2fa" offset=".4549"/>
</radialGradient>
<radialGradient id="ah" cx="0" cy="0" r="819.2" gradientTransform="matrix(-.0088 -.0088 .0088 -.0088 408.05 211.7)" gradientUnits="userSpaceOnUse">
<stop stop-color="#9cb7d6" offset="0"/>
<stop stop-color="#a3e2fa" offset=".4549"/>
</radialGradient>
<radialGradient id="ag" cx="0" cy="0" r="819.2" gradientTransform="matrix(-.0038 -.0038 .0038 -.0038 418.65 195.1)" gradientUnits="userSpaceOnUse">
<stop stop-color="#9cb7d6" offset="0"/>
<stop stop-color="#a3e2fa" offset=".4549"/>
</radialGradient>
<radialGradient id="af" cx="0" cy="0" r="819.2" gradientTransform="matrix(.008 .008 .008 -.008 400 206.65)" gradientUnits="userSpaceOnUse">
<stop stop-color="#9cb7d6" offset="0"/>
<stop stop-color="#a3e2fa" offset=".4549"/>
</radialGradient>
<radialGradient id="ae" cx="0" cy="0" r="819.2" gradientTransform="matrix(.0072 .0072 .0072 -.0072 399.65 210.8)" gradientUnits="userSpaceOnUse">
<stop stop-color="#9cb7d6" offset="0"/>
<stop stop-color="#a3e2fa" offset=".4549"/>
</radialGradient>
<radialGradient id="ad" cx="0" cy="0" r="819.2" gradientTransform="matrix(.0088 .0088 .0088 -.0088 399.3 202.95)" gradientUnits="userSpaceOnUse">
<stop stop-color="#9cb7d6" offset="0"/>
<stop stop-color="#a3e2fa" offset=".4549"/>
</radialGradient>
<radialGradient id="ac" cx="0" cy="0" r="819.2" gradientTransform="matrix(.0038 .0038 .0038 -.0038 415.9 192.35)" gradientUnits="userSpaceOnUse">
<stop stop-color="#9cb7d6" offset="0"/>
<stop stop-color="#a3e2fa" offset=".4549"/>
</radialGradient>
<radialGradient id="ab" cx="0" cy="0" r="819.2" gradientTransform="matrix(.0119 .0119 .0119 -.0119 351.9 263.65)" gradientUnits="userSpaceOnUse">
<stop stop-color="#a2b7e8" offset="0"/>
<stop stop-color="#a3e2fa" offset=".59608"/>
<stop stop-color="#dbf7fd" offset=".98039"/>
</radialGradient>
<radialGradient id="aa" cx="0" cy="0" r="819.2" gradientTransform="matrix(.0129 .0129 .0129 -.0129 364.4 246.45)" gradientUnits="userSpaceOnUse">
<stop stop-color="#a2b7e8" offset="0"/>
<stop stop-color="#a3e2fa" offset=".59608"/>
<stop stop-color="#dbf7fd" offset=".98039"/>
</radialGradient>
<radialGradient id="z" cx="0" cy="0" r="819.2" gradientTransform="matrix(.0069 .0069 .0069 -.0069 370.95 236.4)" gradientUnits="userSpaceOnUse">
<stop stop-color="#a2b7e8" offset="0"/>
<stop stop-color="#a3e2fa" offset=".59608"/>
<stop stop-color="#dbf7fd" offset=".98039"/>
</radialGradient>
<radialGradient id="y" cx="0" cy="0" r="819.2" gradientTransform="matrix(.0284 .0284 .0284 -.0284 386.5 216.95)" gradientUnits="userSpaceOnUse">
<stop stop-color="#a2b7e8" offset="0"/>
<stop stop-color="#a3e2fa" offset=".59608"/>
<stop stop-color="#dbf7fd" offset=".98039"/>
</radialGradient>
<radialGradient id="w" cx="0" cy="0" r="819.2" gradientTransform="matrix(.0204 .0204 .0204 -.0204 389.05 225.2)" gradientUnits="userSpaceOnUse">
<stop stop-color="#a2b7e8" offset="0"/>
<stop stop-color="#a3e2fa" offset=".59608"/>
<stop stop-color="#dbf7fd" offset=".98039"/>
</radialGradient>
<radialGradient id="v" cx="0" cy="0" r="819.2" gradientTransform="matrix(.0078 .0078 .0078 -.0078 398.1 218.05)" gradientUnits="userSpaceOnUse">
<stop stop-color="#a2b7e8" offset="0"/>
<stop stop-color="#a3e2fa" offset=".59608"/>
<stop stop-color="#dbf7fd" offset=".98039"/>
</radialGradient>
<radialGradient id="u" cx="0" cy="0" r="819.2" gradientTransform="matrix(.0054 .0054 .0054 -.0054 393.9 210.65)" gradientUnits="userSpaceOnUse">
<stop stop-color="#a2b7e8" offset="0"/>
<stop stop-color="#a3e2fa" offset=".59608"/>
<stop stop-color="#dbf7fd" offset=".98039"/>
</radialGradient>
<radialGradient id="t" cx="0" cy="0" r="819.2" gradientTransform="matrix(.0052 .0052 .0052 -.0052 372.85 240.5)" gradientUnits="userSpaceOnUse">
<stop stop-color="#fff" offset="0"/>
<stop stop-color="#fff" stop-opacity="0" offset="1"/>
</radialGradient>
<radialGradient id="s" cx="0" cy="0" r="819.2" gradientTransform="matrix(-.008 -.008 -.008 .008 393.45 221.9)" gradientUnits="userSpaceOnUse">
<stop stop-color="#9cb7d6" offset="0"/>
<stop stop-color="#a3e2fa" offset=".4549"/>
</radialGradient>
<radialGradient id="r" cx="0" cy="0" r="819.2" gradientTransform="matrix(-.0072 -.0072 -.0072 .0072 393.8 217.75)" gradientUnits="userSpaceOnUse">
<stop stop-color="#9cb7d6" offset="0"/>
<stop stop-color="#a3e2fa" offset=".4549"/>
</radialGradient>
<radialGradient id="q" cx="0" cy="0" r="819.2" gradientTransform="matrix(-.0088 -.0088 -.0088 .0088 394.15 225.6)" gradientUnits="userSpaceOnUse">
<stop stop-color="#9cb7d6" offset="0"/>
<stop stop-color="#a3e2fa" offset=".4549"/>
</radialGradient>
<radialGradient id="p" cx="0" cy="0" r="819.2" gradientTransform="matrix(-.0038 -.0038 -.0038 .0038 377.55 236.2)" gradientUnits="userSpaceOnUse">
<stop stop-color="#9cb7d6" offset="0"/>
<stop stop-color="#a3e2fa" offset=".4549"/>
</radialGradient>
<radialGradient id="o" cx="0" cy="0" r="819.2" gradientTransform="matrix(.008 .008 -.008 .008 389.1 217.55)" gradientUnits="userSpaceOnUse">
<stop stop-color="#9cb7d6" offset="0"/>
<stop stop-color="#a3e2fa" offset=".4549"/>
</radialGradient>
<radialGradient id="n" cx="0" cy="0" r="819.2" gradientTransform="matrix(.0072 .0072 -.0072 .0072 393.25 217.2)" gradientUnits="userSpaceOnUse">
<stop stop-color="#9cb7d6" offset="0"/>
<stop stop-color="#a3e2fa" offset=".4549"/>
</radialGradient>
<radialGradient id="l" cx="0" cy="0" r="819.2" gradientTransform="matrix(.0088 .0088 -.0088 .0088 385.4 216.85)" gradientUnits="userSpaceOnUse">
<stop stop-color="#9cb7d6" offset="0"/>
<stop stop-color="#a3e2fa" offset=".4549"/>
</radialGradient>
<radialGradient id="k" cx="0" cy="0" r="819.2" gradientTransform="matrix(.0038 .0038 -.0038 .0038 374.8 233.45)" gradientUnits="userSpaceOnUse">
<stop stop-color="#9cb7d6" offset="0"/>
<stop stop-color="#a3e2fa" offset=".4549"/>
</radialGradient>
<g id="b" transform="translate(5.2,5.2)">
<path d="m-5.2 0q0-2.15 1.55-3.65 1.5-1.55 3.65-1.55t3.65 1.55q1.55 1.5 1.55 3.65 0 2.1-1.55 3.65-1.5 1.55-3.65 1.55t-3.65-1.55q-1.55-1.55-1.55-3.65" fill="#00b8a3" fill-rule="evenodd"/>
<path d="m-2.45 3.3-0.45-0.4-0.6-0.7-0.3-0.55-0.3-1.65q0-1.25 0.6-2.2l0.6-0.7q1.1-1.1 2.75-1.2h0.15l0.7 0.1 1 0.3q0.6 1.05 0.5 1.9l-0.05 1-0.1 0.8-0.5 1.35q-0.35 0.7-1.5 1.3-1.1 0.6-2.5 0.65m1.9-6.4q-0.3 0.05-0.8 0.7l-0.05 0.2 0.25 0.45q1.2 0.4 1.55-0.8l-0.1-0.5-0.85-0.05m-1.85 2.75 0.2-0.35-0.45 0.55 0.25-0.2-0.05 0.05q-0.3 0.7 0.05 1.6 0.45 1.35 1.9 0.95 0.9-0.3 0.9-1.1l-0.5 0.05-0.65 0.2-0.35-0.25q-0.25-0.75 0.35-1.3l0.1-0.1q-0.6-0.75-1.5-0.25l-0.2 0.1-0.05 0.05" fill="url(#j)" fill-rule="evenodd"/>
<path d="m1.7-3.7 0.35 0.15 0.8 0.65q0.75 0.75 1 1.7l0.2 1.2-0.35 1.65-0.45 0.8-0.25 0.25-0.15 0.2-0.6 0.45-0.15 0.15-0.85 0.35-0.15 0.05-0.4 0.1-0.7 0.1h-0.05q-1.35-0.05-2.4-0.8 1.4-0.05 2.5-0.65 1.15-0.6 1.5-1.3l0.5-1.35 0.1-0.8 0.05-1q0.1-0.85-0.5-1.9" fill="#07d9cb" fill-rule="evenodd"/>
<path d="m-0.55-3.1 0.85 0.05 0.1 0.5q-0.35 1.2-1.55 0.8l-0.25-0.45 0.05-0.2q0.5-0.65 0.8-0.7m-1.85 2.75 0.05-0.05 0.2-0.1q0.9-0.5 1.5 0.25l-0.1 0.1q-0.6 0.55-0.35 1.3l0.35 0.25 0.65-0.2 0.5-0.05q0 0.8-0.9 1.1-1.45 0.4-1.9-0.95-0.35-0.9-0.05-1.6l0.05-0.05" fill="#5bfefe" fill-rule="evenodd"/>
<path d="m-2.4-0.35-0.25 0.2 0.45-0.55-0.2 0.35" fill="#2cf7d5" fill-rule="evenodd"/>
<path d="m-2.45 3.3-0.45-0.4-0.6-0.7-0.3-0.55-0.3-1.65q0-1.25 0.6-2.2l0.6-0.7q1.1-1.1 2.75-1.2h0.15l0.7 0.1 1 0.3 0.35 0.15 0.8 0.65q0.75 0.75 1 1.7l0.2 1.2-0.35 1.65-0.45 0.8-0.25 0.25-0.15 0.2-0.6 0.45-0.15 0.15-0.85 0.35-0.15 0.05-0.4 0.1-0.7 0.1h-0.05q-1.35-0.05-2.4-0.8z" fill="none" stroke="#00a3a3" stroke-linecap="round" stroke-linejoin="round" stroke-opacity=".24314" stroke-width=".05"/>
</g>
<radialGradient id="j" cx="0" cy="0" r="819.2" gradientTransform="matrix(.0099 0 0 .0099 -2.1 3.3)" gradientUnits="userSpaceOnUse">
<stop stop-color="#07d9cb" offset="0"/>
<stop stop-color="#34fed7" offset=".60392"/>
<stop stop-color="#56fef9" offset=".98824"/>
</radialGradient>
<g id="a" transform="translate(-394.7,-212.7)">
<path d="m396.55 216.4q-0.75-0.05-1.3-0.6-0.5-0.5-0.55-1.25 0-0.8 0.55-1.35t1.3-0.5q0.8 0 1.3 0.5 0.55 0.55 0.55 1.35 0 0.7-0.55 1.25t-1.3 0.6" fill="#fff" fill-rule="evenodd"/>
</g>
</defs>
</svg>
