<?xml version="1.0" encoding="UTF-8"?>
<svg width="146px" height="81px" version="1.1" viewBox="202.1 160.2 145.75 80.6" xmlns="http://www.w3.org/2000/svg" xmlns:xlink="http://www.w3.org/1999/xlink">
<defs>
<g id="e">
<path d="m347.6 192.95 0.25-0.15-18.45 3.9q-5.65 3.15-5.85 7.05-0.05 1.1 0.5 1.9l3-1.25 1.65 0.6-0.35-1.2 0.15-0.05 19.1-10.8" fill="#d6d9c6"/>
<path d="m324.05 205.65q1.25 1.75 5.35 1.6l18.2-14.3-19.1 10.8-0.15 0.05 0.35 1.2-1.65-0.6-3 1.25" fill="#b1b793"/>
<path d="m324.05 205.65q1.25 1.75 5.35 1.6l18.2-14.3 0.25-0.15-18.45 3.9q-5.65 3.15-5.85 7.05-0.05 1.1 0.5 1.9" fill="none" stroke="#000" stroke-opacity=".30196" stroke-width=".5"/>
<path d="m338.3 187.3 0.25-0.15-18.45 3.9q-5.65 3.15-5.85 7.05-0.05 1.1 0.5 1.9l3-1.25 1.65 0.6-0.35-1.2 0.15-0.05 19.1-10.8" fill="#d6d9c6"/>
<path d="m314.75 200q1.25 1.75 5.35 1.6l18.2-14.3-19.1 10.8-0.15 0.05 0.35 1.2-1.65-0.6-3 1.25" fill="#b1b793"/>
<path d="m338.3 187.3 0.25-0.15-18.45 3.9q-5.65 3.15-5.85 7.05-0.05 1.1 0.5 1.9 1.25 1.75 5.35 1.6l18.2-14.3" fill="none" stroke="#000" stroke-opacity=".30196" stroke-width=".5"/>
<path d="m302.7 236.75-57.85-25.05-0.85-41.5 0.7-0.35 17.9 6.75 9.25-1.95-3 4.25 33.85 12.7v0.75 44.4m-40.1-60.15 6.25 2.3-6.25-2.3" fill="#8b8d7e"/>
<path d="m330.15 180.7 2.95 3.9v33.8l-3.35 5.1-26.55 13.45-0.5-0.2v-44.4l1-0.4 7.35-3.15 0.7-5.15 9.3 0.9 0.75-0.3 8.35-3.55m-19.1 8.1-0.25 1.9 0.25-1.9 10-4.25-10 4.25" fill="#9b9c8f"/>
<path d="m244.7 169.85 26.25-9.65h3.95l53.65 18.35 1.6 2.15-8.35 3.55-0.75 0.3-9.3-0.9-0.7 5.15-7.35 3.15-1-0.35-33.85-12.7 3-4.25-9.25 1.95-17.9-6.75m27.9 4.6-0.75 0.2 0.75-0.2" fill="#c2c4bd"/>
<path d="m302.7 236.75-57.85-25.05-0.85-41.5 0.7-0.35 26.25-9.65m3.95 0 53.65 18.35m4.55 6.05v33.8m-3.35 5.1-26.55 13.45-0.5-0.2v-44.4-0.75l-33.85-12.7-6.25-2.3-17.9-6.75m77.1 14.4 8.35-3.55m-19.1 8.1-7.35 3.15-1 0.4m0-0.75 1 0.35m7.35-3.15 10-4.25" fill="none" stroke="#000" stroke-opacity=".30196" stroke-width=".5"/>
<path d="m262.6 176.6 9.25-1.95 0.75-0.2m38.45 14.35 0.7-5.15 9.3 0.9 0.75-0.3m-11 6.45 0.25-1.9m-42.2-9.9 3-4.25" fill="none" stroke="#ad9d8f" stroke-width=".5"/>
</g>
<g id="d">
<path d="m13.7 18.55-0.25 0.1 13.6-13.15q5.75-2.9 9.15-0.85 0.9 0.6 1.25 1.5l-2.7 1.75-0.4 1.75-0.8-1-0.15 0.05-19.7 9.85" fill="#d6d9c6"/>
<path d="m37.45 6.15q0.75 2-1.7 5.3l-22.05 7.1 19.7-9.85 0.15-0.05 0.8 1 0.4-1.75 2.7-1.75" fill="#b1b793"/>
<path d="m37.45 6.15q0.75 2-1.7 5.3l-22.05 7.1-0.25 0.1 13.6-13.15q5.75-2.9 9.15-0.85 0.9 0.6 1.25 1.5" fill="none" stroke="#000" stroke-opacity=".30196" stroke-width=".5"/>
<path d="m0.25 14.75-0.25 0.1 13.6-13.15q5.75-2.9 9.15-0.85 0.9 0.6 1.25 1.5l-2.7 1.75-0.4 1.75-0.8-1-0.15 0.05-19.7 9.85" fill="#d6d9c6"/>
<path d="m24 2.35q0.75 2-1.7 5.3l-22.05 7.1 19.7-9.85 0.15-0.05 0.8 1 0.4-1.75 2.7-1.75" fill="#b1b793"/>
<path d="m0.25 14.75-0.25 0.1 13.6-13.15q5.75-2.9 9.15-0.85 0.9 0.6 1.25 1.5 0.75 2-1.7 5.3l-22.05 7.1" fill="none" stroke="#000" stroke-opacity=".30196" stroke-width=".5"/>
</g>
<g id="c">
<use xlink:href="#d"/>
</g>
<g id="b">
<path d="m245.55 223.65q1.35-7.7-2.8-11.35l10.8-5.1q1.3 1.6 2 3.2 1.95 4.65-1.8 9.35l-8.2 3.9m-33.25 15.85q-1.5-4.5-4.15-7.65l-2.2-2.2 9.85-4.65q4.1 3 4.3 10.8l-7.8 3.7" fill="#997846"/>
<path d="m253.55 207.2 19.4-9.1q8.8 1.95 4.7 10.3l-23.9 11.35q3.75-4.7 1.8-9.35-0.7-1.6-2-3.2m-47.6 22.45 2.2 2.2q2.65 3.15 4.15 7.65-5.3 1.3-8.9-3.6-1.3-4.65 2.55-6.25" fill="#715833"/>
<path d="m220.1 235.8q-0.2-7.8-4.3-10.8l7.35-3.5q4 3.7 0.55 12.55l-3.6 1.75" fill="#5b4d42"/>
<path d="m232.65 217.05q5.3 2.2 4.95 10.4l-2.6 1.25q-0.2-7.1-6-9.9l3.65-1.75" fill="#766556"/>
<path d="m223.7 234.05q3.45-8.85-0.55-12.55l5.85-2.7q5.8 2.8 6 9.9l-11.3 5.35" fill="#867362"/>
<path d="m232.65 217.05 10.1-4.75q4.15 3.65 2.8 11.35l-7.95 3.8q0.35-8.2-4.95-10.4" fill="#9e8b7a"/>
<path d="m242.75 212.3-10.1 4.75-3.65 1.75-5.85 2.7-7.35 3.5-9.85 4.65q-3.85 1.6-2.55 6.25 3.6 4.9 8.9 3.6l7.8-3.7 3.6-1.75 11.3-5.35 2.6-1.25 7.95-3.8m-2.8-11.35 10.8-5.1 19.4-9.1q8.8 1.95 4.7 10.3l-23.9 11.35-8.2 3.9m-33.25 15.85q-1.5-4.5-4.15-7.65l-2.2-2.2" fill="none" stroke="#000" stroke-opacity=".30196" stroke-width=".5"/>
<path d="m262.9 218.05-0.25 0.1 13.6-13.15q5.75-2.9 9.15-0.85 0.9 0.6 1.25 1.5l-2.7 1.75-0.4 1.75-0.8-1-0.15 0.05-19.7 9.85" fill="#d6d9c6"/>
<path d="m286.65 205.65q0.75 2-1.7 5.3l-22.05 7.1 19.7-9.85 0.15-0.05 0.8 1 0.4-1.75 2.7-1.75" fill="#b1b793"/>
<path d="m286.65 205.65q0.75 2-1.7 5.3l-22.05 7.1-0.25 0.1 13.6-13.15q5.75-2.9 9.15-0.85 0.9 0.6 1.25 1.5" fill="none" stroke="#000" stroke-opacity=".30196" stroke-width=".5"/>
<path d="m275.8 223.55-0.25 0.1 13.6-13.15q5.75-2.9 9.15-0.85 0.9 0.6 1.25 1.5l-2.7 1.75-0.4 1.75-0.8-1-0.15 0.05-19.7 9.85" fill="#d6d9c6"/>
<path d="m299.55 211.15q0.75 2-1.7 5.3l-22.05 7.1 19.7-9.85 0.15-0.05 0.8 1 0.4-1.75 2.7-1.75" fill="#b1b793"/>
<path d="m275.8 223.55-0.25 0.1 13.6-13.15q5.75-2.9 9.15-0.85 0.9 0.6 1.25 1.5 0.75 2-1.7 5.3l-22.05 7.1" fill="none" stroke="#000" stroke-opacity=".30196" stroke-width=".5"/>
</g>
<filter id="a">
<feColorMatrix in="SourceGraphic" result="cxform" values="0.69921875 0.0 0.0 0.0 0.0 0.0 0.69921875 0.0 0.0 0.0 0.0 0.0 0.69921875 0.0 0.0 0.0 0.0 0.0 1.0 0.0"/>
<feComposite in2="SourceGraphic" operator="in" result="color-xform"/>
</filter>
</defs>
<use xlink:href="#e"/>
<use transform="translate(231.25 192.15)" filter="url(#a)" xlink:href="#c"/>
<use xlink:href="#b"/>
</svg>
