<?xml version="1.0" encoding="UTF-8"?>
<svg version="1.1" viewBox="0 0 97 96.4" xmlns="http://www.w3.org/2000/svg" xmlns:cc="http://creativecommons.org/ns#" xmlns:dc="http://purl.org/dc/elements/1.1/" xmlns:rdf="http://www.w3.org/1999/02/22-rdf-syntax-ns#" xmlns:xlink="http://www.w3.org/1999/xlink">
<metadata>
<rdf:RDF>
<cc:Work rdf:about="">
<dc:format>image/svg+xml</dc:format>
<dc:type rdf:resource="http://purl.org/dc/dcmitype/StillImage"/>
</cc:Work>
</rdf:RDF>
</metadata>
<g transform="translate(-226.45 -152.25)">
<use transform="translate(226.45,152.25)" width="97" height="96.400002" xlink:href="#a"/>
</g>
<defs>
<g id="a" transform="translate(-226.45,-152.25)">
<path d="m323.15 177.3 0.05 0.05h-0.1l0.05-0.05" fill="#f5d154" fill-rule="evenodd"/>
<path d="m285.15 212.15h-0.05l0.05-0.05v0.05m-21.7-2.45 0.05 0.05h-0.1l0.05-0.05" fill="#c93" fill-rule="evenodd"/>
<path d="m312.35 195q-0.4 0.95-1.2 1.7l-0.4 0.55-0.15-0.15 1.75-2.1m-67 41.05q-0.75 1-1.9 1.7-6.3 4.3-10.1 10.6-1.7-1-3.1-2.45-1.9-1.75-3.5-3.85 8.3-4.3 12.65-12.85l0.2 1.1 1.15 1.9 1.8 2.1q1.25 1.15 2.8 1.75m40.85-70.5 0.8 1.7-0.15 0.05-0.65-1.75m-6.05 9.45q-0.3 0.65-1.35 0.3v-0.25l1.35-0.05m9.4 11.2 0.5 0.55 0.55 0.9-0.6-0.65-0.65-0.6 0.2-0.2m1.55 5.1q-0.25 1.5-1.45 2.6l-0.45 0.35q1.4-1.25 1.9-2.95m-0.1 12.65h0.25l0.9 0.15-1.15-0.15" fill="#303" fill-rule="evenodd"/>
<path d="m276.8 219.75v0.1l-0.05-0.15 0.05 0.05m35.25-45.75q-0.1-0.2 0.05-0.2l0.15 0.15-0.2 0.05m-46.4 37.7-0.1 0.15-1.45-1.45 1.55 1.3" fill="#deb025" fill-rule="evenodd"/>
<path d="m306.05 165.4-0.45-0.35 0.15-0.05 0.3 0.4m-46.15 38.95 0.2 0.1-0.15 0.05-0.05-0.15m3.5 5.4h0.1l0.45 0.6-0.55-0.6" fill="#a67326" fill-rule="evenodd"/>
<path d="m276.7 175.65 1.1-1.3 1 0.7-2.1 0.6m-5.75 8.2-0.05 0.05-0.1-0.15 0.15 0.1" fill="#712f1c" fill-rule="evenodd"/>
<path d="m285.95 165.4 11.75-12.85q1.4 0.3 2.5 1.05 4.4 2.6 8.45 5.5l-4.4-0.45 6.4 11.35 0.85 0.85 0.3 0.2 0.45 2.9-0.15-0.15q-0.15 0-0.05 0.2-5.35 8-12.6 14.4-6.7 5.9-13.2 12.3-6.8 6.65-13.3 13.55l-1.3-0.1-1.5-0.25-1.65-0.4-1.4-0.75-1.45-1.05-1.55-1.3-0.15-0.05-0.45-0.6-0.05-0.05-2.1-2.15-5.9-8.05 7.35-8.85q0.45 0.35 0.7 0.3 6.7-1.1 7.4-7.05l0.05-0.05 6.45-8.4 1.4-0.4v0.25q1.05 0.35 1.35-0.3l1.95-1.35q3.35-2.2 5.05-6.05l-0.15-0.35-0.8-1.7-0.25-0.15m15.2 32.1-0.2 0.3-2.5-1.25q-0.6-1.95 0.9-2.9l5.15-3.25q-2.35 1.45-3.85 4.65-0.45 0.55-0.6 1.25l1.1 1.2m-34.35 2.35-2.25 1.6q-1.15 3.1 1.35 5.15l1.3 0.95 0.1 0.15 2.95 1.95 4.8 0.15q2.1-2.05 1.85-4.4l-0.6-2-1.15-1.75-0.3-0.35q-2.65-2.95-7.1-2.05l-0.85 0.5-0.1 0.1m22.75-13.65-1.85-1.5q-1.85-0.9-3.95-0.65l-2.15 0.35-0.4 0.45-0.25 0.25-0.15-0.1-2.25 5.6 3.35 3.1 1.2 0.9 1.45 0.7q2.35 0.45 4.65-1.05l0.45-0.35q1.2-1.1 1.45-2.6v-0.3l0.05-0.3q0.25-1 0-1.85l-0.15-0.8-0.4-0.4-0.55-0.9-0.5-0.55m16.5-20.8 4.6 4.6-4.6-4.6-0.3-0.4-0.15 0.05 0.45 0.35m-8.35-12.85q-0.35 1.85 1.05 3.45l3.55 4.6 3.45 4.4-3.45-4.4-3.55-4.6q-1.4-1.6-1.05-3.45m6.15 26.3q3.3-0.35 5.2-2.55 1.1-1.4 1.1-3.1l-0.2-1.6q-0.55-2.1-1.75-3.45-1.65-1.9-4.4-2.6-3.2-0.85-5.35 1.4l-0.5 0.65-3.3 4.65q0 1.4 0.65 2.3 1.3 3.35 4.9 3.45l0.6 0.2 3.05 0.65m-15.45 27.2-4.4 4.25 1.15 1.8-0.05 0.05-2.3-0.15-0.9-1.4q2.15-3.25 6.5-4.55m-28.5-1.7 0.05 0.15 0.15-0.05-0.2-0.1" fill="#766850" fill-rule="evenodd"/>
<path d="m268.55 214.4-23.2 21.65q-1.55-0.6-2.8-1.75l17.6-17q-0.7-2.9 0.05-8.4h-0.15l0.9-0.95 0.4-0.4 2.1 2.15-0.05 0.05 0.55 0.6 0.15 0.05 1.45 1.45 3 2.55m-1.35-6.85-1.3-0.95q-2.5-2.05-1.35-5.15l2.25-1.6-0.4 0.7q-1.25 2.6-0.2 5.5l0.75 1.05 0.25 0.45m15.9-12.95-1.2-0.9-3.35-3.1 2.25-5.6 0.15 0.1q-1.2 2.6-0.65 5.85l1.3 1.9 1.5 1.75m14.05-25.3q-0.5 1.25-0.7 2.7 0 3.8 3 5.35l0.75 0.65q-3.6-0.1-4.9-3.45-0.65-0.9-0.65-2.3l3.3-4.65-0.8 1.7" fill="#574d3c" fill-rule="evenodd"/>
<path d="m308.65 159.1q5.5 6.1 10.7 12.5l3.8 5.7-0.05 0.05-0.7 0.35-12.25 11.65-0.25-0.15-2.05-1.25-3.35 2.45-5.15 3.25q-1.5 0.95-0.9 2.9l2.5 1.25-7.8 7.05-0.85-0.75h-0.15l-0.9-0.15h-0.25l-0.2 0.15-2.4 1.95q-4.35 1.3-6.5 4.55l0.9 1.4 2.3 0.15-8.3 7.6-0.05-0.05-2.85-0.55-5.35-4.75-3-2.55 0.1-0.15 1.45 1.05 1.4 0.75 1.65 0.4 1.5 0.25 1.3 0.1q6.5-6.9 13.3-13.55 6.5-6.4 13.2-12.3 7.25-6.4 12.6-14.4l0.2-0.05-0.45-2.9-0.15-0.2h-0.15l-0.85-0.85-6.4-11.35 4.4 0.45m-38.55 23.7 6.6-7.15 0.7-0.2-6.45 8.4-0.15-0.1-0.7-0.95m52.3-5.1-2.95-1q-4.8-1.95-7.65-5.65 2.85 3.7 7.65 5.65l2.95 1" fill="#ab9c83" fill-rule="evenodd"/>
<path d="m309.75 198.05-1.05 0.5q-1.95 0.7-4.2 0.85-2.05 0.05-3.35-1.9l-1.1-1.2q0.15-0.7 0.6-1.25 1.5-3.2 3.85-4.65l3.35-2.45 2.05 1.25q-0.9 0.35-1.65 1-1.55 1.45-1.55 3.45t1.55 3.4l1.5 1m-16.6 6.8 0.3 0.35q-1.1 0.35-1.95 1.3-1.45 1.6-1.45 3.8 0 2.1 1.35 3.65l-0.55 0.1q-3.4 0.4-5.7-1.9v-0.05l-1.15-1.8 4.4-4.25 2.4-1.95 0.2-0.15 1.15 0.15h0.15l0.85 0.75m-30.35-14.2q-2.1-2.05-2.2-4.4 0.15-1.15 0.55-2.1l0.1 0.1q1.4 1.45 3.35 1.45t3.3-1.45q0.9-0.95 1.25-2.1l0.95 0.65 0.7 0.95 0.1 0.15q-0.7 5.95-7.4 7.05-0.25 0.05-0.7-0.3m15-16.3q-2.6-2.45-2.1-5.8l0.4-1.65 0.2 0.25q1.45 1.45 3.5 1.45t3.5-1.45q1.25-1.25 1.45-2.9l0.65 0.5 0.55 0.65 0.25 0.15 0.65 1.75 0.15-0.05 0.15 0.35q-1.7 3.85-5.05 6.05l-1.95 1.35-1.35 0.05-1-0.7m-10.85 32.75-0.75-1.05q-1.05-2.9 0.2-5.5 0.05 1.65 1.3 2.8 1.3 1.2 3.15 1.2t3.15-1.2l1.15-1.7 1.15 1.75 0.6 2q0.25 2.35-1.85 4.4l-4.8-0.15-2.95-1.95-0.35-0.6m23.65-19.45 0.4 0.4 0.15 0.8q0.25 0.85 0 1.85l-0.05 0.3v0.3q-0.5 1.7-1.9 2.95-2.3 1.5-4.65 1.05l-1.45-0.7-1.5-1.75-1.3-1.9q-0.55-3.25 0.65-5.85l0.25-0.25-0.1 0.95q0 2.15 1.3 3.65 1.35 1.55 3.2 1.55t3.15-1.55q0.95-1.05 1.25-2.45l0.6 0.65m17.6-19.5q1.2 1.35 1.75 3.45l0.2 1.6q0 1.7-1.1 3.1-1.9 2.2-5.2 2.55l-3.05-0.65-0.6-0.2-0.75-0.65q-3-1.55-3-5.35 0.2-1.45 0.7-2.7l1.1 1.6q1.75 1.8 4.2 1.8t4.15-1.8q1.2-1.2 1.6-2.75" fill="#ddaa4d" fill-rule="evenodd"/>
<path d="m310.15 189.35 2.15 4.75 0.05 0.9-1.75 2.1 0.15 0.15-1 0.8-1.5-1q-1.55-1.4-1.55-3.4t1.55-3.45q0.75-0.65 1.65-1l0.25 0.15m-16.7 15.85 0.8 0.9 1.1 4.2q-1.2 2.95-3.95 3.65-1.35-1.55-1.35-3.65 0-2.2 1.45-3.8 0.85-0.95 1.95-1.3m-32.3-21.05 0.35-0.75q0.5-1 1.35-1.25 2.45-0.65 5-0.85l1.3 0.85q-0.35 1.15-1.25 2.1-1.35 1.45-3.3 1.45t-3.35-1.45l-0.1-0.1m14.95-17.25q1.05-2.95 4.65-3.5 2.25-0.35 4 0.85-0.2 1.65-1.45 2.9-1.45 1.45-3.5 1.45t-3.5-1.45l-0.2-0.25m-9.7 33.65 0.4-0.7 0.1-0.1 0.85-0.5q4.45-0.9 7.1 2.05l0.3 0.35-1.15 1.7q-1.3 1.2-3.15 1.2t-3.15-1.2q-1.25-1.15-1.3-2.8m14.8-15.7 0.4-0.45 2.15-0.35q2.1-0.25 3.95 0.65l1.85 1.5-0.2 0.2 0.65 0.6q-0.3 1.4-1.25 2.45-1.3 1.55-3.15 1.55t-3.2-1.55q-1.3-1.5-1.3-3.65l0.1-0.95m27-16.7q-0.4 1.55-1.6 2.75-1.7 1.8-4.15 1.8t-4.2-1.8l-1.1-1.6 0.8-1.7 0.5-0.65q2.15-2.25 5.35-1.4 2.75 0.7 4.4 2.6" fill="#e7c27e" fill-rule="evenodd"/>
<path d="m239.6 230.3 20.45-21.4h0.15q-0.75 5.5-0.05 8.4l-17.6 17-1.8-2.1-1.15-1.9" fill="#746650" fill-rule="evenodd"/>
<path d="m323.15 177.3 0.05 0.05m-0.1 0-0.7 0.35m-11.65 19.55-1 0.8m-8.6-0.55-0.2 0.3m-7.8 7.05 0.3 0.35m-8.3 6.95h-0.05m-8.3 7.6v0.1m-15.85-11.9 0.4-0.4m15.35-31.9 1.1-1.3m33.7-3.5-5.45-5.45-0.45-0.35m0.15-0.05-3.45-4.4-3.55-4.6q-1.4-1.6-1.05-3.45m13.8 18.3 0.3 0.2q2.85 3.7 7.65 5.65l2.95 1m-22.95-0.35 0.75 0.65m-34.65 33.85 3 2.55m37.5-49-0.3-0.4m-14.75 38.95h0.25m0.9 0.15h0.15m-1.3-0.15-0.2 0.15m-6.8 6.2 1.15 1.8v0.05m7-8.05-1.15-0.15m-51.4 26.35 1.15 1.9 1.8 2.1q1.25 1.15 2.8 1.75m18.15-26.3-0.05-0.05-2.1-2.15m2.6 2.8 0.15 0.05 1.45 1.45m-1.6-1.5-0.55-0.6" fill="none" stroke="#000" stroke-linecap="round" stroke-linejoin="round" stroke-width=".05"/>
<path d="m278.8 175.05 1.35-0.05m-2.75 0.45-0.7 0.2m-6.45 34-2.95-1.95m33.5-29.5 3.05 0.65m-5.4-11.9-0.5 0.65" fill="none" stroke="#000" stroke-linecap="round" stroke-linejoin="round" stroke-width=".05"/>
<path d="m285.95 165.4 11.75-12.85q1.4 0.3 2.5 1.05 4.4 2.6 8.45 5.5 5.5 6.1 10.7 12.5l3.8 5.7m-0.75 0.4-12.25 11.65 2.15 4.75 0.05 0.9q-0.4 0.95-1.2 1.7l-0.4 0.55m-1 0.8-1.05 0.5q-1.95 0.7-4.2 0.85-2.05 0.05-3.35-1.9m-0.2 0.3-7.8 7.05m0.3 0.35 0.8 0.9 1.1 4.2q-1.2 2.95-3.95 3.65l-0.55 0.1q-3.4 0.4-5.7-1.9m-0.05 0-8.3 7.6m-0.05-0.05-2.85-0.55-5.35-4.75-23.2 21.65q-0.75 1-1.9 1.7-6.3 4.3-10.1 10.6-1.7-1-3.1-2.45-1.9-1.75-3.5-3.85 8.3-4.3 12.65-12.85l0.2 1.1 20.45-21.4m1.3-1.35-5.9-8.05 7.35-8.85q-2.1-2.05-2.2-4.4 0.15-1.15 0.55-2.1l0.35-0.75q0.5-1 1.35-1.25 2.45-0.65 5-0.85l1.3 0.85 0.95 0.65 6.6-7.15m1.1-1.3q-2.6-2.45-2.1-5.8l0.4-1.65q1.05-2.95 4.65-3.5 2.25-0.35 4 0.85l0.65 0.5 0.55 0.65" fill="none" stroke="#000" stroke-linecap="round" stroke-linejoin="round" stroke-opacity=".6" stroke-width=".6"/>
</g>
</defs>
</svg>
