<?xml version="1.0" encoding="UTF-8"?>
<svg version="1.1" viewBox="0 0 76.3 133.9" xmlns="http://www.w3.org/2000/svg" xmlns:cc="http://creativecommons.org/ns#" xmlns:dc="http://purl.org/dc/elements/1.1/" xmlns:rdf="http://www.w3.org/1999/02/22-rdf-syntax-ns#" xmlns:xlink="http://www.w3.org/1999/xlink">
<metadata>
<rdf:RDF>
<cc:Work rdf:about="">
<dc:format>image/svg+xml</dc:format>
<dc:type rdf:resource="http://purl.org/dc/dcmitype/StillImage"/>
</cc:Work>
</rdf:RDF>
</metadata>
<g transform="translate(-236.8,-133)">
<use transform="translate(236.8,133)" width="76.300003" height="133.89999" xlink:href="#a"/>
</g>
<defs>
<g id="a" transform="translate(-236.8,-133)">
<path d="m304.25 144.6 6.45-8.8 0.05-0.05 2.25 1.7q-33.45 66.3-68.4 129.35-2.35-0.7-4.2-1.8 34.7-59.2 63.85-120.4" fill="#958f24" fill-rule="evenodd"/>
<path d="m304.25 144.6 4.25-10.1q0.65 2 2.2 1.3l-6.45 8.8" fill="#817b1f" fill-rule="evenodd"/>
<path d="m308.5 134.5-4.25 10.1q-29.15 61.2-63.85 120.4-2-1.25-3.5-2.95 36.7-62.95 67.5-128.95 2.55 0.6 4.1 1.4" fill="url(#c)" fill-rule="evenodd"/>
<path d="m310.7 135.8q-1.55 0.7-2.2-1.3-1.55-0.8-4.1-1.4-30.8 66-67.5 128.95 1.5 1.7 3.5 2.95m70.3-129.2 0.05-0.05 2.25 1.7q-33.45 66.3-68.4 129.35-2.35-0.7-4.2-1.8" fill="none" stroke="#000" stroke-linecap="round" stroke-linejoin="round" stroke-opacity=".30196" stroke-width=".2"/>
<path d="m266.7 203.9 3.3-5.55 0.75 1 5.85 7.7 0.55 0.75-1 1.9-7.75-3.55-1.7-2.25m6.05-3.75 8.25 3.3-3.6 2.9-4.65-6.2m2.9 10.5-3.2 6.25-8.75-7.25 1.65-2.3 1.9 0.65 8.4 2.65m-18.2 10.75 1.55-3.6 11.25 4.35-2.45 4.75-10.35-5.5m-2.75 8.4 5.95 8.6 0.65 0.9-2.6 5-9.5-9.1 4.4-6.95 1.1 1.55m6.9 7.15-4.9-6.7 8.15 1.65-3.25 5.05m-13.9 3.9 5.2 5.35 3 3.1-2.05 3.45-9.05-5.85 2.9-6.05m-5.55 11.6 1.5-1.7 5.1 3.5-6.6-1.8" fill="#e4d7b6" fill-rule="evenodd"/>
<path d="m270.75 199.35 2 0.8 4.65 6.2-0.8 0.7-5.85-7.7m5.4 10.35-0.5 0.95-8.4-2.65-1.35-2.75 0.8-1.35 1.7 2.25 7.75 3.55m-3.7 7.2-0.9 1.7-8.45-8.2 0.6-0.75 8.75 7.25m-4.65 10-0.9 1.65-9.7-6.65 0.25-0.5 10.35 5.5m-7.15 11.5-5.95-8.6 2 0.45 4.9 6.7-0.95 1.45m-11.45-3.2 9.5 9.1-1 1.95-0.65-0.65-4.15 0.6-5.2-5.35 0.5-4.1 1-1.55m-4.4 11.7 9.05 5.85-1 1.7-0.95-0.65-0.6 2.95-10.5-2.8 1.35-1.5 6.6 1.8-5.1-3.5 1.5-1.7-1.05-0.75 0.7-1.4m3.4-10.15 8.85 8.85-8.85-8.85m-3.05 12.3 6.75 4.75-6.75-4.75" fill="#d8c696" fill-rule="evenodd"/>
<path d="m266.7 203.9 3.3-5.55 0.75 1 10.25 4.1-3.6 2.9-0.8 0.7 0.55 0.75-1.5 2.85-3.2 6.25-0.9 1.7-8.45-8.2 0.6-0.75 1.65-2.3 1.9 0.65-1.35-2.75 0.8-1.35m-9.25 17.5 1.55-3.6 11.25 4.35-2.45 4.75-0.9 1.65-9.7-6.65 0.25-0.5m-2.75 8.4 5.95 8.6 0.95-1.45 3.25-5.05-8.15-1.65-2-0.45-1.1-1.55-4.4 6.95m9.5 9.1 2.6-5-0.65-0.9m-12.95 2.45 0.5-4.1 1-1.55m3.7 11-5.2-5.35-2.9 6.05m9.05 5.85 2.05-3.45-3-3.1 4.15-0.6-8.85-8.85m-4.55 14 1.5-1.7-1.05-0.75 0.7-1.4m13.9-2.6-1 1.95-0.65-0.65m-14.9 6.85 1.5-1.7m-1.5 1.7-1.35 1.5 10.5 2.8 0.6-2.95-6.75-4.75m22.1-41.05 8.4 2.65m-4.9-11.3 5.85 7.7m-22.75 45.7-1 1.7-0.95-0.65" fill="none" stroke="#000" stroke-linecap="round" stroke-linejoin="round" stroke-opacity=".30196" stroke-width=".2"/>
<path d="m261.5 218.45v35l-6.9 1.3-4.9-11.8-3.3 15.65-2.95-1.2 3.8-23.6h3.75l5.8 10.25 1.8-24.5 2.9-1.1" fill="url(#b)" fill-rule="evenodd"/>
<path d="m243.45 257.4-1.4-0.6 3.8-24.85h6.4l3.35 6.9 1.05-21.75 4.85-1.3v2.65l-2.9 1.1-1.8 24.5-5.8-10.25h-3.75l-3.8 23.6" fill="#ccc" fill-rule="evenodd"/>
<path d="m243.45 257.4-1.4-0.6 3.8-24.85h6.4l3.35 6.9 1.05-21.75 4.85-1.3v37.65l-6.9 1.3-4.9-11.8-3.3 15.65z" fill="none" stroke="#000" stroke-linecap="round" stroke-linejoin="round" stroke-opacity=".30196" stroke-width=".2"/>
<path d="m252.2 236.2 0.15 0.9q0 0.95-0.7 1.65t-1.65 0.7-1.65-0.7l-0.1-0.1q3.05 0.75 3.95-2.45" fill="#999" fill-rule="evenodd"/>
<path d="m248.25 238.65q-0.6-0.65-0.6-1.55 0-0.95 0.7-1.65t1.65-0.7 1.65 0.7l0.55 0.75q-0.9 3.2-3.95 2.45" fill="#ccc" fill-rule="evenodd"/>
<path d="m252.2 236.2 0.15 0.9q0 0.95-0.7 1.65t-1.65 0.7-1.65-0.7l-0.1-0.1q-0.6-0.65-0.6-1.55 0-0.95 0.7-1.65t1.65-0.7 1.65 0.7z" fill="none" stroke="#000" stroke-linecap="round" stroke-linejoin="round" stroke-opacity=".30196" stroke-width=".2"/>
<path d="m258.85 245.9 0.15 0.9q0 0.95-0.7 1.65t-1.65 0.7-1.65-0.7l-0.1-0.1q3.05 0.75 3.95-2.45" fill="#999" fill-rule="evenodd"/>
<path d="m254.9 248.35q-0.6-0.65-0.6-1.55 0-0.95 0.7-1.65t1.65-0.7 1.65 0.7l0.55 0.75q-0.9 3.2-3.95 2.45" fill="#ccc" fill-rule="evenodd"/>
<path d="m258.85 245.9 0.15 0.9q0 0.95-0.7 1.65t-1.65 0.7-1.65-0.7l-0.1-0.1q-0.6-0.65-0.6-1.55 0-0.95 0.7-1.65t1.65-0.7 1.65 0.7z" fill="none" stroke="#000" stroke-linecap="round" stroke-linejoin="round" stroke-opacity=".30196" stroke-width=".2"/>
</g>
<linearGradient id="c" x1="-819.2" x2="819.2" gradientTransform="matrix(.0408 -.0651 .0082 .0051 274.55 195.55)" gradientUnits="userSpaceOnUse">
<stop stop-color="#9d9726" offset="0"/>
<stop stop-color="#b8ad34" offset="1"/>
</linearGradient>
<linearGradient id="b" x1="-819.2" x2="819.2" gradientTransform="matrix(.0036 -.0135 .0122 .0033 254.1 241)" gradientUnits="userSpaceOnUse">
<stop stop-color="#999" offset="0"/>
<stop stop-color="#aeaeae" offset="1"/>
</linearGradient>
</defs>
</svg>
