<?xml version="1.0" encoding="UTF-8"?>
<svg version="1.1" viewBox="0 0 37.7 44.079" xmlns="http://www.w3.org/2000/svg" xmlns:cc="http://creativecommons.org/ns#" xmlns:dc="http://purl.org/dc/elements/1.1/" xmlns:rdf="http://www.w3.org/1999/02/22-rdf-syntax-ns#" xmlns:xlink="http://www.w3.org/1999/xlink">
<metadata>
<rdf:RDF>
<cc:Work rdf:about="">
<dc:format>image/svg+xml</dc:format>
<dc:type rdf:resource="http://purl.org/dc/dcmitype/StillImage"/>
</cc:Work>
</rdf:RDF>
</metadata>
<g transform="translate(-256.32 -179.3)">
<use transform="translate(256.35,179.3)" width="37.650002" height="44.049999" xlink:href="#a"/>
</g>
<defs>
<g id="a">
<use width="37.650002" height="44.049999" xlink:href="#b"/>
</g>
<g id="b">
<path d="m13.25 20.75q1.3-1.05 4.85-8.95 1.8-4.1 4.4-7.6l0.5-0.65q2.35-3.1 3.45-3.3 3.9-0.8 11.2 1.2-1.8 0.55-4.3 1.85 2.9-2.2-0.3-1.95-1.5 0.05-2.45 0.9l-1.45 1.45q3.5-4.35-3.7-1.4l0.85 0.15q-0.7 0.4-1.6 1.35l-1.5-0.25 1 0.75-0.25 0.3-0.2 0.3-0.95 0.15 0.55 0.35q-3.4 4.5-8.65 15.2l-1.45 0.15" fill="#e9f2f3" fill-rule="evenodd"/>
<path d="m29.15 3.7 1.45-1.45q0.95-0.85 2.45-0.9 3.2-0.25 0.3 1.95-6.3 3.45-9.15 7.1-2.85 3.6-4.1 8.1t-0.8 5.05l-0.05 0.05-0.4-1.05 0.05-0.15q-0.05-3.2 1.05-7 1.45-3.55 3.45-5.9l5.75-5.8" fill="#62a3ac" fill-rule="evenodd"/>
<path d="m14.7 20.6q5.25-10.7 8.65-15.2l-0.55-0.35 0.95-0.15 0.2-0.3 0.25-0.3-1-0.75 1.5 0.25q0.9-0.95 1.6-1.35l-0.85-0.15q7.2-2.95 3.7 1.4l-5.75 5.8q-2 2.35-3.45 5.9-0.55 1.5-1.5 2.8-1.35 1.95-3.75 2.4m4.6 2.95 0.05 0.05h-0.1l0.05-0.05m-7.45 9.7 0.05 0.05-0.05-0.05" fill="#acd1d2" fill-rule="evenodd"/>
<path d="m13.25 20.75 1.45-0.15q2.4-0.45 3.75-2.4 0.95-1.3 1.5-2.8-1.1 3.8-1.05 7l-0.05 0.15 0.4 1.05 0.2 0.35 0.25 0.3 1.05 0.35 1.4 0.1 1.2-0.15 0.4-0.1 0.15-0.1 0.65 1.4-1.55 0.35h-0.7l-1.9-0.1-0.35-0.1-2.2-0.8-0.85-0.45-3.15-1.45-0.85-0.4h-0.05l-0.15-0.1-0.45-0.15-1.45-0.15-1.6 0.25-1.1 0.4-0.7-1.35 1.65-0.65 1.1-0.25 1.35-0.05h1.65m-6.95 21.6 0.4 0.4-1.35 1.3-5.35-5.55 1.35-1.3 0.45 0.45v0.05l2.55 2.6 1.95 2.05m10.95-20.1 0.25-0.1 0.5-0.55 0.05-0.7-0.25-0.45 0.2-0.6-0.45 0.55-0.4 0.05q-0.3 0.2-0.45 0.55-0.2 0.35-0.1 0.7v0.1l-0.6 1.25 0.7 0.35 0.55-1.15m-0.65-1.7-0.8 0.6q-0.8 0.65-2.05 0.7l1.65 0.95 0.3-0.45 0.9-1.8m0.95 2.65-0.2 0.35 0.95 0.5-0.25-0.6 0.2-1.75v-0.4l-0.7 1.9" fill="#151515" fill-rule="evenodd"/>
<path d="m6.8 40.6 0.4 0.4-0.2 0.3-1.5-1.55-1.15 0.55-2.55-2.6 1.25-0.85 0.2 0.25 1.25 1.25 1.2 1.15 1.1 1.1m5.15-14.1-0.45-0.3 0.7-1.1 0.25-0.6 0.15-0.3 2.5 1.7q0.5 0.7 0.15 1.45-0.7 0.55-1.25 0.5l-0.55-0.35-0.1-0.05-0.6-0.4-0.8-0.55" fill="#b40101" fill-rule="evenodd"/>
<path d="m17.85 25.1-0.35 0.7-2.15 2.95-0.55-0.35-0.8-0.55q0.55 0.05 1.25-0.5 0.35-0.75-0.15-1.45l-2.5-1.7 0.05-0.1 0.3-0.9 0.05-0.4 0.85 0.4 3.15 1.45 0.85 0.45m-10.85 16.2-0.7 1.05-1.95-2.05 1.15-0.55 1.5 1.55" fill="#780101" fill-rule="evenodd"/>
<path d="m17.8 20.45 0.25 0.45-0.05 0.7-0.5 0.55-0.25 0.1 0.55-1.8m-1.2 1.35v-0.1q-0.1-0.35 0.1-0.7 0.15-0.35 0.45-0.55l0.4-0.05-0.6 0.65-0.35 0.75" fill-rule="evenodd"/>
<path d="m3.25 37.1 0.8-0.75q-0.2 0.55 0.25 1.45l0.2 0.55-1.25-1.25m5.4-5.8 0.25-0.3 0.85-1.15q-0.1 0.5 0.25 1.25l0.55 1.2 0.15 0.35-1.3 2.05-0.15-0.55-0.45-1.35q-0.35-1.05-0.15-1.5m8.6-9.05-0.55 1.15-0.7-0.35 0.6-1.25 0.35-0.75 0.6-0.65 0.45-0.55-0.2 0.6-0.55 1.8m-0.65-1.7-0.9 1.8-0.3 0.45-1.65-0.95q1.25-0.05 2.05-0.7l0.8-0.6m0.95 2.65 0.7-1.9v0.4l-0.2 1.75 0.25 0.6-0.95-0.5 0.2-0.35m-0.9 12h-0.05l0.05-0.05v0.05" fill="#c2c105" fill-rule="evenodd"/>
<path d="m14.8 28.4-1.05 1.85 0.05-0.65v-0.15l-0.6-1.45-0.05-0.1-0.4-0.85 0.6 0.4 0.1 0.05 0.55 0.35 0.8 0.55" fill="#292601" fill-rule="evenodd"/>
<path d="m4.05 36.35 0.35-0.3 1.3-1.35q-0.2 0.5 0.1 1.3l0.15 0.25 0.55 1.3 0.3 0.65-1.1 1.3-1.2-1.15-0.2-0.55q-0.45-0.9-0.25-1.45m2.55-2.6 0.25-0.25 0.9-1.05 0.2-0.25q-0.3 0.45 0.1 1.6l0.4 1.4 0.2 0.6-1 1.3-0.25-0.5-0.6-1.25-0.05-0.15q-0.4-0.9-0.15-1.45m3.15-3.9 0.3-0.4 0.35-0.55q-0.15 0.5 0.25 1.3l0.55 1.2 0.1 0.25-0.6 1-0.15-0.35-0.55-1.2q-0.35-0.75-0.25-1.25m1.4-2.1 0.1-0.1 0.15-0.25 1.5 1.3-0.85 1.65-0.15-0.2-0.5-1.1q-0.45-0.9-0.25-1.3" fill="#8d8d03" fill-rule="evenodd"/>
<path d="m13.75 30.25-1.2 1.95v-0.35l-0.4-1.25-0.1-0.25 0.85-1.65-1.5-1.3v-0.05l0.55-0.85 0.8 0.55 0.4 0.85 0.05 0.1 0.6 1.45v0.15l-0.05 0.65m-1.85 3.05-0.35 0.55-0.35 0.5v-0.2l-0.5-1.5 0.6-1 0.55 1.6 0.05 0.05m-3 4.5-0.2 0.2-0.6 0.85v-0.2l-0.45-1.55 1-1.3 0.3 1.5-0.05 0.5m-1.95 2.55v0.05l-0.15 0.2-1.1-1.1 1.1-1.3 0.35 1.35-0.2 0.8" fill="#474601" fill-rule="evenodd"/>
<path d="m5.7 34.7 0.3-0.25 0.6-0.7q-0.25 0.55 0.15 1.45l0.05 0.15 0.6 1.25 0.25 0.5-0.85 1.1-0.3-0.65-0.55-1.3-0.15-0.25q-0.3-0.8-0.1-1.3m2.25-2.5 0.15-0.2 0.55-0.7q-0.2 0.45 0.15 1.5l0.45 1.35 0.15 0.55-0.75 1.1-0.2-0.6-0.4-1.4q-0.4-1.15-0.1-1.6m2.45-3.3 0.3-0.4 0.45-0.75q-0.2 0.4 0.25 1.3l0.5 1.1 0.15 0.2-0.75 1.3-0.1-0.25-0.55-1.2q-0.4-0.8-0.25-1.3" fill="#e6e406" fill-rule="evenodd"/>
<path d="m12.55 32.2-0.15 0.3-0.5 0.8-0.05-0.05-0.55-1.6 0.75-1.3 0.1 0.25 0.4 1.25v0.35m-2.85 4.4-0.25 0.35-0.55 0.8v0.05l0.05-0.5-0.3-1.5 0.75-1.1 0.35 1.6-0.05 0.3" fill="#838201" fill-rule="evenodd"/>
<path d="m11.2 34.35-1.5 2.25 0.05-0.3-0.35-1.6 1.3-2.05 0.5 1.5v0.2m-3.1 4.5-0.35 0.45-0.8 1.05 0.2-0.8-0.35-1.35 0.85-1.1 0.45 1.55v0.2" fill="#6b6b01" fill-rule="evenodd"/>
<path d="m33.35 3.3q2.5-1.3 4.3-1.85-7.3-2-11.2-1.2-1.1 0.2-3.45 3.3l-0.5 0.65q-2.6 3.5-4.4 7.6-3.55 7.9-4.85 8.95l1.45-0.15q2.4-0.45 3.75-2.4 0.95-1.3 1.5-2.8-1.1 3.8-1.05 7l-0.05 0.15 0.4 1.05 0.2 0.35 0.25 0.3 1.05 0.35 1.4 0.1 1.2-0.15 0.4-0.1 0.15-0.1 0.65 1.4-1.55 0.35h-0.7l-1.9-0.1-0.35-0.1-2.2-0.8-0.35 0.7-2.15 2.95-0.55-0.35-1.05 1.85-1.2 1.95-0.15 0.3-0.5 0.8-0.35 0.55-0.35 0.5-1.5 2.25-0.25 0.35-0.55 0.8v0.05l-0.2 0.2-0.6 0.85-0.35 0.45-0.8 1.05v0.05l-0.15 0.2 0.4 0.4-0.9 1.35 0.4 0.4-1.35 1.3m28-40.75q-6.3 3.45-9.15 7.1-2.85 3.6-4.1 8.1t-0.8 5.05l0.05 0.05m-19.35 14.9 1.35-1.3 0.45 0.45v0.05l1.25-0.85 0.2 0.25 0.8-0.75 0.35-0.3 1.3-1.35 0.3-0.25 0.6-0.7 0.25-0.25 0.9-1.05 0.2-0.25 0.15-0.2 0.55-0.7 0.25-0.3 0.85-1.15 0.3-0.4 0.35-0.55 0.3-0.4 0.45-0.75 0.1-0.1 0.15-0.25m0-0.05 0.55-0.85-0.45-0.3 0.7-1.1 0.25-0.6 0.2-0.4 0.3-0.9 0.05-0.4h-0.05l-0.15-0.1-0.45-0.15-1.45-0.15-1.6 0.25-1.1 0.4-0.7-1.35 1.65-0.65 1.1-0.25 1.35-0.05h1.65m0.6 2.45-0.85-0.4m0.45 4.7 0.55 0.35 0.8 0.55m-2.05-1.35 0.6 0.4m-1.4-0.95 0.8 0.55m-0.9 6.2 0.05 0.05m-0.05-0.05 0.05 0.05m-6.2 6.2 1.1 1.1m-5-2.9 2.55 2.6 1.95 2.05m-1.8-4 1.2 1.15m-2.45-2.4 1.25 1.25m12.5-13.7 0.85 0.45" fill="none" stroke="#000" stroke-linecap="round" stroke-linejoin="round" stroke-opacity=".51372" stroke-width=".05"/>
<path d="m19.95 15.4q1.45-3.55 3.45-5.9l5.75-5.8" fill="none" stroke="#e9f2f3" stroke-linecap="round" stroke-linejoin="round" stroke-width=".05"/>
<path d="m12.75 27.05 0.4 0.85 0.05 0.1 0.6 1.45v0.15l-0.05 0.65m-6.1 6.85 0.45 1.55v0.2" fill="none" stroke="#343301" stroke-linecap="round" stroke-linejoin="round" stroke-width=".05"/>
</g>
</defs>
</svg>
