<?xml version="1.0" encoding="UTF-8"?>
<svg version="1.1" viewBox="0 0 108.6 105.1" xmlns="http://www.w3.org/2000/svg" xmlns:cc="http://creativecommons.org/ns#" xmlns:dc="http://purl.org/dc/elements/1.1/" xmlns:rdf="http://www.w3.org/1999/02/22-rdf-syntax-ns#" xmlns:xlink="http://www.w3.org/1999/xlink">
<metadata>
<rdf:RDF>
<cc:Work rdf:about="">
<dc:format>image/svg+xml</dc:format>
<dc:type rdf:resource="http://purl.org/dc/dcmitype/StillImage"/>
</cc:Work>
</rdf:RDF>
</metadata>
<g transform="translate(-17.5 -2.7)">
<use transform="translate(17.5,2.7)" width="108.6" height="105.1" xlink:href="#a"/>
</g>
<defs>
<g id="a" transform="translate(-17.5,-2.7)">
<path d="m121 22.85 0.15 0.35-17.35 12.55-14.35 12.95-0.35-0.3 10.05-11.65-0.55-0.95q11.15-6.95 22.4-12.95" fill="#efb1b1" fill-rule="evenodd"/>
<path d="m81.95 54.7-2.25 1.85q-5.4-4.2-7.6-3.05l2.2-1.55 0.1-0.05q6.25 3.15 7.55 2.8m-6.75 5.5-2.7 2.2q-5.55-2.95-10.8-1.15l4.55-3.45q5.85 3.4 8.95 2.4" fill="#fff" fill-rule="evenodd"/>
<path d="m69.55 64.85 0.7-0.35-0.35 0.5-15.85 13 1.4 1.95 1.5 2.35 0.15 0.25 1.05 2-0.3 0.1 0.3-0.1 0.1 0.15v-0.05h0.05l0.55-0.5 1.1-0.55q2.2 4 2.3 7.6-5.9 5.15-12.15 9.1l3.35-5.3-1.3-3.75 3.7 0.4-4.6-3.4-3.65-2.7-1.65-1.25-1.1-1.75 1.1 1.75 1.65 1.25-2.95 2.35q-1.2-0.4-1.85-1.3-0.5-0.75-0.6-1.9l2.65-2.15-4.3-9.4-0.4 3.7-3.35-2.05-3.7 1.4q3.65-4.35 8.55-8.05l2.75 1.9 3.6 2.3-0.05 0.05 0.15 0.1 1 0.85 1.9 1.65 0.05 0.1 2.5 2.65 16-12.9m-9.4 23.8-1.9-4 1.9 4m-12.15-16.35v0.05-0.05m-9.25 17.45 0.65 0.75 0.9 0.75q-5.55 5.8-13.35 11.05l-1.1-1.05-0.65-0.7q6.3-6.8 13.55-10.8" fill="#2b2b2b" fill-rule="evenodd"/>
<path d="m42.2 84.7q0.1 1.15 0.6 1.9l0.5 2.65q-1.7-1.65-3.05-3.75 1.35 2.1 3.05 3.75l0.05 0.45-0.05-0.45 0.25 0.3-0.2 0.15-2.35 2.2-0.7-0.65-0.9-0.75-0.65-0.75-0.95-1.35-0.2-0.35-0.2-0.3 2.85-2.25-1.1-1.8-0.55-1.05 0.55 1.05-2.65 2.25-0.45-1.25 2.55-2.05h0.05q1.6 0.05 3.45 2.15l0.1-0.1m-18.35 15 0.65 1.45-2.05 2-0.25 0.15-0.35-0.5v-0.05l-0.8-1.45v-0.15l-0.3-1.05 0.1-0.1 1.55 0.9 1.45-1.2" fill="#c92525" fill-rule="evenodd"/>
<path d="m42.8 86.6q0.65 0.9 1.85 1.3h0.2q1.05 1.9 1.3 3.7l-0.1 0.05-2.5-2.1 2.5 2.1-2.45 2q-1.4-0.7-2.6-1.75l2.35-2.2 0.2-0.15-0.25-0.3-0.5-2.65m-18.3 14.55q0.7 1.1 1.8 1.6l-1.5 0.85 0.75 1.85-0.15 0.05q-1.35-0.2-2.85-1.8l-0.2-0.2-0.15-0.2 0.25-0.15 2.05-2" fill="#6b1414" fill-rule="evenodd"/>
<path d="m48 72.35-3.6-2.3-2.75-1.9q-4.9 3.7-8.55 8.05h-0.1l-2.1 0.8q5.6-7.35 10.7-10.45 3.85 2.05 7.35 4.6l-0.95 1.15v0.05" fill="#c4c4c4" fill-rule="evenodd"/>
<path d="m37.8 88.4 0.95 1.35q-7.25 4-13.55 10.8l-0.75-1.4q6.55-6.1 13.35-10.75m-16.75 12.9 0.8 1.45v0.05l-2.8 3.8-0.25-0.2q-0.4-0.6-0.55-1.4l2.8-3.7" fill="#7b7b7b" fill-rule="evenodd"/>
<path d="m39.15 83.7 1.1 1.8-2.85 2.25-0.9-1.8 2.65-2.25" fill="#fbeaea" fill-rule="evenodd"/>
<path d="m20.75 100.1 0.3 1.05v0.15l-2.8 3.7-0.2-1.5 2.7-3.4m1.1 2.7 0.35 0.5 0.15 0.2 0.2 0.2q1.5 1.6 2.85 1.8l-4.15 1.8-2.2-0.7 2.8-3.8" fill-rule="evenodd"/>
<path d="m121.45 22.85 0.35-0.4-0.5 0.2-0.3 0.2q-11.25 6-22.4 12.95h-0.05q-0.85 0.5-1.75 1.05l-5.3 0.25-0.2-0.3 11.65-9.65q13.6-5.2 22.65-7.6l-11.2 19.95-11.35 9.2q0.55-1.95 0.1-5.1l0.55-0.6q9.35-9.8 17.45-19.8l0.3-0.35" fill="url(#y)" fill-rule="evenodd"/>
<path d="m121 22.85 0.3-0.2 0.5-0.2-0.35 0.4-0.3 0.35-0.15-0.35m-33.2 27.55-0.2-0.25 1.5-1.75 0.35 0.3 14.35-12.95 17.35-12.55q-8.1 10-17.45 19.8l-0.55 0.6-0.2-1.35-13.45 6.75-1.7 1.4m10.8-14.6 0.55 0.95-2.35 0.1q0.9-0.55 1.75-1.05h0.05" fill="url(#x)" fill-rule="evenodd"/>
<path d="m80.1 56.7 7.7-6.3 1.7-1.4 13.45-6.75 0.2 1.35q-17.55 18.35-38.65 35.85l0.25-7.25 5.15-7.2 10.2-8.3" fill="url(#m)" fill-rule="evenodd"/>
<path d="m87.6 50.15-5.65 4.55q-1.3 0.35-7.55-2.8 11.2-8 22.4-15.05l2.35-0.1-10.05 11.65-1.5 1.75m-15.5 3.35q2.2-1.15 7.6 3.05l-4.5 3.65q-3.1 1-8.95-2.4l5.85-4.3m0.4 8.9-2.95 2.45-8 3.05-7.2-0.8v-0.15q3.6-2.9 7.25-5.6l0.1-0.1q5.25-1.8 10.8 1.15" fill="url(#h)" fill-rule="evenodd"/>
<path d="m69.9 65-5.15 7.2-0.25 7.25-0.35 2.65-4.2 1.5-0.15-0.3-0.95 0.85-0.7 0.4-1.05-2-0.15-0.25-1.5-2.35-1.4-1.95 15.85-13" fill="url(#g)" fill-rule="evenodd"/>
<path d="m54.35 67.1 7.2 0.8 8-3.05-16 12.9-2.5-2.65-0.05-0.1-1.9-1.65-1-0.85-0.1-0.15v-0.05l1-1.1-0.05-0.05 3.15-4.75 2.25 0.55-0.2 0.15h0.2" fill="url(#f)" fill-rule="evenodd"/>
<path d="m121.45 22.85 0.35-0.4-0.5 0.2-0.3 0.2m-39.05 31.85-2.25 1.85 0.4 0.15 7.7-6.3m-0.2-0.25-5.65 4.55m-7.55-2.8-0.1 0.05-2.2 1.55m7.6 3.05-4.5 3.65-2.7 2.2-2.95 2.45 0.7-0.35-0.35 0.5 10.2-8.3m-13.85 1.1 5.85-4.3m24.7-16.65-5.3 0.25m-0.2-0.3 11.65-9.65q13.6-5.2 22.65-7.6l-11.2 19.95-11.35 9.2-0.45 0.3 0.35 0.25m-3.8-12.5-10.05 11.65m32.05-25.2q-8.1 10-17.45 19.8l-0.55 0.6q0.45 3.15-0.1 5.1m-3.9-11.95-2.35 0.1q-11.2 7.05-22.4 15.05m22.4-15.05q0.9-0.55 1.75-1.05h0.05q11.15-6.95 22.4-12.95m-17.85 20.75-0.2-1.35-13.45 6.75-1.7 1.4m-0.2-0.25 1.5-1.75m-19.2 16.6-5.15 7.2-0.25 7.25q21.1-17.5 38.65-35.85m-48.8 23.5 7.2 0.8 8-3.05-16 12.9-2.5-2.65m-0.05-0.1-1.9-1.65-1-0.85-0.15-0.1 0.05-0.05-3.6-2.3m-11.3 6.15 3.7-1.4 3.35 2.05 0.4-3.7 4.3 9.4 1.1 1.75 1.65 1.25 3.65 2.7 4.6 3.4-3.7-0.4 1.3 3.75-3.35 5.3q6.25-3.95 12.15-9.1-0.1-3.6-2.3-7.6l-1.1 0.55-0.55 0.5h-0.05l1.9 4m-5.8-21.55h-0.2l0.2-0.15-2.25-0.55-3.15 4.75 0.05 0.05-1 1.1v0.05l0.1 0.15m6.25-5.55q3.6-2.9 7.25-5.6l0.1-0.1 4.55-3.45m-8.1 26.75-1.05-2m-0.15-0.25-1.5-2.35-1.4-1.95 15.85-13m-11.75 19.55-0.3 0.1m6.65-5.2-0.35 2.65-4.2 1.5-0.15-0.3-0.95 0.85-0.7 0.4 0.1 0.15 0.05-0.05m-10.3-12.35 0.95-1.15q-3.5-2.55-7.35-4.6-5.1 3.1-10.7 10.45l2.1-0.8m11.85 6.35-2.65 2.15q0.1 1.15 0.6 1.9 0.65 0.9 1.85 1.3l2.95-2.35m-5.4-0.85-0.1 0.1q-1.85-2.1-3.45-2.15h-0.05l0.55 1.05 1.1 1.8q1.35 2.1 3.05 3.75l0.25 0.3 2.5 2.1 0.1-0.05q-0.25-1.8-1.3-3.7h-0.2m-6.3-5.55 0.25 0.3-2.55 2.05 0.45 1.25 0.9 1.8 0.2 0.3 0.2 0.35 0.95 1.35 0.65 0.75 0.9 0.75 0.7 0.65q1.2 1.05 2.6 1.75l2.45-2m-21.8 7.3 0.2 0.2q6.55-6.1 13.35-10.75m-13.3 12.75q0.7 1.1 1.8 1.6l0.65-0.45-1.1-1.05-0.65-0.7-0.75-1.4-0.6 0.55 0.65 1.45m-0.65-1.45-1.45 1.2-1.55-0.9-0.1 0.1 0.3 1.05m0 0.15 0.8 1.45m0 0.05 0.35 0.5 0.15 0.2 0.2 0.2q1.5 1.6 2.85 1.8l0.15-0.05-0.75-1.85 1.5-0.85m-5.55-2.65-2.7 3.4 0.2 1.5q0.15 0.8 0.55 1.4l0.25 0.2 2.2 0.7 4.15-1.8m1.55-3.2q7.8-5.25 13.35-11.05" fill="none" stroke="#030201" stroke-linecap="round" stroke-linejoin="round" stroke-opacity=".30196"/>
<path d="m121.15 23.2 0.3-0.35m-70.4 52.25-0.05-0.1m6.1 7.55-0.15-0.25m-23.95-6.1h0.1m10.2 13.05-0.5-2.65m-6.3-0.65-0.3 0.25m4.8 5.7 2.35-2.2-0.05-0.45m0.25 0.3-0.2 0.15m7.9-1.45-0.1 0.25m-30.1 12.65v0.15m0.8 1.45v0.05m-3.6 2.2-0.25 0.35" fill="none" stroke="#030201" stroke-linecap="round" stroke-linejoin="round" stroke-opacity=".30196"/>
<path d="m53.2 78.1 1.55 2.4 0.1 0.2q-2.65 5-2.85 7.05 0 0.8 0.3 1.1l-3.25-2.4q3-1.9 4.15-8.35" fill="url(#e)" fill-rule="evenodd"/>
<path d="m51.1 75.15q-2.3 0.85-2.8 10.9l-2.3-1.7-1.15-1.85-0.7-1.55q3.35 1.65 4.95-7.5l0.1-0.1 1.8 1.7 0.1 0.1" fill="url(#d)" fill-rule="evenodd"/>
<path d="m55.1 80.95 0.1 0.2q-2.65 5-2.85 7.05 0 0.8 0.3 1.1l-3.25-2.4q3-1.9 4.15-8.35l1.55 2.4" fill="url(#c)" fill-rule="evenodd"/>
<path d="m51.45 75.6q-2.3 0.85-2.8 10.9l-2.3-1.7-1.15-1.85-0.7-1.55q3.35 1.65 4.95-7.5l0.1-0.1 1.8 1.7 0.1 0.1" fill="url(#b)" fill-rule="evenodd"/>
<path d="m55.55 81.5 0.1 0.2q-2.65 5-2.85 7.05 0 0.8 0.3 1.1l-3.25-2.4q3-1.9 4.15-8.35l1.55 2.4" fill="url(#w)" fill-rule="evenodd"/>
<path d="m51.9 76.15q-2.3 0.85-2.8 10.9l-2.3-1.7-1.15-1.85-0.7-1.55q3.35 1.65 4.95-7.5l0.1-0.1 1.8 1.7 0.1 0.1" fill="url(#v)" fill-rule="evenodd"/>
<path d="m23.05 101.95-0.3-0.2-0.15-0.4 0.2-0.35 0.4-0.1 0.35 0.2 0.1 0.4-0.2 0.3-0.4 0.15" fill="#fbeaea" fill-rule="evenodd"/>
<path d="m84.7 6.65 0.2 0.2-11.2 13.05-8.75 12.8-0.3-0.15 5.65-10.95-0.65-0.7q7.45-7.5 15.05-14.25" fill="#efb1b1" fill-rule="evenodd"/>
<path d="m53.85 38.05q5.45 1.2 6.4 0.8l-1.4 1.75q-4.95-2.2-6.5-0.9l1.4-1.55 0.1-0.1m-5.25 6.1 7.4 0.2-1.65 2.2q-4.85-1.2-8.6 1.15l2.85-3.55" fill="#fff" fill-rule="evenodd"/>
<path d="m52.45 49 0.5-0.35-0.2 0.45-9.9 13.15 1.5 1.15 1.65 1.6 0.1 0.2 1.2 1.3 0.1 0.15 0.05-0.05 0.35-0.5 0.75-0.65q2.4 2.7 3.15 5.55-3.6 5.05-7.7 9.3l1.65-4.7-1.75-2.7 2.95-0.4-4.2-1.75-3.4-1.45-1.5-0.6 1.5 0.6-1.85 2.4q-1-0.1-1.65-0.65-0.55-0.55-0.85-1.4l1.65-2.2-5.15-6.45 0.45 2.9-3.05-0.95-2.6 1.75q2.05-4.05 5.15-7.8l2.5 0.85 3.2 1.15v0.05l0.15 0.1 0.95 0.45 1.75 0.95 0.1 0.1 2.45 1.55 10-13.1m-14.7 19.7-1.2-1.25 1.2 1.25m11.9 0.7-2.2-2.8 2.2 2.8m-12.55-10.5v0.05l-0.05-0.05h0.05m-3.95 15.35 0.65 0.45q0.45 0.3 0.85 0.4-3.25 5.55-8.3 11.1l-1.1-0.6-0.6-0.45q3.6-6.45 8.5-10.9m13.95-7.6 0.2-0.15-0.2 0.15" fill="#2b2b2b" fill-rule="evenodd"/>
<path d="m21.55 86.55-0.05-0.1-0.45-0.75 0.05-0.1 1.45 0.4 0.85-1.2 0.8 1-1.2 1.9-0.2 0.2-0.35-0.3-0.05-0.05-0.85-1m11.95-15.9-1.15-1.2-0.65-0.75 0.65 0.75-1.65 2.2-0.6-0.85 1.6-2.1q1.3-0.25 3.15 1.05l0.05-0.1q0.3 0.85 0.85 1.4l0.85 1.95q-1.65-1-3.1-2.35 1.45 1.35 3.1 2.35l0.2 0.3-0.2-0.3 0.25 0.15-0.05 0.15-1.5 2.15-0.65-0.35q-0.4-0.1-0.85-0.4l-0.65-0.45-1-0.9-0.45-0.45 1.8-2.25" fill="#c92525" fill-rule="evenodd"/>
<path d="m36.6 73-0.85-1.95q0.65 0.55 1.65 0.65l0.15-0.05q1.2 1.35 1.7 2.65l-2.4-1.15 2.4 1.15-1.55 2.1q-1.25-0.3-2.4-0.95l1.5-2.15 0.05-0.15-0.25-0.15m-10.75 13.75-0.95 0.9 0.9 1.35h-0.05l-0.1 0.05q-1 0.1-2.5-0.9l-0.2-0.1-0.15-0.15 0.2-0.2 1.2-1.9 1.65 0.95" fill="#6b1414" fill-rule="evenodd"/>
<path d="m37.05 58.9-3.2-1.15-2.5-0.85q-3.1 3.75-5.15 7.8l-0.1 0.05-1.4 1q2.95-6.75 6.3-10.15 3.4 0.9 6.65 2.25l-0.55 1.05h-0.05" fill="#c4c4c4" fill-rule="evenodd"/>
<path d="m20.05 90 1.5-3.45 0.85 1 0.05 0.05-1.5 3.45-0.25-0.1-0.65-0.95m12.1-16.65 1 0.9q-4.9 4.45-8.5 10.9l-0.85-0.9q3.95-6 8.35-10.9" fill="#7b7b7b" fill-rule="evenodd"/>
<path d="m32.35 69.45 1.15 1.2-1.8 2.25-1-1.25 1.65-2.2" fill="#fbeaea" fill-rule="evenodd"/>
<path d="m21.55 86.55-1.5 3.45-0.45-1.2 1.45-3.1 0.45 0.75 0.05 0.1m-0.6 4.5 1.5-3.45 0.35 0.3 0.15 0.15 0.2 0.1q1.5 1 2.5 0.9l-2.85 2.15-1.85-0.15" fill-rule="evenodd"/>
<path d="m85.25 6.2-0.3 0.25-0.25 0.2q-7.6 6.75-15.05 14.25v0.05l-1.15 1.2-4.05 1.15-0.25-0.2 7.3-9.7q9.6-6.65 16.2-10.2l-5 17.65-7.1 9.3q0-1.6-0.9-4l0.35-0.55q5.4-9.4 9.85-18.75l0.2-0.3 0.15-0.35" fill="url(#u)" fill-rule="evenodd"/>
<path d="m84.7 6.65 0.25-0.2 0.3-0.25-0.15 0.35-0.2 0.3-0.2-0.2m-10 19.5-0.35-1-9.3 7.85-1.05 1.35-0.2-0.15 0.85-1.65 0.3 0.15 8.75-12.8 11.2-13.05q-4.45 9.35-9.85 18.75l-0.35 0.55m-6.2-4 1.15-1.2v-0.05l0.65 0.7-1.8 0.55" fill="url(#t)" fill-rule="evenodd"/>
<path d="m64.65 32.55-0.85 1.65-0.25 0.25-3.05 4.1-0.25 0.3q-0.95 0.4-6.4-0.8 7.25-8.4 14.65-15.9l1.8-0.55-5.65 10.95m-12.3 7.15q1.55-1.3 6.5 0.9l-2.85 3.75-7.4-0.2 3.75-4.45m-11.35 13.85 4.65-5.75 0.1-0.1q3.75-2.35 8.6-1.15l-1.9 2.45-5.65 3.95-5.75 0.7-0.05-0.1" fill="url(#s)" fill-rule="evenodd"/>
<path d="m65.05 33 9.3-7.85 0.35 1q-10.25 17.65-23.4 35.2l-1.2-5.65 2.65-6.6 6.45-8.4 4.8-6.35 1.05-1.35" fill="url(#r)" fill-rule="evenodd"/>
<path d="m52.45 49-10 13.1-2.45-1.55-0.1-0.1-1.75-0.95-0.95-0.45-0.1-0.1v-0.05l0.6-1.05h-0.05l1.5-4.3h1.85l-0.1 0.1h0.15l5.75-0.7 5.65-3.95" fill="url(#q)" fill-rule="evenodd"/>
<path d="m52.75 49.1-2.65 6.6 1.2 5.65 0.2 2.15-2.95 1.95-0.2-0.2-0.55 0.85-0.5 0.4-1.2-1.3-0.1-0.2-1.65-1.6-1.5-1.15 9.9-13.15" fill="url(#p)" fill-rule="evenodd"/>
<path d="m84.9 6.85 0.2-0.3 0.15-0.35m-20.2 26.8-1.05 1.35-4.8 6.35-6.45 8.4-9.9 13.15 1.5 1.15 1.65 1.6 0.1 0.2 1.2 1.3m4-5.15q13.15-17.55 23.4-35.2l0.35-0.55q5.4-9.4 9.85-18.75m-24.4 31.7 3.05-4.1m-3.3 4.4-1.4 1.75m-2.85 3.75 2.85-3.75m-4.5 5.95 1.65-2.2m-8.2 21.75 0.55-0.85 0.2 0.2m5.8-18.9-1.9 2.45-10 13.1m-2.45-1.55-0.1-0.1m-2.15 8.25 1.5 0.6 3.4 1.45 4.2 1.75-2.95 0.4 1.75 2.7-1.65 4.7q4.1-4.25 7.7-9.3-0.75-2.85-3.15-5.55m-0.75 0.65-0.35 0.5-0.05 0.05-0.1-0.15m-21.2-1.75 0.1-0.05m-6.15 25.3-0.15 0.3m1.65-3.75-0.05-0.1m-0.8 4.5 0.25 0.1 1.85 0.15 2.85-2.15m-3.2-1.45-0.05-0.05m14.2-14.55-0.85-1.95m-5.05 0.6-0.15 0.25m4.1 3.2 0.65 0.35 1.5-2.15-0.2-0.3m2.65 1.3q-0.5-1.3-1.7-2.65l-0.15 0.05 1.85-2.4m-2.4 3.85-0.05 0.15m5.85-2.55-0.05 0.2m-7.3 4.5q1.15 0.65 2.4 0.95l1.55-2.1m-13.5 14.7h0.05l-0.9-1.35 0.95-0.9 0.5-0.55q5.05-5.55 8.3-11.1" fill="none" stroke="#030201" stroke-linecap="round" stroke-linejoin="round" stroke-opacity=".25098"/>
<path d="m85.25 6.2-0.3 0.25-0.25 0.2m-10 19.5-0.35-1-9.3 7.85m-12.3 16.1-2.65 6.6 1.2 5.65m13.35-28.8-0.85 1.65m10.9-8.05q0.9 2.4 0.9 4l7.1-9.3 5-17.65q-6.6 3.55-16.2 10.2l-7.3 9.7m0.25 0.2 4.05-1.15 1.15-1.2v-0.05q7.45-7.5 15.05-14.25m-9.1 23.5-0.3 0.3 0.3 0.15m-5.3-9-1.8 0.55q-7.4 7.5-14.65 15.9m6.4 0.8 0.25-0.3m3.05-4.1 0.25-0.25m6.5-12.6-5.65 10.95m-5.8 8.05 0.35 0.1m-6.85-1-3.75 4.45m3.75-4.45 1.4-1.55 0.1-0.1m-8.1 9.65 2.85-3.55m-7.6 9.4 4.65-5.75 0.1-0.1m6.7 1.3 0.5-0.35-0.2 0.45m-5.45 17.4 0.5-0.4m0.75-0.65 2.95-1.95-0.2-2.15m-8.85 0.75-2.45-1.55m-0.1-0.1-1.75-0.95-0.95-0.45-0.15-0.1h0.05l-0.05-0.05-3.2-1.15m-7.65 6.95 2.6-1.75 3.05 0.95-0.45-2.9 5.15 6.45 1.2 1.25m10.8-3.25-0.75 0.65m-0.35 0.5 2.2 2.8m-12.55-10.5 0.55-1.05q-3.25-1.35-6.65-2.25-3.35 3.4-6.3 10.15l1.4-1m-4.6 21.7-0.45-0.75-1.45 3.1 0.45 1.2 0.65 0.95m1.7-3.4-0.85-1m2.65-0.75-0.8-1-0.85 1.2-1.45-0.4-0.05 0.1m20-32.05 5.75-0.7 5.65-3.95m-11.4 4.65h-0.15l0.1-0.1h-1.85l-1.5 4.3h0.05l-0.6 1.05v0.05l0.1 0.1m-4.85 10.4 1.15 1.2q1.45 1.35 3.1 2.35l0.25 0.15 2.4 1.15m-3.5-3.25q-0.55-0.55-0.85-1.4l-0.05 0.1q-1.85-1.3-3.15-1.05l0.65 0.75m-1.65 2.2 1 1.25 0.45 0.45 1 0.9 0.65 0.45q0.45 0.3 0.85 0.4m-3.15-6.55 0.2 0.15-1.6 2.1 0.6 0.85m6.7 0.05q-1-0.1-1.65-0.65m0.8-3.6-1.65 2.2m12.4-3.15-0.2 0.15m-23.5 17.45 0.2 0.15q3.95-6 8.35-10.9m-8.35 10.9 0.85 0.9m1.2 1.6-1.65-0.95m-1.4 2.1 0.15 0.15 0.2 0.1q1.5 1 2.5 0.9l0.1-0.05m0.6-2.8-1.1-0.6-0.6-0.45m-0.85-0.9-0.4 0.55m-0.95 2.8 0.35 0.3" fill="none" stroke="#030201" stroke-linecap="round" stroke-linejoin="round" stroke-opacity=".25098"/>
<path d="m43.85 64 0.15 0.15q-1.15 4.4-0.9 6 0.1 0.65 0.4 0.8l-3-1.25q2.05-2.05 1.7-7.3l1.65 1.6" fill="url(#o)" fill-rule="evenodd"/>
<path d="m40.05 60.5q-1.65 1.15-0.2 9l-2.1-0.85-1.2-1.2-0.9-1.15q3 0.7 2.5-6.75l0.05-0.05 1.7 0.95 0.15 0.05" fill="url(#n)" fill-rule="evenodd"/>
<path d="m44.25 64.3 0.15 0.15q-1.15 4.4-0.9 6 0.1 0.65 0.4 0.8l-3-1.25q2.05-2.05 1.7-7.3l1.65 1.6" fill="url(#l)" fill-rule="evenodd"/>
<path d="m40.45 60.8q-1.65 1.15-0.2 9l-2.1-0.85-1.2-1.2-0.9-1.15q3 0.7 2.5-6.75l0.05-0.05 1.7 0.95 0.15 0.05" fill="url(#k)" fill-rule="evenodd"/>
<path d="m43.05 63.05 1.65 1.6 0.15 0.15q-1.15 4.4-0.9 6 0.1 0.65 0.4 0.8l-3-1.25q2.05-2.05 1.7-7.3" fill="url(#j)" fill-rule="evenodd"/>
<path d="m40.9 61.15q-1.65 1.15-0.2 9l-2.1-0.85-1.2-1.2-0.9-1.15q3 0.7 2.5-6.75l0.05-0.05 1.7 0.95 0.15 0.05" fill="url(#i)" fill-rule="evenodd"/>
<path d="m23.2 86.65-0.3-0.05-0.15-0.3 0.1-0.25 0.25-0.2 0.25 0.1 0.2 0.25-0.05 0.35-0.3 0.1" fill="#fbeaea" fill-rule="evenodd"/>
</g>
<linearGradient id="y" x1="-819.2" x2="819.2" gradientTransform="matrix(.0065 .008 -.0178 .0144 111.05 31.35)" gradientUnits="userSpaceOnUse">
<stop stop-color="#a2ccdd" offset=".0078431"/>
<stop stop-color="#275572" offset=".98039"/>
</linearGradient>
<linearGradient id="x" x1="-819.2" x2="819.2" gradientTransform="matrix(.0022 .0027 -.0209 .017 105.7 37.45)" gradientUnits="userSpaceOnUse">
<stop stop-color="#d94040" offset=".0078431"/>
<stop stop-color="#511" offset=".98039"/>
</linearGradient>
<linearGradient id="m" x1="-819.2" x2="819.2" gradientTransform="matrix(.003 .0037 -.0253 .0205 82.65 59.6)" gradientUnits="userSpaceOnUse">
<stop stop-color="#aaa" offset=".2902"/>
<stop stop-color="#6a6a6a" offset=".98039"/>
</linearGradient>
<linearGradient id="h" x1="-819.2" x2="819.2" gradientTransform="matrix(.0035 .0116 -.0315 .0095 77.7 53.05)" gradientUnits="userSpaceOnUse">
<stop stop-color="#e1e1e1" offset=".2902"/>
<stop stop-color="#b7b7b7" offset=".98039"/>
</linearGradient>
<linearGradient id="g" x1="-819.2" x2="819.2" gradientTransform="matrix(.002 .0042 -.0117 .0057 64.6 75.5)" gradientUnits="userSpaceOnUse">
<stop stop-color="#122632" offset=".0078431"/>
<stop stop-color="#275572" offset=".98039"/>
</linearGradient>
<linearGradient id="f" x1="-819.2" x2="819.2" gradientTransform="matrix(.0038 .0046 -.0102 .0083 58.05 67.8)" gradientUnits="userSpaceOnUse">
<stop stop-color="#a2ccdd" offset=".0078431"/>
<stop stop-color="#275572" offset=".98039"/>
</linearGradient>
<linearGradient id="e" x1="-819.2" x2="819.2" gradientTransform="matrix(.003 .0037 -.004 .0033 52.35 83.75)" gradientUnits="userSpaceOnUse">
<stop stop-color="#fff" stop-opacity=".78039" offset="0"/>
<stop stop-opacity="0" offset=".96471"/>
<stop stop-color="#6a6a6a" offset=".98039"/>
</linearGradient>
<linearGradient id="d" x1="-819.2" x2="819.2" gradientTransform="matrix(.0036 .0044 -.0046 .0038 48.6 79.8)" gradientUnits="userSpaceOnUse">
<stop stop-color="#fff" stop-opacity=".78039" offset="0"/>
<stop stop-opacity="0" offset=".96471"/>
<stop stop-color="#6a6a6a" offset=".98039"/>
</linearGradient>
<linearGradient id="c" x1="-819.2" x2="819.2" gradientTransform="matrix(.003 .0037 -.004 .0033 52.7 84.2)" gradientUnits="userSpaceOnUse">
<stop stop-color="#fff" stop-opacity=".78039" offset="0"/>
<stop stop-opacity="0" offset=".96471"/>
<stop stop-color="#6a6a6a" offset=".98039"/>
</linearGradient>
<linearGradient id="b" x1="-819.2" x2="819.2" gradientTransform="matrix(.0036 .0044 -.0046 .0038 48.95 80.25)" gradientUnits="userSpaceOnUse">
<stop stop-color="#fff" stop-opacity=".78039" offset="0"/>
<stop stop-opacity="0" offset=".96471"/>
<stop stop-color="#6a6a6a" offset=".98039"/>
</linearGradient>
<linearGradient id="w" x1="-819.2" x2="819.2" gradientTransform="matrix(.003 .0037 -.004 .0033 53.15 84.75)" gradientUnits="userSpaceOnUse">
<stop stop-color="#fff" stop-opacity=".78039" offset="0"/>
<stop stop-opacity="0" offset=".96471"/>
<stop stop-color="#6a6a6a" offset=".98039"/>
</linearGradient>
<linearGradient id="v" x1="-819.2" x2="819.2" gradientTransform="matrix(.0036 .0044 -.0046 .0038 49.4 80.8)" gradientUnits="userSpaceOnUse">
<stop stop-color="#fff" stop-opacity=".78039" offset="0"/>
<stop stop-opacity="0" offset=".96471"/>
<stop stop-color="#6a6a6a" offset=".98039"/>
</linearGradient>
<linearGradient id="u" x1="-819.2" x2="819.2" gradientTransform="matrix(.0065 .005 -.0112 .0146 78.6 15.15)" gradientUnits="userSpaceOnUse">
<stop stop-color="#a2ccdd" offset=".0078431"/>
<stop stop-color="#275572" offset=".98039"/>
</linearGradient>
<linearGradient id="t" x1="-819.2" x2="819.2" gradientTransform="matrix(.0022 .0017 -.0131 .0171 75.55 20.9)" gradientUnits="userSpaceOnUse">
<stop stop-color="#d94040" offset=".0078431"/>
<stop stop-color="#511" offset=".98039"/>
</linearGradient>
<linearGradient id="s" x1="-819.2" x2="819.2" gradientTransform="matrix(.0049 .0084 -.0228 .0133 56.6 38.35)" gradientUnits="userSpaceOnUse">
<stop stop-color="#e1e1e1" offset=".2902"/>
<stop stop-color="#b7b7b7" offset=".98039"/>
</linearGradient>
<linearGradient id="r" x1="-819.2" x2="819.2" gradientTransform="matrix(.0031 .0023 -.0159 .0208 61.75 42.45)" gradientUnits="userSpaceOnUse">
<stop stop-color="#aaa" offset=".2902"/>
<stop stop-color="#6a6a6a" offset=".98039"/>
</linearGradient>
<linearGradient id="q" x1="-819.2" x2="819.2" gradientTransform="matrix(.0038 .0029 -.0064 .0084 44.15 53.5)" gradientUnits="userSpaceOnUse">
<stop stop-color="#a2ccdd" offset=".0078431"/>
<stop stop-color="#275572" offset=".98039"/>
</linearGradient>
<linearGradient id="p" x1="-819.2" x2="819.2" gradientTransform="matrix(.0023 .0028 -.0081 .0067 50.6 58.3)" gradientUnits="userSpaceOnUse">
<stop stop-color="#122632" offset=".0078431"/>
<stop stop-color="#275572" offset=".98039"/>
</linearGradient>
<linearGradient id="o" x1="-819.2" x2="819.2" gradientTransform="matrix(.003 .0023 -.0025 .0033 42.6 67)" gradientUnits="userSpaceOnUse">
<stop stop-color="#fff" stop-opacity=".78039" offset="0"/>
<stop stop-opacity="0" offset=".96471"/>
<stop stop-color="#6a6a6a" offset=".98039"/>
</linearGradient>
<linearGradient id="n" x1="-819.2" x2="819.2" gradientTransform="matrix(.0036 .0028 -.0029 .0038 38.95 64.6)" gradientUnits="userSpaceOnUse">
<stop stop-color="#fff" stop-opacity=".78039" offset="0"/>
<stop stop-opacity="0" offset=".96471"/>
<stop stop-color="#6a6a6a" offset=".98039"/>
</linearGradient>
<linearGradient id="l" x1="-819.2" x2="819.2" gradientTransform="matrix(.003 .0023 -.0025 .0033 43 67.3)" gradientUnits="userSpaceOnUse">
<stop stop-color="#fff" stop-opacity=".78039" offset="0"/>
<stop stop-opacity="0" offset=".96471"/>
<stop stop-color="#6a6a6a" offset=".98039"/>
</linearGradient>
<linearGradient id="k" x1="-819.2" x2="819.2" gradientTransform="matrix(.0036 .0028 -.0029 .0038 39.35 64.9)" gradientUnits="userSpaceOnUse">
<stop stop-color="#fff" stop-opacity=".78039" offset="0"/>
<stop stop-opacity="0" offset=".96471"/>
<stop stop-color="#6a6a6a" offset=".98039"/>
</linearGradient>
<linearGradient id="j" x1="-819.2" x2="819.2" gradientTransform="matrix(.003 .0023 -.0025 .0033 43.45 67.65)" gradientUnits="userSpaceOnUse">
<stop stop-color="#fff" stop-opacity=".78039" offset="0"/>
<stop stop-opacity="0" offset=".96471"/>
<stop stop-color="#6a6a6a" offset=".98039"/>
</linearGradient>
<linearGradient id="i" x1="-819.2" x2="819.2" gradientTransform="matrix(.0036 .0028 -.0029 .0038 39.8 65.25)" gradientUnits="userSpaceOnUse">
<stop stop-color="#fff" stop-opacity=".78039" offset="0"/>
<stop stop-opacity="0" offset=".96471"/>
<stop stop-color="#6a6a6a" offset=".98039"/>
</linearGradient>
</defs>
</svg>
