<?xml version="1.0" encoding="UTF-8"?>
<svg version="1.1" viewBox="0 0 68.625 54.839" xmlns="http://www.w3.org/2000/svg" xmlns:cc="http://creativecommons.org/ns#" xmlns:dc="http://purl.org/dc/elements/1.1/" xmlns:rdf="http://www.w3.org/1999/02/22-rdf-syntax-ns#" xmlns:xlink="http://www.w3.org/1999/xlink">
<metadata>
<rdf:RDF>
<cc:Work rdf:about="">
<dc:format>image/svg+xml</dc:format>
<dc:type rdf:resource="http://purl.org/dc/dcmitype/StillImage"/>
</cc:Work>
</rdf:RDF>
</metadata>
<g transform="translate(-240.72 -172.53)">
<use transform="matrix(.4672 0 0 .4672 240.72 172.52)" width="146.89999" height="117.4" xlink:href="#a"/>
</g>
<defs>
<g id="a" transform="translate(.5 .5)">
<use transform="translate(-.5 -.5)" width="146.89999" height="117.4" xlink:href="#b"/>
</g>
<g id="b" transform="translate(.5 .5)">
<path d="m25.55 13.4q-3.55 2.7-6.45 6.7-1.4 2-2.45 4-3.25-1.1-6.05-2.8-8.25-5.05-9.6-7.9-1.35-2.9-0.85-5.2l0.65-2q5.15 9.35 12.6 8.6 0.6-5.4 6.9-7.2l5.25 5.8m-11 16.05 75.65 57.55q-0.4 2.05-0.4 4.1 0 5.55 2.85 8.75l-71.25-52.95-5.55-4.05q-2.05-3.05-2.05-7.75 0-2.85 0.75-5.65" fill="#ba6601" fill-rule="evenodd"/>
<path d="m100.3 70.4q3.5-3.05 7.7-4.7 7.55-3 12.85 0.25l1.1 0.7q4.25 3.3 4.25 10.05 0 6.8-4.3 13.45l-2.7-1.95q1.1-2.4 1.15-4.8 0.1-3.25-1.8-4.85l-0.5-0.35-5.85-0.15q-3.5 1.45-6.05 5.05-2.5 3.6-2.6 7.3-0.05 2.7 1.2 4.25l1.1 1q2.4 1.55 5.9 0.1l2.5-1.4q-1.95-1.2-4.25-1.65-0.1-3.1 0.9-5.1l19.5 19 9.2 3.2 6.3-3.45-0.1 1.85q-0.35 1.6-1.4 3.35l-0.55 0.9-0.65 0.8-2.65 2.35q-1.95 1.15-4.95 0.65-3-0.6-9.95-7.4l-2.05-2.2q-1.75-2.1-3.2-4.6-2-4.45-2.45-4.55l-1.05-1.15q-4 3.8-8.9 5.75-7.55 3-12.9-0.25-1.4-0.85-2.45-2-2.85-3.2-2.85-8.75 0-2.05 0.4-4.1 0.9-4.7 3.85-9.3l6.25-7.3m16.6 25.95-2.65-2 2.65 2" fill="#834801" fill-rule="evenodd"/>
<path d="m110.9 87.6q-1 2-0.9 5.1 2.3 0.45 4.25 1.65l-2.5 1.4q-3.5 1.45-5.9-0.1l-1.1-1q-1.25-1.55-1.2-4.25 0.1-3.7 2.6-7.3 2.55-3.6 6.05-5.05l5.85 0.15 0.5 0.35q1.9 1.6 1.8 4.85-0.05 2.4-1.15 4.8-1.9-1.75-3.1-4.15-3.8 0.6-5.2 3.55" fill="#723901" fill-rule="evenodd"/>
<path d="m120.85 65.95q-5.3-3.25-12.85-0.25-4.2 1.65-7.7 4.7l-0.9-1.55-0.45-0.7-0.65-0.55-0.75-0.4-1.8-0.65-1.6-0.2-0.4 4.25-4.3 0.45-1.15 1.45-2.55-2.45-0.5 1.45q-0.65 0.05-1.35-0.45l-3.65-2.95q-1.25-0.95-2.7-1.5-2.7-1.1-5.05-2.75-0.95-0.7-1.9-0.5 7.1 5.85 15.45 9.85l1.25 2.1 6.75 2.4q-2.95 4.6-3.85 9.3l-75.65-57.55q0.7-2.7 2.1-5.35 1.05-2 2.45-4 2.9-4 6.45-6.7 3-2.35 6.45-3.7 7.55-3 12.85 0.25 1.8 1.05 3 2.6l73 53.4m-9.95 21.65q1.4-2.95 5.2-3.55 1.2 2.4 3.1 4.15l2.7 1.95 0.9 0.5q0.15 0.35 3.6 0.95l1.25 0.2q4.15 1.15 7.65 3.3 8.25 5.05 9.6 7.95 0.85 1.75 1 3.3l-6.3 3.45-9.2-3.2-19.5-19m-110.1-81.4 0.7-1.35 0.6-0.85 0.6-0.8q1.3-1.6 2.65-2.4 1.95-1.15 4.95-0.6t10 7.4q-6.3 1.8-6.9 7.2-7.45 0.75-12.6-8.6" fill="#f90" fill-rule="evenodd"/>
<path d="m21.4 46.9-2.3-1.05q-2-1.2-3.25-3l5.55 4.05" fill="#fef4ed" fill-rule="evenodd"/>
<path d="m94.05 77.7-6.75-2.4-1.25-2.1q-8.35-4-15.45-9.85 0.95-0.2 1.9 0.5 2.35 1.65 5.05 2.75 1.45 0.55 2.7 1.5l3.65 2.95q0.7 0.5 1.35 0.45l0.5-1.45 2.55 2.45 1.15-1.45 4.3-0.45 0.4-4.25 1.6 0.2 1.8 0.65 0.75 0.4 0.65 0.55 0.45 0.7 0.9 1.55-6.25 7.3" fill="#fff" fill-rule="evenodd"/>
<path d="m100.3 70.4q3.5-3.05 7.7-4.7 7.55-3 12.85 0.25l-73-53.4q-1.2-1.55-3-2.6-5.3-3.25-12.85-0.25-3.45 1.35-6.45 3.7-3.55 2.7-6.45 6.7-1.4 2-2.45 4-1.4 2.65-2.1 5.35m75.65 57.55q0.9-4.7 3.85-9.3m6.25-7.3-6.25 7.3m-1.4 22.15q-2.85-3.2-2.85-8.75 0-2.05 0.4-4.1m29 1.2q1.1-2.4 1.15-4.8 0.1-3.25-1.8-4.85l-0.5-0.35-5.85-0.15q-3.5 1.45-6.05 5.05-2.5 3.6-2.6 7.3-0.05 2.7 1.2 4.25l1.1 1q2.4 1.55 5.9 0.1l2.5-1.4q-1.95-1.2-4.25-1.65-0.1-3.1 0.9-5.1 1.4-2.95 5.2-3.55 1.2 2.4 3.1 4.15l2.7 1.95q4.3-6.65 4.3-13.45 0-6.75-4.25-10.05l-1.1-0.7m-6.6 28.4 2.65 2 1.05 1.15q0.45 0.1 2.45 4.55 1.45 2.5 3.2 4.6l2.05 2.2q6.95 6.8 9.95 7.4 3 0.5 4.95-0.65l2.65-2.35 0.65-0.8 0.55-0.9q1.05-1.75 1.4-3.35l0.1-1.85m-24-16.2 0.9 0.5q0.15 0.35 3.6 0.95l1.25 0.2q4.15 1.15 7.65 3.3 8.25 5.05 9.6 7.95 0.85 1.75 1 3.3m-125.6-98.75q-7-6.85-10-7.4t-4.95 0.6q-1.35 0.8-2.65 2.4l-0.6 0.8-0.6 0.85-0.7 1.35-0.65 2q-0.5 2.3 0.85 5.2 1.35 2.85 9.6 7.9 2.8 1.7 6.05 2.8m3.65-16.5 5.25 5.8m-4.15 33.5-2.3-1.05q-2-1.2-3.25-3-2.05-3.05-2.05-7.75 0-2.85 0.75-5.65m6.85 17.45 71.25 52.95q1.05 1.15 2.45 2 5.35 3.25 12.9 0.25 4.9-1.95 8.9-5.75" fill="none" stroke="#030" stroke-linecap="round" stroke-linejoin="round" stroke-opacity=".6"/>
</g>
</defs>
</svg>
