<?xml version="1.0" encoding="UTF-8" standalone="no"?>
<!DOCTYPE svg PUBLIC "-//W3C//DTD SVG 1.1//EN" "http://www.w3.org/Graphics/SVG/1.1/DTD/svg11.dtd">
<svg width="100%" height="100%" viewBox="0 0 344 213" version="1.1" xmlns="http://www.w3.org/2000/svg" xmlns:xlink="http://www.w3.org/1999/xlink" xml:space="preserve" xmlns:serif="http://www.serif.com/" style="fill-rule:evenodd;clip-rule:evenodd;stroke-linecap:round;stroke-linejoin:round;">
    <g transform="matrix(1,0,0,1,-88.9002,-95.7412)">
        <g transform="matrix(8.39028,0,0,8.39028,-1925.98,-1493.07)">
            <g id="shape0" transform="matrix(1,0,0,1,260.6,202)">
                <path d="M1.4,9.75C2.167,10.217 2.983,10.583 3.85,10.85L6.75,11.5L10.65,11.8L13.75,11.05L14.15,10.85L15.65,10L17.3,8.65L18.6,6.55L19,5.2L19.4,2.8C19.6,0.467 19.417,-1.8 18.85,-4L18.55,-5L17.2,-7.4C16.367,-8.3 15.3,-8.917 14,-9.25C12.5,-9.45 9.7,-8.4 5.6,-6.1L5.25,-6.65C9.783,-9.017 12.883,-10.1 14.55,-9.9C15.95,-9.567 17.1,-8.9 18,-7.9C18.667,-7.1 19.183,-6.167 19.55,-5.1L19.8,-4.3C20.4,-1.933 20.6,0.517 20.4,3.05L19.95,5.65L19.5,7.05C19.167,7.917 18.717,8.667 18.15,9.3L16.35,10.75L16.2,10.85L14.3,11.85C13.3,12.317 12.183,12.6 10.95,12.7L6.75,12.35C4.95,12.15 3.267,11.65 1.7,10.85L0.6,10.25L1.4,9.75L0.6,10.25L-0.6,10.95L-0.65,10.95L-3.05,8.95L2.35,5.6L2.25,1.8L4.75,3.85L4.85,7.6L1.4,9.75M-2.2,-9.25L-1.95,-9.65L-1.85,-9.7L-1.7,-9.8L-1.25,-9.95L-0.65,-9.85L-0.25,-9.55L-0.05,-9.15L-0.45,-9.05L-1.25,-8.5L-1.3,-8.45C-0.833,-7.917 -0.633,-7.383 -0.7,-6.85L-1.1,-6.55L-1.75,-7.75L-1.85,-7L-1.65,-6.45C-2.017,-6.45 -2.3,-6.583 -2.5,-6.85L-2.8,-7.7L-2.8,-8.05L-2.65,-8.5L-3.75,-9.35L-4,-9.55C-6.3,-11.25 -8.867,-11.933 -11.7,-11.6C-14,-11.567 -15.85,-10.933 -17.25,-9.7C-18.05,-9.033 -18.683,-8.183 -19.15,-7.15C-19.417,-6.617 -19.533,-6 -19.5,-5.3L-19.4,-4.1C-18.933,-3.1 -18.217,-2.45 -17.25,-2.15L-16.65,-2L-11.2,-1.8L-11.35,-1.15L-15.3,-1.1L-17.15,-1.45L-17.25,-1.45C-18.683,-1.85 -19.717,-2.7 -20.35,-4L-20.45,-5.35C-20.483,-6.117 -20.367,-6.8 -20.1,-7.4C-19.4,-8.867 -18.45,-10.033 -17.25,-10.9C-15.85,-11.9 -14.117,-12.467 -12.05,-12.6C-8.65,-12.833 -5.65,-11.95 -3.05,-9.95L-2.95,-9.85L-3.25,-9.65L-2.9,-9.85L-2.2,-9.25M8.2,-1.15L6.55,2.95L3.9,1.45L3.95,1.4L4,1.4L4.75,0.4L5.95,-3L8.2,-1.15M-3.95,-0.35L-4.55,-0.2L-5.2,-1.15L-3.95,-0.35M5.05,-4.6L3.75,-3.3L4.8,-5.05L4.75,-5.1L5.8,-4.8L5.1,-4.6L5.05,-4.6M-8.65,-6.75L-7.65,-6.9L-6.9,-6.1L-8.65,-6.75M-11.35,0.35L-11.1,0.9L-11.2,1L-11.2,1.05L-11.25,1.1C-11.683,1.733 -11.967,2.4 -12.1,3.1C-12.2,3.467 -12.15,3.8 -11.95,4.1L-11.6,4.6C-11.1,4.767 -10.533,4.767 -9.9,4.6L-9.8,4.6L-9.7,4.95L-9.75,4.95L-12.35,5.2L-12.8,4.6C-13.033,4.267 -13.1,3.883 -13,3.45C-12.767,2.45 -12.267,1.483 -11.5,0.55L-11.45,0.45L-11.35,0.35M-6.35,7.8L-5.25,6.05L-5.6,8.1L-5.65,8.05L-5.35,9L-6.35,7.8" style="fill:#10040a;"/>
                <path d="M-0.05,-9.15L-0.25,-9.55L-0.65,-9.85L-1.25,-9.95L-1.7,-9.8L-1.85,-9.7L-1.95,-9.65L-2.2,-9.25L-2.9,-9.85L-2.95,-9.85L-3.05,-9.95L-1.95,-10.5L2.45,-9.1L2.5,-9L4.75,-5.1L4.8,-5.05L3.75,-3.3L5.05,-4.6L5.95,-3.05L5.95,-3L4.75,0.4L4,1.4L3.8,1.4L4.2,-1.5L2.1,-3.4L-0.2,-5.45L-5.75,-4.2L-5.9,-4.2L-7.15,-0.15L-7.2,0L-3.8,4.9L-2.8,4.7L-0.9,4.3L1.2,3.85L2.25,1.8L2.35,5.6L-3.05,8.95L-3.1,8.95L-5.6,8.1L-5.25,6.05L-6.35,7.8L-8.9,6.9L-8.95,6.85L-9.7,4.95L-9.8,4.6L-11.2,1L-11.1,0.9L-11.35,0.35L-11.4,0.35L-11.6,-0.1L-10.2,-5.45L-8.65,-6.75L-6.9,-6.1L-7.65,-6.9L-8,-7.3L-6.85,-8.25L-4,-9.55L-3.75,-9.35L-2.65,-8.5L-2.8,-8.05L-2.8,-7.7L-2.5,-6.85C-2.3,-6.583 -2.017,-6.45 -1.65,-6.45L-1.55,-6.45L-1.1,-6.55L-0.7,-6.85L-0.45,-7.05L-0.3,-7.25C-0.1,-7.583 0.017,-7.967 0.05,-8.4L-0.05,-9.15M2.3,-5.9C2.167,-5.6 2.267,-5.5 2.6,-5.6L2.7,-5.6L2.85,-5.65L2.45,-6L2.3,-5.9L2.45,-6L2.85,-5.65L2.7,-5.6L2.6,-5.6C2.267,-5.5 2.167,-5.6 2.3,-5.9M1.25,-6.55L1.35,-6.6L1.45,-6.75L1.45,-6.95C1.383,-7.117 1.217,-7.167 0.95,-7.1C0.55,-6.933 0.45,-6.65 0.65,-6.25L0.8,-6.1L1.6,-6.15L1.7,-6.2L2.65,-6.3L3.05,-6.15L3.15,-6.05L3.2,-5.9L3.1,-6L2.7,-6.2L1.65,-6.05L0.7,-6L0.55,-6.15C0.283,-6.65 0.4,-7 0.9,-7.2C1.233,-7.267 1.433,-7.2 1.5,-7L1.45,-6.75L1.35,-6.6L1.45,-6.75L1.5,-7C1.433,-7.2 1.233,-7.267 0.9,-7.2C0.4,-7 0.283,-6.65 0.55,-6.15L0.7,-6L1.65,-6.05L2.7,-6.2L3.1,-6L3.2,-5.9L3.15,-6.05L3.05,-6.15L2.65,-6.3L1.7,-6.2L1.6,-6.15L0.8,-6.1L0.65,-6.25C0.45,-6.65 0.55,-6.933 0.95,-7.1C1.217,-7.167 1.383,-7.117 1.45,-6.95L1.45,-6.75L1.35,-6.6L1.25,-6.55L1.1,-6.5C1,-6.5 0.917,-6.533 0.85,-6.6C0.917,-6.533 1,-6.5 1.1,-6.5L1.25,-6.55L1.1,-6.55L0.95,-6.6L0.9,-6.7L1.05,-6.85L0.85,-6.7L0.85,-6.6L0.85,-6.7L1.05,-6.85L0.9,-6.7L0.95,-6.6L1.1,-6.55L1.25,-6.55M-5.7,-6.7L-5.5,-6.6C-5.4,-6.3 -5.5,-6.2 -5.8,-6.3L-5.9,-6.3L-6.1,-6.35C-6.1,-6.617 -5.967,-6.733 -5.7,-6.7C-5.967,-6.733 -6.1,-6.617 -6.1,-6.35L-5.9,-6.3L-5.8,-6.3C-5.5,-6.2 -5.4,-6.3 -5.5,-6.6L-5.7,-6.7M-4.55,-7.3L-4.65,-7.45L-4.65,-7.65C-4.617,-7.817 -4.467,-7.867 -4.2,-7.8C-3.8,-7.633 -3.7,-7.35 -3.9,-6.95L-4,-6.8L-4.85,-6.85L-4.95,-6.9L-5.85,-7L-6.25,-6.85L-6.35,-6.75L-6.45,-6.6L-6.35,-6.7L-5.9,-6.9L-4.9,-6.75L-3.95,-6.7L-3.75,-6.85C-3.517,-7.35 -3.65,-7.7 -4.15,-7.9C-4.483,-7.967 -4.667,-7.9 -4.7,-7.7L-4.7,-7.45L-4.65,-7.45L-4.55,-7.3L-4.5,-7.25L-4.35,-7.2L-4.1,-7.3L-4.05,-7.4C-4.083,-7.533 -4.15,-7.583 -4.25,-7.55L-4.15,-7.4L-4.15,-7.3L-4.35,-7.25L-4.5,-7.25L-4.35,-7.25L-4.15,-7.3L-4.15,-7.4L-4.25,-7.55C-4.15,-7.583 -4.083,-7.533 -4.05,-7.4L-4.1,-7.3L-4.35,-7.2L-4.5,-7.25L-4.55,-7.3L-4.65,-7.45L-4.7,-7.45L-4.7,-7.7C-4.667,-7.9 -4.483,-7.967 -4.15,-7.9C-3.65,-7.7 -3.517,-7.35 -3.75,-6.85L-3.95,-6.7L-4.9,-6.75L-5.9,-6.9L-6.35,-6.7L-6.45,-6.6L-6.35,-6.75L-6.25,-6.85L-5.85,-7L-4.95,-6.9L-4.85,-6.85L-4,-6.8L-3.9,-6.95C-3.7,-7.35 -3.8,-7.633 -4.2,-7.8C-4.467,-7.867 -4.617,-7.817 -4.65,-7.65L-4.65,-7.45L-4.55,-7.3M-8.7,-4.2L-8.9,-4.5C-9,-4.833 -8.8,-5.1 -8.3,-5.3C-7.433,-5.467 -6.95,-5.1 -6.85,-4.2L-6.9,-3.8C-7.133,-3.3 -7.6,-3.033 -8.3,-3L-8.55,-2.95C-9.183,-2.883 -9.733,-2.6 -10.2,-2.1L-10.65,-1.35L-10.65,-0.75L-10.6,-1.1L-10.15,-1.85C-9.65,-2.417 -9.017,-2.717 -8.25,-2.75C-7.483,-2.717 -6.95,-3.05 -6.65,-3.75L-6.55,-4.2C-6.683,-5.267 -7.283,-5.717 -8.35,-5.55C-8.95,-5.283 -9.183,-4.95 -9.05,-4.55L-8.7,-4.15L-8.35,-4.05L-8.7,-4.2M-8.2,-4.05L-8.35,-4.05L-8.2,-4.05L-7.9,-4.15C-7.767,-4.25 -7.667,-4.4 -7.6,-4.6L-7.65,-4.8C-7.817,-5 -7.983,-5 -8.15,-4.8C-8.017,-4.9 -7.883,-4.867 -7.75,-4.7L-7.7,-4.5L-7.9,-4.2L-8.2,-4.05M-10.4,-0.1L-10.65,-0.75L-10.4,-0.1M-9.35,-1.15C-9.417,-0.85 -9.583,-0.717 -9.85,-0.75C-10.117,-1.183 -10.017,-1.533 -9.55,-1.8L-9.15,-1.85C-8.55,-1.417 -8.433,-0.9 -8.8,-0.3C-8.433,-0.9 -8.55,-1.417 -9.15,-1.85L-9.55,-1.8C-10.017,-1.533 -10.117,-1.183 -9.85,-0.75C-9.583,-0.717 -9.417,-0.85 -9.35,-1.15M-6.5,5.05C-6.3,5.283 -6.283,5.5 -6.45,5.7C-6.917,5.7 -7.15,5.433 -7.15,4.9L-6.95,4.55C-6.283,4.25 -5.8,4.417 -5.5,5.05C-5.8,4.417 -6.283,4.25 -6.95,4.55L-7.15,4.9C-7.15,5.433 -6.917,5.7 -6.45,5.7C-6.283,5.5 -6.3,5.283 -6.5,5.05M-8.3,2.5L-8.2,2.2L-8.4,1.75L-8.6,1.7C-8.867,1.667 -8.967,1.783 -8.9,2.05C-8.9,1.883 -8.8,1.817 -8.6,1.85L-8.4,1.9C-8.3,2 -8.25,2.117 -8.25,2.25L-8.3,2.5L-8.45,2.75L-8.65,2.9L-8.45,2.75L-8.3,2.5L-8.25,2.25C-8.25,2.117 -8.3,2 -8.4,1.9L-8.6,1.85C-8.8,1.817 -8.9,1.883 -8.9,2.05C-8.967,1.783 -8.867,1.667 -8.6,1.7L-8.4,1.75L-8.2,2.2L-8.3,2.5M-8.65,2.9L-9.05,2.9C-9.383,2.8 -9.5,2.483 -9.4,1.95C-9.033,1.117 -8.45,0.917 -7.65,1.35L-7.35,1.55C-7.05,2.017 -7.083,2.567 -7.45,3.2L-7.55,3.4C-7.85,4 -7.917,4.633 -7.75,5.3L-7.35,6.05L-7.15,6.2L-7.55,5.4C-7.717,4.633 -7.617,3.933 -7.25,3.3C-6.783,2.667 -6.767,2.033 -7.2,1.4L-7.5,1.1C-8.467,0.6 -9.167,0.85 -9.6,1.85C-9.733,2.483 -9.6,2.867 -9.2,3L-8.65,2.9L-8.45,2.75L-8.65,2.9M-6.2,6.55L-6.85,6.4L-7.15,6.2L-6.85,6.4L-6.2,6.55M-2.9,7L-2.95,7.3C-3.05,7.533 -3.3,7.6 -3.7,7.5C-4.333,7.1 -4.433,6.617 -4,6.05L-3.8,5.85C-3.4,5.65 -2.967,5.733 -2.5,6.1L-2.35,6.2L-0.9,6.55C-0.667,6.55 -0.45,6.483 -0.25,6.35L-0.1,6.2C-0.333,6.333 -0.567,6.4 -0.8,6.4C-1.4,6.433 -1.933,6.283 -2.4,5.95C-2.867,5.483 -3.367,5.4 -3.9,5.7L-4.2,5.9C-4.7,6.6 -4.583,7.183 -3.85,7.65C-3.35,7.783 -3.017,7.717 -2.85,7.45L-2.85,7L-2.9,7L-3,6.8L-3.15,6.65L-3.35,6.6L-3.65,6.7L-3.7,6.85L-3.55,7.1L-3.85,6.85L-3.75,6.7L-3.35,6.6L-3.15,6.65L-3.35,6.6L-3.75,6.7L-3.85,6.85L-3.55,7.1L-3.7,6.85L-3.65,6.7L-3.35,6.6L-3.15,6.65L-3,6.8L-2.9,7L-2.85,7L-2.9,7L-3,6.8L-2.9,7M0.3,5.5L0.1,5.95L-0.1,6.2L0.1,5.95L0.3,5.5M-7.15,6.2L-7.15,6.25L-6.85,6.4L-7.15,6.25L-7.15,6.2M3.95,1.4L4.75,0.4L3.95,1.4M-0.1,6.2L-0.05,6.2L0.1,5.95L-0.05,6.2L-0.1,6.2M-0.9,5.55L-0.4,5.6C-0.467,5.967 -0.7,6.117 -1.1,6.05L-1.4,5.85C-1.533,5.283 -1.367,4.767 -0.9,4.3C-1.367,4.767 -1.533,5.283 -1.4,5.85L-1.1,6.05C-0.7,6.117 -0.467,5.967 -0.4,5.6L-0.9,5.55" style="fill:#322812;"/>
                <path d="M2.1,-3.4L-3.35,-2.2L-5.75,-4.2L-0.2,-5.45L2.1,-3.4M-8.9,6.9L-6.35,7.8L-5.35,9L-5.65,8.05L-5.6,8.1L-3.1,8.95L-3.05,8.95L-0.65,10.95L-5.25,9.3L-6.45,8.9L-8.9,6.9M-5.25,9.3L-5.35,9L-5.25,9.3" style="fill:#110b00;"/>
                <path d="M2.5,-9L4.95,-7.1L8.2,-1.2L8.2,-1.15L5.95,-3L5.95,-3.05L5.05,-4.6L5.1,-4.6L5.8,-4.8L4.75,-5.1L2.5,-9M5.05,-4.6L5.1,-4.6L5.05,-4.6M-10.65,-1.05L-10.65,-1.35L-10.2,-2.1C-9.733,-2.6 -9.183,-2.883 -8.55,-2.95L-8.3,-3C-7.6,-3.033 -7.133,-3.3 -6.9,-3.8L-6.85,-4.2C-6.95,-5.1 -7.433,-5.467 -8.3,-5.3C-8.8,-5.1 -9,-4.833 -8.9,-4.5L-8.7,-4.2L-8.7,-4.15L-9.05,-4.55C-9.183,-4.95 -8.95,-5.283 -8.35,-5.55C-7.283,-5.717 -6.683,-5.267 -6.55,-4.2L-6.65,-3.75C-6.95,-3.05 -7.483,-2.717 -8.25,-2.75C-9.017,-2.717 -9.65,-2.417 -10.15,-1.85L-10.6,-1.1L-10.65,-1.05M-7.15,6.2L-7.35,6.05L-7.75,5.3C-7.917,4.633 -7.85,4 -7.55,3.4L-7.45,3.2C-7.083,2.567 -7.05,2.017 -7.35,1.55L-7.65,1.35C-8.45,0.917 -9.033,1.117 -9.4,1.95C-9.5,2.483 -9.383,2.8 -9.05,2.9L-8.65,2.9L-9.2,3C-9.6,2.867 -9.733,2.483 -9.6,1.85C-9.167,0.85 -8.467,0.6 -7.5,1.1L-7.2,1.4C-6.767,2.033 -6.783,2.667 -7.25,3.3C-7.617,3.933 -7.717,4.633 -7.55,5.4L-7.15,6.2M-0.1,6.2L-0.25,6.35C-0.45,6.483 -0.667,6.55 -0.9,6.55L-2.35,6.2L-2.5,6.1C-2.967,5.733 -3.4,5.65 -3.8,5.85L-4,6.05C-4.433,6.617 -4.333,7.1 -3.7,7.5C-3.3,7.6 -3.05,7.533 -2.95,7.3L-2.9,7L-2.85,7L-2.85,7.45C-3.017,7.717 -3.35,7.783 -3.85,7.65C-4.583,7.183 -4.7,6.6 -4.2,5.9L-3.9,5.7C-3.367,5.4 -2.867,5.483 -2.4,5.95C-1.933,6.283 -1.4,6.433 -0.8,6.4C-0.567,6.4 -0.333,6.333 -0.1,6.2" style="fill:#303224;"/>
                <path d="M-3.4,-2.2L-3.95,-0.35L-5.2,-1.15L-4.55,-0.2L-4.2,0.4L-4.65,1.9L-4.7,2L-2.8,4.7L-3.8,4.9L-7.2,0L-7.15,-0.15L-5.9,-4.2L-5.75,-4.2L-3.35,-2.2L-3.4,-2.2M-4.65,1.9L-7.15,-0.15L-4.65,1.9" style="fill:#1b1000;"/>
                <path d="M-0.05,-9.15L-0.25,-9.55L-0.65,-9.85L-1.25,-9.95L-1.7,-9.8L-1.85,-9.7L-1.95,-9.65L-2.2,-9.25M-2.65,-8.5L-2.8,-8.05L-2.8,-7.7L-2.5,-6.85C-2.3,-6.583 -2.017,-6.45 -1.65,-6.45L-1.85,-7L-1.75,-7.75M-1.1,-6.55L-0.7,-6.85L-0.45,-7.05L-0.3,-7.25C-0.1,-7.583 0.017,-7.967 0.05,-8.4L-0.05,-9.15L-0.45,-9.05L-1.25,-8.5M-1.1,-6.55L-1.55,-6.45L-1.65,-6.45" style="fill:none;fill-rule:nonzero;stroke:#0e0000;stroke-opacity:0.38;stroke-width:0.5px;"/>
                <path d="M1.4,9.75L0.6,10.25L-0.6,10.95L-0.65,10.95L-3.05,8.95L2.35,5.6L2.25,1.8L2.25,1.75L2.25,1.8L4.75,3.85L4.85,7.6L1.4,9.75M-3.05,-9.95L-1.95,-10.5L2.45,-9.1L2.5,-9L4.95,-7.1L8.2,-1.2M8.2,-1.15L6.55,2.95L3.9,1.45L3.95,1.4L3.8,1.4L4.2,-1.5L2.1,-3.4L-3.35,-2.2L-3.4,-2.2L-3.95,-0.35L-4.55,-0.2L-4.2,0.4L-4.65,1.9L-4.7,2L-2.8,4.7L-0.9,4.3L1.2,3.85L2.25,1.8M2.1,-3.4L-0.2,-5.45L-5.75,-4.2L-3.35,-2.2M4.75,-5.1L4.8,-5.05L3.75,-3.3L5.05,-4.6L5.1,-4.6L5.8,-4.8L4.75,-5.1L2.5,-9M5.1,-4.6L5.05,-4.6L5.95,-3.05L5.95,-3L8.2,-1.15M-11.2,1L-9.8,4.6L-9.7,4.95L-8.95,6.85L-8.9,6.9L-6.35,7.8L-5.25,6.05L-5.6,8.1L-3.1,8.95L-3.05,8.95M-5.75,-4.2L-5.9,-4.2L-7.15,-0.15L-4.65,1.9M-7.15,-0.15L-7.2,0L-3.8,4.9L-2.8,4.7M-8.9,6.9L-8.95,6.9L-8.95,6.85M-5.35,9L-6.35,7.8M-5.6,8.1L-5.65,8.05L-5.35,9L-5.25,9.3L-0.65,10.95M-5.25,9.3L-6.45,8.9L-8.9,6.9M4.75,0.4L3.95,1.4L4,1.4M-4.55,-0.2L-5.2,-1.15L-3.95,-0.35M5.95,-3L4.75,0.4" style="fill:none;fill-rule:nonzero;stroke:#000;stroke-opacity:0.6;stroke-width:0.05px;"/>
                <path d="M0.85,-6.6C0.917,-6.533 1,-6.5 1.1,-6.5L1.25,-6.55L1.1,-6.55L0.95,-6.6L0.9,-6.7L1.05,-6.85L0.85,-6.7L0.85,-6.6M1.35,-6.6L1.45,-6.75L1.5,-7C1.433,-7.2 1.233,-7.267 0.9,-7.2C0.4,-7 0.283,-6.65 0.55,-6.15L0.7,-6L1.65,-6.05L2.7,-6.2L3.1,-6L3.2,-5.9L3.15,-6.05L3.05,-6.15L2.65,-6.3L1.7,-6.2L1.6,-6.15L0.8,-6.1L0.65,-6.25C0.45,-6.65 0.55,-6.933 0.95,-7.1C1.217,-7.167 1.383,-7.117 1.45,-6.95L1.45,-6.75L1.35,-6.6L1.25,-6.55M2.3,-5.9L2.45,-6L2.85,-5.65L2.7,-5.6L2.6,-5.6C2.267,-5.5 2.167,-5.6 2.3,-5.9M-4.5,-7.25L-4.35,-7.25L-4.15,-7.3L-4.15,-7.4L-4.25,-7.55C-4.15,-7.583 -4.083,-7.533 -4.05,-7.4L-4.1,-7.3L-4.35,-7.2L-4.5,-7.25L-4.55,-7.3L-4.65,-7.45L-4.7,-7.45L-4.7,-7.7C-4.667,-7.9 -4.483,-7.967 -4.15,-7.9C-3.65,-7.7 -3.517,-7.35 -3.75,-6.85L-3.95,-6.7L-4.9,-6.75L-5.9,-6.9L-6.35,-6.7L-6.45,-6.6L-6.35,-6.75L-6.25,-6.85L-5.85,-7L-4.95,-6.9L-4.85,-6.85L-4,-6.8L-3.9,-6.95C-3.7,-7.35 -3.8,-7.633 -4.2,-7.8C-4.467,-7.867 -4.617,-7.817 -4.65,-7.65L-4.65,-7.45L-4.55,-7.3M-5.7,-6.7C-5.967,-6.733 -6.1,-6.617 -6.1,-6.35L-5.9,-6.3L-5.8,-6.3C-5.5,-6.2 -5.4,-6.3 -5.5,-6.6L-5.7,-6.7M-8.7,-4.2L-8.9,-4.5C-9,-4.833 -8.8,-5.1 -8.3,-5.3C-7.433,-5.467 -6.95,-5.1 -6.85,-4.2L-6.9,-3.8C-7.133,-3.3 -7.6,-3.033 -8.3,-3L-8.55,-2.95C-9.183,-2.883 -9.733,-2.6 -10.2,-2.1L-10.65,-1.35L-10.65,-0.75L-10.4,-0.1M-10.6,-1.1L-10.15,-1.85C-9.65,-2.417 -9.017,-2.717 -8.25,-2.75C-7.483,-2.717 -6.95,-3.05 -6.65,-3.75L-6.55,-4.2C-6.683,-5.267 -7.283,-5.717 -8.35,-5.55C-8.95,-5.283 -9.183,-4.95 -9.05,-4.55L-8.7,-4.15L-8.35,-4.05L-8.2,-4.05L-7.9,-4.2L-7.7,-4.5L-7.75,-4.7C-7.883,-4.867 -8.017,-4.9 -8.15,-4.8C-7.983,-5 -7.817,-5 -7.65,-4.8L-7.6,-4.6C-7.667,-4.4 -7.767,-4.25 -7.9,-4.15L-8.2,-4.05M-8.7,-4.2L-8.35,-4.05M-10.6,-1.1L-10.65,-0.75M-8.8,-0.3C-8.433,-0.9 -8.55,-1.417 -9.15,-1.85L-9.55,-1.8C-10.017,-1.533 -10.117,-1.183 -9.85,-0.75C-9.583,-0.717 -9.417,-0.85 -9.35,-1.15M-5.5,5.05C-5.8,4.417 -6.283,4.25 -6.95,4.55L-7.15,4.9C-7.15,5.433 -6.917,5.7 -6.45,5.7C-6.283,5.5 -6.3,5.283 -6.5,5.05M-8.65,2.9L-8.45,2.75L-8.3,2.5L-8.25,2.25C-8.25,2.117 -8.3,2 -8.4,1.9L-8.6,1.85C-8.8,1.817 -8.9,1.883 -8.9,2.05C-8.967,1.783 -8.867,1.667 -8.6,1.7L-8.4,1.75L-8.2,2.2L-8.3,2.5M-7.15,6.2L-7.35,6.05L-7.75,5.3C-7.917,4.633 -7.85,4 -7.55,3.4L-7.45,3.2C-7.083,2.567 -7.05,2.017 -7.35,1.55L-7.65,1.35C-8.45,0.917 -9.033,1.117 -9.4,1.95C-9.5,2.483 -9.383,2.8 -9.05,2.9L-8.65,2.9L-8.45,2.75M-8.65,2.9L-9.2,3C-9.6,2.867 -9.733,2.483 -9.6,1.85C-9.167,0.85 -8.467,0.6 -7.5,1.1L-7.2,1.4C-6.767,2.033 -6.783,2.667 -7.25,3.3C-7.617,3.933 -7.717,4.633 -7.55,5.4L-7.15,6.2L-6.85,6.4L-6.2,6.55M-0.1,6.2L-0.25,6.35C-0.45,6.483 -0.667,6.55 -0.9,6.55L-2.35,6.2L-2.5,6.1C-2.967,5.733 -3.4,5.65 -3.8,5.85L-4,6.05C-4.433,6.617 -4.333,7.1 -3.7,7.5C-3.3,7.6 -3.05,7.533 -2.95,7.3L-2.9,7L-3,6.8L-3.15,6.65L-3.35,6.6L-3.65,6.7L-3.7,6.85L-3.55,7.1L-3.85,6.85L-3.75,6.7L-3.35,6.6L-3.15,6.65M-2.85,7L-2.9,7L-3,6.8M-2.85,7L-2.85,7.45C-3.017,7.717 -3.35,7.783 -3.85,7.65C-4.583,7.183 -4.7,6.6 -4.2,5.9L-3.9,5.7C-3.367,5.4 -2.867,5.483 -2.4,5.95C-1.933,6.283 -1.4,6.433 -0.8,6.4C-0.567,6.4 -0.333,6.333 -0.1,6.2L0.1,5.95L0.3,5.5M-6.85,6.4L-7.15,6.25L-7.15,6.2M-0.9,4.3C-1.367,4.767 -1.533,5.283 -1.4,5.85L-1.1,6.05C-0.7,6.117 -0.467,5.967 -0.4,5.6L-0.9,5.55M0.1,5.95L-0.05,6.2L-0.1,6.2" style="fill:none;fill-rule:nonzero;stroke:#321f00;stroke-width:0.1px;"/>
                <path d="M5.6,-6.1C9.7,-8.4 12.5,-9.45 14,-9.25" style="fill:none;fill-rule:nonzero;stroke:#10040a;stroke-width:0.1px;"/>
                <path d="M-7.65,-6.9L-8,-7.3L-6.85,-8.25L-4,-9.55M-8.65,-6.75L-7.65,-6.9L-6.9,-6.1L-8.65,-6.75L-10.2,-5.45L-11.6,-0.1L-11.4,0.35L-11.4,0.4" style="fill:none;fill-rule:nonzero;stroke:#000;stroke-width:0.05px;"/>
            </g>
            <g id="sprite0" transform="matrix(0.2453,-0.05,0.0601,0.2949,251.05,195.35)">
                <g id="shape1">
                    <path d="M43.35,6.1L50.1,13.45L48.85,13.95L43.85,8L40.25,12.35L40.2,12.4L40.25,12.5L44.8,18.7L44.65,21.4L43.85,22.05L42.8,24.8L35.3,27L29.4,22.9L28.9,21.35L24.9,23.15L30.45,27.15L25.3,32.15L19.55,28.7L18.7,35.15L13.7,34.4L11.15,38.15L3.5,35.9L3.7,33.9L0.35,30.95L1.85,27L3.15,29.4L5.5,23.2L9.75,25.1C7.65,25.033 6.25,25.917 5.55,27.75C3.317,33.417 5.1,36.25 10.9,36.25L11.25,35.95C14.717,31.883 14.733,28.367 11.3,25.4L16.5,25.4L16.5,31.1L18.25,31.15L18.8,26.2L23.45,29.95L25.5,27.1L20.5,23.1L28.9,19.25L27.6,17.05L33.15,11.7L34.05,11.1L34.7,10.7L38.65,11.7L43.3,6.1L43.35,6.1M7.1,13.4L12.55,7.75L15.5,10.3L15.75,11.85L15.15,11.7L9.5,15.2L7.1,13.4M16.8,12.2L17.1,11.45L17.3,11.55C19.933,13.05 22.817,13.55 25.95,13.05L28.7,13.2L22.45,13.9L16.8,12.2M21.85,3.5L20.3,4L23.6,1.6L23.9,1.65L25.75,1.85L28.9,2.2L28.2,5.8L27.9,6.4L27.6,5.8C27.6,5.033 27.4,4.383 27,3.85C26.567,3.317 26.067,3.05 25.5,3.05L23.9,2.8L21.85,3.5M41.5,23.2C41.733,22.5 41.767,21.883 41.6,21.35C40.733,18.617 39.667,15.967 38.4,13.4L35.95,12.5L34.25,13.4L30.1,17.4L31.45,21.75L35.9,24.85L41.5,23.2M39.45,2.9L39.15,3.2L34.4,7.35L32.6,8.65L29.8,10.4L20.45,8.7L20.15,7.65L19.5,5.6L27.15,8.15L29.65,5.85L32.4,2.55L29.9,0L33.3,0C35.233,1.033 37.283,2 39.45,2.9" style="fill:#d0e99e;"/>
                    <path d="M1.85,27L5.05,18.75L7.15,19.65L6.9,20.4C8.433,22.2 10.433,23.233 12.9,23.5L15.3,23.5L15.75,21.25L17.8,20.75L21.9,20.2L20.65,19.9L27.6,17.05L28.9,19.25L20.5,23.1L25.5,27.1L23.45,29.95L18.8,26.2L18.25,31.15L16.5,31.1L16.5,25.4L11.3,25.4L9.75,25.1L5.5,23.2L3.15,29.4L1.85,27M41.5,4.1L42.55,5.25L43.3,6.1L38.65,11.7L34.7,10.7L34.4,10.85L41.5,4.1" style="fill:#dfffbf;"/>
                    <path d="M50.1,13.45L51.55,15.05L51.6,16.3L51.6,16.4L50.6,17.6L50.2,18.2L49.9,18.7C50.333,19.8 50.5,20.933 50.4,22.1L50.3,25L48.3,27.1C47.5,27.767 46.5,28.367 45.3,28.9L42.6,33.7L40.1,34.3L38.85,33.55L38.5,33.15L37.9,32.6C38.2,34.167 38.05,35.717 37.45,37.25C36.983,38.417 36.25,39.383 35.25,40.15C31.983,42.517 29.067,42.367 26.5,39.7C24.467,41.533 21.9,42.167 18.8,41.6L11.9,41.9C9.567,41.533 7.333,40.867 5.2,39.9L5.05,40.1L2.75,38.55L0,35.9L0,34.8L2.35,35.75L3.35,37.95L13.6,40.8L14.9,38.9L25.1,39.2L25.3,32.15L30.45,27.15L37.4,31L36.6,29.7L39.4,29.2L41.6,30.2L46.8,23.7L44.65,21.4L44.8,18.7L40.25,12.5L40.25,12.35L43.85,8L48.85,13.95L50.1,13.45M42.1,12.5L45.1,17L47.1,15.2L44.4,10.6L42.1,12.5M34.95,30.1C33.983,29.133 32.817,28.65 31.45,28.65C30.083,28.65 28.917,29.133 27.95,30.1C26.983,31.033 26.5,32.183 26.5,33.55C26.5,34.917 26.983,36.083 27.95,37.05C28.917,37.983 30.083,38.45 31.45,38.45C32.817,38.45 33.983,37.983 34.95,37.05C35.917,36.083 36.4,34.917 36.4,33.55C36.4,32.183 35.917,31.033 34.95,30.1" style="fill:#8dbc2c;"/>
                    <path d="M15.75,11.85L16.8,12.2L22.45,13.9L21.5,14L26.4,15.35C26.667,15.383 26.883,15.5 27.05,15.7L25.7,16.7C21,15.5 17.883,14.367 16.35,13.3L15.95,13L15.3,12.15L15.15,11.7L15.75,11.85M17.1,11.45L15.7,10.45L17.35,10.85C18.683,11.283 19.867,11.933 20.9,12.8C21.067,12.667 20.1,11.85 18,10.35L17.65,10.1C17.05,9.567 17.167,9.283 18,9.25L20.3,9.4L20.65,9.45L20.45,8.7L29.8,10.4L32.6,8.65L25.95,13.05C22.817,13.55 19.933,13.05 17.3,11.55L17.1,11.45M18.8,7.25L19.5,5.6L21.85,3.5L23.9,2.8L25.5,3.05L24.9,5.6L27.6,5.8L27.9,6.4L28.2,5.8L29.65,5.85L27.15,8.15L19.5,5.6L20.15,7.65L18.8,7.25M23.9,1.65L25.7,0L29.9,0L25.75,1.85L23.9,1.65M42.1,12.5L44.4,10.6L47.1,15.2L45.1,17L42.1,12.5M41.5,23.2L35.9,24.85L31.45,21.75L30.1,17.4L34.25,13.4L35.95,12.5L38.4,13.4C39.667,15.967 40.733,18.617 41.6,21.35C41.767,21.883 41.733,22.5 41.5,23.2M39.15,3.2C39.15,4.333 38.683,5.317 37.75,6.15C36.817,6.95 35.7,7.35 34.4,7.35L39.15,3.2M9.9,16.65C13.333,17.85 16.917,18.933 20.65,19.9L21.9,20.2L17.8,20.75L15.75,21.25L15.3,23.5L12.9,23.5C10.433,23.233 8.433,22.2 6.9,20.4L7.15,19.65L8.2,15.8L9.9,16.65M11.3,25.4C14.733,28.367 14.717,31.883 11.25,35.95L10.9,36.25C5.1,36.25 3.317,33.417 5.55,27.75C6.25,25.917 7.65,25.033 9.75,25.1L11.3,25.4" style="fill:#efd;"/>
                    <path d="M0,34.8L0.35,30.95L3.7,33.9L3.5,35.9L11.15,38.15L13.7,34.4L18.7,35.15L19.55,28.7L25.3,32.15L25.1,39.2L14.9,38.9L13.6,40.8L3.35,37.95L2.35,35.75L0,34.8M44.65,21.4L46.8,23.7L41.6,30.2L39.4,29.2L36.6,29.7L37.4,31L30.45,27.15L24.9,23.15L28.9,21.35L29.4,22.9L35.3,27L42.8,24.8L43.85,22.05L44.65,21.4M40.25,12.5L40.2,12.4L40.25,12.35L40.25,12.5M34.95,30.1C35.917,31.033 36.4,32.183 36.4,33.55C36.4,34.917 35.917,36.083 34.95,37.05C33.983,37.983 32.817,38.45 31.45,38.45C30.083,38.45 28.917,37.983 27.95,37.05C26.983,36.083 26.5,34.917 26.5,33.55C26.5,32.183 26.983,31.033 27.95,30.1C28.917,29.133 30.083,28.65 31.45,28.65C32.817,28.65 33.983,29.133 34.95,30.1" style="fill:#b0d95b;"/>
                    <path d="M5.05,18.75L7.1,13.4L9.5,15.2L15.15,11.7L15.3,12.15L9.9,16.65L8.2,15.8L7.15,19.65L5.05,18.75M12.55,7.75L14.25,6.3L14.8,6.2L15.5,10.3L12.55,7.75M17.35,10.85L17.65,10.1L18,10.35C20.1,11.85 21.067,12.667 20.9,12.8C19.867,11.933 18.683,11.283 17.35,10.85M18,9.25L18.8,7.25L20.15,7.65L20.45,8.7L20.65,9.45L20.3,9.4L18,9.25M39.45,2.9L40.9,3.45L41.5,4.1L34.4,10.85L34.05,11.1L33.15,11.7L32.4,11.7L26.4,15.35L21.5,14L22.45,13.9L28.7,13.2L25.95,13.05L32.6,8.65L34.4,7.35C35.7,7.35 36.817,6.95 37.75,6.15C38.683,5.317 39.15,4.333 39.15,3.2L39.45,2.9M29.9,0L32.4,2.55L29.65,5.85L28.2,5.8L28.9,2.2L25.75,1.85L29.9,0M25.5,3.05C26.067,3.05 26.567,3.317 27,3.85C27.4,4.383 27.6,5.033 27.6,5.8L24.9,5.6L25.5,3.05M18.95,15.85L18.3,15.7L19.35,15.85L18.95,15.85" style="fill:#ecffd9;"/>
                    <path d="M26.4,15.35L32.4,11.7L33.15,11.7L27.6,17.05L20.65,19.9C16.917,18.933 13.333,17.85 9.9,16.65L15.3,12.15L15.95,13L16.35,13.3C17.883,14.367 21,15.5 25.7,16.7L27.05,15.7C26.883,15.5 26.667,15.383 26.4,15.35M19.35,15.85L18.3,15.7L18.95,15.85L21.75,16.2L19.35,15.85" style="fill:#e0ffc1;"/>
                    <path d="M18.95,15.85L19.35,15.85L21.75,16.2L18.95,15.85" style="fill:#fff;"/>
                    <path d="M51.55,15.05L54.2,17.9L53.55,19.15C52.383,21.417 51.383,23.75 50.55,26.15L50.25,27.35L46.7,28.7L46.6,28.8L49.55,31.3C45.617,35.2 41.3,38.333 36.6,40.7C34.867,41.567 33.083,42.283 31.25,42.85L29.05,42.25L26.7,42C26.333,42.367 25.85,42.65 25.25,42.85L21.4,44.3L19.55,44.3C16.017,44.1 12.533,43.35 9.1,42.05C7.667,41.517 6.317,40.867 5.05,40.1L5.2,39.9C7.333,40.867 9.567,41.533 11.9,41.9L18.8,41.6C21.9,42.167 24.467,41.533 26.5,39.7C29.067,42.367 31.983,42.517 35.25,40.15C36.25,39.383 36.983,38.417 37.45,37.25C38.05,35.717 38.2,34.167 37.9,32.6L38.5,33.15L38.85,33.55L40.1,34.3L42.6,33.7L45.3,28.9C46.5,28.367 47.5,27.767 48.3,27.1L50.3,25L50.4,22.1C50.5,20.933 50.333,19.8 49.9,18.7L50.2,18.2L50.6,17.6L51.6,16.4L51.6,16.3L51.55,15.05M17.3,43.1L19.55,44.3L17.3,43.1" style="fill:#6c9122;"/>
                    <path d="M42.55,5.25L43.35,6.1L50.1,13.45L51.55,15.05L54.2,17.9L53.55,19.15C52.383,21.417 51.383,23.75 50.55,26.15L50.25,27.35L46.7,28.7L46.6,28.8L49.55,31.3C45.617,35.2 41.3,38.333 36.6,40.7C34.867,41.567 33.083,42.283 31.25,42.85L29.05,42.25L26.7,42C26.333,42.367 25.85,42.65 25.25,42.85L21.4,44.3L19.55,44.3C16.017,44.1 12.533,43.35 9.1,42.05C7.667,41.517 6.317,40.867 5.05,40.1L2.75,38.55L0,35.9L0,34.8L0.35,30.95L1.85,27L5.05,18.75L7.1,13.4L12.55,7.75L14.25,6.3M25.7,0L24.75,0M41.5,4.1L42.55,5.25L43.3,6.1M39.45,2.9L40.9,3.45L41.5,4.1M29.9,0L33.3,0C35.233,1.033 37.283,2 39.45,2.9M25.7,0L29.9,0M19.55,44.3L17.3,43.1" style="fill:none;fill-rule:nonzero;stroke:#360;stroke-opacity:0.3;stroke-width:1px;"/>
                    <path d="M8.4,-3.4L14.1,-0.5L14.1,-8.3L17.9,1.6L20.4,-3.6L20.4,0.8L29.85,-3.75L23.9,1.65L23.6,1.6L20.3,4L21.85,3.5L19.5,5.6L18,9.25C17.167,9.283 17.05,9.567 17.65,10.1L17.35,10.85L15.7,10.45L17.1,11.45L16.8,12.2L15.75,11.85L14.8,6.2L4.65,7.65L14.7,3.8L6.2,2.8L14.55,1.55L8.4,-3.4" style="fill:#fff;"/>
                    <path d="M26.45,12.5L32.15,15.4L32.15,7.6L35.95,17.5L38.45,12.3L38.45,16.7L47.9,12.15L41.95,17.55L41.65,17.5L38.35,19.9L39.9,19.4L37.55,21.5L36.05,25.15C35.217,25.183 35.1,25.467 35.7,26L35.4,26.75L33.75,26.35L35.15,27.35L34.85,28.1L33.8,27.75L32.85,22.1L22.7,23.55L32.75,19.7L24.25,18.7L32.6,17.45L26.45,12.5" style="fill:#fff;"/>
                    <path d="M-3.25,21.5L0.3,24.95L-6.35,26.75L2.8,27.25L-1.15,30.25L2.65,29.2L0.6,37.05L4,31.5L3.9,31.35L5.4,28.4C5.3,28.8 5.25,29.217 5.25,29.65L6.55,27.45L9.45,25.5C9.317,24.9 9.517,24.767 10.05,25.1L10.65,24.7L10,23.6L11.15,24.35L11.7,24L11.2,23.25L6.15,23.9L5.45,16.25L4.1,24.4L1.6,18.5L2.15,24.8L-3.25,21.5" style="fill:#fff;"/>
                </g>
            </g>
        </g>
    </g>
</svg>
