<?xml version="1.0" encoding="UTF-8"?>
<svg version="1.1" viewBox="0 0 36.12 44.167" xmlns="http://www.w3.org/2000/svg" xmlns:cc="http://creativecommons.org/ns#" xmlns:dc="http://purl.org/dc/elements/1.1/" xmlns:rdf="http://www.w3.org/1999/02/22-rdf-syntax-ns#" xmlns:xlink="http://www.w3.org/1999/xlink">
<metadata>
<rdf:RDF>
<cc:Work rdf:about="">
<dc:format>image/svg+xml</dc:format>
<dc:type rdf:resource="http://purl.org/dc/dcmitype/StillImage"/>
</cc:Work>
</rdf:RDF>
</metadata>
<g transform="translate(-256.9 -178.35)">
<use transform="matrix(.8185 0 0 .8185 256.9 178.36)" width="44.150002" height="53.950001" xlink:href="#a"/>
</g>
<defs>
<g id="a" transform="translate(22.05,26.5)">
<use transform="translate(-22.05,-26.5)" width="44.150002" height="53.950001" xlink:href="#b"/>
</g>
<g id="b" transform="translate(22.05,26.5)">
<path d="m2.4-10.55 1.25-2.2q1.95-3.4 2.9-6.55 0.9-3.15 3.8-5.65 2.9-2.55 7.6-0.8 4.65 1.75 4 7.55-0.65 5.75-4.65 4.95l-1.85-0.4-1.05-0.35q-1.25-0.25-1.55-0.75l-1.15-0.55q-3-2.75 0.05-4.95 0.85-0.65 2.15-0.75 0.95 0.4 1.05 1.3l0.05 1.6q0.35 1.5 2.15 1.6 1.75 0.05 1.25-4.05-3.95-2.2-7.05-0.25-1.75 1.1-1.6 3.55 0.1 2.4-0.75 4.85-0.9 2.45-4.35 8.05t-8.7 12.85-4.95 5.45q0.3-1.85-0.2-1.55l-2.2 2.2-3.25 4.4q-1.8 2.4-4.35 4.15l-3 0.1q0.65-1.75 1.65-3.2l1.25-1.9-0.2 0.4 10.55-13.6 0.25-0.4q0.45-0.65 3.05-2.95l1.25-1.3q-0.4 2.4-1.6 4.65l-0.6 0.95q2.8-3.1 5.1-7 2.65-4.45 3.7-9.45m17.5-11.5q-0.6-3.25-4.45-3.9t-6.7 4.25v0.4q2.85-3.5 6.6-3.2 1.75 0.4 4.55 2.45" fill="#a1664c" fill-rule="evenodd"/>
<path d="m19.9-22.05q-2.8-2.05-4.55-2.45-3.75-0.3-6.6 3.2v-0.4q2.85-4.9 6.7-4.25t4.45 3.9" fill="#bf8c77" fill-rule="evenodd"/>
<path d="m14.4-14q-13.6 18.4-29.85 41.2l-0.05 0.05-0.15 0.2-0.1-0.25q-3.45-0.1-4.5-0.95l-1.2-1.1q-0.7-0.75-0.55-1.8l-0.05-0.1h0.05l3-0.1q2.55-1.75 4.35-4.15l3.25-4.4 2.2-2.2q0.5-0.3 0.2 1.55-0.3 1.8 4.95-5.45t8.7-12.85 4.35-8.05q0.85-2.45 0.75-4.85-0.15-2.45 1.6-3.55 3.1-1.95 7.05 0.25 0.5 4.1-1.25 4.05-1.8-0.1-2.15-1.6l-0.05-1.6q-0.1-0.9-1.05-1.3-1.3 0.1-2.15 0.75-3.05 2.2-0.05 4.95l-0.35-0.15 0.35 0.15 1.15 0.55q0.3 0.5 1.55 0.75m-18.6 14.3q1.9-2.1 3.6-5.35l3-5.5q-1.05 5-3.7 9.45-2.3 3.9-5.1 7l0.6-0.95q1.2-2.25 1.6-4.65m-12.25 26.55 0.4-0.2 0.3 0.55-0.3-0.55-0.4 0.2q-0.4-0.8 0.4-0.2l0.6 0.55-0.6-0.55q-0.8-0.6-0.4 0.2m0.95 0.4-0.25-0.05 0.25 0.05" fill="#58382b" fill-rule="evenodd"/>
<path d="m2.4-10.55 1.25-2.2q1.95-3.4 2.9-6.55 0.9-3.15 3.8-5.65 2.9-2.55 7.6-0.8 4.65 1.75 4 7.55-0.65 5.75-4.65 4.95l-1.85-0.4m-31.2 40.85q-3.45-0.1-4.5-0.95l-1.2-1.1m-0.55-1.9q0.65-1.75 1.65-3.2l1.25-1.9-0.2 0.4 10.55-13.6 0.25-0.4q0.45-0.65 3.05-2.95l1.25-1.3q1.9-2.1 3.6-5.35l3-5.5m9.3-4.75q-3-2.75 0.05-4.95 0.85-0.65 2.15-0.75 0.95 0.4 1.05 1.3l0.05 1.6q0.35 1.5 2.15 1.6 1.75 0.05 1.25-4.05m-5.55 5.8q0.3 0.5 1.55 0.75m-30.85 40.85q-0.4-0.8 0.4-0.2l0.6 0.55m-0.3 0 0.25 0.05" fill="none" stroke="#000" stroke-linecap="round" stroke-linejoin="round" stroke-width=".1"/>
<path d="m11.35-15.45 0.35 0.15" fill="none" stroke="#4a2502" stroke-linecap="round" stroke-linejoin="round" stroke-width=".1"/>
<path d="m15.45-13.65-1.05-0.35q-13.6 18.4-29.85 41.2l-0.05 0.05m-0.25-0.05-0.3-0.55-0.4 0.2" fill="none" stroke="#000" stroke-linecap="round" stroke-linejoin="round" stroke-width=".1"/>
</g>
</defs>
</svg>
