<?xml version="1.0" encoding="UTF-8"?>
<svg width="93px" height="119px" version="1.1" viewBox="242.05 211.85 93.45 118.75" xmlns="http://www.w3.org/2000/svg" xmlns:xlink="http://www.w3.org/1999/xlink">
<defs>
<g id="g">
<path d="m2.45-1.35-0.2-0.25-0.15-0.15-0.3-0.55q-0.5-0.8-0.35-1.35l0.1-0.4q0.5-0.85 2.25-0.6h0.2l0.35 0.05 0.2 0.05 0.65 0.2 0.2 0.05 1.15 0.5 0.35 0.15 0.45 0.25 0.25 0.15 0.5 0.25 1.45 1.1 0.5 0.5 0.6 0.7q1.1 1.4 0.65 2.3l-0.1 0.1-1.35 2.35-0.4 0.4-1.9 0.2 1.45-2.45-0.95-0.15-0.55-0.2h-0.1l-1.7-0.75-0.45-0.25-0.3-0.15-0.4-0.3-0.6-0.4-0.25-0.2-0.15-0.15-0.3-0.2-0.8-0.8" fill="#82c4cc"/>
<path d="m1.05 1.1 1.4-2.45 0.8 0.8 0.3 0.2 0.15 0.15 0.25 0.2q2.95 2.4 2.65 3l-0.45 1.35q-0.9-0.3-1.85-0.8l-0.45-0.3-0.3-0.15-0.4-0.25-0.3-0.25-0.75-0.5-0.25-0.25-0.15-0.1-0.65-0.65" fill="#425a68"/>
<path d="m7.55 4.65-0.9-0.2-0.5-0.1 0.45-1.35q0.3-0.6-2.65-3l0.6 0.4 0.4 0.3 0.3 0.15 0.45 0.25 1.7 0.75h0.1l0.55 0.2 0.95 0.15-1.45 2.45" fill="#5f829a"/>
<path d="m0-1.25 0.4-0.65-0.4 0.65 0.15-0.35 0.25-0.3 1.05-1.75q-0.15 0.55 0.35 1.35l0.3 0.55 0.15 0.15 0.2 0.25-1.4 2.45-0.2-0.3-0.15-0.15q-0.65-0.9-0.7-1.55v-0.35" fill="#344650"/>
<path d="m4.35-4.6 0.2 0.05 0.65 0.2 0.2 0.05 1.15 0.5 0.35 0.15 0.45 0.25 0.25 0.15 0.5 0.25 1.45 1.1 0.5 0.5 0.6 0.7q1.1 1.4 0.65 2.3l-0.1 0.1-1.35 2.35-0.4 0.4-1.9 0.2-0.9-0.2-0.5-0.1q-0.9-0.3-1.85-0.8l-0.45-0.3-0.3-0.15-0.4-0.25-0.3-0.25-0.75-0.5-0.25-0.25-0.15-0.1-0.65-0.65" fill="none" stroke="#585143" stroke-width=".5"/>
<path d="m0.4-1.9-0.4 0.65v0.35q0.05 0.65 0.7 1.55l0.15 0.15 0.2 0.3m0.4-4.75-1.05 1.75-0.25 0.3-0.15 0.35m1.45-2.4 0.1-0.4q0.5-0.85 2.25-0.6h0.2l0.35 0.05" fill="none" stroke="#344650" stroke-width=".5"/>
</g>
<radialGradient id="b" cx="0" cy="0" r="819.2" gradientTransform="matrix(.005127 0 0 .005127 4.05 0)" gradientUnits="userSpaceOnUse">
<stop stop-color="#fff" offset="0"/>
<stop stop-color="#fff" stop-opacity="0" offset="1"/>
</radialGradient>
<g id="a">
<path d="m4.05-4.05q1.7 0 2.85 1.15 1.2 1.2 1.2 2.9t-1.2 2.85q-1.15 1.2-2.85 1.2t-2.9-1.2q-1.15-1.15-1.15-2.85t1.15-2.9q1.2-1.15 2.9-1.15" fill="url(#b)"/>
</g>
<g id="f">
<path d="m1.85 47.95-0.4-1.05q-1-3.75 0.85-6.5l1.5-0.45q1.35 1.55 7.65 4.8 6.35 3.35 4.45 7.15-4.85 3.25-14.05-3.95" fill="#f5eed3"/>
<path d="m2.2 40.4q-0.2-1.55 0.8-2.75 1.15-1.3 3.05-1.35l1.3 0.15q0.5 0.1 0.95 0.35h0.3 0.25 0.25 0.75l0.75 0.1 8.25 5.05q-0.5 0.85-2 0.95 2.4 0.25 3.95 3.5l0.05 1.55q-0.15 1.65-0.95 3.1l-0.5 0.75-1.6 1.7-1.35 0.75-0.85 0.35-2.2 0.4h-0.05l-0.4 0.05q-3.85 0.2-7.15-1.95-1.35-0.95-2.3-2.1l-0.4-0.5-0.4-0.65-0.15-0.2-0.7-1.7q9.2 7.2 14.05 3.95 1.9-3.8-4.45-7.15-6.3-3.25-7.65-4.8l-1.5 0.45h-0.1m7.8-2.35-0.6-0.5q-0.55-0.45-1.1-0.75 0.55 0.3 1.1 0.75l0.6 0.5" fill="#dec696"/>
<path d="m18.85 41.95 1.05 0.6 0.3 1.55 0.35 0.9 0.25 1.4q-1.55-3.25-3.95-3.5 1.5-0.1 2-0.95" fill="#ba9a74"/>
<path d="m2.2 40.4q-0.2-1.55 0.8-2.75 1.15-1.3 3.05-1.35l1.3 0.15q0.5 0.1 0.95 0.35h0.3 0.25 0.25 0.75m10.05 5.75 0.3 1.55 0.35 0.9 0.25 1.4 0.05 1.55q-0.15 1.65-0.95 3.1l-0.5 0.75-1.6 1.7-1.35 0.75-0.85 0.35-2.2 0.4h-0.05l-0.4 0.05q-3.85 0.2-7.15-1.95-1.35-0.95-2.3-2.1l-0.4-0.5-0.4-0.65-0.15-0.2-0.7-1.7-0.4-1.05q-1-3.75 0.85-6.5m6-3.6q0.55 0.3 1.1 0.75l0.6 0.5" fill="none" stroke="#423213" stroke-opacity=".50196" stroke-width=".5"/>
<path d="m2.05 41.7 2.05 7.95q-1.6-0.3-2.85-1.65-1.4-1.55-1.35-3.3l0.2-1.15q0.45-0.9 1.4-1.45l0.55-0.4" fill="#f5eed3"/>
<path d="m4.1 49.65q-1.6-0.3-2.85-1.65-1.4-1.55-1.35-3.3l0.2-1.15q0.45-0.9 1.4-1.45l0.55-0.4" fill="none" stroke="#423213" stroke-opacity=".50196" stroke-width=".5"/>
<path d="m14.8 27.75 0.75 0.05 9.3 5.65q-0.05 0.6 0.3 1.6l0.4 0.9 0.2 1.4q0.35 2.95-1.4 5.4-1.15 1.55-2.95 2.45l-0.85 0.3-2.25 0.45q-4 0.35-7.5-1.95l-2.35-2.05-0.4-0.55-0.4-0.65-0.15-0.2-0.35-0.9-0.95-0.85q-1.35-1.5-1.3-3.2 0-0.65 0.25-1.2 0.4-0.85 1.3-1.45v-0.05l0.2-0.55q0.3-0.7 0.75-1.3 1.75-2.45 4.85-3.05l1.3-0.3 0.25 0.05 0.3-0.05 0.7 0.05m-7.65 11.9q0.9 0.6 2 0.85-1.1-0.25-2-0.85" fill="#dec696"/>
<path d="m24.85 33.45q-0.05 0.6 0.3 1.6l0.4 0.9 0.2 1.4q0.35 2.95-1.4 5.4-1.15 1.55-2.95 2.45l-0.85 0.3-2.25 0.45q-4 0.35-7.5-1.95l-2.35-2.05-0.4-0.55-0.4-0.65-0.15-0.2-0.35-0.9-0.95-0.85q-1.35-1.5-1.3-3.2 0-0.65 0.25-1.2 0.4-0.85 1.3-1.45v-0.05l0.2-0.55q0.3-0.7 0.75-1.3 1.75-2.45 4.85-3.05l1.3-0.3 0.25 0.05 0.3-0.05 0.7 0.05m-5.65 12.75q-1.1-0.25-2-0.85" fill="none" stroke="#423213" stroke-opacity=".50196" stroke-width=".5"/>
<path d="m10.3 34.8-0.8-2.8q-0.8-4.15 1.25-7.3l1.3-0.55-0.15 0.7q-0.3 5.45 8.9 10.6-2.15 2.25-4.45 3l-6.05-3.65" fill="#f5eed3"/>
<path d="m29.15 25.7q-0.1 0.6 0.2 1.65l0.3 1.05 0.15 1.5q0.15 2.35-0.9 4.55l-0.95 1.75q-1.4 1.8-3.3 2.95l-0.95 0.5-2.35 0.65-1.75 0.15-1.15-0.05q-2.6-0.1-4.85-1.65l-0.1-0.05q-1.3-0.9-2.25-2.2l-0.3-0.5-0.45-0.7-0.1-0.2-0.1-0.3 6.05 3.65q2.3-0.75 4.45-3-9.2-5.15-8.9-10.6l0.15-0.7-1.3 0.55q-0.1-1.8 1.05-3.2 1.3-1.6 3.3-1.7 0.6-0.2 1.3 0 0.55 0 1 0.3l0.3-0.05h0.25l0.35-0.1h0.8l0.75 0.05 9.3 5.7m-10.05-4.25-0.6-0.55q-0.55-0.6-1.1-0.8 0.55 0.2 1.1 0.8l0.6 0.55" fill="#dec696"/>
<path d="m29.15 25.7q-0.1 0.6 0.2 1.65l0.3 1.05 0.15 1.5q0.15 2.35-0.9 4.55l-0.95 1.75q-1.4 1.8-3.3 2.95l-0.95 0.5-2.35 0.65-1.75 0.15-1.15-0.05q-2.6-0.1-4.85-1.65l-0.1-0.05q-1.3-0.9-2.25-2.2l-0.3-0.5-0.45-0.7-0.1-0.2-0.1-0.3-0.8-2.8q-0.8-4.15 1.25-7.3-0.1-1.8 1.05-3.2 1.3-1.6 3.3-1.7 0.6-0.2 1.3 0 0.55 0 1 0.3l0.3-0.05h0.25l0.35-0.1h0.8m-1.7 0.15q0.55 0.2 1.1 0.8l0.6 0.55" fill="none" stroke="#423213" stroke-opacity=".50196" stroke-width=".5"/>
<path d="m10.5 26.25 1.5 8.85q-1.65-0.25-2.85-1.7-1.35-1.6-1.15-3.65l0.3-1.3q0.55-1.05 1.55-1.75l0.65-0.45" fill="#f5eed3"/>
<path d="m12 35.1q-1.65-0.25-2.85-1.7-1.35-1.6-1.15-3.65l0.3-1.3q0.55-1.05 1.55-1.75l0.65-0.45" fill="none" stroke="#423213" stroke-opacity=".50196" stroke-width=".5"/>
<path d="m12.6 21.2 1.55 0.9q5.3 5.75 9 7.5 3.6 1.7 6.55 1.3l-0.5 1.6q-10.1 1.9-15.2-5.9-3-3.7-1.4-5.4" fill="#544d36" fill-opacity=".32157"/>
<path d="m12.6 21.2 1.4-1.15 4.55-0.65q5.55 1.6 5.55 1.4l5.25 3.2q-0.1 0.65 0.2 1.75l0.3 1 0.1 1.55-0.25 2.6q-2.95 0.4-6.55-1.3-3.7-1.75-9-7.5l-1.55-0.9" fill="#1a1611" fill-opacity=".55294"/>
<path d="m21.4 15.9 0.3 0.05 0.95 0.25 0.2 0.1 1.6 0.55 0.4 0.2 0.65 0.3 0.35 0.15 0.7 0.35 1.95 1.45 0.15 0.05 0.55 0.5 0.85 0.9q1.6 1.85 0.95 3.05l-0.05 0.1-1.7 3.25-0.6 0.5q-0.7 0.55-2.45 0.35l1.75-3.3-1.25-0.15-0.7-0.25-0.2 0.05-2.2-0.95-0.7-0.35-0.35-0.15-0.6-0.35-0.35-0.25-0.85-0.55-0.2-0.1-0.4-0.3-0.15-0.2-0.7-0.65-0.2-0.15-0.25-0.35-0.25-0.2-0.5-0.65q-0.6-1.05-0.45-1.85l0.1-0.45q0.65-1.2 2.95-1h0.3l0.4 0.05m0.55 5.65 0.4 0.2 0.6 0.45 0.35 0.15 0.7 0.35 2.25 0.85 0.15 0.05 0.7 0.2 0.5 0.05 0.8 0.05 0.2 0.05q1.1 0 1.45-0.55l0.1-0.15q0.45-0.9-1-2.4l-0.3-0.35-0.55-0.5-0.15-0.15-1.95-1.35-0.7-0.35-0.35-0.15-0.6-0.35-0.45-0.15-1.6-0.55-0.2-0.1-1-0.15-0.15-0.05h-0.1l-0.45-0.05q-1.45-0.1-1.9 0.6l-0.15 0.4q0 0.55 0.6 1.45l0.1 0.1 0.3 0.35 0.05 0.15 0.15 0.05 0.65 0.75 0.2 0.1 0.4 0.3 0.95 0.7" fill="#82c4cc"/>
<path d="m24.35 27.7-2.5-1-0.7-0.35-0.35-0.15-0.6-0.35-0.35-0.25-1-0.65-0.45-0.3-0.85-0.85-0.2-0.15 1.75-3.3 0.2 0.15 0.7 0.65 0.15 0.2 0.4 0.3 0.2 0.1q4.5 3.3 4.05 4.1l-0.45 1.85m2.05-4.1-0.15-0.05-2.25-0.85-0.7-0.35-0.35-0.15-0.6-0.45-0.4-0.2 2.15-4.05 0.45 0.15 0.6 0.35 0.35 0.15 0.7 0.35 1.95 1.35 0.15 0.15-1.9 3.6" fill="#425a68"/>
<path d="m21.95 21.55-0.95-0.7-0.4-0.3-0.2-0.1-0.65-0.75 1.55-3 1 0.15 0.2 0.1 1.6 0.55-2.15 4.05" fill="#6d91a3"/>
<path d="m26.2 28-1.2-0.15-0.65-0.15 0.45-1.85q0.45-0.8-4.05-4.1l0.85 0.55 0.35 0.25 0.6 0.35 0.35 0.15 0.7 0.35 2.2 0.95 0.2-0.05 0.7 0.25 1.25 0.15-1.75 3.3m-6.45-8.3-0.15-0.05-0.05-0.15-0.3-0.35-0.1-0.1q-0.6-0.9-0.6-1.45l0.15-0.4q0.45-0.7 1.9-0.6l0.45 0.05h0.1l0.15 0.05-1.55 3" fill="#5f829a"/>
<path d="m17.35 23.65-0.25-0.35-0.25-0.2q-0.85-1.1-1-2.05-0.05-0.2 0.05-0.45l0.1-0.45 0.35-0.4 1.3-2.45q-0.15 0.8 0.45 1.85l0.5 0.65 0.25 0.2 0.25 0.35-1.75 3.3m10.95-3.65 0.55 0.5 0.3 0.35q1.45 1.5 1 2.4l-0.1 0.15q-0.35 0.55-1.45 0.55l-0.2-0.05-0.8-0.05-0.5-0.05-0.7-0.2 1.9-3.6m-12.4 0.6 0.45-0.85-0.45 0.85" fill="#344650"/>
<path d="m21.4 15.9 0.3 0.05 0.95 0.25 0.2 0.1 1.6 0.55 0.4 0.2 0.65 0.3 0.35 0.15 0.7 0.35 1.95 1.45 0.15 0.05 0.55 0.5 0.85 0.9q1.6 1.85 0.95 3.05l-0.05 0.1-1.7 3.25-0.6 0.5q-0.7 0.55-2.45 0.35l-1.2-0.15-0.65-0.15-2.5-1-0.7-0.35-0.35-0.15-0.6-0.35-0.35-0.25-1-0.65-0.45-0.3-0.85-0.85-0.2-0.15" fill="none" stroke="#585143" stroke-width=".5"/>
<path d="m17.35 23.65-0.25-0.35-0.25-0.2q-0.85-1.1-1-2.05-0.05-0.2 0.05-0.45l0.1-0.45 0.35-0.4 1.3-2.45 0.1-0.45q0.65-1.2 2.95-1h0.3l0.4 0.05m-5.05 3.85-0.45 0.85" fill="none" stroke="#344650" stroke-width=".5"/>
</g>
<g id="e">
<path d="m26.1 38.3q-1.05 1.75-4.35 1.3l-1.05-0.05m-7.3-3.3q-2.8-1.95-4.25-4.3l-0.45-0.65" fill="none" stroke="#425a68"/>
<path d="m20.7 39.55q-2.85-0.6-6.05-2.55l-1.25-0.75" fill="none" stroke="#5f829a"/>
<path d="m8.7 31.3q-1.25-2.1-0.55-3.55" fill="none" stroke="#233036"/>
<path d="m16.95 29.8q-1.75-2.4-2.75-4.7l-0.4-1.25m14.9 11.65q-1 1.65-3.9 0.55l-1.85-0.85" fill="none" stroke="#425a68"/>
<path d="m22.95 35.2q-2.05-1.2-4.2-3.35l-1.8-2.05" fill="none" stroke="#5f829a"/>
<path d="m13.8 23.85q-0.75-2.3-0.2-3.65" fill="none" stroke="#233036"/>
<path d="m24.1 39.6q-0.7 1.35-2.85 2.1-2.6 1-5.8 0.85m-4.25-0.7q-2.2-0.55-3.9-1.7-1.35-0.8-1.95-1.75" fill="none" stroke="#425a68"/>
<path d="m15.45 42.55-1.3-0.15-2.95-0.55" fill="none" stroke="#5f829a"/>
<path d="m5.35 38.4q-0.65-0.8-0.55-1.55" fill="none" stroke="#233036"/>
<path d="m20.25 17.3-0.35 0.7 0.1-0.4 0.25-0.3" fill="#cdc098"/>
<path d="m32.6-5.6h4.3l-14.6 27.05-0.35-0.25-1.25-1.2q-0.8-1-0.85-1.65l0.05-0.35 0.35-0.7 12.35-22.9" fill="#b3ae88"/>
<path d="m22.3 21.45 14.6-27.05h7.2l-15.85 29.4-1-0.1-2.55-0.85-2.4-1.4" fill="#978e62"/>
<path d="m44.1-5.6h2l-15.5 28.65-0.4 0.45q-0.6 0.45-1.95 0.3l15.85-29.4" fill="#756f4d"/>
<path d="m32.6-5.6-12.35 22.9-0.35 0.7-0.05 0.35q0.05 0.65 0.85 1.65l1.25 1.2 0.35 0.25m23.8-27.05-15.5 28.65-0.4 0.45q-0.6 0.45-1.95 0.3l-1-0.1-2.55-0.85-2.4-1.4m-2.4-3.45 0.1-0.4 0.25-0.3" fill="none" stroke="#585143" stroke-width=".5"/>
<path d="m45.7-4.8-7.8 14.4h-13.45l7.75-14.4h13.5" fill="#353124" fill-opacity=".33333"/>
<path d="m16.9-53.7 5.45 3.35 1.5 5.65 0.9 0.3q0.6 3 0.7 6.1 0.05 1.25 0.35 2.4l-4.8-2.65-0.05 0.05-0.1-0.05 0.15-0.15-3.2-11-0.9-4m10.15 10.55 8.1 4.4q1.25 0.7 1.75 2.1l0.1 0.35 1.85 7.55-1.1 0.25-9.8-5.35 0.05-0.15 0.5 0.3-0.5-0.4-0.05 0.05v-0.05l-1.5-1.2-0.15-0.15 0.15 0.15-0.05-0.05h0.05l0.45 0.3 0.35 0.25t0.1 0.05l-0.85-0.85 0.85 0.8 0.05 0.05h0.05l0.4 0.25q0.05-2.9-0.4-6.05l-0.4-2.6m34.8 18.95 12.1 6.75 0.9 0.45 2.75 9.85-12.15-6.3-3.6-10.75m14.5 3.15 5.8 3 3.95 14.7-5.3-2.9-0.05 0.05-0.1-0.05 0.15-0.15-3.2-11-1.25-3.65" fill="#d9d6c4"/>
<path d="m38.2-20.3 7.7 4.2 0.1 0.05 3.6 10.6q-0.6-0.15-1.1-0.4l-10.25-5.6q-1.7-0.95-1.95-3.05-0.25-2.15 1-4.3l0.9-1.5" fill="#544d36"/>
<path d="m39.25-26.95 0.45 1.5q0.2 1.85-0.7 3.7l-0.8 1.45-0.9 1.5q-1.25 2.15-1 4.3 0.25 2.1 1.95 3.05l10.25 5.6q0.5 0.25 1.1 0.4 1.2 0.2 2.6-0.4l2.05-1.35 1.25-1.65 1.8-2.9 1.35-1.5 1.6-1 1.75-0.4 1.95 0.45 1.5 0.75 12.15 6.3 0.15 0.55-0.3 0.9-13.25 22.95-1.45-0.8-49.3-26.85 0.8-1.45 3.35-5.15 6.75-10.95 3.6-6.1 0.05 0.05-0.05 0.15 9.8 5.35q1 0.55 1.5 1.55" fill="#aca582"/>
<path d="m38.85-28.75 0.4 1.8q-0.5-1-1.5-1.55l1.1-0.25" fill="#cbcaad"/>
<path d="m55.45-22.9q1-1.1 2.2-1.6l2.5-0.4 1.2 0.45 0.5 0.25 3.6 10.75-1.5-0.75-1.95-0.45-1.75 0.4-1.6 1-3.2-9.65" fill="#b7ad91"/>
<path d="m50.9-16.85q1.15-0.85 2-2.25l1.8-2.9 0.75-0.9 3.2 9.65-1.35 1.5-1.8 2.9-1.25 1.65-3.35-9.65m-37.45 6.45-1.4-0.75 13.95-23.4 0.45-0.75 1.5 1.2v0.05l0.05-0.05 0.5 0.4-0.5-0.3-0.05-0.05-3.6 6.1-6.75 10.95-3.35 5.15-0.8 1.45m13.45-24.65-0.45-0.3 0.05-0.05 0.4 0.35m-0.6-0.6 0.05-0.05 0.1 0.15-0.15-0.1" fill="#796f4f"/>
<path d="m73.95-17.45 2.35-3.8 0.05 0.2 1.25 3.65 3 11.15 0.05 0.05-16.45 27.65-1.45-5 1.45 0.8 13.25-22.95 0.3-0.9-0.15-0.55-2.75-9.85-0.9-0.45" fill="#605a3e"/>
<path d="m20.85-38.55v0.05l-16.45 27.65-4.35-15.1 16.6-27.85 0.25 0.1 0.9 4 3 11.15h0.05m3.9-5.85 0.15 0.05 2.15 1.2 0.4 2.6q0.45 3.15 0.4 6.05l-0.4-0.25h-0.05l-0.05-0.05-0.85-0.8 0.85 0.85q-0.1-0.05-0.1-0.05l-0.35-0.25-0.4-0.35 0.05-0.1-0.1-0.05-0.1-0.15-0.05 0.05-0.5-0.25q-0.3-1.15-0.35-2.4-0.1-3.1-0.7-6.1" fill="#b3ae88"/>
<path d="m80.75-6.2 5.45 3 0.1 0.1-16.55 27.75-5.6-3.1 16.6-27.75m-68.7-4.95-2.1 3.5-5.6-3.1 2.6-4.35 0.05-0.05 13.95-23.35 4.9 2.7 0.15 0.4 0.15 0.5-0.15 0.35-13.95 23.4" fill="#9d966c"/>
<path d="m80.65-6.25v0.05l-0.05-0.05h0.05" fill="#c2bfa3"/>
<path d="m46-16.05q1.6 0.8 3.6-0.05 0.7-0.3 1.3-0.75l3.35 9.65-2.05 1.35q-1.4 0.6-2.6 0.4l-3.6-10.6" fill="#60573e"/>
<path d="m31.45-34.25-2-6.9 7.6-12.7 0.1 0.05 0.05 0.25 0.1-0.2 1.05-2.45 2.15 7h-0.05l-0.3 0.65-0.9 1.8h-0.05l-0.05 0.1-0.05-0.15v-0.05l-0.1-0.05v0.05l-0.05-0.05 0.05-0.05-1.45-5.05 1.4 5.1-0.8 1.45-6.7 11.2" fill="#b3ae88"/>
<path d="m39.25-46.75 0.9-1.8-0.85 1.8h-0.05m-1.95-7-0.1 0.2-0.05-0.25 0.15 0.05" fill="#cbcaad"/>
<path d="m31.45-34.25 6.7-11.2 0.85-1.4 0.1 0.05 0.05 0.15 0.05-0.1 0.05 0.05 0.05-0.05 0.85-1.8 0.3-0.65 1.55 0.75 7.9 4.1-1.3 2.7-0.1-0.05-3.7 5.5-2.4-1.2-0.15-0.2v-0.05l0.75-1.25-0.3 0.85-0.3 0.65 2.8-4.3 0.8-1.3-0.05-0.05-4.5-2.3-0.15 0.3-0.8 1.3-6.5 10.95-2.55-1.4v-0.05" fill="#c2bfa3"/>
<path d="m40.5-43.75 0.8-1.3 0.15-0.3 4.5 2.3-0.75 1.35-2.8 4.3 0.3-0.65 0.3-0.85-0.75 1.25-1.75-6.1" fill="#605a3e"/>
<path d="m40.5-49.2-2.15-7 9.6 4.8 1.95 7.05-7.9-4.1-1.5-0.75" fill="#d9d6c4"/>
<path d="m65.15-25.1-2-6.9 3.8-5.5 0.1 0.05 1.1-2.6 2.15 7h-0.05l-0.3 0.65-0.15 0.3-0.85 1.6-0.9-3.15 0.1 0.4 0.7 2.7-0.75 1.4-2.8 4.3 0.3-0.65 0.3-0.85-0.75 1.25" fill="#b3ae88"/>
<path d="m68.15-33.25-0.1-0.4 0.9 3.15 0.85-1.6-0.8 1.6h-0.05l-0.05-0.05v0.05l-0.05-0.05 0.05-0.05-0.75-2.65m9.6 7.4 0.15 0.55-2.45-1.35v0.05l-0.05-0.05 0.05-0.05-0.1-0.4 2.4 1.25" fill="#cbcaad"/>
<path d="m65.15-25.1 0.75-1.25-0.3 0.85-0.3 0.65 2.8-4.3 0.8-1.35 0.1 0.05v-0.05l0.95-1.9 0.3-0.65 1.55 0.75 2.4 1.25 5.5 2.85-1.3 2.7-0.65-0.35-2.4-1.25-0.1-0.05-3.85-2-3.7 5.5-2.4-1.2-0.15-0.2v-0.05m10.3-1.5 2.5 1.35-0.2 0.45-7.3 12.25-2.55-1.4v-0.05l0.75-1.25 5.1-8.55 1.7-2.8" fill="#c2bfa3"/>
<path d="m70.3-33.05-2.15-7 9.6 4.8 1.95 7.05-5.5-2.85-2.4-1.25-1.5-0.75" fill="#d9d6c4"/>
<path d="m67.9-14-2-6.9 1.7-2.8 0.1 0.05 3.7-5.5 3.85 2 0.15 0.5-0.8 1.45-0.85 1.4-5.1 8.55-0.75 1.25" fill="#605a3e"/>
<path d="m30.25-16.9-3.15-1.55m6.3-1.05-8.4-4.15-4.45 8.5 7.5 3.7 2.75-5.15m29.85 11.65 8.25 4.45-5 8.25-7.4-3.95 3.05-5.05m0.55 0.3 3.05 1.65" fill="none" stroke="#446273"/>
<path d="m19.5-34.55-0.05-0.4 0.85-5.15 2.7 2.75-3.5 2.8m50.6 0.4 5.45 3.55-6.1-2.05 0.65-1.5m-29.9-16.4 2.3 1.7-2.3 0.95v-2.65" fill="#eae7dd"/>
<path d="m76-3.15-0.05 0.4-6.5-3.85 7.55 1.95-1 1.5m-9 16.2-1 1.5-0.05 0.4-15.35-9.15 16.4 7.25" fill="#544d36"/>
<path d="m40.9-18.75 0.1-0.4q0.5-0.85 2.25-0.6h0.2l0.35 0.05 0.2 0.05 0.65 0.2 0.2 0.05 1.15 0.5 0.35 0.15 0.45 0.25 0.25 0.15 0.5 0.25 1.45 1.1 0.5 0.5 0.6 0.7q1.1 1.4 0.65 2.3l-0.1 0.1-1.35 2.35-0.4 0.4-1.9 0.2 1.45-2.45-0.95-0.15-0.55-0.2h-0.1l-1.7-0.75-0.45-0.25-0.3-0.15-0.4-0.3-0.6-0.4-0.25-0.2-0.15-0.15-0.3-0.2-0.8-0.8-0.2-0.25-0.15-0.15-0.3-0.55q-0.5-0.8-0.35-1.35" fill="#82c4cc"/>
<path d="m45.6-10.75-1.85-0.8-0.45-0.3-0.3-0.15-0.4-0.25-0.3-0.25-0.75-0.5-0.25-0.25-0.15-0.1-0.65-0.65 1.4-2.45 0.8 0.8 0.3 0.2 0.15 0.15 0.25 0.2q2.95 2.4 2.65 3l-0.45 1.35" fill="#425a68"/>
<path d="m47-10.45-0.9-0.2-0.5-0.1 0.45-1.35q0.3-0.6-2.65-3l0.6 0.4 0.4 0.3 0.3 0.15 0.45 0.25 1.7 0.75h0.1l0.55 0.2 0.95 0.15-1.45 2.45" fill="#5f829a"/>
<path d="m40.5-14-0.2-0.3-0.15-0.15q-0.65-0.9-0.7-1.55v-0.35l0.15-0.35 0.25-0.3 1.05-1.75q-0.15 0.55 0.35 1.35l0.3 0.55 0.15 0.15 0.2 0.25-1.4 2.45m-1.05-2.35 0.4-0.65-0.4 0.65" fill="#344650"/>
<path d="m43.8-19.7 0.2 0.05 0.65 0.2 0.2 0.05 1.15 0.5 0.35 0.15 0.45 0.25 0.25 0.15 0.5 0.25 1.45 1.1 0.5 0.5 0.6 0.7q1.1 1.4 0.65 2.3l-0.1 0.1-1.35 2.35-0.4 0.4-1.9 0.2-0.9-0.2-0.5-0.1-1.85-0.8-0.45-0.3-0.3-0.15-0.4-0.25-0.3-0.25-0.75-0.5-0.25-0.25-0.15-0.1-0.65-0.65" fill="none" stroke="#585143" stroke-width=".5"/>
<path d="m40.5-14-0.2-0.3-0.15-0.15q-0.65-0.9-0.7-1.55v-0.35l0.15-0.35 0.25-0.3 1.05-1.75 0.1-0.4q0.5-0.85 2.25-0.6h0.2l0.35 0.05m-3.95 2.7-0.4 0.65" fill="none" stroke="#344650" stroke-width=".5"/>
</g>
<g id="d">
<path d="m78-25.7-0.15 0.5-4.25 7.1q0.25 0.1 0.45 0.25l2.35-3.8 0.05 0.2 5.8 3 3.9 14.8 0.15 0.05 0.1 0.1-16.55 27.75-5.6-3.1 0.05-0.1-1.45-5-22.05-12-2.8 5.15-6.85 12.7q0.3 0.85-0.05 1.5l-0.05 0.15-1.25 2.3 0.15 0.5 0.1 1.55-0.2 2.35q-0.05 1.95-0.85 3.75l-1 1.75-0.15 0.2-1.75 1.85-0.2 0.15v0.35q-0.15 2.2-1.45 4.05-1.15 1.55-2.95 2.45l-0.75 0.3 0.15 0.9 0.05 1.55q-0.15 1.65-0.95 3.1l-0.5 0.75-1.6 1.7-1.35 0.75-0.85 0.35-2.2 0.4h-0.05l-0.4 0.05-1.95-0.05-0.8 1.35-0.4 0.4-1.9 0.2-0.9-0.2-0.5-0.1-1.85-0.8-0.45-0.3-0.3-0.15-0.4-0.25-0.3-0.25-0.75-0.5-0.25-0.25-0.15-0.1-0.65-0.65-0.2-0.3-0.15-0.15q-0.65-0.9-0.7-1.55v-0.35l0.15-0.35 0.25-0.3 1.05-1.75v-0.05l-0.6-0.6q-1.3-1.5-1.3-3.25l0.25-1.15q0.4-0.9 1.3-1.5 0.3-0.9 0.85-1.7h-0.1q-0.2-1.55 0.8-2.75 0.8-0.9 1.95-1.2l-0.05-0.85q0-0.65 0.25-1.2 0.4-0.85 1.3-1.45v-0.05l0.2-0.55 0.75-1.3 0.6-0.75v-0.45l0.05-0.15 0.3-1.15q0.45-1.05 1.45-1.8 0.35-1.1 1-2.1l-0.1 0.05q-0.1-1.75 1.1-3.2 0.8-0.95 1.85-1.4l1.45-0.4h1.25l1.3-2.4 0.15-0.45q0.6-1.2 2.95-1l0.25 0.05h0.05l9.2-17.15-18.2-9.9-2.1 3.5-5.6-3.1 0.05-0.1-4.35-15.1 16.6-27.85 0.25 0.1 5.45 3.35 1.5 5.65 1.05 0.35 4.85 2.65 7.3-12.15 0.1 0.05 0.15 0.05 1.05-2.45 9.6 4.8 1.95 7.05-1.3 2.7-0.1-0.05-3.7 5.5-2.4-1.2-0.15-0.2v-0.05l-1.75-6.1-3.85 6.5 0.25 0.6 0.1 0.35 2.25 9.35 0.45 1.5q0.2 1.85-0.7 3.7l-0.8 1.45 2.7 1.45 0.1-0.3q0.5-0.85 2.25-0.6h0.2l0.35 0.05 0.2 0.05 0.65 0.2 0.2 0.05 1.15 0.5 0.35 0.15 0.45 0.25 0.25 0.15 0.5 0.25 1.45 1.1 0.8 0.8 1.1-0.65q1.15-0.85 2-2.25l1.8-2.9 0.75-0.9q1-1.1 2.2-1.6l2.5-0.4 1.2 0.45 5 2.8 1.25-2.05-2.3-1.15-0.15-0.2v-0.05l-2-6.9 3.8-5.5 0.1 0.05 1.1-2.6 9.6 4.8 1.95 7.05-1.3 2.7" fill="none" stroke="#2f4046"/>
</g>
<g id="c">
<path d="m298.35 246.2-0.15-0.45 0.6 0.3-0.45 0.15m-29.25-15.75-0.15-0.05h0.15v0.05m-2.2 61-2.4-1.65 5.3-9.2q3.2 2.1 7.55 1.2l-5.75 11.15h-0.1l-0.65-0.1-1.75-0.45-2.2-0.95" fill="#aca582"/>
<path d="m324.95 242.4 5.85 3.5 4.7 14.75-21.05 36.3-6.6-3.95 1.6-2.65 17.7-29.4h0.15l-0.15-0.15 2.2-3.5-4.4-14.9m-16.8-4.25 14.35 7.75 4.65 14.9v0.15l-28.35-14.9 3.65-1.05 5.25 1.5 3.65-2.95-3.2-5.4m27.35 22.5-6.15-3.35 6.15 3.35m-47.15-21.4-0.3-1.55 9.7 2.25-9.4-0.6v-0.1m6.25 2.1 3.2 0.05-2.6 1.3-0.6-1.35" fill="#950b0e"/>
<path d="m307.15 289.05-17.4-9.2 8.75-4.7-1.9-10.65-8.5-7.35 10.4-2.45 2.2-2.95-2.35-5.55 0.45-0.15 28.35 14.9-17.7 29.4-2.3-1.3m0.7-47.8 0.2 1.25-2.9 2.2-0.05 0.05-1.9-1.4 3.8-2.3 0.85 0.2m-28.6 16.8 0.05-1.5 5.2 0.3-5.25 1.2m-4.15-7.65q-1.5-2.25 0.55-6.5 7.7 6.25 16.3 8.2-7.45-1.25-14.25-1.1l-2.6-0.6m-0.15 13.55 2.95-1.6 0.1 0.1 1.55 1.75 9 3.75-5.25-0.65-7.7-1.9-0.65-1.45m12.2 11.15-0.3-1.2 4.55 0.6-4.2 0.6h-0.05" fill="#7e0a0d"/>
<path d="m307.85 293-0.7-3.95 2.3 1.3-1.6 2.65m14.65-47.1h0.15l2.05-3.8 0.25 0.3 4.4 14.9-2.2 3.5-4.65-14.9" fill="#66090b"/>
<path d="m283 276.3-2.65 4.55-3 0.95q-4.35 0.9-7.55-1.2l-1.85-1.65 4.25-8.35 10.8 5.7m-28.7 52.7-0.95 1.6-1.65-0.15q-2.8-0.4-4.8-1.6-3-1.75-4.4-5.3l-0.15-0.35 0.95-1.55q1.35 3.75 4.5 5.6 2 1.2 4.8 1.6l1.7 0.15m-7.15-72.15-5.1-15.5 17.25-29.1 4.4 12.3h-0.15v0.15l-0.9 7v0.15l-15.5 25m30.8-21.75v0.05l-5.95 6.5 3.1-7.55 0.35-0.3 0.3-7.4 2.15 8.6-0.05 0.1h0.1m-31.45 15.9 1 3.1 2.85-4.3-2.65 2-1.2-0.8" fill="#686246"/>
<path d="m268.95 230.4-6.3 1.45v-0.15l0.9-7h0.15l5.4 5.7h-0.15" fill="#87805a"/>
<path d="m289.75 279.85-6.75-3.55-10.8-5.7-24.9-13.15-0.15-0.6 15.5-25 6.3-1.45 0.15 0.05 6.35 3.35-0.35 0.3-3.1 7.55 5.95-6.5v-0.05 0.05l20.25 10.6 0.15 0.45 2.35 5.55-2.2 2.95-10.4 2.45 8.5 7.35 1.9 10.65-8.75 4.7m2.6-46.65 1.2-2.05v-0.05q0.8 1.95 2.25 2.9l1.4 1.35-3.55 1.75-0.1 0.05-0.3-0.3-0.3-0.6-0.15-0.15q-0.8-1-0.9-1.75v-0.45l0.45-0.7m10.55 4.5h1.75l-1.3 2.35-0.6 0.45-1.6 0.15 1.75-2.95m-46.95 6.6 9.4-10.05 8.9 0.4-6.3-3.1-5.1 1.15-6.9 11.6m23.3 13.75 5.25-1.2-5.2-0.3-0.05 1.5m-4.3 5.9 0.65 1.45 7.7 1.9 5.25 0.65-9-3.75-1.55-1.75-0.1-0.1-2.95 1.6m0.15-13.55 2.6 0.6q6.8-0.15 14.25 1.1-8.6-1.95-16.3-8.2-2.05 4.25-0.55 6.5m-24.75 5.75 0.85-3.8-2.75 4.3 3.7 1.95-1.8-2.45m36.8 18.95h0.05l4.2-0.6-4.55-0.6 0.3 1.2" fill="#958d64"/>
<path d="m291.9 233.9 0.15-0.45 0.3-0.25-0.45 0.7" fill="#344650"/>
<path d="m297.2 235.35q2.35 2.1 5.7 2.35l-1.75 2.95h-0.45l-1.2-0.15-0.4-0.15-1-0.35-0.3-0.1-1.5-0.75-0.3-0.25-0.4-0.3-0.45-0.3-0.75-0.6-0.6-0.3-0.25-0.25 0.1-0.05 3.55-1.75" fill="#57533c"/>
<path d="m263.55 295.2 3.35-3.75 2.2 0.95-1.3 5.15-1.2-0.45q-1.8-0.65-3.25-1.7l0.2-0.2" fill="#fc0"/>
<path d="m273.5 293 1 4.4-0.05 0.15-0.1 0.1-1.05 0.2h-0.25l-2.2 0.1v-5.1l0.65 0.1h0.1l1.9 0.05" fill="#ff6"/>
<path d="m267.8 297.55 1.3-5.15 1.75 0.45v5.1l-3.05-0.4" fill="#ffc"/>
<path d="m259.3 289.8 3.95-1.2 1.25 1.2 2.4 1.65-3.35 3.75-0.3 0.1 0.3-0.1-0.2 0.2-0.1-0.1q-2.05-1.55-3.4-3.95l-0.05-0.15-0.65-1.3 0.15-0.1" fill="#e1b500"/>
<path d="m243.05 320.8-0.4-1.65 16.5-29.25 0.65 1.3 0.05 0.15-16.8 29.45m20.3-25.4q1.45 1.05 3.25 1.7l-5.1 5.25-0.15 9.95-4.7 3.05-0.85 5-2.8 1.6-0.4 6.9q-2.8-0.4-4.8-1.6l15.45-31.95 0.1 0.1" fill="#363"/>
<path d="m255.05 329.05-0.75-0.05-1.7-0.15 0.4-6.9 2.8-1.6 0.85-5 4.7-3.05 0.15-9.95 5.1-5.25 1.2 0.45 3.05 0.4 2.2-0.1-18 31.2" fill="#3f7c3f"/>
<path d="m274.35 297.65-17.1 31.3-2.2 0.1 18-31.2h0.25l1.05-0.2" fill="#7c9f48"/>
<path d="m243.3 321.65-0.25-0.85 16.8-29.45q1.35 2.4 3.4 3.95l-15.45 31.95q-3.15-1.85-4.5-5.6" fill="#234723"/>
<path d="m280.35 280.85-6.85 12.15-1.9-0.05 5.75-11.15 3-0.95m-17.1 7.75-0.15-0.15 4.85-9.5 1.85 1.65-5.3 9.2-1.25-1.2" fill="#c0bba0"/>
<path d="m259.45 211.95 34.35 18.45q0.7-0.7 2.5-0.45h0.3l0.3 0.15h0.3l0.7 0.3h0.15l1.45 0.6 0.3 0.15 0.6 0.25 0.9 0.45 1.6 1.35 0.15 0.1 0.4 0.45 0.75 0.75 0.6 1 0.3 1.05 3.05 1.6 3.2 5.4-3.65 2.95-5.25-1.5-3.65 1.05-0.6-0.3-20.25-10.6v-0.05h-0.1l0.05-0.1-2.15-8.6-0.3 7.4-6.35-3.35v-0.05l-5.4-5.7v-0.15l-4.4-12.3 0.15-0.3m34.35 18.45-0.15 0.3-0.1 0.4 0.1-0.4 0.15-0.3m-0.25 0.7v0.05l-1.2 2.05-0.3 0.25-0.15 0.45v0.45q0.1 0.75 0.9 1.75l0.15 0.15 0.3 0.6 0.55 0.55 0.6 0.3 0.75 0.6 0.45 0.3 0.4 0.3 0.3 0.25 1.5 0.75 0.3 0.1 1 0.35 0.4 0.15 1.2 0.15h0.45l1.6-0.15 0.6-0.45 1.3-2.35h-1.75q-3.35-0.25-5.7-2.35l-1.4-1.35q-1.45-0.95-2.25-2.9m11.55 5.45-0.15 0.6-0.15 0.1-0.15 0.45 0.15-0.45 0.15-0.1 0.15-0.6m-16.75 2.7v0.1l9.4 0.6-9.7-2.25 0.3 1.55m6.25 2.1 0.6 1.35 2.6-1.3-3.2-0.05m9.75-5.25 0.45-0.6-0.45 0.6m3.5 5.15-0.85-0.2-3.8 2.3 1.9 1.4 0.05-0.05 2.9-2.2-0.2-1.25m-38.5-11.45 4.25 1.4-6.5-4.95-5.75-12.25 3.15 10.4 4.85 5.4" fill="#c1bca4"/>
<path d="m246.5 251 1.2 0.8 2.65-2-2.85 4.3-1-3.1" fill="#7b7453"/>
<path d="m255.95 244.3 6.9-11.6 5.1-1.15 6.3 3.1-8.9-0.4-9.4 10.05m-5.6 11.85 1.8 2.45-3.7-1.95 2.75-4.3-0.85 3.8" fill="#a49c77"/>
<path d="m269.35 229.8-4.85-5.4-3.15-10.4 5.75 12.25 6.5 4.95-4.25-1.4" fill="#dad7c9"/>
<path d="m324.95 242.4 5.85 3.5 4.7 14.75-21.05 36.3-6.6-3.95-0.7-3.95-17.4-9.2-6.75-3.55-2.65 4.55-6.85 12.15 1 4.4m-0.05 0.15-0.1 0.1m-17.1 31.3-2.2 0.1-0.75-0.05m-11-7.35-0.25-0.85-0.4-1.65 16.5-29.25v-0.1h0.15l3.95-1.2-0.15-0.15 4.85-9.5 4.25-8.35-24.9-13.15-0.45-0.3 0.3-0.3-5.1-15.5 17.25-29.1-0.15-0.4 0.3 0.1 34.35 18.45m11.3 6.15 3.05 1.6 14.35 7.75h0.15l2.05-3.8 0.25 0.3 4.4 14.9 6.15 3.35m-8.35 0.15 2.2-3.5m-2.2 3.65v-0.15m0 0.15h0.15l-0.15-0.15m-31.35-26.8 1.4 1.35q2.35 2.1 5.7 2.35h1.75m-11.1-0.55 0.1-0.05 3.55-1.75m3.95 5.3 1.75-2.95m-4.55 8.5-0.15-0.45 0.6 0.3m-20.85-10.9v-0.05m-8.85-4.65-0.15-0.05m-21.8 26.45 0.15 0.6m79.85 3.5-17.7 29.4-1.6 2.65m-9.5-46.8 0.45-0.15m6-10.55-0.45 0.6m-45.05-23.85 0.15-0.3m3.2 19.9v-0.15m0.9-7v-0.15l0.15 0.15v-0.15m5.4 5.85h-0.15m-9.8 59.5 0.65 1.3 0.05 0.15q1.35 2.4 3.4 3.95l0.3-0.1m3.35-3.75-2.4-1.65-1.25-1.2m-3.95 1.2-0.15 0.1m18.2-8.1 3-0.95m-12.4-1.9 1.85 1.65q3.2 2.1 7.55 1.2m-5.75 11.15 1.9 0.05m-10.15 2.4q1.45 1.05 3.25 1.7l1.2 0.45 3.05 0.4 2.2-0.1h0.25l1.05-0.2m-5.25-5.25-2.2-0.95m2.2 0.95 1.75 0.45 0.65 0.1m11.5-16.65-10.8-5.7m-8.95 24.7 0.1 0.1m46.1-5.05-2.3-1.3" fill="none" stroke="#000" stroke-opacity=".30196" stroke-width=".5"/>
<path d="m274.5 297.4-0.05 0.15m-0.1 0.1-17.1 31.3m-3.9 1.65-1.65-0.15q-2.8-0.4-4.8-1.6-3-1.75-4.4-5.3m10.1 5.3 1.7 0.15m-6.5-1.75q2 1.2 4.8 1.6m-9.3-7.2q1.35 3.75 4.5 5.6" fill="none" stroke="#000" stroke-opacity=".30196" stroke-width=".5"/>
<path d="m293.8 230.4q0.7-0.7 2.5-0.45h0.3l0.3 0.15m-3.35 1 0.1-0.4 0.15-0.3m-1.45 2.8 1.2-2.05v-0.05m-0.45 5.45-0.15-0.3-0.15-0.15q-0.8-1-0.9-1.75v-0.45m0.45-0.7-0.45 0.7" fill="none" stroke="#344650" stroke-width=".5"/>
<path d="m296.9 230.1h0.3l0.7 0.3h0.15l1.45 0.6 0.3 0.15 0.6 0.25 0.9 0.45 1.6 1.35 0.15 0.1 0.4 0.45 0.75 0.75 0.6 1 0.3 1.05m-0.45 1.15 0.15-0.45 0.15-0.1 0.15-0.6m-11.55 0.6-0.3-0.3-0.15-0.3m8.05 4.1h-0.45l-1.2-0.15-0.4-0.15-1-0.35-0.3-0.1-1.5-0.75-0.3-0.25-0.4-0.3-0.45-0.3-0.75-0.6-0.6-0.3-0.25-0.25m11.1 0.55-1.3 2.35-0.6 0.45-1.6 0.15" fill="none" stroke="#585143" stroke-width=".5"/>
</g>
</defs>
<use transform="matrix(.18054 0 0 .18054 287.9 268.05)" xlink:href="#g"/>
<use transform="matrix(.0048523 .035568 .050644 -.0069122 289.5 268.3)" xlink:href="#a"/>
<use transform="matrix(.18054 0 0 .18054 287.85 258.6)" xlink:href="#f"/>
<use transform="matrix(.0083313 .047012 .066971 -.011871 292.85 262.85)" xlink:href="#a"/>
<use transform="matrix(-.3004 -.10695 -.10086 .28331 291.25 267.75)" xlink:href="#a"/>
<use transform="matrix(.18054 0 0 .18054 287.85 258.6)" xlink:href="#e"/>
<use transform="matrix(.0048523 .035568 .050644 -.0069122 296.55 256.1)" xlink:href="#a"/>
<use transform="matrix(.18054 0 0 .18054 287.75 258.65)" xlink:href="#d"/>
<use xlink:href="#c"/>
</svg>
