<?xml version="1.0" encoding="UTF-8"?>
<svg version="1.1" viewBox="0 0 81.544 81.544" xmlns="http://www.w3.org/2000/svg" xmlns:cc="http://creativecommons.org/ns#" xmlns:dc="http://purl.org/dc/elements/1.1/" xmlns:rdf="http://www.w3.org/1999/02/22-rdf-syntax-ns#" xmlns:xlink="http://www.w3.org/1999/xlink">
<metadata>
<rdf:RDF>
<cc:Work rdf:about="">
<dc:format>image/svg+xml</dc:format>
<dc:type rdf:resource="http://purl.org/dc/dcmitype/StillImage"/>
</cc:Work>
</rdf:RDF>
</metadata>
<g transform="translate(-235.11 -160.01)">
<use transform="translate(235.1,160)" width="81.550003" height="81.550003" xlink:href="#a"/>
</g>
<defs>
<g id="a" transform="translate(-235.1,-160)">
<path d="m299.6 166.4q4.3-2.2 5.85-0.55l0.1 0.1-3.45 1.95q-0.9-1.3-5.55 1.55l3.05-3.05m6.45 4.15-0.8 1.2-3.85 0.35q1.05-1.15 1.25-2.05l3.4 0.5m-3 3.5-14 14-0.85 0.55-0.3 0.1q-1.25 0.45-2.4-0.3l-2.7-2.7q1.35 0.85 2.8 0.7l1.35-0.45 0.85-0.45 1.2-1 10.9-10.9 3.15 0.45m-61.55 50.45 3-3q-2.8 4.6-1.55 5.55l-1.9 3.4-0.1-0.1q-1.65-1.55 0.55-5.85m3.6 3.1 2.05-1.25-0.35 3.85-1.2 0.8-0.5-3.4m3.55-2.75 10.95-10.95 1-1.2 0.45-0.85 0.45-1.35q0.15-1.45-0.7-2.8l2.7 2.7q0.7 1.2 0.3 2.4l-0.1 0.3-0.55 0.85-14.05 14.05-0.45-3.15" fill="#e0e6ed" fill-rule="evenodd"/>
<path d="m305.55 165.95q1.9 2.1 0.5 4.6l-3.4-0.5q0.35-1.25-0.55-2.15l3.45-1.95m-0.3 5.8-0.35 0.45-1.85 1.85-3.15-0.45 1.5-1.5 3.85-0.35m-62.3 55.3q0.95 0.85 2.15 0.55l0.5 3.4q-2.45 1.35-4.55-0.55l1.9-3.4m4.2-0.7 1.5-1.5 0.45 3.15-1.8 1.8-0.5 0.4 0.35-3.85" fill="#fff" fill-rule="evenodd"/>
<path d="m299.6 166.4 5.55-5.55q1.65-1.35 3.25-0.25l4.95 4.95-1.85 1.35 5.05-1.85-9.55 9.55-4.9 0.4 2.8-2.8 0.35-0.45 0.8-1.2q1.4-2.5-0.5-4.6l-0.1-0.1q-1.55-1.65-5.85 0.55m2.15 13.45h-0.5l-2.7-1.3 0.8-0.8 4.45 0.05-2.05 2.05m-46.85 46.85-2 2-0.1-4.4 0.85-0.85 1.25 2.75v0.5m-5.2 5.2-9.55 9.55 1.85-5.05-1.35 1.85-4.95-4.95q-1.1-1.6 0.25-3.25l5.55-5.55q-2.2 4.3-0.55 5.85l0.1 0.1q2.1 1.9 4.55 0.55l1.2-0.8 0.5-0.4 2.75-2.75-0.35 4.85" fill="#8a8a8a" fill-rule="evenodd"/>
<path d="m316.55 165.05-5.05 1.85 1.85-1.35 3.2-0.5m-76.4 76.4 0.5-3.2 1.35-1.85-1.85 5.05" fill="#545454" fill-rule="evenodd"/>
<path d="m302.1 175 4.9-0.4-3.2 3.2-4.45-0.05 2.75-2.75m-3.55 3.55 2.7 1.3-4.05 0.05 1.35-1.35m-2.35 3.35 0.05-0.05 4.45-0.95-1.25 1.25-3.2-0.3-0.05 0.05m-38.95 42.45-1.3 1.3 1-4.5 0.3 3.2m-4.35 4.35-3.2 3.2 0.35-4.85 2.75-2.75 0.1 4.4m0.75-5.25 1.35-1.35-0.1 4.1-1.25-2.75" fill="#787878" fill-rule="evenodd"/>
<path d="m301.25 179.85h0.5l-1.05 1.05-4.45 0.95-0.05 0.05-0.9-0.1 1.9-1.9 4.05-0.05m-15.75 8.55q1.15 0.75 2.4 0.3l0.3-0.1 3.8 1-2.65 2.65-3.85-3.85m4.6-1.4 2.7-2.7 4.55-0.05-2 2-2.85-0.65 2.45 1.05-2.2 2.2-2.65-1.85m-22.75 27.25-2.65 2.65-1-3.8 0.1-0.3q0.4-1.2-0.3-2.4l3.85 3.85m-3.4 3.4-2.2 2.2-1.1-2.4 0.65 2.85-1.95 1.95v-4.5l2.7-2.7 1.9 2.6m-8 8-1.05 1.05v-0.5l0.1-4.1 1.9-1.9 0.05 0.95-1 4.5" fill="#545454" fill-rule="evenodd"/>
<path d="m295.3 181.8 0.9 0.1 0.05-0.05 3.2 0.3-2.1 2.1-4.55 0.05 2.5-2.5m-6.1 6.1 0.9-0.9 2.65 1.85-3.55-0.95m-29.85 34.35-2.1 2.1-0.3-3.2-0.05-0.95 2.45-2.45v4.5m2.7-7.2 0.95-0.95 0.95 3.55-1.9-2.6" fill="#666" fill-rule="evenodd"/>
<path d="m282.8 185.7 8.75 8.75-0.65 1.15-10.35-10.35q-1.9 1-4.7 4.5 1.5-2.4 3.65-4.35 1.75-1.25 2.55-0.45l0.75 0.75" fill="#ba0101" fill-rule="evenodd"/>
<path d="m288.2 188.6 0.85-0.55 0.15-0.15 3.55 0.95-0.75 0.75-3.8-1m7.15-2.35-0.4 0.4-2.45-1.05 2.85 0.65m-30.65 30.65-0.75 0.75-0.95-3.55 0.15-0.15 0.55-0.85 1 3.8m-2.95 2.95-0.45 0.45-0.65-2.85 1.1 2.4" fill="#424242" fill-rule="evenodd"/>
<path d="m270.9 211.4 2.05 2.05q-1.55 1.95-2.1 1.6l-9.8-9.8q-0.45-0.55 0.8-2.2 2.2-2.1 5.05-3.35-2.05 2.95-2.2 5.5l6.2 6.2m4.05-20.05 0.9-1.6q2.8-3.5 4.7-4.5l10.35 10.35q-0.5 0.7-1.1 0.6l-9.45-9.45q-2.85 1.25-5.4 4.6" fill="#8a0000" fill-rule="evenodd"/>
<path d="m291.55 194.45 0.1 0.4q-0.65 2.25-3.1 3l-8.25-8.25q-2.55 0.15-5.55 2.25l0.2-0.5q2.55-3.35 5.4-4.6l9.45 9.45q0.6 0.1 1.1-0.6l0.65-1.15m-18.6 19q-0.8 2.5-3.2 3.2l-9.7-9.7q-0.8-0.8 0.45-2.55l1.35-1.35q-1.25 1.65-0.8 2.2l9.8 9.8q0.55 0.35 2.1-1.6" fill="#600" fill-rule="evenodd"/>
<path d="m286.85 196.15q-0.65 0.35-1.15 0.85l-4.4-4.4 0.35-1.65 5.2 5.2m-2.9 2.1-1 1-0.7-2.3 0.5 0.4 1.2 0.9m-12.35 12.05-0.7 1.1-0.15-0.15-0.75-2.15-0.9-2.8-0.2-0.7 0.45-0.25 2.25 4.95" fill="#420f42" fill-rule="evenodd"/>
<path d="m276.6 199.5-0.05-0.05q2.1-1 3.6-3l1.45 1.95q-1.5 1.2-2.95 2.35l-2.05-1.25m5.25-6.35 1.8 1.8-0.9 2.4-0.5-0.4-1.25-0.85 0.85-2.95m-5 7.3 2.1 1.3-3.55 2.65-0.5-0.6-0.7-0.8q1.55-1.05 2.65-2.55m-2.2 3.7-3.2 4-1.8-2.9 3.65-2.75 1.35 1.65m-5.55 2.15 0.9 2.8-3.05-2.65 2.15-0.15" fill="#944994" fill-rule="evenodd"/>
<path d="m285.7 197-1.15 1.45-0.6-0.2-1.2-0.9 0.9-2.4 2.05 2.05m-2.75 2.25 0.15 0.45-2.65 2.25 0.45 0.45q-2.2 1.4-3.95 3.95l-0.45-0.55q-2.4 2-4.05 4.85l-0.85-0.35-2.25-4.95-0.05-0.65 0.35 0.55 1.8 2.9 3.2-4 0.25-0.35 0.5 0.6 3.55-2.65-2.1-1.3-0.6-0.4 0.35-0.55 2.05 1.25q1.45-1.15 2.95-2.35l-1.45-1.95-0.2-0.3-0.05-0.45 0.85-1.05-0.25 1.05 0.5 0.4 1.25 0.85 0.7 2.3m-18.25 5.95 1.55 0.65 0.7 0.6 3.05 2.65 0.75 2.15-6.05-6.05m15.75-3.25-1.8-1.2 1.8 1.2m-3.95 3.85-1.1-1.4 1.1 1.4" fill="#636" fill-rule="evenodd"/>
<path d="m266.25 205.85 2.65-0.25 0.2 0.7-2.15 0.15-0.7-0.6m3.05-1.15v-0.1l3.95-2.75 0.55 0.55q1.55-0.85 2.45-2.35l0.6 0.4q-1.1 1.5-2.65 2.55l-0.4-0.6 0.4 0.6 0.7 0.8-0.25 0.35-1.35-1.65-3.65 2.75-0.35-0.55m7.25-5.25-0.55-0.45q2.2-1.2 3.9-3.3l0.05 0.45 0.2 0.3q-1.5 2-3.6 3m4.2-4.8 0.55-2.05 0.55 0.55-0.85 2.95-0.5-0.4 0.25-1.05" fill="#af61af" fill-rule="evenodd"/>
<path d="m313.35 165.55-4.95-4.95q-1.6-1.1-3.25 0.25l-5.55 5.55q4.3-2.2 5.85-0.55l0.1 0.1q1.9 2.1 0.5 4.6l-0.8 1.2-0.35 0.45-9.6 9.6m11.7-7.2 9.55-9.55m-3.2 0.5 3.2-0.5m-12.75 12.75 3.2-3.2m-5.25 5.25 2.05-2.05m-3.1 3.1 1.05-1.05m-2.3 2.3 1.25-1.25m1.95-10.85q-0.2 0.9-1.25 2.05l-1.5 1.5m-0.3-7.2-3.05 3.05q4.65-2.85 5.55-1.55 0.9 0.9 0.55 2.15m-17.15 18.35q1.15 0.75 2.4 0.3l0.3-0.1 0.85-0.55 6.25-6.25m-12.5 3.9q1.35 0.85 2.8 0.7l1.35-0.45 0.85-0.45 1.2-1 10.9-10.9m-24.05 16.15q1.5-2.4 3.65-4.35 1.75-1.25 2.55-0.45l0.75 0.75m12.15 0.95 4.5-4.5m-4.5 4.5-5.6 5.6 2.2 2.2 0.1 0.4q-0.65 2.25-3.1 3l-1.7-1.7q-0.65 0.35-1.15 0.85l-1.15 1.45-0.6-0.2-1 1 0.15 0.45-2.65 2.25 0.45 0.45q-2.2 1.4-3.95 3.95l-0.45-0.55q-2.4 2-4.05 4.85l-0.85-0.35-0.7 1.1 2.05 2.05q-0.8 2.5-3.2 3.2l-2.4-2.4-27.2 27.2 0.5-3.2-4.95-4.95q-1.1-1.6 0.25-3.25l8.55-8.55q-2.8 4.6-1.55 5.55 0.95 0.85 2.15 0.55l2.05-1.25 12.45-12.45 1-1.2 0.45-0.85 0.45-1.35q0.15-1.45-0.7-2.8l-0.75-0.75q-0.8-0.8 0.45-2.55l1.35-1.35q2.2-2.1 5.05-3.35-2.05 2.95-2.2 5.5l1.55 0.65 2.65-0.25 0.45-0.25-0.05-0.65v-0.1l3.95-2.75 0.55 0.55q1.55-0.85 2.45-2.35l0.35-0.55-0.05-0.05-0.55-0.45q2.2-1.2 3.9-3.3l0.85-1.05 0.55-2.05 0.35-1.65-1.35-1.35q-2.55 0.15-5.55 2.25l0.2-0.5 0.9-1.6m13.5 2.5-3.85-3.85m-4.5 7.7-0.5-0.4 0.25-1.05m-2.1 6.1 1.8 1.2m1.8-5 0.7 2.3m-0.2-1.9-0.5-0.4-1.25-0.85m2.95 2.15-1.2-0.9m-7.35 7.05 1.1 1.4m0.1-6.3 2.05 1.25m-3.25 3.65-0.5-0.6-0.7-0.8-0.4-0.6m-3.05 8.85 0.15 0.15m-1.55-6.05 2.25 4.95m-0.85 0.95-6.05-6.05m22.15-9.05-5.2-5.2m-17.95 22.15 0.1-0.3q0.4-1.2-0.3-2.4m-0.5 3.7 0.15-0.15 0.55-0.85m-1.65 1.95 0.95-0.95m-0.95 0.95-2.7 2.7m-4.35 4.35 4.35-4.35m-18.3 12.7q2.1 1.9 4.55 0.55l1.2-0.8 0.5-0.4 7.7-7.7m-13.5 2.4q-2.2 4.3-0.55 5.85l0.1 0.1" fill="none" stroke="#000" stroke-linecap="round" stroke-linejoin="round" stroke-opacity=".4" stroke-width=".2"/>
<path d="m282.8 185.7 2.7 2.7" fill="none" stroke="#000" stroke-linecap="round" stroke-linejoin="round" stroke-opacity=".4" stroke-width=".2"/>
<path d="m290.9 195.6 0.65-1.15m-16.6-3.1q2.55-3.35 5.4-4.6l9.45 9.45q0.6 0.1 1.1-0.6m-29.05 7.45q-1.25 1.65-0.8 2.2l9.8 9.8q0.55 0.35 2.1-1.6" fill="none" stroke="#c30" stroke-linecap="round" stroke-linejoin="round" stroke-width=".2"/>
</g>
</defs>
</svg>
