<?xml version="1.0" encoding="UTF-8" standalone="no"?>
<!DOCTYPE svg PUBLIC "-//W3C//DTD SVG 1.1//EN" "http://www.w3.org/Graphics/SVG/1.1/DTD/svg11.dtd">
<svg width="100%" height="100%" viewBox="0 0 443 471" version="1.1" xmlns="http://www.w3.org/2000/svg" xmlns:xlink="http://www.w3.org/1999/xlink" xml:space="preserve" xmlns:serif="http://www.serif.com/" style="fill-rule:evenodd;clip-rule:evenodd;stroke-linecap:round;stroke-linejoin:round;">
    <g transform="matrix(1,0,0,1,-59.2711,-167.597)">
        <g transform="matrix(10.8208,0,0,10.8208,-2754.35,-3957.31)">
            <g id="shape0">
                <path d="M299.35,384.85C299.617,385.117 299.433,385.317 298.8,385.45L297.65,386.4L300.3,385.85L300.4,384.9C299.9,384.033 299.033,383.433 297.8,383.1L294.35,382.2L293.7,382.1L293.35,382.8C297.117,383.267 299.117,383.95 299.35,384.85M293.7,382.1L291.65,381.8L287.6,381.7L285.5,381.95L283.55,382.35L282.8,382.55L286.05,382.65L290.6,382.5L293.35,382.8M298.8,385.45C298,385.65 296.55,385.667 294.45,385.5L287.2,384.25C288.567,385.017 291.117,385.733 294.85,386.4L297.4,386.5L297.65,386.4M290.4,394.6C289.667,395.967 288.483,397.1 286.85,398L285.45,399.65C286.55,399.117 287.967,398.283 289.7,397.15C291.433,395.983 292.3,394.583 292.3,392.95L290.45,394.5L290.4,394.6M292.3,392.95C292.5,393.05 292.467,392.6 292.2,391.6C291.933,390.6 291.017,389.667 289.45,388.8L289.2,388.7C286.067,387.7 283.617,386.55 281.85,385.25C281.083,384.75 280.867,384.333 281.2,384L281.3,383.95L282.8,383.4C283.733,383.033 284.817,382.783 286.05,382.65M282.8,382.55L282.3,382.75L281.15,383.2L280.55,383.35L279.9,383.9C279.5,384.267 279.583,384.767 280.15,385.4L280.3,385.45L280.35,385.45L280.4,385.5L286.9,389C290.5,390.133 291.683,391.967 290.45,394.5M281.3,383.95L281.85,384.1L289.3,385.55L294.85,386.4M287.2,384.25L282.8,383.4M285.45,399.65C283.983,400.35 282.617,400.8 281.35,401L281.45,403.75L281.45,403.85L281.65,404.65C282.583,408.45 282.583,411.517 281.65,413.85C281.017,412.85 280.317,412.367 279.55,412.4C279.183,412.367 278.9,412.517 278.7,412.85L279.6,419.5C278.167,417.733 277.067,416.883 276.3,416.95C275.667,416.95 275.267,417.5 275.1,418.6L274.95,420.3C274.583,419.633 274.25,419.217 273.95,419.05C272.783,418.183 271.6,419.9 270.4,424.2L269.55,422.8C268.983,422.067 268.417,422.017 267.85,422.65L267.3,418C266.867,418.833 266.367,419.35 265.8,419.55C265.2,419.983 264.5,420.083 263.7,419.85L265.1,413.4C265.467,410.533 265.6,407.7 265.5,404.9L265.2,401.8L265.15,401.3C264.95,399.967 264.983,398.9 265.25,398.1L264.45,396.75L264.2,396.15L263.35,395.05C262.617,394.35 262,393.583 261.5,392.75C260.3,390.75 260.2,388.833 261.2,387L261.45,386.6C262.017,385.667 262.85,384.95 263.95,384.45L264.4,384.25L267.2,382.8L275.8,382.55L277.05,382.75L281.15,383.2M277.05,382.75L273.25,383.3L274.5,383.4L279.9,383.9M280.05,399.4L280.4,398.95L280.55,398.7C280.05,396.3 278.8,395.25 276.8,395.55C276.633,395.583 276.45,395.667 276.25,395.8C274.55,396.233 273.667,396.967 273.6,398L273.75,398.9L273.85,399.2M273.6,398L272.7,397.4C272.4,397.067 271.717,396.817 270.65,396.65L271.05,396.05C270.55,393.65 269.3,392.6 267.3,392.9C267.133,392.933 266.95,393.017 266.75,393.15C265.65,393.45 264.9,393.867 264.5,394.4C264.233,394.7 264.1,395.05 264.1,395.45L264.2,396.15M280.4,385.5C281.9,387.033 283.9,388.133 286.4,388.8L286.9,389M280.3,385.45L280.4,385.5M278.7,412.85L278.35,409.2L278.2,406.8L278.2,406.7L278.05,403.05C277.983,402.25 278.15,401.6 278.55,401.1C278.817,400.767 279.183,400.5 279.65,400.3L281.35,399.95L281.4,399.95L281.4,399.7L281.35,399.65C281.25,399.383 280.933,399.15 280.4,398.95M279.65,400.3L281.35,400.05L281.35,399.95M281.35,400.05C283.25,399.617 285.083,398.933 286.85,398M277.1,401.15L276.6,400.15C276.433,399.75 276.433,399.383 276.6,399.05L276.8,398.65L277,398.35L277.55,398L278.55,398.05L278.95,398.55L279.1,399.1M278.95,398.55L277,398.35M274.1,399.65C274.733,400.883 275.283,401.55 275.75,401.65M270.9,414.9L270.55,412.85C270.117,413.55 269.617,413.983 269.05,414.15L268.95,414.2L269.05,415.7C269.15,416.4 269.333,416.767 269.6,416.8C269.9,416.933 270.183,416.75 270.45,416.25L270.85,415.15M270.55,412.85L270.5,412.5M278.55,401.1L281.35,401M264.4,384.25C265.167,383.883 266.033,383.667 267,383.6L273.25,383.3M264.5,394.4L262.85,392.75C262.117,391.95 261.667,390.6 261.5,388.7C261.4,388.067 261.383,387.367 261.45,386.6M263.35,395.05L264.1,395.45M267.6,398.5L267.35,398.1C266.95,397.433 266.867,396.867 267.1,396.4L267.3,396C267.433,395.7 267.683,395.483 268.05,395.35L269.05,395.4L269.6,396.45M261.5,388.7L263.95,384.45M265.25,398.1L266.25,399M269.95,412.25L269.35,412.4C269.15,412.533 269.017,412.917 268.95,413.55L268.95,414.2M268,410.45L267.35,413L267.4,413L267.95,412.65L268.25,412M267.1,409.2C266.9,409.533 266.783,410.1 266.75,410.9L266.95,412.5C267.05,412.8 267.183,412.967 267.35,413M266.4,414.75L267.3,418" style="fill:none;fill-rule:nonzero;stroke:#000;stroke-opacity:0.3;stroke-width:1px;"/>
                <path d="M273.3,405.85L273.9,406.5C274.7,405.767 275.75,405.383 277.05,405.35L277.2,405.35L277.4,405.8L277.15,406.7L277.1,406.75L277,406.7L276.65,406.8L276.45,407.1L276.45,407.2C276.45,407.4 276.5,407.55 276.6,407.65C276.133,408.317 275.517,408.833 274.75,409.2L274.75,409.85L274.7,410.75L274.95,411.2L274.1,411.65L273.8,411.9L271.3,412C270.333,411.633 269.517,410.967 268.85,410L268.6,409.7L267.65,408.7L268.05,408.55L267.8,407.1L267.85,406.55L267.35,405.9L267.4,405.8L267.35,405.5L267.2,405.35L267,405.4C266.067,403.933 265.467,402.5 265.2,401.1L265.2,401.05L265.4,400.85L266.65,401.8L268.65,404.4L269.4,404.35L269.85,404.7L270.75,405.1L271.25,405.35L271.3,405.35L271.75,405.5L272.5,405.8L272.9,405.95L273.3,405.85M268.65,404.4L268.65,404.45L268.35,404.95L268.4,405.4L268.85,405.95L270.65,408.75L270.9,408.9L270.9,408.7L270.85,408.25L270.25,406.6M268.85,405.95L268.65,406.05L268.45,406.95C268.45,407.35 268.583,407.733 268.85,408.1L269.75,408.95L270.7,408.85L270.7,408.8L270.65,408.75M268.05,408.55L272.45,409.85L272.15,409.65L271.8,409.3L271.75,409.2L271.45,409.4L270.9,408.9M273.9,406.5L274.2,407.3L274.15,407.5L274.5,408.25C274.967,408.45 275.217,408.233 275.25,407.6C275.483,406.633 275.833,406.117 276.3,406.05M274.15,407.5L273.65,407.85L273.85,408.1L274.05,409.15C274.05,409.55 273.917,409.833 273.65,410L273.15,410.05L274.7,410.75M271.75,409.2C272.117,409.233 272.5,409.083 272.9,408.75L273.3,408.35L273.65,407.85M274.5,408.25L274.75,409.2M270.6,410.2L271.05,410.15C271.583,410.15 272.083,410.35 272.55,410.75M272.45,409.85L273.15,410.05M266.65,401.8L267.3,404.5C267.367,405.133 267.633,405.533 268.1,405.7L268.4,405.4M267.85,406.55C267.883,406.25 267.967,405.967 268.1,405.7" style="fill:none;fill-rule:nonzero;stroke:#000;stroke-opacity:0.3;stroke-width:1px;"/>
                <path d="M274.3,412.1L273.9,411.2M276.85,407.4L276.05,406.8M277.1,407.25L277.1,406.25" style="fill:none;fill-rule:nonzero;stroke:#000;stroke-opacity:0.3;stroke-width:0.05px;"/>
                <path d="M281.65,404.65C282.583,408.45 282.583,411.517 281.65,413.85C281.017,412.85 280.317,412.367 279.55,412.4C278.917,412.367 278.517,412.817 278.35,413.75L278.2,415.15L277.2,414.05L275.9,414.1C277.7,409.967 279.617,406.817 281.65,404.65" style="fill:#946538;"/>
                <path d="M281.4,399.65L281.3,400.65L281.45,403.75L281.45,403.85L281.65,404.65C279.617,406.817 277.7,409.967 275.9,414.1C275.333,414.5 274.783,415.383 274.25,416.75L273.65,418.3L272.8,417.05C272.233,416.417 271.667,416.35 271.1,416.85L270.55,412.85C270.117,413.55 269.617,413.983 269.05,414.15L266.95,414.25L268.35,408.85C268.717,406.417 268.85,404.017 268.75,401.65L268.55,399.65L281.4,399.65M269.65,410.05L270.55,412.85L269.65,410.05M271.5,407.8L271.5,407.7L271.4,406.75L270.95,405.7C270.717,405.3 270.533,405.167 270.4,405.3L270.35,405.4C270.15,405.667 270.033,406.15 270,406.85L270.2,408.2C270.3,408.467 270.45,408.6 270.65,408.6C270.883,408.667 271.067,408.583 271.2,408.35L271.5,407.8M273.2,408.1L272.6,408.2C272.4,408.3 272.267,408.617 272.2,409.15L272.3,411C272.4,411.6 272.583,411.917 272.85,411.95C273.15,412.083 273.433,411.95 273.7,411.55L274.1,410.6L274.15,410.3L274.05,408.9C273.85,408.433 273.6,408.167 273.3,408.1L273.2,408.1" style="fill:#854536;"/>
                <path d="M281.65,404.65L281.45,403.85L281.45,403.75L281.3,400.65L281.4,399.65M268.55,399.65L268.75,401.65C268.85,404.017 268.717,406.417 268.35,408.85L266.95,414.25L269.05,414.15C269.617,413.983 270.117,413.55 270.55,412.85L269.65,410.05M270.4,405.3L270.35,405.4C270.15,405.667 270.033,406.15 270,406.85L270.2,408.2C270.3,408.467 270.45,408.6 270.65,408.6C270.883,408.667 271.067,408.583 271.2,408.35L271.5,407.8M273.2,408.1L272.6,408.2C272.4,408.3 272.267,408.617 272.2,409.15L272.3,411C272.4,411.6 272.583,411.917 272.85,411.95C273.15,412.083 273.433,411.95 273.7,411.55L274.1,410.6M281.65,404.65C282.583,408.45 282.583,411.517 281.65,413.85C281.017,412.85 280.317,412.367 279.55,412.4C278.917,412.367 278.517,412.817 278.35,413.75L278.2,415.15L277.2,414.05L275.9,414.1M274.25,416.75L273.65,418.3L272.8,417.05C272.233,416.417 271.667,416.35 271.1,416.85L270.55,412.85" style="fill:none;fill-rule:nonzero;stroke:#000;stroke-opacity:0.3;stroke-width:0.7px;"/>
                <path d="M293.35,382.8L290.6,382.5L286.05,382.65L282.8,382.55L283.55,382.35L285.5,381.95L287.6,381.7L291.65,381.8L293.7,382.1L293.35,382.8M287.2,384.25L294.45,385.5C296.55,385.667 298,385.65 298.8,385.45L297.65,386.4L297.4,386.5L294.85,386.4C291.117,385.733 288.567,385.017 287.2,384.25M292.3,392.95C292.3,394.583 291.433,395.983 289.7,397.15C287.967,398.283 286.55,399.117 285.45,399.65L286.85,398C288.483,397.1 289.667,395.967 290.4,394.6L290.45,394.5L292.3,392.95M272.95,400.1L271.25,399.85C267.583,399.05 264.95,397.45 263.35,395.05L268.25,397.6L268.55,397.75C270.05,398.75 271.517,399.517 272.95,400.05L272.95,400.1M261.45,386.6C262.017,385.667 262.85,384.95 263.95,384.45L261.5,388.7C261.4,388.067 261.383,387.367 261.45,386.6M264.4,384.25L267.2,382.8L275.8,382.55L277.05,382.75L273.25,383.3L267,383.6C266.033,383.667 265.167,383.883 264.4,384.25M286.9,389L286.4,388.8C283.9,388.133 281.9,387.033 280.4,385.5L286.9,389" style="fill:#51546a;"/>
                <path d="M282.8,382.55L286.05,382.65C284.817,382.783 283.733,383.033 282.8,383.4L281.3,383.95L281.2,384C280.867,384.333 281.083,384.75 281.85,385.25C283.617,386.55 286.067,387.7 289.2,388.7L289.45,388.8C291.017,389.667 291.933,390.6 292.2,391.6C292.467,392.6 292.5,393.05 292.3,392.95L290.45,394.5C291.683,391.967 290.5,390.133 286.9,389L280.4,385.5L280.35,385.45L280.3,385.45L280.15,385.4C279.583,384.767 279.5,384.267 279.9,383.9L280.55,383.35L281.15,383.2L282.3,382.75L282.8,382.55M285.45,399.65C281.783,401.35 278.767,401.617 276.4,400.45C280.133,400.55 283.617,399.733 286.85,398L285.45,399.65M263.35,395.05C262.617,394.35 262,393.583 261.5,392.75C260.3,390.75 260.2,388.833 261.2,387L261.45,386.6C261.383,387.367 261.4,388.067 261.5,388.7C261.667,390.6 262.117,391.95 262.85,392.75C264.717,394.75 266.517,396.367 268.25,397.6L263.35,395.05" style="fill:#c9c9da;"/>
                <path d="M293.35,382.8L293.7,382.1L294.35,382.2L297.8,383.1C299.033,383.433 299.9,384.033 300.4,384.9L300.3,385.85L297.65,386.4L298.8,385.45C299.433,385.317 299.617,385.117 299.35,384.85C299.117,383.95 297.117,383.267 293.35,382.8M282.8,383.4L287.2,384.25C288.567,385.017 291.117,385.733 294.85,386.4L289.3,385.55L281.85,384.1L281.3,383.95L282.8,383.4M277.05,382.75L281.15,383.2L280.55,383.35L279.9,383.9L274.5,383.4L273.25,383.3L277.05,382.75" style="fill:#8687ac;"/>
                <path d="M286.05,382.65L290.6,382.5L293.35,382.8C297.117,383.267 299.117,383.95 299.35,384.85C299.617,385.117 299.433,385.317 298.8,385.45C298,385.65 296.55,385.667 294.45,385.5L287.2,384.25L282.8,383.4C283.733,383.033 284.817,382.783 286.05,382.65M293.7,382.1L291.65,381.8L287.6,381.7L285.5,381.95L283.55,382.35L282.8,382.55L282.3,382.75L281.15,383.2L280.55,383.35L279.9,383.9L274.5,383.4L273.25,383.3L267,383.6C266.033,383.667 265.167,383.883 264.4,384.25L267.2,382.8L275.8,382.55L277.05,382.75L281.15,383.2M297.65,386.4L300.3,385.85L300.4,384.9C299.9,384.033 299.033,383.433 297.8,383.1L294.35,382.2L293.7,382.1M297.65,386.4L297.4,386.5L294.85,386.4L289.3,385.55L281.85,384.1L281.3,383.95L281.2,384C280.867,384.333 281.083,384.75 281.85,385.25C283.617,386.55 286.067,387.7 289.2,388.7L289.45,388.8C291.017,389.667 291.933,390.6 292.2,391.6C292.467,392.6 292.5,393.05 292.3,392.95C292.3,394.583 291.433,395.983 289.7,397.15C287.967,398.283 286.55,399.117 285.45,399.65C281.783,401.35 278.767,401.617 276.4,400.45L273.25,400.2L272.95,400.1L271.25,399.85C267.583,399.05 264.95,397.45 263.35,395.05C262.617,394.35 262,393.583 261.5,392.75C260.3,390.75 260.2,388.833 261.2,387L261.45,386.6C262.017,385.667 262.85,384.95 263.95,384.45L264.4,384.25M290.45,394.5L290.4,394.6C289.667,395.967 288.483,397.1 286.85,398C283.617,399.733 280.133,400.55 276.4,400.45L273,400.05L272.95,400.05C271.517,399.517 270.05,398.75 268.55,397.75L268.25,397.6C266.517,396.367 264.717,394.75 262.85,392.75C262.117,391.95 261.667,390.6 261.5,388.7L263.95,384.45M290.45,394.5C291.683,391.967 290.5,390.133 286.9,389L286.4,388.8C283.9,388.133 281.9,387.033 280.4,385.5L280.35,385.45L280.3,385.45L280.15,385.4C279.583,384.767 279.5,384.267 279.9,383.9M281.3,383.95L282.8,383.4M273.25,400.2L273,400.05" style="fill:none;fill-rule:nonzero;stroke:#382510;stroke-opacity:0.2;stroke-width:0.4px;"/>
                <path d="M293.35,382.8L293.7,382.1M282.8,382.55L286.05,382.65M298.8,385.45L297.65,386.4M286.85,398L285.45,399.65M292.3,392.95L290.45,394.5M280.4,385.5L280.3,385.45M273.25,383.3L277.05,382.75M280.4,385.5L286.9,389M287.2,384.25C288.567,385.017 291.117,385.733 294.85,386.4M261.5,388.7C261.4,388.067 261.383,387.367 261.45,386.6M263.35,395.05L268.25,397.6" style="fill:none;fill-rule:nonzero;stroke:#382510;stroke-opacity:0.15;stroke-width:0.2px;"/>
                <path d="M277.2,398.95C276.767,399.25 276.55,399.733 276.55,400.4L276.55,400.7C277.117,404.433 277.317,409 277.15,414.4C276.883,415.8 276.6,416.65 276.3,416.95C275.667,416.95 275.267,417.5 275.1,418.6L274.95,420.3C274.583,419.633 274.25,419.217 273.95,419.05C273.683,417.517 273.817,415.133 274.35,411.9L269.55,422.8C268.983,422.067 268.417,422.017 267.85,422.65L267.3,418L266.4,414.75L265.8,419.55C265.2,419.983 264.5,420.083 263.7,419.85L265.1,413.4C265.467,410.533 265.6,407.7 265.5,404.9L265.2,401.8L265.15,401.3C265.817,398.7 267.35,397.483 269.75,397.65C272.25,397.917 273.5,398.317 273.5,398.85L277.2,398.95M271.6,398.1L271,410.55C271.6,404.317 272.767,400.55 274.5,399.25C273.733,399.317 272.767,398.933 271.6,398.1M270.85,415.15L270.9,414.8L270.8,413.15C270.6,412.583 270.35,412.283 270.05,412.25L269.95,412.25L269.35,412.4C269.15,412.533 269.017,412.917 268.95,413.55L269.05,415.7C269.15,416.4 269.333,416.767 269.6,416.8C269.9,416.933 270.183,416.75 270.45,416.25L270.85,415.15M268.25,412L268.25,411.9L268.15,410.75L267.7,409.5C267.467,409.067 267.283,408.933 267.15,409.1L267.1,409.2C266.9,409.533 266.783,410.1 266.75,410.9L266.95,412.5C267.05,412.833 267.2,413 267.4,413L267.95,412.65L268.25,412" style="fill:#e7a843;"/>
                <path d="M276.3,416.95C276.6,416.65 276.883,415.8 277.15,414.4C277.317,409 277.117,404.433 276.55,400.7L276.55,400.4C276.55,399.733 276.767,399.25 277.2,398.95L279.15,398.55L279.55,398.7C280.883,399.033 281.5,399.45 281.4,399.95C279.033,400.083 277.917,401.117 278.05,403.05L278.2,406.7L278.2,406.8C278.5,411.8 278.967,416.033 279.6,419.5C278.167,417.733 277.067,416.883 276.3,416.95M265.8,419.55L266.4,414.75L267.3,418C266.867,418.833 266.367,419.35 265.8,419.55M269.55,422.8L274.35,411.9C273.817,415.133 273.683,417.517 273.95,419.05C272.783,418.183 271.6,419.9 270.4,424.2L269.55,422.8M271.6,398.1C272.767,398.933 273.733,399.317 274.5,399.25C272.767,400.55 271.6,404.317 271,410.55L271.6,398.1" style="fill:#ae6c0e;"/>
                <path d="M279.15,398.55L277.2,398.95L273.5,398.85C273.5,398.317 272.25,397.917 269.75,397.65C267.35,397.483 265.817,398.7 265.15,401.3C264.717,398.433 265.3,396.817 266.9,396.45L268.1,396.3C270.667,396.5 272.2,396.867 272.7,397.4C273.233,397.9 273.883,398.183 274.65,398.25L276.95,398.35L279.15,398.55" style="fill:#fdbb24;"/>
                <path d="M276.3,416.95C277.067,416.883 278.167,417.733 279.6,419.5C278.967,416.033 278.5,411.8 278.2,406.8L278.2,406.7L278.05,403.05C277.917,401.117 279.033,400.083 281.4,399.95C281.5,399.45 280.883,399.033 279.55,398.7L279.15,398.55L276.95,398.35L274.65,398.25C273.883,398.183 273.233,397.9 272.7,397.4C272.2,396.867 270.667,396.5 268.1,396.3L266.9,396.45C265.3,396.817 264.717,398.433 265.15,401.3L265.2,401.8L265.5,404.9C265.6,407.7 265.467,410.533 265.1,413.4L263.7,419.85C264.5,420.083 265.2,419.983 265.8,419.55C266.367,419.35 266.867,418.833 267.3,418L267.85,422.65C268.417,422.017 268.983,422.067 269.55,422.8L270.4,424.2C271.6,419.9 272.783,418.183 273.95,419.05C274.25,419.217 274.583,419.633 274.95,420.3L275.1,418.6C275.267,417.5 275.667,416.95 276.3,416.95M266.4,414.75L267.3,418M269.95,412.25L269.35,412.4C269.15,412.533 269.017,412.917 268.95,413.55L269.05,415.7C269.15,416.4 269.333,416.767 269.6,416.8C269.9,416.933 270.183,416.75 270.45,416.25L270.85,415.15M267.15,409.1L267.1,409.2C266.9,409.533 266.783,410.1 266.75,410.9L266.95,412.5C267.05,412.833 267.2,413 267.4,413L267.95,412.65L268.25,412" style="fill:none;fill-rule:nonzero;stroke:#000;stroke-opacity:0.3;stroke-width:0.7px;"/>
                <path d="M267.6,398.5L267.65,398.7L267.7,398.55C268.333,397.483 269.283,396.883 270.55,396.75L269.6,396.45L267.3,396C266.767,396.633 266.867,397.467 267.6,398.5" style="fill-opacity:0.3;"/>
                <path d="M267.65,398.7L267.6,398.5C266.867,397.467 266.767,396.633 267.3,396C267.433,395.7 267.683,395.483 268.05,395.35L269.05,395.4C269.417,394.333 268.833,393.5 267.3,392.9C267.133,392.933 266.95,393.017 266.75,393.15C264.35,393.783 263.583,394.983 264.45,396.75C265.15,398.15 265.75,398.9 266.25,399L266.75,398.9L266.95,398.85L267.5,398.7L267.65,398.7" style="fill:#8d8f97;"/>
                <path d="M269.6,396.45L270.55,396.75L271.05,396.05C270.55,393.65 269.3,392.6 267.3,392.9C268.833,393.5 269.417,394.333 269.05,395.4L269.6,396.45" style="fill:#606367;"/>
                <path d="M267.6,398.5C266.867,397.467 266.767,396.633 267.3,396C267.433,395.7 267.683,395.483 268.05,395.35L269.05,395.4L269.6,396.45M266.25,399C265.75,398.9 265.15,398.15 264.45,396.75C263.583,394.983 264.35,393.783 266.75,393.15C266.95,393.017 267.133,392.933 267.3,392.9C269.3,392.6 270.55,393.65 271.05,396.05L270.55,396.75" style="fill:none;fill-rule:nonzero;stroke:#000;stroke-opacity:0.3;stroke-width:0.4px;"/>
                <path d="M266,394.65C266,394.317 265.9,394.167 265.7,394.2L264.85,394.8C264.483,395.167 264.4,395.617 264.6,396.15L265.5,397.45L266.25,397.9C266.45,397.9 266.5,397.7 266.4,397.3L266.1,395.9L266,394.65" style="fill:#d8d9da;"/>
                <path d="M277.15,401.35L277.2,401.2C277.833,400.133 278.783,399.533 280.05,399.4L279.1,399.1L276.8,398.65C276.267,399.283 276.367,400.117 277.1,401.15L277.15,401.35" style="fill-opacity:0.3;"/>
                <path d="M275.75,401.65L276.25,401.55L276.45,401.5L277,401.35L277.15,401.35L277.1,401.15C276.367,400.117 276.267,399.283 276.8,398.65C276.933,398.35 277.183,398.133 277.55,398L278.55,398.05C278.917,396.983 278.333,396.15 276.8,395.55C276.633,395.583 276.45,395.667 276.25,395.8C273.85,396.433 273.083,397.633 273.95,399.4C274.65,400.8 275.25,401.55 275.75,401.65" style="fill:#8d8f97;"/>
                <path d="M280.05,399.4L280.55,398.7C280.05,396.3 278.8,395.25 276.8,395.55C278.333,396.15 278.917,396.983 278.55,398.05L279.1,399.1L280.05,399.4" style="fill:#606367;"/>
                <path d="M280.05,399.4L280.55,398.7C280.05,396.3 278.8,395.25 276.8,395.55C276.633,395.583 276.45,395.667 276.25,395.8C273.85,396.433 273.083,397.633 273.95,399.4C274.65,400.8 275.25,401.55 275.75,401.65M277.1,401.15C276.367,400.117 276.267,399.283 276.8,398.65C276.933,398.35 277.183,398.133 277.55,398L278.55,398.05L279.1,399.1" style="fill:none;fill-rule:nonzero;stroke:#000;stroke-opacity:0.3;stroke-width:0.4px;"/>
                <path d="M275.5,397.3C275.5,396.967 275.4,396.817 275.2,396.85L274.35,397.45C273.983,397.817 273.9,398.267 274.1,398.8L275,400.1C275.333,400.4 275.583,400.55 275.75,400.55C275.95,400.55 276,400.35 275.9,399.95L275.6,398.55L275.5,397.3" style="fill:#d8d9da;"/>
            </g>
            <g id="sprite0" transform="matrix(1.1,0,0,1.1,265.2,400.85)">
                <g id="shape1">
                    <path d="M7.9,5.15C8.667,4.45 9.667,4.1 10.9,4.1L11.1,4.5L10.8,5.4L10.75,5.35L10.4,5.45C10.3,5.517 10.25,5.633 10.25,5.8L10.35,6.2C9.95,6.8 9.4,7.267 8.7,7.6L8.7,8.2L8.65,9L8.85,9.45L8.1,9.85L7.8,10.05L5.55,10.15C4.683,9.817 3.933,9.217 3.3,8.35L3.1,8.05L2.25,7.15L2.6,7L2.35,5.7L2.4,5.2L1.95,4.6L2,4.5L1.95,4.25L1.8,4.1C1.733,4.067 1.683,4.083 1.65,4.15C0.783,2.817 0.233,1.5 0,0.2L0.2,0L1.3,0.9L3.15,3.25L3.8,3.2L4.25,3.5L5.05,3.9L5.55,4.1L6.65,4.5L7,4.65L7.35,4.55L7.9,5.15L8.2,5.9L8.15,6.05L8.45,6.75C8.883,6.917 9.117,6.717 9.15,6.15C9.35,5.283 9.667,4.817 10.1,4.75C9.667,4.817 9.35,5.283 9.15,6.15C9.117,6.717 8.883,6.917 8.45,6.75L8.15,6.05L8.2,5.9L7.9,5.15M4.6,5.25L5.15,6.75L5.2,7.15L5.2,7.35L4.95,7.2L5.2,7.35L5.2,7.15L5.15,6.75L4.6,5.25M5,7.25L4.95,7.2C4.25,6.333 3.7,5.483 3.3,4.65L3.15,4.75L2.95,5.55C2.95,5.917 3.067,6.267 3.3,6.6C3.533,7 3.817,7.267 4.15,7.4L5,7.3L5,7.25M5.95,7.6L5.7,7.8L5.2,7.35L5.7,7.8L5.95,7.6L6,7.7L6.3,8L6.6,8.2L7.25,8.4L7.7,8.35L8.05,7.55L7.85,6.6L7.7,6.4L7.35,6.85L7,7.2C6.633,7.5 6.283,7.633 5.95,7.6M8.15,6.05L7.7,6.4L8.15,6.05M6.7,9C6.167,8.567 5.567,8.4 4.9,8.5C5.567,8.4 6.167,8.567 6.7,9M8.7,7.6L8.45,6.75L8.7,7.6M8.65,9L7.25,8.4L8.65,9M6.6,8.2L2.6,7L6.6,8.2M3.3,4.65L2.9,4.15L2.65,4.45C2.217,4.283 1.967,3.917 1.9,3.35L1.3,0.9L1.9,3.35C1.967,3.917 2.217,4.283 2.65,4.45L2.9,4.15L2.85,3.75L3.15,3.3L3.15,3.25L3.15,3.3L2.85,3.75L2.9,4.15L3.3,4.65M2.65,4.45L2.4,5.2L2.65,4.45" style="fill:#bc9d80;"/>
                    <path d="M5,7.25L5,7.3L4.15,7.4C3.817,7.267 3.533,7 3.3,6.6C3.067,6.267 2.95,5.917 2.95,5.55L3.15,4.75L3.3,4.65C3.7,5.483 4.25,6.333 4.95,7.2L5,7.25M5.95,7.6C6.283,7.633 6.633,7.5 7,7.2L7.35,6.85L7.7,6.4L7.85,6.6L8.05,7.55L7.7,8.35L7.25,8.4L6.6,8.2L6.3,8L6,7.7L5.95,7.6" style="fill:#f4d637;"/>
                    <path d="M7.9,5.15C8.667,4.45 9.667,4.1 10.9,4.1L11.1,4.5L10.8,5.4L10.75,5.35L10.4,5.45C10.3,5.517 10.25,5.633 10.25,5.8L10.35,6.2C9.95,6.8 9.4,7.267 8.7,7.6L8.7,8.2L8.65,9L8.85,9.45L8.1,9.85L7.8,10.05L5.55,10.15C4.683,9.817 3.933,9.217 3.3,8.35L3.1,8.05L2.25,7.15L2.6,7L2.35,5.7L2.4,5.2L1.95,4.6L2,4.5L1.95,4.25L1.8,4.1C1.733,4.067 1.683,4.083 1.65,4.15C0.783,2.817 0.233,1.5 0,0.2L0.2,0L1.3,0.9L3.15,3.25L3.8,3.2L4.25,3.5L5.05,3.9L5.55,4.1L6.65,4.5L7,4.65L7.35,4.55L7.9,5.15L8.2,5.9L8.15,6.05L8.45,6.75C8.883,6.917 9.117,6.717 9.15,6.15C9.35,5.283 9.667,4.817 10.1,4.75M4.95,7.2L5.2,7.35L5.2,7.15L5.15,6.75L4.6,5.25M5,7.25L4.95,7.2C4.25,6.333 3.7,5.483 3.3,4.65L3.15,4.75L2.95,5.55C2.95,5.917 3.067,6.267 3.3,6.6C3.533,7 3.817,7.267 4.15,7.4L5,7.3L5,7.25M5.2,7.35L5.7,7.8L5.95,7.6C6.283,7.633 6.633,7.5 7,7.2L7.35,6.85L7.7,6.4L8.15,6.05M6.6,8.2L6.3,8L6,7.7L5.95,7.6M7.7,6.4L7.85,6.6L8.05,7.55L7.7,8.35L7.25,8.4L8.65,9M8.45,6.75L8.7,7.6M4.9,8.5C5.567,8.4 6.167,8.567 6.7,9M6.6,8.2L7.25,8.4M1.3,0.9L1.9,3.35C1.967,3.917 2.217,4.283 2.65,4.45L2.9,4.15L2.85,3.75L3.15,3.3L3.15,3.25M2.4,5.2L2.65,4.45M2.9,4.15L3.3,4.65M2.6,7L6.6,8.2" style="fill:none;fill-rule:nonzero;stroke:#6d4f1f;stroke-opacity:0.2;stroke-width:1px;"/>
                </g>
            </g>
            <g id="shape2">
                <path d="M276.55,404.8L276.65,405.9M276.65,408.55L275.85,407.75M274.65,411.95L274.2,410.95M273.1,405.3L273.45,406.4M267.5,408.5L268.5,408.15M265.9,404.5L266.9,404.1M266.7,401.15L265.9,402.05M269.1,403.8L269.2,404.9M269.75,411.7L270.4,410.85" style="fill:none;fill-rule:nonzero;stroke:#000;stroke-opacity:0.2;stroke-width:0.05px;"/>
                <path d="M271.6,398.1C272.767,398.933 273.733,399.317 274.5,399.25C272.767,400.55 271.6,404.317 271,410.55L271.6,398.1" style="fill:#ae6c0e;"/>
            </g>
        </g>
    </g>
</svg>
