<?xml version="1.0" encoding="UTF-8" standalone="no"?>
<!DOCTYPE svg PUBLIC "-//W3C//DTD SVG 1.1//EN" "http://www.w3.org/Graphics/SVG/1.1/DTD/svg11.dtd">
<svg width="100%" height="100%" viewBox="0 0 216 251" version="1.1" xmlns="http://www.w3.org/2000/svg" xmlns:xlink="http://www.w3.org/1999/xlink" xml:space="preserve" xmlns:serif="http://www.serif.com/" style="fill-rule:evenodd;clip-rule:evenodd;stroke-linejoin:round;stroke-miterlimit:2;">
    <g transform="matrix(1,0,0,1,-167.329,-78.8531)">
        <g transform="matrix(5.58468,0,0,5.58468,-1260.66,-935.046)">
            <g id="shape0">
                <path d="M256,184.4L256.05,184.4C256.05,184.267 256.1,184.15 256.2,184.05C256.733,183.317 257.867,182.817 259.6,182.55C267.833,181.217 275.9,181.217 283.8,182.55L283.85,182.55C288.983,184.083 292.2,185.933 293.5,188.1C294.9,190.3 294.333,192.8 291.8,195.6C289.733,197.867 287.15,200.017 284.05,202.05L283.9,202.15L283.05,202.85L282.35,203.15L282.5,203.2L283.2,203.3L283.75,203.4C284.55,203.6 284.933,203.883 284.9,204.25C284.933,204.583 284.55,204.85 283.75,205.05L283,205.25C283.633,205.617 283.883,205.95 283.75,206.25C283.683,206.55 283.3,206.7 282.6,206.7L281.8,206.6L280.95,206.4L280.8,206.4L280.7,206.35L280.6,206.35L280.5,206.3L280.25,206.25L280.15,206.2C279.65,207.633 278.817,208.917 277.65,210.05L275.8,211.55L275.15,213L275.05,213.1L274.9,213.1L274.8,213L274.5,212.35L274.5,212.25L272.35,212.9L272.65,214.05L272.85,216.2C272.783,216.9 272.6,217.267 272.3,217.3L272.15,217.35C271.883,217.317 271.617,217.017 271.35,216.45L271.15,216L271.05,215.75L270.8,217.15C270.6,217.95 270.333,218.333 270,218.3L269.95,218.3C269.617,218.3 269.35,217.917 269.15,217.15L269,216.55L269,216.4L268.95,216.4L268.1,217.2L267.95,217.15C267.65,217.083 267.5,216.7 267.5,216C267.533,215.4 267.667,214.7 267.9,213.9L268.25,212.85L265.95,212.05L265.85,212L265.5,212.75L265.4,212.85L265.25,212.85L265.15,212.75L264.45,211.2L263.15,210.05C262.017,208.883 261.2,207.6 260.7,206.2L260.7,206.15L260.1,206.35L258,206.7L257.35,206.65L256.85,206.25C256.717,205.95 256.967,205.617 257.6,205.25L256.95,205.1L256.85,205.1C256.05,204.867 255.667,204.583 255.7,204.25C255.667,203.883 256.05,203.6 256.85,203.4L258.25,203.15L257.55,202.9C256.883,202.567 256.6,202.25 256.7,201.95C256.7,201.617 257.067,201.433 257.8,201.4L259.4,201.45L259.95,201.55L260.2,201.65L260.2,201.6C260.367,199.933 260.933,198.417 261.9,197.05L257.45,194.6L257.35,194.4L257.4,194.3L257.95,193.8L257.55,193.55L257.45,193.5L257.45,193.3C257.717,192.9 258.25,192.75 259.05,192.85L259.35,192.9L260.6,193.25L259.85,192.65L259.8,192.55L259.8,192.45L259.85,192.35C260.05,192.117 260.4,192.05 260.9,192.15L261.2,192.2L263.1,193.3L264.3,194.55L264.4,194.5L264.9,194.15C264.2,192.15 262.833,190.5 260.8,189.2C258.033,187.4 256.467,186.05 256.1,185.15C255.967,184.85 255.933,184.6 256,184.4M256.65,184.55L256.7,184.9C257.067,185.733 258.55,186.983 261.15,188.65C263.283,190.017 264.717,191.733 265.45,193.8C266.183,193.367 266.967,193.067 267.8,192.9L270.4,192.55L270.55,192.55L273.85,193.1C274.817,193.433 275.733,193.933 276.6,194.6L276.65,194.55L277.85,193.3C278.483,192.767 279.117,192.4 279.75,192.2L279.75,192.25L280.6,192.15L281.1,192.35L281.15,192.45L281.15,192.55L281.05,192.65L280.35,193.25L280.65,193.15L281.9,192.85L282.95,192.9L283.45,193.3L283.5,193.4L283.4,193.6L282.95,193.85L283.55,194.3L283.55,194.55L283.45,194.6L278.95,197.1C279.85,198.433 280.4,199.917 280.6,201.55L280.75,201.55L282.8,201.4L283.55,201.55L283.65,201.55C286.717,199.55 289.267,197.433 291.3,195.2C293.6,192.667 294.15,190.417 292.95,188.45C291.683,186.417 288.6,184.667 283.7,183.2L283.65,183.2C275.85,181.867 267.867,181.867 259.7,183.2C258.167,183.433 257.167,183.85 256.7,184.45L256.65,184.55M262.95,197.65L262.85,197.6C262.25,198.3 261.95,199.15 261.95,200.15C261.95,201.217 262.333,202.133 263.1,202.9C263.867,203.667 264.783,204.05 265.85,204.05C266.85,204.05 267.717,203.717 268.45,203.05L268.3,202.8C267.633,203.333 266.85,203.617 265.95,203.65C264.917,203.617 264.05,203.25 263.35,202.55C262.617,201.817 262.25,200.933 262.25,199.9C262.217,199.033 262.45,198.283 262.95,197.65M261.95,194.2L261.8,194.2L261.5,194.15L261.45,194.15L261.35,194.05C260.517,193.583 259.733,193.317 259,193.25L258,193.35L258.5,193.65L258.6,193.8L258.6,193.95L258.5,194L257.85,194.35L269.7,200.95L269.75,201L269.75,200.4L269.7,200.2L269.25,199.25L268.85,198.7C268.283,197.967 267.55,197.283 266.65,196.65L265.85,196.1L265,195.55L264.25,195.2L264.15,195.1L264,194.8L262.85,193.6C262.217,193.067 261.633,192.733 261.1,192.6L260.35,192.55L261.95,193.9L262.05,194L261.95,194.2M265,194.55L264.55,194.85L265.2,195.2L266.7,196.15C267.467,196.317 268.133,196.683 268.7,197.25C269.333,197.883 269.717,198.633 269.85,199.5C270.217,200.2 270.283,200.817 270.05,201.35L270,201.45L269.9,201.5L269.7,201.4L269.05,202.6L269.05,202.65L268.8,202.9L270.35,205.65L272.05,202.6L271.3,201.4L271.15,201.5L271.05,201.5L270.85,201.4C270.617,200.867 270.683,200.25 271.05,199.55C271.117,198.583 271.5,197.75 272.2,197.05C272.9,196.35 273.717,195.967 274.65,195.9L275.75,195.25L276.35,194.9C274.617,193.6 272.633,192.95 270.4,192.95C268.6,192.95 266.983,193.367 265.55,194.2L265,194.55M262.75,197.55L262.25,197.25C261.283,198.617 260.733,200.167 260.6,201.9L260.55,202.8L260.55,203.45L260.6,204L260.7,204.05L260.8,204.15L261.2,204.8C261.5,205.133 261.883,205.3 262.35,205.3C262.783,205.3 263.167,205.133 263.5,204.8L263.75,204.45L263.85,204.35L264,204.35L264.1,204.45L264.35,204.8C264.683,205.133 265.067,205.3 265.5,205.3L266,205.2L266.6,204.9L266.65,204.8L266.95,204.45L267.05,204.35L267.2,204.35L267.3,204.45L267.55,204.8C267.883,205.133 268.267,205.3 268.7,205.3L269.55,205.05L268.5,203.2C267.767,203.867 266.883,204.2 265.85,204.2C264.717,204.167 263.767,203.767 263,203C262.2,202.2 261.8,201.25 261.8,200.15C261.8,199.15 262.117,198.283 262.75,197.55M278.2,197.55L277.95,197.7C278.417,198.333 278.667,199.067 278.7,199.9C278.7,200.933 278.333,201.817 277.6,202.55C276.867,203.25 275.983,203.617 274.95,203.65C273.983,203.617 273.167,203.3 272.5,202.7L272.45,202.8C273.183,203.467 274.067,203.8 275.1,203.8C276.167,203.8 277.083,203.417 277.85,202.65C278.617,201.883 279,200.967 279,199.9C279,199 278.733,198.217 278.2,197.55M274.15,196.25L274.45,196.05C273.617,196.15 272.9,196.517 272.3,197.15C271.7,197.75 271.333,198.45 271.2,199.25L271.3,199.1C271.433,198.4 271.767,197.783 272.3,197.25C272.833,196.717 273.45,196.383 274.15,196.25M278.1,193.6L276.9,194.85L276.75,195.1L276.7,195.2C276.433,195.3 276.183,195.433 275.95,195.6L275.45,195.85C275.35,195.883 275.283,195.933 275.25,196L274.95,196.15L274.3,196.6C273.4,197.267 272.65,197.983 272.05,198.75L271.65,199.3L271.25,200.15L271.2,200.35L271.15,200.85L271.15,201L271.2,201L283.05,194.4L282.45,194.05L282.35,193.95L282.3,193.8L282.4,193.65L282.95,193.35L281.95,193.25C281.183,193.317 280.383,193.583 279.55,194.05L279.45,194.15L279.4,194.15L279.15,194.25L279,194.2L278.9,194.15L278.9,194L278.95,193.9L280.6,192.55L279.85,192.6C279.283,192.767 278.7,193.1 278.1,193.6M280.7,201.95L280.65,201.95L280.65,203.15L280.85,203.15L280.95,203.1L281.15,203.1L282.9,202.5L283.5,202L283.2,201.85L282.75,201.8L280.75,201.95L280.7,201.95M284.5,204.25C284.467,204.083 284.183,203.933 283.65,203.8L281.65,203.5L281.35,203.5L280.85,203.55L280.65,203.55L280.6,204.1L280.6,204.3L281.05,204.4C281.55,204.533 282,204.7 282.4,204.9L283.65,204.7C284.183,204.533 284.467,204.383 284.5,204.25M278.6,197.3L278.3,197.5C278.833,198.167 279.117,198.967 279.15,199.9C279.117,201 278.717,201.95 277.95,202.75C277.15,203.55 276.2,203.95 275.1,203.95C274.033,203.95 273.117,203.6 272.35,202.9L271.15,205.1L271.9,205.3C272.333,205.3 272.717,205.133 273.05,204.8L273.35,204.45L273.45,204.35L273.6,204.35L273.7,204.45L273.95,204.8C274.25,205.133 274.633,205.3 275.1,205.3C275.533,205.3 275.917,205.133 276.25,204.8L276.55,204.45L276.65,204.35L276.75,204.35L276.85,204.45L277.15,204.8L277.45,205.05L278.3,205.3L278.4,205.3C278.8,205.267 279.15,205.1 279.45,204.8L279.55,204.7L279.85,204.15L279.9,204.05L280.05,204L280.2,204L280.25,203.6L280.25,201.8C280.083,200.133 279.533,198.633 278.6,197.3M273.95,200.15L274.3,199.95L274.6,200.15L274.75,200.65L274.6,201.15L274.3,201.35L273.95,201.15L273.85,200.65L273.95,200.15M277.3,202.25C277.967,201.617 278.3,200.833 278.3,199.9C278.3,199.133 278.067,198.467 277.6,197.9L271.85,201.1C271.983,201.533 272.233,201.917 272.6,202.25C273.233,202.917 274.017,203.25 274.95,203.25C275.883,203.25 276.667,202.917 277.3,202.25M278.3,205.7L277.75,205.6C277.483,205.533 277.25,205.417 277.05,205.25L276.85,205.1L276.7,204.9L276.55,205.1C276.117,205.467 275.633,205.667 275.1,205.7C274.533,205.667 274.05,205.467 273.65,205.1L273.5,204.9L273.35,205.1C272.95,205.467 272.467,205.667 271.9,205.7L270.95,205.45L270.55,206.15L270.45,206.2L270.3,206.2L270.2,206.15L269.75,205.4C269.45,205.567 269.1,205.667 268.7,205.7C268.133,205.667 267.667,205.467 267.3,205.1L267.1,204.9L266.95,205.1L266.75,205.25L266.15,205.6L265.5,205.7C264.933,205.667 264.467,205.467 264.1,205.1L263.95,204.9L263.75,205.1C263.35,205.467 262.883,205.667 262.35,205.7C261.783,205.667 261.3,205.467 260.9,205.1L260.8,205C261.2,206.733 262.083,208.267 263.45,209.6L263.95,210.1L262.7,207.25L262.7,207.1L262.75,207L262.9,206.95L263,207.05L265.3,209.5L267.55,207.1L267.65,207L267.75,206.95L267.9,207L268,207.1L267.95,207.25L266.05,211.5C267.35,212.167 268.8,212.5 270.4,212.5L270.5,212.5L271,212.45C272.167,212.383 273.25,212.15 274.25,211.75L272.35,207.5L272.35,207.35L272.4,207.25L272.55,207.2L272.65,207.3L274.95,209.75L277.3,207.3L277.4,207.2L277.55,207.25L277.6,207.35L277.6,207.5L276.2,210.65L277.4,209.6C278.833,208.133 279.733,206.45 280.1,204.55L279.7,205.1C279.3,205.467 278.833,205.667 278.3,205.7M283.4,206.15L282.8,205.6L282.25,205.3L280.95,204.8L280.5,204.7L280.25,205.8L280.6,205.95L282.6,206.3L283.4,206.15M275,210.2L274.85,210.2L274.8,210.15L273.2,208.45L274.7,211.75L274.7,211.8L274.75,211.9L274.75,211.95L275,212.4L275.45,211.35L275.55,211.15L275.55,211.1L276.8,208.4L275,210.2M272.15,202.5L272.2,202.45L271.5,201.3L271.4,201.35L272.15,202.5M268.9,202.6L268.95,202.55L269.6,201.35L269.45,201.25L268.6,202.55L268.75,202.8L268.9,202.6M268.35,202.25L269.1,201.1L263.35,197.85C262.883,198.45 262.65,199.133 262.65,199.9C262.65,200.833 262.967,201.617 263.6,202.25C264.233,202.917 265.017,203.25 265.95,203.25C266.883,203.25 267.683,202.917 268.35,202.25M266.85,200.15L267,200.65L266.85,201.15L266.55,201.35L266.2,201.15L266.1,200.65L266.2,200.15L266.55,199.95L266.85,200.15M257.2,206.15L258,206.3L260,205.95L260.55,205.75L260.3,204.65L259.65,204.8L258.35,205.3L257.8,205.6L257.2,206.15M260.2,203.6L259.7,203.55L259.25,203.55L256.95,203.8C256.383,203.933 256.1,204.083 256.1,204.25C256.1,204.383 256.383,204.533 256.95,204.7L258.25,204.9L259.55,204.45L260.25,204.25L260.2,203.6M260.2,202.05L259.85,201.95L257.85,201.8L257.1,202L257.1,202.05L257.7,202.5L259.6,203.1L259.65,203.15L259.8,203.15L260.15,203.2L260.15,202.8L260.2,202.05M270.55,213.05L270.1,213.05L269.8,214.45L269.3,215.8L269.5,217.05C269.667,217.583 269.833,217.867 270,217.9L270.45,217.05L270.7,214.75L270.7,214.3L270.55,213.05M269.7,213.05L268.65,212.95L268.3,214C268.067,214.767 267.933,215.433 267.9,216C267.9,216.467 267.95,216.733 268.05,216.8L268.6,216.2L268.9,215.7L268.95,215.65L269.4,214.35L269.7,213.05M271.95,212.95L270.95,213.05L271.05,214.2L271.1,214.2L271.1,214.35C271.233,215.117 271.433,215.767 271.7,216.3L272.2,216.9L272.45,216.15L272.25,214.15L271.95,212.95M265.45,209.9L265.35,209.95L265.25,209.95L265.15,209.9L263.55,208.2L264.65,210.7L264.7,210.7L264.8,210.95L264.8,211L265.35,212.15L265.55,211.65L265.6,211.5L265.65,211.5L267.15,208.1L265.45,209.9"/>
                <path d="M262.75,197.55C262.117,198.283 261.8,199.15 261.8,200.15C261.8,201.25 262.2,202.2 263,203C263.767,203.767 264.717,204.167 265.85,204.2C266.883,204.2 267.767,203.867 268.5,203.2L269.55,205.05L268.7,205.3C268.267,205.3 267.883,205.133 267.55,204.8L267.3,204.45L267.2,204.35L267.05,204.35L266.95,204.45L266.65,204.8L266.6,204.9L266,205.2L265.5,205.3C265.067,205.3 264.683,205.133 264.35,204.8L264.1,204.45L264,204.35L263.85,204.35L263.75,204.45L263.5,204.8C263.167,205.133 262.783,205.3 262.35,205.3C261.883,205.3 261.5,205.133 261.2,204.8L260.8,204.15L260.7,204.05L260.6,204L260.55,203.45L260.55,202.8L260.6,201.9C260.733,200.167 261.283,198.617 262.25,197.25L262.75,197.55M265,194.55L265.55,194.2C266.983,193.367 268.6,192.95 270.4,192.95C272.633,192.95 274.617,193.6 276.35,194.9L275.75,195.25L274.65,195.9C273.717,195.967 272.9,196.35 272.2,197.05C271.5,197.75 271.117,198.583 271.05,199.55C270.683,200.25 270.617,200.867 270.85,201.4L271.05,201.5L271.15,201.5L271.3,201.4L272.05,202.6L270.35,205.65L268.8,202.9L269.05,202.65L269.05,202.6L269.7,201.4L269.9,201.5L270,201.45L270.05,201.35C270.283,200.817 270.217,200.2 269.85,199.5C269.717,198.633 269.333,197.883 268.7,197.25C268.133,196.683 267.467,196.317 266.7,196.15L265.2,195.2L264.55,194.85L265,194.55M278.6,197.3C279.533,198.633 280.083,200.133 280.25,201.8L280.25,203.6L280.2,204L280.05,204L279.9,204.05L279.85,204.15L279.55,204.7L279.45,204.8C279.15,205.1 278.8,205.267 278.4,205.3L278.3,205.3L277.45,205.05L277.15,204.8L276.85,204.45L276.75,204.35L276.65,204.35L276.55,204.45L276.25,204.8C275.917,205.133 275.533,205.3 275.1,205.3C274.633,205.3 274.25,205.133 273.95,204.8L273.7,204.45L273.6,204.35L273.45,204.35L273.35,204.45L273.05,204.8C272.717,205.133 272.333,205.3 271.9,205.3L271.15,205.1L272.35,202.9C273.117,203.6 274.033,203.95 275.1,203.95C276.2,203.95 277.15,203.55 277.95,202.75C278.717,201.95 279.117,201 279.15,199.9C279.117,198.967 278.833,198.167 278.3,197.5L278.6,197.3M284.5,204.25C284.467,204.383 284.183,204.533 283.65,204.7L282.4,204.9C282,204.7 281.55,204.533 281.05,204.4L280.6,204.3L280.6,204.1L280.65,203.55L280.85,203.55L281.35,203.5L281.65,203.5L283.65,203.8C284.183,203.933 284.467,204.083 284.5,204.25M280.7,201.95L280.75,201.95L282.75,201.8L283.2,201.85L283.5,202L282.9,202.5L281.15,203.1L280.95,203.1L280.85,203.15L280.65,203.15L280.65,201.95L280.7,201.95M275,210.2L276.8,208.4L275.55,211.1L275.55,211.15L275.45,211.35L275,212.4L274.75,211.95L274.75,211.9L274.7,211.8L274.7,211.75L273.2,208.45L274.8,210.15L274.85,210.2L275,210.2M283.4,206.15L282.6,206.3L280.6,205.95L280.25,205.8L280.5,204.7L280.95,204.8L282.25,205.3L282.8,205.6L283.4,206.15M265.45,209.9L267.15,208.1L265.65,211.5L265.6,211.5L265.55,211.65L265.35,212.15L264.8,211L264.8,210.95L264.7,210.7L264.65,210.7L263.55,208.2L265.15,209.9L265.25,209.95L265.35,209.95L265.45,209.9M271.95,212.95L272.25,214.15L272.45,216.15L272.2,216.9L271.7,216.3C271.433,215.767 271.233,215.117 271.1,214.35L271.1,214.2L271.05,214.2L270.95,213.05L271.95,212.95M269.7,213.05L269.4,214.35L268.95,215.65L268.9,215.7L268.6,216.2L268.05,216.8C267.95,216.733 267.9,216.467 267.9,216C267.933,215.433 268.067,214.767 268.3,214L268.65,212.95L269.7,213.05M270.55,213.05L270.7,214.3L270.7,214.75L270.45,217.05L270,217.9C269.833,217.867 269.667,217.583 269.5,217.05L269.3,215.8L269.8,214.45L270.1,213.05L270.55,213.05M260.2,202.05L260.15,202.8L260.15,203.2L259.8,203.15L259.65,203.15L259.6,203.1L257.7,202.5L257.1,202.05L257.1,202L257.85,201.8L259.85,201.95L260.2,202.05M260.2,203.6L260.25,204.25L259.55,204.45L258.25,204.9L256.95,204.7C256.383,204.533 256.1,204.383 256.1,204.25C256.1,204.083 256.383,203.933 256.95,203.8L259.25,203.55L259.7,203.55L260.2,203.6M257.2,206.15L257.8,205.6L258.35,205.3L259.65,204.8L260.3,204.65L260.55,205.75L260,205.95L258,206.3L257.2,206.15" style="fill:#d7a31c;"/>
                <path d="M273.95,200.15L273.85,200.65L273.95,201.15L274.3,201.35L274.6,201.15L274.75,200.65L274.6,200.15L274.3,199.95L273.95,200.15M277.3,202.25C276.667,202.917 275.883,203.25 274.95,203.25C274.017,203.25 273.233,202.917 272.6,202.25C272.233,201.917 271.983,201.533 271.85,201.1L277.6,197.9C278.067,198.467 278.3,199.133 278.3,199.9C278.3,200.833 277.967,201.617 277.3,202.25M268.35,202.25C267.683,202.917 266.883,203.25 265.95,203.25C265.017,203.25 264.233,202.917 263.6,202.25C262.967,201.617 262.65,200.833 262.65,199.9C262.65,199.133 262.883,198.45 263.35,197.85L269.1,201.1L268.35,202.25M266.85,200.15L266.55,199.95L266.2,200.15L266.1,200.65L266.2,201.15L266.55,201.35L266.85,201.15L267,200.65L266.85,200.15" style="fill:#f0f1f4;"/>
                <path d="M278.3,205.7C278.833,205.667 279.3,205.467 279.7,205.1L280.1,204.55C279.733,206.45 278.833,208.133 277.4,209.6L276.2,210.65L277.6,207.5L277.6,207.35L277.55,207.25L277.4,207.2L277.3,207.3L274.95,209.75L272.65,207.3L272.55,207.2L272.4,207.25L272.35,207.35L272.35,207.5L274.25,211.75C273.25,212.15 272.167,212.383 271,212.45L270.5,212.5L270.4,212.5C268.8,212.5 267.35,212.167 266.05,211.5L267.95,207.25L268,207.1L267.9,207L267.75,206.95L267.65,207L267.55,207.1L265.3,209.5L263,207.05L262.9,206.95L262.75,207L262.7,207.1L262.7,207.25L263.95,210.1L263.45,209.6C262.083,208.267 261.2,206.733 260.8,205L260.9,205.1C261.3,205.467 261.783,205.667 262.35,205.7C262.883,205.667 263.35,205.467 263.75,205.1L263.95,204.9L264.1,205.1C264.467,205.467 264.933,205.667 265.5,205.7L266.15,205.6L266.75,205.25L266.95,205.1L267.1,204.9L267.3,205.1C267.667,205.467 268.133,205.667 268.7,205.7C269.1,205.667 269.45,205.567 269.75,205.4L270.2,206.15L270.3,206.2L270.45,206.2L270.55,206.15L270.95,205.45L271.9,205.7C272.467,205.667 272.95,205.467 273.35,205.1L273.5,204.9L273.65,205.1C274.05,205.467 274.533,205.667 275.1,205.7C275.633,205.667 276.117,205.467 276.55,205.1L276.7,204.9L276.85,205.1L277.05,205.25C277.25,205.417 277.483,205.533 277.75,205.6L278.3,205.7" style="fill:#83560a;"/>
                <path d="M261.95,194.2L262.05,194L261.95,193.9L260.35,192.55L261.1,192.6C261.633,192.733 262.217,193.067 262.85,193.6L264,194.8L264.15,195.1L264.25,195.2L265,195.55L265.85,196.1L266.65,196.65C267.55,197.283 268.283,197.967 268.85,198.7L269.25,199.25L269.7,200.2L269.75,200.4L269.75,201L269.7,200.95L257.85,194.35L258.5,194L258.6,193.95L258.6,193.8L258.5,193.65L258,193.35L259,193.25C259.733,193.317 260.517,193.583 261.35,194.05L261.45,194.15L261.5,194.15L261.8,194.2L261.95,194.2M262.95,197.65C262.45,198.283 262.217,199.033 262.25,199.9C262.25,200.933 262.617,201.817 263.35,202.55C264.05,203.25 264.917,203.617 265.95,203.65C266.85,203.617 267.633,203.333 268.3,202.8L268.45,203.05C267.717,203.717 266.85,204.05 265.85,204.05C264.783,204.05 263.867,203.667 263.1,202.9C262.333,202.133 261.95,201.217 261.95,200.15C261.95,199.15 262.25,198.3 262.85,197.6L262.95,197.65M278.1,193.6C278.7,193.1 279.283,192.767 279.85,192.6L280.6,192.55L278.95,193.9L278.9,194L278.9,194.15L279,194.2L279.15,194.25L279.4,194.15L279.45,194.15L279.55,194.05C280.383,193.583 281.183,193.317 281.95,193.25L282.95,193.35L282.4,193.65L282.3,193.8L282.35,193.95L282.45,194.05L283.05,194.4L271.2,201L271.15,201L271.15,200.85L271.2,200.35L271.25,200.15L271.65,199.3L272.05,198.75C272.65,197.983 273.4,197.267 274.3,196.6L274.95,196.15L275.25,196C275.283,195.933 275.35,195.883 275.45,195.85L275.95,195.6C276.183,195.433 276.433,195.3 276.7,195.2L276.75,195.1L276.9,194.85L278.1,193.6M274.15,196.25C273.45,196.383 272.833,196.717 272.3,197.25C271.767,197.783 271.433,198.4 271.3,199.1L271.2,199.25C271.333,198.45 271.7,197.75 272.3,197.15C272.9,196.517 273.617,196.15 274.45,196.05L274.15,196.25M278.2,197.55C278.733,198.217 279,199 279,199.9C279,200.967 278.617,201.883 277.85,202.65C277.083,203.417 276.167,203.8 275.1,203.8C274.067,203.8 273.183,203.467 272.45,202.8L272.5,202.7C273.167,203.3 273.983,203.617 274.95,203.65C275.983,203.617 276.867,203.25 277.6,202.55C278.333,201.817 278.7,200.933 278.7,199.9C278.667,199.067 278.417,198.333 277.95,197.7L278.2,197.55M268.9,202.6L268.75,202.8L268.6,202.55L269.45,201.25L269.6,201.35L268.95,202.55L268.9,202.6M272.15,202.5L271.4,201.35L271.5,201.3L272.2,202.45L272.15,202.5" style="fill:#a48860;"/>
            </g>
            <g id="sprite0" transform="matrix(0.7513,0,0,1.0625,261.1,221.25)">
                <g id="shape1">
                    <path d="M25.35,2.4C25.317,3.067 24.067,3.633 21.6,4.1L12.7,4.8L3.75,4.1C1.25,3.633 0.017,3.067 0.05,2.4C0.017,1.733 1.25,1.167 3.75,0.7L12.7,0L21.6,0.7C24.067,1.167 25.317,1.733 25.35,2.4" style="fill-opacity:0.6;"/>
                </g>
            </g>
        </g>
    </g>
</svg>
