<?xml version="1.0" encoding="UTF-8"?>
<svg version="1.1" viewBox="0 0 42.65 40.874" xmlns="http://www.w3.org/2000/svg" xmlns:cc="http://creativecommons.org/ns#" xmlns:dc="http://purl.org/dc/elements/1.1/" xmlns:rdf="http://www.w3.org/1999/02/22-rdf-syntax-ns#" xmlns:xlink="http://www.w3.org/1999/xlink">
<metadata>
<rdf:RDF>
<cc:Work rdf:about="">
<dc:format>image/svg+xml</dc:format>
<dc:type rdf:resource="http://purl.org/dc/dcmitype/StillImage"/>
</cc:Work>
</rdf:RDF>
</metadata>
<g transform="translate(-259.15 -382.48)">
<use transform="translate(259.15,382.5)" width="42.650002" height="40.900002" xlink:href="#a"/>
</g>
<defs>
<g id="a" transform="translate(-259.15,-382.5)">
<path d="m294.95 414.4q-2.7-4.45-6.85-9.55l-0.2-1.4-9.75-12.55-0.35 0.7-0.6 0.4-0.1 0.1-0.3 0.15q-1.3 0.75-2.3 0.95l0.65 0.75 1.05 1.15 1.1 1.2 0.45 0.45 0.55 0.65 2.2 2.7 2.6 3.2 4.65 5.9 0.45 0.55 1.15 1.65 8.45 11.4 1.2 0.05 1.15-0.4 0.15-0.1 1-1.15-6.65-8.75-6.25-9.1-0.5 0.1m-13.4-10.25-0.95-0.1-1.6 1.2-0.5 0.7q-0.8 1.2-1.05 2.2l-0.1 1.1q0 0.6 0.15 1.2v0.1q0.35 1.3 1.4 2.5l-5.45 3.75-0.45-0.4-0.35 0.2 0.3 0.65-4.25 2.9-0.3-0.55-1.7-7.95 0.8-1.1 0.3-0.35 1.1-1.3 2.35-2.5 3.75-3.3 0.9-0.7 1.95-0.9-0.55-0.5q-0.25-0.7 0.2-1.8l-1.95-2.35-0.25-0.45q-0.3-0.95 1.05-1.8 1.25-0.8 2.15-0.65l0.8 0.25 2.15 2.9q0.9-0.2 1.65 0.4l1.15 1.45 9.3-3.45-7.9 5.3 0.15 0.15-0.15 0.4-0.45 0.5m-8.6-6.5 0.95-0.15-0.6 1.85-1.65-0.65m2.2 2.8 1.15 1.35 2.45-0.5 1.05-0.8m0.2-0.25 0.2-0.55-0.45-0.5-0.15-0.25-0.5-0.6m-0.85 6.95-0.25-0.05-0.25-0.2-0.35-0.35m4.55-2.25-0.45-0.95-0.1-0.7 0.1-0.4v-0.05l0.4-0.15m0.3 2.55 0.55-0.25 0.2-0.25 0.35-0.2m-0.3 7.55-0.9-0.9-0.25 1.8q3.35 2.55 5.95 5m-5.35-6.45-0.45-0.55" fill="none" stroke="#000" stroke-linecap="round" stroke-linejoin="round" stroke-opacity=".30196"/>
<path d="m270.4 397.2-0.1 1.1q-5.45-0.05-6.1-2.85l3.75-3.3 1.35 3.5 1.1 1.55m-9.6 8.85-1.15-5.35 0.8-1.1 0.3-0.35q3.55 1.2 4.15 4.05l-1.8 1.2-2.4-3.95 1.3 4.75-1.2 0.75" fill="#637687" fill-rule="evenodd"/>
<path d="m265.95 405.45-0.35 0.2-1.7 1.2-1.15-1.75-1.4 3.55-0.55-2.6 1.2-0.75-1.3-4.75 2.4 3.95 1.8-1.2 1.6-1.05 0.55-2.65 0.25 2.2 2.65-1.75q0.2 1.05 1 1.75l-5 3.65" fill="#8899a6" fill-rule="evenodd"/>
<path d="m271.95 394.3-0.5 0.7q-0.8 1.2-1.05 2.2l-1.1-1.55-1.35-3.5 0.9-0.7 3.1 2.85" fill="#394e64" fill-rule="evenodd"/>
<path d="m270.45 399.6q0.35 1.3 1.4 2.5l-5.45 3.75-0.45-0.4 5-3.65q-0.8-0.7-1-1.75l0.5-0.45m-4.85 6.05 0.3 0.65-1.6 1.1-0.4-0.55 1.7-1.2" fill="#b8c7cf" fill-rule="evenodd"/>
<path d="m268.85 391.45 3.8-1.7 1.8 2.65-2.5 1.9-3.1-2.85" fill="#2f4151" fill-rule="evenodd"/>
<path d="m270.3 398.3q0 0.65 0.15 1.3l-0.5 0.45-2.65 1.75-0.25-2.2-0.55 2.65-1.6 1.05q-0.6-2.85-4.15-4.05l3.45-3.8q0.65 2.8 6.1 2.85" fill="#69808d" fill-rule="evenodd"/>
<path d="m264.3 407.4-2.65 1.8-0.3-0.55 1.4-3.55 1.15 1.75 0.4 0.55" fill="#efeded" fill-rule="evenodd"/>
<path d="m268.85 391.45 3.8-1.7 1.8 2.65-2.5 1.9-0.5 0.7q-0.8 1.2-1.05 2.2l-0.1 1.1q0 0.65 0.15 1.3 0.35 1.3 1.4 2.5l-5.45 3.75-0.45-0.4-0.35 0.2 0.3 0.65-1.6 1.1-2.65 1.8-0.3-0.55-0.55-2.6-1.15-5.35 0.8-1.1 0.3-0.35 3.45-3.8 3.75-3.3z" fill="none" stroke="#000" stroke-linecap="round" stroke-linejoin="round" stroke-opacity=".4" stroke-width=".05"/>
<path d="m285.1 405.3q-3.25-3.4-7.95-7l0.25-1.8 7.45 7.4 0.25 1.4" fill="#7c6c38" fill-rule="evenodd"/>
<path d="m284.85 403.9-7.45-7.4-0.25 1.8q4.7 3.6 7.95 7" fill="none" stroke="#000" stroke-linecap="round" stroke-linejoin="round" stroke-opacity=".30196" stroke-width=".05"/>
<path d="m278.35 394.1 1.25 1.5-0.15 0.15 0.1 0.05 2.7 3.3 0.95 1 2.75 5.2 2.2 1.4 8.55 11.2 3.45 4.55-1.15 0.4-9.65-11.45-0.05-0.15-8.8-11.15-1.8-3.65-2.5-1.35-1.05-1.15 3.2 0.15m-0.6 2.65v0.1l-0.45-0.55 0.45 0.45m-7.3-8.5-1.95-2.35-0.25-0.45q-0.3-0.95 1.05-1.8 1.25-0.8 2.15-0.65l0.05 2.65 2.55 3.45-2.45 0.5-1.15-1.35m-2.2-2.8 1.65 0.65 0.6-1.85-0.95 0.15 0.95-0.15-0.6 1.85-1.65-0.65" fill="#a4882b" fill-rule="evenodd"/>
<path d="m287.9 403.45 0.2 1.4q0.75 0.05 2.9 2.35l3.65 5.25 6.65 8.75-1 1.15-1.2-2.6-2.4-1.85-8.55-11.2-4.95-6.6-0.95-1-2.7-3.3-0.1-0.05 0.15-0.15-1.25-1.5q1.45-0.95 0.7-2.05l1.8 2.3 0.1-0.05v-0.05l6.95 9.2m-15.65-20.2 2.15 2.9 0.5 0.6 0.15 0.25 0.45 0.5-0.2 0.55-0.2 0.25-1.05 0.8-2.55-3.45q1.4-0.8 0.75-2.4m22.7 31.15q-2.7-4.45-6.85-9.55 4.15 5.1 6.85 9.55" fill="#cdae43" fill-rule="evenodd"/>
<path d="m271.45 383 0.8 0.25q0.65 1.6-0.75 2.4l-0.05-2.65" fill="#d8ca7c" fill-rule="evenodd"/>
<path d="m279.05 392.05q0.75 1.1-0.7 2.05l-3.2-0.15-0.65-0.75q1-0.2 2.3-0.95l0.3-0.15 0.1-0.1 0.6-0.4 0.35-0.7 0.9 1.15" fill="#7c6c38" fill-rule="evenodd"/>
<path d="m288.1 404.85-0.2-1.4 0.5-0.1 2.6 3.85q-2.15-2.3-2.9-2.35" fill="#bbaf2b" fill-rule="evenodd"/>
<path d="m283.2 400.1 4.95 6.6-2.2-1.4-2.75-5.2m13.5 17.8 2.4 1.85 1.2 2.6-0.15 0.1-3.45-4.55m-16.2-17.8-2.75-3.35-0.45-0.45-1.1-1.2 2.5 1.35 1.8 3.65m18.5 22.75-1.2-0.05-8.45-11.4 9.65 11.45" fill="#b19741" fill-rule="evenodd"/>
<path d="m273.05 392.85-0.35-0.35-1.85-1.9q1.9 0.2 3.5-0.7l1.4-1 0.7 1 0.85 1.1 0.5 0.6-0.6 0.4-0.1 0.1q-2.05 0.7-4.05 0.75" fill="#8d4803" fill-rule="evenodd"/>
<path d="m274.5 393.2-1.2-0.15-0.25-0.2q2-0.05 4.05-0.75l-0.3 0.15q-1.3 0.75-2.3 0.95m-3.65-2.6-0.6-0.55q-0.25-0.7 0.2-1.8l1.15 1.35 2.45-0.5 1.05-0.8-0.75 1.6q-1.6 0.9-3.5 0.7" fill="#bb6906" fill-rule="evenodd"/>
<path d="m278.6 390.4-0.45 0.5-0.35 0.7-0.5-0.6-0.85-1.1-0.7-1-1.4 1 0.75-1.6 0.2-0.25 0.2-0.55-0.45-0.5 0.5-0.1q0.35 0.55 0.25 1.05l0.25-1q0.4 0.4 1.4 2.65h0.05v0.05l0.4-0.25 0.7 1" fill="#e6b100" fill-rule="evenodd"/>
<path d="m274.4 386.15q0.9-0.2 1.65 0.4l2.7 3.45-0.15 0.4-0.7-1-0.4 0.25v-0.05h-0.05q-1-2.25-1.4-2.65l-0.25 1q0.1-0.5-0.25-1.05l-0.5 0.1-0.15-0.25-0.5-0.6" fill="#ffff2f" fill-rule="evenodd"/>
<path d="m287.9 403.45-6.95-9.2m-0.1 0.1-1.8-2.3m21.25 30.3 1-1.15-6.65-8.75m-5.35-1.2-8.8-11.15-2.75-3.35-0.45-0.45-1.1-1.2-1.05-1.15-0.65-0.75-1.2-0.15-0.25-0.2-0.35-0.35m5.05 4.35-0.45-0.55m-6.45-5.7-0.6-0.55q-0.25-0.7 0.2-1.8l-1.95-2.35-0.25-0.45q-0.3-0.95 1.05-1.8 1.25-0.8 2.15-0.65l0.8 0.25 2.15 2.9q0.9-0.2 1.65 0.4l2.7 3.45-0.15 0.4-0.45 0.5 0.9 1.15m19.95 30.8-1.2-0.05-8.45-11.4m9.65 11.45 1.15-0.4 0.15-0.1m-25.2-34.05-1.05 0.8-2.45 0.5-1.15-1.35m7.35 3.35 0.35-0.7m-3.1-3.9-0.15-0.25-0.5-0.6m0.65 0.85 0.45 0.5-0.2 0.55m2.5 3.55-0.6 0.4-0.1 0.1-0.3 0.15q-1.3 0.75-2.3 0.95" fill="none" stroke="#000" stroke-linecap="round" stroke-linejoin="round" stroke-opacity=".4" stroke-width=".05"/>
<path d="m269.55 384.4 0.95-0.15-0.6 1.85-1.65-0.65" fill="none" stroke="#000" stroke-linecap="round" stroke-linejoin="round" stroke-opacity=".15294" stroke-width=".05"/>
<path d="m287.9 403.45 0.2 1.4q4.15 5.1 6.85 9.55m-3.95-7.2-2.6-3.85-0.5 0.1m6.75 9-3.65-5.25" fill="none" stroke="#000" stroke-linecap="round" stroke-linejoin="round" stroke-opacity=".30196" stroke-width=".05"/>
<path d="m285.6 385.15-8.9 3.45 0.1 0.7 8.55-4 0.25-0.15" fill="#869fae" fill-rule="evenodd"/>
<path d="m285.6 385.15 0.9-0.6-9.7 3.6-0.1 0.45 8.9-3.45" fill="#b8c7cf" fill-rule="evenodd"/>
<path d="m276.8 389.3 0.45 0.95 0.25 0.3 0.55-0.25 0.2-0.25 7.1-4.75-8.55 4" fill="#394e64" fill-rule="evenodd"/>
<path d="m276.7 388.6 0.1-0.45 9.7-3.6-0.9 0.6m-8.9 3.45 0.1 0.7 0.45 0.95m0.25 0.3 0.55-0.25 0.2-0.25 7.1-4.75 0.25-0.15" fill="none" stroke="#000" stroke-linecap="round" stroke-linejoin="round" stroke-opacity=".4" stroke-width=".05"/>
</g>
</defs>
</svg>
