<?xml version="1.0" encoding="UTF-8"?>
<svg version="1.1" viewBox="0 0 27.65 50.9" xmlns="http://www.w3.org/2000/svg" xmlns:cc="http://creativecommons.org/ns#" xmlns:dc="http://purl.org/dc/elements/1.1/" xmlns:rdf="http://www.w3.org/1999/02/22-rdf-syntax-ns#" xmlns:xlink="http://www.w3.org/1999/xlink">
<metadata>
<rdf:RDF>
<cc:Work rdf:about="">
<dc:format>image/svg+xml</dc:format>
<dc:type rdf:resource="http://purl.org/dc/dcmitype/StillImage"/>
</cc:Work>
</rdf:RDF>
</metadata>
<g transform="translate(-261.88 -175.33)">
<use transform="translate(261.9,175.35)" width="27.6" height="50.849998" xlink:href="#a"/>
</g>
<defs>
<g id="a">
<use width="27.6" height="50.849998" xlink:href="#b"/>
</g>
<g id="b">
<path d="m20.55 2.45 0.05-0.05-0.05 0.05m3.15 1.4-0.05 0.05v-0.05h0.05m-5.6 6.05 0.55-1.4q0.9-0.65 1.7-0.65l-0.5 1.05q-1.35 1.95-1.75 1m4.45 9.85 0.55-0.9q0.65-0.4 1.2-0.35l-0.4 0.7q-1.1 1.25-1.35 0.55m2.35-4.95 0.05-0.05-0.05 0.05m2.05 1.2v0.05-0.05" fill="#c9baa9" fill-rule="evenodd"/>
<path d="m20.55 2.45 0.05-0.05 1.35 2v0.05l-0.9 1.9-0.15 0.3q-1.1 1.85-1.75 0.65 0.9-2.45 1.4-4.85m-20.55 44.1q2.15-2.25 2.95-4.95 0.55-0.25 1.4 0.65l-1.95 4v0.05l-2.4 0.25m13.65-26.9q-0.15-0.75-0.7-0.95l3.15-4.85 0.2-0.4q2.3-2.45 1.75-0.65l-1.55 3.4-1.15 2.3-1.45 1.35-0.25-0.15v-0.05m7.2 2.65 0.15-0.25q1.85-1.5 1.3-0.3l-1.4 2.25-0.95 1.5-1.1 0.75-0.05 0.05-0.15-0.1v-0.05q-0.05-0.55-0.4-0.7l2.6-3.15m2.7-4.3 1.35-3.2 0.05-0.05 0.75 1.5v0.05l-0.8 1.25-0.1 0.15q-0.9 1.2-1.25 0.3m-16.65 25.65q1.7-1.4 2.45-3.2 0.4-0.1 0.9 0.6l-1.65 2.6-0.05 0.05-1.65-0.05" fill="#d7cabf" fill-rule="evenodd"/>
<path d="m23.65 3.9q-4.35 6.65-7.55 16.3-0.35-0.25-0.8 0.2l-0.05 0.05-0.15-0.05v-0.1l0.3-1.65v-0.1l1.1-2.35 1.55-3.4 0.15-0.25 1.65-3.65 0.5-1.05 0.15-0.3 0.4-0.9 0.15-0.3 0.9-1.9 1.7-0.6v0.05m-18.45 38.75-0.05 0.05q-1.4 2.35-2.05 5.25l-0.65-1.65-0.05-0.05 1.95-4q0.75-0.1 0.85 0.4m21.75-26.6q-3.6 4.25-6.65 10.65l-0.55 0.1-0.05 0.05-0.1-0.1v-0.05l0.35-1.1 0.05-0.1 0.9-1.5 1.4-2.25 0.1-0.15 1.5-2.4 0.4-0.7 0.15-0.2 0.35-0.6 0.1-0.15 0.8-1.25 1.25-0.3v0.05m-16.15 25.35q-1.15 1.55-1.9 3.5l-0.25-1.2-0.05-0.05 1.65-2.6h0.05q0.5-0.05 0.5 0.35" fill="#ac947d" fill-rule="evenodd"/>
<path d="m16.3 13.45 1.8-3.55q0.4 0.95 1.75-1l-1.65 3.65-0.15 0.25q0.55-1.8-1.75 0.65m2.35-4.95 0.5-1.2q0.65 1.2 1.75-0.65l-0.4 0.9-0.15 0.3q-0.8 0-1.7 0.65m2.35 13.55 1.55-2.3q0.25 0.7 1.35-0.55l-1.5 2.4-0.1 0.15q0.55-1.2-1.3 0.3m2.1-3.2 0.45-0.85q0.35 0.9 1.25-0.3l-0.35 0.6-0.15 0.2q-0.55-0.05-1.2 0.35" fill="#f0e2d7" fill-rule="evenodd"/>
<path d="m15.4 18.55v0.1-0.1m4.6 6.95-0.05 0.1 0.05-0.1" fill="#b39682" fill-rule="evenodd"/>
<path d="m15.4 18.65-0.3 1.65v0.1l-0.45-0.2 0.05-0.05-0.05-0.05-0.05 0.05-0.7-0.3 1.45-1.35 0.05 0.15m4.55 6.95-0.35 1.1v0.05l-0.3-0.15 0.05-0.05h-0.05l-0.5-0.25 0.05-0.05 1.1-0.75v0.1m-8.7 13.85v0.05l0.05-0.05 0.25 0.2-0.95 0.9h-0.05l0.25-1.4 0.45 0.3m-6.6 2 0.1-1.95 0.7 0.3v0.05h0.05l0.4 0.2-1.2 1.45-0.05-0.05" fill="#8d725f" fill-rule="evenodd"/>
<path d="m15.3 20.4 0.7 0.35v0.4l-1.85-0.85q-0.35 0.75-1.35 0.55l-0.65-0.3-0.4-0.2q-0.25-1 0.7-1.25l1.2 0.55v0.05l0.25 0.15 0.7 0.3 0.05-0.05 0.05 0.05-0.05 0.05 0.45 0.2 0.15 0.05 0.05-0.05m-8.1 18.75 0.25 0.15-0.05 0.3-1.85-0.85q-0.25 0.55-1.3 0.55l-0.95-0.45q-0.6-0.8 0.35-1.3l0.45 0.15 1.85 0.85 0.05 0.05 1.2 0.55m12.55-12.35 0.45 0.3-0.05 0.25-1.2-0.75q-0.3 0.55-1 0.3l-0.45-0.25-0.25-0.2q-0.05-0.7 0.6-0.8l0.8 0.5v0.05l0.15 0.1 0.5 0.25h0.05l-0.05 0.05 0.3 0.15 0.1 0.1 0.05-0.05m-7.2 12.35 0.15 0.1-0.05 0.2-1.25-0.75-0.95 0.25-0.6-0.35q-0.35-0.6 0.35-0.9l0.3 0.15 1.2 0.75 0.05 0.05 0.8 0.5" fill="#ee6704" fill-rule="evenodd"/>
<path d="m15.2 22-0.15 0.4-3.2-1.45 0.3-0.4 0.65 0.3 2.4 1.15m-7.7 16.65-0.3 0.5-1.2-0.55-0.05-0.05-1.85-0.85 0.2-0.55 3.2 1.5m12.05-10.75-0.15 0.3-2.1-1.3 0.2-0.25 0.45 0.25 1.6 1m-6.8 10.9-0.2 0.35-0.8-0.5-0.05-0.05-1.2-0.75 0.2-0.35 2.05 1.3" fill-rule="evenodd"/>
<path d="m16 21.15v0.1l-0.55 0.85-0.25-0.1-2.4-1.15q1 0.2 1.35-0.55l1.85 0.85m-8.6 18.45q-0.1 0.65-0.65 0.85l-0.7-0.35-0.15-0.05-0.4-0.2-0.05-0.05-0.7-0.3-0.25-0.15-0.05 0.05-0.2-0.1q1.05 0 1.3-0.55l1.85 0.85m12.75-12.25v0.1l-0.45 0.55-0.15-0.1-1.6-1q0.7 0.25 1-0.3l1.2 0.75m-7.5 12.1-0.55 0.55-0.45-0.3-0.1-0.05-0.25-0.2h-0.05l-0.45-0.3-0.2-0.1-0.15-0.1 0.95-0.25 1.25 0.75" fill="#a04503" fill-rule="evenodd"/>
<path d="m15.05 22.4q0.4 0.25 0 1.2l-6.6 14.25q-0.6 0.85-0.95 0.8l-3.2-1.5q-0.55-0.35-0.3-1.4l3.2 1.5 6.65-14.2-3.2-1.5q0.5-0.9 1.2-0.6l3.2 1.45m4.35 5.8q0.25 0.15-0.1 0.8l-5.8 9.3-0.75 0.5-2.05-1.3q-0.35-0.3-0.1-1l2.1 1.3 5.8-9.3-2.1-1.3q0.4-0.6 0.9-0.3l2.1 1.3" fill="#381e10" fill-rule="evenodd"/>
<path d="m20.6 2.4q1.75 0.15 3.55-2.4l-0.45 3.85h-0.05l-1.7 0.6v-0.05l-1.35-2m4.35 12.35q1.2 0.25 2.65-1.35l-0.65 2.6-1.25 0.3v-0.05l-0.75-1.5" fill="#e9d7c0" fill-rule="evenodd"/>
<path d="m4 35.75 6.65-14.2 3.2 1.5-6.65 14.2-3.2-1.5m6.6 0.75 5.8-9.3 2.1 1.3-5.8 9.3-2.1-1.3" fill="#884e40" fill-rule="evenodd"/>
<path d="m6.05 40.1q-0.05 0.7 0.35 0.85l-1.2 1.7q-0.1-0.5-0.85-0.4-0.85-0.9-1.4-0.65v-0.05l0.3-2.1 0.7 0.15 0.5-0.2 0.05-0.05 0.25 0.15-0.1 1.95-0.2 0.55 0.25-0.5 1.2-1.45 0.15 0.05m5.6-0.4q-0.1 0.5 0.15 0.6l-1 1.1q0-0.4-0.5-0.35h-0.05q-0.5-0.7-0.9-0.6l0.4-1.45 0.5 0.15 0.35-0.1 0.2 0.1-0.25 1.4-0.2 0.35 0.25-0.35 0.95-0.9 0.1 0.05m-3.05 3.95 0.05 0.05h-0.1l0.05-0.05m-6.15 2.65h-0.05v-0.05l0.05 0.05" fill="#a9917a" fill-rule="evenodd"/>
<path d="m11.25 39.45h0.05l-0.05 0.05v-0.05m-5.8 0.4v-0.05 0.05-0.05l0.05 0.05h-0.05" fill="#5c362e" fill-rule="evenodd"/>
<path d="m3.1 47.95-2.65 2.9q0.9-2.45-0.45-4.3l2.4-0.25h0.05l0.65 1.65m5.8-3.05-2.05 1.75q0.8-1.6 0.05-3l1.65 0.05h0.1l0.25 1.2" fill="#987b61" fill-rule="evenodd"/>
<path d="m20.9 6.65-0.4 0.9m-0.15 0.3-0.5 1.05-1.65 3.65m-0.15 0.25-1.55 3.4-1.1 2.35v0.1l-0.3 1.65v0.1m0.25-1.9-1.45 1.35m2.6-3.65-1.15 2.3m6.6-14.05 1.7-0.6h0.05m2 12.45 1.25-0.3m-2-1.25 0.75 1.5m-0.9 1.45-0.35 0.6m-0.15 0.2-0.4 0.7-1.5 2.4m-0.1 0.15-1.4 2.25-0.9 1.5-0.05 0.1-0.35 1.1v0.05m6.1-10.45-0.8 1.25m-4.3-15.15 1.35 2m0 0.05-0.9 1.9m-0.15 17.65-0.95 1.5-1.1 0.75-0.05 0.05m-10.2 17.35 0.05 0.05m-6.2 2.6-0.05-0.05" fill="none" stroke="#a08569" stroke-linecap="round" stroke-linejoin="round" stroke-width=".05"/>
<path d="m20.6 2.4-0.05 0.05m0.05-0.05q1.75 0.15 3.55-2.4l-0.45 3.85-0.05 0.05q-4.35 6.65-7.55 16.3-0.35-0.25-0.8 0.2l0.7 0.35v0.4m0 0.1-0.55 0.85-0.25-0.1-2.4-1.15m-5.6 18.3 0.25 0.15-0.05 0.3q-0.1 0.65-0.65 0.85l-0.7-0.35q-0.05 0.7 0.35 0.85l-1.2 1.7-0.05 0.05q-1.4 2.35-2.05 5.25l-2.65 2.9q0.9-2.45-0.45-4.3 2.15-2.25 2.95-4.95m0-0.05 0.3-2.1 0.7 0.15 0.5-0.2-0.2-0.1-0.95-0.45q-0.6-0.8 0.35-1.3l0.45 0.15m8.05-17.15-0.4-0.2q-0.25-1 0.7-1.25l1.2 0.55q-0.15-0.75-0.7-0.95l3.15-4.85m0.2-0.4 1.8-3.55 0.55-1.4 0.5-1.2q0.9-2.45 1.4-4.85m-5.45 17.95 0.15 0.05 0.05-0.05m-1.4-0.55-0.25-0.15v-0.05m-1.5 0.9 0.65 0.3m1.1-1 0.7 0.3 0.05-0.05 0.05 0.05-0.05 0.05 0.45 0.2m5.9 1.65 1.55-2.3 0.55-0.9 0.45-0.85 1.35-3.2 0.05-0.05q1.2 0.25 2.65-1.35l-0.65 2.6v0.05q-3.6 4.25-6.65 10.65l-0.55 0.1 0.45 0.3-0.05 0.25m0 0.1-0.45 0.55-0.15-0.1m-7 11.25 0.15 0.1-0.05 0.2-0.55 0.55-0.45-0.3q-0.1 0.5 0.15 0.6l-1 1.1q-1.15 1.55-1.9 3.5l-2.05 1.75q0.8-1.6 0.05-3 1.7-1.4 2.45-3.2l0.4-1.45 0.5 0.15 0.35-0.1-0.15-0.1-0.6-0.35q-0.35-0.6 0.35-0.9l0.3 0.15m7-11.2-0.25-0.2q-0.05-0.7 0.6-0.8l0.8 0.5q-0.05-0.55-0.4-0.7l2.6-3.15m-1.25 4.45 0.1 0.1 0.05-0.05m-0.95-0.5 0.5 0.25h0.05l-0.05 0.05 0.3 0.15m-0.8-0.45-0.15-0.1v-0.05m-1.15 0.5 0.45 0.25 1.6 1m-8.75 11.25-0.2-0.1m0.65 0.4v0.05l0.05-0.05m0.25 0.2 0.1 0.05m-5.7-1.15-1.85-0.85m0.65 1.8-0.25-0.15-0.05 0.05m1.45 0.65 0.15 0.05m-0.6-0.3v0.05h0.05m1.7-0.7-1.2-0.55m6.55 0.55-0.8-0.5m-0.05-0.05-1.2-0.75" fill="none" stroke="#241411" stroke-linecap="round" stroke-linejoin="round" stroke-width=".05"/>
<path d="m16.1 13.85 0.2-0.4m4.55 8.85 0.15-0.25m-10.2 17.1-0.25 1.4m0.05 0 0.95-0.9m-0.95 0.9-0.25 0.35 0.2-0.35m-0.3 0.5-1.65 2.6m0.05 0.05 0.25 1.2m-4.25-3.45 0.1-1.95m1.15 0.55-1.2 1.45-0.25 0.5 0.2-0.55m-2.25 4.85-2.4 0.25m4.35-4.3-1.95 4m6.15-2.55-1.65-0.05m-3.8 4.3-0.65-1.65" fill="none" stroke="#554535" stroke-linecap="round" stroke-linejoin="round" stroke-width=".05"/>
<path d="m15.05 22.4q0.4 0.25 0 1.2l-6.6 14.25q-0.6 0.85-0.95 0.8m-3.5-2.9 6.65-14.2q0.5-0.9 1.2-0.6m7.55 7.25q0.25 0.15-0.1 0.8l-5.8 9.3-0.75 0.5m-2.15-2.3 5.8-9.3q0.4-0.6 0.9-0.3" fill="none" stroke="#000" stroke-linecap="round" stroke-linejoin="round" stroke-width=".05"/>
</g>
</defs>
</svg>
