<?xml version="1.0" encoding="UTF-8"?>
<svg version="1.1" viewBox="0 0 38.4 49.5" xmlns="http://www.w3.org/2000/svg" xmlns:cc="http://creativecommons.org/ns#" xmlns:dc="http://purl.org/dc/elements/1.1/" xmlns:rdf="http://www.w3.org/1999/02/22-rdf-syntax-ns#" xmlns:xlink="http://www.w3.org/1999/xlink">
<metadata>
<rdf:RDF>
<cc:Work rdf:about="">
<dc:format>image/svg+xml</dc:format>
<dc:type rdf:resource="http://purl.org/dc/dcmitype/StillImage"/>
</cc:Work>
</rdf:RDF>
</metadata>
<g transform="translate(-234.82 -169.52)">
<use transform="translate(234.85,169.55)" width="38.349998" height="49.450001" xlink:href="#a"/>
</g>
<defs>
<g id="a" transform="translate(-.05)">
<path d="m33.1 7 0.5 0.75 1.6 2.2q0.5 0.85 0.45 2.05l-0.1 0.7-0.4 1.25-0.45-1.2-0.2-0.7q-0.2-1.5-1.15-2.4l-0.35-0.7 0.2 1q0.05 1.35-0.85 2.6l-0.25 0.35q-0.8 0.95-1.9 1.35l-0.7 0.15h-0.6l-1.8-0.35-1.9-0.7-0.05-0.05-0.2-0.05-0.5-0.25-0.25-0.1-0.15-0.05-2.05-1q-0.3-0.2-0.6-0.25l-0.05-0.7-0.1-3.6 0.1 3.6-0.5-1.15-0.25-3.35q0.55 0.25 0.65 0.8v-0.2l0.4-0.8q0.75-1 2.4-0.55 0.3 0.1 0.55-0.35 0.55-1.15 1.75-1.7l2.7-0.15 4.05 3.55m-11.85 0.3v-0.1 0.1m10.1 1.95q-0.1-0.05-0.1 0.05v0.1l0.45 0.05 0.1 0.2 0.05-0.2-0.05-0.05-0.45-0.15m0.8-0.6q-0.6-0.5-1.4-0.3t-1.45 0.85q0.65-0.65 1.45-0.85t1.4 0.3m-1.7-0.65 2.05 0.15-0.65-0.3-1.75 0.1q-0.85 0.25-1.45 0.85l-0.6 0.65q-0.85 1.15-0.85 2.4 0 0.8 0.15 1.25l0.3 0.45 0.25 0.25-0.35-0.7-0.1-0.8q-0.05-1.35 0.85-2.6l0.35-0.45q0.75-0.9 1.8-1.25m1.2 2.4v-0.05l-0.05-0.05 0.05-0.15 0.25-0.5-0.25 0.15-0.3 0.35-0.1 0.15v0.15l0.1-0.05 0.2 0.05h0.05l0.1 0.15 0.25 0.2 0.05 0.05 0.2 0.15 0.15 0.05h0.15-0.05l-0.45-0.3-0.1-0.2h-0.05l-0.1-0.05-0.1-0.1m-2.6-1-0.05 0.15 0.15 0.05 0.1 0.1v-0.05l0.05-0.15 0.1-0.15 0.9 0.3 0.5 0.2 0.15-0.1 0.1-0.4v-0.05h-0.05l-0.15 0.25-0.15 0.1-1.05-0.4-0.2-0.15v0.05h-0.05l-0.1 0.05-0.05-0.05-0.15 0.15-0.05 0.1-0.35 0.45-0.1 0.1q-0.9 1.25-0.85 2.65l0.15 0.5 0.45 0.8-0.45-0.8-0.15-0.5q-0.05-1.4 0.85-2.65l0.1-0.1 0.35-0.45m1.85 0.25h-0.1 0.15-0.05m-0.15 2.5v-0.1l-0.05-0.05-0.05-0.1h-0.15l-0.05 0.05v0.05l-0.05 0.05 0.05 0.05v0.1l-0.1 0.75 0.05 0.05v0.05h-0.05q-0.1 0.2-0.05 0.4l0.2 0.25q-0.2-0.35-0.05-0.75v-0.3l0.1 0.1 0.05-0.05 0.05-0.4 0.05 0.05v0.25l0.1 0.35 0.05 0.2h0.1l0.05 0.05 0.4 0.05 0.05-0.05-0.05-0.2-0.4 0.05v-0.25l-0.05-0.05v-0.1l-0.05-0.05v-0.2l-0.05-0.05-0.1-0.2m0.5-1.2v0.05l-0.05-0.05h0.05m0.05 0.6 0.05-0.25 0.5 0.1 0.4 0.15 0.15-0.05v-0.05l0.1-0.3-0.3 0.3-0.7-0.35-0.4-0.3v0.15l-0.15 0.35 0.05 0.1v0.1l0.1 0.45 0.2 0.65 0.2 0.05-0.1-0.1-0.2-0.65v-0.05l0.05-0.1 0.05-0.05v-0.15m0.2-1.3-0.05 0.05h-0.05 0.05v-0.05h0.05m-20.45 23.45 12.9-18.2q1.3 0.15 0.35 0.95-1 0.8-1.65 2.15l-0.7 0.9q-1.05 0.95-1.6 2.4l-0.75 1.65q-0.8 1.4-1.85 2-1.3 0.65-1.9 2.05l-1.2 2.45-1.65 2.4-1.95 1.25m10.35-22-0.05-0.1h0.05v0.1m-2.45-4.55v-0.1l-0.35-4.65 0.75 1.5v0.05l0.15 3.85-0.55-0.65m10.4 2.55q-0.1-0.05-0.05 0.05l0.3 0.25v0.05l0.05 0.05q0.4 0.1 0.5 0.55l0.15-0.05v-0.15l0.05-0.05q-0.25-0.35-0.65-0.4l-0.05-0.05-0.3-0.25m-0.95 1.95v0.05-0.05m1.8-0.9h-0.05l-0.1 0.1-0.35 0.15-0.25 0.05-0.6 0.2h-0.2l-0.1-0.05h-0.1l-0.05 0.05v0.05l-0.2 0.25v0.15l0.05 0.05 0.05 0.1v0.05l0.05-0.1h0.05l0.05 0.25 0.1 0.1h0.15-0.05l-0.15-0.5h0.1l-0.1-0.15h-0.05l0.05-0.05v-0.15l0.25 0.05h0.05l1.1-0.15v-0.05l0.2-0.05v-0.15l0.05-0.05h0.05v-0.15m-0.5 1.4-0.05-0.2 0.05-0.1h-0.05q-0.35 0.15-0.75 0.35v0.05l-0.05 0.05h-0.05l-0.05 0.05-0.05-0.05-0.05 0.05 0.05 0.1h0.05l0.05-0.05 0.15-0.05 0.05-0.05v-0.05l0.3-0.05 0.2 0.05-0.15 0.15-0.4 0.65-0.1 0.3-0.1 0.1 0.05 0.15 0.05 0.05h0.05v0.05l0.35 0.15v0.05l0.05-0.05 0.1-0.3h0.05l0.1-0.1h0.1l0.05-0.1 0.2-0.35 0.05 0.6 0.05 0.1 0.3 0.1-0.2-0.15v-0.75l-0.05-0.05-0.05-0.25-0.05 0.35h-0.1v-0.1l0.05-0.1 0.1-0.5-0.15 0.45-0.1 0.1-0.1 0.2-0.05 0.15-0.25 0.4h-0.05l-0.05 0.2-0.05 0.05-0.2-0.2h0.05l0.15-0.4 0.1-0.05h-0.05l0.1-0.1 0.35-0.9" fill="#d1f1f0" fill-rule="evenodd"/>
<path d="m33.35 9.65q0.95 0.9 1.15 2.4l0.2 0.7 0.45 1.2 0.4-1.25 0.1-0.7q0.05-1.2-0.45-2.05l-1.6-2.2-0.5-0.75 2.8 2.5 0.1 0.1 1.65 1.45-0.1 0.1 0.3 0.2 0.1 0.95-0.1 0.3q-0.25 1.15-0.85 2.1-0.75 1.2-2.1 1.65l-1.55 0.05q-0.7-0.25-0.6-1.3l-0.3 0.3q-1.45 0.5-2.45 1.1l-3.3-1.8-1.55-0.9-0.1-0.05-0.3-0.25-0.05 0.05-3.3-1.85v-0.1q0.3 0.05 0.6 0.25l2.05 1 0.15 0.05 0.25 0.1 0.5 0.25 0.2 0.05 0.05 0.05 1.9 0.7 1.8 0.35h0.6l1.2-0.1q1.1-0.4 1.9-1.45l0.1-0.1q0.8-1.15 0.75-2.4l-0.1-0.7m-12 1.25 0.05 0.7h-0.05l-0.4-0.6v-0.45l-0.1-0.8 0.5 1.15m-10.9 23.6 0.5-0.7 0.1-0.1 1.95-1.25 1.65-2.4 1.2-2.45q0.6-1.4 1.9-2.05 1.05-0.6 1.85-2l0.75-1.65q0.55-1.45 1.6-2.4l0.7-0.9q0.65-1.35 1.65-2.15 0.95-0.8-0.35-0.95l0.35-0.5 0.5 0.35q0.3 0.45-0.3 1.4l-1.5 2.4-1.6 2.15q-0.9 1-1.55 2.15l-1.45 2.1-1.35 1.5-1.1 1.55-1.6 2.2-0.15 0.45-1.5 2.15q-1.05 1.25-2.25 1.1m9.1-24.7-0.45-0.75-0.15-1.9 0.55 0.65 0.05 2m6.35 4.2-0.1-0.05 0.1 0.05" fill="#97c6c5" fill-rule="evenodd"/>
<path d="m30.45 8q-1.05 0.35-1.8 1.25l-0.35 0.45q-0.9 1.25-0.85 2.6l0.1 0.8 0.35 0.7-0.25-0.25-0.3-0.45q-0.15-0.45-0.15-1.25 0-1.25 0.85-2.4l0.6-0.65q0.6-0.6 1.45-0.85l1.75-0.1 0.65 0.3-2.05-0.15m1.2 2.4 0.1 0.1 0.1 0.05h0.05l0.1 0.2 0.45 0.3h0.05-0.15l-0.15-0.05-0.2-0.15-0.05-0.05-0.25-0.2-0.1-0.15h-0.05 0.05l0.05-0.05m-2.35-1.2 0.1-0.05h0.05v-0.05l0.2 0.15 1.05 0.4 0.15-0.1 0.15-0.25h0.05v0.05l-0.1 0.4-0.15 0.1-0.5-0.2-0.9-0.3-0.1 0.15-0.05 0.15v0.05l-0.1-0.1-0.15-0.05 0.05-0.15 0.05-0.1 0.15-0.15 0.05 0.05-0.25 0.2 0.25-0.2m1.6 0.45h0.05-0.15 0.1m-0.15 2.5 0.1 0.2 0.05 0.05v0.2l0.05 0.05v0.1l0.05 0.05v0.25l0.4-0.05 0.05 0.2-0.05 0.05-0.4-0.05-0.05-0.05h-0.1l-0.05-0.2-0.1-0.35v-0.25l-0.05-0.05 0.05-0.1v-0.05h0.05m-0.55-1.4v0.15h-0.05l-0.05 0.05v0.15l-0.2 0.05v0.05l-1.1 0.15h-0.05l-0.25-0.05v0.15l-0.05 0.05h0.05l0.1 0.15h-0.1l0.15 0.5h0.05-0.15l-0.1-0.1-0.05-0.25h-0.05l-0.05 0.1v-0.05l-0.05-0.1-0.05-0.05v-0.15l0.2-0.25v-0.05l0.05-0.05h0.1l0.1 0.05h0.2l0.6-0.2 0.25-0.05 0.35-0.15 0.1-0.1h0.05m-1.8 0.9v0.05-0.05m1.3 0.5-0.35 0.9-0.1 0.1h0.05l-0.1 0.05-0.15 0.4h-0.05l0.2 0.2h0.05l0.05 0.05h-0.05l-0.35-0.15v-0.05h-0.05v-0.3l0.1-0.3 0.4-0.65 0.15-0.15h0.1l0.1-0.1m0.25 0.8 0.05-0.35 0.05 0.25 0.05 0.05v0.75l0.2 0.15-0.3-0.1-0.05-0.1-0.05-0.6h0.05v-0.05" fill="#fff" fill-rule="evenodd"/>
<path d="m33.1 7-4.05-3.55-1.35-1.15-0.5-0.35-0.25-0.1-6.5 2.35 0.15 2.2 0.25 3.35 0.1 0.8-1.05-0.6v-1.1l0.2-2.7 0.2-2.65 2.35-0.85 2.3-1.1q0.75-0.45 1.8-0.35l9.05 7.9 0.2 0.35-0.1 0.05-2.8-2.5m-3.6 7.4 0.7-0.15q1.1-0.4 1.9-1.35l0.25-0.35q0.9-1.25 0.85-2.6l-0.2-1 0.35 0.7 0.1 0.7q0.05 1.25-0.75 2.4l-0.1 0.1q-0.8 1.05-1.9 1.45l-1.2 0.1m1.85-5.15 0.45 0.15 0.05 0.05-0.05 0.2-0.1-0.2-0.45-0.05v-0.1q0-0.1 0.1-0.05m0.2 1.2-0.2-0.05-0.1 0.05v-0.15l0.1-0.15 0.3-0.35 0.25-0.15-0.25 0.5-0.05 0.15 0.05 0.05v0.05l-0.05 0.05h-0.05m-0.05-0.2h-0.05v0.05h-0.05 0.05l0.05-0.05m-0.2 1.3v0.15l-0.05 0.05-0.05 0.1v0.05l0.2 0.65 0.1 0.1-0.2-0.05-0.2-0.65-0.1-0.45v-0.1l-0.05-0.1 0.15-0.35v-0.15l0.4 0.3 0.7 0.35 0.3-0.3-0.1 0.3v0.05l-0.15 0.05-0.4-0.15-0.5-0.1-0.05 0.25m-0.05-0.6h-0.05l0.05 0.05v-0.05m-0.6 1.35-0.05 0.4-0.05 0.05-0.1-0.1v0.3q-0.15 0.4 0.05 0.75l-0.2-0.25q-0.05-0.2 0.05-0.4h0.05v-0.05l-0.05-0.05 0.1-0.75v-0.1l-0.05-0.05 0.05-0.05v-0.05l0.05-0.05h0.15l0.05 0.1 0.05 0.05v0.1h-0.05v0.05l-0.05 0.1m0.05 0.3v-0.25 0.25m7.25-0.3 0.45 4.05-5.4 1.9-3-1.75q1-0.6 2.45-1.1l0.3-0.3q-0.1 1.05 0.6 1.3l1.55-0.05q1.35-0.45 2.1-1.65 0.6-0.95 0.85-2.1l0.1-0.3m-11.25 2.4-15.55 21.6q-1.05-0.1-1.55-0.6l0.85-1.2q1.2 0.15 2.25-1.1l1.5-2.15 0.15-0.45 1.6-2.2 1.1-1.55 1.35-1.5 1.45-2.1q0.65-1.15 1.55-2.15l1.6-2.15 1.5-2.4q0.6-0.95 0.3-1.4l-0.5-0.35 0.85-1.2 1.55 0.9m2.65-5 0.3 0.25 0.05 0.05q0.4 0.05 0.65 0.4l-0.05 0.05v0.15l-0.15 0.05q-0.1-0.45-0.5-0.55l-0.05-0.05v-0.05l-0.3-0.25q-0.05-0.1 0.05-0.05m0.15 2.55-0.2-0.05-0.3 0.05v0.05l-0.05 0.05-0.15 0.05-0.05 0.05h-0.05l-0.05-0.1 0.05-0.05 0.05 0.05 0.05-0.05h0.05l0.05-0.05v-0.05q0.4-0.2 0.75-0.35h0.05l-0.05 0.1 0.05 0.2-0.1 0.1h-0.1m-0.3 1.55 0.05-0.05 0.05-0.2h0.05l0.25-0.4 0.05-0.15 0.1-0.2 0.1-0.1 0.15-0.45-0.1 0.5-0.05 0.1v0.1h0.1v0.05h-0.05l-0.2 0.35-0.05 0.1h-0.1l-0.1 0.1h-0.05l-0.1 0.3-0.05 0.05v-0.05h0.05l-0.05-0.05h-0.05" fill="#588f8f" fill-rule="evenodd"/>
<path d="m29.05 3.45-2.7 0.15q-1.2 0.55-1.75 1.7-0.25 0.45-0.55 0.35-1.65-0.45-2.4 0.55l-0.4 0.8v0.2q-0.1-0.55-0.65-0.8l-0.15-2.2 6.5-2.35 0.25 0.1 0.5 0.35 1.35 1.15m-10.45-1.05v-0.15l1.55-0.5h-0.05l5.05-1.75 0.65 0.35-6.45 2.7v0.85l-0.75-1.5m2.65 4.6-0.05-2.05 6.5-2.65-6.5 2.65 0.05 2.05m-0.8-2.8 0.75 0.75-0.75-0.75m-1.85-1.95 0.75 0.8-0.75-0.8" fill="#f5fcfc" fill-rule="evenodd"/>
<path d="m29.35 14.4h0.15-0.15m-9.45-4.45-0.35-0.15-0.05-2-0.15-3.85v-0.9l6.45-2.7 0.95 0.85q-1.05-0.1-1.8 0.35l-2.3 1.1-2.35 0.85-0.2 2.65-0.2 2.7v1.1" fill="#8db0b4" fill-rule="evenodd"/>
<path d="m11.15 36.3 0.35 0.05-0.6 0.15-0.7-0.15-0.65-0.3-0.45-0.45 0.1-0.05 0.25-0.05 0.1 0.15 0.05 0.05q0.5 0.5 1.55 0.6m-0.65 1.6q-0.75 0.45-1.1 1.1l-0.15 0.05-0.2-0.05v-0.05l0.15-0.3 0.1-0.25q0.15-0.35 0.45-0.6 0.35-0.2 0.8 0l-0.05 0.1m-1.4 1.95q-0.7 0.5-1.1 1.2l-0.25 0.15q-0.1 0.05-0.1-0.05l-0.2-0.5 0.05-0.1 0.25-0.35 0.05-0.05q0.5-0.45 0.9-0.4l0.4 0.05v0.05m-1.6 2.25-1.05 1.1-0.15 0.2q-0.2 0.2-0.35 0-0.2-0.25-0.1-0.55 0.65-0.75 1.1-0.75l0.55-0.05v0.05m-1.55 2.1-1.25 1.4-0.1 0.15-0.15 0.15q-0.3 0.05-0.3-0.35l0.2-0.55 0.1-0.1q0.65-0.7 1.05-0.65l0.45-0.05m-5.9 4 0.25-0.3v-0.05l0.1 0.15 0.5 0.45 0.55 0.3h-0.15l-0.7-0.15-0.55-0.4" fill="#f00" fill-rule="evenodd"/>
<path d="m11.5 36.35h0.05q0.35 0.45-0.25 0.55l-0.1 0.1-0.15-0.1-0.9-0.2-0.65-0.35-0.1-0.15-0.35-0.35q-0.05-0.15 0.05-0.25l0.45 0.45 0.65 0.3 0.7 0.15 0.6-0.15m-0.7 1.2-0.2 0.3-0.1 0.05 0.05-0.1q-0.45-0.2-0.8 0-0.3 0.25-0.45 0.6l-0.1 0.25-0.15 0.3v0.05l0.05 0.85v-0.05l-0.4-0.05q-0.4-0.05-0.9 0.4l-0.05 0.05-0.25 0.35-0.05 0.1-0.1 0.7 0.25 0.55-0.05 0.15-0.05 0.05v-0.05l-0.55 0.05q-0.45 0-1.1 0.75v0.05q-0.15 0.15-0.15 0.35l0.05 0.2 0.25 0.75h-0.05l-0.45 0.05q-0.4-0.05-1.05 0.65l-0.1 0.1-0.2 0.55-0.1 0.6 0.15 0.5-1.15 1.6-0.1-0.1-0.55 0.35-0.7 0.05-0.7-0.25-0.6-0.3-0.1-0.15 8.45-11.55 0.6 0.1 0.1 0.05 0.65 0.3h0.05q0.3 0.1 0.55 0.35l0.1 0.45m-9 11.9-0.7-0.2-0.7-0.45-0.3-0.4-0.05-0.2 0.55 0.4 0.7 0.15h0.15l0.95 0.2v0.15l-0.6 0.25v0.1m7-12.8-0.2 0.4-0.45 0.55-0.4 0.6q-0.35-0.05-0.45 0.25l-0.2 0.3-0.35 0.55-0.4 0.45q-0.25 0.2-0.35 0.55l-0.25 0.65-0.45 0.6-0.25 0.25-0.15 0.25-0.1 0.1-0.2 0.1q-0.35 0.05-0.45 0.45l-0.4 0.8-0.35 0.5-0.35 0.7-0.1 0.4-0.15 0.45-0.05 0.1-0.35 0.55-0.55 0.3h-0.05q-0.15 0-0.2 0.1-0.4 0.25-0.1 0.4l-0.3 0.25 0.25 0.05 0.15-0.15 0.4-0.25q-0.1-0.15-0.2-0.15l0.15-0.15 0.6-0.25 0.3-0.65v-0.1l0.15-0.5 0.3-0.6 0.35-0.55q0.2-0.3 0.5-0.4l0.5-0.4v-0.1q-0.1-0.35 0.15-0.65l0.1-0.2 0.2-0.3 0.4-0.3 0.55-0.2q0.45-0.15 0.25-0.8l0.2-0.55 0.4-0.65 0.15-0.15q0.15-0.25 0.45-0.3l0.25-0.4q-0.05-0.15 0.05-0.3v-0.05l0.2-0.25 0.25-0.25 0.2-0.25 0.1-0.15 0.25-0.15 0.6-0.25 0.3-0.05q-0.2-0.3-0.6-0.3-0.25-0.05-0.3 0.1m-1.25 5.4h-0.05 0.05m3.05-4.2-0.05-0.05 0.05 0.05" fill="#d90000" fill-rule="evenodd"/>
<path d="m11.2 37-0.4 0.55-0.1-0.45q-0.25-0.25-0.55-0.35h-0.05l-0.65-0.3-0.1-0.05-0.6-0.1 0.3-0.45 0.35 0.35 0.1 0.15 0.65 0.35 0.9 0.2 0.15 0.1m-1.8 2-0.25 0.85h-0.05l-0.05-0.85 0.2 0.05 0.15-0.05m-1.4 2.05-0.4 0.85-0.25-0.55 0.1-0.7 0.2 0.5q0 0.1 0.1 0.05l0.25-0.15m-1.55 2.15q-0.3 0.45-0.45 1l-0.25-0.75-0.05-0.2q0-0.2 0.15-0.35v-0.05q-0.1 0.3 0.1 0.55 0.15 0.2 0.35 0l0.15-0.2m-1.85 2.55-0.4 0.9-0.15-0.5 0.1-0.6q0 0.4 0.3 0.35l0.15-0.15m-1.55 2.5-0.5 0.7q0.1 0.3-0.15 0.4l-0.35 0.1h-0.25v-0.1l0.6-0.25v-0.15l-0.95-0.2-0.55-0.3-0.5-0.45 0.6 0.3 0.7 0.25 0.7-0.05 0.55-0.35 0.1 0.1m5.75-11.6q0.05-0.15 0.3-0.1 0.4 0 0.6 0.3l-0.3 0.05-0.6 0.25-0.25 0.15-0.1 0.15-0.2 0.25-0.25 0.25-0.2 0.25v0.05q-0.1 0.15-0.05 0.3l-0.25 0.4q-0.3 0.05-0.45 0.3l-0.15 0.15-0.4 0.65-0.2 0.55q0.2 0.65-0.25 0.8l-0.55 0.2-0.4 0.3-0.2 0.3-0.1 0.2q-0.25 0.3-0.15 0.65v0.1l-0.5 0.4q-0.3 0.1-0.5 0.4l-0.35 0.55-0.3 0.6-0.15 0.5v0.1l-0.3 0.65-0.6 0.25-0.15 0.15q0.1 0 0.2 0.15l-0.4 0.25-0.15 0.15-0.25-0.05 0.3-0.25q-0.3-0.15 0.1-0.4 0.05-0.1 0.2-0.1h0.05l0.55-0.3 0.35-0.55 0.05-0.1 0.15-0.45 0.1-0.4 0.35-0.7 0.35-0.5 0.4-0.8q0.1-0.4 0.45-0.45l0.2-0.1 0.1-0.1 0.15-0.25 0.25-0.25 0.45-0.6 0.25-0.65q0.1-0.35 0.35-0.55l0.4-0.45 0.35-0.55 0.2-0.3q0.1-0.3 0.45-0.25l0.4-0.6 0.45-0.55 0.2-0.4" fill="#9d0000" fill-rule="evenodd"/>
<path d="m33.1 7-4.05-3.55m0.45 10.95h-0.15m-4.2-0.6-0.1-0.05m-3.65-2.05-0.05-0.1m-2.75-9.25v-0.1m17.4 7.2v0.15l-0.1-0.1-2.8-2.5m-5.4-4.7 1.35 1.15m-2.1-1.6 0.25 0.1m-5.8 9.75v-0.1" fill="none" stroke="#8db0b4" stroke-linecap="round" stroke-linejoin="round" stroke-width=".05"/>
<path d="m29.5 14.4 0.7-0.15q1.1-0.4 1.9-1.35l0.25-0.35q0.9-1.25 0.85-2.6l-0.2-1 0.35 0.7 0.1 0.7q0.05 1.25-0.75 2.4l-0.1 0.1q-0.8 1.05-1.9 1.45l-1.2 0.1m-10.9-12v-0.05m0.75 1.55v0.05" fill="none" stroke="#8db0b4" stroke-linecap="round" stroke-linejoin="round" stroke-width=".05"/>
<path d="m21.25 7.2v0.1m-10.1 29 0.35 0.05h0.05q0.35 0.45-0.25 0.55l-0.1 0.1-0.4 0.55-0.2 0.3-0.1 0.05q-0.75 0.45-1.1 1.1l-0.25 0.85h-0.05q-0.7 0.5-1.1 1.2l-0.4 0.85-0.05 0.15-0.05 0.05-1.05 1.1q-0.3 0.45-0.45 1h-0.05l-1.25 1.4-0.1 0.15-0.4 0.9-1.15 1.6-0.5 0.7q0.1 0.3-0.15 0.4l-0.35 0.1h-0.25l-0.7-0.2-0.7-0.45-0.3-0.4-0.05-0.2 0.25-0.3v-0.05l8.45-11.55 0.3-0.45q-0.05-0.15 0.05-0.25l0.1-0.05 0.25-0.05 0.1 0.15 0.05 0.05m9.35-28.55v-0.1l-0.35-4.65m0-0.15 1.55-0.5m-0.05 0 5.05-1.75 0.65 0.35m1.4 1.6 0.5 0.35m-6.5 2.65-0.75-0.75m-1.1-1.15-0.75-0.8m-9.35 36.8 0.15-0.05m-1.9 1.55-0.05 0.1m0.05 1.4h0.05m3-4.25 0.05 0.05m0.55-1.55q-1.05-0.1-1.55-0.6" fill="none" stroke="#000" stroke-linecap="round" stroke-linejoin="round" stroke-width=".05"/>
<path d="m36 9.6 1.65 1.45 0.2 0.3 0.1 0.95 0.45 4.05-5.4 1.9-3-1.75-3.3-1.8-15.55 21.6m-1.55-0.6 0.85-1.2 0.5-0.7m0.1-0.1 12.9-18.2 0.35-0.5 0.85-1.2 1.55 0.9m-1.65-0.95-0.35-0.2-3.3-1.85m-0.05-0.1-0.4-0.6v-0.45l-1.05-0.6-0.35-0.15-0.45-0.75-0.15-1.9m6.85-6.8 0.95 0.85 9.05 7.9 0.2 0.35" fill="none" stroke="#000" stroke-linecap="round" stroke-linejoin="round" stroke-width=".05"/>
<path d="m29.3 9.2q0.65-0.65 1.45-0.85t1.4 0.3m-3.1 0.75-0.35 0.45-0.1 0.1q-0.9 1.25-0.85 2.65l0.15 0.5 0.45 0.8m0.95-4.7-0.25 0.2" fill="none" stroke="#345454" stroke-linecap="round" stroke-linejoin="round" stroke-width=".05"/>
<path d="m21.25 7v0.2m6.45-4.9-6.5 2.65 0.05 2.05" fill="none" stroke="#476767" stroke-linecap="round" stroke-linejoin="round" stroke-width=".05"/>
<path d="m21.25 7.3 0.1 3.6 0.05 0.7m-0.95-7.4 0.15 2.2m0.35 4.15-0.1-0.8-0.25-3.35m-0.15-2.2 6.5-2.35" fill="none" stroke="#476767" stroke-linecap="round" stroke-linejoin="round" stroke-width=".05"/>
<path d="m19.35 3.95 0.15 3.85 0.05 2m-0.2-5.9v-0.85l6.45-2.7" fill="none" stroke="#658584" stroke-linecap="round" stroke-linejoin="round" stroke-width=".05"/>
</g>
</defs>
</svg>
