<?xml version="1.0" encoding="UTF-8"?>
<svg version="1.1" viewBox="0 0 400.21 336.53" xmlns="http://www.w3.org/2000/svg" xmlns:cc="http://creativecommons.org/ns#" xmlns:dc="http://purl.org/dc/elements/1.1/" xmlns:rdf="http://www.w3.org/1999/02/22-rdf-syntax-ns#" xmlns:xlink="http://www.w3.org/1999/xlink">
<metadata>
<rdf:RDF>
<cc:Work rdf:about="">
<dc:format>image/svg+xml</dc:format>
<dc:type rdf:resource="http://purl.org/dc/dcmitype/StillImage"/>
</cc:Work>
</rdf:RDF>
</metadata>
<g transform="translate(-115.4 -272.85)">
<use transform="matrix(.7429 0 0 .7429 115.39 270.74)" width="485.20001" height="420.75" xlink:href="#c"/>
<use transform="matrix(.7429 0 0 .7429 156.39 296.79)" width="485.20001" height="420.75" xlink:href="#c"/>
</g>
<defs>
<g id="c" transform="translate(.55 .35)">
<use transform="translate(151.7,217.65)" width="112.6" height="38.400002" xlink:href="#ar"/>
<use transform="translate(-.5 2.5)" width="483.14999" height="417.75" xlink:href="#v"/>
<use transform="matrix(.6262 -1.236 1.6306 .8261 208.73 118.19)" width="55.849998" height="27.1" xlink:href="#a"/>
<use transform="matrix(.9821 -.1796 .1796 .9821 172.6 41.86)" width="60.099998" height="112.3" xlink:href="#j"/>
<use transform="matrix(.649 -.1061 .1061 .649 232.82 88.628)" width="292.35001" height="168.10001" xlink:href="#i"/>
<use transform="matrix(.7511 -.0572 .0572 .7511 217.93 115.43)" width="166.60001" height="156.05" xlink:href="#g"/>
<use transform="matrix(1.1895 0 0 1.1895 -.5348 166.1)" width="242.8" height="213.8" xlink:href="#f"/>
<use transform="matrix(.0392 -.5957 1.1012 .0726 411.77 63.639)" width="55.849998" height="27.1" xlink:href="#a"/>
<use transform="matrix(-.4875 .1873 .1873 .4875 448.78 -.3543)" width="60.099998" height="112.3" xlink:href="#d"/>
<use transform="matrix(.3881 -.1641 .1713 .3849 417.76 65.562)" width="91.300003" height="52.200001" xlink:href="#b"/>
<use transform="matrix(.4188 .2825 -.287 .4157 343.63 97.401)" width="47.599998" height="49.400002" xlink:href="#u"/>
<use transform="matrix(.6927 .1995 -.1865 .6961 399.9 51.974)" width="91.300003" height="52.200001" xlink:href="#b"/>
<use transform="matrix(.1566 .894 -1.6527 .2896 475.93 73.815)" width="55.849998" height="27.1" xlink:href="#t"/>
<use transform="matrix(.9936 .1098 -.1098 .9936 102.16 161.67)" width="143.10001" height="155.10001" xlink:href="#s"/>
</g>
<g id="ar" transform="translate(-151.7,-217.65)">
<path d="m197 222.9q0 2.05-1.2 3.4-1.4 1.55-4.1 1.55-3.7 0-4.95-2.6l-0.45-2.5q0-2.35 1.65-3.8 1.55-1.25 3.7-1.3 2.2 0 3.7 1.3 1.65 1.45 1.65 3.95" fill="#5c512b" fill-rule="evenodd"/>
<path d="m175.65 243.05h38m-61.45 12.5 22.85-13.1" fill="none" stroke="#3f2b11" stroke-linecap="round" stroke-linejoin="round" stroke-opacity=".25098"/>
<path d="m263.8 221.2-32.55 5" fill="none" stroke="#101008" stroke-linecap="round" stroke-linejoin="round" stroke-opacity=".25098"/>
</g>
<g id="v" transform="translate(.5 .5)">
<use transform="translate(-.5 -.5)" width="483.14999" height="417.75" xlink:href="#aq"/>
</g>
<g id="aq" transform="translate(.5 .5)">
<path d="m444.45 81.6q7.85-0.8 23.05 9.7l0.7 0.45q7.2 5.1 10.7 10.65 1.9 2.95 2.7 6.05 1.15 4.45 0 9.15l-1.15 3.35h-0.75q-8.45 0.4-16.6-3.8-7.4-3.85-14.6-11.45-2.9-3.65-4.45-7.05-4.35-9.15-0.05-16.65l0.45-0.4m-2.9-81.1 0.25-0.15q6.35 4.95 10.25 9.75 7.15 8.9 5.5 17l-0.65 2.45-0.1 0.25q-4.8 15.5-16.9 23.05l-0.25 0.15-0.3 0.15q-1.4-1.3-2.45-2.8 0.1 4.65-2.95 7.95l-0.35 0.2q-5.15-0.75-13.25-9.8l-0.35-0.4q-3.8-4.4-5.2-8.5-0.75-2.2-0.8-4.25 0-3.05 1.45-5.85l1.25-1.95 0.5 0.1q5.45 1.05 10 5 3.55 3.1 6.6 7.95-0.1-2.2 0.2-4.6 0.45-3.35 1.7-7.15 2.05-4.3 3.5-8.15 4.5-12.35 2.35-20.4m-213.4 165.05 0.8-4.55-3 0.55q-1.75-3.85-3.15-7.7-4.85-13.1 2-21.1 0.85-1 1.85-1.85l0.25-0.3q1.6-1.3 3.45-2.45l9-6.5q-25.15-1.6-46.75-20.65l-3.9-3.6q-10.8-11.65-7.9-33.3 1.55-11.65 7.05-26.2v-0.1l0.25-0.7 0.15 0.65 0.1 0.3q4.4 15.25 24.2 31 6.1 4.85 13.75 9.8l5.9 5.5q-0.05-5.95 0.9-11.2 0.95-5.15 2.9-9.55 2.8-6.4 7.75-11.45l3.7-3.4 0.7 0.45q7.45 5.6 10.7 16.75 2.95 10.15 2.5 24.95-0.65 6.65-2.2 12.1-1.4 4.8-3.35 8.7 3.6-1.35 7.3-2.15l0.05 0.2 4.3 6.1 7.6-7.45q7.45 0 15 2.3l2.8 1q4.45 1.6 8.7 3.85 3-1.95 6.35-3.8 8.4-4.8 18.65-9.2l0.7-0.3q5.7-2.45 11.95-4.75l1.3-0.45 3.6-1.35q6.8-7.55 16.7-14.5l0.55-0.4q6.05-4.25 13.35-8.25 0.45-0.25 1-0.55 14.4-7.9 33.35-14.9l6.35-0.75 4.1 0.3q2.7 0.65 3.5 2.5-1.5 4.35-3.4 8.3l5.65 0.2q4.3-0.55 11.85-6.7l2.55-2.2q4.35-3.85 9.6-9.35 6.2-1.3 5.05 3.5-5.45 5.3-9.7 10.35l-2.95 3.65 14.15-1.55q9.7 5.05 2.95 10.15-12.55 1.2-23.3 3.2l-0.7 0.1-1.05 0.2-0.25 0.45-3.05 0.25q-15.55 3.2-26.9 8.25-3.85 3.2-8.3 5.95l-0.2 0.1q-0.15 1.7-0.9 3.45-2.25 5.3-9.35 11.1l-0.65 0.5q-7.65 6.05-20.55 12.7l-1.05 1v0.05l-2.55 4.5q-8.2 13.55-21.35 25.65l2.7 5.2-0.55 5.55 3.55 1.6h0.1l1.8 5.75q1.45 4.95 2.25 9.9 2.15 13.95-3.25 21.1l-1.4 1.65-18.45 13.25q-3.05 2.85-7.6 4.25-10.15 3.1-22.1 1.25l-4.7-6.5-6.25 3.5-0.3 0.15-2.65-0.85q-3.4-1.2-6.7-2.75-10.5 21.35-25 41.15-34.45 46.9-91.35 84.75h0.25l-4.75 3.55q-14.1 10.05-22.35 14.15-3.15 1.55-5.45 2.2l-6.25 3.35q-26.6 14.7-57 27.85-22.85 9.8-48.05 18.7l-9.65 3.25-3.65 1.25-0.3 0.05-1.4 0.5h-0.05v-0.05q6.2-13.4 9.75-20.5l5.3-10.4 4.8-9.1 8-14.5q12.9-22.7 29.95-45.6 5-6.8 10.35-13.5l1.75-3.1q0.6-1.1 2.9-3.3l1.45-1.35q6.3-11.9 23.05-31.55 19.7-23.2 51.15-44.8l10.4-7.05q2-2.65 5.15-4.4 1.8-0.95 3.65-1.45 17-11.2 26.4-16.1 18.55-9.7 38.05-16.6-2.25-3.75-4.15-7.55l0.15-0.3" fill-rule="evenodd"/>
<path d="m444.45 81.6-0.45 0.4 0.05-0.1 0.2-0.35 0.2 0.05m-2.65-81.25-0.25 0.15v-0.1l-0.05-0.05-0.1-0.35 0.3 0.25 0.1 0.1m-8.2 58.15 0.35-0.2-0.1 0.05-0.15 0.2-0.1-0.05m-205.45 107.05-0.15 0.3-0.05-0.1 0.2-0.2m-228.1 251.15v0.05h-0.05l0.05-0.05m284.35-197.1 0.3-0.15v0.3l-0.3-0.15m-21.25-109.85-0.05-0.2 0.4-0.1-0.35 0.3" fill="#9b8a49" fill-rule="evenodd"/>
<path d="m444 82q-4.3 7.5 0.05 16.65 1.55 3.4 4.45 7.05 7.2 7.6 14.6 11.45 8.15 4.2 16.6 3.8h0.75l1.15-3.35q1.15-4.7 0-9.15-0.8-3.1-2.7-6.05-3.5-5.55-10.7-10.65l-0.7-0.45q-15.2-10.5-23.05-9.7m-0.45 0.4 0.05-0.1 0.2-0.35 0.2 0.05m-2.65-81.25-0.1-0.1-0.3-0.25 0.1 0.35 0.05 0.05v0.1q2.15 8.05-2.35 20.4-1.45 3.85-3.5 8.15-1.25 3.8-1.7 7.15-0.3 2.4-0.2 4.6-3.05-4.85-6.6-7.95-4.55-3.95-10-5l-0.5-0.1-1.25 1.95q-1.45 2.8-1.45 5.85 0.05 2.05 0.8 4.25 1.4 4.1 5.2 8.5l0.35 0.4q8.1 9.05 13.25 9.8m0.35-0.2q3.05-3.3 2.95-7.95 1.05 1.5 2.45 2.8l0.3-0.15 0.25-0.15q12.1-7.55 16.9-23.05l0.1-0.25 0.65-2.45q1.65-8.1-5.5-17-3.9-4.8-10.25-9.75m-178.7 109.2q-3.7 0.8-7.3 2.15 1.95-3.9 3.35-8.7 1.55-5.45 2.2-12.1 0.45-14.8-2.5-24.95-3.25-11.15-10.7-16.75l-0.7-0.45-3.7 3.4q-4.95 5.05-7.75 11.45-1.95 4.4-2.9 9.55-0.95 5.25-0.9 11.2l-5.9-5.5q-7.65-4.95-13.75-9.8-19.8-15.75-24.2-31l-0.1-0.3-0.15-0.65-0.25 0.7v0.1q-5.5 14.55-7.05 26.2-2.9 21.65 7.9 33.3l3.9 3.6q21.6 19.05 46.75 20.65l-9 6.5q-1.85 1.15-3.45 2.45l-0.25 0.3q-1 0.85-1.85 1.85-6.85 8-2 21.1 1.4 3.85 3.15 7.7l3-0.55-0.8 4.55m-0.15 0.3q1.9 3.8 4.15 7.55-19.5 6.9-38.05 16.6-9.4 4.9-26.4 16.1-1.85 0.5-3.65 1.45-3.15 1.75-5.15 4.4l-10.4 7.05q-31.45 21.6-51.15 44.8-16.75 19.65-23.05 31.55l-1.45 1.35q-2.3 2.2-2.9 3.3l-1.75 3.1q-5.35 6.7-10.35 13.5-17.05 22.9-29.95 45.6l-8 14.5-4.8 9.1-5.3 10.4q-3.55 7.1-9.75 20.5m0 0.05h0.05l1.4-0.5 0.3-0.05 3.65-1.25 9.65-3.25q25.2-8.9 48.05-18.7 30.4-13.15 57-27.85l6.25-3.35q2.3-0.65 5.45-2.2 8.25-4.1 22.35-14.15l4.75-3.55h-0.25q56.9-37.85 91.35-84.75 14.5-19.8 25-41.15 3.3 1.55 6.7 2.75l2.65 0.85m0.3-0.15 6.25-3.5 4.7 6.5q11.95 1.85 22.1-1.25 4.55-1.4 7.6-4.25l18.45-13.25 1.4-1.65q5.4-7.15 3.25-21.1-0.8-4.95-2.25-9.9l-1.8-5.75h-0.1l-3.55-1.6 0.55-5.55-2.7-5.2q13.15-12.1 21.35-25.65l2.55-4.5v-0.05l1.05-1q12.9-6.65 20.55-12.7l0.65-0.5q7.1-5.8 9.35-11.1 0.75-1.75 0.9-3.45l0.2-0.1q4.45-2.75 8.3-5.95 11.35-5.05 26.9-8.25l3.05-0.25 0.25-0.45 1.05-0.2 0.7-0.1q10.75-2 23.3-3.2 6.75-5.1-2.95-10.15l-14.15 1.55 2.95-3.65q4.25-5.05 9.7-10.35 1.15-4.8-5.05-3.5-5.25 5.5-9.6 9.35l-2.55 2.2q-7.55 6.15-11.85 6.7l-5.65-0.2q1.9-3.95 3.4-8.3-0.8-1.85-3.5-2.5l-4.1-0.3-6.35 0.75q-18.95 7-33.35 14.9-0.55 0.3-1 0.55-7.3 4-13.35 8.25l-0.55 0.4q-9.9 6.95-16.7 14.5l-3.6 1.35-1.3 0.45q-6.25 2.3-11.95 4.75l-0.7 0.3q-10.25 4.4-18.65 9.2-3.35 1.85-6.35 3.8-4.25-2.25-8.7-3.85l-2.8-1q-7.55-2.3-15-2.3l-7.6 7.45-4.3-6.1m-0.05-0.2 0.4-0.1-0.35 0.3m-35.15 56.1-0.05-0.1 0.2-0.2m56.55 53.9v0.3l-0.3-0.15m149.55-161.3-0.1 0.05-0.15 0.2-0.1-0.05m-433.55 358.25h-0.05l0.05-0.05" fill="none" stroke="#000" stroke-linecap="round" stroke-linejoin="round" stroke-opacity=".50196"/>
</g>
<g id="a" transform="translate(5.75 .5)">
<use transform="translate(-5.75 -.5)" width="55.849998" height="27.1" xlink:href="#af"/>
</g>
<g id="af" transform="translate(5.75 .5)">
<path d="m48.9 2.05 0.5-0.05h0.2l-0.1 0.45q-5.45 6.95-14.5 9.7-7.2-0.4-12.5-3.85 5.85-2.3 11.4-3.75 7.8-2.1 15-2.5-7.2 0.4-15 2.5-5.55 1.45-11.4 3.75 5.3 3.45 12.5 3.85-9.95 7.75-23.7 6.95-5.05 1.75-10.95 0.25l-0.35-0.15 0.05-0.1q6.5-5.6 13.25-9.4 10.35-5.85 21.2-7.4 7.1-1.05 14.4-0.25m-14.4 0.25q-1 1.45-0.6 2.25-0.4-0.8 0.6-2.25m-12 6q-4.4 1.65-9 3.85-0.6-1.05-0.2-2.45-0.4 1.4 0.2 2.45 4.6-2.2 9-3.85m-9 3.85q-3.4 1.55-6.9 3.45l-6.6 3.6 6.6-3.6q3.5-1.9 6.9-3.45m-6.9 3.45q2.05 2.15 4.7 3.5-2.65-1.35-4.7-3.5" fill="#626d34" fill-rule="evenodd"/>
<path d="m35 12.15q9.05-2.75 14.5-9.7-1.15 5-7.25 9.35-5.6 3.95-15.25 7.4l-8.5 1.9q-10.8 1.6-18.15-1.75 5.9 1.5 10.95-0.25 13.75 0.8 23.7-6.95l7.25-0.35-7.25 0.35m-16.5 8.95q-4.05-0.4-7.2-2 3.15 1.6 7.2 2" fill="#56612d" fill-rule="evenodd"/>
<path d="m49.6 2h-0.2l-0.5 0.05q-7.3-0.8-14.4 0.25l0.95-1.3 0.85-0.95-0.85 0.95-0.95 1.3q-10.85 1.55-21.2 7.4 0.35-1.4 1.7-3.15l0.6-0.35q6.95-3.7 13.6-5.2l7.1-0.95q5.05-0.2 9.9 0.95l3.4 1m-49.55 17.1q0.7-4.7 14.95-12.55-1.35 1.75-1.7 3.15-6.75 3.8-13.25 9.4" fill="#798940" fill-rule="evenodd"/>
<path d="m48.9 2.05 0.5-0.05h0.2l-3.4-1q-4.85-1.15-9.9-0.95l-0.85 0.95-0.95 1.3m14.4-0.25q-7.2 0.4-15 2.5-5.55 1.45-11.4 3.75 5.3 3.45 12.5 3.85l7.25-0.35q-5.6 3.95-15.25 7.4l-8.5 1.9q-10.8 1.6-18.15-1.75l-0.35-0.15 0.05-0.1q0.7-4.7 14.95-12.55l0.6-0.35q6.95-3.7 13.6-5.2l7.1-0.95m13.2 2.4 0.1-0.45m-0.1 0.45q-1.15 5-7.25 9.35m-8.35-7.25q-0.4-0.8 0.6-2.25m-21.2 7.4q-0.4 1.4 0.2 2.45 4.6-2.2 9-3.85m-9.2 1.4q0.35-1.4 1.7-3.15m-15 12.65 6.6-3.6q3.5-1.9 6.9-3.45m-2.2 6.95q3.15 1.6 7.2 2m-7.2-2q-2.65-1.35-4.7-3.5" fill="none" stroke="#2f2915" stroke-linecap="round" stroke-linejoin="round" stroke-opacity=".25098"/>
<path d="m0.7 19.25q-6.05 3.35-5.95 6.85" fill="none" stroke="#0d0d06" stroke-linecap="round" stroke-linejoin="round" stroke-opacity=".25098"/>
</g>
<g id="j" transform="translate(.5 1.15)">
<use transform="translate(-.5 -1.15)" width="60.099998" height="112.3" xlink:href="#ac"/>
</g>
<g id="ac" transform="translate(.5 1.15)">
<path d="m14.65 1.95q-0.75 22.6 15.8 37.1 26.7 22.6 23.8 52.85-31.7-10.75-42.95-36.85l-0.15-0.35q-9.55-26.25 3.5-52.75" fill="#7a8840" fill-rule="evenodd"/>
<path d="m54.25 91.9q2.9-30.25-23.8-52.85-16.55-14.5-15.8-37.1l0.5-1-0.5 1 0.05-1.3 0.35-0.65 0.05 0.65 0.05 0.3q2.1 20.8 30.05 47.05 20.2 24.7 9.95 45.55l-1.05-0.2 0.15-1.35v-0.1" fill="#6b7838" fill-rule="evenodd"/>
<path d="m54.25 91.9v0.1l-0.15 1.35q-29.15-5.6-49.3-33.85-13.15-20.6 9.9-58.85l-0.05 1.3q-13.05 26.5-3.5 52.75l0.15 0.35q11.25 26.1 42.95 36.85" fill="#96aa4f" fill-rule="evenodd"/>
<path d="m54.25 91.9v0.1m-0.15 1.35 1.05 0.2q10.25-20.85-9.95-45.55-27.95-26.25-30.05-47.05l-0.5 1m0.05-1.3q-23.05 38.25-9.9 58.85 20.15 28.25 49.3 33.85m-38.95-92.4-0.05-0.3-0.05-0.65-0.35 0.65 0.05-1.3" fill="none" stroke="#3a331b" stroke-linecap="round" stroke-linejoin="round" stroke-opacity=".25098"/>
<path d="m17.3 12.25-3 8.3q0.8 7.45 3.15 14.05 2.5 7.05 6.8 13.1l2.45 2.55q7.65-6.1 6.65-14.45m-19.5-14.65 0.45-0.6q-1.05-9.35 0.35-20.1m2.8 34.15q-8.35-2.5-14.55-9.45m23.8 25.1q5.5 5.95 10.55 13 9.45 13.1 17.35 29.95m-17.35-29.95q-15 3.4-30 0.4m18.95-12.35 0.5-1.05m19.3 25.75q6.85-6.1 7.15-16.65" fill="none" stroke="#3a331b" stroke-linecap="round" stroke-linejoin="round" stroke-opacity=".25098"/>
<path d="m54.8 93.05q4.65 9.9 4.3 17.6" fill="none" stroke="#101008" stroke-linecap="round" stroke-linejoin="round" stroke-opacity=".25098"/>
</g>
<g id="i" transform="translate(.5 .5)">
<use transform="translate(-.5 -.5)" width="292.35001" height="168.10001" xlink:href="#ab"/>
<use transform="translate(.9 58)" width="180.8" height="109.1" xlink:href="#h"/>
</g>
<g id="ab" transform="translate(.5 .5)">
<path d="m30.45 163.75-0.3-0.1q-8-2.8-13.85-6.55-4.1-20 11.95-38.85 21.05-18.95 47.95-29.65 38.8-5.45 84.25 1.4-14.75 21.45-95.3 47.9-9.8 15.85-34.7 25.85m250.2-163.3q3.65 0.45 6.05 1.5-7 17.1-35.85 27.05-3 8-18.2 12.7-10.65-5.05-34.35-4.05l-2.35 0.1q-4.95-4.4 6.65-11.3 40.45-19.7 78.05-26m-117.45 83.75h0.05v0.05l-0.05-0.05-0.65-0.05q-32.2-3.35-66.7-1.3-2.05-7 14.15-18.55 27.1-13.15 68.35-22.5 39.1-1.85 52.75 5-7.1 13-46.6 23.35-0.6 8.15-21.3 14.05" fill="#5d542b" fill-rule="evenodd"/>
<path d="m286.7 1.95q3.85 1.6 4.65 4.6-16.95 31.75-50.25 45.35l-0.1 0.05q-1.35-6.85-8.35-10.2v-0.05q15.2-4.7 18.2-12.7 28.85-9.95 35.85-27.05m-48.1 54.95q-9.8 15.45-51.75 29l-0.8 0.55-1.1 0.7-21.7-2.95h-0.05q20.7-5.9 21.3-14.05 39.5-10.35 46.6-23.35 7.45 3.7 7.5 10.1m-58.6 36.5q-42.35 49.75-137.05 73.7-6.8-1.45-12.5-3.35 24.9-10 34.7-25.85 80.55-26.45 95.3-47.9l19.55 3.4" fill="#4f4724" fill-rule="evenodd"/>
<path d="m241 51.95-0.15 0.05q-0.75 2.45-2.25 4.9-0.05-6.4-7.5-10.1-13.65-6.85-52.75-5l-20.15 1.4 5.8-1.1 13.05-2.15 0.3-0.05 12.75-1.8 5.6-0.35h0.25l2.35-0.1q23.7-1 34.35 4.05v0.05q7 3.35 8.35 10.2m-56.05 35.2v0.05l-4.95 6.2-19.55-3.4q-45.45-6.85-84.25-1.4-24.75 3.45-46.8 11.85 11.15-7.25 25.55-13.4l24.4-2.9 12.9-1.05 3.6-0.25q34.5-2.05 66.7 1.3l0.65 0.05 0.05 0.05v-0.05l21.7 2.95" fill="#3f391d" fill-rule="evenodd"/>
<path d="m164 42.1q34.65-28 106.95-42.05l9.7 0.4q-37.6 6.3-78.05 26-11.6 6.9-6.65 11.3h-0.25l-5.6 0.35-12.75 1.8-0.3 0.05-13.05 2.15m14.35-0.3q-41.25 9.35-68.35 22.5-16.2 11.55-14.15 18.55l-3.6 0.25-12.9 1.05-24.4 2.9q29.9-29.5 101.3-43.5l1.95-0.35 20.15-1.4m-148.95 58.65q22.05-8.4 46.8-11.85-26.9 10.7-47.95 29.65-16.05 18.85-11.95 38.85-8-5.15-11.85-12.25-4-7.45-3.5-16.9 9.45-14.95 27.65-26.95l0.8-0.55" fill="#80733c" fill-rule="evenodd"/>
<path d="m286.7 1.95q3.85 1.6 4.65 4.6-16.95 31.75-50.25 45.35l-0.1 0.05m-2.4 4.95q-9.8 15.45-51.75 29l-0.8 0.55-1.05 0.7h-0.05l1.1-0.7m-1.1 0.75-4.95 6.2q-42.35 49.75-137.05 73.7-6.8-1.45-12.5-3.35l-0.3-0.1q-8-2.8-13.85-6.55m147.7-115q34.65-28 106.95-42.05l9.7 0.4q3.65 0.45 6.05 1.5m-231.75 85.1q-14.4 6.15-25.55 13.4m-29.4 26.6 0.95 0.9q9.45-14.95 27.65-26.95m-27.65 26.95q-0.5 9.45 3.5 16.9 3.85 7.1 11.85 12.25m38.65-70.05q29.9-29.5 101.3-43.5" fill="none" stroke="#101008" stroke-linecap="round" stroke-linejoin="round" stroke-opacity=".25098"/>
<path d="m16.3 157.1-0.15 0.5m140.1-114.05 1.95-0.35m-129.6 57.8 0.8-0.55" fill="none" stroke="#38270f" stroke-linecap="round" stroke-linejoin="round" stroke-opacity=".25098"/>
<path d="m241 51.95-0.15 0.05q-0.75 2.45-2.25 4.9m-5.95-15.2v0.05q7 3.35 8.35 10.2m-45.05-14.2 2.35-0.1q23.7-1 34.35 4.05m-68.65 0.4 13.05-2.15 0.3-0.05 12.75-1.8 5.6-0.35h0.25m-32.7 46.45 21.7 2.95m-89.1-4.3q34.5-2.05 66.7 1.3l0.65 0.05m-67.35-1.35-3.6 0.25-12.9 1.05-24.4 2.9m103.25-43.85 5.8-1.1" fill="none" stroke="#a68f79" stroke-linecap="round" stroke-linejoin="round" stroke-opacity=".25098"/>
<path d="m239.7 7.7q-5.6 3.95-7.15 5.3-3.5 2.95-5.25 6.2l4.95 1.95q2.15 0.75 5.7 0.75l5.05-0.55 5-0.6q9.3 0 22.8-5.7l9.85-4.4q5.3-2.25 8.3-2.85m-71.9 6.05q-4.5 2.45-8.75 7.35-4 4.6-4 6.6 0 2.45 9.25 4.05l15.8 1.3 18.9 1.2 9.95-1.1 6.4-1.15q0.75 0 1.95-0.6t1.95-0.6l2.25-0.55 1.1-0.4 0.3-0.05m-78.8-6.35q-2.7 2.55-4.95 5.8-2.4 3.3-2.4 4.7 0 0.75 0.7 1.35t0.7 1.35q0 0.35 0.8 1.15l0.8 0.95q0 0.1 1.7 0.8l2.25 1.05m-55.8 7.05h-3.2l42.15 5.65q-2.6 3.65-5.8 5.9-1.85 1.3-7.55 4.3l-0.15 0.6 7.95 0.6 16.5 0.6 7.75 1 10.4 1 11.6 1.05q9.15 0.8 4 3.4m-62.6-28.65q5.15-0.55 21.45 5.45l11.45 4.25q5.75 2 8.75 2l18.7-0.75 2.55-0.5q1.8-0.55 2.55-0.55t1.65-0.65 1.65-0.65l2.1-0.45 2.4-0.65m-92.35 40.15 1.45-0.7q-0.05 0.35-0.45 0.5l-1 0.2q-5.45 2.6-12 6.6-11.4 6.9-12.35 10.7l1.7 0.65 2.4 0.6 12.55-1.05q8.9 0 19.9-3.6l11.45-3.6q0.75 0 0.7-0.45-0.05-0.5 0.7-0.5t1.35-0.7q0.6-0.75 1.35-0.75 0.4 0 2.05-0.95 1.9-1.1 2.7-1.35m-160.75 18.05 18.1-1.35 19.6 0.9 8.35 0.9 13.45-2.4 11.8-7.05q12.05-7.05 15.1-7.05 0.75 0 2.25-0.55l2.25-0.55q0.75 0 1.95-0.6 1.15-0.6 1.9-0.6l9.3-4.05q0.75 0 1.65-0.65t1.65-0.65q0.85 0 2-0.75 1.6-1.1 2.7-1.55m-59-8.4 0.05-0.6 26.8-1.2 54 1.4q4.6 0 6.9-1.35-1.75-1.5-7.3-4.55-4.25-2.35-4.25-3.45 0-0.2-4.25-2.4l-5.35-2.85q1.15-0.9 5.8-2.7 5.05-1.95 7.25-1.95l2.25-0.55 2.25-0.6 1.55-0.15 0.9-0.05q-11.45-4.25-21.4-5.3-10.35-0.4-23.3 3.45m-81.05 47.8 8.25-0.65 7.95-0.4 4.35-0.45 4.35-0.5 3.55-0.65 3.5-0.7q0.75 0 0.7-0.5-0.1-0.55 0.65-0.55t1.35-0.65q0.6-0.7 1.35-0.7l1.6-2.3q1.55-2.65 3.1-3.7m-64.55 34.5q-0.3 0.1-0.3 0.45v-0.45h0.6q4.35-0.15 17.95-2.3 14.55-2.35 18.05-2.35 1.85 0 6.9 2.55 5.1 2.55 13.2 2.55l7.4-1.1 8.95-1.15 5.1-1 9.4-2.1q9.1-2.15 13.45-2.15l23.7 2 9.55 1.95q8.85 1.8 3.55 4.05l-0.25 0.1m-126.9 24.6q1.85-0.8 24.4-5.6 23.55-5.05 27.25-5.05 0.75 0 3.35-1.05 2.55-1.05 3.2-1.05l1.55 0.15 0.85 0.3-2.05 12q0 0.75 0.75 1.35 0.7 0.6 0.7 1.35l0.1 1.4-1 0.25q-0.9 0-0.8 1.65l0.1 2.55" fill="none" stroke="#3a331b" stroke-linecap="round" stroke-linejoin="round" stroke-opacity=".25098"/>
<path d="m0.95 127.95-0.95-0.9" fill="none" stroke="#101008" stroke-linecap="round" stroke-linejoin="round" stroke-opacity=".25098"/>
</g>
<g id="h">
<use width="180.8" height="109.1" xlink:href="#aa"/>
</g>
<g id="aa">
<path d="m28.5 42.45q11.15-7.25 25.55-13.4 17.4-17.15 48.85-29.05 47.95 8.05 77.9 33.35l-1.7 2.05q-42.35 49.75-137.05 73.7-6.8-1.45-12.5-3.35l-0.3-0.1q-8-2.8-13.85-6.55-8-5.15-11.85-12.25-4-7.45-3.5-16.9 9.45-14.95 27.65-26.95l0.8-0.55" fill="#3f391d" fill-rule="evenodd"/>
<path d="m27.7 43 0.8-0.55" fill="none" stroke="#38270f" stroke-linecap="round" stroke-linejoin="round" stroke-opacity=".25098"/>
</g>
<g id="g" transform="translate(.55 .2)">
<use transform="translate(-.55 -.2)" width="166.60001" height="156.05" xlink:href="#z"/>
</g>
<g id="z" transform="translate(.55 .2)">
<path d="m133.8 147.5-2.75 1.65 2.35-2.25 0.4 0.6" fill="#686042" fill-rule="evenodd"/>
<path d="m14.3 22 25.45-15.6q2.95-1.4 6.45-2.55 6.95-2.3 13.85-3.25l-0.45 0.3-21.15 14.8q-8.85 0.7-17.75 3.65-3.5 1.15-6.4 2.65m50.35-12.55 10.85-9.15q9.85 0.85 19.55 4.65-6.95 10.9-29 14.25-4.85-1.65-9.75-2.55l-0.1-0.05 8.45-7.15" fill="#998947" fill-rule="evenodd"/>
<path d="m85.65 144.3-8.6 4.05 0.55-6.25 0.75-9.45 7.3 11.65m-78.05-73 1.55-6 2.65-0.35 1.85-0.05-1.4 1.5-4.65 4.9m52-70.4 5.05 8.55-8.45 7.15 0.1 0.05-1.85 14.4-0.9 7.1-5.15-7.7-9.6-14.8-0.35 0.05 21.15-14.8m97.25 79.25 4.55 2.55-5.1 0.45 0.55-3" fill="#3f391d" fill-rule="evenodd"/>
<path d="m131.05 149.15q-4.2 3.45-10.4 4.8-13.8 3.1-29.35-0.6l-5.25-8.45q13.4 3.9 26.6 4 2.05-5.25 5.5-8.1l1.95-1.85q6.5-7.35 5.3-22.8-0.55-7-2.25-13.9-4.2-17.35-15.55-33.8-3.15-4.6-0.85-10.75-19.25-14.25-36.35-21.95-2.95-1.3-5.95-2.3-5-1.65-10-2.4l1.85-14.4q4.9 0.9 9.75 2.55 3.6 1.2 7.2 2.8 25.9 11.65 45.05 39.55 13.7 19.95 18.8 40.95 2.05 8.3 2.7 16.8 1.45 18.7-6.4 27.6l-2.35 2.25m-54-0.8v0.4l-0.4-0.2-3.4-1.45q-25.9-11.55-44.85-38.2-13.25-18.55-21-37.3l-0.05-0.1 0.25-0.2-0.2 0.3 0.2-0.3 4.65-4.9q1.35 4.3 3.05 8.6 6.5 16.35 18.05 32.55 15.65 22 37.05 31.55l7.2 3-0.55 6.25-0.4 0.2 0.4-0.2m-67.9-83.05-4 0.45q-1.95-5.25-3.45-10.5-5.1-17.85 4.85-27.75 1.15-1.2 2.55-2.25l0.45-0.35q2.15-1.6 4.75-2.9 2.9-1.5 6.4-2.65 8.9-2.95 17.75-3.65l0.35-0.05 9.6 14.8q-10.65-0.45-21.4 3.15-2.9 0.95-5.3 2.15l-3.9 2.4-0.4 0.3-2.1 1.85q-2.5 2.5-10.55 4 3.6 8.65 6.55 18.95l0.5 1.7-2.65 0.35m78.4 31.9q-1.6-6.6-5.9-12.85-1.6-2.35 0.8-7.45-8.95-2.25-14.9-4.9l-2.25-0.9q-7-2.35-14.15 0.05-1.1 0.35-2 0.85l-1.5 0.9-0.15 0.1q-0.45 0.35-7-1.4 3.1 5.2 4.7 10.8 0.6 2.2 1.5 4.45 2.45 6.2 6.85 12.35 5.9 8.3 14 11.95 8.15 3.65 17.45 9.95-0.65-8.25 0.65-9.3l0.75-0.75q2.45-2.75 2-8.6-0.2-2.7-0.85-5.25m16.5 1.35q1.1 4.55 1.45 9.2 0.8 10.3-3.5 15.15l-1.3 1.25q-2.3 1.9-4.65 7.3-12.85-2-27.05-8.4-14.25-6.35-24.65-21-7.7-10.75-12-21.65-1.55-3.9-2.65-7.8l-5.15-16.8 9.2 0.3 0.25-0.2 2.6-1.55q1.6-0.85 3.5-1.45 12.6-4.2 24.9-0.1l4 1.55q10.4 4.7 24.5 10.5-2.65 7.1 0.2 11.2 7.55 10.95 10.35 22.5" fill="#80733c" fill-rule="evenodd"/>
<path d="m86.05 144.9-0.4-0.6-7.3-11.65-0.75 9.45-7.2-3q-21.4-9.55-37.05-31.55-11.55-16.2-18.05-32.55-1.7-4.3-3.05-8.6l1.4-1.5-1.85 0.05-0.5-1.7q-2.95-10.3-6.55-18.95 8.05-1.5 10.55-4l2.1-1.85 0.4-0.3 3.9-2.4q2.4-1.2 5.3-2.15 10.75-3.6 21.4-3.15l5.15 7.7 0.9-7.1q5 0.75 10 2.4 3 1 5.95 2.3 17.1 7.7 36.35 21.95-2.3 6.15 0.85 10.75 11.35 16.45 15.55 33.8 1.7 6.9 2.25 13.9 1.2 15.45-5.3 22.8l-1.95 1.85q-3.45 2.85-5.5 8.1-13.2-0.1-26.6-4m18-46.35q-2.8-11.55-10.35-22.5-2.85-4.1-0.2-11.2-14.1-5.8-24.5-10.5l-4-1.55q-12.3-4.1-24.9 0.1-1.9 0.6-3.5 1.45l-2.6 1.55-0.25 0.2-9.2-0.3 5.15 16.8q1.1 3.9 2.65 7.8 4.3 10.9 12 21.65 10.4 14.65 24.65 21 14.2 6.4 27.05 8.4 2.35-5.4 4.65-7.3l1.3-1.25q4.3-4.85 3.5-15.15-0.35-4.65-1.45-9.2m-25.65 33.6-0.05 0.5 0.05-0.5" fill="#6d6333" fill-rule="evenodd"/>
<path d="m87.55 97.2q0.65 2.55 0.85 5.25 0.45 5.85-2 8.6l-0.75 0.75q-1.3 1.05-0.65 9.3-9.3-6.3-17.45-9.95-8.1-3.65-14-11.95-4.4-6.15-6.85-12.35-0.9-2.25-1.5-4.45-1.6-5.6-4.7-10.8 6.55 1.75 7 1.4l0.15-0.1 1.5-0.9q0.9-0.5 2-0.85 7.15-2.4 14.15-0.05l2.25 0.9q5.95 2.65 14.9 4.9-2.4 5.1-0.8 7.45 4.3 6.25 5.9 12.85" fill="#3a331b" fill-rule="evenodd"/>
<path d="m95.05 4.95 3.7 1.55q25.9 11.65 45.05 39.55 9.05 13.2 14.35 26.85l-1.3 7.25-0.55 3 5.1-0.45h0.1l1.9 7.75q-9.25 10.8-26.3 12.05-5.1-21-18.8-40.95-19.15-27.9-45.05-39.55-3.6-1.6-7.2-2.8 22.05-3.35 29-14.25" fill="#756735" fill-rule="evenodd"/>
<path d="m163.4 90.45q1.35 6.65 1.9 13.35 1.45 18.7-6.4 27.6l-2.05 2-23.05 14.1-0.4-0.6q7.85-8.9 6.4-27.6-0.65-8.5-2.7-16.8 17.05-1.25 26.3-12.05" fill="#524a25" fill-rule="evenodd"/>
<path d="m163.4 90.45q1.35 6.65 1.9 13.35 1.45 18.7-6.4 27.6l-2.05 2-23.05 14.1-2.75 1.65q-4.2 3.45-10.4 4.8-13.8 3.1-29.35-0.6l-5.25-8.45-0.4-0.6-8.6 4.05v0.4l-0.4-0.2-3.4-1.45q-25.9-11.55-44.85-38.2-13.25-18.55-21-37.3l-0.05-0.1 0.25-0.2 1.55-6-4 0.45q-1.95-5.25-3.45-10.5-5.1-17.85 4.85-27.75 1.15-1.2 2.55-2.25l0.45-0.35q2.15-1.6 4.75-2.9l25.45-15.6q2.95-1.4 6.45-2.55 6.95-2.3 13.85-3.25m-0.45 0.3 5.05 8.55 10.85-9.15q9.85 0.85 19.55 4.65l3.7 1.55q25.9 11.65 45.05 39.55 9.05 13.2 14.35 26.85l-1.3 7.25 4.55 2.55h0.1l1.9 7.75m-6.55-10.3-0.55 3 5.1-0.45m-149.6-17.75 1.85-0.05-1.4 1.5m65.35 75.7 0.75-9.45 0.05-0.5m-71-60.55 0.2-0.3 4.65-4.9m-3.1-1.1 2.65-0.35m65.25 83.4 0.55-6.25m-0.95 6.45 0.4-0.2m56.35-1.45-2.35 2.25m-52.7-16.5 7.3 11.65" fill="none" stroke="#101008" stroke-linecap="round" stroke-linejoin="round" stroke-opacity=".25098"/>
<path d="m108.2 47.9-13.75-5.2-7.5-13.45 11.9 5.15 9.35 13.5m25.7 56.25-2.1-17.65 8.85 15.85-0.45 16.8-6.3-15" fill="#998947" fill-rule="evenodd"/>
<path d="m43.9 11.7-0.9 10.3-9.15-5.7 10.05-4.6" fill="#6d6133" fill-rule="evenodd"/>
<path d="m81.2 77.2 18.65-9.3m-58.85 3.55-16.05-9.55m58.85 58.35 6.25 9.1" fill="none" stroke="#101008" stroke-linecap="round" stroke-linejoin="round" stroke-opacity=".25098"/>
</g>
<g id="f" transform="translate(3.35 .8)">
<use transform="translate(-.3 -.8)" width="239.75" height="212.25" xlink:href="#y"/>
<use transform="translate(-3.35,102.2)" width="134.60001" height="110.8" xlink:href="#e"/>
<use transform="translate(.5 -.6)" width="236.64999" height="211.85001" xlink:href="#w"/>
</g>
<g id="y" transform="translate(.3 .8)">
<path d="m233.3 7.85-0.2 0.35h0.05l-2.85 6.75q-4.5 10.2-11.3 20.55-3.65 5.5-7.9 11.1l-5.95 7.4-0.75 0.9q-6.25 7.4-13.6 14.85l-0.4 0.4-9.3 9.05-9.1 8.25q-28.25 24.65-68.2 50.25l-4.9 5v0.05q-17.4 17-44.4 35.05-9.75 6.45-20.7 13.1l-13.2 7.75-18.4 10.15-1.1 0.6 0.9-2.15-0.9 2.15-0.35 0.2 0.05-0.1 1.2-2.25 0.7-1.25q3.7-6.75 7.9-13.45 7.9-12.7 17.4-25.25l2.4-3.15q12.15-15.75 26.85-31.15 7.65-8.05 15.95-16 21.9-20.95 48.45-41.35l18.3-13.55q7.55-5.45 15.45-10.85l13.4-8.95 6.65-4.35q3.9-14.6 46.45-37.9 7.85 0 12.25 5.5l-0.85 2.3" fill="#685f30" fill-rule="evenodd"/>
<path d="m233.15 8.2 0.15-0.35 1.3-1.5-1.45 1.85 1.45-1.85-1.3 1.5 0.85-2.3 0.55 0.7q1.5 2.2 2.6 5.15l0.3 0.85 0.15 0.55q-36.6 106.15-186 176-22.9 10.7-48.5 20.55h-0.05l-2 0.8-0.55 0.2 0.45-0.95 1.1-0.6 18.4-10.15 13.2-7.75q10.95-6.65 20.7-13.1 27-18.05 44.4-35.05v-0.05l4.9-5q39.95-25.6 68.2-50.25l9.1-8.25 9.3-9.05 0.4-0.4q7.35-7.45 13.6-14.85l0.75-0.9 5.95-7.4q4.25-5.6 7.9-11.1 6.8-10.35 11.3-20.55l2.85-6.75m-232.95 202.55 0.55-1.15 0.35-0.2-0.45 0.95-0.45 0.4m237.4-198.5-0.95 1.4 0.65-2.25-0.65 2.25 0.95-1.4m-2.9-6-0.1 0.1 0.1-0.1m-232.5 202.55-1 1.35 1-1.35" fill="#4f4724" fill-rule="evenodd"/>
<path d="m233.3 7.85-0.15 0.35h-0.05l0.2-0.35" fill="#5c512b" fill-rule="evenodd"/>
<path d="m221.9 0.05q-42.55 23.3-46.45 37.9l-6.65 4.35-13.4 8.95q-7.9 5.4-15.45 10.85l-18.3 13.55q-26.55 20.4-48.45 41.35-8.3 7.95-15.95 16-14.7 15.4-26.85 31.15l-2.4 3.15q-9.5 12.55-17.4 25.25-4.2 6.7-7.9 13.45 10.2-21.5 21.8-41 71.55-120.4 194.75-164.8l2.65-0.15" fill="#80733c" fill-rule="evenodd"/>
<path d="m237.75 12.8 1.2 5.4-0.15 0.5q-11.05 31.7-31.5 59.65-49.45 67.35-153.9 112.45-24.85 10.7-52.7 20.15h-0.1l-0.6 0.2 0.2-0.4 0.45-0.4 0.55-0.2 2-0.8h0.05q25.6-9.85 48.5-20.55 149.4-69.85 186-176m-237.15 198.15 0.6-0.8-0.6 0.8m0.1 0 2.5-1.6-2.5 1.6" fill="#6d633a" fill-rule="evenodd"/>
<path d="m0.8 209.5 1.7-3.6-0.5 1.35-1.2 2.25" fill="#998a47" fill-rule="evenodd"/>
<path d="m2.7 206-0.7 1.25 0.5-1.35 6.05-12.4q4.15-8.4 8.5-16.4 3.3-6.2 13.95-23.5 9.55-15.55 26.95-39.8 4.4-10.4 21-29.85 16.55-19.5 43-37.65 26.45-18.2 38.35-24.4 18.2-9.55 37.5-15.85 10.4-3.4 21.15-5.85h0.3q-123.2 44.4-194.75 164.8-11.6 19.5-21.8 41" fill="#958a5e" fill-rule="evenodd"/>
<path d="m234.15 5.55q-4.4-5.5-12.25-5.5m-219.9 207.2-0.9 2.15m233.05-203.85 0.55 0.7q1.5 2.2 2.6 5.15l0.3 0.85 0.15 0.55 1.2 5.4-0.15 0.5q-11.05 31.7-31.5 59.65-49.45 67.35-153.9 112.45-24.85 10.7-52.7 20.15m-0.5-0.2 0.55-1.15 0.05-0.1 1.7-3.6 6.05-12.4q4.15-8.4 8.5-16.4 3.3-6.2 13.95-23.5 9.55-15.55 26.95-39.8 4.4-10.4 21-29.85 16.55-19.5 43-37.65 26.45-18.2 38.35-24.4 18.2-9.55 37.5-15.85 10.4-3.4 21.15-5.85h0.3l1.3-0.5m-1.3 0.5 2.65-0.15m-219.9 207.2 0.5-1.35m-1.85 4.45 0.45-0.95m0.1 0.75 1-1.35m1 0.55h0.05m-0.05 0-2.5 1.6m0.5-0.8-0.6 0.8m-0.4-0.2 0.45-0.4" fill="none" stroke="#101008" stroke-linecap="round" stroke-linejoin="round" stroke-opacity=".25098"/>
<path d="m233.3 7.85-0.2 0.35m0.05 0 1.45-1.85-1.3 1.5m1.3-1.5 0.1-0.1m2.6 5.15-0.65 2.25 0.95-1.4" fill="none" stroke="#38270f" stroke-linecap="round" stroke-linejoin="round" stroke-opacity=".25098"/>
<path d="m166.75 46.8-11.35 4.45 7.95-8.2 12.1-5.1-8.7 8.85m-59 43-8.6 3.7 3-7.25 13.4-5.8-7.8 9.35m-59.85 57.45-16.15 15.15 11.75-17.45 19.05-17.45-14.65 19.75m88.9-29.05-20.75 11.45 22.4-19.5 19.85-10.75-21.5 18.8" fill="#8b7d41" fill-rule="evenodd"/>
</g>
<g id="e" transform="translate(.45 9.05)">
<use transform="translate(-.45 -9.05)" width="134.60001" height="110.8" xlink:href="#x"/>
</g>
<g id="x" transform="translate(.45 9.05)">
<path d="m93.75 14.4 4.85-13.55-24.1 11 32.35-18.55q-9.2 13.1-13.1 21.1" fill="#80723c" fill-rule="evenodd"/>
<path d="m4.6 99.75-3.1 1.05 0.1-0.25-1.5 0.7-0.05-0.05q5.2-11.25 8.2-17.2l4.45-8.75 4.05-7.65 6.7-12.2q10.85-19.1 25.2-38.35l-2.75 27.2 21.9-9.05-25.3 40.4-37.9 24.15" fill="#8b7d41" fill-rule="evenodd"/>
<path d="m0.05 101.25h-0.05l0.05-0.05v0.05m96.4-59.55-0.1-0.1h0.25l-0.15 0.1" fill="#7d7e59" fill-rule="evenodd"/>
<path d="m1.5 100.8-0.25 0.05-1.15 0.4 1.5-0.7-0.1 0.25" fill="#5a5c40" fill-rule="evenodd"/>
<path d="m0.1 101.25h-0.05v-0.05l0.05 0.05" fill="#4f4724" fill-rule="evenodd"/>
<path d="m120.05 37.4 13.6 0.95-4 2.95-9.6-3.9m-21.95-8.65 23.15-4.1-5.3 9.95 1-6.45-18.85 0.6" fill="#6d6133" fill-rule="evenodd"/>
<path d="m90.9 22.3q0.4-3 2.85-7.9-2.45 4.9-2.85 7.9l-0.5 4.35-0.7 0.25v-0.1l-21.25 8.05 4.55-22.5 0.15 0.25 0.1-0.35h0.05l1.2-0.4 24.1-11-4.85 13.55-2.85 7.9m-18.45-11.7-4-11.95-7.2 1.7q3.2-3.15 10.5-8.9-0.55 14.15 0.7 19.15" fill="#928245" fill-rule="evenodd"/>
<path d="m48.65 17.05 8.7-11.35 1.45-2.6q0.5-0.9 2.45-2.75l7.2-1.7 4 11.95 0.5 1.6 0.05 0.15-4.55 22.5-0.6 0.2-0.05 0.15-21.9 9.05 2.75-27.2" fill="#9b8a49" fill-rule="evenodd"/>
<path d="m68.45 34.85 21.25-8.05v0.1l0.85 0.2 7.6 1.8h0.05l0.1 0.2-0.1-0.2 0.2-0.05-0.1 0.25-0.7 0.1-4.4 11.6-4.8 11.05-0.15 0.1-46.05 24.1 0.3-0.45 25.3-40.4 0.05-0.15 0.6-0.2" fill="#84753d" fill-rule="evenodd"/>
<path d="m129.65 41.3q-11.85 8.45-18.8 11.9l-22.6-1.25 0.15-0.1 4.8-11.05 4.4-11.6 0.7-0.1 0.1-0.25-0.2 0.05-0.1-0.15 18.85-0.6-1 6.45-0.1 0.15q-0.3 0.5-0.1 0.95 0.55 1.05 4.3 1.7l9.6 3.9m-33.2 0.4 0.15-0.1h-0.25l0.1 0.1" fill="#7c6e3a" fill-rule="evenodd"/>
<path d="m110.85 53.2q-2.65 1.3-4.6 1.85-2.65 1.4-5.25 2.85-22.35 12.35-47.9 23.4-19.2 8.25-40.4 15.7l-8.1 2.75 37.9-24.15-0.3 0.45 46.05-24.1 22.6 1.25" fill="#756836" fill-rule="evenodd"/>
<path d="m120.05 37.4 13.6 0.95-4 2.95q-11.85 8.45-18.8 11.9-2.65 1.3-4.6 1.85-2.65 1.4-5.25 2.85-22.35 12.35-47.9 23.4-19.2 8.25-40.4 15.7l-8.1 2.75-3.1 1.05m-1.45 0.4q5.2-11.25 8.2-17.2l4.45-8.75 4.05-7.65 6.7-12.2q10.85-19.1 25.2-38.35l8.7-11.35 1.45-2.6q0.5-0.9 2.45-2.75l-0.5 0.1m33 13.95q-2.45 4.9-2.85 7.9l-0.35 4.8 7.6 1.8h0.05l-0.1-0.15 23.15-4.1-5.3 9.95-0.2 1.1q0.55 1.05 4.3 1.7m-45.55-25.55-1.2 0.4m25 16.85-0.1-0.2 0.2-0.05-0.1 0.25m17.65 5.5-0.1 0.15q-0.3 0.5-0.1 0.95m-42.75-23.35-0.05-0.15-0.5-1.6m-11.2-10.25q3.2-3.15 10.5-8.9-0.55 14.15 0.7 19.15m-72.35 90.65 1.5-0.7-0.1 0.25m92.25-86.4q3.9-8 13.1-21.1l-32.35 18.55" fill="none" stroke="#3f2b11" stroke-linecap="round" stroke-linejoin="round" stroke-opacity=".25098"/>
</g>
<g id="w" transform="translate(-.5 .6)">
<path d="m219.8 0.75q-44.05 18.35-83.8 48.05 38-33.2 83.8-48.05m8.5 0.8 2.1 1-20.15 22.35q-40.35 49.6-89.65 87.9 58.8-52.7 107.7-111.25m-57.25 49.7q-36.6 30.1-65.05 61.6l-3.2-1.25q30.45-34.8 68.25-60.35m-133.85 109.2q-20 24.85-35.85 49.7 23.45-41.9 35.85-49.7" fill="#5c512b" fill-rule="evenodd"/>
<path d="m233.1 8.2h0.05l-2.85 6.75q-12.9 26.7-42.75 52.35 28.45-29.3 45.55-59.1m-50.25 85.8q35.35-37.25 53.8-80.35-13.55 46.3-53.8 80.35m-181.25 116.45q58.8-24.25 116.3-61-56.45 41.5-116.3 61" fill="#433a1f" fill-rule="evenodd"/>
<path d="m219.8 0.75q0.6-0.3 1.3-0.45l0.7-0.4m-0.7 0.4-0.05 0.05-1.25 0.4m-101.9 148.7 0.4-0.3m-116.7 61.3-0.6 0.3 0.1-0.15 0.5-0.15" fill="none" stroke="#38270f" stroke-linecap="round" stroke-linejoin="round" stroke-opacity=".25098"/>
<path d="m187.55 67.3q28.45-29.3 45.55-59.1m-97.1 40.6q38-33.2 83.8-48.05m-99.2 112.05q58.8-52.7 107.7-111.25m-45.45 92.45q35.35-37.25 53.8-80.35m-199.45 146.8 0.55-0.35m133.3-108.85q-37.8 25.55-68.25 60.35m-101.2 98.85q58.8-24.25 116.3-61m-116.55 60.7q23.45-41.9 35.85-49.7" fill="none" stroke="#a68f79" stroke-linecap="round" stroke-linejoin="round" stroke-opacity=".25098"/>
</g>
<g id="d" transform="translate(.5 1.15)">
<use transform="translate(-.5 -1.15)" width="60.099998" height="112.3" xlink:href="#ap"/>
</g>
<g id="ap" transform="translate(.5 1.15)">
<path d="m14.65 1.95q-0.75 22.6 15.8 37.1 26.7 22.6 23.8 52.85-31.7-10.75-42.95-36.85l-0.15-0.35q-9.55-26.25 3.5-52.75" fill="#7a8840" fill-rule="evenodd"/>
<path d="m15.15 0.95q2.1 20.8 30.05 47.05 20.2 24.7 9.95 45.55l-1.05-0.2q-29.15-5.6-49.3-33.85-13.15-20.6 9.9-58.85l0.35-0.65 0.05 0.65 0.05 0.3-0.5 1q-13.05 26.5-3.5 52.75l0.15 0.35q11.25 26.1 42.95 36.85 2.9-30.25-23.8-52.85-16.55-14.5-15.8-37.1l0.5-1" fill="#6b7838" fill-rule="evenodd"/>
<path d="m15.15 0.95-0.05-0.3-0.05-0.65-0.35 0.65q-23.05 38.25-9.9 58.85 20.15 28.25 49.3 33.85l1.05 0.2q10.25-20.85-9.95-45.55-27.95-26.25-30.05-47.05l-0.5 1m0.1-2.6-0.05 1.3" fill="none" stroke="#3a331b" stroke-linecap="round" stroke-linejoin="round" stroke-opacity=".25098"/>
<path d="m26.2 51.3 0.5-1.05-2.45-2.55q-4.3-6.05-6.8-13.1-8.35-2.5-14.55-9.45m10.95-4 0.45-0.6q-1.05-9.35 0.35-20.1m2.65 11.8-3 8.3q0.8 7.45 3.15 14.05m37.15 58.6q-7.9-16.85-17.35-29.95-15 3.4-30 0.4m26.1-27.85q1 8.35-6.65 14.45 5.5 5.95 10.55 13m8.75 12.75q6.85-6.1 7.15-16.65" fill="none" stroke="#3a331b" stroke-linecap="round" stroke-linejoin="round" stroke-opacity=".25098"/>
<path d="m54.8 93.05q4.65 9.9 4.3 17.6" fill="none" stroke="#101008" stroke-linecap="round" stroke-linejoin="round" stroke-opacity=".25098"/>
</g>
<g id="b" transform="translate(4.9 .5)">
<use transform="translate(-4.9 -.5)" width="91.300003" height="52.200001" xlink:href="#ao"/>
</g>
<g id="ao" transform="translate(4.9 .5)">
<path d="m83.95 8.5v1.4h-0.5l-6-0.75q-2.15-0.65-1.9-2.8l0.25-2.35 0.35-0.65 1.25-0.15 4.15 0.5q3.05 0.65 2.4 4.8m-1.5-2.15q-0.25-0.55-1.6-0.9l-3.4-0.65v1.4l0.7 0.8q0.55 0.6 0.9 0.7l3.4 1q0.25-1.85 0-2.35" fill="#5c522b" fill-rule="evenodd"/>
<path d="m83.95 8.5q0.65-4.15-2.4-4.8l-4.15-0.5-1.25 0.15-0.35 0.65-0.25 2.35q-0.25 2.15 1.9 2.8l6 0.75h0.5v-1.4m-1.5-2.15q0.25 0.5 0 2.35l-3.4-1q-0.35-0.1-0.9-0.7l-0.7-0.8v-1.4l3.4 0.65q1.35 0.35 1.6 0.9m-9.1-0.85q0.45-2.35 2.6-5.5 14.8 3 7.6 12.4-5.55-0.25-8.1-1.85-2.75-1.75-2.1-5.05" fill="#6d6333" fill-rule="evenodd"/>
<path d="m75.95 0q-2.15 3.15-2.6 5.5-36.05 14.95-54.25 20.5-18.5 5.65-18.6 1.55l0.2-1.05 0.1-0.5q0.95-4.3 3.15-9.2 15.35 7.45 72-16.8" fill="#776c38" fill-rule="evenodd"/>
<path d="M 73.35,5.5 Q 72.7,8.8 75.45,10.55 52.4,17 34.8,26 17.45,34.85 1.45,47.75 -10.8,43.8 0.5,27.55 0.6,31.65 19.1,26 37.3,20.45 73.35,5.5" fill="#5d542b" fill-rule="evenodd"/>
<path d="m75.45 10.55q2.55 1.6 8.1 1.85-16.95 6.6-31 13.6-24.2 12.05-39.8 25.2-4.45-2.1-11.3-3.45 16-12.9 33.35-21.75 17.6-9 40.65-15.45" fill="#4f4724" fill-rule="evenodd"/>
<path d="m83.55 12.4q7.2-9.4-7.6-12.4-56.65 24.25-72 16.8m8.8 34.4q15.6-13.15 39.8-25.2 14.05-7 31-13.6z" fill="none" stroke="#3a331b" stroke-linecap="round" stroke-linejoin="round" stroke-opacity=".25098"/>
</g>
<g id="u" transform="translate(.5 .5)">
<use transform="translate(-.5 -.5)" width="47.599998" height="49.400002" xlink:href="#an"/>
</g>
<g id="an" transform="translate(.5 .5)">
<path d="m0 48.05q3.15-12.9 2.5-20.15-0.55-7.3 5.85-14.95 6.35-7.65 14.35-11.05l2.3-0.4 6.3-1.35q3.6-0.75 11.35 2.65 7.7 3.35 0.35 17.05-7.4 13.65-11.55 14.85-4.2 1.2-18.1 7.2-10.25 4.3-13.2 6.45l-0.15-0.3m21.1-38.85q-2.15 0.85-3.85 4.15l-3.7 6.25q-2.6 4.45-4.4 9-1.75 4.4-1.75 6.25l0.05 0.7 0.3 0.6h2.9q7.9-2.35 17.5-10.15 9-7.35 9-10.2 0-2.55-2.15-4.15-2.65-1.85-10-3-1.7-0.35-3.9 0.55m2.1 7 0.15 0.35h-0.55l-0.05-0.25 0.45-0.1" fill="#80733c" fill-opacity=".58824" fill-rule="evenodd"/>
<path d="m21.1 9.2q2.2-0.9 3.9-0.55 7.35 1.15 10 3 2.15 1.6 2.15 4.15 0 2.85-9 10.2-9.6 7.8-17.5 10.15h-2.9l-0.3-0.6-0.05-0.7q0-1.85 1.75-6.25 1.8-4.55 4.4-9l3.7-6.25q1.7-3.3 3.85-4.15m-0.85 8.1q-1.3 0.75-2.7 2.25-2.5 2.75-2.5 4.5 0 0.85 1.5 1.5l2 0.5q4.4 0 8.5-3 3.5-2.6 3.5-4 0-1.9-1-2.5-0.85-0.5-3.25-0.5l-3.1 0.15-0.45 0.1q-1.3 0.25-2.55 0.8l-0.05 0.05 0.1 0.15" fill="#685f30" fill-opacity=".58824" fill-rule="evenodd"/>
<path d="m23.2 16.2 3.1-0.15q2.4 0 3.25 0.5 1 0.6 1 2.5 0 1.4-3.5 4-4.1 3-8.5 3l-2-0.5q-1.5-0.65-1.5-1.5 0-1.75 2.5-4.5 1.4-1.5 2.7-2.25t2.55-0.75h0.55l-0.15-0.35" fill="#8b7d41" fill-opacity=".58824" fill-rule="evenodd"/>
<path d="m0.15 48.35q2.95-2.15 13.2-6.45 13.9-6 18.1-7.2 4.15-1.2 11.55-14.85 7.35-13.7-0.35-17.05-7.75-3.4-11.35-2.65l-6.3 1.35-2.3 0.4q-8 3.4-14.35 11.05-6.4 7.65-5.85 14.95 0.65 7.25-2.5 20.15m0.15 0.3-0.1 0.05-0.05-0.35m21.1-38.85q-2.15 0.85-3.85 4.15l-3.7 6.25q-2.6 4.45-4.4 9-1.75 4.4-1.75 6.25l0.05 0.7 0.3 0.6h2.9q7.9-2.35 17.5-10.15 9-7.35 9-10.2 0-2.55-2.15-4.15-2.65-1.85-10-3-1.7-0.35-3.9 0.55m-0.85 8.1q-1.3 0.75-2.7 2.25-2.5 2.75-2.5 4.5 0 0.85 1.5 1.5l2 0.5q4.4 0 8.5-3 3.5-2.6 3.5-4 0-1.9-1-2.5-0.85-0.5-3.25-0.5l-3.1 0.15m-3.05 0.95 0.05-0.05q1.25-0.55 2.55-0.8l0.45-0.1" fill="none" stroke="#101008" stroke-linecap="round" stroke-linejoin="round" stroke-opacity=".1451"/>
</g>
<g id="t" transform="translate(5.75 .5)">
<use transform="translate(-5.75 -.5)" width="55.849998" height="27.1" xlink:href="#am"/>
</g>
<g id="am" transform="translate(5.75 .5)">
<path d="m0.35 19.35-0.35-0.15 0.05-0.1q6.5-5.6 13.25-9.4 10.35-5.85 21.2-7.4-1 1.45-0.6 2.25-0.4-0.8 0.6-2.25 7.1-1.05 14.4-0.25l0.5-0.05h0.2l-0.1 0.45q-5.45 6.95-14.5 9.7-7.2-0.4-12.5-3.85 5.85-2.3 11.4-3.75 7.8-2.1 15-2.5-7.2 0.4-15 2.5-5.55 1.45-11.4 3.75 5.3 3.45 12.5 3.85-9.95 7.75-23.7 6.95-5.05 1.75-10.95 0.25m22.15-11.05q-4.4 1.65-9 3.85-0.6-1.05-0.2-2.45-0.4 1.4 0.2 2.45 4.6-2.2 9-3.85m-9 3.85q-3.4 1.55-6.9 3.45l-6.6 3.6 6.6-3.6q3.5-1.9 6.9-3.45m-6.9 3.45q2.05 2.15 4.7 3.5-2.65-1.35-4.7-3.5" fill="#7a8840" fill-rule="evenodd"/>
<path d="m0.05 19.1q0.7-4.7 14.95-12.55l0.6-0.35q6.95-3.7 13.6-5.2l7.1-0.95q5.05-0.2 9.9 0.95l3.4 1h-0.2l-0.5 0.05q-7.3-0.8-14.4 0.25-10.85 1.55-21.2 7.4 0.35-1.4 1.7-3.15-1.35 1.75-1.7 3.15-6.75 3.8-13.25 9.4m34.45-16.8 0.95-1.3 0.85-0.95-0.85 0.95-0.95 1.3" fill="#6b7838" fill-rule="evenodd"/>
<path d="m49.5 2.45q-1.15 5-7.25 9.35-5.6 3.95-15.25 7.4l-8.5 1.9q-10.8 1.6-18.15-1.75 5.9 1.5 10.95-0.25 13.75 0.8 23.7-6.95 9.05-2.75 14.5-9.7m-7.25 9.35-7.25 0.35 7.25-0.35m-23.75 9.3q-4.05-0.4-7.2-2 3.15 1.6 7.2 2" fill="#96aa4f" fill-rule="evenodd"/>
<path d="m49.5 2.45q-1.15 5-7.25 9.35-5.6 3.95-15.25 7.4l-8.5 1.9q-10.8 1.6-18.15-1.75l-0.35-0.15 0.05-0.1q0.7-4.7 14.95-12.55l0.6-0.35q6.95-3.7 13.6-5.2l7.1-0.95q5.05-0.2 9.9 0.95l3.4 1-0.1 0.45m-14.5 9.7 7.25-0.35m6.65-9.75 0.5-0.05h0.2m-0.7 0.05q-7.2 0.4-15 2.5-5.55 1.45-11.4 3.75 5.3 3.45 12.5 3.85m-23.7 6.95q3.15 1.6 7.2 2m15.4-16.55q-0.4-0.8 0.6-2.25m-21.2 7.4q-0.4 1.4 0.2 2.45 4.6-2.2 9-3.85m13.8-8.25-0.85 0.95-0.95 1.3m-21.2 7.4q0.35-1.4 1.7-3.15m-15 12.65 6.6-3.6q3.5-1.9 6.9-3.45m-2.2 6.95q-2.65-1.35-4.7-3.5" fill="none" stroke="#3a331b" stroke-linecap="round" stroke-linejoin="round" stroke-opacity=".25098"/>
<path d="m0.7 19.25q-6.05 3.35-5.95 6.85" fill="none" stroke="#101008" stroke-linecap="round" stroke-linejoin="round" stroke-opacity=".25098"/>
</g>
<g id="s" transform="translate(51,34.4)">
<use transform="translate(-51,-34.4)" width="143.10001" height="155.10001" xlink:href="#al"/>
<use transform="translate(.75 2.6)" width="54.400002" height="48.799999" xlink:href="#r"/>
<use transform="translate(8.85,9.7)" width="32.299999" height="29.200001" xlink:href="#q"/>
<use transform="matrix(.5535 .7871 -.7871 .5535 30.797 -3.4963)" width="35.400002" height="36.900002" xlink:href="#p"/>
<use transform="translate(-1.35,3.1)" width="58.200001" height="48.450001" xlink:href="#m"/>
<use transform="translate(-.95 2.35)" width="57.25" height="51.099998" xlink:href="#k"/>
</g>
<g id="al" transform="translate(51,34.4)">
<path d="m53.2 27.35q-2.7 9.85-4.65 11.7l-2.2 2q-15.45 8.55-35.3 13.35-5.5-1.9-58.65 65.3-8.55 4.7 4.25-12.35 30.55-47.9 37.6-57.3 7.1-9.5 8.2-20.1t9.45-16.85q8.3-6.25 10.1-6.65l19.1-2.4q17.3-2.05 51-38.45-41.7 54.2-38.9 61.75" fill="#908243" fill-rule="evenodd"/>
</g>
<g id="r" transform="translate(.5 .5)">
<use transform="translate(-.5 -.5)" width="54.400002" height="48.799999" xlink:href="#ak"/>
</g>
<g id="ak" transform="translate(.5 .5)">
<path d="m0 47.8q2.95-12.4 3.75-23.75 1.2-7.7 4.55-10.5t8.95-6.85 15.35-3.25q9.75 0.75 20.8-3.45-11.5 11.1-26.75 19.95-17.45 12.3-26.65 27.85" fill="#5c512b" fill-rule="evenodd"/>
<path d="m0 47.8q2.95-12.4 3.75-23.75 1.2-7.7 4.55-10.5t8.95-6.85 15.35-3.25q9.75 0.75 20.8-3.45" fill="none" stroke="#3f2b11" stroke-linecap="round" stroke-linejoin="round" stroke-opacity=".25098"/>
</g>
<g id="q" transform="translate(-6.25,-7.15)">
<use transform="translate(6.25,7.15)" width="32.299999" height="29.200001" xlink:href="#aj"/>
</g>
<g id="aj" transform="translate(-6.25,-7.15)">
<path d="m38.55 11.15-11.75 8.5q-17.45 12.3-20.4 16.7-0.7-2.05 2.5-11.55 0.4-5.8 3.05-9.05t6.5-6.25q3.8-3 11.35-2.2 7.5 0.75 8.75 3.85" fill="#39321a" fill-rule="evenodd"/>
</g>
<g id="p" transform="translate(.05 2)">
<use transform="translate(-.05 -.5)" width="35.400002" height="35.400002" xlink:href="#o"/>
<use transform="matrix(.866 -.5 .4299 .7446 1.4 6.2)" width="16.4" height="16.4" xlink:href="#n"/>
<use transform="translate(8.05,2.9)" width="4.8499999" height="4.4000001" xlink:href="#ag"/>
</g>
<g id="o" transform="translate(.5 .5)">
<use transform="translate(-.5 -.5)" width="35.400002" height="35.400002" xlink:href="#ai"/>
</g>
<g id="ai" transform="translate(.5 .5)">
<path d="m28.6 17.65q0 4.8-3.35 8.15t-8.15 3.35q-4.75 0-8.1-3.35t-2.8-4.45q0.5-1.15 13.65-4.45-11.55-6.65-10.85-7.35 3.35-3.35 8.1-3.35 4.8 0 8.15 3.35t3.35 8.1" fill="#226278" fill-opacity=".8" fill-rule="evenodd"/>
<path d="m20.1 0.25q5.25 0.8 9.25 4.8 5.05 5.05 5.05 12.15t-5.05 12.15q-4.65 4.65-11.1 5.05 16.5-12.5 1.85-34.15" fill="#1e4b59" fill-opacity=".8" fill-rule="evenodd"/>
<path d="m18.25 34.4h-1.05q-7.1 0-12.15-5.05t-5.05-12.15 5.05-12.15 12.15-5.05l2.9 0.25q14.65 21.65-1.85 34.15" fill="#226278" fill-opacity=".8" fill-rule="evenodd"/>
<path d="m20.1 0.25q5.25 0.8 9.25 4.8 5.05 5.05 5.05 12.15t-5.05 12.15q-4.65 4.65-11.1 5.05h-1.05q-7.1 0-12.15-5.05t-5.05-12.15 5.05-12.15 12.15-5.05z" fill="none" stroke="#1e1d0c" stroke-linecap="round" stroke-linejoin="round" stroke-opacity=".25098"/>
<path d="m15.75 8.25-1.7-3.7m8.4 4.7 1.45-3.65m2.8 9.25 3.1-0.95" fill="none" stroke="#739298" stroke-linecap="round" stroke-linejoin="round" stroke-opacity=".2"/>
<path d="m1.55 13.9h0.1q1.35 4.35 2 5.4 2 3.6 6 3.6l2.4-0.3 2.5-0.3q1.5 0 2.2 0.6 1 0.85 1 3.1t-1.4 3.9q-1.5 1.8-3.8 1.8-3.55 0-7-4.6-4-5.35-4-13.2" fill="#287998" fill-rule="evenodd"/>
<path d="m22.7 2.25q3.5 2.25 6.8 6.15l0.35 0.35q5.45 7.4 0 17.1l-1.35 2.15q-3.8 3.25-6.9 3.85 6.5-7.15 7-15.45 0.45-8.35-5.9-14.15" fill="#1e4b59" fill-rule="evenodd"/>
</g>
<g id="n">
<use width="16.4" height="16.4" xlink:href="#ah"/>
</g>
<g id="ah">
<path d="m14 14q-2.4 2.4-5.8 2.4t-5.8-2.4-2.4-5.8 2.4-5.8 5.8-2.4 5.8 2.4 2.4 5.8-2.4 5.8" fill="url(#as)" fill-rule="evenodd"/>
</g>
<radialGradient id="as" cx="0" cy="0" r="819.2" gradientTransform="matrix(.011 0 0 .011 8.2 8.2)" gradientUnits="userSpaceOnUse">
<stop stop-color="#9fa185" offset="0"/>
<stop stop-color="#a3a298" stop-opacity="0" offset="1"/>
</radialGradient>
<g id="ag" transform="translate(-8.05,-2.9)">
<path d="m12.15 6.65q-0.7 0.65-1.7 0.65t-1.7-0.65-0.7-1.55 0.7-1.55 1.7-0.65 1.7 0.65q0.75 0.65 0.75 1.55t-0.75 1.55" fill="#a3a298" fill-rule="evenodd"/>
</g>
<g id="m" transform="translate(1.4)">
<use transform="matrix(.6449 -.0227 .0227 .6449 -1.4006 1.9846)" width="87.75" height="72.050003" xlink:href="#l"/>
</g>
<g id="l" transform="translate(2.2,-3)">
<use transform="translate(-2.2,3)" width="87.75" height="72.050003" xlink:href="#ae"/>
</g>
<g id="ae" transform="translate(2.2,-3)">
<path d="m60.35 13.8q10.25 0.75 25.2-10.8-14.45 14.65-14.45 27.3-1.7 11.35-7.25 16.05-5.6 4.7-8.4 6.5-15 8.75-33.1 7.6-15.05 3-24.55 14.6 8.4-13.5 21.4-30.85 5.35 5.95 15.9-1 5.35 8.15 15.85 3.4 3.7-1.65 2.55-9.8 16.8-3.6 6.85-23" fill="#3a341b" fill-rule="evenodd"/>
</g>
<g id="k" transform="translate(3.45,2.75)">
<use transform="translate(-3.45,-2.75)" width="57.25" height="51.099998" xlink:href="#ad"/>
</g>
<g id="ad" transform="translate(3.45,2.75)">
<path d="m53.3-2.25q-8.65 12.05-8.35 20.2-0.85 7.3-4.3 10.5-3.55 3.15-5.3 4.4-9.45 5.95-21.2 5.65-9.6 2.25-17.1 9.35 3.95-8.3 9.55-16.45 8.8 0.4 14.4-4.5 4.65 5.3 11.3 2 2.35-1.15 2.8-6.25 9.4-2.85 2.45-16.9 7.75-3.25 15.75-8" fill="#544c27" fill-rule="evenodd"/>
<path d="m53.3-2.25q-8.65 12.05-8.35 20.2-0.85 7.3-4.3 10.5-3.55 3.15-5.3 4.4-9.45 5.95-21.2 5.65-9.6 2.25-17.1 9.35" fill="none" stroke="#3f2b11" stroke-linecap="round" stroke-linejoin="round" stroke-opacity=".25098"/>
</g>
</defs>
</svg>
