<?xml version="1.0" encoding="UTF-8"?>
<svg version="1.1" viewBox="0 0 25.95 40.35" xmlns="http://www.w3.org/2000/svg" xmlns:cc="http://creativecommons.org/ns#" xmlns:dc="http://purl.org/dc/elements/1.1/" xmlns:rdf="http://www.w3.org/1999/02/22-rdf-syntax-ns#" xmlns:xlink="http://www.w3.org/1999/xlink">
<metadata>
<rdf:RDF>
<cc:Work rdf:about="">
<dc:format>image/svg+xml</dc:format>
<dc:type rdf:resource="http://purl.org/dc/dcmitype/StillImage"/>
</cc:Work>
</rdf:RDF>
</metadata>
<g transform="translate(-263.88 -174.08)">
<use transform="translate(263.9,174.1)" width="25.9" height="40.299999" xlink:href="#a"/>
</g>
<defs>
<g id="a">
<use width="25.9" height="40.299999" xlink:href="#b"/>
</g>
<g id="b">
<path d="m19 0-3.4 4-8.9 3.8-2.7 5.5-1.1-7.35 16.1-5.95m-18.65 40.25v-0.35l-0.35-1.55h0.15l0.75 0.75-0.5 1.15h-0.05m-0.2-1.95 0.45-0.15 0.2-0.15 0.45 0.3-0.05 0.05-1.05-0.05m20.55-37.6 5.2 16.45-6.5 3.65 2.4-5.9-2.15-9.15 1.05-5.05" fill="#e9f2f3" fill-rule="evenodd"/>
<path d="m15.6 4-9.05 10.55-2.55-1.25 2.7-5.5 8.9-3.8m4.05 1.75 2.15 9.15-2.4 5.9-2.6-1.25 2.85-13.8" fill="#c4dcdf" fill-rule="evenodd"/>
<path d="m13 12.3 0.5-1 1.7-1.4v2.05l-0.6 1.25-0.05 0.05-0.5 0.3-1.05-0.5v-0.75m-5.55 2.65 3.45 1.7 1.65-3.45 1.65 0.8-1.65 3.45 3.2 1.55-1.4 0.35 1.4-0.35 0.25 0.15-0.4 0.8-1.25-0.6-1.9-0.9-0.65-0.35 0.25 0.65-5.45 11-1-0.45-0.1-0.9 4.8-11.05-0.2-0.1-0.4-0.15-2.45-1.75 0.2-0.4m5.6-0.45-0.3-0.15-1.65 2.9 1 0.25-0.2-0.35 1.15-2.65m-1.25 3.6-1.5-0.75 1.5 0.75m-5.25 12.75-3.45 5.7 0.45 1.45-1.1-0.2-0.7-0.3-0.35-0.2h-0.05l-0.05-0.05h-0.05l-0.15-0.15-0.45-0.3 0.05-0.1 1.75 0.35-0.4-1.05 0.9 0.05 2.5-4.45-0.4-0.85-1.25-0.2 0.35-0.9 0.05 0.05 1.65 0.85v0.05h0.05l0.45 0.2h0.15l0.05 0.05m-0.6-0.25h-0.05 0.05m-0.6-0.25 0.25 0.15h0.05l0.2 0.05-0.5-0.2-0.05-0.05h-0.1l0.15 0.05-0.15-0.05h0.1l0.05 0.05" fill="#1b1b1b" fill-rule="evenodd"/>
<path d="m13 12.3-0.45 0.9-1.65 3.45-3.45-1.7-0.9-0.4 9.05-10.55 3.4-4-5.5 11.3-0.5 1m1.2 1.7 0.35-0.75 0.05-0.05 0.6-1.25 5.5-11.25-1.05 5.05-2.85 13.8-0.8-0.4-0.25-0.15-3.2-1.55 1.65-3.45m-5.25 0.1 2.3-0.2 2.6-6.35-4.9 6.55m6.75 1.65 0.8-3.3-2.4 3.5 1.85 1.85-0.25-2.05" fill="#62a3ac" fill-rule="evenodd"/>
<path d="m12.55 13.2 0.45-0.9v0.75l1.05 0.5 0.5-0.3-0.35 0.75-1.65-0.8m0.5 1.3-1.15 2.65 0.2 0.35-1-0.25 1.65-2.9 0.3 0.15m-1.25 3.6 0.65 0.35-5.6 11.45-0.25-0.15 5.45-11-0.25-0.65m-2.1-1-2.65-1.3 0.2-0.45 2.45 1.75m0.4 0.15 0.2 0.1-4.8 11.05 0.1 0.9-1.1-0.55 5.6-11.5m-8.45 18.55 2.15-5.25 1.25 0.2 0.4 0.85-2.5 4.45-0.9-0.05 0.4 1.05-1.75-0.35-0.05 0.1-0.2-0.15-0.2-0.25 1.4-0.55v-0.05" fill="#666" fill-rule="evenodd"/>
<path d="m8.95 14.1 4.9-6.55-2.6 6.35-2.3 0.2m6.75 1.65 0.25 2.05-1.85-1.85 2.4-3.5-0.8 3.3" fill="#a0c7cb" fill-rule="evenodd"/>
<path d="m4.5 28.75 2.1 1.05 0.25 0.1 0.1 0.05 1.35 0.85 0.45-0.45-0.15-0.6q1.25 0.25 0.4 0.9l-0.8 0.65-0.75-0.2h-0.2l-0.15-0.05-0.05-0.05-0.5-0.15-0.05-0.05h-0.15l-0.45-0.2h0.05-0.05l-0.05-0.05-2.75-2-0.2-1.25 0.55-0.15 0.35 0.35h-0.25l-0.25 0.2-0.05 0.15v0.15l0.25 0.25 1 0.5m-0.95 9.25-0.2 0.4-0.55-0.05-0.1 0.25h-0.65l-0.15-0.05-0.25-0.05-0.15-0.05v-0.05l-0.25-0.1-0.45-0.3-0.1-0.05 0.1 0.05 0.3 0.2h0.05l-0.05-0.05h-0.05l-0.4-0.3 0.85 0.35 0.1-0.25-0.55-0.3 0.3-0.15-0.25-0.4 0.15 0.15h0.05l0.05 0.05h0.05l0.35 0.2 0.7 0.3 1.1 0.2m2.3-7.45-0.2-0.05h-0.05l-0.25-0.15 0.5 0.2" fill="#3f6167" fill-rule="evenodd"/>
<path d="m6.95 29.95 1 0.5h0.3l0.15-0.05 0.1-0.15v-0.3l-0.15-0.25 0.25 0.05 0.15 0.6-0.45 0.45-1.35-0.85m-4.9 9.45-0.3 0.1q-0.55 0.2-1.05 0.6l-0.3 0.15 0.5-1.15h0.05l1.05 0.25 0.05 0.05m-1.4-1.55h-0.05l-0.35-0.4 0.15-0.3-0.4-0.35 0.2-0.4h0.05l0.2 0.25 0.2 0.15 0.45 0.3 0.25 0.4-0.3 0.15 0.55 0.3-0.1 0.25-0.85-0.35m3.5-8.2-0.3-0.15-0.3-0.2-0.1-0.1h-0.05l-0.15-0.15-0.6-0.45 0.05-1.05q-0.05-0.85 0.75-0.4l-0.55 0.15 0.2 1.25 2.75 2-1.65-0.85-0.05-0.05m1.7 0.95h0.05-0.05v-0.05l0.05 0.05h-0.05m-4.8 7.05-0.55-0.35-0.1-0.15 0.1 0.15 0.55 0.35" fill="#598a93" fill-rule="evenodd"/>
<path d="m0.7 37.95-0.05-0.1 0.4 0.3h0.05l0.05 0.05h-0.05l-0.3-0.2-0.1-0.05" fill="#2d2d2d" fill-rule="evenodd"/>
<path d="m1.9 38.55q-0.1 0.45 0.2 0.8l-0.05 0.05-0.05-0.05-1.05-0.25h-0.05l0.3-0.75 0.05-0.05 0.25 0.1v0.05l0.15 0.05 0.25 0.05" fill="#40646a" fill-rule="evenodd"/>
<path d="m1.2 38.35-0.3 0.75-0.75-0.75v-0.05l1.05 0.05" fill="#95b9bf" fill-rule="evenodd"/>
<path d="m14.2 14 0.35-0.75m0.05-0.05 0.6-1.25 5.5-11.25m-4.95 18.3-3.2-1.55 1.65-3.45m1.8 5.15-0.25-0.15m1.05 0.55-0.8-0.4m3.4 1.65 6.5-3.65-5.2-16.45m-1.3 20.1-2.6-1.25" fill="none" stroke="#211d0c" stroke-linecap="round" stroke-linejoin="round" stroke-width=".05"/>
<path d="m14.55 13.25-0.5 0.3-1.05-0.5v-0.75m2.2-0.35v-2.05l-1.7 1.4m1.05 1.95 0.05-0.05m-1.55 1.3-1.15 2.65 0.2 0.35-1-0.25 1.65-2.9 0.3 0.15m-1.25 3.6 0.25 0.65-5.45 11 0.25 0.15 1.1 0.55h0.3l0.15-0.05 0.1-0.15v-0.3l-0.15-0.25 0.25 0.05q1.25 0.25 0.4 0.9l-0.8 0.65-0.75-0.2h-0.2l-0.15-0.05-0.05-0.05-0.5-0.15-3.45 5.7 0.45 1.45-0.2 0.4-0.55-0.05-0.1 0.25h-0.65l-0.15-0.05q-0.1 0.45 0.2 0.8l-0.05 0.05-0.3 0.1q-0.55 0.2-1.05 0.6l-0.3 0.15-0.05 0.05v-0.4l-0.35-1.55 0.6-0.2 0.2-0.15-0.1-0.05-0.05-0.1h-0.05l-0.35-0.4 0.15-0.3-0.4-0.35 0.2-0.4 1.45-0.6 2.15-5.25 0.35-0.9-0.3-0.15-0.3-0.2h-0.05l-0.05-0.1h-0.05l-0.15-0.15-0.6-0.45 0.05-1.05q-0.05-0.85 0.75-0.4l0.35 0.35h-0.25l-0.25 0.2-0.05 0.15v0.15l0.25 0.25 2.1 1.05-0.1-0.9 4.8-11.05m4.05 2 1.4-0.35m-6.05-1.9-2.45-1.75m-0.65 14.4v0.05m-0.7 0.8 0.45 0.2h0.15l0.05 0.05m-0.65-0.25h-0.05 0.05m0.05 0h-0.05m-0.05-0.05v0.05m0-0.05-0.2-0.05h-0.05l-0.25-0.15-0.15-0.05h0.1l0.05 0.05 0.5 0.2-1.65-0.85-0.05-0.05m-0.8-0.5 0.05 0.05m0.05 0 0.1 0.1m0.25 1.25 1.25 0.2 0.4 0.85-2.5 4.45-0.9-0.05 0.4 1.05-1.75-0.35m-0.05 0.1 0.45 0.3 0.15 0.15h0.05l0.05 0.05h0.05l0.35 0.2 0.7 0.3 1.1 0.2m-2.9-1.2-0.2-0.15-0.2-0.25h-0.05m0.2 0.75 0.1 0.15 0.55 0.35m-0.8-1.25 1.4-0.55v-0.05m0.35 3.55 0.05 0.05m-0.15-0.85-0.25-0.05-0.15-0.05v-0.05l-0.25-0.1m-0.35 0.8h0.05m-0.15-1.1 0.45 0.3m-1.25 0.05h0.1l0.05-0.05m-0.05 0.05h0.05" fill="none" stroke="#5f462e" stroke-linecap="round" stroke-linejoin="round" stroke-width=".05"/>
<path d="m12.55 13.2 0.95-1.9 5.5-11.3-16.1 5.95 1.1 7.35 2.55 1.25 0.9 0.4 3.45 1.7 1.65-3.45 1.65 0.8m-1.75 4.45-0.65-0.35m-4.95 11.8 5.6-11.45 1.9 0.9 1.25 0.6 0.4-0.8m-8.75-3.8-0.2 0.45 2.65 1.3 0.4 0.15-5.6 11.5m2.75-13.4 0.2-0.4m2.65 2.3 1.7 0.85" fill="none" stroke="#211d0c" stroke-linecap="round" stroke-linejoin="round" stroke-width=".05"/>
</g>
</defs>
</svg>
