<?xml version="1.0" encoding="UTF-8"?>
<svg version="1.1" viewBox="0 0 39.437 45.284" xmlns="http://www.w3.org/2000/svg" xmlns:cc="http://creativecommons.org/ns#" xmlns:dc="http://purl.org/dc/elements/1.1/" xmlns:rdf="http://www.w3.org/1999/02/22-rdf-syntax-ns#" xmlns:xlink="http://www.w3.org/1999/xlink">
<metadata>
<rdf:RDF>
<cc:Work rdf:about="">
<dc:format>image/svg+xml</dc:format>
<dc:type rdf:resource="http://purl.org/dc/dcmitype/StillImage"/>
</cc:Work>
</rdf:RDF>
</metadata>
<g transform="translate(-255.27 -177.82)">
<use transform="matrix(.4833 0 0 .4833 255.27 177.82)" width="81.599998" height="93.699997" xlink:href="#b"/>
</g>
<defs>
<g id="b" transform="translate(17.95,71.65)">
<use transform="translate(-17.95,-71.65)" width="76.550003" height="93.699997" xlink:href="#d"/>
<use transform="matrix(.9626 .3042 -.3042 .9626 38.13 -66.921)" width="19.049999" height="30.1" xlink:href="#a"/>
<use transform="translate(44.6,-59.35)" width="19.049999" height="30.1" xlink:href="#a"/>
</g>
<g id="d" transform="translate(17.95,71.65)">
<path d="m24.45-43.95q-1.75 8.65-6.4 16.4-4.05 6.75-8.85 12.1l1.05-1.6q2.05-3.9 2.75-8.05 3.25-3.65 6.25-9.3l5.2-9.55m-42.3 58.65q2.75 1.6 5.2-0.2 4.4-3 7.5-7.2l5.65-7.65q2.9-3.35 3.8-3.8 0.85-0.5 0.35 2.7-0.5 3.15 8.6-9.45 9.1-12.55 15.15-22.25 6-9.75 7.5-14 1.5-4.3 1.3-8.5-0.25-4.2 2.85-6.15 2.75-1.75 5.95-1.55 2.95 0.15 6.25 2.05v0.2l0.2 2.3q-0.4 0.05-0.85 0.4l-1.45 0.7q-1.35 0.95-2.5 2.7-1-0.75-1.35-2.1l-0.05-2.8q-0.2-1.5-1.8-2.2-2.3 0.15-3.7 1.3-5.35 3.85-0.15 8.6l2 0.95 1.05 0.8 1.65 0.55q-23.6 31.9-51.8 71.45l-0.05 0.05-0.3 0.45-0.2-0.45q-6-0.2-7.8-1.7l-2.05-1.9q-1.2-1.2-1-3.05l-0.05-0.3 0.1 0.05m57.9-67.15 0.55 0.25-0.55-0.25-0.05-0.05v0.05h0.05m7.55-6.4 4.65-2.25-4.65 2.25m-54.15 80.45h-0.5 0.5m-1.7-0.6 0.7-0.4 0.5 1-0.5-1-0.7 0.4q-0.7-1.4 0.7-0.4l1.05 0.95-1.05-0.95q-1.4-1-0.7 0.4" fill="#58382b" fill-rule="evenodd"/>
<path d="m48.4-67.7q2.7 1 6.5 3.8-0.7-3.75-3.8-5.5-1.65-0.95-3.95-1.3-6.7-1.1-11.65 7.4v0.7q4.9-6.1 11.5-5.55l1.4 0.45q-1.45 1.45-2.4 4.35 0.95-2.9 2.4-4.35m4.45-2.05-1.75 0.35 1.75-0.35 0.2 0.15q3.65 1.9 4.9 5.7 0.9 2.75 0.5 6.55l-0.55-0.4q-1.75-1.25-3.8-1.25l-1.65 0.2-0.2-2.3v-0.2q-3.3-1.9-6.25-2.05-3.2-0.2-5.95 1.55-3.1 1.95-2.85 6.15 0.2 4.2-1.3 8.5-1.5 4.25-7.5 14-6.05 9.7-15.15 22.25-9.1 12.6-8.6 9.45 0.5-3.2-0.35-2.7-0.9 0.45-3.8 3.8l-5.65 7.65q-3.1 4.2-7.5 7.2-2.45 1.8-5.2 0.2 1.1-3 2.8-5.55l2.25-3.3-0.4 0.7 18.3-23.6 0.4-0.7q0.85-1.15 5.35-5.15l2.15-2.2q-0.7 4.15-2.75 8.05l-1.05 1.6q4.8-5.35 8.85-12.1 4.65-7.75 6.4-16.4l2.25-3.85q3.35-5.9 4.95-11.4 1.6-5.45 6.65-9.8 5.05-4.4 13.15-1.35l1.4 0.6m-5.2 14.75-0.25 0.3-0.95 1.7-0.55 1.4-0.55 1.7h-0.05l-1.65-0.55-1.05-0.8-2-0.95q-5.2-4.75 0.15-8.6 1.4-1.15 3.7-1.3 1.6 0.7 1.8 2.2l0.05 2.8q0.35 1.35 1.35 2.1m10.3-8.9q-3.3-0.8-5.7 2.8 2.4-3.6 5.7-2.8" fill="#a1664c" fill-rule="evenodd"/>
<path d="m51.1-69.4q3.1 1.75 3.8 5.5-3.8-2.8-6.5-3.8 1.15-1.25 2.7-1.7-1.55 0.45-2.7 1.7l-1.4-0.45q-6.6-0.55-11.5 5.55v-0.7q4.95-8.5 11.65-7.4 2.3 0.35 3.95 1.3" fill="#bf8c77" fill-rule="evenodd"/>
<path d="m51.1-69.4q-1.55 0.45-2.7 1.7m2.7-1.7 1.75-0.35-1.4-0.6q-8.1-3.05-13.15 1.35-5.05 4.35-6.65 9.8-1.6 5.5-4.95 11.4l-2.25 3.85m-11.45 18.85-2.15 2.2q-4.5 4-5.35 5.15l-0.4 0.7-18.3 23.6 0.4-0.7-2.25 3.3q-1.7 2.55-2.8 5.55m63.85-78.05q0.95-2.9 2.4-4.35m4.45-2.05 0.2 0.15q3.65 1.9 4.9 5.7 0.9 2.75 0.5 6.55m-65.5 78.95q-6-0.2-7.8-1.7l-2.05-1.9m57.5-70.2q-5.2-4.75 0.15-8.6 1.4-1.15 3.7-1.3 1.6 0.7 1.8 2.2l0.05 2.8q0.35 1.35 1.35 2.1m-2.35 5.1-1.65-0.55-1.05-0.8m9.85-7.55-0.2-2.3v-0.2m0 0.2q2.4-3.6 5.7-2.8m-44.95 38.8q3.25-3.65 6.25-9.3l5.2-9.55m-31.5 65.55h0.5m-1.7-0.6q-0.7-1.4 0.7-0.4l1.05 0.95" fill="none" stroke="#000" stroke-linecap="round" stroke-linejoin="round" stroke-width=".1"/>
<path d="m40.6-52.2-0.55-0.25m-0.05-0.05 0.05 0.05" fill="none" stroke="#4a2502" stroke-linecap="round" stroke-linejoin="round" stroke-width=".1"/>
<path d="m45.35-49.9h-0.05q-23.6 31.9-51.8 71.45l-0.05 0.05m58.8-82.7-4.65 2.25m-54.65 80.45-0.5-1-0.7 0.4" fill="none" stroke="#000" stroke-linecap="round" stroke-linejoin="round" stroke-width=".1"/>
</g>
<g id="a" transform="translate(9.5,15.2)">
<use transform="translate(-9.5,-15.2)" width="19.049999" height="30.1" xlink:href="#c"/>
</g>
<g id="c" transform="translate(9.5,15.2)">
<path d="m-0.8-14.8-0.05 4.2 0.35 0.15 0.9 0.4q-0.2 0.25-0.8-0.3l-0.1-0.1 3.15 2.5q2.95 2.25 5.4 10.55 0.3 1.2 0.05 2.8l-6.65-4.35h-0.35l-1.95-1.3 3.6 3.55q2.1 2.15 2.2 9.4l-0.65 0.6q-1.95 1.55-4.3 1.55l-1.1-0.1q-3.2-0.55-5.6-4.25-1.5-2.35-2.2-5.35l-0.05-0.3q-0.5-2.25-0.5-4.85 0-3.1 0.7-5.75l0.55-1.7 0.55-1.4 0.95-1.7 0.25-0.3q1.15-1.75 2.5-2.7l1.45-0.7 0.85-0.4 0.85-0.15m-0.15 14.45 1.6 1.1-1.6-1.1v-0.1l0.1-10.15-0.1 10.15v0.1l-0.15 15.1 0.15-15.1m-7.25-7.1 7.35-3.15-7.35 3.15m-0.75 12.3 8-5.3-8 5.3" fill="#6c3" fill-rule="evenodd"/>
<path d="m8.55-6.55-8.15-3.5 8.15 3.5q0.95 2.95 0.95 6.55-0.05 3.45-0.85 6.25l-7.55-5.2 7.55 5.2q-0.75 2.35-1.95 4.25l-0.9 1.25-0.85 0.95q-0.1-7.25-2.2-9.4l-3.6-3.55 1.95 1.3h0.35l6.65 4.35q0.25-1.6-0.05-2.8-2.45-8.3-5.4-10.55l-3.15-2.5 0.1 0.1q0.6 0.55 0.8 0.3l-0.9-0.4-0.35-0.15 0.05-4.2h0.2l0.6-0.05 1.5 0.2 0.6 0.15 1.7 0.9 0.55 0.4q1.25 1 2.35 2.65 1.15 1.85 1.85 4" fill="#469b55" fill-rule="evenodd"/>
<path d="m0.4-10.05 8.15 3.5q-0.7-2.15-1.85-4-1.1-1.65-2.35-2.65l-0.55-0.4-1.7-0.9-0.6-0.15-1.5-0.2-0.6 0.05h-0.2m-0.05 4.2 0.35 0.15 0.9 0.4m0.7 11.1 7.55 5.2q0.8-2.8 0.85-6.25 0-3.6-0.95-6.55m-7.9 7.3 0.45 0.3m7.55 5.2q-0.75 2.35-1.95 4.25l-0.9 1.25-0.85 0.95-0.65 0.6q-1.95 1.55-4.3 1.55l-1.1-0.1q-3.2-0.55-5.6-4.25-1.5-2.35-2.2-5.35m-0.05-0.3q-0.5-2.25-0.5-4.85 0-3.1 0.7-5.75l0.55-1.7 0.55-1.4 0.95-1.7 0.25-0.3q1.15-1.75 2.5-2.7l1.45-0.7 0.85-0.4 0.85-0.15m1.45 15.55-1.6-1.1m0.1-10.25-7.35 3.15" fill="none" stroke="#000" stroke-linecap="round" stroke-linejoin="round" stroke-width=".1"/>
<path d="m-0.8-14.8-0.05 4.2-0.1 10.15v0.1l-0.15 15.1m-7.8-9.6-0.05-0.3m8.15-19.65v-0.35m-0.15 14.7-8 5.3" fill="none" stroke="#000" stroke-linecap="round" stroke-linejoin="round" stroke-width=".1"/>
</g>
</defs>
</svg>
