<?xml version="1.0" encoding="UTF-8"?>
<svg version="1.1" viewBox="0 0 34.488 41.161" xmlns="http://www.w3.org/2000/svg" xmlns:cc="http://creativecommons.org/ns#" xmlns:dc="http://purl.org/dc/elements/1.1/" xmlns:rdf="http://www.w3.org/1999/02/22-rdf-syntax-ns#" xmlns:xlink="http://www.w3.org/1999/xlink">
<metadata>
<rdf:RDF>
<cc:Work rdf:about="">
<dc:format>image/svg+xml</dc:format>
<dc:type rdf:resource="http://purl.org/dc/dcmitype/StillImage"/>
</cc:Work>
</rdf:RDF>
</metadata>
<g transform="translate(-230.36 -186.05)">
<use transform="matrix(.8859 .7137 -.6254 .7763 254.11 180.11)" width="17.950001" height="49.599998" xlink:href="#a"/>
</g>
<defs>
<g id="a" transform="translate(9.5,22.1)">
<use transform="translate(-9.5,-22.1)" width="17.950001" height="49.599998" xlink:href="#b"/>
</g>
<g id="b" transform="translate(9.5,22.1)">
<path d="m2.4 26.5v0.85l-0.2 0.15-0.8-1-0.65 0.55v-0.25l-0.15-1.3v-0.1q0.05-2.45-0.4-4.7t-0.35-4.65q0.05-2.4-0.15-4.75l-0.25-1.8-0.05-3.45v-0.3l0.25-1.1 0.25-1.3 0.15-2.7-0.25-2.7v-0.15q0.15-1.25-0.2-1.9-0.4-0.7-0.3-1.8 0.05-1.1-1-1.35l-1.45 0.2h-0.05l-0.2 0.2-0.1 0.25-0.25-0.15q-0.35-0.3-0.25-0.8l0.05-0.25 0.05-0.2 0.5-0.5q0.95-1.1 0.85-2.6l0.45-0.75q0.25-0.55 1.4-0.6 1.1-0.1 2 0.4l1.1 0.65 1 0.85q0.55 0.55 0.55 1.15l-0.65-0.05-0.05 0.1-0.15 0.15-0.6 0.25-0.25 0.55-0.35 0.75q-0.4 0.45-0.25 1.95l0.5 2.7v1q-0.15 0.85-0.15 2v0.3q0.1 1.85-0.3 3.7l0.05 1.3q-0.85 1.95-0.55 4.55l0.4 4.8 0.15 4.75q0.05 2.5 0.5 4.8h0.1v0.95l0.05 1.35m-4.15-37.1-0.05 0.1 0.05-0.1 1.3-0.95q0.8-0.3 1.25 0.35 0.4 0.6 1.25 0.45-0.55-1.3-2.05-1.35-1.65-0.15-2.1 1.3l0.3 0.3 0.05-0.1m1.65 1.5q-1.35-0.9-2.25 0.4 1.05 0.55 2.75 0.9 0.55-0.6-0.5-1.3m2.35 33.3 0.1 0.45-0.1-0.45" fill="#fff" fill-rule="evenodd"/>
<path d="m-1.75-10.6-0.05 0.1-0.3-0.3q0.45-1.45 2.1-1.3 1.5 0.05 2.05 1.35-0.85 0.15-1.25-0.45-0.45-0.65-1.25-0.35l-1.3 0.95m5.7 1.2-0.1 0.4-0.8 2.35q-0.45 1.6-0.85 4.4h-0.05v-0.75l-0.5-2.7q-0.15-1.5 0.25-1.95l0.35-0.75 0.25-0.55 0.6-0.25 0.15-0.15 0.05-0.1 0.65 0.05m-7.45 2.8 0.1-0.25 0.2-0.2h0.05l1.45-0.2q1.05 0.25 1 1.35-0.1 1.1 0.3 1.8 0.35 0.65 0.2 1.9v0.15l0.25 2.7-0.15 2.7-0.25 1.3-0.25 1.1-0.1-3.85v-0.5q0.05-0.85-0.15-1.6l-0.05-0.4-0.2-1.65q-0.05-1-0.65-1.4-0.4-0.3-0.45-0.85l-0.1-1.15q-0.05-0.6-0.95-0.85l-0.25-0.1" fill="#ccc" fill-rule="evenodd"/>
<path d="m2.2-2.25-0.05 0.15v-0.15h0.05" fill="#999" fill-rule="evenodd"/>
<path d="m0.75 27.05-0.55 0.45-0.35-0.5-0.4-17.5 0.25 1.8q0.2 2.35 0.15 4.75-0.1 2.4 0.35 4.65t0.4 4.7v0.1l0.15 1.3v0.25m-4.65-35.05 0.15-0.6 0.2-0.5 0.7-1.45 0.3-0.55q0.1 1.5-0.85 2.6l-0.5 0.5m5.65 13.3 0.6 18.9h-0.1q-0.45-2.3-0.5-4.8l-0.15-4.75-0.4-4.8q-0.3-2.6 0.55-4.55m-1.85-14.4q1.05 0.7 0.5 1.3-1.7-0.35-2.75-0.9 0.9-1.3 2.25-0.4" fill="#d6d6d6" fill-rule="evenodd"/>
<path d="m-1 27.15-0.65-22.85v-0.65q0.1-1-0.2-1.95l-0.15-0.5-0.3-2.05q-0.1-1.2-1.05-1.7-0.7-0.4-0.8-1.05l-0.15-1.5q-0.05-0.75-1.6-1l-0.45-0.15-0.35-0.15q-0.65-0.35-0.55-1.45l0.2-1.45 0.25-0.45 0.45-0.75q0.25-0.65 0.85-0.8 0.55-0.2 0.8-0.55 0.4-0.5 0.95-2.15 0.5-1.65 2.5-2.4 2-0.8 3.95 0.3 1.95 1.05 1.65 2.5t0.75 2.3 1 1.6l-0.15 0.5q-0.6 0.95-1.35 2.9-0.7 1.95-1.5 5.8-0.2 1-0.25 2.45v0.4q0.15 2.3-0.5 4.6l0.8 19.4-0.75 0.15-0.05-1.35v-0.95l-0.6-18.9-0.05-1.3q0.4-1.85 0.3-3.7v-0.3q0-1.15 0.15-2v-0.1l0.05-0.15q0.4-2.8 0.85-4.4l0.8-2.35 0.1-0.4q0-0.6-0.55-1.15l-1-0.85-1.1-0.65q-0.9-0.5-2-0.4-1.15 0.05-1.4 0.6l-0.45 0.75-0.3 0.55-0.7 1.45-0.2 0.5-0.2 0.8-0.05 0.25q-0.1 0.5 0.25 0.8l0.25 0.15 0.25 0.1q0.9 0.25 0.95 0.85l0.1 1.15q0.05 0.55 0.45 0.85 0.6 0.4 0.65 1.4l0.2 1.65 0.05 0.4q0.2 0.75 0.15 1.6v0.5l0.1 3.85v0.3l0.05 3.45 0.4 17.5-0.85 0.15" fill="#fff" fill-opacity=".92157" fill-rule="evenodd"/>
<path d="m-1 27.15-0.5 0.05q-0.95-9.95-0.85-15.55 0.05-5.65-0.45-5.85-0.55-0.25-0.15-1.5 0.4-1.3-0.5-1.55-0.95-0.3-0.95-1.4-0.05-1.15-0.45-2.25l-0.85-1.8-0.8-1.1-1-1.25-0.85-0.85-0.5-0.2q-0.8-0.4-0.6-1.15l0.25-0.65 0.1-0.9-0.3-1.2q-0.3-0.75 0.55-2.2 0.8-1.5 1.65-2.2 0.85-0.75 1.7-2.9 0.8-2.15 3.95-4.05 3.1-1.9 5.4 1.1l2.8 3.85 1.25 2.9q0.75 1.9 0.45 2.9l-0.65 1.85-1.05 3.35-1.75 4.9q-1.05 2.4-0.8 3.5l0.35 2.5q0.15 1.45-0.75 4.6l0.2 16.15-0.75 0.1-0.8-19.4q0.65-2.3 0.5-4.6v-0.4q0.05-1.45 0.25-2.45 0.8-3.85 1.5-5.8 0.75-1.95 1.35-2.9l0.15-0.5q0.05-0.75-1-1.6t-0.75-2.3-1.65-2.5q-1.95-1.1-3.95-0.3-2 0.75-2.5 2.4-0.55 1.65-0.95 2.15-0.25 0.35-0.8 0.55-0.6 0.15-0.85 0.8l-0.45 0.75-0.25 0.45-0.2 1.45q-0.1 1.1 0.55 1.45l0.35 0.15 0.45 0.15q1.55 0.25 1.6 1l0.15 1.5q0.1 0.65 0.8 1.05 0.95 0.5 1.05 1.7l0.3 2.05 0.15 0.5q0.3 0.95 0.2 1.95v0.65l0.65 22.85" fill="#fff" fill-opacity=".4" fill-rule="evenodd"/>
<path d="m2.4 26.5v0.85m-4.95-38.45-0.3 0.55-0.7 1.45-0.2 0.5-0.2 0.8-0.05 0.25q-0.1 0.5 0.25 0.8l0.25 0.15 0.25 0.1q0.9 0.25 0.95 0.85l0.1 1.15q0.05 0.55 0.45 0.85 0.6 0.4 0.65 1.4l0.2 1.65 0.05 0.4q0.2 0.75 0.15 1.6v0.5l0.1 3.85m-1.95-16.85 0.45-0.75q0.25-0.55 1.4-0.6 1.1-0.1 2 0.4l1.1 0.65 1 0.85q0.55 0.55 0.55 1.15l-0.1 0.4-0.8 2.35q-0.45 1.6-0.85 4.4m-0.05 0.25q-0.15 0.85-0.15 2v0.3q0.1 1.85-0.3 3.7l0.05 1.3 0.6 18.9v0.95l0.05 1.35m-3-20.45 0.05 3.45m0.4 17.5-0.4-17.5" fill="none" stroke="#666" stroke-linecap="round" stroke-linejoin="round" stroke-width=".05"/>
<path d="m-1.8-10.5 0.05-0.1m1.15 16.35v0.3m2.95 18.6-0.1-0.45" fill="none" stroke="#093" stroke-linecap="round" stroke-linejoin="round" stroke-width=".05"/>
</g>
</defs>
</svg>
