<?xml version="1.0" encoding="UTF-8"?>
<svg version="1.1" viewBox="0 0 130.95 155.4" xmlns="http://www.w3.org/2000/svg" xmlns:cc="http://creativecommons.org/ns#" xmlns:dc="http://purl.org/dc/elements/1.1/" xmlns:rdf="http://www.w3.org/1999/02/22-rdf-syntax-ns#" xmlns:xlink="http://www.w3.org/1999/xlink">
<metadata>
<rdf:RDF>
<cc:Work rdf:about="">
<dc:format>image/svg+xml</dc:format>
<dc:type rdf:resource="http://purl.org/dc/dcmitype/StillImage"/>
</cc:Work>
</rdf:RDF>
</metadata>
<g transform="translate(-209.5,-122.25)">
<use transform="translate(209.5,122.25)" width="130.95" height="155.39999" xlink:href="#a"/>
</g>
<defs>
<g id="a" transform="translate(-209.5,-122.25)">
<path d="m231.65 215.45q1.05 1.55 1.05 2.6 0 1.55-1.05 2.65-0.8 0.75-1.8 0.95l-0.85 0.1q-1.3 0-2.6-1.05-1.1-1.1-1.1-2.65t1.1-2.6l0.45-0.4q0.9-0.7 2.15-0.7t2.2 0.7l0.45 0.4m-5.4 34.85 0.05-0.1q-0.8-1.3-0.8-2.15 0-1.55 1.05-2.65 1.1-1.05 2.6-1.05h0.05q1.3 0 2.6 1.05 1.1 1.1 1.1 2.65t-1.1 2.6l-0.45 0.4q-0.9 0.7-2.15 0.7t-2.15-0.7l-0.5-0.4-0.3-0.35m0.05-0.1v0.05l0.25 0.4-0.25-0.4v-0.05" fill="#ccc" fill-rule="evenodd"/>
<path d="m226.4 220.7q1.3 1.05 2.6 1.05l0.85-0.1q1-0.2 1.8-0.95 1.05-1.1 1.05-2.65 0-1.05-1.05-2.6l0.95 1.1 0.65 0.85q0.4 0.75 0.4 1.75 0 1.25-0.65 2.2l-0.4 0.45-1.2 0.8-1.45 0.25-0.9-0.1q-0.95-0.2-1.7-0.95l-0.95-1.1m5.85 2.9q1.6 0.75 1.45-1.4l0.65 0.85q0.2 1.3-0.45 1.5h-0.85l-0.8-0.95m-7.1 17.95 0.85 1q-1.6-0.7-1.45 1.4l-0.7-0.9q-0.15-0.75 0.05-1.15l0.05-0.05q0.3-0.5 1.2-0.3m1.65 2 1.45-0.3 1.4 0.25q0.65 0.25 1.2 0.8l0.95 1.1q-1.3-1.05-2.6-1.05h-0.05q-1.5 0-2.6 1.05-1.05 1.1-1.05 2.65 0 0.85 0.8 2.15l-0.05 0.1-0.65-0.75q-1.05-1.05-1.05-2.6 0-1.25 0.7-2.15l0.35-0.5 1.2-0.75m-11.95 27 1 0.15-0.3 3.2-1.95-1.35 0.25-2.2 1 0.2m0.65 4.3 3.25 0.2v2.5l-8.3-0.4v-2.7l2.9 0.25 2.15 0.15" fill="#999" fill-rule="evenodd"/>
<path d="m229.05 222.75 0.9 0.1 1.45-0.25 0.85 1 0.8 0.95-3.35 5.55 4.2-5.55q0.65-0.2 0.45-1.5l-0.65-0.85-0.7-0.85q0.65-0.95 0.65-2.2 0-1-0.4-1.75 5.55-6.8 12.4-13.1l2.05 2.7q7.05-6.7 14.55-11.45l1.5 1.8q-8.05 5.85-15.05 12.3-13.75 12.7-23.55 31.9l2.05-5.6-3.25 5.9-0.05 0.05q-0.2 0.4-0.05 1.15-6.2 11.3-9 27.5l-1-0.2-4.25-0.75q3.85-25.55 19.45-46.85m66.05-46.9-0.95-1.4q8.2-5.4 14.4-12.55l-3.15-2.95q19-18.35 19-33.85 3.35-1.5 6.15-2.2-0.6 9.05-4.95 17l3.25-4.1q-13.1 26.9-33.75 40.05" fill="#afa07a" fill-rule="evenodd"/>
<path d="m233.05 224.55h0.85l-4.2 5.55 3.35-5.55m62.05-48.7q20.65-13.15 33.75-40.05 2.9-4.35 4.9-9.9l1.1-3.55q3.3 0 5.5 1.6-3.75 21.45-26.85 43.15l-2.6-2.55q-6.35 7.65-14.9 12.7l-0.9-1.4m-31.35 21.5 0.85 1q-7.65 4.85-14.1 11.45l3.05 3.85q-15.55 14.7-23.9 29.85l-1.4-0.25-1.45 0.3-0.8-1-0.85-1q9.8-19.2 23.55-31.9 7-6.45 15.05-12.3m-39.8 44.5 3.25-5.9-2.05 5.6q-0.9-0.2-1.2 0.3m1.3 2.95q-0.7 0.9-0.7 2.15 0 1.55 1.05 2.6l0.65 0.75q-4.7 10.45-6 21.15l-4.4-0.75-1-0.15q2.8-16.2 9-27.5l0.7 0.9 0.7 0.85" fill="#8a7953" fill-rule="evenodd"/>
<path d="m231.4 222.6 1.2-0.8 0.4-0.45 0.7 0.85q0.15 2.15-1.45 1.4l-0.85-1m-5.4 19.95 0.8 1-1.2 0.75-0.35 0.5-0.7-0.85q-0.15-2.1 1.45-1.4m-12.4 30 1.95 1.35-0.05 0.95-2.15-0.15 0.25-2.15" fill="#666" fill-rule="evenodd"/>
<path d="m281.45 178.1 1.85 2.75q-1.5 2.25-3.6 0.75l-1.3-1.4q4.1 1.5 3.05-2.1m-11.15 7.35 1.8 2.8q-1.1 2.85-2.75 1.55l-2.3-2.25q4.2 2.45 3.25-2.1m-6.55 11.9 31.35-21.5 0.9 1.4q8.55-5.05 14.9-12.7l2.6 2.55q-10.4 9.8-24.75 19.7l-1.6-2.05q-2-1.25-3.15 1.15l0.75 3.6-6.85 4.4-1.5-2.5q-1.85-0.95-3.75 0.7l1.4 4.4 0.05 0.1q-11.5 8.45-20.55 17.05l-3.05-3.85q6.45-6.6 14.1-11.45l-0.85-1" fill="#9e653f" fill-rule="evenodd"/>
<path d="m305.4 158.95 3.15 2.95q-6.2 7.15-14.4 12.55l0.95 1.4-31.35 21.5-1.5-1.8q-7.5 4.75-14.55 11.45l-2.05-2.7q9.5-8.8 21.4-16.75l2.3 2.25q1.65 1.3 2.75-1.55l-1.8-2.8 0.5-0.3 7.6-4.95 1.3 1.4q2.1 1.5 3.6-0.75l-1.85-2.75q14.35-9.95 23.95-19.15m-31.35 37.55-1.4-4.4q1.9-1.65 3.75-0.7l1.5 2.5q-1.45-1.7-2.9-1.1-1.35 0.5-0.95 3.7m10.7-7-0.75-3.6q1.15-2.4 3.15-1.15l1.6 2.05q-4.25-2.6-3.55 2.4l-0.45 0.3" fill="#b8774b" fill-rule="evenodd"/>
<path d="m328.85 135.8-3.25 4.1q4.35-7.95 4.95-17l3.2 3q-2 5.55-4.9 9.9" fill="#5b5137" fill-rule="evenodd"/>
<path d="m226.4 220.7 0.95 1.1q0.75 0.75 1.7 0.95l0.9 0.1 1.45-0.25 1.2-0.8 0.4-0.45q0.65-0.95 0.65-2.2 0-1-0.4-1.75l-0.65-0.85-0.95-1.1-0.45-0.4q-0.95-0.7-2.2-0.7t-2.15 0.7l-0.45 0.4q-1.1 1.05-1.1 2.6t1.1 2.65m7.3 1.5-0.7-0.85m0.9 3.2h-0.85l-0.8-0.95-0.85-1m2.5 1.95q0.65-0.2 0.45-1.5l-0.65-0.85m19.85-8.55q9.05-8.6 20.55-17.05m-44.45 46.9q8.35-15.15 23.9-29.85m-33.3 57.8q1.3-10.7 6-21.15" fill="none" stroke="#000" stroke-linecap="round" stroke-linejoin="round" stroke-opacity=".30196" stroke-width=".2"/>
<path d="m305.4 158.95 3.15 2.95q-6.2 7.15-14.4 12.55l0.95 1.4 0.9 1.4q8.55-5.05 14.9-12.7l2.6 2.55q23.1-21.7 26.85-43.15-2.2-1.6-5.5-1.6l-1.1 3.55q-2 5.55-4.9 9.9l-3.25 4.1q4.35-7.95 4.95-17-2.8 0.7-6.15 2.2 0 15.5-19 33.85-9.6 9.2-23.95 19.15m-3.05 2.1-7.6 4.95-0.5 0.3m-3.25 2.1q-11.9 7.95-21.4 16.75l2.05 2.7q7.05-6.7 14.55-11.45l1.5 1.8 0.85 1q-7.65 4.85-14.1 11.45l3.05 3.85m24.85-33.45q4.1 1.5 3.05-2.1m-7.4 18.4q-0.4-3.2 0.95-3.7 1.45-0.6 2.9 1.1l6.85-4.4m4-2.7q14.35-9.9 24.75-19.7m-39.4 29.5-0.05-0.1m-7-8.95q4.2 2.45 3.25-2.1m18.45 1.35q-4.25-2.6-3.55 2.4l-0.45 0.3m-51.5 27.9q5.55-6.8 12.4-13.1m-20.5 37.25 0.85 1 0.8 1 1.45-0.3 1.4 0.25m-5.8-0.45q-0.15-0.75 0.05-1.15m0.05-0.05q0.3-0.5 1.2-0.3m1.1 8.75-0.65-0.75q-1.05-1.05-1.05-2.6 0-1.25 0.7-2.15l-0.7-0.85-0.7-0.9m-9 27.5 1 0.15 4.4 0.75m11.55-26.05-0.95-1.1q-0.55-0.55-1.2-0.8m-4.4 1.3 0.35-0.5 1.2-0.75m-0.25 7.1-0.25-0.4v-0.05m5.5-4.8q1.1 1.1 1.1 2.65t-1.1 2.6l-0.45 0.4q-0.9 0.7-2.15 0.7t-2.15-0.7l-0.5-0.4-0.3-0.35m-12.4 20.05 1 0.2m0.7 3.35 0.3-3.2m-2.25 1.85 0.25-2.2-4.25-0.75q3.85-25.55 19.45-46.85m-13.55 52.1 3.25 0.2v2.5l-8.3-0.4v-2.7l2.9 0.25 0.25-2.15m1.9 2.3-2.15-0.15m2.2-0.8-0.05 0.95m115.05-151.95 3.2 3" fill="none" stroke="#000" stroke-linecap="round" stroke-linejoin="round" stroke-opacity=".30196" stroke-width=".2"/>
<path d="m226.35 247.65-0.6 0.05-0.25-0.55q0-0.4 0.25-0.85l0.6-0.6 0.6-0.05q0.3 0.15 0.25 0.55l-0.2 0.8-0.65 0.65" fill="#fff" fill-rule="evenodd"/>
<path d="m226.35 217.75-0.6 0.05-0.25-0.55q0-0.4 0.25-0.85l0.6-0.6 0.6-0.05q0.3 0.15 0.25 0.55l-0.2 0.8-0.65 0.65" fill="#fff" fill-rule="evenodd"/>
<path d="m266.5 188.95q-0.3-0.3-0.2-0.55 0.05-0.35 0.45-0.45l0.9 0.05 0.75 0.4q0.3 0.3 0.2 0.6l-0.45 0.4h-0.9l-0.75-0.45" fill="#fff" fill-opacity=".49804" fill-rule="evenodd"/>
</g>
</defs>
</svg>
