<?xml version="1.0" encoding="UTF-8"?>
<svg version="1.1" viewBox="0 0 65.9 95.086" xmlns="http://www.w3.org/2000/svg" xmlns:cc="http://creativecommons.org/ns#" xmlns:dc="http://purl.org/dc/elements/1.1/" xmlns:rdf="http://www.w3.org/1999/02/22-rdf-syntax-ns#" xmlns:xlink="http://www.w3.org/1999/xlink">
<metadata>
<rdf:RDF>
<cc:Work rdf:about="">
<dc:format>image/svg+xml</dc:format>
<dc:type rdf:resource="http://purl.org/dc/dcmitype/StillImage"/>
</cc:Work>
</rdf:RDF>
</metadata>
<g transform="translate(-60.025 -181.88)">
<use transform="translate(60.05,181.9)" width="65.849998" height="95.050003" xlink:href="#a"/>
</g>
<defs>
<g id="a" transform="translate(-60.05,-181.9)">
<path d="m123.3 191.65-3.95 3.35 2.8-1.05 0.1 0.65-0.75 0.65-3.25 2.9 4.8-0.55 0.05 0.05-0.05-0.05h0.1l-0.05 0.05-3 2.6 1.45 0.2-5.8 2.7 2.55-2.55-8.2 2.1 1.65-1.35 0.05-1.55 2.15-4.1-6.9 5.05 3.85-5.3-0.75-3.25-3.25 3.05 0.9-4.9-4.55 5.75 0.6-4.8-0.6 4.8-0.3 2.3-0.05 0.55-1.45-8.45-1.45 7.2-0.65-5.2 1.25-0.75-1-2.9 1.4 0.2-0.35 0.65 1.4 0.2 0.4-0.75 1.6 0.35-0.2 1.8 1.1 0.2 1.35-4.5-0.05 1.75 1.4-0.1 0.4-2.25 2.7 0.35 0.2 3.8 1.2-0.2 1.55-2.55-1.45 5.35 3.9-4.8-1.6 4.8 0.5 1.35 4.75-3.7-2.1 3.65 5.6-2.8m-11.05 1.5-1.35 2.3 1.35-2.3m7.1 1.85-7.6 6.35 7.6-6.35" fill="#fff7d5" fill-rule="evenodd"/>
<path d="m118 185.8q2.5 3.3 6.55 4.85-0.7 0.45-1.25 1l-5.6 2.8 2.1-3.65-4.75 3.7-0.5-1.35 1.6-4.8 1.85-2.55m6.85 13.2-3.3 1.45-1.45-0.2 3-2.6q0.75 0.8 1.75 1.35m-12.5 5.6-6.85 3.15-0.6-0.65-0.85-0.7-0.95-0.35-1.05-0.05 0.7-6.05-0.7 6.05-0.9-0.05-0.9-6.5 0.55-0.9 0.3-2.5 0.7 0.4-0.2 2.85 1.15 0.65 0.15-1 0.05-0.55 1.15-0.15 1.6-2.8 0.9 0.5-1.35 2.4 2.95-0.4-2.25 2.65 0.8 0.55-1 1.25-2.65 3.65 2.65-3.65 0.5 0.3 2.65-1.9 1.15 0.65-2.2 1.85 0.7 0.7-1.1 0.9-2.55 2.2 2.55-2.2 0.85 0.5 3.1-1.95 0.95 1.15m-13-12.1-0.6-4.35q3 0.85 5.4 0.55l-0.1 0.8 0.1-0.8 0.1-0.9 0.7-4.9q3.35 2.95 8.85 3.55l-0.1 1.35-1.55 2.55-1.2 0.2-0.2-3.8-2.7-0.35-0.4 2.25-1.4 0.1 0.05-1.75-1.35 4.5-1.1-0.2 0.2-1.8-1.6-0.35-0.4 0.75-1.4-0.2 0.35-0.65-1.4-0.2 1 2.9-1.25 0.75m22.15 2.75q0.65 1.4 1.55 2.35l-4.8 0.55 3.25-2.9" fill="#f60" fill-rule="evenodd"/>
<path d="m80.45 252.4-2.75 4.75-1.35-1.85 2.65-4.6 1.45 1.7m-4.45 7.65-9.55 16.55-0.65-1.2 2.85-4.95-1.15-0.65 2.95-5.1 0.9 0.5 3.4-5.9 1.25 0.75m-15.95 13.2 4.8-7.95 1.6 0.25 2.45-4.25 1.25 0.25 2.6-4.5-1.5-0.1-1.1 1.9-1.45-0.05 3.9-6.45 1.5 0.25-1.45 2.5 0.75 0.15 3.2-5.6 2-0.7-14.6 24.35-0.75-0.45 3.3-5.7-1.5 0.15-3.05 5.35q-0.9 0.05-1.95 0.6m17.25-28.7 2.45-4.15 1.6-0.1-2 3.45 1.25 0.2-1.6 2.7-1.85-0.6 1-1.75-0.85 0.25m13.85-23.2 2.95-4.8 1-0.2 3.35-5.85 1.1-0.2 2.5-4.3 1.05 0.05 0.95 0.35-9.05 15.05-0.85-0.35 1.9-3.3-1.5 0.25-1.65 2.95q-0.8 0-1.75 0.35m-5.35 13.55 0.95 0.3-4.4 7.4-0.8-0.3 4.25-7.4" fill="#b8a883" fill-rule="evenodd"/>
<path d="m99.5 227.4q4.7 2.25 9 1.4l-0.3 4q-4.7-0.6-8.95-2.85l0.25-2.55m-0.65 6.15q3.4 3.5 7.6 5.6l-1.75 3.3q-4.2-3.2-7.1-6.95l1.25-1.95m-16 1.7 8.3-13.9q0.95-0.35 1.75-0.35l1.25 0.1 0.85 0.35-8.25 13.75-0.95-0.3q-1.2-0.25-2.95 0.35" fill="#c30" fill-rule="evenodd"/>
<path d="m105.5 207.75 0.5 0.6-9.1 15.8q-0.7-1.95-1.9-2.7l9.05-15.05 0.85 0.7 0.6 0.65m-16.85 30.45-8.2 14.2-1.45-1.7-2.65 4.6 1.35 1.85-1.7 2.9-1.25-0.75-3.4 5.9-0.9-0.5-2.95 5.1 1.15 0.65-2.85 4.95q-0.8-1.4-1.8-2.1l14.6-24.35-2 0.7-3.2 5.6-0.75-0.15 1.45-2.5-1.5-0.25 4.7-7.8 0.85-0.25-1 1.75 1.85 0.6 1.6-2.7-1.25-0.2 2-3.45-1.6 0.1 3.1-5.15q1.75-0.6 2.95-0.35l-4.25 7.4 0.8 0.3 4.4-7.4h0.05q1.35 0.8 1.85 3m-23.8 27.1 3.85-6.5 1.45 0.05 1.1-1.9 1.5 0.1-2.6 4.5-1.25-0.25-2.45 4.25-1.6-0.25m29.25-48.75 6.25-10.4 0.8-0.2 0.9 0.05-2.5 4.3-1.1 0.2-3.35 5.85-1 0.2m-1.2 4.45 1.65-2.95 1.5-0.25-1.9 3.3-1.25-0.1m-30.9 51.65 3.05-5.35 1.5-0.15-3.3 5.7-1.25-0.2" fill="#948256" fill-rule="evenodd"/>
<path d="m96.9 224.15-0.8 1.35q1.7 1.15 3.4 1.9l-0.25 2.55-4.15-2.75-0.55 0.95q1.95 3.05 4.3 5.4l-1.25 1.95q-2.3-3-3.7-6.2l-5.25 8.9q-0.5-2.2-1.85-3h-0.05l8.25-13.75q1.2 0.75 1.9 2.7" fill="#930" fill-rule="evenodd"/>
<path d="m66.45 276.6q-4.15 1.45-6.4-3.35 1.05-0.55 1.95-0.6l1.25 0.2 0.75 0.45q1 0.7 1.8 2.1l0.65 1.2" fill="#6c5f3e" fill-rule="evenodd"/>
<path d="m118 185.8 0.8-1.1q1.75 3.5 6.85 4.95l-1.1 1q-4.05-1.55-6.55-4.85m4.25 8.8q0.6 2.6 3.65 3.95l-1.05 0.45q-1-0.55-1.75-1.35l0.05-0.05h-0.1q-0.9-0.95-1.55-2.35l0.75-0.65m-6.5 8.55-3.4 1.45-0.95-1.15-3.1 1.95-0.85-0.5 1.1-0.9-0.7-0.7 2.2-1.85-1.15-0.65-2.65 1.9-0.5-0.3 1-1.25-0.8-0.55 2.25-2.65-2.95 0.4 1.35-2.4-0.9-0.5-1.6 2.8-1.15 0.15 0.3-2.3 4.55-5.75-0.9 4.9 3.25-3.05 0.75 3.25-3.85 5.3-0.3 0.4 0.3-0.4 6.9-5.05-2.15 4.1-0.05 1.55-1.65 1.35 8.2-2.1-2.55 2.55m-15.5-3.7-0.25-1.75 1.45-7.2 1.45 8.45-0.15 1-1.15-0.65 0.2-2.85-0.7-0.4-0.3 2.5-0.55 0.9m-1.5-11.3-0.15-0.8q3.5 1.3 5.65 0.45l-0.1 0.9q-2.4 0.3-5.4-0.55m6.2-5.25 0.1-1q3.3 3.45 8.85 3.2l-0.1 1.35q-5.5-0.6-8.85-3.55m5.15 19.8-1.55 1.3 1.55-1.3" fill="#fc0" fill-rule="evenodd"/>
<path d="m124.55 190.65 1.1-1q-5.1-1.45-6.85-4.95l-0.8 1.1m6.55 4.85q-0.7 0.45-1.25 1l-3.95 3.35 2.8-1.05 0.1 0.65q0.6 2.6 3.65 3.95l-1.05 0.45-3.3 1.45-5.8 2.7-3.4 1.45-6.85 3.15 0.5 0.6-9.1 15.8m-0.8 1.35q1.7 1.15 3.4 1.9 4.7 2.25 9 1.4l-0.3 4q-4.7-0.6-8.95-2.85l-4.15-2.75m-0.55 0.95q1.95 3.05 4.3 5.4 3.4 3.5 7.6 5.6l-1.75 3.3q-4.2-3.2-7.1-6.95-2.3-3-3.7-6.2m-5.25 8.9-8.2 14.2m-4.45 7.65-9.55 16.55q-4.15 1.45-6.4-3.35l4.8-7.95 3.85-6.5 3.9-6.45 4.7-7.8 2.45-4.15 3.1-5.15 8.3-13.9 2.95-4.8 6.25-10.4 0.8-0.2-0.9-6.5-0.25-1.75-0.65-5.2-0.6-4.35-0.15-0.8q3.5 1.3 5.65 0.45l0.7-4.9 0.1-1q3.3 3.45 8.85 3.2l-0.2 2.7-1.45 5.35 3.9-4.8 1.85-2.55m-14.15 5.5-0.6 4.8m7.65-0.65 1.35-2.3m-8.1-4.45-0.1 0.8-0.2 1.8m0.4-3.5-0.1 0.9m-1.2 9.7-0.05 0.55-0.15 1-0.7 6.05 1.05 0.05 2.65-3.65 1-1.25m-3.8-2.75 0.3-2.3m3.8 4.65-0.3 0.4m1.8 2.85 1.55-1.3 1.65-1.35 7.6-6.35m-12.3 5.75 3.85-5.3m-3.45 9.45 1.1-0.9m-4.5 2.4 0.85 0.7 2.55-2.2m-2.55 2.2 0.6 0.65m-4.35-1.8 0.9 0.05m-7.9 15.1 0.85 0.35q1.2 0.75 1.9 2.7m7.15-17.75-0.95-0.35m-11.95 15.3q0.95-0.35 1.75-0.35m1.25 0.1-1.25-0.1m-6.15 14.2h0.05q1.35 0.8 1.85 3m-5.8-2.95q1.75-0.6 2.95-0.35l0.95 0.3m-20.95 40.2 0.65 1.2m-4.45-3.95 1.25 0.2 0.75 0.45q1 0.7 1.8 2.1m-5.75-2.15q1.05-0.55 1.95-0.6" fill="none" stroke="#000" stroke-linecap="round" stroke-linejoin="round" stroke-opacity=".32941" stroke-width=".05"/>
<path d="m123.05 197.6 0.05 0.05" fill="none" stroke="#0f0" stroke-linecap="round" stroke-linejoin="round" stroke-width=".05"/>
<path d="m106 208.35-39.55 68.25-0.65-1.2q-0.8-1.4-1.8-2.1l40.05-66.9 0.85 0.7 0.6 0.65 0.5 0.6" fill-opacity=".30196" fill-rule="evenodd"/>
</g>
</defs>
</svg>
