<?xml version="1.0" encoding="UTF-8"?>
<svg version="1.1" viewBox="0 0 24.2 38.55" xmlns="http://www.w3.org/2000/svg" xmlns:cc="http://creativecommons.org/ns#" xmlns:dc="http://purl.org/dc/elements/1.1/" xmlns:rdf="http://www.w3.org/1999/02/22-rdf-syntax-ns#" xmlns:xlink="http://www.w3.org/1999/xlink">
<metadata>
<rdf:RDF>
<cc:Work rdf:about="">
<dc:format>image/svg+xml</dc:format>
<dc:type rdf:resource="http://purl.org/dc/dcmitype/StillImage"/>
</cc:Work>
</rdf:RDF>
</metadata>
<g transform="translate(-256.75,-186.9)">
<use transform="translate(256.75,186.9)" width="24.200001" height="38.549999" xlink:href="#a"/>
</g>
<defs>
<g id="a" transform="translate(0,-11.4)">
<use transform="translate(0,11.4)" width="24.200001" height="38.549999" xlink:href="#b"/>
</g>
<g id="b" transform="translate(0,-11.4)">
<path d="m18.85 28.4-0.15 0.15-1.3 2-0.5 0.1-1.4 2.55-2.9-1 0.05-0.1 1.4-2.85 7-10.65 0.05-0.05 2 2.3-0.3 0.4q-2.05 2.85-3.25 6.3l-0.7 0.85" fill="#c8cfd0" fill-rule="evenodd"/>
<path d="m23.1 20.85 0.85 1-3.7 5.5-0.6 0.15 0.3 0.35-0.45 0.7-0.65-0.15 0.7-0.85q1.2-3.45 3.25-6.3l0.3-0.4m-4.4 7.7 0.5 0.45-2.95 4.5-0.7-0.25-0.05-0.05 1.4-2.55 0.5-0.1 1.3-2m0.95-1.05-0.1 0.05 0.1-0.05" fill="#e8ecec" fill-rule="evenodd"/>
<path d="m20.55 13.65 0.5 4.95-7 10.65-2.4 2.25h-0.1l-1.9-1.7 10-15 0.9-1.15" fill="#a8b6b7" fill-rule="evenodd"/>
<path d="m9 29.25 11.45-17.6 0.1 2-0.9 1.15-10 15h-0.05l-0.6-0.55" fill="#c7d0d1" fill-rule="evenodd"/>
<path d="m11.65 31.5 1 0.6-0.05 0.1-0.05 3.3-1.75-1-0.05-1.05-0.9 0.5-1.4-0.8 3.1-1.65h0.1" fill="#a06503" fill-rule="evenodd"/>
<path d="m4.3 48.6-0.15 0.35-1-1.25-1.55-0.9-1.35-0.3 0.2-0.3q1.55 0.25 2.7 1 1.1 0.7 1.15 1.4m8.35-16.5-1-0.6 2.4-2.25-1.4 2.85" fill="#eaaf00" fill-rule="evenodd"/>
<path d="m15.3 37.1 2.05 1.1q0.85-0.4 1.65-0.75l1.45 0.95-0.85 2.25-6.1-3.5-6.85-3.9-6.15-3.5 1.55-1.9 1.5 0.8 0.05 0.8q0.1 1.3 1.6 2l0.6 0.2 2.65 1.5 1.4 0.8 0.95 0.55 1.75 1 1.3 0.75 0.05 0.1 0.1-0.05 1.3 0.8" fill="#b37002" fill-rule="evenodd"/>
<path d="m12.55 35.5 0.05-3.3 2.9 1 0.05 0.05-0.6 0.6q-0.5 0.7-0.85 1.5l0.2 0.4-0.4 0.45-0.05 0.05-1.3-0.75" fill="#718688" fill-rule="evenodd"/>
<path d="m16.25 33.5-1.2 2v0.4l-0.1 0.5-0.65-0.65-0.2-0.4q0.35-0.8 0.85-1.5l0.6-0.6 0.7 0.25m-9.3-2.2 2.05-2.05 0.6 0.55-0.15 1.05-1.25 0.15-0.05 0.3-0.4 0.3-0.8-0.3" fill="#a2b0b3" fill-rule="evenodd"/>
<path d="m15.05 35.9 0.25 1.2-1.3-0.8-0.1-0.1 0.4-0.45 0.65 0.65 0.1-0.5m-9.25-4.25 1.15-0.35 0.8 0.3 0.4-0.3 0.05-0.3 1.25-0.15 0.15-1.05h0.05l1.9 1.7-3.1 1.65-2.65-1.5m4.05 2.3 0.9-0.5 0.05 1.05-0.95-0.55" fill="#809395" fill-rule="evenodd"/>
<path d="m2.6 43.95-1-0.3 1.1-0.7 0.15 0.6-0.25 0.4m3.7-7.3-0.75 0.8-0.75-0.1 0.8-0.75 0.7 0.05" fill="#fff" fill-rule="evenodd"/>
<path d="m13.15 39-2.1-1.2 0.7-0.4q0.05-0.6-0.45-1-1.7-1.55-3.6-1.6l-0.05 1.05-2.35-1.35-0.85-1.15 2.2-0.1 6.85 3.9 1.05 1.95-1.4-0.1" fill="#c07903" fill-rule="evenodd"/>
<path d="m11.05 37.8-0.6 0.4q0-0.55-0.85-1.1t-2-0.75l0.05-0.5 0.05-1.05q1.9 0.05 3.6 1.6 0.5 0.4 0.45 1l-0.7 0.4m-6.65 9.7-0.1 1.1q-0.05-0.7-1.15-1.4-1.15-0.75-2.7-1l1-0.55q1.2 0.25 2.05 0.8 0.85 0.5 0.9 1.05m-4.35 0.6h-0.05 0.05" fill="#4a4565" fill-rule="evenodd"/>
<path d="m10.45 38.25-4.3 6.6-0.95-0.9-0.95-0.2v-1.05l-0.6-0.35-0.8 1.2 1.05-1.6 3.7-5.6q1.15 0.2 2 0.75t0.85 1.1v0.05m-6.55 3.7-0.25 0.4 0.25-0.4" fill="#441d06" fill-rule="evenodd"/>
<path d="m19.6 40.65-2.15 0.8-4.3-2.45 1.4 0.1-1.05-1.95 6.1 3.5m-14.3-6.15-4.35-2.45-0.45-2.3 6.15 3.5-2.2 0.1 0.85 1.15" fill="#fec416" fill-rule="evenodd"/>
<path d="m6.15 44.85-1.75 2.65q-0.05-0.55-0.9-1.05-0.85-0.55-2.05-0.8l0.25-0.4 0.9-1.3 0.25-0.4 0.8-1.2 0.6 0.35v1.05l0.95 0.2 0.95 0.9" fill="#7e360c" fill-rule="evenodd"/>
<path d="m4.15 48.95-1.3 1-0.75-1 1.05-1.25 1 1.25m-4.15-0.85 0.25-1.6 1.35 0.3-0.2 1.7-1.35-0.4h-0.05" fill="#706a99" fill-rule="evenodd"/>
<path d="m2.85 49.95q-1.15-0.2-1.95-0.75-0.85-0.55-0.85-1.1l1.35 0.4 0.7 0.45 0.75 1" fill="#95a5c4" fill-rule="evenodd"/>
<path d="m1.6 46.8 1.55 0.9-1.05 1.25-0.7-0.45 0.2-1.7" fill="#7e93e0" fill-rule="evenodd"/>
<path d="m23.95 21.85-3.7 5.5m-0.6 0.15 0.3 0.35-0.45 0.7m-0.8 0 0.5 0.45-2.95 4.5-1.2 2v0.4l0.25 1.2 2.05 1.1q0.85-0.4 1.65-0.75l1.45 0.95-0.85 2.25-2.15 0.8-4.3-2.45-2.1-1.2-0.6 0.4v0.05-0.05q0-0.55-0.85-1.1t-2-0.75l0.05-0.5-2.35-1.35-4.35-2.45-0.45-2.3 1.55-1.9 1.5 0.8 0.05 0.8q0.1 1.3 1.6 2l0.6 0.2 1.15-0.35 2.05-2.05 11.45-17.6m-18.75 33.6 0.9-1.3m1.3-2 3.7-5.6m4.05-4.85h-0.1l-3.1 1.65 1.4 0.8 0.9-0.5 0.05 1.05 1.75 1 0.05-3.3 0.05-0.1 1.4-2.85-2.4 2.25m2.2 4.75-1.3-0.75m2.75 1.6-1.3-0.8m-6.35-0.45 0.05-1.05q1.9 0.05 3.6 1.6 0.5 0.4 0.45 1l-0.7 0.4m-2.6-4.65-2.65-1.5m0.85 1.6-6.15-3.5m3.15 12.6 0.25-0.4m-0.25 0.4-0.8 1.2-0.25 0.4m10.9-6.8 6.1 3.5m-6.1-3.5-6.85-3.9m3.2 0.7 0.95 0.55" fill="none" stroke="#391100" stroke-linecap="round" stroke-linejoin="round" stroke-opacity=".47059" stroke-width=".5"/>
<path d="m19.5 28.55-0.65-0.15m2.2-9.8 0.05-0.05m-1.55 9 0.1-0.05m-5.6 1.75 7-10.65" fill="none" stroke="#391100" stroke-linecap="round" stroke-linejoin="round" stroke-opacity=".47059" stroke-width=".5"/>
<path d="m23.1 20.85 0.85 1m-3.5-10.2 0.1 2 0.5 4.95m0.05-0.05 2 2.3" fill="none" stroke="#a18f87" stroke-linecap="round" stroke-linejoin="round" stroke-width=".5"/>
</g>
</defs>
</svg>
