<?xml version="1.0" encoding="UTF-8"?>
<svg width="64px" height="72px" version="1.1" viewBox="312.59 143.2 64.156 72.35" xmlns="http://www.w3.org/2000/svg" xmlns:xlink="http://www.w3.org/1999/xlink">
<defs>
<radialGradient id="v" cx="0" cy="0" r="819.2" gradientTransform="matrix(.017197 .002121 -.002121 .017197 362.55 173.5)" gradientUnits="userSpaceOnUse">
<stop stop-color="#828282" offset="0"/>
<stop stop-color="#bcbcbc" offset=".98824"/>
</radialGradient>
<radialGradient id="k" cx="0" cy="0" r="819.2" gradientTransform="matrix(.032639 .0040283 -.0040283 .032639 344.25 162.65)" gradientUnits="userSpaceOnUse">
<stop stop-color="#828282" offset="0"/>
<stop stop-color="#bcbcbc" offset=".98824"/>
</radialGradient>
<radialGradient id="h" cx="0" cy="0" r="819.2" gradientTransform="matrix(.017197 .002121 -.002121 .017197 334 151.35)" gradientUnits="userSpaceOnUse">
<stop stop-color="#828282" offset="0"/>
<stop stop-color="#bcbcbc" offset=".98824"/>
</radialGradient>
<radialGradient id="g" cx="0" cy="0" r="819.2" gradientTransform="matrix(-.008728 -.0021515 -.0061798 .011871 356.35 166.9)" gradientUnits="userSpaceOnUse">
<stop stop-color="#159971" offset="0"/>
<stop stop-color="#93fe92" offset=".60392"/>
<stop stop-color="#f2fff2" offset=".98824"/>
</radialGradient>
<radialGradient id="f" cx="0" cy="0" r="819.2" gradientTransform="matrix(-.0060272 -.0045471 .0046539 -.0061798 315.25 213.45)" gradientUnits="userSpaceOnUse">
<stop stop-color="#c57e4b" offset="0"/>
<stop stop-color="#412f18" offset=".52157"/>
</radialGradient>
<radialGradient id="e" cx="0" cy="0" r="819.2" gradientTransform="matrix(-.0020905 -.0015717 .0016174 -.0021515 321.95 203.05)" gradientUnits="userSpaceOnUse">
<stop stop-color="#412f18" offset="0"/>
<stop stop-color="#b98046" offset=".59608"/>
</radialGradient>
<radialGradient id="d" cx="0" cy="0" r="819.2" gradientTransform="matrix(-.014114 -.010651 .010925 -.014481 333.2 191.15)" gradientUnits="userSpaceOnUse">
<stop stop-color="#412f18" offset="0"/>
<stop stop-color="#b98046" offset=".59608"/>
</radialGradient>
<radialGradient id="c" cx="0" cy="0" r="819.2" gradientTransform="matrix(-.014236 -.010742 .011017 -.014603 331.4 189.6)" gradientUnits="userSpaceOnUse">
<stop stop-color="#412f18" offset="0"/>
<stop stop-color="#b98046" offset=".59608"/>
</radialGradient>
<radialGradient id="b" cx="0" cy="0" r="819.2" gradientTransform="matrix(-.0067902 -.005127 .0052643 -.0069733 348.05 171.35)" gradientUnits="userSpaceOnUse">
<stop stop-color="#412f18" offset="0"/>
<stop stop-color="#b98046" offset=".59608"/>
</radialGradient>
<radialGradient id="u" cx="0" cy="0" r="819.2" gradientTransform="matrix(-.0083771 -.0063171 .006485 -.0085907 343.2 176.85)" gradientUnits="userSpaceOnUse">
<stop stop-color="#412f18" offset="0"/>
<stop stop-color="#b98046" offset=".59608"/>
</radialGradient>
<radialGradient id="t" cx="0" cy="0" r="819.2" gradientTransform="matrix(-.0056915 -.004303 .0044098 -.0058441 340.3 183.9)" gradientUnits="userSpaceOnUse">
<stop stop-color="#412f18" offset="0"/>
<stop stop-color="#b98046" offset=".59608"/>
</radialGradient>
<radialGradient id="s" cx="0" cy="0" r="819.2" gradientTransform="matrix(-.0056305 -.0042419 .004364 -.0057831 337.25 181.85)" gradientUnits="userSpaceOnUse">
<stop stop-color="#412f18" offset="0"/>
<stop stop-color="#b98046" offset=".59608"/>
</radialGradient>
<radialGradient id="r" cx="0" cy="0" r="819.2" gradientTransform="matrix(-.0084229 -.0063477 .0065155 -.0086365 342.25 176.05)" gradientUnits="userSpaceOnUse">
<stop stop-color="#412f18" offset="0"/>
<stop stop-color="#b98046" offset=".59608"/>
</radialGradient>
<radialGradient id="q" cx="0" cy="0" r="819.2" gradientTransform="matrix(-.0066071 -.0049896 .0051117 -.0067749 346.3 170.4)" gradientUnits="userSpaceOnUse">
<stop stop-color="#412f18" offset="0"/>
<stop stop-color="#b98046" offset=".59608"/>
</radialGradient>
<radialGradient id="p" cx="0" cy="0" r="819.2" gradientTransform="matrix(-.0036469 -.0027466 .0028229 -.0037384 342.15 178.75)" gradientUnits="userSpaceOnUse">
<stop stop-color="#159971" offset="0"/>
<stop stop-color="#93fe92" offset=".60392"/>
<stop stop-color="#f2fff2" offset=".98824"/>
</radialGradient>
<g id="y">
<path d="m334.4 163.65 0.2-0.05-0.1 0.75-0.1-0.1v-0.6" fill="#828282"/>
<path d="m334.75 162.4-0.15 1.2-0.2 0.05-0.05-0.65 0.4-0.6" fill="#4f4f4f"/>
<path d="m334.75 162.4-0.4 0.6 0.05 0.65 0.2-0.05m-0.1 0.75-0.1-0.1v-0.6" fill="none" stroke="#000" stroke-opacity=".24314" stroke-width=".5"/>
<path d="m357.45 174.05 0.1-0.65 5.6-7.25 1.3-0.6 2.55-0.25 0.15 0.4-6.4 7.8-1.4 0.2-1.9 0.35m6.45-5.85-0.9 0.5 0.15 0.9-2.4 2.35-0.7 1.65 0.7-1.65 2.4-2.35-0.15-0.9 0.9-0.5m-1.15-0.75 0.2 0.6-0.2-0.6m-0.1 1.05 0.15 0.9-2.25 2.35-1.2 1.95 1.2-1.95 2.25-2.35-0.15-0.9-0.1-0.95 0.1 0.95 1.15-0.65-1.15 0.65" fill="#4f4f4f"/>
<path d="m367.15 165.7v0.05l1 0.05 5.6 4.8 0.15 0.15 2.85 2.4q-0.3 0.4-0.4 0.95l0.1 0.35-4.8 6.3-0.75 0.4-10.15-7.65 6.4-7.8m2.15 10.2 0.2-1.6 0.8-0.2 0.25-2.1-0.05-0.4 1.2-0.65 2.2-0.2-2.2 0.2-1.2 0.65 0.05 0.4-0.25 2.1-0.8 0.2-0.2 1.6m-0.05-3.85 2.4-1.3 2.1-0.15-2.1 0.15-2.4 1.3m1.05-0.35 0.2-0.1-1.2 0.6 1-0.5 0.05 0.4-0.35 1.85-1.25 0.4 1.25-0.4 0.35-1.85-0.05-0.4m-0.8 2.6-0.25 0.1-0.5-0.05 0.5 0.05 0.25-0.1m-0.4 1.65 0.15-1.55-0.15 1.55m-0.6-1.5 0.25-0.1-0.25 0.1" fill="url(#v)"/>
<path d="m370.9 181.15-0.2 0.25-3.6 0.15q-0.4-0.35-0.75-0.25l-8.95-6.9 0.05-0.35 1.9-0.35 1.4-0.2 10.15 7.65" fill="#424242"/>
<path d="m367.15 165.7v0.05l1 0.05 5.6 4.8 0.15 0.15 2.85 2.4q-0.3 0.4-0.4 0.95l0.1 0.35-4.8 6.3-0.75 0.4m-0.2 0.25-3.6 0.15q-0.4-0.35-0.75-0.25l-8.95-6.9m0.15-1 5.6-7.25 1.3-0.6 2.55-0.25 0.15 0.4-6.4 7.8 10.15 7.65m-10.15-7.65-1.4 0.2-1.9 0.35m16.45-3.3-2.2 0.2-1.2 0.65 0.05 0.4-0.25 2.1-0.8 0.2-0.2 1.6m1-4.2-1 0.5m1.2-0.6-0.2 0.1m-1.55 2.65 0.5 0.05 0.25-0.1" fill="none" stroke="#000" stroke-opacity=".24314" stroke-width=".5"/>
<path d="m362.55 167.55 0.1 0.95 1.15-0.65m-4.45 5.85 1.2-1.95 2.25-2.35-0.15-0.9" fill="none" stroke="#303030" stroke-width=".5"/>
<path d="m362.95 168.05-0.2-0.6m-2.7 6.15 0.7-1.65 2.4-2.35-0.15-0.9 0.9-0.5" fill="none" stroke="#828282" stroke-width=".5"/>
<path d="m373.75 170.6-2.1 0.15-2.4 1.3m1.05-0.35 0.05 0.4-0.35 1.85-1.25 0.4-0.25 0.1m0.75-0.05-0.15 1.55" fill="none" stroke="#d7d7d7" stroke-width=".5"/>
<path d="m339.95 164.7 17.6 13.85-4.75-0.6q-0.85-0.65-1.35-0.6l-16.95-13 0.1-0.75 3 0.4 1.15 0.15 1.2 0.55" fill="#424242"/>
<path d="m334.75 162.4 10.6-13.7q1.35-0.35 2.45-1.1l4.85-0.5 0.25 0.7-12.95 16.9-1.2-0.55-1.15-0.15-3-0.4 0.15-1.2m9.75-11.2 0.45 1.1-0.45-1.1m-0.05 1.95 0.2 1.75-4.3 4.4-2.75 4.7 2.75-4.7 4.3-4.4-0.2-1.75-0.3-1.75 0.3 1.75 2.1-1.15-2.1 1.15m2.2-0.6-1.6 0.95 0.3 1.75-4.55 4.5-2.05 4.4 2.05-4.4 4.55-4.5-0.3-1.75 1.6-0.95" fill="#6a6a6a"/>
<path d="m352.9 147.8 0.05 0.1 1.8 0.2 10.6 9.05 0.45 0.3 5.35 4.6q-0.55 0.7-0.8 1.7l0.25 0.7-9.2 11.95q-0.75 0.25-2.35 1.25l-0.2 0.05-0.2 0.2-0.1 0.05-1 0.6-17.6-13.85 12.95-16.9m3.95 12 4.5-2.35 4-0.3-4 0.3-4.5 2.35m2-0.6 0.45-0.2 2.25-1.2 4.25-0.35-4.25 0.35-2.25 1.2 0.05 0.75-0.5 4-1.4 0.45-0.4 3.05 0.4-3.05 1.4-0.45 0.5-4-0.05-0.75-0.45 0.2 0.1 0.8-0.55 3.5-2.95 0.95 2.95-0.95 0.55-3.5-0.1-0.8-1.85 0.95 1.85-0.95m-2.85 5.4 1.45-0.4-1.45 0.4m0.65 2.7 0.35-2.7-0.35 2.7" fill="url(#k)"/>
<path d="m352.9 147.8 0.05 0.1 1.8 0.2 10.6 9.05 0.45 0.3 5.35 4.6q-0.55 0.7-0.8 1.7l0.25 0.7-9.2 11.95q-0.75 0.25-2.35 1.25l0.5-0.05m-24.8-15.2 10.6-13.7q1.35-0.35 2.45-1.1l4.85-0.5 0.25 0.7-12.95 16.9 17.6 13.85 1-0.6 0.1-0.05 0.2-0.2 0.2-0.05-0.4 0.25m7.15-20.45-4.25 0.35-2.25 1.2 0.05 0.75-0.5 4-1.4 0.45-0.4 3.05m2.25-8.25-0.45 0.2-1.85 0.95m0.45 4.05-1.45 0.4m1.55 13.95-4.75-0.6q-0.85-0.65-1.35-0.6l-16.95-13m5.45 0.35-1.2-0.55-1.15-0.15-3-0.4" fill="none" stroke="#000" stroke-opacity=".24314" stroke-width=".5"/>
<path d="m344.15 151.4 0.3 1.75 2.1-1.15m-8.95 12 2.75-4.7 4.3-4.4-0.2-1.75" fill="none" stroke="#303030" stroke-width=".5"/>
<path d="m344.95 152.3-0.45-1.1m-5.75 12.95 2.05-4.4 4.55-4.5-0.3-1.75 1.6-0.95" fill="none" stroke="#828282" stroke-width=".5"/>
<path d="m365.35 157.15-4 0.3-4.5 2.35m2-0.6 0.1 0.8-0.55 3.5-2.95 0.95m1.55 0.15-0.35 2.7" fill="none" stroke="#d7d7d7" stroke-width=".5"/>
<path d="m338.6 143.55 0.05 0.1 0.95 0.05 5.6 4.8 0.2 0.15 2.85 2.45-0.45 0.9 0.1 0.35-4.8 6.3q-0.4 0.1-0.75 0.4l-10.15-7.65 6.4-7.85m2.1 6.4 2.4-1.3 2.1-0.15-2.1 0.15-2.4 1.3m-0.5 2.3 1.3-0.4 0.3-1.85-0.05-0.45 0.05 0.45-0.3 1.85-1.3 0.4 0.5 0.05 0.25-0.1 0.8-0.2 0.25-2.15-0.05-0.4-0.2 0.1-0.95 0.5 0.95-0.5 0.2-0.1 0.05 0.4-0.25 2.15-0.8 0.2-0.25 0.1-0.5-0.05-0.25 0.1 0.25-0.1m1.75-2.8 1.2-0.6 2.25-0.2-2.25 0.2-1.2 0.6m-1.35 4.4 0.1-1.55-0.1 1.55m0.15-0.05 0.2-1.6-0.2 1.6" fill="url(#h)"/>
<path d="m329 151.9 0.05-0.65 5.55-7.2 1.35-0.6 2.55-0.25 0.1 0.35-6.4 7.85-0.7 0.1-0.65 0.1-1.85 0.3m5-6.45 0.15 0.95 0.1 0.95-2.25 2.3-1.15 1.95 1.15-1.95 2.25-2.3-0.1-0.95-0.15-0.95m1.35 0.65-0.9 0.5 0.15 0.9-2.35 2.35-0.75 1.65 0.75-1.65 2.35-2.35-0.15-0.9 0.9-0.5m-0.1-0.35-1.1 0.65 1.1-0.65m-1.05-0.4 0.25 0.55-0.25-0.55" fill="#6a6a6a"/>
<path d="m342.35 159.05-0.2 0.2-3.6 0.15-0.7-0.2-8.9-6.9 0.05-0.4 1.85-0.3 0.65-0.1 0.7-0.1 10.15 7.65" fill="#424242"/>
<path d="m338.6 143.55 0.05 0.1 0.95 0.05 5.6 4.8 0.2 0.15 2.85 2.45-0.45 0.9 0.1 0.35-4.8 6.3q-0.4 0.1-0.75 0.4m-0.2 0.2-3.6 0.15-0.7-0.2-8.9-6.9m0.1-1.05 5.55-7.2 1.35-0.6 2.55-0.25 0.1 0.35-6.4 7.85 10.15 7.65m-2.15-6.8 0.5 0.05 0.25-0.1 0.8-0.2 0.25-2.15-0.05-0.4-0.2 0.1-0.95 0.5m4.6-1.4-2.25 0.2-1.2 0.6m-1 2.75-0.2 1.6m-8.55-2.4-0.7 0.1-0.65 0.1-1.85 0.3" fill="none" stroke="#000" stroke-opacity=".24314" stroke-width=".5"/>
<path d="m330.85 151.6 1.15-1.95 2.25-2.3-0.1-0.95-0.15-0.95m0.15 0.95 1.1-0.65" fill="none" stroke="#303030" stroke-width=".5"/>
<path d="m331.5 151.5 0.75-1.65 2.35-2.35-0.15-0.9 0.9-0.5m-0.9-0.2-0.25-0.55" fill="none" stroke="#828282" stroke-width=".5"/>
<path d="m345.2 148.5-2.1 0.15-2.4 1.3m1.05-0.4 0.05 0.45-0.3 1.85-1.3 0.4-0.25 0.1m0.75-0.05-0.1 1.55" fill="none" stroke="#d7d7d7" stroke-width=".5"/>
<path d="m361 163.6q1.3-2.55 0.9-4.7-0.35-2.2-2.3-2.6-1.8-0.55-4.15 1-2.3 1.5-3.6 4.05-1.35 2.55-0.95 4.75 0.4 2.1 2.25 2.6 1.9 0.45 4.2-1 2.3-1.55 3.65-4.1" fill="#003c00"/>
<path d="m356.65 166.95 0.7-0.4 0.9-0.65 0.6-0.6 1.35-1.9q0.75-1.5 0.8-2.75l-0.05-1q-0.3-1.6-1.7-2.05h-0.1-0.05l-0.65-0.05-1.1 0.15q-1.2 1.1-1.65 2.15l-0.5 1.2-0.4 1q-0.3 0.75-0.45 1.7t0.5 1.85q0.6 1 1.8 1.35m2.3-8.05q0.3 0.1 0.25 1.05l-0.05 0.2-0.45 0.5q-1.35 0.15-0.9-1.3l0.4-0.6q0.5-0.2 0.75 0.15m-0.05 3.7-0.05 0.05q-0.15 0.95-1 1.95-1.3 1.5-2.25 0.7-0.6-0.55-0.15-1.5 0.3-0.15 0.45 0.15l0.45 0.35 0.45-0.2q0.7-0.8 0.5-1.6v-0.1l1.45-0.05 0.15 0.2v0.05l0.05-0.5 0.05 0.75-0.1-0.25" fill="url(#g)"/>
<path d="m357.35 157.7-0.35 0.15q-0.55 0.2-1.15 0.55-1.15 0.75-1.95 1.8l-0.9 1.4q-0.55 1.05-0.75 2.1l-0.1 1.05 0.1 0.35v0.2q0.05 0.45 0.25 0.75v0.15l0.55 0.65 0.1 0.1 0.3 0.2 0.55 0.25h0.05q1.2 0.25 2.6-0.45-1.2-0.35-1.8-1.35-0.65-0.9-0.5-1.85t0.45-1.7l0.4-1 0.5-1.2q0.45-1.05 1.65-2.15" fill="#159971"/>
<path d="m358.95 158.9q-0.25-0.35-0.75-0.15l-0.4 0.6q-0.45 1.45 0.9 1.3l0.45-0.5 0.05-0.2q0.05-0.95-0.25-1.05m-0.05 3.7v-0.05l-0.15-0.2-1.45 0.05v0.1q0.2 0.8-0.5 1.6l-0.45 0.2-0.45-0.35q-0.15-0.3-0.45-0.15-0.45 0.95 0.15 1.5 0.95 0.8 2.25-0.7 0.85-1 1-1.95l0.05-0.05" fill="#fff"/>
<path d="m358.9 162.6 0.1 0.25-0.05-0.75-0.05 0.5" fill="#7ceb8c"/>
<path d="m356.65 166.95 0.7-0.4 0.9-0.65 0.6-0.6 1.35-1.9q0.75-1.5 0.8-2.75l-0.05-1q-0.3-1.6-1.7-2.05h-0.1-0.05l-0.65-0.05-1.1 0.15-0.35 0.15q-0.55 0.2-1.15 0.55-1.15 0.75-1.95 1.8l-0.9 1.4q-0.55 1.05-0.75 2.1l-0.1 1.05 0.1 0.35v0.2q0.05 0.45 0.25 0.75v0.15l0.55 0.65 0.1 0.1 0.3 0.2 0.55 0.25h0.05q1.2 0.25 2.6-0.45" fill="none" stroke="#000" stroke-opacity=".24314" stroke-width=".5"/>
<path d="m359.05 155.3-2.85 1-2.45 2-1.55 2.15-1.2 2.6-0.3 2.25 0.9 2.65" fill="none" stroke="#4f4f4f" stroke-width=".5"/>
<path d="m355.6 169.35 3.65-2.55 2.8-3.6 1.4-2.95-1.55-2.65" fill="none" stroke="#d7d7d7" stroke-width=".5"/>
<path d="m314.15 206.65 1.85-2.2 3.15 0.25-2 2.65-3-0.7" fill="#c57e4b"/>
<path d="m319.15 204.7-3.15-0.25-1.85 2.2-1.45-3.15 5.25-1 1.2 2.2m10.7-16.2 1.35-0.65 0.1 0.95-1.45-0.3m1.05-2.45 1.9-0.3 1.85-0.3 0.8 0.65 1 0.75 0.1 1 0.15 0.85 0.2 1.85-6-4.5m7.9-11.2 2.1-0.15 0.25-0.05-0.25 0.05 0.5-0.4 4.8-3.4 0.45 0.35 0.45 0.3-2 5.7-0.15 0.5 0.35 2.05-1.85-4.35-4.65-0.6m3.15-4.9 2.2-0.6 0.75 0.55-2.95 0.05m6.5 2.6 0.7 0.55v2.3l-0.7-2.85m-13.35 18.25-0.25 1.5-0.7-1.35 0.95-0.15m9.8-13.3 0.05 0.25-0.05-0.25m-1.45-2.05 3.2-4.2-3.2 4.2" fill="#412f18"/>
<path d="m322.55 202.4 0.35-0.5 0.5 0.35 0.45 0.35-0.35 0.5-0.35-0.5-0.6-0.2" fill="#523a1e"/>
<path d="m331.2 187.85-0.3-1.8 6 4.5-1.8 0.25-0.95 0.15-0.95 0.2-1.8-1.4-0.2-1.9" fill="#b98046"/>
<path d="m313.7 209.45q0.65-0.8 1.5-1.25l1-0.35q1.5-0.35 2.6 0.5 1.15 0.85 1.25 2.4l-0.1 1.05q-0.15 0.95-0.8 1.75-1 1.35-2.5 1.65-1.5 0.35-2.65-0.5-1.1-0.85-1.2-2.4-0.1-1.5 0.9-2.85" fill="url(#f)"/>
<path d="m323.5 203.1 0.15 0.4q0.05 0.55-0.3 1l-0.85 0.5-1-0.2q-0.45-0.35-0.5-0.9-0.1-0.55 0.25-1t0.9-0.5l0.4-0.05v0.05l0.6 0.2 0.35 0.5" fill="url(#e)"/>
<path d="m334.85 192.3-2.95 1.1-4.5 8.95-1.55 0.3-1.5 0.3-0.5-0.35-0.45-0.35 8.9-11.8 0.9 0.7 0.95-0.2 0.7 1.35m-10.45 10.05 2.5-0.7 4.05-8.15-4.05 8.15-2.5 0.7" fill="url(#d)"/>
<path d="m322.9 201.9-0.45-0.4-0.25-3.05 7.4-6.8 0.25-3.15 1.45 0.3 0.1 0.95 0.9 0.7-8.9 11.8-0.5-0.35m6.7-9.5-6.75 6.55 0.25 2.1-0.25-2.1 6.75-6.55" fill="url(#c)"/>
<path d="m347.1 171.55 1.35 1 0.7 2.85-4.2 2.35 0.15-0.5 2-5.7m1.5 3.75-3.5 1.95 3.5-1.95" fill="url(#b)"/>
<path d="m345.3 179.8-2.05 2.75-2.2 0.35-3.65 0.6 6.05-8.05 1.85 4.35m-0.4-0.1-1.9 2.5-4.95 0.85 4.95-0.85 1.9-2.5" fill="url(#u)"/>
<path d="m341.05 182.9-4.35 5.8-0.15-0.85-0.1-1-1-0.75 1.95-2.6 3.65-0.6m-1.25 0.65-3.25 4.3 3.25-4.3" fill="url(#t)"/>
<path d="m332.8 185.75 4.2-5.6 0.4 3.35-1.95 2.6-0.8-0.65-1.85 0.3m0.7-0.35 3.25-4.3-3.25 4.3" fill="url(#s)"/>
<path d="m337 180.15-0.25-2.55 2.05-2.75 4.65 0.6-6.05 8.05-0.4-3.35m2.05-4.95-1.9 2.5 0.55 5-0.55-5 1.9-2.5" fill="url(#r)"/>
<path d="m340.9 174.7 1.05-4.75 2.95-0.05 1.3 1-4.8 3.4-0.5 0.4m1.35-4.35-0.85 3.95 0.85-3.95" fill="url(#q)"/>
<path d="m313.7 209.45q0.65-0.8 1.5-1.25l1-0.35q1.5-0.35 2.6 0.5 1.15 0.85 1.25 2.4l-0.1 1.05q-0.15 0.95-0.8 1.75-1 1.35-2.5 1.65-1.5 0.35-2.65-0.5-1.1-0.85-1.2-2.4-0.1-1.5 0.9-2.85m5.45-4.75-3.15-0.25-1.85 2.2 3 0.7 2-2.65-1.2-2.2-5.25 1 1.45 3.15m9.35-3.55 0.15 0.4q0.05 0.55-0.3 1l-0.85 0.5-1-0.2q-0.45-0.35-0.5-0.9-0.1-0.55 0.25-1t0.9-0.5l0.4-0.05v0.05l0.35-0.5-0.45-0.4-0.25-3.05 7.4-6.8 0.25-3.15 1.35-0.65-0.3-1.8 1.9-0.3 4.2-5.6-0.25-2.55 2.05-2.75 2.1-0.15 1.05-4.75 2.2-0.6m5 3.75v2.3l-4.2 2.35 0.35 2.05-2.05 2.75-2.2 0.35-4.35 5.8 0.2 1.85-1.8 0.25-0.25 1.5-2.95 1.1m-6.05 9.25-1.5 0.3-0.5-0.35-0.35 0.5-0.35-0.5-0.6-0.2m0.35-0.5 0.5 0.35 8.9-11.8-0.9-0.7-0.1-0.95-1.45-0.3m-6 14.1-0.45-0.35m10.75-11.3 0.7 1.35m0.25-1.5-0.95 0.15-0.95 0.2-0.9-0.7m-1.1-2.6 0.1 0.95m5.6 1.75-6-4.5m4.55 0.05-0.8-0.65-1.85 0.3m2.65 0.35 1 0.75 0.1 1m0.45-7.7 0.4 3.35 6.05-8.05-4.65-0.6m-2.1 13.85-0.15-0.85m11.9-15.3 0.7 2.85m-4.2 2.35 0.15-0.5 2-5.7m-2.15 6.2-0.05-0.25m-4-2.8 0.25-0.05m-0.25 0.05 0.5-0.4 4.8-3.4m-1.3-1-2.95 0.05m4.7 1.3-3.2 4.2 1.85 4.35m-4.25 3.1-3.65 0.6" fill="none" stroke="#000" stroke-opacity=".25098" stroke-width=".5"/>
<path d="m323.1 201.05-0.25-2.1 6.75-6.55m1.35 1.1-4.05 8.15-2.5 0.7m12.15-14.5 3.25-4.3m-2.1-0.85-0.55-5 1.9-2.5m-2.3 5.9-3.25 4.3m4.55-2.35 4.95-0.85 1.9-2.5m0.2-2.45 3.5-1.95m-7.2-1 0.85-3.95" fill="none" stroke="#e1cbb5" stroke-width=".5"/>
<path d="m326.2 194.2 3.45-4.6 3.1 2.35-3.45 4.6-3.1-2.35" fill="#52351b"/>
<path d="m326.2 194.2 3.45-4.6 3.1 2.35-3.45 4.6-3.1-2.35" fill="none" stroke="#000" stroke-opacity=".25098" stroke-width=".5"/>
<path d="m322.5 200.45 2.55-3.4 3.1 2.35-2.55 3.4-3.1-2.35" fill="#52351b"/>
<path d="m322.5 200.45 2.55-3.4 3.1 2.35-2.55 3.4-3.1-2.35" fill="none" stroke="#000" stroke-opacity=".25098" stroke-width=".5"/>
<path d="m342.35 180.85q-0.6 0.8-1.55 0.9-1.05 0.2-1.8-0.4-0.8-0.6-0.9-1.65-0.2-0.95 0.4-1.75 0.65-0.8 1.65-1 1-0.15 1.8 0.45 0.75 0.6 0.9 1.6 0.15 1.05-0.5 1.85" fill="#003c00"/>
<path d="m342.25 178.85 0.05 0.3 0.05 0.45-0.4 1-0.85 0.65-0.4 0.05q-0.75 0.15-1.4-0.3v-0.05h-0.05l-0.25-0.2-0.25-0.4q0.05-0.55 0.35-0.85l0.3-0.35 0.25-0.25 0.6-0.4 0.9-0.05q0.6 0.05 1.1 0.4m-2.55 1.9h0.5l0.1-0.1 0.05-0.2q-0.35-0.5-0.8-0.15l-0.1 0.25 0.25 0.2m1.5-0.5 0.5-0.6q0.2-0.7-0.45-0.95-0.45-0.1-0.65 0.2l0.2 0.1 0.3 0.1 0.05 0.2-0.5 0.4h-0.05q0 0.45 0.45 0.5h0.15v0.05l-0.15 0.05 0.3-0.05h-0.15" fill="url(#p)"/>
<path d="m338.75 180.35-0.1-0.15-0.1-0.5 0.1-0.85 0.3-0.5 0.55-0.55 0.4-0.2h0.15l0.1-0.05h0.4 0.1l0.4 0.05 0.05 0.05 0.2 0.05 0.25 0.2h0.05q0.5 0.4 0.65 0.95-0.5-0.35-1.1-0.4l-0.9 0.05-0.6 0.4-0.25 0.25-0.3 0.35q-0.3 0.3-0.35 0.85" fill="#159971"/>
<path d="m339.7 180.75-0.25-0.2 0.1-0.25q0.45-0.35 0.8 0.15l-0.05 0.2-0.1 0.1h-0.5m1.5-0.5v-0.05h-0.15q-0.45-0.05-0.45-0.5h0.05l0.5-0.4-0.05-0.2-0.3-0.1-0.2-0.1q0.2-0.3 0.65-0.2 0.65 0.25 0.45 0.95l-0.5 0.6" fill="#fff"/>
<path d="m341.2 180.25h0.15l-0.3 0.05 0.15-0.05" fill="#7ceb8c"/>
<path d="m342.25 178.85 0.05 0.3 0.05 0.45-0.4 1-0.85 0.65-0.4 0.05q-0.75 0.15-1.4-0.3v-0.05h-0.05l-0.25-0.2-0.25-0.4-0.1-0.15-0.1-0.5 0.1-0.85 0.3-0.5 0.55-0.55 0.4-0.2h0.15l0.1-0.05h0.4 0.1l0.4 0.05 0.05 0.05 0.2 0.05 0.25 0.2h0.05q0.5 0.4 0.65 0.95" fill="none" stroke="#000" stroke-opacity=".24314" stroke-width=".5"/>
</g>
<radialGradient id="o" cx="0" cy="0" r="819.2" gradientTransform="matrix(.04187 0 0 .04187 15.75 -2.05)" gradientUnits="userSpaceOnUse">
<stop stop-color="#52351b" offset="0"/>
<stop stop-color="#9b6b33" offset="1"/>
</radialGradient>
<radialGradient id="n" cx="0" cy="0" r="819.2" gradientTransform="matrix(.0093994 0 0 .0093994 -4.75 -18.65)" gradientUnits="userSpaceOnUse">
<stop stop-color="#fff" offset="0"/>
<stop stop-color="#9b6b33" offset="1"/>
</radialGradient>
<radialGradient id="m" cx="0" cy="0" r="819.2" gradientTransform="matrix(.035828 0 0 .035828 -6.1 -15.95)" gradientUnits="userSpaceOnUse">
<stop stop-color="#fff" offset="0"/>
<stop stop-color="#9b6b33" offset="1"/>
</radialGradient>
<radialGradient id="l" cx="0" cy="0" r="819.2" gradientTransform="matrix(.012131 0 0 .012131 -9.5 -4.25)" gradientUnits="userSpaceOnUse">
<stop stop-color="#ffdc66" offset="0"/>
<stop stop-color="#a22626" offset="1"/>
</radialGradient>
<g id="a">
<path d="m5.75-21.15 1.55 4.85-2.35 6.65-3.5 3.8 4.3-11.35v-3.95" fill="#6c4b24"/>
<path d="m-11.2 4.95h1.4l-3.6 3.6 2.2-3.6" fill="#23230c"/>
<path d="m17.2 0.85v1l-5.05 5.05v15.95l-2.25-7.9-7.5-8.45-2.35 2.15h-4.55l-3.9 9.2 0.15-8.5-6.7 3.1h-2.2l0.3-1.1h1l6.5-3.25 4.95-5.75-3.75-1.95 4.05-1.9h7.25l6.3-4.15 2.75 3.4 5 3.1m-19.9 3.55-5.55 4.95 5.55-4.95h2.9-2.9l-1.8 4.25 1.8-4.25" fill="#52351b"/>
<path d="m2.8-22.15-0.8-0.25 0.8 0.25" fill="#fff"/>
<path d="m2-22.4 0.8 0.25 1 0.35 1.95 0.65v3.95l-4.3 11.35 3.5-3.8h6.6q0.45 1 1.3 1.85 1.75 1.75 4.35 1.8v6.85l-5-3.1-2.75-3.4-6.3 4.15h-7.25l-4.05 1.9 3.75 1.95-4.95 5.75-6.5 3.25 3.05-11.25-1.15-2.95 3.45-5.25-3.25 2.4 2.65-6.85 5-3.4 0.05 0.1q0.6 0 1-0.35l0.35-0.45 0.35-0.75 6.35-5m-0.95 8.05-0.55-1 0.55 1m-0.55-1h-1.45l-1.05-0.85h-3.05 3.05l1.05 0.85h1.45m0.15-0.5h-1.15l-0.95-0.8h-3.25 3.25l0.95 0.8h1.15m-2.25 5.55-6.15 2.05-3.05 2.4v6.75q3.25-6.65 9.2-11.2m-9.6 15.25-2.2 3.6 3.6-3.6h-1.4m11.25-19.45-1-0.85 1 0.85" fill="url(#o)"/>
<path d="m-4.75-18.65 5.5-4.2 1.25 0.45-6.35 5-0.4-1.25" fill="url(#n)"/>
<path d="m-16.85 11.35 2.75-10.7-1.65-3.65 0.1-0.2 3.05-9.5 5.65-4.3 0.85 1.05-5 3.4-2.65 6.85 3.25-2.4-3.45 5.25 1.15 2.95-3.05 11.25h-1" fill="url(#m)"/>
<path d="m-1.6-10.3q-5.95 4.55-9.2 11.2v-6.75l3.05-2.4 6.15-2.05" fill="url(#l)"/>
<path d="m-4.75-18.65 0.4 1.25m-2.6 0.4 0.85 1.05 0.05 0.1q0.6 0 1-0.35l0.35-0.45 0.35-0.75m-0.7 1.2h3.05l1.05 0.85h1.45m-1.45 0 1 0.85" fill="none" stroke="#a48c66" stroke-width=".5"/>
<path d="m0.5-15.35 0.55 1m-5.75-2.3h3.25l0.95 0.8h1.15" fill="none" stroke="#dcb996" stroke-width=".5"/>
<path d="m2.8-22.15-0.8-0.25-1.25-0.45-5.5 4.2m8.55-3.15 1.95 0.65 1.55 4.85-2.35 6.65h6.6m5.65 3.65v6.85 1l-5.05 5.05v15.95l-2.25-7.9-7.5-8.45-2.35 2.15h-4.55l-3.9 9.2 0.15-8.5-6.7 3.1h-2.2l0.3-1.1 2.75-10.7-1.65-3.65 0.1-0.2 3.05-9.5 5.65-4.3m5.35 6.7q-5.95 4.55-9.2 11.2v-6.75l3.05-2.4 6.15-2.05m1.8 14.7h-2.9l-1.8 4.25m-3.75 0.7 5.55-4.95m-8.5 0.55h1.4l-3.6 3.6 2.2-3.6" fill="none" stroke="#000" stroke-opacity=".25098" stroke-width=".5"/>
<path d="m11.55-9.65q0.45 1 1.3 1.85 1.75 1.75 4.35 1.8" fill="none" stroke="#000" stroke-opacity=".25098" stroke-width=".5"/>
</g>
<radialGradient id="j" cx="0" cy="0" r="819.2" gradientTransform="matrix(-.0041199 -.0010223 -.0029144 .0056152 326.55 199.9)" gradientUnits="userSpaceOnUse">
<stop stop-color="#159971" offset="0"/>
<stop stop-color="#93fe92" offset=".60392"/>
<stop stop-color="#f2fff2" offset=".98824"/>
</radialGradient>
<g id="x">
<path d="m315.15 206.95 2.45-0.95 0.35-1.95-3.1-0.6-2.2 0.1 0.6-0.5 3.95-0.6 4.2 0.3 2.05 2.05-0.7 2.8-3.6 1.4-3.9-0.25-1.6-1.25 0.45-0.15 1.05-0.4m4.2-0.7 0.15 1 2.5-1.25-2.65 0.25" fill="#b98046"/>
<path d="m313.25 203.05 1.25-1 2.2-1.05 3.8 0.15 1.4-0.25 2.8 2.1-0.1 2.2-1.85 2.4 0.7-2.8-2.05-2.05-4.2-0.3-3.95 0.6m0.85 4.3-0.2-2.35 1.25 1.95-1.05 0.4" fill="#412f18"/>
<path d="m319.35 206.25 2.65-0.25-2.5 1.25-0.15-1" fill="#fad463"/>
<path d="m315.15 206.95 2.45-0.95 0.35-1.95-3.1-0.6-2.2 0.1 0.6-0.5 1.25-1 2.2-1.05 3.8 0.15 1.4-0.25 2.8 2.1-0.1 2.2-1.85 2.4-3.6 1.4-3.9-0.25-1.6-1.25 0.45-0.15-0.2-2.35 1.25 1.95-1.05 0.4m8.65 0.25 0.7-2.8-2.05-2.05-4.2-0.3-3.95 0.6m6.1 3.2 2.65-0.25-2.5 1.25-0.15-1" fill="none" stroke="#000" stroke-opacity=".25098" stroke-width=".5"/>
<path d="m316.55 211.2-0.2-0.45 0.2-0.45v0.9" fill="#f2c35d"/>
<path d="m316.55 210.3v-0.4l0.7-0.95 0.6 0.05 0.5-1.05 1.5 0.2 1.5 3.15-0.3 1.2-0.7 1.2-0.8 0.85-1.85 0.2-0.4-0.25 0.6-0.75-0.4-0.3-1-1.75 0.05-0.5v-0.9m1.75-1.3 0.4 0.1 1.5 1.6-0.9-2.1-0.75-0.05-0.25 0.45h-0.45 0.45m4.4-1.45-2.05-0.45-2.7 0.15-1.3 0.5-2.15 2.85 0.15-2.3 0.65-0.9 1.05-0.9 1.95-0.55 3.1 0.5 0.25 0.15 1.05 0.95m-4.6-2.9-0.35-1.85 0.7-0.5 2-0.3 4.2 0.5 2.25 1.75-2.6-0.6-4.35-0.25-0.9 1.2-0.65-0.05-0.3 0.1m0.25 9.45-0.45-0.35 0.45 0.35m18.3-23.4-1 0.8-1.25 0.25-4.25-0.3-0.35 0.3-0.7 0.1-0.15-1 1.55-0.7 3.7 0.55h2.45m3.35-4.5-0.05 0.3-1.1 0.75h-2.8l-2.05-0.15-0.05-0.05 0.45-0.65 3.05-1.45 2.8 0.4-0.25 0.85" fill="#c57e4b"/>
<path d="m318.3 209 0.25-0.45 0.75 0.05 0.9 2.1-1.5-1.6-0.4-0.1" fill="#002b00"/>
<path d="m314.65 208.3v-0.2l0.6-1.7 0.75-1 2.1-0.75 0.3-0.1 0.65 0.05 2.55 0.05 2.65 1.15 0.05 1.3-0.35 1.05-0.9 0.55-0.95 0.5-0.6-0.1 1.25-1.5-0.05-0.05-1.05-0.95-0.1-0.1-0.15-0.05-3.1-0.5-1.95 0.55-1.05 0.9-0.65 0.9m3.1-5.5-0.1-0.5 0.25-0.95 0.95-0.95 0.65-0.5 1.2-0.3 4.3 1.65h1.75l1.4-0.5 0.1-0.15 0.6 0.9v0.1l0.1 0.9-0.65 0.8-1.4 0.95-2.25-1.75-4.2-0.5-2 0.3-0.7 0.5m18.9-12.1h-2.45l-3.7-0.55-1.55 0.7 0.15 1-1.8 1.7-0.05-2-0.3-0.25 0.45-1.1 1.2-1.05 1.6-0.2 2 0.15v0.05l0.2-0.1-0.05 0.05v0.05l2.55 0.25 0.45-0.55 0.25-0.7 0.3-0.1 0.65 0.5 0.3 1.15-0.2 1m-4.3-1.55h-0.15 0.15m0.6-3.6q-0.55 0.15-1 0.4l0.2-1.95 1.9-0.65-1.1 2.2 1.1-2.2 1.05 0.8 2.05-0.85q2.1 0.05 2.9 0.55l0.95-1-0.5 1.75-0.25 0.75-2.8-0.4-1.35 0.55-1.7 0.9-0.45 0.65-0.2 0.2-0.7-1.45-0.1-0.25m7.1-1.7q0.45 0.25 0.45 0.75 0-0.5-0.45-0.75" fill="#5b371e"/>
<path d="m321.65 206.6-0.25-0.15 0.15 0.05 0.1 0.1m12.35-19.5-0.25 0.2v-0.05l0.2-0.2 0.05 0.05m0.4-0.7 1.7-0.9 1.35-0.55-3.05 1.45" fill="#744e26"/>
<path d="m323.1 199.1-0.45-0.7-0.1-0.9 0.15-0.55 0.3-0.45 0.15 0.75 1.15 0.3-1.2 1.55" fill="#322010"/>
<path d="m316.55 210.3v-0.4l0.7-0.95 0.6 0.05 0.5-1.05 1.5 0.2 1.5 3.15-0.3 1.2-0.7 1.2-0.8 0.85-1.85 0.2-0.4-0.25 0.6-0.75-0.4-0.3-1-1.75 0.05-0.5-0.2-0.45 0.2-0.45v0.9m1.75-2.2 0.4 0.1 1.5 1.6-0.9-2.1-0.75-0.05-0.25 0.45h-0.45m4.85-1.45-2.05-0.45-2.7 0.15-1.3 0.5-2.15 2.85 0.15-2.3v-0.2l0.6-1.7 0.75-1 2.1-0.75-0.35-1.85-0.1-0.5 0.25-0.95 0.95-0.95 0.65-0.5 1.2-0.3 4.3 1.65h1.75l1.4-0.5 0.1-0.15 0.6 0.9v0.1l0.1 0.9-0.65 0.8-1.4 0.95-2.6-0.6-4.35-0.25-0.9 1.2 2.55 0.05 2.65 1.15 0.05 1.3-0.35 1.05-0.9 0.55-0.95 0.5-0.6-0.1 1.25-1.5-0.05-0.05m-4.8 6.2 0.45 0.35m-0.25-9.45 0.3-0.1 0.65 0.05m10.05-12.75 0.7-0.1 0.35-0.3 4.25 0.3 1.25-0.25 1-0.8m-7.55 1.15-1.8 1.7-0.05-2-0.3-0.25 0.45-1.1 1.2-1.05 1.6-0.2 2 0.15m0.2-0.05-0.05 0.05v0.05l2.55 0.25 0.45-0.55 0.25-0.7 0.3-0.1-0.5-0.35m-3.2 1.45h0.15m0.6-3.6 1.1-2.2 1.05 0.8 2.05-0.85q2.1 0.05 2.9 0.55m-0.1 2.65-1.1 0.75h-2.8l-2.05-0.15-0.25 0.2m6.5-1.95 0.05-0.15m-2.65-2.6-0.1-1.2m2.5-0.35v-0.05 0.05m-4.15 7 0.65 0.5 0.3 1.15-0.2 1m3.35-4.5 0.25-0.85m0.25-0.75q0-0.5-0.45-0.75" fill="none" stroke="#000" stroke-opacity=".25098" stroke-width=".5"/>
<path d="m323.1 199.1-0.45-0.7-0.1-0.9 0.15-0.55 0.3-0.45 0.15 0.75 1.15 0.3-1.2 1.55" fill="none" stroke="#000" stroke-width=".5"/>
<path d="m334.05 183.35-1.9 0.65-0.2 1.95q0.45-0.25 1-0.4m7.1-1.7 0.95-1-0.5 1.75-0.2 0.6-0.3 1-0.05 0.3" fill="none" stroke="#000" stroke-opacity=".25098" stroke-width=".5"/>
<path d="m321.7 206.55 0.1 0.1-0.1 0.05-0.1-0.1q0-0.1 0.1-0.05" fill="#c8915b"/>
<path d="m317.25 206.55-0.2-0.2 0.2-0.15 0.15 0.2-0.15 0.15m0.8-0.15q-0.25-0.05-0.15-0.3l0.2-0.2 0.15 0.2 0.15-0.05 0.2 0.2-0.2 0.1-0.15-0.1-0.2 0.15m-0.45-0.3 0.15 0.15-0.15 0.1-0.15-0.15q0-0.15 0.15-0.1m-1.95 1.6-0.15 0.15-0.2-0.2q0.05-0.15 0.2-0.1l0.15 0.15m0.35-0.35-0.2 0.15-0.2-0.2 0.25-0.15 0.15 0.2m0.45-0.5-0.2 0.15-0.05 0.05-0.15 0.1-0.2-0.2 0.2-0.15 0.25-0.15h0.15q0-0.1 0.25-0.1l0.2 0.25-0.25 0.2-0.2-0.15m8.7-3.75-0.2-0.2q0-0.25 0.25-0.3l0.2 0.3-0.25 0.2m0.55-0.05 0.1 0.2-0.15 0.1-0.15-0.15q0.05-0.15 0.2-0.15m0.25 0.35 0.15 0.15-0.2 0.2-0.2-0.2q0.05-0.2 0.25-0.15m8.5-12.6q0.1-0.15 0.2-0.15l0.2 0.15-0.2 0.15-0.2-0.15m-16.15 11.95q0.05-0.15 0.2-0.15l0.2 0.2-0.2 0.25-0.2-0.3m0.2-0.45 0.2-0.15 0.1 0.2 0.2-0.1 0.1 0.15-0.15 0.15-0.15-0.15-0.2 0.1-0.1-0.2m1.3-0.25 0.15-0.2 0.15 0.2-0.15 0.2-0.15-0.2m-0.45-0.15 0.15 0.2-0.2 0.2-0.15-0.2 0.2-0.2m0.85 0.1 0.15-0.1 0.1 0.1-0.15 0.15-0.1-0.15m-1.05 4.35q0 0.15-0.2 0.1l-0.15-0.2 0.2-0.15 0.15 0.25m0.5 0.05q-0.05 0.15-0.2 0.1l-0.15-0.1 0.15-0.2 0.2 0.2m0.25-0.2 0.1 0.1-0.15 0.15-0.05-0.15 0.1-0.1m0.8 0.1q0.05-0.15 0.2-0.1l0.15 0.2-0.15 0.1-0.2-0.2m-0.25-0.05 0.2 0.25-0.2 0.15q-0.15 0-0.15-0.2l0.15-0.2m1.1 0.2-0.2 0.15q-0.15 0.05-0.2-0.1 0.05-0.2 0.25-0.25l0.15 0.2m0-4.15 0.2-0.15 0.15 0.05 0.2-0.2 0.25 0.25-0.3 0.25-0.2-0.05h-0.1l-0.2-0.15m-1-0.3q0-0.25 0.25-0.2 0.2 0 0.2 0.1 0.05-0.15 0.2-0.15l0.2 0.2-0.2 0.2-0.2-0.1-0.25 0.2q-0.25 0-0.2-0.25m2.2 0.1 0.15 0.15-0.2 0.2-0.15-0.2 0.2-0.15m1.15 0.1 0.15 0.2-0.15 0.15-0.2-0.2q0.05-0.2 0.2-0.15m-0.35 0.15-0.25 0.25q-0.25-0.05-0.2-0.25 0-0.2 0.25-0.25l0.2 0.25m1.15 0.45-0.15-0.2-0.2 0.05q-0.3 0-0.25-0.2l0.25-0.2q0.25-0.05 0.25 0.2h-0.05 0.2l0.15 0.2-0.2 0.15m4.55-12.25q0.05-0.25 0.2-0.2l0.25 0.25-0.2 0.25q-0.3-0.05-0.25-0.3m-0.15 0.4-0.2 0.15-0.2-0.1 0.2-0.25 0.2 0.2m2.6-0.3-0.1-0.1q0-0.1 0.15-0.1t0.15 0.1l-0.2 0.1m2.3 0.05q0-0.2 0.15-0.2l0.2 0.2-0.2 0.2q-0.15 0-0.15-0.2m-0.55 0q-0.15 0-0.15-0.2t0.2-0.15l0.15 0.2 0.1-0.05 0.05 0.15-0.15 0.15-0.1-0.1h-0.1m-1.2-0.5 0.15 0.2-0.2 0.3-0.2-0.3q0.05-0.2 0.25-0.2m0.6 0.15 0.2 0.2-0.3 0.25q-0.25 0-0.15-0.2 0-0.2 0.25-0.25m-2.85-0.25 0.1 0.15q0.05-0.2 0.25-0.25l0.15 0.2-0.25 0.25-0.15-0.15-0.2 0.15-0.15-0.25q0.05-0.15 0.25-0.1m0.85-0.15 0.2 0.2-0.25 0.2-0.25-0.2 0.3-0.2m0.5 0.3-0.05 0.1-0.15-0.15q0-0.1 0.15-0.1l0.05 0.15m4.25-4.45q0-0.25 0.25-0.2v-0.05l-0.05-0.15q0-0.2 0.25-0.2 0.2 0 0.2 0.25l-0.2 0.25-0.1-0.05v0.15l-0.25 0.2h-0.05v0.1l-0.25 0.2-0.2-0.25q0-0.2 0.25-0.2l0.1 0.05 0.05-0.1m0.7-0.55q0-0.2 0.2-0.15l0.15 0.2-0.2 0.15q-0.25 0.05-0.15-0.2m-1.3 1-0.2 0.15q-0.25 0-0.2-0.2t0.25-0.15l0.15 0.2m-0.3 0.4-0.2 0.2q-0.25-0.05-0.2-0.3l0.15-0.2 0.25 0.3m2.45-1.45-0.1 0.1-0.15-0.15 0.1-0.15 0.15 0.2m-1.85 5.25-0.2 0.25-0.25-0.25q0-0.3 0.2-0.25l0.25 0.25" fill="#dbb997"/>
<path d="m318.15 210.75 0.2-0.75 1 0.8 0.35 0.8-0.2 0.7-1.35-1.55" fill="#f2c35d"/>
<path d="m328.7 198.35q0.65-1.25 0.5-2.3-0.2-1.05-1.1-1.2-0.9-0.25-1.95 0.45-1.1 0.7-1.75 1.95-0.6 1.15-0.4 2.2 0.15 1.05 1.05 1.25t2-0.5l1.65-1.85" fill="#003c00"/>
<path d="m326.65 199.9 0.35-0.2 0.45-0.25 0.3-0.35 0.6-0.85 0.4-1.3-0.05-0.5q-0.15-0.75-0.8-0.9l-0.05-0.05-0.35-0.05-0.5 0.1-0.75 1-0.3 0.6-0.15 0.45-0.2 0.8q-0.05 0.45 0.25 0.9 0.25 0.45 0.8 0.6m1.15-3.75 0.15 0.45-0.05 0.1-0.25 0.25q-0.6 0.05-0.4-0.6l0.2-0.3q0.2-0.1 0.35 0.1m-0.05 1.7v-0.2l0.05 0.35-0.05-0.15h-0.05l-0.45 0.95q-0.6 0.7-1.1 0.3-0.25-0.2 0-0.65l0.2 0.05 0.15 0.15 0.25-0.05 0.25-0.8v-0.05q0.45-0.4 0.7 0l0.05 0.05v0.05" fill="url(#j)"/>
<path d="m327 195.55-0.2 0.05-0.45 0.3-0.95 0.8-0.4 0.7-0.4 0.95-0.05 0.5 0.1 0.3 0.05 0.35 0.05 0.05 0.25 0.3v0.05l0.15 0.1 0.3 0.1 1.2-0.2q-0.55-0.15-0.8-0.6-0.3-0.45-0.25-0.9l0.2-0.8 0.15-0.45 0.3-0.6 0.75-1" fill="#159971"/>
<path d="m327.8 196.15q-0.15-0.2-0.35-0.1l-0.2 0.3q-0.2 0.65 0.4 0.6l0.25-0.25 0.05-0.1-0.15-0.45m-0.05 1.7v-0.05l-0.05-0.05q-0.25-0.4-0.7 0v0.05l-0.25 0.8-0.25 0.05-0.15-0.15-0.2-0.05q-0.25 0.45 0 0.65 0.5 0.4 1.1-0.3l0.45-0.95h0.05" fill="#fff"/>
<path d="m327.75 197.85 0.05 0.15-0.05-0.35v0.2" fill="#7ceb8c"/>
<path d="m326.65 199.9 0.35-0.2 0.45-0.25 0.3-0.35 0.6-0.85 0.4-1.3-0.05-0.5q-0.15-0.75-0.8-0.9l-0.05-0.05-0.35-0.05-0.5 0.1-0.2 0.05-0.45 0.3-0.95 0.8-0.4 0.7-0.4 0.95-0.05 0.5 0.1 0.3 0.05 0.35 0.05 0.05 0.25 0.3v0.05l0.15 0.1 0.3 0.1 1.2-0.2" fill="none" stroke="#000" stroke-opacity=".24314" stroke-width=".5"/>
</g>
<radialGradient id="i" cx="0" cy="0" r="819.2" gradientTransform="matrix(.10199 0 0 .10199 18.1 -32)" gradientUnits="userSpaceOnUse">
<stop offset="0"/>
<stop stop-color="#fff" stop-opacity="0" offset=".49804"/>
</radialGradient>
<g id="w">
<path d="m-27.25 21.95 0.15-0.05-0.15 0.05" fill="#8b8b8b"/>
<path d="m7.9-26.95 2.2-3.8 3.3-0.7 0.9-8 3.5-1.45 9 5.2 0.45 3.75-6.5 4.75 1.05 3.25-2.85 4.95-3.5 1.15-0.5 3-0.2 1.1-0.05 0.15-0.25 1.95-1.7 1.45-1.95 0.3-1.45 2.5 0.15 0.6 0.5 1.1-0.05 0.65 0.15 0.65-0.2 0.05v0.35l-1.5 1.6-1.35 0.45v0.85l-4.65 2.45-2 5.6 0.15 0.8 1.15-0.25 1.4 0.8 2.95-2.25-1.65 2.7 2.7 0.2 0.7 0.4-0.3 0.3-2.85 2.95-0.15 1.45-0.1 0.05-2.7 2.5-2.25 0.3 0.05 0.15-0.9 1.55-2.05 1.75-3.8-0.35 0.2 2.3-0.65 1.15 0.15 0.05 0.35 2.15-0.4 1.8-1.3 1.15-1.55 0.9h-0.95l1.7-2.75-4.2 2.2 2.65 4.25-0.25 2.05-0.9 2.1-1.2 1.55-2.95 0.75-0.05-0.05q-0.8 0.55-1.7 0.9-2.45 0.85-4.45-0.3-2.05-1.2-2.5-3.7t0.9-4.9l1.45-1.8v-0.3l-1.9-1.1 0.8-0.4-0.25-1.3-3-4.75 0.15-0.05 2.7-2.75 3.4-2.15 2.55-0.25 0.85-1.15 1.05-0.85 1.85-0.75 2.75 0.65-0.6-3.05 0.4-0.45-0.1-0.2 0.35-0.3-0.1-0.5v-0.25l-0.1-0.1-0.05 0.05-0.45 0.15-1-2.4 0.8-3.6 0.05-0.05 1.15-0.9 1.15-3.95 0.1-0.4 0.7 0.4 1.5 2.2 1.55-2.75-0.5 3.65 1.05 0.6 0.85-1.45-0.3-2-0.55-0.3 0.5-2 1.8-2 1.75-0.45v-0.9l2.1-1.35-0.8-3 1.8-0.5-0.05-3 3.05-1.5 0.45 0.3 3.6-6.25-0.95-4.15 0.6-1 0.1-0.2m7.25 9.45 0.3-0.35h-0.1l-0.2 0.35m-12.85 6 0.05-0.1-0.3 0.2 0.25-0.1m-24.75 38.5v-0.05h-0.05l0.05 0.05" fill="url(#i)"/>
<path d="m7.8-26.75 0.1-0.2" fill="none" stroke="#000" stroke-opacity=".25098" stroke-width=".5"/>
</g>
</defs>
<use xlink:href="#y"/>
<use transform="matrix(-.17314 -.13058 .13399 -.17763 329.8 198.5)" xlink:href="#a"/>
<use transform="matrix(.17314 .13058 .13399 -.17763 325.7 195.35)" xlink:href="#a"/>
<use xlink:href="#x"/>
<use transform="matrix(.5961 .073471 -.073471 .5961 330.45 192.35)" xlink:href="#w"/>
</svg>
