<?xml version="1.0" encoding="UTF-8" standalone="no"?>
<!DOCTYPE svg PUBLIC "-//W3C//DTD SVG 1.1//EN" "http://www.w3.org/Graphics/SVG/1.1/DTD/svg11.dtd">
<svg width="100%" height="100%" viewBox="0 0 37 60" version="1.1" xmlns="http://www.w3.org/2000/svg" xmlns:xlink="http://www.w3.org/1999/xlink" xml:space="preserve" xmlns:serif="http://www.serif.com/" style="fill-rule:evenodd;clip-rule:evenodd;stroke-linecap:round;stroke-linejoin:round;">
    <g transform="matrix(1,0,0,1,-311.833,-205.632)">
        <g>
            <g id="shape0">
                <path d="M318.4,233.85C317.5,233.95 316.733,234.35 316.1,235.05C315.567,235.65 315.2,236.4 315,237.3L315.05,238.4C315.183,238.8 315.5,239.067 316,239.2L316.5,239.2L317.1,238.95L317.4,238.4L317.4,238L317.2,237.6L316.95,237.4L316.6,237.4L316.55,237.45L316.25,237.85L316.4,238.25C316.1,238.217 315.933,238.017 315.9,237.65L316.2,237.1L316.55,236.85C316.85,236.717 317.183,236.833 317.55,237.2C317.983,237.533 318.183,238.05 318.15,238.75L318.45,238.25L318.7,237.8C319.067,237.067 319.217,236.333 319.15,235.6C319.15,234.767 318.9,234.183 318.4,233.85M318,235L318.1,235.05C318.467,235.417 318.617,235.667 318.55,235.8L318.45,236.25L318.25,236.55L318.05,236.8C317.517,236.867 317.117,236.717 316.85,236.35L316.65,236.1L316.6,235.85L316.75,235.5C317.017,235 317.433,234.833 318,235" style="fill:#fc0;"/>
                <path d="M318.15,238.75C318.183,238.05 317.983,237.533 317.55,237.2C317.183,236.833 316.85,236.717 316.55,236.85L316.2,237.1L315.9,237.65C315.933,238.017 316.1,238.217 316.4,238.25L316.25,237.85L316.55,237.45L316.6,237.4L316.95,237.4L317.2,237.6L317.4,238L317.4,238.4L317.1,238.95L316.5,239.2L316,239.2C315.5,239.067 315.183,238.8 315.05,238.4L315,237.3C315.2,236.4 315.567,235.65 316.1,235.05C316.733,234.35 317.5,233.95 318.4,233.85L317.35,233.55C316.783,233.517 316.283,233.683 315.85,234.05C315.417,234.383 315.033,234.8 314.7,235.3L314.45,235.75L313.9,237.1C313.767,237.7 313.733,238.333 313.8,239L313.85,239.15L314.35,240.1L315.1,240.4C315.667,240.6 316.2,240.517 316.7,240.15L318.15,238.75" style="fill:#f90;"/>
                <path d="M318,235C317.433,234.833 317.017,235 316.75,235.5L316.6,235.85L316.65,236.1L316.85,236.35C317.117,236.717 317.517,236.867 318.05,236.8L318.25,236.55L318.45,236.25L318.55,235.8C318.617,235.667 318.467,235.417 318.1,235.05L318,235" style="fill:#ff0;"/>
                <path d="M318.4,233.85C318.9,234.183 319.15,234.767 319.15,235.6C319.217,236.333 319.067,237.067 318.7,237.8L318.45,238.25L318.15,238.75L316.7,240.15C316.2,240.517 315.667,240.6 315.1,240.4L314.35,240.1L313.85,239.15L313.8,239C313.733,238.333 313.767,237.7 313.9,237.1L314.45,235.75L314.7,235.3C315.033,234.8 315.417,234.383 315.85,234.05C316.283,233.683 316.783,233.517 317.35,233.55L318.4,233.85Z" style="fill:none;fill-rule:nonzero;stroke:#000;stroke-opacity:0.6;stroke-width:1px;"/>
                <path d="M340.9,238.7C340.8,238.567 340.75,238.4 340.75,238.2L340.65,237.65C340.517,236.883 340.55,236.167 340.75,235.5C340.983,234.733 341.35,234.267 341.85,234.1C342.617,234.533 343.2,235.167 343.6,236C343.967,236.733 344.133,237.533 344.1,238.4L343.75,239.45C343.583,239.75 343.233,239.883 342.7,239.85L342.3,239.7L341.8,239.25L341.7,238.65L341.75,238.3C341.783,238.167 341.867,238.067 342,238L342.3,237.9L342.5,237.9L342.6,238L342.7,238.05L342.8,238.5L342.65,238.9C342.883,238.967 343.067,238.817 343.2,238.45L343.05,237.85L342.8,237.55L341.8,237.5C341.367,237.667 341.067,238.067 340.9,238.7M341.9,235.35L341.85,235.35C341.417,235.517 341.217,235.683 341.25,235.85L341.2,236.35L341.3,236.65L341.5,237L342.65,236.9L342.95,236.85L343,236.6L342.95,236.15C342.85,235.65 342.5,235.383 341.9,235.35" style="fill:#fc0;"/>
                <path d="M341.85,234.1L342.85,234.2C343.383,234.367 343.8,234.7 344.1,235.2L344.85,236.75L344.95,237.2L345.05,238.65C345.083,239.25 344.983,239.833 344.75,240.4L344.7,240.5L343.95,241.25L343.25,241.25C342.683,241.25 342.217,241 341.85,240.5C341.417,239.967 341.1,239.367 340.9,238.7C341.067,238.067 341.367,237.667 341.8,237.5L342.8,237.55L343.05,237.85L343.2,238.45C343.067,238.817 342.883,238.967 342.65,238.9L342.8,238.5L342.7,238.05L342.6,238L342.5,237.9L342.3,237.9L342,238C341.867,238.067 341.783,238.167 341.75,238.3L341.7,238.65L341.8,239.25L342.3,239.7L342.7,239.85C343.233,239.883 343.583,239.75 343.75,239.45L344.1,238.4C344.133,237.533 343.967,236.733 343.6,236C343.2,235.167 342.617,234.533 341.85,234.1" style="fill:#f90;"/>
                <path d="M341.9,235.35C342.5,235.383 342.85,235.65 342.95,236.15L343,236.6L342.95,236.85L342.65,236.9L341.5,237L341.3,236.65L341.2,236.35L341.25,235.85C341.217,235.683 341.417,235.517 341.85,235.35L341.9,235.35" style="fill:#ff0;"/>
                <path d="M341.85,234.1L342.85,234.2C343.383,234.367 343.8,234.7 344.1,235.2L344.85,236.75L344.95,237.2L345.05,238.65C345.083,239.25 344.983,239.833 344.75,240.4L344.7,240.5L343.95,241.25L343.25,241.25C342.683,241.25 342.217,241 341.85,240.5C341.417,239.967 341.1,239.367 340.9,238.7C340.8,238.567 340.75,238.4 340.75,238.2L340.65,237.65C340.517,236.883 340.55,236.167 340.75,235.5C340.983,234.733 341.35,234.267 341.85,234.1Z" style="fill:none;fill-rule:nonzero;stroke:#000;stroke-opacity:0.6;stroke-width:1px;"/>
                <path d="M319.75,245.2L319.95,244.4L320.2,243.6C320.633,242.433 321.25,241.467 322.05,240.7C322.917,239.867 323.767,239.533 324.6,239.7C325.333,240.867 325.65,242.167 325.55,243.6C325.45,244.9 325.033,246.117 324.3,247.25L323.1,248.4C322.6,248.667 322.033,248.583 321.4,248.15L320.9,247.6L320.6,246.65L320.9,245.7L321.25,245.3C321.417,245.167 321.617,245.1 321.85,245.1L322.3,245.2L322.55,245.35L322.65,245.55L322.7,245.7L322.55,246.4L322,246.75L323.1,246.65L323.4,245.7L323.25,245.1C323.117,244.567 322.683,244.283 321.95,244.25C321.217,244.15 320.483,244.467 319.75,245.2M323.75,241.45L323.6,241.35C322.9,241.283 322.517,241.367 322.45,241.6L322.05,242.25L321.95,242.75L321.9,243.35C322.333,243.983 322.867,244.25 323.5,244.15L323.95,244.2L324.25,243.9L324.5,243.3C324.733,242.533 324.483,241.917 323.75,241.45" style="fill:#fc0;"/>
                <path d="M324.6,239.7C325.133,239.867 325.567,240.167 325.9,240.6C326.467,241.233 326.783,242 326.85,242.9C326.917,243.767 326.85,244.633 326.65,245.5L326.4,246.25L325.55,248.3L323.7,250.45L323.5,250.55C323,250.85 322.517,251 322.05,251L321.05,250.5C320.283,250.067 319.833,249.367 319.7,248.4C319.533,247.333 319.55,246.267 319.75,245.2C320.483,244.467 321.217,244.15 321.95,244.25C322.683,244.283 323.117,244.567 323.25,245.1L323.4,245.7L323.1,246.65L322,246.75L322.55,246.4L322.7,245.7L322.65,245.55L322.55,245.35L322.3,245.2L321.85,245.1C321.617,245.1 321.417,245.167 321.25,245.3L320.9,245.7L320.6,246.65L320.9,247.6L321.4,248.15C322.033,248.583 322.6,248.667 323.1,248.4L324.3,247.25C325.033,246.117 325.45,244.9 325.55,243.6C325.65,242.167 325.333,240.867 324.6,239.7" style="fill:#f90;"/>
                <path d="M323.75,241.45C324.483,241.917 324.733,242.533 324.5,243.3L324.25,243.9L323.95,244.2L323.5,244.15C322.867,244.25 322.333,243.983 321.9,243.35L321.95,242.75L322.05,242.25L322.45,241.6C322.517,241.367 322.9,241.283 323.6,241.35L323.75,241.45" style="fill:#ff0;"/>
                <path d="M324.6,239.7C325.133,239.867 325.567,240.167 325.9,240.6C326.467,241.233 326.783,242 326.85,242.9C326.917,243.767 326.85,244.633 326.65,245.5L326.4,246.25L325.55,248.3L323.7,250.45L323.5,250.55C323,250.85 322.517,251 322.05,251L321.05,250.5C320.283,250.067 319.833,249.367 319.7,248.4C319.533,247.333 319.55,246.267 319.75,245.2L319.95,244.4L320.2,243.6C320.633,242.433 321.25,241.467 322.05,240.7C322.917,239.867 323.767,239.533 324.6,239.7Z" style="fill:none;fill-rule:nonzero;stroke:#000;stroke-opacity:0.6;stroke-width:1px;"/>
            </g>
            <g id="sprite0" transform="matrix(0.7513,0,0,1.0625,319.3,260.4)">
                <g id="shape1">
                    <path d="M25.35,2.4C25.317,3.067 24.067,3.633 21.6,4.1L12.7,4.8L3.75,4.1C1.25,3.633 0.017,3.067 0.05,2.4C0.017,1.733 1.25,1.167 3.75,0.7L12.7,0L21.6,0.7C24.067,1.167 25.317,1.733 25.35,2.4" style="fill-opacity:0.6;"/>
                </g>
            </g>
            <g id="shape2">
                <path d="M347.35,229.1C347.483,229.8 347.367,230.367 347,230.8C346.667,231.233 346.183,231.433 345.55,231.4L344.95,231.35C344.183,231.217 343.45,230.883 342.75,230.35L342.2,229.95L341.8,229.55C341.133,228.85 340.667,228.117 340.4,227.35C340.067,226.417 340.117,225.683 340.55,225.15C340.817,224.817 341.167,224.617 341.6,224.55C341.467,225.517 341.65,226.433 342.15,227.3C342.55,227.933 343.15,228.267 343.95,228.3L347.35,229.1M316.7,229.95C316.033,230.45 315.35,230.767 314.65,230.9L314.1,230.95C313.5,230.983 313.033,230.783 312.7,230.35C312.267,229.817 312.217,229.083 312.55,228.15L312.6,227.9L312.65,227.75C313.55,228.417 314.467,228.367 315.4,227.6L317.15,225.4L317.95,224.15C318.317,224.217 318.617,224.4 318.85,224.7C319.25,225.233 319.3,225.967 319,226.9C318.733,227.667 318.283,228.4 317.65,229.1L317.25,229.5L316.75,229.9L316.7,229.95" style="fill:#660;"/>
                <path d="M347.35,229.1L343.95,228.3C343.15,228.267 342.55,227.933 342.15,227.3C341.65,226.433 341.467,225.517 341.6,224.55L342.65,224.6C343.417,224.733 344.183,225.083 344.95,225.65L344.95,225.7L345.4,226.05C346.2,226.75 346.767,227.517 347.1,228.35L347.2,228.6L347.35,229.1M312.65,227.75L312.7,227.75C313,226.95 313.517,226.233 314.25,225.6L314.65,225.2L315.25,224.8C315.75,224.467 316.283,224.25 316.85,224.15C317.25,224.05 317.617,224.05 317.95,224.15L317.15,225.4L315.4,227.6C314.467,228.367 313.55,228.417 312.65,227.75M344.95,227.15L344.8,226.8L344,225.55L343.15,226.3L343.1,226.55L343.2,227C343.233,227.2 343.65,227.433 344.45,227.7L344.8,227.35L344.95,227.15M314.9,227.45C315.4,227.383 315.767,227.117 316,226.65C316.367,226.017 316.25,225.75 315.65,225.85C315.017,225.783 314.667,226.067 314.6,226.7L314.9,227.45" style="fill:#390;"/>
                <path d="M328.4,232.75L328.6,232.8L328.4,232.75" style="fill:#f7a29d;"/>
                <path d="M328.6,232.8L328.4,232.75C327.567,232.917 327.15,233.15 327.15,233.45L326.9,234.4L326.9,235L327.05,235.75C327.783,236.35 328.533,236.483 329.3,236.15L329.85,236L330.05,235.6L330.15,234.75C330.183,233.75 329.667,233.1 328.6,232.8M325.1,238.7L325.05,237.65L325.1,236.65C325.2,235.083 325.6,233.7 326.3,232.5C327.067,231.2 327.983,230.5 329.05,230.4C330.317,231.533 331.15,232.983 331.55,234.75C331.883,236.35 331.8,237.95 331.3,239.55L330.25,241.4C329.75,241.867 329.05,241.95 328.15,241.65L327.35,241.2L326.65,240.15L326.65,238.9L327,238.3L327.65,237.85L328.15,237.8L328.5,237.9L328.7,238.1L328.85,238.3L328.9,239.15L328.4,239.75C328.867,240.017 329.283,239.85 329.65,239.25L329.65,238.05L329.3,237.35C328.967,236.783 328.35,236.6 327.45,236.8C326.55,236.967 325.767,237.6 325.1,238.7" style="fill:#f0524a;"/>
                <path d="M328.4,232.75L328.6,232.8C329.667,233.1 330.183,233.75 330.15,234.75L330.05,235.6L329.85,236L329.3,236.15C328.533,236.483 327.783,236.35 327.05,235.75L326.9,235L326.9,234.4L327.15,233.45C327.15,233.15 327.567,232.917 328.4,232.75" style="fill:#fbc9c6;"/>
                <path d="M325.1,238.7C325.767,237.6 326.55,236.967 327.45,236.8C328.35,236.6 328.967,236.783 329.3,237.35L329.65,238.05L329.65,239.25C329.283,239.85 328.867,240.017 328.4,239.75L328.9,239.15L328.85,238.3L328.7,238.1L328.5,237.9L328.15,237.8L327.65,237.85L327,238.3L326.65,238.9L326.65,240.15L327.35,241.2L328.15,241.65C329.05,241.95 329.75,241.867 330.25,241.4L331.3,239.55C331.8,237.95 331.883,236.35 331.55,234.75C331.15,232.983 330.317,231.533 329.05,230.4C329.717,230.4 330.333,230.6 330.9,231C331.8,231.567 332.45,232.383 332.85,233.45C333.25,234.483 333.483,235.567 333.55,236.7L333.5,237.65L333.15,240.4C332.917,241.567 332.45,242.633 331.75,243.6L331.5,243.85C331.033,244.383 330.5,244.717 329.9,244.85L328.55,244.6C327.483,244.367 326.7,243.683 326.2,242.55C325.633,241.35 325.267,240.067 325.1,238.7" style="fill:#b5170f;"/>
                <path d="M344.95,227.15L344.8,227.35L344.45,227.7C343.65,227.433 343.233,227.2 343.2,227L343.1,226.55L343.15,226.3L344,225.55L344.8,226.8L344.95,227.15M314.9,227.45L314.6,226.7C314.667,226.067 315.017,225.783 315.65,225.85C316.25,225.75 316.367,226.017 316,226.65C315.767,227.117 315.4,227.383 314.9,227.45" style="fill:#ffff80;"/>
                <path d="M340.4,232.55C340.467,233.05 340.317,233.567 339.95,234.1L338.45,233.95C338.183,233.217 338.317,232.533 338.85,231.9L339.8,231.7L339.2,231.45L339.9,231.65L340.4,232.55M320.15,231.45L320.3,231.25L321.05,231.15L321.5,231.25L321.7,231.4L322.1,232.2L322,232.65L320.95,233.3C320.35,232.533 320.083,231.917 320.15,231.45" style="fill:#82a0df;"/>
                <path d="M318.35,234L318.55,233L318.6,232.8L318.75,232.45C319.083,231.55 319.55,230.833 320.15,230.3C320.55,229.933 320.95,229.717 321.35,229.65C322.183,230.417 322.5,231.467 322.3,232.8L322.1,234C321.833,234.767 321.567,235.067 321.3,234.9C321.233,234.333 320.867,233.833 320.2,233.4C319.267,233.267 318.65,233.45 318.35,233.95L318.35,234M340.55,232.95L340.75,233.5L341.05,235.35C340.55,235.417 340.067,235.633 339.6,236C338.4,236.1 337.7,235.5 337.5,234.2C337.267,232.667 337.617,231.517 338.55,230.75L338.1,230.15C338.467,230.25 338.833,230.467 339.2,230.8L339.9,231.65L339.2,231.45L339.8,231.7L338.85,231.9C338.317,232.533 338.183,233.217 338.45,233.95L339.95,234.1C340.317,233.567 340.467,233.05 340.4,232.55L340.55,232.95M323.65,233L323.6,233.15L323.6,233.1L323.65,233M320.15,231.45C320.083,231.917 320.35,232.533 320.95,233.3L322,232.65L322.1,232.2L321.7,231.4L321.5,231.25L321.05,231.15L320.3,231.25L320.15,231.45" style="fill:#36c;"/>
                <path d="M322.85,235.9L321.75,237.3L321.3,237.65C320.733,238.017 320.2,238.117 319.7,237.95C319.033,237.717 318.6,237.117 318.4,236.15L318.35,235.9C318.217,235.3 318.217,234.667 318.35,234L318.35,233.95C318.65,233.45 319.267,233.267 320.2,233.4C320.867,233.833 321.233,234.333 321.3,234.9C321.567,235.067 321.833,234.767 322.1,234L322.3,232.8C322.5,231.467 322.183,230.417 321.35,229.65L322.2,229.7L322.55,229.85C322.983,230.15 323.3,230.683 323.5,231.45L323.65,232.75L323.65,233L323.6,233.1L323.6,233.15L323.5,234.05L323.35,234.65L322.85,235.9M341.05,235.35L341,236.4L340.95,236.65C340.717,237.617 340.267,238.217 339.6,238.45C339.1,238.617 338.583,238.517 338.05,238.15L337.55,237.8C336.983,237.267 336.55,236.6 336.25,235.8L336,235.15L335.85,234.55C335.617,233.617 335.6,232.75 335.8,231.95C336.033,230.983 336.483,230.4 337.15,230.2L338.1,230.15L338.55,230.75C337.617,231.517 337.267,232.667 337.5,234.2C337.7,235.5 338.4,236.1 339.6,236C340.067,235.633 340.55,235.417 341.05,235.35" style="fill:#254996;"/>
                <path d="M345.35,225.25C345.583,224.083 345.467,223.033 345,222.1L343.85,219.6C342.783,217.3 342.233,214.883 342.2,212.35C342.2,210.95 341.717,209.683 340.75,208.55C340.117,207.75 339.35,207.133 338.45,206.7C336.117,205.733 334.033,206 332.2,207.5L328.5,210.55L324.3,214.35C323.533,214.983 322.667,215.483 321.7,215.85C320.433,216.317 319.283,217.05 318.25,218.05C317.083,219.183 316.15,220.517 315.45,222.05C315.117,222.717 315.017,223.45 315.15,224.25" style="fill:none;fill-rule:nonzero;stroke:#600;stroke-width:1px;"/>
                <path d="M341.6,224.55C341.167,224.617 340.817,224.817 340.55,225.15C340.117,225.683 340.067,226.417 340.4,227.35C340.667,228.117 341.133,228.85 341.8,229.55L342.2,229.95L342.75,230.35C343.45,230.883 344.183,231.217 344.95,231.35L345.55,231.4C346.183,231.433 346.667,231.233 347,230.8C347.367,230.367 347.483,229.8 347.35,229.1L347.2,228.6L347.1,228.35C346.767,227.517 346.2,226.75 345.4,226.05L344.95,225.7L344.95,225.65C344.183,225.083 343.417,224.733 342.65,224.6L341.6,224.55M325.1,238.7L325.05,237.65L325.1,236.65L323.9,236.3L322.85,235.9L321.75,237.3L321.3,237.65C320.733,238.017 320.2,238.117 319.7,237.95C319.033,237.717 318.6,237.117 318.4,236.15L318.35,235.9C318.217,235.3 318.217,234.667 318.35,234L318.55,233L318.6,232.8L317.45,231.25L316.7,229.95C316.033,230.45 315.35,230.767 314.65,230.9L314.1,230.95C313.5,230.983 313.033,230.783 312.7,230.35C312.267,229.817 312.217,229.083 312.55,228.15L312.6,227.9L312.65,227.75L312.7,227.75C313,226.95 313.517,226.233 314.25,225.6L314.65,225.2L315.25,224.8C315.75,224.467 316.283,224.25 316.85,224.15C317.25,224.05 317.617,224.05 317.95,224.15C318.317,224.217 318.617,224.4 318.85,224.7C319.25,225.233 319.3,225.967 319,226.9C318.733,227.667 318.283,228.4 317.65,229.1L317.25,229.5L316.75,229.9L316.7,229.95M329.05,230.4C327.983,230.5 327.067,231.2 326.3,232.5C325.6,233.7 325.2,235.083 325.1,236.65M331.75,243.6C332.45,242.633 332.917,241.567 333.15,240.4L333.5,237.65L333.55,236.7C333.483,235.567 333.25,234.483 332.85,233.45C332.45,232.383 331.8,231.567 330.9,231C330.333,230.6 329.717,230.4 329.05,230.4M342.75,230.35L341.8,231.6L340.55,232.95L340.75,233.5L341.05,235.35L341,236.4L340.95,236.65C340.717,237.617 340.267,238.217 339.6,238.45C339.1,238.617 338.583,238.517 338.05,238.15L337.55,237.8C336.983,237.267 336.55,236.6 336.25,235.8L336.2,235.85L335.3,236.2L333.55,236.7M338.1,230.15L337.15,230.2C336.483,230.4 336.033,230.983 335.8,231.95C335.6,232.75 335.617,233.617 335.85,234.55L336,235.15L336.25,235.8M339.9,231.65L339.2,230.8C338.833,230.467 338.467,230.25 338.1,230.15M340.4,232.55L339.9,231.65M340.55,232.95L340.4,232.55M325.1,238.7C325.267,240.067 325.633,241.35 326.2,242.55C326.7,243.683 327.483,244.367 328.55,244.6L329.9,244.85C330.5,244.717 331.033,244.383 331.5,243.85M321.35,229.65L322.2,229.7L322.55,229.85C322.983,230.15 323.3,230.683 323.5,231.45L323.65,232.75L323.65,233L323.6,233.15L323.5,234.05L323.35,234.65L322.85,235.9M318.6,232.8L318.75,232.45C319.083,231.55 319.55,230.833 320.15,230.3C320.55,229.933 320.95,229.717 321.35,229.65" style="fill:none;fill-rule:nonzero;stroke:#600;stroke-width:1px;"/>
                <path d="M332.75,240.55C333.95,241.217 334.85,242.183 335.45,243.45C336.017,244.65 336.25,245.933 336.15,247.3L335.7,248.85C335.4,249.35 334.867,249.55 334.1,249.45L333.35,249.25L332.65,248.55L332.45,247.6L332.55,247.05C332.65,246.85 332.8,246.7 333,246.6L333.45,246.45L333.7,246.5L333.9,246.6L334.05,246.7L334.2,247.4L333.9,247.95C334.333,248.05 334.65,247.833 334.85,247.3L334.65,246.35L334.2,245.9L332.65,245.8C331.95,246.067 331.467,246.7 331.2,247.7L330.8,246.1C330.6,244.867 330.667,243.733 331,242.7C331.333,241.533 331.917,240.817 332.75,240.55M332.85,242.5L332.65,242.45C332.017,242.75 331.717,243.017 331.75,243.25L331.75,244.05L331.95,244.5L332.2,245.05L333.95,244.95L334.35,244.8L334.5,244.35L334.4,243.75C334.233,242.95 333.717,242.533 332.85,242.5" style="fill:#fc0;"/>
                <path d="M331.2,247.7C331.467,246.7 331.95,246.067 332.65,245.8L334.2,245.9L334.65,246.35L334.85,247.3C334.65,247.833 334.333,248.05 333.9,247.95L334.2,247.4L334.05,246.7L333.9,246.6L333.7,246.5L333.45,246.45L333,246.6C332.8,246.7 332.65,246.85 332.55,247.05L332.45,247.6L332.65,248.55L333.35,249.25L334.1,249.45C334.867,249.55 335.4,249.35 335.7,248.85L336.15,247.3C336.25,245.933 336.017,244.65 335.45,243.45C334.85,242.183 333.95,241.217 332.75,240.55L334.3,240.7C335.1,240.967 335.75,241.483 336.25,242.25C336.75,242.983 337.117,243.75 337.35,244.55L337.5,245.35L337.75,247.55C337.75,248.517 337.567,249.433 337.2,250.3L337.1,250.5L336.05,251.65L334.95,251.65C334.05,251.683 333.3,251.317 332.7,250.55C332.033,249.683 331.533,248.733 331.2,247.7" style="fill:#f90;"/>
                <path d="M332.85,242.5C333.717,242.533 334.233,242.95 334.4,243.75L334.5,244.35L334.35,244.8L333.95,244.95L332.2,245.05L331.95,244.5L331.75,244.05L331.75,243.25C331.717,243.017 332.017,242.75 332.65,242.45L332.85,242.5" style="fill:#ff0;"/>
                <path d="M332.75,240.55C331.917,240.817 331.333,241.533 331,242.7C330.667,243.733 330.6,244.867 330.8,246.1L331.2,247.7C331.533,248.733 332.033,249.683 332.7,250.55C333.3,251.317 334.05,251.683 334.95,251.65L336.05,251.65L337.1,250.5L337.2,250.3C337.567,249.433 337.75,248.517 337.75,247.55L337.5,245.35L337.35,244.55C337.117,243.75 336.75,242.983 336.25,242.25C335.75,241.483 335.1,240.967 334.3,240.7L332.75,240.55Z" style="fill:none;fill-rule:nonzero;stroke:#000;stroke-opacity:0.6;stroke-width:1px;"/>
            </g>
        </g>
    </g>
</svg>
