<?xml version="1.0" encoding="UTF-8"?>
<svg version="1.1" viewBox="0 0 76.15 59" xmlns="http://www.w3.org/2000/svg" xmlns:cc="http://creativecommons.org/ns#" xmlns:dc="http://purl.org/dc/elements/1.1/" xmlns:rdf="http://www.w3.org/1999/02/22-rdf-syntax-ns#" xmlns:xlink="http://www.w3.org/1999/xlink">
<metadata>
<rdf:RDF>
<cc:Work rdf:about="">
<dc:format>image/svg+xml</dc:format>
<dc:type rdf:resource="http://purl.org/dc/dcmitype/StillImage"/>
</cc:Work>
</rdf:RDF>
</metadata>
<g transform="translate(-246.22 -176.62)">
<use transform="translate(246.25,176.65)" width="76.099998" height="58.950001" xlink:href="#c"/>
<use transform="matrix(1.2246 .2092 .0822 1.253 283.15 197.75)" width="4.1500001" height="4.5500002" xlink:href="#a"/>
<use transform="matrix(.3492 1.1139 -.6818 .0718 289.12 195.95)" width="4.1500001" height="4.5500002" xlink:href="#a"/>
<use transform="matrix(-.6465 .0681 -.1893 -.6041 287.6 206.42)" width="4.1500001" height="4.5500002" xlink:href="#a"/>
<use transform="matrix(.9913 .1693 .0639 .9745 287.77 191.86)" width="4.1500001" height="4.5500002" xlink:href="#a"/>
<use transform="matrix(.8733 .1492 .0355 .5414 289.88 195.48)" width="4.1500001" height="4.5500002" xlink:href="#a"/>
<use transform="matrix(1.0607 .4636 -.1394 .6786 290.64 189.12)" width="4.1500001" height="4.5500002" xlink:href="#a"/>
<use transform="matrix(-.727 .3177 -.2953 -.5141 295.35 188.96)" width="4.1500001" height="4.5500002" xlink:href="#a"/>
<use transform="matrix(-1.0788 -.1842 -.0483 -.7355 301.52 187.98)" width="4.1500001" height="4.5500002" xlink:href="#a"/>
<use transform="matrix(.5725 .2502 -.147 .7153 300.26 186.73)" width="4.1500001" height="4.5500002" xlink:href="#a"/>
<use transform="matrix(-.6465 .0681 -.1893 -.6041 295.15 195.87)" width="4.1500001" height="4.5500002" xlink:href="#a"/>
<use transform="matrix(1.2246 .2092 .0822 1.253 294.3 186.25)" width="4.1500001" height="4.5500002" xlink:href="#a"/>
</g>
<defs>
<g id="c" transform="translate(-246.25,-176.65)">
<path d="m285.9 210.2q-3.25-0.05-6.05-1.15l4.6-8.2-1.35-3.25 14-14.15 5.1 2.25 1.85 5.95q-0.85 2.35-2.85 5l7.35 8.15-2.15-0.65-4.65-6.45-0.55-1.05q-2.7 3.5-7.5 7.45l0.85 4.95-2.9 4.1v-3.75l-4.35 0.75v-0.1l1.75-8-3.15 8.15m34.3-21.45q-1.55 0.7-0.65 1.95h-11.9l6.25-0.95 6.3-1" fill="#546554" fill-rule="evenodd"/>
<path d="m318.6 179.7 3.75-3.05-0.7 5.95-3.05 0.5v-3.4" fill="#dfe3df" fill-rule="evenodd"/>
<path d="m302.2 185.7q8.85-0.65 16.4-6v3.4l-4.7 6.65-6.25 0.95h11.9l-0.6 1.65q-3.25 7.05-10.1 12.25l-0.3 0.2-7.35-8.15q2-2.65 2.85-5l-1.85-5.95m4.15 20.5q-6.75 4.05-14.7 6.95l2.9-4.1-0.85-4.95q4.8-3.95 7.5-7.45l0.55 1.05 4.6 8.5m-19.05 3.85q0.25-1.45-1.4 0.15l3.15-8.15-1.75 8" fill="#7e8f7e" fill-rule="evenodd"/>
<path d="m321.65 182.6-1.45 6.15-6.3 1 4.7-6.65 3.05-0.5m-15.25 21.55-0.05 2.05-4.6-8.5 4.65 6.45" fill="#a8b9a8" fill-rule="evenodd"/>
<path d="m285.9 210.2q-3.25-0.05-6.05-1.15l4.6-8.2-1.35-3.25 14-14.15 5.1 2.25q8.85-0.65 16.4-6l3.75-3.05-0.7 5.95-1.45 6.15q-1.55 0.7-0.65 1.95l-0.6 1.65q-3.25 7.05-10.1 12.25l-0.3 0.2-2.15-0.65-0.05 2.05q-6.75 4.05-14.7 6.95v-3.75l-4.35 0.75h-0.05l0.05-0.1q0.25-1.45-1.4 0.15z" fill="none" stroke="#000" stroke-linecap="round" stroke-linejoin="round" stroke-opacity=".38824" stroke-width=".05"/>
<path d="m289.3 182.3q2.35-1.95 5.05-3.35 5.15 2.35 5.1 5.3-1.85 0.5-3.6 1.8l-4.25 0.6-0.4-1.5h-0.75l0.35 1.65-0.35-1.65h0.75l0.4 1.5-0.8 0.15-3.6 0.5 2.1-5m-0.2 12.4-2.25 3.2-0.8 1.05-1 1.3-0.65 0.8-1.2 1.45-0.7 0.85-2.5 2.75v-2.95l1.5-1.4 0.85-0.75 1.05-1 0.95-0.9 1.3-1.2 1.05-0.95 2.4-2.25m-41.4 38.65-1.45-1.7 0.2-1.9 0.7-0.3 1.35-0.7 0.2 0.25-0.2-0.25 0.3-0.15-0.1 0.4-0.75 3.3-0.25 1.05m0.25-1.05-0.8-2.85 0.8 2.85m38.9-34.4-0.15-0.95 0.15 0.95m-0.8 1.05-0.4-1.05 0.4 1.05m-1.7 0.15 0.7 1.15-0.7-1.15m0.05 1.95-1-1.05 1 1.05m-1.9 2.3-1-1.6 1 1.6m-0.15-2.35 0.85 1.5-0.85-1.5" fill="#afa272" fill-rule="evenodd"/>
<path d="m282.65 191.75 0.3-0.7 1.15-3.25q2.35-3.15 5.2-5.5l-2.1 5-0.35 0.35-1 0.95v-1.1l1 0.15-1-0.15v1.1l-2.3 2.25-0.9 0.9m0.3-0.7 0.6-0.2-0.6 0.2" fill="#faf5e4" fill-rule="evenodd"/>
<path d="m295.85 186.05q-1.8 1.35-3.45 3.55l-0.75 1.05-0.2 0.25-2.35 3.8-2.4 2.25-0.3-2.1-1.75-1.9-1.65 0.8 1.45 1.2 1.2 2.95-1.2-2.95-1.45-1.2 1.65-0.8 1.75 1.9 0.3 2.1-1.05 0.95-1.3 1.2-0.95 0.9-1.05 1-0.85 0.75-0.85-1.35-3.65-0.95 1.2-1.05 0.6-0.7 1.3-1.6 0.65-1 1.65-2.8 0.25-0.55 0.9-0.9 2.3-2.25 1-0.95 0.35-0.35 3.6-0.5 0.8-0.15 4.25-0.6m-49.4 43.7 0.3-1.6 0.25-0.95 0.5-1.55 0.6-1.55 0.65-1.4 0.3-0.55 0.4-0.7 0.9-1.45 2.3 3.25-0.6 0.9-0.75-1.4-1.85-1.3 1.85 1.3 0.75 1.4-0.95 1.3-0.2-1.25-2.15-1.5 2.15 1.5 0.2 1.25-0.8 1.1-0.5 0.75-1 1.3-0.3 0.15-1.5-1.55 1.5 1.55-1.35 0.7-0.7 0.3m22.65-26.15 1.15-0.55 0.4-0.2 3.45-1.65 1.3-0.7 1.6-1.05 3.65 0.95 0.85 1.35-1.5 1.4-0.6 0.25-1.2 0.4-0.5-2.1h1.55l0.15 1.7-0.15-1.7h-1.55l0.5 2.1-1.65 0.55-0.9 0.35-1.65 0.55-0.9-1.5-1.15 0.4 0.8 1.55-0.8-1.55 1.15-0.4 0.9 1.5-1.25 0.45-0.9 0.35-0.1-0.45-1.5-2.55 1.5 2.55 0.1 0.45-1.65 0.55-0.75-2.05 1.4 1.05 0.25 0.7-0.25-0.7-1.4-1.05-0.35-0.95m14.45-12.75 2.3-0.8v-1.45 1.45l-2.3 0.8m3.3-3.2 2.2 0.35v0.55h-1.95l-0.6 1.5 2.45 0.75-0.85 1.6-2.35-1.3-3.35 1.2 3.35-1.2 2.35 1.3 0.85-1.6-2.45-0.75 0.6-1.5h1.95v-0.55l-2.2-0.35m3.95-0.85 0.85 3.85-0.85-3.85m1.6 2.8-0.8-2.95 0.8 2.95m-42.1 36.95-0.35-1.15-1.85-1.3 1.85 1.3 0.35 1.15m-3.15 2.9-0.4-1.3 0.4 1.3m2.65-2.15-2.3-1.65 2.3 1.65m33.6-27.3-0.3-0.35 0.85-1.2 0.4 0.65-0.4-0.65-0.85 1.2 0.3 0.35m-5.2-1.6 2.55 0.65 1.75-1.75-2.4-1.2 2.4 1.2-1.75 1.75-2.55-0.65m2.55-3.3 3.1 1.9-2.25 2.75 0.75 1.25-0.75-1.25 2.25-2.75-3.1-1.9m-6.65 6.1 1.25 1.95 0.3 1.55-0.3-1.55-1.25-1.95m1.3-0.7 1.15 2.25v1.6-1.6l-1.15-2.25" fill="#f2e7bf" fill-rule="evenodd"/>
<path d="m250.35 220q1.05-0.15 1.05-1.6 1.9-0.2 1.8-2.5 2.05 0.2 2.35-2.95l0.9-1.1q2.95 0 4.3-3.25 1.1 0.45 1.6-1.05 3.6-0.1 4.85-3 1.3 1.4 1.9-0.95l0.35 0.95 0.75 2.05 0.35 0.9q-1.8-0.15-2.8 1.8-1.85-0.4-3.1 1.95-2.1 0.3-2.95 1.8-3.45 0.7-3.65 3.6-1.95-0.05-2.1 2.05l-2.75-2.8 2.75 2.8q-2.15 0.05-1.9 1.8-1.7 1.2-1.4 2.75l-2.3-3.25m5.2-7.05 2.5 3.7-2.5-3.7m-4.15 5.45 2.65 2.1-2.65-2.1m10.95-10.85 2.3 3.7-2.3-3.7m-1.6 1.05 0.95 4.45-0.95-4.45m6.45-4.05 0.55 4.75-0.55-4.75" fill="#930" fill-rule="evenodd"/>
<path d="m280 206.1-0.4 0.2q-0.4 0.15-0.75 0.35-2.15 1-4.25 2.1-0.45 0.2-0.95 0.5l-2.05 1.1-1.05-2.85-0.35-0.9 1.65-0.55 0.9-0.35 1.25-0.45 1.65-0.55 0.9-0.35v1.45h-0.7l-0.2-1.1 0.2 1.1h0.7v-1.45l1.65-0.55 0.65 2.85-0.65-2.85 1.2-0.4 0.6-0.25v2.95m-25 20.45-0.45 1.4-0.35 1.1-0.45 1.95v4.1l-1 0.45v-2.55l1 0.05-1-0.05v-5.1l-0.55 3.15-1.1-0.2-1.3-3.55 1.3 3.55 1.1 0.2-0.2 1.15-1.75-0.65-1.55-2.55 1.55 2.55 1.75 0.65-0.4 2-0.1 0.7-0.15 0.7q-1.4-0.2-2.9-1.55l-0.75-0.7 0.25-1.05 0.5 1.75-0.5-1.75 0.75-3.3 0.1-0.4 1-1.3 0.5-0.75 0.7 2.35 0.4-1.15-0.3-2.3 0.3 2.3-0.4 1.15-0.7-2.35 0.8-1.1 0.95-1.3 0.6-0.9 2.35 3.3m-0.45 1.4-1.4-1.6-1.1-2.2 1.1 2.2 1.4 1.6m-0.35 1.1-1.45-0.45 1.45 0.45m-0.3 1.3-1.15-0.45 1.15 0.45m-2.4 4.55-2.05-1.3v-0.95l2.35 0.55-2.35-0.55v0.95l2.05 1.3m2.25-0.85-1 0.2 1-0.2m25.85-27.75-0.2-2.9 0.2 2.9m-5 2.45 0.15-2.25-0.75-1.25 0.75 1.25-0.15 2.25m-0.95 0.5v-1.8l-0.9-1.75 0.9 1.75v1.8m-2.55-2.95 0.75 2.25h0.65l-0.65-2.5 0.65 2.5h-0.65l-0.75-2.25" fill="#e7d083" fill-rule="evenodd"/>
<path d="m271.6 210.35q-2.15-0.8-3.5 2.1-1-1.1-1.95 1.2-2.3-0.35-3.75 2.6-3.05-0.4-3.05 2.3-1.45 0.4-1.45 2.15-1.95 0.55-1.15 1.95-2.55 0.95-1.75 3.9l-2.35-3.3q-0.3-1.55 1.4-2.75-0.25-1.75 1.9-1.8 0.15-2.1 2.1-2.05l1.3 1.9-1.3-1.9q0.2-2.9 3.65-3.6l0.7 3.2-0.7-3.2q0.85-1.5 2.95-1.8l1.5 2.4-1.5-2.4q1.25-2.35 3.1-1.95 1-1.95 2.8-1.8l1.05 2.85m-13.7 10.35-1.95-2 1.95 2m9.85-11.4 0.35 3.15-0.35-3.15m-11 13.35-2.7-2.15 2.7 2.15" fill="#5f1f00" fill-rule="evenodd"/>
<path d="m252.75 235.55-1.15-1.35 0.4-2 0.2-1.15 0.55-3.15v7.65" fill="#9f8f5a" fill-rule="evenodd"/>
<path d="m289.3 182.3q2.35-1.95 5.05-3.35 5.15 2.35 5.1 5.3-1.85 0.5-3.6 1.8-1.8 1.35-3.45 3.55l-0.75 1.05-0.2 0.25-2.35 3.8-2.25 3.2-0.8 1.05-1 1.3-0.65 0.8-1.2 1.45-0.7 0.85-2.5 2.75-0.4 0.2q-0.4 0.15-0.75 0.35-2.15 1-4.25 2.1-0.45 0.2-0.95 0.5l-2.05 1.1q-2.15-0.8-3.5 2.1-1-1.1-1.95 1.2-2.3-0.35-3.75 2.6-3.05-0.4-3.05 2.3-1.45 0.4-1.45 2.15-1.95 0.55-1.15 1.95-2.55 0.95-1.75 3.9l-0.45 1.4-0.35 1.1-0.45 1.95v4.1l-1 0.45-1.15-1.35-0.1 0.7-0.15 0.7q-1.4-0.2-2.9-1.55l-0.75-0.7-1.45-1.7 0.2-1.9 0.3-1.6 0.25-0.95 0.5-1.55 0.6-1.55 0.65-1.4 0.3-0.55 0.4-0.7 0.9-1.45q1.05-0.15 1.05-1.6 1.9-0.2 1.8-2.5 2.05 0.2 2.35-2.95l0.9-1.1q2.95 0 4.3-3.25 1.1 0.45 1.6-1.05 3.6-0.1 4.85-3 1.3 1.4 1.9-0.95l1.15-0.55 0.4-0.2 3.45-1.65 1.3-0.7 1.6-1.05 1.2-1.05 0.6-0.7 1.3-1.6 0.65-1 1.65-2.8 0.25-0.55 0.3-0.7 1.15-3.25q2.35-3.15 5.2-5.5m-36.1 33.6 2.75 2.8 1.95 2m0.15-4.05-2.5-3.7m-1.5 7.55-2.65-2.1m-1.05 1.6 2.3 3.25 2.35 3.3m14.45-22 0.75 2.05m-0.75-2.05-0.35-0.95m-4.45 7.65-2.3-3.7m-4.3 9.1 1.3 1.9m3.05-2.3-0.7-3.2-0.95-4.45m3.9 2.65 1.5 2.4m4.4-6.15 1.05 2.85m-3.5 2.1-0.35-3.15-0.55-4.75m3.35 2.95-0.35-0.9m-16.15 13.9 2.7 2.15" fill="none" stroke="#000" stroke-linecap="round" stroke-linejoin="round" stroke-opacity=".38824" stroke-width=".05"/>
<path d="m290.8 186.8-0.35-1.65h0.75l0.4 1.5 0.8 2.95m-5.55-1.95-1-0.15v2.55l-2.3 0.8-0.6 0.2m2.7 6.85-1.2-2.95-1.45-1.2 1.65-0.8 1.75 1.9 0.3 2.1 0.15 0.95m-4.45-5.6 3.35-1.2 2.35 1.3 0.85-1.6-2.45-0.75 0.6-1.5h1.95v-0.55l-2.2-0.35m4.8 3-0.85-3.85m-38.75 37.35 1.1 2.2 1.4 1.6m-5.1-6.5 1.85 1.3 0.75 1.4m-0.95 1.3 0.3 2.3-0.4 1.15-0.7-2.35m-0.5 0.75 1.3 3.55 1.1 0.2m0.55-2.45 1.45 0.45m-3.1-3.6-0.2-1.25-2.15-1.5m-0.65 1.4 1.85 1.3 0.35 1.15m-1.8 2.2 0.2 0.25 1.55 2.55 1.75 0.65m-3.5-3.45-1.5-1.55m-0.25 0.95 0.4 1.3 0.8 2.85 0.5 1.75m4.3-4.15 1.15 0.45m-6.4-4.7 2.3 1.65m2 5.9-2.35-0.55v0.95l2.05 1.3m1.25-0.65 1-0.2m-1-1.05 1 0.05m30.6-33.95-0.4-0.65-0.85 1.2 0.3 0.35 1 1.05m1.25-3.15 0.4 1.05m-1 1.3-0.7-1.15m-4.25-3 2.4 1.2-1.75 1.75-2.55-0.65m-1.2 1.05 3.65 0.95 0.85 1.35 1 1.6m-0.15-2.35-0.75-1.25 2.25-2.75-3.1-1.9m-2.55 8.7-0.5-2.1h1.55l0.15 1.7 0.2 2.9m-1.4-2.5 0.65 2.85m4.35-4.15-0.85-1.5m-11.25 5.3-0.25-0.7-1.4-1.05m3.3 1.15-0.8-1.55 1.15-0.4 1.65 2.75-0.15 2.25m1.05-4.05-0.3-1.55-1.25-1.95m-2.25 4.85-0.1-0.45-1.5-2.55m2.5 2.65 0.9 1.75v1.8m2-4.55 0.2 1.1h0.7v-3.05l-1.15-2.25m-3.55 5.55 0.65 2.5h-0.65l-0.75-2.25" fill="none" stroke="#624200" stroke-linecap="round" stroke-linejoin="round" stroke-opacity=".2" stroke-width=".05"/>
<path d="m282.4 192.3 0.25-0.55 0.9-0.9 2.3-0.8v-2.55l3.2 0.5v0.55h-1.95l-0.6 1.5 2.45 0.75-0.85 1.6-2.35-1.3-3.35 1.2m0.6 1.45 1.65-0.8 1.75 1.9 0.45 3.05-0.8 1.05-1.6-4-1.45-1.2m8.2-8.6 1.2 4.45-0.75 1.05-1.2-5.5h0.75m-42.45 37.55 2.15 1.5 0.5 3.55-0.4 1.15-1.05-3.5-1.85-1.3 0.65-1.4m1.6-2.7 4.65 6.55-0.45 1.4-1.4-1.6-1.85-3.6-1.85-1.3 0.9-1.45m-1.85 8.75-1.5-1.55 0.5-1.55 2.3 1.65 1.3 3.55 1.1 0.2-0.2 1.15-1.75-0.65-1.55-2.55 0.1-0.4-0.3 0.15m-1.75-0.6 1.7 5.9-0.75-0.7-1.45-1.7 0.2-1.9 0.3-1.6m32.1-21.5-1.15-4.95h1.55l0.35 4.6q-0.4 0.15-0.75 0.35m1.25-10.55 0.65-1 3.1 1.9-2.25 2.75 1.6 2.75-0.7 0.85-1.85-2.95-3.65-0.95 1.2-1.05 2.55 0.65 1.75-1.75-2.4-1.2m4.95 4.15-0.65 0.8-1.3-1.4 0.85-1.2 1.1 1.8m-32.3 34v-1.25l1 0.05v1l-1 0.2m-0.95-1.05-0.3 1.7-2.05-1.3v-0.95l2.35 0.55m2.1-2.85-1.15-0.45v-1.3l1.45 0.45-0.3 1.3m21.5-29.85 1.15 2.25v3.05h-0.7l-0.5-2.65-1.25-1.95 1.3-0.7m-6.3 3.1 1.15-0.55 1.5 2.55 0.75 2.95h-0.65l-1-2.95-1.4-1.05-0.35-0.95m4 0.15 1.65 2.75-0.15 2.25q-0.45 0.2-0.95 0.5v-1.8l-1.7-3.3 1.15-0.4" fill="#fff" fill-opacity=".27059" fill-rule="evenodd"/>
</g>
<g id="a" transform="translate(2.05,2.25)">
<use transform="translate(-2.05,-2.25)" width="4.1500001" height="4.5500002" xlink:href="#b"/>
</g>
<g id="b" transform="translate(2.05,2.25)">
<path d="m-1.1-1.45 1.4 0.6-0.2 0.8 0.6-0.8 0.75 0.85-0.85 1.45-1 0.55 0.9-1.4-2.1 1.55q-0.55-0.4-0.45-0.95v-1.15l0.95-1.5" fill="#796c3c" fill-rule="evenodd"/>
<path d="m0.6 1.45 0.85-1.45-0.75-0.85-0.6 0.8 0.2-0.8-1.4-0.6 0.75-0.8q1.6-0.05 2.45 1.65-0.45 1.25-1.5 2.05m-2.2 0.7 2.1-1.55-0.9 1.4-0.95 0.3-0.25-0.15" fill="#66402d" fill-rule="evenodd"/>
<path d="m0.6 1.45q1.05-0.8 1.5-2.05-0.85-1.7-2.45-1.65l-0.75 0.8-0.95 1.5v1.15q-0.1 0.55 0.45 0.95m1.2-0.15 1-0.55m-1 0.55-0.95 0.3-0.25-0.15" fill="none" stroke="#000" stroke-linecap="round" stroke-linejoin="round" stroke-opacity=".4" stroke-width=".05"/>
</g>
</defs>
</svg>
