<?xml version="1.0" encoding="UTF-8"?>
<svg version="1.1" viewBox="0 0 33.775 50.375" xmlns="http://www.w3.org/2000/svg" xmlns:cc="http://creativecommons.org/ns#" xmlns:dc="http://purl.org/dc/elements/1.1/" xmlns:rdf="http://www.w3.org/1999/02/22-rdf-syntax-ns#" xmlns:xlink="http://www.w3.org/1999/xlink">
<metadata>
<rdf:RDF>
<cc:Work rdf:about="">
<dc:format>image/svg+xml</dc:format>
<dc:type rdf:resource="http://purl.org/dc/dcmitype/StillImage"/>
</cc:Work>
</rdf:RDF>
</metadata>
<g transform="translate(-258.32 -175.52)">
<use transform="translate(258.35,175.55)" width="33.75" height="50.349998" xlink:href="#a"/>
</g>
<defs>
<g id="a" transform="translate(-258.35,-175.55)">
<path d="m291 179.7h-0.05l-0.2-0.3-0.1-0.3-0.05-0.55 0.1 0.1h0.15l0.35-0.55 0.15-1v-0.05l0.05 0.15 0.05 0.05 0.15 0.95-0.15 1-0.05 0.1-0.3 0.4h-0.1" fill="#957440" fill-rule="evenodd"/>
<path d="m291.35 177.1-0.15 1-0.35 0.55h-0.15l-0.1-0.1 0.05 0.55 0.1 0.3 0.2 0.3h0.05-0.1l-0.15-0.3-0.05-0.05-0.05-0.15v-0.1l-0.05-0.6q0-0.55 0.15-1l0.25-0.5h0.3v0.05l0.05 0.05" fill="#ab8649" fill-rule="evenodd"/>
<path d="m291 177-0.25 0.5q-0.15 0.45-0.15 1l-0.2 0.1-0.35 0.1-0.4 0.05h-0.5l-0.8-0.1-0.5-0.2-0.2-0.1-1.7-0.75h-0.05l-0.1-0.1h-0.05l-0.15-0.1h-0.1l-0.15 1.5-7.4 22.65-0.55-0.15-0.1-0.05-1.55-0.2h-0.05l8.1-22.35 0.2-0.5-4.3-0.55-0.2-0.65q-0.05-0.6 0.25-1l0.45-0.5 0.05-0.05 0.2 0.05h0.2l10.35 1.4" fill="#c4a773" fill-rule="evenodd"/>
<path d="m285.35 178.9 0.15-1.5h0.1l0.15 0.1h0.05l0.1 0.1h0.05l0.15 0.1-0.1 0.2v0.15l-0.15 0.9-0.75 2.5-0.15 0.55-0.5 1.5-0.5 1.45-0.2 0.65-0.4 1.55-0.15 0.45-0.15 0.4-0.05 0.15-0.15 0.4-0.45 1.55-0.5 1.5-0.45 1.5-0.6 1.5-0.4 1.5-0.25 0.75-0.15 0.55-0.05 0.25-0.45 1.4-0.3 0.9-0.3 0.75-0.4 1.05-0.2-0.1 6.2-19.35 0.3-0.85 0.5-2.55" fill="#b48d50" fill-rule="evenodd"/>
<path d="m290.6 178.5 0.05 0.6v0.1l-1.15-0.05-1.45-0.05-0.8-0.2-0.6-0.4-0.1-0.1-0.05-0.1q0.05-0.45-0.3-0.55h-0.1v-0.05l-0.15-0.1 1.7 0.75 0.2 0.1 0.5 0.2 0.8 0.1h0.5l0.4-0.05 0.35-0.1 0.2-0.1m-10.9-0.75 4.3 0.55-0.2 0.5-3.55-0.5-0.15-0.05-0.3-0.35-0.1-0.15m-1.75 23.8 7.4-22.65-0.5 2.55-0.3 0.85-6.2 19.35-0.3-0.1h-0.1" fill="#b9955b" fill-rule="evenodd"/>
<path d="m290.65 179.2 0.05 0.15 0.05 0.05 0.15 0.3-4.65-0.6-2.55 7.9-0.05 0.15-0.05 0.1-0.1 0.3v0.05l-0.15 0.45-4.45 13.8-0.35-0.1 0.4-1.05 0.3-0.75 0.3-0.9 0.45-1.4 0.05-0.25 0.15-0.55 0.25-0.75 0.4-1.5 0.6-1.5 0.45-1.5 0.5-1.5 0.45-1.55 0.15-0.4 0.05-0.15 0.15-0.4 0.15-0.45 0.4-1.55 0.2-0.65 0.5-1.45 0.5-1.5 0.15-0.55 0.75-2.5 0.15-0.9v-0.15l0.1-0.2v0.05h0.1q0.35 0.1 0.3 0.55l0.05 0.1 0.1 0.1 0.6 0.4 0.8 0.2 1.45 0.05 1.15 0.05" fill="#9e7c45" fill-rule="evenodd"/>
<path d="m275.7 201.15h0.05l1.55 0.2 0.1 0.05 0.55 0.15h0.1l0.3 0.1 0.2 0.1 0.35 0.1q3.35 1.35 3.9 4.35l0.05 0.2 0.05 1.3-0.1 1.1-2.25 13.4v0.05l-0.5-0.2 2-10.95 0.4-2.1v-2.6l-0.8-1.9-0.2-0.3-0.3-0.4-0.35-0.35q-0.8-0.75-2-1.25l-0.3-0.15-0.25-0.05-0.4-0.15-0.2-0.05-1.05-0.2-0.4-0.05h-0.15l-0.45-0.05q-3.35-0.25-5.75 1.2-2.1 1.25-3.45 3.75l-7.55 12.85h-0.5l7.8-13.2q3.05-5.6 9.55-4.95" fill="#ccc" fill-rule="evenodd"/>
<path d="m282.45 206.4v2.6l-0.4 2.1q0.65-4.2-1.25-6.1l-0.3-0.25 0.3 0.2 0.1 0.1 0.4 0.25 0.05 0.1 1.1 1m-6.4-4.85h0.15l0.4 0.05 0.35 0.1 0.4 0.5-0.35-0.05-0.4-0.1h-0.2l-0.8 0.25-0.3 0.25-0.35 0.7-2.65 11.45-0.05 0.15-0.1 0.15-0.25 0.25-0.25 0.1 0.05-0.3 2.6-11.15 0.1-0.4 0.15-0.8q0.1-0.4 0.35-0.65l0.65-0.45 0.5-0.05" fill="#dadada" fill-rule="evenodd"/>
<path d="m280.55 222.2 2.25-13.4 0.1-1.1q0.3 0.95 0.25 2.05l-2.65 15.5 0.05-3v-0.05" fill="#575757" fill-rule="evenodd"/>
<path d="m259.5 222.2-0.2-0.05-0.05-0.1v-0.05l-0.4-2.7 7.55-12.85q1.35-2.5 3.45-3.75 2.2-0.2 4.4 0.85-4.6 0.5-6.8 4.5l-6.6 11.3-0.3 0.5-1.05 2.35" fill="#666" fill-rule="evenodd"/>
<path d="m276.95 201.7 0.4 0.2 0.1 0.1 0.15 0.1 0.1 0.1 0.35 0.4 0.2 0.3 0.2 0.5 0.05 0.2v0.25l-0.05 0.1-0.35 0.95-5.05 10.5-0.35 0.35-0.55 0.1q-0.5-0.15-0.5-0.5l0.25-0.1 0.25-0.25 0.1-0.15 0.05-0.15 5-10.35 0.15-0.4 0.2-0.55 0.05-0.2v-0.1l-0.15-0.45-0.2-0.45-0.4-0.5" fill="#858585" fill-rule="evenodd"/>
<path d="m276.6 201.6 1.05 0.2 0.2 0.05 0.4 0.15 0.25 0.05 0.3 0.15q1.2 0.5 2 1.25v1.5l-0.3-0.2-1.1-0.6-0.2-0.05q-0.05-0.55-0.65-1.2l-0.45-0.45-0.35-0.25-0.4-0.3-0.4-0.2-0.35-0.1" fill="#808080" fill-rule="evenodd"/>
<path d="m282.05 211.1-2 10.95v0.2l-18.4-2.8 6.5-11.1q2.05-3.75 6.15-4.45l-2.6 11.15-0.05 0.3q0 0.35 0.5 0.5l0.55-0.1-0.25 0.15 0.6-0.05 0.45-0.15 0.55-0.85 4.75-9.7 0.35-0.95 0.05-0.1 0.2 0.05 1.1 0.6 0.3 0.25q1.9 1.9 1.25 6.1m-22.8 10.95-0.9-2.75h0.5l0.4 2.7v0.05m13.05-7.35 2.65-11.45 0.35-0.7 0.3-0.25 0.8-0.25h0.2l0.4 0.1 0.35 0.05 0.2 0.45 0.15 0.45v0.1l-0.05 0.2-0.2 0.55-0.15 0.4-5 10.35" fill="#999" fill-rule="evenodd"/>
<path d="m277.35 201.9 0.4 0.3 0.35 0.25 0.45 0.45q0.6 0.65 0.65 1.2l-0.7-0.25v-0.25l-0.05-0.2-0.2-0.5-0.2-0.3-0.35-0.4-0.1-0.1-0.15-0.1-0.1-0.1" fill="#5a5a5a" fill-rule="evenodd"/>
<path d="m269.85 202.7q2.4-1.45 5.75-1.2l0.45 0.05-0.5 0.05-0.65 0.45q-0.25 0.25-0.35 0.65l-0.15 0.8-0.15 0.05q-2.2-1.05-4.4-0.85" fill="#707070" fill-rule="evenodd"/>
<path d="m279.2 204.1 0.2 0.05-0.2-0.05-0.05 0.1-0.35 0.95-4.75 9.7-0.55 0.85-0.45 0.15-0.6 0.05 0.25-0.15 0.35-0.35 5.05-10.5 0.35-0.95 0.05-0.1 0.7 0.25m-4.8-0.6-0.1 0.4q-4.1 0.7-6.15 4.45l-6.5 11.1-0.8-0.1 6.6-11.3q2.2-4 6.8-4.5l0.15-0.05" fill="#757575" fill-rule="evenodd"/>
<path d="m280.8 203.45 0.35 0.35 0.3 0.4 0.2 0.3 0.8 1.9-1.1-1-0.05-0.1-0.4-0.25-0.1-0.1v-1.5" fill="#9f9f9f" fill-rule="evenodd"/>
<path d="m259.85 222.25-0.35-0.05 1.05-2.35 0.3-0.5 0.8 0.1-1.8 2.8" fill="#828282" fill-rule="evenodd"/>
<path d="m280.05 222.05 0.5 0.2-0.05 3-0.05 0.15-0.15-0.05-0.25-3.1v-0.2" fill="#878787" fill-rule="evenodd"/>
<path d="m280.3 225.35-20.45-3.1 1.8-2.8 18.4 2.8 0.25 3.1" fill="#aaa" fill-rule="evenodd"/>
<path d="m291.05 179.7h0.05l0.3-0.4 0.05-0.1 0.15-1-0.15-0.95-0.05-0.05-0.05-0.15m0 0.05-0.05-0.05v-0.05h-0.25m-0.15 2.7h0.1m-7.2-0.9-8.1 22.35h0.05l1.55 0.2 0.1 0.05 0.55 0.15m0.4 0.1 0.2 0.1 0.35 0.1m4.45-13.8 0.15-0.45v-0.05l0.1-0.3m2.65-8.15 4.65 0.6m-8 28-0.05-1.3-0.05-0.2q-0.55-3-3.9-4.35m4 5.85q0.3 0.95 0.25 2.05l-2.65 15.5-0.05 0.15-0.15-0.05-20.45-3.1-0.35-0.05-0.2-0.05-0.05-0.1-0.9-2.75 7.8-13.2q3.05-5.6 9.55-4.95m15.3-24.15-10.35-1.4h-0.2l-0.2-0.05-0.05 0.05-0.45 0.5q-0.3 0.4-0.25 1l0.2 0.65 0.1 0.15 0.3 0.35 0.15 0.05 3.55 0.5m-5.45 22.85-0.3-0.1h-0.1m2.1 20.55v-0.05m0.5 0.2v-0.05" fill="none" stroke="#69513b" stroke-linecap="round" stroke-linejoin="round" stroke-width=".05"/>
<path d="m291.05 177h-0.05m0.3 0.05h0.05m-12.45 24.8 4.45-13.8m0.25-0.8 0.05-0.1 0.05-0.15 2.55-7.9m5.2-1.85 0.15 0.95-0.15 1m-7.85 8.05-0.1 0.3-0.15 0.5m-2.85 37.2v0.15h-0.05" fill="none" stroke="#69513b" stroke-linecap="round" stroke-linejoin="round"/>
</g>
</defs>
</svg>
