<?xml version="1.0" encoding="UTF-8"?>
<svg version="1.1" viewBox="0 0 35 48.775" xmlns="http://www.w3.org/2000/svg" xmlns:cc="http://creativecommons.org/ns#" xmlns:dc="http://purl.org/dc/elements/1.1/" xmlns:rdf="http://www.w3.org/1999/02/22-rdf-syntax-ns#" xmlns:xlink="http://www.w3.org/1999/xlink">
<metadata>
<rdf:RDF>
<cc:Work rdf:about="">
<dc:format>image/svg+xml</dc:format>
<dc:type rdf:resource="http://purl.org/dc/dcmitype/StillImage"/>
</cc:Work>
</rdf:RDF>
</metadata>
<g transform="translate(-257.48 -176.05)">
<use transform="translate(257.5,176.05)" width="34.950001" height="48.75" xlink:href="#a"/>
</g>
<defs>
<g id="a" transform="translate(-257.5,-176.05)">
<path d="m268.7 215.1-0.35-0.2-0.75-0.4-0.1-0.05-0.05-0.05-0.35-0.2-1.15-0.75-0.5-0.4-0.05-0.05-0.55-0.45-1-0.9-0.9-0.9-0.35-0.4q-1.05-1.3-1.7-2.6-1.25-2.45-0.5-3.9l-0.05 0.1q-1.1 1.55 0.45 4.3l0.35 0.65-0.4-0.65q-1.55-2.8-0.45-4.3l0.3-0.35q-0.3 0.75 0.2 1.95-0.15 1.3 0.9 3.15 0.7 1.3 1.85 2.5l0.4 0.35 0.9 0.9 1.65 1.2 0.05 0.05 0.5 0.4 1.15 0.7 0.5 0.3m-10.1 5.7-0.5-0.75 0.25-0.3q1.55 1.45 1.2 1.45l-0.35-0.1-0.4-0.15-0.2-0.15m-0.15-1.2-0.55-0.7 0.45-0.6 0.05 0.1 1.45 1.6v0.05q0.65 1.05-1.25-0.2l-0.15-0.25m5-8.05-0.5-0.45-0.3-0.35 0.35 0.4 0.45 0.4m-0.55-2.9 0.1-0.2 0.05-0.05q0.15-0.25 0.45-0.25l0.4 0.05-0.4-0.05-0.15 0.05 0.35 0.25-0.1 0.15 0.7 0.5 1.3 0.9 0.1-0.15 2.2 1.55 0.25 0.3-0.1 0.3v0.05l-0.1 0.1-0.2 0.05-0.35-0.1-4.45-3.1 0.25 0.4-0.3-0.45v-0.3" fill="#598a93" fill-rule="evenodd"/>
<path d="m288.95 176.25-8.3 6.7-0.25-0.2q-4.35 3.35-9 5.7-3.1 7.2-8.2 14.2l-1.25-0.9 15.1-21.4 0.05 0.05 11.85-4.15m3.35 2.35 0.1 12.55h0.05l-15 21.5-1.25-0.85q4.85-7.2 10.55-12.55 0.65-5.2 2.3-10.4l-0.25-0.2 3.5-10.05m-34.8 46.2 0.1-0.65q0.15-1.35-0.1-2.7l1-0.1 0.1 0.55-0.55-0.05 0.15 1.95-0.7 1m6.35-12.9-0.4-0.35-0.45-0.4-0.35-0.4-0.05-0.05-1.45-1.8-0.35-0.65q-1.55-2.75-0.45-4.3l0.05-0.1q-0.75 1.45 0.5 3.9 0.65 1.3 1.7 2.6l0.35 0.4 0.9 0.9 1 0.9 0.55 0.45 0.05 0.05 0.5 0.4 1.15 0.75 0.35 0.2 0.05 0.05-0.2-0.1h-0.05l-1.1-0.7h-0.05l-0.5-0.35-0.1-0.1-1.55-1.2-0.1-0.1m4.6-3.25q0.05-0.3 0.25-0.6l0.5-0.5q0.25-0.15 0.45 0l0.15 0.4-0.3 0.65-0.45 0.45h-0.45l-0.15-0.4" fill="#e9f2f3" fill-rule="evenodd"/>
<path d="m258.35 218.3 2.5-0.55 1.15-2.2-1.1 2.2h-0.05l-2.5 0.55m5.65-6.25q1.8 1.65 1.55 2.3l-0.2 0.2-3.55 3.85 0.35 2.55q-1.25-0.35-2.25-0.9v-0.05h-0.05l-1.45-1.6 0.2 0.25 2.3-0.5 3.1-6.1" fill="#2d2d2d" fill-rule="evenodd"/>
<path d="m262 215.55 1.85-3.65 0.15 0.15-3.1 6.1-2.3 0.5-0.2-0.25-0.05-0.1 2.5-0.55h0.05l1.1-2.2m-0.15 3.25h0.05v0.05h-0.05v-0.05" fill="#525252" fill-rule="evenodd"/>
<path d="m270.75 213 0.05 0.05q0.25 0.15 0.3 0.45l-0.1 0.5h-0.05l-0.2 0.2-0.25 0.1-0.5-0.1-6.8-4.8-0.25-0.4 4.45 3.1 0.35 0.1 0.2-0.05 0.1-0.1v-0.05l0.1-0.3-0.25-0.3-2.2-1.55 2.9 2-0.1 0.2 1.25 0.9 0.7 0.5 0.3-0.45m-7.3 8.85-0.45 0.65-0.85-0.3-0.3 0.45-1.25-0.3-0.4-0.2-0.25-0.1-0.05-0.05-0.3-0.2-0.3-0.25-0.45-0.45-0.25-0.3 0.2 0.15 0.4 0.15 0.35 0.1q0.35 0-1.2-1.45l0.1-0.15 0.15 0.25q1.9 1.25 1.25 0.2l0.05-0.05v0.05l0.65 0.5 1.1 0.65 1.8 0.65m0.25-13.4-0.35-0.25 0.15-0.05 0.4 0.05-0.2 0.25m-1.55 13.75-1.3-0.6-0.4-0.2-0.2-0.15-0.15-0.1-0.65-0.5-0.1-0.05-0.75-0.75 0.75 0.75 0.1 0.05 0.65 0.5 0.15 0.1 0.2 0.15 0.4 0.2 1.3 0.6" fill="#3f6167" fill-rule="evenodd"/>
<path d="m267.6 214.5-4.5 4.8 0.35 2.55-1.8-0.65-1.1-0.65-0.65-0.5q1 0.55 2.25 0.9l-0.35-2.55 3.55-3.85 0.2-0.2q0.25-0.65-1.55-2.3l-0.15-0.15 0.1 0.1 1.55 1.2 0.1 0.1 0.5 0.35h0.05l1.1 0.7h0.05l0.3 0.15m-5.75 4.3v0.05h0.05v-0.05h-0.05" fill-rule="evenodd"/>
<path d="m270.75 214.2 2.05 0.7 1 0.15 0.25 0.05q1.6 0.15 2.35-0.45l-0.25 0.45q-1.1 1.5-4.2 1l-2.95-0.9-0.3-0.1-0.5-0.3-1.15-0.7-0.5-0.4-0.05-0.05-1.65-1.2-0.9-0.9-0.4-0.35q-1.15-1.2-1.85-2.5-1.05-1.85-0.9-3.15l0.8 1.45 1.3 1.65v0.3l0.3 0.45 6.8 4.8 0.5 0.1 0.25-0.1m-11 7.7 0.15 0.1 0.05 0.05q-0.2 0.65 0.2 1.3l-0.55 0.05-0.5-0.5 0.65-1" fill="#5498a0" fill-rule="evenodd"/>
<path d="m260.6 222.35q-0.3 0.7 0.1 1.4l-0.65 0.1-0.45-0.45 0.55-0.05q-0.4-0.65-0.2-1.3l0.25 0.1 0.4 0.2m-1-0.55 0.15 0.1-0.65 1-0.1-0.2 0.6-0.9" fill="#4a838a" fill-rule="evenodd"/>
<path d="m258.5 221.35 0.35-0.25 0.45 0.45-0.7 0.35-0.1-0.55" fill="#bcdbdc" fill-rule="evenodd"/>
<path d="m258.6 221.9 0.7-0.35 0.3 0.25-0.6 0.9-0.4-0.8" fill="#91bdc4" fill-rule="evenodd"/>
<path d="m280.65 182.95 8.3-6.7 0.45-0.15-21.05 30.05-0.05 0.1-1.25-0.9-0.7-0.5h-0.05q5.45-7.55 10.75-12.25l0.1-0.1 2.3-5.9q-2.75 2.9-13.65 17.45l0.15 0.55-1.15-0.8q7.2-10.65 15.85-20.85m11.6-4.85 0.05 0.5-3.5 10.05q-6.65 11.6-14.2 22l-1.15-0.8 0.55-0.05q9.95-15.2 11.75-18.75l-4.75 4.15-0.05 0.15q-2.65 6.55-7.85 14.25h-0.05l-0.7-0.5-1.25-0.9 0.1-0.1 21.05-30m-32.2 45.75q-1 0.2-1.9 0.7l-0.65 0.25 0.7-1 0.8-1.1 0.1 0.2-0.55 0.8 1.05-0.3 0.45 0.45m7.95-14.95q0.05-0.4 0.4-0.85 0.25-0.45 0.65-0.6 0.35-0.2 0.6 0l0.2 0.55-0.35 0.85-0.7 0.6-0.6 0.05q-0.25-0.2-0.2-0.6m0.45-0.25 0.15 0.4h0.45l0.45-0.45 0.3-0.65-0.15-0.4q-0.2-0.15-0.45 0l-0.5 0.5q-0.2 0.3-0.25 0.6" fill="#62a3ac" fill-rule="evenodd"/>
<path d="m280.65 182.95q-8.65 10.2-15.85 20.85l-1.6-1.15q5.1-7 8.2-14.2 4.65-2.35 9-5.7l0.25 0.2m-4.45 28.85-1.6-1.15q7.55-10.4 14.2-22l0.25 0.2q-1.65 5.2-2.3 10.4-5.7 5.35-10.55 12.55m-5.9-5.3q0.45 0.3 0.4 1.05l-0.7 1.65q-0.55 0.8-1.25 1.15l-1.2 0.05q-0.45-0.3-0.35-1.1t0.65-1.6q0.55-0.85 1.3-1.2 0.7-0.35 1.15 0m-2.3 2.4q-0.05 0.4 0.2 0.6l0.6-0.05 0.7-0.6 0.35-0.85-0.2-0.55q-0.25-0.2-0.6 0-0.4 0.15-0.65 0.6-0.35 0.45-0.4 0.85m-9.8 14.9-0.15-1.95 0.55 0.05 0.4 0.8-0.8 1.1" fill="#c4dcdf" fill-rule="evenodd"/>
<path d="m265.95 204.6-0.15-0.55q10.9-14.55 13.65-17.45l-2.3 5.9-0.1 0.1q-5.3 4.7-10.75 12.25l-0.35-0.25m7.5 5.25-0.35-0.25q5.2-7.7 7.85-14.25l0.05-0.15 4.75-4.15q-1.8 3.55-11.75 18.75l-0.55 0.05m-14.35 13.05 0.5 0.5-1.05 0.3 0.55-0.8" fill="#83b7be" fill-rule="evenodd"/>
<path d="m267.05 205.35 1.25 0.9 0.05-0.1 0.05 0.05-0.1 0.1 7.75-8.1-4.9 9.9h0.05l-0.1 0.1 1.25 0.9-0.95 1.45-1.35 1.95-0.3 0.45-1.25-0.9 0.1-0.2-2.9-2-0.1 0.15-1.3-0.9 0.1-0.15 0.2-0.25 1.4-1.95 1.05-1.4m3.25 1.15q-0.45-0.35-1.15 0-0.75 0.35-1.3 1.2-0.55 0.8-0.65 1.6t0.35 1.1l1.2-0.05q0.7-0.35 1.25-1.15l0.7-1.65q0.05-0.75-0.4-1.05" fill="#1b1b1b" fill-rule="evenodd"/>
<path d="m266.35 204.85 0.7 0.5-1.05 1.4-1.4 1.95-0.2 0.25-0.1 0.15-0.7-0.5 0.1-0.15 0.2-0.25 2.45-3.35m6.7 4.75-2.3 3.4-0.3 0.45-0.7-0.5 0.3-0.45 1.35-1.95 0.95-1.45 0.7 0.5" fill="#666" fill-rule="evenodd"/>
<path d="m264.8 203.8 1.15 0.8m-4-2.85 1.25 0.9m29.05-24.55 0.05 0.5 0.1 12.55m-14.95 21.5-1.25-0.85-1.6-1.15-1.15-0.8-0.35-0.25m-0.05 0-2.3 3.4-0.3 0.45m-5.65-9.65-1.6-1.15m3.1 2.2-0.35-0.25" fill="none" stroke="#5f462e" stroke-linecap="round" stroke-linejoin="round" stroke-width=".1"/>
<path d="m289.4 176.1-0.45 0.15-11.85 4.15m-13.2 27.8 2.45-3.35m-2.65 3.6 0.2-0.25m-0.3 0.4 0.1-0.15" fill="none" stroke="#5f462e" stroke-linecap="round" stroke-linejoin="round" stroke-width=".1"/>
<path d="m268.3 206.25 0.05-0.1 21.05-30.05m-12.35 4.25-15.1 21.4" fill="none" stroke="#5f462e" stroke-linecap="round" stroke-linejoin="round" stroke-width=".05"/>
<path d="m292.45 191.15-15 21.5m-6.7 0.35 0.05 0.05q0.25 0.15 0.3 0.45l-0.1 0.5h-0.05l-0.2 0.2 2.05 0.7 1 0.15 0.25 0.05q1.6 0.15 2.35-0.45l-0.25 0.45q-1.1 1.5-4.2 1l-2.95-0.9-0.3-0.1-0.35-0.2-0.75-0.4-4.5 4.8 0.35 2.55-0.45 0.65-0.85-0.3-0.3 0.45-1.25-0.3q-0.3 0.7 0.1 1.4l-0.65 0.1q-1 0.2-1.9 0.7l-0.65 0.25 0.1-0.65q0.15-1.35-0.1-2.7l1-0.1 0.35-0.25-0.25-0.3-0.5-0.75 0.25-0.3 0.1-0.15-0.55-0.7 0.45-0.6 2.5-0.55m1.15-2.2 1.85-3.65-0.4-0.35-0.5-0.45-0.3-0.35-0.05-0.05-1.45-1.8-0.4-0.65q-1.55-2.8-0.45-4.3l0.3-0.35q-0.3 0.75 0.2 1.95l0.8 1.45 1.3 1.65 0.1-0.2 0.05-0.05q0.15-0.25 0.45-0.25l0.4 0.05-0.4-0.05-0.15 0.05m-2.95-4.35-0.05 0.1q-1.1 1.55 0.45 4.3l0.35 0.65m1.8 0.1 0.25 0.4 6.8 4.8 0.5 0.1 0.25-0.1m-7.55-4.8-0.3-0.45v-0.3m8.2-0.45 0.1-0.1 21.05-30m-24.75 36.35-0.05-0.05m-3.6-2.5 0.1 0.1 1.55 1.2 0.1 0.1 0.5 0.35h0.05l1.1 0.7h0.05l0.3 0.15m-2.05-0.15-0.2 0.2m-5.45 5.5 0.65 0.5 1.1 0.65 1.8 0.65m-0.8-11.1 0.35 0.4 0.45 0.4m-2.55 6.2 1.1-2.2m-3.6 2.85-0.05-0.1 2.5-0.55m-2.45 0.65 0.2 0.25m-0.15 0.95 0.15 0.25 0.75 0.75 0.1 0.05 0.65 0.5 0.15 0.1 0.2 0.15 0.4 0.2 1.3 0.6m-2.3-2.15v-0.05l-1.45-1.6m0.9 3.15-0.45-0.45m1.05-1.1h-0.05m0.05 0v0.05m-0.15 1.85 0.15 0.1 0.05 0.05 0.25 0.1 0.4 0.2m-1-0.55 0.15 0.1m-0.45-0.35 0.3 0.25" fill="none" stroke="#5f462e" stroke-linecap="round" stroke-linejoin="round" stroke-width=".05"/>
</g>
</defs>
</svg>
