<?xml version="1.0" encoding="UTF-8"?>
<svg version="1.1" viewBox="0 0 162.03 160.2" xmlns="http://www.w3.org/2000/svg" xmlns:cc="http://creativecommons.org/ns#" xmlns:dc="http://purl.org/dc/elements/1.1/" xmlns:rdf="http://www.w3.org/1999/02/22-rdf-syntax-ns#" xmlns:xlink="http://www.w3.org/1999/xlink">
<metadata>
<rdf:RDF>
<cc:Work rdf:about="">
<dc:format>image/svg+xml</dc:format>
<dc:type rdf:resource="http://purl.org/dc/dcmitype/StillImage"/>
</cc:Work>
</rdf:RDF>
</metadata>
<g transform="translate(-199.43 -322.87)">
<use transform="translate(199.45,322.85)" width="162" height="160.25" xlink:href="#a"/>
</g>
<defs>
<g id="a" transform="translate(-199.45,-322.85)">
<path d="m229.75 448.95-0.7-1.2q1.85-2.5 9.55-15.5 1.65 0.8 3.15 2.9 1.9 2.8 3.4 7.9-1.5-5.1-3.4-7.9l6.75-3.75 5.65-3.25q-1.05-1.45-2.6-1.85 2.6-3.15 6.7-9.4l5.25-8.1 2.4 2.3 3.35-2.2 3.7-2.4 2.9 3.6 1.1 2-2.1 3.2-3.15 5.2 0.05 0.2-0.35 0.35q-3.6 3.45-15.9 10.2l-0.35-1.15-1-1.95 1 1.95-5.55 7.35-4.45 5.6 0.45 1.6-8.05 3.5q-3.5 1.4-6.25 2.2l-1.55-1.4m59-60.3q6.3-4 14.3-10.15 0.2-0.25 0.5-0.4l0.35-0.5 0.55-0.8 6.5-9.35q2.5-3.65 4.35-5.35 1.6 0.9 3 2.3 2.45 2.4 4.35 6.5-1.9-4.1-4.35-6.5 3.5-2.3 8.8-5.4l5.7-3.15 2.3 2.35-4.4 5.4q-4.9 6-7.15 9.35l-0.9-2.05q-1.35 0.55-3.15 1.8-1.15 0.7-2.9 1.95l-5.1 2.95-3.4 2.2-1.3 2.45-0.3-1q-0.95-2.5-2.5-3.55l-0.1-0.1 0.1 0.1q1.55 1.05 2.5 3.55l0.3 1-9.65 17.45-0.85-1.65h-0.05l-4.9 3.1q-2.8 1.85-4.45 3.85l-0.6-1.95q-1.55-3.9-4.8-6.3l5.6-9.15 1.65 1.05q4 2.95 7.45 9.3l0.1 0.1-0.1-0.1q-3.45-6.35-7.45-9.3m-22.85 22.45q3.2 3.5 5.8 9.4-2.6-5.9-5.8-9.4m-15.25 16.3-0.25 0.25 0.25-0.25" fill="#666" fill-rule="evenodd"/>
<path d="m221.85 457.4q-1.65-1.4-2.3-3.65 4.05-0.5 7.25-3.4l2.25-2.6 0.7 1.2q-1.65 1.2-4 3.65-2.7 2.7-3.9 4.8m113.25-99.2-2.3-2.35-1.15-1.15-0.85-0.6 2.65-0.35q2.2-0.6 4.55-3.1l2.8-3.5 1.25 1.6-2.55 3-2.75 4-1 1.7-0.45 1-0.2-0.25m-53.6 38.55q3.25 2.4 4.8 6.3l-1.45 0.55q-2.2 0.9-3.85 1.85-0.1 0-0.05 0.1l-0.95-1.4q-1.1 1.15-3.1 4.2l-1.05 1.75-2.9-3.6-1.35-1.25 6.5-2.3-0.05-0.15 0.15-0.25v0.05l0.1-0.15q0.05-0.4 0.3-0.35 1.45-3.6 2.45-5.65l0.45 0.3m-3.3 5.85h0.05l0.1 0.05 0.2 0.15 1.45 1.35-1.45-1.35-0.2-0.15-0.1-0.05h-0.05" fill="#fc0" fill-rule="evenodd"/>
<path d="m227.5 441.7 2.15-0.5-1.55 2.7-0.6-2.2m100.8-86.1v-3.15l2.5 1.65 0.85 0.6-3.35 0.9m8.35 6.3-3 0.8 2.25-3.55 0.75 2.75m-100.95 88.45-0.95 2.65-1.45-2 2.4-0.65" fill="#f90" fill-rule="evenodd"/>
<path d="m335.1 358.2 0.2 0.25-0.2-0.25" fill="#333" fill-rule="evenodd"/>
<path d="m225.1 458.95q-1.95-0.55-3.25-1.55 1.2-2.1 3.9-4.8 2.35-2.45 4-3.65l1.55 1.4 2 0.65 1.45 2-1 0.25q-5.05-0.45-8.65 5.7m117.6-106q-4.05 0.7-6.05 8.95l-0.75-2.75-0.6-0.7 0.45-1 1-1.7 2.75-4 2.55-3q0.75 1.4 0.3 3.4l0.35 0.8" fill="#e3b602" fill-rule="evenodd"/>
<path d="m219.55 453.75-0.05-0.05q-0.25-1-0.35-2.2 5.4-2.15 8.35-9.8l0.6 2.2q0.25 2.35 0.95 3.85l-2.25 2.6q-3.2 2.9-7.25 3.4m50.15-50.15 5.8-2.15 0.4-0.15-0.25-0.15 3.1-5.95q1.25 0.55 2.3 1.25-1 2.05-2.45 5.65-0.25-0.05-0.3 0.35l-0.1 0.15v-0.05l-0.15 0.25 0.05 0.15-6.5 2.3-0.15-0.2-1.75-1.45m58.6-51.15q7.7-1.65 10.1-6.65h0.25l2.15 1.35-2.8 3.5q-2.35 2.5-4.55 3.1l-2.65 0.35-2.5-1.65m-52.4 48.85q1.3 0.5 2.3 1.25-1-0.75-2.3-1.25" fill="#feeba3" fill-rule="evenodd"/>
<path d="m287.35 407.55-5.2 2.35-3.8 6.45q-0.4-2.2-1.4-4.25l-1.1-2 1.05-1.75q2-3.05 3.1-4.2l0.95 1.4q-0.05-0.1 0.05-0.1 1.65-0.95 3.85-1.85l1.45-0.55 0.6 1.95 0.45 2.55m-5.2 2.35q-0.2-2.5-1.2-4.35 1 1.85 1.2 4.35" fill="#c19a02" fill-rule="evenodd"/>
<path d="m212.85 401.7q-8.3 34.8 2.4 52.95 2.45 4.15 5.9 7.45 14.3 13.6 45.75 12.1-37.6 16.6-54.45 0.3l-3.25-7.05q-2.3-5.3-3.95-11.65-3.2-11.8-1.7-25.9 1-8.85 3.8-18.05 2.4-5.05 5.5-10.15" fill="url(#n)" fill-rule="evenodd"/>
<path d="m338.65 345.8-0.1-0.1q-13.65-15.85-56.55 3.55l7.1-6.4q48.75-20.75 58.75 4.5 5.95 18.15-4.45 54.45l-6.55 10.05q12.35-40.8 5.85-58.9l0.1-0.15-0.45-0.65q0.45-2-0.3-3.4l-1.25-1.6-2.15-1.35" fill="url(#m)" fill-rule="evenodd"/>
<path d="m229.65 441.2 5.15-8.95 0.1-0.05q1.9-0.7 3.7 0.05-7.7 13-9.55 15.5-0.7-1.5-0.95-3.85l1.55-2.7" fill="url(#i)" fill-rule="evenodd"/>
<path d="m250.1 426.2 10.45-19.15q1.5 0.65 2.95 1.75l-5.25 8.1q-4.1 6.25-6.7 9.4l-1.45-0.1" fill="url(#h)" fill-rule="evenodd"/>
<path d="m278.75 395.2 4.6-9q1.85 0.35 3.75 1.4l-5.6 9.15-0.45-0.3q-1.05-0.7-2.3-1.25" fill="url(#g)" fill-rule="evenodd"/>
<path d="m301.9 376.95 10.85-15.8q1.35 0.35 2.55 0.95-1.85 1.7-4.35 5.35l-6.5 9.35-0.55 0.8q-0.9-0.55-2-0.65" fill="url(#f)" fill-rule="evenodd"/>
<path d="m324.85 376.75-17.75 6.65-0.3-1.15 1.3-2.45 3.4-2.2 5.1-2.95q1.75-1.25 2.9-1.95 1.8-1.25 3.15-1.8l0.9 2.05 1.3 3.8" fill="url(#e)" fill-rule="evenodd"/>
<path d="m298.5 402.6-11.15 4.95-0.45-2.55q1.65-2 4.45-3.85l4.9-3.1h0.05l0.85 1.65 1.35 2.9" fill="url(#d)" fill-rule="evenodd"/>
<path d="m273.35 424.9-17.4 8.9-0.45-2.55q12.3-6.75 15.9-10.2l0.35-0.35 1.6 4.2" fill="url(#c)" fill-rule="evenodd"/>
<path d="m246.3 447.5-10.6 2.85-2.4 0.65-2-0.65q2.75-0.8 6.25-2.2l8.05-3.5 0.7 2.85" fill="url(#b)" fill-rule="evenodd"/>
<path d="m212.85 401.7q2.3-3.8 5-7.55-10.1 38.1 1.3 57.35 0.1 1.2 0.35 2.2l0.05 0.05q0.65 2.25 2.3 3.65 1.3 1 3.25 1.55 15 14.2 48.9 11.9l-7.1 3.35q-31.45 1.5-45.75-12.1-3.45-3.3-5.9-7.45-10.7-18.15-2.4-52.95" fill="url(#l)" fill-rule="evenodd"/>
<path d="m289.1 342.85 8.2-6.45q1.1-1 2.95-2.15 1.7-0.55 3.45-1l12.75-3.65q7.65-2.3 12.6-3.1 4.95-0.75 16.7 1.7 4.7 3.05 9.3 8.1 9.05 10.05 4.25 29.5-3.7 15.15-15.9 36 10.4-36.3 4.45-54.45-10-25.25-58.75-4.5" fill="url(#k)" fill-rule="evenodd"/>
<path d="m234.9 432.2 15.2-6 1.45 0.1q1.55 0.4 2.6 1.85l-5.65 3.25-6.75 3.75q-1.5-2.1-3.15-2.9-1.8-0.75-3.7-0.05m25.65-25.15 9.15-3.45 1.75 1.45 0.15 0.2 1.35 1.25-3.7 2.4-3.35 2.2-2.4-2.3q-1.45-1.1-2.95-1.75m22.8-20.85 18.55-9.25q1.1 0.1 2 0.65l-0.35 0.5q-0.3 0.15-0.5 0.4-8 6.15-14.3 10.15l-1.65-1.05q-1.9-1.05-3.75-1.4m29.4-25.05q7.75-2.75 15.55-5.55l3.35-0.9 1.15 1.15-5.7 3.15q-5.3 3.1-8.8 5.4-1.4-1.4-3-2.3-1.2-0.6-2.55-0.95m20.9 1.55-8.45 13.9-0.35 0.15-1.3-3.8q2.25-3.35 7.15-9.35l4.4-5.4 0.2 0.25 0.6 0.7-2.25 3.55m-26.55 20.7-8.6 19.2-1.35-2.9 9.65-17.45 0.3 1.15m-28.75 32.95-5 8.55-1.6-4.2-0.05-0.2 3.15-5.2 2.1-3.2q1 2.05 1.4 4.25m-22.4 17.45-9.65 13.7-0.7-2.85-0.45-1.6 4.45-5.6 5.55-7.35 0.35 1.15 0.45 2.55m-5.3-6.4-0.25 0.25 0.25-0.25" fill="#484848" fill-rule="evenodd"/>
<path d="m207.35 411.85q-2.8 9.2-3.8 18.05-1.5 14.1 1.7 25.9 1.65 6.35 3.95 11.65l3.25 7.05q-3.9-3.75-6.7-9.25-12.4-24.3 1.6-53.4" fill="#fff" fill-rule="evenodd"/>
<path d="m300.25 334.25q4.8-2.95 14.45-6.75l5.8-2.25q13.15-4.9 25.25 2.95-11.75-2.45-16.7-1.7-4.95 0.8-12.6 3.1l-12.75 3.65q-1.75 0.45-3.45 1" fill="url(#j)" fill-rule="evenodd"/>
<path d="m219.15 451.5q-11.4-19.25-1.3-57.35-2.7 3.75-5 7.55-8.3 34.8 2.4 52.95 2.45 4.15 5.9 7.45 14.3 13.6 45.75 12.1l7.1-3.35q-33.9 2.3-48.9-11.9-1.95-0.55-3.25-1.55-1.65-1.4-2.3-3.65m-0.05-0.05q-0.25-1-0.35-2.2 5.4-2.15 8.35-9.8l2.15-0.5 5.15-8.95 0.1-0.05 15.2-6 10.45-19.15 9.15-3.45 5.8-2.15 0.15-0.3 3.1-5.95 4.6-9 18.55-9.25 10.85-15.8q7.75-2.75 15.55-5.55v-3.15q7.7-1.65 10.1-6.65h0.25l-0.1-0.1q-13.65-15.85-56.55 3.55l7.1-6.4 8.2-6.45q1.1-1 2.95-2.15 4.8-2.95 14.45-6.75l5.8-2.25q13.15-4.9 25.25 2.95 4.7 3.05 9.3 8.1 9.05 10.05 4.25 29.5-3.7 15.15-15.9 36l-6.55 10.05q12.35-40.8 5.85-58.9-4.05 0.7-6.05 8.95l-3 0.8-8.45 13.9-0.35 0.15-17.75 6.65-8.6 19.2-11.15 4.95-5.2 2.35-3.8 6.45-5 8.55-17.4 8.9-9.65 13.7-10.6 2.85-0.95 2.65-1 0.25q-5.05-0.45-8.65 5.7m-17.75-47.1q-14 29.1-1.6 53.4 2.8 5.5 6.7 9.25 16.85 16.3 54.45-0.3m-37.15-25.25-0.7-1.2q-0.7-1.5-0.95-3.85l-0.6-2.2m5.8 9.3-2-0.65-1.55-1.4m5 4.05-1.45-2 2.4-0.65m9.9-5.7-0.45-1.6q-1.5-5.1-3.4-7.9-1.5-2.1-3.15-2.9m-10.5 11.65 1.55-2.7m-16.8-39.5q-3.1 5.1-5.5 10.15m96.55-34.25q-0.9-0.55-2-0.65m13.4-14.85q-1.2-0.6-2.55-0.95m9.9 9.75q-1.9-4.1-4.35-6.5-1.4-1.4-3-2.3m-8.5 20.15 0.3 1.15m-3.2-5.8 0.1 0.1q1.55 1.05 2.5 3.55l0.3 1m-9.65 17.45 1.35 2.9m25.05-29.65-0.9-2.05m2.2 5.85-1.3-3.8m11.55-14.75-2.3-2.35m8-8.7-2.15-1.35m2.15 1.35 1.25 1.6q0.75 1.4 0.3 3.4l0.45 0.65-0.1 0.15-0.35-0.8m-11.55 1.95 0.85 0.6 1.15 1.15m2.3 2.35 0.2 0.25m0.6 0.7 0.75 2.75m-3 0.8 2.25-3.55-0.6-0.7m-3.65-3.75-3.35 0.9m0-3.15 2.5 1.65m12.6 47.7q10.4-36.3 4.45-54.45-10-25.25-58.75-4.5m-2 44.75q-1.9-1.05-3.75-1.4m5.4 2.45-1.65-1.05m-5.6 9.15q3.25 2.4 4.8 6.3l0.6 1.95 0.45 2.55m8.95-9.5-0.1-0.1q-3.45-6.35-7.45-9.3m8.4 11.05-0.85-1.65m-15.25-1.6 0.45 0.3m-6 4.7 0.4-0.15m-4.3 3.95 1.35 1.25 2.9 3.6 1.1 2q1 2.05 1.4 4.25m1.65-12.2-1.45-1.35-0.2-0.15-0.1-0.05h-0.05v-0.05q-1-0.75-2.3-1.25m5.15-4.85q-1.05-0.7-2.3-1.25m-9.05 8.4 1.75 1.45m9.5 0.5q1 1.85 1.2 4.35m-2.15-5.75 0.95 1.4m-9.2 15.15-0.05-0.2q-2.6-5.9-5.8-9.4l-2.4-2.3q-1.45-1.1-2.95-1.75m-9 19.25q1.55 0.4 2.6 1.85l1 1.95 0.35 1.15 0.45 2.55m15.8-13.1 1.6 4.2m-38.45 7.3q1.9-0.7 3.7 0.05m7 12.4 0.7 2.85m3.8-21.3 1.45 0.1" fill="none" stroke="#003" stroke-linecap="round" stroke-linejoin="round" stroke-opacity=".41176"/>
</g>
<linearGradient id="n" x1="-819.2" x2="819.2" gradientTransform="matrix(.01 -.006 .0266 .0481 218.65 450.75)" gradientUnits="userSpaceOnUse">
<stop stop-color="#fffdfa" offset="0"/>
<stop stop-color="#ccc" offset="1"/>
</linearGradient>
<linearGradient id="m" x1="-819.2" x2="819.2" gradientTransform="matrix(7e-4 -.0013 .0408 .0257 330.5 341.7)" gradientUnits="userSpaceOnUse">
<stop stop-color="#fffdfa" offset="0"/>
<stop stop-color="#ccc" offset="1"/>
</linearGradient>
<linearGradient id="i" x1="-819.2" x2="819.2" gradientTransform="matrix(.0051 -.0055 .0027 .0029 233.45 438.3)" gradientUnits="userSpaceOnUse">
<stop stop-color="#fffdfa" offset="0"/>
<stop stop-color="#373737" offset="1"/>
</linearGradient>
<linearGradient id="h" x1="-819.2" x2="819.2" gradientTransform="matrix(.005 -.0054 .0027 .0029 258.55 414)" gradientUnits="userSpaceOnUse">
<stop stop-color="#fffdfa" offset="0"/>
<stop stop-color="#373737" offset="1"/>
</linearGradient>
<linearGradient id="g" x1="-819.2" x2="819.2" gradientTransform="matrix(.0052 -.0056 .0025 .0026 284 389.8)" gradientUnits="userSpaceOnUse">
<stop stop-color="#fffdfa" offset="0"/>
<stop stop-color="#373737" offset="1"/>
</linearGradient>
<linearGradient id="f" x1="-819.2" x2="819.2" gradientTransform="matrix(.0021 -.004 .0026 .0016 308.45 369.7)" gradientUnits="userSpaceOnUse">
<stop stop-color="#fffdfa" offset="0"/>
<stop stop-color="#373737" offset="1"/>
</linearGradient>
<linearGradient id="e" x1="-819.2" x2="819.2" gradientTransform="matrix(.0116 -.007 .0019 .0034 320.35 375.75)" gradientUnits="userSpaceOnUse">
<stop stop-color="#fffdfa" offset="0"/>
<stop stop-color="#373737" offset="1"/>
</linearGradient>
<linearGradient id="d" x1="-819.2" x2="819.2" gradientTransform="matrix(.0042 -.0025 .0015 .0027 293.5 402.6)" gradientUnits="userSpaceOnUse">
<stop stop-color="#fffdfa" offset="0"/>
<stop stop-color="#373737" offset="1"/>
</linearGradient>
<linearGradient id="c" x1="-819.2" x2="819.2" gradientTransform="matrix(.0059 -.0036 .0013 .0024 266.9 426.15)" gradientUnits="userSpaceOnUse">
<stop stop-color="#fffdfa" offset="0"/>
<stop stop-color="#373737" offset="1"/>
</linearGradient>
<linearGradient id="b" x1="-819.2" x2="819.2" gradientTransform="matrix(.0087 -.0023 5e-4 .0017 243.9 446.6)" gradientUnits="userSpaceOnUse">
<stop stop-color="#fffdfa" offset="0"/>
<stop stop-color="#373737" offset="1"/>
</linearGradient>
<linearGradient id="l" x1="-819.2" x2="819.2" gradientTransform="matrix(.027 .017 -.0161 .0306 247.25 446)" gradientUnits="userSpaceOnUse">
<stop stop-color="#999" offset="0"/>
<stop stop-color="#484848" offset="1"/>
</linearGradient>
<linearGradient id="k" x1="-819.2" x2="819.2" gradientTransform="matrix(.0122 .0077 -.0181 .0344 340.1 362.2)" gradientUnits="userSpaceOnUse">
<stop stop-color="#999" offset="0"/>
<stop stop-color="#484848" offset="1"/>
</linearGradient>
<linearGradient id="j" x1="-819.2" x2="819.2" gradientTransform="matrix(.0268 -.0072 .0015 .0056 322.5 329.5)" gradientUnits="userSpaceOnUse">
<stop stop-color="#999" offset="0"/>
<stop stop-color="#ddd" offset="1"/>
</linearGradient>
</defs>
</svg>
