<?xml version="1.0" encoding="UTF-8"?>
<svg version="1.1" viewBox="0 0 31.129 49.662" xmlns="http://www.w3.org/2000/svg" xmlns:cc="http://creativecommons.org/ns#" xmlns:dc="http://purl.org/dc/elements/1.1/" xmlns:rdf="http://www.w3.org/1999/02/22-rdf-syntax-ns#" xmlns:xlink="http://www.w3.org/1999/xlink">
<metadata>
<rdf:RDF>
<cc:Work rdf:about="">
<dc:format>image/svg+xml</dc:format>
<dc:type rdf:resource="http://purl.org/dc/dcmitype/StillImage"/>
</cc:Work>
</rdf:RDF>
</metadata>
<g transform="translate(-259.4 -175.63)">
<use transform="matrix(1.141 0 0 1.141 259.37 175.63)" width="27.299999" height="43.5" xlink:href="#a"/>
</g>
<defs>
<g id="a" transform="translate(13.65,21.75)">
<use transform="translate(-13.65,-21.75)" width="27.299999" height="43.5" xlink:href="#b"/>
</g>
<g id="b" transform="translate(13.65,21.75)">
<path d="m13.3-21.65v0.05l-13.85 23.75q-0.65-0.4-1.5-0.4-1.2 0-2.05 0.85l-0.75 1.35-0.3-0.15 0.3 0.15v0.05l-0.3-0.2-2.1-1.3q3.3-7.25 6.2-12l0.7 0.6q0.95-0.15 2.55-1.25 1.6-1.15 3.45-3.15 1.8-2.05 2.9-4.4l0.75-2.3 1.75-0.8 1.7-0.65 0.4-0.15 0.15-0.05m-25.5 23.5 0.45-1.2 1.4-3.15q0.85-1.7 2.3-3.3l0.4 0.9q-1 0.65-2 3.5l-1.2 3-0.45 0.25h-0.9" fill="#c4dcdf" fill-rule="evenodd"/>
<path d="m-7.25 2.5 2.1 1.3 0.3 0.2v-0.05l1.5 0.95 1.65 1.25-0.45-0.5 1.95 1.25 0.1 0.05 1.15 0.75 0.7 0.4 0.5 0.35 0.15 0.1 0.45 0.25 1 0.65 0.05-0.1 0.1-0.05 0.55 1.3-0.55-1.3-0.05-0.05q1.8-0.15 3.25-4.35l2.7 0.4-5.05 5.25-0.3 0.05-1 0.05-3.55-1.95-4.85-2.8q-2.45-1.45-4.9-3.1l-1.45-0.15q-0.55-0.35-1.05-0.65l0.05-0.15h0.9l0.45-0.25 1.2-3q1-2.85 2-3.5l1 2.35 0.1 0.05q-0.9 1.2-1.8 4.3l1.1 0.7m-1.1-0.7-2.95 0.05 2.95-0.05m-2.4 16 1.45 0.25q0.7-0.1 1.05-0.65 0.3-0.6 0.05-1.25l-0.1-0.3 1.25 0.8 0.5 0.9q0.35 1.05-0.15 1.95-0.55 0.9-1.65 1.1-1.15 0.2-2.25-0.4-1.1-0.65-1.45-1.7-0.4-1.1 0.15-2l0.15-0.25 0.05 0.45 0.95 1.1" fill="#598a93" fill-rule="evenodd"/>
<path d="m9.3-20-0.75 2.3q-1.1 2.35-2.9 4.4-1.85 2-3.45 3.15-1.6 1.1-2.55 1.25l-0.7-0.6 3.05-4.35q3.05-3.9 7.3-6.15" fill="#e9f2f3" fill-rule="evenodd"/>
<path d="m-0.1 6.95q0.6 0.15 0.7-0.5 0.15-1.25 2-5.3 1.85-4.1 3.7-6.35l3.45-4.85 0.45-0.8 3.25-4.55-0.3 2.45-1.55 5.75q-3.2 8.55-8.7 15.95l-0.45-0.25-0.6-0.35-0.1-0.05-0.7-0.4-1.15-0.75m-5.4 9.95 0.2 0.35q0.5 1.55-0.25 2.85t-2.4 1.55q-1.7 0.3-3.25-0.6-1.55-0.95-2.15-2.5-0.55-1.6 0.2-2.9t2.45-1.6h0.05l0.15-0.2v0.05l0.75 0.5 0.1 0.05 4.15 2.45m-5-2-0.8 0.5-0.1 0.6 0.1 0.3 0.65 0.8 1.05 0.2 0.75-0.5q0.25-0.4 0.05-0.9l-0.15-0.4-0.5-0.4-1.05-0.2m-0.25 2.9-0.95-1.1-0.05-0.45-0.15 0.25q-0.55 0.9-0.15 2 0.35 1.05 1.45 1.7 1.1 0.6 2.25 0.4 1.1-0.2 1.65-1.1 0.5-0.9 0.15-1.95l-0.5-0.9-1.25-0.8 0.1 0.3q0.25 0.65-0.05 1.25-0.35 0.55-1.05 0.65l-1.45-0.25" fill="#83b7be" fill-rule="evenodd"/>
<path d="m-0.55 2.15 13.85-23.75v-0.05l0.2-0.05v0.1l0.1 3.9-0.1 2.05-0.05 0.25-3.25 4.55-0.45 0.8-3.45 4.85q-1.85 2.25-3.7 6.35-1.85 4.05-2 5.3-0.1 0.65-0.7 0.5l-0.1-0.05 0.2-0.2q0.85-0.85 0.85-2.05t-0.85-2.05l-0.55-0.45" fill="#62a3ac" fill-rule="evenodd"/>
<path d="m-4.85 3.95 0.75-1.35q0.85-0.85 2.05-0.85 0.85 0 1.5 0.4l0.55 0.45q0.85 0.85 0.85 2.05t-0.85 2.05l-0.2 0.2-1.95-1.25-1.2-0.75-1.5-0.95" fill="#fc3" fill-rule="evenodd"/>
<path d="M 2.9,8.75 3.3,9 3.85,9.4 3.9,9.35 3.85,9.45 2.85,8.8 2.4,8.55 2.25,8.45 1.85,8.15 2.45,8.5 2.9,8.75 2.85,8.8 2.9,8.75 M 2.4,8.55 2.45,8.5 2.4,8.55" fill="#f1f16c" fill-rule="evenodd"/>
<path d="m4 9.3-0.1 0.05 0.1-0.05m-1.75-0.85-0.5-0.35 0.1 0.05 0.4 0.3" fill="#78783b" fill-rule="evenodd"/>
<path d="m9.9 5.3 1.2 0.2-1.6 2.7q-1.7 2.45-3.8 4.65l-0.15 0.2-6.35-3.95-0.3-0.2-0.55-0.3-4.35-2.7-0.2-0.15-5-3.1 1.45 0.15q2.45 1.65 4.9 3.1l4.85 2.8 3.55 1.95 1-0.05 0.3-0.05 5.05-5.25m-13.25-0.4 1.2 0.75 0.45 0.5-1.65-1.25m7.9 5.7 1.05 2.3v0.05l0.1-0.1-0.1 0.1-0.05 0.1 0.05-0.1v-0.05l-1.05-2.3" fill="#3f6167" fill-rule="evenodd"/>
<path d="m-0.8 9.1-1.4 2.45-0.45 0.75 0.45-0.7-2.65 4.55h-0.05l-0.6 0.75-4.15-2.45 1.7-0.05 0.5-0.3-0.8-1.95 1.85 0.85q1.55-0.5 1.65-2.15l0.2-1.9-2.6-1.6 0.95-1.6 0.2 0.15 4.35 2.7 0.55 0.3 0.3 0.2m-1 1.75-0.4 0.7 0.4-0.7" fill="#58382b" fill-rule="evenodd"/>
<path d="m-10.5 13.85 0.35-0.8h-0.05l0.05-0.1 1.1-2.25 0.25-0.45 0.3-0.5 0.15-0.1 1.2-2.3 2.6 1.6-0.2 1.9q-0.1 1.65-1.65 2.15l-1.85-0.85 0.8 1.95-0.5 0.3-1.7 0.05-0.1-0.05-0.75-0.55m1.7-3.6 0.45-0.6-0.45 0.6" fill="#a1664c" fill-rule="evenodd"/>
<path d="m-10.5 14.9 1.05 0.2 0.5 0.4 0.15 0.4q0.2 0.5-0.05 0.9l-0.75 0.5-1.05-0.2-0.65-0.8-0.1-0.3 0.1-0.6 0.8-0.5" fill="#cae0e3" fill-rule="evenodd"/>
<path d="m-0.55 2.15 13.85-23.75v-0.05m-18.45 25.45 0.3 0.15 0.75-1.35q0.85-0.85 2.05-0.85 0.85 0 1.5 0.4l0.55 0.45q0.85 0.85 0.85 2.05t-0.85 2.05l-0.2 0.2 0.1 0.05m-3.25-2.05 1.2 0.75 1.95 1.25m-3.15-2-1.5-0.95v0.05m7.1 4.45-0.5-0.35-0.7-0.4" fill="none" stroke="#5f462e" stroke-linecap="round" stroke-linejoin="round" stroke-width=".05"/>
<path d="m13.3-21.65-0.15 0.05-0.4 0.15-1.7 0.65-1.75 0.8m-10.35 10.5q-2.9 4.75-6.2 12l2.1 1.3m18.6-19.2 0.05-0.25 0.1-2.05-0.1-3.9v-0.1l-0.2 0.05m0.15 6.25-0.3 2.45-1.55 5.75q-3.2 8.55-8.7 15.95m1 0.6 0.05-0.1q1.8-0.15 3.25-4.35l2.7 0.4 1.2 0.2-1.6 2.7q-1.7 2.45-3.8 4.65l-0.1 0.1-0.05 0.1-6.35-3.95-1 1.75m-0.2 0.35-0.2 0.35-0.45 0.75m0.45-0.7-2.65 4.55m-0.05 0-0.6 0.75 0.2 0.35q0.5 1.55-0.25 2.85t-2.4 1.55q-1.7 0.3-3.25-0.6-1.55-0.95-2.15-2.5-0.55-1.6 0.2-2.9t2.45-1.6h0.05l0.15-0.2 0.35-0.8m-0.05 0 0.05-0.1 1.1-2.25 0.25-0.45 0.3-0.5m0.15-0.1 1.2-2.3 0.95-1.6-5-3.1q-0.55-0.35-1.05-0.65l0.05-0.15 0.45-1.2 1.4-3.15q0.85-1.7 2.3-3.3l0.4 0.9 1 2.35 0.1 0.05q-0.9 1.2-1.8 4.3l1.1 0.7m6.2-12 3.05-4.35q3.05-3.9 7.3-6.15m-20.6 21.85 2.95-0.05m3.5 2.2-0.3-0.2m-1.05 1.95 0.2 0.15m4.35 2.7 0.55 0.3m-7.25 0.75-0.45 0.6m6.6 1.3 0.4-0.7m6.35-0.25-0.55-1.3m-0.1 0.05-0.05 0.1-1-0.65-0.45-0.25-0.15-0.1m-1.2-0.75-1.15-0.75m-11.2-5.1h-0.9m15.05 6.95 0.05-0.05m-0.45-0.25-0.05 0.05m3.2 4.4v-0.05l-1.05-2.3" fill="none" stroke="#5f462e" stroke-linecap="round" stroke-linejoin="round" stroke-width=".1"/>
</g>
</defs>
</svg>
