<?xml version="1.0" encoding="UTF-8"?>
<svg version="1.1" viewBox="0 0 56.1 57.4" xmlns="http://www.w3.org/2000/svg" xmlns:cc="http://creativecommons.org/ns#" xmlns:dc="http://purl.org/dc/elements/1.1/" xmlns:rdf="http://www.w3.org/1999/02/22-rdf-syntax-ns#" xmlns:xlink="http://www.w3.org/1999/xlink">
<metadata>
<rdf:RDF>
<cc:Work rdf:about="">
<dc:format>image/svg+xml</dc:format>
<dc:type rdf:resource="http://purl.org/dc/dcmitype/StillImage"/>
</cc:Work>
</rdf:RDF>
</metadata>
<g transform="translate(-246.02 -169.92)">
<use transform="translate(246,169.95)" width="56.099998" height="57.349998" xlink:href="#a"/>
</g>
<defs>
<g id="a" transform="translate(28.1,28.65)">
<path d="m4-4.7 23.95-23.95 0.05 0.2-4.15 4.1-5.45 5.45-4.05 4.1-10.3 10.3-0.05-0.2m11.9-3-0.85 0.35q1.4-0.65 1.35-2.1l-0.2-0.3 0.3 0.4q0.05 1-0.6 1.65m-27.3 25.8-0.2 0.1 0.9-2.65 0.15-0.1-0.85 2.65m-6.05-2.1 0.35-0.35 1.65-1.8 0.2 0.05-1.8 1.85-0.05-0.1-0.15 0.2-0.2 0.15m0.65-2.35-0.2-0.05 3.95-4.65 5.75-3.45 2.2-4.8 10.3-10.3-0.4 0.6-1.15 1.15-0.95 1-3.1 3.05-2.7 2.75-1.9 1.85-2.1 4.55-0.1 0.25-2.85 1.7-2.1 1.3-0.8 0.45-3.85 4.6m9.7-8.3-0.2 0.15 0.2-0.15" fill="#d7deea" fill-rule="evenodd"/>
<path d="m28-28.45-0.05 2.35-0.4 2.55-0.45 1.95-1.8 0.55 0.15 0.1 1.05 1.05-0.9 2-0.55 1.05-1.2-7.5 4.15-4.1m-4.2 13.5-1.45 1.8-0.8 0.9-0.35-9.45 1.6-1.6 1 8.35m-4.7 5-1.1 0.9-0.6 0.45-1.05 0.65-0.45 0.25q0.65-0.65 0.6-1.65l-0.3-0.4-0.05-0.05-0.05-0.1-0.7-0.2-3.9 2.25-7.85 10.75v-4.2l-0.35 0.45-0.6 0.35v4.7l-2.45 3.4-0.3-5.35 2.1-2.35 0.65-0.4-0.65 0.4-2.1 2.35-2.45 2.75 0.6 5.45-1.3 1.8-0.15 0.2-0.6-5.8-0.95 1.05-2.4 2.7 2.4-2.7 0.5 5.45-2.35 1.7-0.55-4.45-1.15 1.35-0.3 0.35-0.55 0.15 0.55-0.15 0.3-0.35 0.45 3.95-3.4 2.4 0.85-2.65-0.15 0.1 0.05-0.2-4.55 2.2-0.85-0.35-0.6-0.55 2.45-2.8 2.8-0.9-2.8 0.9-2.45 2.8-0.4-0.9 1.8-1.85-0.2-0.05 0.1-0.05-1.45-0.15 3.85-4.6 0.8-0.45 0.75 4.35 2.1-0.7-0.75-4.95 2.85-1.7 0.1-0.25 2.1-4.55 1.9-1.85 0.3 3.15-1.7 1.7-2.6 1.55 2.6-1.55 4.3-4.3-0.2-3.3 3.1-3.05v3.45l-2.9 2.9 3.85-3.85v-3.5l1.15-1.15q-1.1 1.9-0.85 4.35l0.05-0.05 0.05 0.2 7.75-7.75 0.05 2.4q-2.05 1.8-3.95 3.75l-0.6 0.65-3.65 4.15 3.65-4.15 0.6-0.65q1.9-1.95 3.95-3.75l2.2-1.85 0.55-0.4-0.25-2.7 4.05-4.1 0.7 8.95m-15.15 5.3-0.3 0.3 0.3-0.3m13.45-3.95q0.85-0.75 1.1-1.95-0.15-3.3-2.9-2.1l-1 0.55 1-0.55q2.75-1.2 2.9 2.1-0.25 1.2-1.1 1.95m-19.9 13.6-1.45 1.65 1.45-1.65" fill="#cce9b4" fill-rule="evenodd"/>
<path d="m21.55-12.25-2.45 2.3-0.7-8.95 2.8-2.8 0.35 9.45m-17.9 15.15-0.95 1.3v-4.7l0.6-0.35 0.35-0.45v4.2m-7 9.55-0.05 0.05-1 0.65-0.5-5.45 0.95-1.05 0.6 5.8m6.05-19.3 0.95-1v3.5l-0.95 0.95v-3.45m-12.75 14.15 0.75 4.95-2.1 0.7-0.75-4.35 2.1-1.3" fill="#fff" fill-rule="evenodd"/>
<path d="m25.05-16.85-1.25 1.9-1-8.35 1.05-1.05 1.2 7.5m-24.8 24.45-1.25 1.65-0.9 1.2-0.6-5.45 2.45-2.75 0.3 5.35m-7 7.25-1.25 0.85-0.45-3.95 1.15-1.35 0.55 4.45m18.55-27.1 2.55-2.55 0.25 2.7-0.55 0.4-2.2 1.85-0.05-2.4m-12.2 8.45 0.2 3.3-2.6 2.6-0.3-3.15 2.7-2.75" fill="#a6c081" fill-rule="evenodd"/>
<path d="m-15.2 17.55-0.35 0.35h-0.2l-0.85-0.45-0.2-0.2-0.6-1.15v-0.05l-0.05-0.05 0.2-0.15 0.15-0.2 0.05 0.1 0.4 0.9 0.6 0.55 0.85 0.35m-10.25 9.15-0.05 0.1-0.05 0.05-0.3 0.15h-0.15l-0.3-0.2-0.15-0.3v-0.1l0.15-0.25 0.1-0.1 0.2 0.25-0.2-0.25-0.1 0.1-0.15 0.25v0.1-0.2l0.1-0.25 0.1-0.1 0.2 0.25v0.05l0.35 0.3 0.15 0.15h0.1m10.1-9-0.6-0.2-0.25-0.1-0.1-0.05-0.45-0.45-0.05-0.1-0.25-0.35-0.2-0.55v-0.05 0.05l0.2 0.55 0.25 0.35 0.05 0.1 0.45 0.45 0.1 0.05 0.25 0.1 0.6 0.2m-10.65 8.65 0.35 0.35 0.15 0.1-0.15-0.1-0.35-0.35v-0.05 0.05" fill="#f1a050" fill-rule="evenodd"/>
<path d="m-28.05 28.45 0.05-0.55 0.6-0.85 0.9-0.65h0.05v0.1l0.15 0.3 0.3 0.2h0.1v0.05l-0.65 0.85-0.85 0.6q-0.45 0.2-0.6 0l-0.05-0.05 0.1-0.45 0.6-0.85 0.9-0.65-0.9 0.65-0.6 0.85-0.1 0.45m1.85-3.7 8.75-8.75 0.05 0.05v0.05l0.6 1.15-1.75 2-1.35 1.7-1.2 1.15q-2.2 1.95-3.85 4.3l0.4 0.2-0.9-0.5-0.75-1.35m2.95-1.7 5.65-5.65-5.65 5.65m-1.5 1.85 0.75-0.75-0.75 0.75" fill="#8e0202" fill-rule="evenodd"/>
<path d="m-15.55 17.9-8.75 8.75h-0.1l-0.15-0.05-0.4-0.2q1.65-2.35 3.85-4.3l1.2-1.15 1.35-1.7 1.75-2 0.2 0.2 0.85 0.45h0.2" fill="#4e1212" fill-rule="evenodd"/>
<path d="M 3.95,-4.65 4,-4.7" fill="none" stroke="#3e2f7b" stroke-linecap="round" stroke-linejoin="round" stroke-width=".05"/>
<path d="m-25.85 27.1v0.05m-0.15-0.8v-0.05" fill="none" stroke="#411414" stroke-linecap="round" stroke-linejoin="round" stroke-width=".05"/>
<path d="m4-4.7 23.95-23.95 0.05 0.2-0.05 2.35-0.4 2.55-0.45 1.95-1.8 0.55 0.15 0.1m1.05 1.05-0.9 2-0.55 1.05-1.25 1.9-1.45 1.8-0.8 0.9-2.45 2.3-1.1 0.9-0.6 0.45-1.05 0.65-0.45 0.25-0.85 0.35q1.4-0.65 1.35-2.1l-0.2-0.3m-0.05-0.05-0.05-0.1-0.7-0.2-3.9 2.25-7.85 10.75-0.95 1.3-2.45 3.4-1.25 1.65m-2.2 3-0.15 0.2-0.05 0.05-1 0.65-2.35 1.7-1.25 0.85-3.4 2.4-0.2 0.1 0.9-2.65 0.05-0.2-4.55 2.2m-1.9-1.9 1.65-1.8 0.1-0.05-1.45-0.15-0.2-0.05 3.95-4.65 5.75-3.45 2.2-4.8 10.3-10.3-0.4 0.6q-1.1 1.9-0.85 4.35m-1.25 1.25 1.25-1.25m-0.3 3.35-0.35 0.45m-0.6 0.35-0.65 0.4-2.1 2.35m3.7-3.55 3.65-4.15 0.6-0.65q1.9-1.95 3.95-3.75l2.2-1.85 0.55-0.4 1-0.55q2.75-1.2 2.9 2.1-0.25 1.2-1.1 1.95m-17.6 8.1 2.9-2.9m-9.8 8.75 2.6-1.55 4.3-4.3m-9.1 12.75 0.55-0.15 0.3-0.35 1.15-1.35 2.4-2.7 0.95-1.05 1.45-1.65 2.45-2.75m-11.35 10.7-2.8 0.9-2.45 2.8m7.35-4.4-2.1 0.7" fill="none" stroke="#369" stroke-linecap="round" stroke-linejoin="round" stroke-opacity=".48235" stroke-width=".05"/>
<path d="m-25.5 26.8h0.05l-0.05 0.15-0.35 0.15m-0.15-0.8-0.2-0.25-0.1 0.1-0.15 0.25v0.1m0.95 0.3-0.15-0.1-0.35-0.35" fill="none" stroke="#000" stroke-linecap="round" stroke-linejoin="round" stroke-opacity=".48235" stroke-width=".05"/>
<path d="m-24 24.15-0.75 0.75m7.15-7.5-5.65 5.65" fill="none" stroke="#ffc" stroke-linecap="round" stroke-linejoin="round" stroke-width=".25"/>
<path d="m-24.3 26.65-0.05 0.05-0.15 0.1m-0.95-0.1-0.05 0.1m-2.55 1.65 0.05-0.55 0.6-0.85 0.9-0.65h0.05v-0.1l0.1-0.25 0.1-0.1m1.7 0.65 0.15 0.05h0.1m-1.6 0.35h0.05l0.3-0.15 0.05-0.05m0.05-0.1h-0.1l-0.15-0.15-0.35-0.3v-0.05l-0.2-0.25m1.7 0.65-0.9-0.5-0.75-1.35m0.3 2.3 0.05-0.05m-0.05 0.05-0.65 0.85-0.85 0.6q-0.45 0.2-0.6 0l-0.05-0.05m1.6-1.95v-0.1" fill="none" stroke="#000" stroke-linecap="round" stroke-linejoin="round" stroke-opacity=".26274" stroke-width=".05"/>
<path d="m-15.55 17.9-8.75 8.75m-0.2 0.15-0.2 0.25-0.75-0.35m-0.4 0.45-0.65 0.85q-0.45 0.4-0.85 0.6-0.45 0.2-0.65 0l-0.05-0.15 0.1-0.45 0.6-0.85 0.9-0.65 0.15 0.3 0.3 0.2h0.1m-0.35-1.05-0.3-0.85 0.2-0.15 0.15-0.2 8.75-8.75m-7.05 10.8-0.9-0.35-0.55-0.55-0.4-0.95" fill="none" stroke="#000" stroke-linecap="round" stroke-linejoin="round" stroke-opacity=".26274" stroke-width=".05"/>
<path d="m-7.3 5.5 0.2-0.15" fill="none" stroke="#000" stroke-linecap="round" stroke-linejoin="round" stroke-opacity=".17255" stroke-width=".05"/>
<path d="m-16.65 16.65 0.6 0.55 0.85 0.35m-2.05-1.7v0.05l0.2 0.55 0.25 0.35 0.05 0.1 0.45 0.45 0.1 0.05 0.25 0.1 0.6 0.2" fill="none" stroke="#000" stroke-linecap="round" stroke-linejoin="round" stroke-opacity=".25098" stroke-width=".05"/>
<path d="m-15.2 17.55-0.35 0.35m-1.9-1.9 0.35-0.35-0.15 0.2-0.2 0.15 0.05 0.05v0.05l0.6 1.15 0.2 0.2 0.85 0.45h0.2m-1.5-2.15 0.4 0.9m-0.4-0.9-0.05-0.1" fill="none" stroke="#000" stroke-linecap="round" stroke-linejoin="round" stroke-opacity=".25098" stroke-width=".05"/>
</g>
</defs>
</svg>
