<?xml version="1.0" encoding="UTF-8"?>
<svg width="217px" height="234px" version="1.1" viewBox="173.02 287.47 216.95 233.86" xmlns="http://www.w3.org/2000/svg" xmlns:xlink="http://www.w3.org/1999/xlink">
<defs>
<g id="ai">
<path d="m25.4 243.1h-276.15v-295.3h276.15v295.3" fill="#fff"/>
<path d="m25.4 243.1h-276.15v-295.3h276.15v295.3" fill="#fff" stroke="#314448"/>
</g>
<g id="x">
<path d="m180.35 157.1-0.8 0.8 0.35-0.45 0.45-0.35" fill="#594e4a"/>
</g>
<linearGradient id="f" x1="-819.2" x2="819.2" gradientTransform="matrix(.025452 0 0 .025391 306.75 35.65)" gradientUnits="userSpaceOnUse">
<stop stop-color="#666" offset="0"/>
<stop stop-color="#ccc" offset="1"/>
</linearGradient>
<g id="v">
<path d="m285.55 35.5 0.35 0.1q0 8.65 6.05 14.75 6.1 6.1 14.8 6.1 8.65 0 14.75-6.1 3.9-3.95 5.35-8.9-0.7 7.25-6.05 12.6-6.1 6.1-14.75 6.1t-14.75-6.1-6.1-14.75q0-1.95 0.35-3.8m32.8-2.3q0-6.5-4.5-11-2.45-2.45-5.5-3.6l0.7-3.75q3.05 1.15 5.45 3.6l2.4 3q2.15 3.5 2.15 8.05 0 1.95-0.4 3.8l-0.3-0.1" fill="#85756f"/>
<path d="m286 33.55q0.35-4.15 2.2-7.6-0.45 1.7-0.45 3.55v0.2q-1.2 1.8-1.75 3.85" fill="#a8948c"/>
<path d="m285.9 35.6 0.1-2.05q0.55-2.05 1.75-3.85 0.1 6.35 4.65 10.9 4.5 4.55 11 4.55t11.1-4.55q2.7-2.8 3.85-6.25l0.3-1.05q0.4-1.85 0.4-3.8 0-4.55-2.15-8.05l-2.4-3q-2.4-2.45-5.45-3.6 7.15 0.7 12.45 5.95 6.1 6.1 6.1 14.8 0 3.1-0.75 5.85-1.45 4.95-5.35 8.9-6.1 6.1-14.75 6.1-8.7 0-14.8-6.1-6.05-6.1-6.05-14.75" fill="url(#f)"/>
<path d="m286 33.55q-0.3 0.95-0.45 1.95m0.35 0.1 0.1-2.05q0.35-4.15 2.2-7.6-0.45 1.7-0.45 3.55v0.2q0.1 6.35 4.65 10.9 4.5 4.55 11 4.55t11.1-4.55q2.7-2.8 3.85-6.25v-1.15q0-6.5-4.5-11-2.45-2.45-5.5-3.6l0.7-3.75q7.15 0.7 12.45 5.95 6.1 6.1 6.1 14.8 0 3.1-0.75 5.85-0.7 7.25-6.05 12.6-6.1 6.1-14.75 6.1t-14.75-6.1-6.1-14.75q0-1.95 0.35-3.8m0.45-1.95q0.55-2.05 1.75-3.85m21.3-14.85q3.05 1.15 5.45 3.6l2.4 3q2.15 3.5 2.15 8.05 0 1.95-0.4 3.8l-0.3 1.05m8.5 7.1q-1.45 4.95-5.35 8.9-6.1 6.1-14.75 6.1-8.7 0-14.8-6.1-6.05-6.1-6.05-14.75" fill="none" stroke="#000" stroke-opacity=".2"/>
</g>
<g id="u">
<path d="m1.8 2 3.3-4.15 0.1-0.15 0.15-0.15q1.65-1.9 4.95-2.15 4.8-0.35 10.25 3.05l0.75 0.45-3.55 4.8-0.95-0.6q-5.45-3.4-10.25-3.05l-2.65 0.55q-1.25 0.5-2.1 1.4" fill="#21548c"/>
<path d="m21.3-1.1q5 3.3 7.75 8.05 2.9 5.1 1.55 8.95l-0.5 1.15-0.85 1.15-3.15 3.95 0.05-0.05 0.7-1.55 0.3-1q0.65-3.5-1.85-7.95-2.7-4.65-7.55-7.9l3.55-4.8" fill="#036"/>
<path d="m22.35 17.9-0.2 0.65-0.45 1-0.05 0.05-0.3 0.45-0.5 0.4q-1.05 0.7-2.7 0.85-3.2 0.2-6.8-2.05-3.6-2.2-5.55-5.6-1.95-3.35-1.1-5.85 0.35-0.9 0.95-1.5 0.55-0.55 1.35-0.9l1.75-0.35q3.2-0.25 6.8 2 3.65 2.25 5.6 5.6 1.65 2.95 1.2 5.25" fill="#171413"/>
<path d="m26.1 22.15-0.5 0.65-0.75 0.65q-1.55 1.05-4.05 1.25-4.85 0.35-10.35-3.05-5.45-3.4-8.4-8.5t-1.65-8.9q0.5-1.35 1.4-2.25 0.85-0.9 2.1-1.4l2.65-0.55q4.8-0.35 10.25 3.05l0.95 0.6q4.85 3.25 7.55 7.9 2.5 4.45 1.85 7.95l-0.3 1-0.7 1.55-0.05 0.05m-3.75-4.25q0.45-2.3-1.2-5.25-1.95-3.35-5.6-5.6-3.6-2.25-6.8-2l-1.75 0.35q-0.8 0.35-1.35 0.9-0.6 0.6-0.95 1.5-0.85 2.5 1.1 5.85 1.95 3.4 5.55 5.6 3.6 2.25 6.8 2.05 1.65-0.15 2.7-0.85l0.5-0.4 0.3-0.45 0.05-0.05 0.45-1 0.2-0.65" fill="#18375c"/>
<path d="m1.8 2 3.3-4.15 0.1-0.15 0.15-0.15q1.65-1.9 4.95-2.15 4.8-0.35 10.25 3.05l0.75 0.45q5 3.3 7.75 8.05 2.9 5.1 1.55 8.95l-0.5 1.15-0.85 1.15-3.15 3.95-0.5 0.65-0.75 0.65q-1.55 1.05-4.05 1.25-4.85 0.35-10.35-3.05-5.45-3.4-8.4-8.5t-1.65-8.9q0.5-1.35 1.4-2.25" fill="none" stroke="#000" stroke-opacity=".10196"/>
</g>
<g id="b">
<use xlink:href="#u"/>
</g>
<g id="t">
<path d="m122.5 4.8q1.3 1.3 2.2 2.9 1.65 2.95 1.2 5.25l-0.1 0.35q-56.2 54.25-108.45 116.35l-0.1-0.05-0.05 0.05-0.15 0.3-0.15 0.15-0.5 0.4q-1.05 0.7-2.7 0.85-3.2 0.2-6.8-2.05l-2.75-2.05 118.35-122.45" fill="#4a0000"/>
<path d="m4.15 127.25q-1.7-1.6-2.8-3.55-1.95-3.35-1.1-5.85 0.25-0.6 0.6-1.05l0.8-0.8 0.9-0.55-0.2-0.2q54.5-53.55 108.95-115l1-0.15q3.2-0.25 6.8 2l3.4 2.7-118.35 122.45" fill="#630000"/>
<path d="m122.5 4.8q1.3 1.3 2.2 2.9 1.65 2.95 1.2 5.25l-0.1 0.35q-56.2 54.25-108.45 116.35l-0.45 0.45-0.5 0.4q-1.05 0.7-2.7 0.85-3.2 0.2-6.8-2.05l-2.75-2.05q-1.7-1.6-2.8-3.55-1.95-3.35-1.1-5.85 0.25-0.6 0.6-1.05m0.8-0.8 0.7-0.75q54.5-53.55 108.95-115l1-0.15q3.2-0.25 6.8 2l3.4 2.7" fill="none" stroke="#000" stroke-opacity=".10196"/>
</g>
<radialGradient id="e" cx="0" cy="0" r="819.2" gradientTransform="matrix(.042297 0 0 .042297 34 34)" gradientUnits="userSpaceOnUse">
<stop stop-color="#fff" offset="0"/>
<stop stop-color="#fff" stop-opacity="0" offset="1"/>
</radialGradient>
<g id="s">
<path d="m68 34q0 14.1-9.95 24.05t-24.05 9.95-24.05-9.95-9.95-24.05 9.95-24.05 24.05-9.95 24.05 9.95 9.95 24.05" fill="url(#e)"/>
</g>
<g id="a">
<use xlink:href="#s"/>
</g>
<g id="ah">
<use xlink:href="#t"/>
<use transform="matrix(.094818 .091156 -1.756 1.8268 112.7 -1.45)" filter="url(#h)" xlink:href="#a"/>
</g>
<filter id="h">
<feColorMatrix in="SourceGraphic" result="cxform" values="1.0 0.0 0.0 0.0 0.0 0.0 1.0 0.0 0.0 0.0 0.0 0.0 1.0 0.0 0.0 0.0 0.0 0.0 0.5 0.0"/>
<feComposite in2="SourceGraphic" operator="in" result="color-xform"/>
</filter>
<g id="ag">
<path d="m2.85 130.35q-2.85-10.05-2.85-21.25 0-10 2.25-19.05 4.8-19.45 19.9-34.8 4.7-4.65 9.85-8.35-12.15-13.05-12.15-31.05 0-7.6 2.2-14.35l0.15 0.4q4.3 12.55 14.45 22.75 7.45 7.45 16.2 11.85 7.65 3.8 16.3 5.25l10.7 0.85q12.75 0 23.65-4.6l3-1.35 1.7 1.85q11.15 11.85 26.8 20.85l-0.55 0.45q7.8 3.95 16.4 7.45 6.55 2.8 13.7 5.2l8.4 2.65q7.25 101.75 3.8 201.1-1.25 34.95-3.8 69.6l-0.3-0.15q-16-6.75-29.2-15.35-13.35-8.75-23.9-19.35-20.15-20.35-30.05-47.7 5.8 4.05 13.4 4.05 7.55 0 13.4-4.2l3.15-2.7q6.95-6.9 6.95-16.6 0-7.2-3.8-12.85-16.7-16.35-25.2-33.9l-0.9-1.95q-5.3-11.65-7.05-23.8 36.15 3.2 41.7-35.7v-0.4q0-12.8-4.35-23.9-2.3-5.65-5.65-10.9-3.7-5.65-8.75-10.8-6-5.95-12.8-10-4.05-2.4-8.35-4.15-7.6-3.05-16.05-4l-8.3-0.55-2.8 0.05q-6.95 0.3-13.4 1.95l-2.2 0.6-4.95 1.65q-8.4 3.25-15.8 9.05-3.15 2.45-6.1 5.4l-2.45 2.6q-6.7 7.35-10.65 15.8-4.9 10.35-5.7 22.35" fill="#a8948c"/>
<path d="m323.75 0.1q1.05 2.95 1.7 6.1 0.95 4.65 0.95 9.65 0 18.25-12.65 31.4l0.1 0.05 2.2 1.7q3.6 2.85 7 6.25 22.5 22.5 22.5 53.85 0 12.3-3.45 23.25-1-24.7-18.95-42.75-8.05-8-17.5-12.55-4.25-2.05-8.75-3.35l-0.6-0.2q-8.7-2.6-18.4-2.6l-3.45 0.1-4.85 0.45q-10.3 1.2-19.3 5.45-9.7 4.6-17.9 12.7-18.75 19.1-18.75 45.6v0.4q6.75 36.7 41.8 34.6-1.95 12.05-6.6 23.05l-1.25 2.8q-4.05 8.75-9.85 16.75-6 8.35-13.9 15.9l-1.55 1.45q-3.65 5.6-3.65 12.65 0 9.7 6.85 16.6l3.2 2.7q3.5 2.5 7.65 3.55l5.8 0.65q6.75 0 12.15-3.3-4.85 12.15-11.1 22.85-7.1 12.1-15.95 22.2l-4.7 5.1q-13.1 13.4-29.7 23.05-9.4 5.4-19.9 9.6 2.55-34.65 3.8-69.6 3.45-99.35-3.8-201.1l0.35-0.1 0.65 0.2q22.55-6.6 39.55-14.5l-0.45-0.9-0.3-0.3q18.6-10 27.3-22.2l0.4 0.2 1.35 0.55q10.8 4.55 23.55 4.55h0.6q7.4-0.05 14.2-1.7l5.9-1.75q3.25-1.2 6.35-2.75l0.6-0.3q8.25-4.3 15.35-11.45 11.05-10.95 15.35-24.6v-0.05l0.05 0.1-0.05-0.05 0.05 0.05" fill="#9c8a82"/>
<path d="m172.95 359.1q-13.3-5.75-25.1-12.5l-4.4-16.3q13.2 8.6 29.2 15.35l0.3 0.15v1.25 12.05m-48-27.6q-15.45-11.7-27.55-25.65l-13.5-51.05q4.55-0.95 8.4-3.7l3.15-2.7 1-1.05q5.95-6.6 5.95-15.55 0-7.2-3.8-12.85-16.7-16.35-25.2-33.9l-0.9-1.95q-5.3-11.65-7.05-23.8 6.3 5.1 14.7 5.1 6.65 0 11.95-3.2l2.9-2.1 1.7-1.6q4.45-4.4 6.05-9.95 0.45-3.25 0.45-6.65 0-3.45-0.45-6.65-0.55-3.95-1.8-7.6-1.05-3.05-2.5-5.85-3.1-5.95-8.25-11.1l-2.45-2.25q-3.25-2.85-6.75-4.85-3.8-2.25-7.95-3.55l-8.95-28.1 2.8-0.05 8.3 0.55q8.45 0.95 16.05 4 4.3 1.75 8.35 4.15 6.8 4.05 12.8 10 5.05 5.15 8.75 10.8 3.35 5.25 5.65 10.9 4.35 11.1 4.35 23.9v0.4q-5.55 38.9-41.7 35.7 1.75 12.15 7.05 23.8l0.9 1.95q8.5 17.55 25.2 33.9 3.8 5.65 3.8 12.85 0 9.7-6.95 16.6l-3.15 2.7q-5.85 4.2-13.4 4.2-7.6 0-13.4-4.05 9.9 27.35 30.05 47.7l5.4 20.55m-36.05-36.3q-14.6-19.85-23.3-43.75l-0.1-0.3 0.15 0.1q5.45 3.85 12.55 4.05l10.7 39.9m-38.95-197.4q-9 1.8-16.5 7.3l-5.7-20.9q7.4-5.8 15.8-9.05l6.4 22.65m-30.75-5.6 5.65 21.1q-6.3 7.75-8.45 17.1l-7.85-22.4q3.95-8.45 10.65-15.8" fill="#cfbdb5"/>
<path d="m326.85 158.85-0.25 0.25-0.6-0.25q4.15-8.65 4.15-18.95 0-18.15-13-31.2l-2.45-2.25-9.05-29.4q9.45 4.55 17.5 12.55 17.95 18.05 18.95 42.75-2.4 7.6-6.5 14.55-3.7 6.25-8.75 11.95m-21.65-58.7q-3.1-1.55-6.45-2.5-5.95-1.75-12.6-1.75h-0.1l-4.05 0.2-7.55-25.1 3.45-0.1q9.7 0 18.4 2.6l0.6 0.2 8.3 26.45m-34.85 63.85q5.5-1.1 9.95-4.7l0.15-0.1v0.1l-0.6 3.3q-2 10.2-6 19.65l-1.25 2.8q-8.65 18.65-25.3 34.1-3.35 5.15-3.6 11.6l-0.05 1.05q0 8.55 5.3 14.9l1.55 1.7q1.5 1.5 3.2 2.7 5.85 4.2 13.45 4.2l1.95-0.05q6.05-0.45 10.95-3.75l0.2-0.15 0.15-0.1-0.05 0.1-1.6 3.9q-7.2 16.95-16.55 31.55l-7.85-23.85-0.05 0.05q-5.4 3.3-12.15 3.3l-5.8-0.65q-4.15-1.05-7.65-3.55l-3.2-2.7q-6.85-6.9-6.85-16.6 0-7.05 3.65-12.65l1.55-1.45q7.9-7.55 13.9-15.9 5.8-8 9.85-16.75l1.25-2.8q4.65-11 6.6-23.05-35.05 2.1-41.8-34.6v-0.4q0-26.5 18.75-45.6 8.2-8.1 17.9-12.7l7.3 29.4-2.6 2.4q-12.85 13.05-12.85 31.2v0.3 0.7l0.15 2.55q0.75 8.1 6.7 14.05l1.75 1.6q6.35 5.3 14.9 5.3l4.7-0.4m-97.2 195.05-0.2 0.05v-12.05l2.7 11-2.5 1m70.05-73.2 6.3 18.5q-8.15 9.9-17.45 18.5l-4.8-14.8q8.85-10.1 15.95-22.2m-20.65 27.3 4.4 14.15q-14.1 11.95-30.8 21.05l-3.3-12.15q16.6-9.65 29.7-23.05" fill="#c4b3ac"/>
<path d="m313.85 47.3 4.7-1.15q4.2 3.2 8.1 7.1 22.5 22.5 22.5 53.85 0 12.3-3.45 23.25-2.4 7.6-6.5 14.55-3.8 6.35-12.35 13.95 5.05-5.7 8.75-11.95 4.1-6.95 6.5-14.55 3.45-10.95 3.45-23.25 0-31.35-22.5-53.85-3.4-3.4-7-6.25l-2.2-1.7m0.85 59.15q-4.45-3.9-9.5-6.3l-8.3-26.45q4.5 1.3 8.75 3.35l9.05 29.4m-28.65-10.55-3.9 0.7q-11.95 2.55-21.15 11.7l-2.25 2.5q-10.6 12.25-10.6 28.7v0.3q0 2 0.15 3.25 0.75 8.1 6.7 14.05l1.75 1.6q5.85 4.9 13.6 5.3l-4.7 0.4q-8.55 0-14.9-5.3l-1.75-1.6q-5.95-5.95-6.7-14.05l-0.15-2.55v-0.7-0.3q0-18.15 12.85-31.2l2.6-2.4-7.3-29.4q9-4.25 19.3-5.45l4.85-0.45 7.55 25.1 4.05-0.2m-5.6 63.4q-0.65 14.7-2.4 20-1.8 5.25-6.4 14.45-4.65 9.2-17.55 25.8-3.65 5.6-3.65 12.65 0 9.7 6.85 16.6l3.2 2.7q3.15 2.25 6.65 3.8-7.6 0-13.45-4.2-1.7-1.2-3.2-2.7l-1.55-1.7q-5.3-6.35-5.3-14.9l0.05-1.05q0.25-6.45 3.6-11.6 16.65-15.45 25.3-34.1l1.25-2.8q4-9.45 6-19.65l0.6-3.3m-0.1 92.05q-6.95 20.45-17.45 37.55-5.8 9.35-12.65 17.75-8.05 9.8-17.55 18.25l-5.1 4.4q-14.1 11.45-31.15 20.15-6.25 3.15-12.85 5.95l-10.45 3.65 2.5-1-2.7-11v-1.25q10.5-4.2 19.9-9.6l3.3 12.15q16.7-9.1 30.8-21.05l-4.4-14.15 4.7-5.1 4.8 14.8q9.3-8.6 17.45-18.5l-6.3-18.5q6.25-10.7 11.1-22.85l0.05-0.05 7.85 23.85q9.35-14.6 16.55-31.55l1.6-3.9m-132.5 95.25q-12.25-7-22.9-15.1l-5.4-20.55q10.55 10.6 23.9 19.35l4.4 16.3m-50.45-40.75q-4.5-5.2-8.5-10.65l-10.7-39.9q-7.1-0.2-12.55-4.05 5.85 2.5 12.2 2.75h2.55l3.2-0.2q5.25-0.6 7.85-2.55l3.9-2.95 0.1 0.1-3.15 2.7q-3.85 2.75-8.4 3.7l13.5 51.05m-31.95-146.55q10.55 4.45 16.6 4t10.05-2.1q-5.3 3.2-11.95 3.2-8.4 0-14.7-5.1m7.6-60.25q-3.7-1.2-7.6-1.7l-0.5-0.1-5.75-0.35-1.55 0.05-7.7 0.85-6.4-22.65 4.95-1.65 2.2-0.6q6.45-1.65 13.4-1.95l8.95 28.1m-39.6 6.05-4.1 3.4-1.3 1.2 0.1 0.1-3.1 4.3q-6.3 9.35-7.9 18.45-0.55 2.85-0.6 5.7-0.25 13.85 2.35 20.65l0.05 0.1-0.25 0.1q-11.45-12.95-15.85-28.75 0.8-12 5.7-22.35l7.85 22.4q2.15-9.35 8.45-17.1l-5.65-21.1 2.45-2.6q2.95-2.95 6.1-5.4l5.7 20.9m-11.25-103.2q8.2 13.25 18.45 23.55 7.45 7.45 16.2 11.85 5.85 2.95 12.3 4.45-8.65-1.45-16.3-5.25-8.75-4.4-16.2-11.85-10.15-10.2-14.45-22.75m259.8 94.2 0.15 0.5-0.15-0.5" fill="#e3d8d2"/>
<path d="m323.75 0.1q2.8 4.8 3.7 8.6 0.9 3.75 0.3 14.6-0.65 10.8-9.2 22.85l-4.7 1.15-0.1-0.05q12.65-13.15 12.65-31.4 0-5-0.95-9.65-0.65-3.15-1.7-6.1m-83.7 37.2 0.35-0.05 4.15-0.9 1.75 0.8q9 3.8 19.35 4.45l4.2 0.1 10.3-0.8q-6.8 1.65-14.2 1.7h-0.6q-12.75 0-23.55-4.55l-1.35-0.55-0.4-0.2m0.4 0.2-0.05-0.25 0.05 0.25" fill="#d9cec9"/>
<path d="m169.5 10.4q13.5-2.1 27.05 8.95 2.7 22.25 11.8 34.9-20.15 10.15-40.15 9.7 8.95-25 1.3-53.55" fill="#7a6c66"/>
<path d="m137.6 56.95q12.6-12.95 13.35-37.6 9.25-7.55 18.55-8.95 7.65 28.55-1.3 53.55-15.35-0.4-30.6-7" fill="#94837c"/>
<path d="m135 59.35 2.6-2.4q15.25 6.6 30.6 7 20 0.45 40.15-9.7 2 2.85 4.4 5.25l0.3 0.3 0.45 0.9q-17 7.9-39.55 14.5l-0.65-0.2-0.35 0.1-8.4-2.65q-7.15-2.4-13.7-5.2-8.6-3.5-16.4-7.45l0.55-0.45" fill="#786a64"/>
<path d="m323.7 0.05v-0.05l0.05 0.1-0.05-0.05" fill="none" stroke="#000" stroke-width=".5"/>
<path d="m280.45 159.2v0.1-0.1m1.7-62.6-0.15-0.5m-41.6-58.85 0.05 0.25" fill="none" stroke="#000" stroke-opacity=".2"/>
<path d="m318.55 46.15q8.55-12.05 9.2-22.85 0.6-10.85-0.3-14.6-0.9-3.8-3.7-8.6m-5.2 46.05q4.2 3.2 8.1 7.1 22.5 22.5 22.5 53.85 0 12.3-3.45 23.25-2.4 7.6-6.5 14.55-3.8 6.35-12.35 13.95l-0.25 0.25-0.6-0.25q4.15-8.65 4.15-18.95 0-18.15-13-31.2l-2.45-2.25q-4.45-3.9-9.5-6.3-3.1-1.55-6.45-2.5-5.95-1.75-12.6-1.75h-0.1l-3.9 0.7q-11.95 2.55-21.15 11.7l-2.25 2.5q-10.6 12.25-10.6 28.7v0.3q0 2 0.15 3.25 0.75 8.1 6.7 14.05l1.75 1.6q5.85 4.9 13.6 5.3 5.5-1.1 9.95-4.7l0.15-0.1m0 0.1q-0.65 14.7-2.4 20-1.8 5.25-6.4 14.45-4.65 9.2-17.55 25.8-3.65 5.6-3.65 12.65 0 9.7 6.85 16.6l3.2 2.7q3.15 2.25 6.65 3.8l1.95-0.05q6.05-0.45 10.95-3.75l0.2-0.15 0.15-0.1-0.05 0.1q-6.95 20.45-17.45 37.55-5.8 9.35-12.65 17.75-8.05 9.8-17.55 18.25l-5.1 4.4q-14.1 11.45-31.15 20.15-6.25 3.15-12.85 5.95l-10.45 3.65m-0.2 0.05q-13.3-5.75-25.1-12.5-12.25-7-22.9-15.1-15.45-11.7-27.55-25.65-4.5-5.2-8.5-10.65-14.6-19.85-23.3-43.75l-0.1-0.3 0.15 0.1q5.85 2.5 12.2 2.75h2.55l3.2-0.2q5.25-0.6 7.85-2.55l3.9-2.95 0.1 0.1 1-1.05q5.95-6.6 5.95-15.55 0-7.2-3.8-12.85-16.7-16.35-25.2-33.9l-0.9-1.95q-5.3-11.65-7.05-23.8 10.55 4.45 16.6 4t10.05-2.1l2.9-2.1 1.7-1.6q4.45-4.4 6.05-9.95 0.45-3.25 0.45-6.65 0-3.45-0.45-6.65-0.55-3.95-1.8-7.6-1.05-3.05-2.5-5.85-3.1-5.95-8.25-11.1l-2.45-2.25q-3.25-2.85-6.75-4.85-3.8-2.25-7.95-3.55-3.7-1.2-7.6-1.7l-0.5-0.1-5.75-0.35-1.55 0.05-7.7 0.85q-9 1.8-16.5 7.3l-4.1 3.4-1.3 1.2 0.1 0.1-3.1 4.3q-6.3 9.35-7.9 18.45-0.55 2.85-0.6 5.7-0.25 13.85 2.35 20.65l0.05 0.1-0.25 0.1q-11.45-12.95-15.85-28.75-2.85-10.05-2.85-21.25 0-10 2.25-19.05 4.8-19.45 19.9-34.8 4.7-4.65 9.85-8.35-12.15-13.05-12.15-31.05 0-7.6 2.2-14.35l0.15 0.4q8.2 13.25 18.45 23.55 7.45 7.45 16.2 11.85 5.85 2.95 12.3 4.45l10.7 0.85q12.75 0 23.65-4.6l3-1.35 1.7 1.85q11.15 11.85 26.8 20.85l2.6-2.4q12.6-12.95 13.35-37.6 9.25-7.55 18.55-8.95 13.5-2.1 27.05 8.95 2.7 22.25 11.8 34.9 2 2.85 4.4 5.25 18.6-10 27.3-22.2l0.35-0.05 4.15-0.9 1.75 0.8q9 3.8 19.35 4.45l4.2 0.1 10.3-0.8 5.9-1.75q3.25-1.2 6.35-2.75l0.6-0.3q8.25-4.3 15.35-11.45 11.05-10.95 15.35-24.6" fill="none" stroke="#000" stroke-opacity=".10196" stroke-width=".5"/>
<path d="m177.9 29.9-9.65 5.85-0.65 0.35q-4.7 2-6.9 5.95-0.1 0.05-0.05 0.2-1.95 5.15 1 10.2 2.9 5.05 9.05 6.9 6.05 1.75 11.7-0.5l0.45-0.25 2.4-1.2 9.25-1.95q-3.2 4.4-9 6.85-8.05 3.35-16.7 0.85-8.5-2.6-12.65-9.5-3-5.15-2.2-10.35l0.3-0.95q2.9-7.2 11.1-10.6 6.15-2.65 12.55-1.85" fill="#036"/>
<path d="m168.25 35.75 9.65-5.85 4.15 0.9q8.55 2.7 12.6 9.65 2.9 5.05 2.25 10.35l-0.3 0.8-2.1 3.85-9.25 1.95q3.85-2.45 5.55-6.55 0.75-1.75 0.95-3.55-0.35-2.6-1.85-5.2-2.95-5.15-9.3-7.05-6.3-1.85-12.35 0.7m17 21.65q4.45-1.95 5.5-4.75 1.15-2.7 1-5.35 0.15 2.65-1 5.35-1.05 2.8-5.5 4.75" fill="#002145"/>
<path d="m194.5 55.45 2.1-3.85 0.3-0.8-0.1 0.85-0.95 3.05-0.1 0.35q-3.15 7-10.95 10.35-8.1 3.35-16.75 0.85-8.5-2.55-12.65-9.5-3.8-6.6-1.45-13.45-0.8 5.2 2.2 10.35 4.15 6.9 12.65 9.5 8.65 2.5 16.7-0.85 5.8-2.45 9-6.85l1.25-0.4-1.25 0.4" fill="#21548c"/>
<path d="m160.7 42.05q-0.1 0.05-0.05 0.2" fill="none" stroke="#000" stroke-width=".5"/>
<path d="m168.25 35.75q6.05-2.55 12.35-0.7 6.35 1.9 9.3 7.05 1.5 2.6 1.85 5.2 0.15 2.65-1 5.35-1.05 2.8-5.5 4.75m11.65-6.6q0.65-5.3-2.25-10.35-4.05-6.95-12.6-9.65l-4.15-0.9q-6.4-0.8-12.55 1.85-8.2 3.4-11.1 10.6l-0.3 0.95m40.55 12.15 1.25-0.4 0.1-0.35 0.95-3.05 0.1-0.85m-28.65-15.05-0.65 0.35q-4.7 2-6.9 5.95m35.05 13q-3.15 7-10.95 10.35-8.1 3.35-16.75 0.85-8.5-2.55-12.65-9.5-3.8-6.6-1.45-13.45" fill="none" stroke="#000" stroke-opacity=".05098" stroke-width=".5"/>
</g>
<g id="af">
<path d="m28.6 17.65q0 4.8-3.35 8.15t-8.15 3.35q-4.75 0-8.1-3.35t-2.8-4.45q0.5-1.15 13.65-4.45-11.55-6.65-10.85-7.35 3.35-3.35 8.1-3.35 4.8 0 8.15 3.35t3.35 8.1" fill="#1f8fc7" fill-opacity=".8"/>
<path d="m20.1 0.25q5.25 0.8 9.25 4.8 5.05 5.05 5.05 12.15t-5.05 12.15q-4.65 4.65-11.1 5.05 16.5-12.5 1.85-34.15" fill="#176891" fill-opacity=".8"/>
<path d="m18.25 34.4h-1.05q-7.1 0-12.15-5.05t-5.05-12.15 5.05-12.15 12.15-5.05l2.9 0.25q14.65 21.65-1.85 34.15" fill="#1f8fc7" fill-opacity=".8"/>
<path d="m20.1 0.25q5.25 0.8 9.25 4.8 5.05 5.05 5.05 12.15t-5.05 12.15q-4.65 4.65-11.1 5.05h-1.05q-7.1 0-12.15-5.05t-5.05-12.15 5.05-12.15 12.15-5.05l2.9 0.25" fill="none" stroke="#17170c" stroke-opacity=".25098"/>
<path d="m15.75 8.25-1.7-3.7m8.4 4.7 1.45-3.65m2.8 9.25 3.1-0.95" fill="none" stroke="#abe3ff" stroke-opacity=".2"/>
<path d="m1.55 13.9h0.1q1.35 4.35 2 5.4 2 3.6 6 3.6l2.4-0.3 2.5-0.3q1.5 0 2.2 0.6 1 0.85 1 3.1t-1.4 3.9q-1.5 1.8-3.8 1.8-3.55 0-7-4.6-4-5.35-4-13.2" fill="#29b8ff"/>
<path d="m22.7 2.25q3.5 2.25 6.8 6.15l0.35 0.35q5.45 7.4 0 17.1l-1.35 2.15q-3.8 3.25-6.9 3.85 6.5-7.15 7-15.45 0.45-8.35-5.9-14.15" fill="#176891"/>
</g>
<g id="ae">
<use xlink:href="#af"/>
</g>
<radialGradient id="d" cx="0" cy="0" r="819.2" gradientTransform="matrix(.011047 0 0 .011047 8.2 8.2)" gradientUnits="userSpaceOnUse">
<stop stop-color="#f9fede" offset="0"/>
<stop stop-color="#fff" stop-opacity="0" offset="1"/>
</radialGradient>
<g id="ad">
<path d="m14 14q-2.4 2.4-5.8 2.4t-5.8-2.4-2.4-5.8 2.4-5.8 5.8-2.4 5.8 2.4 2.4 5.8-2.4 5.8" fill="url(#d)"/>
</g>
<g id="ac">
<use xlink:href="#ad"/>
</g>
<g id="ab">
<path d="m12.15 6.65q-0.7 0.65-1.7 0.65t-1.7-0.65-0.7-1.55 0.7-1.55 1.7-0.65 1.7 0.65q0.75 0.65 0.75 1.55t-0.75 1.55" fill="#fff"/>
</g>
<g id="aa">
<use transform="translate(.45)" xlink:href="#ae"/>
<use transform="matrix(.86603 -.5 .42989 .74457 1.4 6.2)" filter="url(#g)" xlink:href="#ac"/>
<use xlink:href="#ab"/>
</g>
<filter id="g">
<feColorMatrix in="SourceGraphic" result="cxform" values="1.0 0.0 0.0 0.0 0.0 0.0 1.0 0.0 0.0 0.0 0.0 0.0 1.0 0.0 0.0 0.0 0.0 0.0 0.69921875 0.0"/>
<feComposite in2="SourceGraphic" operator="in" result="color-xform"/>
</filter>
<g id="z">
<use xlink:href="#ag"/>
<use transform="matrix(.94202 0 -.015747 .94202 159.05 28.75)" filter="url(#r)" xlink:href="#aa"/>
<use transform="matrix(1.4361 -.02832 .032196 1.629 123 291.35)" filter="url(#q)" xlink:href="#a"/>
<use transform="matrix(1.4361 -.02832 .032196 1.629 -33.55 75.95)" filter="url(#p)" xlink:href="#a"/>
<use transform="matrix(1.4361 -.02832 .032196 1.629 276.7 67.95)" filter="url(#o)" xlink:href="#a"/>
</g>
<filter id="r">
<feColorMatrix in="SourceGraphic" result="color-matrix" values="0.446880012751 0.487519979477 0.0656000003219 0.0 -0.078125 0.24688000977 0.687519967556 0.0656000003219 0.0 -0.078125 0.24688000977 0.487519979477 0.265599995852 0.0 -0.078125 0.0 0.0 0.0 1.0 0.0"/>
</filter>
<filter id="q">
<feColorMatrix in="SourceGraphic" result="cxform" values="1.0 0.0 0.0 0.0 0.0 0.0 1.0 0.0 0.0 0.0 0.0 0.0 1.0 0.0 0.0 0.0 0.0 0.0 0.44921875 0.0"/>
<feComposite in2="SourceGraphic" operator="in" result="color-xform"/>
</filter>
<filter id="p">
<feColorMatrix in="SourceGraphic" result="cxform" values="1.0 0.0 0.0 0.0 0.0 0.0 1.0 0.0 0.0 0.0 0.0 0.0 1.0 0.0 0.0 0.0 0.0 0.0 0.44921875 0.0"/>
<feComposite in2="SourceGraphic" operator="in" result="color-xform"/>
</filter>
<filter id="o">
<feColorMatrix in="SourceGraphic" result="cxform" values="1.0 0.0 0.0 0.0 0.0 0.0 1.0 0.0 0.0 0.0 0.0 0.0 1.0 0.0 0.0 0.0 0.0 0.0 0.44921875 0.0"/>
<feComposite in2="SourceGraphic" operator="in" result="color-xform"/>
</filter>
<g id="y">
<use xlink:href="#x"/>
<use transform="translate(264.35)" filter="url(#n)" xlink:href="#c3"/>
<use xlink:href="#v"/>
<use transform="matrix(.92363 .05864 -.05864 .92363 275.75 46.55)" filter="url(#m)" xlink:href="#b"/>
<use transform="translate(168.7 52.4)" filter="url(#l)" xlink:href="#ah"/>
<use transform="matrix(.92363 .05864 -.05864 .92363 160.75 169.55)" filter="url(#k)" xlink:href="#b"/>
<use transform="matrix(.30165 .29018 -.29018 .30165 126.8 124.6)" xlink:href="#z"/>
<use transform="matrix(.68312 -.013474 .01532 .7749 282.65 11.5)" filter="url(#j)" xlink:href="#a"/>
</g>
<filter id="n">
<feColorMatrix in="SourceGraphic" result="color-matrix" values="-0.574000000954 1.43000006676 0.143999919295 0.0 0.0 0.425999999046 0.429999947548 0.144000023603 0.0 0.0 0.426000058651 1.42999982834 -0.855999946594 0.0 0.0 0.0 0.0 0.0 1.0 0.0"/>
</filter>
<filter id="m">
<feColorMatrix in="SourceGraphic" result="color-matrix" values="1.01859509945 0.35263171792 -0.371226876974 0.0 -0.105468742549 -0.0397485159338 0.918417334557 0.121331192553 0.0 -0.10546875 0.338516563177 -0.229001671076 0.890485107899 0.0 -0.10546875 0.0 0.0 0.0 1.0 0.0"/>
</filter>
<filter id="l">
<feColorMatrix in="SourceGraphic" result="color-matrix" values="-0.574000000954 1.43000006676 0.143999919295 0.0 -0.121093742549 0.425999999046 0.429999947548 0.144000023603 0.0 -0.12109375 0.426000058651 1.42999982834 -0.855999946594 0.0 -0.121093735099 0.0 0.0 0.0 1.0 0.0"/>
</filter>
<filter id="k">
<feColorMatrix in="SourceGraphic" result="color-matrix" values="1.00106203556 0.453291803598 -0.454353809357 0.0 -0.0859375 -0.0429634153843 0.891817271709 0.151146173477 0.0 -0.0859375074506 0.422036588192 -0.261708170176 0.839671492577 0.0 -0.0859374925494 0.0 0.0 0.0 1.0 0.0"/>
</filter>
<filter id="j">
<feColorMatrix in="SourceGraphic" result="cxform" values="1.0 0.0 0.0 0.0 0.0 0.0 1.0 0.0 0.0 0.0 0.0 0.0 1.0 0.0 0.0 0.0 0.0 0.0 0.44921875 0.0"/>
<feComposite in2="SourceGraphic" operator="in" result="color-xform"/>
</filter>
<g id="w">
<mask id="c">
<use xlink:href="#ai"/>
</mask>
<g mask="url(#c)">
<use transform="translate(-308.65 -55.05)" xlink:href="#y"/>
</g>
</g>
<filter id="i">
<feColorMatrix in="SourceGraphic" result="color-matrix" values="1.0 0.0 0.0 0.0 0.0 0.0 1.0 0.0 0.0 0.0 0.0 0.0 1.0 0.0 0.0 0.0 0.0 0.0 1.0 0.0"/>
</filter>
</defs>
<use transform="matrix(.7821 0 0 .7821 370.1 328.3)" filter="url(#i)" xlink:href="#w"/>
</svg>
