<?xml version="1.0" encoding="UTF-8"?>
<svg version="1.1" viewBox="0 0 951.75 791.53" xmlns="http://www.w3.org/2000/svg" xmlns:cc="http://creativecommons.org/ns#" xmlns:dc="http://purl.org/dc/elements/1.1/" xmlns:rdf="http://www.w3.org/1999/02/22-rdf-syntax-ns#" xmlns:xlink="http://www.w3.org/1999/xlink">
<metadata>
<rdf:RDF>
<cc:Work rdf:about="">
<dc:format>image/svg+xml</dc:format>
<dc:type rdf:resource="http://purl.org/dc/dcmitype/StillImage"/>
</cc:Work>
</rdf:RDF>
</metadata>
<g transform="translate(1.9034 1.8869)">
<use transform="matrix(.9517 0 0 .9517 -1.9034 -1.8888)" width="1000.05" height="831.70001" xlink:href="#f"/>
</g>
<defs>
<g id="f" transform="translate(2,2.3)">
<use transform="translate(205.45,188.35)" width="42.900002" height="6.0500002" xlink:href="#l"/>
<use transform="translate(18,18)" width="0" height="0" xlink:href="#sprite1"/>
<use transform="translate(-2,-2.3)" width="1000.05" height="831.70001" xlink:href="#k"/>
<use transform="matrix(.2603 .1493 -.1493 .2603 455.6 298.06)" width="332.75" height="332.54999" xlink:href="#e"/>
</g>
<g id="l" transform="translate(-205.45,-188.35)">
<path d="m207.45 190.35 38.9 2.05" fill="none" stroke="#000" stroke-linecap="round" stroke-linejoin="round" stroke-opacity=".50196" stroke-width="4"/>
</g>
<g id="k" transform="translate(2,2.3)">
<path d="m699.05 128.5h0.95l-1.35 43.95q-34.75 15.55-69.5 31.05l-1.55-1q25.95-42.85 71.45-74m29.65 469.05q-17.55-31.8-49.9-58.75 35.55 11.3 71.1 41.65l0.25 1.9 3 26.8-23.7-11.25-0.75-0.35m-276.15-142.7-0.2 7-0.7-6.15-10.25 9.15-0.8 0.7 0.8-0.7 10.25-9.2v0.05-0.05q5.85-12.25 5.85-24.5 4.45 5.25 7.65 6.8l-12.6 16.9m-449.4 371.5-3.15-11.55 0.2-0.4 31.7-26.55 11.9 9.8q-20.2 14.7-40.45 29.35l-0.2-0.65m194.15-575.1h0.05-0.05m127.35 235.9 0.1 0.05-0.65 0.85 0.6-0.85h0.05-0.05l-0.05-0.05m-138.1 189.9 0.55-0.45 0.05 0.05-0.6 0.4" fill="#635d4f" fill-rule="evenodd"/>
<path d="m118.4 343.55q0.6-0.45 1.2-0.8l-1.5 2 0.3-1.2" fill="#827a68" fill-rule="evenodd"/>
<path d="m885.8 358.05-1.5-1.65 1.7 0.2-0.2 1.45m-156.35 239.85-0.35 0.25-0.4-0.6 0.75 0.35" fill="#8c877c" fill-rule="evenodd"/>
<path d="m983.7 244.95-8.45-12.5-14.4 29.2-18.75-17.75-16.65 19.05-2.2-16.2-27.3 3.05-15.1 7.15-16-8-20.15 10.45-28.35-7.9-21 15.75-15.7-11.45-32.35-3.15q2-6.05 6.15-12.1 18.65 3.85 38.3 7.15 11.25-1.95 17.65-7.35l37.8-6.3 32.4 7.9 7.5-2.5 52.4-13.15 26.2 1.4 23.8-14.55q-2.45 17.25-5.8 31.8m-482.3-156.8h-0.85l0.8-0.05 0.05 0.05-0.05-0.05-0.8 0.05q-0.05-0.05 0.3-0.2h0.3-0.3l0.15-0.1 0.15 0.1 0.2 0.15 0.95-0.1-0.9 0.15m-20.55 4.75q-7.55 3.2-14.4 8.45l-17.85 4.35 11.35-11.35-2.85-3.75-14.5 12.45 9.7-23.4-18.4 13.95q-0.3-6.5 9.25-19.05-14.8 3.8-21.7 10.95-0.45-8.6 8.85-11.65-9.75-3.35-14.3 7.65 1.5-12.9 11.15-14.8-9.9-0.6-14.15 7.9-0.4-8.25 7.7-14.3-11.2 5.35-14.4 14.95-1.45-9.55 4-17.7-9.35 8.85-9.2 17.65-7.55-9.1-2.35-18.2-9.05 8.1-13.15 20.75-1.4 4.25-2.25 9l0.7-14.05 0.7-2-0.7 2-0.45-0.05 1.15-1.95 5.75-10.2q11.2-14.75 38.45-29.15l6.85 2.3 4.2 15.15 15 11.85 11.6 10.95 14.25 21.3" fill="#cc9" fill-rule="evenodd"/>
<path d="m440.6 465.55-7.3 6.5q-3.25-5.9-6.9-11.3l18.95-18.7-18.95 18.7q-10.45-15.35-24.6-27l-0.3-0.25q-13.1-10.7-29.35-18.25l7.75-7.25 12.45-11.7q15.05-2.1 30.4 5.55 11.9 5.9 24 17.7-0.05 10.95-1.4 22.5-1.35 11.1-3.95 22.8l-0.8 0.7m-35.65-32.4-1.05 0.35h-2.4 2.4l1.05-0.35" fill="#807866" fill-rule="evenodd"/>
<path d="m567.95 283.35-14.3 51.7q1.45 36.55-18.7 73.05l-15.15-32.95q-20.2-19.2-42.2-24.95-20.45-6.45-39.65-4.55-6.9 3.1-18.2-0.45l-2.05 4.9q-1.05 0.6-2.7 0.45l-7.6-0.95q32.45-38.55 83.95-54.5l29.45-24.05 16.6-11.3 26.6-18.15 12.35 8.2 0.8 0.2-9.2 33.35m-148.2 61.85q22.4-19.45 33.95-24.55 11.5-5.1 44.15-21.2 26.5-22.4 64.65-40.15-38.15 17.75-64.65 40.15-32.65 16.1-44.15 21.2-11.55 5.1-33.95 24.55m117.95-84.95-0.3-0.5 0.3 0.5m-11 58.15 8.25-3.5-8.25 3.5" fill="#99907a" fill-rule="evenodd"/>
<path d="m629.15 203.5q34.75-15.5 69.5-31.05 4.7 27.15-1.7 54.3l-7-2.05q-32.25-9.5-60.8-21.2m255.15 152.9 1.5 1.65 19.05 21-24.2 5.35v-0.05l-53.55-33.2 57.2 5.25m-768.95 420.4 0.7 3.6-16.7 11.75-0.15-0.1q-11.65-21.3-27.15-36.7l-0.1-0.1-16.35 7.8-0.1-0.05 6.55-10.3 2.4-3.75 24.2-8.35 3.25 3.35q5.3 5.65 10.1 12.05l-1 0.1 1-0.1q7.2 9.6 13.35 20.8m261.3-659.8 12.5 27.6-31.1-19.45-1.05-0.65-0.65-0.4-0.2 0.3-16.2-10.55 36.2 2.05 0.5 1.1m-179.3 134.25 34 29.3-37.95-19.6-0.85-0.25-29.45-2.05 34.2-7.4h0.05" fill="#7a7261" fill-rule="evenodd"/>
<path d="m358.05 125.15-1.5-0.45 0.45-0.2 1.05 0.65" fill="url(#x)" fill-rule="evenodd"/>
<path d="m465.9 440.15 1.1-0.5 0.55 0.5q-0.05 0.4-1.65 0" fill="url(#w)" fill-rule="evenodd"/>
<path d="m357 124.5-0.45 0.2-0.4-0.3 0.2-0.3 0.65 0.4" fill="#bdb197" fill-rule="evenodd"/>
<path d="m99.2 792.05-7.6-3.95-0.2-0.3q-9.5-15.45-22.2-28.6l-10.9 5.65-2.7-1.8 16.35-7.8 0.1 0.1q15.5 15.4 27.15 36.7m-18.55 9.45-77.15 25.9-0.15-0.4q20.25-14.65 40.45-29.35l36.85 3.85m-40.9-64.4q-1.95-3.3-5.15-7.1l0.4-0.35q16.85 7.85 29.7 18.9l-0.25 0.4-2.4 3.75q-10.35-8.9-22.2-15.55l-0.1-0.05" fill="#302d26" fill-rule="evenodd"/>
<path d="m250.35 533.45 0.2 6.7 0.35 11.3-24.45 21.1-4.4 20.45-21.7 8.9-12.1 11.05-16.3 0.45-8.15 0.2 86.55-80.15m-78.4 79.95 78.6-73.25-78.6 73.25" fill="#b07036" fill-rule="evenodd"/>
<path d="m390.5 60.5-5.75 10.2q1.9-5.1 5.75-10.2" fill="#94946e" fill-rule="evenodd"/>
<path d="m753.45 240.55q-4.15 6.05-6.15 12.1l-36.15-2.7-20.05-12.65-9.2 14.2-16.5-2.95-17.85-15.55 4.35-7.75-21.75 1.8-13.15-1.45-22.2 23.65-13.6-24.7-35.55 13.9 20-23.4-19.55-6.6 14.2-12.15-10-6.8-4.35 6.65-12.4 4.55-4.35 38.75-3.05-39.7 9.6-25.5-11.55-19.85-14.2 0.15-12.1-10.75-4.3-21.6-20.85-9.45-6.3-11.4q6.85-5.25 14.4-8.45l0.2-0.05q9.2-3.85 19.5-4.7h0.85l16.05 10.5q-9.6 6.9-12.1 16.6-1.1 4.15-0.9 8.8 23.3 21.45 42.3 35.45l-14.85 34.4 9.65-0.75 3.95-11 22.4 12.1-13.55 13.3 19.95 4.45-9.95 12.5 25.6-4.65 6.45 18.55 20.25-19.6 44.15 1.4-5.7 11.75 11.4 12.85 14.95 0.35 8.5-20.45 7 2.05 0.1 0.05q26.95 7.6 56.4 13.75m-123.3-15.5v2-2" fill="#c4c492" fill-rule="evenodd"/>
<path d="m699.05 128.5q-45.5 31.15-71.45 74h-0.1l4.6-51.35 66.95-22.65" fill="#9c927c" fill-rule="evenodd"/>
<path d="m146.4 751.75-24.65 24.1-6.4 0.95q-6.15-11.2-13.35-20.8 12.6 1.3 25.3-0.25 9.5-1.2 19.1-4m-94.75-37.4 1.4-7.05 38.1-35.4 5.25 0.5 1.05-1q4.1 1.85 8.05 3.9 8.2 4.2 15.55 9.35-28.8 10.3-58.65 35.45-5.25-3.1-10.75-5.75m515.55-541.2q27.45-17.7 64.9-22l-4.6 51.35-0.05 0.25-0.05 0.05q-32.5-13.4-60.2-29.65m-261.1 303.75 0.7-5.15 29.75-28.95 6.65-0.55 1.65-7.25 19.6-19.4 7.7-0.35q16.25 7.55 29.35 18.25-23.55 0.1-46.3 15.2 7.85 4.65 14.85 10.25 11.9 26.8-2.8 60.3l-5.2 5.15 5.2-5.15-3.6 7.6-1.6-2.45q-2.95-4.5-6.2-8.65-8.95-11.4-20.15-20.5-5.25-4.25-10.95-8.05l-0.1-0.05q-5.05-3.3-10.5-6.25-3.1-1.65-6.35-3.2l-1.45-0.7-0.2-0.05-0.05-0.05m45.1-30.5-37.05 34.5 37.05-34.5q-3.9-2.2-8-4.15 4.1 1.95 8 4.15l3.95 2.25 0.05 0.05-0.05-0.05-3.95-2.25 22.95-21.4-22.95 21.4m-194.6 201.9q14.6 10.7 20.8 17.1 5.05 5.3 9.7 11.2l-0.55 0.45q-8.2 23.1-24.75 45.35l-2.95 2.85 2.95-2.85-2.6 3.45-0.35-0.6q-7.2-12-16.35-21.95 9.7-28.9 11.1-57.65l3.3 2.25-0.3 0.4m-29.3 107.45-7.7 7.4 7.7-7.4m-21.8-80.45-39.6 38.2 39.6-38.2" fill="#baad94" fill-rule="evenodd"/>
<path d="m989.5 213.15-23.8 14.55-26.2-1.4-52.4 13.15-7.5 2.5-32.4-7.9-37.8 6.3q8.8-7.55 8.3-21.8 131.2 9.05 178-78.3-1.6 41.1-6.2 72.9m-488.95-125q-10.3 0.85-19.5 4.7l-0.2 0.05-14.25-21.3-11.6-10.95-15-11.85-4.2-15.15-6.85-2.3q29.95-15.9 79.35-31.35-63.65 26.6-41.85 54.85t34.95 33h-0.4q-1 0-0.15 0.1-0.35 0.15-0.3 0.2" fill="#ebebb0" fill-rule="evenodd"/>
<path d="m467 439.65-1.85-1.7 2.05 1.65-0.2 0.05 0.2-0.05 0.35 0.55-0.55-0.5" fill="#333028" fill-rule="evenodd"/>
<path d="m177.4 665.4 20.8-17.45 116.85-98-37.7 51.4-82.55 85.95q-3.7-5.6-7.65-10.65l-0.05-0.05q-4.65-5.9-9.7-11.2" fill="#694120" fill-rule="evenodd"/>
<path d="m368.1 534.65-9.1 3.45-134.25 129.85-24.75 27.75-4.2-6.9-1-1.5 82.55-85.95 37.7-51.4 40.8-34.2q3.25 4.15 6.2 8.65l1.6 2.45 4.1 6.95 0.35 0.85m-172.3 154.15 166.25-164.4-166.25 164.4" fill="#965d2e" fill-rule="evenodd"/>
<path d="m306.15 476.95 1.65 0.75q3.25 1.55 6.35 3.2l-63.6 59.25 63.6-59.25q5.45 2.95 10.5 6.25l-0.55 0.9-73.2 63.4-0.35-11.3-0.2-6.7 38.25-35.4 17.5-21.15 0.05 0.05" fill="#8c572b" fill-rule="evenodd"/>
<path d="m135.7 635.75 11.1-6.45 17-15.7 8.15-0.2 16.3-0.45-20.45 18.65-10.9 16.3-3.3-2.25q-4.85-3.15-9.95-5.9-3.9-2.15-7.95-4m36.25-22.35-28.3 26.35 28.3-26.35m-18.25 31.65-0.1 0.6 0.1-0.6" fill="#875429" fill-rule="evenodd"/>
<path d="m91.2 787.9-10.4 13.55-0.15 0.05-36.85-3.85-11.9-9.8-2.2-40.3 10.1-10.35 0.05-0.05q11.85 6.65 22.2 15.55l-6.55 10.3h-0.05l-0.1 0.15 0.25-0.1 2.7 1.8 10.9-5.65q12.7 13.15 22.2 28.6l-0.2 0.1" fill="#c4b89c" fill-rule="evenodd"/>
<path d="m34.2 729.2 10.7-16 6.75 1.15q5.5 2.65 10.75 5.75 14.25 8.5 26.25 20.5l-24.2 8.35 0.25-0.4q-12.85-11.05-29.7-18.9l0.05-0.15 0.3 0.05-1.15-0.35m30.8 18.85-0.3 0.5 0.3-0.5" fill="#bfb298" fill-rule="evenodd"/>
<path d="m0.45 813.9 29.2-66.35h0.05l2.2 40.3-31.7 26.55 0.25-0.5" fill="#e3d4b2" fill-rule="evenodd"/>
<path d="m386.55 96.15q15.3-1.45 34.2 7.25l-18.8 5.3q-12.95 3.9-25.3 8.3l-0.5-1.1-36.2-2.05 16.2 10.55 0.4 0.3q-39.55 16.1-71.75 37.9l-27.3-13.65q54.55-33.95 128.9-52.9l0.1 0.1h0.05m-1.4 1.75 1.35-1.75-1.35 1.75" fill="#ffe8b8" fill-rule="evenodd"/>
<path d="m437.95 345.65q19.2-1.9 39.65 4.55 22 5.75 42.2 24.95l-68.25 49.3-1.4-1.45-3.4-3.45q-12.1-11.8-24-17.7l15.2-56.2m8.85 73.15-0.05 0.75 0.05-0.75" fill="url(#t)" fill-rule="evenodd"/>
<path d="m747.3 252.65 32.35 3.15 15.7 11.45 21-15.75 28.35 7.9 20.15-10.45 16 8 15.1-7.15 27.3-3.05 2.2 16.2 16.65-19.05 18.75 17.75 14.4-29.2 8.45 12.5q-12.35 53.35-36.35 69.95-2.8-0.4 11.8-12.75-69.95 3.6-117.85-22-49.15-5-95.9-18.5l-0.25-0.1q-32.15 4.6-64.3-1.1-18.2 1.1-36.4-4.1l-0.45 0.15-2-5.65-12.05-5.35 0.2-18.45-0.2 18.45 12.05 5.35 2 5.65q-19.3 8-34.8 5.9-25.4 11.5-35.3 1.55l-5.95 19.4 9.2-33.35-0.8-0.2-12.35-8.2-26.6 18.15q-13.6-6.8-15.45-26.9l1.8-55.6q-13.8-10.6-26.5-26.55-22.75-15.55-42.1-38l-0.45-0.2q5.55-6.45 11.75-11.15-6.2 4.7-11.75 11.15-43.85-15.5-69.1-34.75 4.1-12.65 13.15-20.75-5.2 9.1 2.35 18.2-0.15-8.8 9.2-17.65-5.45 8.15-4 17.7 3.2-9.6 14.4-14.95-8.1 6.05-7.7 14.3 4.25-8.5 14.15-7.9-9.65 1.9-11.15 14.8 4.55-11 14.3-7.65-9.3 3.05-8.85 11.65 6.9-7.15 21.7-10.95-9.55 12.55-9.25 19.05l18.4-13.95-9.7 23.4 14.5-12.45 2.85 3.75-11.35 11.35 17.85-4.35 6.3 11.4 20.85 9.45 4.3 21.6 12.1 10.75 14.2-0.15 11.55 19.85-9.6 25.5 3.05 39.7 4.35-38.75 12.4-4.55 4.35-6.65 10 6.8-14.2 12.15 19.55 6.6-20 23.4 35.55-13.9 13.6 24.7 22.2-23.65 13.15 1.45 21.75-1.8-4.35 7.75 17.85 15.55 16.5 2.95 9.2-14.2 20.05 12.65 36.15 2.7q-1.55 4.45-1.9 9 0.35-4.55 1.9-9m-363.95-165.9h-0.1q-1.4-7.05 0.8-14.05l-0.7 14.05m246.6 158.75-7.3-3.3 7.3 3.3" fill="#8c8c68" fill-rule="evenodd"/>
<path d="m644 256.5 0.45-0.15q18.2 5.2 36.4 4.1 32.15 5.7 64.3 1.1l0.25 0.1q-0.55 6.55 1.4 13.15-1.95-6.6-1.4-13.15 46.75 13.5 95.9 18.5 47.9 25.6 117.85 22-14.6 12.35-11.8 12.75-11.4 7.85-25.35 7.5l-0.95 1.55q-15.5-6.6-30.85-12.4-73.45-27.7-143.4-36.75-34.95-4.5-69-4.35-13.85 2.55-26.85 6.4l-3.9 1.2q-54.05 16.95-93.4 57l14.3-51.7 5.95-19.4q9.9 9.95 35.3-1.55 15.5 2.1 34.8-5.9l5.45 15.8-5.45-15.8m6.55 18.95-1.1-3.15 1.1 3.15m-1.1-3.15 0.75-1.85-0.75 1.85-2.4 5.75 2.4-5.75m-194.75-159.8 0.45 0.2q19.35 22.45 42.1 38 12.7 15.95 26.5 26.55l-1.8 55.6q1.85 20.1 15.45 26.9l-16.6 11.3-29.45 24.05q29.65-61.9 24-111.4-36.9-41.55-66.75-63.45 2.95-4.15 6.1-7.75-3.15 3.6-6.1 7.75-14.8-10.85-27.85-16.85-18.9-8.7-34.2-7.25v-0.15q-2.4-4.65-3.3-9.25h0.1q0.85-4.75 2.25-9 25.25 19.25 69.1 34.75" fill="#5e5e46" fill-rule="evenodd"/>
<path d="m689.95 224.7-8.5 20.45-14.95-0.35-11.4-12.85 5.7-11.75-44.15-1.4-20.25 19.6-6.45-18.55-25.6 4.65 9.95-12.5-19.95-4.45 13.55-13.3-22.4-12.1-3.95 11-9.65 0.75 14.85-34.4q10.95 8.05 20.45 13.65l-1.45 0.45 1.45-0.45q27.7 16.25 60.2 29.65l0.05 0.05 1.7 0.65q28.55 11.7 60.8 21.2" fill="#abab7e" fill-rule="evenodd"/>
<path d="m392.35 396.3 14.9-46.65 0.15-0.05 7.6 0.95q1.65 0.15 2.7-0.45l2.05-4.9q-0.05 3.8-2.05 4.9 2-1.1 2.05-4.9 11.3 3.55 18.2 0.45l-15.2 56.2q-15.35-7.65-30.4-5.55m127.45-21.15 15.15 32.95-0.3 1.15-67.45 30.35-2.05-1.65q-3.2-1.55-7.65-6.8l-5.95-6.7 68.25-49.3m-116.45 15.2 14.35-40.25-14.35 40.25" fill="url(#s)" fill-rule="evenodd"/>
<path d="m451.55 424.45 5.95 6.7q0 12.25-5.85 24.5l-10.25 9.2q2.6-11.7 3.95-22.8 1.35-11.55 1.4-22.5l3.4 3.45 1.4 1.45m-1.7 13.1-4.5 4.5 4.5-4.5" fill="#4d483d" fill-rule="evenodd"/>
<path d="m433.3 472.05-0.15 4.5-23.35 25.05-5.65-1.4-1-1.85-5.5-9.15q-11.55-17.45-27.6-30.25-7-5.6-14.85-10.25 22.75-15.1 46.3-15.2l0.3 0.25q14.15 11.65 24.6 27 3.65 5.4 6.9 11.3m-63.25-13.1 0.05-0.65-0.05 0.65m56.35 1.8-28.75 28.45 28.75-28.45" fill="#a19580" fill-rule="evenodd"/>
<path d="m404.15 500.2-2.4 6.7-27.6 27.85-5.95-0.15-0.45-0.8-4.1-6.95 3.6-7.6q14.7-33.5 2.8-60.3 16.05 12.8 27.6 30.25l5.5 9.15 1 1.85m-204.15 195.5 0.5 6.5-31.6 29.8-6.45-0.35-2.55 6.85-13.5 13.25q-9.6 2.8-19.1 4-12.7 1.55-25.3 0.25-4.8-6.4-10.1-12.05l-3.25-3.35q-12-12-26.25-20.5 29.85-25.15 58.65-35.45 11.8 8.2 21.45 18.65 9.15 9.95 16.35 21.95l0.35 0.6 2.6-3.45q16.55-22.25 24.75-45.35l0.6-0.4q3.95 5.05 7.65 10.65l1 1.5-34 33.6 34-33.6 4.2 6.9m-41.15 29.55-31.55 30.5 31.55-30.5m0.35 0.6 3.25 5.8-3.25-5.8m238.45-236.65-30.4 30.05 30.4-30.05" fill="#8f8472" fill-rule="evenodd"/>
<path d="m324.75 487.2q5.7 3.8 10.95 8.05l-87.4 81.7-23.2 22.85-23.05 14.35-22.95 33.8 1.05 9.25 18.05-9.25-20.8 17.45q-6.2-6.4-20.8-17.1l0.3-0.4 10.9-16.3 20.45-18.65 12.1-11.05 21.7-8.9 4.4-20.45 24.45-21.1v0.95-0.95l73.2-63.4 0.65-0.85m-130.9 125.6-5.6 0.15 5.6-0.15m-37.25 35.5q1.5 0.6 0.3-0.4 1.2 1-0.3 0.4" fill="#7d4d26" fill-rule="evenodd"/>
<path d="m97.45 671.4-1.4-4.3 33.3-33 6.35 1.65q4.05 1.85 7.95 4l-38.15 35.55 38.15-35.55q5.1 2.75 9.95 5.9-1.4 28.75-11.1 57.65-9.65-10.45-21.45-18.65-7.35-5.15-15.55-9.35-3.95-2.05-8.05-3.9" fill="#9e927e" fill-rule="evenodd"/>
<path d="m335.7 495.25q11.2 9.1 20.15 20.5l-40.8 34.2 3.2-3.65-3.2 3.65-116.85 98-18.05 9.25-1.05-9.25 22.95-33.8 23.05-14.35 23.2-22.85 87.4-81.7" fill="#452b15" fill-rule="evenodd"/>
<path d="m669.7 666.1q-9.1-48.95-32.35-72.3-97.05-80.55-184.65-138.75l-0.15-0.2 12.6-16.9 1.85 1.7-1.1 0.5 6 4.15q89.8 62.75 179.15 136.9 24.25 24.35 26.35 49.55 1.45 17.45-7.7 35.35m-501.7-356.2q13.7-2.75 28.85-0.3 90.3 25.6 195.5 86.7l-12.45 11.7q-101.4-58.05-188.85-82.85-15.15-2.45-28.85 0.3-23.9 4.8-42.6 17.3 17.5-19.2 48.4-32.85" fill="#302a1f" fill-rule="evenodd"/>
<path d="m746.8 274.8q69.95 9.05 143.4 36.75-0.85 23.1-4.2 45.05l-1.7-0.2-57.2-5.25 53.55 33.2v0.05q-9.7 41.05-28.95 77.9l-1.7 3.25-1.75 3.25 1.85-3.15q-15.1 26.65-29.5 45.55l-0.05 0.05q-29.15 38.25-70.4 71.1l-0.25-1.9q-35.55-30.35-71.1-41.65 32.35 26.95 49.9 58.75l0.4 0.6-8.2 5.7q-20.5 14-43.5 26.9-2.1-25.2-26.35-49.55-89.35-74.15-179.15-136.9l0.75 0.5-5.1-4.65-0.35-0.55 67.45-30.35 0.3-1.15q20.15-36.5 18.7-73.05 39.35-40.05 93.4-57l3.9-1.2q13-3.85 26.85-6.4 34.05-0.15 69 4.35m136.05 80 1.45 1.6-1.45-1.6m-35.65 113.5 1.05 0.5-1.05-0.5m-289.45 24.95 89.3-215.2-89.3 215.2m49.8 22.45 92.45-222.8-92.45 222.8" fill="url(#r)" fill-rule="evenodd"/>
<path d="m448.6 120.25q29.85 21.9 66.75 63.45 5.65 49.5-24 111.4-51.5 15.95-83.95 54.5l-0.15 0.05-14.9 46.65q-105.2-61.1-195.5-86.7-15.15-2.45-28.85 0.3 8.2-21.75 25.4-48.95l37.95 19.6-34-29.3q14.5-22.65 32.9-42.35 23.95-25.7 54.55-46.3 32.2-21.8 71.75-37.9l1.5 0.45 31.1 19.45-12.5-27.6q12.35-4.4 25.3-8.3l18.8-5.3q13.05 6 27.85 16.85m-43.1 228.45 1.9 0.9-1.9-0.9m-44 13.15 92.45-222.8-92.45 222.8m-49.8-22.45 92.45-222.8-92.45 222.8" fill="url(#q)" fill-rule="evenodd"/>
<path d="m848.25 468.8 1.75-3.25 1.7-3.25 0.25 0.1-1.85 3.25-1.85 3.15" fill="#7a5f29" fill-rule="evenodd"/>
<path d="m230.25 208.9q-18.4 19.7-32.9 42.35h-0.05l-34.2 7.4 29.45 2.05 0.85 0.25q-17.2 27.2-25.4 48.95-30.9 13.65-48.4 32.85-0.6 0.35-1.2 0.8 19.45-81.35 71-138.3l40.85 3.65m-68.65 49.1 1.5 0.65-1.5-0.65" fill="#e8d3a7" fill-rule="evenodd"/>
<path d="m284.8 162.6q-30.6 20.6-54.55 46.3l-40.85-3.65q28.95-32.05 68.1-56.3l27.3 13.65" fill="#fff3d9" fill-rule="evenodd"/>
<path d="m844.2 545.5q-45.4 55.4-117.25 99l-6.05-40.65 8.2-5.7 0.35-0.25 23.7 11.25-3-26.8q41.25-32.85 70.4-71.1l23.65 34.25" fill="#8c7a56" fill-rule="evenodd"/>
<path d="m726.95 644.5q-29.1 17.6-62.45 33.3l-0.8-1.65q3.4-5.05 6-10.05l0.75 4.3-0.75-4.3q9.15-17.9 7.7-35.35 23-12.9 43.5-26.9l6.05 40.65" fill="#b3996b" fill-rule="evenodd"/>
<path d="m883.55 486q-16.25 31.25-39.35 59.5l-23.65-34.25 0.05-0.05q14.4-18.9 29.5-45.55l1.85-3.25 31.6 23.6" fill="#d9b67f" fill-rule="evenodd"/>
<path d="m890.2 311.55q15.35 5.8 30.85 12.4l0.95 0.05q-0.7 89.3-38.45 162l-31.6-23.6-0.25-0.1q19.25-36.85 28.95-77.9l24.2-5.35-19.05-21 0.2-1.45q3.35-21.95 4.2-45.05" fill="#b39d78" fill-rule="evenodd"/>
<path d="m630.15 227.05-0.2 18.45 12.05 5.35 2 5.65m-13.85-29.45v-2m19.3 47.25 1.1 3.15m-1.1-3.15-5.45-15.8m-21.35-14.3 7.3 3.3m-262.7 273.75q14.7-33.5 2.8-60.3m-216.45 186.7 0.1-0.6m-11.2 58.25q9.7-28.9 11.1-57.65m8.2 76.75q16.55-22.25 24.75-45.35m-27.35 48.8 2.6-3.45m-59.8 33.6-1 0.1m1-0.1q12.6 1.3 25.3-0.25 9.5-1.2 19.1-4m-25.35-67.1q-28.8 10.3-58.65 35.45m384.35-300.55 0.05-0.75m-5.4 46.05q2.6-11.7 3.95-22.8 1.35-11.55 1.4-22.5m-45.25 13.95q-23.55 0.1-46.3 15.2m96.45 6.95q5.85-12.25 5.85-24.5m-56 2.35h2.4l1.05-0.35m-34.85 25.15-0.05 0.65m-2.8 60.3-3.6 7.6" fill="none" stroke="#000" stroke-linecap="round" stroke-linejoin="round" stroke-opacity=".50196" stroke-width=".25"/>
<path d="m39.85 737.15q11.85 6.65 22.2 15.55l2.4-3.75 0.25-0.4q-12.85-11.05-29.7-18.9m29.7 18.9 0.3-0.5m-9.4 15 16.35-7.8 0.1 0.1q15.5 15.4 27.15 36.7m-43.7-29.05h-0.05m2.85 1.85 10.9-5.65q12.7 13.15 22.2 28.6m-29.35-35.1-6.55 10.3" fill="none" stroke="#000" stroke-linecap="round" stroke-linejoin="round" stroke-opacity=".50196" stroke-width="2.5"/>
<path d="m55.6 763.05 2.7 1.8" fill="none" stroke="#000" stroke-linecap="round" stroke-linejoin="round" stroke-opacity=".50196" stroke-width="2"/>
<path d="m453.95 139.05-92.45 222.8m338.5-68.95-92.45 222.8" fill="none" stroke="#fff" stroke-linecap="round" stroke-linejoin="round" stroke-opacity=".10196" stroke-width="32.75"/>
<path d="m650.2 270.45-0.75 1.85m-2.4 5.75 2.4-5.75m-245.3-155.7-92.45 222.8m335.35-61.35-89.3 215.2" fill="none" stroke="#fff" stroke-linecap="round" stroke-linejoin="round" stroke-opacity=".10196" stroke-width="7.25"/>
<path d="m562.5 259.3q-38.15 17.75-64.65 40.15-32.65 16.1-44.15 21.2-11.55 5.1-33.95 24.55l-2.05 4.9-14.35 40.25" fill="none" stroke="#fff" stroke-linecap="round" stroke-linejoin="round" stroke-opacity=".30196" stroke-width="12.25"/>
<path d="m250.9 551.45-24.45 21.1-4.4 20.45-21.7 8.9-12.1 11.05-20.45 18.65-10.9 16.3-0.3 0.4m20.8 17.1 20.8-17.45 116.85-98 40.8-34.2m-107.55 61.2 87.4-81.7m-20.65 54.7 3.2-3.65m-40.9 55.05-82.55 85.95m129.3-199.25-73.2 63.4" fill="none" stroke="#000" stroke-linecap="round" stroke-linejoin="round" stroke-opacity=".10196" stroke-width="4"/>
<path d="m179.1 647.95 22.95-33.8 23.05-14.35 23.2-22.85m66.75-27-37.7 51.4" fill="none" stroke="#000" stroke-linecap="round" stroke-linejoin="round" stroke-opacity=".10196" stroke-width="2.5"/>
<path d="m163.8 613.6-2.65 0.05m246.25-264.05-1.9-0.9m12.2 1.4q-1.05 0.6-2.7 0.45l-7.6-0.95m12.35-4.4q11.3 3.55 18.2 0.45 19.2-1.9 39.65 4.55m-59.9-0.1q2-1.1 2.05-4.9m-169.4 188.25 0.2 6.7m-62.3 72.8 5.6-0.15m56.5-79.35-0.25-8.75m0.8 27.7v-0.95l-0.35-11.3m-78.6 73.25 16.3-0.45m-16.3 0.45-8.15 0.2" fill="none" stroke="#000" stroke-linecap="round" stroke-linejoin="round" stroke-opacity=".10196" stroke-width=".25"/>
<path d="m983.7 244.95q3.35-14.55 5.8-31.8 4.6-31.8 6.2-72.9-46.8 87.35-178 78.3 0.5 14.25-8.3 21.8-6.4 5.4-17.65 7.35-19.65-3.3-38.3-7.15-4.15 6.05-6.15 12.1m-1.9 9q0.35-4.55 1.9-9m-47.3-124.15v-0.35l-0.95 0.35q-45.5 31.15-71.45 74m1.55 1q34.75-15.5 69.5-31.05l1.35-43.95m45.4 133.15q-0.55 6.55 1.4 13.15m143.4 36.75q15.35 5.8 30.85 12.4l0.95-1.55q13.95 0.35 25.35-7.5 24-16.6 36.35-69.95m-286.75-18.2-7-2.05m-143.2-65.2q-19-14-42.3-35.45-0.2-4.65 0.9-8.8 2.5-9.7 12.1-16.6l-16.05-10.5h-0.85q-10.3 0.85-19.5 4.7l-0.2 0.05q-7.55 3.2-14.4 8.45-6.2 4.7-11.75 11.15-3.15 3.6-6.1 7.75 29.85 21.9 66.75 63.45 5.65 49.5-24 111.4m205.6-68.35 0.1 0.05q26.95 7.6 56.4 13.75m-185.5 42.8-14.3 51.7m330.65 21.35 1.5 1.65 0.2-1.45-1.7-0.2-57.2-5.25 53.55 33.2v0.05l24.2-5.35-19.05-21m-1.5-1.65-1.45-1.6m7.35-43.25q-0.85 23.1-4.2 45.05m36-34.2v1.6q-0.7 89.3-38.45 162-16.25 31.25-39.35 59.5-45.4 55.4-117.25 99-29.1 17.6-62.45 33.3h-0.05l-0.8 0.35m35-505.7q4.7 27.15-1.7 54.3m151.3 242.05 1.75-3.25 1.7-3.25q19.25-36.85 28.95-77.9m-30.55 81.25-1.85 3.15m3.7-6.4-1.85 3.25q-15.1 26.65-29.5 45.55m-91.9 86.35q-17.55-31.8-49.9-58.75 35.55 11.3 71.1 41.65l0.25 1.9q41.25-32.85 70.4-71.1m-91.1 86.65-0.35 0.25-8.2 5.7m29.25-21.5 3 26.8-23.7-11.25-0.75-0.35m-59 68.55q-2.6 5-6 10.05m6.75-5.75-0.75-4.3q-9.1-48.95-32.35-72.3-97.05-80.55-184.65-138.75m-0.15-0.2-0.2 7-0.7-6.15m-11.05 9.85-7.3 6.5-0.15 4.5-23.35 25.05-5.65-1.4-2.4 6.7-27.6 27.85-5.95-0.15-0.1 0.05-9.1 3.45-134.25 129.85-24.75 27.75 0.5 6.5-31.6 29.8-6.45-0.35-2.55 6.85-13.5 13.25-24.65 24.1-6.4 0.95 0.7 3.6-16.7 11.75-0.1 0.05-0.05-0.15-7.6-3.95-0.4-0.2-10.4 13.55-0.15 0.05-77.15 25.9h-0.05l-0.3-1.05m-3.15-11.55 0.45-0.9 29.2-66.35h0.05l10.1-10.35-0.05-0.1q-1.95-3.3-5.15-7.1l-0.45-0.5h-0.15l0.1-0.1-0.3-0.3 0.4 0.1 10.7-16 6.75 1.15 1.4-7.05 38.1-35.4 5.25 0.5 1.05-1-1.4-4.3 33.3-33 6.35 1.65 11.1-6.45 17-15.7 86.55-80.15m427.05 97.3q23-12.9 43.5-26.9m-51.2 62.25q9.15-17.9 7.7-35.35m-176-542.9 0.9 0.15-0.9 0.15-0.05-0.05-0.8 0.05q-0.05-0.05 0.3-0.2-0.85-0.1 0.15-0.1h0.4q-13.15-4.75-34.95-33t41.85-54.85q-49.4 15.45-79.35 31.35m73.35 56.65-0.95 0.1-0.2-0.15h-0.3l0.15-0.1 0.15 0.1 1.15 0.05m74.85 162-9.2 33.35m-0.75-110.2q27.45-17.7 64.9-22l66.95-22.65m-133.3 45.1 1.45-0.45q-9.5-5.6-20.45-13.65m-163.5-72.75q0.9 4.6 3.3 9.25l-0.15 0.05 0.1 0.1h0.05q15.3-1.45 34.2 7.25 13.05 6 27.85 16.85m-64.55-47.55 0.7-2q1.9-5.1 5.75-10.2 11.2-14.75 38.45-29.15m-42.45 64.8-1.35 1.75m1.35-1.75 0.05-0.15m-3.3-9.25q-1.4-7.05 0.8-14.05m-7.4 44.3 12.5 27.6-31.1-19.45-1.5-0.45q-39.55 16.1-71.75 37.9-30.6 20.6-54.55 46.3-18.4 19.7-32.9 42.35l34 29.3-37.95-19.6q-17.2 27.2-25.4 48.95 13.7-2.75 28.85-0.3 90.3 25.6 195.5 86.7m-15.7-279.3q12.35-4.4 25.3-8.3l18.8-5.3m-64.6 21-16.2-10.55 36.2 2.05 0.5 1.1m-18.6 8.15-1.05-0.65-0.45 0.2-0.4-0.3m0.2-0.3 0.65 0.4m270.45 78.35v-0.1l-0.05 0.05 0.05 0.05 1.7 0.65q28.55 11.7 60.8 21.2m-62.45-22.2-0.05 0.25 0.15-0.25m-0.1 0 4.6-51.35m-4.7 51.65q-32.5-13.4-60.2-29.65m-309.7-24.2q-39.15 24.25-68.1 56.3-51.55 56.95-71 138.3l-0.3 1.2 1.5-2q17.5-19.2 48.4-32.85m-48.4 32.85q-0.6 0.35-1.2 0.8m44.7-84.9 34.2-7.4h0.05m-0.05 0h0.05m-3.95 9.7-0.85-0.25-29.45-2.05-1.5-0.65m218.3 150q-101.4-58.05-188.85-82.85-15.15-2.45-28.85 0.3-23.9 4.8-42.6 17.3m186.5 134.15 0.7-5.15 29.75-28.95 6.65-0.55 1.65-7.25 19.6-19.4 7.7-0.35 7.75-7.25m-72.1 69.7-1.45-0.7-0.2-0.05-0.05-0.05-17.5 21.15-38.25 35.4m100.85-87.05q-3.9-2.2-8-4.15m26.85 16.7q-7-5.6-14.85-10.25l-0.05-0.05-3.95-2.25m-194.3 201.5q1.2 1-0.3 0.4 14.6 10.7 20.8 17.1m-41.7-29.65q4.05 1.85 7.95 4 5.1 2.75 9.95 5.9l3.3 2.25m-122.75 81.6-0.05-0.1 0.05-0.1-0.35-0.2m1.25 0.4h-0.9m0.05-0.3 1.15 0.35-0.3-0.05m-0.35 0-0.55-0.2 0.05-0.1m65 62.85 0.15 0.1m87.75-115.55q-4.65-5.9-9.7-11.2m18.4 23.4-1-1.5q-3.7-5.6-7.65-10.65l-0.05-0.05m8.7 12.2 4.2 6.9m334.65-286.45 0.3-1.15m-93.55 56.75-0.8 0.7m-38.8-31.8-0.3-0.25m50.15 22.15v0.05m-10.25 9.15 10.25-9.2m-79.5-40.4q16.25 7.55 29.35 18.25m-76.75 53.7h-0.05l-0.05-0.05m43.1 46.65 0.45 0.8m18.2-438.55q-74.35 18.95-128.9 52.9" fill="none" stroke="#000" stroke-linecap="round" stroke-linejoin="round" stroke-opacity=".2" stroke-width="4"/>
<path d="m746.8 274.8q69.95 9.05 143.4 36.75m-336.55 23.5q39.35-40.05 93.4-57l3.9-1.2q13-3.85 26.85-6.4 34.05-0.15 69 4.35m-743.65 551.55-3.15-11.55 0.2-0.4 31.7-26.55-2.2-40.3m647.7-116.8q-2.1-25.2-26.35-49.55-89.35-74.15-179.15-136.9l-6-4.15 1.1-0.5-1.85-1.7-12.6 16.9m38.8-159.75 29.45-24.05 16.6-11.3 26.6-18.15 12.35 8.2m-184 146.5 14.9-46.65 0.15-0.05q32.45-38.55 83.95-54.5m-13.75 55.1q22 5.75 42.2 24.95l15.15 32.95q20.15-36.5 18.7-73.05m-16.25-75.3 0.3 0.5m-157.8 147.75 12.45-11.7q15.05-2.1 30.4 5.55m-114.95 75.85q3.25 1.55 6.35 3.2 5.45 2.95 10.5 6.25m0.1 0.05q5.7 3.8 10.95 8.05 11.2 9.1 20.15 20.5 3.25 4.15 6.2 8.65m-264.6 147q4.1 1.85 8.05 3.9 8.2 4.2 15.55 9.35 11.8 8.2 21.45 18.65 9.15 9.95 16.35 21.95l0.35 0.6m-96.8-5.75q-5.25-3.1-10.75-5.75m50.35 41.65q-4.8-6.4-10.1-12.05l-3.25-3.35m26.7 36.2q-6.15-11.2-13.35-20.8m-39.6-35.9q14.25 8.5 26.25 20.5m73.8-8.95-3.25-5.8m292.35-301.4 5.95 6.7q4.45 5.25 7.65 6.8l2.05 1.65 67.45-30.35m-87.9 10.3 3.4 3.45 1.4 1.45m16 15.7 5.1 4.65m-6.75-4.65q1.6 0.4 1.65 0l-0.55-0.5 0.2-0.05 0.35 0.55m-41.15 20.6q3.65 5.4 6.9 11.3m-6.9-11.3q-10.45-15.35-24.6-27m44.95-14.2q-12.1-11.8-24-17.7m-52.7 57.1q16.05 12.8 27.6 30.25l5.5 9.15 1 1.85m-36.4 33.6-4.1-6.95-1.6-2.45m-318.25 273.25 36.85 3.85m-77.3 25.5-0.2-0.65m40.65-28.7q-20.2 14.7-40.45 29.35m28.55-39.15 11.9 9.8" fill="none" stroke="#000" stroke-linecap="round" stroke-linejoin="round" stroke-opacity=".45098" stroke-width="4"/>
<path d="m534.95 314.9-8.25 3.5" fill="none" stroke="#fff" stroke-linecap="round" stroke-linejoin="round" stroke-opacity=".42353" stroke-width="32.75"/>
<path d="m314.15 480.9 37.05-34.5 22.95-21.4m-123.6 115.15 63.6-59.25m47.9 43.5 5.2-5.15 30.4-30.05 28.75-28.45m-175.85 79.4-78.6 73.25m-28.3 26.35 28.3-26.35m-66.45 61.9 38.15-35.55m15.2 85.5 2.95-2.85 34-33.6m-68.5 66.95 31.55-30.5m-39.25 37.9 7.7-7.4m-61.4-42.25 39.6-38.2m339.85-233.25-18.95 18.7m18.95-18.7 4.5-4.5m-87.8 86.85-166.25 164.4" fill="none" stroke="#fff" stroke-linecap="round" stroke-linejoin="round" stroke-opacity=".36078" stroke-width="20"/>
<path d="m848.25 468.8-1.05-0.5" fill="none" stroke="#000" stroke-linecap="round" stroke-linejoin="round" stroke-opacity=".30196" stroke-width=".25"/>
<path d="m319.95 497.4q7.3 0.7-72.75 80.8 28.4-22.45-64.35 77 162.35-152 165.6-148.7l1 1.05q3.05 4.1 5.65 8.6l1.55 2.15q-21 13.9-39.05 33 13.8-9.45 20.5-17.9 19.5-10.45 20.35-12.4 3.5 5.5 6.25 11.55l-2.65-0.15q-11.35-1.45-42 27.65l8.3-5.95-6.45 6q29.1-20.95 35.6-23.7l-0.45 0.95 1.15 0.7-64.7 58q14.25-16.2 16.6-32.45-6.5 20.55-26.4 41.1l-17.8 15.15-31.75 29.05 48.35-40.4-69.9 65-15.95 11.75 0.75-0.75q96.25-96.6 108.1-123.1-31.95 44.75-110.15 119.3l-13.8-11.75-27.95-35.75 156.95-150.9-38.4 44.05q26.3-12.95 47.8-28.95" fill="url(#p)" fill-rule="evenodd"/>
<path d="m98.95 668.3q-0.55-1.05-2.4-2.2l1.5-1.55m69 66.95-0.75-0.5m-1.4-0.15q-1.2 0.25-2.35 1.8l-2.25-4.1m9.7 2.3-1.9 1.8-0.65-0.8" fill="none" stroke="#000" stroke-linecap="round" stroke-linejoin="round" stroke-opacity=".10196" stroke-width=".25"/>
<path d="m921.4 323.65 0.95-1.55q66.45 1.7 73.7-182.15-46.8 87.35-178 78.3 0.9 24.5-25.95 29.15-19.65-3.3-38.3-7.15-29.45-6.15-56.4-13.75l-0.1-0.05q6.4-27.15 1.7-54.3l1.35-44.3-67.9 23q-37.45 4.3-64.9 22l-1.45 0.45m187.7 66.95 0.1-0.5m168.45 82.35v1.6q-1.85 232.85-259.8 355.45 4.6-8.85 2.45-30.7-2.15-21.9-26.85-52-96.45-80.05-179.65-137.3l-24.85 12.6-0.15 4.5-23.35 25.05-5.65-1.4-2.4 6.7-27.6 27.85-5.95-0.15-9.2 3.5-134.25 129.85-24.75 27.75 0.5 6.5-31.6 29.8-6.45-0.35-2.55 6.85-38.15 37.35-6.4 0.95 0.7 3.6-16.7 11.75-0.1 0.05-0.05-0.15q-3.9-1.9-7.6-3.95l-0.4-0.2-10.4 13.55-77.3 25.95h-0.05l-3.45-12.6 29.65-67.25h0.05l10.1-10.35-0.05-0.1q-1.95-3.3-5.15-7.1l-0.45-0.5h-0.15l0.1-0.1-0.3-0.3 0.4 0.1 10.7-16 6.75 1.15 1.4-7.05 38.1-35.4 5.25 0.5 1.05-1-1.4-4.3 33.3-33 6.35 1.65 11.1-6.45 141.8-131.25 17.5-21.15 0.7-5.15 29.75-28.95 6.65-0.55 1.65-7.25 19.6-19.4 4.75 2.6 8.75-8.35q-102.3-58.8-190.4-83.75-15.15-2.45-28.85 0.3-23.5 4.7-43.05 24.65l0.3-6.3q47.35-191.85 270.45-248.7l0.15-0.05q-25.8-49.85 121.75-96-98.75 37 9.15 98.65-13.7 9.9-13 25.4 36.75 33.85 62.75 49.1m-180.8-77.1 0.1 0.1 0.05-0.15m-0.05 0.15-1.35 1.75m-350.95 631.3 1.15 0.35-0.3-0.05h-0.9l-0.05-0.1 0.05-0.1-0.35-0.2m0.35 0.2 0.05-0.1m0.5 0.3-0.55-0.2m65.05 62.75 0.15 0.1" fill="none" stroke="#000" stroke-linecap="round" stroke-linejoin="round" stroke-opacity=".30196" stroke-width="4"/>
</g>
<linearGradient id="x" x1="-819.2" x2="819.2" gradientTransform="matrix(.1071 .059 -.0892 .1621 391.45 259.85)" gradientUnits="userSpaceOnUse">
<stop stop-color="#969696" offset="0"/>
<stop stop-color="#bdbdbd" offset="1"/>
</linearGradient>
<linearGradient id="w" x1="-819.2" x2="819.2" gradientTransform="matrix(-.1624 -.0895 .1126 -.2044 641.35 392.65)" gradientUnits="userSpaceOnUse">
<stop stop-color="#bfbfbf" offset="0"/>
<stop stop-color="#828282" offset="1"/>
</linearGradient>
<linearGradient id="t" x1="-819.2" x2="819.2" gradientTransform="matrix(-.0121 .1246 -.0869 -.0085 456.55 475.1)" gradientUnits="userSpaceOnUse" spreadMethod="reflect">
<stop stop-color="#333" offset="0"/>
<stop offset=".98824"/>
</linearGradient>
<linearGradient id="s" x1="-819.2" x2="819.2" gradientTransform="matrix(-.0121 .1246 -.0869 -.0085 456.55 475.1)" gradientUnits="userSpaceOnUse" spreadMethod="reflect">
<stop stop-color="#333" offset="0"/>
<stop stop-color="#666" offset=".98824"/>
</linearGradient>
<linearGradient id="r" x1="-819.2" x2="819.2" gradientTransform="matrix(-.1624 -.0895 .1126 -.2044 641.35 392.65)" gradientUnits="userSpaceOnUse">
<stop stop-color="#bfbfbf" offset="0"/>
<stop stop-color="#4f4f4f" offset="1"/>
</linearGradient>
<linearGradient id="q" x1="-819.2" x2="819.2" gradientTransform="matrix(.1071 .059 -.0892 .1621 391.45 259.85)" gradientUnits="userSpaceOnUse">
<stop stop-color="#707070" offset="0"/>
<stop stop-color="#bdbdbd" offset="1"/>
</linearGradient>
<linearGradient id="p" x1="-819.2" x2="819.2" gradientTransform="matrix(.0378 .0394 -.0958 .0921 268.3 595.4)" gradientUnits="userSpaceOnUse">
<stop stop-opacity="0" offset="0"/>
<stop stop-opacity=".67059" offset="1"/>
</linearGradient>
<g id="e" transform="translate(162.45,53.5)">
<use transform="translate(-120.1,-6.2)" width="248.39999" height="248.39999" xlink:href="#a"/>
<use transform="translate(-120.1,-8.95)" width="248.39999" height="248.39999" xlink:href="#a"/>
<use transform="matrix(.6981 -.7515 .7315 .6795 -162.46 117.43)" width="227.45" height="237.85001" xlink:href="#d"/>
<use transform="matrix(1.5708,0,0,1.5708,-135.3,-8.95)" width="112.95" height="112.95" xlink:href="#c"/>
<use transform="matrix(1.0309 0 0 1.0508 -34.8 .2)" width="155.2" height="222.45" xlink:href="#b"/>
</g>
<g id="a">
<use width="248.39999" height="248.39999" xlink:href="#j"/>
</g>
<g id="j">
<path d="m248.4 124.2q0 51.45-36.4 87.8-36.35 36.4-87.8 36.4t-87.85-36.4q-36.35-36.35-36.35-87.8t36.35-87.85q36.4-36.35 87.85-36.35t87.8 36.35q36.4 36.4 36.4 87.85" fill="url(#o)" fill-rule="evenodd"/>
</g>
<radialGradient id="o" cx="0" cy="0" r="819.2" gradientTransform="matrix(.1532 0 0 .1532 124.2 124.2)" gradientUnits="userSpaceOnUse">
<stop stop-color="#6795f0" stop-opacity=".5098" offset="0"/>
<stop stop-color="#5073b3" stop-opacity=".5098" offset="1"/>
</radialGradient>
<g id="d" transform="translate(109.65 .7)">
<use transform="translate(-109.65 -.7)" width="227.45" height="237.85001" xlink:href="#i"/>
</g>
<g id="i" transform="translate(109.65 .7)">
<path d="m117.8 123.45q0 47.1-33.35 80.35-33.25 33.35-80.4 33.35-47.1 0-80.4-33.35-33.3-33.25-33.3-80.35l0.05-4.05q194.25 130.45 227.35 0l0.05 4.05" fill="url(#n)" fill-rule="evenodd"/>
<path d="m117.7 109q-190.4-113-227.35 0 1.4-44.55 33.25-76.4 33.3-33.3 80.4-33.3 47.15 0 80.4 33.3 31.9 31.85 33.3 76.4" fill="url(#m)" fill-rule="evenodd"/>
</g>
<radialGradient id="n" cx="0" cy="0" r="819.2" gradientTransform="matrix(.1403 0 0 .1403 4.05 123.45)" gradientUnits="userSpaceOnUse">
<stop stop-opacity="0" offset="0"/>
<stop stop-color="#fff" stop-opacity=".7098" offset="1"/>
</radialGradient>
<radialGradient id="m" cx="0" cy="0" r="819.2" gradientTransform="matrix(.1403 0 0 .1403 4 113.05)" gradientUnits="userSpaceOnUse">
<stop stop-opacity="0" offset="0"/>
<stop stop-color="#fff" stop-opacity=".7098" offset="1"/>
</radialGradient>
<g id="c">
<use width="112.95" height="112.95" xlink:href="#h"/>
</g>
<g id="h">
<path d="m96.4 96.4q-16.55 16.55-39.95 16.55-23.35 0-39.9-16.55t-16.55-39.95 16.55-39.95q16.55-16.5 39.9-16.5 23.4 0 39.95 16.5 16.55 16.55 16.55 39.95t-16.55 39.95" fill="url(#v)" fill-rule="evenodd"/>
</g>
<radialGradient id="v" cx="0" cy="0" r="819.2" gradientTransform="matrix(.0697 0 0 .0697 56.45 56.45)" gradientUnits="userSpaceOnUse">
<stop stop-color="#fff" offset="0"/>
<stop stop-color="#739fff" stop-opacity="0" offset="1"/>
</radialGradient>
<g id="b">
<use width="155.2" height="222.45" xlink:href="#g"/>
</g>
<g id="g">
<path d="m78.8 1.25q44.4 15.55 64.8 57.95 20.45 42.35 4.9 86.85-15.55 44.4-57.95 64.8-42.35 20.45-86.75 4.9l-3.8-1.35q6.2-141.3 75-214.4l3.8 1.25" fill="url(#u)" fill-rule="evenodd"/>
</g>
<radialGradient id="u" cx="0" cy="0" r="819.2" gradientTransform="matrix(.2019 0 0 .2019 146.3 149.25)" gradientUnits="userSpaceOnUse">
<stop stop-opacity="0" offset="0"/>
<stop stop-opacity=".86275" offset="1"/>
</radialGradient>
</defs>
</svg>
