<?xml version="1.0" encoding="UTF-8"?>
<svg version="1.1" viewBox="0 0 19.052 55.925" xmlns="http://www.w3.org/2000/svg" xmlns:cc="http://creativecommons.org/ns#" xmlns:dc="http://purl.org/dc/elements/1.1/" xmlns:rdf="http://www.w3.org/1999/02/22-rdf-syntax-ns#" xmlns:xlink="http://www.w3.org/1999/xlink">
<metadata>
<rdf:RDF>
<cc:Work rdf:about="">
<dc:format>image/svg+xml</dc:format>
<dc:type rdf:resource="http://purl.org/dc/dcmitype/StillImage"/>
</cc:Work>
</rdf:RDF>
</metadata>
<g transform="translate(-70.5 -30.35)">
<use transform="translate(70.5,30.35)" width="19.049999" height="55.900002" xlink:href="#a"/>
</g>
<defs>
<g id="a" transform="translate(-70.5,-30.35)">
<path d="m84.05 70.45-1.35 2.35-0.25 0.4-0.8-0.5-0.3-0.6v-0.05l-0.3-1.1 0.05-0.05h-0.1l-1.2 0.35-0.8 0.15-0.4-0.2 0.25-0.4 1.65-2.75q-0.1 1.65 1.9 2.55l1.65-0.15m0.35-24.05-0.5-2.35-0.05-0.1-0.15-0.4-1.7-0.7-1.75-2.25q-1.8-0.75-3.55 0.3l-0.9 2.8 1.45 1.35-3.1-0.9-0.35-5.25 3.05-0.2-1.2-1.3h-0.05v-0.05l1.3-1.7 3.55-0.25 2 2.45 2.3-2.15 0.15 3.55 1.05 1.4-0.5 0.2-0.55 5.35-0.5 0.2m-1.7 26.4-0.8-0.45-0.55-0.25 0.55 0.25 0.8 0.45m-4.45-33.8 1.3 0.65 0.7 0.95-0.7-0.95-1.3-0.65m1.55 32.25-0.95-0.45 0.95 0.45" fill="#eed6a6" fill-rule="evenodd"/>
<path d="m73.8 38.9-1.55-0.6q-0.8-1.8 0.85-4.1l6.05-3.35 5.1-0.25 0.75 2.05 0.25 0.75 2.3-1q-1.5 4.15 0 7.75l1.5 0.7-1.35 0.95q4.15 14.6-3.65 28.65l-1.65 0.15q-2-0.9-1.9-2.55 5.7-10.7 3.9-21.65l0.5-0.2 0.55-5.35 0.5-0.2-1.05-1.4-0.15-3.55-2.3 2.15-2-2.45-3.55 0.25-1.3 1.7v0.05h0.05l1.2 1.3-3.05 0.2m11.9-3.95-0.7-2.3 0.7 2.3" fill="#faf5f3" fill-rule="evenodd"/>
<path d="m85.2 75q1.1-0.65-1.05-1.8 3.95 0.15 3.85-5.15l0.6 3.8q0.5 2.05-0.8 3.6-1.4 0.8-3.1 0.55l-4.1-2.4 0.45-2.65-2.3 1.85-3.9-2.05q-1.1-0.95-1.1-2.45 0-2.4 2.1-4.05h0.05q1.9-0.7 3.45-0.85l0.1-0.1h0.8q-5.1 2.75-2.75 6.15-2.15-1.2-2.15 0.1 0.15 0.5 0.6 1l0.1 0.05 0.5 0.4 0.6 0.25 0.15 0.1 0.4 0.05h1.3l0.8-0.15 1.2-0.35 0.05 0.05 0.15 0.55-0.05 0.2v0.1l0.1 0.15v0.2l0.2 0.65q0.2 0.8 0.8 1.35l0.95 0.7 0.55 0.3 1 0.1 0.6-0.1-0.15-0.15m-13.35 9.8-0.1-0.05-0.75-1.05q0.75-0.25 1.45-0.55l1.35-2.1q0.55-2.55 1.8-4.5l0.2-0.4q1.9 0.2 2.25 0.65l0.25 0.35-0.4 1.5-1.4 0.05 1 1-1.2 1.45h-1.4l0.8 1.2-0.5 1.45-0.65 0.8 0.05 0.55h-1.1l-1.1-0.55-0.55 0.2m8.6-12.7-0.5 2-0.75 0.25-0.35-0.85 1.5-1.4h0.1" fill="#fec416" fill-rule="evenodd"/>
<path d="m88 68.05v-0.05l-0.05-0.45 0.55 0.9q2.15 4.5-0.2 8.9-2.9-0.7-1.55 1.2 0.35 1.55-0.8 1.5 0.15-0.4-0.65-1.8l-1.3-1.65q-1.8-1.45-2.7-1.65l-0.35-0.05-0.3 0.05q-0.35 0.1-0.45 0.5l-0.35 1.55-0.85 1.95q-1 1.9-2.7 3.5l-1.1 2.25 0.4 1.55-1.35-0.1-2.4-1.35 0.55-0.2 1.1 0.55h1.1l-0.05-0.55 0.65-0.8 0.5-1.45-0.8-1.2h1.4l1.2-1.45-1-1 1.4-0.05 0.4-1.5-0.25-0.35q-0.35-0.45-2.25-0.65l1.1-1.3 0.8-0.8 0.2-0.5-0.1-0.35-0.25-0.35q-0.7-0.8-2.85-1.45l-2.05-0.15q-1.65 0-1.95 0.4-0.6-0.95 0.85-1.5 2.3 0.1 0.2-2 1.6-2.8 4.1-3.9-2.1 1.65-2.1 4.05 0 1.5 1.1 2.45l3.9 2.05 2.3-1.85-0.45 2.65 4.1 2.4q1.7 0.25 3.1-0.55 1.3-1.55 0.8-3.6l-0.6-3.8m-12.1-3.8q1.6-0.85 3.55-0.95l-0.1 0.1q-1.55 0.15-3.45 0.85m4.55 7.85v-0.15l-0.05 0.1-0.05 0.05-1.5 1.4 0.35 0.85 0.75-0.25 0.5-2m0.2 2.85h-1.95l-0.8-1.4 0.8 1.4h1.95" fill="#a06503" fill-rule="evenodd"/>
<path d="m81 70.9h0.1l-0.05 0.05-0.05-0.05m-0.65 1.2 0.05-0.05 0.05-0.1v0.15h-0.1" fill="#718688" fill-rule="evenodd"/>
<path d="m81.65 72.7 0.25 0.45q1.2 2.25 3.3 1.85l0.15 0.15-0.6 0.1-1-0.1-0.55-0.3-0.95-0.7q-0.6-0.55-0.8-1.35l-0.2-0.65v-0.2l-0.1-0.15v-0.1l0.05-0.2 0.15 0.55v0.05l0.3 0.6" fill="#fedd78" fill-rule="evenodd"/>
<path d="m73.8 38.9-1.55-0.6q-0.8-1.8 0.85-4.1l6.05-3.35 5.1-0.25 0.75 2.05 0.25 0.75 2.3-1q-1.5 4.15 0 7.75l1.5 0.7-1.35 0.95q4.15 14.6-3.65 28.65l-1.35 2.35-0.25 0.4m-3.85-2 0.25-0.4 1.65-2.75q5.7-10.7 3.9-21.65l-0.5-2.35-0.05-0.1-0.15-0.4-1.7-0.7-1.75-2.25q-1.8-0.75-3.55 0.3l-0.9 2.8 1.45 1.35-3.1-0.9-0.35-5.25 3.05-0.2-1.2-1.3h-0.05v-0.05m9.4-4.7 0.7 2.3m-5.45 5.65-0.7-0.95-1.3-0.65" fill="none" stroke="#391100" stroke-linecap="round" stroke-linejoin="round" stroke-opacity=".47059" stroke-width=".5"/>
<path d="m81.35 72.1 0.55 0.25 0.8 0.45m-3.85-2 0.95 0.45" fill="none" stroke="#352115" stroke-linecap="round" stroke-linejoin="round" stroke-width="1.25"/>
<path d="m81.65 72.7 0.25 0.45q1.2 2.25 3.3 1.85 1.1-0.65-1.05-1.8 3.95 0.15 3.85-5.15m0-0.05-0.05-0.45 0.55 0.9q2.15 4.5-0.2 8.9-2.9-0.7-1.55 1.2 0.35 1.55-0.8 1.5 0.15-0.4-0.65-1.8l-1.3-1.65q-1.8-1.45-2.7-1.65l-0.35-0.05-0.3 0.05q-0.35 0.1-0.45 0.5l-0.35 1.55-0.85 1.95q-1 1.9-2.7 3.5l-1.1 2.25 0.4 1.55-1.35-0.1-2.4-1.35-0.1-0.05-0.75-1.05q0.75-0.25 1.45-0.55l1.35-2.1q0.55-2.55 1.8-4.5l0.2-0.4 1.1-1.3 0.8-0.8 0.2-0.5-0.1-0.35-0.25-0.35q-0.7-0.8-2.85-1.45l-2.05-0.15q-1.65 0-1.95 0.4-0.6-0.95 0.85-1.5 2.3 0.1 0.2-2 1.6-2.8 4.1-3.9h0.05q1.6-0.85 3.55-0.95h0.8q-5.1 2.75-2.75 6.15-2.15-1.2-2.15 0.1 0.15 0.5 0.6 1l0.1 0.05 0.5 0.4 0.6 0.25 0.15 0.1 0.4 0.05h1.3m2-0.5h0.1l-0.05 0.05 0.3 1.1v0.05l0.3 0.6m-0.65-1.8-1.2 0.35-0.8 0.15m-1.1 2.15 0.8 1.4h1.95" fill="none" stroke="#54483a" stroke-linecap="round" stroke-linejoin="round" stroke-width=".05"/>
</g>
</defs>
</svg>
