<?xml version="1.0" encoding="UTF-8"?>
<svg version="1.1" viewBox="0 0 138.02 162.02" xmlns="http://www.w3.org/2000/svg" xmlns:cc="http://creativecommons.org/ns#" xmlns:dc="http://purl.org/dc/elements/1.1/" xmlns:rdf="http://www.w3.org/1999/02/22-rdf-syntax-ns#" xmlns:xlink="http://www.w3.org/1999/xlink">
<metadata>
<rdf:RDF>
<cc:Work rdf:about="">
<dc:format>image/svg+xml</dc:format>
<dc:type rdf:resource="http://purl.org/dc/dcmitype/StillImage"/>
</cc:Work>
</rdf:RDF>
</metadata>
<g transform="translate(-203.88 -121)">
<use transform="translate(203.9,121)" width="138" height="162" xlink:href="#a"/>
</g>
<defs>
<g id="a" transform="translate(-203.9,-121)">
<path d="m341.8 121.1-0.75 0.9q-8.95 2.95-17.1 13.25v-3.3q8.95-10.8 17.85-10.85m-94.55 72q3.8-7.1 11.1-4.25 13.5-19.6 28.65-36.1-25.55 33.6-25.6 39.75-1.35-0.35-2.6-1.05-6.2-2.3-10.2 2.9l-1.35-1.25" fill="#f2f4f4" fill-rule="evenodd"/>
<path d="m341.8 122.5q-0.25 8.5-6.95 18.15l-2.8 0.55q7.45-8.6 9.75-18.7m-4.1 26.4q0.85 7.45-4.15 15.65-8.4 13.15-19.1 26.35l-1.95-1.35q24.2-28.25 25.2-40.65m-27.2 39.25 2.25 4.85q-9.95 12.05-21.8 24.1 4.6 7.55-3.4 13.45l-1.2-1.1q6.35-5.6 0.45-12.15-11.8-14.3 20.55-54.65l7.95-8.55q-37.7 49.4-26.95 62.15 9.25-7.65 22.75-22.9l-2.95-7.5 2.35 2.3" fill="#d9e0e1" fill-rule="evenodd"/>
<path d="m264.45 228q-16.7 15.1-32 35.8l-7.2-7.1q15.95-12.15 29.05-28.55 2.15-4.85-2.1-9.4l1.1-1.6 11.15 10.85m-31.95 38.85-2.8 0.2-0.95-0.9-7.8-7.55-1.1-1.05q-0.1-1.85 0.6-2.7l12.05 12m10.8-19.9-0.25-0.6-0.55-0.2q-0.35 0-0.6 0.2l-0.2 0.6 0.2 0.55 0.6 0.25 0.55-0.25 0.25-0.55m6.55-7.55q0.6-0.9 0.45-1.15t-1 0.25l-1.85 1.65-1.65 1.95q-0.6 0.95-0.45 1.25 0.15 0.25 1-0.35l1.9-1.55 1.6-2.05m-11.7 11.65q-1.35 1.3-3.05 3.4l-2.8 3.65q-1.05 1.65-0.85 1.85t1.6-1.1l3.1-3.35 2.75-3.7q1.1-1.6 0.9-1.8-0.25-0.2-1.65 1.05" fill="#eddca7" fill-rule="evenodd"/>
<path d="m232.45 263.8 0.35 0.35q0.8 2-0.3 2.7l-12.05-12q0.75-0.85 2.3-0.6l0.4 0.4q18-19.15 29.05-35.9 4.25 4.55 2.1 9.4-13.1 16.4-29.05 28.55l7.2 7.1m17.4-24.4-1.6 2.05-1.9 1.55q-0.85 0.6-1 0.35-0.15-0.3 0.45-1.25l1.65-1.95 1.85-1.65q0.85-0.5 1-0.25t-0.45 1.15m-6.55 7.55-0.25 0.55-0.55 0.25-0.6-0.25-0.2-0.55 0.2-0.6q0.25-0.2 0.6-0.2l0.55 0.2 0.25 0.6m-5.15 4.1q1.4-1.25 1.65-1.05 0.2 0.2-0.9 1.8l-2.75 3.7-3.1 3.35q-1.4 1.3-1.6 1.1t0.85-1.85l2.8-3.65q1.7-2.1 3.05-3.4" fill="#f9f2df" fill-rule="evenodd"/>
<path d="m210.9 263.15 0.65-0.9q2.35-1.8 5.5-1.85h0.25l1.5 0.1q3.9 2.45 6.45 6.85-0.05 3.15-2.3 5.35-2.25 2.3-5.45 2.3t-5.5-2.3q-2.25-2.25-2.25-5.45 0-2.3 1.15-4.1l1 0.85-1-0.85m8.95 1.85q0-1.35-0.95-2.3-0.9-0.9-2.25-0.9t-2.3 0.9q-0.9 0.95-0.9 2.3t0.9 2.25q0.95 0.95 2.3 0.95t2.25-0.95q0.95-0.9 0.95-2.25" fill="#cea88e" fill-rule="evenodd"/>
<path d="m287.55 230.55 4.25 3.95h8.25q-2.9 4.65-8.25 6.4-5.55-0.1-4.2-3.05l-46-42.2q-4.15-5.8-2.2-12.35l0.75-0.95 3 6.95 4.1 3.8 1.35 1.25 37.75 35.1 1.2 1.1" fill="#b48f6b" fill-rule="evenodd"/>
<path d="m291.8 240.9q-3.05 0.95-6.95 0.95l-14.95-13.85-17.65-16.35-0.05-0.05-14.25-13.2q-2.65-9.55 1.45-15.1-1.95 6.55 2.2 12.35l46 42.2q-1.35 2.95 4.2 3.05m-24.65-12.9h-2.7l-11.15-10.85-0.05-0.05-0.5-2.7 14.4 13.6" fill="#896745" fill-rule="evenodd"/>
<path d="m269.9 228h-2.75l-14.4-13.6-0.5-2.75 17.65 16.35" fill="#684f35" fill-rule="evenodd"/>
<path d="m341.05 122-15.8 19.5-1.6 2-2.9 3.6-5.45 7-7.95 8.55 0.05-0.1-1.2 1.3q-30.1 32.45-44.8 28.65 0.05-6.15 25.6-39.75 7.65-8.4 15.7-16 10.65-8.3 21.25-4.8v3.3q8.15-10.3 17.1-13.25" fill="url(#d)" fill-rule="evenodd"/>
<path d="m341.8 121.1v1.4q-2.3 10.1-9.75 18.7l2.8-0.55q2.35 4 2.85 8.25-1 12.4-25.2 40.65l-2-1.4-2.35-2.3 2.95 7.5q-13.5 15.25-22.75 22.9-10.75-12.75 26.95-62.15l5.45-7 2.9-3.6 1.6-2 15.8-19.5 0.75-0.9" fill="url(#c)" fill-rule="evenodd"/>
<path d="m248.6 194.35q4-5.2 10.2-2.9 1.25 0.7 2.6 1.05 14.7 3.8 44.8-28.65l1.2-1.3-0.05 0.1q-32.35 40.35-20.55 54.65 5.9 6.55-0.45 12.15l-37.75-35.1" fill="url(#b)" fill-rule="evenodd"/>
<path d="m228.75 266.15-1.85 2.75 0.05 1.2q0 4-2.8 6.85-1.5 1.45-3.35 2.2l-0.45-1.05 0.45 1.05-3.5 0.6-3.1-0.45 0.85-1.75-0.85 1.75q-2-0.65-3.55-2.15l-0.2-0.2q-1.15-1.15-1.85-2.5-1-1.95-1-4.35l0.1-1.45q0.4-3.1 2.75-5.4l0.25-0.3 0.85-0.7-0.65 0.9-0.2-0.2 0.2 0.2q-1.15 1.8-1.15 4.1 0 3.2 2.25 5.45 2.3 2.3 5.5 2.3t5.45-2.3q2.25-2.2 2.3-5.35-2.55-4.4-6.45-6.85l2.15-1.9 7.8 7.55m-18.1 11 0.9-0.8-0.9 0.8" fill="#c29474" fill-rule="evenodd"/>
<path d="m219.85 265q0 1.35-0.95 2.25-0.9 0.95-2.25 0.95t-2.3-0.95q-0.9-0.9-0.9-2.25t0.9-2.3q0.95-0.9 2.3-0.9t2.25 0.9q0.95 0.95 0.95 2.3" fill="#e1cabb" fill-rule="evenodd"/>
<path d="m341.8 121.1v1.4q-0.25 8.5-6.95 18.15 2.35 4 2.85 8.25 0.85 7.45-4.15 15.65-8.4 13.15-19.1 26.35l-1.95-1.35-2-1.4 2.25 4.85q-9.95 12.05-21.8 24.1 4.6 7.55-3.4 13.45l4.25 3.95h8.25q-2.9 4.65-8.25 6.4-3.05 0.95-6.95 0.95l-14.95-13.85m-5.45 0q-16.7 15.1-32 35.8l0.35 0.35q0.8 2-0.3 2.7l-2.8 0.2-0.95-0.9-1.85 2.75m114.9-147.8-0.75 0.9m-101.65 61.3 0.75-0.95 3 6.95 4.1 3.8q3.8-7.1 11.1-4.25 13.5-19.6 28.65-36.1 7.65-8.4 15.7-16 10.65-8.3 21.25-4.8 8.95-10.8 17.85-10.85m-94.55 72 1.35 1.25 37.75 35.1 1.2 1.1m-35.35-11.8 1.1-1.6m-1.1-5.55-14.25-13.2q-2.65-9.55 1.45-15.1m12.8 35.45q-11.05 16.75-29.05 35.9l-0.4-0.4q-1.55-0.25-2.3 0.6m0.5 3.75-1.1-1.05q-0.1-1.85 0.6-2.7m-1.65 5.65 2.15-1.9 7.8 7.55" fill="none" stroke="#000" stroke-linecap="round" stroke-linejoin="round" stroke-opacity=".3098" stroke-width=".2"/>
<path d="m269.9 228h-5.45m-11.15-10.85-0.05-0.05-0.5-2.7-0.5-2.75 17.65 16.35m-16.6-10.85 11.15 10.85" fill="none" stroke="#000" stroke-linecap="round" stroke-linejoin="round" stroke-opacity=".30196" stroke-width=".2"/>
<path d="m252.25 211.65-0.05-0.05" fill="none" stroke="#0f0" stroke-linecap="round" stroke-linejoin="round" stroke-width=".2"/>
<path d="m220.8 279.15 1.1 2.5m-11.2-18.7-2.5-2.25m2.5 2.25 0.2 0.2 1 0.85m-4.2 4.65-3.8-2.3m16.45 11.75 0.45 1.05m-6.6 0.15-1.9 3.7m2.75-5.45-0.85 1.75m-3.55-2.15-1.45 1.15m-0.6-3.85-3.75 1.1m6.7 0.8-0.9 0.8" fill="none" stroke="#000" stroke-linecap="round" stroke-linejoin="round" stroke-opacity=".4" stroke-width=".05"/>
<path d="m226.9 268.9 0.05 1.2q0 4-2.8 6.85-1.5 1.45-3.35 2.2l-3.5 0.6-3.1-0.45q-2-0.65-3.55-2.15l-0.2-0.2q-1.15-1.15-1.85-2.5-1-1.95-1-4.35l0.1-1.45q0.4-3.1 2.75-5.4l0.25-0.3m0.85-0.7-0.85 0.7m0.85-0.7q2.35-1.8 5.5-1.85h0.25l1.5 0.1" fill="none" stroke="#000" stroke-linecap="round" stroke-linejoin="round" stroke-opacity=".4" stroke-width=".05"/>
</g>
<linearGradient id="d" x1="-819.2" x2="819.2" gradientTransform="matrix(-.0406 .033 -.0244 -.03 307.95 173.2)" gradientUnits="userSpaceOnUse">
<stop stop-color="#d9e0e1" offset="0"/>
<stop stop-color="#fff" offset="1"/>
</linearGradient>
<linearGradient id="c" x1="-819.2" x2="819.2" gradientTransform="matrix(-.0321 .0428 -.0099 -.0075 308.9 179.6)" gradientUnits="userSpaceOnUse">
<stop stop-color="#becccd" offset="0"/>
<stop stop-color="#abbdbe" offset="1"/>
</linearGradient>
<linearGradient id="b" x1="-819.2" x2="819.2" gradientTransform="matrix(-.0169 .0195 -.0238 -.0206 277.25 200.7)" gradientUnits="userSpaceOnUse">
<stop stop-color="#88a2a2" offset="0"/>
<stop stop-color="#abbdbe" offset="1"/>
</linearGradient>
</defs>
</svg>
