<?xml version="1.0" encoding="UTF-8"?>
<svg version="1.1" viewBox="0 0 31.05 51.639" xmlns="http://www.w3.org/2000/svg" xmlns:cc="http://creativecommons.org/ns#" xmlns:dc="http://purl.org/dc/elements/1.1/" xmlns:rdf="http://www.w3.org/1999/02/22-rdf-syntax-ns#" xmlns:xlink="http://www.w3.org/1999/xlink">
<metadata>
<rdf:RDF>
<cc:Work rdf:about="">
<dc:format>image/svg+xml</dc:format>
<dc:type rdf:resource="http://purl.org/dc/dcmitype/StillImage"/>
</cc:Work>
</rdf:RDF>
</metadata>
<g transform="translate(-259.45 -174.65)">
<use transform="translate(259.45,174.65)" width="31.049999" height="51.650002" xlink:href="#a"/>
</g>
<defs>
<g id="a" transform="translate(-259.45,-174.65)">
<path d="m290.25 174.85-0.55 1-17.85 31.6 17.85-31.6-16.75 34.8-1.1-0.65 0.35-0.5 0.25-1.15-0.05-0.3-0.45-0.55-0.1-0.05h-0.7l-0.15 0.05q-0.55 0.25-0.9 0.85l-0.2 0.6-1.7-0.95 21.55-32.75 0.5-0.4" fill="#62a3ac" fill-rule="evenodd"/>
<path d="m289.7 175.85 0.55-1 0.2-0.15-0.6 3.95-10.45 25q-3 2.5-4.15 8.2l-1-0.5-0.35-0.2-0.95-0.5 16.75-34.8m0.05-0.6-21.55 32.75-0.9-0.5-0.35-0.25-0.5-0.3 2.15-2.3 1.8-2.75 0.15-0.4 14.3-22.15 4.9-4.1" fill="#83b7be" fill-rule="evenodd"/>
<path d="m266.7 213.15 1.5-2.7-8.05-3.1-0.65-2.05 0.9-0.25 0.1-1.9 0.85 0.5 0.1-0.15 0.75 2.05 16.2 8.9 2.3-0.05 0.9 0.45-1.6 1.15 0.3 0.85-2.15 0.55-6.8-5.2-2.65 4.7-2-3.75m12.65 1.8-0.95-0.5 0.95 0.5m-8-2.75-3.15-1.75 3.15 1.75m7.05 2.25h-2.15 2.15m-16.2-8.9-0.75-0.4 0.75 0.4" fill="#1b1b1b" fill-rule="evenodd"/>
<path d="m268.2 208 1.7 0.95 0.2-0.6q0.35-0.6 0.9-0.85l0.15-0.05h0.7l0.1 0.05 0.45 0.55 0.05 0.3-0.25 1.15-0.35 0.5 1.1 0.65 0.95 0.5 0.35 0.2 1.4 0.7 2.25 0.8 0.05-2.2 2.05 2.25 1.3-0.55-0.6 2.05-2.3 0.05-16.2-8.9-0.75-2.05 1.3-1.45 0.25 1.4 3 0.55-1.85 1.2 2.3 1.75 0.5 0.3 0.35 0.25 0.9 0.5m0.5 8.9-4.95 8.95q-3.1 1.3-3.15-1.75l6.1-10.95 2 3.75m3-8.1q0.8-0.5-0.1-0.9-0.75 0.2-0.3 0.85l0.4 0.05" fill="#633" fill-rule="evenodd"/>
<path d="m279.4 203.65 10.45-25q-2.25 13.15-7.1 23.4-1.9 0.4-3.35 1.6m-8.85-2.15q1.3-3.1 0.3-6.1 5.4-8.5 14-16.05l-14.3 22.15" fill="#c4dcdf" fill-rule="evenodd"/>
<path d="m271.7 208.8-0.4-0.05q-0.45-0.65 0.3-0.85 0.9 0.4 0.1 0.9" fill="#ffc" fill-rule="evenodd"/>
<path d="m289.7 175.85 0.55-1m-18.4 32.6 17.85-31.6m-15.8 35.3 0.35 0.2 1 0.5m-6.65-7.2 1.8-2.75m7.5 10.95-2.25-0.8-0.4-0.2m3.15 2.6 0.95 0.5m-17.9-9.8 0.75 0.4m14.05 8.9h2.15" fill="none" stroke="#5f462e" stroke-linecap="round" stroke-linejoin="round" stroke-width=".1"/>
<path d="m290.25 174.85-0.5 0.4m-21.55 32.75 1.7 0.95 0.2-0.6q0.35-0.6 0.9-0.85l0.15-0.05h0.7l0.1 0.05 0.45 0.55 0.05 0.3-0.25 1.15-0.35 0.5 1.1 0.65 0.95 0.5m1.35 0.7q1.15-5.7 4.15-8.2m10.45-25 0.6-3.95-0.2 0.15m-19.7 26.65q1.3-3.1 0.3-6.1 5.4-8.5 14-16.05l4.9-4.1m-19.35 26.65 0.15-0.4m-9.1 2 1.3-1.45 0.25 1.4 3 0.55-1.85 1.2 2.3 1.75 2.15-2.3m-1.9 8.5 1.5-2.7-8.05-3.1-0.65-2.05 0.9-0.25 0.1-1.9 0.85 0.5 0.1-0.15m19.25 10.9 0.6-2.05-1.3 0.55-2.05-2.25-0.05 2.2m11.95-34.2q-2.25 13.15-7.1 23.4-1.9 0.4-3.35 1.6m1.3 10.75 0.9 0.45-1.6 1.15 0.3 0.85-2.15 0.55-6.8-5.2-2.65 4.7-4.95 8.95q-3.1 1.3-3.15-1.75l6.1-10.95m1.5-2.7 3.15 1.75m-4.9-5.25 0.5 0.3 0.35 0.25 0.9 0.5" fill="none" stroke="#5f462e" stroke-linecap="round" stroke-linejoin="round" stroke-width=".1"/>
</g>
</defs>
</svg>
