<?xml version="1.0" encoding="UTF-8"?>
<svg version="1.1" viewBox="0 0 157.5 144.5" xmlns="http://www.w3.org/2000/svg" xmlns:cc="http://creativecommons.org/ns#" xmlns:dc="http://purl.org/dc/elements/1.1/" xmlns:rdf="http://www.w3.org/1999/02/22-rdf-syntax-ns#" xmlns:xlink="http://www.w3.org/1999/xlink">
<metadata>
<rdf:RDF>
<cc:Work rdf:about="">
<dc:format>image/svg+xml</dc:format>
<dc:type rdf:resource="http://purl.org/dc/dcmitype/StillImage"/>
</cc:Work>
</rdf:RDF>
</metadata>
<g transform="translate(-196.22 -127.72)">
<use transform="translate(196.25,127.75)" width="157.45" height="144.45" xlink:href="#a"/>
</g>
<defs>
<g id="a" transform="translate(-196.25,-127.75)">
<path d="m282.9 143.75q4.8 1 8.9 2.95 4.8 2.35 7.1 5.35l0.95-0.3q20.15-6.6 35.85-20.1l18-1.8q-26.95 16.55-37.9 68.05-3.45 16.4 6.05 33.95l0.5 0.95 1.45 2.45q-10.3-3.9-16.1-23.45-1.7-5.7-0.2-14.65l-0.9-1.25q0.85 0.75 1.05 0.2l0.1-0.15h-0.1q0.75-5.25 3.05-12.25 1.3-3.9 6.05-14.05l5.45-1.3 4.95-12.3-3.4-0.75 2.95-6-26 11.15q-1.35 4.9-8.2 8.8-6.35 3.65-15.35 5v-1.5h-16.35v1.35q-6.1-0.95-11.1-3.4-8.5-4.1-9.15-10.2l-0.1-0.75 0.05-0.9-5.4-2.4-0.65-3.85-2.55-3.45-7.25-0.05 0.35 2.75-4.8-2.15q11.85 24.25 14.55 32.25l0.3 1.1 0.7 2.3-2.5 0.35 1.4 4.3 2.15 0.85 0.15-0.4 0.1 0.5 0.4 2.2 0.3 2.3h-0.05l0.1 0.2q0.15 0.55 0.95-0.2l-0.85 1.25q1.25 9.15-0.5 14.85-6.1 19.65-14.45 19.6 10.15-15.55 6.85-33.9-9.45-52.45-33.55-67.7l16.35-1.8q13.65 15.25 32.85 22.8-0.7 0.55-1.3 1.15-3.45 3.25-3.65 7.15 0.2-3.9 3.65-7.15 0.6-0.6 1.3-1.15 1.5-1.25 3.55-2.4 4.7-2.7 10.6-4.05 3.7-0.9 7.9-1.2l2.7-0.15 4.75 0.05 7.95 0.95m-1.25 9.45q0.95 0.25 2.05-0.5 1.1-0.85 1.45-2.05 0.25-1.2-0.35-2.15-0.65-0.95-1.6-1.2t-2.05 0.55h-0.05q-1.1 0.8-1.45 2-0.35 1.25 0.35 2.2 0.65 0.9 1.6 1.15v0.05l0.05-0.05m-7.6 10.7q0.95 0.25 2.05-0.55t1.45-2q0.25-1.25-0.35-2.15-0.65-0.95-1.6-1.2t-2.05 0.55h-0.05q-1.1 0.75-1.45 2-0.35 1.2 0.35 2.15 0.65 0.9 1.6 1.15v0.1l0.05-0.05m-13.65 0q0.95 0.25 2.05-0.5 1.1-0.8 1.45-2 0.25-1.25-0.35-2.2-0.65-0.95-1.6-1.2t-2.05 0.55l-0.05 0.05q-1.1 0.75-1.45 1.95-0.35 1.25 0.35 2.2 0.65 0.9 1.6 1.15v0.05l0.05-0.05m-4.3-9.4q0.95 0.25 2.05-0.5 1.1-0.85 1.45-2.05 0.3-1.2-0.3-2.15-0.65-0.95-1.6-1.2t-2.1 0.55-1.45 2q-0.35 1.25 0.35 2.2 0.65 0.9 1.6 1.15l-0.05 0.05 0.05-0.05m42.8-2.45q0.95 1.2 1.45 2.55 0.6 1.45 0.65 3.1v1.1l-0.3 1.65 0.3-1.65v-1.1q-0.05-1.65-0.65-3.1-0.5-1.35-1.45-2.55" fill-rule="evenodd"/>
<path d="m307.5 197.15-3.25 16.7q-0.85-5.1-3.55-9.15-4.05-5.95-9.7-7.6-5.7-1.65-9.85 1.6t-5.35 5.6l0.9-27.65h-13.1v1.9l0.05 2.05q0.15 10.25-0.2 20.65l-0.4 8.5q-3.65-11.2-9.05-11.15-5.65-0.05-9.7 5.9-2.75 4.05-3.6 9.2l-2.8-17 0.85-1.25h-1l-0.3-2.3-0.4-2.2-0.1-0.5 1.1-2.5 0.4-2.95-2.7 0.35-0.7-2.3-0.3-1.1q-2.7-8-14.55-32.25l4.8 2.15 0.55 4.15 6.25 5.2 3.15 2.5-0.85-3.2 1.6-0.75-0.6-3.3 5.4 2.4-0.05 0.9 0.1 0.75q0.65 6.1 9.15 10.2 5 2.45 11.1 3.4v-1.35h16.35v1.5q9-1.35 15.35-5 6.85-3.9 8.2-8.8l26-11.15-2.95 6-1.2-0.3-5 2.75-3.75 3-0.55 9.75 3.5-0.85q-4.75 10.15-6.05 14.05-2.3 7-3.05 12.25l-1.05-0.05 0.9 1.25m-68.9-22.9 1.5 2.5 6.55 1.5 0.5-5.9-3.65-2.75-4.9 4.65m9.8 22.15-0.45 0.15 3.8-0.85 1.25-4.35q-2.2-2.3-4.55-4.15-1-0.75-2.2-1.15l-2.65 2.8 4.8 7.55m28.3-19.75h0.45v-2.4 2.4h-0.45m-15.9-2.55v2.55h2.8-2.8v-2.55m18.9 9.75 0.35-0.15-0.5 6.35 12.85 0.45 7.7-6.6-4.2-6.5-15.85 6.3 0.05-0.6-0.4 0.75m29.1-15.2-3.05-6.65-2.15-0.25 1.55 8.7 3.65-1.8m-9.7 22.35 2.65 3.8 3.05-5.75-2.65-2.15-3.05 4.1" fill="#adbac6" fill-rule="evenodd"/>
<path d="m225 151.85-0.35-2.75 7.25 0.05 2.55 3.45 0.65 3.85-10.1-4.6m11.95 38.6-0.15 0.4-2.15-0.85-1.4-4.3 2.5-0.35 0.2 0.8 1 4.3m86.8-35.15 3.4 0.75-4.95 12.3-5.45 1.3q2.85-6.1 7-14.35" fill="#626262" fill-rule="evenodd"/>
<path d="m275.8 204.3q-1.7 3.2-2.85 6.5l0.4-10.35 0.85-19.85 0.15-1.75 0.05-2.2h2.3l-0.9 27.65m-40.7-47.85 0.6 3.3-1.6 0.75 0.85 3.2-3.15-2.5-6.25-5.2-0.55-4.15 10.1 4.6m0.65 28.9 2.7-0.35-0.4 2.95-1.1 2.5-1-4.3-0.2-0.8m2.85-11.1 4.9-4.65 3.65 2.75-0.5 5.9-6.55-1.5-1.5-2.5m9.8 22.15-4.8-7.55 2.65-2.8q1.2 0.4 2.2 1.15 2.35 1.85 4.55 4.15l-1.25 4.35-3.8 0.85 0.45-0.15m31.3-12.55 0.4-0.75-0.05 0.6 15.85-6.3 4.2 6.5-7.7 6.6-12.85-0.45 0.5-6.35-0.35 0.15m37.05-14.2-3.5 0.85 0.55-9.75 3.75-3 5-2.75 1.2 0.3q-4.15 8.25-7 14.35m-7.95-1-3.65 1.8-1.55-8.7 2.15 0.25 3.05 6.65m-9.7 22.35 3.05-4.1 2.65 2.15-3.05 5.75-2.65-3.8" fill="#94a5b4" fill-rule="evenodd"/>
<path d="m259.6 144.1q0-0.7 0.5-1.35 0.85-1.1 2.65-1.55l0.05 0.05 2.95-0.05q1.15 0.5 1.7 1.6l0.05 0.1q-4.2 0.3-7.9 1.2" fill="url(#g)" fill-rule="evenodd"/>
<path d="m274.95 142.8q0.1-0.7 0.85-1.2 1.1-0.8 2.95-0.8h0.05q1.85 0 2.85 0.75 1 0.8 1.25 1.95v0.25l-7.95-0.95" fill="url(#f)" fill-rule="evenodd"/>
<path d="m281.6 153.2q-0.95-0.25-1.6-1.15-0.7-0.95-0.35-2.2 0.35-1.2 1.45-2h0.05q1.1-0.8 2.05-0.55t1.6 1.2q0.6 0.95 0.35 2.15-0.35 1.2-1.45 2.05-1.1 0.75-2.05 0.5h-0.05" fill="url(#e)" fill-rule="evenodd"/>
<path d="m274 163.85q-0.95-0.25-1.6-1.15-0.7-0.95-0.35-2.15 0.35-1.25 1.45-2h0.05q1.1-0.8 2.05-0.55t1.6 1.2q0.6 0.9 0.35 2.15-0.35 1.2-1.45 2t-2.05 0.55l-0.05-0.05" fill="url(#d)" fill-rule="evenodd"/>
<path d="m260.35 163.9q-0.95-0.25-1.6-1.15-0.7-0.95-0.35-2.2 0.35-1.2 1.45-1.95l0.05-0.05q1.1-0.8 2.05-0.55t1.6 1.2q0.6 0.95 0.35 2.2-0.35 1.2-1.45 2-1.1 0.75-2.05 0.5h-0.05" fill="url(#c)" fill-rule="evenodd"/>
<path d="m256.1 154.5q-0.95-0.25-1.6-1.15-0.7-0.95-0.35-2.2 0.3-1.2 1.45-2t2.1-0.55 1.6 1.2q0.6 0.95 0.3 2.15-0.35 1.2-1.45 2.05-1.1 0.75-2.05 0.5" fill="url(#b)" fill-rule="evenodd"/>
<path d="m272.95 210.8-0.4 11.65 0.05 0.25v0.1l-4.7 1.5v-0.05h-0.05l-0.1 0.05 3.5-43.7h-7.6l-0.05-2.05 10.75 0.3-0.15 1.75-0.85 19.85-0.4 10.35" fill="#5a4e39" fill-rule="evenodd"/>
<path d="m274.4 176.65-0.05 2.2-10.75-0.3v-1.9h10.8" fill="#393224" fill-rule="evenodd"/>
<path d="m261.75 226.2 0.05-0.55 1.25-15.9 0.4-8.5q0.35-10.4 0.2-20.65h7.6l-3.5 43.7-0.9 0.3-5.1 1.6" fill="#96825f" fill-rule="evenodd"/>
<path d="m265.7 272-1.7 0.2-2.75-0.25-1.15-0.35 5.7-2.6-0.1 3m-6.8-1.05-1.05-0.7q-1.2-0.95-1.65-2.3-0.35-0.95-0.25-2.1l10.1-2.6-0.2 4.9-6.95 2.8m2.65-8.05 4.6-2.75h0.05l-0.05 1.75-4.6 1m4.5-2.75-4.65 2.75-5.35 1.1 1.05-3.85 0.25-0.1 0.75-3.7 8.45-2.95-0.2 3.75-0.1 0.05-0.2 2.95m-2.5-7.8-5.55 1.35 0.2-1.75 0.3-3 0.05-0.25v-0.4l0.2-1 0.2-1.45v-0.05l0.2-0.05 0.1-0.65 0.6-3.7 0.4-3.65 0.2-0.05 0.15-0.95 0.2-1.7 6.65-1.9-0.1 2.7-1.2 0.35 1.3-0.35-0.45 8.15h-0.05l-1.9 0.45 1.9-0.4 0.15-0.05-0.35 7.55-0.15 0.05-3.05 0.75m2.85-20.45-5.85 1.45 0.3-2.6 0.2-1.7 0.2-1.75 0.05-0.3-0.05-0.15 0.05-0.5 0.45-0.15 5.1-1.6 1-0.3 0.05-0.05v0.05l0.05 0.05-0.35 7.25h-0.05l-1.15 0.3m-7.45 13.95 1.45-0.35 1.4-0.35 3.25-0.7-3.25 0.7-1.4 0.35-1.45 0.35m1.5-8.15 5.7-1.5-5.7 1.5m-3.1 22.35 8.9-2.85-8.9 2.85" fill="#fffdee" fill-rule="evenodd"/>
<path d="m272.6 222.8 0.4-0.15-0.1 3.65-0.1 2.5v1.5l-0.45 0.1v1.4l0.05 0.9-0.1 1.75v0.05l0.3-0.05v0.45l0.15 3.55q0.1 2.15 0.35 4.15h-0.05l0.05 0.15 0.3-0.1 0.15 1.5 0.9 5.55-0.7 0.15 0.2 0.95 0.2 0.75 0.85 2.85h-0.05l0.15 0.4q0.85 2.25 2 3.8l0.35 0.9 0.2 0.85 0.05 0.95-0.55 2.25q-1.2 2.8-5.35 5.65l-1.75 1.1-0.8 0.45-3.05 1.15-0.5 0.1 0.1-3-5.7 2.6-1.2-0.65 6.95-2.8 0.2-4.9-10.1 2.6 0.25-1.7 0.05-0.15 5.3-1.1 4.6-1 0.05-1.75h-0.05v-0.05l-0.1 0.05 0.2-2.95 0.1-0.05 0.2-3.75-8.45 2.95 0.1-0.65 0.15-0.8 0.15-1.2 5.05-1.35 3.05-0.75 0.15-0.05 0.35-7.55 0.95-0.2v-0.05l-1.05 0.25 0.45-8.15 1.05-0.3 0.05-0.05-1.2 0.35 0.1-2.7-6.65 1.9 0.2-1.7 5.4-1.45 1.15-0.3h0.05l0.35-7.25-0.05-0.05 4.7-1.5m-0.25 7.6-4.75 1.2 4.75-1.2m-0.05 4.1-3.8 1.05 3.8-1.05m0.8 8.25-5.05 1.05 5.05-1.05m1.85 11.65-8.6 2.75 8.6-2.75m2.5 5.1-11.3 2.4 11.3-2.4m-11.3 0.6 8.95-5.3-8.95 5.3m7.6-10.25-7 1.7 7-1.7m3.4 13.7-11.3 4.6 11.3-4.6" fill="#ecd2ac" fill-rule="evenodd"/>
<path d="m282.9 143.75q4.8 1 8.9 2.95 4.8 2.35 7.1 5.35l0.95-0.3q20.15-6.6 35.85-20.1l18-1.8q-26.95 16.55-37.9 68.05-3.45 16.4 6.05 33.95l0.85 0.8 1.1 2.6q-10.3-3.9-16.1-23.45-1.7-5.7-0.2-14.65l-3.25 16.7q-0.85-5.1-3.55-9.15-4.05-5.95-9.7-7.6-5.7-1.65-9.85 1.6t-5.35 5.6q-1.7 3.2-2.85 6.5l-0.4 11.65m0.05 0.35 0.4-0.15-0.1 3.65-0.1 2.5v1.5l-0.45 0.1v1.4l0.05 0.9-0.1 1.75m0 0.05 0.3-0.05v0.45l0.15 3.55q0.1 2.15 0.35 4.15m0 0.15 0.3-0.1 0.15 1.5 0.9 5.55-0.7 0.15 0.2 0.95 0.2 0.75 0.85 2.85m0.1 0.4q0.85 2.25 2 3.8l0.35 0.9 0.2 0.85 0.05 0.95-0.55 2.25q-1.2 2.8-5.35 5.65l-1.75 1.1-0.8 0.45-3.05 1.15-0.5 0.1-1.7 0.2-2.75-0.25-1.15-0.35-1.2-0.65-1.05-0.7q-1.2-0.95-1.65-2.3-0.35-0.95-0.25-2.1l0.25-1.7 0.05-0.15m9.9-3.85v-0.05l-0.1 0.05-4.65 2.75-5.35 1.1 1.05-3.85 0.25-0.1 0.75-3.7 0.1-0.65 0.15-0.8 0.15-1.2m5.05-1.35-5.55 1.35 0.2-1.75 0.3-3 0.05-0.25v-0.4l0.2-1 0.2-1.45v-0.05m0.2-0.05 0.1-0.65 0.6-3.7 0.4-3.65 0.2-0.05 0.15-0.95 0.4-3.4m5.4-1.45-5.85 1.45 0.3-2.6 0.2-1.7 0.2-1.75 0.05-0.3-0.05-0.15 0.05-0.5 0.45-0.15 0.05-0.55 1.25-15.9q-3.65-11.2-9.05-11.15-5.65-0.05-9.7 5.9-2.75 4.05-3.6 9.2l-2.8-17q1.25 9.15-0.5 14.85-6.1 19.65-14.45 19.6l-0.05 0.15-0.65 0.95m12.85-75.8 5.4 2.4q0.2-3.9 3.65-7.15 0.6-0.6 1.3-1.15-19.2-7.55-32.85-22.8l-16.35 1.8q24.1 15.25 33.55 67.7 3.3 18.35-6.85 33.9m2.05-79.3-4.8-2.15q11.85 24.25 14.55 32.25l0.3 1.1 0.7 2.3 0.2 0.8 1 4.3 0.1 0.5 0.4 2.2 0.3 2.3h1l-0.85 1.25m22.9-22.6q-6.1-0.95-11.1-3.4-8.5-4.1-9.15-10.2l-0.1-0.75 0.05-0.9m-5.4-2.4-10.1-4.6m12.75 43.6 0.05 0.2q0.15 0.55 0.95-0.2m-0.95 0.2-0.1-0.2h0.05m21.85-51.35q3.7-0.9 7.9-1.2l2.7-0.15 4.75 0.05m7.95 0.95-7.95-0.95m-29.5 7.75q1.5-1.25 3.55-2.4 4.7-2.7 10.6-4.05m1.2 30v-1.35h0.65m15.7 0v1.5q9-1.35 15.35-5 6.85-3.9 8.2-8.8l0.3-1.65v-1.1q-0.05-1.65-0.65-3.1-0.5-1.35-1.45-2.55m-35.3 24.6h-2.8v-2.55m16.35 0.15v2.4h-2.75l-0.05 2.2-0.15 1.75-0.85 19.85-0.4 10.35m-5.05 13.5 4.7-1.5m-9-44.25v-1.9h10.8m-10.75 3.95-0.05-2.05m60.15-23.25 2.95-6-26 11.15m16.05 9.2q-4.75 10.15-6.05 14.05-2.3 7-3.05 12.25h0.1l-0.1 0.15q-0.2 0.55-1.05-0.2l0.9 1.25m16.25-41.85q-4.15 8.25-7 14.35m-9.1 26.3v0.15m-1.05-0.2 1.05 0.05m16.15 39.3-1.45-2.45-0.5-0.95m-56.8 12.6-3.25 0.7-1.4 0.35-1.45 0.35m7.9-21.25 1-0.3m-1.45 7.6 1.15-0.3h0.05l4.75-1.2m-6.2 5.8 1.3-0.35 1.05-0.3 3.8-1.05m-7.25 9.95 1.9-0.4 0.15-0.05 0.95-0.2 5.05-1.05m-6.1 1.25h-0.05m-0.8-7.8-5.7 1.5m1.3-11.5 5.1-1.6m-3.8-14.85 0.4-8.5q0.35-10.4 0.2-20.65m2.6 76.6 0.1-0.05 8.6-2.75m-11.4-2.05 3.05-0.75 0.15-0.05 7-1.7m-7.6 12.05 11.3-2.4m-11.6 8.65 11.3-4.6m-2.05-8.75-8.95 5.3m0.1-2.9-8.9 2.85m8.5 8.1-6.95 2.8m7.25-9.05-4.6 1" fill="none" stroke="#000" stroke-linecap="round" stroke-linejoin="round" stroke-opacity=".35294" stroke-width=".05"/>
</g>
<radialGradient id="g" cx="0" cy="0" r="819.2" gradientTransform="matrix(.0083 0 0 .006 264.9 142.95)" gradientUnits="userSpaceOnUse">
<stop stop-color="#fff" offset="0"/>
<stop stop-color="#f30" offset=".32157"/>
</radialGradient>
<radialGradient id="f" cx="0" cy="0" r="819.2" gradientTransform="matrix(.008 .0022 -.0016 .0058 280.35 142.95)" gradientUnits="userSpaceOnUse">
<stop stop-color="#fff" offset="0"/>
<stop stop-color="#f30" offset=".32157"/>
</radialGradient>
<radialGradient id="e" cx="0" cy="0" r="819.2" gradientTransform="matrix(.0058 -.0016 .0016 .0058 283 149.05)" gradientUnits="userSpaceOnUse">
<stop stop-color="#fff" offset="0"/>
<stop stop-color="#f30" offset=".32157"/>
</radialGradient>
<radialGradient id="d" cx="0" cy="0" r="819.2" gradientTransform="matrix(.0058 -.0016 .0016 .0058 275.45 159.75)" gradientUnits="userSpaceOnUse">
<stop stop-color="#fff" offset="0"/>
<stop stop-color="#f30" offset=".32157"/>
</radialGradient>
<radialGradient id="c" cx="0" cy="0" r="819.2" gradientTransform="matrix(.0058 -.0016 .0016 .0058 261.75 159.75)" gradientUnits="userSpaceOnUse">
<stop stop-color="#fff" offset="0"/>
<stop stop-color="#f30" offset=".32157"/>
</radialGradient>
<radialGradient id="b" cx="0" cy="0" r="819.2" gradientTransform="matrix(.0058 -.0016 .0016 .0058 257.5 150.35)" gradientUnits="userSpaceOnUse">
<stop stop-color="#fff" offset="0"/>
<stop stop-color="#f30" offset=".32157"/>
</radialGradient>
</defs>
</svg>
