<?xml version="1.0" encoding="UTF-8"?>
<svg version="1.1" viewBox="0 0 37.3 50.05" xmlns="http://www.w3.org/2000/svg" xmlns:cc="http://creativecommons.org/ns#" xmlns:dc="http://purl.org/dc/elements/1.1/" xmlns:rdf="http://www.w3.org/1999/02/22-rdf-syntax-ns#" xmlns:xlink="http://www.w3.org/1999/xlink">
<metadata>
<rdf:RDF>
<cc:Work rdf:about="">
<dc:format>image/svg+xml</dc:format>
<dc:type rdf:resource="http://purl.org/dc/dcmitype/StillImage"/>
</cc:Work>
</rdf:RDF>
</metadata>
<g transform="translate(-256.35 -175.45)">
<use transform="translate(256.35,175.45)" width="37.299999" height="50.049999" xlink:href="#a"/>
</g>
<defs>
<g id="a" transform="translate(.05 .05)">
<use transform="translate(-.05 -.05)" width="37.299999" height="50.049999" xlink:href="#b"/>
</g>
<g id="b" transform="translate(.05 .05)">
<path d="m12 37.5-1.05-0.7 11.5-16.7-1.1-0.4 2.95-2.45-2.05 0.1 3.35-2.65-1.5-0.4 2.15-1.95 3.15-11.3 3.25 7.05-2.85 7.5-9.05 14.75-6.75 8.55-2-1.4" fill="#718688" fill-rule="evenodd"/>
<path d="m32.65 8.1-3.25-7.05 0.3-1.05 6.3 11.95 1.2 4.4-7.6 14.35 0.1-2.55-10 14.65-2-1.35 6.5-8-0.65 0.25 6.95-9 0.25 1.55 2.8-5.95-1.55 1.8 2.65-9.25q-0.9-1.7-2-4.75" fill="#e8ecec" fill-rule="evenodd"/>
<path d="m14 38.9 6.75-8.55 9.05-14.75 2.85-7.5q1.1 3.05 2 4.75l-2.65 9.25 1.55-1.8-2.8 5.95-0.25-1.55-6.95 9 0.65-0.25-6.5 8-3.25-2.25-0.45-0.3" fill="#a8b6b7" fill-rule="evenodd"/>
<path d="m12 37.5 2 1.4-0.55 0.7 0.55-0.7 0.45 0.3-3.3 3.8-0.6-3.6 1-1 0.45-0.9" fill="#0d0d0d" fill-rule="evenodd"/>
<path d="m11.15 43-1.35 1.6-2.25 0.85-5.4 4.5-2.15-2.3 0.7-2 6.6-3.05 3.25-3.2 0.6 3.6m-7.3 2.4-1.45 0.55q-1 1.25 0.3 1.9l1.5-1.35-0.35-1.1" fill="#a1664c" fill-rule="evenodd"/>
<path d="m29.4 1.05-3.15 11.3-2.15 1.95 1.5 0.4-3.35 2.65 2.05-0.1-2.95 2.45 1.1 0.4-11.5 16.7 1.05 0.7 2 1.4-0.55 0.7m15.95-38.55 0.3-1.05 6.3 11.95 1.2 4.4-7.6 14.35 0.1-2.55-10 14.65-2-1.35-3.25-2.25-3.3 3.8-1.35 1.6-2.25 0.85-5.4 4.5-2.15-2.3 0.7-2 6.6-3.05 3.25-3.2 1-1 0.45-0.9m2 1.4 0.45 0.3m-10.6 6.2 0.35 1.1-1.5 1.35q-1.3-0.65-0.3-1.9l1.45-0.55" fill="none" stroke="#5f462e" stroke-linecap="round" stroke-linejoin="round" stroke-width=".1"/>
</g>
</defs>
</svg>
