<?xml version="1.0" encoding="UTF-8"?>
<svg version="1.1" viewBox="0 0 63.352 70.402" xmlns="http://www.w3.org/2000/svg" xmlns:cc="http://creativecommons.org/ns#" xmlns:dc="http://purl.org/dc/elements/1.1/" xmlns:rdf="http://www.w3.org/1999/02/22-rdf-syntax-ns#" xmlns:xlink="http://www.w3.org/1999/xlink">
<metadata>
<rdf:RDF>
<cc:Work rdf:about="">
<dc:format>image/svg+xml</dc:format>
<dc:type rdf:resource="http://purl.org/dc/dcmitype/StillImage"/>
</cc:Work>
</rdf:RDF>
</metadata>
<g transform="translate(-251.99 -159.56)">
<use transform="matrix(-.3294 -1.1223 -1.123 .3297 329.39 207.65)" width="42.849998" height="68.550003" xlink:href="#a"/>
</g>
<defs>
<g id="a" transform="translate(0 .3)">
<use transform="translate(0 -.3)" width="42.849998" height="68.550003" xlink:href="#b"/>
</g>
<g id="b" transform="translate(0 .3)">
<path d="m35.3 7.5-0.05-0.05h-0.05l0.1 0.05m3.55-1-13.8 4.95-0.8 2.55 13.35-5.45 0.05 0.05-0.15 0.2-0.7 1.25-1.5 2.6-11.85 4.05 0.6-1.95-0.6 1.95-1.15 3.75 10.75-3.95-3.15 5.45-8.5 1.55-0.35 1.05 1.2 0.65 6.65-1.5-2.6 4.45-6.85 1.7v-0.05l0.6-2-0.6 2-0.05 0.05-2.85 1.6 0.5-2.45v-0.05 0.05l-0.5 2.45-0.3 1.5-2.5 1.1 0.1-0.6 0.35-2.95-0.35 2.95-2.55 1.5v-2.95l2.9-1.5 0.15-1.25-3 1.4v-0.5l0.05-1.4 0.15-0.2 2.95-3.75 0.45-0.55 0.05-0.7 3.4-1.35 0.3-1.55 0.6-2.95-0.6 2.95-3.55 1.6 0.15-1.2 0.15-0.15 3.85-3.2 0.05-0.1 0.25-1.15 0.05-0.25 0.55-2.95 0.15-0.1 5.05-3 0.05-0.15 1.45-4.8h0.1l-1.45 4.75-0.1 0.05 0.1-0.05 1.45-4.75 15.6-5.2-3.75 6.5m-14.25 24.55-6.35 11.05-2.8 1.15 0.05-0.25 1.8-5.95-1.8 5.95-0.05 0.25-0.05 0.05 0.1-0.3-0.1 0.3-0.55 1.8-0.85 2.8 0.85-2.8 2-0.55-2.1 3.6-0.1 0.25v-0.15h-0.1l-0.55-0.35-0.7-0.4 0.7-3.4 0.5-2.5-0.5 2.5-0.7 3.4-0.55-0.35-0.5-0.3-1.05-0.55 0.05-2.2v-1.95 1.95l-0.05 2.2-0.55-0.35-0.5 0.2v-0.15l-0.1-0.45-0.25-1.7-0.35-4.5-0.1-1.15 1.95-1.3v2.25l2.05-1.45 0.1-1.05 2.35-1.6-0.4 2.1 0.2-1.05 2.3-1.05 0.45-1.45 0.25-0.85-0.25 0.85-2.45 1 0.35-1.65 2.6-1.15-0.25 0.95 6-1.7m-15.3 6.05-0.2-2.1 2.2-2.6v3.35l-1.85 1.2-0.05-1.2-0.3-0.75 0.35 2-0.15 0.1m15.75-25.65 0.35-1.3-0.35 1.3m-1 3.3 0.3-1-4.45 1.6-0.15 0.8-0.3 1.35-0.1 0.1 0.1-0.1 0.3-1.35 4.3-1.4m-2.65 8.75 0.9-3.05-0.9 3.05m-3.35 0.5 0.35-1.8-0.35 1.8-3.3 1.75 0.2-1.45v-0.05 0.05l-0.2 1.45-0.15 1.45 3.1-1.6 0.35-1.6m-0.65 3.05 0.3-1.45-0.3 1.45-0.35 1.9 3-1.15 0.75-2.45v-0.05l-3.4 1.75m4.85-1.85 0.2 0.15h-1.65 1.65l-0.2-0.15m-1.9-12.05-0.45 2.2 0.45-2.2m-5.75 14.05-0.25 2.05 0.25-2.05m-3.85 5.85 0.55-0.65-0.55 0.65m6.9 2.8 0.25-0.8-0.25 0.8-2.25 1.3-0.2 1 0.35-0.1 0.15-0.05-0.6 0.6-0.4 1.85 0.4-1.85 0.6-0.6-0.15 0.05 1.75-1 0.35-1.2m-4.75 5.55 0.45-3.7-0.45 3.7-0.2 1.4-0.45 4.05 0.45-4.05 1.8-1.2v-0.05l0.2-1.1-1.8 0.95m-3.25-0.2 0.1 1 0.1 1.1 1.4-1.15 0.05-1.1-0.15 0.1 0.15-0.15v-0.75l-1.65 0.95-0.2-1.85 0.2 1.85m0.2 2.1 0.2 2.25-0.2-2.25m1.45-2.25v-0.05 0.05m0-1.9v1.1-1.1" fill="#d5ffff" fill-rule="evenodd"/>
<path d="m10.2 57.1-0.05 0.2-1.3 0.05v-0.2h-0.05l1.4-0.05-1.4 0.05h0.05v0.2h-0.2l0.15-1.85-1.6 1.1 0.2-1.95-1.55 1.1-0.05-0.1-0.1-0.1-0.6-1.15 0.15-0.2 1.45-1.75 0.6-0.65 0.85 3.15 0.25-0.05 2.95-0.8-1.15 3m-4.95-2.9 0.7 1.25-0.25 0.1 0.25-0.1-0.7-1.25" fill="#dfd999" fill-rule="evenodd"/>
<path d="m14.65 48.4 0.15 1.45v0.1l-0.45 0.75-0.05 0.15-2.55 1.9 1.75-0.55-0.8 1.35-0.1 0.2-1.2 0.3 0.1-0.15 1.2-0.35-1.2 0.35-0.1 0.15-0.05 0.05-2.95 0.8 0.75-1.3h0.55l0.65-0.4q0.85-0.6 1.55-1.8t0.8-2.3l-0.1-1.05-0.2-0.25 0.35-0.65 0.55 0.35 0.7 0.4 0.55 0.35h0.1v0.15m-9.85 15.65-0.1 0.15-2.3 1.75 0.15-0.25v0.05l2.25-1.7-2.25 1.7v-0.05l-0.15 0.25v-0.05l-0.4-0.2h-0.05l5.25-9.1 1.6-1.1-0.15 1.85-0.4 0.7-2.7 1.9 1.9-0.55-1.7 3-0.95 1.65m-3.3 1.35 0.4-2.85 1-1.75 1.7-2.95v0.05l-2.55 4.45-0.4 2.85-0.05 0.1-0.1 0.1m5.8-13.65-0.4-1.35 0.9-1.55v0.05l-0.75 1.3 0.4 1.4-0.15 0.15m7.25-3.5 0.25 1.6-0.25-1.6" fill="#9ab456" fill-rule="evenodd"/>
<path d="m14.85 50.25 0.3 1.3v0.15l-1.6 0.5 0.1-0.2 1.4-0.4-0.2-1.35m-5.9 8.55v0.15l-1.45 0.45 0.1-0.2 1.35-0.4m-6.95 8.95-0.65 0.45-0.8-0.1-0.5-0.65q-0.1-0.4 0.1-0.75l0.15-0.2 0.05-0.05q0.15-0.2 0.4-0.25h0.4l-0.05-0.05 0.1-0.15 0.15-0.35 0.1-0.15 0.05-0.1 0.45 0.3h0.05l0.4 0.2-0.05 0.1-0.1 0.15-0.3 0.55 0.05 0.15 0.05 0.1-0.05 0.8-0.5 0.25-0.8-0.1-0.5-0.65q-0.1-0.4 0.1-0.75-0.2 0.35-0.1 0.75l0.5 0.65 0.8 0.1 0.5-0.25m2.6-9.9-0.35-1.6 0.2-0.1 0.3 1.5-0.15 0.25v-0.05m3.2-9-0.4-1.6 0.2-0.1 0.35 1.5-0.15 0.25v-0.05m7.35 2.7-0.1 0.05 0.1-0.05m-13.75 14.1h-0.05 0.05l0.1-0.25-0.1 0.25 0.85 0.5-0.85-0.5-0.15 0.3 0.05 0.05h-0.1 0.1l-0.05-0.05 0.15-0.3m0.55 1.05-0.35-0.35-0.35-0.15h-0.1 0.1l0.35 0.15 0.35 0.35" fill="#647535" fill-rule="evenodd"/>
<path d="m9.7 53.6q-0.25-0.6-0.2-1.15l0.25-0.05 0.1-0.25q0.05-1.05 0.7-1.95l0.15-0.1 0.1-0.25-0.05-0.15 0.05 0.05v-0.05l0.45-0.3 0.25-0.1 0.1-0.2v-0.05l1-1 0.1 1.05q-0.1 1.1-0.8 2.3t-1.55 1.8l-0.65 0.4" fill="#a00" fill-rule="evenodd"/>
<path d="m9.5 52.45-0.1-0.05h-0.05q-0.3-1.8 1.15-2.85l0.2 0.1 0.05 0.05 0.05 0.15-0.1 0.25-0.15 0.1q-0.65 0.9-0.7 1.95l-0.1 0.25-0.25 0.05m1.75-3.05-0.5-0.2v-0.3q0.1-0.15 0.25-0.2h0.15l0.25 0.05 0.1 0.05 0.05 0.05 0.05 0.1v0.15l-0.1 0.2-0.25 0.1" fill="#f8e6ab" fill-rule="evenodd"/>
<path d="m35.3 12.65-2.25 3.85-10.75 3.95 1.15-3.75 11.85-4.05m-9.7 16.7-1 1.7-6 1.7 0.25-0.95-2.6 1.15 0.3-1.5 2.85-1.6 0.05-0.05v0.05l-0.6 1.95 6.75-2.45m-16.25 8.85-0.05-1.1 0.15-0.1 0.05 0.4-0.05-0.45 1.85-1.2v0.6l1.6-1.65-1.6 2.1v0.1l-1.95 1.3m1.95-6.2 0.05-1.35 3-1.4-0.15 1.25-2.9 1.5m13.05-18.25-0.3 1-4.3 1.4 0.15-0.8 4.45-1.6m-6.3 10.25-0.35 1.6-3.1 1.6 0.15-1.45 3.3-1.75m-0.65 3.05 3.4-1.75v0.05l-0.75 2.45-3 1.15 0.35-1.9m-3.65 7 2.5-1.1-0.35 1.65-0.1 0.45-2.35 1.6-0.1 1.05-2.05 1.45v-1.05l2.15-1.45 0.3-2.6m3.9 1.8-0.35 1.2-1.75 1-0.35 0.1 0.2-1 2.25-1.3m-4.75 5.55 1.8-0.95-0.2 1.1v0.05l-1.8 1.2 0.2-1.4m-3.15 0.8-0.1-1 1.65-0.95v0.75l-0.15 0.15-1.4 1.05" fill="#fff" fill-rule="evenodd"/>
<path d="m9.1 46.6-0.5 0.8-0.35 3.3-0.45-1.8 0.15-0.25-0.35-1.5 1.5-0.55m5.7 3.35 0.05 0.3 0.2 1.35-1.4 0.4-0.1 0.2h-0.05l-1.75 0.55 2.55-1.9 0.05-0.15 0.45-0.75m-6.1 7.4 0.25 1.45-1.35 0.4-0.1 0.2h-0.05l-1.9 0.55 2.7-1.9 0.4-0.7h0.05m-4.1 0.55 0.15-0.25-0.3-1.5 1.35-0.5 0.05 0.1-0.4 0.65-0.35 3.3-0.5-1.8" fill="#323a1a" fill-rule="evenodd"/>
<path d="m10.1 46.15h0.05l0.5-0.2 0.55 0.35 1.05 0.55 0.5 0.3-0.35 0.65-0.1-0.05q-0.6-0.35-1.45 0.3-0.9 0.6-1.55 1.8-0.75 1.2-0.85 2.25-0.1 1.1 0.5 1.45l0.2 0.05-0.75 1.3-0.25 0.05-0.85-3.15v-0.05l0.15-0.15-0.4-1.4 0.75-1.3 0.45 1.8 0.35-3.3 0.5-0.8 1-0.45m-4.25 9.6 1.55-1.1-0.2 1.95-5.25 9.1-0.45-0.3 0.1-0.1 0.05-0.1 0.4-2.85 2.55-4.45 0.5 1.8 0.35-3.3 0.4-0.65" fill="#707c38" fill-rule="evenodd"/>
<path d="m9.15 53.6-0.2-0.05q-0.6-0.35-0.5-1.45 0.1-1.05 0.85-2.25 0.65-1.2 1.55-1.8 0.85-0.65 1.45-0.3l0.1 0.05 0.2 0.25-1 1v-0.1l-0.05-0.1-0.05-0.05-0.1-0.05-0.25-0.05h-0.15q-0.15 0.05-0.25 0.2v0.3l0.5 0.2-0.45 0.3v0.05l-0.1-0.1-0.2-0.1q-1.45 1.05-1.15 2.85h0.05l0.1 0.05q-0.05 0.55 0.2 1.15h-0.55" fill="#5f0101" fill-rule="evenodd"/>
<path d="m38.85 6.5-0.75 1.25v0.05l-0.15 0.2-2-0.4 1.65 0.95-13.35 5.45 0.8-2.55 13.8-4.95m-8.95 15.45-1 1.75-6.65 1.5-1.2-0.65 0.35-1.05 8.5-1.55m-3.6 6.2-0.7 1.2-6.75 2.45 0.6-1.95 6.85-1.7m-8.05 13.95-1.4 2.45-2 0.55 0.55-1.8 0.05-0.05 2.8-1.15m-3.25-18.55 0.1-0.7 0.05-0.05 0.1-0.05 0.45-0.3-0.55 0.1v-0.3l3.55-1.6-0.3 1.55-3.4 1.35m-1.15 9.9-0.1 0.6-0.3 2.6-2.15 1.45v-1.3l1.6-2.1-1.6 1.65v-1.4l2.55-1.5m4.5 0.15-0.45 1.45-2.3 1.05 0.2-1.05 0.1-0.45 2.45-1m-8.6 8.6 1.4-1.05 0.15-0.1-0.05 1.1-1.4 1.15-0.1-1.1" fill="#a0d6fc" fill-rule="evenodd"/>
<path d="m37.95 8 0.15-0.2v-0.05l0.75-1.25m-13.8 4.95-0.8 2.55m-9.5 34.15-0.1 0.25m-1.95 5.15-0.1 0.2-1.2 0.3-0.05 0.05m-6.55 9.95-0.1 0.15m-3.5 1.8 0.15-0.35 0.1-0.15m0.45-2.95 1-1.75m4.4-9.05-0.4-1.35 0.9-1.55m2.25-3.3-0.25-1.7-0.35-4.5m1.3-6.3 0.55-0.65v2.55m0.1-6.2 0.15-0.2m3.75-7.5 0.15-0.15m3.9-3.3 0.25-1.15m0.05-0.25 0.55-2.95 0.15-0.1 5.05-3-0.35 1.3m0.4-1.45 1.45-4.8h0.1l15.6-5.2-3.75 6.5m-2.05 3.55 0.7-1.25m-12.05 1.2-0.05 0.15m-1.05 3.6-0.3 1-0.6 1.95-1.15 3.75-0.9 3.05-0.35 1.05 1.2 0.65m-2.9-7.6-0.05 0.1-0.6 2.95-0.3 1.55-0.35 1.8-0.35 1.6-0.3 1.45m3.4-1.7h1.65l-0.2-0.15m-7.15-2.35 0.05-0.05 0.1-0.05 0.45-0.3m-0.75 1.8v0.05l-0.2 1.45-0.15 1.45m4.7-9.5-3.85 3.2m1.6 8.05 0.35-1.9m2.05 2.75v0.05m0-0.05 0.6-2m-3 1.15v0.05l-0.5 2.45m-2.2-2.2-0.15 1.25-0.35 2.95-0.1 0.6m2.5-1.1 0.3-1.5m-2.2-2.2 0.25-2.05m-3.3 8.55v0.6l1.6-1.65-1.6 2.1v1.3m2.15-1.45 0.3-2.6m-2.45 1.7v-0.8m7.55-3.15-0.25 0.95-0.25 0.85-0.45 1.45-0.25 0.8-0.35 1.2-1.8 5.95-0.05 0.25m0.15-7.15 0.2-1.05 0.1-0.45 0.35-1.65m-2.8 3.7-0.1 1.05-0.45 3.7m1.8-0.95 0.4-1.85 0.6-0.6-0.15 0.05-0.35 0.1 0.2-1 0.2-1.05m3.25-4.3 0.6-1.95m-8.15 11.15v-2.9m-0.05 4.05 0.05-1.1m-1.15 5.1v-0.15l-0.1-0.45m-1.45 1.85 0.5-0.8m6.4-3.6-0.1 0.3 0.05-0.05m-4.2-1.1v1.95l-0.05 2.2m1.05 0.55 0.45-4.05 0.2-1.4m-1.6-0.4v0.05m3.2 0.55v-0.05l0.2-1.1m-0.2 1.15-0.5 2.5-0.7 3.4m0.7 0.4 0.85-2.8 0.55-1.8m5.4-17.95-0.75 2.45m-5.1-3.55-0.45 0.55m-0.15 25.9 0.45-0.75m-1.3 2.25-0.8 1.35m-6.95 8.85-0.95 1.65m2.5-12.25v-0.05m0 0.05 0.85 3.15 0.25-0.05 2.95-0.8m-10.25 12.1v-0.05l0.1-0.15" fill="none" stroke="#000" stroke-linecap="round" stroke-linejoin="round" stroke-width=".05"/>
<path d="m14.65 48.4 0.15 1.45v0.1l0.05 0.3 0.3 1.3v0.15l-1.6 0.5h-0.05l-1.75 0.55 2.55-1.9 0.05-0.15m-4.15 6.4-0.05 0.2-1.3 0.05h-0.15l0.25 1.45v0.15l-1.45 0.45h-0.05l-1.7 3m-1.05 1.8-2.3 1.75v0.05h-0.05l-0.1 0.15-0.3 0.55 0.05 0.15 0.05 0.1-0.05 0.8-0.65 0.45-0.8-0.1-0.5-0.65q-0.1-0.4 0.1-0.75l0.15-0.2m1.15-1 0.05-0.1 0.4-2.85m1-1.75 1.7-2.95-0.35-1.6 0.2-0.1 1.35-0.5 0.05 0.1 1.55-1.1-0.2 1.95 1.6-1.1-0.15 1.85-0.4 0.7-2.7 1.9 1.9-0.55m-1.75-3.85-0.6-1.15 0.15-0.2m2.55-5.35-0.4-1.6 0.2-0.1m2.5-1h0.05l0.5-0.2 0.55 0.35 1.05 0.55m-4.45 2.05v-0.05m1.3-2.25-1.5 0.55m0.2 1.75 0.45 1.8 0.35-3.3m0.5-0.8 1-0.45m3.2 1.35 0.7 0.4 0.55 0.35h0.1v0.15m-2.25-0.6-0.1-0.05q-0.6-0.35-1.45 0.3-0.9 0.6-1.55 1.8-0.75 1.2-0.85 2.25-0.1 1.1 0.5 1.45l0.2 0.05h0.05m3.4-5.55-0.2-0.25m0.35-0.65-0.5-0.3m0.5 0.3 0.55 0.35m-3.6 6.1 0.65-0.4q0.85-0.6 1.55-1.8t0.8-2.3l-0.1-1.05m-1.25 6.05-1.15 3m-3.5-4.65 0.6-0.65m-1.5 3.85-0.1-0.1m-1.1 2.35v-0.05m4.1-0.5h-0.05m-2.8-1.6-0.4 0.65-0.35 3.3-0.5-1.8m-3.1 7.5 0.45 0.3 5.25-9.1m-5.25 9.1h0.05l0.4 0.2-0.05 0.1m-1-0.35h0.05l0.85 0.5m-1.1 0.05h0.1l0.35 0.15 0.35 0.35m-0.8-0.5h-0.4q-0.25 0.05-0.4 0.25" fill="none" stroke="#000" stroke-linecap="round" stroke-linejoin="round" stroke-width=".05"/>
<path d="m11.55 28.55 2.95-3.75 0.45-0.55" fill="none" stroke="#2e4b39" stroke-linecap="round" stroke-linejoin="round" stroke-width=".25"/>
<path d="m37.6 8.55-1.65-0.95 2 0.4 0.15-0.2m-0.6 1 0.15-0.2-0.05-0.05m-0.1 0.25-0.7 1.25-1.5 2.6-2.25 3.85-3.15 5.45-1 1.75-2.6 4.45-0.7 1.2-1 1.7-6.35 11.05-1.4 2.45-2.1 3.6m0.05 1.7 0.05 0.4 0.2 1.35 0.1-0.05m-1.6 0.65-0.8 1.35h-0.05l-1.2 0.35-0.1 0.15-1.1 3.05h-0.1l-1.4 0.05h0.05v0.2l0.25 1.4-0.15 0.05-1.35 0.4-0.1 0.2-2.65 4.6-0.05 0.05-2.25 1.7v-0.05l-0.15 0.25v0.05l-0.3 0.5 0.05 0.15 0.05 0.1-0.05 0.8-0.15 0.2-0.5 0.25-0.8-0.1-0.5-0.65q-0.1-0.4 0.1-0.75l0.05-0.05q0.15-0.35 0.55-0.45h0.4l-0.05-0.05 0.15-0.3 0.1-0.25m2.95-9.25-0.05-0.1 1.3-0.5 0.25-0.1-0.7-1.25 1.45-1.75 0.6-0.7 0.15-0.15-0.4-1.4 0.75-1.3m-0.2-1.75-0.05-0.1 2.55-1-0.05-0.5-0.2-2.25m-0.4-3.95-0.1-1.15-0.05-1.1-0.2-2.1 1.65-1.95m0.55-0.65v-0.4l0.05-1.35v-0.5l0.05-1.4m3.55-4.5 0.05-0.7 0.1-0.7 0.05-0.3v-0.3l0.15-1.2m0.15-0.15v-0.05l3.9-3.25 0.1-0.1 0.3-1.35 0.15-0.8 0.45-2.2v-0.1l5.1-3.05 0.1-0.05 1.45-4.75 0.05-0.2 15.7-5.2-4.65 8m-26.8 24.6-0.55 0.65m-1.1 8.15 0.1 1 0.1 1.1m-0.2-2.1-0.2-1.85m0.7 6.65-0.05 0.05v0.1m-2.5 1 0.35 1.5-0.15 0.25m5.75 3.3 0.1-0.2 1.4-0.4m-10.45 6.3 0.15-0.25-0.3-1.5m0.15 1.75-2.55 4.45-0.4 2.85-0.05 0.1-0.1 0.1m13.3-15.55-0.25-1.6" fill="none" stroke="#35476f" stroke-linecap="round" stroke-linejoin="round" stroke-width=".25"/>
</g>
</defs>
</svg>
