<?xml version="1.0" encoding="UTF-8"?>
<svg version="1.1" viewBox="0 0 296.19 258.37" xmlns="http://www.w3.org/2000/svg" xmlns:cc="http://creativecommons.org/ns#" xmlns:dc="http://purl.org/dc/elements/1.1/" xmlns:rdf="http://www.w3.org/1999/02/22-rdf-syntax-ns#" xmlns:xlink="http://www.w3.org/1999/xlink">
<metadata>
<rdf:RDF>
<cc:Work rdf:about="">
<dc:format>image/svg+xml</dc:format>
<dc:type rdf:resource="http://purl.org/dc/dcmitype/StillImage"/>
</cc:Work>
</rdf:RDF>
</metadata>
<g transform="translate(83.839 57.799)">
<use transform="matrix(.7829 .6196 -.5022 .6346 81.544 -106.22)" width="208.95" height="400.20001" xlink:href="#a"/>
</g>
<defs>
<g id="a" transform="translate(104.45,200.05)">
<use transform="translate(-104.45,-200.05)" width="208.95" height="400.20001" xlink:href="#b"/>
</g>
<g id="b" transform="translate(104.45,200.05)">
<path d="m12.15 49.65q-11.6 1.5-18 10.1-2.45 3.25-4.1 7.5l-2.75-0.1q9.25-18.85 24.8-18.25l0.05 0.75m-44.65-53.2-0.55-0.15 0.55 0.1v0.05" fill="#fff" fill-rule="evenodd"/>
<path d="m-9.95 67.25 0.6 0.05q1.35 0.75 1.4 2.8l0.15 6.25h-0.25q-0.2-5.35-1.65-5.15l-1.5-0.05-29-1.7q-1.95 0.15-2.15 4.35l-19.55 12.25q-4.3 2.75-5.6 7.2-8.05 27.35-12.25 58.5-2.5 0.65-3.75 2.55 2.7 2.15-1.65 4.8-1.65-1.65-1.05-3.85 2.05-3.2 5.35-4.05 3.25-32.3 13.05-64.9 9.8-7.1 20.35-12.6 2.95-1.75 3.3-3.65l-0.05-1.2q0.35-2.9 2.35-3.15l4.75 0.25 1.75 0.05 7.85 0.4 1.9 0.1 12.9 0.65 2.75 0.1" fill="url(#m)" fill-rule="evenodd"/>
<path d="m-39.45 84.2-3.2-0.1q-9.05 3.9-17.45 10.2-12.05 24.95-17.3 59.2-2.7 7.25-7.75 5.6 4.35-2.65 1.65-4.8 1.25-1.9 3.75-2.55 4.2-31.15 12.25-58.5 1.3-4.45 5.6-7.2l19.55-12.25q0.2-4.2 2.15-4.35l29 1.7q1.1 1 1.4 6.95 0.35 6.4-3.2 7.05l-21.55-0.75-4.9-0.2" fill="url(#l)" fill-rule="evenodd"/>
<path d="m-8.3 84.7-0.7 0.6-2.9-0.1-1.1-0.05q3.55-0.65 3.2-7.05-0.3-5.95-1.4-6.95l1.5 0.05q1.45-0.2 1.65 5.15 0.1 3.15-0.25 8.35m-5.65 104.55 0.05 1.1-5.65-3.2-0.75-0.45q-0.6-1.15-1.85-1.85-1.05-0.65-2.2-0.65-0.9-0.25-1.8 0l-0.35 0.1-3.35-1.4-5.2-2.7 0.1-0.6 0.15-2q10.5 3.1 20.75 9.75l0.1 1.9" fill="#aa8d1c" fill-rule="evenodd"/>
<path d="m-35.35 66q-20.65-30.35-61.5-37.65 59.1-0.25 64.35-31.9 1.5 34.15 25.95 50.1-13.9 2.2-18.9 13.2-1.35 3-2.05 6.65l-7.85-0.4" fill="url(#j)" fill-rule="evenodd"/>
<path d="m-11.9 85.2 0.5 5.8-1.15 2.2 0.35 7.8-2.05 3.65 0.35 11.65-1.55 2.15 0.55 7.6-1.1 2.9 1.15 6.45-1.45 3.3 1.55 8.15-1.5 4.65 2.1 8.4-1.35 4.15 3.1 9.6-2.3 3.9 0.4 3.25 0.05 1.25 1.5 5.55-1.2 1.65-0.1-1.9q-10.25-6.65-20.75-9.75l-0.15 2-2.6-2.6 0.25-1 3.2-1.35 0.95 0.25q9.95 2.4 18.15 9.15l-1.95-7.95q-5.35-6.05-14.85-10.3l-0.95-0.4-1.4-0.4-0.95 3.2-1.35-5.2 3.05-1.65q10.9 2.95 18.85 10.6l-2.9-8.7q-5.8-5.35-13.95-9.3l-1.45-0.7-1-0.2v-0.05l-0.6 2.25-1.25-4.75 2.3-1.25 1.1 0.25q9.3 2.35 16.05 9.65l-2.65-8.2q-4.65-5.15-12.35-8.8l-1.4-0.65-1.2-0.15-0.05-0.05v0.05l-0.65 3.5-1.6-6.05h2.05q9.6 1.4 17.4 8.05l-2.15-8.95q-5.05-5.8-12.8-8.95l-2.65-0.95q9.25 0.9 17.45 7.8l0.55 2.9-0.55-2.9q-8.2-6.9-17.45-7.8l-0.45 2.75-1.4-5.25 1.85-1.85 1.5 0.2q9.35 1.5 16.35 9.45l-1.7-6.25q-6.2-8.45-14.65-10.6l-1.1-0.25-1.2-0.1-0.3 2.8-1.75-4.1 1.85-1.3q11.05 0.85 18.15 8.2v-5.55q-6.55-6.8-16.7-10.7l-1.25-0.5-1.2-0.15-0.15 2-1.7-2.95 2.15-1.7q10.7 1.05 20.05 8.95v-7.5q-8.5-7.1-20.05-8.25l-1.5-0.05-0.2 3.05-1.5-2.85 2.2-3 0.6 0.05q12.05 0.35 22.35 6.2l0.05-6q-10.2-6.6-23-6.6l-2.4 0.05-0.05-2 4.9 0.2q10.85 0.6 20.6 5.1l1.25 0.6 0.15 3.1-0.15-3.1-1.25-0.6q-9.75-4.5-20.6-5.1l21.55 0.75 1.1 0.05m-2.35 19.45-0.1-3.55q-10.55-5.5-21.65-5.75 11.1 0.25 21.65 5.75l0.1 3.55m-20.85 0.3q10.05 1.65 19.3 9.65l0.35 3.85-0.35-3.85q-9.25-8-19.3-9.65m19.1 24-0.55-2.9q-8.3-8.6-17.35-9.85 9.05 1.25 17.35 9.85l0.55 2.9m-0.25 22.55-0.5-1.9q-7.75-6.7-15.9-8.1 8.15 1.4 15.9 8.1l0.5 1.9m-16.6 1.75q8.8 1.95 16.7 8.8l0.65 2-0.65-2q-7.9-6.85-16.7-8.8m18.15 24.3-0.35-3.25q-8.3-5.9-16.75-8.6-0.5-0.2-0.95-0.3 0.45 0.1 0.95 0.3 8.45 2.7 16.75 8.6l0.35 3.25" fill="url(#i)" fill-rule="evenodd"/>
<path d="m-37.3 176 2.2-7.8 0.95-3.2 1.4 0.4 0.95 0.4-1.35 9.1-0.95-0.25-3.2 1.35m0.85-13 2-7.75 0.6-2.25v0.05l1 0.2 1.45 0.7-2 7.4-3.05 1.65m0.75-12.5 1.15-5.65 0.65-3.5h0.05l1.2 0.15 1.4 0.65-1.05 7.35-1.1-0.25-2.3 1.25m-0.45-11.7 1.4-8.05 0.45-2.75 2.65 0.95-2.45 9.85h-2.05m0-13.3 0.75-6.6 0.3-2.8 1.2 0.1 1.1 0.25v7.4l-1.5-0.2-1.85 1.85m-1-10.7 0.7-8 0.15-2 1.2 0.15 1.25 0.5-1.45 8.05-1.85 1.3m-1-10.95 0.45-5.5 0.2-3.05 1.5 0.05v6.8l-2.15 1.7m-1.05-8.35-0.2-9.3 2.4-0.05 0.6 6.4-0.6-0.05-2.2 3" fill="#b793db" fill-rule="evenodd"/>
<path d="m-36.4 92.55-0.6-6.4q12.8 0 23 6.6l-0.05 6q-10.3-5.85-22.35-6.2m0.4 2.8q11.55 1.15 20.05 8.25v7.5q-9.35-7.9-20.05-8.95v-6.8m2.15 10.1q10.15 3.9 16.7 10.7v5.55q-7.1-7.35-18.15-8.2l1.45-8.05m2.2 23.5q7.75 3.15 12.8 8.95l2.15 8.95q-7.8-6.65-17.4-8.05l2.45-9.85m-1.15-12.5q8.45 2.15 14.65 10.6l1.7 6.25q-7-7.95-16.35-9.45v-7.4m1.55 25.7q7.7 3.65 12.35 8.8l2.65 8.2q-6.75-7.3-16.05-9.65l1.05-7.35m-0.15 11.8q8.15 3.95 13.95 9.3l2.9 8.7q-7.95-7.65-18.85-10.6l2-7.4m-1.75 20.95 1.35-9.1q9.5 4.25 14.85 10.3l1.95 7.95q-8.2-6.75-18.15-9.15" fill="url(#h)" fill-rule="evenodd"/>
<path d="m-7.8 76.35 0.15 6.5q-0.1 1.2-0.65 1.85 0.35-5.2 0.25-8.35h0.25m-16.55 107.85q1.15 0 2.2 0.65l-0.3 0.4-0.85-0.65-1.05-0.4m-4.5 4.65-0.45 0.05q0-1.05 0.45-2-0.25 0.95 0 1.95" fill="#e7d030" fill-rule="evenodd"/>
<path d="m-25.6 66.5q2.9-16.7 21.75-19.6l15.95 2q-15.55-0.6-24.8 18.25l-12.9-0.65" fill="#153a3e" fill-rule="evenodd"/>
<path d="m-13.9 190.35 0.2 3.55q-2.55 5.5-11.15 6.25-3.1-0.5-5.4-1.6-2.65-2.95-2.4-5.55 0.65-6.6 2.8-10.1l3.35 1.4q-1.25 0.45-1.95 1.65l-0.4 0.95q-0.45 0.95-0.45 2l0.2 1.3q0.45 1.85 2.15 2.85 1.75 1 3.65 0.55 1.85-0.5 2.85-2.25t0.55-3.6l0.35-0.6 5.65 3.2" fill="url(#g)" fill-rule="evenodd"/>
<path d="m-22.15 184.85q1.25 0.7 1.85 1.85l0.4 1.05q0.45 1.85-0.55 3.6t-2.85 2.25q-1.9 0.45-3.65-0.55-1.7-1-2.15-2.85l-0.2-1.3 0.45-0.05q0.4 1.5 1.75 2.3 1.4 0.8 2.9 0.4t2.25-1.75q0.85-1.4 0.45-2.9-0.3-1-0.95-1.65l0.3-0.4" fill="url(#f)" fill-rule="evenodd"/>
<path d="m-30.25 198.55q-4.7-2.2-6.25-6.75l1.45-11.6 5.2 2.7q-2.15 3.5-2.8 10.1-0.25 2.6 2.4 5.55" fill="url(#e)" fill-rule="evenodd"/>
<path d="m-20.3 186.7 0.75 0.45-0.35 0.6-0.4-1.05" fill="#ceac22" fill-rule="evenodd"/>
<path d="m-33.05-3.7q-6.8 31.85-67.25 30.9 9.95-8.15 13.25-19.6 2.35 2 5.5 3.3 7.55 3.1 15.05-0.05l0.2-0.1q5.25-2.25 8.35-6.75 1.15-1.8 2.05-3.9 0.7-1.8 1.1-3.55 1.2-5.75-1.15-11.45-3.2-7.55-10.7-10.65-4.25-1.7-8.45-1.45l-3.75 0.55q3.05-23.8 1.2-50.75l2.7 0.55q8.1 1 14.55-4l0.15-0.1q4.5-3.55 6.3-8.7 0.7-2 1-4.25 0.2-1.95 0.1-3.75-0.3-5.9-4.05-10.75-5-6.5-13.1-7.5-4.95-0.65-9.25 1 2.9-31.35 23.3-52.95l0.95 1.9q3.95 7.15 11.8 9.35l0.2 0.1q5.55 1.5 10.75-0.1 2.05-0.65 4.05-1.75 1.65-0.95 3.1-2.1 4.55-3.75 6.25-9.7 2.2-7.85-1.75-15-1.75-3.1-4.2-5.25 26.95-10.7 53.95-5.7l-0.15 0.95q-4.75 6.65-3.35 14.7v0.2q1 5.7 4.7 9.7l3.35 2.9q1.55 1.1 3.25 1.85 5.3 2.5 11.45 1.5 8-1.4 12.75-8.05 2.7-3.85 3.4-8.1 33.15 21.35 38.15 67.75 0.75 14.35-2.2 24.3-8.2-74.4-74.4-66.75-48.75 5.75-56.45 62.65l-2.05 84.2-0.65 4.4" fill="url(#d)" fill-rule="evenodd"/>
<path d="m-37.1 65.95q-2.4-3.25-5-6.2-22.1-24.9-62.35-31.5 10.95-7.15 17.2-24l2.95 2.55q5.85 4.15 12.95 2.95t11.3-7.1q4.15-5.9 2.95-12.95-1.25-7.15-7.1-11.3-5.9-4.15-13-2.95l-3.65 1.05 0.3-2.45v-0.15q2.5-21.85 1.15-51.65l-0.15-2.55q4.7 2.2 10.1 1.3 7.1-1.25 11.25-7.1 4.15-5.9 2.95-13t-7.1-11.25-12.95-2.95l-3.65 1-2.3 1.15 0.1-2.7q1.5-25.05 17-46.95 3.45-4.9 7.35-9.2l1.9-2.1q0.9 5 4.15 8.55l2.95 2.55q1.35 0.95 2.85 1.65 4.7 2.2 10.1 1.3 7.1-1.25 11.25-7.1 4.15-5.9 2.95-13t-7.1-11.25l-1.9-1.15 2.75-1.25q10.6-4.75 22.85-6.8 18.65-3.2 35.7 0.55l3.05 0.7q-2.25 1.65-3.95 4.1-4.2 5.85-2.95 12.95v0.2q0.9 5 4.15 8.55 1.3 1.35 2.95 2.55 1.35 0.95 2.85 1.65 4.7 2.2 10.1 1.3 7.1-1.25 11.3-7.1 3.75-5.4 3.1-11.75l2.55 1.7 0.35 0.25q31.4 22.2 37.9 60.1 3.65 21.6-1.95 41.1-14.9-45.05-48.3-45.55-43.25 1.65-52.5 64.65-2.55 26-1.35 47.65 2.15 39.25 16.6 64.35l-3.4 0.3-0.05-0.75-15.95-2q-18.85 2.9-21.75 19.6l-1.9-0.1q0.7-3.65 2.05-6.65 5-11 18.9-13.2-24.45-15.95-25.95-50.1-5.25 31.65-64.35 31.9 40.85 7.3 61.5 37.65l-1.75-0.05m4.05-69.65 0.55 0.15v-0.05l-0.55-0.1 0.65-4.4 2.05-84.2q7.7-56.9 56.45-62.65 66.2-7.65 74.4 66.75 2.95-9.95 2.2-24.3-5-46.4-38.15-67.75-0.7 4.25-3.4 8.1-4.75 6.65-12.75 8.05-6.15 1-11.45-1.5-1.7-0.75-3.25-1.85l-3.35-2.9q-3.7-4-4.7-9.7v-0.2q-1.4-8.05 3.35-14.7l0.6-0.85-0.45-0.1q-27-5-53.95 5.7 2.45 2.15 4.2 5.25 3.95 7.15 1.75 15-1.7 5.95-6.25 9.7-1.45 1.15-3.1 2.1-2 1.1-4.05 1.75-5.2 1.6-10.75 0.1l-0.2-0.1q-7.85-2.2-11.8-9.35l-0.95-1.9q-20.4 21.6-23.3 52.95 4.3-1.65 9.25-1 8.1 1 13.1 7.5 3.75 4.85 4.05 10.75 0.1 1.8-0.1 3.75-0.3 2.25-1 4.25-1.8 5.15-6.3 8.7l-0.15 0.1q-6.45 5-14.55 4l-2.7-0.55q1.85 26.95-1.2 50.75l3.75-0.55q4.2-0.25 8.45 1.45 7.5 3.1 10.7 10.65 2.35 5.7 1.15 11.45-0.4 1.75-1.1 3.55-0.9 2.1-2.05 3.9-3.1 4.5-8.35 6.75l-0.2 0.1q-7.5 3.15-15.05 0.05-3.15-1.3-5.5-3.3-3.3 11.45-13.25 19.6 60.45 0.95 67.25-30.9m42.3-98.2q13-21.4 28.15-25.15 16.1-5.3 32.55 0.95 16.4 6.2 25 25l3.95 9.2q-4.45-27.25-16.65-43.5-25.65-28.3-73.45-14.05-31.45 12.05-37.8 57.4l-2.4 88.8q2.05 32.5 26.4 48.6l16.45 2.2q-17.1-36.5-15.35-82.2-0.1-39.4 13.15-67.25" fill="url(#c)" fill-rule="evenodd"/>
<path d="m9.25-101.9q-13.25 27.85-13.15 67.25-1.75 45.7 15.35 82.2l-16.45-2.2q-24.35-16.1-26.4-48.6l2.4-88.8q6.35-45.35 37.8-57.4 47.8-14.25 73.45 14.05 12.2 16.25 16.65 43.5l-3.95-9.2q-8.6-18.8-25-25-16.45-6.25-32.55-0.95-15.15 3.75-28.15 25.15" fill="url(#k)" fill-rule="evenodd"/>
<path d="m-37.1 65.95q-2.4-3.25-5-6.2-22.1-24.9-62.35-31.5 10.95-7.15 17.2-24l2.95 2.55q5.85 4.15 12.95 2.95t11.3-7.1q4.15-5.9 2.95-12.95-1.25-7.15-7.1-11.3-5.9-4.15-13-2.95l-3.65 1.05 0.3-2.45v-0.15q2.5-21.85 1.15-51.65l-0.15-2.55q4.7 2.2 10.1 1.3 7.1-1.25 11.25-7.1 4.15-5.9 2.95-13t-7.1-11.25-12.95-2.95l-3.65 1-2.3 1.15 0.1-2.7q1.5-25.05 17-46.95 3.45-4.9 7.35-9.2l1.9-2.1q0.9 5 4.15 8.55l2.95 2.55q1.35 0.95 2.85 1.65 4.7 2.2 10.1 1.3 7.1-1.25 11.25-7.1 4.15-5.9 2.95-13t-7.1-11.25l-1.9-1.15 2.75-1.25q10.6-4.75 22.85-6.8 18.65-3.2 35.7 0.55l3.05 0.7q-2.25 1.65-3.95 4.1-4.2 5.85-2.95 12.95v0.2q0.9 5 4.15 8.55 1.3 1.35 2.95 2.55 1.35 0.95 2.85 1.65 4.7 2.2 10.1 1.3 7.1-1.25 11.3-7.1 3.75-5.4 3.1-11.75l2.55 1.7 0.35 0.25q31.4 22.2 37.9 60.1 3.65 21.6-1.95 41.1-14.9-45.05-48.3-45.55-43.25 1.65-52.5 64.65-2.55 26-1.35 47.65 2.15 39.25 16.6 64.35l-3.4 0.3q-11.6 1.5-18 10.1-2.45 3.25-4.1 7.5l0.6 0.05q1.35 0.75 1.4 2.8l0.15 6.25 0.15 6.5q-0.1 1.2-0.65 1.85l-0.7 0.6-2.9-0.1 0.5 5.8-1.15 2.2 0.35 7.8-2.05 3.65 0.35 11.65-1.55 2.15 0.55 7.6-1.1 2.9 1.15 6.45-1.45 3.3 1.55 8.15-1.5 4.65 2.1 8.4-1.35 4.15 3.1 9.6-2.3 3.9 0.4 3.25 0.05 1.25 1.5 5.55-1.2 1.65 0.05 1.1 0.2 3.55q-2.55 5.5-11.15 6.25-3.1-0.5-5.4-1.6-4.7-2.2-6.25-6.75l1.45-11.6 0.1-0.6-2.6-2.6 0.25-1 2.2-7.8-1.35-5.2 2-7.75-1.25-4.75 1.15-5.65-1.6-6.05 1.4-8.05-1.4-5.25 0.75-6.6-1.75-4.1 0.7-8-1.7-2.95 0.45-5.5-1.5-2.85-0.2-9.3-0.05-2-3.2-0.1q-9.05 3.9-17.45 10.2-12.05 24.95-17.3 59.2-2.7 7.25-7.75 5.6-1.65-1.65-1.05-3.85 2.05-3.2 5.35-4.05 3.25-32.3 13.05-64.9 9.8-7.1 20.35-12.6 2.95-1.75 3.3-3.65l-0.05-1.2q0.35-2.9 2.35-3.15l4.75 0.25 1.75 0.05 7.85 0.4 1.9 0.1 12.9 0.65 2.75 0.1m-24.6 17.15-4.9-0.2m1.75 14.15 0.2-3.05 1.5 0.05q11.1 0.25 21.65 5.75l0.1 3.55m1.25-19.5 1.1 0.05m-0.65 8-0.15-3.1-1.25-0.6q-9.75-4.5-20.6-5.1l21.55 0.75m-2.45 33.3-0.35-3.85q-9.25-8-19.3-9.65l-1.2-0.15-0.15 2m1.05 12.1 0.3-2.8 1.2 0.1q9.05 1.25 17.35 9.85l0.55 2.9m-18.3-0.95q9.25 0.9 17.45 7.8l0.55 2.9m-18.45-7.95 0.45-2.75m0.45 13.35-0.05-0.05v0.05l-0.65 3.5m1.9-3.35-1.2-0.15m1.2 0.15q8.15 1.4 15.9 8.1l0.5 1.9m0.75 12.55-0.65-2q-7.9-6.85-16.7-8.8l-1-0.2v-0.05l-0.6 2.25m1.7 10.15-1.4-0.4-0.95 3.2m2.35-2.8q0.45 0.1 0.95 0.3 8.45 2.7 16.75 8.6l0.35 3.25m-11.8 6.75 0.35-0.1q0.9-0.25 1.8 0l1.05 0.4 0.85 0.65q0.65 0.65 0.95 1.65 0.4 1.5-0.45 2.9-0.75 1.35-2.25 1.75t-2.9-0.4q-1.35-0.8-1.75-2.3-0.25-1 0-1.95l0.4-0.95q0.7-1.2 1.95-1.65m12.55 4.95-0.1-1.9q-10.25-6.65-20.75-9.75l-0.15 2" fill="none" stroke="#000" stroke-linecap="round" stroke-linejoin="round" stroke-opacity=".4" stroke-width=".05"/>
</g>
<linearGradient id="m" x1="-819.2" x2="819.2" gradientTransform="matrix(.0384 -.0665 .0248 .0143 -50.8 103.75)" gradientUnits="userSpaceOnUse">
<stop stop-color="#e7d030" offset="0"/>
<stop stop-color="#f9f4e3" offset="1"/>
</linearGradient>
<linearGradient id="l" x1="-819.2" x2="819.2" gradientTransform="matrix(.0314 -.0083 .0119 .0449 -33.1 106.85)" gradientUnits="userSpaceOnUse">
<stop stop-color="#ceac22" offset="0"/>
<stop stop-color="#685717" offset=".37647"/>
<stop stop-color="#e9da9e" offset=".97255"/>
</linearGradient>
<linearGradient id="j" x1="-819.2" x2="819.2" gradientTransform="matrix(-.0106 -.0184 .038 -.0218 -48 41.4)" gradientUnits="userSpaceOnUse">
<stop stop-color="#68bcce" offset="0"/>
<stop stop-color="#e6f5f7" offset="1"/>
</linearGradient>
<linearGradient id="i" x1="-819.2" x2="819.2" gradientTransform="matrix(0 .0528 -.0171 0 -25.4 131.05)" gradientUnits="userSpaceOnUse">
<stop stop-color="#639" offset="0"/>
<stop stop-color="#331a26" offset="1"/>
</linearGradient>
<linearGradient id="h" x1="-819.2" x2="819.2" gradientTransform="matrix(0 .053 -.014 0 -25.5 134.6)" gradientUnits="userSpaceOnUse">
<stop stop-color="#945fc9" offset="0"/>
<stop stop-color="#773c59" offset="1"/>
</linearGradient>
<linearGradient id="g" x1="-819.2" x2="819.2" gradientTransform="matrix(.0141 -.0037 .0029 .0108 -19.95 189.7)" gradientUnits="userSpaceOnUse">
<stop stop-color="#ceac22" offset="0"/>
<stop stop-color="#685717" offset=".37647"/>
<stop stop-color="#e9da9e" offset=".97255"/>
</linearGradient>
<linearGradient id="f" x1="-819.2" x2="819.2" gradientTransform="matrix(0 -.0054 .0058 0 -24.55 189.3)" gradientUnits="userSpaceOnUse">
<stop stop-color="#e7d030" offset="0"/>
<stop stop-color="#f9f4e3" offset="1"/>
</linearGradient>
<linearGradient id="e" x1="-819.2" x2="819.2" gradientTransform="matrix(0 -.0064 .0041 0 -33.2 186.55)" gradientUnits="userSpaceOnUse">
<stop stop-color="#e7d030" offset="0"/>
<stop stop-color="#f9f4e3" offset="1"/>
</linearGradient>
<linearGradient id="d" x1="-819.2" x2="819.2" gradientTransform="matrix(-.0342 .1294 -.1073 -.0284 -.8 -60.95)" gradientUnits="userSpaceOnUse">
<stop stop-color="#94cfdc" offset="0"/>
<stop stop-color="#fff" offset="1"/>
</linearGradient>
<linearGradient id="c" x1="-819.2" x2="819.2" gradientTransform="matrix(.0202 -.0761 .1098 .0291 -16.45 -1.45)" gradientUnits="userSpaceOnUse">
<stop stop-color="#fff" offset="0"/>
<stop stop-color="#c4dde3" offset="1"/>
</linearGradient>
<linearGradient id="k" x1="-819.2" x2="819.2" gradientTransform="matrix(-.0363 .0996 -.0704 -.0257 18.5 -50.8)" gradientUnits="userSpaceOnUse">
<stop stop-color="#284e6b" offset="0"/>
<stop stop-color="#338c9f" offset="1"/>
</linearGradient>
</defs>
</svg>
