<?xml version="1.0" encoding="UTF-8"?>
<svg version="1.1" viewBox="0 0 75.241 107.68" xmlns="http://www.w3.org/2000/svg" xmlns:cc="http://creativecommons.org/ns#" xmlns:dc="http://purl.org/dc/elements/1.1/" xmlns:rdf="http://www.w3.org/1999/02/22-rdf-syntax-ns#" xmlns:xlink="http://www.w3.org/1999/xlink">
<metadata>
<rdf:RDF>
<cc:Work rdf:about="">
<dc:format>image/svg+xml</dc:format>
<dc:type rdf:resource="http://purl.org/dc/dcmitype/StillImage"/>
</cc:Work>
</rdf:RDF>
</metadata>
<g transform="translate(-237.36 -146.1)">
<use transform="translate(237.35,146.1)" width="75.25" height="107.7" xlink:href="#a"/>
</g>
<defs>
<g id="a" transform="translate(37.65,53.85)">
<use transform="translate(-37.65,-53.85)" width="75.25" height="107.7" xlink:href="#b"/>
</g>
<g id="b" transform="translate(37.65,53.85)">
<path d="m4.05-13.2 0.15-0.3q2.35-5.65 0.75-12-1.65-6.35-6.3-9.6-4.65-3.2-9.65-1.5l-0.05 0.05-1.85-3.1 7-2.35q-10.45 1.5-20.9-0.6l1.65 1.6 6.55 12.4v0.05q-2.05 5.35-0.5 11.35l0.05 0.3v-0.3q-0.3-3.15 0.9-6l1.15-2.05 0.05 0.05 4.95 6.75-2.75 0.4q-2.15 0.7-2.75 2.55t0.7 3.7q1.25 1.8 3.7 2.55 2.35 0.75 4.5 0 2.1-0.75 2.75-2.6l0.05-0.1-0.1 0.05q-0.5 0.8-1.55 1.25-1.45 0.5-3.05 0-1.65-0.55-2.55-1.8-0.85-1.25-0.45-2.45 0.45-1.3 1.9-1.8l0.6-0.2 7.85 5q-1.6 3.3-4.7 4.4-2.5 0.85-4.9-0.1 4.65 3.15 9.6 1.5 3-1.05 5.05-3.55l8.1 3.05-5.95-6.6m15.75 16.6 1.05 2.15-2.7 2.75-6.15 1q-2.4-2-5.85-2.35-0.8-2.95-4.25-4.95h-2.45l-2.4 2.7v7l-3.65 2.95-4.95 1.7 2 1.65-5.55 0.35-3.25-20.95q0.1 0.55 0.55 1 0.55 0.55 1.35 0.55t1.35-0.55q0.6-0.6 0.6-1.4t-0.6-1.35q-0.55-0.55-1.35-0.55t-1.35 0.55q-0.6 0.55-0.6 1.35l-10.35-41.5-2.05-1.9q3.75 1.3 8.05 2l13.85-3.05 2.1-0.8q2.5-1.2 3-3.05-1.1-0.25-2.65 1.25l-2.15 0.55q1.85-3.55 4.8-3.85h2.4q4.8 0.8 5.45 7.45 4.4 26.35 15.75 49.3m-29.5-46.9 6.75-2.1 1.95-4.25q-1.35 2.1-6.25 3.25l-9.65 2.95q3.45 0.2 7.2 0.15m-7.2-0.15-5.85-0.75 5.85 0.75m9.65 51.25q-0.8 0-1.35 0.55-0.6 0.55-0.6 1.35t0.6 1.4q0.55 0.55 1.35 0.55t1.35-0.55q0.6-0.6 0.6-1.4t-0.6-1.35q-0.55-0.55-1.35-0.55" fill="url(#m)" fill-rule="evenodd"/>
<path d="m-11.05-36.55 0.05-0.05q5-1.7 9.65 1.5 4.65 3.25 6.3 9.6 1.6 6.35-0.75 12l-0.15 0.3-6.35-7.45h-0.05l-0.05-0.05q-1.1-4.25-4.25-6.45l-1.9-1q-2.85-3.2-2.5-8.4m12.95 26.9q-2.05 2.5-5.05 3.55-4.95 1.65-9.6-1.5 2.4 0.95 4.9 0.1 3.1-1.1 4.7-4.4l5.05 2.25m-18.9-15.6-1.15 2.05q-1.2 2.85-0.9 6h-0.05q-1.55-6 0.5-11.35l1.6 3.3" fill="url(#l)" fill-rule="evenodd"/>
<path d="m4.05-13.2 5.95 6.6-8.1-3.05q1.25-1.5 2.15-3.55m-7.2 1.3-7.85-5 2.4 0.2 2.05 1.15q-1.3-1.85-3.7-2.6l-1.75-0.3-4.95-6.75-0.05-0.05q1.5-2.1 3.85-2.9 2.3-0.8 4.55 0v0.05l6.2 7.4 0.05 0.05q1.05 4.3-0.55 8.15l-0.25 0.6m-15.45-16.7-6.55-12.4-1.65-1.6q10.45 2.1 20.9 0.6l-7 2.35 1.85 3.1q-4.95 1.7-7.3 7.3l-0.25 0.65m0.85 44.5q-4.15-26.3-12.85-56.35l-0.95-2.15q-1.5-2.75-3.8-3.3l-1.65 2.95q-0.3-1.05 0.05-2.95l1.6-2.35q2.15 1 4.55 1.85l2.05 1.9 10.35 41.5v0.25l0.05 0.1v0.05l3.25 20.95 5.55-0.35-2-1.65 4.95-1.7 3.65-2.95v-7l2.4-2.7v3.85l-1.45 7.2-4.9 6.45-5.5 1.7q-1.1-0.85-2.45-1.25l-2.4-0.45-0.5-3.6m10.95-64.15-1.8-1.25 2.15-0.55q1.55-1.5 2.65-1.25-0.5 1.85-3 3.05m-10.1 4.6 9.65-2.95q4.9-1.15 6.25-3.25l-1.95 4.25-6.75 2.1q-3.75 0.05-7.2-0.15" fill="#f07b06" fill-rule="evenodd"/>
<path d="m-18.6-28.55v-0.05l0.25-0.65q2.35-5.6 7.3-7.3-0.35 5.2 2.5 8.4h-0.05q-2.25-0.8-4.55 0-2.35 0.8-3.85 2.9l-1.6-3.3m16.25 7.9h0.05l6.35 7.45q-0.9 2.05-2.15 3.55l-5.05-2.25 0.25-0.6q1.6-3.85 0.55-8.15m-9.65 2.2 1.75 0.3q2.4 0.75 3.7 2.6l-2.05-1.15-2.4-0.2-1-1.55" fill="#7e2323" fill-rule="evenodd"/>
<path d="m-8.55-28.15 1.9 1q3.15 2.2 4.25 6.45l-6.2-7.4 0.05-0.05" fill="#faa430" fill-rule="evenodd"/>
<path d="m-31.55-42.6-5.45-0.35 1.65-2.95q2.3 0.55 3.8 3.3" fill="#b74b04" fill-rule="evenodd"/>
<path d="m-11-16.9-0.6 0.2q-1.45 0.5-1.9 1.8-0.4 1.2 0.45 2.45 0.9 1.25 2.55 1.8 1.6 0.5 3.05 0 1.05-0.45 1.55-1.25l0.05 0.05q-0.65 1.85-2.75 2.6-2.15 0.75-4.5 0-2.45-0.75-3.7-2.55-1.3-1.85-0.7-3.7t2.75-2.55l2.75-0.4 1 1.55" fill="url(#j)" fill-rule="evenodd"/>
<path d="m-18.4-3q0-0.8 0.6-1.35 0.55-0.55 1.35-0.55t1.35 0.55q0.6 0.55 0.6 1.35t-0.6 1.4q-0.55 0.55-1.35 0.55t-1.35-0.55q-0.45-0.45-0.55-1v-0.05l-0.05-0.1v-0.25" fill="url(#i)" fill-rule="evenodd"/>
<path d="m22.6 6.95-0.3 1.8q0.85 3.9 0.15 6.75 1.95 3.6 1.05 6.65-0.6-2.45-2.5-3.35 1.9 0.9 2.5 3.35 0.9-3.05-1.05-6.65 0.7-2.85-0.15-6.75l0.3-1.8 2.3 3.35q1.65 2.5 1.8 4.1l-0.1 0.95 1.6 8.25-2.1 1.5-2.6-2.95 0.1 6.4q-0.55 5.25-3.3 2.3l-3.05-4.6-5.7-2.5q-0.85-2.5-2.35-4.65 1.5 2.15 2.35 4.65l0.4 1.35v4.35l0.35 1.7-2 5.7h-2.3l-4.6 4.3h-5.35v-5.6l-3.8-2.8 0.6 1.3-3.1 7.1q-2.8 4.75-5.6 2.35l-3.05-4.65v5.3q-0.75 2.5-1.05-3.7l-1.1-6.15-0.5-2v-3.25l0.95-4-1.45-3.6 0.6-4.6 1.7-0.95 0.5 3.6 2.4 0.45q1.35 0.4 2.45 1.25l5.5-1.7 4.9-6.45 1.45-7.2v-3.85h2.45q3.45 2 4.25 4.95 3.45 0.35 5.85 2.35l6.15-1 2.7-2.75-1.05-2.15q1.8-0.5 3.05 1.75l-0.25 1.8m-9.5 3.35-1.1-1 1.1 1m17.65 10.95 3.35 1.45v1.4l-0.6 3.2-2.6 1.4-1-3q1-1.4 0.85-4.45m-24.4-13.5-0.2-0.8 0.2 0.8" fill="#f3e6d7" fill-rule="evenodd"/>
<path d="m-7.25 7.6q0.8 0 1.35 0.55 0.6 0.55 0.6 1.35t-0.6 1.4q-0.55 0.55-1.35 0.55t-1.35-0.55q-0.6-0.6-0.6-1.4t0.6-1.35q0.55-0.55 1.35-0.55" fill="url(#h)" fill-rule="evenodd"/>
<path d="m3.65 45.8q-1.45 1.45-3.9 2.45l-5.75 1.45-4.35-0.6 3.05-1.7q3.05-3.45 2.15-6.9 1.1-3.25 0-6.45l-0.6-1.3 3.8 2.8v5.6h5.35l4.6-4.3h2.3l2-5.7 0.35 1.75q0.45 3.9-1.4 6.9-1.85 3.25-6.5 4.6l-1.1 1.4" fill="url(#g)" fill-rule="evenodd"/>
<path d="m-10.35 49.1-3 1.75-1.65 1.8q-2.3 1.5-3.55-0.3-2.25-1.5-1.85-3.25l0.85-2.4 0.5-12.4 1.1 6.15q0.3 6.2 1.05 3.7v-5.3l3.05 4.65q2.8 2.4 5.6-2.35l3.1-7.1q1.1 3.2 0 6.45 0.9 3.45-2.15 6.9l-3.05 1.7m-8.55-0.4-0.65-2 0.65 2" fill="url(#f)" fill-rule="evenodd"/>
<path d="m26.7 14.4q3.55 3.4 4.05 6.85 0.15 3.05-0.85 4.45l1 3-0.25 2.8q-0.8-0.4-1.9-0.65l-1.55-4.15-1.1-1.6 2.1-1.5-1.6-8.25 0.1-0.95" fill="url(#e)" fill-rule="evenodd"/>
<path d="m31.2 35.35q-1.15 0.75-3 1.25h-4.45l-2.6 2.3-3.95 0.75 0.95-1.35 0.05-0.55q0.2-2.6-2.35-4.3l-0.6-2.7q-0.8-2.9-3.3-3.45v-2.2l-0.4-1.35 5.7 2.5 3.05 4.6q2.75 2.95 3.3-2.3l-0.1-6.4 2.6 2.95 1.1 1.6 1.55 4.15q1.1 0.25 1.9 0.65 1.6 0.75 2.15 1.95-0.5 1.1-1.6 1.9" fill="url(#d)" fill-rule="evenodd"/>
<path d="m17.2 39.65q-2.75 3.4-8 5.45l-5.55 0.7 1.1-1.4q4.65-1.35 6.5-4.6 1.85-3 1.4-6.9l-0.35-1.75-0.35-1.7v-2.15q2.5 0.55 3.3 3.45l0.6 2.7q2.55 1.7 2.35 4.3l-0.05 0.55-0.95 1.35" fill="url(#c)" fill-rule="evenodd"/>
<path d="m34.1 24.1 2.3 3.45 0.7 3.3-3.75 4.35-2.15 0.15q1.1-0.8 1.6-1.9-0.55-1.2-2.15-1.95l0.25-2.8 2.6-1.4 0.6-3.2" fill="url(#k)" fill-rule="evenodd"/>
<path d="m-11.05-36.55 0.05-0.05q5-1.7 9.65 1.5 4.65 3.25 6.3 9.6 1.6 6.35-0.75 12l-0.15 0.3q-0.9 2.05-2.15 3.55-2.05 2.5-5.05 3.55-4.95 1.65-9.6-1.5 2.4 0.95 4.9 0.1 3.1-1.1 4.7-4.4l0.25-0.6q1.6-3.85 0.55-8.15m-8.65 3.75-0.6 0.2q-1.45 0.5-1.9 1.8-0.4 1.2 0.45 2.45 0.9 1.25 2.55 1.8 1.6 0.5 3.05 0 1.05-0.45 1.55-1.25l0.1-0.05-0.05 0.1q-0.65 1.85-2.75 2.6-2.15 0.75-4.5 0-2.45-0.75-3.7-2.55-1.3-1.85-0.7-3.7t2.75-2.55l2.75-0.4 1.75 0.3q2.4 0.75 3.7 2.6l-2.05-1.15-2.4-0.2m-6-8.35-1.15 2.05q-1.2 2.85-0.9 6v0.3l-0.05-0.3q-1.55-6 0.5-11.35v-0.05m10.05 0.45 1.9 1q3.15 2.2 4.25 6.45l0.05 0.05m23.35 39.45q1.9 0.9 2.5 3.35 0.9-3.05-1.05-6.65 0.7-2.85-0.15-6.75l0.3-1.8 0.25-1.8q-1.25-2.25-3.05-1.75l1.05 2.15-2.7 2.75-6.15 1 1.1 1m9.5-3.35 2.3 3.35q1.65 2.5 1.8 4.1 3.55 3.4 4.05 6.85l3.35 1.45v1.4l2.3 3.45 0.7 3.3-3.75 4.35-2.15 0.15q-1.15 0.75-3 1.25h-4.45l-2.6 2.3-3.95 0.75q-2.75 3.4-8 5.45l-5.55 0.7q-1.45 1.45-3.9 2.45l-5.75 1.45-4.35-0.6-3 1.75-1.65 1.8q-2.3 1.5-3.55-0.3-2.25-1.5-1.85-3.25l0.85-2.4 0.5-12.4-0.5-2v-3.25l0.95-4-1.45-3.6 0.6-4.6 1.7-0.95q-4.15-26.3-12.85-56.35l-0.95-2.15-5.45-0.35q-0.3-1.05 0.05-2.95l1.6-2.35q2.15 1 4.55 1.85 3.75 1.3 8.05 2l13.85-3.05 2.1-0.8-1.8-1.25q1.85-3.55 4.8-3.85h2.4q4.8 0.8 5.45 7.45 4.4 26.35 15.75 49.3m6.9 11-0.1 0.95m-0.5 9.75 1.1 1.6 1.55 4.15q1.1 0.25 1.9 0.65l0.25-2.8-1-3q1-1.4 0.85-4.45m-24.6-14.3 0.2 0.8m5.2 16q-0.85-2.5-2.35-4.65m-9.75-17.1h2.45q3.45 2 4.25 4.95 3.45 0.35 5.85 2.35m-0.05 18q2.5 0.55 3.3 3.45l0.6 2.7q2.55 1.7 2.35 4.3l-0.05 0.55-0.95 1.35m-4.9-8.5-0.35-1.7v-4.35l-0.4-1.35m11.95-1.6 2.6 2.95m-13.8 6.05 0.35 1.75q0.45 3.9-1.4 6.9-1.85 3.25-6.5 4.6l-1.1 1.4m27.55-10.45q1.1-0.8 1.6-1.9-0.55-1.2-2.15-1.95m-37.45-79.75q2.5-1.2 3-3.05-1.1-0.25-2.65 1.25m-10.45 6.4q3.45 0.2 7.2 0.15m-1.35 6.95q-4.95 1.7-7.3 7.3l-0.25 0.65m1.6 3.35q1.5-2.1 3.85-2.9 2.3-0.8 4.55 0h0.05m-26.8-17.75q2.3 0.55 3.8 3.3m13.15 39.6q0-0.8 0.6-1.35 0.55-0.55 1.35-0.55t1.35 0.55q0.6 0.55 0.6 1.35t-0.6 1.4q-0.55 0.55-1.35 0.55t-1.35-0.55q-0.45-0.45-0.55-1m17.8 4.6v3.85l-1.45 7.2-4.9 6.45-5.5 1.7q-1.1-0.85-2.45-1.25l-2.4-0.45-0.5-3.6m-0.65-18.65v-0.25m-4.35-41.4 5.85 0.75m9.65 51.25q0.8 0 1.35 0.55 0.6 0.55 0.6 1.35t-0.6 1.4q-0.55 0.55-1.35 0.55t-1.35-0.55q-0.6-0.6-0.6-1.4t0.6-1.35q0.55-0.55 1.35-0.55m2.1 26.45-0.6-1.3m-13.8 13.95 0.65 2m8.55 0.4 3.05-1.7q3.05-3.45 2.15-6.9 1.1-3.25 0-6.45" fill="none" stroke="#000" stroke-linecap="round" stroke-linejoin="round" stroke-opacity=".38824" stroke-width=".5"/>
<path d="m-1.4-53.35q4.8 0.8 5.45 7.45 4.4 26.35 15.75 49.3 1.8-0.5 3.05 1.75l-0.25 1.8 2.3 3.35q1.65 2.5 1.8 4.1 3.55 3.4 4.05 6.85l3.35 1.45v1.4l2.3 3.45 0.7 3.3-3.75 4.35-2.15 0.15q-1.15 0.75-3 1.25h-4.45l-2.6 2.3-3.95 0.75q-2.75 3.4-8 5.45l-5.55 0.7q-1.45 1.45-3.9 2.45l-5.75 1.45-4.35-0.6-3 1.75-1.65 1.8q-2.3 1.5-3.55-0.3-2.25-1.5-1.85-3.25l0.85-2.4 0.5-12.4-0.5-2v-3.25l0.95-4-1.45-3.6 0.6-4.6 1.7-0.95q-4.15-26.3-12.85-56.35l-0.95-2.15-5.45-0.35q-0.3-1.05 0.05-2.95l1.6-2.35q2.15 1 4.55 1.85 3.75 1.3 8.05 2l13.85-3.05 2.1-0.8-1.8-1.25q1.85-3.55 4.8-3.85z" fill="none" stroke="#000" stroke-linecap="round" stroke-linejoin="round" stroke-opacity=".4"/>
</g>
<linearGradient id="m" x1="-819.2" x2="819.2" gradientTransform="matrix(-.0085 -.0317 .0224 -.006 -5.75 -20.55)" gradientUnits="userSpaceOnUse">
<stop stop-color="#faa430" offset="0"/>
<stop stop-color="#f9bd6b" offset="1"/>
</linearGradient>
<linearGradient id="l" x1="-819.2" x2="819.2" gradientTransform="matrix(.0086 .0149 -.0136 .0079 -5.55 -19.45)" gradientUnits="userSpaceOnUse">
<stop stop-color="#bf3e38" offset="0"/>
<stop stop-color="#7e2323" offset="1"/>
</linearGradient>
<linearGradient id="j" x1="-819.2" x2="819.2" gradientTransform="matrix(.0044 .0077 -.0057 .0033 -9.9 -10.55)" gradientUnits="userSpaceOnUse">
<stop stop-color="#bf3e38" offset="0"/>
<stop stop-color="#7e2323" offset="1"/>
</linearGradient>
<linearGradient id="i" x1="-819.2" x2="819.2" gradientTransform="matrix(.0012 .0021 -.0021 .0012 -16.45 -3)" gradientUnits="userSpaceOnUse">
<stop stop-color="#bf3e38" offset="0"/>
<stop stop-color="#7e2323" offset="1"/>
</linearGradient>
<linearGradient id="h" x1="-819.2" x2="819.2" gradientTransform="matrix(.0012 .0021 -.0021 .0012 -7.35 9.5)" gradientUnits="userSpaceOnUse">
<stop stop-color="#bf3e38" offset="0"/>
<stop stop-color="#7e2323" offset="1"/>
</linearGradient>
<linearGradient id="g" x1="-819.2" x2="819.2" gradientTransform="matrix(.0042 -.0073 .0096 .0056 .45 40.2)" gradientUnits="userSpaceOnUse">
<stop stop-color="#e0b78d" offset="0"/>
<stop stop-color="#e9d1af" offset="1"/>
</linearGradient>
<linearGradient id="f" x1="-819.2" x2="819.2" gradientTransform="matrix(.0064 -.011 .0102 .0059 -11.35 35.6)" gradientUnits="userSpaceOnUse">
<stop stop-color="#e0b78d" offset="0"/>
<stop stop-color="#e9d1af" offset="1"/>
</linearGradient>
<linearGradient id="e" x1="-819.2" x2="819.2" gradientTransform="matrix(0 -.0142 .0029 0 28.45 16.35)" gradientUnits="userSpaceOnUse">
<stop stop-color="#e0b78d" offset="0"/>
<stop stop-color="#e9d1af" offset="1"/>
</linearGradient>
<linearGradient id="d" x1="-819.2" x2="819.2" gradientTransform="matrix(0 -.0091 .0129 0 22.15 25.45)" gradientUnits="userSpaceOnUse">
<stop stop-color="#e0b78d" offset="0"/>
<stop stop-color="#e9d1af" offset="1"/>
</linearGradient>
<linearGradient id="c" x1="-819.2" x2="819.2" gradientTransform="matrix(.0023 -.0087 .0071 .0019 13.45 32.65)" gradientUnits="userSpaceOnUse">
<stop stop-color="#e0b78d" offset="0"/>
<stop stop-color="#e9d1af" offset="1"/>
</linearGradient>
<linearGradient id="k" x1="-819.2" x2="819.2" gradientTransform="matrix(0 -.002 .004 0 33.85 30.85)" gradientUnits="userSpaceOnUse">
<stop stop-color="#e0b78d" offset="0"/>
<stop stop-color="#e9d1af" offset="1"/>
</linearGradient>
</defs>
</svg>
