<?xml version="1.0" encoding="UTF-8"?>
<svg version="1.1" viewBox="0 0 200.85 275.82" xmlns="http://www.w3.org/2000/svg" xmlns:cc="http://creativecommons.org/ns#" xmlns:dc="http://purl.org/dc/elements/1.1/" xmlns:rdf="http://www.w3.org/1999/02/22-rdf-syntax-ns#" xmlns:xlink="http://www.w3.org/1999/xlink">
<metadata>
<rdf:RDF>
<cc:Work rdf:about="">
<dc:format>image/svg+xml</dc:format>
<dc:type rdf:resource="http://purl.org/dc/dcmitype/StillImage"/>
</cc:Work>
</rdf:RDF>
</metadata>
<g transform="translate(-174.52 -5.554)">
<use transform="translate(174.55,35.65)" width="134.8" height="212.60001" xlink:href="#a"/>
<use transform="translate(222.15,5.6)" width="153.2" height="275.75" xlink:href="#b"/>
</g>
<defs>
<g id="a" transform="translate(67.4,106.3)">
<use transform="translate(-67.4,-106.3)" width="134.8" height="212.60001" xlink:href="#c"/>
</g>
<g id="c" transform="translate(67.4,106.3)">
<path d="m-32.2-82.8q-1.2-2.95-3.15-6.25-3.75-4.15 14.1-11.95 36.75-9.45 63.7-2.1l5.25 5.3-0.55 5q-11.25 9.45-28.3 9.75 8.6 8.8 2.45 20.05h-4.2q-3.4 0.1-2.85 2.85l1.05 2.25-7.7-0.5q5.15 9.3 3.15 16.9 9.6 8.6 2.1 27.45 5.75 14.45 0.35 27.45l2.85 2.45q2.5 9.25-3.2 15.75h-9.65q4.4 1.15 6.15 2.05 2.35 1.1 0 1.7l-6.35 0.55q-10.05-3.4-24.65-2.2 1.1-2.05 4.05-3.1 1.75-2.05 2.25-4h9.2l-1.05-2.65 3.9-3.5q-5.3-7.3-3.95-12.7 0.4-1.65 1.45-3.15-5.1-17.45-2.1-22.2-8.3-16.15-4.2-26.75-7.35-10.8-7.05-15.8l-7.3-2.85 0.25-4.2-2.05-2.55q-1-0.4-1.8-0.9 0.15-4.75-0.75-8l-1.4-4.15m5.3 13.5-1.35-0.45 1.35 0.45m9.15-28.15q-9.35 0.95-11.25 8.05 0.65 1.65 6.65 3.3 6.05 1.6 6.05 8.45 0 6.8 7 15 2.85 1.4 4.85-0.4 4.45-4.15 4.3-20.7l3.85-1.75q18.45 0.6 31.7-5.3 10.25-4.25-0.7-8.8-23.1-5.95-52.45 2.15m10.55 126.7q-6.65 0-10.4 1.35 3.75-1.35 10.4-1.35" fill="url(#q)" fill-rule="evenodd"/>
<path d="m34.7-99.6q10.95 4.55 0.7 8.8-13.25 5.9-31.7 5.3l-3.85 1.75q0.15 16.55-4.3 20.7-2 1.8-4.85 0.4-7-8.2-7-15 0-6.85-6.05-8.45-6-1.65-6.65-3.3 1.9-7.1 11.25-8.05 29.35-8.1 52.45-2.15" fill="url(#p)" fill-rule="evenodd"/>
<path d="m47.15-92.8q-0.5 4.7-0.6 8.7l-0.05 1.8q-0.05 7.5 2.05 13.7-2.95 4.25-8.25 5.6h-19q6.15-11.25-2.45-20.05 17.05-0.3 28.3-9.75" fill="url(#k)" fill-rule="evenodd"/>
<path d="m46.55-84.1h6.45q2.05 2.3 3.05 4.9l-2.7 11.65q-5 7.3-13.4 10.2l-18.3-1.75q2.2 8.15-6.3 14.4 2.6-6.2-0.05-13.2l-1.05-2.25q-0.55-2.75 2.85-2.85h23.2q5.3-1.35 8.25-5.6 1.25-1.85 2.15-4.3 3.35-9.35-4.2-9.4l0.05-1.8m-61.85 107.35q-9.2-1.9-6.3-6 3.55-3.35 4.35-9.5l0.2-2.8-2.45-3.5 1.75-5.65v-11.25q-6.15-26-15.15-48.25-4.15-7.75-4.9-15.45l5.6-3.65 1.4 4.15q-2.2-0.35-3.15 1.95 0.7 4.05 3.9 6.05 0.8 0.5 1.8 0.9l2.05 2.55-0.25 4.2q0.2 8.35 6.25 14.45 0.4 15.95 6.3 27.45-2.95 13.05 1.45 23.6-0.6 2.75-0.6 5.25-0.15 7.25 4.1 12.35l-4.25 3.5-2.1-0.35m35.35-61q9.8 7.6 9.7 15.25l-2.8 9.15 10.2 8.1q6.95 9.15 0 8.45-6.9-12-16.45-17.4l-0.8-2.3q4-12.4 0.15-21.25m1.8 28q6.7 4.95 9.3 14l-5.25 7.4 11.95 12.3q1.9 6.35-3.5 4.25l-8.5-13.4q2.45 9.15 0 15.85l-1.95 3.4-5.4-1.65q6.35-11.85 0-21.1 5.6-9.35 3.35-21.05m12.5-25.8-13.35-8.2 14.75 4.7q4.45 4.3-1.4 3.5" fill="#aaa614" fill-rule="evenodd"/>
<path d="m-30.8-78.65q0.9 3.25 0.75 8-3.2-2-3.9-6.05 0.95-2.3 3.15-1.95m77.3-3.65q7.55 0.05 4.2 9.4-0.9 2.45-2.15 4.3-2.1-6.2-2.05-13.7" fill="#817800" fill-rule="evenodd"/>
<path d="m56.05-79.2q1 2.65 0.8 5.65 0 39.55 5.3 71.8l2.1 1.4q2.25 4.55-1.05 5.3l4.2 10.9q-5 7.1-10.75 11.6-14.15 11-32.75 6.6l1.95-3.4q2.45-6.7 0-15.85l8.5 13.4q5.4 2.1 3.5-4.25l-11.95-12.3 5.25-7.4q-2.6-9.05-9.3-14l-1.15-4.45q9.55 5.4 16.45 17.4 6.95 0.7 0-8.45l-10.2-8.1 2.8-9.15q0.1-7.65-9.7-15.25-1.7-3.75-4.7-6.95 8.5-6.25 6.3-14.4l18.3 1.75q8.4-2.9 13.4-10.2l2.7-11.65m-21.7 43.65q5.85 0.8 1.4-3.5l-14.75-4.7 13.35 8.2m14.75 58.1q13.55-19.85 11.65-20.05l-10.95 12.3 10.95-12.3q1.9 0.2-11.65 20.05" fill="url(#j)" fill-rule="evenodd"/>
<path d="m56.65 27.45q1 8.55 0.15 16.65-8.2 22.55-23.5 21.4-2.8-2.85-6.7 0-6.7 11.8-17.25 20.95-4.9 4.2-10.55 7.9-4.3 3.35-8.8 2.45-22.75-14.45-40.65-17.6l-1.6-0.25q-7.9-1.2-14.55-0.05-0.65-5-0.6-10.25 8.15-15 13.75-16.2l1.4 0.5q60.8 20.75 60.2-0.5 0.05-4.75-4.95-9.5-12.1-7.45-25.35-7.05 0.1-1.2 0.7-2.2 14.6-1.2 24.65 2.2l6.35-0.55q2.35-0.6 0-1.7-1.75-0.9-6.15-2.05h9.65q5.7-6.5 3.2-15.75l-2.85-2.45q5.4-13-0.35-27.45 7.5-18.85-2.1-27.45 2-7.6-3.15-16.9l7.7 0.5q2.65 7 0.05 13.2 3 3.2 4.7 6.95 3.85 8.85-0.15 21.25l0.8 2.3 1.15 4.45q2.25 11.7-3.35 21.05 6.35 9.25 0 21.1l5.4 1.65q18.6 4.4 32.75-6.6" fill="url(#i)" fill-rule="evenodd"/>
<path d="m56.8 44.1q-0.85 8.5-3.8 16.45-4.95 16.45-22.2 13.75v-2.5q-5.8 2.2-7 6.7-6.25 12.55-14.45 19.9-6 5.3-13 7.9h-1.1q-2.15-5.6-5.6-0.1-9.9-0.35-18.65-1.7-1.15-5.4-3.55-0.6-10.25-2-18.8-5.5 11.9-0.75 0.7-19.2 17.9 3.15 40.65 17.6 4.5 0.9 8.8-2.45 5.65-3.7 10.55-7.9 10.55-9.15 17.25-20.95 3.9-2.85 6.7 0 15.3 1.15 23.5-21.4" fill="#9c7c00" fill-rule="evenodd"/>
<path d="m-15.35 26.6q0.45-1.7 0.05-3.35l2.1 0.35 4.25-3.5q-4.25-5.1-4.1-12.35 0-2.5 0.6-5.25-4.4-10.55-1.45-23.6-5.9-11.5-6.3-27.45-6.05-6.1-6.25-14.45l7.3 2.85q-0.3 5 7.05 15.8-4.1 10.6 4.2 26.75-3 4.75 2.1 22.2-1.05 1.5-1.45 3.15-1.35 5.4 3.95 12.7l-3.9 3.5 1.05 2.65h-9.2" fill="url(#h)" fill-rule="evenodd"/>
<path d="m-67.4 68.65q2.9-12.95 10.95-20.75 2.1-1.4 4.2-2.65 15.6-9.3 29.9-9.35 13.25-0.4 25.35 7.05 5 4.75 4.95 9.5 0.6 21.25-60.2 0.5l-1.4-0.5q-5.6 1.2-13.75 16.2" fill="url(#g)" fill-rule="evenodd"/>
<path d="m-51.35 98.4-0.9-0.35-2.05-0.95q0.4-4.85-4.1-2l-5.45-3.2q-2.1-6.3-2.95-13 6.65-1.15 14.55 0.05l1.6 0.25q11.2 18.45-0.7 19.2" fill="#b48e00" fill-rule="evenodd"/>
<path d="m-32.2-82.8q-1.2-2.95-3.15-6.25-3.75-4.15 14.1-11.95 36.75-9.45 63.7-2.1l5.25 5.3-0.55 5q-0.5 4.7-0.6 8.7h6.45q2.05 2.3 3.05 4.9 1 2.65 0.8 5.65 0 39.55 5.3 71.8l2.1 1.4q2.25 4.55-1.05 5.3l4.2 10.9q-5 7.1-10.75 11.6 1 8.55 0.15 16.65-0.85 8.5-3.8 16.45-4.95 16.45-22.2 13.75v-2.5q-5.8 2.2-7 6.7-6.25 12.55-14.45 19.9-6 5.3-13 7.9h-1.1q-2.15-5.6-5.6-0.1-9.9-0.35-18.65-1.7-1.15-5.4-3.55-0.6-10.25-2-18.8-5.5l-0.9-0.35-2.05-0.95q0.4-4.85-4.1-2l-5.45-3.2q-2.1-6.3-2.95-13-0.65-5-0.6-10.25 2.9-12.95 10.95-20.75 2.1-1.4 4.2-2.65 15.6-9.3 29.9-9.35 0.1-1.2 0.7-2.2 1.1-2.05 4.05-3.1 1.75-2.05 2.25-4 0.45-1.7 0.05-3.35-9.2-1.9-6.3-6 3.55-3.35 4.35-9.5l0.2-2.8-2.45-3.5 1.75-5.65v-11.25q-6.15-26-15.15-48.25-4.15-7.75-4.9-15.45l5.6-3.65 1.4 4.15q0.9 3.25 0.75 8 0.8 0.5 1.8 0.9l1.35 0.45m73.45-14.8-0.05 1.8q7.55 0.05 4.2 9.4-0.9 2.45-2.15 4.3-2.95 4.25-8.25 5.6h-23.2q-3.4 0.1-2.85 2.85l1.05 2.25q2.65 7 0.05 13.2m-33.1-52.75q-9.35 0.95-11.25 8.05 0.65 1.65 6.65 3.3 6.05 1.6 6.05 8.45 0 6.8 7 15 2.85 1.4 4.85-0.4 4.45-4.15 4.3-20.7l3.85-1.75q18.45 0.6 31.7-5.3 10.25-4.25-0.7-8.8m-14 85.4 1.15 4.45m2.05 43.8q18.6 4.4 32.75-6.6m-107.3 51.75q17.9 3.15 40.65 17.6 4.5 0.9 8.8-2.45 5.65-3.7 10.55-7.9 10.55-9.15 17.25-20.95 3.9-2.85 6.7 0 15.3 1.15 23.5-21.4m-7-29.3 10.95-12.3q1.9 0.2-11.65 20.05m-2.6-104.85q-0.05 7.5 2.05 13.7m-28.5 30.85q-1.7-3.75-4.7-6.95m-43.6-25.05 2.05 2.55-0.25 4.2m-3.6-7.65q-3.2-2-3.9-6.05 0.95-2.3 3.15-1.95m15.5 101.9 2.1 0.35 4.25-3.5q-4.25-5.1-4.1-12.35 0-2.5 0.6-5.25-4.4-10.55-1.45-23.6-5.9-11.5-6.3-27.45-6.05-6.1-6.25-14.45m47.15 48.8-0.8-2.3q4-12.4 0.15-21.25m-86.85 116.65q6.65-1.15 14.55 0.05l1.6 0.25m53.65-36.25q-12.1-7.45-25.35-7.05m46.25-1.85-5.4-1.65q6.35-11.85 0-21.1 5.6-9.35 3.35-21.05m-39.45 40.35q3.75-1.35 10.4-1.35" fill="none" stroke="#000" stroke-linecap="round" stroke-linejoin="round" stroke-opacity=".41961" stroke-width=".05"/>
<path d="m21.8-42.6q2.75 3.25 0 4.25-21.7-0.75-42.1-5.95-1.9-3.45 0.8-4.3 21.35 5.9 41.3 6" fill-opacity=".3098" fill-rule="evenodd"/>
<path d="m-23.55-47.05h-0.05q-1.9-3.45 0.85-4.25 21.25 5.85 41.3 5.95 1.15 1.35 1.3 2.35-20.55-0.25-41.1-5.9l-2.3 1.85" fill="#b48e00" fill-rule="evenodd"/>
<path d="m19.85-43q0.25 1.3-1.3 1.9-21.75-0.7-42.1-5.95l2.3-1.85q20.55 5.65 41.1 5.9" fill="#9c7c00" fill-rule="evenodd"/>
<path d="m19.85-43q0.25 1.3-1.3 1.9-21.75-0.7-42.1-5.95h-0.05q-1.9-3.45 0.85-4.25 21.25 5.85 41.3 5.95 1.15 1.35 1.3 2.35z" fill="none" stroke="#000" stroke-linecap="round" stroke-linejoin="round" stroke-opacity=".41176" stroke-width=".05"/>
<path d="m24.8-14.8q2.45 3.25 0 4.25-19.5-0.75-37.8-5.95-1.7-3.45 0.75-4.3 19.15 5.9 37.05 6" fill-opacity=".3098" fill-rule="evenodd"/>
<path d="m-15.9-19.25h-0.05q-1.7-3.45 0.75-4.25 19.1 5.85 37.05 5.95 1 1.35 1.2 2.35-18.45-0.25-36.9-5.9l-2.05 1.85" fill="#b48e00" fill-rule="evenodd"/>
<path d="m23.05-15.2q0.15 1.3-1.2 1.9-19.5-0.7-37.75-5.95l2.05-1.85q18.45 5.65 36.9 5.9" fill="#9c7c00" fill-rule="evenodd"/>
<path d="m-15.9-19.25h-0.05q-1.7-3.45 0.75-4.25 19.1 5.85 37.05 5.95 1 1.35 1.2 2.35 0.15 1.3-1.2 1.9-19.5-0.7-37.75-5.95z" fill="none" stroke="#000" stroke-linecap="round" stroke-linejoin="round" stroke-opacity=".41176" stroke-width=".05"/>
<path d="m22.05 10.2q2.25 3.25 0 4.25-17.85-0.75-34.65-5.95-1.55-3.45 0.7-4.3 17.55 5.9 33.95 6" fill-opacity=".3098" fill-rule="evenodd"/>
<path d="m-15.25 5.75h-0.05q-1.55-3.45 0.7-4.25 17.5 5.85 34 5.95 0.9 1.35 1.05 2.35-16.9-0.25-33.8-5.9l-1.9 1.85" fill="#b48e00" fill-rule="evenodd"/>
<path d="m20.45 9.8q0.2 1.3-1.05 1.9-17.9-0.7-34.65-5.95l1.9-1.85q16.9 5.65 33.8 5.9" fill="#9c7c00" fill-rule="evenodd"/>
<path d="m20.45 9.8q0.2 1.3-1.05 1.9-17.9-0.7-34.65-5.95h-0.05q-1.55-3.45 0.7-4.25 17.5 5.85 34 5.95 0.9 1.35 1.05 2.35z" fill="none" stroke="#000" stroke-linecap="round" stroke-linejoin="round" stroke-opacity=".41176" stroke-width=".05"/>
</g>
<linearGradient id="q" x1="-819.2" x2="819.2" gradientTransform="matrix(-.0161 -.0382 .0646 -.0272 18.3 -19.45)" gradientUnits="userSpaceOnUse">
<stop stop-color="#004200" offset="0"/>
<stop stop-color="#506401" offset="1"/>
</linearGradient>
<linearGradient id="p" x1="-819.2" x2="819.2" gradientTransform="matrix(-.0073 .0278 -.0388 -.0102 3.4 -83.55)" gradientUnits="userSpaceOnUse">
<stop stop-color="#002800" offset="0"/>
<stop stop-color="#281c00" offset="1"/>
</linearGradient>
<linearGradient id="k" x1="-819.2" x2="819.2" gradientTransform="matrix(.0181 0 0 .0182 33.7 -77.9)" gradientUnits="userSpaceOnUse">
<stop stop-color="#002800" offset="0"/>
<stop stop-color="#281c00" offset="1"/>
</linearGradient>
<linearGradient id="j" x1="-819.2" x2="819.2" gradientTransform="matrix(.0318 0 0 .0699 41.4 -22)" gradientUnits="userSpaceOnUse">
<stop stop-color="#817800" offset="0"/>
<stop stop-color="#584c00" offset="1"/>
</linearGradient>
<linearGradient id="i" x1="-819.2" x2="819.2" gradientTransform="matrix(.076 0 0 .0948 -5.1 19.3)" gradientUnits="userSpaceOnUse">
<stop stop-color="#002800" offset="0"/>
<stop stop-color="#281c00" offset="1"/>
</linearGradient>
<linearGradient id="h" x1="-819.2" x2="819.2" gradientTransform="matrix(.0141 0 0 .0547 -14.9 -18.2)" gradientUnits="userSpaceOnUse">
<stop stop-color="#002800" offset="0"/>
<stop stop-color="#281c00" offset="1"/>
</linearGradient>
<linearGradient id="g" x1="-819.2" x2="819.2" gradientTransform="matrix(-.0154 -.0088 .0174 -.0304 -24.9 60)" gradientUnits="userSpaceOnUse">
<stop stop-color="#004200" offset="0"/>
<stop stop-color="#506401" offset="1"/>
</linearGradient>
<g id="b" transform="translate(-222.15,-5.6)">
<path d="m262.15 66.4q-1.4-3.35-3.6-7.05-4.25-4.75 16-13.6 41.8-10.75 72.4-2.4l6 6-0.65 5.7q-12.75 10.75-32.15 11.1 9.75 10 2.8 22.8h-4.8q-3.85 0.1-3.2 3.2l1.15 2.6-8.75-0.6q5.85 10.6 3.6 19.2 10.9 9.8 2.4 31.2 6.5 16.45 0.4 31.2l3.2 2.8q2.85 10.5-3.6 17.9h-11q5 1.3 7 2.3 2.65 1.25 0 1.95l-7.2 0.65q-11.45-3.9-28.05-2.55 1.25-2.3 4.65-3.5 1.95-2.3 2.55-4.55h10.45l-1.2-3 4.4-4q-6-8.3-4.45-14.4 0.45-1.9 1.65-3.6-5.8-19.85-2.4-25.2-9.45-18.4-4.8-30.4-8.3-12.3-8-18l-8.3-3.2q-0.05-2.3 0.3-4.8l-2.35-2.9-2-1q0.15-5.4-0.85-9.1-0.6-2.3-1.6-4.75m6 15.35-1.55-0.5 1.55 0.5m10.4-32q-10.6 1.1-12.8 9.2 0.75 1.85 7.6 3.7t6.85 9.6 7.95 17.1q3.25 1.55 5.5-0.5 5.1-4.7 4.9-23.5l4.4-2q20.95 0.7 36-6 11.65-4.85-0.8-10-26.25-6.8-59.6 2.4m12 144q-7.55 0-11.8 1.55 4.25-1.55 11.8-1.55" fill="url(#f)" fill-rule="evenodd"/>
<path d="m338.15 47.35q12.45 5.15 0.8 10-15.05 6.7-36 6l-4.4 2q0.2 18.8-4.9 23.5-2.25 2.05-5.5 0.5-7.95-9.35-7.95-17.1t-6.85-9.6-7.6-3.7q2.2-8.1 12.8-9.2 33.35-9.2 59.6-2.4" fill="url(#e)" fill-rule="evenodd"/>
<path d="m352.3 55.05q-0.55 5.35-0.65 9.9l-0.05 2.05q-0.1 8.5 2.3 15.55-3.35 4.85-9.35 6.4h-21.6q6.95-12.8-2.8-22.8 19.4-0.35 32.15-11.1" fill="url(#d)" fill-rule="evenodd"/>
<path d="m351.65 64.95h7.3q2.35 2.6 3.45 5.55l-3.05 13.25q-5.7 8.3-15.2 11.6l-20.8-2q2.5 9.3-7.2 16.4 2.95-7.05-0.05-15l-1.15-2.6q-0.65-3.1 3.2-3.2h26.4q6-1.55 9.35-6.4 1.45-2.1 2.45-4.85 3.8-10.65-4.75-10.7l0.05-2.05m-70.3 122q-10.45-2.15-7.2-6.8 4.05-3.8 4.95-10.8l0.25-3.2-2.8-4 2-6.4v-12.8q-7-29.55-17.2-54.8-4.75-8.8-5.6-17.6l6.4-4.15q1 2.45 1.6 4.75-2.55-0.4-3.6 2.2 0.8 4.6 4.45 6.9l2 1 2.35 2.9q-0.35 2.5-0.3 4.8 0.25 9.45 7.1 16.4 0.45 18.1 7.2 31.2-3.4 14.8 1.6 26.8-0.65 3.15-0.65 6-0.15 8.25 4.65 14l-4.8 4-2.4-0.4m40.15-69.35q11.15 8.65 11.05 17.35l-3.2 10.4 11.6 9.2q7.9 10.4 0 9.6-7.85-13.65-18.7-19.75l-0.9-2.65q4.55-14.05 0.15-24.15m2.05 31.85q7.65 5.6 10.6 15.9l-6 8.4 13.6 14q2.15 7.2-4 4.8l-9.65-15.2q2.8 10.4 0 18l-2.2 3.85-6.15-1.85q7.2-13.45 0-24 6.35-10.6 3.8-23.9m14.2-29.3-15.15-9.35 16.75 5.35q5.05 4.9-1.6 4" fill="#d5d019" fill-rule="evenodd"/>
<path d="m263.75 71.15q1 3.7 0.85 9.1-3.65-2.3-4.45-6.9 1.05-2.6 3.6-2.2m87.85-4.15q8.55 0.05 4.75 10.7-1 2.75-2.45 4.85-2.4-7.05-2.3-15.55" fill="#a29600" fill-rule="evenodd"/>
<path d="m362.4 70.5q1.15 3.05 0.95 6.45 0 44.95 6 81.6l2.4 1.6q2.55 5.15-1.2 6l4.8 12.4q-5.7 8.05-12.25 13.2-16.05 12.5-37.2 7.45l2.2-3.85q2.8-7.6 0-18l9.65 15.2q6.15 2.4 4-4.8l-13.6-14 6-8.4q-2.95-10.3-10.6-15.9l-1.3-5.05q10.85 6.1 18.7 19.75 7.9 0.8 0-9.6l-11.6-9.2 3.2-10.4q0.1-8.7-11.05-17.35-1.9-4.25-5.35-7.85 9.7-7.1 7.2-16.4l20.8 2q9.5-3.3 15.2-11.6l3.05-13.25m-24.65 49.65q6.65 0.9 1.6-4l-16.75-5.35 15.15 9.35m16.8 66q15.4-22.55 13.2-22.8l-12.4 14 12.4-14q2.2 0.25-13.2 22.8" fill="url(#o)" fill-rule="evenodd"/>
<path d="m363.1 191.75q1.15 9.7 0.2 18.9-9.35 25.6-26.75 24.3-3.15-3.25-7.6 0-7.6 13.4-19.6 23.85-5.55 4.75-12 8.95-4.9 3.8-10 2.8-25.85-16.45-46.2-20l-1.8-0.3q-9-1.35-16.55-0.05-0.75-5.7-0.65-11.65 9.25-17.05 15.6-18.4l1.6 0.55q69.1 23.6 68.4-0.55 0.05-5.4-5.6-10.8-13.75-8.5-28.8-8 0.1-1.4 0.75-2.55 16.6-1.35 28.05 2.55l7.2-0.65q2.65-0.7 0-1.95-2-1-7-2.3h11q6.45-7.4 3.6-17.9l-3.2-2.8q6.1-14.75-0.4-31.2 8.5-21.4-2.4-31.2 2.25-8.6-3.6-19.2l8.75 0.6q3 7.95 0.05 15 3.45 3.6 5.35 7.85 4.4 10.1-0.15 24.15l0.9 2.65 1.3 5.05q2.55 13.3-3.8 23.9 7.2 10.55 0 24l6.15 1.85q21.15 5.05 37.2-7.45" fill="url(#n)" fill-rule="evenodd"/>
<path d="m363.3 210.65q-1 9.65-4.35 18.7-5.6 18.7-25.2 15.6v-2.8q-6.6 2.5-8 7.6-7.05 14.25-16.4 22.6-6.8 6.05-14.8 9h-1.2q-2.45-6.4-6.4-0.1-11.25-0.4-21.2-1.95-1.3-6.15-4-0.7-11.65-2.25-21.4-6.25 13.55-0.85 0.8-21.8 20.35 3.55 46.2 20 5.1 1 10-2.8 6.45-4.2 12-8.95 12-10.45 19.6-23.85 4.45-3.25 7.6 0 17.4 1.3 26.75-24.3" fill="#c49c00" fill-rule="evenodd"/>
<path d="m281.3 190.75q0.5-1.9 0.05-3.8l2.4 0.4 4.8-4q-4.8-5.75-4.65-14 0-2.85 0.65-6-5-12-1.6-26.8-6.75-13.1-7.2-31.2-6.85-6.95-7.1-16.4l8.3 3.2q-0.3 5.7 8 18-4.65 12 4.8 30.4-3.4 5.35 2.4 25.2-1.2 1.7-1.65 3.6-1.55 6.1 4.45 14.4l-4.4 4 1.2 3h-10.45" fill="url(#m)" fill-rule="evenodd"/>
<path d="m222.15 238.55q3.3-14.7 12.4-23.6l4.8-3q17.75-10.55 34-10.6 15.05-0.5 28.8 8 5.65 5.4 5.6 10.8 0.7 24.15-68.4 0.55l-1.6-0.55q-6.35 1.35-15.6 18.4" fill="url(#l)" fill-rule="evenodd"/>
<path d="m240.35 272.35-1-0.4-2.35-1.05q0.45-5.55-4.65-2.3l-6.2-3.65q-2.4-7.15-3.35-14.75 7.55-1.3 16.55 0.05l1.8 0.3q12.75 20.95-0.8 21.8" fill="#e2b200" fill-rule="evenodd"/>
<path d="m262.15 66.4q-1.4-3.35-3.6-7.05-4.25-4.75 16-13.6 41.8-10.75 72.4-2.4l6 6-0.65 5.7q-0.55 5.35-0.65 9.9h7.3q2.35 2.6 3.45 5.55 1.15 3.05 0.95 6.45 0 44.95 6 81.6l2.4 1.6q2.55 5.15-1.2 6l4.8 12.4q-5.7 8.05-12.25 13.2 1.15 9.7 0.2 18.9-1 9.65-4.35 18.7-5.6 18.7-25.2 15.6v-2.8q-6.6 2.5-8 7.6-7.05 14.25-16.4 22.6-6.8 6.05-14.8 9h-1.2q-2.45-6.4-6.4-0.1-11.25-0.4-21.2-1.95-1.3-6.15-4-0.7-11.65-2.25-21.4-6.25l-1-0.4-2.35-1.05q0.45-5.55-4.65-2.3l-6.2-3.65q-2.4-7.15-3.35-14.75-0.75-5.7-0.65-11.65 3.3-14.7 12.4-23.6l4.8-3q17.75-10.55 34-10.6 0.1-1.4 0.75-2.55 1.25-2.3 4.65-3.5 1.95-2.3 2.55-4.55 0.5-1.9 0.05-3.8-10.45-2.15-7.2-6.8 4.05-3.8 4.95-10.8l0.25-3.2-2.8-4 2-6.4v-12.8q-7-29.55-17.2-54.8-4.75-8.8-5.6-17.6l6.4-4.15q1 2.45 1.6 4.75 1 3.7 0.85 9.1l2 1 1.55 0.5m83.5-16.8-0.05 2.05q8.55 0.05 4.75 10.7-1 2.75-2.45 4.85-3.35 4.85-9.35 6.4h-26.4q-3.85 0.1-3.2 3.2l1.15 2.6q3 7.95 0.05 15m-37.6-60q-10.6 1.1-12.8 9.2 0.75 1.85 7.6 3.7t6.85 9.6 7.95 17.1q3.25 1.55 5.5-0.5 5.1-4.7 4.9-23.5l4.4-2q20.95 0.7 36-6 11.65-4.85-0.8-10m-15.9 97.05 1.3 5.05m2.35 49.75q21.15 5.05 37.2-7.45m-121.95 58.8q20.35 3.55 46.2 20 5.1 1 10-2.8 6.45-4.2 12-8.95 12-10.45 19.6-23.85 4.45-3.25 7.6 0 17.4 1.3 26.75-24.3m-7.95-33.3 12.4-14q2.2 0.25-13.2 22.8m-2.95-119.15q-0.1 8.5 2.3 15.55m-32.4 35.05q-1.9-4.25-5.35-7.85m-49.55-28.5 2.35 2.9q-0.35 2.5-0.3 4.8m-4.05-8.7q-3.65-2.3-4.45-6.9 1.05-2.6 3.6-2.2m17.6 115.8 2.4 0.4 4.8-4q-4.8-5.75-4.65-14 0-2.85 0.65-6-5-12-1.6-26.8-6.75-13.1-7.2-31.2-6.85-6.95-7.1-16.4m53.6 55.45-0.9-2.65q4.55-14.05 0.15-24.15m-98.7 132.6q7.55-1.3 16.55 0.05l1.8 0.3m61-41.2q-13.75-8.5-28.8-8m52.55-2.15-6.15-1.85q7.2-13.45 0-24 6.35-10.6 3.8-23.9m-44.8 45.85q4.25-1.55 11.8-1.55" fill="none" stroke="#000" stroke-linecap="round" stroke-linejoin="round" stroke-opacity=".41961" stroke-width=".05"/>
<path d="m323.55 112.1q3.1 3.7 0 4.8-24.7-0.75-47.85-6.75-2.2-3.85 0.9-4.8 24.25 6.65 46.95 6.75" fill-opacity=".3098" fill-rule="evenodd"/>
<path d="m271.95 107.05h-0.05q-2.15-3.9 0.95-4.85 24.2 6.65 46.95 6.8 1.3 1.55 1.5 2.65-23.35-0.25-46.75-6.7l-2.6 2.1" fill="#e2b200" fill-rule="evenodd"/>
<path d="m321.3 111.65q0.25 1.5-1.5 2.15-24.7-0.8-47.85-6.75l2.6-2.1q23.4 6.45 46.75 6.7" fill="#c49c00" fill-rule="evenodd"/>
<path d="m321.3 111.65q0.25 1.5-1.5 2.15-24.7-0.8-47.85-6.75h-0.05q-2.15-3.9 0.95-4.85 24.2 6.65 46.95 6.8 1.3 1.55 1.5 2.65z" fill="none" stroke="#000" stroke-linecap="round" stroke-linejoin="round" stroke-opacity=".41176" stroke-width=".05"/>
<path d="m326.9 143.7q2.8 3.7 0 4.8-22.15-0.75-42.9-6.75-1.95-3.85 0.85-4.8 21.7 6.65 42.05 6.75" fill-opacity=".3098" fill-rule="evenodd"/>
<path d="m280.65 138.65h-0.05q-1.9-3.9 0.85-4.85 21.7 6.65 42.1 6.8 1.15 1.55 1.35 2.65-20.95-0.25-41.9-6.7l-2.35 2.1" fill="#e2b200" fill-rule="evenodd"/>
<path d="m324.9 143.25q0.2 1.5-1.35 2.15-22.15-0.8-42.9-6.75l2.35-2.1q20.95 6.45 41.9 6.7" fill="#c49c00" fill-rule="evenodd"/>
<path d="m280.65 138.65h-0.05q-1.9-3.9 0.85-4.85 21.7 6.65 42.1 6.8 1.15 1.55 1.35 2.65 0.2 1.5-1.35 2.15-22.15-0.8-42.9-6.75z" fill="none" stroke="#000" stroke-linecap="round" stroke-linejoin="round" stroke-opacity=".41176" stroke-width=".05"/>
<path d="m323.85 172.1q2.55 3.7 0 4.8-20.35-0.75-39.4-6.75-1.8-3.85 0.75-4.8 19.95 6.65 38.65 6.75" fill-opacity=".3098" fill-rule="evenodd"/>
<path d="m281.35 167.05q-1.8-3.9 0.75-4.85 19.9 6.65 38.65 6.8 1.05 1.55 1.2 2.65-19.2-0.25-38.45-6.7l-2.15 2.1" fill="#e2b200" fill-rule="evenodd"/>
<path d="m321.95 171.65q0.2 1.5-1.2 2.15-20.35-0.8-39.4-6.75l2.15-2.1q19.25 6.45 38.45 6.7" fill="#c49c00" fill-rule="evenodd"/>
<path d="m321.95 171.65q0.2 1.5-1.2 2.15-20.35-0.8-39.4-6.75-1.8-3.9 0.75-4.85 19.9 6.65 38.65 6.8 1.05 1.55 1.2 2.65z" fill="none" stroke="#000" stroke-linecap="round" stroke-linejoin="round" stroke-opacity=".41176" stroke-width=".05"/>
<path d="m308.8 8.6q1.15 0.2 2.55 3.15 2.6 8.55 0.75 13.65l-2.45-3.4q2.75-1.9-0.85-13.4" fill="#c90" fill-rule="evenodd"/>
<path d="m308.8 8.6q3.6 11.5 0.85 13.4-2.85-4.85-2.8-11.05 0.75-2.65 1.95-2.35" fill="#fc3" fill-rule="evenodd"/>
<path d="m309.65 22 2.45 3.4q1.85-5.1-0.75-13.65-1.4-2.95-2.55-3.15m0.85 13.4q-2.85-4.85-2.8-11.05 0.75-2.65 1.95-2.35" fill="none" stroke="#000" stroke-linecap="round" stroke-linejoin="round" stroke-opacity=".41961" stroke-width=".05"/>
<path d="m314.1 17.75q1.1 0.65 2.05 3.7 1.05 8.25-1.75 11.9-1.2-1.95-1.9-3.85 3.15-0.5 1.6-11.75" fill="#c90" fill-rule="evenodd"/>
<path d="m314.1 17.75q1.55 11.25-1.6 11.75-1.95-5.2-0.75-10.45 1.25-2 2.35-1.3" fill="#fc3" fill-rule="evenodd"/>
<path d="m312.5 29.5q0.7 1.9 1.9 3.85 2.8-3.65 1.75-11.9-0.95-3.05-2.05-3.7m-1.6 11.75q-1.95-5.2-0.75-10.45 1.25-2 2.35-1.3" fill="none" stroke="#000" stroke-linecap="round" stroke-linejoin="round" stroke-opacity=".41961" stroke-width=".05"/>
<path d="m319.1 24.3q0.95 1 1.3 4.25-0.95 8.3-4.8 10.95-0.75-2.2-1.05-4.25 3.5 0.4 4.55-10.95" fill="#c90" fill-rule="evenodd"/>
<path d="m319.1 24.3q-1.05 11.35-4.55 10.95-0.8-5.65 1.7-10.35 1.8-1.55 2.85-0.6" fill="#fc3" fill-rule="evenodd"/>
<path d="m314.55 35.25q0.3 2.05 1.05 4.25 3.85-2.65 4.8-10.95-0.35-3.25-1.3-4.25m-4.55 10.95q-0.8-5.65 1.7-10.35 1.8-1.55 2.85-0.6" fill="none" stroke="#000" stroke-linecap="round" stroke-linejoin="round" stroke-opacity=".41961" stroke-width=".05"/>
<path d="m323.4 32.1q0.85 1.25 0.5 4.3-2.6 7.2-7.1 8.3-0.3-2.3-0.2-4.25 3.45 1.6 6.8-8.35" fill="#c90" fill-rule="evenodd"/>
<path d="m323.4 32.1q-3.35 9.95-6.8 8.35 0.25-5.4 3.85-8.85 2.15-0.8 2.95 0.5" fill="#fc3" fill-rule="evenodd"/>
<path d="m316.6 40.45q-0.1 1.95 0.2 4.25 4.5-1.1 7.1-8.3 0.35-3.05-0.5-4.3m-6.8 8.35q0.25-5.4 3.85-8.85 2.15-0.8 2.95 0.5" fill="none" stroke="#000" stroke-linecap="round" stroke-linejoin="round" stroke-opacity=".41961" stroke-width=".05"/>
<path d="m324.8 38.45q0.8 1.25 0.65 4.15-2.05 6.85-6.1 7.65-0.35-2.25-0.35-4.15 3.2 1.75 5.8-7.65" fill="#c90" fill-rule="evenodd"/>
<path d="m324.8 38.45q-2.6 9.4-5.8 7.65 0-5.2 3.1-8.35 1.9-0.6 2.7 0.7" fill="#fc3" fill-rule="evenodd"/>
<path d="m319 46.1q0 1.9 0.35 4.15 4.05-0.8 6.1-7.65 0.15-2.9-0.65-4.15m-5.8 7.65q0-5.2 3.1-8.35 1.9-0.6 2.7 0.7" fill="none" stroke="#000" stroke-linecap="round" stroke-linejoin="round" stroke-opacity=".41961" stroke-width=".05"/>
<path d="m306.65 21.15q-0.45 1.1 0.35 4.05 3.3 6.95 7.1 8l-0.5-4.05q-2.55 1.5-6.95-8" fill="#c90" fill-rule="evenodd"/>
<path d="m306.65 21.15q4.4 9.5 6.95 8-1.15-5.2-4.55-8.45-1.9-0.8-2.4 0.45" fill="#fc3" fill-rule="evenodd"/>
<path d="m313.6 29.15 0.5 4.05q-3.8-1.05-7.1-8-0.8-2.95-0.35-4.05m6.95 8q-1.15-5.2-4.55-8.45-1.9-0.8-2.4 0.45" fill="none" stroke="#000" stroke-linecap="round" stroke-linejoin="round" stroke-opacity=".41961" stroke-width=".05"/>
<path d="m305 28.4q-0.3 1.35 1.4 4.2 5.55 6.25 10.2 6.25l-1.65-4.05q-2.55 2.3-9.95-6.4" fill="#c90" fill-rule="evenodd"/>
<path d="m305 28.4q7.4 8.7 9.95 6.4-2.55-5.1-7.35-7.5-2.35-0.3-2.6 1.1" fill="#fc3" fill-rule="evenodd"/>
<path d="m314.95 34.8 1.65 4.05q-4.65 0-10.2-6.25-1.7-2.85-1.4-4.2m9.95 6.4q-2.55-5.1-7.35-7.5-2.35-0.3-2.6 1.1" fill="none" stroke="#000" stroke-linecap="round" stroke-linejoin="round" stroke-opacity=".41961" stroke-width=".05"/>
<path d="m306.9 37.35q0.05 1.45 1.95 3.7 5.8 4.4 9.7 2.7-0.95-2.1-2.1-3.55-1.7 3.25-9.55-2.85" fill="#c90" fill-rule="evenodd"/>
<path d="m306.9 37.35q7.85 6.1 9.55 2.85-3.1-4.25-7.6-4.95-2 0.5-1.95 2.1" fill="#fc3" fill-rule="evenodd"/>
<path d="m316.45 40.2q1.15 1.45 2.1 3.55-3.9 1.7-9.7-2.7-1.9-2.25-1.95-3.7m9.55 2.85q-3.1-4.25-7.6-4.95-2 0.5-1.95 2.1" fill="none" stroke="#000" stroke-linecap="round" stroke-linejoin="round" stroke-opacity=".41961" stroke-width=".05"/>
<path d="m308.55 43.2q0.05 1.45 1.8 3.75 5.5 4.4 9.1 2.7-0.95-2.05-2-3.55-1.55 3.25-8.9-2.9" fill="#c90" fill-rule="evenodd"/>
<path d="m308.55 43.2q7.35 6.15 8.9 2.9-2.95-4.25-7.1-4.95-1.85 0.5-1.8 2.05" fill="#fc3" fill-rule="evenodd"/>
<path d="m317.45 46.1q1.05 1.5 2 3.55-3.6 1.7-9.1-2.7-1.75-2.3-1.8-3.75m8.9 2.9q-2.95-4.25-7.1-4.95-1.85 0.5-1.8 2.05" fill="none" stroke="#000" stroke-linecap="round" stroke-linejoin="round" stroke-opacity=".41961" stroke-width=".05"/>
<path d="m326.25 44.5q0.8 1.25 0.65 4.15-2.05 6.85-6.1 7.65-0.35-2.25-0.35-4.15 3.2 1.75 5.8-7.65" fill="#c90" fill-rule="evenodd"/>
<path d="m326.25 44.5q-2.6 9.4-5.8 7.65 0-5.2 3.1-8.35 1.9-0.6 2.7 0.7" fill="#fc3" fill-rule="evenodd"/>
<path d="m320.45 52.15q0 1.9 0.35 4.15 4.05-0.8 6.1-7.65 0.15-2.9-0.65-4.15m-5.8 7.65q0-5.2 3.1-8.35 1.9-0.6 2.7 0.7" fill="none" stroke="#000" stroke-linecap="round" stroke-linejoin="round" stroke-opacity=".41961" stroke-width=".05"/>
<path d="m310.05 49.25q0.05 1.45 1.8 3.75 5.5 4.4 9.1 2.7l-2-3.55q-1.55 3.25-8.9-2.9" fill="#c90" fill-rule="evenodd"/>
<path d="m310.05 49.25q7.35 6.15 8.9 2.9-2.95-4.25-7.1-4.95-1.85 0.5-1.8 2.05" fill="#fc3" fill-rule="evenodd"/>
<path d="m318.95 52.15 2 3.55q-3.6 1.7-9.1-2.7-1.75-2.3-1.8-3.75m8.9 2.9q-2.95-4.25-7.1-4.95-1.85 0.5-1.8 2.05" fill="none" stroke="#000" stroke-linecap="round" stroke-linejoin="round" stroke-opacity=".41961" stroke-width=".05"/>
<path d="m329 49.3q0.8 1.25 0.65 4.15-2.05 6.85-6.1 7.65-0.35-2.25-0.35-4.15 3.2 1.75 5.8-7.65" fill="#c90" fill-rule="evenodd"/>
<path d="m329 49.3q-2.6 9.4-5.8 7.65 0-5.2 3.1-8.35 1.9-0.6 2.7 0.7" fill="#fc3" fill-rule="evenodd"/>
<path d="m323.2 56.95q0 1.9 0.35 4.15 4.05-0.8 6.1-7.65 0.15-2.9-0.65-4.15m-5.8 7.65q0-5.2 3.1-8.35 1.9-0.6 2.7 0.7" fill="none" stroke="#000" stroke-linecap="round" stroke-linejoin="round" stroke-opacity=".41961" stroke-width=".05"/>
<path d="m312.8 54.2q0.05 1.45 1.8 3.75 5.5 4.4 9.1 2.7-0.95-2.05-2-3.55-1.55 3.25-8.9-2.9" fill="#c90" fill-rule="evenodd"/>
<path d="m312.8 54.2q7.35 6.15 8.9 2.9-2.95-4.25-7.1-4.95-1.85 0.5-1.8 2.05" fill="#fc3" fill-rule="evenodd"/>
<path d="m321.7 57.1q1.05 1.5 2 3.55-3.6 1.7-9.1-2.7-1.75-2.3-1.8-3.75m8.9 2.9q-2.95-4.25-7.1-4.95-1.85 0.5-1.8 2.05" fill="none" stroke="#000" stroke-linecap="round" stroke-linejoin="round" stroke-opacity=".41961" stroke-width=".05"/>
<path d="m286.2 40.9q0.7-0.45 2.85 0.25 5.4 3 6.95 6.55l-2.9-0.45q0.45-2.4-6.9-6.35" fill="#c90" fill-rule="evenodd"/>
<path d="m286.2 40.9q7.35 3.95 6.9 6.35-3.75-0.95-6.7-4.15-0.95-1.75-0.2-2.2" fill="#fc3" fill-rule="evenodd"/>
<path d="m293.1 47.25 2.9 0.45q-1.55-3.55-6.95-6.55-2.15-0.7-2.85-0.25m6.9 6.35q-3.75-0.95-6.7-4.15-0.95-1.75-0.2-2.2" fill="none" stroke="#000" stroke-linecap="round" stroke-linejoin="round" stroke-opacity=".41961" stroke-width=".05"/>
<path d="m293.35 42.75q0.85-0.25 2.8 0.8 4.55 3.65 4.9 6.95l-2.75-0.95q1.25-1.9-4.95-6.8" fill="#c90" fill-rule="evenodd"/>
<path d="m293.35 42.75q6.2 4.9 4.95 6.8-3.5-1.65-5.5-4.9-0.35-1.65 0.55-1.9" fill="#fc3" fill-rule="evenodd"/>
<path d="m298.3 49.55 2.75 0.95q-0.35-3.3-4.9-6.95-1.95-1.05-2.8-0.8m4.95 6.8q-3.5-1.65-5.5-4.9-0.35-1.65 0.55-1.9" fill="none" stroke="#000" stroke-linecap="round" stroke-linejoin="round" stroke-opacity=".41961" stroke-width=".05"/>
<path d="m299.05 43.55q0.95 0 2.65 1.45 3.6 4.7 2.95 8-1.45-0.7-2.55-1.6 1.9-1.55-3.05-7.85" fill="#c90" fill-rule="evenodd"/>
<path d="m299.05 43.55q4.95 6.3 3.05 7.85-3.15-2.4-4.2-6.1 0.15-1.75 1.15-1.75" fill="#fc3" fill-rule="evenodd"/>
<path d="m302.1 51.4q1.1 0.9 2.55 1.6 0.65-3.3-2.95-8-1.7-1.45-2.65-1.45m3.05 7.85q-3.15-2.4-4.2-6.1 0.15-1.75 1.15-1.75" fill="none" stroke="#000" stroke-linecap="round" stroke-linejoin="round" stroke-opacity=".41961" stroke-width=".05"/>
<path d="m304.95 45.15q1 0.15 2.3 1.9 2.2 5.05 0.5 7.9l-2.15-2.05q2.5-1-0.65-7.75" fill="#c90" fill-rule="evenodd"/>
<path d="m304.95 45.15q3.15 6.75 0.65 7.75-2.55-2.9-2.4-6.45 0.7-1.5 1.75-1.3" fill="#fc3" fill-rule="evenodd"/>
<path d="m305.6 52.9 2.15 2.05q1.7-2.85-0.5-7.9-1.3-1.75-2.3-1.9m0.65 7.75q-2.55-2.9-2.4-6.45 0.7-1.5 1.75-1.3" fill="none" stroke="#000" stroke-linecap="round" stroke-linejoin="round" stroke-opacity=".41961" stroke-width=".05"/>
<path d="m308.75 47.65q1 0.2 2.35 1.8 2.3 4.55 0.65 7l-2.15-1.85q2.45-0.85-0.85-6.95" fill="#c90" fill-rule="evenodd"/>
<path d="m308.75 47.65q3.3 6.1 0.85 6.95-2.6-2.7-2.55-5.85 0.65-1.3 1.7-1.1" fill="#fc3" fill-rule="evenodd"/>
<path d="m309.6 54.6 2.15 1.85q1.65-2.45-0.65-7-1.35-1.6-2.35-1.8m0.85 6.95q-2.6-2.7-2.55-5.85 0.65-1.3 1.7-1.1" fill="none" stroke="#000" stroke-linecap="round" stroke-linejoin="round" stroke-opacity=".41961" stroke-width=".05"/>
<path d="m291.3 48.35q0.3 0.8 2.1 1.9 5.05 1.8 7.5 0.35-1.15-1.1-2.25-1.8-0.55 2.1-7.35-0.45" fill="#c90" fill-rule="evenodd"/>
<path d="m291.3 48.35q6.8 2.55 7.35 0.45-3.1-2-6.4-1.95-1.35 0.6-0.95 1.5" fill="#fc3" fill-rule="evenodd"/>
<path d="m298.65 48.8q1.1 0.7 2.25 1.8-2.45 1.45-7.5-0.35-1.8-1.1-2.1-1.9m7.35 0.45q-3.1-2-6.4-1.95-1.35 0.6-0.95 1.5" fill="none" stroke="#000" stroke-linecap="round" stroke-linejoin="round" stroke-opacity=".41961" stroke-width=".05"/>
<path d="m294 52.95q0.5 0.75 2.7 1.35 5.8 0.25 8.15-2.15l-2.8-1.2q-0.15 2.45-8.05 2" fill="#c90" fill-rule="evenodd"/>
<path d="m294 52.95q7.9 0.45 8.05-2-3.7-1.25-7.3 0.05-1.35 1.05-0.75 1.95" fill="#fc3" fill-rule="evenodd"/>
<path d="m302.05 50.95 2.8 1.2q-2.35 2.4-8.15 2.15-2.2-0.6-2.7-1.35m8.05-2q-3.7-1.25-7.3 0.05-1.35 1.05-0.75 1.95" fill="none" stroke="#000" stroke-linecap="round" stroke-linejoin="round" stroke-opacity=".41961" stroke-width=".05"/>
<path d="m299.2 56.45q0.75 0.7 2.8 0.9 5-0.85 6.15-3.75l-2.75-0.65q0.7 2.5-6.2 3.5" fill="#c90" fill-rule="evenodd"/>
<path d="m299.2 56.45q6.9-1 6.2-3.5-3.6-0.55-6.25 1.4-0.75 1.35 0.05 2.1" fill="#fc3" fill-rule="evenodd"/>
<path d="m305.4 52.95 2.75 0.65q-1.15 2.9-6.15 3.75-2.05-0.2-2.8-0.9m6.2-3.5q-3.6-0.55-6.25 1.4-0.75 1.35 0.05 2.1" fill="none" stroke="#000" stroke-linecap="round" stroke-linejoin="round" stroke-opacity=".41961" stroke-width=".05"/>
<path d="m303 58.6q0.75 0.7 2.75 0.95 4.85-0.65 5.85-3.4l-2.75-0.7q0.8 2.45-5.85 3.15" fill="#c90" fill-rule="evenodd"/>
<path d="m303 58.6q6.65-0.7 5.85-3.15-3.5-0.65-5.95 1.15-0.7 1.3 0.1 2" fill="#fc3" fill-rule="evenodd"/>
<path d="m308.85 55.45 2.75 0.7q-1 2.75-5.85 3.4-2-0.25-2.75-0.95m5.85-3.15q-3.5-0.65-5.95 1.15-0.7 1.3 0.1 2" fill="none" stroke="#000" stroke-linecap="round" stroke-linejoin="round" stroke-opacity=".41961" stroke-width=".05"/>
<path d="m312.4 49.9q1 0.2 2.35 1.8 2.3 4.55 0.65 7l-2.15-1.85q2.45-0.85-0.85-6.95" fill="#c90" fill-rule="evenodd"/>
<path d="m312.4 49.9q3.3 6.1 0.85 6.95-2.6-2.7-2.55-5.85 0.65-1.3 1.7-1.1" fill="#fc3" fill-rule="evenodd"/>
<path d="m313.25 56.85 2.15 1.85q1.65-2.45-0.65-7-1.35-1.6-2.35-1.8m0.85 6.95q-2.6-2.7-2.55-5.85 0.65-1.3 1.7-1.1" fill="none" stroke="#000" stroke-linecap="round" stroke-linejoin="round" stroke-opacity=".41961" stroke-width=".05"/>
<path d="m306.65 60.8q0.75 0.7 2.75 0.95 4.85-0.65 5.85-3.4l-2.75-0.7q0.8 2.45-5.85 3.15" fill="#c90" fill-rule="evenodd"/>
<path d="m306.65 60.8q6.65-0.7 5.85-3.15-3.5-0.65-5.95 1.15-0.7 1.3 0.1 2" fill="#fc3" fill-rule="evenodd"/>
<path d="m312.5 57.65 2.75 0.7q-1 2.75-5.85 3.4-2-0.25-2.75-0.95m5.85-3.15q-3.5-0.65-5.95 1.15-0.7 1.3 0.1 2" fill="none" stroke="#000" stroke-linecap="round" stroke-linejoin="round" stroke-opacity=".41961" stroke-width=".05"/>
<path d="m316.05 50.9q1 0.2 2.35 1.8 2.3 4.55 0.65 7l-2.15-1.85q2.45-0.85-0.85-6.95" fill="#c90" fill-rule="evenodd"/>
<path d="m316.05 50.9q3.3 6.1 0.85 6.95-2.6-2.7-2.55-5.85 0.65-1.3 1.7-1.1" fill="#fc3" fill-rule="evenodd"/>
<path d="m316.9 57.85 2.15 1.85q1.65-2.45-0.65-7-1.35-1.6-2.35-1.8m0.85 6.95q-2.6-2.7-2.55-5.85 0.65-1.3 1.7-1.1" fill="none" stroke="#000" stroke-linecap="round" stroke-linejoin="round" stroke-opacity=".41961" stroke-width=".05"/>
<path d="m310.4 62q0.75 0.7 2.75 0.95 4.85-0.65 5.85-3.4l-2.75-0.7q0.8 2.45-5.85 3.15" fill="#c90" fill-rule="evenodd"/>
<path d="m310.4 62q6.65-0.7 5.85-3.15-3.5-0.65-5.95 1.15-0.7 1.3 0.1 2" fill="#fc3" fill-rule="evenodd"/>
<path d="m316.25 58.85 2.75 0.7q-1 2.75-5.85 3.4-2-0.25-2.75-0.95m5.85-3.15q-3.5-0.65-5.95 1.15-0.7 1.3 0.1 2" fill="none" stroke="#000" stroke-linecap="round" stroke-linejoin="round" stroke-opacity=".41961" stroke-width=".05"/>
<path d="m347.55 5.6q-1.1 0.25-2.5 3.15-2.5 8.5-0.65 13.6l2.35-3.3q-2.7-1.95 0.8-13.45" fill="#c90" fill-rule="evenodd"/>
<path d="m347.55 5.6q-3.5 11.5-0.8 13.45 2.7-4.8 2.65-11-0.75-2.7-1.85-2.45" fill="#fc3" fill-rule="evenodd"/>
<path d="m346.75 19.05-2.35 3.3q-1.85-5.1 0.65-13.6 1.4-2.9 2.5-3.15m-0.8 13.45q2.7-4.8 2.65-11-0.75-2.7-1.85-2.45" fill="none" stroke="#000" stroke-linecap="round" stroke-linejoin="round" stroke-opacity=".41961" stroke-width=".05"/>
<path d="m342.4 14.65q-1.05 0.6-2 3.65-0.95 8.25 1.7 11.9l1.8-3.75q-3.05-0.6-1.5-11.8" fill="#c90" fill-rule="evenodd"/>
<path d="m342.4 14.65q-1.55 11.2 1.5 11.8 1.95-5.15 0.8-10.45-1.2-2.05-2.3-1.35" fill="#fc3" fill-rule="evenodd"/>
<path d="m343.9 26.45-1.8 3.75q-2.65-3.65-1.7-11.9 0.95-3.05 2-3.65m1.5 11.8q1.95-5.15 0.8-10.45-1.2-2.05-2.3-1.35" fill="none" stroke="#000" stroke-linecap="round" stroke-linejoin="round" stroke-opacity=".41961" stroke-width=".05"/>
<path d="m337.6 21.1q-0.95 1-1.25 4.2 0.9 8.35 4.6 11.1 0.75-2.25 1-4.25-3.35 0.35-4.35-11.05" fill="#c90" fill-rule="evenodd"/>
<path d="m337.6 21.1q1 11.4 4.35 11.05 0.8-5.6-1.6-10.4-1.75-1.6-2.75-0.65" fill="#fc3" fill-rule="evenodd"/>
<path d="m341.95 32.15q-0.25 2-1 4.25-3.7-2.75-4.6-11.1 0.3-3.2 1.25-4.2m4.35 11.05q0.8-5.6-1.6-10.4-1.75-1.6-2.75-0.65" fill="none" stroke="#000" stroke-linecap="round" stroke-linejoin="round" stroke-opacity=".41961" stroke-width=".05"/>
<path d="m333.4 28.8q-0.8 1.2-0.45 4.25 2.5 7.3 6.85 8.5 0.3-2.3 0.2-4.2-3.3 1.5-6.6-8.55" fill="#c90" fill-rule="evenodd"/>
<path d="m333.4 28.8q3.3 10.05 6.6 8.55-0.25-5.45-3.7-8.95-2.05-0.85-2.9 0.4" fill="#fc3" fill-rule="evenodd"/>
<path d="m340 37.35q0.1 1.9-0.2 4.2-4.35-1.2-6.85-8.5-0.35-3.05 0.45-4.25m6.6 8.55q-0.25-5.45-3.7-8.95-2.05-0.85-2.9 0.4" fill="none" stroke="#000" stroke-linecap="round" stroke-linejoin="round" stroke-opacity=".41961" stroke-width=".05"/>
<path d="m332 35.1q-0.75 1.2-0.55 4.15 1.95 6.9 5.8 7.75l0.45-4.05q-3.1 1.65-5.7-7.85" fill="#c90" fill-rule="evenodd"/>
<path d="m332 35.1q2.6 9.5 5.7 7.85-0.05-5.25-3.05-8.45-1.8-0.65-2.65 0.6" fill="#fc3" fill-rule="evenodd"/>
<path d="m337.7 42.95-0.45 4.05q-3.85-0.85-5.8-7.75-0.2-2.95 0.55-4.15m5.7 7.85q-0.05-5.25-3.05-8.45-1.8-0.65-2.65 0.6" fill="none" stroke="#000" stroke-linecap="round" stroke-linejoin="round" stroke-opacity=".41961" stroke-width=".05"/>
<path d="m349.6 18.2q0.45 1.2-0.3 4.1-3.2 6.85-6.9 7.8 0.05-2.15 0.5-4 2.45 1.5 6.7-7.9" fill="#c90" fill-rule="evenodd"/>
<path d="m349.6 18.2q-4.25 9.4-6.7 7.9 1.1-5.15 4.4-8.4 1.8-0.75 2.3 0.5" fill="#fc3" fill-rule="evenodd"/>
<path d="m342.9 26.1q-0.45 1.85-0.5 4 3.7-0.95 6.9-7.8 0.75-2.9 0.3-4.1m-6.7 7.9q1.1-5.15 4.4-8.4 1.8-0.75 2.3 0.5" fill="none" stroke="#000" stroke-linecap="round" stroke-linejoin="round" stroke-opacity=".41961" stroke-width=".05"/>
<path d="m351.25 25.6q0.25 1.35-1.35 4.1-5.35 6.15-9.85 6.05 0.6-2.25 1.5-4.05 2.5 2.35 9.7-6.1" fill="#c90" fill-rule="evenodd"/>
<path d="m351.25 25.6q-7.2 8.45-9.7 6.1 2.55-5 7.15-7.3 2.35-0.25 2.55 1.2" fill="#fc3" fill-rule="evenodd"/>
<path d="m341.55 31.7q-0.9 1.8-1.5 4.05 4.5 0.1 9.85-6.05 1.6-2.75 1.35-4.1m-9.7 6.1q2.55-5 7.15-7.3 2.35-0.25 2.55 1.2" fill="none" stroke="#000" stroke-linecap="round" stroke-linejoin="round" stroke-opacity=".41961" stroke-width=".05"/>
<path d="m349.4 34.45q-0.05 1.45-1.85 3.65-5.65 4.25-9.45 2.45 0.95-2.05 2.1-3.5 1.6 3.25 9.2-2.6" fill="#c90" fill-rule="evenodd"/>
<path d="m349.4 34.45q-7.6 5.85-9.2 2.6 3-4.15 7.3-4.75 2 0.6 1.9 2.15" fill="#fc3" fill-rule="evenodd"/>
<path d="m340.2 37.05q-1.15 1.45-2.1 3.5 3.8 1.8 9.45-2.45 1.8-2.2 1.85-3.65m-9.2 2.6q3-4.15 7.3-4.75 2 0.6 1.9 2.15" fill="none" stroke="#000" stroke-linecap="round" stroke-linejoin="round" stroke-opacity=".41961" stroke-width=".05"/>
<path d="m347.8 40.35q-0.1 1.45-1.8 3.65-5.3 4.25-8.75 2.45 0.9-2 1.95-3.45 1.45 3.25 8.6-2.65" fill="#c90" fill-rule="evenodd"/>
<path d="m347.8 40.35q-7.15 5.9-8.6 2.65 2.85-4.2 6.8-4.8 1.85 0.6 1.8 2.15" fill="#fc3" fill-rule="evenodd"/>
<path d="m339.2 43q-1.05 1.45-1.95 3.45 3.45 1.8 8.75-2.45 1.7-2.2 1.8-3.65m-8.6 2.65q2.85-4.2 6.8-4.8 1.85 0.6 1.8 2.15" fill="none" stroke="#000" stroke-linecap="round" stroke-linejoin="round" stroke-opacity=".41961" stroke-width=".05"/>
<path d="m330.6 41.1q-0.75 1.2-0.55 4.15 1.95 6.9 5.8 7.75l0.45-4.05q-3.1 1.65-5.7-7.85" fill="#c90" fill-rule="evenodd"/>
<path d="m330.6 41.1q2.6 9.5 5.7 7.85-0.05-5.25-3.05-8.45-1.8-0.65-2.65 0.6" fill="#fc3" fill-rule="evenodd"/>
<path d="m336.3 48.95-0.45 4.05q-3.85-0.85-5.8-7.75-0.2-2.95 0.55-4.15m5.7 7.85q-0.05-5.25-3.05-8.45-1.8-0.65-2.65 0.6" fill="none" stroke="#000" stroke-linecap="round" stroke-linejoin="round" stroke-opacity=".41961" stroke-width=".05"/>
<path d="m346.35 46.35q-0.1 1.45-1.8 3.65-5.3 4.25-8.75 2.45 0.9-2 1.95-3.45 1.45 3.25 8.6-2.65" fill="#c90" fill-rule="evenodd"/>
<path d="m346.35 46.35q-7.15 5.9-8.6 2.65 2.85-4.2 6.8-4.8 1.85 0.6 1.8 2.15" fill="#fc3" fill-rule="evenodd"/>
<path d="m337.75 49q-1.05 1.45-1.95 3.45 3.45 1.8 8.75-2.45 1.7-2.2 1.8-3.65m-8.6 2.65q2.85-4.2 6.8-4.8 1.85 0.6 1.8 2.15" fill="none" stroke="#000" stroke-linecap="round" stroke-linejoin="round" stroke-opacity=".41961" stroke-width=".05"/>
<path d="m327.95 45.8q-0.75 1.2-0.55 4.15 1.95 6.9 5.8 7.75l0.45-4.05q-3.1 1.65-5.7-7.85" fill="#c90" fill-rule="evenodd"/>
<path d="m327.95 45.8q2.6 9.5 5.7 7.85-0.05-5.25-3.05-8.45-1.8-0.65-2.65 0.6" fill="#fc3" fill-rule="evenodd"/>
<path d="m333.65 53.65-0.45 4.05q-3.85-0.85-5.8-7.75-0.2-2.95 0.55-4.15m5.7 7.85q-0.05-5.25-3.05-8.45-1.8-0.65-2.65 0.6" fill="none" stroke="#000" stroke-linecap="round" stroke-linejoin="round" stroke-opacity=".41961" stroke-width=".05"/>
<path d="m343.7 51.2q-0.1 1.45-1.8 3.65-5.3 4.25-8.75 2.45 0.9-2 1.95-3.45 1.45 3.25 8.6-2.65" fill="#c90" fill-rule="evenodd"/>
<path d="m343.7 51.2q-7.15 5.9-8.6 2.65 2.85-4.2 6.8-4.8 1.85 0.6 1.8 2.15" fill="#fc3" fill-rule="evenodd"/>
<path d="m335.1 53.85q-1.05 1.45-1.95 3.45 3.45 1.8 8.75-2.45 1.7-2.2 1.8-3.65m-8.6 2.65q2.85-4.2 6.8-4.8 1.85 0.6 1.8 2.15" fill="none" stroke="#000" stroke-linecap="round" stroke-linejoin="round" stroke-opacity=".41961" stroke-width=".05"/>
<path d="m322.6 23.6q-0.55 0.5-0.45 2.8 1.45 6.1 4.4 8.55l0.3-2.9q-2.35-0.2-4.25-8.45" fill="#c90" fill-rule="evenodd"/>
<path d="m322.6 23.6q1.9 8.25 4.25 8.45 0-3.9-2.25-7.65-1.4-1.4-2-0.8" fill="#fc3" fill-rule="evenodd"/>
<path d="m326.85 32.05-0.3 2.9q-2.95-2.45-4.4-8.55-0.1-2.3 0.45-2.8m4.25 8.45q0-3.9-2.25-7.65-1.4-1.4-2-0.8" fill="none" stroke="#000" stroke-linecap="round" stroke-linejoin="round" stroke-opacity=".41961" stroke-width=".05"/>
<path d="m322.55 30.9q-0.4 0.75 0.05 2.95 2.3 5.4 5.25 6.65l-0.2-2.95q-2.1 0.75-5.1-6.65" fill="#c90" fill-rule="evenodd"/>
<path d="m322.55 30.9q3 7.4 5.1 6.65-0.65-3.8-3.2-6.6l-1.9-0.05" fill="#fc3" fill-rule="evenodd"/>
<path d="m327.65 37.55 0.2 2.95q-2.95-1.25-5.25-6.65-0.45-2.2-0.05-2.95m5.1 6.65q-0.65-3.8-3.2-6.6l-1.9-0.05" fill="none" stroke="#000" stroke-linecap="round" stroke-linejoin="round" stroke-opacity=".41961" stroke-width=".05"/>
<path d="m321.85 36.6q-0.3 0.95 0.7 3 3.5 4.8 6.75 5.1l-0.8-2.95q-2 1.4-6.65-5.15" fill="#c90" fill-rule="evenodd"/>
<path d="m321.85 36.6q4.65 6.55 6.65 5.15-1.5-3.65-4.7-5.7-1.65-0.35-1.95 0.55" fill="#fc3" fill-rule="evenodd"/>
<path d="m328.5 41.75 0.8 2.95q-3.25-0.3-6.75-5.1-1-2.05-0.7-3m6.65 5.15q-1.5-3.65-4.7-5.7-1.65-0.35-1.95 0.55" fill="none" stroke="#000" stroke-linecap="round" stroke-linejoin="round" stroke-opacity=".41961" stroke-width=".05"/>
<path d="m321.95 42.8q-0.1 1 1.2 2.75 4.15 3.55 7.25 2.7l-1.35-2.65q-1.55 2.15-7.1-2.8" fill="#c90" fill-rule="evenodd"/>
<path d="m321.95 42.8q5.55 4.95 7.1 2.8-2.05-3.2-5.45-4.1-1.65 0.25-1.65 1.3" fill="#fc3" fill-rule="evenodd"/>
<path d="m329.05 45.6 1.35 2.65q-3.1 0.85-7.25-2.7-1.3-1.75-1.2-2.75m7.1 2.8q-2.05-3.2-5.45-4.1-1.65 0.25-1.65 1.3" fill="none" stroke="#000" stroke-linecap="round" stroke-linejoin="round" stroke-opacity=".41961" stroke-width=".05"/>
<path d="m323.3 47.15q-0.1 1 1.05 2.7 3.75 3.55 6.45 2.65l-1.2-2.65q-1.35 2.15-6.3-2.7" fill="#c90" fill-rule="evenodd"/>
<path d="m323.3 47.15q4.95 4.85 6.3 2.7-1.9-3.15-4.85-4-1.45 0.25-1.45 1.3" fill="#fc3" fill-rule="evenodd"/>
<path d="m329.6 49.85 1.2 2.65q-2.7 0.9-6.45-2.65-1.15-1.7-1.05-2.7m6.3 2.7q-1.9-3.15-4.85-4-1.45 0.25-1.45 1.3" fill="none" stroke="#000" stroke-linecap="round" stroke-linejoin="round" stroke-opacity=".41961" stroke-width=".05"/>
<path d="m328.3 30.5q0.7 0.55 1.2 2.6 0.45 5.3-1.5 7.2l-1.15-2.65q2.1 0.1 1.45-7.15" fill="#c90" fill-rule="evenodd"/>
<path d="m328.3 30.5q0.65 7.25-1.45 7.15-1.15-3.5-0.15-6.65 0.85-1.1 1.6-0.5" fill="#fc3" fill-rule="evenodd"/>
<path d="m326.85 37.65 1.15 2.65q1.95-1.9 1.5-7.2-0.5-2.05-1.2-2.6m-1.45 7.15q-1.15-3.5-0.15-6.65 0.85-1.1 1.6-0.5" fill="none" stroke="#000" stroke-linecap="round" stroke-linejoin="round" stroke-opacity=".41961" stroke-width=".05"/>
<path d="m331.9 34.4q0.65 0.75 0.6 3.05-1.15 5.65-4 7.2-0.4-1.55-0.45-3 2.35 0.5 3.85-7.25" fill="#c90" fill-rule="evenodd"/>
<path d="m331.9 34.4q-1.5 7.75-3.85 7.25-0.2-3.95 1.85-7 1.35-0.95 2-0.25" fill="#fc3" fill-rule="evenodd"/>
<path d="m328.05 41.65q0.05 1.45 0.45 3 2.85-1.55 4-7.2 0.05-2.3-0.6-3.05m-3.85 7.25q-0.2-3.95 1.85-7 1.35-0.95 2-0.25" fill="none" stroke="#000" stroke-linecap="round" stroke-linejoin="round" stroke-opacity=".41961" stroke-width=".05"/>
<path d="m333.9 40.5q0.5 0.9 0.1 2.95-2 4.6-4.95 4.85-0.15-1.55 0-2.85 2.2 1.4 4.85-4.95" fill="#c90" fill-rule="evenodd"/>
<path d="m333.9 40.5q-2.65 6.35-4.85 4.95 0.45-3.65 2.9-5.55 1.45-0.35 1.95 0.6" fill="#fc3" fill-rule="evenodd"/>
<path d="m329.05 45.45q-0.15 1.3 0 2.85 2.95-0.25 4.95-4.85 0.4-2.05-0.1-2.95m-4.85 4.95q0.45-3.65 2.9-5.55 1.45-0.35 1.95 0.6" fill="none" stroke="#000" stroke-linecap="round" stroke-linejoin="round" stroke-opacity=".41961" stroke-width=".05"/>
<path d="m334.95 44.7q0.45 0.9 0.2 2.9-1.8 4.5-4.6 4.65l-0.05-2.8q2.1 1.45 4.45-4.75" fill="#c90" fill-rule="evenodd"/>
<path d="m334.95 44.7q-2.35 6.2-4.45 4.75 0.35-3.55 2.6-5.4 1.35-0.3 1.85 0.65" fill="#fc3" fill-rule="evenodd"/>
<path d="m330.5 49.45 0.05 2.8q2.8-0.15 4.6-4.65 0.25-2-0.2-2.9m-4.45 4.75q0.35-3.55 2.6-5.4 1.35-0.3 1.85 0.65" fill="none" stroke="#000" stroke-linecap="round" stroke-linejoin="round" stroke-opacity=".41961" stroke-width=".05"/>
<path d="m324.5 51.3q-0.1 1 1.05 2.7 3.75 3.55 6.45 2.65l-1.2-2.65q-1.35 2.15-6.3-2.7" fill="#c90" fill-rule="evenodd"/>
<path d="m324.5 51.3q4.95 4.85 6.3 2.7-1.9-3.15-4.85-4-1.45 0.25-1.45 1.3" fill="#fc3" fill-rule="evenodd"/>
<path d="m330.8 54 1.2 2.65q-2.7 0.9-6.45-2.65-1.15-1.7-1.05-2.7m6.3 2.7q-1.9-3.15-4.85-4-1.45 0.25-1.45 1.3" fill="none" stroke="#000" stroke-linecap="round" stroke-linejoin="round" stroke-opacity=".41961" stroke-width=".05"/>
<path d="m336.1 48.8q0.45 0.9 0.2 2.9-1.8 4.5-4.6 4.65l-0.05-2.8q2.1 1.45 4.45-4.75" fill="#c90" fill-rule="evenodd"/>
<path d="m336.1 48.8q-2.35 6.2-4.45 4.75 0.35-3.55 2.6-5.4 1.35-0.3 1.85 0.65" fill="#fc3" fill-rule="evenodd"/>
<path d="m331.65 53.55 0.05 2.8q2.8-0.15 4.6-4.65 0.25-2-0.2-2.9m-4.45 4.75q0.35-3.55 2.6-5.4 1.35-0.3 1.85 0.65" fill="none" stroke="#000" stroke-linecap="round" stroke-linejoin="round" stroke-opacity=".41961" stroke-width=".05"/>
<path d="m324.5 55.1q-0.1 1 1.05 2.7 3.75 3.55 6.45 2.65l-1.2-2.65q-1.35 2.15-6.3-2.7" fill="#c90" fill-rule="evenodd"/>
<path d="m324.5 55.1q4.95 4.85 6.3 2.7-1.9-3.15-4.85-4-1.45 0.25-1.45 1.3" fill="#fc3" fill-rule="evenodd"/>
<path d="m330.8 57.8 1.2 2.65q-2.7 0.9-6.45-2.65-1.15-1.7-1.05-2.7m6.3 2.7q-1.9-3.15-4.85-4-1.45 0.25-1.45 1.3" fill="none" stroke="#000" stroke-linecap="round" stroke-linejoin="round" stroke-opacity=".41961" stroke-width=".05"/>
<path d="m336.25 52.75q0.45 0.9 0.2 2.9-1.8 4.5-4.6 4.65l-0.05-2.8q2.1 1.45 4.45-4.75" fill="#c90" fill-rule="evenodd"/>
<path d="m336.25 52.75q-2.35 6.2-4.45 4.75 0.35-3.55 2.6-5.4 1.35-0.3 1.85 0.65" fill="#fc3" fill-rule="evenodd"/>
<path d="m331.8 57.5 0.05 2.8q2.8-0.15 4.6-4.65 0.25-2-0.2-2.9m-4.45 4.75q0.35-3.55 2.6-5.4 1.35-0.3 1.85 0.65" fill="none" stroke="#000" stroke-linecap="round" stroke-linejoin="round" stroke-opacity=".41961" stroke-width=".05"/>
</g>
<linearGradient id="f" x1="-819.2" x2="819.2" gradientTransform="matrix(-.0182 -.0434 .0735 -.0309 319.55 138.4)" gradientUnits="userSpaceOnUse">
<stop stop-color="#005300" offset="0"/>
<stop stop-color="#657d02" offset="1"/>
</linearGradient>
<linearGradient id="e" x1="-819.2" x2="819.2" gradientTransform="matrix(-.0083 .0316 -.0441 -.0116 302.6 65.6)" gradientUnits="userSpaceOnUse">
<stop stop-color="#030" offset="0"/>
<stop stop-color="#332300" offset="1"/>
</linearGradient>
<linearGradient id="d" x1="-819.2" x2="819.2" gradientTransform="matrix(.0206 0 0 .0207 337 72)" gradientUnits="userSpaceOnUse">
<stop stop-color="#030" offset="0"/>
<stop stop-color="#332300" offset="1"/>
</linearGradient>
<linearGradient id="o" x1="-819.2" x2="819.2" gradientTransform="matrix(.0361 0 0 .0794 345.75 135.55)" gradientUnits="userSpaceOnUse">
<stop stop-color="#a29600" offset="0"/>
<stop stop-color="#6e6000" offset="1"/>
</linearGradient>
<linearGradient id="n" x1="-819.2" x2="819.2" gradientTransform="matrix(.0864 0 0 .1078 292.95 182.45)" gradientUnits="userSpaceOnUse">
<stop stop-color="#030" offset="0"/>
<stop stop-color="#332300" offset="1"/>
</linearGradient>
<linearGradient id="m" x1="-819.2" x2="819.2" gradientTransform="matrix(.0161 0 0 .0621 281.8 139.85)" gradientUnits="userSpaceOnUse">
<stop stop-color="#030" offset="0"/>
<stop stop-color="#332300" offset="1"/>
</linearGradient>
<linearGradient id="l" x1="-819.2" x2="819.2" gradientTransform="matrix(-.0175 -.01 .0198 -.0345 270.45 228.7)" gradientUnits="userSpaceOnUse">
<stop stop-color="#005300" offset="0"/>
<stop stop-color="#657d02" offset="1"/>
</linearGradient>
</defs>
</svg>
