<?xml version="1.0" encoding="UTF-8"?>
<svg version="1.1" viewBox="0 0 51.668 39.769" xmlns="http://www.w3.org/2000/svg" xmlns:cc="http://creativecommons.org/ns#" xmlns:dc="http://purl.org/dc/elements/1.1/" xmlns:rdf="http://www.w3.org/1999/02/22-rdf-syntax-ns#" xmlns:xlink="http://www.w3.org/1999/xlink">
<metadata>
<rdf:RDF>
<cc:Work rdf:about="">
<dc:format>image/svg+xml</dc:format>
<dc:type rdf:resource="http://purl.org/dc/dcmitype/StillImage"/>
</cc:Work>
</rdf:RDF>
</metadata>
<g transform="translate(-326.89 -162.81)">
<use transform="matrix(.9426 0 0 .7928 338.39 157.17)" width="50.150002" height="54.599998" xlink:href="#h"/>
<use transform="matrix(-.1564 -.1119 -.1135 .1587 371.87 174.04)" width="172.89999" height="162.85001" xlink:href="#c"/>
<use transform="matrix(.0518 .1139 -.1139 .0518 358.95 172.25)" width="90.949997" height="83.849998" xlink:href="#a"/>
<use transform="matrix(-.024 .1226 -.1226 -.024 357.22 177.39)" width="90.949997" height="83.849998" xlink:href="#a"/>
<use transform="matrix(-.0324 .1206 .1206 .0324 338.09 173.23)" width="90.949997" height="83.849998" xlink:href="#a"/>
<use transform="matrix(.1469 0 0 .1469 330.85 177.53)" width="162.05" height="171.14999" xlink:href="#b"/>
<use transform="translate(337.15,192.75)" width="13.5" height="6.9499998" xlink:href="#f"/>
<use transform="matrix(.2165 0 0 .2165 332.41 172.23)" width="162.05" height="171.14999" xlink:href="#b"/>
<use transform="translate(343.5,197.2)" width="18.15" height="5.3499999" xlink:href="#e"/>
<use transform="matrix(.1943 -.0205 .0205 .1943 321.71 163.73)" width="172.89999" height="162.85001" xlink:href="#c"/>
<use transform="translate(345.6,178.5)" width="13.45" height="7.9499998" xlink:href="#j"/>
<use transform="matrix(.0518 .1139 -.1139 .0518 350.6 173.2)" width="90.949997" height="83.849998" xlink:href="#a"/>
<use transform="matrix(.0439 .1172 .1172 -.0439 332.57 180.99)" width="90.949997" height="83.849998" xlink:href="#a"/>
<use transform="translate(351.4,184.75)" width="8.5500002" height="3.6500001" xlink:href="#i"/>
</g>
<defs>
<g id="h" transform="translate(25.1,24)">
<use transform="matrix(-.1564 -.1119 -.1135 .1587 25.066 -4.6554)" width="172.89999" height="162.85001" xlink:href="#c"/>
<use transform="matrix(.0518 .1139 -.1139 .0518 12.15 -6.4454)" width="90.949997" height="83.849998" xlink:href="#a"/>
<use transform="matrix(-.024 .1226 -.1226 -.024 10.424 -1.3059)" width="90.949997" height="83.849998" xlink:href="#a"/>
<use transform="matrix(-.0324 .1206 .1206 .0324 -8.7064 -5.4746)" width="90.949997" height="83.849998" xlink:href="#a"/>
<use transform="matrix(.1469 0 0 .1469 -15.949 -1.167)" width="162.05" height="171.14999" xlink:href="#b"/>
<use transform="translate(-9.65,14.05)" width="13.5" height="6.9499998" xlink:href="#f"/>
<use transform="matrix(.2165 0 0 .2165 -14.387 -6.4722)" width="162.05" height="171.14999" xlink:href="#b"/>
<use transform="translate(-3.3,18.5)" width="18.15" height="5.3499999" xlink:href="#e"/>
<use transform="matrix(.1943 -.0205 .0205 .1943 -25.088 -14.974)" width="172.89999" height="162.85001" xlink:href="#c"/>
<use transform="translate(-1.2 -.2)" width="13.45" height="7.9499998" xlink:href="#l"/>
<use transform="matrix(.0518 .1139 -.1139 .0518 3.8003 -5.4954)" width="90.949997" height="83.849998" xlink:href="#a"/>
<use transform="matrix(.0439 .1172 .1172 -.0439 -14.226 2.2863)" width="90.949997" height="83.849998" xlink:href="#a"/>
<use transform="translate(4.6,6.05)" width="8.5500002" height="3.6500001" xlink:href="#k"/>
</g>
<g id="c" transform="translate(1.2 .25)">
<use transform="matrix(-.4576 .8883 .8883 .4576 42.153 43.423)" width="90.949997" height="83.849998" xlink:href="#a"/>
<use transform="matrix(-1.119 .264 .264 1.119 100.55 -.2594)" width="90.949997" height="83.849998" xlink:href="#a"/>
<use transform="matrix(.9981 .0479 -.0479 .9981 80.907 20.963)" width="90.949997" height="83.849998" xlink:href="#a"/>
</g>
<g id="a" transform="translate(-2.35 .25)">
<use transform="translate(23.85,43.9)" width="47.799999" height="39.400002" xlink:href="#d"/>
<use transform="matrix(1.4222 -.5827 .5827 1.4222 2.3467 27.588)" width="47.799999" height="39.400002" xlink:href="#d"/>
</g>
<g id="d" transform="translate(-1.65)">
<use transform="translate(1.65)" width="47.799999" height="39.400002" xlink:href="#p"/>
</g>
<g id="p" transform="translate(-1.65)">
<path d="m8.9 1.8q-4 5.05 1.55 8.9-1.85 1.05-2.9 2.55-4.45 6.1-5.3 25.65-2.65-31.3 6.65-37.1" fill="#676a33" fill-rule="evenodd"/>
<path d="m48.95 9.8-6.65-1.2-1.4-0.1-11.1-0.85q-13.55-0.45-19.35 3.05-5.55-3.85-1.55-8.9 0.85-0.55 1.85-0.85 12.2-3.95 38.2 8.85" fill="#7f7f4a" fill-rule="evenodd"/>
<path d="m10.45 10.7q5.8-3.5 19.35-3.05l11.1 0.85 1.4 0.1 6.65 1.2-12.25 0.6q-16.1 1.75-24.7 9.1-6.85-1.8-1.55-8.8" fill="#60602e" fill-rule="evenodd"/>
<path d="m10.45 10.7q-5.3 7 1.55 8.8-8.4 7.1-9.75 19.4 0.85-19.55 5.3-25.65 1.05-1.5 2.9-2.55" fill="#504f26" fill-rule="evenodd"/>
<path d="m12 19.5q8.6-7.35 24.7-9.1l12.25-0.6m-46.7 29.1q1.35-12.3 9.75-19.4" fill="none" stroke="#000" stroke-linecap="round" stroke-linejoin="round" stroke-opacity=".4" stroke-width=".05"/>
<path d="m48.95 9.8-6.65-1.2-1.4-0.1-11.1-0.85q-13.55-0.45-19.35 3.05-1.85 1.05-2.9 2.55-4.45 6.1-5.3 25.65" fill="none" stroke="#8c8b67" stroke-linecap="round" stroke-linejoin="round"/>
<path d="m48.95 9.8q-26-12.8-38.2-8.85-1 0.3-1.85 0.85m-6.65 37.1q-2.65-31.3 6.65-37.1" fill="none" stroke="#a4a297" stroke-linecap="round" stroke-linejoin="round" stroke-width=".05"/>
</g>
<g id="b" transform="translate(81,85.55)">
<use transform="translate(-46.65,-62.65)" width="109.8" height="112.65" xlink:href="#o"/>
<clipPath id="s" transform="translate(81 85.55)">
<use transform="translate(-46.65,-62.65)" width="109.7" height="112.65" xlink:href="#n"/>
</clipPath>
<g clip-path="url(#s)">
<use transform="matrix(.7056 -.4074 .5 .866 -81 -30.8)" width="134.39999" height="134.39999" xlink:href="#g"/>
</g>
</g>
<g id="o" transform="translate(46.65,62.65)">
<path d="m-40.9-28.25q1.25-3.6 3.05-7.1l2.05-3.9 0.75-1.3q0.6-1.7 1.45-4.85l0.4 1.95q3.3-4.85 6.95-7.95l0.9-0.7 1.85-1.35 0.3-0.2 1.3-2.5h0.05l1 2 6.9 3.25-1.05 2.6-0.1 0.35 0.1-0.35 1.05-2.6 1.35-2.5 1.95 2.05q5.25-6 10.25-8.9l0.2-0.15 0.15-0.05q5.15 1.2 10.45 3.05h-5.2q-5.2 0.85-9.1 3.35-3.5 2.25-3.5 3.95t9.8 6.25q3.1 1.45 6.9 3.1-0.35 0.6-0.45 1.4 0.1-0.8 0.45-1.4 0.4-0.75 1.1-1.15l1.65 2.4 1.05 1.45 0.45-0.8q2.8-4.95 5.75-9.35l1.45-2.15 1-2.45 0.15-1.6q0.7 0.15 1.3 0.65l0.8 0.9 1.25 1.7 0.55 0.25 0.4 0.2 5.1 2.7-4.1-0.2q-2.25 0-6 4.4-3.6 4.2-3.6 6 0 1.1 3.95 3.7l6.85 4.5q2.8 2.1 6.1 5.95v-0.05l1.65-0.45 0.6 1.2 3.75-15.45q1.15-1.85 1.55-3.25l0.1-0.35q0.55-2.05-0.25-3.15v-1.25q1.2 1.05 2.95 7.2l0.7 0.75 2.25 2.7-1.7-0.45q-7.7 0-7.7 13.4 0 2.5 6.55 7.45 6.1 4.6 9.45 8.15l0.8 0.9v1.5l1.1 0.3q1.55 0.65 3.8 2.8l1.5 1.45 0.25 3.65-0.2 0.4-2.3-2.6-5.4-5.65 0.45-2.75-0.45 2.75 5.4 5.65q-3.4 0.85-4.3 1.9-0.75 0.85-1.05 3.5l-0.8 8q0 2 1.8 3.7l3.3 3.35-0.7 1.6-3.95-2.3-0.95-0.55-2.05-3.05-0.35-0.55 0.35 0.55 2.05 3.05 0.95 0.55-2.35 2.1-3 3 0.1-0.45 0.75-3.1v-4.3q-6.7-4.2-15.35-10.1l-1.2-0.8-2.9-4.75 0.25-0.85 2.25-7.6 1.6-5.75 0.65-2.3 0.45-3.6-0.4-3.65-9.65-7.6-3.5-2.6q-4.55 0.1-9.4 2.75l-1.65 0.95-1.3 4.15q-1.35 4.15-1.35 5.75 0 5.65 9.55 12.1 4.2 2.85 11.2 6.6-1.05 1.4-1.3 2.6 0.25-1.2 1.3-2.6l0.25-0.3 0.3 0.6 0.75 1.35 2.9 4.75 1.2 0.8q-1.5 0.55-2.6 1.5l-1.85 1.6q-3.95 8.25-3.95 18.15 0 3.8 7.95 8.65 4.8 2.9 7.65 4.95l-1.1 0.55-2.05-0.75q-4.8-1.8-10.3-4.45l-3.6-1.75-0.25-0.15q-0.8-0.95-2.55-4l-1-1.45 1 1.45q1.75 3.05 2.55 4l0.25 0.15 3.6 1.75-5.9-0.45h-0.15l0.1 0.05q-0.85 0.25-2.2 2.35-1.5 2.35-1.5 3.95t6.05 3l3.3 0.65-7.25 1.5-6.45 0.6 4.05-11.5 0.1-0.05-0.05-0.1 0.6-1.65 0.15-3.1-8.5-4.95-7.25-4.65-7.2-5.2-2.25-1.8-1.4-2.3 1.4 2.3 2.25 1.8 7.2 5.2-6.15-0.35q-7.7 0-7.7 12.2 0 2.4 1.85 4.2l5.15 4 4.65 4.5 0.3 0.3-2.85-0.75q-5.2-3.1-9.85-6.65l-2-3.5 0.55-2.8-0.55 2.8-1.4-2.05 0.25 3.05q-4.85-4.05-9.15-8.6-7.4-7.85-12.65-16.9l-1.25-5.7-0.1-0.45 0.55-2.7 2.2-8.5 1.05-3.35 0.9-2.65 0.2-0.55v-7.9h0.25l1.2 4 2.65-6.4 2.55-5.5 1.45-3 0.1-0.15 0.15-0.25 1.2-5.2 0.45-1.75q0.8 0.35 1.4 1.4l3.6-5.95 1.4-2.05 0.4-0.55 1.45-4.15q-5.75-3.85-7.8-3.85-2.55 0-5.65 3.45-2.55 2.75-3.8 6.2l-0.5 1.6-0.35 0.15q-1.5 0.8-3 4.8-1.8 4.65-1.8 7.9 0 1.5 0.8 5.75l-2.5-4.25 2.5 4.25 2.35 4.05 1.25 2.2-2.8-3.45-0.15-0.2-0.15-0.15q-2.5-2.9-3.1-2.9-2.4 0-2.4 10.6 0 10.05 2.6 17.2v2.9q-2.45-5-4.3-10.3l-0.45-1.35-0.15-4.65q0.05-8.85 2.6-17.2l0.05-1.6q0-1.35-0.5-3.85l1.4 2.55 1.25 1.9-1.2-2.05m7.7-15.2 0.05 0.6 0.8 0.7-0.8-0.7-0.05-0.6m27.95-3.15-2.5-1.25-2.9-3.5 2.9 3.5 2.5 1.25q-4.15 0.2-7.95 2.1l-1.5 3.1q-1.3 2.9-1.3 4.5 0 4.3 9.1 11 6.6 4.9 10.85 6.6l2.35-5.35 0.9-1.85 0.4-0.85 1.05-6.8q-0.05-2.7 0.05-4.2l0.15-1-2.95-1.55-11.15-5.7m-10.6 18.2h-5.85q-1.65 2.1-3.65 6.35-2.45 5.15-2.45 7.65 0 1.4 8.4 14.2 2.05 4.4 7.4 9.25l1.05 0.95-0.4-1.4 1.05 1.95 1.8 3.55 0.3 0.55 0.6-2 4.1-12.7 0.45-1.25 1.75-4.85 0.3-0.8 1.15-9.05-16-12.4-1.8-1.4-2.25-1.85-0.85-0.7-0.75-1.8-0.45-1.1 0.45 1.1 0.75 1.8 0.85 0.7 2.25 1.85 1.8 1.4m24.3 18.55-2.6-1.95-3.1-4.7 1.2-2.8-1.2 2.8 3.1 4.7 2.6 1.95q-2.8 0.5-4.25 1.45-1.65 1.15-3.4 3.4l-0.75 0.95-1.7 7.4q-1.45 6.1-1.45 9.35 0 6.6 8.3 11.75 5.85 3.6 12.7 4.85v0.05q0 1.75 0.5 3.85v0.35-0.35q-0.5-2.1-0.5-3.85 1.2 0.35 2.25 1.6l0.45-1.25 5-14.8 1.3-3.8 0.15-0.45 0.35-2.95q-0.35-2.65-0.35-3.6l0.05-0.6-6.35-4.5-12.3-8.85m4.65-28.2 2.25 2.6 6 4.05-6-4.05-2.25-2.6m23.65 15.1q1.45 2.8 3.85 6.7l4.1 3.3-4.1-3.3q-2.4-3.9-3.85-6.7m13.55 39.75 2.85-16.3 0.8-4.95-9.25-8.5q-2.65 0.55-6.6 2.6-2.55 2.8-3.65 5.15-1.45 2.95-1.45 6.8 0 2.9 7.8 9.2 4.85 3.95 8.35 5.8v1.6-2.85l1.15 1.45m-15.8-38-0.1-1.1 0.1-1.35-0.1 1.35 0.1 1.1m-31.75 4.7-2.1-2.65-0.5 3.15 0.5-3.15 2.1 2.65m-16.15 51.6q1.6-7.65 3.9-15.95l0.1-0.3 0.05-0.75q0-1.3-0.5-3.75-9.15-7.95-15.4-16.7l-4-6.05-0.1-0.2h-3.2l-2.15 7.55q-1.1 3.6-1.1 6.75 0 3.9 2 7.2l6 9.5q2.2 3.8 8.8 8.8l5.6 3.9m2.45-25.1 1.1 4.35-1.1-4.35m-18.4-18.6-0.75-1.25q-0.8-1.45-1.8-4.55 1 3.1 1.8 4.55l0.75 1.25" fill="url(#r)" fill-rule="evenodd"/>
<path d="m-21.9-56.15v-0.05l0.05 0.05h-0.05m0.7 1.3 4.2-2.05q3.55-1.55 7.85-2.7l1.6-0.4 5.8-0.85 1.85-0.1q0.4-0.95 0.3-1.7 2.05 1 4.5 1.85l0.5 0.05q9.15 0.9 18.65 5.8v-2.55h0.5q1.35 1.4 3.6 4.85l0.5 0.3 2.7 1.7q5.55 3.75 10.1 8l0.7 0.65-0.1 0.35q-0.4 1.4-1.55 3.25l-3.75 15.45-0.6-1.2-1.65 0.45v0.05q-3.3-3.85-6.1-5.95l-6.85-4.5q-3.95-2.6-3.95-3.7 0-1.8 3.6-6 3.75-4.4 6-4.4l4.1 0.2-5.1-2.7-0.4-0.2-0.55-0.25-1.25-1.7-0.8-0.9q-0.6-0.5-1.3-0.65l-0.15 1.6-1 2.45-1.45 2.15q-2.95 4.4-5.75 9.35l-0.45 0.8-1.05-1.45-1.65-2.4q-0.7 0.4-1.1 1.15-3.8-1.65-6.9-3.1-9.8-4.55-9.8-6.25t3.5-3.95q3.9-2.5 9.1-3.35h5.2q-5.3-1.85-10.45-3.05l-0.15 0.05-0.2 0.15q-5 2.9-10.25 8.9l-1.95-2.05-1.35 2.5-6.9-3.25-0.35-0.7m69 19.1q5.25 6.55 8.45 14.25l0.3 0.7 0.6-4.35h0.25q0.55 1.5 0.5 5.55v2.55l0.95 3.15 0.1 0.3v0.15q1.95 7.4 2.65 13.2l-1.5-1.45q-2.25-2.15-3.8-2.8l-1.1-0.3v-1.5l-0.8-0.9q-3.35-3.55-9.45-8.15-6.55-4.95-6.55-7.45 0-13.4 7.7-13.4l1.7 0.45m14.05 39.15 1.05-2 0.15-0.35-0.1 0.45-1.05 4.65-0.05 0.7q-0.35 6.9-3.55 14.8l-3.3-3.35q-1.8-1.7-1.8-3.7l0.8-8q0.3-2.65 1.05-3.5 0.9-1.05 4.3-1.9l2.3 2.6 0.2-0.4m-4.25 19.85-1.3 2.75q-4.65 9.35-10.6 14.05l-1.05 0.75-1.1 0.75-2.55 1.4q-2.85-2.05-7.65-4.95-7.95-4.85-7.95-8.65 0-9.9 3.95-18.15l1.85-1.6q1.1-0.95 2.6-1.5 8.65 5.9 15.35 10.1v4.3l-0.75 3.1-0.1 0.45 3-3 2.35-2.1 3.95 2.3m-17.7 20.25-6.6 2.55-5.75 1.7-0.3 0.1-3.3-0.65q-6.05-1.4-6.05-3t1.5-3.95q1.35-2.1 2.2-2.35l-0.1-0.05h0.15l5.9 0.45q5.5 2.65 10.3 4.45l2.05 0.75m-26.35 6.45-11.45-0.85-1.35-0.3-0.3-0.3-4.65-4.5-5.15-4q-1.85-1.8-1.85-4.2 0-12.2 7.7-12.2l6.15 0.35 7.25 4.65 8.5 4.95-0.15 3.1-0.6 1.65-0.05 0.15 0.05-0.15 0.05 0.1-0.1 0.05-4.05 11.5m-15.65-1.9-5.1-1.8q-3.85-1.65-7.45-4h-0.05q-13.3-7.85-21.5-19.4l-0.8-1.15q-2.05-2.6-5.6-5.6l2.85 1q-1.35-3.1-2.25-6.55l-1-4.2-0.7-4.05-1.3-3.1q-1.65-3.8-1.65-5.35l1.35 1.7 0.95 1.25v-0.15l0.45 1.35q1.85 5.3 4.3 10.3v-3.95h0.25q0.45 0.65 1.1 2.9-0.65-2.25-1.1-2.9h-0.25v1.05q-2.6-7.15-2.6-17.2 0-10.6 2.4-10.6 0.6 0 3.1 2.9l0.15 0.15 0.15 0.2 2.8 3.45-1.25-2.2-2.35-4.05q-0.8-4.25-0.8-5.75 0-3.25 1.8-7.9 1.5-4 3-4.8l0.35-0.15 0.5-1.6q1.25-3.45 3.8-6.2 3.1-3.45 5.65-3.45 2.05 0 7.8 3.85l-1.45 4.15-0.4 0.55-1.4 2.05-3.6 5.95q-0.6-1.05-1.4-1.4l-0.45 1.75-1.2 5.2-0.15 0.25-0.1 0.15-1.45 3-2.55 5.5-2.65 6.4-1.2-4h-0.25v7.9l-0.2 0.55-0.9 2.65-1.05 3.35-2.2 8.5-0.55 2.7 0.1 0.45 1.25 5.7q5.25 9.05 12.65 16.9 4.3 4.55 9.15 8.6l0.4 3.2v0.15-0.15l-0.4-3.2-0.25-3.05 1.4 2.05 2 3.5q4.65 3.55 9.85 6.65m-38.85-76.15 0.05-0.15 1.2 2.05-1.25-1.9m8.6-14.05 8.55 7.25-8.55-7.25m27.1-4.45 11.15 5.7 2.95 1.55-0.15 1q-0.1 1.5-0.05 4.2l-1.05 6.8-0.4 0.85-0.9 1.85-2.35 5.35q-4.25-1.7-10.85-6.6-9.1-6.7-9.1-11 0-1.6 1.3-4.5l1.5-3.1q3.8-1.9 7.95-2.1m5.35-14.35-0.25 0.45-1.6-0.35 1.6 0.35 0.25-0.45m-0.3 0.55 0.05-0.1 0.1 0.05-0.1-0.05-0.05 0.1m-10.75 70.4-1.05-0.95q-5.35-4.85-7.4-9.25-8.4-12.8-8.4-14.2 0-2.5 2.45-7.65 2-4.25 3.65-6.35h5.85l16 12.4-1.15 9.05-0.3 0.8-1.75 4.85-0.45 1.25-4.1 12.7-0.6 2-0.3-0.55-1.8-3.55-1.05-1.95 0.4 1.4m22.05-67.15q5.3 1.85 10.65 4.35-5.35-2.5-10.65-4.35m-2.65 47.3 12.3 8.85 6.35 4.5-0.05 0.6q0 0.95 0.35 3.6l-0.35 2.95-0.15 0.45-1.3 3.8-5 14.8-0.45 1.25q-1.05-1.25-2.25-1.6v-0.05q-6.85-1.25-12.7-4.85-8.3-5.15-8.3-11.75 0-3.25 1.45-9.35l1.7-7.4 0.75-0.95q1.75-2.25 3.4-3.4 1.45-0.95 4.25-1.45m19.95 10.75q-7-3.75-11.2-6.6-9.55-6.45-9.55-12.1 0-1.6 1.35-5.75l1.3-4.15 1.65-0.95q4.85-2.65 9.4-2.75l3.5 2.6 9.65 7.6 0.4 3.65-0.45 3.6-0.65 2.3-1.6 5.75-2.25 7.6-0.25 0.85-0.75-1.35-0.3-0.6-0.25 0.3m-4.35-55.85v0.05l-0.85 1.15 0.85-1.15v-0.05m7.8 7.25q4.65 2.55 9.5 5.6l0.7 0.45-0.7-0.45q-4.85-3.05-9.5-5.6m24.7 26.9-0.05 0.2-0.8 4.45-0.15 1.05-1.15 7.9 1.15-7.9 0.15-1.05 0.8-4.45 0.05-0.2m-11.85 7.85 9.25 8.5-0.8 4.95-2.85 16.3-1.15-1.45v1.25q-3.5-1.85-8.35-5.8-7.8-6.3-7.8-9.2 0-3.85 1.45-6.8 1.1-2.35 3.65-5.15 3.95-2.05 6.6-2.6m-73.95 4.55 4 6.05q6.25 8.75 15.4 16.7 0.5 2.45 0.5 3.75l-0.05 0.75-0.1 0.3q-2.3 8.3-3.9 15.95l-5.6-3.9q-6.6-5-8.8-8.8l-6-9.5q-2-3.3-2-7.2 0-3.15 1.1-6.75l2.15-7.55h3.2l0.1 0.2m14.9 47.9 0.1 0.1 0.05-0.25-0.15 0.15m-0.3 2.75-0.05-0.15 0.05 0.15m-25.1-25.15 0.2 0.55 0.2-2.55v-0.4q0-2.95-0.25-4.1v-2.3 2.3q0.25 1.15 0.25 4.1v0.4l-0.2 2.55-0.2-0.55m83.3 24.45q2.4-6.75 4.75-15.5-2.35 8.75-4.75 15.5m-87.8-44.6-0.1-0.15 0.1 0.15" fill="#b2b247" fill-rule="evenodd"/>
<path d="m-40.9-28.25q1.25-3.6 3.05-7.1l2.05-3.9 0.75-1.3q0.6-1.7 1.45-4.85l0.4 1.95q3.3-4.85 6.95-7.95l0.9-0.7 1.85-1.35 0.3-0.2 1.3-2.5v-0.05l0.05 0.05 0.65 1.3 4.2-2.05q3.55-1.55 7.85-2.7l1.6-0.4 5.8-0.85 1.85-0.1q0.4-0.95 0.3-1.7 2.05 1 4.5 1.85l0.5 0.05q9.15 0.9 18.65 5.8v-2.55h0.5q1.35 1.4 3.6 4.85l0.5 0.3 2.7 1.7q5.55 3.75 10.1 8l0.7 0.65q0.55-2.05-0.25-3.15v-1.25q1.2 1.05 2.95 7.2l0.7 0.75 2.25 2.7q5.25 6.55 8.45 14.25l0.3 0.7 0.6-4.35h0.25q0.55 1.5 0.5 5.55v2.55l0.95 3.15 0.1 0.3m0 0.15q1.95 7.4 2.65 13.2l0.25 3.65 1.05-2 0.15-0.35 0.1-0.45v0.25l-0.1 0.2-0.1 0.45-1.05 4.65-0.05 0.7q-0.35 6.9-3.55 14.8l-0.7 1.6-1.3 2.75q-4.65 9.35-10.6 14.05l-1.05 0.75-1.1 0.75-2.55 1.4-1.1 0.55-6.6 2.55-5.75 1.7-0.3 0.1-7.25 1.5-6.45 0.6-11.45-0.85-1.35-0.3-2.85-0.75-5.1-1.8q-3.85-1.65-7.45-4h-0.05q-13.3-7.85-21.5-19.4l-0.8-1.15q-2.05-2.6-5.6-5.6l2.85 1q-1.35-3.1-2.25-6.55l-1-4.2-0.7-4.05-1.3-3.1q-1.65-3.8-1.65-5.35l1.35 1.7 0.95 1.25v-0.15l-0.15-4.65q0.05-8.85 2.6-17.2l0.05-1.6q0-1.35-0.5-3.85l1.4 2.55 0.05-0.15 1.2 2.05 2.5 4.25 2.35 4.05 1.25 2.2m1.25-26.45-0.8-0.7-0.05-0.6m18.1-4.5 0.1-0.35 1.05-2.6-6.9-3.25-0.35-0.7m-19.75 26.75 1.25 1.9m1.45 33.45 0.55-2.7 2.2-8.5 1.05-3.35 0.9-2.65 0.2-0.55v-7.9h0.25l1.2 4 2.65-6.4 2.55-5.5 1.45-3 0.1-0.15 0.15-0.25 1.2-5.2-8.55-7.25m8.55 7.25 0.45-1.75q0.8 0.35 1.4 1.4l3.6-5.95 1.4-2.05 0.4-0.55 1.45-4.15m25.5-9.45q-5.3-1.85-10.45-3.05l-0.15 0.05-0.2 0.15q-5 2.9-10.25 8.9l2.9 3.5 2.5 1.25 11.15 5.7 2.95 1.55q0.1-0.8 0.45-1.4 0.4-0.75 1.1-1.15l1.65 2.4 1.05 1.45 0.45-0.8q2.8-4.95 5.75-9.35l1.45-2.15 1-2.45q-5.35-2.5-10.65-4.35m-11.15-3.3-0.1-0.05-0.05 0.1m-1.55-0.45 1.6 0.35 0.25-0.45m-10.75 9.6-1.95-2.05-1.35 2.5m3 60.9-0.4-1.4 1.05 1.95 1.8 3.55 0.3 0.55 0.6-2 4.1-12.7 0.45-1.25 1.75-4.85 0.3-0.8 1.15-9.05-16-12.4-1.8-1.4-2.25-1.85-0.85-0.7-0.75-1.8-0.45-1.1m30.8-4.1-0.15 1q-0.1 1.5-0.05 4.2l-1.05 6.8-0.4 0.85-0.9 1.85-2.35 5.35-1.2 2.8 3.1 4.7 2.6 1.95 12.3 8.85 6.35 4.5q0.25-1.2 1.3-2.6l0.25-0.3 0.3 0.6 0.75 1.35 0.25-0.85 2.25-7.6 1.6-5.75 0.65-2.3 0.45-3.6-0.4-3.65-9.65-7.6-3.5-2.6-6-4.05-2.25-2.6m8.65-14.75 0.15-1.6q0.7 0.15 1.3 0.65l0.85-1.15v-0.05m-0.85 1.2 0.8 0.9 1.25 1.7 0.55 0.25 0.4 0.2 5.1 2.7m3.2 24.35v-0.05l1.65-0.45 0.6 1.2 3.75-15.45q1.15-1.85 1.55-3.25l-0.7-0.45q-4.85-3.05-9.5-5.6m10.2 6.05 0.1-0.35m12.25 34.8 1.15-7.9 0.15-1.05 0.8-4.45 0.05-0.2m2.8 22 2.3 2.6 0.2-0.4m-17.15-16.35-4.1-3.3q-2.4-3.9-3.85-6.7m17.65 15.75-0.45 2.75 5.4 5.65m-14.65-14.15 9.25 8.5-0.8 4.95-2.85 16.3 0.35 0.55 2.05 3.05 0.95 0.55 3.95 2.3m-23.1-46.9-0.1 1.35 0.1 1.1m-4.8 23.75 2.9 4.75 1.2 0.8q8.65 5.9 15.35 10.1v-2.85l1.15 1.45m-23.2-13.3-0.05 0.6q0 0.95 0.35 3.6l-0.35 2.95-0.15 0.45-1.3 3.8-5 14.8-0.45 1.25 1 1.45q1.75 3.05 2.55 4l0.25 0.15 3.6 1.75q5.5 2.65 10.3 4.45l2.05 0.75m8.4-17.45 0.1-0.45 0.75-3.1v-4.3m-49-34.2 0.5-3.15 2.1 2.65m-16.15 51.6q1.6-7.65 3.9-15.95l0.1-0.3 0.05-0.75q0-1.3-0.5-3.75-9.15-7.95-15.4-16.7l-4-6.05m15.85 43.5-0.55 2.8 2 3.5q4.65 3.55 9.85 6.65m-6.1-33.4 1.4 2.3 2.25 1.8 7.2 5.2 7.25 4.65 8.5 4.95v-0.35q-0.5-2.1-0.5-3.85 1.2 0.35 2.25 1.6m-30-16.6-1.1-4.35m-3.75 32.25v-0.15l-0.4-3.2q-4.85-4.05-9.15-8.6-7.4-7.85-12.65-16.9l-1.25-5.7-0.1-0.45q-0.65-2.25-1.1-2.9h-0.25v6.25q0.25 1.15 0.25 4.1v0.4l-0.2 2.55-0.2-0.55m25.05 25 0.05 0.15m0.7-4.35-1.4-2.05 0.25 3.05m63.4-12.85q-2.35 8.75-4.75 15.5m-25.9-3.25 0.6-1.65 0.15-3.1m-0.75 4.75-0.05 0.15-4.05 11.5m-45.45-64.35q1 3.1 1.8 4.55l0.75 1.25m-15 5.25 0.45 1.35q1.85 5.3 4.3 10.3m-4.75-11.5 0.1 0.15" fill="none" stroke="#000" stroke-linecap="round" stroke-linejoin="round" stroke-opacity=".4" stroke-width=".05"/>
</g>
<linearGradient id="r" x1="-819.2" x2="819.2" gradientTransform="matrix(-.0483 .028 -.0358 -.062 -3.5 .95)" gradientUnits="userSpaceOnUse">
<stop stop-color="#b0892b" offset="0"/>
<stop stop-color="#8c6202" offset="1"/>
</linearGradient>
<g id="n" transform="translate(46.65,62.65)">
<path d="m-23.2-53.65 1.3-2.5v-0.05l0.05 0.05 0.65 1.3 4.2-2.05q3.55-1.55 7.85-2.7l1.6-0.4 5.8-0.85 1.85-0.1q0.4-0.95 0.3-1.7 2.05 1 4.5 1.85l0.5 0.05q9.15 0.9 18.65 5.8v-2.55h0.5q1.35 1.4 3.6 4.85l0.5 0.3 2.7 1.7q5.55 3.75 10.1 8l0.7 0.65q0.55-2.05-0.25-3.15v-1.25q1.2 1.05 2.95 7.2l0.7 0.75 2.25 2.7q5.25 6.55 8.45 14.25l0.3 0.7 0.6-4.35h0.25q0.55 1.5 0.5 5.55v2.55l0.95 3.15 0.1 0.3v0.15q1.95 7.4 2.65 13.2l0.25 3.65 1.05-2 0.15-0.35-0.1 0.45-1.05 4.65-0.05 0.7q-0.35 6.9-3.55 14.8l-0.7 1.6-1.3 2.75q-4.65 9.35-10.6 14.05l-1.05 0.75-1.1 0.75-2.55 1.4-1.1 0.55-6.6 2.55-5.75 1.7-0.3 0.1-7.25 1.5-6.45 0.6-11.45-0.85-1.35-0.3-2.85-0.75-5.1-1.8q-3.85-1.65-7.45-4h-0.05q-13.3-7.85-21.5-19.4l-0.8-1.15q-2.05-2.6-5.6-5.6l2.85 1q-1.35-3.1-2.25-6.55l-1-4.2-0.7-4.05-1.3-3.1q-1.65-3.8-1.65-5.35l1.35 1.7 0.95 1.25v-0.15l-0.15-4.65q0.05-8.85 2.6-17.2l0.05-1.6q0-1.35-0.5-3.85l1.4 2.55 0.05-0.15q1.25-3.6 3.05-7.1l2.05-3.9 0.75-1.3q0.6-1.7 1.45-4.85l0.4 1.95q3.3-4.85 6.95-7.95l0.9-0.7 1.85-1.35 0.3-0.2m9 93-0.15 0.15 0.1 0.1 0.05-0.25" fill="#b22300" fill-rule="evenodd"/>
</g>
<g id="g">
<use width="134.39999" height="134.39999" xlink:href="#m"/>
</g>
<g id="m">
<path d="m134.4 67.2q0 27.85-19.7 47.5-19.65 19.7-47.5 19.7t-47.55-19.7q-19.65-19.65-19.65-47.5t19.65-47.55q19.7-19.65 47.55-19.65t47.5 19.65q19.7 19.7 19.7 47.55" fill="url(#q)" fill-rule="evenodd"/>
</g>
<linearGradient id="q" x1="-819.2" x2="819.2" gradientTransform="matrix(.082 0 0 .082 67.2 67.2)" gradientUnits="userSpaceOnUse">
<stop stop-color="#ae6d2d" stop-opacity=".85882" offset="0"/>
<stop stop-color="#ae6f2d" stop-opacity="0" offset="1"/>
</linearGradient>
<g id="f" transform="translate(-337.15,-192.75)">
<path d="m339.7 198.75-0.3-0.2q-1.95-1.15-2.25-2.4v-3l0.9 1.1 1.35 1.1 0.4 0.2q0.5 2.2-0.1 3.2" fill="#895b00" fill-rule="evenodd"/>
<path d="m339.7 198.75q0.6-1 0.1-3.2 1.8 0.9 4.25 0.95 2.7-0.05 4.65-1.15l1.35-1.1q0.55-0.7 0.6-1.5v3.1q-0.05 1.55-1.95 2.7-1.95 1.15-4.65 1.15-2.5 0-4.35-0.95" fill="#583b00" fill-rule="evenodd"/>
<path d="m339.8 195.55-0.4-0.2-1.35-1.1-0.9-1.1v3q0.3 1.25 2.25 2.4l0.3 0.2m0.1-3.2q1.8 0.9 4.25 0.95 2.7-0.05 4.65-1.15l1.35-1.1q0.55-0.7 0.6-1.5v3.1q-0.05 1.55-1.95 2.7-1.95 1.15-4.65 1.15-2.5 0-4.35-0.95" fill="none" stroke="#000" stroke-linecap="round" stroke-linejoin="round" stroke-opacity=".4" stroke-width=".05"/>
</g>
<g id="e" transform="translate(-343.5,-197.2)">
<path d="m346.7 199.55q2.9 0.8 5.95 0.85 0.1 1.2 1.25 2.15h-1.1l-5.05-0.55q-0.9-1.05-1.05-2.45" fill="#895b00" fill-rule="evenodd"/>
<path d="m346.7 199.15q2.45 0.85 5.9 0.85h0.2q3.65 0 6.25-0.9l1.8-0.85q0.75-0.55 0.8-1.05v2.3q0 1.25-2.6 2.15-2.2 0.75-5.15 0.9-1.15-0.95-1.25-2.15-3.05-0.05-5.95-0.85v-0.4" fill="#a46e00" fill-rule="evenodd"/>
<path d="m346.7 199.15v0.4q0.15 1.4 1.05 2.45l-1.2-0.35q-2.6-0.9-2.6-2.15l-0.45-2.15 1.25 0.9 1.8 0.85 0.15 0.05" fill="#583b00" fill-rule="evenodd"/>
<path d="m353.9 202.55q2.95-0.15 5.15-0.9 2.6-0.9 2.6-2.15v-2.3q-0.05 0.5-0.8 1.05l-1.8 0.85q-2.6 0.9-6.25 0.9h-0.2q-3.45 0-5.9-0.85m7.2 3.4h-1.1l-5.05-0.55-1.2-0.35q-2.6-0.9-2.6-2.15l-0.45-2.15 1.25 0.9 1.8 0.85 0.15 0.05" fill="none" stroke="#000" stroke-linecap="round" stroke-linejoin="round" stroke-opacity=".4" stroke-width=".05"/>
</g>
<g id="l" transform="translate(1.2 .2)">
<path d="m7.35 0.8q-3-0.2-6.05 1.3-1.3 1.2-1.6 2.4l-0.9-1.05 2.1-2.2q3.3-1.75 6.55-1.4l2.5 1.2v1.6q-1.1-1.65-2.6-1.85" fill="#890000" fill-rule="evenodd"/>
<path d="m7.35 0.8q-3-0.2-6.05 1.3-1.3 1.2-1.6 2.4l-0.9-1.05 2.1-2.2q3.3-1.75 6.55-1.4l2.5 1.2v1.6q-1.1-1.65-2.6-1.85z" fill="none" stroke="#000" stroke-linecap="round" stroke-linejoin="round" stroke-opacity=".4" stroke-width=".05"/>
<path d="m8.65 2.6q-2.65-0.2-5.35 1.15-1.15 1.05-1.4 2.1l-0.8-0.9 1.85-1.95q2.9-1.55 5.75-1.25l2.2 1.05v1.4q-0.95-1.45-2.25-1.6" fill="#890000" fill-rule="evenodd"/>
<path d="m8.65 2.6q-2.65-0.2-5.35 1.15-1.15 1.05-1.4 2.1l-0.8-0.9 1.85-1.95q2.9-1.55 5.75-1.25l2.2 1.05v1.4q-0.95-1.45-2.25-1.6z" fill="none" stroke="#000" stroke-linecap="round" stroke-linejoin="round" stroke-opacity=".4" stroke-width=".05"/>
<path d="m10.1 4.8q-2.45-0.3-4.9 0.9-1.1 1-1.35 2.05l-0.7-0.95 1.7-1.85q2.7-1.45 5.35-1l2.05 1.15v1.4q-0.9-1.5-2.15-1.7" fill="#890000" fill-rule="evenodd"/>
<path d="m10.1 4.8q-2.45-0.3-4.9 0.9-1.1 1-1.35 2.05l-0.7-0.95 1.7-1.85q2.7-1.45 5.35-1l2.05 1.15v1.4q-0.9-1.5-2.15-1.7z" fill="none" stroke="#000" stroke-linecap="round" stroke-linejoin="round" stroke-opacity=".4" stroke-width=".05"/>
</g>
<g id="k" transform="translate(-4.6,-6.05)">
<path d="m11.15 6.95q-2.3-0.3-4.65 0.85-1 0.95-1.2 1.9l-0.7-0.9 1.6-1.75q2.55-1.3 5-0.9l1.95 1.1v1.3q-0.85-1.4-2-1.6" fill="#890000" fill-rule="evenodd"/>
<path d="m11.15 6.95q-2.3-0.3-4.65 0.85-1 0.95-1.2 1.9l-0.7-0.9 1.6-1.75q2.55-1.3 5-0.9l1.95 1.1v1.3q-0.85-1.4-2-1.6z" fill="none" stroke="#000" stroke-linecap="round" stroke-linejoin="round" stroke-opacity=".4" stroke-width=".05"/>
</g>
<g id="j" transform="translate(-345.6,-178.5)">
<path d="m354.15 179.5q-3-0.2-6.05 1.3-1.3 1.2-1.6 2.4l-0.9-1.05 2.1-2.2q3.3-1.75 6.55-1.4l2.5 1.2v1.6q-1.1-1.65-2.6-1.85" fill="#900" fill-rule="evenodd"/>
<path d="m354.15 179.5q-3-0.2-6.05 1.3-1.3 1.2-1.6 2.4l-0.9-1.05 2.1-2.2q3.3-1.75 6.55-1.4l2.5 1.2v1.6q-1.1-1.65-2.6-1.85z" fill="none" stroke="#000" stroke-linecap="round" stroke-linejoin="round" stroke-opacity=".4" stroke-width=".05"/>
<path d="m355.45 181.3q-2.65-0.2-5.35 1.15-1.15 1.05-1.4 2.1l-0.8-0.9 1.85-1.95q2.9-1.55 5.75-1.25l2.2 1.05v1.4q-0.95-1.45-2.25-1.6" fill="#900" fill-rule="evenodd"/>
<path d="m355.45 181.3q-2.65-0.2-5.35 1.15-1.15 1.05-1.4 2.1l-0.8-0.9 1.85-1.95q2.9-1.55 5.75-1.25l2.2 1.05v1.4q-0.95-1.45-2.25-1.6z" fill="none" stroke="#000" stroke-linecap="round" stroke-linejoin="round" stroke-opacity=".4" stroke-width=".05"/>
<path d="m356.9 183.5q-2.45-0.3-4.9 0.9-1.1 1-1.35 2.05l-0.7-0.95 1.7-1.85q2.7-1.45 5.35-1l2.05 1.15v1.4q-0.9-1.5-2.15-1.7" fill="#900" fill-rule="evenodd"/>
<path d="m356.9 183.5q-2.45-0.3-4.9 0.9-1.1 1-1.35 2.05l-0.7-0.95 1.7-1.85q2.7-1.45 5.35-1l2.05 1.15v1.4q-0.9-1.5-2.15-1.7z" fill="none" stroke="#000" stroke-linecap="round" stroke-linejoin="round" stroke-opacity=".4" stroke-width=".05"/>
</g>
<g id="i" transform="translate(-351.4,-184.75)">
<path d="m357.95 185.65q-2.3-0.3-4.65 0.85-1 0.95-1.2 1.9l-0.7-0.9 1.6-1.75q2.55-1.3 5-0.9l1.95 1.1v1.3q-0.85-1.4-2-1.6" fill="#900" fill-rule="evenodd"/>
<path d="m357.95 185.65q-2.3-0.3-4.65 0.85-1 0.95-1.2 1.9l-0.7-0.9 1.6-1.75q2.55-1.3 5-0.9l1.95 1.1v1.3q-0.85-1.4-2-1.6z" fill="none" stroke="#000" stroke-linecap="round" stroke-linejoin="round" stroke-opacity=".4" stroke-width=".05"/>
</g>
</defs>
</svg>
