<?xml version="1.0" encoding="UTF-8"?>
<svg version="1.1" viewBox="0 0 41.579 39.504" xmlns="http://www.w3.org/2000/svg" xmlns:cc="http://creativecommons.org/ns#" xmlns:dc="http://purl.org/dc/elements/1.1/" xmlns:rdf="http://www.w3.org/1999/02/22-rdf-syntax-ns#" xmlns:xlink="http://www.w3.org/1999/xlink">
<metadata>
<rdf:RDF>
<cc:Work rdf:about="">
<dc:format>image/svg+xml</dc:format>
<dc:type rdf:resource="http://purl.org/dc/dcmitype/StillImage"/>
</cc:Work>
</rdf:RDF>
</metadata>
<g transform="translate(.66901 -10.756)">
<use transform="matrix(.0823 .5842 -1.0947 .1542 17.754 36.66)" width="12.2" height="9.1999998" xlink:href="#l"/>
<use transform="matrix(.2308 -.8614 .8614 .2308 7.9319 40.902)" width="9.5500002" height="8.9499998" xlink:href="#k"/>
<use transform="matrix(-1.3156 1.7807 1.7807 1.3156 32.697 20.659)" width="10.15" height="6.6500001" xlink:href="#i"/>
<use transform="matrix(-2.2151 0 0 2.2151 24.134 29.701)" width="5.9000001" height="6.5500002" xlink:href="#h"/>
<use transform="matrix(-.8918 0 0 .8918 27.249 43.64)" width="9.4499998" height="7.4000001" xlink:href="#g"/>
<use transform="matrix(-.8918 0 0 .8918 26.803 38.559)" width="9.5500002" height="8.9499998" xlink:href="#d"/>
<use transform="matrix(.8746 .1702 -.1344 .6905 20.479 32.165)" width="9.5500002" height="8.9499998" xlink:href="#d"/>
<use transform="matrix(-.6312 .6211 -.6211 -.6312 33.67 37.747)" width="11.3" height="8.8000002" xlink:href="#c"/>
<use transform="matrix(.8572 .2223 .2223 -.8572 2.6211 32.011)" width="11.3" height="8.8000002" xlink:href="#c"/>
<use transform="matrix(-2.2106 -.2983 -.7106 2.3791 16.959 11.174)" width="5.1500001" height="8.6499996" xlink:href="#a"/>
<use transform="matrix(-2.2151 0 0 2.2151 28.847 12.761)" width="13.3" height="13.35" xlink:href="#e"/>
<use transform="matrix(-.8514 .2978 .2978 .8514 10.796 17.58)" width="10.05" height="10.1" xlink:href="#b"/>
<use transform="matrix(-1.0237 .3581 .3581 1.0237 17.859 19.491)" width="10.05" height="10.1" xlink:href="#b"/>
<use transform="matrix(-2.2151 0 0 2.2151 12.898 27.491)" width="5.25" height="6" xlink:href="#j"/>
<use transform="matrix(-2.498 .4058 .2462 2.4567 30.886 14.687)" width="5.1500001" height="8.6499996" xlink:href="#a"/>
</g>
<defs>
<g id="l" transform="translate(12.85,5.4)">
<path d="m-12.85-0.95 6.35-4.45 3.65 1.8 2.05 3.7 0.15 1.4-1.6 1.6-1.65-0.6-1.15 1.05-0.8-0.3-1.4 0.55-5.6-4.75m5.2 3.4 1.8 0.8-1.8-0.8m1.3-0.6 2.45 0.65-2.45-0.65" fill="#744826" fill-rule="evenodd"/>
<path d="m-3.9 2.5-2.45-0.65m0.5 1.4-1.8-0.8" fill="none" stroke="#000" stroke-linecap="round" stroke-linejoin="round" stroke-opacity=".30196" stroke-width=".05"/>
<path d="m-12.85-0.95 6.35-4.45m3.65 1.8 2.05 3.7 0.15 1.4-1.6 1.6-1.65-0.6-1.15 1.05-0.8-0.3-1.4 0.55" fill="none" stroke="#000" stroke-linecap="round" stroke-linejoin="round" stroke-opacity=".30196" stroke-width=".05"/>
</g>
<g id="k" transform="translate(8.75,4.7)">
<path d="m-7.5 2.85h-0.05q-1.25-1.5-1.2-3 0-1.5 1.15-3.05 1.15-1.5 3.5-1.5l2.2 0.45q0.95 0.4 1.7 1.25 1.55 1.7 0.65 3.35t-2.15 2.7-2.05 1.15l-0.95 0.05q-1.5 0.05-2.7-1.25l-0.1-0.15" fill="#a27517" fill-rule="evenodd"/>
<path d="m-7.5 2.85h-0.05q-1.25-1.5-1.2-3 0-1.5 1.15-3.05 1.15-1.5 3.5-1.5l2.2 0.45q0.95 0.4 1.7 1.25 1.55 1.7 0.65 3.35t-2.15 2.7-2.05 1.15" fill="none" stroke="#000" stroke-linecap="round" stroke-linejoin="round" stroke-opacity=".30196" stroke-width=".05"/>
</g>
<g id="i" transform="translate(8.8,2.6)">
<path d="m-0.4-1.65-0.1-0.95 1.25 1.1 0.35-0.65v1.15l0.25 1.55-3.05-0.85-2.65-0.3 1.05 0.9-2.2-0.05-3.3 1.7 2.35-2h-1.15l1.45-1.6-0.1-0.45 3.3-0.45 2.55 0.9" fill="#fffbb7" fill-rule="evenodd"/>
<path d="m1.35 0.55q-2.15 2.1-4.5 3.3l-0.55-1.15-2.3 1.35-0.25-2.25-2.55 0.15 3.3-1.7 2.2 0.05-1.05-0.9 2.65 0.3 3.05 0.85" fill="#d4d08c" fill-rule="evenodd"/>
<path d="m-0.4-1.65-0.1-0.95 1.25 1.1 0.35-0.65v1.15l0.25 1.55q-2.15 2.1-4.5 3.3l-0.55-1.15-2.3 1.35-0.25-2.25-2.55 0.15 2.35-2h-1.15m1.45-1.6-0.1-0.45 3.3-0.45" fill="none" stroke="#362e20" stroke-linecap="round" stroke-linejoin="round" stroke-opacity=".4" stroke-width=".05"/>
<path d="m-7.6-0.05 1.45-1.6m3.2-0.9 2.55 0.9z" fill="none" stroke="#362e20" stroke-linecap="round" stroke-linejoin="round" stroke-opacity=".4" stroke-width=".05"/>
</g>
<g id="h" transform="translate(2.95,3.25)">
<path d="m1.8-2.5 1.15 2.1-1.1 2.55-2.35 1.15-2.15-1.2-0.3-3.2 0.95-1.15 1.35-1 2.45 0.75m-0.25 3-0.9 0.3-0.75 1.45 0.5 0.45 1-0.55 0.45-0.85-0.3-0.8" fill="#fcc95d" fill-rule="evenodd"/>
<path d="m1.55 0.5 0.3 0.8-0.45 0.85-1 0.55-0.5-0.45 0.75-1.45 0.9-0.3" fill="#ffdf73" fill-rule="evenodd"/>
<path d="m1.8-2.5-2.45-0.75-1.35 1-0.95 1.15 0.3 3.2 2.15 1.2 2.35-1.15 1.1-2.55z" fill="none" stroke="#000" stroke-linecap="round" stroke-linejoin="round" stroke-opacity=".30196" stroke-width=".05"/>
</g>
<g id="g" transform="translate(9.25,3.6)">
<path d="m-9.1 0.25 1.45-2.6 5.4-1.25 2.45 3.7-0.35 2.4-2.6 0.75-0.75-0.75-1.35 1.05-0.95-0.3-1.65 0.55-1.8-0.95 0.15-2.6m3.7 0.35-0.4 2.65 0.4-2.65m2.75-0.05-0.85 1.95 0.85-1.95" fill="#86532c" fill-rule="evenodd"/>
<path d="m-3.5 2.5 0.85-1.95m-3.15 2.7 0.4-2.65" fill="none" stroke="#362f20" stroke-linecap="round" stroke-linejoin="round" stroke-opacity=".30196" stroke-width=".05"/>
<path d="m0.2 0.1-0.35 2.4-2.6 0.75-0.75-0.75-1.35 1.05-0.95-0.3-1.65 0.55-1.8-0.95 0.15-2.6" fill="none" stroke="#362f20" stroke-linecap="round" stroke-linejoin="round" stroke-opacity=".30196" stroke-width=".05"/>
</g>
<g id="d" transform="translate(8.75,4.7)">
<path d="m-7.5 2.85h-0.05q-1.25-1.5-1.2-3 0-1.5 1.15-3.05 1.15-1.5 3.5-1.5l2.2 0.45q0.95 0.4 1.7 1.25 1.55 1.7 0.65 3.35t-2.15 2.7-2.05 1.15l-0.95 0.05q-1.5 0.05-2.7-1.25l-0.1-0.15" fill="#ba871b" fill-rule="evenodd"/>
<path d="m-7.5 2.85h-0.05q-1.25-1.5-1.2-3 0-1.5 1.15-3.05 1.15-1.5 3.5-1.5l2.2 0.45q0.95 0.4 1.7 1.25 1.55 1.7 0.65 3.35t-2.15 2.7-2.05 1.15l-0.95 0.05q-1.5 0.05-2.7-1.25" fill="none" stroke="#362f20" stroke-linecap="round" stroke-linejoin="round" stroke-opacity=".30196" stroke-width=".05"/>
</g>
<g id="c" transform="translate(7.15,3.15)">
<path d="m0.35-3.15h0.05l1.05 0.3-1.1-0.3" fill="#c63" fill-rule="evenodd"/>
<path d="m1.45-2.85 0.2 0.05 0.5 0.1 1.3 2.05-2.95 0.9 0.6 0.65-0.05 0.05-0.2 0.45 3 0.75 0.3 0.5-2.6 2.85-3.8 0.15-3.25-1.35-1.65-1.95 1.2-3.5 2.65-0.65 1.35 1.35 0.1-0.15h1.45l0.4 0.35-1.1-1 0.35-1.15 0.1-0.05 1-0.7 1.1 0.3m-0.95 3.1-0.5-0.5 0.5 0.5m-5.45-1 2.35-0.35-2.35 0.35m5.8 4.15v-2 2m-4.3-2 1.5-1.85-1.5 1.85" fill="#86532c" fill-rule="evenodd"/>
<path d="m3.45-0.65 0.2 0.3-0.9 0.9 1.1 1.6-3-0.75 0.2-0.45 0.05-0.05-0.6-0.65 2.95-0.9" fill="#2f0000" fill-rule="evenodd"/>
<path d="m1.65-2.8 0.5 0.1 1.3 2.05 0.2 0.3-0.9 0.9 1.1 1.6m-3.85-2.4-1.1-1 0.35-1.15 0.1-0.05 1-0.7h0.05m1.05 0.3-1.1-0.3m-1 0.7-0.1 0.05" fill="none" stroke="#362f20" stroke-linecap="round" stroke-linejoin="round" stroke-opacity=".30196" stroke-width=".05"/>
<path d="m3.85 2.15 0.3 0.5-2.6 2.85m-7.05-1.2-1.65-1.95 1.2-3.5 2.65-0.65 1.35 1.35 0.1-0.15h1.45l0.4 0.35 0.5 0.5 0.6 0.65-0.05 0.05-0.2 0.45 3 0.75m-3-0.75v2m-3.45-4.5-2.35 0.35m3 0.3-1.5 1.85" fill="none" stroke="#362f20" stroke-linecap="round" stroke-linejoin="round" stroke-opacity=".30196" stroke-width=".05"/>
</g>
<g id="a" transform="translate(3.05,1.15)">
<use transform="translate(-3.05,-1.15)" width="5.1500001" height="8.6499996" xlink:href="#f"/>
</g>
<g id="f" transform="translate(3.05,1.15)">
<path d="m0.25-0.65h0.1l0.75 2-0.4 1.45-0.65-0.15 0.5 2.35-1.05-0.55 0.15 1.25-0.65 0.75-0.4 0.15-0.9-1.25-0.75 0.05 0.75-3.15 0.9-1.7-0.95-0.55 1.2-0.5-0.7-0.65 1.35 0.45 0.75 0.05" fill="#3f1200" fill-rule="evenodd"/>
<path d="m0.35-0.65q0.7 0.1 1.1 0.55l0.65 4.3-0.6-0.6 0.05 2.65-0.55-0.6-0.25 1.85-1.1-1.2h-0.05l-0.6 0.15 0.65-0.75-0.15-1.25 1.05 0.55-0.5-2.35 0.65 0.15 0.4-1.45-0.75-2" fill="#3f1200" fill-rule="evenodd"/>
<path d="m-1.4 6.6-0.9-1.25m0-3.1 0.9-1.7m0.9-1.25 0.75 0.05" fill="none" stroke="#3f1200" stroke-linecap="round" stroke-linejoin="round" stroke-opacity=".4" stroke-width=".05"/>
<path d="m0.35-0.65q0.7 0.1 1.1 0.55l0.65 4.3-0.6-0.6 0.05 2.65-0.55-0.6-0.25 1.85-1.1-1.2h-0.05l-0.6 0.15-0.4 0.15m-0.9-1.25-0.75 0.05 0.75-3.15m0.9-1.7-0.95-0.55 1.2-0.5-0.7-0.65 1.35 0.45" fill="none" stroke="#3f1200" stroke-linecap="round" stroke-linejoin="round" stroke-opacity=".4" stroke-width=".05"/>
</g>
<g id="e" transform="translate(5.1,4.6)">
<path d="m-3.5-1.65q1.35-1.5 5.75-2.95 1-0.15 2.6 1.3-3.65 1.1-6.1 2.65l-2.25-1" fill="#ffdf73" fill-rule="evenodd"/>
<path d="m6.15 1 0.7 0.25-3.25 1.7-2.25 2-0.7 3.8-0.45-2.3-2.5 1.2 0.45-2.9-3.25 0.45 1.6-6.85 2.25 1-0.9 3.45 1.05 0.05 0.4 2.2 1.1-0.1 0.05-0.45 2.4-2.45 3.3-1.05" fill="#d19e32" fill-rule="evenodd"/>
<path d="m4.85-3.3q0.65 1.4 1.3 4.3l-3.3 1.05-2.4 2.45-0.05 0.45-1.1 0.1-0.4-2.2-1.05-0.05 0.9-3.45q2.45-1.55 6.1-2.65m2 4.55q1.15 0.8 1.35 2.45l-2.3 0.65-5.25 4.4 0.7-3.8 2.25-2 3.25-1.7" fill="#fcc95d" fill-rule="evenodd"/>
<path d="m-3.5-1.65q1.35-1.5 5.75-2.95 1-0.15 2.6 1.3 0.65 1.4 1.3 4.3l0.7 0.25q1.15 0.8 1.35 2.45l-2.3 0.65-5.25 4.4-0.45-2.3-2.5 1.2 0.45-2.9-3.25 0.45z" fill="none" stroke="#362e20" stroke-linecap="round" stroke-linejoin="round" stroke-opacity=".50196" stroke-width=".05"/>
</g>
<g id="b" transform="translate(3.95,6.1)">
<path d="m-3.3 1.45q-0.65-1.1-0.65-2.5 0-2.1 1.45-3.55 1.45-1.5 3.55-1.5 1.5 0 2.65 0.75 0.65 1.1 0.65 2.5 0 2.1-1.45 3.55-1.5 1.45-3.6 1.5-1.45-0.05-2.6-0.75" fill="#fff" fill-rule="evenodd"/>
<path d="m-3.3 1.45q1.15 0.7 2.6 0.75 2.1-0.05 3.6-1.5 1.45-1.45 1.45-3.55 0-1.4-0.65-2.5l0.95 0.75q1.45 1.45 1.45 3.55t-1.45 3.55q-1.5 1.45-3.6 1.5-2.1-0.05-3.55-1.5l-0.8-1.05" fill="#cecab0" fill-rule="evenodd"/>
<path d="m3.7-5.35q-1.15-0.75-2.65-0.75-2.1 0-3.55 1.5-1.45 1.45-1.45 3.55 0 1.4 0.65 2.5m7-6.8 0.95 0.75q1.45 1.45 1.45 3.55t-1.45 3.55q-1.5 1.45-3.6 1.5-2.1-0.05-3.55-1.5l-0.8-1.05" fill="none" stroke="#362d20" stroke-linecap="round" stroke-linejoin="round" stroke-opacity=".30196" stroke-width=".05"/>
<path d="m4.1-0.25q-0.35 0.45-0.85 0.45t-0.85-0.45q-0.3-0.4-0.3-1t0.3-1.05q0.35-0.4 0.85-0.4t0.85 0.4l0.3 1.05-0.3 1" fill-rule="evenodd"/>
</g>
<g id="j" transform="translate(-2.1,-2.05)">
<path d="m3.3 6.5 2.15-1.35 0.9 0.2-2.15 1.35-0.9-0.2" fill="#3f1200" fill-rule="evenodd"/>
<path d="m4.35 8.05-0.6-0.3-0.45-1.25 0.9 0.2 0.15 1.35" fill="#2f0000" fill-rule="evenodd"/>
<path d="M 6.35,5.35 6,7.1 4.35,8.05 4.2,6.7 6.35,5.35" fill="#86532c" fill-rule="evenodd"/>
<path d="m4.35 8.05-0.6-0.3-0.45-1.25m3.05-1.15-0.35 1.75-1.65 0.95z" fill="none" stroke="#1f1f1f" stroke-linecap="round" stroke-linejoin="round" stroke-opacity=".30196" stroke-width=".05"/>
<path d="m4.75 2.85h0.05l1.9 0.3q0.8 0.5 0.6 1.35-0.85 1.2-1.75 1.15l-2.2 1.8q-1.3-0.45-0.1-3.5l0.9-0.75 0.6-0.35m0.8 2.8-0.05-0.55-0.2-0.95 0.2 0.95 0.05 0.55" fill="#86532c" fill-rule="evenodd"/>
<path d="m3.35 7.45-1.15 0.05q-0.25-1.4 0.15-2.3l0.7-1 0.2-0.25q-1.2 3.05 0.1 3.5" fill="#2f0000" fill-rule="evenodd"/>
<path d="m5.55 5.65-2.2 1.8-1.15 0.05q-0.25-1.4 0.15-2.3l0.7-1 0.2-0.25 0.9-0.75 0.6-0.35" fill="none" stroke="#1f1f1f" stroke-linecap="round" stroke-linejoin="round" stroke-opacity=".4" stroke-width=".05"/>
<path d="m4.75 2.85h0.05l1.9 0.3q0.8 0.5 0.6 1.35-0.85 1.2-1.75 1.15m-0.25-1.5 0.2 0.95 0.05 0.55m-2.3-1.7q-1.2 3.05 0.1 3.5" fill="none" stroke="#1f1f1f" stroke-linecap="round" stroke-linejoin="round" stroke-opacity=".4" stroke-width=".05"/>
<path d="M 4.55,2.45 5.2,2.2 5.35,2.4 5,2.65 4.55,2.45" fill="#c9c9c3" fill-rule="evenodd"/>
<path d="M 5.2,2.2 5.5,2.05 5.65,2.8 5.6,3.3 5.2,3.75 4.4,4.2 Q 3.55,4.15 3.5,3.2 L 4.55,2.45 5,2.65 5.35,2.4 5.2,2.2" fill="#1d1d17" fill-rule="evenodd"/>
</g>
</defs>
</svg>
