<?xml version="1.0" encoding="UTF-8"?>
<svg version="1.1" viewBox="0 0 320.9 287.13" xmlns="http://www.w3.org/2000/svg" xmlns:cc="http://creativecommons.org/ns#" xmlns:dc="http://purl.org/dc/elements/1.1/" xmlns:rdf="http://www.w3.org/1999/02/22-rdf-syntax-ns#" xmlns:xlink="http://www.w3.org/1999/xlink">
<metadata>
<rdf:RDF>
<cc:Work rdf:about="">
<dc:format>image/svg+xml</dc:format>
<dc:type rdf:resource="http://purl.org/dc/dcmitype/StillImage"/>
</cc:Work>
</rdf:RDF>
</metadata>
<g transform="translate(-106.91 -67.335)">
<use transform="translate(106.95,67.35)" width="320.85001" height="287.10001" xlink:href="#a"/>
</g>
<defs>
<g id="a">
<use width="320.85001" height="287.10001" xlink:href="#b"/>
</g>
<g id="b">
<path d="m180.75 39.75q-14.7 53.95-50.3 68.3-37.3 14.2-85.3-18.6l25.4 112.3q59.55-63.75 129.9-59.8 44.8-3.95 83.3 13.6-2.2-44.65-5.2-88.95-43.7 76.4-97.8-26.85" fill="#626f8a" fill-rule="evenodd"/>
<path d="m180.75 39.75q-14.7 53.95-50.3 68.3-37.3 14.2-85.3-18.6" fill="none" stroke="#7a84a3" stroke-linecap="round" stroke-linejoin="round" stroke-width=".05"/>
<path d="m278.55 66.6q-43.7 76.4-97.8-26.85z" fill="none" stroke="#7a84a3" stroke-linecap="round" stroke-linejoin="round" stroke-width=".05"/>
<path d="m212.9 47.5q0.5-31.65-33.8-46.85l-4.95 2.05q-5.7 2.25-9.85 6.45-4.05 37.2 31.25 52.8 0.7-0.3 2.15-0.85 9.95-4.05 15.2-13.6" fill="#979eb7" fill-rule="evenodd"/>
<path d="m179.1 0.65q34.3 15.2 33.8 46.85 1.1-1.3 2-3.3 5.1-12-0.5-23.8-4.15-12.4-16.15-17.5-10.05-4.25-19.15-2.25" fill="#fff" fill-rule="evenodd"/>
<path d="m195.55 61.95q-35.3-15.6-31.25-52.8-4.85 4.45-7.35 10.4-5.1 12-1 24.4 5.65 11.8 17.65 16.9 10.95 4.7 21.95 1.1" fill="#626f8a" fill-rule="evenodd"/>
<path d="m179.1 0.65q9.1-2 19.15 2.25 12 5.1 16.15 17.5 5.6 11.8 0.5 23.8-0.9 2-2 3.3-5.25 9.55-15.2 13.6-1.45 0.55-2.15 0.85m-31.25-52.8q4.15-4.2 9.85-6.45l4.95-2.05m-14.8 8.5q-4.85 4.45-7.35 10.4-5.1 12-1 24.4 5.65 11.8 17.65 16.9 10.95 4.7 21.95 1.1" fill="none" stroke="#7a84a3" stroke-linecap="round" stroke-linejoin="round" stroke-width=".05"/>
<path d="m141.05 130.25q-8.5 50.65-34.35 58.6l-6.95 1.15q-6.95 9.45-28.35 5.6-19.8-36.7-34.7-108.55-4-1.7-7.75-2.7 30.1 80.65 21.25 134.75l-1.85 9.85q9.3 72.4 143.75 54.65 39.75-10.2 63.85-22.4 57.7-27.4 56-70.6l-6.6-16.4q-15.35-40.2-10.65-90.1-5.95 1.6-11.65 3.9 14.85 67.7-12.6 92-26.25 8.9-34.1-0.3-5.6 0.55-10.7 0.1-13.25-2.05-28.15-14.3l32.35 39.15q-38.95-4.2-69.4-75.6l-19.4 1.2m-90.85 88.85q27.1 65.25 136.6 49.25 120.45-27.85 118.55-94.15 1.9 66.3-118.55 94.15-109.5 16-136.6-49.25" fill="#d7d9e3" fill-rule="evenodd"/>
<path d="m283.05 88q-4.55 0.95-9.55 2.95 13.15 59.35-22.2 82.7-7.25 4.55-14.95 6.05 7.85 9.2 34.1 0.3 27.45-24.3 12.6-92" fill="#979eb7" fill-rule="evenodd"/>
<path d="m99.75 190-2.45 0.15q-34.8-0.05-49.2-99.45l-11.4-3.65q14.9 71.85 34.7 108.55 21.4 3.85 28.35-5.6m97.75-24.5q-15.15-12.95-31.2-36.3l-5.85-0.15q30.45 71.4 69.4 75.6l-32.35-39.15" fill="#fff" fill-rule="evenodd"/>
<path d="m141.05 130.25q-8.5 50.65-34.35 58.6l-6.95 1.15-2.45 0.15q-34.8-0.05-49.2-99.45m-19.15-6.35q30.1 80.65 21.25 134.75l-1.85 9.85q9.3 72.4 143.75 54.65 39.75-10.2 63.85-22.4m17.55-170.25q13.15 59.35-22.2 82.7-7.25 4.55-14.95 6.05-5.6 0.55-10.7 0.1-13.25-2.05-28.15-14.3-15.15-12.95-31.2-36.3m139.05 45q1.9 66.3-118.55 94.15-109.5 16-136.6-49.25" fill="none" stroke="#7a84a3" stroke-linecap="round" stroke-linejoin="round" stroke-width=".05"/>
<path d="m255.95 261.2q57.7-27.4 56-70.6l-6.6-16.4q-15.35-40.2-10.65-90.1" fill="none" stroke="#7a84a3" stroke-linecap="round" stroke-linejoin="round" stroke-width=".05"/>
<path d="m301.4 90.5q21.35-29.35 2.95-40.1-27-15.6-28.05-20.15-17.4 49.2 18.7 62.85l4.3-1.75 2.1-0.85" fill="#d7d9e3" fill-rule="evenodd"/>
<path d="m276.3 30.25-1.95-0.9q-13.15 4.5-18.35 18.15-5.55 13.05-0.35 25.85 4.85 12.1 17.85 17.6 11 4.7 21.5 2.15-36.1-13.65-18.7-62.85" fill="#979eb7" fill-rule="evenodd"/>
<path d="m274.35 29.35 1.95 0.9q1.05 4.55 28.05 20.15 18.4 10.75-2.95 40.1 11.15-5.35 15.55-17.05 6.2-13.25 0.65-25.1-4.5-13.05-18.15-18.35-11.6-6.1-23.7-1.2l-1.4 0.55" fill="#fff" fill-rule="evenodd"/>
<path d="m274.35 29.35 1.4-0.55q12.1-4.9 23.7 1.2 13.65 5.3 18.15 18.35 5.55 11.85-0.65 25.1-4.4 11.7-15.55 17.05m-6.4 2.6q-10.5 2.55-21.5-2.15-13-5.5-17.85-17.6-5.2-12.8 0.35-25.85 5.2-13.65 18.35-18.15m20.65 63.75 4.3-1.75 2.1-0.85" fill="none" stroke="#7a84a3" stroke-linecap="round" stroke-linejoin="round" stroke-width=".05"/>
<path d="m52.3 47.65-4.1 8.3q-4.2-8.25-25.85-4.55l-4-5.8-0.7 0.3q-4.3 1.7-7.7 5.55-2.75 46.65 34.05 55.85l2.15-0.85q12.8-5.2 17.65-17.9 4.15-8.3 3.65-15.55-4.55 1-8.85 2.75l-3.7-9.25q4.4-3.5 8.45-5.9-3.45-8.55-11.05-12.95" fill="#d7d9e3" fill-rule="evenodd"/>
<path d="m44 107.3q-36.8-9.2-34.05-55.85-4.15 4.2-7.1 11.15-5.55 13.05-0.35 25.85 4.85 12.1 17.85 17.6 12.7 4.8 23.65 1.25" fill="#979eb7" fill-rule="evenodd"/>
<path d="m18.35 45.6 4 5.8q21.65-3.7 25.85 4.55l4.1-8.3q-2.3-1.55-6-2.55-12.6-6.55-25.1-0.65l-2.85 1.15m45 15q-4.05 2.4-8.45 5.9l3.7 9.25q4.3-1.75 8.85-2.75-0.55-5.6-2.95-9.55l-1.15-2.85" fill="#fff" fill-rule="evenodd"/>
<path d="m18.35 45.6 2.85-1.15q12.5-5.9 25.1 0.65 3.7 1 6 2.55 7.6 4.4 11.05 12.95l1.15 2.85q2.4 3.95 2.95 9.55 0.5 7.25-3.65 15.55-4.85 12.7-17.65 17.9l-2.15 0.85m-34.05-55.85q3.4-3.85 7.7-5.55m-7.7 5.55q-4.15 4.2-7.1 11.15-5.55 13.05-0.35 25.85 4.85 12.1 17.85 17.6 12.7 4.8 23.65 1.25" fill="none" stroke="#7a84a3" stroke-linecap="round" stroke-linejoin="round" stroke-width=".05"/>
<path d="m17.65 45.9 0.7-0.3z" fill="none" stroke="#7a84a3" stroke-linecap="round" stroke-linejoin="round" stroke-width=".05"/>
<path d="m145.3 146.8q9.55 1.15 18.1-2.3 14.25-5.75 20.2-19.8 6.4-14.95 0.95-28.5-4.05-10-12.2-15.75 19.65 26-7.35 18.65-32.05-3.65-30.9-23.15-28.4 36.3 11.2 70.85" fill="#d7d9e3" fill-rule="evenodd"/>
<path d="m134.1 75.95-1.4 0.6q-11.5 6.25-17.05 19.25-5.95 14-0.2 28.25 5.45 13.55 19.7 20.2 5.75 1.9 10.15 2.55-39.6-34.55-11.2-70.85" fill="#979eb7" fill-rule="evenodd"/>
<path d="m172.35 80.45q-3.55-2.75-8.25-4.2-14.3-6.6-28.55-0.85l-1.45 0.55q-1.15 19.5 30.9 23.15 27 7.35 7.35-18.65" fill="#fff" fill-rule="evenodd"/>
<path d="m172.35 80.45q-3.55-2.75-8.25-4.2-14.3-6.6-28.55-0.85l-1.45 0.55m-1.4 0.6q-11.5 6.25-17.05 19.25-5.95 14-0.2 28.25 5.45 13.55 19.7 20.2 5.75 1.9 10.15 2.55 9.55 1.15 18.1-2.3 14.25-5.75 20.2-19.8 6.4-14.95 0.95-28.5-4.05-10-12.2-15.75z" fill="none" stroke="#7a84a3" stroke-linecap="round" stroke-linejoin="round" stroke-width=".05"/>
<path d="m150.65 259.3q9.95 14.35 21.6 14.85 12.35 0.3 19.55-13.25 7.9-13.7 6.1-32.9-1.15-19.45-11.1-33.8-9.95-14.4-22.3-14.65-11.65-0.5-19.55 13.2-7.85 13.7-6.05 32.95 1.8 19.2 11.75 33.6" fill="#5a667e" fill-rule="evenodd"/>
<path d="m152.75 256q8.5 12.2 18.05 12.65 9.6 0.45 15.85-10.9 6.75-12.1 5.65-28.35-1.35-16.8-9.2-29.25-7.85-12.4-18.05-12.65-9.8-1.05-15.9 10.9t-5.55 28.35q1.1 16.25 9.15 29.25" fill="#b1cbe4" fill-rule="evenodd"/>
<path d="m172.55 214q2.1 3.9 4.55 7 2.5 3.15 4.15-5 2.2-8.25-0.2-13.35-2.45-5-6.25-7.75-3.4-3.45-6.05-2.7-2.6 0.75-3.4 4.75-0.15 3.9 2.75 8.15 3.6 4.1 4.45 8.9" fill="#fff" fill-rule="evenodd"/>
<path d="m178.65 235.95q2.1 1.05 4.7 0.3t4.2-2.85q1.05-1.95 0.3-4.2t-2.85-3.3l-5.2-0.15q-2.6 0.75-3.7 2.7-1.55 2.1-0.8 4.35t3.35 3.15" fill="#fff" fill-rule="evenodd"/>
<path d="m313.85 197.3q5.95-1.6 6.85-11.9 0.8-10.25-3.1-21.95-4.45-13.1-11.75-20.9-6.9-8.85-12.85-7.25l-2.1 0.85q24.9 41.3 22.95 61.15" fill="#fff" fill-rule="evenodd"/>
<path d="m290.9 136.15q-3.35 2.15-4.7 11-1.15 9.6 3.05 21.95 4.15 12.4 11.75 20.9 7.25 7.9 12.85 7.3 1.95-19.85-22.95-61.15" fill="#b1cbe4" fill-rule="evenodd"/>
<path d="m290.9 136.15q-3.35 2.15-4.7 11-1.15 9.6 3.05 21.95 4.15 12.4 11.75 20.9 7.25 7.9 12.85 7.3 5.95-1.6 6.85-11.9 0.8-10.25-3.1-21.95-4.45-13.1-11.75-20.9-6.9-8.85-12.85-7.25z" fill="none" stroke="#7a84a3" stroke-linecap="round" stroke-linejoin="round" stroke-width=".05"/>
<path d="m51 235.3q5.55-0.55 9.1-10.3 4.2-9.95 3.9-23.1-0.6-13.85-5.35-23.5-4.3-10.7-10.15-10.85-5.1-0.4-9.1 10.3-3.55 9.7-2.9 23.55 0.3 13.1 4.6 23.8 4.7 9.7 9.9 10.1" fill="#b1cbe4" fill-rule="evenodd"/>
<path d="m51 235.3q-5.2-0.4-9.9-10.1-4.3-10.7-4.6-23.8-0.65-13.85 2.9-23.55 4-10.7 9.1-10.3 5.85 0.15 10.15 10.85 4.75 9.65 5.35 23.5 0.3 13.15-3.9 23.1-3.55 9.75-9.1 10.3z" fill="none" stroke="#7a84a3" stroke-linecap="round" stroke-linejoin="round" stroke-width=".05"/>
</g>
</defs>
</svg>
