<?xml version="1.0" encoding="UTF-8"?>
<svg version="1.1" viewBox="0 0 43.175 42.85" xmlns="http://www.w3.org/2000/svg" xmlns:cc="http://creativecommons.org/ns#" xmlns:dc="http://purl.org/dc/elements/1.1/" xmlns:rdf="http://www.w3.org/1999/02/22-rdf-syntax-ns#" xmlns:xlink="http://www.w3.org/1999/xlink">
<metadata>
<rdf:RDF>
<cc:Work rdf:about="">
<dc:format>image/svg+xml</dc:format>
<dc:type rdf:resource="http://purl.org/dc/dcmitype/StillImage"/>
</cc:Work>
</rdf:RDF>
</metadata>
<g transform="translate(-207.9 -173.95)">
<use transform="translate(207.9,173.95)" width="43.150002" height="42.849998" xlink:href="#a"/>
</g>
<defs>
<g id="a" transform="translate(-207.9,-173.95)">
<path d="m233.45 192.05 0.3-2.85 0.45-14.25q12.25 13.55 14.05 19.5l1.2 4.5q1.25 5.15 0 11.4l-2.5 4.95q1.35-10.25-4.45-11.75l-3.2 5.8-3.3-6.1q-12.9 3.05-9.45 12.55l-17.65-13.75h9.75q1.2-2.8 3.55-5.1 4.7-4.75 11.25-4.9" fill-rule="evenodd"/>
<path d="m233.45 192.05 0.3-2.85 0.45-14.25q12.25 13.55 14.05 19.5l1.2 4.5q1.25 5.15 0 11.4l-2.5 4.95q1.35-10.25-4.45-11.75l-3.2 5.8-3.3-6.1q-12.9 3.05-9.45 12.55l-17.65-13.75h9.75q1.2-2.8 3.55-5.1 4.7-4.75 11.25-4.9z" fill="none" stroke="#000" stroke-linecap="round" stroke-linejoin="round" stroke-opacity=".19216" stroke-width="2"/>
<path d="m239.45 184.6-0.4-0.45-0.6-0.65m3.65 4.5-1.15-1.6-0.5-0.65m6.25 14.15q-0.9-5.75-3.75-10.55" fill="none" stroke="#fff" stroke-linecap="round" stroke-linejoin="round" stroke-width=".05"/>
</g>
</defs>
</svg>
