<?xml version="1.0" encoding="UTF-8"?>
<svg version="1.1" viewBox="0 0 74.3 94.36" xmlns="http://www.w3.org/2000/svg" xmlns:cc="http://creativecommons.org/ns#" xmlns:dc="http://purl.org/dc/elements/1.1/" xmlns:rdf="http://www.w3.org/1999/02/22-rdf-syntax-ns#" xmlns:xlink="http://www.w3.org/1999/xlink">
<metadata>
<rdf:RDF>
<cc:Work rdf:about="">
<dc:format>image/svg+xml</dc:format>
<dc:type rdf:resource="http://purl.org/dc/dcmitype/StillImage"/>
</cc:Work>
</rdf:RDF>
</metadata>
<g transform="translate(-239.7 -148.45)">
<use transform="translate(239.65,148.45)" width="56.650002" height="83.650002" xlink:href="#a"/>
<use transform="translate(257.35,159.15)" width="56.650002" height="83.650002" xlink:href="#a"/>
</g>
<defs>
<g id="a" transform="translate(.5 .5)">
<use transform="translate(-.5 -.5)" width="56.650002" height="83.650002" xlink:href="#b"/>
</g>
<g id="b" transform="translate(.5 .5)">
<path d="m49.55 5.35 5.45-0.15q-3.15 1.1-3.75 3.2 2.5-0.45 4.4 0.6l-0.05 0.6q-3.15-0.3-2.75 0.6l1.5 1.75-0.6 1.5-5.2-0.25q-1.65 2.15-1.3 4.25-1.05-1.85-3.4-2.5-1.9 1.1-2.65 3.4l-2.4-1.15q1.7-2.65 1.6-4.85l-4.85 0.65q2.4-2 3.35-3.5-1.1-2.05-3.5-2.65l2.2-2.75q1.8 0.9 4.65 0.05 1.05-2 0.9-3.65 1.1 0.8 1.6 2.65 1.95-1.35 3.2-3.15l2.75 0.6q-1.5 2.1-1.15 4.75" fill="#b99c59" fill-rule="evenodd"/>
<path d="m49.55 5.35 5.45-0.15q-3.15 1.1-3.75 3.2 2.5-0.45 4.4 0.6l-0.05 0.6q-3.15-0.3-2.75 0.6l1.5 1.75-0.6 1.5-5.2-0.25q-1.65 2.15-1.3 4.25-1.05-1.85-3.4-2.5-1.9 1.1-2.65 3.4l-2.4-1.15q1.7-2.65 1.6-4.85l-4.85 0.65q2.4-2 3.35-3.5-1.1-2.05-3.5-2.65l2.2-2.75q1.8 0.9 4.65 0.05 1.05-2 0.9-3.65 1.1 0.8 1.6 2.65 1.95-1.35 3.2-3.15l2.75 0.6q-1.5 2.1-1.15 4.75z" fill="none" stroke="#000" stroke-linecap="round" stroke-linejoin="round" stroke-opacity=".30196"/>
<path d="m47.5 4q0.15 1.05-0.6 2.7 1.85-0.15 3.5-0.9l1.1 1.75q-1.9 0.85-3.2 3.05 2.3 1 5.45 2.85l-3.05-0.55q-0.8 0-1.5 0.65 1.5 0.85 2.05 2.5l-0.45 0.4q-1.5-1.6-1.75-0.8l-0.15 2.05-1.2 0.8q-0.3-0.65-1.85-1.4l-2.45-1.05q-2.15 0.85-3.1 2.65 0.5-1.95-0.45-3.5-1.6 0-3.3 1.35l-0.7-1.95q2.4-1.2 3.55-2.95-1.5-1.2-3-1.7 2.45-0.45 3.75-1.15l0.25-1.2q1.7-2 1.65-3.3 1 1.3 2.9 2.05 1.7-1.1 2.55-2.35" fill="#8d7743" fill-rule="evenodd"/>
<path d="m48.55 1.8-2.45 1.05 2-2.8 1.4 0.6-0.95 1.15m-5.2-0.75q0.95 0.65 1.4 2l-0.9 0.85q0.25-1.55-0.5-2.85" fill="#c8b793" fill-rule="evenodd"/>
<path d="m19.95 37.25h0.15l1.85 0.4q8.25 1.4 15.35-0.3l0.35-0.1q7.35-1.85 11.55-4.7l0.2 0.35v-0.05q3.7 7.05 2.6 21v0.05l-0.95-1.65-1-1.55-3.95-5q-3.15-3.2-6.15-3.95l-13.3 1.5-5.95-2.9-0.15-0.15-1.3-1.25 0.05-0.05-0.25-0.25 0.9-1.4m31.75 22q0.45 0.95 0.55 2.25l-0.6 1.55-2.85-0.5-4.3 3.55q-2.55 1.75-5.7 6.35l-0.25 0.85q0.5-11.15 5.65-12.7 2.85 1.1 7.5-1.35m-51.65 12.35v-0.6l3.15-2.85q-0.45 3.95 2.55 7.75-3.4-1.65-5.7-4.3m35.85 4.25q0.9-1.7 0.1-5.55 1 2.45 2.45 3.15l-1.5 1.75-1.05 0.65m-5.8 2.1 0.7-4.35 1.35 3.85-1.35 0.4-0.7 0.1m-2.1 0.25-7.25 0.45q2.1-0.65 3.3-1.85 1.25 1.2 3.95 1.4m-14.85-0.05q1.45-0.3 1.95-3.1l1.4 3.5-3.35-0.4" fill="#283c44" fill-rule="evenodd"/>
<path d="m52 53.9-0.45 5.05 0.15 0.3q-4.65 2.45-7.5 1.35-5.15 1.55-5.65 12.7l-0.1 0.15q-1.45-0.7-2.45-3.15 0.8 3.85-0.1 5.55v0.05l-3.5 1.5-0.25 0.05-1.35-3.85-0.7 4.35-0.4 0.05-1.7 0.2q-2.7-0.2-3.95-1.4-1.2 1.2-3.3 1.85h-2.5l-1.75-0.1-1.4-3.5q-0.5 2.8-1.95 3.1l-1.05-0.2q-3.55-0.7-6.35-2.05-3-3.8-2.55-7.75l-3.15 2.85q0-7.25 3.35-10.75 4.05-0.3 8.7-2.6 10.6-8.8 8.45-17.45l0.15 0.15 5.95 2.9 13.3-1.5q3 0.75 6.15 3.95l3.95 5 1 1.55 0.95 1.65" fill="#314b56" fill-rule="evenodd"/>
<path d="m52.25 61.5-0.05 1.65-0.4 2.25q-1.45 1.6-6.35 2.6-4.35 3.25-6.75 10.9l-7.9 2.95q-22.5 3.2-30.5-6.25l-0.25-4q2.3 2.65 5.7 4.3 3.05 6 6.35 2.05l1.05 0.2 3.35 0.4 1.75 0.1q4.1 2.3 9.85 0.95l1.6-1.6 0.4-0.05 0.7-0.1 1.35-0.4 0.25-0.05 1.6 1.05 1.9-2.55v-0.05l1.05-0.65 1.5-1.75 0.1-0.15 0.25-0.85q3.15-4.6 5.7-6.35 5.6-1.05 7.15-3.05l0.6-1.55" fill="#6e7447" fill-rule="evenodd"/>
<path d="m32.4 77.4 3.5-1.5-1.9 2.55-1.6-1.05m-4.4 0.8 1.7-0.2-1.6 1.6q-5.75 1.35-9.85-0.95h2.5l7.25-0.45m-22.25-2.3q2.8 1.35 6.35 2.05-3.3 3.95-6.35-2.05" fill="#bb9e5a" fill-rule="evenodd"/>
<path d="m44.5 66.1 4.3-3.55 2.85 0.5q-1.55 2-7.15 3.05" fill="#4c5031" fill-rule="evenodd"/>
<path d="m49.2 32.55 0.2 0.35v-0.05q3.7 7.05 2.6 21v0.05l-0.45 5.05 0.15 0.3q0.45 0.95 0.55 2.25l-0.05 1.65-0.4 2.25q-1.45 1.6-6.35 2.6-4.35 3.25-6.75 10.9l-7.9 2.95q-22.5 3.2-30.5-6.25l-0.25-4v-0.6q0-7.25 3.35-10.75 4.05-0.3 8.7-2.6 10.6-8.8 8.45-17.45l-1.3-1.25 0.05-0.05-0.25-0.25 0.9-1.4m18.5 36.2 0.1-0.15 0.25-0.85q3.15-4.6 5.7-6.35m7.15-3.05 0.6-1.55m-22.55 16.5 0.4-0.05 0.7-0.1 1.35-0.4 0.25-0.05 3.5-1.5m1.05-0.7 1.5-1.75m-8.75 4.55-1.7 0.2-7.25 0.45h-2.5m33.4-15.6q-1.55 2-7.15 3.05m-28 12.45 1.75 0.1m-6.15-0.7 1.05 0.2 3.35 0.4m-10.75-2.65q2.8 1.35 6.35 2.05m-6.35-2.05q-3.4-1.65-5.7-4.3" fill="none" stroke="#000" stroke-linecap="round" stroke-linejoin="round" stroke-opacity=".30196"/>
<path d="m39.1 58.55-10.75 11.6-8.6 2.95-1.6-5.35-5.2-3.05q-2.5-1.05-5.95-1.55-1.6-0.05-4.75 1.05-1.6 2.05-2.05 3.5 0.3-4.25 3.25-7.5 3.45 0.05 8.7-2.6 2.75-2.2 6.4-6.9l6.3-1.05 8.65 3.7 5.6 5.2" fill="#cfc8b7" fill-rule="evenodd"/>
<path d="m19.75 73.1 8.6-2.95 10.75-11.6 1.05 0.95v5.85l-0.9 2.05 1.9 1.9-2.05 2.8-3.2 3-14-0.45-2.6-1.25-0.05-0.15 0.5-0.15" fill="url(#d)" fill-rule="evenodd"/>
<path d="m39.1 58.55-5.6-5.2-8.65-3.7-6.3 1.05m-18.35 17q0.45-1.45 2.05-3.5 3.15-1.1 4.75-1.05 3.45 0.5 5.95 1.55l5.2 3.05 1.6 5.35-0.5 0.15 0.05 0.15 2.6 1.25 14 0.45 3.2-3 2.05-2.8-1.9-1.9 0.9-2.05v-5.85l-1.05-0.95z" fill="none" stroke="#000" stroke-linecap="round" stroke-linejoin="round" stroke-opacity=".2" stroke-width=".7"/>
<path d="m4.65 64.1q0.9-2.05 3.65-2.95 1.85 0.05 1.55 1.5l-3.45 2.8q-2.05 0.65-1.75-1.35" fill="#374444" fill-rule="evenodd"/>
<path d="m4.65 64.1q0.9-2.05 3.65-2.95 1.85 0.05 1.55 1.5l-3.45 2.8q-2.05 0.65-1.75-1.35z" fill="none" stroke="#000" stroke-linecap="round" stroke-linejoin="round" stroke-opacity=".30196" stroke-width=".7"/>
<path d="m13.1 67.2q0.9-2.25 3.85-3.15 1.9 0 1.6 1.6l-3.65 2.9q-2.1 0.7-1.8-1.35" fill="#374444" fill-rule="evenodd"/>
<path d="m13.1 67.2q0.9-2.25 3.85-3.15 1.9 0 1.6 1.6l-3.65 2.9q-2.1 0.7-1.8-1.35z" fill="none" stroke="#000" stroke-linecap="round" stroke-linejoin="round" stroke-opacity=".30196" stroke-width=".7"/>
<path d="m17.4 52.9q0.35-2.9 3.1-5.65 1.95-1.2 2.05 0.7l-3.05 5.35q-1.95 2-2.1-0.4" fill="#374444" fill-rule="evenodd"/>
<path d="m17.4 52.9q0.35-2.9 3.1-5.65 1.95-1.2 2.05 0.7l-3.05 5.35q-1.95 2-2.1-0.4z" fill="none" stroke="#000" stroke-linecap="round" stroke-linejoin="round" stroke-opacity=".30196" stroke-width=".7"/>
<path d="m38.15 52.8q-0.75 3.05-4.15 5.65-2.25 1-2.05-1l3.9-5.35q2.45-1.9 2.3 0.7" fill="#374444" fill-rule="evenodd"/>
<path d="m38.15 52.8q-0.75 3.05-4.15 5.65-2.25 1-2.05-1l3.9-5.35q2.45-1.9 2.3 0.7z" fill="none" stroke="#000" stroke-linecap="round" stroke-linejoin="round" stroke-opacity=".30196" stroke-width=".7"/>
<path d="m43.65 35.85 0.1-0.5q1.95-0.6 4.5-2.15l-0.2 0.65q-2.6 8.3-3.9 16.25 1.15 2.8 2.5 3.85l1-5.55-1.8 2.3 0.45-1.7 0.85-3.95 2.75 3-2.95 9.7q-2.55-1.15-5.1-4.4 0.05-9.6 1.8-17.5" fill="url(#c)" fill-rule="evenodd"/>
<path d="m18.1 13.8q-1.95 2.15-0.75 3.05 5.05 1.05 13.45-0.85l7.6-2.1 3.5-1.45 0.5-0.25q4.85-2.5-0.9-3.3l-3.75 0.1q-5.4 0.4-12.35 2.4l-7.3 2.4 1.35-1.4-1.35 1.4m0.35 15.6q0-1.45-0.45-2.8l-1.3-2.6q-4.85-8.8 2.9-13.45 6 0.2 13.5-2.5 7.2-2 12.85-1 1.8 0.15 2.15 3.6l-5.8 3.15q-1.5 2.7-4.4 4.15-4.15 2.1-8.5 3.5l-9.7 0.35q4.35 1.55 9.1 2.35l7.1 9.85q-2.25 1.9-4.35 2.5-3.7 1-7.55 1.05l-2.05 0.3-1.85-0.4h-0.15q-4.15-0.9-2.6-3.9l0.05-0.05 1.95 1.55-0.9-5.65m32.95-5.6-1.75 2.6v-4.7l1.5 1.85 0.25 0.25" fill="#bb9e5a" fill-rule="evenodd"/>
<path d="m30.8 16q-8.4 1.9-13.45 0.85-1.2-0.9 0.75-3.05l7.3-2.4q1.9 2.75 5.4 4.6m6.95-7 3.75-0.1q5.75 0.8 0.9 3.3l-0.5 0.25-4.15-3.45" fill="#62533c" fill-rule="evenodd"/>
<path d="m18.45 29.4 0.9 5.65-1.95-1.55q1-2.1 1.05-4.1" fill="#c6b286" fill-rule="evenodd"/>
<path d="m25.4 11.4q6.95-2 12.35-2.4l4.15 3.45-3.5 1.45-7.6 2.1q-3.5-1.85-5.4-4.6" fill="#8d7743" fill-rule="evenodd"/>
<path d="m21.95 37.85 2.05-0.3q3.85-0.05 7.55-1.05 2.1-0.6 4.35-2.5l-7.1-9.85q-4.75-0.8-9.1-2.35l9.7-0.35q4.35-1.4 8.5-3.5 2.9-1.45 4.4-4.15l5.8-3.15q0.2 2.2-0.2 5.85 0.65 3.25 1.75 5.2v4.7l1.75-2.6q1.65 1.9 1.75 4.35-9.05 7-15.85 9.4-7.1 1.7-15.35 0.3" fill="#957e4a" fill-rule="evenodd"/>
<path d="m53.15 28.15v0.8q-1.4 2.1-3.95 3.8-4.2 2.85-11.55 4.7l-0.35 0.1q6.8-2.4 15.85-9.4" fill="#665631" fill-rule="evenodd"/>
<path d="m30.8 16q-8.4 1.9-13.45 0.85-1.2-0.9 0.75-3.05l1.35-1.4m-2.05 21.1-0.05 0.05q-1.55 3 2.6 3.9h0.15l1.85 0.4m26.15-27.2q-0.35-3.45-2.15-3.6-5.65-1-12.85 1-7.5 2.7-13.5 2.5-7.75 4.65-2.9 13.45l1.3 2.6m0.45 2.8q-0.05 2-1.05 4.1m0.7-19.7 7.3-2.4m16.1-2.5q5.75 0.8 0.9 3.3l-0.5 0.25-3.5 1.45-7.6 2.1m22.35 12.15q-0.1-2.45-1.75-4.35l-0.25-0.25-1.5-1.85q-1.1-1.95-1.75-5.2 0.4-3.65 0.2-5.85m-10.8 26.9 0.35-0.1q7.35-1.85 11.55-4.7 2.55-1.7 3.95-3.8v-0.8m-15.85 9.4q-7.1 1.7-15.35 0.3" fill="none" stroke="#000" stroke-linecap="round" stroke-linejoin="round" stroke-opacity=".30196"/>
<path d="m29.9 71.35q-0.95 0.45-1.6 1.55-0.65 1.15-0.65 2.3 0 1.2 0.65 1.75l1.6 0.05q0.95-0.4 1.6-1.5 0.65-1.15 0.65-2.35 0-1.15-0.65-1.7l-1.6-0.1" fill="#4c5031" fill-opacity=".10196" fill-rule="evenodd"/>
<path d="m30.9 77.45q-0.35 0.6-0.35 1.15t0.35 0.8l0.75 0.1 0.8-0.8 0.3-1.1-0.3-0.85-0.8-0.05q-0.45 0.25-0.75 0.75" fill="#4c5031" fill-opacity=".4" fill-rule="evenodd"/>
<path d="m35.6 74.95q1.2-0.55 2.05-2 0.8-1.35 0.8-2.9 0-1.5-0.8-2.2l-2.05-0.05q-1.2 0.5-2 1.9-0.85 1.4-0.85 2.9 0 1.55 0.85 2.2l2 0.15" fill="#4c5031" fill-opacity=".30196" fill-rule="evenodd"/>
<path d="m10.6 76q0.35 0.65 0.1 1.35-0.3 0.65-1.05 0.85l-1.6-0.15q-0.85-0.4-1.2-1.1-0.4-0.7-0.1-1.35 0.25-0.7 1.05-0.85l1.6 0.2q0.8 0.35 1.2 1.05" fill="#4c5031" fill-opacity=".10196" fill-rule="evenodd"/>
<path d="m6.95 78.1q0.2 0.35 0.05 0.65l-0.55 0.45-0.75-0.1-0.6-0.55q-0.15-0.35 0-0.65l0.5-0.45 0.8 0.15 0.55 0.5" fill="#4c5031" fill-opacity=".4" fill-rule="evenodd"/>
<path d="m2.95 76q-1.05-0.45-1.55-1.4-0.45-0.85-0.1-1.65 0.35-0.85 1.3-1.1 1-0.2 2.05 0.25 1.05 0.5 1.5 1.35 0.5 0.9 0.15 1.75-0.35 0.8-1.35 1l-2-0.2" fill="#4c5031" fill-opacity=".30196" fill-rule="evenodd"/>
<path d="m40.8 8.55-2.95-0.1q0.05-0.95 0.95-1.9 1.45-0.75 2.35 0.4l-0.35 1.6" fill="#be0000" fill-rule="evenodd"/>
<path d="m37.85 8.45 2.95 0.1-0.4 1.6q-1.1 1.2-2.3-0.25-0.35-0.7-0.25-1.45" fill="#810000" fill-rule="evenodd"/>
<path d="m40.8 8.55 0.35-1.6q-0.9-1.15-2.35-0.4-0.9 0.95-0.95 1.9-0.1 0.75 0.25 1.45 1.2 1.45 2.3 0.25z" fill="none" stroke="#000" stroke-linecap="round" stroke-linejoin="round" stroke-opacity=".30196" stroke-width=".7"/>
<path d="m40 8.25q0.2-1.2 1.3-2.3 1.75-0.7 2.6 0.75l-0.6 2q-1.9 0.7-3.3-0.45" fill="#be0000" fill-rule="evenodd"/>
<path d="m43.3 8.7-0.7 1.9q-1.4 1.35-2.5-0.55-0.35-0.9-0.1-1.8 1.4 1.15 3.3 0.45" fill="#810000" fill-rule="evenodd"/>
<path d="m43.3 8.7-0.7 1.9q-1.4 1.35-2.5-0.55-0.35-0.9-0.1-1.8 0.2-1.2 1.3-2.3 1.75-0.7 2.6 0.75z" fill="none" stroke="#000" stroke-linecap="round" stroke-linejoin="round" stroke-opacity=".30196" stroke-width=".7"/>
</g>
<radialGradient id="d" cx="0" cy="0" r="819.2" gradientTransform="matrix(.0255 0 0 .0255 24.8 73.6)" gradientUnits="userSpaceOnUse">
<stop stop-color="#bb9e5a" offset="0"/>
<stop stop-color="#957e4a" offset="1"/>
</radialGradient>
<radialGradient id="c" cx="0" cy="0" r="819.2" gradientTransform="matrix(.0264 0 0 .0264 45.5 36.2)" gradientUnits="userSpaceOnUse">
<stop stop-color="#726325" offset="0"/>
<stop stop-color="#a8933f" offset="1"/>
</radialGradient>
</defs>
</svg>
