<?xml version="1.0" encoding="UTF-8"?>
<svg version="1.1" viewBox="0 0 45.024 44.145" xmlns="http://www.w3.org/2000/svg" xmlns:cc="http://creativecommons.org/ns#" xmlns:dc="http://purl.org/dc/elements/1.1/" xmlns:rdf="http://www.w3.org/1999/02/22-rdf-syntax-ns#" xmlns:xlink="http://www.w3.org/1999/xlink">
<metadata>
<rdf:RDF>
<cc:Work rdf:about="">
<dc:format>image/svg+xml</dc:format>
<dc:type rdf:resource="http://purl.org/dc/dcmitype/StillImage"/>
</cc:Work>
</rdf:RDF>
</metadata>
<g transform="translate(-247.53 -173.88)">
<use transform="translate(261.15,201.95)" width="1.65" height="1.65" xlink:href="#h"/>
<use transform="matrix(.8702 -.0781 .059 .9546 247.14 176.07)" width="50.400002" height="19.6" xlink:href="#g"/>
<use transform="matrix(.8702 -.0781 .059 .9546 247.7 186.71)" width="50.5" height="25" xlink:href="#f"/>
<use transform="translate(263.2,182.55)" width="26.15" height="35.450001" xlink:href="#e"/>
<use transform="matrix(.6994 0 0 1.1448 247.55 184)" width="6.3499999" height="21.4" xlink:href="#b"/>
<use transform="matrix(.8636 0 0 1 263.65 200.15)" width="4.4000001" height="5.5500002" xlink:href="#a"/>
<use transform="matrix(.6127 0 0 .8254 252.2 197.48)" width="4.4000001" height="5.5500002" xlink:href="#a"/>
<use transform="matrix(.7289 0 0 .8636 257.3 199.35)" width="4.4000001" height="5.5500002" xlink:href="#a"/>
<use transform="matrix(.361 0 0 .7295 248.16 194.9)" width="4.4000001" height="5.5500002" xlink:href="#a"/>
<use transform="matrix(.7289 0 0 .8636 286.55 195.5)" width="4.4000001" height="5.5500002" xlink:href="#a"/>
<use transform="matrix(.361 0 0 .7295 290.96 191.45)" width="4.4000001" height="5.5500002" xlink:href="#a"/>
<use transform="matrix(-.4221 0 0 1.0364 292.38 183.01)" width="6.3499999" height="21.4" xlink:href="#b"/>
<use transform="translate(266.75,185.1)" width="18.950001" height="31.549999" xlink:href="#d"/>
<use transform="matrix(.8144 -.2296 .0601 .8617 272.09 199.64)" width="12.15" height="8.1499996" xlink:href="#c"/>
</g>
<defs>
<g id="h" transform="translate(-261.15,-201.95)">
<path d="m261.55 203.45q-0.95-1.05 0.45-1.5 1.65 0.85-0.05 1.6l-0.4-0.1" fill="#86571e" fill-rule="evenodd"/>
</g>
<g id="g" transform="translate(25.2,5.6)">
<path d="m23.7 5.6v-0.1l-0.05-0.65q-0.2-1.75-1.55-3.25-1.55-1.75-4.6-3.2l-0.8-0.4q-6.95-3.05-16.85-3.05t-16.9 3.05l-2.2 1.1-0.9 0.55-1.2 0.9q-2.65 2.2-2.65 4.95l0.1 0.65-1.3-0.55v-0.2q0-3.05 3.35-5.5l1.3-0.9 2.7-1.4 0.55-0.2h0.05q7.15-2.95 17.1-3h0.15q9.85 0 16.95 2.85h0.05l0.8 0.35q2.7 1.2 4.4 2.55 2.7 2.15 3 4.7v0.75h-1.5" fill="#424880" fill-rule="evenodd"/>
<path d="m-23.9 6.15-0.1-0.65q0-2.75 2.65-4.95l1.2-0.9 0.9-0.55 2.2-1.1q7-3.05 16.9-3.05t16.85 3.05l0.8 0.4q3.05 1.45 4.6 3.2 1.35 1.5 1.55 3.25l0.05 0.65v0.1l-0.2 8.35q-1.65-1.9-4.45-3.25l-1.45-0.7q-7.3-3.2-17.8-3.2-6.55 0-12.05 1.3-3 0.75-5.8 1.9-3.95 1.75-5.9 4l0.05-7.85" fill="#252635" fill-rule="evenodd"/>
<path d="m25.2 5.6v-0.75q-0.3-2.55-3-4.7-1.7-1.35-4.4-2.55l-0.8-0.35h-0.05q-7.1-2.85-16.95-2.85h-0.15q-9.95 0.05-17.1 3h-0.05l-0.55 0.2-2.7 1.4-1.3 0.9q-3.35 2.45-3.35 5.5v0.2m1.25 8.4q1.95-2.25 5.9-4 2.8-1.15 5.8-1.9 5.5-1.3 12.05-1.3 10.5 0 17.8 3.2l1.45 0.7q2.8 1.35 4.45 3.25" fill="none" stroke="#000" stroke-linecap="round" stroke-linejoin="round" stroke-width=".05"/>
</g>
<g id="f" transform="translate(25.3,7.4)">
<path d="m-22.2 6.6-2.95-0.25-0.05-0.45v-13.3l0.4 1.8q0.7 1.8 2.8 3.4l-0.2 8.8" fill="#82614f" fill-rule="evenodd"/>
<path d="m-25.2-7.4h1.2l0.4 1.65q0.55 1.45 1.95 2.7l1.4 1.05q1.05 0.8 2.75 1.5 1.95 0.85 2.8 1.1l1.15 0.4q5.85 1.75 13.4 1.8l6.8-0.4q4.5-0.6 8.15-1.95l3.65-1.6 2.75-1.8 0.05-0.05q1.5-1.3 2.05-2.75l0.4-1.65h1.5v13.3q0 2.4-2 4.45l-45.4-3.75 0.2-8.8q-2.1-1.6-2.8-3.4l-0.4-1.8" fill="#4f5489" fill-rule="evenodd"/>
<path d="m25.2-7.4v13.3q0 2.4-2 4.45m-48.35-4-0.05-0.45" fill="none" stroke="#121212" stroke-linecap="round" stroke-linejoin="round" stroke-width=".05"/>
<path d="m9.25 3.45 0.7-0.1v0.05l-0.7 0.05" fill="#ad8263" fill-rule="evenodd"/>
<path d="m17.9 0.9 0.3-0.15v0.15h-0.3" fill="#563f37" fill-rule="evenodd"/>
<path d="m24.75-4.8 0.35-1.8v1.8h-0.35m-4.1 17.1 0.5 0.35-2.35 1.35 1.85-1.7" fill="#271f1e" fill-rule="evenodd"/>
<path d="m-25.3-6.6 0.4 1.8h-0.4v-1.8" fill="#41312c" fill-rule="evenodd"/>
<path d="m6.55 3.2 0.1 0.65h-0.05l-0.05-0.65" fill="#865b51" fill-rule="evenodd"/>
<path d="m6.65 3.85 1.15-0.15 1.45-0.25 0.7-0.05v-0.05l0.35-0.1 4.55-1.2 3.05-1.15h0.3l-0.7 11.7q-0.15 0.8-1 1.4-0.9 0.5-1.85 1.5l-5.9 1.55-0.1 0.05-1.15 0.15-0.65 0.05q-9.45 0.9-19.6-1.05l-5.2-1.8-2.45-1.25q-1.5-1.35-1.85-2.8l-0.1-0.95 0.25-10.85 1.35 0.95 2.8 1.4 0.55 0.25 2.35 0.85 0.05 0.05 0.3 0.1 1.05 0.3 3.35 0.8 0.15 0.05q0.2 1 11.95 1.2l2.1-0.45 2.2-0.2 0.5-0.05h0.05" fill="#363957" fill-rule="evenodd"/>
<path d="m18.2 0.75 3.35-1.85 0.1 10.55-0.2 1.4-0.8 1.45-1.85 1.7-1.1 0.45-1.35 0.6-1.7 0.45q0.95-1 1.85-1.5 0.85-0.6 1-1.4l0.7-11.7v-0.15m-43.1-5.55q0.7 1.8 2.8 3.4l-0.25 10.85 0.1 0.95q0.35 1.45 1.85 2.8-4.9-2.8-4.9-6.5v-11.5h0.4" fill="#2c2e44" fill-rule="evenodd"/>
<path d="m21.55-1.1q2.4-1.7 3.2-3.7h0.35v11.5q0 3.35-3.95 5.95l-0.5-0.35 0.8-1.45 0.2-1.4-0.1-10.55" fill="#252635" fill-rule="evenodd"/>
<path d="m24.75-4.8q-0.8 2-3.2 3.7l-3.35 1.85-0.3 0.15-3.05 1.15-4.55 1.2-0.35 0.1-0.7 0.1-1.45 0.25-1.15 0.15-0.1-0.65 0.05 0.65-0.5 0.05-2.2 0.2-2.1 0.45q-11.75-0.2-11.95-1.2l-0.15-0.05-3.35-0.8-1.05-0.3-0.3-0.1-0.05-0.05-2.35-0.85-0.55-0.25-2.8-1.4-1.35-0.95q-2.1-1.6-2.8-3.4l-0.4-1.8h1.2l0.4 1.65q0.55 1.45 1.95 2.7l1.4 1.05q1.05 0.8 2.75 1.5l2.8 1.1 1.15 0.4 3.65 0.9 0.35 0.05 9.4 0.85 6.8-0.4q4.5-0.6 8.15-1.95l3.65-1.6 2.75-1.8 0.05-0.05q1.5-1.3 2.05-2.75l0.4-1.65h1.5l-0.35 1.8" fill="#4f5489" fill-rule="evenodd"/>
</g>
<g id="e" transform="translate(-263.2,-182.55)">
<path d="m264.45 187.9h-0.1l4.35 9.1 1.75 1.75-1.3 1.6 0.4 4.05 1 1 1.6-0.6-0.1 0.4q-1.5 4.85-3.95 8.1l-2.2 1.9q1.5-4.05 2.2-10.5 0.9-9.65-4.9-17.7l0.15 0.15 1 0.7 0.1 0.05" fill="#e3db33" fill-rule="evenodd"/>
<path d="m271.35 196.8-0.65 0.35-1.55-1.15-3.9-7.4q4.45 3.85 6.1 8.2m0.2 3.25 0.2 1.75-0.7 1.15-0.8-1-0.15-1.65 1.45-0.25" fill="#fff" fill-rule="evenodd"/>
<path d="m272.05 205.2q-1.3 8.25-7.6 12.8l0.8-1.45 0.65-1.35 2.2-1.9q2.45-3.25 3.95-8.1" fill="#b4ac18" fill-rule="evenodd"/>
<path d="m265.25 188.6 3.9 7.4 1.55 1.15 0.65-0.35q0.65 1.5 0.85 3.2l0.15 1.75-0.05 2.15v0.05l-0.15 0.85-1.6 0.6-1-1-0.4-4.05 1.3-1.6-1.75-1.75-4.35-9.1h0.1l0.8 0.7m6.3 11.45-1.45 0.25 0.15 1.65 0.8 1 0.7-1.15-0.2-1.75" fill="#eee986" fill-rule="evenodd"/>
<path d="m271.35 196.8q-1.65-4.35-6.1-8.2m7.05 15.35v-0.05l0.05-2.15-0.15-1.75q-0.2-1.7-0.85-3.2m-5.45 18.4q1.5-4.05 2.2-10.5 0.9-9.65-4.9-17.7l0.15 0.15m1 0.7 0.1 0.05m7.6 17.3q-1.3 8.25-7.6 12.8l0.8-1.45" fill="none" stroke="#423029" stroke-linecap="round" stroke-linejoin="round" stroke-opacity=".45098" stroke-width=".05"/>
<path d="m282.6 202.2 0.1 0.4q1.4 4.55 3.5 7.25l1.85 1.45q-1.35-3.7-2.15-10.05-1.05-9.45 3.4-18.7l-0.1 0.2-0.8 0.9-0.05 0.05h0.05l-3.25 10-1.4 2.1 1.15 1.35-0.2 4.1-0.75 1.25-1.35-0.3" fill="#e3db33" fill-rule="evenodd"/>
<path d="m287.65 184.6q-3.45 4.75-4.7 9.45l0.6 0.2 1.2-1.45 2.9-8.2m-4.7 12.75-0.15 1.8 0.6 1 0.65-1.2 0.1-1.65-1.2 0.05" fill="#fff" fill-rule="evenodd"/>
<path d="m282.7 202.6q1.3 8 6.65 11.2l-0.75-1.25-0.55-1.25-1.85-1.45q-2.1-2.7-3.5-7.25" fill="#b4ac18" fill-rule="evenodd"/>
<path d="m288.35 183.7-0.7 0.9-2.9 8.2-1.2 1.45-0.6-0.2q-0.45 1.65-0.55 3.4l-0.1 1.75 0.15 2.15v0.05l0.15 0.8 1.35 0.3 0.75-1.25 0.2-4.1-1.15-1.35 1.4-2.1 3.25-10h-0.05m-5.4 13.65 1.2-0.05-0.1 1.65-0.65 1.2-0.6-1 0.15-1.8" fill="#eee986" fill-rule="evenodd"/>
<path d="m287.65 184.6q-3.45 4.75-4.7 9.45-0.45 1.65-0.55 3.4l-0.1 1.75 0.15 2.15v0.05m0.25 1.2q1.3 8 6.65 11.2l-0.75-1.25m-0.55-1.25q-1.35-3.7-2.15-10.05-1.05-9.45 3.4-18.7l-0.1 0.2m-0.8 0.9-0.05 0.05" fill="none" stroke="#423029" stroke-linecap="round" stroke-linejoin="round" stroke-opacity=".45098" stroke-width=".05"/>
</g>
<g id="b" transform="translate(3.15,10.7)">
<path d="m-2.3-10.1h-0.05l3 6.3 1.2 1.2-0.9 1.1 0.3 2.8 0.65 0.7 1.15-0.4-0.1 0.25q-1.05 3.4-2.7 5.6l-1.55 1.3q1.05-2.8 1.55-7.2 0.6-6.75-3.4-12.25l0.1 0.1 0.7 0.45 0.05 0.05" fill="#b3ab30" fill-rule="evenodd"/>
<path d="m2.5-3.95-0.5 0.25-1.05-0.8-2.7-5.1q3.1 2.65 4.25 5.65m0.1 2.25 0.15 1.25-0.45 0.75-0.6-0.65-0.1-1.2 1-0.15" fill="#c7c4bf" fill-rule="evenodd"/>
<path d="m2.95 1.85q-0.85 5.7-5.25 8.85l0.55-1 0.45-0.95 1.55-1.3q1.65-2.2 2.7-5.6" fill="#928a1d" fill-rule="evenodd"/>
<path d="m-1.75-9.6 2.7 5.1 1.05 0.8 0.5-0.25 0.6 2.2 0.1 1.2-0.05 1.5v0.05l-0.1 0.6-1.15 0.4-0.65-0.7-0.3-2.8 0.9-1.1-1.2-1.2-3-6.3h0.05l0.55 0.5m4.35 7.9-1 0.15 0.1 1.2 0.6 0.65 0.45-0.75-0.15-1.25" fill="#bbb46a" fill-rule="evenodd"/>
<path d="m2.5-3.95q-1.15-3-4.25-5.65m4.9 10.6v-0.05l0.05-1.5-0.1-1.2-0.6-2.2m-4.85-6.2 0.05 0.05m1 18.85q1.05-2.8 1.55-7.2 0.6-6.75-3.4-12.25l0.1 0.1m6 12.45q-0.85 5.7-5.25 8.85l0.55-1" fill="none" stroke="#433329" stroke-linecap="round" stroke-linejoin="round" stroke-opacity=".45098" stroke-width=".05"/>
</g>
<g id="a" transform="translate(2.2,2.2)">
<path d="m1.45-1.55q0.4 0.4 0.4 1.05 0 0.6-0.4 1.05-0.45 0.4-1.05 0.4-0.65 0-1.05-0.4-0.45-0.45-0.45-1.05 0-0.65 0.45-1.05l1.05-0.45q0.6 0 1.05 0.45m-0.25 0.2-0.75-0.3q-0.45 0-0.75 0.3l-0.3 0.75 0.3 0.75q0.3 0.3 0.75 0.3l0.75-0.3 0.3-0.75-0.3-0.75" fill="#eee986" fill-rule="evenodd"/>
<path d="m1.2-1.35 0.3 0.75-0.3 0.75-0.75 0.3q-0.45 0-0.75-0.3l-0.3-0.75 0.3-0.75q0.3-0.3 0.75-0.3l0.75 0.3" fill="#fff" fill-rule="evenodd"/>
<path d="m1.45-1.65 0.1 0.1q0.65 0.65 0.65 1.55l-0.1 0.7-0.55 0.85-0.45 0.4q-1.85 0.05-3.3-1.8v-0.15q0-0.9 0.65-1.55t1.55-0.65l0.45 0.05-0.05 0.15-1.05 0.45q-0.45 0.4-0.45 1.05 0 0.6 0.45 1.05 0.4 0.4 1.05 0.4 0.6 0 1.05-0.4 0.4-0.45 0.4-1.05 0-0.65-0.4-1.05v-0.1" fill="#e3db33" fill-rule="evenodd"/>
<path d="m1.45-1.65v0.1q-0.45-0.45-1.05-0.45l0.05-0.15 1 0.5" fill="#f4f1b3" fill-rule="evenodd"/>
<path d="m-2.2 0.15q1.45 1.85 3.3 1.8l-1.1 0.25q-0.9 0-1.55-0.65l-0.25-0.25-0.4-1.15" fill="#b4ac18" fill-rule="evenodd"/>
<path d="m1.1 1.95 0.45-0.4 0.55-0.85q-0.05 1.3-0.55 1.95l-1.3 0.7q-0.75 0-1.65-0.65-0.45-0.55-0.4-1.4l0.25 0.25q0.65 0.65 1.55 0.65l1.1-0.25" fill-opacity=".45098" fill-rule="evenodd"/>
<path d="m2.1 0.7 0.1-0.7q0-0.9-0.65-1.55l-0.1-0.1m-1-0.5-0.45-0.05q-0.9 0-1.55 0.65t-0.65 1.55v0.15m3.3 1.8 0.45-0.4 0.55-0.85m-3.9 0.6-0.4-1.15m2.65-2.3 1 0.5m-0.35 3.6-1.1 0.25q-0.9 0-1.55-0.65l-0.25-0.25" fill="none" stroke="#000" stroke-linecap="round" stroke-linejoin="round" stroke-opacity=".45098" stroke-width=".05"/>
</g>
<g id="d" transform="translate(-266.75,-185.1)">
<path d="m269.45 189.55q-0.7-0.25-0.6-1.1 0.05-0.6 0.65-1 0.8-0.55 1.85-0.6 1-0.1 1.75 0.4l1.2 1.25 0.25 1.1q0.8 0.35 0.9 1.3l-0.1 1q1.8 3.55 2.1 7.15h-2.35l-0.55-2.4-0.25-0.75q0.2-1.8-1-2.9l-0.45 0.9 0.05 0.05q-0.05 0.4 0.35 0.5-0.25 0.35-0.75 0.35-0.95 0-1.25-0.85h-0.05 0.05q-1.15 1.15-0.2 1.55l0.5-0.1q-0.15 0.7-1.2 0.6-1.1-0.1-1.6-0.8-0.6-0.7-0.45-1.55l0.1-0.4q0.25-0.6 1.05-0.75-1.35-0.3-1.25 0.75h-0.6q-1-0.15-0.8-1.3 0.15-1.2 0.95-1.85l0.7-0.4 0.95 0.1 1.15 0.3 1 0.05 0.5-0.4q0.15-0.2-0.2-0.5l-1.4-0.95 0.25 0.6q0.1 0.85-0.85 0.75l-0.4-0.1m1.65 2.7q0.3 0.05 0.5 0.25l0.3 0.7v-0.65q0-0.45 0.35-0.65l-0.85-0.35q-0.55-0.2-0.4-0.65h-0.45l-0.9 0.15q-0.4 0.1-0.7 0.35l-0.6 0.6-0.1 0.25 0.9-0.15 1-0.05-0.25 0.75-0.2 0.75 0.05 0.85 0.2 0.85 0.25 0.4 0.3-0.85q0.2-0.4 0.5-0.65l0.2-0.2v-0.05q-0.3-0.8-0.1-1.65m3.45-2.55v-0.1 0.1l-0.05 0.45-0.3 0.65-0.3 0.6 0.3-0.1q0.85-0.3 0.75-0.75l-0.4-0.85" fill="#fbeef2" fill-rule="evenodd"/>
<path d="m269.45 189.55 0.4 0.1q0.95 0.1 0.85-0.75l-0.25-0.6 1.4 0.95q0.35 0.3 0.2 0.5l-0.5 0.4-1-0.05-1.15-0.3-0.95-0.1 1-0.15m1.75 4.4-0.2 0.2q-0.3 0.25-0.5 0.65l-0.3 0.85-0.25-0.4-0.2-0.85-0.05-0.85 0.2-0.75 0.25-0.75-1 0.05-0.9 0.15 0.1-0.25 0.6-0.6q0.3-0.25 0.7-0.35l0.9-0.15h0.45q-0.15 0.45 0.4 0.65l0.85 0.35q-0.35 0.2-0.35 0.65v0.65l-0.3-0.7q-0.2-0.2-0.5-0.25-0.2 0.85 0.1 1.65v0.05m1.7 0-0.05-0.05 0.45-0.9q1.2 1.1 1 2.9l-0.5-0.9 0.5 0.9 0.2 0.8-0.7-1.7-0.6-1-0.2-0.05h-0.1m1.65-4.25 0.4 0.85q0.1 0.45-0.75 0.75l-0.3 0.1 0.3-0.6 0.3-0.65 0.05-0.45" fill="#f0bdcc" fill-rule="evenodd"/>
<path d="m274.55 189.6-0.25-1.1-1.2-1.25q-0.75-0.5-1.75-0.4-1.05 0.05-1.85 0.6-0.6 0.4-0.65 1-0.1 0.85 0.6 1.1l0.4 0.1q0.95 0.1 0.85-0.75m-2.25 0.8-0.7 0.4q-0.8 0.65-0.95 1.85-0.2 1.15 0.8 1.3h0.6q-0.1-1.05 1.25-0.75-0.8 0.15-1.05 0.75l-0.1 0.4q-0.15 0.85 0.45 1.55 0.5 0.7 1.6 0.8 1.05 0.1 1.2-0.6l-0.5 0.1q-0.95-0.4 0.2-1.55 0.3 0.85 1.25 0.85 0.5 0 0.75-0.35-0.4-0.1-0.35-0.5m-1.8-1.7q-0.2 0.85 0.1 1.65v0.05h0.05m6.2 5.1q-0.3-3.6-2.1-7.15l0.1-1q-0.1-0.95-0.9-1.3v0.1m-0.05 0.45 0.05-0.45m-6.35 3.55h0.2m4.6 0.7h-0.1m0.1 0 0.2 0.05m-3.75-4.45-1 0.15" fill="none" stroke="#c47198" stroke-linecap="round" stroke-linejoin="round" stroke-width=".05"/>
<path d="m274.3 195.9 0.25 0.75 0.55 2.4m-1.9-5.05 0.6 1 0.5 0.9" fill="none" stroke="#c47198" stroke-linecap="round" stroke-linejoin="round" stroke-width=".05"/>
<path d="m283.3 187.6q0.55-0.3 0.45-1.15-0.05-0.6-0.5-0.95-0.6-0.45-1.4-0.4-0.8 0-1.35 0.55-0.6 0.55-0.95 1.35-0.25 0.55-0.2 1.1-0.6 0.45-0.7 1.4l0.1 1q-1.65 4.5-1.65 8.85l1.75 0.2q0-2.35 0.5-4.4l0.2-0.75q-0.15-1.8 0.75-3l0.35 0.85v0.05l-0.3 0.55q0.2 0.35 0.6 0.3 0.7-0.1 0.95-0.95l0.05-0.05-0.05 0.05q0.9 1.05 0.15 1.5l-0.4-0.05q0.15 0.7 0.95 0.5 0.85-0.2 1.25-0.95 0.45-0.75 0.35-1.6l-0.1-0.35q-0.2-0.6-0.8-0.7 1.05-0.4 0.95 0.65l0.45-0.05q0.8-0.25 0.65-1.35-0.1-1.2-0.75-1.8l-0.55-0.3-0.7 0.15-0.9 0.4-0.8 0.15-0.35-0.35q-0.15-0.2 0.15-0.5l1.05-1.1-0.15 0.65q-0.1 0.85 0.65 0.65l0.3-0.15m-1.3 2.85-0.35 0.3-0.25 0.75v-0.65l-0.25-0.65 0.65-0.4q0.4-0.25 0.3-0.7l0.35-0.05 0.7 0.1 0.55 0.3 0.45 0.5 0.05 0.25-0.65-0.05-0.8 0.05 0.2 0.7 0.15 0.75-0.05 0.85-0.15 0.85-0.2 0.45-0.2-0.85-0.4-0.6-0.15-0.2v-0.05l0.05-1.65m-2.65-2.25v-0.1 0.1l0.05 0.45 0.25 0.65 0.2 0.55-0.2-0.05q-0.7-0.25-0.6-0.7l0.3-0.9" fill="#fbeef2" fill-rule="evenodd"/>
<path d="m283.3 187.6-0.3 0.15q-0.75 0.2-0.65-0.65l0.15-0.65-1.05 1.1q-0.3 0.3-0.15 0.5l0.35 0.35 0.8-0.15 0.9-0.4 0.7-0.15-0.75-0.1m-1.35 4.55 0.15 0.2 0.4 0.6 0.2 0.85 0.2-0.45 0.15-0.85 0.05-0.85-0.15-0.75-0.2-0.7 0.8-0.05 0.65 0.05-0.05-0.25-0.45-0.5-0.55-0.3-0.7-0.1-0.35 0.05q0.1 0.45-0.3 0.7l-0.65 0.4 0.25 0.65v0.65l0.25-0.75 0.35-0.3-0.05 1.65v0.05m-1.3 0.15v-0.05l-0.35-0.85q-0.9 1.2-0.75 3l0.4-0.95-0.4 0.95-0.15 0.8 0.55-1.75 0.45-1.05 0.15-0.05 0.1-0.05m-1.3-4.1-0.3 0.9q-0.1 0.45 0.6 0.7l0.2 0.05-0.2-0.55-0.25-0.65-0.05-0.45" fill="#f0bdcc" fill-rule="evenodd"/>
<path d="m279.35 188.1q-0.05-0.55 0.2-1.1 0.35-0.8 0.95-1.35 0.55-0.55 1.35-0.55 0.8-0.05 1.4 0.4 0.45 0.35 0.5 0.95 0.1 0.85-0.45 1.15l-0.3 0.15q-0.75 0.2-0.65-0.65m1.7 0.6 0.55 0.3q0.65 0.6 0.75 1.8 0.15 1.1-0.65 1.35l-0.45 0.05q0.1-1.05-0.95-0.65 0.6 0.1 0.8 0.7l0.1 0.35q0.1 0.85-0.35 1.6-0.4 0.75-1.25 0.95-0.8 0.2-0.95-0.5l0.4 0.05q0.75-0.45-0.15-1.5-0.25 0.85-0.95 0.95-0.4 0.05-0.6-0.3l0.3-0.55m1.35-1.85-0.05 1.65v0.05l-0.05 0.05m-4.8 7.15q0-4.35 1.65-8.85l-0.1-1q0.1-0.95 0.7-1.4v0.1m0.05 0.45-0.05-0.45m4.9 3-0.15 0.05m-3.55 1.1-0.15 0.05m0.15-0.05 0.1-0.05m2.65-4.7 0.75 0.1" fill="none" stroke="#c47198" stroke-linecap="round" stroke-linejoin="round" stroke-width=".05"/>
<path d="m279.55 194.4-0.2 0.75q-0.5 2.05-0.5 4.4m1.55-7.15-0.45 1.05-0.4 0.95" fill="none" stroke="#c47198" stroke-linecap="round" stroke-linejoin="round" stroke-width=".05"/>
<path d="m283.55 212.6q0.55 0.35 0.4 1.3 0 0.7-0.5 1.1-0.6 0.55-1.4 0.5-0.8 0-1.35-0.65l-0.95-1.55-0.1-1.3q-0.65-0.45-0.7-1.6l0.1-1.1q-1.55-5.15-1.5-10.15l1.8-0.2q0 2.7 0.45 5l0.1 0.9q-0.15 2 0.75 3.4l0.4-0.95-0.05-0.1q0.05-0.45-0.25-0.6 0.15-0.4 0.55-0.3 0.75 0.05 0.95 1.05h0.05-0.05q0.9-1.2 0.2-1.75l-0.4 0.05q0.15-0.75 0.95-0.55 0.8 0.25 1.2 1.1 0.45 0.85 0.35 1.8l-0.15 0.45q-0.15 0.65-0.8 0.8 1.05 0.4 0.95-0.8l0.5 0.05q0.75 0.35 0.6 1.6-0.15 1.4-0.8 2.05l-0.5 0.4-0.75-0.25-0.9-0.45-0.75-0.2-0.4 0.45q-0.1 0.2 0.15 0.6l1.05 1.25-0.15-0.75q-0.1-0.95 0.65-0.75l0.3 0.15m-1.2-3.3-0.4-0.3-0.25-0.8v0.7l-0.25 0.7 0.65 0.5q0.45 0.3 0.25 0.8h0.35l0.75-0.05q0.3-0.05 0.55-0.3l0.05-0.05 0.4-0.6 0.1-0.3-0.7 0.1-0.8-0.05 0.2-0.8 0.2-0.85v-1l-0.2-0.95-0.15-0.55-0.25 1-0.4 0.7-0.15 0.15v0.1q0.2 0.95 0.05 1.85m-2.7 2.6v0.1-0.65l0.25-0.65 0.3-0.65-0.25 0.05q-0.7 0.25-0.65 0.8l0.35 1" fill="#fbeef2" fill-rule="evenodd"/>
<path d="m283.55 212.6-0.3-0.15q-0.75-0.2-0.65 0.75l0.15 0.75-1.05-1.25q-0.25-0.4-0.15-0.6l0.4-0.45 0.75 0.2 0.9 0.45 0.75 0.25-0.8 0.05m-1.25-5.25 0.15-0.15 0.4-0.7 0.25-1 0.15 0.55 0.2 0.95v1l-0.2 0.85-0.2 0.8 0.8 0.05 0.7-0.1-0.1 0.3-0.4 0.6-0.05 0.05q-0.25 0.25-0.55 0.3l-0.75 0.05h-0.35q0.2-0.5-0.25-0.8l-0.65-0.5 0.25-0.7v-0.7l0.25 0.8 0.4 0.3q0.15-0.9-0.05-1.85v-0.1m-1.3-0.15 0.05 0.1-0.4 0.95q-0.9-1.4-0.75-3.4l0.4 1.05-0.4-1.05-0.1-1 0.5 2.05 0.45 1.2 0.15 0.05 0.1 0.05m-1.35 4.7-0.35-1q-0.05-0.55 0.65-0.8l0.25-0.05-0.3 0.65-0.25 0.65v0.55" fill="#f0bdcc" fill-rule="evenodd"/>
<path d="m279.65 212 0.1 1.3 0.95 1.55q0.55 0.65 1.35 0.65 0.8 0.05 1.4-0.5 0.5-0.4 0.5-1.1 0.15-0.95-0.4-1.3l-0.3-0.15q-0.75-0.2-0.65 0.75m1.75-0.65 0.5-0.4q0.65-0.65 0.8-2.05 0.15-1.25-0.6-1.6l-0.5-0.05q0.1 1.2-0.95 0.8 0.65-0.15 0.8-0.8l0.15-0.45q0.1-0.95-0.35-1.8-0.4-0.85-1.2-1.1-0.8-0.2-0.95 0.55l0.4-0.05q0.7 0.55-0.2 1.75-0.2-1-0.95-1.05-0.4-0.1-0.55 0.3 0.3 0.15 0.25 0.6m1.35 2.1q0.15-0.9-0.05-1.85v-0.1h-0.05m-4.7-8.2q-0.05 5 1.5 10.15l-0.1 1.1q0.05 1.15 0.7 1.6v-0.1m0-0.55v0.55m4.9-3.45h-0.15m-3.5-1.3-0.15-0.05m0.15 0.05 0.1 0.05m2.55 5.4 0.8-0.05" fill="none" stroke="#c47198" stroke-linecap="round" stroke-linejoin="round" stroke-width=".05"/>
<path d="m279.9 204.85-0.1-0.9q-0.45-2.3-0.45-5m1.4 8.15-0.45-1.2-0.4-1.05" fill="none" stroke="#c47198" stroke-linecap="round" stroke-linejoin="round" stroke-width=".05"/>
<path d="m271.35 213.85q-0.65 0.4-0.4 1.35 0.15 0.7 0.85 1.05 0.85 0.5 1.9 0.4 1-0.05 1.65-0.75t0.95-1.6l0.05-1.3q0.7-0.55 0.65-1.65l-0.3-1.15q1.3-5.3 0.5-10.3l-2.35-0.05q0.45 2.7 0.15 5.05l-0.1 0.9q0.55 2-0.45 3.5l-0.6-1 0.05-0.05q-0.1-0.45 0.25-0.65-0.3-0.35-0.8-0.3-0.95 0.15-1.1 1.2l-0.05 0.05 0.05-0.05q-1.35-1.15-0.5-1.75h0.55q-0.3-0.75-1.3-0.45-1.05 0.3-1.4 1.15-0.5 0.9-0.2 1.9l0.2 0.45q0.35 0.65 1.2 0.65-1.3 0.6-1.4-0.65l-0.6 0.1q-1 0.3-0.55 1.65 0.35 1.3 1.3 1.95l0.75 0.35 0.95-0.3 1.05-0.5 1-0.25 0.55 0.4q0.2 0.2-0.1 0.65l-1.25 1.3 0.15-0.75q-0.05-1-1-0.7l-0.3 0.15m1.1-3.35 0.45-0.4 0.15-0.85 0.15 0.75q0.05 0.5 0.45 0.7l-0.8 0.55q-0.5 0.35-0.25 0.8l-0.45 0.1-0.9-0.05q-0.4-0.05-0.75-0.3l-0.05-0.05-0.65-0.5-0.15-0.3h0.9l0.95-0.1-0.35-0.8-0.3-0.85-0.1-1-0.05-0.95 0.2-0.5 0.45 0.9 0.65 0.65 0.2 0.25v0.05q-0.15 0.95 0.25 1.9m3.85 2.4 0.05 0.1-0.05-0.1-0.1-0.55-0.45-0.7-0.4-0.65 0.3 0.1q0.9 0.2 0.9 0.75l-0.25 1.05" fill="#fbeef2" fill-rule="evenodd"/>
<path d="m271.35 213.85 0.3-0.15q0.95-0.3 1 0.7l-0.15 0.75 1.25-1.3q0.3-0.45 0.1-0.65l-0.55-0.4-1 0.25-1.05 0.5-0.95 0.3h1.05m0.85-5.3-0.2-0.25-0.65-0.65-0.45-0.9-0.2 0.5 0.05 0.95 0.1 1 0.3 0.85 0.35 0.8-0.95 0.1h-0.9l0.15 0.3 0.65 0.5 0.05 0.05q0.35 0.25 0.75 0.3l0.9 0.05 0.45-0.1q-0.25-0.45 0.25-0.8l0.8-0.55q-0.4-0.2-0.45-0.7l-0.15-0.75-0.15 0.85-0.45 0.4q-0.4-0.95-0.25-1.9v-0.05m1.7-0.3-0.05 0.05 0.6 1q1-1.5 0.45-3.5l-0.35 1.1 0.35-1.1 0.05-1-0.4 2.1-0.35 1.25-0.2 0.1h-0.1m2.4 4.65 0.25-1.05q0-0.55-0.9-0.75l-0.3-0.1 0.4 0.65 0.45 0.7 0.1 0.55" fill="#f0bdcc" fill-rule="evenodd"/>
<path d="m276.35 213-0.05 1.3q-0.3 0.9-0.95 1.6t-1.65 0.75q-1.05 0.1-1.9-0.4-0.7-0.35-0.85-1.05-0.25-0.95 0.4-1.35l0.3-0.15q0.95-0.3 1 0.7m-2.35-0.55-0.75-0.35q-0.95-0.65-1.3-1.95-0.45-1.35 0.55-1.65l0.6-0.1q0.1 1.25 1.4 0.65-0.85 0-1.2-0.65l-0.2-0.45q-0.3-1 0.2-1.9 0.35-0.85 1.4-1.15 1-0.3 1.3 0.45h-0.55q-0.85 0.6 0.5 1.75 0.15-1.05 1.1-1.2 0.5-0.05 0.8 0.3-0.35 0.2-0.25 0.65m-1.45 2.25q-0.4-0.95-0.25-1.9v-0.05l0.05-0.05m4.95-8.6q0.8 5-0.5 10.3l0.3 1.15q0.05 1.1-0.65 1.65l-0.05-0.1m-0.1-0.55 0.1 0.55m-6.9-3.1h0.2m4.4-1.55 0.2-0.1m-0.2 0.1h-0.1m-2.55 5.6h-1.05" fill="none" stroke="#c47198" stroke-linecap="round" stroke-linejoin="round" stroke-width=".05"/>
<path d="m274.9 205.8 0.1-0.9q0.3-2.35-0.15-5.05m-0.65 8.3 0.35-1.25 0.35-1.1" fill="none" stroke="#c47198" stroke-linecap="round" stroke-linejoin="round" stroke-width=".05"/>
</g>
<g id="c" transform="translate(6.1,3.15)">
<path d="m-3.95 2.2 0.05-0.1 1.25 0.4-1.3-0.3" fill="#b0a19a" fill-rule="evenodd"/>
<path d="m4.55-1.45v0.1l-0.1-0.1h0.1m1.2-0.65h-0.05l-0.05-0.05 0.1 0.05m-10.75 0.55-0.05 0.75v-0.75h0.05" fill="#7b7662" fill-rule="evenodd"/>
<path d="m-0.2 0.05q0.3 0.05 0.45 0.2l0.2 0.5-0.25 0.4-0.5 0.15-0.45-0.2-0.2-0.5 0.25-0.4 0.5-0.15" fill="#535249" fill-rule="evenodd"/>
<path d="m4.55-1.35v-0.1q1.35 0 1.15-0.65h0.05q0.35 0.3 0.3 0.7v0.55q-0.75-0.25-1.3 0.7l0.05-0.65-0.25-0.55m-8.7-0.9-0.5 0.1-0.35 0.6h-0.05q-0.15-0.9-0.85 0.1l0.05-0.9 0.45-0.7 0.25-0.1q-0.9 0.75 1 0.9" fill="#c1bb41" fill-rule="evenodd"/>
<path d="m4.55-1.35 0.25 0.55-0.05 0.65q0.55-0.95 1.3-0.7l-0.25 3.1-0.1 0.45-0.35 0.35-2.9 0.35-5.25-0.4q-2.65-0.6-2.95-0.95l-0.2-0.2-0.15-0.55 0.2-2.75q0.7-1 0.85-0.1v0.75l0.05-0.75 0.35-0.6 0.5-0.1 2 0.2 4.35 0.35 2.25 0.25 0.1 0.1m-8.45 3.45q1.35-2.8 7.35-2.6l-0.2-0.5-0.05-0.05-1.9-0.2-3.65-0.3-1.7-0.2-0.4 0.1-0.3 0.5-0.2 2.5 0.25 0.5 0.75 0.35 1.3 0.3-1.25-0.4m3.7-2.05-0.5 0.15-0.25 0.4 0.2 0.5 0.45 0.2 0.5-0.15 0.25-0.4-0.2-0.5q-0.15-0.15-0.45-0.2" fill="#e8e157" fill-rule="evenodd"/>
<path d="m-3.95 2.2-0.75-0.35-0.25-0.5 0.2-2.5 0.3-0.5 0.4-0.1 1.7 0.2 3.65 0.3 1.9 0.2 0.05 0.05 0.2 0.5q-6-0.2-7.35 2.6l-0.05 0.1" fill="#f0ec93" fill-rule="evenodd"/>
<path d="m5.7-2.1q0.2 0.65-1.15 0.65h-0.1l-2.25-0.25-4.35-0.35-2-0.2q-1.9-0.15-1-0.9l2.8 0.25 5.25 0.4 2.75 0.35 0.05 0.05" fill="#f6f3c0" fill-rule="evenodd"/>
<path d="m-5.95 1.85 0.2 0.2q0.3 0.35 2.95 0.95l5.25 0.4 2.9-0.35-0.25 1.15-4.05 0.8-5.6-0.6-0.8-0.65-0.6-1.9" fill="#2e2e2e" fill-opacity=".45098" fill-rule="evenodd"/>
<path d="m6.05-0.85v-0.55q0.05-0.4-0.3-0.7l-0.1-0.05-2.75-0.35-5.25-0.4-2.8-0.25-0.25 0.1-0.45 0.7-0.05 0.9-0.2 2.75 0.15 0.55 0.2 0.2q0.3 0.35 2.95 0.95l5.25 0.4 2.9-0.35 0.35-0.35 0.1-0.45z" fill="none" stroke="#2e2e2e" stroke-linecap="round" stroke-linejoin="round" stroke-opacity=".41176" stroke-width=".05"/>
<path d="m-2.5-2.3-1-0.05-0.75-0.15-0.2-0.25 0.45-0.15h0.85l0.85 0.25 0.3 0.25-0.5 0.1" fill="#fff" fill-rule="evenodd"/>
</g>
</defs>
</svg>
