<?xml version="1.0" encoding="UTF-8"?>
<svg version="1.1" viewBox="0 0 25.446 32.306" xmlns="http://www.w3.org/2000/svg" xmlns:cc="http://creativecommons.org/ns#" xmlns:dc="http://purl.org/dc/elements/1.1/" xmlns:rdf="http://www.w3.org/1999/02/22-rdf-syntax-ns#" xmlns:xlink="http://www.w3.org/1999/xlink">
<metadata>
<rdf:RDF>
<cc:Work rdf:about="">
<dc:format>image/svg+xml</dc:format>
<dc:type rdf:resource="http://purl.org/dc/dcmitype/StillImage"/>
</cc:Work>
</rdf:RDF>
</metadata>
<g transform="translate(-3.6456 -4.2051)">
<use transform="matrix(-1.6028 0 0 1.7809 23.022 26.199)" width="9.1499996" height="4.3499999" xlink:href="#b"/>
<use transform="matrix(2.4234 0 0 2.4234 3.7062 20.16)" width="3.3499999" height="3.3499999" xlink:href="#d"/>
<use transform="matrix(.3149 -.8179 1.1336 -.2973 8.1897 37.94)" width="8.9499998" height="5.3000002" xlink:href="#a"/>
<use transform="matrix(-.8531 .1538 .1825 1.0121 28.222 24.529)" width="8.9499998" height="5.3000002" xlink:href="#a"/>
<use transform="matrix(-2.4234 0 0 2.4234 26.73 4.2657)" width="7.6500001" height="11.45" xlink:href="#c"/>
</g>
<defs>
<g id="b" transform="translate(4.35,2.05)">
<use transform="translate(-4.35,-2.05)" width="9.1499996" height="4.3499999" xlink:href="#e"/>
</g>
<g id="e" transform="translate(4.35,2.05)">
<path d="m3.4-1.7q1.35 0.5 1.4 1.4 0 0.85-1.3 1.6t-3.2 0.95l-3.3-0.35q-1.35-0.5-1.35-1.35-0.05-0.9 1.3-1.6 1.3-0.75 3.2-0.95l3.25 0.3" fill="#382c16" fill-rule="evenodd"/>
</g>
<g id="d" transform="translate(5.3 .45)">
<path d="m-2.05 1.2q0-0.65-0.5-1.1-0.4-0.45-1.1-0.45-0.65 0-1.1 0.45-0.4 0.4-0.45 1l0.35 0.3 1.25 0.35 1.25-0.35 0.3-0.2" fill="#fffdf9" fill-rule="evenodd"/>
<path d="m-2.05 1.2-0.3 0.2-1.25 0.35-1.25-0.35-0.35-0.3v0.15l0.45 1.1q0.45 0.45 1.1 0.45 0.7 0 1.1-0.45 0.5-0.5 0.5-1.1v-0.05" fill="#c2bda3" fill-rule="evenodd"/>
<path d="m-5.2 1.1q0.05-0.6 0.45-1 0.45-0.45 1.1-0.45 0.7 0 1.1 0.45 0.5 0.45 0.5 1.1m-3.15-0.1v0.15l0.45 1.1q0.45 0.45 1.1 0.45 0.7 0 1.1-0.45 0.5-0.5 0.5-1.1v-0.05" fill="none" stroke="#867b59" stroke-linecap="round" stroke-linejoin="round" stroke-width=".25"/>
</g>
<g id="a" transform="translate(6.15,2.05)">
<path d="m0.15-1.85q1.45-0.7 2.4 0.9t-1.75 2.55l-4.35 1.4-2.4 0.05q-0.8-0.45 1.95-2.35 2.7-1.9 4.15-2.55" fill-rule="evenodd"/>
</g>
<g id="c" transform="translate(3.85,5.75)">
<path d="m-3.75 1.7q0.25-2.3 1.05-4.1l1.4-2.75 0.6-0.5-0.2 3.1q1.15 0.3 1.85 0.9 0.9-1.65 2-2.75v6.15l-1.15 2.4h-1.2q-2.3 0-3-0.8l-1.35-1.65m4.45 1.15h0.05-0.05l-1-0.3 0.45 1.15 0.55-0.85m-1.05-1.75 0.05-0.6-0.05 0.6m-1.4 0.9-1-0.35 0.5 1.3 0.5-0.95m-0.05-1.45 0.1-0.65-0.1 0.65" fill="#8e6140" fill-rule="evenodd"/>
<path d="m2.95-4.4 0.5 2.8 0.25 5q0.1 0.85-0.65 1.5l-0.9 0.7-2.1-0.15-2.85-1.2q-0.75-0.3-0.95-2.55l1.35 1.65q0.7 0.8 3 0.8h1.2l1.15-2.4v-6.15" fill="#583827" fill-rule="evenodd"/>
<path d="m0.7 2.85-0.55 0.85-0.45-1.15 1 0.3m-2.45-0.85-0.5 0.95-0.5-1.3 1 0.35" fill="#e6dbb7" fill-rule="evenodd"/>
<path d="m0.7 2.85h0.05-0.05" fill="#e3d6bf" fill-rule="evenodd"/>
<path d="m2.95-4.4 0.5 2.8 0.25 5q0.1 0.85-0.65 1.5l-0.9 0.7-2.1-0.15-2.85-1.2q-0.75-0.3-0.95-2.55m3.05-7.35-0.2 3.1q1.15 0.3 1.85 0.9" fill="none" stroke="#3e241c" stroke-linecap="round" stroke-linejoin="round" stroke-width=".25"/>
<path d="m-0.3 0.5-0.05 0.6m-1.35-1.2-0.1 0.65" fill="none" stroke="#000" stroke-linecap="round" stroke-linejoin="round" stroke-width=".25"/>
</g>
</defs>
</svg>
