<?xml version="1.0" encoding="UTF-8"?>
<svg version="1.1" viewBox="0 0 245.29 134.85" xmlns="http://www.w3.org/2000/svg" xmlns:cc="http://creativecommons.org/ns#" xmlns:dc="http://purl.org/dc/elements/1.1/" xmlns:rdf="http://www.w3.org/1999/02/22-rdf-syntax-ns#" xmlns:xlink="http://www.w3.org/1999/xlink">
<metadata>
<rdf:RDF>
<cc:Work rdf:about="">
<dc:format>image/svg+xml</dc:format>
<dc:type rdf:resource="http://purl.org/dc/dcmitype/StillImage"/>
</cc:Work>
</rdf:RDF>
</metadata>
<g transform="translate(-152.3 -132.6)">
<use transform="translate(152.3,132.6)" width="245.3" height="134.85001" xlink:href="#a"/>
</g>
<defs>
<g id="a" transform="translate(1.25,1.25)">
<use transform="translate(-1.25,-1.25)" width="245.3" height="134.85001" xlink:href="#b"/>
</g>
<g id="b" transform="translate(1.25,1.25)">
<path d="m239.55 22.65q6.5 16.55 0 31.65l-0.1 0.3-0.4 1.3 0.35 1.1v0.1l0.05 0.25 0.05 0.2v0.55l0.05-1.05q6.5 16.55 0 31.65l-0.1 0.3q-0.7 4.3-8.25 8.05-8.65 4.25-26.3 7.8-14.2 2.85-30.75 4.55l-10.85 0.95-19.65 1.05-3.6 10.4-0.95 3.95-0.45-0.05-0.85 5.4-1.6 0.15-2.7 0.3-16 0.8-3.55-0.05-18.1-1.2-7.75-1.05-4.8-9.25 0.05-0.05-5.45-10.5q-21.95-1.75-40-5.4-20-4-28.5-8.95-5.1-2.95-6.1-6.2l-0.15-0.6q-6.45-15.2 0.25-31.95l0.2-0.05v-0.05l-0.05-0.3h-0.05l0.15-0.55-0.35-0.9-0.15-0.6q-6.45-15.2 0.25-31.95l0.2-0.05v-0.05l-0.05-0.3h-0.05q1.75-7.1 22.45-12.6 5.3-1.45 11.95-2.8 34.6-6.95 83.5-6.95t83.5 6.95l6.55 1.45q26.25 6.05 27.95 14.2v0.1l0.05 0.25 0.05 0.2v0.55l0.05-1.05" fill="#d0bc93" fill-rule="evenodd"/>
<path d="m239.55 22.65q6.5 16.55 0 31.65l-0.1 0.3-0.4 1.3 0.35 1.1v0.1l0.05 0.25m0.1-0.3q6.5 16.55 0 31.65l-0.1 0.3q-0.7 4.3-8.25 8.05-8.65 4.25-26.3 7.8-14.2 2.85-30.75 4.55l-10.85 0.95-19.65 1.05-3.6 10.4-0.95 3.95m-1.3 5.35-1.6 0.15-2.7 0.3-16 0.8-3.55-0.05-18.1-1.2-7.75-1.05-4.8-9.25 0.05-0.05-5.45-10.5q-21.95-1.75-40-5.4-20-4-28.5-8.95-5.1-2.95-6.1-6.2l-0.15-0.6q-6.45-15.2 0.25-31.95m0.1-0.4 0.15-0.55-0.35-0.9-0.15-0.6q-6.45-15.2 0.25-31.95m0.1-0.4q1.75-7.1 22.45-12.6 5.3-1.45 11.95-2.8 34.6-6.95 83.5-6.95t83.5 6.95l6.55 1.45q26.25 6.05 27.95 14.2v0.1l0.05 0.25 0.05 0.2m0.05-0.5-0.05 1.05v-0.55m0 34.4v0.55l0.05-1.05m-0.05 0.5-0.05-0.2m-235.9-35 0.05 0.3v0.05l-0.2 0.05m0.1-0.4h0.05m-0.05 34.4h0.05l0.05 0.3v0.05l-0.2 0.05m134.4 73.95 0.85-5.4 0.45 0.05" fill="none" stroke="#000" stroke-linecap="round" stroke-linejoin="round" stroke-width="2.5"/>
<path d="m239.45 22.95 0.1-0.3m-0.1 34.7 0.1-0.3-0.05 0.5m-236.1-0.4v-0.05l0.1-0.35m-0.1-34v-0.05l0.1-0.35m236 0.8 0.05-0.5m-236-0.3-0.15 0.35m0.15 34.05-0.15 0.35" fill="none" stroke="#000" stroke-linecap="round" stroke-linejoin="round" stroke-opacity=".49804" stroke-width=".5"/>
<path d="m139.1 125.75-1.3 5.35" fill="none" stroke="#000" stroke-linecap="round" stroke-linejoin="round" stroke-opacity=".49804" stroke-width=".05"/>
<path d="m211.45 8.4q26.25 6.05 27.95 14.2v0.1l0.05 0.25 0.05 0.2q-1.05 5.25-8.9 9.45-3.35 1.75-7.95 3.3-4.5-1.45-10.25-2.8v-0.4q6.8-7.75-0.95-24.3m27.6 47.5 0.35 1.1v0.1l0.05 0.25 0.05 0.2q-1.05 5.25-8.9 9.45-3.35 1.75-7.95 3.3l-7.5-2.15q10.15-2.6 16.05-5.5 6.35-3.2 7.85-6.75m-235.55-33.55q1.75-7.1 22.45-12.6-8.1 16.95-1.15 24.8-2.45 0.65-4.6 1.35-8.45-2.95-12.6-6.6-3.45-3.05-4-6.6v-0.05l-0.05-0.3h-0.05m5.9 39.15q5 2.9 14 5.5l1.4 1.95q-2.45 0.65-4.6 1.35-8.45-2.95-12.6-6.6-3.45-3.05-4-6.6v-0.05l-0.05-0.3 0.3-0.25q1.4 2.6 5.55 5" fill="#949185" fill-rule="evenodd"/>
<path d="m211.45 8.4q7.75 16.55 0.95 24.3l-0.1 0.35-7.4-1.6q-26.3-5.3-60.9-6.55v-0.1l-12.35-4.1-16.6-5.55-0.9 4.7-8.15 8.7-9 2-10.85-7 0.4 1.95q-27.1 1.6-48.65 5.95-7.35 1.45-13.1 3.1-6.95-7.85 1.15-24.8 5.3-1.45 11.95-2.8 34.6-6.95 83.5-6.95t83.5 6.95l6.55 1.45m19.15 24.2q7.85-4.2 8.9-9.45v0.55l0.05-1.05q6.5 16.55 0 31.65l-0.1 0.3-0.4 1.3q-1.5 3.55-7.85 6.75 2.2-6.1 2.55-12.05 0.55-9.15-3.15-18m8.95 24.45q6.5 16.55 0 31.65l-0.1 0.3q-0.7 4.3-8.25 8.05 5.5-15.45-0.6-30.05 7.85-4.2 8.9-9.45v0.55l0.05-1.05m-65.4 52.35-10.85 0.95-19.65 1.05 2.55-7.3-3.85 3.2-3.55-11.7 4.35-0.65-0.25-5-0.2-3v-0.3l-0.65-5.15q20.8-0.7 38.65-2.8l-0.15-4.4-17.25 1.65-19.45 1.05 7.05-8.1-0.4-10.35-0.15-4.9 23.7-3.05 6.55 16.3 0.1-3.2 0.75-1.2v6.55q0 2.7 0.15 5.1 0.1 2.35 0.35 4.4l0.5 3.7q1.9 10.55 7.45 6.8l0.25 0.4-0.1 0.95-0.9 1.3q-3.2 3.95-7.25 1.15l-0.7-6.45-7.05 23m-34.1 12.4-0.95 3.95-0.45-0.05-4.75-9.15 6.15 5.25m62.55-80.9-17.35 2.8q-16.35 2.15-35.2 3.05v-0.4l-0.25-6.45-0.05-1.2 0.5-3.25 0.1-0.35q29.2 1.4 52.25 5.8m-1.8 30.35q-0.15-5.6 0.1-11.3l0.75-1.2q-0.15 7.05 0.2 12.3 0.1 2.35 0.35 4.35 1.6 14.15 7.9 9.9l0.25 0.4-0.1 0.95-0.9 1.3q-3.2 3.95-7.25 1.15-0.85-6.65-1.15-13.45-0.15-2.2-0.15-4.4m-19.6 15.15-0.5-7.7 0.5 7.7m-0.6-19.5-0.05 7.4 0.05-7.4m-146.65-9.05 0.8 1.2 0.1 10.8-0.15 4.35q-0.3 7.1-1.15 14-4.1 2.8-7.25-1.15l-0.95-1.3-0.05-0.95 0.25-0.4q6.35 4.35 7.95-10.5l0.3-4.3q0.3-5.05 0.15-11.75m34.65-12.85-11.7-1.4-16.7-2.7q16.2-3.1 35.4-4.7l-4.25 5.6-2.5 3.2h-0.25m21.95 21.4 4.7 5.4 15.15-3.15 6.05 0.95 0.3 14.65-11-4.85-10.9-4.9-1.2 7.5-9.85-7.3 6.75-8.3m38.6-1 2.05 2.25 4.7 5.2q-0.35 1.55-0.3 3.15l-0.05 2.55-1.3-1.55-5.1-11.6m-72.25-21.8 14.45-1.8-14.45 1.8m-26.7-13.85q31.9-6.3 63.1-8.3l-7.15 2.1 7.15-2.1q-31.2 2-63.1 8.3m63.1-8.3 21.75-6.3-21.75 6.3m91.95 22.25q-17.65-2.65-35.45-3.8 17.8 1.15 35.45 3.8m-75.25 63.45q-0.5 2.25-0.7 4.55l-0.15 1.5-0.05 1.8v0.65l-6.65-4.9-4.5-5 13.25-3.25q-0.75 2.25-1.2 4.65m36.2-3.05-3.05-9.15 3.05 9.15m-50.2-7.3 4.25 2.55-9.35 1.1 5.1-3.65m19.25-3.15-9.15-2.65 7.3-1.45 1.85 4.1m-20-21.85-0.4 2.7 0.4-2.7m112.95-58.4q-86.15-17.85-178 0.35 91.85-18.2 178-0.35m0 16q-37.7-7.8-76.55-8.7 38.85 0.9 76.55 8.7" fill="#a6a397" fill-rule="evenodd"/>
<path d="m222.65 35.9q4.6-1.55 7.95-3.3 3.7 8.85 3.15 18-0.35 5.95-2.55 12.05-5.9 2.9-16.05 5.5l-4.6 1.1q-0.25-5.7-0.85-11.35v-0.2q-4.5-3.65-7.95 0.9l-0.1 0.15 0.1-0.15q3.45-4.55 7.95-0.9v0.2q0.6 5.65 0.85 11.35l0.1 4.4 2.25-0.55q5.4-1.3 9.75-2.8 4.6-1.55 7.95-3.3 6.1 14.6 0.6 30.05-8.65 4.25-26.3 7.8-14.2 2.85-30.75 4.55l7.05-23 0.7 6.45q4.05 2.8 7.25-1.15l0.9-1.3 0.1-0.95v-0.6q0.35-5.75 0.3-11.45 0.05 5.7-0.3 11.45l-0.25 0.2q-5.55 3.75-7.45-6.8l-0.5-3.7q-0.25-2.05-0.35-4.4-0.15-2.4-0.15-5.1v-6.55l-0.75 1.2-0.1 3.2-6.55-16.3-23.7 3.05-0.3-6.9q18.85-0.9 35.2-3.05l17.35-2.8 2.3-0.45 8-1.75q5.4-1.3 9.75-2.8m-84.85 95.2-1.6 0.15 0.05-1.3q-0.15-5.9-3.35-10.45-2.9-4.05-5.4-4-3.6 0.05-8.3 2.35-7.4 3.65-7.25 10.35 0.05 2.1 2 4.1l-18.1-1.2-12.55-10.3 0.05-0.05 8.55-2.3-10.95-2.3-3.05-5.9q-21.95-1.75-40-5.4-20-4-28.5-8.95-3.95-16.35-1.8-32.2 4.15 3.65 12.6 6.6l4.45 1.4 0.35 0.1 0.05-2.95 0.05-1.35-1.7-0.5q-9-2.6-14-5.5-1.2-5-1.85-9.9-1.45-11.25 0.05-22.3 4.15 3.65 12.6 6.6l4.45 1.4 5.3 1.4 7.95 1.75 2.3 0.45 16.7 2.7 11.7 1.4-0.05 0.4 2.6 6.45-0.6 3.7 0.9 9.45-0.9-9.45 0.6-3.7 0.55-3.75 9-5.3 7.85 8-0.8-10.55v-0.05l13.45-4.95 18 24.7 3-0.6q1.75 1.85 3.1 1.85 2.15-0.1 3.9-1.6 1.8-1.55 2.8-1.55 1.5-0.05 2.9 1.2l1.55 1.7-5.25 6.7-2.05-2.25-12.7 4.2-6.05-0.95-15.15 3.15-4.7-5.4-7.55-6.5-11.55 5.1 0.35 3.45-0.65 4-0.4 2.75q-17.8-1.75-32.85-4.75l-3.05-0.6-0.1-10.8-0.9-1.35q-3.45-4.55-7.9-0.9l-0.05 0.2q-0.55 5.2-0.8 10.5 0.25-5.3 0.8-10.5l0.05-0.2q4.45-3.65 7.9 0.9l0.1 0.15q0.15 6.7-0.15 11.75l-0.3 4.3q-1.6 14.85-7.95 10.5l-0.3-0.2q-0.35-6.25-0.25-12.4-0.1 6.15 0.25 12.4l0.05 0.6 0.05 0.95 0.95 1.3q3.15 3.95 7.25 1.15 0.85-6.9 1.15-14l3.2 0.65q14.75 2.95 32.15 4.7l-2.05 12.8 2.95 8.6 3.45 2.5-2.55-24.6 11.95-4.15 9.85 7.3 1.2-7.5 10.9 4.9-12.05 2.65-0.05-0.05v0.05l-1.85 12.25 4.2 2.5-5.1 3.65-0.05 0.05-0.9 6.1-0.5 3.1 6.55 3.85 13.1 2.1v-0.65l0.05-1.8 0.15-1.5q0.2-2.3 0.7-4.55l16.6 4.15q4.4-8.45 11.55-10.65-7.15 2.2-11.55 10.65-8.95-5.1-13.45-11l-0.75-1.05 0.8-1.75q0.9-1.95 2.05-3.85l-1.85-4.1 2.6-0.55 0.75-4.75 17.5-7.25 1.3 1.55q-0.15 4.35-1.25 5.2-0.75 0.35-1.05 0.8-0.45 0.6-0.4 2.4l0.3 1.6 9.15 1.45 0.55-0.05h0.05l0.25 5-4.35 0.65-4.3 0.65 3.65 4.4 0.65-5.05 3.55 11.7-2.3 14.5-6.15-5.25 4.75 9.15-0.85 5.4m52.55-58.1-0.85-11.35v-0.2q-4.5-3.65-7.95 0.9l-0.1 0.15 0.1-0.15q3.45-4.55 7.95-0.9v0.2l0.85 11.35 0.1 4.4 10.5-1.75q0.3 6.8 1.15 13.45 4.05 2.8 7.25-1.15l0.9-1.3 0.1-0.95v-0.6l-0.25 0.2q-6.3 4.25-7.9-9.9-0.25-2-0.35-4.35-0.35-5.25-0.2-12.3l-0.75 1.2q-0.25 5.7-0.1 11.3l-10.45 1.75m20 12.1q0.35-5.75 0.3-11.45 0.05 5.7-0.3 11.45m-122.4-52.55-1.4-7.05-0.4-1.95 10.85 7-9.05 2m39.1-0.7-21.05-3.3 8.15-8.7 25.25 13.9-12.35-1.9m-49.15 78.4-3.5-6.8 15.55 3.15-15.55-3.15 3.5 6.8m24.7 17.45q1.65 1.15 2.65 1.15l2.9-1.3q2.8-1.55 2.8-2.55-3.9-6.1-4.9-6.05-6.1 1.45-6 5.5 0 1.35 1.75 2.7l-0.15 0.3q0 0.4 0.35 0.4l0.6-0.15" fill="#e9e2cb" fill-rule="evenodd"/>
<path d="m212.4 32.7v0.4l-0.1-0.05 0.1-0.35m-208.85-10.35h-0.05 0.05m0 34.4h-0.05 0.05" fill="#6c5e2b" fill-rule="evenodd"/>
<path d="m210.35 85.1v0.6l-0.25-0.4 0.25-0.2m-20.2 3.75v0.6l-0.25-0.4 0.25-0.2m-164.9-4.65 0.3 0.2-0.25 0.4-0.05-0.6" fill="#5b6f11" fill-rule="evenodd"/>
<path d="m23.4 67 1.7 0.5-0.05 1.35-0.25 0.1-1.4-1.95m126.85-31.55-3.5-0.55 3.6 0.2-0.1 0.35" fill="#9f541c" fill-rule="evenodd"/>
<path d="m71.15 72.45 0.65-4-0.35-3.45 11.55-5.1 7.55 6.5-6.75 8.3-11.95 4.15-0.7-6.4m0-20.6-2.6-6.45 12.15-2.6-12.15 2.6 0.3-0.4 2.5-3.2 4.25-5.6 0.85-1.1 11.5-2.55 9.05-2 9-2-0.8 5.15-4 1.55 4-1.55 12.4 5.3q0.3 1.35 1.45 2.95 1.5 2.25 3.3 2.6 0.05 2.15-1.25 4.15-1.4 2.05-1.3 5.9 0.05 2.1 2.1 4.4l0.3 0.35-3 0.6-18-24.7-13.45 4.95-3.8-3.9-3.25 6.5-9 5.3-0.55 3.75m24.85 61.7-6.55-3.85 0.5-3.1 0.4 0.1 7.6-0.95 4.5 5-6.45 2.8" fill="#dad5c5" fill-rule="evenodd"/>
<path d="m143.65 111.4-3.6 10.4 2.3-14.5 3.85-3.2-2.55 7.3m-47.8 19.7-7.75-1.05-4.8-9.25 12.55 10.3m-12.5-10.35-2.4-4.6 10.95 2.3-8.55 2.3m-73.95-24.85q-5.1-2.95-6.1-6.2l-0.15-0.6q-6.45-15.2 0.25-31.95l0.2-0.05q0.55 3.55 4 6.6-2.15 15.85 1.8 32.2m-5.75-39.7-0.35-0.9-0.15-0.6q-6.45-15.2 0.25-31.95l0.2-0.05q0.55 3.55 4 6.6-1.5 11.05-0.05 22.3 0.65 4.9 1.85 9.9-4.15-2.4-5.55-5l-0.2-0.3m67.1 19 0.4-2.75 0.7 6.4 2.55 24.6-3.45-2.5-2.95-8.6 2.05-12.8 0.7-4.35m9.95-32.4 3.25-6.5 3.8 3.9v0.05l0.8 10.55-7.85-8m24.5-9.1 0.8-5.15 21.05 3.3q-9.6 4.05-9.55 6.25l0.1 0.9-12.4-5.3m11.25 35.9 12.7-4.2 5.1 11.6-17.5 7.25-0.3-14.65m14.75-1.95 5.25-6.7 0.05 0.05 0.8 0.85q1.55 1.8 3.5 2.8-3.95 3.8-4.9 8.2l-4.7-5.2m-17.05-47.8 0.9-4.7 16.6 5.55 12.35 4.1v0.4l-0.85 9.15-3.75-0.6-25.25-13.9m24 80.8-3.65-4.4 4.3-0.65-0.65 5.05m-11.55 10.65-16.6-4.15q0.45-2.4 1.2-4.65l-13.25 3.25-7.6 0.95-0.4-0.1 0.9-6.1 0.05-0.05 9.35-1.1-4.25-2.55-4.2-2.5 1.85-12.25h0.05l12.05-2.65 11 4.85-0.75 4.75-2.6 0.55-7.3 1.45 9.15 2.65q-1.15 1.9-2.05 3.85l-0.8 1.75-1.2 3.25 1.2-3.25 0.75 1.05q4.5 5.9 13.45 11m-17.5 4.35-13.1-2.1 6.45-2.8 6.65 4.9" fill="#c9c5b6" fill-rule="evenodd"/>
<path d="m68.55 45.4 0.05-0.4h0.25l-0.3 0.4m25.15 36.65h-0.05v-0.05l0.05 0.05" fill="#ea8915" fill-rule="evenodd"/>
<path d="m141.8 79.35 0.25 2.15 0.65 5.15-0.25-0.05-6.9-8.05 0.05-2.55q-0.05-1.6 0.3-3.15l5.9 6.5m-24.2-40.35-0.1-0.9q-0.05-2.2 9.55-6.25l12.35 1.9 3.75 0.6 3.6 0.55 3.5 0.55-0.5 3.25-9.05 10.1 9.05-10.1 0.05 1.2 0.25 6.45 0.35 9.95-0.3 0.65q0 0.4 0.35 0.7l0.05 0.9 0.4 10.35-10.05-13.4-0.15-6.7-17.65-7.5-0.25-0.25-0.05 0.1-5.15-2.15m23.1 2.6-0.55 0.15 0.1 0.45 0.3-0.05q0.15 0.2 0.6 0.2l0.55-0.1 0.15-0.1 1.3-0.05 1.65-0.85-0.3-0.35 0.3-0.25q-0.65-0.75-3-0.7l-0.55 0.4 2 0.5-1.3 0.35-0.25-0.1q-0.75 0.2-1 0.5m-4.15-0.65-0.15-0.45q-2.7 0.15-2.7 0.8l0.05 0.45h0.45l1.2-0.15q1.15-0.25 1.15-0.65m-2.6-1.5q0 0.8 1.1 0.8 0.5-0.05 0.65-0.5l-0.1-0.3q-0.6-0.45-1.25-0.4-0.4 0-0.4 0.4m10.8 0.2q0.9 0.65 1.3 0.65l0.4-0.45q-2.35-2.1-2.9-2.1l-0.4 0.45 0.45 0.45-1.25-0.05-0.45 0.45q0.55 0.8 1.75 0.8l0.8-0.1 0.3-0.1m0.35-1.4 0.55-0.5q-0.9-1.5-2.15-1.45l-0.4 0.45q1.3 1.5 2 1.5m2 19.1h-0.15q-0.9 0.15-0.9 0.65l0.05 0.45 0.65-0.1q0.65-0.2 0.65-0.55l-0.3-0.45" fill="#63591d" fill-opacity=".61176" fill-rule="evenodd"/>
<path d="m136.2 131.25-2.7 0.3-16 0.8-3.55-0.05q-1.95-2-2-4.1-0.15-6.7 7.25-10.35 4.7-2.3 8.3-2.35 2.5-0.05 5.4 4 3.2 4.55 3.35 10.45l-0.05 1.3m7.65-54.25-2.05 2.35-5.9-6.5q0.95-4.4 4.9-8.2-1.95-1-3.5-2.8l-0.8-0.85-0.05-0.05-1.55-1.7q-1.4-1.25-2.9-1.2-1 0-2.8 1.55-1.75 1.5-3.9 1.6-1.35 0-3.1-1.85l-0.3-0.35q-2.05-2.3-2.1-4.4-0.1-3.85 1.3-5.9 1.3-2 1.25-4.15-1.8-0.35-3.3-2.6-1.15-1.6-1.45-2.95l5.15 2.15 0.05-0.1 0.25 0.25 17.65 7.5 0.15 6.7-4.4 5.45 4.4-5.45-18.65 3.85 18.65-3.85 10.05 13.4-7.05 8.1m-21.1-35.85 0.3 0.15-0.3-0.15m6.35 13.15 0.3-0.3-1.15-1.25q-0.95-0.85-1.3-0.8l-0.35 0.45q0.15 0.55 1.2 1.35l1 0.6q-0.35 0.1-0.55 0.3-1.15-0.95-2.35-0.9l-0.45 0.45q0.1 0.2 1.35 0.95l0.95 0.5-4.2-0.25-0.3 0.45q0.5 0.95 3.55 0.9l0.95-0.05q0.8-0.2 0.8-0.6l-0.1-0.3 0.45-0.45-0.2-0.25 3.5 0.35 0.45-0.05v-0.9l-3.1-0.25-0.45 0.05m0.4-2.1q-0.5 0-0.5 0.4l4.8 1.4 0.45-0.45q-1-1-4.75-1.35m20.9 4.1 0.05 1.35q-0.35-0.3-0.35-0.7l0.3-0.65m-17-3.75 0.45-0.45q-0.7-0.9-1.55-0.85l-0.3 0.45q0.35 0.85 1.4 0.85m10.1 16.15q-0.55 0.15-0.5 0.45v0.25l-2.5 1.15q0 0.45 0.5 0.45l1.6-0.55q1.6-0.6 1.6-1.05l-0.1-0.1 0.75-0.35-0.15-0.35-0.15-0.05 0.5-0.1q1.35-0.45 1.35-0.85l-0.15-0.45q-2.6 0.5-3.05 1-1.1-0.95-2.25-0.9l-0.5 0.45q0.8 1 2.55 1l0.3-0.2 0.2 0.2m-2.35-2.4 1.25 0.45 1.45 1 0.45-0.5q-0.95-1.45-2.7-1.4l-0.45 0.45m3.5 3.25q0.55 0 0.5 0.45l1.2-0.15q-0.65 0.4-0.6 1.05l0.15 0.4 0.3 0.05 1.15-1.4-0.4-0.4 0.55-0.65-0.3-0.45-1.15 0.05q-1.2 0.55-1.4 1.05m-1.6 1.85q-1.2 0.45-1.2 1.3l0.1 0.35 0.35 0.1 0.6-0.25q0.6-0.45 0.6-1.05-0.05-0.5-0.45-0.45m-7.5 7.15 6.9 8.05 0.25 0.05v0.3l0.2 3h-0.05l-0.55 0.05-9.15-1.45-0.3-1.6q-0.05-1.8 0.4-2.4 0.3-0.45 1.05-0.8 1.1-0.85 1.25-5.2m-0.6 6.35 0.2 0.4q2-0.05 2-1.2l-0.3-0.45q-1.95 0.45-1.9 1.25m2.5 0.5 0.5-0.45-0.35-0.4-0.55 0.4 0.4 0.45m5 1.2 0.25 0.35-0.25-0.35m-37.5 36.8 0.35-0.3q-1.45-2.3-2.7-2.3l-0.45 0.45q0.15 0.45 0.6 0.9l-0.95-0.25q-0.45 0-0.4 0.45 0 0.6 0.85 0.9-0.65 0.1-0.85 0.4v0.15h-0.05q-1 0-0.95 0.45l2.45 0.65-1.1 0.45 0.15 0.4 2.6-0.65 0.75 0.4-1.5 0.65-1.95 1q-1.75-1.35-1.75-2.7-0.1-4.05 6-5.5 1-0.05 4.9 6.05 0 1-2.8 2.55l-2.9 1.3q-1 0-2.65-1.15l2.15-0.95q2.4-1.2 2.4-1.7l-0.15-0.45-0.4 0.05-1.1 0.75 0.3-0.3-0.85-0.75 0.65-0.45-0.25-0.45-0.4-0.05m-0.65-0.05h0.1-0.1m-0.85-2.75 1.5 1.75 0.4-0.4-0.65-1q-0.6-0.85-0.9-0.8l-0.35 0.45m19.85 1q-0.5 0-0.5 0.45 0 0.7 1.75 0.7 0.45-0.05 0.85-0.45l-0.15-0.35-1.95-0.35m7.3 5.8q-1.5 0.05-1.5 1.05l0.15 0.35q1.65-0.05 1.65-0.95l-0.3-0.45m-12.4-3.6-0.25 0.05q-0.45-0.5-1-0.5-0.4 0-0.4 0.45 0 0.4 0.35 0.6l-0.1 0.1 0.15 0.2-0.15 0.1-0.6-0.1q-0.85-0.15-0.8 0.5l0.95 0.4 1.2 0.3 0.4-0.4 0.8 0.25 1.95 0.5 0.1 0.25-2.4-0.25-0.15-0.05q0.05-0.2-0.3-0.15l-0.25 0.1h-0.3l-0.45 0.45-2.2 1.25q0 0.35 0.4 0.4v0.2h0.45q-1.05 0.5-1 0.85l0.15 0.5h0.6q0.55-0.35 1.95-0.6l0.8-0.45 0.75-0.45 0.65-0.1 1 0.25-3.8 1.45q0 0.45 0.45 0.45 1.5-0.05 3.7-1.1 0.3 0 0.45 0.3l0.35-0.05 0.1-0.65v-0.2l0.3-0.3q-0.55-0.65-1.55-0.85l0.7-0.05 0.7-0.45-0.15-0.1 0.4-0.25q0.55-0.05 0.9-0.4v-0.2q-0.6-0.4-1-0.4l-0.65 0.35-0.05-0.1 0.1-0.1q-0.3-0.45-2.1-0.95h-0.1l0.95-0.35 1.05 0.1v-0.6l0.15-0.15q-0.4-0.65-3.15-0.85l-0.5 0.45 0.45 0.35m12 5.7 0.15 0.3q0.8 0.15 1.15-0.6l-0.4-0.45q-0.9 0.15-0.9 0.75m-13.2-1.85 0.9-0.5 0.95 0.2-1.6 0.35-0.25-0.05m-12.8-3.35h0.2l-0.2 0.1v-0.1m3.05 2.25 0.45-0.25q0.5-0.3 0.5-0.95l-0.55-0.45-0.8 1.2q0 0.45 0.4 0.45" fill="#878723" fill-opacity=".6" fill-rule="evenodd"/>
<path d="m128.8 54.35-1-0.6q-1.05-0.8-1.2-1.35l0.35-0.45q0.35-0.05 1.3 0.8l1.15 1.25-0.3 0.3-0.3 0.05m-0.1 0.75 0.2 0.25-0.45 0.45 0.1 0.3q0 0.4-0.8 0.6l-0.95 0.05q-3.05 0.05-3.55-0.9l0.3-0.45 4.2 0.25-0.95-0.5q-1.25-0.75-1.35-0.95l0.45-0.45q1.2-0.05 2.35 0.9l-0.05 0.05 0.1 0.35 0.4 0.05m12-13.5q0.25-0.3 1-0.5l0.25 0.1-1.25 0.4m1.15 0.55-0.15 0.1-0.55 0.1q-0.45 0-0.6-0.2h1.3m-7.9-2.7q0-0.4 0.4-0.4 0.65-0.05 1.25 0.4l0.1 0.3q-0.15 0.45-0.65 0.5-1.1 0-1.1-0.8m10.8 0.2-0.3 0.1-0.8 0.1q-1.2 0-1.75-0.8l0.45-0.45 1.25 0.05 1.15 1m0.35-1.4q-0.7 0-2-1.5l0.4-0.45q1.25-0.05 2.15 1.45l-0.55 0.5m-3.95 28.05 0.45-0.45q1.75-0.05 2.7 1.4l-0.45 0.5-1.45-1-1.25-0.45m3.4 2.25 0.15 0.05 0.15 0.35-0.75 0.35 0.1 0.1q0 0.45-1.6 1.05l-1.6 0.55q-0.5 0-0.5-0.45l2.5-1.15v-0.25q-0.05-0.3 0.5-0.45l0.1 0.1 0.95-0.25m-1.25-0.05-0.3 0.2q-1.75 0-2.55-1l0.5-0.45q1.15-0.05 2.25 0.9l-0.05 0.2 0.15 0.15m-0.25 2.9q0.4-0.05 0.45 0.45 0 0.6-0.6 1.05l-0.6 0.25-0.35-0.1-0.1-0.35q0-0.85 1.2-1.3m-8.1 13.5q-0.05-0.8 1.9-1.25l0.3 0.45q0 1.15-2 1.2l-0.2-0.4m2.5 0.5-0.4-0.45 0.55-0.4 0.35 0.4-0.5 0.45m-35.2 37.85q-0.85-0.3-0.85-0.9-0.05-0.45 0.4-0.45l0.95 0.25q-0.45-0.45-0.6-0.9l0.45-0.45q1.25 0 2.7 2.3l-0.35 0.3-0.55-0.05h-0.1l-1.5-0.15-0.55 0.05m0.6 1.65-2.45-0.65q-0.05-0.45 0.95-0.45h0.05l0.05 0.2 2.75 0.3v0.1l-1.35 0.5m0.6-4.3 0.35-0.45q0.3-0.05 0.9 0.8l0.65 1-0.4 0.4-1.5-1.75m19.85 1 1.95 0.35 0.15 0.35q-0.4 0.4-0.85 0.45-1.75 0-1.75-0.7 0-0.45 0.5-0.45m-5.1 2.2 1.25 0.35 1.5 0.15 0.3-0.3v0.6l-1.05-0.1-0.95 0.35-2-0.45-0.3 0.3-0.15-0.2 0.1-0.1q-0.35-0.2-0.35-0.6 0-0.45 0.4-0.45 0.55 0 1 0.5l0.25-0.05m3.15 2.1 0.05 0.1 0.65-0.35q0.4 0 1 0.4v0.2q-0.35 0.35-0.9 0.4l-0.4 0.25-0.2-0.35-0.75-0.05-0.1-0.25h0.3l0.35-0.35m-3.25 2.85-0.8 0.45q-1.4 0.25-1.95 0.6h-0.6l-0.15-0.5q-0.05-0.35 1-0.85l2.5 0.3m-2.95-0.5q-0.4-0.05-0.4-0.4l2.2-1.25h-0.05q0.3 0.35 1 0.55l-0.9 0.5-0.9-0.1q-0.8 0-1.05 0.5l0.1 0.2m2.55-2.1 0.25-0.1q0.35-0.05 0.3 0.15l0.15 0.05-0.7-0.1m0.25-0.65-0.4 0.4-1.2-0.3-0.95-0.4q-0.05-0.65 0.8-0.5l0.6 0.1-0.05 0.05q0.15 0.25 1.2 0.65" fill="#c7cd41" fill-rule="evenodd"/>
<path d="m129.1 54.3 0.45-0.05 3.1 0.25v0.9l-0.45 0.05-3.5-0.35-0.4-0.05-0.1-0.35 0.05-0.05q0.2-0.2 0.55-0.3l0.3-0.05m0.4-2.1q3.75 0.35 4.75 1.35l-0.45 0.45-4.8-1.4q0-0.4 0.5-0.4m11.05-10.05-0.3 0.05-0.1-0.45 0.55-0.15 1.25-0.4 1.3-0.35-2-0.5 0.55-0.4q2.35-0.05 3 0.7l-0.3 0.25 0.3 0.35-1.65 0.85-1.3 0.05h-1.3m-4-1.2q0 0.4-1.15 0.65l-1.2 0.15h-0.45l-0.05-0.45q0-0.65 2.7-0.8l0.15 0.45m7.05-2.3-0.45-0.45 0.4-0.45q0.55 0 2.9 2.1l-0.4 0.45q-0.4 0-1.3-0.65l-1.15-1m3.5 18.7 0.3 0.45q0 0.35-0.65 0.55l-0.65 0.1-0.05-0.45q0-0.5 0.9-0.65h0.15m-13.7-4.8q-1.05 0-1.4-0.85l0.3-0.45q0.85-0.05 1.55 0.85l-0.45 0.45m10.1 16.15-0.35-0.35 0.05-0.2q0.45-0.5 3.05-1l0.15 0.45q0 0.4-1.35 0.85l-0.5 0.1-0.95 0.25-0.1-0.1m1.15 0.85q0.2-0.5 1.4-1.05l1.15-0.05 0.3 0.45-0.55 0.65 0.4 0.4-1.15 1.4-0.3-0.05-0.15-0.4q-0.05-0.65 0.6-1.05l-1.2 0.15q0.05-0.45-0.5-0.45m-39.7 53.85 0.4 0.05 0.25 0.45-0.65 0.45 0.85 0.75-0.3 0.3 1.1-0.75 0.4-0.05 0.15 0.45q0 0.5-2.4 1.7l-2.15 0.95-0.6 0.15q-0.35 0-0.35-0.4l0.15-0.3 1.95-1 1.5-0.65-0.75-0.4-2.6 0.65-0.15-0.4 1.1-0.45 1.35-0.5 0.2-0.1h-0.2l-2.75-0.3-0.05-0.2v-0.15q0.2-0.3 0.85-0.4l0.55-0.05 1.5 0.15h0.1l0.55 0.05m25.65 4 0.3 0.45q0 0.9-1.65 0.95l-0.15-0.35q0-1 1.5-1.05m-9.35-3.4-0.3 0.3-1.5-0.15-1.25-0.35-0.45-0.35 0.5-0.45q2.75 0.2 3.15 0.85l-0.15 0.15m-4.3 0.7 0.3-0.3 2 0.45h0.1q1.8 0.5 2.1 0.95l-0.45 0.45h-0.3l-1.95-0.5-0.8-0.25q-1.05-0.4-1.2-0.65l0.05-0.05 0.15-0.1m4.8 2.2 0.15 0.1-0.7 0.45-0.7 0.05q1 0.2 1.55 0.85l-0.3 0.3v0.2l-0.1 0.65-0.35 0.05q-0.15-0.3-0.45-0.3-2.2 1.05-3.7 1.1-0.45 0-0.45-0.45l3.8-1.45-1-0.25-0.65 0.1-0.75 0.45-2.5-0.3h-0.45v-0.2l-0.1-0.2q0.25-0.5 1.05-0.5l0.9 0.1 0.25 0.05 1.6-0.35-0.95-0.2q-0.7-0.2-1-0.55h0.05l0.45-0.45h0.3l0.7 0.1 2.4 0.25 0.75 0.05 0.2 0.35m8.45 2.6q0-0.6 0.9-0.75l0.4 0.45q-0.35 0.75-1.15 0.6l-0.15-0.3m-22.95-2.95q-0.4 0-0.4-0.45l0.8-1.2 0.55 0.45q0 0.65-0.5 0.95l-0.45 0.25" fill="#bcbb32" fill-rule="evenodd"/>
<path d="m150.05 46.75 0.3 6.9 0.15 4.9-0.05-0.9-0.05-1.35-0.35-9.95v0.4m-6.05-21.55v-0.4 0.4" fill="#d0bc93" fill-rule="evenodd"/>
<path d="m3.5 56.75 0.15-0.55 0.2 0.3-0.3 0.25h-0.05" fill="#673612" fill-rule="evenodd"/>
<path d="m239.5 23.15-0.05-0.2-0.05-0.25v-0.1q-1.7-8.15-27.95-14.2m0.95 24.7q5.75 1.35 10.25 2.8 4.6-1.55 7.95-3.3 7.85-4.2 8.9-9.45l0.05-0.5-0.1 0.3m0.05 0.2v0.55l0.05-1.05q6.5 16.55 0 31.65l-0.1 0.3-0.4 1.3 0.35 1.1v0.1l0.05 0.25 0.1-0.3q6.5 16.55 0 31.65l-0.1 0.3q-0.7 4.3-8.25 8.05-8.65 4.25-26.3 7.8-14.2 2.85-30.75 4.55l-10.85 0.95-19.65 1.05m-65.75-1.15q-21.95-1.75-40-5.4-20-4-28.5-8.95-5.1-2.95-6.1-6.2l-0.15-0.6q-6.45-15.2 0.25-31.95v-0.05l0.1-0.35 0.15-0.55-0.35-0.9-0.15-0.6q-6.45-15.2 0.25-31.95v-0.05l0.1-0.35q1.75-7.1 22.45-12.6 5.3-1.45 11.95-2.8 34.6-6.95 83.5-6.95t83.5 6.95l6.55 1.45m11.2 27.5q-4.35 1.5-9.75 2.8l-8 1.75-2.3 0.45-17.35 2.8q-16.35 2.15-35.2 3.05m40.3 26.25 10.45-1.75m9.75-2 4.6-1.1q10.15-2.6 16.05-5.5m-18.9-29.6 0.1 0.05m10.25 37.2q-4.35 1.5-9.75 2.8l-2.25 0.55m-9.7 2-10.5 1.75m24.7-9.25 7.5 2.15q4.6-1.55 7.95-3.3 7.85-4.2 8.9-9.45l-0.05-0.2m0.05 0.2v0.55l0.05-1.05-0.05 0.5m-0.45-1.65q-1.5 3.55-7.85 6.75m-87.2-37.75q34.6 1.25 60.9 6.55l7.4 1.6m-31.75 41.25-17.25 1.65-19.45 1.05m-1.8 4.5q20.8-0.7 38.65-2.8m-140.5-37.8-2.3-0.45-7.95-1.75-5.3-1.4-4.45-1.4q-8.45-2.95-12.6-6.6m1.8 32.2q5 2.9 14 5.5l1.7 0.5m9.75 2.35 3.05 0.6q15.05 3 32.85 4.75m-2.15-30.2-11.7-1.4-16.7-2.7q16.2-3.1 35.4-4.7m10.95-10.7q-27.1 1.6-48.65 5.95-7.35 1.45-13.1 3.1-2.45 0.65-4.6 1.35m0 34.4q2.15-0.7 4.6-1.35l0.25-0.1m-0.05 2.95-0.35-0.1-4.45-1.4q-8.45-2.95-12.6-6.6m61.25-18.7h-0.25m78.15-10.1 3.6 0.2q29.2 1.4 52.25 5.8m-199.05-18.55 0.05 0.3v0.05q0.55 3.55 4 6.6m-4.05-6.95-0.15 0.35m0.15 34.05-0.15 0.35m0.15-0.35 0.05 0.3v0.05q0.55 3.55 4 6.6m-3.95-7.5 0.2 0.3q1.4 2.6 5.55 5m60.65 18.05q-17.4-1.75-32.15-4.7l-3.2-0.65" fill="none" stroke="#000" stroke-linecap="round" stroke-linejoin="round" stroke-opacity=".49804" stroke-width=".5"/>
<path d="m180.6 66.9 0.1-3.2 0.75-1.2 0.1-0.15q3.45-4.55 7.95-0.9v0.2l0.85 11.35 0.1 4.4q0.05 5.7-0.3 11.45v0.6l-0.1 0.95-0.9 1.3q-3.2 3.95-7.25 1.15l-0.7-6.45m19.6-15.15q-0.15-5.6 0.1-11.3l0.75-1.2 0.1-0.15q3.45-4.55 7.95-0.9v0.2q0.6 5.65 0.85 11.35l0.1 4.4q0.05 5.7-0.3 11.45v0.6l-0.1 0.95-0.9 1.3q-3.2 3.95-7.25 1.15-0.85-6.65-1.15-13.45-0.15-2.2-0.15-4.4m-20.1 7.45-0.15-4.4 0.05-7.4m0.1 11.8 0.5 7.7m-156.1-18.9q0.25-5.3 0.8-10.5l0.05-0.2q4.45-3.65 7.9 0.9l0.9 1.35 0.1 10.8m-9.8-1 0.05-1.35m-0.05 1.35-0.05 2.95q-0.1 6.15 0.25 12.4m9.45-10q-0.3 7.1-1.15 14-4.1 2.8-7.25-1.15l-0.95-1.3-0.05-0.95-0.05-0.6m9.45-10 0.15-4.35" fill="none" stroke="#000" stroke-linecap="round" stroke-linejoin="round" stroke-opacity=".49804" stroke-width=".05"/>
<path d="m143.65 111.4-3.6 10.4-0.95 3.95-1.3 5.35-1.6 0.15-2.7 0.3-16 0.8-3.55-0.05-18.1-1.2-7.75-1.05-4.8-9.25 0.05-0.05-2.4-4.6-3.05-5.9m72.15-63.5 0.3 6.9m-6.5 23.35-2.05 2.35 0.25 2.15m-71.3-6.3 0.4-2.75 0.65-4-0.35-3.45-0.9-9.45 0.6-3.7-2.6-6.45 0.3-0.4 2.5-3.2-14.45 1.8m18.7-7.4 0.85-1.1 11.5-2.55-1.4-7.05-0.4-1.95 7.15-2.1q-31.2 2-63.1 8.3m41.15 12.05 4.25-5.6m12.15 4-3.8-3.9-3.25 6.5 7.85 8-0.8-10.55v-0.05l13.45-4.95 4-1.55 0.8-5.15-9 2-9.05 2m-16.8 19.3 0.55-3.75 9-5.3-12.15 2.6m2.9 19.6 11.55-5.1 7.55 6.5 4.7 5.4 15.15-3.15 6.05 0.95 12.7-4.2 2.05 2.25 5.25-6.7 4.4-5.45-18.65 3.85-3 0.6-18-24.7m12.95-15.4 0.9-4.7-21.75 6.3m24.3 17.55-12.4-5.3m21.85-1.85-21.05-3.3 8.15-8.7 25.25 13.9 3.75 0.6 0.85-9.15v-0.4l-12.35-4.1-16.6-5.55m8 26.15 17.65 7.5 9.05-10.1 0.5-3.25-3.5-0.55-3.6-0.55m-20.1 6.95-0.3-0.15-5.15-2.15m26.4-14.1v0.3m0-0.4v0.1m5.75 13.8 0.05 1.2q17.8 1.15 35.45 3.8m-35.2 2.65v0.4m-0.25-6.85 0.25 6.45 0.35 9.95 0.05 1.35 0.05 0.9-0.15-4.9m-9.5 1.85-0.15-6.7m-4.8 24.05-4.7-5.2m4.7 5.2 5.9 6.5m9.1-10.45-0.4-10.35m0.4 10.35-10.05-13.4m-1.45-21.75-12.35-1.9m-30.05-1.3-10.85-7m48.1 53.45 1.3 1.55 6.9 8.05m0.25 0.05-0.65-5.15m-3.9 19.15-3.65-4.4 4.3-0.65 4.35-0.65-0.25-5-0.2-3-0.25-0.35m0.25 0.35v-0.3m-4.05 39.05-4.75-9.15 6.15 5.25 2.3-14.5-3.55-11.7-0.65 5.05q-7.15 2.2-11.55 10.65l-16.6-4.15q-0.5 2.25-0.7 4.55l-0.15 1.5-0.05 1.8v0.65l-13.1-2.1-6.55-3.85 0.5-3.1-15.55-3.15 3.5 6.8m65.75 1.15 2.55-7.3-3.85 3.2m0.8-12.35 3.05 9.15m-32.8-14.55 2.6-0.55 0.75-4.75-11-4.85-12.05 2.65h-0.05l-1.85 12.25 4.2 2.5 4.25 2.55-9.35 1.1-0.05 0.05-0.9 6.1 0.4 0.1 7.6-0.95 13.25-3.25 1.2-3.25 0.8-1.75q0.9-1.95 2.05-3.85l-9.15-2.65 7.3-1.45 1.85 4.1m-9.5-14.25-10.9-4.9-1.2 7.5 0.05 0.05m-0.05 0v-0.05l-9.85-7.3-11.95 4.15 2.55 24.6-3.45-2.5-2.95-8.6 2.05-12.8 0.7-4.35m31.7 35.55 6.65 4.9m-13.1-2.1 6.45-2.8-4.5-5m28.65 5.55q-8.95-5.1-13.45-11l-0.75-1.05m-2.4 7.9q0.45-2.4 1.2-4.65m-20.3-2.05 5.1-3.65m42.65 28.9-0.85 5.4m-21.05-46.85 17.5-7.25-5.1-11.6m-33.3 65.7-12.55-10.3m0.05-0.05 8.55-2.3-10.95-2.3m13.9-41.65 0.4-2.7m55.65-2.9-7.05 8.1m-53.3-10.6-6.75 8.3m-11.95 4.15-0.7-6.4m45.3-2.85 0.3 14.65m14.9-63.55q38.85 0.9 76.55 8.7m-178-15.65q91.85-18.2 178-0.35" fill="none" stroke="#000" stroke-linecap="round" stroke-linejoin="round" stroke-opacity=".49804" stroke-width=".05"/>
</g>
</defs>
</svg>
