<?xml version="1.0" encoding="UTF-8"?>
<svg version="1.1" viewBox="0 0 64.336 90.742" xmlns="http://www.w3.org/2000/svg" xmlns:cc="http://creativecommons.org/ns#" xmlns:dc="http://purl.org/dc/elements/1.1/" xmlns:rdf="http://www.w3.org/1999/02/22-rdf-syntax-ns#" xmlns:xlink="http://www.w3.org/1999/xlink">
<metadata>
<rdf:RDF>
<cc:Work rdf:about="">
<dc:format>image/svg+xml</dc:format>
<dc:type rdf:resource="http://purl.org/dc/dcmitype/StillImage"/>
</cc:Work>
</rdf:RDF>
</metadata>
<g transform="translate(-242.25 -156.77)">
<use transform="matrix(1.0341 1.6244 -1.6244 1.0341 285.09 162.23)" width="2.0999999" height="9.8999996" xlink:href="#b"/>
<use transform="matrix(.3974 1.2868 -1.2868 .3974 283.12 169.93)" width="2.0999999" height="9.8999996" xlink:href="#b"/>
<use transform="matrix(1.3388 1.0525 -1.0525 1.3388 278.96 159.72)" width="2.0999999" height="9.8999996" xlink:href="#b"/>
<use transform="matrix(.152 .2435 -.321 .2003 286 162.79)" width="8.1000004" height="8.1000004" xlink:href="#a"/>
<use transform="matrix(.1205 .193 -.2545 .1588 282.73 164.11)" width="8.1000004" height="8.1000004" xlink:href="#a"/>
<use transform="matrix(.1044 .1672 -.2205 .1376 281.99 166.69)" width="8.1000004" height="8.1000004" xlink:href="#a"/>
<use transform="matrix(.0272 .2167 -.2857 .0359 283.61 170.6)" width="8.1000004" height="8.1000004" xlink:href="#a"/>
<use transform="matrix(.0216 .1718 -.2265 .0284 281.22 170.38)" width="8.1000004" height="8.1000004" xlink:href="#a"/>
<use transform="matrix(.0187 .1488 -.1962 .0246 279.94 172.3)" width="8.1000004" height="8.1000004" xlink:href="#a"/>
<use transform="matrix(.1507 .1455 -.1919 .1987 279.33 161.35)" width="8.1000004" height="8.1000004" xlink:href="#a"/>
<use transform="matrix(.1194 .1154 -.1521 .1575 277.47 162.46)" width="8.1000004" height="8.1000004" xlink:href="#a"/>
<use transform="matrix(.1035 .1 -.1318 .1364 277.68 164.75)" width="8.1000004" height="8.1000004" xlink:href="#a"/>
<use transform="matrix(1.7893 .6913 -.6913 1.7893 283.97 156.99)" width="2.0999999" height="9.8999996" xlink:href="#b"/>
<use transform="matrix(1.0792 .7969 -.7969 1.0792 286.94 164.36)" width="2.0999999" height="9.8999996" xlink:href="#b"/>
<use transform="matrix(1.6957 .0526 -.0526 1.6957 277.61 158.66)" width="2.0999999" height="9.8999996" xlink:href="#b"/>
<use transform="matrix(.2658 .1055 -.139 .3504 285.06 156.88)" width="8.1000004" height="8.1000004" xlink:href="#a"/>
<use transform="matrix(.2107 .0836 -.1102 .2778 283.2 159.88)" width="8.1000004" height="8.1000004" xlink:href="#a"/>
<use transform="matrix(.1825 .0724 -.0955 .2406 284.19 162.38)" width="8.1000004" height="8.1000004" xlink:href="#a"/>
<use transform="matrix(.1499 .1577 -.2079 .1976 287.79 164.6)" width="8.1000004" height="8.1000004" xlink:href="#a"/>
<use transform="matrix(.1188 .125 -.1648 .1567 285.77 165.82)" width="8.1000004" height="8.1000004" xlink:href="#a"/>
<use transform="matrix(.103 .1083 -.1428 .1357 285.78 168.1)" width="8.1000004" height="8.1000004" xlink:href="#a"/>
<use transform="matrix(.2068 .0276 -.0365 .2727 278.85 159.7)" width="8.1000004" height="8.1000004" xlink:href="#a"/>
<use transform="matrix(.164 .0219 -.0289 .2162 278.07 161.67)" width="8.1000004" height="8.1000004" xlink:href="#a"/>
<use transform="matrix(.1421 .019 -.025 .1873 279.6 163.44)" width="8.1000004" height="8.1000004" xlink:href="#a"/>
<use transform="matrix(1.6679 -.9617 .9617 1.6679 262.34 158.39)" width="2.0999999" height="9.8999996" xlink:href="#b"/>
<use transform="matrix(1.3028 -.3406 .3406 1.3028 269.91 160.7)" width="2.0999999" height="9.8999996" xlink:href="#b"/>
<use transform="matrix(1.1101 -1.2912 1.2912 1.1101 259.66 164.46)" width="2.0999999" height="9.8999996" xlink:href="#b"/>
<use transform="matrix(.2499 -.1411 .1861 .3295 263 157.47)" width="8.1000004" height="8.1000004" xlink:href="#a"/>
<use transform="matrix(.1981 -.1118 .1475 .2612 264.15 160.84)" width="8.1000004" height="8.1000004" xlink:href="#a"/>
<use transform="matrix(.1716 -.0969 .1278 .2263 266.73 161.68)" width="8.1000004" height="8.1000004" xlink:href="#a"/>
<use transform="matrix(.2177 -.0177 .0233 .287 270.71 160.24)" width="8.1000004" height="8.1000004" xlink:href="#a"/>
<use transform="matrix(.1726 -.014 .0185 .2275 270.38 162.63)" width="8.1000004" height="8.1000004" xlink:href="#a"/>
<use transform="matrix(.1495 -.0121 .016 .1971 272.19 164)" width="8.1000004" height="8.1000004" xlink:href="#a"/>
<use transform="matrix(.152 -.1441 .19 .2004 261.23 164.14)" width="8.1000004" height="8.1000004" xlink:href="#a"/>
<use transform="matrix(.1205 -.1142 .1507 .1588 262.29 165.96)" width="8.1000004" height="8.1000004" xlink:href="#a"/>
<use transform="matrix(.1044 -.099 .1305 .1376 264.62 165.89)" width="8.1000004" height="8.1000004" xlink:href="#a"/>
<use transform="matrix(.2826 1.9024 -1.9024 .2826 305.82 170.8)" width="2.0999999" height="9.8999996" xlink:href="#b"/>
<use transform="matrix(-.1609 1.3354 -1.3354 -.1609 300.91 177)" width="2.0999999" height="9.8999996" xlink:href="#b"/>
<use transform="matrix(.7932 1.5047 -1.5047 .7932 301.2 166.02)" width="2.0999999" height="9.8999996" xlink:href="#b"/>
<use transform="matrix(.0396 .284 -.3743 .0522 306.42 171.69)" width="8.1000004" height="8.1000004" xlink:href="#a"/>
<use transform="matrix(.0314 .2251 -.2967 .0414 302.85 171.53)" width="8.1000004" height="8.1000004" xlink:href="#a"/>
<use transform="matrix(.0272 .195 -.2571 .0358 301.19 173.6)" width="8.1000004" height="8.1000004" xlink:href="#a"/>
<use transform="matrix(-.0633 .2088 -.2752 -.0835 301.01 177.84)" width="8.1000004" height="8.1000004" xlink:href="#a"/>
<use transform="matrix(-.0502 .1655 -.2182 -.0662 298.98 176.72)" width="8.1000004" height="8.1000004" xlink:href="#a"/>
<use transform="matrix(-.0435 .1434 -.189 -.0573 297.02 177.88)" width="8.1000004" height="8.1000004" xlink:href="#a"/>
<use transform="matrix(.0783 .194 -.2559 .1032 300.94 167.68)" width="8.1000004" height="8.1000004" xlink:href="#a"/>
<use transform="matrix(.062 .1538 -.2028 .0818 298.82 167.92)" width="8.1000004" height="8.1000004" xlink:href="#a"/>
<use transform="matrix(.0537 .1333 -.1757 .0708 298.06 170.11)" width="8.1000004" height="8.1000004" xlink:href="#a"/>
<use transform="matrix(1.9127 -.1988 .1988 1.9127 286.67 158.08)" width="2.0999999" height="9.8999996" xlink:href="#b"/>
<use transform="matrix(1.327 .2193 -.2193 1.327 292.59 163.28)" width="2.0999999" height="9.8999996" xlink:href="#b"/>
<use transform="matrix(1.5378 -.7263 .7263 1.5378 281.65 162.49)" width="2.0999999" height="9.8999996" xlink:href="#b"/>
<use transform="matrix(.2854 -.0271 .0357 .3762 287.56 157.53)" width="8.1000004" height="8.1000004" xlink:href="#a"/>
<use transform="matrix(.2262 -.0215 .0283 .2982 287.24 161.04)" width="8.1000004" height="8.1000004" xlink:href="#a"/>
<use transform="matrix(.196 -.0186 .0245 .2584 289.25 162.8)" width="8.1000004" height="8.1000004" xlink:href="#a"/>
<use transform="matrix(.2058 .0724 -.0955 .2713 293.44 163.15)" width="8.1000004" height="8.1000004" xlink:href="#a"/>
<use transform="matrix(.1631 .0574 -.0757 .215 292.21 165.18)" width="8.1000004" height="8.1000004" xlink:href="#a"/>
<use transform="matrix(.1413 .0497 -.0656 .1863 293.37 167.2)" width="8.1000004" height="8.1000004" xlink:href="#a"/>
<use transform="matrix(.1973 -.0697 .0918 .2601 283.28 162.85)" width="8.1000004" height="8.1000004" xlink:href="#a"/>
<use transform="matrix(.1564 -.0552 .0728 .2062 283.46 164.96)" width="8.1000004" height="8.1000004" xlink:href="#a"/>
<use transform="matrix(.1355 -.0478 .063 .1786 285.59 165.83)" width="8.1000004" height="8.1000004" xlink:href="#a"/>
<use transform="matrix(1.7965 0 0 1.7965 242.25 166.58)" width="30" height="45.049999" xlink:href="#c"/>
<use transform="matrix(-.7832 .1061 .5319 3.9271 269.3 174.5)" width="8.1000004" height="8.1000004" xlink:href="#a"/>
<use transform="matrix(-.1945 -.343 -1.6462 1.105 263.32 217.97)" width="8.1000004" height="8.1000004" xlink:href="#a"/>
<use transform="matrix(-.495 -.027 -.1898 3.4782 273.47 169.81)" width="8.1000004" height="8.1000004" xlink:href="#a"/>
<use transform="matrix(-.8081 -1.7512 1.7512 -.8081 250.98 177.4)" width="2.0999999" height="9.8999996" xlink:href="#b"/>
<use transform="matrix(-.2215 -1.3306 1.3306 -.2215 253.96 170)" width="2.0999999" height="9.8999996" xlink:href="#b"/>
<use transform="matrix(-1.1874 -1.2246 1.2246 -1.1874 256.79 180.63)" width="2.0999999" height="9.8999996" xlink:href="#b"/>
<use transform="matrix(-.1181 -.2621 .3456 -.1557 250.15 176.68)" width="8.1000004" height="8.1000004" xlink:href="#a"/>
<use transform="matrix(-.0936 -.2078 .2739 -.1234 253.59 175.8)" width="8.1000004" height="8.1000004" xlink:href="#a"/>
<use transform="matrix(-.0811 -.18 .2374 -.1069 254.64 173.33)" width="8.1000004" height="8.1000004" xlink:href="#a"/>
<use transform="matrix(.0021 -.2188 .2884 .0028 253.58 169.24)" width="8.1000004" height="8.1000004" xlink:href="#a"/>
<use transform="matrix(.0017 -.1734 .2286 .0022 255.92 169.79)" width="8.1000004" height="8.1000004" xlink:href="#a"/>
<use transform="matrix(.0015 -.1503 .198 .0019 257.45 168.09)" width="8.1000004" height="8.1000004" xlink:href="#a"/>
<use transform="matrix(-.13 -.1647 .2172 -.1714 256.57 178.99)" width="8.1000004" height="8.1000004" xlink:href="#a"/>
<use transform="matrix(-.103 -.1306 .1721 -.1359 258.5 178.1)" width="8.1000004" height="8.1000004" xlink:href="#a"/>
<use transform="matrix(-.0893 -.1131 .1491 -.1177 258.7 175.78)" width="8.1000004" height="8.1000004" xlink:href="#a"/>
<use transform="matrix(-1.7847 .7304 -.7304 -1.7847 277.07 182.43)" width="2.0999999" height="9.8999996" xlink:href="#b"/>
<use transform="matrix(-1.3389 .1629 -.1629 -1.3389 269.81 179.13)" width="2.0999999" height="9.8999996" xlink:href="#b"/>
<use transform="matrix(-1.2753 1.1324 -1.1324 -1.2753 280.56 176.86)" width="2.0999999" height="9.8999996" xlink:href="#b"/>
<use transform="matrix(-.267 .1065 -.1404 -.352 276.32 183.28)" width="8.1000004" height="8.1000004" xlink:href="#a"/>
<use transform="matrix(-.2117 .0844 -.1113 -.279 275.65 179.78)" width="8.1000004" height="8.1000004" xlink:href="#a"/>
<use transform="matrix(-.1834 .0731 -.0964 -.2418 273.19 178.63)" width="8.1000004" height="8.1000004" xlink:href="#a"/>
<use transform="matrix(-.2184 -.0117 .0155 -.288 269.04 179.47)" width="8.1000004" height="8.1000004" xlink:href="#a"/>
<use transform="matrix(-.1732 -.0093 .0122 -.2283 269.7 177.22)" width="8.1000004" height="8.1000004" xlink:href="#a"/>
<use transform="matrix(-.15 -.008 .0106 -.1978 268.01 175.6)" width="8.1000004" height="8.1000004" xlink:href="#a"/>
<use transform="matrix(-.1702 .1227 -.1617 -.2245 278.9 176.91)" width="8.1000004" height="8.1000004" xlink:href="#a"/>
<use transform="matrix(-.1349 .0972 -.1282 -.1779 278.17 174.92)" width="8.1000004" height="8.1000004" xlink:href="#a"/>
<use transform="matrix(-.1169 .0842 -.111 -.1541 275.85 174.72)" width="8.1000004" height="8.1000004" xlink:href="#a"/>
<use transform="matrix(-1.7175 -.8707 .8707 -1.7175 279.04 187.6)" width="2.0999999" height="9.8999996" xlink:href="#b"/>
<use transform="matrix(-.9977 -.9047 .9047 -.9977 276.82 179.99)" width="2.0999999" height="9.8999996" xlink:href="#b"/>
<use transform="matrix(-1.6883 -.2233 .2233 -1.6883 285.59 186.51)" width="2.0999999" height="9.8999996" xlink:href="#b"/>
<use transform="matrix(-.2548 -.1321 .1741 -.336 277.94 187.56)" width="8.1000004" height="8.1000004" xlink:href="#a"/>
<use transform="matrix(-.202 -.1047 .138 -.2663 280.14 184.73)" width="8.1000004" height="8.1000004" xlink:href="#a"/>
<use transform="matrix(-.175 -.0907 .1196 -.2307 279.42 182.08)" width="8.1000004" height="8.1000004" xlink:href="#a"/>
<use transform="matrix(-.1339 -.1726 .2276 -.1765 276.03 179.56)" width="8.1000004" height="8.1000004" xlink:href="#a"/>
<use transform="matrix(-.1061 -.1368 .1804 -.1399 278.17 178.62)" width="8.1000004" height="8.1000004" xlink:href="#a"/>
<use transform="matrix(-.0919 -.1185 .1563 -.1212 278.32 176.24)" width="8.1000004" height="8.1000004" xlink:href="#a"/>
<use transform="matrix(-.2038 -.0484 .0639 -.2687 284.44 185.39)" width="8.1000004" height="8.1000004" xlink:href="#a"/>
<use transform="matrix(-.1615 -.0384 .0506 -.213 285.45 183.46)" width="8.1000004" height="8.1000004" xlink:href="#a"/>
<use transform="matrix(-.14 -.0333 .0439 -.1845 284.12 181.55)" width="8.1000004" height="8.1000004" xlink:href="#a"/>
<use transform="matrix(-.9451 1.6774 -1.6774 -.9451 302.7 175.38)" width="2.0999999" height="9.8999996" xlink:href="#b"/>
<use transform="matrix(-.9474 .9569 -.9569 -.9474 294.99 177.24)" width="2.0999999" height="9.8999996" xlink:href="#b"/>
<use transform="matrix(-.2972 1.6767 -1.6767 -.2972 301.95 168.77)" width="2.0999999" height="9.8999996" xlink:href="#b"/>
<use transform="matrix(-.1431 .2488 -.328 -.1887 302.63 176.46)" width="8.1000004" height="8.1000004" xlink:href="#a"/>
<use transform="matrix(-.1135 .1972 -.26 -.1496 299.9 174.16)" width="8.1000004" height="8.1000004" xlink:href="#a"/>
<use transform="matrix(-.0983 .1709 -.2252 -.1296 297.31 174.72)" width="8.1000004" height="8.1000004" xlink:href="#a"/>
<use transform="matrix(-.1783 .1261 -.1663 -.2351 294.57 178)" width="8.1000004" height="8.1000004" xlink:href="#a"/>
<use transform="matrix(-.1413 .1 -.1318 -.1863 293.68 175.85)" width="8.1000004" height="8.1000004" xlink:href="#a"/>
<use transform="matrix(-.1225 .0866 -.1142 -.1614 291.36 175.55)" width="8.1000004" height="8.1000004" xlink:href="#a"/>
<use transform="matrix(-.0573 .2015 -.2656 -.0756 300.78 169.86)" width="8.1000004" height="8.1000004" xlink:href="#a"/>
<use transform="matrix(-.0455 .1597 -.2106 -.0599 298.9 168.79)" width="8.1000004" height="8.1000004" xlink:href="#a"/>
<use transform="matrix(-.0394 .1384 -.1824 -.0519 296.94 170.06)" width="8.1000004" height="8.1000004" xlink:href="#a"/>
</g>
<defs>
<g id="b" transform="translate(0,4.95)">
<path d="m1.8-3.5 0.3 3.5-0.3 3.5q-0.3 1.45-0.75 1.45t-0.75-1.45-0.3-3.5 0.3-3.5 0.75-1.45 0.75 1.45" fill="#65704c" fill-rule="evenodd"/>
<path d="m1.6-0.75 0.2 2.25-0.2 2.25-0.5 0.95q-0.3-0.05-0.45-0.95l-0.2-2.25 0.2-2.25q0.15-0.95 0.45-0.95t0.5 0.95" fill="#41511d" fill-rule="evenodd"/>
</g>
<g id="a" transform="translate(0,4.05)">
<path d="m4.05-4.05q1.7 0 2.85 1.15 1.2 1.2 1.2 2.9t-1.2 2.85q-1.15 1.2-2.85 1.2t-2.9-1.2q-1.15-1.15-1.15-2.85t1.15-2.9q1.2-1.15 2.9-1.15" fill="url(#d)" fill-rule="evenodd"/>
</g>
<radialGradient id="d" cx="0" cy="0" r="819.2" gradientTransform="matrix(.0051 0 0 .0051 4.05 0)" gradientUnits="userSpaceOnUse">
<stop stop-color="#848484" offset="0"/>
<stop stop-color="#848484" stop-opacity="0" offset="1"/>
</radialGradient>
<g id="c" transform="translate(.25 22.5)">
<path d="m6.45 10.45-0.05-0.05q-0.4-1.2-1.35-1.55l-0.5-0.15h-0.5l-0.05 0.05h-0.15 0.15l0.05-0.05h0.5l0.5 0.15q0.95 0.35 1.35 1.55l0.05 0.05m-0.4 1.05h-0.15l-1.25-0.2-4.65 0.4 2.2-1.8 1.3-0.95 0.3-0.15 0.05-0.05 1-0.55 2.4-0.3 0.35-0.05 1.75 0.05 0.35 1.2 0.3 1.15v0.15l0.15 0.45h-0.05l-2.15-0.25-1.9 0.9m4.05-0.65-0.1-0.45 0.1 0.45m-0.4-1.75-1.15-0.85-0.95-0.4 0.95 0.4 1.15 0.85m-2.45-1.2 0.8 0.35 0.7 0.35q0.95 0.7 1.25 1.65-0.3-0.95-1.25-1.65l-0.7-0.35-0.8-0.35m-3.75 1.05 1.3 0.1 0.2 0.05 0.1 0.05 0.35 0.25 0.6 0.9-0.6-0.9-0.35-0.25-0.1-0.05-0.2-0.05-1.3-0.1" fill="#5c4e2e" fill-rule="evenodd"/>
<path d="m3.85 8.75h0.15l0.05-0.05h0.5l0.5 0.15q0.95 0.35 1.35 1.55l0.05 0.05m3.55-0.2v0.15l0.1 0.45m-4.05-0.55-0.6-0.9-0.35-0.25-0.1-0.05-0.2-0.05-1.3-0.1m6.5 1.3q-0.3-0.95-1.25-1.65l-0.7-0.35-0.8-0.35m0.35-0.05 0.95 0.4 1.15 0.85" fill="none" stroke="#544d3d" stroke-linecap="round" stroke-linejoin="round" stroke-width=".05"/>
<path d="m6.05 11.5h-0.15l-1.25-0.2-4.65 0.4 2.2-1.8 1.3-0.95 0.3-0.15 0.05-0.05 1-0.55 2.4-0.3 0.35-0.05 1.75 0.05" fill="none" stroke="#544d3d" stroke-linecap="round" stroke-linejoin="round" stroke-width=".05"/>
<path d="m15.95 0.05h0.05v0.05l-0.05-0.05m1.6-5.8v0.25l-0.1 0.5 0.1-0.75m-1.55 5.8v0.05-0.05m-8.7 10.25v-0.05 0.05m0.75 0.8-0.3-0.35-0.15-0.2 0.45 0.55" fill="#ccc" fill-rule="evenodd"/>
<path d="m3.4 10 0.05-0.05h0.05l-0.1 0.05m2.65-0.35h-0.1v-0.05l0.1 0.05m2.7-3 0.05-0.15h1.15l-1.2 0.15" fill="#ececec" fill-rule="evenodd"/>
<path d="m15.75-19.45-0.05-0.25 0.1 0.25h-0.05" fill="#8f8f8f" fill-rule="evenodd"/>
<path d="m16.6 1.1-0.05-0.05h0.05v0.05" fill="#666" fill-rule="evenodd"/>
<path d="m15.7-6.05v0.2l0.05 0.35h-0.05v-0.55m0.5-12.6q0.7 0.05 1.45-0.4l0.95-1.25 0.85 0.2-0.25 0.45-0.9 1.25q-0.4 0.45-0.8 0.55v0.05q-0.75 0.2-1.3-0.85m-0.45 13.8v-0.15 0.15" fill="#333" fill-rule="evenodd"/>
<path d="m14.5-3.2 0.35 0.45-0.15-0.25-0.2-0.2m2.1 4.3v-0.05l-0.05 0.25 0.05-0.2" fill="#900" fill-rule="evenodd"/>
<path d="m15.7-19.7 0.05 0.25 0.5 10.45v0.05l-0.5 3.65v-0.2l-0.05-0.35v-0.2l-0.05-0.5-0.75-15.65 0.75 15.65 0.05 0.5v0.55q-0.8-0.15-1.2-0.35l-2.2-12.4q0.85-2 0.7-4l1.85 0.05h0.05l0.1-0.05 0.7 2.55m-1.2 14.55 1.25 0.15v0.4l0.25 4.65h-0.05l-0.9-2.45-0.05-0.05-0.15-0.3-0.35-0.45-0.05-0.05 0.05-1.9m-0.55 7.85 0.45-0.2 0.2-0.1 1.45-0.9-0.05-1.4h0.05l0.5 0.95 0.05 0.05-0.05 0.2 0.1-0.05 0.65 1.8 0.15 0.7-0.15 0.6-0.1 0.25-0.55 0.6-0.35 0.2-1.8 0.45-1.6 1.4q-1.1-1.15-3.4-1.05 1.1-0.65 2.25-1.1l1.1-0.45 1.1-1.95m2.7 2.5q-4.15 0.35-4.9-0.1 0.75 0.45 4.9 0.1m-13.05 6.35 0.7-1.15q0.55-0.35 1.05-0.55v-0.25q-0.4 0.15-0.75 0.4l0.3-0.35 1.05-0.05v0.05h0.1q0.65 0.15 1.25 0.6v0.05l-0.5 0.1-0.55 0.15-2.65 1m1.6-2.3 0.5-0.6 3.05-2 1.2-0.15q1.65 0.1 2.55 1.1l-2.65 2.25-2 0.3q-1.25-1.15-2.65-0.9" fill="#cdc098" fill-rule="evenodd"/>
<path d="m1.9 12.4 1.2-2q0.95-0.6 1.8-0.75l-0.3 0.35q0.35-0.25 0.75-0.4v0.25q-0.5 0.2-1.05 0.55l-0.7 1.15-1.7 0.85m1.55-2.45 1.05-1.3q1.5-1.15 3.05-2l1.25-0.15-0.05 0.15-3.05 2-0.5 0.6-0.7 0.2-0.25 0.1-0.35 0.15-0.1 0.05-0.05 0.05-0.2 0.1-0.05 0.05h-0.05m4.6-3.6q1.75-1 3.6-1.7l1.75-3.15q-0.3 0.55-0.3 0.9-0.1 0.55 0.55 0.4l0.3-0.1-1.1 1.95-1.1 0.45q-0.25-0.2-0.1-0.45-0.15 0.25 0.1 0.45-1.15 0.45-2.25 1.1l-1.45 0.15m5.5-7.45 0.2-4.3 0.75 0.25-0.05 1.9q-0.3-0.15-0.5 0.25-0.3 0.5-0.4 1.9m0.15-4.75-2.2-12.4q0.85-2 0.7-4h0.8q0.15 2-0.7 4l2.2 12.4q0.4 0.2 1.2 0.35v0.05l-2-0.4" fill="#e4dcc9" fill-rule="evenodd"/>
<path d="m15.75-5.3 0.5-3.65v-0.05l1.25-8.8v-0.05q0.4-0.1 0.8-0.55l0.9-1.25 0.25-0.45 0.15-0.35 0.05 0.05 0.85 0.45v0.05l-2.35 12.75-0.15 1.5-0.45 0.15v-0.25l-0.1 0.75 0.5-0.15-0.25 2.85-0.95 2.4-0.15 0.95h-0.05l-0.5-0.95h-0.05v-0.05l-0.25-4.65v-0.7m1.65 6.05 0.2 0.5 0.65 1.15 0.75 2.2 0.05 0.35q-0.2 1.25-1.15 1.65l-1.8 0.45-2.3 2q-0.25-1.1-0.9-1.8l1.6-1.4 1.8-0.45 0.35-0.2 0.55-0.6 0.1-0.25 0.15-0.6-0.15-0.7-0.65-1.8 0.75-0.5m-4 8.65-1.95 1.65-2.55 0.45-1.05-1.35 2-0.3 2.65-2.25 0.65 1 0.15 0.4 0.1 0.4m-5 2.2-0.65 0.2-1.75 0.6q-3.15 1.25-6 3.65l1.9-3.65 1.7-0.85 2.65-1 0.55-0.15 0.5-0.1 0.3 0.25 0.15 0.2 0.3 0.35 0.3 0.4 0.05 0.1m11.25-32-2.1 14.65 2.1-14.65m-2.2 15.4-0.7 5.1 0.7-5.1m1.6 9.95-1.75 0.2-0.65 0.05 0.65-0.05 1.75-0.2" fill="#83795c" fill-rule="evenodd"/>
<path d="m16.25-9-0.5-10.45h0.05l0.35 0.75 0.05 0.05q0.55 1.05 1.3 0.85l-1.25 8.8" fill="#978a6c" fill-rule="evenodd"/>
<path d="m15.75-5.5v0.5l-1.25-0.15-0.75-0.25-0.05-0.45 2 0.4v-0.05h0.05m2.25-0.15-0.05 0.5-0.5 0.15 0.1-0.5 0.45-0.15m-4.2 14.7-0.4 0.35-0.1-0.4-0.15-0.4-0.65-1q-0.9-1-2.55-1.1h-1.15l-1.25 0.15 0.5-0.3 1.45-0.15q2.3-0.1 3.4 1.05 0.65 0.7 0.9 1.8m-4.9 2.45-0.5 0.1-0.05-0.1-0.3-0.4-0.45-0.55-0.3-0.25v-0.05q-0.6-0.45-1.25-0.6l-0.1-0.05-1.05 0.05q-0.85 0.15-1.8 0.75l0.3-0.4 0.1-0.05 0.05-0.05 0.2-0.1 0.05-0.05 0.1-0.05 0.35-0.15 0.25-0.1 0.7-0.2q1.4-0.25 2.65 0.9l1.05 1.35" fill="#474132" fill-rule="evenodd"/>
<path d="m17.7-2.3-0.3 3.05-0.75 0.5-0.1 0.05 0.05-0.25 0.15-0.95 0.95-2.4m-2.65-0.1 0.9 2.45 0.05 0.05 0.05 1.4-1.45 0.9-0.2 0.1v-0.1l0.3-0.9 0.15-2.6 0.2-1.3" fill="#7e9c39" fill-rule="evenodd"/>
<path d="m14.9-2.65 0.1 0.2 0.05 0.05-0.2 1.3-0.15 2.6-0.3 0.9v0.1l-0.45 0.2-0.3 0.1 0.25-0.7 0.15-2.6q0.1-1.4 0.4-1.9 0.15-0.4 0.45-0.25" fill="#c4d894" fill-rule="evenodd"/>
<path d="m13.4 1.5 0.15-2.6q0.1-1.4 0.4-1.9 0.2-0.4 0.5-0.25l0.25 0.25 0.15 0.25 0.05 0.1q-0.3-0.15-0.45 0.25-0.3 0.5-0.4 1.9l-0.15 2.6-0.25 0.7q-0.65 0.15-0.55-0.4 0-0.35 0.3-0.9" fill="#536725" fill-rule="evenodd"/>
<path d="m15.7-5.85 0.05 0.35v0.2m-2.35 6.8 0.15-2.6m0.2-4.3 0.75 0.25 1.25 0.15v-0.3m-2.1 8.1 0.3-0.1 0.45-0.2m3.15-8 0.45-0.15m-0.55 0.65 0.5-0.15m-2.25-0.3-2-0.4m2.05 1v0.2m0-0.2v-0.15m-2.85 12.25q0.65 0.7 0.9 1.8m-0.15-6.25q-0.65 0.15-0.55-0.4 0-0.35 0.3-0.9m-0.9 6.1 0.65 1 0.15 0.4 0.1 0.4m-6.1 0.85q-0.6-0.45-1.25-0.6m-0.1-0.05-1.05 0.05q-0.85 0.15-1.8 0.75m0.4-0.45 0.05-0.05 0.2-0.1 0.05-0.05 0.1-0.05 0.35-0.15 0.25-0.1 0.7-0.2m3.6-2.75-1.25 0.15m-4.15 3.35 0.1-0.05m6.45-3.45h-1.15m-1.5 3.8v-0.05m0.3 0.3 0.15 0.2 0.3 0.35-0.45-0.55-0.3-0.25m0.75 0.8 0.3 0.4 0.05 0.1m-0.55-1.45 1.05 1.35m-1.05-1.35q-1.25-1.15-2.65-0.9m2.85-2.9 1.45-0.15q2.3-0.1 3.4 1.05m-2.95-0.75q1.65 0.1 2.55 1.1" fill="none" stroke="#544d3d" stroke-linecap="round" stroke-linejoin="round" stroke-width=".05"/>
<path d="m15.7-19.7-0.7-2.55-0.1 0.05 0.75 15.65 0.05 0.5v0.2m0.1-13.6-0.1-0.25m0.5 1.05q0.7 0.05 1.45-0.4l0.95-1.25 0.85 0.2 0.15-0.35 0.05 0.05 0.85 0.45v0.05l-2.35 12.75-0.2 2-0.25 2.85-0.3 3.05 0.2 0.5 0.65 1.15 0.75 2.2 0.05 0.35q-0.2 1.25-1.15 1.65l-1.8 0.45-2.3 2-0.4 0.35-1.95 1.65-2.55 0.45-0.5 0.1-0.65 0.2-1.75 0.6q-3.15 1.25-6 3.65l1.9-3.65 1.2-2 0.3-0.4 0.05-0.05 1.05-1.3q1.5-1.15 3.05-2l0.5-0.3q1.75-1 3.6-1.7l1.75-3.15m0.15-2.6 0.2-4.3-0.05-0.45-2.2-12.4q0.85-2 0.7-4h0.8l1.85 0.05m1.35 3.55-0.05-0.05-0.35-0.75m1.7 1.6q0.4-0.1 0.8-0.55l0.9-1.25 0.25-0.45m-1.95 2.3q-0.75 0.2-1.3-0.85m-1.75 15.4 0.05 0.05 0.35 0.45 0.15 0.3 0.05 0.05 0.9 2.45 0.05 0.05v-0.05l-0.25-4.65m-1.25 1.4 0.2 0.2 0.15 0.25m-0.4-0.5q-0.3-0.15-0.5 0.25-0.3 0.5-0.4 1.9m4-4.65v0.25l-0.1 0.5 0.1-0.75 2.1-14.65m-3.05 21.5v-0.05l0.15-0.95 0.7-5.1m-1.45 5.1 0.05 1.4-1.45 0.9-0.2 0.1m2.15-1.2 0.05-0.25m0 0.05-0.05 0.2 0.1-0.05 0.75-0.5m-0.75 4.45 0.65-0.05 1.75-0.2m-7.3 0.15q-0.25-0.2-0.1-0.45m0.1 0.45q0.75 0.45 4.9 0.1m1.05-7.5-0.95 2.4" fill="none" stroke="#544d3d" stroke-linecap="round" stroke-linejoin="round" stroke-width=".05"/>
<path d="m21.5 1.25 0.4-4.65v-0.25h0.05l-0.4 4.75-0.05 0.15m1.85-22.3v-0.05l0.25-0.5h0.05l-0.25 0.55-1.4 16.9 1.35 0.35v0.05l-1.35-0.35-0.05-0.05 0.05-0.4 0.1-1.15 1.25-15.35m0 17.75h-0.05l-0.25-0.05 0.3 0.05m-1.1 8.1v-0.05l0.05 0.05h-0.05" fill="#8f8f8f" fill-rule="evenodd"/>
<path d="m19.9-17.55 0.7 0.1h-0.05l-0.65-0.1m2.05 13.55 0.1-1.7h0.05l-0.1 1.15-0.05 0.55m6.35-14.25q0.05 0.1 0.5 0.25l0.65 0.1q-0.05 0.5-1 0.35l-0.15-0.7m-6.75 19.35 0.05-0.05-0.05 0.25v-0.2m0.1 15.1-0.05 0.05v-0.05h0.05m1.7-1.15-1-0.25 1 0.25" fill="#ccc" fill-rule="evenodd"/>
<path d="m19.9-17.55-0.25-0.05-0.05-0.05q1.35-0.2 2.4-2.35h0.8l-0.9 1.8q-0.55 0.7-1.3 0.75l-0.7-0.1" fill="#999" fill-rule="evenodd"/>
<path d="m25 1.6v0.4l-0.05 0.15 0.05-0.55" fill="#630101" fill-rule="evenodd"/>
<path d="m24.9 2.55v0.25l-0.05 0.15 0.05-0.4m-2.2 2.45h0.4q-0.45 0.1-0.8-0.2l0.4 0.2" fill="#c20101" fill-rule="evenodd"/>
<path d="m20.6-17.45q0.75-0.05 1.3-0.75l0.9-1.8 0.55-1.05-1.25 15.35h-0.05l-1.5-11.75h0.05m3.05-4.15 1.3 0.2v0.05l-0.15 0.3-1.45 17.25-1.35-0.35 1.4-16.9 0.25-0.55m-0.6 18.25 0.25 0.05h0.05l-0.15 1.6q-0.75 0.3-1.6 2.75l-0.05 0.05 0.4-4.75 1.1 0.3m-1.9 11.05 0.2-0.55 0.25-1.15-0.05-1.6 0.15-0.3 0.55 0.65v0.05l-0.55 1 0.4 1.55 0.25 0.65-1.2-0.3 1.2 0.3 0.05 0.1 0.5 1.35q-1.35-0.25-2.35 0.7 0-0.7 0.45-2.05l0.15-0.4m0.25 6.9-0.35-2-0.35-1.65-0.05-0.3-0.7 0.8q1.25-1.85 3.1-1.45l0.3 1.65 0.05 0.2 0.05 0.5v0.05l-0.9 2-1.15 0.2m0.2 1.6v-0.05l-0.1-0.8-0.05-0.35-0.5 0.35q0.65-0.6 1.4-0.55l-0.1 0.25-0.45 0.85v-0.05l-0.15 0.35h-0.05" fill="#cdc098" fill-rule="evenodd"/>
<path d="m19.6-17.65 0.05 0.05 0.25 0.05 0.65 0.1 1.5 11.75-0.1 1.7-0.05 0.35v0.25l-0.4 4.65v0.05l-0.2 2.1-0.15-0.6 0.15 0.6 0.1 0.15 0.3 0.55-0.15 0.3 0.05 1.6-0.25 1.15-0.2 0.55-0.15 0.4q-0.45 1.35-0.45 2.05l-0.95 1.15-0.2-0.7-0.05-0.15q-0.1-0.6 0.45-2.35l0.35-0.95 0.25-1.15-0.05-1.6 0.8-1.6 0.1-6.95-1.7-13.35v-0.05l0.05-0.1m1 35.7-0.25-2.15 0.1-0.1 0.5-0.45 0.5-0.35 0.05 0.35 0.1 0.8v0.15l-0.15 0.25-0.05 0.05-0.8 1.45m-0.3-2.55-0.6-3.7 0.05-0.05 0.2-0.3 0.7-0.8 0.05 0.3 0.35 1.65 0.35 2q-0.5 0.25-0.95 0.75l-0.15 0.15m-0.15-8.35 1 0.55-1-0.55" fill="#eadbc4" fill-rule="evenodd"/>
<path d="m24.75 16.2-2.25 3.85-1.4 2.25-0.5-4.25 0.8-1.45 0.05-0.05 0.15-0.25v-0.05l0.05-0.05 0.15-0.35v0.05l0.45-0.85 0.1-0.25 1 0.25 1.05 0.8 0.35 0.35m0.2-37.55 2.6 0.45-1.95 17.05-2.25 0.1v-0.05l1.45-17.25 0.15-0.3m0.6 18-0.5 4.8-0.7-2.05q-0.4-0.9-0.8-1.05l-0.35-0.05 0.15-1.6 2.2-0.05m-1.85 8 0.6-0.65-0.9 1.8v0.1l0.4 1.45 0.2 0.55h-0.1l-0.55 0.1h-1 1l0.55-0.1h0.1l0.1 0.2 0.25 0.7 0.5 1.6-0.9-0.55-1.05-0.35v-0.05l-0.5-1.35-0.05-0.1-0.25-0.65-0.4-1.55 0.55-1h0.05q0.35 0.3 0.8 0.2 0.2-0.1 0.45-0.25l0.05-0.05h0.05l0.05-0.05m-1.15 9.75 0.9-2v-0.05l-0.05-0.5-0.05-0.2-0.3-1.65 0.25 0.1 1.65 0.95 0.1 0.6 0.05 0.2 0.05 0.5v0.05l-0.15 0.3-0.75 1.7-0.25 0.5-0.05 0.15-0.35-0.25-1.05-0.35v-0.05" fill="#83795c" fill-rule="evenodd"/>
<path d="m27.55-20.9h0.05l0.7 2.65 0.15 0.7q0.95 0.15 1-0.35l0.05 0.25-4.6 20.6h-0.05l0.05-0.15v-0.25l0.05-0.4 0.05-0.15v-0.4l0.05-0.15 0.5-4.8 0.05-0.5 1.95-17.05m-2.7 24h0.05l0.45 1.6-0.55 1.1 0.4 1.55 0.3 0.75 0.75 2.45 0.25 1.3-0.2-0.15-0.05-0.1-1.2-1.05-0.2-0.15-0.5-1.6-0.25-0.7-0.1-0.2-0.2-0.55-0.4-1.45v-0.1l0.9-1.8 0.55-0.9m1.7 9.25v0.05l-1.65 3.5-0.15-0.2-0.8-0.65 0.05-0.15 0.25-0.5 0.75-1.7 0.15-0.3v-0.05l-0.05-0.5-0.05-0.2-0.1-0.6 0.55 0.35 0.05 0.05 0.75 0.65 0.25 0.25m-1.35-5-0.35 0.2-0.85 0.35 0.85-0.35 0.35-0.2" fill="#635a47" fill-rule="evenodd"/>
<path d="m21.9-3.65 0.05-0.35 0.05-0.55-0.05 0.4 0.05 0.05 1.35 0.35 2.25-0.1-0.05 0.5-2.2 0.05-0.3-0.05-1.1-0.3h-0.05m4.6 15.5 0.05 0.5-0.25-0.25-0.75-0.65-0.05-0.05-0.55-0.35-1.65-0.95-0.25-0.1q-1.85-0.4-3.1 1.45l-0.2 0.3-0.05 0.05-0.1-0.5 0.95-1.15q1-0.95 2.35-0.7v0.05l1.05 0.35 0.9 0.55 0.2 0.15 1.2 1.05 0.05 0.1 0.2 0.15m-1.6 4.05-0.15 0.3-0.35-0.35-1.05-0.8-1-0.25q-0.75-0.05-1.4 0.55l-0.5 0.45-0.1 0.1-0.05-0.4 0.15-0.15q0.45-0.5 0.95-0.75l1.15-0.2v0.05l1.05 0.35 0.35 0.25 0.8 0.65 0.15 0.2" fill="#5c4e2e" fill-rule="evenodd"/>
<path d="m23.4-0.7 0.15 0.05 0.65 0.7q-0.6 2.35-0.5 4.6l-0.05 0.05h-0.05l-0.05 0.05q-0.25 0.15-0.45 0.25h-0.4q0-2.15 0.7-5.7" fill="#7e9c39" fill-rule="evenodd"/>
<path d="m21.4 3.55 0.1-1.25v-0.05l0.05 0.05q0.85-2.7 1.65-3h0.2q-0.7 3.55-0.7 5.7l-0.4-0.2-0.05-0.05-0.55-0.65-0.3-0.55" fill="#c4d894" fill-rule="evenodd"/>
<path d="m21.3 3.4 0.2-2.1v-0.05l0.05 0.05 0.05-0.25q0.85-2.45 1.6-2.75l0.35 0.05q0.4 0.15 0.8 1.05l0.7 2.05-0.05 0.15-0.05 0.55-0.1 0.8v0.15l-0.55 0.9-0.6 0.65q-0.1-2.25 0.5-4.6l-0.65-0.7-0.15-0.05h-0.2q-0.8 0.3-1.65 3l-0.05-0.05v0.05l-0.1 1.25-0.1-0.15" fill="#526525" fill-rule="evenodd"/>
<path d="m19.6-17.65 0.05 0.05 0.25 0.05 0.7 0.1q0.75-0.05 1.3-0.75l0.9-1.8h-0.8q-1.05 2.15-2.4 2.35l-0.05 0.1v0.05l1.7 13.35-0.1 6.95 0.15 0.6 0.2-2.1v-0.05l0.4-4.65m0-0.25 0.05-0.35 0.1-1.7m-1.5-11.75-0.65-0.1m7.65-3.35h0.05l0.7 2.65q0.05 0.1 0.5 0.25l0.65 0.1 0.05 0.25m-4.6 20.6-0.05 0.15v-0.15m0.05 0.15 0.45 1.6-0.55 1.1 0.4 1.55 0.3 0.75 0.75 2.45 0.25 1.3 0.05 0.5v0.05l-1.65 3.5-0.15 0.3-2.25 3.85-1.4 2.25-0.5-4.25-0.25-2.15-0.05-0.4-0.6-3.7-0.1-0.5-0.2-0.7-0.05-0.15q-0.1-0.6 0.45-2.35l0.35-0.95 0.25-1.15-0.05-1.6 0.8-1.6m2.2-23.85v-0.05l0.25-0.5h0.05l1.3 0.2m0 0.05 2.6 0.45-1.95 17.05-0.05 0.5-0.5 4.8-0.05 0.15v0.4m-0.1 0.55v0.25m-2.1-22.8 0.55-1.05-1.25 15.35-0.1 1.15-0.05 0.55m0.05-0.15 1.4-16.9 0.25-0.55m4.65 3.35 0.15 0.7q0.95 0.15 1-0.35m-7.5 14.25-0.4 4.75v0.2l0.05-0.25q0.85-2.45 1.6-2.75m1.85 3.15-0.7-2.05q-0.4-0.9-0.8-1.05l-0.35-0.05m0.5 6.35 0.6-0.65 0.55-0.9m-2.15 1.9h0.4q0.2-0.1 0.45-0.25l0.05-0.05h0.05l0.05-0.05m1.25-2.5 0.05-0.55m-3.5-0.35 0.05-0.15m0.15 3-0.3-0.55-0.1-0.15m1.05 4.6h1l0.55-0.1h0.1l0.85-0.35 0.35-0.2m-2.9-2.55-0.05-0.05-0.55-0.65m1 0.9-0.4-0.2q0.35 0.3 0.8 0.2m-1.95 2.7 1.2 0.3m0.55 1.5 1.05 0.35 0.9 0.55 0.2 0.15 1.2 1.05 0.05 0.1 0.2 0.15m-5.35-4.15-1-0.55m1.25 7.45 1.15-0.2m0.5-4.4q-1.85-0.4-3.1 1.45l0.7-0.8m4.3 0.4-1.65-0.95-0.25-0.1m1.9 1.05 0.55 0.35 0.05 0.05 0.75 0.65 0.25 0.25m-3.65-2.9q-1.35-0.25-2.35 0.7l-0.95 1.15m4.4 3.6 0.05-0.1m-1.5-0.35 1.05 0.35 0.35 0.25 0.8 0.65 0.15 0.2m-4.6-0.4 0.15-0.15q0.45-0.5 0.95-0.75m0.05 0.4-0.5 0.35-0.5 0.45-0.1 0.1m2-1.1q-0.75-0.05-1.4 0.55m3.8 0.85-0.35-0.35-1.05-0.8-1-0.25 1 0.25m-3.65-3.25 0.05-0.05 0.2-0.3" fill="none" stroke="#544d3d" stroke-linecap="round" stroke-linejoin="round" stroke-width=".05"/>
<path d="m29.5-17.65-4.6 20.6m-2.95-7.1 0.05 0.05 1.35 0.35m0-0.05-1.35-0.35m1.35 0.85h-0.05l-0.25-0.05-1.1-0.3m1.4 0.35-0.3-0.05m-1.15-0.3h0.05m1.4 0.35 2.2-0.05m0.05-0.5-2.25 0.1" fill="none" stroke="#544d3d" stroke-linecap="round" stroke-linejoin="round" stroke-width=".05"/>
<path d="m10.8 9.05-0.45 0.25-0.9 0.6h-0.6q0.7-0.55 1.45-0.85v-0.05l0.5 0.05m-3.2 2.75-0.1 0.25 0.25-0.25h0.05v0.15l-0.45 0.3-0.25 0.7-0.5 0.3-0.2 0.15 0.5-1.15 0.7-0.45m0.1-0.2-0.25 0.1-0.1 0.05-0.15 0.1-0.1 0.1h-0.05l0.4-0.75 1.2-1.15h0.55l-0.05 0.1q-0.65 0.45-1.2 1.1l-0.25 0.35" fill="#e4dcc9" fill-rule="evenodd"/>
<path d="m9.45 9.9q0.9 0 1.35 0.75l0.3 1.15-0.15 0.2-0.1-0.5-0.25-0.65q-0.35-0.65-1-0.8h-0.95l0.2-0.15h0.6m-0.9 2.4-0.5-0.45-0.45-0.05-0.7 0.45 0.1-0.25 0.05-0.05h0.05l0.1-0.1 0.15-0.1 0.1-0.05 0.25-0.1q0.6-0.1 1.05 0.65l0.4 0.85-0.15 0.05-0.05-0.05-0.1-0.3-0.2-0.3-0.1-0.2" fill="#474132" fill-rule="evenodd"/>
<path d="m7.1 12.95 0.25-0.7 0.45-0.3v-0.15h-0.05l-0.25 0.25 0.1-0.25 0.45 0.05 0.5 0.45-0.2 0.05-0.2 0.1q-0.55 0.15-1.05 0.5m0.6-1.35 0.25-0.35q0.55-0.65 1.2-1.1l0.45-0.1q0.65 0.15 1 0.8l-1.05 1.3-0.8 0.1q-0.45-0.75-1.05-0.65" fill="#cdc098" fill-rule="evenodd"/>
<path d="m9.15 10.15 0.05-0.1h0.4l-0.45 0.1" fill="#ececec" fill-rule="evenodd"/>
<path d="m9.45 9.9 0.9-0.6 0.45-0.25h0.5l0.4-0.1 1.1 0.3v0.65l-0.75 0.75-0.95 1.15-0.3-1.15q-0.45-0.75-1.35-0.75m1.15 0.95 0.25 0.65 0.1 0.5-0.8 0.95-1 0.15-0.4-0.85 0.8-0.1 1.05-1.3m-3.5 2.1q0.5-0.35 1.05-0.5l0.2-0.1 0.2-0.05 0.15 0.3 0.15 0.2 0.1 0.3 0.05 0.05-0.3 0.1q-0.35 0.1-0.7 0.3-1.25 0.65-2.4 2.05l0.8-2.2 0.2-0.15 0.5-0.3" fill="#83795c" fill-rule="evenodd"/>
<path d="m8.65 12.5 0.2 0.3-0.15-0.2-0.05-0.1" fill="#ccc" fill-rule="evenodd"/>
<path d="m10.6 10.85 0.25 0.65 0.1 0.5m-2.4 0.3-0.5-0.45-0.45-0.05-0.7 0.45m0.15-0.3h0.05l0.1-0.1 0.15-0.1 0.1-0.05 0.25-0.1q0.6-0.1 1.05 0.65m0.45-2.2h-0.55m0.95 0h-0.4m1.4 0.8q-0.35-0.65-1-0.8m-0.75 2.75-0.2-0.3 0.05 0.1 0.15 0.2 0.1 0.3 0.05 0.05m0.15-0.05-0.4-0.85m-0.1 0.25-0.1-0.2" fill="none" stroke="#544d3d" stroke-linecap="round" stroke-linejoin="round" stroke-width=".05"/>
<path d="m11.1 11.8 0.95-1.15 0.75-0.75m-2.5-0.9v0.05q-0.75 0.3-1.45 0.85m2.1 2.1 0.15-0.2m-4.2 0.45-0.5 1.15m2.25-3.35-1.2 1.15-0.4 0.75-0.05 0.05-0.1 0.25m1.75-2.2 0.2-0.15m0.15 3.25 0.15-0.05m-0.15 0.05-0.3 0.1q-0.35 0.1-0.7 0.3-1.25 0.65-2.4 2.05l0.8-2.2m4.55-1.4-0.8 0.95-1 0.15" fill="none" stroke="#544d3d" stroke-linecap="round" stroke-linejoin="round" stroke-width=".05"/>
<path d="m19.9-18.85v-0.1q4.25-3.7 7.8-0.45 0.15-0.2 0.35-0.2 0.35 0 0.65 0.8l0.15-0.05 0.5 0.5 0.2 1.3-0.2 1.25-0.35 0.55-0.25 1.2-0.35 0.8-0.3 1.1-0.45 0.65 0.05 1-0.15 1.6q-0.15 0.65-0.4 0.65t-0.4-0.65-0.15-1.6q0-0.85 0.15-1.4l-0.05-0.1-0.05 0.05q-0.35 0.8-0.85 0.8h-0.05l-0.2 0.6-0.4 0.45q-0.25 0-0.45-0.45-0.15-0.45-0.15-1.1l0.15-1q-0.15-0.5-0.15-1.15v-0.1l-0.7 0.05-0.1-1.9-0.15 0.05-0.2 1.2 0.1 1.15-0.25 1.6q-0.2 0.7-0.5 0.7t-0.55-0.7l-0.2-1.6 0.1-1.2-0.05-0.15-0.15 0.55q-0.2 0.6-0.4 0.6l-0.35-0.6-0.2-1.05-0.05-0.05-0.1 0.35-0.3 0.4-0.35-0.4q-0.15-0.35-0.15-0.85l0.15-0.85 0.05-0.05-0.15-0.75v0.3q0 1.6-0.4 2.75l-0.55 1 0.05 0.8-0.25 1.6q-0.2 0.65-0.5 0.65t-0.55-0.65l-0.2-1.6v-0.25l-0.2 0.05q-0.35 0-0.6-0.85l-0.2-1.95v-0.45q-0.3-0.1-0.5-0.6l-0.2-1.3q-0.4 1.65-0.75 1.6l0.05 0.85-0.25 1.35-0.5 0.6-0.55-0.6-0.2-1.35 0.1-0.85-0.35-0.25-0.1 0.3q-0.2 0.7-0.6 0.7-0.35 0-0.6-0.7t-0.25-1.75l0.05-0.45-0.3 0.4-0.15-0.9q3-4.05 6.3-1.1 0.35-0.95 0.85-0.95 0.55 0 0.95 1.15l0.25 1" fill="#312c24" fill-opacity=".47059" fill-rule="evenodd"/>
<path d="m25 11.1h0.1l0.1 0.1 0.65 0.5 0.45 0.95q0.6 1.1 0.45 2.35l-0.55 3.25h-0.1q0.1-2.15-0.4-4.1l-0.7-1.9-0.2 1.15-0.4-0.9 0.6-1.4m-5 0.45-0.3 1.9-0.25 0.6q-1.35 2.15-0.95 3.85h-0.05l-0.35-1.9v-0.3q0.05-1.5 0.9-3l0.75-1.8v-0.05l0.25 0.7m0.25 3.1 0.1-0.25v0.15l-0.1 0.1" fill="#83795c" fill-rule="evenodd"/>
<path d="m26.1 18.25h-0.15l-0.65-3.65-0.3-0.75-0.2-0.45 0.2-1.15 0.7 1.9q0.5 1.95 0.4 4.1" fill="#635a47" fill-rule="evenodd"/>
<path d="m25.85 11.7q0.6 0.25 0.45-0.85 0.6 0.9 0.85 2.5l0.05 0.7-0.35 2.75-0.65 1.45 0.55-3.25q0.15-1.25-0.45-2.35l-0.45-0.95m-5.85-0.15q0.25-0.95 0.3 1.05l0.05 1.8-0.1 0.25-0.65 0.7-1 2.55h-0.1q-0.4-1.7 0.95-3.85l0.25-0.6 0.3-1.9" fill="#5c4e2e" fill-rule="evenodd"/>
<path d="m18.1 16-0.1-0.3q0.05-1.9 0.75-4l0.7-2.25 0.3 1.45-0.75 1.8q-0.85 1.5-0.9 3v0.3" fill="#928467" fill-rule="evenodd"/>
<path d="m25 11.1h0.1m-6.5 6.8 1-2.55 0.65-0.7m0.1-0.1-0.1 0.1m-0.8-5.2-0.7 2.25q-0.7 2.1-0.75 4l0.1 0.3 0.35 1.9" fill="none" stroke="#484137" stroke-linecap="round" stroke-linejoin="round" stroke-width=".05"/>
<path d="m20.2 10.8q-1.05 1.1-1.65 2.45" fill="none" stroke="#605744" stroke-linecap="round" stroke-linejoin="round" stroke-width=".5"/>
<path d="m24.85 3.1h0.05l0.45 1.6-0.55 1.1 0.4 1.55 0.3 0.75 0.75 2.45 0.1 0.35q0.55 0.85 0.8 2.45l0.05 0.7-0.35 2.75-0.65 1.45h-0.25l-0.55-3.3-0.5 0.95-0.15 0.3-2.25 3.85-1.4 2.25-0.5-4.25-0.25-2.15-0.15-1.2-0.6 0.65-1 2.55h-0.15l-0.35-1.9-0.1-0.3q0.05-1.9 0.75-4l0.65-2 0.4-1.6 0.35-0.95 0.25-1.15-0.05-1.6 0.8-1.6 0.1-6.95-1.5-11.8-1.6 8.8-0.75 7.9 0.2 0.5 0.65 1.15 0.75 2.2 0.05 0.35q-0.2 1.25-1.15 1.65l-1.8 0.45-4.05 3.6-1.9 2.3-1 0.15-0.45 0.15q-0.35 0.1-0.7 0.3-1.25 0.65-2.4 2.05l0.8-2.2 0.5-1.15 0.1-0.2-1 0.35q-3.15 1.25-6 3.65l1.9-3.65 0.7-1.15-2.6 0.45 2.2-1.85 1.25-0.9 0.35-0.2h0.05l1-0.5 0.35-0.1 2.35-1.5 0.5-0.3q1.75-1 3.6-1.7l1.75-3.15 0.35-6.9-0.05-0.45-2.2-12.4q0.85-2 0.7-4l2.7 0.05 0.1-0.05 0.8 2.8 0.35 0.75 0.05 0.05q0.7 0.05 1.45-0.4l0.95-1.25 0.85 0.2 0.15-0.35 0.9 0.5v0.05l-0.4 2.1q1.05-0.45 1.9-2.2h0.8l0.55-1.05v-0.05l0.25-0.5h0.05l1.3 0.2v0.05l2.6 0.45h0.05l0.7 2.65q0.05 0.1 0.5 0.25l0.65 0.1 0.05 0.25-4.6 20.6m-0.05 0.15v-0.15h0.05" fill="none" stroke="#474132" stroke-linecap="round" stroke-linejoin="round" stroke-width=".5"/>
<path d="m24.9 2.95-0.05 0.15z" fill="none" stroke="#544d3d" stroke-linecap="round" stroke-linejoin="round" stroke-width=".5"/>
</g>
</defs>
</svg>
