<?xml version="1.0" encoding="UTF-8"?>
<svg version="1.1" viewBox="0 0 107.46 50.84" xmlns="http://www.w3.org/2000/svg" xmlns:cc="http://creativecommons.org/ns#" xmlns:dc="http://purl.org/dc/elements/1.1/" xmlns:rdf="http://www.w3.org/1999/02/22-rdf-syntax-ns#" xmlns:xlink="http://www.w3.org/1999/xlink">
<metadata>
<rdf:RDF>
<cc:Work rdf:about="">
<dc:format>image/svg+xml</dc:format>
<dc:type rdf:resource="http://purl.org/dc/dcmitype/StillImage"/>
</cc:Work>
</rdf:RDF>
</metadata>
<g transform="translate(-221.79 -174.2)">
<use transform="matrix(.9463 .214 -1.1997 .3809 271.77 173.4)" width="17.799999" height="14.1" xlink:href="#a"/>
<use transform="matrix(-1.0797 .2442 1.3518 .4292 286.96 173.04)" width="17.799999" height="14.1" xlink:href="#a"/>
<use transform="matrix(.6956 -1.0706 1.4286 .633 218.08 208.08)" width="17.799999" height="14.1" xlink:href="#a"/>
<use transform="matrix(1.0204 -.1988 .1011 .7902 225.29 184.92)" width="17.799999" height="14.1" xlink:href="#a"/>
<use transform="matrix(.9905 .1349 -1.3518 .4292 258.94 176.12)" width="17.799999" height="14.1" xlink:href="#a"/>
<use transform="matrix(1.1886 .1618 -.5213 .6649 236.22 176.14)" width="17.799999" height="14.1" xlink:href="#a"/>
<use transform="matrix(-1.1741 .2445 .8512 .5674 306.79 172.86)" width="17.799999" height="14.1" xlink:href="#a"/>
<use transform="matrix(-.8779 .109 .3854 .6338 317.03 177.9)" width="17.799999" height="14.1" xlink:href="#a"/>
<use transform="matrix(-1.0204 -.1988 -.1011 .7902 330.01 186.37)" width="17.799999" height="14.1" xlink:href="#a"/>
<use transform="translate(239.95,180.35)" width="74.550003" height="27.4" xlink:href="#c"/>
<use transform="matrix(.0934 -.9333 -1.1403 -.2332 291.59 223.14)" width="17.799999" height="14.1" xlink:href="#a"/>
<use transform="matrix(-.4619 -1.1741 -1.4286 .633 331.9 210.68)" width="17.799999" height="14.1" xlink:href="#a"/>
<use transform="matrix(.1035 -1.0347 -1.2855 -.0445 313.16 218.77)" width="17.799999" height="14.1" xlink:href="#a"/>
<use transform="matrix(-.1035 -1.0347 1.2855 -.0445 238.84 219.32)" width="17.799999" height="14.1" xlink:href="#a"/>
<use transform="matrix(-.4516 -1.0555 1.1533 -.4594 269.87 227.19)" width="17.799999" height="14.1" xlink:href="#a"/>
<use transform="matrix(-.4307 -1.1373 1.7303 -.5293 251.94 228.08)" width="17.799999" height="14.1" xlink:href="#a"/>
<use transform="matrix(-.125 -1.1949 -1.4438 -.2749 308.27 226.06)" width="17.799999" height="14.1" xlink:href="#a"/>
<use transform="translate(239.6,193.25)" width="74.550003" height="13.95" xlink:href="#b"/>
</g>
<defs>
<g id="a" transform="translate(14,12.1)">
<use transform="translate(-14,-12.1)" width="17.799999" height="14.1" xlink:href="#d"/>
</g>
<g id="d" transform="translate(14,12.1)">
<path d="m-1.95-10.6q-6.25-0.45-8.4 3.05 3.25 1.65 2.85 3.65-2.35 0.15-4.8 3.05-1.6-0.75-1.65-1.65-0.45-7.4 4.85-9.3 2.9-1 7.15 1.2" fill="#b294ae" fill-rule="evenodd"/>
<path d="m-12.3-0.85q2.45-2.9 4.8-3.05 0.4-2-2.85-3.65 2.15-3.5 8.4-3.05 0.35 0.25 0.7 0.35l5.05 4.6-4.35 7.65q-1.6-1.95-3.05-2.25l-3.7 0.05q-4.2-0.15-5-0.65" fill="#b276a6" fill-rule="evenodd"/>
<path d="m-1.95-10.6q-4.25-2.2-7.15-1.2-5.3 1.9-4.85 9.3 0.05 0.9 1.65 1.65 0.8 0.5 5 0.65l3.7-0.05q1.45 0.3 3.05 2.25m4.35-7.65-5.05-4.6q-0.35-0.1-0.7-0.35z" fill="none" stroke="#6e366c" stroke-linecap="round" stroke-linejoin="round" stroke-width=".05"/>
<path d="m-6.2-7.9q5.45 1.75 7.6 4.55m-1.35 1.85q-1.25-1.75-5.05-1.9" fill="none" stroke="#6e366c" stroke-linecap="round" stroke-linejoin="round" stroke-width=".05"/>
</g>
<g id="c" transform="translate(-239.95,-180.35)">
<path d="m251.05 187.15q-9.15 2.9-10.6 6.9l-0.25-1.55q0-4.95 10.85-8.4 10.85-3.5 26.2-3.5 15.3 0 26.15 3.5 10.85 3.45 10.85 8.4l-0.25 1.55q-1.45-4-10.6-6.9-10.85-3.5-26.15-3.5-15.35 0-26.2 3.5m62.95 6.9 0.25 1.55q0 4.9-10.85 8.4t-26.15 3.5q-15.35 0-26.2-3.5t-10.85-8.4q0-0.8 0.25-1.55 1.45 3.95 10.6 6.9 10.85 3.45 26.2 3.5 15.3-0.05 26.15-3.5 9.15-2.95 10.6-6.9" fill="#7a5934" fill-rule="evenodd"/>
<path d="m251.05 187.15q10.85-3.5 26.2-3.5 15.3 0 26.15 3.5 9.15 2.9 10.6 6.9l0.25-1.55q0-4.95-10.85-8.4-10.85-3.5-26.15-3.5-15.35 0-26.2 3.5-10.85 3.45-10.85 8.4l0.25 1.55q1.45-4 10.6-6.9m62.95 6.9 0.25 1.55q0 4.9-10.85 8.4t-26.15 3.5q-15.35 0-26.2-3.5t-10.85-8.4q0-0.8 0.25-1.55 1.45 3.95 10.6 6.9 10.85 3.45 26.2 3.5 15.3-0.05 26.15-3.5 9.15-2.95 10.6-6.9" fill="none" stroke="#000" stroke-linecap="round" stroke-linejoin="round" stroke-opacity=".6" stroke-width=".5"/>
</g>
<g id="b" transform="translate(-239.6,-193.25)">
<path d="m248.3 199.6 0.25 0.05 0.05 0.05-0.3-0.1" fill="#f9d81e" fill-rule="evenodd"/>
<path d="m248.6 199.7 3.45 1.1-1.9 1.35-1.55-2.45m16.5 3.6 4 0.35-2 2-2-2.35m18.05 0.45 4.7-0.35-2.25 2.3-2.35-1.95h-0.1m17.65-2.75 4.5-1.3-0.6 0.2-1.15 2.4-2.75-1.3m-4.45 4.05-3 0.55 1.1-1.95 1.9 1.4m-17.1 1.9-4.65-0.05 2.25-1.9 2.4 1.95m-19.65-1.35-2.85-0.45 1.8-1.45 1.05 1.9" fill="#7a5934" fill-rule="evenodd"/>
<path d="m256.6 205.25-5.9-1.8q-10.85-3.5-10.85-8.4 0-0.8 0.25-1.55 1.4 3.75 8.2 6.1l0.3 0.1 1.55 2.45 1.9-1.35 0.15 0.05q6.1 1.75 12.85 2.4l0.05 0.05 2 2.35 2-2 0.45 0.05 7.35 0.2 6.25-0.15h0.1l2.35 1.95 2.25-2.3 0.8-0.05q6.8-0.7 12.05-2.4l0.1 0.05 2.75 1.3 1.15-2.4 0.6-0.2q7.1-2.85 8.35-6.2l0.25 1.55q0 4.9-10.85 8.4l-5.9 1.5-0.8 0.1-1.9-1.4-1.1 1.95-0.05 0.05-13.6 1.3h-0.45l-2.4-1.95-2.25 1.9-0.05 0.05-14.5-1.25-0.45-0.1-1.05-1.9-1.8 1.45-0.15 0.1" fill="#c49d73" fill-rule="evenodd"/>
<path d="m256.6 205.25-5.9-1.8q-10.85-3.5-10.85-8.4 0-0.8 0.25-1.55 1.4 3.75 8.2 6.1l0.25 0.05m3.65 1.2q6.1 1.75 12.85 2.4m4.5 0.45 7.35 0.2 6.25-0.15h0.1m5.4-0.4q6.8-0.7 12.05-2.4m4.6-1.25q7.1-2.85 8.35-6.2l0.25 1.55q0 4.9-10.85 8.4l-5.9 1.5m-3.85 0.7-13.6 1.3m-5.15 0-14.5-1.25m44.65-5.8 0.6-0.2m-17.45 3.7 0.8-0.05m-19.55 0.3 0.45 0.05" fill="none" stroke="#000" stroke-linecap="round" stroke-linejoin="round" stroke-opacity=".6" stroke-width=".5"/>
<path d="m248.55 199.65 0.05 0.05 3.45 1.1 0.15 0.05m12.85 2.4 0.05 0.05 4 0.35 0.45 0.05m13.6 0.05 4.7-0.35 0.8-0.05m12.05-2.4 0.1 0.05 4.5-1.3m-8.15 5.25-0.8 0.1-3 0.55-0.05 0.05m-13.6 1.3h-0.45l-4.65-0.05-0.05 0.05m-14.5-1.25-0.45-0.1-2.85-0.45-0.15 0.1m44.2-4.25 2.75 1.3 1.15-2.4m-11.35 5.7 1.1-1.95 1.9 1.4m-13.1-1.3 2.35 1.95 2.25-2.3m-13.25 3.5 2.25-1.9 2.4 1.95m-14.15-3.65 2 2.35 2-2m-12.35 1.5 1.8-1.45 1.05 1.9m-11-5.9 1.55 2.45 1.9-1.35m-3.45-1.1-0.3-0.1" fill="none" stroke="#000" stroke-linecap="round" stroke-linejoin="round" stroke-opacity=".6" stroke-width=".5"/>
</g>
</defs>
</svg>
