<?xml version="1.0" encoding="UTF-8"?>
<svg version="1.1" viewBox="0 0 37.3 43.1" xmlns="http://www.w3.org/2000/svg" xmlns:cc="http://creativecommons.org/ns#" xmlns:dc="http://purl.org/dc/elements/1.1/" xmlns:rdf="http://www.w3.org/1999/02/22-rdf-syntax-ns#" xmlns:xlink="http://www.w3.org/1999/xlink">
<metadata>
<rdf:RDF>
<cc:Work rdf:about="">
<dc:format>image/svg+xml</dc:format>
<dc:type rdf:resource="http://purl.org/dc/dcmitype/StillImage"/>
</cc:Work>
</rdf:RDF>
</metadata>
<g transform="translate(-256.25,-178.45)">
<use transform="translate(256.25,178.45)" width="37.299999" height="43.099998" xlink:href="#a"/>
</g>
<defs>
<g id="a" transform="translate(-256.25,-178.45)">
<path d="m279.65 178.5 0.05-0.05 0.2 0.05h0.35-0.1l-0.3 0.05 0.3-0.05h0.1v0.1h-0.1l-0.3-0.05h-0.05l-0.15-0.05m0.5 0v0.1-0.1m0.55 27.9-0.05 0.15v-0.2 0.25l-0.05-0.05 0.05-0.1-0.05-0.05 0.05-0.05-0.05 0.05 0.05 0.05-0.05 0.1h-0.05l-0.05-0.1 0.05-0.1v-0.1l0.15 0.15m-0.15-0.05 0.05 0.05-0.05 0.15 0.05-0.15-0.05-0.05" fill="#ad0142" fill-rule="evenodd"/>
<path d="m280.35 178.6h0.1l0.9 0.1h0.05v0.05l-1.05-0.15m-0.9 12.75v-0.05l0.4 0.1h-0.1l-0.3 0.05h-0.05l0.05-0.05v-0.05l0.3 0.05-0.3-0.05m1.05 0.25-0.1-0.05h0.1v0.05" fill="#fd2677" fill-rule="evenodd"/>
<path d="m280.25 178.5 3.2 0.45v0.05h-0.05v-0.05h-0.05l-3-0.45h-0.1 0.1l3 0.45h0.05v0.05h-0.05l-1.95-0.25v-0.05h-0.05l-0.9-0.1h-0.2v-0.1m0.1 0v0.1-0.1m3 0.45v0.05-0.05m-2.95 12.6h0.1l3.8 0.9v0.05-0.05l-2-0.45 0.35 0.1-0.35-0.1-0.45-0.1 0.45 0.1 2 0.45 0.1 0.05h-0.1l-0.95-0.25-0.7-0.15-0.8-0.2-1.35-0.3v-0.05h-0.1m-3.75 13.85 0.5-0.25 0.05 0.05h0.1l-0.75 0.25 0.1-0.05 0.55-0.2-0.55 0.2m7.75-12.9-0.1-0.05h0.1v0.05m-8.15 13.1 0.05-0.05v0.1l0.1-0.15-0.1 0.15v-0.1l0.1-0.05v0.15l0.35 0.3 0.55 0.5-0.15-0.05-0.35-0.3-0.05-0.15 0.05 0.15 0.35 0.3h-0.05l-0.3-0.3-0.5-0.45-0.05-0.05" fill="#8d0136" fill-rule="evenodd"/>
<path d="m283.45 178.95h0.05v0.05h-0.05 0.05l0.4 3.6 0.65 5.75 0.1 0.7-0.1-0.05-0.1-0.65-0.65-5.75-0.25-2.05 0.25 2.05 0.65 5.75 0.1 0.65 0.1 0.05v0.15l0.1 1.7v1.65l-0.25-0.05 0.25 0.05v-1.65l0.1 1.7h-0.1l-0.2-0.05-0.1-0.05h-0.05v-0.05l-0.85-11.9-0.1-1.55v-0.05m0.35 3.65 0.7 9.9h-0.05 0.05l-0.7-9.9m0.95 9.95v0.05-0.05" fill="#44001a" fill-rule="evenodd"/>
<path d="m264.95 218.8-0.05-0.05q-1.75-1.05-3.3-2.5l-1.15-1.1 0.5 0.4 0.85 0.85 3.1 2.35-3.1-2.35-0.8-0.8 0.5 0.4 0.4 0.3q4.9 3.65 11.45 3.7 7.7 0 13.1-5.1 5.45-5.1 5.45-12.25 0-6.4-4.3-11.1l0.25 0.15q5.4 5.1 5.4 12.3 0 7.15-5.4 12.25-2.9 2.75-6.45 4.05-3.05 1.05-6.1 1.1h-0.6l-2.25-0.15-0.6-0.05-0.2-0.05-0.15-0.05-0.35-0.05h-0.05l-1.75-0.45-0.9-0.2-3.5-1.6m10.55-22q-1.45-0.9-2.45-2.2-1.8-2.3-1.1-4.45l0.1-0.25q0.75-2 3.45-2.7l1.15-0.2-1.45 4.4-0.05 0.1 0.35 5.15v0.15m1.15-9.8-0.95 0.2q-2.7 0.7-3.5 2.7l-0.05 0.25q-0.75 2.15 1.1 4.45l2.25 2.05-2.25-2.05q-1.85-2.3-1.1-4.45l0.05-0.25q0.8-2 3.5-2.7l0.95-0.2" fill="#8c8c8c" fill-rule="evenodd"/>
<path d="m260.95 215.55-0.6-0.65-1.6-2.1-0.05-0.25-0.15-0.4-0.05-0.2q-0.75-2.4-0.75-5.05-0.05-7.2 5.4-12.3 3.85-3.65 8.9-4.7l-0.1 0.25q-0.7 2.15 1.1 4.45 1 1.3 2.45 2.2v0.85h-0.75l-1.7 0.2q-3.05 0.55-5.4 2.7l-0.5 0.45-0.05 0.1q-2.65 2.7-2.65 6.4 0 4.05 3.2 6.95 2.4 2.2 5.55 2.7l2.05 0.2h0.1-0.1l-2.05-0.2q-3.15-0.5-5.55-2.7-3.2-2.9-3.2-6.95 0-3.7 2.65-6.4l0.05-0.1 0.5-0.45q2.35-2.15 5.4-2.7l1.7-0.2h0.3-0.2l-0.1 0.05-1.6 0.15q-3.05 0.55-5.4 2.7l-0.5 0.45-0.05 0.1-0.25 0.2-0.2 0.25q-2.2 2.55-2.2 5.95 0 4.05 3.2 6.95 2 1.85 4.6 2.5l0.95 0.2 2.05 0.2h0.2l2.1-0.2 0.9-0.2 1.2-0.4q1.8-0.75 3.3-2.1 3.15-2.9 3.2-6.95-0.05-2.1-0.85-3.9l-0.25-0.45-0.1-0.2h-0.05v-0.1l-0.6-0.75 0.6 0.75v0.1h0.05l0.1 0.2 0.25 0.45q0.8 1.8 0.85 3.9-0.05 4.05-3.2 6.95-1.5 1.35-3.3 2.1 1.75-0.75 3.25-2.1 3.15-2.9 3.15-6.95v-0.15l-0.55-3.05-0.1-0.15-0.2-0.5h0.05l-0.25-0.5-0.15-0.2-0.05-0.1-0.3-0.45-0.05-0.05-0.1-0.2-0.05-0.05-0.25-0.35-0.05-0.05-0.15-0.2 0.15 0.2 0.05 0.05-0.2-0.25-0.1-0.1h0.05l0.5 0.7 0.05-0.1v-0.05l1.2-4.1v-0.05q1.6-0.85 2.15-2.4 0.6-1.9-0.65-3.85v-0.55l0.8 0.75q5.4 5.1 5.45 12.3-0.05 7.15-5.45 12.25-2.7 2.5-5.9 3.85l-0.65 0.15q3.55-1.3 6.45-4.05 5.4-5.1 5.4-12.25 0-7.2-5.4-12.3l-0.25-0.15q4.3 4.7 4.3 11.1 0 7.15-5.45 12.25-5.4 5.1-13.1 5.1-6.55-0.05-11.45-3.7l-0.4-0.3-0.5-0.4-0.05-0.05m-0.6-0.65-1.5-2.05-0.15-0.3 0.15 0.3 1.5 2.05m14.6-17.25h-0.1 0.1m0.35 23.75h-1.7l-0.6-0.05-1.15-0.15 0.6 0.05 2.25 0.15h0.6m11.85-30q1.4 2.05 0.75 4-0.55 1.6-2.25 2.45 1.7-0.85 2.25-2.45 0.65-1.95-0.75-4m-4.55 8.8v-0.05l0.2 0.2 0.2 0.15 0.85 0.9-0.85-0.85-0.2-0.15-0.2-0.2m-9.4 16.95-0.85-0.2 0.85 0.2m-6.1-16.05-0.35 0.45 0.35-0.45m15.9-0.55-0.3-0.25 0.3 0.25m-15.85 0.45-0.2 0.3 0.2-0.3" fill="#ccc" fill-rule="evenodd"/>
<path d="m258.75 212.8q-2.45-3.9-2.45-8.75 0-7.2 5.4-12.3 2.75-2.6 6.15-3.8 3.2-1.25 7-1.25h1.05l0.85 0.05-0.05 0.05h-0.1l-0.8-0.05h-1.05q-3.8 0-7 1.25-3.25 1.3-5.95 3.85-5.45 5.05-5.4 12.25 0 4.35 2 7.95l0.05 0.1 0.25 0.4-0.25-0.4-0.05-0.1q-2-3.6-2-7.95-0.05-7.2 5.4-12.25 2.7-2.55 5.95-3.85 3.2-1.25 7-1.25h1.05l0.8 0.05h0.1l-0.05 0.2-1.15 0.2q-2.7 0.7-3.45 2.7-5.05 1.05-8.9 4.7-5.45 5.1-5.4 12.3 0 2.65 0.75 5.05l0.05 0.2 0.15 0.4 0.05 0.25" fill="#ececec" fill-rule="evenodd"/>
<path d="m276.25 205.6h-0.05v-0.05l0.1-0.05v0.05-0.05l-0.1 0.05 0.2-0.1v0.05l-0.1 0.05-0.05 0.05m0.05-0.1h0.1-0.1" fill="#d30151" fill-rule="evenodd"/>
<path d="m284.65 189.2 0.1 0.05 0.1 0.1 1.15 0.75 0.1 0.1h0.05l0.15 0.15v0.05l-0.05-0.05 0.25 0.25-0.25-0.25 0.5 0.5v0.05l0.4 0.55v0.1l0.05 1.1-1.5 5.1-1.45 0.5-0.95 0.25h-0.2l1.75-5.85v-0.05l-0.2-3.4m0.1 0.05v1.65-1.65m1.5 1.1-0.15-0.15 0.15 0.15m-1.4-1 0.2 3.25-1.75 5.9 1.75-5.9-0.2-3.25" fill="#474747" fill-rule="evenodd"/>
<path d="m286.8 190.75h0.05l0.3 0.25-0.2-0.15-0.15-0.1 0.15 0.1 0.2 0.15v0.45l-0.4-0.55v-0.05l0.05-0.1m-0.05 0.1 0.05 0.05 0.25 0.3 0.1 0.2-0.1-0.2-0.25-0.3-0.05-0.05m-1.1 6.95v0.05l-0.1 0.05-1.15 0.45-1.1 0.2 1.1-0.2 1.15-0.45 0.1-0.05-1.2 4.1v0.05l-0.05 0.1-0.5-0.7h-0.05l-0.85-0.9-0.2-0.15-0.2-0.2 0.5-1.65h0.2l0.95-0.25 1.45-0.5-0.05 0.05m-2.9 2.5 0.55-1.75v-0.05 0.05l-0.55 1.75" fill="#9c9c9c" fill-rule="evenodd"/>
<path d="m284.45 192.5v0.05l-0.1-0.05 0.1 0.05v-0.05l0.1 0.05-1.9 7.4-0.05 0.1-0.05 0.2-0.05-0.05-0.15 0.5 0.15-0.5 0.05 0.05-0.1 0.45-0.95 3.1 0.85-3.1-0.85 3.1-0.45 1.5 0.65-2.45 0.75-2.8v-0.1l1.9-7.45h0.1m0.1 0.05h-0.1l-1.9 7.4-0.05 0.1-0.15 0.65-0.65 2.15 0.65-2.15 0.15-0.65 0.05-0.1 1.9-7.4h0.1" fill="#5f0125" fill-rule="evenodd"/>
<path d="m287.15 191.55q1.25 1.95 0.65 3.85-0.55 1.55-2.15 2.4l0.05-0.05 1.5-5.1-0.05-1.1m-2.75 10.6-0.05-0.1v-0.05l0.05 0.1-0.05-0.1v0.05l0.05 0.1-0.2-0.25-0.1-0.1v-0.05l-0.1-0.05-0.05-0.05-0.1-0.25 0.1 0.1 0.2 0.25 0.25 0.35 0.05 0.05 0.1 0.2-0.15-0.2m-0.05-0.15h-0.05l-0.1-0.15-0.05-0.1 0.05 0.1 0.1 0.15h0.05m0.45 0.7-0.15-0.2-0.05-0.1 0.2 0.3m-0.6-0.75 0.2 0.45 0.25 0.85-0.45-1.3" fill="#666" fill-rule="evenodd"/>
<path d="m284.4 202.15 0.15 0.2 0.05 0.05 0.05 0.1 0.15 0.2 0.1 0.15 0.05 0.1 0.15 0.2 0.25 0.5h-0.05v-0.05l-0.2-0.25-0.1-0.2-0.15-0.2-0.05-0.1-0.3-0.45-0.05-0.05-0.05-0.2 0.05 0.2 0.05 0.05 0.3 0.45 0.05 0.1 0.15 0.2 0.1 0.2-0.15-0.15 0.25 0.4 0.05 0.05v0.05l0.05 0.05 0.1 0.4 0.1 0.15 0.3 1.8-0.3-1.8-0.1-0.15-0.1-0.4q0.5 1.05 0.5 2.25v0.1q-0.05 2.65-2.75 4.6-2.7 1.9-6.55 1.9-3.9 0-6.65-1.9-1.75-1.25-2.4-2.85l1.45 1.3q2.75 1.9 6.6 1.9t6.6-1.9q1.3-0.95 2-2.05l0.45-0.9 0.3-1.75-0.1-1.1-0.2-0.75-0.05-0.1v-0.1l-0.05-0.05-0.1-0.2-0.15-0.2 0.15 0.2 0.1 0.2 0.05 0.05v0.1l0.05 0.1 0.2 0.75-0.35-0.95-0.2-0.45-0.1-0.2v0.05l0.1 0.1 0.2 0.25" fill="#afafaf" fill-rule="evenodd"/>
<path d="m267.2 201.1-0.6 0.9q-0.55 1.05-0.5 2.25-0.05 2.15 1.65 3.8l1.05 0.85 1.75 1.05q1.4 0.6 3 0.8l1.85 0.1h0.2l1.8-0.1 1.7-0.4q1.55-0.5 2.9-1.45 2.7-1.9 2.75-4.65v-0.05l-0.1-0.95-0.25-0.85 0.35 0.95 0.1 1.1-0.3 1.75-0.45 0.9q-0.7 1.1-2 2.05-2.75 1.9-6.6 1.9t-6.6-1.9l-1.45-1.3q0.65 1.6 2.4 2.85 2.75 1.9 6.65 1.9 3.85 0 6.55-1.9 2.7-1.95 2.75-4.6v-0.1q0-1.2-0.5-2.25l-0.05-0.05v-0.05l-0.05-0.05-0.25-0.4 0.15 0.15 0.2 0.25v0.05l0.2 0.5 0.1 0.15 0.55 3.05v0.15q0 4.05-3.15 6.95-1.5 1.35-3.25 2.1l-1.2 0.4-0.9 0.2-2.1 0.2h-0.2l-2.05-0.2-0.95-0.2q-2.55-0.7-4.5-2.5-3.2-2.9-3.15-6.95 0-3.1 1.8-5.5-0.55 1.05-0.5 2.25-0.05 2 1.45 3.6l1.25 1.05 1.75 1.05q1.4 0.6 3 0.9h0.05l1.8 0.1h0.2l1.8-0.1q2.7-0.4 4.8-1.85l1.9-1.9 0.45-0.8 0.4-1.95-0.1-1 0.1 1-0.4 1.95-0.45 0.8-1.9 1.9q-2.1 1.45-4.8 1.85l-1.8 0.1h-0.2l-1.8-0.1h-0.05q-1.6-0.3-3-0.9l-1.75-1.05-1.25-1.05q-1.5-1.6-1.45-3.6-0.05-1.2 0.5-2.25-1.8 2.4-1.8 5.5-0.05 4.05 3.15 6.95 1.95 1.8 4.5 2.5-2.6-0.65-4.6-2.5-3.2-2.9-3.2-6.95 0-3.4 2.2-5.95l-0.25 0.45 0.45-0.7-0.45 0.7 0.25-0.45 0.2-0.25 0.25-0.2m18 2.5-0.1-0.25 0.1 0.25m-7.9 7.25 1.8-0.5-1.8 0.5m1.25 6.1-1 0.2q3-0.6 5.35-2.7 3.15-2.9 3.15-6.95v-0.15l-0.25-1.25 0.25 1.25v0.15q0 4.05-3.15 6.95-2.35 2.1-5.35 2.7l1-0.2m-10.8-8.9 1.15 0.95 1.55 0.95-1.55-0.95-1.15-0.95m9.8 9.1-2.1 0.2 2.1-0.2" fill="#979797" fill-rule="evenodd"/>
<path d="m280.55 206.25 0.2-0.5-2.3-0.6 1.05-7.05v-0.1l1-6.4 1.35 0.3 0.8 0.2 0.7 0.15 0.95 0.25h-0.05l-0.9-0.25 0.9 0.25h0.1l-1.9 7.45v0.1l-0.75 2.8-0.75 2.45-0.3 1.05 0.3-1.05 0.75-2.45-0.65 2.45-0.35 1.1-0.05-0.05 0.3-1.05 1.4-5.25v-0.1l1.9-7.45-1.9 7.45v0.1l-1.4 5.25-0.3 1.05-0.1-0.1m-4-0.85 0.45-0.2-0.8-12.5 2.65 0.05-0.7 5.25v0.05l-0.05 0.05-1 7.05h0.05l-0.6 0.3v-0.05m0.1 0-0.1 0.05 0.1-0.05m-0.2 0.05v0.05h-0.05 0.05-0.05v-0.05h0.05" fill="#4804a6" fill-rule="evenodd"/>
<path d="m276.75 186.75v-0.05l2.75-8.2h0.15l0.15 0.05h0.05l0.3 0.05h0.2-0.2 0.2l1.05 0.15-1.05-0.15-1 12.7 0.1 0.05-0.1-0.05 1-12.7 1.05 0.15-0.95 12.65-0.05 0.1v0.05l-0.55-0.15-0.4-0.1v0.05h-0.4l0.9-11.15-3.75 11.1h-0.6v0.1h-0.4l1.45-4.4 0.05-0.2 0.2 0.05 2.9-8.2v-0.1 0.1l-2.9 8.2-0.2-0.05 0.05-0.05m2.6 4.6v-0.05 0.05m-2.7-4.35h0.25-0.25m0.25 0-1.3 4.3 1.3-4.3" fill="#1a02bf" fill-rule="evenodd"/>
<path d="m279.85 191.4 0.55 0.15 0.1 0.05-1 6.4v0.1l-1.05 7.05 2.3 0.6-0.2 0.5-0.3-0.4-2.75-0.7h-0.1l1-7.05 0.05-0.1v-0.05l0.9-6.5v-0.1 0.1l-0.9 6.5v0.05l-0.05 0.1-1 7.05h0.05l-0.15 0.05h-0.1l-0.05-0.05h-0.05l1-7.05 0.05-0.05v-0.05l0.7-5.25-2.65-0.05 0.8 12.5-0.45 0.2-0.05-0.05-0.05 0.1h-0.05l-0.2 0.1-0.15 0.05h-0.05l-0.5-7.95v-1l-0.35-5.15 0.05-0.1h0.4v-0.1h0.6l0.65 0.05h2.6v0.05l-0.05 0.05h0.05l0.3-0.05 0.65 0.15-0.65-0.15h0.1m-3.95 5.5-0.4-0.25 0.4 0.25-0.35-5.5 0.35 5.5 0.05 0.75-0.05-0.75m0.95-5.55-1.25-0.05 1.25 0.05m0.55 13.8h-0.05l-0.15 0.05 0.15-0.05h0.05m-1.45-7.5 0.35 7.85-0.35-7.85" fill="#110282" fill-rule="evenodd"/>
<path d="m276.55 205.45 0.75-0.25 2.6 0.7 0.55 0.75 0.05-0.2 0.05 0.1v0.15h-0.05l-0.65 0.25v0.05-0.05l0.65-0.25h0.05v-0.15h0.05l0.05 0.05v0.1h-0.05l-0.65 0.25v0.05h-0.1l-2.55-0.55-0.55-0.5-0.2-0.5 0.2 0.5-0.35-0.3v-0.15l0.15-0.05m4 1.25v-0.05l0.05-0.1-0.05 0.1v0.05m0-0.05v-0.05 0.05" fill="#07013a" fill-rule="evenodd"/>
<path d="m277.45 205.15h0.05l2.75 0.7 0.3 0.4v0.1l-0.05 0.1-0.05 0.2-0.55-0.75-2.6-0.7 0.15-0.05 2.7 0.7 0.3 0.4 0.1 0.1-0.1-0.1-0.3-0.4-2.7-0.7" fill="#4227fc" fill-rule="evenodd"/>
<path d="m283.4 179h0.05l0.1 1.55-0.15-1.55 0.15 1.55 0.85 11.9h-0.1l-3.8-0.9h-0.1v-0.05l0.05-0.1 0.95-12.65 1.95 0.25h0.05m-0.05 0 0.95 13.45-0.95-13.45m-6.5 12.35-0.65-0.05 3.75-11.1-0.9 11.15h-2.2" fill="#7a68fd" fill-rule="evenodd"/>
<path d="m284.85 192.6v0.05l-1.75 5.85-0.5 1.65v0.15l-0.05-0.05 0.05 0.05-0.15 0.4 0.1-0.45 0.05-0.2 0.05-0.1 1.9-7.4 0.2 0.05h0.1m-0.3-0.05 0.2 0.05-0.2-0.05" fill="#100178" fill-rule="evenodd"/>
<path d="m283.5 179h0.05l1.2 10.1 1.1 0.85 0.1 0.1 0.3 0.2 0.25 0.3 0.45 0.3 0.2 0.15 0.8 0.75q5.4 5.1 5.45 12.3-0.05 7.15-5.45 12.25-2.7 2.5-5.9 3.85m5.1-29.15 0.95 0.85q5.4 5.05 5.4 12.25t-5.4 12.3q-2.8 2.55-6.1 3.8l-0.7 0.15q-3.05 1.1-6.1 1.1l-0.25 0.05h-0.2l-1.25-0.05-1.15-0.15-0.8-0.15-0.15-0.05-0.35-0.05h-0.05l-1.75-0.35-1.7-0.6-1.5-0.7-0.75-0.4-0.35-0.2-0.05-0.05-3.1-2.35-0.85-0.85-0.6-0.65-1.6-2.1q-2.45-3.9-2.45-8.75 0-7.2 5.4-12.3 2.75-2.6 6.15-3.8m8.05-1.25 0.85 0.05m3.05-8.2h0.05l0.3-0.05h0.2l3 0.45h0.05v0.05h0.1m-6.8 7.8 0.2 0.05 2.9-8.2v-0.1m0.35 0.05h0.2v-0.1m-0.2 0.1-0.3-0.05m0.3 0.05v-0.1m1.25 0.25-1.05-0.15-1 12.7 0.1 0.05m1.95-12.6 1.95 0.25v-0.05m1.3 10.1 0.1 0.1 0.7 0.55 0.4 0.25m-2.5-10.95h0.05l0.15 1.55 0.25 2.05 0.65 5.75 0.1 0.65 0.1 0.05m-12.6 0.85-0.1 0.25q-0.7 2.15 1.1 4.45 1 1.3 2.45 2.2m0-0.15-2.25-2.05q-1.85-2.3-1.1-4.45l0.05-0.25q0.8-2 3.5-2.7l0.95-0.2-1.15 0.2q-2.7 0.7-3.45 2.7m-13.35 22.65 0.15 0.3 1.5 2.05m19.4-23.5-0.3-0.05m-0.1-0.05v0.15l-0.9 6.5v0.05l-0.05 0.1-1 7.05h0.05m3.05-13.55-0.1-0.05-0.65-0.15m-0.7-0.05h0.3m4.95 1.1-0.95-13.45m-24.65 33.55-0.25-0.4-0.05-0.1q-2-3.6-2-7.95-0.05-7.2 5.4-12.25 2.7-2.55 5.95-3.85 3.2-1.25 7-1.25h1.05l0.8 0.05h0.1m0.2 0.2h-0.25m-1.15 9.65 0.4 0.25m0.95-5.55h2.2m-3.45-0.05 1.25 0.05m-1.5 26h-0.1l-2.05-0.2q-3.15-0.5-5.55-2.7-3.2-2.9-3.2-6.95 0-3.7 2.65-6.4l0.05-0.1 0.5-0.45q2.35-2.15 5.4-2.7l1.7-0.2h0.5m-0.5 0.05 0.1-0.05h0.1m7.7-5.55-0.35-0.1-0.45-0.1m0.8 0.2 0.7 0.15 0.9 0.25h0.1l0.1 0.05v-0.05h-0.05m-0.1 0v-0.05l-2-0.45m-1.8-0.4 1.35 0.3m-5.3 13.5v0.05l0.1-0.05m0.55-0.2 0.15-0.05h0.05m-9.65 2.9q-1.6-1.65-1.6-3.7 0-1.75 1.1-3.15l0.6-0.55q2.35-2.15 5.4-2.7l1.5-0.25m4.35 12.65q1.5-0.55 2.8-1.45 2.7-1.9 2.75-4.65v-0.05l-0.1-0.95-0.25-0.85-0.2-0.5-0.3-0.45-0.9-0.9-0.2-0.15-0.05 0.05-1.7 5.4-0.2 0.8-0.05 0.05v0.05l-0.65 0.35-2.8-0.65h-0.05l-0.2-0.05-0.85-0.8 0.05-0.05m8.55-16.3v-0.1m1.35 1.05-0.15-0.15-0.5-0.35-0.7-0.45m1.55 1.15 0.2 0.15 0.2 0.2 0.05 0.1m-13.15 30.55-0.6-0.05-0.55-0.05-0.6-0.1 1.15 0.15m-3.65-0.75-0.9-0.2m16.3-29.5v-1.65m2.4 2.15-0.1-0.2-0.25-0.3-0.05-0.05m-0.45-0.45-0.05-0.05 0.25 0.25 0.2 0.15m0.45 0.8q1.25 1.95 0.65 3.85-0.55 1.55-2.15 2.4m0 0.05q1.7-0.85 2.25-2.45 0.65-1.95-0.75-4m-1.05-1.2 0.15 0.15m-4.55 12.5 0.65-2.15 0.15-0.65 0.05-0.1 1.9-7.4h0.1m-0.1-0.05h0.05l-0.7-9.9m0.5 9.85 0.1 0.05m0.1 0 0.25 0.05v-1.65m0 1.7-0.2-0.05m-2 7.7 0.15 0.15v-0.1l0.3 0.25 0.85 0.85m0.9-8.8v-0.05m-1.45 6 1.1-0.2 1.15-0.45 0.1-0.05m-1.25 4.25 0.6 0.75v0.1h0.05l0.1 0.2 0.25 0.45q0.8 1.8 0.85 3.9-0.05 4.05-3.2 6.95-1.5 1.35-3.3 2.1l-1.2 0.4m-3.1 0.4h-0.1m-3-0.4 0.85 0.2m11.2-15.05-0.05-0.1v0.05l0.05 0.1 0.05 0.2 0.05 0.05 0.3 0.45 0.05 0.1 0.15 0.2 0.1 0.2 0.1 0.25m-1.05-1.85 0.05 0.1 0.1 0.15h0.05m-0.4-0.5-0.1-0.1m0.1 0.1 0.15 0.2 0.05 0.05m0.05 0.2 0.15 0.2 0.1 0.2 0.05 0.05v0.1l0.05 0.1 0.2 0.75 0.1 1-0.4 1.95-0.45 0.8-1.9 1.9q-2.1 1.45-4.8 1.85l-1.8 0.1h-0.2l-1.8-0.1h-0.05q-1.6-0.3-3-0.9l-1.75-1.05-1.25-1.05q-1.5-1.6-1.45-3.6-0.05-1.2 0.5-2.25-1.8 2.4-1.8 5.5-0.05 4.05 3.15 6.95 1.95 1.8 4.5 2.5m13.45-10.85-0.3-1.8-0.1-0.15-0.1-0.4-0.05-0.05v-0.05l-0.05-0.05m-18.45-2.05 0.35-0.45m16.9 0.65 0.2 0.2m-5.1 8.4-1.8 0.5m8.5-4.75 0.25 1.25v0.15q0 4.05-3.15 6.95-2.35 2.1-5.35 2.7l1-0.2m2.1-10.6 0.3-1.05 1.4-5.25v-0.1l1.9-7.45m-1.9 8.2 0.15-0.5 0.05 0.05m-1.05 3.55-0.55 2.05-0.2 0.75v0.05m1.6-5.95-0.85 3.1m-0.85 2.75 0.05 0.05h0.05l-0.05 0.1v-0.1m-3.5-1.4-0.55 0.2m-0.35 0.15v-0.05l-0.1 0.05m0.25-0.1 0.05-0.1 0.05 0.05m-0.1 0.1v-0.05m-0.05 0.05h0.05l0.1-0.05 0.2 0.5 0.05 0.15 0.35 0.3 0.05 0.05 2.65 0.55v-0.05l0.65-0.25h0.05v-0.15l0.05-0.15-0.15-0.15-0.3-0.4-2.7-0.7m-1.05 0.35h0.05m-0.15 0.05v0.1l0.1-0.15h-0.1l-0.35-7.85m4.65 8.9-0.05 0.1v0.05m0.1-0.35v0.2m0-0.2-0.05 0.05 0.05 0.05-0.05 0.1m0.05-0.2 0.3-1.05 0.75-2.45m-1.15 3.75v0.05m-13.6-5.35-0.45 0.7 0.25-0.45m0.2-0.25 0.2-0.3m3.3 8.95-1.55-0.95-1.15-0.95m7.7 9.3 2.1-0.2" fill="none" stroke="#000" stroke-linecap="round" stroke-linejoin="round" stroke-opacity=".6" stroke-width=".1"/>
<path d="m275.6 191.3 1.3-4.3m-1 9.9-0.35-5.5m0.4 6.25-0.05-0.75m7.4 1.6 1.75-5.9-0.2-3.25m-1.55 9.15v0.05l-0.55 1.75" fill="none" stroke="#000" stroke-linecap="round" stroke-linejoin="round" stroke-opacity=".6" stroke-width=".1"/>
</g>
</defs>
</svg>
