<?xml version="1.0" encoding="UTF-8" standalone="no"?>
<!DOCTYPE svg PUBLIC "-//W3C//DTD SVG 1.1//EN" "http://www.w3.org/Graphics/SVG/1.1/DTD/svg11.dtd">
<svg width="100%" height="100%" viewBox="0 0 181 193" version="1.1" xmlns="http://www.w3.org/2000/svg" xmlns:xlink="http://www.w3.org/1999/xlink" xml:space="preserve" xmlns:serif="http://www.serif.com/" style="fill-rule:evenodd;clip-rule:evenodd;stroke-miterlimit:3;">
    <g transform="matrix(1,0,0,1,-185.143,-103.605)">
        <g transform="matrix(4.39806,0,0,4.39806,-936.009,-679.781)">
            <g id="shape0">
                <path d="M263.85,184.3L265.15,183.9C265.817,185 265.7,185.95 264.8,186.75C264.233,187.517 263.433,187.667 262.4,187.2L258.6,185.2L255.6,182.95C254.833,181.95 254.8,180.967 255.5,180L255.5,181.35L255.95,182.25L258.3,183.75L261.85,185.65C262.383,185.083 263.05,184.633 263.85,184.3M259.1,180.85L257.55,179.95C257.817,179.817 257.9,179.283 257.8,178.35L257.8,178.2L257.85,178.2L258.35,179.6C258.383,180.033 258.633,180.45 259.1,180.85" style="fill:#603f0f;"/>
                <path d="M265.15,183.9L263.85,184.3C263.05,184.633 262.383,185.083 261.85,185.65L258.3,183.75L255.95,182.25L255.5,181.35L255.5,180L256.8,178.6L257.15,178.25L257.8,178.35L257.15,178.25L257.8,178.2L257.8,178.35C257.9,179.283 257.817,179.817 257.55,179.95L259.1,180.85L259.8,181.4C260.9,182.133 262.583,182.85 264.85,183.55L265.15,183.9M262.2,183.6L263.85,184.3L262.2,183.6M259.2,182.3L256.35,180.6L259.2,182.3" style="fill:#946a1d;"/>
                <path d="M265.15,183.9L264.85,183.55C262.583,182.85 260.9,182.133 259.8,181.4M257.8,178.35L257.15,178.25L256.8,178.6L255.5,180C254.8,180.967 254.833,181.95 255.6,182.95L258.6,185.2L262.4,187.2C263.433,187.667 264.233,187.517 264.8,186.75C265.7,185.95 265.817,185 265.15,183.9M257.8,178.2L257.85,178.2L258.35,179.6C258.383,180.033 258.633,180.45 259.1,180.85M256.35,180.6L259.2,182.3M257.15,178.25L257.8,178.2" style="fill:none;fill-rule:nonzero;stroke:#382510;stroke-opacity:0.5;stroke-width:0.05px;"/>
                <path d="M259.8,181.4L259.1,180.85M263.85,184.3L262.2,183.6" style="fill:none;fill-rule:nonzero;stroke:#382510;stroke-opacity:0.5;stroke-width:0.05px;stroke-linecap:round;stroke-linejoin:round;stroke-miterlimit:4;"/>
                <path d="M283.15,183.25L286.25,182.25L287.3,183.65L286.65,184.15L284.25,184.2L284.2,184.15L284,184L283.15,183.25M265.8,181.6L266.85,184.55L269.4,186.15L264.65,185.7L264.6,185.65L263.05,183.45L263.1,183.05L265.8,181.6" style="fill:#946a1d;"/>
                <path d="M287.3,183.65L287.4,183.75L288.9,194.5L288.8,195L286.7,203.95L284.25,205L285.75,199.2L285.85,198.8L286.8,194.85L286.65,193.55L286.55,192.8L286.45,192.35L285.7,187.05C285.533,185.917 285.85,184.95 286.65,184.15L287.3,183.65M263.15,181.15L265.5,180.15L265.8,181.6L263.1,183.05L263.15,181.15M274.85,188.9C274.983,189.167 275.417,189.1 276.15,188.7L275.3,189.55L275.25,189.55L276,198.15L273.9,189.8L274.85,188.9M275.55,205.8L275.55,203.9L276.75,208.25L275.55,205.8" style="fill:#855714;"/>
                <path d="M283.1,185.45L283.05,183.25L283.15,183.25L284,184L284.2,184.15L284.2,184.2L284.25,184.2C284.717,184.767 285.2,185.717 285.7,187.05L286.45,192.35C285.55,192.65 284.433,190.583 283.1,186.15L283.1,185.45M262.15,202.75L261.35,201.3L259.3,197.15L259.2,193.7C260,195.6 260.817,198.017 261.65,200.95L262.15,202.75M270,209.05L270,211.35L270.5,214.35L270,213.65L269.2,212.35L270,209.05" style="fill:#927021;"/>
                <path d="M272.85,217.95L270.95,217.35L270.85,217.3L268.75,214.15L269.2,212.35L270,213.65L270.5,214.35C271.5,215.683 272.55,216.633 273.65,217.2L272.85,217.95M265.75,209.2L263.45,205.2L262.15,202.75L261.65,200.95C260.817,198.017 260,195.6 259.2,193.7L259.15,192.4L259.05,189.1L259.6,187.2C260.267,192.733 261.083,197.133 262.05,200.4C262.517,202.1 263.033,203.583 263.6,204.85C264.267,206.517 264.983,207.767 265.75,208.6L265.75,209.2M284.25,184.2L286.65,184.15C285.85,184.95 285.533,185.917 285.7,187.05C285.2,185.717 284.717,184.767 284.25,184.2" style="fill:#f1ca6b;"/>
                <path d="M285.85,198.8L285.75,199.2L284.25,205L278.55,211.9L273.65,217.2C272.55,216.633 271.5,215.683 270.5,214.35L270,211.35L270,208.75L270.95,203.8L270.95,201.9L269.65,198.1L271.35,189.45L272.45,190.05L273.9,189.8L276,198.15L275.25,189.55L275.3,189.55L277.25,189.2L280.35,188.6C282.617,188.5 284.2,189.9 285.1,192.8C285.533,194.367 285.783,196.367 285.85,198.8M275.55,205.8L276.75,208.25L275.55,203.9L275.55,205.8" style="fill:#916f22;"/>
                <path d="M269.4,186.15L272.55,188.1L269.5,188.45L264.75,185.9L264.65,185.7L269.4,186.15M278.3,188.25L279.05,188.1L282.5,187.4L281.6,188.35L280.35,188.6L277.25,189.2C277.15,189 277.5,188.683 278.3,188.25" style="fill:#a57e27;"/>
                <path d="M268.75,214.15L265.75,209.2L265.75,208.6C264.983,207.767 264.267,206.517 263.6,204.85C263.033,203.583 262.517,202.1 262.05,200.4C261.083,197.133 260.267,192.733 259.6,187.2L260.75,182.6L263.15,181.15L263.1,183.05L263.05,183.45L264.6,185.65L264.65,185.7L264.75,185.9L269.5,188.45L271.35,189.45L269.65,198.1L270.95,201.9L270.95,203.8L270,208.75L270,209.05L269.2,212.35L268.75,214.15" style="fill:#977424;"/>
                <path d="M286.7,203.95L280.45,211.1C277.983,213.833 275.983,215.867 274.45,217.2L272.85,217.95L273.65,217.2L278.55,211.9L284.25,205L286.7,203.95" style="fill:#603f0f;"/>
                <path d="M272.55,188.1L274.1,189.05L274.85,188.9L273.9,189.8L272.45,190.05L271.35,189.45L269.5,188.45L272.55,188.1M276.15,188.7L278.3,188.25C277.5,188.683 277.15,189 277.25,189.2L275.3,189.55L276.15,188.7M282.5,187.4L283.1,186.8L283.1,186.15C284.433,190.583 285.55,192.65 286.45,192.35L286.55,192.8L286.65,193.55L286.8,194.85L285.85,198.8C285.783,196.367 285.533,194.367 285.1,192.8C284.2,189.9 282.617,188.5 280.35,188.6L281.6,188.35L282.5,187.4M284.2,184.15L284.25,184.2L284.2,184.2L284.2,184.15" style="fill:#b3892b;"/>
                <path d="M283.1,185.45L283.05,183.25L283.15,183.25L286.25,182.25L287.3,183.65L287.4,183.75L288.9,194.5L288.8,195L286.7,203.95L280.45,211.1C277.983,213.833 275.983,215.867 274.45,217.2L272.85,217.95L270.95,217.35L270.85,217.3L268.75,214.15L265.75,209.2L263.45,205.2L262.15,202.75L261.35,201.3L259.3,197.15L259.2,193.7M259.15,192.4L259.05,189.1L259.6,187.2L260.75,182.6L263.15,181.15L265.5,180.15L265.8,181.6L266.85,184.55L269.4,186.15L272.55,188.1L274.1,189.05L274.85,188.9C274.983,189.167 275.417,189.1 276.15,188.7L278.3,188.25M279.05,188.1L282.5,187.4L283.1,186.8L283.1,186.15M263.1,183.05L265.8,181.6" style="fill:none;fill-rule:nonzero;stroke:#382510;stroke-opacity:0.5;stroke-width:0.05px;stroke-linecap:round;stroke-linejoin:round;stroke-miterlimit:4;"/>
                <path d="M271.35,189.45L269.65,198.1L270.95,201.9L270.95,203.8L270,208.75" style="fill:none;fill-rule:nonzero;stroke:#000;stroke-opacity:0.15;stroke-width:0.05px;stroke-linecap:round;stroke-linejoin:round;stroke-miterlimit:4;"/>
                <path d="M262.05,200.1L264.6,198.9L266.3,203.65L264.45,206.55L264.25,206.5L261.5,201.75L262.05,200.1M268.4,192.3L268.7,195.05L267.55,196.6L265.5,194.8L265.75,194.3L268.4,192.3" style="fill:#855714;"/>
                <path d="M280.45,191.8L278.7,193.6L278.1,191.8L278.9,190.55L280.45,191.8" style="fill:#ff9e0a;fill-opacity:0.4;"/>
                <path d="M284.5,189.35L285.3,194.45L282.85,204.7L273,215.35L271.75,214.85L261.65,196.8L261.15,190.95L261.55,187.65L262,186.4L262.8,186.4L263.35,187.45L263.95,187.8L264.65,189.2L272.15,193.5L282.8,190.7L284.5,189.35" style="fill:#780101;fill-opacity:0.2;"/>
                <path d="M273,215.35L271.3,215.35L260.55,196.8L260.25,189.25L261.4,185.2L261.95,184.85L262.8,186.4L262,186.4L261.55,187.65L261.15,190.95L261.65,196.8L271.75,214.85L273,215.35M263.95,187.8L271.6,192.45L282.3,189.9L283.75,187.45L284.3,188L284.5,189.35L282.8,190.7L272.15,193.5L264.65,189.2L263.95,187.8" style="fill:#554e31;"/>
                <path d="M272.7,217.65L273.15,216L274.65,215.5L273.9,216.2L273.5,218.1L272.7,217.65" style="fill:#382510;fill-opacity:0.8;"/>
                <path d="M278.2,204.7L276,215.25L276,211.2L278.2,204.7" style="fill:#382510;fill-opacity:0.8;"/>
                <path d="M283.5,192.8L280,207.6L280.5,202.1L283.5,192.8" style="fill:#382510;fill-opacity:0.5;"/>
                <path d="M285.85,186.8L287,186.8L287.85,187.35L288.8,193.4L286,189.65L285.85,188.45L285.85,186.8" style="fill:#382510;fill-opacity:0.3;"/>
                <path d="M285.75,189.2C285.717,188.2 285.433,186.933 284.9,185.4C285.733,185.467 286.583,185.1 287.45,184.3L287.45,185.05L286.7,185.3C285.867,186.533 285.683,187.633 286.15,188.6L286.15,188.7L286.8,189.65L287.65,189.85L288.5,189.85L288.5,190.1L288.1,190.1L287.65,190.2L287.45,192.85L286.95,190.25C286.15,190.183 285.75,189.833 285.75,189.2M285.25,190.75L285.65,190.35L286.6,191L286.55,191.3L285.25,191.45L285.25,190.75" style="fill:#bcb35d;fill-opacity:0.3;"/>
                <path d="M287.85,185.3L288.25,185.3C289.317,185.267 290.717,184.817 292.45,183.95L292.45,183.55L292.8,182.75C292.933,182.45 293.083,182.267 293.25,182.2L293.5,182.15C295.1,183.95 295.167,185.4 293.7,186.5L293.1,186.95L292.5,187.25L292.35,187.3L287.45,188.5L292.35,187.3L292.5,187.25L292.35,187.3L288.25,188.65L287.75,188.7L287.45,188.5L287.35,188.35C287.017,188.05 286.817,187.683 286.75,187.25L286.7,186.85L286.8,186.1L286.9,185.95L286.95,185.85L287.85,185.3M293.15,183.05C293.017,183.05 292.9,183.1 292.8,183.2C292.7,183.3 292.65,183.433 292.65,183.6L292.8,183.95L293.15,184.1L293.5,183.95L293.65,183.6L293.5,183.2L293.15,183.05M292.1,185.05C290.133,185.117 288.733,185.5 287.9,186.2L287.7,186.35C287.567,186.617 287.583,186.883 287.75,187.15L289.75,186.85L291.6,186.15L292.6,185.65C293.167,185.25 293.1,185.05 292.4,185.05L292.1,185.05L292.4,184.35L292.1,185.05M292.45,183.95L292.4,184.35L292.45,183.95M288.25,185.3L286.95,185.85L288.25,185.3M286.7,186.85L287.25,187.1L286.7,186.85M287.25,187.1L286.75,187.25L287.25,187.1" style="fill:#946a1d;"/>
                <path d="M294.6,187.6L293.95,188.05L290.65,189.25L287.8,189.85L286.75,189.65L286.15,188.7L286.1,188.6C285.633,187.633 285.883,186.533 286.85,185.3L287.85,185.3L286.95,185.85L286.9,185.95L286.8,186.1L286.7,186.85L286.75,187.25C286.817,187.683 287.017,188.05 287.35,188.35L287.45,188.5L287.75,188.7L288.25,188.65L292.35,187.3L294.6,187.6" style="fill:#603f0f;"/>
                <path d="M293.15,183.05L293.5,183.2L293.65,183.6L293.5,183.95L293.15,184.1L292.8,183.95L292.65,183.6C292.65,183.433 292.7,183.3 292.8,183.2C292.9,183.1 293.017,183.05 293.15,183.05M292.1,185.05L292.4,185.05C293.1,185.05 293.167,185.25 292.6,185.65L291.6,186.15L289.75,186.85L287.75,187.15C287.583,186.883 287.567,186.617 287.7,186.35L287.9,186.2C288.733,185.5 290.133,185.117 292.1,185.05" style="fill:#977424;"/>
                <path d="M293.5,182.15C294.3,182.317 294.9,182.65 295.3,183.15C295.833,184.05 296.017,184.883 295.85,185.65L295.75,186.05L294.6,187.6L292.35,187.3L292.5,187.25L293.1,186.95L293.7,186.5C295.167,185.4 295.1,183.95 293.5,182.15" style="fill:#855714;"/>
                <path d="M293.5,182.15C294.3,182.317 294.9,182.65 295.3,183.15C295.833,184.05 296.017,184.883 295.85,185.65L295.75,186.05L294.6,187.6L293.95,188.05L290.65,189.25L287.8,189.85L286.75,189.65L286.15,188.7M286.1,188.6C285.633,187.633 285.883,186.533 286.85,185.3M292.45,183.95L292.45,183.55L292.8,182.75C292.933,182.45 293.083,182.267 293.25,182.2L293.5,182.15M292.4,184.35L292.45,183.95M287.25,187.1L286.7,186.85" style="fill:none;fill-rule:nonzero;stroke:#382510;stroke-opacity:0.5;stroke-width:0.05px;"/>
                <path d="M286.85,185.3L288.25,185.3C289.317,185.267 290.717,184.817 292.45,183.95M286.9,185.95L286.95,185.85L288.25,185.3M292.1,185.05L292.4,184.35M287.45,188.5L292.35,187.3L292.5,187.25M287.45,188.5L287.35,188.35M286.75,187.25L287.25,187.1" style="fill:none;fill-rule:nonzero;stroke:#382510;stroke-opacity:0.5;stroke-width:0.05px;stroke-linecap:round;stroke-linejoin:round;stroke-miterlimit:4;"/>
                <path d="M271.15,210.7L271.25,210.7L272.05,210.9L272.3,211.05L272.6,211.3L273.15,211.95L273.85,213.6L273.1,211.95L272.5,211.3L272.15,211.05L271.9,210.9L271.15,210.7M273.85,216.15L273.15,217.8C272.617,218.6 271.983,219 271.25,219L271.15,219C271.883,218.967 272.533,218.567 273.1,217.8L273.85,216.15" style="fill:#382510;"/>
                <path d="M271.25,207.75L271.25,207.8L272.35,208.05L272.8,208.3L273.45,208.7L274.5,209.85C275.567,211.217 276.1,212.883 276.1,214.85C276.1,216.783 275.567,218.45 274.5,219.85C273.6,221.05 272.517,221.733 271.25,221.9L271,221.9C269.633,221.833 268.45,221.15 267.45,219.85C266.383,218.45 265.85,216.783 265.85,214.85C265.85,213.717 266.033,212.7 266.4,211.8L266.45,211.7C266.683,211.033 267.017,210.417 267.45,209.85L268.4,208.8C268.833,208.467 269.283,208.217 269.75,208.05L270,207.95L271,207.8L271.25,207.75M273.85,213.6L273.15,211.95L272.6,211.3L272.3,211.05L272.05,210.9L271.25,210.7L271,210.7L270.55,210.75L270.3,210.85L270.15,210.9L269.45,211.35L268.9,211.95L268.35,213L268.3,213.1C268.133,213.633 268.05,214.217 268.05,214.85C268.05,215.983 268.333,216.967 268.9,217.8C269.5,218.6 270.2,219 271,219L271.25,219C271.983,219 272.617,218.6 273.15,217.8L273.85,216.15L273.95,214.95L273.95,214.75L273.85,213.6" style="fill:#2e393d;"/>
                <path d="M271.25,221.9C272.517,221.733 273.6,221.05 274.5,219.85C275.567,218.45 276.1,216.783 276.1,214.85C276.1,212.883 275.567,211.217 274.5,209.85L273.45,208.7L272.8,208.3L272.35,208.05L271.25,207.8L271.25,207.75L272.9,208.05L273.35,208.3L274,208.7L275.05,209.85C276.117,211.217 276.65,212.883 276.65,214.85C276.65,216.783 276.117,218.45 275.05,219.85C274.017,221.217 272.75,221.9 271.25,221.9M271,219C270.2,219 269.5,218.6 268.9,217.8C268.333,216.967 268.05,215.983 268.05,214.85C268.05,214.217 268.133,213.633 268.3,213.1L268.35,213L268.9,211.95L269.45,211.35L270.15,210.9L270.3,210.85L270.55,210.75L270.6,210.85L270.45,210.9L269.8,211.35L269.25,211.95L268.75,213L268.75,213.1C268.583,213.633 268.5,214.217 268.5,214.85C268.5,215.983 268.75,216.967 269.25,217.8C269.75,218.5 270.333,218.9 271,219" style="fill:#3c4a4f;"/>
                <path d="M271.25,221.9C272.75,221.9 274.017,221.217 275.05,219.85C276.117,218.45 276.65,216.783 276.65,214.85C276.65,212.883 276.117,211.217 275.05,209.85L274,208.7L273.35,208.3L272.9,208.05L271.25,207.75L271,207.8L270,207.95L269.75,208.05C269.283,208.217 268.833,208.467 268.4,208.8L267.45,209.85C267.017,210.417 266.683,211.033 266.45,211.7L266.4,211.8C266.033,212.7 265.85,213.717 265.85,214.85C265.85,216.783 266.383,218.45 267.45,219.85C268.45,221.15 269.633,221.833 271,221.9L271.25,221.9M271.15,210.7L271.25,210.7L272.05,210.9L272.3,211.05L272.6,211.3L273.15,211.95L273.85,213.6L273.95,214.75L273.95,214.95L273.85,216.15L273.15,217.8C272.617,218.6 271.983,219 271.25,219L271,219C270.333,218.9 269.75,218.5 269.25,217.8C268.75,216.967 268.5,215.983 268.5,214.85C268.5,214.217 268.583,213.633 268.75,213.1L268.75,213L269.25,211.95L269.8,211.35L270.45,210.9L270.6,210.85L271,210.75L271.15,210.7" style="fill:none;fill-rule:nonzero;stroke:#000;stroke-opacity:0.3;stroke-width:0.05px;"/>
                <path d="M268.95,219L269.95,220.25C270.15,220.683 270.15,220.967 269.95,221.1C269.75,221.267 269.433,221.2 269,220.9L267.7,219.65L266.85,218.15C266.683,217.65 266.7,217.317 266.9,217.15C267.1,217.017 267.367,217.2 267.7,217.7L268.95,219" style="fill:#78929c;fill-opacity:0.7;"/>
                <path d="M272.05,210.4C271.917,210.067 271.917,209.85 272.05,209.75L272.75,209.9L273.7,210.8L274.3,211.95C274.433,212.283 274.433,212.517 274.3,212.65L273.7,212.25L272.75,211.3C272.417,211 272.183,210.7 272.05,210.4" style="fill:#78929c;fill-opacity:0.5;"/>
                <path d="M273.65,208.35L272.95,208.05L271.95,208.4L271.4,209.25L271.65,210.7L272.15,211.2L271.8,211.7L271.05,210.5L270.9,208.45L271.05,208.15L271.55,207.05L273,206.45L273.85,206.05L274.15,207.8L273.85,208.5L273.65,208.35M268.7,207.55L267.9,206.25L268.65,205.85L268.9,206.65L268.75,207.45L268.7,207.55" style="fill:#603f0f;"/>
                <path d="M269.6,205.55L270.9,205.4L273.85,206.05L273,206.45C269.7,206.383 268.567,206.083 269.6,205.55M268.95,210.45L268.55,208.5L268.7,207.55L268.75,207.45C270.083,206.55 270.85,206.783 271.05,208.15L270.9,208.45L271.05,210.5L269.6,210.1L268.95,210.45" style="fill:#977424;"/>
                <path d="M268.65,205.85L269,205.65L269.6,205.55C268.567,206.083 269.7,206.383 273,206.45L271.55,207.05L271.05,208.15C270.85,206.783 270.083,206.55 268.75,207.45L268.9,206.65L268.65,205.85" style="fill:#f1ca6b;"/>
                <path d="M270.35,211.75L269.75,211.45L268.95,210.45L269.6,210.1L271.05,210.5L271.8,211.7L270.35,211.75" style="fill:#826420;"/>
                <path d="M273.85,206.05L274.95,207.8L274.95,209.6L273.65,208.35L273.85,208.5L274.15,207.8L273.85,206.05M271.65,210.7L272.7,211.2L273.5,212.55L271.8,212.8L270.35,211.75L271.8,211.7L272.15,211.2L271.65,210.7" style="fill:#382510;fill-opacity:0.3;"/>
                <path d="M268.65,205.85L269,205.65L269.6,205.55L270.9,205.4L273.85,206.05L274.15,207.8L273.85,208.5L273.65,208.35L272.95,208.05L271.95,208.4L271.4,209.25L271.65,210.7L272.15,211.2L271.8,211.7L270.35,211.75L269.75,211.45L268.95,210.45L268.55,208.5L268.7,207.55L267.9,206.25L268.65,205.85L268.9,206.65L268.75,207.45L268.7,207.55" style="fill:none;fill-rule:nonzero;stroke:#382510;stroke-opacity:0.5;stroke-width:0.05px;stroke-linecap:round;stroke-linejoin:round;stroke-miterlimit:4;"/>
            </g>
            <g id="sprite0" transform="matrix(0.0001,-0.5931,0.5931,0.0001,270.15,195.9)">
                <g id="sprite1" transform="matrix(0.871,0,0,0.6319,0.7498,1.34983)">
                    <g id="shape1">
                        <path d="M3.7,0C3.7,1.033 3.333,1.9 2.6,2.6C1.9,3.333 1.033,3.7 0,3.7C-1.033,3.7 -1.917,3.333 -2.65,2.6C-3.35,1.9 -3.7,1.033 -3.7,0C-3.7,-1.033 -3.35,-1.917 -2.65,-2.65C-1.917,-3.35 -1.033,-3.7 0,-3.7C1.033,-3.7 1.9,-3.35 2.6,-2.65C3.333,-1.917 3.7,-1.033 3.7,0" style="fill:url(#_Radial1);"/>
                    </g>
                </g>
                <g id="sprite11" serif:id="sprite1" transform="matrix(0.871,0,0,0.6319,0.5498,1.34983)">
                    <g id="shape11" serif:id="shape1">
                        <path d="M3.7,0C3.7,1.033 3.333,1.9 2.6,2.6C1.9,3.333 1.033,3.7 0,3.7C-1.033,3.7 -1.917,3.333 -2.65,2.6C-3.35,1.9 -3.7,1.033 -3.7,0C-3.7,-1.033 -3.35,-1.917 -2.65,-2.65C-1.917,-3.35 -1.033,-3.7 0,-3.7C1.033,-3.7 1.9,-3.35 2.6,-2.65C3.333,-1.917 3.7,-1.033 3.7,0" style="fill:url(#_Radial2);"/>
                    </g>
                </g>
                <g id="sprite12" serif:id="sprite1" transform="matrix(0.871,0,0,0.6319,0.8998,1.94983)">
                    <g id="shape12" serif:id="shape1">
                        <path d="M3.7,0C3.7,1.033 3.333,1.9 2.6,2.6C1.9,3.333 1.033,3.7 0,3.7C-1.033,3.7 -1.917,3.333 -2.65,2.6C-3.35,1.9 -3.7,1.033 -3.7,0C-3.7,-1.033 -3.35,-1.917 -2.65,-2.65C-1.917,-3.35 -1.033,-3.7 0,-3.7C1.033,-3.7 1.9,-3.35 2.6,-2.65C3.333,-1.917 3.7,-1.033 3.7,0" style="fill:url(#_Radial3);"/>
                    </g>
                </g>
                <g id="sprite13" serif:id="sprite1" transform="matrix(0.871,0,0,0.6319,1.6498,0.84983)">
                    <g id="shape13" serif:id="shape1">
                        <path d="M3.7,0C3.7,1.033 3.333,1.9 2.6,2.6C1.9,3.333 1.033,3.7 0,3.7C-1.033,3.7 -1.917,3.333 -2.65,2.6C-3.35,1.9 -3.7,1.033 -3.7,0C-3.7,-1.033 -3.35,-1.917 -2.65,-2.65C-1.917,-3.35 -1.033,-3.7 0,-3.7C1.033,-3.7 1.9,-3.35 2.6,-2.65C3.333,-1.917 3.7,-1.033 3.7,0" style="fill:url(#_Radial4);"/>
                    </g>
                </g>
                <g id="shape2">
                    <path d="M-0.05,-1.2L1.75,-1.1C2.283,-0.833 2.617,-0.45 2.75,0.05C2.883,0.55 2.783,1.033 2.45,1.5L0.95,2.5L-0.8,2.4C-1.367,2.167 -1.717,1.8 -1.85,1.3C-1.983,0.767 -1.867,0.267 -1.5,-0.2C-1.167,-0.7 -0.683,-1.033 -0.05,-1.2" style="fill:#472d05;"/>
                    <path d="M-0.05,-1.2L1.75,-1.1C2.283,-0.833 2.617,-0.45 2.75,0.05C2.883,0.55 2.783,1.033 2.45,1.5L0.95,2.5L-0.8,2.4C-1.367,2.167 -1.717,1.8 -1.85,1.3C-1.983,0.767 -1.867,0.267 -1.5,-0.2C-1.167,-0.7 -0.683,-1.033 -0.05,-1.2Z" style="fill:none;fill-rule:nonzero;stroke:#5f3c07;stroke-opacity:0.4;stroke-width:0.25px;stroke-linecap:round;stroke-linejoin:round;stroke-miterlimit:4;"/>
                    <path d="M1.45,-0.1C1.55,0.2 1.517,0.5 1.35,0.8L0.5,1.45L-0.55,1.3C-0.883,1.133 -1.083,0.9 -1.15,0.6C-1.25,0.233 -1.2,-0.1 -1,-0.4L-0.15,-0.95L0.9,-0.85L1.45,-0.1" style="fill:#86540b;"/>
                    <path d="M1.85,-0.55L1.95,-0.15L1.55,0L1,-0.15L0.6,-0.55L0.55,-0.95L0.9,-1.1L1.45,-0.9L1.85,-0.55" style="fill:#f3bb69;"/>
                </g>
            </g>
            <g id="sprite01" serif:id="sprite0" transform="matrix(0.0001,-0.5931,0.5931,0.0001,270.1,203.1)">
                <g id="sprite14" serif:id="sprite1" transform="matrix(0.871,0,0,0.6319,0.7498,1.34983)">
                    <g id="shape14" serif:id="shape1">
                        <path d="M3.7,0C3.7,1.033 3.333,1.9 2.6,2.6C1.9,3.333 1.033,3.7 0,3.7C-1.033,3.7 -1.917,3.333 -2.65,2.6C-3.35,1.9 -3.7,1.033 -3.7,0C-3.7,-1.033 -3.35,-1.917 -2.65,-2.65C-1.917,-3.35 -1.033,-3.7 0,-3.7C1.033,-3.7 1.9,-3.35 2.6,-2.65C3.333,-1.917 3.7,-1.033 3.7,0" style="fill:url(#_Radial5);"/>
                    </g>
                </g>
                <g id="sprite15" serif:id="sprite1" transform="matrix(0.871,0,0,0.6319,0.5498,1.34983)">
                    <g id="shape15" serif:id="shape1">
                        <path d="M3.7,0C3.7,1.033 3.333,1.9 2.6,2.6C1.9,3.333 1.033,3.7 0,3.7C-1.033,3.7 -1.917,3.333 -2.65,2.6C-3.35,1.9 -3.7,1.033 -3.7,0C-3.7,-1.033 -3.35,-1.917 -2.65,-2.65C-1.917,-3.35 -1.033,-3.7 0,-3.7C1.033,-3.7 1.9,-3.35 2.6,-2.65C3.333,-1.917 3.7,-1.033 3.7,0" style="fill:url(#_Radial6);"/>
                    </g>
                </g>
                <g id="sprite16" serif:id="sprite1" transform="matrix(0.871,0,0,0.6319,0.8998,1.94983)">
                    <g id="shape16" serif:id="shape1">
                        <path d="M3.7,0C3.7,1.033 3.333,1.9 2.6,2.6C1.9,3.333 1.033,3.7 0,3.7C-1.033,3.7 -1.917,3.333 -2.65,2.6C-3.35,1.9 -3.7,1.033 -3.7,0C-3.7,-1.033 -3.35,-1.917 -2.65,-2.65C-1.917,-3.35 -1.033,-3.7 0,-3.7C1.033,-3.7 1.9,-3.35 2.6,-2.65C3.333,-1.917 3.7,-1.033 3.7,0" style="fill:url(#_Radial7);"/>
                    </g>
                </g>
                <g id="sprite17" serif:id="sprite1" transform="matrix(0.871,0,0,0.6319,1.6498,0.84983)">
                    <g id="shape17" serif:id="shape1">
                        <path d="M3.7,0C3.7,1.033 3.333,1.9 2.6,2.6C1.9,3.333 1.033,3.7 0,3.7C-1.033,3.7 -1.917,3.333 -2.65,2.6C-3.35,1.9 -3.7,1.033 -3.7,0C-3.7,-1.033 -3.35,-1.917 -2.65,-2.65C-1.917,-3.35 -1.033,-3.7 0,-3.7C1.033,-3.7 1.9,-3.35 2.6,-2.65C3.333,-1.917 3.7,-1.033 3.7,0" style="fill:url(#_Radial8);"/>
                    </g>
                </g>
                <g id="shape21" serif:id="shape2">
                    <path d="M-0.05,-1.2L1.75,-1.1C2.283,-0.833 2.617,-0.45 2.75,0.05C2.883,0.55 2.783,1.033 2.45,1.5L0.95,2.5L-0.8,2.4C-1.367,2.167 -1.717,1.8 -1.85,1.3C-1.983,0.767 -1.867,0.267 -1.5,-0.2C-1.167,-0.7 -0.683,-1.033 -0.05,-1.2" style="fill:#472d05;"/>
                    <path d="M-0.05,-1.2L1.75,-1.1C2.283,-0.833 2.617,-0.45 2.75,0.05C2.883,0.55 2.783,1.033 2.45,1.5L0.95,2.5L-0.8,2.4C-1.367,2.167 -1.717,1.8 -1.85,1.3C-1.983,0.767 -1.867,0.267 -1.5,-0.2C-1.167,-0.7 -0.683,-1.033 -0.05,-1.2Z" style="fill:none;fill-rule:nonzero;stroke:#5f3c07;stroke-opacity:0.4;stroke-width:0.25px;stroke-linecap:round;stroke-linejoin:round;stroke-miterlimit:4;"/>
                    <path d="M1.45,-0.1C1.55,0.2 1.517,0.5 1.35,0.8L0.5,1.45L-0.55,1.3C-0.883,1.133 -1.083,0.9 -1.15,0.6C-1.25,0.233 -1.2,-0.1 -1,-0.4L-0.15,-0.95L0.9,-0.85L1.45,-0.1" style="fill:#86540b;"/>
                    <path d="M1.85,-0.55L1.95,-0.15L1.55,0L1,-0.15L0.6,-0.55L0.55,-0.95L0.9,-1.1L1.45,-0.9L1.85,-0.55" style="fill:#f3bb69;"/>
                </g>
            </g>
        </g>
    </g>
    <defs>
        <radialGradient id="_Radial1" cx="0" cy="0" r="1" gradientUnits="userSpaceOnUse" gradientTransform="matrix(3.76832,0,0,3.76832,0,0)"><stop offset="0" style="stop-color:#665b33;stop-opacity:1"/><stop offset="1" style="stop-color:#665b33;stop-opacity:0"/></radialGradient>
        <radialGradient id="_Radial2" cx="0" cy="0" r="1" gradientUnits="userSpaceOnUse" gradientTransform="matrix(3.76832,0,0,3.76832,0,0)"><stop offset="0" style="stop-color:#665b33;stop-opacity:1"/><stop offset="1" style="stop-color:#665b33;stop-opacity:0"/></radialGradient>
        <radialGradient id="_Radial3" cx="0" cy="0" r="1" gradientUnits="userSpaceOnUse" gradientTransform="matrix(3.76832,0,0,3.76832,0,0)"><stop offset="0" style="stop-color:#665b33;stop-opacity:1"/><stop offset="1" style="stop-color:#665b33;stop-opacity:0"/></radialGradient>
        <radialGradient id="_Radial4" cx="0" cy="0" r="1" gradientUnits="userSpaceOnUse" gradientTransform="matrix(3.76832,0,0,3.76832,0,0)"><stop offset="0" style="stop-color:#665b33;stop-opacity:1"/><stop offset="1" style="stop-color:#665b33;stop-opacity:0"/></radialGradient>
        <radialGradient id="_Radial5" cx="0" cy="0" r="1" gradientUnits="userSpaceOnUse" gradientTransform="matrix(3.76832,0,0,3.76832,0,0)"><stop offset="0" style="stop-color:#665b33;stop-opacity:1"/><stop offset="1" style="stop-color:#665b33;stop-opacity:0"/></radialGradient>
        <radialGradient id="_Radial6" cx="0" cy="0" r="1" gradientUnits="userSpaceOnUse" gradientTransform="matrix(3.76832,0,0,3.76832,0,0)"><stop offset="0" style="stop-color:#665b33;stop-opacity:1"/><stop offset="1" style="stop-color:#665b33;stop-opacity:0"/></radialGradient>
        <radialGradient id="_Radial7" cx="0" cy="0" r="1" gradientUnits="userSpaceOnUse" gradientTransform="matrix(3.76832,0,0,3.76832,0,0)"><stop offset="0" style="stop-color:#665b33;stop-opacity:1"/><stop offset="1" style="stop-color:#665b33;stop-opacity:0"/></radialGradient>
        <radialGradient id="_Radial8" cx="0" cy="0" r="1" gradientUnits="userSpaceOnUse" gradientTransform="matrix(3.76832,0,0,3.76832,0,0)"><stop offset="0" style="stop-color:#665b33;stop-opacity:1"/><stop offset="1" style="stop-color:#665b33;stop-opacity:0"/></radialGradient>
    </defs>
</svg>
