<?xml version="1.0" encoding="UTF-8"?>
<svg version="1.1" viewBox="0 0 110.13 79.965" xmlns="http://www.w3.org/2000/svg" xmlns:cc="http://creativecommons.org/ns#" xmlns:dc="http://purl.org/dc/elements/1.1/" xmlns:rdf="http://www.w3.org/1999/02/22-rdf-syntax-ns#" xmlns:xlink="http://www.w3.org/1999/xlink">
<metadata>
<rdf:RDF>
<cc:Work rdf:about="">
<dc:format>image/svg+xml</dc:format>
<dc:type rdf:resource="http://purl.org/dc/dcmitype/StillImage"/>
</cc:Work>
</rdf:RDF>
</metadata>
<g transform="translate(-219.87 -159.97)">
<use transform="matrix(.6559 0 0 .6559 219.89 159.97)" width="167.89999" height="121.9" xlink:href="#a"/>
</g>
<defs>
<g id="a" transform="translate(83.95,60.95)">
<use transform="translate(-83.95,-60.95)" width="167.89999" height="121.9" xlink:href="#b"/>
</g>
<g id="b" transform="translate(83.95,60.95)">
<path d="m37.35-22.4 0.6-2.55h0.55l-3.65 17-2.65 4.2-0.05-3.1 0.75-1.25 0.2-0.4 0.35-0.6-0.35 0.6-0.65-5.9q-0.8-2.8-2.15-4.3l1.1-1.05q2.7 4.3 2.05 10.65l1.3-2.25 2.6-11.05m3.05 0.45q1.3-2.4 2.75-4.5 2.8-4.3 6-7.45l0.5 0.4-3.8 4.65-5.95 11.05v-3.25l0.5-0.9m-68.25 1.4 1.95-3.35 0.45 0.25-4.55 8.85-1.95 7.1-0.35-5.3-2.9-6.65 2.4 2.15 1.3-4.55 0.55 6.85 2.55-4.4 0.55-0.95m63.55 13.15 5.95-10.45 1.05 0.7h0.05l-7.05 13.9v-4.15m3.5 1.95q6.5-5.65 10.15-11l1.2 1-4.55 6.5-6.8 5.5v-2m12.2-13.1 1.3-1 4.55-3.3q5.55-3.75 11.4-6.2 6.75-1.9 9.95-5.8l0.55 0.9-9.5 6.6-8.35 4.25-8.65 8.85 0.45-2.65-1.7-1.65m0.85 9.55-7.05 3.95-5.05 2.25 6.55-5.2 4.3-2.8 0.85 1.2 0.4 0.6m-5.2-16.55 18.3-13.25 7.85-3.7 1 0.9-7.5 3.2-6 4.5-16 16.55v-3.55l1.25-3.9 1.1-0.75m24.1 1.15-3.7 4.95-2.5 3.35v0.05l-0.35 0.4-1.65 1.6 1.65-1.6 0.45-0.35 3.7-3 5.75-4.65 0.3 0.75-14.35 13.7-4.55 2.05 4.55-2.05 4.4-2.3 3.8-2.2 1.85-1.2 1.35 2.4-6.65 4.15-13 3.65 0.45-1.25 3.25-1.2 7.05-6.9-8.55 4.65 6.05-6.7 10.7-8.3m-137.55 9.5 0.85-1.25 5.6 3.6 3.15 2.05 3.8 1.7q1.3 1.1 2.75 2.05 2.95 1.9 6.25 3.25l5.5-0.3-10.45-4.8-9.9-8.7 1.05-1.15 1.7 1.15 4.65 2.85q5.65 3.2 11.35 4.9l3.85 8.55-0.4 0.7-6.8 4.8-6.1 1.95-6.65-1-0.4-1q4.75 0.65 8.2-0.6l1.3-0.55 1.75-1 2.35-1.35 2-1.15-5.2-0.85-7.9-3.45v-0.7l-3.85-0.3 2.2-2.1-3.1-1.05-7.55-6.25m-3.1-22.35 0.65-1.05q6.45 12.4 16.35 19.35l0.3 0.2 4.6 2.8 1 0.45 0.25 0.15-0.2 0.05 0.45 2.2-13-7.4h-1.6l-1.5-1.6-7.3-15.15m3.55-11.6 1.15-1.65q3.15 9.4 9.15 18.25l4.9 6.45q2.5 2.85 4.9 4.8l1.85 1.35 1.85 0.65 0.4 1.1-3.1 0.2-6.45-4.35-9.3-14.6-5.35-12.2m6.65 0.65 0.95-0.55q6 6.05 11.1 16.6l0.55 5.95-1.05 0.8-4.45-11.05q-2.75-6.35-7.1-11.75m11 1.35h1.8l0.6 4.15q0.95 4.85 3 8.9l-1.4 1.05-0.45 3.8-3.1-10.6-0.45-7.3m3.55 3.7 1.35-0.55 1.9 7.25-3.25-6.7m-3.5-16.45 0.95-0.85q5.7 8.15 10.5 18.85l-0.1 7.6-6.55-17.15-4.8-8.45m10.7 10.15 1.15-0.5q3.55 7.4 5.55 15.2l-1.6 8.5-2.15-14.65-2.95-8.55m6.8 6.1h0.75q2.9 7.1 2.7 14.2l-2 4.55v-11.7l-1.45-7.05m81.05 40.4 14.5-3.35q4.45-0.9 7.75-4.9l2.15-3.1 0.8 1.8-5 5.4-11.3 5.05-3 0.9 1.5-2.4-5.95 1.25-1.45-0.65m-7.55 2.75q6 0.2 12-1.25l-1.9 3.55h10.65l-2 1.25-15.65-0.35 1.95-1.85-7.55 0.7 2.5-2.05m24.05 23.2q-2.3-0.05-4.5 1.2l-4.25-1.7 1.7-1q3.75-0.05 7.15 1.2l-0.1 0.3m-26.05-17.05-0.05-0.2 0.2 0.1-0.15 0.1m34.35 25.55h-0.05 0.05m-3.75 2.2h0.05-0.05m4.3 7-0.05-0.1h0.25l-0.2 0.1m-117.6-72.75 1.05-0.6q0.95 5.2 2.25 9.45l1.6 4.7 1.2 2.75 2.6 4.95-1.5 1.5-5.05-11.25-2.15-11.5m-12.15 26.85v-0.65l10.1 2.35-10.1-2.35v0.65m-5.3 25.55 0.2 0.25-0.05-0.05-0.15-0.2m-11.25 6.7v-0.05 0.05" fill="#e6e2b9" fill-rule="evenodd"/>
<path d="m-27.65-26.05-0.65 5.6-0.1 0.85-2.55 4.4-0.55-6.85-1.3 4.55-2.4-2.15 2.9 6.65 0.35 5.3 1.95-7.1 4.55-8.85 1.25 0.7-1.25 1.95q-2.5 4.15-4.15 10.7l0.05 2.05v2.05l-5.1 2.5-1.6 2.7-3.85-8.55-0.75-5.85-2.15-16.1 1.05-0.55-0.95-1.75q-2.05-4.05-3-8.9l1.1-0.4 0.05-0.05 3.25 6.7-1.9-7.25 0.75-0.3q-2.5-8.15-6.6-14.7l1-0.9 4.8 8.45 6.55 17.15 0.1-7.6 1.5 3.5q-1.1-6.3-3.45-10.85l1.2-0.5 2.95 8.55 2.15 14.65 1.6-8.5 0.7 3.05q0.15-5.65-1.4-11.65h0.8l1.45 7.05v11.7l2-4.55-0.35 3.1m-13.25-6.6-1.05 0.6 2.15 11.5 5.05 11.25 1.5-1.5-2.6-4.95-1.2-2.75-1.6-4.7q-1.3-4.25-2.25-9.45m7.2 12.6-1.15-14.85-0.45-3.2 0.45 3.2 1.15 14.85m3.1-6.65q0.4-2.45 0.45-5-0.05 2.55-0.45 5m-8.35-4.4-3.7-12.9 3.7 12.9" fill="url(#dv)" fill-rule="evenodd"/>
<path d="m-45.9-29.2-0.2-0.55q-2.6-7.1-2.95-17.1h0.75l0.45 7.3 3.1 10.6 0.45-3.8 1.4-1.05 0.95 1.75-1.05 0.55 2.15 16.1-0.9-2.5-0.4-1.1-3.75-10.2" fill="url(#du)" fill-rule="evenodd"/>
<path d="m-50.75-25.8q-2.95-12.3-9.55-21.8l1-0.6q4.35 5.4 7.1 11.75l4.45 11.05 1.05-0.8-0.55-5.95 1.1 2.4 0.25 0.55 3.75 10.2-1.85-0.65-1.85-1.35q-2.4-1.95-4.9-4.8" fill="url(#cl)" fill-rule="evenodd"/>
<path d="m-60.45-13.4-1.95-3.25q-5-9.1-7.8-19.5l0.7-1.1 7.3 15.15 1.5 1.6h1.6l13 7.4-0.45-2.2 0.2-0.05 3.35 1.3-1.85-3.65 3.1-0.2 0.9 2.5 0.75 5.85q-5.7-1.7-11.35-4.9l-4.65-2.85-1.7-1.15-1.05 1.15-1.1 1.15 0.75 1q2.8 3.6 6.2 6.35l-3.8-1.7-3.15-2.05-0.5-0.85" fill="url(#ca)" fill-rule="evenodd"/>
<path d="m-52.5-18.95q-8.85-13.6-14.05-29.05l0.6-0.85 5.35 12.2 9.3 14.6 6.45 4.35 1.85 3.65-3.35-1.3-0.25-0.15-1-0.45-4.6-2.8-0.3-0.2" fill="url(#bp)" fill-rule="evenodd"/>
<path d="m-61.9-5.6q-2.9-3.25-5.4-8l0.9-1.3 7.55 6.25 3.1 1.05-2.2 2.1 3.85 0.3v2.1q4.85 3.8 11.1 4.05l-2.35 1.35-11.25-3.5-2.45-1.7-2.8-2.65-0.05-0.05" fill="url(#be)" fill-rule="evenodd"/>
<path d="m-28.3-20.45 0.45-0.1-0.55 0.95 0.1-0.85m66.55 3.05-0.65 0.95 0.45-1.75 0.35 0.05-0.15 0.75m16.2-6.25-0.85 0.4 0.5-0.5 0.35 0.1m-7.4-1.9-1.1 0.75 0.2-1 0.9 0.25m-18.85 70.7-0.2 0.05 0.15-0.15 0.05 0.1m-61.25-4.55-0.1-0.05v-0.1l0.1 0.15m-28.85-46.15v-0.05l0.05 0.05h-0.05m1.25-7.45 0.2-0.4 0.5 0.85-0.7-0.45m125.25-2.65 0.35-0.4v-0.05l0.1 0.1-0.45 0.35m0.35-0.4 0.1 0.05-0.1-0.05m1.85 39.05 0.1-0.3-0.1 0.3m-25.9-17.15-0.2-0.1h0.2v0.1m-97.5-1.4 0.4 1 0.75 1.9-0.2 0.1-0.3-1-0.65-2m17.7 5.95v0.05-0.1 0.05-0.05l0.05 0.05h-0.05m-15.25 6.7 0.15 0.05-0.2 0.1 0.05-0.15m1.75-0.45-0.05-0.05v-0.05h0.05v0.1" fill="#d4d0c8" fill-rule="evenodd"/>
<path d="m-60.75-1.8-1.15-3.75h0.05l2.8 2.65 1.2 3.6-2.9-2.5" fill="url(#at)" fill-rule="evenodd"/>
<path d="m-58.85-17.3 9.9 8.7 10.45 4.8-5.5 0.3q-3.3-1.35-6.25-3.25-1.45-0.95-2.75-2.05-3.4-2.75-6.2-6.35l-0.75-1 1.1-1.15m2.65 22.75 6.65 1 6.1-1.95 6.8-4.8-1.2 2.05-1.1 0.75-1.25 2.7q-7.65 3.25-15.25 2.15l-0.75-1.9" fill="url(#ai)" fill-rule="evenodd"/>
<path d="m-54.1-4.5 7.9 3.45 5.2 0.85-2 1.15q-6.25-0.25-11.1-4.05v-1.4" fill="url(#x)" fill-rule="evenodd"/>
<path d="m-45.35 2.3-1.75 1-1.3 0.55-9.45-3.15-1.2-3.6 2.45 1.7 11.25 3.5" fill="url(#m)" fill-rule="evenodd"/>
<path d="m38.5-24.95h-0.55l-0.6 2.55q-14.7-2.25-29.2-1.55v-1.7q-0.15-3.75-2.35-4.3l0.35-0.1q17.4-0.55 37 3.6-1.45 2.1-2.75 4.5l-1.75-0.25 0.4-2.75h-0.55m-33.85-3.85q2.25 1.65 2.2 4.35-16.2 0.25-32.3 3.45l1.25-1.95-1.25-0.7-0.45-0.25-1.95 3.35-0.45 0.1 0.65-5.6q14.8-3.3 29.65-3.85l0.5-0.05q1.05 0.6 2.15 1.15m62.8 9.35 1.3 0.45-3.7 3-0.1-0.1 2.5-3.35m3.75 1.4 1.95 0.75q3.25 1.3 2.7 4.45l-0.2 0.75-0.15-0.4-0.8-1.8-2.15 3.1-0.7-1.3-1.35-2.4-1.85 1.2-0.85-0.85 3.4-3.5m-128.85 32.6q0.25-2.4 0.25-5.35l2.7 1.1 0.3 0.9-0.25 2.95-2.15 0.15-0.85 0.25m-0.65-8.35-2.45-8 2.9 2.5 1.25 3.75 0.65 2-2.35-0.25" fill="#b07700" fill-rule="evenodd"/>
<path d="m-31.2-1.35 0.7-0.65-1.7 8.65q0.75 11.6 4.1 15.05l-0.55 1.6q-1.05 3.05-0.35 3.5l0.6 0.95 1.4-0.7 1.15-3.1q6.35 5.75 15.05 7.8l-0.2 2.3q-2.45-1.65-9.95 1.55l-0.65-4.7q-0.15-1.75-0.95-1.5-1.05 0.45-1.2 2.6-0.1 1.95 0.25 3.7-1.95-0.25-4.35 1.55-1.3-2.45-2.4-5.25-0.7-1.75-1.4-1.5-0.9 0.45-0.4 2.6 0.6 2.25 1.65 4.15l-2.2 0.7q-10.2-10.65-4.35-29.55l1.9-2 3.85-7.75" fill="url(#dt)" fill-rule="evenodd"/>
<path d="m8.15-23.95q14.5-0.7 29.2 1.55l-2.6 11.05-1.3 2.25q0.65-6.35-2.05-10.65l-1.1 1.05-1.15 1q3.2 2.35 3.05 9.35l-7.9-1.6-0.7-0.45q-7.9-4.65-16.25-4.05l-0.6-0.2q1.45-3.65 1.4-9.3m-1.3-0.5q0.35 6.35-1.4 9.45l-0.2-0.05q-3.55-0.7-7.4 0.1l-0.65 0.4-0.45 0.05-1.6 0.1q-8.3 0.55-15.25 5l-9.45 1.15-0.05-2.05q1.65-6.55 4.15-10.7 16.1-3.2 32.3-3.45" fill="url(#di)" fill-rule="evenodd"/>
<path d="m-2.8-14.55q6.85-0.35 6.3 0.65l3.85-0.55q8.35-0.6 16.25 4.05l0.7 0.45q3 1.85 5.95 4.5l-0.25 0.25-1.2 1.35-0.4-1.15-0.9 1.05-0.95 1v4.55l5 7.4q2.65 3.15 5.3 2.5l-0.5-1.85 2.3 0.5q3.95 16.95-12.6 32.35l-1.2-0.6q1.3-2.2 2-4.95-0.45-2.75-1.7-1.5l-0.6 1.35q-0.4 2.2-1.8 4.75-1.4-1.8-5.5-2.9l-0.8-0.2q0.95-2.2 1.5-4.85-0.45-3.25-1.7-1.8l-0.6 1.6-1.1 4.15q-5.4-3.1-8.7-2.85l-0.25-2.65q-0.45-2.45-1.7-3.25-0.9-0.5-0.9 1.35l-0.15 5.25q-2.3-1.7-5.6-1.8-2.15-1.45-5.6-1.65 0.15-0.85 0.55-1.2 1-0.95-0.45-1.8-1.4-0.5-1.6 0.45-0.7 1.1-0.95 2.35-8.7-2.05-15.05-7.8l2.85-4.95q3.05 3.75 7.6 5.65h1.5l-0.35-1.05q0.25-0.35-0.2-1.5-3.8-2.9-6.5-6.2 2.8-6 6.8-8.85l-0.1-1.8q0.8-1.5-0.8-1.45l-1.7 1.4q-3.55 3.05-6.6 7.5-2.2-3.2-3.25-7.85-0.95-0.85-1.15 0.55l-1 1.85q-0.15 2.2 1.4 5.4l1.9 3.25q-1.45 2.5-2.65 5.8-3.35-3.45-4.1-15.05l1.7-8.65 1-0.8 0.8-0.65 7.5-5.2 1.1-0.75q6.95-4.45 15.25-5l1.6-0.1 0.45-0.05m5 1.45 1.3-0.8-1.3 0.8-5.5-0.2-1.9 0.3-1.1 0.65q-0.5 0.9 0.35 1.35-2.1 0.9-0.85 1.25h5.1l-2 2.6-6.8 0.2-1.1 0.65q-0.4 0.7 0.1 1.15l-0.8 1.7 5.85-0.45 1.05 0.3-0.9 3.6 0.65 0.35 1.35-3.65 5.45 1.55q1-0.6 0.3-1.55 0.45-0.25 0.05-1.15 0-1-1.05-1.45-1.55-0.7-3.2-1.05l2.4-2.85 7 1.4 0.05-0.9q0.5-0.25 0.1-1.2 0-1-1.05-1.45l-0.85-0.35-2.7-0.8m22.1 19.25q-0.25-1.05-0.95-0.55l-0.35 1.4q-1.1 4.1-2.9 6.8-2.9-4.3-6.2-7.3l-0.2-0.2-1.65-1.4q-1.2-0.05-1 0.8l-0.45 1.9q4.25 3.85 7.25 9.3-2.7 3.35-6.4 6.3-0.55 1.5 0.05 1.6v1.35q5.15-2.55 8.2-6.25 2.85 4.8 4.1 9.2l1.65-0.45 0.1-0.75q0.7-0.4-0.35-3.5-1.4-4.4-3.2-7.6 2.15-1.7 3.2-7l-0.65-2.75-0.25-0.9" fill="url(#cx)" fill-rule="evenodd"/>
<path d="m2.2-13.1 2.7 0.8 0.85 0.35q1.05 0.45 1.05 1.45 0.4 0.95-0.1 1.2l-1.45-0.15q-2.95-1-6.05-1.25l-4.5 0.05-0.1-0.15-0.55-0.2q-0.85-0.45-0.35-1.35l1.1-0.65 1.9-0.3 5.5 0.2" fill="url(#cs)" fill-rule="evenodd"/>
<path d="m5.45-15 1.3 0.35 0.6 0.2-3.85 0.55q0.55-1-6.3-0.65l0.65-0.4q3.85-0.8 7.4-0.1l0.2 0.05" fill="url(#cr)" fill-rule="evenodd"/>
<path d="m-2.75-6.95q1.65 0.35 3.2 1.05 1.05 0.45 1.05 1.45 0.4 0.9-0.05 1.15l-1.5-0.1-4.95-1.15q-2.75-0.35-5.6-0.05l-0.1-0.15-0.8-0.4q-0.5-0.45-0.1-1.15l1.1-0.65 6.8-0.2 0.95 0.2" fill="url(#cq)" fill-rule="evenodd"/>
<path d="m-5.4-3.6-1.05-0.3-5.85 0.45 0.8-1.7 0.8 0.4 0.1 0.15q2.85-0.3 5.6 0.05l-0.4 0.95" fill="url(#cp)" fill-rule="evenodd"/>
<path d="m6.7-9.3-0.05 0.9-7-1.4-2.4 2.85-0.95-0.2 2-2.6 0.9-0.95q3.1 0.25 6.05 1.25l1.45 0.15" fill="url(#co)" fill-rule="evenodd"/>
<path d="m-1.7-9.75h-5.1q-1.25-0.35 0.85-1.25l0.55 0.2 0.1 0.15 4.5-0.05-0.9 0.95" fill="url(#cn)" fill-rule="evenodd"/>
<path d="m1.45-3.3q0.7 0.95-0.3 1.55l-5.45-1.55-1.1-0.3 0.4-0.95 4.95 1.15 1.5 0.1" fill="url(#cm)" fill-rule="evenodd"/>
<path d="m-4.3-3.3-1.35 3.65-0.65-0.35 0.9-3.6 1.1 0.3" fill="url(#ck)" fill-rule="evenodd"/>
<path d="m38.5-24.95h0.55l-0.4 2.75-0.6 4-0.45 1.75 0.65-0.95-2.55 10v4.15l7.05-13.9 1.15 0.75-6.45 12.4-1.95 3.8-3.3-3.55 2.65-4.2 3.65-17" fill="url(#cj)" fill-rule="evenodd"/>
<path d="m38.65-22.2 1.75 0.25-0.5 0.9-1.5 2.9-0.35-0.05 0.6-4m29.15 7.65 0.85 0.85-3.8 2.2 2.95-3.05" fill="#960" fill-rule="evenodd"/>
<path d="m38.25-17.4 0.15-0.75 1.5-2.9v3.25l5.95-11.05 3.8-4.65 0.95 0.7q-3.5 2-4.45 7l-0.2 1-1.25 3.9v3.55l16-16.55 6-4.5 7.5-3.2 1.05 0.95q-7.75 1.9-15.5 10.85l-5.65 6.05-0.5 0.5 0.85-0.4q7.65-3.85 13.35-9.35l0.85 3.95q-5.85 2.45-11.4 6.2l-4.55 3.3-1.3 1-0.6 0.5-1.45 1.6q-3.65 5.35-10.15 11l-1.75 1.45 6.45-12.4-1.15-0.75h-0.05l-1.05-0.7-5.95 10.45 2.55-10m9 0.85 6.35-6.7-6.35 6.7" fill="url(#ci)" fill-rule="evenodd"/>
<path d="m33.1-8.5-0.2 0.4-0.75 1.25v-0.75l0.05-0.75q0.15-7-3.05-9.35l1.15-1q1.35 1.5 2.15 4.3l0.65 5.9m-0.2 0.4-0.7-0.25 0.7 0.25" fill="url(#ch)" fill-rule="evenodd"/>
<path d="m37.45-4 1.75-1.45v2l6.8-5.5 4.55-6.5 1.2 0.95-5.05 6.5-6.55 5.2 5.05-2.25 7.05-3.95 0.45 0.65-4.7 3.65-4.8 3.7-2.45 0.7-4.4 1.2-0.15-0.2-0.7-0.9 1.95-3.8" fill="url(#cg)" fill-rule="evenodd"/>
<path d="m49.35-16.45 1.45-1.6 0.6-0.5 1.7 1.65-0.45 2.65 8.65-8.85 8.35-4.25 9.5-6.6 0.6 0.95q-3.9 4.2-9.6 7.3l-9.65 7.25-8.65 8.85-0.85-1.2-4.3 2.8 5.05-6.5-1.2-0.95-1.2-1" fill="url(#cf)" fill-rule="evenodd"/>
<path d="m40.75-0.3 2.45-0.7 7.1-1.95 1.45 0.65 5.95-1.25-1.5 2.4 3-0.9 11.3-5.05 5-5.4 0.15 0.4-0.95 2.6q-1.1 2.15-3 3.95l-0.75 0.65q-1.35 1.05-2.95 1.95l-9.85 5.05h-5.3l1.9-3.55q-6 1.45-12 1.25l-2-0.1" fill="url(#ce)" fill-rule="evenodd"/>
<path d="m36.35 0.9 4.4-1.2 2 0.1-2.5 2.05 7.55-0.7-1.95 1.85 15.65 0.35-1.35 0.8q-5.65-0.4-11.45-0.1l-9.65 1.05h-0.05l-2.65-4.2" fill="url(#cd)" fill-rule="evenodd"/>
<path d="m43.2-1 4.8-3.7 4.65-1.25-0.45 1.25 13-3.65 6.65-4.15 0.7 1.3q-3.3 4-7.75 4.9l-14.5 3.35-7.1 1.95" fill="url(#cc)" fill-rule="evenodd"/>
<path d="m48-4.7 4.7-3.65-0.45-0.65-0.4-0.6 8.65-8.85 9.65-7.25 1 1.3-10.7 8.3-6.05 6.7 8.55-4.65-7.05 6.9-3.25 1.2-4.65 1.25" fill="url(#cb)" fill-rule="evenodd"/>
<path d="m74.8-22.9 0.3 0.75-3.9 4.1-3.4 3.5-2.95 3.05-4.4 2.3 14.35-13.7" fill="url(#bz)" fill-rule="evenodd"/>
<path d="m74.7-9.5q-3.35 9.8-2.55 18.7l5 12.65q0.35 2.1 0.1 3.75-0.3 2.1-1.45 3.45l-0.5-0.5q0.5-3.2-0.6-6.35l-4.55-14.35q-0.5-2.65-0.4-5.25v-0.05l1.8-3 0.15-5.1q1.9-1.8 3-3.95" fill="url(#by)" fill-rule="evenodd"/>
<path d="m70.95-4.9 0.75-0.65-0.15 5.1-1.8 3q0.05-3.75 1.2-7.45" fill="url(#bx)" fill-rule="evenodd"/>
<path d="m37.15 43.3-8.95 1.85-0.05-0.1q0.2-0.8-0.95-1.95 0.9 0.5 2.15 0.6l0.95-0.65q12-10.05 12-24.25 0-6.65-2.65-12.4l1.1-0.45 0.15-0.1v-0.1l7.8-1.7q5.8-0.3 11.45 0.1l1.35-0.8 2-1.25h-5.35l9.85-5.05q1.6-0.9 2.95-1.95-1.15 3.7-1.2 7.45v0.05l-5.1 5.45 4.25 2-1.55 2-6.45-1.35q-6.15-0.6-12.95 1.1l-2.2 14.7q-2.15 10.15-8.6 16.8" fill="url(#bw)" fill-rule="evenodd"/>
<path d="m77.85 47.1 1-0.25q1.55-0.3 3.2 0l-0.2 1.45h-3.75l-0.25-1.2" fill="url(#bv)" fill-rule="evenodd"/>
<path d="m82.05 46.85q-1.65-0.3-3.2 0l-1 0.25q-1.8 0.5-3.45 1.8l-0.45 0.1q-0.75-0.05-0.1-2.2 1.7-1.35 3.45-1.8l0.7-0.1 0.3-0.05 3.4 0.35q1.15 0.85 0.35 1.65" fill="url(#bu)" fill-rule="evenodd"/>
<path d="m75.8 29.05 0.9 1.05q8 8.65 6.5 18.4-0.5 3.45-1.55 5.45v0.05l-0.2-0.1 0.3-1.35q0.1-1.2-0.8-0.8l-1.9 1.2q0.5-1.75-0.1-4.65h2.9l0.2-1.45q0.8-0.8-0.35-1.65l-3.4-0.35-0.3 0.05-1.4-4.3h2.35l1.35-0.2-1.35-1.85q0.55-0.8-0.55-1.4l-3.6 0.1-2.35-3.8 2.2-0.55 0.45-1.4q0.95-1-0.35-1.5l-0.15-0.05q-2.3-0.05-4.55 0.8l-5-4.7 2.5-0.9-0.4-0.6q0.8-1.05-0.35-1.55l0.1-0.3q4.55 1.7 8.4 5.85l0.5 0.5" fill="url(#bt)" fill-rule="evenodd"/>
<path d="m81.65 54q-0.7 1.25-1.55 1.9-1.15 0.9-2.7 0.8l-0.1-0.05 0.4-0.9q1.9-0.45 3.75-1.85l0.2 0.1" fill="url(#bs)" fill-rule="evenodd"/>
<path d="m79.05 52.95 1.9-1.2q0.9-0.4 0.8 0.8l-0.3 1.35q-1.85 1.4-3.75 1.85l-0.65 0.1-3.4-0.4-0.45-0.4q-0.55-0.65 0.1-1.25 1.6 0.3 3.2 0.05l1.85-0.55 0.7-0.35" fill="url(#br)" fill-rule="evenodd"/>
<path d="m47.4 40.5-10.25 2.8q6.45-6.65 8.6-16.8l2.2-14.7q6.8-1.7 12.95-1.1l6.45 1.35 1.55-2-4.25-2 5.1-5.45q-0.1 2.6 0.4 5.25l4.55 14.35q1.1 3.15 0.6 6.35-3.85-4.15-8.4-5.85-3.4-1.25-7.15-1.2l-1.7 1-0.95 0.5q-2.25 0.05-3.4 1.85l-0.15 0.3-3.35 4.05-2.45 5.75-0.35 5.55" fill="url(#bq)" fill-rule="evenodd"/>
<path d="m62.3 24.2q2.2-1.25 4.5-1.2 1.15 0.5 0.35 1.55-2 0.25-3.85 1.3-2 1.1-3.95 3.15l-0.25 0.15q-1.05 0.55-0.3-2.1 1.3-1.4 2.7-2.35l0.8-0.5" fill="url(#bo)" fill-rule="evenodd"/>
<path d="m58.05 22.5 4.25 1.7-0.8 0.5q-2.1-1.1-4.4-1.7l0.95-0.5" fill="url(#bn)" fill-rule="evenodd"/>
<path d="m40.7 5.75-1.65-0.65 9.65-1.05-7.8 1.7h-0.2" fill="#754f00" fill-rule="evenodd"/>
<path d="m77.3 45q-1.75 0.45-3.45 1.8-0.65 2.15 0.1 2.2l-0.3 1.4 1.7-0.35 2.75-1.75 0.35 2.6-0.1 2.4-1.85 0.55q-1.6 0.25-3.2-0.05-0.65 0.6-0.1 1.25v1.55l3.25 1.25-0.65 0.75q-7.05 1.4-10.45-3.8v-3.55q-3.6-10.45-10.25-17.85-1.65-1-1.55-8.25l0.15-0.3q1.15-1.8 3.4-1.85 2.3 0.6 4.4 1.7-1.4 0.95-2.7 2.35-0.75 2.65 0.3 2.1l1.15 0.85 3.85-3.6 2.2 1.9 2.85 2.8q-2.35 1-4.6 2.9l-0.15 0.55q-0.45 1.45 0 1.65v1.45l7-3.95 2.6 3.8q-2.05 0.7-4 2.4-0.8 2.5 0.3 2.15v0.9l5.3-2.35 0.05 0.1 1.2 2.9 0.45 1.4" fill="url(#bm)" fill-rule="evenodd"/>
<path d="m74.5 59.65-0.8 0.45q-14.15 2.35-15.45-10.4l-4.1-11.35-1.5-4.05q-0.7-6.4 0.9-9.15-0.1 7.25 1.55 8.25 6.65 7.4 10.25 17.85v3.55q3.4 5.2 10.45 3.8l-1.3 1.05" fill="url(#bl)" fill-rule="evenodd"/>
<path d="m59.1 29.15 0.25-0.15q1.95-2.05 3.95-3.15l0.8 0.55-3.85 3.6-1.15-0.85" fill="url(#bk)" fill-rule="evenodd"/>
<path d="m54.15 38.35-6.75 2.15 0.35-5.55 2.45-5.75 3.35-4.05q-1.6 2.75-0.9 9.15l1.5 4.05" fill="url(#bj)" fill-rule="evenodd"/>
<path d="m70.05 30.75q2.25-0.85 4.55-0.8l0.15 0.05q1.3 0.5 0.35 1.5h-0.05q-2.3 0.2-4.5 1.15-2.75 1.15-5.3 3.3l-0.85 0.25q-0.45-0.2 0-1.65l0.15-0.55q2.25-1.9 4.6-2.9l0.9-0.35" fill="url(#bi)" fill-rule="evenodd"/>
<path d="m75.1 31.5-0.45 1.4-2.2 0.55-1.05 0.25h-0.05l-0.8-1.05q2.2-0.95 4.5-1.15h0.05" fill="url(#bh)" fill-rule="evenodd"/>
<path d="m72.45 33.45 2.35 3.8-0.8 0.25-2.6-3.8 1.05-0.25" fill="url(#bg)" fill-rule="evenodd"/>
<path d="m70.55 32.65 0.8 1.05h0.05l-7 3.95v-1.45l0.85-0.25q2.55-2.15 5.3-3.3" fill="url(#bf)" fill-rule="evenodd"/>
<path d="m63.3 25.85q1.85-1.05 3.85-1.3l0.4 0.6-2.5 0.9-0.95 0.35-0.8-0.55" fill="url(#bd)" fill-rule="evenodd"/>
<path d="m64.1 26.4 0.95-0.35 5 4.7-0.9 0.35-2.85-2.8-2.2-1.9" fill="url(#bc)" fill-rule="evenodd"/>
<path d="m70.3 42.05 0.25-0.1q2.15-1.85 4.45-2.65l0.6 1.3-5.3 2.35v-0.9" fill="url(#bb)" fill-rule="evenodd"/>
<path d="m74.8 37.25 3.6-0.1q1.1 0.6 0.55 1.4l-0.2 0.2q-1.9-0.1-3.75 0.55-2.3 0.8-4.45 2.65l-0.25 0.1q-1.1 0.35-0.3-2.15 1.95-1.7 4-2.4l0.8-0.25" fill="url(#ba)" fill-rule="evenodd"/>
<path d="m78.95 38.55 1.35 1.85-1.35 0.2h-3.35l-0.6-1.3q1.85-0.65 3.75-0.55l0.2-0.2" fill="url(#az)" fill-rule="evenodd"/>
<path d="m78 44.9-0.7 0.1-0.45-1.4-1.2-2.9 0.2-0.1h0.75l1.4 4.3" fill="url(#ay)" fill-rule="evenodd"/>
<path d="m77.85 47.1 0.25 1.2-2.75 1.75-1.7 0.35 0.3-1.4 0.45-0.1q1.65-1.3 3.45-1.8" fill="url(#ax)" fill-rule="evenodd"/>
<path d="m78.1 48.3h0.85q0.6 2.9 0.1 4.65l-0.7 0.35 0.1-2.4-0.35-2.6" fill="url(#aw)" fill-rule="evenodd"/>
<path d="m26.55-2.95 0.75 3.15 0.35 1.55q2.9 4.7 7.5 5.95h3.15l-0.6-0.4 1.95-0.9q2.65 5.75 2.65 12.4 0 14.2-12 24.25l-0.95 0.65q-1.25-0.1-2.15-0.6l-1.15-0.6q16.55-15.4 12.6-32.35l-2.3-0.5 0.5 1.85q-2.65 0.65-5.3-2.5l-5-7.4v-4.55" fill="url(#av)" fill-rule="evenodd"/>
<path d="m20.1 13.8q1.8-2.7 2.9-6.8l0.35-1.4q0.7-0.5 0.95 0.55l0.1 0.95 0.05 0.4q-0.35 4.35-2.85 8.6l-1.5-2.3" fill="url(#au)" fill-rule="evenodd"/>
<path d="m24.55 7.05 0.65 2.75q-1.05 5.3-3.2 7l-0.4-0.7q2.5-4.25 2.85-8.6l-0.05-0.4 0.15-0.05" fill="url(#as)" fill-rule="evenodd"/>
<path d="m24.3 6.15 0.25 0.9-0.15 0.05-0.1-0.95m-81.8 17.7-0.05 0.3-0.15-0.05 0.2-0.25" fill="#cdb37a" fill-rule="evenodd"/>
<path d="m22 16.8q1.8 3.2 3.2 7.6 1.05 3.1 0.35 3.5-0.4 0.2-1.3-0.4l-0.7-1.5q-1.6-4.45-3.65-7.4-0.9-2.25-1.35-2.6-3.15-5.3-6.95-9.15l-0.35-0.55-0.2-0.6q-0.2-0.85 1-0.8l1.65 1.4 0.2 0.2q3.3 3 6.2 7.3l1.5 2.3 0.4 0.7" fill="url(#ar)" fill-rule="evenodd"/>
<path d="m17.85 16.9q-3-5.45-7.25-9.3l0.45-1.9 0.2 0.6 0.35 0.55q3.8 3.85 6.95 9.15l-0.7 0.9" fill="url(#aq)" fill-rule="evenodd"/>
<path d="m11.5 24.8q-0.6-0.1-0.05-1.6 3.7-2.95 6.4-6.3l0.7-0.9q0.45 0.35 1.35 2.6-2.95 3.1-7.1 5.8-0.9 0.5-1.3 0.4" fill="url(#ap)" fill-rule="evenodd"/>
<path d="m25.55 27.9-0.1 0.75-1.65 0.45q-1.25-4.4-4.1-9.2-3.05 3.7-8.2 6.25v-1.35q0.4 0.1 1.3-0.4 4.15-2.7 7.1-5.8 2.05 2.95 3.65 7.4l0.7 1.5q0.9 0.6 1.3 0.4" fill="url(#ao)" fill-rule="evenodd"/>
<path d="m14.55 37.55 1.1-4.15 0.6-1.6q1.25-1.45 1.7 1.8-0.55 2.65-1.5 4.85-1.55 3.45-4 5.85-0.55 0.9-1.1 0.8l-0.6-0.4v-1.2l1-1.15 2.05-3.1 0.35-0.8 0.4-0.9" fill="url(#an)" fill-rule="evenodd"/>
<path d="m5.85 34.7-0.05 1.1q-0.3 3.85-2.85 5.95-0.35 0.65-1.25 0.35l-0.65-0.35q-1.5-1.35-0.05-2t1.75-3.45l0.1-0.9 0.15-5.25q0-1.85 0.9-1.35 1.25 0.8 1.7 3.25l0.25 2.65" fill="url(#am)" fill-rule="evenodd"/>
<path d="m2.85 35.4-0.1 0.9q-6.2-3-11.1-0.6l-0.1-1.4q2.65-1.05 5.7-0.7 3.3 0.1 5.6 1.8" fill="url(#al)" fill-rule="evenodd"/>
<path d="m5.8 35.8 1 0.15v0.9l-0.35 1.65q-0.5 1.7-1.85 3.25l-2.05 1.4-0.85-1.05q0.9 0.3 1.25-0.35 2.55-2.1 2.85-5.95" fill="url(#ak)" fill-rule="evenodd"/>
<path d="m6.8 35.95q4.9 0.65 7.35 2.5l-0.35 0.8q-3.2-2-7-2.4v-0.9" fill="url(#aj)" fill-rule="evenodd"/>
<path d="m5.8 35.8 0.05-1.1q3.3-0.25 8.7 2.85l-0.4 0.9q-2.45-1.85-7.35-2.5l-1-0.15" fill="url(#ah)" fill-rule="evenodd"/>
<path d="m28 45.2q-11.8 7.95-27.05 8.2-17.4 0.3-30-9.25l-4-3.55-0.1-0.15q-0.45-0.55 0.25-1.2l2.55-0.75 2.2 3.15 4 2.65 0.3-0.95 0.1-0.05q0.9-0.9-0.75-1.85-1.5-0.85-2.7-3 0.65-1.5 2.85-1.7l1.85 3.65 3.2 3 0.75-1.2q1.15-0.9-0.2-1.85-1.3-0.9-1.9-3.35 3.55-2.65 8.9-2.05l1.05 3.7q0.35 2.5 2.9 4.25l0.4-1.3q0.35-0.25 0.05-1.45l-1-4.45q4.9-2.4 11.1 0.6-0.3 2.8-1.75 3.45t0.05 2l0.65 0.35 0.85 1.05 2.05-1.4q1.35-1.55 1.85-3.25 3.55 1.1 5.3 3.85l-1 1.15v1.2l0.6 0.4 0.95 0.35 1.5-1.55q0.5 3.05 5.85 2.45l0.05 0.05 0.6 0.3 1.1 0.45 2.3-2.3 1.4-1.8 2.9 2.15" fill="url(#ag)" fill-rule="evenodd"/>
<path d="m16.45 38.45 0.8 0.2-0.35 0.7-1.6 3-3 3.1-0.95-0.35q0.55 0.1 1.1-0.8 2.45-2.4 4-5.85" fill="url(#af)" fill-rule="evenodd"/>
<path d="m17.25 38.65q4.1 1.1 5.5 2.9l-0.3 0.55q-2.2-2.1-5.55-2.75l0.35-0.7" fill="url(#ae)" fill-rule="evenodd"/>
<path d="m13.8 43.9 1.5-1.55 1.6-3q3.35 0.65 5.55 2.75-1 1.55-2.8 3.25v1q-5.35 0.6-5.85-2.45" fill="url(#ad)" fill-rule="evenodd"/>
<path d="m6.45 38.5 0.35-1.65q3.8 0.4 7 2.4l-2.05 3.1q-1.75-2.75-5.3-3.85" fill="url(#ac)" fill-rule="evenodd"/>
<path d="m22.75 41.55q1.4-2.55 1.8-4.75l0.6-1.35q1.25-1.25 1.7 1.5-0.7 2.75-2 4.95-1.4 2.4-3.5 4.1l-0.15 0.2q-0.45 0.5-0.9 0.5l-0.6-0.3-0.05-0.05v-1q1.8-1.7 2.8-3.25l0.3-0.55" fill="url(#ab)" fill-rule="evenodd"/>
<path d="m26.05 42.5 1.15 0.6q1.15 1.15 0.95 1.95l-0.15 0.15-2.9-2.15-1.4 1.8-2.3 2.3-1.1-0.45q0.45 0 0.9-0.5l0.15-0.2q2.1-1.7 3.5-4.1l1.2 0.6" fill="url(#aa)" fill-rule="evenodd"/>
<path d="m77.7 55.75-0.4 0.9-0.05 0.05-0.05 0.1-0.75 1.05-3.25-1.25v-1.55l0.45 0.4 3.4 0.4 0.65-0.1" fill="url(#z)" fill-rule="evenodd"/>
<path d="m80.1 55.9-0.3 1.75q-2.15 1.65-4.4 1.95l-0.9 0.05 1.3-1.05 0.65-0.75 0.75-1.05 0.2-0.1q1.55 0.1 2.7-0.8" fill="url(#y)" fill-rule="evenodd"/>
<path d="m-29 26.8q-0.7-0.45 0.35-3.5l0.55-1.6q1.2-3.3 2.65-5.8l0.5-0.9 1.6-2.3q3.05-4.45 6.6-7.5l1.7-1.4q1.6-0.05 0.8 1.45l-0.3 0.5q-3.95 3.85-7.2 9.15-0.5 0.35-1.4 2.6-1.8 2.45-3.25 5.95l-0.55 1.45-0.7 1.5q-1 0.65-1.35 0.4" fill="url(#w)" fill-rule="evenodd"/>
<path d="m-21.75 14.9q3.25-5.3 7.2-9.15l0.3-0.5 0.1 1.8q-4 2.85-6.8 8.85l-0.8-1" fill="url(#v)" fill-rule="evenodd"/>
<path d="m-14.25 23.6 0.35 1.05h-1.5q-4.55-1.9-7.6-5.65l-2.85 4.95-0.55-0.5q1.45-3.5 3.25-5.95 3 3.1 7.3 5.8 1.25 0.65 1.6 0.3" fill="url(#u)" fill-rule="evenodd"/>
<path d="m-21.75 14.9 0.8 1q2.7 3.3 6.5 6.2 0.45 1.15 0.2 1.5-0.35 0.35-1.6-0.3-4.3-2.7-7.3-5.8 0.9-2.25 1.4-2.6" fill="url(#t)" fill-rule="evenodd"/>
<path d="m-24.95 15-0.5 0.9-1.9-3.25q-1.55-3.2-1.4-5.4l1-1.85-0.1 1q0.3 4.35 2.9 8.6" fill="url(#s)" fill-rule="evenodd"/>
<path d="m-23.35 12.7-1.6 2.3q-2.6-4.25-2.9-8.6l0.1-1q0.2-1.4 1.15-0.55 1.05 4.65 3.25 7.85" fill="url(#r)" fill-rule="evenodd"/>
<path d="m-33.15 40.55q-8.2-3.15-15.9-7.65l2.1-5.5q0.9-3.05 0-7.05l-0.25-0.5q2 3 3.05 1.5-1.65-6.85 0.7-12.4l-9.2 2.2-2.05-0.85-0.95-2.85 0.2-0.1q7.6 1.1 15.25-2.15l-0.5 1 1.25 0.4 1.25 0.35-0.7 1.4v2.1q-1.5 4.2-1.8 9.2-0.7 11.2 5.9 18.95l0.5 0.6 1.4 0.05q-0.7 0.65-0.25 1.2v0.1" fill="url(#q)" fill-rule="evenodd"/>
<path d="m-36.95 8.4q-5.85 18.9 4.35 29.55l-2.2 0.65q-6.6-7.75-5.9-18.95 0.3-5 1.8-9.2v-0.05h0.05l1.9-2" fill="url(#p)" fill-rule="evenodd"/>
<path d="m-25.85 23.95-1.15 3.1-1.4 0.7-0.6-0.95q0.35 0.25 1.35-0.4l0.7-1.5 0.55-1.45 0.55 0.5" fill="url(#o)" fill-rule="evenodd"/>
<path d="m-23.5 35.7q-0.35-1.75-0.25-3.7 0.15-2.15 1.2-2.6 0.8-0.25 0.95 1.5l0.65 4.7 0.3 1.4q0.6 2.45 1.9 3.35 1.35 0.95 0.2 1.85-1.25 0.45-1.75-0.5-2.1-2.15-2.95-4.95l-0.25-1.05" fill="url(#n)" fill-rule="evenodd"/>
<path d="m-27.85 37.25q2.4-1.8 4.35-1.55l0.25 1.05h-1.1q-2.2 0.2-2.85 1.7l-0.65-1.2" fill="url(#l)" fill-rule="evenodd"/>
<path d="m-24.35 36.75h1.1q0.85 2.8 2.95 4.95 0.5 0.95 1.75 0.5l-0.75 1.2-3.2-3-1.85-3.65" fill="url(#k)" fill-rule="evenodd"/>
<path d="m-20.95 35.6q7.5-3.2 9.95-1.55l0.05 1-0.8-0.1q-5.35-0.6-8.9 2.05l-0.3-1.4" fill="url(#j)" fill-rule="evenodd"/>
<path d="m-30.4 37.25q-1.05-1.9-1.65-4.15-0.5-2.15 0.4-2.6 0.7-0.25 1.4 1.5 1.1 2.8 2.4 5.25l0.65 1.2q1.2 2.15 2.7 3 1.65 0.95 0.75 1.85l-0.1 0.05-0.4 0.1-1-0.3-0.4-0.35q-2.5-1.95-4.1-4.45l-0.65-1.1" fill="url(#i)" fill-rule="evenodd"/>
<path d="m-32.6 37.95 2.2-0.7 0.65 1.1-0.6 0.15-2.55 0.75-1.4-0.05-0.5-0.6 2.2-0.65" fill="url(#h)" fill-rule="evenodd"/>
<path d="m-30.35 38.5 0.6-0.15q1.6 2.5 4.1 4.45l0.4 0.35 1 0.3 0.4-0.1-0.3 0.95-4-2.65-2.2-3.15" fill="url(#g)" fill-rule="evenodd"/>
<path d="m-11 34.05 0.2-2.3q0.25-1.25 0.95-2.35 0.2-0.95 1.6-0.45 1.45 0.85 0.45 1.8-0.4 0.35-0.55 1.2l-0.1 2.35 0.1 1.4 1 4.45q0.3 1.2-0.05 1.45l-0.35 0.05q-1.2-0.5-2.1-2.6-0.9-2.15-1.1-4l-0.05-1" fill="url(#f)" fill-rule="evenodd"/>
<path d="m-8.45 34.3 0.1-2.35q3.45 0.2 5.6 1.65-3.05-0.35-5.7 0.7" fill="url(#e)" fill-rule="evenodd"/>
<path d="m-11.75 34.95 0.8 0.1q0.2 1.85 1.1 4 0.9 2.1 2.1 2.6l0.35-0.05-0.4 1.3q-2.55-1.75-2.9-4.25l-1.05-3.7" fill="url(#d)" fill-rule="evenodd"/>
<path d="m-48.4 3.85q-3.45 1.25-8.2 0.6l-1.25-3.75 9.45 3.15" fill="url(#c)" fill-rule="evenodd"/>
<path d="m-57.4 9.2-0.9-3 2.35 0.25 0.3 1 0.95 2.85-2.7-1.1" fill="url(#ds)" fill-rule="evenodd"/>
<path d="m-54.7 10.3 2.05 0.85 9.2-2.2q-2.35 5.55-0.7 12.4-1.05 1.5-3.05-1.5l-0.75-1.15q-1.2-1.8-2.4-2.6h-0.3l-0.45 0.1-0.7-0.9q-1.1-1.05-2.85-1.15l0.25-2.95-0.3-0.9" fill="url(#dr)" fill-rule="evenodd"/>
<path d="m-55.85 15.85q-0.3-1.15 0.6-1.05l0.5 0.1 1.65 1 0.65 0.65v0.05l0.05 0.05 1.4 2.1q0.4 1.1 0 1.45l-0.4 0.15q-0.8-1.7-1.8-2.6l-0.1-0.1-0.55-0.4-0.15-0.1-0.15-0.05q-0.5-0.25-0.95-0.35l-0.45-0.05-0.3-0.85" fill="url(#dq)" fill-rule="evenodd"/>
<path d="m-80.2 45.5h-0.05q-4.7-3.65-2.55-13.85 11.25-13.4 25.15-17.1l0.85-0.25 2.15-0.15q1.75 0.1 2.85 1.15l-1.3 0.6-1.65-1-0.5-0.1q-0.9-0.1-0.6 1.05l-1.4 0.85 1.15 0.55-4.05 2.45q-1.1-0.85-2.3-1-1.35-0.15-0.35 1.9l-0.9 0.9 0.85 0.45-4.65 4.1q-1.3-0.8-2.75-0.95-1.65-0.15-0.4 1.9v0.05l-1.1 1 1.9 0.5-4.05 4.35q-1.65-1-3.5-1.2-1.7-0.15-0.65 1.6l-0.45 0.95 2.5 1.05-1.95 3.1-0.5 3-1.4-2.45q-1.45-0.3-0.95 1.4l0.55 3.1 2.65 2.35 0.2 0.95 0.15 0.55-0.15 0.2-2.8-2" fill="url(#dp)" fill-rule="evenodd"/>
<path d="m-55.85 15.85 0.3 0.85 0.45 0.05q0.45 0.1 0.95 0.35l-0.05 0.15-0.5 0.2-0.7 0.35q-1.7 0.9-3.55 2.25l-0.45 0.3v0.05l-0.75-0.7 4.05-2.45-1.15-0.55 1.4-0.85" fill="url(#do)" fill-rule="evenodd"/>
<path d="m-51 20.2q0.4-0.35 0-1.45l-1.4-2.1v-0.1l1.3-0.35 0.45-0.1h0.3q1.2 0.8 2.4 2.6l-1.45 5.7q-7.1 12.6-17.95 20.55l-6.55 3.95q-1.95 0.35-3.5-2.15l-0.2-0.95q1.35 1.8 3.1 1.45v-1.35q0.5-0.3 0-1.75-1.95-0.65-3.35-2.05v-0.05q0.15-2 0.95-3.9l2.05-2.5 2.35 2.55 1.15-0.95q1.45-0.1 0.55-1.6-1.05-1.3-2.2-2.15l4.25-4.65 3.45 3.25 0.4-1.45q1.25-0.1 0.5-1.6-0.95-1.3-2-2.2l-0.2-0.2 4.9-4.5 2.6 2.25 1.4 1.7 0.15-1.95 0.05-0.3q0.1-0.35-0.15-1l-0.05-0.2-1.5-2.05-0.2-0.25 0.45-0.3q1.85-1.35 3.55-2.25l0.7-0.35 2.2 2.35 1.35 2.15 0.15-1.75" fill="url(#dn)" fill-rule="evenodd"/>
<path d="m-54 17.15 0.15 0.1 0.55 0.4 0.1 0.1q1 0.9 1.8 2.6l0.4-0.15-0.15 1.75-1.35-2.15-2.2-2.35 0.5-0.2 0.2-0.1" fill="url(#dm)" fill-rule="evenodd"/>
<path d="m-52.45 16.55-0.65-0.65 1.3-0.6 0.7 0.9-1.3 0.35h-0.05" fill="url(#dl)" fill-rule="evenodd"/>
<path d="m-57.55 24.15-0.15 1.95-1.4-1.7-2.6-2.25 0.75-0.6 0.3-0.25 0.35 0.25q0.05 0 0.15 0.1l0.3 0.3q0.95 0.85 1.7 2.3l0.45-0.15 0.15 0.05" fill="url(#dk)" fill-rule="evenodd"/>
<path d="m-59.2 20.6 1.5 2.05 0.05 0.2q0.25 0.65 0.15 1l-0.2 0.25-0.45 0.15q-0.75-1.45-1.7-2.3l-0.3-0.3q-0.1-0.1-0.15-0.1l-0.35-0.25-0.2-0.1q-0.9-0.55-1.95-0.6-1-2.05 0.35-1.9 1.2 0.15 2.3 1l0.75 0.7 0.2 0.2" fill="url(#dj)" fill-rule="evenodd"/>
<path d="m-49.05 32.9q-6.05 13.6-17.15 19.25-5.55 2.2-8.85-1.15-1.05-1.1-1.9-2.8l-0.15-0.5-0.15-0.4-0.15-0.55q1.55 2.5 3.5 2.15l6.55-3.95q10.85-7.95 17.95-20.55l1.45-5.7 0.75 1.15 0.25 0.5q0.9 4 0 7.05l-2.1 5.5" fill="url(#dh)" fill-rule="evenodd"/>
<path d="m-61.7 22.15-4.9 4.5h-0.05l-0.85-0.6 4.65-4.1-0.85-0.45 0.9-0.9q1.05 0.05 1.95 0.6l-0.1 0.35-0.75 0.6" fill="url(#dg)" fill-rule="evenodd"/>
<path d="m-66.4 26.85q1.05 0.9 2 2.2 0.75 1.5-0.5 1.6-1.15-1.7-2.55-2.6l-0.35-0.25-0.15-0.05q-1.25-0.65-2.7-0.75-1.25-2.05 0.4-1.9 1.45 0.15 2.75 0.95l0.85 0.6 0.25 0.2" fill="url(#df)" fill-rule="evenodd"/>
<path d="m-64.9 30.65-0.4 1.45-3.45-3.25 0.75-0.8 0.2-0.25 0.35 0.25q1.4 0.9 2.55 2.6" fill="url(#de)" fill-rule="evenodd"/>
<path d="m-68 28.05-0.75 0.8-1.1-0.3-1.9-0.5 1.1-1v-0.05q1.45 0.1 2.7 0.75l-0.05 0.3" fill="url(#dd)" fill-rule="evenodd"/>
<path d="m-68.75 28.85-4.25 4.65-0.9-0.6 4.05-4.35 1.1 0.3" fill="url(#dc)" fill-rule="evenodd"/>
<path d="m-74.85 35.65-2.05 2.5q-0.8 1.9-0.95 3.9h-0.05l-0.55-0.65 0.5-3 1.95-3.1-2.5-1.05 0.45-0.95 0.2 0.3q2.05 0.1 3.8 1.15l-0.8 0.9" fill="url(#db)" fill-rule="evenodd"/>
<path d="m-73 33.5q1.15 0.85 2.2 2.15 0.9 1.5-0.55 1.6-1.2-1.6-2.7-2.5-1.75-1.05-3.8-1.15l-0.2-0.3q-1.05-1.75 0.65-1.6 1.85 0.2 3.5 1.2l0.9 0.6" fill="url(#da)" fill-rule="evenodd"/>
<path d="m-71.35 37.25-1.15 0.95-2.35-2.55 0.8-0.9q1.5 0.9 2.7 2.5" fill="url(#cz)" fill-rule="evenodd"/>
<path d="m-77.85 42.1q1.4 1.4 3.35 2.05 0.5 1.45 0 1.75-0.3 0.2-0.95 0-1.3-0.55-2.35-1.45l-1.4-1.45-1.6-2.65q-0.5-1.7 0.95-1.4l1.4 2.45 0.55 0.65 0.05 0.05" fill="url(#cy)" fill-rule="evenodd"/>
<path d="m-80.8 40.35 1.6 2.65 1.4 1.45 0.2 1.35-2.65-2.35-0.55-3.1" fill="url(#cw)" fill-rule="evenodd"/>
<path d="m-74.5 45.9v1.35q-1.75 0.35-3.1-1.45l-0.2-1.35q1.05 0.9 2.35 1.45 0.65 0.2 0.95 0" fill="url(#cv)" fill-rule="evenodd"/>
<path d="m-75.05 51q-2.1-0.9-3.6-2.85l-1.55-2.65 2.8 2 0.3 0.2 0.15 0.5q0.85 1.7 1.9 2.8" fill="url(#cu)" fill-rule="evenodd"/>
<path d="m5.8-29.95q2.2 0.55 2.35 4.3v1.7q0.05 5.65-1.4 9.3l-1.3-0.35q1.75-3.1 1.4-9.45 0.05-2.7-2.2-4.35 0.15-0.8 1.15-1.15" fill="#513300" fill-rule="evenodd"/>
<path d="m26.55-2.95 0.95-1 1.8 5.5-2-1.35-0.75-3.15m2.25-0.9 1.2-1.35 2.4 6.5-3.15-4 3.15 4 1.25 1.55 2.65 1.1 2.7 1.15-2.7-1.15-2.1-2.85q-1.6-2.55-2-4.85l3.3 3.55 0.7 0.9 0.15 0.2 2.65 4.2h0.05l1.65 0.65 0.05 0.2-1.1 0.45-1.95 0.9 0.6 0.4h-3.15q-4.6-1.25-7.5-5.95l-0.35-1.55 2 1.35 2 1.4-2.05-5.65-0.45-1.15m8.9 11.15-6.4-4.35 6.4 4.35m-67.5-10.75h-1.15l-0.1 0.15-1.8 1.5-3 2.55-0.4 1.6 6.45-5.8h1.1-1.1m1.15-1.6-0.05 1.6-0.8 0.65-1 0.8-0.7 0.65-1.1 1.05q-3.15 3.2-5.1 7.15 1.95-3.95 5.1-7.15l1.1-1.05-3.85 7.75-3.8 4-0.05-0.05v-2l0.7-1.4-1.25-0.35 2.3-5.35-0.7 0.5 1.2-2.05 3.75-3.15 4.25-1.6m-4.2 3.25-4.3 3.05 4.3-3.05m-4.55 8.65 0.75-2.9 0.4-1.6-0.4 1.6-0.75 2.9m0.75-2.9-1.55 3 1.55-3" fill="#330" fill-rule="evenodd"/>
<path d="m32.15-6.85 0.05 3.1q0.4 2.3 2 4.85l2.1 2.85-2.65-1.1-1.25-1.55-2.4-6.5 0.25-0.25 1.9-2.15v0.75m-4.65 2.9 0.9-1.05 0.4 1.15 0.45 1.15 2.05 5.65-2-1.4-1.8-5.5m-63.75 2.95 1.6-2.7 5.1-2.5 0.9-0.45v1.6l-4.25 1.6-3.75 3.15 0.4-0.7m0 3.35 0.4-1.6 3-2.55 1.8-1.5 0.1-0.15h1.15l-6.45 5.8m-1.6-0.6 0.7-0.5-2.3 5.35-1.25-0.4 0.5-1 1.25-2.7 1.1-0.75" fill="#360" fill-rule="evenodd"/>
<path d="m37.35-22.4 0.6-2.55h1.1l-0.4 2.75 1.75 0.25q1.3-2.4 2.75-4.5-19.6-4.15-37-3.6m31.2 7.65-2.6 11.05-1.3 2.25-0.35 0.6-0.2 0.4-0.75 1.25 0.05 3.1q0.4 2.3 2 4.85l2.1 2.85-2.65-1.1-1.25-1.55m-26.95-16.3 1.3 0.35m-4.75-15.25q-14.85 0.55-29.65 3.85l-0.65 5.6 0.45-0.1 1.95-3.35 0.45 0.25 1.25 0.7-1.25 1.95m32.8 6.55-0.6-0.2m-9.55 0.1 0.65-0.4q3.85-0.8 7.4-0.1l0.2 0.05m-1.95 1.1-1.3 0.8 2.7 0.8 0.85 0.35q1.05 0.45 1.05 1.45 0.4 0.95-0.1 1.2m-13 9.3 0.9-3.6m1.7-3.55 2-2.6m-4.25-1.25q-0.85-0.45-0.35-1.35l1.1-0.65 1.9-0.3 5.5 0.2m-3 2.4q3.1 0.25 6.05 1.25l1.45 0.15m33.2-11.75 0.5-0.9m-2.35 3.75 0.6-4m30-6.85-0.85-3.95q-5.7 5.5-13.35 9.35l-0.85 0.4m-15.2 5.1 1.5-2.9m9.75-12.45-0.5-0.4q-3.2 3.15-6 7.45m-10.95 18.1q0.15-7-3.05-9.35l1.15-1 1.1-1.05q2.7 4.3 2.05 10.65m-6.9 6.15 0.95-1 0.9-1.05 0.4 1.15 1.2-1.35 0.25-0.25 1.9-2.15 0.05-0.75m-3.4 4.5 0.45 1.15 3.15 4m-0.25-8.9v0.75m42.05-34.75 1.05 0.95q-7.75 1.9-15.5 10.85l-5.65 6.05 0.35 0.1m19.75-17.95-1-0.9-7.85 3.7-18.3 13.25-1.1 0.75m33.2-9.15 0.6 0.95q-3.9 4.2-9.6 7.3l1 1.3-3.7 4.95 1.3 0.45 5.75-4.65 0.6 1.5-3.9 4.1 1.95 0.75q3.25 1.3 2.7 4.45l-0.2 0.75-0.95 2.6q-3.35 9.8-2.55 18.7l5 12.65q0.35 2.1 0.1 3.75-0.3 2.1-1.45 3.45l0.9 1.05q8 8.65 6.5 18.4-0.5 3.45-1.55 5.45v0.05q-0.7 1.25-1.55 1.9l-0.3 1.75q-2.15 1.65-4.4 1.95l-0.9 0.05-0.8 0.45q-14.15 2.35-15.45-10.4l-4.1-11.35-1.5-4.05q-0.7-6.4 0.9-9.15m-102.6 7.75q-6.05 13.6-17.15 19.25-5.55 2.2-8.85-1.15-2.1-0.9-3.6-2.85l-1.55-2.65h-0.05q-4.7-3.65-2.55-13.85 11.25-13.4 25.15-17.1 0.25-2.4 0.25-5.35l-0.9-3-2.45-8-1.15-3.75v-0.05q-2.9-3.25-5.4-8l0.9-1.3 0.85-1.25 4.9 3.15 0.2-0.4-1.95-3.25q-5-9.1-7.8-19.5l0.7-1.1 0.65-1.05q6.45 12.4 16.35 19.35-8.85-13.6-14.05-29.05l0.6-0.85 1.15-1.65q3.15 9.4 9.15 18.25l4.9 6.45q-2.95-12.3-9.55-21.8l1-0.6 0.95-0.55q6 6.05 11.1 16.6l1.1 2.4 0.25 0.55-0.2-0.55q-2.6-7.1-2.95-17.1h2.55l0.6 4.15 1.1-0.4m0.05-0.05 1.35-0.55 0.75-0.3q-2.5-8.15-6.6-14.7l1-0.9 0.95-0.85q5.7 8.15 10.5 18.85l1.5 3.5q-1.1-6.3-3.45-10.85l1.2-0.5 1.15-0.5q3.55 7.4 5.55 15.2l0.7 3.05q0.15-5.65-1.4-11.65h1.55q2.9 7.1 2.7 14.2l-0.35 3.1m96.3-3q6.75-1.9 9.95-5.8l0.55 0.9m-33 8.15-0.2 1m0.2-1 0.9 0.25m2.6-7.95 0.95 0.7q-3.5 2-4.45 7m7.95 2.05-0.5 0.5m18.95 12.05-0.7-1.3m-7.25-3.15 0.35-0.4v-0.05l2.5-3.35m-5.95 22.8 2-1.25h-5.35l9.85-5.05q1.6-0.9 2.95-1.95l0.75-0.65q1.9-1.8 3-3.95m-2.15-1.7 2.15-3.1 0.8 1.8 0.15 0.4m-11.05-3.55 0.45-0.35-0.1-0.05m2.85 1.5-2.95 3.05 3.8-2.2 1.85-1.2 1.35 2.4m-6.8-3.5 3.7-3m-0.95 4.45 3.4-3.5m6.65 65.15 0.25 1.2m-0.4 7.45-0.4 0.9-0.05 0.05h0.15l-0.2 0.1-0.75 1.05m0.95-1.15q1.55 0.1 2.7-0.8m-4.8-27.35 0.5 0.5m-8.9-6.35q-3.4-1.25-7.15-1.2l-1.7 1-0.95 0.5q2.3 0.6 4.4 1.7m-20.75-18.75 0.15-0.1-0.2-0.1-1.65-0.65h-0.05l-2.7-1.15m4.6 1.8h-0.2m8-1.7q5.8-0.3 11.45 0.1l1.35-0.8m14.3 55.25 0.65-0.75m1.9-4.55 0.1-2.4-0.35-2.6m-24.4-23.45q1.15-1.8 3.4-1.85m13.45 9.65 0.8 1.05h0.05l2.6 3.8m-9.9-11.1-0.8-0.55m5.85 5.25-2.85-2.8-2.2-1.9m11.5 14.2-0.6-1.3m0.65 1.4-0.05-0.1m0.05 0.1 1.2 2.9 0.45 1.4m-2-16.45q-3.85-4.15-8.4-5.85m-27.25-16.3-1.95 0.9 0.6 0.4h-3.15q-4.6-1.25-7.5-5.95l-0.35-1.55-0.75-3.15m-0.5 45.45 1.15 0.6q0.9 0.5 2.15 0.6m10.3-37.3 1.1-0.45m-9.45-3 6.4 4.35m-8.4-5.75-2-1.35m4 2.75-2-1.4m-12.85 36.9 0.8 0.2q4.1 1.1 5.5 2.9m2.1 0.35 1.2 0.6m-20.25-6.7 1 0.15q4.9 0.65 7.35 2.5m14 6.6q0.2-0.8-0.95-1.95m48.6 15.5-1.3 1.05m2.75-2.95-0.05 0.1m-38.15-51.7 9.65-1.05m-19.45-6.75 2.05 5.65m-73.25-35 1.05-0.6m-20.95 27.1-0.05-0.05m25.65 4.6 1.6-2.7 5.1-2.5v-2.05l-0.05-2.05q1.65-6.55 4.15-10.7m-19.9 23.3-1.75 1-1.3 0.55q-3.45 1.25-8.2 0.6l0.4 1m-4.45-18.45 0.7 0.45-0.5-0.85m15.1 15.7-11.25-3.5-2.45-1.7-2.8-2.65m33.45-14.05 0.55-0.95m-0.45 0.1-0.1 0.85m-1.4 16.15h-1.15l-0.1 0.15-1.8 1.5-3 2.55-0.8 3.2-0.75 2.9m7.6-10.3h1.1l0.05-1.6m-8 4.75-1.2 2.05 0.7-0.5 4.3-3.05m1.65 0.45-3.85 7.75-1.9 2m7.95 18.4q-0.7-0.45 0.35-3.5l0.55-1.6m-1.45-27.9 0.9-0.45v1.6m25.4-9.45 0.45-0.05m2 3.85-0.9 0.95m-4.25-1.25 0.55 0.2 0.1 0.15 4.5-0.05m-4.2 6.15-0.4 0.95m-8.85 8.85-0.3 0.5q-3.95 3.85-7.2 9.15l0.8 1q2.7 3.3 6.5 6.2 0.45 1.15 0.2 1.5-0.35 0.35-1.6-0.3-4.3-2.7-7.3-5.8-1.8 2.45-3.25 5.95l-0.55 1.45-0.7 1.5q-1 0.65-1.35 0.4m14.75-21.55q0.8-1.5-0.8-1.45l-1.7 1.4q-3.55 3.05-6.6 7.5l-1.6 2.3-0.5 0.9q-1.45 2.5-2.65 5.8m4.75-9q-2.2-3.2-3.25-7.85-0.95-0.85-1.15 0.55l-0.1 1q0.3 4.35 2.9 8.6m-15.25-9.8 1.25-2.7 1.1-0.75m-1.05 8.6v-2l0.7-1.4-1.25-0.35-1.25-0.4 0.5-1q-7.65 3.25-15.25 2.15l-0.75-1.9m9 14.4 0.25 0.5q0.9 4 0 7.05l-2.1 5.5m10.15-22.45v-0.1m0 0.05h0.05l1.9-2m-1.25-1.45 1.55-3m14.9 10.95q-0.5 0.35-1.4 2.6m-1.2 19.25h1.1m-9.9 3.7q-0.45-0.55 0.25-1.2l-1.4-0.05m3.95-0.7 0.6-0.15m-0.6 0.15-2.55 0.75m5.7-0.8q0.65-1.5 2.85-1.7m16-1.05q4.9-2.4 11.1 0.6m-13.7-1.25-0.8-0.1m-8.9 2.05q3.55-2.65 8.9-2.05m-40.05-19.65q-1.1-1.05-2.85-1.15l-2.15 0.15-0.85 0.25m2.95 2.9-0.7 0.35q-1.7 0.9-3.55 2.25l-0.45 0.3m-2.3 1.8-4.9 4.5m-2.15 2.2-4.25 4.65m-1.85 2.15-2.05 2.5q-0.8 1.9-0.95 3.9v0.05m0.25 3.7 0.2 0.95m29.45-28.05q-1.2-1.8-2.4-2.6m-0.3 0-0.45 0.1-1.3 0.35h-0.05m-1.55 0.6-0.2 0.1-0.5 0.2m2.9-2.15 0.7 0.9m-9.55 5.1-0.3 0.25-0.75 0.6m2.3-1.75v-0.05m11.45-1.65 0.75 1.15m-19.45 6.8h0.05m-1.2 1.15-0.2 0.25-0.75 0.8m-5.3 5.9-0.8 0.9m-2.75 10.15-0.2-1.35m0.7 3.25 0.15 0.5q0.85 1.7 1.9 2.8m-2.2-3.7 0.15 0.4-0.3-0.2-2.8-2m2.95 1.8-0.15-0.55" fill="none" stroke="#000" stroke-linecap="round" stroke-linejoin="round" stroke-opacity=".4" stroke-width=".5"/>
<path d="m6.15-30.05-0.35 0.1q-1 0.35-1.15 1.15 2.25 1.65 2.2 4.35 0.35 6.35-1.4 9.45m-0.8-13.8q-1.1-0.55-2.15-1.15l-0.5 0.05m-4.8 15.35q6.85-0.35 6.3 0.65l3.85-0.55m-10.1 7.5q1.65 0.35 3.2 1.05 1.05 0.45 1.05 1.45 0.4 0.9-0.05 1.15m-12.95-1.85q-0.5-0.45-0.1-1.15l1.1-0.65 6.8-0.2 0.95 0.2m33 1.5q-2.95-2.65-5.95-4.5m-0.7-0.45q-7.9-4.65-16.25-4.05m24.85 10.7 3.3 3.55 0.7 0.9 0.15 0.2 2.65 4.2m15.15 33.25-6.75 2.15-10.25 2.8-8.95 1.85-0.2 0.05q-11.8 7.95-27.05 8.2-17.4 0.3-30-9.25l-4-3.55-0.1-0.05q-8.2-3.15-15.9-7.65m131.1 13.95q-1.65-0.3-3.2 0l-1 0.25m4.2-0.25q0.8-0.8-0.35-1.65l-3.4-0.35-0.3 0.05-0.7 0.1q-1.75 0.45-3.45 1.8-0.65 2.15 0.1 2.2l0.45-0.1q1.65-1.3 3.45-1.8m1.2 5.85 1.9-1.2q0.9-0.4 0.8 0.8l-0.3 1.35q-1.85 1.4-3.75 1.85l-0.65 0.1-3.4-0.4-0.45-0.4q-0.55-0.65 0.1-1.25 1.6 0.3 3.2 0.05l1.85-0.55 0.7-0.35m-16.75-28.75q2.2-1.25 4.5-1.2m-4.5 1.2-0.8 0.5q-1.4 0.95-2.7 2.35-0.75 2.65 0.3 2.1l0.25-0.15q1.95-2.05 3.95-3.15 1.85-1.05 3.85-1.3 0.8-1.05-0.35-1.55m3.25 7.75q2.25-0.85 4.55-0.8l0.15 0.05q1.3 0.5 0.35 1.5h-0.05q-2.3 0.2-4.5 1.15-2.75 1.15-5.3 3.3l-0.85 0.25q-0.45-0.2 0-1.65l0.15-0.55q2.25-1.9 4.6-2.9l0.9-0.35m4.75 6.5 3.6-0.1q1.1 0.6 0.55 1.4m-4.95-1.05 0.8-0.25m0.2 2.05q-2.3 0.8-4.45 2.65l-0.25 0.1q-1.1 0.35-0.3-2.15 1.95-1.7 4-2.4m1 1.8q1.85-0.65 3.75-0.55l0.2-0.2m-49.6 5.15 0.95-0.65q12-10.05 12-24.25 0-6.65-2.65-12.4m-19.55 7.4q1.8-2.7 2.9-6.8l0.35-1.4q0.7-0.5 0.95 0.55m-2.3 10.65q1.8 3.2 3.2 7.6 1.05 3.1 0.35 3.5m-14.05-3.1q-0.6-0.1-0.05-1.6 3.7-2.95 6.4-6.3l0.7-0.9q0.45 0.35 1.35 2.6 2.05 2.95 3.65 7.4l0.7 1.5q0.9 0.6 1.3 0.4m-14.5-22.2q-0.2-0.85 1-0.8l1.65 1.4 0.2 0.2q3.3 3 6.2 7.3l1.5 2.3q2.5-4.25 2.85-8.6l-0.05-0.4-0.1-0.95m-2.7 9.95 0.4 0.7m-10.95-11.1 0.2 0.6 0.35 0.55q3.8 3.85 6.95 9.15m-7.05 8.8q0.4 0.1 1.3-0.4 4.15-2.7 7.1-5.8m-5.35 18.95 1.1-4.15 0.6-1.6q1.25-1.45 1.7 1.8-0.55 2.65-1.5 4.85m6.3 3.1q1.4-2.55 1.8-4.75l0.6-1.35q1.25-1.25 1.7 1.5-0.7 2.75-2 4.95-1.4 2.4-3.5 4.1l-0.15 0.2q-0.45 0.5-0.9 0.5l-0.6-0.3-0.05-0.05v-1q1.8-1.7 2.8-3.25l0.3-0.55m-16.9-6.85-0.05 1.1m8.35 2.65 0.4-0.9m-8.7-2.85-0.25-2.65q-0.45-2.45-1.7-3.25-0.9-0.5-0.9 1.35l-0.15 5.25-0.1 0.9q-0.3 2.8-1.75 3.45t0.05 2l0.65 0.35q0.9 0.3 1.25-0.35 2.55-2.1 2.85-5.95m8 3.45 0.35-0.8m-0.35 0.8-2.05 3.1-1 1.15v1.2l0.6 0.4q0.55 0.1 1.1-0.8 2.45-2.4 4-5.85m11.55 6.75 0.15-0.15m-59.35-46.4 0.7-0.65 1-0.8 0.8-0.65 7.5-5.2 1.1-0.75q6.95-4.45 15.25-5l1.6-0.1m-34.15 21.35q1.95-3.95 5.1-7.15l1.1-1.05m0.8 38.6q-1.05-1.9-1.65-4.15-0.5-2.15 0.4-2.6 0.7-0.25 1.4 1.5 1.1 2.8 2.4 5.25m4.35-1.55q-0.35-1.75-0.25-3.7 0.15-2.15 1.2-2.6 0.8-0.25 0.95 1.5l0.65 4.7m9.95-1.55 0.2-2.3m-0.7-36.9 0.8 0.4 0.1 0.15q2.85-0.3 5.6 0.05l4.95 1.15 1.5 0.1m-40.35 13.65v0.1q-1.5 4.2-1.8 9.2-0.7 11.2 5.9 18.95m11.55-1.85-0.25-1.05m2.85 1.3-0.3-1.4m-12.1 5-0.1-0.15m-1.15-1.25-0.5-0.6m10.95 4.75 0.1-0.05q0.9-0.9-0.75-1.85-1.5-0.85-2.7-3l-0.65-1.2m-1.9 1.1-0.65-1.1m0.65 1.1q1.6 2.5 4.1 4.45l0.4 0.35 1 0.3 0.4-0.1m5.3-1.15q-1.25 0.45-1.75-0.5-2.1-2.15-2.95-4.95m14.9-4.8-0.1 2.35 0.1 1.4 1 4.45q0.3 1.2-0.05 1.45l-0.35 0.05q-1.2-0.5-2.1-2.6-0.9-2.15-1.1-4l-0.05-1m2.65-2.1q0.15-0.85 0.55-1.2 1-0.95-0.45-1.8-1.4-0.5-1.6 0.45-0.7 1.1-0.95 2.35m-7.75 10.45q1.15-0.9-0.2-1.85-1.3-0.9-1.9-3.35m-32.45-21.1-1.65-1-0.5-0.1q-0.9-0.1-0.6 1.05l0.3 0.85 0.45 0.05q0.45 0.1 0.95 0.35l0.15 0.05 0.15 0.1 0.55 0.4 0.1 0.1q1 0.9 1.8 2.6l0.4-0.15q0.4-0.35 0-1.45l-1.4-2.1-0.05-0.05v-0.05l-0.65-0.65m-6.1 4.7 1.5 2.05 0.05 0.2q0.25 0.65 0.15 1l-0.2 0.25-0.45 0.15q-0.75-1.45-1.7-2.3l-0.3-0.3q-0.1-0.1-0.15-0.1l-0.35-0.25m-5.75 5.55q1.05 0.9 2 2.2 0.75 1.5-0.5 1.6m-8.1 2.85q1.15 0.85 2.2 2.15 0.9 1.5-0.55 1.6m-6.5 4.85q1.4 1.4 3.35 2.05 0.5 1.45 0 1.75m15.25-25.35 0.05 0.05m-0.05-0.05-0.15-0.15-0.75-0.7q-1.1-0.85-2.3-1-1.35-0.15-0.35 1.9 1.05 0.05 1.95 0.6l0.2 0.1m-6.85 4.75 0.85 0.6m-1.15 1.15 0.35 0.25q1.4 0.9 2.55 2.6m-3.05-2.9 0.15 0.05m-6.1 5.1 0.9 0.6m6.6-6.65-0.25-0.2m-4 0.35q-1.25-2.05 0.4-1.9 1.45 0.15 2.75 0.95m-0.45 1.7q-1.25-0.65-2.7-0.75m-3.25 5.9q-1.65-1-3.5-1.2-1.7-0.15-0.65 1.6l0.2 0.3q2.05 0.1 3.8 1.15 1.5 0.9 2.7 2.5m-7.1 4.15 0.55 0.65m-2.9-1.7 1.6 2.65 1.4 1.45q1.05 0.9 2.35 1.45 0.65 0.2 0.95 0m-3.95-4.5-1.4-2.45q-1.45-0.3-0.95 1.4m2.95 1.75-0.05-0.05" fill="none" stroke="#000" stroke-linecap="round" stroke-linejoin="round" stroke-opacity=".4" stroke-width=".5"/>
<path d="m24.3-9.95-0.7-0.45m8.6 2.05 0.7 0.25m-0.7-0.25-7.9-1.6m-44.4 0.55-9.45 1.15" fill="none" stroke="#000" stroke-linecap="round" stroke-linejoin="round" stroke-opacity=".4"/>
<path d="m8.15-23.95q14.5-0.7 29.2 1.55m-62.8 1.4q16.1-3.2 32.3-3.45" fill="none" stroke="#fdb100" stroke-linecap="round" stroke-linejoin="round" stroke-opacity=".4"/>
<path d="m-42.9-33.8q-2.05-4.05-3-8.9m5.05 27.3-2.15-16.1 1.05-0.55-0.95-1.75m2 1.15q0.95 5.2 2.25 9.45l1.6 4.7 1.2 2.75m-6.3-3.25-3.75-10.2m-0.45 13.85-0.25-0.15-1-0.45-4.6-2.8-0.3-0.2m10.75 1.05 0.9 2.5 0.75 5.85 3.85 8.55m-5.5-16.9-0.4-1.1m-8.6-6.8q2.5 2.85 4.9 4.8l1.85 1.35m3.9 10.1q-5.7-1.7-11.35-4.9l-4.65-2.85-1.7-1.15-1.05 1.15-1.1 1.15 0.75 1q2.8 3.6 6.2 6.35 1.3 1.1 2.75 2.05 2.95 1.9 6.25 3.25l-10.1-2.35v2.75q4.85 3.8 11.1 4.05l-2.35 1.35m4.35-2.5-2 1.15m6.35-1.25 0.4-0.7m-23.7-11.55 3.15 2.05m26.65-21.2q-0.05 2.55-0.45 5m-4.7-11.4 0.45 3.2 1.15 14.85m5.3 0.45-2.55 4.4m-11.7-28.8 3.7 12.9" fill="none" stroke="#686815" stroke-linecap="round" stroke-linejoin="round" stroke-opacity=".4" stroke-width=".5"/>
<path d="m38.4-18.15-0.15 0.75-2.55 10 5.95-10.45 1.05 0.7m0.05 0 1.15 0.75-6.45 12.4 1.75-1.45q6.5-5.65 10.15-11l1.45-1.6 0.6-0.5 1.3-1 4.55-3.3q5.55-3.75 11.4-6.2m-15.05 5.8-6.35 6.7m-11.75 16.35 1.95-3.8m-1.1 4.9 4.4-1.2 2.45-0.7 4.8-3.7 4.7-3.65-0.45-0.65-0.4-0.6-0.85-1.2-4.3 2.8 5.05-6.5-1.2-0.95-1.2-1m-6.6 16.25-2-0.1m2.45-0.7 7.1-1.95 14.5-3.35q4.45-0.9 7.75-4.9m-19.9 5.25-4.65 1.25m7.9-2.45 4.55-2.05 4.4-2.3m-8.95 4.35-3.25 1.2m17.5-19.75-9.65 7.25-8.65 8.85m11.1-4.45 1.65-1.6m-6.45 17.75h-5.3l1.9-3.55q-6 1.45-12 1.25m20.2-13.85-7.05 6.9" fill="none" stroke="#686815" stroke-linecap="round" stroke-linejoin="round" stroke-opacity=".4" stroke-width=".5"/>
<path d="m73.2-42.5 2.05 1.85q-7.75 1.9-15.5 10.85l-5.65 6.05 0.35 0.1q7.65-3.85 13.35-9.35l0.85 3.95q6.75-1.9 9.95-5.8l1.15 1.85q-3.9 4.2-9.6 7.3l1 1.3-3.7 4.95 1.3 0.45 5.75-4.65 0.6 1.5-3.9 4.1 1.95 0.75q3.25 1.3 2.7 4.45l-0.2 0.75-0.95 2.6q-3.35 9.8-2.55 18.7l5 12.65q0.35 2.1 0.1 3.75-0.3 2.1-1.45 3.45l0.9 1.05q8 8.65 6.5 18.4-0.5 3.45-1.55 5.45v0.05q-0.7 1.25-1.55 1.9l-0.3 1.75q-2.15 1.65-4.4 1.95l-0.9 0.05-0.8 0.45q-14.15 2.35-15.45-10.4l-4.1-11.35-6.75 2.15-10.25 2.8-8.95 1.85-0.2 0.05q-11.8 7.95-27.05 8.2-17.4 0.3-30-9.25l-4-3.55-0.1-0.05q-8.2-3.15-15.9-7.65-6.05 13.6-17.15 19.25-5.55 2.2-8.85-1.15-2.1-0.9-3.6-2.85l-1.55-2.65h-0.05q-4.7-3.65-2.55-13.85 11.25-13.4 25.15-17.1 0.25-2.4 0.25-5.35l-4.5-14.75v-0.05q-2.9-3.25-5.4-8l1.75-2.55 4.9 3.15 0.2-0.4-1.95-3.25q-5-9.1-7.8-19.5l1.35-2.15q6.45 12.4 16.35 19.35-8.85-13.6-14.05-29.05l1.75-2.5q3.15 9.4 9.15 18.25l4.9 6.45q-2.95-12.3-9.55-21.8l1.95-1.15q6 6.05 11.1 16.6l1.1 2.4 0.25 0.55-0.2-0.55q-2.6-7.1-2.95-17.1h2.55l0.6 4.15 1.1-0.4 0.05-0.05 2.1-0.85q-2.5-8.15-6.6-14.7l1.95-1.75q5.7 8.15 10.5 18.85l1.5 3.5q-1.1-6.3-3.45-10.85l2.35-1q3.55 7.4 5.55 15.2l0.7 3.05q0.15-5.65-1.4-11.65h1.55q2.9 7.1 2.7 14.2l-0.35 3.1q35.55-7.85 70.8-0.4 2.8-4.3 6-7.45l1.45 1.1q-3.5 2-4.45 7l0.9 0.25 18.3-13.25 7.85-3.7m4.05 99.2-0.05 0.1 0.2-0.1-0.1-0.05-0.05 0.05m-145.05-28.9-0.15-0.05-0.05 0.3 0.2-0.25m6.95-6.6-0.1 0.35 0.3-0.25-0.2-0.1m1.45-0.85v0.05l0.15 0.15-0.15-0.2m-7 6.5-0.2-0.2h-0.05l0.25 0.2m-11.5 15.2 0.05 0.05v-0.05h-0.05m0.5 5.45 0.3 0.2-0.15-0.4-0.15 0.2" fill="url(#ct)" fill-rule="evenodd"/>
<path d="m3.25-30q-15.4 0.5-30.9 3.95l0.35-3.1q0.2-7.1-2.7-14.2h-1.55q1.55 6 1.4 11.65l-0.7-3.05q-2-7.8-5.55-15.2l-2.35 1q2.35 4.55 3.45 10.85l-1.5-3.5q-4.8-10.7-10.5-18.85l-1.95 1.75q4.1 6.55 6.6 14.7l-2.1 0.85-0.05 0.05-1.1 0.4-0.6-4.15h-2.55q0.35 10 2.95 17.1l0.2 0.55-0.25-0.55-1.1-2.4q-5.1-10.55-11.1-16.6l-1.95 1.15q6.6 9.5 9.55 21.8l-4.9-6.45q-6-8.85-9.15-18.25l-1.75 2.5q5.2 15.45 14.05 29.05-9.9-6.95-16.35-19.35l-1.35 2.15q2.8 10.4 7.8 19.5l1.95 3.25-0.2 0.4-4.9-3.15-1.75 2.55q2.5 4.75 5.4 8v0.05l4.5 14.75q0 2.95-0.25 5.35-13.9 3.7-25.15 17.1-2.15 10.2 2.55 13.85h0.05l1.55 2.65q1.5 1.95 3.6 2.85 3.3 3.35 8.85 1.15 11.1-5.65 17.15-19.25 7.7 4.5 15.9 7.65l0.1 0.05 4 3.55q12.6 9.55 30 9.25 15.25-0.25 27.05-8.2l0.2-0.05 8.95-1.85 10.25-2.8 6.75-2.15 4.1 11.35q1.3 12.75 15.45 10.4l0.8-0.45 0.9-0.05q2.25-0.3 4.4-1.95l0.3-1.75q0.85-0.65 1.55-1.9v-0.05q1.05-2 1.55-5.45 1.5-9.75-6.5-18.4l-0.9-1.05q1.15-1.35 1.45-3.45 0.25-1.65-0.1-3.75l-5-12.65q-0.8-8.9 2.55-18.7l0.95-2.6 0.2-0.75q0.55-3.15-2.7-4.45l-1.95-0.75 3.9-4.1-0.6-1.5-5.75 4.65-1.3-0.45 3.7-4.95-1-1.3q5.7-3.1 9.6-7.3l-1.15-1.85q-3.2 3.9-9.95 5.8l-0.85-3.95q-5.7 5.5-13.35 9.35l-0.35-0.1 5.65-6.05q7.75-8.95 15.5-10.85l-2.05-1.85-7.85 3.7-18.3 13.25-0.9-0.25q0.95-5 4.45-7l-1.45-1.1q-3.2 3.15-6 7.45-18.85-4-37.8-3.6-1.05 2.45-2.1 0.05m-62.5 50.55-0.15-0.15v-0.05l0.15 0.2m-1.6 0.65 0.2 0.1-0.3 0.25 0.1-0.35m-7.15 6.85 0.05-0.3 0.15 0.05-0.2 0.25m1.4-1.4h-0.05l0.25 0.2-0.2-0.2m-11.3 15.4h0.05v0.05l-0.05-0.05m0.5 5.45 0.15-0.2 0.15 0.4-0.3-0.2m154.6 9.3 0.2-0.1-0.1-0.05-0.05 0.05-0.05 0.1" fill="none" stroke="#000" stroke-linecap="round" stroke-linejoin="round" stroke-opacity=".4"/>
</g>
<linearGradient id="dv" x1="-819.2" x2="819.2" gradientTransform="matrix(.0153 0 0 .0358 -36.75 -30.3)" gradientUnits="userSpaceOnUse">
<stop stop-color="#cfc77c" offset="0"/>
<stop stop-color="#a39843" offset=".99216"/>
</linearGradient>
<linearGradient id="du" x1="-819.2" x2="819.2" gradientTransform="matrix(.005 0 0 .0192 -44.95 -31.15)" gradientUnits="userSpaceOnUse">
<stop stop-color="#cfc77c" offset="0"/>
<stop stop-color="#a39843" offset=".99216"/>
</linearGradient>
<linearGradient id="cl" x1="-819.2" x2="819.2" gradientTransform="matrix(.0148 0 0 .02 -53.85 -34.1)" gradientUnits="userSpaceOnUse">
<stop stop-color="#cfc77c" offset="0"/>
<stop stop-color="#a39843" offset=".99216"/>
</linearGradient>
<linearGradient id="ca" x1="-819.2" x2="819.2" gradientTransform="matrix(.0184 0 0 .0174 -55.15 -23.05)" gradientUnits="userSpaceOnUse">
<stop stop-color="#cfc77c" offset="0"/>
<stop stop-color="#a39843" offset=".99216"/>
</linearGradient>
<linearGradient id="bp" x1="-819.2" x2="819.2" gradientTransform="matrix(.0144 0 0 .0212 -54.8 -31.45)" gradientUnits="userSpaceOnUse">
<stop stop-color="#cfc77c" offset="0"/>
<stop stop-color="#a39843" offset=".99216"/>
</linearGradient>
<linearGradient id="be" x1="-819.2" x2="819.2" gradientTransform="matrix(.0148 0 0 .0105 -55.15 -6.3)" gradientUnits="userSpaceOnUse">
<stop stop-color="#cfc77c" offset="0"/>
<stop stop-color="#a39843" offset=".99216"/>
</linearGradient>
<linearGradient id="at" x1="-819.2" x2="819.2" gradientTransform="matrix(.0035 .002 -.001 .0018 -59.8 -2.5)" gradientUnits="userSpaceOnUse">
<stop stop-color="#543201" offset="0"/>
<stop stop-color="#653d01" offset=".99216"/>
</linearGradient>
<linearGradient id="ai" x1="-819.2" x2="819.2" gradientTransform="matrix(.0145 0 0 .0159 -48.1 -5.4)" gradientUnits="userSpaceOnUse">
<stop stop-color="#cfc77c" offset="0"/>
<stop stop-color="#a39843" offset=".99216"/>
</linearGradient>
<linearGradient id="x" x1="-819.2" x2="819.2" gradientTransform="matrix(.008 0 0 .0033 -47.55 -1.8)" gradientUnits="userSpaceOnUse">
<stop stop-color="#cfc77c" offset="0"/>
<stop stop-color="#a39843" offset=".99216"/>
</linearGradient>
<linearGradient id="m" x1="-819.2" x2="819.2" gradientTransform="matrix(.0038 .0022 -.0015 .0026 -49.2 2.8)" gradientUnits="userSpaceOnUse">
<stop stop-color="#543201" offset="0"/>
<stop stop-color="#653d01" offset=".99216"/>
</linearGradient>
<linearGradient id="dt" x1="-819.2" x2="819.2" gradientTransform="matrix(.0035 .013 -.0161 .0043 -27.65 21.65)" gradientUnits="userSpaceOnUse">
<stop stop-color="#bb8e4d" offset="0"/>
<stop stop-color="#bd8853" offset="1"/>
</linearGradient>
<linearGradient id="di" x1="-819.2" x2="819.2" gradientTransform="matrix(0 -.0063 .0409 0 3.85 -16.7)" gradientUnits="userSpaceOnUse">
<stop stop-color="#543201" offset="0"/>
<stop stop-color="#653d01" offset=".99216"/>
</linearGradient>
<linearGradient id="cx" x1="-819.2" x2="819.2" gradientTransform="matrix(.017 .017 -.0261 .0261 .45 7.4)" gradientUnits="userSpaceOnUse">
<stop stop-color="#cdb37a" offset="0"/>
<stop stop-color="#cba473" offset="1"/>
</linearGradient>
<linearGradient id="cs" x1="-819.2" x2="819.2" gradientTransform="matrix(.0042 0 0 .0026 0 -11.35)" gradientUnits="userSpaceOnUse">
<stop stop-color="#d8e17b" offset="0"/>
<stop stop-color="#95951e" offset=".99216"/>
</linearGradient>
<linearGradient id="cr" x1="-819.2" x2="819.2" gradientTransform="matrix(.0022 0 0 9e-4 2.95 -14.65)" gradientUnits="userSpaceOnUse">
<stop stop-color="#d8e17b" offset="0"/>
<stop stop-color="#95951e" offset=".99216"/>
</linearGradient>
<linearGradient id="cq" x1="-819.2" x2="819.2" gradientTransform="matrix(.0048 0 0 .0026 -5.55 -5.3)" gradientUnits="userSpaceOnUse">
<stop stop-color="#d8e17b" offset="0"/>
<stop stop-color="#95951e" offset=".99216"/>
</linearGradient>
<linearGradient id="cp" x1="-819.2" x2="819.2" gradientTransform="matrix(-2e-4 .0013 -.0043 -6e-4 -8.65 -4)" gradientUnits="userSpaceOnUse">
<stop stop-color="#bb8e4d" offset="0"/>
<stop stop-color="#bd8853" offset="1"/>
</linearGradient>
<linearGradient id="co" x1="-819.2" x2="819.2" gradientTransform="matrix(-4e-4 .0024 -.0061 -9e-4 1.6 -8.45)" gradientUnits="userSpaceOnUse">
<stop stop-color="#bb8e4d" offset="0"/>
<stop stop-color="#bd8853" offset="1"/>
</linearGradient>
<linearGradient id="cn" x1="-819.2" x2="819.2" gradientTransform="matrix(-2e-4 .0011 -.0038 -5e-4 -4.05 -10.25)" gradientUnits="userSpaceOnUse">
<stop stop-color="#bb8e4d" offset="0"/>
<stop stop-color="#bd8853" offset="1"/>
</linearGradient>
<linearGradient id="cm" x1="-819.2" x2="819.2" gradientTransform="matrix(-2e-4 .0011 -.0043 -7e-4 -1.8 -3.15)" gradientUnits="userSpaceOnUse">
<stop stop-color="#bb8e4d" offset="0"/>
<stop stop-color="#bd8853" offset="1"/>
</linearGradient>
<linearGradient id="ck" x1="-819.2" x2="819.2" gradientTransform="matrix(-4e-4 .0023 -9e-4 -1e-4 -5.35 -1.6)" gradientUnits="userSpaceOnUse">
<stop stop-color="#bb8e4d" offset="0"/>
<stop stop-color="#bd8853" offset="1"/>
</linearGradient>
<linearGradient id="cj" x1="-819.2" x2="819.2" gradientTransform="matrix(.0071 0 0 .0151 38.05 -12.6)" gradientUnits="userSpaceOnUse">
<stop stop-color="#cfc77c" offset="0"/>
<stop stop-color="#a39843" offset=".99216"/>
</linearGradient>
<linearGradient id="ci" x1="-819.2" x2="819.2" gradientTransform="matrix(.0241 0 0 .0229 55.45 -22.8)" gradientUnits="userSpaceOnUse">
<stop stop-color="#cfc77c" offset="0"/>
<stop stop-color="#a39843" offset=".99216"/>
</linearGradient>
<linearGradient id="ch" x1="-819.2" x2="819.2" gradientTransform="matrix(.0024 0 0 .0072 31.1 -12.8)" gradientUnits="userSpaceOnUse">
<stop stop-color="#cfc77c" offset="0"/>
<stop stop-color="#a39843" offset=".99216"/>
</linearGradient>
<linearGradient id="cg" x1="-819.2" x2="819.2" gradientTransform="matrix(.0105 0 0 .0106 44.1 -7.8)" gradientUnits="userSpaceOnUse">
<stop stop-color="#cfc77c" offset="0"/>
<stop stop-color="#a39843" offset=".99216"/>
</linearGradient>
<linearGradient id="cf" x1="-819.2" x2="819.2" gradientTransform="matrix(.0202 0 0 .0158 63.2 -21)" gradientUnits="userSpaceOnUse">
<stop stop-color="#cfc77c" offset="0"/>
<stop stop-color="#a39843" offset=".99216"/>
</linearGradient>
<linearGradient id="ce" x1="-819.2" x2="819.2" gradientTransform="matrix(.0213 0 0 .0089 58.2 -5.2)" gradientUnits="userSpaceOnUse">
<stop stop-color="#cfc77c" offset="0"/>
<stop stop-color="#a39843" offset=".99216"/>
</linearGradient>
<linearGradient id="cd" x1="-819.2" x2="819.2" gradientTransform="matrix(.0154 0 0 .0033 48.9 2.4)" gradientUnits="userSpaceOnUse">
<stop stop-color="#cfc77c" offset="0"/>
<stop stop-color="#a39843" offset=".99216"/>
</linearGradient>
<linearGradient id="cc" x1="-819.2" x2="819.2" gradientTransform="matrix(.0179 0 0 .007 57.85 -6.75)" gradientUnits="userSpaceOnUse">
<stop stop-color="#cfc77c" offset="0"/>
<stop stop-color="#a39843" offset=".99216"/>
</linearGradient>
<linearGradient id="cb" x1="-819.2" x2="819.2" gradientTransform="matrix(.0141 0 0 .0128 59.55 -15.2)" gradientUnits="userSpaceOnUse">
<stop stop-color="#cfc77c" offset="0"/>
<stop stop-color="#a39843" offset=".99216"/>
</linearGradient>
<linearGradient id="bz" x1="-819.2" x2="819.2" gradientTransform="matrix(.0089 0 0 .0084 67.75 -16.05)" gradientUnits="userSpaceOnUse">
<stop stop-color="#cfc77c" offset="0"/>
<stop stop-color="#a39843" offset=".99216"/>
</linearGradient>
<linearGradient id="by" x1="-819.2" x2="819.2" gradientTransform="matrix(.0026 .0098 -.0054 .0014 75.8 12.4)" gradientUnits="userSpaceOnUse">
<stop stop-color="#b07700" offset="0"/>
<stop stop-color="#b76f04" offset=".99216"/>
</linearGradient>
<linearGradient id="bx" x1="-819.2" x2="819.2" gradientTransform="matrix(-.0013 .0049 -.001 -3e-4 70.95 -1.5)" gradientUnits="userSpaceOnUse">
<stop stop-color="#543201" offset="0"/>
<stop stop-color="#653d01" offset=".99216"/>
</linearGradient>
<linearGradient id="bw" x1="-819.2" x2="819.2" gradientTransform="matrix(-.0177 .0199 -.0112 -.0099 49.2 14.1)" gradientUnits="userSpaceOnUse">
<stop stop-color="#543201" offset="0"/>
<stop stop-color="#653d01" offset=".99216"/>
</linearGradient>
<linearGradient id="bv" x1="-819.2" x2="819.2" gradientTransform="matrix(.0026 0 0 .001 79.95 47.5)" gradientUnits="userSpaceOnUse">
<stop stop-color="#aca042" offset="0"/>
<stop stop-color="#756d2d" offset=".99216"/>
</linearGradient>
<linearGradient id="bu" x1="-819.2" x2="819.2" gradientTransform="matrix(.0054 0 0 .0026 77.95 46.9)" gradientUnits="userSpaceOnUse">
<stop stop-color="#7a7930" offset="0"/>
<stop stop-color="#95951e" offset=".99216"/>
</linearGradient>
<linearGradient id="bt" x1="-819.2" x2="819.2" gradientTransform="matrix(.015 .0087 -.0062 .0107 74.25 38.4)" gradientUnits="userSpaceOnUse">
<stop stop-color="#e6e2b9" offset="0"/>
<stop stop-color="#d0c884" offset=".99216"/>
</linearGradient>
<linearGradient id="bs" x1="-819.2" x2="819.2" gradientTransform="matrix(.0018 7e-4 -9e-4 .0023 79.5 55.3)" gradientUnits="userSpaceOnUse">
<stop stop-color="#aca042" offset="0"/>
<stop stop-color="#756d2d" offset=".99216"/>
</linearGradient>
<linearGradient id="br" x1="-819.2" x2="819.2" gradientTransform="matrix(.0054 0 0 .0026 77.35 53.75)" gradientUnits="userSpaceOnUse">
<stop stop-color="#7a7930" offset="0"/>
<stop stop-color="#95951e" offset=".99216"/>
</linearGradient>
<linearGradient id="bq" x1="-819.2" x2="819.2" gradientTransform="matrix(-.0032 .0118 -.0194 -.0052 59.25 24.75)" gradientUnits="userSpaceOnUse">
<stop stop-color="#960" offset="0"/>
<stop stop-color="#653d01" offset=".99216"/>
</linearGradient>
<linearGradient id="bo" x1="-819.2" x2="819.2" gradientTransform="matrix(.0055 0 0 .0038 63 26.1)" gradientUnits="userSpaceOnUse">
<stop stop-color="#7a7930" offset="0"/>
<stop stop-color="#95951e" offset=".99216"/>
</linearGradient>
<linearGradient id="bn" x1="-819.2" x2="819.2" gradientTransform="matrix(.0032 0 0 .0013 59.7 23.6)" gradientUnits="userSpaceOnUse">
<stop stop-color="#aca042" offset="0"/>
<stop stop-color="#756d2d" offset=".99216"/>
</linearGradient>
<linearGradient id="bm" x1="-819.2" x2="819.2" gradientTransform="matrix(.0088 .0152 -.0085 .0049 65.9 39.55)" gradientUnits="userSpaceOnUse">
<stop stop-color="#cdb37a" offset="0"/>
<stop stop-color="#cba473" offset="1"/>
</linearGradient>
<linearGradient id="bl" x1="-819.2" x2="819.2" gradientTransform="matrix(.0035 .0132 -.0095 .0025 63.35 43)" gradientUnits="userSpaceOnUse">
<stop stop-color="#bb8e4d" offset="0"/>
<stop stop-color="#bd8853" offset="1"/>
</linearGradient>
<linearGradient id="bk" x1="-819.2" x2="819.2" gradientTransform="matrix(5e-4 .0019 -.0033 9e-4 61.65 27.95)" gradientUnits="userSpaceOnUse">
<stop stop-color="#bb8e4d" offset="0"/>
<stop stop-color="#bd8853" offset="1"/>
</linearGradient>
<linearGradient id="bj" x1="-819.2" x2="819.2" gradientTransform="matrix(-.0018 .0069 -.0042 -.0011 51.15 36)" gradientUnits="userSpaceOnUse">
<stop stop-color="#543201" offset="0"/>
<stop stop-color="#653d01" offset=".99216"/>
</linearGradient>
<linearGradient id="bi" x1="-819.2" x2="819.2" gradientTransform="matrix(.0069 0 0 .0038 69.8 33.05)" gradientUnits="userSpaceOnUse">
<stop stop-color="#7a7930" offset="0"/>
<stop stop-color="#95951e" offset=".99216"/>
</linearGradient>
<linearGradient id="bh" x1="-819.2" x2="819.2" gradientTransform="matrix(.0028 0 0 .0013 72.8 32.6)" gradientUnits="userSpaceOnUse">
<stop stop-color="#aca042" offset="0"/>
<stop stop-color="#756d2d" offset=".99216"/>
</linearGradient>
<linearGradient id="bg" x1="-819.2" x2="819.2" gradientTransform="matrix(.0021 0 0 .0025 73.1 35.45)" gradientUnits="userSpaceOnUse">
<stop stop-color="#aca042" offset="0"/>
<stop stop-color="#756d2d" offset=".99216"/>
</linearGradient>
<linearGradient id="bf" x1="-819.2" x2="819.2" gradientTransform="matrix(5e-4 .002 -.0046 .0012 67.7 35.05)" gradientUnits="userSpaceOnUse">
<stop stop-color="#bb8e4d" offset="0"/>
<stop stop-color="#bd8853" offset="1"/>
</linearGradient>
<linearGradient id="bd" x1="-819.2" x2="819.2" gradientTransform="matrix(.0026 0 0 .0011 65.4 25.45)" gradientUnits="userSpaceOnUse">
<stop stop-color="#aca042" offset="0"/>
<stop stop-color="#756d2d" offset=".99216"/>
</linearGradient>
<linearGradient id="bc" x1="-819.2" x2="819.2" gradientTransform="matrix(.0036 0 0 .0031 67.05 28.55)" gradientUnits="userSpaceOnUse">
<stop stop-color="#aca042" offset="0"/>
<stop stop-color="#756d2d" offset=".99216"/>
</linearGradient>
<linearGradient id="bb" x1="-819.2" x2="819.2" gradientTransform="matrix(4e-4 .0014 -.0034 9e-4 72.75 41.05)" gradientUnits="userSpaceOnUse">
<stop stop-color="#bb8e4d" offset="0"/>
<stop stop-color="#bd8853" offset="1"/>
</linearGradient>
<linearGradient id="ba" x1="-819.2" x2="819.2" gradientTransform="matrix(.0058 0 0 .0031 74.4 39.55)" gradientUnits="userSpaceOnUse">
<stop stop-color="#7a7930" offset="0"/>
<stop stop-color="#95951e" offset=".99216"/>
</linearGradient>
<linearGradient id="az" x1="-819.2" x2="819.2" gradientTransform="matrix(.0032 0 0 .0013 77.65 39.55)" gradientUnits="userSpaceOnUse">
<stop stop-color="#aca042" offset="0"/>
<stop stop-color="#756d2d" offset=".99216"/>
</linearGradient>
<linearGradient id="ay" x1="-819.2" x2="819.2" gradientTransform="matrix(.0014 0 0 .0027 76.8 42.8)" gradientUnits="userSpaceOnUse">
<stop stop-color="#aca042" offset="0"/>
<stop stop-color="#756d2d" offset=".99216"/>
</linearGradient>
<linearGradient id="ax" x1="-819.2" x2="819.2" gradientTransform="matrix(3e-4 .0013 -.0029 8e-4 75.8 48.8)" gradientUnits="userSpaceOnUse">
<stop stop-color="#bb8e4d" offset="0"/>
<stop stop-color="#bd8853" offset="1"/>
</linearGradient>
<linearGradient id="aw" x1="-819.2" x2="819.2" gradientTransform="matrix(7e-4 0 0 .0031 78.7 50.8)" gradientUnits="userSpaceOnUse">
<stop stop-color="#aca042" offset="0"/>
<stop stop-color="#756d2d" offset=".99216"/>
</linearGradient>
<linearGradient id="av" x1="-819.2" x2="819.2" gradientTransform="matrix(-.0026 .0169 -.0116 -.0018 32.35 22.65)" gradientUnits="userSpaceOnUse">
<stop stop-color="#bb8e4d" offset="0"/>
<stop stop-color="#bd8853" offset="1"/>
</linearGradient>
<linearGradient id="au" x1="-819.2" x2="819.2" gradientTransform="matrix(-.0022 .0038 -.0019 -.0011 22.2 11.35)" gradientUnits="userSpaceOnUse">
<stop stop-color="#d8e17b" offset="0"/>
<stop stop-color="#95951e" offset=".99216"/>
</linearGradient>
<linearGradient id="as" x1="-819.2" x2="819.2" gradientTransform="matrix(-9e-4 .0061 -.0016 -2e-4 23.5 11.95)" gradientUnits="userSpaceOnUse">
<stop stop-color="#bb8e4d" offset="0"/>
<stop stop-color="#bd8853" offset="1"/>
</linearGradient>
<linearGradient id="ar" x1="-819.2" x2="819.2" gradientTransform="matrix(.0053 .0093 -.0022 .0013 18.7 15.15)" gradientUnits="userSpaceOnUse">
<stop stop-color="#d8e17b" offset="0"/>
<stop stop-color="#95951e" offset=".99216"/>
</linearGradient>
<linearGradient id="aq" x1="-819.2" x2="819.2" gradientTransform="matrix(-9e-4 .0061 -.0055 -8e-4 14.7 11.35)" gradientUnits="userSpaceOnUse">
<stop stop-color="#bb8e4d" offset="0"/>
<stop stop-color="#bd8853" offset="1"/>
</linearGradient>
<linearGradient id="ap" x1="-819.2" x2="819.2" gradientTransform="matrix(.0018 -.0018 .0012 .0012 15.55 20.9)" gradientUnits="userSpaceOnUse">
<stop stop-color="#d8e17b" offset="0"/>
<stop stop-color="#95951e" offset=".99216"/>
</linearGradient>
<linearGradient id="ao" x1="-819.2" x2="819.2" gradientTransform="matrix(-9e-4 .0059 -.0087 -.0013 18.95 23.45)" gradientUnits="userSpaceOnUse">
<stop stop-color="#bb8e4d" offset="0"/>
<stop stop-color="#bd8853" offset="1"/>
</linearGradient>
<linearGradient id="an" x1="-819.2" x2="819.2" gradientTransform="matrix(-.0011 .0041 -.0026 -7e-4 14.8 37)" gradientUnits="userSpaceOnUse">
<stop stop-color="#d8e17b" offset="0"/>
<stop stop-color="#95951e" offset=".99216"/>
</linearGradient>
<linearGradient id="am" x1="-819.2" x2="819.2" gradientTransform="matrix(0 .0064 -.0034 0 3.1 35.85)" gradientUnits="userSpaceOnUse">
<stop stop-color="#d8e17b" offset="0"/>
<stop stop-color="#95951e" offset=".99216"/>
</linearGradient>
<linearGradient id="al" x1="-819.2" x2="819.2" gradientTransform="matrix(-2e-4 .0017 -.0069 -.001 -2.75 35)" gradientUnits="userSpaceOnUse">
<stop stop-color="#a0783d" offset="0"/>
<stop stop-color="#805933" offset="1"/>
</linearGradient>
<linearGradient id="ak" x1="-819.2" x2="819.2" gradientTransform="matrix(.0031 0 0 .0045 4.25 39.45)" gradientUnits="userSpaceOnUse">
<stop stop-color="#aca042" offset="0"/>
<stop stop-color="#756d2d" offset=".99216"/>
</linearGradient>
<linearGradient id="aj" x1="-819.2" x2="819.2" gradientTransform="matrix(.0045 0 0 .002 10.45 37.6)" gradientUnits="userSpaceOnUse">
<stop stop-color="#aca042" offset="0"/>
<stop stop-color="#756d2d" offset=".99216"/>
</linearGradient>
<linearGradient id="ah" x1="-819.2" x2="819.2" gradientTransform="matrix(-2e-4 .0017 -.0055 -7e-4 10.2 36.45)" gradientUnits="userSpaceOnUse">
<stop stop-color="#bb8e4d" offset="0"/>
<stop stop-color="#bd8853" offset="1"/>
</linearGradient>
<linearGradient id="ag" x1="-819.2" x2="819.2" gradientTransform="matrix(.0201 .0079 -.0051 .0128 .1 45.25)" gradientUnits="userSpaceOnUse">
<stop stop-color="#cfc77c" offset="0"/>
<stop stop-color="#a79c3f" offset=".99216"/>
</linearGradient>
<linearGradient id="af" x1="-819.2" x2="819.2" gradientTransform="matrix(.0036 0 0 .0043 14.3 41.95)" gradientUnits="userSpaceOnUse">
<stop stop-color="#aca042" offset="0"/>
<stop stop-color="#756d2d" offset=".99216"/>
</linearGradient>
<linearGradient id="ae" x1="-819.2" x2="819.2" gradientTransform="matrix(.0036 0 0 .0021 19.8 40.35)" gradientUnits="userSpaceOnUse">
<stop stop-color="#aca042" offset="0"/>
<stop stop-color="#756d2d" offset=".99216"/>
</linearGradient>
<linearGradient id="ad" x1="-819.2" x2="819.2" gradientTransform="matrix(.0031 .0018 -.0022 .0038 19.6 44.25)" gradientUnits="userSpaceOnUse">
<stop stop-color="#e6e2b9" offset="0"/>
<stop stop-color="#d0c884" offset=".99216"/>
</linearGradient>
<linearGradient id="ac" x1="-819.2" x2="819.2" gradientTransform="matrix(.0034 .002 -.0011 .002 11.7 40.2)" gradientUnits="userSpaceOnUse">
<stop stop-color="#e6e2b9" offset="0"/>
<stop stop-color="#d0c884" offset=".99216"/>
</linearGradient>
<linearGradient id="ab" x1="-819.2" x2="819.2" gradientTransform="matrix(-6e-4 .0023 -.0028 -7e-4 23.95 38.4)" gradientUnits="userSpaceOnUse">
<stop stop-color="#d8e17b" offset="0"/>
<stop stop-color="#95951e" offset=".99216"/>
</linearGradient>
<linearGradient id="aa" x1="-819.2" x2="819.2" gradientTransform="matrix(.0048 0 0 .0032 24.25 44.5)" gradientUnits="userSpaceOnUse">
<stop stop-color="#aca042" offset="0"/>
<stop stop-color="#756d2d" offset=".99216"/>
</linearGradient>
<linearGradient id="z" x1="-819.2" x2="819.2" gradientTransform="matrix(.0088 .0152 -.0085 .0049 65.9 39.55)" gradientUnits="userSpaceOnUse">
<stop stop-color="#bb8e4d" offset="0"/>
<stop stop-color="#bd8853" offset="1"/>
</linearGradient>
<linearGradient id="y" x1="-819.2" x2="819.2" gradientTransform="matrix(.0024 9e-4 -.0012 .0031 77.45 57.85)" gradientUnits="userSpaceOnUse">
<stop stop-color="#7a7930" offset="0"/>
<stop stop-color="#95951e" offset=".99216"/>
</linearGradient>
<linearGradient id="w" x1="-819.2" x2="819.2" gradientTransform="matrix(-.005 .0087 -.0023 -.0013 -20.8 12.2)" gradientUnits="userSpaceOnUse">
<stop stop-color="#d8e17b" offset="0"/>
<stop stop-color="#95951e" offset=".99216"/>
</linearGradient>
<linearGradient id="v" x1="-819.2" x2="819.2" gradientTransform="matrix(-.0011 .007 -.0039 -6e-4 -17.85 10.5)" gradientUnits="userSpaceOnUse">
<stop stop-color="#bb8e4d" offset="0"/>
<stop stop-color="#bd8853" offset="1"/>
</linearGradient>
<linearGradient id="u" x1="-819.2" x2="819.2" gradientTransform="matrix(-6e-4 .0041 -.0075 -.0012 -19.8 21.45)" gradientUnits="userSpaceOnUse">
<stop stop-color="#bb8e4d" offset="0"/>
<stop stop-color="#bd8853" offset="1"/>
</linearGradient>
<linearGradient id="t" x1="-819.2" x2="819.2" gradientTransform="matrix(-.0018 -.0018 .0013 -.0013 -18.7 19.95)" gradientUnits="userSpaceOnUse">
<stop stop-color="#d8e17b" offset="0"/>
<stop stop-color="#95951e" offset=".99216"/>
</linearGradient>
<linearGradient id="s" x1="-819.2" x2="819.2" gradientTransform="matrix(-9e-4 .0061 -.003 -4e-4 -26.75 10.6)" gradientUnits="userSpaceOnUse">
<stop stop-color="#bb8e4d" offset="0"/>
<stop stop-color="#bd8853" offset="1"/>
</linearGradient>
<linearGradient id="r" x1="-819.2" x2="819.2" gradientTransform="matrix(.0019 .0032 -.0019 .0011 -25.9 9.6)" gradientUnits="userSpaceOnUse">
<stop stop-color="#d8e17b" offset="0"/>
<stop stop-color="#95951e" offset=".99216"/>
</linearGradient>
<linearGradient id="q" x1="-819.2" x2="819.2" gradientTransform="matrix(.019 .011 -.0087 .015 -42.3 20.35)" gradientUnits="userSpaceOnUse">
<stop stop-color="#543201" offset="0"/>
<stop stop-color="#653d01" offset=".99216"/>
</linearGradient>
<linearGradient id="p" x1="-819.2" x2="819.2" gradientTransform="matrix(0 .0101 -.005 0 -36.65 24.6)" gradientUnits="userSpaceOnUse">
<stop stop-color="#a0783d" offset="0"/>
<stop stop-color="#805933" offset="1"/>
</linearGradient>
<linearGradient id="o" x1="-819.2" x2="819.2" gradientTransform="matrix(.0019 0 0 .0026 -27.45 25.6)" gradientUnits="userSpaceOnUse">
<stop stop-color="#a0783d" offset="0"/>
<stop stop-color="#805933" offset="1"/>
</linearGradient>
<linearGradient id="n" x1="-819.2" x2="819.2" gradientTransform="matrix(9e-4 .0033 -.0023 6e-4 -21.95 34.1)" gradientUnits="userSpaceOnUse">
<stop stop-color="#d8e17b" offset="0"/>
<stop stop-color="#95951e" offset=".99216"/>
</linearGradient>
<linearGradient id="l" x1="-819.2" x2="819.2" gradientTransform="matrix(.0028 0 0 .0017 -25.55 37.05)" gradientUnits="userSpaceOnUse">
<stop stop-color="#a0783d" offset="0"/>
<stop stop-color="#805933" offset="1"/>
</linearGradient>
<linearGradient id="k" x1="-819.2" x2="819.2" gradientTransform="matrix(.0035 0 0 .0041 -21.45 40.05)" gradientUnits="userSpaceOnUse">
<stop stop-color="#aca042" offset="0"/>
<stop stop-color="#756d2d" offset=".99216"/>
</linearGradient>
<linearGradient id="j" x1="-819.2" x2="819.2" gradientTransform="matrix(.0061 0 0 .0021 -15.95 35.25)" gradientUnits="userSpaceOnUse">
<stop stop-color="#a0783d" offset="0"/>
<stop stop-color="#805933" offset="1"/>
</linearGradient>
<linearGradient id="i" x1="-819.2" x2="819.2" gradientTransform="matrix(5e-4 .0017 -.0035 9e-4 -28.9 33.4)" gradientUnits="userSpaceOnUse">
<stop stop-color="#d8e17b" offset="0"/>
<stop stop-color="#95951e" offset=".99216"/>
</linearGradient>
<linearGradient id="h" x1="-819.2" x2="819.2" gradientTransform="matrix(.0031 0 0 .0013 -32.3 38.3)" gradientUnits="userSpaceOnUse">
<stop stop-color="#a0783d" offset="0"/>
<stop stop-color="#805933" offset="1"/>
</linearGradient>
<linearGradient id="g" x1="-819.2" x2="819.2" gradientTransform="matrix(.004 0 0 .0036 -27.1 41.3)" gradientUnits="userSpaceOnUse">
<stop stop-color="#aca042" offset="0"/>
<stop stop-color="#756d2d" offset=".99216"/>
</linearGradient>
<linearGradient id="f" x1="-819.2" x2="819.2" gradientTransform="matrix(0 .0043 -.0023 0 -9.1 34.15)" gradientUnits="userSpaceOnUse">
<stop stop-color="#d8e17b" offset="0"/>
<stop stop-color="#95951e" offset=".99216"/>
</linearGradient>
<linearGradient id="e" x1="-819.2" x2="819.2" gradientTransform="matrix(-2e-4 .0014 -.0035 -5e-4 -5.65 33.5)" gradientUnits="userSpaceOnUse">
<stop stop-color="#bb8e4d" offset="0"/>
<stop stop-color="#bd8853" offset="1"/>
</linearGradient>
<linearGradient id="d" x1="-819.2" x2="819.2" gradientTransform="matrix(.0027 0 0 .0049 -9.6 38.9)" gradientUnits="userSpaceOnUse">
<stop stop-color="#aca042" offset="0"/>
<stop stop-color="#756d2d" offset=".99216"/>
</linearGradient>
<linearGradient id="c" x1="-819.2" x2="819.2" gradientTransform="matrix(.0074 .0181 -.0044 .0018 -47.35 16.6)" gradientUnits="userSpaceOnUse">
<stop stop-color="#960" offset="0"/>
<stop stop-color="#653d01" offset=".99216"/>
</linearGradient>
<linearGradient id="ds" x1="-819.2" x2="819.2" gradientTransform="matrix(.0027 .0016 -9e-4 .0016 -56.35 7.95)" gradientUnits="userSpaceOnUse">
<stop stop-color="#543201" offset="0"/>
<stop stop-color="#653d01" offset=".99216"/>
</linearGradient>
<linearGradient id="dr" x1="-819.2" x2="819.2" gradientTransform="matrix(0 .0052 -.0069 0 -49.05 17.15)" gradientUnits="userSpaceOnUse">
<stop stop-color="#960" offset="0"/>
<stop stop-color="#653d01" offset=".99216"/>
</linearGradient>
<linearGradient id="dq" x1="-819.2" x2="819.2" gradientTransform="matrix(.0031 0 0 .0034 -53.4 17.55)" gradientUnits="userSpaceOnUse">
<stop stop-color="#7a7930" offset="0"/>
<stop stop-color="#95951e" offset=".99216"/>
</linearGradient>
<linearGradient id="dp" x1="-819.2" x2="819.2" gradientTransform="matrix(-.0173 .0099 -.0061 -.0107 -70.75 32.05)" gradientUnits="userSpaceOnUse">
<stop stop-color="#e6e2b9" offset="0"/>
<stop stop-color="#d0c884" offset=".99216"/>
</linearGradient>
<linearGradient id="do" x1="-819.2" x2="819.2" gradientTransform="matrix(.0037 0 0 .0028 -57.15 18.1)" gradientUnits="userSpaceOnUse">
<stop stop-color="#aca042" offset="0"/>
<stop stop-color="#756d2d" offset=".99216"/>
</linearGradient>
<linearGradient id="dn" x1="-819.2" x2="819.2" gradientTransform="matrix(-.0148 .0148 -.0057 -.0057 -65.9 35.25)" gradientUnits="userSpaceOnUse">
<stop stop-color="#cdb37a" offset="0"/>
<stop stop-color="#cba473" offset="1"/>
</linearGradient>
<linearGradient id="dm" x1="-819.2" x2="819.2" gradientTransform="matrix(-8e-4 .001 -.0027 -.0021 -52.7 19.35)" gradientUnits="userSpaceOnUse">
<stop stop-color="#7a7930" offset="0"/>
<stop stop-color="#95951e" offset=".99216"/>
</linearGradient>
<linearGradient id="dl" x1="-819.2" x2="819.2" gradientTransform="matrix(.0012 0 0 8e-4 -52.1 15.9)" gradientUnits="userSpaceOnUse">
<stop stop-color="#aca042" offset="0"/>
<stop stop-color="#756d2d" offset=".99216"/>
</linearGradient>
<linearGradient id="dk" x1="-819.2" x2="819.2" gradientTransform="matrix(-8e-4 .001 -.0027 -.0021 -59.3 23.55)" gradientUnits="userSpaceOnUse">
<stop stop-color="#bb8e4d" offset="0"/>
<stop stop-color="#bd8853" offset="1"/>
</linearGradient>
<linearGradient id="dj" x1="-819.2" x2="819.2" gradientTransform="matrix(.0035 0 0 .0034 -60.35 21.45)" gradientUnits="userSpaceOnUse">
<stop stop-color="#7a7930" offset="0"/>
<stop stop-color="#95951e" offset=".99216"/>
</linearGradient>
<linearGradient id="dh" x1="-819.2" x2="819.2" gradientTransform="matrix(-.011 .0139 -.0073 -.0058 -58.35 34.9)" gradientUnits="userSpaceOnUse">
<stop stop-color="#bb8e4d" offset="0"/>
<stop stop-color="#bd8853" offset="1"/>
</linearGradient>
<linearGradient id="dg" x1="-819.2" x2="819.2" gradientTransform="matrix(.0041 0 0 .0037 -64.2 23.6)" gradientUnits="userSpaceOnUse">
<stop stop-color="#aca042" offset="0"/>
<stop stop-color="#756d2d" offset=".99216"/>
</linearGradient>
<linearGradient id="df" x1="-819.2" x2="819.2" gradientTransform="matrix(.0043 0 0 .0034 -67.65 27.85)" gradientUnits="userSpaceOnUse">
<stop stop-color="#7a7930" offset="0"/>
<stop stop-color="#95951e" offset=".99216"/>
</linearGradient>
<linearGradient id="de" x1="-819.2" x2="819.2" gradientTransform="matrix(-7e-4 9e-4 -.0022 -.0018 -66.5 29.85)" gradientUnits="userSpaceOnUse">
<stop stop-color="#bb8e4d" offset="0"/>
<stop stop-color="#bd8853" offset="1"/>
</linearGradient>
<linearGradient id="dd" x1="-819.2" x2="819.2" gradientTransform="matrix(.0023 0 0 .0011 -69.85 27.9)" gradientUnits="userSpaceOnUse">
<stop stop-color="#aca042" offset="0"/>
<stop stop-color="#756d2d" offset=".99216"/>
</linearGradient>
<linearGradient id="dc" x1="-819.2" x2="819.2" gradientTransform="matrix(.0031 0 0 .003 -71.35 31)" gradientUnits="userSpaceOnUse">
<stop stop-color="#aca042" offset="0"/>
<stop stop-color="#756d2d" offset=".99216"/>
</linearGradient>
<linearGradient id="db" x1="-819.2" x2="819.2" gradientTransform="matrix(.0027 0 0 .0053 -76.3 37.65)" gradientUnits="userSpaceOnUse">
<stop stop-color="#aca042" offset="0"/>
<stop stop-color="#756d2d" offset=".99216"/>
</linearGradient>
<linearGradient id="da" x1="-819.2" x2="819.2" gradientTransform="matrix(.0049 0 0 .0034 -74.45 34.45)" gradientUnits="userSpaceOnUse">
<stop stop-color="#7a7930" offset="0"/>
<stop stop-color="#95951e" offset=".99216"/>
</linearGradient>
<linearGradient id="cz" x1="-819.2" x2="819.2" gradientTransform="matrix(-7e-4 9e-4 -.0018 -.0014 -73.15 36.55)" gradientUnits="userSpaceOnUse">
<stop stop-color="#bb8e4d" offset="0"/>
<stop stop-color="#bd8853" offset="1"/>
</linearGradient>
<linearGradient id="cy" x1="-819.2" x2="819.2" gradientTransform="matrix(.0041 0 0 .0043 -77.6 42.45)" gradientUnits="userSpaceOnUse">
<stop stop-color="#7a7930" offset="0"/>
<stop stop-color="#95951e" offset=".99216"/>
</linearGradient>
<linearGradient id="cw" x1="-819.2" x2="819.2" gradientTransform="matrix(.002 0 0 .0033 -79.2 43.05)" gradientUnits="userSpaceOnUse">
<stop stop-color="#aca042" offset="0"/>
<stop stop-color="#756d2d" offset=".99216"/>
</linearGradient>
<linearGradient id="cv" x1="-819.2" x2="819.2" gradientTransform="matrix(-8e-4 9e-4 -.002 -.0016 -76.15 45.8)" gradientUnits="userSpaceOnUse">
<stop stop-color="#bb8e4d" offset="0"/>
<stop stop-color="#bd8853" offset="1"/>
</linearGradient>
<linearGradient id="cu" x1="-819.2" x2="819.2" gradientTransform="matrix(.0039 .0015 -7e-4 .0018 -77.65 48.25)" gradientUnits="userSpaceOnUse">
<stop stop-color="#7a7930" offset="0"/>
<stop stop-color="#95951e" offset=".99216"/>
</linearGradient>
<linearGradient id="ct" x1="-819.2" x2="819.2" gradientTransform="scale(.1019 .0738)" gradientUnits="userSpaceOnUse">
<stop stop-color="#330" stop-opacity=".15294" offset="0"/>
<stop stop-color="#a99701" stop-opacity=".10196" offset=".99216"/>
</linearGradient>
</defs>
</svg>
