<?xml version="1.0" encoding="UTF-8" standalone="no"?>
<!DOCTYPE svg PUBLIC "-//W3C//DTD SVG 1.1//EN" "http://www.w3.org/Graphics/SVG/1.1/DTD/svg11.dtd">
<svg width="100%" height="100%" viewBox="0 0 207 270" version="1.1" xmlns="http://www.w3.org/2000/svg" xmlns:xlink="http://www.w3.org/1999/xlink" xml:space="preserve" xmlns:serif="http://www.serif.com/" style="fill-rule:evenodd;clip-rule:evenodd;stroke-linecap:round;stroke-linejoin:round;">
    <g transform="matrix(1,0,0,1,-497.659,-29)">
        <g transform="matrix(10,0,0,10,0,0)">
            <g id="shape0">
                <path d="M64.8,19.75L65.2,20L65.45,20.25L65.8,20.65L66.15,21.4L66.2,21.7C66.133,20.9 65.917,20.283 65.55,19.85L64.6,19.15L62.2,19.3L62.1,19.35L61.15,20.05L60.65,19.8C60.817,20.533 61.217,21.183 61.85,21.75L61.7,21.4C61.6,21.1 61.55,20.767 61.55,20.4L62.65,19.8L62.95,19.65L64,19.55L64.6,19.65L64.8,19.75M65.45,20.25L65.45,20.55C65.45,20.95 65.333,21.283 65.1,21.55C64.833,21.883 64.5,22.05 64.1,22.05L63.95,22.05C63.617,22.017 63.317,21.85 63.05,21.55C62.75,21.217 62.6,20.8 62.6,20.3L62.6,20.25L62.65,19.8M66.2,21.7L66.25,21.9L66.2,21.9C66.267,22.1 66.15,22.317 65.85,22.55L65,22.95L63.35,23.05C62.65,22.817 62.15,22.383 61.85,21.75M66.15,21.4L66.2,21.9" style="fill:none;fill-rule:nonzero;stroke:#260900;stroke-width:0.5px;"/>
                <path d="M64.7,5.8L65,6.3L65.3,7.15L65.2,7.35L64.8,7.6L63.7,6.4C63.6,6.533 63.7,6.95 64,7.65L64.25,8.1L64,8.35L64.15,8.45L64.35,8.6L65.75,9.85L65.9,9.75C65.9,9.517 66.033,9.317 66.3,9.15C67.333,8.583 67.733,7.967 67.5,7.3L65.4,4.65L63.55,3.15C63.383,3.283 63.767,4.167 64.7,5.8M64,8.35L63.65,8.05L61.4,7.05L60.3,6.75L59.65,6.85L59.25,6.95C59.017,6.983 58.767,7.067 58.5,7.2L57.7,7.6C57.133,7.933 56.733,8.483 56.5,9.25M65.75,9.85L65.6,9.95L65.6,10.9L65.45,10.9C64.85,10.9 64.117,11.283 63.25,12.05L61.9,13.45L60.15,13.3L59.2,13.5L59.1,13.55L58.05,14.15C57.217,13.583 56.4,13.317 55.6,13.35L55.2,13.35C54.033,14.117 53.817,15.3 54.55,16.9C54.517,17.833 54.717,18.5 55.15,18.9C55.383,19.133 55.65,19.25 55.95,19.25L56.45,19.15L55.9,18.3M56.45,19.15L56.5,19.15L56.55,19.1L57,19.3L58.9,19.35L59.7,19.05L61,18.4C62.4,18.433 63.683,18.233 64.85,17.8C65.783,17.433 66.65,16.917 67.45,16.25L68.45,16.05L68.85,15.8L69.3,15.35L69.45,15.05L69.5,14.8C69.4,13.567 68.95,12.65 68.15,12.05C68.117,10.95 67.8,10.233 67.2,9.9L65.9,9.75M69.2,16.3L69.35,17.05L70.05,16.5C70.283,16.133 70.217,15.75 69.85,15.35L69.55,15.1L69.45,15.05M68.85,15.8L68.95,16.1M55.95,19.25C55.983,19.583 56.117,19.917 56.35,20.25L57,21L57.35,21.3L57.8,21.6L57.9,21.65L58.7,22.35C59.267,22.717 59.867,23.017 60.5,23.25L60.55,23L61.25,23.35L61.7,23.6L61.95,23.7L62.85,24L63.05,24.05L63.35,24.15L63.55,24.2L64,24.3L66.2,24.45L66.55,24.4L66.6,24.4L67.55,24.3L67.55,24.35L68.9,23.3L69.3,22.5L69.05,22.45L68.8,22.35L68.4,22.4C69.133,22.333 69.417,22.133 69.25,21.8L68.65,21.2L68.5,20.8L68.4,20.45L68.3,19.95L68.3,19.9L68.25,19.8L68.25,19.7L68.3,19.5L68.3,19.4L68.45,17.75L68.45,16.05M68.65,21.2L69,21.1L69.2,20.7L69.4,19.95L69.45,17.85L69.4,17.2L69.35,17.05M68.95,21.5L69,21.5L68.95,21.45L68.95,21.5M69,21.5L69.25,21.55C69.483,21.75 69.517,22.05 69.35,22.45L69.3,22.5M69.2,20.7L68.95,21.45M51.65,10.2C50.983,10.267 50.567,10.567 50.4,11.1C49.967,11.633 49.9,12.183 50.2,12.75L50.85,13.45L51.05,14.05L53.4,14.2L54.25,13.3C53.883,13.267 53.567,13.167 53.3,13L53.1,12.7C52.433,11.733 51.95,10.9 51.65,10.2C51.25,9.267 51.133,8.567 51.3,8.1C51.633,8 52.483,8.683 53.85,10.15L54.15,10.5L55,9.7C55.233,9.333 55.7,8.817 56.4,8.15C57,7.617 57.7,7.3 58.5,7.2M54.15,10.5L54.25,10.65L54.55,10.9C54.917,11.167 55.217,11.267 55.45,11.2L56.25,11L56.05,10.75C55.717,10.383 55.567,10.017 55.6,9.65C55.767,9.65 56,9.733 56.3,9.9L57.45,10.8L58.85,10.85L59.55,11.5L59.65,11.65L60.05,12.85L60.15,13.3M59.2,13.5L59.15,13.5C58.683,12.833 57.95,12.617 56.95,12.85L55.6,13.25L55.6,13.35M55.6,13.25L54.25,13.3M57.9,21.65L57,21.8L56.55,21.7C56.15,21.433 56.05,21 56.25,20.4L56.35,20.25M56.5,19.15L57,19.3M60.1,24.25C59.533,24.55 59.383,24.917 59.65,25.35L60,25.75C60.133,25.883 60.25,25.95 60.35,25.95L60.9,26.55L61.15,26.65L61.45,26.6C61.583,26.767 61.75,26.867 61.95,26.9L62.35,26.85C62.617,26.75 62.75,26.5 62.75,26.1L62.4,25.95L61.75,25.6L61.2,25.2L61.05,25.05L60.85,24.8L60.5,24.1L60.1,24.25M60.5,24.1L60.5,23.25M67.55,24.35C67.483,25.217 67.033,25.783 66.2,26.05L66.05,26.15L66,26.45L65.6,27.1L65.5,27.4L65.45,27.4L65,28.2C64.733,27.9 64.567,27.533 64.5,27.1L64.5,27.05L64.6,26.75L64.25,26.95L64.15,26.95C64.45,27.383 64.55,27.867 64.45,28.4C64.15,28.4 63.9,28.283 63.7,28.05L63.7,28L63.4,27.75L63.2,27.55L62.75,27.5L62.55,27.95L62.5,28L62.5,28.5L62.45,28.9L62.25,29.1C62.05,28.933 61.933,28.683 61.9,28.35L61.9,28.1L61.95,28L61.85,27.9L61.65,27.45L61.4,27.25L61.3,27.2L61.2,27.25L61.3,28.15L61.35,28.4L61.2,28.65L60.45,28.6L60.7,28.85L60.95,29.25L60.95,29.55C60.65,29.583 60.333,29.45 60,29.15L59.8,28.95L59.6,28.55C59.3,27.95 59.233,27.617 59.4,27.55L59.8,27.85L59.45,27.2L59.35,26.6L58.8,26.4C58.433,26.233 58.25,26 58.25,25.7C58.217,25.367 58.267,25.067 58.4,24.8C58.5,24.533 58.633,24.4 58.8,24.4C59.067,24.6 59.317,25.033 59.55,25.7L59.75,25.95L59.9,25.8L60,25.75M59.35,26.6L59.35,26.45L59.75,25.95M60.45,28.6L60.05,28.45M64.15,26.95L64.05,26.95L63.85,26.75L63.6,26.55L63.15,26.25L62.75,26.1M64.15,26.95C64.05,26.817 63.95,26.75 63.85,26.75M66.05,26.15L65.25,26.3L65.15,26.3L65.05,26.35L64.9,26.4L64.65,26.6L64.6,26.75M65.05,26.35L64.9,26.35L63.35,26.3L63.15,26.25M65.05,26.65L65.4,27.1L65.45,27.2L65.5,27.4M60.9,26.55L61.1,27.05L61.2,27.2L61.3,27.2M61.4,27.25L61.35,27.1L61.45,27.1L61.35,27L61.15,26.65M61.2,27.2L61.2,27.25M61.65,27.45L61.7,27.45L62.2,27.4L62.45,27.45L62.75,27.5M61.95,26.9L61.45,27.1M62.5,28L62.2,28.1L61.95,28" style="fill:none;fill-rule:nonzero;stroke:#260900;stroke-width:0.5px;"/>
            </g>
            <g id="sprite0" transform="matrix(0.48,0,0,0.48,60.7501,33.1003)">
                <g id="sprite1" transform="matrix(1,0,0,1,3,-10.55)">
                    <g id="shape1">
                        <path d="M0.65,0.9L0.65,0.95L0.5,1.8L0.15,2.2C-0.283,1.867 -0.533,1.333 -0.6,0.6L0.2,0.3L0.65,0.9" style="fill:#1e1613;"/>
                        <path d="M-0.6,0.6L-0.6,0.1L-0.35,-0.65C-0.05,-1.783 0.233,-2.3 0.5,-2.2L0.6,0.15L0.6,0.35L0.65,0.9L0.2,0.3L-0.6,0.6" style="fill:#725f40;"/>
                        <path d="M-0.6,0.6L-0.6,0.1L-0.35,-0.65C-0.05,-1.783 0.233,-2.3 0.5,-2.2L0.6,0.15L0.6,0.35L0.65,0.9L0.65,0.95L0.5,1.8L0.15,2.2C-0.283,1.867 -0.533,1.333 -0.6,0.6Z" style="fill:none;fill-rule:nonzero;stroke:#000;stroke-opacity:0.3;stroke-width:0.05px;"/>
                    </g>
                </g>
                <g id="sprite2" transform="matrix(1,0,0,1,2.85,-12.9)">
                    <g id="shape2">
                        <path d="M1.15,-1.75C1.617,-0.25 1.533,1.067 0.9,2.2L0.25,2.45C-0.017,2.383 -0.283,2.25 -0.55,2.05C-1.05,1.317 -1.35,0.133 -1.45,-1.5C-0.617,-2.6 0.25,-2.683 1.15,-1.75" style="fill:#8c7653;"/>
                        <path d="M1.15,-1.75C1.617,-0.25 1.533,1.067 0.9,2.2L0.25,2.45C-0.017,2.383 -0.283,2.25 -0.55,2.05C-1.05,1.317 -1.35,0.133 -1.45,-1.5C-0.617,-2.6 0.25,-2.683 1.15,-1.75Z" style="fill:none;fill-rule:nonzero;stroke:#000;stroke-opacity:0.3;stroke-width:0.05px;"/>
                    </g>
                </g>
                <g id="sprite3" transform="matrix(1,0,0,1,-1.3,-9.45)">
                    <g id="shape3">
                        <path d="M1.05,0.55L1.1,0.6L1.65,1.5C1.817,1.933 1.817,2.133 1.65,2.1C1.017,2.167 0.367,1.883 -0.3,1.25C-0.267,0.917 -0.117,0.633 0.15,0.4L1.05,0.55" style="fill:#1e1613;"/>
                        <path d="M-0.3,1.25L-0.7,0.8L-1.1,-0.05C-1.767,-1.283 -1.933,-1.95 -1.6,-2.05L0.4,-0.1L1.05,0.55L0.15,0.4C-0.117,0.633 -0.267,0.917 -0.3,1.25" style="fill:#8c7653;"/>
                        <path d="M0.4,-0.1L1.1,0.6L1.65,1.5C1.817,1.933 1.817,2.133 1.65,2.1C1.017,2.167 0.367,1.883 -0.3,1.25L-0.7,0.8L-1.1,-0.05C-1.767,-1.283 -1.933,-1.95 -1.6,-2.05L0.4,-0.1Z" style="fill:none;fill-rule:nonzero;stroke:#000;stroke-opacity:0.3;stroke-width:0.05px;"/>
                    </g>
                </g>
                <g id="sprite4" transform="matrix(1,0,0,1,-0.35,-10.4)">
                    <g id="shape4">
                        <path d="M-1.45,-0.05L-1.5,-0.4L-1.4,-1.15C-0.367,-1.217 0.517,-0.933 1.25,-0.3C1.583,0.233 1.567,0.7 1.2,1.1C0.433,1.233 -0.35,1.117 -1.15,0.75L-1.3,0.7L-1.45,0.4L-1.5,0.2L-1.45,-0.05" style="fill:#9c8664;"/>
                        <path d="M-1.4,-1.15C-0.367,-1.217 0.517,-0.933 1.25,-0.3C1.583,0.233 1.567,0.7 1.2,1.1" style="fill:none;fill-rule:nonzero;stroke:#000;stroke-opacity:0.3;stroke-width:1px;"/>
                        <path d="M-1.45,-0.05L-1.5,-0.4L-1.4,-1.15M1.2,1.1C0.433,1.233 -0.35,1.117 -1.15,0.75" style="fill:none;fill-rule:nonzero;stroke:#000;stroke-opacity:0.3;stroke-width:0.05px;"/>
                    </g>
                </g>
                <g id="sprite5" transform="matrix(1,0,0,1,9.45,-14)">
                    <g id="shape5">
                        <path d="M1.4,-1.45L1.45,0.1C1.25,0.6 0.867,1.133 0.3,1.7L-1.1,1.95C-1.567,0.85 -1.617,-0.317 -1.25,-1.55L1.4,-1.45" style="fill:#c4b08e;"/>
                        <path d="M1.4,-1.45L1.45,0.1C1.25,0.6 0.867,1.133 0.3,1.7L-1.1,1.95C-1.567,0.85 -1.617,-0.317 -1.25,-1.55L1.4,-1.45Z" style="fill:none;fill-rule:nonzero;stroke:#000;stroke-opacity:0.3;stroke-width:0.05px;"/>
                    </g>
                </g>
                <g id="sprite6" transform="matrix(1,0,0,1,8.3,-17.15)">
                    <g id="shape6">
                        <path d="M-0.15,2.45C-1.55,1.417 -2.35,0.283 -2.55,-0.95C-1.283,-2.617 0.033,-3 1.4,-2.1C2.033,-1.133 2.433,0.133 2.6,1.7C2.033,2.5 1.117,2.75 -0.15,2.45" style="fill:#8c7653;"/>
                        <path d="M-0.15,2.45C-1.55,1.417 -2.35,0.283 -2.55,-0.95C-1.283,-2.617 0.033,-3 1.4,-2.1C2.033,-1.133 2.433,0.133 2.6,1.7" style="fill:none;fill-rule:nonzero;stroke:#000;stroke-opacity:0.3;stroke-width:0.05px;"/>
                    </g>
                </g>
                <g id="sprite7" transform="matrix(1,0,0,1,-3.35,-15.15)">
                    <g id="shape7">
                        <path d="M-0.75,-3C-0.183,-2.6 0.35,-1.717 0.85,-0.35L1.7,0.6C1.933,0.967 1.85,1.333 1.45,1.7C0.65,1.633 -0.083,1.433 -0.75,1.1C-1.483,0.767 -1.85,0.283 -1.85,-0.35C-1.917,-1.05 -1.817,-1.65 -1.55,-2.15C-1.317,-2.717 -1.05,-3 -0.75,-3" style="fill:#725f40;"/>
                        <path d="M-0.75,-3C-0.183,-2.6 0.35,-1.717 0.85,-0.35L1.7,0.6C1.933,0.967 1.85,1.333 1.45,1.7C0.65,1.633 -0.083,1.433 -0.75,1.1C-1.483,0.767 -1.85,0.283 -1.85,-0.35C-1.917,-1.05 -1.817,-1.65 -1.55,-2.15C-1.317,-2.717 -1.05,-3 -0.75,-3Z" style="fill:none;fill-rule:nonzero;stroke:#000;stroke-opacity:0.3;stroke-width:0.05px;"/>
                    </g>
                </g>
                <g id="sprite8" transform="matrix(1,0,0,1,-0.7,-13.95)">
                    <g id="shape8">
                        <path d="M-2,1.65L-2.2,0.15C-2.167,-0.217 -1.767,-0.683 -1,-1.25C-0.4,-1.717 0.383,-2 1.35,-2.1C2.283,-0.733 2.467,0.517 1.9,1.65C0.1,2.283 -1.2,2.283 -2,1.65" style="fill:#8c7653;"/>
                        <path d="M1.9,1.65C0.1,2.283 -1.2,2.283 -2,1.65" style="fill:none;fill-rule:nonzero;stroke:#000;stroke-opacity:0.3;stroke-width:1px;"/>
                        <path d="M-2,1.65L-2.2,0.15C-2.167,-0.217 -1.767,-0.683 -1,-1.25C-0.4,-1.717 0.383,-2 1.35,-2.1" style="fill:none;fill-rule:nonzero;stroke:#000;stroke-opacity:0.3;stroke-width:0.05px;"/>
                    </g>
                </g>
                <g id="sprite9" transform="matrix(1,0,0,1,1.85,-14.9)">
                    <g id="shape9">
                        <path d="M-2.3,-0.75C-1.833,-1.283 -1.4,-1.917 -1,-2.65C0.1,-2.917 0.9,-2.7 1.4,-2C2.3,-1 2.75,0.183 2.75,1.55C2.65,2.117 2.417,2.517 2.05,2.75C0.017,2.85 -1.467,2.583 -2.4,1.95C-2.9,1.15 -2.867,0.25 -2.3,-0.75" style="fill:#8c7653;"/>
                        <path d="M-2.3,-0.75C-1.833,-1.283 -1.4,-1.917 -1,-2.65C0.1,-2.917 0.9,-2.7 1.4,-2C2.3,-1 2.75,0.183 2.75,1.55C2.65,2.117 2.417,2.517 2.05,2.75C0.017,2.85 -1.467,2.583 -2.4,1.95" style="fill:none;fill-rule:nonzero;stroke:#000;stroke-opacity:0.3;stroke-width:0.05px;"/>
                    </g>
                </g>
                <g id="sprite10" transform="matrix(1,0,0,1,-0.75,-11.5)">
                    <g id="shape10">
                        <path d="M0.8,-1.75L1.5,-1.15C1.967,-0.45 2.067,0.5 1.8,1.7L1.2,2L0.35,1.7L-0.3,1.4L-1.3,0.5L-2,-0.8C-1.8,-1.333 -1.4,-1.733 -0.8,-2L0.8,-1.75" style="fill:#8c7653;"/>
                        <path d="M-1.3,0.5L-2,-0.8" style="fill:none;fill-rule:nonzero;stroke:#000;stroke-opacity:0.3;stroke-width:1px;"/>
                        <path d="M0.8,-1.75L1.5,-1.15C1.967,-0.45 2.067,0.5 1.8,1.7" style="fill:none;fill-rule:nonzero;stroke:#000;stroke-opacity:0.3;stroke-width:0.05px;"/>
                    </g>
                </g>
                <g id="sprite11" transform="matrix(1,0,0,1,5.15,-16.4)">
                    <g id="shape11">
                        <path d="M-5.1,0.2C-4.967,-1.267 -4.383,-2.433 -3.35,-3.3C-2.317,-4.167 -1.117,-4.6 0.25,-4.6C1.65,-4.6 2.817,-4.233 3.75,-3.5C4.717,-2.733 5.167,-1.883 5.1,-0.95C5.067,-0.05 4.533,1 3.5,2.2C2.467,3.433 1.217,4.2 -0.25,4.5L-1.7,4.6C-2.533,4.533 -3.25,4.233 -3.85,3.7C-4.783,2.867 -5.2,1.717 -5.1,0.25L-5.1,0.2" style="fill:#8c7653;"/>
                        <path d="M-5.1,0.2C-4.967,-1.267 -4.383,-2.433 -3.35,-3.3C-2.317,-4.167 -1.117,-4.6 0.25,-4.6C1.65,-4.6 2.817,-4.233 3.75,-3.5C4.717,-2.733 5.167,-1.883 5.1,-0.95C5.067,-0.05 4.533,1 3.5,2.2C2.467,3.433 1.217,4.2 -0.25,4.5L-1.7,4.6" style="fill:none;fill-rule:nonzero;stroke:#000;stroke-opacity:0.3;stroke-width:0.05px;"/>
                    </g>
                </g>
                <g id="sprite12" transform="matrix(1,0,0,1,6.55,-16.9)">
                    <g id="shape12">
                        <path d="M5.35,-0.55C4.883,0.983 3.333,2.533 0.7,4.1C0.133,4.167 -0.6,4.033 -1.5,3.7C-2.3,3.4 -2.933,3.033 -3.4,2.6C-5.133,0.7 -5.75,-0.7 -5.25,-1.6C-2.817,-4.467 -0.133,-4.867 2.8,-2.8C4.967,-2.8 5.817,-2.05 5.35,-0.55" style="fill:#e7e2d8;"/>
                        <path d="M5.35,-0.55C4.883,0.983 3.333,2.533 0.7,4.1C0.133,4.167 -0.6,4.033 -1.5,3.7C-2.3,3.4 -2.933,3.033 -3.4,2.6C-5.133,0.7 -5.75,-0.7 -5.25,-1.6C-2.817,-4.467 -0.133,-4.867 2.8,-2.8C4.967,-2.8 5.817,-2.05 5.35,-0.55Z" style="fill:none;fill-rule:nonzero;stroke:#000;stroke-opacity:0.3;stroke-width:0.05px;"/>
                    </g>
                </g>
                <g id="sprite13" transform="matrix(1,0,0,1,8.9,-12.3)">
                    <g id="shape13">
                        <path d="M-0.3,-1.35L0.1,-1.1L0.85,-0.2L1,0.4L0.95,0.45C0.717,1.25 0.417,1.783 0.05,2.05C-0.55,1.45 -0.917,0.7 -1.05,-0.2L-1.05,-0.35C-0.917,-0.85 -0.667,-1.183 -0.3,-1.35" style="fill:#1e1613;"/>
                        <path d="M1,0.4L0.85,-0.2L0.1,-1.1L-0.3,-1.35C-0.667,-1.183 -0.917,-0.85 -1.05,-0.35L-0.7,-1.25L-0.2,-1.65L0.35,-2L0.3,-1.75L1.1,-1.45C1.5,-1.317 1.6,-1.033 1.4,-0.6L1,0.4" style="fill:#c4b08e;"/>
                        <path d="M-0.3,-1.35L0.1,-1.1L0.85,-0.2L1,0.4L1.4,-0.6M0.35,-2L-0.2,-1.65L-0.7,-1.25L-1.05,-0.35L-1.05,-0.2C-0.917,0.7 -0.55,1.45 0.05,2.05C0.417,1.783 0.717,1.25 0.95,0.45L1,0.4" style="fill:none;fill-rule:nonzero;stroke:#000;stroke-opacity:0.3;stroke-width:0.05px;"/>
                    </g>
                </g>
                <g id="sprite14" transform="matrix(1,0,0,1,2.75,-15)">
                    <g id="shape14">
                        <path d="M-1.5,-2.7C-0.567,-2.867 0.383,-2.267 1.35,-0.9C1.65,-0.2 1.833,0.533 1.9,1.3C0.967,2.4 0.067,2.883 -0.8,2.75C-1.9,0.65 -2.133,-1.167 -1.5,-2.7" style="fill:#c4b08e;"/>
                        <path d="M1.35,-0.9C1.65,-0.2 1.833,0.533 1.9,1.3M-0.8,2.75C-1.9,0.65 -2.133,-1.167 -1.5,-2.7" style="fill:none;fill-rule:nonzero;stroke:#000;stroke-opacity:0.3;stroke-width:0.05px;"/>
                    </g>
                </g>
                <g id="sprite15" transform="matrix(1,0,0,1,6.35,-11.55)">
                    <g id="shape15">
                        <path d="M-0.2,0.95C-0.467,0.35 -0.5,-0.3 -0.3,-1C0.067,-1.267 0.417,-1.333 0.75,-1.2C1.35,-0.333 1.567,0.65 1.4,1.75C0.733,1.75 0.2,1.5 -0.2,1L-0.2,0.95" style="fill:#1e1613;"/>
                        <path d="M-1.4,-0.1L-1.15,-1.5L-0.05,-1.7L0.75,-1.2C0.417,-1.333 0.067,-1.267 -0.3,-1C-0.5,-0.3 -0.467,0.35 -0.2,0.95L-0.85,0.45L-1.4,-0.1" style="fill:#c4b08e;"/>
                        <path d="M-1.4,-0.1L-0.85,0.45L-0.2,0.95L-0.2,1C0.2,1.5 0.733,1.75 1.4,1.75C1.567,0.65 1.35,-0.333 0.75,-1.2L-0.05,-1.7" style="fill:none;fill-rule:nonzero;stroke:#000;stroke-opacity:0.3;stroke-width:0.05px;"/>
                    </g>
                </g>
                <g id="sprite16" transform="matrix(1,0,0,1,3.7,-13.05)">
                    <g id="shape16">
                        <path d="M0.85,-1.45C1.183,-1.35 1.617,-1.067 2.15,-0.6L3.05,0.2L1.5,1.45C0.6,1.483 -0.483,1.283 -1.75,0.85C-1.85,-0.717 -0.983,-1.483 0.85,-1.45" style="fill:#c4b08e;"/>
                        <path d="M0.85,-1.45C1.183,-1.35 1.617,-1.067 2.15,-0.6L3.05,0.2M1.5,1.45C0.6,1.483 -0.483,1.283 -1.75,0.85" style="fill:none;fill-rule:nonzero;stroke:#000;stroke-opacity:0.3;stroke-width:0.05px;"/>
                        <path d="M-1.35,0.8L-2.5,0.35C-2.933,-0.25 -3.15,-0.767 -3.15,-1.2L-2,-0.65L-1.75,-0.5L-1.4,0.35L-1.35,0.8" style="fill:#c4b08e;"/>
                        <path d="M-1.35,0.8L-2.5,0.35C-2.933,-0.25 -3.15,-0.767 -3.15,-1.2L-2,-0.65L-1.75,-0.5" style="fill:none;fill-rule:nonzero;stroke:#000;stroke-opacity:0.3;stroke-width:0.05px;"/>
                        <path d="M-0.85,1.15L-1.75,1.25C-2.15,1.083 -2.383,0.833 -2.45,0.5L-1.35,0.55L-0.9,0.75L-0.95,0.75C-0.65,0.883 -0.617,1.017 -0.85,1.15" style="fill:#c4b08e;"/>
                        <path d="M-1.35,0.55L-2.45,0.5C-2.383,0.833 -2.15,1.083 -1.75,1.25L-0.85,1.15" style="fill:none;fill-rule:nonzero;stroke:#000;stroke-opacity:0.3;stroke-width:0.05px;"/>
                    </g>
                </g>
                <g id="sprite17" transform="matrix(1,0,0,1,3.55,-29.9)">
                    <g id="shape17">
                        <path d="M9.35,-7.75L11.15,-8.95C12.583,-8.75 13.8,-8.3 14.8,-7.6L15.4,-7.05C16.2,-6.25 16.35,-5.45 15.85,-4.65C14.817,-3.383 13.65,-3.1 12.35,-3.8L12.05,-4C10.917,-5.1 10.017,-6.35 9.35,-7.75" style="fill:#8c7653;"/>
                        <path d="M9.35,-7.75C10.017,-6.35 10.917,-5.1 12.05,-4L12.35,-3.8C13.65,-3.1 14.817,-3.383 15.85,-4.65C16.35,-5.45 16.2,-6.25 15.4,-7.05L14.8,-7.6C13.8,-8.3 12.583,-8.75 11.15,-8.95L9.35,-7.75Z" style="fill:none;fill-rule:nonzero;stroke:#000;stroke-opacity:0.3;stroke-width:0.05px;"/>
                        <path d="M-5.95,2.3C-4.017,4.967 -4.25,6.567 -6.65,7.1C-8.35,6.6 -9.667,6 -10.6,5.3C-12.767,3.667 -13.733,2.017 -13.5,0.35C-12.767,0.583 -11.883,0.967 -10.85,1.5L-5.95,2.3" style="fill:#8c7653;"/>
                        <path d="M-6.65,7.1C-8.35,6.6 -9.667,6 -10.6,5.3C-12.767,3.667 -13.733,2.017 -13.5,0.35C-12.767,0.583 -11.883,0.967 -10.85,1.5L-5.95,2.3" style="fill:none;fill-rule:nonzero;stroke:#000;stroke-opacity:0.4;stroke-width:0.05px;"/>
                        <path d="M13.55,5C12.983,6.3 12.15,7.233 11.05,7.8C9.783,8.567 8.433,9.15 7,9.55L1.55,10.15L0.5,10.15C-2.7,9.95 -5.467,9.083 -7.8,7.55C-8.667,6.983 -9.4,6.3 -10,5.5C-11,4.133 -11.55,2.417 -11.65,0.35L-11.7,-0.5L-11.7,-0.65C-5.167,3.983 3.25,5.867 13.55,5" style="fill:#8c7653;"/>
                        <path d="M-10.05,-7.1C-9.483,-8.133 -8.767,-9.1 -7.9,-10C-5.367,-12.633 -2.233,-13.95 1.5,-13.95C5.2,-13.95 8.3,-12.617 10.8,-9.95C12.8,-7.817 13.983,-5.233 14.35,-2.2L14.45,0.1C14.417,1.467 14.267,2.683 14,3.75L13.55,5C3.25,5.867 -5.167,3.983 -11.7,-0.65C-11.7,-3.017 -11.15,-5.167 -10.05,-7.1" style="fill:#cebb97;"/>
                        <path d="M-10.05,-7.1C-9.483,-8.133 -8.767,-9.1 -7.9,-10C-5.367,-12.633 -2.233,-13.95 1.5,-13.95C5.2,-13.95 8.3,-12.617 10.8,-9.95C12.8,-7.817 13.983,-5.233 14.35,-2.2L14.45,0.1C14.417,1.467 14.267,2.683 14,3.75L13.55,5C12.983,6.3 12.15,7.233 11.05,7.8C9.783,8.567 8.433,9.15 7,9.55L1.55,10.15L0.5,10.15C-2.7,9.95 -5.467,9.083 -7.8,7.55C-8.667,6.983 -9.4,6.3 -10,5.5" style="fill:none;fill-rule:nonzero;stroke:#000;stroke-opacity:0.3;stroke-width:0.05px;"/>
                        <path d="M-14.5,-8L-14.8,-7.65L-14.65,-7.9L-14.5,-8" style="fill:#704628;"/>
                        <path d="M-15.1,-6.8C-15.133,-4.567 -13.533,-2.083 -10.3,0.65L-4.75,1.05L-6.1,3.2C-8.733,3.233 -10.55,2.7 -11.55,1.6C-12.45,0.9 -13.35,-0.25 -14.25,-1.85C-15.017,-3.517 -15.317,-5.067 -15.15,-6.5L-15.1,-6.8" style="fill:#8c7653;"/>
                        <path d="M-14.5,-8L-14.35,-8.1L-11.1,-7.7C-9.967,-8.133 -9.017,-8.783 -8.25,-9.65C-3.517,-7.017 -2.35,-3.45 -4.75,1.05L-10.3,0.65C-13.533,-2.083 -15.133,-4.567 -15.1,-6.8L-14.8,-7.65L-14.5,-8" style="fill:#cebb97;"/>
                        <path d="M-8.25,-9.65C-9.017,-8.783 -9.967,-8.133 -11.1,-7.7L-14.35,-8.1L-14.65,-7.9L-14.8,-7.65L-15.1,-6.8L-15.15,-6.5C-15.317,-5.067 -15.017,-3.517 -14.25,-1.85C-13.35,-0.25 -12.45,0.9 -11.55,1.6" style="fill:none;fill-rule:nonzero;stroke:#000;stroke-opacity:0.3;stroke-width:0.05px;"/>
                        <path d="M12.65,6.4C12.317,4.867 12.133,3.4 12.1,2L12.5,-3.5C12.633,-5.9 12.183,-7.917 11.15,-9.55C13.383,-6.95 14.467,-3.733 14.4,0.1C14.333,2.9 13.75,5 12.65,6.4" style="fill:#fff;"/>
                        <path d="M11.15,-9.55C13.383,-6.95 14.467,-3.733 14.4,0.1C14.333,2.9 13.75,5 12.65,6.4" style="fill:none;fill-rule:nonzero;stroke:#000;stroke-opacity:0.3;stroke-width:0.05px;"/>
                        <path d="M8.6,4.4C10,3.067 11.25,2.883 12.35,3.85L12.7,4.8L13.95,6C14.283,6.667 14.4,7.2 14.3,7.6C14.2,8.2 13.9,8.817 13.4,9.45C12.433,10.65 10.967,11.317 9,11.45L3.6,11C3.133,10.4 2.917,9.85 2.95,9.35L3,9.05C3.5,7.25 5.367,5.7 8.6,4.4" style="fill:#fff;"/>
                        <path d="M2.95,9.35C2.917,9.85 3.133,10.4 3.6,11L9,11.45C10.967,11.317 12.433,10.65 13.4,9.45C12.033,11.55 9.433,12.45 5.6,12.15L3.3,11.85L2.9,10.5L2.95,9.35" style="fill:#d2c7b1;"/>
                        <path d="M13.4,9.45C13.9,8.817 14.2,8.2 14.3,7.6C14.4,7.2 14.283,6.667 13.95,6L12.7,4.8L12.35,3.85C11.25,2.883 10,3.067 8.6,4.4M13.4,9.45C12.033,11.55 9.433,12.45 5.6,12.15" style="fill:none;fill-rule:nonzero;stroke:#000;stroke-opacity:0.3;stroke-width:0.05px;"/>
                        <path d="M-5.85,4.05C-5.983,3.017 -5.967,2.033 -5.8,1.1L-5.7,0.65C-4.633,-1.217 -3.183,-2.35 -1.35,-2.75C0.45,-3.15 2.05,-3.15 3.45,-2.75C4.817,-2.35 5.9,-1.483 6.7,-0.15L8.2,2.85L9,5.05C8.8,8.383 8.133,10.517 7,11.45L6.4,11.45C3.1,11.35 -0.867,8.983 -5.5,4.35L-5.85,4.05" style="fill:#fff;"/>
                        <path d="M6.4,11.45L2.35,11.25L0.45,10.8L-1.5,10.15C-2.433,9.75 -3.183,9.2 -3.75,8.5L-5.15,6.4L-5.85,4.05L-5.5,4.35C-0.867,8.983 3.1,11.35 6.4,11.45" style="fill:#dbd5c9;"/>
                        <path d="M13.55,-1.65C13.817,-1.55 13.883,-2.7 13.75,-5.1C14.317,-2.367 14.55,-0.133 14.45,1.6C14.317,3.333 13.95,4.883 13.35,6.25L12.85,5.95L13.25,3.35C13.583,2.05 13.683,0.383 13.55,-1.65" style="fill:#fff;"/>
                        <path d="M13.55,-1.65C13.817,-1.55 13.883,-2.7 13.75,-5.1C14.317,-2.367 14.55,-0.133 14.45,1.6C14.317,3.333 13.95,4.883 13.35,6.25L12.85,5.95" style="fill:none;fill-rule:nonzero;stroke:#000;stroke-opacity:0.3;stroke-width:0.05px;"/>
                        <path d="M12.55,4.7C12.117,2.533 12.017,0.267 12.25,-2.1C12.583,-4.033 13.183,-5.033 14.05,-5.1L14.6,-1.85C14.733,-0.383 14.683,1.083 14.45,2.55C14.217,3.583 13.933,4.35 13.6,4.85C13.233,5.217 12.883,5.167 12.55,4.7" style="fill:#fff;"/>
                        <path d="M12.55,4.7C12.883,5.167 13.233,5.217 13.6,4.85C13.933,4.35 14.217,3.583 14.45,2.55C14.683,1.083 14.733,-0.383 14.6,-1.85L14.05,-5.1" style="fill:none;fill-rule:nonzero;stroke:#000;stroke-opacity:0.15;stroke-width:0.05px;"/>
                        <path d="M12.2,-0.65C12.033,-0.383 11.95,-0.05 11.95,0.35L12.15,1.45C12.283,1.783 12.45,1.9 12.65,1.8L12.85,1.45L13,0.8L13,0.1L12.85,-0.65L12.65,-1L12.55,-1.05L12.2,-0.65M12.1,-1.5C12.3,-2.1 12.533,-2.4 12.8,-2.4C13.067,-2.4 13.283,-2.1 13.45,-1.5L13.65,0.6L13.3,2.75C13.1,3.317 12.867,3.6 12.6,3.6C12.333,3.6 12.117,3.317 11.95,2.75C11.783,2.15 11.717,1.433 11.75,0.6C11.75,-0.233 11.867,-0.933 12.1,-1.5" style="fill:#8a9d40;"/>
                        <path d="M11.95,-2C12.217,-2.7 12.533,-3.05 12.9,-3.05C13.233,-3.05 13.517,-2.7 13.75,-2C13.95,-1.267 14.033,-0.4 14,0.6C13.967,1.633 13.817,2.5 13.55,3.2C13.25,3.933 12.933,4.3 12.6,4.3C12.233,4.3 11.95,3.933 11.75,3.2C11.517,2.5 11.417,1.633 11.45,0.6C11.483,-0.4 11.65,-1.267 11.95,-2M12.1,-1.5C11.867,-0.933 11.75,-0.233 11.75,0.6C11.717,1.433 11.783,2.15 11.95,2.75C12.117,3.317 12.333,3.6 12.6,3.6C12.867,3.6 13.1,3.317 13.3,2.75L13.65,0.6L13.45,-1.5C13.283,-2.1 13.067,-2.4 12.8,-2.4C12.533,-2.4 12.3,-2.1 12.1,-1.5" style="fill:#343f0b;"/>
                        <path d="M12.2,-0.65L12.55,-1.05L12.65,-1L12.85,-0.65L13,0.1L13,0.8L12.85,1.45L12.65,1.8C12.45,1.9 12.283,1.783 12.15,1.45L11.95,0.35C11.95,-0.05 12.033,-0.383 12.2,-0.65" style="fill:#1e1e1e;"/>
                        <path d="M11.95,-2C11.65,-1.267 11.483,-0.4 11.45,0.6C11.417,1.633 11.517,2.5 11.75,3.2C11.95,3.933 12.233,4.3 12.6,4.3C12.933,4.3 13.25,3.933 13.55,3.2C13.817,2.5 13.967,1.633 14,0.6C14.033,-0.4 13.95,-1.267 13.75,-2C13.517,-2.7 13.233,-3.05 12.9,-3.05C12.533,-3.05 12.217,-2.7 11.95,-2Z" style="fill:none;fill-rule:nonzero;stroke:#000;stroke-opacity:0.4;stroke-width:0.05px;"/>
                        <path d="M13.45,-0.25L13.7,-0.1L13.65,0.2L13.35,0.45L13,0.5L12.75,0.35L12.8,0.05L13.05,-0.2L13.45,-0.25" style="fill:#fffff0;"/>
                        <path d="M13.25,-5.1L14.15,-6.55C14.45,-5.983 14.55,-4.85 14.45,-3.15C14.283,-3.783 14.067,-4.117 13.8,-4.15C13.367,-3.917 12.883,-3.183 12.35,-1.95C12.117,-0.183 12.067,1.55 12.2,3.25L12.15,3.25C11.983,1.317 11.983,-0.317 12.15,-1.65C12.283,-3.017 12.65,-4.167 13.25,-5.1" style="fill:#1c1b1b;"/>
                        <path d="M11.2,-9.45C12.167,-7.85 12.6,-5.867 12.5,-3.5L12.1,2L12.15,2.55L12.15,2.6C12.417,3.9 12.7,4.767 13,5.2L14.15,6.4C14.483,7.033 13.967,7.4 12.6,7.5C11.233,6.933 10.217,6.283 9.55,5.55C8.95,4.883 8.65,4.317 8.65,3.85L9.9,2.4L8.55,0.5L11.2,-9.45" style="fill:#cebb97;"/>
                        <path d="M12.6,7.5C13.967,7.4 14.483,7.033 14.15,6.4L13,5.2C12.7,4.767 12.417,3.9 12.15,2.6L12.15,2.55L12.1,2L12.5,-3.5C12.6,-5.867 12.167,-7.85 11.2,-9.45" style="fill:none;fill-rule:nonzero;stroke:#000;stroke-opacity:0.3;stroke-width:0.05px;"/>
                        <path d="M14.15,5.85C14.617,6.25 14.7,6.883 14.4,7.75C14.2,7.917 13.983,7.917 13.75,7.75L13.25,7.45C12.717,7.817 12.433,7.817 12.4,7.45C12.4,7.083 12.583,6.65 12.95,6.15C13.417,5.75 13.817,5.65 14.15,5.85" style="fill:#1c1b1b;"/>
                        <path d="M14.15,5.85C14.617,6.25 14.7,6.883 14.4,7.75C14.2,7.917 13.983,7.917 13.75,7.75L13.25,7.45C12.717,7.817 12.433,7.817 12.4,7.45C12.4,7.083 12.583,6.65 12.95,6.15C13.417,5.75 13.817,5.65 14.15,5.85Z" style="fill:none;fill-rule:nonzero;stroke:#000;stroke-opacity:0.4;stroke-width:1px;"/>
                        <path d="M-4.9,11.45C-3.7,10.817 -3.083,10.767 -3.05,11.3L0.5,14.5C0.767,15.833 0.517,16.633 -0.25,16.9C-1.05,17.133 -1.65,16.95 -2.05,16.35C-3.117,16.55 -3.883,16.117 -4.35,15.05C-4.75,15.05 -5.25,14.617 -5.85,13.75C-6.417,12.85 -6.1,12.083 -4.9,11.45M-3.5,14.7C-2.833,15.8 -2.367,15.8 -2.1,14.7C-1.433,16.067 -0.817,16.533 -0.25,16.1C0.583,15.6 -0.3,14.367 -2.9,12.4L-4.65,12.95C-5.15,13.517 -4.767,13.967 -3.5,14.3L-3.5,14.7" style="fill:#fff;"/>
                        <path d="M-3.5,14.7L-3.5,14.3C-4.767,13.967 -5.15,13.517 -4.65,12.95L-2.9,12.4C-0.3,14.367 0.583,15.6 -0.25,16.1C-0.817,16.533 -1.433,16.067 -2.1,14.7C-2.367,15.8 -2.833,15.8 -3.5,14.7" style="fill:#c5b8a3;"/>
                        <path d="M-4.9,11.45C-6.1,12.083 -6.417,12.85 -5.85,13.75C-5.25,14.617 -4.75,15.05 -4.35,15.05C-3.883,16.117 -3.117,16.55 -2.05,16.35C-1.65,16.95 -1.05,17.133 -0.25,16.9C0.517,16.633 0.767,15.833 0.5,14.5L-3.05,11.3C-3.083,10.767 -3.7,10.817 -4.9,11.45Z" style="fill:none;fill-rule:nonzero;stroke:#000;stroke-opacity:0.3;stroke-width:0.05px;"/>
                        <path d="M1.6,11.15L1.9,11.2L7.85,11.85L8.6,11.8L10.6,11.6C10.467,13.467 9.55,14.683 7.85,15.25L5.1,15.8L1.9,15.7C0.8,15.467 -0.317,14.983 -1.45,14.25L-2.9,13.1C-2.4,12.4 -1.05,12.533 1.15,13.5L5.8,13.65C5.6,12.683 4.2,11.85 1.6,11.15" style="fill:#6b0000;"/>
                        <path d="M-2.9,13.1C-4.1,11.867 -4.45,10.467 -3.95,8.9C-2.25,9.833 -0.5,10.55 1.3,11.05L1.6,11.15C4.2,11.85 5.6,12.683 5.8,13.65L1.15,13.5C-1.05,12.533 -2.4,12.4 -2.9,13.1" style="fill:#a40000;"/>
                        <path d="M-2.9,13.1C-4.1,11.867 -4.45,10.467 -3.95,8.9C-2.25,9.833 -0.5,10.55 1.3,11.05L1.6,11.15L1.9,11.2L7.85,11.85L8.6,11.8L10.6,11.6C10.467,13.467 9.55,14.683 7.85,15.25L5.1,15.8L1.9,15.7C0.8,15.467 -0.317,14.983 -1.45,14.25L-2.9,13.1Z" style="fill:none;fill-rule:nonzero;stroke:#000;stroke-opacity:0.3;stroke-width:0.05px;"/>
                        <path d="M7.5,-1.5L9.25,-2L9.35,-4.1L10.2,-2.25L11.65,-2.65L10.85,-1.05L10.95,-0.75L11,-0.7L11.65,0.9L10.15,-0.1L9,1.65L9,-0.55L7.5,-1.5" style="fill:#fff;"/>
                        <path d="M7.85,6.7C7.95,7.033 7.683,7.433 7.05,7.9L5.35,8.75L1.85,8.95C0.383,8.45 -0.667,7.567 -1.3,6.3L-1.6,5.55C-1.733,4.95 -1.65,4.35 -1.35,3.75C-0.617,3.25 0.6,2.983 2.3,2.95C4.533,3.117 6.133,3.5 7.1,4.1C7.5,4.833 7.75,5.65 7.85,6.55L7.85,6.7" style="fill:#fff;"/>
                        <path d="M7.85,6.55L7.9,6.6L7.85,6.7L7.85,6.55" style="fill:#c4b890;"/>
                        <path d="M-1.6,5.55L-2,3.15C0.1,1.55 2.233,1 4.4,1.5C5.6,2.167 6.5,3.033 7.1,4.1C6.133,3.5 4.533,3.117 2.3,2.95C0.6,2.983 -0.617,3.25 -1.35,3.75C-1.65,4.35 -1.733,4.95 -1.6,5.55" style="fill:#d9cbb1;"/>
                        <path d="M7.85,6.7C7.95,7.033 7.683,7.433 7.05,7.9L5.35,8.75L1.85,8.95C0.383,8.45 -0.667,7.567 -1.3,6.3L-1.6,5.55" style="fill:none;fill-rule:nonzero;stroke:#000;stroke-opacity:0.15;stroke-width:0.05px;"/>
                        <path d="M-2,3.15C0.1,1.55 2.233,1 4.4,1.5C5.6,2.167 6.5,3.033 7.1,4.1C7.5,4.833 7.75,5.65 7.85,6.55L7.9,6.6" style="fill:none;fill-rule:nonzero;stroke:#000;stroke-opacity:0.4;stroke-width:1px;"/>
                        <path d="M5.1,5.35C5.567,4.783 5.783,4.067 5.75,3.2C5.717,2.467 5.5,1.817 5.1,1.25L4.95,1.05C4.45,0.483 3.867,0.2 3.2,0.2C2.5,0.2 1.917,0.483 1.45,1.05L1.35,1.25C1.017,1.817 0.867,2.467 0.9,3.2C0.933,3.9 1.083,4.517 1.35,5.05L1.6,5.35C2.033,5.883 2.55,6.183 3.15,6.25L3.4,6.25C4.067,6.25 4.633,5.95 5.1,5.35M5.75,1.25C6.083,1.817 6.267,2.467 6.3,3.2C6.333,4.233 6.067,5.1 5.5,5.8C4.933,6.533 4.233,6.9 3.4,6.9L3.15,6.9C2.45,6.833 1.817,6.467 1.25,5.8C0.65,5.1 0.333,4.233 0.3,3.2C0.267,2.2 0.533,1.35 1.1,0.65C1.667,-0.083 2.35,-0.45 3.15,-0.45C3.983,-0.45 4.7,-0.083 5.3,0.65L5.75,1.25" style="fill:#343f0b;"/>
                        <path d="M5.1,5.35C4.633,5.95 4.067,6.25 3.4,6.25L3.15,6.25C2.55,6.183 2.033,5.883 1.6,5.35L1.35,5.05C1.083,4.517 0.933,3.9 0.9,3.2C0.867,2.467 1.017,1.817 1.35,1.25L1.45,1.05C1.917,0.483 2.5,0.2 3.2,0.2C3.867,0.2 4.45,0.483 4.95,1.05L5.1,1.25C5.5,1.817 5.717,2.467 5.75,3.2C5.783,4.067 5.567,4.783 5.1,5.35M3.9,1.25L3.85,1.25L3.75,1.3C3.55,1.333 3.35,1.45 3.15,1.65L3.1,1.7C2.9,2 2.8,2.367 2.8,2.8L3,3.55L3.15,3.85L3.2,3.9L3.8,4.3L4.2,4.3L4.8,3.9L5.05,3.1L5.05,2.95L5,2.45L4.9,2.1L4.7,1.7C4.5,1.4 4.233,1.25 3.9,1.25" style="fill:#8a9d40;"/>
                        <path d="M3.9,1.25C4.233,1.25 4.5,1.4 4.7,1.7L4.9,2.1L5,2.45L5.05,2.95L5.05,3.1L4.8,3.9L4.2,4.3L3.8,4.3L3.2,3.9L3.15,3.85L3,3.55L2.8,2.8C2.8,2.367 2.9,2 3.1,1.7L3.15,1.65C3.35,1.45 3.55,1.333 3.75,1.3L3.85,1.25L3.9,1.25" style="fill:#1e1e1e;"/>
                        <path d="M5.75,1.25C6.083,1.817 6.267,2.467 6.3,3.2C6.333,4.233 6.067,5.1 5.5,5.8C4.933,6.533 4.233,6.9 3.4,6.9L3.15,6.9C2.45,6.833 1.817,6.467 1.25,5.8C0.65,5.1 0.333,4.233 0.3,3.2C0.267,2.2 0.533,1.35 1.1,0.65C1.667,-0.083 2.35,-0.45 3.15,-0.45C3.983,-0.45 4.7,-0.083 5.3,0.65L5.75,1.25Z" style="fill:none;fill-rule:nonzero;stroke:#000;stroke-opacity:0.4;stroke-width:0.05px;"/>
                        <path d="M3.7,-0.65C5.233,-0.417 6.167,0.6 6.5,2.4C4.233,1.067 1.65,0.717 -1.25,1.35C-0.817,0.55 0.133,-0.117 1.6,-0.65C2.133,-0.817 2.833,-0.817 3.7,-0.65" style="fill:#cebb97;"/>
                        <path d="M7.85,6.1C7.417,4.167 6.3,2.75 4.5,1.85C2.533,1.25 0.417,1.783 -1.85,3.45C-1.85,4.517 -1.667,5.467 -1.3,6.3C-2.6,5.067 -3.417,3.7 -3.75,2.2L-2.7,2.7C-2.067,2.033 -1.35,1.517 -0.55,1.15C1.05,0.317 2.733,0.2 4.5,0.8C6.533,1.633 7.65,3.4 7.85,6.1" style="fill:#1c1b1b;"/>
                        <path d="M7.85,6.1L7.85,6.15L7.95,6.8M7.85,6.1C7.65,3.4 6.533,1.633 4.5,0.8C2.733,0.2 1.05,0.317 -0.55,1.15C-1.35,1.517 -2.067,2.033 -2.7,2.7L-3.75,2.2C-3.417,3.7 -2.6,5.067 -1.3,6.3C-1.667,5.467 -1.85,4.517 -1.85,3.45C0.417,1.783 2.533,1.25 4.5,1.85C6.3,2.75 7.417,4.167 7.85,6.1Z" style="fill:none;fill-rule:nonzero;stroke:#000;stroke-opacity:0.4;stroke-width:0.05px;"/>
                        <path d="M3.1,2.85L3.45,3.15L3.1,3.45L2.25,3.6L1.45,3.45L1.1,3.15C1.1,3.017 1.217,2.917 1.45,2.85L2.25,2.7L3.1,2.85" style="fill:#fffff0;"/>
                        <path d="M-11.35,6.4L-12.3,6.1C-13.133,5.567 -13.333,4.667 -12.9,3.4L-12.55,2.55C-11.85,1.217 -10.833,0.033 -9.5,-1L-7.15,-0.7C-7.15,0.3 -7.267,1.283 -7.5,2.25L-10.7,2.4C-11.367,4.067 -11.583,5.4 -11.35,6.4" style="fill:#8c7653;"/>
                        <path d="M-7.5,2.25L-8.2,4.6L-8.4,5C-9.233,6.133 -10.217,6.6 -11.35,6.4C-11.583,5.4 -11.367,4.067 -10.7,2.4L-7.5,2.25" style="fill:#c4b08e;"/>
                        <path d="M-11.35,6.4L-12.3,6.1C-13.133,5.567 -13.333,4.667 -12.9,3.4L-12.55,2.55C-11.85,1.217 -10.833,0.033 -9.5,-1L-7.15,-0.7C-7.15,0.3 -7.267,1.283 -7.5,2.25L-8.2,4.6L-8.4,5C-9.233,6.133 -10.217,6.6 -11.35,6.4Z" style="fill:none;fill-rule:nonzero;stroke:#000;stroke-opacity:0.3;stroke-width:0.05px;"/>
                        <path d="M-22.05,-17.95L-20.65,-18.05C-19.083,-17.95 -18.067,-17.367 -17.6,-16.3C-16.5,-15.433 -16.067,-14.433 -16.3,-13.3L-16.95,-11.5L-18.85,-9.45C-21.117,-8.55 -22.75,-8.667 -23.75,-9.8L-24.2,-11.05C-24.833,-11.55 -25.267,-12.05 -25.5,-12.55L-23.5,-11.05L-22.2,-11.9C-22.4,-10.767 -21.75,-10.317 -20.25,-10.55L-18.95,-11.5L-19.7,-13C-18.9,-14.467 -19.167,-15.617 -20.5,-16.45L-22.05,-17.95" style="fill:#c5b8a3;"/>
                        <path d="M-25.5,-12.55C-26.167,-13.717 -26.05,-14.833 -25.15,-15.9C-24.717,-17.167 -23.683,-17.85 -22.05,-17.95L-20.5,-16.45C-19.167,-15.617 -18.9,-14.467 -19.7,-13L-18.95,-11.5L-20.25,-10.55C-21.75,-10.317 -22.4,-10.767 -22.2,-11.9L-23.5,-11.05L-25.5,-12.55" style="fill:#fff;"/>
                        <path d="M-22.05,-17.95L-20.65,-18.05C-19.083,-17.95 -18.067,-17.367 -17.6,-16.3C-16.5,-15.433 -16.067,-14.433 -16.3,-13.3L-16.95,-11.5L-18.85,-9.45C-21.117,-8.55 -22.75,-8.667 -23.75,-9.8L-24.2,-11.05C-24.833,-11.55 -25.267,-12.05 -25.5,-12.55C-26.167,-13.717 -26.05,-14.833 -25.15,-15.9C-24.717,-17.167 -23.683,-17.85 -22.05,-17.95Z" style="fill:none;fill-rule:nonzero;stroke:#000;stroke-opacity:0.3;stroke-width:0.05px;"/>
                        <path d="M-7.45,-24.2C-5.517,-24.333 -4.017,-23.583 -2.95,-21.95C-1.85,-20.317 -2,-18.383 -3.4,-16.15C-4.367,-14.617 -7.9,-13.333 -14,-12.3L-17.05,-12.2C-18.717,-12.2 -19.75,-12.917 -20.15,-14.35C-19.517,-13.883 -18.383,-14.133 -16.75,-15.1C-16.683,-16.033 -16.283,-17.3 -15.55,-18.9L-12.6,-22.05C-11.167,-23.383 -9.45,-24.1 -7.45,-24.2" style="fill:#6b0000;"/>
                        <path d="M-15.55,-18.9C-16.283,-17.3 -16.683,-16.033 -16.75,-15.1C-18.383,-14.133 -19.517,-13.883 -20.15,-14.35C-20.183,-14.95 -19.217,-15.9 -17.25,-17.2L-15.55,-18.9" style="fill:#a40000;"/>
                        <path d="M-7.45,-24.2C-9.45,-24.1 -11.167,-23.383 -12.6,-22.05L-15.55,-18.9L-17.25,-17.2C-19.217,-15.9 -20.183,-14.95 -20.15,-14.35C-19.75,-12.917 -18.717,-12.2 -17.05,-12.2L-14,-12.3C-7.9,-13.333 -4.367,-14.617 -3.4,-16.15" style="fill:none;fill-rule:nonzero;stroke:#000;stroke-opacity:0.4;stroke-width:0.05px;"/>
                        <path d="M2.3,-32.5C3.3,-32.067 4.567,-31.033 6.1,-29.4L10.5,-23.85C10.967,-22.45 10.15,-21.167 8.05,-20C6.517,-19 6.917,-17.367 9.25,-15.1C10.65,-13.933 10.733,-13.6 9.5,-14.1C7.133,-15.567 5.217,-17.167 3.75,-18.9C2.65,-20.4 2.633,-21.5 3.7,-22.2L3.25,-23.15C3.783,-22.217 4.533,-21.35 5.5,-20.55C5,-22.283 4.033,-24.017 2.6,-25.75C3.467,-25.183 4.217,-24.333 4.85,-23.2L5.75,-23.8L5.9,-24.2C6.733,-23.267 7.717,-22.767 8.85,-22.7C7.417,-26.5 5.233,-29.767 2.3,-32.5" style="fill:#8c7653;"/>
                        <path d="M2.3,-32.5C5.233,-29.767 7.417,-26.5 8.85,-22.7C7.717,-22.767 6.733,-23.267 5.9,-24.2L5.35,-25.95L4.7,-27C2.733,-30.4 1.933,-32.233 2.3,-32.5M2.6,-25.75C4.033,-24.017 5,-22.283 5.5,-20.55C4.533,-21.35 3.783,-22.217 3.25,-23.15C2.617,-24.583 2.4,-25.45 2.6,-25.75" style="fill:#decda5;"/>
                        <path d="M3.25,-23.15L3.7,-22.2C2.633,-21.5 2.65,-20.4 3.75,-18.9C5.217,-17.167 7.133,-15.567 9.5,-14.1C10.733,-13.6 10.65,-13.933 9.25,-15.1C6.917,-17.367 6.517,-19 8.05,-20C10.15,-21.167 10.967,-22.45 10.5,-23.85L6.1,-29.4C4.567,-31.033 3.3,-32.067 2.3,-32.5C1.933,-32.233 2.733,-30.4 4.7,-27L5.35,-25.95L5.9,-24.2L5.75,-23.8L4.85,-23.2C4.217,-24.333 3.467,-25.183 2.6,-25.75C2.4,-25.45 2.617,-24.583 3.25,-23.15Z" style="fill:none;fill-rule:nonzero;stroke:#000;stroke-opacity:0.3;stroke-width:0.05px;"/>
                        <path d="M-13.8,-11.05L-13.45,-10.85L-13.75,-10.9L-13.8,-11.05" style="fill:#c00;"/>
                        <path d="M-13.8,-11.05L-13.75,-10.9" style="fill:none;fill-rule:nonzero;stroke:#000;stroke-opacity:0.4;stroke-width:0.05px;"/>
                        <path d="M-2.2,-24.4L2.55,-22.3L3.55,-21.45L3.95,-21.15L7.4,-17.95L7.75,-17.55C9.383,-15.85 9.533,-14.383 8.2,-13.15C7.167,-11.683 5.9,-10.45 4.4,-9.45C0.933,-7.117 -3.633,-6.067 -9.3,-6.3C-6.167,-7.4 -5,-10.283 -5.8,-14.95L-7.2,-11.6C-8.167,-15.2 -7.983,-16.95 -6.65,-16.85L-5.25,-16.6L-4.75,-16.55C-2.683,-16.517 -0.95,-17.267 0.45,-18.8C1.017,-21.467 0.133,-23.333 -2.2,-24.4" style="fill:#6b0000;"/>
                        <path d="M-2.2,-24.4C0.133,-23.333 1.017,-21.467 0.45,-18.8C-0.95,-17.267 -2.683,-16.517 -4.75,-16.55L-5.25,-16.6L-6.65,-16.85C-7.983,-16.95 -8.167,-15.2 -7.2,-11.6L-5.8,-14.95C-5,-10.283 -6.167,-7.4 -9.3,-6.3C-11.833,-6.367 -13.433,-7.15 -14.1,-8.65C-14.467,-10.917 -14.383,-13.067 -13.85,-15.1L-12.4,-19.8C-11.9,-21.367 -11.067,-22.517 -9.9,-23.25C-8.733,-24.017 -7.667,-24.467 -6.7,-24.6L-5.8,-24.75L-4.5,-24.95C-4,-25.017 -3.233,-24.833 -2.2,-24.4" style="fill:#a40000;"/>
                        <path d="M-9.3,-6.3C-3.633,-6.067 0.933,-7.117 4.4,-9.45C5.9,-10.45 7.167,-11.683 8.2,-13.15C9.533,-14.383 9.383,-15.85 7.75,-17.55L7.4,-17.95L3.95,-21.15L3.55,-21.45L2.55,-22.3L-2.2,-24.4C-3.233,-24.833 -4,-25.017 -4.5,-24.95L-5.8,-24.75L-6.7,-24.6C-7.667,-24.467 -8.733,-24.017 -9.9,-23.25C-11.067,-22.517 -11.9,-21.367 -12.4,-19.8M-9.3,-6.3C-11.833,-6.367 -13.433,-7.15 -14.1,-8.65C-14.467,-10.917 -14.383,-13.067 -13.85,-15.1" style="fill:none;fill-rule:nonzero;stroke:#000;stroke-opacity:0.3;stroke-width:0.05px;"/>
                        <path d="M-22.5,-17.85C-23.367,-19.783 -23.6,-21.233 -23.2,-22.2C-22.5,-22.367 -20.75,-20.933 -17.95,-17.9C-16.717,-15.867 -16.033,-14.15 -15.9,-12.75C-18.333,-13.35 -20.533,-15.05 -22.5,-17.85M-12.95,-16.1C-13.883,-17.133 -14.333,-18.1 -14.3,-19C-12.833,-18.2 -11.6,-16.65 -10.6,-14.35C-11.267,-14.45 -12.05,-15.033 -12.95,-16.1" style="fill:#decda5;"/>
                        <path d="M-17.95,-17.9L-17.1,-16.9C-16.067,-16 -15.217,-15.6 -14.55,-15.7L-12.95,-16.1C-12.05,-15.033 -11.267,-14.45 -10.6,-14.35C-11.6,-16.65 -12.833,-18.2 -14.3,-19C-13.567,-19.033 -12.283,-18.233 -10.45,-16.6C-8.517,-17.1 -7.033,-16.617 -6,-15.15C-4.967,-13.183 -4.567,-10.967 -4.8,-8.5C-5.2,-7.333 -5.583,-7.55 -5.95,-9.15C-6.85,-11.917 -8.7,-12.95 -11.5,-12.25C-15.033,-11.083 -17.55,-11 -19.05,-12C-20.65,-14.267 -21.8,-16.217 -22.5,-17.85C-20.533,-15.05 -18.333,-13.35 -15.9,-12.75C-16.033,-14.15 -16.717,-15.867 -17.95,-17.9" style="fill:#8c7653;"/>
                        <path d="M-22.5,-17.85C-23.367,-19.783 -23.6,-21.233 -23.2,-22.2C-22.5,-22.367 -20.75,-20.933 -17.95,-17.9L-17.1,-16.9C-16.067,-16 -15.217,-15.6 -14.55,-15.7L-12.95,-16.1C-13.883,-17.133 -14.333,-18.1 -14.3,-19C-13.567,-19.033 -12.283,-18.233 -10.45,-16.6C-8.517,-17.1 -7.033,-16.617 -6,-15.15C-4.967,-13.183 -4.567,-10.967 -4.8,-8.5C-5.2,-7.333 -5.583,-7.55 -5.95,-9.15C-6.85,-11.917 -8.7,-12.95 -11.5,-12.25C-15.033,-11.083 -17.55,-11 -19.05,-12C-20.65,-14.267 -21.8,-16.217 -22.5,-17.85Z" style="fill:none;fill-rule:nonzero;stroke:#000;stroke-opacity:0.3;stroke-width:0.05px;"/>
                        <path d="M-12.25,0.7C-13.383,1.233 -14.383,1.1 -15.25,0.3C-16.15,-0.533 -16.55,-1.917 -16.45,-3.85C-18.017,-7.217 -17.583,-9.7 -15.15,-11.3C-13.15,-11.567 -11.15,-10.983 -9.15,-9.55C-6.917,-11.35 -4.233,-11.833 -1.1,-11C2.167,-14.767 4.717,-16.55 6.55,-16.35L6.6,-18.35L9.85,-18.45C11.15,-17.717 11.817,-16.217 11.85,-13.95C13.517,-12.683 14.467,-10.767 14.7,-8.2C13.667,-10.967 12.517,-12.633 11.25,-13.2C10.817,-15.133 10.25,-16.283 9.55,-16.65C8.183,-15.917 7.167,-14.05 6.5,-11.05C5.7,-11.717 4.317,-11.8 2.35,-11.3L0.05,-8.95C-1.217,-9.35 -3.683,-8.433 -7.35,-6.2C-11.083,-8.133 -13.633,-8.517 -15,-7.35C-15.333,-5.983 -14.783,-4.633 -13.35,-3.3C-14.15,-1.4 -13.783,-0.067 -12.25,0.7" style="fill:#fff;"/>
                        <path d="M-12.25,0.7C-13.783,-0.067 -14.15,-1.4 -13.35,-3.3C-14.783,-4.633 -15.333,-5.983 -15,-7.35C-13.633,-8.517 -11.083,-8.133 -7.35,-6.2C-3.683,-8.433 -1.217,-9.35 0.05,-8.95L2.35,-11.3C4.317,-11.8 5.7,-11.717 6.5,-11.05C7.167,-14.05 8.183,-15.917 9.55,-16.65C10.25,-16.283 10.817,-15.133 11.25,-13.2C12.517,-12.633 13.667,-10.967 14.7,-8.2L14.3,-7.05C13.367,-5.95 12.067,-5.333 10.4,-5.2C6.633,-2.067 2.15,-0.583 -3.05,-0.75C-6.817,1.55 -9.883,2.033 -12.25,0.7" style="fill:#c5b8a3;"/>
                        <path d="M14.7,-8.2C14.467,-10.767 13.517,-12.683 11.85,-13.95C11.817,-16.217 11.15,-17.717 9.85,-18.45L6.6,-18.35L6.55,-16.35C4.717,-16.55 2.167,-14.767 -1.1,-11C-4.233,-11.833 -6.917,-11.35 -9.15,-9.55C-11.15,-10.983 -13.15,-11.567 -15.15,-11.3C-17.583,-9.7 -18.017,-7.217 -16.45,-3.85C-16.55,-1.917 -16.15,-0.533 -15.25,0.3C-14.383,1.1 -13.383,1.233 -12.25,0.7C-9.883,2.033 -6.817,1.55 -3.05,-0.75C2.15,-0.583 6.633,-2.067 10.4,-5.2C12.067,-5.333 13.367,-5.95 14.3,-7.05L14.7,-8.2Z" style="fill:none;fill-rule:nonzero;stroke:#000;stroke-opacity:0.3;stroke-width:0.05px;"/>
                    </g>
                </g>
            </g>
        </g>
    </g>
</svg>
