<?xml version="1.0" encoding="UTF-8"?>
<svg version="1.1" viewBox="0 0 101.75 79.431" xmlns="http://www.w3.org/2000/svg" xmlns:cc="http://creativecommons.org/ns#" xmlns:dc="http://purl.org/dc/elements/1.1/" xmlns:rdf="http://www.w3.org/1999/02/22-rdf-syntax-ns#" xmlns:xlink="http://www.w3.org/1999/xlink">
<metadata>
<rdf:RDF>
<cc:Work rdf:about="">
<dc:format>image/svg+xml</dc:format>
<dc:type rdf:resource="http://purl.org/dc/dcmitype/StillImage"/>
</cc:Work>
</rdf:RDF>
</metadata>
<g transform="translate(-224.1 -160.27)">
<use transform="translate(224.1,160.25)" width="101.75" height="79.449997" xlink:href="#a"/>
</g>
<defs>
<g id="a" transform="translate(50.9,39.7)">
<use transform="translate(-50.9,-39.7)" width="101.75" height="79.449997" xlink:href="#b"/>
</g>
<g id="b" transform="translate(50.9,39.7)">
<path d="m16.55-14.6q-1.35-0.1-2.9-0.95l-4.55-3.55q-1.55-1.4 0-2.85-2.9 0.55-4.55-2.55v-2.5q-3.1 0.15-5.25 4.7l-1 8.6q-3.25 9.05-9.9 4.8l-0.9 2.2-2.5 0.35q-1.95 0.3-1 1.45l-0.85 1.25 4.9 0.15 0.8 1.55q3.45 4.7 7.7 8.9l6.3 5.75 6.55 4.85 7.6 1.45q2.45-0.3 4.95-1.95l-2.05 2.3 2.35-0.3 4.05 5.05-0.45 0.35-0.1 0.05-6.05-1.45-8.75 1.35q-3.35 0.5-5.55 3.7l-1.4 4.4q-7.45-3.85-13.6-10.45-10.6-10.65-13.5-28.7v-5.2l-2.7 4.55q-1.8 2.75-4.9 3.05-1.85-0.8-1-4.05l3.05 0.65 0.6-1.55q1.9-0.65 0.65-1.55-0.95-0.65-1.95-0.95l-1.55-0.3-1-0.05q1.3-3.3 3.65-5.7l4.35 1.5 0.8-1.5q1.9-0.6 0.65-1.55-1.45-0.95-3.1-1.2 0.8-3 2.6-5.45h0.05l3.35 1.25 0.6-1.05q1.9-0.65 0.65-1.55-1.55-1-3.3-1.25 0.45-1.45 1.5-2.8h0.05l3.4 0.9 0.8-0.95q1.6-0.65 0.55-1.55-1.1-0.85-2.35-1.15l2.55-3 0.55-0.7q4.5-2.5 8.7-0.5 11.25 7.45 21.4 10.8 3.25 1.45 4.25 4.95 0.9 2.35 0.95 4.45-1.3 2.5-1.95 2.85l-2.25 0.65m-3.55 15.6q2.4 1.95 7.1 3.45l5 1.4 4 0.1 5.05 0.15 4.3 0.15 7.5 0.6-9.55 1.2-6.75 2.7-7.75 1.8q-9.3 2.55-16.35 0.95l-4.2-3.25-1.8-1.8q4.35-0.2 8.7-2.25 4.7-2.6 4.75-5.2m-52.85-10.35 3.1-5.5q3.5-7.55 10.95-12.6l0.65 0.7-1.3 0.8h1.75q-2.05 2.7-2.1 5.35l-2.4 0.35q-1.5 0.75-0.15 1.55l-1.3 0.95h1.2q-2.75 2-3.7 5.8l-0.95 0.2q-1.5 0.75-0.15 1.55l0.6-0.15-0.9 1.2q-1.55 2.6-2.35 8.9l-2.85-0.2-0.05-1.5q-0.15-3.85 1.3-6.7l1.95-3.75-3.3 3.05m70.7 16.25-5.75-1.05 5.75 1.05" fill="#f9ac44" fill-rule="evenodd"/>
<path d="m16.55-14.6 2.25-0.65q0.65-0.35 1.95-2.85 0 1.85-0.65 3.5l-5.05 2.6q-6.2 1.6-11.75 0.05l-1.2-1.7 0.05-1.4q0.2-3.4 1.6-6.15v3.25l2.85-1.35 2.55 2-4.05 1.55-1.05 2.35 5.9 0.7q5.2-1 6.6-1.9m-9.05-3.3q-3.25 0.5-5.35 2.85 2.1-2.35 5.35-2.85" fill="url(#aa)" fill-rule="evenodd"/>
<path d="m-11.6-8.9q6.65 4.25 9.9-4.8l1-8.6q2.15-4.55 5.25-4.7v2.5q1.65 3.1 4.55 2.55-1.55 1.45 0 2.85l4.55 3.55q1.55 0.85 2.9 0.95-1.4 0.9-6.6 1.9l-5.9-0.7 1.05-2.35 4.05-1.55-2.55-2-2.85 1.35v-3.25l0.55-0.95-0.55 0.95q-1.4 2.75-1.6 6.15l-0.05 1.4 1.2 1.7 2.5 3.45 1.45 1.8q-6.95 4.15-17.5 4.7l-0.9 0.05-0.8-1.55-0.45-1.35 3.45 0.7q0.95-0.95 0-1.85l-3.55-0.7 0.9-2.2" fill="url(#z)" fill-rule="evenodd"/>
<path d="m5.8-8.5h2.3l3.5 6.65v1.45l-3.35-5.9q-5.85 4.6-17.35 5.65l-1.15-1.35q10.55-0.55 17.5-4.7l-1.45-1.8m-42.7 8.25 1.4 0.1 3.35 0.2q2.75 0.25 5.9 0.05l1.25-0.1-0.1 1.6-14.65-0.7-0.75-1.7 0.7-1.15 0.05 1.5 2.85 0.2" fill="#d27e02" fill-rule="evenodd"/>
<path d="m-9.1-0.65q11.5-1.05 17.35-5.65l3.35 5.9v0.75q-3.8 4.6-12.3 6.2-3.4-1.3-8.4-7.2" fill="url(#o)" fill-rule="evenodd"/>
<path d="m2.85 12.7-6.3-5.75 2.75-0.4q8.5-1.6 12.3-6.2v-0.7l1.4 1.35q-0.05 2.6-4.75 5.2-4.35 2.05-8.7 2.25l1.8 1.8 4.2 3.25-2.7-0.8" fill="url(#i)" fill-rule="evenodd"/>
<path d="m-17.65-34.1q1.25 0.3 2.35 1.15 1.05 0.9-0.55 1.55-1.5-1.05-3.05-1.2l-2.15 0.2-0.05-0.05q-1.05-0.75 0.2-1.5l1.15-0.25 1.25-0.05 0.85 0.15m-3.95 5.55q1.75 0.25 3.3 1.25 1.25 0.9-0.65 1.55-1.55-0.95-3.2-1.15l-3 0.15-0.65-0.7q-0.05-0.35 0.45-0.7l0.35-0.15 1.8-0.3 1.6 0.05m-3.95 8.05q1.65 0.25 3.1 1.2 1.25 0.95-0.65 1.55-1.65-0.95-3.4-1.15h-0.45l-2.4 0.2q-1.35-0.8 0.15-1.55l2.4-0.35 1.25 0.1m-6.35 8.45 1 0.05 1.55 0.3q1 0.3 1.95 0.95 1.25 0.9-0.65 1.55-2.2-1.35-4.55-1.25l-1.05 0.1-0.6 0.15q-1.35-0.8 0.15-1.55l0.95-0.2 1.25-0.1m15.9 7.15q-0.95-1.15 1-1.45l2.5-0.35 3.55 0.7q0.95 0.9 0 1.85l-3.45-0.7q-1.7-0.2-3.6-0.05" fill="#a06800" fill-rule="evenodd"/>
<path d="m-15.85-31.4-0.8 0.95-3.4-0.9 1.15-1.25q1.55 0.15 3.05 1.2" fill="url(#h)" fill-rule="evenodd"/>
<path d="m-15.1-37.1-2.55 3-0.85-0.15 1.8-2.5 1.6-0.35" fill="url(#g)" fill-rule="evenodd"/>
<path d="m-25.15-28.45 2.2-2.75 1.45-0.1-1.7 2.7-1.8 0.3-0.15-0.15m5.4-5.75q1.25-1.85 3.05-2.55l-1.8 2.5-1.25 0.05" fill="#f9a636" fill-rule="evenodd"/>
<path d="m-20.05-31.35h-0.05l-1.4 0.05-1.45 0.1 1.85-1.25 0.05 0.05 2.15-0.2-1.15 1.25" fill="url(#f)" fill-rule="evenodd"/>
<path d="m-20.1-31.35q-1.05 1.35-1.5 2.8l-1.6-0.05 1.7-2.7 1.4-0.05" fill="url(#e)" fill-rule="evenodd"/>
<path d="m-18.95-25.75-0.6 1.05-3.35-1.25 0.75-0.95q1.65 0.2 3.2 1.15" fill="url(#d)" fill-rule="evenodd"/>
<path d="m-22.9-25.95h-3.55l1.3-0.8 3-0.15-0.75 0.95" fill="url(#c)" fill-rule="evenodd"/>
<path d="m-22.95-25.95q-1.8 2.45-2.6 5.45l-1.25-0.1q0.05-2.65 2.1-5.35h1.75" fill="url(#y)" fill-rule="evenodd"/>
<path d="m-23.1-17.75-0.8 1.5-4.35-1.5 1.3-1.15h0.45q1.75 0.2 3.4 1.15" fill="url(#x)" fill-rule="evenodd"/>
<path d="m-29.35-18.7 2.4-0.2-1.3 1.15h-2.4l1.3-0.95" fill="url(#w)" fill-rule="evenodd"/>
<path d="m-28.25-17.75q-2.35 2.4-3.65 5.7l-1.25 0.1q0.95-3.8 3.7-5.8h1.2" fill="url(#v)" fill-rule="evenodd"/>
<path d="m-34.55-9.15 1 0.3q-1.95 3.65-1.95 8.7l-1.4-0.1q0.8-6.3 2.35-8.9" fill="url(#u)" fill-rule="evenodd"/>
<path d="m-33.55-8.85-1-0.3 0.9-1.2 1.05-0.1-0.95 1.6" fill="url(#t)" fill-rule="evenodd"/>
<path d="m-28.05-9.2-0.6 1.55-3.05-0.65-1.85-0.55 0.95-1.6q2.35-0.1 4.55 1.25" fill="url(#s)" fill-rule="evenodd"/>
<path d="m-31.7-8.3q-0.85 3.25 1 4.05 3.1-0.3 4.9-3.05l2.7-4.55v5.2q2.9 18.05 13.5 28.7 6.15 6.6 13.6 10.45l1.7 0.8 0.65-0.9q0.75-4.15 4.2-5.6-3 4.05-3 8.1-1 0.05-1.7 0.7-0.45 0.35-0.6 0.85l-1.35-0.85q-15.5-8.45-23.4-24.65l-0.7-1.5q-2.1-4.55-3.6-9.6l-0.55-2.1q-0.8-3 0.15-6l-2.4 4.95 0.35 3.4q-3.15 0.2-5.9-0.05l-3.35-0.2q0-5.05 1.95-8.7l1.85 0.55" fill="url(#r)" fill-rule="evenodd"/>
<path d="m-48.25 21.6v-0.5q4.6-6 6.15-17.6l1.6-11.65 0.65-1.2 3.3-3.05-1.95 3.75q-1.45 2.85-1.3 6.7l-0.7 1.15v6.55l-2.1 8.85q-1 3.5-3.55 5.9l-2.1 2v-0.9" fill="url(#q)" fill-rule="evenodd"/>
<path d="m-23.8-0.15-1.2 0.15-1.25 0.1-0.35-3.4 2.4-4.95q-0.95 3-0.15 6l0.55 2.1" fill="url(#p)" fill-rule="evenodd"/>
<path d="m-3.45 6.95q-4.25-4.2-7.7-8.9l0.9-0.05 1.15 1.35q5 5.9 8.4 7.2l-2.75 0.4m-21.55-6.95 1.2-0.15q1.5 5.05 3.6 9.6l-1.65 0.15-3.25-8 0.1-1.6" fill="#653d01" fill-rule="evenodd"/>
<path d="m-11.95-3.5-4.9-0.15 0.85-1.25q1.9-0.15 3.6 0.05l0.45 1.35" fill="url(#n)" fill-rule="evenodd"/>
<path d="m-19.5 10.95q-3.8 1.55-5.45 4.9l-0.45 1-2 0.55-0.95-0.65-0.1-0.05h-0.05q-3-1.2-9.8 1.7l-5.2 2.7q3.65-4.75 8.4-6.1l4.1-0.95 3.2 1.05 1.55-2.05-8.8-2.35 9.45 0.65 1.45-1.6 2.3-0.15 1.65-0.15 0.7 1.5" fill="#482604" fill-rule="evenodd"/>
<path d="m-25.1 1.6 3.25 8-2.3 0.15-15.25-0.55q-1-0.5-1.1-3.45v-6.55l0.75 1.7 14.65 0.7" fill="url(#m)" fill-rule="evenodd"/>
<path d="m-43.5 21.1-2 1.95-0.25 0.25-2.35-0.3-0.15-0.2v-0.3l2.1-2q2.55-2.4 3.55-5.9l2.1-8.85q0.1 2.95 1.1 3.45l15.25 0.55-1.45 1.6-9.45-0.65 8.8 2.35-1.55 2.05-3.2-1.05-4.1 0.95q-4.75 1.35-8.4 6.1" fill="url(#l)" fill-rule="evenodd"/>
<path d="m-24.95 15.85 0.6 0.4q0.7 0.65 0.75 1.55-0.05 0.9-0.75 1.55-0.75 0.65-1.8 0.65-1.1 0-1.8-0.65-0.75-0.65-0.75-1.55l0.15-0.7 0.2-0.35 0.95 0.65 2-0.55 0.45-1m-20.55 7.2 0.2 0.75q-0.05 0.85-0.75 1.55-0.75 0.65-1.8 0.65-1.1 0-1.8-0.65-0.75-0.7-0.75-1.55l0.05-0.05 0.35 0.6 0.85 0.3q0.5 0 0.9-0.3 0.35-0.35 0.35-0.75l-0.2-0.6 2.35 0.3 0.25-0.25" fill="#7d2424" fill-rule="evenodd"/>
<path d="m25.75 24.5 0.1-0.05 0.45-0.35q0.6-0.35 1.35-0.3 1.05-0.05 1.8 0.65 0.75 0.65 0.75 1.55t-0.75 1.55-1.8 0.65q-1.1 0-1.8-0.65-0.75-0.65-0.75-1.55v-0.3q0.1-0.65 0.65-1.2m20.2-17.65h0.05l0.45-0.35 1.35-0.3q1.05-0.05 1.8 0.65 0.7 0.65 0.75 1.55-0.05 0.85-0.75 1.55-0.75 0.65-1.8 0.65-1.1 0-1.8-0.65-0.75-0.7-0.75-1.55v-0.3l0.05-0.15q0.1-0.6 0.65-1.1m3.3 0.8q0-0.45-0.35-0.8-0.4-0.3-0.9-0.3l-0.65 0.15-0.2 0.15-0.05 0.05-0.3 0.5-0.05 0.1v0.15l0.4 0.75q0.35 0.3 0.85 0.3l0.9-0.3 0.35-0.75m-20.8 17.05-0.9-0.3-0.65 0.15-0.2 0.15-0.05 0.05-0.3 0.5-0.05 0.1v0.15l0.4 0.75 0.85 0.3 0.9-0.3 0.35-0.75q0-0.45-0.35-0.8m-20.9 10.2h0.1q1.05 0 1.8 0.7 0.75 0.65 0.75 1.55 0 0.85-0.75 1.55l-1.1 0.55h-1.4q-0.6-0.15-1.1-0.55-0.75-0.7-0.7-1.55l0.1-0.7q0.15-0.5 0.6-0.85 0.7-0.65 1.7-0.7m-57.95-11.1v-0.2l0.05 0.15-0.05 0.05m0.05-0.45q0.1-0.6 0.65-1.1h0.05l0.45-0.35 0.95-0.3v1.2q-0.4-0.3-0.9-0.3l-0.65 0.15-0.2 0.15-0.05 0.05-0.3 0.5m57.7 12.15-0.2 0.15-0.05 0.05-0.3 0.5-0.05 0.1v0.15l0.4 0.75 0.85 0.3 0.9-0.3 0.35-0.75q0-0.45-0.35-0.8-0.4-0.3-0.9-0.3l-0.65 0.15" fill="#a93430" fill-rule="evenodd"/>
<path d="m49.25 7.65-0.35 0.75-0.9 0.3q-0.5 0-0.85-0.3l-0.4-0.75v-0.15l0.05-0.1 0.3-0.5 0.05-0.05 0.2-0.15 0.65-0.15q0.5 0 0.9 0.3 0.35 0.35 0.35 0.8m-20.8 17.05q0.35 0.35 0.35 0.8l-0.35 0.75-0.9 0.3-0.85-0.3-0.4-0.75v-0.15l0.05-0.1 0.3-0.5 0.05-0.05 0.2-0.15 0.65-0.15 0.9 0.3m-78.85-1.1v-0.15l0.05-0.1 0.3-0.5 0.05-0.05 0.2-0.15 0.65-0.15q0.5 0 0.9 0.3l0.15 0.2 0.2 0.6q0 0.4-0.35 0.75-0.4 0.3-0.9 0.3l-0.85-0.3-0.35-0.6-0.05-0.15m57.75 11.9 0.65-0.15q0.5 0 0.9 0.3 0.35 0.35 0.35 0.8l-0.35 0.75-0.9 0.3-0.85-0.3-0.4-0.75v-0.15l0.05-0.1 0.3-0.5 0.05-0.05 0.2-0.15" fill="#ca4524" fill-rule="evenodd"/>
<path d="m22.25 19.05-2.35 0.3 2.05-2.3q-2.5 1.65-4.95 1.95l-7.6-1.45-6.55-4.85 2.7 0.8q7.05 1.6 16.35-0.95l7.75-1.8 6.75-2.7 9.55-1.2q-0.55 0.5-0.65 1.1l-0.55 0.1q-5.3 0.1-10.6 2.2-2.5 0.95-5.05 2.4l-0.95 0.55-5.9 5.85" fill="url(#k)" fill-rule="evenodd"/>
<path d="m4 32.5 1.4-4.4q2.2-3.2 5.55-3.7l8.75-1.35 6.05 1.45q-0.55 0.55-0.65 1.2-4.4-1.65-14.55 1.1-3.45 1.45-4.2 5.6l-0.65 0.9-1.7-0.8" fill="url(#j)" fill-rule="evenodd"/>
<path d="m20.75-18.1q-0.05-2.1-0.95-4.45-1-3.5-4.25-4.95-10.15-3.35-21.4-10.8-4.2-2-8.7 0.5l-0.55 0.7-2.55 3q1.25 0.3 2.35 1.15 1.05 0.9-0.55 1.55m-4.2 0.05h-0.05q-1.05 1.35-1.5 2.8 1.75 0.25 3.3 1.25 1.25 0.9-0.65 1.55m-3.95-0.2h-0.05q-1.8 2.45-2.6 5.45 1.65 0.25 3.1 1.2 1.25 0.95-0.65 1.55m-5.15 0q-2.35 2.4-3.65 5.7l1 0.05 1.55 0.3q1 0.3 1.95 0.95 1.25 0.9-0.65 1.55m53.8 33.7 0.1-0.05 0.45-0.35-4.05-5.05m-12.85-1.5-6.55-4.85-6.3-5.75q-4.25-4.2-7.7-8.9l-0.8-1.55m-4.05-1.4q-0.95-1.15 1-1.45l2.5-0.35 0.9-2.2m15.35-12.3 0.55-0.95m-1 10.2-1.2-1.7 0.05-1.4q0.2-3.4 1.6-6.15m-1.6 6.15q2.1-2.35 5.35-2.85m4.1 17.5v-1.45l-3.5-6.65h-2.3l1.45 1.8q-6.95 4.15-17.5 4.7l-0.9 0.05m22.75 1.55v0.05l1.4 1.35q2.4 1.95 7.1 3.45l5 1.4 4 0.1 5.05 0.15 4.3 0.15 7.5 0.6h0.05l0.45-0.35 1.35-0.3q1.05-0.05 1.8 0.65 0.7 0.65 0.75 1.55-0.05 0.85-0.75 1.55-0.75 0.65-1.8 0.65-1.1 0-1.8-0.65-0.75-0.7-0.75-1.55v-0.3l0.05-0.15-0.55 0.1q-5.3 0.1-10.6 2.2-2.5 0.95-5.05 2.4l-0.95 0.55-5.9 5.85m-16.45-27.55-2.5-3.45q5.55 1.55 11.75-0.05l5.05-2.6q0.65-1.65 0.65-3.5m-9.15 17.75v0.7q-3.8 4.6-12.3 6.2l-2.75 0.4m48.75 1q0.1-0.6 0.65-1.1m-24.05 5.7q-9.3 2.55-16.35 0.95l-2.7-0.8m23.45 11.4q0.6-0.35 1.35-0.3 1.05-0.05 1.8 0.65 0.75 0.65 0.75 1.55t-0.75 1.55-1.8 0.65q-1.1 0-1.8-0.65-0.75-0.65-0.75-1.55v-0.3q-4.4-1.65-14.55 1.1-3 4.05-3 8.1h0.1q1.05 0 1.8 0.7 0.75 0.65 0.75 1.55 0 0.85-0.75 1.55l-1.1 0.55m-1.4 0q-0.6-0.15-1.1-0.55-0.75-0.7-0.7-1.55l0.1-0.7-1.35-0.85q-15.5-8.45-23.4-24.65-3.8 1.55-5.45 4.9m-3.4 0.9-0.1-0.05h-0.05q-3-1.2-9.8 1.7l-5.2 2.7-2 1.95 0.2 0.75q-0.05 0.85-0.75 1.55-0.75 0.65-1.8 0.65-1.1 0-1.8-0.65-0.75-0.7-0.75-1.55v-0.2m0-0.1v-0.05l0.05-0.1q0.1-0.6 0.65-1.1h0.05l0.45-0.35 0.95-0.3v-0.5q4.6-6 6.15-17.6l1.6-11.65 0.65-1.2 3.1-5.5q3.5-7.55 10.95-12.6-0.05-0.35 0.45-0.7l0.2-0.3 2.2-2.75 1.85-1.25q-1.05-0.75 0.2-1.5l1.15-0.25q1.25-1.85 3.05-2.55l1.6-0.35m40.2 42.95 5.75 1.05m-25.6 29.55q0.15-0.5 0.6-0.85 0.7-0.65 1.7-0.7m3-8.1q-3.45 1.45-4.2 5.6m18.75-6.7q0.1-0.65 0.65-1.2m-44.65-57.1q1.55 0.15 3.05 1.2m-1.8-2.7-0.85-0.15-1.25 0.05m0.85 1.6-1.15 1.25m-1.05-1.1 0.05 0.05 2.15-0.2m-7.9 12 1.25 0.1m0.4-6.25 3-0.15q1.65 0.2 3.2 1.15m-6.85-1.7 0.65 0.7m0.15-1.55 1.8-0.3m1.05 1.7-0.75 0.95m1.3-2.6-1.6-0.05m-1.8 0.3-0.35 0.15m-1.45 7.55-2.4 0.35q-1.5 0.75-0.15 1.55l2.4-0.2h0.45q1.75 0.2 3.4 1.15m-10.05 5.8 1.25-0.1m4.95-6.85-1.3 1.15m-5.4 7.4-0.6 0.15q-1.35-0.8 0.15-1.55l0.95-0.2m-3.75 11.7 1.4 0.1q0-5.05 1.95-8.7l0.95-1.6-1.05 0.1m-6.15 8.4 0.05 1.5 2.85 0.2m-3.6-0.55 0.7-1.15q-0.15-3.85 1.3-6.7m13.5 8.65 1.2-0.15-0.55-2.1q-0.8-3 0.15-6m-2.05 8.35 1.25-0.1m3.15 9.6 1.65-0.15q-2.1-4.55-3.6-9.6m-8.8-10.3q2.35-0.1 4.55 1.25m15.65 4.35 0.45 1.35m-4.05-1.4q1.9-0.15 3.6 0.05l3.45 0.7q0.95-0.95 0-1.85l-3.55-0.7m-7.7 16.15 0.7 1.5m-4.65-1.2-15.25-0.55q-1-0.5-1.1-3.45m-7.75 16.75v0.3m0.15 0.2 2.35 0.3 0.25-0.25m21.35-13.3 2.3-0.15m-6.5 7.15 0.95 0.65 2-0.55 0.45-1m-1.3-15.75q-3.15 0.2-5.9-0.05l-3.35-0.2m-5-0.65v6.55m-7.75 16.75v-0.9m4.75-0.5q3.65-4.75 8.4-6.1" fill="none" stroke="#000" stroke-linecap="round" stroke-linejoin="round" stroke-opacity=".4" stroke-width=".5"/>
<path d="m-24.95 15.85 0.6 0.4q0.7 0.65 0.75 1.55-0.05 0.9-0.75 1.55-0.75 0.65-1.8 0.65-1.1 0-1.8-0.65-0.75-0.65-0.75-1.55l0.15-0.7 0.2-0.35" fill="none" stroke="#000" stroke-linecap="round" stroke-linejoin="round" stroke-opacity=".4" stroke-width=".5"/>
<path d="m8.1-8.5 3.5 6.65v1.5l1.4 1.35q2.4 1.95 7.1 3.45l5 1.4 4 0.1 5.05 0.15 4.3 0.15 7.5 0.6h0.05l0.45-0.35 1.35-0.3q1.05-0.05 1.8 0.65 0.7 0.65 0.75 1.55-0.05 0.85-0.75 1.55-0.75 0.65-1.8 0.65-1.1 0-1.8-0.65-0.75-0.7-0.75-1.55v-0.3l0.05-0.15-0.55 0.1q-5.3 0.1-10.6 2.2-2.5 0.95-5.05 2.4l-0.95 0.55-5.9 5.85 4.05 5.05q0.6-0.35 1.35-0.3 1.05-0.05 1.8 0.65 0.75 0.65 0.75 1.55t-0.75 1.55-1.8 0.65q-1.1 0-1.8-0.65-0.75-0.65-0.75-1.55v-0.3q-4.4-1.65-14.55 1.1-3 4.05-3 8.1h0.1q1.05 0 1.8 0.7 0.75 0.65 0.75 1.55 0 0.85-0.75 1.55l-1.1 0.55h-1.4q-0.6-0.15-1.1-0.55-0.75-0.7-0.7-1.55l0.1-0.7-1.35-0.85q-15.5-8.45-23.4-24.65-3.8 1.55-5.45 4.9l0.6 0.4q0.7 0.65 0.75 1.55-0.05 0.9-0.75 1.55-0.75 0.65-1.8 0.65-1.1 0-1.8-0.65-0.75-0.65-0.75-1.55l0.15-0.7 0.2-0.35-0.1-0.05h-0.05q-3-1.2-9.8 1.7l-5.2 2.7-2 1.95 0.2 0.75q-0.05 0.85-0.75 1.55-0.75 0.65-1.8 0.65-1.1 0-1.8-0.65-0.75-0.7-0.75-1.55v-0.35l0.05-0.1q0.1-0.6 0.65-1.1h0.05l0.45-0.35 0.95-0.3v-0.5q4.6-6 6.15-17.6l1.6-11.65 3.75-6.7q3.5-7.55 10.95-12.6-0.05-0.35 0.45-0.7l0.35-0.15-0.15-0.15 2.2-2.75 1.85-1.25q-1.05-0.75 0.2-1.5l1.15-0.25q1.25-1.85 3.05-2.55l1.6-0.35 0.55-0.7q4.5-2.5 8.7-0.5 11.25 7.45 21.4 10.8 3.25 1.45 4.25 4.95 0.9 2.35 0.95 4.45 0 1.85-0.65 3.5l-5.05 2.6q-6.2 1.6-11.75 0.05l2.5 3.45z" fill="none" stroke="#000" stroke-linecap="round" stroke-linejoin="round" stroke-opacity=".4"/>
</g>
<linearGradient id="aa" x1="-819.2" x2="819.2" gradientTransform="matrix(.0016 -.0061 .0106 .0028 11.1 -15.3)" gradientUnits="userSpaceOnUse">
<stop stop-color="#a55405" offset="0"/>
<stop stop-color="#bb6109" offset="1"/>
</linearGradient>
<linearGradient id="z" x1="-819.2" x2="819.2" gradientTransform="matrix(.0042 -.0101 .0133 .0056 2.85 -12.7)" gradientUnits="userSpaceOnUse">
<stop stop-color="#d66f07" offset="0"/>
<stop stop-color="#f48313" offset="1"/>
</linearGradient>
<linearGradient id="o" x1="-819.2" x2="819.2" gradientTransform="matrix(-.0051 .0014 -.0016 -.006 2.4 .55)" gradientUnits="userSpaceOnUse">
<stop stop-color="#a06800" offset="0"/>
<stop stop-color="#885601" offset="1"/>
</linearGradient>
<linearGradient id="i" x1="-819.2" x2="819.2" gradientTransform="matrix(-.0028 -.0028 .0068 -.0068 4.5 3.75)" gradientUnits="userSpaceOnUse">
<stop stop-color="#a55405" offset="0"/>
<stop stop-color="#bb6109" offset="1"/>
</linearGradient>
<linearGradient id="h" x1="-819.2" x2="819.2" gradientTransform="matrix(2e-4 -9e-4 .0023 6e-4 -17.9 -31.5)" gradientUnits="userSpaceOnUse">
<stop stop-color="#a55405" offset="0"/>
<stop stop-color="#bb6109" offset="1"/>
</linearGradient>
<linearGradient id="g" x1="-819.2" x2="819.2" gradientTransform="matrix(6e-4 -.0021 .0015 4e-4 -16.75 -35.65)" gradientUnits="userSpaceOnUse">
<stop stop-color="#f69521" offset="0"/>
<stop stop-color="#f07b06" offset="1"/>
</linearGradient>
<linearGradient id="f" x1="-819.2" x2="819.2" gradientTransform="matrix(4e-4 -.0014 .0021 5e-4 -20.9 -31.95)" gradientUnits="userSpaceOnUse">
<stop stop-color="#a55405" offset="0"/>
<stop stop-color="#bb6109" offset="1"/>
</linearGradient>
<linearGradient id="e" x1="-819.2" x2="819.2" gradientTransform="matrix(5e-4 -.0021 .0014 4e-4 -21.65 -30)" gradientUnits="userSpaceOnUse">
<stop stop-color="#f69521" offset="0"/>
<stop stop-color="#f07b06" offset="1"/>
</linearGradient>
<linearGradient id="d" x1="-819.2" x2="819.2" gradientTransform="matrix(2e-4 -9e-4 .0023 6e-4 -20.95 -25.85)" gradientUnits="userSpaceOnUse">
<stop stop-color="#a55405" offset="0"/>
<stop stop-color="#bb6109" offset="1"/>
</linearGradient>
<linearGradient id="c" x1="-819.2" x2="819.2" gradientTransform="matrix(3e-4 -.0012 .0023 6e-4 -24.25 -26.4)" gradientUnits="userSpaceOnUse">
<stop stop-color="#a55405" offset="0"/>
<stop stop-color="#bb6109" offset="1"/>
</linearGradient>
<linearGradient id="y" x1="-819.2" x2="819.2" gradientTransform="matrix(9e-4 -.0036 .0015 4e-4 -25 -23.3)" gradientUnits="userSpaceOnUse">
<stop stop-color="#d66f07" offset="0"/>
<stop stop-color="#f48313" offset="1"/>
</linearGradient>
<linearGradient id="x" x1="-819.2" x2="819.2" gradientTransform="matrix(3e-4 -.0012 .0029 8e-4 -25.7 -17.75)" gradientUnits="userSpaceOnUse">
<stop stop-color="#a55405" offset="0"/>
<stop stop-color="#bb6109" offset="1"/>
</linearGradient>
<linearGradient id="w" x1="-819.2" x2="819.2" gradientTransform="matrix(3e-4 -.0012 .002 5e-4 -28.8 -18.3)" gradientUnits="userSpaceOnUse">
<stop stop-color="#a55405" offset="0"/>
<stop stop-color="#bb6109" offset="1"/>
</linearGradient>
<linearGradient id="v" x1="-819.2" x2="819.2" gradientTransform="matrix(.0011 -.004 .002 5e-4 -30.7 -14.8)" gradientUnits="userSpaceOnUse">
<stop stop-color="#f69521" offset="0"/>
<stop stop-color="#f07b06" offset="1"/>
</linearGradient>
<linearGradient id="u" x1="-819.2" x2="819.2" gradientTransform="matrix(.0017 -.0065 .0012 3e-4 -34.95 -5.35)" gradientUnits="userSpaceOnUse">
<stop stop-color="#f69521" offset="0"/>
<stop stop-color="#f07b06" offset="1"/>
</linearGradient>
<linearGradient id="t" x1="-819.2" x2="819.2" gradientTransform="matrix(.0017 -.0065 .0012 3e-4 -34.95 -5.35)" gradientUnits="userSpaceOnUse">
<stop stop-color="#a55405" offset="0"/>
<stop stop-color="#bb6109" offset="1"/>
</linearGradient>
<linearGradient id="s" x1="-819.2" x2="819.2" gradientTransform="matrix(.0012 .0084 -.0253 .0036 -14.85 -3.45)" gradientUnits="userSpaceOnUse">
<stop stop-color="#a55405" offset="0"/>
<stop stop-color="#bb6109" offset="1"/>
</linearGradient>
<linearGradient id="r" x1="-819.2" x2="819.2" gradientTransform="matrix(.0012 .0084 -.0253 .0036 -14.85 -3.45)" gradientUnits="userSpaceOnUse">
<stop stop-color="#d66f07" offset="0"/>
<stop stop-color="#f48313" offset="1"/>
</linearGradient>
<linearGradient id="q" x1="-819.2" x2="819.2" gradientTransform="matrix(.0031 -.0117 .0023 6e-4 -41.9 4.6)" gradientUnits="userSpaceOnUse">
<stop stop-color="#d66f07" offset="0"/>
<stop stop-color="#f48313" offset="1"/>
</linearGradient>
<linearGradient id="p" x1="-819.2" x2="819.2" gradientTransform="matrix(0 -.0037 .0017 0 -25.2 -4)" gradientUnits="userSpaceOnUse">
<stop stop-color="#a55405" offset="0"/>
<stop stop-color="#bb6109" offset="1"/>
</linearGradient>
<linearGradient id="n" x1="-819.2" x2="819.2" gradientTransform="matrix(4e-4 -.0014 .0028 7e-4 -14.3 -4.15)" gradientUnits="userSpaceOnUse">
<stop stop-color="#a55405" offset="0"/>
<stop stop-color="#bb6109" offset="1"/>
</linearGradient>
<linearGradient id="m" x1="-819.2" x2="819.2" gradientTransform="matrix(.0057 0 0 .0064 -30 4.45)" gradientUnits="userSpaceOnUse">
<stop stop-color="#a06800" offset="0"/>
<stop stop-color="#885601" offset="1"/>
</linearGradient>
<linearGradient id="l" x1="-819.2" x2="819.2" gradientTransform="matrix(.0042 .0011 -.003 .0112 -35.75 16.45)" gradientUnits="userSpaceOnUse">
<stop stop-color="#8b4805" offset="0"/>
<stop stop-color="#482604" offset="1"/>
</linearGradient>
<linearGradient id="k" x1="-819.2" x2="819.2" gradientTransform="matrix(.0087 0 0 .0076 17.5 13.1)" gradientUnits="userSpaceOnUse">
<stop stop-color="#d66f07" offset="0"/>
<stop stop-color="#f48313" offset="1"/>
</linearGradient>
<linearGradient id="j" x1="-819.2" x2="819.2" gradientTransform="matrix(.0133 0 0 .0063 14.85 28.15)" gradientUnits="userSpaceOnUse">
<stop stop-color="#d66f07" offset="0"/>
<stop stop-color="#f48313" offset="1"/>
</linearGradient>
</defs>
</svg>
