<?xml version="1.0" encoding="UTF-8"?>
<svg version="1.1" viewBox="0 0 89.4 127.65" xmlns="http://www.w3.org/2000/svg" xmlns:cc="http://creativecommons.org/ns#" xmlns:dc="http://purl.org/dc/elements/1.1/" xmlns:rdf="http://www.w3.org/1999/02/22-rdf-syntax-ns#" xmlns:xlink="http://www.w3.org/1999/xlink">
<metadata>
<rdf:RDF>
<cc:Work rdf:about="">
<dc:format>image/svg+xml</dc:format>
<dc:type rdf:resource="http://purl.org/dc/dcmitype/StillImage"/>
</cc:Work>
</rdf:RDF>
</metadata>
<g transform="translate(-66.55,-192.05)">
<use transform="translate(66.55,192.05)" width="89.400002" height="127.65" xlink:href="#a"/>
</g>
<defs>
<g id="a" transform="translate(-66.55,-192.05)">
<path d="m68.8 202.3-0.8-6.3q0.85-0.65 4.15-0.65-2.15 3.55-3.35 6.95" fill="#fffbe6" fill-rule="evenodd"/>
<path d="m141 319.2-0.75 0.3-0.2-0.35 0.95 0.05" fill="#b5ac8e" fill-rule="evenodd"/>
<path d="m75.4 192.25h0.2q7.9 0 14.7 4.85 2.95 2.1 5.7 5.15l1.2 1.35 0.05 0.1q3 3.7 5.05 8.15 1.2 2.6 2.05 5.45 2.15 7.2 2.15 15.95v1.25h2.5q8 1.45 14.2 4.2l2.2 1.05q5.6 2.8 9.5 6.8 7.6 7.7 7.6 18.05 0 2.75-1.15 4.8l-5.85 0.35q-9.8 0-20.5-6-3.35-1.85-6.4-4.1l-2.35-1.9q0-1.45 1.65-6 1.25-3.55 1.55-5.95 7.2 2.95 14.05 7.9 6.9 5 10.75 9.8l0.25-0.05q-0.05-8.15-11.5-15.15-8.75-5.4-16.85-6.5l-0.35 2.7q-0.5 3.3-1.3 5.75-1.75 5.25-5.15 7.45-1.6 1.05-3.6 1.4l-0.7 0.1q-3.05-1.85-7.15-5.55-7.65-6.85-8.9-12.4-0.5 0.5-1.75 0.5l-1-0.1-1-1.15v-2.5l1.75 1q-1.15-3.35-2.5-10.05-1.5-7.3-1.5-10.35 0-7.75 0.95-17 0.65-6.35 1.45-9.35m25.35 10.45 2.1-0.2q5.5 0 8.75 1.55 2.5 1.15 9.4 6.45 3.4 2.6 5.5 7.7 2 4.9 2 10.15 0 4.25-1.35 7.8l-2.5-1.65q-7.7-5-12.65-5.5-1.45-0.15-1.5-1.05 0.2-1.45 0-2.7l-1.45-5.85-0.35-1.1 1.4 0.3q5.95 2.45 10.4 7.9-0.15-0.95-1.9-3.75-2-3.2-3.85-4.75-2.55-2.1-7.5-3.65l-0.5-0.15-0.05-0.15 0.05 0.15-0.15-0.05 0.1-0.1q-1.25-3-3.3-6.65l-2.65-4.7m30.05 78.8q1.55-0.05 5.15 1.35 4.4 1.7 8.5 4.35l0.2 0.15q11.1 7.25 11.1 15.25v0.3q-0.05 5.05-2.5 9.6l-1.35 2.15-1.2 1.4q-3.25 3.2-8.2 3.2l-1.5-0.05-0.95-0.05-2.85-0.55-1.45-1.9q-4.1-8-6-10.95 1.9-1.9 2.95-4.9 0.8-2.25 1-4.55l15.8 14.95v-0.5l-2.15-3.55-3.1-5.45q-3.45-5.4-8.35-9.05l-4.15-3.35v-2q-0.1-3.15-0.95-5.85m-22.65 33.3-0.5 0.05-2.55 0.15h-0.75q-4.65 0-8.45-1.95l-2.9-1.8q-5.5-4.25-5.5-11.15 0-3.55 0.9-7.4 1.25-5.7 4.4-12l1.05-1.95q2.55-4.7 5.65-8.65 2.55-3.3 5.5-6.05 2.1 1.6 5.05 3.45l0.15 0.1q-4.35 6.2-8.85 18.85-3.9 11.15-5.1 18.05 0.75-2.3 3.05-8.05 3.25-8.1 6.2-13.95l5-9.2 0.1-0.1q5 2.85 9.1 4.55l4.5 1.75q1.35 0.6 1.6 1.75 0.2 0.8 0.2 4.6 0 6.75-1.7 10.85-2.95 7.1-12.05 14.05h1.5l0.75 0.25q-1.75 2.05-6.4 3.7l0.05 0.1m-13.8-67.95q0.65-1.65 0.85-7.65l0.05-9.1q0-12.6-4.15-20.7-2.65-5.2-8.05-9.85 6.65 8.1 8.9 22.8 0.8 5.25 1.35 14.05 0.5 8.05 0.95 10.35l0.1 0.1-0.1 0.15v-0.25 0.25l0.1-0.15m12.15-12.35-0.35 7.3 0.35-7.3m28 28.95v0.3l-0.25-0.25 0.25 0.25v-0.3m-26.85 51.4 0.45-0.15-0.45 0.15m-24.6-115.3q-1.75-2.15-3.8-3.8 2.05 1.65 3.8 3.8" fill="#654734" fill-rule="evenodd"/>
<path d="m106.75 214.2 0.5 0.15q4.95 1.55 7.5 3.65 1.85 1.55 3.85 4.75 1.75 2.8 1.9 3.75-4.45-5.45-10.4-7.9l-1.4-0.3-4.35-1q-0.85-2.85-2.05-5.45 0.8 1.15 4.3 2.3l0.15 0.05m1.95 4.1-0.45-1.8 0.45 1.8m-14.45 28.45q-0.45-2.3-0.95-10.35-0.55-8.8-1.35-14.05-2.25-14.7-8.9-22.8 5.4 4.65 8.05 9.85 4.15 8.1 4.15 20.7l-0.05 9.1q-0.2 6-0.85 7.65l-0.1-0.1m15.2-0.95 0.05-1.3-0.05 1.3-3.65-1.3 0.35-2.7q8.1 1.1 16.85 6.5 11.45 7 11.5 15.15l-0.25 0.05q-3.85-4.8-10.75-9.8-6.85-4.95-14.05-7.9m3.4 23.35-2.25 4.05-0.1 0.1-5 9.2q-2.95 5.85-6.2 13.95-2.3 5.75-3.05 8.05 1.2-6.9 5.1-18.05 4.5-12.65 8.85-18.85l2.65 1.55m20.9 25.85-0.05 1.3 0.05-1.3m-2-5.65 4.15 3.35q4.9 3.65 8.35 9.05l3.1 5.45 2.15 3.55v0.5l-15.8-14.95-2.55-2.45q0.5-2.25 0.6-4.5" fill="#2d1f17" fill-rule="evenodd"/>
<path d="m97.25 203.7 1.7-0.55 1.8-0.45 2.65 4.7q2.05 3.65 3.3 6.65l-0.1 0.1q-3.5-1.15-4.3-2.3-2.05-4.45-5.05-8.15m29.9 32.45-0.1 0.2-1.65 3.4-2.2-1.05q-6.2-2.75-14.2-4.2h-2.5v-1.25q0-8.75-2.15-15.95l4.35 1 0.35 1.1 1.45 5.85q0.2 1.25 0 2.7 0.05 0.9 1.5 1.05 4.95 0.5 12.65 5.5l2.5 1.65m14.2 33.25q-1 1.7-2.85 2.85-0.85 0.55-1.85 0.95-3.2 1.3-7.9 1.3l-1.4-0.05 2.3 4.05 1.15 2.95v0.05q0.85 2.7 0.95 5.85v2q-0.1 2.25-0.6 4.5l2.55 2.45q-0.2 2.3-1 4.55-1.05 3-2.95 4.9 1.9 2.95 6 10.95l1.45 1.9q-3.15-0.85-5.45-2.75-3.7-3.15-6.35-10.2-2.9 3.6-6.7 5.85-4.6 2.65-10.55 3.3l-0.05-0.1q4.65-1.65 6.4-3.7l-0.75-0.25h-1.5q9.1-6.95 12.05-14.05 1.7-4.1 1.7-10.85 0-3.8-0.2-4.6-0.25-1.15-1.6-1.75l-4.5-1.75q-4.1-1.7-9.1-4.55l2.25-4.05-2.65-1.55-0.15-0.1q-2.95-1.85-5.05-3.45-4.95-3.75-5.65-6.35 3.4-2.2 5.15-7.45 0.8-2.45 1.3-5.75l3.65 1.3q-0.3 2.4-1.55 5.95-1.65 4.55-1.65 6l2.35 1.9q3.05 2.25 6.4 4.1 10.7 6 20.5 6l5.85-0.35m-46.3-10.2-1.3 0.05-3.95-0.45q-7.15-1.7-13.1-9.6l-1.7-2.45q-8.25-12.7-8.25-29.75 0-7.65 1.35-12.5l0.7-2.2q1.2-3.4 3.35-6.95l1.75-2.7q0.25-0.2 0.65-0.25l0.85-0.15q-0.8 3-1.45 9.35-0.95 9.25-0.95 17 0 3.05 1.5 10.35 1.35 6.7 2.5 10.05l-1.75-1v2.5l1 1.15 1 0.1q1.25 0 1.75-0.5 1.25 5.55 8.9 12.4 4.1 3.7 7.15 5.55m17.8 9.95 5.5 2.8q3.25 1.4 6.05 2.05l2.95 0.45-2.95-0.45q-2.8-0.65-6.05-2.05l-5.5-2.8m18.3 24.7q-0.65 2.8-1.95 5.55l-2.45 4.35-1.2 1.75-0.15 0.15 0.15-0.15 1.2-1.75 2.45-4.35q1.3-2.75 1.95-5.55" fill="#573e2d" fill-rule="evenodd"/>
<path d="m75.4 192.25h0.2q7.9 0 14.7 4.85 2.95 2.1 5.7 5.15l1.2 1.35 0.05 0.1 1.7-0.55 1.8-0.45 2.1-0.2q5.5 0 8.75 1.55 2.5 1.15 9.4 6.45 3.4 2.6 5.5 7.7 2 4.9 2 10.15 0 4.25-1.35 7.8l-0.1 0.2-1.65 3.4q5.6 2.8 9.5 6.8 7.6 7.7 7.6 18.05 0 2.75-1.15 4.8-1 1.7-2.85 2.85-0.85 0.55-1.85 0.95-3.2 1.3-7.9 1.3l-1.4-0.05 2.3 4.05 1.15 2.95v0.05q1.55-0.05 5.15 1.35 4.4 1.7 8.5 4.35l0.2 0.15q11.1 7.25 11.1 15.25v0.3q-0.05 5.05-2.5 9.6l-1.35 2.15-1.2 1.4q-3.25 3.2-8.2 3.2l-1.5-0.05-0.75 0.3m-0.2-0.35-2.85-0.55q-3.15-0.85-5.45-2.75-3.7-3.15-6.35-10.2-2.9 3.6-6.7 5.85-4.6 2.65-10.55 3.3l-0.5 0.05-2.55 0.15h-0.75q-4.65 0-8.45-1.95l-2.9-1.8q-5.5-4.25-5.5-11.15 0-3.55 0.9-7.4 1.25-5.7 4.4-12l1.05-1.95q2.55-4.7 5.65-8.65 2.55-3.3 5.5-6.05-4.95-3.75-5.65-6.35-1.6 1.05-3.6 1.4l-0.7 0.1-1.3 0.05-3.95-0.45q-7.15-1.7-13.1-9.6l-1.7-2.45q-8.25-12.7-8.25-29.75 0-7.65 1.35-12.5l0.7-2.2m3.35-6.95 1.75-2.7q0.25-0.2 0.65-0.25l0.85-0.15m28.95 25.05q2.15 7.2 2.15 15.95v1.25h2.5q8 1.45 14.2 4.2l2.2 1.05m-18.65-25.55 0.5 0.15q4.95 1.55 7.5 3.65 1.85 1.55 3.85 4.75 1.75 2.8 1.9 3.75-4.45-5.45-10.4-7.9m-1.4-0.3-4.35-1q-0.85-2.85-2.05-5.45-2.05-4.45-5.05-8.15m9.5 10.5-0.05-0.15m-0.1 0.1 0.15 0.05m-4.45-2.35q0.8 1.15 4.3 2.3m1.65 2.35 0.45 1.8m-14.35 28.55q0.65-1.65 0.85-7.65l0.05-9.1q0-12.6-4.15-20.7-2.65-5.2-8.05-9.85 6.65 8.1 8.9 22.8 0.8 5.25 1.35 14.05 0.5 8.05 0.95 10.35m0.1 0.1-0.1 0.15v-0.25m15.25-2.25-0.05 1.3q7.2 2.95 14.05 7.9 6.9 5 10.75 9.8l0.25 0.25v-0.3q-0.05-8.15-11.5-15.15-8.75-5.4-16.85-6.5l-0.35 2.7 3.65 1.3m-3.3-4 0.35-7.3m3.7 33.1-0.15-0.1q-2.95-1.85-5.05-3.45m22.35 10.4-2.95-0.45q-2.8-0.65-6.05-2.05l-5.5-2.8-2.25 4.05m2.25-4.05-2.65-1.55q-4.35 6.2-8.85 18.85-3.9 11.15-5.1 18.05 0.75-2.3 3.05-8.05 3.25-8.1 6.2-13.95l5-9.2 0.1-0.1m-11.25-15.5q3.4-2.2 5.15-7.45 0.8-2.45 1.3-5.75m27.9 51.8 0.05-1.3m-0.05 1.3 15.8 14.95v-0.5l-2.15-3.55-3.1-5.45q-3.45-5.4-8.35-9.05l-4.15-3.35q-0.1 2.25-0.6 4.5l2.55 2.45m-1.95-6.95v-2q-0.1-3.15-0.95-5.85m-5.4 24.15 0.15-0.15 1.2-1.75 2.45-4.35q1.3-2.75 1.95-5.55m8.9 25.3 0.95 0.05m-32.9-4.5-0.45 0.15m-35.5-119.5q-2.15 3.55-3.35 6.95m10.45-6.55q2.05 1.65 3.8 3.8" fill="none" stroke="#000" stroke-linecap="round" stroke-linejoin="round" stroke-opacity=".4" stroke-width=".4"/>
</g>
</defs>
</svg>
