<?xml version="1.0" encoding="UTF-8"?>
<svg version="1.1" viewBox="0 0 223.6 189.65" xmlns="http://www.w3.org/2000/svg" xmlns:cc="http://creativecommons.org/ns#" xmlns:dc="http://purl.org/dc/elements/1.1/" xmlns:rdf="http://www.w3.org/1999/02/22-rdf-syntax-ns#" xmlns:xlink="http://www.w3.org/1999/xlink">
<metadata>
<rdf:RDF>
<cc:Work rdf:about="">
<dc:format>image/svg+xml</dc:format>
<dc:type rdf:resource="http://purl.org/dc/dcmitype/StillImage"/>
</cc:Work>
</rdf:RDF>
</metadata>
<g transform="translate(-48.075 99.275)">
<use transform="translate(48.1,-99.25)" width="223.55" height="189.60001" xlink:href="#a"/>
</g>
<defs>
<g id="a" transform="translate(-48.1,99.25)">
<path d="m73.9-48.75q3.2 3.85 7.05 7.7 7.4 7.45 22.85 10.25 41.25 10.85 88.85 9.4 34.3-2.1 53.95-12.1l4.05 3.2q-14.95 7.25-32.4 11.15-17.1 3.75-36.5 4.35-53.5 5.4-105.9-20.65l-0.7-0.3q-2.55-2.4-4.85-5.1-11.15-13.25-15.7-34.35 4.55-7.4 29.85-12.25 15-2.5 32.15-3.5l-11.6-6.6v-1.7q8.5 6.35 25.1 7.75 10.2-0.3 21.15-0.05 12.35-0.15 24.65 0.3 30.9 1.1 61.4 6 13.3 4.25 28.85 16.75 5.55 3.6 5.5 9.35l-0.95 5.25q-5.9 13.8-14.85 20.7l-1.05 0.75-1.1 0.6-3.8-3.45 2.7-1.65q6.85-4.5 11.35-10.2 8.05-18.35-26.5-33.7-49.1-11-130.4-6.6-49.6 5.05-46.8 15.75 4 11.4 13.65 22.95" fill="#960" fill-rule="evenodd"/>
<path d="m249.9-35.3 3.8 3.45 1.1-0.6 1.05-0.75q8.95-6.9 14.85-20.7-2.8 15.9-3.1 29.05-1.4 6.45-5.7 10.7-16.9 15.75-42.1 26.1l-13.75 3.7q8.55-5.95 7.85-11.9l-4.75-5.95q-0.25-13.35 9.1-16.95 17.45-3.9 32.4-11.15l-4.05-3.2q2.25 0.8 3.3-1.8m-195.3-39.9q4.55 21.1 15.7 34.35l-1.45 10.65q-3.8 2.65-4.05 10.05l4.4 7.55v6.9l1.95 5.1-6.7-3.8q-8.9-12-11-26.75l1.8-14.75-0.65-29.3m196.05 44.9-1.2 16.15 4.25-17.7q-1.55 2.55-3.05 1.55" fill="#754f00" fill-rule="evenodd"/>
<path d="m73.9-48.75q-9.65-11.55-13.65-22.95-2.8-10.7 46.8-15.75 81.3-4.4 130.4 6.6 34.55 15.35 26.5 33.7-4.5 5.7-11.35 10.2-13-14.25-52.45-20.4l11.15-22.45-17.3 21.6-11.7-1.35 16.55-16.95-23.7 16.3-6.75-0.5q-45.35-2.5-90.3 7.85-3.85 1.45-4.2 4.1m-3.6 7.9q2.3 2.7 4.85 5.1l0.7 0.3q52.4 26.05 105.9 20.65 19.4-0.6 36.5-4.35-9.35 3.6-9.1 16.95l4.75 5.95q0.7 5.95-7.85 11.9-48.65 11.45-102.1 2.3l-32.8-18.55-1.95-5.1v-6.9l-4.4-7.55q0.25-7.4 4.05-10.05l1.45-10.65m180.35 10.55q1.5 1 3.05-1.55l-4.25 17.7 1.2-16.15" fill="#513600" fill-rule="evenodd"/>
<path d="m175.15-60.2 23.7-16.3-16.55 16.95q-1.25-4.05-7.15-0.65m18.85 2 17.3-21.6-11.15 22.45q-0.65-4.35-6.15-0.85" fill="#241800" fill-rule="evenodd"/>
<path d="m246.6-33.5q-19.65 10-53.95 12.1-47.6 1.45-88.85-9.4-15.45-2.8-22.85-10.25-3.85-3.85-7.05-7.7-9.65-11.55-13.65-22.95-2.8-10.7 46.8-15.75 81.3-4.4 130.4 6.6 34.55 15.35 26.5 33.7-4.5 5.7-11.35 10.2l-2.7 1.65m20.8-18.6 0.95-5.25q0.05-5.75-5.5-9.35-15.55-12.5-28.85-16.75-30.5-4.9-61.4-6-12.3-0.45-24.65-0.3-10.95-0.25-21.15 0.05-16.6-1.4-25.1-7.75v1.7l11.6 6.6q-17.15 1-32.15 3.5-25.3 4.85-29.85 12.25l0.65 29.3-1.8 14.75q2.1 14.75 11 26.75l6.7 3.8 32.8 18.55q53.45 9.15 102.1-2.3l13.75-3.7q25.2-10.35 42.1-26.1 4.3-4.25 5.7-10.7 0.3-13.15 3.1-29.05m-24.1 20.4q2.25 0.8 3.3-1.8m-176-13.45q0.35-2.65 4.2-4.1 44.95-10.35 90.3-7.85l6.75 0.5q5.9-3.4 7.15 0.65l11.7 1.35q5.5-3.5 6.15 0.85 39.45 6.15 52.45 20.4" fill="none" stroke="#000" stroke-linecap="round" stroke-linejoin="round" stroke-opacity=".4" stroke-width=".05"/>
<path d="m81.25-24.55h-0.25l0.2-0.05v0.05-0.05l0.05 0.05" fill="#ddd6aa" fill-rule="evenodd"/>
<path d="m80.4-15.75 0.2 0.95-0.5-0.75 0.3-0.2" fill="#c9bf78" fill-rule="evenodd"/>
<path d="m111.45-3.6-6.3 5.35q-5.05 2.25-4.35-2.5l0.8-2.4 1.05 0.6 4.3 0.5q2.8-0.2 4.5-1.55" fill-opacity=".49804" fill-rule="evenodd"/>
<path d="m80.6-14.8-0.2-0.95-0.3 0.2-3.45-5.05q-0.95-2.8 0.55-4.8 0.45 5.2 3.4 2.85l0.4-2h0.25q2.25 7.5 8.4 3.35l-0.65 1.45q-1.3 3.2-1.05 6 0.15 2.4 1.8 4.8-1.65-2.4-1.8-4.8-0.25-2.8 1.05-6 1.3 9.45 8.2 5l0.55-1.55q5.6 11.15 16.2 4.05 0.5 5.85-2.15 8.35l-0.2 0.15-0.15 0.15q-1.7 1.35-4.5 1.55l-4.3-0.5-1.05-0.6q-1.45-0.9-2.45-1.9-1.3 1.7-6.05-0.2-2.1-1.85-3.35-3.7l-5.25-0.6q-3.05-1.6-3.9-5.25m-0.2-0.95q-0.5-2.9 0.2-6.8-0.7 3.9-0.2 6.8m18.75 10.7q-3.7-3.8-1.95-9.7-1.75 5.9 1.95 9.7" fill="#988c3d" fill-rule="evenodd"/>
<path d="m89-19.75 0.65-1.45q-6.15 4.15-8.4-3.35l-0.05-0.05-0.2 0.05-0.4 2q-2.95 2.35-3.4-2.85l1.5-1.4q1.8-2.4 4.3-1.6l1.05-0.4q3.5 0.1 6 3.4l1.85 2.05 4.15 0.2 3.35 3.45q1.5-1.65 6.15-0.1 5.1 1.85 8.3 6.4l0.1 1.15q-10.6 7.1-16.2-4.05l-0.55 1.55q-6.9 4.45-8.2-5m0.65-1.45 0.7-1.3 1.55-0.85-1.55 0.85-0.7 1.3m9.75 1.5q-0.4 0.4-0.6 1.1l-1.05 2.3 1.05-2.3q0.2-0.7 0.6-1.1m-16.4-8.7q-1.15 0.85-1.8 3.8 0.65-2.95 1.8-3.8" fill="#c6bb6f" fill-rule="evenodd"/>
<path d="m80.6-14.8-0.2-0.95m-0.3 0.2 0.5 0.75q0.85 3.65 3.9 5.25l5.25 0.6q-1.65-2.4-1.8-4.8-0.25-2.8 1.05-6l0.65-1.45m-8.65-3.35-0.4 2q-0.7 3.9-0.2 6.8m-3.2-9.65 1.5-1.4q1.8-2.4 4.3-1.6l1.05-0.4q3.5 0.1 6 3.4l1.85 2.05 4.15 0.2 3.35 3.45q1.5-1.65 6.15-0.1 5.1 1.85 8.3 6.4l0.1 1.15q0.5 5.85-2.15 8.35m-0.2 0.15-0.15 0.15m-9.85 0.45q-1.45-0.9-2.45-1.9-1.3 1.7-6.05-0.2-2.1-1.85-3.35-3.7m-12.55-16.45q-1.5 2-0.55 4.8l3.45 5.05m17.1 0.8 0.55-1.55 1.05-2.3q0.2-0.7 0.6-1.1m-7.5-3.65-1.55 0.85-0.7 1.3m-8.45-3.4v0.05m0-0.05q0.65-2.95 1.8-3.8m14.2 13.65q-1.75 5.9 1.95 9.7m2.45 1.9 1.05 0.6 4.3 0.5q2.8-0.2 4.5-1.55" fill="none" stroke="#000" stroke-linecap="round" stroke-linejoin="round" stroke-opacity=".38824" stroke-width=".05"/>
<path d="m95.8 26.95-0.1 0.1-0.1 0.05 0.2-0.15m-20.15-23.2-0.25-1.05 0.2-0.05 0.05 1.1m1.3-10.65h0.15-0.15" fill="#c9bf78" fill-rule="evenodd"/>
<path d="m98.15 18.4q-0.25 6.7-2.35 8.55l-0.2 0.15-0.05 0.05-3.25 0.15-2.85-2.05-0.7-1.1-1.45-2.95q-1.05 1.45-4.1-2.35-1.3-2.85-1.95-5.3l-3.5-2.55q-1.9-2.8-2.1-7.25l-0.05-1.1-0.2 0.05-1.85-6.8q-0.35-3.4 0.9-5.1-0.25 5.95 2 4.35l0.5-2.05h0.15q0.75 9.2 5.4 6.75l-0.6 1.4q-0.1 11 5.05 8.45l0.55-1.5q2.65 14.35 10.65 10.2m-11.2-8.7q-1.8 6 0.35 11.5-2.15-5.5-0.35-11.5m-10.5-14.55q-0.9 4.05-0.85 7.5-0.05-3.45 0.85-7.5m5.45 6.1q-1.2 3.1-1.35 6.3-0.15 2.7 0.7 6-0.85-3.3-0.7-6 0.15-3.2 1.35-6.3" fill="#988c3d" fill-rule="evenodd"/>
<path d="m74.45-9.2 1.15-1.05q1.45-2.05 3.1-0.25l0.75-0.15q2.4 1.35 3.75 5.9l1.05 3q1.35-0.1 2.8 1.7l1.95 5q1.2-1.35 4.25 2.05 3.25 3.85 4.95 10.05l-0.05 1.35q-8 4.15-10.65-10.2l-0.55 1.5q-5.15 2.55-5.05-8.45l0.6-1.4 0.6-1.2q0.55-0.4 1.15-0.4-0.6 0-1.15 0.4l-0.6 1.2q-4.65 2.45-5.4-6.75h-0.15l-0.5 2.05q-2.25 1.6-2-4.35m4.25-1.3q-0.9 0.55-1.7 3.6 0.8-3.05 1.7-3.6m10.3 15.45-0.55 1-0.95 2.25 0.95-2.25 0.55-1" fill="#c6bb6f" fill-rule="evenodd"/>
<path d="m74.45-9.2 1.15-1.05q1.45-2.05 3.1-0.25l0.75-0.15q2.4 1.35 3.75 5.9l1.05 3q1.35-0.1 2.8 1.7l1.95 5q1.2-1.35 4.25 2.05 3.25 3.85 4.95 10.05l-0.05 1.35q-0.25 6.7-2.35 8.55m-0.1 0.1-0.1 0.05-0.05 0.05-3.25 0.15-2.85-2.05-0.7-1.1-1.45-2.95q-1.05 1.45-4.1-2.35-1.3-2.85-1.95-5.3l-3.5-2.55q-1.9-2.8-2.1-7.25l-0.25-1.05-1.85-6.8q-0.35-3.4 0.9-5.1m2 4.35 0.5-2.05m0.05 0q0.8-3.05 1.7-3.6m5.55 8.75q-0.6 0-1.15 0.4l-0.6 1.2-0.6 1.4m5.05 8.45 0.55-1.5 0.95-2.25 0.55-1m-1.7 16.25q-2.15-5.5-0.35-11.5m-11.35-7.05q-0.05-3.45 0.85-7.5m-0.85 7.5 0.05 1.1m5.6 9.8q-0.85-3.3-0.7-6 0.15-3.2 1.35-6.3" fill="none" stroke="#000" stroke-linecap="round" stroke-linejoin="round" stroke-opacity=".38824" stroke-width=".05"/>
<path d="m148.75-30.6q-6.2 35.6-16.6 58.65l-7.75-1.6-2.85-14.75q5.9-3.75 10.2-15.15 4.25-14.25 0-23.4-6.95 2.85-15.6 23.8h-2.6l0.4 8.75-3.85 12.05 4.25-2.4 0.45 9.7-19.05-2.75q8.1-32.4 25.9-56.85l-17.6-2.55 8.2-5.4 21.5 3.1q-14.4 0.8-12.1 4.85l27.1 3.95m18.35 29.75-4.85-18.05v-10.9h-7.85l-5.6-0.8q9.05-1.25 6.45-5.7l14.2 2.05 21.25 52.45-14.2 15.8-9.4-34.85" fill="#8a704d" fill-rule="evenodd"/>
<path d="m148.8-30.6h-0.05l-27.1-3.95q-2.3-4.05 12.1-4.85l21.5 3.1q2.6 4.45-6.45 5.7m13.45 11.7-7.85-10.9h7.85v10.9" fill="#a69277" fill-rule="evenodd"/>
<path d="m148.75-30.6h0.05l5.6 0.8 7.85 10.9 4.85 18.05 4.05 36.95-39-8.05q10.4-23.05 16.6-58.65m-44.7-6.5 17.6 2.55q-17.8 24.45-25.9 56.85l-3.15-0.45-3.95-10.95 15.4-48m10.3 52.45-4.25 2.4 3.85-12.05 0.4 9.65m1.8-18.4q8.65-20.95 15.6-23.8 4.25 9.15 0 23.4-4.3 11.4-10.2 15.15l-2.8-14.75h-2.6" fill="#715b3e" fill-rule="evenodd"/>
<path d="m121.55 11.7 2.85 14.75 1.8 9.5 3.4 17.8-1.75 15.15-9.1-71.95 2.8 14.75m-32.9-0.8 3.95 10.95 2.5 7 6.35 17.65 0.8 11.55-20.8-58.05 2-3.5 5.2 14.4m7.8 44.6 3.2 7.75-24.8-33.9 2.6-1.85 13.25 19.45 5.75 8.55" fill="#604d34" fill-rule="evenodd"/>
<path d="m132.15 28.05 39 8.05-5.85 31.25-6 17.9-14.7-1.8-10.25-38.4 2.95 37.5-29.6-3.6-7.1-10.2 15.25-19.35-1.05-24.35-0.45-9.7-0.4-9.65-0.4-8.75h5.2l9.1 71.95 1.75-15.15-3.4-17.8 5.95-7.9m-39.55-6.2 3.15 0.45-0.65 6.55-2.5-7m-4.65 7.65 8.5 26-5.75-8.55-2.75-17.45m28.2 27.7-0.3-7.8 0.3 7.8" fill="#6b563a" fill-rule="evenodd"/>
<path d="m95.75 22.3 19.05 2.75 1.05 24.35-15.25 19.35-23.15-33.25-2.6-6.15 24.8 33.9-3.2-7.75-17-52 2-3.5 20.8 58.05-0.8-11.55-6.35-17.65 0.65-6.55m28.65 4.15 7.75 1.6-5.95 7.9-1.8-9.5" fill="#7b6444" fill-rule="evenodd"/>
<path d="m137.3 82.55-2.95-37.5 10.25 38.4q-2.95-3.4-7.3-0.9m28-15.2 5.85-31.25 5.35-2.1-11.2 33.35" fill="#3a2e1f" fill-rule="evenodd"/>
<path d="m159.3 85.25 6-17.9 11.2-33.35 14.2-15.8-24.7 59.35-6.7 7.7" fill="#604e35" fill-rule="evenodd"/>
<path d="m171.15 36.1-4.05-36.95 9.4 34.85-5.35 2.1" fill="#453725" fill-rule="evenodd"/>
<path d="m155.25-36.3-43-6.2-8.2 5.4-15.4 48 3.95 10.95m98.1-3.65-21.25-52.45-14.2-2.05m-40.45 61.35-0.45-9.7m-0.4-9.65-0.4-8.75h2.6m5.4 14.75 2.85 14.75m1.8 9.5 3.4 17.8m-10.85-56.8h-2.6m-27.5 13.95-5.2-14.4-4 7 17 52m5-9-6.35-17.65-2.5-7m-17.75 7.5 2.6 6.15 23.15 33.25 7.1 10.2 29.6 3.6q4.35-2.5 7.3 0.9l14.7 1.8 6.7-7.7 24.7-59.35m-74.85 31.2-1.05-24.35m-0.85-19.35 0.4 9.65m7.2-3.65-2.8-14.75m7.45 39-1.8-9.5m-8.55 22.95 0.3 7.8m-28.2-27.7 2.75 17.45 5.75 8.55m-5.75-8.55-13.25-19.45-2.6 1.85m101.65 4.65-11.2 33.35" fill="none" stroke="#000" stroke-linecap="round" stroke-linejoin="round" stroke-opacity=".4" stroke-width=".05"/>
<path d="m96.7 70.45q1.1 2.25 1.15 4.45 0 2.45-1.3 3.45v0.05l-0.15 0.05-0.75 0.55 0.25-0.6 0.25-1.9q-0.05-2.7-1.7-5.6-1.7-2.9-4-4.3-1.25-0.75-2.3-0.8-0.75-0.05-1.4 0.25l-0.3 0.15 1.5-1.4q0.1-0.15 0.3-0.2 1.55-0.95 3.85 0.4 1.2 0.75 2.25 1.9l1.75 2.4 0.6 1.15" fill="#999" fill-rule="evenodd"/>
<path d="m113.75 56.4-0.5 2.05-0.95 0.7-15.6 11.3-0.6-1.15-1.75-2.4 17.3-11.7q1.9-0.3 2.1 0.95v0.25m-18.1 22.6-0.8 0.95-0.1 0.1-0.15 0.1-1 0.35q-1.3 0.1-2.95-0.85-2.3-1.4-3.95-4.25-1.65-2.9-1.75-5.65 0-1.8 0.75-2.8v-0.05l0.55-0.55 0.2-0.15 0.3-0.15q0.65-0.3 1.4-0.25 1.05 0.05 2.3 0.8 2.3 1.4 4 4.3 1.65 2.9 1.7 5.6l-0.25 1.9-0.25 0.6m-9.95-12.1 0.75-0.7-0.75 0.7" fill="#666" fill-rule="evenodd"/>
<path d="m113.75 56.4q4.1 11.45 1 6.75l-2.45-4 0.95-0.7 0.5-2.05" fill-opacity=".47059" fill-rule="evenodd"/>
<path d="m113.75 56.4-0.5 2.05-0.95 0.7-15.6 11.3q1.1 2.25 1.15 4.45 0 2.45-1.3 3.45v0.05l-0.15 0.05-0.75 0.55-0.8 0.95-0.1 0.1-0.15 0.1-1 0.35q-1.3 0.1-2.95-0.85-2.3-1.4-3.95-4.25-1.65-2.9-1.75-5.65 0-1.8 0.75-2.8v-0.05l0.55-0.55 0.2-0.15 1.5-1.4q0.1-0.15 0.3-0.2 1.55-0.95 3.85 0.4 1.2 0.75 2.25 1.9l17.3-11.7q1.9-0.3 2.1 0.95v0.25m-19.4 10.5 1.75 2.4 0.6 1.15m-10.25-4.25 0.3-0.15q0.65-0.3 1.4-0.25 1.05 0.05 2.3 0.8 2.3 1.4 4 4.3 1.65 2.9 1.7 5.6l-0.25 1.9-0.25 0.6m-9.2-12.8-0.75 0.7" fill="none" stroke="#000" stroke-linecap="round" stroke-linejoin="round" stroke-opacity=".38824" stroke-width=".05"/>
<path d="m115.3 82.6q1.2 1.4 1.6 2.9 0.5 1.7-0.25 2.65l-0.05 0.05h-0.05l-0.45 0.55 0.05-0.45-0.15-1.4q-0.55-1.8-2.25-3.5-1.8-1.65-3.75-2.15l-1.8-0.1-1 0.4-0.15 0.1-0.05 0.05 0.85-1.3 0.15-0.2q1-0.9 2.95-0.4l2 0.8q0.9 0.6 1.7 1.4l0.65 0.6" fill="#999" fill-rule="evenodd"/>
<path d="m125.2 69.65v1.5l-0.55 0.6-9.35 10.85-0.65-0.6q-0.8-0.8-1.7-1.4l10.45-11.45q1.4-0.55 1.75 0.3l0.05 0.2m-9.1 19.1-0.45 0.9-0.1 0.1-0.7 0.45q-0.95 0.3-2.25 0-1.95-0.5-3.75-2.2-1.7-1.65-2.3-3.55-0.35-1.25 0.05-2.1l0.3-0.5 0.1-0.15 0.05-0.05 0.15-0.1 1-0.4 1.8 0.1q1.95 0.5 3.75 2.15 1.7 1.7 2.25 3.5l0.15 1.4-0.05 0.45m-9.5-6.4 0.4-0.65-0.4 0.65" fill="#666" fill-rule="evenodd"/>
<path d="m125.2 69.65q5.1 7.1 1.95 4.45l-2.5-2.35 0.55-0.6v-1.5" fill-opacity=".47059" fill-rule="evenodd"/>
<path d="m125.2 69.65v1.5l-0.55 0.6-9.35 10.85q1.2 1.4 1.6 2.9 0.5 1.7-0.25 2.65l-0.05 0.05h-0.05l-0.45 0.55-0.45 0.9-0.1 0.1-0.7 0.45q-0.95 0.3-2.25 0-1.95-0.5-3.75-2.2-1.7-1.65-2.3-3.55-0.35-1.25 0.05-2.1l0.3-0.5 0.1-0.15 0.85-1.3 0.15-0.2q1-0.9 2.95-0.4l2 0.8 10.45-11.45q1.4-0.55 1.75 0.3l0.05 0.2m-12.25 10.95q0.9 0.6 1.7 1.4l0.65 0.6m-8.3-0.9 0.05-0.05 0.15-0.1 1-0.4 1.8 0.1q1.95 0.5 3.75 2.15 1.7 1.7 2.25 3.5l0.15 1.4-0.05 0.45m-9.1-7.05-0.4 0.65" fill="none" stroke="#000" stroke-linecap="round" stroke-linejoin="round" stroke-opacity=".38824" stroke-width=".05"/>
<path d="m203-12-0.1-0.05-0.05-0.05h0.05v0.05-0.05l0.1 0.1" fill="#ddd6aa" fill-rule="evenodd"/>
<path d="m201.35-3.05-0.65 0.65 0.45-0.85 0.2 0.2" fill="#c9bf78" fill-rule="evenodd"/>
<path d="m179.75 5.75v2.45q-0.8 4.8-4.35 1.8l-3.85-6.25q1.05 1.6 3.35 2.25l3.75 0.15 1.1-0.4" fill-opacity=".49804" fill-rule="evenodd"/>
<path d="m171.85-5.15q6.95 8.65 14.8-1.4v1.6q4.55 5.45 8.3-3.6l-0.15-1.55q4 5.05 8.05-2l0.05 0.05 0.1 0.05-0.15 2q1.8 2.8 3.6-2.25 0.7 2.2-0.85 4.8l-4.25 4.4-0.2-0.2-0.45 0.85q-1.8 3.5-4.8 4.55l-4.55-0.2q-1.55 1.55-3.85 3.05-4.6 1.15-5.2-0.75l-2.55 1.5-1.1 0.4-3.75-0.15q-2.3-0.65-3.35-2.25l-0.05-0.05-0.15-0.3q-1.6-2.9 0.5-8.55m23.1-3.4q0.2 3.3-0.75 6.05-0.8 2.3-2.85 4.45 2.05-2.15 2.85-4.45 0.95-2.75 0.75-6.05m-12.65 12.8q4.2-3.1 4.35-9.2-0.15 6.1-4.35 9.2m20.55-14.25q-0.5 3.95-1.7 6.75 1.2-2.8 1.7-6.75" fill="#988c3d" fill-rule="evenodd"/>
<path d="m171.85-5.15 0.4-1.15q3.9-3.95 8.75-4.95 4.35-0.8 5.2 1.05l0.2 1.2 0.25 2.45-0.25-2.45-0.2-1.2 3.75-2.8q2.15-0.55 3.6 0.45l2.15-1.75q2.95-2.85 5.95-2.4l0.8 0.6q2.3-0.4 3.15 2.25l0.85 1.6q-1.8 5.05-3.6 2.25l0.15-2-0.1-0.1q0.25-3-0.45-4 0.7 1 0.45 4h-0.05q-4.05 7.05-8.05 2l0.15 1.55q-3.75 9.05-8.3 3.6v-1.6q-7.85 10.05-14.8 1.4m21.7-7.4 1.05 1.1 0.2 1.35-0.2-1.35-1.05-1.1" fill="#c6bb6f" fill-rule="evenodd"/>
<path d="m186.2-10.2q-0.85-1.85-5.2-1.05-4.85 1-8.75 4.95l-0.4 1.15m14.8-1.4-0.25-2.45-0.2-1.2 3.75-2.8q2.15-0.55 3.6 0.45l2.15-1.75q2.95-2.85 5.95-2.4l0.8 0.6q2.3-0.4 3.15 2.25l0.85 1.6q0.7 2.2-0.85 4.8l-4.25 4.4-0.65 0.65q-1.8 3.5-4.8 4.55l-4.55-0.2q-1.55 1.55-3.85 3.05-4.6 1.15-5.2-0.75l-2.55 1.5m-8.2-2-0.05-0.05-0.05-0.1m-0.1-0.2q-1.6-2.9 0.5-8.55m14.8 0.2v-1.6m8.3-2-0.15-1.55-0.2-1.35-1.05-1.1m-2.2 14.5q2.05-2.15 2.85-4.45 0.95-2.75 0.75-6.05m-8.3 3.6q-0.15 6.1-4.35 9.2m18.85-7.5-0.45 0.85m0.45-0.85q1.2-2.8 1.7-6.75l0.15-2m-0.1-0.1v0.05m0-0.05q0.25-3-0.45-4m-30.9 19.85q1.05 1.6 3.35 2.25l3.75 0.15 1.1-0.4" fill="none" stroke="#000" stroke-linecap="round" stroke-linejoin="round" stroke-opacity=".38824" stroke-width=".05"/>
<path d="m201.85 5.45v0.05h-0.15l0.15-0.05m-1.35 9.9-0.5 1.05 0.35-1.15 0.15 0.1m-23.8 23.75-0.1-0.05-0.05-0.15 0.15 0.2" fill="#c9bf78" fill-rule="evenodd"/>
<path d="m201.4 1.7q1.85-1.75 2.55 0.4l0.65 1.15q-1.45 6.05-2.9 4.3l0.15-2.05v-0.05q0.1-3.15-0.45-3.75 0.55 0.6 0.45 3.75l-0.15 0.05q-3.2 9.3-6.4 6.55l-0.2-1.25q-0.35-0.45-0.85-0.5 0.5 0.05 0.85 0.5l0.2 1.25 0.1 1.45q-3 11.2-6.6 8.35l-0.05-1.6q-6.25 14.5-11.8 9.8l0.35-1.35q3.1-6.2 6.95-9.95 3.5-3.3 4.15-1.9l3-4.95q1.75-1.8 2.85-1.6l1.75-3q2.35-4.55 4.75-5.75l0.65 0.15m-13 15.15 0.15 1.1 0.2 2.3-0.2-2.3-0.15-1.1" fill="#c6bb6f" fill-rule="evenodd"/>
<path d="m201.85 5.5-0.15 2.05q1.45 1.75 2.9-4.3 0.55 1.8-0.65 5.25l-3.45 6.85-0.15-0.1-0.35 1.15q-1.45 4.45-3.8 7.25l-3.65 2.4-3.1 5.25q-3.65 3.75-4.15 2.2l-2.05 2.95-0.85 1.05-3 1.95q-1.85 0.7-2.7-0.3v-0.05l-0.15-0.2q-1.25-2 0.4-8.85 5.55 4.7 11.8-9.8l0.05 1.6q3.6 2.85 6.6-8.35 0.15 3.2-0.6 6.5-0.65 2.75-2.25 6.05 1.6-3.3 2.25-6.05 0.75-3.3 0.6-6.5l-0.1-1.45q3.2 2.75 6.4-6.55h0.15m-16.55 28q3.35-5.5 3.5-11.65-0.15 6.15-3.5 11.65m16.4-25.95q-0.4 4.2-1.35 7.7 0.95-3.5 1.35-7.7" fill="#988c3d" fill-rule="evenodd"/>
<path d="m204.6 3.25-0.65-1.15q-0.7-2.15-2.55-0.4 0.55 0.6 0.45 3.75v0.05l-0.15 2.05m2.9-4.3q0.55 1.8-0.65 5.25l-3.45 6.85-0.5 1.05q-1.45 4.45-3.8 7.25l-3.65 2.4-3.1 5.25q-3.65 3.75-4.15 2.2l-2.05 2.95-0.85 1.05-3 1.95q-1.85 0.7-2.7-0.3v-0.05l-0.1-0.05m-0.05-0.15q-1.25-2 0.4-8.85l0.35-1.35q3.1-6.2 6.95-9.95 3.5-3.3 4.15-1.9l3-4.95q1.75-1.8 2.85-1.6l1.75-3q2.35-4.55 4.75-5.75l0.65 0.15m-7.15 8.6q0.5 0.05 0.85 0.5l0.2 1.25m-6.55 8.2-0.2-2.3-0.15-1.1m0.4 5-0.05-1.6m3.8 5.8q1.6-3.3 2.25-6.05 0.75-3.3 0.6-6.5l-0.1-1.45m-6.5 9.8q-0.15 6.15-3.5 11.65m14.7-17.1 0.35-1.15q0.95-3.5 1.35-7.7" fill="none" stroke="#000" stroke-linecap="round" stroke-linejoin="round" stroke-opacity=".38824" stroke-width=".05"/>
<path d="m60-1.9q2.9 1.05 2.35-3.65l-1.55-6.3q-1.3-5.6 3.25-11.25l1.15 0.25q-4.45 12.85 0 17 0.6 5.35-2.1 6.05-1.55 0-3.1-2.1" fill="#999" fill-rule="evenodd"/>
<path d="m64.05-23.1q-4.55 5.65-3.25 11.25l1.55 6.3q0.55 4.7-2.35 3.65-1.15-1.65-2.35-4.6-1.95-7.25 2.2-13.2 2.35-3.25 4.2-3.4" fill="#ccc" fill-rule="evenodd"/>
<path d="m60-1.9q1.55 2.1 3.1 2.1 2.7-0.7 2.1-6.05-4.45-4.15 0-17l-1.15-0.25q-1.85 0.15-4.2 3.4-4.15 5.95-2.2 13.2 1.2 2.95 2.35 4.6z" fill="none" stroke="#000" stroke-linecap="round" stroke-linejoin="round" stroke-opacity=".4" stroke-width=".05"/>
<path d="m58.55-39.9q0.6 0.1 1 0.55-7.6 11.25-4.4 16.4-0.75 5.3-3.55 5.3-1.5-0.4-2.45-2.85 2.55 1.8 3.2-2.9l0.1-6.5q0.2-5.75 6.1-10" fill="#999" fill-rule="evenodd"/>
<path d="m49.15-20.5q-0.65-1.9-1.05-5.05-0.05-7.5 5.5-12.2 3.1-2.5 4.95-2.15-5.9 4.25-6.1 10l-0.1 6.5q-0.65 4.7-3.2 2.9" fill="#ccc" fill-rule="evenodd"/>
<path d="m49.15-20.5q-0.65-1.9-1.05-5.05-0.05-7.5 5.5-12.2 3.1-2.5 4.95-2.15 0.6 0.1 1 0.55-7.6 11.25-4.4 16.4-0.75 5.3-3.55 5.3-1.5-0.4-2.45-2.85z" fill="none" stroke="#000" stroke-linecap="round" stroke-linejoin="round" stroke-opacity=".4" stroke-width=".05"/>
<path d="m233.15-9.75-1.3 0.2q5.05 11.65 0 15.4-0.7 4.85 2.4 5.5 1.75 0 3.5-1.9-3.3 0.95-2.65-3.3l1.75-5.7q1.45-5.1-3.7-10.2" fill="#999" fill-rule="evenodd"/>
<path d="m237.75 9.45q1.3-1.5 2.65-4.2 2.2-6.55-2.5-11.95-2.65-2.9-4.75-3.05 5.15 5.1 3.7 10.2l-1.75 5.7q-0.65 4.25 2.65 3.3" fill="#ccc" fill-rule="evenodd"/>
<path d="m237.75 9.45q1.3-1.5 2.65-4.2 2.2-6.55-2.5-11.95-2.65-2.9-4.75-3.05l-1.3 0.2q5.05 11.65 0 15.4-0.7 4.85 2.4 5.5 1.75 0 3.5-1.9z" fill="none" stroke="#000" stroke-linecap="round" stroke-linejoin="round" stroke-opacity=".4" stroke-width=".05"/>
<path d="m262.9-6.95q-3.3 0.95-2.65-3.3l1.75-5.7q1.45-5.1-3.7-10.2l-1.3 0.2q5.05 11.65 0 15.4-0.7 4.85 2.4 5.5 1.75 0 3.5-1.9" fill="#999" fill-rule="evenodd"/>
<path d="m258.3-26.15q5.15 5.1 3.7 10.2l-1.75 5.7q-0.65 4.25 2.65 3.3 1.3-1.5 2.65-4.2 2.2-6.55-2.5-11.95-2.65-2.9-4.75-3.05" fill="#ccc" fill-rule="evenodd"/>
<path d="m262.9-6.95q-1.75 1.9-3.5 1.9-3.1-0.65-2.4-5.5 5.05-3.75 0-15.4l1.3-0.2q2.1 0.15 4.75 3.05 4.7 5.4 2.5 11.95-1.35 2.7-2.65 4.2z" fill="none" stroke="#000" stroke-linecap="round" stroke-linejoin="round" stroke-opacity=".4" stroke-width=".05"/>
</g>
</defs>
</svg>
