<?xml version="1.0" encoding="UTF-8"?>
<svg version="1.1" viewBox="0 0 43.35 93.222" xmlns="http://www.w3.org/2000/svg" xmlns:cc="http://creativecommons.org/ns#" xmlns:dc="http://purl.org/dc/elements/1.1/" xmlns:rdf="http://www.w3.org/1999/02/22-rdf-syntax-ns#" xmlns:xlink="http://www.w3.org/1999/xlink">
<metadata>
<rdf:RDF>
<cc:Work rdf:about="">
<dc:format>image/svg+xml</dc:format>
<dc:type rdf:resource="http://purl.org/dc/dcmitype/StillImage"/>
</cc:Work>
</rdf:RDF>
</metadata>
<g transform="translate(-253.28 -153.88)">
<use transform="translate(253.3,153.9)" width="43.299999" height="93.150002" xlink:href="#a"/>
</g>
<defs>
<g id="a" transform="translate(-253.3,-153.9)">
<path d="m263.75 243.95h-0.05v-0.1l0.05 0.1m6.65-15.5v0.05l-0.15 0.05 0.15-0.1" fill="#2c2d02" fill-rule="evenodd"/>
<path d="m270.25 228.55 0.15-0.15v0.05l-0.15 0.1" fill="#0284c1" fill-rule="evenodd"/>
<path d="m263.1 246.85 0.1 0.15h-0.1v-0.15" fill="#cf0" fill-rule="evenodd"/>
<path d="m296.3 234.8 0.2 0.1 0.05 0.05-0.35-0.05 0.1-0.1m-4.7 0h-1.8l1.8-0.15v0.15m-8.6 1.25-0.2 0.15 0.15-0.15h0.05" fill="#555ba0" fill-rule="evenodd"/>
<path d="m270.4 228.4v0.05-0.05" fill="#ae9937" fill-rule="evenodd"/>
<path d="m279.35 222.2q-0.2-3.8 0.35-7.85 0.5 3.6 1.8 6.95l-1.35 1.1-0.8-0.1v-0.1" fill="#7c6d27" fill-rule="evenodd"/>
<path d="m254.85 210.6 0.6-5.9q1.45-13.05 1.7-20.3 0.35-11.25-1.4-20.45l4.4-1.1q6.95-2 12.35-5.15 2.95-1.75 5.45-3.8 2.75 3.2 3.6 7.1l0.1 0.45 0.8 19.1 0.1 0.6q0.4 11.65 1.45 20.8v0.35q0.55 8.1 2.25 14.65l-2.8-0.65-1.6 1.05-0.35 3.95q-1.3-3.35-1.8-6.95-0.55 4.05-0.35 7.85l-1.3-0.1-1.35 1.35 0.35 4.25-0.8 0.85-3.4-0.95-2.45 0.85v-0.05q-2.15-11.3-2.25-28.2-2.45 8.4-3.75 16.25l-1.1-2.9-4.15-3.55-4.3 0.6m25.25-6.45-4.1-4.9 2.8-8.05-4.7-4.05 3.25-5.95-4.85-5.7 3.65-6.45-4-4.4 4 4.4-3.65 6.45 4.85 5.7-3.25 5.95 4.7 4.05-2.8 8.05 4.1 4.9m-5-42.6q-0.65-2.15-2.6-3.85 1.95 1.7 2.6 3.85m-7.8 34.45-3.8-5 3.7-6.15-4.6-5.35 4-6.25-4.65-3.65 4.65 3.65-4 6.25 4.6 5.35-3.7 6.15 3.8 5m-4.85-29.55q0.15-1.8-2.3-3.6 2.45 1.8 2.3 3.6m15.5 45-2.8-0.55-0.1 0.1-1.1 2.65 1.35 2 2.65 0.6 0.1-4.8h-0.1" fill="#f2d117" fill-rule="evenodd"/>
<path d="m264.4 216.45q1.3-7.85 3.75-16.25 0.1 16.9 2.25 28.2l-0.15 0.15-2.65 2.3-1.45-0.3-2.95-4.2q0.35-4.85 1.2-9.9" fill="#d6a70a" fill-rule="evenodd"/>
<path d="m286.25 216.95q2.35 9.3 6.95 15.4l3.1 2.45-0.1 0.1-4.6-0.1v-0.15q-6.8-5.7-9.85-12.75l-0.25-0.6 0.35-3.95 1.6-1.05 2.8 0.65m-3.45 19.25-0.55 0.9-0.15 1.2-0.05 0.6q-0.5 2.6-2.85 3.35l-3.9 0.5h-0.35q-2.9-5.4-4.55-14.25v-0.05l2.45-0.85 3.4 0.95 0.8-0.85-0.35-4.25 1.35-1.35 1.3 0.1v0.1q0.4 7.5 3.6 13.75l-0.15 0.15m-19.1 7.75-0.6 0.35-1.85 0.85q-7-7.45-7.85-17.1l0.2-3.3q0.2-4.65 1.25-14.15l4.3-0.6 4.15 3.55 1.1 2.9q-0.85 5.05-1.2 9.9-0.6 9.15 0.5 17.5v0.1m14.25-32.5h0.1l-0.1 4.8-2.65-0.6-1.35-2 1.1-2.65 0.1-0.1 2.8 0.55" fill="#b08a09" fill-rule="evenodd"/>
<path d="m289.8 234.8-6.55 1.25h-0.3q-3.2-6.25-3.6-13.75l0.8 0.1 1.35-1.1 0.25 0.6q3.05 7.05 9.85 12.75l-1.8 0.15m-14.85 7.95h-4q-4.75-0.05-7.2 1.2l-0.05-0.1q-1.1-8.35-0.5-17.5l2.95 4.2 1.45 0.3 2.65-2.3 0.15-0.05q1.65 8.85 4.55 14.25m-13.7 2.4 1.85 1.7v0.15q-6.35 0.5-9.8-2.45l0.1-16.5q0.85 9.65 7.85 17.1" fill="#514004" fill-rule="evenodd"/>
<path d="m277.95 153.9q2.75 3.2 3.6 7.1l0.1 0.45 0.8 19.1 0.1 0.6q0.4 11.65 1.45 20.8v0.35q0.55 8.1 2.25 14.65 2.35 9.3 6.95 15.4l3.1 2.45 0.3 0.15h-0.05l-0.35-0.05-4.6-0.1h-1.8l-6.55 1.25m-0.1 0h-0.15m-0.2 0.15-0.55 0.9-0.15 1.2-0.05 0.6q-0.5 2.6-2.85 3.35l-3.9 0.5h-4.35q-4.75-0.05-7.2 1.2h-0.05l-0.6 0.35-1.85 0.85 1.85 1.7 0.1 0.15h-0.1q-6.35 0.5-9.8-2.45m0.1-16.5q0.85 9.65 7.85 17.1m21.55-8.95 0.15-0.15" fill="none" stroke="#0f121c" stroke-linecap="round" stroke-linejoin="round" stroke-width=".05"/>
<path d="m272.15 164.65 4 4.4-3.65 6.45 4.85 5.7-3.25 5.95 4.7 4.05-2.8 8.05 4.1 4.9m-18.15-34.55 4.65 3.65-4 6.25 4.6 5.35-3.7 6.15 3.8 5" fill="none" stroke="#fbeea8" stroke-linecap="round" stroke-linejoin="round"/>
<path d="m272.5 157.7q1.95 1.7 2.6 3.85m-14.95 1.3q2.45 1.8 2.3 3.6" fill="none" stroke="#b08a09" stroke-linecap="round" stroke-linejoin="round" stroke-width=".05"/>
</g>
</defs>
</svg>
