<?xml version="1.0" encoding="UTF-8"?>
<svg version="1.1" viewBox="0 0 76.646 84.683" xmlns="http://www.w3.org/2000/svg" xmlns:cc="http://creativecommons.org/ns#" xmlns:dc="http://purl.org/dc/elements/1.1/" xmlns:rdf="http://www.w3.org/1999/02/22-rdf-syntax-ns#" xmlns:xlink="http://www.w3.org/1999/xlink">
<metadata>
<rdf:RDF>
<cc:Work rdf:about="">
<dc:format>image/svg+xml</dc:format>
<dc:type rdf:resource="http://purl.org/dc/dcmitype/StillImage"/>
</cc:Work>
</rdf:RDF>
</metadata>
<g transform="translate(-236.9 -159.34)">
<use transform="matrix(.933 .0818 -.0818 .933 242.59 155.96)" width="55.900002" height="77.400002" xlink:href="#a"/>
<use transform="translate(257.7,166.6)" width="55.900002" height="77.400002" xlink:href="#a"/>
</g>
<defs>
<g id="a" transform="translate(27.95,38.7)">
<use transform="translate(-27.7,-38.45)" width="55.400002" height="76.900002" xlink:href="#e"/>
<use transform="translate(3.2,-33.25)" width="20.049999" height="27.1" xlink:href="#b"/>
<use transform="translate(-27.95,-38.7)" width="55.900002" height="77.400002" xlink:href="#c"/>
</g>
<g id="e" transform="translate(27.7,38.45)">
<path d="m3.4-28.95 0.05-1.3 3.5 1.55 0.45 3.35-1.2-0.75v-1.85q-1.3-1.5-2-1.2l-0.8 0.2m5.5 17.5 0.95 0.45 1.25 4.6-2.15-1 1.05-0.35-1.1-3.7" fill="#997846" fill-rule="evenodd"/>
<path d="m6.95-28.7-3.5-1.55q6.6-1.2 11.45-3.8l1.45 0.55 1.45 0.5q-4.85 2.75-10.85 4.3" fill="url(#aa)" fill-rule="evenodd"/>
<path d="m3.45-30.25-0.05 1.3q-14.4 3.4-14.2 0.4-0.1-0.55 0.2-1.15l0.1-0.2q1.45-2.4 12.8-4.7 11.7-2.45 15.05-0.45-0.2 0.6-1 1.55l-1.45-0.55q-4.85 2.6-11.45 3.8" fill="url(#z)" fill-rule="evenodd"/>
<path d="m3.4-28.95 0.8-0.2q0.7-0.3 2 1.2v0.15q-15.95 4.2-18.2 1.25 0.2 4 2.25 6.55 1.8 2.45 0.15 8.65l-1 2.25q-0.65-1.05 0.35-2.9 1.6-5-0.95-9.05-2.55-4-1.4-8.15 0.65-3.25 4.95-5.25 6.05-0.35 11.7-2 7.85-2.3 13.45-1.6 3.5 0.1 2.75 9.65 0.6 3.7 2.6 6.25l2 3.4q-4.45-4.3-5.2-8.1-0.4-2.05-0.1-3.45t-0.15-3.9l-1.65 2.45 0.05-1.25-1.45-0.5q0.8-0.95 1-1.55-3.35-2-15.05 0.45-11.35 2.3-12.8 4.7l-0.1 0.2q-0.3 0.6-0.2 1.15-0.2 3 14.2-0.4m13.2-7.25q0.95 0.3 0.75 1.15 0.2-0.85-0.75-1.15m-24.6 3.65-2.5 2.65 2.5-2.65" fill="url(#o)" fill-rule="evenodd"/>
<path d="m6.2-27.8v1.7l0.85 2.05q1.9 3.85 4.85 2.9l0.6 2.3q-3.55 3.25-3.6 7.4l1.1 3.7-1.05 0.35-4.45 1.3-0.9 0.1h-1.55q0.7-2.4 0.4-4.95l-1.1-1.75q-2-1.1-2.7 0.3-2.05 0.05-1.85 2.6 0.2 2.95-1.4 3l-3.25-0.7q-1.25-0.45-2.4-1.15l-0.35-0.45 1-2.25q1.65-6.2-0.15-8.65-2.05-2.55-2.25-6.55 2.25 2.95 18.2-1.25m11.55-3.95 1.65-2.45q0.45 2.5 0.15 3.9t0.1 3.45q0.75 3.8 5.2 8.1 0.75 1.75 0.6 3.05l-1.85 2.5-0.6-3.45h-1.35q-1.9-3.05-5.15-3.8l-0.6-2.3q1.95-1.55 1.3-5.3l-0.35-1.55 0.8-0.35 0.1-1.8" fill="url(#l)" fill-rule="evenodd"/>
<path d="m6.2-26.1 1.2 0.75 9.45-4.25 0.35 1.55-10.15 4-0.85-2.05" fill="#9a991d" fill-rule="evenodd"/>
<path d="m7.4-25.35-0.45-3.35q6-1.55 10.85-4.3l-0.05 1.25-0.1 1.8-0.8 0.35-9.45 4.25" fill="url(#k)" fill-rule="evenodd"/>
<path d="m15.9-22.75 0.6 2.3-4 1.6-0.6-2.3 4-1.6" fill="#8f8e00" fill-rule="evenodd"/>
<path d="m17.2-28.05q0.65 3.75-1.3 5.3l-4 1.6q-2.95 0.95-4.85-2.9l10.15-4" fill="url(#j)" fill-rule="evenodd"/>
<path d="m16.5-20.45q3.25 0.75 5.15 3.8-5.25 2.6-11.65 4.85l-1.1 0.35q0.05-4.15 3.6-7.4l4-1.6" fill="url(#i)" fill-rule="evenodd"/>
<path d="m21.65-16.65h1.35q-5.95 3.35-13 5.6l-0.15 0.05-0.95-0.45 1.1-0.35q6.4-2.25 11.65-4.85" fill="url(#h)" fill-rule="evenodd"/>
<path d="m23-16.65 0.6 3.45 0.15 1-1.9 1.2-0.6 0.35q-4.7 2.65-10.15 4.25l-1.25-4.6 0.15-0.05q7.05-2.25 13-5.6" fill="url(#g)" fill-rule="evenodd"/>
<path d="m1.45-7.9-0.2 0.85q-0.35 0.85 0.8 1.05h1.55q0.25 1 0 1.7-0.8 2.4 2.45 1.8l0.6-0.2-0.75 3.75q-6.9 0.4-13.3-1.6l0.05-1.4 0.05-2.75-1.25-1.4 0.15-0.3 3.7 1.9h2.15q1.65-0.2 1.55-2.75 0.7-0.9 2.45-0.65" fill="url(#f)" fill-rule="evenodd"/>
<path d="m2.05-6q-1.15-0.2-0.8-1.05l0.2-0.85q0.55-3.75-2-4.45l-0.8-0.05q0.7-1.4 2.7-0.3l1.1 1.75q0.3 2.55-0.4 4.95m10.05 17v-0.05 0.05m-1.6 23.35-0.1-0.05 0.1-0.05v0.1" fill="#d8c117" fill-rule="evenodd"/>
<path d="m8.95-7.4 2.15 1q5.45-1.6 10.15-4.25l0.8 2.45-0.15 0.7-0.15 0.75q-4.7 2.95-9.9 3.55l-0.7-0.95-4.5 1.45-0.6 0.2q-3.25 0.6-2.45-1.8 0.25-0.7 0-1.7l0.9-0.1 4.45-1.3m-7.5-0.5q-1.75-0.25-2.45 0.65 0.1 2.55-1.55 2.75h-2.15l-3.7-1.9 0.55-1.1 3.25 0.7q1.6-0.05 1.4-3-0.2-2.55 1.85-2.6l0.8 0.05q2.55 0.7 2 4.45m22.75 23.65 0.15 0.95q-1.25 0.05-1.9 2.65-1.45 0.95-3.25 1.15 0.6-3.6 5-4.75m-43.45-1.15 1.25-0.45q9.4-0.35 19.05 2.75 5.05 2.6 7.65 5.5l1.4 4 0.65 3.9-0.85 0.7q-0.75-8.95-6.25-11.3l-4.55-2.3q-4.6-1.8-10.15-2.1l-8.2-0.7" fill="#121c3f" fill-rule="evenodd"/>
<path d="m5.9 1.05 0.75-3.75 4.5-1.45 0.7 0.95q5.2-0.6 9.9-3.55l0.15-0.75q1.75 5.4 1.7 10.85-1.8 0.85-4.35-0.4-2.6-3.4-6.4-2.9l-6.95 1" fill="url(#y)" fill-rule="evenodd"/>
<path d="m21.9-7.5 0.15-0.7-0.8-2.45 0.6-0.35q1.6 4.75 2.2 9.5l0.15 1.6 0.15 2.75-0.75 0.5q0.05-5.45-1.7-10.85" fill="#34449f" fill-rule="evenodd"/>
<path d="m-7.35-1.95-0.05 1.4q6.4 2 13.3 1.6l6.95-1q3.8-0.5 6.4 2.9 2.55 1.25 4.35 0.4l0.75-0.5 0.8-0.95q0.25-1.45-0.95-1.8l-0.15-1.6 2.75 1.8 0.6 0.95q-1.1 2.2-4.35 3.3-1.35 0.35-4.3-0.6-2.3-2.75-4.75-2.65l-3.25 0.7-16-0.5q-2.55-0.5-3.55-1.6 0.65-2.05 1.45-1.85" fill="url(#x)" fill-rule="evenodd"/>
<path d="m27.4 1.25-0.05 1.15-0.55 1.6-0.85 0.9q-0.85 3.55-0.4 6.85l0.25 1.3q-3.75 0.5-6 2.25 3.15-1.35 6-1.35 0.7 0 1.05-0.55 0.1 1.65-1.5 2.1l-1.15 0.25q-4.4 1.15-5 4.75l-0.1 1.45 0.25 1.2q0.15 1.7-1.2 2.25-2 1.35-3.5 3.9l-1.85 3.15v1.15q-0.05 1.15-1 1.8-2.4 0.75-2.85-0.35l0.7-0.4 0.75-0.35 0.1 0.05q0.85 0.3 1.45-0.95-0.05-3.2-0.55-5.15l-1.3-1.85-1.4-4q-2.6-2.9-7.65-5.5-9.65-3.1-19.05-2.75l-1.25 0.45-0.35 0.15-0.1-0.45 1.1-1.05q8.4-0.95 17.1 1.3 6.15 1.25 11.45 6.15 3.9 2.3 1.7-0.7-1.75-2.25-4.4-3.95l-0.5-0.25q2.2-0.65 3.85-2.35l0.15-0.2 1.35 1.7-1.65 1.5q3.85 2.45 5.4 6.25 1.65-4.85 0-11.05l-1.8 1.5-1.95-2.15v-0.05q2.15-5.5-1.55-6.35-5.7 0.8-11.05-0.15-4.55 0-7.55-1.15l0.3-0.8-1.05-2.6q1 1.1 3.55 1.6l16 0.5 3.25-0.7q2.45-0.1 4.75 2.65 2.95 0.95 4.3 0.6 3.25-1.1 4.35-3.3m-4.75 5q1.85-0.05 3.3-1.35-1.45 1.3-3.3 1.35m-9.85 26.2q0.1-3.15 1.25-5.65-1.15 2.5-1.25 5.65m-4.1-10.05q1.8 2 2.3 3.85-0.5-1.85-2.3-3.85m2.35-18.8q-11.85 1.1-18.8-1.1 6.95 2.2 18.8 1.1" fill="url(#w)" fill-rule="evenodd"/>
<path d="m24.2 0.1q1.2 0.35 0.95 1.8l-0.8 0.95-0.15-2.75" fill="#794800" fill-rule="evenodd"/>
<path d="m25.55 11.75 1.05 0.55 0.25 1.1q-0.35 0.55-1.05 0.55-2.85 0-6 1.35 2.25-1.75 6-2.25l-0.25-1.3m-14.8 18.55-0.65-3.9 1.3 1.85q0.5 1.95 0.55 5.15-0.6 1.25-1.45 0.95v-0.1l0.25-3.95" fill="#bc9c07" fill-rule="evenodd"/>
<path d="m24.35 16.7 0.05 0.65-1.95 2q0.65-2.6 1.9-2.65" fill="#3445a1" fill-rule="evenodd"/>
<path d="m24.4 17.35q0.05 1.85-0.45 3.45l-2.05 1.3 0.55-2.75 1.95-2m-15.45 17.7-5.9 2.45q-22.7 2.9-29.85-5.9l0.2-2.95q5.85 7.4 27.6 6.35 5.35-1.2 8.9-4l-0.25 3.65-0.7 0.4" fill="#b17212" fill-rule="evenodd"/>
<path d="m21.9 22.1-2.55 1.05-0.25-1.2 0.1-1.45q1.8-0.2 3.25-1.15l-0.55 2.75" fill="url(#v)" fill-rule="evenodd"/>
<path d="m-10.45 7.1 1.85-2.35 0.55-1.45q3 1.15 7.55 1.15 5.35 0.95 11.05 0.15 3.7 0.85 1.55 6.35-3.75-3.1-11.5-4.05 0.05-0.55-0.25-1-0.5-0.8-1.65-0.8t-2.3 0.8l-0.75 0.6q-4.55-1.1-6.1 0.6" fill="url(#u)" fill-rule="evenodd"/>
<path d="m12.1 10.95v0.05l1.95 2.15 1.8-1.5q1.65 6.2 0 11.05-1.55-3.8-5.4-6.25l1.65-1.5-1.35-1.7 1.35-2.3" fill-rule="evenodd"/>
<path d="m-12.7 9.55 2.25-2.45q1.55-1.7 6.1-0.6l0.75-0.6q1.15-0.8 2.3-0.8t1.65 0.8q0.3 0.45 0.25 1 7.75 0.95 11.5 4.05l-1.35 2.3q-3.2-3.05-11.1-4.35l-0.85 0.7q-1.15 0.8-2.3 0.8t-1.65-0.8q-0.3-0.4-0.25-1.15-4.25-1.1-7.3 1.1" fill="#2d2d2d" fill-rule="evenodd"/>
<path d="m-19.7 14.3q-0.1-0.8 0.8-2.05 1.1-0.55 2.9-0.6h1.15q12.7-0.25 21.6 4.15l0.5 0.25q2.65 1.7 4.4 3.95 2.2 3-1.7 0.7-5.3-4.9-11.45-6.15-8.7-2.25-17.1-1.3l-1.1 1.05" fill="url(#t)" fill-rule="evenodd"/>
<path d="m3.65 19.7q5.5 2.35 6.25 11.3-3.55 2.8-8.9 4-21.75 1.05-27.6-6.35 0.4-9.9 3.75-11.5 25.35 5.95 22.05 1.8l2 0.8 2.45-0.05" fill="url(#s)" fill-rule="evenodd"/>
<path d="m-21.2 15.3 1.6-0.55 0.35-0.15 8.2 0.7q5.55 0.3 10.15 2.1l4.55 2.3-2.45 0.05-2-0.8q-8.9-3.35-20.4-3.65" fill="url(#r)" fill-rule="evenodd"/>
<path d="m-14.85 11.65 2.15-2.1q3.05-2.2 7.3-1.1-0.05 0.75 0.25 1.15 0.5 0.8 1.65 0.8t2.3-0.8l0.85-0.7q7.9 1.3 11.1 4.35l-0.15 0.2q-1.65 1.7-3.85 2.35-8.9-4.4-21.6-4.15" fill="url(#q)" fill-rule="evenodd"/>
<path d="m9.9 31 0.85-0.7-0.25 3.95-0.1 0.05-0.75 0.35 0.25-3.65" fill="url(#p)" fill-rule="evenodd"/>
<path d="m-27.45 27.3v-1.75q0.6-8.6 3.3-10l2.95-0.25q11.5 0.3 20.4 3.65 3.3 4.15-22.05-1.8-3.35 1.6-3.75 11.5l-0.85-1.35" fill="url(#n)" fill-rule="evenodd"/>
<path d="m-26.8 31.6-0.65-0.85v-3.45l0.85 1.35-0.2 2.95" fill="url(#m)" fill-rule="evenodd"/>
<path d="m3.45-30.25-0.05 1.3 0.8-0.2q0.7-0.3 2 1.2v1.85l1.2 0.75m-3.95-4.9q6.6-1.2 11.45-3.8l1.45 0.55q0.8-0.95 1-1.55 0.2-0.85-0.75-1.15m-27.1 6.3-0.1 0.2q-0.3 0.6-0.2 1.15-0.2 3 14.2-0.4m21.45 10.2-2-3.4q-2-2.55-2.6-6.25 0.75-9.55-2.75-9.65-5.6-0.7-13.45 1.6-5.65 1.65-11.7 2-4.3 2-4.95 5.25-1.15 4.15 1.4 8.15 2.55 4.05 0.95 9.05-1 1.85-0.35 2.9m26.95-24.4 1.45 0.5-0.05 1.25-0.1 1.8-0.8 0.35 0.35 1.55q0.65 3.75-1.3 5.3l0.6 2.3q3.25 0.75 5.15 3.8h1.35l0.6 3.45 1.85-2.5q0.15-1.3-0.6-3.05m-8-10.85-9.45 4.25m4.5 4.2 0.6 2.3 4-1.6m-0.6-2.3-4 1.6q-2.95 0.95-4.85-2.9l-0.85-2.05m2.7 14.65 1.1 3.7-1.05 0.35 2.15 1m10.55-10.25q-5.25 2.6-11.65 4.85l-1.1 0.35q0.05-4.15 3.6-7.4m-10.45 12.85q-1.15-0.2-0.8-1.05l0.2-0.85m-9.85 1.5-0.15 0.3 1.25 1.4-0.05 2.75-0.05 1.4q6.4 2 13.3 1.6l6.95-1q3.8-0.5 6.4 2.9 2.55 1.25 4.35 0.4l0.75-0.5 0.8-0.95m-21.55-7.9h-1.55m-3.4-6.4 0.8 0.05q2.55 0.7 2 4.45m7.5 0.5-4.45 1.3-0.9 0.1m17.65-4.65q-4.7 2.65-10.15 4.25m12.5-6.8 0.15 1-1.9 1.2q1.6 4.75 2.2 9.5l2.75 1.8 0.6 0.95-0.05 1.15-0.55 1.6-0.85 0.9q-0.85 3.55-0.4 6.85l1.05 0.55 0.25 1.1q0.1 1.65-1.5 2.1l-1.15 0.25 0.15 0.95 0.05 0.65q0.05 1.85-0.45 3.45l-2.05 1.3-2.55 1.05q0.15 1.7-1.2 2.25-2 1.35-3.5 3.9l-1.85 3.15v1.15q-0.05 1.15-1 1.8-2.4 0.75-2.85-0.35l-5.9 2.45q-22.7 2.9-29.85-5.9l-0.65-0.85v-5.2q0.6-8.6 3.3-10l2.95-0.25 1.6-0.55-0.1-0.45q-0.1-0.8 0.8-2.05 1.1-0.55 2.9-0.6h1.15l2.15-2.1 2.25-2.45 1.85-2.35 0.55-1.45 0.3-0.8-1.05-2.6q0.65-2.05 1.45-1.85m29.2-9.05-0.6 0.35m2.95 10.75 0.15 2.75m1.6 2.05q-1.45 1.3-3.3 1.35m-0.2 13.1 1.95-2m-4.6-2.05q2.25-1.75 6-2.25l-0.25-1.3m-13.45-0.8v0.05m-11.5-4.1q7.75 0.95 11.5 4.05m-1.35 2.3 1.35 1.7-1.65 1.5q3.85 2.45 5.4 6.25 1.65-4.85 0-11.05l-1.8 1.5-1.95-2.15m-2 15.4-1.4-4q-2.6-2.9-7.65-5.5-9.65-3.1-19.05-2.75l-1.25 0.45-0.35 0.15m29.5 16.25 0.85-0.7-0.65-3.9m0.3 7.9-0.75 0.35-0.7 0.4m-35.55-6.4q5.85 7.4 27.6 6.35 5.35-1.2 8.9-4m-3.15-15.2q-8.9-4.4-21.6-4.15m34.05 8.85-0.1 1.45 0.25 1.2m-8.85 11.1-0.1 0.05m3.65-7.5q-1.15 2.5-1.25 5.65m-2.05-2.15-0.25 3.95m0.5-8q-0.5-1.85-2.3-3.85m15.5-6.65q-4.4 1.15-5 4.75 1.8-0.2 3.25-1.15m1.75-19.25-0.15-1.6m-34.55-28.4 2.5-2.65m0.15 25.05q-1.25-0.45-2.4-1.15l-0.35-0.45m9.25-3.3q-2.05 0.05-1.85 2.6 0.2 2.95-1.4 3l-3.25-0.7-0.55 1.1m3 14.85q-4.25-1.1-7.3 1.1m8.35-3.05q-4.55-1.1-6.1 0.6m-17 20.2 0.85 1.35m5.4-13.35q11.5 0.3 20.4 3.65m0.45-10.05q7.9 1.3 11.1 4.35m-18.5-10.75q6.95 2.2 18.8 1.1" fill="none" stroke="#000" stroke-linecap="round" stroke-linejoin="round" stroke-opacity=".38824" stroke-width=".5"/>
<path d="m-4.35 6.5 0.75-0.6q1.15-0.8 2.3-0.8t1.65 0.8q0.3 0.45 0.25 1m-0.95 2-0.85 0.7q-1.15 0.8-2.3 0.8t-1.65-0.8q-0.3-0.4-0.25-1.15" fill="none" stroke="#000" stroke-linecap="round" stroke-linejoin="round" stroke-opacity=".38824" stroke-width=".5"/>
</g>
<linearGradient id="aa" x1="-819.2" x2="819.2" gradientTransform="matrix(.0048 -.0013 5e-4 .0018 11.7 -31.55)" gradientUnits="userSpaceOnUse">
<stop stop-color="#e4e40d" offset="0"/>
<stop stop-color="#e5e5e5" offset="1"/>
</linearGradient>
<linearGradient id="z" x1="-819.2" x2="819.2" gradientTransform="matrix(.0043 -.0043 .0071 .0071 2.05 -30.9)" gradientUnits="userSpaceOnUse">
<stop stop-color="#432900" offset="0"/>
<stop stop-color="#885100" offset="1"/>
</linearGradient>
<linearGradient id="o" x1="-819.2" x2="819.2" gradientTransform="matrix(-.0112 -.003 .0055 -.0208 4.75 -23.2)" gradientUnits="userSpaceOnUse">
<stop stop-color="#ba9906" offset="0"/>
<stop stop-color="#e5d11e" offset="1"/>
</linearGradient>
<linearGradient id="l" x1="-819.2" x2="819.2" gradientTransform="matrix(-.0154 .0041 -.0038 -.0142 7.35 -19.3)" gradientUnits="userSpaceOnUse">
<stop stop-color="#794800" offset="0"/>
<stop stop-color="#e59623" offset="1"/>
</linearGradient>
<linearGradient id="k" x1="-819.2" x2="819.2" gradientTransform="matrix(.0057 -.0033 .0013 .0023 14.1 -30.4)" gradientUnits="userSpaceOnUse">
<stop stop-color="#e4b700" offset="0"/>
<stop stop-color="#e5e5e5" offset="1"/>
</linearGradient>
<linearGradient id="j" x1="-819.2" x2="819.2" gradientTransform="matrix(.0054 -.0031 .0017 .0029 14.4 -25.05)" gradientUnits="userSpaceOnUse">
<stop stop-color="#b7b700" offset="0"/>
<stop stop-color="#d0d07f" offset="1"/>
</linearGradient>
<linearGradient id="i" x1="-819.2" x2="819.2" gradientTransform="matrix(.005 -.0029 .002 .0034 16.2 -17.25)" gradientUnits="userSpaceOnUse">
<stop stop-color="#b7b700" offset="0"/>
<stop stop-color="#d0d07f" offset="1"/>
</linearGradient>
<linearGradient id="h" x1="-819.2" x2="819.2" gradientTransform="matrix(.0054 -.0031 8e-4 .0013 16.45 -14.35)" gradientUnits="userSpaceOnUse">
<stop stop-color="#e4e40d" offset="0"/>
<stop stop-color="#e5e5e5" offset="1"/>
</linearGradient>
<linearGradient id="g" x1="-819.2" x2="819.2" gradientTransform="matrix(.0072 -.0041 .0018 .0032 19.25 -12.95)" gradientUnits="userSpaceOnUse">
<stop stop-color="#e4b700" offset="0"/>
<stop stop-color="#e5e5e5" offset="1"/>
</linearGradient>
<linearGradient id="f" x1="-819.2" x2="819.2" gradientTransform="matrix(-.0054 -.0031 .0033 -.0057 -.25 -2.65)" gradientUnits="userSpaceOnUse">
<stop stop-color="#6773c1" offset="0"/>
<stop stop-color="#939ccc" offset="1"/>
</linearGradient>
<linearGradient id="y" x1="-819.2" x2="819.2" gradientTransform="matrix(.0086 0 0 .009 16.7 -3.65)" gradientUnits="userSpaceOnUse">
<stop stop-color="#34449f" offset="0"/>
<stop stop-color="#27377a" offset="1"/>
</linearGradient>
<linearGradient id="x" x1="-819.2" x2="819.2" gradientTransform="matrix(-.0121 -.0032 .0016 -.0062 14 1.25)" gradientUnits="userSpaceOnUse">
<stop stop-color="#ba9906" offset="0"/>
<stop stop-color="#e5d11e" offset="1"/>
</linearGradient>
<linearGradient id="w" x1="-819.2" x2="819.2" gradientTransform="matrix(-.0134 -.0064 .0102 -.0213 8.35 13.55)" gradientUnits="userSpaceOnUse">
<stop stop-color="#794800" offset="0"/>
<stop stop-color="#e59623" offset="1"/>
</linearGradient>
<linearGradient id="v" x1="-819.2" x2="819.2" gradientTransform="matrix(.0021 -.0021 .0013 .0013 20.7 21.15)" gradientUnits="userSpaceOnUse">
<stop stop-color="#432900" offset="0"/>
<stop stop-color="#885100" offset="1"/>
</linearGradient>
<linearGradient id="u" x1="-819.2" x2="819.2" gradientTransform="matrix(-.0064 -.0037 .0039 -.0068 4.15 8.1)" gradientUnits="userSpaceOnUse">
<stop stop-color="#ba9906" offset="0"/>
<stop stop-color="#e5d11e" offset="1"/>
</linearGradient>
<linearGradient id="t" x1="-819.2" x2="819.2" gradientTransform="matrix(-.0082 -.0068 .0062 -.0075 -1 19.45)" gradientUnits="userSpaceOnUse">
<stop stop-color="#ba9906" offset="0"/>
<stop stop-color="#e5d11e" offset="1"/>
</linearGradient>
<linearGradient id="s" x1="-819.2" x2="819.2" gradientTransform="matrix(.0104 .0028 -.003 .0112 -12.5 25.2)" gradientUnits="userSpaceOnUse">
<stop stop-color="#34449f" offset="0"/>
<stop stop-color="#27377a" offset="1"/>
</linearGradient>
<linearGradient id="r" x1="-819.2" x2="819.2" gradientTransform="matrix(-.0076 -.002 5e-4 -.002 -4.9 17.95)" gradientUnits="userSpaceOnUse">
<stop stop-color="#6773c1" offset="0"/>
<stop stop-color="#939ccc" offset="1"/>
</linearGradient>
<linearGradient id="q" x1="-819.2" x2="819.2" gradientTransform="matrix(-.0088 -.0023 .001 -.0039 .8 12.45)" gradientUnits="userSpaceOnUse">
<stop stop-color="#ba9906" offset="0"/>
<stop stop-color="#e5d11e" offset="1"/>
</linearGradient>
<linearGradient id="p" x1="-819.2" x2="819.2" gradientTransform="matrix(.0017 -.0017 .0012 .0012 10.25 32.5)" gradientUnits="userSpaceOnUse">
<stop stop-color="#432900" offset="0"/>
<stop stop-color="#885100" offset="1"/>
</linearGradient>
<linearGradient id="n" x1="-819.2" x2="819.2" gradientTransform="matrix(-.0076 -.002 .0026 -.0096 -11.35 24.35)" gradientUnits="userSpaceOnUse">
<stop stop-color="#6773c1" offset="0"/>
<stop stop-color="#939ccc" offset="1"/>
</linearGradient>
<linearGradient id="m" x1="-819.2" x2="819.2" gradientTransform="matrix(-3e-4 -.001 8e-4 -2e-4 -27.2 29.05)" gradientUnits="userSpaceOnUse">
<stop stop-color="#ba9906" offset="0"/>
<stop stop-color="#e5d11e" offset="1"/>
</linearGradient>
<g id="b" transform="translate(10,13.55)">
<use transform="translate(-10,-13.55)" width="20.049999" height="27.1" xlink:href="#d"/>
</g>
<g id="d" transform="translate(10,13.55)">
<path d="m-5.8-5.65-0.45-3.35-3.5-1.55m7.65 23.85-1.25-4.6-0.95-0.45m0.95 0.45 0.15-0.05q7.05-2.25 13-5.6m-5.2-16.35q-4.85 2.75-10.85 4.3" fill="none" stroke="#e5e5e5" stroke-linecap="round" stroke-linejoin="round" stroke-width=".5"/>
</g>
<g id="c" transform="translate(27.95,38.7)">
<path d="m4.05-36.45q-5.65 1.65-11.7 2-4.3 2-4.95 5.25-1.15 4.15 1.4 8.15 2.55 4.05 0.95 9.05-1 1.85-0.35 2.9l0.35 0.45q1.15 0.7 2.4 1.15l-0.7 1.4 1.25 1.4-0.05 2.75q-0.8-0.2-1.45 1.85l1.05 2.6-0.85 2.25-1.85 2.35-2.25 2.45-2.15 2.1h-1.15q-1.8 0.05-2.9 0.6-0.9 1.25-0.8 2.05l0.1 0.45-1.6 0.55-2.95 0.25q-2.7 1.4-3.3 10v5.2l0.65 0.85q7.15 8.8 29.85 5.9l5.9-2.45q0.45 1.1 2.85 0.35 0.95-0.65 1-1.8v-1.15l1.85-3.15q1.5-2.55 3.5-3.9 1.35-0.55 1.2-2.25l2.55-1.05 2.05-1.3q0.5-1.6 0.45-3.45l-0.05-0.65-0.15-0.95 1.15-0.25q1.6-0.45 1.5-2.1l-0.25-1.1-1.05-0.55q-0.45-3.3 0.4-6.85l0.85-0.9 0.55-1.6 0.05-1.15-0.6-0.95-2.75-1.8q-0.6-4.75-2.2-9.5l1.9-1.2-0.15-1 1.85-2.5q0.15-1.3-0.6-3.05l-2-3.4q-2-2.55-2.6-6.25 0.75-9.55-2.75-9.65-5.6-0.7-13.45 1.6z" fill="none" stroke="#000" stroke-linecap="round" stroke-linejoin="round" stroke-opacity=".4"/>
</g>
</defs>
</svg>
