<svg width="241" height="191" xmlns="http://www.w3.org/2000/svg">

 <g>
  <title>Layer 1</title>
  <g id="svg_1" transform="matrix(11.0817 0 0 11.0817 185.827 144.271)">
   <path id="svg_2" fill-rule="evenodd" fill="#90928c" d="m4.68119,-3.61885l-0.5,2.6l-1,-1.2l-0.1,-4.65q0.15,2.2 0.7,3.85l0.9,-0.6"/>
   <path id="svg_3" fill-rule="evenodd" fill="#666864" d="m4.68119,-3.61885l-0.9,0.6q-0.55,-1.65 -0.7,-3.85l0,-1.3l0.8,4.8q0.4,0 0.85,-0.5l-0.05,0.25"/>
   <path id="svg_4" stroke-width="0.05" stroke-opacity="0.4" stroke-linejoin="round" stroke-linecap="round" stroke="#000000" fill="none" d="m3.08119,-6.86885l0.1,4.65l1,1.2l0.5,-2.6l0.05,-0.25q-0.45,0.5 -0.85,0.5l-0.8,-4.8l0,1.3z"/>
   <path id="svg_5" fill-rule="evenodd" fill="#2c2f28" d="m4.78119,-3.91885l0.15,1.15q0.05,0.8 -0.3,2.05l-0.8,2.6l-0.45,0.5l1.4,-6.3"/>
   <path id="svg_6" fill-rule="evenodd" fill="#656d60" d="m3.38119,2.38115q0.05,-4.8 1.4,-6.3l-1.4,6.3"/>
   <path id="svg_7" stroke-width="0.05" stroke-opacity="0.4" stroke-linejoin="round" stroke-linecap="round" stroke="#000000" fill="none" d="m4.78119,-3.91885l0.15,1.15q0.05,0.8 -0.3,2.05l-0.8,2.6l-0.45,0.5q0.05,-4.8 1.4,-6.3z"/>
   <path id="svg_8" fill-rule="evenodd" fill="#90928c" d="m0.68119,-5.76885l0.4,0.15q0.65,-0.75 0.8,-2.25l0,0.4l0,0.35l-0.1,0.9l-0.55,1l-0.45,-0.2l-0.1,-0.35m-5.75,1.25l-0.9,-0.5l3.95,0.25l0.15,-0.5l0.2,0.4q0.2,-0.8 0.15,-1.75l0,-0.05l0,-0.15l0.05,0.15l0,0.05l1.4,4.55l-1.6,-2.8l-0.1,0.45l-3.3,-0.1m5.05,-1.45l0.2,0.2l0.6,0.35l0.65,2.95l-1.15,-2.9l-0.25,-0.4l-0.05,-0.2"/>
   <path id="svg_9" fill-rule="evenodd" fill="#666864" d="m-1.86881,-5.26885q0.2,-1 0.1,-2.2l0.15,0.3l0.1,0.35l0,0.15l0,0.05q0.05,0.95 -0.15,1.75l-0.2,-0.4m1.15,-1.6l1.4,1.1l0.1,0.35l-0.6,-0.35l-0.2,-0.2l-0.7,-0.9"/>
   <path id="svg_10" fill-rule="evenodd" fill="#656d60" d="m-1.76881,-7.46885l-0.3,-0.55l0.95,0.7l0.4,0.45l0.7,0.9l0.05,0.2l0.25,0.4q0.5,1.4 0.25,2.2l-2,-3.5l-0.05,-0.15l-0.1,-0.35l-0.15,-0.3"/>
   <path id="svg_11" fill-rule="evenodd" fill="#cfd2c9" d="m1.78119,-6.21885l-0.35,3.75l-0.65,-2.95l0.45,0.2l0.55,-1m-1.85,4.15l-5,-2.45l3.3,0.1l0.1,-0.45l1.6,2.8"/>
   <path id="svg_12" fill-rule="evenodd" fill="#2c2f28" d="m1.43119,-2.46885l-1.5,0.4l-1.4,-4.55l0,-0.05l2,3.5q0.25,-0.8 -0.25,-2.2l1.15,2.9"/>
   <path id="svg_13" stroke-width="0.05" stroke-opacity="0.4" stroke-linejoin="round" stroke-linecap="round" stroke="#000000" fill="none" d="m0.68119,-5.76885l0.4,0.15q0.65,-0.75 0.8,-2.25l0,0.4m0,0.35l-0.1,0.9l-0.35,3.75l-1.5,0.4l-5,-2.45l-0.9,-0.5l3.95,0.25l0.15,-0.5q0.2,-1 0.1,-2.2l-0.3,-0.55l0.95,0.7l0.4,0.45l1.4,1.1m0.75,3.3l-1.15,-2.9l-0.25,-0.4l-0.05,-0.2l-0.7,-0.9m-0.75,0.2l0,0.05l1.4,4.55m-1.7,-5.4l0.15,0.3l0.1,0.35l0.05,0.15"/>
   <path id="svg_14" fill-rule="evenodd" fill="#666864" d="m-10.31881,-2.31885q-1.7,-1.7 -6.05,-3.45l3,1.05q2.2,1.1 3.55,2.6l-0.5,-0.2m-1.05,3.4l-0.4,-0.15q0.8,-0.3 1.45,-0.75l0.4,-0.4l0.25,0.2l-0.05,0.05l-0.2,0.2q-0.75,0.65 -1.45,0.85"/>
   <path id="svg_15" fill-rule="evenodd" fill="#929590" d="m-10.31881,-2.31885l0.5,0.2l0.85,1.1l-0.7,1l-0.25,-0.2l0.55,-0.75l-0.95,-1.35"/>
   <path id="svg_16" fill-rule="evenodd" fill="#cfd2c9" d="m-4.11881,-1.46885l0.05,0l0,0.05l0.65,0.2q-2.15,0.35 -3.45,1.25q-0.15,1.25 0.9,2.75q-1.4,-1.65 -3.7,-2.8l0.7,-1l-0.85,-1.1l5.7,0.65l0.05,0.05l-0.05,-0.05"/>
   <path id="svg_17" fill-rule="evenodd" fill="#90928c" d="m-9.81881,-2.11885q-1.35,-1.5 -3.55,-2.6l9.25,3.25l-5.7,-0.65m6.4,0.9l0.2,0.1l-2.65,1.6q-0.35,1.4 1.3,2.95l-6.8,-2.35q0.7,-0.2 1.45,-0.85l0.2,-0.2l0.05,-0.05q2.3,1.15 3.7,2.8q-1.05,-1.5 -0.9,-2.75q1.3,-0.9 3.45,-1.25"/>
   <path id="svg_18" stroke-width="0.05" stroke-opacity="0.4" stroke-linejoin="round" stroke-linecap="round" stroke="#000000" fill="none" d="m-13.36881,-4.71885l-3,-1.05q4.35,1.75 6.05,3.45l0.95,1.35l-0.55,0.75l-0.4,0.4q-0.65,0.45 -1.45,0.75l0.4,0.15l6.8,2.35q-1.65,-1.55 -1.3,-2.95l2.65,-1.6l-0.2,-0.1l-0.65,-0.2l-0.05,-0.05l-9.25,-3.25z"/>
   <path id="svg_19" fill-rule="evenodd" fill="#929590" d="m-4.21881,-0.61885l0.85,0.05q1.65,0.05 3.5,-0.95l1.55,-0.95l0.6,-0.3l1.1,-0.45q0.3,-0.1 0.4,0.75l0,1.85l-0.4,1.65q-0.25,0.5 -1.15,0.8l-2.9,0.65q-2.2,0.4 -4.85,-1.5l-0.35,-0.25q0.45,-0.3 2.25,0.75q1.7,1.05 3.25,0.35q-1.8,-0.1 -3.85,-2.45"/>
   <path id="svg_20" fill-rule="evenodd" fill="#d1d6cf" d="m-5.86881,0.73115q-0.7,-0.65 -0.15,-1q0.5,-0.35 1.8,-0.35q2.05,2.35 3.85,2.45q-1.55,0.7 -3.25,-0.35q-1.8,-1.05 -2.25,-0.75m1.95,-0.3q0.05,-0.15 -0.15,-0.35l-0.5,-0.25l-0.65,-0.05l-0.35,0.2l0.1,0.4l0.6,0.25l0.65,0.05l0.3,-0.25"/>
   <path id="svg_21" fill-rule="evenodd" fill="#fefefe" d="m-3.91881,0.43115l-0.3,0.25l-0.65,-0.05l-0.6,-0.25l-0.1,-0.4l0.35,-0.2l0.65,0.05l0.5,0.25q0.2,0.2 0.15,0.35"/>
   <path id="svg_22" stroke-width="0.05" stroke-opacity="0.4" stroke-linejoin="round" stroke-linecap="round" stroke="#000000" fill="none" d="m-4.21881,-0.61885l0.85,0.05q1.65,0.05 3.5,-0.95l1.55,-0.95l0.6,-0.3l1.1,-0.45q0.3,-0.1 0.4,0.75l0,1.85l-0.4,1.65q-0.25,0.5 -1.15,0.8l-2.9,0.65q-2.2,0.4 -4.85,-1.5l-0.35,-0.25q-0.7,-0.65 -0.15,-1q0.5,-0.35 1.8,-0.35z"/>
   <path id="svg_23" fill-rule="evenodd" fill="#f7e674" d="m1.93119,-10.66885l0.45,3.55q-0.05,2.3 -0.45,4.7q-0.35,2.4 -1.65,2.55l-1.45,0.05l-0.25,-0.05l-0.9,-1.25l-1,-1.05l-2.6,-1.95l-0.3,-0.1q-3.15,-1.5 -6.5,-1.05l-2.7,-0.75l6.85,0.4q4.85,0.8 8.75,3.1l0.2,0.05q0.45,-0.05 0.8,-0.6q0.6,-2.75 0.75,-5.45l0,-2.15m-3.55,9.8l0.5,0.7l0.35,-0.3q-0.35,-2.2 -2.35,-2.45q1,0.95 1.5,2.05m-1.65,-2.45l0.15,-0.15q-0.25,-0.4 -0.7,-0.6l-1.6,-0.25q1.45,1.3 2.15,1"/>
   <path id="svg_24" fill-rule="evenodd" fill="#e0ab47" d="m-1.41881,0.13115l0.25,0.05l1.45,-0.05q1.3,-0.15 1.65,-2.55q0.4,-2.4 0.45,-4.7l-0.45,-3.55l-0.35,-2.35l0.75,1.85l0.6,7.25l0.3,2.9l-0.2,1.25q-0.2,0.7 -0.7,1l-1.15,0.25l-2,-0.2l-0.15,-0.1l-0.45,-1.05m-14,-6.15l2.7,0.75l-0.9,0.5l-3.15,-1.05l1.35,-0.2"/>
   <path id="svg_25" fill-rule="evenodd" fill="#656d60" d="m-12.71881,-5.26885q3.35,-0.45 6.5,1.05q2.15,1.6 3.35,3.25q-0.9,-0.75 -5.35,-2.65q-4.5,-1.9 -4.5,-1.6l0,-0.05m15.65,1.35l-0.6,-7.25l0.3,0.85q0.55,3.5 0.3,6.4"/>
   <path id="svg_26" fill-rule="evenodd" fill="#2c2f28" d="m-6.21881,-4.21885l0.3,0.1l2.6,1.95l1,1.05l0.9,1.25l0.45,1.05q-5.55,-3.1 -11,-5.3l-1.65,-0.65l0.9,-0.5l0,0.05q0,-0.3 4.5,1.6q4.45,1.9 5.35,2.65q-1.2,-1.65 -3.35,-3.25m9.45,3.2l-0.3,-2.9q0.25,-2.9 -0.3,-6.4q1.35,4.5 0.6,9.3"/>
   <path id="svg_27" fill-rule="evenodd" fill="#fefefe" d="m-3.26881,-3.31885q-0.7,0.3 -2.15,-1l1.6,0.25q0.45,0.2 0.7,0.6l-0.15,0.15m1.65,2.45q-0.5,-1.1 -1.5,-2.05q2,0.25 2.35,2.45l-0.35,0.3l-0.5,-0.7"/>
   <path id="svg_28" stroke-width="0.05" stroke-opacity="0.4" stroke-linejoin="round" stroke-linecap="round" stroke="#000000" fill="none" d="m1.93119,-10.66885l0,2.15q-0.15,2.7 -0.75,5.45q-0.35,0.55 -0.8,0.6l-0.2,-0.05q-3.9,-2.3 -8.75,-3.1l-6.85,-0.4l-1.35,0.2l3.15,1.05l1.65,0.65q5.45,2.2 11,5.3l0.15,0.1l2,0.2l1.15,-0.25q0.5,-0.3 0.7,-1l0.2,-1.25q0.75,-4.8 -0.6,-9.3l-0.3,-0.85l-0.75,-1.85l0.35,2.35m-14.65,5.4q3.35,-0.45 6.5,1.05l0.3,0.1l2.6,1.95l1,1.05l0.9,1.25l0.45,1.05m-11.75,-6.45l-0.9,0.5"/>
   <path id="svg_29" stroke-width="0.05" stroke-opacity="0.4" stroke-miterlimit="3" stroke-linejoin="miter-clip" stroke="#4a3c00" fill="none" d="m3.23119,-1.01885l-0.3,-2.9l-0.6,-7.25m0.6,7.25q0.25,-2.9 -0.3,-6.4"/>
   <path id="svg_30" fill-rule="evenodd" fill-opacity="0.30196" fill="#333333" d="m2.03119,1.23115l-0.95,0.15q-0.4,-0.05 -0.7,-0.4q-0.3,-0.3 -0.35,-0.95q-0.15,-0.65 0.15,-1.2l0.05,-0.15l0.2,-0.2l0.25,-0.2l-0.05,0.1l-0.1,0.25q-0.2,0.45 -0.15,1.1q0.05,0.7 0.5,1.15l0.5,0.3l0.35,0.1l0.3,-0.05"/>
   <path id="svg_31" fill-rule="evenodd" fill="#fefefe" d="m0.68119,-1.71885l0.2,-0.15l0.15,-0.15l0.45,-0.15q0.6,0 0.95,0.5l0.2,0.25l-1,-0.25l-0.05,-0.05q-0.85,0.1 -0.7,1.45q-0.35,-0.3 -0.35,-0.7l0,-0.4l0.1,-0.25l0.05,-0.1"/>
   <path id="svg_32" fill-rule="evenodd" fill="#959693" d="m1.38119,1.18115l-0.5,-0.3q-0.45,-0.45 -0.5,-1.15q-0.05,-0.65 0.15,-1.1l0,0.4q0,0.4 0.35,0.7l0.05,0.5q0,0.45 0.45,0.95"/>
   <path id="svg_33" fill-rule="evenodd" fill="#ad5756" d="m2.63119,-1.41885l0.25,0.55l-0.35,0.45l-0.1,0.1l-0.75,0.35q-0.5,0.05 -0.8,-0.3q-0.15,-1.35 0.7,-1.45l0.05,0.05l1,0.25"/>
   <path id="svg_34" fill-rule="evenodd" fill="#9b2828" d="m2.88119,-0.86885l-0.05,0.3q0.1,0.75 -0.2,1.25l-0.6,0.55l-0.3,0.05l-0.35,-0.1q-0.45,-0.5 -0.45,-0.95l-0.05,-0.5q0.3,0.35 0.8,0.3l0.75,-0.35l0.1,-0.1l0.35,-0.45"/>
   <path id="svg_35" stroke-width="0.05" stroke-opacity="0.4" stroke-linejoin="round" stroke-linecap="round" stroke="#000000" fill="none" d="m0.68119,-1.71885l0.2,-0.15l0.15,-0.15l0.45,-0.15q0.6,0 0.95,0.5l0.2,0.25l0.25,0.55l-0.05,0.3q0.1,0.75 -0.2,1.25l-0.6,0.55l-0.3,0.05l-0.35,-0.1l-0.5,-0.3q-0.45,-0.45 -0.5,-1.15q-0.05,-0.65 0.15,-1.1l0.1,-0.25l0.05,-0.1m1.95,0.3l-1,-0.25l-0.05,-0.05q-0.85,0.1 -0.7,1.45l0.05,0.5q0,0.45 0.45,0.95"/>
   <path id="svg_36" fill-rule="evenodd" fill="#ffffff" d="m1.63119,-1.66885l0.25,0.4l0,0.5l-0.3,0.3l-0.4,-0.05l-0.25,-0.4l0,-0.5l0.3,-0.25l0.4,0"/>
   <path id="svg_37" fill-rule="evenodd" fill="#656d60" d="m-3.81881,4.23115q-5.05,-2.9 -8.8,-3.55q4.9,-0.55 8.8,3.55"/>
   <path id="svg_38" fill-rule="evenodd" fill="#2c2f28" d="m-3.81881,4.23115l-1.05,0l-4.4,-1.55l-2.05,-0.65q-0.8,-0.3 -1.3,-1.35q3.75,0.65 8.8,3.55"/>
   <path id="svg_39" stroke-width="0.05" stroke-opacity="0.4" stroke-linejoin="round" stroke-linecap="round" stroke="#000000" fill="none" d="m-12.61881,0.68115q0.5,1.05 1.3,1.35l2.05,0.65l4.4,1.55l1.05,0q-3.9,-4.1 -8.8,-3.55z"/>
  </g>
 </g>
</svg>