<?xml version="1.0" encoding="UTF-8"?>
<svg version="1.1" viewBox="0 0 12.3 32.85" xmlns="http://www.w3.org/2000/svg" xmlns:cc="http://creativecommons.org/ns#" xmlns:dc="http://purl.org/dc/elements/1.1/" xmlns:rdf="http://www.w3.org/1999/02/22-rdf-syntax-ns#" xmlns:xlink="http://www.w3.org/1999/xlink">
<metadata>
<rdf:RDF>
<cc:Work rdf:about="">
<dc:format>image/svg+xml</dc:format>
<dc:type rdf:resource="http://purl.org/dc/dcmitype/StillImage"/>
</cc:Work>
</rdf:RDF>
</metadata>
<g transform="translate(-246.25,-180.85)">
<use transform="translate(246.25,180.85)" width="12.3" height="32.849998" xlink:href="#a"/>
</g>
<defs>
<g id="a" transform="translate(-4.35,14.25)">
<path d="m7.1 3.1 0.25 0.65-0.25 0.65-0.65 0.25q-0.4 0-0.65-0.25l-0.3-0.65q0-0.4 0.3-0.65 0.25-0.3 0.65-0.3l0.65 0.3" fill="#fe1f1f" fill-rule="evenodd"/>
<path d="m7.25 5.05 0.15 0.35-0.15 0.35-0.35 0.2-0.4-0.2-0.1-0.35 0.1-0.35 0.4-0.1 0.35 0.1" fill="#fe1f1f" fill-rule="evenodd"/>
<path d="m12.5 1.6q0.55 0.55 0.55 1.3 0 0.7-0.55 1.25-0.5 0.5-1.25 0.5t-1.25-0.5q-0.5-0.55-0.5-1.25 0-0.75 0.5-1.3 0.5-0.5 1.25-0.5t1.25 0.5" fill="#fe1f1f" fill-rule="evenodd"/>
<path d="m13.9 8.7 0.15 0.35-0.15 0.35-0.35 0.15-0.35-0.15-0.15-0.35q0-0.2 0.15-0.35 0.1-0.15 0.35-0.15 0.2 0 0.35 0.15" fill="#fe1f1f" fill-rule="evenodd"/>
<path d="m11.2-10.15-0.25 0.4-0.55 0.15-0.4-0.3-0.1-0.5 0.3-0.45 0.5-0.1 0.45 0.3 0.05 0.5" fill="#fe1f1f" fill-rule="evenodd"/>
<path d="m10.1-9.25-0.2 0.25-0.25 0.05q-0.2-0.05-0.25-0.15l-0.05-0.3 0.15-0.25 0.3-0.05 0.25 0.2 0.05 0.25" fill="#fe1f1f" fill-rule="evenodd"/>
<path d="m14.35-7.3-0.6 0.85-1 0.15-0.8-0.6q-0.3-0.45-0.2-0.95 0.15-0.55 0.6-0.85l1-0.15q0.5 0.05 0.8 0.5 0.3 0.5 0.2 1.05" fill="#fe1f1f" fill-rule="evenodd"/>
<path d="m10.45-3.65-0.15 0.25-0.3 0.05-0.25-0.15-0.05-0.3 0.2-0.2 0.25-0.1 0.25 0.2 0.05 0.25" fill="#fe1f1f" fill-rule="evenodd"/>
<path d="m13.1-14.25-0.3 0.45q-1.15 1.65 0.3 2.25 0.95 0.4 1.85 0.5l1.7-0.2-0.9 1.2q-0.55 0.8-1 2.8-0.45 1.95-0.5 5t0.35 4.8v0.4l0.35 5.65q-6.8 20-10.6 0l0.35-6.1q-0.05-5.55 2.75-11.8 1.3-2.3 2.65-3.2 1.2-1.1 2-1.25v-0.05l1-0.45" fill="url(#f)" fill-rule="evenodd"/>
<path d="m8.15-3.4h0.35l0.3 0.3v0.45l-0.3 0.25-0.45-0.05-0.2-0.25v-0.4l0.3-0.3" fill="#fe1f1f" fill-rule="evenodd"/>
<path d="m9.25-3h0.15l0.2 0.15v0.25l-0.2 0.15-0.25-0.05-0.1-0.1v-0.25l0.2-0.15" fill="#fe1f1f" fill-rule="evenodd"/>
<path d="m8.65-6.6q0.45-0.2 0.85 0l0.5 0.6-0.05 0.8-0.55 0.5-0.75-0.05-0.6-0.55 0.05-0.8 0.55-0.5" fill="#fe1f1f" fill-rule="evenodd"/>
<path d="m12.75-5.6 0.25-0.05 0.1 0.2v0.25l-0.15 0.1h-0.2l-0.15-0.15q-0.1-0.1-0.05-0.2l0.2-0.15" fill="#fe1f1f" fill-rule="evenodd"/>
<path d="m9.05 1.9q-0.6 0.65-1.5 0.65t-1.55-0.65q-0.6-0.6-0.6-1.5t0.6-1.55q0.65-0.6 1.55-0.6t1.5 0.6q0.65 0.65 0.65 1.55t-0.65 1.5z" fill="none" stroke="#f00" stroke-linecap="round" stroke-linejoin="round" stroke-opacity=".47059" stroke-width=".05"/>
<path d="m13.15-1.7q-0.4 0.4-0.95 0.4-0.6 0-1.05-0.4-0.35-0.4-0.35-1 0-0.55 0.35-1 0.45-0.4 1.05-0.4 0.55 0 0.95 0.4l0.45 1q0 0.6-0.45 1z" fill="none" stroke="#f00" stroke-linecap="round" stroke-linejoin="round" stroke-opacity=".47059" stroke-width=".05"/>
<path d="m8.9 8.45q-0.4 0.45-1 0.45t-1-0.45q-0.4-0.35-0.4-0.95t0.4-1.05q0.4-0.4 1-0.4t1 0.4q0.45 0.45 0.45 1.05z" fill="none" stroke="#f00" stroke-linecap="round" stroke-linejoin="round" stroke-opacity=".47059" stroke-width=".05"/>
<path d="m11.5 0.1q1.9 0.85 2.8 2.8t0.3 3.9q-0.6 2-2.3 2.8-1.75 0.8-3.65 0t-2.8-2.75-0.3-3.95q0.6-1.95 2.35-2.75 1.7-0.8 3.6-0.05" fill="url(#e)" fill-rule="evenodd"/>
<path d="m9.55 4.6q0.95 1.4 1.15 3.55 0.25 2.15-0.4 3.75-0.7 1.6-1.85 1.7-1.15 0.15-2.15-1.35-0.95-1.4-1.2-3.55-0.2-2.15 0.45-3.75 0.7-1.6 1.85-1.75 1.15-0.1 2.15 1.4" fill="url(#d)" fill-rule="evenodd"/>
<path d="m12.6 5.9q0.6 1.1 0.6 2.7-0.05 1.6-0.65 2.75-0.65 1.1-1.5 1.1t-1.45-1.1q-0.6-1.15-0.55-2.75 0-1.6 0.6-2.7 0.6-1.15 1.45-1.15t1.5 1.15" fill="url(#c)" fill-rule="evenodd"/>
<path d="m11.45 9.65-0.1 0.05-0.1-0.05-0.05-0.1 0.05-0.1 0.1-0.05 0.1 0.05 0.05 0.1-0.05 0.1m-1.5 1.3-0.1 0.15-0.15 0.1-0.2-0.1-0.05-0.15 0.05-0.2 0.2-0.05 0.15 0.05 0.1 0.2m-0.9-3.55q0.25 0 0.45 0.2l0.2 0.45-0.2 0.45q-0.2 0.2-0.45 0.2l-0.45-0.2-0.2-0.45 0.2-0.45 0.45-0.2m-2.5 1.85 0.55 0.2 0.25 0.6-0.25 0.55-0.55 0.25q-0.35 0-0.6-0.25l-0.2-0.55 0.2-0.6q0.25-0.2 0.6-0.2m1.85 1.45-0.05 0.1-0.1 0.05-0.1-0.05-0.05-0.1 0.05-0.1 0.1-0.05 0.1 0.05 0.05 0.1m0.65 1.95-0.35 0.15q-0.2 0-0.35-0.15l-0.15-0.35 0.15-0.35q0.15-0.15 0.35-0.15l0.35 0.15 0.15 0.35-0.15 0.35" fill="#f00" fill-rule="evenodd"/>
<path d="m11.8 8.95-0.05-0.1 0.05-0.1 0.1-0.05 0.1 0.05 0.05 0.1-0.05 0.1-0.1 0.05-0.1-0.05m-1.3-1.45-0.15-0.1-0.1-0.1 0.05-0.2 0.15-0.05 0.2 0.05 0.1 0.2-0.05 0.1-0.2 0.1m3.3-0.5-0.4 0.2-0.5-0.15-0.2-0.45 0.2-0.45 0.45-0.25 0.45 0.2 0.2 0.45-0.2 0.45m-1.7-2.9-0.2 0.55-0.55 0.25q-0.35 0.05-0.6-0.2l-0.25-0.55q0-0.35 0.25-0.6 0.2-0.2 0.55-0.25l0.6 0.2 0.2 0.6m-1.4 1.9-0.1-0.05-0.05-0.1 0.05-0.1 0.1-0.05 0.1 0.05 0.05 0.1-0.05 0.1-0.1 0.05m-1.95 0.7-0.15-0.35 0.15-0.35 0.35-0.2 0.35 0.15 0.15 0.35-0.15 0.35-0.35 0.15-0.35-0.1" fill="#f00" fill-rule="evenodd"/>
<path d="m8.45 7.05q0.45 0.85 0.7 2.8t0.1 3.9q-0.15 2-0.6 2.8t-1 0q-0.45-0.8-0.7-2.75t-0.1-3.95q0.15-1.95 0.6-2.75l1-0.05" fill="url(#b)" fill-rule="evenodd"/>
</g>
<linearGradient id="f" x1="-819.2" x2="819.2" gradientTransform="matrix(-7e-4 .0129 -.0116 -7e-4 9.8 3.75)" gradientUnits="userSpaceOnUse">
<stop stop-color="#f85656" offset="0"/>
<stop stop-color="#fa7272" offset=".054902"/>
<stop stop-color="#faafb0" stop-opacity="0" offset="1"/>
</linearGradient>
<linearGradient id="e" x1="-819.2" x2="819.2" gradientTransform="matrix(-.0027 -.0058 .0052 -.0024 10.1 4.85)" gradientUnits="userSpaceOnUse">
<stop stop-color="#f85656" offset="0"/>
<stop stop-color="#fa7272" offset=".054902"/>
<stop stop-color="#faafb0" stop-opacity="0" offset="1"/>
</linearGradient>
<linearGradient id="d" x1="-819.2" x2="819.2" gradientTransform="matrix(-6e-4 -.0063 .0034 -3e-4 7.9 8.4)" gradientUnits="userSpaceOnUse">
<stop stop-color="#f85656" offset="0"/>
<stop stop-color="#fa7272" offset=".054902"/>
<stop stop-color="#faafb0" stop-opacity="0" offset="1"/>
</linearGradient>
<linearGradient id="c" x1="-819.2" x2="819.2" gradientTransform="matrix(0 -.0047 .0025 0 11.1 8.6)" gradientUnits="userSpaceOnUse">
<stop stop-color="#f85656" offset="0"/>
<stop stop-color="#fa7272" offset=".054902"/>
<stop stop-color="#faafb0" stop-opacity="0" offset="1"/>
</linearGradient>
<linearGradient id="b" x1="-819.2" x2="819.2" gradientTransform="matrix(-7e-4 -.0058 .0014 -.0024 8.05 11.8)" gradientUnits="userSpaceOnUse">
<stop stop-color="#f85656" offset="0"/>
<stop stop-color="#fa7272" offset=".054902"/>
<stop stop-color="#faafb0" stop-opacity="0" offset="1"/>
</linearGradient>
</defs>
</svg>
