<?xml version="1.0" encoding="UTF-8"?>
<svg version="1.1" viewBox="0 0 47.326 36.371" xmlns="http://www.w3.org/2000/svg" xmlns:cc="http://creativecommons.org/ns#" xmlns:dc="http://purl.org/dc/elements/1.1/" xmlns:rdf="http://www.w3.org/1999/02/22-rdf-syntax-ns#" xmlns:xlink="http://www.w3.org/1999/xlink">
<metadata>
<rdf:RDF>
<cc:Work rdf:about="">
<dc:format>image/svg+xml</dc:format>
<dc:type rdf:resource="http://purl.org/dc/dcmitype/StillImage"/>
</cc:Work>
</rdf:RDF>
</metadata>
<g transform="translate(-253.44 -178.97)">
<use transform="translate(259.4,179.2)" width="41.150002" height="23.35" xlink:href="#f"/>
<use transform="matrix(.238 0 0 .238 264.17 191.7)" width="59.5" height="87.650002" xlink:href="#e"/>
<use transform="matrix(-.2374 .0156 .009 .2285 291.32 193.01)" width="56.799999" height="91.849998" xlink:href="#d"/>
<use transform="translate(259,178.95)" width="41.75" height="35.700001" xlink:href="#c"/>
<use transform="matrix(.7693 .251 .1577 .4868 249.51 179.3)" width="56" height="56" xlink:href="#a"/>
</g>
<defs>
<g id="f" transform="translate(-259.4,-179.2)">
<path d="m286.05 180.45h0.15q2.75 0.05 5.5 2l0.3 0.2 0.85 1.1 0.75 1.4q-1.2 1.3-4.95-1.25-0.75-2.2-2.6-3.45m6.7 2.2q1.7 0.1 2.75 1.1l0.95 1.25q-0.9 0.2-2 1.35-0.05-1.95-1.7-3.7m4 3.1q2.8 0.8 3.25 3.4 0.2 2.05-1.8 2.2-3.05-1-3.5-4.15l0.1-0.15 0.05-0.05 0.9-0.75 0.2-0.1 0.25-0.15 0.5-0.2 0.05-0.05m-36.05 0.3q0.7-0.95 1.9-1.65l0.95-0.5h0.25q1.4 0.05 2.25 0.8 1.25 1.05 1.2 3.6l0.45 0.9q-0.55 2.95 0.9 7.65-5.7-1.1-6.45-5.25-0.15 1 0.1 1.9-1.45-3.35-0.3-5.85 0.7-0.5 1.4-0.7l1.45-0.2 0.4 0.05 0.55 0.15q-2.1-1.15-3.85 0-0.8 0.05-1.2-0.9m4.65-4.4q1.9-1.1 4.45-0.7h0.15l0.1 0.05h0.15l0.15 0.05 1.4 0.35 0.4 0.15h0.1l0.15 0.05 0.15 0.1q-0.25 2.1-2.95 1.3-2.2-1.45-5.3 0.1-0.2-0.2 1.05-1.45m5.3-1.15q3.5-1.75 6.8-0.6 0.9 0.3 1.6 0.7-0.3 2.1-4.45 1.3-1.9-1.6-3.95-1.4m7.55-0.8q2.95-0.85 6.45 0.85l0.45 0.25q1.15 0.65 1.85 1.45-1.95 1.85-4.45-0.45-1.65-1.5-4.3-2.1m16.25 10.85 0.95 0.35q1 0.6 1.9 1 1.2 1.65-0.4 2.8-4.15 0.3-6.3-2.55 0.25-0.45 0.6-0.75 0.85-0.9 2.05-0.95l1.2 0.1m-27.2-2.25-1.15-1.15-0.35-0.2 0.35 0.2 1.15 1.15m0.85 2.35h0.05l0.1-0.05 0.45-0.2 0.9-0.25 2.4 0.15q1.4 0.55 2.4 2.3l0.05 0.15 0.2 0.35 0.25 0.5q1.65 3.25 3.85 5.15l-5.9-0.75q-3.2-2.05-4.55-6.25l-0.1-0.4v-0.2l-0.1-0.5m7.85 2.15q1.9-1.05 4.6 0.3l1.4 0.85 1.75 1.8q1.05 1.6 2.15 2.35l-4.95 0.65q-4.5-2.05-4.95-5.95m7.9-0.3q2.35-1.35 4.55-0.25l0.9 0.55 0.15 0.1q1.05 1.8 4.75 3.1-2.35 1.6-5.6 2.15-4.9-2.15-4.75-5.65" fill="#ebe39a" fill-rule="evenodd"/>
<path d="m292 182.65h0.75q1.65 1.75 1.7 3.7 1.1-1.15 2-1.35l0.3 0.75-0.05 0.05-0.5 0.2-0.25 0.15-0.2 0.1-0.9 0.75-0.05 0.05-0.1 0.15q-0.35 0.55-0.35 1.2 0-0.65 0.35-1.2 0.45 3.15 3.5 4.15 2-0.15 1.8-2.2l-0.05 2.45v0.05q1.05 2.5-0.55 3.3 0 3.1-3.75 3.45-2.4 2.55-8.05 2.85-5.55 2.1-12.2 0.1-8.05-0.9-11.55-4.95-3.3-1.35-4.15-6.15-0.4-2.5 1-4.2 0.4 0.95 1.2 0.9 1.75-1.15 3.85 0l-0.55-0.15-0.4-0.05-1.45 0.2q-0.7 0.2-1.4 0.7-1.15 2.5 0.3 5.85l0.65 1.35 0.95 1.55-0.95-1.55-0.65-1.35q-0.25-0.9-0.1-1.9 0.75 4.15 6.45 5.25-1.45-4.7-0.9-7.65l-0.45-0.9q0.05-2.55-1.2-3.6-0.85-0.75-2.25-0.8h-0.25l-0.95 0.5 0.45-0.65q1-1.4 2.3-2.1-1.25 1.25-1.05 1.45 3.1-1.55 5.3-0.1 2.7 0.8 2.95-1.3l-0.15-0.1-0.15-0.05h-0.1l-0.4-0.15-1.4-0.35-0.15-0.05h-0.15l-0.1-0.05h-0.15l0.85-0.45q2.05-0.2 3.95 1.4 4.15 0.8 4.45-1.3 1.2 0.65 1.75 1.55l1.15 1.6 2.15 1.95q-2.9 1-6.45-0.65-3.2 1.4-6.9 0.8l-3.1-2-0.15-0.1-0.25-0.1-3.1 0.1-0.35 0.15 0.35-0.15 3.1-0.1 0.25 0.1 0.15 0.1 3.1 2q-1 2.75-3.05 3.35l0.05 0.1 0.25 0.85 0.1 0.4v0.1l0.1 0.5v0.2l0.1 0.4q1.35 4.2 4.55 6.25l5.9 0.75h0.05l0.45 0.4q2.9 2 8.35 2.1-5.45-0.1-8.35-2.1l-0.45-0.4h-0.05q-2.2-1.9-3.85-5.15l0.2-0.2 0.4-0.3 0.05-0.05 0.35-0.2 0.05-0.05q0.45 3.9 4.95 5.95l4.95-0.65q-1.1-0.75-2.15-2.35l-1.75-1.8 1.1-0.9 0.35-0.25 0.35-0.2 0.1-0.1q-0.15 3.5 4.75 5.65 3.25-0.55 5.6-2.15-3.7-1.3-4.75-3.1l0.55 0.4q0.25-0.65 0.6-1.15 2.15 2.85 6.3 2.55 1.6-1.15 0.4-2.8-0.9-0.4-1.9-1l-0.95-0.35-0.9-0.3q-2.4-1-3.95-2.8-0.9-1.4-1.7-3.7l-0.05-0.05-0.9-1.45 0.9 1.45 0.05 0.05q0.8 2.3 1.7 3.7-2.55 0.1-5.5-1.75l-2.15-1.95-1.15-1.6q-0.55-0.9-1.75-1.55-0.7-0.4-1.6-0.7l0.75-0.2q2.65 0.6 4.3 2.1 2.5 2.3 4.45 0.45-0.7-0.8-1.85-1.45l-0.45-0.25 1.4-0.1q1.85 1.25 2.6 3.45 3.75 2.55 4.95 1.25l-0.75-1.4-0.85-1.1m1.6 2.5 0.4 1.6 0.35 1.65 0.25 1.1 0.8 1.4-0.8-1.4-0.25-1.1-0.35-1.65-0.4-1.6m-21.05-3.45q1 0.4 1.85 1.05l1.25 1 2 1.3-2-1.3-1.25-1q-0.85-0.65-1.85-1.05m-4.45 8.85-0.05-0.05-0.05-0.35 0.05 0.35 0.05 0.05m7.3 10.8q-2.45-0.95-4.65-3.35l-0.55-0.8q-1.3-1.95-1.9-5.45 0.6 3.5 1.9 5.45l0.55 0.8q2.2 2.4 4.65 3.35m21.9-9.45 2.5 0.45 0.15-0.7-0.15 0.7-2.5-0.45m2.1 3.05-0.8 0.3-2.45 0.25-0.75-0.05q-2.7-0.35-5.4-2.15 2.7 1.8 5.4 2.15l0.75 0.05 2.45-0.25 0.8-0.3m-3.75 3.45q-4.15 1.6-7.35 0.5l-0.85-0.45q-2-1.15-3.75-2.7 1.75 1.55 3.75 2.7l0.85 0.45q3.2 1.1 7.35-0.5" fill="#ccb165" fill-rule="evenodd"/>
<path d="m286.05 180.45h0.15q2.75 0.05 5.5 2l0.3 0.2h0.75q1.7 0.1 2.75 1.1l0.95 1.25 0.3 0.75q2.8 0.8 3.25 3.4l-0.05 2.45v0.05q1.05 2.5-0.55 3.3 0 3.1-3.75 3.45-2.4 2.55-8.05 2.85-5.55 2.1-12.2 0.1-8.05-0.9-11.55-4.95-3.3-1.35-4.15-6.15-0.4-2.5 1-4.2 0.7-0.95 1.9-1.65l0.45-0.65q1-1.4 2.3-2.1 1.9-1.1 4.45-0.7l0.85-0.45q3.5-1.75 6.8-0.6l0.75-0.2q2.95-0.85 6.45 0.85l1.4-0.1m7.55 4.7-0.75-1.4-0.85-1.1m-5.05-0.4 0.9 1.45 0.05 0.05q0.8 2.3 1.7 3.7 1.55 1.8 3.95 2.8l0.9 0.3 0.95 0.35-0.8-1.4-0.25-1.1-0.35-1.65-0.4-1.6m-6.65-2.9q-0.7-0.8-1.85-1.45l-0.45-0.25m-0.55 5.15q2.95 1.85 5.5 1.75m5.1-0.25 0.1-0.15 0.05-0.05 0.9-0.75 0.2-0.1 0.25-0.15 0.5-0.2 0.05-0.05m-2.4 2.65q0-0.65 0.35-1.2m-30.9-3.3 0.35-0.15 3.1-0.1 0.25 0.1 0.15 0.1 3.1 2q3.7 0.6 6.9-0.8l-2-1.3-1.25-1q-0.85-0.65-1.85-1.05m-2.75-0.75h0.15l0.1 0.05h0.15l0.15 0.05 1.4 0.35 0.4 0.15h0.1l0.15 0.05 0.15 0.1m-9.95 2.7 0.95-0.5h0.25q1.4 0.05 2.25 0.8 1.25 1.05 1.2 3.6l0.45 0.9q2.05-0.6 3.05-3.35m-8.5 7.65q-1.45-3.35-0.3-5.85 0.7-0.5 1.4-0.7l1.45-0.2 0.4 0.05 0.55 0.15 0.35 0.2 1.15 1.15m0.45 0.9 0.05 0.1 0.25 0.85 0.05 0.35 0.05 0.05v0.1h0.05l0.1-0.05 0.45-0.2 0.9-0.25 2.4 0.15q1.4 0.55 2.4 2.3l0.05 0.15 0.2 0.35 0.25 0.5 0.2-0.2 0.4-0.3 0.05-0.05 0.35-0.2 0.05-0.05q1.9-1.05 4.6 0.3l1.4 0.85 1.1-0.9 0.35-0.25 0.35-0.2 0.1-0.1q2.35-1.35 4.55-0.25l0.9 0.55 0.15 0.1 0.55 0.4q0.25-0.65 0.6-1.15 0.25-0.45 0.6-0.75 0.85-0.9 2.05-0.95l1.2 0.1m-15.4-9.95q1.2 0.65 1.75 1.55l1.15 1.6 2.15 1.95q-2.9 1-6.45-0.65m-0.2-5.15q0.9 0.3 1.6 0.7m-0.3 18.15h0.05l0.45 0.4q2.9 2 8.35 2.1m-3.9-5.5-1.75-1.8m-3.2 4.8q-2.2-1.9-3.85-5.15m-6.8-2.95 0.1 0.5v0.2l0.1 0.4q0.6 3.5 1.9 5.45l0.55 0.8q2.2 2.4 4.65 3.35m-11.55-4.95-0.95-1.55-0.65-1.35m27.75-0.2q2.7 1.8 5.4 2.15l0.75 0.05 2.45-0.25 0.8-0.3m0.55-3.3-0.15 0.7-2.5-0.45m-1.9-1q1 0.6 1.9 1m-13.6 3.85q1.75 1.55 3.75 2.7l0.85 0.45q3.2 1.1 7.35-0.5" fill="none" stroke="#000" stroke-linecap="round" stroke-linejoin="round" stroke-opacity=".30196" stroke-width=".4"/>
<path d="m287 185.25 1.3-0.2 1.1 0.95q1.9 1.45 3.9 1.45l0.6-0.05 0.45 1.15 0.8 1.5 0.85 0.95-1.75-0.5q-2.9-1.05-4.65-3.05-2.55 0.1-5.5-1.75-2.9 1-6.45-0.65-3.2 1.4-6.9 0.8-0.95 2.65-2.85 3.3l-0.1-0.25-1.05-1.25-1-0.8v-0.15q-0.1-1.6-0.7-2.3l0.65 0.4 1.65 0.7q0.85 0 1.35-0.7l0.2-0.4 0.9 0.05q1.8 0 3.3-0.8l1.25-1.05 0.3 0.05 1.65 0.45 1.15 0.5 2.1 0.5q0.75 0 1.6-0.5l0.55-0.4 1.8 1.05q2.15 1 3.5 1" fill-opacity=".2" fill-rule="evenodd"/>
<path d="m292.2 182.65q3.25 1.5 3.75 3.5l0.05 0.65q0 1.45-1.4 2.7l-1.05 0.75q-2.4-1-3.95-2.8-2.55 0.1-5.5-1.75-2.9 1-6.45-0.65-3.2 1.4-6.9 0.8-1 2.75-3.05 3.35l0.35 1.3q-2.85-1.65-2.85-3.7 0-1.15 0.85-2.1l1.2-1.05q1-0.7 2.45-1.3l2.5-0.8q3.05-0.85 6.85-0.95l1.55-0.05 4.5 0.25q3.6 0.4 6.4 1.55l0.2 0.1 0.5 0.2m-16.25 10.15q1.9-1.05 4.6 0.3l-4.65-0.25 0.05-0.05m-3.95-2.5q1.4 0.55 2.4 2.3-2.55-0.5-4.7-1.35l-1.45-0.65 1.35-0.45 2.4 0.15m16.4 1.95-5.35 0.8 0.8-0.55q2.35-1.35 4.55-0.25m4.85-1.8-1.75 0.8-0.3 0.15q0.85-0.9 2.05-0.95" fill="url(#n)" fill-rule="evenodd"/>
<path d="m277.8 195.8-0.3-0.95-0.9-1.15q-0.3-0.4-1.2-0.5l0.15-0.15 0.35-0.2 0.05-0.05 0.65-0.25q0.8 0.45 1.7 1.8l0.2 0.3q0.9-1.1 2.3-1.4l1.15 0.7 1.1-0.9 0.05-0.05h0.45q2.55 0 4.35 2.1 1.25 1.45 1.4 2.45l0.2 0.55v0.05l0.15 1.1v0.35l-0.25 1.5-1.4 0.15v-0.05l0.35-1.7v-0.6l-0.05-0.75v-0.45l0.05-0.15-0.05-0.15q-0.4-1.15-1.25-2-0.9-0.9-1.75-1.15l-2.85-0.35-0.1 0.45-0.55 0.3-1.15 0.4q-0.9 0.5-1.15 1.25l-0.65 1.5-0.05 0.95-0.15 0.6v0.05l0.15 0.1q1.2 0.85 1.2 1.65l-0.25 1-0.05 0.1-4.3-0.9h-0.1l0.25-0.3 1.05-1.05 0.35-0.4v-0.3q0-1.1 0.3-2.1l0.45-1.25 0.1-0.15m-10.1 0.55q-0.35 0.65-0.35 1.2l0.3 1.7v0.05l-1.75-1.05 0.3-1.4 0.45-1.6q0.2-0.6 0.8-0.85 0.6-0.3 0.6 0.35l-0.2 0.45 0.2 0.35-0.35 0.8" fill-opacity=".30196" fill-rule="evenodd"/>
</g>
<radialGradient id="n" cx="0" cy="0" r="819.2" gradientTransform="matrix(.021 0 0 .0085 280.6 186.8)" gradientUnits="userSpaceOnUse">
<stop stop-opacity=".30196" offset="0"/>
<stop stop-opacity="0" offset="1"/>
</radialGradient>
<g id="e" transform="translate(31.65,22.9)">
<path d="m-6.75 18.05-0.1-0.05h-0.1l0.1-0.25 0.55 0.05-0.45 0.25" fill="#f1ce8e" fill-rule="evenodd"/>
<path d="m-1.7 2.9 4.75-0.65 0.5 9.9 0.15 2.95q0.4 6.5-0.3 12.5-0.9 6.85-3.3 13.3l11.05 1.2-8.85 7.95 2.9 9.85-12.05-3.2-9.35 7.3-0.6-3.5 15.3-12.45-5.8-5.2 2.05-14.25 1.7-12.25 1.85-13.45m5.1 24.7-2.45-0.1-6.2 1.1 6.2-1.1 2.45 0.1m0.3-12.5-1.9-0.1q-2.5 0.1-5.35 1.35 2.85-1.25 5.35-1.35l1.9 0.1" fill="#3e2b17" fill-rule="evenodd"/>
<path d="m-16.8 60.5-1.4-8.2-12.7-1.35 9.7-8.7-2.8-11.6 10.1 4.2q0.1-1.15 1.05-2.55 3.4-5.75 5.85-14.1l0.25-0.15 0.45-0.25-0.55-0.05q0.35-1.75 0.55-5.6 0.15-3.5 0.15-8.75l4.45-0.5-1.85 13.45q-1.35 0.55-2.75 1.45 1.4-0.9 2.75-1.45l-1.7 12.25-2.05 14.25 5.8 5.2-15.3 12.45m3.95-28.2 2.7-1.75q2.15-1.2 4.9-1.95-2.75 0.75-4.9 1.95l-2.7 1.75" fill="#694527" fill-rule="evenodd"/>
<path d="m-7 18.2 0.25-0.15m-0.2-0.05 0.1-0.25m3.3-1.4q2.85-1.25 5.35-1.35l1.9 0.1m-8.95 13.5 6.2-1.1 2.45 0.1m-9.7-9.8-0.45 0.25m3.2-1.7q-1.35 0.55-2.75 1.45m1.05 10.8q-2.75 0.75-4.9 1.95l-2.7 1.75" fill="none" stroke="#000" stroke-linecap="round" stroke-linejoin="round" stroke-opacity=".49804" stroke-width=".05"/>
<path d="m3.7 15.1q0.4 6.5-0.3 12.5-0.9 6.85-3.3 13.3l11.05 1.2-8.85 7.95 2.9 9.85-12.05-3.2-9.35 7.3-0.6-3.5-1.4-8.2-12.7-1.35 9.7-8.7-2.8-11.6 10.1 4.2q0.1-1.15 1.05-2.55 3.4-5.75 5.85-14.1z" fill="none" stroke="#000" stroke-linecap="round" stroke-linejoin="round" stroke-opacity=".30196" stroke-width="1.5"/>
<path d="m-11.35 18.35-0.75-0.5-3.5-2.85q-6.05-6.3-5.8-15.35 0.1-9.05 6.6-15.5l2.45-2.1 2.75-1.7q4.7-2.5 10.35-2.5 3.4 0 6.4 0.9 4.95 1.45 8.85 5.4 6.25 6.45 6.1 15.5-0.25 6.6-3.8 11.8l-5-20.65-26.5 15.95 1.85 11.6" fill="#ebe39a" fill-rule="evenodd"/>
<path d="m-1.6 21.3q-3.15-0.15-5.95-1.15-2-0.7-3.8-1.8l-1.85-11.6 26.5-15.95 5 20.65-0.65 0.85-2.35 2.7q-5 4.9-11.5 6.05l-4 0.3-1.4-0.05" fill="#ccb165" fill-rule="evenodd"/>
<path d="m7.15-21.25q8.1 0.45 13.85 6.25 6.25 6.45 6.1 15.5-0.25 6.6-3.8 11.8l-0.65 0.85-2.35 2.7q-6.5 6.35-15.5 6.35h-1q-2.85-0.15-5.4-0.9l1.4 0.05 4-0.3q6.5-1.15 11.5-6.05l2.35-2.7 0.65-0.85q3.55-5.2 3.8-11.8 0.15-9.05-6.1-15.5-3.9-3.95-8.85-5.4" fill="#9e8447" fill-rule="evenodd"/>
<path d="m-11.35 18.35-0.75-0.5-3.5-2.85q-6.05-6.3-5.8-15.35 0.1-9.05 6.6-15.5l2.45-2.1 2.75-1.7q4.7-2.5 10.35-2.5 3.4 0 6.4 0.9 8.1 0.45 13.85 6.25 6.25 6.45 6.1 15.5-0.25 6.6-3.8 11.8l-0.65 0.85-2.35 2.7q-6.5 6.35-15.5 6.35h-1m-11.35-2.05q-2-0.7-3.8-1.8z" fill="none" stroke="#000" stroke-linecap="round" stroke-linejoin="round" stroke-opacity=".30196" stroke-width="1.5"/>
<path d="m-0.45-12.7q4.75 3.65 8 7.7l2.75 3.95q2.7 4.5 3.6 9.5-0.7 2.85-3.1 4.65l-2.9 2.3q-5.05-2.05-8.85-5.05-2.85-2.35-5.1-5.25-3.25-10.25 1.35-20.85-4.6 10.6-1.35 20.85-2.6-3.4-4.35-7.5-1.65-3.65-2.6-7.75 0.55-1.5 1.6-2.5l2.4-1.85 3.95-1.45 0.35 0.2 4.25 3.05m8.2 27q-4.55-10-0.2-19.3-4.35 9.3 0.2 19.3" fill="#694527" fill-rule="evenodd"/>
<path d="m10.3-1.05-2.75-3.95q-3.25-4.05-8-7.7 3.5-2.7 6.35-3.45 5.25 2.3 7.15 7l-0.2 1.25q-0.75 3.6-2.55 6.85m-16.35 6.15q2.25 2.9 5.1 5.25-2.8 1.95-4.9 2.55l-0.9 0.2q-3.85-1.1-6.3-6.85-0.15-4.3 2.65-8.65 1.75 4.1 4.35 7.5" fill="#3e2b17" fill-rule="evenodd"/>
<path d="m-4.7-15.75q-4.6 10.6-1.35 20.85m13.6-10.1q-4.35 9.3 0.2 19.3" fill="none" stroke="#000" stroke-linecap="round" stroke-linejoin="round" stroke-opacity=".30196" stroke-width=".05"/>
</g>
<g id="d" transform="translate(31.65,27.1)">
<path d="m-6.3 17.8-0.45 0.25-0.1-0.05h-0.1l0.1-0.25 0.55 0.05" fill="#f1ce8e" fill-rule="evenodd"/>
<path d="m3.4 27.6-2.45-0.1-6.2 1.1 6.2-1.1 2.45 0.1q-0.9 6.85-3.3 13.3l11.05 1.2-8.85 7.95 2.9 9.85-12.05-3.2-9.35 7.3-0.6-3.5 15.3-12.45-5.8-5.2 2.05-14.25 1.7-12.25q2.85-1.25 5.35-1.35l1.9 0.1-1.9-0.1q-2.5 0.1-5.35 1.35l1.85-13.45 4.75-0.65 0.5 9.9 0.15 2.95q0.4 6.5-0.3 12.5" fill="#3e2b17" fill-rule="evenodd"/>
<path d="m-3.55 16.35-1.7 12.25-2.05 14.25 5.8 5.2-15.3 12.45-1.4-8.2-12.7-1.35 9.7-8.7-2.8-11.6 10.1 4.2q0.1-1.15 1.05-2.55 3.4-5.75 5.85-14.1l0.25-0.15 0.45-0.25q1.4-0.9 2.75-1.45-1.35 0.55-2.75 1.45l-0.55-0.05q0.35-1.75 0.55-5.6 0.15-3.5 0.15-8.75l4.45-0.5-1.85 13.45m-1.7 12.25q-2.75 0.75-4.9 1.95l-2.7 1.75 2.7-1.75q2.15-1.2 4.9-1.95" fill="#694527" fill-rule="evenodd"/>
<path d="m-5.25 28.6 6.2-1.1 2.45 0.1m0.3-12.5-1.9-0.1q-2.5 0.1-5.35 1.35-1.35 0.55-2.75 1.45l-0.45 0.25-0.25 0.15m-5.85 14.1 2.7-1.75q2.15-1.2 4.9-1.95m-1.7-10.6 0.1-0.25" fill="none" stroke="#000" stroke-linecap="round" stroke-linejoin="round" stroke-opacity=".49804" stroke-width=".05"/>
<path d="m3.4 27.6q0.7-6 0.3-12.5m-20.5 45.4 0.6 3.5 9.35-7.3 12.05 3.2-2.9-9.85 8.85-7.95-11.05-1.2q2.4-6.45 3.3-13.3m-10.4-9.4q-2.45 8.35-5.85 14.1m-3.95 28.2-1.4-8.2-12.7-1.35 9.7-8.7-2.8-11.6 10.1 4.2q0.1-1.15 1.05-2.55" fill="none" stroke="#000" stroke-linecap="round" stroke-linejoin="round" stroke-opacity=".30196" stroke-width="1.5"/>
<path d="m2.25-26.3 0.8 0.1 3.95 0.75q4.95 1.45 8.85 5.4 6.25 6.45 6.1 15.5-0.25 6.6-3.8 11.8l-5-20.65-26.5 15.95 1.85 11.6-0.75-0.5-3.5-2.85q-6.05-6.3-5.8-15.35 0.1-9.05 6.6-15.5l2.45-2.1 2.75-1.7q4.35-2.3 9.55-2.45l0.8-0.05 1.65 0.05h-2.45 2.45" fill="#ebe39a" fill-rule="evenodd"/>
<path d="m18.15 7.25-0.65 0.85-2.35 2.7q-4.8 4.75-11 5.95l-0.1 0.05-0.8 0.1-3.6 0.25-1.4-0.05-4.5-0.7h-0.05l-1.4-0.45q-2-0.7-3.8-1.8l-1.85-11.6 26.5-15.95 5 20.65" fill="#ccb165" fill-rule="evenodd"/>
<path d="m3.05-26.2v-0.15q3.4 0 6.4 0.9 4.95 1.45 8.85 5.4 6.25 6.45 6.1 15.5-0.25 6.6-3.8 11.8l-0.65 0.85-2.35 2.7q-4.85 4.75-13.55 6l0.1-0.05q6.2-1.2 11-5.95l2.35-2.7 0.65-0.85q3.55-5.2 3.8-11.8 0.15-9.05-6.1-15.5-3.9-3.95-8.85-5.4l-3.95-0.75" fill="#9e8447" fill-rule="evenodd"/>
<path d="m3.05-26.35-0.8 0.05h-2.45q-5.2 0.15-9.55 2.45l-2.75 1.7-2.45 2.1q-6.5 6.45-6.6 15.5-0.25 9.05 5.8 15.35l3.5 2.85 0.75 0.5m15.65 2.6-0.1 0.05q8.7-1.25 13.55-6l2.35-2.7 0.65-0.85q3.55-5.2 3.8-11.8 0.15-9.05-6.1-15.5-3.9-3.95-8.85-5.4-3-0.9-6.4-0.9m-9.3 42.75h-0.05l-1.4-0.45q-2-0.7-3.8-1.8" fill="none" stroke="#000" stroke-linecap="round" stroke-linejoin="round" stroke-opacity=".30196" stroke-width="1.5"/>
<path d="m-0.6-16.9q5.55 4.25 9.05 9.1l1.7 2.55q2.7 4.5 3.6 9.5-0.7 2.85-3.1 4.65l-2.9 2.3q-5.05-2.05-8.85-5.05-2.35-1.95-4.3-4.25-2.7-8.1 3.9-19.5-6.6 11.4-3.9 19.5-3.1-3.75-5.15-8.5-1.65-3.65-2.6-7.75 0.55-1.5 1.6-2.5 1-1.15 2.4-1.85l3.95-1.45 3.7 2.55 0.9 0.7m8.5 27.6q-5.45-7 0.55-18.5-6 11.5-0.55 18.5" fill="#694527" fill-rule="evenodd"/>
<path d="m10.15-5.25-1.7-2.55q-3.5-4.85-9.05-9.1 3.5-2.7 6.35-3.45 5.25 2.3 7.15 7l-0.2 1.25q-0.75 3.6-2.55 6.85m-15.55 7.15q1.95 2.3 4.3 4.25-2.8 1.95-4.9 2.55l-0.9 0.2q-3.85-1.1-6.3-6.85-0.15-4.3 2.65-8.65 2.05 4.75 5.15 8.5" fill="#3e2b17" fill-rule="evenodd"/>
<path d="m-1.5-17.6q-6.6 11.4-3.9 19.5m13.85-9.7q-6 11.5-0.55 18.5" fill="none" stroke="#000" stroke-linecap="round" stroke-linejoin="round" stroke-opacity=".30196" stroke-width=".05"/>
</g>
<g id="c" transform="translate(-259,-178.95)">
<path d="m262.6 184.4 0.45-0.65q1-1.4 2.3-2.1 1.9-1.1 4.45-0.7l0.85-0.45q3.5-1.75 6.8-0.6l0.75-0.2 3.4-0.15q4.95 3.1 4.95 7.4-1.2-0.45-2.45-1.25-2.9 1-6.45-0.65-3.2 1.4-6.9 0.8-1 2.75-3.05 3.35l-0.45-0.9q0.05-2.55-1.2-3.6-0.85-0.75-2.25-0.8h-0.25l-0.95 0.5" fill="url(#m)" fill-rule="evenodd"/>
<path d="m262.6 184.4 0.95-0.5h0.25q1.4 0.05 2.25 0.8 1.25 1.05 1.2 3.6l-1.15-1.15-0.35-0.2-0.55-0.15-0.4-0.05-1.45 0.2q-0.7 0.2-1.4 0.7-1.15 2.5 0.3 5.85l0.65 1.35 0.95 1.55q-3.3-1.35-4.15-6.15-0.4-2.5 1-4.2 0.7-0.95 1.9-1.65" fill="url(#l)" fill-rule="evenodd"/>
<path d="m267.25 188.3 0.5 1 0.25 0.85 0.05 0.35 0.05 0.05v0.1l0.1 0.5v0.2l0.1 0.4q0.6 3.5 1.9 5.45l0.4 0.65-3.05 0.1-2.1-0.05-1.6-1.5-0.95-1.55-0.65-1.35q-1.45-3.35-0.3-5.85 0.7-0.5 1.4-0.7l1.45-0.2 0.4 0.05 0.55 0.15 0.35 0.2 1.15 1.15" fill="url(#k)" fill-rule="evenodd"/>
<path d="m268.1 190.65h0.05l0.1-0.05 0.45-0.2 0.9-0.25 2.4 0.15q1.4 0.55 2.4 2.3l0.05 0.15 0.2 0.35 0.25 0.5q0.85 1.65 1.85 3-2.85 0.95-6.15 1.25l-0.4-0.65q-1.3-1.95-1.9-5.45l-0.1-0.4v-0.2l-0.1-0.5" fill="url(#j)" fill-rule="evenodd"/>
<path d="m274.9 193.6 0.2-0.2 0.4-0.3 0.05-0.05 0.35-0.2 0.05-0.05q1.9-1.05 4.6 0.3l1.4 0.85 0.1 0.1-1.1 0.65q-1.95 1.15-4.2 1.9-1-1.35-1.85-3" fill="url(#i)" fill-rule="evenodd"/>
<path d="m281.95 193.95 1.1-0.9 0.35-0.25 0.35-0.2 0.1-0.1 0.3-0.15-2.1 1.7-0.1-0.1" fill="url(#h)" fill-rule="evenodd"/>
<path d="m289.5 187.5q1.55 1.8 3.95 2.8l0.9 0.3-1.2-0.1q-1.2 0.05-2.05 0.95l-0.6 0.75q-0.35 0.5-0.6 1.15l-0.55-0.4-0.15-0.1q-0.45-0.35-0.9-0.55-2.2-1.1-4.55 0.25l-0.1 0.1-0.35 0.2-0.35 0.25q-0.55 0.4-1.05 0.9h-0.05q-0.75-0.5-1.4-0.85-2.7-1.35-4.6-0.3l-0.1 0.1q-0.8-0.55-1.7-0.7-0.9-1.4-2.15-1.9l-2.4-0.15-0.9 0.25-0.45 0.2-0.1 0.05h-0.05v-0.1l-0.1-0.4-0.25-0.85-0.05-0.1q2.05-0.6 3.05-3.35 3.7 0.6 6.9-0.8 3.55 1.65 6.45 0.65 2.95 1.85 5.5 1.75m-4.95-6.9q-3.5-1.7-6.45-0.85l-0.75 0.2q-3.3-1.15-6.8 0.6-0.45 0.2-0.85 0.45-2.55-0.4-4.45 0.7-1.3 0.7-2.3 2.1l-0.45 0.65q-1.2 0.7-1.9 1.65-1.4 1.7-1 4.2 0.85 4.8 4.15 6.15 1.25 1.4 3 2.45 0.35 1.05 1.15 1.85l0.8 0.7 1.1 0.55-1.25 2.9-0.25 0.6-2.4-1 0.65 2.75-2.3 2.1 3 0.3 0.5 2.8 2.2-1.75 2.9 0.75-0.7-2.35 2.1-1.9-2.65-0.25q0.6-1.55 0.8-3.2l0.15-1.25h0.2q1.7 0 3.05-0.95l3.85 0.75 0.2 0.2q1.2 1 3.3 1.15h0.05l0.2 2.45q0.25 1.55 0.9 3l-2.6 0.4 2.15 1.75-0.6 2.3 2.85-0.95 2.25 1.55 0.35-2.75 3.05-0.5-2.35-1.85 0.5-2.65-2.35 1.1-0.25-0.55q-0.85-1.3-1.55-3.15h-0.05l0.05-0.05v-0.05l-0.05-0.3 0.25-0.1 0.9-0.5 0.1-0.15 0.85-0.7 0.55-0.7q5-0.45 7.2-2.8 3.75-0.35 3.75-3.45 1.6-0.8 0.55-3.3v-0.05l0.05-2.45q-0.45-2.6-3.25-3.4l-0.3-0.75-0.95-1.25q-1.05-1-2.75-1.1h-0.75l-0.3-0.2q-2.75-1.95-5.5-2h-0.15l-1.4 0.1" fill="none" stroke="#6a4627" stroke-linecap="round" stroke-linejoin="round" stroke-opacity=".4"/>
</g>
<radialGradient id="m" cx="0" cy="0" r="819.2" gradientTransform="matrix(.0235 0 0 .0136 267.55 186.95)" gradientUnits="userSpaceOnUse">
<stop stop-opacity=".30196" offset="0"/>
<stop stop-opacity="0" offset="1"/>
</radialGradient>
<radialGradient id="l" cx="0" cy="0" r="819.2" gradientTransform="matrix(.0235 0 0 .0136 267.55 186.95)" gradientUnits="userSpaceOnUse">
<stop stop-opacity=".15294" offset="0"/>
<stop stop-opacity="0" offset="1"/>
</radialGradient>
<radialGradient id="k" cx="0" cy="0" r="819.2" gradientTransform="matrix(.0235 0 0 .0136 267.55 186.95)" gradientUnits="userSpaceOnUse">
<stop stop-opacity=".10196" offset="0"/>
<stop stop-opacity="0" offset="1"/>
</radialGradient>
<radialGradient id="j" cx="0" cy="0" r="819.2" gradientTransform="matrix(.0235 0 0 .0136 267.55 186.95)" gradientUnits="userSpaceOnUse">
<stop stop-opacity=".05098" offset="0"/>
<stop stop-opacity="0" offset="1"/>
</radialGradient>
<radialGradient id="i" cx="0" cy="0" r="819.2" gradientTransform="matrix(.0235 0 0 .0136 267.55 186.95)" gradientUnits="userSpaceOnUse">
<stop stop-opacity=".031373" offset="0"/>
<stop stop-opacity="0" offset="1"/>
</radialGradient>
<radialGradient id="h" cx="0" cy="0" r="819.2" gradientTransform="matrix(.0235 0 0 .0136 267.55 186.95)" gradientUnits="userSpaceOnUse">
<stop stop-opacity=".023529" offset="0"/>
<stop stop-opacity="0" offset="1"/>
</radialGradient>
<g id="a" transform="translate(42.35,40.3)">
<use transform="translate(-42.35,-40.3)" width="56" height="56" xlink:href="#b"/>
</g>
<g id="b" transform="translate(42.35,40.3)">
<path d="m13.65-12.3q0 11.6-8.2 19.8t-19.8 8.2-19.8-8.2-8.2-19.8 8.2-19.8 19.8-8.2 19.8 8.2 8.2 19.8" fill="url(#g)" fill-rule="evenodd"/>
</g>
<radialGradient id="g" cx="0" cy="0" r="819.2" gradientTransform="matrix(.0349 0 0 .0349 -14.35 -12.3)" gradientUnits="userSpaceOnUse">
<stop stop-color="#ffee69" stop-opacity=".8" offset="0"/>
<stop stop-color="#fef18a" stop-opacity="0" offset="1"/>
</radialGradient>
</defs>
</svg>
