<?xml version="1.0" encoding="UTF-8"?>
<svg width="43px" height="53px" version="1.1" viewBox="253.05 173.25 43.25 53.45" xmlns="http://www.w3.org/2000/svg" xmlns:xlink="http://www.w3.org/1999/xlink">
<defs>
<linearGradient id="q" x1="-819.2" x2="819.2" gradientTransform="matrix(.00091553 .00054932 -.00090027 .0014954 13.8 -24.75)" gradientUnits="userSpaceOnUse">
<stop stop-color="#919191" offset="0"/>
<stop stop-color="#ccc" offset=".32157"/>
<stop stop-color="#3d3c3a" offset="1"/>
</linearGradient>
<linearGradient id="h" x1="-819.2" x2="819.2" gradientTransform="matrix(.0028381 .00076294 -.0007019 .002594 12.8 -21.5)" gradientUnits="userSpaceOnUse">
<stop stop-color="#919191" offset="0"/>
<stop stop-color="#ccc" offset=".32157"/>
<stop stop-color="#3d3c3a" offset="1"/>
</linearGradient>
<linearGradient id="g" x1="-819.2" x2="819.2" gradientTransform="matrix(.0028992 .00074768 -.0007019 .0027161 12.1 -18.6)" gradientUnits="userSpaceOnUse">
<stop stop-color="#919191" offset="0"/>
<stop stop-color="#ccc" offset=".32157"/>
<stop stop-color="#3d3c3a" offset="1"/>
</linearGradient>
<linearGradient id="f" x1="-819.2" x2="819.2" gradientTransform="matrix(.0037537 .0010071 -.00059509 .002243 11.85 -15.45)" gradientUnits="userSpaceOnUse">
<stop stop-color="#919191" offset="0"/>
<stop stop-color="#ccc" offset=".32157"/>
<stop stop-color="#3d3c3a" offset="1"/>
</linearGradient>
<linearGradient id="e" x1="-819.2" x2="819.2" gradientTransform="matrix(-.0025787 -.0045013 .012085 -.0069275 9 -3.85)" gradientUnits="userSpaceOnUse">
<stop stop-color="#edd218" offset="0"/>
<stop stop-color="#f7e191" offset="1"/>
</linearGradient>
<linearGradient id="d" x1="-819.2" x2="819.2" gradientTransform="matrix(.0026855 .0046234 -.0085144 .0049286 -2.55 -16.55)" gradientUnits="userSpaceOnUse">
<stop stop-color="#ffa827" offset="0"/>
<stop stop-color="#875101" offset="1"/>
</linearGradient>
<linearGradient id="c" x1="-819.2" x2="819.2" gradientTransform="matrix(-.0043945 -.0043945 .0046539 -.0046539 9.45 -7.9)" gradientUnits="userSpaceOnUse">
<stop stop-color="#ffa827" offset="0"/>
<stop stop-color="#875101" offset="1"/>
</linearGradient>
<radialGradient id="b" cx="0" cy="0" r="819.2" gradientTransform="matrix(.01239 0 0 .01239 7.15 -7.8)" gradientUnits="userSpaceOnUse">
<stop stop-color="#ebe7be" offset="0"/>
<stop stop-color="#756c24" offset="1"/>
</radialGradient>
<linearGradient id="a" x1="-819.2" x2="819.2" gradientTransform="matrix(.0053406 .0042267 -.0068817 .0086975 4.25 -7.6)" gradientUnits="userSpaceOnUse">
<stop stop-color="#ffa827" offset="0"/>
<stop stop-color="#875101" offset="1"/>
</linearGradient>
<linearGradient id="p" x1="-819.2" x2="819.2" gradientTransform="matrix(-.012802 -.0034332 .001358 -.0050507 7.05 -1.2)" gradientUnits="userSpaceOnUse">
<stop stop-color="#ffa827" offset="0"/>
<stop stop-color="#edd21d" offset="1"/>
</linearGradient>
<linearGradient id="o" x1="-819.2" x2="819.2" gradientTransform="matrix(-.00033569 -.001236 .0075531 -.0020294 13.15 3.2)" gradientUnits="userSpaceOnUse">
<stop stop-color="#1f2d62" offset="0"/>
<stop stop-color="#111b3c" offset="1"/>
</linearGradient>
<linearGradient id="n" x1="-819.2" x2="819.2" gradientTransform="matrix(0 -.0057678 .0093384 0 12.35 9.85)" gradientUnits="userSpaceOnUse">
<stop stop-color="#3b4db4" offset="0"/>
<stop stop-color="#283979" offset="1"/>
</linearGradient>
<linearGradient id="m" x1="-819.2" x2="819.2" gradientTransform="matrix(.0078735 .011871 -.014359 .0095367 -9.4 6.5)" gradientUnits="userSpaceOnUse">
<stop stop-color="#a5afe5" offset="0"/>
<stop stop-color="#7380d7" offset="1"/>
</linearGradient>
<linearGradient id="l" x1="-819.2" x2="819.2" gradientTransform="matrix(-.0059357 -.010269 .0085144 -.0049286 -8.1 12.05)" gradientUnits="userSpaceOnUse">
<stop stop-color="#3b4db4" offset="0"/>
<stop stop-color="#283979" offset="1"/>
</linearGradient>
<linearGradient id="k" x1="-819.2" x2="819.2" gradientTransform="matrix(0 .0018921 -.010284 0 9.85 20.3)" gradientUnits="userSpaceOnUse">
<stop stop-color="#1f2d62" offset="0"/>
<stop stop-color="#111b3c" offset="1"/>
</linearGradient>
<linearGradient id="j" x1="-819.2" x2="819.2" gradientTransform="matrix(.001709 .00045776 -.0012207 .0046387 -12.4 -11.6)" gradientUnits="userSpaceOnUse">
<stop stop-color="#ffa827" offset="0"/>
<stop stop-color="#875101" offset="1"/>
</linearGradient>
<linearGradient id="i" x1="-819.2" x2="819.2" gradientTransform="matrix(.0011444 -.0043335 .0065918 .0017395 -9.3 -3)" gradientUnits="userSpaceOnUse">
<stop stop-color="#1f2d62" offset="0"/>
<stop stop-color="#111b3c" offset="1"/>
</linearGradient>
<g id="s">
<path d="m14-23.3q-0.1-1.75-1.75-2.7l0.9-0.7q3.2 1.55 1.75 4.3l-0.9-0.9" fill="url(#q)"/>
<path d="m14.9-22.4 0.45 0.8q0.35 1.45-0.75 2.6l-0.55-0.95q0.45-1.1-0.25-1.7l-0.95-0.45-1.4 0.1-0.55 1.3q-0.75 0.15-1.25 0.6-0.65-3.05 1.6-3.6 1.65-0.3 2.75 0.4l0.9 0.9m-4.55 1q0.4-0.45 1.1-0.6-0.7 0.15-1.1 0.6" fill="url(#h)"/>
<path d="m14.6-19 0.15 1.4-1 1.8-0.1-0.2-1-0.9q0.55-0.85 0.5-1.45-0.15-0.75-1.1-1.15-2.05 0.9-1.4 1.8l-1.2 0.25q-0.85 0-0.6-1.55l0.8-1.1q0.5-0.45 1.25-0.6l1.35-0.2q1.15 0.25 1.8 0.95l0.55 0.95m-3.65-0.8 1.1 0.3-1.1-0.3" fill="url(#g)"/>
<path d="m13.8-21.65q0.7 0.6 0.25 1.7-0.65-0.7-1.8-0.95 1.3 0 1.55-0.75m-1.15 4.75-1.25-0.55q0.85 0.05 1.75-0.9 0.05 0.6-0.5 1.45m-0.45 3.35-1.5-0.55q1.35 0.1 1.2-0.9 0.45 0.5 0.3 1.45" fill="#666"/>
<path d="m13.75-15.8q0.7 1.3-0.35 2.75l-1.2-0.5q0.15-0.95-0.3-1.45l-0.9-0.55-0.45 0.1q-1.15 0.4-0.6 1.15l-2.25-0.5q-0.4-1.8 1.75-2.65l1.2-0.25 0.75 0.25 1.25 0.55 1 0.9 0.1 0.2" fill="url(#f)"/>
<path d="m13.4-13.05 3.9 2.5q4.05 3.35 4.05 7.15 0 1.4-0.55 2.55 0.05-0.6-0.35-0.8 0.4-4.35-1.45-5.85 0.6 1.65 0.2 3.15-1.5 3.5-6.4 3.55-7.8 0.25-13.5-4-4.4-3.9-2.25-7.9-1.9 0.9-2.9 4.25l-0.3 1.1-0.05-0.85 0.1-1.05 0.1-0.5 0.05-0.15 0.2-0.55 0.1-0.3 0.25-0.45q0.55-0.95 1.5-1.7l1.3-0.85 0.4-0.2 2-0.75 1-0.2 1.55-0.25h2.85l2.4 0.3 0.1 0.05 2.25 0.5 0.75 0.2 1.5 0.55 1.2 0.5m3.45 8.05q0.45-0.6 0.45-1.35 0-1.9-2.75-3.9-2.8-1.95-6.7-2.8l-3-0.5-3.7 0.25q-1.45 0.4-2.15 1.1l-0.5 0.95-0.1 0.6 0.25 1.15q0.6 1.3 2.5 2.65 2.7 1.9 6.45 2.85l0.25 0.05q3.9 0.85 6.7 0.15l0.15-0.05 1.5-0.6 0.6-0.5 0.05-0.05" fill="url(#e)"/>
<path d="m-8.5-15.75-0.8-0.15 0.45-2.4 1.45 0.4q0.8-2.35 1.7-2.2l-1.05-2.2 1.95-0.75 0.5 0.85v1.05l2.5-0.4-0.1-0.9 0.4-1.25 1.9 0.45-0.95 2.1 1.9 1.9 0.8-0.85v-0.05l0.9-0.6 1.35 1.7-2.05 1.3v2.6l-1.55 0.25q0.5-1.3-0.95-2.8-1.5-1.5-2.85-0.95t-2 2q-0.7 1.4 1.1 3.75-0.95 0.75-1.5 1.7l-0.25 0.45-0.35 0.1-0.05 0.05h-1l-0.95-1.5 1.15-0.4-0.85-3.25h-0.8" fill="url(#d)"/>
<path d="m-8.25-13 0.05-0.05 0.25-0.15-0.1-0.25q-0.4-1.05-0.45-2.3h0.8l0.85 3.25-1.15 0.4 0.95 1.5-1 0.6-1.3-2.3 1.1-0.7m-1.05-2.9-0.75-0.2 0.6-3.1 1.55 0.35q0.4-0.95 1.15-1.75l0.15-0.1-1.05-1.9 2.4-1.3 0.45 0.85-1.95 0.75 1.05 2.2q-0.9-0.15-1.7 2.2l-1.45-0.4-0.45 2.4m5-6.3 1.8-0.3 0.6 0.05 0.1 0.9-2.5 0.4v-1.05m2.8-1.5 0.35-1.2 2.6 1-0.75 2.35 1.05 0.95 0.4 0.45v0.05l-0.8 0.85-1.9-1.9 0.95-2.1-1.9-0.45m4.55 2.95 0.9-0.65 1.4 2.3-2 1.5 0.15 1.4 1.85 0.4-0.15 0.65h-2.85v-2.6l2.05-1.3-1.35-1.7m-6.95 7.85q-1.8-2.35-1.1-3.75 0.65-1.45 2-2t2.85 0.95q1.45 1.5 0.95 2.8l-1 0.2q0.15-0.35 0.15-0.75 0-0.75-0.55-1.3t-1.3-0.55-1.3 0.55-0.55 1.3 0.55 1.3l0.6 0.4-1.3 0.85" fill="#ffa827"/>
<path d="m-1.5-11.25 0.5-0.95q0.7-0.7 2.15-1.1l3.7-0.25 3 0.5q3.9 0.85 6.7 2.8 2.75 2 2.75 3.9 0 0.75-0.45 1.35l0.05-0.55q0-1.9-2.75-3.9-1.55-1.1-3.5-1.85l-3.2-0.95-2.8-0.45h-0.15l-1-0.05h-0.75l-2 0.25q-1.6 0.4-2.25 1.25" fill="url(#c)"/>
<path d="m-1.5-11.25q0.65-0.85 2.25-1.25l2-0.25h0.75l1 0.05h0.15l2.8 0.45 3.2 0.95q1.95 0.75 3.5 1.85 2.75 2 2.75 3.9l-0.05 0.55-0.05 0.05-0.6 0.5-1.5 0.6-0.15 0.05q-2.8 0.7-6.7-0.15l-0.25-0.05q-3.75-0.95-6.45-2.85-1.9-1.35-2.5-2.65l-0.25-1.15 0.1-0.6m10.85 2.8 0.05-0.2-0.4-0.6-1-0.4-1-0.05-0.15 0.05-3.45-0.75 0.45-1.35-3.6 1.15 3.1 2.95-0.25-1.65 3.6 0.35 0.3 0.25q0.4 0.25 1 0.4l0.4 0.1 1.65 2.05-1.45 0.4 3.9 0.9v-2.3l-0.85 0.35-2.3-1.65" fill="url(#b)"/>
<path d="m9.35-8.45 2.3 1.65 0.85-0.35v2.3l-3.9-0.9 1.45-0.4-1.65-2.05-0.4-0.1q-0.6-0.15-1-0.4l-0.3-0.25-3.6-0.35 0.25 1.65-3.1-2.95 3.6-1.15-0.45 1.35 3.45 0.75 0.15-0.05 1 0.05 1 0.4 0.4 0.6-0.05 0.2v0.05-0.05"/>
<path d="m-5.85-8.45q1-3.35 2.9-4.25-2.15 4 2.25 7.9 5.7 4.25 13.5 4 4.9-0.05 6.4-3.55 0.4-1.5-0.2-3.15 1.85 1.5 1.45 5.85-1.15 2.6-5.4 3.95-6.8 1.7-13.65-2-6.75-3.7-7.25-8.75" fill="url(#a)"/>
<path d="m20.8-0.85-1.55 1.9-1.95 1.2q-4 2-9.7 1l-1.1-0.2q-2.05-0.45-3.9-1.2-2.65-1.15-4.8-2.95l-1.45-1.35-0.05-0.05-0.95-1.15q-1.3-1.8-1.5-3.7l0.3-1.1q0.5 5.05 7.25 8.75 6.85 3.7 13.65 2 4.25-1.35 5.4-3.95 0.4 0.2 0.35 0.8" fill="url(#p)"/>
<path d="m18.05 8.95 1.75 1.3-12.95 6.65-3.55-1.8q1-0.5 2.05-0.95l-0.15 0.55 1.65 0.9 11.2-5.7v-0.95m-29.4 15.55-1.15 0.3 1.4-4.3 11.1-4.65-0.2 1.15-9.8 4.2-0.15 0.65-0.9 0.35-0.65 2.05 0.35 0.25m5.7-17.1 1 0.25-11.95 4.95-2.8 0.5 1.65-0.65 0.7-0.25 11.4-4.8" fill="#222e77"/>
<path d="m18.05 8.95v0.95l-11.2 5.7v-1.2h0.6l10.6-5.45m-33.6-10.05 0.65 0.8-1.25 0.35 0.6-1.15m8-6.8 0.25 2.85h-1l-0.45-3.05 1.15 0.2h0.05m1.5 14.55 0.4 0.75-11.4 4.8-0.6-1.45h0.65l10.95-4.1m-4.1 15.2-0.2 0.65-0.7-0.3 0.9-0.35" fill="#ecbd02"/>
<path d="m19.25 1.05 0.4 1.95q-4.45 2.35-12.4 2.95l-0.75-2.9 1.1 0.2q5.7 1 9.7-1l1.95-1.2" fill="url(#o)"/>
<path d="m19.65 3 0.15 1.15 0.2 3.8-1.95 1-10.6 5.45q0.5-3.05 0.1-6.5l-0.3-1.95q7.95-0.6 12.4-2.95m0.15 7.25q-0.4 2.65-1.55 5.05-6.6 1.75-13.55 6.05l0.25-0.35 1.3-2.4 0.6-1.7 12.95-6.65" fill="url(#n)"/>
<path d="m6.5 3.05 0.75 2.9-4.3-1.35-1.05-2.3 0.7-0.45q1.85 0.75 3.9 1.2m-12.45-12.95-0.05 0.15-0.1 0.5-0.4-0.05-1.1-0.1 1.65-0.5m-1.75 0.6v-0.1h0.1l-0.1 0.1m0.1 1.25 0.05 0.15h-0.05v-0.15" fill="#3b4db4"/>
<path d="m-3 26.75h-5q-1.65-0.35-3.2-1.15l0.25-0.85 0.6-2.25 0.2-0.65 0.15-0.65q2.35 1.3 5 1.1l1-0.1 1 4.55m-9.5-1.95q-1.5-1-2.85-2.45-3.65-3.8-5.05-9.05l1-0.2 2.8-0.5q1.05 3.65 3.65 6.3l1.85 1.6-1.4 4.3m-7.4-13.35-0.9 0.2-0.3-1.9q-0.8-6.4 1.6-11.4l3.65 2.9q-1.1 2.1-1.35 4.55-0.25 1.85 0.05 3.95l0.15 1h-0.65l-2.25 0.7m2.55-14.8-0.65-0.8q1.7-2.45 4-3.75l1.4-0.7 1.85-0.55 1.25-0.2h0.05l0.5 5.25q-1.55 0.2-2.85 0.95-1.8 0.95-3.1 2.85l-0.65-0.8-1.8-2.25m20.65 18.45 3.55 1.8-0.6 1.7-1.3 2.4-0.25 0.35-1.1 1.5-2.2 2.1-2.45 1.3-0.2 0.1-0.3-1.1-0.7-2.55-0.3-0.9 1.9-1.05 0.2-0.1q1.3-1.05 2.4-2.7l0.3-0.5 1.05-2.35m-0.35-10.5 4.3 1.35 0.3 1.95q0.4 3.45-0.1 6.5h-0.6l-1.5-0.9-1.5-0.75q0.25-2.05 0-4.35-0.25-2.05-0.9-3.8m-7.6-8.25-2.6-0.55-0.05-0.45v-0.4l-0.25-2.85-0.05-0.15v-0.35l-0.1-0.9 0.1-0.1 1.1 0.1 0.4 0.05-0.1 1.05 0.05 0.85q0.2 1.9 1.5 3.7" fill="url(#m)"/>
<path d="m-10.95 24.75-0.4-0.25-0.35-0.25 0.65-2.05 0.7 0.3-0.6 2.25m-8.45-11.65-0.5-1.65 2.25-0.7 0.6 1.45-0.7 0.25-1.65 0.65m1.35-15.2 0.7-1.25 1.8 2.25-0.6 1.15-2.1-1.75 0.2-0.4m24.9 17.7-1.65-0.9 0.15-0.55v-0.65l1.5 0.9v1.2m-9.1 7.1 0.7 2.55-0.95 0.25-0.55-2.15 0.8-0.65" fill="#fefe12"/>
<path d="m-0.2 17 1.1-0.45 1.35 0.9-0.3 0.5q-1.1 1.65-2.4 2.7l-0.2 0.05-3.35 1.5-1 0.1q-2.65 0.2-5-1.1l9.8-4.2m-4.7-15.5q-0.3 2.1 0 4.5v0.2l-1.15 0.45-10.95 4.1-0.15-1q-0.3-2.1-0.05-3.95 6.65-4.6 12.3-4.3m0.25 6.15q0.95 4.4 3.95 7.5l0.7 0.7-11.1 4.65-1.85-1.6q-2.6-2.65-3.65-6.3l11.95-4.95" fill="url(#l)"/>
<path d="m18.25 15.3-1.05 1.95-1.8 2.35-3.2 1.25-10.8 4.1 2.2-2.1 1.1-1.5q6.95-4.3 13.55-6.05" fill="url(#k)"/>
<path d="m12.2 20.85v0.95l-13.25 4.5v-0.05l2.45-1.3 10.8-4.1m-13.45 5.5-0.25 0.1-0.45 0.1-0.65 0.2h-0.1-0.3l-1-4.55 3.35-1.5v0.05l-1.9 1.05 0.3 0.9-0.8 0.65 0.55 2.15 0.95-0.25 0.3 1.1m-18.25-28 1.45-0.45-0.2 0.4 2.1 1.75 1.25-0.35 10.25-3.35 0.95 1.15-12.15 3.75-3.65-2.9m12.45-8.95h1l0.05-0.05 0.35-0.1-0.1 0.3-0.2 0.55-1.65 0.5h-0.05-0.05v0.1l0.1 0.9-1.15 0.3 0.45 3.05h1v0.4l-1.65 0.55-0.5-5.25h-0.05l-1.25 0.2 2.7-0.85 1-0.6" fill="#151e4d"/>
<path d="m-8.2-13.05 0.15-0.4 0.1 0.25-0.25 0.15m2.15 2.45 0.05-0.05-0.05 0.05m-1.65 1.2h0.05 0.05-0.1 0.05-0.05" fill="#bf7a13"/>
<path d="m-14-7.9-0.05-1.35 0.05-0.15-1.5-0.75 0.95-1.9 1.3 0.65h0.05l1-1 0.35-0.25-0.6-1.85 2.1-0.55 0.55 1.8 1.15 0.15 0.4 0.1-1.1 0.7 1.3 2.3-2.7 0.85-1.85 0.55-1.4 0.7" fill="url(#j)"/>
<path d="m-0.2-14.7-2 0.75-0.4 0.2-0.6-0.4q-0.55-0.55-0.55-1.3t0.55-1.3 1.3-0.55 1.3 0.55 0.55 1.3q0 0.4-0.15 0.75" fill="#6c450b"/>
<path d="m-14.9-0.3q1.3-1.9 3.1-2.85 1.3-0.75 2.85-0.95l1.65-0.55 0.05 0.45 2.6 0.55-10.25 3.35m11.2-2.2 0.05 0.05q-0.9 1.85-1.25 3.95-5.65-0.3-12.3 4.3 0.25-2.45 1.35-4.55l12.15-3.75" fill="url(#i)"/>
<path d="m-7.6-8.4v0.35 0.15l-1.15-0.2 1.15-0.3" fill="#fda626"/>
<path d="m14-23.3q-0.1-1.75-1.75-2.7l0.9-0.7q3.2 1.55 1.75 4.3l0.45 0.8q0.35 1.45-0.75 2.6l0.15 1.4-1 1.8q0.7 1.3-0.35 2.75l3.9 2.5q4.05 3.35 4.05 7.15 0 1.4-0.55 2.55l-1.55 1.9 0.4 1.95 0.15 1.15 0.2 3.8-1.95 1 1.75 1.3q-0.4 2.65-1.55 5.05l-1.05 1.95-1.8 2.35-3.2 1.25v0.95l-13.25 4.5-0.2 0.05-0.25 0.1-0.45 0.1-0.65 0.2m-8.6-1.15 0.25-0.85-0.4-0.25-1.15 0.3m-7.9-11.5 1-0.2-0.5-1.65-0.9 0.2m1.3-13.3 1.45-0.45 0.7-1.25-0.65-0.8m4-5.25-1.5-0.75 0.95-1.9 1.3 0.65m1.4-1.25-0.6-1.85 2.1-0.55 0.55 1.8m1.6 0.2 0.15-0.4q-0.4-1.05-0.45-2.3m0.6-3.1q0.4-0.95 1.15-1.75l0.15-0.1m2.3-1.5 1.8-0.3 0.6 0.05m2.6 0.9 1.05 0.95 0.4 0.45m1.2 2.55 0.15 1.4m1.7 1.05 2.4 0.3 0.1 0.05q-0.4-1.8 1.75-2.65-0.85 0-0.6-1.55l0.8-1.1q-0.65-3.05 1.6-3.6 1.65-0.3 2.75 0.4l0.9 0.9m-2.85 2.9-1.1-0.3m1.3-1.1-1.35 0.2q-0.75 0.15-1.25 0.6m4.4 0.15q0.45-1.1-0.25-1.7-0.25 0.75-1.55 0.75 1.15 0.25 1.8 0.95l0.55 0.95m-3.15-3q-0.7 0.15-1.1 0.6m3.45-0.25-0.95-0.45-1.4 0.1-0.55 1.3m2.85 4.9-0.1-0.2-1-0.9-1.25-0.55-0.75-0.25-1.2 0.25m1.25 3.35 1.5 0.55q0.15-0.95-0.3-1.45 0.15 1-1.2 0.9l-0.75-0.2-2.25-0.5m4.5 1.25 1.2 0.5m-1.5-1.95-0.9-0.55-0.45 0.1q-1.15 0.4-0.6 1.15m2.7-2.6q0.55-0.85 0.5-1.45-0.9 0.95-1.75 0.9m1.75-0.9q-0.15-0.75-1.1-1.15-2.05 0.9-1.4 1.8m-8.3 2.55h2.85m11.65 10.15q0.45-0.6 0.45-1.35 0-1.9-2.75-3.9-2.8-1.95-6.7-2.8l-3-0.5-3.7 0.25q-1.45 0.4-2.15 1.1l-0.5 0.95m18.35 6.25-0.05 0.05-0.6 0.5-1.5 0.6-0.15 0.05q-2.8 0.7-6.7-0.15l-0.25-0.05q-3.75-0.95-6.45-2.85-1.9-1.35-2.5-2.65l-0.25-1.15 0.1-0.6m2.3-3.65 1.55-0.25m4.15 18.2 1.1 0.2q5.7 1 9.7-1l1.95-1.2m-1.2 7.9v0.95l-11.2 5.7-1.65-0.9 0.15-0.55q-1.05 0.45-2.05 0.95m3.2-12.05q-2.05-0.45-3.9-1.2l-0.7 0.45m1.95 10.45 1.5 0.75m1.5 0.9h0.6l10.6-5.45m-12.7 5.2v-0.65m1.5 2.1v-1.2m-4.6 3.05-1.35-0.9-1.1 0.45-9.8 4.2m9.35-0.5 0.2-0.05m12.65 0.2-10.8 4.1m-8.45-35.55h1m0.05-0.05 0.35-0.1 0.25-0.45q0.55-0.95 1.5-1.7m4.7-2-1 0.2-2 0.75-0.4 0.2-1.3 0.85m-4.05-0.3-0.1-0.25m-4.55 4.85 1.85-0.55 2.7-0.85m-8.1 10.05-2.1-1.75 0.2-0.4m10.8-2.1-0.05-0.45-1.65 0.55m2.85-5.15 0.1-0.5 0.05-0.15 0.2-0.55 0.1-0.3m-0.45 1.5-0.1 1.05 0.05 0.85q0.2 1.9 1.5 3.7l0.95 1.15 0.05 0.05q-0.9 1.85-1.25 3.95-0.3 2.1 0 4.5v0.2l-1.15 0.45 0.4 0.75 1 0.25q0.95 4.4 3.95 7.5l0.7 0.7-0.2 1.15m-5.8-27.65-0.05 0.05m-1.65 1.3v-0.1m0.1 1.35 0.05 0.15m-0.05-1.5h-0.1m-1.05 1.3 1.15 0.2h0.05m-0.05-0.5-1.15 0.3 0.45 3.05h1m0.25-5.55-1 0.6m4.4 7.55 1.45 1.35q2.15 1.8 4.8 2.95m-20.25 8.9 0.6 1.45m-0.7 0.25 0.7-0.25m6.9 9.65-0.9 0.35 0.7 0.3m-1 2-0.35-0.25 0.65-2.05m9.8 4.15 0.2-0.1m-0.5-1-0.95 0.25-0.55-2.15 0.8-0.65m-7.9-0.85 0.15-0.65m-6.15-21.15 0.6-1.15m0.65 0.8-1.25 0.35" fill="none" stroke="#000" stroke-opacity=".4" stroke-width=".5"/>
<path d="m-8 26.75q-1.65-0.35-3.2-1.15m-1.3-0.8q-1.5-1-2.85-2.45-3.65-3.8-5.05-9.05m-0.4-1.65-0.3-1.9q-0.8-6.4 1.6-11.4m1.5-2.5q1.7-2.45 4-3.75l-0.05-1.35 0.05-0.15m0.75-2h0.05l1-1 0.35-0.25m2.05-0.6 1.15 0.15 0.4 0.1 0.05-0.05 0.25-0.15m-0.55-2.55-0.8-0.15-0.75-0.2 0.6-3.1 1.55 0.35m1.3-1.85-1.05-1.9 2.4-1.3 0.45 0.85 0.5 0.85m2.4-0.25 0.4-1.25 0.35-1.2 2.6 1-0.75 2.35m1.45 1.4 0.9-0.6 0.9-0.65 1.4 2.3-2 1.5m0.15 1.4 1.85 0.4-0.15 0.65m-6.7 3.9q0.65-0.85 2.25-1.25l2-0.25h0.75l1 0.05h0.15l2.8 0.45 3.2 0.95q1.95 0.75 3.5 1.85 2.75 2 2.75 3.9l-0.05 0.55m-14.95 7.3 1.05 2.3q0.65 1.75 0.9 3.8 0.25 2.3 0 4.35m-1.6 4.7 1.05-2.35m-9.35-25.7 0.05-0.05m5.8-4.05q0.15-0.35 0.15-0.75 0-0.75-0.55-1.3t-1.3-0.55-1.3 0.55-0.55 1.3 0.55 1.3l0.6 0.4m-5.45 3.75-1.3-2.3 1.1-0.7m-5.75 5.1 1.4-0.7m4.9-0.8h0.05 0.05m-0.1 0h0.05m-9.4 21.6 11.4-4.8m-13.75 5.7 1.65-0.65m17.3 8.2-0.2 0.1" fill="none" stroke="#000" stroke-opacity=".4" stroke-width=".5"/>
<path d="m9.35-8.45 0.05-0.2-0.4-0.6-1-0.4-1-0.05-0.15 0.05-3.45-0.75 0.45-1.35-3.6 1.15 3.1 2.95-0.25-1.65 3.6 0.35 0.3 0.25q0.4 0.25 1 0.4l0.4 0.1 1.65 2.05-1.45 0.4 3.9 0.9v-2.3l-0.85 0.35-2.3-1.65v0.05" fill="none" stroke="#999" stroke-opacity=".49804"/>
<path d="m-5.85-8.45q1-3.35 2.9-4.25-2.15 4 2.25 7.9 5.7 4.25 13.5 4 4.9-0.05 6.4-3.55 0.4-1.5-0.2-3.15 1.85 1.5 1.45 5.85" fill="none" stroke="#fff" stroke-opacity=".30196"/>
<path d="m3.3 15.1 3.55 1.8 12.95-6.65m-12.55-4.3-0.75-2.9m0.95 11.35q0.5-3.05 0.1-6.5l-0.3-1.95m-1.9 7.55 1.5 0.9m-16.85 6.8q2.35 1.3 5 1.1l1-0.1 3.35-1.5m0.2-0.05q1.3-1.05 2.4-2.7l0.3-0.5m-0.85 7.5 2.2-2.1 1.1-1.5 0.25-0.35 1.3-2.4 0.6-1.7m-5.45 8.05-2.45 1.3m-16.3-29.6 1.8 2.25 0.65 0.8q1.3-1.9 3.1-2.85 1.3-0.75 2.85-0.95l-0.5-5.25h-0.05l-1.25 0.2m-4.15 8.85 10.25-3.35-2.6-0.55m1.3-5.7-1.65 0.5 1.1 0.1 0.4 0.05m-1.6-0.05 0.1 0.9v0.35m0.05 0.15 0.25 2.85v0.4m3.6 2.15-12.15 3.75q-1.1 2.1-1.35 4.55-0.25 1.85 0.05 3.95l0.15 1 10.95-4.1m-10.95 4.1h-0.65l-2.25 0.7m3.3 1.15-2.8 0.5m9.05 9.4 0.2-0.65m-0.2 0.65-0.6 2.25m-0.15-4.25-1.85-1.6q-2.6-2.65-3.65-6.3l11.95-4.95m4 13.1-1.9 1.05 0.3 0.9 0.7 2.55 0.3 1.1m-2.75-4.15 1 4.55m-8.1-6.25-1.4 4.3m-7-26.45 3.65 2.9m4.75 19.25 11.1-4.65" fill="none" stroke="#6ff" stroke-opacity=".4" stroke-width=".5"/>
<path d="m13.15-26.7q3.2 1.55 1.75 4.3l0.45 0.8q0.35 1.45-0.75 2.6l0.15 1.4-1 1.8q0.7 1.3-0.35 2.75l3.9 2.5q4.05 3.35 4.05 7.15 0 1.4-0.55 2.55l-1.55 1.9 0.4 1.95 0.15 1.15 0.2 3.8-1.95 1 1.75 1.3q-0.4 2.65-1.55 5.05l-1.05 1.95-1.8 2.35-3.2 1.25v0.95l-13.25 4.5v-0.05l-0.2 0.1-0.25 0.1-0.45 0.1-0.65 0.2h-0.1-5.3q-1.65-0.35-3.2-1.15l0.25-0.85-0.4-0.25-1.15 0.3q-1.5-1-2.85-2.45-3.65-3.8-5.05-9.05l1-0.2-0.5-1.65-0.9 0.2-0.3-1.9q-0.8-6.4 1.6-11.4l1.45-0.45 0.7-1.25-0.65-0.8q1.7-2.45 4-3.75l-0.05-1.35 0.05-0.15-1.5-0.75 0.95-1.9 1.3 0.65h0.05l1-1 0.35-0.25-0.6-1.85 2.1-0.55 0.55 1.8 1.15 0.15 0.4 0.1 0.05-0.05 0.15-0.4q-0.4-1.05-0.45-2.3l-1.55-0.35 0.6-3.1 1.55 0.35q0.4-0.95 1.15-1.75l0.15-0.1-1.05-1.9 2.4-1.3 0.95 1.7 1.8-0.3 0.6 0.05 0.75-2.45 2.6 1-0.75 2.35 1.05 0.95 0.4 0.45 1.8-1.25 1.4 2.3-2 1.5 0.15 1.4 1.85 0.4-0.15 0.65 2.4 0.3 0.1 0.05q-0.4-1.8 1.75-2.65-0.85 0-0.6-1.55l0.8-1.1q-0.65-3.05 1.6-3.6 1.65-0.3 2.75 0.4-0.1-1.75-1.75-2.7l0.9-0.7m-2.25 6 0.55-1.3 1.4-0.1 0.95 0.45q-0.25 0.75-1.55 0.75l-1.35 0.2m-0.25 3q-0.65-0.9 1.4-1.8 0.95 0.4 1.1 1.15-0.9 0.95-1.75 0.9l-0.75-0.25m1.25 2.7-0.9-0.55-0.45 0.1q-1.15 0.4-0.6 1.15l0.75 0.2q1.35 0.1 1.2-0.9m-10 17.3 1.05 2.3q0.65 1.75 0.9 3.8 0.25 2.3 0 4.35l1.5 0.75v0.65q-1.05 0.45-2.05 0.95l-1.05 2.35-1.35-0.9-1.1 0.45 0.2-1.15-0.7-0.7q-3-3.1-3.95-7.5l-1-0.25-0.4-0.75 1.15-0.45v-0.2q-0.3-2.4 0-4.5 0.35-2.1 1.25-3.95l1.45 1.35q2.15 1.8 4.8 2.95l-0.7 0.45" fill="none" stroke="#000" stroke-opacity=".38824"/>
</g>
<g id="r">
<use xlink:href="#s"/>
</g>
</defs>
<use transform="translate(274.95 199.95)" xlink:href="#r"/>
</svg>
