<?xml version="1.0" encoding="UTF-8"?>
<svg version="1.1" viewBox="0 0 16.406 16.921" xmlns="http://www.w3.org/2000/svg" xmlns:cc="http://creativecommons.org/ns#" xmlns:dc="http://purl.org/dc/elements/1.1/" xmlns:rdf="http://www.w3.org/1999/02/22-rdf-syntax-ns#" xmlns:xlink="http://www.w3.org/1999/xlink">
<metadata>
<rdf:RDF>
<cc:Work rdf:about="">
<dc:format>image/svg+xml</dc:format>
<dc:type rdf:resource="http://purl.org/dc/dcmitype/StillImage"/>
</cc:Work>
</rdf:RDF>
</metadata>
<g transform="translate(-266.72 -191.52)">
<use transform="translate(266.75,191.55)" width="16.4" height="16.85" xlink:href="#a"/>
</g>
<defs>
<g id="a" transform="translate(-266.75,-191.55)">
<path d="m280.15 196.8q-0.7-1.6-2.1-2.3l-2.6-0.65-0.6 1.1v0.85q-0.6-1.1-2.5-1.65l-1.85 0.75-1 0.8 0.3-0.9q1.2-2.35 3.85-3.1 2.4-0.6 5.4 1.15 0.65 0.95 0.7 1.45l0.1 0.55v0.05l0.3 1.9m-10.85 5.15 0.65 0.9-1.55 2.05-0.1 0.1-0.6 1.7-0.8 0.55-0.15-1.1q-0.05-1.2 0.3-2.3v1.35l0.65-0.7 0.05-0.1 0.6-0.55-0.4-0.35v-0.1l-0.2-0.9q-0.1-0.85 0.05-1.45l0.2 2.15 1.3-1.25m11.9 2.35-1.05-1.85 0.2-0.65 0.45 0.4 0.85-1.2 0.05 0.7 0.5 1.05-0.55 1.2 1.05 1.6 0.3-1.35 0.1 1.5-0.25 1.5-0.65-0.6-1-2.3" fill="#85b154" fill-rule="evenodd"/>
<path d="m280.35 198.2-1.2-1.95-1.5-1.3h-2.8l0.6-1.1 2.6 0.65q1.4 0.7 2.1 2.3l0.2 1.4m-5.5-2.4v0.85l-1.55-1.05-1.4-0.5-2.75 1.95 0.35-1.35 1-0.8 1.85-0.75q1.9 0.55 2.5 1.65m-3.35 8.1 2.15 0.05 1.6-0.65 0.95 0.6h3.05l-2.65 0.9h-2.95l-2.95-0.65 0.8-0.25" fill="#567434" fill-rule="evenodd"/>
<path d="m274.85 194.95h2.8l1.5 1.3 1.2 1.95 0.05 0.65 0.1 1.05-0.15 1.9-0.2 0.65 1.05 1.85-2-0.95-0.45 0.4-0.15 0.15h-2.4l-0.95-0.6-1.6 0.65-2.15-0.05-0.7-0.35q-1.3 0-2.4 1.35l1.55-2.05-0.65-0.9q-0.5-0.85-0.5-2.1v-0.1q0-1.3 0.35-2.7l2.75-1.95 1.4 0.5 1.55 1.05v-1.7m0.8 6.35 0.15 0.75 0.35 0.75q0.55 0.8 1.35 0.8t1.35-0.8l0.6-1.05 0.3-0.8 0.05-0.35q0.15-0.9-0.3-1.95-0.55-1.25-1.55-1-1.05 0.3-1.7 1.25-0.65 0.9-0.65 2l0.05 0.4m3.6 2.6v1.15l-0.45 0.15-0.75 0.15-0.3 0.05-1.65 0.2h-0.3l-2.85-0.1-0.3-0.05-1.65-0.3-0.3-0.1v-0.9l2.95 0.65h2.95l2.65-0.9m-5.45-3.2q-0.15-0.85-0.8-1.65-0.8-1.05-1.5-1.15t-1.15 0.75q-0.5 0.7-0.3 1.95l0.05 0.1 0.15 0.7 0.55 1.3q0.55 0.7 1.25 0.7 0.65 0 1.2-0.7l0.35-0.55 0.2-1.1v-0.35" fill="#3e5425" fill-rule="evenodd"/>
<path d="m268.8 199.85q0 1.25 0.5 2.1l-1.3 1.25-0.2-2.15 0.95-1.25 0.05 0.05m11.55 1.95 0.15-1.9-0.1-1.05q1 1.15 1.25 2.15l-0.85 1.2-0.45-0.4m1.85 0.95q0.6 0.75 0.8 1.45l-0.3 1.35-1.05-1.6 0.55-1.2m-14.45-0.25 0.2 0.9v0.1l0.4 0.35-0.6 0.55-0.05 0.1-0.65 0.7v-1.35l0.7-1.35" fill="#a7c783" fill-rule="evenodd"/>
<path d="m279.8 200.6-0.05 0.35-0.3 0.8-0.6 1.05q-0.55 0.8-1.35 0.8t-1.35-0.8l-0.35-0.75-0.15-0.75q2.05-2.5 4.15-0.7m-6 0.1v0.35l-0.2 1.1-0.35 0.55q-0.55 0.7-1.2 0.7-0.7 0-1.25-0.7l-0.55-1.3-0.15-0.7-0.05-0.1 3.75 0.1" fill="#aa7322" fill-rule="evenodd"/>
<path d="m275.65 201.3-0.05-0.4q0-1.1 0.65-2 0.65-0.95 1.7-1.25 1-0.25 1.55 1 0.45 1.05 0.3 1.95-2.1-1.8-4.15 0.7m-5.6-0.7q-0.2-1.25 0.3-1.95 0.45-0.85 1.15-0.75t1.5 1.15q0.65 0.8 0.8 1.65l-3.75-0.1" fill="#fee041" fill-rule="evenodd"/>
<path d="m279.1 205.1 0.05 0.55v0.05l-0.8 0.55-0.15 1.25-0.7 0.05 0.3-1.3h-0.95l-0.5 1.9-0.5-0.6 0.15-0.8 0.1-0.55h-2.2v1.85q-0.4-0.1-0.7-1.05l-0.35 0.75-0.65-1.65-1.3-0.3 0.1-0.65 1.65 0.3 0.3 0.05 2.85 0.1h0.3l1.65-0.2 0.3-0.05 0.75-0.15 0.3-0.1" fill="#836841" fill-rule="evenodd"/>
<path d="m279.15 205.7-0.15 1.05q-0.25 0.6-0.8 0.75l0.15-1.25 0.8-0.55m-1.65 1.85q-0.45 1.25-1.15 0.6l0.5-1.9h0.95l-0.3 1.3m-1.65 0q-0.2 0.7-0.85 0.85-0.65 0.1-1.1-0.35v-1.85h2.2l-0.1 0.55-0.15 0.8m-3 0.2-0.5 0.25q-1-0.55-1.3-1.25l-0.15-0.95 1.3 0.3 0.65 1.65" fill="#faf2e2" fill-rule="evenodd"/>
<path d="m280.35 198.2-0.2-1.4-0.3-1.9v-0.05l-0.1-0.55q-0.05-0.5-0.7-1.45-3-1.75-5.4-1.15-2.65 0.75-3.85 3.1l-0.3 0.9m5.95-1.85-0.6 1.1m4.35 8.4 2 0.95m0.45-3.3 0.05 0.7 0.5 1.05q0.6 0.75 0.8 1.45l0.1 1.5-0.25 1.5-0.65-0.6-1-2.3m0.45-3.3q-0.25-1-1.25-2.15m-1.15 5.05v1.15l-0.15 0.05m0.05 0.6-0.15 1.05q-0.25 0.6-0.8 0.75m-0.7 0.05q-0.45 1.25-1.15 0.6m-0.5-0.6q-0.2 0.7-0.85 0.85-0.65 0.1-1.1-0.35m-1.05-0.3-0.5 0.25q-1-0.55-1.3-1.25l-0.15-0.95m0.1-0.65-0.3-0.1v-0.9m-2.9-3.1 0.95-1.25 0.05 0.05m-1.05 2.65-0.7 1.35q-0.35 1.1-0.3 2.3l0.15 1.1 0.8-0.55 0.6-1.7 0.1-0.1" fill="none" stroke="#000" stroke-linecap="round" stroke-linejoin="round" stroke-opacity=".34118" stroke-width=".05"/>
</g>
</defs>
</svg>
