<?xml version="1.0" encoding="UTF-8"?>
<svg version="1.1" viewBox="0 0 232.75 118.29" xmlns="http://www.w3.org/2000/svg" xmlns:cc="http://creativecommons.org/ns#" xmlns:dc="http://purl.org/dc/elements/1.1/" xmlns:rdf="http://www.w3.org/1999/02/22-rdf-syntax-ns#" xmlns:xlink="http://www.w3.org/1999/xlink">
<metadata>
<rdf:RDF>
<cc:Work rdf:about="">
<dc:format>image/svg+xml</dc:format>
<dc:type rdf:resource="http://purl.org/dc/dcmitype/StillImage"/>
</cc:Work>
</rdf:RDF>
</metadata>
<g transform="translate(-141.65 -116.07)">
<use transform="translate(141.65,116.05)" width="232.75" height="118.3" xlink:href="#b"/>
</g>
<defs>
<g id="b" transform="translate(116.35,59.15)">
<use transform="translate(-116.35,-59.15)" width="232.75" height="118.3" xlink:href="#e"/>
<use transform="translate(-72.5,-14)" width="91.849998" height="68.900002" xlink:href="#a"/>
<use transform="translate(-78.55,-14.4)" width="91.849998" height="68.900002" xlink:href="#c"/>
</g>
<g id="e" transform="translate(116.35,59.15)">
<path d="m110.85 18.6q-6.6 15.8-21 25.75-88.9 26.65-163.6-31.9-12.8-26.8-14.2-58 76.05 41.95 204.3 33.95-0.05 14.6-4.05 26.3h-18.8l17.35 3.9" fill="#333" fill-rule="evenodd"/>
<path d="m110.85 18.6q-6.6 15.8-21 25.75-88.9 26.65-163.6-31.9-12.8-26.8-14.2-58 76.05 41.95 204.3 33.95-0.05 14.6-4.05 26.3h-18.8z" fill="none" stroke="#000" stroke-linecap="round" stroke-linejoin="round" stroke-opacity=".4" stroke-width=".1"/>
<path d="m-65.85-8.05q-1.6-2.85-2.35-6l21-38.3q22.2-8.7 50-6.15 29.25 3.75 45.05 16.65 11.2 28.65 9.85 53.1l-2.5 0.65q-4.1-35.1-19.7-51.9 0.25 5.55-11.75 11.1-56.1 0.15-56.15-7.4-4.25 46.85-33.45 28.25" fill="#666" fill-rule="evenodd"/>
<path d="m55.2 11.9q-26.05 6.4-55.5 4.25-54.25-4.45-65.55-24.2 29.2 18.6 33.45-28.25 0.05 7.55 56.15 7.4 12-5.55 11.75-11.1 15.6 16.8 19.7 51.9" fill="#333" fill-rule="evenodd"/>
<path d="m-65.85-8.05q-1.6-2.85-2.35-6l21-38.3q22.2-8.7 50-6.15 29.25 3.75 45.05 16.65 11.2 28.65 9.85 53.1l-2.5 0.65q-26.05 6.4-55.5 4.25-54.25-4.45-65.55-24.2z" fill="none" stroke="#000" stroke-linecap="round" stroke-linejoin="round" stroke-opacity=".4" stroke-width=".1"/>
<path d="m-44.1-9.15q62.15 11 122.15 11.75-10.7 24.5-3.7 44.45l14.8-2.45q-14.9 11.35-37 13.55-82.45 6.8-151.8-34.55l-13.6-30.9-3.05-29.6q7.75 5.65 16.3 10.25l8.35 23.1-2.75-20.25q22.5 10.75 50.3 14.65" fill="#666" fill-rule="evenodd"/>
<path d="m-44.1-9.15q62.15 11 122.15 11.75-10.7 24.5-3.7 44.45m14.8-2.45q-14.9 11.35-37 13.55-82.45 6.8-151.8-34.55l-13.6-30.9-3.05-29.6m16.3 10.25 8.35 23.1-2.75-20.25" fill="none" stroke="#000" stroke-linecap="round" stroke-linejoin="round" stroke-opacity=".4" stroke-width=".1"/>
<path d="m-116.3-36.9q7.75 5.65 16.3 10.25m5.6 2.85q22.5 10.75 50.3 14.65z" fill="none" stroke="#000" stroke-linecap="round" stroke-linejoin="round" stroke-opacity=".4" stroke-width=".1"/>
<path d="m-44.4-24.1q-1.35 1.35-1.35 3.3t1.35 3.3q1.4 1.4 3.3 1.4 1.95 0 3.35-1.4 1.4-1.35 0.35-2.55l-2.55-2.6-2.25-2.1q-0.8-0.75-2.2 0.65m-1.8-2.6q2.6-2.55 6.2-2.55t6.15 2.55q2.55 2.6 2.55 6.2t-2.55 6.1q-2.55 2.6-6.15 2.6t-6.2-2.6q-2.55-2.5-2.5-6.1-0.05-3.6 2.5-6.2" fill-rule="evenodd"/>
<path d="m-44.4-24.1q1.4-1.4 2.2-0.65l2.25 2.1 2.55 2.6q1.05 1.2-0.35 2.55-1.4 1.4-3.35 1.4-1.9 0-3.3-1.4-1.35-1.35-1.35-3.3t1.35-3.3" fill="#900" fill-rule="evenodd"/>
<path d="m-46.2-26.7q2.6-2.55 6.2-2.55t6.15 2.55q2.55 2.6 2.55 6.2t-2.55 6.1q-2.55 2.6-6.15 2.6t-6.2-2.6q-2.55-2.5-2.5-6.1-0.05-3.6 2.5-6.2z" fill="none" stroke="#000" stroke-linecap="round" stroke-linejoin="round" stroke-opacity=".4" stroke-width=".1"/>
<path d="m-11.5-15.55q1.4-1.4 1.4-3.3 0-1.95-1.4-3.05-1.4-1.05-2.55-0.2-1.15 0.8-3.35 1.05-2.15 0.25-2.15 2.2 0 1.9 1.4 3.3t3.35 1.4q1.9 0 3.3-1.4m3.85-9.25q2.6 2.6 2.6 6.2t-2.6 6.15q-2.5 2.55-6.1 2.55t-6.2-2.55q-2.55-2.55-2.5-6.15-0.05-3.6 2.5-6.2 2.6-2.55 6.2-2.5 3.6-0.05 6.1 2.5" fill-rule="evenodd"/>
<path d="m-11.5-15.55q-1.4 1.4-3.3 1.4-1.95 0-3.35-1.4t-1.4-3.3q0-1.95 2.15-2.2 2.2-0.25 3.35-1.05 1.15-0.85 2.55 0.2 1.4 1.1 1.4 3.05 0 1.9-1.4 3.3" fill="#900" fill-rule="evenodd"/>
<path d="m-7.65-24.8q2.6 2.6 2.6 6.2t-2.6 6.15q-2.5 2.55-6.1 2.55t-6.2-2.55q-2.55-2.55-2.5-6.15-0.05-3.6 2.5-6.2 2.6-2.55 6.2-2.5 3.6-0.05 6.1 2.5z" fill="none" stroke="#000" stroke-linecap="round" stroke-linejoin="round" stroke-opacity=".4" stroke-width=".1"/>
</g>
<g id="a" transform="translate(45.95,34.45)">
<use transform="translate(-45.95,-34.45)" width="91.849998" height="68.900002" xlink:href="#d"/>
</g>
<g id="d" transform="translate(45.95,34.45)">
<path d="m-21.7-26.05v-8.35l6.3 2.75 0.7 6.3 7 6.35-4.2 6.3-8.45-7.7-4.85 3.5v-9.15h3.5" fill="#1e1d19" fill-rule="evenodd"/>
<path d="m-21.7-26.05v-8.35l6.3 2.75 0.7 6.3 7 6.35-4.2 6.3-8.45-7.7-4.85 3.5v-9.15z" fill="none" stroke="#000" stroke-linecap="round" stroke-linejoin="round" stroke-opacity=".4" stroke-width=".1"/>
<path d="m7.3-4.45q-1.15 0-1.95 1.7-0.85 1.7-0.85 4.2 0 2.45 0.85 4.15 0.8 1.7 1.95 1.7 1.1 0 1.95-1.7 0.8-1.7 0.8-4.15 0-2.5-0.8-4.2-0.85-1.7-1.95-1.7m-9.75-12.4 17.1 7.75 7.75 14.8-3.9 12.4-10.1 4.65v7h-5.4v-6.15h-4.7v10.8l-7.75-3.05 3.05-9.35h-5.4l-3.9 7-3.1-6.25 7-8.5-7-6.2 6.25-13.25 10.1-11.65m-1.95 16.3q-1.8 0-3.05 1.3-1.25 1.25-1.25 3t1.25 3.05q1.25 1.25 3.05 1.25 1.75 0 3-1.25 1.25-1.3 1.25-3.05t-1.25-3q-1.25-1.3-3-1.3" fill="#1e1d19" fill-rule="evenodd"/>
<path d="m7.3-4.45q1.1 0 1.95 1.7 0.8 1.7 0.8 4.2 0 2.45-0.8 4.15-0.85 1.7-1.95 1.7-1.15 0-1.95-1.7-0.85-1.7-0.85-4.15 0-2.5 0.85-4.2 0.8-1.7 1.95-1.7m-11.7 3.9q1.75 0 3 1.3 1.25 1.25 1.25 3t-1.25 3.05q-1.25 1.25-3 1.25-1.8 0-3.05-1.25-1.25-1.3-1.25-3.05t1.25-3q1.25-1.3 3.05-1.3" fill-rule="evenodd"/>
<path d="m7.3-4.45q1.1 0 1.95 1.7 0.8 1.7 0.8 4.2 0 2.45-0.8 4.15-0.85 1.7-1.95 1.7-1.15 0-1.95-1.7-0.85-1.7-0.85-4.15 0-2.5 0.85-4.2 0.8-1.7 1.95-1.7m-9.75-12.4 17.1 7.75 7.75 14.8-3.9 12.4-10.1 4.65v7h-5.4v-6.15h-4.7v10.8l-7.75-3.05 3.05-9.35h-5.4l-3.9 7-3.1-6.25 7-8.5-7-6.2 6.25-13.25 10.1-11.65m-1.95 16.3q1.75 0 3 1.3 1.25 1.25 1.25 3t-1.25 3.05q-1.25 1.25-3 1.25-1.8 0-3.05-1.25-1.25-1.3-1.25-3.05t1.25-3q1.25-1.3 3.05-1.3" fill="none" stroke="#000" stroke-linecap="round" stroke-linejoin="round" stroke-opacity=".4" stroke-width=".1"/>
<path d="m-38.65 12.55-7.25-4.2 5.55-4 5.75 2.55 9.05-2.95 3.35 6.8-10.9 3.45 0.55 5.95-7.9-4.55 1.8-3.05" fill="#1e1d19" fill-rule="evenodd"/>
<path d="m-38.65 12.55-7.25-4.2 5.55-4 5.75 2.55 9.05-2.95 3.35 6.8-10.9 3.45 0.55 5.95-7.9-4.55z" fill="none" stroke="#000" stroke-linecap="round" stroke-linejoin="round" stroke-opacity=".4" stroke-width=".1"/>
<path d="m42.45 26.25 2.15 8.1-6.75-1.05-2.25-5.9-8.45-4.35 2.4-7.1 10.15 5.2 3.8-4.6 2.35 8.8-3.4 0.9" fill="#1e1d19" fill-rule="evenodd"/>
<path d="m42.45 26.25 2.15 8.1-6.75-1.05-2.25-5.9-8.45-4.35 2.4-7.1 10.15 5.2 3.8-4.6 2.35 8.8z" fill="none" stroke="#000" stroke-linecap="round" stroke-linejoin="round" stroke-opacity=".4" stroke-width=".1"/>
<path d="m37.75-15 8.1 2.15-4.35 5.35-6.2-0.95-7.95 5.15-5-5.7 9.6-6.15-2.1-5.6 8.8 2.35-0.9 3.4" fill="#1e1d19" fill-rule="evenodd"/>
<path d="m37.75-15 8.1 2.15-4.35 5.35-6.2-0.95-7.95 5.15-5-5.7 9.6-6.15-2.1-5.6 8.8 2.35z" fill="none" stroke="#000" stroke-linecap="round" stroke-linejoin="round" stroke-opacity=".4" stroke-width=".1"/>
</g>
<g id="c" transform="translate(78.55,14.4)">
<path d="m-54.3-6v-8.35l6.3 2.75 0.7 6.3 7 6.35-4.2 6.3-8.45-7.7-4.85 3.5v-9.15h3.5" fill="#fef4d6" fill-rule="evenodd"/>
<path d="m-54.3-6v-8.35l6.3 2.75 0.7 6.3 7 6.35-4.2 6.3-8.45-7.7-4.85 3.5v-9.15z" fill="none" stroke="#000" stroke-linecap="round" stroke-linejoin="round" stroke-opacity=".4" stroke-width=".1"/>
<path d="m-37 19.5q-1.8 0-3.05 1.3-1.25 1.25-1.25 3t1.25 3.05q1.25 1.25 3.05 1.25 1.75 0 3-1.25 1.25-1.3 1.25-3.05t-1.25-3q-1.25-1.3-3-1.3m9.75-2.2q-0.85 1.7-0.85 4.2 0 2.45 0.85 4.15 0.8 1.7 1.95 1.7 1.1 0 1.95-1.7 0.8-1.7 0.8-4.15 0-2.5-0.8-4.2-0.85-1.7-1.95-1.7-1.15 0-1.95 1.7m-7.8-14.1 17.1 7.75 7.75 14.8-3.9 12.4-10.1 4.65v7h-5.4v-6.15h-4.7v10.8l-7.75-3.05 3.05-9.35h-5.4l-3.9 7-3.1-6.25 7-8.5-7-6.2 6.25-13.25 10.1-11.65" fill="#fef4d6" fill-rule="evenodd"/>
<path d="m-27.25 17.3q0.8-1.7 1.95-1.7 1.1 0 1.95 1.7 0.8 1.7 0.8 4.2 0 2.45-0.8 4.15-0.85 1.7-1.95 1.7-1.15 0-1.95-1.7-0.85-1.7-0.85-4.15 0-2.5 0.85-4.2m-9.75 2.2q1.75 0 3 1.3 1.25 1.25 1.25 3t-1.25 3.05q-1.25 1.25-3 1.25-1.8 0-3.05-1.25-1.25-1.3-1.25-3.05t1.25-3q1.25-1.3 3.05-1.3" fill-rule="evenodd"/>
<path d="m-27.25 17.3q0.8-1.7 1.95-1.7 1.1 0 1.95 1.7 0.8 1.7 0.8 4.2 0 2.45-0.8 4.15-0.85 1.7-1.95 1.7-1.15 0-1.95-1.7-0.85-1.7-0.85-4.15 0-2.5 0.85-4.2m-9.75 2.2q1.75 0 3 1.3 1.25 1.25 1.25 3t-1.25 3.05q-1.25 1.25-3 1.25-1.8 0-3.05-1.25-1.25-1.3-1.25-3.05t1.25-3q1.25-1.3 3.05-1.3m1.95-16.3 17.1 7.75 7.75 14.8-3.9 12.4-10.1 4.65v7h-5.4v-6.15h-4.7v10.8l-7.75-3.05 3.05-9.35h-5.4l-3.9 7-3.1-6.25 7-8.5-7-6.2 6.25-13.25 10.1-11.65" fill="none" stroke="#000" stroke-linecap="round" stroke-linejoin="round" stroke-opacity=".4" stroke-width=".1"/>
<path d="m-71.25 32.6-7.25-4.2 5.55-4 5.75 2.55 9.05-2.95 3.35 6.8-10.9 3.45 0.55 5.95-7.9-4.55 1.8-3.05" fill="#fef4d6" fill-rule="evenodd"/>
<path d="m-71.25 32.6-7.25-4.2 5.55-4 5.75 2.55 9.05-2.95 3.35 6.8-10.9 3.45 0.55 5.95-7.9-4.55z" fill="none" stroke="#000" stroke-linecap="round" stroke-linejoin="round" stroke-opacity=".4" stroke-width=".1"/>
<path d="m9.85 46.3 2.15 8.1-6.75-1.05-2.25-5.9-8.45-4.35 2.4-7.1 10.15 5.2 3.8-4.6 2.35 8.8-3.4 0.9" fill="#fef4d6" fill-rule="evenodd"/>
<path d="m9.85 46.3 2.15 8.1-6.75-1.05-2.25-5.9-8.45-4.35 2.4-7.1 10.15 5.2 3.8-4.6 2.35 8.8z" fill="none" stroke="#000" stroke-linecap="round" stroke-linejoin="round" stroke-opacity=".4" stroke-width=".1"/>
<path d="m5.15 5.05 8.1 2.15-4.35 5.35-6.2-0.95-7.95 5.15-5-5.7 9.6-6.15-2.1-5.6 8.8 2.35-0.9 3.4" fill="#fef4d6" fill-rule="evenodd"/>
<path d="m5.15 5.05 8.1 2.15-4.35 5.35-6.2-0.95-7.95 5.15-5-5.7 9.6-6.15-2.1-5.6 8.8 2.35z" fill="none" stroke="#000" stroke-linecap="round" stroke-linejoin="round" stroke-opacity=".4" stroke-width=".1"/>
</g>
</defs>
</svg>
