<?xml version="1.0" encoding="UTF-8"?>
<svg version="1.1" viewBox="0 0 64.6 138.97" xmlns="http://www.w3.org/2000/svg" xmlns:cc="http://creativecommons.org/ns#" xmlns:dc="http://purl.org/dc/elements/1.1/" xmlns:rdf="http://www.w3.org/1999/02/22-rdf-syntax-ns#" xmlns:xlink="http://www.w3.org/1999/xlink">
<metadata>
<rdf:RDF>
<cc:Work rdf:about="">
<dc:format>image/svg+xml</dc:format>
<dc:type rdf:resource="http://purl.org/dc/dcmitype/StillImage"/>
</cc:Work>
</rdf:RDF>
</metadata>
<g transform="translate(32.125,69.025)">
<use transform="translate(-32.1,-69)" width="64.550003" height="138.89999" xlink:href="#a"/>
</g>
<defs>
<g id="a" transform="translate(32.1,69)">
<path d="m4.65-69q4.1 4.8 5.35 10.6l0.1 0.65 0.1 0.3 1.2 28.15 0.1 0.95q0.6 17.35 2.15 30.95v0.55q2.05 29.3 13.75 44.85l4.6 3.55-0.1 0.2-6.9-0.1v-0.3q-15.25-12.75-17.8-30.2-2.3 18.2 4.95 32.35l-0.25 0.2-0.75 1.3-0.3 1.8-0.1 0.95q-0.65 3.8-4.2 4.95l-5.9 0.75h-0.45q-9.8-18.35-10.15-63.45-10.5 35.8-6.6 65.1v0.1q-0.55 0.25-0.95 0.6-1.2 0.75-2.7 1.2-10.4-11.05-11.7-25.45l0.25-4.95q0.45-9 2.8-29.95 2.2-19.45 2.55-30.25 0.45-16.8-2.15-30.5 20.45-4.45 33.1-14.9" fill-rule="evenodd"/>
<path d="m32 51.55 0.3 0.2 0.05 0.1-0.45-0.1 0.1-0.2m-7 0.1-2.75-0.1 2.75-0.2v0.3m-12.75 1.85-0.35 0.2 0.25-0.2h0.1m-44.25-11.95v-2.05l0.1 2.05h-0.1" fill="#555ba0" fill-rule="evenodd"/>
<path d="m22.25 51.55-9.7 1.85h-0.1l-0.3 0.1q-7.25-14.15-4.95-32.35 2.55 17.45 17.8 30.2l-2.75 0.2m-22.05 11.9h-6q-7.15-0.1-10.75 1.75v-0.1q-3.9-29.3 6.6-65.1 0.35 45.1 10.15 63.45" fill="#2d2d2d" fill-rule="evenodd"/>
<path d="m12.45 53.4-0.1 0.1h-0.2l0.3-0.1" fill="#43487e" fill-rule="evenodd"/>
<path d="m-20.2 67 2.7 2.6 0.2 0.2q-9.65 0.8-14.8-3.65l0.1-24.6h0.1q1.3 14.4 11.7 25.45" fill="#a7a7a7" fill-rule="evenodd"/>
<path d="m4.65-69q4.1 4.8 5.35 10.6l0.1 0.65 0.1 0.3 1.2 28.15 0.1 0.95q0.6 17.35 2.15 30.95v0.55q2.05 29.3 13.75 44.85l4.6 3.55 0.45 0.3h-0.1l-0.45-0.1-6.9-0.1-2.75-0.1-9.7 1.85m-0.1 0-0.1 0.1h-0.1m-0.35 0.2-0.75 1.3-0.3 1.8-0.1 0.95q-0.65 3.8-4.2 4.95l-5.9 0.75h-6.45q-7.15-0.1-10.75 1.75-0.55 0.25-0.95 0.6-1.2 0.75-2.7 1.2l2.7 2.6 0.2 0.2q-9.65 0.8-14.8-3.65m44.25-12.65-0.25 0.2m-43.8-12.15h-0.1m11.8 25.45q-10.4-11.05-11.7-25.45" fill="none" stroke="#0f121c" stroke-linecap="round" stroke-linejoin="round" stroke-width=".05"/>
<path d="m-10.95-14.2q-2.05 0.7-3.55 2.6-1.3 2-1.3 4.15 0 2.1 1.3 3.05 1.5 1.05 3.55 0.35 2.05-0.75 3.35-2.75 1.5-1.9 1.5-4 0-2.15-1.5-3.2-1.3-0.95-3.35-0.2m-8.6 11.55q0-5.85 3.9-11.3 3.95-5.4 9.55-7.35t9.5 0.75q3.95 2.75 3.95 8.6 0 3.5-1.3 6.85l-4.5 1.55q-3.2 3.6 2.6 4.35l-2.6 0.9q-3.35 3.5-7.65 5-5.25 1.8-8.95-0.4l2.4-0.85v-4.5l-5.6 1.95q-1.3-2.25-1.3-5.55m22.4-13.2-3-0.2q-1.85 0.65-3.15 2.3-1.15 1.75-1.15 3.7t1.15 2.7q1.3 0.9 3.15 0.25 1.9-0.65 3-2.35 1.3-1.6 1.3-3.55t-1.3-2.85m1.1 22.5q0 1.2-0.55 2.15-0.55 1-1.3 1.25t-1.3-0.35q-0.55-0.55-0.55-1.75 0-1.15 0.55-2.1 0.55-1 1.3-1.25t1.3 0.35q0.55 0.55 0.55 1.7m-7.45 3.8q0 0.95-0.75 2-0.55 0.95-1.5 1.25l-1.65-0.15q-0.6-0.6-0.6-1.55 0-1 0.6-1.95 0.75-1.05 1.65-1.4 0.95-0.3 1.5 0.3 0.75 0.5 0.75 1.5m-11.75 2.5q0-1 0.55-1.9 0.75-0.9 1.7-1.2l1.5 0.1q0.7 0.45 0.7 1.45 0 0.95-0.7 1.85-0.6 0.9-1.5 1.25l-1.7-0.15q-0.55-0.45-0.55-1.4" fill="#fff" fill-rule="evenodd"/>
</g>
</defs>
</svg>
