<?xml version="1.0" encoding="UTF-8"?>
<svg version="1.1" viewBox="0 0 20.05 39" xmlns="http://www.w3.org/2000/svg" xmlns:cc="http://creativecommons.org/ns#" xmlns:dc="http://purl.org/dc/elements/1.1/" xmlns:rdf="http://www.w3.org/1999/02/22-rdf-syntax-ns#" xmlns:xlink="http://www.w3.org/1999/xlink">
<metadata>
<rdf:RDF>
<cc:Work rdf:about="">
<dc:format>image/svg+xml</dc:format>
<dc:type rdf:resource="http://purl.org/dc/dcmitype/StillImage"/>
</cc:Work>
</rdf:RDF>
</metadata>
<g transform="translate(-264.8,-180.5)">
<use transform="translate(264.8,180.5)" width="20.049999" height="39" xlink:href="#a"/>
</g>
<defs>
<g id="a" transform="translate(-264.8,-180.5)">
<path d="m270.65 217.8-0.3 0.2-2-1.05 2.3 0.85" fill="#c00" fill-rule="evenodd"/>
<path d="m266.3 211.4h-0.05l0.05-0.4v0.4" fill="#555ba0" fill-rule="evenodd"/>
<path d="m276.8 182q2.25 3.75 2.05 8.3-0.2 3.95 0.15 8.1 0.35 4.6 2.55 9.2 2.15 4.55 1.7 5.15-0.4 0.3-0.85 0.55-4.3-3.35-4.9-8-0.4 2.45 0 4.65 0.2 1.55 0.85 3.1 0.15 0.5 2.7 2.8l-2.7 1.5-2.85 0.65-0.55-1.95q-0.8-1.8-1.55-7.2l-0.35-2.7q-0.35-3.2-0.3-6.4-1.1 3.4-1.45 5.45-1.3 6.4-0.65 12.6l-2.3-0.85q-1.8-1.65-2.05-5.55l0.1-1.4q0.15-2.55 0.95-8.2l0.9-8.15q0.15-4.4-0.45-7.9 2.75-0.6 4.95-1.5 2.25-0.95 4.05-2.25" fill="#a80202" fill-rule="evenodd"/>
<path d="m283.25 212.75q-0.05 1.75-2.2 3.1-2.55-2.3-2.7-2.8-0.65-1.55-0.85-3.1-0.4-2.2 0-4.65 0.6 4.65 4.9 8 0.45-0.25 0.85-0.55m-7.75 5.25-4.85-0.2q-0.65-6.2 0.65-12.6 0.35-2.05 1.45-5.45-0.05 3.2 0.3 6.4l0.35 2.7q0.75 5.4 1.55 7.2l0.55 1.95" fill="#780101" fill-rule="evenodd"/>
<path d="m270.35 218-2-1.05m-2.05-5.55h-0.05" fill="none" stroke="#7b6b53" stroke-linecap="round" stroke-linejoin="round" stroke-width=".05"/>
<path d="m276.8 182q2.25 3.75 2.05 8.3-0.2 3.95 0.15 8.1 0.35 4.6 2.55 9.2 2.15 4.55 1.7 5.15-0.05 1.75-2.2 3.1l-2.7 1.5-2.85 0.65-4.85-0.2m-2.3-0.85q-1.8-1.65-2.05-5.55l0.1-1.4q0.15-2.55 0.95-8.2l0.9-8.15q0.15-4.4-0.45-7.9m0.55 31.2 2.3 0.85" fill="none" stroke="#feffe6" stroke-linecap="round" stroke-linejoin="round" stroke-width="3"/>
<path d="m277.55 192.6-0.15 0.55m1.95-4.55 0.3 0.55m-3.05-4.45 0.45 0.6m1.95 12.3 0.1 0.85m2.45 5.85-0.05 0.8m-0.55 2.9h0.75m-2.7-4.85-0.15 0.6m4.9 6.55v0.55m-2.4 3.2h0.85m-14.75-16.05 0.6 0.4m-1.4 5.1-0.3 0.7m1.7 2.9v0.75m-0.3-19.25 0.2 0.2m1.2 4.6-0.35-0.35m-0.15 22.6 0.5 0.55m2.1 2.1v0.65m-4.65-7.05 0.55 0.45" fill="none" stroke="#000" stroke-linecap="round" stroke-linejoin="round"/>
<path d="m274.85 217.85-0.55-0.35m4.8-0.5 0.45 0.25" fill="none" stroke="#000" stroke-linecap="round" stroke-linejoin="round"/>
</g>
</defs>
</svg>
