<?xml version="1.0" encoding="UTF-8" standalone="no"?>
<!DOCTYPE svg PUBLIC "-//W3C//DTD SVG 1.1//EN" "http://www.w3.org/Graphics/SVG/1.1/DTD/svg11.dtd">
<svg width="100%" height="100%" viewBox="0 0 83 110" version="1.1" xmlns="http://www.w3.org/2000/svg" xmlns:xlink="http://www.w3.org/1999/xlink" xml:space="preserve" xmlns:serif="http://www.serif.com/" style="fill-rule:evenodd;clip-rule:evenodd;stroke-linecap:round;stroke-linejoin:round;">
    <g transform="matrix(1,0,0,1,-233.6,-145.25)">
        <g>
            <g id="shape0">
                <path d="M238.45,164.2L239.7,164.2L241.45,150.1L242.7,150.1C244.233,165.2 244.267,178.967 242.8,191.4L242.8,191.7L242.8,191.35C241.767,199.75 240.2,207.317 238.1,214.05L237.45,215.95L237.35,215.25L235.4,231.15L234.1,230.5L234.1,185.3C239.1,180.1 240.367,173.067 237.9,164.2L238.45,164.2M258.35,166.55L260.2,166.4L261.2,153.35L264.65,153.35L266.7,159.85C267,159.683 267.317,159.533 267.65,159.4L267.85,159.3L267.75,159.75C265.983,169.45 265.75,179.067 267.05,188.6L267.3,190.55L267.4,191L267.55,191.75C267.883,193.817 268.317,195.883 268.85,197.95L266.6,193.6L265.6,191.35C260.9,183.517 258.483,175.25 258.35,166.55M279.75,151.1L281.05,158.95L282.05,159.45L282.1,159.5L283.1,159.95C284.2,170.85 284.633,179.183 284.4,184.95L284,188.3C283.6,190.633 282.9,193.1 281.9,195.7L282.15,196.05L279.55,201.05C276.217,184.783 276.283,168.133 279.75,151.1M293,162.45L293,162.4L293.05,162.4L293.8,162.5L297.35,163.1L297.35,164.35L300.4,164.35C301.967,174.683 302.117,185 300.85,195.3C299.283,196.233 297.75,197.217 296.25,198.25C298.283,191.983 297.15,181.5 292.85,166.8L293,166.8L293,162.45M309.8,161.05L310.2,164.35L312.35,164.35C307.283,186.85 307.283,204.3 312.35,216.7L311.65,220.8L309.05,235.55C306.55,222.05 305.467,207.717 305.8,192.55L305.8,192.45L304.8,193.1C303.667,182.233 305.333,171.55 309.8,161.05M295.55,248.95L290.8,251.3L290.8,251.05L288.8,237.5L288.3,237.6L286.45,237.9L286.45,250.2L282.15,251.3L282.15,247.1L282,247.15L281.75,246.25C278.817,236.517 279.233,226.183 283,215.25L283.05,213.45L283,215.25C283.467,214.017 283.833,213.3 284.1,213.1L283.35,212.7L284.1,213.1C283.833,213.3 283.467,214.017 283,215.25L282.8,214.15L283.05,213.45L283.35,212.7L284.05,211L285.6,210.85L287.3,210.55C287.133,226.85 289.883,239.65 295.55,248.95M267.8,251.1L263.45,250.05L263.45,237.75L261.95,237.5L261.1,237.3L259.1,251.05L259.1,251.1L259,251.05L256.05,249.6L255.8,249.5C252.667,237.733 252.317,224.55 254.75,209.95L256.75,210.05L261.25,210.25L261.35,210.25C259.783,219.25 260.15,227.433 262.45,234.8C263.817,239.3 265.917,243.483 268.75,247.35L267.8,246.95L267.8,251.1M282.15,190.65L284.4,184.95L282.15,190.65M301.05,209L301.3,224.55C298.267,220.95 296.65,216.117 296.45,210.05L297.85,209.85L301.05,209M263.45,179.45L267.05,188.6L263.45,179.45M264.55,185.6L267.4,191L264.55,185.6M282.15,191.85L284,188.3L282.15,191.85M283,217.45L283,215.25L286.25,215.25L283,215.25L283,217.45" style="fill:#55542d;"/>
                <path d="M242.7,150.1L248.25,150.1L249.3,164L249.3,164.2C251.5,174.467 251.35,184.75 248.85,195.05C247.05,193.95 245.233,192.933 243.4,192C245.667,194.6 246.533,198.417 246,203.45L245.95,203.95L245.9,204.05L245.85,204.4L245.85,204.6C245.617,206.6 246.55,208 248.65,208.8C246.817,211.767 246.317,215.017 247.15,218.55C243.817,219.817 241.6,224.683 240.5,233.15L237.95,218.6L237.45,215.95L238.1,214.05C240.2,207.317 241.767,199.75 242.8,191.35L242.8,191.7L242.8,191.4C244.267,178.967 244.233,165.2 242.7,150.1M234.1,185.3L234.1,154.4L236.3,153.35L237.35,164.2L237.9,164.2C240.367,173.067 239.1,180.1 234.1,185.3M268.85,197.95L269.3,198.75L269.5,199.2L269.5,199.25C268.4,203.017 265.833,204.633 261.8,204.1L256.8,200.25C261.367,200.317 264.633,198.1 266.6,193.6L268.85,197.95M279.55,201.05L282.15,196.05C285.383,197.05 287.417,199.75 288.25,204.15L288.2,204.15L287.2,205L286.75,205.4L284.45,207.35L282.95,208.7C282.883,205.2 281.75,202.65 279.55,201.05M245.9,204.05L245.9,203.85L245.95,203.6L245.9,203.85L245.9,204.05M245.9,203.85C245.833,204.083 245.817,204.3 245.85,204.5C245.817,204.3 245.833,204.083 245.9,203.85M245.95,203.6L246,203.45L245.95,203.6M242.8,191.7L243.4,192L242.8,191.7" style="fill:#6c6b39;"/>
                <path d="M236.3,153.35L237.35,154.4L238.45,164.2L237.35,164.2L236.3,153.35M303.9,203.85L304.05,204.65C304.317,206.717 303.367,208.15 301.2,208.95L301.05,209L297.85,209.85L296.45,210.05L293.2,210.2L288.35,210.45L287.3,210.55L285.6,210.85L284.05,211L283.05,210.8C282.517,210.6 282.117,210.25 281.85,209.75L281.95,209.65C282.283,210.083 282.783,210.35 283.45,210.45L283.05,210.8L283.45,210.45L283.8,210.5L285.35,210.35L287.05,210.1L288.45,209.95L292.95,209.75L296.25,209.55L297.5,209.35L300.85,208.55L301,208.5C303.1,207.7 304.067,206.317 303.9,204.35L303.9,203.85L303.9,204.35L303.85,204.2L303.55,202.9L303.65,203.15L303.9,203.85M267.55,209.15L268.05,209.6C267.45,210.667 266.217,211.033 264.35,210.7L264.25,210.65L261.35,210.25L261.25,210.25L256.75,210.05L254.75,209.95L254.3,209.95L254.1,209.9L249.3,209L248.65,208.8C246.55,208 245.617,206.6 245.85,204.6C246.017,206 246.95,207.033 248.65,207.7C250.383,208.333 252.417,208.733 254.75,208.9L256.75,208.95L261.25,209.2L264.35,209.6C265.783,209.867 266.85,209.717 267.55,209.15" style="fill:#3c3a20;"/>
                <path d="M301.65,150.5L301.7,150.25L308.45,150.25L309.8,161.05C305.333,171.55 303.667,182.233 304.8,193.1L300.85,195.3C302.117,185 301.967,174.683 300.4,164.35L300.6,164.35L300.7,163.15L301.65,150.5M313.6,153.8L313.65,153.5L313.9,153.65L314.25,153.85L315.8,154.6L315.8,230.65L314.5,231.3L314.5,231.05L312.55,215.45L312.35,216.7C307.283,204.3 307.283,186.85 312.35,164.35L312.55,164.35L313.6,153.8M309.05,235.55L309,235.9L308.45,238.8L303.7,241.95L303.65,241.7L301.4,230.35L301.4,229.65L301.3,225.05L301.3,224.55L301.05,209L301.2,208.95C303.367,208.15 304.317,206.717 304.05,204.65L303.9,203.85L303.85,203.2C303.783,202.733 303.6,202.333 303.3,202C303.6,202.333 303.783,202.733 303.85,203.2L303.9,203.85L303.65,203.15L303.3,202C302.3,198.4 303.083,195.267 305.65,192.6L305.8,192.55L305.65,192.6L304.8,193.1L305.8,192.45L305.8,192.55C305.467,207.717 306.55,222.05 309.05,235.55M246.2,241.8L241.45,238.65L240.5,233.15C241.6,224.683 243.817,219.817 247.15,218.55L248.3,231.45L246.2,241.8M269.5,199.25L273,206L273.05,206.65L269.3,210.8L268.05,209.6L267.55,209.15C266.85,209.717 265.783,209.867 264.35,209.6L261.25,209.2L256.75,208.95L254.75,208.9C252.417,208.733 250.383,208.333 248.65,207.7C246.95,207.033 246.017,206 245.85,204.6L245.85,204.4L245.9,204.05C246.2,205.217 247.117,206.1 248.65,206.7C250.383,207.333 252.417,207.733 254.75,207.9L256.75,207.95L261.25,208.2L264.35,208.6L266.9,208.5L267.55,209.15L266.9,208.5L261.8,204.1C265.833,204.633 268.4,203.017 269.5,199.25M248.85,195.05L254.6,198.7C252.867,198.733 251.267,199.083 249.8,199.75L248.75,200.3C247.217,201.233 246.283,202.45 245.95,203.95L246,203.45C246.533,198.417 245.667,194.6 243.4,192C245.233,192.933 247.05,193.95 248.85,195.05M281.85,209.75L280.6,211L276.7,206.6L279.55,201.05C281.75,202.65 282.883,205.2 282.95,208.7L282.5,209.15L281.95,209.65L282.5,209.15L283.45,209.45L283.8,209.5L285.2,209.4C284.8,209.9 284.217,210.25 283.45,210.45C284.217,210.25 284.8,209.9 285.2,209.4L285.35,209.35L287.05,209.1L287.15,209.1L288.55,209.2L288.45,209.95L288.55,209.2L287.15,209.1L288.45,208.95L288.65,208.9L291.25,208.8L288.55,209.1L288.65,208.9L288.55,209.1L291.25,208.8L292.95,208.75L295.4,208.6L297.5,209.35L295.4,208.6L296.25,208.55L297.5,208.35L300.85,207.55L301,207.5C302.733,206.833 303.7,205.783 303.9,204.35C304.067,206.317 303.1,207.7 301,208.5L300.85,208.55L297.5,209.35L296.25,209.55L292.95,209.75L288.45,209.95L287.05,210.1L285.35,210.35L283.8,210.5L283.45,210.45C282.783,210.35 282.283,210.083 281.95,209.65L281.85,209.75M288.55,209.2L288.55,209.1L288.55,209.2" style="fill:#474625;"/>
                <path d="M271.05,145.75L275.25,146.05L278.85,145.9L279.75,151.1C276.283,168.133 276.217,184.783 279.55,201.05L276.7,206.6L280.6,211L281.85,209.75C282.117,210.25 282.517,210.6 283.05,210.8L284.05,211L283.35,212.7L283.05,213.45L282.8,214.15L283,215.25L282.85,215C281.583,213.233 279.467,212.233 276.5,212C279.467,212.233 281.583,213.233 282.85,215L283,215.25C279.233,226.183 278.817,236.517 281.75,246.25L282,247.15L281.65,247.3L279.75,248.2L279.75,251.1L275.4,251.1L275.4,244.45L275.1,244.6L274.3,244.3L274.2,244.3C275.333,232 274.95,219.45 273.05,206.65L273.2,206.4L273,206C270.233,186.2 269.583,166.117 271.05,145.75M284.65,156.75L288.05,156.75L289.75,166.55L291.7,166.7L292.85,166.8C297.15,181.5 298.283,191.983 296.25,198.25L295.35,198.85L291.45,201.65L289.5,203.15C289.067,203.45 288.65,203.783 288.25,204.15C287.417,199.75 285.383,197.05 282.15,196.05L281.9,195.7C282.9,193.1 283.6,190.633 284,188.3L285.4,185.75L284,188.3L284.4,184.95L286.45,179.6L284.4,184.95C284.633,179.183 284.2,170.85 283.1,159.95L283.2,160L284.65,156.75M301,232.65L299.6,246.95L295.55,248.95C289.883,239.65 287.133,226.85 287.3,210.55L288.35,210.45L293.2,210.2L296.45,210.05C296.65,216.117 298.267,220.95 301.3,224.55L301.3,225.05L301.4,229.65L301.25,229.65L301,232.65M277.55,210.9C279.05,210.767 280.983,211.367 283.35,212.7C280.983,211.367 279.05,210.767 277.55,210.9M284.3,191.85L282.15,196.05L284.3,191.85" style="fill:#605f33;"/>
                <path d="M296.25,198.25C297.75,197.217 299.283,196.233 300.85,195.3L304.8,193.1L305.65,192.6C303.083,195.267 302.3,198.4 303.3,202L303.65,203.15L303.55,202.9C303.017,201.9 302.15,201.05 300.95,200.35L300.1,199.9C298.633,199.267 297.05,198.917 295.35,198.85L296.25,198.25" style="fill:#34331b;"/>
                <path d="M248.25,150.1L249.5,151.15L251.3,164.2L252.55,164.2L252.55,162.95L256.9,162.25L258,162.05L258.05,166.55L258.35,166.55C258.483,175.25 260.9,183.517 265.6,191.35L266.6,193.6C264.633,198.1 261.367,200.317 256.8,200.25L254.6,198.7L248.85,195.05C251.35,184.75 251.5,174.467 249.3,164.2L249.3,164L248.25,150.1M264.65,153.35L265.9,153.35L267.65,159.4C267.317,159.533 267,159.683 266.7,159.85L264.65,153.35M267.85,159.3L268.85,158.75L271.05,145.75C269.583,166.117 270.233,186.2 273,206L269.5,199.25L269.5,199.2L269.3,198.75L268.85,197.95C268.317,195.883 267.883,193.817 267.55,191.75L267.4,191L267.3,190.55L267.05,188.6C265.75,179.067 265.983,169.45 267.75,159.75L267.85,159.3M282.05,159.45L283.45,156.6L284.65,156.75L283.2,160L283.1,159.95L282.1,159.5L282.05,159.45M291.7,166.7L291.7,163.1L293,162.45L293,166.8L292.85,166.8L291.7,166.7M298.5,164.35L300.25,151.15L301.65,150.5L300.7,163.15L300.4,164.35L298.5,164.35M310.5,164.35L312.15,154.4L313.6,153.8L312.55,164.35L310.5,164.35M314.5,231.05L313.25,230.5L311.65,220.8L312.35,216.7L312.55,215.45L314.5,231.05M303.65,241.7L302.55,241.35L301,232.65L301.25,229.65L301.4,230.35L303.65,241.7M290.8,251.05L289.4,250.05L288.3,237.6L288.8,237.5L290.8,251.05M282.15,251.1L281.4,251.1L281.65,247.3L282,247.15L282.15,247.1L282.15,251.1M274.3,246.8L274.3,254.15L269.95,253.3L269.95,247.9L269.05,247.5L268.75,247.35L268.5,251.1L267.8,251.1L267.8,246.95L268.75,247.35C265.917,243.483 263.817,239.3 262.45,234.8C260.15,227.433 259.783,219.25 261.35,210.25L264.25,210.65L264.35,210.7C266.217,211.033 267.45,210.667 268.05,209.6L269.3,210.8L273.05,206.65C274.95,219.45 275.333,232 274.2,244.3L274.3,246.8M261.95,237.5L259.8,251.05L259.1,251.05L261.1,237.3L261.95,237.5M255.8,249.5L250.3,246.8L249,232.9L246.8,241.7L246.2,241.8L248.3,231.45L247.15,218.55C246.317,215.017 246.817,211.767 248.65,208.8L248.7,208.8L249.3,209L254.1,209.9L254.3,209.95L254.75,209.95C252.317,224.55 252.667,237.733 255.8,249.5M237.95,218.6L236.5,230.8L235.4,231.15L237.35,215.25L237.45,215.95L237.95,218.6M249.3,164.2L251.3,164.2L249.3,164.2M256.9,162.25L256.9,166.65L258.05,166.55L256.9,166.65L256.9,162.25M248.85,231.6L248.65,229.5L248.3,231.45L248.65,229.5L248.85,231.6M261.25,218.55C264.283,213.517 267.55,211.333 271.05,212C267.55,211.333 264.283,213.517 261.25,218.55M262.35,215.25C264.217,212.15 267.117,210.7 271.05,210.9C267.117,210.7 264.217,212.15 262.35,215.25" style="fill:#7e7d43;"/>
                <path d="M296.25,198.25C297.75,197.217 299.283,196.233 300.85,195.3C302.117,185 301.967,174.683 300.4,164.35M284,188.3L285.4,185.75M284.4,184.95L282.15,190.65M284.4,184.95L286.45,179.6M305.65,192.6L305.8,192.55M304.8,193.1L305.65,192.6M301.05,209L301.3,224.55M301.3,225.05L301.4,229.65M304.8,193.1L300.85,195.3M269.3,198.75L269.5,199.2M269.5,199.25L273,206C270.233,186.2 269.583,166.117 271.05,145.75M249.3,164.2C251.5,174.467 251.35,184.75 248.85,195.05L254.6,198.7L256.8,200.25L261.8,204.1C265.833,204.633 268.4,203.017 269.5,199.25M266.6,193.6L265.6,191.35M267.4,191L264.55,185.6M267.05,188.6L263.45,179.45M281.85,209.75L280.6,211L276.7,206.6L279.55,201.05L282.15,196.05L284.3,191.85M284,188.3L282.15,191.85M273.05,206.65L273.2,206.4L273,206L273.05,206.65C274.95,219.45 275.333,232 274.2,244.3M268.05,209.6L269.3,210.8L273.05,206.65M268.05,209.6L267.55,209.15L266.9,208.5L261.8,204.1M245.85,204.5L245.85,204.6M282.5,209.15L281.95,209.65L281.85,209.75M283.45,210.45C284.217,210.25 284.8,209.9 285.2,209.4L285.65,208.55L285.7,208.45L284.45,207.35L282.95,208.7L282.5,209.15M283.05,210.8L283.45,210.45M288.45,209.95L288.55,209.2L287.15,209.1L285.75,208.5L285.65,208.55M283.05,213.45L283,215.25C283.467,214.017 283.833,213.3 284.1,213.1L283.35,212.7C280.983,211.367 279.05,210.767 277.55,210.9M282.8,214.15L283,215.25L282.85,215C281.583,213.233 279.467,212.233 276.5,212M286.25,215.25L283,215.25L283,217.45M245.95,203.95C246.283,202.45 247.217,201.233 248.75,200.3L249.8,199.75C251.267,199.083 252.867,198.733 254.6,198.7M246,203.45L245.95,203.6M245.85,204.5C245.817,204.3 245.833,204.083 245.9,203.85M248.65,208.8C246.817,211.767 246.317,215.017 247.15,218.55L248.3,231.45M271.05,210.9C267.117,210.7 264.217,212.15 262.35,215.25M271.05,212C267.55,211.333 264.283,213.517 261.25,218.55M303.65,203.15L303.55,202.9C303.017,201.9 302.15,201.05 300.95,200.35L300.1,199.9C298.633,199.267 297.05,198.917 295.35,198.85L291.45,201.65C291.483,203.083 291.733,204.317 292.2,205.35C292.633,206.317 293.25,207.117 294.05,207.75L295.4,208.6L297.5,209.35M295.35,198.85L296.25,198.25M288.25,204.15C287.417,199.75 285.383,197.05 282.15,196.05M284.45,207.35L286.75,205.4L287.2,205L288.2,204.15M286.75,205.4L287.05,205.75L287.2,205M285.7,208.45C286.467,207.883 286.917,206.983 287.05,205.75C287.55,206.217 288.217,206.3 289.05,206L289.2,206.05C290.3,206.483 291.3,206.25 292.2,205.35M289.5,203.15C289.667,204.217 289.517,205.167 289.05,206L289.05,206.1L289.2,206.05M291.45,201.65L289.5,203.15C289.067,203.45 288.65,203.783 288.25,204.15M288.65,208.9L288.55,209.1L291.25,208.8L294.05,207.75M288.55,209.1L288.55,209.2M285.75,208.5L285.7,208.45M289.05,206.1C289.05,207.3 288.917,208.233 288.65,208.9M266.6,193.6L268.85,197.95M248.85,195.05C247.05,193.95 245.233,192.933 243.4,192L242.8,191.7" style="fill:none;fill-rule:nonzero;stroke:#000;stroke-opacity:0.4;stroke-width:0.2px;"/>
                <path d="M258.05,166.55L258.35,166.55M267.65,159.4L267.85,159.3M293,162.45L293,162.4L293.05,162.4M313.6,153.8L313.65,153.5L313.9,153.65M274.3,244.3L274.3,246.8M238.45,164.2L237.35,164.2L236.3,153.35M235.4,231.15L237.35,215.25L237.45,215.95L237.95,218.6M312.35,164.35L312.55,164.35L313.6,153.8M310.5,164.35L312.35,164.35M312.35,216.7L312.55,215.45L314.5,231.05M292.85,166.8L293,166.8L293,162.45M291.7,166.7L292.85,166.8M300.4,164.35L298.5,164.35M300.4,164.35L300.6,164.35L300.7,163.15L300.4,164.35M300.7,163.15L301.65,150.5M303.3,202C303.6,202.333 303.783,202.733 303.85,203.2L303.9,203.85L303.9,204.35C303.7,205.783 302.733,206.833 301,207.5L300.85,207.55L297.5,208.35L296.25,208.55L295.4,208.6L292.95,208.75L291.25,208.8L288.65,208.9L288.45,208.95L287.15,209.1L287.05,209.1L285.35,209.35L285.2,209.4L283.8,209.5L283.45,209.45L282.5,209.15M301.4,229.65L301.4,230.35L303.65,241.7M267.65,159.4C267.317,159.533 267,159.683 266.7,159.85L264.65,153.35M283.1,159.95L283.2,160L284.65,156.75M282.1,159.5L283.1,159.95M249.3,164.2L249.3,164L248.25,150.1M251.3,164.2L249.3,164.2M258.05,166.55L256.9,166.65L256.9,162.25M266.9,208.5L264.35,208.6L261.25,208.2L256.75,207.95L254.75,207.9C252.417,207.733 250.383,207.333 248.65,206.7C247.117,206.1 246.2,205.217 245.9,204.05L245.9,203.85L245.95,203.6M248.3,231.45L248.65,229.5L248.85,231.6M248.7,208.8L248.65,208.8M246.2,241.8L248.3,231.45M261.95,237.5L261.1,237.3L259.1,251.05M268.75,247.35L267.8,246.95L267.8,251.1M301.4,230.35L301.25,229.65L301,232.65M290.8,251.05L288.8,237.5L288.3,237.6M312.35,216.7L311.65,220.8M282,247.15L282.15,247.1L282.15,251.1M282,247.15L281.65,247.3" style="fill:none;fill-rule:nonzero;stroke:#000;stroke-opacity:0.4;stroke-width:0.2px;"/>
                <path d="M238.45,164.2L239.7,164.2L241.45,150.1L248.25,150.1L249.5,151.15L251.3,164.2L252.55,164.2L252.55,162.95L256.9,162.25L258,162.05L258.05,166.55M258.35,166.55L260.2,166.4L261.2,153.35L264.55,153.35M264.65,153.35L265.9,153.35L267.65,159.4M267.85,159.3L268.85,158.75L271.05,145.75L275.25,146.05L278.85,145.9L279.75,151.1L281.05,158.95L282.05,159.45L283.45,156.6L284.65,156.75L288.05,156.75L289.75,166.55L291.7,166.7L291.7,163.1L293,162.45M293.8,162.5L297.35,163.1L297.35,164.35L298.5,164.35L300.25,151.15L301.65,150.5L301.7,150.25L302.25,150.25M302.55,150.25L308.45,150.25L309.8,161.05L310.2,164.35L310.5,164.35L312.15,154.4L313.6,153.8M314.25,153.85L315.8,154.6L315.8,230.65L314.5,231.3L314.5,231.05L313.25,230.5L311.65,220.8L309.05,235.55M309,235.9L308.45,238.8L303.7,241.95L303.65,241.7L302.55,241.35L301,232.65L299.6,246.95L295.55,248.95L290.8,251.3L290.8,251.05L289.4,250.05L288.3,237.6L286.45,237.9L286.45,250.2L282.15,251.3L282.15,251.1L281.4,251.1L281.65,247.3L279.75,248.2L279.75,251.1L275.4,251.1L275.4,244.45L275.1,244.6L274.3,244.3M274.3,246.8L274.3,254.15L269.95,253.3L269.95,247.9L269.05,247.5M268.75,247.35L268.5,251.1L267.8,251.1L263.45,250.05L263.45,237.75L261.95,237.5L259.8,251.05L259.1,251.05L259.1,251.1L259,251.05L256.05,249.6M255.8,249.5L250.3,246.8L249,232.9L246.8,241.7L246.2,241.8L241.45,238.65L240.5,233.15L237.95,218.6L236.5,230.8L235.4,231.15L234.1,230.5L234.1,154.4L236.3,153.35L237.35,154.4L238.45,164.2M274.2,244.3L274.3,246.8" style="fill:none;fill-rule:nonzero;stroke:#000;stroke-opacity:0.8;stroke-width:1px;"/>
            </g>
        </g>
    </g>
</svg>
