<?xml version="1.0" encoding="UTF-8"?>
<svg version="1.1" viewBox="0 0 81.18 48.736" xmlns="http://www.w3.org/2000/svg" xmlns:cc="http://creativecommons.org/ns#" xmlns:dc="http://purl.org/dc/elements/1.1/" xmlns:rdf="http://www.w3.org/1999/02/22-rdf-syntax-ns#" xmlns:xlink="http://www.w3.org/1999/xlink">
<metadata>
<rdf:RDF>
<cc:Work rdf:about="">
<dc:format>image/svg+xml</dc:format>
<dc:type rdf:resource="http://purl.org/dc/dcmitype/StillImage"/>
</cc:Work>
</rdf:RDF>
</metadata>
<g transform="translate(-234.36 -118.57)">
<use transform="translate(234.4,118.6)" width="81.099998" height="48.700001" xlink:href="#c"/>
</g>
<defs>
<g id="c" transform="translate(40.55,24.35)">
<use transform="translate(-40.55,-24.35)" width="81.099998" height="48.700001" xlink:href="#g"/>
<use transform="translate(-40.55,-24.35)" width="81.099998" height="48.700001" xlink:href="#b"/>
<use transform="translate(-40.4,-23.2)" width="80.949997" height="47.549999" xlink:href="#a"/>
<use transform="translate(-40.55,-24.35)" width="81.099998" height="48.700001" xlink:href="#d"/>
</g>
<g id="g" transform="translate(40.55,24.35)">
<path d="m12.45-20.4 1.6-1.5-1.6 1.5-6.3-0.6h-1.7q0.8-0.75 0.8-1.75 0 1-0.8 1.75l-0.85 0.6-0.95 0.3v0.05l-1.2 0.55q-2.25-0.7-2.35-1.6-0.25-1.1 0.6-1.8-0.85 0.7-0.6 1.8l-19.35 2.35q-2.15 1.7-5.9 2.55-3.8 0.8-6.25 2.5l-2.7 1.25q-2.6 1.1-2.3 4.35 0.25 3.2 1.55 5.15l0.05 0.05 0.95 1.2q4.05 2.7 7.35 4.2l4.2 1.95 7.7 1.9q3.8-0.05 6.8 0.95l0.05-0.05q1.55-1.5 2.65-1.45 1.8 0.6 1.05 1.05 1.25-0.2 1.85 0.55v0.25l8.15 0.5q6.4 0.3 15.1-2.6 3.7-0.05 7.1-1.8l5.9-3.45q5.55-2.2 5.2-4.75-0.35-2.65-0.7-3.5 0.5-2.2 2.2-1.05-1.7-1.15-2.2 1.05-0.05-5.35-5.5-7.2l-5.8-1.9-13.8-3.35m15.55 2.15-1.75 1.2 1.75-1.2 6.45 2.15q5.65 2.05 5.3 7.1 0.5 1.25 0.8 4.05 0.3 2.75-4.55 5.85-2.85 2.25-7.45 4.45-4.65 2.2-9.5 2.65-8.55 3-15.05 2.5l-8.9-0.7 0.05 3.7q0.2 4.6 1.2 8.75 0.5 1.35-0.7 2-2.15 0.35-2.4-0.75-0.6-2.55-0.05-6.55-0.5-3.2 0.6-6.65-0.3 0.1-0.8 0.35l-0.7-0.25q-1.55 5.7-3.8 8.6l-2.3 4q-2.7 0.1-2-2.6 2.3-2.55 4.1-5.4l2.8-5.2-0.25-0.3q-5.45-0.5-10.3-1.6-5.95-0.35-7.7-1.65l-2.15-1.5q-7-2.25-8.7-5.8-3.15-2.2-2.15-5.1l-0.4-3q-0.3-2.8 6.8-6.25 2.25-1.45 7.25-3.65 4.95-2.2 11.25-2.65 7.25-1.9 14.95-1.2 1.55-1.5 2.65-1.45 1.8 0.6 1.05 1.05 1.25-0.2 1.85 0.55l8.8 0.85q8 0.25 13.95 3.65m-24.6-5.05-1.05 0.5q-0.75 0.4-0.8 1.4-0.1 0.95 1.1 1.35-1.2-0.4-1.1-1.35 0.05-1 0.8-1.4l1.05-0.5m32.6 24.2q0.3-1.65-2.95-0.6 3.25-1.05 2.95 0.6m-16.95 7.1q1.35-1.15 1-2.45 0.35 1.3-1 2.45m-51.45-21.7q0.8-0.7-1.35-1.7 2.15 1 1.35 1.7m-2.45 12q-2.4-0.2-3.15 0.65 0.75-0.85 3.15-0.65m-5.3-4.45q2-0.1 4.3 3.2-2.3-3.3-4.3-3.2m24.9-15.55q-3.35 1-5 2.95 1.65-1.95 5-2.95m8.35 30.45q0.05-0.85 0.6-1.25l0.2-0.15-0.2 0.15q-0.55 0.4-0.6 1.25-0.1 0.6 0.35 0.95l0.75 0.4-0.75-0.4q-0.45-0.35-0.35-0.95m1.1 1.3v0.05-0.05l0.9-0.25-0.9 0.25m0.95-0.3-0.05 0.05 0.05-0.05 0.85-0.6q0.7-0.65 0.8-1.5-0.1 0.85-0.8 1.5l-0.85 0.6m-1.35 0.55 0.4-0.2-0.4 0.2m-2.7-0.5 1.2 0.6-1.2-0.6m0.1-2.5q-0.8 0.7-0.55 1.75l0.2 0.45-0.2-0.45q-0.25-1.05 0.55-1.75m-14.5-2.85q-4.2-1.15-6 0.3 1.8-1.45 6-0.3m16.5 12.5q0.95-3.3 1.95-3.45-1 0.15-1.95 3.45m0.05 6.55q1.35-2 3.1-1.25-1.75-0.75-3.1 1.25m-4.75-4.5q0.6-2.8-0.2-4 0.8 1.2 0.2 4m-2.3 4q0.65-1.2 0.05-2.1-0.85-1.25-2.05-0.5 1.2-0.75 2.05 0.5 0.6 0.9-0.05 2.1m-5.65-15.1q0-1.65 3.85-1.55-3.85-0.1-3.85 1.55m14.4-1.05-1.05 0.5 1.05-0.5" fill="#fff" fill-rule="evenodd"/>
<path d="m14.05-21.9-1.6 1.5m13.8 3.35 1.75-1.2m-23.55-2.75h1.7m33.6 12q-1.7-1.15-2.2 1.05m-4.5 8.25q3.25-1.05 2.95 0.6m-40.9 8.9 0.05 3.7q0.2 4.6 1.2 8.75 0.5 1.35-0.7 2-2.15 0.35-2.4-0.75-0.6-2.55-0.05-6.55-0.5-3.2 0.6-6.65m-1.5 0.1q-1.55 5.7-3.8 8.6l-2.3 4q-2.7 0.1-2-2.6 2.3-2.55 4.1-5.4l2.8-5.2m28.95-4.25q0.35 1.3-1 2.45m-51.45-21.7-2.7 1.25m-0.75 9.5 0.05 0.05m30.75 9.75q1.25-0.2 1.85 0.55m-30.55-22.8q2.15 1 1.35 1.7m12.15-5.05q1.65-1.95 5-2.95m-20.6 18.75q-2.3-3.3-4.3-3.2m2.15 5.1q0.75-0.85 3.15-0.65m27.95 10.45q-0.1 0.6 0.35 0.95l0.75 0.4m0-0.05 0.9-0.25 0.05-0.05m-1.25-2.4 1.05-0.5m-10.55-0.5q-3.85-0.1-3.85 1.55m3.65 12.5q1.2-0.75 2.05 0.5 0.6 0.9-0.05 2.1m2.1-8q0.8 1.2 0.2 4m7.85 3.25q-1.75-0.75-3.1 1.25m1.9-10q-1 0.15-1.95 3.45m-22.5-12.2q1.8-1.45 6-0.3" fill="none" stroke="#000" stroke-linecap="round" stroke-linejoin="round" stroke-opacity=".4" stroke-width=".05"/>
<path d="m12.45-20.4 13.8 3.35m1.75-1.2q-5.95-3.4-13.95-3.65l-8.8-0.85q0 1-0.8 1.75m1.7 0 6.3 0.6m-9.8 0.35q-1.2-0.4-1.1-1.35 0.05-1 0.8-1.4l1.05-0.5q0.75-0.45-1.05-1.05-1.1-0.05-2.65 1.45-0.85 0.7-0.6 1.8 0.1 0.9 2.35 1.6l1.2-0.55v-0.05l0.95-0.3 0.85-0.6m0.8-1.75q-0.6-0.75-1.85-0.55m34.15 15.35q0.35 0.85 0.7 3.5 0.35 2.55-5.2 4.75m2.95 0.6q4.85-3.1 4.55-5.85-0.3-2.8-0.8-4.05 0.35-5.05-5.3-7.1l-6.45-2.15m9.55 10.3q-0.05-5.35-5.5-7.2l-5.8-1.9m9.75 17.95q-2.85 2.25-7.45 4.45-4.65 2.2-9.5 2.65-8.55 3-15.05 2.5l-8.9-0.7m-1.3 0.5q-0.3 0.1-0.8 0.35l-0.7-0.25-1.2-0.6-0.25-0.3q-5.45-0.5-10.3-1.6-5.95-0.35-7.7-1.65l-2.15-1.5q-7-2.25-8.7-5.8-3.15-2.2-2.15-5.1l-0.4-3q-0.3-2.8 6.8-6.25 2.25-1.45 7.25-3.65 4.95-2.2 11.25-2.65 7.25-1.9 14.95-1.2m-2.9 30.3v0.25l8.15 0.5q6.4 0.3 15.1-2.6 3.7-0.05 7.1-1.8l5.9-3.45m-68.15-12.75q-2.6 1.1-2.3 4.35 0.25 3.2 1.55 5.15m0.05 0.05 0.95 1.2q4.05 2.7 7.35 4.2l4.2 1.95 7.7 1.9q3.8-0.05 6.8 0.95l0.05-0.05q1.55-1.5 2.65-1.45 1.8 0.6 1.05 1.05m-27.35-20.55q2.45-1.7 6.25-2.5 3.75-0.85 5.9-2.55m19.35-2.35-19.35 2.35m14.15 26.1-0.2 0.15q-0.55 0.4-0.6 1.25m1.1 1.35v-0.05m0.95-0.3 0.85-0.6q0.7-0.65 0.8-1.5m-5.95 1.85-0.2-0.45q-0.25-1.05 0.55-1.75m3 2.8-0.4 0.2" fill="none" stroke="#000" stroke-linecap="round" stroke-linejoin="round" stroke-opacity=".4" stroke-width=".05"/>
</g>
<g id="b" transform="translate(40.55,24.35)">
<use transform="translate(-40.55,-24.35)" width="81.099998" height="48.700001" xlink:href="#f"/>
</g>
<g id="f" transform="translate(40.55,24.35)">
<path d="m12.45-20.4 1.6-1.5-1.6 1.5-6.3-0.6h-1.7l-0.85 0.6-0.95 0.3v0.05l-1.2 0.55q-2.25-0.7-2.35-1.6l-19.35 2.35q-2.15 1.7-5.9 2.55-3.8 0.8-6.25 2.5l-2.7 1.25q-2.6 1.1-2.3 4.35 0.25 3.2 1.55 5.15l0.05 0.05 0.95 1.2q4.05 2.7 7.35 4.2l4.2 1.95 7.7 1.9q3.8-0.05 6.8 0.95l0.05-0.05q1.55-1.5 2.65-1.45 1.8 0.6 1.05 1.05 1.25-0.2 1.85 0.55v0.25l8.15 0.5q6.4 0.3 15.1-2.6 3.7-0.05 7.1-1.8l5.9-3.45q5.55-2.2 5.2-4.75-0.35-2.65-0.7-3.5-0.05-5.35-5.5-7.2l-5.8-1.9-13.8-3.35m15.55 2.15-1.75 1.2 1.75-1.2 6.45 2.15q5.65 2.05 5.3 7.1-1.7-1.15-2.2 1.05 0.5-2.2 2.2-1.05 0.5 1.25 0.8 4.05 0.3 2.75-4.55 5.85-2.85 2.25-7.45 4.45-4.65 2.2-9.5 2.65 1.35-1.15 1-2.45 0.35 1.3-1 2.45-8.55 3-15.05 2.5l-8.9-0.7 0.05 3.7q0.2 4.6 1.2 8.75 0.5 1.35-0.7 2-2.15 0.35-2.4-0.75-0.6-2.55-0.05-6.55-0.5-3.2 0.6-6.65-0.3 0.1-0.8 0.35l-0.7-0.25q-1.55 5.7-3.8 8.6l-2.3 4q-2.7 0.1-2-2.6 2.3-2.55 4.1-5.4l2.8-5.2-0.25-0.3q-5.45-0.5-10.3-1.6-5.95-0.35-7.7-1.65l-2.15-1.5q-7-2.25-8.7-5.8-3.15-2.2-2.15-5.1l-0.4-3q-0.3-2.8 6.8-6.25 2.25-1.45 7.25-3.65 4.95-2.2 11.25-2.65 7.25-1.9 14.95-1.2 1.55-1.5 2.65-1.45 1.8 0.6 1.05 1.05l-1.05 0.5q-0.75 0.4-0.8 1.4-0.1 0.95 1.1 1.35-1.2-0.4-1.1-1.35 0.05-1 0.8-1.4l1.05-0.5q1.25-0.2 1.85 0.55l8.8 0.85q8 0.25 13.95 3.65m-23.55-2.75q0.8-0.75 0.8-1.75 0 1-0.8 1.75m-5.35-0.1q-0.25-1.1 0.6-1.8-0.85 0.7-0.6 1.8m33.95 21.4q3.25-1.05 2.95 0.6 0.3-1.65-2.95-0.6m-48.3-22q-3.35 1-5 2.95 1.65-1.95 5-2.95m-24.9 15.55q2-0.1 4.3 3.2-2.3-3.3-4.3-3.2m5.3 4.45q-2.4-0.2-3.15 0.65 0.75-0.85 3.15-0.65m2.45-12q0.8-0.7-1.35-1.7 2.15 1 1.35 1.7m25.5 22.45q0.05-0.85 0.6-1.25l0.2-0.15-0.2 0.15q-0.55 0.4-0.6 1.25-0.1 0.6 0.35 0.95l0.75 0.4-0.75-0.4q-0.45-0.35-0.35-0.95m1.1 1.3v0.05-0.05l0.9-0.25-0.9 0.25m0.95-0.3-0.05 0.05 0.05-0.05 0.85-0.6q0.7-0.65 0.8-1.5-0.1 0.85-0.8 1.5l-0.85 0.6m-1.35 0.55 0.4-0.2-0.4 0.2m-2.7-0.5 1.2 0.6-1.2-0.6m0.1-2.5q-0.8 0.7-0.55 1.75l0.2 0.45-0.2-0.45q-0.25-1.05 0.55-1.75m-14.5-2.85q-4.2-1.15-6 0.3 1.8-1.45 6-0.3m16.55 19.05q1.35-2 3.1-1.25-1.75-0.75-3.1 1.25m-0.05-6.55q0.95-3.3 1.95-3.45-1 0.15-1.95 3.45m-7 6.05q0.65-1.2 0.05-2.1-0.85-1.25-2.05-0.5 1.2-0.75 2.05 0.5 0.6 0.9-0.05 2.1m2.3-4q0.6-2.8-0.2-4 0.8 1.2 0.2 4m-7.95-11.1q0-1.65 3.85-1.55-3.85-0.1-3.85 1.55m14.4-1.05-1.05 0.5 1.05-0.5" fill="#0cf" fill-rule="evenodd"/>
<path d="m14.05-21.9-1.6 1.5m13.8 3.35 1.75-1.2m-23.55-2.75h1.7m-38.55 7.3-2.7 1.25m-0.75 9.5 0.05 0.05m30.75 9.75q1.25-0.2 1.85 0.55m42.95-16.4q-1.7-1.15-2.2 1.05m-17.5 13.5q0.35 1.3-1 2.45m16.95-7.1q0.3-1.65-2.95-0.6m-37.95 9.5 0.05 3.7q0.2 4.6 1.2 8.75 0.5 1.35-0.7 2-2.15 0.35-2.4-0.75-0.6-2.55-0.05-6.55-0.5-3.2 0.6-6.65m-1.5 0.1q-1.55 5.7-3.8 8.6l-2.3 4q-2.7 0.1-2-2.6 2.3-2.55 4.1-5.4l2.8-5.2m-24.85-25.2q2.15 1 1.35 1.7m-5.6 12.65q0.75-0.85 3.15-0.65m-1-1.25q-2.3-3.3-4.3-3.2m19.9-12.6q1.65-1.95 5-2.95m8.35 30.45q-0.1 0.6 0.35 0.95l0.75 0.4m0-0.05 0.9-0.25 0.05-0.05m-1.25-2.4 1.05-0.5m-10.55-0.5q-3.85-0.1-3.85 1.55m7.75 7.1q0.8 1.2 0.2 4m-4.3 1.4q1.2-0.75 2.05 0.5 0.6 0.9-0.05 2.1m8.95-9.5q-1 0.15-1.95 3.45m3.15 5.3q-1.75-0.75-3.1 1.25m-22.55-18.75q1.8-1.45 6-0.3" fill="none" stroke="#0cf" stroke-linecap="round" stroke-linejoin="round" stroke-opacity=".4" stroke-width=".05"/>
<path d="m12.45-20.4 13.8 3.35m1.75-1.2q-5.95-3.4-13.95-3.65l-8.8-0.85q0 1-0.8 1.75l-0.85 0.6-0.95 0.3v0.05l-1.2 0.55q-2.25-0.7-2.35-1.6l-19.35 2.35q-2.15 1.7-5.9 2.55-3.8 0.8-6.25 2.5m38.55-7.3 6.3 0.6m-47.55 7.95q-2.6 1.1-2.3 4.35 0.25 3.2 1.55 5.15m0.05 0.05 0.95 1.2q4.05 2.7 7.35 4.2l4.2 1.95 7.7 1.9q3.8-0.05 6.8 0.95l0.05-0.05q1.55-1.5 2.65-1.45 1.8 0.6 1.05 1.05m1.85 0.55v0.25l8.15 0.5q6.4 0.3 15.1-2.6 3.7-0.05 7.1-1.8l5.9-3.45q5.55-2.2 5.2-4.75-0.35-2.65-0.7-3.5-0.05-5.35-5.5-7.2l-5.8-1.9m-22.85-6.25q0.75-0.45-1.05-1.05-1.1-0.05-2.65 1.45-0.85 0.7-0.6 1.8m3.55 1.05q-1.2-0.4-1.1-1.35 0.05-1 0.8-1.4l1.05-0.5q1.25-0.2 1.85 0.55m34.5 13.75q0.35-5.05-5.3-7.1l-6.45-2.15m8 19.15q4.85-3.1 4.55-5.85-0.3-2.8-0.8-4.05m-20.7 17q4.85-0.45 9.5-2.65 4.6-2.2 7.45-4.45m-16.95 7.1q-8.55 3-15.05 2.5l-8.9-0.7m-1.3 0.5q-0.3 0.1-0.8 0.35l-0.7-0.25-1.2-0.6-0.25-0.3q-5.45-0.5-10.3-1.6-5.95-0.35-7.7-1.65l-2.15-1.5q-7-2.25-8.7-5.8-3.15-2.2-2.15-5.1l-0.4-3q-0.3-2.8 6.8-6.25 2.25-1.45 7.25-3.65 4.95-2.2 11.25-2.65 7.25-1.9 14.95-1.2m-5.8 30.25-0.2 0.15q-0.55 0.4-0.6 1.25m1.1 1.35v-0.05m0.95-0.3 0.85-0.6q0.7-0.65 0.8-1.5m-5.95 1.85-0.2-0.45q-0.25-1.05 0.55-1.75m3 2.8-0.4 0.2" fill="none" stroke="#0cf" stroke-linecap="round" stroke-linejoin="round" stroke-opacity=".4" stroke-width=".05"/>
</g>
<g id="a" transform="translate(40.45,23.75)">
<use transform="translate(-40.45,-23.75)" width="80.949997" height="47.549999" xlink:href="#e"/>
</g>
<g id="e" transform="translate(40.45,23.75)">
<path d="m-32.45-14.25-2.7 1.25q-2.6 1.1-2.3 4.35h-0.05l-0.45-3.55 2.8-1.9 15.5-6.2 12.65-2.05h6.5l1.95-1.4 1.6 0.85v0.85l1.3-0.95 20.75 3.95 7.6 2.45 3.85 2.8 1.25 1.95-0.35 2.35q-0.55-4.55-5.45-6.2l-5.8-1.9-13.8-3.35-6.3-0.6h-1.7l-0.85 0.6-0.95 0.3v0.05l-1.2 0.55q-2.25-0.7-2.35-1.6l-19.35 2.35q-2.15 1.7-5.9 2.55-3.8 0.8-6.25 2.5m5.25 19.95q-1.7-1.35-2.15-1.5-7-2.25-8.7-5.8-3.15-2.2-2.15-5.1l2.4 3.6 5.1 4.4 9.75 4.6 9.65 1.7h4.35l1.4-1.3 1.85 0.75v1.2l1.15-1.4 0.95 1.3 6.2 0.5 10.6-0.5 7.2-2.35 6.85-1.5 9.2-5.25 2.75-3.2 1.1-2.95 0.2 1.6q0.3 2.75-4.55 5.85-2.85 2.25-7.45 4.45-4.65 2.2-9.5 2.65-8.55 3-15.05 2.5l-8.9-0.7-1 7.85v4.05l0.45-0.95 1.95 2q0.1 1-0.85 1.5-2.15 0.35-2.4-0.75-0.6-2.55-0.05-6.55-0.5-3.2 0.6-6.65l-0.8 0.35-0.7-0.25-0.3 1-1.55 1.35-2.75 5.35-1.4 1.7 0.5 2.25-0.6 0.95q-2.7 0.1-2-2.6 2.3-2.55 4.1-5.4l2.8-5.2-0.25-0.3-10.3-1.6q-5.95-0.35-7.7-1.65m22.25 3.55 0.05-0.05-0.05 0.05" fill-opacity=".34902" fill-rule="evenodd"/>
</g>
<g id="d" transform="translate(40.55,24.35)">
<path d="m14.05-21.9-1.6 1.5m13.8 3.35 1.75-1.2m-23.55-2.75h1.7m33.6 12q-1.7-1.15-2.2 1.05m-4.5 8.25q3.25-1.05 2.95 0.6m-40.9 8.9 0.05 3.7q0.2 4.6 1.2 8.75 0.5 1.35-0.7 2-2.15 0.35-2.4-0.75-0.6-2.55-0.05-6.55-0.5-3.2 0.6-6.65m-1.5 0.1q-1.55 5.7-3.8 8.6l-2.3 4q-2.7 0.1-2-2.6 2.3-2.55 4.1-5.4l2.8-5.2m28.95-4.25q0.35 1.3-1 2.45m-51.45-21.7-2.7 1.25m-0.75 9.5 0.05 0.05m30.75 9.75q1.25-0.2 1.85 0.55m-30.55-22.8q2.15 1 1.35 1.7m12.15-5.05q1.65-1.95 5-2.95m-20.6 18.75q-2.3-3.3-4.3-3.2m2.15 5.1q0.75-0.85 3.15-0.65m27.95 10.45q-0.1 0.6 0.35 0.95l0.75 0.4m0-0.05 0.9-0.25 0.05-0.05m-1.25-2.4 1.05-0.5m-10.55-0.5q-3.85-0.1-3.85 1.55m3.65 12.5q1.2-0.75 2.05 0.5 0.6 0.9-0.05 2.1m2.1-8q0.8 1.2 0.2 4m7.85 3.25q-1.75-0.75-3.1 1.25m1.9-10q-1 0.15-1.95 3.45m-22.5-12.2q1.8-1.45 6-0.3" fill="none" stroke="#000" stroke-linecap="round" stroke-linejoin="round" stroke-opacity=".4" stroke-width=".05"/>
<path d="m12.45-20.4 13.8 3.35m1.75-1.2q-5.95-3.4-13.95-3.65l-8.8-0.85q0 1-0.8 1.75l-0.85 0.6-0.95 0.3v0.05q-1.2-0.4-1.1-1.35 0.05-1 0.8-1.4l1.05-0.5q0.75-0.45-1.05-1.05-1.1-0.05-2.65 1.45-0.85 0.7-0.6 1.8 0.1 0.9 2.35 1.6l1.2-0.55m3.5-0.95 6.3 0.6m-7.2-2.35q-0.6-0.75-1.85-0.55m34.15 15.35q0.35 0.85 0.7 3.5 0.35 2.55-5.2 4.75m2.95 0.6q4.85-3.1 4.55-5.85-0.3-2.8-0.8-4.05 0.35-5.05-5.3-7.1l-6.45-2.15m9.55 10.3q-0.05-5.35-5.5-7.2l-5.8-1.9m9.75 17.95q-2.85 2.25-7.45 4.45-4.65 2.2-9.5 2.65-8.55 3-15.05 2.5l-8.9-0.7m-1.3 0.5q-0.3 0.1-0.8 0.35l-0.7-0.25-1.2-0.6-0.25-0.3q-5.45-0.5-10.3-1.6-5.95-0.35-7.7-1.65l-2.15-1.5q-7-2.25-8.7-5.8-3.15-2.2-2.15-5.1l-0.4-3q-0.3-2.8 6.8-6.25 2.25-1.45 7.25-3.65 4.95-2.2 11.25-2.65 7.25-1.9 14.95-1.2m-2.9 30.3v0.25l8.15 0.5q6.4 0.3 15.1-2.6 3.7-0.05 7.1-1.8l5.9-3.45m-68.15-12.75q-2.6 1.1-2.3 4.35 0.25 3.2 1.55 5.15m0.05 0.05 0.95 1.2q4.05 2.7 7.35 4.2l4.2 1.95 7.7 1.9q3.8-0.05 6.8 0.95l0.05-0.05q1.55-1.5 2.65-1.45 1.8 0.6 1.05 1.05m-27.35-20.55q2.45-1.7 6.25-2.5 3.75-0.85 5.9-2.55m19.35-2.35-19.35 2.35m14.15 26.1-0.2 0.15q-0.55 0.4-0.6 1.25m1.1 1.35v-0.05m0.95-0.3 0.85-0.6q0.7-0.65 0.8-1.5m-5.95 1.85-0.2-0.45q-0.25-1.05 0.55-1.75m3 2.8-0.4 0.2" fill="none" stroke="#000" stroke-linecap="round" stroke-linejoin="round" stroke-opacity=".4" stroke-width=".05"/>
</g>
</defs>
</svg>
