<?xml version="1.0" encoding="UTF-8"?>
<svg width="149px" height="169px" version="1.1" viewBox="161.85 96.2 149.4 169.35" xmlns="http://www.w3.org/2000/svg" xmlns:xlink="http://www.w3.org/1999/xlink">
<defs>
<linearGradient id="p" x1="-819.2" x2="819.2" gradientTransform="matrix(.040314 .040878 -.035522 .035034 260.65 158.85)" gradientUnits="userSpaceOnUse">
<stop stop-color="#ffffd7" offset="0"/>
<stop stop-color="#fffff8" offset="1"/>
</linearGradient>
<linearGradient id="h" x1="-819.2" x2="819.2" gradientTransform="matrix(-.0020142 .011444 -.028641 -.0050507 282.9 208.55)" gradientUnits="userSpaceOnUse">
<stop stop-color="#ffd341" offset="0"/>
<stop stop-color="#ffe591" offset="1"/>
</linearGradient>
<linearGradient id="g" x1="-819.2" x2="819.2" gradientTransform="matrix(.019608 .013031 -.01152 .017349 265.3 135.55)" gradientUnits="userSpaceOnUse">
<stop stop-color="#ffd341" offset="0"/>
<stop stop-color="#ffe591" offset="1"/>
</linearGradient>
<linearGradient id="f" x1="-819.2" x2="819.2" gradientTransform="matrix(.031555 .009079 -.0065308 .02272 277.3 152.05)" gradientUnits="userSpaceOnUse">
<stop stop-color="#6f4400" offset="0"/>
<stop stop-color="#573502" offset="1"/>
</linearGradient>
<linearGradient id="e" x1="-819.2" x2="819.2" gradientTransform="matrix(.013977 .019913 -.021912 .015381 229.35 173.6)" gradientUnits="userSpaceOnUse">
<stop stop-color="#ffd341" offset="0"/>
<stop stop-color="#ffe591" offset="1"/>
</linearGradient>
<linearGradient id="d" x1="-819.2" x2="819.2" gradientTransform="matrix(.028793 -.0002594 .00015259 .016022 239.85 142.35)" gradientUnits="userSpaceOnUse">
<stop stop-color="#6f4400" offset="0"/>
<stop stop-color="#573502" offset="1"/>
</linearGradient>
<linearGradient id="c" x1="-819.2" x2="819.2" gradientTransform="matrix(.019104 -.004776 .0020905 .0083313 232.05 111.55)" gradientUnits="userSpaceOnUse">
<stop stop-color="#ffd342" offset="0"/>
<stop stop-color="#ffe388" offset="1"/>
</linearGradient>
<linearGradient id="b" x1="-819.2" x2="819.2" gradientTransform="matrix(.021942 -.0020142 .0016632 .018036 204.95 149.7)" gradientUnits="userSpaceOnUse">
<stop stop-color="#6f4400" offset="0"/>
<stop stop-color="#573502" offset="1"/>
</linearGradient>
<linearGradient id="a" x1="-819.2" x2="819.2" gradientTransform="matrix(.017502 .0081329 -.016388 .035217 204.05 188.65)" gradientUnits="userSpaceOnUse">
<stop stop-color="#ffd341" offset="0"/>
<stop stop-color="#ffe591" offset="1"/>
</linearGradient>
<linearGradient id="o" x1="-819.2" x2="819.2" gradientTransform="matrix(.027145 .0046997 -.004776 .027618 252.7 208.4)" gradientUnits="userSpaceOnUse">
<stop stop-color="#ffffd7" offset="0"/>
<stop stop-color="#fffff8" offset="1"/>
</linearGradient>
<linearGradient id="n" x1="-819.2" x2="819.2" gradientTransform="matrix(.019928 -.0049896 .0022125 .0088043 274.15 244.65)" gradientUnits="userSpaceOnUse">
<stop stop-color="#ffffd7" offset="0"/>
<stop stop-color="#fffff8" offset="1"/>
</linearGradient>
<linearGradient id="m" x1="-819.2" x2="819.2" gradientTransform="matrix(.011612 .0020447 -.0042114 .023895 261.35 231.35)" gradientUnits="userSpaceOnUse">
<stop stop-color="#ffd341" offset="0"/>
<stop stop-color="#ffe591" offset="1"/>
</linearGradient>
<linearGradient id="l" x1="-819.2" x2="819.2" gradientTransform="matrix(.030411 -.0077515 .0033112 .013031 288.95 184.1)" gradientUnits="userSpaceOnUse">
<stop stop-color="#ffffd7" offset="0"/>
<stop stop-color="#fffff8" offset="1"/>
</linearGradient>
<linearGradient id="k" x1="-819.2" x2="819.2" gradientTransform="matrix(.01889 .0032501 -.0036774 .021332 239 247.25)" gradientUnits="userSpaceOnUse">
<stop stop-color="#ffd341" offset="0"/>
<stop stop-color="#ffe591" offset="1"/>
</linearGradient>
<linearGradient id="j" x1="-819.2" x2="819.2" gradientTransform="matrix(.0081024 -.0029602 .001358 .0037231 255.85 251.7)" gradientUnits="userSpaceOnUse">
<stop stop-color="#ffffd7" offset="0"/>
<stop stop-color="#fffff8" offset="1"/>
</linearGradient>
<linearGradient id="i" x1="-819.2" x2="819.2" gradientTransform="matrix(.017197 .0080109 -.013046 .02803 225.65 228.95)" gradientUnits="userSpaceOnUse">
<stop stop-color="#ffffd7" offset="0"/>
<stop stop-color="#fffff8" offset="1"/>
</linearGradient>
<g id="q">
<path d="m247.2 100.4 0.45-0.2q10.9-4 26.35 14.35 15.4 18.35 26.35 48.25 10.9 29.95 10.9 53.85 0 7.3-1 12.8-2.25 12.4-9.85 15.2l-0.65 0.2-0.55 0.2-0.55 0.05q-6.95 1.35-15.6-5.75l-3.95-3.6-5-5.55q-7-8.25-13.05-18.95-6.75-11.95-12.4-26.9l-0.85-2.4q-6.5-17.7-9.2-33.3-1.65-10.2-1.8-19.45l0.05-1.1q-0.05-6 0.65-10.7 1.9-13.15 9-16.65l0.25-0.15 0.45-0.2m18.2 112.3q2.15 4.2 7.75 10.9 9.9 11.75 17.6 12.95l5.3-0.45q2.5-1 4.35-3.05 5.05-5.9 5.05-21.25 0-13.75-4.15-29.75l-3.45-11.55-1.9-5.4q-3-8.2-6.35-15.35-4.35-9.35-9.45-17-3.4-5.15-7.05-9.55-13.35-15.85-22.8-12.4t-9.5 24.2l0.15 4.85 0.5 5.9q0.9 8.1 3.1 17 2.2 9.15 5.8 19 1.9 5.25 5.45 12.85l5.35 11.05 0.45 1.05 1.4 2.6 0.25 0.45 2.15 2.95" fill="url(#p)"/>
<path d="m301.3 182.05q4.15 16 4.15 29.75 0 15.35-5.05 21.25-1.85 2.05-4.35 3.05l-5.3 0.45q-7.7-1.2-17.6-12.95-5.6-6.7-7.75-10.9l-0.4-8.15 36.3-22.5" fill="url(#h)"/>
<path d="m240.95 139.85-0.15-4.85q0.05-20.75 9.5-24.2t22.8 12.4q3.65 4.4 7.05 9.55l-39.2 7.1" fill="url(#g)"/>
<path d="m289.6 149.75q3.35 7.15 6.35 15.35l1.9 5.4-36.1 19.05q-5.25-14.1-11.9-28.3l39.75-11.5" fill="#c99a0e"/>
<path d="m241.45 145.75-0.5-5.9 39.2-7.1q5.1 7.65 9.45 17l-39.75 11.5-8.4-15.5" fill="url(#f)"/>
<path d="m238.6 148.65q2.7 15.6 9.2 33.3l0.85 2.4-28.8 13.95-3.5-10.2q-5.55-17.05-7.75-32.4l30-7.05" fill="url(#e)"/>
<path d="m237.5 117.4q-0.7 4.7-0.65 10.7l-0.05 1.1-29.55 5.4-32.9 13.55q0.55-7 2.35-11.7l31.3-13.15 29.5-5.9" fill="#bc8c02"/>
<path d="m236.8 129.2q0.15 9.25 1.8 19.45l-30 7.05q-1.5-11-1.35-21.1l29.55-5.4" fill="url(#d)"/>
<path d="m246.5 100.75q-7.1 3.5-9 16.65l-29.5 5.9q0.45-2.95 2.1-4.15-1.35 0.3 7.85-4.55 9.25-4.8 28.55-13.85" fill="url(#c)"/>
<path d="m207.25 134.6q-0.15 10.1 1.35 21.1l-33.6 11.7q-0.85-6.8-0.85-13.2l0.2-6.05 32.9-13.55" fill="url(#b)"/>
<path d="m175 167.4 33.6-11.7q2.2 15.35 7.75 32.4l3.5 10.2-30.55 18.65q-2.55-5.95-4.95-12.5-7.25-19.95-9.35-37.05" fill="url(#a)"/>
<path d="m210.1 119.15q-1.65 1.2-2.1 4.15l-31.3 13.15q3.05-4.05 4.8-5.45l28.6-11.85" fill="#ffd341"/>
<path d="m248.65 184.35q5.65 14.95 12.4 26.9l-26.85 17.2q-7.85-12.8-14.35-30.15l28.8-13.95" fill="url(#o)"/>
<path d="m279.1 235.75 3.95 3.6q8.65 7.1 15.6 5.75l-38.5 8.5-0.5 0.25h-0.2q-2.25 0.45-7.05-3.3l-0.85-0.7 27.55-14.1" fill="url(#n)"/>
<path d="m261.05 211.25q6.05 10.7 13.05 18.95l5 5.55-27.55 14.1q-8.2-6.6-17.35-21.4l26.85-17.2" fill="url(#m)"/>
<path d="m297.85 170.5 3.45 11.55-36.3 22.5-3.25-15 36.1-19.05" fill="url(#l)"/>
<path d="m232.25 263.15q-9.75 2.4-23.3-13.75l-0.5-0.55 25.75-20.4q9.15 14.8 17.35 21.4l-12.95 11.15q-2.8 1.55-5.6 2l-0.75 0.15" fill="url(#k)"/>
<path d="m238.6 261 12.95-11.15 0.85 0.7q4.8 3.75 7.05 3.3l-5.75 1.35-0.4 0.1q-8.2 2.2-14.7 5.7" fill="url(#j)"/>
<path d="m189.3 216.95 30.55-18.65q6.5 17.35 14.35 30.15l-25.75 20.4q-10.7-12.9-19.15-31.9" fill="url(#i)"/>
<path d="m299.75 244.85 0.65-0.2q7.6-2.8 9.85-15.2 1-5.5 1-12.8 0-23.9-10.9-53.85-10.95-29.9-26.35-48.25-15.45-18.35-26.35-14.35l-0.45 0.2m-72.2 67q2.1 17.1 9.35 37.05 2.4 6.55 4.95 12.5m-14.95-68.8-0.2 6.05q0 6.4 0.85 13.2m1.7-30.95q-1.8 4.7-2.35 11.7m2.35-11.7q3.05-4.05 4.8-5.45m50.75 132.15q-9.75 2.4-23.3-13.75l-0.5-0.55q-10.7-12.9-19.15-31.9" fill="none" stroke="#000" stroke-opacity=".4" stroke-width=".5"/>
<path d="m247.2 100.4-0.45 0.2-0.25 0.15q-19.3 9.05-28.55 13.85-9.2 4.85-7.85 4.55m88.55 125.95 0.55-0.05 0.55-0.2m-36.5-35.1-0.25-0.45-1.4-2.6-0.45-1.05-5.35-11.05q-3.55-7.6-5.45-12.85-3.6-9.85-5.8-19-2.2-8.9-3.1-17l8.4 15.5m15.15 43.3 0.4 8.15-2.4-3.4m-81.5-78.3 28.6-11.85m49.35 134.7h0.2l0.5-0.25 38.5-8.5m-33.65-40.55-3.25-15q-5.25-14.1-11.9-28.3m-17.6 101.9 0.75-0.15q2.8-0.45 5.6-2 6.5-3.5 14.7-5.7l0.4-0.1 5.75-1.35" fill="none" stroke="#000" stroke-opacity=".4" stroke-width=".5"/>
<path d="m207.6 156.05q2.2 15.35 7.75 32.4 1.7 5.3 3.5 10.2 6.5 17.35 14.35 30.15 9.15 14.8 17.35 21.4 5.45 4.45 7.9 4l-6.15 1.45-5.15-2.5q-10.25-9.85-16.6-22.2-9.3-13.3-15.4-30.05-8.3-20.8-12.7-42.95l-1.2-20.95 1.15-11.4 2.35-4.5 4.35-1.6q-1.65 1.2-2.1 4.15-0.55 3.7-0.75 11.3-0.15 10.1 1.35 21.1" fill-opacity=".3098"/>
<path d="m231.3 139.15q-10.55-9.05-9.35 2.45-7.5-2.75-9.45 9.15l0.5 3.3q0.3 1.45-0.8 2.5-11.05-2.6-3.45 17.45-1.45-0.4-3.15-1.4 1.7 1 3.15 1.4 5.7 1.5 7.45-8.05 0.95 2.7 2.25 5.2-5.15 0.7-10 7.85l-2.85-6.4q-2-5.25-3.25-11l-0.45-2.15-0.8-4.4 0.8 4.4q6.4-8.15 11.1-5.4-4.7-2.75-11.1 5.4l0.45 2.15q-39.55 12.95-28.05 25.7-9.65-2.35-11.85-10.6 0.1-1 1.6-3.45t-2.2-3.05q0.7-8.3 7.75-17.65 9.15-12.05 23.6-18.8 3.95-1.9 7.65-3l11.65-1.95q0.75 1.95 3.6 1.65l2.95-0.6 0.95-0.25q8.85 2.25 11.3 9.55m-17 20.6q4.4 7.95 11.45 2.2l-3.5 3q-2.75 2.3-3.8 6.2-1.3-2.5-2.25-5.2-1.1-3.05-1.9-6.2m-2.5-21.55q0.1-4.65 0.7-9.4-0.6 4.75-0.7 9.4-0.45-1.45-1.1-2.5-7.95-1.2-7 14.7 4.55 9.1 8.25-5.1l-0.15-2.65v-4.45m7.25-8.35q-6.35 2.15-7.25 12.8 0.9-10.65 7.25-12.8m-6.55 20.9-0.55-5.45 0.55 5.45m-11.4 4.3-0.4-4.55 3-0.1-3 0.1q-0.45-4.9-0.4-10.05-25.55 4.55-33.1 27.7l33.9-13.1q-19.3 10.75-38.65 21.65 19.35-10.9 38.65-21.65m-0.8-14.6 0.1-4.05q0.15-2.8 0.45-5.65-0.3 2.85-0.45 5.65 5.85-9.35 10.3-0.7-4.45-8.65-10.3 0.7l-0.1 4.05m-38.45 29.75 5.35-2.05-5.35 2.05"/>
<path d="m226.35 153.4q-1-0.95-1.3-2.95-0.3-2.4 0.3-4.6 0.55-2.4 1.95-3.1 1.35-0.6 2.3 1.05 0.85 1.5 0.9 4.1-0.05 2.1-0.7 3.8-0.65 1.65-1.7 2.1-1 0.45-1.75-0.4m-16-7.6q0 1.45-0.45 2.7-0.4 1.05-1.15 1.45-0.6 0.25-1.2-0.35-0.6-0.7-0.9-2.1-0.15-1.6 0.2-3.1 0.4-1.55 1.4-2 0.9-0.5 1.6 0.6 0.55 1.05 0.5 2.8m1.6 24q-0.65-0.65-0.85-2-0.25-1.6 0.2-3.1 0.4-1.7 1.3-2.05 1-0.5 1.65 0.6 0.55 1.1 0.55 2.85 0.05 1.45-0.45 2.6-0.45 1.2-1.2 1.45-0.65 0.25-1.2-0.35m-9.8 3.3q1-0.55 1.65 0.65 0.6 1.05 0.55 2.7 0 1.45-0.45 2.7l-1.15 1.45q-0.7 0.3-1.2-0.35-0.65-0.65-0.9-1.95-0.25-1.6 0.25-3.25 0.4-1.6 1.25-1.95" fill="#fff"/>
<path d="m231.3 139.15 0.7 2.9q1.35 8.85-5.35 19.2l-0.9 0.7q-7.05 5.75-11.45-2.2-0.4-1.45-2.1-3.2 1.7 1.75 2.1 3.2 0.8 3.15 1.9 6.2-1.75 9.55-7.45 8.05-7.6-20.05 3.45-17.45 1.1-1.05 0.8-2.5l-0.5-3.3q1.95-11.9 9.45-9.15-1.2-11.5 9.35-2.45m-22.85 39.85q-3.6 2.2-7.6 4.15-14.45 6.7-25.85 4.4l-0.7-0.25q-11.5-12.75 28.05-25.7 1.25 5.75 3.25 11l2.85 6.4m17.9-25.6q0.75 0.85 1.75 0.4 1.05-0.45 1.7-2.1 0.65-1.7 0.7-3.8-0.05-2.6-0.9-4.1-0.95-1.65-2.3-1.05-1.4 0.7-1.95 3.1-0.6 2.2-0.3 4.6 0.3 2 1.3 2.95m-14.55-15.2v4.45l0.15 2.65q-3.7 14.2-8.25 5.1-0.95-15.9 7-14.7 0.65 1.05 1.1 2.5m-1.45 7.6q0.05-1.75-0.5-2.8-0.7-1.1-1.6-0.6-1 0.45-1.4 2-0.35 1.5-0.2 3.1 0.3 1.4 0.9 2.1 0.6 0.6 1.2 0.35 0.75-0.4 1.15-1.45 0.45-1.25 0.45-2.7m-9.65 4.7 0.4 4.55-33.9 13.1q7.55-23.15 33.1-27.7-0.05 5.15 0.4 10.05m1.45 22.6q-0.85 0.35-1.25 1.95-0.5 1.65-0.25 3.25 0.25 1.3 0.9 1.95 0.5 0.65 1.2 0.35l1.15-1.45q0.45-1.25 0.45-2.7 0.05-1.65-0.55-2.7-0.65-1.2-1.65-0.65m9.8-3.3q0.55 0.6 1.2 0.35 0.75-0.25 1.2-1.45 0.5-1.15 0.45-2.6 0-1.75-0.55-2.85-0.65-1.1-1.65-0.6-0.9 0.35-1.3 2.05-0.45 1.5-0.2 3.1 0.2 1.35 0.85 2" fill="#066"/>
<path d="m225.75 161.95 0.9-0.7q6.7-10.35 5.35-19.2l-0.7-2.9m-18.8 11.6 0.5 3.3q0.3 1.45-0.8 2.5 1.7 1.75 2.1 3.2 4.4 7.95 11.45 2.2l-3.5 3q-2.75 2.3-3.8 6.2-5.15 0.7-10 7.85-3.6 2.2-7.6 4.15-14.45 6.7-25.85 4.4l-0.7-0.25q-9.65-2.35-11.85-10.6 0.1-1 1.6-3.45t-2.2-3.05q0.7-8.3 7.75-17.65 9.15-12.05 23.6-18.8 3.95-1.9 7.65-3l11.65-1.95q0.75 1.95 3.6 1.65l2.95-0.6 0.95-0.25q8.85 2.25 11.3 9.55m-15.1 26.8q0.95 2.7 2.25 5.2m-5.95-42.35q-0.6 4.75-0.7 9.4v4.45q0.9-10.65 7.25-12.8m-7.25 8.35q-0.45-1.45-1.1-2.5m-7 14.7q4.55 9.1 8.25-5.1l-0.15-2.65m0.15 2.65 0.55 5.45m-11.8-0.25 0.4 4.55 0.8 4.4q6.4-8.15 11.1-5.4m-11.1 5.4 0.45 2.15q1.25 5.75 3.25 11 1.7 1 3.15 1.4m-5.05-23.6-3 0.1q-0.45-4.9-0.4-10.05m-33.1 27.7 33.9-13.1q-19.3 10.75-38.65 21.65m38.4-45.95q-0.3 2.85-0.45 5.65 5.85-9.35 10.3-0.7m-10.3 0.7-0.1 4.05m5.3 32.15 2.85 6.4m7.75-13.05q-1.75 9.55-7.45 8.05m5.55-14.25q0.8 3.15 1.9 6.2m-49 2.2-5.35 2.05" fill="none" stroke="#000" stroke-opacity=".4" stroke-width=".5"/>
</g>
</defs>
<use xlink:href="#q"/>
</svg>
