<?xml version="1.0" encoding="UTF-8" standalone="no"?>
<!DOCTYPE svg PUBLIC "-//W3C//DTD SVG 1.1//EN" "http://www.w3.org/Graphics/SVG/1.1/DTD/svg11.dtd">
<svg width="100%" height="100%" viewBox="0 0 208 207" version="1.1" xmlns="http://www.w3.org/2000/svg" xmlns:xlink="http://www.w3.org/1999/xlink" xml:space="preserve" xmlns:serif="http://www.serif.com/" style="fill-rule:evenodd;clip-rule:evenodd;stroke-linecap:round;stroke-linejoin:round;">
    <g transform="matrix(1,0,0,1,-171.744,-96.8428)">
        <g transform="matrix(4.8783,0,0,4.8783,-1068.24,-775.642)">
            <g id="shape0">
                <path d="M288.75,201.95L291.4,199.3C296.5,193.167 297.533,188.367 294.5,184.9L293.75,184.15L291.9,182.6C293.333,184.267 293.6,185.15 292.7,185.25M293.75,184.15C293.017,182.517 293.267,181.433 294.5,180.9M273.25,201.85C263.783,198.25 261.55,195.033 266.55,192.2C271.55,189.367 273.467,187.933 272.3,187.9C266.967,188.333 263.533,188.283 262,187.75C261.267,187.517 260.417,187.033 259.45,186.3L255.95,183.95C254.517,183.05 254.3,182.35 255.3,181.85C256.4,181.183 259.167,180.717 263.6,180.45L272.85,179.55L279.85,179.35C284.85,179.55 288.867,180.633 291.9,182.6" style="fill:none;fill-rule:nonzero;stroke:#748187;stroke-width:1px;"/>
                <path d="M293.9,184.55L293.35,184.8L292.75,184.55L292.55,184L292.75,183.4C292.917,183.267 293.117,183.2 293.35,183.2L293.9,183.4L294.15,184L293.9,184.55Z" style="fill:none;fill-rule:nonzero;stroke:#382510;stroke-opacity:0.5;stroke-width:1px;"/>
                <path d="M275.75,199.9C277.55,200.667 278.817,201.7 279.55,203L280.05,204.1L280.3,205.05L281.1,208.15L281.3,209.05L281.35,209.15C281.65,211.283 280.967,213.333 279.3,215.3L278.8,215.85L278.4,216.25L277.55,217L276.65,217.7L274.75,218.8C273.45,219.433 272.05,219.9 270.55,220.2C267.617,220.833 264.95,220.783 262.55,220.05L262.3,219.95L262.15,219.9L260.7,219.25L260.6,219.2L259.65,218.6C258.35,217.667 257.5,216.517 257.1,215.15L256.15,210.2C256.017,209.467 256.033,208.733 256.2,208L256.15,208L256.15,207.4C256.55,206.167 257.333,204.95 258.5,203.75L258.55,203.7L259,203.2C261,201.3 263.567,200 266.7,199.3L269.8,198.9L274.3,199.4L275.75,199.9Z" style="fill:none;fill-rule:nonzero;stroke:#000;stroke-opacity:0.3;stroke-width:1px;"/>
                <path d="M256.15,207.4C256.55,206.167 257.333,204.95 258.5,203.75L258.55,203.7L259,203.2C261,201.3 263.567,200 266.7,199.3L269.8,198.9L274.3,199.4L275.75,199.9C277.55,200.667 278.817,201.7 279.55,203L280.05,204.1L280.3,205.05L280.4,206.75L280.35,207.05L280.3,207.4C280.067,208.733 279.4,210.033 278.3,211.3L276,208.1L279,203.8L279.55,203L271.95,203.8L269.8,198.9L264.35,203.2L259,203.2L258.1,206.4L256.15,207.4M274.45,200.45L274.25,200.45C273.917,200.55 273.65,200.7 273.45,200.9C273.25,201.1 273.183,201.3 273.25,201.5L273.65,202.05L274.65,202.05L275.3,201.7L275.55,201L275.1,200.55L274.45,200.45M273.75,214.8L274.25,213.2L277.9,211.5L278.05,211.6L276.9,212.75L276.7,212.9L275.85,213.55L275.25,213.95L274.05,214.65L273.75,214.8" style="fill:#ffd700;"/>
                <path d="M280.3,205.05L281.1,208.15L281.3,209.05L281.35,209.15C281.65,211.283 280.967,213.333 279.3,215.3L278.8,215.85L278.4,216.25L277.55,212.1L278.05,211.6L278.3,211.3C279.4,210.033 280.067,208.733 280.3,207.4L280.35,207.05L280.4,206.75L280.3,205.05M277.55,217L276.65,217.7L275.85,213.55L276.7,212.9L277.55,217M258.1,206.4L259,203.2L259,203.95L258.1,207.15L258.1,206.4M264.35,203.2L269.8,198.9L269.8,199.65L264.35,203.95L264.35,203.2M271.95,203.8L279.55,203L279,203.8L271.95,204.55L271.95,203.8M274.45,200.45L275.1,200.55L275.55,201L275.3,201.7L274.65,202.05L274.45,200.45M268.7,204.1L269.2,204.2L271.1,204.7L271.75,205C272.983,205.667 273.767,206.567 274.1,207.7L274.25,208.25L274.35,208.95L274.2,208.45C273.867,207.317 273.083,206.417 271.85,205.75L271.2,205.45L269.3,204.95L268.7,204.9L268.7,204.1M267.2,204.05L267.8,204.05L267.8,204.8L267.2,204.8L267.2,204.05" style="fill:#974b0b;"/>
                <path d="M274.65,202.05L273.65,202.05L273.25,201.5C273.183,201.3 273.25,201.1 273.45,200.9C273.65,200.7 273.917,200.55 274.25,200.45L274.45,200.45L274.65,202.05" style="fill:#5e2305;"/>
                <path d="M256.2,210.45L256.15,210.2C256.017,209.467 256.033,208.733 256.2,208L258.1,207.15L259,203.95L264.35,203.95L269.8,199.65L271.95,204.55L279,203.8L276,208.1L276,208.85L277.9,211.5L274.25,213.2L273.75,214.8L273.2,215.1L272.6,215.3L269.8,216.15L269.55,216.2L267.85,216.5L266.2,216.65L265.05,216.65L265.05,216.3L266.6,216.05L266.8,216L267.15,215.95L268.05,215.7L269.8,215L271.2,214.1L271.45,213.9L271.85,213.65L272.5,213L273.7,211.45L273.9,211.05L273.9,211L274,210.7L274.1,210.45L274.25,210L274.25,209.9L274.3,209.7L274.35,208.95L274.25,208.25L274.1,207.7C273.767,206.567 272.983,205.667 271.75,205L271.1,204.7L269.2,204.2L268.7,204.1L267.8,204.05L267.2,204.05L264.8,204.3L264.05,204.5L263.5,204.7L262.9,204.9L262.35,205.15L261.6,205.5C260.667,206 259.833,206.617 259.1,207.35L258.25,208.35C257.65,209.25 257.333,210.15 257.3,211.05L257.3,211.8L257.35,212.05L257.35,212.1L257.4,212.2L256.85,212.45C256.583,211.883 256.367,211.217 256.2,210.45" style="fill:#fcc046;"/>
                <path d="M278.4,216.25L277.55,217L276.7,212.9L276.9,212.75L277.55,212.1L278.4,216.25M276.65,217.7L274.75,218.8C273.45,219.433 272.05,219.9 270.55,220.2C267.617,220.833 264.95,220.783 262.55,220.05L262.3,219.95L262.15,219.9L260.7,219.25L260.6,219.2L259.65,218.6C258.35,217.667 257.5,216.517 257.1,215.15L256.2,210.45C256.367,211.217 256.583,211.883 256.85,212.45L257.4,212.2L257.4,212.35L257.6,212.95L257.15,213L256.85,212.45L257.15,213L257.2,213.1L257.8,213.9L258.35,214.45L258.8,214.75L259.5,215.15L259.7,215.25L261.15,215.9L261.3,215.95L261.55,216.05L262.65,216.35L263.9,216.55L265.05,216.65L266.2,216.65L267.85,216.5L269.55,216.2L269.8,216.15L272.6,215.3L273.2,215.1L273.75,214.8L274.05,214.65L275.25,213.95L275.85,213.55L276.65,217.7M256.2,208L256.15,208L256.15,207.4L258.1,206.4L258.1,207.15L256.2,208M259,203.2L264.35,203.2L264.35,203.95L259,203.95L259,203.2M269.8,198.9L271.95,203.8L271.95,204.55L269.8,199.65L269.8,198.9M276,208.1L278.3,211.3L277.9,211.5L276,208.85L276,208.1M268.7,204.1L268.7,204.9L267.8,204.8L267.8,204.05L268.7,204.1M257.35,212.1L257.35,212.05L257.3,211.8L257.3,211.05C257.333,210.15 257.65,209.25 258.25,208.35L259.1,207.35C259.833,206.617 260.667,206 261.6,205.5L262.35,205.15L262.9,204.9L263.5,204.7L264.05,204.5L264.8,204.3L267.2,204.05L267.2,204.8L264.9,205.05L264.15,205.25L263.8,205.4L263.7,205.45L263,205.65L262.6,205.85L262.5,205.85L262.45,205.9L261.7,206.25C260.767,206.75 259.933,207.367 259.2,208.1L258.75,208.65L258.55,208.9L258.4,209.1L258.35,209.1L258.35,209.15L258.15,209.5C257.683,210.267 257.433,211.033 257.4,211.8L257.4,212.1L257.35,212.1" style="fill:#662606;"/>
                <path d="M268.7,204.9L269.3,204.95L271.2,205.45L271.85,205.75C273.083,206.417 273.867,207.317 274.2,208.45L274.35,208.95L274.3,209.7L274.25,209.9C271.55,210.367 269.2,210.183 267.2,209.35L265.8,208.6C265.267,208.233 264.85,207.817 264.55,207.35C264.217,206.883 263.933,206.25 263.7,205.45C263.933,206.583 264.267,207.433 264.7,208C265,208.467 265.417,208.883 265.95,209.25L267.35,210C269.35,210.833 271.6,210.983 274.1,210.45L274,210.7L273.9,211L273.9,211.05L273.9,211L271.8,211.1L269.6,211L267.1,210.4L266.4,210.15L265.65,209.8L264.4,209.05L263.9,208.6L263.55,208.8L263.1,208L263.05,207.95L263.1,208L263.55,208.8L257.4,212.35L257.4,211.8C257.433,211.033 257.683,210.267 258.15,209.5L263.05,207.95L262.85,207.5L262.8,207.35L262.65,206.75L262.65,206.6L262.5,205.85L262.65,206.6L262.65,206.75L262.8,207.35L258.75,208.65L259.2,208.1C259.933,207.367 260.767,206.75 261.7,206.25L262.45,205.9L262.5,205.85L262.6,205.85L263,205.65L263.7,205.45L263.8,205.4L264.15,205.25L264.9,205.05L267.2,204.8L267.8,204.8L268.7,204.9M273.7,211.45L272.5,213L271.85,213.65L271.45,213.9L271.2,214.1L269.8,215L268.05,215.7L267.15,215.95L266.8,216L266.6,216.05L265.05,216.3L265.05,216.65L263.9,216.55L262.65,216.35L261.55,216.05L261.3,215.95L261.15,215.9L259.7,215.25L259.6,215.1L265.8,210.45L266.55,210.8L266.85,210.9L264.1,216.15L263.9,216.55L264.1,216.15L267.25,211.05L269.4,211.6L268.25,215.25L268.05,215.7L268.25,215.25L269.75,211.65L271.8,211.75L271.95,211.75L273.7,211.45M264.05,209.25L264.55,209.7L264.8,209.85L265.2,210.15L258.8,214.75L258.35,214.45L257.8,213.9L257.2,213.1L257.15,213L257.6,212.95L264.05,209.25M271.85,213.65L271.95,211.75L271.85,213.65" style="fill:#c87b09;"/>
                <path d="M274.25,209.9L274.25,210L274.1,210.45C271.6,210.983 269.35,210.833 267.35,210L265.95,209.25C265.417,208.883 265,208.467 264.7,208C264.267,207.433 263.933,206.583 263.7,205.45C263.933,206.25 264.217,206.883 264.55,207.35C264.85,207.817 265.267,208.233 265.8,208.6L267.2,209.35C269.2,210.183 271.55,210.367 274.25,209.9M273.9,211.05L273.7,211.45L271.95,211.75L271.8,211.75L269.75,211.65L269.55,211.65L269.4,211.6L269.55,211.65L269.75,211.65L268.25,215.25L269.4,211.6L267.25,211.05L267,211L266.85,210.9L267,211L267.25,211.05L264.1,216.15L266.85,210.9L266.55,210.8L265.8,210.45L265.2,210.15L265.8,210.45L259.6,215.1L259.5,215.15L258.8,214.75L265.2,210.15L264.8,209.85L264.55,209.7L264.05,209.25L263.7,208.95L263.55,208.8L263.7,208.95L264.05,209.25L257.6,212.95L257.4,212.35L263.55,208.8L263.9,208.6L264.4,209.05L265.65,209.8L266.4,210.15L267.1,210.4L269.6,211L271.8,211.1L273.9,211L273.9,211.05M262.8,207.35L262.85,207.5L263.05,207.95L258.15,209.5L258.35,209.15L258.35,209.1L258.4,209.1L258.55,208.9L258.75,208.65L262.8,207.35" style="fill:#f7ae44;"/>
                <path d="M256.15,207.4C256.55,206.167 257.333,204.95 258.5,203.75L258.55,203.7L259,203.2C261,201.3 263.567,200 266.7,199.3L269.8,198.9L274.3,199.4L275.75,199.9C277.55,200.667 278.817,201.7 279.55,203L280.05,204.1L280.3,205.05L281.1,208.15L281.3,209.05L281.35,209.15C281.65,211.283 280.967,213.333 279.3,215.3L278.8,215.85L278.4,216.25L277.55,217L276.65,217.7L274.75,218.8C273.45,219.433 272.05,219.9 270.55,220.2C267.617,220.833 264.95,220.783 262.55,220.05L262.3,219.95L262.15,219.9L260.7,219.25L260.6,219.2L259.65,218.6C258.35,217.667 257.5,216.517 257.1,215.15L256.2,210.45L256.15,210.2L256.15,210.4L256.15,210.2C256.017,209.467 256.033,208.733 256.2,208L256.15,208L256.15,207.4L258.1,206.4L259,203.2L264.35,203.2L269.8,198.9L271.95,203.8L279.55,203L279,203.8L276,208.1L278.3,211.3C279.4,210.033 280.067,208.733 280.3,207.4L280.35,207.05L280.4,206.75L280.3,205.05M274.65,202.05L273.65,202.05L273.25,201.5C273.183,201.3 273.25,201.1 273.45,200.9C273.65,200.7 273.917,200.55 274.25,200.45L274.45,200.45L275.1,200.55L275.55,201L275.3,201.7L274.65,202.05M277.9,211.5L276,208.85L276,208.1M274.35,208.95L274.25,208.25L274.1,207.7C273.767,206.567 272.983,205.667 271.75,205L271.1,204.7L269.2,204.2L268.7,204.1L267.8,204.05L267.2,204.05L264.8,204.3L264.05,204.5L263.5,204.7L262.9,204.9L262.35,205.15L261.6,205.5C260.667,206 259.833,206.617 259.1,207.35L258.25,208.35C257.65,209.25 257.333,210.15 257.3,211.05L257.3,211.8L257.35,212.05L257.35,212.1L257.4,212.2L256.85,212.45L257.15,213L257.6,212.95L257.4,212.35L257.4,211.8C257.433,211.033 257.683,210.267 258.15,209.5L258.35,209.15M268.7,204.9L269.3,204.95L271.2,205.45L271.85,205.75C273.083,206.417 273.867,207.317 274.2,208.45L274.35,208.95L274.3,209.7L274.25,209.9L274.25,210L274.1,210.45L274,210.7L273.9,211L273.9,211.05L273.7,211.45L272.5,213L271.85,213.65L271.45,213.9L271.2,214.1L269.8,215L268.05,215.7L267.15,215.95L266.8,216L266.6,216.05L265.05,216.3L265.05,216.65L266.2,216.65L267.85,216.5L269.55,216.2L269.8,216.15L272.6,215.3L273.2,215.1L273.75,214.8L274.25,213.2L277.9,211.5L278.3,211.3L278.05,211.6L276.9,212.75L276.7,212.9L275.85,213.55L275.25,213.95L274.05,214.65L273.75,214.8M269.8,199.65L269.8,198.9M264.35,203.2L264.35,203.95L269.8,199.65L271.95,204.55L271.95,203.8M267.2,204.8L267.8,204.8L268.7,204.9M267.2,204.8L264.9,205.05L264.15,205.25L263.8,205.4L263.7,205.45L263,205.65L262.6,205.85L262.5,205.85L262.45,205.9L261.7,206.25C260.767,206.75 259.933,207.367 259.2,208.1L258.75,208.65L258.55,208.9M259,203.95L259,203.2M258.1,206.4L258.1,207.15L259,203.95L264.35,203.95M258.8,214.75L258.35,214.45L257.8,213.9L257.2,213.1L257.15,213M256.85,212.45C256.583,211.883 256.367,211.217 256.2,210.45M259.7,215.25L261.15,215.9L261.3,215.95L261.55,216.05L262.65,216.35L263.9,216.55L265.05,216.65M259.5,215.15L258.8,214.75M259.5,215.15L259.7,215.25M256.2,208L258.1,207.15M271.95,204.55L279,203.8" style="fill:none;fill-rule:nonzero;stroke:#000;stroke-opacity:0.3;stroke-width:0.5px;"/>
                <path d="M263.7,205.45C263.933,206.583 264.267,207.433 264.7,208C265,208.467 265.417,208.883 265.95,209.25L267.35,210C269.35,210.833 271.6,210.983 274.1,210.45M262.5,205.85L262.65,206.6L262.65,206.75L262.8,207.35L262.85,207.5L263.05,207.95L263.1,208L263.55,208.8L263.7,208.95L264.05,209.25L264.55,209.7L264.8,209.85L265.2,210.15L265.8,210.45L266.55,210.8L266.85,210.9L267,211L267.25,211.05L269.4,211.6L269.55,211.65L269.75,211.65L271.8,211.75L271.95,211.75L273.7,211.45M258.15,209.5L263.05,207.95M263.9,216.55L264.1,216.15L267.25,211.05M268.25,215.25L268.05,215.7M271.95,211.75L271.85,213.65M268.25,215.25L269.75,211.65M264.05,209.25L257.6,212.95M265.8,210.45L259.6,215.1" style="fill:none;fill-rule:nonzero;stroke:#623c04;stroke-width:0.5px;"/>
                <path d="M280.4,206.75L280.3,205.05L281.1,208.15L281.3,209.05L281.35,209.15C281.65,211.283 280.967,213.333 279.3,215.3L278.8,215.85L278.4,216.25L277.55,217L276.65,217.7L274.75,218.8C273.45,219.433 272.05,219.9 270.55,220.2C267.617,220.833 264.95,220.783 262.55,220.05L262.3,219.95L262.15,219.9L260.7,219.25L260.6,219.2L259.65,218.6C258.35,217.667 257.5,216.517 257.1,215.15L256.2,210.45C256.367,211.217 256.583,211.883 256.85,212.45L257.15,213L257.2,213.1L257.8,213.9L258.35,214.45L258.8,214.75L259.5,215.15L259.7,215.25L261.15,215.9L261.3,215.95L261.55,216.05L262.65,216.35L263.9,216.55L265.05,216.65L266.2,216.65L267.85,216.5L269.55,216.2L269.8,216.15L272.6,215.3L273.2,215.1L273.75,214.8L274.05,214.65L275.25,213.95L275.85,213.55L276.7,212.9L276.9,212.75L278.05,211.6L278.3,211.3C279.4,210.033 280.067,208.733 280.3,207.4L280.35,207.05L280.4,206.75" style="fill:url(#_Linear1);"/>
                <path d="M278.5,204.5L272.2,205.3L271.75,205L269.8,201.3L266.65,204.05L264.8,204.3L264.05,204.5L263.5,204.7L262.9,204.9L262.65,205L260,205.05L259.4,207.05L259.1,207.35L258.5,208.1L256.1,208.9L256.2,208L258.1,207.15L259,203.95L264.35,203.95L269.8,199.65L271.95,204.55L279,203.8L278.5,204.5M276,209.95L276,208.85L277.9,211.5L277.2,211.85L276,209.95M274.25,210L274.1,210.45L274,210.7L273.9,211L273.9,211.05L273.7,211.45L272.95,212.5C273.117,208.067 270.467,206.3 265,207.2C260.3,208.8 258.267,210.95 258.9,213.65L258.05,214.2L257.8,213.9L257.2,213.1L257.15,213L257.6,212.95L257.4,212.35L257.4,211.8C257.433,211.033 257.683,210.267 258.15,209.5L258.35,209.15L258.75,208.65L259.2,208.1C259.933,207.367 260.767,206.75 261.7,206.25L262.45,205.9L262.5,205.85L262.6,205.85L263,205.65L263.7,205.45L263.8,205.4L264.15,205.25L264.9,205.05L267.2,204.8L267.8,204.8L268.7,204.9L269.3,204.95L271.2,205.45L271.85,205.75C273.083,206.417 273.867,207.317 274.2,208.45L274.35,208.95L274.3,209.7L274.25,209.9L274.25,210M274.25,213.2L273.75,214.8L273.2,215.1L272.95,215.2L274.25,213.2" style="fill-opacity:0.3;"/>
            </g>
            <g id="sprite0" transform="matrix(1,0,0,1,256.05,198.9)">
                <g id="shape1">
                    <path d="M19.7,1C21.5,1.767 22.767,2.8 23.5,4.1L24,5.2L24.25,6.15L24.7,7.85L24.3,8.1C23.167,8.867 21.967,9.583 20.7,10.25L20.35,10.45L18.05,11.55L17.95,11.6L14.8,12.85L14.45,12.95L13.5,13.3L9.9,14.3L5,15.15L2.05,15.3L0.9,15.3L0.1,11.3L0.1,11.5L0.1,11.3C-0.033,10.567 -0.017,9.833 0.15,9.1L0.1,9.1L0.1,8.5C0.5,7.267 1.283,6.05 2.45,4.85L2.5,4.8L2.95,4.3C4.95,2.4 7.517,1.1 10.65,0.4L13.75,0L18.25,0.5L19.7,1" style="fill:url(#_Radial2);"/>
                </g>
            </g>
            <g id="shape2">
                <path d="M269.65,198.95L268.65,199.3L267.55,199.3L267.25,199.2L269.75,198.9L269.65,198.95M266.1,200.3L263.6,202C262.533,202.467 261.533,202.7 260.6,202.7L259.7,202.6C261.567,201.033 263.9,199.933 266.7,199.3L266.1,200.3" style="fill:#fff;fill-opacity:0.5;"/>
                <path d="M274.75,201.1C276.75,199.433 278.917,199.7 281.25,201.9C282.083,203.633 284.583,203.633 288.75,201.9" style="fill:none;fill-rule:nonzero;stroke:#382510;stroke-opacity:0.5;stroke-width:1px;"/>
            </g>
        </g>
    </g>
    <defs>
        <linearGradient id="_Linear1" x1="0" y1="0" x2="1" y2="0" gradientUnits="userSpaceOnUse" gradientTransform="matrix(22.2822,-3.60448,3.60448,22.2822,258.475,217.013)"><stop offset="0" style="stop-color:#000;stop-opacity:0.5"/><stop offset="1" style="stop-color:#000;stop-opacity:0"/></linearGradient>
        <radialGradient id="_Radial2" cx="0" cy="0" r="1" gradientUnits="userSpaceOnUse" gradientTransform="matrix(26.9517,-9.33888,6.06208,17.5309,8.5,-4.25)"><stop offset="0" style="stop-color:#000;stop-opacity:0.12"/><stop offset="1" style="stop-color:#000;stop-opacity:0"/></radialGradient>
    </defs>
</svg>
