<?xml version="1.0" encoding="UTF-8"?>
<svg version="1.1" viewBox="0 0 54.59 43.45" xmlns="http://www.w3.org/2000/svg" xmlns:cc="http://creativecommons.org/ns#" xmlns:dc="http://purl.org/dc/elements/1.1/" xmlns:rdf="http://www.w3.org/1999/02/22-rdf-syntax-ns#" xmlns:xlink="http://www.w3.org/1999/xlink">
<metadata>
<rdf:RDF>
<cc:Work rdf:about="">
<dc:format>image/svg+xml</dc:format>
<dc:type rdf:resource="http://purl.org/dc/dcmitype/StillImage"/>
</cc:Work>
</rdf:RDF>
</metadata>
<g transform="translate(-249.66 -181.72)">
<use transform="translate(249.7,181.75)" width="54.5" height="43.400002" xlink:href="#a"/>
</g>
<defs>
<g id="a" transform="translate(27.25,21.7)">
<path d="m12.5-19.9-2-1.05-1.25 3.9h-1.25l0.5-0.9 0.55-1.05 1.45-2.7 2 1.8m1.95 32.75 0.9 2.8q0.25 0.5-0.9 0.85-1.4 0.35-1.95-1l-0.7-2-0.45-1.1q-1.2-2.05-3.95-1.05h-0.05l-0.05 0.05h-0.05q-0.35 0.15-0.35 0.6l0.1 1.75q-1.15-0.25-1.85-1.25l0.55-0.9v-0.05l-1-2.6 0.15-0.45 0.05-0.5-0.65-0.2-1.95-5.1q0.9-0.9 2.05-0.9-0.15 0.95 0 1.85 0.35 2.1 2.3 3.7 1.7 1.35 3.7 2v0.05l2.3 0.5h0.85l0.95 2.95m-25.85-0.3-0.4 0.95-0.75 2q-0.55 1.35-1.95 1-1.15-0.35-0.85-0.85l0.85-2.8 0.95-2.95h0.85q2.35-0.3 4.35-1.45l0.3-0.15 1.35-0.95q1.95-1.6 2.3-3.7l0.05-1.85q1.15 0 2.05 0.95l-1.95 5.05-0.7 0.2 0.05 0.5 0.2 0.45-1 2.6 0.5 0.95q-0.65 1-1.85 1.25l0.15-1.75q-0.05-0.45-0.45-0.6l-0.1-0.05q-2.85-1-3.95 1.2m-1.15-32.45 2-1.8 1.35 2.45 0.55 1.05 0.6 1.15h-1.2l-1.3-3.9-2 1.05" fill="#ada4f2" fill-rule="evenodd"/>
<path d="m9.25-17.05 1.25-3.9 4 2.1-3-0.7-1.5 5-1.05-1.5 0.3-1m6.4 13.15-1.95-4.7h4.55l5.1-4.95 0.35 0.5v5.75l-8.05 3.4m-6.7 6.95h4.3l4.05-1.25 1.9-2.75 0.6 0.65q1.75 2.05 1.55 4.75l-0.05 0.55q-0.45 3.45-4.05 4.9 0.45-1.9-0.3-3.8l-0.2-0.4-0.85-1.45q-3.6-0.2-6.95-1.2m-26.2 6.85q-3.65-1.45-4.1-4.9l-0.05-0.55q-0.25-3.15 2.2-5.4l0.5 1.4 3.5 1.7 5.25 1.2-6 0.9q-2.05 2.85-1.3 5.65m-6.45-17.2v-5.75l4.15 4.2h5.65l0.2 0.25-2 4.7-8-3.4m9.2-11.55 1.95-1.05 2-1.05 1.3 3.9 0.3 1-1.1 1.5-1.5-5-2.95 0.7" fill="#7975d2" fill-rule="evenodd"/>
<path d="m10-14.55 1.5-5 3 0.7 1.45 0.3-4.5 2.6 0.75 2.55q-1.1-0.6-2.2-1.15m6.45 2.15 2.4-3.2 1.5 0.6 2.7 1.05 0.05 0.05-5 5-4.4 0.3 1.35-1.85 1.4-1.9v-0.05m2 11.6-1.35 2.2-3.9 1.15-4.25 0.5-1.1-0.35 1.35-1.7 0.35-0.45 2.1-0.3 6.8-1.05m-42.15-12.25 0.65-0.9 2.7-1.05 1.45-0.6 2.5 3.3 1.35 1.85 1.15 1.6h-0.95l-4.55-0.4-4.3-3.8m7.75-5.5 1.45-0.3 2.95-0.7 1.5 5q-1.1 0.55-2.15 1.15l0.75-2.55-4.5-2.6m4.3 18.8 2.05 0.3 0.1 0.25 0.3 0.2 1.35 1.7-1.95 0.6-5.5-1.7-3.05-1.6-0.85-0.95 7.55 1.2" fill="#ccc7fa" fill-rule="evenodd"/>
<path d="m12.2-13.4-0.75-2.55 3.8 0.25 1.2 3.35-1.4 1.9-2.35-1.35-0.5-1.6m-0.55 13.65 2.95-3.85h0.35l0.7-0.3 8.05-3.4 0.4-0.15 0.1-0.05 0.3-0.1-3.5 4.9-8.3 2.7-1.05 0.25m-37.55-8.45 2.2 0.9 8 3.4 0.75 0.3h0.35l2.75 3.6-1.35-0.45-9.4-3.85-3.3-3.9m13.7-5.2-0.5 1.6-2.35 1.35-1.35-1.85 1.45-3.1 3.5-0.55-0.75 2.55m4.35 16.1 1.25-0.5q0.6 1.65 2.2 1.45-0.35 2.1-2.3 3.7l-1.35 0.95-4.75-1.35-3.15-2.7 6-0.9 0.15-0.05 1.95-0.6m12.2 0.95q1.6 0.2 2.2-1.45l0.8 0.3 0.5 0.2 1.1 0.35q3.35 1 6.95 1.2l0.85 1.45-6.15 3.55-0.25 0.1q-2-0.65-3.7-2-1.95-1.6-2.3-3.7m0.35 5.3-0.45-1.15 0.65 0.2-0.05 0.5-0.15 0.45m-9.4 0-0.2-0.45-0.05-0.5 0.7-0.2-0.45 1.15" fill="#f9bbf1" fill-rule="evenodd"/>
<path d="m11.45-15.95 4.5-2.6 1.5-0.85 2.9 4.4-1.5-0.6-2.4 3.2-0.8-3.55h-4.2m7.75 15-0.75 0.15-6.8 1.05 1.05-0.25 8.55-2.2 4.6-6q0.75 0.9 1.1 2.1 0.8 2.6-0.4 5-1.45 3-4.2 4.9l-1 0.65q0.2-2.7-1.55-4.75l-0.6-0.65m-1.95 10.85-0.35 0.95-0.95 1.15-1.5 0.85-0.95-2.95h-0.85l-2.3-0.5v-0.05l0.25-0.1 6.35-3.15q0.75 1.9 0.3 3.8m-5.9 2.5-2.45 2.1-1.5-3.15q2.75-1 3.95 1.05m-20.4 2.15-2.35-2q1.1-2.2 3.95-1.2l-1.6 3.2m-5.45-1.7-1.5-0.85-0.9-1.15-0.35-0.95q-0.75-2.8 1.3-5.65l3.05 3.3 4.55 0.9q-2 1.15-4.35 1.45h-0.85l-0.95 2.95m-6.9-8.4-0.95-0.65q-2.75-1.9-4.2-4.9-1.2-2.4-0.4-5l0.9-1.85 3.45 4.4 9.4 3.1 1.35 0.45 0.1 0.1 0.1 0.15-7.55-1.2q-2.45 2.25-2.2 5.4m1.05-19.45 2.9-4.4 1.5 0.85 4.5 2.6h-3.75l-1.2 3.65-2.5-3.3-1.45 0.6" fill="#a25fcb" fill-rule="evenodd"/>
<path d="m11.45-15.95h4.2l0.8 3.55v0.05l-1.2-3.35-3.8-0.25m2.25 7.35 4.4-0.3 5-5 0.25 0.35-5.1 4.95h-4.55m4.75 7.8 0.75-0.15-1.9 2.75-4.05 1.25h-4.3l4.25-0.5 3.9-1.15 1.35-2.2m7.4-7.4-4.6 6-8.55 2.2 8.3-2.7 3.5-4.9 0.25-0.15h0.1l1-0.45m-51.9 0.25 0.15-0.25 3.3 3.9 9.4 3.85-9.4-3.1-3.45-4.4m42.8 13.65 0.2 0.4-6.35 3.15 6.15-3.55m-28.2-21.65-3.5 0.55-1.45 3.1 1.2-3.65h3.75m-12.25 2.9 4.3 3.8 4.55 0.4h-4.7l-4.15-4.2m13.9 16.35-0.15 0.05-5.25-1.2-3.5-1.7-0.5-1.4 0.85 0.95 3.05 1.6 5.5 1.7m-6.15 0.95 3.15 2.7 4.75 1.35-0.3 0.15-4.55-0.9-3.05-3.3" fill="#fff" fill-rule="evenodd"/>
<path d="m9.05-19-0.55 1.05-0.25-0.1-5.85-0.9-2.4-0.15-4 0.1-4.65 0.8-0.55-1.05 5.2-0.9 4-0.1 2.4 0.15 5.85 0.9 0.8 0.2m-0.15 33.5 0.8 1.6-8.2 2.9 3.65-6.5q0.7 1 1.85 1.25l-0.1-1.75q0-0.45 0.35-0.6h0.05l0.05-0.05h0.05l1.5 3.15m-10.3 4.65-8.45-3 2.4-4.8 0.1 0.05q0.4 0.15 0.45 0.6l-0.15 1.75q1.2-0.25 1.85-1.25l3.8 6.65" fill="#365992" fill-rule="evenodd"/>
<path d="m1.5 19-1.5 2.7v-6.6l4.3-2.65 1.4-0.85-0.55 0.9-3.65 6.5m-3.8-16.25 2.3-6v18.35l-5.7-3.55 1-2.6 0.45-1.15 1.95-5.05" fill="#fc9" fill-rule="evenodd"/>
<path d="m0 21.7-1.4-2.55-3.8-6.65-0.5-0.95 5.7 3.55v6.6m0-24.95 2.3 5.95 1.95 5.1 0.45 1.15 1 2.6v0.05l-1.4 0.85-3.4 1.2-0.9-16.9" fill="#eda68b" fill-rule="evenodd"/>
<path d="m4.3 12.45-4.3 2.65v-18.35l0.9 16.9 3.4-1.2" fill="#fefdcf" fill-rule="evenodd"/>
<path d="m9.25-17.05 1.25-3.9 2 1.05m-3.45 0.9-0.55 1.05m1.5 3.4 1.5-5 3 0.7m-2.3 5.45-0.75-2.55 4.5-2.6m0.5 6.15 2.4-3.2 1.5 0.6m-5.3 4.55 1.4-1.9v-0.05m2.75 11.45-0.75 0.15m0.75-0.15 0.6 0.65q1.75 2.05 1.55 4.75m-9.7-4.2 6.8-1.05m6.05-6.8-0.3 0.1m0.55-0.25-0.25 0.15m-8.85 3.7 8.05-3.4m-32.9-11.95 0.55 1.05m-5.95 14.6 2.75 3.6 0.1 0.1m19.1 2.4 0.5 0.2 1.1 0.35q3.35 1 6.95 1.2l0.85 1.45 0.2 0.4q0.75 1.9 0.3 3.8m-2.8 2.95-0.95-2.95h-0.85l-2.3-0.5v-0.05q-2-0.65-3.7-2-1.95-1.6-2.3-3.7m-0.1 4.15 0.45 1.15 0.15-0.45 0.05-0.5-0.65-0.2-1.95-5.1m3.4 8.9v-0.05l-1-2.6m0.45 3.55q0.7 1 1.85 1.25l-0.1-1.75q0-0.45 0.35-0.6h0.05l0.05-0.05h0.05q2.75-1 3.95 1.05m-9.85 6.6 3.65-6.5 0.55-0.9-1.4 0.85-4.3 2.65v6.6m7.4-10.35 1.5 3.15m-8.9 0.6v-18.35m-10.05-11.3-1.5-5-2.95 0.7m1.95-1.05 2-1.05 1.3 3.9m-2.2 1.1-0.75 2.55m-4.2 1.1-2.5-3.3-1.45 0.6m4.4-3.55 4.5 2.6m-3.6 5.5-1.35-1.85m1.55 3.45-4.55-0.4-4.3-3.8m0 5.75 8 3.4m5.9 7.2 1.95-0.6m-2.1 0.65 0.15-0.05m-0.15 0.05-6 0.9m7.9 4.05 1.35-0.95q1.95-1.6 2.3-3.7m-3.65 4.65-0.3 0.15q-2 1.15-4.35 1.45h-0.85l-0.95 2.95m7.05-1.5 0.1 0.05q0.4 0.15 0.45 0.6l-0.15 1.75q1.2-0.25 1.85-1.25l-0.5-0.95 1-2.6-0.2-0.45-0.05-0.5 0.7-0.2 1.95-5.05m-1.95 5.05-0.45 1.15m-12.55 0.95q-0.75-2.8 1.3-5.65m14.55 14.9-3.8-6.65m-6.2 0.05q1.1-2.2 3.95-1.2l-1.6 3.2m-10.15-15.5q-2.45 2.25-2.2 5.4m9.75-4.2-7.55-1.2m13.5 12.5 5.7 3.55" fill="none" stroke="#000" stroke-linecap="round" stroke-linejoin="round" stroke-opacity=".30196" stroke-width=".05"/>
<path d="m12.5-19.9-2-1.8-1.45 2.7m-0.55 1.05-0.5 0.9h1.25l-0.3 1 1.05 1.5q1.1 0.55 2.2 1.15l0.5 1.6 2.35 1.35-1.35 1.85m0.8-10.25-2-1.05m3.45 1.35-1.45-0.3m5.85 3.85-2.9-4.4-1.5 0.85m-25.15-0.7 5.2-0.9 4-0.1 2.4 0.15 5.85 0.9 0.8 0.2m-17.7 0.8 4.65-0.8 4-0.1 2.4 0.15 5.85 0.9 0.25 0.1m14.6 4.05-0.05-0.05-2.7-1.05m-8.7 15.25 2.95-3.85h0.35l0.7-0.3-1.95-4.7m9.65-4.95-0.25-0.35m-1.75 18.35 1-0.65q2.75-1.9 4.2-4.9 1.2-2.4 0.4-5-0.35-1.2-1.1-2.1m-2.5-5.35 0.35 0.5v5.75l0.4-0.15 0.1-0.05 0.55-0.25h0.1l1-0.45m-4.5 12.65-0.05 0.55q-0.45 3.45-4.05 4.9l-0.35 0.95-0.95 1.15-1.5 0.85 0.9 2.8q0.25 0.5-0.9 0.85-1.4 0.35-1.95-1l-0.7-2-0.45-1.1-2.45 2.1 0.8 1.6-8.2 2.9-1.5 2.7-1.4-2.55-8.45-3 0.8-1.6-2.35-2-0.4 0.95-0.75 2q-0.55 1.35-1.95 1-1.15-0.35-0.85-0.85l0.85-2.8-1.5-0.85-0.9-1.15-0.35-0.95q-3.65-1.45-4.1-4.9l-0.05-0.55-0.95-0.65q-2.75-1.9-4.2-4.9-1.2-2.4-0.4-5l0.9-1.85 0.15-0.25 2.2 0.9v-5.75l0.65-0.9 2.7-1.05 2.9-4.4 1.5 0.85 1.45-0.3 1.95-1.05 2-1.8 1.35 2.45m0.55 1.05 0.6 1.15h-1.2l0.3 1-1.1 1.5q-1.1 0.55-2.15 1.15l-0.5 1.6-2.35 1.35 1.15 1.6 0.2 0.25-2 4.7 0.75 0.3h0.35m2.85 3.7 0.1 0.15 2.05 0.3 0.1 0.25 0.3 0.2 1.35 1.7 1.25-0.5q0.6 1.65 2.2 1.45l0.05-1.85q1.15 0 2.05 0.95l2.3-6 2.3 5.95q0.9-0.9 2.05-0.9-0.15 0.95 0 1.85 1.6 0.2 2.2-1.45l0.8 0.3m0.5 0.2 1.35-1.7 0.35-0.45 2.1-0.3" fill="none" stroke="#000" stroke-linecap="round" stroke-linejoin="round" stroke-opacity=".30196" stroke-width=".05"/>
</g>
</defs>
</svg>
