<?xml version="1.0" encoding="UTF-8"?>
<svg version="1.1" viewBox="0 0 164.67 197.77" xmlns="http://www.w3.org/2000/svg" xmlns:cc="http://creativecommons.org/ns#" xmlns:dc="http://purl.org/dc/elements/1.1/" xmlns:rdf="http://www.w3.org/1999/02/22-rdf-syntax-ns#" xmlns:xlink="http://www.w3.org/1999/xlink">
<metadata>
<rdf:RDF>
<cc:Work rdf:about="">
<dc:format>image/svg+xml</dc:format>
<dc:type rdf:resource="http://purl.org/dc/dcmitype/StillImage"/>
</cc:Work>
</rdf:RDF>
</metadata>
<g transform="translate(-328.9 -193.93)">
<use transform="translate(353.6,221.45)" width="98.650002" height="170.25" xlink:href="#c"/>
<use transform="matrix(1.0294 -.286 0 1.1074 414.35 207.05)" width="76.949997" height="51.700001" xlink:href="#a"/>
<use transform="matrix(-.9209 .0855 0 1.1074 399.76 215.75)" width="76.949997" height="51.700001" xlink:href="#a"/>
</g>
<defs>
<g id="c" transform="translate(-353.6,-221.45)">
<path d="m379.7 240.2q0.45-7 1.2-14.35-13 6.5-24.8 22.55l-0.5 5.2q11.65-8.75 24.1-13.4m-0.8 17.45q-13.1 3.25-24.3 9.85l-0.7 16.8q12.3-4.1 25.35-7.2-0.5-9.25-0.35-19.45m9.2 65.15q-4.35-11.05-6.7-24.95l-27.3 5.4q0.8 9.9 2.85 18.7 15.9 1.95 31.15 0.85m-15.45 31.95q24.1 8.05 44.2 2.55-9.85-5.3-17.1-14.15-17.6 1.75-35.2-0.85 2.95 5.65 6.7 10.65l1.4 1.8" fill="#300" fill-rule="evenodd"/>
<path d="m379.7 240.2q-12.45 4.65-24.1 13.4l-1 13.9q11.2-6.6 24.3-9.85 0.15-8.4 0.8-17.45m-0.45 36.9q-13.05 3.1-25.35 7.2l-0.15 3.85q-0.15 7.8 0.35 15.1l27.3-5.4q-1.6-9.7-2.15-20.75m52.65 85.8q-8.1-2-15.05-5.6-20.1 5.5-44.2-2.55 18.1 22.4 40.3 18 10.85-2.15 18.95-9.85m-67.35-20.6q17.6 2.6 35.2 0.85-7.05-8.55-11.65-20.35-15.25 1.1-31.15-0.85 2.7 11.1 7.6 20.35" fill="#fc0" fill-rule="evenodd"/>
<path d="m380.9 225.85q-0.75 7.35-1.2 14.35 25.35-9.45 54.1-1.8l-2.3-4.9q-27.05-19.25-50.35-7.75l-0.25 0.1m64 41.25-5.2-14.6q-31-1.55-60.8 5.15-0.15 10.2 0.35 19.45 31-7.6 65.65-10m7.1 36.15q-0.35-9.15-2.35-18.85l-68.25 13.45q2.35 13.9 6.7 24.95 33.55-2.5 63.9-19.55m-5.8 36.7 0.75-1.75q2.9-7.95 4.1-16.35-21.85 14.25-51.3 21.3 7.25 8.85 17.1 14.15 15.9-4.45 29.35-17.35" fill="#6d0101" fill-rule="evenodd"/>
<path d="m433.8 238.4q-28.75-7.65-54.1 1.8-0.65 9.05-0.8 17.45 29.8-6.7 60.8-5.15l-5.9-14.1m15.85 46q-1.4-6.7-3.6-13.6l-1.15-3.7q-34.65 2.4-65.65 10 0.55 11.05 2.15 20.75l68.25-13.45m1.4 37.45q1.45-9.05 0.95-18.6-30.35 17.05-63.9 19.55 4.6 11.8 11.65 20.35 29.45-7.05 51.3-21.3m-34.2 35.45q6.95 3.6 15.05 5.6 8.75-8.3 14.3-22.95-13.45 12.9-29.35 17.35" fill="#fce83f" fill-rule="evenodd"/>
<path d="m355.6 253.6 0.5-5.2m75.4-14.9 2.3 4.9m-79.2 29.1 1-13.9m84.1-1.1-5.9-14.1m15.85 46q-1.4-6.7-3.6-13.6l-1.15-3.7-5.2-14.6m-85.8 31.8 0.7-16.8m97.4 35.75q-0.35-9.15-2.35-18.85m-3.45 55.55 0.75-1.75q2.9-7.95 4.1-16.35 1.45-9.05 0.95-18.6m-97.9 0q-0.5-7.3-0.35-15.1l0.15-3.85m78 78.6q-8.1 7.7-18.95 9.85-22.2 4.4-40.3-18m73.55-14.8q-5.55 14.65-14.3 22.95m-67.35-20.6q-4.9-9.25-7.6-20.35m7.6 20.35q2.95 5.65 6.7 10.65l1.4 1.8m-18.55-51.5q0.8 9.9 2.85 18.7" fill="none" stroke="#000" stroke-linecap="round" stroke-linejoin="round" stroke-opacity=".4" stroke-width=".2"/>
<path d="m440.6 387.45-21.25-27.2q1.6-3.75 4.65-5l16.6 32.2" fill="#f60" fill-rule="evenodd"/>
<path d="m424 355.25q2.1-0.85 4.95-0.5l14.9 36.85-3.25-4.15-16.6-32.2" fill="#c00" fill-rule="evenodd"/>
<path d="m440.6 387.45-21.25-27.2q1.6-3.75 4.65-5 2.1-0.85 4.95-0.5l14.9 36.85z" fill="none" stroke="#000" stroke-linecap="round" stroke-linejoin="round" stroke-opacity=".4" stroke-width=".2"/>
</g>
<g id="a" transform="translate(-.15 .1)">
<use transform="translate(.15 -.1)" width="76.949997" height="51.700001" xlink:href="#b"/>
</g>
<g id="b" transform="translate(-.15 .1)">
<path d="m47.3 0.65q10.4 1.5 18.4 6.9l0.5 0.35-19.7 9.25-7.25 3.4-9.65 1.75-12.3 2.7 30-24.35m-13.2 50.7q-11.5-0.9-20.3-7.4-8.8-6.45-13.55-15.2l9.25-2 24.6 24.6" fill="#699" fill-opacity=".50196" fill-rule="evenodd"/>
<path d="m66.2 7.9q10.8 7.45 10.8 17.85 0 3.15-1 6.05l-29.5-14.65 19.7-9.25m-3.35 37.8q-10.4 5.8-24.35 5.8l-3.95-0.1-0.45-0.05-24.6-24.6 7.8-1.75 12.3-2.7 33.25 23.4" fill="#86aeae" fill-opacity=".52157" fill-rule="evenodd"/>
<path d="m76 31.8q-2.35 6.85-10.3 12.15l-2.7 1.65-0.15 0.1-33.25-23.4 9.65-1.75 7.25-3.4 29.5 14.65m-75.75-3.05q0.3-1.45 2.5-7.55t11-13.65 24.75-7.55l8.8 0.65-30 24.35-7.8 1.75-9.25 2" fill="#adc9c9" fill-opacity=".50196" fill-rule="evenodd"/>
<path d="m47.3 0.65q10.4 1.5 18.4 6.9l0.5 0.35q10.8 7.45 10.8 17.85 0 3.15-1 6.05-2.35 6.85-10.3 12.15l-2.7 1.65-0.15 0.1q-10.4 5.8-24.35 5.8l-3.95-0.1-0.45-0.05q-11.5-0.9-20.3-7.4-8.8-6.45-13.55-15.2 0.3-1.45 2.5-7.55t11-13.65 24.75-7.55l8.8 0.65-30 24.35 12.3-2.7 9.65-1.75 7.25-3.4 19.7-9.25m-19.7 9.25 29.5 14.65m-66.5-5.05 7.8-1.75m-17.05 3.75 9.25-2 24.6 24.6m-4.5-29.05 33.25 23.4" fill="none" stroke="#000" stroke-linecap="round" stroke-linejoin="round" stroke-opacity=".4" stroke-width=".2"/>
</g>
</defs>
</svg>
