<?xml version="1.0" encoding="UTF-8"?>
<svg version="1.1" viewBox="0 0 48.603 47.529" xmlns="http://www.w3.org/2000/svg" xmlns:cc="http://creativecommons.org/ns#" xmlns:dc="http://purl.org/dc/elements/1.1/" xmlns:rdf="http://www.w3.org/1999/02/22-rdf-syntax-ns#" xmlns:xlink="http://www.w3.org/1999/xlink">
<metadata>
<rdf:RDF>
<cc:Work rdf:about="">
<dc:format>image/svg+xml</dc:format>
<dc:type rdf:resource="http://purl.org/dc/dcmitype/StillImage"/>
</cc:Work>
</rdf:RDF>
</metadata>
<g transform="translate(-250.63 -176.72)">
<use transform="translate(250.65,176.7)" width="48.599998" height="47.549999" xlink:href="#a"/>
</g>
<defs>
<g id="a" transform="translate(.05 .05)">
<use transform="translate(-.05 -.05)" width="48.599998" height="47.549999" xlink:href="#b"/>
</g>
<g id="b" transform="translate(.05 .05)">
<path d="m9.15 33.95v-0.05 0.05" fill="#f7c1c8" fill-rule="evenodd"/>
<path d="m40.8 23.1-0.45 0.8h-0.05l0.5-0.8" fill="#f18a59" fill-rule="evenodd"/>
<path d="m35.85 16.7h0.05l-0.05 0.05v-0.05" fill="#f28f6f" fill-rule="evenodd"/>
<path d="m9.15 33.95v-0.05 0.05" fill="#c46548" fill-rule="evenodd"/>
<path d="m40.8 23.1 0.45-0.75 0.15-0.2 0.5-1 1.8-4.35 0.15-2.35 3.55 6.35v0.3l-0.1 2.9-1.6 3.95-0.8 1.35 0.8-1.35 1.6-3.95 0.1-2.9h0.15q1.6 2.9 0.45 6.25l-1.75 4.1q0.15-1.1-1.35-2.15l-0.95 1.55-0.5-0.9-3.1-6.05 0.45-0.8m1.95-10.55-0.1 3.15-1.6 3.9-0.45 0.9-1.2-2.9-0.15 0.3q-2.05 3.9-5.4 7.25-5.15 4.95-13.25 8.35v-3.55q6.45-2.2 10.4-6.55 2.05-2.05 3.45-4.3l1.5-2.9-0.1 0.5v0.05l0.05-0.05q-0.2 0.6-0.15 1.3 0.15 0.8 0.8 0.85l0.6-0.1 1.55-1.1 0.3-0.35 0.4 0.25v0.05-0.05l1.4-3.45q0.4-3.3-0.55-6l2.5 4.45m-42.5 8.15 0.4-1.7q2.1-4.9 5.65-9.05l1.4-1.55q5.65-4.6 11.35-6.6l3.35-0.8q-2.75 1.75-3.05 4-4.45 1.6-8.9 5.25l-1.6 1.85q-2.45 2.95-3.95 6.45-0.45 1.45-0.5 2.85l-0.25-0.05-0.15 0.7-0.6 0.8q-1.85 1.4-2.4-0.55l-0.15-0.9 0.05-0.55-0.65-0.15" fill="#aabbed" fill-rule="evenodd"/>
<path d="m1.65 29.8-0.7-1.3-0.3-0.55q-1.1-3.65-0.4-7.25l0.65 0.15-0.05 0.55 0.15 0.9q0.55 1.95 2.4 0.55l0.6-0.8 0.15-0.7 0.25 0.05q-0.15 2.1 0.5 4.15 1 2.3 4.55 4.25h0.05l0.25 0.15 1.55 0.3 9.3-0.3v3.55l-11.45 0.4v0.05q-5.6-1.45-7.5-4.15" fill="#e2bfee" fill-rule="evenodd"/>
<path d="m43.85 14.45-0.15 2.35-1.8 4.35-0.5 1-0.15 0.2-0.45 0.75-0.5 0.8-0.05 0.1-0.95-1.45 0.2-0.25 1.1-1.8 0.45-0.9 1.6-3.9 0.1-3.15 1.1 1.9m-15.35-14.35q1.4-0.3 4.4 0.55 2.95 0.85 4.9 3.35 1.9 2.5 2.45 4.1 0.95 2.7 0.55 6l-1.4 3.45-0.4-0.25-0.3 0.35-1.55 1.1-0.6 0.1q2.25-4.15 1.1-8.65 0.1 0.3 0.05-0.1-0.1-0.95-1.2-2.8-2.55-4.1-6-4.95l-4.2-0.2v-0.45q0.4-1 2.2-1.6" fill="#53b6ec" fill-rule="evenodd"/>
<path d="m40.35 23.9 3.1 6.05-7.1 7.55q-5.5 3.65-11.2 5.95l-2.25 0.4-2.65-5.75 2.05-0.4q7.75-3.55 13.8-8.7l4.05-4.85 0.1-0.15 0.05-0.1h0.05m3.6 6.95 0.95-1.55q1.5 1.05 1.35 2.15-1.95 3.7-5.2 6.9-5.85 4.95-13.25 8.35l-1.5-2.55q7.7-3.5 13.8-8.65 2.2-2.2 3.85-4.65m-3.35-10.35-1.1 1.8-0.2 0.25q-1.65 2.4-3.85 4.6-6.05 5.2-13.75 8.7l-1.1-2.35q8.1-3.4 13.25-8.35 3.35-3.35 5.4-7.25l0.15-0.3 1.2 2.9m-18.2-19.5 6.1-0.9q-1.8 0.6-2.2 1.6v0.45l4.2 0.2q3.45 0.85 6 4.95 1.1 1.85 1.2 2.8 0.05 0.4-0.05 0.1 1.15 4.5-1.1 8.65-0.65-0.05-0.8-0.85-0.05-0.7 0.15-1.3h-0.05l0.1-0.5 0.3-0.85 0.2-0.6v-0.05q0.25-1.9-0.1-3.55-0.35-1.9-1.45-3.45-2.1-3-5.85-4.05l-2.05-0.05-1 0.15q-2.9 0.3-6.65 1.25 0.3-2.25 3.05-4" fill="#4f9acf" fill-rule="evenodd"/>
<path d="m26 3.75 1-0.15 2.05 0.05q3.75 1.05 5.85 4.05 1.1 1.55 1.45 3.45 0.35 1.65 0.1 3.55v0.05l-0.2 0.6-0.3 0.85-1.2-0.2-2.95 0.05-4.45 0.8-2.6 0.8q-2.3 0.9-4.6 2.3l-0.8-1.2q2.4-1.5 4.8-2.45l0.1-0.05v0.05q3.9-1.6 7.05-1.85l-5.3-10.7" fill="#4e83b6" fill-rule="evenodd"/>
<path d="m43.45 29.95 0.5 0.9q-1.65 2.45-3.85 4.65-6.1 5.15-13.8 8.65l1.5 2.55q-6.65 1.5-13.75 0-4.25-2.25-5.8-4.8l0.05-0.1q1.5 1.2 3.65 2.35l2.4 0.45q4.55 0.6 8.9 0.1l-0.35-0.85-0.5 0.1q-2.75 0.35-9.85-1.2-4.55-1.55-5.65-3.35l-0.1-0.25-1.4-2.45 1.95 1.1 2.4 0.4q4.95 0.7 9.7 0l0.8-0.15-0.8-1.8q-4.75 0.7-9.7 0l-2.4-0.4q-2.2-1.15-3.7-2.4l-2-3.65q1.9 2.7 7.5 4.15v-0.05l11.45-0.4 1.1 2.35q7.7-3.5 13.75-8.7 2.2-2.2 3.85-4.6l0.95 1.45-0.1 0.15-4.05 4.85q-6.05 5.15-13.8 8.7l-2.05 0.4 2.65 5.75 2.25-0.4q5.7-2.3 11.2-5.95l7.1-7.55m-19.2-13.7-4.9-11.25q3.75-0.95 6.65-1.25l5.3 10.7q-3.15 0.25-7.05 1.85v-0.05m2.05 27.9-3.05 0.55 3.05-0.55" fill="#4d6b9e" fill-rule="evenodd"/>
<path d="m8.1 41.65-1.2-2.25q1.1 1.8 5.65 3.35 7.1 1.55 9.85 1.2l0.5-0.1 0.35 0.85q-4.35 0.5-8.9-0.1l-2.4-0.45q-2.15-1.15-3.65-2.35l-0.2-0.15m-2.7-4.95-1.75-3.25q1.5 1.25 3.7 2.4l2.4 0.4q4.95 0.7 9.7 0l0.8 1.8-0.8 0.15q-4.75 0.7-9.7 0l-2.4-0.4-1.95-1.1" fill="#4d5e8f" fill-rule="evenodd"/>
<path d="m24.25 16.25-0.1 0.05q-2.4 0.95-4.8 2.45-1.6 1-3.25 2.25l-0.15-0.65h-0.05l-5.45-10.1q4.45-3.65 8.9-5.25l4.9 11.25" fill="#4d3e6e" fill-rule="evenodd"/>
<path d="m10.45 10.25 5.45 10.1h0.05l0.15 0.65q1.65-1.25 3.25-2.25l0.8 1.2q-1.8 1.15-3.6 2.6-3.35 3.5-5.25 7.7l-1.55-0.3-0.25-0.15h-0.05q-3.55-1.95-4.55-4.25-0.65-2.05-0.5-4.15 0.05-1.4 0.5-2.85 1.5-3.5 3.95-6.45l1.6-1.85" fill="#4d2858" fill-rule="evenodd"/>
<path d="m47.4 21.1v-0.3l-3.55-6.35-1.1-1.9m4.65 8.25 0.15 0.3q1.6 2.9 0.45 6.25l-1.75 4.1q-1.95 3.7-5.2 6.9-5.85 4.95-13.25 8.35-6.65 1.5-13.75 0-4.25-2.25-5.8-4.8l-0.15-0.25-1.2-2.25m-0.1-0.25-1.4-2.45-1.75-3.25-2-3.65-0.7-1.3-0.3-0.55q-1.1-3.65-0.4-7.25l0.4-1.7q2.1-4.9 5.65-9.05l1.4-1.55q5.65-4.6 11.35-6.6l3.35-0.8 6.1-0.9q1.4-0.3 4.4 0.55 2.95 0.85 4.9 3.35 1.9 2.5 2.45 4.1l2.5 4.45m-22.6 7.4q2.3-1.4 4.6-2.3l2.6-0.8 4.45-0.8 2.95-0.05 1.2 0.2-1.5 2.9q-1.4 2.25-3.45 4.3-3.95 4.35-10.4 6.55m18.8-12.35v-0.05m-19.25 2.4q-1.8 1.15-3.6 2.6m-5.25 7.7 9.3-0.3m-1.15 6.3q-4.75 0.7-9.7 0l-2.4-0.4q-2.2-1.15-3.7-2.4m4.65 8.35-0.2-0.15" fill="none" stroke="#92414e" stroke-linecap="round" stroke-linejoin="round" stroke-width=".1"/>
<path d="m43.95 30.85 0.95-1.55 0.8-1.35 1.6-3.95 0.1-2.9m-24.15 23.6q-4.35 0.5-8.9-0.1l-2.4-0.45q-2.15-1.15-3.65-2.35m14.95 2.9 3.05-0.55q7.7-3.5 13.8-8.65 2.2-2.2 3.85-4.65" fill="none" stroke="#7d3248" stroke-linecap="round" stroke-linejoin="round" stroke-opacity=".2" stroke-width=".1"/>
<path d="m19.35 5q-4.45 1.6-8.9 5.25m5.45 10.1h0.05m0.6 2.2q-3.35 3.5-5.25 7.7m-6.9-8.85q0.05-1.4 0.5-2.85 1.5-3.5 3.95-6.45l1.6-1.85m-6.05 11.15q-0.15 2.1 0.5 4.15 1 2.3 4.55 4.25h0.05l0.25 0.15 1.55 0.3" fill="none" stroke="#92414e" stroke-linecap="round" stroke-linejoin="round" stroke-width=".1"/>
</g>
</defs>
</svg>
