<?xml version="1.0" encoding="UTF-8"?>
<svg version="1.1" viewBox="0 0 41.682 49.451" xmlns="http://www.w3.org/2000/svg" xmlns:cc="http://creativecommons.org/ns#" xmlns:dc="http://purl.org/dc/elements/1.1/" xmlns:rdf="http://www.w3.org/1999/02/22-rdf-syntax-ns#" xmlns:xlink="http://www.w3.org/1999/xlink">
<metadata>
<rdf:RDF>
<cc:Work rdf:about="">
<dc:format>image/svg+xml</dc:format>
<dc:type rdf:resource="http://purl.org/dc/dcmitype/StillImage"/>
</cc:Work>
</rdf:RDF>
</metadata>
<g transform="translate(-1.531 -1.518)">
<use transform="matrix(-2.3509 0 0 2.3509 43.216 1.5077)" width="18.299999" height="21.049999" xlink:href="#e"/>
</g>
<defs>
<g id="e" transform="translate(11.3,18.5)">
<use transform="matrix(-.0372 .2637 .4942 .0696 .1588 -3.5151)" width="12.2" height="9.1999998" xlink:href="#k"/>
<use transform="matrix(-.1042 -.3889 -.3889 .1042 4.5895 -1.6871)" width="9.5500002" height="8.9499998" xlink:href="#j"/>
<use transform="matrix(.7071 .7071 -.7071 .7071 -6.3491 -9.0125)" width="7.1500001" height="7" xlink:href="#i"/>
<use transform="translate(-3,-6.7)" width="5.9000001" height="6.5500002" xlink:href="#h"/>
<use transform="matrix(.4026 0 0 .4026 -4.1241 -.4494)" width="9.4499998" height="7.4000001" xlink:href="#g"/>
<use transform="matrix(.4026 0 0 .4026 -3.9228 -2.7422)" width="9.5500002" height="8.9499998" xlink:href="#d"/>
<use transform="matrix(-.3949 .0768 .0607 .3117 -1.0801 -5.6375)" width="9.5500002" height="8.9499998" xlink:href="#d"/>
<use transform="matrix(.285 .2804 .2804 -.285 -7.0207 -3.1072)" width="11.3" height="8.8000002" xlink:href="#c"/>
<use transform="matrix(-.387 .1003 -.1003 -.387 6.983 -5.6985)" width="11.3" height="8.8000002" xlink:href="#c"/>
<use transform="matrix(.4771 0 0 .4771 -5.2229 -11.489)" width="24.25" height="19.049999" xlink:href="#f"/>
<use transform="matrix(.4771 0 0 .4771 -1.3006 -18.496)" width="6.4000001" height="15" xlink:href="#b"/>
<use transform="matrix(.3633 .1271 -.1271 .3633 1.4902 -12.768)" width="10.05" height="10.1" xlink:href="#a"/>
<use transform="matrix(.3749 -.2915 .2915 .3749 -6.6345 -14.983)" width="6.4000001" height="15" xlink:href="#b"/>
<use transform="matrix(.4582 .1316 -.1316 .4582 -1.1572 -12.314)" width="10.05" height="10.1" xlink:href="#a"/>
</g>
<g id="k" transform="translate(12.85,5.4)">
<path d="m-6.5-5.4 3.65 1.8 2.05 3.7 0.15 1.4-1.6 1.6-1.65-0.6-1.15 1.05-0.8-0.3-1.4 0.55-5.6-4.75 6.35-4.45m0.15 7.25 2.45 0.65-2.45-0.65m-1.3 0.6 1.8 0.8-1.8-0.8" fill="#3c3c31" fill-rule="evenodd"/>
<path d="m-2.85-3.6 2.05 3.7 0.15 1.4-1.6 1.6-1.65-0.6-1.15 1.05-0.8-0.3-1.4 0.55m-5.6-4.75 6.35-4.45m0.65 8.65-1.8-0.8m3.75 0.05-2.45-0.65" fill="none" stroke="#000" stroke-linecap="round" stroke-linejoin="round" stroke-width=".05"/>
</g>
<g id="j" transform="translate(8.75,4.7)">
<path d="m-7.5 2.85h-0.05q-1.25-1.5-1.2-3 0-1.5 1.15-3.05 1.15-1.5 3.5-1.5l2.2 0.45q0.95 0.4 1.7 1.25 1.55 1.7 0.65 3.35t-2.15 2.7-2.05 1.15l-0.95 0.05q-1.5 0.05-2.7-1.25l-0.1-0.15" fill="#19160f" fill-rule="evenodd"/>
<path d="m-7.5 2.85h-0.05q-1.25-1.5-1.2-3 0-1.5 1.15-3.05 1.15-1.5 3.5-1.5l2.2 0.45q0.95 0.4 1.7 1.25 1.55 1.7 0.65 3.35t-2.15 2.7-2.05 1.15" fill="none" stroke="#000" stroke-linecap="round" stroke-linejoin="round" stroke-width=".05"/>
</g>
<g id="i" transform="translate(7.15,3.05)">
<path d="m-3.4 1.75-3.75 2.2 1.8-3.85-1.2-0.45 1.55-0.45-1.55-1.55v-0.7l2.85 1.6 0.15-0.1 0.4 3.35-0.25-0.05-0.55-0.3-0.4-0.3 0.4 0.3 0.55 0.3m-0.3-3.2-0.5 0.35 0.5-0.35" fill="#34342a" fill-rule="evenodd"/>
<path d="m-3.55-1.55 1-0.25q0.95-0.15 1.7 0.35 0.75 0.45 0.85 1.2 0.05 0.75-0.55 1.4-0.65 0.6-1.65 0.7l-0.95-0.05-0.4-3.35" fill="#15130d" fill-rule="evenodd"/>
<path d="m-3.4 1.75-0.55-0.3-0.4-0.3m0.8-2.7 1-0.25q0.95-0.15 1.7 0.35 0.75 0.45 0.85 1.2 0.05 0.75-0.55 1.4-0.65 0.6-1.65 0.7l-0.95-0.05-0.25-0.05m-0.3-3.2 0.15-0.1m-0.65 0.45 0.5-0.35" fill="none" stroke="#272318" stroke-linecap="round" stroke-linejoin="round" stroke-width=".05"/>
</g>
<g id="h" transform="translate(2.95,3.25)">
<path d="m1.55 0.5 0.3 0.8-0.45 0.85-1 0.55-0.5-0.45 0.75-1.45 0.9-0.3" fill="#b9ae8e" fill-rule="evenodd"/>
<path d="m1.8-2.5 1.15 2.1-1.1 2.55-2.35 1.15-2.15-1.2-0.3-3.2 0.95-1.15 1.35-1 2.45 0.75m-0.25 3-0.9 0.3-0.75 1.45 0.5 0.45 1-0.55 0.45-0.85-0.3-0.8" fill="#1d1a12" fill-rule="evenodd"/>
<path d="m1.8-2.5-2.45-0.75-1.35 1-0.95 1.15 0.3 3.2 2.15 1.2 2.35-1.15 1.1-2.55z" fill="none" stroke="#000" stroke-linecap="round" stroke-linejoin="round" stroke-width=".05"/>
</g>
<g id="g" transform="translate(9.25,3.6)">
<path d="m-9.1 0.25 1.45-2.6 5.4-1.25 2.45 3.7-0.35 2.4-2.6 0.75-0.75-0.75-1.35 1.05-0.95-0.3-1.65 0.55-1.8-0.95 0.15-2.6m3.7 0.35-0.4 2.65 0.4-2.65m2.75-0.05-0.85 1.95 0.85-1.95" fill="#464639" fill-rule="evenodd"/>
<path d="m0.2 0.1-0.35 2.4-2.6 0.75-0.75-0.75-1.35 1.05-0.95-0.3-1.65 0.55-1.8-0.95 0.15-2.6m5.6 2.25 0.85-1.95m-3.15 2.7 0.4-2.65" fill="none" stroke="#352f20" stroke-linecap="round" stroke-linejoin="round" stroke-width=".05"/>
</g>
<g id="d" transform="translate(8.75,4.7)">
<path d="m-1.9-4.25q0.95 0.4 1.7 1.25 1.55 1.7 0.65 3.35t-2.15 2.7-2.05 1.15l-0.95 0.05q-1.5 0.05-2.7-1.25 5.2-1.6 5.5-7.25" fill="#1d1a12" fill-rule="evenodd"/>
<path d="m-7.5 2.85h-0.05q-1.25-1.5-1.2-3 0-1.5 1.15-3.05 1.15-1.5 3.5-1.5l2.2 0.45q-0.3 5.65-5.5 7.25l-0.1-0.15" fill="#464639" fill-rule="evenodd"/>
<path d="m-7.5 2.85h-0.05q-1.25-1.5-1.2-3 0-1.5 1.15-3.05 1.15-1.5 3.5-1.5l2.2 0.45q0.95 0.4 1.7 1.25 1.55 1.7 0.65 3.35t-2.15 2.7-2.05 1.15l-0.95 0.05q-1.5 0.05-2.7-1.25" fill="none" stroke="#352f20" stroke-linecap="round" stroke-linejoin="round" stroke-width=".05"/>
</g>
<g id="c" transform="translate(7.15,3.15)">
<path d="m1.45-2.85-1.1-0.3h0.05l1.05 0.3" fill="#c63" fill-rule="evenodd"/>
<path d="m0.35-3.15 1.1 0.3 0.2 0.05 0.5 0.1 1.3 2.05-2.95 0.9-0.5-0.5 0.5 0.5 0.6 0.65-0.05 0.05-0.2 0.45 3 0.75 0.3 0.5-2.6 2.85-3.8 0.15-3.25-1.35-1.65-1.95 1.2-3.5 2.65-0.65 1.35 1.35 0.1-0.15h1.45l0.4 0.35-1.1-1 0.35-1.15 0.1-0.05 1-0.7m-5.3 2.4 2.35-0.35-2.35 0.35m5.8 4.15v-2 2m-4.3-2 1.5-1.85-1.5 1.85" fill="#464639" fill-rule="evenodd"/>
<path d="m0.5 0.25 2.95-0.9 0.2 0.3-0.9 0.9 1.1 1.6-3-0.75 0.2-0.45 0.05-0.05-0.6-0.65m1.9 0.65 0.35-0.35-0.35 0.35" fill="#1d1a12" fill-rule="evenodd"/>
<path d="m0.35-3.15 1.1 0.3m-1.05-0.3h-0.05l-1 0.7-0.1 0.05-0.35 1.15 1.1 1 0.5 0.5 0.6 0.65-0.05 0.05-0.2 0.45v2m2.6-4.05-1.3-2.05-0.5-0.1m1.8 2.15 0.2 0.3-0.9 0.9 1.1 1.6 0.3 0.5m-10.1-3.8 2.65-0.65 1.35 1.35 0.1-0.15h1.45l0.4 0.35m2.75 0.8-0.35 0.35m-5-2-2.35 0.35m4.2-1.65 0.1-0.05m-1.3 2-1.5 1.85" fill="none" stroke="#352f20" stroke-linecap="round" stroke-linejoin="round" stroke-width=".05"/>
</g>
<g id="f" transform="translate(12.1,19.05)">
<path d="m11.7-7.15q-0.3 0.75-1.05 1.2l-2.05 1.15-1.35-1.9-0.85-1.15q1.25-1.2 2.6-1.9l1.15 0.6 0.85-0.65-0.35-0.6 0.75-0.2 0.45 2.15-0.15 1.3" fill-rule="evenodd"/>
<path d="m10.65-10.4 0.35 0.6-0.85 0.65-1.15-0.6 1.65-0.65" fill="#c1c8c6" fill-rule="evenodd"/>
<path d="m0.2-19 0.2-0.05 6.5 5.9 0.2 0.05-5.85 2.2-1.65 3.8 0.7 0.25 0.15 0.35 0.4 0.95-3.9 0.15-6.85-1.25 1.3-3.1-3.5 1 4.6-5 2.8-1.6 0.1-0.05v-1.4l4.8-2.2m7.05 12.3 1.35 1.9 2.05-1.15q0.75-0.45 1.05-1.2l-0.75 5.15-2.55 1.5-1.15-6.2" fill="#1d1a12" fill-rule="evenodd"/>
<path d="m0.85-5.55-0.4-0.95-0.15-0.35-0.7-0.25 1.65-3.8 5.85-2.2 3.8 1.3 1.25 1.1-0.3 2.25-0.45-2.15-0.75 0.2-1.65 0.65q-1.35 0.7-2.6 1.9l0.85 1.15 1.15 6.2-0.9 0.5-5.45-1.4-1.15-4.15h-0.05" fill="#464639" fill-rule="evenodd"/>
<path d="m0.4-19.05-0.2 0.05m-4.8 2.2v1.4l-0.1 0.05m-7.4 6.6 3.5-1m-1.3 3.1 6.85 1.25 3.9-0.15-0.4-0.95m6.65-6.6-0.2-0.05m4.8 6 0.15-1.3 0.3-2.25-1.25-1.1m-2.5 11.3 2.55-1.5 0.75-5.15m-10.85 1.6h0.05l1.15 4.15 5.45 1.4 0.9-0.5" fill="none" stroke="#000" stroke-linecap="round" stroke-linejoin="round" stroke-opacity=".52157" stroke-width=".05"/>
</g>
<g id="b" transform="translate(3.25,18.75)">
<path d="m-0.85-12.55 1.75-6.2 2.25 12.7-2.5 2.3-3.6-1.15-0.3-4.05 2.4-3.6m0.65 4.35 0.85 4.45-0.85-4.45" fill="#2d2d24" fill-rule="evenodd"/>
<path d="m-2.95-4.9-0.3-4.05 2.4-3.6m1.5 8.8-0.85-4.45" fill="none" stroke="#221e14" stroke-linecap="round" stroke-linejoin="round" stroke-width=".05"/>
</g>
<g id="a" transform="translate(3.95,6.1)">
<path d="m-3.3 1.45q-0.65-1.1-0.65-2.5 0-2.1 1.45-3.55 1.45-1.5 3.55-1.5 1.5 0 2.65 0.75l0.3 0.55q0.35 0.9 0.35 1.95 0 2.1-1.45 3.55-1.5 1.45-3.6 1.5l-2.05-0.45-0.55-0.3" fill="#fff" fill-rule="evenodd"/>
<path d="m-3.3 1.45 0.55 0.3 2.05 0.45q2.1-0.05 3.6-1.5 1.45-1.45 1.45-3.55 0-1.05-0.35-1.95l-0.3-0.55 0.5 0.35 0.45 0.4q1.45 1.45 1.45 3.55t-1.45 3.55q-1.5 1.45-3.6 1.5-2.1-0.05-3.55-1.5l-0.8-1.05" fill="#cecab0" fill-rule="evenodd"/>
<path d="m3.7-5.35q-1.15-0.75-2.65-0.75-2.1 0-3.55 1.5-1.45 1.45-1.45 3.55 0 1.4 0.65 2.5m7-6.8 0.5 0.35 0.45 0.4q1.45 1.45 1.45 3.55t-1.45 3.55q-1.5 1.45-3.6 1.5-2.1-0.05-3.55-1.5l-0.8-1.05" fill="none" stroke="#6b5b40" stroke-linecap="round" stroke-linejoin="round" stroke-opacity=".37255" stroke-width=".05"/>
<path d="m5-0.4-0.4 1.15q-0.4 0.5-0.95 0.5-0.6 0-0.95-0.5-0.4-0.45-0.4-1.15t0.4-1.2q0.35-0.45 0.95-0.45 0.55 0 0.95 0.45l0.4 1.2" fill="#2d2922" fill-rule="evenodd"/>
</g>
</defs>
</svg>
