<?xml version="1.0" encoding="UTF-8"?>
<svg version="1.1" viewBox="0 0 185.6 104.25" xmlns="http://www.w3.org/2000/svg" xmlns:cc="http://creativecommons.org/ns#" xmlns:dc="http://purl.org/dc/elements/1.1/" xmlns:rdf="http://www.w3.org/1999/02/22-rdf-syntax-ns#" xmlns:xlink="http://www.w3.org/1999/xlink">
<metadata>
<rdf:RDF>
<cc:Work rdf:about="">
<dc:format>image/svg+xml</dc:format>
<dc:type rdf:resource="http://purl.org/dc/dcmitype/StillImage"/>
</cc:Work>
</rdf:RDF>
</metadata>
<g transform="translate(-203.58 -203.52)">
<use transform="translate(203.6,203.55)" width="185.55" height="104.35" xlink:href="#a"/>
</g>
<defs>
<g id="a" transform="translate(-203.6,-203.55)">
<path d="m375.5 228.25q3.25 10.75 3.35 22-1.6 3.05-4.85 5.1 1-1.4 0.4-2.8-2.15 4.05-6.4 5.35l-0.35 0.1q-2.05-2.1 1.75-7.65-3.65 2.3-4.7 8.3l-9.7 0.85 0.45 0.3 0.25 0.2 0.05 0.05 2.3 3.3v0.05l0.1 1.6 0.6-0.5q1.85 0.9 1.6 2.75 2-0.45 3.15-3.5 5.1 3.2 6.05 8.75l0.1-4.3 1.95 3.1q0.8-3.25 0.5-6.8 3-1.4 5.6-0.1-0.8 5.3-2.1 10.15l-0.15 0.7q-1.6 5.8-21.9 10-13.35 2.8-30.05 3.9l10.05-25.1q4.75 3.85 6.9 9.8l1.2-2.9 2.05 3.25q0.95-1.6 1.3-3.05 6.4 0.1 9.9 4.65l-1.75-4.7q2.55 1.55 4.8 3.95-1.95-6.35-8.9-13.65-6.05 2.9-15.4 2.4l6.45-15.65-0.65-7.4 14.1-2.35 4.5-1q11.2-2.7 15.25-6.05 1.8-1.5 2.2-3.1m3.2 29.35q-0.3 2-0.1 2.1l-3.35-0.7 3.45-1.4m-0.55 3.7-0.25 1.75-1.55-0.55 1.8-1.2m-75.9 28.55h-2.4l-30.3-1.3-0.45-0.05q-11.95-1.15-21.95-3.25-21.65-4.45-22.05-10.8v-0.35l-1.15-4.55q1.2-2.45 2.7-4.25l3.15-0.35q-3.3 1.9-2.95 5.7 2.7-4.6 8.3-5.75 0.65 5.05 3.8 9.75-0.85-3.45-0.3-6.9 1.05 5.2 4.15 5.5-2.75-5.1 0.1-15l0.4-0.55q-20.6-0.85-21.6-6.1l-0.05-1.05v-1.35q0.05-6.1 1.05-12.05l1.2-6 1.05-3.85 0.15 0.05q0 1.65 1.4 3.15l0.9 0.85q3.55 2.95 12.7 5.4l7.05 1.65q10.2 2.15 22.4 3.3l30.8 1.3h1.9v46.85" fill="#78745b" fill-rule="evenodd"/>
<path d="m358.05 237.4-4.5 1-14.1 2.35q-16.55 2.15-37.2 2.25h-1.9l-30.8-1.3q-12.2-1.15-22.4-3.3l-7.05-1.65-0.35-10.7-0.3-7.95 7.7-1.85q22.05-4.55 53.2-4.55l32.35 1.5 4.05 0.4 7.05 0.95 9.75 1.7 0.55 0.15 3.95 0.9v8l-4.5-1.05q-22.05-4.55-53.2-4.55t-53.2 4.55l-7.4 1.8 7.4-1.8q22.05-4.55 53.2-4.55t53.2 4.55l4.5 1.05v12.1" fill="#575445" fill-rule="evenodd"/>
<path d="m378.85 250.25q5-4.15 10.3-4.35-7.3 2.55-8.95 8.3 5.3 0.7 7.95 4.7-4.6-2.4-9.45-1.3l-3.45 1.4 3.35 0.7q2.5 0.95 3.4 3.2-1.5-1.5-3.85-1.7l-6.7-0.25 0.65 3.55q0.3 3.55-0.5 6.8l-1.95-3.1q-3.8-5.2-8.35-5.95l-2.55 2.25-0.6 0.5-0.1-1.6v-0.05q-0.45-1.9-2.3-3.3l-0.05-0.05-0.25-0.2-0.45-0.3 9.7-0.85q1.05-6 4.7-8.3-3.8 5.55-1.75 7.65l0.35-0.1q4.25-1.3 6.4-5.35 0.6 1.4-0.4 2.8 3.25-2.05 4.85-5.1m-154.9 19.3-1.05 1.5q0.45-1.9 0.4-3.6 0.1-5.55 3.9-7.35l-4.85 0.55q-7.4-0.2-13.95 1.55-2.45 0.65-4.8 1.55 1.95-2.75 4.8-5.35 2.65-2.4 6-4.6-1.45-3.65-6-4.1l-1.4-0.1 1.4-0.55q6.65-2.35 13.25 0.15v1.35l0.05 1.05q1 5.25 21.6 6.1l-0.4 0.55q-3.3 4.5-4.15 9.05l-0.1 0.45q-0.55 3.45 0.3 6.9-3.15-4.7-3.8-9.75-0.3-2.1-0.1-4.3-4.95 0.45-8.4 4.7-1.5 1.8-2.7 4.25m109.7-5.75q9.35 0.5 15.4-2.4 6.95 7.3 8.9 13.65-2.25-2.4-4.8-3.95l-0.45-0.3q-3.75-2.2-8-2.7 0.6 1.4 0.3 3.05-0.35 1.45-1.3 3.05l-2.05-3.25q-3.4-4.7-8-7.1l-0.1-0.05h0.1" fill="#ffe7ae" fill-rule="evenodd"/>
<path d="m378.15 261.2v0.1l-1.8 1.2 1.55 0.55-0.2 1.35q-2.6-1.3-5.6 0.1l-0.65-3.55 6.7 0.25m-54.65 27.95-21.25 0.7v-46.85q20.65-0.1 37.2-2.25l0.65 7.4-6.45 15.65h-0.1l0.1 0.05q4.6 2.4 8 7.1l-1.2 2.9q-2.15-5.95-6.9-9.8l-10.05 25.1m-100.2-21.7-0.95-6.8 4.85-0.55q-3.8 1.8-3.9 7.35m129.85 3.65 1.75 4.7q-3.5-4.55-9.9-4.65 0.3-1.65-0.3-3.05 4.25 0.5 8 2.7l0.45 0.3m2.6-11.05q1.85 1.4 2.3 3.3l-2.3-3.3m3 4.45 2.55-2.25q4.55 0.75 8.35 5.95l-0.1 4.3q-0.95-5.55-6.05-8.75-1.15 3.05-3.15 3.5 0.25-1.85-1.6-2.75m-115.85-6.25q-2.85 9.9-0.1 15-3.1-0.3-4.15-5.5l0.1-0.45q0.85-4.55 4.15-9.05m-7.75 6.65q-5.6 1.15-8.3 5.75-0.35-3.8 2.95-5.7l-3.15 0.35q3.45-4.25 8.4-4.7-0.2 2.2 0.1 4.3" fill="#605c48" fill-rule="evenodd"/>
<path d="m358.45 217.4q5.85-6.6 15.1-4.8-5.2 0.6-7.15 7.15-3.4-1.25-7.95-2.35m-4.35-1-0.55-0.15-9.75-1.7q9.35-9.05 23.35-11-7.4 3.9-13.05 12.85m-17.35-2.8-4.05-0.4q-0.15-5.15 3.25-9.4-2.55 5.35 0.8 9.8m-112.85 17.55-1.2 6q-5.7-4.15-13.35-2.5 6.05-4.9 14.55-3.5" fill="#deb776" fill-rule="evenodd"/>
<path d="m366.4 219.75q9.2 3.4 9.2 7.6v0.35l-0.1 0.55q-0.4 1.6-2.2 3.1-4.05 3.35-15.25 6.05v-20.1l0.4 0.1q4.55 1.1 7.95 2.35m6.9 11.6q-4.05-3.35-15.25-6.05 11.2 2.7 15.25 6.05m-133.85-13.25 0.3 7.95q-8.85 2.4-12.35 5.3 3.5-2.9 12.35-5.3l0.35 10.7q-9.15-2.45-12.7-5.4l-0.9-0.85q-1.4-1.5-1.4-3.15l0.1-0.75q0.95-4.8 14.25-8.5" fill="#413f34" fill-rule="evenodd"/>
<path d="m366.4 219.75q9.2 3.4 9.2 7.6v0.35l-0.1 0.55q3.25 10.75 3.35 22m-0.15 7.35q-0.3 2-0.1 2.1m-0.45 1.5v0.1l-0.25 1.75-0.2 1.35q-0.8 5.3-2.1 10.15l-0.15 0.7m-150.35-1.15-1.15-4.55m-0.65-2.1-0.95-6.8m135.7-43.35 0.4 0.1q4.55 1.1 7.95 2.35m-12.3-3.35 3.95 0.9m-14.25-2.75 9.75 1.7 0.55 0.15m-10.3-1.85-7.05-0.95-4.05-0.4-32.35-1.5q-31.15 0-53.2 4.55l-7.7 1.85m-14.5 9.2-1.05 3.85-1.2 6q-1 5.95-1.05 12.05v1.35m3.3-23.25 0.25-0.7q0.95-4.8 14.25-8.5" fill="none" stroke="#000" stroke-linecap="round" stroke-linejoin="round" stroke-opacity=".30196" stroke-width=".05"/>
<path d="m358.45 217.4q5.85-6.6 15.1-4.8-5.2 0.6-7.15 7.15m12.45 30.5q5-4.15 10.3-4.35-7.3 2.55-8.95 8.3 5.3 0.7 7.95 4.7-4.6-2.4-9.45-1.3l-3.45 1.4 3.35 0.7q2.5 0.95 3.4 3.2-1.5-1.5-3.85-1.7m-2.7 14.05q-1.6 5.8-21.9 10-13.35 2.8-30.05 3.9l-21.25 0.7h-2.4l-30.3-1.3-0.45-0.05q-11.95-1.15-21.95-3.25-21.65-4.45-22.05-10.8v-0.35m-1.15-4.55-1.05 1.5q0.45-1.9 0.4-3.6m-0.95-6.8q-7.4-0.2-13.95 1.55-2.45 0.65-4.8 1.55 1.95-2.75 4.8-5.35 2.65-2.4 6-4.6-1.45-3.65-6-4.1l-1.4-0.1h-0.5m169-21.35q-0.4 1.6-2.2 3.1-4.05 3.35-15.25 6.05l-4.5 1-14.1 2.35q-16.55 2.15-37.2 2.25h-1.9l-30.8-1.3q-12.2-1.15-22.4-3.3l-7.05-1.65q-9.15-2.45-12.7-5.4m106.25 32.45q9.35 0.5 15.4-2.4 6.95 7.3 8.9 13.65-2.25-2.4-4.8-3.95m-8.15 0.05q-0.35 1.45-1.3 3.05l-2.05-3.25q-3.4-4.7-8-7.1l-0.1-0.05h0.1m20.45-47.4q5.65-8.95 13.05-12.85-14 1.95-23.35 11m-7.05-0.95q-3.35-4.45-0.8-9.8-3.4 4.25-3.25 9.4m46.15 37.05q-1.6 3.05-4.85 5.1 1-1.4 0.4-2.8-2.15 4.05-6.4 5.35l-0.35 0.1q-2.05-2.1 1.75-7.65-3.65 2.3-4.7 8.3l-9.7 0.85 0.45 0.3 0.25 0.2 0.05 0.05q1.85 1.4 2.3 3.3m0 0.05 0.1 1.6 0.6-0.5 2.55-2.25q4.55 0.75 8.35 5.95l1.95 3.1q0.8-3.25 0.5-6.8l-0.65-3.55 6.7 0.25m-25.45 9.6q-3.75-2.2-8-2.7 0.6 1.4 0.3 3.05m-118.5-40.65q-1.4-1.5-1.4-3.15l0.1-0.75m-3.55 23.95 0.05 1.05q1 5.25 21.6 6.1l-0.4 0.55m-4.25 9.5q-0.55 3.45 0.3 6.9-3.15-4.7-3.8-9.75m-8.5 0.4q-1.5 1.8-2.7 4.25m-1.25-32.4q-5.7-4.15-13.35-2.5 6.05-4.9 14.55-3.5m-1.55 29.5 4.85-0.55q-3.8 1.8-3.9 7.35m15.45-0.15q0.85-4.55 4.15-9.05m-16.25 7.05q3.45-4.25 8.4-4.7-0.2 2.2 0.1 4.3m-13.5-15.7q-6.6-2.5-13.25-0.15l-1.4 0.55" fill="none" stroke="#000" stroke-linecap="round" stroke-linejoin="round" stroke-opacity=".30196" stroke-width=".05"/>
<path d="m358.05 225.3q11.2 2.7 15.25 6.05m-133.55-5.3 7.4-1.8q22.05-4.55 53.2-4.55t53.2 4.55l4.5 1.05m-130.65 6.05q3.5-2.9 12.35-5.3" fill="none" stroke="#ffd36c" stroke-linecap="round" stroke-linejoin="round" stroke-opacity=".70196" stroke-width=".05"/>
<path d="m269.55 241.05 1.7 2.1h26l1.65-3.05 1.6 1.2-0.05 1.65-0.25 18.9-4.25 0.1 0.2-14.1v-0.55l-0.2-0.15 0.1-1.8-24-0.15-0.4 1.65-0.1 0.05v38.5l0.85 0.8-1.35 2.3 23.2 0.35 0.05-0.05 0.3-1.5 0.2-0.15 0.85-0.75v-0.5l0.15-11.15 4.2 1.15-0.15 13.5-0.05-0.15q-6.65 2.15-13.95 1.95l-15.25-1-1.05-1v-48.15m35.75 24.1q0.4 2.75-1.5 5.6l-3.7-0.2-4.25-0.2-3.9-0.15q-1.95-3.1-1.25-5.85l14.6 0.8" fill="#ffe7ae" fill-rule="evenodd"/>
<path d="m295.8 274.75-0.15 11.15v0.5l-0.85 0.75-0.2 0.15-0.35 0.3-19.25-1.25-0.6-37.55 21.75-0.95-0.2 14.1-3.85 0.05h-0.35l-0.4 0.7-0.65 1.65q-0.7 2.75 1.25 5.85l3.9 0.15-0.05 4.4m8.15-31.7 31.45 0.6-20.95 46.45-9.6-0.45-2.2-14.2h2.85q5.2-4.3 4.25-10.65h-4.5q-0.3-1.5-1.3-3h-0.8l0.8-18.75m-11 17.6-0.85 1.35 0.85-1.35m1.45 13.5-2.45-3.95 2.45 3.95" fill="#78745b" fill-rule="evenodd"/>
<path d="m299.85 289.4 0.15-13.5 0.1-5.35 3.7 0.2q1.9-2.85 1.5-5.6l-0.05-0.35h4.5q0.95 6.35-4.25 10.65h-2.85l2.2 14.2-5-0.25m-27.45-3.2-0.85-0.8v-38.5l0.1-0.05 1.35-1.05 21.75 0.5 1.2 0.85 0.2 0.15v0.55l-21.75 0.95 0.6 37.55-2.4-0.15h-0.2m27.8-24.35 0.25-18.9 3.5 0.1-0.8 18.75-2.95 0.05" fill="#605c48" fill-rule="evenodd"/>
<path d="m298.9 240.1-1.65 3.05h-26l-1.7-2.1v-0.25l1.85-1.4 27.35 0.6 0.15 0.1m-4.3 47.2-0.3 1.5-0.05 0.05-23.2-0.35 1.35-2.3h0.2l2.4 0.15 19.25 1.25 0.35-0.3m1.35-25.35 4.25-0.1 2.95-0.05h0.8q1 1.5 1.3 3l0.05 0.35-14.6-0.8 0.65-1.65 0.75-0.7 3.85-0.05" fill="#fff2d5" fill-rule="evenodd"/>
<path d="m285.85 291.2q7.3 0.2 13.95-1.95l0.05 0.15v1.1l-1.75 1.5-12.25-0.8m14.15-15.3-4.2-1.15 0.05-4.4 4.25 0.2-0.1 5.35m-28.35-29.05 0.4-1.65 24 0.15-0.1 1.8-1.2-0.85-21.75-0.5-1.35 1.05" fill="#ffd36c" fill-rule="evenodd"/>
<path d="m335.4 243.65h0.5m-66.35 44.9v0.65m26.1-3.3v0.5m-24.1-1v-0.55m24.4-22.9 4.25-0.1m0.25-18.9 3.5 0.1 31.45 0.6-20.95 46.45-9.6-0.45-5-0.25m0 0.45v0.65m5.45-25.35-0.05-0.35q-0.3-1.5-1.3-3h-0.8l-2.95 0.05m-0.1 8.7 3.7 0.2q1.9-2.85 1.5-5.6m-14.6-0.8q-0.7 2.75 1.25 5.85l3.9 0.15 4.25 0.2m-8.75-7.85-0.65 1.65m0.65-1.65 0.75-0.7h-0.35l-0.4 0.7m0.75-0.7 0.85-1.35m-0.85 1.35 3.85-0.05m-4 8.25 2.45 3.95" fill="none" stroke="#000" stroke-linecap="round" stroke-linejoin="round" stroke-opacity=".30196" stroke-width=".05"/>
<path d="m298.9 240.1-0.15-0.1-27.35-0.6-1.85 1.4m0 0.25v47.5m0 0.65 1.05 1 15.25 1m14-1.8 0.15-13.5m-4.2-1.15-0.15 11.15m0 0.5-0.85 0.75m-22.4-0.95-0.85-0.8m0-0.55v-36.9m0-0.75v-0.3l0.1-0.05 1.35-1.05 21.75 0.5 1.2 0.85 0.2 0.15v0.55l-0.2 14.1m4.25-0.1 0.25-18.9 0.05-1.65-1.6-1.2m0.95 49.3v0.45m0 0.65-1.75 1.5-12.25-0.8m-10.85-4.85-2.4-0.15m2.4 0.15 19.25 1.25 0.35-0.3m5.5-16.75-0.1 5.35m-4.15-5.55-0.05 4.4" fill="none" stroke="#000" stroke-linecap="round" stroke-linejoin="round" stroke-opacity=".30196" stroke-width=".05"/>
<path d="m260.75 266.75q-0.9 1.15-2.15 1.15t-2.15-1.15-0.9-2.75 0.9-2.75 2.15-1.15 2.15 1.15 0.9 2.75-0.9 2.75" fill="#575445" fill-rule="evenodd"/>
<path d="m260.75 266.75q-0.9 1.15-2.15 1.15t-2.15-1.15-0.9-2.75 0.9-2.75 2.15-1.15 2.15 1.15 0.9 2.75-0.9 2.75z" fill="none" stroke="#000" stroke-linecap="round" stroke-linejoin="round" stroke-opacity=".30196" stroke-width=".05"/>
<path d="m281.05 268.05q-0.9 1.15-2.15 1.15t-2.15-1.15-0.9-2.75 0.9-2.75 2.15-1.15 2.15 1.15 0.9 2.75-0.9 2.75" fill="#575445" fill-rule="evenodd"/>
<path d="m281.05 268.05q-0.9 1.15-2.15 1.15t-2.15-1.15-0.9-2.75 0.9-2.75 2.15-1.15 2.15 1.15 0.9 2.75-0.9 2.75z" fill="none" stroke="#000" stroke-linecap="round" stroke-linejoin="round" stroke-opacity=".30196" stroke-width=".05"/>
<path d="m262.1 283.5-10.6-5.6-5.45 1.3-0.35 0.95 0.35 1.3-1.8-3.25 1.8 3.25 4.6 17.8q0.55 4.05-2.35 5.25l-0.05-0.05-2.85-0.6-8.8 2.5 0.05 0.7-1.05-0.3h-0.1q-2.05-2.8-2.35-6.55 0.25-7.35 2.6-15.2 3.15-5 7.9-8.2l0.75-0.5 8.5-1.55 9.2 8.75m-17.45 2.15-1.1-0.1 0.1-8.75-0.1 8.75 1.1 0.1m-5.6 10.35-0.5-0.8 2.95-4.05h0.05l2-2.75v-2.85 2.85l-2 2.75h-0.05l-2.95 4.05 0.5 0.8m-1.7 8.4h-0.85v-2.3l0.95 0.2-0.95-0.2v2.3h0.85m-0.15-11.4 1.35 2.2-1.95 2.7-0.1 4.2-1.05-0.25 1.05 0.25 0.1-4.2 1.95-2.7-1.35-2.2m-1.9 11.35 1.2 0.05 0.1 1.95-0.1-1.95-1.2-0.05m7.4-18.9 0.85 0.1-0.85-0.1" fill="#917151" fill-rule="evenodd"/>
<path d="m262.1 283.5 0.9 0.85 1.4 1.35q-2.55 2.75-4.25 2.2l-0.15 0.1 0.2 0.15q2.3 3.2 1.1 4.65-1.35 1.4-3.05 0.65l-2.8-5.2q-0.05 1.7-2.85-1.35l-2.6-2.75-1.6 1.7-2.35-4.4 2.35 4.4 2.9 5.4q3.65 4.25 3.4 10.05-1.4 5.75-5 6.45l-5.65-0.4-0.8-1.8-0.85 1.65-5.75-0.15-0.05-0.7 8.8-2.5 2.85 0.6 0.05 0.05q2.9-1.2 2.35-5.25l-4.6-17.8-0.35-1.3 0.35-0.95 5.45-1.3 10.6 5.6m-12.75-2.65 0.65 3.3-0.65-3.3m3.35-1.1 7.3 8.25-7.3-8.25m-0.75 1.95 3.5 6.55-3.5-6.55" fill="#665039" fill-rule="evenodd"/>
<path d="m246.05 281.45 2.35 4.4 1.6-1.7-0.65-3.3m12.75 2.65-9.2-8.75-8.5 1.55-0.75 0.5m2.4 4.65-1.8-3.25m4.15 7.65 2.9 5.4q3.65 4.25 3.4 10.05-1.4 5.75-5 6.45l-5.65-0.4-0.8-1.8-0.85 1.65-5.75-0.15-1.05-0.3h-0.1q-2.05-2.8-2.35-6.55 0.25-7.35 2.6-15.2 3.15-5 7.9-8.2m16.35 11.2 0.15-0.1q1.7 0.55 4.25-2.2l-1.4-1.35m-7.55 3.9 2.8 5.2q1.7 0.75 3.05-0.65 1.2-1.45-1.1-4.65l-0.2-0.15-7.3-8.25m7.5 8.4-0.05-0.25m-10.15-3.75 2.6 2.75q2.8 3.05 2.85 1.35l-3.5-6.55" fill="none" stroke="#000" stroke-linecap="round" stroke-linejoin="round" stroke-opacity=".30196" stroke-width=".05"/>
<path d="m243.65 276.8-0.1 8.75 1.1 0.1m-8 21.4v0.65m6.9-22.15v2.85l-2 2.75h-0.05l-2.95 4.05 0.5 0.8m-3.6 5.85 1.05 0.25 0.1-4.2 1.95-2.7-1.35-2.2m0.25 9.3-0.95-0.2v2.3h0.85m-0.75 1.95 0.05 0.7m-0.05-0.7-0.1-1.95-1.2-0.05m8.25-18.8-0.85-0.1" fill="none" stroke="#000" stroke-linecap="round" stroke-linejoin="round" stroke-opacity=".30196" stroke-width=".05"/>
<path d="m248.8 238.55v48.85l-1.5 0.7-1.8-1.2-0.95-47.1 2-2.45 0.1 0.05 2.15 1.15" fill="#72583f" fill-rule="evenodd"/>
<path d="m248.8 238.55v48.85l-1.5 0.7-1.8-1.2-0.95-47.1 2-2.45 0.1 0.05z" fill="none" stroke="#000" stroke-linecap="round" stroke-linejoin="round" stroke-opacity=".30196" stroke-width=".05"/>
<path d="m252.3 239.3v48.85l-1.5 0.7-1.8-1.2-0.95-47.1 2-2.45 0.1 0.05 2.15 1.15" fill="#72583f" fill-rule="evenodd"/>
<path d="m252.3 239.3v48.85l-1.5 0.7-1.8-1.2-0.95-47.1 2-2.45 0.1 0.05z" fill="none" stroke="#000" stroke-linecap="round" stroke-linejoin="round" stroke-opacity=".30196" stroke-width=".05"/>
</g>
</defs>
</svg>
