<?xml version="1.0" encoding="UTF-8"?>
<svg version="1.1" viewBox="0 0 66.327 71.994" xmlns="http://www.w3.org/2000/svg" xmlns:cc="http://creativecommons.org/ns#" xmlns:dc="http://purl.org/dc/elements/1.1/" xmlns:rdf="http://www.w3.org/1999/02/22-rdf-syntax-ns#" xmlns:xlink="http://www.w3.org/1999/xlink">
<metadata>
<rdf:RDF>
<cc:Work rdf:about="">
<dc:format>image/svg+xml</dc:format>
<dc:type rdf:resource="http://purl.org/dc/dcmitype/StillImage"/>
</cc:Work>
</rdf:RDF>
</metadata>
<g transform="translate(-241.8 -164.48)">
<use transform="matrix(.9502 0 0 .9502 241.82 164.5)" width="49.150002" height="62.5" xlink:href="#a"/>
<use transform="translate(258.95,173.95)" width="49.150002" height="62.5" xlink:href="#a"/>
</g>
<defs>
<g id="a" transform="translate(24.55,31.25)">
<use transform="translate(-24.55,-31.25)" width="49.150002" height="62.5" xlink:href="#b"/>
</g>
<g id="b" transform="translate(24.55,31.25)">
<path d="m-13.7-24.35 1.75-0.8 1.7-0.85 1.5 0.3-1.5-0.3-1.7 0.85-1.65-0.65 0.8-1.8q8.9-3.1 20.15-3.55 10.9 3 17.15 6.35l-2.2 0.75-6.55-3.5 4.85 4q-6.1 1.8-12.85 2.65l-1.15-1.65-0.5 6.95-10.4 7.3 10.25-5.25-1.1 15.85-2.2-2.4q-2.8-1.95-6.3-2.95 3.5 1 6.3 2.95l2.2 2.4 1.7 2.25 0.75 1.1q0 2.85-1.4 1.5-0.85-3.1-4.3-6.2l-6-2.5 0.75-1.5q0.4-0.5 0.8-0.35 0.05-1.8-2.4-1.55l-1 0.95-3.35 0.25 3.35-0.25-0.6 1.55-2.8 0.35 0.05-1.65 0.55-0.75q-0.9-0.9-2.25 0l-0.3 0.9q-1.25 0.5-2.15 1.3 0.9-0.8 2.15-1.3-0.2 0.9-0.05 1.9l-3.35 3 3.65-1.45 0.2 0.8q1.65 1.05 2.6-0.45-0.65 0.1-0.9-0.7l2.35-0.4q-0.05 0.75 0.3 1.7 1.7 1.5 3.05 0.6l-0.8-1.7q2.95 0.45 5.35 2.15 2.25 1.95 3.65 4.5l-2.2 1.8-2.3 0.4-8-3.9-2.75-0.4h-0.05l-3.05-1.95 1 1.8q-5.95-0.3-10.05 2l6.55-3.95v-1.45l1.35-1.55 1.3-1.45-1.25-4.55 4.4-7.55-4.9 5.75-1.95-6.05 0.6-2.3q0.5-0.4 0.5-0.9-1.5-0.4-3.05 0-1.25 0.7-1.95 2.1-0.4 0.9-0.1 1.6l0.8 0.9h-1.05q-0.55-0.25-0.75-1.1-0.05-1.2 0.6-2.25 0.8-1.4 1.95-1.9l1-0.25-1.05-2.55 6.25-3m-3.35 5.6-1.85-0.05 1.85 0.05m-3.1 3.6q0.75-0.05 1.45-0.6l0.15 0.6-0.5 0.4q-0.8 0.25-1.1-0.4m24.6-7.85 2.15 0.45-2.15-0.45 7.65-1.5 0.9-1.7-11.6-2.95h-0.8l-8.6 2.35-0.75 1.1 1.2 0.25 9.35 1.9-9.3 10.45 10.6-10.15 1.35 0.25m-20.85 25.15 1.4-0.85-1.4 0.85" fill="#959499" fill-rule="evenodd"/>
<path d="m-11.95-25.15-1.75 0.8 0.1-1.45 1.65 0.65m-6.1 8.75-0.25-0.6h1.45l-0.6 2.3-0.4-1.1-0.2-0.6m6.45 12.8 0.3-0.9q1.35-0.9 2.25 0l-0.55 0.75-0.05 1.65 0.2 1.6q0.25 0.8 0.9 0.7-0.95 1.5-2.6 0.45l-0.2-0.8-0.3-1.55q-0.15-1 0.05-1.9m5.35-0.4 1-0.95q2.45-0.25 2.4 1.55-0.4-0.15-0.8 0.35l-0.75 1.5-0.15 1.25 0.8 1.7q-1.35 0.9-3.05-0.6-0.35-0.95-0.3-1.7l0.25-1.55 0.6-1.55m7.65-25.15 11.6 2.95-0.45 0.85-11.15-2.55v-1.25m-21.95 37.6-1.55 0.9-0.75 1.05h-0.9q-0.7-2.3 0.6-4.2l0.2-0.1q4.1-2.3 10.05-2l-0.6 2 2.7-1.85 2.75 0.4 8 3.9 1.15 2.25 0.2 3.1q-4.1-3.1-10-5.8-5.05-1.6-10.4-0.5l-1.45 0.85m36-1.75 1.05 0.4 0.4 6.8q-0.05 2.45-1.3 3.3l-4.55 2 1.85-7.2q1.65-3.45 2.95-4.4l-0.4-0.9m-19.5 23.95-4.25 0.5-0.9-0.45-0.4-0.4-0.2-0.1q-1-0.3-1.6 0.7-4.05-1-6.9-2.8 0.05-0.85-0.5-1.55-0.4-0.55-1.1-0.95-0.9-0.45-1.4 0.8l-2.2-2.8-0.95-5.95 0.45-1.5 3.1 2.95 0.4 2.7q0.6 1.5 1.2 0.6v-1.9l8.6 2.15 0.6 2.65q0.7 1.2 1.8 0v-2.5h6.8l-2.55 7.85" fill="#73757e" fill-rule="evenodd"/>
<path d="m-18.05-16.4 0.2 0.6 0.4 1.1-0.8 0.6-0.3-1.05-0.15-0.6 0.65-0.65m2.55 7.75 4.9-5.75-4.4 7.55q0.25-1.4-0.5-1.8m21.45-4.9-10.25 5.25 10.4-7.3 1.55 3.6-0.1 1-1.6-2.55m-1.5-9.45-1.35-0.25-10.6 10.15 9.3-10.45-9.35-1.9-1.2-0.25 0.75-1.1 0.45 1.35 8.95-2.45 11.15 2.55-0.45 0.85-7.65 1.5m-15.25 27.25-2.7 1.85 0.6-2-1-1.8 3.05 1.95h0.05m-9.8 13.8q0.45-1.4 1.1-1.65l0.7 0.9-0.5 3.2v1.9q-0.6 0.9-1.2-0.6l-0.4-2.7 0.3-1.05m9.8 2.7q0.1-1.35 0.5-1.45h1.3l0.7 3.5v2.5q-1.1 1.2-1.8 0l-0.6-2.65-0.1-0.35v-1.55m33.1-44.8-0.9 1.95q-0.85-0.7-1.35 0.35l0.55-1.8-4.85-4 6.55 3.5m-19.2 0.8q-0.85 0.35-1.3-0.3 0.45 0.65 1.3 0.3m-2.2 52.8-2.3-0.65 1.1-0.7q1.35 0.3 1.2 1.35m-10.1 1.15-2.2 0.2q0.6-1 1.6-0.7l0.2 0.1 0.4 0.4m-9.6-4.15-2.5-0.15q0.5-1.25 1.4-0.8 0.7 0.4 1.1 0.95" fill="#494951" fill-rule="evenodd"/>
<path d="m-16.85-17h-2.05q-1.15 0.5-1.25 1.85 0.3 0.65 1.1 0.4l0.5-0.4 0.3 1.05-1.45 0.6-0.95 0.2-0.8-0.9q-0.3-0.7 0.1-1.6 0.7-1.4 1.95-2.1 1.55-0.4 3.05 0 0 0.5-0.5 0.9m21.7 19.3 1.1-15.85 1.6 2.55-1 15.55-1.7-2.25m1.25-17.9 0.5-6.95 1.15 1.65 0.4 0.6-0.1 1.65 0.1-1.65-0.4-0.6q6.75-0.85 12.85-2.65l-0.55 1.8-1.3 0.35-10.7 2.75-0.4 6.65-1.55-3.6m-14.1-11.2 8.6-2.35h0.8v1.25l-8.95 2.45-0.45-1.35m9.3 40.7-0.2-3.1 1.15-2.65 2.2-1.8q-1.4-2.55-3.65-4.5-2.4-1.7-5.35-2.15l0.15-1.25 6 2.5q3.45 3.1 4.3 6.2 1.4 1.35 1.4-1.5l0.7 1.1q1.25 7.15 1.55 13.1l0.1 3.65-0.45 0.65 0.45-0.65-0.1-3.65 1.5-0.65 4.55-2q1.25-0.85 1.3-3.3v6.7l-1.3 1.5-6.4 2.05-0.8 1.05-1.65 0.7-1.45 0.3 1.55-1.85-0.3-5.55 0.3 5.55-1.55 1.85q-1 2.05-2.3 2.65l-2.1 0.7q0.15-1.05-1.2-1.35l-1.1 0.7q-0.55 0.5-0.6 1.1l-2.05 0.65 2.55-7.85 1.4-0.4q3.75-1.25 6.65-3.6l-0.6-6.35-0.5-4-0.05-0.1-0.95-2 0.95 2v0.05l-4.1 5.5m-12.65-14.05-3.65 1.45 3.35-3 0.3 1.55m4.25-0.75-2.35 0.4-0.2-1.6 2.8-0.35-0.25 1.55m29.4-23.15 2.2-0.75-0.4 2-2.7 0.7 0.9-1.95" fill="#5b5b65" fill-rule="evenodd"/>
<path d="m-22.85 10.4 0.75-1.05 1.55-0.9h6.2q5.4 1.3 10.2 3.65l2.7 3.85q-0.8 2.15-3.75 3.5l-3.45 1.6-0.35-1.75h-1.3q-0.4 0.1-0.5 1.45l-8.25-1.85 0.25-1.6-0.7-0.9q-0.65 0.25-1.1 1.65l-3.4-1.9v-0.45q0-3.3 1.15-5.3m39.8-28.65-0.85 2.05 0.9 1.2-1.4 2.6q-1.5 6.2-0.65 12.35l1.15 2.85-2.3 1.9h-3.6l-2.3-1.8 0.3-3.25 6.4-12.1-6 7.85 2.35-5.95v-2.75h1.35v-1.3l4.65-3.65" fill="#888446" fill-rule="evenodd"/>
<path d="m-20.55 8.45 1.45-0.85q5.35-1.1 10.4 0.5 5.9 2.7 10 5.8l4.1-5.5 0.05 0.05 0.5 4-3.6 4.85-2.85-3.2-3.65-2q-4.8-2.35-10.2-3.65h-6.2m30.1 11.4q-0.3-5.95-1.55-13.1l-0.7-1.1-0.75-1.1 1-15.55 0.1-1 0.4-6.65 10.7-2.75q-1.05 1.4-1.8 3.15l-4.65 3.65v1.3h-1.35v2.75l-2.35 5.95-0.4 4.25-0.3 3.25-0.1 1.05 1.3 2.65 1.95 12.6-1.5 0.65" fill="#5c582e" fill-rule="evenodd"/>
<path d="m-24 16.15 3.4 1.9-0.3 1.05-3.1-2.95m4.95 2.75 8.25 1.85v1.55l0.1 0.35-8.6-2.15 0.25-1.6m10.4 2.15 3.45-1.6q2.95-1.35 3.75-3.5l-2.7-3.85 3.65 2 2.85 3.2 3.6-4.85 0.6 6.35q-2.9 2.35-6.65 3.6l-1.4 0.4h-6.8l-0.35-1.75m24.75-18.25-1.05 3.05 0.4 0.85 0.4 0.9q-1.3 0.95-2.95 4.4l-1.85 7.2-1.95-12.6-1.3-2.65 0.1-1.05 2.3 1.8h3.6l2.3-1.9m-7.5-7.4 6-7.85-6.4 12.1 0.4-4.25m5.1 12 1.35-1.55-1.35 1.55" fill="#75713c" fill-rule="evenodd"/>
<path d="m1.1 10.8-1.15-2.25 2.3-0.4-1.15 2.65" fill="#c0c0c2" fill-rule="evenodd"/>
<path d="m-11.95-25.15-1.75 0.8-6.25 3 1.05 2.55 1.85 0.05m8.3-6.95-1.5-0.3-1.7 0.85m-1.65-0.65-0.1 1.45m-4.6 7.35 0.25 0.6 0.2 0.6 0.4 1.1 1.95 6.05q0.75 0.4 0.5 1.8l1.25 4.55q0.9-0.8 2.15-1.3l0.3-0.9q1.35-0.9 2.25 0l-0.55 0.75 3.35-0.25 1-0.95q2.45-0.25 2.4 1.55-0.4-0.15-0.8 0.35 3.5 1 6.3 2.95l2.2 2.4 1.7 2.25 1-15.55 0.1-1m-24.5-5h-2.05q-1.15 0.5-1.25 1.85 0.75-0.05 1.45-0.6l0.65-0.65m-0.2 2.3 0.8-0.6m24.05-7.85-2.15-0.45-1.35-0.25m-1.3-0.3-9.35-1.9-1.2-0.25m-9.5 11.6-1.45 0.6-0.95 0.2h-1.05q-0.55-0.25-0.75-1.1-0.05-1.2 0.6-2.25 0.8-1.4 1.95-1.9l1-0.25m43.4-6q-6.25-3.35-17.15-6.35-11.25 0.45-20.15 3.55l-0.8 1.8m-9.25 36.2 0.75-1.05 1.55-0.9 1.45-0.85q5.35-1.1 10.4 0.5 5.9 2.7 10 5.8m-24.25-7.8-0.2 0.1q-1.3 1.9-0.6 4.2h0.9q-1.15 2-1.15 5.3v0.45l3.1 2.95 0.3-1.05q0.45-1.4 1.1-1.65l0.7 0.9-0.25 1.6m8.25 1.85q0.1-1.35 0.5-1.45h1.3l0.7 3.5v2.5q-1.1 1.2-1.8 0l-0.6-2.65-8.6-2.15v1.9q-0.6 0.9-1.2-0.6l-0.4-2.7m14.05-21.55 0.6-1.55m-5.4 2.3q-0.15-1 0.05-1.9m2.15 3.1q0.25 0.8 0.9 0.7-0.95 1.5-2.6 0.45l-0.2-0.8-3.65 1.45-1.4 0.85-6.55 3.95m9.2-8.4-1.3 1.45-1.35 1.55v1.45m12-3.7-0.15 1.25q2.95 0.45 5.35 2.15 2.25 1.95 3.65 4.5l0.95 2 0.05 0.1 0.5 4 0.6 6.35 0.3 5.55-1.55 1.85 1.45-0.3 1.65-0.7 0.8-1.05 0.45-0.65-0.1-3.65q-0.3-5.95-1.55-13.1l-0.7-1.1m-11.7-7.2 0.75-1.5m-0.9 2.75 0.8 1.7q-1.35 0.9-3.05-0.6-0.35-0.95-0.3-1.7l-2.35 0.4-0.2-1.6 0.05-1.65m-1.75 3.6-0.3-1.55m4.55 0.8 0.25-1.55m-13.3-12.7q0.3 0.65 1.1 0.4m40.45-7.35 2.7-0.7 0.4-2m-16.75 3.9 0.4 0.6-0.1 1.65 10.7-2.75 1.3-0.35m-12.3 0.85-1.15-1.65m-4.8-1q0.45 0.65 1.3 0.3m15.65 1.85q-1.05 1.4-1.8 3.15l-0.85 2.05 0.9 1.2-1.4 2.6q-1.5 6.2-0.65 12.35l1.15 2.85-1.05 3.05 0.4 0.85 1.05 0.4 0.4 6.8v6.7l-1.3 1.5-6.4 2.05m1.85-4.95 1.85-7.2q1.65-3.45 2.95-4.4l-0.4-0.9m-10.05 1.7v-0.05m0 0.05-4.1 5.5m5.25-9.35 0.75 1.1m7.75 0.2-1.35 1.55m-5.65-26.05-0.4 6.65m13.75-10.1q-0.85-0.7-1.35 0.35m-3.15 35.65q-0.05 2.45-1.3 3.3l-4.55 2-1.5 0.65m-4.25 6.35q-1 2.05-2.3 2.65l-2.1 0.7-2.3-0.65q-0.55 0.5-0.6 1.1l-2.05 0.65-4.25 0.5-0.9-0.45-2.2 0.2q-4.05-1-6.9-2.8 0.05-0.85-0.5-1.55l-2.5-0.15-2.2-2.8-0.95-5.95 0.45-1.5m22.5 6.65 1.4-0.4q3.75-1.25 6.65-3.6m-14.85 4h6.8m-17.8-2.3 0.25-1.6m8.25 1.85v1.55l0.1 0.35m1.5 8.05-0.4-0.4-0.2-0.1q-1-0.3-1.6 0.7m12.3-1.35q0.15-1.05-1.2-1.35l-1.1 0.7m-17.4-2.35q-0.4-0.55-1.1-0.95-0.9-0.45-1.4 0.8" fill="none" stroke="#000" stroke-linecap="round" stroke-linejoin="round" stroke-opacity=".4" stroke-width=".25"/>
<path d="m-5.15 24.3-0.7-0.45h1.65q-0.55 0.1-0.95 0.45m3.85-0.7 0.3-0.05-0.2 0.2-0.1-0.15m-18.4 2.65 0.1 0.25-1.7-0.1-2.2-2.8-0.55-3.4 2.2 2.5q1.35 1.8 2.15 3.55m6.55 0h0.05l5.1 4.4 0.55 0.5h-0.85l-0.9-0.45-2.2 0.2h-0.1v-0.4l-1.65-4.25m13.95 2.25q1.55-3.55 2.25-4.05l0.15 0.7q0 1.15-1.4 3.55l-0.4 0.7-0.5 0.15-0.7-0.2 0.6-0.85m8.05-8.9 0.5 0.35-0.45 0.65-0.05-1m-3.95-0.65v2.25l-0.7-0.3q0.7-0.95 0.7-1.95m-0.05-0.85 0.05-0.1v0.75l-0.05-0.65m11.4-7-0.55 2.95-1.7 1.4-0.1-0.8 2.35-3.7v0.15m-9.9-6.95 0.55-0.6 0.3 2.25-0.85-1.65m-2.85-11.3v2.35l-1.4 4.25q-1.6-1.2-3.45-2 1.85-1.45 4.85-4.6m1.8-7.25v0.75l-0.45 2.3-1.65 0.35 0.05-0.1q1.85-2.05 2.05-3.3m12.6-11.8-5.1 0.6q-0.15-0.85-0.9-1.25h1.55l4.75 0.2-0.3 0.45m-25.25 29.2 2.45 0.05v0.1l-2.5 1.7q-1.9-1.2-4.75-1.45l4.8-0.4m7.4-0.85-0.05 0.05-0.1-0.2 0.15 0.15m-12.5-2.25-0.85 0.2 0.8-0.25 0.05 0.05m11.75-12.05v0.15l-2.85 4.35-2.15 3.9-0.3-0.05 1.15-2.15q2.15-4.55 4.15-6.2m-1.6-13.25 0.05 0.1-0.2-0.05 0.15-0.05m-10.4 11.05h0.2l-0.05 1.75q0.5 1.35 3.35 1.35l0.85-0.05q-0.2 1.05-2.2 4.45l-2.6 3.25-0.85 0.25-1-3.5q0.25-1.3-0.4-1.7l0.35-0.9q1.2-3.55 2.35-4.9m-4.6 0.1-0.15-0.4 0.95-1-0.8 1.4m-0.75-8-0.65 0.5-1.05 0.9-0.2-0.5 1.9-0.9m7 1.85v0.15l-1.15 1.15q-1.2 0.25-2.25 1.1v-0.15q1.95-2.15 3.4-2.25m-2.6-4.7 0.05-0.3 0.1 0.2-0.15 0.1" fill="#890000" fill-opacity=".078431" fill-rule="evenodd"/>
</g>
</defs>
</svg>
