<?xml version="1.0" encoding="UTF-8"?>
<svg version="1.1" viewBox="0 0 266.91 234.83" xmlns="http://www.w3.org/2000/svg" xmlns:cc="http://creativecommons.org/ns#" xmlns:dc="http://purl.org/dc/elements/1.1/" xmlns:rdf="http://www.w3.org/1999/02/22-rdf-syntax-ns#" xmlns:xlink="http://www.w3.org/1999/xlink">
<metadata>
<rdf:RDF>
<cc:Work rdf:about="">
<dc:format>image/svg+xml</dc:format>
<dc:type rdf:resource="http://purl.org/dc/dcmitype/StillImage"/>
</cc:Work>
</rdf:RDF>
</metadata>
<g transform="translate(-148.85 -42.265)">
<use transform="matrix(3.3856 0 0 4.275 148.84 42.225)" width="78.849998" height="54.950001" xlink:href="#a"/>
</g>
<defs>
<g id="a" transform="translate(39.45,27.55)">
<use transform="translate(-39.45,-27.55)" width="78.849998" height="54.950001" xlink:href="#b"/>
</g>
<g id="b" transform="translate(39.45,27.55)">
<path d="m-34.15-9.85q0.35 0.15 0.35 0.8t-0.35 0.85l0.5 0.45 0.4 0.15-0.15 0.3 0.75 0.65v0.2q0.55 0 0.7-0.35l0.65 0.15 0.55-0.05 0.3-0.2 3.5 0.7-0.25 0.5q0 0.95 1.05 0.95 0.75 0 0.75-0.75l-0.1-0.45v-0.05l1.45 0.2q0.15 0.65 1.05 0.65 0.6 0 0.75-0.45l1.25 0.15q0.1 0.5 0.8 0.5l0.6-0.4 1.1 0.05 1.2 0.05-0.05 0.3q-0.3 0.55 0.9 0.55 0.95 0 0.95-0.65v-0.1l15.7 0.8-0.3 0.6q-0.25 0.65 1.2 0.65 1.2 0 1.2-0.7l0.05-0.1 0.3-0.1v0.15l0.7 0.2q0.7 0 0.7-0.6l3.25-0.3v0.25q-0.65 0-0.85 0.3l-0.4-0.1q-0.75 0-0.75 0.75 0 0.65 0.7 0.65 0.5 0 0.7-0.3l0.55 0.1q1.05 0 1.05-0.65l-0.05-0.25 0.7 0.15h0.1v0.15l0.7 0.25q0.8 0 1.1-0.85-0.05-0.75-0.7-0.75l-0.35 0.05v-0.05l3.95-0.55q-0.25 0.25-0.25 0.7 0 0.5 0.75 0.5t0.75-0.65l-0.35-0.65 1.55-0.25q-0.15 0.15-0.15 0.5 0 0.65 0.65 0.65 0.8 0 0.8-0.65 0-0.55-0.35-0.65l2-0.4-0.2 0.65q0 0.9 0.65 0.9 0.8 0 0.8-0.9l-0.1-0.5q1-0.4 1.5-0.7l1.7-0.35 2.05-0.5 0.05 0.3q0 0.95 1.05 0.95 0.8 0 0.8-0.7l-0.15-0.55h0.1q0.15 0.3 0.65 0.3l1-0.25 0.35 0.25q0.75 0 0.75-0.8v-0.05l0.05-0.2-0.1-0.45 0.95-0.3q0.05 0.85 0.95 0.85 0.5 0 0.6-0.25l0.1-0.45-0.2-0.65 0.95-0.45q0.05 0.5 0.65 0.5h0.25l-0.2 0.65 0.05 0.4 0.7 0.25q0.6 0 0.8-0.4l0.05 0.35 0.45 0.2-0.15 0.35 0.05 0.35q0.15 0.3 0.7 0.3l0.8-0.5q0.55-0.5 0.55-0.75h0.2l-0.25 14.25-0.95 0.5q-0.15-0.3-0.55-0.3l-0.2 0.05 0.05-0.3v-0.2q0.35-0.2 0.35-0.75 0-0.8-0.7-0.8-0.8 0-0.8 0.8l0.05 0.25-0.35 0.4-0.05 0.55 0.05 0.3 0.65 0.25h0.1l-0.1 0.45v0.05l-0.25 0.15q-0.15-0.55-0.7-0.55-0.75 0-0.75 0.75l0.05 0.35 0.05 0.1q-0.15 0.05-0.25 0.15l-0.25-0.05-0.9 0.25q-0.5 0.1-0.55 0.65l-1.4 0.7-0.4-0.1q-0.85 0-0.95 0.8l-0.3 0.15q-0.15-0.4-0.65-0.4-0.4 0-1.1 0.5-0.75 0.55-0.75 0.95l0.1 0.1-0.05 0.15-0.75 0.35 0.05-0.4q0-0.75-0.65-0.75-1.2 0-1.2 1.2 0 0.5 0.5 0.65l-1.1 0.55-0.35 0.15v-0.05q0-0.75-0.85-0.75-0.95 0-0.95 0.75h-0.05q-1 0-1.05 0.95-0.7 0.05-0.85 0.6l-0.7 0.25q0.35 0.15 0.35 0.65 0 0.85-0.9 0.85l-0.65-0.25v-0.1l0.2-0.5q0-0.75-0.7-0.75-1.5 0-1.5 0.95v0.1l-0.7 0.15-0.75-0.15-0.55 0.05-0.05 0.05-0.6-0.2-0.25 0.05 0.05-0.5q0.05-0.85-0.65-0.85-0.8 0-0.8 0.9l0.05 0.55-0.25 0.4q-0.2-0.35-0.6-0.35-1.4 0-1.4 0.95l-0.05 0.25-0.65-0.25v-0.1q0.5-0.15 0.5-0.75 0.05-0.85-1.25-0.85l-0.4 0.1-0.1-0.25q0.5-0.15 0.5-0.85l-0.1-0.55 0.4 0.1q0.95 0 0.95-0.95 0-0.7-0.7-0.7-0.95 0-0.95 1l0.05 0.3-0.4-0.1q-0.55 0-0.7 0.7l-0.1 0.05q-0.05-0.75-0.75-0.75t-0.7 0.75l0.2 0.5-0.1 0.05-0.4-0.15h-0.1l-0.15-0.05-0.1 0.05v0.05q-0.85 0.1-0.85 0.85v0.1l-0.65-0.4-0.15-0.45q0-0.65 0.5-0.75l0.05-0.25 0.1-0.2 0.75 0.55q0.75 0 0.75-0.65l-0.2-0.7q-0.1-0.5-0.7-0.5h-0.05v-0.1q-0.05-0.75-0.7-0.75-0.55 0-0.7 0.45l-0.4 0.4v0.55q-1.5-1.35-2.5-3.2l-3.95-10.95q-8.25-3.1-17.75-1.4l-1.95 0.4-1.75 3.85-1.65 4.05-2.4-0.6q-0.05 0.65-0.7 0.65t-0.75-0.55l-0.5-0.2-0.05-0.45 0.3-0.65-0.5-0.5-0.05-0.3-0.45 0.05q-1.2 0-1-0.55 0-0.85 1.05-0.85h0.05l-0.15-0.55-0.15 0.05q-0.85 0-1.15-1.05 0-0.75 0.75-0.75l0.2 0.05-0.15-0.9q-1.45 0-1.3-0.9 0-0.7 0.75-0.7l0.35 0.05-0.1-0.7-0.6 0.2-0.65-0.25-0.05-0.45 0.1-0.7q-0.3-0.15-0.25-0.55l0.3-0.9 0.35-0.2-0.05-0.05-0.4 0.1-0.65-0.25-0.05-0.55q0-0.8 0.75-0.8l0.3 0.05 0.2-0.15-0.4-0.1-0.25-0.7-0.25 0.05q-0.85 0-0.75-0.8 0-1 0.8-1 0.45 0 0.6 0.4l0.05 0.4 0.25-0.05 0.4 0.1m36.95-13.65q0 0.65 1.2 0.65t1.2-0.65q0.1-0.75-1.2-0.75-1.2 0-1.2 0.75m4.8 1.45q0.15 0.3 0.7 0.3 1.55 0 1.55-0.9-0.05-0.65-0.75-0.65-1.55 0-1.55 0.9l0.05 0.35m3.8-0.35 0.05 0.35q0.2 0.3 1.15 0.3 1.25 0 1.25-0.75 0-0.7-1.2-0.7-1.25 0-1.25 0.8m6.1 1.15 0.05 0.4 0.65 0.25q0.75 0 0.75-0.8-0.05-0.8-0.7-0.8-0.55 0-0.7 0.4l-0.05 0.45v0.1m-1.55 0q0 0.65 0.7 0.65 0.75 0 0.75-0.65-0.05-0.75-0.7-0.75-0.75 0-0.75 0.75m18.75 2.9q0.9 3.45-2.95 4.85l-0.4 0.6-28.65 6.05q-20.4 0.8-36.75-4.35l-1.05-0.35q-1.8-1.8 0-5l0.2-0.2q9.5-7.3 34.45-9.6 21.55-0.2 34.85 7.7l0.3 0.3m2.4 13.95q0.8 0 0.8-0.65-0.05-0.75-0.75-0.75t-0.7 0.85v0.3q0.1 0.25 0.65 0.25m-2.55 2.55 0.05 0.45 0.65 0.2q0.75 0 0.75-0.65 0-0.75-0.7-0.75-0.75 0-0.75 0.75m-4.15-3.4q0 0.65 0.65 0.65 0.8 0 0.8-0.65 0-0.75-0.75-0.75-0.7 0-0.7 0.75m3.55 0.95q-0.5 0-0.65 0.4l-0.05 0.4 0.05 0.55q0.5 0.25 0.6 0.25 0.8 0 0.8-0.8t-0.75-0.8m-2.15-2.65 0.65 0.65q0.8 0 0.8-0.7 0-0.75-0.75-0.75-0.7 0-0.7 0.8m4.15-0.05-0.1-0.45-0.6-0.3q-0.75 0-0.75 0.8l0.7 0.65q0.75 0 0.75-0.7m-11.65 0.55q0.1-0.65-0.8-0.65-0.85 0-0.85 0.75-0.05 0.2 0.05 0.35 0.15 0.3 0.75 0.3 0.85 0 0.85-0.75m3.45-8.75q-1.55 0-1.55 1.15v0.3q0.15 0.3 0.85 0.3 1.4 0 1.4-1l-0.1-0.45-0.6-0.3m1.7-1.25q-0.35-0.65-1.15-0.65-0.7 0-0.7 0.7l0.25 0.55 0.65 0.5v0.05l0.05 0.3q0.2 0.25 0.85 0.25 1.2 0 1.2-0.9t-0.95-0.9l-0.2 0.1m-7.35-0.1q0-0.75-0.65-0.75-0.8 0-0.8 0.75 0 0.65 0.75 0.65 0.7 0 0.7-0.65m-0.15-3.5 0.4-0.05q0.05 0.3 0.4 0.5v0.05h-0.2q-0.8 0-0.8 0.7l0.3 0.55 0.55 0.5q0 0.6 0.65 0.6 0.8 0 0.8-0.65v-0.05l0.8 0.15q0.75 0 0.75-0.7l-0.95-0.85h0.05q0.75 0 0.75-0.7 0-1.05-2.35-1.05l-0.35 0.05q-0.15-0.5-0.75-0.5-0.75 0-0.75 0.85l0.7 0.6m5.85 0.3q-0.9 0-0.9 0.85l0.05 0.3q0.15 0.25 0.8 0.25 0.85 0 0.85-0.75 0-0.65-0.8-0.65m-27 30.35q0 0.65 0.7 0.65 1.2 0 1.2-1-0.05-0.8-0.7-0.8-0.3 0-0.75 0.45t-0.45 0.7m9.8 3.65q0.7 0 0.7-0.65-0.05-0.75-0.65-0.75-0.8 0-0.8 0.75 0 0.65 0.75 0.65m-42.05-32.1q-0.75 0-0.75 0.75 0 0.65 0.7 0.65 0.75 0 0.75-0.75v-0.2l-0.05-0.15q-0.15-0.3-0.65-0.3m4.6 3.2-0.75-0.75q-0.75 0-0.75 0.75 0 0.65 0.75 0.65t0.75-0.65m-1.25 1.7-0.65-0.75q-0.45 0-0.7 0.3l-0.3 0.8 0.05 0.4 0.7 0.25q0.9 0 0.9-1m-1.45-2.55-0.7-0.65-1.75 1.1 0.1-0.45-0.75-0.65-0.3 0.05-0.25-0.25q-0.4 0-0.9 0.55l-0.45 0.75q-0.1 0.6 0.65 0.65-0.9 0.45-0.9 0.9l0.05 0.4 0.7 0.25q0.5 0 0.75-0.25l0.4 0.05q0.4 0 0.6-0.15l0.05 0.05q0 0.65 0.7 0.65 0.5 0 1.45-0.7l0.55-0.4 0.35-0.5q0-0.7-0.65-0.75 0.3-0.35 0.3-0.65m3.35 0q0.75 0 0.75-0.65l-0.75-0.75q-0.7 0-0.7 0.75 0 0.65 0.7 0.65m-1.35-1.4q0.95-0.45 0.95-0.75l-0.7-0.75-1.75 0.4-0.4-0.4q-1.1 0-1.1 0.95 0 0.6 0.65 0.6h0.05q0.15 0.4 0.7 0.4 0.65 0 1.6-0.45m1.25-3.2q-0.9 0-0.9 0.75 0 0.65 0.85 0.65 1 0 1-0.65l-0.1-0.4q-0.2-0.35-0.85-0.35m3.85 0-0.1-0.4q-0.25-0.35-0.95-0.35-1.2 0-1.2 0.75-0.25 0.65 1.15 0.65 1.1 0 1.1-0.65m-11.7 13.65-0.1 0.1 0.15 0.1-0.05-0.2m7.6-4.55q0.8 0 0.8-1l-0.75-0.75q-0.85 0-0.75 1.1l0.05 0.45 0.65 0.2m2.5-0.2 0.65-0.4 0.4-0.6-0.7-0.75q-1.1 0-1.1 1.15l0.05 0.35 0.7 0.25m-6.7 4.55-0.3 0.55q0 0.95 0.85 0.95l0.65-0.25 0.1-0.45q0-0.9-0.8-0.9l-0.5 0.1m7.4 6.35 0.25-0.05 0.45 0.05h0.5q0.05 0.6 1.05 0.6 0.75 0 0.9-0.4 0.05 0.6 0.75 0.6l0.4-0.3q0.1 0.5 0.7 0.5l1-0.45 0.45-0.45 0.45 0.05q-0.35 0.3-0.4 0.85 0.35 0.35 0.7 0.35h0.55l-0.2 0.5q0 0.65 0.95 0.65h0.2l0.6-0.1 0.2-0.05 0.75-0.4 0.4-0.3v0.2q0 0.65 0.75 0.65l0.75-0.3-0.1 0.7 0.7 0.35 1.65-0.15q0.25 0.35 0.95 0.35l0.75-0.15 0.05 0.2q-0.45 0.15-0.45 0.6 0 0.65 1.1 0.65h0.2l0.1 0.35q-0.5 0.05-0.5 0.6 0 0.8 0.95 0.95l0.2 0.65h-0.1q-0.95 0-0.95 0.85-0.15-0.45-0.6-0.45-0.8 0-0.8 0.8l0.05 0.55 0.7 0.25 0.65-0.25 0.05-0.55v-0.3q0.4 0.9 1.45 0.9h0.1l0.15 0.5-0.65-0.1q-0.8 0-0.8 0.75 0 0.9 1.2 0.9 0.45 0 0.65-0.2l0.25 0.85-0.85-0.15q-1.1 0-1.1 0.75 0 0.85 1.7 0.85l0.6-0.2 0.4 1.2q-0.4-0.55-1.65-0.55-0.75 0-0.75 0.7 0.1 1.1 1.75 1.1 0.75 0 0.75-0.7v-0.1l0.3 0.9h-0.15q-1.25 0-1.25 0.95 0 0.85 1.65 0.85h0.25l0.75 2.5-0.2 0.05q-0.75 0-0.75 0.7 0.2 0.75 0.75 0.85-0.2 0.2-0.65 0.2-0.85 0-0.85-0.45l-2.8-0.05q-0.1 0.7-0.9 0.7-0.65 0-1.1-0.8l-1.75-0.2 0.1 0.4q0 0.8-0.7 0.8-0.5 0-0.8-0.6h-0.15q-0.15 0.4-0.65 0.4l-0.7-0.25-0.05-0.55 0.25-0.6-4.2-1.05q-0.2 0.95-1.2 0.95l-0.7-0.25-0.05-0.4 0.45-0.8-0.6-0.2q-0.25 0.7-1.1 0.7l-0.7-0.25-0.05-0.3 0.35-0.8-0.5-0.2-0.6 0.6-0.7-0.2-0.05-0.45 0.35-0.7-0.15 0.05-0.65-0.65 0.4 0.05q0.75 0 0.75-0.7l-0.1-0.45q-0.25-0.4-0.95-0.4h-0.05l-0.1-0.2-0.1-0.1h-0.3l-0.7-0.25-0.05-0.35h-0.3q-0.8 0-0.7-0.6 0-0.95 1.25-0.95l0.05 0.05-0.25-0.9-0.3-0.5 0.1-0.35v-0.1l0.8 0.15q0.9 0 0.9-0.7l-0.1-0.65-0.75-0.1q-0.95-0.1-0.95 0.8l-0.05 0.1-0.5-0.05v-0.15q0-0.55-0.3-0.7l0.4-0.45q-0.5-0.1-0.5-0.55h0.2q0.8 0 0.8-0.7l-0.1-0.4h0.4q1.2 0 1.2-0.65l-0.1-0.4q-0.25-0.35-1.05-0.35l-0.6 0.05 0.05-0.05v-0.15q-0.65-0.1-0.5-0.6 0-0.6 0.65-0.7l0.05-0.25q-0.65-0.2-0.65-0.75 0-0.7 0.9-0.75l0.05-0.35q-0.5-0.15-0.5-0.6 0-0.5 0.5-0.65-0.2-0.15-0.05-0.4 0-0.75 0.7-0.8m10.05 9.4q-0.8 0-0.8 0.75 0.2 0.8 1.05 0.8 0.75 0 0.75-0.7l-0.1-0.45q-0.25-0.4-0.9-0.4m-2.3-5.3q-0.85 0-0.85 0.75 0 0.65 0.8 0.65 0.85 0 0.85-0.65 0-0.75-0.8-0.75m-4.45 0.05 0.7 0.25q0.7 0 0.7-0.7l-0.7-0.75q-0.7 0-0.75 0.75-0.2-0.35-0.7-0.35-0.85 0-0.85 0.75 0 0.65 0.8 0.65l0.8-0.6m3.95-1.05q0-0.9-0.9-0.9-0.75 0-0.75 0.7-0.15 0.9 0.9 0.9l0.65-0.2 0.1-0.5m7.1 2.95q0-0.8-0.7-0.8-0.95 0-0.8 1.05l0.05 0.3 0.7 0.25 0.75-0.8m-10.9-26.15q0.8 0 0.8-0.65l-0.75-0.75q-0.7 0-0.7 0.8 0 0.6 0.65 0.6m10.25 33.55 0.7 0.35q0.75 0 0.75-0.65 0-0.75-0.7-0.75-1 0-0.75 1.05" fill="#7a591b" fill-rule="evenodd"/>
<path d="m15.95-21.25q0-0.75 0.75-0.75 0.65 0 0.7 0.75 0 0.65-0.75 0.65-0.7 0-0.7-0.65m1.55 0v-0.1l0.05-0.45q0.15-0.4 0.7-0.4 0.65 0 0.7 0.8 0 0.8-0.75 0.8l-0.65-0.25-0.05-0.4m-6.1-1.15q0-0.8 1.25-0.8 1.2 0 1.2 0.7 0 0.75-1.25 0.75-0.95 0-1.15-0.3l-0.05-0.35m-3.8 0.35-0.05-0.35q0-0.9 1.55-0.9 0.7 0 0.75 0.65 0 0.9-1.55 0.9-0.55 0-0.7-0.3m-4.8-1.45q0-0.75 1.2-0.75 1.3 0 1.2 0.75 0 0.65-1.2 0.65t-1.2-0.65m35.55 15.05h-0.2q0 0.25-0.55 0.75l-0.8 0.5q-0.55 0-0.7-0.3l-0.05-0.35 0.15-0.35-0.45-0.2-0.05-0.35q-0.2 0.4-0.8 0.4l-0.7-0.25-0.05-0.4 0.2-0.65h-0.25q-0.6 0-0.65-0.5l-0.95 0.45 0.2 0.65-0.1 0.45q-0.1 0.25-0.6 0.25-0.9 0-0.95-0.85l-0.95 0.3 0.1 0.45-0.05 0.2v0.05q0 0.8-0.75 0.8l-0.35-0.25-1 0.25q-0.5 0-0.65-0.3h-0.1l0.15 0.55q0 0.7-0.8 0.7-1.05 0-1.05-0.95l-0.05-0.3-2.05 0.5-1.7 0.35q-0.5 0.3-1.5 0.7l0.1 0.5q0 0.9-0.8 0.9-0.65 0-0.65-0.9l0.2-0.65-2 0.4q0.35 0.1 0.35 0.65 0 0.65-0.8 0.65-0.65 0-0.65-0.65 0-0.35 0.15-0.5l-1.55 0.25 0.35 0.65q0 0.65-0.75 0.65t-0.75-0.5q0-0.45 0.25-0.7l-3.95 0.55v0.05l0.35-0.05q0.65 0 0.7 0.75-0.3 0.85-1.1 0.85l-0.7-0.25v-0.15h-0.1l-0.7-0.15 0.05 0.25q0 0.65-1.05 0.65l-0.55-0.1q-0.2 0.3-0.7 0.3-0.7 0-0.7-0.65 0-0.75 0.75-0.75l0.4 0.1q0.2-0.3 0.85-0.3v-0.25l-3.25 0.3q0 0.6-0.7 0.6l-0.7-0.2v-0.15l-0.3 0.1-0.05 0.1q0 0.7-1.2 0.7-1.45 0-1.2-0.65l0.3-0.6-15.7-0.8v0.1q0 0.65-0.95 0.65-1.2 0-0.9-0.55l0.05-0.3-1.2-0.05-1.1-0.05-0.6 0.4q-0.7 0-0.8-0.5l-1.25-0.15q-0.15 0.45-0.75 0.45-0.9 0-1.05-0.65l-1.45-0.2v0.05l0.1 0.45q0 0.75-0.75 0.75-1.05 0-1.05-0.95l0.25-0.5-3.5-0.7-0.3 0.2-0.55 0.05-0.65-0.15q-0.15 0.35-0.7 0.35v-0.2l-0.75-0.65 0.15-0.3-0.4-0.15-0.5-0.45q0.35-0.2 0.35-0.85t-0.35-0.8l0.1-1.35q16.35 5.15 36.75 4.35l28.65-6.05 0.4-0.6q3.85-1.4 2.95-4.85l3.35 3.25 0.4 1.7-0.1 4.95m-73.35 0.2 0.4 0.1-0.2 0.15-0.3-0.05 0.1-0.2m-0.15 1.8 0.4-0.1 0.05 0.05-0.35 0.2-0.1-0.15m12.55 3.85q9.5-1.7 17.75 1.4l3.95 10.95 3.3 9.15-2.8 1.25q0.25 0.15 0.25 0.55 0 0.7-0.9 0.7l-0.85-0.2h-0.15q-0.55-0.1-0.75-0.85 0-0.7 0.75-0.7l0.2-0.05-0.75-2.5h-0.25q-1.65 0-1.65-0.85 0-0.95 1.25-0.95h0.15l-0.3-0.9v0.1q0 0.7-0.75 0.7-1.65 0-1.75-1.1 0-0.7 0.75-0.7 1.25 0 1.65 0.55l-0.4-1.2-0.6 0.2q-1.7 0-1.7-0.85 0-0.75 1.1-0.75l0.85 0.15-0.25-0.85q-0.2 0.2-0.65 0.2-1.2 0-1.2-0.9 0-0.75 0.8-0.75l0.65 0.1-0.15-0.5h-0.1q-1.05 0-1.45-0.9v0.3l-0.05 0.55-0.65 0.25-0.7-0.25-0.05-0.55q0-0.8 0.8-0.8 0.45 0 0.6 0.45 0-0.85 0.95-0.85h0.1l-0.2-0.65q-0.95-0.15-0.95-0.95 0-0.55 0.5-0.6l-0.1-0.35h-0.2q-1.1 0-1.1-0.65 0-0.45 0.45-0.6l-0.05-0.2-0.75 0.15q-0.7 0-0.95-0.35l-1.65 0.15-0.7-0.35 0.1-0.7-0.75 0.3q-0.75 0-0.75-0.65v-0.2l-0.4 0.3-0.75 0.4-0.2 0.05-0.6 0.1h-0.2q-0.95 0-0.95-0.65l0.2-0.5h-0.55q-0.35 0-0.7-0.35 0.05-0.55 0.4-0.85l-0.45-0.05-0.45 0.45-1 0.45q-0.6 0-0.7-0.5l-0.4 0.3q-0.7 0-0.75-0.6-0.15 0.4-0.9 0.4-1 0-1.05-0.6h-0.5l-0.45-0.05-0.25 0.05 0.75-2.3m25.45 16.3-0.1 0.2-0.5-0.4h0.3l0.3 0.2m1.75 1.2 0.1-0.05-0.2-0.5q0-0.75 0.7-0.75t0.75 0.75l0.1-0.05-0.05 0.5-0.25 0.1q-0.25 0.15-0.25 0.55l0.55 0.65-0.35 0.05-0.7-0.25-0.05-0.55v-0.15l-0.15-0.05-0.2-0.25m4.3 2.55 0.05-0.25 0.05 0.25h-0.1m4.5-1.2 0.05-0.05 0.15 0.25-0.1 0.5v-0.25l-0.1-0.45m14.4-36q0.8 0 0.8 0.65 0 0.75-0.85 0.75-0.65 0-0.8-0.25l-0.05-0.3q0-0.85 0.9-0.85m-5.85-0.3-0.7-0.6q0-0.85 0.75-0.85 0.6 0 0.75 0.5l0.35-0.05q2.35 0 2.35 1.05 0 0.7-0.75 0.7h-0.05l0.95 0.85q0 0.7-0.75 0.7l-0.8-0.15v0.05q0 0.65-0.8 0.65-0.65 0-0.65-0.6l-0.55-0.5-0.3-0.55q0-0.7 0.8-0.7h0.2v-0.05q-0.35-0.2-0.4-0.5l-0.4 0.05m0.15 3.5q0 0.65-0.7 0.65-0.75 0-0.75-0.65 0-0.75 0.8-0.75 0.65 0 0.65 0.75m7.35 0.1 0.2-0.1q0.95 0 0.95 0.9t-1.2 0.9q-0.65 0-0.85-0.25l-0.05-0.3v-0.05l-0.65-0.5-0.25-0.55q0-0.7 0.7-0.7 0.8 0 1.15 0.65m-1.7 1.25 0.6 0.3 0.1 0.45q0 1-1.4 1-0.7 0-0.85-0.3v-0.3q0-1.15 1.55-1.15m-3.45 8.75q0 0.75-0.85 0.75-0.6 0-0.75-0.3-0.1-0.15-0.05-0.35 0-0.75 0.85-0.75 0.9 0 0.8 0.65m11.65-0.55q0 0.7-0.75 0.7l-0.7-0.65q0-0.8 0.75-0.8l0.6 0.3 0.1 0.45m-4.15 0.05q0-0.8 0.7-0.8 0.75 0 0.75 0.75 0 0.7-0.8 0.7l-0.65-0.65m2.15 2.65q0.75 0 0.75 0.8t-0.8 0.8q-0.1 0-0.6-0.25l-0.05-0.55 0.05-0.4q0.15-0.4 0.65-0.4m-3.55-0.95q0-0.75 0.7-0.75 0.75 0 0.75 0.75 0 0.65-0.8 0.65-0.65 0-0.65-0.65m4.15 3.4q0-0.75 0.75-0.75 0.7 0 0.7 0.75 0 0.65-0.75 0.65l-0.65-0.2-0.05-0.45m2.55-2.55q-0.55 0-0.65-0.25v-0.3q0-0.85 0.7-0.85t0.75 0.75q0 0.65-0.8 0.65m-36.3 15q0-0.25 0.45-0.7t0.75-0.45q0.65 0 0.7 0.8 0 1-1.2 1-0.7 0-0.7-0.65m9.05 7.25q1-0.05 1.15-0.65l0.1 0.1q-0.25 0.55-1.1 0.55h-0.15m0.75-3.6q-0.75 0-0.75-0.65 0-0.75 0.8-0.75 0.6 0 0.65 0.75 0 0.65-0.7 0.65m-33.05-34.35q0 0.65-1.1 0.65-1.4 0-1.15-0.65 0-0.75 1.2-0.75 0.7 0 0.95 0.35l0.1 0.4m-3.85 0q0.65 0 0.85 0.35l0.1 0.4q0 0.65-1 0.65-0.85 0-0.85-0.65 0-0.75 0.9-0.75m-1.25 3.2q-0.95 0.45-1.6 0.45-0.55 0-0.7-0.4h-0.05q-0.65 0-0.65-0.6 0-0.95 1.1-0.95l0.4 0.4 1.75-0.4 0.7 0.75q0 0.3-0.95 0.75m1.35 1.4q-0.7 0-0.7-0.65 0-0.75 0.7-0.75l0.75 0.75q0 0.65-0.75 0.65m-3.35 0q0 0.3-0.3 0.65 0.65 0.05 0.65 0.75l-0.35 0.5-0.55 0.4q-0.95 0.7-1.45 0.7-0.7 0-0.7-0.65l-0.05-0.05q-0.2 0.15-0.6 0.15l-0.4-0.05q-0.25 0.25-0.75 0.25l-0.7-0.25-0.05-0.4q0-0.45 0.9-0.9-0.75-0.05-0.65-0.65l0.45-0.75q0.5-0.55 0.9-0.55l0.25 0.25 0.3-0.05 0.75 0.65-0.1 0.45 1.75-1.1 0.7 0.65m1.45 2.55q0 1-0.9 1l-0.7-0.25-0.05-0.4 0.3-0.8q0.25-0.3 0.7-0.3l0.65 0.75m1.25-1.7q0 0.65-0.75 0.65t-0.75-0.65q0-0.75 0.75-0.75l0.75 0.75m-4.6-3.2q0.5 0 0.65 0.3l0.05 0.15v0.2q0 0.75-0.75 0.75-0.7 0-0.7-0.65 0-0.75 0.75-0.75m-2.7 11.4 0.05 0.2-0.15-0.1 0.1-0.1m3.4-0.2 0.5-0.1q0.8 0 0.8 0.9l-0.1 0.45-0.65 0.25q-0.85 0-0.85-0.95l0.3-0.55m6.7-4.55-0.7-0.25-0.05-0.35q0-1.15 1.1-1.15l0.7 0.75-0.4 0.6-0.65 0.4m-2.5 0.2-0.65-0.2-0.05-0.45q-0.1-1.1 0.75-1.1l0.75 0.75q0 1-0.8 1m6.65-9.4q-0.65 0-0.65-0.6 0-0.8 0.7-0.8l0.75 0.75q0 0.65-0.8 0.65m10.9 26.15-0.75 0.8-0.7-0.25-0.05-0.3q-0.15-1.05 0.8-1.05 0.7 0 0.7 0.8m-7.1-2.95-0.1 0.5-0.65 0.2q-1.05 0-0.9-0.9 0-0.7 0.75-0.7 0.9 0 0.9 0.9m-3.95 1.05-0.8 0.6q-0.8 0-0.8-0.65 0-0.75 0.85-0.75 0.5 0 0.7 0.35 0.05-0.75 0.75-0.75l0.7 0.75q0 0.7-0.7 0.7l-0.7-0.25m4.45-0.05q0.8 0 0.8 0.75 0 0.65-0.85 0.65-0.8 0-0.8-0.65 0-0.75 0.85-0.75m2.3 5.3q0.65 0 0.9 0.4l0.1 0.45q0 0.7-0.75 0.7-0.85 0-1.05-0.8 0-0.75 0.8-0.75m-4.25 12.35q0 0.7-0.75 0.7-0.8 0-0.7-0.65 0-0.75 0.75-0.75l0.7 0.7m3.3-0.85q0.15 0.25 0.15 0.45l-0.1 0.5-0.65 0.25q-0.95 0-0.9-0.95 0-0.65 0.75-0.65 0.5 0 0.75 0.4m4.6-7.45q-0.25-1.05 0.75-1.05 0.7 0 0.7 0.75 0 0.65-0.75 0.65l-0.7-0.35m-14.85-7.45-0.05 0.05q-0.7 0.15-0.7 0.7l0.05 0.2h-0.2l-0.05-0.3q0-0.65 0.8-0.65h0.15m0.45 12.6-0.45 0.6q-0.45 0.45-0.75 0.45-0.85 0-0.75-0.65l0.45-0.7 0.8-0.45q0.7 0 0.7 0.75m-2.05-4.75 0.15 0.55-0.1 0.45-0.65 0.25q-0.65 0-0.9-1.05 0-0.7 0.8-0.7 0.45 0 0.7 0.5" fill="#9f7424" fill-rule="evenodd"/>
<path d="m-34.15-9.85-0.4-0.1-0.25 0.05-0.05-0.4q-0.15-0.4-0.6-0.4-0.8 0-0.8 1-0.1 0.8 0.75 0.8l0.25-0.05 0.25 0.7-0.1 0.2q-0.75 0-0.75 0.8l0.05 0.55 0.65 0.25 0.1 0.15-0.3 0.9q-0.05 0.4 0.25 0.55l-0.1 0.7 0.05 0.45 0.65 0.25 0.6-0.2 0.1 0.7-0.35-0.05q-0.75 0-0.75 0.7-0.15 0.9 1.3 0.9l0.15 0.9-0.2-0.05q-0.75 0-0.75 0.75 0.3 1.05 1.15 1.05l0.15-0.05 0.15 0.55h-0.05q-1.05 0-1.05 0.85-0.2 0.55 1 0.55l0.45-0.05 0.05 0.3 0.5 0.5-0.3 0.65 0.05 0.45 0.5 0.2q0.1 0.55 0.75 0.55t0.7-0.65l2.4 0.6 1.65-4.05 1.75-3.85 1.95-0.4-0.75 2.3q-0.7 0.05-0.7 0.8-0.15 0.25 0.05 0.4-0.5 0.15-0.5 0.65 0 0.45 0.5 0.6l-0.05 0.35q-0.9 0.05-0.9 0.75 0 0.55 0.65 0.75l-0.05 0.25q-0.65 0.1-0.65 0.7-0.15 0.5 0.5 0.6v0.15h-0.15q-0.8 0-0.8 0.65l0.05 0.3h0.2l-0.05-0.2q0-0.55 0.7-0.7l0.6-0.05q0.8 0 1.05 0.35l0.1 0.4q0 0.65-1.2 0.65h-0.4l0.1 0.4q0 0.7-0.8 0.7h-0.2q0 0.45 0.5 0.55l-0.4 0.45q0.3 0.15 0.3 0.7v0.15l0.5 0.05 0.05-0.1q0-0.9 0.95-0.8l0.75 0.1 0.1 0.65q0 0.7-0.9 0.7l-0.8-0.15v0.1l-0.1 0.35 0.3 0.5 0.25 0.9-0.05-0.05q-1.25 0-1.25 0.95-0.1 0.6 0.7 0.6h0.3l0.05 0.35 0.7 0.25h0.3l0.1 0.1 0.1 0.2h0.05q0.7 0 0.95 0.4l0.1 0.45q0 0.7-0.75 0.7l-0.4-0.05 0.65 0.65 0.15-0.05-0.35 0.7 0.05 0.45 0.7 0.2 0.6-0.6 0.5 0.2-0.35 0.8 0.05 0.3 0.7 0.25q0.85 0 1.1-0.7l0.6 0.2-0.45 0.8 0.05 0.4 0.7 0.25q1 0 1.2-0.95l4.2 1.05-0.25 0.6 0.05 0.55 0.7 0.25q0.5 0 0.65-0.4h0.15q0.3 0.6 0.8 0.6 0.7 0 0.7-0.8l-0.1-0.4 1.75 0.2q0.45 0.8 1.1 0.8 0.8 0 0.9-0.7l2.8 0.05q0 0.45 0.85 0.45 0.45 0 0.65-0.2h0.15l0.85 0.2q0.9 0 0.9-0.7 0-0.4-0.25-0.55l2.8-1.25-3.3-9.15q1 1.85 2.5 3.2v-0.55l0.4-0.4q0.15-0.45 0.7-0.45 0.65 0 0.7 0.75v0.1h0.05q0.6 0 0.7 0.5l0.2 0.7q0 0.65-0.75 0.65l-0.75-0.55-0.3-0.2h-0.3l0.5 0.4-0.05 0.25q-0.5 0.1-0.5 0.75l0.15 0.45 0.65 0.4v-0.1q0-0.75 0.85-0.85v-0.05l0.1-0.05 0.15 0.05h0.1l0.4 0.15 0.2 0.25 0.15 0.05v0.15l0.05 0.55 0.7 0.25 0.35-0.05-0.55-0.65q0-0.4 0.25-0.55l0.25-0.1 0.05-0.5q0.15-0.7 0.7-0.7l0.4 0.1-0.05-0.3q0-1 0.95-1 0.7 0 0.7 0.7 0 0.95-0.95 0.95l-0.4-0.1 0.1 0.55q0 0.7-0.5 0.85l0.1 0.25 0.4-0.1q1.3 0 1.25 0.85 0 0.6-0.5 0.75v0.1l0.65 0.25h0.1l-0.05-0.25q0-0.95 1.4-0.95 0.4 0 0.6 0.35l0.25-0.4-0.05-0.55q0-0.9 0.8-0.9 0.7 0 0.65 0.85l-0.05 0.5 0.25-0.05 0.6 0.2 0.1 0.45v0.25l0.1-0.5-0.15-0.25 0.55-0.05 0.75 0.15 0.7-0.15v-0.1q0-0.95 1.5-0.95 0.7 0 0.7 0.75l-0.2 0.5v0.1l0.65 0.25q0.9 0 0.9-0.85 0-0.5-0.35-0.65l0.7-0.25q0.15-0.55 0.85-0.6 0.05-0.95 1.05-0.95h0.05q0-0.75 0.95-0.75 0.85 0 0.85 0.75v0.05l0.35-0.15 1.1-0.55q-0.5-0.15-0.5-0.65 0-1.2 1.2-1.2 0.65 0 0.65 0.75l-0.05 0.4 0.75-0.35 0.05-0.15-0.1-0.1q0-0.4 0.75-0.95 0.7-0.5 1.1-0.5 0.5 0 0.65 0.4l0.3-0.15q0.1-0.8 0.95-0.8l0.4 0.1 1.4-0.7q0.05-0.55 0.55-0.65l0.9-0.25 0.25 0.05q0.1-0.1 0.25-0.15l-0.05-0.1-0.05-0.35q0-0.75 0.75-0.75 0.55 0 0.7 0.55l0.25-0.15v-0.05l0.1-0.45h-0.1l-0.65-0.25-0.05-0.3 0.05-0.55 0.35-0.4-0.05-0.25q0-0.8 0.8-0.8 0.7 0 0.7 0.8 0 0.55-0.35 0.75v0.2l-0.05 0.3 0.2-0.05q0.4 0 0.55 0.3l0.95-0.5-0.05 1.6q-1.25 8.95-31.3 13.4 0.5 3.55-5.25 5.55l-27.05-3.05q-4.75-0.95-4.3-5.35l-4.3-2.7q-4.95-10.8-4.2-27.75l3.25-4.05q-1.8 3.2 0 5l1.05 0.35-0.1 1.35m44 27.7h0.15q0.85 0 1.1-0.55l-0.1-0.1q-0.15 0.6-1.15 0.65m-24.1 2.75q-0.25-0.4-0.75-0.4-0.75 0-0.75 0.65-0.05 0.95 0.9 0.95l0.65-0.25 0.1-0.5q0-0.2-0.15-0.45m-3.3 0.85-0.7-0.7q-0.75 0-0.75 0.75-0.1 0.65 0.7 0.65 0.75 0 0.75-0.7m-8.55-7.9q-0.25-0.5-0.7-0.5-0.8 0-0.8 0.7 0.25 1.05 0.9 1.05l0.65-0.25 0.1-0.45-0.15-0.55m2.05 4.75q0-0.75-0.7-0.75l-0.8 0.45-0.45 0.7q-0.1 0.65 0.75 0.65 0.3 0 0.75-0.45l0.45-0.6" fill="#604615" fill-rule="evenodd"/>
<path d="m0.3-25.75q-0.85 0.55-1.25-0.25-0.4-0.75 0.25-1.3 0.65-0.5 1.25 0.25 0.6 0.7-0.25 1.3m1.7-0.7q0.55-0.35 0.85 0.3t-0.15 0.9-0.85-0.3 0.15-0.9m2.2 0.6-0.55-0.1q-0.15-0.2 0.15-0.55 0.25-0.3 0.5 0.1t-0.1 0.55m3.85 0.15q-0.3-0.65 0.2-1.1 0.55-0.4 1.05 0.2t-0.2 1.05-1.05-0.15m-1.9-0.05q-0.2-0.5 0.3-1 0.5-0.45 0.75 0.1 0.25 0.6-0.25 1-0.55 0.4-0.8-0.1m5.45 0.65q-0.7 0.35-1.3-0.4-0.55-0.8 0.25-1.35 0.8-0.5 1.25 0.45t-0.2 1.3m2.65 0.1q-0.75 0.3-1.05-0.15-0.25-0.4 0.25-1.05 0.55-0.6 1.05 0.15t-0.25 1.05m4.2-0.55q0.5 0.6-0.2 1.05t-1.05-0.15q-0.3-0.65 0.2-1.1 0.55-0.4 1.05 0.2m-3.1 0.35q-0.3-0.6 0.3-1.15t0.9 0.15-0.3 1.15q-0.65 0.45-0.9-0.15m4.55 0.55q0.7-0.45 1.05 0.35 0.35 0.75-0.2 1.05t-1.05-0.3q-0.45-0.65 0.2-1.1m-10.55 15.25q0.7-0.55 0.95 0.35 0.25 0.85-0.35 1.25-0.65 0.4-0.95-0.35t0.35-1.25m-1.3 2.8q-0.7 0.65-1.5-0.2t0.2-1.55q1-0.75 1.5 0.2 0.5 0.9-0.2 1.55m-2.55-0.4q-0.65 0.45-1.15-0.4-0.45-0.9 0.25-1.25 0.7-0.4 1.15 0.4 0.45 0.75-0.25 1.25m-4.3 0q0.25 0.75-0.35 1.1-0.55 0.35-0.8-0.3-0.25-0.7 0.35-1.15 0.6-0.4 0.8 0.35m2.45-0.5q0.45 0.8-0.3 1.3-0.8 0.5-1.1-0.15t0.3-1.3q0.6-0.7 1.1 0.15m13.15-0.95q-0.65 0.6-1.35-0.15-0.75-0.8 0.15-1.45t1.35 0.2-0.15 1.4m1.1-0.5q-0.35-0.85 0.4-1.4t1.05 0.4q0.25 0.95-0.45 1.4t-1-0.4m2.3-2.35q0.65-0.7 1.2 0.2 0.5 0.85-0.3 1.4-0.85 0.55-1.2-0.15t0.3-1.45m-9.15 3.5q-0.4-0.8 0.35-1.65t1.35 0.2q0.6 1-0.35 1.65-0.95 0.6-1.35-0.2m2.4-0.55q-0.4-0.8 0.25-1.15t1 0.35q0.4 0.7-0.2 1.15t-1.05-0.35m17.85-11.35q-0.75 0.3-1.05-0.15-0.25-0.4 0.25-1.05 0.55-0.6 1.05 0.15t-0.25 1.05m1.3-0.65q0.5-0.5 0.8 0.15 0.25 0.6-0.3 1.05-0.55 0.4-0.8-0.15t0.3-1.05m1.8 1.45q0.55-0.55 1 0.15l0.15 0.3v0.05q0.4 0.95-0.3 1.4l-0.35 0.15 0.2 0.35q0.25 0.7-0.3 1.05-0.5 0.35-0.75-0.3t0.3-1.05l0.15-0.1q-0.3-0.1-0.55-0.5-0.55-0.85 0.35-1.35l0.1-0.15m-1.8 5.2q0.5 0.8-0.2 1.3-0.7 0.55-1.2-0.4-0.5-0.9 0.25-1.3 0.7-0.4 1.15 0.4m1.35-1q0.35 0.65-0.15 1.1-0.45 0.4-1-0.15-0.5-0.6 0.15-1.05l1 0.1m2.5-1.1q-0.2-0.35 0.15-0.5 0.4-0.2 0.65 0.15t-0.2 0.5q-0.4 0.2-0.6-0.15m0.8 0.4q0.75-0.45 1.35 0.35 0.55 0.8-0.35 1.15-0.9 0.4-1.3-0.35-0.4-0.7 0.3-1.15m1.85 2.8q0.6 0.7-0.2 1.3l-0.4 0.25 0.35 0.3q0.25 0.55-0.2 0.8-0.45 0.3-0.75-0.2t0.2-0.8l0.2-0.1q-0.35 0-0.65-0.5-0.5-0.8 0.15-1.3 0.65-0.45 1.3 0.25m-10.65-8.35q-0.55-0.75 0.2-1.25 0.8-0.5 1.2 0.4t-0.2 1.25q-0.65 0.3-1.2-0.4m-2.3-1.4q-0.3-0.5 0.15-0.85 0.4-0.35 0.8 0.15 0.35 0.45-0.15 0.8l-0.8-0.1m-2.6-0.3q-0.2-0.5 0.3-1 0.5-0.45 0.75 0.1 0.25 0.6-0.25 1-0.55 0.4-0.8-0.1m-0.75-0.6-0.85-0.1q-0.2-0.35 0.2-0.9 0.45-0.5 0.85 0.15 0.45 0.6-0.2 0.85m7.4 10.55q0.5 0.85-0.3 1.4-0.8 0.5-1.15-0.2-0.3-0.65 0.3-1.35 0.65-0.7 1.15 0.15m-2.6 1.6q-0.6 0.4-0.9-0.3-0.25-0.75 0.4-1.25 0.65-0.45 0.85 0.35 0.25 0.85-0.35 1.2m-1.7 0.15q-0.5 0.45-1.1-0.15-0.6-0.65 0.15-1.15 0.75-0.55 1.1 0.15 0.35 0.65-0.15 1.15m-3.85 0.55q-0.55-1 0.25-1.4 0.8-0.45 1.3 0.4 0.5 0.9-0.25 1.45t-1.3-0.45m16.85 2.75q-0.75 0.3-1.1-0.3t0.3-0.9 1.1 0.25q0.4 0.6-0.3 0.95m-0.3 3.15q-0.9 0.4-1.3-0.35-0.4-0.7 0.3-1.15 0.75-0.45 1.35 0.35 0.55 0.8-0.35 1.15m0.55 0.6q0.55 0.65-0.15 1.15t-1.1-0.2q-0.45-0.7 0.1-1.15 0.6-0.4 1.15 0.2m-1.6 2.15q0.85-0.5 1.2 0.35 0.4 0.9-0.3 1.3t-1.2-0.4q-0.5-0.75 0.3-1.25m0.9 3.5q-0.8 0.4-1.2-0.3-0.4-0.65 0.35-1.05 0.7-0.35 1.2 0.35 0.5 0.65-0.35 1m-1.2 2.55q0.65-0.45 1.25 0.25 0.6 0.65-0.15 1.2t-1.25-0.2q-0.45-0.8 0.15-1.25m1.6-0.5q-0.85 0.35-1.25-0.35t0.3-1.15q0.7-0.4 1.25 0.35 0.55 0.8-0.3 1.15m-4.15 8.55q0.6 0.65-0.15 1.2t-1.25-0.2q-0.45-0.8 0.15-1.25 0.65-0.45 1.25 0.25m0.65-1.7q0.65-0.4 1.15 0.3t-0.3 1q-0.8 0.35-1.15-0.3-0.35-0.6 0.3-1m3.2-2.45q-0.55 0.3-0.95-0.3-0.4-0.65 0.25-1.05 0.7-0.4 1 0.3t-0.3 1.05m-2.05 1.95q-0.4-0.65 0.35-1.05 0.7-0.35 1.2 0.35 0.5 0.65-0.35 1-0.8 0.4-1.2-0.3m-7.05 4.2q0.85-0.4 1.4 0.35t-0.4 1.15q-0.95 0.45-1.4-0.35-0.4-0.75 0.4-1.15m-1.9 2.1q-0.25-0.45 0.15-0.7 0.45-0.3 0.8 0.2t-0.2 0.7q-0.55 0.25-0.75-0.2m-2.2 0.3q-0.45-0.8 0.15-1.25 0.65-0.45 1.25 0.25 0.6 0.65-0.15 1.2t-1.25-0.2m-1.55 0.85q-0.4-0.6 0.25-1 0.6-0.35 0.9 0.3 0.3 0.7-0.25 1t-0.9-0.3m-1.2-0.2q0.6 0.85-0.4 1.3-1 0.4-1.5-0.4-0.5-0.85 0.4-1.25 0.9-0.45 1.5 0.35m8.7-2.8q-0.4-0.6 0.25-1 0.6-0.35 0.9 0.3 0.3 0.7-0.25 1t-0.9-0.3m-30.35 0.45q-0.75 0.55-1.25-0.2-0.45-0.8 0.15-1.25 0.65-0.45 1.25 0.25 0.6 0.65-0.15 1.2m-0.3 1.7q-0.4-0.65 0.3-1.1 0.7-0.4 1 0.3 0.35 0.75-0.25 1.1t-1.05-0.3m3.15 3.4q0.9-0.6 1.75 0.35t-0.25 1.7q-1.05 0.8-1.7-0.3l-0.3-0.75q-0.75 0.3-1.15-0.35-0.35-0.7 0.3-1.1 0.7-0.4 1.2 0.3l0.15 0.2v-0.05m-2.3-0.9q-0.35-0.55 0.25-0.9 0.65-0.3 1.05 0.3 0.4 0.55-0.3 0.85t-1-0.25m4.75 1.4q-0.25-0.4 0.2-0.7 0.5-0.3 0.75 0.25l0.05 0.05v0.4l-0.1 0.2-0.1 0.1h-0.05q-0.45 0.25-0.75-0.25v-0.05m0.15 3q0.55 0.7-0.35 1.2-0.9 0.55-1.2-0.2-0.3-0.7 0.35-1.2t1.2 0.2m13.8-5.7q0.5 0.7-0.3 1-0.8 0.35-1.15-0.3-0.35-0.6 0.3-1t1.15 0.3m-2.25 0.55q0.6 0.65-0.15 1.2t-1.25-0.2q-0.45-0.8 0.15-1.25 0.65-0.45 1.25 0.25m-4.1 1.45q0.4 0.55-0.3 0.85t-1-0.25q-0.35-0.55 0.25-0.9 0.65-0.3 1.05 0.3m1.1-1.3q0.7-0.4 1 0.3 0.35 0.75-0.25 1.1t-1.05-0.3q-0.4-0.65 0.3-1.1m-14.85-5.95q-0.8 0.35-1.15-0.3-0.35-0.6 0.3-1t1.15 0.3-0.3 1m3 13.3q-0.7-0.7 0.2-1.3 0.9-0.55 1.25 0.25t-0.2 1.3q-0.55 0.45-1.25-0.25m-1.85-0.15q0.05-0.25 0.35-0.4 0.65-0.25 1.15 0.3 0.45 0.6-0.3 0.95-0.75 0.3-1.05-0.25l-0.6 0.7q-0.95 0.6-1.45-0.3t0.4-1.4 1.45 0.3l0.05 0.1m-14.45-51.2q0.4 0.6-0.2 0.85-0.6 0.2-0.8-0.15-0.25-0.3 0.2-0.8 0.4-0.5 0.8 0.1m1.7 0q0.2 0.4-0.2 0.7-0.35 0.3-0.55-0.1-0.15-0.35 0.2-0.7t0.55 0.1m5.5-0.65q0.4 0.9-0.2 1.25-0.65 0.3-1.2-0.4-0.55-0.75 0.2-1.25 0.8-0.5 1.2 0.4m-4.1 0.75q-0.3-0.65 0.2-1.1 0.55-0.4 1.05 0.2t-0.2 1.05-1.05-0.15m5-1.9q0.7-0.85 1.4 0.15 0.65 1.05-0.35 1.45t-1.4-0.2q-0.35-0.55 0.35-1.4m2.3 1.95q-0.3-0.7 0.35-1.35 0.7-0.6 1.05 0.2 0.35 0.75-0.35 1.3-0.7 0.5-1.05-0.15m-18.05 0.8q0.85-0.8 1.25 0.2l0.15 0.55 0.25-0.4q0.5-0.35 0.95 0.2t-0.2 0.95q-0.6 0.4-0.9-0.15l-0.1-0.3-0.55 0.75q-0.9 0.65-1.3-0.2-0.4-0.8 0.45-1.6m-2.35 1.9q-0.3-0.4 0.25-1 0.5-0.6 0.95 0.1 0.5 0.75-0.25 1l-0.95-0.1m-1.5 0.65q0.25 0.45-0.1 0.6-0.3 0.2-0.55-0.2-0.3-0.35 0.1-0.6 0.35-0.25 0.55 0.2m-4.15 2.85q-0.75 0.55-1.05-0.15-0.35-0.7 0.35-1.35t1.05 0.15-0.35 1.35m1.5-1.55q-0.5 0.3-0.7-0.1-0.25-0.45 0.15-0.75 0.35-0.3 0.7 0.15 0.35 0.4-0.15 0.7m-4.9 1.5q-0.3-0.4 0.25-1 0.5-0.6 0.95 0.1 0.5 0.75-0.25 1l-0.95-0.1m-4 2.8q-0.3-0.65 0.2-1.1 0.55-0.4 1.05 0.2t-0.15 1.05l0.15 0.2q0.45 0.75-0.25 1.25l-0.15 0.1q0.05 0.45-0.35 0.65-0.65 0.3-1.2-0.4-0.55-0.75 0.2-1.25l0.2-0.1q-0.05-0.4 0.3-0.6m-2.35 2.25q0.5-0.6 0.95 0.1 0.5 0.75-0.25 1l-0.95-0.1q-0.3-0.4 0.25-1m2.6 0.45q0.75-0.55 1.1 0.15 0.35 0.65-0.15 1.15-0.5 0.45-1.1-0.15-0.6-0.65 0.15-1.15m3.45-3.45q-0.65 0.3-1.2-0.4-0.55-0.75 0.2-1.25 0.8-0.5 1.2 0.4t-0.2 1.25m2 6.3q0.7-0.4 1.15 0.4 0.45 0.75-0.25 1.25-0.65 0.45-1.15-0.4-0.45-0.9 0.25-1.25m-1.1 0.95q-0.7 0.45-1-0.1-0.25-0.6 0.25-1.2 0.55-0.55 1 0.15 0.4 0.7-0.25 1.15m-2.55-0.8q-0.6 0.4-0.9-0.3-0.25-0.75 0.4-1.25 0.65-0.45 0.85 0.35 0.25 0.85-0.35 1.2m-4.85 0.55q-0.35-0.7 0.35-1.35t1.05 0.15-0.35 1.35q-0.75 0.55-1.05-0.15m-0.3 1.65q-0.25-0.45 0.15-0.75 0.35-0.3 0.7 0.15 0.35 0.4-0.15 0.7t-0.7-0.1m1.2 1.85q0.25 0.45-0.1 0.6-0.3 0.2-0.55-0.2-0.3-0.35 0.1-0.6 0.35-0.25 0.55 0.2m0.3 2.4-0.95-0.1q-0.3-0.4 0.25-1 0.5-0.6 0.95 0.1 0.5 0.75-0.25 1m0.2 2.65q-0.9 0.65-1.3-0.2-0.4-0.8 0.45-1.6t1.25 0.2q0.45 0.95-0.4 1.6m14.2-6.3q-0.8 0.5-1.1-0.15t0.3-1.3q0.6-0.7 1.1 0.15 0.45 0.8-0.3 1.3m2.75 0.65q-0.65 0.45-1.15-0.4-0.45-0.9 0.25-1.25 0.7-0.4 1.15 0.4 0.45 0.75-0.25 1.25m-4.55-1.5q-0.5 0.3-0.75-0.25-0.2-0.6 0.3-1 0.55-0.4 0.75 0.25 0.2 0.7-0.3 1m-3.15-0.3q-0.65-0.7 0.15-1.25 0.8-0.6 1.2 0.15t-0.15 1.25q-0.55 0.55-1.2-0.15m4.95 5.6 0.15 0.45 0.35 0.35 0.45-0.6q0.85-0.5 1.2 0.35 0.4 0.9-0.3 1.3t-1.2-0.4l-0.05-0.1-0.4 0.45q-0.65 0.5-1.05-0.1-0.65 0.1-1.1-0.5-0.6-0.85 0.45-1.5 1-0.7 1.5 0.3m-1.3 3q0.35 0.85-0.4 1.15t-1.1-0.35 0.35-1.1q0.75-0.5 1.15 0.3m8.4-24.45q0.7-0.45 1.1 0.4 0.35 0.8-0.2 1.1-0.6 0.3-1.1-0.35t0.2-1.15m2.95 16.65q1-0.5 1.6 0.55 0.6 1.1-0.35 1.75-0.9 0.7-1.6-0.5l-0.1-0.25-0.2 0.15q-1 0.65-1.45-0.2-0.4-0.8 0.4-1.65 0.75-0.9 1.4 0.15l0.1 0.15 0.2-0.15m2.95 0.35q0.8-0.6 1.25 0.2 0.4 0.75-0.15 1.3-0.6 0.55-1.25-0.15-0.7-0.75 0.15-1.35m-9.3 0.1q-0.65-0.65 0.15-1.2 0.75-0.55 1.15 0.15 0.35 0.75-0.15 1.25-0.55 0.5-1.15-0.2m1.85 0.3q-0.3-0.75 0.35-1.25 0.7-0.55 0.95 0.35 0.25 0.85-0.35 1.25-0.65 0.4-0.95-0.35m-1.1 4.2q0.5 0.65-0.35 1-0.8 0.4-1.2-0.3-0.4-0.65 0.35-1.05 0.7-0.35 1.2 0.35m1.1 0.25q-0.4-0.7 0.3-1.15 0.7-0.4 1.25 0.35l0.35-0.55q0.65-0.45 1.25 0.25 0.6 0.65-0.15 1.2t-1.25-0.2q-0.1 0.3-0.5 0.45-0.85 0.35-1.25-0.35m6.9-0.45q0.7-0.35 1.2 0.35 0.5 0.65-0.35 1-0.8 0.4-1.2-0.3-0.4-0.65 0.35-1.05m-1.4 0.9q-0.55 0.3-0.95-0.3-0.4-0.65 0.25-1.05 0.7-0.4 1 0.3t-0.3 1.05m9.6-4.8 0.15 0.4 0.4-0.45q0.75-0.55 1.1 0.15 0.35 0.65-0.15 1.15-0.5 0.45-1.1-0.15l-0.2-0.3q-0.1 0.4-0.5 0.7-0.8 0.55-1.35-0.5-0.55-1 0.25-1.45 0.85-0.45 1.4 0.45m-4.5 0.05q0.25 0.85-0.35 1.25-0.65 0.4-0.95-0.35t0.35-1.25q0.7-0.55 0.95 0.35m1.4-0.35q0.55-0.55 1 0.15 0.4 0.7-0.25 1.15-0.7 0.45-1-0.1-0.25-0.6 0.25-1.2m0.05 6.55q-0.75 0.55-1.25-0.2-0.45-0.8 0.15-1.25 0.65-0.45 1.25 0.25 0.6 0.65-0.15 1.2m-2.15-0.8q-0.8 0.35-1.15-0.3-0.35-0.6 0.3-1t1.15 0.3-0.3 1m3.65 1.15q0.3 0.7-0.25 1t-0.9-0.3q-0.4-0.6 0.25-1 0.6-0.35 0.9 0.3m0.8 3.1q-0.95 0.45-1.4-0.35-0.4-0.75 0.4-1.15 0.85-0.4 1.4 0.35t-0.4 1.15m0.65 2.3q0.65-0.45 1.25 0.25 0.6 0.65-0.15 1.2t-1.25-0.2q-0.45-0.8 0.15-1.25m-0.05-0.25q-0.55 0.25-0.75-0.2-0.25-0.45 0.15-0.7 0.45-0.3 0.8 0.2t-0.2 0.7m1.4 4.7q0.9-0.45 1.5 0.35 0.6 0.85-0.4 1.3-1 0.4-1.5-0.4-0.5-0.85 0.4-1.25m0.7-0.65q-0.55 0.3-0.9-0.3-0.4-0.6 0.25-1 0.6-0.35 0.9 0.3 0.3 0.7-0.25 1m-18.75 15.85q-0.55 0.3-0.7-0.15-0.2-0.4 0.2-0.7 0.35-0.3 0.7 0.1t-0.2 0.75m2.2 0.25q-0.35 0.25-0.6-0.15-0.2-0.4 0.2-0.6l0.6 0.1q0.2 0.35-0.2 0.65m2.35-0.25q0.55 0.65-0.25 0.95-0.85 0.35-1.2-0.3t0.3-0.95 1.15 0.3m1.95 0q0.3 0.75-0.2 1.15-0.5 0.45-1.15-0.2t0.2-1.2q0.8-0.5 1.15 0.25m5.4 0.2q0.4 0.6-0.3 1.05-0.65 0.45-1-0.25-0.4-0.65 0.25-1 0.7-0.4 1.05 0.2m-20.65-19.8q-0.2-0.5 0.3-0.75 0.45-0.3 0.7 0.25 0.3 0.5-0.25 0.75t-0.75-0.25m0.65-2.05q-0.25-0.7 0.3-1.25 0.6-0.5 1.05 0.15 0.5 0.65-0.3 1.25-0.75 0.55-1.05-0.15m0.25 5.15q-0.6 0.5-1.3-0.25-0.7-0.7 0.2-1.3 0.95-0.6 1.3 0.25 0.4 0.85-0.2 1.3m-1.25 0.85q0.35 0.4-0.2 0.65t-0.8-0.2q-0.25-0.5 0.2-0.7t0.8 0.25m-0.9 3.1q-0.25-0.5 0.2-0.7 0.45-0.25 0.7 0.15t-0.2 0.7-0.7-0.15m-7.2-9.5q0.35 0.8-0.2 1.1-0.6 0.3-1.1-0.35t0.2-1.15q0.7-0.45 1.1 0.4m-2.15-1.45q-0.3-0.55 0.15-1 0.5-0.35 0.95 0.2t-0.2 0.95q-0.6 0.4-0.9-0.15m1.3 3.85q-0.25-0.3 0.2-0.8 0.4-0.5 0.8 0.1t-0.2 0.85q-0.6 0.2-0.8-0.15m0.6 2.65q-0.35 0.3-0.55-0.1-0.15-0.35 0.2-0.7t0.55 0.1q0.2 0.4-0.2 0.7m1.15 1.1q0.5 0.6-0.2 1.05t-1.05-0.15q-0.3-0.65 0.2-1.1 0.55-0.4 1.05 0.2m0 2.2q0.8-0.5 1.2 0.4 0.3 0.65 0.05 1.05 0.45-0.1 0.85 0.5 0.65 1.05-0.35 1.45t-1.4-0.2q-0.35-0.55 0.35-1.4l0.1-0.05q-0.55 0.05-1-0.5-0.55-0.75 0.2-1.25m3.4 6.65-0.15-0.6-0.15 0.1q-0.7 0.5-1.05-0.15-0.3-0.7 0.35-1.35 0.7-0.6 1.05 0.2l0.1 0.6 0.1-0.1q0.65-0.5 1.25 0.25 0.6 0.7-0.25 1.3-0.85 0.55-1.25-0.25m2.1 1.9q0.9-0.55 1.25 0.25t-0.2 1.3q-0.55 0.45-1.25-0.25t0.2-1.3m0.05-4.7q-0.35-0.85 0.4-1.4t1.35 0.25q0.65 0.75-0.4 1.35l-0.2 0.15 0.1 0.2q0.35 0.8-0.2 1.3-0.55 0.45-1.25-0.25t0.2-1.3l0.15-0.05-0.15-0.25m1.25 3.3q0.45 0.6-0.3 0.95-0.75 0.3-1.1-0.3-0.35-0.65 0.25-0.95 0.65-0.25 1.15 0.3m-0.25 5.15q-0.35-0.85 0.4-1.4t1.35 0.25q0.65 0.75-0.4 1.35t-1.35-0.2m2.65-0.2q0.45-0.25 0.7 0.15t-0.2 0.7-0.7-0.15q-0.25-0.5 0.2-0.7m5.75 0.6q0.4 0.85-0.2 1.3-0.6 0.5-1.3-0.25-0.7-0.7 0.2-1.3 0.95-0.6 1.3 0.25m-4.15 0.05q-0.25-0.5 0.2-0.7t0.8 0.25q0.35 0.4-0.2 0.65t-0.8-0.2m22.25 3.1q-0.35-0.85 0.4-1.4t1.35 0.25q0.65 0.75-0.4 1.35t-1.35-0.2m-1.45 0.3q-0.5 0.45-1.15-0.2t0.2-1.2q0.8-0.5 1.15 0.25 0.3 0.75-0.2 1.15m-3.05-0.9q-0.3-0.55 0.25-0.85 0.55-0.25 1 0.3t-0.25 0.85-1-0.3m-4.35-0.15q-0.3-0.7 0.35-1.2t1.2 0.2-0.35 1.2q-0.9 0.55-1.2-0.2" fill-opacity=".30196" fill-rule="evenodd"/>
<path d="m-16.25 13.5-0.75 0.1q-1.5 0-2.55-1.4-1.05-1.35-1-3.3 0.05-1.9 1.2-3.25l0.35-0.35q-2 6.5 2.75 8.2" fill="#333" fill-rule="evenodd"/>
<path d="m-19 5.3q1-1 2.3-1 1.5 0 2.55 1.35t1 3.3q-0.05 1.9-1.2 3.25-0.85 1.05-1.9 1.3-4.75-1.7-2.75-8.2m3.45 0.2q-0.55 0-1 0.5t-0.45 1.15 0.4 1.15 0.95 0.5 0.95-0.5q0.45-0.5 0.45-1.15t-0.4-1.15q-0.35-0.5-0.9-0.5" fill="#999" fill-rule="evenodd"/>
<path d="m-15.55 5.5q0.55 0 0.9 0.5 0.4 0.5 0.4 1.15t-0.45 1.15q-0.4 0.5-0.95 0.5t-0.95-0.5-0.4-1.15 0.45-1.15 1-0.5" fill="#fff" fill-rule="evenodd"/>
<path d="m-19 5.3q1-1 2.3-1 1.5 0 2.55 1.35t1 3.3q-0.05 1.9-1.2 3.25-0.85 1.05-1.9 1.3l-0.75 0.1q-1.5 0-2.55-1.4-1.05-1.35-1-3.3 0.05-1.9 1.2-3.25z" fill="none" stroke="#000" stroke-linecap="round" stroke-linejoin="round" stroke-opacity=".30196" stroke-width=".05"/>
</g>
</defs>
</svg>
