<?xml version="1.0" encoding="UTF-8"?>
<svg version="1.1" viewBox="0 0 43.18 41.258" xmlns="http://www.w3.org/2000/svg" xmlns:cc="http://creativecommons.org/ns#" xmlns:dc="http://purl.org/dc/elements/1.1/" xmlns:rdf="http://www.w3.org/1999/02/22-rdf-syntax-ns#" xmlns:xlink="http://www.w3.org/1999/xlink">
<metadata>
<rdf:RDF>
<cc:Work rdf:about="">
<dc:format>image/svg+xml</dc:format>
<dc:type rdf:resource="http://purl.org/dc/dcmitype/StillImage"/>
</cc:Work>
</rdf:RDF>
</metadata>
<g transform="translate(-258.87 -382.29)">
<use transform="translate(258.85,382.3)" width="43.200001" height="41.25" xlink:href="#a"/>
</g>
<defs>
<g id="a" transform="translate(-258.85,-382.3)">
<path d="m297.75 384.3-1.15 2.6-0.5-0.4-0.05-0.05-1.65-0.6 0.05 0.45q0 2.15-2.45 3.25l-0.15 1.4q-0.15 1-0.15 2.1l0.4-0.15q2.3-1.55 3.35-3.2m-1-3.4-1.4-0.65q-1.85-0.8-3.8-1.3l-1.8 0.9q-2.15 1.15-4.05 3.45l2.9 0.4m8.75-2.1 0.2 2.4m0.8-2.95h0.05v0.05m5.05 0.9-2.4 0.2 0.15-2.4m-1.2 5.8 0.3 2.25q1-0.65 1.05-2.25l-0.05-0.55-0.45 0.25m-6.45 2.2q1.05-0.45 1.9 0.35l0.9 1.35 0.4 1.15 0.1 1.75 0.35 0.55v-0.05l1.15-1.65q1.2-1.65 1.1-2.8v-0.3m-2.6 4.25-0.65-1.15q-1-1.55-1.8-2.35-0.65-0.7-1.3-0.9-0.8-0.3-1.45 0.35l0.55 0.1 1.15 1.1 1.15 2.7 0.2 0.25 1.05 1.9 0.3 0.65 0.45 0.95q0.2-0.6 0.65-0.8 0.5-0.35 1.1-0.2l-0.95-1.85-0.1-0.2m-4.1-4.95 0.05-0.05m-1.5 0.4q-0.75 0-1.55 0.95h-0.05q0.85 0.15 1.5 1.1 0.75 1.1 1.35 3.25l0.55 2.25 0.05 0.2 0.15 0.95 0.05 0.15q0.25-0.45 0.85-0.6l1.05 0.05-0.2-1.05-0.2-0.75v-0.1l-0.6-2.2-0.1-0.3m1.25 2.15q-0.15 0.05-0.25 0.15v0.05l-0.3 0.25m0.3-0.25-0.3 0.15m-1.5 2.45-0.2 0.2q-0.35 0.65-0.15 1.3l0.1 0.3 0.4-0.25 0.85-0.35 1.85 0.7 0.15-1.3-0.05-0.15-0.05-0.1-0.15-0.25-0.6-0.55-0.25-0.1m-8.8-6.35-2.85 0.3 1 1.9q1.1 1.7 2.75 3.45l1.65 1.55q1.9-0.5 3.85-1.5l0.25-0.1m3.75-3 0.1 0.25m-0.85 4.15q-0.2-0.5-0.05-1l0.1-0.3m0.05 3.1 0.7 0.2q1.25 0.55 1.55 1.8l0.15 1.2 0.1 0.15 0.65 1.4q1.1-2.05 1.2-3.85l2.1-0.05-0.55-1.55q-0.65-1.1-1.95-1.3l-0.8-0.05-1.95-0.15-0.7 0.55-0.35 0.35m1.55-2.8 0.25 0.05q0.7 0.15 1.05 0.75 0.3 0.55 0.15 1.25m-3.65-2-0.65 0.55m-10.55-12-6.3-0.3h-0.8q-2.2 1.8-2.35 4.1-0.85-2.6-5.3-3.5l-1.9 0.25q-1.4 0.3-2.55 0.95l-1 0.75q1.45 0.85 3.55 1.4 13.15 3.35 23.75-2l1.5-0.8m7 0.9 1.8-1m-3.3 17.95-0.05 0.4-2-0.5q-0.55 1.75-2.1 3.4l-0.3-1.5q-0.45-1.25-1.3-2.3l-1.3 0.1-1.1 8.15q-11.45 5.35-14.25 7.9l-0.35-0.5q-2.1-4.65-4.5-7.2l-0.1-0.05q-2.45-1.75-4.65 0-0.4-4.2 0.15-7.4l-0.05-0.75q0-0.1-0.1-0.05v-0.1l-0.25-0.7-2.3-5.35-0.2-0.7-0.75-0.6q-0.55-0.45-0.55-0.85-0.05-0.25 0.7-1l-0.15-0.9q-1.15-1.35-1.85-2.8l-0.5-1.55q-0.6-2.1 0.1-3.1l0.25-0.3 0.1-0.65 0.6-0.95q1.2-1.35 3.5-2.5 1.4-0.7 3.25-1.25 4.15-1.1 9.4-1l3.3 0.1q5.1 0.4 9.1 1.45m2.75 19.75q-0.85 0.45-1.35 1.05l-0.05 0.05q-0.7 0.8-0.7 1.85l0.55-0.05m0.2-1.85-0.7-1.8-3.15 1.25m5.4-2.45-2.25 1.2m-13.1-20.55q-1.55 0.7-2.6 1.35l-2.1 1.25q-0.8 0.6-0.95 1.45-0.1 0.7 0.2 1.3l0.15 0.4 4.75-0.15m-7.65 0.6 1.05-0.25 1.85-0.2m10.95 7.15-6.25-0.3-5.35-1q-0.55 1.3-0.45 2.4 0.1 1.05 0.8 2l1.95 2.25 2.45 2.4 3.35 0.25q4.9 0.1 8.9-1.1m-16.45-0.35-0.55 0.3-0.6 0.4m-6.1-17.9q-0.7 0.4-1.15 1.15l-0.05 0.05-0.5 0.95q-0.25 0.75-0.05 1.85l0.5 1.7 0.25 0.2m-3.2-1.8 0.35-0.3 1.75 2.35h0.1q0.6 0.75 3.95 2.1 3.35 1.2 4.75 1.1m-8.9 2.5 0.5 0.65 0.85 0.85-0.65-1.05-0.35-0.8-0.05-0.05-0.35-1.4-0.05-0.3-0.15-1.4 0.05-0.7 0.4-1.45v-0.05m8.7 11.35q-2.35-0.65-4.4-1.8l-3.1-2.3-0.05-0.05m-1.2-0.6 0.2-0.15 0.15-0.1m13.55 12.55-1-1.3-2.9-1.95-0.1-0.05-0.25-0.05-0.15-1.25q-3.15-0.65-6.45-1.9l-0.1-0.2q-0.8-0.65 0.55-1.65l-2.9-1.5m-1.15-10.55 1.35 1.05m23.8 14.2q0.7 0.65-0.15 1.7-2.05 0.55-3.75 0.05l-1-0.45-2.75 2.25-0.2 0.45m3.45-3.2-1.15 0.15 0.65 0.35m3.65 7.55-4.4-1.9-0.5 0.3q-1.95-0.25-3.4-1.15l-1.5 1.1-0.75 0.5-1.4 0.8m7.6-3.5 0.35 0.55h3.65m-3.65 0q0.35 0.75-0.4 1.4m-5.45-8.45-1.3-0.1 0.2 2m-0.2-2-0.05-0.3m2.65 5.05-0.6-0.55-0.5 0.3-0.8 0.95m-3-2 0.7-1.1 0.4-0.65 0.65 0.3m-3.5-1.25 1.3 0.6 0.05 0.8m1.6 7.15v-0.35l-1.35-0.1-0.15 1m0.15-1-1.1-2.95m6.4 1.8-0.6-0.4-0.35-0.3m-3 1.95-0.75-3.7m1.85 7.1 0.1 0.35q-0.05 0.8-0.55 0.95l0.45 1.7m-0.45-1.7-0.85-0.05v-0.05q-0.55-0.6-0.8-1.2m-0.75-1.3-1.25 0.95m10.95-9.45q-4.1 0.5-8.45-0.2m1.1 8.45 15.5 1" fill="none" stroke="#000" stroke-linecap="round" stroke-linejoin="round" stroke-opacity=".30196"/>
<path d="m292.05 401.2-1.2 0.7" fill="none" stroke="#000" stroke-linecap="round" stroke-linejoin="round" stroke-opacity=".30196"/>
<path d="m273.95 392.55q-0.95-3-6.4-3.8l10.65-1.55q-4.05 2.15-4.25 5.35" fill="#342210" fill-rule="evenodd"/>
<path d="m273.95 392.55q-0.95-3-6.4-3.8l10.65-1.55q-4.05 2.15-4.25 5.35z" fill="none" stroke="#000" stroke-linecap="round" stroke-linejoin="round" stroke-opacity=".2"/>
<path d="m289.25 384.35-1.8 0.9-13.2-1.1q1.05-0.65 2.6-1.35l3.3 0.1q5.1 0.4 9.1 1.45" fill="#7b6020" fill-rule="evenodd"/>
<path d="m260.1 388.5 0.6-0.95q1.2-1.35 3.5-2.5 1.4-0.7 3.25-1.25 4.15-1.1 9.4-1-1.55 0.7-2.6 1.35-6.15 0-11.2 2.05l-0.05 0.05-2.9 2.25m2.95-2.3q0.45-0.75 1.15-1.15-0.7 0.4-1.15 1.15" fill="#9e7925" fill-rule="evenodd"/>
<path d="m263 391h-0.05 0.05" fill="#bc9232" fill-rule="evenodd"/>
<path d="m286.3 389.1-2.9-0.4q1.9-2.3 4.05-3.45-2.15 1.15-4.05 3.45l-6.3-0.3-5.55 0.15-1.85 0.2-2.95 0.5q-1.4 0.3-2.55 0.95l-1.2 0.8-0.55-1.95q-0.2-1.1 0.05-1.85l0.5-0.95-0.5 0.95q-0.25 0.75-0.05 1.85l0.55 1.95h-0.05l-0.65 1.65q-0.85-0.4-1.7-1.75-0.95-1.55-0.5-2.4l2.9-2.25 0.05-0.05q5.05-2.05 11.2-2.05l13.2 1.1 1.8-0.9q1.95 0.5 3.8 1.3l3.15 1.6 1.85 1.85q1.1 1.15 1 1.9-0.05 1.85-1.35 2.4l-1.1 0.25-1.4-1.15-2.35-1.15-2.35-1-4.2-1.25m9.9-1.85q0.75 1 0.2 2.05l-0.45 0.75q-1.55 1.85-3.1 1.3 1.55 0.55 3.1-1.3l0.45-0.75q0.55-1.05-0.2-2.05m-21.95-3.1-2.1 1.25q-0.8 0.6-0.95 1.45-0.15 0.9 0.35 1.7-0.5-0.8-0.35-1.7 0.15-0.85 0.95-1.45l2.1-1.25" fill="#6b531d" fill-rule="evenodd"/>
<path d="m283.4 388.7 2.9 0.4m4.2 1.25 2.35 1q1.55 0.55 3.1-1.3l0.45-0.75q0.55-1.05-0.2-2.05l-3.15-1.6q-1.85-0.8-3.8-1.3l-1.8 0.9q-2.15 1.15-4.05 3.45l-6.3-0.3-5.55 0.15-1.85 0.2-2.95 0.5q-1.4 0.3-2.55 0.95l-1.2 0.8h-0.05l-0.65 1.65q-0.85-0.4-1.7-1.75-0.95-1.55-0.5-2.4l0.6-0.95q1.2-1.35 3.5-2.5 1.4-0.7 3.25-1.25 4.15-1.1 9.4-1l3.3 0.1q5.1 0.4 9.1 1.45m3.6 7 2.35 1.15 1.4 1.15 1.1-0.25q1.3-0.55 1.35-2.4 0.1-0.75-1-1.9l-1.85-1.85m-19.35-4.45q-1.55 0.7-2.6 1.35m-2.7 4.4q-0.5-0.8-0.35-1.7 0.15-0.85 0.95-1.45l2.1-1.25m-11.2 2.05-0.05 0.05-0.5 0.95q-0.25 0.75-0.05 1.85l0.55 1.95m1.2-5.95q-0.7 0.4-1.15 1.15" fill="none" stroke="#000" stroke-linecap="round" stroke-linejoin="round" stroke-opacity=".30196" stroke-width=".05"/>
<path d="m265.3 406.35-2.35-5.4-1.55-6.35q4.25 4.05 9.2 7.2l-0.5-0.4 14.4 2.65-5.45 4.5-9-2.35q1.05 3.9-4.75 0.15" fill="#7b5117" fill-rule="evenodd"/>
<path d="m274.75 422.55q-2.1-4.6-4.5-7.15l-0.1-0.1q-2.4-1.75-4.6 0-0.4-4.15 0.05-7.4v-0.7l1.05 0.5 3.7 4.05 1.4 2.45-1.5 1.2 1.5-1.2q2 3.85 3 7.6l0.15 0.9-0.15-0.15" fill="#d98711" fill-rule="evenodd"/>
<path d="m279.05 408.55q-0.8 1.95-3.35 3.65l-0.75 0.45q-1.1 0.75-2.8 1.4l-0.4 0.15-1.4-2.45-3.7-4.05-1.05-0.5q0-0.1-0.1-0.05l-0.05-0.15-0.15-0.65q5.8 3.75 4.75-0.15l9 2.35" fill="#ae6c0e" fill-rule="evenodd"/>
<path d="m275.05 423.1-0.3-0.55 0.15 0.15 0.15 0.4" fill="#fad98f" fill-rule="evenodd"/>
<path d="m290.7 405.15-1.35 10.05-17.2-1.15 17.2 1.15q-11.45 5.4-14.3 7.9l-0.15-0.4-0.15-0.9q-1-3.75-3-7.6l0.4-0.15q1.7-0.65 2.8-1.4l0.75-0.45q2.55-1.7 3.35-3.65 1.35 0.25 7.15-1.1l4.5-2.3" fill="#e7a843" fill-rule="evenodd"/>
<path d="m290.7 405.15-4.5 2.3q-5.8 1.35-7.15 1.1l5.45-4.5 1.3-0.1 3.85-1.4 1.05 2.6" fill="#ad7e32" fill-rule="evenodd"/>
<path d="m279.05 408.55q-0.8 1.95-3.35 3.65l-0.75 0.45q-1.1 0.75-2.8 1.4l17.2 1.15m-17.6-1 0.4-0.15m-1.9 1.35 1.5-1.2m12.75-10.15-5.45 4.5" fill="none" stroke="#000" stroke-linecap="round" stroke-linejoin="round" stroke-opacity=".18039" stroke-width=".05"/>
<path d="m289.35 415.2 1.35-10.05m-1.35 10.05q-11.45 5.4-14.3 7.9l-0.3-0.55q-2.1-4.6-4.5-7.15l-0.1-0.1q-2.4-1.75-4.6 0-0.4-4.15 0.05-7.4v-0.7q0-0.1-0.1-0.05l-0.05-0.15-0.15-0.65-2.35-5.4-1.55-6.35q4.25 4.05 9.2 7.2l-0.5-0.4 14.4 2.65 1.3-0.1 3.85-1.4 1.05 2.6" fill="none" stroke="#292212" stroke-linecap="round" stroke-linejoin="round" stroke-opacity=".30196" stroke-width=".05"/>
<path d="m271.65 415.7 2.8-0.05-1.15-3.05-1.85 0.7 0.2 2.4m10.3-11.4 0.5 1.9 4.1 0.2 0.4-2.65-5 0.55m-6 5.95 3.85 1.55 1.4-1.95-4.3-1.75-0.95 2.15" fill="#79592b" fill-rule="evenodd"/>
<path d="m282.8 406.7q3.05-0.75 2.4-2.05l1.05-0.05q1.4 0.75 0.35 2l-3.8 0.1" fill="#6b622c" fill-rule="evenodd"/>
<path d="m285.2 404.65q0.65 1.3-2.4 2.05-1-0.35-1.9-1-0.1-0.7 0.7-1.45l3.6 0.4" fill="#ac9c46" fill-rule="evenodd"/>
<path d="m285.2 404.65-3.6-0.4q-0.8 0.75-0.7 1.45 0.9 0.65 1.9 1l3.8-0.1q1.05-1.25-0.35-2z" fill="none" stroke="#000" stroke-linecap="round" stroke-linejoin="round" stroke-opacity=".2" stroke-width=".6"/>
<path d="m292.5 401.95q-12.35 7.35-27.3 1.65l-0.1-0.2q-0.8-0.65 0.55-1.65-2.7-1.25-3.65-2.1-0.55-0.45-0.55-0.85l0.9-1.15 0.8-0.9q-1.2-3.25-2.25-7.05h0.7q1.65 1.7 5.15 2.65 14.1 3.55 25.25-2.8-0.45 2.9-0.3 6.35l0.1 0.55 1.55 1.4q0.95 0.7 0.9 1.35 0 0.5-1.65 1.55l-0.3 0.25 0.2 0.95m-28.75-6.75-0.6 1.55 0.6-1.55m27.1 6.7 1.45-0.9-1.45 0.9" fill="#483315" fill-rule="evenodd"/>
<path d="m292 389.55q2.7-1.2 2.4-3.7l1.7 0.6q-0.65 3.3 0 4.5-1.25 5.5 0 7.85l-3.6 3.15-0.2-0.95 0.3-0.25q1.65-1.05 1.65-1.55 0.05-0.65-0.9-1.35l-1.55-1.4-0.1-0.55q-0.15-3.45 0.3-6.35" fill="#684420" fill-rule="evenodd"/>
<path d="m292.3 401 0.2 0.95m-0.2-0.95-1.45 0.9m-27.7-5.15 0.6-1.55" fill="none" stroke="#332720" stroke-linecap="round" stroke-linejoin="round" stroke-width=".05"/>
<path d="m292 389.55q2.7-1.2 2.4-3.7l1.7 0.6q-0.65 3.3 0 4.5-1.25 5.5 0 7.85l-3.6 3.15q-12.35 7.35-27.3 1.65l-0.1-0.2q-0.8-0.65 0.55-1.65-2.7-1.25-3.65-2.1-0.55-0.45-0.55-0.85l0.9-1.15 0.8-0.9q-1.2-3.25-2.25-7.05m0.7 0q1.65 1.7 5.15 2.65 14.1 3.55 25.25-2.8-0.45 2.9-0.3 6.35l0.1 0.55 1.55 1.4q0.95 0.7 0.9 1.35 0 0.5-1.65 1.55l-0.3 0.25z" fill="none" stroke="#000" stroke-linecap="round" stroke-linejoin="round" stroke-opacity=".2"/>
<path d="m283.5 397.6q7.7-1.9 10.5-4.35 2.75-1.7 2.85-3.55 1.45 4.1-1.55 6.05-3.45 3.6-9.05 5.3l1.65 1.55q-4 1.2-8.9 1.1l-3.35-0.25-2.45-2.4q5.5 0.8 13.05 0-1.65-1.75-2.75-3.45m11.8-1.85-0.4-1.15-0.9-1.35 0.9 1.35 0.4 1.15" fill="#7b6020" fill-rule="evenodd"/>
<path d="m292.1 392.9q1.05-0.45 1.9 0.35-0.85-0.8-1.9-0.35 2.7-1.85 3.7-3.8 0.55 0.15 1.05 0.55v0.05q-0.1 1.85-2.85 3.55-2.8 2.45-10.5 4.35l-1-1.9 2.85-0.3 4.3-1.35 2.45-1.15m-16.45 10.55q-5.15-0.5-9.15-2.7l-3.1-2.3q-2.2-2.05-3.25-4.35l-0.5-1.55 2.65 3.95 0.05 0.05q4.9 3.8 10.85 4.5l-1.95-2.25q-0.7-0.95-0.8-2 8.45 1.5 13.05 0.8 1.1 1.7 2.75 3.45-7.55 0.8-13.05 0l2.45 2.4m-12.25-5q-0.65-0.8-1.05-1.9 0.4 1.1 1.05 1.9" fill="#9e7925" fill-rule="evenodd"/>
<path d="m282.5 395.7 1 1.9q-4.6 0.7-13.05-0.8 0.1 1.05 0.8 2l1.95 2.25q-5.95-0.7-10.85-4.5l-0.05-0.05-2.65-3.95q-0.6-2.1 0.1-3.1 0.05 1.4 2 3.95 3.15 2.7 8.7 3.4-0.1-1.1 0.45-2.4l5.35 1 6.25 0.3m-20.4-4.5h0.1v0.05l-0.1-0.05m-0.35 2.2 0.15 1.4 0.4 1.7-0.4-1.7-0.15-1.4" fill="#bc9232" fill-rule="evenodd"/>
<path d="m296.85 389.7v-0.05q1.25 1.1 1.15 3.9 0.1 1.15-1.1 2.8-0.9 1.5-1.95 2.6l-3.2 2.15q-1.95 1-3.85 1.5l-1.65-1.55q5.6-1.7 9.05-5.3 3-1.95 1.55-6.05m-1.55 6.05q0.45 1.75-0.35 3.2 0.8-1.45 0.35-3.2" fill="#6b531d" fill-rule="evenodd"/>
<path d="m259.75 389.45 0.6-0.6 1.75 2.35 0.1 0.05v-0.05q0.6 0.75 3.95 2.1 3.35 1.2 4.75 1.1-0.55 1.3-0.45 2.4-5.55-0.7-8.7-3.4 0-1.35 0.45-2.15-0.45 0.8-0.45 2.15-1.95-2.55-2-3.95" fill="#bd9a4a" fill-rule="evenodd"/>
<path d="m294 393.25q-0.85-0.8-1.9-0.35l-2.45 1.15m-4.3 1.35-2.85 0.3 1 1.9m13.35-7.95q-0.5-0.4-1.05-0.55-1 1.95-3.7 3.8m1.9 0.35 0.9 1.35 0.4 1.15m-0.35 3.2q1.05-1.1 1.95-2.6 1.2-1.65 1.1-2.8 0.1-2.8-1.15-3.9m-8.95 12.95q1.9-0.5 3.85-1.5l3.2-2.15q0.8-1.45 0.35-3.2m-9.05 5.3 1.65 1.55q-4 1.2-8.9 1.1l-3.35-0.25q-5.15-0.5-9.15-2.7l-3.1-2.3q-2.2-2.05-3.25-4.35l-0.5-1.55q-0.6-2.1 0.1-3.1l0.6-0.6 1.75 2.35h0.1q0.6 0.75 3.95 2.1 3.35 1.2 4.75 1.1l5.35 1 6.25 0.3m-20.75-2.3q0-1.35 0.45-2.15v-0.05m0.15 5.35-0.05-0.05-0.4-1.7-0.15-1.4m8.7 3.4q0.1 1.05 0.8 2l1.95 2.25 2.45 2.4m10.6-2.4q-1.65-1.75-2.75-3.45m-21.15-1.05q0.4 1.1 1.05 1.9m7.05-1.65q-0.1-1.1 0.45-2.4" fill="none" stroke="#000" stroke-linecap="round" stroke-linejoin="round" stroke-opacity=".30196" stroke-width=".05"/>
<path d="m263.75 397.7-0.8 0.8-0.3 2.45-0.9 0.4-0.3-0.15 0.85-1.75-0.8-1.2 0.55-1h1.3l0.4 0.45" fill="#9e7925" fill-rule="evenodd"/>
<path d="m262.65 400.95 0.3-2.45 0.8-0.8 1.7 1.65-0.9 2.15-0.65-0.35-0.45-0.65-0.8 0.45" fill="#7b6020" fill-rule="evenodd"/>
<path d="m263.35 397.25h-1.3m-0.55 1 0.8 1.2-0.85 1.75m0.3 0.15 0.9-0.4 0.8-0.45 0.45 0.65m0.65 0.35 0.9-2.15" fill="none" stroke="#000" stroke-linecap="round" stroke-linejoin="round" stroke-opacity=".30196" stroke-width=".05"/>
<path d="m289.5 394.4q2.3-4.7 7.55 6.35l-1.25 2.1q-3.65-8.7-6.3-8.45" fill="#7b6020" fill-rule="evenodd"/>
<path d="m289.5 394.4q2.65-0.25 6.3 8.45l1.25-2.1q-5.25-11.05-7.55-6.35z" fill="none" stroke="#382510" stroke-linecap="round" stroke-linejoin="round" stroke-opacity=".30196" stroke-width=".6"/>
<path d="m297.05 400.1q0.65 0.2 1.05 0.85 0.35 0.6 0.2 1.25l-0.85 1.1-1.3 0.15q-0.65-0.15-1-0.75-0.4-0.65-0.25-1.35 0.2-0.65 0.8-1 0.65-0.4 1.35-0.25m0.05 0.9-0.7-0.55-0.8 0.15q-0.45 0.25-0.55 0.65-0.1 0.55 0.1 0.9l0.7 0.5 0.9-0.1q0.4-0.2 0.45-0.7 0.15-0.45-0.1-0.85" fill="#6c2206" fill-rule="evenodd"/>
<path d="m297.1 401q0.25 0.4 0.1 0.85-0.05 0.5-0.45 0.7l-0.9 0.1-0.7-0.5q-0.2-0.35-0.1-0.9 0.1-0.4 0.55-0.65l0.8-0.15 0.7 0.55" fill="#c16100" fill-rule="evenodd"/>
<path d="m297.05 400.1q0.65 0.2 1.05 0.85 0.35 0.6 0.2 1.25l-0.85 1.1-1.3 0.15q-0.65-0.15-1-0.75-0.4-0.65-0.25-1.35 0.2-0.65 0.8-1 0.65-0.4 1.35-0.25z" fill="none" stroke="#382510" stroke-linecap="round" stroke-linejoin="round" stroke-opacity=".30196" stroke-width=".3"/>
<path d="m295.95 401.55-0.15 0.3h-0.35l-0.25-0.2q-0.1-0.15-0.05-0.3l0.2-0.25 0.3-0.05 0.3 0.15v0.35" fill="#ffa004" fill-rule="evenodd"/>
<path d="m297.6 407.55 0.75-3.85 2.65-0.2 0.55 1.55-2.1 0.05q-0.1 1.8-1.2 3.85l-0.65-1.4" fill="#7b6020" fill-rule="evenodd"/>
<path d="m297.6 407.55q-0.75-1.1-1.8-1.95l-1.8 0.65q-0.65-2.1 2.3-4.25l2.75 0.2q1.3 0.2 1.95 1.3l-2.65 0.2-0.75 3.85" fill="#bc9232" fill-rule="evenodd"/>
<path d="m301 403.5q-0.65-1.1-1.95-1.3l-2.75-0.2q-2.95 2.15-2.3 4.25l1.8-0.65q1.05 0.85 1.8 1.95m3.4-4.05 0.55 1.55-2.1 0.05q-0.1 1.8-1.2 3.85l-0.65-1.4" fill="none" stroke="#382510" stroke-linecap="round" stroke-linejoin="round" stroke-opacity=".30196" stroke-width=".6"/>
<path d="m288.6 394.4q3.45-3.95 5.65 8.05l-1.75 1.7q-1.25-9.3-3.9-9.75" fill="#7b6020" fill-rule="evenodd"/>
<path d="m288.6 394.4q2.65 0.45 3.9 9.75l1.75-1.7q-2.2-12-5.65-8.05z" fill="none" stroke="#382510" stroke-linecap="round" stroke-linejoin="round" stroke-opacity=".30196" stroke-width=".6"/>
<path d="m294.2 402.75-0.55-0.7-0.8-0.1q-0.45 0.1-0.7 0.5-0.2 0.45-0.05 0.9 0.1 0.45 0.5 0.65l0.85 0.15 0.65-0.55 0.1-0.85m0.15-0.9q0.65 0.35 0.85 1.05t-0.2 1.3q-0.35 0.65-1.05 0.8l-1.3-0.15q-0.55-0.35-0.75-1.05t0.1-1.3q0.4-0.65 1.05-0.85l1.3 0.2" fill="#6c2206" fill-rule="evenodd"/>
<path d="m294.2 402.75-0.1 0.85-0.65 0.55-0.85-0.15q-0.4-0.2-0.5-0.65-0.15-0.45 0.05-0.9 0.25-0.4 0.7-0.5l0.8 0.1 0.55 0.7" fill="#c16100" fill-rule="evenodd"/>
<path d="m294.35 401.85q0.65 0.35 0.85 1.05t-0.2 1.3q-0.35 0.65-1.05 0.8l-1.3-0.15q-0.55-0.35-0.75-1.05t0.1-1.3q0.4-0.65 1.05-0.85z" fill="none" stroke="#382510" stroke-linecap="round" stroke-linejoin="round" stroke-opacity=".30196" stroke-width=".3"/>
<path d="m292.95 402.95-0.2 0.2-0.35-0.05-0.25-0.2 0.1-0.35 0.25-0.2 0.3 0.05 0.2 0.25-0.05 0.3" fill="#ffa004" fill-rule="evenodd"/>
<path d="m293.05 409.2 1.7-3.5 2.6 0.5 0.1 1.6-2-0.5q-0.55 1.75-2.1 3.4l-0.3-1.5" fill="#7b6020" fill-rule="evenodd"/>
<path d="m293.05 409.2q-0.45-1.25-1.3-2.3l-1.85 0.15q-0.05-2.25 3.35-3.55l2.55 0.9q1.25 0.55 1.55 1.8l-2.6-0.5-1.7 3.5" fill="#bc9232" fill-rule="evenodd"/>
<path d="m297.35 406.2q-0.3-1.25-1.55-1.8l-2.55-0.9q-3.4 1.3-3.35 3.55l1.85-0.15q0.85 1.05 1.3 2.3m4.3-3 0.1 1.6-2-0.5q-0.55 1.75-2.1 3.4l-0.3-1.5" fill="none" stroke="#382510" stroke-linecap="round" stroke-linejoin="round" stroke-opacity=".30196" stroke-width=".6"/>
<path d="m298.75 387.6 2.4-0.2-0.25 1.45-2.35 0.6 0.2-1.85" fill="#7b6020" fill-rule="evenodd"/>
<path d="m296.3 390.65q1.2-0.85 2.55-5.6l0.05 0.15-0.15 2.4-0.2 1.85 2.35-0.6-0.1 0.6-2.25 1.25-2.25-0.05" fill="#5f4918" fill-rule="evenodd"/>
<path d="m297.75 384.3 1.1 0.75q-1.35 4.75-2.55 5.6l-1.05-1.25-0.2-2.4 0.4-1 1.15 0.9 1.15-2.6" fill="#9e7925" fill-rule="evenodd"/>
<path d="m297.75 384.3-1.15 2.6-1.15-0.9m-0.4 1 0.2 2.4m3.65-4.2-0.15 2.4 2.4-0.2m-0.35 2.05-2.25 1.25" fill="none" stroke="#000" stroke-linecap="round" stroke-linejoin="round" stroke-opacity=".30196" stroke-width=".05"/>
<path d="m281.1 411.9-0.5 0.3q-2.4-0.3-4-1.55 3.55 0.55 3.45-1.15l1.1 0.45 0.35 0.55q0.35 0.75-0.4 1.4" fill="#6b622c" fill-rule="evenodd"/>
<path d="m276.6 410.65q-0.9-0.75-1.55-1.85 0.25-0.8 1.3-1.25 0.75 0.9 3.7 1.95 0.1 1.7-3.45 1.15" fill="#ac9c46" fill-rule="evenodd"/>
<path d="m281.5 410.5h2.35q-2.05 1.1 0 2.55l-2.75-1.15q0.75-0.65 0.4-1.4" fill-opacity=".2" fill-rule="evenodd"/>
<path d="m283.85 413.05 1.65 0.75m-1.65-3.3h1.3m-4.05 1.4-0.5 0.3q-2.4-0.3-4-1.55-0.9-0.75-1.55-1.85l-3.25-2.2m8.25 2.9q-2.95-1.05-3.7-1.95-1.05 0.45-1.3 1.25m5 0.7 1.1 0.45 0.35 0.55h2.35m0 2.55-2.75-1.15q0.75-0.65 0.4-1.4" fill="none" stroke="#000" stroke-linecap="round" stroke-linejoin="round" stroke-opacity=".2" stroke-width=".6"/>
<path d="m273.9 417-0.85-0.05q-1.2-1.4-1.35-2.9 1.65 2.1 2.4 1.2l0.35 0.8q-0.05 0.8-0.55 0.95" fill="#6b622c" fill-rule="evenodd"/>
<path d="m271.7 414.05q-0.05-0.9 0.2-1.85l1.35 0.1q-0.15 0.85 0.85 2.95-0.75 0.9-2.4-1.2" fill="#ac9c46" fill-rule="evenodd"/>
<path d="m271.9 412.2-0.6-1.65q1 1.3 1.45-0.65l0.5 2.4-1.35-0.1" fill-opacity=".2" fill-rule="evenodd"/>
<path d="m273.9 417-0.85-0.05q-1.2-1.4-1.35-2.9-0.05-0.9 0.2-1.85l-0.6-1.65-0.5-1.3m2.45 3.05-0.5-2.4-0.25-1.3m-0.6 3.6 1.35 0.1q-0.15 0.85 0.85 2.95l0.35 0.8q-0.05 0.8-0.55 0.95l0.45 1.7" fill="none" stroke="#000" stroke-linecap="round" stroke-linejoin="round" stroke-opacity=".2" stroke-width=".6"/>
<path d="m270.7 402.35-1.2-0.65 0.45-2.75q1.15-0.45 2.55 0.4l0.1 0.2-0.1-0.2v0.05l0.1 0.15 0.05 1.35q-0.35 1.3-1.95 1.45" fill="#e2dccb" fill-rule="evenodd"/>
<path d="m269.5 401.7 1.2 0.65 2.05-0.1 0.85 1.45-3.3-0.55-0.8-1.45" fill="#b9ae9a" fill-rule="evenodd"/>
<path d="m272.65 400.9-0.05-1.35v0.05-0.05l-0.1-0.15 0.1 0.2 0.2 0.85 0.8 2v1.25l-0.85-1.45-0.1-1.35" fill="#a09176" fill-rule="evenodd"/>
<path d="m271.5 403.35 2.1 0.35v-1.25l-0.8-2-0.2-0.85 0.45 0.95 0.05 0.1 1.2 2-0.05 1.5q-1.45 0.4-2.75-0.8" fill="#382510" fill-opacity=".30196" fill-rule="evenodd"/>
<path d="m270.7 402.35q1.6-0.15 1.95-1.45l0.1 1.35-2.05 0.1" fill="#f0ece3" fill-rule="evenodd"/>
<path d="m272.6 399.55-0.1-0.2q-1.4-0.85-2.55-0.4l-0.45 2.75 0.8 1.45 3.3 0.55m-1-4.15v0.05m-0.1-0.25v0.05m1.1 3.05v1.25" fill="none" stroke="#382510" stroke-linecap="round" stroke-linejoin="round" stroke-opacity=".30196" stroke-width=".5"/>
<path d="m273.1 400.65q1.2 1.45 2.05 1.75m-2.1-1.85q2.25 1.05 4.1 1.05m-5.85-3.15 0.2-3.4m-1.25 3.45-1.3-2.5" fill="none" stroke="#382510" stroke-linecap="round" stroke-linejoin="round" stroke-opacity=".30196" stroke-width=".3"/>
</g>
</defs>
</svg>
