<?xml version="1.0" encoding="UTF-8"?>
<svg version="1.1" viewBox="0 0 23.625 16.925" xmlns="http://www.w3.org/2000/svg" xmlns:cc="http://creativecommons.org/ns#" xmlns:dc="http://purl.org/dc/elements/1.1/" xmlns:rdf="http://www.w3.org/1999/02/22-rdf-syntax-ns#" xmlns:xlink="http://www.w3.org/1999/xlink">
<metadata>
<rdf:RDF>
<cc:Work rdf:about="">
<dc:format>image/svg+xml</dc:format>
<dc:type rdf:resource="http://purl.org/dc/dcmitype/StillImage"/>
</cc:Work>
</rdf:RDF>
</metadata>
<g transform="translate(-263.15 -191.68)">
<use transform="translate(263.15,191.35)" width="23.6" height="17.25" xlink:href="#a"/>
</g>
<defs>
<g id="a" transform="translate(-263.15,-191.35)">
<path d="m281.8 197.7v-3.85q1.55 3.25 3.65 3.85h-3.65m4.95 4.45-18.55 6.45-5.05-2.9 18.45-6.25 5.15 2.7" fill-rule="evenodd"/>
<path d="m275.4 191.9q2.05 0.95 2.35 2.65l4-1.4h0.15v0.75l-0.1 0.05v5.3l-18.5 6.45q0.85-1.75 0-5.3h-0.1v-0.8l4-1.4q0.2-1.85 0.7-3.8t2.95-2.7l4.55 0.2" fill-rule="evenodd"/>
<path d="m275.4 191.9-4.55-0.2q-2.45 0.75-2.95 2.7t-0.7 3.8l-4 1.4v0.8h0.1q0.85 3.55 0 5.3l18.5-6.45v-5.3l0.1-0.05v-0.75h-0.15l-4 1.4q-0.3-1.7-2.35-2.65z" fill="none" stroke="#000" stroke-linecap="round" stroke-linejoin="round" stroke-width=".05"/>
<path d="m286.65 196.85h-0.05l-4.4 1.5-0.25-0.05-0.1-0.2q-0.15-1.7-0.95-2.35l-2.95-0.15q-2.05 0.6-3.55 2.25t-1.6 3.4l-0.05 0.15-0.1 0.15-0.25 0.2-4.25 1.5h-0.1v-0.8l4-1.4q0.2-1.85 2.1-3.8 1.9-1.9 4-2.7 2.1-0.75 3.15 0.2 1 1 1.25 2.7l4.05-1.45h0.15v0.75l-0.1 0.1" fill="#fff" fill-rule="evenodd"/>
<path d="m268.15 203.25 4.25-1.5 0.25-0.2 0.1-0.15 0.05-0.15q0.1-1.75 1.6-3.4t3.55-2.25l2.95 0.15q0.8 0.65 0.95 2.35l0.1 0.2 0.25 0.05 4.4-1.5h0.05q-1.35 2.6 0 5.25l-0.05 0.05-17.45 6.05-1 0.35q-1.3-2.65 0-5.3" fill-rule="evenodd"/>
<path d="m286.6 202.15 0.05 0.05-17.45 6h-0.05" fill="none" stroke="#884402" stroke-linecap="round" stroke-linejoin="round" stroke-width=".05"/>
<path d="m286.65 196.85 0.1-0.1v-0.75h-0.15l-4.05 1.45q-0.25-1.7-1.25-2.7-1.05-0.95-3.15-0.2-2.1 0.8-4 2.7-1.9 1.95-2.1 3.8l-4 1.4v0.8h0.1q-1.3 2.65 0 5.3l1-0.35 17.45-6.05 0.05-0.05q-1.35-2.65 0-5.25" fill="none" stroke="#fff" stroke-linecap="round" stroke-linejoin="round" stroke-width=".05"/>
<path d="m276.65 198.3-0.8 0.55-0.25 0.9 0.25 0.65 0.8 0.05 0.7-0.55 0.35-0.9q0-0.5-0.35-0.65l-0.7-0.05m-1.85 2.45q0-1.25 0.8-2.4 0.85-1.2 2.1-1.65l2.05 0.2q0.85 0.6 0.85 1.85l-0.3 1.45-0.95 0.35q-0.7 0.8 0.55 0.95l-0.55 0.2-1.65 1.05-1.95-0.05 0.5-0.2v-0.95l-1.2 0.4q-0.25-0.5-0.25-1.2m4.8-2.85-0.65-0.05q-0.4 0.15-0.65 0.5l-0.25 0.8q0 0.45 0.25 0.6l0.65 0.05 0.65-0.5 0.3-0.8-0.3-0.6m0.25 4.85-0.1 0.5-0.3 0.25-0.3-0.05-0.1-0.4 0.1-0.45 0.3-0.3 0.3 0.1 0.1 0.35m-1.6 0.8-0.15 0.45-0.35 0.3-0.35-0.05-0.15-0.35 0.15-0.4 0.35-0.3 0.35 0.05 0.15 0.3m-2.55 0.6 0.1-0.45 0.4-0.25h0.3l0.15 0.35-0.15 0.35-0.3 0.35-0.4-0.1-0.1-0.25" fill="#fff" fill-rule="evenodd"/>
</g>
</defs>
</svg>
