<?xml version="1.0" encoding="UTF-8" standalone="no"?>
<!DOCTYPE svg PUBLIC "-//W3C//DTD SVG 1.1//EN" "http://www.w3.org/Graphics/SVG/1.1/DTD/svg11.dtd">
<svg width="100%" height="100%" viewBox="0 0 384 327" version="1.1" xmlns="http://www.w3.org/2000/svg" xmlns:xlink="http://www.w3.org/1999/xlink" xml:space="preserve" xmlns:serif="http://www.serif.com/" style="fill-rule:evenodd;clip-rule:evenodd;stroke-linecap:round;stroke-linejoin:round;">
    <g transform="matrix(1,0,0,1,-34.5,-65)">
        <g transform="matrix(10,0,0,10,0,0)">
            <g id="sprite0" transform="matrix(0.433,0.018,-0.0263,0.221,4.95,19.1)">
                <g id="shape0">
                    <path d="M70.6,12.1C78.667,20.167 82.7,29.917 82.7,41.35C82.7,52.783 78.667,62.533 70.6,70.6C62.533,78.667 52.783,82.7 41.35,82.7C29.917,82.7 20.167,78.667 12.1,70.6C4.033,62.533 0,52.783 0,41.35C0,29.917 4.033,20.167 12.1,12.1C20.167,4.033 29.917,0 41.35,0C52.783,0 62.533,4.033 70.6,12.1" style="fill:url(#_Radial1);"/>
                </g>
            </g>
            <g id="shape1">
                <path d="M24.85,12L24.75,12L24.9,11.8L24.85,12M23.7,13.5L24.7,13.25L24.35,15.5L23.85,15.15L23.65,14.85L23.35,16.25L22.55,16.45L22.2,16.55L22.3,15.05L22.4,14.95L22.8,14.75L22.75,14.65L23,14.35L23.7,13.5M23.3,10L21.6,12.25L17.95,12.5L18.5,11.35L18.9,11.1L18.5,11.35L17.95,12.5L17.25,12.6L15.9,12L17.1,10.8L18.9,10.3L18.95,10.3L21.25,8.8L23.3,8.55L23.3,10L23.2,10L23.3,10M19.85,10.35L19.75,10.4L18.95,10.3L19.75,10.4L19.85,10.35L19.75,10.55L18.9,11.1C20.3,11.033 21.733,10.667 23.2,10L21.25,9.95L19.85,10.35M15.85,13.15L16.85,14.1L16.9,14.3L16.9,14.35L17,14.8L16.55,14.8L15.35,14.4L15.55,13.3L15.85,13.15" style="fill:#666045;"/>
                <path d="M24.75,12L24.85,12L26.2,11.9L26.5,12.7L24.7,13.25L23.7,13.5L24.75,12L23.7,13.5L23,14.35L22.75,14.65L22.4,14.95L22.75,14.65L22.8,14.75L22.4,14.95L22.3,15.05L21.9,15.4L20.4,16.55L21.9,15.4L22.3,15.05L22.2,16.55L20.4,16.55L20.25,16.65L19.15,17.3L19,17.35L16.4,15.95L16.7,15.85L17.35,15.5L18.75,14.65L18.9,14.6L19,14.5L19.25,14.35L19.35,14.25L21.6,12.25L19.35,14.25L19.25,14.35L19,14.5L18.9,14.6L18.75,14.65L17.35,15.5L16.7,15.85L16.3,15.6L16.25,15.6L15.75,15.2L15.55,15.05L15.4,14.95L14.95,14.6L15,14.45L15.1,13.85L15.3,13.15L15.7,12.95L15,12.3L15.7,11.6L15.8,11.6L15.75,11.5L15.75,11.45L15.85,11.55L16.8,10.65L18.9,10.05L18.6,10.25L18.9,10.3L17.1,10.8L15.9,12L17.25,12.6L17.95,12.5L21.6,12.25L23.3,10L24.35,10.05C24.85,10.117 25.217,10.333 25.45,10.7L24.9,11.8L24.75,12M15.8,11.6L15.85,11.55L15.8,11.6M15.85,13.15L15.7,12.95L15.85,13.15L15.55,13.3L15.35,14.4L16.55,14.8L17,14.8L16.9,14.35L16.9,14.3L16.85,14.1L15.85,13.15M19.35,14.25L17.3,14.5L16.85,14.1L17.3,14.5L19.35,14.25M17,14.8L19,14.5L17,14.8" style="fill:#968e65;"/>
                <path d="M25.45,10.7C25.217,10.333 24.85,10.117 24.35,10.05L23.3,10L23.3,8.55L21.25,8.8L18.95,10.3L18.9,10.3L18.6,10.25L18.9,10.05L21.2,8.55L24,8.15L25.5,10.65L25.45,10.7" style="fill:#a89e70;"/>
                <path d="M20.25,16.65L20.4,16.55L22.2,16.55L22.55,16.45L23.35,16.25L23.65,14.85L23.85,15.15L24.35,15.5C26.383,16.967 26.25,18.083 23.95,18.85L24.35,19.5L24.3,21L23.5,24L18.9,25.05L19.3,24.6L19.5,20.15L19.85,19.2L22,19.25L22.85,18.55C23.017,18.15 22.783,17.767 22.15,17.4L20.25,16.65M23.95,18.85L22.45,19.25L22,19.25L22.45,19.25L23.95,18.85" style="fill:#1a2420;"/>
                <path d="M16.7,15.85L16.4,15.95L19,17.35L19.15,17.3L20.25,16.65L22.15,17.4C22.783,17.767 23.017,18.15 22.85,18.55L22,19.25L19.85,19.2L17.7,19.2L17.05,18.9L17.7,19.2L19.85,19.2L19.5,20.15L19.3,24.6L18.9,25.05L17.85,26.35L17.45,26.45C17.517,24.783 17.35,23.3 16.95,22L16.95,21.95L17.75,21.3L17.55,20.4L19.05,20.7L17.15,19.15L17.05,18.9L16.95,18.9C16.083,18.467 15.45,18.05 15.05,17.65L14.95,17.5L14.9,17.4L14.85,17.4L14.6,16.9L14.6,16.2C14.7,15.8 15.083,15.467 15.75,15.2L16.25,15.6L16.3,15.6L16.7,15.85" style="fill:#1f2f2c;"/>
                <path d="M15.4,14.95L12.45,16.55L11.85,16.2L14.05,14.85L11.25,15.9L10.3,15.3L11.95,14.45L9.95,15.1L11,13.3L8.15,13.8L10.45,12.65L10.65,12.7L15,14.45L14.95,14.6L15.4,14.95M7.6,11.45L5.8,11.8L5.55,11.5L7,11.2L7.6,11.45M6.65,11L5.3,11.25C4.5,10.283 4.033,9.367 3.9,8.5L3.85,8.25L5.45,10.05L5.05,9.8L6.65,11M8.35,11.55L7.8,9.5L8.8,10.05L9.7,12.05L8.35,11.55M9.75,12.1L10,10.55L12.25,11L13.55,11.25L13.6,12.5L13.95,11.35L15.7,11.6L15,12.3L15.7,12.95L15.3,13.15L15.1,13.85L10.85,12.5L9.75,12.1" style="fill:url(#_Linear2);"/>
                <path d="M10.45,12.65L8.25,11.8L8.1,11.7L7.6,11.45L7,11.2L6.85,11.05L6.65,11L5.05,9.8L5.45,10.05L5.55,10.15C6.183,10.583 7.1,11.05 8.3,11.55L8.35,11.55L9.7,12.05L9.75,12.1L10.85,12.5L15.1,13.85L15,14.45L10.65,12.7L10.45,12.65" style="fill:url(#_Linear3);"/>
                <path d="M5.7,27.8L3.55,27.25C3.583,25.35 3.983,23.333 4.75,21.2C5.883,19 7.667,17.483 10.1,16.65L11.75,16.8C12.517,16.967 13.183,17.2 13.75,17.5L13.65,17.6L13.8,17.55L13.85,17.6L14.25,17.85L14.4,17.95L14.45,18L14.2,18.4L14.5,18.05C15.2,18.683 15.783,19.417 16.25,20.25L16.95,21.95L16.95,22C16.55,23.833 15.967,25 15.2,25.5C14.267,26.533 13.133,26.95 11.8,26.75L11.75,26.75L11.4,26.45L11.2,26.4C10.2,25.933 9.517,24.783 9.15,22.95L8.7,23.05C8.067,23.283 7.417,24.05 6.75,25.35L5.7,27.8M4.95,23C6.483,21.067 8.567,19.433 11.2,18.1C11.367,17.967 11.55,17.867 11.75,17.8L12.2,17.6L11.75,17.35L11.2,17.15L10.1,17C7.333,18.133 5.617,20.133 4.95,23M13.5,18.55L12.9,18.55L12.4,18.7L12.3,18.8L12.2,19.05C12.133,19.217 12.2,19.4 12.4,19.6L12.9,19.75L13.2,19.75L13.8,19.65L14.1,19.15L13.8,18.7L13.5,18.55" style="fill:#54503f;"/>
                <path d="M17.45,26.45L17.4,27C15.5,27.833 13.617,28.267 11.75,28.3L10.55,28.3C8.717,27.533 7.4,26.867 6.6,26.3L5.95,27.7L5.7,27.8L6.75,25.35C7.417,24.05 8.067,23.283 8.7,23.05L9.15,22.95C9.517,24.783 10.2,25.933 11.2,26.4L11.4,26.45L11.75,26.75L11.8,26.75C13.133,26.95 14.267,26.533 15.2,25.5C15.967,25 16.55,23.833 16.95,22C17.35,23.3 17.517,24.783 17.45,26.45M8.65,24.45C8.017,24.683 7.333,25.3 6.6,26.3C7.333,25.3 8.017,24.683 8.65,24.45" style="fill:#353328;"/>
                <path d="M4.95,23C5.617,20.133 7.333,18.133 10.1,17L11.2,17.15L11.75,17.35L12.2,17.6L11.75,17.8C11.55,17.867 11.367,17.967 11.2,18.1C8.567,19.433 6.483,21.067 4.95,23" style="fill:#918b6e;"/>
                <path d="M13.75,17.5L14.6,16.8L14.6,16.9L14.15,17.25L13.8,17.55L13.65,17.6L13.75,17.5M14.6,16.2L13.5,16.55C14.167,15.95 14.85,15.45 15.55,15.05L15.75,15.2C15.083,15.467 14.7,15.8 14.6,16.2M14.5,18.05L14.2,18.4L14.45,18L14.85,17.4L14.9,17.4L14.95,17.5L14.55,18.05L14.5,18.05" style="fill:url(#_Linear4);"/>
                <path d="M13.5,18.55L13.8,18.7L14.1,19.15L13.8,19.65L13.2,19.75L12.9,19.75L12.4,19.6C12.2,19.4 12.133,19.217 12.2,19.05L12.3,18.8L12.4,18.7L12.9,18.55L13.5,18.55" style="fill:#fff4c2;"/>
                <path d="M16.95,21.95L16.25,20.25L17.55,20.4L17.75,21.3L16.95,21.95M14.45,18L14.4,17.95L14.25,17.85L13.85,17.6L14.15,17.25L14.6,16.9L14.85,17.4L14.45,18M14.95,17.5L15.05,17.65C15.45,18.05 16.083,18.467 16.95,18.9L17.05,18.9L17.15,19.15C16.317,18.65 15.45,18.283 14.55,18.05L14.95,17.5" style="fill:#324844;"/>
                <path d="M16.25,20.25C15.783,19.417 15.2,18.683 14.5,18.05L14.55,18.05C15.45,18.283 16.317,18.65 17.15,19.15L19.05,20.7L17.55,20.4L16.25,20.25" style="fill:#999063;"/>
                <path d="M24.85,12L24.75,12L23.7,13.5L24.7,13.25M24.9,11.8L24.75,12M23.3,10L21.6,12.25L19.35,14.25L19.25,14.35L19,14.5L18.9,14.6L18.75,14.65L17.35,15.5L16.7,15.85L16.4,15.95L19,17.35L19.15,17.3L20.25,16.65L20.4,16.55L21.9,15.4L22.3,15.05L22.4,14.95L22.75,14.65L23,14.35L23.7,13.5M23.2,10L23.3,10L23.3,8.55L21.25,8.8L18.95,10.3L19.75,10.4L19.85,10.35M18.9,11.1L18.5,11.35L17.95,12.5L21.6,12.25M23.85,15.15L24.35,15.5M20.4,16.55L22.2,16.55L22.55,16.45L23.35,16.25L23.65,14.85M22,19.25L22.45,19.25L23.95,18.85M22.4,14.95L22.8,14.75L22.75,14.65M15.55,15.05L15.4,14.95L14.95,14.6L15,14.45L15.1,13.85L15.3,13.15L15.7,12.95L15.85,13.15L16.85,14.1L17.3,14.5L19.35,14.25M15.7,11.6L15.8,11.6L15.85,11.55M18.9,10.05L18.6,10.25L18.9,10.3L18.95,10.3M18.9,10.3L17.1,10.8L15.9,12L17.25,12.6L17.95,12.5M15.7,11.6L15,12.3L15.7,12.95M15.85,13.15L15.55,13.3L15.35,14.4L16.55,14.8L17,14.8L16.9,14.35L16.9,14.3L16.85,14.1M15.55,15.05L15.75,15.2L16.25,15.6L16.3,15.6L16.7,15.85M19,14.5L17,14.8M14.6,16.9L14.6,16.8M14.95,17.5L14.9,17.4L14.85,17.4L14.6,16.9M17.05,18.9L16.95,18.9C16.083,18.467 15.45,18.05 15.05,17.65L14.95,17.5M14.55,18.05C15.45,18.283 16.317,18.65 17.15,19.15L19.05,20.7L17.55,20.4L16.25,20.25M17.05,18.9L17.7,19.2L19.85,19.2L22,19.25M14.6,16.2C14.7,15.8 15.083,15.467 15.75,15.2" style="fill:none;fill-rule:nonzero;stroke:#000;stroke-opacity:0.3;stroke-width:0.05px;"/>
                <path d="M24.85,12L24.9,11.8M15.8,11.6L15.75,11.5L15.75,11.45L15.85,11.55M19.3,24.6L18.9,25.05" style="fill:none;fill-rule:nonzero;stroke:#000;stroke-opacity:0.4;stroke-width:0.05px;"/>
                <path d="M24.7,13.25L26.5,12.7L26.2,11.9L24.85,12M19.85,10.35L21.25,9.95L23.2,10C21.733,10.667 20.3,11.033 18.9,11.1L19.75,10.55L19.85,10.35M18.9,10.05L21.2,8.55L24,8.15L25.5,10.65L25.45,10.7L24.9,11.8M24.35,15.5L24.7,13.25M23.95,18.85C26.25,18.083 26.383,16.967 24.35,15.5M23.95,18.85L24.35,19.5L24.3,21L23.5,24L18.9,25.05L17.85,26.35L17.45,26.45L17.4,27C15.5,27.833 13.617,28.267 11.75,28.3L10.55,28.3C8.717,27.533 7.4,26.867 6.6,26.3L5.95,27.7L5.7,27.8L3.55,27.25C3.583,25.35 3.983,23.333 4.75,21.2C5.883,19 7.667,17.483 10.1,16.65L11.75,16.8C12.517,16.967 13.183,17.2 13.75,17.5M14.6,16.8L14.6,16.2L13.5,16.55C14.167,15.95 14.85,15.45 15.55,15.05M15.4,14.95L12.45,16.55L11.85,16.2L14.05,14.85L11.25,15.9L10.3,15.3L11.95,14.45L9.95,15.1L11,13.3L8.15,13.8L10.45,12.65L8.25,11.8L8.1,11.7L7.6,11.45L5.8,11.8L5.55,11.5L7,11.2L6.85,11.05M6.65,11L5.3,11.25C4.5,10.283 4.033,9.367 3.9,8.5L3.85,8.25L5.45,10.05L5.55,10.15C6.183,10.583 7.1,11.05 8.3,11.55L8.35,11.55L7.8,9.5L8.8,10.05L9.7,12.05M9.75,12.1L10,10.55L12.25,11L13.55,11.25L13.6,12.5L13.95,11.35L15.7,11.6M15.85,11.55L16.8,10.65L18.9,10.05M14.15,17.25L13.85,17.6M14.6,16.9L14.15,17.25" style="fill:none;fill-rule:nonzero;stroke:#000;stroke-opacity:0.3;stroke-width:0.1px;"/>
                <path d="M14.25,17.85L13.85,17.6L13.8,17.55M6.6,26.3C7.333,25.3 8.017,24.683 8.65,24.45" style="fill:none;fill-rule:nonzero;stroke:#231f18;stroke-opacity:0.45;stroke-width:0.05px;"/>
                <path d="M16.95,22L16.95,21.95L16.25,20.25C15.783,19.417 15.2,18.683 14.5,18.05M14.45,18L14.4,17.95L14.25,17.85M16.95,22C17.35,23.3 17.517,24.783 17.45,26.45" style="fill:none;fill-rule:nonzero;stroke:#251205;stroke-opacity:0.3;stroke-width:0.05px;"/>
                <path d="M15.75,17.4L16.7,17.85L17.7,17.9C18,17.833 18.167,17.717 18.2,17.55L17.95,16.95C17.717,16.75 17.417,16.6 17.05,16.5L16,16.45C15.733,16.517 15.567,16.65 15.5,16.85C15.433,17.017 15.517,17.2 15.75,17.4" style="fill:#243834;"/>
                <path d="M13.45,11.1L13.5,12.35L13.85,11.2L15.6,11.45L15.7,11.45L15.65,11.35L15.65,11.3L15.75,11.4L16.7,10.5L18.8,9.9L21.1,8.4L23.9,8L25.4,10.5L25.35,10.55L24.8,11.65L24.75,11.85L26.1,11.75L26.4,12.55L24.6,13.1L24.25,15.35C26.283,16.817 26.15,17.933 23.85,18.7L24.25,19.35L24.2,20.85L23.4,23.85L18.8,24.9L17.75,26.2L17.35,26.3L17.3,26.85C15.4,27.683 13.517,28.117 11.65,28.15L10.45,28.15C8.617,27.383 7.3,26.717 6.5,26.15L5.85,27.55L5.6,27.65L3.45,27.1C3.483,25.2 3.883,23.183 4.65,21.05C5.783,18.85 7.567,17.333 10,16.5L11.65,16.65L13.65,17.35L14.45,16.7L14.5,16.65L14.5,16.05L13.4,16.4L15.45,14.9L15.3,14.8C14.333,15.233 13.35,15.767 12.35,16.4L11.75,16.05L13.95,14.7C12.95,14.967 12.017,15.317 11.15,15.75L10.2,15.15L11.85,14.3L9.85,14.95L10.9,13.15L8.05,13.65L10.35,12.5L8.15,11.65L8,11.55L7.5,11.3L5.7,11.65L5.45,11.35L6.9,11.05L6.75,10.9L6.55,10.85L5.2,11.1C4.4,10.133 3.933,9.217 3.8,8.35L3.75,8.1L5.35,9.9L5.45,10L8.2,11.4L8.25,11.4L7.7,9.35L8.7,9.9L9.6,11.9L9.65,11.95L9.9,10.4L12.15,10.85L13.45,11.1M21.15,9.8L19.75,10.2L19.65,10.4L18.8,10.95C20.2,10.883 21.633,10.517 23.1,9.85L21.15,9.8M13.7,17.4L13.75,17.45L14.05,17.1L13.7,17.4" style="fill-opacity:0.3;"/>
                <path d="M31.65,19.15L31.25,19.15L31.55,19.1L33.85,18.55L34.2,19L31.65,19.15M26.4,18.5L29.05,18.6L29.2,18.8L28.75,18.95L28.45,19.1L27.55,18.8L27.3,18.75L26.4,18.5M24.45,21.3C24.083,21.467 23.733,21.683 23.4,21.95L22.8,23.1L22.55,22.6L23.75,20.9L24.45,21.3M30,19.7L29.8,19.6L30.45,19.15L30,19.7M29.4,19.45L29.25,19.35L30,19.15L29.4,19.45M27.55,18.8L27.8,18.8L28.75,18.95L27.8,18.8L27.55,18.8M30.8,20.15L30.55,20L30.75,19.4L30.8,20.15M33,17.8L33.5,18.2L32.1,18.25L32.1,18.15L33,17.8M34.6,19.65L34.65,19.9L33.5,19.75L34.6,19.65M32.3,17.1L32.4,17.25L32.3,17.3L32.3,17.1M32.55,17.45L32.8,17.65L32.15,17.85L32.2,17.65L32.55,17.45M31.25,22.95L32.35,23.6L33.15,22.5L32.7,23.8L33.3,24.2L33.1,24.7L33.1,25L33.6,27.35L33,28.95L32.75,29.1C32.417,28.467 32.2,27.9 32.1,27.4L31.95,26.55L31.85,25.9C31.817,24.9 31.617,23.917 31.25,22.95" style="fill:#1a2420;"/>
                <path d="M24.45,21.3L24.8,21.45L25.55,21.8L28.6,22L28.45,22.25C26.683,21.95 24.883,22.1 23.05,22.7C25.95,23.033 28.5,23.883 30.7,25.25L30.55,26.2L30.45,26.65L28.35,25L28.1,24.85L28.05,24.85L27.5,24.6L27,24.45L26.25,24.25L23.7,24.3L23.65,24.3L22.9,24.5L22.65,24.6L22.05,24.85L22.45,23.75L22.8,23.1L23.4,21.95C23.733,21.683 24.083,21.467 24.45,21.3M29.25,22.05L29.95,22.1L29.9,22.15L30.15,22.3L30.25,22.75L28.95,22.35L29.25,22.05" style="fill:#324844;"/>
                <path d="M24.95,16.85L24.95,17.35L25,17.6L26.05,18.35L26.4,18.5L27.3,18.75L27.55,18.8L28.45,19.1L26.95,19.6L29.25,19.35L29.4,19.45C28.3,19.95 27.3,20.617 26.4,21.45C27.433,21.017 28.567,20.4 29.8,19.6L30,19.7C29.4,20.433 28.933,21.2 28.6,22L25.55,21.8L24.8,21.45L24.45,21.3L23.75,20.9L22.6,19.95L22.45,19.7C21.45,18.2 22.267,17.267 24.9,16.9L24.95,16.85M30.45,26.65L30.55,26.2L30.7,25.25L30.85,25.35L30.65,22.9L30.25,22.75L30.15,22.3L31.25,22.95C31.617,23.917 31.817,24.9 31.85,25.9L31.95,26.55L32.1,27.4C32.2,27.9 32.417,28.467 32.75,29.1L32.75,29.15L32.2,31.75L31.9,32.25C31.9,30.483 31.733,29.15 31.4,28.25L30.45,26.65M23.1,19.05C23.033,19.25 23.133,19.467 23.4,19.7L24.4,20.25L25.55,20.3C25.883,20.267 26.083,20.15 26.15,19.95C26.217,19.717 26.117,19.483 25.85,19.25C25.583,19.017 25.233,18.833 24.8,18.7L23.65,18.6C23.317,18.667 23.133,18.817 23.1,19.05M29.95,22.1L29.25,22.05C29.85,21.383 30.283,20.7 30.55,20L30.8,20.15L29.95,22.1" style="fill:#1f2f2c;"/>
                <path d="M30.7,25.25C28.5,23.883 25.95,23.033 23.05,22.7C24.883,22.1 26.683,21.95 28.45,22.25L28.15,23.05L28.95,22.35L30.25,22.75L30.65,22.9L30.85,25.35L30.7,25.25" style="fill:#999063;"/>
                <path d="M30.7,11.75L30.85,11.9L31.5,12.45L31.9,13.85L32.4,13.9L32.65,13.8L33.65,13.3L32.7,11.9L32.65,11.9L32.95,11.75L34.35,13.65L33.7,14.45L34.05,14.7L34.25,16.2L32.4,17.25L32.3,17.1L32.3,17.3L32.2,17.35C31.733,17.583 31.3,17.833 30.9,18.1L28.65,18.05L27.55,16.4L27.45,16.2L27.2,15.75L26.65,14.65L25.95,13.05L25.3,11.1L25.95,13.05L26.65,14.65L27.2,15.75L27.45,16.2L27.55,16.4L28.65,18.05L28.4,18.05L28.7,18.1L29.05,18.6L28.7,18.1L30.05,18.4L29.2,18.8L29.05,18.6L26.4,18.5L26.05,18.35L25,17.6L24.95,17.35L24.95,16.85L24.9,16.05L24.95,14.75L24.9,14.4L24.95,13.9L24.7,13.8L24.95,13.25L24.9,13L24.95,12.8L25.15,11.7L25.3,11.1L25.1,10.3C25.567,9.433 26.3,9.1 27.3,9.3L27.75,10.55C28.883,10.783 29.867,11.183 30.7,11.75M28.65,12.55C29.117,12.817 29.533,13.167 29.9,13.6L29.15,13.5L30.8,15.8L31.1,16.15L32.2,17.35L31.1,16.15L30.8,15.8L29.15,13.5L28.65,12.55L27.75,10.55L28.65,12.55L29.15,13.5L29.9,13.6C29.533,13.167 29.117,12.817 28.65,12.55M25.15,11.7L25.5,11.7L25.15,11.7M27.15,16.2L27.05,16.15L24.9,14.4L27.05,16.15L27.15,16.2L27.45,16.2L27.15,16.2L27.55,16.4L27.15,16.2M25.95,13.05L25.05,12.9L24.95,13.25L25.05,12.9L25.95,13.05M33.55,14.65L33.7,14.45L33.55,14.65L32.75,15.65L32.3,16.15L32.25,16.15L32.2,16.4L32.55,16.45L32.9,16.55L33.95,16.1L33.8,14.85L33.55,14.65M24.95,13.9L26.65,14.65L24.95,13.9M31.1,16.15L31.5,16.25L32.2,16.4L31.5,16.25L31.1,16.15M34.25,16.3L34.25,16.35L32.85,17.65L32.8,17.65L32.55,17.45L34.25,16.3M31.5,16.25L31.8,16.05L32.25,16.15L31.8,16.05L31.5,16.25M32.15,17.85L31.35,18.15L32.2,17.65L32.15,17.85M32.1,18.15L32.1,18.25L31.55,18.3L32.1,18.15M30.8,15.8L31.8,16.05L30.8,15.8M31.9,13.85L29.9,13.6L31.9,13.85" style="fill:#968e65;"/>
                <path d="M39.7,27.05L40.9,29L40.6,28.5L40.55,28.45C40.017,27.65 39.233,26.767 38.2,25.8L38.15,25.75L36.95,24.6L35.95,23.65L33.35,21.45L30.75,19.4L30.7,19.25L31.15,19.15L31.65,19.15L33.8,21.25L36.2,23.55L36.4,23.7L38.3,25.5L38.9,26.1L39.4,26.7L39.35,26.7L39.45,26.75L39.55,26.85L39.7,27.05" style="fill:url(#_Linear5);"/>
                <path d="M40.6,28.5L40.9,29L39.7,27.05L41.2,27.3C41.667,28.667 41.817,29.833 41.65,30.8L41.55,31.1L40.6,28.5M39.4,26.7L38.9,26.1L40.85,26.55L41,26.9L39.4,26.7M36.4,23.7L36.2,23.55L33.8,21.25L31.65,19.15L34.2,19L35.7,18.7L36.2,19.25L34.6,19.65L33.5,19.75L34.65,19.9L36.7,19.85L37.45,20.85L35.55,21.1L37.75,21.3L36.05,22.7L39.2,23.4L36.4,23.7M30.75,19.4L33.35,21.45L35.95,23.65L36.95,24.6L38.15,25.75L38,28.15L37.2,27.15L36.95,24.6L36.1,26.15L34,24.65L33.3,24.2L32.7,23.8L33.15,22.5L32.35,23.6L30.15,22.3L29.9,22.15L29.95,22.1L30.8,20.15L30.75,19.4" style="fill:url(#_Linear6);"/>
                <path d="M31.25,19.15L31.15,19.15L30.7,19.25L30.75,19.4L30.55,20C30.283,20.7 29.85,21.383 29.25,22.05L28.95,22.35L28.15,23.05L28.45,22.25L28.6,22C28.933,21.2 29.4,20.433 30,19.7L30.45,19.15L29.8,19.6C28.567,20.4 27.433,21.017 26.4,21.45C27.3,20.617 28.3,19.95 29.4,19.45L30,19.15L29.25,19.35L26.95,19.6L28.45,19.1L28.75,18.95L29.2,18.8L30.05,18.4L28.7,18.1L28.4,18.05L28.65,18.05L30.9,18.1C31.3,17.833 31.733,17.583 32.2,17.35L32.4,17.25L34.25,16.2L34.6,16L34.25,16.3L32.55,17.45L32.2,17.65L31.35,18.15L32.15,17.85L32.8,17.65L32.85,17.65L34.85,17.05L33,17.8L32.1,18.15L31.55,18.3L32.1,18.25L33.5,18.2L34.65,18.25L33.85,18.55L31.55,19.1L31.25,19.15" style="fill:url(#_Linear7);"/>
                <path d="M30.4,11.15L30.85,11.9L30.4,11.15L29.25,9.3L27.3,9.3L27.4,7.2L29.35,7.65L32.55,11.85L32.6,11.9L32.7,11.9L33.65,13.3L32.65,13.8L32.4,13.9L31.9,13.85L31.5,12.45L30.85,11.9L30.5,11.55L30.4,11.15M33.55,14.65L33.8,14.85L33.95,16.1L32.9,16.55L32.55,16.45L32.75,15.65L33.55,14.65" style="fill:#666045;"/>
                <path d="M32.65,11.9L32.6,11.9L32.55,11.85L29.35,7.65L27.4,7.2L27.3,9.3C26.3,9.1 25.567,9.433 25.1,10.3L25.05,10.2L26.75,6.55L29.35,7.3L32.95,11.75L32.65,11.9" style="fill:#a89e70;"/>
                <path d="M23.1,19.05C23.133,18.817 23.317,18.667 23.65,18.6L24.8,18.7C25.233,18.833 25.583,19.017 25.85,19.25C26.117,19.483 26.217,19.717 26.15,19.95C26.083,20.15 25.883,20.267 25.55,20.3L24.4,20.25L23.4,19.7C23.133,19.467 23.033,19.25 23.1,19.05" style="fill:#243834;"/>
                <path d="M22.05,24.85L22.65,24.6L22.9,24.5L23.65,24.3L23.7,24.3L26.25,24.25L26.9,24.65L27.55,25.25L28.05,25.75L29.25,27.55L29.65,28.75L29.75,29.3L29.8,30.95L29.8,31C29.767,31.867 29.6,32.683 29.3,33.45L28.65,34.8L27.5,36.15C26.333,37.317 24.983,37.917 23.45,37.95L22.35,37.95L24.4,33.35L25,30.25L23.1,33.5L21.3,39.1L18.95,38C18.883,37.333 18.867,36.517 18.9,35.55C18.467,34.983 18.15,34.35 17.95,33.65C17.383,31.817 17.55,30.017 18.45,28.25C19.283,26.683 20.483,25.55 22.05,24.85M21.45,28.05L20.95,28.75C20.017,29.883 19.433,30.667 19.2,31.1L19.15,31.2L18.9,35.55L19.15,31.2L19.2,31.1C19.433,30.667 20.017,29.883 20.95,28.75L21.45,28.05M19.15,29.65L20.4,28.5C21.6,27.467 23.067,26.55 24.8,25.75C24.233,25.383 23.6,25.2 22.9,25.2L21.65,25.85C19.983,26.883 18.9,28.433 18.4,30.5L19.15,29.65M28.75,27.3L28.05,26.4C27.65,26.067 27.217,25.833 26.75,25.7C26.417,25.7 26.183,25.783 26.05,25.95C25.75,26.117 25.65,26.45 25.75,26.95C25.883,27.35 26.183,27.733 26.65,28.1L27.65,28.65L28.65,28.3L28.75,27.3" style="fill:#54503f;"/>
                <path d="M26.25,24.25L27,24.45L27.5,24.6L28.05,24.85L28.1,24.85L28.35,25L30.45,26.65L31.4,28.25C31.733,29.15 31.9,30.483 31.9,32.25L31.75,35.05C31.683,35.617 31.033,36.15 29.8,36.65L26.3,37.7L23.45,37.95C24.983,37.917 26.333,37.317 27.5,36.15L28.65,34.8L29.3,33.45C29.6,32.683 29.767,31.867 29.8,31L29.8,30.95L29.75,29.3L29.65,28.75L29.25,27.55L28.05,25.75L27.55,25.25L26.9,24.65L26.25,24.25M21.3,39.1L23.1,33.5L25,30.25L24.4,33.35L22.35,37.95L22.15,38.3L21.3,39.1" style="fill:#353328;"/>
                <path d="M28.75,27.3L28.65,28.3L27.65,28.65L26.65,28.1C26.183,27.733 25.883,27.35 25.75,26.95C25.65,26.45 25.75,26.117 26.05,25.95C26.183,25.783 26.417,25.7 26.75,25.7C27.217,25.833 27.65,26.067 28.05,26.4L28.75,27.3" style="fill:#fff4c2;"/>
                <path d="M19.15,29.65L18.4,30.5C18.9,28.433 19.983,26.883 21.65,25.85L22.9,25.2C23.6,25.2 24.233,25.383 24.8,25.75C23.067,26.55 21.6,27.467 20.4,28.5L19.15,29.65" style="fill:#918b6e;"/>
                <path d="M26.4,18.5L29.05,18.6M24.95,13.25L24.9,13M23.4,21.95L22.8,23.1M32.25,16.15L32.2,16.4M31.85,25.9L31.95,26.55L32.1,27.4C32.2,27.9 32.417,28.467 32.75,29.1" style="fill:none;fill-rule:nonzero;stroke:#000;stroke-opacity:0.4;stroke-width:0.05px;"/>
                <path d="M30.4,11.15L30.5,11.55L30.85,11.9L31.5,12.45L31.9,13.85L32.4,13.9L32.65,13.8L33.65,13.3L32.7,11.9L32.65,11.9M32.6,11.9L32.55,11.85L29.35,7.65L27.4,7.2L27.3,9.3M25.3,11.1L25.95,13.05L26.65,14.65L27.2,15.75L27.45,16.2L27.55,16.4L28.65,18.05M32.2,17.35L31.1,16.15L30.8,15.8L29.15,13.5L28.65,12.55L27.75,10.55M25.5,11.7L25.15,11.7M29.15,13.5L29.9,13.6C29.533,13.167 29.117,12.817 28.65,12.55M24.95,16.85L24.95,17.35L25,17.6L26.05,18.35L26.4,18.5L27.3,18.75L27.55,18.8L27.8,18.8L28.75,18.95M29.05,18.6L28.7,18.1M27.45,16.2L27.15,16.2L27.55,16.4M24.9,14.4L27.05,16.15L27.15,16.2M24.95,13.25L25.05,12.9L25.95,13.05M28.6,22L25.55,21.8L24.8,21.45L24.45,21.3L23.75,20.9M30.7,25.25C28.5,23.883 25.95,23.033 23.05,22.7C24.883,22.1 26.683,21.95 28.45,22.25M29.2,18.8L29.05,18.6M29.95,22.1L29.25,22.05M28.95,22.35L30.25,22.75L30.65,22.9L30.85,25.35L30.7,25.25M26.65,14.65L24.95,13.9M33.7,14.45L33.55,14.65L33.8,14.85L33.95,16.1L32.9,16.55L32.55,16.45M32.2,16.4L31.5,16.25L31.1,16.15M33,17.8L33.5,18.2M33.85,18.55L34.2,19M34.6,19.65L34.65,19.9M32.25,16.15L31.8,16.05L31.5,16.25M32.3,17.3L32.3,17.1M32.55,17.45L32.8,17.65M32.1,18.25L32.1,18.15M32.2,17.65L32.15,17.85M31.8,16.05L30.8,15.8M33.55,14.65L32.75,15.65M29.9,13.6L31.9,13.85" style="fill:none;fill-rule:nonzero;stroke:#000;stroke-opacity:0.3;stroke-width:0.05px;"/>
                <path d="M30.15,22.3L29.9,22.15L29.95,22.1L30.8,20.15L30.75,19.4M34.6,19.65L33.5,19.75L34.65,19.9M33.3,24.2L32.7,23.8L33.15,22.5L32.35,23.6L30.15,22.3" style="fill:none;fill-rule:nonzero;stroke:#000;stroke-opacity:0.5;stroke-width:1.5px;"/>
                <path d="M22.05,24.85L22.65,24.6L22.9,24.5M27,24.45L27.5,24.6L28.05,24.85L28.1,24.85L28.35,25L30.45,26.65L31.4,28.25C31.733,29.15 31.9,30.483 31.9,32.25M18.9,35.55L19.15,31.2L19.2,31.1C19.433,30.667 20.017,29.883 20.95,28.75L21.45,28.05M25,30.25L24.4,33.35L22.35,37.95" style="fill:none;fill-rule:nonzero;stroke:#251205;stroke-opacity:0.3;stroke-width:0.05px;"/>
                <path d="M39.55,26.85L39.45,26.75L39.35,26.7M38.9,26.1L38.3,25.5L36.4,23.7L39.2,23.4L36.05,22.7L37.75,21.3L35.55,21.1L37.45,20.85L36.7,19.85L34.65,19.9M38.15,25.75L38.2,25.8C39.233,26.767 40.017,27.65 40.55,28.45L40.6,28.5L41.55,31.1L41.65,30.8C41.817,29.833 41.667,28.667 41.2,27.3L39.7,27.05M38.9,26.1L40.85,26.55L41,26.9L39.4,26.7M30.85,11.9L30.4,11.15L29.25,9.3L27.3,9.3L27.75,10.55C28.883,10.783 29.867,11.183 30.7,11.75M32.95,11.75L29.35,7.3L26.75,6.55L25.05,10.2L25.1,10.3L25.3,11.1L25.15,11.7L24.95,12.8L24.9,13M24.95,16.85L24.9,16.05L24.95,14.75L24.9,14.4L24.95,13.9L24.7,13.8L24.95,13.25M22.8,23.1L22.45,23.75L22.05,24.85C20.483,25.55 19.283,26.683 18.45,28.25C17.55,30.017 17.383,31.817 17.95,33.65C18.15,34.35 18.467,34.983 18.9,35.55C18.867,36.517 18.883,37.333 18.95,38L21.3,39.1L22.15,38.3L22.35,37.95L23.45,37.95L26.3,37.7L29.8,36.65C31.033,36.15 31.683,35.617 31.75,35.05L31.9,32.25L32.2,31.75L32.75,29.15L32.75,29.1L33,28.95L33.6,27.35L33.1,25L33.1,24.7L33.3,24.2L34,24.65L36.1,26.15L36.95,24.6L37.2,27.15L38,28.15L38.15,25.75M23.75,20.9L22.55,22.6L22.8,23.1M23.75,20.9L22.6,19.95L22.45,19.7C21.45,18.2 22.267,17.267 24.9,16.9M32.55,16.45L32.2,16.4M32.95,11.75L34.35,13.65L33.7,14.45L34.05,14.7L34.25,16.2M34.25,16.3L34.25,16.35L32.85,17.65L34.85,17.05L33,17.8M33.5,18.2L34.65,18.25L33.85,18.55M34.2,19L35.7,18.7L36.2,19.25L34.6,19.65M32.75,15.65L32.55,16.45M32.75,15.65L32.3,16.15L32.25,16.15M31.65,19.15L34.2,19" style="fill:none;fill-rule:nonzero;stroke:#000;stroke-opacity:0.3;stroke-width:0.1px;"/>
            </g>
        </g>
    </g>
    <defs>
        <radialGradient id="_Radial1" cx="0" cy="0" r="1" gradientUnits="userSpaceOnUse" gradientTransform="matrix(41.6154,0,0,41.6154,41.35,41.35)"><stop offset="0" style="stop-color:#000;stop-opacity:0.3"/><stop offset="1" style="stop-color:#000;stop-opacity:0"/></radialGradient>
        <linearGradient id="_Linear2" x1="0" y1="0" x2="1" y2="0" gradientUnits="userSpaceOnUse" gradientTransform="matrix(-12.288,-6.38976,6.38976,-12.288,15.9663,14.8718)"><stop offset="0" style="stop-color:#050403;stop-opacity:1"/><stop offset="1" style="stop-color:#2b3b3b;stop-opacity:1"/></linearGradient>
        <linearGradient id="_Linear3" x1="0" y1="0" x2="1" y2="0" gradientUnits="userSpaceOnUse" gradientTransform="matrix(-11.9603,-6.22592,6.22592,-11.9603,14.7439,15.9492)"><stop offset="0" style="stop-color:#0b0c08;stop-opacity:1"/><stop offset="1" style="stop-color:#3f5250;stop-opacity:1"/></linearGradient>
        <linearGradient id="_Linear4" x1="0" y1="0" x2="1" y2="0" gradientUnits="userSpaceOnUse" gradientTransform="matrix(-11.9603,-6.22592,6.22592,-11.9603,14.7512,15.9419)"><stop offset="0" style="stop-color:#050403;stop-opacity:1"/><stop offset="1" style="stop-color:#272e1f;stop-opacity:1"/></linearGradient>
        <linearGradient id="_Linear5" x1="0" y1="0" x2="1" y2="0" gradientUnits="userSpaceOnUse" gradientTransform="matrix(9.99424,11.6326,-11.6326,9.99424,33.1665,18.3528)"><stop offset="0" style="stop-color:#0b0c08;stop-opacity:1"/><stop offset="1" style="stop-color:#3f5250;stop-opacity:1"/></linearGradient>
        <linearGradient id="_Linear6" x1="0" y1="0" x2="1" y2="0" gradientUnits="userSpaceOnUse" gradientTransform="matrix(10.3219,11.9603,-11.9603,10.3219,31.468,19.0054)"><stop offset="0" style="stop-color:#050403;stop-opacity:1"/><stop offset="1" style="stop-color:#2b3b3b;stop-opacity:1"/></linearGradient>
        <linearGradient id="_Linear7" x1="0" y1="0" x2="1" y2="0" gradientUnits="userSpaceOnUse" gradientTransform="matrix(9.99424,11.6326,-11.6326,9.99424,33.1725,18.3497)"><stop offset="0" style="stop-color:#050403;stop-opacity:1"/><stop offset="1" style="stop-color:#272e1f;stop-opacity:1"/></linearGradient>
    </defs>
</svg>
