<?xml version="1.0" encoding="UTF-8"?>
<svg version="1.1" viewBox="0 0 205.75 220.78" xmlns="http://www.w3.org/2000/svg" xmlns:cc="http://creativecommons.org/ns#" xmlns:dc="http://purl.org/dc/elements/1.1/" xmlns:rdf="http://www.w3.org/1999/02/22-rdf-syntax-ns#" xmlns:xlink="http://www.w3.org/1999/xlink">
<metadata>
<rdf:RDF>
<cc:Work rdf:about="">
<dc:format>image/svg+xml</dc:format>
<dc:type rdf:resource="http://purl.org/dc/dcmitype/StillImage"/>
</cc:Work>
</rdf:RDF>
</metadata>
<g transform="translate(-172.17 -89.475)">
<use transform="translate(172.2,89.5)" width="205.7" height="220.75" xlink:href="#a"/>
</g>
<defs>
<g id="a" transform="translate(-172.2,-89.5)">
<path d="m345.3 198.7 1.2 3q13.65 34.15 28.6 50.9l0.2 0.45q6.85 21.7-15.75 15.5-28.35-9.65-35.7-44.1-3.85 15.85-30.85 26.35-8.85 1.95-12.8-2.2-1.5-1.55-2.25-4-1.8-5.5 2.25-9.7 2.5-2.6 7.3-4.7 18.6-12.9 19.8-28.5l0.1-3h37.9m-31.8 0 3.55 3q2.55 2 5.45 3.65l1.35 19.1-1.35-19.1q-2.9-1.65-5.45-3.65l-3.55-3" fill="#742121" fill-rule="evenodd"/>
<path d="m345.3 198.7 1.2 3q13.65 34.15 28.6 50.9l0.2 0.45q6.85 21.7-15.75 15.5-28.35-9.65-35.7-44.1-3.85 15.85-30.85 26.35-8.85 1.95-12.8-2.2-1.5-1.55-2.25-4-1.8-5.5 2.25-9.7 2.5-2.6 7.3-4.7 18.6-12.9 19.8-28.5l0.1-3m16.45 25.75-1.35-19.1q-2.9-1.65-5.45-3.65l-3.55-3" fill="none" stroke="#000" stroke-linecap="round" stroke-linejoin="round" stroke-opacity=".50196" stroke-width=".05"/>
<path d="m346.85 117-0.45 0.45q-4 0-6.65 2.65-1.85 1.85-2.45 4l-0.2 2.25q-0.05 3.5 2.65 6.2 2.65 2.65 6.65 2.65h0.45q2-0.1 3.75-0.9l8.45-2q18.05 27.3 18.85 62.8l-0.65 2.65q-26.2 29.35-80.55 31.95-20.5-2-39.45-10l-12.85 2.65q-39.45-32.3-35.5-86.25 0.7-1.2 1.55-2.25 4.05-6.45 9.1-12.4 27.05-31.95 65.65-31.95 35.8 0 61.65 27.5m-63.45 37.7h0.45q5.3 0 8.9-3.55 3.5-3.1 3.55-7.95-0.05-1.65-0.45-3.1-0.75-3-3.1-5.35-3.6-3.1-8.9-3.1t-8.85 3.1q-2.4 2.35-3.1 5.35-0.45 1.45-0.45 3.1v1.55l0.45 1.55-9.55 13.5 21.05-5.1" fill="#b73333" fill-rule="evenodd"/>
<path d="m337.3 124.1q0.6-2.15 2.45-4 2.65-2.65 6.65-2.65h0.9q3.4 0.3 5.75 2.65 2.65 2.65 2.65 6.25v1.1q-11.7 4.2-18.4-3.35m-65.4 16q0.7-3 3.1-5.35 3.55-3.1 8.85-3.1t8.9 3.1q2.35 2.35 3.1 5.35-12.8 12.3-23.95 0" fill="#ccf1f9" fill-rule="evenodd"/>
<path d="m350.6 134.3q-1.75 0.8-3.75 0.9h-0.45q-4 0-6.65-2.65-2.7-2.7-2.65-6.2l0.2-2.25q6.7 7.55 18.4 3.35-0.45 2.85-2.65 5.1-1.15 1.1-2.45 1.75m-54.75 5.8q0.4 1.45 0.45 3.1-0.05 4.85-3.55 7.95-3.6 3.55-8.9 3.55h-0.45q-5.05-0.15-8.4-3.55-2.35-2-3.1-4.85l-0.45-1.55v-1.55q0-1.65 0.45-3.1 11.15 12.3 23.95 0" fill="#70c2da" fill-rule="evenodd"/>
<path d="m208.9 136.1q-3.95 53.95 35.5 86.25l12.85-2.65q18.95 8 39.45 10 54.35-2.6 80.55-31.95-2.45 9.6-12.45 17.3l-4.65 3.3q-10.4 6.55-26.85 11.55l-12.85 3.35-2.65 1.3q-29.65 9.15-60.35-7.3l-2.85-1.55q-4.9-2.2-8.45-2.65l-1.55-0.25q-1.25-0.15-2.2 0l-1.15 0.25q-4.15 1.35-4.4 7.3l0.9 2.45 2.35 6.2 1.2 3q13.65 34.15 28.6 50.9l0.2 0.45q6.85 21.7-15.75 15.5-28.35-9.65-35.7-44.1-3.85 15.85-30.85 26.35-8.85 1.95-12.8-2.2-1.5-1.55-2.25-4-1.8-5.5 2.25-9.7 2.5-2.6 7.3-4.7 18.6-12.9 19.8-28.5l0.1-3q-0.15-3.5-1.05-7.1h1.1l-1.55-2.45q-4.8-8.1-6.9-18.85-1.05-5.95-1.3-12.65 0-34.8 16.4-61.85m150.15-3.8-8.45 2q1.3-0.65 2.45-1.75 2.2-2.25 2.65-5.1l3.35 4.85m-75.65 22.4-21.05 5.1 9.55-13.5q0.75 2.85 3.1 4.85 3.35 3.4 8.4 3.55m-81.15 77.2q2.65 3.9 6.05 7.1l3.55 3q2.55 2 5.45 3.65l1.35 19.1-1.35-19.1q-2.9-1.65-5.45-3.65l-3.55-3q-3.4-3.2-6.05-7.1" fill="#992b2b" fill-rule="evenodd"/>
<path d="m346.85 117q-25.85-27.5-61.65-27.5-38.6 0-65.65 31.95-5.05 5.95-9.1 12.4m167.45 61.25q-0.8-35.5-18.85-62.8m-12.2 2.9h-0.45q-4 0-6.65-2.65-2.7-2.7-2.65-6.2l0.2-2.25q0.6-2.15 2.45-4 2.65-2.65 6.65-2.65h0.9l-0.45-0.45m0.45 0.45q3.4 0.3 5.75 2.65 2.65 2.65 2.65 6.25v1.1l3.35 4.85m-3.35-4.85q-0.45 2.85-2.65 5.1-1.15 1.1-2.45 1.75m14.2 80.75-4.65 3.3q-10.4 6.55-26.85 11.55l-12.85 3.35-2.65 1.3q-29.65 9.15-60.35-7.3l-2.85-1.55q-4.9-2.2-8.45-2.65m-1.55-0.25q-1.25-0.15-2.2 0m-1.15 0.25q-4.15 1.35-4.4 7.3l0.9 2.45 2.35 6.2 1.2 3q13.65 34.15 28.6 50.9l0.2 0.45q6.85 21.7-15.75 15.5-28.35-9.65-35.7-44.1-3.85 15.85-30.85 26.35-8.85 1.95-12.8-2.2-1.5-1.55-2.25-4-1.8-5.5 2.25-9.7 2.5-2.6 7.3-4.7 18.6-12.9 19.8-28.5l0.1-3q-0.15-3.5-1.05-7.1h1.1l-1.55-2.45q-4.8-8.1-6.9-18.85-1.05-5.95-1.3-12.65 0-34.8 16.4-61.85m86.95 4q0.4 1.45 0.45 3.1-0.05 4.85-3.55 7.95-3.6 3.55-8.9 3.55h-0.45q-5.05-0.15-8.4-3.55-2.35-2-3.1-4.85m-0.45-1.55v-1.55q0-1.65 0.45-3.1 0.7-3 3.1-5.35 3.55-3.1 8.85-3.1t8.9 3.1q2.35 2.35 3.1 5.35m-77.2 124.65-1.35-19.1q-2.9-1.65-5.45-3.65l-3.55-3q-3.4-3.2-6.05-7.1" fill="none" stroke="#000" stroke-linecap="round" stroke-linejoin="round" stroke-opacity=".50196" stroke-width=".05"/>
<path d="m195.55 213.7q2.2 10.65 7.1 19.05 0 0.9 0.45 2.25-40.4 1.3-7.55-21.3" fill="#742121" fill-rule="evenodd"/>
<path d="m202.65 232.75q0 0.9 0.45 2.25-40.4 1.3-7.55-21.3" fill="none" stroke="#000" stroke-linecap="round" stroke-linejoin="round" stroke-opacity=".50196" stroke-width=".05"/>
<path d="m363.65 180.45q-3.1 5.75-5.75 12-21.3 8.4-43 16.4l-7.55-9.75q2.65 3.55 4.85 4.4 4 1.35 7.55 0 3.55-1.3 4.9-4.4 0.45-1.35-0.9-5.35 2.65 4.9 4.9 5.8l3.1 0.4q1.3 0 3.1-0.85 2.65-1.35 4-4 0.45-2.65-0.9-6.65 4.9 2.65 7.1 2.65 4.45 0 7.1-2.65 3.1-2.25 3.1-5.8 0-1.3-2.65-4.85 4 4 6.65 4l3.1-0.45 1.3-0.9" fill="#992b2b" fill-rule="evenodd"/>
<path d="m361.9 165.8q4.9 4.9 4.9 8 0 2.65-1.35 4.45l-0.9 0.9-0.9 1.3m-56.3 18.65q2.65 3.55 4.85 4.4 4 1.35 7.55 0 3.55-1.3 4.9-4.4 0.45-1.35-0.9-5.35 2.65 4.9 4.9 5.8l3.1 0.4q1.3 0 3.1-0.85 2.65-1.35 4-4 0.45-2.65-0.9-6.65 4.9 2.65 7.1 2.65 4.45 0 7.1-2.65 3.1-2.25 3.1-5.8 0-1.3-2.65-4.85 4 4 6.65 4l3.1-0.45 1.3-0.9" fill="none" stroke="#000" stroke-linecap="round" stroke-linejoin="round" stroke-opacity=".50196" stroke-width=".05"/>
</g>
</defs>
</svg>
