<?xml version="1.0" encoding="UTF-8"?>
<svg version="1.1" viewBox="0 0 58.7 76.9" xmlns="http://www.w3.org/2000/svg" xmlns:cc="http://creativecommons.org/ns#" xmlns:dc="http://purl.org/dc/elements/1.1/" xmlns:rdf="http://www.w3.org/1999/02/22-rdf-syntax-ns#" xmlns:xlink="http://www.w3.org/1999/xlink">
<metadata>
<rdf:RDF>
<cc:Work rdf:about="">
<dc:format>image/svg+xml</dc:format>
<dc:type rdf:resource="http://purl.org/dc/dcmitype/StillImage"/>
</cc:Work>
</rdf:RDF>
</metadata>
<g transform="translate(-245.62 -162.02)">
<use transform="translate(245.65,162.05)" width="58.650002" height="76.849998" xlink:href="#a"/>
</g>
<defs>
<g id="a" transform="translate(-245.65,-162.05)">
<path d="m264.25 162.05 20.35 2.55 17.1 18.05-12 3.3-9.35-8.75 9.7-1.9-10.75 0.9-4.2-3.95 14.55-1.2-16.75-0.9h-0.05l-8.6-8.1m35.9 23.5 0.4 0.35 3.75 1.6-2.3 0.65-2.8-1.65 1.25 2.05-8.8 2.35-4.2-2.4 12.7-2.95" fill="#e3d5d5" fill-rule="evenodd"/>
<path d="m301.7 182.65-1.55 2.9-12.7 2.95 2.25-2.55 12-3.3m2.6 7.8q-0.65 2.2 0 3l-4.95 9.05 4.95-12.05m-44.55 31.8q0.1-0.6-0.5-0.6 1.7-0.85 3.35-1.75l-12.15-15.95 15.7-11.05 1.1 1.55 2.65 3.6-3.4 7.8 4.2-6.7 1.65 2.3-9.75 18.45q-0.2 0.6 0.55 0.65l10.35-17.55 7.4 10.1 0.4 0.6 0.1 0.1 0.5 0.7-15.35 10.55-3.4-4.5-3.4 1.7m-2.15-52.45-0.2 7.55-0.95-5.5q0.65-0.15 1.15-2.05m-2.85 5.1-2.4 15.55 0.7-12.6q0.85 0.15 1.7-2.95m16.7 0.55q0.4-1.05-1.9-1.15l3.3-4.15h0.05q-0.25 1.65 2.2 2.1l-3.65 3.2m7.85 0.75q0.05 1.25 1.05 1l-1.75 2.95 0.7-3.95m22.7 11.95-5.45 12.65 3.9-12.25q0.55 0.7 1.55-0.4" fill="#966" fill-rule="evenodd"/>
<path d="m260.65 164.45 2.55 0.45-1.05 2.85-1.5-3.3m43.65 40.1q-8.4 6.4-15.05 15.3l-14.1 10.45q8.35-10.05 17.5-19.5 5.9-2.6 11.65-6.25m-54.25-1.8q5.2-17.05 12.85-31.1l2.45-0.85 4.2 3.5q2.3 0.1 1.9 1.15l4 3.8q-4.7 6.8-8.2 15.2l-1.1-1.55-16.1 9.85m19.85-4.7q0 1.1 0.8 1.1l-4.2 6.7 3.4-7.8m2.45 3.4q0 1.7 1.15 1.55l-10.35 17.55q-0.75-0.05-0.55-0.65l9.75-18.45" fill="#734d4d" fill-rule="evenodd"/>
<path d="m263.2 164.9 1.05-2.85 8.6 8.1-3.3 4.15-4.2-3.5-2.45 0.85q-7.65 14.05-12.85 31.1l0.4 1.2 12.15 15.95q-1.65 0.9-3.35 1.75l-2.4-2.9-6.15-7.55-4.2-5.1-0.85-12.6 7.4-15.65-0.7 12.6 2.4-15.55 1.7-3.05 0.95 5.5 0.2-7.55 3.05-5.35 1.5 3.3 1.05-2.85m11.95 65.4-1.65-0.55-7.85-2.6-2.6-0.85-3.3-4.05 3.4-1.7 3.4 4.5 19.85-10.85-0.05-1.4q1.1-11.85-0.75-25.1l-10.15-8.45-4-3.8 3.65-3.2q-2.45-0.45-2.2-2.1l16.75 0.9-14.55 1.2 4.2 3.95 10.75-0.9-9.7 1.9 9.35 8.75-2.25 2.55 4.2 2.4 1 19.9q-9.15 9.45-17.5 19.5m5.2-53.1q-1 0.25-1.05-1l-0.7 3.95 1.75-2.95m21.65 10.95q-1 1.1-1.55 0.4l-1.25-2.05 2.8 1.65" fill="#b99388" fill-rule="evenodd"/>
<path d="m304.3 187.5v2.95l-4.95 12.05 4.95-9.05v11.1q-5.75 3.65-11.65 6.25l-1-19.9 8.8-2.35-3.9 12.25 5.45-12.65 2.3-0.65m-23.4 25.6 0.5 0.7-0.1-0.1-0.4-0.6m1 1.4 4.45-1.7 0.05 1.4-19.85 10.85 15.35-10.55" fill="#c9abab" fill-rule="evenodd"/>
<path d="m250.05 202.75 16.1-9.85-15.7 11.05-0.4-1.2" fill="#412c2c" fill-rule="evenodd"/>
<path d="m273.5 229.75-1.95 4.15-2 2.15 1.4-3.5-6.8-0.7 1.5-4.7 7.85 2.6m-16.65-11-4.45 14.75h-1l2.5-10.65-3.95-6.75 0.75-4.9 6.15 7.55" fill="#d2cbae" fill-rule="evenodd"/>
<path d="m269.55 236.05-7.65 2.85 2.25-7.05 6.8 0.7-1.4 3.5m-18.15-2.55-2.75-8.45 1.3-8.95 3.95 6.75-2.5 10.65" fill="#f3f1e9" fill-rule="evenodd"/>
<path d="m260.65 164.45 2.55 0.45 1.05-2.85 20.35 2.55 17.1 18.05-1.55 2.9 0.4 0.35 3.75 1.6v2.95q-0.65 2.2 0 3v11.1q-8.4 6.4-15.05 15.3l-14.1 10.45-1.65-0.55-1.95 4.15-2 2.15-7.65 2.85 3.75-11.75-2.6-0.85-3.3-4.05q0.1-0.6-0.5-0.6l-2.4-2.9-4.45 14.75h-1l-2.75-8.45 1.3-8.95 0.75-4.9-4.2-5.1 0.25 1.5m9.7-35.75-1.7 3.05q-0.85 3.1-1.7 2.95l-7.4 15.65 0.85 12.6m11.1-36.3q-0.5 1.9-1.15 2.05m9.7 21.05 1.1 1.55q3.5-8.4 8.2-15.2m-14.8-14.8-3.05 5.35m15.25 0.35h0.05m13.45 42.65q1.1-11.85-0.75-25.1l-10.15-8.45m-5.55 18.8q0 1.1 0.8 1.1l1.65 2.3q0 1.7 1.15 1.55l7.4 10.1 1 1.4 4.45-1.7m-4.95 1-0.1-0.1-0.4-0.6m-30.2-1.9 6.15 7.55m8.8 8.4 7.85 2.6m-3.6-31.7-2.65-3.6" fill="none" stroke="#000" stroke-linecap="round" stroke-linejoin="round" stroke-opacity=".4" stroke-width=".05"/>
<path d="m267.1 162.4 0.4 0.05-0.2 0.35-0.2-0.4m-5.55 2.2 0.8 0.7-0.15 1.7-0.6 0.65q-0.25-1-0.7-1.6l-0.05-0.3 0.45-1.2 0.25 0.05m17.45 17.6 0.05-0.7q0-1.55 2.25-3.75 3.45-3.35 9.75-3.35l3 0.2 4.95 5.2v0.15q-0.65 2.45-1.8 3.45l-0.7 0.55-4.45 0.45 0.35-1.6q0-2.75-3.2-2.75-3.85 0-6.8 2.05l-1.75 1.5-1.65-1.4m-14.45 2.8-0.35 0.3 0.95-1.15-0.6 0.85m1.85-2.3-0.4 0.35 0.4-0.6v0.25m1.95 3.2h0.2q0.8 0.8 0.8 1.1 0 0.9-2.4 3.85-1.15 0.45-5.9 4.6l-0.15 0.15 0.45-2.2q0.6-2.55 2.1-4.3 0.8 1 1.8 1 1.7 0 2.2-2.1t0.9-2.1m-16.55 0.1q-0.85-0.95-1.95-1.35l2.7-5.8 0.2 1.1q0 2.5-0.95 6.05m16.65-16.3q0-0.95 0.45-2.15 1.2-0.7 2.65-1.15h0.1q8.45 0 14.6 2.9h-0.35q-4.35 0-7.25 1.45-0.55-0.35-1.2-0.35-3.3 0-5.5 3.45l-0.7 1.3-0.5-0.25-0.25-0.1-0.85-1.3q-1.2-1.8-1.2-3.8m-20.95 19.85 0.1 0.15q1.8 3.2 1.8 4.25 0 2.1-2.25 5.3l-0.95 1.5-0.55-7.25 1.85-3.95m37.05-2.7 0.15-0.35 1.5 0.75-0.5 1.25-0.1-0.8-1.05-0.85m-31.7 26.45-0.2-0.3 0.95-0.3q1.8 0 4.9 5.7l-0.65 1.25-2.7-2.65-2.3-3.7m-2.3-3.3-0.45 0.45-0.35-0.4h0.25l0.55-0.05m39.8 6.05-0.1-0.15 2.25-0.1-1.5 1.8-0.65-1.55m-16.85 6.05 0.05 0.25q1.45 3.75 5.55 3.75l2.2-0.35-6.15 4.55-1.65-0.55-0.2 0.4-0.65-0.5q-2.65-2-5.05-2.85l0.35-0.5q1.8-0.9 5.55-4.2m14.6-13.95-0.05-0.1h0.1v0.05l-0.05 0.05m-17.8-1.8-0.1 0.15-0.05-0.1 0.15-0.05m27.6 2.15 0.2 1.4-2.2 2.15-0.3-0.15q0.45-1.25 2.3-3.6v0.2m-3-15.85-0.15 0.85 0.65 2.95q1.05 2.8 3.05 2.8l0.6-0.05-0.85 2.3q-2.45 5.1-4.1 5.1-2.4-2.05-7.3-2.35l-0.05-3.2 1.4 0.2q3.5 0 3.5-3.45 0-0.95-0.8-2.35l-0.85-1.45q0-0.5 1.3-0.75l2.85-0.45 0.75-0.15" fill="#900" fill-opacity=".2" fill-rule="evenodd"/>
</g>
</defs>
</svg>
