<?xml version="1.0" encoding="UTF-8"?>
<svg version="1.1" viewBox="0 0 84.6 131.85" xmlns="http://www.w3.org/2000/svg" xmlns:cc="http://creativecommons.org/ns#" xmlns:dc="http://purl.org/dc/elements/1.1/" xmlns:rdf="http://www.w3.org/1999/02/22-rdf-syntax-ns#" xmlns:xlink="http://www.w3.org/1999/xlink">
<metadata>
<rdf:RDF>
<cc:Work rdf:about="">
<dc:format>image/svg+xml</dc:format>
<dc:type rdf:resource="http://purl.org/dc/dcmitype/StillImage"/>
</cc:Work>
</rdf:RDF>
</metadata>
<g transform="translate(116.42 75.475)">
<use transform="translate(-116.4,-75.6)" width="84.550003" height="131.95" xlink:href="#a"/>
</g>
<defs>
<g id="a" transform="translate(116.4,75.6)">
<path d="m-87.7-60.7q4.8-2.6 8.85-5.75 2.25 2.65 3.6 5.85l0.2 0.6 6.35 27.15 0.3 0.9q3.7 16.6 7.65 29.45l0.1 0.5q6.4 24.45 24.6 34.3l4.2 2-4.2 0.15-3.2 0.4q-11.25-6.35-19.85-15.25 5.45 12.3 14.15 17.5l-2.25 1.15q-4.85-2.85-8.35-5.55-10-11.95-17.3-33.65l-0.25-0.85-2-7.1q-2-7.4-3.45-15.7l-2.9-21.3-2-7.9q-1.5-3.8-4.25-6.9" fill="#a00" fill-rule="evenodd"/>
<path d="m-98.05-56.05q5.55-2.05 10.35-4.65 2.75 3.1 4.25 6.9l2 7.9 2.9 21.3q1.45 8.3 3.45 15.7l2 7.1 0.25 0.85 2.55 8.6q2.8 9.2 7.1 16.9 2.15 3.9 7.65 8.15 3.5 2.7 8.35 5.55l3.9 9.45-18-0.4-6.6-0.7-0.35-0.15-2-1.2-0.65-0.4q-8.25-5.5-11.9-15.6-4.3-11.95-5.65-19.15t-2.4-16.35l-0.4-3.5-0.7-6.15-0.3-21.9-0.85-7.9q-1.2-5.6-4.95-10.35m24.6 94.6 4.3 3.25q0.1-2.5 4.4-4.7 6.55-3.2 9.45-1.55-5.95-4.3-10.9-10.85-5.25-6.9-13.6-32.75 3.3 21.2 9.5 39.05-4.95 0.35-9.85-6.65 1.6 10.55 6.7 14.2" fill="#fff" fill-rule="evenodd"/>
<path d="m-108.35-52.95 0.45-0.1 2.5-0.65q3.8-1.1 7.35-2.35 3.75 4.75 4.95 10.35l0.85 7.9 0.3 21.9 0.7 6.15 2.5 28.6q1.45 9.75 7.65 18.25 6.45 6.85 10.2 7.75l0.65 0.4 2 1.2 0.35 0.15q-5.15 0.95-9.05 2.25-4.8 0-10.2-6.85-0.65 5.9 1.5 10.85-2.3 1.6-3.45 3.5-14.3-5.1-14.55-34.7l0.05-0.5q-0.75-14.05-0.25-31.8l-0.1-1 0.55-29.15-0.05-0.65q-0.9-5.65-4.9-11.5" fill="#c60000" fill-rule="evenodd"/>
<path d="m-76.95 48.85q-3.8 1.15-6.5 2.65l-1.65 0.95-0.55 0.4q-2.15-4.95-1.5-10.85 5.4 6.85 10.2 6.85m-14.3-58.6 0.4 3.5q1.05 9.15 2.4 16.35t5.65 19.15q3.65 10.1 11.9 15.6-3.75-0.9-10.2-7.75-6.2-8.5-7.65-18.25l-2.5-28.6" fill="#930000" fill-rule="evenodd"/>
<path d="m-39.25 34.85q-2.4 0.4-3.7 1.15l-2 1.1q-8.7-5.2-14.15-17.5 8.6 8.9 19.85 15.25m-33.6-35.8q7.3 21.7 17.3 33.65-5.5-4.25-7.65-8.15-4.3-7.7-7.1-16.9l-2.55-8.6" fill="#600" fill-rule="evenodd"/>
<path d="m-73.45 38.55q-5.1-3.65-6.7-14.2 4.9 7 9.85 6.65-6.2-17.85-9.5-39.05 8.35 25.85 13.6 32.75 4.95 6.55 10.9 10.85-2.9-1.65-9.45 1.55-4.3 2.2-4.4 4.7l-4.3-3.25" fill="#d0c3c3" fill-rule="evenodd"/>
<path d="m-98.05-56.05q5.55-2.05 10.35-4.65 2.75 3.1 4.25 6.9l2 7.9 2.9 21.3q1.45 8.3 3.45 15.7l2 7.1 0.25 0.85 2.55 8.6q2.8 9.2 7.1 16.9 2.15 3.9 7.65 8.15 3.5 2.7 8.35 5.55l3.9 9.45-18-0.4-6.6-0.7q-5.15 0.95-9.05 2.25-3.8 1.15-6.5 2.65l-1.65 0.95-0.55 0.4q-2.3 1.6-3.45 3.5-14.3-5.1-14.55-34.7l0.05-0.5q-0.75-14.05-0.25-31.8l-0.1-1 0.55-29.15-0.05-0.65q-0.9-5.65-4.9-11.5m29.5-13.5q2.25 2.65 3.6 5.85l0.2 0.6 6.35 27.15 0.3 0.9q3.7 16.6 7.65 29.45l0.1 0.5q6.4 24.45 24.6 34.3l4.2 2-4.2 0.15-3.2 0.4q-2.4 0.4-3.7 1.15l-2 1.1-2.25 1.15m-50.85-94.3q3.75 4.75 4.95 10.35l0.85 7.9 0.3 21.9 0.7 6.15 0.4 3.5q1.05 9.15 2.4 16.35t5.65 19.15q3.65 10.1 11.9 15.6l0.65 0.4 2 1.2 0.35 0.15" fill="none" stroke="#510000" stroke-linecap="round" stroke-linejoin="round" stroke-opacity=".4902" stroke-width=".05"/>
<path d="m-108.35-52.95 0.45-0.1 2.5-0.65q3.8-1.1 7.35-2.35m10.35-4.65q4.8-2.6 8.85-5.75" fill="none" stroke="#000" stroke-linecap="round" stroke-linejoin="round" stroke-width=".05"/>
<path d="m-73.95-64.1 0.15 0.2-0.3 0.8 0.15-1" fill="#fff" fill-rule="evenodd"/>
<path d="m-73.95-64.1 0.15 0.2-0.3 0.8" fill="none" stroke="#000" stroke-linecap="round" stroke-linejoin="round" stroke-width=".05"/>
<path d="m-83.4-71.9q0.05-2.25 1.75-3.4l2.65-0.15q0.9 0.1 1.6 1.5l-0.15 1.25 2.1 0.15 0.9 1.25-0.35 1.3 1.4 1.4-0.5 2.1-1.1 1 1.15 1.4-0.15 1-0.6 1.3-2.1 0.05-1.2 1.8-2.45-0.9-1.25 1.35-1.2-0.15q0.2 1.15-0.25 2.45-0.5 1-2.35 1.3l-2.25-0.85q0.15 1.4-1.1 2.35-2 0.8-3.6-0.35l-0.45-1.15-2.3 0.75-2-0.7-0.3 1.2-1.55 1.25 0.55 0.7-0.3 1.95-2.25 1.4-3.7-0.2-0.75-1.3q-0.8 2.15-2.5 3-1.35 0.2-2.55-0.35-1.95-1.4-1.9-3.25l-1.8 0.5-1.55-2.1 1-2.4-1.6-0.3q0.7-3.9 1.25-4.9l1.2-2.1 2.9 0.5 0.25-3.55 2.7-1.9q2.65-0.5 4.95 1.1 0.2-2 2.25-2.9l1.5 0.25 0.1 0.15 0.05-0.1 1.8-2.45 2.15 0.6 0.05 0.1 0.55 1.85 1.1-1.25 1.3 0.85q0.45-2.1 1.4-3.5 2.25-0.65 3.6 0.8l0.6 2.25 0.8-1.2 2.25-0.65h0.05l0.2-0.1m5.35 3.65 0.55-0.95-0.55-1.55-2.25-0.4-0.95 1.1 0.95-1.1 2.25 0.4 0.55 1.55-0.55 0.95m-4.75-1.6-0.8-1.95 0.8 1.95m-0.6 7.5 0.5 2.7-0.5-2.7m5.45-9.15 0.4-1.2-0.4 1.2m2.85 6-1.15-1.4 1.15 1.4m0-3.5 0.2-1-0.2 1m-5.55 5.4 0.95 1.9-0.75 0.85 0.75-0.85-0.95-1.9m-17.2-3.6-0.15 0.05 0.15-0.05q0.8-0.35 1.2 1-0.4-1.35-1.2-1m-10.85 2.95-0.6 2.4 0.6-2.4 0.05-0.15 2.1-0.75 1.45 1.2 2.05-0.6-2.05 0.6-1.45-1.2-2.1 0.75-0.05 0.15m16.4-5.25-0.8 1.9 0.8-1.9m-2.2 1.15-0.2-0.75 0.2 0.75m6.9-0.3 0.9-1.3-0.9 1.3m-11.8 2.85q0.35-1.5 1.4-1.35l-1.3-1.95 1.3 1.95q-1.05-0.15-1.4 1.35m-13.6 10.65-1.8-0.3 1.8 0.3 1.35-2.3-1.35 2.3m1.95-7.1 1.75 0.4-1.75-0.4m12.45 5.6 1.3 0.45-1.3-0.45m5.7 0.75-0.5-1.35 0.5 1.35m6.9-4.6-1 1.85-2.65 0.3-1.35-1 1.35 1 2.65-0.3 1-1.85m-21.45 6.6-1.5 1.4-1.85-1.15 0.3-1.55-0.3 1.55 1.85 1.15 1.5-1.4m-3.7 2.1-1.3 0.35 1.3-0.35m13.85-4.4 0.1 0.35-0.1-0.35-0.2-1 0.2 1m-3.9 1.35 2.15 1.45-2.15-1.45m-4.3 4-0.2-3 0.2 3" fill="#fff" fill-rule="evenodd"/>
<path d="m-83.6-71.8 0.8 1.95m1.55-0.2 0.95-1.1 2.25 0.4 0.55 1.55-0.55 0.95m-2.4 7.4 0.75-0.85-0.95-1.9m5.75-6.4-0.2 1m-1.15 2.1 1.15 1.4m-2.45-7.2-0.4 1.2m-4.95 11.85-0.5-2.7m-14.45-4.85q0.8-0.35 1.2 1m-2.65-2.9 1.3 1.95q-1.05-0.15-1.4 1.35m-9.25 1.4 2.1-0.75 1.45 1.2 2.05-0.6m16.35-5.4-0.9 1.3m-7.1-0.45 0.2 0.75m1.4 0.75 0.8-1.9m-17 7.65 0.6-2.4m-4.3 9.1 1.35-2.3m-0.8 6 1.3-0.35m0.65-3.4-0.3 1.55 1.85 1.15 1.5-1.4m16.45-5.45 1.35 1 2.65-0.3 1-1.85m-7.4 3.25 0.5 1.35m-4.4-0.3-1.3-0.45m1.3 0.45-0.2-1m-8.2 3.35 0.2 3m6.45-2.55-2.15-1.45" fill="none" stroke="#000" stroke-linecap="round" stroke-linejoin="round" stroke-opacity=".2" stroke-width=".05"/>
<path d="m-83.4-71.9q0.05-2.25 1.75-3.4l2.65-0.15q0.9 0.1 1.6 1.5l-0.15 1.25 2.1 0.15 0.9 1.25-0.35 1.3 1.4 1.4-0.5 2.1-1.1 1 1.15 1.4m-0.15 1-0.6 1.3-2.1 0.05-1.2 1.8-2.45-0.9-1.25 1.35-1.2-0.15q0.2 1.15-0.25 2.45-0.5 1-2.35 1.3l-2.25-0.85q0.15 1.4-1.1 2.35-2 0.8-3.6-0.35l-0.45-1.15-2.3 0.75-2-0.7-0.3 1.2-1.55 1.25 0.55 0.7-0.3 1.95-2.25 1.4-3.7-0.2-0.75-1.3q-0.8 2.15-2.5 3-1.35 0.2-2.55-0.35-1.95-1.4-1.9-3.25l-1.8 0.5-1.55-2.1 1-2.4-1.6-0.3q0.7-3.9 1.25-4.9l1.2-2.1 2.9 0.5 0.25-3.55 2.7-1.9q2.65-0.5 4.95 1.1 0.2-2 2.25-2.9l1.5 0.25 0.15 0.05 1.8-2.45 2.15 0.6 0.05 0.1 0.55 1.85 1.1-1.25 1.3 0.85q0.45-2.1 1.4-3.5 2.25-0.65 3.6 0.8l0.6 2.25 0.8-1.2 2.25-0.65 0.25-0.1m-0.25 0.1h0.05m-15.8 2.55 0.1 0.15 0.05-0.1m1.25 2.05 0.15-0.05m-10.85 2.95 0.05-0.15m-0.65 2.55-1.75-0.4m-3.75 6.8 1.8 0.3m15.8-0.7-0.1-0.35" fill="none" stroke="#000" stroke-linecap="round" stroke-linejoin="round" stroke-opacity=".4" stroke-width=".05"/>
</g>
</defs>
</svg>
