<?xml version="1.0" encoding="UTF-8" standalone="no"?>
<svg xmlns:xlink="http://www.w3.org/1999/xlink" height="168.0px" width="184.0px" xmlns="http://www.w3.org/2000/svg">
  <g transform="matrix(10.0, 0.0, 0.0, 10.0, 74.0, 104.0)">
    <path d="M6.55 1.35 L6.7 1.6 6.4 2.7 5.7 3.9 5.4 4.2 Q6.25 1.2 6.55 1.35" fill="#b9493e" fill-rule="evenodd" stroke="none"/>
    <path d="M5.4 4.2 L5.25 4.4 3.45 6.05 1.8 6.35 3.1 5.5 3.15 5.4 3.25 5.35 3.35 5.3 3.4 5.25 5.2 3.4 5.85 1.35 5.2 3.4 3.4 5.25 4.55 3.6 Q5.3 2.55 5.15 1.9 L4.5 1.15 4.55 0.2 4.65 0.25 Q5.75 0.95 5.85 1.35 6.3 1.1 6.55 1.35 6.25 1.2 5.4 4.2 M4.0 2.1 Q4.85 2.1 4.35 2.75 3.95 3.75 2.7 4.75 L4.0 2.1" fill="#54201b" fill-rule="evenodd" stroke="none"/>
    <path d="M1.8 6.35 L2.7 4.75 2.95 3.9 4.0 2.1 4.5 1.15 5.15 1.9 Q5.3 2.55 4.55 3.6 L3.4 5.25 3.35 5.3 3.25 5.35 3.15 5.4 3.1 5.5 1.8 6.35 M4.0 2.1 L2.7 4.75 Q3.95 3.75 4.35 2.75 4.85 2.1 4.0 2.1" fill="#732e26" fill-rule="evenodd" stroke="none"/>
    <path d="M6.55 1.35 L6.7 1.6 6.4 2.7 5.7 3.9 5.4 4.2 5.25 4.4 3.45 6.05 1.8 6.35 2.7 4.75 2.95 3.9 2.95 3.6 2.95 2.7 2.65 2.0 M6.55 1.35 Q6.3 1.1 5.85 1.35 L5.2 3.4 3.4 5.25 3.35 5.3 3.25 5.35 3.15 5.4 3.1 5.5 M4.55 0.2 L4.65 0.25 Q5.75 0.95 5.85 1.35" fill="none" stroke="#000000" stroke-linecap="round" stroke-linejoin="round" stroke-opacity="0.29803923" stroke-width="0.05"/>
    <path d="M-5.15 -0.8 L-4.35 -0.2 -4.1 -0.5 -3.9 -0.45 Q-3.75 -0.4 -3.7 0.45 -4.1 0.5 -3.95 1.65 L-3.5 3.7 -3.45 3.75 -2.45 5.4 Q-3.2 4.95 -3.95 3.75 L-5.1 1.25 -5.25 -0.5 -5.15 -0.8 M-4.35 -0.2 Q-4.65 0.35 -4.55 0.95 L-3.5 3.7 -4.55 0.95 Q-4.65 0.35 -4.35 -0.2" fill="#54201b" fill-rule="evenodd" stroke="none"/>
    <path d="M-5.15 -0.8 L-4.9 -1.1 -4.1 -0.5 -4.35 -0.2 -5.15 -0.8" fill="#b9493e" fill-rule="evenodd" stroke="none"/>
    <path d="M-3.7 0.45 L-3.65 1.6 -3.3 2.35 -3.0 2.9 -2.95 3.0 -2.6 3.9 -2.45 5.4 -3.45 3.75 -3.5 3.7 -3.95 1.65 Q-4.1 0.5 -3.7 0.45" fill="#732e26" fill-rule="evenodd" stroke="none"/>
    <path d="M-4.1 -0.5 L-4.9 -1.1 -5.15 -0.8 -5.25 -0.5 -5.1 1.25 -3.95 3.75 Q-3.2 4.95 -2.45 5.4 L-2.6 3.9 M-4.35 -0.2 L-4.1 -0.5 -3.9 -0.45 Q-3.75 -0.4 -3.7 0.45 L-3.65 1.6 M-3.5 3.7 L-3.45 3.75 M-3.5 3.7 L-4.55 0.95 Q-4.65 0.35 -4.35 -0.2" fill="none" stroke="#000000" stroke-linecap="round" stroke-linejoin="round" stroke-opacity="0.29803923" stroke-width="0.05"/>
    <path d="M4.25 -3.15 L5.45 -5.25 Q6.7 -6.4 7.15 -6.4 7.1 -7.05 7.5 -7.35 7.15 -6.95 9.95 -4.4 L10.05 -4.1 11.0 -0.85 Q11.1 0.8 10.55 1.5 L10.3 -0.7 10.25 -0.8 10.2 -0.95 8.95 -3.55 Q8.15 -5.05 7.4 -5.1 6.7 -5.15 6.1 -4.25 5.45 -3.4 4.25 -3.15 M7.15 -6.4 Q8.3 -5.7 8.95 -4.45 9.55 -3.45 10.2 -0.95 9.55 -3.45 8.95 -4.45 8.3 -5.7 7.15 -6.4 M9.35 -0.55 Q8.05 -2.8 6.9 -2.45 7.3 -4.95 8.05 -3.7 8.8 -2.65 9.35 -0.55" fill="#54201b" fill-rule="evenodd" stroke="none"/>
    <path d="M7.5 -7.35 L7.75 -7.4 8.75 -6.45 9.7 -5.0 9.95 -4.4 Q7.15 -6.95 7.5 -7.35" fill="#b9493e" fill-rule="evenodd" stroke="none"/>
    <path d="M10.55 1.5 L9.35 -0.55 8.25 -1.45 7.25 -1.8 6.0 -1.7 Q6.4 -3.5 4.25 -3.15 5.45 -3.4 6.1 -4.25 6.7 -5.15 7.4 -5.1 8.15 -5.05 8.95 -3.55 L10.2 -0.95 10.25 -0.8 10.3 -0.7 10.55 1.5 M9.35 -0.55 Q8.8 -2.65 8.05 -3.7 7.3 -4.95 6.9 -2.45 8.05 -2.8 9.35 -0.55" fill="#732e26" fill-rule="evenodd" stroke="none"/>
    <path d="M4.25 -3.15 L5.45 -5.25 Q6.7 -6.4 7.15 -6.4 7.1 -7.05 7.5 -7.35 L7.75 -7.4 8.75 -6.45 9.7 -5.0 9.95 -4.4 10.05 -4.1 11.0 -0.85 Q11.1 0.8 10.55 1.5 L9.35 -0.55 8.25 -1.45 7.25 -1.8 6.0 -1.7 Q6.4 -3.5 4.25 -3.15 M10.2 -0.95 Q9.55 -3.45 8.95 -4.45 8.3 -5.7 7.15 -6.4 M10.3 -0.7 L10.25 -0.8 10.2 -0.95" fill="none" stroke="#000000" stroke-linecap="round" stroke-linejoin="round" stroke-opacity="0.29803923" stroke-width="0.05"/>
    <path d="M-3.95 -10.35 L-3.65 -9.25 -3.2 -9.2 -3.0 -8.95 -2.05 -7.05 -1.55 -4.4 -1.6 -4.45 Q-2.45 -5.4 -2.8 -6.6 -3.2 -7.85 -3.7 -8.2 -4.15 -8.6 -5.15 -7.75 L-6.7 -6.05 -4.95 -8.7 Q-4.45 -9.15 -3.65 -9.25 -4.45 -9.15 -4.95 -8.7 L-6.7 -6.05 -6.7 -5.95 -7.25 -4.05 Q-7.6 -5.05 -7.1 -6.4 L-5.9 -8.95 -4.35 -10.2 Q-4.1 -10.3 -3.95 -10.35 M-5.95 -5.15 Q-5.2 -6.75 -4.35 -7.25 -3.55 -7.9 -3.7 -5.4 -4.65 -6.5 -5.95 -5.15" fill="#54201b" fill-rule="evenodd" stroke="none"/>
    <path d="M-3.95 -10.35 L-3.3 -10.25 -3.2 -9.2 -3.65 -9.25 -3.95 -10.35" fill="#b9493e" fill-rule="evenodd" stroke="none"/>
    <path d="M-1.6 -4.45 Q-3.2 -6.1 -3.2 -4.1 L-4.05 -5.0 -5.0 -5.35 -5.95 -5.15 -7.25 -4.05 -6.7 -5.95 -6.7 -6.05 -5.15 -7.75 Q-4.15 -8.6 -3.7 -8.2 -3.2 -7.85 -2.8 -6.6 -2.45 -5.4 -1.6 -4.45 M-5.95 -5.15 Q-4.65 -6.5 -3.7 -5.4 -3.55 -7.9 -4.35 -7.25 -5.2 -6.75 -5.95 -5.15" fill="#732e26" fill-rule="evenodd" stroke="none"/>
    <path d="M-3.2 -9.2 L-3.3 -10.25 -3.95 -10.35 Q-4.1 -10.3 -4.35 -10.2 L-5.9 -8.95 -7.1 -6.4 Q-7.6 -5.05 -7.25 -4.05 L-5.95 -5.15 -5.0 -5.35 -4.05 -5.0 -3.2 -4.1 Q-3.2 -6.1 -1.6 -4.45 L-1.55 -4.4 -2.05 -7.05 -3.0 -8.95 -3.2 -9.2 -3.65 -9.25 Q-4.45 -9.15 -4.95 -8.7 L-6.7 -6.05 -6.7 -5.95" fill="none" stroke="#000000" stroke-linecap="round" stroke-linejoin="round" stroke-opacity="0.29803923" stroke-width="0.05"/>
    <path d="M3.3 -5.05 L2.9 -4.55 Q1.9 -5.65 0.7 -6.0 -1.05 -6.4 -2.4 -5.05 -3.45 -4.0 -3.85 -2.3 L-4.0 -1.3 Q-4.15 0.75 -3.2 2.45 L-3.15 2.5 -3.15 2.55 -3.05 2.7 -2.95 2.85 -2.9 2.9 Q-1.9 4.7 -0.2 5.15 1.05 5.45 2.1 4.85 L2.6 5.15 Q1.45 5.8 0.05 5.5 -1.85 5.05 -3.05 3.0 -4.35 1.0 -4.15 -1.6 -3.9 -4.0 -2.4 -5.4 -0.9 -6.85 1.0 -6.4 2.3 -6.15 3.3 -5.05 M4.2 -2.25 L4.9 -2.45 Q5.4 -1.0 5.25 0.6 5.15 2.7 3.95 4.05 L3.05 4.05 Q4.35 2.75 4.5 0.55 4.65 -0.9 4.2 -2.25" fill="#732e26" fill-rule="evenodd" stroke="none"/>
    <path d="M2.9 -4.55 L3.3 -5.05 4.1 -3.95 4.9 -2.45 4.2 -2.25 3.5 -3.65 2.9 -4.55 M2.6 5.15 L2.1 4.85 2.9 4.25 3.05 4.05 3.95 4.05 3.45 4.55 2.6 5.15" fill="#b9493e" fill-rule="evenodd" stroke="none"/>
    <path d="M2.1 4.85 Q1.05 5.45 -0.2 5.15 -1.9 4.7 -2.9 2.9 -1.9 4.45 -0.4 4.85 1.3 5.15 2.6 3.95 4.05 2.75 4.1 0.55 4.35 -1.6 3.15 -3.35 2.1 -5.15 0.5 -5.5 -1.2 -5.9 -2.5 -4.65 -3.45 -3.75 -3.85 -2.3 -3.45 -4.0 -2.4 -5.05 -1.05 -6.4 0.7 -6.0 1.9 -5.65 2.9 -4.55 L3.5 -3.65 4.2 -2.25 Q4.65 -0.9 4.5 0.55 4.35 2.75 3.05 4.05 L2.9 4.25 2.1 4.85" fill="#481914" fill-rule="evenodd" stroke="none"/>
    <path d="M-2.9 2.9 L-2.95 2.85 -3.05 2.7 -3.15 2.55 -3.15 2.5 -3.2 2.45 Q-4.15 0.75 -4.0 -1.3 L-3.85 -2.3 Q-3.45 -3.75 -2.5 -4.65 -1.2 -5.9 0.5 -5.5 2.1 -5.15 3.15 -3.35 4.35 -1.6 4.1 0.55 4.05 2.75 2.6 3.95 1.3 5.15 -0.4 4.85 -1.9 4.45 -2.9 2.9" fill="url(#gradient0)" fill-rule="evenodd" stroke="none"/>
    <path d="M3.3 -5.05 Q2.3 -6.15 1.0 -6.4 -0.9 -6.85 -2.4 -5.4 -3.9 -4.0 -4.15 -1.6 -4.35 1.0 -3.05 3.0 -1.85 5.05 0.05 5.5 1.45 5.8 2.6 5.15 L3.45 4.55 3.95 4.05 Q5.15 2.7 5.25 0.6 5.4 -1.0 4.9 -2.45 L4.1 -3.95 3.3 -5.05 M-2.9 2.9 L-2.95 2.85 -3.05 2.7 -3.15 2.55 -3.15 2.5 -3.2 2.45 M-3.85 -2.3 Q-3.45 -3.75 -2.5 -4.65 -1.2 -5.9 0.5 -5.5 2.1 -5.15 3.15 -3.35 4.35 -1.6 4.1 0.55 4.05 2.75 2.6 3.95 1.3 5.15 -0.4 4.85 -1.9 4.45 -2.9 2.9" fill="none" stroke="#000000" stroke-linecap="round" stroke-linejoin="round" stroke-opacity="0.29803923" stroke-width="0.05"/>
    <path d="M0.15 -4.25 L1.5 -3.9 Q2.2 -3.5 3.0 -1.95 3.55 -0.3 3.3 1.15 3.1 2.5 2.0 3.35 L1.4 3.6 0.5 3.85 Q-0.9 3.9 -1.8 2.9 -2.8 1.85 -3.1 0.15 -3.4 -1.65 -3.0 -2.35 L-2.0 -3.5 -0.9 -4.25 0.15 -4.25" fill="url(#gradient1)" fill-rule="evenodd" stroke="none"/>
    <path d="M-3.2 1.65 L-3.55 0.2 -2.45 1.45 Q-1.4 2.5 -1.6 2.8 -1.9 3.1 -2.35 2.8 -2.85 2.5 -3.2 1.65" fill="#e1fffc" fill-opacity="0.36078432" fill-rule="evenodd" stroke="none"/>
    <path d="M-2.0 -2.0 L-2.0 -2.1 -2.0 -2.2 -2.15 -2.15 -2.25 -2.05 -2.25 -1.85 -2.15 -1.85 -2.0 -1.9 -2.0 -2.0 M-2.15 -2.3 L-1.75 -2.3 Q-1.55 -2.3 -1.5 -1.95 -1.4 -1.7 -1.55 -1.4 -1.65 -1.1 -1.85 -1.1 L-2.15 -1.05 -2.5 -1.4 -2.4 -1.95 -2.15 -2.3" fill="#88ddd3" fill-opacity="0.6509804" fill-rule="evenodd" stroke="none"/>
    <path d="M-2.0 -2.0 L-2.0 -1.9 -2.15 -1.85 -2.25 -1.85 -2.25 -2.05 -2.15 -2.15 -2.0 -2.2 -2.0 -2.1 -2.0 -2.0" fill="#ccfffa" fill-rule="evenodd" stroke="none"/>
    <path d="M1.7 0.55 L1.6 0.5 1.45 0.6 1.45 0.7 1.45 0.85 1.5 0.85 1.6 0.8 1.7 0.65 1.7 0.55 M2.15 0.45 L2.2 1.0 1.95 1.55 Q1.75 1.85 1.35 1.85 L1.0 1.8 0.85 1.3 1.2 0.65 1.7 0.3 Q2.0 0.25 2.15 0.45" fill="#88ddd3" fill-opacity="0.6509804" fill-rule="evenodd" stroke="none"/>
    <path d="M1.7 0.55 L1.7 0.65 1.6 0.8 1.5 0.85 1.45 0.85 1.45 0.7 1.45 0.6 1.6 0.5 1.7 0.55" fill="#ccfffa" fill-rule="evenodd" stroke="none"/>
  </g>
  <defs>
    <linearGradient gradientTransform="matrix(-0.0036, 0.0036, -0.0056, -0.0032, -0.45, 1.0)" gradientUnits="userSpaceOnUse" id="gradient0" spreadMethod="pad" x1="-819.2" x2="819.2">
      <stop offset="0.0" stop-color="#30ad9e"/>
      <stop offset="1.0" stop-color="#30ada0" stop-opacity="0.011764706"/>
      <stop offset="1.0" stop-color="#30ada0" stop-opacity="0.023529412"/>
    </linearGradient>
    <linearGradient gradientTransform="matrix(-0.0065, -0.0044, 0.0047, -4.0E-4, -0.45, -0.2)" gradientUnits="userSpaceOnUse" id="gradient1" spreadMethod="pad" x1="-819.2" x2="819.2">
      <stop offset="0.0" stop-color="#247d62"/>
      <stop offset="1.0" stop-color="#24755c" stop-opacity="0.011764706"/>
      <stop offset="1.0" stop-color="#30ada0" stop-opacity="0.023529412"/>
    </linearGradient>
  </defs>
</svg>
