<?xml version="1.0" encoding="UTF-8"?>
<svg version="1.1" viewBox="0 0 113.06 104.45" xmlns="http://www.w3.org/2000/svg" xmlns:cc="http://creativecommons.org/ns#" xmlns:dc="http://purl.org/dc/elements/1.1/" xmlns:rdf="http://www.w3.org/1999/02/22-rdf-syntax-ns#" xmlns:xlink="http://www.w3.org/1999/xlink">
<metadata>
<rdf:RDF>
<cc:Work rdf:about="">
<dc:format>image/svg+xml</dc:format>
<dc:type rdf:resource="http://purl.org/dc/dcmitype/StillImage"/>
</cc:Work>
</rdf:RDF>
</metadata>
<g transform="translate(-218.95 -148.25)">
<use transform="matrix(.7814 0 0 .2549 224.45 214.7)" width="123.5" height="123.5" xlink:href="#b"/>
<use transform="translate(218.95,150.25)" width="66.75" height="86.449997" xlink:href="#a"/>
<use transform="translate(250.3,148.25)" width="81.699997" height="104.45" xlink:href="#c"/>
</g>
<defs>
<g id="b">
<use width="123.5" height="123.5" xlink:href="#e"/>
</g>
<g id="e">
<path d="m123.5 61.75q0 25.6-18.1 43.65-18.05 18.1-43.65 18.1t-43.7-18.1q-18.05-18.05-18.05-43.65t18.05-43.7q18.1-18.05 43.7-18.05t43.65 18.05q18.1 18.1 18.1 43.7" fill-opacity=".39608" fill-rule="evenodd"/>
</g>
<g id="a" transform="translate(.5 .5)">
<use transform="translate(-.5 -.5)" width="66.75" height="86.449997" xlink:href="#d"/>
</g>
<g id="d" transform="translate(.5 .5)">
<path d="m34.9 48.95-5.9-22.25-2-2.15 0.15-0.2 2.7-0.05 1.15 1.65 6.15 22.8-2.25 0.25v-0.05m-3.75-28-2.2-8.65-0.7-3.1-0.35-1.65 1.35-1.5 0.65-0.1 3.75 15h-2.5" fill="#494900" fill-rule="evenodd"/>
<path d="m26.1 11.1-0.6-0.6q-1.6-1.8-1.6-4.35 0.6-0.35 1.35-2.5 0.9-2.55 3.85-2.55l1.3 0.2 1.05 0.15 0.95-0.3 0.05-0.05 0.75 0.7 1.15 1.8-2.35 0.45-0.2-0.25-0.05-0.05q-0.85-1-2.1-1t-2.15 1q-0.85 1-0.85 2.4 0 0.7 0.25 1.3-0.6 1.35-0.8 3.65m18 24.15-0.1-0.15 0.55-1.7q1.35 1.1 1.9 2.55 0.7 1.75-0.15 3-0.85 1.3-2.7 1.3-1.9 0-3.75-1.3-1.85-1.25-2.55-3-0.4-1-0.3-1.8l2.1 0.75 0.15 1q0.4 1.05 1.4 1.75 1.05 0.7 2.15 0.7t1.55-0.7q0.5-0.7 0.1-1.75l-0.35-0.65m-13.65 11.05q1.05 0.15 1.9 0.85l-1.75 1.9-0.9-0.15q-1.05 0-1.8 0.75t-0.75 1.8 0.75 1.8l0.45 0.35 0.8 0.35-1.05 2.3-1.75-1.2q-0.6-0.65-0.9-1.45l-0.3-0.85 0.6 0.1h0.9l-0.25-1.4q0-1.7 1.25-3.25l1.9-1.05 0.9-0.85m-26.5 35.1-0.45 0.45q-3.9 1.05-3.45-1.75h0.65q1.6 0 3-2.25l1.3-2.5 1.4-2.05 0.6-0.9q1.65-2.6 1.65-3.55l-0.05-0.8 1.95-1.65-0.4 1.55 0.2 2q-2.05 2.3-3.95 5.4l-2.35 4.15-0.15 1.2 0.05 0.7" fill="#845d02" fill-rule="evenodd"/>
<path d="m28.95 12.3q-1.65-0.15-2.85-1.2 0.2-2.3 0.8-3.65l0.6 1.1 0.75 0.65 0.7 3.1m5.4-8.7 0.4 1.7 0.05 0.85v0.6l-2.15-0.2v-0.4l-0.05-0.65-0.6-1.45 2.35-0.45m3.35 29.05 1.85 1.25-0.25 0.25-0.2 0.75-2.1-0.75q0.05-0.7 0.45-1.25l0.25-0.25m6.85 0.75-0.55 1.7-0.95-0.9 0.2-1.7 0.65 0.4 0.65 0.5m-12.2 13.75 0.65 0.6 1.05 1.7-1.95 1.1-0.6-0.9-0.9-0.6 1.75-1.9m-21.85 23.95q-1.7 4-4.1 7.3l-2.45 3-0.05-0.7 0.15-1.2 2.35-4.15q1.9-3.1 3.95-5.4l0.15 1.15" fill="#6c4c01" fill-rule="evenodd"/>
<path d="m23.9 6.15q0-2.55 1.6-4.35t3.85-1.8q1.75 0 3.1 1.1l-0.05 0.05-0.95 0.3-1.05-0.15-1.3-0.2q-2.95 0-3.85 2.55-0.75 2.15-1.35 2.5m1.25 46.6-0.15-1.35q0-2.15 1.35-3.65 1.4-1.5 3.35-1.5l0.75 0.05-0.9 0.85-1.9 1.05q-1.25 1.55-1.25 3.25l0.25 1.4h-0.9l-0.6-0.1m-25.1 27.35 0.05-0.4 6.65-10.1 1.85-1.55 0.05 0.8q0 0.95-1.65 3.55l-0.6 0.9-1.4 2.05-1.3 2.5q-1.4 2.25-3 2.25h-0.65" fill="#a17102" fill-rule="evenodd"/>
<path d="m37.15 48.75-6.15-22.8-1.15-1.65 1.45-0.05-0.05 0.15 0.85 1.5q0.85 1.55 0.8 2.7-0.05 0.9 0.4 1.4 0.4 0.5 1.7 0.8l0.75 0.5q-0.4 0.5-0.7 1.25-0.3 0.85-0.3 1.65l0.05 0.85 0.35 1.3q0.15 0.5 1.75 2.05 0 1 1 4.3 1 3.45 1.1 5.15l1.2 0.15 1.3 0.3q2.15 0.55 2.15 1.7 0 1.4-2 3.6l-0.9 0.9q-2.65 2.6-3.55 2.9l-1.5-0.2q2.55 1.2 2.55 3.05 0 2.6-4 2.6l-2.3-0.6 1.15 1.65q0.55 1.2 0.55 2.15 0 2.4-3 4.8-4.2 3.35-11.95 3.35l-4.85-0.85-3.25-1.05-0.1-1.2-0.15-1.15-0.2-2 0.4-1.55 0.35-0.9q6.7-3.95 18.6-3.8l-2.7-0.5q2.45-2.85 7.2-4.1-1.65-0.1-3.25 0.05 0.4-1.85 1.55-3.55 1.65-2.5 4.85-4.75v-0.1m-2.4-43.45h3l8.6 4.95 0.45 0.45-0.85 0.25q-1.25 0-4-1.8-2.65-1.8-3.65-1.8h-0.05v0.1q-0.1 1.25-2.2 1.3l-3.4-0.3 0.55 3.65q0.8 3.5 2.85 9.05l-2.4-0.15v-0.05l-3.75-15 2.7-0.45 0.05 0.65v0.4l2.15 0.2v-0.6l-0.05-0.85m2 1.65-1.95-0.2 1.95 0.2m-4.1-0.4-0.75-0.1 0.75 0.1m8.1 25.15q-0.6 0-2.55-1.2-2.1-1.25-3.05-1.4h-0.9q0.25-0.85 0.6-1.2 0.35-0.45 0.85-0.45l3.05 0.5q2.15 0.75 2.15 2.5l-0.15 1.25m-6.25 25.4h-0.5 0.5m-3.15 5-1.85-0.4 1.85 0.4" fill="#854300" fill-rule="evenodd"/>
<path d="m38.25 7.45 0.05-0.1q1 0 3.65 1.8 2.75 1.8 4 1.8l0.85-0.25 6.45 6.75 10.6 39.25-18.9 21.65-19.8 1.45-15.9-2.95 1.35-4.5v-0.05l3.25 1.05 4.85 0.85q7.75 0 11.95-3.35 3-2.4 3-4.8 0-0.95-0.55-2.15l-1.15-1.65 2.3 0.6q4 0 4-2.6 0-1.85-2.55-3.05l1.5 0.2q0.9-0.3 3.55-2.9l0.9-0.9q2-2.2 2-3.6 0-1.15-2.15-1.7l-1.3-0.3-1.2-0.15q-0.1-1.7-1.1-5.15-1-3.3-1-4.3-1.6-1.55-1.75-2.05l-0.35-1.3-0.05-0.85q0-0.8 0.3-1.65 0.3-0.75 0.7-1.25l-0.75-0.5q-1.3-0.3-1.7-0.8-0.45-0.5-0.4-1.4 0.05-1.15-0.8-2.7l-0.85-1.5 0.05-0.15 0.3-0.3 2.35-0.35 2.15 0.2 0.8 0.15v-0.5l-0.85-2.3q-2.05-5.55-2.85-9.05l-0.55-3.65 3.4 0.3q2.1-0.05 2.2-1.3m5.15 23.85-0.15 1.2 0.15-1.2m-2.65 0.4 0.15-1.25q0-1.75-2.15-2.5l-3.05-0.5q-0.5 0-0.85 0.45-0.35 0.35-0.6 1.2h0.9q0.95 0.15 3.05 1.4 1.95 1.2 2.55 1.2m-3.05 0.95-1.95-1.35 1.95 1.35-0.25 0.25q-0.4 0.55-0.45 1.25-0.1 0.8 0.3 1.8 0.7 1.75 2.55 3 1.85 1.3 3.75 1.3 1.85 0 2.7-1.3 0.85-1.25 0.15-3-0.55-1.45-1.9-2.55l-0.65-0.5-0.65-0.4-0.2 1.7 0.95 0.9 0.1 0.15 0.35 0.65q0.4 1.05-0.1 1.75-0.45 0.7-1.55 0.7t-2.15-0.7q-1-0.7-1.4-1.75l-0.15-1 0.2-0.75 0.25-0.25-1.85-1.25m3.05 2.05-1.2-0.8 1.2 0.8m2.15 0.85 0.15-1.35-0.15 1.35m-4.65 22-1.05-0.15 1.05 0.15m2.4 7.3-6.4-2 6.4 2" fill="#422100" fill-rule="evenodd"/>
<path d="m30.05 20.95h3.35l0.25 0.05 2.4 0.15 0.85 2.3v0.5l-0.8-0.15-2.15-0.2-2.35 0.35-0.3 0.3-1.45 0.05-0.7-0.95 0.9-2.4" fill="#a35201" fill-rule="evenodd"/>
<path d="m34.9 49 2.25-0.25v0.1q-3.2 2.25-4.85 4.75-1.15 1.7-1.55 3.55 1.6-0.15 3.25-0.05-4.75 1.25-7.2 4.1l2.7 0.5q-11.9-0.15-18.6 3.8 1.2-2.9 4.1-5.2h6l0.4 0.05v-0.05l6.1-2.75 0.6-1.3 1.05-2.3 1.1-2.4 1.85-1 1.95-1.1 0.75-0.45h0.1m-5.05-24.7-2.7 0.05 1.85-3.4h1.05l-0.9 2.4 0.7 0.95m0.9 32.85-3.25 0.4 3.25-0.4m-3.95 4.05-5.4-0.85 5.4 0.85" fill="#797800" fill-rule="evenodd"/>
<path d="m44.95 78.35-5.7 6.5-16.25 0.6-10-1.75-1.4-4.1-2.35-2.75 15.9 2.95 19.8-1.45" fill="#302f00" fill-rule="evenodd"/>
<path d="m27.15 24.35-0.15 0.2 2 2.15 5.9 22.25m2.25-0.2-6.15-22.8-1.15-1.65m-2.7 0.05 1.85-3.4h2.15l-2.2-8.65q-1.65-0.15-2.85-1.2l-0.6-0.6q-1.6-1.8-1.6-4.35t1.6-4.35 3.85-1.8q1.75 0 3.1 1.1l0.75 0.7 1.15 1.8 0.4 1.7h3l8.6 4.95 2.3 1.3m-21.75-4.1q-0.25-0.6-0.25-1.3 0-1.4 0.85-2.4 0.9-1 2.15-1t2.1 1l0.05 0.05m15 6.9-0.45-0.45m-16.45-4.3-0.65 0.1-1.35 1.5 0.35 1.65 0.7 3.1m5.85-5.55 1.95 0.2m-4.15-1.45 0.05 0.65v0.4l2.15 0.2v-0.6l-0.05-0.85m-2.85 1.15 0.75 0.1m-0.05-1.05-2.7 0.45 3.75 15m-1.65-16.9 0.6 1.45m-4.35 3.7-0.75-0.65-0.6-1.1m16.35 25.05 0.15-1.2m-10-10.35h0.25m1.35 9.85 0.75 0.5 1.95 1.35 1.85 1.25 1.2 0.8m-10.7-13.75-0.9 2.4 0.7 0.95m1.3-3.35h2.25m10.7 14.3 0.35 0.65q0.4 1.05-0.1 1.75-0.45 0.7-1.55 0.7t-2.15-0.7q-1-0.7-1.4-1.75l-0.15-1m-2.1-0.75q-0.1 0.8 0.3 1.8 0.7 1.75 2.55 3 1.85 1.3 3.75 1.3 1.85 0 2.7-1.3 0.85-1.25 0.15-3-0.55-1.45-1.9-2.55m-0.55 1.7-0.95-0.9-0.15 1.35m0.35-3.05 0.65 0.4 0.65 0.5m-5 0.5-0.25 0.25-0.2 0.75m-1.4-2.25-0.25 0.25q-0.4 0.55-0.45 1.25m6.05 0.05 0.2-1.7m1.7 45.85 18.9-21.65-10.6-39.25-6.45-6.75m-12 38.3 0.1-0.05m-4.15 8.2q0.4-1.85 1.55-3.55 1.65-2.5 4.85-4.75v-0.1m-4.8-1.6 0.65 0.6 1.05 1.7 0.75-0.45m-4.2 0.05 0.9 0.6 0.6 0.9 1.95-1.1m-8.9 3.3-0.15-1.35q0-2.15 1.35-3.65 1.4-1.5 3.35-1.5l0.75 0.05q1.05 0.15 1.9 0.85m-1.75 1.9-0.9-0.15q-1.05 0-1.8 0.75t-0.75 1.8 0.75 1.8l0.45 0.35 0.8 0.35 1.1-2.4 1.85-1m-6.95 2.2 0.3 0.85q0.3 0.8 0.9 1.45l1.75 1.2 1.05-2.3m6.55 3.25 1.5 0.2 1.05 0.15m-4.25-0.45h0.5m-3.75 0.05q1.6-0.15 3.25-0.05-4.75 1.25-7.2 4.1l2.7 0.5 1.85 0.4m0.6 0.15 2.3 0.6 6.4 2m-12.55-8.6-0.6 1.3 3.25-0.4m-21.5 19.7 2.35 2.75 1.4 4.1 10 1.75 16.25-0.6 5.7-6.5-19.8 1.45-15.9-2.95 1.35-4.5v-0.05l-0.1-1.2q-1.7 4-4.1 7.3l-2.45 3m-0.15 0.15-0.3 0.3q-3.9 1.05-3.45-1.75l0.05-0.4 6.65-10.1 1.85-1.55 1.95-1.65 0.35-0.9q1.2-2.9 4.1-5.2h6.4l6.1-2.75m17.45 20.8 21.05-1.8m-55.45-10.15-0.4 1.55 0.2 2 0.15 1.15m10.9-10.75 5.4 0.85m-5.4-0.85-0.4-0.05m-16.95 19.2 2.35-4.15q1.9-3.1 3.95-5.4m0.55-4.45q6.7-3.95 18.6-3.8" fill="none" stroke="#000" stroke-linecap="round" stroke-linejoin="round" stroke-opacity=".4" stroke-width=".5"/>
<path d="m26.65 6.15q0-1.4 0.85-2.4 0.9-1 2.15-1t2.1 1l0.05 0.05 0.2 0.25 0.6 1.45-3.35 0.55-1.35 1.5 0.35 1.65-0.75-0.65-0.6-1.1q-0.25-0.6-0.25-1.3m-2.75 0q0-2.55 1.6-4.35t3.85-1.8q1.75 0 3.1 1.1l-0.05 0.05 0.05-0.05 0.75 0.7 1.15 1.8 0.4 1.7h3l8.6 4.95 6.9 7.2 10.6 39.25-24.6 28.15-16.25 0.6-10-1.75-1.4-4.1-2.35-2.75 1.35-4.5v-0.05l-0.1-1.2q-1.7 4-4.1 7.3l-2.45 3-0.45 0.45q-3.9 1.05-3.45-1.75l0.05-0.4 6.65-10.1 3.8-3.2 0.35-0.9q1.2-2.9 4.1-5.2h6l0.4 0.05v-0.05l6.1-2.75 0.6-1.3-1.75-1.2q-0.6-0.65-0.9-1.45l-0.3-0.85-0.15-1.35q0-2.15 1.35-3.65 1.4-1.5 3.35-1.5l0.75 0.05q1.05 0.15 1.9 0.85l0.65 0.6 1.05 1.7 0.75-0.45h0.1v-0.05l-5.9-22.25-2-2.15 2-3.6h2.15l-2.2-8.65q-1.65-0.15-2.85-1.2l-0.6-0.6q-1.6-1.8-1.6-4.35m8.2 44.4-1.85 1-1.1 2.4-0.8-0.35-0.45-0.35q-0.75-0.75-0.75-1.8t0.75-1.8 1.8-0.75l0.9 0.15 0.9 0.6 0.6 0.9" fill="none" stroke="#000" stroke-linecap="round" stroke-linejoin="round" stroke-opacity=".4"/>
</g>
<g id="c" transform="translate(-250.3,-148.25)">
<path d="m278.8 155q0.25-2.3 1.5-4.05 1.65-2.2 3.95-2.2 1.95 0 3.4 1.6-0.85 1.2-3.6-0.05-2.05 0.7-3.35 3.25-0.5 3.85-1.95 3.4l-0.05-0.7 0.1-1.25m-26.75 91.7q-1.25-1.9-1.25-4.15 0-2.95 2.1-5.25l0.9-0.85 0.9-0.75 1.6-0.95 0.55-0.3 0.8-0.35-0.2 1.85q-2.65 1.5-4.15 5.25 0.35 2.75-0.1 4.15-0.35 1.05-1.15 1.35m22.9-49.25q-2.25 7.9-4.5 8.65-2.4-0.2-2.35-2.5-0.55-5.9 3.2-10.85l0.4-0.45 1.6 1.45-0.4 0.6q-1.9 2.85-2.3 7.25l-0.1 2.5q2.35-1.95 4-8.95l0.2 0.2 0.25 2.1m6.9-40.7q0.15 0.95 0.65 1.7 0.8 1 1.85 1l0.75-0.15q0.85 1.1 1.1 2.2-2.35 1.15-4.35-1.2-1.15-2.2 0-3.55m11.85 56.45q1-2.25 2.9-2.7l1.1-0.05q1.25 0.1 2.45 1.25l0.05 0.05 0.65 0.7 0.65 1q-0.6 1.05-2.05-0.6l-1.75-0.75q-2.3-0.55-2.9 1.5l-1.1-0.4m7.2-24.8q-2.65-2.25-2.65-5.45 0-3.25 2.75-5.6 1.15-0.95 2.5-1.5l0.95 2.25q-2.45 1.45-3.15 4.25-0.4 2.85 1.15 4.1 0.35 2.2-1.55 1.95m28.45 25.05q1.55 1.7-1.75 1.5-4.8-1.85-7.7-5.7-0.4-2.25 0.75-1.55l0.15 0.4 0.8 0.9q2.5 2.75 5.25 3.95l1.45 0.5h1.05m-40.4-0.8q-0.75-1.45-0.75-3.15 0-3 2.3-5.1 0.65-0.6 1.4-1l0.4 1.7q-2.55 1.5-2.5 4.75 0.1 2.65 3.55 4.4 1.25 1.05-0.85 1.7l-2-1.35q-1-0.9-1.55-1.95m4.2 5.9v-0.1l0.05 0.05-0.05 0.05" fill="#e19e04" fill-rule="evenodd"/>
<path d="m287.65 150.35 0.5 0.6q1.65 2.2 1.65 5.3v0.4l-1.8-0.25-1.1-0.2v-0.2q0-1.45-0.75-2.5-0.75-1-1.8-1t-1.85 1q-0.55 0.85-0.65 1.9l-0.05 0.6 0.05 0.75q-1.15 1.35 0 3.55 2 2.35 4.35 1.2 0.2 0.85 0.05 1.75l-0.35 0.2-1.65 0.3q-2.3 0-3.95-2.2-0.75-1-1.1-2.2-0.4-1.15-0.45-2.4 1.45 0.45 1.95-3.4 1.3-2.55 3.35-3.25 2.75 1.25 3.6 0.05m26.85 27q2.75 2.35 2.75 5.6 0 2.8-2.05 4.9l-0.6 0.6-0.1 0.05q-2.8 2.35-6.75 2.35t-6.75-2.35l-0.1-0.1q1.9 0.25 1.55-1.95-1.55-1.25-1.15-4.1 0.7-2.8 3.15-4.25l-0.95-2.25q0.85-0.35 1.8-0.55 0.45 1.55 0.5 3.4l-1.5 0.9q-1.6 1.35-1.6 3.25t1.6 3.25 3.9 1.35 3.95-1.35l1.3-1.65 0.05-0.2q1.65-3.95-0.2-5.8l0.85-1.35 0.35 0.25m8.5 27.4q5.85 2.45 7.95 7.1 2 5.55-3.1 4.2-4.9-1.3-7.85-4.95l-0.35-0.4q-2.3-3.8-1.15-6.75l1.05 0.75 1.1 3q-1.15-0.7-0.75 1.55 2.9 3.85 7.7 5.7 3.3 0.2 1.75-1.5 1-0.25 0.2-1.6l-3.5-4-2.4-1.45-0.65-1.65m-29.2 0.95-1 0.7q-1.35 1.25-1.35 3.05t1.35 3.05l0.9 0.7 1.1 0.4 1.3 0.15h0.05l0.3-0.25-0.3 0.25h-0.05l-1.3-0.15q0.6-2.05 2.9-1.5l1.75 0.75q1.45 1.65 2.05 0.6l-0.65-1 1.25-3.4q-0.7-3.15-2.35-3.65l0.8-1.8 1.05 0.8q2.3 2.1 2.3 5.1 0 2.8-2 4.85l0.55 2q0.45 2.9-0.6 5.2-1 2.35-2.9 2.8-1.95 0.45-3.65-1.25-1.7-1.65-2.15-4.55l0.05-0.05 2.15 0.7q0.3 0.95 0.95 1.6 1 1 2.15 0.75l0.2-0.05q1-0.35 1.55-1.6 0.65-1.4 0.4-3.15l-0.3-1.15-1.05-1.6q-0.5-0.5-1-0.7l-1.15-0.05-0.65 0.25q2.25 1.3 1.85 2.95l-2.25 0.25-1.1-0.05-1.95-0.5-0.5-0.2q2.1-0.65 0.85-1.7-3.45-1.75-3.55-4.4-0.05-3.25 2.5-4.75l-0.4-1.7 1.6-0.7q0.45 1.5 0.3 3m8.1 8.65-0.4-0.9 0.4 0.9m-24.6 26.5 0.2 1.7v0.6q-1.1-1.6-1.6-0.2-0.55 1.35-1.7 2.75l-3.15 2.75q-4.4 2.25-9.25 1.65-5.95-0.7-8.6-4.75 0.45-1.4 0.1-4.15 1.5-3.75 4.15-5.25l0.2-1.85 1.4-0.5q0 1.4 0.35 2.95l-0.6 0.25q-0.7 0.35-1.35 0.8-1.15 0.85-1.75 1.8-0.8 1.2-0.8 2.65 0 2.6 2.55 4.45 0.85 0.6 1.8 1.05 1.9 0.8 4.3 0.8h0.4q3.4-0.1 5.75-1.85 1.75-1.25 2.3-2.9l0.1-0.3q1.9 0 2.4-2.7-0.45-1.8-1.7-3.4l0.8-1.5 0.75 0.6q2.4 2 2.95 4.55m-4-47.1 1.2 1.4q-1.65 7-4 8.95l0.1-2.5q1.85-1.65 2.3-7.25l0.4-0.6" fill="#b88203" fill-rule="evenodd"/>
<path d="m316.1 159.05 0.7 0.9-2.5 3 0.65 1.35-6 6.05 4.1-2-0.35 7.85-1.15-0.5-0.05-0.05-0.05-0.2q-0.05-1.2-0.85-2.4 0.8 1.2 0.85 2.4l0.05 0.2v0.05l-0.5 3.15v0.05l0.55 0.3 0.6 0.4q1.1 0.9 1.45 2.1-1.35 3.55-4.5 3.5-3.4-0.4-3.4-4.75l0.1-1.75q-0.05-1.85-0.5-3.4-0.95 0.2-1.8 0.55-1.35 0.55-2.5 1.5-2.75 2.35-2.75 5.6 0 3.2 2.65 5.45l0.1 0.1q2.8 2.35 6.75 2.35t6.75-2.35l0.1 0.05-0.75 4.05v2.5l2.1 2.6 0.5 4.25 0.8-1.1 4.1 3.25 1.15 4.9h-0.9l-0.8-0.9-0.15-0.4-1.1-3-1.05-0.75q-1.15 2.95 1.15 6.75l0.35 0.4 0.4 2.15-1.85-2.05 0.9 6.1q-0.9 1.25-2.35 2-7.5 2.6-13.15 10.55l-2.1 3.2q-1.3 4.45-4.4 6.15-6 1.25-15.5 1.55 3.15-4.35 7-6.8 3.65-3.4 5.55-7.1-1.85 1.5-3.95 1.6-9.2 2.6-16.2 7.85l-0.75-0.6-1.5-0.95 0.2-0.3-0.6-1.75 6-2.35q16.3-5.35 8.25-12.75 3.55 0.15 3-1.45l-1.6-0.6-2.2-0.1q1.65-0.4 2.7-1.3l1.1-1.5q0.55 1.05 1.55 1.95l2 1.35 0.5 0.2 0.05 1.4 0.1 0.9v0.1q0.45 2.9 2.15 4.55 1.7 1.7 3.65 1.25 1.9-0.45 2.9-2.8 1.05-2.3 0.6-5.2l-0.55-2q2-2.05 2-4.85 0-3-2.3-5.1l-1.05-0.8-1.15-0.65-0.5 1.5-0.65 1.15-0.1 0.1-0.75 0.85q1.8 2.1 0.3 3.9l-1.1 0.05q-1.9 0.45-2.9 2.7l-0.9-0.7q-1.35-1.25-1.35-3.05t1.35-3.05l1-0.7-0.2 1.1q1.7 2.15 2.6-0.6 2.25-4.05 3.35-8.65l0.05-0.15 0.6-3.35 0.25-2.95q-4.3-3.45-5.25-8.9l-8.15-1.3q0.4-5.4-0.15-10.8l5.95 0.25-5.95-0.6-1-6.3 0.35-0.2q1-0.5 1.8-1.55-0.4-1.05-1.45-2.05l-0.1-0.95 4 0.45 6.1 6.8 11.5 1 8-7.9m-47.95 4.65-4.2-5.35-0.45-0.35 7.85 0.65 0.2 1.15q0.75 6.5 3.25 8.3-4.15-1.1-5.1-2.4l-1.55-2m9.7 12.85-6.5-7.2 5.05 0.25q1.3 3.35 1.45 6.95m30.7-15.45h2.95l-3.8 3.35h-5.15l-4.35-0.95-2.4-3.1 4.3-0.8 8.45 1.5m-19.45 2.85-1.05-2.25 1.05 2.25m10.5 37.8-0.15 1.05-0.05 0.15 0.05-0.15 0.15-1.05m4.75-28.55 0.95 2.1-0.95-2.1m0.85-3.85 3.75-1.15 5.35-5.25-5.35 5.25-3.75 1.15m5.4 3.6q-2.6-1.75-5.25-0.75l2 3.4q1.55 1.5 2.5 0.5l0.75-3.05v-0.1m-0.15 7.55 0.45-1.2 0.1-0.4-0.1 0.4-0.45 1.2m8.05 23.45-1.05-0.75 1.05 0.75m-45.45 29.4-0.75 1.1 0.75-1.1m25.6-11.85-0.2 0.05q-1.15 0.25-2.15-0.75-0.65-0.65-0.95-1.6l-0.2-0.75q2.4 0.3 4.45-0.5l-0.95 3.55m-39.2 9.25-0.4 2.55v0.3l-1.4 0.5-0.8 0.35q-2.95-4.4-3.4-9.25 1.75 3.65 5.75 4.4l0.25 1.15" fill="#5c2e01" fill-rule="evenodd"/>
<path d="m314.95 164.3 0.25 0.55-1.1 1.8 0.4 10.7-0.35-0.25-1.45-0.9 0.35-7.85 1.05-1.7-1.05 1.7-4.1 2 6-6.05m0.25 23.55v6.35l2.25 3v2.15l4.85 4.35 0.7 1.05 0.65 1.65 0.1 1-0.3 1.55-0.95 0.05-1.15-4.9-4.1-3.25-0.8 1.1-0.5-4.25-2.1-2.6v-2.5l0.75-4.05v-0.1l0.6-0.6m5.2 25.4 0.15 0.7-0.05 1.05q-0.35 1.3-1.05 2.3l-0.9-6.1 1.85 2.05m-67.5 24.05q-0.55-2.9 0.45-7.7l0.9 2.15-0.45 4.7-0.9 0.85m20.45-31 2.05-5.2-0.45-3.65-0.25-2.1-0.2-0.2-1.2-1.4 0.75-0.85q-0.3-1.2-1.55-1.55l-0.15 0.2-0.65 0.75-0.4 0.45q-0.75-1 0.85-3.85-0.4-2.1 0.55-6.7-1.65-8.45-5.35-14.1-0.75-0.8 0.8-4.4l1.55 2q0.95 1.3 5.1 2.4l1.05 0.25 0.55 1.25-5.05-0.25 6.5 7.2v1.4q0.1 5.1 0.95 9.9l-4-1.3-1.1 0.75-1 2.25 2.35 1.15v3.35l1.9-0.85 3.2 0.85 0.3 1.15q1.15 3.5 0.65 5.95l-3.05 1.05-4.7 4.1m-0.65-18.3-0.55 0.9 0.55-0.9m14.55 2.65q-0.65-4.1-0.3-8.55l0.1-1.2 8.15 1.3q0.95 5.45 5.25 8.9l-0.25 2.95-2.9-0.1-10.05-3.3m12.3 6.9q-1.1 4.6-3.35 8.65-0.9 2.75-2.6 0.6l0.2-1.1q0.15-1.5-0.3-3l-1.6 0.7q-0.75 0.4-1.4 1-2.3 2.1-2.3 5.1 0 1.7 0.75 3.15l-1.1 1.5q-1.9-1-2.15-3.95 0.15-2.95 2-5.9l3.6-2.6-2.55-0.1 0.3-0.4q0.5-2.45-0.2-4.9l5.85 2.15 4.85-0.9m11.05-24.6v0.1l-0.75 3.05q-0.95 1-2.5-0.5l-2-3.4q2.65-1 5.25 0.75m6.85 26.4-0.2 1.5 0.2-1.5m-24.35 2.2 0.4 1.15-0.4-1.15m-17.25-1.7-0.45 1.25 0.45-1.25m-1.75-6.25-0.05-0.7 0.05 0.7" fill="#ba5e01" fill-rule="evenodd"/>
<path d="m316 230.35-2.25-0.3 0.45-4.35q1.2-3.3 2.4-2.5l-0.6 7.15m-3.55 1.85-2.3-0.5 0.55-2.75q0.5-2.3 1.25-0.15l0.05 0.1 0.45 3.3m-7.65 9.3-1.6 0.5v-3.3q0.4-3.85 2.15-3.75l-0.55 6.55m-6.35 6.95q-0.3-1.6-1.5-1.35-1.3 0.1-1.35 1.8v-5.85q1.75-3.35 2.85 0v5.4m-22.1 1.1-2.75-0.1v-0.1q3.6-2.6 3.9-6.2v-0.6l-0.2-1.7 2.75-0.05 1.9-0.05q9.5-0.3 15.5-1.55 3.1-1.7 4.4-6.15l2.1-3.2 4.5-3.25q-3.2 3.1-5.5 7.1l-3.25 5.5-3 1.4-16.6 2.05q-0.25 4.3-3.75 6.9m-1.55-81.45q-2.5-1.8-3.25-8.3l-0.2-1.15 7.85 0.7q0.35 1.2 1.1 2.2 1.65 2.2 3.95 2.2l1.65-0.3 1 6.3-8.95-0.95-2.1-0.45-1.05-0.25m3.05 8.45q-0.15-3.6-1.45-6.95l10.5 0.5q0.55 5.4 0.15 10.8l-6.2-1.05-3-3.3m-22.15 62.85 2.6 0.85-0.4 1.55q-0.65 3.7 1.35 5.75-0.95-0.45-1.8-1.05-2.55-1.85-2.55-4.45 0-1.45 0.8-2.65m16.4 3.9-0.1 0.3q-0.55 1.65-2.3 2.9-2.35 1.75-5.75 1.85 3.45-2.05 5.05-5.05l0.65-1.65h1.2l1.4-0.1v0.5l-0.15 1.25" fill="#434201" fill-rule="evenodd"/>
<path d="m289.8 156.65 3.5 0.55 1.2 1.55 5.95-1.05 10.3 1.15 4.7-0.65 0.65 0.85-8 7.9-11.5-1-6.1-6.8-4-0.45q-0.1-2.2 1.5-2.3l1.8 0.25m-36.45 72.95q-0.85-2.35-1.15-5.15 0.55-1.3 3.75-3.85l2.6-2.5q1.6-0.65 5.9-0.95 4-6.1 8.9-10.85l4.7-4.1 3.05-1.05-0.4 1.15q-6.1 6.3-8.7 13.55l-4.75 0.95-0.8 0.25 0.05 0.2q-9.3 2.4-7.3 12.35-4-0.75-5.75-4.4 0.45 4.85 3.4 9.25l-0.55 0.3q-1.2-1.35-2.05-3l-0.9-2.15m10.15-71.6q-1.7-1.65 0.45-3.9 4.5-0.4 9.05 0.05-2.05 1.15-1.65 4.5l-7.85-0.65m16.65 36.05-3.2-0.85-1.9 0.85v-3.35l-2.35-1.15 1-2.25 1.1-0.75 4 1.3q0.5 3.15 1.35 6.2m15.65-33.65 2.4 3.1 4.35 0.95h5.15l3.8-3.35h-2.95l-8.45-1.5-4.3 0.8-1.3-1.65 1.3 1.65m17-0.45-1.3 1.15 1.3-1.15m-12.6 34.1-0.6 3.35-0.05 0.15-4.85 0.9-5.85-2.15-0.8-2.05-0.8-3.6 10.05 3.3 2.9 0.1m-11.45 7.55 2.55 0.1-3.6 2.6q-1.85 2.95-2 5.9 0.25 2.95 2.15 3.95-1.05 0.9-2.7 1.3l2.2 0.1 1.6 0.6q0.55 1.6-3 1.45 8.05 7.4-8.25 12.75l-6 2.35q-3.2-10.45 4.25-15.75l1.65 0.05q0.2-1.1 1.8-1.6h4.1l1.65 0.05-1.65-0.05q0.4-7.65 5.25-13.8m-6.7 15.5-4.45-0.1 4.45 0.1m-17.6 0.05 1.4-0.05 0.6-0.05-0.6 0.05-1.4 0.05" fill="#e37302" fill-rule="evenodd"/>
<path d="m318.7 227.75-0.15 0.45-2.55 2.15 0.6-7.15q-1.2-0.8-2.4 2.5l-0.45 4.35-0.15 1.3-1.15 0.85-0.45-3.3-0.05-0.1q-0.75-2.15-1.25 0.15l-0.55 2.75-0.3 1.4-3.15 3.35-1.9 5.05 0.55-6.55q-1.75-0.1-2.15 3.75v6.65l-2.5 3.1h-2.25v-5.4q-1.1-3.35-2.85 0v5.85l-19.25 0.65q3.5-2.6 3.75-6.9l16.6-2.05 3-1.4 3.25-5.5q2.3-4 5.5-7.1l-4.5 3.25q5.65-7.95 13.15-10.55 1.45-0.75 2.35-2l-0.75 10.45m-45.7-73.6 5.8 0.85-0.1 1.25 0.05 0.7q0.05 1.25 0.45 2.4l-7.85-0.7q-0.4-3.35 1.65-4.5m8.85 2.6-0.05-0.75 0.05-0.6 5.05 0.8 1.1 0.2q-1.6 0.1-1.5 2.3l-1.8-0.25 1.05 0.45-0.65 0.4-0.75 0.15q-1.05 0-1.85-1-0.5-0.75-0.65-1.7m-3.05 31.1q-0.85-4.8-0.95-9.9v-1.4l3 3.3 6.2 1.05-0.1 1.2q-0.35 4.45 0.3 8.55l-8.45-2.8m-2.4-18.25-0.55-1.25 2.1 0.45 8.95 0.95v0.35l-10.5-0.5m12.45 26.7q0.7 2.45 0.2 4.9l-0.3 0.4-7.65-0.45q0.5-2.45-0.65-5.95l-0.3-1.15 8.7 2.25m-17.15 36.4 0.6 1.75-0.2 0.3q-0.9 1.6-1.4 3.7l-0.4 1.75 0.55 1.45h-1.2q-5.5 0.1-10.4-1.15l0.55-2.45-0.3-1-0.1-0.5q-0.35-1.55-0.35-2.95v-0.3l0.4-2.55 0.55 1.85q9.15 1.75 11.7 0.1m7.7-17.3q-1.6 0.5-1.8 1.6l-1.65-0.05-8.6 0.1-0.1-0.25 4.75-0.95 7.4-0.45m-19.2 23.85-0.4-1.2 0.4 1.2m-0.95 8.3q-2-2.05-1.35-5.75 4.35 1.8 11.1 1.5-1.6 3-5.05 5.05h-0.4q-2.4 0-4.3-0.8" fill="#660" fill-rule="evenodd"/>
<path d="m320.5 215-0.65 9.15-1.15 3.6 0.75-10.45q0.7-1 1.05-2.3m-34.75-56.1-1.05-0.45 1.8 0.25 0.1 0.95-0.85-0.75m-6.95 28.95 8.45 2.8 0.8 3.6 0.8 2.05-8.7-2.25q-0.85-3.05-1.35-6.2m4.7 27.55h-4.1l-7.4 0.45q2.6-7.25 8.7-13.55l0.4-1.15 7.65 0.45q-4.85 6.15-5.25 13.8m-23.5 17.2-0.55-1.85-0.25-1.15q-2-9.95 7.3-12.35l0.85-0.2 8.6-0.1q-7.45 5.3-4.25 15.75-2.55 1.65-11.7-0.1m-2.1 9.2 0.4-1.55 0.95 0.25q4.9 1.25 10.4 1.15l-0.65 1.65q-6.75 0.3-11.1-1.5" fill="#a9a801" fill-rule="evenodd"/>
<path d="m273.5 249.45q-3.9 2.75-9.35 2.75-5.55 0-9.45-2.85-1.7-1.2-2.65-2.65 0.8-0.3 1.15-1.35 2.65 4.05 8.6 4.75 4.85 0.6 9.25-1.65l3.15-2.75q1.15-1.4 1.7-2.75 0.5-1.4 1.6 0.2-0.3 3.6-3.9 6.2l-0.1 0.1m12.7-87.95q-0.25-1.1-1.1-2.2l0.65-0.4 0.85 0.75q1.05 1 1.45 2.05-0.8 1.05-1.8 1.55 0.15-0.9-0.05-1.75m12.05 44.1 0.65-1.15 0.5-1.5 1.15 0.65-0.8 1.8q1.65 0.5 2.35 3.65l-1.25 3.4-0.65-0.7-0.05-0.05q0.65-1 0.65-2.25 0-1.8-1.4-3.05l-0.95-0.7-0.2-0.1m14.45-29.4 1.45 0.9-0.85 1.35q1.85 1.85 0.2 5.8l0.25-1.4-0.15-1.15q-0.35-1.2-1.45-2.1l-0.6-0.4-0.55-0.3v-0.05l0.5-3.15h0.05l1.15 0.5m11.05 31.2-0.1-1 2.4 1.45 3.5 4q0.8 1.35-0.2 1.6h-1.05l-1.45-0.5q3.3-0.85-3.1-5.55m-30.75 8.75 1.95 0.5 0.1 1.4 0.1 0.4 0.2 0.75-2.15-0.7-0.05-0.05-0.1-0.9-0.05-1.4m5.3 0.3q0.4-1.65-1.85-2.95l0.65-0.25 1.15 0.05q0.5 0.2 1 0.7l1.05 1.6-2 0.85m-26.6-24.15 0.65-0.75 0.15-0.2q1.25 0.35 1.55 1.55l-0.75 0.85-1.6-1.45m1.9 43.4-0.8 1.5q1.25 1.6 1.7 3.4-0.5 2.7-2.4 2.7l0.15-1.25v-0.5q-0.2-1.75-1.55-3.1 0.5-2.1 1.4-3.7l1.5 0.95" fill="#976a02" fill-rule="evenodd"/>
<path d="m286.9 170.1v-0.35l5.95 0.6-5.95-0.25m27.6 18.4 0.1-0.05v0.1l-0.1-0.05" fill="#a95401" fill-rule="evenodd"/>
<path d="m297.7 210.45q1.5-1.8-0.3-3.9l0.75-0.85 0.1-0.1 0.2 0.1 0.95 0.7q1.4 1.25 1.4 3.05 0 1.25-0.65 2.25-1.2-1.15-2.45-1.25m15.75-26-1.3 1.65q-1.65 1.35-3.95 1.35t-3.9-1.35-1.6-3.25 1.6-3.25l1.5-0.9-0.1 1.75q0 4.35 3.4 4.75 3.15 0.05 4.5-3.5l0.15 1.15-0.25 1.4-0.05 0.2m-18.5 32.2 1.1 0.05 2.25-0.25 2-0.85 0.3 1.15q0.25 1.75-0.4 3.15-0.55 1.25-1.55 1.6l0.95-3.55q-2.05 0.8-4.45 0.5l-0.1-0.4-0.1-1.4m-13 24.1-1.9 0.05-2.75 0.05q-0.55-2.55-2.95-4.55 7-5.25 16.2-7.85 2.1-0.1 3.95-1.6-1.9 3.7-5.55 7.1-3.85 2.45-7 6.8m-28.15-4.3 0.45-4.7q0.85 1.65 2.05 3l-1.6 0.95-0.9 0.75m5.6 0.1 0.1 0.5 0.3 1-0.55 2.45-0.95-0.25-2.6-0.85q0.6-0.95 1.75-1.8 0.65-0.45 1.35-0.8l0.6-0.25m11.45 5.1-0.55-1.45 0.4-1.75q1.35 1.35 1.55 3.1l-1.4 0.1" fill="#3c1e00" fill-rule="evenodd"/>
<path d="m278.8 155q0.25-2.3 1.5-4.05 1.65-2.2 3.95-2.2 1.95 0 3.4 1.6l0.5 0.6q1.65 2.2 1.65 5.3v0.4l3.5 0.55 1.2 1.55 5.95-1.05 10.3 1.15 4.7-0.65 0.65 0.85 0.7 0.9-2.5 3 0.65 1.35 0.25 0.55-1.1 1.8 0.4 10.7q2.75 2.35 2.75 5.6 0 2.8-2.05 4.9v6.35l2.25 3v2.15l4.85 4.35 0.7 1.05q5.85 2.45 7.95 7.1 2 5.55-3.1 4.2-4.9-1.3-7.85-4.95l0.4 2.15 0.15 0.7-0.05 1.05-0.65 9.15-1.15 3.6-0.15 0.45-2.55 2.15-2.25-0.3-0.15 1.3-1.15 0.85-2.3-0.5-0.3 1.4-3.15 3.35-1.9 5.05-1.6 0.5v3.35l-2.5 3.1h-2.25q-0.3-1.6-1.5-1.35-1.3 0.1-1.35 1.8l-19.25 0.65-2.75-0.1h-0.1q-3.9 2.75-9.35 2.75-5.55 0-9.45-2.85-1.7-1.2-2.65-2.65-1.25-1.9-1.25-4.15 0-2.95 2.1-5.25-0.55-2.9 0.45-7.7-0.85-2.35-1.15-5.15 0.55-1.3 3.75-3.85l2.6-2.5q1.6-0.65 5.9-0.95 4-6.1 8.9-10.85l2.05-5.2-0.45-3.65q-2.25 7.9-4.5 8.65-2.4-0.2-2.35-2.5-0.55-5.9 3.2-10.85-0.75-1 0.85-3.85-0.4-2.1 0.55-6.7-1.65-8.45-5.35-14.1-0.75-0.8 0.8-4.4l-4.2-5.35-0.45-0.35q-1.7-1.65 0.45-3.9 4.5-0.4 9.05 0.05l5.8 0.85-0.1 1.25 0.05 0.7m-10.6 6.75 1.55 2q0.95 1.3 5.1 2.4-2.5-1.8-3.25-8.3l-0.2-1.15q-0.4-3.35 1.65-4.5m8.85 2.6-0.05-0.75 0.05-0.6q0.1-1.05 0.65-1.9 0.8-1 1.85-1t1.8 1q0.75 1.05 0.75 2.5v0.2l1.1 0.2 1.8 0.25m-4.7 2.65-0.75 0.15q-1.05 0-1.85-1-0.5-0.75-0.65-1.7m3.25 2.55 0.65-0.4-1.05-0.45m1.8 0.25q-0.1-2.2 1.5-2.3m-8.8 2.95q-0.4-1.15-0.45-2.4m7.15 6.5-1.65 0.3q-2.3 0-3.95-2.2-0.75-1-1.1-2.2m-0.4 28.5q-0.85-4.8-0.95-9.9v-1.4q-0.15-3.6-1.45-6.95l-0.55-1.25-1.05-0.25m12.1 2v-0.35m-8.95-0.95-2.1-0.45m-3.7 20.55 0.55-0.9m14.55 2.65q-0.65-4.1-0.3-8.55l0.1-1.2m8.75-20.5 2.4 3.1 4.35 0.95h5.15l3.8-3.35h-2.95m-12.75-0.7-1.3-1.65m17 2.35 1.3-1.15m-27.05-1.05 0.85 0.75-0.1-0.95m1.55 3 1.05 2.25m-2.85-0.7-0.35 0.2 1 6.3m0 0.35q0.55 5.4 0.15 10.8m6.55 25.9 0.2-1.1-1 0.7q-1.35 1.25-1.35 3.05t1.35 3.05l0.9 0.7q1-2.25 2.9-2.7l1.1-0.05q1.25 0.1 2.45 1.25l0.05 0.05 0.65 0.7 0.65 1 0.4 0.9 0.55 2q0.45 2.9-0.6 5.2-1 2.35-2.9 2.8-1.95 0.45-3.65-1.25-1.7-1.65-2.15-4.55v-0.1l-0.1-0.9-0.05-1.4 1.95 0.5 1.1 0.05 2.25-0.25m-0.9-9.9 0.75-0.85 0.1-0.1 0.65-1.15 0.55-1.65 0.15-1.05m-13.35-38.5q1-0.5 1.8-1.55-0.4-1.05-1.45-2.05m14.3 28.75q-2.65-2.25-2.65-5.45 0-3.25 2.75-5.6 1.15-0.95 2.5-1.5 0.85-0.35 1.8-0.55l-0.95-2.1m-3.45 15.2 0.1 0.1q2.8 2.35 6.75 2.35t6.75-2.35l0.1-0.05 0.6-0.6m-1.75-3.4-1.3 1.65q-1.65 1.35-3.95 1.35t-3.9-1.35-1.6-3.25 1.6-3.25l1.5-0.9q-0.05-1.85-0.5-3.4m8.8-8.65-1.05 1.7m-0.35 7.85 1.45 0.9 0.35 0.25m-0.2-14.4-5.35 5.25-3.75 1.15m5.4 3.7q0.8 1.2 0.85 2.4l0.05 0.2 0.05 0.05 1.15 0.5m-1.2-0.55v0.05l-0.5 3.15v0.05l0.55 0.3 0.6 0.4q1.1 0.9 1.45 2.1l0.15 1.15-0.25 1.4m-2.5-5.35-0.1 0.4-0.45 1.2m-28.6-25.1 5.05 0.8m30.35 44.65 0.2-1.5m5.05 9.65 0.95-0.05 0.3-1.55-0.1-1-0.65-1.65m-2.35 2.95-1.1-3-1.05-0.75q-1.15 2.95 1.15 6.75l0.35 0.4m0.65-3.4 0.15 0.4 0.8 0.9h0.9m-3.05 8.3q0.7-1 1.05-2.3m-3.05-11.8 1.05 0.75m-29.65-7.65q0.7 2.45 0.2 4.9l-0.3 0.4m0.2 11.05q-0.75-1.45-0.75-3.15 0-3 2.3-5.1 0.65-0.6 1.4-1l1.6-0.7-0.4-1.15m-4.25-5.25-0.8-2.05-0.8-3.6m-2.1 24.8 2.2 0.1m-15.65 17.15 0.6 1.75 0.75-1.1m12.1-17.9-1.65-0.05h-4.1q-1.6 0.5-1.8 1.6l4.45 0.1m10.45-1.15 0.5 0.2m3.45-2.65-0.3 0.25h-0.05l-1.3-0.15-1.1-0.4m-1.2 2.75-2-1.35q-1-0.9-1.55-1.95m11.6-9.05 1.05 0.8q2.3 2.1 2.3 5.1 0 2.8-2 4.85m-1.35-10.75-1.15-0.65m-1.15 2.65 0.2 0.1 0.95 0.7q1.4 1.25 1.4 3.05 0 1.25-0.65 2.25m-3.7 1.8 0.65-0.25 1.15 0.05q0.5 0.2 1 0.7l1.05 1.6 0.3 1.15q0.25 1.75-0.4 3.15-0.55 1.25-1.55 1.6l-0.2 0.05q-1.15 0.25-2.15-0.75-0.65-0.65-0.95-1.6l-0.2-0.75-0.1-0.4-0.1-1.4m-1.45-13.95q0.45 1.5 0.3 3m10.15 24.15-2.1 3.2q-1.3 4.45-4.4 6.15-6 1.25-15.5 1.55l-1.9 0.05-2.75 0.05 0.2 1.7v0.6q-0.3 3.6-3.9 6.2l-0.1 0.1m30.45-19.6q5.65-7.95 13.15-10.55 1.45-0.75 2.35-2m-9.3 14.4 0.55-2.75q0.5-2.3 1.25-0.15l0.05 0.1 0.45 3.3m1.3-2.15 0.45-4.35q1.2-3.3 2.4-2.5l-0.6 7.15m-15.7-14.75-2 0.85m4.9 25.55v-3.3q0.4-3.85 2.15-3.75l-0.55 6.55m-23.7-40.35q0.5-2.45-0.65-5.95l-0.3-1.15q-0.85-3.05-1.35-6.2m-4.3 7.3 0.2 0.2 0.25 2.1m0.45 3.65 0.45-1.25m-3.85 16q2.6-7.25 8.7-13.55l0.4-1.15m-3.05 1.05-4.7 4.1m0.7-13.4 0.05 0.7m-2.4-1.3 0.65-0.75 0.15-0.2q1.25 0.35 1.55 1.55l-0.75 0.85 1.2 1.4m-4 8.95 0.1-2.5q0.4-4.4 2.3-7.25l0.4-0.6m-1.6-1.45-0.4 0.45m-0.7 8.85q1.85-1.65 2.3-7.25m-20 42.95 0.9-0.85 0.9-0.75 1.6-0.95q-1.2-1.35-2.05-3l-0.9-2.15m6.1 1.15-0.4 2.55v0.3q0 1.4 0.35 2.95l0.1 0.5 0.3 1 0.4 1.2m-0.2-6.65-0.55-1.85-0.25-1.15m-2.35 4.85 0.8-0.35 1.4-0.5m-3.35 5.8q0.6-0.95 1.75-1.8 0.65-0.45 1.35-0.8l0.6-0.25m-1.1 3.7-2.6-0.85q-0.8 1.2-0.8 2.65 0 2.6 2.55 4.45 0.85 0.6 1.8 1.05m-0.95-7.3 0.95 0.25 0.55-2.45m-3.5-3.3 0.55-0.3m19.1-17.5 1.65 0.05m-11.15 0.05-0.6 0.05-1.4 0.05m2-0.1 0.8-0.25 4.75-0.95 7.4-0.45m-12.9 1.85 0.85-0.2h-0.9m0.05 0.2q-9.3 2.4-7.3 12.35m8.15-12.55 8.6-0.1q-7.45 5.3-4.25 15.75m0.4 10.6-0.1 0.3q-0.55 1.65-2.3 2.9-2.35 1.75-5.75 1.85h-0.4q-2.4 0-4.3-0.8m12.85-12.8 1.5 0.95 0.75 0.6q7-5.25 16.2-7.85m-19.7 13.2-0.55-1.45 0.4-1.75q0.5-2.1 1.4-3.7l0.2-0.3m-0.05 7.1-1.4 0.1h-1.2m2.6-0.1v0.5l-0.15 1.25m23.5 5.6v-5.85q1.75-3.35 2.85 0v5.4m-21.15-7.6q-0.55-2.55-2.95-4.55m-3.65 2.15q1.35 1.35 1.55 3.1m-13-1.05q4.9 1.25 10.4 1.15m13.85-26.25q0.4-7.65 5.25-13.8m38.1 11.35 1.45 0.5m-6.7-4.45q2.5 2.75 5.25 3.95 3.3-0.85-3.1-5.55" fill="none" stroke="#000" stroke-linecap="round" stroke-linejoin="round" stroke-opacity=".4" stroke-width=".5"/>
<path d="m284.25 148.75q1.95 0 3.4 1.6l0.5 0.6q1.65 2.2 1.65 5.3v0.4l3.5 0.55 1.2 1.55 5.95-1.05 10.3 1.15 4.7-0.65 1.35 1.75-2.5 3 0.9 1.9-1.1 1.8 0.4 10.7q2.75 2.35 2.75 5.6 0 2.8-2.05 4.9v6.35l2.25 3v2.15l4.85 4.35 0.7 1.05q5.85 2.45 7.95 7.1 2 5.55-3.1 4.2-4.9-1.3-7.85-4.95l0.55 2.85-0.7 10.2-1.3 4.05-2.55 2.15-2.25-0.3-0.15 1.3-1.15 0.85-2.3-0.5-0.3 1.4-3.15 3.35-1.9 5.05-1.6 0.5v3.35l-2.5 3.1h-2.25q-0.3-1.6-1.5-1.35-1.3 0.1-1.35 1.8l-19.25 0.65-2.75-0.1v-0.1l-0.1 0.1q-3.9 2.75-9.35 2.75-5.55 0-9.45-2.85-1.7-1.2-2.65-2.65-1.25-1.9-1.25-4.15 0-2.95 2.1-5.25-0.55-2.9 0.45-7.7-0.85-2.35-1.15-5.15 0.55-1.3 3.75-3.85l2.6-2.5q1.6-0.65 5.9-0.95 4-6.1 8.9-10.85l2.05-5.2-0.45-3.65q-2.25 7.9-4.5 8.65-2.4-0.2-2.35-2.5-0.55-5.9 3.2-10.85-0.75-1 0.85-3.85-0.4-2.1 0.55-6.7-1.65-8.45-5.35-14.1-0.75-0.8 0.8-4.4l-4.2-5.35-0.45-0.35q-1.7-1.65 0.45-3.9 4.5-0.4 9.05 0.05l5.8 0.85q0.25-2.3 1.5-4.05 1.65-2.2 3.95-2.2m-1.75 4.75q0.8-1 1.85-1t1.8 1q0.75 1.05 0.75 2.5v0.2l-5.05-0.8q0.1-1.05 0.65-1.9m41.25 53.9q6.4 4.7 3.1 5.55-2.75-1.2-5.25-3.95l1.85-0.05 0.3-1.55m-53.15-5.8q1.85-1.65 2.3-7.25-1.9 2.85-2.3 7.25" fill="none" stroke="#000" stroke-linecap="round" stroke-linejoin="round" stroke-opacity=".4"/>
</g>
</defs>
</svg>
