<?xml version="1.0" encoding="UTF-8"?>
<svg version="1.1" viewBox="0 0 18.05 17.75" xmlns="http://www.w3.org/2000/svg" xmlns:cc="http://creativecommons.org/ns#" xmlns:dc="http://purl.org/dc/elements/1.1/" xmlns:rdf="http://www.w3.org/1999/02/22-rdf-syntax-ns#" xmlns:xlink="http://www.w3.org/1999/xlink">
<metadata>
<rdf:RDF>
<cc:Work rdf:about="">
<dc:format>image/svg+xml</dc:format>
<dc:type rdf:resource="http://purl.org/dc/dcmitype/StillImage"/>
</cc:Work>
</rdf:RDF>
</metadata>
<g transform="translate(-265.92 -191.08)">
<use transform="translate(265.95,191.1)" width="18" height="17.700001" xlink:href="#a"/>
</g>
<defs>
<g id="a" transform="translate(-265.95,-191.1)">
<path d="m266.1 198.95 0.1-3.45q0.1-0.9 0.6-0.85l7.7 3.3 0.4 1.95q0.05-1.1 0.85-2.2l2.05-0.9q-0.5-0.25 0.25-0.9 1.35-0.5 1.8 0v0.05l4.1-1.8-2.55-1q-0.8 0.2-2.1 0-1.05-0.45-0.4-0.85l-4.4-1.2q-5.45 1-8.55 3.15v4.55l0.15 0.15m0.1 3.65-0.15-2.05-0.1 0.2v1.65l0.25 0.2m7.65-7.45q0.65 0.3 0.7 1.5-0.35 0.55-1.2 0.15-2.15-0.75-1.2-2.1l1.7 0.45m0.6-3 0.2 0.5-0.4 0.05q-0.7-0.25-0.4-0.7l0.6 0.15m2.95 0 0.25 0.5-0.4 0.05q-0.7-0.25-0.4-0.7l0.55 0.15" fill="#ff0" fill-rule="evenodd"/>
<path d="m274.9 199.9-0.4-1.95-7.7-3.3q-0.5-0.05-0.6 0.85l-0.1 3.45q0.45 0.65-0.05 1.6l0.15 2.05q4.2 2.3 8.7 3.65v-2.05q0.45-1.65 0-3.1v-1.2m-7.55-2.6 0.2 0.5-0.4 0.05q-0.7-0.25-0.4-0.7l0.6 0.15m0.7 3 0.25 0.5-0.4 0.05q-0.7-0.25-0.4-0.7l0.55 0.15m-1.25 1.8q-0.7-0.25-0.4-0.65l0.55 0.1 0.25 0.5-0.4 0.05m5.7-3q0.25 0 0.45 0.25l0.15 0.75-0.15 0.65-0.45 0.3-0.45-0.3-0.2-0.65 0.2-0.75q0.2-0.25 0.45-0.25" fill="#e8e800" fill-rule="evenodd"/>
<path d="m278.9 192.3q-0.65 0.4 0.4 0.85 1.3 0.2 2.1 0-2-0.1-2.5-0.85m0.95 3.65v-0.05q-0.45-0.5-1.8 0-0.75 0.65-0.25 0.9 0.4 0.3 1.3 0l0.75-0.85m-12.5 1.35-0.6-0.15q-0.3 0.45 0.4 0.7l0.4-0.05-0.2-0.5m16.6 3.95q-0.75-0.6 0-1.75-0.55-0.25-0.7 1.3 0.05 0.75 0.7 0.45m-17.15 0.85 0.4-0.05-0.25-0.5-0.55-0.1q-0.3 0.4 0.4 0.65m1.25-1.8-0.55-0.15q-0.3 0.45 0.4 0.7l0.4-0.05-0.25-0.5m14.65-2.65q0.6-0.35 0.6-0.8l-0.3-1q-1-0.1-0.75 1.25 0.05 0.55 0.45 0.55m-8.25-5.5-0.6-0.15q-0.3 0.45 0.4 0.7l0.4-0.05-0.2-0.5m-0.6 3-1.7-0.45q-0.95 1.35 1.2 2.1 0.85 0.4 1.2-0.15-0.05-1.2-0.7-1.5m3.55-3-0.55-0.15q-0.3 0.45 0.4 0.7l0.4-0.05-0.25-0.5m1.85 10.95 0.4-0.05-0.2-0.5-0.6-0.15q-0.3 0.45 0.4 0.7m-6.75-4q-0.25 0-0.45 0.25l-0.2 0.75 0.2 0.65 0.45 0.3 0.45-0.3 0.15-0.65-0.15-0.75q-0.2-0.25-0.45-0.25" fill="#8db044" fill-rule="evenodd"/>
<path d="m274.9 206.25q-4.5-1.35-8.7-3.65l-0.25-0.2 0.15 0.25 0.2 0.45h0.2l0.3 0.75v-0.45l1.9 0.75 0.55 0.65-0.2-0.4h0.35l0.55 0.7-0.1-0.5 1.4 1.4-0.15-0.35 2.05 0.5 0.65 0.55 0.4-0.2 0.7 0.3v1.2l0.75-1.35-0.4 1.3 1.05-0.6-0.45 0.7h0.4l0.9-0.9-0.7 1.2 0.6-0.2 1.2-0.9 3.25-1.05 1.05-0.95 1.15-0.7 0.05-2.1-8.9 4.2 0.05-0.4m-1.2 2.2 0.45 0.1-0.65-1.1 0.2 1m0.65-0.4-0.3-0.85-0.25-0.05 0.55 0.9m3.25-0.95 0.6-0.7-0.55 0.8-0.05-0.1m-1.6-0.15 1.55-1-1.15 1h-0.4" fill="#063" fill-rule="evenodd"/>
<path d="m266.1 202.65v2.2l0.85 0.9 1.75 0.35 2.35 1.35 1.5 0.35 1.05 0.6 0.1 0.05-0.2-1 0.65 1.1 0.75 0.25 1.55-0.45 0.7-1.2-0.9 0.9h-0.4l0.45-0.7-1.05 0.6 0.4-1.3-0.75 1.35v-1.2l-0.7-0.3-0.4 0.2-0.65-0.55-2.05-0.5 0.15 0.35-1.4-1.4 0.1 0.5-0.55-0.7h-0.35l0.2 0.4-0.55-0.65-1.9-0.75v0.45l-0.3-0.75h-0.2l-0.2-0.45m8.25 5.4-0.55-0.9 0.25 0.05 0.3 0.85m1.65-1.1h0.4l1.15-1-1.55 1m1.6 0.15 0.05 0.1 0.55-0.8-0.6 0.7" fill="#093" fill-rule="evenodd"/>
<path d="m283.95 194.15-4.1 1.8-0.75 0.85q-0.9 0.3-1.3 0l-2.05 0.9q-0.8 1.1-0.85 2.2v1.2q0.45 1.45 0 3.1v2.05q4.5-1.75 9.05-4.2v-0.8q-0.65 0.3-0.7-0.45 0.15-1.55 0.7-1.3v-5.35m-1.25 3.5q-0.4 0-0.45-0.55-0.25-1.35 0.75-1.25l0.3 1q0 0.45-0.6 0.8m-3.45 5.45q-0.7-0.25-0.4-0.7l0.6 0.15 0.2 0.5-0.4 0.05" fill="#decd01" fill-rule="evenodd"/>
<path d="m283.75 202.45 0.2-0.4q-4.55 2.45-9.05 4.2l-0.05 0.4 8.9-4.2" fill="#004a25" fill-rule="evenodd"/>
<path d="m266.1 198.95-0.15-0.15v-4.55q3.1-2.15 8.55-3.15l4.4 1.2m2.5 0.85 2.55 1m-9.05 12.1q-4.5-1.35-8.7-3.65l-0.25-0.2 0.15 0.25v2.2l0.85 0.9 1.75 0.35 2.35 1.35 1.5 0.35 1.05 0.6 0.1 0.05 0.45 0.1 0.75 0.25 1.55-0.45 0.6-0.2 1.2-0.9 3.25-1.05 1.05-0.95 1.15-0.7 0.05-2.1 0.2-0.4v-0.8q-0.75-0.6 0-1.75v-5.35m-17.9 6.4q0.5-0.95 0.05-1.6m-0.05 1.6-0.1 0.2v1.65m15.45-9.25q-2-0.1-2.5-0.85m-4 13.95q4.5-1.75 9.05-4.2" fill="none" stroke="#000" stroke-linecap="round" stroke-linejoin="round" stroke-opacity=".4" stroke-width=".05"/>
<path d="m280.6 200.1q-0.35-0.35-1.05 0-0.55 0.25-0.5 0.75 0.55-0.7 1.55-0.75m0.7 0.55q-0.25 0.35-1.1 0.55l0.65 0.05q0.5-0.25 0.45-0.6" fill="#8db044" fill-rule="evenodd"/>
<path d="m279.05 200.85-1.6 0.8-0.15 0.9 2.9-1.35q0.85-0.2 1.1-0.55h0.05l0.5-0.25v-0.95l-1.25 0.65q-1 0.05-1.55 0.75" fill-rule="evenodd"/>
<path d="m282.95 200.75q-0.15-0.9 0.05-1.85l-1.15 0.55v0.95l1.1 0.35" fill="#e8e800" fill-rule="evenodd"/>
<path d="m277.3 202.55v0.95q3.05-1.15 5.65-2.75l-1.1-0.35-0.5 0.25h-0.05q0.05 0.35-0.45 0.6l-0.65-0.05-2.9 1.35" fill="#ff0" fill-rule="evenodd"/>
</g>
</defs>
</svg>
