<?xml version="1.0" encoding="UTF-8" standalone="no"?>
<!DOCTYPE svg PUBLIC "-//W3C//DTD SVG 1.1//EN" "http://www.w3.org/Graphics/SVG/1.1/DTD/svg11.dtd">
<svg width="100%" height="100%" viewBox="0 0 270 346" version="1.1" xmlns="http://www.w3.org/2000/svg" xmlns:xlink="http://www.w3.org/1999/xlink" xml:space="preserve" xmlns:serif="http://www.serif.com/" style="fill-rule:evenodd;clip-rule:evenodd;stroke-linecap:round;stroke-linejoin:round;">
    <g transform="matrix(1,0,0,1,-135.847,-16.9986)">
        <g>
            <g id="shape0">
                <path d="M200.35,279.1L197.3,278.6C177.2,275.167 163.35,265.833 155.75,250.6C148.117,235.333 148.95,218.667 158.25,200.6C167.55,182.467 182.567,168.217 203.3,157.85C224.033,147.45 244.45,143.983 264.55,147.45C284.583,150.85 298.417,160.183 306.05,175.45C313.683,190.683 312.85,207.367 303.55,225.5C300.517,231.433 296.867,236.95 292.6,242.05L292.6,241.95C292.633,241.183 292.45,240.633 292.05,240.3C290.183,238.667 288.05,237.517 285.65,236.85L280.2,236.5L258.2,247.35C244.967,253.917 237.833,256.067 236.8,253.8C238.133,247.967 238.8,241.35 238.8,233.95C238.8,224.983 235.55,217.333 229.05,211C222.583,204.667 214.75,201.5 205.55,201.5C196.35,201.5 188.5,204.667 182,211C175.533,217.333 172.3,224.983 172.3,233.95C172.3,242.883 175.533,250.517 182,256.85C188.5,263.15 196.35,266.3 205.55,266.3C210.283,266.3 214.667,265.467 218.7,263.8L215.4,267C214.567,267.733 213.683,268.25 212.75,268.55C206.983,270.283 202.833,273.7 200.3,278.8L200.35,279.1" style="fill:#f2f2f2;"/>
                <path d="M292.6,242.05C283.8,252.483 272.433,261.183 258.5,268.15C238.8,277.983 219.417,281.633 200.35,279.1L200.3,278.8C202.833,273.7 206.983,270.283 212.75,268.55C213.683,268.25 214.567,267.733 215.4,267L218.7,263.8C214.667,265.467 210.283,266.3 205.55,266.3C196.35,266.3 188.5,263.15 182,256.85C175.533,250.517 172.3,242.883 172.3,233.95C172.3,224.983 175.533,217.333 182,211C188.5,204.667 196.35,201.5 205.55,201.5C214.75,201.5 222.583,204.667 229.05,211C235.55,217.333 238.8,224.983 238.8,233.95C238.8,241.35 238.133,247.967 236.8,253.8C237.833,256.067 244.967,253.917 258.2,247.35L280.2,236.5L285.65,236.85C288.05,237.517 290.183,238.667 292.05,240.3C292.45,240.633 292.633,241.183 292.6,241.95L292.6,242.05" style="fill:#b6b6b6;"/>
                <path d="M342.3,28.35C346.733,28.45 351.317,29.2 356.05,30.6C375.45,36.167 387.15,49.833 391.15,71.6C392.117,77.733 392.55,83.8 392.45,89.8L391.9,96.65C390.733,107.017 387.567,117.183 382.4,127.15C374.267,142.183 364.05,154.933 351.75,165.4L336.4,177.75L328.8,183.4L329.55,186L329.4,185.45C328.3,182.183 327.017,179.083 325.55,176.15C328.85,173.95 331.867,171.317 334.6,168.25C340.167,161.883 344.233,154.7 346.8,146.7L346.8,146.55L344.7,140.85L344.65,140.75L344.55,140.7L340.1,139.05L340,139L339.9,139.05L336.4,141C329.467,144.833 322.133,147.483 314.4,148.95C314.9,146.383 314.917,143.817 314.45,141.25C313.783,137.183 312.25,133.667 309.85,130.7C309.217,129.6 308.417,128.65 307.45,127.85C306.883,127.383 306.267,126.95 305.6,126.55L329.7,128.65L330.4,122.15L334.7,122L331.1,118.35L338.55,108.7L323.1,109.55L322.25,101.5L300.35,116.7L299.2,116.8C298.7,114.967 297.567,113.417 295.8,112.15L295.45,111.95C294.55,111.383 293.55,110.983 292.45,110.75C289.583,110.517 286.883,111.1 284.35,112.5L283.55,112.9L283.25,111.2C282.517,106.8 282.1,102.6 282,98.6L282,97.25C281.8,90.55 282.3,83.833 283.5,77.1C284,74.033 284.733,71.083 285.7,68.25L285.95,67.4C289.15,58.1 294.633,50.183 302.4,43.65C308.033,38.75 313.883,35.033 319.95,32.5L321.2,31.95L324.75,30.75C330.417,28.917 336.267,28.117 342.3,28.35M404.3,88.3C404.167,98.967 401.967,109.583 397.7,120.15L397.65,120.2L397.65,120.25L396.6,122.8L395.5,125.25L395.45,125.35C387.283,143.25 376.05,158.867 361.75,172.2C349.983,183.067 340.317,192.533 332.75,200.6L332.75,200.9C333.483,208.233 333.033,215.667 331.4,223.2C328.767,235.467 323.95,246.85 316.95,257.35C317.017,261.15 317.45,264.933 318.25,268.7C319.317,273.733 321.067,278.683 323.5,283.55L326.1,282.35L329.45,284.75L329.5,275.7C329.367,275.2 329.35,274.883 329.45,274.75C330.683,272.85 332.117,271.583 333.75,270.95L333.9,270.95L335,270.7C336.567,270.4 338.317,270.65 340.25,271.45L340.5,271.55L342.5,274.65L342.55,274.6L348.55,266.3C352.417,261.833 353.433,257.767 351.6,254.1L349.1,251.05L357.1,251.3L367.1,239.4L366,249.4L382.9,251.6L366,259.9L366.25,264.9L361,263.8L357.05,271.15L359.55,271.45L359.7,271.45L362.4,271.8L366.55,277.35L358.5,276.25L358.45,276.8L367.45,277.7C375.917,279.267 383.4,283.067 389.9,289.1C398.7,297.333 403.1,307.267 403.1,318.9C403.1,330.533 398.7,340.45 389.9,348.65C381.067,356.883 370.417,361 357.95,361C345.483,361 334.85,356.883 326.05,348.65C321.783,344.717 318.55,340.367 316.35,335.6C313.983,330.5 312.8,324.933 312.8,318.9C312.8,312.067 314.333,305.833 317.4,300.2C316.6,299.1 315.85,297.617 315.15,295.75L314.85,294.9L312.5,288.45L311.9,286.75C311,284.117 310.317,281.817 309.85,279.85C309.317,277.85 308.883,275.8 308.55,273.7L307.65,269.55L307.65,269.6C301.783,276.3 295.25,282.3 288.05,287.6C277.75,295.167 266.65,301.033 254.75,305.2C241.55,309.667 228.033,311.933 214.2,312C203.333,311.8 192.817,309.767 182.65,305.9C160.517,297.433 146.383,282.567 140.25,261.3C139.283,258 138.567,254.717 138.1,251.45C137.567,247.65 137.317,243.883 137.35,240.15C137.517,226.317 141.683,212.25 149.85,197.95C158.183,183.283 169.2,171 182.9,161.1C184.333,155.467 187.383,150.4 192.05,145.9C197.017,141.067 202.35,136.883 208.05,133.35L208.1,133.3L208,131.75C208.567,122.75 212.05,115.55 218.45,110.15C219.217,109.517 220.033,109.15 220.9,109.05C221.7,108.95 222.55,109.117 223.45,109.55C224.95,110.183 225.7,111.317 225.7,112.95C225.9,115.817 226.25,118.483 226.75,120.95L227.55,124.35C232.617,122.983 237.883,122.367 243.35,122.5L243.5,122.55C244.833,123.217 246.15,123.967 247.45,124.8C249.317,125.833 251.083,127 252.75,128.3C255.983,130.8 258.883,133.7 261.45,137L264,137.25L263.95,137.3L263.85,137.3L263.75,137.45L264,137.5L264.25,137.45C264.517,129.85 268.283,124.283 275.55,120.75C271.55,102.75 271.167,85.7 274.4,69.6C277.233,55.367 284.517,43.683 296.25,34.55C314.383,20.417 334.3,15.617 356,20.15C378.3,24.917 392.967,38.25 400,60.15C402.1,66.717 403.433,73.283 404,79.85C404.233,82.617 404.333,85.383 404.3,88.15L404.3,88.3M362.6,289.25L364.4,289.6L366.65,290.1C365.25,291.133 363.467,291.783 361.3,292.05L361.15,292C358.75,291.033 357.4,290.183 357.1,289.45L357.05,288.8L362,289.15L362.35,289.2L362.6,289.25M368.75,296.45C365.883,299.85 361.917,302.167 356.85,303.4C354.45,304.1 352.75,304.017 351.75,303.15C351.317,302.817 351.017,302.35 350.85,301.75L351.3,303.95C350.433,305.783 349.167,307.183 347.5,308.15C346.3,308.817 344.9,309.25 343.3,309.45C339.333,308.75 336.933,306.817 336.1,303.65L336.05,303.35L335.8,308.1L332.75,311.45C331.383,310.917 330.033,310.267 328.7,309.5L328.5,310.5C327.733,314.2 327.75,317.783 328.55,321.25C329.35,324.717 330.933,328.05 333.3,331.25L333.45,331.45L334.3,332.5C339.067,338.4 345.417,342.167 353.35,343.8C361.717,345.5 369.4,344.3 376.4,340.2C382.867,336.467 387,331.283 388.8,324.65L389.2,322.9C390.733,315.367 389.067,308.35 384.2,301.85C382.9,300.083 381.467,298.5 379.9,297.1C378.233,295.633 376.417,294.35 374.45,293.25C373.15,292.517 371.8,291.883 370.4,291.35L370.4,291.75L368.75,296.45M310.2,149.6L310,149.65L309.9,149.7L309.7,149.3L310.2,149.6" style="fill:none;fill-rule:nonzero;stroke:#000;stroke-width:3px;"/>
                <path d="M316.55,335.1C314.183,330 313,324.433 313,318.4C313,306.767 317.417,296.833 326.25,288.6C335.05,280.4 345.683,276.3 358.15,276.3L367.65,277.2C365.083,279.6 362,281.083 358.4,281.65L353.15,282.65C363.95,282.517 374.017,284.85 383.35,289.65C388.983,292.45 393.5,296.4 396.9,301.5L395.55,303.7L393.9,302.6C398.267,310 399,317.5 396.1,325.1C393.133,332.8 388.267,338.9 381.5,343.4C370.3,350.9 358.25,352.05 345.35,346.85L341.25,345.55C344.583,347.283 347.083,349.867 348.75,353.3C336.583,350.467 325.85,344.4 316.55,335.1M362.8,288.75L369.05,289.65C361.35,287.517 355.967,286.617 352.9,286.95C349.367,287.317 345.9,288.067 342.5,289.2C339.633,290.1 336.933,291.817 334.4,294.35C332,296.75 330.067,299.467 328.6,302.5C327.033,305.7 326.383,309.183 326.65,312.95C326.85,315.75 327.267,318.433 327.9,321L328.75,320.75C329.55,324.217 331.133,327.55 333.5,330.75L333.65,330.95L334.5,332C339.267,337.9 345.617,341.667 353.55,343.3C361.917,345 369.6,343.8 376.6,339.7C383.067,335.967 387.2,330.783 389,324.15L389.4,322.4L390,322.75C391.767,319.75 392.533,316.267 392.3,312.3C392.067,308.733 390.983,305.35 389.05,302.15C386.75,298.317 383.667,295.8 379.8,294.6C380.167,295.467 380.267,296.133 380.1,296.6C378.433,295.133 376.617,293.85 374.65,292.75C371.65,291.05 368.3,289.833 364.6,289.1L362.8,288.75M320.85,322.5C328.817,333.733 330.35,335.317 325.45,327.25C323.55,322.517 323.05,316.467 323.95,309.1C325.65,302.6 328.833,296.467 333.5,290.7L323.35,302.8L322.6,304C319.8,308.533 318.717,312.367 319.35,315.5L320.25,319.8L320.85,322.5" style="fill:#c29d47;"/>
                <path d="M367.65,277.2C376.117,278.767 383.6,282.567 390.1,288.6C398.9,296.833 403.3,306.767 403.3,318.4C403.3,330.033 398.9,339.95 390.1,348.15C381.267,356.383 370.617,360.5 358.15,360.5C345.683,360.5 335.05,356.383 326.25,348.15C321.983,344.217 318.75,339.867 316.55,335.1C325.85,344.4 336.583,350.467 348.75,353.3C347.083,349.867 344.583,347.283 341.25,345.55L345.35,346.85C358.25,352.05 370.3,350.9 381.5,343.4C388.267,338.9 393.133,332.8 396.1,325.1C399,317.5 398.267,310 393.9,302.6L395.55,303.7L396.9,301.5C393.5,296.4 388.983,292.45 383.35,289.65C374.017,284.85 363.95,282.517 353.15,282.65L358.4,281.65C362,281.083 365.083,279.6 367.65,277.2M362.8,288.75L362.55,288.7L362.2,288.65C354.733,287.583 347.833,288.883 341.5,292.55C334.5,296.65 330.233,302.467 328.7,310C327.933,313.7 327.95,317.283 328.75,320.75L327.9,321C327.267,318.433 326.85,315.75 326.65,312.95C326.383,309.183 327.033,305.7 328.6,302.5C330.067,299.467 332,296.75 334.4,294.35C336.933,291.817 339.633,290.1 342.5,289.2C345.9,288.067 349.367,287.317 352.9,286.95C355.967,286.617 361.35,287.517 369.05,289.65L362.8,288.75M389.4,322.4C390.933,314.867 389.267,307.85 384.4,301.35C383.1,299.583 381.667,298 380.1,296.6C380.267,296.133 380.167,295.467 379.8,294.6C383.667,295.8 386.75,298.317 389.05,302.15C390.983,305.35 392.067,308.733 392.3,312.3C392.533,316.267 391.767,319.75 390,322.75L389.4,322.4" style="fill:#9b7b33;"/>
                <path d="M320.85,322.5L320.25,319.8L319.35,315.5C318.717,312.367 319.8,308.533 322.6,304L323.35,302.8L333.5,290.7C328.833,296.467 325.65,302.6 323.95,309.1C323.05,316.467 323.55,322.517 325.45,327.25C330.35,335.317 328.817,333.733 320.85,322.5" style="fill:#f4e7b9;"/>
                <path d="M220.75,214.15C218.15,215.217 214.583,215.75 210.05,215.75C213.717,215.55 217.283,215.017 220.75,214.15" style="fill:#805224;"/>
                <path d="M237.95,197.55C238.183,198.55 236.283,200.3 232.25,202.8C228.217,205.267 224.65,206.317 221.55,205.95L215.25,205.55C220.45,204.483 224.85,203.15 228.45,201.55C232.517,199.683 235.45,197.367 237.25,194.6L237.95,197.55" style="fill:#efc683;"/>
                <path d="M201.3,215.6L194.55,214.45L199.3,215.35L201.3,215.6" style="fill:url(#_Radial1);"/>
                <path d="M237.35,173.4C236.25,172.233 234.75,171.283 232.85,170.55C230.917,169.75 228.783,169.233 226.45,169L218.35,169.4L213.9,170.25L210.8,171.05C209.133,171.483 207.533,172.033 206,172.7C201.867,174.333 198.067,176.433 194.6,179C189.133,183.033 185.867,187.2 184.8,191.5C184.067,193.967 184.217,196.117 185.25,197.95L185.75,198.7L187,200.15L188.75,201.4L189.25,201.75C190.85,202.65 192.717,203.283 194.85,203.65C197.85,204.15 201.383,204.117 205.45,203.55L211.95,202.25L215.75,201C219.617,199.633 223.333,197.783 226.9,195.45C233.733,190.883 237.75,186.117 238.95,181.15C239.55,178.55 239.267,176.333 238.1,174.5L237.55,173.65L237.35,173.4M219.7,168C227.033,167.367 232.767,168.45 236.9,171.25C241.333,174.183 242.683,178.233 240.95,183.4C239.183,188.567 234.833,193.3 227.9,197.6C225.3,199.2 222.617,200.583 219.85,201.75C215.283,203.617 210.5,204.85 205.5,205.45C202,205.817 198.867,205.85 196.1,205.55C192.433,205.083 189.367,204 186.9,202.3C182.433,199.367 181.067,195.317 182.8,190.15C184.567,185.017 188.917,180.3 195.85,176C202.717,171.667 210.183,169.05 218.25,168.15L219.7,168" style="fill:url(#_Linear2);"/>
                <path d="M227.4,163.85L233.75,164.55C239.083,165.617 243.533,167.533 247.1,170.3C249.2,171.9 250.8,173.667 251.9,175.6C252.7,176.9 253.267,178.267 253.6,179.7C254.467,183.233 254.183,186.8 252.75,190.4C251.35,193.967 249.167,197.3 246.2,200.4C243.267,203.367 239.767,206 235.7,208.3C231.167,210.733 226.183,212.683 220.75,214.15C217.283,215.017 213.717,215.55 210.05,215.75L209.05,215.85L207.4,215.9L201.3,215.6L199.3,215.35L194.55,214.45L194.3,214.4C192.433,213.833 190.7,213.167 189.1,212.4C187.2,211.433 185.483,210.3 183.95,209L182.45,207.6L181.65,206.7C180.883,205.833 180.233,204.917 179.7,203.95C177.667,200.45 177.167,196.467 178.2,192C179.8,185.233 184.5,179.2 192.3,173.9C193.5,173.033 194.767,172.233 196.1,171.5C192.533,174 188.883,177.1 185.15,180.8C181.417,184.467 179.467,188.683 179.3,193.45C179.1,198.15 180.617,201.7 183.85,204.1C187.85,207.133 193.083,208.85 199.55,209.25C204.15,209.217 204.767,209.8 201.4,211L198.2,211.65L199.85,212.15C203.583,212.783 207.367,212.883 211.2,212.45C218.233,211.55 224.75,209.75 230.75,207.05C234.117,205.483 237.083,203.667 239.65,201.6C243.183,198.7 245.633,195.45 247,191.85C247.933,189.35 247.517,186.933 245.75,184.6L241.55,188.55C242.817,186.117 243.467,183.633 243.5,181.1C243.5,177.333 241.917,173.9 238.75,170.8C235.783,167.9 232,165.583 227.4,163.85" style="fill:#633f1d;"/>
                <path d="M189.25,201.75C187.983,200.15 187.467,198.2 187.7,195.9C188,191.833 190.5,187.633 195.2,183.3C198.2,180.5 201.633,178.117 205.5,176.15C207,175.417 208.533,174.75 210.1,174.15L213.05,173L217.4,171.75C220.233,171.017 222.9,170.617 225.4,170.55L232.25,171.15C234.317,171.683 236.017,172.433 237.35,173.4L237.55,173.65L238.1,174.5C239.267,176.333 239.55,178.55 238.95,181.15C237.75,186.117 233.733,190.883 226.9,195.45C223.333,197.783 219.617,199.633 215.75,201L211.95,202.25L205.45,203.55C201.383,204.117 197.85,204.15 194.85,203.65C192.717,203.283 190.85,202.65 189.25,201.75" style="fill:#fbf4f0;"/>
                <path d="M237.35,173.4C236.017,172.433 234.317,171.683 232.25,171.15L225.4,170.55C222.9,170.617 220.233,171.017 217.4,171.75L213.05,173L210.1,174.15C208.533,174.75 207,175.417 205.5,176.15C201.633,178.117 198.2,180.5 195.2,183.3C190.5,187.633 188,191.833 187.7,195.9C187.467,198.2 187.983,200.15 189.25,201.75L188.75,201.4L187,200.15L185.75,198.7L185.25,197.95C184.217,196.117 184.067,193.967 184.8,191.5C185.867,187.2 189.133,183.033 194.6,179C198.067,176.433 201.867,174.333 206,172.7C207.533,172.033 209.133,171.483 210.8,171.05L213.9,170.25L218.35,169.4L226.45,169C228.783,169.233 230.917,169.75 232.85,170.55C234.75,171.283 236.25,172.233 237.35,173.4" style="fill:#999;"/>
                <path d="M196.1,171.5C197.667,170.6 199.3,169.75 201,168.95L202.25,168.45C204.283,167.55 206.417,166.8 208.65,166.2C211.683,165.3 214.883,164.667 218.25,164.3L219.7,164.1L227.4,163.85C232,165.583 235.783,167.9 238.75,170.8C241.917,173.9 243.5,177.333 243.5,181.1C243.467,183.633 242.817,186.117 241.55,188.55L245.75,184.6C247.517,186.933 247.933,189.35 247,191.85C245.633,195.45 243.183,198.7 239.65,201.6C237.083,203.667 234.117,205.483 230.75,207.05C224.75,209.75 218.233,211.55 211.2,212.45C207.367,212.883 203.583,212.783 199.85,212.15L198.2,211.65L201.4,211C204.767,209.8 204.15,209.217 199.55,209.25C193.083,208.85 187.85,207.133 183.85,204.1C180.617,201.7 179.1,198.15 179.3,193.45C179.467,188.683 181.417,184.467 185.15,180.8C188.883,177.1 192.533,174 196.1,171.5M219.7,168L218.25,168.15C210.183,169.05 202.717,171.667 195.85,176C188.917,180.3 184.567,185.017 182.8,190.15C181.067,195.317 182.433,199.367 186.9,202.3C189.367,204 192.433,205.083 196.1,205.55C198.867,205.85 202,205.817 205.5,205.45C210.5,204.85 215.283,203.617 219.85,201.75C222.617,200.583 225.3,199.2 227.9,197.6C234.833,193.3 239.183,188.567 240.95,183.4C242.683,178.233 241.333,174.183 236.9,171.25C232.767,168.45 227.033,167.367 219.7,168M237.95,197.55L237.25,194.6C235.45,197.367 232.517,199.683 228.45,201.55C224.85,203.15 220.45,204.483 215.25,205.55L221.55,205.95C224.65,206.317 228.217,205.267 232.25,202.8C236.283,200.3 238.183,198.55 237.95,197.55" style="fill:#b38b5e;"/>
                <path d="M196.1,171.5C197.667,170.6 199.3,169.75 201,168.95L202.25,168.45C204.283,167.55 206.417,166.8 208.65,166.2C211.683,165.3 214.883,164.667 218.25,164.3L219.7,164.1L227.4,163.85L233.75,164.55C239.083,165.617 243.533,167.533 247.1,170.3C249.2,171.9 250.8,173.667 251.9,175.6C252.7,176.9 253.267,178.267 253.6,179.7C254.467,183.233 254.183,186.8 252.75,190.4C251.35,193.967 249.167,197.3 246.2,200.4C243.267,203.367 239.767,206 235.7,208.3C231.167,210.733 226.183,212.683 220.75,214.15C217.283,215.017 213.717,215.55 210.05,215.75L209.05,215.85L207.4,215.9L201.3,215.6L194.55,214.45L194.3,214.4C192.433,213.833 190.7,213.167 189.1,212.4C187.2,211.433 185.483,210.3 183.95,209L182.45,207.6L181.65,206.7C180.883,205.833 180.233,204.917 179.7,203.95C177.667,200.45 177.167,196.467 178.2,192C179.8,185.233 184.5,179.2 192.3,173.9C193.5,173.033 194.767,172.233 196.1,171.5M237.35,173.4C236.25,172.233 234.75,171.283 232.85,170.55C230.917,169.75 228.783,169.233 226.45,169L218.35,169.4L213.9,170.25L210.8,171.05C209.133,171.483 207.533,172.033 206,172.7C201.867,174.333 198.067,176.433 194.6,179C189.133,183.033 185.867,187.2 184.8,191.5C184.067,193.967 184.217,196.117 185.25,197.95L185.75,198.7L187,200.15L188.75,201.4L189.25,201.75C190.85,202.65 192.717,203.283 194.85,203.65C197.85,204.15 201.383,204.117 205.45,203.55L211.95,202.25L215.75,201C219.617,199.633 223.333,197.783 226.9,195.45C233.733,190.883 237.75,186.117 238.95,181.15C239.55,178.55 239.267,176.333 238.1,174.5L237.55,173.65L237.35,173.4" style="fill:none;fill-rule:nonzero;stroke:#2d2d2d;stroke-opacity:0.59;stroke-width:0.5px;"/>
                <path d="M214.4,311.25C203.567,311.05 193.083,309.017 182.95,305.15C160.883,296.717 146.8,281.9 140.7,260.7C139.733,257.433 139.017,254.167 138.55,250.9C143.917,262.1 153.783,270.017 168.15,274.65C182.483,279.25 184.567,279.583 174.4,275.65C160.833,268.383 151.6,257.8 146.7,243.9C142.833,232.867 144.183,219.35 150.75,203.35C157.317,187.317 167.1,174.7 180.1,165.5C193.067,156.267 205.067,148.933 216.1,143.5C220.767,141.767 225.417,140.367 230.05,139.3L233.55,138.55C239.217,137.383 244.85,136.717 250.45,136.55C258.383,136.25 266.267,136.917 274.1,138.55L277.5,139.3C283.733,140.8 289.45,142.8 294.65,145.3C302.517,155.333 307.783,166.6 310.45,179.1C313.35,192.633 312.317,205.833 307.35,218.7C304.017,227.367 299.367,235.25 293.4,242.35L307.75,232.8C308.583,242.133 306.317,250.683 300.95,258.45C293.283,269.483 283.683,278.367 272.15,285.1C263.85,290 255.017,293.583 245.65,295.85C229.05,299.817 212.433,300.167 195.8,296.9C186.933,294.933 178.767,291.233 171.3,285.8C176.167,294.433 183.217,300.883 192.45,305.15C199.483,308.317 206.8,310.35 214.4,311.25M209.75,158.6C189.017,167.1 173.383,179.367 162.85,195.4C152.317,211.4 149.95,226.483 155.75,240.65C161.55,254.75 173.833,263.8 192.6,267.8C211.4,271.767 231.15,269.5 251.85,261C272.55,252.5 288.167,240.233 298.7,224.2C309.233,208.167 311.6,193.1 305.8,179C300,164.833 287.717,155.767 268.95,151.8C250.183,147.8 230.45,150.067 209.75,158.6M254.45,282.65C266.55,277.717 272.933,273.483 273.6,269.95C274.3,266.383 275.167,262.733 276.2,259C268.7,266.933 259.25,272.267 247.85,275C237.883,277.333 226.517,277.967 213.75,276.9C216.117,277.733 220.483,280.133 226.85,284.1C233.183,288.067 242.383,287.583 254.45,282.65" style="fill:#bf9857;"/>
                <path d="M294.65,145.3C299.183,147.467 303.433,150.183 307.4,153.45C317.833,161.883 325.15,172.4 329.35,185C333.45,197.333 334.117,209.883 331.35,222.65C328.55,235.717 323.267,247.767 315.5,258.8C307.833,269.7 298.7,279.067 288.1,286.9C277.833,294.467 266.75,300.317 254.85,304.45C241.683,308.917 228.2,311.183 214.4,311.25C206.8,310.35 199.483,308.317 192.45,305.15C183.217,300.883 176.167,294.433 171.3,285.8C178.767,291.233 186.933,294.933 195.8,296.9C212.433,300.167 229.05,299.817 245.65,295.85C255.017,293.583 263.85,290 272.15,285.1C283.683,278.367 293.283,269.483 300.95,258.45C306.317,250.683 308.583,242.133 307.75,232.8L293.4,242.35C299.367,235.25 304.017,227.367 307.35,218.7C312.317,205.833 313.35,192.633 310.45,179.1C307.783,166.6 302.517,155.333 294.65,145.3" style="fill:#916f37;"/>
                <path d="M254.45,282.65C242.383,287.583 233.183,288.067 226.85,284.1C220.483,280.133 216.117,277.733 213.75,276.9C226.517,277.967 237.883,277.333 247.85,275C259.25,272.267 268.7,266.933 276.2,259C275.167,262.733 274.3,266.383 273.6,269.95C272.933,273.483 266.55,277.717 254.45,282.65" style="fill:#f0e7b3;"/>
                <path d="M138.55,250.9C138.017,247.133 137.767,243.383 137.8,239.65C137.967,225.85 142.117,211.817 150.25,197.55C162.55,175.95 180.7,159.517 204.7,148.25C208.5,146.45 212.3,144.867 216.1,143.5C205.067,148.933 193.067,156.267 180.1,165.5C167.1,174.7 157.317,187.317 150.75,203.35C144.183,219.35 142.833,232.867 146.7,243.9C151.6,257.8 160.833,268.383 174.4,275.65C184.567,279.583 182.483,279.25 168.15,274.65C153.783,270.017 143.917,262.1 138.55,250.9" style="fill:#e0ce67;"/>
                <path d="M236.35,156.35C225.183,158.25 214.083,162.117 203.05,167.95C185.917,176.85 173.333,188.067 165.3,201.6C160.567,209.5 158.1,217.033 157.9,224.2L157.95,227.1C158.183,231.2 159.183,235.217 160.95,239.15C166.383,251.05 177.667,258.45 194.8,261.35L210.8,262.6L220.6,261.9C230.867,260.567 241.417,257.517 252.25,252.75C273.15,243.45 288.15,230.783 297.25,214.75C301.983,206.383 304.283,198.567 304.15,191.3L304,187.85C303.3,182.55 301.283,177.6 297.95,173C289.683,161.667 275.95,155.65 256.75,154.95C254.15,154.85 251.567,154.867 249,155C244.733,155.133 240.517,155.583 236.35,156.35M209.75,158.6C230.45,150.067 250.183,147.8 268.95,151.8C287.717,155.767 300,164.833 305.8,179C311.6,193.1 309.233,208.167 298.7,224.2C288.167,240.233 272.55,252.5 251.85,261C231.15,269.5 211.4,271.767 192.6,267.8C173.833,263.8 161.55,254.75 155.75,240.65C149.95,226.483 152.317,211.4 162.85,195.4C173.383,179.367 189.017,167.1 209.75,158.6" style="fill:url(#_Linear3);"/>
                <path d="M294.65,145.3C299.183,147.467 303.433,150.183 307.4,153.45C317.833,161.883 325.15,172.4 329.35,185C333.45,197.333 334.117,209.883 331.35,222.65C328.55,235.717 323.267,247.767 315.5,258.8C307.833,269.7 298.7,279.067 288.1,286.9C277.833,294.467 266.75,300.317 254.85,304.45C241.683,308.917 228.2,311.183 214.4,311.25C203.567,311.05 193.083,309.017 182.95,305.15C160.883,296.717 146.8,281.9 140.7,260.7C139.733,257.433 139.017,254.167 138.55,250.9C138.017,247.133 137.767,243.383 137.8,239.65C137.967,225.85 142.117,211.817 150.25,197.55C162.55,175.95 180.7,159.517 204.7,148.25C208.5,146.45 212.3,144.867 216.1,143.5C220.767,141.767 225.417,140.367 230.05,139.3L233.55,138.55C239.217,137.383 244.85,136.717 250.45,136.55C258.383,136.25 266.267,136.917 274.1,138.55L277.5,139.3C283.733,140.8 289.45,142.8 294.65,145.3M236.35,156.35C240.517,155.583 244.733,155.133 249,155C251.567,154.867 254.15,154.85 256.75,154.95C275.95,155.65 289.683,161.667 297.95,173C301.283,177.6 303.3,182.55 304,187.85L304.15,191.3C304.283,198.567 301.983,206.383 297.25,214.75C288.15,230.783 273.15,243.45 252.25,252.75C241.417,257.517 230.867,260.567 220.6,261.9L210.8,262.6L194.8,261.35C177.667,258.45 166.383,251.05 160.95,239.15C159.183,235.217 158.183,231.2 157.95,227.1L157.9,224.2C158.1,217.033 160.567,209.5 165.3,201.6C173.333,188.067 185.917,176.85 203.05,167.95C214.083,162.117 225.183,158.25 236.35,156.35" style="fill:none;fill-rule:nonzero;stroke:#2d2d2d;stroke-opacity:0.59;stroke-width:0.5px;"/>
                <path d="M186.65,264.4L196.95,265.15C194.317,265.883 190.883,265.633 186.65,264.4" style="fill:#805224;"/>
                <path d="M216.35,246.95C216.383,248.383 214.267,250.283 210,252.65C205.733,254.95 202.167,255.4 199.3,254C196.433,252.633 194.5,251.833 193.5,251.6C198.567,251.6 202.95,251 206.65,249.8C210.85,248.367 214.067,245.967 216.3,242.6L216.35,246.95" style="fill:#efc683;"/>
                <path d="M172.3,258.1L176.6,260.75L178.4,261.7C176.2,260.7 174.167,259.5 172.3,258.1" style="fill:url(#_Radial4);"/>
                <path d="M220.45,213.15C219.617,211.217 218.383,209.45 216.75,207.85C215.083,206.183 213.167,204.867 211,203.9C208.7,202.933 206.15,202.333 203.35,202.1L198.95,202L195.9,202.3C194.267,202.433 192.65,202.733 191.05,203.2C186.85,204.3 182.883,206.167 179.15,208.8C173.25,212.867 169.383,217.717 167.55,223.35C166.383,226.617 166.1,229.667 166.7,232.5L167.05,233.65L167.95,236.1L169.35,238.3L169.75,238.9C171.083,240.633 172.717,242.067 174.65,243.2C177.383,244.733 180.717,245.683 184.65,246.05C186.75,246.25 188.867,246.25 191,246.05L194.8,245.45C198.7,244.617 202.55,243.083 206.35,240.85C213.65,236.483 218.35,231 220.45,224.4C221.483,220.933 221.633,217.767 220.9,214.9L220.55,213.5L220.45,213.15M204.85,200.55C211.883,201.75 217.083,204.9 220.45,210C224.05,215.333 224.533,221.35 221.9,228.05C219.267,234.75 214.283,240.1 206.95,244.1C204.15,245.633 201.35,246.817 198.55,247.65C193.883,248.95 189.15,249.3 184.35,248.7C180.983,248.233 178.033,247.383 175.5,246.15C172.133,244.483 169.45,242.117 167.45,239.05C163.817,233.65 163.317,227.633 165.95,221C168.583,214.3 173.567,208.95 180.9,204.95C188.2,200.883 195.717,199.35 203.45,200.35L204.85,200.55" style="fill:url(#_Linear5);"/>
                <path d="M182,198.75C178.167,201.25 174.15,204.533 169.95,208.6C165.717,212.667 163.067,217.967 162,224.5C160.9,231.033 161.633,236.417 164.2,240.65C167.4,246.017 172,249.917 178,252.35C182.333,253.617 182.783,254.617 179.35,255.35C178.317,255.517 177.283,255.517 176.25,255.35L177.7,256.45C181.133,258.383 184.683,259.6 188.35,260.1C195.15,260.833 201.617,260.167 207.75,258.1C211.217,256.9 214.367,255.217 217.2,253.05C221.067,250.017 223.983,246.183 225.95,241.55C227.317,238.317 227.4,234.85 226.2,231.15L221.45,235.4C223.117,232.4 224.2,229.15 224.7,225.65C225.467,220.383 224.65,215.117 222.25,209.85C220.017,204.983 216.9,200.683 212.9,196.95C214.867,197.683 216.8,198.633 218.7,199.8C223.533,202.8 227.367,206.733 230.2,211.6C231.867,214.4 233.033,217.3 233.7,220.3C234.167,222.333 234.433,224.383 234.5,226.45C234.633,231.683 233.683,236.6 231.65,241.2C229.65,245.767 226.95,249.783 223.55,253.25C220.217,256.517 216.433,259.167 212.2,261.2C207.433,263.367 202.35,264.683 196.95,265.15L186.65,264.4L185.65,264.2L184.1,263.8C182.1,263.2 180.2,262.5 178.4,261.7L176.6,260.75L172.3,258.1L172.1,257.95C170.433,256.683 168.933,255.25 167.6,253.65C166,251.817 164.6,249.767 163.4,247.5L162.25,245.15L161.65,243.7C161.083,242.233 160.65,240.75 160.35,239.25C159.083,233.783 159.383,228.117 161.25,222.25C164.05,213.283 169.633,206.2 178,201C179.3,200.167 180.633,199.417 182,198.75" style="fill:#633f1d;"/>
                <path d="M169.75,238.9C168.883,236.333 168.767,233.483 169.4,230.35C170.467,224.75 173.633,219.617 178.9,214.95C182.267,211.917 185.95,209.567 189.95,207.9C191.483,207.267 193.05,206.767 194.65,206.4L197.65,205.7L201.95,205.15C204.75,204.917 207.35,205.117 209.75,205.75C212.083,206.317 214.183,207.267 216.05,208.6C217.917,209.9 219.383,211.417 220.45,213.15L220.55,213.5L220.9,214.9C221.633,217.767 221.483,220.933 220.45,224.4C218.35,231 213.65,236.483 206.35,240.85C202.55,243.083 198.7,244.617 194.8,245.45L191,246.05C188.867,246.25 186.75,246.25 184.65,246.05C180.717,245.683 177.383,244.733 174.65,243.2C172.717,242.067 171.083,240.633 169.75,238.9" style="fill:#fbf4f0;"/>
                <path d="M220.45,213.15C219.383,211.417 217.917,209.9 216.05,208.6C214.183,207.267 212.083,206.317 209.75,205.75C207.35,205.117 204.75,204.917 201.95,205.15L197.65,205.7L194.65,206.4C193.05,206.767 191.483,207.267 189.95,207.9C185.95,209.567 182.267,211.917 178.9,214.95C173.633,219.617 170.467,224.75 169.4,230.35C168.767,233.483 168.883,236.333 169.75,238.9L169.35,238.3L167.95,236.1L167.05,233.65L166.7,232.5C166.1,229.667 166.383,226.617 167.55,223.35C169.383,217.717 173.25,212.867 179.15,208.8C182.883,206.167 186.85,204.3 191.05,203.2C192.65,202.733 194.267,202.433 195.9,202.3L198.95,202L203.35,202.1C206.15,202.333 208.7,202.933 211,203.9C213.167,204.867 215.083,206.183 216.75,207.85C218.383,209.45 219.617,211.217 220.45,213.15" style="fill:#999;"/>
                <path d="M212.9,196.95C216.9,200.683 220.017,204.983 222.25,209.85C224.65,215.117 225.467,220.383 224.7,225.65C224.2,229.15 223.117,232.4 221.45,235.4L226.2,231.15C227.4,234.85 227.317,238.317 225.95,241.55C223.983,246.183 221.067,250.017 217.2,253.05C214.367,255.217 211.217,256.9 207.75,258.1C201.617,260.167 195.15,260.833 188.35,260.1C184.683,259.6 181.133,258.383 177.7,256.45L176.25,255.35C177.283,255.517 178.317,255.517 179.35,255.35C182.783,254.617 182.333,253.617 178,252.35C172,249.917 167.4,246.017 164.2,240.65C161.633,236.417 160.9,231.033 162,224.5C163.067,217.967 165.717,212.667 169.95,208.6C174.15,204.533 178.167,201.25 182,198.75C183.667,197.917 185.35,197.2 187.05,196.6L188.35,196.2C190.45,195.567 192.6,195.133 194.8,194.9C197.867,194.533 201.017,194.55 204.25,194.95L205.6,195.15C208.2,195.517 210.633,196.117 212.9,196.95M204.85,200.55L203.45,200.35C195.717,199.35 188.2,200.883 180.9,204.95C173.567,208.95 168.583,214.3 165.95,221C163.317,227.633 163.817,233.65 167.45,239.05C169.45,242.117 172.133,244.483 175.5,246.15C178.033,247.383 180.983,248.233 184.35,248.7C189.15,249.3 193.883,248.95 198.55,247.65C201.35,246.817 204.15,245.633 206.95,244.1C214.283,240.1 219.267,234.75 221.9,228.05C224.533,221.35 224.05,215.333 220.45,210C217.083,204.9 211.883,201.75 204.85,200.55M216.35,246.95L216.3,242.6C214.067,245.967 210.85,248.367 206.65,249.8C202.95,251 198.567,251.6 193.5,251.6C194.5,251.833 196.433,252.633 199.3,254C202.167,255.4 205.733,254.95 210,252.65C214.267,250.283 216.383,248.383 216.35,246.95" style="fill:#b38b5e;"/>
                <path d="M182,198.75C180.633,199.417 179.3,200.167 178,201C169.633,206.2 164.05,213.283 161.25,222.25C159.383,228.117 159.083,233.783 160.35,239.25C160.65,240.75 161.083,242.233 161.65,243.7L162.25,245.15L163.4,247.5C164.6,249.767 166,251.817 167.6,253.65C168.933,255.25 170.433,256.683 172.1,257.95L172.3,258.1C174.167,259.5 176.2,260.7 178.4,261.7C180.2,262.5 182.1,263.2 184.1,263.8L185.65,264.2L186.65,264.4L196.95,265.15C202.35,264.683 207.433,263.367 212.2,261.2C216.433,259.167 220.217,256.517 223.55,253.25C226.95,249.783 229.65,245.767 231.65,241.2C233.683,236.6 234.633,231.683 234.5,226.45C234.433,224.383 234.167,222.333 233.7,220.3C233.033,217.3 231.867,214.4 230.2,211.6C227.367,206.733 223.533,202.8 218.7,199.8C216.8,198.633 214.867,197.683 212.9,196.95C210.633,196.117 208.2,195.517 205.6,195.15L204.25,194.95C201.017,194.55 197.867,194.533 194.8,194.9C192.6,195.133 190.45,195.567 188.35,196.2L187.05,196.6C185.35,197.2 183.667,197.917 182,198.75M220.45,213.15C219.617,211.217 218.383,209.45 216.75,207.85C215.083,206.183 213.167,204.867 211,203.9C208.7,202.933 206.15,202.333 203.35,202.1L198.95,202L195.9,202.3C194.267,202.433 192.65,202.733 191.05,203.2C186.85,204.3 182.883,206.167 179.15,208.8C173.25,212.867 169.383,217.717 167.55,223.35C166.383,226.617 166.1,229.667 166.7,232.5L167.05,233.65L167.95,236.1L169.35,238.3L169.75,238.9C171.083,240.633 172.717,242.067 174.65,243.2C177.383,244.733 180.717,245.683 184.65,246.05C186.75,246.25 188.867,246.25 191,246.05L194.8,245.45C198.7,244.617 202.55,243.083 206.35,240.85C213.65,236.483 218.35,231 220.45,224.4C221.483,220.933 221.633,217.767 220.9,214.9L220.55,213.5L220.45,213.15" style="fill:none;fill-rule:nonzero;stroke:#2d2d2d;stroke-opacity:0.59;stroke-width:0.5px;"/>
                <path d="M254.9,234.2C258.4,234.967 261.867,235.233 265.3,235C262.667,235.767 259.2,235.5 254.9,234.2" style="fill:#805224;"/>
                <path d="M284.8,216.05C284.867,217.55 282.733,219.517 278.4,221.95C274.133,224.35 270.55,224.833 267.65,223.4C264.783,221.967 262.833,221.133 261.8,220.9C266.933,220.9 271.35,220.267 275.05,219C279.283,217.533 282.517,215.05 284.75,211.55L284.8,216.05" style="fill:#efc683;"/>
                <path d="M240.5,227.65L244.8,230.4L246.65,231.4C244.417,230.333 242.367,229.083 240.5,227.65" style="fill:url(#_Radial6);"/>
                <path d="M288.9,180.95C288.067,178.917 286.85,177.067 285.25,175.4C283.55,173.667 281.617,172.3 279.45,171.3C277.117,170.3 274.533,169.667 271.7,169.4C270.3,169.267 268.833,169.25 267.3,169.35L264.25,169.65C262.583,169.783 260.967,170.1 259.4,170.6C255.167,171.733 251.167,173.667 247.4,176.4C241.433,180.633 237.533,185.667 235.7,191.5C234.533,194.933 234.25,198.1 234.85,201L235.2,202.25L236.1,204.75C236.467,205.517 236.933,206.283 237.5,207.05L237.9,207.7C239.267,209.5 240.917,211 242.85,212.2C245.583,213.767 248.933,214.75 252.9,215.15C255.033,215.317 257.167,215.317 259.3,215.15L263.15,214.5C267.05,213.633 270.933,212.05 274.8,209.75C282.133,205.183 286.833,199.467 288.9,192.6C290,189 290.167,185.717 289.4,182.75L289.05,181.3L288.9,180.95M273.25,167.85C280.317,169.083 285.533,172.35 288.9,177.65C292.533,183.217 293.033,189.467 290.4,196.4C287.733,203.367 282.717,208.933 275.35,213.1C272.55,214.7 269.733,215.933 266.9,216.8C262.2,218.133 257.433,218.483 252.6,217.85C249.233,217.383 246.267,216.5 243.7,215.2C240.3,213.467 237.6,211.017 235.6,207.85C231.933,202.25 231.433,196 234.1,189.1C236.733,182.133 241.75,176.567 249.15,172.4C256.483,168.167 264.05,166.583 271.85,167.65L273.25,167.85" style="fill:url(#_Linear7);"/>
                <path d="M250.25,165.95C246.383,168.55 242.333,171.967 238.1,176.2C233.833,180.433 231.167,185.95 230.1,192.75C229,199.517 229.75,205.1 232.35,209.5C235.55,215.067 240.167,219.133 246.2,221.7C250.567,223 251.033,224.033 247.6,224.8C246.533,224.967 245.483,224.967 244.45,224.8L245.95,225.95C249.383,227.95 252.95,229.217 256.65,229.75C263.483,230.517 269.983,229.817 276.15,227.65C279.65,226.417 282.817,224.667 285.65,222.4C289.55,219.233 292.5,215.25 294.5,210.45C295.833,207.083 295.9,203.483 294.7,199.65L289.95,204.05C291.65,200.917 292.75,197.533 293.25,193.9C293.983,188.433 293.15,182.967 290.75,177.5C288.517,172.467 285.383,168 281.35,164.1C283.317,164.867 285.267,165.85 287.2,167.05C292.067,170.183 295.917,174.267 298.75,179.3C300.417,182.233 301.6,185.25 302.3,188.35C302.767,190.45 303.017,192.583 303.05,194.75C303.217,200.183 302.267,205.3 300.2,210.1C298.2,214.833 295.483,219 292.05,222.6C288.717,226.033 284.917,228.8 280.65,230.9C275.85,233.167 270.733,234.533 265.3,235C261.867,235.233 258.4,234.967 254.9,234.2L253.95,234L252.35,233.55L246.65,231.4L244.8,230.4L240.5,227.65L240.3,227.5C238.633,226.167 237.117,224.683 235.75,223.05C234.117,221.117 232.7,218.983 231.5,216.65L230.4,214.2L229.75,212.7C229.217,211.167 228.783,209.633 228.45,208.1C227.183,202.367 227.483,196.45 229.35,190.35C232.183,181.05 237.8,173.683 246.2,168.25C247.5,167.417 248.85,166.65 250.25,165.95" style="fill:#633f1d;"/>
                <path d="M237.9,207.7C237.033,205.033 236.917,202.067 237.55,198.8C238.617,193 241.8,187.667 247.1,182.8C250.5,179.633 254.217,177.183 258.25,175.45C259.783,174.783 261.367,174.267 263,173.9L266,173.15L270.3,172.6C273.133,172.367 275.767,172.583 278.2,173.25C280.533,173.817 282.65,174.8 284.55,176.2C286.383,177.533 287.833,179.117 288.9,180.95L289.05,181.3L289.4,182.75C290.167,185.717 290,189 288.9,192.6C286.833,199.467 282.133,205.183 274.8,209.75C270.933,212.05 267.05,213.633 263.15,214.5L259.3,215.15C257.167,215.317 255.033,215.317 252.9,215.15C248.933,214.75 245.583,213.767 242.85,212.2C240.917,211 239.267,209.5 237.9,207.7" style="fill:#fbf4f0;"/>
                <path d="M288.9,180.95C287.833,179.117 286.383,177.533 284.55,176.2C282.65,174.8 280.533,173.817 278.2,173.25C275.767,172.583 273.133,172.367 270.3,172.6L266,173.15L263,173.9C261.367,174.267 259.783,174.783 258.25,175.45C254.217,177.183 250.5,179.633 247.1,182.8C241.8,187.667 238.617,193 237.55,198.8C236.917,202.067 237.033,205.033 237.9,207.7L237.5,207.05C236.933,206.283 236.467,205.517 236.1,204.75L235.2,202.25L234.85,201C234.25,198.1 234.533,194.933 235.7,191.5C237.533,185.667 241.433,180.633 247.4,176.4C251.167,173.667 255.167,171.733 259.4,170.6C260.967,170.1 262.583,169.783 264.25,169.65L267.3,169.35C268.833,169.25 270.3,169.267 271.7,169.4C274.533,169.667 277.117,170.3 279.45,171.3C281.617,172.3 283.55,173.667 285.25,175.4C286.85,177.067 288.067,178.917 288.9,180.95" style="fill:#999;"/>
                <path d="M281.35,164.1C285.383,168 288.517,172.467 290.75,177.5C293.15,182.967 293.983,188.433 293.25,193.9C292.75,197.533 291.65,200.917 289.95,204.05L294.7,199.65C295.9,203.483 295.833,207.083 294.5,210.45C292.5,215.25 289.55,219.233 285.65,222.4C282.817,224.667 279.65,226.417 276.15,227.65C269.983,229.817 263.483,230.517 256.65,229.75C252.95,229.217 249.383,227.95 245.95,225.95L244.45,224.8C245.483,224.967 246.533,224.967 247.6,224.8C251.033,224.033 250.567,223 246.2,221.7C240.167,219.133 235.55,215.067 232.35,209.5C229.75,205.1 229,199.517 230.1,192.75C231.167,185.95 233.833,180.433 238.1,176.2C242.333,171.967 246.383,168.55 250.25,165.95C251.917,165.083 253.617,164.35 255.35,163.75L256.65,163.3C258.75,162.633 260.917,162.183 263.15,161.95C266.217,161.55 269.367,161.567 272.6,162L274,162.25C276.6,162.617 279.05,163.233 281.35,164.1M273.25,167.85L271.85,167.65C264.05,166.583 256.483,168.167 249.15,172.4C241.75,176.567 236.733,182.133 234.1,189.1C231.433,196 231.933,202.25 235.6,207.85C237.6,211.017 240.3,213.467 243.7,215.2C246.267,216.5 249.233,217.383 252.6,217.85C257.433,218.483 262.2,218.133 266.9,216.8C269.733,215.933 272.55,214.7 275.35,213.1C282.717,208.933 287.733,203.367 290.4,196.4C293.033,189.467 292.533,183.217 288.9,177.65C285.533,172.35 280.317,169.083 273.25,167.85M284.8,216.05L284.75,211.55C282.517,215.05 279.283,217.533 275.05,219C271.35,220.267 266.933,220.9 261.8,220.9C262.833,221.133 264.783,221.967 267.65,223.4C270.55,224.833 274.133,224.35 278.4,221.95C282.733,219.517 284.867,217.55 284.8,216.05" style="fill:#b38b5e;"/>
                <path d="M288.9,180.95C288.067,178.917 286.85,177.067 285.25,175.4C283.55,173.667 281.617,172.3 279.45,171.3C277.117,170.3 274.533,169.667 271.7,169.4C270.3,169.267 268.833,169.25 267.3,169.35L264.25,169.65C262.583,169.783 260.967,170.1 259.4,170.6C255.167,171.733 251.167,173.667 247.4,176.4C241.433,180.633 237.533,185.667 235.7,191.5C234.533,194.933 234.25,198.1 234.85,201L235.2,202.25L236.1,204.75C236.467,205.517 236.933,206.283 237.5,207.05L237.9,207.7C239.267,209.5 240.917,211 242.85,212.2C245.583,213.767 248.933,214.75 252.9,215.15C255.033,215.317 257.167,215.317 259.3,215.15L263.15,214.5C267.05,213.633 270.933,212.05 274.8,209.75C282.133,205.183 286.833,199.467 288.9,192.6C290,189 290.167,185.717 289.4,182.75L289.05,181.3L288.9,180.95M250.25,165.95C248.85,166.65 247.5,167.417 246.2,168.25C237.8,173.683 232.183,181.05 229.35,190.35C227.483,196.45 227.183,202.367 228.45,208.1C228.783,209.633 229.217,211.167 229.75,212.7L230.4,214.2L231.5,216.65C232.7,218.983 234.117,221.117 235.75,223.05C237.117,224.683 238.633,226.167 240.3,227.5L240.5,227.65C242.367,229.083 244.417,230.333 246.65,231.4L252.35,233.55L253.95,234L254.9,234.2C258.4,234.967 261.867,235.233 265.3,235C270.733,234.533 275.85,233.167 280.65,230.9C284.917,228.8 288.717,226.033 292.05,222.6C295.483,219 298.2,214.833 300.2,210.1C302.267,205.3 303.217,200.183 303.05,194.75C303.017,192.583 302.767,190.45 302.3,188.35C301.6,185.25 300.417,182.233 298.75,179.3C295.917,174.267 292.067,170.183 287.2,167.05C285.267,165.85 283.317,164.867 281.35,164.1C279.05,163.233 276.6,162.617 274,162.25L272.6,162C269.367,161.567 266.217,161.55 263.15,161.95C260.917,162.183 258.75,162.633 256.65,163.3L255.35,163.75C253.617,164.35 251.917,165.083 250.25,165.95" style="fill:none;fill-rule:nonzero;stroke:#2d2d2d;stroke-opacity:0.59;stroke-width:0.5px;"/>
                <path d="M336.6,177.25L351.95,164.9C364.25,154.433 374.467,141.683 382.6,126.65C387.767,116.683 390.933,106.517 392.1,96.15L392.65,89.3C392.75,83.3 392.317,77.233 391.35,71.1C387.35,49.333 375.65,35.667 356.25,30.1C351.517,28.7 346.933,27.95 342.5,27.85C336.467,27.617 330.617,28.417 324.95,30.25L334.4,26.7C323.833,28.667 317.083,30.25 314.15,31.45C311.217,32.65 308.733,34.083 306.7,35.75L300.75,41.1L297.45,44.4C294.65,47.267 292.15,50.383 289.95,53.75C288.517,55.95 287.367,58.183 286.5,60.45L284.3,66.15L283.85,67.3C282.283,71.3 280.9,75.4 279.7,79.6C278.267,84.433 277.717,89.45 278.05,94.65L278.6,104.9L279.15,115.6L284.55,112C287.083,110.6 289.783,110.017 292.65,110.25C293.75,110.483 294.75,110.883 295.65,111.45L296,111.65L295,112.35C292.5,114.283 290.917,116.867 290.25,120.1C289.95,121.533 290.15,122.783 290.85,123.85C293.083,127.183 295.783,127.95 298.95,126.15L295.55,133.15L293.95,133.6C290.95,131.667 287.9,129.917 284.8,128.35C281.167,126.617 278.383,123.95 276.45,120.35L276.75,128.5L283.4,131.75L280,132.2C278.4,131.833 276.917,132.283 275.55,133.55C274.317,134.517 273.6,135.767 273.4,137.3L275,138.45C280.933,143.65 287.8,146.267 295.6,146.3C293.267,149.067 290.117,150.867 286.15,151.7C278.283,153.267 271.867,151.05 266.9,145.05C265.233,142.983 264.4,140.683 264.4,138.15C264.3,129.917 268.083,123.95 275.75,120.25C271.75,102.25 271.367,85.2 274.6,69.1C277.433,54.867 284.717,43.183 296.45,34.05C314.583,19.917 334.5,15.117 356.2,19.65C378.5,24.417 393.167,37.75 400.2,59.65C402.3,66.217 403.633,72.783 404.2,79.35L402.7,87.35L402.7,87.4L402.6,87.7L400.65,98.2L399.5,103.75L397,113.65L395.4,118.75L393.3,123.65C391.667,126.75 389.85,129.767 387.85,132.7L382.05,141.35C380.05,144.35 377.883,147.217 375.55,149.95L360.85,165.75C358.483,168.417 356,170.783 353.4,172.85C350.667,174.983 347.633,176.533 344.3,177.5L336.6,177.25M282.2,96.75L282.2,98.1L282,98.7L282.2,96.75M397.9,119.65L397.85,119.7L397.85,119.75L395.4,118.75L397.9,119.65M299.85,116.3L300.55,116.2L322.45,101L323.3,109.05L338.75,108.2L331.3,117.85L334.2,120.8L333.85,120.7C331.017,120.233 328.333,119.4 325.8,118.2C324,117.367 322.233,117.367 320.5,118.2C319.067,118.933 317.917,119.867 317.05,121C318.683,121.833 320.483,122.45 322.45,122.85C320.483,123.083 318.567,123.433 316.7,123.9L311.3,124.5C309.5,124.433 307.717,124.1 305.95,123.5C302.45,122.3 300.133,122.85 299,125.15C295.433,122.65 295.217,120.133 298.35,117.6C299.183,117.467 299.683,117.033 299.85,116.3M342.75,274.1L348.75,265.8C352.617,261.333 353.633,257.267 351.8,253.6L349.3,250.55L357.3,250.8L367.3,238.9L366.2,248.9L383.1,251.1L379.65,252.8L378.5,252.95C377.133,253.217 375.8,253.583 374.5,254.05L363.55,257.6C364.383,258.333 365.017,259.133 365.45,260L366.2,259.4L366.45,264.4L361.2,263.3L361.45,262.55C360.15,262.117 359,261.383 358,260.35C357.733,262.65 356.833,264.533 355.3,266L353.15,267.35C350.617,268.55 347.1,271.633 342.6,276.6L342.75,274.1M357.35,270.45L357.25,270.65L356.95,271.15L359.75,272.9L359.9,270.95L362.6,271.3L366.75,276.85C364.117,274.317 361.4,273.517 358.6,274.45L357.95,274.7C356.717,275.267 356,276.35 355.8,277.95C355.233,281.783 355.7,285.45 357.2,288.95L357.8,290.2C358.533,291.733 359.717,292.167 361.35,291.5L361.5,291.55C363.8,291.283 365.65,290.583 367.05,289.45L370.6,289.05L370.6,291.25L370.3,290.9C367.933,293.233 365.3,295.383 362.4,297.35C362.467,296.083 362.067,295.117 361.2,294.45C361.2,295.95 361.45,297.017 361.95,297.65L358.3,299.85L355.05,301.1C355.583,300.333 355.867,299.45 355.9,298.45C355.867,296.683 355.967,294.933 356.2,293.2C356.233,292.867 356.1,292.45 355.8,291.95C355,293.517 354.55,295.183 354.45,296.95C354.283,298.383 354.45,299.767 354.95,301.1C353.517,301.4 352.05,301.417 350.55,301.15C349.683,302.583 348.683,303.617 347.55,304.25L343.9,303.5C343.067,303.167 342.333,302.75 341.7,302.25L341.6,299.45C341.4,298.283 341.333,297.167 341.4,296.1C340.7,297.1 340.233,298.167 340,299.3C339.033,299.633 338.25,299.483 337.65,298.85C337.15,298.25 336.817,297.583 336.65,296.85L336.3,296.1L335.8,295C335.967,293.8 336.267,292.65 336.7,291.55L336.3,291.4L335.55,292.3C335.583,291.567 335.733,290.867 336,290.2C336.233,289.7 336.233,289.317 336,289.05L334.9,289.1C334.067,288.6 333.617,287.617 333.55,286.15L333.8,285.75C334.3,284.65 334.533,283.75 334.5,283.05L333.7,284L333.4,284.45C333.233,283.517 332.95,282.617 332.55,281.75C332.15,280.883 332,280 332.1,279.1L333.55,277.2C334.883,275.8 336.383,274.667 338.05,273.8C336.917,273.567 335.883,273.717 334.95,274.25L332.85,275.65L332.9,274.35C332.9,273.05 333.433,272.067 334.5,271.4L333.95,270.45L334.1,270.45L335.2,270.2C336.767,269.9 338.517,270.15 340.45,270.95C340.15,271.717 339.95,272.55 339.85,273.45C339.617,275.017 339.5,276.633 339.5,278.3C338.733,281.5 338.817,284.733 339.75,288C340.817,291.867 342.767,295.233 345.6,298.1L346.1,297.55C343.7,293.583 342.667,290.7 343,288.9L342.85,287.1C342.417,284.367 343.45,281.067 345.95,277.2L346.35,276.6C348.817,275.8 350.85,275.45 352.45,275.55L354.15,275.6C353.117,274.667 351.917,274.167 350.55,274.1L348,274.25L348.75,273.25C349.75,271.817 351.133,270.967 352.9,270.7L355.8,270.4L357.35,270.45M312.7,287.95L312.1,286.25C311.2,283.617 310.517,281.317 310.05,279.35C309.517,277.35 309.083,275.3 308.75,273.2L307.85,269.05L307.25,269.5L307.75,268.95L307.8,268.85L307.65,268.55L307.75,268.55L308.25,268.3L309.05,267.3L308.65,267.8L308.55,267.95L308.95,268.3C313.317,265.133 316.35,265.133 318.05,268.3C317.883,272.9 317.45,277.067 316.75,280.8C316.05,284.567 314.7,286.95 312.7,287.95M323.7,283.05L326.3,281.85L326.75,284.75C327.017,287.083 327.633,289.317 328.6,291.45C329.667,293.75 331.033,295.817 332.7,297.65L332.5,296.65L333.2,296.5L334.05,296.35C334.117,296.95 334.233,297.45 334.4,297.85L334.05,298.15L334.05,298.1L333.2,296.5L334.25,303.1L331.75,305.1C331.583,303.9 331.183,302.833 330.55,301.9L330.35,304.1L330.35,304C330.15,301.9 328.75,301.167 326.15,301.8L323.55,301.55L323.6,301.1C323.667,300.1 323.9,299.15 324.3,298.25L323.3,298L321.75,299.9L321.75,299.85C320.75,298.417 320.217,296.8 320.15,295C320.117,293.867 320.183,292.767 320.35,291.7L322.6,287.65L321.25,288.05L321.3,287.4L321.45,285.05C322.05,284.25 322.8,283.583 323.7,283.05M350.5,282.2L349.5,283C348.067,284.1 347.183,285.583 346.85,287.45C346.583,289.117 346.467,290.8 346.5,292.5L348.65,286.2C349.017,284.867 349.767,283.717 350.9,282.75L350.5,282.2M345.4,298.5L344.6,298.9C345.233,300.433 346.3,301.25 347.8,301.35C347.533,299.817 346.733,298.867 345.4,298.5" style="fill:#807c59;"/>
                <path d="M336.6,177.25L344.3,177.5C347.633,176.533 350.667,174.983 353.4,172.85C356,170.783 358.483,168.417 360.85,165.75L375.55,149.95C377.883,147.217 380.05,144.35 382.05,141.35L387.85,132.7C389.85,129.767 391.667,126.75 393.3,123.65L395.4,118.75L397,113.65L399.5,103.75L400.65,98.2L402.6,87.7L402.7,87.4L402.7,87.35L404.2,79.35C404.433,82.117 404.533,84.883 404.5,87.65L404.5,87.8C404.367,98.467 402.167,109.083 397.9,119.65L395.4,118.75L397.85,119.75L396.8,122.3L395.7,124.75L395.65,124.85C387.483,142.75 376.25,158.367 361.95,171.7C350.017,182.733 340.233,192.317 332.6,200.45C331.867,194.117 330.667,188.267 329,182.9L336.6,177.25M295.6,146.3C287.8,146.267 280.933,143.65 275,138.45L273.4,137.3C273.6,135.767 274.317,134.517 275.55,133.55C276.917,132.283 278.4,131.833 280,132.2L283.4,131.75L276.75,128.5L276.45,120.35C278.383,123.95 281.167,126.617 284.8,128.35C287.9,129.917 290.95,131.667 293.95,133.6L295.55,133.15L298.95,126.15C295.783,127.95 293.083,127.183 290.85,123.85C290.15,122.783 289.95,121.533 290.25,120.1C290.917,116.867 292.5,114.283 295,112.35L296,111.65C297.767,112.917 298.9,114.467 299.4,116.3L299.85,116.3C299.683,117.033 299.183,117.467 298.35,117.6C295.217,120.133 295.433,122.65 299,125.15C300.133,122.85 302.45,122.3 305.95,123.5C307.717,124.1 309.5,124.433 311.3,124.5L316.7,123.9C318.567,123.433 320.483,123.083 322.45,122.85C320.483,122.45 318.683,121.833 317.05,121C317.917,119.867 319.067,118.933 320.5,118.2C322.233,117.367 324,117.367 325.8,118.2C328.333,119.4 331.017,120.233 333.85,120.7L334.2,120.8L334.9,121.5L330.6,121.65L329.9,128.15L305.8,126.05L307.65,127.35C308.617,128.15 309.417,129.1 310.05,130.2C312.45,133.167 313.983,136.683 314.65,140.75C315.217,143.85 315.067,146.95 314.2,150.05L312.6,150.55L298.5,141.35C297.733,143.25 296.767,144.9 295.6,146.3M284.55,112L279.15,115.6L278.6,104.9L278.05,94.65C277.717,89.45 278.267,84.433 279.7,79.6C280.9,75.4 282.283,71.3 283.85,67.3L284.3,66.15L286.5,60.45C287.367,58.183 288.517,55.95 289.95,53.75C292.15,50.383 294.65,47.267 297.45,44.4L300.75,41.1L306.7,35.75C308.733,34.083 311.217,32.65 314.15,31.45C317.083,30.25 323.833,28.667 334.4,26.7L324.95,30.25C323.75,30.583 322.567,30.983 321.4,31.45L320.15,32C314.083,34.533 308.233,38.25 302.6,43.15C294.833,49.683 289.35,57.6 286.15,66.9L285.9,67.75C284.933,70.583 284.2,73.533 283.7,76.6C282.5,83.333 282,90.05 282.2,96.75L282,98.7L282.2,98.1C282.3,102.1 282.717,106.3 283.45,110.7L283.75,112.4L284.55,112M379.65,252.8L366.2,259.4L365.45,260C365.017,259.133 364.383,258.333 363.55,257.6L374.5,254.05C375.8,253.583 377.133,253.217 378.5,252.95L379.65,252.8M361.2,263.3L357.35,270.45L355.8,270.4L352.9,270.7C351.133,270.967 349.75,271.817 348.75,273.25L348,274.25L350.55,274.1C351.917,274.167 353.117,274.667 354.15,275.6L352.45,275.55C350.85,275.45 348.817,275.8 346.35,276.6L345.95,277.2C343.45,281.067 342.417,284.367 342.85,287.1L343,288.9C342.667,290.7 343.7,293.583 346.1,297.55L345.6,298.1C342.767,295.233 340.817,291.867 339.75,288C338.817,284.733 338.733,281.5 339.5,278.3C339.5,276.633 339.617,275.017 339.85,273.45C339.95,272.55 340.15,271.717 340.45,270.95L340.7,271.05L342.7,274.15L342.75,274.1L342.6,276.6C347.1,271.633 350.617,268.55 353.15,267.35L355.3,266C356.833,264.533 357.733,262.65 358,260.35C359,261.383 360.15,262.117 361.45,262.55L361.2,263.3M357.25,270.65L359.75,270.95L359.9,270.95L359.75,272.9L356.95,271.15L357.25,270.65M366.75,276.85L358.7,275.75L357.3,288.2C357.167,288.433 357.167,288.683 357.3,288.95C357.6,289.683 358.95,290.533 361.35,291.5C359.717,292.167 358.533,291.733 357.8,290.2L357.2,288.95C355.7,285.45 355.233,281.783 355.8,277.95C356,276.35 356.717,275.267 357.95,274.7L358.6,274.45C361.4,273.517 364.117,274.317 366.75,276.85M370.6,291.25L368.95,295.95C366.083,299.35 362.117,301.667 357.05,302.9C354.65,303.6 352.95,303.517 351.95,302.65C351.517,302.317 351.217,301.85 351.05,301.25L351.5,303.45C350.633,305.283 349.367,306.683 347.7,307.65C346.5,308.317 345.1,308.75 343.5,308.95C339.533,308.25 337.133,306.317 336.3,303.15L336.25,302.85L336,307.6L332.95,310.95C331.25,310.283 329.55,309.433 327.85,308.4L325.7,307L325.75,306.9L328.65,306.5L329.35,306.3C329.817,305.6 330.15,304.867 330.35,304.1L330.55,301.9C331.183,302.833 331.583,303.9 331.75,305.1L334.25,303.1L333.2,296.5L334.05,298.1L334.05,298.15C335.35,300.35 337.2,302.083 339.6,303.35L341.35,304.25L341.4,304.25C343.733,305.15 345.783,305.15 347.55,304.25C348.683,303.617 349.683,302.583 350.55,301.15C352.05,301.417 353.517,301.4 354.95,301.1C354.45,299.767 354.283,298.383 354.45,296.95C354.55,295.183 355,293.517 355.8,291.95C356.1,292.45 356.233,292.867 356.2,293.2C355.967,294.933 355.867,296.683 355.9,298.45C355.867,299.45 355.583,300.333 355.05,301.1L358.3,299.85L361.95,297.65C361.45,297.017 361.2,295.95 361.2,294.45C362.067,295.117 362.467,296.083 362.4,297.35C365.3,295.383 367.933,293.233 370.3,290.9L370.6,291.25M323.8,305.6L320.35,302.65L320.25,302.55L321.75,299.9L323.3,298L324.3,298.25C323.9,299.15 323.667,300.1 323.6,301.1L323.55,301.55C323.55,302.417 323.717,303.25 324.05,304.05C324.217,304.55 324.133,305.067 323.8,305.6M319.35,301.45C317.883,300.55 316.55,298.483 315.35,295.25L315.05,294.4L312.7,287.95C314.7,286.95 316.05,284.567 316.75,280.8C317.45,277.067 317.883,272.9 318.05,268.3C316.35,265.133 313.317,265.133 308.95,268.3L308.55,267.95L308.65,267.8L309.05,267.3C312.817,262.6 315.517,259.05 317.15,256.65C317.183,260.517 317.617,264.367 318.45,268.2C319.517,273.233 321.267,278.183 323.7,283.05C322.8,283.583 322.05,284.25 321.45,285.05C321.183,285.35 320.967,285.683 320.8,286.05C320.233,287.05 319.783,288.05 319.45,289.05C320.017,288.617 320.617,288.283 321.25,288.05L322.6,287.65L320.35,291.7L318.8,293.75L318.45,294.25C318.317,296.55 318.617,298.95 319.35,301.45M326.3,281.85L329.65,284.25L329.65,282.45C330.283,283.883 330.717,285.3 330.95,286.7L331.15,288.05L333.4,284.45L333.7,284L334.5,283.05C334.533,283.75 334.3,284.65 333.8,285.75L333.55,286.15L332.6,288.7L332.05,290.2L331.75,290.5C331.383,290.167 331.35,290.683 331.65,292.05L332.5,296.65L332.7,297.65C331.033,295.817 329.667,293.75 328.6,291.45C327.633,289.317 327.017,287.083 326.75,284.75L326.3,281.85M332.85,275.65L334.95,274.25C335.883,273.717 336.917,273.567 338.05,273.8C336.383,274.667 334.883,275.8 333.55,277.2L332.1,279.1L331.7,279.7C331.067,279.267 330.833,278.4 331,277.1L332.85,275.65M335.55,292.3L336.3,291.4L336.7,291.55C336.267,292.65 335.967,293.8 335.8,295L335.65,297.2L335.3,298.85C334.9,298.65 334.6,298.317 334.4,297.85C334.233,297.45 334.117,296.95 334.05,296.35L334.05,296.1C334.217,294.667 334.717,293.4 335.55,292.3M340,299.3C340.233,298.167 340.7,297.1 341.4,296.1C341.333,297.167 341.4,298.283 341.6,299.45L341.7,302.25L341.4,304.15L340.2,302.9C339.933,302.367 339.8,301.767 339.8,301.1L340,299.3M350.5,282.2L350.9,282.75C349.767,283.717 349.017,284.867 348.65,286.2L346.5,292.5C346.467,290.8 346.583,289.117 346.85,287.45C347.183,285.583 348.067,284.1 349.5,283L350.5,282.2M345.4,298.5C346.733,298.867 347.533,299.817 347.8,301.35C346.3,301.25 345.233,300.433 344.6,298.9L345.4,298.5" style="fill:#666148;"/>
                <path d="M325.7,307L325,306.55L323.8,305.6C324.133,305.067 324.217,304.55 324.05,304.05C323.717,303.25 323.55,302.417 323.55,301.55L326.15,301.8C328.75,301.167 330.15,301.9 330.35,304L330.35,304.1C330.15,304.867 329.817,305.6 329.35,306.3L328.65,306.5L325.75,306.9L325.7,307M320.25,302.55L320,301.75L319.35,301.45C318.617,298.95 318.317,296.55 318.45,294.25L318.8,293.75L320.35,291.7C320.183,292.767 320.117,293.867 320.15,295C320.217,296.8 320.75,298.417 321.75,299.85L321.75,299.9L320.25,302.55M329.65,282.45L329.7,275.2C329.567,274.7 329.55,274.383 329.65,274.25C330.883,272.35 332.317,271.083 333.95,270.45L334.5,271.4C333.433,272.067 332.9,273.05 332.9,274.35L332.85,275.65L331,277.1C330.833,278.4 331.067,279.267 331.7,279.7L332.1,279.1C332,280 332.15,280.883 332.55,281.75C332.95,282.617 333.233,283.517 333.4,284.45L331.15,288.05L330.95,286.7C330.717,285.3 330.283,283.883 329.65,282.45M333.55,286.15C333.617,287.617 334.067,288.6 334.9,289.1L336,289.05C336.233,289.317 336.233,289.7 336,290.2C335.733,290.867 335.583,291.567 335.55,292.3C334.717,293.4 334.217,294.667 334.05,296.1L334.05,296.35L333.2,296.5L332.5,296.65L331.65,292.05C331.35,290.683 331.383,290.167 331.75,290.5L332.05,290.2L332.6,288.7L333.55,286.15M335.8,295L336.3,296.1L336.65,296.85C336.817,297.583 337.15,298.25 337.65,298.85C338.25,299.483 339.033,299.633 340,299.3L339.8,301.1C339.8,301.767 339.933,302.367 340.2,302.9L341.4,304.15L341.7,302.25C342.333,302.75 343.067,303.167 343.9,303.5L347.55,304.25C345.783,305.15 343.733,305.15 341.4,304.25L341.35,304.25L339.6,303.35C337.2,302.083 335.35,300.35 334.05,298.15L334.4,297.85C334.6,298.317 334.9,298.65 335.3,298.85L335.65,297.2L335.8,295M321.25,288.05C320.617,288.283 320.017,288.617 319.45,289.05C319.783,288.05 320.233,287.05 320.8,286.05C320.967,285.683 321.183,285.35 321.45,285.05L321.3,287.4L321.25,288.05" style="fill:#a7a083;"/>
                <path d="M208.9,168.55C219.933,162.517 233.233,159.5 248.8,159.5C264.367,159.5 277.683,162.517 288.75,168.55C299.783,174.617 305.3,181.95 305.3,190.55C305.3,199.117 299.783,206.417 288.75,212.45C277.683,218.483 264.367,221.517 248.8,221.55C237.133,221.517 226.75,219.8 217.65,216.4L217.05,215.5C216.65,215.167 216.167,215.017 215.6,215.05L214.6,215.2C212.633,214.367 210.733,213.45 208.9,212.45C197.833,206.417 192.317,199.117 192.35,190.55C192.317,181.95 197.833,174.617 208.9,168.55M217.2,212.4L217.15,212.05L216.55,211.15C216.15,210.817 215.667,210.65 215.1,210.65L214.15,210.9L213.65,211.15C213.25,211.517 213.05,211.933 213.05,212.4C213.05,212.867 213.25,213.267 213.65,213.6C214.05,213.933 214.533,214.1 215.1,214.1C215.667,214.1 216.15,213.933 216.55,213.6C216.95,213.267 217.167,212.867 217.2,212.4" style="fill:#382816;fill-opacity:0.47;"/>
                <path d="M185.85,219.45L185.35,212.2L192.95,215.2L190.95,217.2L193.05,221.35C193.983,220.883 194.933,220.7 195.9,220.8C197.2,220.9 198.15,221.433 198.75,222.4C199.017,222.833 199.167,223.333 199.2,223.9C199.233,224.433 199.133,225.05 198.9,225.75C198.4,227.017 197.533,228.05 196.3,228.85C195.033,229.617 193.767,229.933 192.5,229.8C191.867,229.767 191.367,229.633 191,229.4L184.75,235.55L186.3,237.6L178.45,239.8L180.6,232.8L182.7,234.45L189.5,227.85C189.167,227.017 189.167,226.083 189.5,225.05C189.767,224.317 190.2,223.65 190.8,223.05L190.8,223L188.1,218.5L185.85,219.45" style="fill:#c8c8c8;"/>
                <path d="M217.2,212.4C217.167,212.867 216.95,213.267 216.55,213.6C216.15,213.933 215.667,214.1 215.1,214.1C214.533,214.1 214.05,213.933 213.65,213.6C213.25,213.267 213.05,212.867 213.05,212.4C213.05,211.933 213.25,211.517 213.65,211.15L214.15,210.9L215.1,210.65C215.667,210.65 216.15,210.817 216.55,211.15L217.15,212.05L217.2,212.4M214,227.05C213.433,227.05 212.95,226.867 212.55,226.5C212.15,226.2 211.95,225.817 211.95,225.35C211.95,224.883 212.15,224.467 212.55,224.1C212.95,223.767 213.433,223.6 214,223.6C214.533,223.6 215.017,223.767 215.45,224.1C215.85,224.467 216.067,224.883 216.1,225.35C216.067,225.817 215.85,226.2 215.45,226.5C215.017,226.867 214.533,227.05 214,227.05M206.5,234.35C207.067,234.317 207.567,234.467 208,234.8C208.4,235.167 208.6,235.6 208.6,236.1C208.6,236.533 208.4,236.917 208,237.25C207.567,237.617 207.067,237.8 206.5,237.8C205.933,237.8 205.45,237.617 205.05,237.25C204.65,236.917 204.45,236.533 204.45,236.1C204.45,235.6 204.65,235.167 205.05,234.8C205.45,234.467 205.933,234.317 206.5,234.35M195.9,207.95C195.467,208.317 194.967,208.5 194.4,208.5C193.833,208.5 193.35,208.317 192.95,207.95C192.55,207.617 192.35,207.217 192.35,206.75C192.35,206.283 192.55,205.883 192.95,205.55C193.35,205.217 193.833,205.05 194.4,205.05C194.967,205.05 195.467,205.217 195.9,205.55C196.3,205.883 196.5,206.283 196.5,206.75C196.5,207.217 196.3,207.617 195.9,207.95M180.55,215.75C179.983,215.717 179.5,215.517 179.1,215.15C178.7,214.817 178.5,214.433 178.5,214C178.5,213.533 178.7,213.117 179.1,212.75C179.5,212.417 179.983,212.25 180.55,212.25C181.117,212.25 181.6,212.417 182,212.75C182.4,213.117 182.617,213.533 182.65,214C182.617,214.433 182.4,214.817 182,215.15C181.6,215.517 181.117,215.717 180.55,215.75M174.4,224.9C174.8,225.267 175,225.7 175,226.2C175,226.633 174.8,227.017 174.4,227.35C174,227.717 173.517,227.9 172.95,227.9C172.383,227.9 171.9,227.717 171.5,227.35C171.067,227.017 170.85,226.633 170.85,226.2C170.85,225.7 171.067,225.267 171.5,224.9C171.9,224.567 172.383,224.417 172.95,224.45C173.517,224.417 174,224.567 174.4,224.9M176.75,240C176.35,240.367 175.867,240.567 175.3,240.6C174.733,240.567 174.25,240.367 173.85,240C173.417,239.667 173.2,239.283 173.2,238.85C173.2,238.383 173.417,237.967 173.85,237.6C174.25,237.267 174.733,237.1 175.3,237.1C175.867,237.1 176.35,237.267 176.75,237.6C177.15,237.967 177.367,238.383 177.4,238.85C177.367,239.283 177.15,239.667 176.75,240M189.5,240.3C189.9,239.967 190.383,239.8 190.95,239.8C191.483,239.8 191.967,239.967 192.4,240.3C192.8,240.667 193.017,241.083 193.05,241.55C193.017,242.017 192.8,242.417 192.4,242.75C191.967,243.083 191.483,243.25 190.95,243.25C190.383,243.25 189.9,243.083 189.5,242.75C189.067,242.417 188.867,242.017 188.9,241.55C188.867,241.083 189.067,240.667 189.5,240.3" style="fill:#5a5a5a;"/>
                <path d="M199.15,225.45C198.583,226.717 197.65,227.717 196.35,228.45C195.017,229.15 193.683,229.383 192.35,229.15L190.7,228.6L183.35,234.6L184.9,236.95L175.6,238.9L178.9,231.3L181.15,233.25L189.3,226.8C188.967,225.9 189.067,224.95 189.6,223.95C189.9,223.217 190.35,222.6 190.95,222.1L191.05,222L188.55,217.15L186.05,217.85L186.2,210.65L193.8,214.55L191.6,216.2L193.55,220.55L196.35,220.3C197.717,220.533 198.667,221.15 199.2,222.15C199.767,223.15 199.75,224.25 199.15,225.45"/>
                <path d="M217.1,210.2L215.6,209.1L215.25,207.9L215.5,194.9C212.5,200.7 209.35,204.133 206.05,205.2C204.983,205.567 204.05,205.967 203.25,206.4L201.6,206.6L199.25,204.35L197.6,202.25C196.633,198.25 197.533,194.867 200.3,192.1L200.2,192.05C197.7,193.85 194.683,194.7 191.15,194.6C189.083,194.5 187.417,193.767 186.15,192.4C186.65,190.367 188.033,188.05 190.3,185.45C190.8,184.85 191.45,184.4 192.25,184.1L189.25,183.6L183.75,178.6C180.383,165.467 183.267,154.433 192.4,145.5C197.333,140.7 202.667,136.55 208.4,133.05C211.667,130.983 215.083,129.117 218.65,127.45C221.65,126.05 224.717,124.95 227.85,124.15C232.883,122.75 238.117,122.117 243.55,122.25L247.5,124.45L252.85,128L253.1,131.25C253.567,135.417 252.217,138.167 249.05,139.5L250.4,140L250.95,140.1L252.35,140.1C255.75,139.8 259,138.95 262.1,137.55L264.45,136.95C272.183,135.083 280.017,134.567 287.95,135.4C297.95,135.933 305.383,140.6 310.25,149.4L309.35,149.55C308.783,151.45 308.333,153.367 308,155.3L307.65,157.55L306.85,159.8C305.083,163.867 301.483,170.167 296.05,178.7C288.05,191.1 278.033,195.95 266,193.25C277.567,196.183 273.75,198.85 254.55,201.25C246.717,201.083 240.4,198.483 235.6,193.45L234.95,192.75L235.3,194C234.4,197.133 232.9,200.033 230.8,202.7C228.6,205.633 225.75,207.4 222.25,208C220.083,208.367 218.367,209.1 217.1,210.2M201.4,145.6L202.85,144.35C206.217,141.617 209.3,139.383 212.1,137.65C214,136.483 215.8,135.533 217.5,134.8C221.667,132.9 225.867,131.55 230.1,130.75L230.35,130.75C233.417,130.85 234.95,132.733 234.95,136.4C234.95,140.067 235.233,143.367 235.8,146.3L244.8,144L235.8,146.3C235.233,143.367 234.95,140.067 234.95,136.4C234.95,132.733 233.417,130.85 230.35,130.75L230.1,130.75C225.867,131.55 221.667,132.9 217.5,134.8C215.8,135.533 214,136.483 212.1,137.65C209.3,139.383 206.217,141.617 202.85,144.35L201.4,145.6C196.867,149.567 194.95,153.233 195.65,156.6C196.35,160.233 199.367,162.4 204.7,163.1C206.5,163.333 208.333,163.367 210.2,163.2L210.2,162.9C207.933,162.667 205.617,161.867 203.25,160.5C200.85,159.067 199.533,157 199.3,154.3C199.067,151.633 199.767,148.733 201.4,145.6M244.95,145.65L246.1,150.9L249.05,150.25C253.45,148.883 257.967,147.6 262.6,146.4C268.467,144.667 274.4,144.067 280.4,144.6C285.933,145.267 289.85,148.2 292.15,153.4C294.45,158.633 293.783,163.583 290.15,168.25C287.35,171.85 284,174.783 280.1,177.05C278.267,178.15 276.317,178.967 274.25,179.5L268.35,180.2L274.25,179.5C276.317,178.967 278.267,178.15 280.1,177.05C284,174.783 287.35,171.85 290.15,168.25C293.783,163.583 294.45,158.633 292.15,153.4C289.85,148.2 285.933,145.267 280.4,144.6C274.4,144.067 268.467,144.667 262.6,146.4C257.967,147.6 253.45,148.883 249.05,150.25L246.1,150.9L244.95,145.65M216.2,146.65C217.367,146.183 218.817,145.85 220.55,145.65C223.283,145.05 225.233,146.1 226.4,148.8C226.667,149.8 226.8,150.783 226.8,151.75C226.767,155.25 224.667,158.05 220.5,160.15C218.8,160.983 217.117,161.667 215.45,162.2L210.2,163.2L215.45,162.2C217.117,161.667 218.8,160.983 220.5,160.15C224.667,158.05 226.767,155.25 226.8,151.75C226.8,150.783 226.667,149.8 226.4,148.8C225.233,146.1 223.283,145.05 220.55,145.65C218.817,145.85 217.367,146.183 216.2,146.65L214.9,147.3C213.867,147.967 213.267,148.767 213.1,149.7C212.667,151.8 213.317,152.917 215.05,153.05L217.5,152.6C215.7,151.267 215.267,149.283 216.2,146.65M219.3,151.05L217.5,152.6L219.3,151.05M211.5,180.75L214.4,176.6C211.5,177.633 208.567,178.95 205.6,180.55C202.133,182.45 200.967,184.183 202.1,185.75C202.467,186.317 203.15,186.867 204.15,187.4C205.483,187.833 206.683,187.3 207.75,185.8L211.5,180.75M214.5,191.35L214.7,191.55L218.3,191.75C219.3,191.75 219.867,191.45 220,190.85C220.433,189.15 220.733,187.467 220.9,185.8C221.1,183.633 221.067,181.5 220.8,179.4C220,180.767 218.75,182.05 217.05,183.25C213.117,185.983 212.267,188.683 214.5,191.35M201.2,191.2L200.3,192.1L201.2,191.2M200.35,180.4L192.25,184.1L200.35,180.4M264.6,158.05L265.45,157.8C266.883,157.733 267.75,158.05 268.05,158.75C267.75,158.05 266.883,157.733 265.45,157.8L264.6,158.05C259.233,159.85 257.75,161.65 260.15,163.45C261.683,164.517 263.467,165.25 265.5,165.65C262.133,163.417 261.833,160.883 264.6,158.05M255.65,155.1L256.25,154.8C257.717,153.967 259.25,153.233 260.85,152.6C266.383,150.333 270.767,150.267 274,152.4C277.233,154.467 278.35,157.2 277.35,160.6C276.317,163.967 273.85,165.75 269.95,165.95L265.5,165.65L269.95,165.95C273.85,165.75 276.317,163.967 277.35,160.6C278.35,157.2 277.233,154.467 274,152.4C270.767,150.267 266.383,150.333 260.85,152.6C259.25,153.233 257.717,153.967 256.25,154.8L255.65,155.1C252.25,156.967 249.183,159.283 246.45,162.05C242.45,166.117 242.85,169.917 247.65,173.45C252.45,176.95 257.917,179.117 264.05,179.95L268.35,180.2L266.7,179.8L257.4,176.4C254.367,175.167 251.65,173.2 249.25,170.5C246.75,167.733 246.65,164.7 248.95,161.4C250.75,158.8 252.983,156.7 255.65,155.1" style="fill:#fbf4e3;"/>
                <path d="M252.85,128C256.317,130.667 259.4,133.85 262.1,137.55C259,138.95 255.75,139.8 252.35,140.1L250.95,140.1L250.4,140L249.05,139.5C252.217,138.167 253.567,135.417 253.1,131.25L252.85,128M201.4,145.6C199.767,148.733 199.067,151.633 199.3,154.3C199.533,157 200.85,159.067 203.25,160.5C205.617,161.867 207.933,162.667 210.2,162.9L210.2,163.2C208.333,163.367 206.5,163.333 204.7,163.1C199.367,162.4 196.35,160.233 195.65,156.6C194.95,153.233 196.867,149.567 201.4,145.6M216.2,146.65C215.267,149.283 215.7,151.267 217.5,152.6L215.05,153.05C213.317,152.917 212.667,151.8 213.1,149.7C213.267,148.767 213.867,147.967 214.9,147.3L216.2,146.65M202.1,185.75C200.967,184.183 202.133,182.45 205.6,180.55C208.567,178.95 211.5,177.633 214.4,176.6L211.5,180.75L209.7,181.4C208.033,182 206.417,182.733 204.85,183.6C203.783,184.2 202.867,184.917 202.1,185.75M214.5,191.35C212.267,188.683 213.117,185.983 217.05,183.25C218.75,182.05 220,180.767 220.8,179.4C221.067,181.5 221.1,183.633 220.9,185.8C219.833,185.733 218.783,186.217 217.75,187.25C216.45,188.45 215.367,189.817 214.5,191.35M264.6,158.05C261.833,160.883 262.133,163.417 265.5,165.65C263.467,165.25 261.683,164.517 260.15,163.45C257.75,161.65 259.233,159.85 264.6,158.05M255.65,155.1C252.983,156.7 250.75,158.8 248.95,161.4C246.65,164.7 246.75,167.733 249.25,170.5C251.65,173.2 254.367,175.167 257.4,176.4L266.7,179.8L268.35,180.2L264.05,179.95C257.917,179.117 252.45,176.95 247.65,173.45C242.85,169.917 242.45,166.117 246.45,162.05C249.183,159.283 252.25,156.967 255.65,155.1" style="fill:#dfceaa;"/>
                <path d="M341.2,139.1L344.65,140.4L346.7,146.1C344.167,154.067 340.133,161.217 334.6,167.55C329.567,173.217 323.583,177.317 316.65,179.85L311.55,181.45L308.65,181.55C307.683,177.383 307.133,173.217 307,169.05C306.9,165.917 307.033,162.8 307.4,159.7L311.35,159.15L311,159.9C311.4,161.1 312.267,161.867 313.6,162.2C314.867,162.567 315.85,162.133 316.55,160.9L316.05,158.9L320.35,157.1C326.717,162.867 331.15,161.083 333.65,151.75C333.917,150.583 333.4,149.633 332.1,148.9C336.767,147.067 339.8,143.8 341.2,139.1M208.4,133.05C208.2,132.45 208.117,131.85 208.15,131.25C208.75,122.25 212.25,115.05 218.65,109.65C219.417,109.017 220.233,108.65 221.1,108.55C220.133,110.717 219.983,113.05 220.65,115.55C221.483,118.717 223.583,120.35 226.95,120.45L227.85,124.15C224.717,124.95 221.65,126.05 218.65,127.45C215.083,129.117 211.667,130.983 208.4,133.05" style="fill:#536d8c;"/>
                <path d="M310.25,149.4C319.65,148.167 328.467,145.267 336.7,140.7L340.2,138.75L341.2,139.1C339.8,143.8 336.767,147.067 332.1,148.9C333.4,149.633 333.917,150.583 333.65,151.75C331.15,161.083 326.717,162.867 320.35,157.1L316.05,158.9L316.55,160.9C315.85,162.133 314.867,162.567 313.6,162.2C312.267,161.867 311.4,161.1 311,159.9L311.35,159.15L307.4,159.7C307.433,158.967 307.517,158.25 307.65,157.55L308,155.3C308.333,153.367 308.783,151.45 309.35,149.55L310.25,149.4M221.1,108.55C221.9,108.45 222.733,108.617 223.6,109.05C225.133,109.683 225.9,110.817 225.9,112.45C226.1,115.283 226.45,117.95 226.95,120.45C223.583,120.35 221.483,118.717 220.65,115.55C219.983,113.05 220.133,110.717 221.1,108.55" style="fill:#5598bb;"/>
                <path d="M211.5,180.75L207.75,185.8C206.683,187.3 205.483,187.833 204.15,187.4C203.15,186.867 202.467,186.317 202.1,185.75C202.867,184.917 203.783,184.2 204.85,183.6C206.417,182.733 208.033,182 209.7,181.4L211.5,180.75M220.9,185.8C220.733,187.467 220.433,189.15 220,190.85C219.867,191.45 219.3,191.75 218.3,191.75L214.7,191.55L214.5,191.35C215.367,189.817 216.45,188.45 217.75,187.25C218.783,186.217 219.833,185.733 220.9,185.8" style="fill:#9d783c;"/>
                <path d="M311.55,181.45L311,184.7C303.8,192.233 295.533,198.267 286.2,202.8C276.567,207.467 266.35,209.533 255.55,209C249.017,208.7 242.633,207.383 236.4,205.05L236.5,206.75C230.867,214.017 224.4,215.167 217.1,210.2C218.367,209.1 220.083,208.367 222.25,208C225.75,207.4 228.6,205.633 230.8,202.7C232.9,200.033 234.4,197.133 235.3,194L234.95,192.75L235.6,193.45C240.4,198.483 246.717,201.083 254.55,201.25C273.75,198.85 277.567,196.183 266,193.25C278.033,195.95 288.05,191.1 296.05,178.7C301.483,170.167 305.083,163.867 306.85,159.8L307.65,157.55C307.517,158.25 307.433,158.967 307.4,159.7C307.033,162.8 306.9,165.917 307,169.05C307.133,173.217 307.683,177.383 308.65,181.55L311.55,181.45M215.25,207.9C209.983,209.967 205.433,209.533 201.6,206.6L203.25,206.4C204.05,205.967 204.983,205.567 206.05,205.2C209.35,204.133 212.5,200.7 215.5,194.9L215.25,207.9M197.6,202.25C188.667,200.583 184.85,197.3 186.15,192.4C187.417,193.767 189.083,194.5 191.15,194.6C194.683,194.7 197.7,193.85 200.2,192.05L200.3,192.1C197.533,194.867 196.633,198.25 197.6,202.25M236.4,205.05L236.15,199.4C236.05,197.5 235.767,195.7 235.3,194C235.767,195.7 236.05,197.5 236.15,199.4L236.4,205.05" style="fill:#d5bb91;"/>
                <path d="M310.25,149.4C319.65,148.167 328.467,145.267 336.7,140.7L340.2,138.75L341.2,139.1L344.65,140.4L346.7,146.1C344.167,154.067 340.133,161.217 334.6,167.55C329.567,173.217 323.583,177.317 316.65,179.85L311.55,181.45L311,184.7C303.8,192.233 295.533,198.267 286.2,202.8C276.567,207.467 266.35,209.533 255.55,209C249.017,208.7 242.633,207.383 236.4,205.05L236.5,206.75C230.867,214.017 224.4,215.167 217.1,210.2L215.6,209.1L215.25,207.9C209.983,209.967 205.433,209.533 201.6,206.6L199.25,204.35L197.6,202.25C188.667,200.583 184.85,197.3 186.15,192.4C186.65,190.367 188.033,188.05 190.3,185.45C190.8,184.85 191.45,184.4 192.25,184.1L189.25,183.6L183.75,178.6C180.383,165.467 183.267,154.433 192.4,145.5C197.333,140.7 202.667,136.55 208.4,133.05C211.667,130.983 215.083,129.117 218.65,127.45C221.65,126.05 224.717,124.95 227.85,124.15C232.883,122.75 238.117,122.117 243.55,122.25L247.5,124.45L252.85,128C256.317,130.667 259.4,133.85 262.1,137.55L264.45,136.95C272.183,135.083 280.017,134.567 287.95,135.4C297.95,135.933 305.383,140.6 310.25,149.4L309.35,149.55C308.783,151.45 308.333,153.367 308,155.3L307.65,157.55C307.517,158.25 307.433,158.967 307.4,159.7C307.033,162.8 306.9,165.917 307,169.05C307.133,173.217 307.683,177.383 308.65,181.55L311.55,181.45M234.95,192.75L235.3,194C235.767,195.7 236.05,197.5 236.15,199.4L236.4,205.05M262.1,137.55C259,138.95 255.75,139.8 252.35,140.1L250.95,140.1L250.4,140M200.3,192.1L201.2,191.2M215.25,207.9L215.5,194.9M197.6,202.25C196.633,198.25 197.533,194.867 200.3,192.1M192.25,184.1L200.35,180.4" style="fill:none;fill-rule:nonzero;stroke:#b78128;stroke-opacity:0.26;stroke-width:0.5px;"/>
                <path d="M268.35,180.2L274.25,179.5C276.317,178.967 278.267,178.15 280.1,177.05C284,174.783 287.35,171.85 290.15,168.25C293.783,163.583 294.45,158.633 292.15,153.4C289.85,148.2 285.933,145.267 280.4,144.6C274.4,144.067 268.467,144.667 262.6,146.4C257.967,147.6 253.45,148.883 249.05,150.25L246.1,150.9L244.95,145.65M244.8,144L235.8,146.3C235.233,143.367 234.95,140.067 234.95,136.4C234.95,132.733 233.417,130.85 230.35,130.75L230.1,130.75C225.867,131.55 221.667,132.9 217.5,134.8C215.8,135.533 214,136.483 212.1,137.65C209.3,139.383 206.217,141.617 202.85,144.35L201.4,145.6C196.867,149.567 194.95,153.233 195.65,156.6C196.35,160.233 199.367,162.4 204.7,163.1C206.5,163.333 208.333,163.367 210.2,163.2L215.45,162.2C217.117,161.667 218.8,160.983 220.5,160.15C224.667,158.05 226.767,155.25 226.8,151.75C226.8,150.783 226.667,149.8 226.4,148.8C225.233,146.1 223.283,145.05 220.55,145.65C218.817,145.85 217.367,146.183 216.2,146.65L214.9,147.3C213.867,147.967 213.267,148.767 213.1,149.7C212.667,151.8 213.317,152.917 215.05,153.05L217.5,152.6L219.3,151.05M268.05,158.75C267.75,158.05 266.883,157.733 265.45,157.8L264.6,158.05C259.233,159.85 257.75,161.65 260.15,163.45C261.683,164.517 263.467,165.25 265.5,165.65L269.95,165.95C273.85,165.75 276.317,163.967 277.35,160.6C278.35,157.2 277.233,154.467 274,152.4C270.767,150.267 266.383,150.333 260.85,152.6C259.25,153.233 257.717,153.967 256.25,154.8L255.65,155.1C252.25,156.967 249.183,159.283 246.45,162.05C242.45,166.117 242.85,169.917 247.65,173.45C252.45,176.95 257.917,179.117 264.05,179.95L268.35,180.2" style="fill:none;fill-rule:nonzero;stroke:#8a5a20;stroke-opacity:0.35;stroke-width:0.5px;"/>
            </g>
        </g>
    </g>
    <defs>
        <radialGradient id="_Radial1" cx="0" cy="0" r="1" gradientUnits="userSpaceOnUse" gradientTransform="matrix(41.4515,-10.8134,15.8106,26.5421,211.85,190.85)"><stop offset="0" style="stop-color:#b16c27;stop-opacity:1"/><stop offset="1" style="stop-color:#af791f;stop-opacity:1"/></radialGradient>
        <linearGradient id="_Linear2" x1="0" y1="0" x2="1" y2="0" gradientUnits="userSpaceOnUse" gradientTransform="matrix(61.7677,-16.2202,16.2202,61.7677,182.812,198.015)"><stop offset="0" style="stop-color:#693f16;stop-opacity:1"/><stop offset="1" style="stop-color:#af8e43;stop-opacity:1"/></linearGradient>
        <linearGradient id="_Linear3" x1="0" y1="0" x2="1" y2="0" gradientUnits="userSpaceOnUse" gradientTransform="matrix(156.303,0,0,156.303,152.598,220.757)"><stop offset="0" style="stop-color:#693f16;stop-opacity:1"/><stop offset="1" style="stop-color:#af8e43;stop-opacity:1"/></linearGradient>
        <radialGradient id="_Radial4" cx="0" cy="0" r="1" gradientUnits="userSpaceOnUse" gradientTransform="matrix(41.0419,-3.2768,9.74848,41.4515,193.1,230.2)"><stop offset="0" style="stop-color:#b16c27;stop-opacity:1"/><stop offset="1" style="stop-color:#af791f;stop-opacity:1"/></radialGradient>
        <linearGradient id="_Linear5" x1="0" y1="0" x2="1" y2="0" gradientUnits="userSpaceOnUse" gradientTransform="matrix(61.2762,-4.9152,4.9152,61.2762,164.622,232.739)"><stop offset="0" style="stop-color:#693f16;stop-opacity:1"/><stop offset="1" style="stop-color:#af8e43;stop-opacity:1"/></linearGradient>
        <radialGradient id="_Radial6" cx="0" cy="0" r="1" gradientUnits="userSpaceOnUse" gradientTransform="matrix(41.2877,-3.44064,9.8304,43.0899,261.4,198.65)"><stop offset="0" style="stop-color:#b16c27;stop-opacity:1"/><stop offset="1" style="stop-color:#af791f;stop-opacity:1"/></radialGradient>
        <linearGradient id="_Linear7" x1="0" y1="0" x2="1" y2="0" gradientUnits="userSpaceOnUse" gradientTransform="matrix(61.6038,-5.07904,5.07904,61.6038,232.603,200.326)"><stop offset="0" style="stop-color:#693f16;stop-opacity:1"/><stop offset="1" style="stop-color:#af8e43;stop-opacity:1"/></linearGradient>
    </defs>
</svg>
