<?xml version="1.0" encoding="UTF-8" standalone="no"?>
<!DOCTYPE svg PUBLIC "-//W3C//DTD SVG 1.1//EN" "http://www.w3.org/Graphics/SVG/1.1/DTD/svg11.dtd">
<svg width="100%" height="100%" viewBox="0 0 161 339" version="1.1" xmlns="http://www.w3.org/2000/svg" xmlns:xlink="http://www.w3.org/1999/xlink" xml:space="preserve" xmlns:serif="http://www.serif.com/" style="fill-rule:evenodd;clip-rule:evenodd;stroke-linecap:round;stroke-linejoin:round;">
    <g transform="matrix(1,0,0,1,-15.118,-7.3647)">
        <g transform="matrix(11.6737,0,0,11.6737,-3054.33,-2047.5)">
            <g id="shape0" transform="matrix(-0.0043,0.4611,-0.452,-0.1724,274.05,185.3)">
                <path d="M1.8,-3.5L2.1,0L1.8,3.5C1.6,4.467 1.35,4.95 1.05,4.95C0.75,4.95 0.5,4.467 0.3,3.5C0.1,2.533 0,1.367 0,0C0,-1.367 0.1,-2.533 0.3,-3.5C0.5,-4.467 0.75,-4.95 1.05,-4.95C1.35,-4.95 1.6,-4.467 1.8,-3.5" style="fill:#7b572b;"/>
                <path d="M1.6,-0.75L1.8,1.5L1.6,3.75L1.1,4.7C0.9,4.667 0.75,4.35 0.65,3.75L0.45,1.5L0.65,-0.75C0.75,-1.383 0.9,-1.7 1.1,-1.7C1.3,-1.7 1.467,-1.383 1.6,-0.75" style="fill:#24180b;"/>
            </g>
            <g id="shape01" serif:id="shape0" transform="matrix(-0.0864,0.2792,-0.3041,-0.2015,273.45,185.9)">
                <path d="M1.8,-3.5L2.1,0L1.8,3.5C1.6,4.467 1.35,4.95 1.05,4.95C0.75,4.95 0.5,4.467 0.3,3.5C0.1,2.533 0,1.367 0,0C0,-1.367 0.1,-2.533 0.3,-3.5C0.5,-4.467 0.75,-4.95 1.05,-4.95C1.35,-4.95 1.6,-4.467 1.8,-3.5" style="fill:#5c4120;"/>
                <path d="M1.6,-0.75L1.8,1.5L1.6,3.75L1.1,4.7C0.9,4.667 0.75,4.35 0.65,3.75L0.45,1.5L0.65,-0.75C0.75,-1.383 0.9,-1.7 1.1,-1.7C1.3,-1.7 1.467,-1.383 1.6,-0.75" style="fill:#24180b;"/>
            </g>
            <g id="shape02" serif:id="shape0" transform="matrix(0.1289,0.4353,-0.3784,-0.0088,273.55,184.45)">
                <path d="M1.8,-3.5L2.1,0L1.8,3.5C1.6,4.467 1.35,4.95 1.05,4.95C0.75,4.95 0.5,4.467 0.3,3.5C0.1,2.533 0,1.367 0,0C0,-1.367 0.1,-2.533 0.3,-3.5C0.5,-4.467 0.75,-4.95 1.05,-4.95C1.35,-4.95 1.6,-4.467 1.8,-3.5" style="fill:#7b572b;"/>
                <path d="M1.6,-0.75L1.8,1.5L1.6,3.75L1.1,4.7C0.9,4.667 0.75,4.35 0.65,3.75L0.45,1.5L0.65,-0.75C0.75,-1.383 0.9,-1.7 1.1,-1.7C1.3,-1.7 1.467,-1.383 1.6,-0.75" style="fill:#845d2e;"/>
            </g>
            <g id="shape1" transform="matrix(-0.0013,0.0685,-0.0888,-0.0347,276.05,186.25)">
                <path d="M4.05,-4.05C5.183,-4.05 6.133,-3.667 6.9,-2.9C7.7,-2.1 8.1,-1.133 8.1,0C8.1,1.133 7.7,2.083 6.9,2.85C6.133,3.65 5.183,4.05 4.05,4.05C2.917,4.05 1.95,3.65 1.15,2.85C0.383,2.083 0,1.133 0,0C0,-1.133 0.383,-2.1 1.15,-2.9C1.95,-3.667 2.917,-4.05 4.05,-4.05" style="fill:url(#_Radial1);"/>
            </g>
            <g id="shape03" serif:id="shape0" transform="matrix(-0.4344,0.3802,-0.5292,-0.6414,274.1,188.05)">
                <path d="M1.8,-3.5L2.1,0L1.8,3.5C1.6,4.467 1.35,4.95 1.05,4.95C0.75,4.95 0.5,4.467 0.3,3.5C0.1,2.533 0,1.367 0,0C0,-1.367 0.1,-2.533 0.3,-3.5C0.5,-4.467 0.75,-4.95 1.05,-4.95C1.35,-4.95 1.6,-4.467 1.8,-3.5" style="fill:#9b6e36;"/>
                <path d="M1.6,-0.75L1.8,1.5L1.6,3.75L1.1,4.7C0.9,4.667 0.75,4.35 0.65,3.75L0.45,1.5L0.65,-0.75C0.75,-1.383 0.9,-1.7 1.1,-1.7C1.3,-1.7 1.467,-1.383 1.6,-0.75" style="fill:#3c2913;"/>
            </g>
            <g id="shape04" serif:id="shape0" transform="matrix(-0.2075,0.5052,-0.5689,-0.4239,274.1,186.75)">
                <path d="M1.8,-3.5L2.1,0L1.8,3.5C1.6,4.467 1.35,4.95 1.05,4.95C0.75,4.95 0.5,4.467 0.3,3.5C0.1,2.533 0,1.367 0,0C0,-1.367 0.1,-2.533 0.3,-3.5C0.5,-4.467 0.75,-4.95 1.05,-4.95C1.35,-4.95 1.6,-4.467 1.8,-3.5" style="fill:#9b6e36;"/>
                <path d="M1.6,-0.75L1.8,1.5L1.6,3.75L1.1,4.7C0.9,4.667 0.75,4.35 0.65,3.75L0.45,1.5L0.65,-0.75C0.75,-1.383 0.9,-1.7 1.1,-1.7C1.3,-1.7 1.467,-1.383 1.6,-0.75" style="fill:#24180b;"/>
            </g>
            <g id="shape11" serif:id="shape1" transform="matrix(-0.0655,0.0558,-0.1032,-0.1267,276.2,191.05)">
                <path d="M4.05,-4.05C5.183,-4.05 6.133,-3.667 6.9,-2.9C7.7,-2.1 8.1,-1.133 8.1,0C8.1,1.133 7.7,2.083 6.9,2.85C6.133,3.65 5.183,4.05 4.05,4.05C2.917,4.05 1.95,3.65 1.15,2.85C0.383,2.083 0,1.133 0,0C0,-1.133 0.383,-2.1 1.15,-2.9C1.95,-3.667 2.917,-4.05 4.05,-4.05" style="fill:url(#_Radial2);"/>
            </g>
            <g id="shape12" serif:id="shape1" transform="matrix(-0.0519,0.0442,-0.0818,-0.1004,275.5,189.9)">
                <path d="M4.05,-4.05C5.183,-4.05 6.133,-3.667 6.9,-2.9C7.7,-2.1 8.1,-1.133 8.1,0C8.1,1.133 7.7,2.083 6.9,2.85C6.133,3.65 5.183,4.05 4.05,4.05C2.917,4.05 1.95,3.65 1.15,2.85C0.383,2.083 0,1.133 0,0C0,-1.133 0.383,-2.1 1.15,-2.9C1.95,-3.667 2.917,-4.05 4.05,-4.05" style="fill:url(#_Radial3);"/>
            </g>
            <g id="shape13" serif:id="shape1" transform="matrix(-0.045,0.0383,-0.0709,-0.087,274.55,189.65)">
                <path d="M4.05,-4.05C5.183,-4.05 6.133,-3.667 6.9,-2.9C7.7,-2.1 8.1,-1.133 8.1,0C8.1,1.133 7.7,2.083 6.9,2.85C6.133,3.65 5.183,4.05 4.05,4.05C2.917,4.05 1.95,3.65 1.15,2.85C0.383,2.083 0,1.133 0,0C0,-1.133 0.383,-2.1 1.15,-2.9C1.95,-3.667 2.917,-4.05 4.05,-4.05" style="fill:url(#_Radial4);"/>
            </g>
            <g id="shape14" serif:id="shape1" transform="matrix(-0.0325,0.0565,-0.0884,-0.0767,276.05,188.7)">
                <path d="M4.05,-4.05C5.183,-4.05 6.133,-3.667 6.9,-2.9C7.7,-2.1 8.1,-1.133 8.1,0C8.1,1.133 7.7,2.083 6.9,2.85C6.133,3.65 5.183,4.05 4.05,4.05C2.917,4.05 1.95,3.65 1.15,2.85C0.383,2.083 0,1.133 0,0C0,-1.133 0.383,-2.1 1.15,-2.9C1.95,-3.667 2.917,-4.05 4.05,-4.05" style="fill:url(#_Radial5);"/>
            </g>
            <g id="shape05" serif:id="shape0" transform="matrix(-0.1064,0.5053,-0.5322,-0.3067,273.2,184.3)">
                <path d="M1.8,-3.5L2.1,0L1.8,3.5C1.6,4.467 1.35,4.95 1.05,4.95C0.75,4.95 0.5,4.467 0.3,3.5C0.1,2.533 0,1.367 0,0C0,-1.367 0.1,-2.533 0.3,-3.5C0.5,-4.467 0.75,-4.95 1.05,-4.95C1.35,-4.95 1.6,-4.467 1.8,-3.5" style="fill:#845d2e;"/>
                <path d="M1.6,-0.75L1.8,1.5L1.6,3.75L1.1,4.7C0.9,4.667 0.75,4.35 0.65,3.75L0.45,1.5L0.65,-0.75C0.75,-1.383 0.9,-1.7 1.1,-1.7C1.3,-1.7 1.467,-1.383 1.6,-0.75" style="fill:#332310;"/>
            </g>
            <g id="shape06" serif:id="shape0" transform="matrix(-0.1701,0.2842,-0.3393,-0.3003,272.25,184.8)">
                <path d="M1.8,-3.5L2.1,0L1.8,3.5C1.6,4.467 1.35,4.95 1.05,4.95C0.75,4.95 0.5,4.467 0.3,3.5C0.1,2.533 0,1.367 0,0C0,-1.367 0.1,-2.533 0.3,-3.5C0.5,-4.467 0.75,-4.95 1.05,-4.95C1.35,-4.95 1.6,-4.467 1.8,-3.5" style="fill:#845d2e;"/>
                <path d="M1.6,-0.75L1.8,1.5L1.6,3.75L1.1,4.7C0.9,4.667 0.75,4.35 0.65,3.75L0.45,1.5L0.65,-0.75C0.75,-1.383 0.9,-1.7 1.1,-1.7C1.3,-1.7 1.467,-1.383 1.6,-0.75" style="fill:#24180b;"/>
            </g>
            <g id="shape07" serif:id="shape0" transform="matrix(-0.3723,0.5009,-0.6245,-0.6133,272.85,185.85)">
                <path d="M1.8,-3.5L2.1,0L1.8,3.5C1.6,4.467 1.35,4.95 1.05,4.95C0.75,4.95 0.5,4.467 0.3,3.5C0.1,2.533 0,1.367 0,0C0,-1.367 0.1,-2.533 0.3,-3.5C0.5,-4.467 0.75,-4.95 1.05,-4.95C1.35,-4.95 1.6,-4.467 1.8,-3.5" style="fill:#d2954a;"/>
                <path d="M1.6,-0.75L1.8,1.5L1.6,3.75L1.1,4.7C0.9,4.667 0.75,4.35 0.65,3.75L0.45,1.5L0.65,-0.75C0.75,-1.383 0.9,-1.7 1.1,-1.7C1.3,-1.7 1.467,-1.383 1.6,-0.75" style="fill:#24180b;"/>
            </g>
            <g id="shape15" serif:id="shape1" transform="matrix(-0.0534,0.0536,-0.0946,-0.1072,274.85,188.45)">
                <path d="M4.05,-4.05C5.183,-4.05 6.133,-3.667 6.9,-2.9C7.7,-2.1 8.1,-1.133 8.1,0C8.1,1.133 7.7,2.083 6.9,2.85C6.133,3.65 5.183,4.05 4.05,4.05C2.917,4.05 1.95,3.65 1.15,2.85C0.383,2.083 0,1.133 0,0C0,-1.133 0.383,-2.1 1.15,-2.9C1.95,-3.667 2.917,-4.05 4.05,-4.05" style="fill:url(#_Radial6);"/>
            </g>
            <g id="shape16" serif:id="shape1" transform="matrix(-0.0423,0.0425,-0.075,-0.085,274.4,187.65)">
                <path d="M4.05,-4.05C5.183,-4.05 6.133,-3.667 6.9,-2.9C7.7,-2.1 8.1,-1.133 8.1,0C8.1,1.133 7.7,2.083 6.9,2.85C6.133,3.65 5.183,4.05 4.05,4.05C2.917,4.05 1.95,3.65 1.15,2.85C0.383,2.083 0,1.133 0,0C0,-1.133 0.383,-2.1 1.15,-2.9C1.95,-3.667 2.917,-4.05 4.05,-4.05" style="fill:url(#_Radial7);"/>
            </g>
            <g id="shape2" transform="matrix(1,0,0,1,257.25,192.5)">
                <path d="M18.1,-12.1L18.1,-12L17.95,-10.5C17.717,-9.667 17.35,-9.2 16.85,-9.1C16.083,-8.933 15.317,-9.533 14.55,-10.9L14.45,-11.1L14.15,-11.6C13.417,-12.7 12.517,-12.85 11.45,-12.05C10.25,-11.15 9.883,-11.417 10.35,-12.85L10.35,-12.9L10.7,-13.8C11.1,-14.767 11.533,-15.4 12,-15.7L13.8,-16.35L13.8,-16L12.95,-15.75C12.483,-15.55 12.25,-15.3 12.25,-15C12.25,-14.733 12.483,-14.5 12.95,-14.3L13.2,-14.2L14.65,-13.95L15.15,-14L15.5,-14.05L18.1,-12.1" style="fill:#655532;"/>
                <path d="M15.5,-14.05L15.9,-14.15L16.35,-14.3L16.7,-14.5L17,-14.85L17.05,-15L17.05,-15.05L16.7,-15.55L16.7,-16.1L17.55,-15.35L17.8,-15L17.8,-14.9L17.85,-14.85L17.95,-14.55L17.95,-14.4L18.1,-13.55L18.1,-12.1L15.5,-14.05" style="fill:#b37f39;"/>
                <path d="M18.1,-12.1L18.1,-12L17.95,-10.5C17.717,-9.667 17.35,-9.2 16.85,-9.1C16.083,-8.933 15.317,-9.533 14.55,-10.9L14.45,-11.1L14.15,-11.6C13.417,-12.7 12.517,-12.85 11.45,-12.05C10.25,-11.15 9.883,-11.417 10.35,-12.85L10.35,-12.9L10.7,-13.8C11.1,-14.767 11.533,-15.4 12,-15.7L13.8,-16.35L13.8,-16L12.95,-15.75C12.483,-15.55 12.25,-15.3 12.25,-15C12.25,-14.733 12.483,-14.5 12.95,-14.3L13.2,-14.2L14.65,-13.95L15.15,-14L15.5,-14.05L15.9,-14.15L16.35,-14.3L16.7,-14.5L17,-14.85L17.05,-15L17.05,-15.05L16.7,-15.55L16.7,-16.1L17.55,-15.35L17.8,-15L17.8,-14.9L17.85,-14.85L17.95,-14.55M17.95,-14.4L18.1,-13.55L18.1,-12.1L17.95,-14.4Z" style="fill:none;fill-rule:nonzero;stroke:#24230b;stroke-width:0.25px;"/>
            </g>
            <g id="shape08" serif:id="shape0" transform="matrix(-1.7536,-0.1319,0.0944,-1.2552,272.35,184.1)">
                <path d="M1.8,-3.5L2.1,0L1.8,3.5C1.6,4.467 1.35,4.95 1.05,4.95C0.75,4.95 0.5,4.467 0.3,3.5C0.1,2.533 0,1.367 0,0C0,-1.367 0.1,-2.533 0.3,-3.5C0.5,-4.467 0.75,-4.95 1.05,-4.95C1.35,-4.95 1.6,-4.467 1.8,-3.5" style="fill:#d2954a;"/>
                <path d="M1.6,-0.75L1.8,1.5L1.6,3.75L1.1,4.7C0.9,4.667 0.75,4.35 0.65,3.75L0.45,1.5L0.65,-0.75C0.75,-1.383 0.9,-1.7 1.1,-1.7C1.3,-1.7 1.467,-1.383 1.6,-0.75" style="fill:#52381b;"/>
            </g>
            <g id="shape09" serif:id="shape0" transform="matrix(-1.1655,-0.3209,0.3877,-0.8224,269.15,182.1)">
                <path d="M1.8,-3.5L2.1,0L1.8,3.5C1.6,4.467 1.35,4.95 1.05,4.95C0.75,4.95 0.5,4.467 0.3,3.5C0.1,2.533 0,1.367 0,0C0,-1.367 0.1,-2.533 0.3,-3.5C0.5,-4.467 0.75,-4.95 1.05,-4.95C1.35,-4.95 1.6,-4.467 1.8,-3.5" style="fill:#d2954a;"/>
                <path d="M1.6,-0.75L1.8,1.5L1.6,3.75L1.1,4.7C0.9,4.667 0.75,4.35 0.65,3.75L0.45,1.5L0.65,-0.75C0.75,-1.383 0.9,-1.7 1.1,-1.7C1.3,-1.7 1.467,-1.383 1.6,-0.75" style="fill:#52381b;"/>
            </g>
            <g id="shape010" serif:id="shape0" transform="matrix(-1.491,0.2577,-0.435,-1.0861,274.8,182.8)">
                <path d="M1.8,-3.5L2.1,0L1.8,3.5C1.6,4.467 1.35,4.95 1.05,4.95C0.75,4.95 0.5,4.467 0.3,3.5C0.1,2.533 0,1.367 0,0C0,-1.367 0.1,-2.533 0.3,-3.5C0.5,-4.467 0.75,-4.95 1.05,-4.95C1.35,-4.95 1.6,-4.467 1.8,-3.5" style="fill:#d2954a;"/>
                <path d="M1.6,-0.75L1.8,1.5L1.6,3.75L1.1,4.7C0.9,4.667 0.75,4.35 0.65,3.75L0.45,1.5L0.65,-0.75C0.75,-1.383 0.9,-1.7 1.1,-1.7C1.3,-1.7 1.467,-1.383 1.6,-0.75" style="fill:#52381b;"/>
            </g>
            <g id="shape17" serif:id="shape1" transform="matrix(-0.1752,-0.0744,0.125,-0.1612,266.9,185.45)">
                <path d="M4.05,-4.05C5.183,-4.05 6.133,-3.667 6.9,-2.9C7.7,-2.1 8.1,-1.133 8.1,0C8.1,1.133 7.7,2.083 6.9,2.85C6.133,3.65 5.183,4.05 4.05,4.05C2.917,4.05 1.95,3.65 1.15,2.85C0.383,2.083 0,1.133 0,0C0,-1.133 0.383,-2.1 1.15,-2.9C1.95,-3.667 2.917,-4.05 4.05,-4.05" style="fill:url(#_Radial8);"/>
            </g>
            <g id="shape18" serif:id="shape1" transform="matrix(-0.1203,-0.0511,0.0858,-0.1107,267.45,183.15)">
                <path d="M4.05,-4.05C5.183,-4.05 6.133,-3.667 6.9,-2.9C7.7,-2.1 8.1,-1.133 8.1,0C8.1,1.133 7.7,2.083 6.9,2.85C6.133,3.65 5.183,4.05 4.05,4.05C2.917,4.05 1.95,3.65 1.15,2.85C0.383,2.083 0,1.133 0,0C0,-1.133 0.383,-2.1 1.15,-2.9C1.95,-3.667 2.917,-4.05 4.05,-4.05" style="fill:url(#_Radial9);"/>
            </g>
            <g id="shape19" serif:id="shape1" transform="matrix(-0.1879,0.018,-0.0456,-0.1795,275.35,187)">
                <path d="M4.05,-4.05C5.183,-4.05 6.133,-3.667 6.9,-2.9C7.7,-2.1 8.1,-1.133 8.1,0C8.1,1.133 7.7,2.083 6.9,2.85C6.133,3.65 5.183,4.05 4.05,4.05C2.917,4.05 1.95,3.65 1.15,2.85C0.383,2.083 0,1.133 0,0C0,-1.133 0.383,-2.1 1.15,-2.9C1.95,-3.667 2.917,-4.05 4.05,-4.05" style="fill:url(#_Radial10);"/>
            </g>
            <g id="shape110" serif:id="shape1" transform="matrix(-0.1489,0.0142,-0.0362,-0.1423,275.55,185.75)">
                <path d="M4.05,-4.05C5.183,-4.05 6.133,-3.667 6.9,-2.9C7.7,-2.1 8.1,-1.133 8.1,0C8.1,1.133 7.7,2.083 6.9,2.85C6.133,3.65 5.183,4.05 4.05,4.05C2.917,4.05 1.95,3.65 1.15,2.85C0.383,2.083 0,1.133 0,0C0,-1.133 0.383,-2.1 1.15,-2.9C1.95,-3.667 2.917,-4.05 4.05,-4.05" style="fill:url(#_Radial11);"/>
            </g>
            <g id="shape111" serif:id="shape1" transform="matrix(-0.1291,0.0123,-0.0313,-0.1233,273.75,185)">
                <path d="M4.05,-4.05C5.183,-4.05 6.133,-3.667 6.9,-2.9C7.7,-2.1 8.1,-1.133 8.1,0C8.1,1.133 7.7,2.083 6.9,2.85C6.133,3.65 5.183,4.05 4.05,4.05C2.917,4.05 1.95,3.65 1.15,2.85C0.383,2.083 0,1.133 0,0C0,-1.133 0.383,-2.1 1.15,-2.9C1.95,-3.667 2.917,-4.05 4.05,-4.05" style="fill:url(#_Radial12);"/>
            </g>
            <g id="shape011" serif:id="shape0" transform="matrix(-0.4367,-0.4032,0.3735,-0.6814,266.75,197.5)">
                <path d="M1.8,-3.5L2.1,0L1.8,3.5C1.6,4.467 1.35,4.95 1.05,4.95C0.75,4.95 0.5,4.467 0.3,3.5C0.1,2.533 0,1.367 0,0C0,-1.367 0.1,-2.533 0.3,-3.5C0.5,-4.467 0.75,-4.95 1.05,-4.95C1.35,-4.95 1.6,-4.467 1.8,-3.5" style="fill:#5c4120;"/>
                <path d="M1.6,-0.75L1.8,1.5L1.6,3.75L1.1,4.7C0.9,4.667 0.75,4.35 0.65,3.75L0.45,1.5L0.65,-0.75C0.75,-1.383 0.9,-1.7 1.1,-1.7C1.3,-1.7 1.467,-1.383 1.6,-0.75" style="fill:#24180b;"/>
            </g>
            <g id="shape012" serif:id="shape0" transform="matrix(-0.2256,-0.3979,0.3326,-0.3851,266.4,195.8)">
                <path d="M1.8,-3.5L2.1,0L1.8,3.5C1.6,4.467 1.35,4.95 1.05,4.95C0.75,4.95 0.5,4.467 0.3,3.5C0.1,2.533 0,1.367 0,0C0,-1.367 0.1,-2.533 0.3,-3.5C0.5,-4.467 0.75,-4.95 1.05,-4.95C1.35,-4.95 1.6,-4.467 1.8,-3.5" style="fill:#5c4120;"/>
                <path d="M1.6,-0.75L1.8,1.5L1.6,3.75L1.1,4.7C0.9,4.667 0.75,4.35 0.65,3.75L0.45,1.5L0.65,-0.75C0.75,-1.383 0.9,-1.7 1.1,-1.7C1.3,-1.7 1.467,-1.383 1.6,-0.75" style="fill:#24180b;"/>
            </g>
            <g id="shape112" serif:id="shape1" transform="matrix(-0.0646,-0.061,0.0742,-0.1332,264.85,200.3)">
                <path d="M4.05,-4.05C5.183,-4.05 6.133,-3.667 6.9,-2.9C7.7,-2.1 8.1,-1.133 8.1,0C8.1,1.133 7.7,2.083 6.9,2.85C6.133,3.65 5.183,4.05 4.05,4.05C2.917,4.05 1.95,3.65 1.15,2.85C0.383,2.083 0,1.133 0,0C0,-1.133 0.383,-2.1 1.15,-2.9C1.95,-3.667 2.917,-4.05 4.05,-4.05" style="fill:url(#_Radial13);"/>
            </g>
            <g id="shape113" serif:id="shape1" transform="matrix(-0.0512,-0.0484,0.0588,-0.1056,265.6,199.35)">
                <path d="M4.05,-4.05C5.183,-4.05 6.133,-3.667 6.9,-2.9C7.7,-2.1 8.1,-1.133 8.1,0C8.1,1.133 7.7,2.083 6.9,2.85C6.133,3.65 5.183,4.05 4.05,4.05C2.917,4.05 1.95,3.65 1.15,2.85C0.383,2.083 0,1.133 0,0C0,-1.133 0.383,-2.1 1.15,-2.9C1.95,-3.667 2.917,-4.05 4.05,-4.05" style="fill:url(#_Radial14);"/>
            </g>
            <g id="shape114" serif:id="shape1" transform="matrix(-0.0444,-0.0419,0.0509,-0.0915,265.55,198.35)">
                <path d="M4.05,-4.05C5.183,-4.05 6.133,-3.667 6.9,-2.9C7.7,-2.1 8.1,-1.133 8.1,0C8.1,1.133 7.7,2.083 6.9,2.85C6.133,3.65 5.183,4.05 4.05,4.05C2.917,4.05 1.95,3.65 1.15,2.85C0.383,2.083 0,1.133 0,0C0,-1.133 0.383,-2.1 1.15,-2.9C1.95,-3.667 2.917,-4.05 4.05,-4.05" style="fill:url(#_Radial15);"/>
            </g>
            <g id="shape115" serif:id="shape1" transform="matrix(-0.0267,-0.0744,0.0784,-0.0663,264.9,197.25)">
                <path d="M4.05,-4.05C5.183,-4.05 6.133,-3.667 6.9,-2.9C7.7,-2.1 8.1,-1.133 8.1,0C8.1,1.133 7.7,2.083 6.9,2.85C6.133,3.65 5.183,4.05 4.05,4.05C2.917,4.05 1.95,3.65 1.15,2.85C0.383,2.083 0,1.133 0,0C0,-1.133 0.383,-2.1 1.15,-2.9C1.95,-3.667 2.917,-4.05 4.05,-4.05" style="fill:url(#_Radial16);"/>
            </g>
            <g id="shape116" serif:id="shape1" transform="matrix(-0.0211,-0.059,0.0621,-0.0526,265.5,197)">
                <path d="M4.05,-4.05C5.183,-4.05 6.133,-3.667 6.9,-2.9C7.7,-2.1 8.1,-1.133 8.1,0C8.1,1.133 7.7,2.083 6.9,2.85C6.133,3.65 5.183,4.05 4.05,4.05C2.917,4.05 1.95,3.65 1.15,2.85C0.383,2.083 0,1.133 0,0C0,-1.133 0.383,-2.1 1.15,-2.9C1.95,-3.667 2.917,-4.05 4.05,-4.05" style="fill:url(#_Radial17);"/>
            </g>
            <g id="shape117" serif:id="shape1" transform="matrix(-0.0183,-0.0511,0.0538,-0.0455,265.65,196.05)">
                <path d="M4.05,-4.05C5.183,-4.05 6.133,-3.667 6.9,-2.9C7.7,-2.1 8.1,-1.133 8.1,0C8.1,1.133 7.7,2.083 6.9,2.85C6.133,3.65 5.183,4.05 4.05,4.05C2.917,4.05 1.95,3.65 1.15,2.85C0.383,2.083 0,1.133 0,0C0,-1.133 0.383,-2.1 1.15,-2.9C1.95,-3.667 2.917,-4.05 4.05,-4.05" style="fill:url(#_Radial18);"/>
            </g>
            <g id="shape118" serif:id="shape1" transform="matrix(-0.0557,-0.0253,0.0375,-0.1086,266.75,199.7)">
                <path d="M4.05,-4.05C5.183,-4.05 6.133,-3.667 6.9,-2.9C7.7,-2.1 8.1,-1.133 8.1,0C8.1,1.133 7.7,2.083 6.9,2.85C6.133,3.65 5.183,4.05 4.05,4.05C2.917,4.05 1.95,3.65 1.15,2.85C0.383,2.083 0,1.133 0,0C0,-1.133 0.383,-2.1 1.15,-2.9C1.95,-3.667 2.917,-4.05 4.05,-4.05" style="fill:url(#_Radial19);"/>
            </g>
            <g id="shape119" serif:id="shape1" transform="matrix(-0.0441,-0.0201,0.0297,-0.086,267.1,199.05)">
                <path d="M4.05,-4.05C5.183,-4.05 6.133,-3.667 6.9,-2.9C7.7,-2.1 8.1,-1.133 8.1,0C8.1,1.133 7.7,2.083 6.9,2.85C6.133,3.65 5.183,4.05 4.05,4.05C2.917,4.05 1.95,3.65 1.15,2.85C0.383,2.083 0,1.133 0,0C0,-1.133 0.383,-2.1 1.15,-2.9C1.95,-3.667 2.917,-4.05 4.05,-4.05" style="fill:url(#_Radial20);"/>
            </g>
            <g id="shape120" serif:id="shape1" transform="matrix(-0.0383,-0.0174,0.0257,-0.0745,266.85,198.25)">
                <path d="M4.05,-4.05C5.183,-4.05 6.133,-3.667 6.9,-2.9C7.7,-2.1 8.1,-1.133 8.1,0C8.1,1.133 7.7,2.083 6.9,2.85C6.133,3.65 5.183,4.05 4.05,4.05C2.917,4.05 1.95,3.65 1.15,2.85C0.383,2.083 0,1.133 0,0C0,-1.133 0.383,-2.1 1.15,-2.9C1.95,-3.667 2.917,-4.05 4.05,-4.05" style="fill:url(#_Radial21);"/>
            </g>
            <g id="shape013" serif:id="shape0" transform="matrix(-0.5357,0.4122,-0.21,-0.6773,271.9,196.55)">
                <path d="M1.8,-3.5L2.1,0L1.8,3.5C1.6,4.467 1.35,4.95 1.05,4.95C0.75,4.95 0.5,4.467 0.3,3.5C0.1,2.533 0,1.367 0,0C0,-1.367 0.1,-2.533 0.3,-3.5C0.5,-4.467 0.75,-4.95 1.05,-4.95C1.35,-4.95 1.6,-4.467 1.8,-3.5" style="fill:#7b572b;"/>
                <path d="M1.6,-0.75L1.8,1.5L1.6,3.75L1.1,4.7C0.9,4.667 0.75,4.35 0.65,3.75L0.45,1.5L0.65,-0.75C0.75,-1.383 0.9,-1.7 1.1,-1.7C1.3,-1.7 1.467,-1.383 1.6,-0.75" style="fill:#30210f;"/>
            </g>
            <g id="shape014" serif:id="shape0" transform="matrix(-0.4002,0.1529,-0.0427,-0.533,270.55,196.4)">
                <path d="M1.8,-3.5L2.1,0L1.8,3.5C1.6,4.467 1.35,4.95 1.05,4.95C0.75,4.95 0.5,4.467 0.3,3.5C0.1,2.533 0,1.367 0,0C0,-1.367 0.1,-2.533 0.3,-3.5C0.5,-4.467 0.75,-4.95 1.05,-4.95C1.35,-4.95 1.6,-4.467 1.8,-3.5" style="fill:#7b572b;"/>
                <path d="M1.6,-0.75L1.8,1.5L1.6,3.75L1.1,4.7C0.9,4.667 0.75,4.35 0.65,3.75L0.45,1.5L0.65,-0.75C0.75,-1.383 0.9,-1.7 1.1,-1.7C1.3,-1.7 1.467,-1.383 1.6,-0.75" style="fill:#30210f;"/>
            </g>
            <g id="shape015" serif:id="shape0" transform="matrix(-0.3855,0.5424,-0.3322,-0.4444,272.3,195.2)">
                <path d="M1.8,-3.5L2.1,0L1.8,3.5C1.6,4.467 1.35,4.95 1.05,4.95C0.75,4.95 0.5,4.467 0.3,3.5C0.1,2.533 0,1.367 0,0C0,-1.367 0.1,-2.533 0.3,-3.5C0.5,-4.467 0.75,-4.95 1.05,-4.95C1.35,-4.95 1.6,-4.467 1.8,-3.5" style="fill:#7b572b;"/>
                <path d="M1.6,-0.75L1.8,1.5L1.6,3.75L1.1,4.7C0.9,4.667 0.75,4.35 0.65,3.75L0.45,1.5L0.65,-0.75C0.75,-1.383 0.9,-1.7 1.1,-1.7C1.3,-1.7 1.467,-1.383 1.6,-0.75" style="fill:#30210f;"/>
            </g>
            <g id="shape121" serif:id="shape1" transform="matrix(-0.0801,0.0605,-0.0403,-0.1338,272.5,199.75)">
                <path d="M4.05,-4.05C5.183,-4.05 6.133,-3.667 6.9,-2.9C7.7,-2.1 8.1,-1.133 8.1,0C8.1,1.133 7.7,2.083 6.9,2.85C6.133,3.65 5.183,4.05 4.05,4.05C2.917,4.05 1.95,3.65 1.15,2.85C0.383,2.083 0,1.133 0,0C0,-1.133 0.383,-2.1 1.15,-2.9C1.95,-3.667 2.917,-4.05 4.05,-4.05" style="fill:url(#_Radial22);"/>
            </g>
            <g id="shape122" serif:id="shape1" transform="matrix(-0.0635,0.048,-0.032,-0.1061,272.35,198.45)">
                <path d="M4.05,-4.05C5.183,-4.05 6.133,-3.667 6.9,-2.9C7.7,-2.1 8.1,-1.133 8.1,0C8.1,1.133 7.7,2.083 6.9,2.85C6.133,3.65 5.183,4.05 4.05,4.05C2.917,4.05 1.95,3.65 1.15,2.85C0.383,2.083 0,1.133 0,0C0,-1.133 0.383,-2.1 1.15,-2.9C1.95,-3.667 2.917,-4.05 4.05,-4.05" style="fill:url(#_Radial23);"/>
            </g>
            <g id="shape123" serif:id="shape1" transform="matrix(-0.055,0.0416,-0.0277,-0.0919,271.65,198.25)">
                <path d="M4.05,-4.05C5.183,-4.05 6.133,-3.667 6.9,-2.9C7.7,-2.1 8.1,-1.133 8.1,0C8.1,1.133 7.7,2.083 6.9,2.85C6.133,3.65 5.183,4.05 4.05,4.05C2.917,4.05 1.95,3.65 1.15,2.85C0.383,2.083 0,1.133 0,0C0,-1.133 0.383,-2.1 1.15,-2.9C1.95,-3.667 2.917,-4.05 4.05,-4.05" style="fill:url(#_Radial24);"/>
            </g>
            <g id="shape124" serif:id="shape1" transform="matrix(-0.0651,0.0094,0.0059,-0.1179,270.55,198.75)">
                <path d="M4.05,-4.05C5.183,-4.05 6.133,-3.667 6.9,-2.9C7.7,-2.1 8.1,-1.133 8.1,0C8.1,1.133 7.7,2.083 6.9,2.85C6.133,3.65 5.183,4.05 4.05,4.05C2.917,4.05 1.95,3.65 1.15,2.85C0.383,2.083 0,1.133 0,0C0,-1.133 0.383,-2.1 1.15,-2.9C1.95,-3.667 2.917,-4.05 4.05,-4.05" style="fill:url(#_Radial25);"/>
            </g>
            <g id="shape125" serif:id="shape1" transform="matrix(-0.0516,0.0075,0.0047,-0.0935,270.75,197.9)">
                <path d="M4.05,-4.05C5.183,-4.05 6.133,-3.667 6.9,-2.9C7.7,-2.1 8.1,-1.133 8.1,0C8.1,1.133 7.7,2.083 6.9,2.85C6.133,3.65 5.183,4.05 4.05,4.05C2.917,4.05 1.95,3.65 1.15,2.85C0.383,2.083 0,1.133 0,0C0,-1.133 0.383,-2.1 1.15,-2.9C1.95,-3.667 2.917,-4.05 4.05,-4.05" style="fill:url(#_Radial26);"/>
            </g>
            <g id="shape126" serif:id="shape1" transform="matrix(-0.0447,0.0065,0.004,-0.081,270.25,197.35)">
                <path d="M4.05,-4.05C5.183,-4.05 6.133,-3.667 6.9,-2.9C7.7,-2.1 8.1,-1.133 8.1,0C8.1,1.133 7.7,2.083 6.9,2.85C6.133,3.65 5.183,4.05 4.05,4.05C2.917,4.05 1.95,3.65 1.15,2.85C0.383,2.083 0,1.133 0,0C0,-1.133 0.383,-2.1 1.15,-2.9C1.95,-3.667 2.917,-4.05 4.05,-4.05" style="fill:url(#_Radial27);"/>
            </g>
            <g id="shape127" serif:id="shape1" transform="matrix(-0.0513,0.0608,-0.0472,-0.0807,273.25,197.25)">
                <path d="M4.05,-4.05C5.183,-4.05 6.133,-3.667 6.9,-2.9C7.7,-2.1 8.1,-1.133 8.1,0C8.1,1.133 7.7,2.083 6.9,2.85C6.133,3.65 5.183,4.05 4.05,4.05C2.917,4.05 1.95,3.65 1.15,2.85C0.383,2.083 0,1.133 0,0C0,-1.133 0.383,-2.1 1.15,-2.9C1.95,-3.667 2.917,-4.05 4.05,-4.05" style="fill:url(#_Radial28);"/>
            </g>
            <g id="shape128" serif:id="shape1" transform="matrix(-0.0407,0.0482,-0.0374,-0.0639,273.1,196.5)">
                <path d="M4.05,-4.05C5.183,-4.05 6.133,-3.667 6.9,-2.9C7.7,-2.1 8.1,-1.133 8.1,0C8.1,1.133 7.7,2.083 6.9,2.85C6.133,3.65 5.183,4.05 4.05,4.05C2.917,4.05 1.95,3.65 1.15,2.85C0.383,2.083 0,1.133 0,0C0,-1.133 0.383,-2.1 1.15,-2.9C1.95,-3.667 2.917,-4.05 4.05,-4.05" style="fill:url(#_Radial29);"/>
            </g>
            <g id="shape129" serif:id="shape1" transform="matrix(-0.0353,0.0418,-0.0324,-0.0554,272.45,196.6)">
                <path d="M4.05,-4.05C5.183,-4.05 6.133,-3.667 6.9,-2.9C7.7,-2.1 8.1,-1.133 8.1,0C8.1,1.133 7.7,2.083 6.9,2.85C6.133,3.65 5.183,4.05 4.05,4.05C2.917,4.05 1.95,3.65 1.15,2.85C0.383,2.083 0,1.133 0,0C0,-1.133 0.383,-2.1 1.15,-2.9C1.95,-3.667 2.917,-4.05 4.05,-4.05" style="fill:url(#_Radial30);"/>
            </g>
            <g id="shape016" serif:id="shape0" transform="matrix(-0.8316,-0.1572,0.2612,-1.1906,268.65,199.05)">
                <path d="M1.8,-3.5L2.1,0L1.8,3.5C1.6,4.467 1.35,4.95 1.05,4.95C0.75,4.95 0.5,4.467 0.3,3.5C0.1,2.533 0,1.367 0,0C0,-1.367 0.1,-2.533 0.3,-3.5C0.5,-4.467 0.75,-4.95 1.05,-4.95C1.35,-4.95 1.6,-4.467 1.8,-3.5" style="fill:#9b6e36;"/>
                <path d="M1.6,-0.75L1.8,1.5L1.6,3.75L1.1,4.7C0.9,4.667 0.75,4.35 0.65,3.75L0.45,1.5L0.65,-0.75C0.75,-1.383 0.9,-1.7 1.1,-1.7C1.3,-1.7 1.467,-1.383 1.6,-0.75" style="fill:#3c2913;"/>
            </g>
            <g id="shape017" serif:id="shape0" transform="matrix(-0.7704,0.2177,-0.0257,-1.0396,270.05,197.85)">
                <path d="M1.8,-3.5L2.1,0L1.8,3.5C1.6,4.467 1.35,4.95 1.05,4.95C0.75,4.95 0.5,4.467 0.3,3.5C0.1,2.533 0,1.367 0,0C0,-1.367 0.1,-2.533 0.3,-3.5C0.5,-4.467 0.75,-4.95 1.05,-4.95C1.35,-4.95 1.6,-4.467 1.8,-3.5" style="fill:#9b6e36;"/>
                <path d="M1.6,-0.75L1.8,1.5L1.6,3.75L1.1,4.7C0.9,4.667 0.75,4.35 0.65,3.75L0.45,1.5L0.65,-0.75C0.75,-1.383 0.9,-1.7 1.1,-1.7C1.3,-1.7 1.467,-1.383 1.6,-0.75" style="fill:#24180b;"/>
            </g>
            <g id="shape130" serif:id="shape1" transform="matrix(-0.1236,-0.025,0.0528,-0.2337,267.05,204.2)">
                <path d="M4.05,-4.05C5.183,-4.05 6.133,-3.667 6.9,-2.9C7.7,-2.1 8.1,-1.133 8.1,0C8.1,1.133 7.7,2.083 6.9,2.85C6.133,3.65 5.183,4.05 4.05,4.05C2.917,4.05 1.95,3.65 1.15,2.85C0.383,2.083 0,1.133 0,0C0,-1.133 0.383,-2.1 1.15,-2.9C1.95,-3.667 2.917,-4.05 4.05,-4.05" style="fill:url(#_Radial31);"/>
            </g>
            <g id="shape131" serif:id="shape1" transform="matrix(-0.098,-0.0198,0.0419,-0.1853,267.8,202.35)">
                <path d="M4.05,-4.05C5.183,-4.05 6.133,-3.667 6.9,-2.9C7.7,-2.1 8.1,-1.133 8.1,0C8.1,1.133 7.7,2.083 6.9,2.85C6.133,3.65 5.183,4.05 4.05,4.05C2.917,4.05 1.95,3.65 1.15,2.85C0.383,2.083 0,1.133 0,0C0,-1.133 0.383,-2.1 1.15,-2.9C1.95,-3.667 2.917,-4.05 4.05,-4.05" style="fill:url(#_Radial32);"/>
            </g>
            <g id="shape132" serif:id="shape1" transform="matrix(-0.0849,-0.0172,0.0363,-0.1605,267.2,201.05)">
                <path d="M4.05,-4.05C5.183,-4.05 6.133,-3.667 6.9,-2.9C7.7,-2.1 8.1,-1.133 8.1,0C8.1,1.133 7.7,2.083 6.9,2.85C6.133,3.65 5.183,4.05 4.05,4.05C2.917,4.05 1.95,3.65 1.15,2.85C0.383,2.083 0,1.133 0,0C0,-1.133 0.383,-2.1 1.15,-2.9C1.95,-3.667 2.917,-4.05 4.05,-4.05" style="fill:url(#_Radial33);"/>
            </g>
            <g id="shape133" serif:id="shape1" transform="matrix(-0.0726,-0.0739,0.0885,-0.1509,265.8,200.3)">
                <path d="M4.05,-4.05C5.183,-4.05 6.133,-3.667 6.9,-2.9C7.7,-2.1 8.1,-1.133 8.1,0C8.1,1.133 7.7,2.083 6.9,2.85C6.133,3.65 5.183,4.05 4.05,4.05C2.917,4.05 1.95,3.65 1.15,2.85C0.383,2.083 0,1.133 0,0C0,-1.133 0.383,-2.1 1.15,-2.9C1.95,-3.667 2.917,-4.05 4.05,-4.05" style="fill:url(#_Radial34);"/>
            </g>
            <g id="shape134" serif:id="shape1" transform="matrix(-0.0576,-0.0586,0.0701,-0.1196,266.55,199.35)">
                <path d="M4.05,-4.05C5.183,-4.05 6.133,-3.667 6.9,-2.9C7.7,-2.1 8.1,-1.133 8.1,0C8.1,1.133 7.7,2.083 6.9,2.85C6.133,3.65 5.183,4.05 4.05,4.05C2.917,4.05 1.95,3.65 1.15,2.85C0.383,2.083 0,1.133 0,0C0,-1.133 0.383,-2.1 1.15,-2.9C1.95,-3.667 2.917,-4.05 4.05,-4.05" style="fill:url(#_Radial35);"/>
            </g>
            <g id="shape135" serif:id="shape1" transform="matrix(-0.0499,-0.0507,0.0608,-0.1036,266.4,198)">
                <path d="M4.05,-4.05C5.183,-4.05 6.133,-3.667 6.9,-2.9C7.7,-2.1 8.1,-1.133 8.1,0C8.1,1.133 7.7,2.083 6.9,2.85C6.133,3.65 5.183,4.05 4.05,4.05C2.917,4.05 1.95,3.65 1.15,2.85C0.383,2.083 0,1.133 0,0C0,-1.133 0.383,-2.1 1.15,-2.9C1.95,-3.667 2.917,-4.05 4.05,-4.05" style="fill:url(#_Radial36);"/>
            </g>
            <g id="shape136" serif:id="shape1" transform="matrix(-0.0946,0.0137,0.0086,-0.1713,269.6,201.85)">
                <path d="M4.05,-4.05C5.183,-4.05 6.133,-3.667 6.9,-2.9C7.7,-2.1 8.1,-1.133 8.1,0C8.1,1.133 7.7,2.083 6.9,2.85C6.133,3.65 5.183,4.05 4.05,4.05C2.917,4.05 1.95,3.65 1.15,2.85C0.383,2.083 0,1.133 0,0C0,-1.133 0.383,-2.1 1.15,-2.9C1.95,-3.667 2.917,-4.05 4.05,-4.05" style="fill:url(#_Radial37);"/>
            </g>
            <g id="shape137" serif:id="shape1" transform="matrix(-0.075,0.0108,0.0068,-0.1358,269.9,200.65)">
                <path d="M4.05,-4.05C5.183,-4.05 6.133,-3.667 6.9,-2.9C7.7,-2.1 8.1,-1.133 8.1,0C8.1,1.133 7.7,2.083 6.9,2.85C6.133,3.65 5.183,4.05 4.05,4.05C2.917,4.05 1.95,3.65 1.15,2.85C0.383,2.083 0,1.133 0,0C0,-1.133 0.383,-2.1 1.15,-2.9C1.95,-3.667 2.917,-4.05 4.05,-4.05" style="fill:url(#_Radial38);"/>
            </g>
            <g id="shape138" serif:id="shape1" transform="matrix(-0.065,0.0094,0.0059,-0.1176,269.2,199.95)">
                <path d="M4.05,-4.05C5.183,-4.05 6.133,-3.667 6.9,-2.9C7.7,-2.1 8.1,-1.133 8.1,0C8.1,1.133 7.7,2.083 6.9,2.85C6.133,3.65 5.183,4.05 4.05,4.05C2.917,4.05 1.95,3.65 1.15,2.85C0.383,2.083 0,1.133 0,0C0,-1.133 0.383,-2.1 1.15,-2.9C1.95,-3.667 2.917,-4.05 4.05,-4.05" style="fill:url(#_Radial39);"/>
            </g>
            <g id="shape018" serif:id="shape0" transform="matrix(-0.4315,-0.6285,0.5385,-0.7134,266.3,194.35)">
                <path d="M1.8,-3.5L2.1,0L1.8,3.5C1.6,4.467 1.35,4.95 1.05,4.95C0.75,4.95 0.5,4.467 0.3,3.5C0.1,2.533 0,1.367 0,0C0,-1.367 0.1,-2.533 0.3,-3.5C0.5,-4.467 0.75,-4.95 1.05,-4.95C1.35,-4.95 1.6,-4.467 1.8,-3.5" style="fill:#7e592c;"/>
                <path d="M1.6,-0.75L1.8,1.5L1.6,3.75L1.1,4.7C0.9,4.667 0.75,4.35 0.65,3.75L0.45,1.5L0.65,-0.75C0.75,-1.383 0.9,-1.7 1.1,-1.7C1.3,-1.7 1.467,-1.383 1.6,-0.75" style="fill:#312110;"/>
            </g>
            <g id="shape019" serif:id="shape0" transform="matrix(-0.5178,-0.3154,0.3229,-0.7794,267.5,194.3)">
                <path d="M1.8,-3.5L2.1,0L1.8,3.5C1.6,4.467 1.35,4.95 1.05,4.95C0.75,4.95 0.5,4.467 0.3,3.5C0.1,2.533 0,1.367 0,0C0,-1.367 0.1,-2.533 0.3,-3.5C0.5,-4.467 0.75,-4.95 1.05,-4.95C1.35,-4.95 1.6,-4.467 1.8,-3.5" style="fill:#7e592c;"/>
                <path d="M1.6,-0.75L1.8,1.5L1.6,3.75L1.1,4.7C0.9,4.667 0.75,4.35 0.65,3.75L0.45,1.5L0.65,-0.75C0.75,-1.383 0.9,-1.7 1.1,-1.7C1.3,-1.7 1.467,-1.383 1.6,-0.75" style="fill:#322110;"/>
            </g>
            <g id="shape139" serif:id="shape1" transform="matrix(-0.0636,-0.0946,0.1066,-0.1391,263.7,197.15)">
                <path d="M4.05,-4.05C5.183,-4.05 6.133,-3.667 6.9,-2.9C7.7,-2.1 8.1,-1.133 8.1,0C8.1,1.133 7.7,2.083 6.9,2.85C6.133,3.65 5.183,4.05 4.05,4.05C2.917,4.05 1.95,3.65 1.15,2.85C0.383,2.083 0,1.133 0,0C0,-1.133 0.383,-2.1 1.15,-2.9C1.95,-3.667 2.917,-4.05 4.05,-4.05" style="fill:url(#_Radial40);"/>
            </g>
            <g id="shape140" serif:id="shape1" transform="matrix(-0.0504,-0.075,0.0845,-0.1102,264.75,196.2)">
                <path d="M4.05,-4.05C5.183,-4.05 6.133,-3.667 6.9,-2.9C7.7,-2.1 8.1,-1.133 8.1,0C8.1,1.133 7.7,2.083 6.9,2.85C6.133,3.65 5.183,4.05 4.05,4.05C2.917,4.05 1.95,3.65 1.15,2.85C0.383,2.083 0,1.133 0,0C0,-1.133 0.383,-2.1 1.15,-2.9C1.95,-3.667 2.917,-4.05 4.05,-4.05" style="fill:url(#_Radial41);"/>
            </g>
            <g id="shape141" serif:id="shape1" transform="matrix(-0.0437,-0.065,0.0732,-0.0955,264.85,194.9)">
                <path d="M4.05,-4.05C5.183,-4.05 6.133,-3.667 6.9,-2.9C7.7,-2.1 8.1,-1.133 8.1,0C8.1,1.133 7.7,2.083 6.9,2.85C6.133,3.65 5.183,4.05 4.05,4.05C2.917,4.05 1.95,3.65 1.15,2.85C0.383,2.083 0,1.133 0,0C0,-1.133 0.383,-2.1 1.15,-2.9C1.95,-3.667 2.917,-4.05 4.05,-4.05" style="fill:url(#_Radial42);"/>
            </g>
            <g id="shape142" serif:id="shape1" transform="matrix(-0.0181,-0.099,0.1004,-0.0562,264.2,193.45)">
                <path d="M4.05,-4.05C5.183,-4.05 6.133,-3.667 6.9,-2.9C7.7,-2.1 8.1,-1.133 8.1,0C8.1,1.133 7.7,2.083 6.9,2.85C6.133,3.65 5.183,4.05 4.05,4.05C2.917,4.05 1.95,3.65 1.15,2.85C0.383,2.083 0,1.133 0,0C0,-1.133 0.383,-2.1 1.15,-2.9C1.95,-3.667 2.917,-4.05 4.05,-4.05" style="fill:url(#_Radial43);"/>
            </g>
            <g id="shape143" serif:id="shape1" transform="matrix(-0.0144,-0.0785,0.0796,-0.0446,265,193.25)">
                <path d="M4.05,-4.05C5.183,-4.05 6.133,-3.667 6.9,-2.9C7.7,-2.1 8.1,-1.133 8.1,0C8.1,1.133 7.7,2.083 6.9,2.85C6.133,3.65 5.183,4.05 4.05,4.05C2.917,4.05 1.95,3.65 1.15,2.85C0.383,2.083 0,1.133 0,0C0,-1.133 0.383,-2.1 1.15,-2.9C1.95,-3.667 2.917,-4.05 4.05,-4.05" style="fill:url(#_Radial44);"/>
            </g>
            <g id="shape144" serif:id="shape1" transform="matrix(-0.0124,-0.068,0.0689,-0.0386,265.35,192.2)">
                <path d="M4.05,-4.05C5.183,-4.05 6.133,-3.667 6.9,-2.9C7.7,-2.1 8.1,-1.133 8.1,0C8.1,1.133 7.7,2.083 6.9,2.85C6.133,3.65 5.183,4.05 4.05,4.05C2.917,4.05 1.95,3.65 1.15,2.85C0.383,2.083 0,1.133 0,0C0,-1.133 0.383,-2.1 1.15,-2.9C1.95,-3.667 2.917,-4.05 4.05,-4.05" style="fill:url(#_Radial45);"/>
            </g>
            <g id="shape145" serif:id="shape1" transform="matrix(-0.0593,-0.0483,0.0607,-0.1206,265.95,197)">
                <path d="M4.05,-4.05C5.183,-4.05 6.133,-3.667 6.9,-2.9C7.7,-2.1 8.1,-1.133 8.1,0C8.1,1.133 7.7,2.083 6.9,2.85C6.133,3.65 5.183,4.05 4.05,4.05C2.917,4.05 1.95,3.65 1.15,2.85C0.383,2.083 0,1.133 0,0C0,-1.133 0.383,-2.1 1.15,-2.9C1.95,-3.667 2.917,-4.05 4.05,-4.05" style="fill:url(#_Radial46);"/>
            </g>
            <g id="shape146" serif:id="shape1" transform="matrix(-0.047,-0.0383,0.048,-0.0956,266.5,196.3)">
                <path d="M4.05,-4.05C5.183,-4.05 6.133,-3.667 6.9,-2.9C7.7,-2.1 8.1,-1.133 8.1,0C8.1,1.133 7.7,2.083 6.9,2.85C6.133,3.65 5.183,4.05 4.05,4.05C2.917,4.05 1.95,3.65 1.15,2.85C0.383,2.083 0,1.133 0,0C0,-1.133 0.383,-2.1 1.15,-2.9C1.95,-3.667 2.917,-4.05 4.05,-4.05" style="fill:url(#_Radial47);"/>
            </g>
            <g id="shape147" serif:id="shape1" transform="matrix(-0.0408,-0.0332,0.0416,-0.0828,266.3,195.3)">
                <path d="M4.05,-4.05C5.183,-4.05 6.133,-3.667 6.9,-2.9C7.7,-2.1 8.1,-1.133 8.1,0C8.1,1.133 7.7,2.083 6.9,2.85C6.133,3.65 5.183,4.05 4.05,4.05C2.917,4.05 1.95,3.65 1.15,2.85C0.383,2.083 0,1.133 0,0C0,-1.133 0.383,-2.1 1.15,-2.9C1.95,-3.667 2.917,-4.05 4.05,-4.05" style="fill:url(#_Radial48);"/>
            </g>
            <g id="shape020" serif:id="shape0" transform="matrix(-0.6791,0.3344,-0.1276,-0.8914,272.35,194.6)">
                <path d="M1.8,-3.5L2.1,0L1.8,3.5C1.6,4.467 1.35,4.95 1.05,4.95C0.75,4.95 0.5,4.467 0.3,3.5C0.1,2.533 0,1.367 0,0C0,-1.367 0.1,-2.533 0.3,-3.5C0.5,-4.467 0.75,-4.95 1.05,-4.95C1.35,-4.95 1.6,-4.467 1.8,-3.5" style="fill:#845d2e;"/>
                <path d="M1.6,-0.75L1.8,1.5L1.6,3.75L1.1,4.7C0.9,4.667 0.75,4.35 0.65,3.75L0.45,1.5L0.65,-0.75C0.75,-1.383 0.9,-1.7 1.1,-1.7C1.3,-1.7 1.467,-1.383 1.6,-0.75" style="fill:#332310;"/>
            </g>
            <g id="shape021" serif:id="shape0" transform="matrix(-0.4816,0.0609,0.0394,-0.6631,270.9,194)">
                <path d="M1.8,-3.5L2.1,0L1.8,3.5C1.6,4.467 1.35,4.95 1.05,4.95C0.75,4.95 0.5,4.467 0.3,3.5C0.1,2.533 0,1.367 0,0C0,-1.367 0.1,-2.533 0.3,-3.5C0.5,-4.467 0.75,-4.95 1.05,-4.95C1.35,-4.95 1.6,-4.467 1.8,-3.5" style="fill:#845d2e;"/>
                <path d="M1.6,-0.75L1.8,1.5L1.6,3.75L1.1,4.7C0.9,4.667 0.75,4.35 0.65,3.75L0.45,1.5L0.65,-0.75C0.75,-1.383 0.9,-1.7 1.1,-1.7C1.3,-1.7 1.467,-1.383 1.6,-0.75" style="fill:#332310;"/>
            </g>
            <g id="shape022" serif:id="shape0" transform="matrix(-0.5293,0.5402,-0.3055,-0.6459,273.1,193.05)">
                <path d="M1.8,-3.5L2.1,0L1.8,3.5C1.6,4.467 1.35,4.95 1.05,4.95C0.75,4.95 0.5,4.467 0.3,3.5C0.1,2.533 0,1.367 0,0C0,-1.367 0.1,-2.533 0.3,-3.5C0.5,-4.467 0.75,-4.95 1.05,-4.95C1.35,-4.95 1.6,-4.467 1.8,-3.5" style="fill:#845d2e;"/>
                <path d="M1.6,-0.75L1.8,1.5L1.6,3.75L1.1,4.7C0.9,4.667 0.75,4.35 0.65,3.75L0.45,1.5L0.65,-0.75C0.75,-1.383 0.9,-1.7 1.1,-1.7C1.3,-1.7 1.467,-1.383 1.6,-0.75" style="fill:#24180b;"/>
            </g>
            <g id="shape148" serif:id="shape1" transform="matrix(-0.1014,0.0486,-0.0239,-0.1758,272.6,198.65)">
                <path d="M4.05,-4.05C5.183,-4.05 6.133,-3.667 6.9,-2.9C7.7,-2.1 8.1,-1.133 8.1,0C8.1,1.133 7.7,2.083 6.9,2.85C6.133,3.65 5.183,4.05 4.05,4.05C2.917,4.05 1.95,3.65 1.15,2.85C0.383,2.083 0,1.133 0,0C0,-1.133 0.383,-2.1 1.15,-2.9C1.95,-3.667 2.917,-4.05 4.05,-4.05" style="fill:url(#_Radial49);"/>
            </g>
            <g id="shape149" serif:id="shape1" transform="matrix(-0.0804,0.0386,-0.0189,-0.1393,272.6,197.1)">
                <path d="M4.05,-4.05C5.183,-4.05 6.133,-3.667 6.9,-2.9C7.7,-2.1 8.1,-1.133 8.1,0C8.1,1.133 7.7,2.083 6.9,2.85C6.133,3.65 5.183,4.05 4.05,4.05C2.917,4.05 1.95,3.65 1.15,2.85C0.383,2.083 0,1.133 0,0C0,-1.133 0.383,-2.1 1.15,-2.9C1.95,-3.667 2.917,-4.05 4.05,-4.05" style="fill:url(#_Radial50);"/>
            </g>
            <g id="shape150" serif:id="shape1" transform="matrix(-0.0696,0.0334,-0.0164,-0.1207,271.8,196.55)">
                <path d="M4.05,-4.05C5.183,-4.05 6.133,-3.667 6.9,-2.9C7.7,-2.1 8.1,-1.133 8.1,0C8.1,1.133 7.7,2.083 6.9,2.85C6.133,3.65 5.183,4.05 4.05,4.05C2.917,4.05 1.95,3.65 1.15,2.85C0.383,2.083 0,1.133 0,0C0,-1.133 0.383,-2.1 1.15,-2.9C1.95,-3.667 2.917,-4.05 4.05,-4.05" style="fill:url(#_Radial51);"/>
            </g>
            <g id="shape151" serif:id="shape1" transform="matrix(-0.0758,-0.009,0.0262,-0.1419,270.5,196.85)">
                <path d="M4.05,-4.05C5.183,-4.05 6.133,-3.667 6.9,-2.9C7.7,-2.1 8.1,-1.133 8.1,0C8.1,1.133 7.7,2.083 6.9,2.85C6.133,3.65 5.183,4.05 4.05,4.05C2.917,4.05 1.95,3.65 1.15,2.85C0.383,2.083 0,1.133 0,0C0,-1.133 0.383,-2.1 1.15,-2.9C1.95,-3.667 2.917,-4.05 4.05,-4.05" style="fill:url(#_Radial52);"/>
            </g>
            <g id="shape152" serif:id="shape1" transform="matrix(-0.0601,-0.0071,0.0208,-0.1125,270.85,195.85)">
                <path d="M4.05,-4.05C5.183,-4.05 6.133,-3.667 6.9,-2.9C7.7,-2.1 8.1,-1.133 8.1,0C8.1,1.133 7.7,2.083 6.9,2.85C6.133,3.65 5.183,4.05 4.05,4.05C2.917,4.05 1.95,3.65 1.15,2.85C0.383,2.083 0,1.133 0,0C0,-1.133 0.383,-2.1 1.15,-2.9C1.95,-3.667 2.917,-4.05 4.05,-4.05" style="fill:url(#_Radial53);"/>
            </g>
            <g id="shape153" serif:id="shape1" transform="matrix(-0.0521,-0.0062,0.018,-0.0974,270.35,195.1)">
                <path d="M4.05,-4.05C5.183,-4.05 6.133,-3.667 6.9,-2.9C7.7,-2.1 8.1,-1.133 8.1,0C8.1,1.133 7.7,2.083 6.9,2.85C6.133,3.65 5.183,4.05 4.05,4.05C2.917,4.05 1.95,3.65 1.15,2.85C0.383,2.083 0,1.133 0,0C0,-1.133 0.383,-2.1 1.15,-2.9C1.95,-3.667 2.917,-4.05 4.05,-4.05" style="fill:url(#_Radial54);"/>
            </g>
            <g id="shape154" serif:id="shape1" transform="matrix(-0.0686,0.058,-0.0406,-0.1131,273.85,195.85)">
                <path d="M4.05,-4.05C5.183,-4.05 6.133,-3.667 6.9,-2.9C7.7,-2.1 8.1,-1.133 8.1,0C8.1,1.133 7.7,2.083 6.9,2.85C6.133,3.65 5.183,4.05 4.05,4.05C2.917,4.05 1.95,3.65 1.15,2.85C0.383,2.083 0,1.133 0,0C0,-1.133 0.383,-2.1 1.15,-2.9C1.95,-3.667 2.917,-4.05 4.05,-4.05" style="fill:url(#_Radial55);"/>
            </g>
            <g id="shape155" serif:id="shape1" transform="matrix(-0.0544,0.046,-0.0322,-0.0897,273.75,194.9)">
                <path d="M4.05,-4.05C5.183,-4.05 6.133,-3.667 6.9,-2.9C7.7,-2.1 8.1,-1.133 8.1,0C8.1,1.133 7.7,2.083 6.9,2.85C6.133,3.65 5.183,4.05 4.05,4.05C2.917,4.05 1.95,3.65 1.15,2.85C0.383,2.083 0,1.133 0,0C0,-1.133 0.383,-2.1 1.15,-2.9C1.95,-3.667 2.917,-4.05 4.05,-4.05" style="fill:url(#_Radial56);"/>
            </g>
            <g id="shape156" serif:id="shape1" transform="matrix(-0.0471,0.0399,-0.0278,-0.0777,273,194.8)">
                <path d="M4.05,-4.05C5.183,-4.05 6.133,-3.667 6.9,-2.9C7.7,-2.1 8.1,-1.133 8.1,0C8.1,1.133 7.7,2.083 6.9,2.85C6.133,3.65 5.183,4.05 4.05,4.05C2.917,4.05 1.95,3.65 1.15,2.85C0.383,2.083 0,1.133 0,0C0,-1.133 0.383,-2.1 1.15,-2.9C1.95,-3.667 2.917,-4.05 4.05,-4.05" style="fill:url(#_Radial57);"/>
            </g>
            <g id="shape023" serif:id="shape0" transform="matrix(-0.9224,-0.4523,0.4945,-1.3692,268.3,196.65)">
                <path d="M1.8,-3.5L2.1,0L1.8,3.5C1.6,4.467 1.35,4.95 1.05,4.95C0.75,4.95 0.5,4.467 0.3,3.5C0.1,2.533 0,1.367 0,0C0,-1.367 0.1,-2.533 0.3,-3.5C0.5,-4.467 0.75,-4.95 1.05,-4.95C1.35,-4.95 1.6,-4.467 1.8,-3.5" style="fill:#d2954a;"/>
                <path d="M1.6,-0.75L1.8,1.5L1.6,3.75L1.1,4.7C0.9,4.667 0.75,4.35 0.65,3.75L0.45,1.5L0.65,-0.75C0.75,-1.383 0.9,-1.7 1.1,-1.7C1.3,-1.7 1.467,-1.383 1.6,-0.75" style="fill:#52381b;"/>
            </g>
            <g id="shape024" serif:id="shape0" transform="matrix(-0.5308,-0.5581,0.504,-0.8401,267.25,193.9)">
                <path d="M1.8,-3.5L2.1,0L1.8,3.5C1.6,4.467 1.35,4.95 1.05,4.95C0.75,4.95 0.5,4.467 0.3,3.5C0.1,2.533 0,1.367 0,0C0,-1.367 0.1,-2.533 0.3,-3.5C0.5,-4.467 0.75,-4.95 1.05,-4.95C1.35,-4.95 1.6,-4.467 1.8,-3.5" style="fill:#d2954a;"/>
                <path d="M1.6,-0.75L1.8,1.5L1.6,3.75L1.1,4.7C0.9,4.667 0.75,4.35 0.65,3.75L0.45,1.5L0.65,-0.75C0.75,-1.383 0.9,-1.7 1.1,-1.7C1.3,-1.7 1.467,-1.383 1.6,-0.75" style="fill:#52381b;"/>
            </g>
            <g id="shape025" serif:id="shape0" transform="matrix(-0.9146,0.0237,0.1424,-1.2751,270.15,195.65)">
                <path d="M1.8,-3.5L2.1,0L1.8,3.5C1.6,4.467 1.35,4.95 1.05,4.95C0.75,4.95 0.5,4.467 0.3,3.5C0.1,2.533 0,1.367 0,0C0,-1.367 0.1,-2.533 0.3,-3.5C0.5,-4.467 0.75,-4.95 1.05,-4.95C1.35,-4.95 1.6,-4.467 1.8,-3.5" style="fill:#d2954a;"/>
                <path d="M1.6,-0.75L1.8,1.5L1.6,3.75L1.1,4.7C0.9,4.667 0.75,4.35 0.65,3.75L0.45,1.5L0.65,-0.75C0.75,-1.383 0.9,-1.7 1.1,-1.7C1.3,-1.7 1.467,-1.383 1.6,-0.75" style="fill:#24180b;"/>
            </g>
            <g id="shape157" serif:id="shape1" transform="matrix(-0.1368,-0.0693,0.0988,-0.2683,265.7,202.45)">
                <path d="M4.05,-4.05C5.183,-4.05 6.133,-3.667 6.9,-2.9C7.7,-2.1 8.1,-1.133 8.1,0C8.1,1.133 7.7,2.083 6.9,2.85C6.133,3.65 5.183,4.05 4.05,4.05C2.917,4.05 1.95,3.65 1.15,2.85C0.383,2.083 0,1.133 0,0C0,-1.133 0.383,-2.1 1.15,-2.9C1.95,-3.667 2.917,-4.05 4.05,-4.05" style="fill:url(#_Radial58);"/>
            </g>
            <g id="shape158" serif:id="shape1" transform="matrix(-0.1085,-0.0549,0.0783,-0.2126,266.8,200.4)">
                <path d="M4.05,-4.05C5.183,-4.05 6.133,-3.667 6.9,-2.9C7.7,-2.1 8.1,-1.133 8.1,0C8.1,1.133 7.7,2.083 6.9,2.85C6.133,3.65 5.183,4.05 4.05,4.05C2.917,4.05 1.95,3.65 1.15,2.85C0.383,2.083 0,1.133 0,0C0,-1.133 0.383,-2.1 1.15,-2.9C1.95,-3.667 2.917,-4.05 4.05,-4.05" style="fill:url(#_Radial59);"/>
            </g>
            <g id="shape159" serif:id="shape1" transform="matrix(-0.094,-0.0476,0.0679,-0.1842,266.4,198.65)">
                <path d="M4.05,-4.05C5.183,-4.05 6.133,-3.667 6.9,-2.9C7.7,-2.1 8.1,-1.133 8.1,0C8.1,1.133 7.7,2.083 6.9,2.85C6.133,3.65 5.183,4.05 4.05,4.05C2.917,4.05 1.95,3.65 1.15,2.85C0.383,2.083 0,1.133 0,0C0,-1.133 0.383,-2.1 1.15,-2.9C1.95,-3.667 2.917,-4.05 4.05,-4.05" style="fill:url(#_Radial60);"/>
            </g>
            <g id="shape160" serif:id="shape1" transform="matrix(-0.0706,-0.1128,0.1259,-0.1561,264.85,197.25)">
                <path d="M4.05,-4.05C5.183,-4.05 6.133,-3.667 6.9,-2.9C7.7,-2.1 8.1,-1.133 8.1,0C8.1,1.133 7.7,2.083 6.9,2.85C6.133,3.65 5.183,4.05 4.05,4.05C2.917,4.05 1.95,3.65 1.15,2.85C0.383,2.083 0,1.133 0,0C0,-1.133 0.383,-2.1 1.15,-2.9C1.95,-3.667 2.917,-4.05 4.05,-4.05" style="fill:url(#_Radial61);"/>
            </g>
            <g id="shape161" serif:id="shape1" transform="matrix(-0.056,-0.0894,0.0998,-0.1238,265.95,196.35)">
                <path d="M4.05,-4.05C5.183,-4.05 6.133,-3.667 6.9,-2.9C7.7,-2.1 8.1,-1.133 8.1,0C8.1,1.133 7.7,2.083 6.9,2.85C6.133,3.65 5.183,4.05 4.05,4.05C2.917,4.05 1.95,3.65 1.15,2.85C0.383,2.083 0,1.133 0,0C0,-1.133 0.383,-2.1 1.15,-2.9C1.95,-3.667 2.917,-4.05 4.05,-4.05" style="fill:url(#_Radial62);"/>
            </g>
            <g id="shape162" serif:id="shape1" transform="matrix(-0.0485,-0.0775,0.0864,-0.1072,265.95,194.75)">
                <path d="M4.05,-4.05C5.183,-4.05 6.133,-3.667 6.9,-2.9C7.7,-2.1 8.1,-1.133 8.1,0C8.1,1.133 7.7,2.083 6.9,2.85C6.133,3.65 5.183,4.05 4.05,4.05C2.917,4.05 1.95,3.65 1.15,2.85C0.383,2.083 0,1.133 0,0C0,-1.133 0.383,-2.1 1.15,-2.9C1.95,-3.667 2.917,-4.05 4.05,-4.05" style="fill:url(#_Radial63);"/>
            </g>
            <g id="shape163" serif:id="shape1" transform="matrix(-0.1101,-0.013,0.0381,-0.2061,268.95,200.4)">
                <path d="M4.05,-4.05C5.183,-4.05 6.133,-3.667 6.9,-2.9C7.7,-2.1 8.1,-1.133 8.1,0C8.1,1.133 7.7,2.083 6.9,2.85C6.133,3.65 5.183,4.05 4.05,4.05C2.917,4.05 1.95,3.65 1.15,2.85C0.383,2.083 0,1.133 0,0C0,-1.133 0.383,-2.1 1.15,-2.9C1.95,-3.667 2.917,-4.05 4.05,-4.05" style="fill:url(#_Radial64);"/>
            </g>
            <g id="shape164" serif:id="shape1" transform="matrix(-0.0873,-0.0103,0.0302,-0.1634,269.5,199.05)">
                <path d="M4.05,-4.05C5.183,-4.05 6.133,-3.667 6.9,-2.9C7.7,-2.1 8.1,-1.133 8.1,0C8.1,1.133 7.7,2.083 6.9,2.85C6.133,3.65 5.183,4.05 4.05,4.05C2.917,4.05 1.95,3.65 1.15,2.85C0.383,2.083 0,1.133 0,0C0,-1.133 0.383,-2.1 1.15,-2.9C1.95,-3.667 2.917,-4.05 4.05,-4.05" style="fill:url(#_Radial65);"/>
            </g>
            <g id="shape026" serif:id="shape0" transform="matrix(-1.7536,-0.1319,0.0944,-1.2552,271.25,188.95)">
                <path d="M1.8,-3.5L2.1,0L1.8,3.5C1.6,4.467 1.35,4.95 1.05,4.95C0.75,4.95 0.5,4.467 0.3,3.5C0.1,2.533 0,1.367 0,0C0,-1.367 0.1,-2.533 0.3,-3.5C0.5,-4.467 0.75,-4.95 1.05,-4.95C1.35,-4.95 1.6,-4.467 1.8,-3.5" style="fill:#d2954a;"/>
                <path d="M1.6,-0.75L1.8,1.5L1.6,3.75L1.1,4.7C0.9,4.667 0.75,4.35 0.65,3.75L0.45,1.5L0.65,-0.75C0.75,-1.383 0.9,-1.7 1.1,-1.7C1.3,-1.7 1.467,-1.383 1.6,-0.75" style="fill:#52381b;"/>
            </g>
            <g id="shape027" serif:id="shape0" transform="matrix(-1.1655,-0.3209,0.3877,-0.8224,268.05,186.95)">
                <path d="M1.8,-3.5L2.1,0L1.8,3.5C1.6,4.467 1.35,4.95 1.05,4.95C0.75,4.95 0.5,4.467 0.3,3.5C0.1,2.533 0,1.367 0,0C0,-1.367 0.1,-2.533 0.3,-3.5C0.5,-4.467 0.75,-4.95 1.05,-4.95C1.35,-4.95 1.6,-4.467 1.8,-3.5" style="fill:#d2954a;"/>
                <path d="M1.6,-0.75L1.8,1.5L1.6,3.75L1.1,4.7C0.9,4.667 0.75,4.35 0.65,3.75L0.45,1.5L0.65,-0.75C0.75,-1.383 0.9,-1.7 1.1,-1.7C1.3,-1.7 1.467,-1.383 1.6,-0.75" style="fill:#52381b;"/>
            </g>
            <g id="shape028" serif:id="shape0" transform="matrix(-1.491,0.2577,-0.435,-1.0861,273.7,187.65)">
                <path d="M1.8,-3.5L2.1,0L1.8,3.5C1.6,4.467 1.35,4.95 1.05,4.95C0.75,4.95 0.5,4.467 0.3,3.5C0.1,2.533 0,1.367 0,0C0,-1.367 0.1,-2.533 0.3,-3.5C0.5,-4.467 0.75,-4.95 1.05,-4.95C1.35,-4.95 1.6,-4.467 1.8,-3.5" style="fill:#d2954a;"/>
                <path d="M1.6,-0.75L1.8,1.5L1.6,3.75L1.1,4.7C0.9,4.667 0.75,4.35 0.65,3.75L0.45,1.5L0.65,-0.75C0.75,-1.383 0.9,-1.7 1.1,-1.7C1.3,-1.7 1.467,-1.383 1.6,-0.75" style="fill:#52381b;"/>
            </g>
            <g id="shape165" serif:id="shape1" transform="matrix(-0.1752,-0.0744,0.125,-0.1612,265.8,190.3)">
                <path d="M4.05,-4.05C5.183,-4.05 6.133,-3.667 6.9,-2.9C7.7,-2.1 8.1,-1.133 8.1,0C8.1,1.133 7.7,2.083 6.9,2.85C6.133,3.65 5.183,4.05 4.05,4.05C2.917,4.05 1.95,3.65 1.15,2.85C0.383,2.083 0,1.133 0,0C0,-1.133 0.383,-2.1 1.15,-2.9C1.95,-3.667 2.917,-4.05 4.05,-4.05" style="fill:url(#_Radial66);"/>
            </g>
            <g id="shape166" serif:id="shape1" transform="matrix(-0.1203,-0.0511,0.0858,-0.1107,266.35,188)">
                <path d="M4.05,-4.05C5.183,-4.05 6.133,-3.667 6.9,-2.9C7.7,-2.1 8.1,-1.133 8.1,0C8.1,1.133 7.7,2.083 6.9,2.85C6.133,3.65 5.183,4.05 4.05,4.05C2.917,4.05 1.95,3.65 1.15,2.85C0.383,2.083 0,1.133 0,0C0,-1.133 0.383,-2.1 1.15,-2.9C1.95,-3.667 2.917,-4.05 4.05,-4.05" style="fill:url(#_Radial67);"/>
            </g>
            <g id="shape167" serif:id="shape1" transform="matrix(-0.1879,0.018,-0.0456,-0.1795,274.25,191.85)">
                <path d="M4.05,-4.05C5.183,-4.05 6.133,-3.667 6.9,-2.9C7.7,-2.1 8.1,-1.133 8.1,0C8.1,1.133 7.7,2.083 6.9,2.85C6.133,3.65 5.183,4.05 4.05,4.05C2.917,4.05 1.95,3.65 1.15,2.85C0.383,2.083 0,1.133 0,0C0,-1.133 0.383,-2.1 1.15,-2.9C1.95,-3.667 2.917,-4.05 4.05,-4.05" style="fill:url(#_Radial68);"/>
            </g>
            <g id="shape168" serif:id="shape1" transform="matrix(-0.1489,0.0142,-0.0362,-0.1423,274.45,190.6)">
                <path d="M4.05,-4.05C5.183,-4.05 6.133,-3.667 6.9,-2.9C7.7,-2.1 8.1,-1.133 8.1,0C8.1,1.133 7.7,2.083 6.9,2.85C6.133,3.65 5.183,4.05 4.05,4.05C2.917,4.05 1.95,3.65 1.15,2.85C0.383,2.083 0,1.133 0,0C0,-1.133 0.383,-2.1 1.15,-2.9C1.95,-3.667 2.917,-4.05 4.05,-4.05" style="fill:url(#_Radial69);"/>
            </g>
            <g id="shape169" serif:id="shape1" transform="matrix(-0.1291,0.0123,-0.0313,-0.1233,272.65,189.85)">
                <path d="M4.05,-4.05C5.183,-4.05 6.133,-3.667 6.9,-2.9C7.7,-2.1 8.1,-1.133 8.1,0C8.1,1.133 7.7,2.083 6.9,2.85C6.133,3.65 5.183,4.05 4.05,4.05C2.917,4.05 1.95,3.65 1.15,2.85C0.383,2.083 0,1.133 0,0C0,-1.133 0.383,-2.1 1.15,-2.9C1.95,-3.667 2.917,-4.05 4.05,-4.05" style="fill:url(#_Radial70);"/>
            </g>
            <g id="shape029" serif:id="shape0" transform="matrix(-1.7536,-0.1319,0.0944,-1.2552,270.55,192.55)">
                <path d="M1.8,-3.5L2.1,0L1.8,3.5C1.6,4.467 1.35,4.95 1.05,4.95C0.75,4.95 0.5,4.467 0.3,3.5C0.1,2.533 0,1.367 0,0C0,-1.367 0.1,-2.533 0.3,-3.5C0.5,-4.467 0.75,-4.95 1.05,-4.95C1.35,-4.95 1.6,-4.467 1.8,-3.5" style="fill:#d2954a;"/>
                <path d="M1.6,-0.75L1.8,1.5L1.6,3.75L1.1,4.7C0.9,4.667 0.75,4.35 0.65,3.75L0.45,1.5L0.65,-0.75C0.75,-1.383 0.9,-1.7 1.1,-1.7C1.3,-1.7 1.467,-1.383 1.6,-0.75" style="fill:#52381b;"/>
            </g>
            <g id="shape030" serif:id="shape0" transform="matrix(-1.1655,-0.3209,0.3877,-0.8224,267.35,190.55)">
                <path d="M1.8,-3.5L2.1,0L1.8,3.5C1.6,4.467 1.35,4.95 1.05,4.95C0.75,4.95 0.5,4.467 0.3,3.5C0.1,2.533 0,1.367 0,0C0,-1.367 0.1,-2.533 0.3,-3.5C0.5,-4.467 0.75,-4.95 1.05,-4.95C1.35,-4.95 1.6,-4.467 1.8,-3.5" style="fill:#d2954a;"/>
                <path d="M1.6,-0.75L1.8,1.5L1.6,3.75L1.1,4.7C0.9,4.667 0.75,4.35 0.65,3.75L0.45,1.5L0.65,-0.75C0.75,-1.383 0.9,-1.7 1.1,-1.7C1.3,-1.7 1.467,-1.383 1.6,-0.75" style="fill:#52381b;"/>
            </g>
            <g id="shape031" serif:id="shape0" transform="matrix(-1.491,0.2577,-0.435,-1.0861,273,191.25)">
                <path d="M1.8,-3.5L2.1,0L1.8,3.5C1.6,4.467 1.35,4.95 1.05,4.95C0.75,4.95 0.5,4.467 0.3,3.5C0.1,2.533 0,1.367 0,0C0,-1.367 0.1,-2.533 0.3,-3.5C0.5,-4.467 0.75,-4.95 1.05,-4.95C1.35,-4.95 1.6,-4.467 1.8,-3.5" style="fill:#d2954a;"/>
                <path d="M1.6,-0.75L1.8,1.5L1.6,3.75L1.1,4.7C0.9,4.667 0.75,4.35 0.65,3.75L0.45,1.5L0.65,-0.75C0.75,-1.383 0.9,-1.7 1.1,-1.7C1.3,-1.7 1.467,-1.383 1.6,-0.75" style="fill:#52381b;"/>
            </g>
            <g id="shape170" serif:id="shape1" transform="matrix(-0.2613,-0.0213,0.0217,-0.2464,269.25,198.05)">
                <path d="M4.05,-4.05C5.183,-4.05 6.133,-3.667 6.9,-2.9C7.7,-2.1 8.1,-1.133 8.1,0C8.1,1.133 7.7,2.083 6.9,2.85C6.133,3.65 5.183,4.05 4.05,4.05C2.917,4.05 1.95,3.65 1.15,2.85C0.383,2.083 0,1.133 0,0C0,-1.133 0.383,-2.1 1.15,-2.9C1.95,-3.667 2.917,-4.05 4.05,-4.05" style="fill:url(#_Radial71);"/>
            </g>
            <g id="shape171" serif:id="shape1" transform="matrix(-0.2071,-0.0169,0.0172,-0.1954,270,196)">
                <path d="M4.05,-4.05C5.183,-4.05 6.133,-3.667 6.9,-2.9C7.7,-2.1 8.1,-1.133 8.1,0C8.1,1.133 7.7,2.083 6.9,2.85C6.133,3.65 5.183,4.05 4.05,4.05C2.917,4.05 1.95,3.65 1.15,2.85C0.383,2.083 0,1.133 0,0C0,-1.133 0.383,-2.1 1.15,-2.9C1.95,-3.667 2.917,-4.05 4.05,-4.05" style="fill:url(#_Radial72);"/>
            </g>
            <g id="shape172" serif:id="shape1" transform="matrix(-0.1794,-0.0146,0.0149,-0.1692,268.4,194.65)">
                <path d="M4.05,-4.05C5.183,-4.05 6.133,-3.667 6.9,-2.9C7.7,-2.1 8.1,-1.133 8.1,0C8.1,1.133 7.7,2.083 6.9,2.85C6.133,3.65 5.183,4.05 4.05,4.05C2.917,4.05 1.95,3.65 1.15,2.85C0.383,2.083 0,1.133 0,0C0,-1.133 0.383,-2.1 1.15,-2.9C1.95,-3.667 2.917,-4.05 4.05,-4.05" style="fill:url(#_Radial73);"/>
            </g>
            <g id="shape173" serif:id="shape1" transform="matrix(-0.1752,-0.0744,0.125,-0.1612,265.1,193.9)">
                <path d="M4.05,-4.05C5.183,-4.05 6.133,-3.667 6.9,-2.9C7.7,-2.1 8.1,-1.133 8.1,0C8.1,1.133 7.7,2.083 6.9,2.85C6.133,3.65 5.183,4.05 4.05,4.05C2.917,4.05 1.95,3.65 1.15,2.85C0.383,2.083 0,1.133 0,0C0,-1.133 0.383,-2.1 1.15,-2.9C1.95,-3.667 2.917,-4.05 4.05,-4.05" style="fill:url(#_Radial74);"/>
            </g>
            <g id="shape174" serif:id="shape1" transform="matrix(-0.1389,-0.059,0.099,-0.1278,266.45,192.95)">
                <path d="M4.05,-4.05C5.183,-4.05 6.133,-3.667 6.9,-2.9C7.7,-2.1 8.1,-1.133 8.1,0C8.1,1.133 7.7,2.083 6.9,2.85C6.133,3.65 5.183,4.05 4.05,4.05C2.917,4.05 1.95,3.65 1.15,2.85C0.383,2.083 0,1.133 0,0C0,-1.133 0.383,-2.1 1.15,-2.9C1.95,-3.667 2.917,-4.05 4.05,-4.05" style="fill:url(#_Radial75);"/>
            </g>
            <g id="shape175" serif:id="shape1" transform="matrix(-0.1203,-0.0511,0.0858,-0.1107,265.65,191.6)">
                <path d="M4.05,-4.05C5.183,-4.05 6.133,-3.667 6.9,-2.9C7.7,-2.1 8.1,-1.133 8.1,0C8.1,1.133 7.7,2.083 6.9,2.85C6.133,3.65 5.183,4.05 4.05,4.05C2.917,4.05 1.95,3.65 1.15,2.85C0.383,2.083 0,1.133 0,0C0,-1.133 0.383,-2.1 1.15,-2.9C1.95,-3.667 2.917,-4.05 4.05,-4.05" style="fill:url(#_Radial76);"/>
            </g>
            <g id="shape176" serif:id="shape1" transform="matrix(-0.1879,0.018,-0.0456,-0.1795,273.55,195.45)">
                <path d="M4.05,-4.05C5.183,-4.05 6.133,-3.667 6.9,-2.9C7.7,-2.1 8.1,-1.133 8.1,0C8.1,1.133 7.7,2.083 6.9,2.85C6.133,3.65 5.183,4.05 4.05,4.05C2.917,4.05 1.95,3.65 1.15,2.85C0.383,2.083 0,1.133 0,0C0,-1.133 0.383,-2.1 1.15,-2.9C1.95,-3.667 2.917,-4.05 4.05,-4.05" style="fill:url(#_Radial77);"/>
            </g>
            <g id="shape177" serif:id="shape1" transform="matrix(-0.1489,0.0142,-0.0362,-0.1423,273.75,194.2)">
                <path d="M4.05,-4.05C5.183,-4.05 6.133,-3.667 6.9,-2.9C7.7,-2.1 8.1,-1.133 8.1,0C8.1,1.133 7.7,2.083 6.9,2.85C6.133,3.65 5.183,4.05 4.05,4.05C2.917,4.05 1.95,3.65 1.15,2.85C0.383,2.083 0,1.133 0,0C0,-1.133 0.383,-2.1 1.15,-2.9C1.95,-3.667 2.917,-4.05 4.05,-4.05" style="fill:url(#_Radial78);"/>
            </g>
            <g id="shape178" serif:id="shape1" transform="matrix(-0.1291,0.0123,-0.0313,-0.1233,271.95,193.45)">
                <path d="M4.05,-4.05C5.183,-4.05 6.133,-3.667 6.9,-2.9C7.7,-2.1 8.1,-1.133 8.1,0C8.1,1.133 7.7,2.083 6.9,2.85C6.133,3.65 5.183,4.05 4.05,4.05C2.917,4.05 1.95,3.65 1.15,2.85C0.383,2.083 0,1.133 0,0C0,-1.133 0.383,-2.1 1.15,-2.9C1.95,-3.667 2.917,-4.05 4.05,-4.05" style="fill:url(#_Radial79);"/>
            </g>
        </g>
    </g>
    <defs>
        <radialGradient id="_Radial1" cx="0" cy="0" r="1" gradientUnits="userSpaceOnUse" gradientTransform="matrix(4.17792,0,0,4.17792,4.05,0)"><stop offset="0" style="stop-color:#a1a1a1;stop-opacity:1"/><stop offset="1" style="stop-color:#a1a1a1;stop-opacity:0"/></radialGradient>
        <radialGradient id="_Radial2" cx="0" cy="0" r="1" gradientUnits="userSpaceOnUse" gradientTransform="matrix(4.17792,0,0,4.17792,4.05,0)"><stop offset="0" style="stop-color:#a1a1a1;stop-opacity:1"/><stop offset="1" style="stop-color:#a1a1a1;stop-opacity:0"/></radialGradient>
        <radialGradient id="_Radial3" cx="0" cy="0" r="1" gradientUnits="userSpaceOnUse" gradientTransform="matrix(4.17792,0,0,4.17792,4.05,0)"><stop offset="0" style="stop-color:#a1a1a1;stop-opacity:1"/><stop offset="1" style="stop-color:#a1a1a1;stop-opacity:0"/></radialGradient>
        <radialGradient id="_Radial4" cx="0" cy="0" r="1" gradientUnits="userSpaceOnUse" gradientTransform="matrix(4.17792,0,0,4.17792,4.05,0)"><stop offset="0" style="stop-color:#a1a1a1;stop-opacity:1"/><stop offset="1" style="stop-color:#a1a1a1;stop-opacity:0"/></radialGradient>
        <radialGradient id="_Radial5" cx="0" cy="0" r="1" gradientUnits="userSpaceOnUse" gradientTransform="matrix(4.17792,0,0,4.17792,4.05,0)"><stop offset="0" style="stop-color:#a1a1a1;stop-opacity:1"/><stop offset="1" style="stop-color:#a1a1a1;stop-opacity:0"/></radialGradient>
        <radialGradient id="_Radial6" cx="0" cy="0" r="1" gradientUnits="userSpaceOnUse" gradientTransform="matrix(4.17792,0,0,4.17792,4.05,0)"><stop offset="0" style="stop-color:#fff;stop-opacity:0.61"/><stop offset="1" style="stop-color:#fff;stop-opacity:0"/></radialGradient>
        <radialGradient id="_Radial7" cx="0" cy="0" r="1" gradientUnits="userSpaceOnUse" gradientTransform="matrix(4.17792,0,0,4.17792,4.05,0)"><stop offset="0" style="stop-color:#fff;stop-opacity:0.61"/><stop offset="1" style="stop-color:#fff;stop-opacity:0"/></radialGradient>
        <radialGradient id="_Radial8" cx="0" cy="0" r="1" gradientUnits="userSpaceOnUse" gradientTransform="matrix(4.17792,0,0,4.17792,4.05,0)"><stop offset="0" style="stop-color:#fff;stop-opacity:1"/><stop offset="1" style="stop-color:#fff;stop-opacity:0"/></radialGradient>
        <radialGradient id="_Radial9" cx="0" cy="0" r="1" gradientUnits="userSpaceOnUse" gradientTransform="matrix(4.17792,0,0,4.17792,4.05,0)"><stop offset="0" style="stop-color:#fff;stop-opacity:1"/><stop offset="1" style="stop-color:#fff;stop-opacity:0"/></radialGradient>
        <radialGradient id="_Radial10" cx="0" cy="0" r="1" gradientUnits="userSpaceOnUse" gradientTransform="matrix(4.17792,0,0,4.17792,4.05,0)"><stop offset="0" style="stop-color:#fff;stop-opacity:0.61"/><stop offset="1" style="stop-color:#fff;stop-opacity:0"/></radialGradient>
        <radialGradient id="_Radial11" cx="0" cy="0" r="1" gradientUnits="userSpaceOnUse" gradientTransform="matrix(4.17792,0,0,4.17792,4.05,0)"><stop offset="0" style="stop-color:#fff;stop-opacity:0.61"/><stop offset="1" style="stop-color:#fff;stop-opacity:0"/></radialGradient>
        <radialGradient id="_Radial12" cx="0" cy="0" r="1" gradientUnits="userSpaceOnUse" gradientTransform="matrix(4.17792,0,0,4.17792,4.05,0)"><stop offset="0" style="stop-color:#fff;stop-opacity:0.61"/><stop offset="1" style="stop-color:#fff;stop-opacity:0"/></radialGradient>
        <radialGradient id="_Radial13" cx="0" cy="0" r="1" gradientUnits="userSpaceOnUse" gradientTransform="matrix(4.17792,0,0,4.17792,4.05,0)"><stop offset="0" style="stop-color:#717171;stop-opacity:0.61"/><stop offset="1" style="stop-color:#717171;stop-opacity:0"/></radialGradient>
        <radialGradient id="_Radial14" cx="0" cy="0" r="1" gradientUnits="userSpaceOnUse" gradientTransform="matrix(4.17792,0,0,4.17792,4.05,0)"><stop offset="0" style="stop-color:#717171;stop-opacity:0.61"/><stop offset="1" style="stop-color:#717171;stop-opacity:0"/></radialGradient>
        <radialGradient id="_Radial15" cx="0" cy="0" r="1" gradientUnits="userSpaceOnUse" gradientTransform="matrix(4.17792,0,0,4.17792,4.05,0)"><stop offset="0" style="stop-color:#717171;stop-opacity:0.61"/><stop offset="1" style="stop-color:#717171;stop-opacity:0"/></radialGradient>
        <radialGradient id="_Radial16" cx="0" cy="0" r="1" gradientUnits="userSpaceOnUse" gradientTransform="matrix(4.17792,0,0,4.17792,4.05,0)"><stop offset="0" style="stop-color:#fff;stop-opacity:1"/><stop offset="1" style="stop-color:#fff;stop-opacity:0"/></radialGradient>
        <radialGradient id="_Radial17" cx="0" cy="0" r="1" gradientUnits="userSpaceOnUse" gradientTransform="matrix(4.17792,0,0,4.17792,4.05,0)"><stop offset="0" style="stop-color:#a1a1a1;stop-opacity:1"/><stop offset="1" style="stop-color:#a1a1a1;stop-opacity:0"/></radialGradient>
        <radialGradient id="_Radial18" cx="0" cy="0" r="1" gradientUnits="userSpaceOnUse" gradientTransform="matrix(4.17792,0,0,4.17792,4.05,0)"><stop offset="0" style="stop-color:#fff;stop-opacity:1"/><stop offset="1" style="stop-color:#fff;stop-opacity:0"/></radialGradient>
        <radialGradient id="_Radial19" cx="0" cy="0" r="1" gradientUnits="userSpaceOnUse" gradientTransform="matrix(4.17792,0,0,4.17792,4.05,0)"><stop offset="0" style="stop-color:#fff;stop-opacity:1"/><stop offset="1" style="stop-color:#fff;stop-opacity:0"/></radialGradient>
        <radialGradient id="_Radial20" cx="0" cy="0" r="1" gradientUnits="userSpaceOnUse" gradientTransform="matrix(4.17792,0,0,4.17792,4.05,0)"><stop offset="0" style="stop-color:#fff;stop-opacity:1"/><stop offset="1" style="stop-color:#fff;stop-opacity:0"/></radialGradient>
        <radialGradient id="_Radial21" cx="0" cy="0" r="1" gradientUnits="userSpaceOnUse" gradientTransform="matrix(4.17792,0,0,4.17792,4.05,0)"><stop offset="0" style="stop-color:#fff;stop-opacity:1"/><stop offset="1" style="stop-color:#fff;stop-opacity:0"/></radialGradient>
        <radialGradient id="_Radial22" cx="0" cy="0" r="1" gradientUnits="userSpaceOnUse" gradientTransform="matrix(4.17792,0,0,4.17792,4.05,0)"><stop offset="0" style="stop-color:#a1a1a1;stop-opacity:1"/><stop offset="1" style="stop-color:#a1a1a1;stop-opacity:0"/></radialGradient>
        <radialGradient id="_Radial23" cx="0" cy="0" r="1" gradientUnits="userSpaceOnUse" gradientTransform="matrix(4.17792,0,0,4.17792,4.05,0)"><stop offset="0" style="stop-color:#a1a1a1;stop-opacity:1"/><stop offset="1" style="stop-color:#a1a1a1;stop-opacity:0"/></radialGradient>
        <radialGradient id="_Radial24" cx="0" cy="0" r="1" gradientUnits="userSpaceOnUse" gradientTransform="matrix(4.17792,0,0,4.17792,4.05,0)"><stop offset="0" style="stop-color:#a1a1a1;stop-opacity:1"/><stop offset="1" style="stop-color:#a1a1a1;stop-opacity:0"/></radialGradient>
        <radialGradient id="_Radial25" cx="0" cy="0" r="1" gradientUnits="userSpaceOnUse" gradientTransform="matrix(4.17792,0,0,4.17792,4.05,0)"><stop offset="0" style="stop-color:#a1a1a1;stop-opacity:1"/><stop offset="1" style="stop-color:#a1a1a1;stop-opacity:0"/></radialGradient>
        <radialGradient id="_Radial26" cx="0" cy="0" r="1" gradientUnits="userSpaceOnUse" gradientTransform="matrix(4.17792,0,0,4.17792,4.05,0)"><stop offset="0" style="stop-color:#a1a1a1;stop-opacity:1"/><stop offset="1" style="stop-color:#a1a1a1;stop-opacity:0"/></radialGradient>
        <radialGradient id="_Radial27" cx="0" cy="0" r="1" gradientUnits="userSpaceOnUse" gradientTransform="matrix(4.17792,0,0,4.17792,4.05,0)"><stop offset="0" style="stop-color:#a1a1a1;stop-opacity:0.61"/><stop offset="1" style="stop-color:#a1a1a1;stop-opacity:0"/></radialGradient>
        <radialGradient id="_Radial28" cx="0" cy="0" r="1" gradientUnits="userSpaceOnUse" gradientTransform="matrix(4.17792,0,0,4.17792,4.05,0)"><stop offset="0" style="stop-color:#a1a1a1;stop-opacity:1"/><stop offset="1" style="stop-color:#a1a1a1;stop-opacity:0"/></radialGradient>
        <radialGradient id="_Radial29" cx="0" cy="0" r="1" gradientUnits="userSpaceOnUse" gradientTransform="matrix(4.17792,0,0,4.17792,4.05,0)"><stop offset="0" style="stop-color:#a1a1a1;stop-opacity:1"/><stop offset="1" style="stop-color:#a1a1a1;stop-opacity:0"/></radialGradient>
        <radialGradient id="_Radial30" cx="0" cy="0" r="1" gradientUnits="userSpaceOnUse" gradientTransform="matrix(4.17792,0,0,4.17792,4.05,0)"><stop offset="0" style="stop-color:#a1a1a1;stop-opacity:1"/><stop offset="1" style="stop-color:#a1a1a1;stop-opacity:0"/></radialGradient>
        <radialGradient id="_Radial31" cx="0" cy="0" r="1" gradientUnits="userSpaceOnUse" gradientTransform="matrix(4.17792,0,0,4.17792,4.05,0)"><stop offset="0" style="stop-color:#a1a1a1;stop-opacity:1"/><stop offset="1" style="stop-color:#a1a1a1;stop-opacity:0"/></radialGradient>
        <radialGradient id="_Radial32" cx="0" cy="0" r="1" gradientUnits="userSpaceOnUse" gradientTransform="matrix(4.17792,0,0,4.17792,4.05,0)"><stop offset="0" style="stop-color:#a1a1a1;stop-opacity:1"/><stop offset="1" style="stop-color:#a1a1a1;stop-opacity:0"/></radialGradient>
        <radialGradient id="_Radial33" cx="0" cy="0" r="1" gradientUnits="userSpaceOnUse" gradientTransform="matrix(4.17792,0,0,4.17792,4.05,0)"><stop offset="0" style="stop-color:#a1a1a1;stop-opacity:1"/><stop offset="1" style="stop-color:#a1a1a1;stop-opacity:0"/></radialGradient>
        <radialGradient id="_Radial34" cx="0" cy="0" r="1" gradientUnits="userSpaceOnUse" gradientTransform="matrix(4.17792,0,0,4.17792,4.05,0)"><stop offset="0" style="stop-color:#fff;stop-opacity:1"/><stop offset="1" style="stop-color:#fff;stop-opacity:0"/></radialGradient>
        <radialGradient id="_Radial35" cx="0" cy="0" r="1" gradientUnits="userSpaceOnUse" gradientTransform="matrix(4.17792,0,0,4.17792,4.05,0)"><stop offset="0" style="stop-color:#fff;stop-opacity:1"/><stop offset="1" style="stop-color:#fff;stop-opacity:0"/></radialGradient>
        <radialGradient id="_Radial36" cx="0" cy="0" r="1" gradientUnits="userSpaceOnUse" gradientTransform="matrix(4.17792,0,0,4.17792,4.05,0)"><stop offset="0" style="stop-color:#fff;stop-opacity:1"/><stop offset="1" style="stop-color:#fff;stop-opacity:0"/></radialGradient>
        <radialGradient id="_Radial37" cx="0" cy="0" r="1" gradientUnits="userSpaceOnUse" gradientTransform="matrix(4.17792,0,0,4.17792,4.05,0)"><stop offset="0" style="stop-color:#a1a1a1;stop-opacity:1"/><stop offset="1" style="stop-color:#a1a1a1;stop-opacity:0"/></radialGradient>
        <radialGradient id="_Radial38" cx="0" cy="0" r="1" gradientUnits="userSpaceOnUse" gradientTransform="matrix(4.17792,0,0,4.17792,4.05,0)"><stop offset="0" style="stop-color:#a1a1a1;stop-opacity:1"/><stop offset="1" style="stop-color:#a1a1a1;stop-opacity:0"/></radialGradient>
        <radialGradient id="_Radial39" cx="0" cy="0" r="1" gradientUnits="userSpaceOnUse" gradientTransform="matrix(4.17792,0,0,4.17792,4.05,0)"><stop offset="0" style="stop-color:#fff;stop-opacity:1"/><stop offset="1" style="stop-color:#fff;stop-opacity:0"/></radialGradient>
        <radialGradient id="_Radial40" cx="0" cy="0" r="1" gradientUnits="userSpaceOnUse" gradientTransform="matrix(4.17792,0,0,4.17792,4.05,0)"><stop offset="0" style="stop-color:#a1a1a1;stop-opacity:1"/><stop offset="1" style="stop-color:#a1a1a1;stop-opacity:0"/></radialGradient>
        <radialGradient id="_Radial41" cx="0" cy="0" r="1" gradientUnits="userSpaceOnUse" gradientTransform="matrix(4.17792,0,0,4.17792,4.05,0)"><stop offset="0" style="stop-color:#a1a1a1;stop-opacity:1"/><stop offset="1" style="stop-color:#a1a1a1;stop-opacity:0"/></radialGradient>
        <radialGradient id="_Radial42" cx="0" cy="0" r="1" gradientUnits="userSpaceOnUse" gradientTransform="matrix(4.17792,0,0,4.17792,4.05,0)"><stop offset="0" style="stop-color:#a1a1a1;stop-opacity:1"/><stop offset="1" style="stop-color:#a1a1a1;stop-opacity:0"/></radialGradient>
        <radialGradient id="_Radial43" cx="0" cy="0" r="1" gradientUnits="userSpaceOnUse" gradientTransform="matrix(4.17792,0,0,4.17792,4.05,0)"><stop offset="0" style="stop-color:#fff;stop-opacity:1"/><stop offset="1" style="stop-color:#fff;stop-opacity:0"/></radialGradient>
        <radialGradient id="_Radial44" cx="0" cy="0" r="1" gradientUnits="userSpaceOnUse" gradientTransform="matrix(4.17792,0,0,4.17792,4.05,0)"><stop offset="0" style="stop-color:#fff;stop-opacity:1"/><stop offset="1" style="stop-color:#fff;stop-opacity:0"/></radialGradient>
        <radialGradient id="_Radial45" cx="0" cy="0" r="1" gradientUnits="userSpaceOnUse" gradientTransform="matrix(4.17792,0,0,4.17792,4.05,0)"><stop offset="0" style="stop-color:#fff;stop-opacity:1"/><stop offset="1" style="stop-color:#fff;stop-opacity:0"/></radialGradient>
        <radialGradient id="_Radial46" cx="0" cy="0" r="1" gradientUnits="userSpaceOnUse" gradientTransform="matrix(4.17792,0,0,4.17792,4.05,0)"><stop offset="0" style="stop-color:#a1a1a1;stop-opacity:0.61"/><stop offset="1" style="stop-color:#a1a1a1;stop-opacity:0"/></radialGradient>
        <radialGradient id="_Radial47" cx="0" cy="0" r="1" gradientUnits="userSpaceOnUse" gradientTransform="matrix(4.17792,0,0,4.17792,4.05,0)"><stop offset="0" style="stop-color:#a1a1a1;stop-opacity:0.61"/><stop offset="1" style="stop-color:#a1a1a1;stop-opacity:0"/></radialGradient>
        <radialGradient id="_Radial48" cx="0" cy="0" r="1" gradientUnits="userSpaceOnUse" gradientTransform="matrix(4.17792,0,0,4.17792,4.05,0)"><stop offset="0" style="stop-color:#fff;stop-opacity:1"/><stop offset="1" style="stop-color:#fff;stop-opacity:0"/></radialGradient>
        <radialGradient id="_Radial49" cx="0" cy="0" r="1" gradientUnits="userSpaceOnUse" gradientTransform="matrix(4.17792,0,0,4.17792,4.05,0)"><stop offset="0" style="stop-color:#a1a1a1;stop-opacity:1"/><stop offset="1" style="stop-color:#a1a1a1;stop-opacity:0"/></radialGradient>
        <radialGradient id="_Radial50" cx="0" cy="0" r="1" gradientUnits="userSpaceOnUse" gradientTransform="matrix(4.17792,0,0,4.17792,4.05,0)"><stop offset="0" style="stop-color:#a1a1a1;stop-opacity:1"/><stop offset="1" style="stop-color:#a1a1a1;stop-opacity:0"/></radialGradient>
        <radialGradient id="_Radial51" cx="0" cy="0" r="1" gradientUnits="userSpaceOnUse" gradientTransform="matrix(4.17792,0,0,4.17792,4.05,0)"><stop offset="0" style="stop-color:#a1a1a1;stop-opacity:1"/><stop offset="1" style="stop-color:#a1a1a1;stop-opacity:0"/></radialGradient>
        <radialGradient id="_Radial52" cx="0" cy="0" r="1" gradientUnits="userSpaceOnUse" gradientTransform="matrix(4.17792,0,0,4.17792,4.05,0)"><stop offset="0" style="stop-color:#a1a1a1;stop-opacity:1"/><stop offset="1" style="stop-color:#a1a1a1;stop-opacity:0"/></radialGradient>
        <radialGradient id="_Radial53" cx="0" cy="0" r="1" gradientUnits="userSpaceOnUse" gradientTransform="matrix(4.17792,0,0,4.17792,4.05,0)"><stop offset="0" style="stop-color:#a1a1a1;stop-opacity:1"/><stop offset="1" style="stop-color:#a1a1a1;stop-opacity:0"/></radialGradient>
        <radialGradient id="_Radial54" cx="0" cy="0" r="1" gradientUnits="userSpaceOnUse" gradientTransform="matrix(4.17792,0,0,4.17792,4.05,0)"><stop offset="0" style="stop-color:#a1a1a1;stop-opacity:1"/><stop offset="1" style="stop-color:#a1a1a1;stop-opacity:0"/></radialGradient>
        <radialGradient id="_Radial55" cx="0" cy="0" r="1" gradientUnits="userSpaceOnUse" gradientTransform="matrix(4.17792,0,0,4.17792,4.05,0)"><stop offset="0" style="stop-color:#a1a1a1;stop-opacity:1"/><stop offset="1" style="stop-color:#a1a1a1;stop-opacity:0"/></radialGradient>
        <radialGradient id="_Radial56" cx="0" cy="0" r="1" gradientUnits="userSpaceOnUse" gradientTransform="matrix(4.17792,0,0,4.17792,4.05,0)"><stop offset="0" style="stop-color:#a1a1a1;stop-opacity:1"/><stop offset="1" style="stop-color:#a1a1a1;stop-opacity:0"/></radialGradient>
        <radialGradient id="_Radial57" cx="0" cy="0" r="1" gradientUnits="userSpaceOnUse" gradientTransform="matrix(4.17792,0,0,4.17792,4.05,0)"><stop offset="0" style="stop-color:#fff;stop-opacity:1"/><stop offset="1" style="stop-color:#fff;stop-opacity:0"/></radialGradient>
        <radialGradient id="_Radial58" cx="0" cy="0" r="1" gradientUnits="userSpaceOnUse" gradientTransform="matrix(4.17792,0,0,4.17792,4.05,0)"><stop offset="0" style="stop-color:#fff;stop-opacity:1"/><stop offset="1" style="stop-color:#fff;stop-opacity:0"/></radialGradient>
        <radialGradient id="_Radial59" cx="0" cy="0" r="1" gradientUnits="userSpaceOnUse" gradientTransform="matrix(4.17792,0,0,4.17792,4.05,0)"><stop offset="0" style="stop-color:#fff;stop-opacity:1"/><stop offset="1" style="stop-color:#fff;stop-opacity:0"/></radialGradient>
        <radialGradient id="_Radial60" cx="0" cy="0" r="1" gradientUnits="userSpaceOnUse" gradientTransform="matrix(4.17792,0,0,4.17792,4.05,0)"><stop offset="0" style="stop-color:#fff;stop-opacity:1"/><stop offset="1" style="stop-color:#fff;stop-opacity:0"/></radialGradient>
        <radialGradient id="_Radial61" cx="0" cy="0" r="1" gradientUnits="userSpaceOnUse" gradientTransform="matrix(4.17792,0,0,4.17792,4.05,0)"><stop offset="0" style="stop-color:#fff;stop-opacity:1"/><stop offset="1" style="stop-color:#fff;stop-opacity:0"/></radialGradient>
        <radialGradient id="_Radial62" cx="0" cy="0" r="1" gradientUnits="userSpaceOnUse" gradientTransform="matrix(4.17792,0,0,4.17792,4.05,0)"><stop offset="0" style="stop-color:#fff;stop-opacity:1"/><stop offset="1" style="stop-color:#fff;stop-opacity:0"/></radialGradient>
        <radialGradient id="_Radial63" cx="0" cy="0" r="1" gradientUnits="userSpaceOnUse" gradientTransform="matrix(4.17792,0,0,4.17792,4.05,0)"><stop offset="0" style="stop-color:#fff;stop-opacity:1"/><stop offset="1" style="stop-color:#fff;stop-opacity:0"/></radialGradient>
        <radialGradient id="_Radial64" cx="0" cy="0" r="1" gradientUnits="userSpaceOnUse" gradientTransform="matrix(4.17792,0,0,4.17792,4.05,0)"><stop offset="0" style="stop-color:#fff;stop-opacity:0.61"/><stop offset="1" style="stop-color:#fff;stop-opacity:0"/></radialGradient>
        <radialGradient id="_Radial65" cx="0" cy="0" r="1" gradientUnits="userSpaceOnUse" gradientTransform="matrix(4.17792,0,0,4.17792,4.05,0)"><stop offset="0" style="stop-color:#fff;stop-opacity:0.61"/><stop offset="1" style="stop-color:#fff;stop-opacity:0"/></radialGradient>
        <radialGradient id="_Radial66" cx="0" cy="0" r="1" gradientUnits="userSpaceOnUse" gradientTransform="matrix(4.17792,0,0,4.17792,4.05,0)"><stop offset="0" style="stop-color:#fff;stop-opacity:1"/><stop offset="1" style="stop-color:#fff;stop-opacity:0"/></radialGradient>
        <radialGradient id="_Radial67" cx="0" cy="0" r="1" gradientUnits="userSpaceOnUse" gradientTransform="matrix(4.17792,0,0,4.17792,4.05,0)"><stop offset="0" style="stop-color:#fff;stop-opacity:1"/><stop offset="1" style="stop-color:#fff;stop-opacity:0"/></radialGradient>
        <radialGradient id="_Radial68" cx="0" cy="0" r="1" gradientUnits="userSpaceOnUse" gradientTransform="matrix(4.17792,0,0,4.17792,4.05,0)"><stop offset="0" style="stop-color:#fff;stop-opacity:0.61"/><stop offset="1" style="stop-color:#fff;stop-opacity:0"/></radialGradient>
        <radialGradient id="_Radial69" cx="0" cy="0" r="1" gradientUnits="userSpaceOnUse" gradientTransform="matrix(4.17792,0,0,4.17792,4.05,0)"><stop offset="0" style="stop-color:#fff;stop-opacity:0.61"/><stop offset="1" style="stop-color:#fff;stop-opacity:0"/></radialGradient>
        <radialGradient id="_Radial70" cx="0" cy="0" r="1" gradientUnits="userSpaceOnUse" gradientTransform="matrix(4.17792,0,0,4.17792,4.05,0)"><stop offset="0" style="stop-color:#fff;stop-opacity:0.61"/><stop offset="1" style="stop-color:#fff;stop-opacity:0"/></radialGradient>
        <radialGradient id="_Radial71" cx="0" cy="0" r="1" gradientUnits="userSpaceOnUse" gradientTransform="matrix(4.17792,0,0,4.17792,4.05,0)"><stop offset="0" style="stop-color:#fff;stop-opacity:1"/><stop offset="1" style="stop-color:#fff;stop-opacity:0"/></radialGradient>
        <radialGradient id="_Radial72" cx="0" cy="0" r="1" gradientUnits="userSpaceOnUse" gradientTransform="matrix(4.17792,0,0,4.17792,4.05,0)"><stop offset="0" style="stop-color:#fff;stop-opacity:1"/><stop offset="1" style="stop-color:#fff;stop-opacity:0"/></radialGradient>
        <radialGradient id="_Radial73" cx="0" cy="0" r="1" gradientUnits="userSpaceOnUse" gradientTransform="matrix(4.17792,0,0,4.17792,4.05,0)"><stop offset="0" style="stop-color:#fff;stop-opacity:1"/><stop offset="1" style="stop-color:#fff;stop-opacity:0"/></radialGradient>
        <radialGradient id="_Radial74" cx="0" cy="0" r="1" gradientUnits="userSpaceOnUse" gradientTransform="matrix(4.17792,0,0,4.17792,4.05,0)"><stop offset="0" style="stop-color:#fff;stop-opacity:1"/><stop offset="1" style="stop-color:#fff;stop-opacity:0"/></radialGradient>
        <radialGradient id="_Radial75" cx="0" cy="0" r="1" gradientUnits="userSpaceOnUse" gradientTransform="matrix(4.17792,0,0,4.17792,4.05,0)"><stop offset="0" style="stop-color:#fff;stop-opacity:1"/><stop offset="1" style="stop-color:#fff;stop-opacity:0"/></radialGradient>
        <radialGradient id="_Radial76" cx="0" cy="0" r="1" gradientUnits="userSpaceOnUse" gradientTransform="matrix(4.17792,0,0,4.17792,4.05,0)"><stop offset="0" style="stop-color:#fff;stop-opacity:1"/><stop offset="1" style="stop-color:#fff;stop-opacity:0"/></radialGradient>
        <radialGradient id="_Radial77" cx="0" cy="0" r="1" gradientUnits="userSpaceOnUse" gradientTransform="matrix(4.17792,0,0,4.17792,4.05,0)"><stop offset="0" style="stop-color:#fff;stop-opacity:0.61"/><stop offset="1" style="stop-color:#fff;stop-opacity:0"/></radialGradient>
        <radialGradient id="_Radial78" cx="0" cy="0" r="1" gradientUnits="userSpaceOnUse" gradientTransform="matrix(4.17792,0,0,4.17792,4.05,0)"><stop offset="0" style="stop-color:#fff;stop-opacity:0.61"/><stop offset="1" style="stop-color:#fff;stop-opacity:0"/></radialGradient>
        <radialGradient id="_Radial79" cx="0" cy="0" r="1" gradientUnits="userSpaceOnUse" gradientTransform="matrix(4.17792,0,0,4.17792,4.05,0)"><stop offset="0" style="stop-color:#fff;stop-opacity:0.61"/><stop offset="1" style="stop-color:#fff;stop-opacity:0"/></radialGradient>
    </defs>
</svg>
