<?xml version="1.0" encoding="UTF-8" standalone="no"?>
<svg xmlns:xlink="http://www.w3.org/1999/xlink" height="345.0px" width="388.5px" xmlns="http://www.w3.org/2000/svg">
  <g transform="matrix(10.0, 0.0, 0.0, 10.0, -25.0, -47.5)">
    <path d="M16.75 34.35 Q12.95 34.35 10.25 31.0 7.6 27.65 7.6 22.9 7.6 18.15 10.25 14.8 12.95 11.45 16.75 11.45 20.55 11.45 23.2 14.8 25.9 18.15 25.9 22.9 25.9 27.65 23.2 31.0 20.55 34.35 16.75 34.35" fill="#000000" fill-rule="evenodd" stroke="none"/>
    <path d="M16.75 34.35 Q12.95 34.35 10.25 31.0 7.6 27.65 7.6 22.9 7.6 18.15 10.25 14.8 12.95 11.45 16.75 11.45 20.55 11.45 23.2 14.8 25.9 18.15 25.9 22.9 25.9 27.65 23.2 31.0 20.55 34.35 16.75 34.35 Z" fill="none" stroke="#000000" stroke-linecap="round" stroke-linejoin="round" stroke-opacity="0.4509804" stroke-width="0.05"/>
    <path d="M41.1 34.3 L40.5 34.25 39.65 32.8 37.6 30.2 37.5 30.4 Q37.65 31.15 36.1 30.9 L34.9 30.7 28.15 27.9 26.4 27.15 15.25 22.95 12.25 21.9 12.45 21.6 12.6 21.55 13.1 19.6 13.1 17.85 12.6 15.55 12.1 14.2 11.8 13.6 11.6 13.25 Q10.85 11.9 10.05 11.35 L12.45 11.9 14.9 12.55 24.9 15.95 Q26.4 16.45 27.3 16.9 29.3 18.25 31.25 20.35 L34.25 23.85 Q36.95 27.4 39.8 32.05 L41.1 34.3 M5.25 13.3 L5.25 14.2 5.1 13.7 5.25 13.3 M5.4 15.65 L5.8 17.2 Q6.0 18.15 6.55 19.2 L7.2 20.2 6.6 20.0 5.25 19.65 4.7 16.5 4.85 15.35 5.4 15.65" fill="#54503f" fill-rule="evenodd" stroke="none"/>
    <path d="M11.6 13.25 L11.8 13.6 12.1 14.2 12.6 15.55 Q11.55 15.0 10.9 15.05 L10.2 13.1 10.0 12.9 Q11.6 14.4 11.6 13.25 M21.2 12.85 L21.3 12.35 21.45 12.7 21.6 12.95 21.2 12.85 M19.7 11.95 L20.35 12.55 19.95 12.45 19.85 12.15 19.7 11.95" fill="#fadfa2" fill-rule="evenodd" stroke="none"/>
    <path d="M31.25 20.35 Q29.3 18.25 27.3 16.9 26.4 16.45 24.9 15.95 L14.9 12.55 12.45 11.9 10.05 11.35 9.7 10.05 14.7 11.0 15.1 11.1 16.2 11.35 17.45 11.7 18.9 12.1 19.95 12.45 20.35 12.55 Q20.9 12.9 21.2 12.85 L21.6 12.95 24.4 13.9 27.65 15.15 Q30.5 16.35 32.8 18.35 34.95 20.05 36.7 22.2 34.7 20.85 33.25 20.35 30.7 19.0 31.25 20.35" fill="#fff4c2" fill-rule="evenodd" stroke="none"/>
    <path d="M10.05 11.35 Q10.85 11.9 11.6 13.25 11.6 14.4 10.0 12.9 L9.85 12.55 9.15 11.6 8.65 11.0 8.2 10.65 9.1 11.3 10.05 11.5 10.05 11.35 M21.2 12.85 Q20.9 12.9 20.35 12.55 L19.7 11.95 19.5 11.6 18.9 10.65 18.3 10.05 17.4 9.45 Q18.5 9.85 18.8 10.35 L19.7 10.55 19.7 10.45 Q20.55 11.0 21.3 12.35 L21.2 12.85 M14.1 8.85 L14.65 9.05 15.85 9.75 Q15.65 9.85 15.6 10.15 L14.1 8.85 M4.35 9.8 L5.0 10.0 6.0 10.6 6.15 10.65 5.95 11.1 4.35 9.8" fill="#c4af7f" fill-rule="evenodd" stroke="none"/>
    <path d="M41.1 34.3 L39.8 32.05 Q36.95 27.4 34.25 23.85 L31.25 20.35 Q30.7 19.0 33.25 20.35 34.7 20.85 36.7 22.2 L37.5 23.25 Q39.2 25.45 40.3 29.45 40.7 30.9 41.1 34.3 M5.0 10.0 L5.05 9.65 6.95 9.8 7.7 9.85 7.7 10.4 Q7.0 10.15 6.55 10.4 6.35 10.45 6.2 10.6 L6.0 10.6 5.0 10.0" fill="#918b6e" fill-rule="evenodd" stroke="none"/>
    <path d="M19.7 10.45 L19.7 10.55 18.8 10.35 18.0 5.15 18.35 5.35 19.2 8.4 19.7 10.45 M9.7 10.05 L10.05 11.35 10.05 11.5 9.1 11.3 8.3 6.1 8.7 6.3 9.3 8.4 9.7 10.05" fill="#524935" fill-rule="evenodd" stroke="none"/>
    <path d="M18.8 10.35 Q18.5 9.85 17.4 9.45 L17.35 8.4 17.25 5.0 18.0 5.15 18.8 10.35 M18.9 10.65 L19.5 11.6 19.7 11.95 19.85 12.15 19.95 12.45 18.9 12.1 18.5 11.5 18.3 11.35 18.9 10.65 M16.2 11.35 L15.1 11.1 14.7 11.0 13.8 9.6 14.1 8.85 15.6 10.15 Q15.65 9.85 15.85 9.75 16.0 9.55 16.2 9.45 L16.3 10.05 16.4 10.95 16.2 11.35 M9.1 11.3 L8.2 10.65 7.7 10.45 7.7 10.4 7.7 9.85 7.6 8.4 7.6 6.0 8.3 6.1 9.1 11.3 M9.15 11.6 L9.85 12.55 10.0 12.9 10.2 13.1 10.9 15.05 11.35 17.15 11.35 19.05 11.15 19.95 10.9 20.55 10.8 20.8 10.8 20.85 10.7 20.95 10.45 21.25 9.9 21.7 9.7 21.75 9.15 21.75 8.9 21.6 8.85 21.55 8.1 21.15 7.45 20.6 7.4 20.55 7.4 20.25 7.3 18.85 7.7 19.4 8.5 20.1 8.7 20.25 9.3 20.35 9.55 20.35 9.55 20.25 9.7 20.2 10.2 19.65 10.5 18.7 10.6 16.8 10.35 15.55 10.1 14.85 10.1 14.8 9.55 13.7 8.75 12.45 8.65 12.3 9.15 11.6 M15.1 11.1 L15.45 10.25 15.6 10.15 15.45 10.25 15.1 11.1 M4.7 11.4 L4.1 10.55 4.35 9.8 5.95 11.1 6.15 10.65 6.2 10.6 Q6.35 10.45 6.55 10.4 L6.6 10.65 6.65 11.0 6.75 11.9 6.4 12.45 Q5.8 13.35 6.0 15.15 L6.15 16.0 5.8 17.1 5.8 17.2 5.4 15.65 5.25 14.85 5.25 14.2 5.25 14.85 5.4 15.65 4.85 15.35 4.6 15.2 2.95 14.2 2.75 12.85 2.8 12.85 4.5 12.95 5.25 13.05 5.4 12.45 5.8 11.2 5.95 11.1 5.8 11.2 5.4 12.45 4.7 11.4 M5.25 13.3 L5.25 13.05 5.25 13.3 5.05 13.35 5.1 13.7 5.25 14.2 5.25 13.3 M2.8 12.85 L5.05 13.15 5.05 13.35 5.05 13.15 2.8 12.85" fill="#71654a" fill-rule="evenodd" stroke="none"/>
    <path d="M17.4 9.45 L18.3 10.05 18.9 10.65 18.3 11.35 18.15 11.15 Q17.85 10.95 17.55 10.9 L17.4 10.9 16.4 10.95 16.3 10.05 16.2 9.45 Q16.7 9.2 17.35 9.45 L17.4 9.45 M8.2 10.65 L8.65 11.0 9.15 11.6 8.65 12.3 8.5 12.1 7.9 11.8 7.7 11.75 6.75 11.9 6.65 11.0 6.6 10.65 6.55 10.4 Q7.0 10.15 7.7 10.4 L7.7 10.45 8.2 10.65 M5.8 17.2 L5.8 17.1 6.15 16.0 Q6.4 17.2 7.0 18.35 L7.3 18.85 7.4 20.25 7.4 20.55 7.2 20.2 6.55 19.2 Q6.0 18.15 5.8 17.2 M12.55 25.5 Q12.8 25.6 12.9 25.8 L13.75 27.75 14.05 28.7 13.7 28.75 13.55 28.55 13.0 27.1 12.75 26.35 12.35 26.25 12.05 26.25 11.8 26.2 11.75 26.2 11.75 26.35 11.8 26.45 11.85 26.45 12.15 27.5 11.85 27.4 11.8 27.35 11.4 26.15 10.8 26.0 10.9 26.45 11.25 27.3 11.45 27.9 11.55 28.3 11.6 28.5 11.25 28.15 11.0 27.75 10.75 27.2 10.6 26.75 Q10.0 25.05 10.45 25.1 L12.05 25.45 12.55 25.5" fill="#594f39" fill-rule="evenodd" stroke="none"/>
    <path d="M18.9 12.1 L17.45 11.7 16.2 11.35 16.4 10.95 17.4 10.9 17.55 10.9 Q17.85 10.95 18.15 11.15 L18.3 11.35 18.5 11.5 18.9 12.1 M18.15 11.15 Q17.75 11.2 17.45 11.7 17.75 11.2 18.15 11.15" fill="#3b3426" fill-rule="evenodd" stroke="none"/>
    <path d="M34.9 30.7 L36.1 30.9 Q37.65 31.15 37.5 30.4 L37.6 30.2 39.65 32.8 Q38.0 32.0 36.25 31.35 L34.9 30.7 M6.2 10.6 L6.15 10.65 6.0 10.6 6.2 10.6 M5.4 12.45 L5.25 13.05 4.5 12.95 4.7 11.4 5.4 12.45 M5.25 13.3 L5.1 13.7 5.05 13.35 5.25 13.3 M4.6 15.2 L4.85 15.35 4.7 16.5 4.6 15.2 M35.15 36.05 L34.15 37.05 32.1 38.55 25.55 38.35 Q22.7 37.65 18.15 35.6 14.9 34.15 10.85 32.05 L9.4 29.65 8.1 26.85 8.35 27.0 9.55 27.5 9.6 27.5 11.25 28.15 11.6 28.5 11.95 29.45 12.25 30.4 14.5 31.2 14.2 30.05 13.9 29.25 19.2 31.25 23.7 32.85 33.05 35.6 35.15 36.05" fill="#353328" fill-rule="evenodd" stroke="none"/>
    <path d="M12.6 15.55 L13.1 17.85 13.1 19.6 12.6 21.55 12.45 21.6 12.25 21.9 11.85 22.3 11.6 22.4 10.65 22.3 10.0 22.15 9.15 21.75 9.7 21.75 9.9 21.7 10.45 21.25 10.7 20.95 10.8 20.85 10.8 20.8 10.9 20.55 11.15 19.95 11.35 19.05 11.35 17.15 10.9 15.05 Q11.55 15.0 12.6 15.55 M6.75 11.9 L7.7 11.75 7.9 11.8 8.5 12.1 7.5 12.85 Q7.0 13.8 7.2 15.6 L7.35 16.7 8.05 18.6 8.1 18.75 8.75 19.7 8.9 19.85 8.95 20.05 9.3 20.35 8.7 20.25 8.5 20.1 7.7 19.4 7.3 18.85 7.0 18.35 Q6.4 17.2 6.15 16.0 L6.0 15.15 Q5.8 13.35 6.4 12.45 L6.75 11.9" fill="#2e281d" fill-rule="evenodd" stroke="none"/>
    <path d="M8.5 12.1 L8.65 12.3 8.75 12.45 9.55 13.7 10.1 14.8 10.1 14.85 10.35 15.55 10.6 16.8 10.5 18.7 10.2 19.65 9.7 20.2 9.55 20.25 9.55 20.35 9.3 20.35 8.95 20.05 8.9 19.85 8.75 19.7 8.1 18.75 8.05 18.6 7.35 16.7 7.2 15.6 Q7.0 13.8 7.5 12.85 L8.5 12.1 M14.05 28.7 L19.5 30.25 21.85 31.15 35.15 36.05 33.05 35.6 23.7 32.85 19.2 31.25 13.9 29.25 13.7 28.75 14.05 28.7 M8.35 27.0 L11.0 27.75 11.25 28.15 9.6 27.5 9.55 27.5 8.35 27.0" fill="#050403" fill-rule="evenodd" stroke="none"/>
    <path d="M10.45 25.1 L10.15 24.05 9.6 22.45 9.5 22.2 10.0 22.15 10.65 22.3 11.6 22.4 12.55 25.5 12.05 25.45 10.45 25.1 M11.8 26.45 L11.75 26.35 11.75 26.2 11.8 26.2 12.05 26.25 12.35 26.25 12.75 26.35 13.0 27.1 13.55 28.55 13.7 28.75 13.9 29.25 14.2 30.05 14.5 31.2 12.25 30.4 11.95 29.45 11.6 28.5 11.55 28.3 11.45 27.9 11.25 27.3 10.9 26.45 10.8 26.0 11.4 26.15 11.8 27.35 11.85 27.4 12.15 27.5 11.85 26.45 11.8 26.45" fill="#1c1a14" fill-rule="evenodd" stroke="none"/>
    <path d="M39.65 32.8 L40.5 34.25 41.1 34.3 Q40.7 30.9 40.3 29.45 39.2 25.45 37.5 23.25 L36.7 22.2 Q34.95 20.05 32.8 18.35 30.5 16.35 27.65 15.15 L24.4 13.9 21.6 12.95 M12.25 21.9 L15.25 22.95 26.4 27.15 28.15 27.9 34.9 30.7 36.25 31.35 Q38.0 32.0 39.65 32.8 M21.2 12.85 L21.3 12.35 Q20.55 11.0 19.7 10.45 L19.2 8.4 18.35 5.35 18.0 5.15 17.25 5.0 17.35 8.4 17.4 9.45 17.35 9.45 Q16.7 9.2 16.2 9.45 16.0 9.55 15.85 9.75 L14.65 9.05 14.1 8.85 13.8 9.6 14.7 11.0 9.7 10.05 9.3 8.4 8.7 6.3 8.3 6.1 7.6 6.0 7.6 8.4 7.7 9.85 6.95 9.8 5.05 9.65 5.0 10.0 4.35 9.8 4.1 10.55 4.7 11.4 4.5 12.95 2.8 12.85 2.75 12.85 2.95 14.2 4.6 15.2 4.7 16.5 5.25 19.65 6.6 20.0 7.2 20.2 M9.15 21.75 L8.9 21.6 8.85 21.55 8.1 21.15 7.45 20.6 7.4 20.55 M10.45 25.1 L10.15 24.05 9.6 22.45 9.5 22.2 10.0 22.15 9.15 21.75 M11.6 22.4 L11.85 22.3 12.25 21.9 M11.6 22.4 L12.55 25.5 Q12.8 25.6 12.9 25.8 L13.75 27.75 14.05 28.7 19.5 30.25 21.85 31.15 35.15 36.05 34.15 37.05 32.1 38.55 25.55 38.35 Q22.7 37.65 18.15 35.6 14.9 34.15 10.85 32.05 L9.4 29.65 8.1 26.85 8.35 27.0 11.0 27.75 10.75 27.2 10.6 26.75 Q10.0 25.05 10.45 25.1" fill="none" stroke="#000000" stroke-linecap="round" stroke-linejoin="round" stroke-opacity="0.3019608" stroke-width="0.5"/>
    <path d="M10.05 11.35 Q10.85 11.9 11.6 13.25 L11.8 13.6 12.1 14.2 12.6 15.55 13.1 17.85 13.1 19.6 12.6 21.55 12.45 21.6 12.25 21.9 M37.6 30.2 L39.65 32.8 M20.35 12.55 Q20.9 12.9 21.2 12.85 L21.6 12.95 21.45 12.7 21.3 12.35 M19.7 10.45 L19.7 10.55 18.8 10.35 Q18.5 9.85 17.4 9.45 M20.35 12.55 L19.95 12.45 18.9 12.1 17.45 11.7 16.2 11.35 15.1 11.1 14.7 11.0 M9.7 10.05 L10.05 11.35 10.05 11.5 9.1 11.3 8.2 10.65 7.7 10.45 7.7 10.4 7.7 9.85 M15.85 9.75 Q15.65 9.85 15.6 10.15 L15.45 10.25 15.1 11.1 M18.15 11.15 L18.3 11.35 18.5 11.5 18.9 12.1 M17.45 11.7 Q17.75 11.2 18.15 11.15 M8.5 12.1 L8.65 12.3 8.75 12.45 9.55 13.7 10.1 14.8 M6.15 10.65 L6.2 10.6 Q6.35 10.45 6.55 10.4 7.0 10.15 7.7 10.4 M6.0 10.6 L6.15 10.65 5.95 11.1 5.8 11.2 5.4 12.45 5.25 13.05 5.25 13.3 5.25 14.2 5.25 14.85 5.4 15.65 5.8 17.2 Q6.0 18.15 6.55 19.2 L7.2 20.2 7.4 20.55 M6.0 10.6 L5.0 10.0 M5.1 13.7 L5.25 14.2 M5.1 13.7 L5.05 13.35 5.05 13.15 2.8 12.85 M4.6 15.2 L4.85 15.35 5.4 15.65 M9.3 20.35 L8.95 20.05 M8.9 19.85 L8.75 19.7 8.1 18.75 8.05 18.6 7.35 16.7 7.2 15.6 Q7.0 13.8 7.5 12.85 L8.5 12.1 M9.3 20.35 L9.55 20.35 9.55 20.25 9.7 20.2 10.2 19.65 10.5 18.7 10.6 16.8 10.35 15.55 10.1 14.85 M5.25 13.05 L4.5 12.95 M4.7 11.4 L5.4 12.45 M5.05 13.35 L5.25 13.3 M10.0 22.15 L10.65 22.3 11.6 22.4 M10.45 25.1 L12.05 25.45 12.55 25.5 M11.8 26.45 L11.75 26.35 11.75 26.2 11.8 26.2 12.05 26.25 12.35 26.25 12.75 26.35 13.0 27.1 13.55 28.55 13.7 28.75 14.05 28.7 M11.6 28.5 L11.55 28.3 11.45 27.9 11.25 27.3 10.9 26.45 10.8 26.0 11.4 26.15 11.8 27.35 11.85 27.4 12.15 27.5 11.85 26.45 M11.25 28.15 L11.6 28.5 11.95 29.45 12.25 30.4 14.5 31.2 14.2 30.05 13.9 29.25 13.7 28.75 M11.0 27.75 L11.25 28.15 9.6 27.5 9.55 27.5 8.35 27.0 M13.9 29.25 L19.2 31.25 23.7 32.85 33.05 35.6 35.15 36.05" fill="none" stroke="#000000" stroke-linecap="round" stroke-linejoin="round" stroke-opacity="0.4509804" stroke-width="0.05"/>
  </g>
</svg>
