<?xml version="1.0" encoding="UTF-8"?>
<svg version="1.1" viewBox="0 0 289.32 355.97" xmlns="http://www.w3.org/2000/svg" xmlns:cc="http://creativecommons.org/ns#" xmlns:dc="http://purl.org/dc/elements/1.1/" xmlns:rdf="http://www.w3.org/1999/02/22-rdf-syntax-ns#" xmlns:xlink="http://www.w3.org/1999/xlink">
<metadata>
<rdf:RDF>
<cc:Work rdf:about="">
<dc:format>image/svg+xml</dc:format>
<dc:type rdf:resource="http://purl.org/dc/dcmitype/StillImage"/>
</cc:Work>
</rdf:RDF>
</metadata>
<g transform="translate(-80.04 -7.5)">
<use transform="translate(80.05,7.5)" width="289.29999" height="355.95001" xlink:href="#g"/>
</g>
<defs>
<g id="g" transform="translate(.5 .5)">
<use transform="translate(-.25 2.4)" width="289.04999" height="352.79999" xlink:href="#o"/>
<use transform="matrix(1.0263 -.275 .3343 1.2477 223.11 272.71)" width="31.5" height="31.5" xlink:href="#a"/>
<use transform="matrix(.8725 -.9943 .938 .9671 163.85 313.81)" width="31.5" height="31.5" xlink:href="#a"/>
<use transform="matrix(1.3006 0 0 1.3006 67.114 237.46)" width="41.849998" height="41.400002" xlink:href="#f"/>
<use transform="matrix(1.3243 .1217 0 1.3243 35.753 290.97)" width="38.599998" height="38.549999" xlink:href="#e"/>
<use transform="matrix(1.2508 0 0 1.2508 31.937 221.22)" width="32.25" height="36.799999" xlink:href="#d"/>
<use transform="translate(139.65,229.8)" width="55.349998" height="54.400002" xlink:href="#c"/>
<use transform="translate(-.5 -.5)" width="288" height="355.95001" xlink:href="#i"/>
<use transform="matrix(.866 -.5 .5 .866 60.135 200.26)" width="29.15" height="31.1" xlink:href="#b"/>
<use transform="matrix(.9659 -.2588 .2588 .9659 171.95 213.58)" width="29.15" height="31.1" xlink:href="#b"/>
</g>
<g id="o" transform="translate(.25 -2.4)">
<path d="m261.2 163.2q-9.15 21.5-21.7 44.75l-14.05-4.95q10.95-23.5 19.3-44.65-2 10.75 16.45 4.85m-112.2-33.1q-0.05 30.45-5 58.1l-14.55 0.8q4.7-26 5.05-53.85 5.4 7.6 14.5-5.05" fill="#80805a" fill-rule="evenodd"/>
<path d="m271.35 53.95q0.3-6.7 0-12.85-5.9-10.9-13.45-8.6l10.5-11.5q12.45-2.5 19 13.5 1.3 16.2 0.75 32.1-2.7 74.4-46.65 142.05l-2-0.7q12.55-23.25 21.7-44.75 24.8-58.65 23.65-104.6-5.05-8.35-13.5-4.65m-149.2-21.65-2.15-8.65q-7.3-10.75-16.55-5.65l12-11q10.3-11.3 22.5 8.5 2.55 11.45 4.7 22.55 16.25 85.55 5.15 149.9l-3.8 0.25q4.95-27.65 5-58.1 0-45.75-11.1-97.75-7.4-6.6-15.75-0.05" fill="#68684a" fill-rule="evenodd"/>
<path d="m271.35 53.95q8.45-3.7 13.5 4.65 1.15 45.95-23.65 104.6-18.45 5.9-16.45-4.85 24.75-62.7 26.6-104.4m-149.2-21.65q8.35-6.55 15.75 0.05 11.1 52 11.1 97.75-9.1 12.65-14.5 5.05 0.5-48.65-12.35-102.85" fill="#989870" fill-rule="evenodd"/>
<path d="m239.5 207.95 2 0.7q43.95-67.65 46.65-142.05 0.55-15.9-0.75-32.1-6.55-16-19-13.5l-10.5 11.5q7.55-2.3 13.45 8.6 0.3 6.15 0 12.85m-31.85 154-14.05-4.95q10.95-23.5 19.3-44.65 24.75-62.7 26.6-104.4m-127.35 134.25 3.8-0.25q11.1-64.35-5.15-149.9-2.15-11.1-4.7-22.55-12.2-19.8-22.5-8.5l-12 11q9.25-5.1 16.55 5.65l2.15 8.65m21.85 155.9-14.55 0.8q4.7-26 5.05-53.85 0.5-48.65-12.35-102.85m119.35 176.35-0.6 0.85m-93.1-21.55-0.35 2.05" fill="none" stroke="#000" stroke-linecap="round" stroke-linejoin="round" stroke-opacity=".50196" stroke-width=".5"/>
<path d="m257.9 32.5 10.5-11.5q12.45-2.5 19 13.5 1.3 16.2 0.75 32.1-2.7 74.4-46.65 142.05l-16.05-5.65q10.95-23.5 19.3-44.65 24.75-62.7 26.6-104.4 0.3-6.7 0-12.85-5.9-10.9-13.45-8.6m-119.95-17q-12.2-19.8-22.5-8.5l-12 11q9.25-5.1 16.55 5.65l2.15 8.65q12.85 54.2 12.35 102.85-0.35 27.85-5.05 53.85l18.35-1.05q11.1-64.35-5.15-149.9-2.15-11.1-4.7-22.55" fill="none" stroke="#000" stroke-linecap="round" stroke-linejoin="round" stroke-opacity=".50196"/>
<path d="m124 305.35h-1.55l0.15-0.45 1.4 0.45" fill="#cc9" fill-rule="evenodd"/>
<path d="m229.15 221.8q-42.6-1-77-7.65-5.8-4.55-19.7-6.9-18.85-4.3-32.85-8.15 33.25-2.5 73.85 3.65 35.5 5.3 55.7 19.05" fill="#c2c289" fill-rule="evenodd"/>
<path d="m167.75 354.6-2.3-0.1-17.95-3.55q3.95-8.6 15.45-14.45-11.35-0.9-8.15-3.45l9.1 1.5q17.55 2.5 35.85 2.15 4.95 3.45-6.8 2.8l-16.25-1.5q2 10.45-8.95 16.6m-164.5-38.35q-5.25-8.15-2.05-13.25l4.6-2.75 5.15-8.5 1-6.25 6-4.5-3 6q-6.9 15.85 22.95 29.1 5.6 2.5 12.55 4.9l2.8 0.65q2.55 7.25-30.3-10.65-7.8 7.55-19.7 5.25m-0.05-12.75 2.6-3.25-2.6 3.25" fill="#fc0" fill-rule="evenodd"/>
<path d="m207 354.4q-18.55 1-39.25 0.2 10.95-6.15 8.95-16.6l16.25 1.5q11.75 0.65 6.8-2.8l22.3-1.5 6.5-0.85 11.7-1.85q0.9 5-17.65 6.15 0.7 11.15-15.6 15.75m-59.5-3.45q-18.25-4.4-18.55-8.7l2.15-3.55-0.9-5.95-2.5-4q0.6-3.7 3.15-4.4l0.6 2.9q11.5 3.55 23.35 5.8-3.2 2.55 8.15 3.45-11.5 5.85-15.45 14.45m-25.95-34.65q4.05 1.2 4.4 5.2l-2.55 2.15v0.05q-21.1 7.35-24.3 22.15l-9.9 0.4q-55.45-1.25-83-26l-2.95-4q11.9 2.3 19.7-5.25 32.85 17.9 30.3 10.65 27.3 6.15 58.2 3.6 8.2-0.95 9.75-5.25l0.35-3.7" fill="#e6b800" fill-rule="evenodd"/>
<path d="m257.95 212.65q0.85 5.75-4.5 8.85-22.25 6.45-45.85 5.25l-14.9-1.5q-38-2.75-69.5-12.75l-0.5 3 4.1 2.05q13.85 14.75 9.65 52.45-2.4 41.25-28.1 28.55-2.75-2.85-1.15-6.3 1.15-30.55 7.7-58.15 1.8-7.55 4-14.9l1.05-3.45q-0.15-9.7 6.8-7.65 12.1 3.45 25.4 6.05-13.3-2.6-25.4-6.05-6.95-2.05-6.8 7.65l-1.05 3.45q-25.8 13.9-58.95-4.7 5.8 4.55 15.75 8.6 12.7 5.15 32.25 9.5h-8l-29-9.55-2-0.65-0.65-0.25-2.6-1.15q-9.2-3.9-9.45-7.2l0.2-1.3 3.65-2.75q1.7-5.9 1.8-13.45l5.3 4.95q13.5 7.3 24.75 5.75-17.65-4.5-31.95-20.25l-0.05-1.25q2.85-4.95 16.75-6.5 68.9-2.25 146.75 14 30.1 7.9 34.5 19.65m-28.8 9.15 10.4 0.2q8.1-1.4 11.7-6.2l1.45-2.55q-0.1-2.55-4-6-24.6-11.7-44.75-15-32.9-6.3-67-8.5-30.3-2.5-58.5 0-4.8 0.7-4.6 2.65 0.35 2.95 12.1 8.7l13.65 4q14 3.85 32.85 8.15 13.9 2.35 19.7 6.9 34.4 6.65 77 7.65m-211.2 59.2q14.8-29.85 37.45-62.75 76.3 31.45 29.8 87-16.85 15.2-47.3 10.85-29.85-13.25-22.95-29.1l3-6m42-66.5-1.25-1 1.4-3.75-1.4 3.75 1.25 1m185.6 34.85q6.4 3.45-22.75 4.6t-49.45-3.75-18.45-6.35q57.3 12 90.65 5.5m-32.2-18.9q21.6 14.6 7.1 17.55-32.1 1.8-55.5-6.5-10.45-7.55-1.8-13.9l50.2 2.85m-49.45 104.1q-19.45-18-17.45-47.05 1.1-33.7 29-32 57.1 24.3 53.1 78.85l-6.5 0.85-22.3 1.5q-18.3 0.35-35.85-2.15m-77.95-139.45-12.25-3.6 12.25 3.6" fill="#fff" fill-rule="evenodd"/>
<path d="m257.95 212.65q0.65 1.75 0.75 3.6-0.75 4.7-3.3 6.7 1.85 9.25 3.25 18.6l3.3 2.45-2.05 7.1q3.95 33.35 1.65 67.65l-0.35 7-4.75 3.25-15.9 3.45-0.3 0.05-11.7 1.85q4-54.55-53.1-78.85-27.9-1.7-29 32-2 29.05 17.45 47.05l-9.1-1.5q-11.85-2.25-23.35-5.8l-0.6-2.9-1.9-9.1q-4.55-2.5-1.5-8.8l-3.45-1.1-1.4-0.45-0.15 0.45-0.9 10.95-0.35 3.7q-1.55 4.3-9.75 5.25-30.9 2.55-58.2-3.6l-2.8-0.65q-6.95-2.4-12.55-4.9 30.45 4.35 47.3-10.85 46.5-55.55-29.8-87l0.85-4.45q0.25 3.3 9.45 7.2l2.6 1.15 0.65 0.25 2 0.65 29 9.55h8q-19.55-4.35-32.25-9.5-9.95-4.05-15.75-8.6 33.15 18.6 58.95 4.7-2.2 7.35-4 14.9-6.55 27.6-7.7 58.15-1.6 3.45 1.15 6.3 25.7 12.7 28.1-28.55 4.2-37.7-9.65-52.45l-4.1-2.05 0.5-3q31.5 10 69.5 12.75l14.9 1.5q23.6 1.2 45.85-5.25 5.35-3.1 4.5-8.85m-116.25 20.1q-3.15-8.85-14.9-15.2 11.75 6.35 14.9 15.2m111-19.5-1.45 2.55q-3.6 4.8-11.7 6.2l-10.4-0.2q-20.2-13.75-55.7-19.05-40.6-6.15-73.85-3.65l-13.65-4q-11.75-5.75-12.1-8.7-0.2-1.95 4.6-2.65 28.2-2.5 58.5 0 34.1 2.2 67 8.5 20.15 3.3 44.75 15 3.9 3.45 4 6m-190.8-16.95-0.15-4.65q-1.55-2.5-1.75-4.9 14.3 15.75 31.95 20.25-11.25 1.55-24.75-5.75l-5.3-4.95m196.75 45.25 0.55 4q-6.25 2.35-13.65 3.8 7.4-1.45 13.65-3.8l-0.55-4m-189.2-42.05q-5.35-4.05-7.7-7.85 2.35 3.8 7.7 7.85m115.75 27.25-17.7-1.7q-23-2.9-38.55-8.55 15.55 5.65 38.55 8.55l17.7 1.7m-30.3 17.1q-1.85 1.45 18.45 6.35t49.45 3.75 22.75-4.6q-33.35 6.5-90.65-5.5l-10.9-2.4q-6.75 31.2-7.55 62.8 0.8-31.6 7.55-62.8l10.9 2.4m58.45-13.4-50.2-2.85q-8.65 6.35 1.8 13.9 23.4 8.3 55.5 6.5 14.5-2.95-7.1-17.55m-98.45 3.65-6.95-1.5 6.95 1.5m16.05 73.4-3.5-1.05 3.5 1.05m20.75-81q-5.85 6.2-7.7 14.95 1.85-8.75 7.7-14.95m-43.35 72.05q2.55 2.6 8.85 4.7l5.4 1.65-5.4-1.65q-6.3-2.1-8.85-4.7m4.3 5.7 9.8 1.1-9.8-1.1q-8.8 1.95-11.7 4.75 2.9-2.8 11.7-4.75-9.2-0.55-17.95 1.1 8.75-1.65 17.95-1.1m-38.8-117.85q58.95-5.65 132.6 8.1 42.35 10.05 44.8 21.3-2.45-11.25-44.8-21.3-73.65-13.75-132.6-8.1m145.1 42.6q26.75 1.75 36.45-6.05-9.7 7.8-36.45 6.05" fill="#f0f0e3" fill-rule="evenodd"/>
<path d="m261.55 318.75 3.15 4-1 2.25-1 10.25 2.75 3.5q1.55 4.95-1.75 7-25.3 6.95-56.7 8.65 16.3-4.6 15.6-15.75 18.55-1.15 17.65-6.15l0.3-0.05 15.9-3.45 4.75-3.25 0.35-7m-138.15 4.95-1.2 5.8 3.25 4-1.75 5q-10.4 5.95-24.6 7.35 3.2-14.8 24.3-22.15m-1.2 9.05v-3.25 3.25" fill="#c19a02" fill-rule="evenodd"/>
<path d="m255.4 222.95q2.55-2 3.3-6.7-0.1-1.85-0.75-3.6m-135.25 2.85 4.1 2.05q11.75 6.35 14.9 15.2m111-19.5-1.45 2.55q-3.6 4.8-11.7 6.2l-10.4-0.2q-42.6-1-77-7.65-13.3-2.6-25.4-6.05-6.95-2.05-6.8 7.65l-1.05 3.45q-2.2 7.35-4 14.9-6.55 27.6-7.7 58.15-1.6 3.45 1.15 6.3m147.05-75.6q1.85 9.25 3.25 18.6l3.3 2.45-2.05 7.1q3.95 33.35 1.65 67.65l3.15 4-1 2.25-1 10.25 2.75 3.5q1.55 4.95-1.75 7-25.3 6.95-56.7 8.65-18.55 1-39.25 0.2l-2.3-0.1-17.95-3.55q-18.25-4.4-18.55-8.7l2.15-3.55-0.9-5.95-2.5-4q0.6-3.7 3.15-4.4l-1.9-9.1q-4.55-2.5-1.5-8.8l-3.45-1.1h-1.55l-0.9 10.95q4.05 1.2 4.4 5.2l-2.55 2.15v0.05l-1.2 5.8 3.25 4-1.75 5q-10.4 5.95-24.6 7.35l-9.9 0.4q-55.45-1.25-83-26l-2.95-4q-5.25-8.15-2.05-13.25l4.6-2.75 5.15-8.5 1-6.25 6-4.5q14.8-29.85 37.45-62.75l0.85-4.45m0.2-1.3 3.65-2.75q1.7-5.9 1.8-13.45l-0.15-4.65q-1.55-2.5-1.75-4.9l-0.05-1.25q2.85-4.95 16.75-6.5 68.9-2.25 146.75 14 30.1 7.9 34.5 19.65m-12.4 36.7q7.4-1.45 13.65-3.8l-0.55-4m-18.1 90.9 15.9-3.45 4.75-3.25 0.35-7m-175.6-123.65q-11.75-5.75-12.1-8.7-0.2-1.95 4.6-2.65m-16.7 7.9q2.35 3.8 7.7 7.85m-9.35 10.25-1.4 3.75 1.25 1m48 18.1q-19.55-4.35-32.25-9.5-9.95-4.05-15.75-8.6m-42 66.5-3 6q-6.9 15.85 22.95 29.1 5.6 2.5 12.55 4.9l2.8 0.65q27.3 6.15 58.2 3.6 8.2-0.95 9.75-5.25l0.35-3.7m-115.75-16.05-2.6 3.25m125.75-87q15.55 5.65 38.55 8.55l17.7 1.7m-30.3 17.1-10.9-2.4q-6.75 31.2-7.55 62.8m-36.85-105.15q33.25-2.5 73.85 3.65 35.5 5.3 55.7 19.05m-129.55-22.7q14 3.85 32.85 8.15 13.9 2.35 19.7 6.9m-44.2 18.45 6.95 1.5m-28.95-39 13.65 4m44.4 42.35q1.85-8.75 7.7-14.95m-24.25 79.95 3.5 1.05m-8.35-2.6 1.4 0.45m-1.4-0.45-5.4-1.65q-6.3-2.1-8.85-4.7m13.85 30.95v3.25m8.65-8.4 0.6 2.9q11.5 3.55 23.35 5.8l9.1 1.5q17.55 2.5 35.85 2.15l22.3-1.5 6.5-0.85 11.7-1.85m-139.3-23.5q2.9-2.8 11.7-4.75-9.2-0.55-17.95 1.1m27.75 0-9.8-1.1m-38.95-112.75 12.25 3.6m165.3 20.7q-2.45-11.25-44.8-21.3-73.65-13.75-132.6-8.1m81.05 57.45q57.3 12 90.65 5.5m9.85-26.4q-9.7 7.8-36.45 6.05" fill="none" stroke="#000" stroke-linecap="round" stroke-linejoin="round" stroke-opacity=".30196" stroke-width=".5"/>
<path d="m239.55 222-10.4-0.2q-42.6-1-77-7.65-5.8-4.55-19.7-6.9-18.85-4.3-32.85-8.15l-13.65-4q-11.75-5.75-12.1-8.7 58.95-5.65 132.6 8.1 42.35 10.05 44.8 21.3-3.6 4.8-11.7 6.2" fill-opacity=".34118" fill-rule="evenodd"/>
</g>
<g id="a" transform="translate(.25 .25)">
<use transform="translate(-.25 -.25)" width="31.5" height="31.5" xlink:href="#n"/>
</g>
<g id="n" transform="translate(.25 .25)">
<path d="m26 4.15 0.45 0.4 1.85 2.2q2.7 3.8 2.7 8.75 0 3.6-1.45 6.65l-1.05 1.85-2.05 2.45q-3.45 3.45-7.95 4.3l-0.7 0.1-0.8 0.1-1.3 0.05h-0.2q-5.1 0-9-2.85l-1.5-1.3-0.4-0.35-0.05-0.05-1.15-1.3-0.85-1.1-0.35-0.55q-1.8-2.95-2.1-6.4l-0.1-1.6q0-2.3 0.6-4.35l0.6-1.7 0.1-0.3q0.55-1.15 1.25-2.2l0.75-0.95 1.25-1.45 0.2-0.2q1.05-1.05 2.25-1.8 2-1.4 4.35-2l2.5-0.45 1.65-0.1 2.5 0.2q1.85 0.25 3.55 1 2.4 1 4.45 2.95m-6.15 6.7v0.05l-0.05-0.05h0.05m-2.9-4.75 3.9 0.5-2.25 5.25 7 3.25-2.65 4.9-4.3-1.5-1.45-0.5 1.15 7.1-5.25 0.15-6.8-16.25 4.65-2.5 2.15 5.6 1-1.55 2.85-4.45m7.1 19.25 0.4-0.4q3.85-3.85 3.85-9.3t-3.85-9.35q-3.9-3.85-9.35-3.85-4.5 0-7.9 2.65l-0.4 0.3-1 0.9-0.95 1.05q-2.95 3.55-2.95 8.3 0 5.45 3.9 9.3 3.85 3.9 9.3 3.9 5.15 0 8.95-3.5" fill="#a88600" fill-rule="evenodd"/>
<path d="m19.85 10.85 6.95 3.25-2.65 4.9-1.2 1 2.65-4.9-7-3.25 2.25-5.25-3.9-0.5 1.2-1 3.9 0.5-2.25 5.25 0.05 0.05v-0.05m-1.2 7.65 0.9 5.6-1.2 1-1.15-7.1 1.45 0.5m-12.35-9.5 1.2-1 4.65-2.5 1.95 5.05-1 1.55-2.15-5.6-4.65 2.5m17.75 16.35q-3.8 3.5-8.95 3.5-5.45 0-9.3-3.9-3.9-3.85-3.9-9.3 0-4.75 2.95-8.3l0.95-1.05 1-0.9v0.05l-1.7 2.05q-2.2 3.2-2.2 7.3 0 5.45 3.9 9.3 3.85 3.9 9.3 3.9 4.5 0 7.95-2.65" fill="#8a6f01" fill-rule="evenodd"/>
<path d="m22.95 20 1.2-1 2.65-4.9-6.95-3.25h-0.05l2.25-5.25-3.9-0.5-1.2 1-2.85 4.45-1.95-5.05-4.65 2.5-1.2 1 6.8 16.25 5.25-0.15 1.2-1-0.9-5.6 4.3 1.5m-15.75-14.9q3.4-2.65 7.9-2.65 5.45 0 9.35 3.85 3.85 3.9 3.85 9.35t-3.85 9.3l-0.4 0.4q-3.45 2.65-7.95 2.65-5.45 0-9.3-3.9-3.9-3.85-3.9-9.3 0-4.1 2.2-7.3l1.7-2.05h0.05l0.35-0.35" fill="#957801" fill-rule="evenodd"/>
<path d="m28.3 6.75q2.7 3.8 2.7 8.75 0 3.6-1.45 6.65m-1.05 1.85-2.05 2.45q-3.45 3.45-7.95 4.3m-0.7 0.1-0.8 0.1m-1.3 0.05h-0.2q-5.1 0-9-2.85m-3.1-3-0.85-1.1-0.35-0.55q-1.8-2.95-2.1-6.4m-0.05-0.8-0.05-0.8q0-2.3 0.6-4.35m0.6-1.7 0.1-0.3m1.25-2.2 0.75-0.95m1.3-1.5 0.15-0.15m2.25-1.8q2-1.4 4.35-2m2.5-0.45 1.65-0.1 2.5 0.2m3.55 1q2.4 1 4.45 2.95m-3.05 15.85 1.2-1 2.65-4.9-6.95-3.25v0.05m-0.05-0.05 2.25-5.25-3.9-0.5-1.2 1m6 13.9-4.3-1.5 0.9 5.6-1.2 1-5.25 0.15-6.8-16.25 1.2-1 4.65-2.5 1.95 5.05 2.85-4.45m-9.75-1q3.4-2.65 7.9-2.65 5.45 0 9.35 3.85 3.85 3.9 3.85 9.35t-3.85 9.3l-0.4 0.4m-17.25-19.95 0.4-0.3-0.35 0.35h-0.05l-1.7 2.05q-2.2 3.2-2.2 7.3 0 5.45 3.9 9.3 3.85 3.9 9.3 3.9 4.5 0 7.95-2.65m-10.95-13.25 1-1.55m5.7 0.3h0.05m-1.2 7.65-1.45-0.5" fill="none" stroke="#000" stroke-linecap="round" stroke-linejoin="round" stroke-opacity=".50196" stroke-width=".5"/>
</g>
<g id="f" transform="translate(10.6,7.45)">
<clipPath id="s" transform="translate(10.6 7.45)">
<use transform="translate(-10.6,-7.45)" width="35.25" height="41.400002" xlink:href="#m"/>
</clipPath>
<g clip-path="url(#s)">
<use transform="translate(-.25 -.25)" width="31.5" height="31.5" xlink:href="#a"/>
</g>
</g>
<g id="m" transform="translate(10.6,7.45)">
<path d="m4.7-7.2 19.7 5.25q-3.8 16.55-3.75 35.15l-17 0.5-14-17.75 15.05-23.15" fill="#cba301" fill-rule="evenodd"/>
<path d="m4.7-7.2-15.05 23.15 14 17.75 17-0.5q-0.05-18.6 3.75-35.15z" fill="none" stroke="#000" stroke-linecap="round" stroke-linejoin="round" stroke-opacity=".50196" stroke-width=".5"/>
</g>
<g id="e" transform="translate(.3 .3)">
<clipPath id="r" transform="translate(.3 .3)">
<use transform="translate(.65 .5)" width="36.849998" height="24.5" xlink:href="#l"/>
</clipPath>
<g clip-path="url(#r)">
<use transform="matrix(.2588 .9659 -.9659 .2588 30.127 -.3062)" width="31.5" height="31.5" xlink:href="#a"/>
</g>
</g>
<g id="l" transform="translate(-.65 -.5)">
<path d="m1.45 18.05q-0.3-6.85 4-11.6 5.1-5.7 14.15-5.7 8.15 0 13.4 6 4.25 4.85 4.25 9.6 0 1.6-0.55 4.1l-0.6 2.45q-20.65 1.05-34.65-4.85" fill="#d1a701" fill-rule="evenodd"/>
<path d="m36.1 22.9h1.05m-35.7-4.85q-0.3-6.85 4-11.6 5.1-5.7 14.15-5.7 8.15 0 13.4 6 4.25 4.85 4.25 9.6 0 1.6-0.55 4.1l-0.6 2.45-0.6 1.85m-33.75-3.75-0.3-2.95-0.55-0.15m0.55 0.15q14 5.9 34.65 4.85z" fill="none" stroke="#000" stroke-linecap="round" stroke-linejoin="round" stroke-opacity=".50196" stroke-width=".5"/>
</g>
<g id="d" transform="translate(.25 .3)">
<clipPath id="q" transform="translate(.25 .3)">
<use transform="translate(1.25 .45)" width="30.75" height="36.049999" xlink:href="#k"/>
</clipPath>
<g clip-path="url(#q)">
<use transform="matrix(.7011 .1879 -.2588 .9659 7.8894 -.2884)" width="31.5" height="31.5" xlink:href="#a"/>
</g>
</g>
<g id="k" transform="translate(-1.25 -.45)">
<path d="m27.2 5.3-0.2 0.55q0 0.55 2.4 5.25 2.35 4.7 2.35 10.4 0 7.2-8.25 11.5-6.2 3.25-11.75 3.25-5.4 0-6.7-3.45-0.55-4.3-1.05-6.05l-0.9-2.2-0.7-1.45q6.5-13.1 13.8-22.4l11 4.6" fill="#e3b602" fill-rule="evenodd"/>
<path d="m28 2.25-0.8 3.05 0.8 0.35m-0.8-0.35-0.2 0.55q0 0.55 2.4 5.25 2.35 4.7 2.35 10.4 0 7.2-8.25 11.5-6.2 3.25-11.75 3.25-5.4 0-6.7-3.45-0.55-4.3-1.05-6.05l-0.9-2.2-0.7-1.45-0.4 0.8m25.2-18.6-11-4.6q-7.3 9.3-13.8 22.4l-0.9-2.1" fill="none" stroke="#000" stroke-linecap="round" stroke-linejoin="round" stroke-opacity=".50196" stroke-width=".5"/>
</g>
<g id="c" transform="translate(.45 .45)">
<clipPath id="p" transform="translate(.45 .45)">
<use transform="translate(4.75,10.25)" width="47.75" height="40" xlink:href="#j"/>
</clipPath>
<g clip-path="url(#p)">
<use transform="matrix(.6161 1.0671 -1.1407 .6586 35.481 -.4314)" width="31.5" height="31.5" xlink:href="#a"/>
</g>
</g>
<g id="j" transform="translate(-4.75,-10.25)">
<path d="m49.9 19.65 1 2.75q1.35 3.45 1.35 6.6 0 3.85-2.6 8.95-2.65 5.2-6.4 8.55-4 3.5-18 3.5-11 0-16.5-9-3.75-6.15-3.75-12.9 0-5.85 4.2-11.4l3.15-3.45 0.1-0.1q18.1 4.15 37.45 6.5" fill="#b59101" fill-rule="evenodd"/>
<path d="m49.75 16.5q-0.25 0.25-0.25 1.25l0.4 1.9 1.4 0.15m-1.4-0.15 1 2.75q1.35 3.45 1.35 6.6 0 3.85-2.6 8.95-2.65 5.2-6.4 8.55-4 3.5-18 3.5-11 0-16.5-9-3.75-6.15-3.75-12.9 0-5.85 4.2-11.4l3.15-3.45 0.1-0.1 2.05-2.65m-2.05 2.65q18.1 4.15 37.45 6.5" fill="none" stroke="#000" stroke-linecap="round" stroke-linejoin="round" stroke-opacity=".50196" stroke-width=".5"/>
</g>
<g id="i" transform="translate(.5 .5)">
<path d="m257.95 212.65q-4.4-11.75-34.5-19.65-77.85-16.25-146.75-14-13.9 1.55-16.75 6.5l0.05 1.25q0.2 2.4 1.75 4.9l0.15 4.65q-0.1 7.55-1.8 13.45l-4.7 3.2v5.3q-22.65 32.9-37.45 62.75l-6 4.5-1 6.25-5.15 8.5-4.6 2.75q-3.2 5.1 2.05 13.25l2.95 4q27.55 24.75 83 26 20.65 0.2 34.5-7.75l1.75-5-3.25-4 1.2-5.85 2.55-2.15q-0.35-4-4.4-5.2l0.9-10.95h1.55l3.45 1.1q-3.05 6.3 1.5 8.8l1.9 9.1q-2.55 0.7-3.15 4.4l2.5 4 0.9 5.95-2.15 3.55q0.3 4.3 18.55 8.7l17.95 3.55 2.3 0.1q55.7 2.2 95.95-8.85 3.3-2.05 1.75-7l-2.75-3.5 1-10.25 1-2.25-3.15-4q2.3-34.3-1.65-67.65l2.05-7.1-3.3-2.45q-1.4-9.35-3.25-18.6 2.55-2 3.3-6.7-0.1-1.85-0.75-3.6z" fill="none" stroke="#000" stroke-linecap="round" stroke-linejoin="round" stroke-opacity=".50196"/>
<path d="m174.85 240.4q1.3-7.45 8.2-12.9 10.4-8 20.75-8.05l-4.15 17.05q-7 17.85-24.8 3.9m19.45-67.9 0.15-11.5q1.1-51.4 23.35-90.3 9.8-10.7 11.8-5.7-15.6 39.8-15.85 68.5-0.1 19.9-2.3 40-1.2 11-3 22.1-11-3.75-14.15-23.1m-119.95-113.85q8.05-14.4 12.15-9.1-6.6 38.2-1.05 65.95 6.55 32.2 7.85 65-13.15-3.35-18.85-24.4-1-6.65-2.5-13.1-8.95-47.55 2.4-84.35m-5.4 163.75q-0.25-7.45 5.5-12.9 9.55-12.25 19.15-12.95-0.05 10.95-0.65 21.95-3.25 17.85-24 3.9" fill="#fff" fill-rule="evenodd"/>
<path d="m183.05 227.5q9.9-28.65 11.25-55 3.15 19.35 14.15 23.1-2 11.9-4.65 23.85-10.35 0.05-20.75 8.05m34.75-156.8q3.85-6.8 8.35-13.2 13.9-20.5 34.25-32.85-11 9.75-20.1 22.8-5.75 8.15-10.7 17.55-2-5-11.8 5.7m-108.5-64.05q-5.05 5.55-9.3 12.15l-0.7 1.1-3.3 5.65q-5.3 9.75-9.05 21.45l-0.45 2.55q-4.1-5.3-12.15 9.1 3.05-10 7.6-19.15 9.6-20.5 27.35-32.85m-34.85 202.85q3.8-27.8 0-53.4 5.7 21.05 18.85 24.4l0.3 16.05q-9.6 0.7-19.15 12.95" fill="#f0f0e3" fill-rule="evenodd"/>
<path d="m260.4 24.65q5.25-4.7 12.5-6.65 14.35 1.4 14.1 18.95-5.95-16.9-17.85-12.95-41.45 32.15-49.25 92-4 67.45-13 110.75l-2.55 11.25q-6.2 12.9-12.3 13.7-8.15-0.6-12.4-3.05-5.1-2.85-4.8-8.25 17.8 13.95 24.8-3.9l4.15-17.05q2.65-11.95 4.65-23.85 1.8-11.1 3-22.1 2.2-20.1 2.3-40 0.25-28.7 15.85-68.5 4.95-9.4 10.7-17.55 9.1-13.05 20.1-22.8m-161.1-4.75 0.7-1.1q4.25-6.6 9.3-12.15 4.3-4.7 11.15-6.65 14.6 1.4 18.05 18.95-9.5-16.9-20.55-12.95-34.75 32.15-30 92 9.5 63.5 10.15 105.6 0.1 8.65-0.15 16.4-3.5 12.9-9.4 13.7-7.65-0.6-12.35-2.7l-0.6-0.3q-5.8-2.85-6.65-8.3 20.75 13.95 24-3.9 0.6-11 0.65-21.95l-0.3-16.05q-1.3-32.8-7.85-65-5.55-27.75 1.05-65.95l0.45-2.55q3.75-11.7 9.05-21.45l3.3-5.65" fill="#e7e7d1" fill-rule="evenodd"/>
<path d="m206.9 226.75v10.75q-3.05 18.5-10.45 19-10.3 2.9-16.85-3.5l0.05-4.35q4.25 2.45 12.4 3.05 6.1-0.8 12.3-13.7l2.55-11.25m-108.8-23.15 2.15 11.5q3.5 18.65-10.8 22.4-14.7-2.35-13.25-6.5 4.7 2.1 12.35 2.7 5.9-0.8 9.4-13.7 0.25-7.75 0.15-16.4" fill="#68684a" fill-opacity=".18824" fill-rule="evenodd"/>
<path d="m260.4 24.65q5.25-4.7 12.5-6.65 14.35 1.4 14.1 18.95m-17.85-12.95q-41.45 32.15-49.25 92-4 67.45-13 110.75l-2.55 11.25q-6.2 12.9-12.3 13.7-8.15-0.6-12.4-3.05-5.1-2.85-4.8-8.25 1.3-7.45 8.2-12.9 9.9-28.65 11.25-55l0.15-11.5q1.1-51.4 23.35-90.3 3.85-6.8 8.35-13.2 13.9-20.5 34.25-32.85m-20.1 22.8q-5.75 8.15-10.7 17.55-15.6 39.8-15.85 68.5-0.1 19.9-2.3 40-1.2 11-3 22.1-2 11.9-4.65 23.85l-4.15 17.05q-7 17.85-24.8 3.9m-65.55-233.75q-17.75 12.35-27.35 32.85-4.55 9.15-7.6 19.15m12.15-9.1 0.45-2.55q3.75-11.7 9.05-21.45l3.3-5.65m10-13.25q4.3-4.7 11.15-6.65 14.6 1.4 18.05 18.95m-20.55-12.95q-34.75 32.15-30 92 9.5 63.5 10.15 105.6 0.1 8.65-0.15 16.4-3.5 12.9-9.4 13.7-7.65-0.6-12.35-2.7l-0.6-0.3q-5.8-2.85-6.65-8.3-0.25-7.45 5.5-12.9 3.8-27.8 0-53.4-1-6.65-2.5-13.1-8.95-47.55 2.4-84.35m19.25 137.9-0.3-16.05q-1.3-32.8-7.85-65-5.55-27.75 1.05-65.95m-17.55 172.85q20.75 13.95 24-3.9 0.6-11 0.65-21.95" fill="none" stroke="#000" stroke-linecap="round" stroke-linejoin="round" stroke-opacity=".50196" stroke-width=".5"/>
<path d="m272.9 18q14.35 1.4 14.1 18.95-5.95-16.9-17.85-12.95-41.45 32.15-49.25 92-4 67.45-13 110.75l-2.55 11.25q-6.2 12.9-12.3 13.7-8.15-0.6-12.4-3.05-5.1-2.85-4.8-8.25 1.3-7.45 8.2-12.9 9.9-28.65 11.25-55l0.15-11.5q1.1-51.4 23.35-90.3 3.85-6.8 8.35-13.2 13.9-20.5 34.25-32.85 5.25-4.7 12.5-6.65m-190.95 21.5q-4.55 9.15-7.6 19.15-11.35 36.8-2.4 84.35 1.5 6.45 2.5 13.1 3.8 25.6 0 53.4-5.75 5.45-5.5 12.9 0.85 5.45 6.65 8.3l0.6 0.3q4.7 2.1 12.35 2.7 5.9-0.8 9.4-13.7 0.25-7.75 0.15-16.4-0.65-42.1-10.15-105.6-4.75-59.85 30-92 11.05-3.95 20.55 12.95-3.45-17.55-18.05-18.95-6.85 1.95-11.15 6.65-17.75 12.35-27.35 32.85" fill="none" stroke="#000" stroke-linecap="round" stroke-linejoin="round" stroke-opacity=".50196"/>
</g>
<g id="b" transform="translate(.45 .25)">
<use transform="translate(-.45 -.25)" width="29.15" height="31.1" xlink:href="#h"/>
</g>
<g id="h" transform="translate(.45 .25)">
<path d="m28.2 14.35 0.05 0.1q0.45 2.55-0.15 5.45v0.1l-0.25 0.9-1.15 2.9q-2.85 5.15-9.75 6.6l-1.35 0.25q-3.4 0.6-6.5-0.5l-0.6-0.25-0.65-0.25-0.95-0.55-0.15-0.1q-1.65-0.95-2.9-2.15l-1.3-1.55-1.3-2.3-0.55-1.4-0.05-0.25-0.15-0.4v-0.05l-0.3-1.45-0.15-1.25-0.05-0.55 0.15-2q0.2-1.85 1.05-3.7l0.3-0.6 0.35-0.65q1-1.7 2.3-3l1.15-0.95 0.25-0.25q0.9-0.6 1.9-1.1l0.95-0.35 1.6-0.55v-0.05l0.25-0.05 2.4-0.35q3.45-0.7 6.8 0.55 2 0.65 3.95 1.95l0.4 0.35 0.1 0.15q2.3 2.1 3.4 4.55l0.05 0.1q0.6 1.3 0.85 2.65" fill-opacity=".25098" fill-rule="evenodd"/>
<path d="m28.2 13.1 0.05 0.1q0.45 2.55-0.15 5.45v0.1l-0.25 0.9-1.15 2.9q-2.85 5.15-9.75 6.6l-1.35 0.25q-3.4 0.6-6.5-0.5l-0.6-0.25-0.65-0.25-0.95-0.55-0.15-0.1q-1.65-0.95-2.9-2.15l-1.3-1.55-1.3-2.3-0.55-1.4-0.05-0.25-0.15-0.4v-0.05l-0.3-1.45-0.15-1.25-0.05-0.55 0.15-2q0.2-1.85 1.05-3.7l0.3-0.6 0.35-0.65q1-1.7 2.3-3l1.15-0.95 0.25-0.25q0.9-0.6 1.9-1.1l0.95-0.35 1.6-0.55v-0.05l0.25-0.05 2.4-0.35q3.45-0.7 6.8 0.55 2 0.65 3.95 1.95l0.4 0.35 0.1 0.15q2.3 2.1 3.4 4.55l0.05 0.1q0.6 1.3 0.85 2.65" fill-opacity=".25098" fill-rule="evenodd"/>
<path d="m17 0.65-0.2-0.05-4.15-0.35q3.45-0.7 6.8 0.55 2 0.65 3.95 1.95l0.4 0.35-2.05 0.05-0.2-0.2-1.4-0.95-1.3-0.65-1.6-0.55-0.25-0.15m-14.9 9.65q0.4-1.25 1.1-2.45 2.05-3.55 5.8-4.95l1.15-0.4 1.1-0.15-2.15 0.75q-3 1.45-4.8 4.55l-0.8 1.65-0.5 1.6-0.9-0.6m16.7 1.9 4.85-2.95 0.5 1.35 0.3 1.6-4.1 2.15-1.55-2.15m-13.65 8.15h0.1l2.3-1.45-0.1 1 1.15 0.6-2.2 1.25-1.25-1.4m11.85 6.15 2.5-0.9 1.6-0.9q1.95-1.4 3.35-3.4l2.25-1.3q-2.85 5.15-9.75 6.6l0.05-0.1" fill="#b18e01" fill-rule="evenodd"/>
<path d="m12.65 0.25 4.15 0.35 0.2 0.05-2.7 1.6-2.6-0.05-0.45 0.1v0.05l-1.1 0.15-1.15 0.4q-3.75 1.4-5.8 4.95-0.7 1.2-1.1 2.45l-1.95 1.55q0.2-1.85 1.05-3.7l0.3-0.6 0.35-0.65q1-1.7 2.3-3l1.15-0.95 0.25-0.25q0.9-0.6 1.9-1.1l0.95-0.35 1.6-0.55v-0.05l0.25-0.05 2.4-0.35m6 11.7 0.05 0.05v0.05l-0.05-0.1m-11.9 13.25 2.35-0.9q3.15 1.15 6.5 0.4l0.45-0.1q4.55-1.25 6.9-5.35l0.3-0.55 3.1-1.2-1.3 2.8-0.6 1q-1.4 2-3.35 3.4l-1.6 0.9-2.5 0.9-0.1 0.05-1.3 0.3q-3.4 0.6-6.5-0.5l-0.6-0.25-0.65-0.25-0.95-0.55-0.15-0.1m19.85-14.15v0.1h-0.1l0.1-0.1" fill="#fc0" fill-rule="evenodd"/>
<path d="m17 0.65 0.25 0.15 1.6 0.55 1.3 0.65 1.4 0.95 0.2 0.2 0.15 0.1-1.8 1.35q-0.6-0.5-1.3-0.9-2.2-1.25-4.5-1.45l2.7-1.6m-16.85 11.2 1.95-1.55q-0.9 3-0.05 6.2l0.15 0.5-1.5 0.8-0.05-0.25-0.15-0.4v-0.05l-0.3-1.45-0.15-1.25-0.05-0.55 0.1-1.6 0.05-0.4m9.2-7.05 4.6 0.1-0.7 4.45-4.9 3.45 0.9-7.4 0.1-0.6" fill="#fee689" fill-rule="evenodd"/>
<path d="m13.8 2.4 0.5-0.15q2.3 0.2 4.5 1.45 0.7 0.4 1.3 0.9l-5.4 3.75 0.6-3.7-4.65-0.1 3.15-2.15m-10.8 8.5 0.5-1.6 5.75-3.9-0.9 7.4-5.15 3.5q-0.75-2.75-0.2-5.4" fill="#fdd535" fill-rule="evenodd"/>
<path d="m11.7 2.2 2.6 0.05-0.5 0.15-3.15 2.15h-0.1l-1.2 0.25-0.1 0.6-5.75 3.9 0.8-1.65q1.8-3.1 4.8-4.55l2.15-0.75h0.05l0.4-0.15" fill="#ecbd02" fill-rule="evenodd"/>
<path d="m10.65 4.55 4.65 0.1-0.6 3.7-0.15 0.95q-0.7 0.4-1.45 0.75l0.15-0.7 0.7-4.45-4.6-0.1 1.2-0.25h0.1m7.9 2.65 1.35-0.25 2.75 2.1-4 2.9 0.05 0.1v-0.05l0.1 0.2 1.55 2.15 2.15 3.1-4.1 2.55-1.35 0.25 4.15-2.55-1.9-2.8-1.55-2.05-0.4-0.65 3.95-2.9-2.75-2.1m-5.75 11.1 0.8-2.05 0.9 1-0.1 0.25-1.65 4.3-1.35 0.25 1.4-3.75m-8.5 2.55 0.85-0.5 1.25 1.4 0.3 0.2-1 0.35-0.15-0.2-1.25-1.25m23-13.05 0.05 0.1q0.6 1.3 0.85 2.65l-1.6 0.5-0.2-0.9-0.2-0.5-0.5-1.5 1.6-0.35" fill="#6d5701" fill-rule="evenodd"/>
<path d="m14.7 8.35 5.4-3.75q2.4 1.8 3.55 4.65l-4.85 2.95-0.1-0.2-0.05-0.05 4-2.9-2.75-2.1-1.35 0.25-4 2.1 0.15-0.95m-6.35 4.45-0.8 6.1-2.3 1.45h-0.1q-1.15-1.55-1.8-3.5l-0.15-0.55 5.15-3.5" fill="#fdd124" fill-rule="evenodd"/>
<path d="m13.1 10.05q0.75-0.35 1.45-0.75l4-2.1 2.75 2.1-3.95 2.9 0.4 0.65-10.2 6.05 0.8-6.1 4.9-3.45-0.15 0.7m10.55-0.8q-1.15-2.85-3.55-4.65l1.8-1.35q1.3 1 2.25 2.3 0.9 1.15 1.55 2.6l-2.05 1.1m-21.1 12.25-1.3-2.3-0.55-1.4 1.5-0.8q0.7 2.2 2.1 3.85l-1.75 0.65" fill="#fedb4e" fill-rule="evenodd"/>
<path d="m21.75 3.15 2.05-0.05 0.1 0.15q2.3 2.1 3.4 4.55l-1.6 0.35q-0.65-1.45-1.55-2.6-0.95-1.3-2.25-2.3l-0.15-0.1m-18.55 13.15 0.15 0.55-1.15 0.15-0.15-0.5q-0.85-3.2 0.05-6.2l0.9 0.6q-0.55 2.65 0.2 5.4" fill="#d2a902" fill-rule="evenodd"/>
<path d="m7.55 18.9 10.2-6.05 1.55 2.05-4.7 2.5-0.1-0.15-0.9-1-0.8 2.05-4.2 2.2-1.15-0.6 0.1-1m-3.7 4.15-1.3-1.55 1.75-0.65 1.25 1.25-1.7 0.95m20.6-10.85-0.3-1.6-0.5-1.35 2.05-1.1 0.5 1.5 0.2 0.5 0.2 0.9-0.1 0.1-2.05 1.05" fill="#987901" fill-rule="evenodd"/>
<path d="m3.35 16.85q0.65 1.95 1.8 3.5l-0.85 0.5q-1.4-1.65-2.1-3.85l1.15-0.15m2.35 5.45 1-0.35 1.8 1.25 1.45 0.8q2.7 1.1 5.65 0.7-3.35 0.75-6.5-0.4l-1.7-0.85-1.7-1.15m22.5-11.75 0.05 0.1q0.45 2.55-0.15 5.45l-1.75 1.4q0.7-2.4 0.45-4.9l-0.2-1.45v-0.1l1.6-0.5" fill="#876b01" fill-rule="evenodd"/>
<path d="m6.4 21.75 2.2-1.25 2.8 1.55 1.35-0.25 1.65-4.3 0.2-0.1 2.45 2.85 1.35-0.25 4.1-2.55-2.15-3.1 4.1-2.15q0.4 3.35-1.2 6.5l-13.3 5.3-1.45-0.8-1.8-1.25-0.3-0.2" fill="#caa202" fill-rule="evenodd"/>
<path d="m8.6 20.5 4.2-2.2-1.4 3.75-2.8-1.55m6-3.1 4.7-2.5 1.9 2.8-4.15 2.55-2.45-2.85m-9.05 4.7 0.15 0.2 1.7 1.15 1.7 0.85-2.35 0.9q-1.65-0.95-2.9-2.15l1.7-0.95m17.7-3.4q1.6-3.15 1.2-6.5l2.05-1.05h0.1l0.2 1.45q0.25 2.5-0.45 4.9l-3.1 1.2" fill="#f4c402" fill-rule="evenodd"/>
<path d="m14.5 17.25 0.1 0.15-0.2 0.1 0.1-0.25m-4.55 6.75 13.3-5.3-0.3 0.55q-2.35 4.1-6.9 5.35l-0.45 0.1q-2.95 0.4-5.65-0.7" fill="#e3b602" fill-rule="evenodd"/>
<path d="m16.95 26.6-0.05-0.05 0.1-0.05-0.05 0.1m7.5-5.3 0.6-1 1.3-2.8 1.75-1.4v0.1l-0.25 0.9-1.15 2.9-2.25 1.3" fill="#cba301" fill-rule="evenodd"/>
<path d="m12.65 0.25 4.15 0.35 0.2 0.05 0.25 0.15 1.6 0.55 1.3 0.65 1.4 0.95 0.2 0.2m-21.6 8.7 1.95-1.55q0.4-1.25 1.1-2.45 2.05-3.55 5.8-4.95l1.15-0.4 1.1-0.15v-0.05m0.45-0.1 2.6 0.05-0.5 0.15m6.3 2.2q-0.6-0.5-1.3-0.9-2.2-1.25-4.5-1.45m9.35 7q-1.15-2.85-3.55-4.65m1.8-1.35-0.15-0.1m-19.65 7.15q-0.9 3-0.05 6.2l0.15 0.5q0.7 2.2 2.1 3.85l-1.75 0.65-0.6 0.2m-1.85-9.45 0.05-0.4m0.55 5.95 1.5-0.8m3.5 5.3-0.15-0.2-1.7 0.95m2.9 2.15 2.35-0.9-1.7-0.85-1.7-1.15m-0.15-0.2-1.25-1.25m18.95-2.15q1.6-3.15 1.2-6.5m-7.55 14.35 0.1-0.05 2.5-0.9 1.6-0.9q1.95-1.4 3.35-3.4l0.6-1 1.3-2.8m-3.1 1.2-0.3 0.55q-2.35 4.1-6.9 5.35l-0.45 0.1q-3.35 0.75-6.5-0.4m17.5-13.25v0.1l0.2 1.45q0.25 2.5-0.45 4.9m-2.7-8.25 0.5 1.35 0.3 1.6m2.05-1.05 0.1-0.1-0.2-0.9-0.2-0.5-0.5-1.5m0.8 3h0.1m-4.7-7.9q1.3 1 2.25 2.3 0.9 1.15 1.55 2.6" fill="none" stroke="#ff0" stroke-linecap="round" stroke-linejoin="round" stroke-opacity=".47843" stroke-width=".5"/>
<path d="m23.8 3.1-0.4-0.35q-1.95-1.3-3.95-1.95-3.35-1.25-6.8-0.55l-2.4 0.35-0.25 0.05v0.05l-1.6 0.55-0.95 0.35q-1 0.5-1.9 1.1l-0.25 0.25-1.15 0.95q-1.3 1.3-2.3 3l-0.35 0.65-0.3 0.6q-0.85 1.85-1.05 3.7m10.5-7.3 4.65 0.1-0.6 3.7m-5.35-3.55 1.2-0.25h0.1m0.6-2.2h0.05m3.25 6.95 0.15-0.95m-1.6 1.7q0.75-0.35 1.45-0.75l4-2.1 1.35-0.25 2.75 2.1-4 2.9 0.05 0.05 0.1 0.2m-10.45 0.6-0.8 6.1-0.1 1 1.15 0.6 2.8 1.55 1.35-0.25 1.65-4.3 0.1-0.25 0.1 0.15m-5.35-12 0.1-0.6m-0.1 0.6-0.9 7.4m5.25 3.45 0.9 1m-13.8 0.55-0.05-0.25-0.15-0.4v-0.05l-0.3-1.45-0.15-1.25-0.05-0.55 0.1-1.6m2.45 9.25-1.3-2.3-0.55-1.4m3.15 5.25-1.3-1.55m1.3 1.55q1.25 1.2 2.9 2.15m10.3-4.95-2.45-2.85m5.75-3.05 2.15 3.1-4.1 2.55-1.35 0.25m-1.45 6.6 1.35-0.25m-1.35 0.25q-3.4 0.6-6.5-0.5l-0.6-0.25-0.65-0.25-0.95-0.55-0.15-0.1m21.45-14.65 0.05 0.1q0.45 2.55-0.15 5.45v0.1l-0.25 0.9-1.15 2.9q-2.85 5.15-9.75 6.6m10.35-18.8q-1.1-2.45-3.4-4.55l-0.1-0.15m3.5 4.7 0.05 0.1q0.6 1.3 0.85 2.65m-7.85 3.8-1.55-2.15m-0.1-0.2v0.05" fill="none" stroke="#000" stroke-linecap="round" stroke-linejoin="round" stroke-opacity=".50196" stroke-width=".5"/>
<path d="m16.8 0.65-0.2-0.05-4.15-0.35q3.45-0.7 6.8 0.55 2 0.65 3.95 1.95l0.4 0.35-2.05 0.05-0.2-0.2-1.4-0.95-1.3-0.65-1.6-0.55-0.25-0.15m-14.9 9.65q0.4-1.25 1.1-2.45 2.05-3.55 5.8-4.95l1.15-0.4 1.1-0.15-2.15 0.75q-3 1.45-4.8 4.55l-0.8 1.65-0.5 1.6-0.9-0.6m3.05 10.05h0.1l2.3-1.45-0.1 1 1.15 0.6-2.2 1.25-1.25-1.4m19.3-8.15-4.1 2.15-1.55-2.15 4.85-2.95 0.5 1.35 0.3 1.6m-7.5 14.4 0.05-0.1 2.5-0.9 1.6-0.9q1.95-1.4 3.35-3.4l2.25-1.3q-2.85 5.15-9.75 6.6" fill="#b18e01" fill-rule="evenodd"/>
<path d="m12.45 0.25 4.15 0.35 0.2 0.05-2.7 1.6-2.6-0.05-0.45 0.1v0.05l-1.1 0.15-1.15 0.4q-3.75 1.4-5.8 4.95-0.7 1.2-1.1 2.45l-1.95 1.55q0.2-1.85 1.05-3.7l0.3-0.6 0.35-0.65q1-1.7 2.3-3l1.15-0.95 0.25-0.25q0.9-0.6 1.9-1.1l0.95-0.35 1.6-0.55v-0.05l0.25-0.05 2.4-0.35m-5.9 24.95 2.35-0.9q3.15 1.15 6.5 0.4l0.45-0.1q4.55-1.25 6.9-5.35l0.3-0.55 3.1-1.2-1.3 2.8-0.6 1q-1.4 2-3.35 3.4l-1.6 0.9-2.5 0.9-0.1 0.05-1.3 0.3q-3.4 0.6-6.5-0.5l-0.6-0.25-0.65-0.25-0.95-0.55-0.15-0.1m19.85-14.15v0.1h-0.1l0.1-0.1m-7.95 0.9 0.05 0.05v0.05l-0.05-0.1" fill="#fc0" fill-rule="evenodd"/>
<path d="m16.8 0.65 0.25 0.15 1.6 0.55 1.3 0.65 1.4 0.95 0.2 0.2 0.15 0.1-1.8 1.35-1.3-0.9q-2.2-1.25-4.5-1.45l2.7-1.6m-16.85 11.2 1.95-1.55q-0.9 3-0.05 6.2l0.15 0.5-1.5 0.8-0.05-0.25-0.15-0.4v-0.05l-0.3-1.45-0.15-1.25-0.05-0.55 0.1-1.6 0.05-0.4m9.1-6.45 0.1-0.6 4.6 0.1-0.7 4.45-4.9 3.45 0.9-7.4" fill="#fee689" fill-rule="evenodd"/>
<path d="m13.6 2.4 0.5-0.15q2.3 0.2 4.5 1.45l1.3 0.9-5.4 3.75 0.6-3.7-4.65-0.1 3.15-2.15m-10.8 8.5 0.5-1.6 5.75-3.9-0.9 7.4-5.15 3.5q-0.75-2.75-0.2-5.4" fill="#fdd535" fill-rule="evenodd"/>
<path d="m11.5 2.2 2.6 0.05-0.5 0.15-3.15 2.15h-0.1l-1.2 0.25-0.1 0.6-5.75 3.9 0.8-1.65q1.8-3.1 4.8-4.55l2.15-0.75h0.05l0.4-0.15" fill="#ecbd02" fill-rule="evenodd"/>
<path d="m10.45 4.55 4.65 0.1-0.6 3.7-0.15 0.95-1.45 0.75 0.15-0.7 0.7-4.45-4.6-0.1 1.2-0.25h0.1m7.1 8.3-0.4-0.65 3.95-2.9-2.75-2.1 1.35-0.25 2.75 2.1-4 2.9 0.05 0.1v-0.05l0.1 0.2 1.55 2.15 2.15 3.1-4.1 2.55-1.35 0.25 4.15-2.55-1.9-2.8-1.55-2.05m-4.95 5.45 0.8-2.05 0.9 1-0.1 0.25-1.65 4.3-1.35 0.25 1.4-3.75m-8.5 2.55 0.85-0.5 1.25 1.4 0.3 0.2-1 0.35-0.15-0.2-1.25-1.25m21.4-12.7 1.6-0.35 0.05 0.1q0.6 1.3 0.85 2.65l-1.6 0.5-0.2-0.9-0.2-0.5-0.5-1.5" fill="#6d5701" fill-rule="evenodd"/>
<path d="m14.5 8.35 5.4-3.75q2.4 1.8 3.55 4.65l-4.85 2.95-0.1-0.2-0.05-0.05 4-2.9-2.75-2.1-1.35 0.25-4 2.1 0.15-0.95m-6.35 4.45-0.8 6.1-2.3 1.45h-0.1q-1.15-1.55-1.8-3.5l-0.15-0.55 5.15-3.5" fill="#fdd124" fill-rule="evenodd"/>
<path d="m13.05 9.35-0.15 0.7 1.45-0.75 4-2.1 2.75 2.1-3.95 2.9 0.4 0.65-10.2 6.05 0.8-6.1 4.9-3.45m-10.7 12.15-1.3-2.3-0.55-1.4 1.5-0.8q0.7 2.2 2.1 3.85l-1.75 0.65m17.55-16.9 1.8-1.35q1.3 1 2.25 2.3 0.9 1.15 1.55 2.6l-2.05 1.1q-1.15-2.85-3.55-4.65" fill="#fedb4e" fill-rule="evenodd"/>
<path d="m21.55 3.15 2.05-0.05 0.1 0.15q2.3 2.1 3.4 4.55l-1.6 0.35q-0.65-1.45-1.55-2.6-0.95-1.3-2.25-2.3l-0.15-0.1m-18.55 13.15 0.15 0.55-1.15 0.15-0.15-0.5q-0.85-3.2 0.05-6.2l0.9 0.6q-0.55 2.65 0.2 5.4" fill="#d2a902" fill-rule="evenodd"/>
<path d="m7.35 18.9 10.2-6.05 1.55 2.05-4.7 2.5-0.1-0.15-0.9-1-0.8 2.05-4.2 2.2-1.15-0.6 0.1-1m-3.7 4.15-1.3-1.55 1.75-0.65 1.25 1.25-1.7 0.95m20.6-10.85-0.3-1.6-0.5-1.35 2.05-1.1 0.5 1.5 0.2 0.5 0.2 0.9-0.1 0.1-2.05 1.05" fill="#987901" fill-rule="evenodd"/>
<path d="m3.15 16.85q0.65 1.95 1.8 3.5l-0.85 0.5q-1.4-1.65-2.1-3.85l1.15-0.15m2.35 5.45 1-0.35q0.75 0.7 1.8 1.25l1.45 0.8q2.7 1.1 5.65 0.7-3.35 0.75-6.5-0.4l-1.7-0.85-1.7-1.15m22.5-11.75 0.05 0.1q0.45 2.55-0.15 5.45l-1.75 1.4q0.7-2.4 0.45-4.9l-0.2-1.45v-0.1l1.6-0.5" fill="#876b01" fill-rule="evenodd"/>
<path d="m6.2 21.75 2.2-1.25 2.8 1.55 1.35-0.25 1.65-4.3 0.2-0.1 2.45 2.85 1.35-0.25 4.1-2.55-2.15-3.1 4.1-2.15q0.4 3.35-1.2 6.5l-13.3 5.3-1.45-0.8q-1.05-0.55-1.8-1.25l-0.3-0.2" fill="#caa202" fill-rule="evenodd"/>
<path d="m8.4 20.5 4.2-2.2-1.4 3.75-2.8-1.55m6-3.1 4.7-2.5 1.9 2.8-4.15 2.55-2.45-2.85m-9.05 4.7 0.15 0.2 1.7 1.15 1.7 0.85-2.35 0.9-2.9-2.15 1.7-0.95m17.7-3.4q1.6-3.15 1.2-6.5l2.05-1.05h0.1l0.2 1.45q0.25 2.5-0.45 4.9l-3.1 1.2" fill="#f4c402" fill-rule="evenodd"/>
<path d="m14.3 17.25 0.1 0.15-0.2 0.1 0.1-0.25m-4.55 6.75 13.3-5.3-0.3 0.55q-2.35 4.1-6.9 5.35l-0.45 0.1q-2.95 0.4-5.65-0.7" fill="#e3b602" fill-rule="evenodd"/>
<path d="m16.7 26.55 0.1-0.05-0.05 0.1-0.05-0.05m7.55-5.25 0.6-1 1.3-2.8 1.75-1.4v0.1l-0.25 0.9-1.15 2.9-2.25 1.3" fill="#cba301" fill-rule="evenodd"/>
<path d="m12.45 0.25 4.15 0.35 0.2 0.05 0.25 0.15 1.6 0.55 1.3 0.65 1.4 0.95 0.2 0.2m-21.6 8.7 1.95-1.55q0.4-1.25 1.1-2.45 2.05-3.55 5.8-4.95l1.15-0.4 1.1-0.15v-0.05m0.45-0.1 2.6 0.05-0.5 0.15m6.3 2.2-1.3-0.9q-2.2-1.25-4.5-1.45m-12.2 8.05q-0.9 3-0.05 6.2l0.15 0.5q0.7 2.2 2.1 3.85l-1.75 0.65-0.6 0.2m-1.85-9.45 0.05-0.4m0.55 5.95 1.5-0.8m3.5 5.3-0.15-0.2-1.7 0.95m2.9 2.15 2.35-0.9-1.7-0.85-1.7-1.15m-0.15-0.2-1.25-1.25m18.95-2.15q1.6-3.15 1.2-6.5m-7.45 14.3-0.1 0.05m0.1-0.05 2.5-0.9 1.6-0.9q1.95-1.4 3.35-3.4l0.6-1 1.3-2.8m-3.1 1.2-0.3 0.55q-2.35 4.1-6.9 5.35l-0.45 0.1q-3.35 0.75-6.5-0.4m12.8-21.05-0.15-0.1m0.15 0.1q1.3 1 2.25 2.3 0.9 1.15 1.55 2.6m0.9 2.9v0.1l0.2 1.45q0.25 2.5-0.45 4.9m-2.7-8.25 0.5 1.35 0.3 1.6m2.05-1.05 0.1-0.1-0.2-0.9-0.2-0.5-0.5-1.5m-2.05 1.1q-1.15-2.85-3.55-4.65m6.4 6.55h0.1" fill="none" stroke="#ff0" stroke-linecap="round" stroke-linejoin="round" stroke-opacity=".47843" stroke-width=".5"/>
<path d="m23.6 3.1-0.4-0.35q-1.95-1.3-3.95-1.95-3.35-1.25-6.8-0.55l-2.4 0.35-0.25 0.05v0.05l-1.6 0.55-0.95 0.35q-1 0.5-1.9 1.1l-0.25 0.25-1.15 0.95q-1.3 1.3-2.3 3l-0.35 0.65-0.3 0.6q-0.85 1.85-1.05 3.7m10.5-7.3 4.65 0.1-0.6 3.7m-3.45-6h0.05m-1.95 2.45 1.2-0.25h0.1m2.45 5.5 1.45-0.75 0.15-0.95m-5.45-2.95 0.1-0.6m-1 8-0.8 6.1-0.1 1 1.15 0.6 2.8 1.55 1.35-0.25 1.65-4.3 0.1-0.25 0.1 0.15m3.95-10.2-4 2.1m-5.3-3.9-0.9 7.4m5.25 3.45 0.9 1m-13.8 0.55-0.05-0.25-0.15-0.4v-0.05l-0.3-1.45-0.15-1.25-0.05-0.55 0.1-1.6m2.45 9.25-1.3-2.3-0.55-1.4m3.15 5.25-1.3-1.55m1.3 1.55 2.9 2.15m10.3-4.95-2.45-2.85m5.75-3.05 2.15 3.1-4.1 2.55-1.35 0.25m-1.45 6.6 1.35-0.25q6.9-1.45 9.75-6.6m-11.1 6.85q-3.4 0.6-6.5-0.5l-0.6-0.25-0.65-0.25-0.95-0.55-0.15-0.1m21.45-14.65 0.05 0.1q0.45 2.55-0.15 5.45v0.1l-0.25 0.9-1.15 2.9m0.6-12.2q-1.1-2.45-3.4-4.55l-0.1-0.15m3.5 4.7 0.05 0.1q0.6 1.3 0.85 2.65m-9.55 1.4 4-2.9-2.75-2.1-1.35 0.25m0.1 4.75 0.05 0.05 0.1 0.2m-0.1-0.2v0.05m1.65 2.3-1.55-2.15" fill="none" stroke="#000" stroke-linecap="round" stroke-linejoin="round" stroke-opacity=".50196" stroke-width=".5"/>
</g>
</defs>
</svg>
