<?xml version="1.0" encoding="UTF-8"?>
<svg version="1.1" viewBox="0 0 131.05 73.65" xmlns="http://www.w3.org/2000/svg" xmlns:cc="http://creativecommons.org/ns#" xmlns:dc="http://purl.org/dc/elements/1.1/" xmlns:rdf="http://www.w3.org/1999/02/22-rdf-syntax-ns#" xmlns:xlink="http://www.w3.org/1999/xlink">
<metadata>
<rdf:RDF>
<cc:Work rdf:about="">
<dc:format>image/svg+xml</dc:format>
<dc:type rdf:resource="http://purl.org/dc/dcmitype/StillImage"/>
</cc:Work>
</rdf:RDF>
</metadata>
<g transform="translate(-229.08 -173.68)">
<use transform="translate(229.1,173.7)" width="131" height="73.599998" xlink:href="#a"/>
</g>
<defs>
<g id="a" transform="translate(-229.1,-173.7)">
<path d="m357.65 192.9q-9.35-5.2-18.85-8.55-9.6-3.75-20.35-6.15l-3.85-0.85 0.05-0.75 3.85 0.8q10.8 2.35 19.7 5.5 11.1 3.85 21.55 9.6l-1.5 0.15-0.1-0.05 0.05 0.1 0.05 0.05-0.6 0.15m-26.45 19.2 1.7-0.35 3.2 1.5-1.55 0.3-3.7 0.75q0.45-1.25 0.35-2.2m-98.1-13.95q-0.5-6.65 3.5-8.25l0.95 0.55q-3.95 1.9-2.7 9.65l-1.75-1.95m12.1-13.5 3.25-1.25q0.3-0.2 0.6 0.65l-3.75 1.5-0.1-0.9m10.9-3.35 14.3-3.5 0.5 0.75-12.95 3.45-1.6 0.4-0.25-1.1m21.25-4.75 3.65-0.55q13.15-1.75 24.8 0.1l0.05 0.9q-12.05-2.25-24.55-0.25l-3.65 0.65-0.3-0.85" fill="#03b1dc" fill-rule="evenodd"/>
<path d="m318.85 237.4 5.05-7.35 2.6-1.75q19.95-12.3 8.05-14.75l1.55-0.3 0.4-0.1q7.25-1.45 7.7-1.8 0.45-0.4 6.1-2.85t9.65-12.8l-1.95 15q-5.9 11.75-17.2 16.95-9.8 3.2-19.55 9.75h-2.4m-69-20.45 0.5-0.05q0.9 0 1.55 0.9t0.65 2.2-0.65 2.2v0.05q-0.65 0.85-1.55 0.9-0.85-0.05-1.45-0.75-0.25-1.2-0.1-2.35 0.15-1.55 1.05-3.1m11.4 3.85 0.05-0.05 0.75-0.15q1.05 0 1.8 1.05 0.7 1 0.7 2.45t-0.7 2.5q-0.75 1-1.8 1t-1.75-1l-0.15-0.25q-0.4-2.8 1.1-5.55m11.9 2.6 0.95 0.8q0.9 1.05 0.9 2.55 0 1.45-0.9 2.55-0.9 1.05-2.2 1.05t-2.2-1.05l-0.2-0.25q-0.55-2.55 1.15-5.65 0.55-0.3 1.25-0.25l0.6 0.05 0.65 0.2m-33.35-8.3 0.35-1.15 0.2-0.7 0.5-0.1q0.75 0 1.25 0.85l0.5 1.7v0.3l-2.8-0.9" fill="#01aff1" fill-rule="evenodd"/>
<path d="m354.75 200.1q3.5-4 2.9-7.2l0.6-0.15-0.05-0.05 0.05-0.05 1.5-0.15h-0.1q0.7 1.05 0.3 3.2-4 10.35-9.65 12.8t-6.1 2.85q-0.45 0.35-7.7 1.8l-0.4 0.1-3.2-1.5 3.05-0.7q11.3-2.45 18.8-10.95m-124.8-0.7q-0.3-0.6-0.4-1.6l-0.35-1.4-0.05-0.15-0.05-0.2q2.15-2.5 2.6 0l1.4 2.1 1.75 1.95 3.7 4.1q11.75 8.8 29.65 11.95l2.25 0.2v0.05l0.8 0.3q-1 0.7-0.5 1.85l0.05 0.15q-23.8-2.85-40.85-19.3" fill="#81dcfe" fill-rule="evenodd"/>
<path d="m343.5 195.95-4.7-11.6q9.5 3.35 18.85 8.55 0.6 3.2-2.9 7.2-5.75-2.25-11.25-4.15m14.75-3.3-0.05 0.05-0.05-0.1 0.1 0.05" fill="#05bafe" fill-rule="evenodd"/>
<path d="m338.8 184.35 4.7 11.6q-13.35-4.6-25.55-7.45l0.5-10.3q10.75 2.4 20.35 6.15m-80.85-2.35 12.95-3.45h0.05l3.8 11.55-0.5 0.05v-0.05l-0.2 0.05-10.8 2.65-5.3-10.8m23.35-5.25q12.5-2 24.55 0.25l0.8 9.85q-10.45-1.5-21.25 0.45l-4.1-10.55" fill="#018cc0" fill-rule="evenodd"/>
<path d="m236.6 189.9v-5q3.25-1.6 6.55-3.15l1 0.45-6 3.2-0.2 4.8 3 12.7h-1.1l-2.3-12.45-0.95-0.55m11.85-6.5v-2.7l1.95 0.55-0.35 0.1-0.15 1.7 1.6 15.4-1.3-1.85q-0.35-10.25-1.15-12.55-0.3-0.85-0.6-0.65m21.95-5.6v-1.95l0.25-0.1 1.6 0.9-0.35 1.3 5.1 15.3-1 0.35-1.75-3.45 0.5-0.05-3.8-11.55h-0.05l-0.5-0.75" fill="#eaeaea" fill-rule="evenodd"/>
<path d="m242.85 188.05-0.7 0.25q-0.25 0.15-0.35 0.45-0.1 0.4 0.1 0.8 0.65 0.95 1.65 0.3l0.25-0.45 0.1-0.35-0.15-0.45-0.2-0.3-0.3-0.15-0.4-0.15v0.05m-1.55 2.8q-0.55-0.6-0.55-1.5t0.55-1.5q0.5-0.65 1.3-0.6 0.75-0.05 1.3 0.6 0.55 0.6 0.55 1.5t-0.55 1.5q-0.55 0.65-1.3 0.65-0.8 0-1.3-0.65m0.6 5.65q-0.05-0.7 0.3-1.15t0.85-0.45q0.45 0 0.8 0.45l0.35 1.15-0.35 1.1q-0.35 0.45-0.8 0.45-0.5 0-0.85-0.45t-0.3-1.1m13.15-11.65q0.5 0.75 0.5 1.8t-0.5 1.8q-0.6 0.75-1.35 0.75t-1.3-0.75-0.55-1.8 0.55-1.8 1.3-0.75 1.35 0.75m-1 0.5-0.7 0.25q-0.25 0.15-0.35 0.45-0.1 0.4 0.1 0.8 0.65 0.95 1.6 0.3l0.3-0.45 0.1-0.3-0.15-0.5-0.25-0.3-0.25-0.15-0.4-0.15v0.05m2.55 8.85q-0.45 0.4-1 0.45-0.6-0.05-1.05-0.45-0.4-0.4-0.4-1t0.4-1q0.45-0.4 1.05-0.4 0.55 0 1 0.4 0.4 0.4 0.4 1t-0.4 1m18.65-10.95q-0.55-0.55-0.55-1.3 0-0.8 0.55-1.3 0.5-0.55 1.3-0.55 0.75 0 1.3 0.55 0.5 0.5 0.55 1.3-0.05 0.75-0.55 1.3-0.55 0.55-1.3 0.55-0.8 0-1.3-0.55m4 3.7 0.3 0.85-0.3 0.8-0.7 0.35q-0.4-0.05-0.7-0.35-0.3-0.35-0.3-0.8 0-0.5 0.3-0.85t0.7-0.3q0.4-0.05 0.7 0.3m31.45-8.5q0.5 0.7 0.5 1.65t-0.5 1.6-1.2 0.7q-0.7-0.05-1.2-0.7-0.55-0.65-0.5-1.6-0.05-0.95 0.5-1.65 0.5-0.65 1.2-0.65t1.2 0.65m-0.2 8.6q0.4 0.4 0.4 1t-0.4 1.05q-0.4 0.4-1 0.4t-1-0.4q-0.45-0.45-0.4-1.05-0.05-0.6 0.4-1 0.4-0.4 1-0.4t1 0.4" fill="#cde2cb" fill-rule="evenodd"/>
<path d="m242.85 188.05v-0.05l0.4 0.15 0.3 0.15 0.2 0.3 0.15 0.45-0.1 0.35-0.25 0.45q-1 0.65-1.65-0.3-0.2-0.4-0.1-0.8 0.1-0.3 0.35-0.45l0.7-0.25m11.2-2.7v-0.05l0.4 0.15 0.25 0.15 0.25 0.3 0.15 0.5-0.1 0.3-0.3 0.45q-0.95 0.65-1.6-0.3-0.2-0.4-0.1-0.8 0.1-0.3 0.35-0.45l0.7-0.25m43.05 40.5 0.7 1.5-0.4 0.55-26.65-9.35q-0.5-1.15 0.5-1.85l25.85 9.15m-1.1 3.95-0.9 1.25-20.75-7.2q-0.8-1.85 0.6-1.9l21.05 7.85m-2.3 3.3-1.3 1.75-8.8-2.25q-5.3-4.25 0.65-2.8l9.45 3.3m-23.5-21.25 25 9.8 0.55 1.25-26.2-9.6q0.1-0.85 0.65-1.45" fill="#f2f5ef" fill-rule="evenodd"/>
<path d="m244.15 182.2 1.05 2.45 0.1 0.9 1.85 12.25v1.85l-4.65 3.25h-1.55l-3-12.7 0.2-4.8 6-3.2m11.95-2.4v1.5l0.25 1.1 2.3 11.55v2.8l-7.05 1.85-0.1-0.15-1.6-15.4 0.15-1.7 0.35-0.1 0.55-0.15 5.15-1.3m-14.8 11.05q0.5 0.65 1.3 0.65 0.75 0 1.3-0.65 0.55-0.6 0.55-1.5t-0.55-1.5q-0.55-0.65-1.3-0.6-0.8-0.05-1.3 0.6-0.55 0.6-0.55 1.5t0.55 1.5m0.6 5.65q-0.05 0.65 0.3 1.1t0.85 0.45q0.45 0 0.8-0.45l0.35-1.1-0.35-1.15q-0.35-0.45-0.8-0.45-0.5 0-0.85 0.45t-0.3 1.15m13.15-11.65q-0.6-0.75-1.35-0.75t-1.3 0.75-0.55 1.8 0.55 1.8 1.3 0.75 1.35-0.75q0.5-0.75 0.5-1.8t-0.5-1.8m1.55 9.35q0.4-0.4 0.4-1t-0.4-1q-0.45-0.4-1-0.4-0.6 0-1.05 0.4-0.4 0.4-0.4 1t0.4 1q0.45 0.4 1.05 0.45 0.55-0.05 1-0.45m44.5 40.25q5.7 3.15 1.85 3.8l-7.5 0.6 1.95-4.7 3.7 0.3" fill="#828282" fill-rule="evenodd"/>
<path d="m248.45 180.7v-0.25l6.15-1.3 1.5 0.55v0.1l-5.15 1.3-0.55 0.15-1.95-0.55m22.2-4.95 4.9-1.25 1.05 0.55 0.05 0.1-4.35 1.45-0.05 0.05-1.6-0.9m35.15 0.35-0.05-1.25 8.85-0.2 0.05 0.05v1.9l-0.05 0.75-0.85 10.2v4.25l-0.1 0.15-7-1.15v-3.95l-0.8-9.85-0.05-0.9m4.9 2.35q-0.5-0.65-1.2-0.65t-1.2 0.65q-0.55 0.7-0.5 1.65-0.05 0.95 0.5 1.6 0.5 0.65 1.2 0.7 0.7-0.05 1.2-0.7t0.5-1.6-0.5-1.65m-0.2 8.6q-0.4-0.4-1-0.4t-1 0.4q-0.45 0.4-0.4 1-0.05 0.6 0.4 1.05 0.4 0.4 1 0.4t1-0.4q0.4-0.45 0.4-1.05t-0.4-1" fill="#a0a0a0" fill-rule="evenodd"/>
<path d="m318.45 178.2-0.5 10.3-3.2-0.75-1-0.2 0.85-10.2 3.85 0.85m-80.9 12.25 2.3 12.45-1.3 1.3-3.7-4.1q-1.25-7.75 2.7-9.65m18.8-8.05 1.6-0.4 5.3 10.8-4.6 1.15-2.3-11.55m-11.05 3.15 3.75-1.5q0.8 2.3 1.15 12.55l-3.05 1.2-1.85-12.25m32.35-8.15 3.65-0.65 4.1 10.55-3.6 0.7-4.15-10.6" fill="#02738e" fill-rule="evenodd"/>
<path d="m326.9 220.7q0.85-0.45 1.75-0.85 3.2-3.35 1.25-4.65l0.7-0.35 0.25-0.55 3.7-0.75q11.9 2.45-8.05 14.75l-2.6 1.75-5.05 7.35h-4.95l1.45-1.45 3.9-3.75q5.2-4.95-0.55-3.15l7.3-3.05q3.05-5.3 0.9-5.3m-37.1 17.8-0.45 0.65h-5.15l-14.6-6.05 20.2 5.4m-59.45-37.55-0.4-1.55q17.05 16.45 40.85 19.3l0.75 1.1q-23.55-2-40.9-18.95l-0.3 0.1" fill="#019ad3" fill-rule="evenodd"/>
<path d="m290.15 238-0.35 0.5-20.2-5.4-6.4-1.1-7-6.75-4.3-3v-0.05q0.65-0.9 0.65-2.2t-0.65-2.2-1.55-0.9l-0.5 0.05-1.1 0.85q-0.55 0.75-0.65 1.75l-5.35-3.75-0.1 0.2h-0.05v-0.3l-0.5-1.7q-0.5-0.85-1.25-0.85l-0.5 0.1-0.55 0.45-7.05-4.95-2.4-7.8 0.3-0.1q17.35 16.95 40.9 18.95l1.45 1.4 1.95 0.75q-1.4 0.05-0.6 1.9 0.55 1.2 2.05 3.25l7.85 2.7q-5.95-1.45-0.65 2.8l0.4 0.35 6.15 5.05m-28.9-17.2q-0.55 0.25-0.95 0.85-0.75 1-0.75 2.45 0 1.3 0.6 2.25l0.15 0.25q0.7 1 1.75 1t1.8-1q0.7-1.05 0.7-2.5t-0.7-2.45q-0.75-1.05-1.8-1.05l-0.75 0.15-0.05 0.05m8.25 8.25 0.2 0.25q0.9 1.05 2.2 1.05t2.2-1.05q0.9-1.1 0.9-2.55 0-1.5-0.9-2.55l-0.95-0.8-0.65-0.2-0.6-0.05q-0.7-0.05-1.25 0.25-0.55 0.25-0.95 0.8-0.95 1.05-0.9 2.55 0 1.3 0.7 2.3" fill="#6cf" fill-rule="evenodd"/>
<path d="m248.1 219.55q0.1-1 0.65-1.75l1.1-0.85q-0.9 1.55-1.05 3.1-0.15 1.15 0.1 2.35l-0.15-0.2q-0.65-0.9-0.65-2.2v-0.45m-8.35-1.3-0.15-0.2q-0.5-0.85-0.5-2.05 0-0.6 0.15-1.1 0.1-0.5 0.35-0.9l0.2-0.3 0.55-0.45-0.2 0.7-0.35 1.15q-0.45 1.8-0.05 3.15m20.4 8.1q-0.6-0.95-0.6-2.25 0-1.45 0.75-2.45 0.4-0.6 0.95-0.85-1.5 2.75-1.1 5.55m9.35 2.7q-0.7-1-0.7-2.3-0.05-1.5 0.9-2.55 0.4-0.55 0.95-0.8-1.7 3.1-1.15 5.65" fill="#026d88" fill-rule="evenodd"/>
<path d="m263.2 232q-12-2.6-21.75-8.95-4.55-2.45-8.7-14.3l7.05 4.95-0.2 0.3q-0.25 0.4-0.35 0.9-0.15 0.5-0.15 1.1 0 1.2 0.5 2.05l0.15 0.2 1.1 0.65q0.75-0.05 1.25-0.85 0.5-0.85 0.5-2.05 0 1.2-0.5 2.05-0.5 0.8-1.25 0.85l-1.1-0.65q-0.4-1.35 0.05-3.15l2.8 0.9h0.05l0.1-0.2 5.35 3.75v0.45q0 1.3 0.65 2.2l0.15 0.2q0.6 0.7 1.45 0.75 0.9-0.05 1.55-0.9l4.3 3 7 6.75" fill="#9cdfff" fill-rule="evenodd"/>
<path d="m276.65 175.15 0.7 1.4 0.3 0.85 4.15 10.6v3.6l-4.8 1.65-5.1-15.3 0.35-1.3 0.05-0.05 4.35-1.45m-1.4 8.1q0.5 0.55 1.3 0.55 0.75 0 1.3-0.55 0.5-0.55 0.55-1.3-0.05-0.8-0.55-1.3-0.55-0.55-1.3-0.55-0.8 0-1.3 0.55-0.55 0.5-0.55 1.3 0 0.75 0.55 1.3m4 3.7q-0.3-0.35-0.7-0.3-0.4-0.05-0.7 0.3t-0.3 0.85q0 0.45 0.3 0.8 0.3 0.3 0.7 0.35l0.7-0.35 0.3-0.8-0.3-0.85m17.55 29.2 3.55 2.55 0.35 0.05 0.4 0.05v13.65l-4.7-13.95-0.25-0.85-3.85-1.45v-0.05h4.5m1.45 4.4q-0.15 0.4 0.05 0.85 0.7 1.05 1.8 0.35l0.35-0.55 0.1-0.3-0.2-0.55-0.25-0.35-0.3-0.15-0.45-0.15v0.05l-0.75 0.25q-0.25 0.2-0.35 0.55m2.1-1.85-3.95-0.2 3.95 0.2" fill="#979797" fill-rule="evenodd"/>
<path d="m308.55 216.15 22.2-10.35 0.95-0.1h0.55q1.6 0.1 1.75 1.75v0.5l-0.5 2.25-3.1 0.05 0.35 0.45q0.4 0.6 0.45 1.4 0.1 0.95-0.35 2.2l-0.25 0.55-0.7 0.35q1.95 1.3-1.25 4.65-0.9 0.4-1.75 0.85-7.25 3.25-14.45 6.55 2.5-2.5 0.4-4.4l0.7-0.55q8.45-4.75 9.65-8.55l-16.1 7.7-1.35 4.25-0.5 1.5 2 2.4 2.65 3.15 3.9 4.75 2.95 3.5 0.4 2.6q0.2 3.15-1.5 3.25l-1.05-0.2q1.4-0.85 1.2-3.05l-7.25-9.85-2.15 0.25-4.2 0.55 3.4-16.3 0.15-0.8 2.8-1.3m10.15 12.9q5.75-1.8 0.55 3.15l-3.9 3.75q0.05-3.9-3.4-4l0.05-0.05 6.55-2.8h0.05l0.1-0.05m11.7-18.8-7.2 3.5 7.2-3.5m-0.5 4.95-16.35 7.1 16.35-7.1m-37.65 1h0.05l3.85 1.45 0.25 0.85 4.7 13.95 0.7 2.05-0.7-0.05-3.7-0.3-1.95 4.7-2.8 6.85-0.1 0.05q-2 1.5-3.15 1.55-1.8 0-1.9-3.15-0.1-1.15 0.1-2.6l1.75-2.4 0.45-0.65 0.35-0.5-6.15-5.05-0.4-0.35 8.8 2.25 1.3-1.75 1.4-2.05-1.4 2.05-9.45-3.3-7.85-2.7q-1.5-2.05-2.05-3.25l20.75 7.2 0.9-1.25 1.4-1.9-1.4 1.9-21.05-7.85-1.95-0.75-1.45-1.4-0.75-1.1-0.05-0.15 26.65 9.35 0.4-0.55-0.7-1.5-1.35-2.95 1.35 2.95-25.85-9.15-0.8-0.3v-0.05q-1.1-1.75-0.9-3.05l26.2 9.6-0.55-1.25-25-9.8-3.15 0.1q-0.85-1.7-0.8-2.7-0.15-1.85 2.05-1.85l1 0.05 22.95 8.75m-2.1 21.8 2.25-3.15-2.25 3.15" fill="#fff" fill-rule="evenodd"/>
<path d="m308.55 216.15-2.8 1.3-0.15 0.8q-2.3 0.75-4.9 0.5 2.6 0.25 4.9-0.5l-3.4 16.3 4.2-0.55 2 3.8-5.45 0.45q3.85-0.65-1.85-3.8l0.7 0.05-0.7-2.05v-13.65l-0.4-0.05-0.35-0.05-3.55-2.55h11.75m-16.25 0.05-0.05-0.05h0.05v0.05" fill="#c5c5c5" fill-rule="evenodd"/>
<path d="m305.75 174.85v-0.1l1.75-1.05h6.3l0.8 0.95h0.05v0.05l-0.05-0.05-8.85 0.2m8 16.95v-4.25l1 0.2-0.2 3.2-0.8 0.85v0.15h-0.1l0.1-0.15" fill="#808080" fill-rule="evenodd"/>
<path d="m315.35 235.95-1.55 1.55-3.9-4.75-2.65-3.15-2-2.4 0.5-1.5 1.35-4.25 16.1-7.7q-1.2 3.8-9.65 8.55l-0.7 0.55q2.1 1.9-0.4 4.4l-5.2 2.35 5.2-2.35q1.7 1.6-0.45 4.65l-0.05 0.05q3.45 0.1 3.4 4m-8.95-1.95 2.15-0.25 7.25 9.85q0.2 2.2-1.2 3.05-0.95-0.35-2.25-1.2l-0.05-0.1-3.9-7.55-2-3.8m3.5-1.25 2.1-0.85-2.1 0.85m-4.15-7.05 7.8-3.4-7.8 3.4" fill="#e6f9ff" fill-rule="evenodd"/>
<path d="m298.25 220.55q0.1-0.35 0.35-0.55l0.75-0.25v-0.05l0.45 0.15 0.3 0.15 0.25 0.35 0.2 0.55-0.1 0.3-0.35 0.55q-1.1 0.7-1.8-0.35-0.2-0.45-0.05-0.85" fill="#cbcbcb" fill-rule="evenodd"/>
<path d="m343.5 195.95q5.5 1.9 11.25 4.15 3.5-4 2.9-7.2-9.35-5.2-18.85-8.55-9.6-3.75-20.35-6.15m-0.5 10.3q12.2 2.85 25.55 7.45m16.45-0.25q0.4-2.15-0.3-3.2m-45-15.9 3.85 0.8q10.8 2.35 19.7 5.5 11.1 3.85 21.55 9.6m-51.2 23.65 22.2-10.35 0.95-0.1h0.55q1.6 0.1 1.75 1.75v0.5l-0.5 2.25-3.1 0.05 0.35 0.45q0.4 0.6 0.45 1.4l1.7-0.35 3.05-0.7q11.3-2.45 18.8-10.95m-23.9 14.2-0.25 0.55-0.7 0.35q1.95 1.3-1.25 4.65-0.9 0.4-1.75 0.85 2.15 0-0.9 5.3l-7.3 3.05q5.75-1.8 0.55 3.15l-3.9 3.75-1.45 1.45h4.95m15.7-23.85-3.7 0.75q0.45-1.25 0.35-2.2m3.35 1.45 1.55-0.3 0.4-0.1q7.25-1.45 7.7-1.8 0.45-0.4 6.1-2.85t9.65-12.8l-1.95 15q-5.9 11.75-17.2 16.95-9.8 3.2-19.55 9.75h-2.4m-88.9-38q-0.3-0.6-0.4-1.6l-0.35-1.4-0.05-0.15-0.05-0.2q2.15-2.5 2.6 0l1.4 2.1q-0.5-6.65 3.5-8.25v-5q3.25-1.6 6.55-3.15l1 0.45m1.05 2.45 3.25-1.25v-2.95l6.15-1.3m1.5 0.55v0.1m0 1.5 14.3-3.5v-1.95l0.25-0.1 4.9-1.25m1.8 2.05 3.65-0.55q13.15-1.75 24.8 0.1l-0.05-1.25v-0.1m1.75-1.05h6.3m0.85 0.95v1.95l-0.05 0.75 3.85 0.85m-77.15 12.65q-0.55-0.6-0.55-1.5t0.55-1.5q0.5-0.65 1.3-0.6 0.75-0.05 1.3 0.6 0.55 0.6 0.55 1.5t-0.55 1.5q-0.55 0.65-1.3 0.65-0.8 0-1.3-0.65m-4.7-0.95 0.95 0.55 2.3 12.45h1.1m0.95-6.4q-0.05-0.7 0.3-1.15t0.85-0.45q0.45 0 0.8 0.45l0.35 1.15-0.35 1.1q-0.35 0.45-0.8 0.45-0.5 0-0.85-0.45t-0.3-1.1m14.45-14.1 1.6-0.4 12.95-3.45-0.5-0.75m-15.35 7.05q0.5 0.75 0.5 1.8t-0.5 1.8q-0.6 0.75-1.35 0.75t-1.3-0.75-0.55-1.8 0.55-1.8 1.3-0.75 1.35 0.75m-9.75 0.7 3.75-1.5q-0.3-0.85-0.6-0.65m-1.3 14.4 3.05-1.2q-0.35-10.25-1.15-12.55m7.55 10.15q-0.45 0.4-1 0.45-0.6-0.05-1.05-0.45-0.4-0.4-0.4-1t0.4-1q0.45-0.4 1.05-0.4 0.55 0 1 0.4 0.4 0.4 0.4 1t-0.4 1m21.05-16.8 3.65-0.65q12.5-2 24.55 0.25l-0.05-0.9m-29.15-0.95-0.05-0.1m-1.35 8.2q-0.55-0.55-0.55-1.3 0-0.8 0.55-1.3 0.5-0.55 1.3-0.55 0.75 0 1.3 0.55 0.5 0.5 0.55 1.3-0.05 0.75-0.55 1.3-0.55 0.55-1.3 0.55-0.8 0-1.3-0.55m-1 6.9 0.5-0.05-3.8-11.55h-0.05m8.35 8.4 0.3 0.85-0.3 0.8-0.7 0.35q-0.4-0.05-0.7-0.35-0.3-0.35-0.3-0.8 0-0.5 0.3-0.85t0.7-0.3q0.4-0.05 0.7 0.3m-5 3.2h-0.2l-10.8 2.65-4.6 1.15m15.4-3.8 0.2-0.05v0.05l1.75 3.45 1-0.35m33.7-14.8q0.5 0.7 0.5 1.65t-0.5 1.6-1.2 0.7q-0.7-0.05-1.2-0.7-0.55-0.65-0.5-1.6-0.05-0.95 0.5-1.65 0.5-0.65 1.2-0.65t1.2 0.65m3.05 13.35v-4.25l0.85-10.2m-4.1 9.7q0.4 0.4 0.4 1t-0.4 1.05q-0.4 0.4-1 0.4t-1-0.4q-0.45-0.45-0.4-1.05-0.05-0.6 0.4-1 0.4-0.4 1-0.4t1 0.4m3.15 4.9-7-1.15v-3.95q-10.45-1.5-21.25 0.45l-3.6 0.7m31.95 3.8v0.15h-0.1m1.1-4.2-1-0.2m1 0.2 3.2 0.75m-12.1-11.5 0.8 9.85m-1.05 31.4 0.15-0.8 2.8-1.3h-11.75m3.55 2.55 0.35 0.05q2.6 0.25 4.9-0.5l-3.4 16.3 4.2-0.55m8.2 12.65 1.05 0.2q1.7-0.1 1.5-3.25l-0.4-2.6-2.95-3.5-3.9-4.75-2.65-3.15-2-2.4 0.5-1.5 1.35-4.25 16.1-7.7 7.2-3.5m-16.85 12.05 16.35-7.1m-37.65 0.95v0.05h0.05l-0.05-0.05h4.55m4.3 16.3-4.7-13.95-0.25-0.85-3.85-1.45m8.8 2.6v13.65l0.7 2.05-0.7-0.05q5.7 3.15 1.85 3.8l5.45-0.45-2-3.8m-10-15.5 3.95 0.2m-4.6 4.2 1.35 2.95 0.7 1.5-0.4 0.55-1.4 1.9-0.9 1.25-1.4 2.05-1.3 1.75-2.25 3.15-0.35 0.5-0.45 0.65-1.75 2.4q-0.2 1.45-0.1 2.6 0.1 3.15 1.9 3.15 1.15-0.05 3.15-1.55l0.1-0.05 2.8-6.85 1.95-4.7 3.7 0.3m-17.5-1.85 0.4 0.35 6.15 5.05m-0.8 1.15h-5.15l-14.6-6.05-6.4-1.1q-12-2.6-21.75-8.95-4.55-2.45-8.7-14.3l-2.4-7.8-0.4-1.55q17.05 16.45 40.85 19.3l-0.05-0.15q-0.5-1.15 0.5-1.85l-0.8-0.3v-0.05l-2.25-0.2q-17.9-3.15-29.65-11.95l-3.7-4.1-1.75-1.95m69.85 40.1-7.5 0.6m-11.2-9.05 9.45 3.3m25-4.05-0.1 0.05h-0.05l-6.55 2.8-2.1 0.85m3.65-10.45-7.8 3.4m1.5 3.9 5.2-2.35q7.2-3.3 14.45-6.55m-12.3 25.95q-0.95-0.35-2.25-1.2l-0.05-0.1-3.9-7.55m5.5-0.4-0.1 0.1m-43.6-25.65 25 9.8 0.55 1.25m-26.2-9.6q-0.2 1.3 0.9 3.05m21.8-0.15-22.95-8.75-1-0.05q-2.2 0-2.05 1.85-0.05 1 0.8 2.7l3.15-0.1q-0.55 0.6-0.65 1.45m2 6.5-0.75-1.1m0.75 1.1 1.45 1.4 1.95 0.75 21.05 7.85m-46.15-12.85 0.5-0.05q0.9 0 1.55 0.9t0.65 2.2-0.65 2.2v0.05m-3.8-2.7q0.1-1 0.65-1.75l1.1-0.85q-0.9 1.55-1.05 3.1-0.15 1.15 0.1 2.35 0.6 0.7 1.45 0.75 0.9-0.05 1.55-0.9m-3 0.15-0.15-0.2q-0.65-0.9-0.65-2.2v-0.45m-5.5-3.55q0 1.2-0.5 2.05-0.5 0.8-1.25 0.85l-1.1-0.65-0.15-0.2q-0.5-0.85-0.5-2.05 0-0.6 0.15-1.1 0.1-0.5 0.35-0.9l0.2-0.3m20.35 12.65q-0.6-0.95-0.6-2.25 0-1.45 0.75-2.45 0.4-0.6 0.95-0.85l0.05-0.05 0.75-0.15q1.05 0 1.8 1.05 0.7 1 0.7 2.45t-0.7 2.5q-0.75 1-1.8 1t-1.75-1l-0.15-0.25q-0.4-2.8 1.1-5.55m13.1 3.05q0.55 1.2 2.05 3.25l7.85 2.7q-5.95-1.45-0.65 2.8m-10.45-9.2 0.95 0.8q0.9 1.05 0.9 2.55 0 1.45-0.9 2.55-0.9 1.05-2.2 1.05t-2.2-1.05l-0.2-0.25q-0.7-1-0.7-2.3-0.05-1.5 0.9-2.55 0.4-0.55 0.95-0.8 0.55-0.3 1.25-0.25l0.6 0.05m-1.85 0.2q-1.7 3.1-1.15 5.65m5.45-7.1q-1.4 0.05-0.6 1.9m-4.75 9.25 20.2 5.4m-18.55-21.8 25.85 9.15m-58.55-21.65 1.3-1.3m-9.2-2.05q17.35 16.95 40.9 18.95m-31.2-6.55-0.2 0.7-0.35 1.15q-0.45 1.8-0.05 3.15m2.85-2.25v-0.3l-0.5-1.7q-0.5-0.85-1.25-0.85l-0.5 0.1-0.55 0.45m10.4-17.1 1.3 1.85m-16.65 1.65q-1.25-7.75 2.7-9.65" fill="none" stroke="#000" stroke-linecap="round" stroke-linejoin="round" stroke-opacity=".30196" stroke-width=".05"/>
<path d="m244.15 182.2 1.05 2.45 0.1 0.9m9.3-6.4 1.5 0.55m0 0.1v1.5m19.45-6.8 1.05 0.55 0.15 0.1h-0.1l0.7 1.4 0.3 0.85m28.1-2.65 1.75-1.05m6.3 0 0.8 0.95h0.05m-73.7 28.25-3-12.7 0.2-4.8 6-3.2m12.2 0.2-0.25-1.1m-5.15-0.2 5.15-1.3m-4.6 18.65-1.6-15.4 0.15-1.7 0.35-0.1m1.1 17.2 0.1 0.15 7.05-1.85v-2.8l-2.3-11.55m-9.2 15.4-1.85-12.25m26.95-8.9 0.05-0.05 4.35-1.45m-4.4 1.5-0.35 1.3 5.1 15.3 4.8-1.65v-3.6l-4.15-10.6m36.95-2.75 0.05 0.05m-1 17.25 0.1-0.15 0.8-0.85 0.2-3.2m-9-12.9 8.85-0.2m-73.65 28.25h1.55l4.65-3.25v-1.85" fill="none" stroke="#000" stroke-linecap="round" stroke-linejoin="round" stroke-opacity=".30196" stroke-width=".05"/>
</g>
</defs>
</svg>
