<?xml version="1.0" encoding="UTF-8"?>
<svg width="54px" height="63px" version="1.1" viewBox="247.9 168.55 54.1 62.75" xmlns="http://www.w3.org/2000/svg" xmlns:xlink="http://www.w3.org/1999/xlink">
<defs>
<linearGradient id="l" x1="-819.2" x2="819.2" gradientTransform="matrix(-.012512 .01062 -.017639 -.01239 4 -13.55)" gradientUnits="userSpaceOnUse">
<stop stop-color="#e7ddbe" offset="0"/>
<stop stop-color="#d2bc8a" offset=".98824"/>
</linearGradient>
<linearGradient id="h" x1="-819.2" x2="819.2" gradientTransform="matrix(-.0020142 -.0035248 .0078735 -.0045166 17.3 -1.1)" gradientUnits="userSpaceOnUse">
<stop stop-color="#552b80" offset="0"/>
<stop stop-color="#261339" offset=".98824"/>
</linearGradient>
<linearGradient id="g" x1="-819.2" x2="819.2" gradientTransform="matrix(-.002594 .0097961 -.017868 -.0047302 -12.2 1.55)" gradientUnits="userSpaceOnUse">
<stop stop-color="#9662ca" offset="0"/>
<stop stop-color="#a67ccf" offset=".98824"/>
</linearGradient>
<linearGradient id="f" x1="-819.2" x2="819.2" gradientTransform="matrix(0 -.0030518 .0042419 0 -21.1 -5.15)" gradientUnits="userSpaceOnUse">
<stop stop-color="#4a2570" offset="0"/>
<stop stop-color="#261339" offset=".98824"/>
</linearGradient>
<linearGradient id="e" x1="-819.2" x2="819.2" gradientTransform="matrix(-.0020752 -.0077057 .0063477 -.001709 -19.65 .75)" gradientUnits="userSpaceOnUse">
<stop stop-color="#639" offset="0"/>
<stop stop-color="#4a2570" offset=".98824"/>
</linearGradient>
<linearGradient id="d" x1="-819.2" x2="819.2" gradientTransform="matrix(.0066223 .0037994 -.00354 .0061798 -8.05 19.65)" gradientUnits="userSpaceOnUse">
<stop stop-color="#afbc76" offset="0"/>
<stop stop-color="#9fae59" offset=".98824"/>
</linearGradient>
<linearGradient id="c" x1="-819.2" x2="819.2" gradientTransform="matrix(-.0063934 -.0046692 .001236 -.001709 -14.8 23.35)" gradientUnits="userSpaceOnUse">
<stop stop-color="#ccd995" offset="0"/>
<stop stop-color="#e7ecce" offset=".98824"/>
</linearGradient>
<linearGradient id="b" x1="-819.2" x2="819.2" gradientTransform="matrix(.0059509 0 0 .004425 8.45 22.8)" gradientUnits="userSpaceOnUse">
<stop stop-color="#639" offset="0"/>
<stop stop-color="#4a2570" offset=".98824"/>
</linearGradient>
<linearGradient id="a" x1="-819.2" x2="819.2" gradientTransform="matrix(-.0045166 .010498 -.010025 -.0043182 9.55 16.75)" gradientUnits="userSpaceOnUse">
<stop stop-color="#9662ca" offset="0"/>
<stop stop-color="#a67ccf" offset=".98824"/>
</linearGradient>
<linearGradient id="k" x1="-819.2" x2="819.2" gradientTransform="matrix(.0012207 .0045471 -.0066681 .0017853 22.3 8.15)" gradientUnits="userSpaceOnUse">
<stop stop-color="#639" offset="0"/>
<stop stop-color="#4a2570" offset=".98824"/>
</linearGradient>
<linearGradient id="j" x1="-819.2" x2="819.2" gradientTransform="matrix(-.001358 .0051727 -.0044861 -.0011902 21 16.9)" gradientUnits="userSpaceOnUse">
<stop stop-color="#4a2570" offset="0"/>
<stop stop-color="#261339" offset=".98824"/>
</linearGradient>
<linearGradient id="i" x1="-819.2" x2="819.2" gradientTransform="matrix(-.0010529 -.0039215 .0050964 -.0013733 10.35 2.3)" gradientUnits="userSpaceOnUse">
<stop stop-color="#8345c0" offset="0"/>
<stop stop-color="#261339" offset=".98824"/>
</linearGradient>
<g id="m">
<path d="m-2.3-17.35q-1.15-0.7-1.5-1.9l-0.15-0.8q-0.05-1.15 0.75-2.3l0.1-0.1q1.15-1.65 3.35-2.35l0.45-0.1 3.7 0.15q1.6 0.55 2.2 1.8l-0.85-0.4-3.75-0.1-0.4 0.05q-1.35 0.45-2.3 1.25l-1.05 1.15q-0.9 1.15-0.9 2.35l0.2 0.85 0.15 0.45m28.2 2.8q0.85 4.8-2.2 8.9l-0.2 0.3q-1.8 2.3-4.4 3.75l-0.6 0.3q-2.45 1.15-5.55 1.55l-0.45 0.05-3 0.2h-0.25l-3.35-0.3-1.55-0.4-0.25 0.45 0.05-2.85v-0.05l1.55 0.4 1.6 0.2 1.8 0.1h1.55l2.1-0.25q3.1-0.4 5.55-1.55l0.6-0.35q2.05-1.1 3.6-2.8l1-1.2q2.25-3.05 2.4-6.45m-36-1.5 0.5 1.85 0.4 1 1.35 2.55 0.5 0.75-0.85 0.9-0.9-1.85-0.35-0.9-0.4-1.55q-0.35-1.4-0.3-2.7l0.05-0.05m-4.45 13.8 1.5 2.35 0.15 2.45-1.5-2.35-0.15-2.45m3.05 0.3 2.25 2.65-0.9 1.2-1.2-1.45-0.15-2.4m0.4 5.1 3.85 1.35 0.2 2.45-3.85-1.35-0.2-2.45m5.4-0.65 3.15 1.05-1.35 1.9-0.05 0.05-1.55-0.6-0.2-2.4m3.35 3.5 1.75 0.6 0.15 1.75-1.55 0.15-1.75-0.6 0.05-0.05-0.2-2.35 1.55 0.5m20.8-21.45-0.6-0.25-3.8-0.2-0.1 0.05-0.55 0.15q-2.4 0.75-3.65 2.45t-0.8 3.4l0.05 0.1 0.35 0.8-0.05 0.05-0.8-0.5-0.75-0.95-0.4-0.8q-0.5-1.75 0.8-3.5 1.25-1.7 3.6-2.45l0.6-0.15 3.9 0.15q1.5 0.55 2.2 1.65m-19.05 7.7-0.2-0.2-4.45 3.9-0.95-0.7 5.2-4.6 0.1-0.05 0.7 0.6-0.4 1.05" fill="#af9441"/>
<path d="m6.6-22.95q-0.6-1.25-2.2-1.8l-3.7-0.15-0.45 0.1q-2.2 0.7-3.35 2.35l-0.1 0.1q-0.8 1.15-0.75 2.3l0.15 0.8q0.35 1.2 1.5 1.9l0.9 0.4 1.15 0.25 2.95-0.25 0.85-0.3q1.55-0.65 2.5-1.9l0.55-0.95q0.5-1.2 0.15-2.4l-0.15-0.45m-16.6 1.85q0.5-1.9 1.65-3.65l0.4-0.45q2.6-3.5 7-5l3.8-0.95 2.95-0.2q5.6-0.05 10.85 2.75 4.95 2.65 7.35 6.8l1.2 2.7q0.75 2.35 0.7 4.55-0.15 3.4-2.4 6.45l-1 1.2q-1.55 1.7-3.6 2.8l-0.6 0.35q-2.45 1.15-5.55 1.55l-2.1 0.25h-1.55l-1.8-0.1-1.6-0.2-1.55-0.4v0.05l-4.75 9.2-1.75-0.6-1.55-0.55 1.35-1.9-3.15-1.05-0.05-0.05-1.5 2.05-3.85-1.35 0.95-1.25 0.9-1.2-2.25-2.65v-0.05l-0.05 0.05-1.5 2.05-1.5-2.35h-0.05l6.4-6.75 0.85-0.9-0.5-0.75-1.35-2.55-0.4-1-0.5-1.85-0.05-0.25-0.15-2.15q-0.05-1.35 0.3-2.65m28.45 5.65q-0.7-1.1-2.2-1.65l-3.9-0.15-0.6 0.15q-2.35 0.75-3.6 2.45-1.3 1.75-0.8 3.5l0.4 0.8 0.75 0.95 0.8 0.5 0.1 0.05 0.55 0.25 0.65 0.2 3.8-0.3q1.1-0.3 2-0.85l1.65-1.55 0.5-0.8q0.65-1.35 0.25-2.7l-0.35-0.85m-19.05 7.7 0.4-1.05-0.7-0.6-0.1 0.05-5.2 4.6 0.95 0.7 2.5 1.85 2.15-5.55" fill="url(#l)"/>
<path d="m-2.3-17.35-0.15-0.45-0.2-0.85q0-1.2 0.9-2.35l1.05-1.15q0.95-0.8 2.3-1.25l0.4-0.05 3.75 0.1 0.85 0.4 0.15 0.45q0.35 1.2-0.15 2.4l-0.55 0.95q-0.95 1.25-2.5 1.9l-0.85 0.3-2.95 0.25-1.15-0.25-0.9-0.4m11.6 8.45 0.05-0.05-0.35-0.8-0.05-0.1q-0.45-1.7 0.8-3.4t3.65-2.45l0.55-0.15 0.1-0.05 3.8 0.2 0.6 0.25 0.35 0.85q0.4 1.35-0.25 2.7l-0.5 0.8-1.65 1.55q-0.9 0.55-2 0.85l-3.8 0.3-0.65-0.2-0.55-0.25-0.1-0.05m-14.55 4.85 4.45-3.9 0.2 0.2-2.15 5.55-2.5-1.85"/>
<path d="m23.5-5.35 1.8 3.55q-4.1 6.5-9.6 7.25-1.25-2.6-3.2-5.15l0.45-0.05q3.1-0.4 5.55-1.55l0.6-0.3q2.6-1.45 4.4-3.75" fill="url(#h)"/>
<path d="m-25.15 9.55q-1.9-4.4-1.9-8.85 0-5.3 2.7-8.75l2.1-2.1 1.85-1.25q1.3-0.75 2.7-1.2l0.2-0.1q3.5-1.1 7.65-0.6l0.4 1.55 0.35 0.9q-4-0.6-7.3 0.5l-1.1 0.4-1.3 0.65-1.6 1.1-1.8 1.8q-2.35 3-2.35 7.6l0.1 1.6q0.5 4.75 3.9 10.25l-2.05 1.5-2.55-5" fill="url(#g)"/>
<path d="m0.05 29.45-2.25 1.8q0.8-0.7-0.15-2.3l2.4 0.5m-22.3-39.6 7.35-7.6 0.15-0.15 0.15-0.2 3-2.2 1.6-0.8q-0.35 1.3-0.3 2.65l0.15 2.15 0.05 0.25-0.05 0.05v-0.3 0.3q-0.05 1.3 0.3 2.7-4.15-0.5-7.65 0.6l-0.2 0.1q-1.4 0.45-2.7 1.2l-1.85 1.25m21.6 29.45-0.2 0.1 0.1-0.15 0.1 0.05m-3.1 5.9-0.25 0.25 0.1-0.3 0.15 0.05m-12.3-16.05 0.75-0.65 0.1 0.2-0.7 0.6-0.15-0.15" fill="#639"/>
<path d="m-24.45 2.8-0.1-1.6q0-4.6 2.35-7.6l1.8-1.8 1.6-1.1 0.6-0.3-0.05 1.4q0 2.35 0.65 4.75-3.75-0.45-6.85 6.25" fill="url(#f)"/>
<path d="m-17.6-3.45 0.1 0.4q1.3 4.5 4.85 9.2l-1.05 0.95-1.2-1.65-1.3-0.15q-0.95 0.05-0.3 0.9l1.2 2.3-0.75 0.65-1.45 1.25-1.3-1.8-1.3-0.15q-0.9 0.05-0.3 0.9l1.3 2.5-0.7 0.6-0.75 0.6q-3.4-5.5-3.9-10.25 3.1-6.7 6.85-6.25" fill="url(#e)"/>
<path d="m-13.05 0.1 1.5-2.05h0.05l0.15 2.4-1.55 2.1-0.15-2.45m5.8 4.4 1.5-2.05 0.05 0.05 0.2 2.4h-0.05l-1.5 2.05-0.2-2.45m6.65 2.1 4.75-9.2-0.05 2.85-4.15 8.1h-0.4l-0.15-1.75m4.6 14.65q-1.35-1.45-3.6-1.25l-1.6 1.55-0.85-0.55 0.85 0.55 0.8 0.55 1.05 2h-0.25q-1.2-1.7-3.6-1.2l-2.05 1.9-0.15-0.05v-1.45l1.2-1.05 2.15-1.25v-0.55l1.2-1.05 0.2-0.1 1.95-1.15 1.65 1.1 0.15 0.25 0.9 1.75m-17.7-14.15 0.1 0.15v1.85 0.85l-1.2 1-0.1-0.15 0.5-2.4q-0.45-1.9-1.8-3.1l1.3 0.15 1.2 1.65m-3.8 3.3v1.35 1.35l-1.2 1-0.1-0.15 0.6-2.2q-0.45-2.15-1.9-3.3l1.3 0.15 1.3 1.8" fill="#967e38"/>
<path d="m-1.2 21.55 1.6-1.55q2.25-0.2 3.6 1.25h-3.3l-1.1 0.85-0.8-0.55m1.6 2.55h-3.05l-1.1 1.1-0.15-0.05-0.65-0.15-0.7-0.2 2.05-1.9q2.4-0.5 3.6 1.2m-15.7-15.6-1.2-2.3q-0.65-0.85 0.3-0.9 1.35 1.2 1.8 3.1l-0.5 2.4-1-1.5 0.7-0.6-0.1-0.2m-4.8-0.05q1.45 1.15 1.9 3.3l-0.6 2.2-0.45-0.7-0.55-0.8 0.7-0.6-1.3-2.5q-0.6-0.85 0.3-0.9" fill="#74622c"/>
<path d="m-4 25.5-0.15 2.95-2.6-1.35 2.2-2.1 0.65 0.15-0.1 0.3v0.05m-11.9-16.2 0.5 0.75-2.1 1.7v-1.35l1.45-1.25 0.15 0.15m-3.35 3.95-2.6 2.1-0.75-0.8 2.05-1.5 0.75-0.6 0.55 0.8" fill="#7c8943"/>
<path d="m-2.2 31.25-0.15 0.1-3-0.95-1.4-3.3 2.6 1.35 1.8 0.5q0.95 1.6 0.15 2.3m-11.4-22.15 1.15 1.3-0.25 1.3q-2.1 0-3 2.45-3.7 0.9-3.7 3.7l-2.45-2.5 2.6-2.1 0.45 0.7 0.1 0.15 1.2-1v-1.35l2.1-1.7 0.6 0.9 1.2-1v-0.85m5.05 16.95 3.15-2.75v1.45l0.15 0.05 0.7 0.2-2.2 2.1-1.8-1.05" fill="#9fae59"/>
<path d="m-0.85 19.4-1.2 1.05v0.55l-2.15 1.25-1.2 1.05-3.15 2.75q-5.9-3.5-10.8-8.15l-0.05-0.05q0-2.8 3.7-3.7 0.9-2.45 3-2.45l0.25-1.3 0.6 0.65q4.65 4.85 11.1 8.2l-0.1 0.15" fill="url(#d)"/>
<path d="m-19.4 17.85 0.05 0.05h-0.05v-0.05" fill="#ccd995"/>
<path d="m-5.35 30.4-2.05-0.8-1.2-3.5 0.05-0.05 1.8 1.05 1.4 3.3m-16.55-11.8q-2.35-3-4.2-6.6 0-2.35 0.95-2.45l2.55 5 0.75 0.8 2.45 2.5v0.05l-2.5 0.7" fill="#c2d282"/>
<path d="m-7.4 29.6q-8.75-3.7-14.5-11l2.5-0.7h0.05q4.9 4.65 10.8 8.15l-0.05 0.05 1.2 3.5" fill="url(#c)"/>
<path d="m13.1 20.85-1.25 1.65-2.85 2.2q-5.45 3.05-13 0.8v-0.05l1.35-1.35h3.05 0.25l-1.05-2 1.1-0.85h3.3l-0.9-1.75 0.5-0.3 0.8 0.25q4.7 1.55 8.7 1.4" fill="url(#b)"/>
<path d="m14.85 25.2q-1.35 1.45-3.25 2.5-5 2.85-11.55 1.75l-2.4-0.5-1.8-0.5 0.15-2.95q7.55 2.25 13-0.8l2.85-2.2 1.25-1.65 1.2-2.85q0.45-1.75 0.45-3.8l-0.25-3.15q-0.45-2.55-1.6-5.05l2.8-0.55q1.4 2.8 2.05 5.6l0.45 3.5 0.05 1.1q0 2.35-0.55 4.4-0.85 3-2.85 5.15" fill="url(#a)"/>
<path d="m25.3-1.8q1.1 2.7 1.5 5.45l0.25 2.4q-3.75 8.3-8.85 8.5l-0.45-3.5q-0.65-2.8-2.05-5.6 5.5-0.75 9.6-7.25" fill="url(#k)"/>
<path d="m27.05 6.05v0.7l-0.25 2.9-0.3 1.4q-0.55 2-1.6 3.65l-0.5 0.7-0.55 0.7-0.65 0.65-8.35 8.45q2-2.15 2.85-5.15 0.55-2.05 0.55-4.4l-0.05-1.1q5.1-0.2 8.85-8.5" fill="url(#j)"/>
<path d="m15.7 5.45-2.8 0.55q-1.3-2.8-3.4-5.5l3-0.2q1.95 2.55 3.2 5.15" fill="url(#i)"/>
<path d="m6.6-22.95q-0.6-1.25-2.2-1.8l-3.7-0.15-0.45 0.1q-2.2 0.7-3.35 2.35l-0.1 0.1q-0.8 1.15-0.75 2.3l0.15 0.8q0.35 1.2 1.5 1.9m8.9-5.6 0.15 0.45q0.35 1.2-0.15 2.4l-0.55 0.95q-0.95 1.25-2.5 1.9l-0.85 0.3-2.95 0.25-1.15-0.25-0.9-0.4m-7.8 1.3 0.5 1.85 0.4 1 1.35 2.55 0.5 0.75m-7.2 7.65 1.5 2.35 1.5-2.05m0.05 0 2.25 2.65m-1.85 2.45 3.85 1.35 1.5-2.05 0.05 0.05 3.15 1.05m-1.35 1.9 1.55 0.55 1.75 0.6 4.75-9.2v-0.05l1.55 0.4 1.6 0.2 1.8 0.1h1.55l2.1-0.25q3.1-0.4 5.55-1.55l0.6-0.35q2.05-1.1 3.6-2.8l1-1.2q2.25-3.05 2.4-6.45m-7.45-0.9q-0.7-1.1-2.2-1.65l-3.9-0.15-0.6 0.15q-2.35 0.75-3.6 2.45-1.3 1.75-0.8 3.5l0.4 0.8 0.75 0.95 0.8 0.5 0.1 0.05 0.55 0.25 0.65 0.2 3.8-0.3q1.1-0.3 2-0.85l1.65-1.55 0.5-0.8q0.65-1.35 0.25-2.7l-0.35-0.85m-19.05 7.7 0.4-1.05-0.7-0.6-0.1 0.05-5.2 4.6 0.95 0.7" fill="none" stroke="#d2bc8a" stroke-opacity=".4"/>
<path d="m-10-21.1q0.5-1.9 1.65-3.65l0.4-0.45q2.6-3.5 7-5l3.8-0.95 2.95-0.2q5.6-0.05 10.85 2.75 4.95 2.65 7.35 6.8l1.2 2.7q0.75 2.35 0.7 4.55m-1 29.25-0.5 0.7-0.55 0.7-0.65 0.65-8.35 8.45q-1.35 1.45-3.25 2.5-5 2.85-11.55 1.75l-2.25 1.8-0.15 0.1-3-0.95-2.05-0.8q-8.75-3.7-14.5-11-2.35-3-4.2-6.6 0-2.35 0.95-2.45-1.9-4.4-1.9-8.85 0-5.3 2.7-8.75l2.1-2.1 7.35-7.6 0.15-0.15 0.15-0.2m4.6-3q-0.35 1.3-0.3 2.65l0.15 2.15 0.05 0.25m2.75 6.15-0.85 0.9-6.4 6.75h0.05m5.3 2.95-0.9 1.2-0.95 1.25m8.55 0.4-1.35 1.9m16.8 0.55q1.15 2.5 1.6 5.05l0.25 3.15q0 2.05-0.45 3.8l-1.2 2.85m-17.1 4.65-0.15 2.95 1.8 0.5 2.4 0.5m3.95-8.2-0.9-1.75-0.15-0.25-1.65-1.1-1.95 1.15-0.2 0.1-1.2 1.05v0.55l0.85 0.55 0.8 0.55 1.1-0.85h3.3m-4.4 0.85 1.05 2h-0.25-3.05l-1.35 1.35v0.05m7.1-6 0.5-0.3m9.3-13.2q-1.3-2.8-3.4-5.5m-9.95 7.85-1.55 0.15m-1.7-0.65-0.2-2.35v-0.05m-7 0.15-0.2-2.45m-7.1-12.75 0.7-0.35 1.1-0.4q3.3-1.1 7.3-0.5m-3.55 17-1.05 0.95m0.1 2 1.15 1.3 0.6 0.65q4.65 4.85 11.1 8.2l0.1 0.05m-13.75-19.1-0.15-2.45m-1.5 11.4 0.75-0.65m-0.75 0.65-1.45 1.25v1.35m-2.6-3.3 1.3 0.15 1.3 1.8m-1.3 3.55 0.1 0.15 1.2-1v-1.35m12.1 11.55 1.2-1.05 2.15-1.25m-17.75-8.55-0.75 0.6-2.05 1.5-2.55-5m5.35 2.9 0.7-0.6-1.3-2.5q-0.6-0.85 0.3-0.9m16.2 16.7 0.15 0.05m-1.5-0.4-0.15-0.05v-1.45m3.2 7.95q0.8-0.7-0.15-2.3" fill="none" stroke="#000" stroke-opacity=".4" stroke-width=".5"/>
<path d="m25.9-14.55q0.85 4.8-2.2 8.9l-0.2 0.3 1.8 3.55q1.1 2.7 1.5 5.45l0.25 2.4v0.7l-0.25 2.9-0.3 1.4q-0.55 2-1.6 3.65m-39.5-32.8 3-2.2 1.6-0.8m22.5 21.4 0.45-0.05q3.1-0.4 5.55-1.55l0.6-0.3q2.6-1.45 4.4-3.75m-19.4 5.6 0.25-0.45 1.55 0.4 3.35 0.3h0.25l3-0.2m-8.9 18.9 0.8 0.25q4.7 1.55 8.7 1.4m-9-20.6-4.15 8.1m-1.95 0.15-1.75-0.6 0.05-0.05m-0.2-2.35h-0.05l-1.55-0.6h-0.05l-1.5 2.05-3.85-1.35m1.8-16.45-0.35-0.9-0.4-1.55m-0.3-3v0.3q-0.05 1.3 0.3 2.7m-8.35 3.7-0.05 1.4q0 2.35 0.65 4.75l0.1 0.4q1.3 4.5 4.85 9.2m-1.05 0.95 0.1 0.15v1.85m2.25-8.65 1.2 1.45m1.95-10.9-0.9-1.85m-3.8 13.4-1.5-2.35m3.05 0.25-1.55 2.1m-2.4 5.95-1.2-2.3q-0.65-0.85 0.3-0.9l1.3 0.15 1.2 1.65m-1.6 1.4 0.1 0.2m0.3 2.1 0.1 0.15 1.2-1v-0.85" fill="none" stroke="#000" stroke-opacity=".4" stroke-width=".5"/>
<path d="m12.5 0.3q1.95 2.55 3.2 5.15 1.4 2.8 2.05 5.6l0.45 3.5 0.05 1.1q0 2.35-0.55 4.4-0.85 3-2.85 5.15m-39.3-22.4-0.1-1.6q0-4.6 2.35-7.6l1.8-1.8 1.6-1.1 0.6-0.3m8.35-3.7q-4.15-0.5-7.65 0.6l-0.2 0.1q-1.4 0.45-2.7 1.2l-1.85 1.25m1.7 23.2q-3.4-5.5-3.9-10.25" fill="none" stroke="#639" stroke-opacity=".4"/>
<path d="m-19.35 17.9q4.9 4.65 10.8 8.15l1.8 1.05 2.6 1.35m-17.7-13.1 2.45 2.5m-3.2-3.3 0.75 0.8" fill="none" stroke="#e2e9c5" stroke-opacity=".4"/>
<path d="m5.8-31.35q5.6-0.05 10.85 2.75 4.95 2.65 7.35 6.8l1.2 2.7q0.75 2.35 0.7 4.55 0.85 4.8-2.2 8.9l-0.2 0.3 1.8 3.55q1.1 2.7 1.5 5.45l0.25 2.4v0.7l-0.25 2.9-0.3 1.4q-0.55 2-1.6 3.65l-0.5 0.7-0.55 0.7-0.65 0.65-8.35 8.45q-1.35 1.45-3.25 2.5-5 2.85-11.55 1.75l-2.4 1.9-3-0.95-2.05-0.8q-8.75-3.7-14.5-11-2.35-3-4.2-6.6 0-2.35 0.95-2.45-1.9-4.4-1.9-8.85 0-5.3 2.7-8.75l2.1-2.1 7.35-7.6 0.15-0.15 0.15-0.2 3-2.2 1.6-0.8q0.5-1.9 1.65-3.65l0.4-0.45q2.6-3.5 7-5l3.8-0.95 2.95-0.2m7.1 37.35q-1.3-2.8-3.4-5.5h-0.25l-3.35-0.3-1.55-0.4-4.4 8.55-1.95 0.15-1.75-0.6 0.05-0.05-0.25-2.35-1.55-0.6h-0.05l-1.5 2.05-3.85-1.35-0.2-2.45 0.95-1.25-1.2-1.45-1.55 2.1-1.5-2.35-0.15-2.45h-0.05l6.4-6.75-0.9-1.85h-0.05q-4-0.6-7.25 0.5l-1.1 0.4-0.7 0.35-0.05 1.4q0 2.35 0.65 4.75l0.1 0.4q1.3 4.5 4.85 9.2l-1.05 0.95 0.1 0.15v1.85l1.15 1.3 0.6 0.65q4.65 4.85 11.1 8.2l0.1 0.05 1.95-1.15 1.65 1.1 0.15 0.25 0.5-0.3 0.8 0.25q4.7 1.55 8.7 1.4l1.2-2.85q0.45-1.75 0.45-3.8l-0.25-3.15q-0.45-2.55-1.6-5.05m-22.05-16.85q-1.6-4.8-0.85-10.25m6.1 26.55-0.05 0.05" fill="none" stroke="#000" stroke-opacity=".4"/>
</g>
</defs>
<use transform="translate(274.95 199.95)" xlink:href="#m"/>
</svg>
