<?xml version="1.0" encoding="UTF-8"?>
<svg version="1.1" viewBox="0 0 149.1 52.507" xmlns="http://www.w3.org/2000/svg" xmlns:cc="http://creativecommons.org/ns#" xmlns:dc="http://purl.org/dc/elements/1.1/" xmlns:rdf="http://www.w3.org/1999/02/22-rdf-syntax-ns#" xmlns:xlink="http://www.w3.org/1999/xlink">
<metadata>
<rdf:RDF>
<cc:Work rdf:about="">
<dc:format>image/svg+xml</dc:format>
<dc:type rdf:resource="http://purl.org/dc/dcmitype/StillImage"/>
</cc:Work>
</rdf:RDF>
</metadata>
<g transform="translate(-200.4 -173.7)">
<use transform="translate(200.4,173.7)" width="149.10001" height="52.5" xlink:href="#a"/>
</g>
<defs>
<g id="a" transform="translate(74.55,26.25)">
<use transform="translate(-74.55,-26.25)" width="149.10001" height="52.5" xlink:href="#b"/>
</g>
<g id="b" transform="translate(74.55,26.25)">
<path d="m16.45-21.25q0 2.95 2.15 5.9l-6.55 15.95-2.8 4.35-1.65 0.6 2.15-3.45 0.5-0.8 0.7-2.5 1.75-5.65 0.7-2.25 3.05-12.15m14.35 26.75q-3.1 2.25-4.95 6.25l-12 0.05 1.95-2.2 4.45-1.55 2.25-0.8 9.5-3.3-1.2 1.55" fill="#f3ebe0" fill-rule="evenodd"/>
<path d="m35.95-14.65-2.3 0.5 4.7-8.15v4.2l-2.4 3.45" fill="#e3cfb0" fill-rule="evenodd"/>
<path d="m59.7 4.3 2.6 0.9-7.9-0.2 5.3-0.7m-7.5 17.95-1 0.25-1.25 0.2-7.1-4.95 3.85 1.15 5.5 3.35m-102.9-0.65h-0.05l-4.25 1.9h-0.85l7.05-4.2-1.9 2.3m1.3-5-13.2 0.55-1.6-0.9 17.25-1.05-2.45 1.4" fill="#896e2e" fill-rule="evenodd"/>
<path d="m30.25 8.25 1.15-1.7 3.5-1.4q1.75 1.25 2.25 3.7l-6.9-0.6" fill="#ac8145" fill-rule="evenodd"/>
<path d="m21.45 4.25 1.05 3-2.25 0.8 0.2-1.45-0.05-1.8 1.05-0.55" fill="#b37800" fill-rule="evenodd"/>
<path d="m-7.55-0.2 0.1 0.15-0.3-0.05 0.2-0.1" fill="#c0993f" fill-rule="evenodd"/>
<path d="m18.6-15.35q-2.15-2.95-2.15-5.9l5.25-3.1 6.75 1.55 6.8 1.55v3.15l-4.85 1.75-8-3.15-2.6 4.55-1.2-0.4" fill="url(#ao)" fill-rule="evenodd"/>
<path d="m18.6-15.35 1.2 0.4 6.8 2.4 4.7-1.05 2.35-0.55 2.3-0.5-2.45 3.5-9 9.7-2.9 3.05-1.3 1.4h-2.95l13.35-14.1-7.65 2.7-12.05 12.65-1.75 0.7 2.8-4.35 6.55-15.95" fill="url(#an)" fill-rule="evenodd"/>
<path d="m13.4-9.1-0.7 2.25-1.75 0.8-5.95 1.85 3.35-2.7-5.75-0.75-5.5-5.25h1l4.5 3.8h10.8" fill="url(#ac)" fill-rule="evenodd"/>
<path d="m12.7-6.85-1.75 5.65-14.2 1.5-2.8 2.7h-2.05l6-6.45-5.45 3.25-0.2 0.1-10.9-1.4-2.6 1.4-4.9 2.8-1.4-0.35 9.7-7.5-4.1 1.55-11.15 1.8-0.9-1.35 14.95-2.7-2.9-2.05 8.05 1.05 1.25-1.1-1.4-1-3.8-2.7 1.4-0.4 8.35 6 2.25-0.25-1.3-0.9 7.45-1.3-3.2-1.6-3.5-2.8h3.5l5.5 5.25 5.75 0.75-3.35 2.7 5.95-1.85 1.75-0.8m-24.45-0.45-0.9-0.65 0.9 0.65" fill="url(#r)" fill-rule="evenodd"/>
<path d="m35.25-18.1v-3.15l-6.8-1.55-0.15-2.95 10.05 3.45-4.7 8.15-2.35 0.55 3.95-4.5" fill="url(#h)" fill-rule="evenodd"/>
<path d="m19.8-14.95 2.6-4.55 8 3.15 4.85-1.75-3.95 4.5-4.7 1.05-6.8-2.4" fill="url(#g)" fill-rule="evenodd"/>
<path d="m23.05-8.4 7.65-2.7-13.35 14.1h-2.95l-3.4 1.25 12.05-12.65" fill="url(#f)" fill-rule="evenodd"/>
<path d="m21.6 1.6 2.9-3.05 15.8 1.65-4.4 1.1 10.75-0.05 4.25 0.85 4.7 1.1 15-2.25 1.75 1.75-12.65 1.6-5.3 0.7 7.9 0.2q1.75 0.65 3.15 1.35h6.55l2.05 2.4h-18.25l11.2 1.2 3.25-0.05q0.55 0.8 0.7 1.7l-27.5 0.55 1.95 1.1h-0.45l17.65 3.8-2.9 2.15-9.85-1.7 6.15 3.7 2.5 1.4-2.15 1.7-4.15-2.25-5.5-3.35-3.85-1.15 7.1 4.95-1.55 0.3-9.05-4.6-2.8-2.9 2.5-1.35q1.1-3.05 0-7.3l-3.15-3.65-3.9 0.75-9.5 3.3-1.05-3 0.95-0.5v-0.75h-0.05l-0.15-0.25-0.6-1.15m43.85 4.95h-9.45 9.45" fill="url(#e)" fill-rule="evenodd"/>
<path d="m69.2 8.95 1.05 1.15-3.25 0.05-11.2-1.2h13.4" fill="url(#d)" fill-rule="evenodd"/>
<path d="m70.95 11.8 0.05 0.6-0.15 1.05h-25.45l-1.95-1.1 27.5-0.55" fill="url(#c)" fill-rule="evenodd"/>
<path d="m59.7 19.4-2 1.55-1.7 0.45-6.15-3.7 9.85 1.7" fill="url(#am)" fill-rule="evenodd"/>
<path d="m34.9 5.15-4.1 0.35 1.2-1.55 3.9-0.75 3.15 3.65q1.1 4.25 0 7.3l-3.25-1.5 1.5-1.3-0.15-2.5q-0.5-2.45-2.25-3.7" fill="url(#al)" fill-rule="evenodd"/>
<path d="m29.15 10 1.1-1.75 6.9 0.6 0.15 2.5-1.5 1.3-3.35 2.9q-2.85-0.5 0-5.55h-3.3" fill="url(#ak)" fill-rule="evenodd"/>
<path d="m34.9 5.15-3.5 1.4-1.15 1.7-1.1 1.75-2.25 3.45-14.05-0.5 1-1.15 12-0.05q1.85-4 4.95-6.25l4.1-0.35" fill="url(#aj)" fill-rule="evenodd"/>
<path d="m7.6 5.55 1.65-0.6 1.75-0.7 3.4-1.25h5.9l1.3-1.4 0.6 1.15-2.4 1.2h-5.2l-10.35 4h-25.3q-1.35 1.1-0.7 5.2l-0.3-0.1-1.1-1.9-0.3-0.5 1.1-4.2 0.1-0.2 0.3-1.2 2-1.5v3h25l2.55-1m-28.85 0.2 1.3 0.8-1.3-0.8" fill="url(#ai)" fill-rule="evenodd"/>
<path d="m13.85 11.8-1 1.15-0.95 1.1-0.95 1.15q-14.15 1.55-32.7-2.05-0.65-4.1 0.7-5.2h25.3l10.35-4h5.2l2.4-1.2 0.15 0.25 0.05 0.1v0.65l-0.95 0.5-1.05 0.55-0.5 0.25-8.65 1.5-8.65 4.1h-18.05q6.65 1.65 16.4 2.1 3.25 0.5 5.65-0.7l4.8-3.65q5.05-1.95 9.05-1.8l-0.2 1.45-4.45 1.55-1.95 2.2" fill="url(#ah)" fill-rule="evenodd"/>
<path d="m20.4 4.8 0.05 1.8q-4-0.15-9.05 1.8l-4.8 3.65q-2.4 1.2-5.65 0.7-9.75-0.45-16.4-2.1h18.05l8.65-4.1 8.65-1.5 0.5-0.25" fill="url(#ag)" fill-rule="evenodd"/>
<path d="m12.85 12.95 14.05 0.5q0.25 1.4 1.05 2.4 1.3 1.75 4.15 2.1-9.55-0.15-20.2-3.9l0.95-1.1" fill="url(#af)" fill-rule="evenodd"/>
<path d="m26.9 13.45 2.25-3.45h3.3q-2.85 5.05 0 5.55l-4.5 0.3q-0.8-1-1.05-2.4" fill="url(#ae)" fill-rule="evenodd"/>
<path d="m35.8 12.65 3.25 1.5-2.5 1.35-4.45 2.45q-2.85-0.35-4.15-2.1l4.5-0.3 3.35-2.9" fill="url(#ad)" fill-rule="evenodd"/>
<path d="m36.55 15.5 2.8 2.9-1.9 2.85-5.4 2.25-8.85-0.7-12.75-5.8-6.25 2.25-16.35 0.85-9.6-2.1 0.25-1.4-1.95 1.05-1.7-2.2 0.9-0.9 0.6-0.4 0.5-3 1.1 1.9 0.3 0.1q18.55 3.6 32.7 2.05l0.95-1.15q10.65 3.75 20.2 3.9l4.45-2.45" fill="url(#ab)" fill-rule="evenodd"/>
<path d="m48.4 23q-16.05 2.95-36.65 2.75l-6.7-5.05 1.65 4.95-2.5-0.05-0.5-0.05-1.4-2.75-0.95-1.8-3.2 4.35-23.3-1.15 3.1-4.9 0.3-1.3 9.6 2.1 16.35-0.85 6.25-2.25 12.75 5.8 8.85 0.7 5.4-2.25 1.9-2.85 9.05 4.6" fill="url(#aa)" fill-rule="evenodd"/>
<path d="m10.95-1.2-0.7 2.5-0.5 0.8-8.05 0.65-2.15 2.5h-8.05l-2.4 1.3h-6.2l1.15-2.3-4.65-2.45-0.65-1.9 2.6-1.4 10.9 1.4 0.3 0.05-3.8 3.05h5.2l2.8-2.7 14.2-1.5" fill="url(#z)" fill-rule="evenodd"/>
<path d="m9.75 2.1-2.15 3.45-2.55 1h-15.95l2.4-1.3h8.05l2.15-2.5 8.05-0.65" fill="url(#y)" fill-rule="evenodd"/>
<path d="m2.3 22.8-1.9 2.65-2.25-0.1 3.2-4.35 0.95 1.8" fill="url(#x)" fill-rule="evenodd"/>
<path d="m-65.7 8.6 1.9-1 20.65 1.65 7.05 0.15-9.3-2.25-7.25-3.45 0.5-0.15-8.7-5.75v-1q6.15 4.4 11.9 6.95l11.2 2.25-4.4-2.65 19.8 3.1-1.1 4.2 0.3 0.5-0.5 3-0.6 0.4-0.3 0.3-0.1-0.05-7.15 0.55 5.4-2.7-9.95 0.8-11.6-2.1h15.55l-33.3-2.75" fill="url(#w)" fill-rule="evenodd"/>
<path d="m-60.85-3.2v-1.05q8.1 6.2 12.15 6.95l2.7-0.6q9.55-2.05 21-3.1l-3.95 3 2.8 0.7 4.9-2.8 0.65 1.9 0.65 1.75-2 1.5-0.3 1.2-0.1 0.2-19.8-3.1 4.4 2.65-11.2-2.25q-5.75-2.55-11.9-6.95" fill="url(#v)" fill-rule="evenodd"/>
<path d="m-14.05-8.95 1.4 1-1.25 1.1-8.05-1.05 2.9 2.05-14.95 2.7-0.5-0.75 12.45-2.1-5.15-2.8 3.5-0.8 9.65 0.65" fill="url(#u)" fill-rule="evenodd"/>
<path d="m-25-1 3.05-2.6 4.1-1.55-9.7 7.5-1.4-0.35 3.95-3" fill="url(#t)" fill-rule="evenodd"/>
<path d="m-7.15-7.2 1.3 0.9-2.25 0.25-8.35-6 1.4-0.45 4.95 3.3 2.95 2" fill="url(#s)" fill-rule="evenodd"/>
<path d="m-2.9-10.1 3.2 1.6-7.45 1.3-2.95-2 7.2-0.9" fill="url(#q)" fill-rule="evenodd"/>
<path d="m-7.55-0.2 5.45-3.25-6 6.45h-3.15l3.8-3.05-0.1-0.15" fill="url(#p)" fill-rule="evenodd"/>
<path d="m-17.1 6.55h-2.85v-3l-0.65-1.75 4.65 2.45-1.15 2.3" fill="url(#o)" fill-rule="evenodd"/>
<path d="m-34.5 23.5-1.25-0.1-6.1-0.6 14.45-4.95 2.25-2.4 1.7 2.2-11.05 5.85" fill="url(#n)" fill-rule="evenodd"/>
<path d="m-22.05 19.3-8.95 4.5-3.5-0.3 11.05-5.85 1.95-1.05-0.25 1.4-0.3 1.3" fill="url(#m)" fill-rule="evenodd"/>
<path d="m-41.85 22.8-8.85-1.2 1.9-2.3-7.05 4.2h-0.85l3.05-2.7-1.8-0.55 2.85-1.9-20.15 5.55-1.3-0.7 14.95-4.3h0.05l9.65-2.3 2.45-1.4-17.25 1.05q-2.9-1.75-4-4.4l-0.1-0.5h20.35l11.6 2.1 9.95-0.8-5.4 2.7 7.15-0.55 0.1 0.05-0.6 0.6-2.25 2.4-14.45 4.95" fill="url(#l)" fill-rule="evenodd"/>
<path d="m-55.45 20.25h-0.05l-15.05 5-2.2-1.35 20.15-5.55-2.85 1.9" fill="url(#k)" fill-rule="evenodd"/>
<path d="m-63.8 7.6q3.9-1.8 11.15-3.9l7.25 3.45 9.3 2.25-7.05-0.15-20.65-1.65" fill="url(#j)" fill-rule="evenodd"/>
<path d="m-68.3 11.35q0.05-1.25 2.6-2.75l33.3 2.75h-35.9" fill="url(#i)" fill-rule="evenodd"/>
<path d="m16.45-21.25q0 2.95 2.15 5.9l1.2 0.4 2.6-4.55 8 3.15 4.85-1.75v-3.15l-6.8-1.55-6.75-1.55-5.25 3.1-3.05 12.15-0.7 2.25-1.75 5.65-0.7 2.5-0.25 0.4m-0.25 0.4-2.15 3.45 1.65-0.6m4.15-14.05h-10.8l-4.5-3.8h-1m-0.35 0h-3.15l3.5 2.8m-4.25 2.9 1.3 0.9m-10.6-5.75-1.4 0.4 3.8 2.7 1.4 1 0.9 0.65m45.4-6.85 2.3-0.5 2.4-3.45v-4.2l-10.05-3.45 0.15 2.95m5.2 8.65-2.35 0.55-4.7 1.05-6.8-2.4m15.45-3.15-3.95 4.5m-6.8 12.15 9-9.7 2.45-3.5m-18.6 17.65h2.95l1.3-1.4 2.9-3.05 15.8 1.65-4.4 1.1 10.75-0.05 4.25 0.85 4.7 1.1 15-2.25 1.75 1.75-12.65 1.6 2.6 0.9q1.75 0.65 3.15 1.35h6.55l2.05 2.4h-4.85l1.05 1.15q0.55 0.8 0.7 1.7l0.05 0.6-0.15 1.05h-25.9l17.65 3.8-2.9 2.15-2 1.55-1.7 0.45 2.5 1.4-2.15 1.7-4.15-2.25-1 0.25-1.25 0.2-1.55 0.3q-16.05 2.95-36.65 2.75l-6.7-5.05 1.65 4.95-2.5-0.05-0.5-0.05-1.4-2.75-1.9 2.65-2.25-0.1-23.3-1.15 3.1-4.9-8.95 4.5-3.5-0.3-1.25-0.1-6.1-0.6-8.85-1.2h-0.05l-4.25 1.9h-1.7l3.05-2.7-1.8-0.55h-0.05l-15.05 5-2.2-1.35-1.3-0.7 14.95-4.3h0.05l9.65-2.3-13.2 0.55-1.6-0.9q-2.9-1.75-4-4.4l-0.1-0.5q0.05-1.25 2.6-2.75l1.9-1q3.9-1.8 11.15-3.9l0.5-0.15-8.7-5.75v-2.05q8.1 6.2 12.15 6.95l2.7-0.6q9.55-2.05 21-3.1l3.05-2.6-11.15 1.8-1.4-2.1 12.45-2.1-5.15-2.8 3.5-0.8 9.65 0.65m63.9 26.65 6.15 3.7m-3.8 0.85-5.5-3.35m22.5-9.95h-9.7m-3.5-2.4h9.45m-35.2 1.7 1.15-1.7 3.5-1.4-4.1 0.35q-3.1 2.25-4.95 6.25l-12 0.05-1 1.15-0.95 1.1-0.95 1.15q-14.15 1.55-32.7-2.05l-0.3-0.1-1.1-1.9m50.05 2.3 2.25-3.45 1.1-1.75m6.9 0.6q-0.5-2.45-2.25-3.7m4.15 9q1.1-3.05 0-7.3l-3.15-3.65-3.9 0.75-1.2 1.55m6.35 3.35 0.15 2.5-1.5 1.3-3.35 2.9-4.5 0.3q1.3 1.75 4.15 2.1-9.55-0.15-20.2-3.9m27.15 0.1-2.5 1.35-4.45 2.45m-10.5-16.35 0.6 1.15 0.15 0.25h0.05v0.75l-0.95 0.5 1.05 3 9.5-3.3m-9.65-0.95 0.05 0.1m-0.95 1.15-1.05 0.55-0.5 0.25-8.65 1.5-8.65 4.1h-18.05m35.7-2.6 2.25-0.8m5.45 8.6q-0.8-1-1.05-2.4m5.55 2.1q-2.85-0.5 0-5.55h-3.3m-11.8-7h-2.95l-3.4 1.25-1.75 0.7m4.6 6.85 1.95-2.2 4.45-1.55m-12.65-2.5-2.55 1h-25l-1.3-0.8m32.25-1.5 12.05-12.65m-30.5 8.35-3.8 3.05h5.2l2.8-2.7 14.2-1.5m-18.7 1.1 0.3 0.05m-2.65-9.15 2.95 2m-2.95-2 7.2-0.9m-4.85 10-10.9-1.4-2.6 1.4 0.65 1.9m4.15-13.85 1.4-0.45 4.95 3.3m-9.85 15.75v-3l-2 1.5-0.3 1.2-0.1 0.2-1.1 4.2 0.3 0.5m-4.4-8.8-1.4-0.35 3.95-3m3.75 0.9-4.9 2.8-1.4-0.35m-20.4 9h-20.35m48.35-7.8-0.65-1.75m-22.55 7.45-20.65-1.65m31.4 3.75h-15.55" fill="none" stroke="#000" stroke-linecap="round" stroke-linejoin="round" stroke-opacity=".4" stroke-width=".5"/>
<path d="m16.45-21.25 5.25-3.1 6.75 1.6-0.15-3 10.05 3.45v4.2l-4.85 6.9-9 9.75 15.8 1.65-4.4 1.05h10.7l4.3 0.8 4.7 1.15 15-2.25 1.7 1.7-12.65 1.7 2.7 0.85 3.1 1.35h6.55l2.05 2.35h-4.85l1.05 1.2q0.55 0.8 0.65 1.7l0.1 0.6-0.15 1.05h-25.9l17.65 3.8-4.95 3.75-1.65 0.4 2.45 1.35-2.1 1.75-4.15-2.25-1 0.25-1.25 0.2-1.55 0.35q-16.05 2.85-36.7 2.7l-6.65-5.05 1.7 4.95-2.55-0.1h-0.55l-1.4-2.8-1.85 2.7-2.25-0.1-23.3-1.1 3.1-4.95-9 4.55-3.45-0.35-1.25-0.05-6.15-0.6-8.8-1.2h-0.05l-4.25 1.85h-1.75l3.15-2.65-1.85-0.6-15.15 5-3.45-2.1 14.9-4.25h0.1l9.65-2.3-13.2 0.5-1.6-0.85q-2.9-1.8-4-4.4l-0.05-0.55q0-1.25 2.5-2.7 0.8-0.5 1.95-1 3.85-1.8 11.2-3.95l0.45-0.1-8.7-5.75v-2.05q8.1 6.2 12.15 6.9l2.7-0.6q9.55-2 21.05-3.05l2.95-2.6-11.1 1.8-1.4-2.15 12.45-2.05-5.2-2.8 3.55-0.8 9.65 0.7-3.8-2.75 2.8-0.85 4.95 3.3 7.15-0.9-3.45-2.8h4.45l4.55 3.8h10.8z" fill="none" stroke="#000" stroke-linecap="round" stroke-linejoin="round" stroke-opacity=".4"/>
</g>
<linearGradient id="ao" x1="-819.2" x2="819.2" gradientTransform="matrix(-.0027 .0046 -.0094 -.0055 24.75 -17.85)" gradientUnits="userSpaceOnUse">
<stop stop-color="#9b733a" offset="0"/>
<stop stop-color="#91653c" offset="1"/>
</linearGradient>
<linearGradient id="an" x1="-819.2" x2="819.2" gradientTransform="matrix(.0094 -.0094 .0062 .0062 23.15 -10)" gradientUnits="userSpaceOnUse">
<stop stop-color="#d2af7c" offset="0"/>
<stop stop-color="#c69a5a" offset="1"/>
</linearGradient>
<linearGradient id="ac" x1="-819.2" x2="819.2" gradientTransform="matrix(-.0065 .0017 -.0016 -.0062 5 -9.6)" gradientUnits="userSpaceOnUse">
<stop stop-color="#c0993f" offset=".0078431"/>
<stop stop-color="#997a33" offset="1"/>
</linearGradient>
<linearGradient id="r" x1="-819.2" x2="819.2" gradientTransform="matrix(0 -.0062 .0285 0 -10.65 -7.4)" gradientUnits="userSpaceOnUse">
<stop stop-color="#896e2e" offset=".0078431"/>
<stop stop-color="#59471e" offset="1"/>
</linearGradient>
<linearGradient id="h" x1="-819.2" x2="819.2" gradientTransform="matrix(.001 -.0037 .0063 .0016 33.45 -24.75)" gradientUnits="userSpaceOnUse">
<stop stop-color="#d2af7c" offset="0"/>
<stop stop-color="#c69a5a" offset="1"/>
</linearGradient>
<linearGradient id="g" x1="-819.2" x2="819.2" gradientTransform="matrix(.0049 -.0028 .0029 .005 28.75 -17.7)" gradientUnits="userSpaceOnUse">
<stop stop-color="#e4d0b1" offset="0"/>
<stop stop-color="#d8ba8d" offset="1"/>
</linearGradient>
<linearGradient id="f" x1="-819.2" x2="819.2" gradientTransform="matrix(-.0076 .0076 -.0017 -.0017 18.7 -1.25)" gradientUnits="userSpaceOnUse">
<stop stop-color="#9b733a" offset="0"/>
<stop stop-color="#91653c" offset="1"/>
</linearGradient>
<linearGradient id="e" x1="-819.2" x2="819.2" gradientTransform="matrix(-.0167 -.0064 .0063 -.0163 37.1 3.4)" gradientUnits="userSpaceOnUse">
<stop stop-color="#c0993f" offset=".0078431"/>
<stop stop-color="#997a33" offset="1"/>
</linearGradient>
<linearGradient id="d" x1="-819.2" x2="819.2" gradientTransform="matrix(-.002 -5e-4 5e-4 -.002 66.4 10)" gradientUnits="userSpaceOnUse">
<stop stop-color="#896e2e" offset=".0078431"/>
<stop stop-color="#59471e" offset="1"/>
</linearGradient>
<linearGradient id="c" x1="-819.2" x2="819.2" gradientTransform="matrix(-.0081 -.0022 .0013 -.0048 60.15 13.2)" gradientUnits="userSpaceOnUse">
<stop stop-color="#896e2e" offset=".0078431"/>
<stop stop-color="#59471e" offset="1"/>
</linearGradient>
<linearGradient id="am" x1="-819.2" x2="819.2" gradientTransform="matrix(-.006 -.0016 4e-4 -.0016 52.05 18.85)" gradientUnits="userSpaceOnUse">
<stop stop-color="#896e2e" offset=".0078431"/>
<stop stop-color="#59471e" offset="1"/>
</linearGradient>
<linearGradient id="al" x1="-819.2" x2="819.2" gradientTransform="matrix(.004 .0023 -.0025 .0044 36.25 8.1)" gradientUnits="userSpaceOnUse">
<stop stop-color="#d2af7c" offset="0"/>
<stop stop-color="#c69a5a" offset="1"/>
</linearGradient>
<linearGradient id="ak" x1="-819.2" x2="819.2" gradientTransform="matrix(.0049 .0013 -.0012 .0045 36.55 12.65)" gradientUnits="userSpaceOnUse">
<stop stop-color="#d2af7c" offset="0"/>
<stop stop-color="#c69a5a" offset="1"/>
</linearGradient>
<linearGradient id="aj" x1="-819.2" x2="819.2" gradientTransform="matrix(-.0079 -.0021 .0021 -.0078 21.85 8.45)" gradientUnits="userSpaceOnUse">
<stop stop-color="#9b733a" offset="0"/>
<stop stop-color="#91653c" offset="1"/>
</linearGradient>
<linearGradient id="ai" x1="-819.2" x2="819.2" gradientTransform="matrix(.0199 -.0025 7e-4 .0056 -4.95 6.2)" gradientUnits="userSpaceOnUse">
<stop stop-color="#d8ad05" offset=".0078431"/>
<stop stop-color="#c08802" offset="1"/>
</linearGradient>
<linearGradient id="ah" x1="-819.2" x2="819.2" gradientTransform="matrix(.0235 -.0062 .0024 .009 2.75 9.5)" gradientUnits="userSpaceOnUse">
<stop stop-color="#960" offset=".0078431"/>
<stop stop-color="#a96501" offset="1"/>
</linearGradient>
<linearGradient id="ag" x1="-819.2" x2="819.2" gradientTransform="matrix(.0219 0 0 .005 2.45 8.85)" gradientUnits="userSpaceOnUse">
<stop stop-color="#5e3f00" offset=".0078431"/>
<stop stop-color="#895600" offset="1"/>
</linearGradient>
<linearGradient id="af" x1="-819.2" x2="819.2" gradientTransform="matrix(.0064 .0017 -7e-4 .0028 23.1 14.8)" gradientUnits="userSpaceOnUse">
<stop stop-color="#d2af7c" offset="0"/>
<stop stop-color="#c69a5a" offset="1"/>
</linearGradient>
<linearGradient id="ae" x1="-819.2" x2="819.2" gradientTransform="matrix(.0034 0 0 .0036 29.65 12.9)" gradientUnits="userSpaceOnUse">
<stop stop-color="#9b733a" offset="0"/>
<stop stop-color="#91653c" offset="1"/>
</linearGradient>
<linearGradient id="ad" x1="-819.2" x2="819.2" gradientTransform="matrix(.0031 -.0018 .0012 .0021 34.05 14.65)" gradientUnits="userSpaceOnUse">
<stop stop-color="#e4d0b1" offset="0"/>
<stop stop-color="#d8ba8d" offset="1"/>
</linearGradient>
<linearGradient id="ab" x1="-819.2" x2="819.2" gradientTransform="matrix(-.014 -.008 .0096 -.0168 9.7 18.4)" gradientUnits="userSpaceOnUse">
<stop stop-color="#403315" offset=".0078431"/>
<stop offset="1"/>
</linearGradient>
<linearGradient id="aa" x1="-819.2" x2="819.2" gradientTransform="matrix(0 -.0056 .0449 0 11.6 19.45)" gradientUnits="userSpaceOnUse">
<stop stop-color="#896e2e" offset=".0078431"/>
<stop stop-color="#59471e" offset="1"/>
</linearGradient>
<linearGradient id="z" x1="-819.2" x2="819.2" gradientTransform="matrix(.0042 -.0042 .0101 .0101 -8.65 3.85)" gradientUnits="userSpaceOnUse">
<stop stop-color="#403315" offset=".0078431"/>
<stop offset="1"/>
</linearGradient>
<linearGradient id="y" x1="-819.2" x2="819.2" gradientTransform="matrix(-.0015 -.0026 .0107 -.0062 .2 5.55)" gradientUnits="userSpaceOnUse">
<stop stop-color="#896e2e" offset=".0078431"/>
<stop stop-color="#59471e" offset="1"/>
</linearGradient>
<linearGradient id="x" x1="-819.2" x2="819.2" gradientTransform="matrix(.0015 -.0057 .002 5e-4 1.35 19.8)" gradientUnits="userSpaceOnUse">
<stop stop-color="#c0993f" offset=".0078431"/>
<stop stop-color="#997a33" offset="1"/>
</linearGradient>
<linearGradient id="w" x1="-819.2" x2="819.2" gradientTransform="matrix(.015 0 0 .0113 -29.15 6.05)" gradientUnits="userSpaceOnUse">
<stop stop-color="#896e2e" offset=".0078431"/>
<stop stop-color="#59471e" offset="1"/>
</linearGradient>
<linearGradient id="v" x1="-819.2" x2="819.2" gradientTransform="matrix(.0125 -.002 .0016 .01 -33.95 -.15)" gradientUnits="userSpaceOnUse">
<stop stop-color="#c0993f" offset=".0078431"/>
<stop stop-color="#997a33" offset="1"/>
</linearGradient>
<linearGradient id="u" x1="-819.2" x2="819.2" gradientTransform="matrix(.0063 .0017 -.0017 .0063 -19.25 -4.8)" gradientUnits="userSpaceOnUse">
<stop stop-color="#c0993f" offset=".0078431"/>
<stop stop-color="#997a33" offset="1"/>
</linearGradient>
<linearGradient id="t" x1="-819.2" x2="819.2" gradientTransform="matrix(.0057 -.0057 .0012 .0012 -20.1 -4.8)" gradientUnits="userSpaceOnUse">
<stop stop-color="#c0993f" offset=".0078431"/>
<stop stop-color="#997a33" offset="1"/>
</linearGradient>
<linearGradient id="s" x1="-819.2" x2="819.2" gradientTransform="matrix(.0051 .003 -7e-4 .0011 -9.3 -8.05)" gradientUnits="userSpaceOnUse">
<stop stop-color="#c0993f" offset=".0078431"/>
<stop stop-color="#997a33" offset="1"/>
</linearGradient>
<linearGradient id="q" x1="-819.2" x2="819.2" gradientTransform="matrix(-.0016 .001 -.0018 -.0031 -6.05 -8.2)" gradientUnits="userSpaceOnUse">
<stop stop-color="#c0993f" offset=".0078431"/>
<stop stop-color="#997a33" offset="1"/>
</linearGradient>
<linearGradient id="p" x1="-819.2" x2="819.2" gradientTransform="matrix(.0026 -.0026 .001 .001 -6.45 -.35)" gradientUnits="userSpaceOnUse">
<stop stop-color="#c0993f" offset=".0078431"/>
<stop stop-color="#997a33" offset="1"/>
</linearGradient>
<linearGradient id="o" x1="-819.2" x2="819.2" gradientTransform="matrix(.0012 -.0044 .003 8e-4 -18.1 2.45)" gradientUnits="userSpaceOnUse">
<stop stop-color="#896e2e" offset=".0078431"/>
<stop stop-color="#59471e" offset="1"/>
</linearGradient>
<linearGradient id="n" x1="-819.2" x2="819.2" gradientTransform="matrix(.0077 -.0044 .0014 .0025 -28.95 18.1)" gradientUnits="userSpaceOnUse">
<stop stop-color="#896e2e" offset=".0078431"/>
<stop stop-color="#59471e" offset="1"/>
</linearGradient>
<linearGradient id="m" x1="-819.2" x2="819.2" gradientTransform="matrix(.0079 -.0045 8e-4 .0014 -22.5 18.1)" gradientUnits="userSpaceOnUse">
<stop stop-color="#c0993f" offset=".0078431"/>
<stop stop-color="#997a33" offset="1"/>
</linearGradient>
<linearGradient id="l" x1="-819.2" x2="819.2" gradientTransform="matrix(.0106 -.0028 .0028 .0106 -35.75 11.85)" gradientUnits="userSpaceOnUse">
<stop stop-color="#c0993f" offset=".0078431"/>
<stop stop-color="#997a33" offset="1"/>
</linearGradient>
<linearGradient id="k" x1="-819.2" x2="819.2" gradientTransform="matrix(.0057 -.0033 .0017 .0029 -63.6 21.8)" gradientUnits="userSpaceOnUse">
<stop stop-color="#896e2e" offset=".0078431"/>
<stop stop-color="#59471e" offset="1"/>
</linearGradient>
<linearGradient id="j" x1="-819.2" x2="819.2" gradientTransform="matrix(.011 .003 -.0011 .0039 -45.95 8.9)" gradientUnits="userSpaceOnUse">
<stop stop-color="#c0993f" offset=".0078431"/>
<stop stop-color="#997a33" offset="1"/>
</linearGradient>
<linearGradient id="i" x1="-819.2" x2="819.2" gradientTransform="matrix(.0129 0 0 .0017 -49.8 9.9)" gradientUnits="userSpaceOnUse">
<stop stop-color="#c0993f" offset=".0078431"/>
<stop stop-color="#997a33" offset="1"/>
</linearGradient>
</defs>
</svg>
