<?xml version="1.0" encoding="UTF-8"?>
<svg version="1.1" viewBox="0 0 17.45 41.191" xmlns="http://www.w3.org/2000/svg" xmlns:cc="http://creativecommons.org/ns#" xmlns:dc="http://purl.org/dc/elements/1.1/" xmlns:rdf="http://www.w3.org/1999/02/22-rdf-syntax-ns#" xmlns:xlink="http://www.w3.org/1999/xlink">
<metadata>
<rdf:RDF>
<cc:Work rdf:about="">
<dc:format>image/svg+xml</dc:format>
<dc:type rdf:resource="http://purl.org/dc/dcmitype/StillImage"/>
</cc:Work>
</rdf:RDF>
</metadata>
<g transform="translate(-296.7,-178.6)">
<use transform="translate(296.7,178.6)" width="17.450001" height="41.200001" xlink:href="#a"/>
</g>
<defs>
<g id="a" transform="translate(-296.7,-178.6)">
<path d="m312.35 213.35 0.75-0.05v0.05h-0.75m1.35-1.35h0.05l0.05 0.05h-0.05l-0.15-0.05h0.1m-3.8 2.4-0.05 0.05 0.05-0.05" fill="#555ba0" fill-rule="evenodd"/>
<path d="m301.45 219.2 0.05 0.05h-0.05v-0.05" fill="#fff" fill-rule="evenodd"/>
<path d="m298.85 183.35q2.5-0.6 4.25-1.8l2.9-2.45 0.05 0.25v0.35l-2.9 3.75-4.2 0.7-0.1-0.8m6.45 31.25q2.7 0.7 3.65-2.3l0.45 1.15 0.5 0.95-0.05 0.05-0.25 0.4-0.05 0.5v0.3q-0.2 1.1-1.2 1.45l-1.7 0.25h-0.15l-0.9-1.9-0.25-0.7-0.05-0.15m6-3.05 1-1.85q0.7 1.55 1.35 2.3h-0.05l-0.45 1.3h-0.05l-1.05-1-0.15-0.1-0.45-0.5-0.15-0.15m-9.65 6.35-0.25 0.2-0.75 0.35-0.5-0.55-0.5-0.65-0.65-1 2.3-1.4 0.1 0.8v0.05l0.25 2.2" fill="#ffcf2b" fill-rule="evenodd"/>
<path d="m298.95 184.15 4.2-0.7 2.9-3.75q3.25 23 6.25 30l-1 1.85q-2.55-2.9-3.2-6.5-0.4 3.55 0.8 7.15l0.05 0.1q-0.95 3-3.65 2.3-0.45-1.35-0.95-5.65l-0.1-0.75-0.05-0.55-1.65-8.65q0 2.85-0.7 8.35-0.7 4.95-0.55 7.5l-2.3 1.4q-1.15-2.15-1.5-5.15 0.15-6.05 0.45-10.1 1.1-13.55 1-16.85m4 10.25-0.4-1 0.4 1m-0.1-2.4-0.9-1.5 0.9 1.5m4.25 11.75-0.2-0.35 0.2 0.35m0.1-0.85-0.65-0.45 0.65 0.45" fill="#d9402b" fill-rule="evenodd"/>
<path d="m301.3 214.85q-0.15-2.55 0.55-7.5 0.7-5.5 0.7-8.35l1.65 8.65 0.05 0.55 0.1 0.75q0.5 4.3 0.95 5.65l0.05 0.15 0.25 0.7-4.2 0.25v-0.05l-0.1-0.8m7.65-2.55-0.05-0.1q-1.2-3.6-0.8-7.15 0.65 3.6 3.2 6.5l0.15 0.15 0.45 0.5-2.5 1.25-0.45-1.15" fill="#bf3826" fill-rule="evenodd"/>
<path d="m311.9 212.2 0.15 0.1 1.05 1-0.75 0.05-2.35 1.05h-0.1l-0.5-0.95 2.5-1.25m-5.4 5.15h-1.7q-2.1 0-3.15 0.55l-0.25-2.2 4.2-0.25 0.9 1.9" fill="#d6ac24" fill-rule="evenodd"/>
<path d="m313.1 213.3h0.05l-0.05 0.05v-0.05m0.5-1.3h0.1-0.1" fill="#cf3e29" fill-rule="evenodd"/>
<path d="m300.65 218.45 0.8 0.75v0.05q-2.75 0.25-4.25-1l0.05-1.65 2.4 0.65 0.5 0.65 0.5 0.55" fill="#fede98" fill-rule="evenodd"/>
<path d="m297.25 216.6 0.25-5.5q0.35 3 1.5 5.15l0.65 1-2.4-0.65" fill="#ff8978" fill-rule="evenodd"/>
<path d="m306 179.1-2.9 2.45q-1.75 1.2-4.25 1.8m0.1 0.8 4.2-0.7 2.9-3.75m-0.75 34.9q2.7 0.7 3.65-2.3m2.35-0.75 1-1.85m-0.4 2.5-2.5 1.25m0.5 0.95h0.1l2.35-1.05 0.75-0.05h0.05l0.45-1.3h0.05q-0.65-0.75-1.35-2.3m-1 1.85 0.15 0.15 0.45 0.5m-2.05 2.25-0.25 0.4-0.05 0.5v0.3q-0.2 1.1-1.2 1.45l-1.7 0.25h-1.85q-2.1 0-3.15 0.55l-0.25 0.2-0.75 0.35m0.8 0.8q-2.75 0.25-4.25-1l0.05-1.65m12.6-2.15 0.05-0.05m-8.5 1.25-0.1-0.8m0.15 4.4v-0.05m-0.05-3.5 4.2-0.25" fill="none" stroke="#b38c1e" stroke-linecap="round" stroke-linejoin="round" stroke-opacity=".6"/>
<path d="m298.85 183.35 0.1 0.8m7.1-4.45v-0.35l-0.05-0.25m6.3 30.6q-3-7-6.25-30m-8.8 36.9 0.25-5.5q0.15-6.05 0.45-10.1 1.1-13.55 1-16.85" fill="none" stroke="#6b1f15" stroke-linecap="round" stroke-linejoin="round" stroke-opacity=".6"/>
<path d="m301.95 190.5 0.9 1.5m-0.3 1.4 0.4 1m3.6 8.05 0.65 0.45m-0.3 0.5 0.2 0.35" fill="none" stroke="#6b1f15" stroke-linecap="round" stroke-linejoin="round" stroke-opacity=".6" stroke-width=".05"/>
</g>
</defs>
</svg>
