<?xml version="1.0" encoding="UTF-8"?>
<svg version="1.1" viewBox="0 0 152.35 108.7" xmlns="http://www.w3.org/2000/svg" xmlns:cc="http://creativecommons.org/ns#" xmlns:dc="http://purl.org/dc/elements/1.1/" xmlns:rdf="http://www.w3.org/1999/02/22-rdf-syntax-ns#" xmlns:xlink="http://www.w3.org/1999/xlink">
<metadata>
<rdf:RDF>
<cc:Work rdf:about="">
<dc:format>image/svg+xml</dc:format>
<dc:type rdf:resource="http://purl.org/dc/dcmitype/StillImage"/>
</cc:Work>
</rdf:RDF>
</metadata>
<g transform="translate(-198.78 -146.12)">
<use transform="translate(198.8,146.15)" width="152.3" height="108.65" xlink:href="#a"/>
</g>
<defs>
<g id="a" transform="translate(-198.8,-146.15)">
<path d="m294.6 254.8-2.7-13.25 13.95-2.2q28.4-8.6 38.85-20.05l4.85 9.15q-12.5 20.4-54.95 26.35m-78.8-32.5 4.65 5.9-2.1 8.15-5.9-2.45 3.35-11.6" fill="#a6a5ab" fill-rule="evenodd"/>
<path d="m291.9 241.55-0.85-4.05-4.35-20.2 49.65-13.85 7.15 13.55 1.2 2.3q-10.45 11.45-38.85 20.05l-13.95 2.2m-76.1-19.25 3.3-11.65 5.2 2.6-3.85 14.95-4.65-5.9m75.25 15.2q31.15-2.25 52.45-20.5-21.3 18.25-52.45 20.5" fill="#8e8d94" fill-rule="evenodd"/>
<path d="m283.6 235.1 7.45 2.4-7.45-2.4-3.25-16.05 6.35-1.75 4.35 20.2 0.85 4.05 2.7 13.25-8.35-2.3-2.65-17.4m-63.15-6.9 3.85-14.95 11.95 6-17.9 17.1 2.1-8.15" fill="#706f77" fill-rule="evenodd"/>
<path d="m335.2 201.2-0.5-0.9" fill="none" stroke="#000" stroke-linecap="round" stroke-linejoin="round" stroke-opacity=".4" stroke-width=".05"/>
<path d="m291.05 237.5-7.45-2.4 2.65 17.4 8.35 2.3q42.45-5.95 54.95-26.35l-4.85-9.15-1.2-2.3q-21.3 18.25-52.45 20.5m-4.35-20.2-6.35 1.75 3.25 16.05m-3.25-16.05-0.4-1.5m-55.65-4.3-5.2-2.6-3.3 11.65m8.5-9.05 11.95 6-17.9 17.1-5.9-2.45 3.35-11.6m120.55-18.85-1.15-2.25m8.3 15.8-7.15-13.55-49.65 13.85" fill="none" stroke="#48392d" stroke-linecap="round" stroke-linejoin="round" stroke-opacity=".30196" stroke-width=".05"/>
<path d="m327.45 188-8.55-5.1 20-7.15-20 7.15-8.8-4.95-78.4 7.7 8.7 15.75 7.65 13.75 0.65 1.25-2.85-0.4h-0.05q-13.5-2.05-24.7-6.05-4.85-1.75-8.65-3.65-8.65-4.3-11.8-9.4-1.55-2.5-1.8-5.2v-0.4l-0.05-0.65 0.2-1.95 14.55-6.4-14.55 6.4q0.95-5.55 7.55-10.2l0.05 0.05 6.95 3.75 16.25 8.85-12.05-10.65 4.8-2.1-4.8 2.1-5.85-5.2q2.05-1.1 4.45-2.1l6.2 5.2 4.05 3.4-2.05-4.3q25.55-10.4 53.45-14.1-27.9 3.7-53.45 14.1l-3-6.3q22.15-7.85 53.4-7.85l3.05 0.05q29.6 0.35 50.8 7.95 5.8 2.1 10.1 4.4 3 1.6 5.25 3.3l-16.7 8.95 16.7-8.95 2.45 2.15q4.45 4.3 4.5 9.3v0.35q-0.05 3.15-1.85 6.05l-2.65 3.25-1.3 1.2q-7.7-7.05-17.85-13.35m-87.05 13.4-27.95 4.9 27.95-4.9m7.65 13.75-2.2 0.85 2.2-0.85" fill="#cc9" fill-rule="evenodd"/>
<path d="m318.9 182.9 8.55 5.1q-37.55 14.9-79.4 27.15 41.85-12.25 79.4-27.15 10.15 6.3 17.85 13.35l-5.35 3.65q-26.35 1.55-51.6 12.6 25.25-11.05 51.6-12.6-4.65 2.6-11.15 4.95-17.4 6.25-40.45 7.65-6.5 0.35-13.4 0.35-14.05 0-26.25-1.55l-0.65-1.25-7.65-13.75q42.8-8.6 78.5-18.5-35.7 9.9-78.5 18.5l-8.7-15.75 78.4-7.7 8.8 4.95m-94.35-5.4 2.05 4.3-4.05-3.4 2-0.9-2 0.9-6.2-5.2 4.25-0.15 0.95-1.85 3 6.3m-6.8 3 12.05 10.65-16.25-8.85 4.2-1.8-4.2 1.8-6.95-3.75q2.3 1.15 5.3-3.25l5.85 5.2" fill="#bfbf80" fill-rule="evenodd"/>
<path d="m345.3 201.35 1.3-1.2 2.65-3.25q1.8-2.9 1.85-6.05v12.95q-0.3 4.7-4.5 8.8l-2.45 2.15 1.15-13.4m-146.45-9.65q0.25 2.7 1.8 5.2 3.15 5.1 11.8 9.4 3.8 1.9 8.65 3.65 11.2 4 24.7 6.05h0.05l2.85 0.4-1.9 12.15-11.65-2.1q-7.45-1.65-14.05-4.05-7.4-2.65-12.35-5.65-9.25-5.65-9.9-12.55v-12.5m36.3 34.75 10.65-10.45-10.65 10.45m-26.4-9.7 3.7-10.45-3.7 10.45" fill="#b0b064" fill-rule="evenodd"/>
<path d="m248.7 216.4q12.2 1.55 26.25 1.55 6.9 0 13.4-0.35 7.4 9.1 33.9 1.5 19.05-5.65 17.7-14.1 1.35 8.45-17.7 14.1-26.5 7.6-33.9-1.5 23.05-1.4 40.45-7.65 6.5-2.35 11.15-4.95l5.35-3.65-1.15 13.4q-5.55 4.15-15.35 7.65-22.3 8-53.85 8-15.15 0-28.15-1.85l1.9-12.15" fill="#a2a253" fill-rule="evenodd"/>
<path d="m327.45 188 16.7-8.95q-2.25-1.7-5.25-3.3l-20 7.15q-35.7 9.9-78.5 18.5m7.65 13.75q41.85-12.25 79.4-27.15m23.65 2.85v-0.35q-0.05-5-4.5-9.3l-2.45-2.15m-5.25-3.3q-4.3-2.3-10.1-4.4-21.2-7.6-50.8-7.95-27.9 3.7-53.45 14.1l-2 0.9-4.8 2.1-4.2 1.8-14.55 6.4-0.2 1.95 0.05 0.65v0.4m13.6 14.6 27.95-4.9m-24.05-28.2 4.25-0.15 0.95-1.85q22.15-7.85 53.4-7.85l3.05 0.05m-61.65 9.8q-2.4 1-4.45 2.1m-5.3 3.25-0.05-0.05q-6.6 4.65-7.55 10.2m47.8 39.85q13 1.85 28.15 1.85 31.55 0 53.85-8 9.8-3.5 15.35-7.65m-4.2-9.75q1.35 8.45-17.7 14.1-26.5 7.6-33.9-1.5 25.25-11.05 51.6-12.6m-93.15 23.55-11.65-2.1q-7.45-1.65-14.05-4.05-7.4-2.65-12.35-5.65-9.25-5.65-9.9-12.55v-12.5m46.95 24.3-10.65 10.45m-22.7-20.15-3.7 10.45m37.1-0.75 2.2-0.85m103.05-24.3v12.95q-0.3 4.7-4.5 8.8l-2.45 2.15m-137.55-36.2q2.3 1.15 5.3-3.25" fill="none" stroke="#48392d" stroke-linecap="round" stroke-linejoin="round" stroke-opacity=".30196" stroke-width=".05"/>
<path d="m304.4 163.6 0.35-0.5 0.75-2.25-0.75 2.25-0.35 0.5q-2 2.6-7.6 4.7l5.6-6.35-7.8-6.6q0.5-0.8 0.5-1.75 0-0.8-0.4-1.55l-0.1-0.1 0.3-0.25q5.95 4.4 10.6 9.15 4.8 4.85 8.2 10.15-0.2 1.75-1.1 3.2 0.9-1.45 1.1-3.2 3.3 5.2 5.2 10.8 0.5 1.55 0.5 3.4 0 2.05-1.05 3.7-1.5 2.4-5.05 4.5 3.7-4.3 4.2-8.65l-4.9-10.55q-1.7 2.7-6.35 5l5.15-6.05-7-9.55m-34.5 21.2q-10.9-0.5-19.4-3.05 5.7 4.15 16.6 6.25l-10.25 11.75q-7-1.15-12.85-3.25-9.2-3.3-11.85-7.6l-0.7-1.35 5.75-13.65 7-10.55 9.35-8.5 0.3 0.5q1.2 2.05 5.6 3.6l3.15 0.95q4.1 3.6 11.15 4.2l0.6 7.6q-9 0-16.15-1.6l-5.8-1.65q-6.2-2.25-8.2-5.1 2 2.85 8.2 5.1l5.8 1.65q6.55 3.75 15.15 4.5l-3.45 10.2m-32.7-10.9 0.2 0.3q2.3 3.75 10.35 6.65l2.25 0.75-2.25-0.75q-8.05-2.9-10.35-6.65l-0.2-0.3" fill="#a6a5ab" fill-rule="evenodd"/>
<path d="m304.4 163.6 7 9.55-5.15 6.05q4.65-2.3 6.35-5l4.9 10.55q-0.5 4.35-4.2 8.65-2.8 1.65-6.8 3.1-12.95 4.65-31.25 4.65-10 0-18.4-1.4l10.25-11.75q-10.9-2.1-16.6-6.25 8.5 2.55 19.4 3.05l5.05 0.1q16-0.05 27.3-4.05l4-1.65-4 1.65q-11.3 4-27.3 4.05l-5.05-0.1 3.45-10.2q-8.6-0.75-15.15-4.5 7.15 1.6 16.15 1.6l-0.6-7.6q-7.05-0.6-11.15-4.2 4.8 1.2 10.9 1.25h0.7q8.65 0 14.8-2.2 4.35-1.55 5.6-3.6l7.8 6.6-5.6 6.35q5.6-2.1 7.6-4.7m-7.6 4.7-0.45 0.15q-9.1 3.25-22 3.25 12.9 0 22-3.25l0.45-0.15" fill="#8e8d94" fill-rule="evenodd"/>
<path d="m294.6 151.95 0.1 0.1q0.4 0.75 0.4 1.55 0 0.95-0.5 1.75-1.25 2.05-5.6 3.6-6.15 2.2-14.8 2.2h-0.7q-6.1-0.05-10.9-1.25l-3.15-0.95q-4.4-1.55-5.6-3.6l-0.3-0.5-9.35 8.5-0.15-0.25-0.7-1.5 0.7 1.5 0.15 0.25-7 10.55-5.75 13.65-0.45-1.6-0.2-1.15q-0.3-1.75 0.55-3.75l5.05-9.5 0.85-1.5q2.3-4.15 6.1-8.45 4.5-5.1 11.1-10.45h0.05l0.2-0.2 0.45-0.4q1.5-1.2 4.3-2.2 6.1-2.2 14.75-2.2t14.8 2.2q2.3 0.8 3.75 1.8l0.45 0.3 1.4 1.5m-58.2 19.6q0.15 1.2 0.8 2.35-0.65-1.15-0.8-2.35" fill="#d6d6d8" fill-rule="evenodd"/>
<path d="m305.5 160.85-0.75 2.25-0.35 0.5m1.85 15.6q4.65-2.3 6.35-5 0.9-1.45 1.1-3.2-3.4-5.3-8.2-10.15-4.65-4.75-10.6-9.15m1.9 16.6q5.6-2.1 7.6-4.7m1.85 15.6-4 1.65q-11.3 4-27.3 4.05l-5.05-0.1q-10.9-0.5-19.4-3.05m68.4 0.05q-1.9-5.6-5.2-10.8m-19.1-19.05-1.4-1.5-0.45-0.3q-1.45-1-3.75-1.8-6.15-2.2-14.8-2.2t-14.75 2.2q-2.8 1-4.3 2.2l-0.45 0.4-0.2 0.2m-0.05 0q-6.6 5.35-11.1 10.45l0.7 1.5 0.15 0.25q2 2.85 8.2 5.1l5.8 1.65q7.15 1.6 16.15 1.6 12.9 0 22-3.25l0.45-0.15m-42.1-17.35-0.25 0.2m-17.25 22.75q-0.65-1.15-0.8-2.35l-5.05 9.5m18.65 0.55-2.25-0.75q-8.05-2.9-10.35-6.65l-0.2-0.3m-0.8-2.35 0.85-1.5q2.3-4.15 6.1-8.45m49.85-11.15 1.7 1.25" fill="none" stroke="#48392d" stroke-linecap="round" stroke-linejoin="round" stroke-opacity=".30196" stroke-width=".05"/>
<path d="m256.85 199.75q8.4 1.4 18.4 1.4 18.3 0 31.25-4.65 4-1.45 6.8-3.1 3.55-2.1 5.05-4.5 1.05-1.65 1.05-3.7 0-1.85-0.5-3.4m-87.55-0.75q-0.85 2-0.55 3.75l0.2 1.15 0.45 1.6m25.4 12.2q-7-1.15-12.85-3.25-9.2-3.3-11.85-7.6l-0.7-1.35" fill="none" stroke="#48392d" stroke-linecap="round" stroke-linejoin="round" stroke-opacity=".30196" stroke-width=".05"/>
</g>
</defs>
</svg>
