<?xml version="1.0" encoding="UTF-8"?>
<svg width="70px" height="45px" version="1.1" viewBox="281.8 185.45 70.2 44.5" xmlns="http://www.w3.org/2000/svg" xmlns:xlink="http://www.w3.org/1999/xlink">
<defs>
<g id="a">
<path d="m327.3 219.5v0.1l-0.3-0.05 0.3-0.05m-8.15-30.3-0.2 0.1 0.2-0.1" fill="#c9a83a"/>
<path d="m334.75 194.65-5.05-0.15-0.65 0.1-0.05 0.05q-3.3 0.6-6.3 2.9h-0.15l-1.35 1.15-3.05 3.4q-1.55 3.5-1.7 7.4v1.1l0.65 3.7 1.8 4.5-2.9-2.4-1.65-1.95q-3.2-4.5-3.2-10.3v-1.9q0.75-5.95 4.85-10.3l1.25-1.3 2.9-1.9-1 0.45 0.65-0.7q6.65-3.05 14.3 0h0.55l5.1 3.45 1.9 2.55 1.75 4.4 1 6.65-0.1 0.8-0.75-4.5q-0.9-2.55-2.7-3.95l-3.2-2.25-0.9-0.5-1.4-0.3h-0.45v-0.2h-0.15m-19.35 2.45-0.1 0.05 0.1-0.05m1.05 4.7 0.1-0.05-0.1 0.05" fill="#8ca350"/>
<path d="m318.9 218.8-1.8-4.5-0.65-3.7v-1.1q0.15-3.9 1.7-7.4l3.05-3.4 1.35-1.15h0.15q3-2.3 6.3-2.9l0.05-0.05 0.65-0.1 5.05 0.15 0.15 0.2h0.45l1.4 0.3 0.9 0.5 3.2 2.25q1.8 1.4 2.7 3.95l0.75 4.5-0.25 2.3-0.45 1.8q-1.2 3.05-3.6 5.7l-0.4 0.4-1.65 1.45-3.05 1.9-5.35 1.45-1.65 0.2-2.15-0.2-2.15-0.45-4.4-1.8-0.3-0.3m1.55-1.4 1.8 2.35 1.35 1.15-1.35-1.15-1.8-2.35 3 1.85 0.15 0.1h0.3l2.7 0.2h0.35 0.05l0.3 0.05v-0.1q6.75-0.6 7.7-1.8h0.05l0.05-0.05 4.85-5.4h0.05l2.35-2.9 0.25-2.45v-0.35h-0.15q-0.65-3.7-0.5-4.15l-2.8-4.2-1.2-0.8h-0.15l-1.05-0.45-0.3-0.2-2.75-0.65-0.2-0.15-0.15 0.15-2.85-0.15q-3.55 0.35-6.25 2.45l-2 1.75q-3.65 3.65-3.8 9v0.65 0.15l0.15 2.15v0.1l0.1 0.45q0.25 1.7 0.95 3.2l0.8 1.55m15.5-0.2 0.9-0.5-0.85 0.45-0.05 0.05" fill="#a7c761"/>
<path d="m334.75 194.65h0.15v0.2l-0.15-0.2" fill="#dbcc79"/>
<path d="m336.75 196.95 1.05 0.45h0.15l1.2 0.8 2.8 4.2q-0.15 0.45 0.5 4.15l0.05 0.35h0.1l-0.25 2.45-2.35 2.9h-0.05q-3.9-7.15-5.95-7.15 1.65-2.2 2.45-5.25l0.3-2.9" fill="#4a5629"/>
<path d="m342.45 206.55h0.15l-0.1 0.35-0.05-0.35" fill="#b37233"/>
<path d="m342.6 206.55v0.35h-0.1l0.1-0.35" fill="#8a5f2b"/>
<path d="m333.35 196.1 0.15-0.15 0.2 0.15h-0.35" fill="#f99"/>
<path d="m339.95 212.25-4.85 5.4h-0.05-0.05l-4.55-1.6q-1.85-4.85-5.3-5.7l3.35-0.7 3.9-2.55 0.05-0.05 0.2-0.3 0.2-0.25 0.7-0.8 0.45-0.6q2.05 0 5.95 7.15" fill="#637238"/>
<path d="m318.7 212.65-0.1-0.45v-0.1l0.05 0.1 0.05 0.45m-0.25-2.7v-0.15l0.65 0.15h-0.65m16.65 7.7-0.05 0.05v-0.05h0.05m-8.15 1.9h-0.35l0.7-0.1-0.3 0.05v0.05h-0.05m-3.05-0.2h-0.3l-0.15-0.1 0.45 0.1m8.75-12.6 0.1-0.15 0.1-0.1-0.2 0.25" fill="#6a4e20"/>
<path d="m315.4 197.1-0.1 0.05 0.1-0.05m1.05 4.7 0.1-0.05-0.1 0.05" fill="#0d95c8"/>
<path d="m320.45 217.4-0.8-1.55q-0.7-1.5-0.95-3.2l-0.05-0.45-0.05-0.1-0.15-2.15h0.65l2.85 0.8h1.35l1.85-0.4q3.45 0.85 5.3 5.7l4.55 1.6v0.05q-0.95 1.2-7.7 1.8v-0.05l-0.7 0.1-2.7-0.2-0.45-0.1-3-1.85" fill="#7b8e46"/>
<path d="m327 219.55h-0.05 0.05" fill="#0e96de"/>
<path d="m335.05 217.7h-0.05l0.05-0.05v0.05m-7.75 1.9-0.3-0.05v-0.05h0.3l-0.3 0.05 0.3 0.05" fill="#5c4a23"/>
<path d="m327.3 219.5h-0.3l0.3-0.05v0.05m7.7-1.8 0.05-0.05-0.05 0.05" fill="#9e7041"/>
<path d="m335.95 217.2 0.05-0.05 0.85-0.45-0.9 0.5" fill="#0ea6de"/>
<path d="m335.05 217.65-0.05 0.05v-0.05h0.05" fill="#0a6f94"/>
<path d="m344.3 206.35 0.1-0.8-1-6.65-1.75-4.4-1.9-2.55-5.1-3.45m-0.55 0q-7.65-3.05-14.3 0l-0.65 0.7 1-0.45-2.9 1.9-1.25 1.3q-4.1 4.35-4.85 10.3v1.9q0 5.8 3.2 10.3l1.65 1.95 2.9 2.4 0.3 0.3 4.4 1.8-1.35-1.15-1.8-2.35-0.8-1.55q-0.7-1.5-0.95-3.2l-0.1-0.45v-0.1l-0.15-2.15v-0.15-0.65q0.15-5.35 3.8-9l2-1.75q2.7-2.1 6.25-2.45l2.85 0.15m0.35 0 2.75 0.65 0.3 0.2 1.05 0.45h0.15l1.2 0.8m0.85 14.05h-0.05m-6.25-16.15h-0.35m-8.2 14.25 3.35-0.7 3.9-2.55 0.25-0.35 0.1-0.15 0.1-0.1 0.7-0.8 0.45-0.6q1.65-2.2 2.45-5.25l0.3-2.9m-4.35 10.15 0.05-0.05 0.2-0.3 0.2-0.25m11.45-0.15-0.25 2.3-0.45 1.8q-1.2 3.05-3.6 5.7l-0.4 0.4-1.65 1.45-3.05 1.9-5.35 1.45-1.65 0.2-2.15-0.2-2.15-0.45m1.55-10.55-1.85 0.4h-1.35l-2.85-0.8m14.9-4.85q2.05 0 5.95 7.15m-20.8-23.05-0.2 0.1 0.2-0.1m-0.7 20.6 0.65 0.15" fill="none" stroke="#33444a" stroke-opacity=".63137" stroke-width=".5"/>
<path d="m314.75 206.65q0.75-5.95 4.85-10.3l1.25-1.3 2.9-1.9-1 0.45 0.65-0.7q6.65-3.05 14.3 0l0.8 6.15h-0.15l-5.05-0.15-0.65 0.1-0.05 0.05q-3.3 0.6-6.3 2.9h-0.15l-1.35 1.15-3.05 3.4q-1.55 3.5-1.7 7.4l-1.35-0.5q-2.9-1.3-3.5-5.3l-0.15-0.15-0.3-1.3m5.3-0.45 0.1-0.05-0.1 0.05m-1.05-4.7-0.1 0.05 0.1-0.05" fill="#b0c484"/>
<path d="m322.75 193.6-0.2 0.1 0.2-0.1m7.85 30.35 0.3-0.05v0.1l-0.3-0.05" fill="#c9a83a"/>
<path d="m314.75 206.65 0.3 1.3 0.15 0.15q0.6 4 3.5 5.3l1.35 0.5v1.1l0.65 3.7 1.8 4.5-2.9-2.4-1.65-1.95q-3.2-4.5-3.2-10.3v-1.9m23.75-7.6-0.8-6.15h0.55l5.1 3.45 1.9 2.55 1.75 4.4 1 6.65-0.1 0.8-0.75-4.5q-0.9-2.55-2.7-3.95l-3.2-2.25-0.9-0.5-1.4-0.3h-0.45v-0.2" fill="#8ca350"/>
<path d="m320.05 213.9q0.15-3.9 1.7-7.4l3.05-3.4 1.35-1.15h0.15q3-2.3 6.3-2.9l0.05-0.05 0.65-0.1 5.05 0.15 0.15 0.2h0.45l1.4 0.3 0.9 0.5 3.2 2.25q1.8 1.4 2.7 3.95l0.75 4.5-0.25 2.3-0.45 1.8q-1.2 3.05-3.6 5.7l-0.4 0.4-1.65 1.45-3.05 1.9-5.35 1.45-1.65 0.2-2.15-0.2-2.15-0.45-4.4-1.8-0.3-0.3-1.8-4.5-0.65-3.7v-1.1m20.3-12.55-0.3-0.2-2.75-0.65-0.2-0.15-0.15 0.15-2.85-0.15q-3.55 0.35-6.25 2.45l-2 1.75q-3.65 3.65-3.8 9v0.65 0.15l0.15 2.15v0.1l0.1 0.45q0.25 1.7 0.95 3.2l0.8 1.55 3 1.85 0.15 0.1h0.3l2.7 0.2h0.35 0.05l0.3 0.05v-0.1q6.75-0.6 7.7-1.8h0.05l0.05-0.05 4.85-5.4h0.05l2.35-2.9 0.25-2.45v-0.35h-0.15q-0.65-3.7-0.5-4.15l-2.8-4.2-1.2-0.8h-0.15l-1.05-0.45m-13.15 23.95-1.35-1.15-1.8-2.35 1.8 2.35 1.35 1.15m12.35-3.7 0.9-0.5-0.85 0.45-0.05 0.05" fill="#a7c761"/>
<path d="m338.35 199.05h0.15v0.2l-0.15-0.2" fill="#dbcc79"/>
<path d="m337.6 209.5q1.65-2.2 2.45-5.25l0.3-2.9 1.05 0.45h0.15l1.2 0.8 2.8 4.2q-0.15 0.45 0.5 4.15l0.05 0.35h0.1l-0.25 2.45-2.35 2.9h-0.05q-3.9-7.15-5.95-7.15" fill="#4a5629"/>
<path d="m346.1 211.3-0.05-0.35h0.15l-0.1 0.35" fill="#b37233"/>
<path d="m346.2 211.3h-0.1l0.1-0.35v0.35" fill="#8a5f2b"/>
<path d="m337.3 200.5h-0.35l0.15-0.15 0.2 0.15" fill="#f99"/>
<path d="m328.75 214.75 3.35-0.7 3.9-2.55 0.05-0.05 0.2-0.3 0.2-0.25 0.7-0.8 0.45-0.6q2.05 0 5.95 7.15l-4.85 5.4h-0.05-0.05l-4.55-1.6q-1.85-4.85-5.3-5.7" fill="#637238"/>
<path d="m322.05 214.2 0.65 0.15h-0.65v-0.15m14.2-3.05 0.1-0.15 0.1-0.1-0.2 0.25m-13.95 5.9-0.1-0.45v-0.1l0.05 0.1 0.05 0.45m4.75 6.6 0.45 0.1h-0.3l-0.15-0.1m3.15 0.3 0.7-0.1-0.3 0.05v0.05h-0.05-0.35m8.45-1.9h0.05l-0.05 0.05v-0.05" fill="#6a4e20"/>
<path d="m320.05 206.2 0.1-0.05-0.1 0.05m-1.05-4.7-0.1 0.05 0.1-0.05" fill="#0d95c8"/>
<path d="m322.7 214.35 2.85 0.8h1.35l1.85-0.4q3.45 0.85 5.3 5.7l4.55 1.6v0.05q-0.95 1.2-7.7 1.8v-0.05l-0.7 0.1-2.7-0.2-0.45-0.1-3-1.85-0.8-1.55q-0.7-1.5-0.95-3.2l-0.05-0.45-0.05-0.1-0.15-2.15h0.65" fill="#7b8e46"/>
<path d="m330.55 223.95h0.05-0.05" fill="#0e96de"/>
<path d="m330.6 223.95v-0.05h0.3l-0.3 0.05 0.3 0.05-0.3-0.05m8.05-1.9v0.05h-0.05l0.05-0.05" fill="#5c4a23"/>
<path d="m330.9 223.85v0.05h-0.3l0.3-0.05m7.75-1.8-0.05 0.05 0.05-0.05" fill="#9e7041"/>
<path d="m339.55 221.6 0.05-0.05 0.85-0.45-0.9 0.5" fill="#0ea6de"/>
<path d="m338.6 222.1v-0.05h0.05l-0.05 0.05" fill="#0a6f94"/>
<path d="m322.75 193.6 1-0.45-2.9 1.9-1.25 1.3q-4.1 4.35-4.85 10.3m22.95-13.75q-7.65-3.05-14.3 0l-0.65 0.7-0.2 0.1 0.2-0.1m15.5-0.7 5.1 3.45 1.9 2.55 1.75 4.4 1 6.65-0.1 0.8-0.25 2.3-0.45 1.8q-1.2 3.05-3.6 5.7l-0.4 0.4-1.65 1.45-3.05 1.9-5.35 1.45-1.65 0.2-2.15-0.2-2.15-0.45-4.4-1.8-0.3-0.3-2.9-2.4-1.65-1.95q-3.2-4.5-3.2-10.3v-1.9m22.85 2.85q1.65-2.2 2.45-5.25l0.3-2.9-0.3-0.2-2.75-0.65h-0.35l-2.85-0.15q-3.55 0.35-6.25 2.45l-2 1.75q-3.65 3.65-3.8 9v0.65l0.65 0.15 2.85 0.8h1.35l1.85-0.4 3.35-0.7 3.9-2.55 0.25-0.35 0.1-0.15 0.1-0.1 0.7-0.8 0.45-0.6q2.05 0 5.95 7.15h0.05m-0.85-14.05-1.2-0.8h-0.15l-1.05-0.45m-3.9 9.55-0.2 0.25-0.2 0.3-0.05 0.05m-13.95 2.7v0.15m0.15 2.15v0.1l0.1 0.45m-0.1-0.55-0.15-2.15m2 7.45-0.8-1.55q-0.7-1.5-0.95-3.2m1.75 4.75 1.8 2.35 1.35 1.15" fill="none" stroke="#33444a" stroke-opacity=".63137" stroke-width=".5"/>
<path d="m326.75 197.6 0.65-0.7q6.65-3.05 14.3 0l0.8 6.15h-0.15l-5.05-0.15-0.65 0.1-0.05 0.05q-3.3 0.6-6.3 2.9h-0.15l-1.35 1.15-3.05 3.4q-1.55 3.5-1.7 7.4l-1.35-0.5q-2.9-1.3-3.5-5.3l-0.15-0.15-0.3-1.3q0.75-5.95 4.85-10.3l1.25-1.3 2.9-1.9-1 0.45m-2.7 12.6 0.1-0.05-0.1 0.05m-1.15-4.65 0.1-0.05-0.1 0.05" fill="#b0c484"/>
<path d="m326.75 197.6-0.2 0.1 0.2-0.1m8.15 30.3v0.1l-0.3-0.05 0.3-0.05" fill="#c9a83a"/>
<path d="m341.7 196.9h0.55l5.1 3.45 1.9 2.55 1.75 4.4 1 6.65-0.1 0.8-0.75-4.5q-0.9-2.55-2.7-3.95l-3.2-2.25-0.9-0.5-1.4-0.3h-0.45v-0.2l-0.8-6.15m-15.2 30.3-2.9-2.4-1.65-1.95q-3.2-4.5-3.2-10.3v-1.9l0.3 1.3 0.15 0.15q0.6 4 3.5 5.3l1.35 0.5v1.1l0.65 3.7 1.8 4.5" fill="#8ca350"/>
<path d="m342.35 203.05h0.15v0.2l-0.15-0.2" fill="#dbcc79"/>
<path d="m344.35 205.35 1.05 0.45h0.15l1.2 0.8 2.8 4.2q-0.15 0.45 0.5 4.15l0.05 0.35h0.1l-0.25 2.45-2.35 2.9h-0.05q-3.9-7.15-5.95-7.15 1.65-2.2 2.45-5.25l0.3-2.9" fill="#4a5629"/>
<path d="m350.05 214.95h0.15l-0.1 0.35-0.05-0.35" fill="#b37233"/>
<path d="m350.2 214.95v0.35h-0.1l0.1-0.35" fill="#8a5f2b"/>
<path d="m341.3 204.5h-0.35l0.15-0.15 0.2 0.15" fill="#f99"/>
<path d="m347.55 220.65-4.85 5.4h-0.05-0.05l-4.55-1.6q-1.85-4.85-5.3-5.7l3.35-0.7 3.9-2.55 0.05-0.05 0.2-0.3 0.2-0.25 0.7-0.8 0.45-0.6q2.05 0 5.95 7.15" fill="#637238"/>
<path d="m342.7 226.05-0.05 0.05v-0.05h0.05m-8.15 1.9h-0.35l0.7-0.1-0.3 0.05v0.05h-0.05m-3.05-0.2h-0.3l-0.15-0.1 0.45 0.1m-5.45-9.55 0.65 0.15h-0.65v-0.15m14.2-3.05 0.1-0.15 0.1-0.1-0.2 0.25m-13.95 5.9-0.1-0.45v-0.1l0.05 0.1 0.05 0.45" fill="#6a4e20"/>
<path d="m324.05 210.2 0.1-0.05-0.1 0.05m-1.15-4.65 0.1-0.05-0.1 0.05" fill="#0d95c8"/>
<path d="m342.6 226.1q-0.95 1.2-7.7 1.8v-0.05l-0.7 0.1-2.7-0.2-0.45-0.1-3-1.85-0.8-1.55q-0.7-1.5-0.95-3.2l-0.05-0.45-0.05-0.1-0.15-2.15h0.65l2.85 0.8h1.35l1.85-0.4q3.45 0.85 5.3 5.7l4.55 1.6v0.05" fill="#7b8e46"/>
<path d="m334.6 227.95h-0.05 0.05" fill="#0e96de"/>
<path d="m342.65 226.1h-0.05l0.05-0.05v0.05m-7.75 1.9-0.3-0.05 0.3 0.05m-0.3-0.1h0.3l-0.3 0.05v-0.05" fill="#5c4a23"/>
<path d="m342.65 226.05-0.05 0.05 0.05-0.05m-7.75 1.8v0.05h-0.3l0.3-0.05" fill="#9e7041"/>
<path d="m343.55 225.6 0.05-0.05 0.85-0.45-0.9 0.5" fill="#0ea6de"/>
<path d="m342.6 226.1v-0.05h0.05l-0.05 0.05" fill="#0a6f94"/>
<path d="m351.9 214.75-0.25 2.3-0.45 1.8q-1.2 3.05-3.6 5.7l-0.4 0.4-1.65 1.45-3.05 1.9-5.35 1.45-1.65 0.2-2.15-0.2-2.15-0.45-4.4-1.8-0.3-0.3-1.8-4.5-0.65-3.7v-1.1q0.15-3.9 1.7-7.4l3.05-3.4 1.35-1.15h0.15q3-2.3 6.3-2.9l0.05-0.05 0.65-0.1 5.05 0.15 0.15 0.2h0.45l1.4 0.3 0.9 0.5 3.2 2.25q1.8 1.4 2.7 3.95l0.75 4.5m-5.15-8.15-1.2-0.8h-0.15l-1.05-0.45-0.3-0.2-2.75-0.65-0.2-0.15-0.15 0.15-2.85-0.15q-3.55 0.35-6.25 2.45l-2 1.75q-3.65 3.65-3.8 9v0.65 0.15l0.15 2.15v0.1l0.1 0.45q0.25 1.7 0.95 3.2l0.8 1.55 3 1.85 0.15 0.1h0.3l2.7 0.2h0.35 0.05l0.3 0.05v-0.1q6.75-0.6 7.7-1.8h0.05l0.05-0.05 4.85-5.4h0.05l2.35-2.9 0.25-2.45v-0.35h-0.15q-0.65-3.7-0.5-4.15l-2.8-4.2m-15.55 22.7-1.35-1.15q-1.05-1.1-1.8-2.35 0.75 1.25 1.8 2.35l1.35 1.15m12.35-3.7 0.9-0.5-0.85 0.45-0.05 0.05" fill="#daf0b8"/>
<path d="m326.75 197.6-0.2 0.1 0.2-0.1 0.65-0.7q6.65-3.05 14.3 0m0.55 0 5.1 3.45 1.9 2.55 1.75 4.4 1 6.65-0.1 0.8-0.25 2.3-0.45 1.8q-1.2 3.05-3.6 5.7l-0.4 0.4-1.65 1.45-3.05 1.9-5.35 1.45-1.65 0.2-2.15-0.2-2.15-0.45-4.4-1.8-0.3-0.3-2.9-2.4-1.65-1.95q-3.2-4.5-3.2-10.3v-1.9q0.75-5.95 4.85-10.3l1.25-1.3 2.9-1.9-1 0.45m17.6 7.75 1.05 0.45h0.15l1.2 0.8m0.85 14.05h-0.05m-19.5 5.15q0.75 1.25 1.8 2.35l1.35 1.15m13.15-23.95-0.3-0.2-2.75-0.65h-0.35l-2.85-0.15q-3.55 0.35-6.25 2.45l-2 1.75q-3.65 3.65-3.8 9v0.65l0.65 0.15 2.85 0.8h1.35l1.85-0.4 3.35-0.7 3.9-2.55 0.25-0.35 0.1-0.15 0.1-0.1 0.7-0.8 0.45-0.6q1.65-2.2 2.45-5.25l0.3-2.9m-18.3 12.85v0.15m0.15 2.15v0.1l0.1 0.45m-0.1-0.55-0.15-2.15m14.4-3.45-0.2 0.25-0.2 0.3-0.05 0.05m-11.95 10.3-0.8-1.55q-0.7-1.5-0.95-3.2m15.3-7.55q2.05 0 5.95 7.15" fill="none" stroke="#33444a" stroke-opacity=".63137" stroke-width=".5"/>
<path d="m333.85 200q-1.1 0-1.9-0.4-0.75-0.35-0.75-0.85t0.75-0.9q0.8-0.35 1.9-0.35t1.85 0.35q0.8 0.4 0.8 0.9t-0.8 0.85l-1.85 0.4" fill="#daf0b8"/>
<path d="m329.35 194.7q-1.1 0-1.9-0.4-0.75-0.35-0.75-0.85t0.75-0.9l1.9-0.35q1.1 0 1.85 0.35 0.8 0.4 0.8 0.9t-0.8 0.85q-0.75 0.4-1.85 0.4" fill="#daf0b8"/>
<path d="m330 187.05 2.8 4.55q-4.2-1.9-18.2 0-18.5 5.55-27.2 17.4l5.75-3 7.05 10.05-18.4-2.8 3-15.6 4.8 4.4q17.45-16.35 40.4-15" fill="#b0c484"/>
<path d="m332.8 191.6-8.8 0.65q-22.85 2.95-31.4 13l0.55 0.75-5.75 3q8.7-11.85 27.2-17.4 14-1.9 18.2 0" fill="#8ca350"/>
<path d="m324 192.25q-22.85 2.95-31.4 13l0.55 0.75 7.05 10.05-18.4-2.8 3-15.6 4.8 4.4q17.45-16.35 40.4-15" fill="none" stroke="#33444a" stroke-opacity=".63137" stroke-width=".5"/>
</g>
</defs>
<use xlink:href="#a"/>
</svg>
