<?xml version="1.0" encoding="UTF-8"?>
<svg version="1.1" viewBox="0 0 49.886 40.448" xmlns="http://www.w3.org/2000/svg" xmlns:cc="http://creativecommons.org/ns#" xmlns:dc="http://purl.org/dc/elements/1.1/" xmlns:rdf="http://www.w3.org/1999/02/22-rdf-syntax-ns#" xmlns:xlink="http://www.w3.org/1999/xlink">
<metadata>
<rdf:RDF>
<cc:Work rdf:about="">
<dc:format>image/svg+xml</dc:format>
<dc:type rdf:resource="http://purl.org/dc/dcmitype/StillImage"/>
</cc:Work>
</rdf:RDF>
</metadata>
<g transform="translate(-247.65 -173.27)">
<use transform="matrix(.2447 .039 -.0403 .2517 255.89 171.69)" width="64.150002" height="38.25" xlink:href="#a"/>
<use transform="matrix(-.0979 .1672 .151 .0673 253.6 175.54)" width="64.150002" height="38.25" xlink:href="#a"/>
<use transform="matrix(.2262 .1096 -.1096 .2262 271.64 168.33)" width="64.150002" height="38.25" xlink:href="#a"/>
<use transform="matrix(.1452 .1616 -.1345 .0963 286.95 171.29)" width="64.150002" height="38.25" xlink:href="#a"/>
<use transform="matrix(.8702 -.0781 .059 .9546 249.49 177.87)" width="50.400002" height="19.6" xlink:href="#d"/>
<use transform="matrix(.8702 -.0781 .059 .9546 250.05 188.51)" width="50.5" height="25" xlink:href="#c"/>
<use transform="matrix(.0016 .1353 .1537 .0294 291.64 195.04)" width="64.150002" height="38.25" xlink:href="#a"/>
<use transform="matrix(.0465 .2124 -.1537 .0679 253.71 195.89)" width="64.150002" height="38.25" xlink:href="#a"/>
<use transform="matrix(.2049 .1458 -.1458 .2049 258.8 201.23)" width="64.150002" height="38.25" xlink:href="#a"/>
<use transform="matrix(.2436 .0635 -.0635 .2436 270.14 203.58)" width="64.150002" height="38.25" xlink:href="#a"/>
<use transform="matrix(.2234 -.0352 .0352 .2234 281.14 202.29)" width="64.150002" height="38.25" xlink:href="#a"/>
<use transform="matrix(.0372 .2143 -.1565 .0611 253.21 183.19)" width="64.150002" height="38.25" xlink:href="#a"/>
<use transform="matrix(.2049 .1458 -.1458 .2049 256.6 188.88)" width="64.150002" height="38.25" xlink:href="#a"/>
<use transform="matrix(.0023 .2026 .1537 .0294 290.24 179.54)" width="64.150002" height="38.25" xlink:href="#a"/>
<use transform="matrix(.225 -.0224 .0224 .225 279.59 190.49)" width="64.150002" height="38.25" xlink:href="#a"/>
<use transform="matrix(.2436 .0635 -.0635 .2436 267.94 191.23)" width="64.150002" height="38.25" xlink:href="#a"/>
<use transform="matrix(.1293 .0024 -.0024 .1293 279.19 200.34)" width="64.150002" height="38.25" xlink:href="#a"/>
<use transform="matrix(.1091 .0691 -.0691 .1091 267.6 200.29)" width="64.150002" height="38.25" xlink:href="#a"/>
<use transform="translate(270.2,197)" width="12.05" height="15.35" xlink:href="#b"/>
<use transform="matrix(.0677 .0758 -.0734 .076 256.05 198.29)" width="64.150002" height="38.25" xlink:href="#a"/>
<use transform="matrix(-.0361 .0937 .0659 .0683 291.35 193.49)" width="64.150002" height="38.25" xlink:href="#a"/>
</g>
<defs>
<g id="a" transform="translate(.05 .05)">
<use transform="translate(-.05 -.05)" width="64.150002" height="38.25" xlink:href="#e"/>
</g>
<g id="e" transform="translate(.05 .05)">
<path d="m58.35 5.15q2.1 1.85 3.25 3.7 0.45 1.45 0 2.9-0.4 1.5-1.3 2.5-1.6 1.15-4.15 1.4-2.1-0.3-3.1-1-1.45-1.3-2-2.65l-1.55 1.65-0.8-0.5-0.55 1.2-1 0.4-0.9-0.3-0.35 0.8-1.9 0.75-0.85-0.6-0.3 1.05-1.95 0.75-0.8-1.15-0.05 0.1q0 0.85-0.4 1.55l-2.05 0.8 1.3-1.4q-8.85 4.35-18.25 8l3.45-0.7q-3.25 2.1-7 3.4l-2.05 2 0.6 2.95q0.15 1.3-0.65 2.25-1.1 0.7-3.25 1.05-1.65-0.35-2.4-1.25-1.05-2.25-0.8-4.7l-0.55 0.7h-3.15q-1.5-0.35-3-1.9-0.75-2.15 0-4.1l0.35-2.95 0.95-1.45q2.05-1.4 4.45-1.6 3.45 1.55 5.25 3.3l14.6-5.95 14.85-7.5 2.35-0.9 0.5-2.1 1.2-2.65q1.4-1.95 4.2-3l3 1.25q1.3 1.2 1.85 2.35 0.3 1.1 0 2.15l2.05-0.4 0.9-0.2m-3.75 0.75 0.8-0.15-0.8 0.1-1.3 0.1-0.55 2.05q-3.1 2.05-7 1.4 1.25 0.25 2.45 0.75 2.85 0.95 5.25-0.85 1.75-1.4 1.15-3.4m-42.4 16.45 0.65-0.25-0.65 0.25m42-10.4 0.1 0.2 1.65 1.05q1.65-0.2 2.85-1.5v-0.15q0.1-1.4-0.45-2.7l0.05 0.4-0.35-0.9-0.15-0.1-0.35-0.35 0.2 0.35q0.3 0.7 0.2 1.4l-0.2 0.05-0.65 0.15 0.15 0.05 0.65 0.35-1.05 0.3 0.8 0.1 0.25 0.2v0.35l-0.1 0.3-0.85-0.15 0.3 0.3q0.25 0.25-0.1 0.45l-0.4 0.05-0.7-0.3-0.05-0.1-0.1 0.55q0 0.4-0.4 0.3l-1.3-0.65m-28.45 8.45 8.4-4.5-21.25 9.35 2.95-0.45 9.9-4.4" fill="#675f4e" fill-rule="evenodd"/>
<path d="m8.55 30.1q-0.25 2.45 0.8 4.7 0.75 0.9 2.4 1.25 2.15-0.35 3.25-1.05 0.8-0.95 0.65-2.25l-0.6-2.95 2.05-2q3.75-1.3 7-3.4l-3.45 0.7q9.4-3.65 18.25-8l-1.3 1.4 2.05-0.8q0.4-0.7 0.4-1.55l0.05-0.1 0.8 1.15 1.95-0.75 0.3-1.05 0.85 0.6 1.9-0.75 0.35-0.8 0.9 0.3 1-0.4 0.55-1.2 0.8 0.5 1.55-1.65q0.55 1.35 2 2.65 1 0.7 3.1 1 2.55-0.25 4.15-1.4 0.9-1 1.3-2.5 0.45-1.45 0-2.9-1.15-1.85-3.25-3.7 1.9 0.15 3.3 1.1 1.7 1.6 2.4 3.4 0.05 2.25-0.85 4.5-0.65 1.05-2.05 2.1-1.7 1.15-3.75 1.55-1.5 0-3.15-0.75l-3.3-1.65-20.75 8.25-12.45 6.6 0.1 3.8q-0.15 0.8-1.05 1.75l-1.75 1.55q-0.9 0.6-2.7 0.8-2.6-0.3-3.5-0.8-1.2-0.9-1.45-1.95-0.4-1.4 0-2.8-1.65 0.3-2.3 0-2.95-0.9-4.3-2.6-1.15-2.65-0.6-5.15l2-3-0.35 2.95q-0.75 1.95 0 4.1 1.5 1.55 3 1.9h3.15l-0.6 0.7v1.1-1.1l0.6-0.7 0.55-0.7m48.9-24.75-2.05 0.4q0.3-1.05 0-2.15-0.55-1.15-1.85-2.35l-3-1.25h3.05q2.45 0.65 3.35 1.65 0.65 1.5 0.5 3v0.7m-2.85 0.55q0.6 2-1.15 3.4-2.4 1.8-5.25 0.85-1.2-0.5-2.45-0.75 3.9 0.65 7-1.4l0.55-2.05 1.3-0.1v0.05m-0.4 6.05 1.3 0.65q0.4 0.1 0.4-0.3l0.1-0.55 0.05 0.1 0.7 0.3 0.4-0.05q0.35-0.2 0.1-0.45l-0.3-0.3 0.85 0.15 0.1-0.3v-0.35l-0.25-0.2-0.8-0.1 1.05-0.3-0.65-0.35-0.15-0.05 0.65-0.15 0.2-0.05q0.1-0.7-0.2-1.4l-0.2-0.35 0.35 0.35 0.15 0.1 0.35 0.9-0.05-0.4q0.55 1.3 0.45 2.7v0.15q-1.2 1.3-2.85 1.5l-1.65-1.05-0.1-0.2m-4.05 3.1 0.8 0.35-0.8-0.35m-24.4 5.35-9.9 4.4-2.95 0.45 21.25-9.35-8.4 4.5m-8 9.85-0.05-1.4 0.05 1.4" fill="#58503f" fill-rule="evenodd"/>
<path d="m58.35 5.15-0.9 0.2-2.05 0.4m-4.85-5.75q-2.8 1.05-4.2 3l-1.2 2.65-0.5 2.1-2.35 0.9-14.85 7.5-14.6 5.95-0.65 0.25m46.15-17.2q1.9 0.15 3.3 1.1 1.7 1.6 2.4 3.4 0.05 2.25-0.85 4.5-0.65 1.05-2.05 2.1-1.7 1.15-3.75 1.55-1.5 0-3.15-0.75l-3.3-1.65-20.75 8.25-12.45 6.6 0.1 3.8q-0.15 0.8-1.05 1.75l-1.75 1.55q-0.9 0.6-2.7 0.8-2.6-0.3-3.5-0.8-1.2-0.9-1.45-1.95-0.4-1.4 0-2.8-1.65 0.3-2.3 0-2.95-0.9-4.3-2.6-1.15-2.65-0.6-5.15l2-3 0.95-1.45q2.05-1.4 4.45-1.6 3.45 1.55 5.25 3.3m37.7-22.1h3.05q2.45 0.65 3.35 1.65 0.65 1.5 0.5 3v0.7m-6.5 10.05-0.8-0.35m-32.45 13.8 0.05 1.4m-9.75 0.55 0.55-0.7m-1.15 2.5v-1.1l0.6-0.7" fill="none" stroke="#373123" stroke-linecap="round" stroke-linejoin="round" stroke-opacity=".50196" stroke-width=".1"/>
</g>
<g id="d" transform="translate(25.2,5.6)">
<path d="m-23.9 6.15-0.1-0.65q0-3.65 4.75-6.4l2.2-1.1q7-3.05 16.9-3.05t16.85 3.05q3.65 1.6 5.4 3.6 1.35 1.5 1.55 3.25l0.05 0.65v0.1l-0.2 8.35q-1.65-1.9-4.45-3.25l-1.45-0.7q-7.3-3.2-17.8-3.2-6.55 0-12.05 1.3-3 0.75-5.8 1.9-3.95 1.75-5.9 4l0.05-7.85" fill="#423029" fill-rule="evenodd"/>
<path d="m-25.2 5.6v-0.2q0-3.6 4.65-6.4l2.7-1.4q7.4-3.2 17.85-3.2t17.8 3.2q2.7 1.2 4.4 2.55 2.7 2.15 3 4.7v0.75h-1.5v-0.1l-0.05-0.65q-0.2-1.75-1.55-3.25-1.75-2-5.4-3.6-6.95-3.05-16.85-3.05t-16.9 3.05l-2.2 1.1q-4.75 2.75-4.75 6.4l0.1 0.65-1.3-0.55" fill="#837469" fill-rule="evenodd"/>
<path d="m25.2 5.6v-0.75q-0.3-2.55-3-4.7-1.7-1.35-4.4-2.55-7.35-3.2-17.8-3.2t-17.85 3.2l-2.7 1.4q-4.65 2.8-4.65 6.4v0.2m48.7 8.35q-1.65-1.9-4.45-3.25l-1.45-0.7q-7.3-3.2-17.8-3.2-6.55 0-12.05 1.3-3 0.75-5.8 1.9-3.95 1.75-5.9 4" fill="none" stroke="#000" stroke-linecap="round" stroke-linejoin="round" stroke-width=".05"/>
</g>
<g id="c" transform="translate(25.3,7.4)">
<path d="m-22.2 6.6-2.95-0.25-0.05-0.45v-13.3l0.4 1.8q0.7 1.8 2.8 3.4l-0.2 8.8" fill="#82614f" fill-rule="evenodd"/>
<path d="m-25.2-7.4h1.2l0.4 1.65q0.55 1.45 1.95 2.7l1.4 1.05q1.05 0.8 2.75 1.5 1.95 0.85 2.8 1.1l1.15 0.4q5.85 1.75 13.4 1.8l6.8-0.4q4.5-0.6 8.15-1.95l3.65-1.6 2.75-1.8 0.05-0.05q1.5-1.3 2.05-2.75l0.4-1.65h1.5v13.3q0 2.4-2 4.45l-45.4-3.75 0.2-8.8q-2.1-1.6-2.8-3.4l-0.4-1.8" fill="#8b7d73" fill-rule="evenodd"/>
<path d="m25.2-7.4v13.3q0 2.4-2 4.45m-48.35-4-0.05-0.45" fill="none" stroke="#121212" stroke-linecap="round" stroke-linejoin="round" stroke-width=".05"/>
<path d="m9.25 3.45 0.7-0.1v0.05l-0.7 0.05" fill="#ad8263" fill-rule="evenodd"/>
<path d="m-22.1-1.4 1.65 1.1 2.5 1.25 0.55 0.25 2.7 1 1.05 0.3 3.35 0.8 0.15 0.05q0.2 1 11.95 1.2l2.1-0.45 2.75-0.25 1.15-0.15 1.45-0.25 0.7-0.05v-0.05l0.35-0.1 4.55-1.2 3.05-1.15 0.3-0.15-0.7 11.85q-0.15 0.8-1 1.4-0.9 0.5-1.85 1.5l-5.9 1.55-0.1 0.05-1.15 0.15-0.65 0.05q-9.45 0.9-19.6-1.05l-5.2-1.8-2.45-1.25q-1.5-1.35-1.85-2.8l-0.1-0.95 0.25-10.85" fill="#544a43" fill-rule="evenodd"/>
<path d="m-25.3-6.6 0.4 1.8q0.7 1.8 2.8 3.4l-0.25 10.85 0.1 0.95q0.35 1.45 1.85 2.8-4.9-2.8-4.9-6.5v-13.3m43.5 7.35 3.35-1.85 0.1 10.55-0.2 1.4q-0.65 1.8-2.65 3.15l-1.1 0.45-1.35 0.6-1.7 0.45q0.95-1 1.85-1.5 0.85-0.6 1-1.4l0.7-11.85" fill="#3f3833" fill-rule="evenodd"/>
<path d="m21.55-1.1q2.4-1.7 3.2-3.7l0.35-1.8v13.3q0 3.35-3.95 5.95l-2.35 1.35q2-1.35 2.65-3.15l0.2-1.4-0.1-10.55" fill="#322d2b" fill-rule="evenodd"/>
<path d="m-25.3-6.6h1.2l0.4 1.65q0.55 1.45 1.95 2.7l1.4 1.05q1.05 0.8 2.75 1.5l2.8 1.1 1.15 0.4 4 0.95 9.4 0.85 6.8-0.4q4.5-0.6 8.15-1.95l3.65-1.6 2.75-1.8 0.05-0.05q1.5-1.3 2.05-2.75l0.4-1.65h1.5l-0.35 1.8q-0.8 2-3.2 3.7l-3.35 1.85-0.3 0.15-3.05 1.15-4.55 1.2-0.35 0.1-0.7 0.1-1.45 0.25-1.15 0.15-2.75 0.25-2.1 0.45q-11.75-0.2-11.95-1.2l-0.15-0.05-3.35-0.8-1.05-0.3-2.7-1-0.55-0.25-2.5-1.25-1.65-1.1q-2.1-1.6-2.8-3.4l-0.4-1.8" fill="#8b7d73" fill-rule="evenodd"/>
</g>
<g id="b" transform="translate(-270.2,-197)">
<path d="m273.05 197.35 1.3-0.3q3.05-0.25 5 1.1 1.25 0.8 1.9 3l0.05 0.25 0.85 0.55q-0.4 0-0.8 0.3l-1.6 1.5-1-0.25q1.65-2.1 2.5-2.1h0.05-0.05q-3.4-3.95-7.5-3.7l-0.6-0.25-0.1-0.1m0.05 5q2-0.05 3.2 0.65l0.1 0.1q1.1 0.65 1.25 1.15l-0.8-0.5q-1.15-0.55-2.75-0.6l-1-0.8" fill="#fff" fill-rule="evenodd"/>
<path d="m273.05 197.4v-0.05l0.1 0.1-0.1-0.05m8.25 7.65 0.35 1.25-0.05-0.05-0.35-1.15 0.05-0.05" fill="#fff6d9" fill-rule="evenodd"/>
<path d="m279.9 209.1 0.4 0.7-0.75 0.15 0.25-0.7 0.1-0.15m-0.35-3.75-0.05-0.05h0.05v0.05" fill="#ba9b89" fill-rule="evenodd"/>
<path d="m281.4 204.25 0.1 0.25-0.05 0.25-0.05 0.05-0.1 0.25-0.25 0.25-0.25 0.3-0.65 0.35-0.75 0.1h-0.15q-0.35-0.2-0.35-0.6v-0.25l0.6 0.1 0.05 0.05 1.85-1.1m-7.8 0.9 0.1-0.2v-0.05h0.1l1.15 0.2 2 0.5v0.1l-0.05 0.05-0.2 0.35-0.2 0.1-0.45 0.2-0.8 0.1q-0.65-0.1-1.1-0.5l-0.5-0.55-0.05-0.25v-0.05" fill="#3c3837" fill-rule="evenodd"/>
<path d="m282.15 201.95q0.25 0.5-0.3 1.9l-0.45 0.4-1.85 1.1v-0.05l0.2-1.55 1.6-1.5q0.4-0.3 0.8-0.3m-0.5 4.35 0.2 1.1-1.8 1.55-0.15 0.15-0.1 0.15-0.25 0.7-0.15 0.25-1.75 0.4 1.75-0.4 0.15-0.25 0.75-0.15v1.55l-4.3 1-0.1-1.75 0.4-0.05 0.05 0.1 1.3-0.05 0.05-0.3 0.05-0.5 0.1 0.05 0.25-2.1-0.55-0.1-0.05-0.7-0.2-1.3 0.2-0.35-3.55-0.6 0.1-0.25 0.1-0.5-0.05-0.8q1.6 0.05 2.75 0.6l0.8 0.5q-0.15-0.5-1.25-1.15l-0.1-0.1q-0.9-1.1-2-1.65 0.4-2.8-0.55-3.65 4.1-0.25 7.5 3.7-0.85 0-2.5 2.1-0.45 1.9-0.05 1.65l0.2 0.05v0.25q0 0.4 0.35 0.6h0.15l0.35 1.1 1.85-0.9 0.05 0.05m-4-2.05-0.15 1.05 0.15-1.05m1.65 5.35 0.4-0.35-0.7-1.85-0.55 0.3 0.85 1.9" fill="#f3ebda" fill-rule="evenodd"/>
<path d="m276 212.35-4.4-3.4-0.05-1.7-0.35-0.3q0.25-0.25-0.75-3.35-0.65-2.65 0.35-4.05 1-1.6 2.25-2.15l0.1 0.05 0.6 0.25q0.95 0.85 0.55 3.65 1.1 0.55 2 1.65-1.2-0.7-3.2-0.65h-0.05q-0.75 1.65-0.4 1.65l0.5 0.5 0.55 0.4v0.05l-0.1 0.2v0.05l0.05 0.25-0.6-0.05-0.2 1.45 3.85 0.95v-1.7l0.2-0.35 0.05-0.05v-0.1l0.35 0.05 0.2 1.3 0.05 0.7-0.2 0.05v1.95l0.4 0.15-0.05 0.5-0.05 0.3-1.3 0.05-0.05-0.1-0.95-1.25-1.55-0.4 2.1 1.7 0.1 1.75m-4.45-5.1 1.9 1.55 0.35 0.1-0.35-0.1-1.9-1.55" fill="#a79d91" fill-rule="evenodd"/>
<path d="m278.75 203.5 1 0.25-0.2 1.55h-0.05l-0.6-0.1-0.2-0.05q-0.4 0.25 0.05-1.65m-5.1 1.95 0.5 0.55q0.45 0.4 1.1 0.5l0.8-0.1 0.45-0.2 0.2-0.1v1.7l-3.85-0.95 0.2-1.45 0.6 0.05m3.3 0.15-2-0.5-1.15-0.2h-0.1l-0.55-0.4-0.5-0.5q-0.35 0 0.4-1.65h0.05l1 0.8 0.05 0.8-0.1 0.5-0.1 0.25 3.55 0.6-0.2 0.35-0.35-0.05m0.6 2.05 0.55 0.1-0.25 2.1-0.1-0.05-0.4-0.15v-1.95l0.2-0.05m-3.75 1.25 1.55 0.4 0.95 1.25-0.4 0.05-2.1-1.7m7.8-2.65-1.85 0.9-0.35-1.1 0.75-0.1 0.65-0.35 0.25-0.3 0.2-0.2 0.35 1.15m-2.3 3.35-0.85-1.9 0.55-0.3 0.7 1.85-0.4 0.35" fill="#918475" fill-rule="evenodd"/>
<path d="m273.05 197.4v-0.05l1.3-0.3q3.05-0.25 5 1.1 1.25 0.8 1.9 3l0.05 0.25m0 3.65 0.35 1.25 0.2 1.1-1.8 1.55-0.15 0.15m-8.35-1.85-0.35-0.3q0.25-0.25-0.75-3.35-0.65-2.65 0.35-4.05 1-1.6 2.25-2.15m0.1 0.05-0.1-0.1m4.6 13.25 1.75-0.4 0.15-0.25 0.25-0.7 0.1-0.15m-3.6 1.45-0.95-1.25-1.55-0.4-0.35-0.1-1.9-1.55m4.75 3.3 0.05 0.1 1.3-0.05" fill="none" stroke="#7b6040" stroke-linecap="round" stroke-linejoin="round" stroke-opacity=".6" stroke-width=".05"/>
<path d="m281.3 201.4 0.85 0.55m-0.85-0.55h-0.05q-0.85 0-2.5 2.1m-5.65-1.15q2-0.05 3.2 0.65m1.35 1.25q-0.15-0.5-1.25-1.15l-0.1-0.1" fill="none" stroke="#7b6040" stroke-linecap="round" stroke-linejoin="round" stroke-opacity=".6" stroke-width=".05"/>
<path d="m280.3 209.8v1.55l-4.3 1-4.4-3.4-0.05-1.7" fill="none" stroke="#997e71" stroke-linecap="round" stroke-linejoin="round" stroke-opacity=".70196" stroke-width=".05"/>
<path d="m273.6 205.15v0.05" fill="none" stroke="#9d9d9d" stroke-linecap="round" stroke-linejoin="round" stroke-width=".05"/>
<path d="m282.15 201.95q0.25 0.5-0.3 1.9m-4.35 1.45 0.15-1.05" fill="none" stroke="#736157" stroke-linecap="round" stroke-linejoin="round" stroke-opacity=".70196" stroke-width=".05"/>
</g>
</defs>
</svg>
