<?xml version="1.0" encoding="UTF-8" standalone="no"?>
<!DOCTYPE svg PUBLIC "-//W3C//DTD SVG 1.1//EN" "http://www.w3.org/Graphics/SVG/1.1/DTD/svg11.dtd">
<svg width="100%" height="100%" viewBox="0 0 266 234" version="1.1" xmlns="http://www.w3.org/2000/svg" xmlns:xlink="http://www.w3.org/1999/xlink" xml:space="preserve" xmlns:serif="http://www.serif.com/" style="fill-rule:evenodd;clip-rule:evenodd;stroke-linecap:round;stroke-linejoin:round;">
    <g transform="matrix(1,0,0,1,-159.842,-73.3943)">
        <g transform="matrix(1,0,0,1,287.6,190.85)">
            <g id="sprite0">
                <g id="sprite1" transform="matrix(1.21,1.5415,2.1628,-0.5795,10.4009,-64.5993)">
                    <g id="shape0">
                        <path d="M-31.85,-21.15L-31.85,-20.95C-31.983,-15.95 -31.183,-10.917 -29.45,-5.85C-27.75,-0.883 -25.283,3.75 -22.05,8.05C-18.917,12.183 -15.067,15.433 -10.5,17.8C-5.833,20.2 -0.933,21.183 4.2,20.75C9.467,20.383 14.417,18.833 19.05,16.1C22.35,14.133 25.15,11.733 27.45,8.9C30.55,5.167 32,1 31.8,-3.6C33.533,-3.433 34.583,-1.9 34.95,1C31.583,11.333 24.05,18.3 12.35,21.9C-15.05,27.667 -30.8,13.317 -34.9,-21.15L-31.85,-21.15" style="fill:#685417;"/>
                        <path d="M-30.15,-21.15C-26.617,9.183 -12.733,21.2 11.5,14.9C19.967,12.8 25.467,7 28,-2.5C29.5,-3.367 30.767,-3.733 31.8,-3.6C32,1 30.55,5.167 27.45,8.9C25.15,11.733 22.35,14.133 19.05,16.1C14.417,18.833 9.467,20.383 4.2,20.75C-0.933,21.183 -5.833,20.2 -10.5,17.8C-15.067,15.433 -18.917,12.183 -22.05,8.05C-25.283,3.75 -27.75,-0.883 -29.45,-5.85C-31.183,-10.917 -31.983,-15.95 -31.85,-20.95L-31.85,-21.15L-30.15,-21.15" style="fill:#514100;"/>
                        <path d="M31.8,-3.6C30.767,-3.733 29.5,-3.367 28,-2.5C25.467,7 19.967,12.8 11.5,14.9C-12.733,21.2 -26.617,9.183 -30.15,-21.15M31.8,-3.6C33.533,-3.433 34.583,-1.9 34.95,1C31.583,11.333 24.05,18.3 12.35,21.9C-15.05,27.667 -30.8,13.317 -34.9,-21.15" style="fill:none;fill-rule:nonzero;stroke:#000;stroke-opacity:0.4;stroke-width:0.05px;"/>
                    </g>
                </g>
                <g id="sprite11" serif:id="sprite1" transform="matrix(1.0896,1.3881,2.1628,-0.5795,8.20006,-74.501)">
                    <g id="shape01" serif:id="shape0">
                        <path d="M-31.85,-21.15L-31.85,-20.95C-31.983,-15.95 -31.183,-10.917 -29.45,-5.85C-27.75,-0.883 -25.283,3.75 -22.05,8.05C-18.917,12.183 -15.067,15.433 -10.5,17.8C-5.833,20.2 -0.933,21.183 4.2,20.75C9.467,20.383 14.417,18.833 19.05,16.1C22.35,14.133 25.15,11.733 27.45,8.9C30.55,5.167 32,1 31.8,-3.6C33.533,-3.433 34.583,-1.9 34.95,1C31.583,11.333 24.05,18.3 12.35,21.9C-15.05,27.667 -30.8,13.317 -34.9,-21.15L-31.85,-21.15" style="fill:#a88725;"/>
                        <path d="M-30.15,-21.15C-26.617,9.183 -12.733,21.2 11.5,14.9C19.967,12.8 25.467,7 28,-2.5C29.5,-3.367 30.767,-3.733 31.8,-3.6C32,1 30.55,5.167 27.45,8.9C25.15,11.733 22.35,14.133 19.05,16.1C14.417,18.833 9.467,20.383 4.2,20.75C-0.933,21.183 -5.833,20.2 -10.5,17.8C-15.067,15.433 -18.917,12.183 -22.05,8.05C-25.283,3.75 -27.75,-0.883 -29.45,-5.85C-31.183,-10.917 -31.983,-15.95 -31.85,-20.95L-31.85,-21.15L-30.15,-21.15" style="fill:#836900;"/>
                        <path d="M31.8,-3.6C30.767,-3.733 29.5,-3.367 28,-2.5C25.467,7 19.967,12.8 11.5,14.9C-12.733,21.2 -26.617,9.183 -30.15,-21.15M31.8,-3.6C33.533,-3.433 34.583,-1.9 34.95,1C31.583,11.333 24.05,18.3 12.35,21.9C-15.05,27.667 -30.8,13.317 -34.9,-21.15" style="fill:none;fill-rule:nonzero;stroke:#000;stroke-opacity:0.4;stroke-width:0.05px;"/>
                    </g>
                </g>
                <g id="sprite12" serif:id="sprite1" transform="matrix(1.128,1.4371,-1.7096,0.4581,-73.7013,-45.8498)">
                    <g id="shape02" serif:id="shape0">
                        <path d="M-31.85,-21.15L-31.85,-20.95C-31.983,-15.95 -31.183,-10.917 -29.45,-5.85C-27.75,-0.883 -25.283,3.75 -22.05,8.05C-18.917,12.183 -15.067,15.433 -10.5,17.8C-5.833,20.2 -0.933,21.183 4.2,20.75C9.467,20.383 14.417,18.833 19.05,16.1C22.35,14.133 25.15,11.733 27.45,8.9C30.55,5.167 32,1 31.8,-3.6C33.533,-3.433 34.583,-1.9 34.95,1C31.583,11.333 24.05,18.3 12.35,21.9C-15.05,27.667 -30.8,13.317 -34.9,-21.15L-31.85,-21.15" style="fill:#685417;"/>
                        <path d="M-30.15,-21.15C-26.617,9.183 -12.733,21.2 11.5,14.9C19.967,12.8 25.467,7 28,-2.5C29.5,-3.367 30.767,-3.733 31.8,-3.6C32,1 30.55,5.167 27.45,8.9C25.15,11.733 22.35,14.133 19.05,16.1C14.417,18.833 9.467,20.383 4.2,20.75C-0.933,21.183 -5.833,20.2 -10.5,17.8C-15.067,15.433 -18.917,12.183 -22.05,8.05C-25.283,3.75 -27.75,-0.883 -29.45,-5.85C-31.183,-10.917 -31.983,-15.95 -31.85,-20.95L-31.85,-21.15L-30.15,-21.15" style="fill:#514100;"/>
                        <path d="M31.8,-3.6C30.767,-3.733 29.5,-3.367 28,-2.5C25.467,7 19.967,12.8 11.5,14.9C-12.733,21.2 -26.617,9.183 -30.15,-21.15M31.8,-3.6C33.533,-3.433 34.583,-1.9 34.95,1C31.583,11.333 24.05,18.3 12.35,21.9C-15.05,27.667 -30.8,13.317 -34.9,-21.15" style="fill:none;fill-rule:nonzero;stroke:#000;stroke-opacity:0.4;stroke-width:0.05px;"/>
                    </g>
                </g>
                <g id="sprite13" serif:id="sprite1" transform="matrix(1.0671,1.3594,-1.7096,0.4581,-73.6988,-52.4504)">
                    <g id="shape03" serif:id="shape0">
                        <path d="M-31.85,-21.15L-31.85,-20.95C-31.983,-15.95 -31.183,-10.917 -29.45,-5.85C-27.75,-0.883 -25.283,3.75 -22.05,8.05C-18.917,12.183 -15.067,15.433 -10.5,17.8C-5.833,20.2 -0.933,21.183 4.2,20.75C9.467,20.383 14.417,18.833 19.05,16.1C22.35,14.133 25.15,11.733 27.45,8.9C30.55,5.167 32,1 31.8,-3.6C33.533,-3.433 34.583,-1.9 34.95,1C31.583,11.333 24.05,18.3 12.35,21.9C-15.05,27.667 -30.8,13.317 -34.9,-21.15L-31.85,-21.15" style="fill:#a88725;"/>
                        <path d="M-30.15,-21.15C-26.617,9.183 -12.733,21.2 11.5,14.9C19.967,12.8 25.467,7 28,-2.5C29.5,-3.367 30.767,-3.733 31.8,-3.6C32,1 30.55,5.167 27.45,8.9C25.15,11.733 22.35,14.133 19.05,16.1C14.417,18.833 9.467,20.383 4.2,20.75C-0.933,21.183 -5.833,20.2 -10.5,17.8C-15.067,15.433 -18.917,12.183 -22.05,8.05C-25.283,3.75 -27.75,-0.883 -29.45,-5.85C-31.183,-10.917 -31.983,-15.95 -31.85,-20.95L-31.85,-21.15L-30.15,-21.15" style="fill:#836900;"/>
                        <path d="M31.8,-3.6C30.767,-3.733 29.5,-3.367 28,-2.5C25.467,7 19.967,12.8 11.5,14.9C-12.733,21.2 -26.617,9.183 -30.15,-21.15M31.8,-3.6C33.533,-3.433 34.583,-1.9 34.95,1C31.583,11.333 24.05,18.3 12.35,21.9C-15.05,27.667 -30.8,13.317 -34.9,-21.15" style="fill:none;fill-rule:nonzero;stroke:#000;stroke-opacity:0.4;stroke-width:0.05px;"/>
                    </g>
                </g>
                <g id="sprite2" transform="matrix(-0.1563,0.3061,-0.3218,-0.1659,32.7073,66.0474)">
                    <g id="shape1">
                        <path d="M28.35,-130.2C31.817,-128.2 35.1,-125.633 38.2,-122.5C40.233,-120.133 41.633,-117.467 42.4,-114.5C46.167,-99.367 44.117,-84.85 36.25,-70.95C32.683,-64.517 27.567,-61.7 20.9,-62.5C15.233,-63.2 10.6,-65.383 7,-69.05C19.967,-63.25 29.333,-67.5 35.1,-81.8C38.467,-90.7 39.017,-99.733 36.75,-108.9L36.95,-109L38.8,-106.5C37.3,-115.3 33.817,-123.2 28.35,-130.2M-47.2,-53.45C-48.067,-45.383 -48.35,-37.233 -48.05,-29C-47.383,-9.067 -50.367,10.4 -57,29.4C-62.1,44.067 -71.2,55.133 -84.3,62.6L-88.05,64.6L-88.05,49.55L-87.7,49.35C-75.733,43.017 -67.15,33.283 -61.95,20.15C-56.75,8.017 -53.4,-4.483 -51.9,-17.35L-48.35,-45.9L-47.2,-53.45" style="fill:#ffa448;"/>
                        <path d="M7,-69.05C5.433,-70.617 4.067,-72.45 2.9,-74.55C-0.933,-81.383 -1.55,-88.767 1.05,-96.7C3.083,-102.9 6.867,-105.4 12.4,-104.2C21.167,-102.333 23.3,-97.683 18.8,-90.25C19.4,-91.65 19.617,-93.033 19.45,-94.4C19.017,-97.667 17.317,-99.833 14.35,-100.9C10.35,-102.367 7.5,-100.883 5.8,-96.45C0.1,-82.517 4.2,-73.533 18.1,-69.5C20.933,-68.667 23.4,-69.3 25.5,-71.4C37.2,-83 39.783,-96.6 33.25,-112.2C30.717,-118.3 26.567,-122.767 20.8,-125.6C10.467,-130.633 0.067,-130.267 -10.4,-124.5C-19.233,-119.633 -26.383,-112.9 -31.85,-104.3C-36.583,-96.933 -40.017,-88.983 -42.15,-80.45C-44.283,-72.483 -45.85,-64.45 -46.85,-56.35L-47.2,-53.55L-47.2,-53.45L-48.35,-45.9L-51.9,-17.35C-53.4,-4.483 -56.75,8.017 -61.95,20.15C-67.15,33.283 -75.733,43.017 -87.7,49.35L-88.05,49.55L-88.05,33.4L-85.1,31.25C-75.9,24.05 -68.55,15.05 -63.05,4.25C-56.617,-8.617 -53.2,-22.25 -52.8,-36.65C-52.5,-50.283 -50.717,-63.767 -47.45,-77.1C-44.117,-90.833 -38.4,-103.5 -30.3,-115.1C-22.167,-126.9 -11.517,-133.583 1.65,-135.15C11.583,-136.383 20.483,-134.733 28.35,-130.2C33.817,-123.2 37.3,-115.3 38.8,-106.5L36.95,-109L36.75,-108.9C39.017,-99.733 38.467,-90.7 35.1,-81.8C29.333,-67.5 19.967,-63.25 7,-69.05" style="fill:#c60;"/>
                        <path d="M28.35,-130.2C31.817,-128.2 35.1,-125.633 38.2,-122.5C40.233,-120.133 41.633,-117.467 42.4,-114.5C46.167,-99.367 44.117,-84.85 36.25,-70.95C32.683,-64.517 27.567,-61.7 20.9,-62.5C15.233,-63.2 10.6,-65.383 7,-69.05C5.433,-70.617 4.067,-72.45 2.9,-74.55C-0.933,-81.383 -1.55,-88.767 1.05,-96.7C3.083,-102.9 6.867,-105.4 12.4,-104.2C21.167,-102.333 23.3,-97.683 18.8,-90.25C19.4,-91.65 19.617,-93.033 19.45,-94.4C19.017,-97.667 17.317,-99.833 14.35,-100.9C10.35,-102.367 7.5,-100.883 5.8,-96.45C0.1,-82.517 4.2,-73.533 18.1,-69.5C20.933,-68.667 23.4,-69.3 25.5,-71.4C37.2,-83 39.783,-96.6 33.25,-112.2C30.717,-118.3 26.567,-122.767 20.8,-125.6C10.467,-130.633 0.067,-130.267 -10.4,-124.5C-19.233,-119.633 -26.383,-112.9 -31.85,-104.3C-36.583,-96.933 -40.017,-88.983 -42.15,-80.45C-44.283,-72.483 -45.85,-64.45 -46.85,-56.35L-47.2,-53.55M-47.2,-53.45C-48.067,-45.383 -48.35,-37.233 -48.05,-29C-47.383,-9.067 -50.367,10.4 -57,29.4C-62.1,44.067 -71.2,55.133 -84.3,62.6L-88.05,64.6M-88.05,33.4L-85.1,31.25C-75.9,24.05 -68.55,15.05 -63.05,4.25C-56.617,-8.617 -53.2,-22.25 -52.8,-36.65C-52.5,-50.283 -50.717,-63.767 -47.45,-77.1C-44.117,-90.833 -38.4,-103.5 -30.3,-115.1C-22.167,-126.9 -11.517,-133.583 1.65,-135.15C11.583,-136.383 20.483,-134.733 28.35,-130.2L-88.05,33.4Z" style="fill:none;fill-rule:nonzero;stroke:#000;stroke-opacity:0.4;stroke-width:1px;"/>
                        <path d="M72.3,-7.8C69.233,-14.1 68.383,-21.05 69.75,-28.65C71.383,-37.583 76.85,-42.917 86.15,-44.65C106.217,-48.65 124.767,-44.867 141.8,-33.3C145.133,-31.033 147.85,-28.067 149.95,-24.4C152.583,-19.067 154.45,-13.7 155.55,-8.3C149.117,-18.433 140.817,-26.4 130.65,-32.2L132.95,-28.7L132.75,-28.5C122.417,-35.5 111.15,-38.783 98.95,-38.35C79.183,-37.25 70.3,-27.067 72.3,-7.8M-142.6,73.6C-137.833,65.733 -131.85,58.367 -124.65,51.5C-110.383,37.933 -93.267,31.1 -73.3,31C-47.433,30.867 -22.433,35.633 1.7,45.3C11.633,49.3 21.717,52.533 31.95,55L22.25,53.15L-14.05,45.1C-30.417,41.333 -47.033,40.117 -63.9,41.45C-82,42.35 -97.283,49.1 -109.75,61.7C-122.417,74.433 -130.65,89.7 -134.45,107.5L-134.8,107.4C-135.467,94.733 -133.867,82.35 -130,70.25L-133.2,74.45C-139.267,82.083 -143.333,90.583 -145.4,99.95L-145.5,96.55C-145.6,88.75 -144.633,81.1 -142.6,73.6" style="fill:#ffa448;"/>
                        <path d="M72.3,-7.8C70.3,-27.067 79.183,-37.25 98.95,-38.35C111.15,-38.783 122.417,-35.5 132.75,-28.5L132.95,-28.7L130.65,-32.2C140.817,-26.4 149.117,-18.433 155.55,-8.3C157.95,3.8 156.467,15.983 151.1,28.25C144,44.45 131.65,55.183 114.05,60.45C96.65,65.75 78.9,67.517 60.8,65.75C43.2,64.05 26,60.4 9.2,54.8C-8.6,48.933 -26.617,47.3 -44.85,49.9C-60.25,52.2 -74.15,57.683 -86.55,66.35C-103.35,78.05 -111,92.95 -109.5,111.05C-109.233,114.45 -107.483,116.867 -104.25,118.3C-102.15,119.167 -99.983,119.733 -97.75,120C-110.783,127.9 -124.367,128.3 -138.5,121.2L-131.6,135.55C-138.233,133.183 -142.717,128.65 -145.05,121.95C-146.95,116.55 -147.767,111 -147.5,105.3C-150.233,108.6 -152.3,112.2 -153.7,116.1L-155.6,121.7L-156.65,121.9C-156.083,104.167 -151.4,88.067 -142.6,73.6C-144.633,81.1 -145.6,88.75 -145.5,96.55L-145.4,99.95C-143.333,90.583 -139.267,82.083 -133.2,74.45L-130,70.25C-133.867,82.35 -135.467,94.733 -134.8,107.4L-134.45,107.5C-130.65,89.7 -122.417,74.433 -109.75,61.7C-97.283,49.1 -82,42.35 -63.9,41.45C-47.033,40.117 -30.417,41.333 -14.05,45.1L22.25,53.15L31.95,55L32.05,55L35.65,55.8C45.917,58.1 56.35,59.633 66.95,60.4C78.217,61.433 89.3,60.533 100.2,57.7C112.867,54.467 123.917,48.25 133.35,39.05C144.517,28.117 149.05,14.883 146.95,-0.65C145.75,-9.317 141.917,-16.617 135.45,-22.55C118.883,-37.85 101.217,-40.533 82.45,-30.6C79.05,-28.833 77.3,-25.95 77.2,-21.95C76.7,-2.283 86.1,6.967 105.4,5.8C111.467,5.567 114.4,2.55 114.2,-3.25C114.067,-7.55 112.083,-10.683 108.25,-12.65C106.617,-13.483 104.833,-13.817 102.9,-13.65C113.767,-16.183 118.617,-11.4 117.45,0.7C116.717,8.367 112.167,12.133 103.8,12C93.067,11.867 84.283,7.833 77.45,-0.1C75.317,-2.567 73.6,-5.133 72.3,-7.8" style="fill:#c60;"/>
                        <path d="M155.55,-8.3C154.45,-13.7 152.583,-19.067 149.95,-24.4C147.85,-28.067 145.133,-31.033 141.8,-33.3C124.767,-44.867 106.217,-48.65 86.15,-44.65C76.85,-42.917 71.383,-37.583 69.75,-28.65C68.383,-21.05 69.233,-14.1 72.3,-7.8C73.6,-5.133 75.317,-2.567 77.45,-0.1C84.283,7.833 93.067,11.867 103.8,12C112.167,12.133 116.717,8.367 117.45,0.7C118.617,-11.4 113.767,-16.183 102.9,-13.65C104.833,-13.817 106.617,-13.483 108.25,-12.65C112.083,-10.683 114.067,-7.55 114.2,-3.25C114.4,2.55 111.467,5.567 105.4,5.8C86.1,6.967 76.7,-2.283 77.2,-21.95C77.3,-25.95 79.05,-28.833 82.45,-30.6C101.217,-40.533 118.883,-37.85 135.45,-22.55C141.917,-16.617 145.75,-9.317 146.95,-0.65C149.05,14.883 144.517,28.117 133.35,39.05C123.917,48.25 112.867,54.467 100.2,57.7C89.3,60.533 78.217,61.433 66.95,60.4C56.35,59.633 45.917,58.1 35.65,55.8L32.05,55M155.55,-8.3C157.95,3.8 156.467,15.983 151.1,28.25C144,44.45 131.65,55.183 114.05,60.45C96.65,65.75 78.9,67.517 60.8,65.75C43.2,64.05 26,60.4 9.2,54.8C-8.6,48.933 -26.617,47.3 -44.85,49.9C-60.25,52.2 -74.15,57.683 -86.55,66.35C-103.35,78.05 -111,92.95 -109.5,111.05C-109.233,114.45 -107.483,116.867 -104.25,118.3C-102.15,119.167 -99.983,119.733 -97.75,120M-138.5,121.2L-131.6,135.55M-147.5,105.3C-150.233,108.6 -152.3,112.2 -153.7,116.1L-155.6,121.7L-156.65,121.9C-156.083,104.167 -151.4,88.067 -142.6,73.6C-137.833,65.733 -131.85,58.367 -124.65,51.5C-110.383,37.933 -93.267,31.1 -73.3,31C-47.433,30.867 -22.433,35.633 1.7,45.3C11.633,49.3 21.717,52.533 31.95,55" style="fill:none;fill-rule:nonzero;stroke:#000;stroke-opacity:0.4;stroke-width:1px;"/>
                    </g>
                </g>
                <g id="sprite21" serif:id="sprite2" transform="matrix(0.0177,0.3433,0.3519,-0.0168,-80.0037,32.8495)">
                    <g id="shape11" serif:id="shape1">
                        <path d="M28.35,-130.2C31.817,-128.2 35.1,-125.633 38.2,-122.5C40.233,-120.133 41.633,-117.467 42.4,-114.5C46.167,-99.367 44.117,-84.85 36.25,-70.95C32.683,-64.517 27.567,-61.7 20.9,-62.5C15.233,-63.2 10.6,-65.383 7,-69.05C19.967,-63.25 29.333,-67.5 35.1,-81.8C38.467,-90.7 39.017,-99.733 36.75,-108.9L36.95,-109L38.8,-106.5C37.3,-115.3 33.817,-123.2 28.35,-130.2M-47.2,-53.45C-48.067,-45.383 -48.35,-37.233 -48.05,-29C-47.383,-9.067 -50.367,10.4 -57,29.4C-62.1,44.067 -71.2,55.133 -84.3,62.6L-88.05,64.6L-88.05,49.55L-87.7,49.35C-75.733,43.017 -67.15,33.283 -61.95,20.15C-56.75,8.017 -53.4,-4.483 -51.9,-17.35L-48.35,-45.9L-47.2,-53.45" style="fill:#ffa448;"/>
                        <path d="M7,-69.05C5.433,-70.617 4.067,-72.45 2.9,-74.55C-0.933,-81.383 -1.55,-88.767 1.05,-96.7C3.083,-102.9 6.867,-105.4 12.4,-104.2C21.167,-102.333 23.3,-97.683 18.8,-90.25C19.4,-91.65 19.617,-93.033 19.45,-94.4C19.017,-97.667 17.317,-99.833 14.35,-100.9C10.35,-102.367 7.5,-100.883 5.8,-96.45C0.1,-82.517 4.2,-73.533 18.1,-69.5C20.933,-68.667 23.4,-69.3 25.5,-71.4C37.2,-83 39.783,-96.6 33.25,-112.2C30.717,-118.3 26.567,-122.767 20.8,-125.6C10.467,-130.633 0.067,-130.267 -10.4,-124.5C-19.233,-119.633 -26.383,-112.9 -31.85,-104.3C-36.583,-96.933 -40.017,-88.983 -42.15,-80.45C-44.283,-72.483 -45.85,-64.45 -46.85,-56.35L-47.2,-53.55L-47.2,-53.45L-48.35,-45.9L-51.9,-17.35C-53.4,-4.483 -56.75,8.017 -61.95,20.15C-67.15,33.283 -75.733,43.017 -87.7,49.35L-88.05,49.55L-88.05,33.4L-85.1,31.25C-75.9,24.05 -68.55,15.05 -63.05,4.25C-56.617,-8.617 -53.2,-22.25 -52.8,-36.65C-52.5,-50.283 -50.717,-63.767 -47.45,-77.1C-44.117,-90.833 -38.4,-103.5 -30.3,-115.1C-22.167,-126.9 -11.517,-133.583 1.65,-135.15C11.583,-136.383 20.483,-134.733 28.35,-130.2C33.817,-123.2 37.3,-115.3 38.8,-106.5L36.95,-109L36.75,-108.9C39.017,-99.733 38.467,-90.7 35.1,-81.8C29.333,-67.5 19.967,-63.25 7,-69.05" style="fill:#c60;"/>
                        <path d="M28.35,-130.2C31.817,-128.2 35.1,-125.633 38.2,-122.5C40.233,-120.133 41.633,-117.467 42.4,-114.5C46.167,-99.367 44.117,-84.85 36.25,-70.95C32.683,-64.517 27.567,-61.7 20.9,-62.5C15.233,-63.2 10.6,-65.383 7,-69.05C5.433,-70.617 4.067,-72.45 2.9,-74.55C-0.933,-81.383 -1.55,-88.767 1.05,-96.7C3.083,-102.9 6.867,-105.4 12.4,-104.2C21.167,-102.333 23.3,-97.683 18.8,-90.25C19.4,-91.65 19.617,-93.033 19.45,-94.4C19.017,-97.667 17.317,-99.833 14.35,-100.9C10.35,-102.367 7.5,-100.883 5.8,-96.45C0.1,-82.517 4.2,-73.533 18.1,-69.5C20.933,-68.667 23.4,-69.3 25.5,-71.4C37.2,-83 39.783,-96.6 33.25,-112.2C30.717,-118.3 26.567,-122.767 20.8,-125.6C10.467,-130.633 0.067,-130.267 -10.4,-124.5C-19.233,-119.633 -26.383,-112.9 -31.85,-104.3C-36.583,-96.933 -40.017,-88.983 -42.15,-80.45C-44.283,-72.483 -45.85,-64.45 -46.85,-56.35L-47.2,-53.55M-47.2,-53.45C-48.067,-45.383 -48.35,-37.233 -48.05,-29C-47.383,-9.067 -50.367,10.4 -57,29.4C-62.1,44.067 -71.2,55.133 -84.3,62.6L-88.05,64.6M-88.05,33.4L-85.1,31.25C-75.9,24.05 -68.55,15.05 -63.05,4.25C-56.617,-8.617 -53.2,-22.25 -52.8,-36.65C-52.5,-50.283 -50.717,-63.767 -47.45,-77.1C-44.117,-90.833 -38.4,-103.5 -30.3,-115.1C-22.167,-126.9 -11.517,-133.583 1.65,-135.15C11.583,-136.383 20.483,-134.733 28.35,-130.2L-88.05,33.4Z" style="fill:none;fill-rule:nonzero;stroke:#000;stroke-opacity:0.4;stroke-width:1px;"/>
                        <path d="M72.3,-7.8C69.233,-14.1 68.383,-21.05 69.75,-28.65C71.383,-37.583 76.85,-42.917 86.15,-44.65C106.217,-48.65 124.767,-44.867 141.8,-33.3C145.133,-31.033 147.85,-28.067 149.95,-24.4C152.583,-19.067 154.45,-13.7 155.55,-8.3C149.117,-18.433 140.817,-26.4 130.65,-32.2L132.95,-28.7L132.75,-28.5C122.417,-35.5 111.15,-38.783 98.95,-38.35C79.183,-37.25 70.3,-27.067 72.3,-7.8M-142.6,73.6C-137.833,65.733 -131.85,58.367 -124.65,51.5C-110.383,37.933 -93.267,31.1 -73.3,31C-47.433,30.867 -22.433,35.633 1.7,45.3C11.633,49.3 21.717,52.533 31.95,55L22.25,53.15L-14.05,45.1C-30.417,41.333 -47.033,40.117 -63.9,41.45C-82,42.35 -97.283,49.1 -109.75,61.7C-122.417,74.433 -130.65,89.7 -134.45,107.5L-134.8,107.4C-135.467,94.733 -133.867,82.35 -130,70.25L-133.2,74.45C-139.267,82.083 -143.333,90.583 -145.4,99.95L-145.5,96.55C-145.6,88.75 -144.633,81.1 -142.6,73.6" style="fill:#ffa448;"/>
                        <path d="M72.3,-7.8C70.3,-27.067 79.183,-37.25 98.95,-38.35C111.15,-38.783 122.417,-35.5 132.75,-28.5L132.95,-28.7L130.65,-32.2C140.817,-26.4 149.117,-18.433 155.55,-8.3C157.95,3.8 156.467,15.983 151.1,28.25C144,44.45 131.65,55.183 114.05,60.45C96.65,65.75 78.9,67.517 60.8,65.75C43.2,64.05 26,60.4 9.2,54.8C-8.6,48.933 -26.617,47.3 -44.85,49.9C-60.25,52.2 -74.15,57.683 -86.55,66.35C-103.35,78.05 -111,92.95 -109.5,111.05C-109.233,114.45 -107.483,116.867 -104.25,118.3C-102.15,119.167 -99.983,119.733 -97.75,120C-110.783,127.9 -124.367,128.3 -138.5,121.2L-131.6,135.55C-138.233,133.183 -142.717,128.65 -145.05,121.95C-146.95,116.55 -147.767,111 -147.5,105.3C-150.233,108.6 -152.3,112.2 -153.7,116.1L-155.6,121.7L-156.65,121.9C-156.083,104.167 -151.4,88.067 -142.6,73.6C-144.633,81.1 -145.6,88.75 -145.5,96.55L-145.4,99.95C-143.333,90.583 -139.267,82.083 -133.2,74.45L-130,70.25C-133.867,82.35 -135.467,94.733 -134.8,107.4L-134.45,107.5C-130.65,89.7 -122.417,74.433 -109.75,61.7C-97.283,49.1 -82,42.35 -63.9,41.45C-47.033,40.117 -30.417,41.333 -14.05,45.1L22.25,53.15L31.95,55L32.05,55L35.65,55.8C45.917,58.1 56.35,59.633 66.95,60.4C78.217,61.433 89.3,60.533 100.2,57.7C112.867,54.467 123.917,48.25 133.35,39.05C144.517,28.117 149.05,14.883 146.95,-0.65C145.75,-9.317 141.917,-16.617 135.45,-22.55C118.883,-37.85 101.217,-40.533 82.45,-30.6C79.05,-28.833 77.3,-25.95 77.2,-21.95C76.7,-2.283 86.1,6.967 105.4,5.8C111.467,5.567 114.4,2.55 114.2,-3.25C114.067,-7.55 112.083,-10.683 108.25,-12.65C106.617,-13.483 104.833,-13.817 102.9,-13.65C113.767,-16.183 118.617,-11.4 117.45,0.7C116.717,8.367 112.167,12.133 103.8,12C93.067,11.867 84.283,7.833 77.45,-0.1C75.317,-2.567 73.6,-5.133 72.3,-7.8" style="fill:#c60;"/>
                        <path d="M155.55,-8.3C154.45,-13.7 152.583,-19.067 149.95,-24.4C147.85,-28.067 145.133,-31.033 141.8,-33.3C124.767,-44.867 106.217,-48.65 86.15,-44.65C76.85,-42.917 71.383,-37.583 69.75,-28.65C68.383,-21.05 69.233,-14.1 72.3,-7.8C73.6,-5.133 75.317,-2.567 77.45,-0.1C84.283,7.833 93.067,11.867 103.8,12C112.167,12.133 116.717,8.367 117.45,0.7C118.617,-11.4 113.767,-16.183 102.9,-13.65C104.833,-13.817 106.617,-13.483 108.25,-12.65C112.083,-10.683 114.067,-7.55 114.2,-3.25C114.4,2.55 111.467,5.567 105.4,5.8C86.1,6.967 76.7,-2.283 77.2,-21.95C77.3,-25.95 79.05,-28.833 82.45,-30.6C101.217,-40.533 118.883,-37.85 135.45,-22.55C141.917,-16.617 145.75,-9.317 146.95,-0.65C149.05,14.883 144.517,28.117 133.35,39.05C123.917,48.25 112.867,54.467 100.2,57.7C89.3,60.533 78.217,61.433 66.95,60.4C56.35,59.633 45.917,58.1 35.65,55.8L32.05,55M155.55,-8.3C157.95,3.8 156.467,15.983 151.1,28.25C144,44.45 131.65,55.183 114.05,60.45C96.65,65.75 78.9,67.517 60.8,65.75C43.2,64.05 26,60.4 9.2,54.8C-8.6,48.933 -26.617,47.3 -44.85,49.9C-60.25,52.2 -74.15,57.683 -86.55,66.35C-103.35,78.05 -111,92.95 -109.5,111.05C-109.233,114.45 -107.483,116.867 -104.25,118.3C-102.15,119.167 -99.983,119.733 -97.75,120M-138.5,121.2L-131.6,135.55M-147.5,105.3C-150.233,108.6 -152.3,112.2 -153.7,116.1L-155.6,121.7L-156.65,121.9C-156.083,104.167 -151.4,88.067 -142.6,73.6C-137.833,65.733 -131.85,58.367 -124.65,51.5C-110.383,37.933 -93.267,31.1 -73.3,31C-47.433,30.867 -22.433,35.633 1.7,45.3C11.633,49.3 21.717,52.533 31.95,55" style="fill:none;fill-rule:nonzero;stroke:#000;stroke-opacity:0.4;stroke-width:1px;"/>
                    </g>
                </g>
                <g id="sprite14" serif:id="sprite1" transform="matrix(0.9432,1.2017,-1.7096,0.4581,-73.7015,-59.0489)">
                    <g id="shape04" serif:id="shape0">
                        <path d="M-31.85,-21.15L-31.85,-20.95C-31.983,-15.95 -31.183,-10.917 -29.45,-5.85C-27.75,-0.883 -25.283,3.75 -22.05,8.05C-18.917,12.183 -15.067,15.433 -10.5,17.8C-5.833,20.2 -0.933,21.183 4.2,20.75C9.467,20.383 14.417,18.833 19.05,16.1C22.35,14.133 25.15,11.733 27.45,8.9C30.55,5.167 32,1 31.8,-3.6C33.533,-3.433 34.583,-1.9 34.95,1C31.583,11.333 24.05,18.3 12.35,21.9C-15.05,27.667 -30.8,13.317 -34.9,-21.15L-31.85,-21.15" style="fill:#c19c2b;"/>
                        <path d="M-30.15,-21.15C-26.617,9.183 -12.733,21.2 11.5,14.9C19.967,12.8 25.467,7 28,-2.5C29.5,-3.367 30.767,-3.733 31.8,-3.6C32,1 30.55,5.167 27.45,8.9C25.15,11.733 22.35,14.133 19.05,16.1C14.417,18.833 9.467,20.383 4.2,20.75C-0.933,21.183 -5.833,20.2 -10.5,17.8C-15.067,15.433 -18.917,12.183 -22.05,8.05C-25.283,3.75 -27.75,-0.883 -29.45,-5.85C-31.183,-10.917 -31.983,-15.95 -31.85,-20.95L-31.85,-21.15L-30.15,-21.15" style="fill:#977900;"/>
                        <path d="M31.8,-3.6C30.767,-3.733 29.5,-3.367 28,-2.5C25.467,7 19.967,12.8 11.5,14.9C-12.733,21.2 -26.617,9.183 -30.15,-21.15M31.8,-3.6C33.533,-3.433 34.583,-1.9 34.95,1C31.583,11.333 24.05,18.3 12.35,21.9C-15.05,27.667 -30.8,13.317 -34.9,-21.15" style="fill:none;fill-rule:nonzero;stroke:#000;stroke-opacity:0.4;stroke-width:0.05px;"/>
                    </g>
                </g>
                <g id="sprite15" serif:id="sprite1" transform="matrix(0.9432,1.2017,2.1628,-0.5795,8.1988,-81.0989)">
                    <g id="shape05" serif:id="shape0">
                        <path d="M-31.85,-21.15L-31.85,-20.95C-31.983,-15.95 -31.183,-10.917 -29.45,-5.85C-27.75,-0.883 -25.283,3.75 -22.05,8.05C-18.917,12.183 -15.067,15.433 -10.5,17.8C-5.833,20.2 -0.933,21.183 4.2,20.75C9.467,20.383 14.417,18.833 19.05,16.1C22.35,14.133 25.15,11.733 27.45,8.9C30.55,5.167 32,1 31.8,-3.6C33.533,-3.433 34.583,-1.9 34.95,1C31.583,11.333 24.05,18.3 12.35,21.9C-15.05,27.667 -30.8,13.317 -34.9,-21.15L-31.85,-21.15" style="fill:#c19c2b;"/>
                        <path d="M-30.15,-21.15C-26.617,9.183 -12.733,21.2 11.5,14.9C19.967,12.8 25.467,7 28,-2.5C29.5,-3.367 30.767,-3.733 31.8,-3.6C32,1 30.55,5.167 27.45,8.9C25.15,11.733 22.35,14.133 19.05,16.1C14.417,18.833 9.467,20.383 4.2,20.75C-0.933,21.183 -5.833,20.2 -10.5,17.8C-15.067,15.433 -18.917,12.183 -22.05,8.05C-25.283,3.75 -27.75,-0.883 -29.45,-5.85C-31.183,-10.917 -31.983,-15.95 -31.85,-20.95L-31.85,-21.15L-30.15,-21.15" style="fill:#977900;"/>
                        <path d="M31.8,-3.6C30.767,-3.733 29.5,-3.367 28,-2.5C25.467,7 19.967,12.8 11.5,14.9C-12.733,21.2 -26.617,9.183 -30.15,-21.15M31.8,-3.6C33.533,-3.433 34.583,-1.9 34.95,1C31.583,11.333 24.05,18.3 12.35,21.9C-15.05,27.667 -30.8,13.317 -34.9,-21.15" style="fill:none;fill-rule:nonzero;stroke:#000;stroke-opacity:0.4;stroke-width:0.05px;"/>
                    </g>
                </g>
                <g id="sprite22" serif:id="sprite2" transform="matrix(0.1059,0.327,-0.3467,0.1108,89.0968,-0.35481)">
                    <g id="shape12" serif:id="shape1">
                        <path d="M28.35,-130.2C31.817,-128.2 35.1,-125.633 38.2,-122.5C40.233,-120.133 41.633,-117.467 42.4,-114.5C46.167,-99.367 44.117,-84.85 36.25,-70.95C32.683,-64.517 27.567,-61.7 20.9,-62.5C15.233,-63.2 10.6,-65.383 7,-69.05C19.967,-63.25 29.333,-67.5 35.1,-81.8C38.467,-90.7 39.017,-99.733 36.75,-108.9L36.95,-109L38.8,-106.5C37.3,-115.3 33.817,-123.2 28.35,-130.2M-47.2,-53.45C-48.067,-45.383 -48.35,-37.233 -48.05,-29C-47.383,-9.067 -50.367,10.4 -57,29.4C-62.1,44.067 -71.2,55.133 -84.3,62.6L-88.05,64.6L-88.05,49.55L-87.7,49.35C-75.733,43.017 -67.15,33.283 -61.95,20.15C-56.75,8.017 -53.4,-4.483 -51.9,-17.35L-48.35,-45.9L-47.2,-53.45" style="fill:#ffa448;"/>
                        <path d="M7,-69.05C5.433,-70.617 4.067,-72.45 2.9,-74.55C-0.933,-81.383 -1.55,-88.767 1.05,-96.7C3.083,-102.9 6.867,-105.4 12.4,-104.2C21.167,-102.333 23.3,-97.683 18.8,-90.25C19.4,-91.65 19.617,-93.033 19.45,-94.4C19.017,-97.667 17.317,-99.833 14.35,-100.9C10.35,-102.367 7.5,-100.883 5.8,-96.45C0.1,-82.517 4.2,-73.533 18.1,-69.5C20.933,-68.667 23.4,-69.3 25.5,-71.4C37.2,-83 39.783,-96.6 33.25,-112.2C30.717,-118.3 26.567,-122.767 20.8,-125.6C10.467,-130.633 0.067,-130.267 -10.4,-124.5C-19.233,-119.633 -26.383,-112.9 -31.85,-104.3C-36.583,-96.933 -40.017,-88.983 -42.15,-80.45C-44.283,-72.483 -45.85,-64.45 -46.85,-56.35L-47.2,-53.55L-47.2,-53.45L-48.35,-45.9L-51.9,-17.35C-53.4,-4.483 -56.75,8.017 -61.95,20.15C-67.15,33.283 -75.733,43.017 -87.7,49.35L-88.05,49.55L-88.05,33.4L-85.1,31.25C-75.9,24.05 -68.55,15.05 -63.05,4.25C-56.617,-8.617 -53.2,-22.25 -52.8,-36.65C-52.5,-50.283 -50.717,-63.767 -47.45,-77.1C-44.117,-90.833 -38.4,-103.5 -30.3,-115.1C-22.167,-126.9 -11.517,-133.583 1.65,-135.15C11.583,-136.383 20.483,-134.733 28.35,-130.2C33.817,-123.2 37.3,-115.3 38.8,-106.5L36.95,-109L36.75,-108.9C39.017,-99.733 38.467,-90.7 35.1,-81.8C29.333,-67.5 19.967,-63.25 7,-69.05" style="fill:#c60;"/>
                        <path d="M28.35,-130.2C31.817,-128.2 35.1,-125.633 38.2,-122.5C40.233,-120.133 41.633,-117.467 42.4,-114.5C46.167,-99.367 44.117,-84.85 36.25,-70.95C32.683,-64.517 27.567,-61.7 20.9,-62.5C15.233,-63.2 10.6,-65.383 7,-69.05C5.433,-70.617 4.067,-72.45 2.9,-74.55C-0.933,-81.383 -1.55,-88.767 1.05,-96.7C3.083,-102.9 6.867,-105.4 12.4,-104.2C21.167,-102.333 23.3,-97.683 18.8,-90.25C19.4,-91.65 19.617,-93.033 19.45,-94.4C19.017,-97.667 17.317,-99.833 14.35,-100.9C10.35,-102.367 7.5,-100.883 5.8,-96.45C0.1,-82.517 4.2,-73.533 18.1,-69.5C20.933,-68.667 23.4,-69.3 25.5,-71.4C37.2,-83 39.783,-96.6 33.25,-112.2C30.717,-118.3 26.567,-122.767 20.8,-125.6C10.467,-130.633 0.067,-130.267 -10.4,-124.5C-19.233,-119.633 -26.383,-112.9 -31.85,-104.3C-36.583,-96.933 -40.017,-88.983 -42.15,-80.45C-44.283,-72.483 -45.85,-64.45 -46.85,-56.35L-47.2,-53.55M-47.2,-53.45C-48.067,-45.383 -48.35,-37.233 -48.05,-29C-47.383,-9.067 -50.367,10.4 -57,29.4C-62.1,44.067 -71.2,55.133 -84.3,62.6L-88.05,64.6M-88.05,33.4L-85.1,31.25C-75.9,24.05 -68.55,15.05 -63.05,4.25C-56.617,-8.617 -53.2,-22.25 -52.8,-36.65C-52.5,-50.283 -50.717,-63.767 -47.45,-77.1C-44.117,-90.833 -38.4,-103.5 -30.3,-115.1C-22.167,-126.9 -11.517,-133.583 1.65,-135.15C11.583,-136.383 20.483,-134.733 28.35,-130.2L-88.05,33.4Z" style="fill:none;fill-rule:nonzero;stroke:#000;stroke-opacity:0.4;stroke-width:1px;"/>
                        <path d="M72.3,-7.8C69.233,-14.1 68.383,-21.05 69.75,-28.65C71.383,-37.583 76.85,-42.917 86.15,-44.65C106.217,-48.65 124.767,-44.867 141.8,-33.3C145.133,-31.033 147.85,-28.067 149.95,-24.4C152.583,-19.067 154.45,-13.7 155.55,-8.3C149.117,-18.433 140.817,-26.4 130.65,-32.2L132.95,-28.7L132.75,-28.5C122.417,-35.5 111.15,-38.783 98.95,-38.35C79.183,-37.25 70.3,-27.067 72.3,-7.8M-142.6,73.6C-137.833,65.733 -131.85,58.367 -124.65,51.5C-110.383,37.933 -93.267,31.1 -73.3,31C-47.433,30.867 -22.433,35.633 1.7,45.3C11.633,49.3 21.717,52.533 31.95,55L22.25,53.15L-14.05,45.1C-30.417,41.333 -47.033,40.117 -63.9,41.45C-82,42.35 -97.283,49.1 -109.75,61.7C-122.417,74.433 -130.65,89.7 -134.45,107.5L-134.8,107.4C-135.467,94.733 -133.867,82.35 -130,70.25L-133.2,74.45C-139.267,82.083 -143.333,90.583 -145.4,99.95L-145.5,96.55C-145.6,88.75 -144.633,81.1 -142.6,73.6" style="fill:#ffa448;"/>
                        <path d="M72.3,-7.8C70.3,-27.067 79.183,-37.25 98.95,-38.35C111.15,-38.783 122.417,-35.5 132.75,-28.5L132.95,-28.7L130.65,-32.2C140.817,-26.4 149.117,-18.433 155.55,-8.3C157.95,3.8 156.467,15.983 151.1,28.25C144,44.45 131.65,55.183 114.05,60.45C96.65,65.75 78.9,67.517 60.8,65.75C43.2,64.05 26,60.4 9.2,54.8C-8.6,48.933 -26.617,47.3 -44.85,49.9C-60.25,52.2 -74.15,57.683 -86.55,66.35C-103.35,78.05 -111,92.95 -109.5,111.05C-109.233,114.45 -107.483,116.867 -104.25,118.3C-102.15,119.167 -99.983,119.733 -97.75,120C-110.783,127.9 -124.367,128.3 -138.5,121.2L-131.6,135.55C-138.233,133.183 -142.717,128.65 -145.05,121.95C-146.95,116.55 -147.767,111 -147.5,105.3C-150.233,108.6 -152.3,112.2 -153.7,116.1L-155.6,121.7L-156.65,121.9C-156.083,104.167 -151.4,88.067 -142.6,73.6C-144.633,81.1 -145.6,88.75 -145.5,96.55L-145.4,99.95C-143.333,90.583 -139.267,82.083 -133.2,74.45L-130,70.25C-133.867,82.35 -135.467,94.733 -134.8,107.4L-134.45,107.5C-130.65,89.7 -122.417,74.433 -109.75,61.7C-97.283,49.1 -82,42.35 -63.9,41.45C-47.033,40.117 -30.417,41.333 -14.05,45.1L22.25,53.15L31.95,55L32.05,55L35.65,55.8C45.917,58.1 56.35,59.633 66.95,60.4C78.217,61.433 89.3,60.533 100.2,57.7C112.867,54.467 123.917,48.25 133.35,39.05C144.517,28.117 149.05,14.883 146.95,-0.65C145.75,-9.317 141.917,-16.617 135.45,-22.55C118.883,-37.85 101.217,-40.533 82.45,-30.6C79.05,-28.833 77.3,-25.95 77.2,-21.95C76.7,-2.283 86.1,6.967 105.4,5.8C111.467,5.567 114.4,2.55 114.2,-3.25C114.067,-7.55 112.083,-10.683 108.25,-12.65C106.617,-13.483 104.833,-13.817 102.9,-13.65C113.767,-16.183 118.617,-11.4 117.45,0.7C116.717,8.367 112.167,12.133 103.8,12C93.067,11.867 84.283,7.833 77.45,-0.1C75.317,-2.567 73.6,-5.133 72.3,-7.8" style="fill:#c60;"/>
                        <path d="M155.55,-8.3C154.45,-13.7 152.583,-19.067 149.95,-24.4C147.85,-28.067 145.133,-31.033 141.8,-33.3C124.767,-44.867 106.217,-48.65 86.15,-44.65C76.85,-42.917 71.383,-37.583 69.75,-28.65C68.383,-21.05 69.233,-14.1 72.3,-7.8C73.6,-5.133 75.317,-2.567 77.45,-0.1C84.283,7.833 93.067,11.867 103.8,12C112.167,12.133 116.717,8.367 117.45,0.7C118.617,-11.4 113.767,-16.183 102.9,-13.65C104.833,-13.817 106.617,-13.483 108.25,-12.65C112.083,-10.683 114.067,-7.55 114.2,-3.25C114.4,2.55 111.467,5.567 105.4,5.8C86.1,6.967 76.7,-2.283 77.2,-21.95C77.3,-25.95 79.05,-28.833 82.45,-30.6C101.217,-40.533 118.883,-37.85 135.45,-22.55C141.917,-16.617 145.75,-9.317 146.95,-0.65C149.05,14.883 144.517,28.117 133.35,39.05C123.917,48.25 112.867,54.467 100.2,57.7C89.3,60.533 78.217,61.433 66.95,60.4C56.35,59.633 45.917,58.1 35.65,55.8L32.05,55M155.55,-8.3C157.95,3.8 156.467,15.983 151.1,28.25C144,44.45 131.65,55.183 114.05,60.45C96.65,65.75 78.9,67.517 60.8,65.75C43.2,64.05 26,60.4 9.2,54.8C-8.6,48.933 -26.617,47.3 -44.85,49.9C-60.25,52.2 -74.15,57.683 -86.55,66.35C-103.35,78.05 -111,92.95 -109.5,111.05C-109.233,114.45 -107.483,116.867 -104.25,118.3C-102.15,119.167 -99.983,119.733 -97.75,120M-138.5,121.2L-131.6,135.55M-147.5,105.3C-150.233,108.6 -152.3,112.2 -153.7,116.1L-155.6,121.7L-156.65,121.9C-156.083,104.167 -151.4,88.067 -142.6,73.6C-137.833,65.733 -131.85,58.367 -124.65,51.5C-110.383,37.933 -93.267,31.1 -73.3,31C-47.433,30.867 -22.433,35.633 1.7,45.3C11.633,49.3 21.717,52.533 31.95,55" style="fill:none;fill-rule:nonzero;stroke:#000;stroke-opacity:0.4;stroke-width:1px;"/>
                    </g>
                </g>
                <g id="sprite3" transform="matrix(-0.5806,-0.6522,0.9182,-0.6445,51.3524,-20.9004)">
                    <g id="shape2">
                        <path d="M-53.65,18.45L-53.75,18.45L-53.65,18.35L-53.65,18.45" style="fill:#7ba400;"/>
                        <path d="M-11.6,10.25C9.2,4.55 29.233,-3.5 48.5,-13.9L50.2,-14.8L50.05,-11.35C43.583,-3.05 35.583,3.617 26.05,8.65L25.8,8.75C10.1,12.417 -2.367,12.917 -11.6,10.25" style="fill:#905490;"/>
                        <path d="M47.65,-17.85L50.2,-15.25L50.2,-14.8L48.5,-13.9C29.233,-3.5 9.2,4.55 -11.6,10.25C-8.933,-2.05 -0.9,-11.833 12.5,-19.1C23.7,-20.633 35.417,-20.217 47.65,-17.85" style="fill:#834283;"/>
                        <path d="M25.8,8.75C5.967,19.083 -20.517,22.317 -53.65,18.45L-53.65,18.35C-39.883,16.75 -26.433,14.2 -13.3,10.7L-11.6,10.25C-2.367,12.917 10.1,12.417 25.8,8.75" style="fill:#ce9033;"/>
                        <path d="M12.5,-19.1C-0.9,-11.833 -8.933,-2.05 -11.6,10.25L-13.3,10.7C-26.433,14.2 -39.883,16.75 -53.65,18.35C-33.983,-3.317 -11.933,-15.8 12.5,-19.1" style="fill:#ce7b00;"/>
                        <path d="M47.65,-17.85C35.417,-20.217 23.7,-20.633 12.5,-19.1C-11.933,-15.8 -33.983,-3.317 -53.65,18.35L-53.75,18.45L-53.65,18.45C-20.517,22.317 5.967,19.083 25.8,8.75M50.05,-11.35C43.583,-3.05 35.583,3.617 26.05,8.65" style="fill:none;fill-rule:nonzero;stroke:#000;stroke-opacity:0.4;stroke-width:0.05px;"/>
                        <path d="M-11.6,10.25C9.2,4.55 29.233,-3.5 48.5,-13.9M-13.3,10.7C-26.433,14.2 -39.883,16.75 -53.65,18.35" style="fill:none;fill-rule:nonzero;stroke:#c8cc12;stroke-opacity:0.5;stroke-width:2px;"/>
                    </g>
                </g>
                <g id="sprite4" transform="matrix(-0.5306,0.3724,-0.8865,-0.5938,38,-3.39901)">
                    <g id="shape3">
                        <path d="M7,-27.55L7,-27.5L7,-27.55" style="fill:#82ad00;"/>
                        <path d="M-32.8,50.85L-32.1,46.45C-27.4,20.55 -14.367,-4.1 7,-27.5L6.4,-1.35L6.25,-0.8C6.15,11.133 3.683,22.517 -1.15,33.35C-7.083,40.05 -13.967,45.45 -21.8,49.55C-23.7,50.55 -25.65,51.467 -27.65,52.3C-28.05,52 -28.483,51.733 -28.95,51.5L-29.75,51.15L-31.65,51.5L-32.85,51.2L-32.8,50.85" style="fill:#834283;"/>
                        <path d="M7,-27.5C-14.367,-4.1 -27.4,20.55 -32.1,46.45L-32.8,50.85L-32.85,51.2L-34.5,50.9L-34.8,49.55L-35.45,45.4C-36.583,34.8 -34.4,22.633 -28.9,8.9L-28.8,8.75C-20.067,-4.55 -8.133,-16.633 7,-27.5" style="fill:#985898;"/>
                        <path d="M-1.15,33.35C3.683,22.517 6.15,11.133 6.25,-0.8L6.4,-1.35L7,-27.5L7,-27.55C15.333,-36.717 24.933,-45.683 35.8,-54.45C29.033,-42.15 24.233,-28.85 21.4,-14.55C16.9,5.517 9.383,21.483 -1.15,33.35" style="fill:#d98200;"/>
                        <path d="M7,-27.55L7,-27.5C-8.133,-16.633 -20.067,-4.55 -28.8,8.75C-15.967,-17.283 5.567,-38.35 35.8,-54.45C24.933,-45.683 15.333,-36.717 7,-27.55" style="fill:#d99836;"/>
                        <path d="M7,-27.5C-14.367,-4.1 -27.4,20.55 -32.1,46.45L-32.8,50.85M35.8,-54.45C24.933,-45.683 15.333,-36.717 7,-27.55" style="fill:none;fill-rule:nonzero;stroke:#d3d713;stroke-opacity:0.5;stroke-width:2px;"/>
                        <path d="M-28.8,8.75L-28.9,8.9C-34.4,22.633 -36.583,34.8 -35.45,45.4M21.4,-14.55C24.233,-28.85 29.033,-42.15 35.8,-54.45C5.567,-38.35 -15.967,-17.283 -28.8,8.75" style="fill:none;fill-rule:nonzero;stroke:#000;stroke-opacity:0.29;stroke-width:0.05px;"/>
                        <path d="M-21.8,49.55C-13.967,45.45 -7.083,40.05 -1.15,33.35C9.383,21.483 16.9,5.517 21.4,-14.55" style="fill:none;fill-rule:nonzero;stroke:#000;stroke-opacity:0.29;stroke-width:0.05px;"/>
                    </g>
                </g>
                <g id="sprite31" serif:id="sprite3" transform="matrix(0.7802,-0.3921,0.3849,1.0537,-53.5521,0.097535)">
                    <g id="shape21" serif:id="shape2">
                        <path d="M-53.65,18.45L-53.75,18.45L-53.65,18.35L-53.65,18.45" style="fill:#7ba400;"/>
                        <path d="M-11.6,10.25C9.2,4.55 29.233,-3.5 48.5,-13.9L50.2,-14.8L50.05,-11.35C43.583,-3.05 35.583,3.617 26.05,8.65L25.8,8.75C10.1,12.417 -2.367,12.917 -11.6,10.25" style="fill:#905490;"/>
                        <path d="M47.65,-17.85L50.2,-15.25L50.2,-14.8L48.5,-13.9C29.233,-3.5 9.2,4.55 -11.6,10.25C-8.933,-2.05 -0.9,-11.833 12.5,-19.1C23.7,-20.633 35.417,-20.217 47.65,-17.85" style="fill:#834283;"/>
                        <path d="M25.8,8.75C5.967,19.083 -20.517,22.317 -53.65,18.45L-53.65,18.35C-39.883,16.75 -26.433,14.2 -13.3,10.7L-11.6,10.25C-2.367,12.917 10.1,12.417 25.8,8.75" style="fill:#ce9033;"/>
                        <path d="M12.5,-19.1C-0.9,-11.833 -8.933,-2.05 -11.6,10.25L-13.3,10.7C-26.433,14.2 -39.883,16.75 -53.65,18.35C-33.983,-3.317 -11.933,-15.8 12.5,-19.1" style="fill:#ce7b00;"/>
                        <path d="M47.65,-17.85C35.417,-20.217 23.7,-20.633 12.5,-19.1C-11.933,-15.8 -33.983,-3.317 -53.65,18.35L-53.75,18.45L-53.65,18.45C-20.517,22.317 5.967,19.083 25.8,8.75M50.05,-11.35C43.583,-3.05 35.583,3.617 26.05,8.65" style="fill:none;fill-rule:nonzero;stroke:#000;stroke-opacity:0.4;stroke-width:0.05px;"/>
                        <path d="M-11.6,10.25C9.2,4.55 29.233,-3.5 48.5,-13.9M-13.3,10.7C-26.433,14.2 -39.883,16.75 -53.65,18.35" style="fill:none;fill-rule:nonzero;stroke:#c8cc12;stroke-opacity:0.5;stroke-width:2px;"/>
                    </g>
                </g>
                <g id="sprite41" serif:id="sprite4" transform="matrix(-1.1167,0.4871,-0.429,-0.8683,-24.2016,24.7501)">
                    <g id="shape31" serif:id="shape3">
                        <path d="M7,-27.55L7,-27.5L7,-27.55" style="fill:#82ad00;"/>
                        <path d="M-32.8,50.85L-32.1,46.45C-27.4,20.55 -14.367,-4.1 7,-27.5L6.4,-1.35L6.25,-0.8C6.15,11.133 3.683,22.517 -1.15,33.35C-7.083,40.05 -13.967,45.45 -21.8,49.55C-23.7,50.55 -25.65,51.467 -27.65,52.3C-28.05,52 -28.483,51.733 -28.95,51.5L-29.75,51.15L-31.65,51.5L-32.85,51.2L-32.8,50.85" style="fill:#834283;"/>
                        <path d="M7,-27.5C-14.367,-4.1 -27.4,20.55 -32.1,46.45L-32.8,50.85L-32.85,51.2L-34.5,50.9L-34.8,49.55L-35.45,45.4C-36.583,34.8 -34.4,22.633 -28.9,8.9L-28.8,8.75C-20.067,-4.55 -8.133,-16.633 7,-27.5" style="fill:#985898;"/>
                        <path d="M-1.15,33.35C3.683,22.517 6.15,11.133 6.25,-0.8L6.4,-1.35L7,-27.5L7,-27.55C15.333,-36.717 24.933,-45.683 35.8,-54.45C29.033,-42.15 24.233,-28.85 21.4,-14.55C16.9,5.517 9.383,21.483 -1.15,33.35" style="fill:#d98200;"/>
                        <path d="M7,-27.55L7,-27.5C-8.133,-16.633 -20.067,-4.55 -28.8,8.75C-15.967,-17.283 5.567,-38.35 35.8,-54.45C24.933,-45.683 15.333,-36.717 7,-27.55" style="fill:#d99836;"/>
                        <path d="M7,-27.5C-14.367,-4.1 -27.4,20.55 -32.1,46.45L-32.8,50.85M35.8,-54.45C24.933,-45.683 15.333,-36.717 7,-27.55" style="fill:none;fill-rule:nonzero;stroke:#d3d713;stroke-opacity:0.5;stroke-width:2px;"/>
                        <path d="M-28.8,8.75L-28.9,8.9C-34.4,22.633 -36.583,34.8 -35.45,45.4M21.4,-14.55C24.233,-28.85 29.033,-42.15 35.8,-54.45C5.567,-38.35 -15.967,-17.283 -28.8,8.75" style="fill:none;fill-rule:nonzero;stroke:#000;stroke-opacity:0.29;stroke-width:0.05px;"/>
                        <path d="M-21.8,49.55C-13.967,45.45 -7.083,40.05 -1.15,33.35C9.383,21.483 16.9,5.517 21.4,-14.55" style="fill:none;fill-rule:nonzero;stroke:#000;stroke-opacity:0.29;stroke-width:0.05px;"/>
                    </g>
                </g>
                <g id="sprite42" serif:id="sprite4" transform="matrix(-0.8172,0.5736,-0.8529,-1.0491,22.4005,31.0501)">
                    <g id="shape32" serif:id="shape3">
                        <path d="M7,-27.55L7,-27.5L7,-27.55" style="fill:#82ad00;"/>
                        <path d="M-32.8,50.85L-32.1,46.45C-27.4,20.55 -14.367,-4.1 7,-27.5L6.4,-1.35L6.25,-0.8C6.15,11.133 3.683,22.517 -1.15,33.35C-7.083,40.05 -13.967,45.45 -21.8,49.55C-23.7,50.55 -25.65,51.467 -27.65,52.3C-28.05,52 -28.483,51.733 -28.95,51.5L-29.75,51.15L-31.65,51.5L-32.85,51.2L-32.8,50.85" style="fill:#834283;"/>
                        <path d="M7,-27.5C-14.367,-4.1 -27.4,20.55 -32.1,46.45L-32.8,50.85L-32.85,51.2L-34.5,50.9L-34.8,49.55L-35.45,45.4C-36.583,34.8 -34.4,22.633 -28.9,8.9L-28.8,8.75C-20.067,-4.55 -8.133,-16.633 7,-27.5" style="fill:#985898;"/>
                        <path d="M-1.15,33.35C3.683,22.517 6.15,11.133 6.25,-0.8L6.4,-1.35L7,-27.5L7,-27.55C15.333,-36.717 24.933,-45.683 35.8,-54.45C29.033,-42.15 24.233,-28.85 21.4,-14.55C16.9,5.517 9.383,21.483 -1.15,33.35" style="fill:#d98200;"/>
                        <path d="M7,-27.55L7,-27.5C-8.133,-16.633 -20.067,-4.55 -28.8,8.75C-15.967,-17.283 5.567,-38.35 35.8,-54.45C24.933,-45.683 15.333,-36.717 7,-27.55" style="fill:#d99836;"/>
                        <path d="M7,-27.5C-14.367,-4.1 -27.4,20.55 -32.1,46.45L-32.8,50.85M35.8,-54.45C24.933,-45.683 15.333,-36.717 7,-27.55" style="fill:none;fill-rule:nonzero;stroke:#d3d713;stroke-opacity:0.5;stroke-width:2px;"/>
                        <path d="M-28.8,8.75L-28.9,8.9C-34.4,22.633 -36.583,34.8 -35.45,45.4M21.4,-14.55C24.233,-28.85 29.033,-42.15 35.8,-54.45C5.567,-38.35 -15.967,-17.283 -28.8,8.75" style="fill:none;fill-rule:nonzero;stroke:#000;stroke-opacity:0.29;stroke-width:0.05px;"/>
                        <path d="M-21.8,49.55C-13.967,45.45 -7.083,40.05 -1.15,33.35C9.383,21.483 16.9,5.517 21.4,-14.55" style="fill:none;fill-rule:nonzero;stroke:#000;stroke-opacity:0.29;stroke-width:0.05px;"/>
                    </g>
                </g>
            </g>
        </g>
    </g>
</svg>
