<?xml version="1.0" encoding="UTF-8"?>
<svg version="1.1" viewBox="0 0 107.94 142.8" xmlns="http://www.w3.org/2000/svg" xmlns:cc="http://creativecommons.org/ns#" xmlns:dc="http://purl.org/dc/elements/1.1/" xmlns:rdf="http://www.w3.org/1999/02/22-rdf-syntax-ns#" xmlns:xlink="http://www.w3.org/1999/xlink">
<metadata>
<rdf:RDF>
<cc:Work rdf:about="">
<dc:format>image/svg+xml</dc:format>
<dc:type rdf:resource="http://purl.org/dc/dcmitype/StillImage"/>
</cc:Work>
</rdf:RDF>
</metadata>
<g transform="translate(-189.35 -99.627)">
<use transform="matrix(6.9113 0 0 6.9113 189.22 99.611)" width="15.95" height="20.65" xlink:href="#b"/>
</g>
<defs>
<g id="b" transform="translate(8.7,19.3)">
<use transform="matrix(.9677 -.001 .001 .9677 -6.0227 -5.2279)" width="5" height="5.5500002" xlink:href="#a"/>
<use transform="matrix(.9677 -.001 .001 .9677 .3773 -4.7779)" width="5" height="5.5500002" xlink:href="#a"/>
<use transform="matrix(.9677 -.001 .001 .9677 -2.5227 -4.0279)" width="5" height="5.5500002" xlink:href="#a"/>
<use transform="matrix(1.1677 0 0 1.1677 -7.4231 -15.306)" width="12.25" height="12" xlink:href="#h"/>
<use transform="matrix(1.1677 0 0 1.1677 -8.6821 -19.324)" width="13.35" height="13.1" xlink:href="#g"/>
<use transform="matrix(1.1677 0 0 1.1677 -2.2858 -12.619)" width="4.6999998" height="5.0999999" xlink:href="#f"/>
<use transform="matrix(1.1677 0 0 1.1677 4.799 -14.094)" width="1.8" height="4.9000001" xlink:href="#e"/>
<use transform="translate(-3.4,-3.8)" width="7.8499999" height="1.8" xlink:href="#d"/>
<use transform="matrix(.4812 -.3673 .3673 .4812 2.7054 -3.181)" width="5" height="5.8000002" xlink:href="#c"/>
</g>
<g id="a" transform="translate(2.5,3.7)">
<path d="m-2.3-0.25-0.1-0.35 0.05-0.2 0.65-0.6 1.7-0.3 1.7 0.3 0.7 0.8-0.05 0.25-0.35 0.35-0.3 0.15-1.7 0.35-1.7-0.35-0.25-0.15-0.35-0.25-0.05-0.55 0.05 0.55m4.65 0.7 0.05 0.2-0.05 0.2v-0.4m-4.7 0.35-0.05-0.15 0.1-0.3-0.05 0.45" fill="#4c687b" fill-rule="evenodd"/>
<path d="m2.35-0.35v1.2l-0.35 0.4-0.05 0.05-0.65-0.7-0.45 1.1-0.85 0.05-1.7-0.35q-0.6-0.25-0.65-0.6l0.05-0.45v-0.6l0.35 0.25 0.25 0.15 1.7 0.35 1.7-0.35 0.3-0.15 0.35-0.35" fill="#3c5260" fill-rule="evenodd"/>
<path d="M 1.95,1.3 1.7,1.4 0.85,1.7 1.3,0.6 1.95,1.3" fill="#1f2b32" fill-rule="evenodd"/>
<path d="m-2.3-0.25-0.1-0.35 0.05-0.2 0.65-0.6 1.7-0.3 1.7 0.3 0.7 0.8-0.05 0.25m0 0.8 0.05 0.2-0.05 0.2-0.35 0.4m-0.05 0.05-0.25 0.1-0.85 0.3-0.85 0.05-1.7-0.35q-0.6-0.25-0.65-0.6l-0.05-0.15 0.1-0.3" fill="none" stroke="#1c282d" stroke-linecap="round" stroke-linejoin="round" stroke-opacity=".31372" stroke-width=".25"/>
<path d="m2.35-0.35v1.2m-0.35 0.4-0.05 0.05m-4.25-0.95v-0.6l-0.05-0.55m0.05 1.15-0.05 0.45" fill="none" stroke="#1c282d" stroke-linecap="round" stroke-linejoin="round" stroke-opacity=".31372" stroke-width=".25"/>
<path d="m1.3-3.1q0.55 0.5 0.65 1.45 0.05 0.9-0.45 1.4-0.55 0.5-1.45 0.45-0.9-0.1-1.4-0.6-0.55-0.5-0.4-1.35 0.1-0.85 0.6-1.35 0.55-0.5 1.25-0.5t1.2 0.5" fill="#6a5b38" fill-rule="evenodd"/>
<path d="m1.3-3.1q0.55 0.5 0.65 1.45 0.05 0.9-0.45 1.4-0.55 0.5-1.45 0.45-0.9-0.1-1.4-0.6-0.55-0.5-0.4-1.35 0.1-0.85 0.6-1.35 0.55-0.5 1.25-0.5t1.2 0.5z" fill="none" stroke="#1c282d" stroke-linecap="round" stroke-linejoin="round" stroke-opacity=".31372" stroke-width=".25"/>
</g>
<g id="h" transform="translate(6.1,6)">
<path d="m-2.3-4.8h0.05l0.25-0.3 0.05-0.05q0.8-0.8 1.95-0.75 1.1-0.05 1.9 0.8h0.05q1.2 0 2.1 0.9 0.75 0.8 0.9 1.85l0.6 0.35q0.5 0.55 0.5 1.3 0 0.6-0.4 1.1l0.1 0.8v0.1q-2.1 3.05-3.6 2.6-2.6 1.3-3.9-0.65-2.3 0.05-1.95-2.95-0.5-0.6 2.15-2-2.25-1.65-0.75-3.1" fill="#f5eed3" fill-rule="evenodd"/>
<path d="m5.75 1.3-0.05 0.6-0.85 1.4-1.05 0.75q0 0.65-0.5 1.15-0.55 0.55-1.25 0.55l-0.95-0.3q-0.7 0.45-1.55 0.45-1.1 0-1.95-0.7l-0.45 0.05q-0.75 0-1.25-0.55-0.55-0.5-0.55-1.2l0.05-0.35-0.85-0.5q-0.55-0.5-0.55-1.2 0-0.75 0.5-1.25l-0.1-0.85q0-1.75 1.25-3.05 0.9-0.85 2.05-1.1-1.5 1.45 0.75 3.1-2.65 1.4-2.15 2-0.35 3 1.95 2.95 1.3 1.95 3.9 0.65 1.5 0.45 3.6-2.6" fill="#dec696" fill-rule="evenodd"/>
<path d="m-2.3-4.8h0.05l0.25-0.3 0.05-0.05q0.8-0.8 1.95-0.75 1.1-0.05 1.9 0.8h0.05q1.2 0 2.1 0.9 0.75 0.8 0.9 1.85l0.6 0.35q0.5 0.55 0.5 1.3 0 0.6-0.4 1.1l0.1 0.8v0.1l-0.05 0.6-0.85 1.4-1.05 0.75q0 0.65-0.5 1.15-0.55 0.55-1.25 0.55l-0.95-0.3q-0.7 0.45-1.55 0.45-1.1 0-1.95-0.7l-0.45 0.05q-0.75 0-1.25-0.55-0.55-0.5-0.55-1.2l0.05-0.35-0.85-0.5q-0.55-0.5-0.55-1.2 0-0.75 0.5-1.25l-0.1-0.85q0-1.75 1.25-3.05 0.9-0.85 2.05-1.1z" fill="none" stroke="#695138" stroke-linecap="round" stroke-linejoin="round" stroke-opacity=".50196" stroke-width=".25"/>
</g>
<g id="g" transform="translate(6.75,6.7)">
<path d="m3.95-2.6 0.6-0.05 0.95-0.45 0.3-0.2 0.15-0.15v-0.05q-0.5-1.2-1.65-2.5l-0.1-0.1q-0.8-0.8-0.8 0.35l-0.15 1.85-1.45 0.7 0.1 0.25 0.5-0.25 1.1 0.15 0.3 0.2 0.15 0.25m0.3-1.4q-0.15-0.5-1 0.1 0.85-0.6 1-0.1m-0.35-2.2 0.15 0.2 0.05 0.25-0.1 0.4-0.2 0.3-0.05-0.05-0.05-0.45v-0.25l-0.05-0.35 0.1-0.05h0.15" fill="#5f829a" fill-rule="evenodd"/>
<path d="m3.9-6.2h-0.15l-0.1 0.05 0.05 0.35v0.25l0.05 0.45 0.05 0.05 0.2-0.3 0.1-0.4-0.05-0.25-0.15-0.2" fill="#82c4cc" fill-rule="evenodd"/>
<path d="m5.95-3.45-0.15 0.15-0.3 0.2-0.95 0.45-0.6 0.05 0.2 0.45v0.75q0.9-0.35 1.8-0.85l0.1-0.2 0.05-0.3-0.15-0.7" fill="#425a68" fill-rule="evenodd"/>
<path d="m5.95-3.45 0.15 0.7-0.05 0.3-0.1 0.2q-0.9 0.5-1.8 0.85v-0.75l-0.2-0.45m-0.15-0.25-0.3-0.2-1.1-0.15-0.5 0.25-0.1-0.25 1.45-0.7q0.85-0.6 1-0.1m1.7 0.5q-0.5-1.2-1.65-2.5l-0.1-0.1q-0.8-0.8-0.8 0.35l-0.15 1.85" fill="none" stroke="#423213" stroke-linecap="round" stroke-linejoin="round" stroke-opacity=".50196" stroke-width=".5"/>
<path d="m-0.85-5.1 1.3-0.3q1.1-0.05 1.9 0.8h0.05q1.2 0 2.1 0.9 0.75 0.8 0.9 1.85l0.6 0.35q0.5 0.55 0.5 1.3 0 0.6-0.4 1.1l0.1 0.5v0.3q-0.15 2.35-2.1 2.85h0.05l-2.65 0.95q-1.5 0.45-2.55-0.95-0.45 0.95 0.55 1.3 0.95 0.55 0.5 0.55-1 0-1.8-0.6l-0.5-1.15q-0.55-0.2 0.7-1.85-2.4-5.9 1.4-3.8-1.85-1.9-0.65-4.1" fill="#f5eed3" fill-rule="evenodd"/>
<path d="m6.2 1.7q0.25 1.55-0.35 2.35l-1 0.95q-0.6 0.35-2 0.7l-1.9 0.4-1.45-0.25q-1-0.35-0.55-1.3 1.05 1.4 2.55 0.95l2.65-0.95h-0.05q1.95-0.5 2.1-2.85m-8 4.1-0.15-0.1-0.45 0.05q-0.75 0-1.25-0.55-0.55-0.5-0.55-1.2l0.05-0.35-0.85-0.5q-0.55-0.5-0.55-1.2 0-0.75 0.5-1.25l-0.1-0.85q0-1.75 1.25-3.05 0.95-0.9 2.1-1.1l0.25-0.3 0.7-0.5q-1.2 2.2 0.65 4.1-3.8-2.1-1.4 3.8-1.25 1.65-0.7 1.85l0.5 1.15" fill="#dec696" fill-rule="evenodd"/>
<path d="m-0.85-5.1 1.3-0.3q1.1-0.05 1.9 0.8h0.05q1.2 0 2.1 0.9 0.75 0.8 0.9 1.85l0.6 0.35q0.5 0.55 0.5 1.3 0 0.6-0.4 1.1l0.1 0.5m0 0.3q0.25 1.55-0.35 2.35l-1 0.95q-0.6 0.35-2 0.7l-1.9 0.4-1.45-0.25m-4.55-5.15-0.1-0.85q0-1.75 1.25-3.05 0.95-0.9 2.1-1.1l0.25-0.3 0.7-0.5m-0.2 9.65q-0.45 0.95 0.55 1.3" fill="none" stroke="#695138" stroke-linecap="round" stroke-linejoin="round" stroke-opacity=".50196" stroke-width=".25"/>
<path d="m-1.45 0.35 0.1-0.1-0.05-0.15 0.45-0.7 0.1-0.1-0.05-0.05-1.2 1.35-0.15 0.05-1.05 0.45-1.5 0.65q-0.85 0.35-1.1 0l-0.4-0.8-0.2-0.45 0.25 1.15 0.05 0.25q0.2 0.65 0.9 0.7l0.6-0.1 1.35-0.4 0.15-0.05 1.45-0.5h0.05l0.25-1.2" fill="#425a68" fill-rule="evenodd"/>
<path d="m-0.9-0.75-0.35-0.3v-0.05h-0.3l-0.8 0.05-1.6 0.65-0.5 0.1-0.9-1.1q-0.85-1.65-1.05 0.5l-0.1 1.4 0.2 0.45 0.4 0.8q0.25 0.35 1.1 0l1.5-0.65 1.05-0.45 0.15-0.05 1.2-1.35m-3.55 0.45 0.05 0.1 0.2 0.1 0.5 0.3-0.5-0.3-0.2-0.1-0.05-0.1m-1.6-1.65 0.15 0.1 0.1 0.15v0.25l-0.2 0.4-0.2 0.3-0.05-0.45 0.1-0.6 0.1-0.15" fill="#5f829a" fill-rule="evenodd"/>
<path d="m-6.05-1.95-0.1 0.15-0.1 0.6 0.05 0.45 0.2-0.3 0.2-0.4v-0.25l-0.1-0.15-0.15-0.1" fill="#82c4cc" fill-rule="evenodd"/>
<path d="m-1.4 0.1 0.45-0.7 0.1-0.1-0.05-0.05-0.35-0.3v-0.05h-0.3l-0.8 0.05-1.6 0.65-0.5 0.1-0.9-1.1q-0.85-1.65-1.05 0.5l-0.1 1.4 0.25 1.15m0.05 0.25q0.2 0.65 0.9 0.7l0.6-0.1 1.35-0.4m0.15-0.05 1.45-0.5m0.05 0 0.25-1.2m-2.25-0.15-0.5-0.3-0.2-0.1-0.05-0.1" fill="none" stroke="#423213" stroke-linecap="round" stroke-linejoin="round" stroke-opacity=".50196" stroke-width=".5"/>
</g>
<g id="f" transform="translate(2.3,2.5)">
<path d="m1.7-1.35q0.7 1.05 0.7 2.4t-0.95 1.5l-2.25-0.2-1.45-0.6 0.05-1.5q0.2-1.2 1-2t1.5-0.75 1.4 1.15" fill="#dec696" fill-opacity=".46274" fill-rule="evenodd"/>
<path d="m1.1-1.75 0.1 0.1q1.05 0.85 0.5 3.55l-0.8 0.2-1.5-0.4q-0.75-0.2-0.4-0.9 0.25-1.15 1.05-2.15l1.05-0.4" fill="#fcf8f1" fill-rule="evenodd"/>
<path d="m1.1-1.75-1.05 0.4q-0.8 1-1.05 2.15-0.35 0.7 0.4 0.9l1.5 0.4q-1.95 0.4-2.75-0.75 0.2-2.55 1.8-3.45l1.15 0.35" fill="#f7ecdd" fill-rule="evenodd"/>
<path d="m0.9 2.1 0.8-0.2q0.55-2.7-0.5-3.55m-0.3 3.75q-1.95 0.4-2.75-0.75 0.2-2.55 1.8-3.45l1.15 0.35" fill="none" stroke="#8b7049" stroke-linecap="round" stroke-linejoin="round" stroke-opacity=".31372" stroke-width=".25"/>
<path d="M 1.9,0.85 1.65,1.7 1.15,2.05 0.6,1.7 0.4,0.85 0.6,0 1.15,-0.35 1.65,0 1.9,0.85" fill-rule="evenodd"/>
<path d="M 1.9,0.85 1.65,1.7 1.15,2.05 0.6,1.7 0.4,0.85 0.6,0 1.15,-0.35 1.65,0 Z" fill="none" stroke="#8b7049" stroke-linecap="round" stroke-linejoin="round" stroke-opacity=".31372" stroke-width=".25"/>
<path d="M 1.1,0.6 0.65,0.75 0.2,0.6 0,0.2 0.2,-0.2 0.65,-0.35 1.1,-0.2 1.3,0.2 1.1,0.6" fill="#fff" fill-rule="evenodd"/>
</g>
<g id="e" transform="translate(.9 2.35)">
<path d="m-0.25-1.7q0.7 0.65 0.7 1.7l-0.2 1.8-0.4 0.75q-0.25 0-0.15-0.95 0.1-1-0.2-2.3l-0.3-1.35 0.1-0.1 0.45 0.45" fill="#dec696" fill-opacity=".46274" fill-rule="evenodd"/>
<path d="m-0.8-2.25q1.6 0.45 1.6 3.3-0.45 1.25-0.8 1.1 0.25-3.5-0.8-4.4" fill="#fcf8f1" fill-rule="evenodd"/>
<path d="m-0.8-2.25q1.6 0.45 1.6 3.3-0.45 1.25-0.8 1.1 0.25-3.5-0.8-4.4z" fill="none" stroke="#8b7049" stroke-linecap="round" stroke-linejoin="round" stroke-opacity=".31372" stroke-width=".25"/>
<path d="M 0.45,1 0.4,1.85 0.2,2.2 0.05,1.85 -0.05,1 0.05,0.15 0.2,-0.2 0.4,0.15 0.45,1" fill-rule="evenodd"/>
<path d="M 0.45,1 0.4,1.85 0.2,2.2 0.05,1.85 -0.05,1 0.05,0.15 0.2,-0.2 0.4,0.15 Z" fill="none" stroke="#8b7049" stroke-linecap="round" stroke-linejoin="round" stroke-opacity=".31372" stroke-width=".25"/>
<path d="m0.2 0.75-0.1 0.15-0.1-0.15-0.05-0.4 0.05-0.4 0.1-0.15 0.1 0.15 0.05 0.4-0.05 0.4" fill="#fff" fill-rule="evenodd"/>
</g>
<g id="d" transform="translate(3.4,3.8)">
<path d="m3.4-2.2-1.75 0.1q-0.95-0.05-4.95-1.6l7.65 0.2-0.95 1.3" fill="#d20202" fill-rule="evenodd"/>
<path d="m3.4-2.2 0.95-1.3-7.65-0.2q4 1.55 4.95 1.6z" fill="none" stroke="#760d01" stroke-linecap="round" stroke-linejoin="round" stroke-width=".25"/>
</g>
<g id="c" transform="translate(2.5,2.7)">
<path d="m1.7-1.7q0.7 0.85 0.7 2.1l-0.15 1.05-0.55 0.65q-0.65 0.5-1.7 0.5t-1.8-0.5l-0.45-0.65-0.15-1.05q-0.05-1.25 0.6-2.1 0.75-0.9 1.8-0.9t1.7 0.9" fill="#fc3" fill-rule="evenodd"/>
<path d="m1.7-1.7q0.7 0.85 0.7 2.1l-0.15 1.05-0.55 0.65q-0.65 0.5-1.7 0.5t-1.8-0.5l-0.45-0.65-0.15-1.05q-0.05-1.25 0.6-2.1 0.75-0.9 1.8-0.9t1.7 0.9z" fill="none" stroke="#c18702" stroke-linecap="round" stroke-linejoin="round" stroke-width=".25"/>
<path d="m1.2 1.8-1.2 0.3-1.2-0.3q-0.55-0.25-0.55-0.6t0.55-0.65l1.2-0.25 1.2 0.25q0.55 0.3 0.55 0.65t-0.55 0.6" fill="#a97601" fill-rule="evenodd"/>
<path d="m1.2 1.8-1.2 0.3-1.2-0.3q-0.55-0.25-0.55-0.6t0.55-0.65l1.2-0.25 1.2 0.25q0.55 0.3 0.55 0.65t-0.55 0.6z" fill="none" stroke="#986a01" stroke-linecap="round" stroke-linejoin="round" stroke-width=".25"/>
<path d="m0.35 2.55q-0.3 0.4-0.8 0.45l-0.85-0.25-0.45-0.75q-0.05-0.45 0.25-0.85l0.75-0.45q0.5-0.05 0.85 0.25 0.4 0.3 0.45 0.75 0.1 0.45-0.2 0.85" fill="#fc3" fill-rule="evenodd"/>
<path d="m0.35 2.55q-0.3 0.4-0.8 0.45l-0.85-0.25-0.45-0.75q-0.05-0.45 0.25-0.85l0.75-0.45q0.5-0.05 0.85 0.25 0.4 0.3 0.45 0.75 0.1 0.45-0.2 0.85z" fill="none" stroke="#986a01" stroke-linecap="round" stroke-linejoin="round" stroke-width=".25"/>
<path d="m0.3 1.55-0.05 0.3-0.3 0.15-0.3-0.1-0.15-0.25 0.1-0.3 0.25-0.15 0.3 0.1 0.15 0.25" fill="#ffc" fill-rule="evenodd"/>
<path d="m1.9-1.05 0.4 1.15-0.05 0.7q-0.1 0.2-0.35-0.15l-0.55-1q-0.25-0.6-0.35-1.15v-0.7l0.4 0.25 0.5 0.9" fill="#ffc" fill-rule="evenodd"/>
</g>
</defs>
</svg>
