<?xml version="1.0" encoding="UTF-8"?>
<svg version="1.1" viewBox="0 0 33.831 45.319" xmlns="http://www.w3.org/2000/svg" xmlns:cc="http://creativecommons.org/ns#" xmlns:dc="http://purl.org/dc/elements/1.1/" xmlns:rdf="http://www.w3.org/1999/02/22-rdf-syntax-ns#" xmlns:xlink="http://www.w3.org/1999/xlink">
<metadata>
<rdf:RDF>
<cc:Work rdf:about="">
<dc:format>image/svg+xml</dc:format>
<dc:type rdf:resource="http://purl.org/dc/dcmitype/StillImage"/>
</cc:Work>
</rdf:RDF>
</metadata>
<g transform="translate(-1.1991 -4.9056)">
<use transform="matrix(-2.2936 0 0 2.2936 35.904 4.9499)" width="15.7" height="19.75" xlink:href="#e"/>
</g>
<defs>
<g id="e" transform="translate(8.7,17.2)">
<use transform="matrix(-.0372 .2637 .4942 .0696 .1588 -3.5151)" width="12.2" height="9.1999998" xlink:href="#k"/>
<use transform="matrix(-.1042 -.3889 -.3889 .1042 4.5895 -1.6871)" width="9.5500002" height="8.9499998" xlink:href="#j"/>
<use transform="matrix(.7071 .7071 -.7071 .7071 -6.0663 -7.0326)" width="5.5500002" height="3.7" xlink:href="#i"/>
<use transform="translate(-3,-6.7)" width="5.9000001" height="6.5500002" xlink:href="#h"/>
<use transform="matrix(.4026 0 0 .4026 -4.1241 -.4494)" width="9.4499998" height="7.4000001" xlink:href="#g"/>
<use transform="matrix(.4026 0 0 .4026 -3.9228 -2.7422)" width="9.5500002" height="8.9499998" xlink:href="#d"/>
<use transform="matrix(-.3949 .0768 .0607 .3117 -1.0801 -5.6375)" width="9.5500002" height="8.9499998" xlink:href="#d"/>
<use transform="matrix(.285 .2804 .2804 -.285 -7.0207 -3.1072)" width="11.3" height="8.8000002" xlink:href="#c"/>
<use transform="matrix(-.387 .1003 -.1003 -.387 6.983 -5.6985)" width="11.3" height="8.8000002" xlink:href="#c"/>
<use transform="matrix(.4771 0 0 .4771 -5.2229 -11.489)" width="24.25" height="19.049999" xlink:href="#f"/>
<use transform="matrix(.4771 0 0 .4771 -1.3006 -17.207)" width="6.4000001" height="12.3" xlink:href="#b"/>
<use transform="matrix(.3633 .1271 -.1271 .3633 1.4902 -12.768)" width="10.05" height="10.1" xlink:href="#a"/>
<use transform="matrix(.3749 -.2915 .2915 .3749 -5.8474 -13.97)" width="6.4000001" height="12.3" xlink:href="#b"/>
<use transform="matrix(.4582 .1316 -.1316 .4582 -1.1572 -12.314)" width="10.05" height="10.1" xlink:href="#a"/>
</g>
<g id="k" transform="translate(12.85,5.4)">
<path d="m-12.85-0.95 6.35-4.45 3.65 1.8 2.05 3.7 0.15 1.4-1.6 1.6-1.65-0.6-1.15 1.05-0.8-0.3-1.4 0.55-5.6-4.75m6.5 2.8 2.45 0.65-2.45-0.65m-1.3 0.6 1.8 0.8-1.8-0.8" fill="#796e4c" fill-rule="evenodd"/>
<path d="m-12.85-0.95 6.35-4.45m3.65 1.8 2.05 3.7 0.15 1.4-1.6 1.6-1.65-0.6-1.15 1.05-0.8-0.3-1.4 0.55m1.4-0.55-1.8-0.8m3.75 0.05-2.45-0.65" fill="none" stroke="#000" stroke-linecap="round" stroke-linejoin="round" stroke-width=".05"/>
</g>
<g id="j" transform="translate(8.75,4.7)">
<path d="m-7.5 2.85h-0.05q-1.25-1.5-1.2-3 0-1.5 1.15-3.05 1.15-1.5 3.5-1.5l2.2 0.45q0.95 0.4 1.7 1.25 1.55 1.7 0.65 3.35t-2.15 2.7-2.05 1.15l-0.95 0.05q-1.5 0.05-2.7-1.25l-0.1-0.15" fill="#655b3d" fill-rule="evenodd"/>
<path d="m-7.5 2.85h-0.05q-1.25-1.5-1.2-3 0-1.5 1.15-3.05 1.15-1.5 3.5-1.5l2.2 0.45q0.95 0.4 1.7 1.25 1.55 1.7 0.65 3.35t-2.15 2.7-2.05 1.15" fill="none" stroke="#000" stroke-linecap="round" stroke-linejoin="round" stroke-width=".05"/>
</g>
<g id="i" transform="translate(5.55,1.85)">
<path d="m-3.55-1.55 1-0.25q0.95-0.15 1.7 0.35 0.75 0.45 0.85 1.2 0.05 0.75-0.55 1.4-0.65 0.6-1.65 0.7l-0.95-0.05-0.4-3.35" fill="#675d3f" fill-rule="evenodd"/>
<path d="m-4.75 0.3v-0.05l0.05-0.5v-0.1l0.15-0.35 0.2-0.25 0.15-0.15 0.65-0.45 0.4 3.35-0.8-0.35-0.4-0.3-0.4-0.85" fill="#bfbfbf" fill-rule="evenodd"/>
<path d="m-3.55-1.55 1-0.25q0.95-0.15 1.7 0.35 0.75 0.45 0.85 1.2 0.05 0.75-0.55 1.4-0.65 0.6-1.65 0.7l-0.95-0.05-0.8-0.35-0.4-0.3m0-2.1 0.15-0.15 0.65-0.45" fill="none" stroke="#272318" stroke-linecap="round" stroke-linejoin="round" stroke-width=".05"/>
<path d="m-4.7-0.35-0.85-0.2m0.8 0.85-0.8 0.05m0.6 0.75-0.4 0.4" fill="none" stroke="#9a9784" stroke-linecap="round" stroke-linejoin="round" stroke-width=".05"/>
</g>
<g id="h" transform="translate(2.95,3.25)">
<path d="m1.55 0.5-0.9 0.3-0.75 1.45 0.5 0.45 1-0.55 0.45-0.85-0.3-0.8m-2.2-3.75 2.45 0.75 1.15 2.1-1.1 2.55-2.35 1.15-2.15-1.2-0.3-3.2 0.95-1.15 1.35-1" fill="#746947" fill-rule="evenodd"/>
<path d="m1.55 0.5 0.3 0.8-0.45 0.85-1 0.55-0.5-0.45 0.75-1.45 0.9-0.3" fill="#b9ae8e" fill-rule="evenodd"/>
<path d="m-0.65-3.25-1.35 1-0.95 1.15 0.3 3.2 2.15 1.2 2.35-1.15 1.1-2.55-1.15-2.1z" fill="none" stroke="#000" stroke-linecap="round" stroke-linejoin="round" stroke-width=".05"/>
</g>
<g id="g" transform="translate(9.25,3.6)">
<path d="m-9.1 0.25 1.45-2.6 5.4-1.25 2.45 3.7-0.35 2.4-2.6 0.75-0.75-0.75-1.35 1.05-0.95-0.3-1.65 0.55-1.8-0.95 0.15-2.6m3.7 0.35-0.4 2.65 0.4-2.65m2.75-0.05-0.85 1.95 0.85-1.95" fill="#8a7d55" fill-rule="evenodd"/>
<path d="m0.2 0.1-0.35 2.4-2.6 0.75-0.75-0.75-1.35 1.05-0.95-0.3-1.65 0.55-1.8-0.95 0.15-2.6m5.6 2.25 0.85-1.95m-3.15 2.7 0.4-2.65" fill="none" stroke="#352f20" stroke-linecap="round" stroke-linejoin="round" stroke-width=".05"/>
</g>
<g id="d" transform="translate(8.75,4.7)">
<path d="m-7.4 3-0.1-0.15h-0.05q-1.25-1.5-1.2-3 0-1.5 1.15-3.05 1.15-1.5 3.5-1.5l2.2 0.45q-0.3 5.65-5.5 7.25" fill="#a5986b" fill-rule="evenodd"/>
<path d="m-1.9-4.25q0.95 0.4 1.7 1.25 1.55 1.7 0.65 3.35t-2.15 2.7-2.05 1.15l-0.95 0.05q-1.5 0.05-2.7-1.25 5.2-1.6 5.5-7.25" fill="#746947" fill-rule="evenodd"/>
<path d="m-1.9-4.25q0.95 0.4 1.7 1.25 1.55 1.7 0.65 3.35t-2.15 2.7-2.05 1.15l-0.95 0.05q-1.5 0.05-2.7-1.25m-0.1-0.15h-0.05q-1.25-1.5-1.2-3 0-1.5 1.15-3.05 1.15-1.5 3.5-1.5l2.2 0.45z" fill="none" stroke="#352f20" stroke-linecap="round" stroke-linejoin="round" stroke-width=".05"/>
</g>
<g id="c" transform="translate(7.15,3.15)">
<path d="m0.35-3.15h0.05l1.05 0.3-1.1-0.3" fill="#c63" fill-rule="evenodd"/>
<path d="m1.45-2.85 0.2 0.05 0.5 0.1 1.3 2.05-2.95 0.9 0.6 0.65-0.05 0.05-0.2 0.45v2-2l3 0.75 0.3 0.5-2.6 2.85-3.8 0.15-3.25-1.35-1.65-1.95 1.2-3.5 2.65-0.65 1.35 1.35 0.1-0.15h1.45l0.4 0.35-1.1-1 0.35-1.15 0.1-0.05 1-0.7 1.1 0.3m-1.45 2.6 0.5 0.5-0.5-0.5m-2.6-0.85-2.35 0.35 2.35-0.35m0.65 0.65-1.5 1.85 1.5-1.85" fill="#a5986b" fill-rule="evenodd"/>
<path d="m3.45-0.65 0.2 0.3-0.9 0.9 1.1 1.6-3-0.75 0.2-0.45 0.05-0.05-0.6-0.65 2.95-0.9m-1.05 1.55 0.35-0.35-0.35 0.35" fill="#746947" fill-rule="evenodd"/>
<path d="m1.65-2.8 0.5 0.1 1.3 2.05 0.2 0.3-0.9 0.9 1.1 1.6 0.3 0.5m-10.1-3.8 2.65-0.65 1.35 1.35 0.1-0.15h1.45l0.4 0.35-1.1-1 0.35-1.15 0.1-0.05 1-0.7h0.05m1.05 0.3-1.1-0.3m0.5 4.55 0.2-0.45 0.05-0.05-0.6-0.65-0.5-0.5m0.85 1.65v2m1.9-2.85-0.35 0.35m-7.35-1.65 2.35-0.35m1.95-1.35-0.1 0.05m-2.7 3.8 1.5-1.85" fill="none" stroke="#352f20" stroke-linecap="round" stroke-linejoin="round" stroke-width=".05"/>
</g>
<g id="f" transform="translate(12.1,19.05)">
<path d="m7.25-6.7-0.85-1.15q1.25-1.2 2.6-1.9l1.15 0.6 0.85-0.65-0.35-0.6 0.75-0.2 0.45 2.15-0.15 1.3q-0.3 0.75-1.05 1.2l-2.05 1.15-1.35-1.9" fill-rule="evenodd"/>
<path d="m0.85-5.55-0.4-0.95-0.15-0.35-0.7-0.25 1.65-3.8 5.85-2.2 3.8 1.3 1.25 1.1-0.3 2.25-0.45-2.15-0.75 0.2-1.65 0.65q-1.35 0.7-2.6 1.9l0.85 1.15 1.15 6.2-0.9 0.5-5.45-1.4-1.15-4.15h-0.05" fill="#a5986b" fill-rule="evenodd"/>
<path d="m0.2-19 0.2-0.05 6.5 5.9 0.2 0.05-5.85 2.2-1.65 3.8 0.7 0.25 0.15 0.35 0.4 0.95-3.9 0.15-6.85-1.25 1.3-3.1-3.5 1 4.6-5 2.8-1.6 0.1-0.05v-1.4l4.8-2.2m8.2 18.5-1.15-6.2 1.35 1.9 2.05-1.15q0.75-0.45 1.05-1.2l-0.75 5.15-2.55 1.5" fill="#8b7f58" fill-rule="evenodd"/>
<path d="m9-9.75 1.65-0.65 0.35 0.6-0.85 0.65-1.15-0.6" fill="#c1c8c6" fill-rule="evenodd"/>
<path d="m0.4-19.05-0.2 0.05m-4.8 2.2v1.4l-0.1 0.05m-7.4 6.6 3.5-1m-1.3 3.1 6.85 1.25 3.9-0.15-0.4-0.95m6.65-6.6-0.2-0.05m4.95 4.7 0.3-2.25-1.25-1.1m-10.05 6.25h0.05l1.15 4.15 5.45 1.4 0.9-0.5 2.55-1.5 0.75-5.15 0.15-1.3" fill="none" stroke="#352f20" stroke-linecap="round" stroke-linejoin="round" stroke-width=".05"/>
</g>
<g id="b" transform="translate(3.25,16.05)">
<path d="m-0.9-12.45 0.05-0.1 2.2 0.8 0.2 0.05 1.6 5.65-2.5 2.3-3.6-1.15-0.3-4.05 2.35-3.5m0.7 4.25 0.85 4.45-0.85-4.45" fill="#6a6245" fill-rule="evenodd"/>
<path d="m-2.95-4.9-0.3-4.05 2.35-3.5m1.55 8.7-0.85-4.45" fill="none" stroke="#221e14" stroke-linecap="round" stroke-linejoin="round" stroke-width=".05"/>
<path d="m0.8-13.8 1.3-1.45m-2.45 1.55-0.15-2.35" fill="none" stroke="#443f2c" stroke-linecap="round" stroke-linejoin="round" stroke-width=".05"/>
</g>
<g id="a" transform="translate(3.95,6.1)">
<path d="m3.7-5.35q0.65 1.1 0.65 2.5 0 2.1-1.45 3.55-1.5 1.45-3.6 1.5-1.45-0.05-2.6-0.75-0.65-1.1-0.65-2.5 0-2.1 1.45-3.55 1.45-1.5 3.55-1.5 1.5 0 2.65 0.75" fill="#fff" fill-rule="evenodd"/>
<path d="m-3.3 1.45q1.15 0.7 2.6 0.75 2.1-0.05 3.6-1.5 1.45-1.45 1.45-3.55 0-1.4-0.65-2.5l0.95 0.75q1.45 1.45 1.45 3.55t-1.45 3.55q-1.5 1.45-3.6 1.5-2.1-0.05-3.55-1.5l-0.8-1.05" fill="#cecab0" fill-rule="evenodd"/>
<path d="m-3.3 1.45 0.8 1.05q1.45 1.45 3.55 1.5 2.1-0.05 3.6-1.5 1.45-1.45 1.45-3.55t-1.45-3.55l-0.95-0.75q-1.15-0.75-2.65-0.75-2.1 0-3.55 1.5-1.45 1.45-1.45 3.55 0 1.4 0.65 2.5z" fill="none" stroke="#6b5b40" stroke-linecap="round" stroke-linejoin="round" stroke-opacity=".37255" stroke-width=".05"/>
<path d="m4.6 0.7-0.95 0.55q-0.6 0-0.95-0.55-0.4-0.4-0.4-1.1t0.4-1.25q0.35-0.45 0.95-0.45 0.55 0 0.95 0.45l0.35 1.25q0 0.7-0.35 1.1" fill-rule="evenodd"/>
</g>
</defs>
</svg>
