<?xml version="1.0" encoding="UTF-8" standalone="no"?>
<!DOCTYPE svg PUBLIC "-//W3C//DTD SVG 1.1//EN" "http://www.w3.org/Graphics/SVG/1.1/DTD/svg11.dtd">
<svg width="100%" height="100%" viewBox="0 0 121 148" version="1.1" xmlns="http://www.w3.org/2000/svg" xmlns:xlink="http://www.w3.org/1999/xlink" xml:space="preserve" xmlns:serif="http://www.serif.com/" style="fill-rule:evenodd;clip-rule:evenodd;stroke-linecap:round;stroke-linejoin:round;">
    <g transform="matrix(1,0,0,1,-236.602,-134.208)">
        <g transform="matrix(1,0,0,1,296.977,210.883)">
            <g id="sprite0">
                <g id="shape0">
                    <path d="M-29.45,-59.2L-29.2,-59.45L-18.95,-67.2L-17.7,-67.7L-13,-68.7L-5.5,-68.95L1,-67.95C7.967,-66.117 14.117,-62.283 19.45,-56.45L20.2,-55.45L23.95,-51.25L25.45,-48.5C31.75,-38.367 34.567,-26.467 33.9,-12.8C33.4,-6.167 32.067,0.067 29.9,5.9L29.65,6.4L29.4,6.4L26.95,12.6L18.7,23.85L18.45,23.6L18.95,22.6L21.7,18.1L24.45,12.1L24.7,12.1L24.95,11.35C26.95,5.55 28.183,-0.683 28.65,-7.35C29.317,-20.817 26.5,-32.7 20.2,-43L18.7,-45.5L16.95,-47.5L15.45,-50C11.117,-54.8 6.3,-58.283 1,-60.45L-3.5,-61.95L-9.25,-62.45L-17.95,-62.95L-22.95,-61.95L-24.2,-61.45L-29.45,-58.2L-29.45,-59.2" style="fill:#30240e;"/>
                    <path d="M-29.45,-59.2L-29.45,-58.2L-24.2,-61.45L-22.95,-61.95L-17.95,-62.95L-9.25,-62.45L-3.5,-61.95L1,-60.45C6.3,-58.283 11.117,-54.8 15.45,-50L16.95,-47.5L18.7,-45.5L20.2,-43C26.5,-32.7 29.317,-20.817 28.65,-7.35C28.183,-0.683 26.95,5.55 24.95,11.35L24.7,12.1L24.45,12.1L21.7,18.1L18.95,22.6L18.45,23.6L18.7,23.85L18.2,24.6L16.2,26.6C13.2,29.233 10.2,31.3 7.2,32.8L5.5,33.3L3.85,5.05L5.1,4.65L3.85,4.5L1.25,-39.5L1,-60.45L1.25,-39.5L1.4,4.25L-22.45,1.65L-27.1,1.15L-29.1,0.45C-31.533,-0.783 -34.85,-3.383 -39.05,-7.35C-41.85,-9.817 -43.933,-11.85 -45.3,-13.45L-45.15,-20.8L-45,-22.85L-43.3,-25.3L-39.05,-30.05L-44.75,-26.75L-44.65,-28.05L-44.4,-28.05L-41.65,-39.25L-37.65,-49.5L-30.95,-57.95L-29.45,-59.2M1.5,34.3L-6.75,34.8L-9.25,34.55L-10.25,34.55L-12,34.3L-21.7,30.55L-22.45,30.05L-25.95,27.4L-23.6,25.35L-28.85,24.1L-28.1,21.85L-28.6,22.1L-22.45,17.35L-18.6,14.35C-14.967,11.517 -11.9,9.683 -9.4,8.85L1.4,5.75L1.5,34.3M19.2,-6.85L18.7,-45.5L19.2,-6.85M-29.45,-58.2L-29.1,0.45L-29.45,-58.2M-9,-21.55L-9.25,-62.45L-9,-21.55M-38.65,-20.05L-37.65,-49.5L-38.65,-20.05M-22.45,30.05L-22.45,17.35L-22.45,30.05M-22.45,-2.85L-22.45,1.65L-22.45,-2.85M-35.3,10.85L-30.6,20.35L-34.1,17.35C-36.4,14.183 -37.383,10.033 -37.05,4.9L-35.3,10.85M-31.45,22.2L-31.6,22L-30.85,22.1L-31.45,22.2" style="fill:#3b2d12;"/>
                    <path d="M5.5,33.3L1.5,34.3L1.4,5.75L3.85,5.05L5.5,33.3M1.25,-39.5L3.85,4.5L1.4,4.25L1.25,-39.5" style="fill:#2b200d;"/>
                    <path d="M-25.95,27.4L-34.1,34.3L-34.6,34.8L-35.1,34.8L-36.55,36.05L-30.85,38.05L-30.35,38.55L-33.1,39.55L-34.85,39.8L-36.05,39.8L-36.55,39.55L-42.3,34.55L-41.8,33.3C-39.133,29.5 -36.317,26.767 -33.35,25.1L-39.8,26.85C-42.633,26.85 -45.3,26.183 -47.8,24.85L-50.8,22.6L-52.55,18.85L-57.5,5.15L-58.5,0.15L-58.5,-0.6C-58.667,-12.733 -56.767,-19.883 -52.8,-22.05L-44.75,-26.75L-39.05,-30.05L-43.3,-25.3L-45,-22.85C-46.533,-20.483 -47.3,-18.55 -47.3,-17.05C-47.3,-16.25 -46.633,-15.05 -45.3,-13.45C-43.933,-11.85 -41.85,-9.817 -39.05,-7.35C-34.85,-3.383 -31.533,-0.783 -29.1,0.45L-27.1,1.15L-22.45,1.65L1.4,4.25L3.85,4.5L5.1,4.65L3.85,5.05L1.4,5.75L-9.4,8.85C-11.9,9.683 -14.967,11.517 -18.6,14.35L-22.45,17.35L-28.6,22.1L-28.1,21.85L-28.85,24.1L-23.6,25.35L-25.95,27.4M-35.3,10.85L-37.05,4.9C-37.383,10.033 -36.4,14.183 -34.1,17.35L-30.6,20.35L-35.3,10.85M-31.45,22.2L-30.85,22.1L-31.6,22C-33.4,21.7 -35.383,20.9 -37.55,19.6C-42.717,17.1 -46.8,13.117 -49.8,7.65L-45.8,15.85C-41.933,20.85 -37.15,22.967 -31.45,22.2" style="fill-opacity:0.1;"/>
                    <path d="M18.7,-45.5L19.2,-6.85M-37.65,-49.5L-38.65,-20.05M-9.25,-62.45L-9,-21.55M-22.45,17.35L-22.45,30.05M-22.45,1.65L-22.45,-2.85" style="fill:none;fill-rule:nonzero;stroke:#000;stroke-opacity:0.1;stroke-width:0.05px;"/>
                    <path d="M-29.45,-59.2L-29.45,-58.2L-29.1,0.45M-21.7,30.55L-22.45,30.05M1,-60.45L1.25,-39.5L1.4,4.25M1.4,5.75L1.5,34.3" style="fill:none;fill-rule:nonzero;stroke:#000;stroke-opacity:0.2;stroke-width:0.05px;"/>
                    <path d="M-2.5,-76.65L2.25,-76.65L7.95,-75.65L15.7,-71.7L29.15,-60.45L36.9,-51.5L36.65,-51.5L34.65,-51.75L36.65,-51.5C41.15,-45.667 42.983,-34.683 42.15,-18.55L40.4,2.9L36.15,4.4L35.15,4.4L35.15,3.9C36.817,-1.1 37.733,-6.517 37.9,-12.35C38.4,-17.983 38.233,-23.3 37.4,-28.3L36.9,-31.3L37.4,-31.05L37.9,-31.05L38.9,-32.55C40.4,-35.017 40.4,-38.667 38.9,-43.5L34.65,-51.75L33.4,-52.25L31.15,-52.5L28.15,-53.25L27.95,-53.25L26.95,-54.7C20.45,-64.367 12.55,-70.533 3.25,-73.2L3.75,-73.45L-0.75,-76.15L-2.5,-76.65" style="fill:#806341;"/>
                    <path d="M-50.4,-41.5L-44.9,-51.75L-44.65,-52.5L-36.9,-57.95C-33.433,-60.45 -30.45,-61.783 -27.95,-61.95L-36.4,-54L-40.4,-49L-47.15,-39.5L-50.4,-41.5M-27.45,-69.2L-18.95,-72.7L-17.95,-73.2L-17.95,-72.7L-16.45,-73.45L-13.95,-73.95L-5.25,-74.45L3.25,-73.2L0,-71.7L-3.5,-70.95L-18.45,-68.95L-27.45,-69.2M-18.45,-68.95L-18.95,-72.7L-18.45,-68.95" style="fill:#6e5338;"/>
                    <path d="M3.25,-73.2C12.55,-70.533 20.45,-64.367 26.95,-54.7L27.95,-53.25L27.45,-52L25.95,-50.5L24.95,-52C18.117,-61.633 9.967,-67.367 0.5,-69.2C9.967,-67.367 18.117,-61.633 24.95,-52L25.95,-50.5L24.95,-49.5L23.45,-47.75L24.95,-49.5L32.4,-37L33.15,-35.5L36.9,-31.3L37.4,-28.3C38.233,-23.3 38.4,-17.983 37.9,-12.35C37.733,-6.517 36.817,-1.1 35.15,3.9L35.15,4.4L34.4,4.65L34.65,4.9L27.7,5.65L27.95,5.15C29.917,-0.517 31.15,-6.583 31.65,-13.05C32.317,-26.217 29.583,-37.783 23.45,-47.75L21.95,-50.25L18.45,-54.45C12.783,-61.117 6.133,-65.2 -1.5,-66.7L-6.5,-67.45L-13.75,-67.2L-18.45,-66.2L-19.7,-65.7L-27.95,-61.95C-30.45,-61.783 -33.433,-60.45 -36.9,-57.95L-44.65,-52.5L-39.65,-59.2L-29.2,-68.2L-27.45,-69.2L-18.45,-68.95L-3.5,-70.95L0,-71.7L3.25,-73.2M-53.15,6.4C-55.617,-1.433 -56.533,-9.75 -55.9,-18.55L-55.15,-26.55L-54.65,-26.55C-53.983,-32.017 -52.567,-37 -50.4,-41.5L-47.15,-39.5C-50.65,-34.033 -52.9,-27.717 -53.9,-20.55L-54.4,-20.55L-54.9,-13.55C-55.4,-6.417 -54.817,0.233 -53.15,6.4M32.4,1.65L34.9,-13.3C35.233,-18.8 34.983,-23.967 34.15,-28.8C34.983,-23.967 35.233,-18.8 34.9,-13.3L32.4,1.65M32.15,8.4L31.9,11.35L30.4,13.85C28.267,17.517 26.533,19.1 25.2,18.6L25.7,14.85L27.2,11.1L29.65,7.15L32.15,8.4M-18.45,-68.95L-18.45,-66.2L-18.45,-68.95" style="fill:#59442d;"/>
                    <path d="M-2.5,-76.65L-0.75,-76.15L3.75,-73.45L3.25,-73.2L-5.25,-74.45L-13.95,-73.95L-16.45,-73.45L-14.2,-74.45L-7.5,-76.15L-2.5,-76.65M31.15,-52.5L33.4,-52.25L34.65,-51.75L38.9,-43.5C40.4,-38.667 40.4,-35.017 38.9,-32.55L37.9,-31.05L37.4,-31.05L36.9,-31.3L32.65,-45L33.15,-46L32.9,-49.5L31.15,-52.5M36.65,-51.5L36.9,-51.5L29.15,-60.45L15.7,-71.7L7.95,-75.65C18.283,-73.517 27.017,-67.283 34.15,-56.95L37.9,-51L38.15,-50.25L41.4,-42.75L44.9,-27.8L45.4,-14.55L42.4,2.15L40.4,2.9L42.15,-18.55C42.983,-34.683 41.15,-45.667 36.65,-51.5M37.9,-51L36.9,-51.5L37.9,-51M23.95,25.35C27.917,20.517 31.067,15.1 33.4,9.1L33.65,9.1L37.15,8.15L30.4,20.1C24.267,28.733 16.783,35.05 7.95,39.05C12.783,36.55 17.283,32.983 21.45,28.35L23.95,25.35" style="fill:#a17d52;"/>
                    <path d="M27.95,-53.25L28.15,-53.25L32.65,-45L31.9,-45.75L27.45,-52L27.95,-53.25M5.5,40.3L5.25,40.3L5,40.55L-9.25,43.3L-12.5,43.3L-24.2,41.3C-29.867,38.967 -34.85,35.467 -39.15,30.8C-35.517,34.467 -31.45,36.967 -26.95,38.3C-23.95,39.633 -20.7,40.383 -17.2,40.55L-15.95,40.8L-10,40.55L-9.75,40.55C-5.917,39.883 -2.167,38.467 1.5,36.3L8.7,31.3C6.9,34.467 5.833,37.467 5.5,40.3M29.65,7.15L27.2,11.1L25.7,14.85L25.2,18.6C26.533,19.1 28.267,17.517 30.4,13.85L31.9,11.35L32.15,8.4L33.4,9.1C31.067,15.1 27.917,20.517 23.95,25.35L20.45,26.6C19.783,26.267 19.7,24.517 20.2,21.35L21.7,16.85L22.2,15.85L24.95,11.6L27.45,5.65L29.65,7.15M-9.75,40.55L-9.25,43.3L-9.75,40.55" style="fill:#664f34;"/>
                    <path d="M6.5,39.8L5.75,40.3L5.5,40.3C5.833,37.467 6.9,34.467 8.7,31.3L12.95,27.35L13.45,27.1L16.45,23.35L16.95,22.6L21.7,16.85L20.2,21.35C19.7,24.517 19.783,26.267 20.45,26.6L23.95,25.35L21.45,28.35C17.283,32.983 12.783,36.55 7.95,39.05L7,39.55L6.75,39.8L6.5,39.8M25.95,-50.5L27.45,-52L31.9,-45.75L32.65,-45L36.9,-31.3L33.15,-35.5L32.4,-37L24.95,-49.5L25.95,-50.5L26.95,-49L32.4,-37L26.95,-49L25.95,-50.5" style="fill:#7a5d3e;"/>
                    <path d="M28.15,-53.25L31.15,-52.5L32.9,-49.5L33.15,-46L32.65,-45L28.15,-53.25M40.65,7.15C37.817,14.283 33.817,20.6 28.65,26.1C22.183,33.067 15.033,37.633 7.2,39.8L6.25,40.3L6.5,40.05L6.5,39.8L6.75,39.8L7,39.55L7.95,39.05C16.783,35.05 24.267,28.733 30.4,20.1L37.15,8.15L40.65,7.15" style="fill:#8c6d47;"/>
                    <path d="M36.15,4.4L40.65,7.15L37.15,8.15L33.65,9.1L33.4,9.1L32.15,8.4L29.65,7.15L27.45,5.65L27.7,5.65L34.65,4.9L34.4,4.65L35.15,4.4L36.15,4.4" style="fill:#403120;"/>
                    <path d="M-39.15,30.8L-44.65,24.1L-48.65,17.1L-49.4,15.6L-53.15,6.4C-54.817,0.233 -55.4,-6.417 -54.9,-13.55L-54.4,-20.55L-53.9,-20.55C-52.9,-27.717 -50.65,-34.033 -47.15,-39.5L-45.9,-38.75L-46.15,-38.75L-49.65,-25.55L-50.15,-25.55L-50.4,-18.55C-51.233,-6.917 -49.15,3.633 -44.15,13.1L-44.4,13.35L-40.9,18.85C-35.933,26.017 -29.95,30.917 -22.95,33.55L-11.75,35.8L-10.25,35.8L-10,36.05C-4.333,35.717 0.917,34.133 5.75,31.3C9.383,29.5 12.95,26.85 16.45,23.35L13.45,27.1L12.95,27.35L8.7,31.3L1.5,36.3C-2.167,38.467 -5.917,39.883 -9.75,40.55L-10,36.05L-9.75,40.55L-10,40.55L-15.95,40.8L-17.2,40.55C-20.7,40.383 -23.95,39.633 -26.95,38.3C-31.45,36.967 -35.517,34.467 -39.15,30.8M-44.4,13.35L-48.65,17.1L-44.4,13.35" style="fill:#473623;"/>
                    <path d="M5.75,31.3C0.917,34.133 -4.333,35.717 -10,36.05L-10.25,35.8L-11.75,35.8L-22.95,33.55C-29.95,30.917 -35.933,26.017 -40.9,18.85L-44.4,13.35L-44.15,13.1C-49.15,3.633 -51.233,-6.917 -50.4,-18.55L-50.15,-25.55L-49.65,-25.55L-46.15,-38.75L-45.9,-38.75L-40.4,-49L-36.4,-54L-27.95,-61.95L-19.7,-65.7L-31.2,-56.7C-35.667,-51.233 -39.15,-45.25 -41.65,-38.75L-44.4,-27.8L-44.65,-27.8L-45.15,-20.8C-45.817,-9.833 -44.067,0.217 -39.9,9.35L-36.9,14.6L-35.65,16.6C-30.683,23.6 -24.617,28.5 -17.45,31.3L-12.75,32.8L-11.25,33.05L-10.25,33.05L-7.75,33.3L5.75,31.3M-41.65,-38.75L-45.9,-38.75L-41.65,-38.75M-11.25,33.05L-10.25,35.8L-11.25,33.05M-44.4,13.35L-36.9,14.6L-44.4,13.35" style="fill:#332719;"/>
                    <path d="M-40.4,-49L-45.9,-38.75L-47.15,-39.5L-40.4,-49" style="fill:#523f29;"/>
                    <path d="M7.95,-75.65L2.25,-76.65L-2.5,-76.65L-7.5,-76.15L-14.2,-74.45L-16.45,-73.45L-17.95,-72.7L-17.95,-73.2L-18.95,-72.7L-27.45,-69.2L-29.2,-68.2L-39.65,-59.2L-44.65,-52.5L-44.9,-51.75L-50.4,-41.5C-52.567,-37 -53.983,-32.017 -54.65,-26.55L-55.15,-26.55L-55.9,-18.55C-56.533,-9.75 -55.617,-1.433 -53.15,6.4L-49.4,15.6L-48.65,17.1L-44.65,24.1L-39.15,30.8C-34.85,35.467 -29.867,38.967 -24.2,41.3L-12.5,43.3L-9.25,43.3L5,40.55L5.25,40.3M7.95,-75.65C18.283,-73.517 27.017,-67.283 34.15,-56.95L37.9,-51L38.15,-50.25L41.4,-42.75L44.9,-27.8L45.4,-14.55L42.4,2.15L40.4,2.9L36.15,4.4L40.65,7.15C37.817,14.283 33.817,20.6 28.65,26.1C22.183,33.067 15.033,37.633 7.2,39.8L6.25,40.3L6.5,40.05L6.5,39.8" style="fill:none;fill-rule:nonzero;stroke:#000;stroke-opacity:0.2;stroke-width:0.05px;"/>
                    <path d="M25.95,-50.5L24.95,-52C18.117,-61.633 9.967,-67.367 0.5,-69.2M25.95,-50.5L26.95,-49L32.4,-37M34.15,-28.8C34.983,-23.967 35.233,-18.8 34.9,-13.3L32.4,1.65" style="fill:none;fill-rule:nonzero;stroke:#3e301f;stroke-opacity:0.35;stroke-width:0.05px;"/>
                    <path d="M28.15,-53.25L31.15,-52.5L33.4,-52.25M34.65,-51.75L36.65,-51.5L36.9,-51.5L37.9,-51M25.95,-50.5L27.45,-52L27.95,-53.25M23.45,-47.75L24.95,-49.5L25.95,-50.5M33.65,9.1L37.15,8.15L40.65,7.15M-10,36.05L-9.75,40.55L-10,40.55M-18.45,-66.2L-18.45,-68.95L-18.95,-72.7M-45.9,-38.75L-41.65,-38.75M-47.15,-39.5L-50.4,-41.5M-45.9,-38.75L-47.15,-39.5M-46.15,-38.75L-45.9,-38.75M-44.4,13.35L-40.9,18.85C-35.933,26.017 -29.95,30.917 -22.95,33.55L-11.75,35.8L-10.25,35.8L-11.25,33.05M-9.25,43.3L-9.75,40.55M-10.25,35.8L-10,36.05M-48.65,17.1L-44.4,13.35L-44.15,13.1M-36.9,14.6L-44.4,13.35" style="fill:none;fill-rule:nonzero;stroke:#000;stroke-opacity:0.15;stroke-width:0.05px;"/>
                    <path d="M17.95,-55.45L20.2,-52.25L21.95,-50.25L23.45,-47.75C29.583,-37.783 32.4,-26.217 31.9,-13.05C31.233,-6.583 29.917,-0.517 27.95,5.15L27.7,5.65L27.45,5.65L24.95,11.6L22.2,15.85L21.7,16.85L17.2,22.6L16.95,22.35L17.2,21.35L19.95,17.1L22.45,11.1L22.7,11.1L22.95,10.6C24.95,4.967 26.283,-1.1 26.95,-7.6C27.45,-20.733 24.617,-32.283 18.45,-42.25L16.95,-44.75L15.2,-46.75L13.7,-49C9.7,-53.8 5.133,-57.2 0,-59.2L-4.25,-60.7L-18.45,-61.7L-23.2,-60.7L-24.45,-60.2L-29.45,-56.95L-29.45,-57.95L-29.2,-58.2L-19.45,-65.7L-18.2,-66.2L-13.5,-67.2L-6.25,-67.45L0,-66.45C6.8,-64.783 12.783,-61.117 17.95,-55.45" style="fill:#2e210a;fill-opacity:0.3;"/>
                    <path d="M9.95,-70.2L18.95,-61.95L14.2,-61.2C9.533,-60.033 5.633,-58.2 2.5,-55.7L-13,-46L-27.2,-39.75L-25.7,-40.75L-25.95,-40.75L-27.95,-39.5L-28.45,-39.25C-40.417,-33.783 -47.9,-31.05 -50.9,-31.05L-54.15,-31.3L-56.35,-34.25L-53.9,-36L-53.15,-37L-52.15,-36.75C-42.817,-38.417 -29.6,-44.483 -12.5,-54.95L9.95,-70.2M-30.7,31.8L-33.95,34.3L-34.45,34.8L-34.95,34.8L-36.4,36.05L-30.7,38.05L-30.2,38.55L-32.95,39.55L-34.7,39.8L-35.9,39.8L-36.4,39.55L-42.15,34.55L-41.65,33.3C-38.983,29.5 -36.167,26.767 -33.2,25.1L-39.65,26.85C-42.483,26.85 -45.15,26.183 -47.65,24.85L-50.65,22.6L-52.4,18.85L-57.35,5.15L-58.35,0.15L-58.35,-0.6C-58.517,-12.733 -56.617,-19.883 -52.65,-22.05L-38.9,-30.05L-40.05,-28.7L-38.4,-30.55L-31.95,-33.3L-31.95,-33.75L-16.2,-36C-10.9,-42.333 -6.333,-46.667 -2.5,-49L10.7,-56.95L20.95,-59.7L22.45,-57.7L30.9,-41.25C34.9,-30.617 36.4,-19.817 35.4,-8.85C29.267,-4.683 21.367,-0.767 11.7,2.9L34.4,-2.85L33.15,0.9C26.35,2.067 16.217,5.55 2.75,11.35C-4.083,14.35 -9.983,17.267 -14.95,20.1L-23.45,25.35L-30.7,31.8M9.95,3.9L5.25,4.65L-9.25,8.85C-11.75,9.683 -14.817,11.517 -18.45,14.35L-28.45,22.1L-27.95,21.85C-21.45,18.183 -8.817,12.2 9.95,3.9M-37.4,19.6C-42.567,17.1 -46.65,13.117 -49.65,7.65L-45.65,15.85C-41.65,21.017 -36.667,23.1 -30.7,22.1C-32.7,21.933 -34.933,21.1 -37.4,19.6M-35.15,10.85L-36.9,4.9C-37.233,10.033 -36.25,14.183 -33.95,17.35L-30.45,20.35L-35.15,10.85" style="fill:#7f4e26;"/>
                    <path d="M18.95,-61.95L9.95,-70.2L26.7,-68.95L29.9,-64.2L28.9,-63.2L25.7,-62.45L19.95,-62.2L18.95,-61.95M20.95,-59.7L26.7,-60.2L33.65,-58.7L34.9,-57.7C39.067,-52.9 42.233,-47.5 44.4,-41.5L47.65,-26.8L47.65,-22.3L42.4,-15.05C40.4,-12.917 38.067,-10.85 35.4,-8.85C36.4,-19.817 34.9,-30.617 30.9,-41.25L22.45,-57.7L20.95,-59.7M46.4,-3.35L46.65,-3.1L47.15,-1.85L47.15,-1.1L43.9,0.65L38.4,0.15L33.15,0.9L34.4,-2.85L42.4,-3.6L46.4,-3.1L46.4,-3.35" style="fill:#8c5429;"/>
                    <path d="M-27.95,-39.5L-25.95,-40.75L-25.7,-40.75L-27.2,-39.75L-38.4,-30.55L-38.9,-30.05L-52.65,-22.05C-56.617,-19.883 -58.517,-12.733 -58.35,-0.6L-58.35,0.15L-60.1,-20.3L-57.85,-30.05C-55.383,-28.383 -52.317,-27.883 -48.65,-28.55C-42.65,-30.717 -37.833,-33.033 -34.2,-35.5L-27.95,-39.5M-13,-46L2.5,-55.7C5.633,-58.2 9.533,-60.033 14.2,-61.2L18.95,-61.95L20.95,-59.7L10.7,-56.95L-2.5,-49C-6.333,-46.667 -10.9,-42.333 -16.2,-36L-31.95,-33.75L-31.95,-34C-29.283,-35.5 -23.867,-38.917 -15.7,-44.25L-13,-46M32.15,3.65C19.85,6.317 5.633,11.717 -10.5,19.85C-18.133,23.683 -24.867,27.667 -30.7,31.8L-23.45,25.35L-14.95,20.1C-9.983,17.267 -4.083,14.35 2.75,11.35C16.217,5.55 26.35,2.067 33.15,0.9L32.15,3.65M-34.45,34.8L-30.7,38.05L-36.4,36.05L-34.95,34.8L-34.45,34.8M-41.65,33.3L-50.65,22.6L-47.65,24.85C-45.15,26.183 -42.483,26.85 -39.65,26.85L-33.2,25.1C-36.167,26.767 -38.983,29.5 -41.65,33.3M35.4,-8.85L34.4,-2.85L11.7,2.9C21.367,-0.767 29.267,-4.683 35.4,-8.85M9.95,3.9C-8.817,12.2 -21.45,18.183 -27.95,21.85L-28.45,22.1L-18.45,14.35C-14.817,11.517 -11.75,9.683 -9.25,8.85L5.25,4.65L9.95,3.9M-37.4,19.6C-34.933,21.1 -32.7,21.933 -30.7,22.1C-36.667,23.1 -41.65,21.017 -45.65,15.85L-49.65,7.65C-46.65,13.117 -42.567,17.1 -37.4,19.6M-35.15,10.85L-30.45,20.35L-33.95,17.35C-36.25,14.183 -37.233,10.033 -36.9,4.9L-35.15,10.85" style="fill:#623e17;"/>
                    <path d="M18.95,-61.95L19.95,-62.2L25.7,-62.45L28.9,-63.2L33.65,-58.7L26.7,-60.2L20.95,-59.7L18.95,-61.95M47.65,-22.3C47.817,-16.3 46.983,-10.067 45.15,-3.6L46.4,-3.35L46.4,-3.1L42.4,-3.6L34.4,-2.85L35.4,-8.85C38.067,-10.85 40.4,-12.917 42.4,-15.05L47.65,-22.3M47.15,-1.1L47.15,-0.6L45.4,3.65L41.15,6.15L42.9,3.15L40.65,2.15L32.15,3.65L33.15,0.9L38.4,0.15L43.9,0.65L47.15,-1.1" style="fill:#784522;"/>
                    <path d="M-52.15,-36.75L-53.15,-37L-53.9,-36L-56.35,-34.25L-54.15,-31.3L-50.9,-31.05C-47.9,-31.05 -40.417,-33.783 -28.45,-39.25L-27.95,-39.5L-34.2,-35.5C-37.833,-33.033 -42.65,-30.717 -48.65,-28.55C-52.317,-27.883 -55.383,-28.383 -57.85,-30.05L-58.85,-31.05L-59.6,-32.8L-60.35,-35.75C-60.35,-38.417 -59.767,-40 -58.6,-40.5L-51.4,-41L-52.15,-36.75M-27.2,-39.75L-13,-46L-15.7,-44.25C-23.867,-38.917 -29.283,-35.5 -31.95,-34L-31.95,-33.3L-38.4,-30.55L-27.2,-39.75" style="fill:#784823;"/>
                    <path d="M9.95,-70.2L-12.5,-54.95C-29.6,-44.483 -42.817,-38.417 -52.15,-36.75L-53.15,-37L-53.9,-36M2.5,-55.7C5.633,-58.2 9.533,-60.033 14.2,-61.2L18.95,-61.95L19.95,-62.2L25.7,-62.45L28.9,-63.2L29.9,-64.2L26.7,-68.95L9.95,-70.2M33.65,-58.7L28.9,-63.2M33.65,-58.7L34.9,-57.7C39.067,-52.9 42.233,-47.5 44.4,-41.5L47.65,-26.8L47.65,-22.3C47.817,-16.3 46.983,-10.067 45.15,-3.6L46.4,-3.35L46.65,-3.1L47.15,-1.85M47.15,-1.1L47.15,-0.6L45.4,3.65L41.15,6.15L42.9,3.15L40.65,2.15L32.15,3.65C19.85,6.317 5.633,11.717 -10.5,19.85C-18.133,23.683 -24.867,27.667 -30.7,31.8L-33.95,34.3L-34.45,34.8L-30.7,38.05L-30.2,38.55L-32.95,39.55L-34.7,39.8L-35.9,39.8L-36.4,39.55L-42.15,34.55L-41.65,33.3L-50.65,22.6L-52.4,18.85L-57.35,5.15L-58.35,0.15L-60.1,-20.3L-57.85,-30.05L-58.85,-31.05L-59.6,-32.8L-60.35,-35.75C-60.35,-38.417 -59.767,-40 -58.6,-40.5L-51.4,-41L-52.15,-36.75M-57.85,-30.05C-55.383,-28.383 -52.317,-27.883 -48.65,-28.55M-31.95,-33.75L-31.95,-34" style="fill:none;fill-rule:nonzero;stroke:#000;stroke-opacity:0.2;stroke-width:0.05px;"/>
                    <path d="M36.95,36.9L35.45,46.65L35.45,47.85L34.25,51.75L34.8,53.5L38.45,52L33.95,57.05L40.25,61.8L31.5,58.8L31.8,62.1L30.6,60L29.1,57.95L23.7,57.35L28.2,54.35L28.8,52.6L30.6,42.85C34.233,41.05 36.35,39.067 36.95,36.9M32.45,-3.5L33.6,-3.5L32.45,-0.8L32.45,-3.5M35.45,47.85L30,52.9L28.8,52.6L30,52.9L35.45,47.85" style="fill:url(#_Linear1);"/>
                    <path d="M39.35,-3.8L40.55,-2.9L42.35,-3.5L42.05,-2L42.6,0.65L42.95,0.35L45.95,11.35L48.95,18.75L50.15,21.7L53.15,19.95L54.05,20.25L52.25,28L48.65,27.35L46.55,29.45L46.25,29.15L46.25,24.7L45.95,24.4C47.15,24.2 48.25,24.6 49.25,25.6L52.25,28L49.25,25.6C48.25,24.6 47.15,24.2 45.95,24.4L45.95,23.85L42.35,14.65L42.35,12.55L40.55,5.75L39.35,-1.4L39.6,-2.6L39.35,-3.8M54.35,26.8L60.35,29.75L54.35,28.55L54.35,26.8M37.55,30.95L37.55,36.25L36.95,36.25L36.95,36.9C36.35,39.067 34.233,41.05 30.6,42.85L32.75,33.6L33,22.05L33.6,15.2L34.25,11.95L33.6,10.45L35.75,5.1L35.75,6L37.55,16.4L37.55,25.9L36.95,29.45L37.55,30.95M33.6,-3.5L35.75,5.1L33.6,10.45L32.45,-0.8L33.6,-3.5M39.35,22.05L41.1,21.45L42.35,23.55L39.35,22.05M45.95,11.35L43.55,7.8L40.55,5.75L43.55,7.8L45.95,11.35M40.55,-2.9L41.1,-1.7L42.6,0.65L41.1,-1.7L40.55,-2.9M48.95,18.75C48.35,17.75 46.85,16.567 44.45,15.2L42.35,14.65L44.45,15.2C46.85,16.567 48.35,17.75 48.95,18.75M33,22.05L37.55,16.4L33,22.05M37.55,25.9L32.75,33.6L37.55,25.9" style="fill:url(#_Linear2);"/>
                    <path d="M41.1,21.45L39.95,17.25L39.35,12.8L38.1,10.45L37.8,9.3L38.1,8.7L37.8,8.1L35.75,-0.55L35.75,-1.7L36.05,-4.1L39.35,-3.8L39.6,-2.6L39.35,-1.4L40.55,5.75L42.35,12.55L42.35,14.65L45.95,23.85L45.95,24.4L46.25,24.7L46.25,29.15L46.55,29.45L48.65,27.35L52.25,28C51.65,29.767 49.75,30.25 46.55,29.45C49.75,30.25 51.65,29.767 52.25,28L54.05,20.25L54.35,26.8L54.35,28.55L60.35,29.75L55,32.45L56.75,38.35L50.75,36L44.45,38.95L43.25,33L37.55,30.95L36.95,29.45L41.45,26.5L38.45,22.05L38.75,21.7L39.35,22.05L42.35,23.55L41.1,21.45M31.5,0.95L30,-3.15L32.45,-3.5L32.45,-0.8L31.8,1.3L31.5,0.95M39.95,17.25L45.95,23.85L39.95,17.25M35.75,-0.55L40.55,5.75L35.75,-0.55M42.35,14.65L40.25,12.8L37.8,9.3L40.25,12.8L42.35,14.65" style="fill:url(#_Linear3);"/>
                    <path d="M34.25,51.75L38.45,52L34.8,53.5L34.25,51.75M40.25,61.8L33.95,63.25L33.6,71L30.3,68.35L25.2,65.65L20.1,67.45L21,60.65L14.1,55.85L20.4,53.8L20.7,46.65L25.2,49.05L26.1,47.85L25.8,46.65L28.2,37.2L30.3,25.3L30.95,15.8L30.6,15.5L31.8,12.8L31.5,10.2L31.5,2.15L31.25,1.55L31.5,0.95L31.8,1.3L32.45,-0.8L33.6,10.45L34.25,11.95L33.6,15.2L33,22.05L32.75,33.6L31.25,34.2L28.2,37.2L31.25,34.2L32.75,33.6L30.6,42.85L28.8,52.6L26.45,53.8L23.7,56.45L23.7,57.35L29.1,57.95L30.6,60L31.8,62.1L31.5,58.8L40.25,61.8M30.6,15.5L32.45,12.55L32.75,12.25L33.6,10.45L32.75,12.25L32.45,12.55L30.6,15.5M30.3,25.3L33,22.05L30.3,25.3M25.8,46.65L30.6,42.85L25.8,46.65M23.7,57.35C24.7,58.917 27,59.8 30.6,60C27,59.8 24.7,58.917 23.7,57.35" style="fill:url(#_Linear4);"/>
                    <path d="M23.7,57.35L23.7,56.45L26.45,53.8L28.8,52.6L28.2,54.35L23.7,57.35" style="fill:url(#_Linear5);"/>
                    <path d="M41.1,21.45L39.95,17.25L39.35,12.8L38.1,10.45L37.8,9.3L38.1,8.7L37.8,8.1L35.75,-0.55L35.75,-1.7L36.05,-4.1L39.35,-3.8L40.55,-2.9L42.35,-3.5L42.05,-2L42.6,0.65L42.95,0.35L45.95,11.35L48.95,18.75L50.15,21.7L53.15,19.95L54.05,20.25L54.35,26.8L60.35,29.75L55,32.45L56.75,38.35L50.75,36L44.45,38.95L43.25,33L37.55,30.95L37.55,36.25L36.95,36.25L36.95,36.9L35.45,46.65L35.45,47.85L34.25,51.75L38.45,52L33.95,57.05L40.25,61.8L33.95,63.25L33.6,71L30.3,68.35L25.2,65.65L20.1,67.45L21,60.65L14.1,55.85L20.4,53.8L20.7,46.65L25.2,49.05L26.1,47.85L25.8,46.65L28.2,37.2L30.3,25.3L30.95,15.8L30.6,15.5L31.8,12.8L31.5,10.2L31.5,2.15L31.25,1.55L31.5,0.95L30,-3.15L32.45,-3.5M33.6,-3.5L35.75,5.1L35.75,6L37.55,16.4L37.55,25.9L36.95,29.45L41.45,26.5L38.45,22.05L38.75,21.7L39.35,22.05L41.1,21.45L42.35,23.55M40.55,5.75L43.55,7.8L45.95,11.35M32.45,-0.8L33.6,-3.5M42.6,0.65L41.1,-1.7L40.55,-2.9M45.95,24.4L45.95,23.85L39.95,17.25M52.25,28L49.25,25.6C48.25,24.6 47.15,24.2 45.95,24.4M40.55,5.75L35.75,-0.55M42.35,14.65L44.45,15.2C46.85,16.567 48.35,17.75 48.95,18.75M52.25,28C51.65,29.767 49.75,30.25 46.55,29.45M52.25,28L54.05,20.25M32.45,-0.8L31.8,1.3L31.5,0.95M33.6,10.45L32.75,12.25L32.45,12.55L30.6,15.5M33.6,10.45L35.75,5.1M37.55,16.4L33,22.05L30.3,25.3M32.75,33.6L37.55,25.9M37.8,9.3L40.25,12.8L42.35,14.65M37.55,30.95L36.95,29.45M32.75,33.6L31.25,34.2L28.2,37.2M36.95,36.9C36.35,39.067 34.233,41.05 30.6,42.85L25.8,46.65M28.8,52.6L30,52.9L35.45,47.85M30.6,60C27,59.8 24.7,58.917 23.7,57.35L23.7,56.45L26.45,53.8L28.8,52.6M34.8,53.5L34.25,51.75" style="fill:none;fill-rule:nonzero;stroke:#000;stroke-opacity:0.3;stroke-width:0.05px;stroke-linecap:butt;stroke-linejoin:miter;stroke-miterlimit:3;"/>
                    <path d="M28.4,-2.1C26.6,-3.933 26.517,-6.017 28.15,-8.35L28.4,-9.35L28.9,-9.85L31.4,-11.35C33.733,-10.017 35.15,-8.35 35.65,-6.35L36.15,-4.35L35.9,-3.85L35.15,-3.85L33.15,-3.6L32.15,-3.6L29.9,-3.35L28.4,-2.1" style="fill:url(#_Linear6);"/>
                    <path d="M35.4,1.9L30.15,2.4L29.65,3.65C28.183,1.983 27.85,0.317 28.65,-1.35L28.4,-2.1L29.9,-3.35L32.4,-2.85L33.15,-2.6L35.4,0.15L35.4,1.9" style="fill:url(#_Linear7);"/>
                    <path d="M43.65,3.9L41.65,2.9L38.9,2.15L36.9,1.9L35.4,1.9L35.4,0.15L33.15,-2.6L32.4,-2.85L29.9,-3.35L32.15,-3.6L33.15,-3.6L35.15,-3.85L37.15,-3.85L41.15,-2.85C43.817,-1.183 45.15,0.567 45.15,2.4L43.65,3.9" style="fill:url(#_Linear8);"/>
                    <path d="M31.4,-11.35L36.4,-12.55L41.4,-12.35L44.65,-7.1L44.9,-4.85L44.65,-1.85L41.15,-2.85L37.15,-3.85L35.9,-3.85L36.15,-4.35L35.65,-6.35C35.15,-8.35 33.733,-10.017 31.4,-11.35" style="fill:url(#_Linear9);"/>
                    <path d="M41.4,-12.35L45.15,-11.6L45.9,-11.6L46.4,-11.1L47.15,-11.1L48.9,-9.6L49.1,-9.1L50.85,-6.6C51.017,-3.767 50.517,-1.85 49.35,-0.85L47.4,-0.6L47.15,-0.85L44.65,-1.85L44.9,-4.85L44.65,-7.1L41.4,-12.35" style="fill:url(#_Linear10);"/>
                    <path d="M48.15,1.15L48.4,2.4L48.65,3.15L47.65,5.15L46.4,6.15C45.233,4.817 44.317,4.067 43.65,3.9L45.15,2.4C45.15,0.567 43.817,-1.183 41.15,-2.85L44.65,-1.85L47.15,-0.85L47.4,-0.6L48.15,1.15" style="fill:url(#_Linear11);"/>
                    <path d="M50.85,-6.6L51.1,-4.1L49.6,0.15L48.15,1.15L47.4,-0.6L49.35,-0.85C50.517,-1.85 51.017,-3.767 50.85,-6.6" style="fill:url(#_Linear12);"/>
                    <path d="M28.4,-2.1C26.6,-3.933 26.517,-6.017 28.15,-8.35L28.4,-9.35L28.9,-9.85L31.4,-11.35L36.4,-12.55L41.4,-12.35L45.15,-11.6L45.9,-11.6L46.4,-11.1L47.15,-11.1L48.9,-9.6L49.1,-9.1L50.85,-6.6L51.1,-4.1L49.6,0.15L48.15,1.15L48.4,2.4L48.65,3.15L47.65,5.15L46.4,6.15C45.233,4.817 44.317,4.067 43.65,3.9L41.65,2.9L38.9,2.15L36.9,1.9L35.4,1.9L30.15,2.4L29.65,3.65C28.183,1.983 27.85,0.317 28.65,-1.35L28.4,-2.1L29.9,-3.35L32.15,-3.6L33.15,-3.6L35.15,-3.85L35.9,-3.85L36.15,-4.35L35.65,-6.35C35.15,-8.35 33.733,-10.017 31.4,-11.35M35.9,-3.85L37.15,-3.85L41.15,-2.85L44.65,-1.85L44.9,-4.85L44.65,-7.1L41.4,-12.35M29.9,-3.35L32.4,-2.85L33.15,-2.6L35.4,0.15L35.4,1.9M47.4,-0.6L47.15,-0.85L44.65,-1.85M47.4,-0.6L49.35,-0.85C50.517,-1.85 51.017,-3.767 50.85,-6.6M43.65,3.9L45.15,2.4C45.15,0.567 43.817,-1.183 41.15,-2.85M48.15,1.15L47.4,-0.6" style="fill:none;fill-rule:nonzero;stroke:#000;stroke-opacity:0.3;stroke-width:0.05px;"/>
                    <path d="M28.9,-54.25L29.15,-53.5L30.9,-52C30.733,-53.333 30.817,-54.4 31.15,-55.2L31.65,-56.7L31.15,-57.2C29.483,-57.2 28.733,-56.217 28.9,-54.25M28.65,-57.7L32.15,-58.45L36.9,-55.7L38.9,-51.25C39.4,-49.583 39.233,-48.333 38.4,-47.5C37.4,-46.5 35.983,-46.167 34.15,-46.5C32.483,-46.667 30.983,-47.5 29.65,-49C28.517,-50.333 27.783,-51.833 27.45,-53.5L28.65,-57.7M34.15,-55.95L32.4,-55.7L31.4,-53.75L32.9,-51.5L35.15,-50C35.817,-49.833 36.483,-50.167 37.15,-51L37.15,-52.75L36.4,-54.7L34.15,-55.95M32.4,-50.5C31.9,-50.167 31.483,-50 31.15,-50L31.65,-48.5L32.4,-49L32.65,-49.75L32.4,-50.5" style="fill:#acb3ab;"/>
                    <path d="M28.9,-54.25C28.733,-56.217 29.483,-57.2 31.15,-57.2L31.65,-56.7L31.15,-55.2C30.817,-54.4 30.733,-53.333 30.9,-52L29.15,-53.5L28.9,-54.25M32.4,-50.5L32.65,-49.75L32.4,-49L31.65,-48.5L31.15,-50C31.483,-50 31.9,-50.167 32.4,-50.5" style="fill:#ccc;"/>
                    <path d="M34.15,-55.95L36.4,-54.7L37.15,-52.75L37.15,-51C36.483,-50.167 35.817,-49.833 35.15,-50L32.9,-51.5L31.4,-53.75L32.4,-55.7L34.15,-55.95" style="fill:#666;"/>
                    <path d="M28.65,-57.7L32.15,-58.45L36.9,-55.7L38.9,-51.25C39.4,-49.583 39.233,-48.333 38.4,-47.5C37.4,-46.5 35.983,-46.167 34.15,-46.5C32.483,-46.667 30.983,-47.5 29.65,-49C28.517,-50.333 27.783,-51.833 27.45,-53.5L28.65,-57.7Z" style="fill:none;fill-rule:nonzero;stroke:#000;stroke-opacity:0.1;stroke-width:0.05px;"/>
                    <path d="M40.15,-23.3L40.4,-24.3L39.4,-24.55L38.9,-23.05L39.65,-23.05L40.15,-23.3M39.9,-29.3L39.65,-28.55C39.317,-27.717 39.483,-26.967 40.15,-26.3L42.4,-28.8L43.9,-29.55L43.9,-30.3C42.4,-31.3 41.067,-30.967 39.9,-29.3M37.4,-24.55C37.233,-26.55 37.567,-28.3 38.4,-29.8C39.233,-31.133 40.4,-31.883 41.9,-32.05C43.233,-32.217 44.317,-31.717 45.15,-30.55C46.483,-29.217 47.15,-27.55 47.15,-25.55C47.483,-23.717 47.15,-22.133 46.15,-20.8C45.65,-19.133 44.733,-18.3 43.4,-18.3C41.9,-17.967 40.567,-18.467 39.4,-19.8C38.233,-21.133 37.567,-22.717 37.4,-24.55M43.65,-28.3C42.983,-28.3 42.4,-27.967 41.9,-27.3L41.4,-24.55L42.4,-22.3C42.9,-21.633 43.567,-21.383 44.4,-21.55L45.65,-22.8L46.15,-25.05L45.4,-27.55L43.65,-28.3" style="fill:#acb3ab;"/>
                    <path d="M39.9,-29.3C41.067,-30.967 42.4,-31.3 43.9,-30.3L43.9,-29.55L42.4,-28.8L40.15,-26.3C39.483,-26.967 39.317,-27.717 39.65,-28.55L39.9,-29.3M40.15,-23.3L39.65,-23.05L38.9,-23.05L39.4,-24.55L40.4,-24.3L40.15,-23.3" style="fill:#ccc;"/>
                    <path d="M43.65,-28.3L45.4,-27.55L46.15,-25.05L45.65,-22.8L44.4,-21.55C43.567,-21.383 42.9,-21.633 42.4,-22.3L41.4,-24.55L41.9,-27.3C42.4,-27.967 42.983,-28.3 43.65,-28.3" style="fill:#666;"/>
                    <path d="M37.4,-24.55C37.233,-26.55 37.567,-28.3 38.4,-29.8C39.233,-31.133 40.4,-31.883 41.9,-32.05C43.233,-32.217 44.317,-31.717 45.15,-30.55C46.483,-29.217 47.15,-27.55 47.15,-25.55C47.483,-23.717 47.15,-22.133 46.15,-20.8C45.65,-19.133 44.733,-18.3 43.4,-18.3C41.9,-17.967 40.567,-18.467 39.4,-19.8C38.233,-21.133 37.567,-22.717 37.4,-24.55Z" style="fill:none;fill-rule:nonzero;stroke:#000;stroke-opacity:0.1;stroke-width:0.05px;"/>
                    <path d="M41.15,-50.5L41.65,-49.75L43.9,-47.25L46.65,-41.5L46.65,-41.25C45.65,-43.75 44.233,-44.833 42.4,-44.5L40.65,-44L42.4,-44.5C44.233,-44.833 45.65,-43.75 46.65,-41.25L48.15,-35.5L48.15,-28.8L47.65,-26.55C47.65,-27.55 47.233,-28.383 46.4,-29.05C45.667,-29.45 44.917,-29.867 44.15,-30.3C44.917,-29.867 45.667,-29.45 46.4,-29.05C47.233,-28.383 47.65,-27.55 47.65,-26.55L47.4,-25.55L47.4,-25.3L46.65,-24.3L46.4,-23.8L44.65,-22.55C43.65,-22.883 43.15,-23.8 43.15,-25.3L44.15,-30.3L44.4,-34.25L44.15,-37L40.65,-44L35.65,-50.75L37.9,-51.5L41.15,-50.5L37.9,-51.5L35.65,-50.75C34.483,-52.417 33.9,-53.5 33.9,-54L34.4,-54.7L35.15,-54.95L35.65,-54.95C37.317,-54.783 39.15,-53.3 41.15,-50.5M44.15,-37C46.15,-37.667 47.483,-37.167 48.15,-35.5C47.483,-37.167 46.15,-37.667 44.15,-37" style="fill:#699;"/>
                    <path d="M35.65,-50.75L40.65,-44L44.15,-37L44.4,-34.25L44.15,-30.3L43.15,-25.3C43.15,-23.8 43.65,-22.883 44.65,-22.55L43.65,-22.55L42.15,-23.8L41.9,-24.3L42.15,-30.3L42.15,-32.8L41.65,-35.75L40.9,-37.75L38.15,-43.25L34.4,-49.75L34.15,-50L32.9,-52.25L32.9,-52.5L32.65,-53.25C32.65,-54.217 33.233,-54.7 34.4,-54.7L33.9,-54C33.9,-53.5 34.483,-52.417 35.65,-50.75L34.15,-50L35.65,-50.75M44.15,-37L41.9,-36.5L41.65,-35.75L41.9,-36.5L44.15,-37M42.15,-30.3L44.15,-30.3L42.15,-30.3M38.15,-43.25L40.65,-44L38.15,-43.25" style="fill:#558080;"/>
                    <path d="M46.65,-41.5L43.9,-47.25L41.65,-49.75L41.15,-50.5C39.15,-53.3 37.317,-54.783 35.65,-54.95L35.15,-54.95L34.4,-54.7C33.233,-54.7 32.65,-54.217 32.65,-53.25L32.9,-52.5M44.65,-22.55L43.65,-22.55L42.15,-23.8L41.9,-24.3L42.15,-30.3L42.15,-32.8L41.65,-35.75L40.9,-37.75L38.15,-43.25L34.4,-49.75L34.15,-50L32.9,-52.25M47.65,-26.55L48.15,-28.8L48.15,-35.5L46.65,-41.25M47.4,-25.3L46.65,-24.3L46.4,-23.8L44.65,-22.55M47.4,-25.55L47.65,-26.55" style="fill:none;fill-rule:nonzero;stroke:#000;stroke-opacity:0.2;stroke-width:0.05px;"/>
                    <path d="M41.15,-50.5L37.9,-51.5L35.65,-50.75L34.15,-50M40.65,-44L42.4,-44.5C44.233,-44.833 45.65,-43.75 46.65,-41.25L46.65,-41.5M32.9,-52.25L32.9,-52.5M48.15,-35.5C47.483,-37.167 46.15,-37.667 44.15,-37L41.9,-36.5L41.65,-35.75M44.15,-30.3C44.917,-29.867 45.667,-29.45 46.4,-29.05C47.233,-28.383 47.65,-27.55 47.65,-26.55L47.4,-25.3L47.4,-25.55M44.15,-30.3L42.15,-30.3M40.65,-44L38.15,-43.25" style="fill:none;fill-rule:nonzero;stroke:#000;stroke-opacity:0.1;stroke-width:0.05px;"/>
                </g>
            </g>
            <g id="shape1" transform="matrix(0.3158,0.0498,0.0119,0.3604,-8.94671,-15.6564)">
                <path d="M-26.35,37.2C-24.283,39.5 -23.1,42.267 -22.8,45.5C-22.5,49.233 -23.533,52.567 -25.9,55.5C-28.3,58.367 -31.333,59.967 -35,60.3C-36.767,60.433 -37.033,60.4 -35.8,60.2L-45.45,61.25C-47.383,61.35 -49.2,61.05 -50.9,60.35L-51.65,60.05L-91.6,102.45C-95.5,101.717 -97.75,99.583 -98.35,96.05L-57.85,54.5C-58.583,53.233 -59.1,51.867 -59.4,50.4C-59.567,49.767 -59.567,48.333 -59.4,46.1C-59.3,43.867 -58.133,41.467 -55.9,38.9C-53.733,36.3 -51.85,34.95 -50.25,34.85L-36.75,32.85L94.35,-101.75C95.383,-102.55 96.367,-102.633 97.3,-102C98.233,-101.433 98.567,-100.483 98.3,-99.15L94.4,-95L39.4,-36.65L34.75,-31.7L-28.4,35.35C-28.167,35.483 -27.95,35.65 -27.75,35.85L-27.45,36.1L-26.35,37.2" style="fill:#633e17;"/>
                <path d="M-26.35,37.2C-24.283,39.5 -23.1,42.267 -22.8,45.5C-22.5,49.233 -23.533,52.567 -25.9,55.5C-28.3,58.367 -31.333,59.967 -35,60.3C-36.767,60.433 -37.033,60.4 -35.8,60.2L-45.45,61.25C-47.383,61.35 -49.2,61.05 -50.9,60.35L-51.65,60.05L-91.6,102.45C-95.5,101.717 -97.75,99.583 -98.35,96.05L-57.85,54.5C-58.583,53.233 -59.1,51.867 -59.4,50.4C-59.567,49.767 -59.567,48.333 -59.4,46.1C-59.3,43.867 -58.133,41.467 -55.9,38.9C-53.733,36.3 -51.85,34.95 -50.25,34.85L-36.75,32.85L94.35,-101.75C95.383,-102.55 96.367,-102.633 97.3,-102C98.233,-101.433 98.567,-100.483 98.3,-99.15L94.4,-95C112.433,-61.367 94.1,-41.917 39.4,-36.65L34.75,-31.7C33.917,-20.667 32.883,-10.567 31.65,-1.4C30.417,7.733 25.133,16.35 15.8,24.45C7.033,32.017 -7.017,36.267 -26.35,37.2L-27.45,36.1L-27.75,35.85C-27.95,35.65 -28.167,35.483 -28.4,35.35L34.75,-31.7M39.4,-36.65L94.4,-95" style="fill:none;fill-rule:nonzero;stroke:#633e17;stroke-opacity:0.6;stroke-width:2px;"/>
            </g>
            <g id="shape11" serif:id="shape1" transform="matrix(0.3158,0.0498,0.0119,0.3604,-10.2967,-17.4064)">
                <path d="M-26.35,37.2C-24.283,39.5 -23.1,42.267 -22.8,45.5C-22.5,49.233 -23.533,52.567 -25.9,55.5C-28.3,58.367 -31.333,59.967 -35,60.3C-36.767,60.433 -37.033,60.4 -35.8,60.2L-45.45,61.25C-47.383,61.35 -49.2,61.05 -50.9,60.35L-51.65,60.05L-91.6,102.45C-95.5,101.717 -97.75,99.583 -98.35,96.05L-57.85,54.5C-58.583,53.233 -59.1,51.867 -59.4,50.4C-59.567,49.767 -59.567,48.333 -59.4,46.1C-59.3,43.867 -58.133,41.467 -55.9,38.9C-53.733,36.3 -51.85,34.95 -50.25,34.85L-36.75,32.85L94.35,-101.75C95.383,-102.55 96.367,-102.633 97.3,-102C98.233,-101.433 98.567,-100.483 98.3,-99.15L94.4,-95L39.4,-36.65L34.75,-31.7L-28.4,35.35C-28.167,35.483 -27.95,35.65 -27.75,35.85L-27.45,36.1L-26.35,37.2" style="fill:#bd7137;"/>
                <path d="M-26.35,37.2C-24.283,39.5 -23.1,42.267 -22.8,45.5C-22.5,49.233 -23.533,52.567 -25.9,55.5C-28.3,58.367 -31.333,59.967 -35,60.3C-36.767,60.433 -37.033,60.4 -35.8,60.2L-45.45,61.25C-47.383,61.35 -49.2,61.05 -50.9,60.35L-51.65,60.05L-91.6,102.45C-95.5,101.717 -97.75,99.583 -98.35,96.05L-57.85,54.5C-58.583,53.233 -59.1,51.867 -59.4,50.4C-59.567,49.767 -59.567,48.333 -59.4,46.1C-59.3,43.867 -58.133,41.467 -55.9,38.9C-53.733,36.3 -51.85,34.95 -50.25,34.85L-36.75,32.85L94.35,-101.75C95.383,-102.55 96.367,-102.633 97.3,-102C98.233,-101.433 98.567,-100.483 98.3,-99.15L94.4,-95C112.433,-61.367 94.1,-41.917 39.4,-36.65L34.75,-31.7C33.917,-20.667 32.883,-10.567 31.65,-1.4C30.417,7.733 25.133,16.35 15.8,24.45C7.033,32.017 -7.017,36.267 -26.35,37.2L-27.45,36.1L-27.75,35.85C-27.95,35.65 -28.167,35.483 -28.4,35.35L34.75,-31.7M39.4,-36.65L94.4,-95" style="fill:none;fill-rule:nonzero;stroke:#bd7137;stroke-opacity:0.6;stroke-width:2px;"/>
            </g>
            <g id="shape2">
                <path d="M-35.1,10.85L-30.4,20.35L-33.9,17.35C-36.2,14.183 -37.183,10.033 -36.85,4.9L-35.1,10.85M-37.35,19.6C-34.883,21.1 -32.65,21.933 -30.65,22.1C-36.617,23.1 -41.6,21.017 -45.6,15.85L-49.6,7.65C-46.6,13.117 -42.517,17.1 -37.35,19.6" style="fill:#623e17;"/>
                <path d="M-58.3,0.15L-58.3,-0.6C-58.467,-12.733 -56.567,-19.883 -52.6,-22.05L-38.85,-30.05L-43.1,-25.3C-45.767,-21.8 -47.1,-19.05 -47.1,-17.05C-47.1,-15.383 -44.35,-12.15 -38.85,-7.35C-33.383,-2.183 -29.4,0.65 -26.9,1.15L5.3,4.65L-9.2,8.85C-11.7,9.683 -14.767,11.517 -18.4,14.35L-28.4,22.1L-27.9,21.85L-28.65,24.1L-23.4,25.35L-30.65,31.8L-33.9,34.3L-34.4,34.8L-34.9,34.8L-36.35,36.05L-30.65,38.05L-30.15,38.55L-32.9,39.55L-34.65,39.8L-35.85,39.8L-36.35,39.55L-42.1,34.55L-41.6,33.3C-38.933,29.5 -36.117,26.767 -33.15,25.1L-39.6,26.85C-42.433,26.85 -45.1,26.183 -47.6,24.85L-50.6,22.6L-52.35,18.85L-57.3,5.15L-58.3,0.15M-35.1,10.85L-36.85,4.9C-37.183,10.033 -36.2,14.183 -33.9,17.35L-30.4,20.35L-35.1,10.85M-37.35,19.6C-42.517,17.1 -46.6,13.117 -49.6,7.65L-45.6,15.85C-41.6,21.017 -36.617,23.1 -30.65,22.1C-32.65,21.933 -34.883,21.1 -37.35,19.6" style="fill-opacity:0.1;"/>
                <path d="M-30.65,31.8L-33.9,34.3L-34.4,34.8M-30.65,38.05L-30.15,38.55L-32.9,39.55L-34.65,39.8L-35.85,39.8L-36.35,39.55L-42.1,34.55L-41.6,33.3M-50.6,22.6L-52.35,18.85L-57.3,5.15L-58.3,0.15" style="fill:none;fill-rule:nonzero;stroke:#000;stroke-opacity:0.2;stroke-width:0.05px;"/>
            </g>
        </g>
    </g>
    <defs>
        <linearGradient id="_Linear1" x1="0" y1="0" x2="1" y2="0" gradientUnits="userSpaceOnUse" gradientTransform="matrix(-1.47456,88.3098,-88.3098,-1.47456,27.696,-24.8035)"><stop offset="0" style="stop-color:#bf9e56;stop-opacity:1"/><stop offset="1" style="stop-color:#a68a4a;stop-opacity:1"/></linearGradient>
        <linearGradient id="_Linear2" x1="0" y1="0" x2="1" y2="0" gradientUnits="userSpaceOnUse" gradientTransform="matrix(13.5987,57.5078,-57.5078,13.5987,40.0579,-23.9547)"><stop offset="0" style="stop-color:#bf9e56;stop-opacity:1"/><stop offset="1" style="stop-color:#a68a4a;stop-opacity:1"/></linearGradient>
        <linearGradient id="_Linear3" x1="0" y1="0" x2="1" y2="0" gradientUnits="userSpaceOnUse" gradientTransform="matrix(13.5987,57.5078,-57.5078,13.5987,40.0584,-23.9547)"><stop offset="0" style="stop-color:#a7873f;stop-opacity:1"/><stop offset="1" style="stop-color:#6d5b34;stop-opacity:1"/></linearGradient>
        <linearGradient id="_Linear4" x1="0" y1="0" x2="1" y2="0" gradientUnits="userSpaceOnUse" gradientTransform="matrix(-3.60448,87.8182,-87.8182,-3.60448,27.6042,-26.0588)"><stop offset="0" style="stop-color:#a7873f;stop-opacity:1"/><stop offset="1" style="stop-color:#6d5b34;stop-opacity:1"/></linearGradient>
        <linearGradient id="_Linear5" x1="0" y1="0" x2="1" y2="0" gradientUnits="userSpaceOnUse" gradientTransform="matrix(-1.47456,88.3098,-88.3098,-1.47456,27.5558,-24.8259)"><stop offset="0" style="stop-color:#a7873f;stop-opacity:1"/><stop offset="1" style="stop-color:#6d5b34;stop-opacity:1"/></linearGradient>
        <linearGradient id="_Linear6" x1="0" y1="0" x2="1" y2="0" gradientUnits="userSpaceOnUse" gradientTransform="matrix(2.29376,4.58752,-4.58752,2.29376,29.3053,-9.17667)"><stop offset="0" style="stop-color:#bf9e56;stop-opacity:1"/><stop offset="1" style="stop-color:#a68a4a;stop-opacity:1"/></linearGradient>
        <linearGradient id="_Linear7" x1="0" y1="0" x2="1" y2="0" gradientUnits="userSpaceOnUse" gradientTransform="matrix(1.6384,3.11296,-3.11296,1.6384,30.5932,-1.66452)"><stop offset="0" style="stop-color:#bf9e56;stop-opacity:1"/><stop offset="1" style="stop-color:#a68a4a;stop-opacity:1"/></linearGradient>
        <linearGradient id="_Linear8" x1="0" y1="0" x2="1" y2="0" gradientUnits="userSpaceOnUse" gradientTransform="matrix(-0.32768,3.2768,-3.2768,-0.32768,37.8508,-1.49187)"><stop offset="0" style="stop-color:#bf9e56;stop-opacity:1"/><stop offset="1" style="stop-color:#a68a4a;stop-opacity:1"/></linearGradient>
        <linearGradient id="_Linear9" x1="0" y1="0" x2="1" y2="0" gradientUnits="userSpaceOnUse" gradientTransform="matrix(0.8192,5.07904,-5.07904,0.8192,37.8282,-10.4222)"><stop offset="0" style="stop-color:#bf9e56;stop-opacity:1"/><stop offset="1" style="stop-color:#a68a4a;stop-opacity:1"/></linearGradient>
        <linearGradient id="_Linear10" x1="0" y1="0" x2="1" y2="0" gradientUnits="userSpaceOnUse" gradientTransform="matrix(-2.12992,5.7344,-5.7344,-2.12992,46.8039,-9.45361)"><stop offset="0" style="stop-color:#bf9e56;stop-opacity:1"/><stop offset="1" style="stop-color:#a68a4a;stop-opacity:1"/></linearGradient>
        <linearGradient id="_Linear11" x1="0" y1="0" x2="1" y2="0" gradientUnits="userSpaceOnUse" gradientTransform="matrix(-1.31072,3.11296,-3.11296,-1.31072,45.5713,-0.9042)"><stop offset="0" style="stop-color:#bf9e56;stop-opacity:1"/><stop offset="1" style="stop-color:#a68a4a;stop-opacity:1"/></linearGradient>
        <linearGradient id="_Linear12" x1="0" y1="0" x2="1" y2="0" gradientUnits="userSpaceOnUse" gradientTransform="matrix(-2.4576,2.29376,-2.29376,-2.4576,49.6407,-2.485)"><stop offset="0" style="stop-color:#bf9e56;stop-opacity:1"/><stop offset="1" style="stop-color:#a68a4a;stop-opacity:1"/></linearGradient>
    </defs>
</svg>
