<?xml version="1.0" encoding="UTF-8"?>
<svg version="1.1" viewBox="0 0 24.892 27.83" xmlns="http://www.w3.org/2000/svg" xmlns:cc="http://creativecommons.org/ns#" xmlns:dc="http://purl.org/dc/elements/1.1/" xmlns:rdf="http://www.w3.org/1999/02/22-rdf-syntax-ns#" xmlns:xlink="http://www.w3.org/1999/xlink">
<metadata>
<rdf:RDF>
<cc:Work rdf:about="">
<dc:format>image/svg+xml</dc:format>
<dc:type rdf:resource="http://purl.org/dc/dcmitype/StillImage"/>
</cc:Work>
</rdf:RDF>
</metadata>
<g transform="translate(-262.53 -186.02)">
<use transform="translate(262.55,186.05)" width="24.85" height="27.799999" xlink:href="#a"/>
</g>
<defs>
<g id="a" transform="translate(-262.55,-186.05)">
<path d="m263.8 199.6q2.45-5.7 6.45-10.1l2.1-2.25-0.3 1 2.05-0.35-0.2 1.7h0.05l-0.65 1.5 0.65-1.5 0.05-0.1 2.65-2 1.1 2.7 1.15-1.85 1.35 0.4 0.55 0.15-0.35-2q2.05 1.15 5.85 5.5l0.05 0.2v0.4q0 2.55-0.3 3.1l-4 4.6-3.9 1.8q-2.5 1.55-3.9 1.6-4-0.05-7.15-1.85l-2-1.4-1.3-1.25m3.45 1.8-0.15 0.85 0.15-0.85 1.6 0.5 0.3-1.65-1.35-0.35-1.25-0.35-0.65 1.45 1.35 0.4m1.75-4.55-1.2 3.05 1.2-3.05 0.8 0.6 0.6-0.85-1-0.75-0.6-0.4-0.7 0.75 0.9 0.65m1.15-1.85-0.75 0.85 0.75-0.85 1.1 0.7 1.35-1.3-1.4-0.75-1.05-0.5-1 1.2 1 0.65m2.25-2.75-1.2 1.4 1.2-1.4 1.6 0.5 1-1.1-1.7-0.55-1.45-0.5-0.5 1.3 1.05 0.35m11.7 0.9-1.5-2-1.25-0.25-1.1-2.15 1.1 2.15 1.25 0.25 1.5 2" fill="#eedea8" fill-rule="evenodd"/>
<path d="m267.25 201.4-1.35-0.4 0.65-1.45 1.25 0.35 1.35 0.35-0.3 1.65-1.6-0.5m1.75-4.55-0.9-0.65 0.7-0.75 0.6 0.4 1 0.75-0.6 0.85-0.8-0.6m1.15-1.85-1-0.65 1-1.2 1.05 0.5 1.4 0.75-1.35 1.3-1.1-0.7m2.25-2.75-1.05-0.35 0.5-1.3 1.45 0.5 1.7 0.55-1 1.1-1.6-0.5" fill="#7d5320" fill-rule="evenodd"/>
<path d="m263.8 199.6 1.3 1.25 2 1.4q3.15 1.8 7.15 1.85 1.4-0.05 3.9-1.6l3.9-1.8 4-4.6q0.3-0.55 0.3-3.1v-0.4q0.95 3 0.95 5-0.6 1.8-1.3 8l-0.35 0.6-0.15 0.45-0.5 0.8-0.15 0.15-2.8 3.75q-2.8 4.55-6.55 0.4l-5-6.05q-1-0.85-2.1-1.15l-0.25-0.05-0.95-0.15-2 2.75-0.5 2.45-1.65-1.2q-0.7-2.95-0.15-5.9l0.9-2.85m10.15-10h-0.05l0.1-0.1-0.05 0.1m11.55 17.05-1.25-0.15 1.25 0.15m-2.35-0.25 0.1 0.85 0.6 0.35 0.4-1.1 0.15-0.55v-0.05l0.2-0.55h-1.1l-0.35 1.05-1.05 0.3 1.05-0.3m-2.35 1.25 0.25 1.25 1.1-0.9-0.05-1.3-0.2-0.85-1.1 0.6v1.2l-0.9 0.75 0.9-0.75m-1.95 1.6 0.25 1.2 1.05-0.85-0.25-1.2-0.15-1.45-1.25 0.45 0.35 1.85-1.05 0.85 1.05-0.85m-10.45-4.7-1.4-1.4 0.1-0.9-0.1 0.9 1.4 1.4m-3.1-0.1 1.9-0.1-1.9 0.1" fill="#d0bc77" fill-rule="evenodd"/>
<path d="m286 205.6 0.25 1.4-1.15 1.15-0.25-0.55 0.15-0.15 0.5-0.8 0.5-1.05m-2.85 0.8 0.35-1.05h1.1l-0.2 0.55v0.05l-0.15 0.55-0.4 1.1-0.6-0.35-0.1-0.85m-1.05 0.3 0.05 1.3-1.1 0.9-0.25-1.25v-1.2l1.1-0.6 0.2 0.85m-2.2 1.7 0.25 1.2-1.05 0.85-0.25-1.2-0.35-1.85 1.25-0.45 0.15 1.45" fill="#442b11" fill-rule="evenodd"/>
<path d="m272.05 188.25 0.3-1-2.1 2.25q-4 4.4-6.45 10.1m10.1-10 0.2-1.7m6.35-1-0.9-0.75m0.9 0.75q2.05 1.15 5.85 5.5l0.05 0.2q0.95 3 0.95 5-0.6 1.8-1.3 8m-1.15 2-2.8 3.75q-2.8 4.55-6.55 0.4l-5-6.05q-1-0.85-2.1-1.15l-0.25-0.05-0.95-0.15-2 2.75-0.5 2.45 0.05 0.05-0.1 0.05 0.05-0.1-1.65-1.2q-0.7-2.95-0.15-5.9l0.9-2.85m15.1-11.25 1.35 0.4 0.55 0.15m-4.15-1.4 1.1 2.7m-3.85-0.6 0.1-0.1m11.5 17.15 0.15-0.45m-0.15 0.45-0.5 0.8m-17.8-3.1-1.9 0.1" fill="none" stroke="#745c29" stroke-linecap="round" stroke-linejoin="round" stroke-width=".25"/>
<path d="m267.1 202.25 0.15-0.85m0.55-1.5 1.2-3.05m0.4-1 0.75-0.85m1.05-1.35 1.2-1.4m0.9-1.15 0.65-1.5m6.3-0.85 1.1 2.15 1.25 0.25 1.5 2" fill="none" stroke="#a68a4d" stroke-linecap="round" stroke-linejoin="round" stroke-width=".25"/>
<path d="m274 189.5-0.05 0.1m10.3 16.9 1.25 0.15m-2.35-0.25-1.05 0.3m-1.3 0.95-0.9 0.75m-1.05 0.85-1.05 0.85m-10.7-7.85-0.1 0.9 1.4 1.4" fill="none" stroke="#a5853a" stroke-linecap="round" stroke-linejoin="round" stroke-width=".25"/>
<path d="m278.1 200.9q0.4-0.85 1.15-1.15l1.25 0.2q0.5 0.55 0.6 1.5l-0.45 1.9-1.2 1.05q-0.75 0.2-1.2-0.25-0.6-0.5-0.6-1.45-0.05-1 0.45-1.8m6.8-2.25q0.45 0.4 0.5 1.4l-0.45 1.65q-0.45 0.75-1.05 1.1-0.7 0.2-1.2-0.3-0.5-0.45-0.5-1.3-0.05-0.9 0.45-1.75 0.45-0.8 1.05-1.05 0.65-0.2 1.2 0.25" fill="#241f11" fill-rule="evenodd"/>
</g>
</defs>
</svg>
