<?xml version="1.0" encoding="UTF-8" standalone="no"?>
<!DOCTYPE svg PUBLIC "-//W3C//DTD SVG 1.1//EN" "http://www.w3.org/Graphics/SVG/1.1/DTD/svg11.dtd">
<svg width="100%" height="100%" viewBox="0 0 102 108" version="1.1" xmlns="http://www.w3.org/2000/svg" xmlns:xlink="http://www.w3.org/1999/xlink" xml:space="preserve" xmlns:serif="http://www.serif.com/" style="fill-rule:evenodd;clip-rule:evenodd;stroke-linecap:round;stroke-linejoin:round;">
    <g transform="matrix(1,0,0,1,-224.394,-146.2)">
        <g>
            <g id="shape0">
                <path d="M306.6,147.8L307.05,150.1C301.95,152.267 296.55,153.933 290.85,155.1C284.217,156.167 277.933,155.75 272,153.85L272.6,151.4C282.967,153.7 293.75,152.567 304.95,148L306.6,147.8M263.15,152.3L263.55,154.65C258.983,157.183 253.617,158.733 247.45,159.3C243.65,159.6 240.217,159.083 237.15,157.75L237.45,155.95C245.683,157.55 254.25,156.333 263.15,152.3M259.2,236.45C259.733,236.683 260.3,237.017 260.9,237.45L263.8,239.8L264.9,241.1L266.95,243.85L267.25,244L267.6,244.3L267.65,244.3L267.9,244.4L267.7,244.3L267.7,244.25L267.95,244.1C268.05,244 268.133,243.95 268.2,243.95C268.367,243.65 268.583,243.417 268.85,243.25C270.483,241.183 272.25,239.75 274.15,238.95C274.85,238.517 275.65,238.233 276.55,238.1L276.85,239.85L270.65,243.05L267.5,247.15L265.1,243.25L258.8,238.15L259.2,236.45" style="fill:#fff1a6;"/>
                <path d="M272.6,151.4L272,153.85C277.933,155.75 284.217,156.167 290.85,155.1C296.55,153.933 301.95,152.267 307.05,150.1L306.6,147.8L316.35,146.7C319.283,156 320.833,165.167 321,174.2C321.033,177.667 320.85,181.15 320.45,184.65C319.583,191.55 317.833,198.25 315.2,204.75L310.3,214.5L308.75,212.85L309.4,211.7L309.7,211L312.75,203.85C314.317,199.55 315.6,195.367 316.6,191.3L317.85,184.2L318.1,181.8C318.5,177 318.467,172.383 318,167.95L317.75,165.55C316.817,159.883 315.183,154.5 312.85,149.4C309.983,150.833 307.133,152.1 304.3,153.2C292.267,157.433 280.15,157.817 267.95,154.35L267.65,154.25C264.417,156.05 261.183,157.517 257.95,158.65C254.183,159.817 250.45,160.5 246.75,160.7C244.55,160.8 242.383,160.783 240.25,160.65C236.883,160.283 233.517,159.533 230.15,158.4C229.317,160.567 228.667,162.767 228.2,165C227.367,168.4 226.867,171.883 226.7,175.45C226.433,179.083 226.517,182.867 226.95,186.8C227.317,190.3 227.967,193.95 228.9,197.75C229.8,201.317 230.983,205.033 232.45,208.9L232.7,209.45L233.1,210.5L232.15,211.7C228.25,203.7 225.95,195.317 225.25,186.55C224.983,184.083 224.867,181.617 224.9,179.15C224.967,174.35 225.45,169.4 226.35,164.3C226.75,161.7 227.283,159.083 227.95,156.45L235.8,155.6L237.45,155.95L237.15,157.75C240.217,159.083 243.65,159.6 247.45,159.3C253.617,158.733 258.983,157.183 263.55,154.65L263.15,152.3L272,151.3L272.6,151.4M267.65,161.4C269.583,161.233 271.35,162 272.95,163.7L273.65,164.45L273.85,164.7L273.9,164.8C274.4,166.067 274.35,167.417 273.75,168.85C272.95,170.583 271.617,171.983 269.75,173.05C267.783,174.083 265.933,174.35 264.2,173.85C262.167,173.217 260.733,171.7 259.9,169.3L260.1,168.5C260.433,167.367 260.95,166.317 261.65,165.35C263.217,162.95 265.183,161.65 267.55,161.45L267.65,161.4M307,210.65L308.45,212.4C305.483,214.667 303.5,217.867 302.5,222C301.967,222.233 301.5,222.5 301.1,222.8C297.833,224.8 295.167,227.4 293.1,230.6C292.6,231.3 292.183,232.017 291.85,232.75C291.45,232.85 291.133,232.983 290.9,233.15L289.75,230.2L290.9,233.15C286.833,234.783 283.317,237.583 280.35,241.55L279.8,241.45L279.3,237.8L279.8,241.45C275.3,241.017 271.317,243.467 267.85,248.8C267.75,248.8 267.7,248.833 267.7,248.9L267.7,248.95C267.633,248.917 267.6,248.933 267.6,249L267.5,248.9L267.35,248.85C263.85,242.75 260.083,239.5 256.05,239.1L255.6,239C252.933,234.9 249.95,231.8 246.65,229.7L245.85,229.25C244.05,225.183 241.667,221.933 238.7,219.5L237.6,218.7C236.833,215.1 235.417,212.25 233.35,210.15L234.4,208.7C235.967,209.7 237.233,211.067 238.2,212.8C238.9,214.133 239.433,215.75 239.8,217.65L238.7,219.5L239.8,217.65C241.2,218.417 242.533,219.467 243.8,220.8C245.067,222.2 246.183,223.983 247.15,226.15L247.6,227.15C249.167,227.45 250.633,228.167 252,229.3L253.7,231L255.15,233.1L256.65,235.8C257.45,235.833 258.3,236.05 259.2,236.45L258.8,238.15L265.1,243.25L267.5,247.15L270.65,243.05L276.85,239.85L276.55,238.1L276.95,237.9L278.65,237.8L279.3,237.8C280.533,235.4 282.017,233.567 283.75,232.3C285.483,230.967 287.483,230.267 289.75,230.2L290.15,229.3C291.183,227.167 292.45,225.45 293.95,224.15C295.517,222.517 297.417,221.333 299.65,220.6L301.1,222.8L299.65,220.6C300.017,218.4 300.767,216.55 301.9,215.05L302.4,214.3C302.6,213.933 302.85,213.633 303.15,213.4C304.183,212.267 305.467,211.35 307,210.65M268.4,162.9L267.6,162.8C266.867,162.767 266.183,162.933 265.55,163.3C264.483,163.7 263.65,164.383 263.05,165.35C262.417,166.25 262.233,167.117 262.5,167.95C262.667,168.783 263.183,169.35 264.05,169.65C264.883,169.883 265.833,169.783 266.9,169.35C267.933,168.85 268.783,168.15 269.45,167.25C269.95,166.317 270.15,165.433 270.05,164.6C269.75,163.7 269.2,163.133 268.4,162.9M247.6,227.15L246.65,229.7L247.6,227.15M256.05,239.1L256.65,235.8L256.05,239.1M267.7,244.25L267.7,244.3L267.65,244.3L267.7,244.25" style="fill:#ffe243;"/>
                <path d="M313,155.55C309.867,157.417 306.7,159 303.5,160.3L297.15,162.35L296.55,162.55L296.5,162.55L295.45,162.8L292.4,163.35L292.15,163.45L287.1,163.6L277.5,162.85L275.35,162.45L268.1,160.6L267.65,160.7L267.55,156.75L267.65,160.7C264.683,161.933 261.617,163.067 258.45,164.1L250.45,166.1L250,166.2L246.15,166.4L240.4,166.25L235.5,165.65L232.7,165.1L232.55,166.35C232.183,168.017 231.95,169.733 231.85,171.5L231.65,173.15C231.15,177.65 231.017,182.417 231.25,187.45C231.317,190.45 231.55,193.567 231.95,196.8C232.117,199.133 232.383,201.6 232.75,204.2L233,205.7L232.3,204.1C231.367,201.867 230.617,199.617 230.05,197.35C229.15,193.95 228.55,190.5 228.25,187C227.85,183 227.883,178.883 228.35,174.65C228.583,171.617 229.033,168.55 229.7,165.45L230.9,160.25C233.367,161.217 235.883,161.967 238.45,162.5L246.45,163.15C250.283,162.917 254.183,162.167 258.15,160.9C261.25,159.8 264.367,158.4 267.5,156.7L267.55,156.75C270.717,157.85 273.967,158.617 277.3,159.05L287.2,159.5L294.75,158.5L304.05,155.75L311.95,152.2L313,155.55M275.3,167.4C276.4,168.4 277.267,169.5 277.9,170.7C279.2,173.2 279.35,176.017 278.35,179.15L279.3,180.6L284,187.25L285.2,188.85L287.8,192.05L292.5,197.4L296.9,201.95L303.25,207.7L307,210.65C305.467,211.35 304.183,212.267 303.15,213.4C302.85,213.633 302.6,213.933 302.4,214.3L301.9,215.05L300.85,213.65L295.4,206.3L290.05,199.2L286.05,193.9L283.85,190.9L277.25,182.15L276.4,183.95L276.35,183.95L276.3,184L276.1,183.6L274.4,180.4C275.233,178.867 275.783,177.217 276.05,175.45C276.05,174.983 276.1,174.6 276.2,174.3L276.25,172.9L276.1,170.9L275.8,169.15L275.3,167.4M234.4,208.7L237.65,205.45C237.65,205.317 237.683,205.3 237.75,205.4L238.15,204.85L238.25,204.7L240.3,202.5C240.333,202.4 240.367,202.383 240.4,202.45L240.85,201.9L244.3,197.75L244.8,197.25C244.967,196.883 245.2,196.567 245.5,196.3L248.3,192.75L251.8,187.9L252.05,187.65L256,181.7L256.05,181.6C256.883,180.2 257.75,178.85 258.65,177.55L259.35,176.4L259.75,178.1L259.9,178.5L259.9,178.6L257.1,182.95L252.35,190.5L245.55,201.15L243.7,204.05L242.5,205.9L240.45,209.1L238.2,212.8C237.233,211.067 235.967,209.7 234.4,208.7M262.7,183.4C263.467,184.033 264.283,184.533 265.15,184.9L267.5,185.4L267.6,185.4L270.05,184.75L272.5,183L273.7,181.6C273.833,181.167 274.067,180.767 274.4,180.4L276.1,183.6L276.3,184L276.35,184L278.85,188.5C278.783,188.567 278.833,188.633 279,188.7L281.3,192.7C283,195.733 284.833,198.733 286.8,201.7L287.2,202.4L287.6,203.05L289.25,205.6L289.3,205.7L290.55,207.5L293.45,211.85L293.9,212.4C295.7,215.133 297.617,217.867 299.65,220.6C297.417,221.333 295.517,222.517 293.95,224.15L291.8,219.85L286.55,209.1L282.75,201.05L279.45,194.4L275.25,185.7C274.983,185.9 274.75,186.183 274.55,186.55L274.5,186.55C274.233,186.717 274.017,186.933 273.85,187.2L273.75,187.25L273.7,187.15L272.5,183L273.7,187.15L273.75,187.25L274.4,189.45L275.6,193.3L277.7,199.9L278.2,201.4L281.05,209.3L281.05,209.35L281.9,211.7L282.8,213.95L283.9,216.8C285.533,220.9 287.3,224.9 289.2,228.8L289.75,230.2C287.483,230.267 285.483,230.967 283.75,232.3L281.9,225.7L280.2,219.55L277.7,210.2L276.45,205.65L273.35,194.35L271.65,188.4L270.4,188.7L270.95,193.7L271.05,194.4C271.25,196.567 271.533,198.733 271.9,200.9L272,201.5L272.15,202.9L273.45,211.45C273.983,214.883 274.633,218.267 275.4,221.6L275.75,223.45L276.75,227.9C276.983,229.233 277.317,230.6 277.75,232C278.15,233.933 278.667,235.867 279.3,237.8L278.65,237.8L276.95,237.9L276.55,238.1C275.65,238.233 274.85,238.517 274.15,238.95L270.7,208.2L270.25,203.3L268.7,188.75L267.6,188.6L267.05,188.35L266.45,188.1L265.8,187.7L265.5,190.9L264.1,204.8L263.25,213.95L262.2,224.25L261.7,228.8L261.15,235.2L260.9,237.45C260.3,237.017 259.733,236.683 259.2,236.45C258.3,236.05 257.45,235.833 256.65,235.8L257.7,231.35L257.7,231.2L259.95,220.85L260,220.75L261.25,213.75L261.35,213.25L262.65,204.95L262.9,203.3L262.95,203L264.15,194.5C264.25,192.933 264.4,191.383 264.6,189.85L264.65,189.25L264.9,186.95L264.65,186.75L263.55,185.45L263.3,185.1L259.55,199.65L257.4,208.25L254.15,220.7L252,229.3C250.633,228.167 249.167,227.45 247.6,227.15L248.6,224.85L249.2,223.45L252.3,216.25L254.6,210.3L254.9,209.6L258.7,197.95L259,196.95L259,196.85L259.6,195.1L259.65,194.9C259.883,193.8 260.167,192.733 260.5,191.7L260.65,191.25L261.9,186.5L262.55,183.9L262.7,183.4M260.95,180.95L261.35,181.7L261.5,181.9L251.75,203.3L246.55,214.7L246.05,215.75L243.8,220.8C242.533,219.467 241.2,218.417 239.8,217.65L241.8,214.85L241.95,214.6L242.7,213.6L247.7,206.1L250.7,201.05L252.9,197.1L253.6,195.95L253.85,195.45L257,189.45L257.45,188.45L257.55,188.2L257.6,187.95L257.7,187.8L259.4,184.4L260.95,180.95M278.35,179.15L278.15,178.9L276.05,175.45L278.15,178.9L278.35,179.15M265.15,184.9L264.9,186.95L265.15,184.9M270.05,184.75L270.25,186.65L270.4,188.7L270.25,186.65L270.05,184.75M267.6,185.4L267.6,188.6L267.6,185.4" style="fill:#155493;"/>
                <path d="M267.65,160.7L268.1,160.6L275.35,162.45L277.5,162.85L287.1,163.6L292.15,163.45L292.4,163.35L295.45,162.8L296.5,162.55L296.55,162.55L297.15,162.35L303.5,160.3C306.7,159 309.867,157.417 313,155.55L314.4,161L315.3,164.95L315.7,168.05L312.15,169.25L309.85,169.9L309.8,169.9L302.35,171.6L294.8,172.25C291.833,172.35 288.917,172.283 286.05,172.05L285.65,171.95L285.9,172.45C287.1,174.417 287.733,176.433 287.8,178.5C287.8,180.233 287.35,182.017 286.45,183.85C285.817,184.983 285,186.117 284,187.25L279.3,180.6L278.35,179.15C279.35,176.017 279.2,173.2 277.9,170.7C277.267,169.5 276.4,168.4 275.3,167.4C274.9,166.4 274.433,165.533 273.9,164.8L273.85,164.7L272.95,163.7C271.35,162 269.583,161.233 267.65,161.4L267.65,160.7M302.6,169.05L310.2,169.25L312.65,164.4L303.35,162.25L302.6,169.05M235.5,165.65L240.4,166.25L246.15,166.4L250,166.2L250.45,166.1L258.45,164.1L258.85,167.4L259,167.6L259.1,167.6L260.1,168.5L259.9,169.3L259.4,171.4L259.4,171.65C257.367,172.35 255.333,172.9 253.3,173.3L243.55,174L237,173.05L236.9,173.75C236.567,176.283 236.367,178.767 236.3,181.2C236.167,182.6 236.083,184.05 236.05,185.55C235.917,189.383 236.067,192.867 236.5,196C236.767,199.233 237.35,202.133 238.25,204.7L238.15,204.85L237.75,205.4C237.683,205.3 237.65,205.317 237.65,205.45L234.4,208.7L233.2,206.15L233,205.7L232.75,204.2C232.383,201.6 232.117,199.133 231.95,196.8C231.55,193.567 231.317,190.45 231.25,187.45C231.017,182.417 231.15,177.65 231.65,173.15L231.85,171.5C231.95,169.733 232.183,168.017 232.55,166.35L234.5,166.95L234.5,166.75L235.5,165.65M259.9,178.6C260.133,179.367 260.483,180.15 260.95,180.95L259.4,184.4L257.7,187.8L257.6,187.95L258.3,183.6L257.1,182.95L259.9,178.6M262.55,183.9L261.9,186.5L260.65,191.25L260.5,191.7C260.167,192.733 259.883,193.8 259.65,194.9L259.6,195.1L259,196.85L259,196.95L258.7,197.95L258.55,197.55L252.35,204.45L251.75,203.3L261.5,181.9L261.95,182.5L262.55,183.9M254.9,209.6L254.6,210.3L252.3,216.25L247.7,214.95L254.25,208.45L254.9,209.6M249.2,223.45L248.6,224.85L247.6,227.15L247.15,226.15C246.183,223.983 245.067,222.2 243.8,220.8L246.05,215.75L249.2,223.45M254.15,220.7L257.4,208.25L261.9,204.3L259.55,199.65L263.3,185.1L263.55,185.45L264.65,186.75L264.9,186.95L264.65,189.25L264.6,189.85C264.4,191.383 264.25,192.933 264.15,194.5L262.95,203L262.9,203.3L262.65,204.95L261.35,213.25L261.25,213.75L260,220.75L259.95,220.85L254.15,220.7M286.05,193.9L290.05,199.2L287.35,201.3L287.6,203.05L287.2,202.4L286.8,201.7L287.35,201.3L286.05,193.9M300.85,213.65L301.9,215.05C300.767,216.55 300.017,218.4 299.65,220.6C297.617,217.867 295.7,215.133 293.9,212.4L293.45,211.85L290.55,207.5L293.85,210.45L294.35,209.15L293.9,210.5L294.3,210.8L300.85,213.65M273.75,187.25L273.85,187.2C274.017,186.933 274.233,186.717 274.5,186.55L274.55,186.55C274.75,186.183 274.983,185.9 275.25,185.7L279.45,194.4L279.4,194.4L279.85,200.25L282.75,201.05L286.55,209.1L283.35,213.3L287.75,218.3L283.9,216.8L282.8,213.95L281.9,211.7L281.05,209.35L281.05,209.3L278.2,201.4L277.7,199.9L275.6,193.3L274.4,189.45L273.75,187.25M279,188.7C278.833,188.633 278.783,188.567 278.85,188.5L279,188.55L279,188.7M273.35,194.35L276.45,205.65L273.65,202.55L272.15,202.9L272,201.5L271.9,200.9C271.533,198.733 271.25,196.567 271.05,194.4L273.35,194.35M277.7,210.2L280.2,219.55L278.35,224.1L277.8,225.35L278.6,226.1L277.75,232C277.317,230.6 276.983,229.233 276.75,227.9L275.75,223.45L275.4,221.6C274.633,218.267 273.983,214.883 273.45,211.45L277.7,210.2M289.75,230.2L289.2,228.8L290.15,229.3L289.75,230.2M252.4,191.9L257.55,188.2L257.45,188.45L257,189.45L253.85,195.45L253.6,195.95L252.9,197.1L252.8,195.8L252.8,195.75L252.4,191.9M242.7,213.6L241.95,214.6L242.05,213.35L242.7,213.6M257.7,231.2L257.7,231.35L256.65,235.8L255.15,233.1L253.7,231L257.7,231.2M260.9,237.45L261.15,235.2L263.8,239.8L260.9,237.45M261.7,228.8L262.2,224.25L264.05,227.25L261.7,228.8M263.25,213.95L264.1,204.8L267.15,204.55L267.6,203.95L267.6,188.6L268.7,188.75L270.25,203.3L268,203.85L267.65,206.85L267.6,203.95L267.65,206.85L267.65,214.35L269.65,214.5L270.7,208.2L274.15,238.95C272.25,239.75 270.483,241.183 268.85,243.25L272.9,232.8L268.5,229.05L267.85,227.1L267.65,227.25L267.65,214.35L263.55,213.9L263.25,213.95M265.5,190.9L265.8,187.7L266.45,188.1L267.05,188.35L267.6,188.6L267.6,193.7L265.5,190.9M243.7,204.05L245.55,201.15L246.45,205.45L243.7,204.05M242.25,210.85L240.45,209.1L242.5,205.9L242.25,210.85M267.25,243.95L267.3,243.9L267.3,243.95L267.25,243.95" style="fill:#1e76ce;"/>
                <path d="M267.65,160.7L267.65,161.4L267.55,161.45C265.183,161.65 263.217,162.95 261.65,165.35C260.95,166.317 260.433,167.367 260.1,168.5L259.1,167.6L259,167.6L258.85,167.4L258.45,164.1C261.617,163.067 264.683,161.933 267.65,160.7M302.6,169.05L303.35,162.25L312.65,164.4L310.2,169.25L302.6,169.05M314.55,192.4C313.65,196.033 312.45,199.617 310.95,203.15L303.65,200.35L307.75,191.5L311.25,191.45L311.95,191.45L314.55,192.4M232.55,166.35L232.7,165.1L235.5,165.65L234.5,166.75L234.5,166.95L232.55,166.35M303.25,207.7L296.9,201.95L298.05,198.6L302.15,203.4L303.4,204.8L303.25,207.7M292.5,197.4L287.8,192.05L285.2,188.85L287.05,184.4L295.8,192.7L294.8,194.9L294.8,195.55L292.5,197.4M251.8,187.9L248.3,192.75L241.25,190.65L247.55,184.35L251.8,187.9" style="fill:#1d7ad8;"/>
                <path d="M232.15,211.7L233.1,210.5L232.7,209.45L232.45,208.9C230.983,205.033 229.8,201.317 228.9,197.75C227.967,193.95 227.317,190.3 226.95,186.8C226.517,182.867 226.433,179.083 226.7,175.45C226.867,171.883 227.367,168.4 228.2,165C228.667,162.767 229.317,160.567 230.15,158.4C233.517,159.533 236.883,160.283 240.25,160.65C242.383,160.783 244.55,160.8 246.75,160.7C250.45,160.5 254.183,159.817 257.95,158.65C261.183,157.517 264.417,156.05 267.65,154.25L267.95,154.35C280.15,157.817 292.267,157.433 304.3,153.2C307.133,152.1 309.983,150.833 312.85,149.4C315.183,154.5 316.817,159.883 317.75,165.55L318,167.95C318.467,172.383 318.5,177 318.1,181.8L317.85,184.2L316.6,191.3C315.6,195.367 314.317,199.55 312.75,203.85L309.7,211L309.4,211.7L308.75,212.85L310.3,214.5C306.3,216.767 303.7,220.317 302.5,225.15C297.8,227.65 294.267,231.267 291.9,236L290.9,233.15L291.9,236C287.4,237.533 283.533,240.417 280.3,244.65L279.8,241.45L280.3,244.65C275.633,243.917 271.483,246.317 267.85,251.85C267.75,251.817 267.7,251.867 267.7,252L267.65,251.95L267.6,252.05L267.5,252L267.35,251.75C263.717,245.483 259.8,242.233 255.6,242C252.733,237.433 249.483,234.117 245.85,232.05C243.883,227.55 241.133,224 237.6,221.4C236.7,217.133 234.883,213.9 232.15,211.7M313,155.55L311.95,152.2L304.05,155.75L294.75,158.5L287.2,159.5L277.3,159.05C273.967,158.617 270.717,157.85 267.55,156.75L267.55,156.6L267.5,156.7C264.367,158.4 261.25,159.8 258.15,160.9C254.183,162.167 250.283,162.917 246.45,163.15L238.45,162.5C235.883,161.967 233.367,161.217 230.9,160.25L229.7,165.45C229.033,168.55 228.583,171.617 228.35,174.65C227.883,178.883 227.85,183 228.25,187C228.55,190.5 229.15,193.95 230.05,197.35C230.617,199.617 231.367,201.867 232.3,204.1L233,205.7L233.2,206.15L234.4,208.7L233.35,210.15C235.417,212.25 236.833,215.1 237.6,218.7L238.7,219.5C241.667,221.933 244.05,225.183 245.85,229.25L246.65,229.7L245.85,232.05L246.65,229.7C249.95,231.8 252.933,234.9 255.6,239L256.05,239.1C260.083,239.5 263.85,242.75 267.35,248.85L267.5,248.9L267.5,248.95L267.6,249C267.6,248.933 267.633,248.917 267.7,248.95L267.7,248.9C267.7,248.833 267.75,248.8 267.85,248.8C271.317,243.467 275.3,241.017 279.8,241.45L280.35,241.55C283.317,237.583 286.833,234.783 290.9,233.15C291.133,232.983 291.45,232.85 291.85,232.75C292.183,232.017 292.6,231.3 293.1,230.6C295.167,227.4 297.833,224.8 301.1,222.8L302.5,225.15L301.1,222.8C301.5,222.5 301.967,222.233 302.5,222C303.5,217.867 305.483,214.667 308.45,212.4L307,210.65L310.95,203.15C312.45,199.617 313.65,196.033 314.55,192.4L314.75,191.35L316.05,183.8L316.25,179.8C316.383,176.367 316.267,172.9 315.9,169.4L315.9,169.35L315.7,168.05L315.3,164.95L314.4,161L313,155.55M273.9,164.8C274.433,165.533 274.9,166.4 275.3,167.4L275.8,169.15L276.1,170.9L276.25,172.9L276.2,174.3C273.433,179.333 270.85,182.067 268.45,182.5C266.017,182.9 263.867,182.317 262,180.75L260.05,178.5L260,178.45L259.75,178.1L259.35,176.4L259.25,173.9C259.25,173.067 259.3,172.317 259.4,171.65L259.4,171.4L259.9,169.3C260.733,171.7 262.167,173.217 264.2,173.85C265.933,174.35 267.783,174.083 269.75,173.05C271.617,171.983 272.95,170.583 273.75,168.85C274.35,167.417 274.4,166.067 273.9,164.8M308.75,212.85L308.45,212.4L308.75,212.85M233.35,210.15L233.1,210.5L233.35,210.15M238.7,219.5L237.6,221.4L238.7,219.5M256.05,239.1L255.6,242L256.05,239.1" style="fill:#e7a612;"/>
                <path d="M310.3,214.5L315.2,204.75C317.833,198.25 319.583,191.55 320.45,184.65C320.85,181.15 321.033,177.667 321,174.2C320.833,165.167 319.283,156 316.35,146.7L320.3,147.65L320.35,147.85C323.35,157.45 324.917,166.717 325.05,175.65C325.083,179.117 324.9,182.6 324.5,186.1C323.633,193 321.883,199.7 319.25,206.2C317.783,209.5 316.15,212.75 314.35,215.95C310.35,218.217 307.75,221.767 306.55,226.6C301.85,229.1 298.317,232.717 295.95,237.45C291.45,238.983 287.583,241.867 284.35,246.1C279.683,245.367 275.55,247.733 271.95,253.2L267.7,252C267.7,251.867 267.75,251.817 267.85,251.85C271.483,246.317 275.633,243.917 280.3,244.65C283.533,240.417 287.4,237.533 291.9,236C294.267,231.267 297.8,227.65 302.5,225.15C303.7,220.317 306.3,216.767 310.3,214.5M276.2,174.3C276.1,174.6 276.05,174.983 276.05,175.45C275.783,177.217 275.233,178.867 274.4,180.4C274.067,180.767 273.833,181.167 273.7,181.6L272.5,183L270.05,184.75L267.6,185.4L267.5,185.4L265.15,184.9C264.283,184.533 263.467,184.033 262.7,183.4L261.95,182.5L261.5,181.85L261.35,181.7L260.95,180.95C260.483,180.15 260.133,179.367 259.9,178.6L260.05,178.5L262,180.75C263.867,182.317 266.017,182.9 268.45,182.5C270.85,182.067 273.433,179.333 276.2,174.3" style="fill:#a97a0e;"/>
                <path d="M284,187.25C285,186.117 285.817,184.983 286.45,183.85C287.35,182.017 287.8,180.233 287.8,178.5L294.5,176.1L299.75,183.7L295.8,192.7L287.05,184.4L285.2,188.85L284,187.25M285.9,172.45L285.65,171.95L286.05,172.05L285.9,172.45M312.15,169.25L315.7,168.05L315.9,169.35L312.15,169.25M316.05,183.8L314.75,191.35L314.55,192.4L311.95,191.45L311.25,191.45L311.25,191.15L311.3,182.95L316.05,183.8M310.95,203.15L307,210.65L303.25,207.7L303.4,204.8L302.15,203.4L303.65,200.35L310.95,203.15M236.9,173.75L237,173.05L243.55,174L241.85,176.9L242.15,177.3L239.15,175.25L236.9,173.75M296.9,201.95L292.5,197.4L294.8,195.55L294.8,194.9L298.05,198.6L296.9,201.95M244.3,197.75L240.85,201.9L241,196.95L244.3,197.75M246.65,183.1L248.85,182.8L247.55,184.35L246.65,183.1M241.1,190.5L241.25,190.65L241.1,190.75L241.1,190.5" style="fill:#4595e4;"/>
                <path d="M309.8,169.9L309.85,169.9L312.15,169.25L315.9,169.35L315.9,169.4C316.267,172.9 316.383,176.367 316.25,179.8L313,174.85L309.8,169.9M243.55,174L253.3,173.3L256.05,181.6L256,181.7L248.85,182.8L246.65,183.1L242.15,177.3L241.85,176.9L243.55,174M311.3,182.95L311.25,191.15L302,187.45L302.1,187.25L304.95,174.8L305.5,174.85L311.3,180.95L311.3,182.95" style="fill:#60a4e8;"/>
                <path d="M267.55,156.65L267.55,156.75L267.5,156.7L267.55,156.65" style="fill:#85d6de;"/>
                <path d="M268.4,162.9C269.2,163.133 269.75,163.7 270.05,164.6C270.15,165.433 269.95,166.317 269.45,167.25C268.783,168.15 267.933,168.85 266.9,169.35C265.833,169.783 264.883,169.883 264.05,169.65C263.183,169.35 262.667,168.783 262.5,167.95C262.233,167.117 262.417,166.25 263.05,165.35C263.65,164.383 264.483,163.7 265.55,163.3C266.183,162.933 266.867,162.767 267.6,162.8L268.4,162.9" style="fill:#fff9d5;"/>
                <path d="M287.8,178.5C287.733,176.433 287.1,174.417 285.9,172.45L286.05,172.05C288.917,172.283 291.833,172.35 294.8,172.25L294.5,176.1L287.8,178.5M302.35,171.6L309.8,169.9L313,174.85L305.5,174.85L302.35,171.6M256,181.7L252.05,187.65L251.8,187.9L247.55,184.35L248.85,182.8L256,181.7M311.25,191.15L311.25,191.45L307.75,191.5L303.65,200.35L302.15,203.4L298.05,198.6L294.8,194.9L295.8,192.7L299.75,183.7L302.1,187.25L302,187.45L311.25,191.15" style="fill:#3088e0;"/>
                <path d="M276.35,184L276.3,184L276.35,183.95L276.35,184" style="fill:#247c86;"/>
                <path d="M258.7,197.95L254.9,209.6L254.25,208.45L252.35,204.45L258.55,197.55L258.7,197.95M276.35,183.95L276.4,183.95L277.25,182.15L283.85,190.9L279,188.55L278.85,188.5L276.35,184L276.35,183.95M290.05,199.2L295.4,206.3L294.35,209.15L293.85,210.45L290.55,207.5L289.3,205.7L289.25,205.6L287.6,203.05L287.35,201.3L290.05,199.2M279.45,194.4L282.75,201.05L279.85,200.25L279.4,194.4L279.45,194.4M286.55,209.1L291.8,219.85L287.75,218.3L283.35,213.3L286.55,209.1M271.05,194.4L270.95,193.7L270.4,188.7L271.65,188.4L273.35,194.35L271.05,194.4M276.45,205.65L277.7,210.2L273.45,211.45L272.15,202.9L273.65,202.55L276.45,205.65M280.2,219.55L281.9,225.7L278.35,224.1L280.2,219.55M257.1,182.95L258.3,183.6L257.6,187.95L257.55,188.2L252.4,191.9L252.35,190.5L257.1,182.95M247.7,206.1L242.7,213.6L242.05,213.35L242.25,210.85L242.5,205.9L243.7,204.05L246.45,205.45L247.7,206.1M262.2,224.25L263.25,213.95L263.55,213.9L267.65,226.45L267.65,227.25L267.85,227.1L268.5,229.05L272.9,232.8L268.85,243.25C268.583,243.417 268.367,243.65 268.2,243.95C268.133,243.95 268.05,244 267.95,244.1L267.9,244.05L267.9,244L267.6,244.25L267.35,244L267.3,243.9L267.65,243.25L267.65,227.25L265.2,229.05L264.05,227.25L262.2,224.25M264.1,204.8L265.5,190.9L267.6,193.7L267.6,203.95L267.15,204.55L264.1,204.8" style="fill:#155799;"/>
                <path d="M252.3,216.25L249.2,223.45L246.05,215.75L246.55,214.7L247.7,214.95L252.3,216.25M252,229.3L254.15,220.7L259.95,220.85L257.7,231.2L253.7,231L252,229.3M257.4,208.25L259.55,199.65L261.9,204.3L257.4,208.25M283.85,190.9L286.05,193.9L287.35,201.3L286.8,201.7C284.833,198.733 283,195.733 281.3,192.7L279,188.7L279,188.55L283.85,190.9M295.4,206.3L300.85,213.65L294.3,210.8L293.9,210.5L294.35,209.15L295.4,206.3M291.8,219.85L293.95,224.15C292.45,225.45 291.183,227.167 290.15,229.3L289.2,228.8C287.3,224.9 285.533,220.9 283.9,216.8L287.75,218.3L291.8,219.85M281.9,225.7L283.75,232.3C282.017,233.567 280.533,235.4 279.3,237.8C278.667,235.867 278.15,233.933 277.75,232L278.6,226.1L277.8,225.35L278.35,224.1L281.9,225.7M252.35,190.5L252.4,191.9L252.8,195.75L252.8,195.8L252.9,197.1L250.7,201.05L247.7,206.1L246.45,205.45L245.55,201.15L252.35,190.5M241.95,214.6L241.8,214.85L239.8,217.65C239.433,215.75 238.9,214.133 238.2,212.8L240.45,209.1L242.25,210.85L241.95,214.6M261.15,235.2L261.7,228.8L264.05,227.25L265.2,229.05L267.65,227.25L267.65,243.25L267.3,243.9L267.25,243.95L267.05,243.9L266.95,243.85L264.9,241.1L263.8,239.8L261.15,235.2M270.25,203.3L270.7,208.2L269.65,214.5L267.65,214.35L267.65,206.85L268,203.85L270.25,203.3M263.55,213.9L267.65,214.35L267.65,226.45L263.55,213.9" style="fill:#1762ac;"/>
                <path d="M238.25,204.7C237.35,202.133 236.767,199.233 236.5,196L241,196.95L241.1,190.75L241.25,190.65L248.3,192.75L245.5,196.3C245.2,196.567 244.967,196.883 244.8,197.25L244.3,197.75L241,196.95L240.85,201.9L240.4,202.45C240.367,202.383 240.333,202.4 240.3,202.5L238.25,204.7M253.3,173.3C255.333,172.9 257.367,172.35 259.4,171.65C259.3,172.317 259.25,173.067 259.25,173.9L259.35,176.4L258.65,177.55C257.75,178.85 256.883,180.2 256.05,181.6L253.3,173.3M246.55,214.7L251.75,203.3L252.35,204.45L254.25,208.45L247.7,214.95L246.55,214.7" style="fill:#1b71c7;"/>
                <path d="M260.05,178.5L259.9,178.6L259.9,178.5L259.75,178.1L260,178.45L260.05,178.5" style="fill:#821313;"/>
                <path d="M261.95,182.5L262.7,183.4L262.55,183.9L261.95,182.5" style="fill:#35b6c4;"/>
                <path d="M261.35,181.7L261.5,181.85L261.95,182.5L261.35,181.7" style="fill:#b3d3f4;"/>
                <path d="M236.5,196C236.067,192.867 235.917,189.383 236.05,185.55L241.1,190.5L241.1,190.75L241,196.95L236.5,196M236.3,181.2C236.367,178.767 236.567,176.283 236.9,173.75L239.15,175.25L236.3,181.2" style="fill:#217cd8;"/>
                <path d="M294.8,172.25L302.35,171.6L305.5,174.85L304.95,174.8L302.1,187.25L299.75,183.7L294.5,176.1L294.8,172.25M236.05,185.55C236.083,184.05 236.167,182.6 236.3,181.2L239.15,175.25L242.15,177.3L246.65,183.1L247.55,184.35L241.25,190.65L241.1,190.5L236.05,185.55" style="fill:#3d8fe2;"/>
                <path d="M267.3,243.9L267.35,244L267.6,244.25L267.9,244L267.9,244.05L267.95,244.1L267.7,244.25L267.65,244.3L267.7,244.3L267.9,244.4L267.65,244.3L267.6,244.3L267.25,244L267.25,243.95L267.3,243.95L267.3,244L267.25,243.95L267.3,244L267.3,243.9M267.3,244L267.35,244L267.3,244M267.6,244.3L267.6,244.25L267.65,244.3L267.65,244.25L267.9,244.05L267.65,244.25L267.65,244.3L267.6,244.25L267.6,244.3" style="fill:#4382b6;"/>
                <path d="M267.5,248.9L267.6,249L267.5,248.95L267.5,248.9M267.05,243.9L267.25,243.95L267.25,244L267.05,243.9" style="fill:#f9fd44;"/>
                <path d="M316.25,179.8L316.05,183.8L311.3,182.95L311.3,180.95L305.5,174.85L313,174.85L316.25,179.8" style="fill:#1c75ce;"/>
                <path d="M306.6,147.8L304.95,148C293.75,152.567 282.967,153.7 272.6,151.4L272,151.3L263.15,152.3C254.25,156.333 245.683,157.55 237.45,155.95L235.8,155.6L227.95,156.45C227.283,159.083 226.75,161.7 226.35,164.3C225.45,169.4 224.967,174.35 224.9,179.15C224.867,181.617 224.983,184.083 225.25,186.55C225.95,195.317 228.25,203.7 232.15,211.7C234.883,213.9 236.7,217.133 237.6,221.4C241.133,224 243.883,227.55 245.85,232.05C249.483,234.117 252.733,237.433 255.6,242C259.8,242.233 263.717,245.483 267.35,251.75L267.5,252L267.6,252.05M316.35,146.7L306.6,147.8M320.35,147.85C323.35,157.45 324.917,166.717 325.05,175.65C325.083,179.117 324.9,182.6 324.5,186.1C323.633,193 321.883,199.7 319.25,206.2C317.783,209.5 316.15,212.75 314.35,215.95C310.35,218.217 307.75,221.767 306.55,226.6C301.85,229.1 298.317,232.717 295.95,237.45C291.45,238.983 287.583,241.867 284.35,246.1C279.683,245.367 275.55,247.733 271.95,253.2L267.7,252L267.65,251.95" style="fill:none;fill-rule:nonzero;stroke:#000;stroke-opacity:0.8;stroke-width:1px;"/>
                <path d="M232.15,211.7L233.1,210.5L233.35,210.15L234.4,208.7L237.65,205.45M308.75,212.85L310.3,214.5L315.2,204.75C317.833,198.25 319.583,191.55 320.45,184.65C320.85,181.15 321.033,177.667 321,174.2C320.833,165.167 319.283,156 316.35,146.7M313,155.55L311.95,152.2L304.05,155.75L294.75,158.5L287.2,159.5L277.3,159.05C273.967,158.617 270.717,157.85 267.55,156.75L267.65,160.7L267.65,161.4C269.583,161.233 271.35,162 272.95,163.7L273.85,164.7L273.65,164.45L272.95,163.7M273.9,164.8C274.433,165.533 274.9,166.4 275.3,167.4L275.8,169.15L276.1,170.9L276.25,172.9L276.2,174.3C276.1,174.6 276.05,174.983 276.05,175.45L278.15,178.9L278.35,179.15L279.3,180.6L284,187.25L285.2,188.85L287.8,192.05L292.5,197.4L296.9,201.95L303.25,207.7L307,210.65L308.45,212.4L308.75,212.85M315.7,168.05L315.3,164.95L314.4,161L313,155.55M315.9,169.35L315.7,168.05M315.9,169.4C316.267,172.9 316.383,176.367 316.25,179.8L316.05,183.8L314.75,191.35L314.55,192.4C313.65,196.033 312.45,199.617 310.95,203.15L307,210.65C305.467,211.35 304.183,212.267 303.15,213.4C302.85,213.633 302.6,213.933 302.4,214.3L301.9,215.05C300.767,216.55 300.017,218.4 299.65,220.6C297.617,217.867 295.7,215.133 293.9,212.4L293.45,211.85L290.55,207.5L289.3,205.7M233,205.7L232.3,204.1C231.367,201.867 230.617,199.617 230.05,197.35C229.15,193.95 228.55,190.5 228.25,187C227.85,183 227.883,178.883 228.35,174.65C228.583,171.617 229.033,168.55 229.7,165.45L230.9,160.25C233.367,161.217 235.883,161.967 238.45,162.5L246.45,163.15C250.283,162.917 254.183,162.167 258.15,160.9C261.25,159.8 264.367,158.4 267.5,156.7L267.55,156.6L267.55,156.75M267.5,156.7L267.55,156.65M233.2,206.15L234.4,208.7C235.967,209.7 237.233,211.067 238.2,212.8C238.9,214.133 239.433,215.75 239.8,217.65C241.2,218.417 242.533,219.467 243.8,220.8C245.067,222.2 246.183,223.983 247.15,226.15L247.6,227.15C249.167,227.45 250.633,228.167 252,229.3L253.7,231L255.15,233.1L256.65,235.8C257.45,235.833 258.3,236.05 259.2,236.45C259.733,236.683 260.3,237.017 260.9,237.45L263.8,239.8M237.75,205.4L238.15,204.85M259.4,171.65L259.4,171.4L259.9,169.3L260.1,168.5C260.433,167.367 260.95,166.317 261.65,165.35C263.217,162.95 265.183,161.65 267.55,161.45L267.65,161.4M262.7,183.4C263.467,184.033 264.283,184.533 265.15,184.9L267.5,185.4L267.6,185.4L270.05,184.75L272.5,183L273.7,181.6C273.833,181.167 274.067,180.767 274.4,180.4C275.233,178.867 275.783,177.217 276.05,175.45M259.9,178.6C260.133,179.367 260.483,180.15 260.95,180.95L261.35,181.7L261.5,181.85L261.95,182.5L262.7,183.4L262.55,183.9L261.9,186.5L260.65,191.25L260.5,191.7C260.167,192.733 259.883,193.8 259.65,194.9L259.6,195.1L259,196.85L259,196.95L258.7,197.95L254.9,209.6L254.6,210.3L252.3,216.25L249.2,223.45L248.6,224.85L247.6,227.15L246.65,229.7L245.85,232.05M264.9,186.95L265.15,184.9M276.3,184L276.1,183.6L274.4,180.4M276.35,184L276.3,184M272.5,183L273.7,187.15L273.75,187.25L274.4,189.45L275.6,193.3L277.7,199.9L278.2,201.4L281.05,209.3M293.95,224.15C295.517,222.517 297.417,221.333 299.65,220.6L301.1,222.8L302.5,225.15C297.8,227.65 294.267,231.267 291.9,236L290.9,233.15L289.75,230.2L289.2,228.8C287.3,224.9 285.533,220.9 283.9,216.8L282.8,213.95L281.9,211.7L281.05,209.35M289.25,205.6L287.6,203.05L287.2,202.4L286.8,201.7C284.833,198.733 283,195.733 281.3,192.7L279,188.7C278.833,188.633 278.783,188.567 278.85,188.5L276.35,184M271.05,194.4L270.95,193.7L270.4,188.7L270.25,186.65L270.05,184.75M283.75,232.3C285.483,230.967 287.483,230.267 289.75,230.2L290.15,229.3C291.183,227.167 292.45,225.45 293.95,224.15M259.4,171.65C259.3,172.317 259.25,173.067 259.25,173.9L259.35,176.4L259.75,178.1L259.9,178.5L259.9,178.6M256.05,181.6C256.883,180.2 257.75,178.85 258.65,177.55L259.35,176.4M256.05,181.6L256,181.7L252.05,187.65L251.8,187.9L248.3,192.75L245.5,196.3C245.2,196.567 244.967,196.883 244.8,197.25M244.65,197.4L244.3,197.75L240.85,201.9L240.4,202.45M240.3,202.5L238.25,204.7M257.7,187.8L259.4,184.4L260.95,180.95M257.45,188.45L257,189.45L253.85,195.45L253.6,195.95L252.9,197.1L250.7,201.05L247.7,206.1L242.7,213.6L241.95,214.6M241.8,214.85L239.8,217.65L238.7,219.5L237.6,221.4M261.5,181.9L261.35,181.7M261.95,182.5L261.5,181.9M262.55,183.9L261.95,182.5M264.9,186.95L264.65,189.25L264.6,189.85C264.4,191.383 264.25,192.933 264.15,194.5L262.95,203M262.9,203.3L262.65,204.95L261.35,213.25L261.25,213.75L260,220.75L259.95,220.85L257.7,231.2L257.7,231.35L256.65,235.8L256.05,239.1L255.6,242M267.6,188.6L267.6,185.4M267.6,193.7L267.6,188.6M274.15,238.95C274.85,238.517 275.65,238.233 276.55,238.1L276.95,237.9L278.65,237.8L279.3,237.8C278.667,235.867 278.15,233.933 277.75,232C277.317,230.6 276.983,229.233 276.75,227.9L275.75,223.45L275.4,221.6C274.633,218.267 273.983,214.883 273.45,211.45L272.15,202.9L272,201.5M271.9,200.9C271.533,198.733 271.25,196.567 271.05,194.4M267.6,193.7L267.6,203.95L267.65,206.85L267.65,243.25L267.3,243.9L267.35,244L267.6,244.25L267.9,244L267.9,244.05L267.95,244.1L267.7,244.25L267.65,244.3L267.7,244.3M279.3,237.8L279.8,241.45L280.3,244.65C283.533,240.417 287.4,237.533 291.9,236M283.75,232.3C282.017,233.567 280.533,235.4 279.3,237.8M268.85,243.25C270.483,241.183 272.25,239.75 274.15,238.95M264.9,241.1L266.95,243.85L267.05,243.9L267.25,243.95L267.3,244L267.3,243.9M267.95,244.1C268.05,244 268.133,243.95 268.2,243.95C268.367,243.65 268.583,243.417 268.85,243.25M267.65,244.3L267.6,244.3L267.25,244L267.25,243.95L267.3,243.95M267.35,244L267.3,244M267.6,244.25L267.65,244.3L267.65,244.25L267.9,244.05M267.6,244.25L267.6,244.3M280.3,244.65C275.633,243.917 271.483,246.317 267.85,251.85M310.3,214.5C306.3,216.767 303.7,220.317 302.5,225.15" style="fill:none;fill-rule:nonzero;stroke:#4d4f00;stroke-opacity:0.6;stroke-width:0.6px;"/>
                <path d="M316.35,146.7L320.3,147.65L320.35,147.85" style="fill:none;fill-rule:nonzero;stroke:#000;stroke-width:0.6px;"/>
            </g>
        </g>
    </g>
</svg>
