<?xml version="1.0" encoding="UTF-8"?>
<svg version="1.1" viewBox="0 0 134.3 213.3" xmlns="http://www.w3.org/2000/svg" xmlns:cc="http://creativecommons.org/ns#" xmlns:dc="http://purl.org/dc/elements/1.1/" xmlns:rdf="http://www.w3.org/1999/02/22-rdf-syntax-ns#" xmlns:xlink="http://www.w3.org/1999/xlink">
<metadata>
<rdf:RDF>
<cc:Work rdf:about="">
<dc:format>image/svg+xml</dc:format>
<dc:type rdf:resource="http://purl.org/dc/dcmitype/StillImage"/>
</cc:Work>
</rdf:RDF>
</metadata>
<g transform="translate(-217.05 -98.925)">
<use transform="translate(217.05,98.95)" width="134.25" height="213.25" xlink:href="#a"/>
</g>
<defs>
<g id="a" transform="translate(-217.05,-98.95)">
<path d="m246.5 309.3q-13.4-68.3-3.15-187.1l-5.25-7.5 13.75 7.35q30.35-1.2 51.15-12.35 3.4-2.75-1.45-10.75l9 6.1q6.7 90.3 24.9 149.7l-32.3-65.6 18.3 63.8q-2.65 0.65-5.6 1.8l-27.45-43.75q-8.35 24.55-12.25 70.45-7.7 4.85-14.95 12.5l0.15-89.75-14.85 105.1" fill="#f8ebcf" fill-rule="evenodd"/>
<path d="m335.45 254.75q-5.3-3.85-14-1.8l-18.3-63.8 32.3 65.6m-19.6 0-7.4 48.5q-16.15-3.9-32.3-21.8 3.9-45.9 12.25-70.45l27.45 43.75m-54.65 39.2q-7.3 7.7-14.15 18.25l-0.55-2.9 14.85-105.1-0.15 89.75" fill="#dfcda4" fill-rule="evenodd"/>
<path d="m246.5 309.3q-13.4-68.3-3.15-187.1l-5.25-7.5 13.75 7.35q30.35-1.2 51.15-12.35 3.4-2.75-1.45-10.75l9 6.1q6.7 90.3 24.9 149.7-5.3-3.85-14-1.8-2.65 0.65-5.6 1.8l-7.4 48.5q-16.15-3.9-32.3-21.8-7.7 4.85-14.95 12.5-7.3 7.7-14.15 18.25z" fill="none" stroke="#000" stroke-linecap="round" stroke-linejoin="round" stroke-opacity=".4" stroke-width=".05"/>
<path d="m324.3 153.85 3.1-3.55 9.55-0.4q20.8-1.4 11.5 5.7l-3.65 3.85-20.5-5.6" fill="#d9dfe8" fill-rule="evenodd"/>
<path d="m344.8 159.45-3.7 3.9-9.55 0.25-10.35-6.15 3.1-3.6 20.5 5.6" fill="#c2ccda" fill-rule="evenodd"/>
<path d="m341.1 163.35-9.55 0.25-10.35-6.15" fill="none" stroke="#4d627b" stroke-linecap="round" stroke-linejoin="round" stroke-width=".05"/>
<path d="m336.95 149.9q20.8-1.4 11.5 5.7l-3.65 3.85-3.7 3.9z" fill="none" stroke="#4d627b" stroke-linecap="round" stroke-linejoin="round" stroke-width=".05"/>
<path d="m315.05 143.7 8.8-5.95q12.4-7.6 12.5-2.7l-24.45 18.45 3.15-9.8m-6-21.65q7.8-8.25 2.95 19.75l-1.6 12.8-7.05 7.25-1.6-5.25 7.3-34.55m-19.05 19.15 0.1-5.1q0.35-10.45 7.45 11.9l3.25 10.95-0.25 2.25-10.55-20" fill="#d9dfe8" fill-rule="evenodd"/>
<path d="m336.35 135.05q0 1.1-0.6 2.85l-5 13.55-8.8 5.95-10.85-1.4 0.8-2.5 24.45-18.45m-29.15-10.8 1.85-2.2-7.3 34.55-3.05-10.05 1.6-12.9 6.9-9.4m-17.4 22.05 0.2-5.1 10.55 20-0.65 6.25-6.7-10.25-3.4-10.9" fill="#c2ccda" fill-rule="evenodd"/>
<path d="m315.05 143.7 8.8-5.95q12.4-7.6 12.5-2.7 0 1.1-0.6 2.85m-13.8 19.5-10.85-1.4m-0.7-1.4-7.05 7.25m-4.65-15.3 1.6-12.9 6.9-9.4m-6.4 34.7-0.25 2.25-0.65 6.25m-6.7-10.25-3.4-10.9" fill="none" stroke="#4d627b" stroke-linecap="round" stroke-linejoin="round" stroke-width=".05"/>
<path d="m335.75 137.9-5 13.55-8.8 5.95m-14.75-33.15 1.85-2.2q7.8-8.25 2.95 19.75l-1.6 12.8m-20.6-8.3 0.2-5.1 0.1-5.1q0.35-10.45 7.45 11.9l3.25 10.95" fill="none" stroke="#4d627b" stroke-linecap="round" stroke-linejoin="round" stroke-width=".05"/>
<path d="m225.75 173.15 8.3-4.35 8.8 3.2-24 11.7h-0.05q-5.6-1.9 6.95-10.55" fill="#d9dfe8" fill-rule="evenodd"/>
<path d="m218.85 183.7 24-11.7-5.7 10.35-8.2 4.45-10.1-3.1" fill="#c2ccda" fill-rule="evenodd"/>
<path d="m228.95 186.8 8.2-4.45 5.7-10.35" fill="none" stroke="#4d627b" stroke-linecap="round" stroke-linejoin="round" stroke-width=".05"/>
<path d="m225.75 173.15q-12.55 8.65-6.95 10.55h0.05l10.1 3.1z" fill="none" stroke="#4d627b" stroke-linecap="round" stroke-linejoin="round" stroke-width=".05"/>
<path d="m238.15 136.35q-1.2-6.4 10.5 4.75l7.8 10.4 3 12.55-18.95-18.95-2.35-8.75m10.75 30.85-28.1-5.1q-5.9-4.1 9.95-5.95l10.45 0.85 9.55 8.75-1.85 1.45m9.45-22 0.25-6.95q0.2-8.75 5.25 8.7l2.65 11.05-0.45 8.9-7.7-21.7" fill="#d9dfe8" fill-rule="evenodd"/>
<path d="m240.5 145.1 18.95 18.95 0.75 3-9.6-2.85-7.75-10.35-2.35-8.75m8.4 22.1-6.75 5.1-10.4-0.85-10.95-9.35 28.1 5.1m9.45-22 7.7 21.7-0.1 3.25-5-6.9-2.75-11.05 0.15-7" fill="#c2ccda" fill-rule="evenodd"/>
<path d="m256.45 151.5-7.8-10.4q-11.7-11.15-10.5-4.75m4 35.95 6.75-5.1 1.85-1.45m-9.55-8.75-10.45-0.85q-15.85 1.85-9.95 5.95m29.8 2.1 9.6 2.85m6.3-9.05-2.65-11.05m-2.9 16.3 5 6.9" fill="none" stroke="#4d627b" stroke-linecap="round" stroke-linejoin="round" stroke-width=".05"/>
<path d="m238.15 136.35 4.7 17.5 7.75 10.35m-29.8-2.1 10.95 9.35 10.4 0.85m21.7-25.35q-5.05-17.45-5.25-8.7l-0.25 6.95-0.15 7 2.75 11.05" fill="none" stroke="#4d627b" stroke-linecap="round" stroke-linejoin="round" stroke-width=".05"/>
</g>
</defs>
</svg>
