<?xml version="1.0" encoding="UTF-8" standalone="no"?>
<!DOCTYPE svg PUBLIC "-//W3C//DTD SVG 1.1//EN" "http://www.w3.org/Graphics/SVG/1.1/DTD/svg11.dtd">
<svg width="100%" height="100%" viewBox="0 0 105 105" version="1.1" xmlns="http://www.w3.org/2000/svg" xmlns:xlink="http://www.w3.org/1999/xlink" xml:space="preserve" xmlns:serif="http://www.serif.com/" style="fill-rule:evenodd;clip-rule:evenodd;stroke-linecap:round;stroke-linejoin:round;">
    <g transform="matrix(1,0,0,1,-222.771,-147.85)">
        <g>
            <g id="shape0">
                <path d="M240,161.5C242.433,159.233 245.217,157.2 248.35,155.4C251.717,153.367 255.167,151.8 258.7,150.7C261.567,149.733 264.5,149.067 267.5,148.7L276.15,148.35C279.583,148.45 283.1,148.967 286.7,149.9C296.267,152.2 304.317,156.567 310.85,163L310.75,163.05C294.883,154.517 282.633,150.25 274,150.25C271.467,150.217 269.233,150.55 267.3,151.25L266.55,160.45C264.017,160.517 261.567,160.883 259.2,161.55L258.75,153.25C251.75,154.817 245.5,157.567 240,161.5" style="fill:#fc988d;"/>
                <path d="M259.2,161.55C261.567,160.883 264.017,160.517 266.55,160.45L265.75,171.55L259.6,171.8L259.2,161.55M265.05,185.35L265.1,196.3L279.45,200.95L279.45,201.6L272.75,203.3C265.05,201.433 257.967,199.417 251.5,197.25L246.9,190.35L257.75,193.85L264.85,183.05L265.05,185.35" style="fill:#fffeff;"/>
                <path d="M310.95,163.15C315.917,168.083 319.85,174.083 322.75,181.15C325.35,187.783 326.667,194.45 326.7,201.15C326.7,204.817 326.3,208.417 325.5,211.95L307.4,209.7C309.1,202.233 308.533,194.617 305.7,186.85C303.967,182.117 301.633,177.967 298.7,174.4C293.967,168.8 287.883,164.783 280.45,162.35C277.183,161.317 273.983,160.7 270.85,160.5C269.35,160.333 267.917,160.317 266.55,160.45L267.3,151.25C269.233,150.55 271.467,150.217 274,150.25C282.633,150.25 294.883,154.517 310.75,163.05L310.95,163.15M225.1,185.9C225.667,183.767 226.383,181.717 227.25,179.75C230.25,172.417 234.5,166.333 240,161.5C245.5,157.567 251.75,154.817 258.75,153.25L259.2,161.55C256.3,162.217 253.517,163.317 250.85,164.85C242.75,168.983 236.85,175.283 233.15,183.75C232.383,185.45 231.75,187.233 231.25,189.1C229.083,188.033 227.033,186.967 225.1,185.9" style="fill:#fa3f29;"/>
                <path d="M259.6,171.8L265.75,171.55L264.9,181.9L260.1,181.65L259.6,171.8" style="fill:#fb6757;"/>
                <path d="M291.35,207.05C292.55,201.85 292.267,196.583 290.5,191.25C289.467,188.217 288.15,185.517 286.55,183.15C283.383,178.717 279.183,175.517 273.95,173.55C271.85,172.617 269.783,172.033 267.75,171.8L265.75,171.55L266.55,160.45C267.917,160.317 269.35,160.333 270.85,160.5C273.983,160.7 277.183,161.317 280.45,162.35C287.883,164.783 293.967,168.8 298.7,174.4C301.633,177.967 303.967,182.117 305.7,186.85C308.533,194.617 309.1,202.233 307.4,209.7L291.35,207.05M259.2,161.55L259.6,171.8C257.267,172.167 254.983,172.917 252.75,174.05C246.583,176.817 242.083,181.367 239.25,187.7C238.517,189.1 237.967,190.517 237.6,191.95L231.25,189.1C231.75,187.233 232.383,185.45 233.15,183.75C236.85,175.283 242.75,168.983 250.85,164.85C253.517,163.317 256.3,162.217 259.2,161.55" style="fill:#fdeaf7;"/>
                <path d="M265.75,171.55L267.75,171.8C269.783,172.033 271.85,172.617 273.95,173.55C279.183,175.517 283.383,178.717 286.55,183.15C288.15,185.517 289.467,188.217 290.5,191.25C292.267,196.583 292.55,201.85 291.35,207.05L279,204.7L279.45,201.6L280.55,201.3L279.45,200.95C279.483,198.85 279.2,196.733 278.6,194.6C277.933,192.333 277,190.4 275.8,188.8C274,186.333 271.7,184.483 268.9,183.25C268.067,182.75 267.233,182.417 266.4,182.25L265,181.9L264.9,181.9L265.75,171.55M259.6,171.8L260.1,181.65C258.467,181.75 256.867,182.117 255.3,182.75C251.567,184.183 248.717,186.633 246.75,190.1L246.65,190.25L245.95,191.55C245.35,192.65 244.917,193.767 244.65,194.9L237.6,191.95C237.967,190.517 238.517,189.1 239.25,187.7C242.083,181.367 246.583,176.817 252.75,174.05C254.983,172.917 257.267,172.167 259.6,171.8" style="fill:#e21c05;"/>
                <path d="M325.5,211.95C323.7,219.017 320.433,225.683 315.7,231.95C305.167,245.283 291.433,251.85 274.5,251.65C268.967,251.45 263.85,250.617 259.15,249.15C256.717,248.283 254.383,247.3 252.15,246.2L254.25,237.2C259.417,239.433 265.067,240.467 271.2,240.3C283.667,239.667 293.583,234.217 300.95,223.95C304.05,219.417 306.2,214.667 307.4,209.7L325.5,211.95M232.55,229.15C228.483,223.383 225.733,216.85 224.3,209.55C223.5,205.55 223.167,201.7 223.3,198C223.3,193.933 223.9,189.9 225.1,185.9C227.033,186.967 229.083,188.033 231.25,189.1C229.45,195.2 229.267,201.6 230.7,208.3C231.9,214.267 234.25,219.533 237.75,224.1L232.55,229.15M279,204.7L291.35,207.05C290.583,210.25 289.25,213.35 287.35,216.35C282.583,223.617 275.983,227.733 267.55,228.7C263.55,229.1 259.8,228.733 256.3,227.6L258.65,218.15C260.583,218.483 262.667,218.5 264.9,218.2L265.25,218.1L265.3,218.1C270.167,217.067 274,214.35 276.8,209.95C277.767,208.183 278.5,206.433 279,204.7M244.65,194.9C243.817,197.833 243.817,200.95 244.65,204.25C245.383,207.65 246.917,210.533 249.25,212.9L243.3,218.8C240.333,215.267 238.3,211.133 237.2,206.4C236.1,201.367 236.233,196.55 237.6,191.95L244.65,194.9" style="fill:#871003;"/>
                <path d="M291.35,207.05L307.4,209.7C306.2,214.667 304.05,219.417 300.95,223.95C293.583,234.217 283.667,239.667 271.2,240.3C265.067,240.467 259.417,239.433 254.25,237.2L256.3,227.6C259.8,228.733 263.55,229.1 267.55,228.7C275.983,227.733 282.583,223.617 287.35,216.35C289.25,213.35 290.583,210.25 291.35,207.05M231.25,189.1L237.6,191.95C236.233,196.55 236.1,201.367 237.2,206.4C238.3,211.133 240.333,215.267 243.3,218.8L237.75,224.1C234.25,219.533 231.9,214.267 230.7,208.3C229.267,201.6 229.45,195.2 231.25,189.1M251.5,197.25C257.967,199.417 265.05,201.433 272.75,203.3L265.15,205.2L265.25,217.95L258,207.1L247.65,209.55L253.55,200.4L251.5,197.25" style="fill:#a295b4;"/>
                <path d="M260.1,181.65L264.9,181.9L264.85,183.05L257.75,193.85L246.9,190.35L251.5,197.25L244.65,194.9C244.917,193.767 245.35,192.65 245.95,191.55L246.65,190.25L246.9,190.35L246.75,190.1C248.717,186.633 251.567,184.183 255.3,182.75C256.867,182.117 258.467,181.75 260.1,181.65M265,181.9L266.4,182.25C267.233,182.417 268.067,182.75 268.9,183.25C271.7,184.483 274,186.333 275.8,188.8C277,190.4 277.933,192.333 278.6,194.6C279.2,196.733 279.483,198.85 279.45,200.95L265.1,196.3L265.05,185.35L265,181.9M279.45,201.6L279,204.7L272.75,203.3L279.45,201.6" style="fill:#3f467e;"/>
                <path d="M272.75,203.3L279,204.7C278.5,206.433 277.767,208.183 276.8,209.95C274,214.35 270.167,217.067 265.3,218.1L265.25,217.95L265.25,218.1L264.9,218.2C262.667,218.5 260.583,218.483 258.65,218.15C256.217,217.583 253.917,216.55 251.75,215.05L249.25,212.9C246.917,210.533 245.383,207.65 244.65,204.25C243.817,200.95 243.817,197.833 244.65,194.9L251.5,197.25L253.55,200.4L247.65,209.55L258,207.1L265.25,217.95L265.15,205.2L272.75,203.3" style="fill:#272c4e;"/>
                <path d="M252.15,246.2C247.717,243.9 243.567,240.933 239.7,237.3C236.933,234.633 234.55,231.917 232.55,229.15L237.75,224.1C239.417,226.3 241.433,228.433 243.8,230.5C247.067,233.3 250.55,235.533 254.25,237.2L252.15,246.2M258.65,218.15L256.3,227.6C253.167,226.567 250.233,224.967 247.5,222.8L243.3,218.8L249.25,212.9L251.75,215.05C253.917,216.55 256.217,217.583 258.65,218.15" style="fill:#ca1804;"/>
                <path d="M256.3,227.6L254.25,237.2C250.55,235.533 247.067,233.3 243.8,230.5C241.433,228.433 239.417,226.3 237.75,224.1L243.3,218.8L247.5,222.8C250.233,224.967 253.167,226.567 256.3,227.6" style="fill:#ebe9ef;"/>
                <path d="M240,161.5C242.433,159.233 245.217,157.2 248.35,155.4C251.717,153.367 255.167,151.8 258.7,150.7C261.567,149.733 264.5,149.067 267.5,148.7L276.15,148.35C279.583,148.45 283.1,148.967 286.7,149.9C296.267,152.2 304.317,156.567 310.85,163M310.95,163.15C315.917,168.083 319.85,174.083 322.75,181.15C325.35,187.783 326.667,194.45 326.7,201.15C326.7,204.817 326.3,208.417 325.5,211.95C323.7,219.017 320.433,225.683 315.7,231.95C305.167,245.283 291.433,251.85 274.5,251.65C268.967,251.45 263.85,250.617 259.15,249.15C256.717,248.283 254.383,247.3 252.15,246.2C247.717,243.9 243.567,240.933 239.7,237.3C236.933,234.633 234.55,231.917 232.55,229.15C228.483,223.383 225.733,216.85 224.3,209.55C223.5,205.55 223.167,201.7 223.3,198C223.3,193.933 223.9,189.9 225.1,185.9C225.667,183.767 226.383,181.717 227.25,179.75C230.25,172.417 234.5,166.333 240,161.5" style="fill:none;fill-rule:nonzero;stroke:#000;stroke-opacity:0.8;stroke-width:1px;"/>
                <path d="M310.85,163L310.95,163.15" style="fill:none;fill-rule:nonzero;stroke:#000;stroke-width:0.6px;"/>
            </g>
        </g>
    </g>
</svg>
