<?xml version="1.0" encoding="UTF-8" standalone="no"?>
<!DOCTYPE svg PUBLIC "-//W3C//DTD SVG 1.1//EN" "http://www.w3.org/Graphics/SVG/1.1/DTD/svg11.dtd">
<svg width="100%" height="100%" viewBox="0 0 83 85" version="1.1" xmlns="http://www.w3.org/2000/svg" xmlns:xlink="http://www.w3.org/1999/xlink" xml:space="preserve" xmlns:serif="http://www.serif.com/" style="fill-rule:evenodd;clip-rule:evenodd;stroke-linecap:round;stroke-linejoin:round;">
    <g transform="matrix(1,0,0,1,-233.9,-158.25)">
        <g>
            <g id="shape0">
                <path d="M309.75,189.75L300.65,167.4L302.55,169.2L292.15,158.55L301.3,181.25L309.75,189.75L289,206L290.25,208.3L311.75,191.75L315.7,195.7L310.45,177.4L302.85,169.5L311.75,191.75L309.75,189.75M258.3,169.7L256.65,167.4L235.05,193.75L245.9,197.15L248.1,194.5L262.95,176.35L258.3,169.7L240,191.95L248.1,194.5L240,191.95L258.3,169.7M249.7,212.5L249.5,210.3L234.8,206.1L234.75,208.5L249.7,212.5" style="fill:#887e5e;"/>
                <path d="M309.75,189.75L301.3,181.25L283,194.85L289,206L269,215.65L249.5,210.3L249.7,212.5L269.55,217.75L290.25,208.3L289,206L309.75,189.75M315.7,195.7L311.75,191.75L290.25,208.3L294.65,216.5L315.7,195.7M250.85,224.8L249.7,212.5L234.75,208.5L234.8,206.1L249.5,210.3L248.35,197.9L245.9,197.15L235.05,193.75L234.55,208.7L234.55,209.15L234.2,219.8L250.85,224.8" style="fill:#dcdeb1;"/>
                <path d="M302.55,169.2L300.65,167.4L309.75,189.75L311.75,191.75L302.85,169.5L302.55,169.2M290,161.15L258.95,168.9L258.3,169.7L262.95,176.35L293.15,169.2L290,161.15" style="fill:#58523d;"/>
                <path d="M301.3,181.25L292.15,158.55L256.65,167.4L258.3,169.7L258.95,168.9L290,161.15L293.15,169.2L298,181.05L282,192.95L266.7,199.7L249.5,194.95L248.1,194.5L245.9,197.15L250.8,198.55L265.55,202.6L283,194.85L301.3,181.25" style="fill:#9d9371;"/>
                <path d="M289,206L283,194.85L265.55,202.6L269,215.65L289,206M290.25,208.3L269.55,217.75L272.45,228.7L294.65,216.5L290.25,208.3" style="fill:#e9eacc;"/>
                <path d="M269,215.65L265.55,202.6L250.8,198.55L248.35,197.9L249.5,210.3L269,215.65M269.55,217.75L249.7,212.5L250.85,224.8L272.45,228.7L269.55,217.75" style="fill:#fcfbf3;"/>
                <path d="M292.15,158.55L302.55,169.2L302.85,169.5L310.45,177.4L315.7,195.7L294.65,216.5L272.45,228.7L250.85,224.8L234.2,219.8L234.55,209.15M290,161.15L293.15,169.2L298,181.05L282,192.95L266.7,199.7L249.5,194.95M235.05,193.75L234.55,208.7" style="fill:none;fill-rule:nonzero;stroke:#000;stroke-opacity:0.5;stroke-width:0.6px;"/>
                <path d="M256.65,167.4L292.15,158.55M293.15,169.2L262.95,176.35L248.1,194.5L249.5,194.95M258.3,169.7L258.95,168.9M256.65,167.4L235.05,193.75" style="fill:none;fill-rule:nonzero;stroke:#000;stroke-opacity:0.5;stroke-width:0.6px;"/>
                <path d="M301.3,181.25L292.15,158.55M283,194.85L301.3,181.25M258.95,168.9L290,161.15M265.55,202.6L283,194.85M250.8,198.55L265.55,202.6M248.1,194.5L240,191.95L258.3,169.7M250.8,198.55L245.9,197.15L235.05,193.75" style="fill:none;fill-rule:nonzero;stroke:#000;stroke-opacity:0.5;stroke-width:0.2px;"/>
                <path d="M245.45,221.7C244.15,222.167 242.95,223.05 241.85,224.35C240.15,226.417 239.2,228.917 239,231.85C238.8,234.75 239.417,237.217 240.85,239.25C242.25,241.317 244.05,242.35 246.25,242.35C247.85,242.35 249.317,241.817 250.65,240.75L252.1,239.25C253.8,237.217 254.75,234.75 254.95,231.85C255.15,228.917 254.55,226.417 253.15,224.35C251.75,222.317 249.933,221.3 247.7,221.3L245.45,221.7M247.25,232.1L250.55,228.55L252.1,233.45L250.55,228.55L247.25,232.1M241.85,230.6L244.65,227.55L245.45,231.7L244.65,227.55L241.85,230.6" style="fill:#dcdeb1;"/>
                <path d="M250.65,240.75C251.95,240.25 253.15,239.333 254.25,238C255.95,235.967 256.9,233.5 257.1,230.6C257.3,227.7 256.7,225.217 255.3,223.15C253.9,221.083 252.083,220.05 249.85,220.05C248.25,220.05 246.783,220.6 245.45,221.7L247.7,221.3C249.933,221.3 251.75,222.317 253.15,224.35C254.55,226.417 255.15,228.917 254.95,231.85C254.75,234.75 253.8,237.217 252.1,239.25L250.65,240.75" style="fill:#887e5e;"/>
                <path d="M250.65,240.75C251.95,240.25 253.15,239.333 254.25,238C255.95,235.967 256.9,233.5 257.1,230.6C257.3,227.7 256.7,225.217 255.3,223.15C253.9,221.083 252.083,220.05 249.85,220.05C248.25,220.05 246.783,220.6 245.45,221.7" style="fill:none;fill-rule:nonzero;stroke:#000;stroke-opacity:0.5;stroke-width:0.6px;"/>
                <path d="M245.45,221.7C244.15,222.167 242.95,223.05 241.85,224.35C240.15,226.417 239.2,228.917 239,231.85C238.8,234.75 239.417,237.217 240.85,239.25C242.25,241.317 244.05,242.35 246.25,242.35C247.85,242.35 249.317,241.817 250.65,240.75" style="fill:none;fill-rule:nonzero;stroke:#000;stroke-opacity:0.5;stroke-width:0.6px;"/>
                <path d="M245.45,231.7L244.65,227.55L241.85,230.6M252.1,233.45L250.55,228.55L247.25,232.1" style="fill:none;fill-rule:nonzero;stroke:#887e5e;stroke-width:0.6px;"/>
            </g>
        </g>
    </g>
</svg>
