<?xml version="1.0" encoding="UTF-8" standalone="no"?>
<!DOCTYPE svg PUBLIC "-//W3C//DTD SVG 1.1//EN" "http://www.w3.org/Graphics/SVG/1.1/DTD/svg11.dtd">
<svg width="100%" height="100%" viewBox="0 0 133 137" version="1.1" xmlns="http://www.w3.org/2000/svg" xmlns:xlink="http://www.w3.org/1999/xlink" xml:space="preserve" xmlns:serif="http://www.serif.com/" style="fill-rule:evenodd;clip-rule:evenodd;stroke-linecap:round;stroke-linejoin:round;">
    <g transform="matrix(1,0,0,1,-227.7,-145.512)">
        <g>
            <g id="shape0">
                <path d="M251.7,225.85C255.167,216.45 260.033,206.5 266.3,196L266.45,195.8C297.917,140.4 324.533,131.233 346.3,168.3L347.1,169.35C365.533,196.017 344.767,210.85 284.8,213.85L283.15,213.9C271.483,213.967 262.333,218.9 255.7,228.7" style="fill:none;fill-rule:nonzero;stroke:#586e7f;stroke-width:1px;"/>
                <path d="M252.85,215.25L261.3,213.9L262.95,213.6L263.35,213.6C265.65,213.6 267.633,214.667 269.3,216.8C270.933,218.933 271.75,221.5 271.75,224.5C271.75,225.8 271.6,227.033 271.3,228.2L276.45,227.45L277.05,227.35L277.55,227.3C279.25,227.3 280.683,228.083 281.85,229.65C283.083,231.25 283.7,233.15 283.7,235.35C283.7,237.583 283.083,239.483 281.85,241.05C281.083,242.117 280.183,242.833 279.15,243.2L278.05,243.4L277.55,243.45L276.95,243.4L277,243.65C278.2,247.017 278.8,250.75 278.8,254.85C278.8,261.883 277.033,267.883 273.5,272.85C270.967,276.383 268.067,278.667 264.8,279.7L263.95,279.9L262.15,280.2L253.8,281.6C255.3,281.3 256.717,280.783 258.05,280.05C260.217,278.817 262.2,276.933 264,274.4C265.467,272.333 266.633,270.083 267.5,267.65C268.667,264.25 269.25,260.5 269.25,256.4C269.25,252.233 268.633,248.417 267.4,244.95L268,245L268.5,244.95L269.7,244.75L277,243.65L269.7,244.75C270.7,244.383 271.583,243.667 272.35,242.6C273.183,241.5 273.733,240.25 274,238.85L274.15,236.95C274.15,235.85 274.017,234.833 273.75,233.9L273.75,233.85C273.417,232.917 272.95,232.033 272.35,231.2L272.3,231.15C271.833,230.517 271.333,230.033 270.8,229.7C269.933,229.133 269,228.85 268,228.85L268,228.8L267.4,228.9L266.85,229L265.8,229.4C265,229.8 264.283,230.4 263.65,231.2L263.05,232.15C262.417,233.25 262.033,234.5 261.9,235.9L259.65,233.85L259.75,233.75L261,231.85C261.833,230.117 262.25,228.183 262.25,226.05C262.25,224.75 262.1,223.55 261.8,222.45C261.4,220.95 260.717,219.583 259.75,218.35C259.15,217.517 258.467,216.85 257.7,216.35C256.533,215.55 255.233,215.15 253.8,215.15L252.85,215.25M235.55,221.8L243.65,220.45L245.1,220.3L246.55,220.45C245.75,222.117 245.35,223.983 245.35,226.05L245.45,227.65C245.617,229.117 246,230.483 246.6,231.75C245.6,232.083 244.633,232.55 243.7,233.15L242.8,233.75L242.95,231.85C242.95,229.083 242.217,226.717 240.75,224.75L239.7,223.5C238.467,222.4 237.083,221.85 235.55,221.85L235.55,221.8M271.3,228.2L268,228.8L271.3,228.2" style="fill:#45696c;"/>
                <path d="M253.8,281.6L253.5,281.65L251.2,281.85C246.2,281.85 241.933,279.367 238.4,274.4C234.867,269.433 233.1,263.433 233.1,256.4C233.1,250.9 234.183,246.033 236.35,241.8L235.55,241.85C233.55,241.85 231.817,240.867 230.35,238.9C228.917,236.933 228.2,234.583 228.2,231.85C228.2,229.083 228.917,226.717 230.35,224.75C231.45,223.317 232.7,222.417 234.1,222.05L235.15,221.85L235.55,221.85C237.083,221.85 238.467,222.4 239.7,223.5L240.75,224.75C242.217,226.717 242.95,229.083 242.95,231.85L242.8,233.75L243.7,233.15C244.633,232.55 245.6,232.083 246.6,231.75C246,230.483 245.617,229.117 245.45,227.65L245.35,226.05C245.35,223.983 245.75,222.117 246.55,220.45L247.85,218.35C249.183,216.617 250.75,215.6 252.55,215.3L252.85,215.25L253.8,215.15C255.233,215.15 256.533,215.55 257.7,216.35C258.467,216.85 259.15,217.517 259.75,218.35C260.717,219.583 261.4,220.95 261.8,222.45C262.1,223.55 262.25,224.75 262.25,226.05C262.25,228.183 261.833,230.117 261,231.85L259.75,233.75L259.65,233.85L261.9,235.9C262.033,234.5 262.417,233.25 263.05,232.15L263.65,231.2C264.283,230.4 265,229.8 265.8,229.4L266.85,229L267.4,228.9L268,228.85C269,228.85 269.933,229.133 270.8,229.7C271.333,230.033 271.833,230.517 272.3,231.15L272.35,231.2C272.95,232.033 273.417,232.917 273.75,233.85L273.75,233.9C274.017,234.833 274.15,235.85 274.15,236.95L274,238.85C273.733,240.25 273.183,241.5 272.35,242.6C271.583,243.667 270.7,244.383 269.7,244.75L268.5,244.95L268,245L267.4,244.95C268.633,248.417 269.25,252.233 269.25,256.4C269.25,260.5 268.667,264.25 267.5,267.65C266.633,270.083 265.467,272.333 264,274.4C262.2,276.933 260.217,278.817 258.05,280.05C256.717,280.783 255.3,281.3 253.8,281.6M255.5,225.35L254.9,224.7C254.333,224.167 253.667,223.9 252.9,223.9C252.267,223.9 251.683,224.1 251.15,224.5L250.3,225.35C249.667,226.217 249.317,227.217 249.25,228.35L249.25,228.85C249.25,230.183 249.6,231.333 250.3,232.3C251.033,233.267 251.9,233.75 252.9,233.75C253.933,233.75 254.8,233.267 255.5,232.3C256.233,231.333 256.6,230.183 256.6,228.85C256.6,227.483 256.233,226.317 255.5,225.35M243.85,245.8L243.7,246.1C241.767,249.133 240.8,252.8 240.8,257.1C240.8,261.5 241.817,265.267 243.85,268.4C244.883,270 246.033,271.183 247.3,271.95C248.5,272.683 249.8,273.05 251.2,273.05C253.333,273.05 255.233,272.183 256.9,270.45L258.5,268.4C260.533,265.267 261.55,261.5 261.55,257.1C261.55,252.7 260.533,248.933 258.5,245.8C257.467,244.167 256.3,242.967 255,242.2C253.833,241.5 252.567,241.15 251.2,241.15C248.333,241.15 245.883,242.7 243.85,245.8M237.8,228.9L237.35,228.85C236.35,228.85 235.517,229.25 234.85,230.05C234.15,230.817 233.8,231.767 233.8,232.9C233.8,234.033 234.15,234.983 234.85,235.75C235.517,236.55 236.35,236.95 237.35,236.95C238.05,236.95 238.667,236.733 239.2,236.3L239.8,235.75C240.5,234.983 240.85,234.033 240.85,232.9C240.85,231.767 240.5,230.817 239.8,230.05C239.233,229.383 238.567,229 237.8,228.9M268.7,235.4C268.067,234.767 267.317,234.45 266.45,234.45C265.583,234.45 264.833,234.767 264.2,235.4C263.6,236.067 263.3,236.867 263.3,237.8C263.3,238.733 263.6,239.517 264.2,240.15C264.833,240.817 265.583,241.15 266.45,241.15C267.317,241.15 268.067,240.817 268.7,240.15C269.3,239.517 269.6,238.733 269.6,237.8C269.6,236.867 269.3,236.067 268.7,235.4" style="fill:#b6e2d4;"/>
                <path d="M255.5,225.35C256.233,226.317 256.6,227.483 256.6,228.85C256.6,230.183 256.233,231.333 255.5,232.3C254.8,233.267 253.933,233.75 252.9,233.75C251.9,233.75 251.033,233.267 250.3,232.3C249.6,231.333 249.25,230.183 249.25,228.85L249.25,228.35C249.317,227.217 249.667,226.217 250.3,225.35L251.15,224.5C251.683,224.1 252.267,223.9 252.9,223.9C253.667,223.9 254.333,224.167 254.9,224.7L255.5,225.35M237.8,228.9C238.567,229 239.233,229.383 239.8,230.05C240.5,230.817 240.85,231.767 240.85,232.9C240.85,234.033 240.5,234.983 239.8,235.75L239.2,236.3C238.667,236.733 238.05,236.95 237.35,236.95C236.35,236.95 235.517,236.55 234.85,235.75C234.15,234.983 233.8,234.033 233.8,232.9C233.8,231.767 234.15,230.817 234.85,230.05C235.517,229.25 236.35,228.85 237.35,228.85L237.8,228.9M243.85,245.8C245.883,242.7 248.333,241.15 251.2,241.15C252.567,241.15 253.833,241.5 255,242.2C256.3,242.967 257.467,244.167 258.5,245.8C260.533,248.933 261.55,252.7 261.55,257.1C261.55,261.5 260.533,265.267 258.5,268.4L256.9,270.45C255.233,272.183 253.333,273.05 251.2,273.05C249.8,273.05 248.5,272.683 247.3,271.95C246.033,271.183 244.883,270 243.85,268.4C241.817,265.267 240.8,261.5 240.8,257.1C240.8,252.8 241.767,249.133 243.7,246.1L243.85,245.8M268.7,235.4C269.3,236.067 269.6,236.867 269.6,237.8C269.6,238.733 269.3,239.517 268.7,240.15C268.067,240.817 267.317,241.15 266.45,241.15C265.583,241.15 264.833,240.817 264.2,240.15C263.6,239.517 263.3,238.733 263.3,237.8C263.3,236.867 263.6,236.067 264.2,235.4C264.833,234.767 265.583,234.45 266.45,234.45C267.317,234.45 268.067,234.767 268.7,235.4" style="fill:#d5eee6;"/>
                <path d="M235.15,221.85L235.55,221.8L235.55,221.85L235.15,221.85M267.4,228.9L268,228.8L268,228.85L267.4,228.9" style="fill:#c16a00;"/>
                <path d="M273.75,233.85L273.75,233.9L273.75,233.85" style="fill:#ffb60b;"/>
                <path d="M252.85,215.25L261.3,213.9L262.95,213.6L263.35,213.6C265.65,213.6 267.633,214.667 269.3,216.8C270.933,218.933 271.75,221.5 271.75,224.5C271.75,225.8 271.6,227.033 271.3,228.2L276.45,227.45L277.05,227.35L277.55,227.3C279.25,227.3 280.683,228.083 281.85,229.65C283.083,231.25 283.7,233.15 283.7,235.35C283.7,237.583 283.083,239.483 281.85,241.05C281.083,242.117 280.183,242.833 279.15,243.2L278.05,243.4L277,243.65C278.2,247.017 278.8,250.75 278.8,254.85C278.8,261.883 277.033,267.883 273.5,272.85C270.967,276.383 268.067,278.667 264.8,279.7L263.95,279.9L262.15,280.2L253.8,281.6L253.5,281.65L251.2,281.85C246.2,281.85 241.933,279.367 238.4,274.4C234.867,269.433 233.1,263.433 233.1,256.4C233.1,250.9 234.183,246.033 236.35,241.8L235.55,241.85C233.55,241.85 231.817,240.867 230.35,238.9C228.917,236.933 228.2,234.583 228.2,231.85C228.2,229.083 228.917,226.717 230.35,224.75C231.45,223.317 232.7,222.417 234.1,222.05L235.15,221.85L235.55,221.8L243.65,220.45L245.1,220.3L246.55,220.45L247.85,218.35C249.183,216.617 250.75,215.6 252.55,215.3L252.85,215.25L253.8,215.15C255.233,215.15 256.533,215.55 257.7,216.35C258.467,216.85 259.15,217.517 259.75,218.35C260.717,219.583 261.4,220.95 261.8,222.45C262.1,223.55 262.25,224.75 262.25,226.05C262.25,228.183 261.833,230.117 261,231.85L259.75,233.75L259.65,233.85L261.9,235.9C262.033,234.5 262.417,233.25 263.05,232.15L263.65,231.2C264.283,230.4 265,229.8 265.8,229.4L266.85,229L267.4,228.9L268,228.8L271.3,228.2M278.05,243.4L277.55,243.45L276.95,243.4L277,243.65L269.7,244.75L268.5,244.95L268,245L267.4,244.95C268.633,248.417 269.25,252.233 269.25,256.4C269.25,260.5 268.667,264.25 267.5,267.65C266.633,270.083 265.467,272.333 264,274.4C262.2,276.933 260.217,278.817 258.05,280.05C256.717,280.783 255.3,281.3 253.8,281.6M235.15,221.85L235.55,221.85C237.083,221.85 238.467,222.4 239.7,223.5L240.75,224.75C242.217,226.717 242.95,229.083 242.95,231.85L242.8,233.75L243.7,233.15C244.633,232.55 245.6,232.083 246.6,231.75C246,230.483 245.617,229.117 245.45,227.65L245.35,226.05C245.35,223.983 245.75,222.117 246.55,220.45M268,228.85C269,228.85 269.933,229.133 270.8,229.7C271.333,230.033 271.833,230.517 272.3,231.15L272.35,231.2C272.95,232.033 273.417,232.917 273.75,233.85L273.75,233.9C274.017,234.833 274.15,235.85 274.15,236.95L274,238.85C273.733,240.25 273.183,241.5 272.35,242.6C271.583,243.667 270.7,244.383 269.7,244.75M267.4,228.9L268,228.85" style="fill:none;fill-rule:nonzero;stroke:#d5eee6;stroke-width:1px;"/>
                <path d="M327.65,155.95L329,148.35L339.25,151.8L349.45,148.35L351.45,158.9L359.6,166.05L351.45,173.15L350.3,179.15L342.65,173.95L331.95,174.55L332.85,163.9L327.65,155.95" style="fill:#d5eee6;"/>
                <path d="M327.65,155.95L332.85,163.9L331.95,174.55L342.65,173.95L350.3,179.15L349.45,183.75L339.2,180.15L329,183.75L327,173.15L318.85,166.05L327,158.9L327.65,155.95" style="fill:#b6e2d4;"/>
                <path d="M350.3,179.15L351.45,173.15L359.6,166.05L351.45,158.9L349.45,148.35L339.25,151.8L329,148.35L327.65,155.95L327,158.9L318.85,166.05L327,173.15L329,183.75L339.2,180.15L349.45,183.75L350.3,179.15Z" style="fill:none;fill-rule:nonzero;stroke:#8bc5da;stroke-opacity:0.69;stroke-width:0.75px;"/>
            </g>
        </g>
    </g>
</svg>
