<?xml version="1.0" encoding="UTF-8" standalone="no"?>
<!DOCTYPE svg PUBLIC "-//W3C//DTD SVG 1.1//EN" "http://www.w3.org/Graphics/SVG/1.1/DTD/svg11.dtd">
<svg width="100%" height="100%" viewBox="0 0 156 212" version="1.1" xmlns="http://www.w3.org/2000/svg" xmlns:xlink="http://www.w3.org/1999/xlink" xml:space="preserve" xmlns:serif="http://www.serif.com/" style="fill-rule:evenodd;clip-rule:evenodd;stroke-linecap:round;stroke-linejoin:round;">
    <g transform="matrix(1,0,0,1,-0.06825,0.217076)">
        <g transform="matrix(6.51,0,0,6.51,79.002,254.005)">
            <g id="sprite0">
                <g id="shape0">
                    <path d="M-9.75,-16.05L-9.45,-16.05L-8.65,-15.9L-8.85,-16.5L-7.95,-15.5L-8.3,-15.6L-9.75,-16.05M-7.45,-13.75L-7.7,-13.6L-10,-13.5L-10.05,-13.55L-10.2,-13.6C-10.8,-14.433 -11.017,-15.2 -10.85,-15.9C-9.917,-14.867 -8.783,-14.15 -7.45,-13.75M-8.65,-15.9L-8.3,-15.6L-8.65,-15.9" style="fill:#9bcccc;"/>
                    <path d="M-8.85,-16.5L-8.8,-16.5L-7.95,-15.95C-7.45,-15.283 -7.15,-14.65 -7.05,-14.05L-7.45,-13.75C-8.783,-14.15 -9.917,-14.867 -10.85,-15.9L-10.85,-16L-10.8,-15.95L-9.75,-16.05L-8.3,-15.6L-7.95,-15.5L-8.85,-16.5" style="fill:#dbf0ef;"/>
                    <path d="M-9.75,-16.05L-9.45,-16.05L-8.65,-15.9L-8.85,-16.5L-8.8,-16.5L-7.95,-15.95M-10.05,-13.55L-10.2,-13.6C-10.8,-14.433 -11.017,-15.2 -10.85,-15.9L-10.85,-16L-10.8,-15.95L-9.75,-16.05M-8.3,-15.6L-8.65,-15.9" style="fill:none;fill-rule:nonzero;stroke:#000;stroke-opacity:0.3;stroke-width:0.05px;"/>
                    <path d="M8.15,-19.25L8.75,-18.85L8.9,-18.8L9.75,-17.75L9.85,-17.15C10.217,-15.617 9.45,-14.35 7.55,-13.35C5.583,-12.317 3.35,-11.45 0.85,-10.75C-1.683,-9.983 -3.75,-9.633 -5.35,-9.7L-8.45,-9.9L-8.8,-10.2C-9.033,-10.267 -9.25,-10.367 -9.45,-10.5L-10.3,-11.45L-10.5,-12.2C-10.6,-12.933 -10.433,-13.567 -10,-14.1C-9.6,-14.7 -9.05,-15.05 -8.35,-15.15C-7.65,-15.25 -7.017,-15.083 -6.45,-14.65C-4.683,-13.483 -2.417,-13.25 0.35,-13.95C3.65,-14.917 5.417,-15.717 5.65,-16.35C5.55,-17.083 5.717,-17.717 6.15,-18.25L6.7,-18.8L6.9,-18.9L6.95,-18.95L7.15,-19L7.2,-19L7.8,-19.2L8.1,-19.25L8.15,-19.25" style="fill:#fff;"/>
                    <path d="M8.15,-19.25L9.5,-18.9L9.8,-18.7L10.45,-17.9L10.5,-17.85L10.75,-17C11.517,-13.767 8.55,-11.117 1.85,-9.05L1.75,-9.05C-2.317,-7.983 -5.717,-8.267 -8.45,-9.9L-5.35,-9.7C-3.75,-9.633 -1.683,-9.983 0.85,-10.75C3.35,-11.45 5.583,-12.317 7.55,-13.35C9.45,-14.35 10.217,-15.617 9.85,-17.15L9.75,-17.75L8.9,-18.8L8.75,-18.85L8.15,-19.25" style="fill:#e8f5f5;"/>
                    <path d="M-8.45,-9.9C-5.717,-8.267 -2.317,-7.983 1.75,-9.05L1.85,-9.05C8.55,-11.117 11.517,-13.767 10.75,-17L10.5,-17.85L10.45,-17.9L9.8,-18.7L9.65,-18.8M7.2,-19L7.15,-19L6.95,-18.95L6.9,-18.9L6.7,-18.8L6.15,-18.25C5.717,-17.717 5.55,-17.083 5.65,-16.35C5.417,-15.717 3.65,-14.917 0.35,-13.95C-2.417,-13.25 -4.683,-13.483 -6.45,-14.65C-7.017,-15.083 -7.65,-15.25 -8.35,-15.15C-9.05,-15.05 -9.6,-14.7 -10,-14.1C-10.433,-13.567 -10.6,-12.933 -10.5,-12.2L-10.3,-11.45L-9.45,-10.5C-9.25,-10.367 -9.033,-10.267 -8.8,-10.2L-8.45,-9.9L7.2,-19Z" style="fill:none;fill-rule:nonzero;stroke:#000;stroke-opacity:0.3;stroke-width:0.05px;"/>
                    <path d="M6,-20.3L6.3,-19.7L7,-20.2L7.3,-20.35L6,-19.05L6,-19.4L6.3,-19.7L6,-19.4L5.95,-20.3L5.95,-20.35L6,-20.3L5.95,-20.3L6,-20.3" style="fill:#dbf0ef;"/>
                    <path d="M7.3,-20.35L8.4,-20.8L8.5,-20.75C8.467,-19.383 7.983,-18.2 7.05,-17.2L6.4,-17.3C5.933,-17.867 5.65,-18.583 5.55,-19.45C5.617,-19.783 5.733,-20.067 5.9,-20.3L5.95,-20.3L6,-19.4L6,-19.05L7.3,-20.35" style="fill:#fefefe;"/>
                    <path d="M8.5,-20.75C9.267,-20.217 9.717,-19.433 9.85,-18.4L9.75,-18.2C8.617,-17.5 7.817,-17.167 7.35,-17.2L7.05,-17.2C7.983,-18.2 8.467,-19.383 8.5,-20.75" style="fill:#e8f5f5;"/>
                    <path d="M6,-20.3L6.3,-19.7L7,-20.2L7.3,-20.35L8.4,-20.8L8.5,-20.75C9.267,-20.217 9.717,-19.433 9.85,-18.4L9.8,-18.3M5.55,-19.45C5.617,-19.783 5.733,-20.067 5.9,-20.3L6,-20.3L5.95,-20.35L6,-20.35L6,-20.3M6.3,-19.7L6,-19.4" style="fill:none;fill-rule:nonzero;stroke:#000;stroke-opacity:0.3;stroke-width:0.05px;"/>
                    <path d="M-10,-8.55L-10.95,-8.9L-10.3,-9.65L-10.1,-10.5L-9.95,-11.85L-7.65,-10.6L-5.05,-10.1L-4.7,-8.85C-4.833,-8.683 -5.05,-8.6 -5.35,-8.6L-5.4,-8.6L-5.4,-8.45C-5.433,-7.883 -5.65,-7.25 -6.05,-6.55L-6.5,-7.15L-7,-8.75L-7.25,-8.2L-8.3,-7.2L-8.4,-7.15L-8.75,-7.8L-8.15,-8.65L-8.5,-8.55L-10,-8.55M-9.85,-10L-10.3,-9.65L-9.85,-10" style="fill:#fff;"/>
                    <path d="M-10,-8.55L-8.5,-8.55L-8.15,-8.65L-8.75,-7.8L-8.9,-8.45L-10,-8.55M-8.3,-7.2L-7.25,-8.2L-7,-8.75L-6.5,-7.15L-6.8,-7.75L-6.8,-7.8L-7.2,-7.5L-7.2,-7.65L-7.25,-8.2L-7.2,-7.65C-7.5,-7.417 -7.867,-7.267 -8.3,-7.2M-6.05,-6.55C-5.65,-7.25 -5.433,-7.883 -5.4,-8.45L-5.4,-8.55L-5.35,-8.6C-5.05,-8.6 -4.833,-8.683 -4.7,-8.85L-5.05,-10.1L-4.9,-10.1C-4.333,-9.667 -3.9,-9.067 -3.6,-8.3C-3.7,-8.1 -4.083,-7.933 -4.75,-7.8L-4.7,-7.5L-4.75,-7.45C-5.083,-6.917 -5.517,-6.617 -6.05,-6.55M-8.5,-8.55L-8.9,-8.45L-8.5,-8.55" style="fill:#e8f5f5;"/>
                    <path d="M-5.4,-8.55L-5.4,-8.6L-5.35,-8.6L-5.4,-8.55" style="fill:#9bcccc;"/>
                    <path d="M-10.3,-9.65L-10.95,-8.9L-10,-8.55L-8.9,-8.45L-8.5,-8.55M-8.75,-7.8L-8.4,-7.15L-8.3,-7.2C-7.867,-7.267 -7.5,-7.417 -7.2,-7.65L-7.2,-7.5L-6.8,-7.8M-6.5,-7.15L-6.05,-6.55C-5.517,-6.617 -5.083,-6.917 -4.75,-7.45L-4.7,-7.5L-4.75,-7.8C-4.083,-7.933 -3.7,-8.1 -3.6,-8.3M-10.1,-10.5L-10.3,-9.65L-9.85,-10M-8.9,-8.45L-8.75,-7.8M-6.8,-7.75L-6.5,-7.15M-7.2,-7.65L-7.25,-8.2" style="fill:none;fill-rule:nonzero;stroke:#000;stroke-opacity:0.3;stroke-width:0.05px;"/>
                    <path d="M-12.05,-12L-12.1,-12.1L-11.6,-13L-10.45,-14L-10.75,-14L-11.5,-14.1L-11.45,-14.15L-10.75,-14.35C-10.05,-14.183 -9.483,-13.9 -9.05,-13.5L-9.05,-12.95C-9.917,-12.25 -10.917,-11.933 -12.05,-12" style="fill:#fefefe;"/>
                    <path d="M-9.05,-12.95L-9.05,-12.7C-9.017,-12.333 -9.35,-11.7 -10.05,-10.8L-10.25,-10.75C-11.05,-10.917 -11.65,-11.333 -12.05,-12C-10.917,-11.933 -9.917,-12.25 -9.05,-12.95" style="fill:#e8f5f5;"/>
                    <path d="M-11.6,-13L-11.5,-13.2L-11,-13.7L-11.5,-14.1L-10.75,-14L-10.45,-14L-11.6,-13M-10.75,-14L-11,-13.7L-10.75,-14" style="fill:#dbf0ef;"/>
                    <path d="M-10.25,-10.75C-11.05,-10.917 -11.65,-11.333 -12.05,-12L-12.1,-12.1L-11.6,-13L-11.5,-13.2L-11,-13.7L-11.5,-14.1L-11.45,-14.15L-10.75,-14.35M-11,-13.7L-10.75,-14" style="fill:none;fill-rule:nonzero;stroke:#000;stroke-opacity:0.3;stroke-width:0.05px;"/>
                    <path d="M6.45,-13.95L6.2,-13.75C5.867,-13.417 5.05,-13.167 3.75,-13L3.55,-13.05C3.083,-13.783 2.983,-14.617 3.25,-15.55C4.083,-14.617 5.15,-14.083 6.45,-13.95" style="fill:#e8f5f5;"/>
                    <path d="M3.25,-15.55L3.25,-15.6L3.3,-15.6L4.5,-16.05L5.9,-15.95L6.25,-15.95L5.5,-16.8L5.5,-16.85L5.55,-16.85L6.35,-16.5C6.75,-15.833 6.933,-15.15 6.9,-14.45L6.45,-13.95C5.15,-14.083 4.083,-14.617 3.25,-15.55" style="fill:#fefefe;"/>
                    <path d="M4.5,-16.05L4.7,-16.1L5.6,-16.15L5.5,-16.8L6.25,-15.95L5.9,-15.95L5.6,-16.15L5.9,-15.95L4.5,-16.05" style="fill:#dbf0ef;"/>
                    <path d="M3.55,-13.05C3.083,-13.783 2.983,-14.617 3.25,-15.55L3.25,-15.6L3.3,-15.6L4.5,-16.05L4.7,-16.1L5.6,-16.15L5.5,-16.8L5.5,-16.85L5.55,-16.85L6.35,-16.5M5.6,-16.15L5.9,-15.95" style="fill:none;fill-rule:nonzero;stroke:#000;stroke-opacity:0.3;stroke-width:0.05px;"/>
                    <path d="M9.1,-15L9.2,-15.2L10.65,-16.2L10.8,-16.15C11.333,-15.683 11.617,-15.1 11.65,-14.4C10.883,-14.967 10.033,-15.167 9.1,-15" style="fill:#e8f5f5;"/>
                    <path d="M11.65,-14.4L11.7,-14.35L11.65,-14.35L10.95,-13.85L9.7,-13.6L10.45,-13.1L10.5,-13.1L10.45,-13.05L9.8,-13.15C9.367,-13.583 9.067,-14.05 8.9,-14.55L9.1,-15C10.033,-15.167 10.883,-14.967 11.65,-14.4" style="fill:#fefefe;"/>
                    <path d="M10.95,-13.85L10.8,-13.75L10.2,-13.55L10.45,-13.1L9.7,-13.6L10.95,-13.85" style="fill:#dbf0ef;"/>
                    <path d="M10.8,-16.15C11.333,-15.683 11.617,-15.1 11.65,-14.4L11.7,-14.35L11.65,-14.35L10.95,-13.85L10.8,-13.75L10.2,-13.55L10.45,-13.1L10.5,-13.1L10.45,-13.05L9.8,-13.15" style="fill:none;fill-rule:nonzero;stroke:#000;stroke-opacity:0.3;stroke-width:0.05px;"/>
                    <path d="M2.25,-24.4C2.283,-23.967 1.933,-23.55 1.2,-23.15C0.433,-22.75 -0.467,-22.483 -1.5,-22.35L-4.5,-22.25C-5.3,-22.517 -5.7,-22.85 -5.7,-23.25L-4.55,-24.5C-3.917,-24.9 -3.1,-25.133 -2.1,-25.2L-0.8,-25.3L0.95,-25.3L2.25,-24.45L2.25,-24.4" style="fill:#39b039;"/>
                    <path d="M-5.7,-23.25C-5.7,-22.85 -5.3,-22.517 -4.5,-22.25L-1.5,-22.35C-0.467,-22.483 0.433,-22.75 1.2,-23.15C1.933,-23.55 2.283,-23.967 2.25,-24.4C3.683,-22.233 5.333,-20.3 7.2,-18.6L8.1,-17.55L7.9,-16.5L6.95,-15.15L6.2,-14.6L5.25,-14C4.717,-13.7 4.3,-13.5 4,-13.4L1.85,-12.6L0.3,-12.25L0.3,-12.3L1.35,-12.9C1.483,-13.133 1.433,-13.4 1.2,-13.7C3.267,-14.367 4.833,-15.283 5.9,-16.45L6.7,-17.7L4.85,-16.4C3.583,-15.6 2.483,-15.05 1.55,-14.75L2.25,-15.5C2.55,-16.233 2.067,-16.567 0.8,-16.5L-0.4,-16.15C-2.367,-15.617 -4.133,-15.65 -5.7,-16.25L-7.2,-17.15L-7.05,-17.5C-6.283,-19.467 -5.833,-21.383 -5.7,-23.25" style="fill:#184a18;"/>
                    <path d="M-7.2,-17.15L-5.7,-16.25C-4.133,-15.65 -2.367,-15.617 -0.4,-16.15L0.8,-16.5C2.067,-16.567 2.55,-16.233 2.25,-15.5L1.55,-14.75C2.483,-15.05 3.583,-15.6 4.85,-16.4L6.7,-17.7L5.9,-16.45C4.833,-15.283 3.267,-14.367 1.2,-13.7C1.433,-13.4 1.483,-13.133 1.35,-12.9L0.3,-12.3L0.3,-12.25L-1.4,-11.95L-5.6,-12.2C-7.467,-12.6 -8.367,-13.333 -8.3,-14.4L-7.85,-15.55L-7.2,-17.15M-5.4,-13.65C-4.433,-13.083 -2.6,-13.2 0.1,-14L-2.7,-13.95C-4.7,-14.05 -6.2,-14.433 -7.2,-15.1C-7,-14.6 -6.4,-14.117 -5.4,-13.65" style="fill:#2b852b;"/>
                    <path d="M-5.4,-13.65C-6.4,-14.117 -7,-14.6 -7.2,-15.1C-6.2,-14.433 -4.7,-14.05 -2.7,-13.95L0.1,-14C-2.6,-13.2 -4.433,-13.083 -5.4,-13.65" style="fill:#216621;"/>
                    <path d="M-5.7,-23.25C-5.7,-22.85 -5.3,-22.517 -4.5,-22.25L-1.5,-22.35C-0.467,-22.483 0.433,-22.75 1.2,-23.15C1.933,-23.55 2.283,-23.967 2.25,-24.4L2.25,-24.45L0.95,-25.3L-0.8,-25.3L-2.1,-25.2C-3.1,-25.133 -3.917,-24.9 -4.55,-24.5L-5.7,-23.25C-5.833,-21.383 -6.283,-19.467 -7.05,-17.5M0.3,-12.3L0.3,-12.25L-1.4,-11.95L-5.6,-12.2C-7.467,-12.6 -8.367,-13.333 -8.3,-14.4L-7.85,-15.55L-7.2,-17.15M1.85,-12.6L4,-13.4C4.3,-13.5 4.717,-13.7 5.25,-14L6.2,-14.6L6.95,-15.15L7.9,-16.5L8.1,-17.55L7.2,-18.6C5.333,-20.3 3.683,-22.233 2.25,-24.4" style="fill:none;fill-rule:nonzero;stroke:#000;stroke-opacity:0.35;stroke-width:0.05px;"/>
                    <path d="M-6.55,-12.95L-6.35,-12.9L-6.25,-12.75L-6.2,-12.6L-6.05,-12.55L-6,-12.35L-6.05,-12.25L-6.2,-12.2C-6.433,-12.2 -6.6,-12.35 -6.7,-12.65L-6.65,-12.85L-6.55,-12.95M-6.1,-15.15L-5.95,-15.1L-5.9,-14.9L-6,-14.5L-6.1,-14.35L-6.25,-14.25L-6.35,-14.35L-6.4,-14.55L-6.35,-14.95L-6.25,-15.1L-6.1,-15.15M-5.95,-17.05L-5.85,-17.15L-5.7,-17.25L-5.55,-17.15L-5.5,-17L-5.55,-16.6L-5.65,-16.45L-5.75,-16.35C-5.817,-16.35 -5.883,-16.383 -5.95,-16.45L-6,-16.6L-5.95,-17.05"/>
                    <path d="M-5.95,-17.05L-6,-16.6L-5.95,-16.45C-5.883,-16.383 -5.817,-16.35 -5.75,-16.35L-5.65,-16.45L-5.55,-16.6L-5.5,-17L-5.55,-17.15L-5.7,-17.25L-5.85,-17.15L-5.95,-17.05M-6.1,-15.15L-6.25,-15.1L-6.35,-14.95L-6.4,-14.55L-6.35,-14.35L-6.25,-14.25L-6.1,-14.35L-6,-14.5L-5.9,-14.9L-5.95,-15.1L-6.1,-15.15M-6.55,-12.95L-6.65,-12.85L-6.7,-12.65C-6.6,-12.35 -6.433,-12.2 -6.2,-12.2L-6.05,-12.25L-6,-12.35L-6.05,-12.55L-6.2,-12.6L-6.25,-12.75L-6.35,-12.9L-6.55,-12.95" style="fill:none;fill-rule:nonzero;stroke:#000;stroke-opacity:0.3;stroke-width:0.05px;"/>
                    <path d="M4.3,-22.85L3.85,-22.35L2.35,-21.2L2.35,-21.65L2.1,-22.75L1,-23.6L-1.8,-22.75L-3.75,-22.5L-5.6,-22.55C-6.233,-22.683 -6.683,-22.867 -6.95,-23.1L-6.65,-25.5L1.5,-26.25L4.3,-22.85L4.65,-22.55L4.95,-21.8C4.983,-21.167 4.683,-20.55 4.05,-19.95L2.5,-18.8L1.25,-18.3L1.25,-18.9L0.75,-19.45C2.05,-20.05 3.033,-20.783 3.7,-21.65L4.3,-22.85" style="fill:#184a18;"/>
                    <path d="M-6.95,-23.1C-6.683,-22.867 -6.233,-22.683 -5.6,-22.55L-3.75,-22.5L-1.8,-22.75L1,-23.6L2.1,-22.75L2.35,-21.65L2.35,-21.2L3.85,-22.35L4.3,-22.85L3.7,-21.65C3.033,-20.783 2.05,-20.05 0.75,-19.45L1.25,-18.9L1.25,-18.3L-0.4,-17.75L-3.35,-17.3L-5.95,-17.5C-7.35,-17.833 -8.083,-18.383 -8.15,-19.15L-8.1,-19.55L-6.95,-23.1M-3.35,-19.25C-4.95,-19.317 -6.183,-19.617 -7.05,-20.15C-6.883,-19.65 -6.333,-19.15 -5.4,-18.65L-3.3,-18.5L-1.45,-18.95L-0.4,-19.4L-1.5,-19.25L-3.35,-19.25" style="fill:#2b852b;"/>
                    <path d="M-3.35,-19.25L-1.5,-19.25L-0.4,-19.4L-1.45,-18.95L-3.3,-18.5L-5.4,-18.65C-6.333,-19.15 -6.883,-19.65 -7.05,-20.15C-6.183,-19.617 -4.95,-19.317 -3.35,-19.25" style="fill:#216621;"/>
                    <path d="M4.3,-22.85L1.5,-26.25M-6.65,-25.5L-6.95,-23.1L-8.1,-19.55L-8.15,-19.15C-8.083,-18.383 -7.35,-17.833 -5.95,-17.5L-3.35,-17.3M-0.4,-17.75L1.25,-18.3M4.3,-22.85L4.65,-22.55L4.95,-21.8C4.983,-21.167 4.683,-20.55 4.05,-19.95" style="fill:none;fill-rule:nonzero;stroke:#000;stroke-opacity:0.3;stroke-width:0.05px;"/>
                    <path d="M-3.35,-17.3L-0.4,-17.75M4.05,-19.95L2.5,-18.8L1.25,-18.3" style="fill:none;fill-rule:nonzero;stroke:#010101;stroke-opacity:0;stroke-width:0.05px;"/>
                    <path d="M-5.8,-17.5L-5.8,-17.35L-5.95,-17.2L-6.05,-17.2L-6.6,-17.7L-6.55,-17.85L-6.4,-18L-6.25,-17.95L-6.15,-17.8L-6,-17.6L-5.8,-17.5M-6,-20.2L-5.85,-20.15L-5.8,-19.95L-5.85,-19.55L-5.95,-19.4L-6.1,-19.3L-6.25,-19.4L-6.25,-20L-6.15,-20.1L-6,-20.2M-5.6,-22.3L-5.45,-22.2L-5.35,-22.05L-5.45,-21.6L-5.5,-21.5L-5.65,-21.4L-5.8,-21.5L-5.9,-21.65L-5.8,-22.1L-5.75,-22.2L-5.6,-22.3"/>
                    <path d="M-5.6,-22.3L-5.75,-22.2L-5.8,-22.1L-5.9,-21.65L-5.8,-21.5L-5.65,-21.4L-5.5,-21.5L-5.45,-21.6L-5.35,-22.05L-5.45,-22.2L-5.6,-22.3M-6,-20.2L-6.15,-20.1L-6.25,-20L-6.25,-19.4L-6.1,-19.3L-5.95,-19.4L-5.85,-19.55L-5.8,-19.95L-5.85,-20.15L-6,-20.2M-5.8,-17.5L-6,-17.6L-6.15,-17.8L-6.25,-17.95L-6.4,-18L-6.55,-17.85L-6.6,-17.7L-6.05,-17.2L-5.95,-17.2L-5.8,-17.35L-5.8,-17.5" style="fill:none;fill-rule:nonzero;stroke:#000;stroke-opacity:0.3;stroke-width:0.05px;"/>
                    <path d="M-1.2,-31.05C-0.367,-29.483 0.567,-28.2 1.6,-27.2L1.85,-26.95L2.05,-26.5L1.7,-25.75L0.85,-24.7L-0.75,-23.95C-0.517,-24.35 -0.567,-24.667 -0.9,-24.9C0,-25.233 0.633,-25.667 1,-26.2L1.3,-26.8L0.2,-26.1L0.35,-26.6C0.283,-27.367 -0.1,-28.033 -0.8,-28.6C-1.4,-29.133 -2.033,-29.367 -2.7,-29.3L-3.8,-29.15C-4.133,-29.117 -4.433,-29.183 -4.7,-29.35L-3.55,-29.45C-2.95,-29.583 -2.4,-29.783 -1.9,-30.05C-1.433,-30.417 -1.2,-30.733 -1.2,-31L-1.2,-31.05" style="fill:#184a18;"/>
                    <path d="M-4.7,-29.35C-4.433,-29.183 -4.133,-29.117 -3.8,-29.15L-2.7,-29.3C-2.033,-29.367 -1.4,-29.133 -0.8,-28.6C-0.1,-28.033 0.283,-27.367 0.35,-26.6L0.2,-26.1L1.3,-26.8L1,-26.2C0.633,-25.667 0,-25.233 -0.9,-24.9C-0.567,-24.667 -0.517,-24.35 -0.75,-23.95L-2.3,-23.55C-3.567,-23.25 -4.667,-23.25 -5.6,-23.55C-6.5,-23.717 -6.967,-24.083 -7,-24.65L-7.05,-25.05L-6.8,-25.35L-6.35,-27.1C-6.083,-28 -5.95,-28.967 -5.95,-30L-5.45,-29.6L-4.7,-29.35" style="fill:#393;"/>
                    <path d="M-1.2,-31.05L-1.2,-31C-1.2,-30.733 -1.433,-30.417 -1.9,-30.05C-2.4,-29.783 -2.95,-29.583 -3.55,-29.45L-4.7,-29.35L-5.45,-29.6L-5.95,-30L-5.95,-30.1C-6.017,-30.333 -5.817,-30.617 -5.35,-30.95C-5.017,-31.217 -4.533,-31.417 -3.9,-31.55L-2.05,-31.6L-1.25,-31.15L-1.2,-31.05" style="fill:#39b039;"/>
                    <path d="M-0.75,-23.95L0.85,-24.7L1.7,-25.75L2.05,-26.5L1.85,-26.95L1.6,-27.2C0.567,-28.2 -0.367,-29.483 -1.2,-31.05L-1.25,-31.15L-2.05,-31.6L-3.9,-31.55C-4.533,-31.417 -5.017,-31.217 -5.35,-30.95C-5.817,-30.617 -6.017,-30.333 -5.95,-30.1L-5.95,-30L-5.45,-29.6L-4.7,-29.35M-0.75,-23.95L-2.3,-23.55C-3.567,-23.25 -4.667,-23.25 -5.6,-23.55C-6.5,-23.717 -6.967,-24.083 -7,-24.65L-7.05,-25.05L-6.8,-25.35L-6.35,-27.1C-6.083,-28 -5.95,-28.967 -5.95,-30" style="fill:none;fill-rule:nonzero;stroke:#000;stroke-opacity:0.3;stroke-width:0.05px;"/>
                    <path d="M-3.45,-25.1L-1.65,-25.35C-3.35,-24.55 -4.517,-24.317 -5.15,-24.65C-5.817,-24.917 -6.2,-25.233 -6.3,-25.6C-5.667,-25.167 -4.717,-25 -3.45,-25.1" style="fill:#257325;"/>
                    <path d="M-5.8,-23.7L-5.85,-23.85L-5.65,-24L-5.55,-23.95L-5.4,-23.8L-5.25,-23.55L-5.15,-23.55L-5.15,-23.35L-5.2,-23.2L-5.4,-23.2C-5.667,-23.233 -5.8,-23.4 -5.8,-23.7M-5.3,-26.1L-5.25,-25.95L-5.3,-25.5L-5.4,-25.35L-5.55,-25.3L-5.65,-25.4L-5.75,-25.55L-5.7,-26L-5.6,-26.1L-5.5,-26.15L-5.3,-26.1M-5.4,-28.15L-5.35,-28.3L-5.05,-28.3L-5,-28.1L-5.05,-27.65L-5.1,-27.5L-5.3,-27.45L-5.4,-27.55L-5.45,-27.75L-5.4,-28.15"/>
                    <path d="M-5.4,-28.15L-5.45,-27.75L-5.4,-27.55L-5.3,-27.45L-5.1,-27.5L-5.05,-27.65L-5,-28.1L-5.05,-28.3L-5.35,-28.3L-5.4,-28.15M-5.3,-26.1L-5.5,-26.15L-5.6,-26.1L-5.7,-26L-5.75,-25.55L-5.65,-25.4L-5.55,-25.3L-5.4,-25.35L-5.3,-25.5L-5.25,-25.95L-5.3,-26.1M-5.8,-23.7C-5.8,-23.4 -5.667,-23.233 -5.4,-23.2L-5.2,-23.2L-5.15,-23.35L-5.15,-23.55L-5.25,-23.55L-5.4,-23.8L-5.55,-23.95L-5.65,-24L-5.85,-23.85L-5.8,-23.7" style="fill:none;fill-rule:nonzero;stroke:#000;stroke-opacity:0.3;stroke-width:0.05px;"/>
                    <path d="M3.8,-17.5C3.2,-17.367 2.617,-17.45 2.05,-17.75C1.583,-18.05 1.267,-18.517 1.1,-19.15C0.933,-19.75 0.983,-20.317 1.25,-20.85C1.583,-21.383 2.05,-21.717 2.65,-21.85L4.35,-21.65C4.883,-21.35 5.233,-20.9 5.4,-20.3C5.567,-19.667 5.483,-19.083 5.15,-18.55C4.917,-18.05 4.467,-17.7 3.8,-17.5" style="fill:#09c;"/>
                    <path d="M3.8,-17.5C3.2,-17.367 2.617,-17.45 2.05,-17.75C1.583,-18.05 1.267,-18.517 1.1,-19.15C0.933,-19.75 0.983,-20.317 1.25,-20.85C1.583,-21.383 2.05,-21.717 2.65,-21.85L4.35,-21.65C4.883,-21.35 5.233,-20.9 5.4,-20.3C5.567,-19.667 5.483,-19.083 5.15,-18.55C4.917,-18.05 4.467,-17.7 3.8,-17.5Z" style="fill:none;fill-rule:nonzero;stroke:#000;stroke-opacity:0.3;stroke-width:0.05px;"/>
                    <path d="M2.45,-21.1L3,-21.05L3.35,-20.6L3.25,-20.05L2.8,-19.65L2.15,-19.75L1.9,-20.2L1.9,-20.75L2.45,-21.1" style="fill:#fff;"/>
                    <path d="M4.8,-19.05C4.767,-18.65 4.567,-18.35 4.2,-18.15C3.9,-17.917 3.517,-17.833 3.05,-17.9C2.617,-17.933 2.267,-18.1 2,-18.4C1.767,-18.667 1.667,-19 1.7,-19.4L1.8,-19.7C1.767,-19.4 1.867,-19.15 2.1,-18.95C2.367,-18.65 2.717,-18.483 3.15,-18.45L4.3,-18.7L4.85,-19.35L4.8,-19.05" style="fill:#fff;"/>
                    <path d="M-7.65,-14.8C-8.083,-15.133 -8.4,-15.617 -8.6,-16.25C-8.733,-16.883 -8.683,-17.467 -8.45,-18C-8.117,-18.5 -7.65,-18.817 -7.05,-18.95L-5.35,-18.8C-4.783,-18.5 -4.417,-18.033 -4.25,-17.4C-4.05,-16.767 -4.15,-16.183 -4.55,-15.65C-4.783,-15.083 -5.233,-14.717 -5.9,-14.55L-7.65,-14.8" style="fill:#c00;"/>
                    <path d="M-7.65,-14.8C-8.083,-15.133 -8.4,-15.617 -8.6,-16.25C-8.733,-16.883 -8.683,-17.467 -8.45,-18C-8.117,-18.5 -7.65,-18.817 -7.05,-18.95L-5.35,-18.8C-4.783,-18.5 -4.417,-18.033 -4.25,-17.4C-4.05,-16.767 -4.15,-16.183 -4.55,-15.65C-4.783,-15.083 -5.233,-14.717 -5.9,-14.55L-7.65,-14.8Z" style="fill:none;fill-rule:nonzero;stroke:#000;stroke-opacity:0.3;stroke-width:0.05px;"/>
                    <path d="M-7.3,-18.2L-6.7,-18.15L-6.35,-17.65C-6.283,-17.417 -6.3,-17.233 -6.4,-17.1L-6.9,-16.75L-7.5,-16.8L-7.8,-17.3L-7.8,-17.85L-7.3,-18.2" style="fill:#fff;"/>
                    <path d="M-5.35,-15.75L-4.8,-16.4L-4.8,-16.15C-4.867,-15.717 -5.067,-15.4 -5.4,-15.2C-5.7,-14.967 -6.083,-14.883 -6.55,-14.95C-6.983,-14.983 -7.35,-15.15 -7.65,-15.45C-7.917,-15.717 -8.017,-16.067 -7.95,-16.5L-7.85,-16.75L-7.6,-16C-7.3,-15.7 -6.933,-15.533 -6.5,-15.5L-5.35,-15.75" style="fill:#fff;"/>
                    <path d="M-2.5,-21.1C-3.133,-20.933 -3.733,-21.033 -4.3,-21.4C-4.767,-21.733 -5.083,-22.233 -5.25,-22.9C-5.417,-23.5 -5.367,-24.083 -5.1,-24.65C-4.8,-25.183 -4.333,-25.533 -3.7,-25.7L-1.85,-25.5C-1.283,-25.133 -0.917,-24.65 -0.75,-24.05C-0.583,-23.383 -0.683,-22.783 -1.05,-22.25C-1.283,-21.683 -1.767,-21.3 -2.5,-21.1" style="fill:#f60;"/>
                    <path d="M-2.5,-21.1C-3.133,-20.933 -3.733,-21.033 -4.3,-21.4C-4.767,-21.733 -5.083,-22.233 -5.25,-22.9C-5.417,-23.5 -5.367,-24.083 -5.1,-24.65C-4.8,-25.183 -4.333,-25.533 -3.7,-25.7L-1.85,-25.5C-1.283,-25.133 -0.917,-24.65 -0.75,-24.05C-0.583,-23.383 -0.683,-22.783 -1.05,-22.25C-1.283,-21.683 -1.767,-21.3 -2.5,-21.1Z" style="fill:none;fill-rule:nonzero;stroke:#000;stroke-opacity:0.3;stroke-width:0.05px;"/>
                    <path d="M-3.65,-23.55L-4.4,-23.6L-4.65,-24.1L-4.65,-24.65L-4.05,-25.05L-3.5,-24.95L-3.1,-24.5C-3.033,-24.233 -3.083,-24.033 -3.25,-23.9L-3.65,-23.55" style="fill:#fff;"/>
                    <path d="M-1.35,-22.8C-1.417,-22.367 -1.617,-22.05 -1.95,-21.85C-2.283,-21.617 -2.7,-21.533 -3.2,-21.6C-3.633,-21.633 -4,-21.8 -4.3,-22.1C-4.567,-22.367 -4.667,-22.717 -4.6,-23.15L-4.55,-23.45C-4.583,-23.15 -4.483,-22.9 -4.25,-22.7C-3.95,-22.367 -3.583,-22.183 -3.15,-22.15C-2.65,-22.083 -2.233,-22.183 -1.9,-22.45L-1.35,-23.1L-1.35,-22.8" style="fill:#fff;"/>
                    <path d="M-2.9,-31.15C-2.867,-31.017 -2.95,-30.883 -3.15,-30.75L-3.25,-30.7C-3.417,-30.6 -3.617,-30.533 -3.85,-30.5L-4.35,-30.45L-4.45,-30.45L-4.55,-30.5L-4.85,-30.75L-4.6,-31.2L-3.95,-31.5L-3.2,-31.5L-2.95,-31.3L-2.9,-31.25L-2.9,-31.15" style="fill:#1d591d;"/>
                    <path d="M-2.65,-30.95L-2.95,-30.4L-3.05,-30.35C-3.217,-30.217 -3.433,-30.117 -3.7,-30.05L-4.3,-29.95L-4.45,-30L-4.55,-30L-4.9,-30.35L-4.65,-30.9L-3.9,-31.25L-3,-31.25L-2.75,-31.15L-2.65,-31.05L-2.65,-30.95" style="fill:#1d591d;"/>
                    <path d="M-4.95,-34.75L-4.55,-35.15L-4.05,-35.05L-3.75,-34.6L-2.95,-31.15C-2.883,-30.95 -2.9,-30.783 -3,-30.65C-3.067,-30.45 -3.183,-30.333 -3.35,-30.3L-3.85,-30.35L-4.25,-30.75L-5,-34.15C-5.1,-34.417 -5.083,-34.617 -4.95,-34.75" style="fill:#f3ba30;"/>
                    <path d="M-4.95,-34.75C-5.083,-34.617 -5.1,-34.417 -5,-34.15L-4.25,-30.75L-3.85,-30.35L-3.35,-30.3C-3.183,-30.333 -3.067,-30.45 -3,-30.65C-2.9,-30.783 -2.883,-30.95 -2.95,-31.15L-3.75,-34.6L-4.05,-35.05L-4.55,-35.15L-4.95,-34.75Z" style="fill:none;fill-rule:nonzero;stroke:#000;stroke-opacity:0.3;stroke-width:0.05px;"/>
                    <path d="M-3.75,-31.2C-3.717,-30.733 -3.833,-30.667 -4.1,-31L-4.35,-31.8L-4.75,-34.4L-4.7,-34.45C-4.1,-33.483 -3.783,-32.4 -3.75,-31.2" style="fill:#fff;"/>
                    <path d="M-4,-35.05L-3.85,-34.65L-3.55,-33.45C-3.583,-33.05 -3.733,-32.767 -4,-32.6C-4.167,-32.467 -4.367,-32.4 -4.6,-32.4L-4.7,-32.4L-5.15,-34.25C-5.25,-34.517 -5.233,-34.717 -5.1,-34.85L-4.9,-35.1L-4.65,-35.25L-4.2,-35.2L-4,-35.05" style="fill:#784801;fill-opacity:0.31;"/>
                    <path d="M-5.15,-38.85L-3.65,-36.85L-1.25,-37.5C-0.717,-37.633 -0.567,-37.4 -0.8,-36.8L-2.2,-34.4L-1.1,-31.95C-0.967,-31.417 -1.1,-31.2 -1.5,-31.3L-1.55,-31.3L-3.95,-31.8L-5.6,-29.9C-6,-29.467 -6.233,-29.567 -6.3,-30.2L-6.55,-32.75L-8.45,-33.65L-8.45,-33.75L-8.5,-33.75C-8.967,-34.05 -8.917,-34.367 -8.35,-34.7L-6.4,-35.85L-5.9,-38.6C-5.7,-39.067 -5.45,-39.15 -5.15,-38.85" style="fill:#f3ba30;"/>
                    <path d="M-5.15,-38.85L-3.65,-36.85L-1.25,-37.5C-0.717,-37.633 -0.567,-37.4 -0.8,-36.8L-2.2,-34.4L-1.1,-31.95C-0.967,-31.417 -1.1,-31.2 -1.5,-31.3L-1.55,-31.3L-3.95,-31.8L-5.6,-29.9C-6,-29.467 -6.233,-29.567 -6.3,-30.2L-6.55,-32.75L-8.45,-33.65L-8.45,-33.75L-8.5,-33.75C-8.967,-34.05 -8.917,-34.367 -8.35,-34.7L-6.4,-35.85L-5.9,-38.6C-5.7,-39.067 -5.45,-39.15 -5.15,-38.85Z" style="fill:none;fill-rule:nonzero;stroke:#000;stroke-opacity:0.3;stroke-width:0.05px;"/>
                    <path d="M-5.25,-37.5C-5.45,-36.8 -5.7,-36.167 -6,-35.6L-6.1,-35.7C-6.067,-36.8 -5.85,-37.817 -5.45,-38.75C-5.217,-38.55 -5.15,-38.133 -5.25,-37.5" style="fill:#fff;"/>
                    <path d="M-0.95,-37.2L-0.85,-37.2C-1.75,-36.667 -2.667,-36.467 -3.6,-36.6L-3.55,-36.7L-1.2,-37.35L-0.95,-37.2" style="fill:#fff;"/>
                    <path d="M-6.85,-34.55C-7.417,-34.283 -7.967,-34.133 -8.5,-34.1L-8.6,-34.2L-8.65,-34.35C-7.983,-34.817 -7.267,-35.167 -6.5,-35.4C-6.133,-35.1 -6.25,-34.817 -6.85,-34.55" style="fill:#fff;"/>
                    <path d="M-5.65,-31.05L-5.85,-30.2C-6.183,-30.4 -6.317,-30.767 -6.25,-31.3L-6,-32.55C-5.667,-32.217 -5.55,-31.717 -5.65,-31.05" style="fill:#fff;"/>
                    <path d="M-6,-33L-6.15,-33.15L-6,-33.45C-5.567,-33.15 -5.567,-33 -6,-33" style="fill:#fff;"/>
                    <path d="M1.35,-14.3L1.5,-14.35L2.15,-13.95L2.15,-13L2.5,-13.25L3.8,-14.1L4.95,-14.3L4.75,-13.35L5.05,-12.55L5.7,-11.35L2.8,-11.1L0.05,-10.05L-1.05,-10.9L-0.55,-11.55L-0.6,-11.65C-0.9,-12.117 -1.067,-12.75 -1.1,-13.55L-0.3,-13.35L1.1,-12.25L1.05,-12.85C1.017,-13.383 1.117,-13.867 1.35,-14.3M4.5,-12.8L4.75,-13.35L4.5,-12.8" style="fill:#fff;"/>
                    <path d="M1.35,-14.3C1.117,-13.867 1.017,-13.383 1.05,-12.85L1.1,-12.25L-0.3,-13.35L0.35,-12.95L0.5,-13.4L0.65,-13.3L1.05,-12.85L0.65,-13.3C0.75,-13.667 0.983,-14 1.35,-14.3M-1.1,-13.55C-1.067,-12.75 -0.9,-12.117 -0.6,-11.65L-0.55,-11.55L-1.05,-10.9L0.05,-10.05L-0.1,-10C-0.9,-10.033 -1.667,-10.283 -2.4,-10.75L-1.6,-11.8L-1.8,-12.05L-1.8,-12.1C-1.833,-12.733 -1.6,-13.217 -1.1,-13.55M3.8,-14.1L2.5,-13.25L2.15,-13L2.15,-13.95L2.75,-13.55L3.8,-14.1M2.5,-13.25L2.75,-13.55L2.5,-13.25" style="fill:#e8f5f5;"/>
                    <path d="M2.15,-13.95L1.5,-14.35L1.35,-14.3C0.983,-14 0.75,-13.667 0.65,-13.3L1.05,-12.85M-0.3,-13.35L-1.1,-13.55C-1.6,-13.217 -1.833,-12.733 -1.8,-12.1L-1.8,-12.05L-1.6,-11.8L-2.4,-10.75M5.05,-12.55L4.75,-13.35L4.5,-12.8M0.65,-13.3L0.5,-13.4L0.35,-12.95L-0.3,-13.35M2.15,-13.95L2.75,-13.55L3.8,-14.1L4.95,-14.3L4.75,-13.35M2.75,-13.55L2.5,-13.25" style="fill:none;fill-rule:nonzero;stroke:#000;stroke-opacity:0.3;stroke-width:0.05px;"/>
                    <path d="M8.65,-16.45L8.75,-15.55L8.8,-15.25L7.6,-16L7.8,-16L8.4,-15.75L8.65,-16.45M8.75,-15.55L8.4,-15.75L8.75,-15.55" style="fill:#dbf0ef;"/>
                    <path d="M8.65,-16.45L8.75,-16.4L9.1,-15.8C9.1,-14.967 8.95,-14.217 8.65,-13.55L8.1,-13.25C7.2,-13.85 6.667,-14.767 6.5,-16L6.55,-16.05L7.6,-16L8.8,-15.25L8.75,-15.55L8.65,-16.45" style="fill:#fefefe;"/>
                    <path d="M6.5,-16C6.667,-14.767 7.2,-13.85 8.1,-13.25L7.85,-13.1L5.7,-13.25L5.6,-13.45C5.6,-14.383 5.9,-15.233 6.5,-16" style="fill:#e8f5f5;"/>
                    <path d="M9.1,-15.8L8.75,-16.4L8.65,-16.45L8.4,-15.75L8.75,-15.55M7.6,-16L6.55,-16.05L6.5,-16C5.9,-15.233 5.6,-14.383 5.6,-13.45L5.65,-13.35M8.4,-15.75L7.8,-16L7.6,-16" style="fill:none;fill-rule:nonzero;stroke:#000;stroke-opacity:0.3;stroke-width:0.05px;"/>
                </g>
            </g>
        </g>
    </g>
</svg>
