<?xml version="1.0" encoding="UTF-8"?>
<svg version="1.1" viewBox="0 0 143.53 139.08" xmlns="http://www.w3.org/2000/svg" xmlns:cc="http://creativecommons.org/ns#" xmlns:dc="http://purl.org/dc/elements/1.1/" xmlns:rdf="http://www.w3.org/1999/02/22-rdf-syntax-ns#" xmlns:xlink="http://www.w3.org/1999/xlink">
<metadata>
<rdf:RDF>
<cc:Work rdf:about="">
<dc:format>image/svg+xml</dc:format>
<dc:type rdf:resource="http://purl.org/dc/dcmitype/StillImage"/>
</cc:Work>
</rdf:RDF>
</metadata>
<g transform="translate(-71.823 -9.5311)">
<use transform="translate(71.85,9.55)" width="143.5" height="139.05" xlink:href="#a"/>
</g>
<defs>
<g id="a" transform="translate(-71.85,-9.55)">
<path d="m157.75 97.3q1.35-3.3 4.15-4.15 3.25-0.9 6.5 2.05 3.25 3 4.6 8.1l0.65 3.85q-4.95 4.2-9.85-0.65l-6.05-9.2" fill="#e8d397" fill-rule="evenodd"/>
<path d="m157.75 97.3 6.05 9.2q4.9 4.85 9.85 0.65 0.35 3.3 0.3 7.3-0.1 3.95-2.85 1.75 0.5 3.6-0.6 3.95-1.2 0.3-3.5-2.05-1.75 4.3-4.95-0.45-3.25-4.8-4.6-9.85-1.35-5.15 0-9.4l0.3-1.1m13.35 18.9-2.7-5.4 2.7 5.4m-4.1 1.9-3.2-6.35 3.2 6.35" fill="#d2b46c" fill-rule="evenodd"/>
<path d="m173.65 107.15-0.65-3.85q-1.35-5.1-4.6-8.1-3.25-2.95-6.5-2.05-2.8 0.85-4.15 4.15m15.9 9.85q0.35 3.3 0.3 7.3-0.1 3.95-2.85 1.75 0.5 3.6-0.6 3.95-1.2 0.3-3.5-2.05-1.75 4.3-4.95-0.45-3.25-4.8-4.6-9.85-1.35-5.15 0-9.4l0.3-1.1m6.05 14.45 3.2 6.35m1.4-7.3 2.7 5.4" fill="none" stroke="#5a401d" stroke-linecap="round" stroke-linejoin="round" stroke-opacity=".34118" stroke-width=".05"/>
<path d="m127.7 118.1q0.25-1.15 0.8-2.2 1.9-3.3 5.9-4.15 3.9-0.95 7.6 1.1 3.7 2.1 4.95 5.9l0.15 0.45-2.05 3.05q-2.45 1.1-4.6 1.4-3.1 0.55-5.75-0.45l-7-5.1m15.3 1.9 2.05 2.25-2.05-2.25" fill="#e8d397" fill-rule="evenodd"/>
<path d="m127.7 118.1 7 5.1q2.65 1 5.75 0.45 2.15-0.3 4.6-1.4l2.05-3.05q4.15 4.9 0 5.1l-2.05-2.05 2.05 2.05 0.35 2.7q0.05 1.7-3.35 1.45 1.1 2.75-2.55 3t-7.95-2.2q-4.4-2.45-5.7-6.2-0.85-2.6-0.2-4.95m12.75 5.55 3.65 4.8-3.65-4.8" fill="#d2b46c" fill-rule="evenodd"/>
<path d="m147.1 119.2-0.15-0.45q-1.25-3.8-4.95-5.9-3.7-2.05-7.6-1.1-4 0.85-5.9 4.15-0.55 1.05-0.8 2.2-0.65 2.35 0.2 4.95 1.3 3.75 5.7 6.2 4.3 2.45 7.95 2.2t2.55-3l-3.65-4.8m4.6-1.4-2.05-2.25m2.05 2.25 2.05 2.05q4.15-0.2 0-5.1m-3 9.25q3.4 0.25 3.35-1.45l-0.35-2.7" fill="none" stroke="#5a401d" stroke-linecap="round" stroke-linejoin="round" stroke-opacity=".34118" stroke-width=".05"/>
<path d="m97.1 108.6-3.85 3.5v5.4q-2.85 3.2-4.1-2.2 0 6.65-3.5 5.05-5.4 3.5-5.4-0.95-0.35-2.85 2.55-3.8-5.75 2.25-2.9-4.15-2.2-5.05 0-6.95 1.3 0 3.2 0.95 2.25-2.25 4.75-2.9 2.55-0.95 3.85 2.25 4.1-1.6 4.75 0.65l0.3 3.15h0.35" fill="#f8eec7" fill-rule="evenodd"/>
<path d="m79.9 104.5q-2.2 1.9 0 6.95-2.85 6.4 2.9 4.15-2.9 0.95-2.55 3.8 0 4.45 5.4 0.95 3.5 1.6 3.5-5.05 1.25 5.4 4.1 2.2v-5.4l3.85-3.5q2.55 2.85 2.55 7.3 0 4.8-3.5 8.3t-8.3 3.8q-2.5 0-4.75-0.95-4.15 1.9-4.45-0.3-0.3-2.25 0-3.5-6.35 0-2.55-6.05l-3.5-1.3q-2.85-0.95 5.1-5.7-1.3-3.5-0.3-5.1 0.6-0.95 2.5-0.6" fill="#e8d397" fill-rule="evenodd"/>
<path d="m97.1 108.6h-0.35l-0.3-3.15q-0.65-2.25-4.75-0.65-1.3-3.2-3.85-2.25-2.5 0.65-4.75 2.9-1.9-0.95-3.2-0.95-1.9-0.35-2.5 0.6-1 1.6 0.3 5.1-7.95 4.75-5.1 5.7l3.5 1.3q-3.8 6.05 2.55 6.05-0.3 1.25 0 3.5 0.3 2.2 4.45 0.3 2.25 0.95 4.75 0.95 4.8-0.3 8.3-3.8t3.5-8.3q0-4.45-2.55-7.3z" fill="none" stroke="#5a401d" stroke-linecap="round" stroke-linejoin="round" stroke-opacity=".34118" stroke-width=".05"/>
<path d="m92.65 132.95-0.8-3.5q-2.5-12.8 2.85-26.55 5.35-13.8 15.45-20.5 2.6-1.8 9.2-4l2.55-0.15q3.65 0.05 7.15 1.75l1.75 1.1q-0.55 6.9-4.2 25.75-3.7 18.85-26 26.1h-7.95" fill="#e8d397" fill-rule="evenodd"/>
<path d="m130.8 81.1q2.3 1.35 4.15 3.35 2.7 3.3 4.3 8.1 11.45 20.25-11.5 36.55-23 16.25-31.9 10.7-2-2.95-3.2-6.85h7.95q22.3-7.25 26-26.1 3.65-18.85 4.2-25.75" fill="#d2b46c" fill-rule="evenodd"/>
<path d="m92.65 132.95-0.8-3.5q-2.5-12.8 2.85-26.55 5.35-13.8 15.45-20.5 2.6-1.8 9.2-4l2.55-0.15q3.65 0.05 7.15 1.75l1.75 1.1q2.3 1.35 4.15 3.35 2.7 3.3 4.3 8.1m-43.4 47.25q-2-2.95-3.2-6.85" fill="none" stroke="#5a401d" stroke-linecap="round" stroke-linejoin="round" stroke-opacity=".34118" stroke-width=".05"/>
<path d="m139.25 92.55q11.45 20.25-11.5 36.55-23 16.25-31.9 10.7" fill="none" stroke="#5a401d" stroke-linecap="round" stroke-linejoin="round" stroke-opacity=".34118" stroke-width=".05"/>
<path d="m125.9 108.7q-5.1 4.85-9.85-0.75l-6.05-10.8q1.25-3.7 4.15-4.85 3.15-1.1 6.65 2.6 3.2 3.35 4.45 9.35 0.65 2.2 0.65 4.45" fill="#f8eec7" fill-rule="evenodd"/>
<path d="m110 97.15 6.05 10.8q4.75 5.6 9.85 0.75l0.3 8.55q0 4.5-2.85 2.25 0.65 4.1-0.65 4.45-1.25 0.4-3.5-2.2-1.55 4.8-4.75-0.75-3.5-5.6-4.75-11.55-1.3-5.95 0-10.8 0-0.75 0.3-1.5m6.05 17.15 3.15 7.45-3.15-7.45m7.3 5.2-2.55-6.35 2.55 6.35" fill="#e8d397" fill-rule="evenodd"/>
<path d="m125.9 108.7q0-2.25-0.65-4.45-1.25-6-4.45-9.35-3.5-3.7-6.65-2.6-2.9 1.15-4.15 4.85-0.3 0.75-0.3 1.5-1.3 4.85 0 10.8 1.25 5.95 4.75 11.55 3.2 5.55 4.75 0.75l-3.15-7.45m9.85-5.6 0.3 8.55q0 4.5-2.85 2.25 0.65 4.1-0.65 4.45-1.25 0.4-3.5-2.2m1.6-8.6 2.55 6.35" fill="none" stroke="#5a401d" stroke-linecap="round" stroke-linejoin="round" stroke-opacity=".34118" stroke-width=".05"/>
<path d="m143.5 61.55q1.6-0.65 3.8-0.95 13.05-2.2 23.85 4.45 6.7 3.8 9.85 9.85 2.25 3.5 2.9 8.3l0.3 4.45-0.3 4.1q-1.3 6.7-6.05 12.75l-4.8 4.75q-12.05 7.3-26.7 4.45-16.5-2.85-15.55-21.6 0.3-4.8 1.25-8.9 2.55-12.75 11.45-21.65" fill="#f8eec7" fill-rule="evenodd"/>
<path d="m173.05 109.25q-2.85 2.2-6 3.8-4.8 2.25-10.2 3.2l-10.8 0.3q-7-0.95-13.05-4.45-10.8-6.65-12.7-18.1-2.25-11.45 5.7-21.3 6.7-8.3 17.5-11.15-8.9 8.9-11.45 21.65-0.95 4.1-1.25 8.9-0.95 18.75 15.55 21.6 14.65 2.85 26.7-4.45" fill="#e8d397" fill-rule="evenodd"/>
<path d="m143.5 61.55q1.6-0.65 3.8-0.95 13.05-2.2 23.85 4.45 6.7 3.8 9.85 9.85 2.25 3.5 2.9 8.3l0.3 4.45-0.3 4.1q-1.3 6.7-6.05 12.75l-4.8 4.75q-2.85 2.2-6 3.8-4.8 2.25-10.2 3.2l-10.8 0.3q-7-0.95-13.05-4.45-10.8-6.65-12.7-18.1-2.25-11.45 5.7-21.3 6.7-8.3 17.5-11.15z" fill="none" stroke="#5a401d" stroke-linecap="round" stroke-linejoin="round" stroke-opacity=".34118" stroke-width=".05"/>
<path d="m162.9 91.1q0 4.15-2.85 7.35-2.85 3.15-7 3.15-4.45 0-7.3-2.85-3.2-3.2-2.9-7.3-0.3-4.45 2.9-7.65 2.85-3.15 7.3-3.15 4.15 0 7 2.85 2.85 3.15 2.85 7.6" fill="#fff" fill-rule="evenodd"/>
<path d="m162.9 91.1q0 4.15-2.85 7.35-2.85 3.15-7 3.15-4.45 0-7.3-2.85-3.2-3.2-2.9-7.3-0.3-4.45 2.9-7.65 2.85-3.15 7.3-3.15 4.15 0 7 2.85 2.85 3.15 2.85 7.6z" fill="none" stroke="#5a401d" stroke-linecap="round" stroke-linejoin="round" stroke-opacity=".34118" stroke-width=".05"/>
<path d="m156.55 93.35q-0.95 0.95-2.25 0.95-1.25 0-2.2-0.95-0.95-0.65-0.95-1.9 0-1.3 0.95-1.9 0.95-0.95 2.2-0.95 1.3-0.35 2.25 0.6t0.95 2.25q0 0.95-0.95 1.9" fill="#620000" fill-rule="evenodd"/>
<path d="m182.95 76.5q2.5 2.85 2.5 7.3t-2.5 7.3q-2.55 3.2-6.05 3.5-3.85 0-6.35-3.15-2.55-2.85-2.25-7.3-0.3-4.45 2.25-7.65 2.5-2.85 6.35-2.85 3.5-0.35 6.05 2.85" fill="#fff" fill-rule="evenodd"/>
<path d="m182.95 76.5q2.5 2.85 2.5 7.3t-2.5 7.3q-2.55 3.2-6.05 3.5-3.85 0-6.35-3.15-2.55-2.85-2.25-7.3-0.3-4.45 2.25-7.65 2.5-2.85 6.35-2.85 3.5-0.35 6.05 2.85z" fill="none" stroke="#5a401d" stroke-linecap="round" stroke-linejoin="round" stroke-opacity=".34118" stroke-width=".05"/>
<path d="m180.7 85.4q-0.95 0.95-2.2 0.95-1.3 0-2.25-0.95-0.95-0.65-0.95-1.9 0-1.3 0.95-1.9 0.95-0.95 2.25-0.95 1.25-0.35 2.2 0.6t0.95 2.25q0 0.95-0.95 1.9" fill="#620000" fill-rule="evenodd"/>
<path d="m163.2 98.1q1.9-1.55 4.8-2.2 2.85-0.65 4.75 0 1.9 0.3 2.25 1.6-0.35 0.95-2.25 2.55-1.9 1.25-4.75 1.9l-4.8 0.3q-1.9-0.65-1.9-1.6 0-1.25 1.9-2.55" fill="#f99" fill-rule="evenodd"/>
<path d="m162.25 106.4q-2.85 4.75-7.6 0 3.8 0.3 7.6 0m-14.3-0.95q-4.45 2.85-7-1.6l1.6 0.65 5.4 0.95m25.1-1.95q2.55-1.25 5.1-2.85h0.35q-0.65 4.8-5.45 2.85" fill="#fff" fill-rule="evenodd"/>
<path d="m162.25 106.4q-2.85 4.75-7.6 0l-6.7-0.95q-4.45 2.85-7-1.6-1.9-0.65-3.5-0.95m24.8 3.5q-3.8 0.3-7.6 0m-6.7-0.95-5.4-0.95-1.6-0.65m32.1-0.35q4.8 1.95 5.45-2.85h-0.35q-2.55 1.6-5.1 2.85-5.05 2.25-10.8 2.9m20.7-9.25-4.45 3.5" fill="none" stroke="#5a401d" stroke-linecap="round" stroke-linejoin="round" stroke-opacity=".34118" stroke-width=".05"/>
<path d="m140.65 74.25q-2.25-23.8 4.15-45.1l0.6-5.1q0.35-3.5-0.95-4.45-3.15-1.3-6.05 6.65-1.9 4.15-3.15 11.8-4.45 20.35 0.6 38.15l-1.25 0.95q-4.45-5.4-5.7-18.75v-33.7q2.85-13.05 10.8-14.65 8.9-2.2 10.8 5.4l0.95 7q1.25 10.5-1.9 18.1-5.1 17.2-4.75 33.1l-4.15 0.6" fill="#f8eec7" fill-rule="evenodd"/>
<path d="m135.85 76.2q-5.05-17.8-0.6-38.15 1.25-7.65 3.15-11.8 2.9-7.95 6.05-6.65 1.3 0.95 0.95 4.45l-0.6 5.1q-6.4 21.3-4.15 45.1l-4.8 1.95" fill="#f99" fill-rule="evenodd"/>
<path d="m128.9 25v33.4q1.25 13.35 5.7 18.75l-4.15 3.8q-7.6-24.15-2.5-51.8 0.3-2.25 0.95-4.15" fill="#e8d397" fill-rule="evenodd"/>
<path d="m144.8 73.65q-0.35-15.9 4.75-33.1 3.15-7.6 1.9-18.1l-0.95-7q-1.9-7.6-10.8-5.4-7.95 1.6-10.8 14.65v0.3m1.55 55.95q-7.6-24.15-2.5-51.8 0.3-2.25 0.95-4.15" fill="none" stroke="#5a401d" stroke-linecap="round" stroke-linejoin="round" stroke-opacity=".34118" stroke-width=".05"/>
<path d="m212.5 17.05q1.25 7.65-4.8 15.6l-10.45 11.1-12.75 9.55-13.95 13.65q12.7-20.35 30.8-33.35l3.85-3.85q2.2-2.55 1.9-4.1-1.6-3.2-8.9 1.55-4.15 2.55-9.55 7.35-16.2 13.65-22.9 30.8l-7.3 0.65q8.9-23.85 30.2-42.9 1.6-1.6 3.5-2.85 9.85-8.6 17.15-5.1 1.9 0.65 3.2 1.9" fill="#f8eec7" fill-rule="evenodd"/>
<path d="m165.75 65.35q6.7-17.15 22.9-30.8 5.4-4.8 9.55-7.35 7.3-4.75 8.9-1.55 0.3 1.55-1.9 4.1l-3.85 3.85q-18.1 13-30.8 33.35-2.55-0.6-4.8-1.6" fill="#f99" fill-rule="evenodd"/>
<path d="m170.55 66.95 13.95-13.65 12.75-9.55 10.45-11.1q6.05-7.95 4.8-15.6 4.45 3.2 1.9 9.2l-3.5 6.05q-5.7 9.25-12.7 13.35-14.65 10.5-23.85 23.2l-3.8-1.9" fill="#e8d397" fill-rule="evenodd"/>
<path d="m212.5 17.05q-1.3-1.25-3.2-1.9-7.3-3.5-17.15 5.1-1.9 1.25-3.5 2.85-21.3 19.05-30.2 42.9m15.9 2.85q9.2-12.7 23.85-23.2 7-4.1 12.7-13.35l3.5-6.05q2.55-6-1.9-9.2z" fill="none" stroke="#5a401d" stroke-linecap="round" stroke-linejoin="round" stroke-opacity=".34118" stroke-width=".05"/>
<path d="m111.15 139.35q-2.55 1.25-4.8 1.55-3.15 0.35-5.7-0.6l-7-5.1q0.3-1.3 0.95-2.25 1.9-3.15 5.75-4.1 3.8-0.95 7.6 1.25 3.85 1.9 5.1 5.75v0.6l-1.9 2.9q-1.3-1-2.25-2.25 0.95 1.25 2.25 2.25" fill="#f8eec7" fill-rule="evenodd"/>
<path d="m113.05 141.55 0.3 2.55q0 1.6-3.15 1.6l-3.85-4.8 3.85 4.8q0.95 2.55-2.55 2.85-3.8 0.3-7.95-2.25-4.45-2.5-5.75-6-0.95-2.9-0.3-5.1l7 5.1q2.55 0.95 5.7 0.6 2.25-0.3 4.8-1.55l1.9 2.2-1.9-2.2 1.9-2.9q4.15 4.8 0 5.1" fill="#e8d397" fill-rule="evenodd"/>
<path d="m110.2 145.7q3.15 0 3.15-1.6l-0.3-2.55-1.9-2.2q-1.3-1-2.25-2.25m-2.55 3.8 3.85 4.8q0.95 2.55-2.55 2.85-3.8 0.3-7.95-2.25-4.45-2.5-5.75-6-0.95-2.9-0.3-5.1 0.3-1.3 0.95-2.25 1.9-3.15 5.75-4.1 3.8-0.95 7.6 1.25 3.85 1.9 5.1 5.75v0.6q4.15 4.8 0 5.1" fill="none" stroke="#5a401d" stroke-linecap="round" stroke-linejoin="round" stroke-opacity=".34118" stroke-width=".05"/>
</g>
</defs>
</svg>
