<?xml version="1.0" encoding="UTF-8"?>
<svg version="1.1" viewBox="0 0 205.05 136.05" xmlns="http://www.w3.org/2000/svg" xmlns:cc="http://creativecommons.org/ns#" xmlns:dc="http://purl.org/dc/elements/1.1/" xmlns:rdf="http://www.w3.org/1999/02/22-rdf-syntax-ns#" xmlns:xlink="http://www.w3.org/1999/xlink">
<metadata>
<rdf:RDF>
<cc:Work rdf:about="">
<dc:format>image/svg+xml</dc:format>
<dc:type rdf:resource="http://purl.org/dc/dcmitype/StillImage"/>
</cc:Work>
</rdf:RDF>
</metadata>
<g transform="translate(-172.95 -132.45)">
<use transform="translate(172.95,132.45)" width="205.05" height="136.05" xlink:href="#a"/>
</g>
<defs>
<g id="a" transform="translate(-172.95,-132.45)">
<path d="m369.5 148.95-7.5 9.5-18-4.5 3.5-5.5-21-3.5-29.25-3.25 2.4-2.35 2.35-2.4 48 3 19.5 9m-88.5 119.05h-31l-23.5-7.5-0.35-3.2-3.15-29.35-6-67.5 21.9 6.4 10.1 52.6 5 7.5-4.5-29v-26l9.5-11 23.05 2.8 9.95 1.2 6.1-0.95 6.1-0.9 6.8 11.85-25.9-1.25-35.6-1.75 35.6 1.75-0.05 0.25 1.95 12.5 7.5 45-1.3 16-12.2 20.55" fill="#989701" fill-rule="evenodd"/>
<path d="m362 158.45 7.5-9.5 3 49.5 5 26-8 24.5-10.5-39v-23l3-28.5m-64.75-16.75 29.25 3.25-3 16-8 1q4.45 32.15-2.8 35.95-1.45-8.95-1.7-22.95l-6.8-11.85-6.1 0.9-0.3-8.5 0.3 8.5-6.1 0.95-9.95-1.2-0.05-20.25 11 0.45 4.8 11.55-0.55-13.8m-53.25-8.75 0.5 15-3.95 7.4-2.65-1-3.45-10.9 9.55-10.5m5 25.5-3 11 3.5 18v10.5l4.5 29-5-7.5-10.1-52.6 10.1-8.4m-55.55 61.7q-5.35-4.9-3-26.2 3.5-12.45 9-17l7.55 3q0.65 1.1 1.1 2.65-6.7-2.25-9.65 17.85-1.4 11.85 1.65 16.05l-6.65 3.65m111.55-57.2-0.8 0.15 0.8-0.15" fill="#660" fill-rule="evenodd"/>
<path d="m359 186.95v40l4.75 26.4 0.85 4.8-19.6 5.85q1.25-49.45-15-44.55-8.9 6.4-6.9 34.6 0.3 4.45 0.9 9.45l-32.5 4.5 0.25-3 1.45-17.55 1.3-16-7.5-45-1.95-12.5 0.05-0.25 25.9 1.25q0.25 14 1.7 22.95 2.75 16.65 9.8 16.05 9.5-7.1 7-40l24.5-7 4.5-4 0.5 24m-141 71.5-17-14-9.05-3 0.95-4.8 3.05-15.2q3.65 1.05 6.7-3.05 2.35-3.15 4.35-9.45 3.3-18.65 1.1-26.35-0.45-1.55-1.1-2.65l-7.55-3q-5.5 4.55-9 17-2.35 21.3 3 26.2l-7 18.8-13-10.5 11.5-35 4-38.5v-15l1.8-0.4 0.2 3.4 26.05 17.5 6 67.5-5 30.5" fill="#878601" fill-rule="evenodd"/>
<path d="m344 153.95 18 4.5-3 28.5-0.5-24-13.75-5.55-0.75-3.45m15 56 10.5 39-5.75 4.4-4.75-26.4v-17m-14 54.05q-9.3-20.6-21.9-9.95-2-28.2 6.9-34.6 16.25-4.9 15 44.55m-53.25 1q-6.25-3.65-10.75 3l12.2-20.55-1.45 17.55m-65.6-7.7q-3.1-4.35-8.15 1.15l5-30.5 3.15 29.35m-33.25-20.65-6.45 2.3 7-18.8q1.1 1 2.5 1.3l-3.05 15.2m15.2-54.05q2.2 7.7-1.1 26.35-2 6.3-4.35 9.45-1.55-0.55-2.55-1.9-3.05-4.2-1.65-16.05 2.95-20.1 9.65-17.85" fill="#330" fill-rule="evenodd"/>
<path d="m190.75 139.55 7.2-1.6h16.55l29.5-5-9.55 10.5-21.5 1.7 24.95 9.2 2.65 1 8.45 3.1-10.1 8.4-21.9-6.4-26.05-17.5-0.2-3.4m56.25 2.4 5.5-8.5 44.5 3-4 7.5-11-0.45-35-1.55m-44-0.5 9.95 3.7-9.95-3.7m120.5 19.5 8-1 8.5-4.5 4.75 1.95 13.75 5.55-4.5 4-24.5 7-14-12 8-1" fill="#baba01" fill-rule="evenodd"/>
<path d="m299.65 139.35-2.4 2.35 0.55 13.8-4.8-11.55 4-7.5 2.65 2.9m26.85 5.6 21 3.5-3.5 5.5 0.75 3.45-4.75-1.95-8.5 4.5-8 1 3-16m-93-0.5 0.95-1-0.95 1m0.95-1 3.45 10.9-24.95-9.2 21.5-1.7" fill="#3c3c00" fill-rule="evenodd"/>
<path d="m244.5 147.95 2.5-6 35 1.55 0.05 20.25-23.05-2.8-9.5 11v15.5l-3.5-18 3-11-8.45-3.1 3.95-7.4m-41.85 70.45q-3.05 4.1-6.7 3.05-1.4-0.3-2.5-1.3l6.65-3.65q1 1.35 2.55 1.9m112.85-56.45 14 12q2.5 32.9-7 40-7.05 0.6-9.8-16.05 7.25-3.8 2.8-35.95" fill="#545401" fill-rule="evenodd"/>
<path d="m362 158.45 7.5-9.5-19.5-9-48-3-2.35 2.4-2.4 2.35 29.25 3.25 21 3.5-3.5 5.5 18 4.5-3 28.5v23l10.5 39 8-24.5-5-26-3-49.5m-10.5 61v17l4.75 26.4 5.75-4.4m-11-86 0.5 24m4.75 66.4 0.85 4.8-19.6 5.85q-9.3-20.6-21.9-9.95 0.3 4.45 0.9 9.45l-32.5 4.5 0.25-3q-6.25-3.65-10.75 3h-31l-23.5-7.5-0.35-3.2q-3.1-4.35-8.15 1.15l-17-14-9.05-3 0.95-4.8-6.45 2.3-13-10.5 11.5-35 4-38.5v-15l9-2h16.55l29.5-5 0.5 15 2.5-6 5.5-8.5 44.5 3 2.65 2.9m-82.65 21.1-26.05-17.5-0.2-3.4m43.7 3.9-0.95 1m4.4 9.9 2.65 1 3.95-7.4m-10.05-4.5 3.45 10.9-24.95-9.2-9.95-3.7m37.55 13.9 8.45 3.1-3 11 3.5 18v-15.5l9.5-11 23.05 2.8 9.95 1.2 6.1-0.95 6.1-0.9 0.8-0.15m-23-19.45-35-1.55m2 16.5-10.1 8.4 10.1 52.6 5 7.5-4.5-29v-10.5m-56.05 32.7q-5.35-4.9-3-26.2 3.5-12.45 9-17l7.55 3q0.65 1.1 1.1 2.65 2.2 7.7-1.1 26.35-2 6.3-4.35 9.45-3.05 4.1-6.7 3.05l-3.05 15.2m0.55-16.5-7 18.8m9.5-17.5q-1.4-0.3-2.5-1.3l6.65-3.65q-3.05-4.2-1.65-16.05 2.95-20.1 9.65-17.85m-5.45 35.8q-1.55-0.55-2.55-1.9m22.9 11.45 3.15 29.35m-9.15-96.85 21.9 6.4m-4.45-23.4 9.55-10.5m100.75 24.45-4.75-1.95-8.5 4.5-16 2 14 12 24.5-7 4.5-4-13.75-5.55-0.75-3.45m-46.75-12.25 0.55 13.8 0.3 8.5m-16.1-20.5 11 0.45 4-7.5m-10 50 7.5 45-1.3 16-1.45 17.55m19.25-90.05-6.8-11.85m-19.1 10.6 25.9 1.25q0.25 14 1.7 22.95 7.25-3.8 2.8-35.95m-22.5-18 4.8 11.55m14.9 42.4q2.75 16.65 9.8 16.05 9.5-7.1 7-40m-80-2 35.6 1.75m8.1 73.75-12.2 20.55m-58-40.05-5 30.5m127 5.55q1.25-49.45-15-44.55-8.9 6.4-6.9 34.6" fill="none" stroke="#000" stroke-linecap="round" stroke-linejoin="round" stroke-opacity=".4" stroke-width=".2"/>
<path d="m372.5 198.45-3-49.5-19.5-9-48-3-2.35 2.4-2.65-2.9-44.5-3-5.5 8.5-2.5 6-0.5-15-29.5 5h-16.55l-9 2v15l-4 38.5-11.5 35 13 10.5 6.45-2.3-0.95 4.8 9.05 3 17 14q5.05-5.5 8.15-1.15l0.35 3.2 23.5 7.5h31q4.5-6.65 10.75-3l-0.25 3 32.5-4.5q-0.6-5-0.9-9.45 12.6-10.65 21.9 9.95l19.6-5.85-0.85-4.8 5.75-4.4 8-24.5z" fill="none" stroke="#000" stroke-linecap="round" stroke-linejoin="round" stroke-opacity=".4"/>
</g>
</defs>
</svg>
