<?xml version="1.0" encoding="UTF-8"?>
<svg version="1.1" viewBox="0 0 43.758 42.91" xmlns="http://www.w3.org/2000/svg" xmlns:cc="http://creativecommons.org/ns#" xmlns:dc="http://purl.org/dc/elements/1.1/" xmlns:rdf="http://www.w3.org/1999/02/22-rdf-syntax-ns#" xmlns:xlink="http://www.w3.org/1999/xlink">
<metadata>
<rdf:RDF>
<cc:Work rdf:about="">
<dc:format>image/svg+xml</dc:format>
<dc:type rdf:resource="http://purl.org/dc/dcmitype/StillImage"/>
</cc:Work>
</rdf:RDF>
</metadata>
<g transform="translate(-253.07 -178.49)">
<use transform="matrix(.7012 0 0 .7012 253.07 178.49)" width="62.400002" height="61.200001" xlink:href="#a"/>
</g>
<defs>
<g id="a" transform="translate(31.2,30.6)">
<use transform="translate(-31.2,-30.6)" width="62.400002" height="61.200001" xlink:href="#b"/>
</g>
<g id="b" transform="translate(31.2,30.6)">
<path d="m5-29.8-0.2-0.25 1.2 0.15 1.4 0.35q2.35 3.35 1.85 8.05l0.95 1.8q0.95 2.2-0.15 4.3l-1.85 1.25-1.4 0.5q-0.3 5.2-3 9.45-1.45 2.2-3.55 4.15l-1.5 1.3q-2.05-0.25-3.75-1.3 2.8-2.55 5.1-5.55 2.65-3.65 4.5-7.95-1.15-0.2-2.4-0.8l-1.1-1.85q-1.85-3.8 1.75-6.55 2.2-1.2 4.45 0.35-0.05-4.15-2.3-7.4m-10.9 3.65q-2.4 1.7-3.85 3.7-3.95 1-6.75 3.4l-0.45 0.35-0.25 0.05-2.6 2.3-0.25 0.9-0.85 1.15-0.9 0.55-1.15 2q-5.6 9.7-4.45 22.4l0.9 6.5q-4.15-5.9-4.2-13.3-0.1-10.9 7.25-20.1 2.45-3.15 5.6-5.3l2.1-1.3q3.25-1.85 7.15-2.75l2.7-0.55" fill="#fff" fill-rule="evenodd"/>
<path d="m4.8-30.05 0.2 0.25q-5.6 0.45-8.6 3.15-1.45 1.3-2.25 3.15-1.05 2.25-1.15 5.3-0.25 8.9 7.1 12.6-2.3 3-5.1 5.55l-1.85-1.5-0.2-0.2 0.2 0.2q-2.1 0.45-3.95 1.25l-2.6 1.3q-0.55-0.8-1.6-3.65-1.05-2.9-1.8-7.75-0.55-3.6 0.3-8.65 2.8-2.4 6.75-3.4 1.45-2 3.85-3.7l0.05-0.05 0.15-0.1-0.45 0.05 1.55-1.1q4.8-3.1 9.4-2.7m-11.85 28.3q-8.85-12.4-2.85-20.5l0.15-0.2-0.15 0.2q-6 8.1 2.85 20.5m23.95-19.65 1.9 1.3 1.2 1.05q2.8 6.95 0 12.2-2.85 5.25-6.05 8.45h-0.35l-0.25 0.4-1.35-0.9q-1.75-1.05-3.65-1.75l-0.3-0.1 0.5-0.3-0.5 0.3h-0.1l-1 0.55q-2.85 1.25-6.35 1.5l-1.85-0.05 1.5-1.3q2.1-1.95 3.55-4.15l4.3 0.7 2.2-0.1 0.9-0.1q5.65-4.7 6.9-11.1l-0.25-3.35-0.95-3.25m-8.35 20.35 2.4-1.6q6.95-5.2 7.15-12.15-0.2 6.95-7.15 12.15l-2.4 1.6m5.75 4.85 0.65-0.5q3.6 3.3 3.65 7.65l-0.1 1.65-0.05-0.35-0.15-3.65-1.2-2.55-2.4-1.95-0.4-0.3m2.55 12.75-0.85 1.05 0.55-0.75 0.3-0.3m-6.7 5.3q-4.15 2-9.3 2.25h-0.2q-0.35-0.45-0.5-3.5-0.3-4.2-0.1-7.55 0.15-3.35-0.25-4.3 4.05-0.05 7.5-1.1 2.55 7.45-0.15 15.1v0.25l3-1.15m-12.95 2.2q-6.7-0.4-11.7-3.75-5.7-3.85-5.7-9.35 0-4.35 3.6-7.65l0.65 0.55-0.6 0.25q0.05 0.3-0.25 0.55l-0.5 0.05-0.55 0.55q-2.1 3.95-1.55 8.8 2.15 4.5 8.55 7.75-3.7-4.05-0.5-0.75l1.8-13.65q3.3 1.1 7.2 1.3l0.05 4.8q0.1 2.95-0.2 5.9l-0.35 3.65 0.05 1" fill="#c69500" fill-rule="evenodd"/>
<path d="m0.1-5.6q-7.35-3.7-7.1-12.6 0.1-3.05 1.15-5.3 0.8-1.85 2.25-3.15 3-2.7 8.6-3.15 2.25 3.25 2.3 7.4-2.25-1.55-4.45-0.35-3.6 2.75-1.75 6.55l1.1 1.85q1.25 0.6 2.4 0.8-1.85 4.3-4.5 7.95m7.3-23.95q4.5 1.4 8.8 6.45l0.1 0.15 0.6 1.55 0.95 3.25 0.25 3.35q-1.25 6.4-6.9 11.1l-0.9 0.1-2.2 0.1-4.3-0.7q2.7-4.25 3-9.45l1.4-0.5 1.85-1.25q1.1-2.1 0.15-4.3l-0.95-1.8q0.5-4.7-1.85-8.05" fill="#fefe45" fill-rule="evenodd"/>
<path d="m20-19.05 1.85 1.75q9 9.2 8.85 20.6-0.15 11.45-9.15 19.15-8.95 7.65-21.6 7.65-12.6 0-21.65-7.65-2.85-2.5-4.8-5.3l-0.9-6.5q-1.15-12.7 4.45-22.4l1.15-2 0.9-0.55 0.85-1.15 0.25-0.9 2.6-2.3 0.25-0.05 0.45-0.35q-0.85 5.05-0.3 8.65 0.75 4.85 1.8 7.75 1.05 2.85 1.6 3.65l-1.1 0.7q-1.15 0.75-2.1 1.6-3.6 3.3-3.6 7.65 0 5.5 5.7 9.35 5 3.35 11.7 3.75l2 0.1 1.45-0.05-1.45 0.05-2-0.1-0.05-1 0.35-3.65q0.3-2.95 0.2-5.9l-0.05-4.8 1.55 0.05h0.6q0.4 0.95 0.25 4.3-0.2 3.35 0.1 7.55 0.15 3.05 0.5 3.5h0.2q5.15-0.25 9.3-2.25l2.4-1.05q1.3-0.45 2-1.55l0.6-0.15 0.85-1.5 0.85-1.05q0.45-0.55 1.2-0.95 0.5-1.4 0.45-3l0.1-1.65q-0.05-4.35-3.65-7.65l-1.6-1.3 0.25-0.4h0.35q3.2-3.2 6.05-8.45 2.8-5.25 0-12.2" fill="#fc3" fill-rule="evenodd"/>
<path d="m18.5 12.6q0.05 1.6-0.45 3-0.75 0.4-1.2 0.95l-0.3 0.3-0.55 0.75-0.85 1.5-0.6 0.15q-0.7 1.1-2 1.55l-2.4 1.05-3 1.15v-0.25q2.7-7.65 0.15-15.1 3-1 5.6-2.7l1.4-1.15 0.4 0.3 2.4 1.95 1.2 2.55 0.15 3.65 0.05 0.35q-0.4 2.1-1.65 3.95 1.25-1.85 1.65-3.95m-2.5 5q-1.25 1.45-3.1 2.7l-2.75 1.55 2.75-1.55q1.85-1.25 3.1-2.7m-25.55-10.2-1.8 13.65q-3.2-3.3 0.5 0.75-6.4-3.25-8.55-7.75-0.55-4.85 1.55-8.8l0.55-0.55 0.5-0.05q0.3-0.25 0.25-0.55l0.6-0.25 1.45 1.1q2.25 1.5 4.95 2.45" fill="#9b7500" fill-rule="evenodd"/>
<path d="m-5.7-26.3-0.15 0.1-0.05 0.05q-2.4 1.7-3.85 3.7l-0.15 0.2q-6 8.1 2.85 20.5m11.85-28.3 1.2 0.15 1.4 0.35m8.9 6.6 0.6 1.55 0.95 3.25 0.25 3.35q-0.2 6.95-7.15 12.15l-2.4 1.6m-9.8 2.3q-2.05-0.25-3.75-1.3" fill="none" stroke="#000" stroke-linecap="round" stroke-linejoin="round"/>
<path d="m5-29.8-0.2-0.25m-9.8 30q2.8-2.55 5.1-5.55m4.9-24.2q2.25 3.25 2.3 7.4-2.25-1.55-4.45-0.35-3.6 2.75-1.75 6.55l1.1 1.85q1.25 0.6 2.4 0.8-1.85 4.3-4.5 7.95m7.3-23.95q2.35 3.35 1.85 8.05l0.95 1.8q0.95 2.2-0.15 4.3l-1.85 1.25-1.4 0.5q-0.3 5.2-3 9.45-1.45 2.2-3.55 4.15l-1.5 1.3" fill="none" stroke="#000" stroke-linecap="round" stroke-linejoin="round" stroke-width=".1"/>
<path d="m4.8-30.05q-4.6-0.4-9.4 2.7l-1.55 1.1 0.45-0.05m-1.35 24.55 0.2 0.2 1.85 1.5m12.4-29.5q4.5 1.4 8.8 6.45l0.1 0.15m0.6 1.55 1.9 1.3 1.2 1.05 1.85 1.75q9 9.2 8.85 20.6-0.15 11.45-9.15 19.15-8.95 7.65-21.6 7.65-12.6 0-21.65-7.65-2.85-2.5-4.8-5.3-4.15-5.9-4.2-13.3-0.1-10.9 7.25-20.1 2.45-3.15 5.6-5.3l2.1-1.3q3.25-1.85 7.15-2.75l2.7-0.55m14.45 25.1-0.5 0.3 0.3 0.1q1.9 0.7 3.65 1.75l1.35 0.9m-14.6-0.75 1.85 0.05q3.5-0.25 6.35-1.5l1-0.55h0.1m6.9 4.05-1.6-1.3m0.95 1.8 0.65-0.5q3.6 3.3 3.65 7.65l-0.1 1.65m-1.65 3.95-0.85 1.05m-5.85 4.25q-4.15 2-9.3 2.25h-0.2l-1.45 0.05-2-0.1q-6.7-0.4-11.7-3.75-5.7-3.85-5.7-9.35 0-4.35 3.6-7.65 0.95-0.85 2.1-1.6l1.1-0.7 2.6-1.3q1.85-0.8 3.95-1.25m21.15 5.35-1.4 1.15q-2.6 1.7-5.6 2.7-3.45 1.05-7.5 1.1h-0.6l-1.55-0.05q-3.9-0.2-7.2-1.3-2.7-0.95-4.95-2.45l-1.45-1.1-0.65-0.55m26.75 18.55 2.75-1.55q1.85-1.25 3.1-2.7m0.85-1.05q1.25-1.85 1.65-3.95" fill="none" stroke="#000" stroke-linecap="round" stroke-linejoin="round"/>
</g>
</defs>
</svg>
