<?xml version="1.0" encoding="UTF-8"?>
<svg version="1.1" viewBox="0 0 15.55 33.432" xmlns="http://www.w3.org/2000/svg" xmlns:cc="http://creativecommons.org/ns#" xmlns:dc="http://purl.org/dc/elements/1.1/" xmlns:rdf="http://www.w3.org/1999/02/22-rdf-syntax-ns#" xmlns:xlink="http://www.w3.org/1999/xlink">
<metadata>
<rdf:RDF>
<cc:Work rdf:about="">
<dc:format>image/svg+xml</dc:format>
<dc:type rdf:resource="http://purl.org/dc/dcmitype/StillImage"/>
</cc:Work>
</rdf:RDF>
</metadata>
<g transform="translate(-267.18 -183.22)">
<use transform="translate(267.2,183.25)" width="15.5" height="33.400002" xlink:href="#a"/>
</g>
<defs>
<g id="a" transform="translate(-267.2,-183.25)">
<path d="m282.6 212.25h0.05l0.05 0.05-0.15-0.05h0.05m-1.7 0h-0.65l0.65-0.05v0.05m-3.05 0.45-0.1 0.05 0.05-0.05h0.05" fill="#555ba0" fill-rule="evenodd"/>
<path d="m270.7 216.55 0.05 0.05h-0.05v-0.05" fill="#cf0" fill-rule="evenodd"/>
<path d="m276 183.25q1 1.15 1.3 2.55l0.05 0.15 0.3 6.85v0.2q0.15 4.2 0.55 7.45v0.15q0.45 7 3.3 10.75l1.1 0.9h-1.7v-0.05q-3.65-3.1-4.25-7.3-0.6 4.4 1.15 7.8l-0.05 0.05-0.2 0.3-0.05 0.45v0.2q-0.2 0.95-1.05 1.2l-1.4 0.2h-0.1q-2.4-4.45-2.45-15.25-2.5 8.6-1.6 15.65l-0.2 0.15-0.65 0.3q-2.55-2.7-2.85-6.15l0.05-0.95 0.05-0.2v-0.6l0.1-0.9 0.55-5.7 0.6-7.3q0.15-4.05-0.5-7.3 4.9-1.1 7.95-3.6" fill="#b4b3a0" fill-rule="evenodd"/>
<path d="m280.25 212.25-2.35 0.45h-0.1q-1.75-3.4-1.15-7.8 0.6 4.2 4.25 7.3l-0.65 0.05m-5.3 2.85h-1.45l-2.6 0.4q-0.9-7.05 1.6-15.65 0.05 10.8 2.45 15.25" fill="#88876c" fill-rule="evenodd"/>
<path d="m270.05 215.95 0.65 0.6v0.05q-2.3 0.2-3.5-0.85v-5.95q0.3 3.45 2.85 6.15" fill="#bfbeae" fill-rule="evenodd"/>
<path d="m277.9 212.7h-0.05" fill="none" stroke="#0f121c" stroke-linecap="round" stroke-linejoin="round" stroke-width=".05"/>
<path d="m276 183.25q1 1.15 1.3 2.55l0.05 0.15 0.3 6.85v0.2q0.15 4.2 0.55 7.45v0.15q0.45 7 3.3 10.75l1.1 0.9h0.05l0.05 0.05-0.15-0.05h-2.3l-2.35 0.45m-0.15 0.05-0.2 0.3-0.05 0.45v0.2q-0.2 0.95-1.05 1.2l-1.4 0.2h-1.55l-2.6 0.4-0.2 0.15-0.65 0.3 0.65 0.6 0.05 0.05h-0.05q-2.3 0.2-3.5-0.85m10.6-3.05-0.05 0.05m-7.7 3.2q-2.55-2.7-2.85-6.15" fill="none" stroke="#141f0d" stroke-linecap="round" stroke-linejoin="round" stroke-opacity=".50196" stroke-width=".05"/>
<path d="m272 190.2h0.05-0.05" fill="#c8dbc8" fill-rule="evenodd"/>
<path d="m276.6 190.25h-0.05 0.05m-4.55-0.1v0.05h-0.05l0.05-0.05" fill="#5e1313" fill-rule="evenodd"/>
<path d="m269.95 192.8-0.1-0.05 0.1 0.05" fill="#f4cccc" fill-rule="evenodd"/>
<path d="m274.85 189.2 0.25-0.55q0.4-0.6 0.95-0.85t1 0q0.4 0.2 0.4 0.75t-0.4 1.15l-0.45 0.55h-0.05q-0.3-1-1.7-1.05m-5 3.55h-0.05q-0.4-0.25-0.4-0.8t0.4-1.15 1-0.85q0.55-0.25 0.95 0 0.15 0.05 0.3 0.2l-0.05 0.05q-1.4 0.95-2.15 2.55m6.25 0.1-0.3 0.7-0.6 0.6h-0.6q-0.3-0.15-0.3-0.5 0-0.4 0.3-0.75l0.6-0.55q0.35-0.15 0.6 0 0.3 0.1 0.3 0.5m-2.8 2.9-0.35 0.1-0.15-0.1 0.15-0.25 0.35-0.25 0.4-0.1q0.15 0 0.15 0.1l-0.15 0.25-0.4 0.25m-0.85-1.7-0.35 0.9-0.7 0.65q-0.45 0.2-0.75 0-0.35-0.15-0.35-0.6t0.35-0.9l0.75-0.65q0.4-0.2 0.7 0 0.35 0.15 0.35 0.6" fill="#80772f" fill-rule="evenodd"/>
<path d="m276.55 190.25 0.3 1.35q-0.05 1.5-1.1 3.1-1.1 1.6-2.65 2.3l-2.6 0.1q-1.1-0.6-1.1-2.1 0-1.1 0.55-2.2l-0.1-0.05q0.75-1.6 2.15-2.55h0.05l1.05-0.65q0.95-0.45 1.7-0.35h0.05q1.4 0.05 1.7 1.05m-3.25 5.5 0.4-0.25 0.15-0.25q0-0.1-0.15-0.1l-0.4 0.1-0.35 0.25-0.15 0.25 0.15 0.1 0.35-0.1m2.8-2.9q0-0.4-0.3-0.5-0.25-0.15-0.6 0l-0.6 0.55q-0.3 0.35-0.3 0.75 0 0.35 0.3 0.5h0.6l0.6-0.6 0.3-0.7m-3.65 1.2q0-0.45-0.35-0.6-0.3-0.2-0.7 0l-0.75 0.65q-0.35 0.45-0.35 0.9t0.35 0.6q0.3 0.2 0.75 0l0.7-0.65 0.35-0.9" fill="#fcfbf5" fill-rule="evenodd"/>
<path d="m274.85 189.2 0.25-0.55q0.4-0.6 0.95-0.85t1 0q0.4 0.2 0.4 0.75t-0.4 1.15l-0.45 0.55h-0.05l0.3 1.35q-0.05 1.5-1.1 3.1-1.1 1.6-2.65 2.3l-2.6 0.1q-1.1-0.6-1.1-2.1 0-1.1 0.55-2.2l-0.1-0.05h-0.05q-0.4-0.25-0.4-0.8t0.4-1.15 1-0.85q0.55-0.25 0.95 0 0.15 0.05 0.3 0.2v0.05l1.05-0.65q0.95-0.45 1.7-0.35h0.05q1.4 0.05 1.7 1.05m-0.45 2.6-0.3 0.7-0.6 0.6h-0.6q-0.3-0.15-0.3-0.5 0-0.4 0.3-0.75l0.6-0.55q0.35-0.15 0.6 0 0.3 0.1 0.3 0.5m-2.8 2.9-0.35 0.1-0.15-0.1 0.15-0.25 0.35-0.25 0.4-0.1q0.15 0 0.15 0.1l-0.15 0.25-0.4 0.25m-1.3-5.55h0.05m-0.05 0q-1.4 0.95-2.15 2.55m2.6 1.3-0.35 0.9-0.7 0.65q-0.45 0.2-0.75 0-0.35-0.15-0.35-0.6t0.35-0.9l0.75-0.65q0.4-0.2 0.7 0 0.35 0.15 0.35 0.6" fill="none" stroke="#000" stroke-linecap="round" stroke-linejoin="round" stroke-opacity=".50196" stroke-width=".05"/>
</g>
</defs>
</svg>
