<?xml version="1.0" encoding="UTF-8"?>
<svg version="1.1" viewBox="0 0 43.301 28.101" xmlns="http://www.w3.org/2000/svg" xmlns:cc="http://creativecommons.org/ns#" xmlns:dc="http://purl.org/dc/elements/1.1/" xmlns:rdf="http://www.w3.org/1999/02/22-rdf-syntax-ns#" xmlns:xlink="http://www.w3.org/1999/xlink">
<metadata>
<rdf:RDF>
<cc:Work rdf:about="">
<dc:format>image/svg+xml</dc:format>
<dc:type rdf:resource="http://purl.org/dc/dcmitype/StillImage"/>
</cc:Work>
</rdf:RDF>
</metadata>
<g transform="translate(-258.8 -389)">
<use transform="translate(258.8,388.85)" width="43.299999" height="28.25" xlink:href="#a"/>
</g>
<defs>
<g id="a" transform="translate(-258.8,-388.85)">
<path d="m297.55 391.5q-1.55-1.9-7.15-2h-1.3l-2.05 0.1q-5.05 0.35-10.85 1.9l-1.65 0.45q-6.7 2-11.1 4.95l-1.8 1.4q-2.55 2.2-2.3 4v0.1l0.1 0.45 0.45 0.75 0.3 0.4q1.2 1.1 3.85 1.55l0.5 0.05h0.05l-0.05-0.05-0.15-0.2 0.7 0.25 2.35 0.2 0.55 0.05h0.5q1.65-0.95 3.55-1.75 3.35-1.5 7.55-2.65l2-0.5 0.2 0.2 2.05-0.5v-0.15l7.95-1 1.65-1.1 0.8-0.6 1.35-0.9q2.25-1.6 2.5-3.2l-0.05-1.1-0.15-0.5-0.35-0.6 2.2 2.55 0.15 0.2 0.25 0.4 0.2 0.4 0.8 1.8 0.3 1.05 0.1 0.5q0.2 1.25-0.5 4.15-0.6 2.55-1 3.1-1 1.5-3.4 3.1l-1.3 0.85-2.8 1.5 1.55 1.35v1.5l-5.9 2.35-6.2-0.75m9.8-16.05-0.55 0.3q-1.8 1.05-3.9 1.95l-1.2 0.45-2.5 0.9-2.8 0.85-0.35 0.1-3.45 0.85 0.05 0.35 4.75 0.15 4.35 0.7 3.15-1.25 1-0.45 3.8-2.05 3.45-2.35q2.25-1.7 2.65-3.45l-0.05-1.8-0.3-0.5m0.3 0.5-0.05-0.1m1.3 3.25 0.05 0.4v0.8l-0.1 1.35q-0.1 0.9-1.15 2.15l-0.05 0.1-1 0.9-1.55 1.15-1.75 1.15-3 1.65-2.8 1.3 2.45 2.25m-10.35-0.75 0.2-0.45-0.35-0.15-0.85 0.1-0.25 0.2q-0.15 0.2-0.15 0.5v0.25l0.8-0.35q0.35 0.65-0.1 1.4l0.5 0.25 0.9-0.1 0.3-0.5-0.55-0.2m0.1-2.4-0.35 1 0.55 0.45 0.35 0.9-0.1 0.25 0.7 0.3m2.3-5.7 1.25 0.3 2.65 2.45m-21.6-3h0.35l3-0.15 1.45-0.2 0.25-0.45 3.45-0.45 0.05 0.3m-15.45 2.4-0.15 0.55 0.15 0.65v0.65l-0.05 0.25v0.05l0.2-0.35q0.65-1.7 3.1-1.5h0.15q0.5 0.1 1.05 0.55l0.75 0.7 0.75 1.45 0.25 0.75q0.3 1.05 0.2 1.95l-0.05 0.45-0.7 1.05-0.95 0.85-0.05 0.05 0.15 0.05 0.8 0.15 2.75 0.3 4.1 0.05 0.6-0.05v-0.05q-1-2.2-1.6-5.05l-0.55-3.55v-0.05l0.05-0.4 0.25-0.45 0.5-0.8v-0.05m1.35 10.4 0.25 0.5q1.4 0.4 3.55 0l0.3 0.05 0.6-0.9 0.05-0.15-0.6 0.2v-0.05l-0.05-0.25-0.45-1.8-0.5 0.05-0.55-0.05h-0.35l-1.1-0.25q-0.65-0.35-0.45-1.65l1.05 0.15 0.9-0.05 0.6-0.1-0.95-4.4 0.05-1 0.15-0.3-0.05-0.55v-0.1m1.2 8.25 0.3-0.05 0.35-0.05 1.85-0.75 0.4-0.4 0.3-0.4m-0.7-1.05-0.15 0.05-2 0.55-0.15 0.05-0.6 0.15m2.65 3.95h-1.2m-1.25-3 0.2 0.95m2.65-3.45-0.45-0.6m-16.45-3.9 0.6 0.1-0.05-0.05m-3.7 2.2-0.15-0.6-0.25 0.35q-0.1 0.4-0.05 0.95l0.05 0.35 0.3-0.1m-0.35-2.8 0.3 1.25 0.15-0.05 0.4 0.4 0.15 0.3m0.05 1.6-0.35 0.4-0.45-0.4-0.2-0.6-0.5 0.2q0.55 1.7 1.55 3-0.25-1-0.15-1.85l0.15-0.75h-0.05m0.8-0.85-0.55 0.5m3.25 1.15-0.45-0.65m3.45-3.75-0.4 0.05-2.95-0.25m2.8 0.15 0.15 0.1m-0.25 2.25 0.3-1.7m-8.3-4.05-0.05 0.45v1.15q-0.05 2.85 0.7 5.05m6 4.05-0.2-1m-4.25-0.05 0.25 0.8q0.5 1.2 1.3 1.95l0.25 0.25q0.95 0.75 1.7 0.4l0.5-0.3 0.1-0.15 0.25-0.5 0.05-0.3m-2.85 0.6v0.1q1.5 1.5 3.15 0.5" fill="none" stroke="#000" stroke-linecap="round" stroke-linejoin="round" stroke-opacity=".30196"/>
<path d="m264.6 405.6h-0.05v-0.05l0.05 0.05" fill="#382510" fill-rule="evenodd"/>
<path d="m264.65 405.65-0.6-0.1 0.5 0.05h0.05l-0.05-0.05-0.15-0.2 0.7 0.25 2.35 0.2 0.55 0.05-0.4 0.05-2.95-0.25-0.05-0.05 0.05 0.05m2.95 0.25-0.15-0.1 0.15 0.1" fill="#9e653f" fill-rule="evenodd"/>
<path d="m294.65 392.95q2.25 2.8-1.1 4.85l-1.35-0.05h-1.55q-0.5-1.95 1.3-4.3l-7.5-0.1-14.4 3.8-3.75 2.75 3.05 2.95q-1.25 0.5-2.65 1.55-6.5 0.15-3.2-4.4l0.85-0.55 0.9-0.6q4.7-2.9 11.8-4.85 7.25-1.9 13.25-1.9l3.4 1.05 0.95-0.2m0.1-0.55-0.05 0.15-0.1-0.2 0.15 0.05" fill="#6b3703" fill-rule="evenodd"/>
<path d="m269.35 402.85-3.05-2.95 3.75-2.75 14.4-3.8 7.5 0.1q-1.8 2.35-1.3 4.3-5.8 0.15-12.7 1.95-4.85 1.3-8.6 3.15" fill="#bb6906" fill-rule="evenodd"/>
<path d="m298.1 393.7q-0.25 1.6-2.5 3.2l-1.35 0.9h-0.7q3.35-2.05 1.1-4.85l-0.05-0.6 0.1 0.2 0.05-0.15q2.3 0.35 3.35 1.3m-34.6 6.3q-3.3 4.55 3.2 4.4l-1.6 1.2-0.7-0.25 0.15 0.2v0.05l-0.5-0.05q-2.65-0.45-3.85-1.55 0.45-1.85 3.3-4" fill="#6c2206" fill-rule="evenodd"/>
<path d="m273.1 407.2 2.85 8.5-6 0.2-2.75-0.3-0.8-0.15-0.95-0.35-1.05-0.45-0.9-0.75-0.1-0.05q-4.2-3.05-4.1-9.85l2.7 2.5 5.75 1 5.35-0.3" fill="url(#d)" fill-rule="evenodd"/>
<path d="m287.35 401.75q3.3 4.35 10.15 4.15l2.55-0.25q-1 1.5-3.4 3.1l-1.3 0.85q-9.9 1.9-14.5-5.65l2.8-0.85 2.5-0.9 1.2-0.45" fill="url(#c)" fill-rule="evenodd"/>
<path d="m298.05 392.6-0.15-0.5-0.35-0.6q3.45 3.35 4 6.9-0.2 3.95-4.05 7.5-6.85 0.2-10.15-4.15 2.1-0.9 3.9-1.95l0.55-0.3 1.65-1.1 0.8-0.6 1.35-0.9q2.25-1.6 2.5-3.2l-0.05-1.1" fill="url(#b)" fill-rule="evenodd"/>
<path d="m297.5 405.9q3.85-3.55 4.05-7.5 0.2 1.25-0.5 4.15-0.6 2.55-1 3.1l-2.55 0.25" fill="#5a6e76" fill-rule="evenodd"/>
<path d="m259.9 403.6 1.85-3.2 1.4-0.8 0.05-0.05 8.35-4.8 1.7 0.2 3.05-1.5 11.5-2.35 6.25 0.4 4 1.1 0.05 1.1q-1.05-0.95-3.35-1.3l-0.15-0.05 0.05 0.6-0.95 0.2-3.4-1.05q-6 0-13.25 1.9-7.1 1.95-11.8 4.85l-0.9 0.6-0.85 0.55q-2.85 2.15-3.3 4l-0.3-0.4m34.35-5.8-0.8 0.6-1.65 1.1-7.95 1v0.15l-2.05 0.5-0.2-0.2-2 0.5q-4.2 1.15-7.55 2.65-1.9 0.8-3.55 1.75h-0.5l-0.55-0.05-2.35-0.2 1.6-1.2q1.4-1.05 2.65-1.55 3.75-1.85 8.6-3.15 6.9-1.8 12.7-1.95h1.55l1.35 0.05h0.7m-21.7 7.8q3.7-0.4 7.95-1.55l0.35-0.1q4.6 7.55 14.5 5.65-4.6 2.75-11.45 4.55-4.2 1.15-7.95 1.55l-2.85-8.5-0.55-1.6" fill="#2e393d" fill-rule="evenodd"/>
<path d="m259.45 402.85 0.45 0.75 0.3 0.4q1.2 1.1 3.85 1.55l0.6 0.1 2.95 0.25 0.4-0.05h0.85l3.7-0.25 0.55 1.6-5.35 0.3-5.75-1-2.7-2.5v-1.15h0.15" fill="#9dc6b6" fill-rule="evenodd"/>
<path d="m274.55 391.95 0.9 0.85-2.05 1.1-1.4-0.4-4.85 2.1-4.65 3.2-0.85-0.5 1.8-1.4q4.4-2.95 11.1-4.95" fill="#78929c" fill-rule="evenodd"/>
<path d="m297.55 391.5 0.35 0.6 0.15 0.5-4-1.1-6.25-0.4-11.5 2.35-3.05 1.5-1.7-0.2-8.35 4.8-0.05 0.05-1.4 0.8-1.85 3.2-0.45-0.75-0.1-0.45v-0.1q-0.25-1.8 2.3-4l0.85 0.5 4.65-3.2 4.85-2.1 1.4 0.4 2.05-1.1-0.9-0.85 1.65-0.45q5.8-1.55 10.85-1.9l2.05-0.1h1.3q5.6 0.1 7.15 2" fill="#3c4a4f" fill-rule="evenodd"/>
<path d="m298.05 392.6-0.15-0.5-0.35-0.6q-1.55-1.9-7.15-2h-1.3l-2.05 0.1q-5.05 0.35-10.85 1.9l-1.65 0.45q-6.7 2-11.1 4.95l-1.8 1.4q-2.55 2.2-2.3 4v0.1l0.1 0.45 0.45 0.75m38.15-11 0.05 1.1q-0.25 1.6-2.5 3.2l-1.35 0.9-0.8 0.6-1.65 1.1-0.55 0.3q-1.8 1.05-3.9 1.95m14.2-3.35q-0.55-3.55-4-6.9m-16.7 12.45 2.8-0.85 2.5-0.9 1.2-0.45m4.45-2.25-7.95 1v0.15l-2.05 0.5-0.2-0.2-2 0.5q-4.2 1.15-7.55 2.65-1.9 0.8-3.55 1.75h0.35l3.7-0.25q3.7-0.4 7.95-1.55l0.35-0.1m14.5 5.65 1.3-0.85q2.4-1.6 3.4-3.1 0.4-0.55 1-3.1 0.7-2.9 0.5-4.15m-25.6 17.3q3.75-0.4 7.95-1.55 6.85-1.8 11.45-4.55m-36.05-5.6q-0.1 6.8 4.1 9.85l0.1 0.05 0.9 0.75 1.05 0.45 0.95 0.35 0.8 0.15 2.75 0.3 6-0.2m-11.9-10.15 0.6 0.1-0.05-0.05h-0.05l-0.5-0.05q-2.65-0.45-3.85-1.55l-0.3-0.4m4.65 1.95 0.05 0.05m-0.05-0.05-0.15-0.2 0.7 0.25m2.9 0.25-0.4 0.05-2.95-0.25m3.85 0.2h-0.5l-0.55-0.05 0.15 0.1m-0.15-0.1-2.35-0.2m-5.75-3.2-0.05 0.45v1.15" fill="none" stroke="#382510" stroke-linecap="round" stroke-linejoin="round" stroke-opacity=".30196" stroke-width=".7"/>
<path d="m300.25 396.55q0.2-0.95-0.1-1.9 1.3 2.4 1.35 3.65l-0.1 2.15q-0.1 0.9-1.15 2.15l0.2-2.4-0.2-3.65" fill="#e6b100" fill-rule="evenodd"/>
<path d="m300.25 402.6-1.05 1-1.55 1.15q-1.65-0.25-2.55-0.95-0.75-0.55-0.95-1.45l3.45-2.35q2.25-1.7 2.65-3.45l0.2 3.65-0.2 2.4" fill="#cd9f07" fill-rule="evenodd"/>
<path d="m297.65 404.75q-2.3 1.55-4.75 2.8-0.05-1.1-0.75-1.7-0.9-0.8-2.8-1 2.45-1.1 4.8-2.5 0.2 0.9 0.95 1.45 0.9 0.7 2.55 0.95" fill="#fc0" fill-rule="evenodd"/>
<path d="m292.9 407.55q-3.1 1.55-6.4 2.6l-1.65-3.6q2.3-0.75 4.5-1.7 1.9 0.2 2.8 1 0.7 0.6 0.75 1.7" fill="#bb6906" fill-rule="evenodd"/>
<path d="m300.15 394.65-0.35-0.7m0.45 2.6q0.2-0.95-0.1-1.9 1.3 2.4 1.35 3.65l-0.1 2.15q-0.1 0.9-1.15 2.15l-1.05 1-1.55 1.15q-2.3 1.55-4.75 2.8-3.1 1.55-6.4 2.6l-1.65-3.6q2.3-0.75 4.5-1.7 2.45-1.1 4.8-2.5l3.45-2.35q2.25-1.7 2.65-3.45" fill="none" stroke="#000" stroke-linecap="round" stroke-linejoin="round" stroke-opacity=".15294" stroke-width=".4"/>
<path d="m276.45 405.25q6.05-0.2 11 1.15l5.1 4.7q-9.55-5.3-16.1-5.85" fill="#9dc6b6" fill-rule="evenodd"/>
<path d="m292.55 411.1 1.55 1.35v1.5l-5.9 2.35q-6.3-1.35-14.15-0.35-3-2.4-2.2-10.3l4.6-0.4q6.55 0.55 16.1 5.85" fill="#78929c" fill-rule="evenodd"/>
<path d="m292.55 411.1 1.55 1.35v1.5l-5.9 2.35q-6.3-1.35-14.15-0.35m-2.2-10.3 4.6-0.4q6.05-0.2 11 1.15l5.1 4.7z" fill="none" stroke="#382510" stroke-linecap="round" stroke-linejoin="round" stroke-opacity=".30196"/>
<path d="m282.4 409.9-0.35-0.15-0.85 0.1-0.25 0.2q-0.15 0.2-0.15 0.5-0.05 0.45 0.25 0.85l0.25-0.2-0.25 0.2 0.1 0.1 0.85 0.6 0.9-0.1 0.3-0.5 0.1-0.25-0.35-0.9-0.55-0.45-0.2 0.45 0.2-0.45m0.25 1.4 0.55 0.2-0.55-0.2" fill="#2e1d0e" fill-rule="evenodd"/>
<path d="m282.4 409.9-0.35-0.15-0.85 0.1-0.25 0.2-0.45-0.6m0.45 0.6q-0.15 0.2-0.15 0.5-0.05 0.45 0.25 0.85l-0.45 0.3m1.8-1.8 0.35-1m-0.55 1.45 0.2-0.45 0.55 0.45 0.35 0.9-0.1 0.25-0.55-0.2m0.55 0.2 0.7 0.3m-2.6-0.6-0.25 0.2 0.1 0.1 0.85 0.6 0.9-0.1 0.3-0.5" fill="none" stroke="#382510" stroke-linecap="round" stroke-linejoin="round" stroke-opacity=".30196"/>
<path d="m265.45 411.8q-0.45-0.85-0.45-1.8 0-0.65 0.15-1.1l0.4-0.4q0.45-0.55 1.2-0.2l0.5 0.3-0.25 0.95 0.25-0.95q0.45 0.2 0.85 0.95 0.55 0.95 0.6 1.95l-0.1 0.5-0.4 1.1q-0.55 0.5-1.3 0.2-0.7-0.3-1.25-1.3l-0.2-0.2 0.35-0.4-0.35 0.4m2.3-0.2 0.85 0.4-0.85-0.4" fill="#2e1d0e" fill-rule="evenodd"/>
<path d="m267.25 408.6 0.4-2.15m-0.4 2.15-0.5-0.3q-0.75-0.35-1.2 0.2l-0.4 0.4q-0.15 0.45-0.15 1.1 0 0.95 0.45 1.8l0.35-0.4m1.2-1.85 0.25-0.95q0.45 0.2 0.85 0.95 0.55 0.95 0.6 1.95l-0.1 0.5 1 0.65m-4.45-3.75-0.7-1.25m1 4.15 0.2 0.2q0.55 1 1.25 1.3 0.75 0.3 1.3-0.2l0.4-1.1-0.85-0.4m-2.3 0.2-0.6 0.65" fill="none" stroke="#382510" stroke-linecap="round" stroke-linejoin="round" stroke-opacity=".30196" stroke-width=".6"/>
<path d="m260.75 407.2 0.15-0.05 0.4 0.4 0.15 0.3 0.15 0.65-0.05 0.9-0.15-0.3 0.15 0.3-0.05 0.05-0.35 0.4-0.45-0.4-0.2-0.6-0.05-0.35q-0.05-0.55 0.05-0.95l0.25-0.35 0.15 0.6-0.15-0.6m0.05 1.55-0.3 0.1 0.3-0.1" fill="#2e1d0e" fill-rule="evenodd"/>
<path d="m260.75 407.2 0.15-0.05 0.4 0.4 0.15 0.3 0.15-0.55m-0.15 0.55 0.15 0.65-0.05 0.9 0.25 0.5m-1.05-2.7-0.3-1.25m0.45 1.85-0.15-0.6-0.25 0.35q-0.1 0.4-0.05 0.95l0.05 0.35 0.3-0.1m-0.3 0.1-0.3 0.1m1.2 0.15 0.15 0.3-0.05 0.05-0.35 0.4-0.45-0.4-0.2-0.6" fill="none" stroke="#382510" stroke-linecap="round" stroke-linejoin="round" stroke-opacity=".30196"/>
<path d="m269.45 414.75q-1 1-2.35 0.8-1.4-0.2-2.4-1.4-0.95-1.25-0.95-2.8 0-1.5 0.95-2.45 1-1 2.4-0.8 1.35 0.2 2.35 1.4 0.95 1.25 0.95 2.75 0 1.55-0.95 2.5" fill="#382510" fill-opacity=".33333" fill-rule="evenodd"/>
<path d="m267.95 413.45q-1.55 1.45-2.2 0.95l-0.2-1.4q1.7-0.7 2.25-1.95 0.3 1.05 0.2 1.95l-0.05 0.45" fill="#bb6906" fill-rule="evenodd"/>
<path d="m267.95 413.45-0.7 1.05q-2.15 2.35-4.15 0.4l-1.55-5.2q0.45-2.35 3.3-2.1-2 0.35-2.25 1.05l0.95 1.4q1.2-1.5 3.25-1.2l0.75 1.45 0.25 0.75q-0.55 1.25-2.25 1.95l0.2 1.4q0.65 0.5 2.2-0.95" fill="#db8402" fill-rule="evenodd"/>
<path d="m266.8 408.85q-2.05-0.3-3.25 1.2l-0.95-1.4q0.25-0.7 2.25-1.05h0.15q0.5 0.1 1.05 0.55l0.75 0.7" fill="#eab131" fill-rule="evenodd"/>
<path d="m264.85 407.6q-2.85-0.25-3.3 2.1l1.55 5.2q2 1.95 4.15-0.4l0.7-1.05 0.05-0.45q0.1-0.9-0.2-1.95l-0.25-0.75-0.75-1.45m-1.95-1.25h0.15q0.5 0.1 1.05 0.55l0.75 0.7" fill="none" stroke="#382510" stroke-linecap="round" stroke-linejoin="round" stroke-opacity=".30196" stroke-width=".5"/>
<path d="m264.5 409.5-2.05-0.95q0.7-0.15 1.5 0.5l0.55 0.45" fill="#ffff2f" fill-rule="evenodd"/>
<path d="m262.3 408.6 0.15-0.05 2.05 0.95 0.05 0.1 0.45 0.65 0.5 1 0.3 0.85 0.2 1-0.05 0.8v0.3q-0.2 1-0.9 1.25-0.75 0.35-1.7-0.4-0.95-0.8-1.55-2.2-0.55-1.45-0.4-2.65 0.1-1.25 0.9-1.6" fill="#e6b100" fill-rule="evenodd"/>
<path d="m262.3 408.6q-0.8 0.35-0.9 1.6-0.15 1.2 0.4 2.65 0.6 1.4 1.55 2.2 0.95 0.75 1.7 0.4 0.7-0.25 0.9-1.25m0.05-1.1-0.2-1m-0.8-1.85-0.45-0.65" fill="none" stroke="#382510" stroke-linecap="round" stroke-linejoin="round" stroke-opacity=".30196" stroke-width=".5"/>
<path d="m279.4 415.4-0.6 0.2-1.85-8.4 0.05-1 0.15-0.3 2.25 9.5" fill-opacity=".30196" fill-rule="evenodd"/>
<path d="m276.7 405.85-0.25 2.05q-1.95-0.8-3.95-0.7l0.05-0.4q1.6 0 4.15-0.95" fill="#e9e938" fill-rule="evenodd"/>
<path d="m277 404.6-0.3 1.25q-2.55 0.95-4.15 0.95l1-1.75 3.45-0.45" fill="#eab131" fill-rule="evenodd"/>
<path d="m276.45 407.9 1.1 4.85v0.05l-1.55 1.5q-1.6-1.55-2.95-3.5l-0.55-3.6q2-0.1 3.95 0.7" fill="#f49302" fill-rule="evenodd"/>
<path d="m277.55 412.8 1.2 3.65-0.3-0.05q-2.15 0.4-3.55 0-1.15-2.35-1.85-5.6 1.35 1.95 2.95 3.5l1.55-1.5" fill="#db8402" fill-rule="evenodd"/>
<path d="m277 404.6 0.1 0.75 0.05 0.55-0.15 0.3-0.05 1 1.85 8.4 0.6-0.2-0.65 1.05-1.2-3.65v-0.05l-1.1-4.85 0.25-2.05 0.3-1.25" fill="#8a6923" fill-rule="evenodd"/>
<path d="m277.15 405.9-0.05-0.55q4.3 5 4.9 10.35l-2.6-0.3-2.25-9.5" fill="#382510" fill-opacity=".33333" fill-rule="evenodd"/>
<path d="m277.1 405.35-0.1-0.75m1.75 11.85 0.65-1.05-0.6 0.2-1.85-8.4 0.05-1 0.15-0.3-0.05-0.55m-4.05 5.45-0.55-3.6 0.05-0.4 1-1.75 3.45-0.45m1.75 11.85-0.3-0.05q-2.15 0.4-3.55 0-1.15-2.35-1.85-5.6" fill="none" stroke="#382510" stroke-linecap="round" stroke-linejoin="round" stroke-opacity=".30196"/>
<path d="m278.6 413.45q1.15-0.15 2.2-0.8 1.35-1.25 0.8-2.2l-2.95 0.95q-1.2 1.8-0.05 2.05" fill="#8a6923" fill-rule="evenodd"/>
<path d="m278.65 411.4-2.25 0.35-1.05-0.15q-0.2 1.3 0.45 1.65l1.45 0.25 1.35-0.05q-1.15-0.25 0.05-2.05" fill="#f49302" fill-rule="evenodd"/>
<path d="m278.65 411.4-2.25 0.35-1.05-0.15q-0.2 1.3 0.45 1.65l1.45 0.25 1.35-0.05q1.15-0.15 2.2-0.8 1.35-1.25 0.8-2.2z" fill="none" stroke="#382510" stroke-linecap="round" stroke-linejoin="round" stroke-opacity=".4" stroke-width=".5"/>
</g>
<linearGradient id="d" x1="-819.2" x2="819.2" gradientTransform="matrix(-.011 -.0016 9e-4 -.0063 267.55 410.4)" gradientUnits="userSpaceOnUse">
<stop stop-color="#78929c" offset=".16078"/>
<stop stop-color="#3c4a4f" offset=".97255"/>
</linearGradient>
<linearGradient id="c" x1="-819.2" x2="819.2" gradientTransform="matrix(-.0107 .0029 -.0016 -.0061 290.65 405.5)" gradientUnits="userSpaceOnUse">
<stop stop-color="#3c4a4f" offset=".16078"/>
<stop stop-color="#2e393d" offset=".97255"/>
</linearGradient>
<linearGradient id="b" x1="-819.2" x2="819.2" gradientTransform="matrix(.0022 .0082 -.0087 .0023 294.3 399.55)" gradientUnits="userSpaceOnUse">
<stop stop-color="#78929c" offset=".16078"/>
<stop stop-color="#3c4a4f" offset=".43922"/>
</linearGradient>
</defs>
</svg>
