<?xml version="1.0" encoding="UTF-8"?>
<svg version="1.1" viewBox="0 0 71.9 83.05" xmlns="http://www.w3.org/2000/svg" xmlns:cc="http://creativecommons.org/ns#" xmlns:dc="http://purl.org/dc/elements/1.1/" xmlns:rdf="http://www.w3.org/1999/02/22-rdf-syntax-ns#" xmlns:xlink="http://www.w3.org/1999/xlink">
<metadata>
<rdf:RDF>
<cc:Work rdf:about="">
<dc:format>image/svg+xml</dc:format>
<dc:type rdf:resource="http://purl.org/dc/dcmitype/StillImage"/>
</cc:Work>
</rdf:RDF>
</metadata>
<g transform="translate(-239.08 -158.42)">
<use transform="translate(239.1,158.45)" width="71.849998" height="83" xlink:href="#a"/>
</g>
<defs>
<g id="a" transform="translate(35.9,41.5)">
<use transform="translate(-35.9,-41.5)" width="71.849998" height="83" xlink:href="#b"/>
</g>
<g id="b" transform="translate(35.9,41.5)">
<path d="m-5.05-39.9 0.6-0.1 6.25 3 1.7 0.55-2.7 1.25-5.85 0.95v-5.65m17.2 3.8 10.6 3.75-0.9 1.35-7.05 3.55-3.2-4.3 0.55-4.35" fill="#794724" fill-rule="evenodd"/>
<path d="m-5.05-34.25 5.85-0.95 2.7-1.25-1.7-0.55-6.25-3-0.6 0.1-9.65 2.1v0.75l5.25 3.45 4.4-0.65m-7.75 8.65-3.25-2.2 1.6-5.15-3-5.45 13.55-2.75 9.6 4.55-0.65 1.25 8.1-3 13.8 3.95-0.2 0.45-4.4 5-9.3 3.3-4.65-0.85 7.7 3.25-0.75 3.35-5.15 1.6-1.25-0.55-1.2-0.55-1.35-0.6-0.25-0.1-0.2-0.15v0.05l-0.05-0.05-0.9-0.4-1.75-0.8-1.2-0.55-0.65-0.3-0.15-0.05-1.25-0.55 0.65-1.15 1.05-1.95 0.45-0.85-5.15-5.5 6.35-2.35-13.3 2.75 5.55 3.2-2.3 3.55-4.25 0.85-0.3-0.2v-0.05l-0.3-0.2h-0.05l-1.2-0.8m32.6 9.65 2.95 1-0.15 0.4-0.4 1.25h-0.05l0.45-1.25-0.45 1.25-0.4 0.2-6.95 4.75h4.25l-2.9 4.35-0.95-1.7-0.15 0.15-1.75 1.65-0.05-0.05-2.05-1.35-0.1-0.1-1.8 2.55-6.15-4.7 1.25-3.15-1.7-3 1.95-0.7 1.3-0.45 0.2 1.1-1.4 1.2 1.7 0.6 0.9 0.35 0.2 0.05 1.85 0.7 0.6 0.2h0.05l1.9 0.7 0.25 0.1 1.35 0.5 0.2 0.05h0.05l0.3 0.15 2.1-1.4 0.95-0.65 0.6-0.35 0.1-0.1 1.15-0.75 0.35-0.25 1.65-1.05-1.4-0.65 0.2-1.6m9.6 28.4 0.5 0.8-5.8-3.4-3.05 2.95 8.9 2.15 3.05 2.7-9.35-2.9-15.25 2.2-0.25 0.05h-0.05l-0.5 0.4-0.65 0.45-2.65 1.9-0.15 0.15-2.5 1.8-0.05 0.2-0.55 0.2-1.65 0.55-0.15-0.1-0.15-0.05-0.15-0.1 1.4-1.85 6.25-4.35 7.45-3.4-16.65 6.5 2.95-2.6 13.4-5.35 7.65-1.2-11.35 0.5-11.1 3.9 3.1-2.6 4.05-3.35 0.1-0.1 12.6-1 1.3-0.1 1.55-0.1 1.8-0.15h0.05l0.3-0.05 1.15-0.05 0.75-0.05 3.7 5.45m-58.85-6.75 0.85-3.75 5.1-1 7.4 1.55-5.45-2.15-1.95-0.3v-1.15l2.5 1.05 12.75 3.1 0.15 0.2-2.7 0.85-2.6-0.35 7.1 3.95-2.1 5.55-0.45 0.2 0.5-6.05v-0.1l-5.95-2.45 4.25 3.8 0.35 5.15-0.6 0.25-2.2-6.35-6.1-4.1 3.35 3 0.5 1.25-3.55-2.6-2.5-0.8-0.3-0.1-2.65-1.2-3.65 1.2-2.05 1.35m15.05-17.05 0.5-2.4-2.05-2.45 4.1-1.35 0.1 0.85-0.95 0.4-0.5 0.2h-0.4l2.1 1.45 0.8 0.55 0.3 0.2 1.85 1.25 0.35 0.2 0.4 0.3 0.6-0.2 0.35-0.15 1.15-0.4 0.2-0.05 0.4-0.15 1.5-0.5 1.4-0.5 1.9-0.65 0.6-0.2h0.1l0.8-0.3 0.95-0.3 2.25-0.8-2-0.55 0.1-0.65 3.15 0.95 0.1 0.45-0.2 0.3-15 4.9 1.35 0.6-1.2 1.5-1.2-1.6h-1.05l-0.7 0.75-0.2 0.2-0.1-0.1-1.85-1.75m19.45-24-1.7 0.65 1.7-0.65m9.75 7.9 7.05-3.55 0.9-1.35-10.6-3.75-0.2-0.1-9.95 3.75 1.95 2.05 9.35 3.65 1.5-0.7m-9.05 11.3-0.2 0.3 0.2-0.3m19.9 24.9-2.1-0.85-9.75 1.3 11.85-0.45m-24.6 13.35 0.6-0.4-0.6 0.4" fill="#efb876" fill-rule="evenodd"/>
<path d="m26.75-33.95-2.9 5.95 1.7 2.7-5 3.9-0.15 0.15-1.6 1.25-1.75 1.35h-0.05l-1.45 1.2h-3.5l-0.3-0.15-1.55-0.7 5.15-1.6 0.75-3.35-7.7-3.25 4.65 0.85 9.3-3.3 4.4-5m-4.55 20.65-0.4 1.1 2.9 5.6-7.3 4.85-1.25-2.25 2.9-4.35h-4.25l6.95-4.75 0.4-0.2h0.05m7.7 26.55 1.15 1.7h-1.1l-8.9-2.15 3.05-2.95 5.8 3.4m3.1 4.4 0.25 0.2-2.85 3.7-1.05-2.7-3.8-2.95-0.7 0.05-16.45 1 15.25-2.2 9.35 2.9m-31.65 6.1-0.2-0.2-1.75-0.9 1.65-0.55 0.55-0.2-0.25 1.8v0.05m-1-3.2-3.3-1 0.1-0.05 0.25-0.2 16.65-6.5-7.45 3.4-6.25 4.35m0-3.85-1.35-1.3-0.5-0.45 0.25-0.2 0.2-0.2 11.1-3.9 11.35-0.5-7.65 1.2-13.4 5.35m-23.85-15.75v-0.9l1.95 0.3 5.45 2.15-7.4-1.55m12.55-25.3 4.25-0.85 2.3-3.55-5.55-3.2 13.3-2.75-6.35 2.35 5.15 5.5-0.45 0.85-2.6 0.75-0.75 0.2-3.55 1-1.75 0.5-0.45 0.15h-2.15l-0.55-0.4-0.2-0.15-0.65-0.4m30.55 10 1.4 0.65-1.65 1.05 0.25-1.7m2.2 2.15 0.35-1.1-0.35 1.1m-19.65-3.35 0.25-1.35 2 0.55-2.25 0.8m3.4-0.3-0.5 0.8 0.5-0.8-0.5 0.8-0.4 0.65-1.95 0.7 1.7 3-3.05-1.65-0.2 0.15-1.25 0.65-4.1 2.3-0.15 0.1-1.55-1.15-0.3-0.25h-1.7l-0.2 0.2-1.35-0.6 15-4.9m0.6 2.1 0.3 1.8-1.7-0.6 1.4-1.2m-12.05 19.6 1.4 1.7v4.1l-3.9 1.6 2.1-5.55-7.1-3.95 2.6 0.35 2.7-0.85 0.15 0.15 1.65 1.95 0.4 0.5m31.55 2.9-11.85 0.45 9.75-1.3 2.1 0.85m-37.15-23.4-2.1-1.45h0.4l0.5-0.2 0.95-0.4 0.25 2.05m-9.15 20.25h0.05l-0.05-0.05-1.2-0.3 0.05 0.05-0.65-0.2-3-0.75h-1.95l3.65-1.2 2.65 1.2 0.3 0.1 2.5 0.8 3.55 2.6-0.5-1.25-3.35-3 6.1 4.1 2.2 6.35-3.5 1.45v-1.6l-1.1-3.6-0.3-0.95-0.05-0.05-1.25-1.5-0.5-0.55-0.45-0.55-0.05-0.05-0.3-0.35-0.3-0.05-0.25-0.1-0.75-0.2v0.05l-0.45-0.15h0.05l-0.4-0.1v0.05l-0.75-0.2m10.6 3.05-4.25-3.8 5.95 2.45v0.1l-0.5 6.05-0.85 0.35-0.35-5.15m40.85 11.3-1.45-1.1 1.45 1.1m-29.45 3.75h-0.05 0.05" fill="#c57134" fill-rule="evenodd"/>
<path d="m-5.05-39.9v5.65l-4.4 0.65-5.25-3.45v-0.75l9.65-2.1m17.2 3.8-0.55 4.35 3.2 4.3-1.5 0.7-9.35-3.65-1.95-2.05 9.95-3.75 0.2 0.1m-0.7 5.4 0.15-1.05-0.15 1.05" fill="#442515" fill-rule="evenodd"/>
<path d="m20.55-21.35-0.05 0.2v0.05l-0.35 2.55-0.35 2.6-0.05-0.05-0.25 1.65h0.1-0.1l0.25-1.65 0.05 0.05-0.2 1.6-0.25 1.7-0.35 0.25q0.1-3.05 0.55-6.15l0.25-1.2-1 0.55-0.85 6.45-0.2 1.2-0.6 0.35 0.1-0.95v-0.1l0.1-0.2 0.4-2.75v-0.1l0.1-0.2 0.55-3.45-0.95 0.65-0.45 0.4 0.05-0.65-0.05 0.65-0.15 0.1-0.05 1.55-0.3 4.25v0.1l-0.05 1.15-0.25 0.15-0.25 0.2 0.05-1.45v-0.2l0.1-0.2 0.35-5.2-0.35 0.2-1.45-0.1 0.05-0.1h0.85l0.05-0.05 0.9-0.6v-0.05l0.1-0.1 0.1-0.05 0.35-0.25-0.05-0.1h0.05l1.75-1.35 1.6-1.25 0.05-0.05 0.1-0.05m-3.5 2.8v-0.1 0.1m1.75-1.45-0.85 7.25 0.85-7.25m0.95 4 0.4-2.55-0.4 2.55m-18.5-6.35 0.15 0.05-0.85 6.4-0.15 0.95h-0.1l-0.6 0.2 0.8-6.35 0.2-1.5 0.55 0.25-0.95 7.4 0.95-7.4m0.8 0.35 1.2 0.55-0.75 3.9-0.1 0.65-0.25 1.35-0.95 0.3q0.2-3.2 0.75-6.4l0.1-0.35m-2.95-3.25 2.6-0.75-1.05 1.95-1.55-1.2m1.1 28.35v2.75l0.05 0.05 1.65 1.3 1.4-0.6-0.55 2.4-0.15 0.05-0.9 0.35-3.7 1.35-0.2-0.3-0.05-0.15q-0.2 0.25-0.5 0.25h-0.25l-0.2-0.2-0.05-0.2q1.65-2.7 2-5.7 0.1-0.8-0.25-1.55l-0.95-1.55-3.45-1.15 0.65-0.4v-1.35l2.1 1.3 2.2 2 0.75 0.7-0.75-0.7 0.75 0.7 0.25 0.4 0.15 0.25m21.45 4.2-3-3.35-0.05-0.1-0.15-0.2-0.2-0.15q-2 1.25-4.15 1.1l0.65-0.5-0.65 0.5 0.65-0.5 0.7-0.5 0.25-0.1 0.15-0.2 0.3-0.25v-0.6l0.1-0.4 8.15 3.55 0.55 1.45-1.15 0.05-0.3 0.05-0.15-0.25-0.15-0.2 0.25 0.45-1.8 0.15m-5.45-17.9 0.6-5.65-0.6 5.65m3.15-2.05 0.15-1.7-0.15 1.7m-34.25 22.95 1.1 3.6v1.6l-1.85 0.75-0.1 0.05q0.45-2.65 0.35-5.35v-0.45l0.5-0.2m-8.05 3.45 0.1 0.1 1 4.5 0.1 0.4-1.05-0.1q-0.55-1.8-0.7-3.75v-0.05l-0.35-0.4-0.05-0.1 0.05-0.2 0.9-0.4m-9.2 3.8 1.1-3.85 0.1-0.2 0.1-0.05 0.15-0.05 0.4 0.3 0.05 0.05-0.95 3.9-0.95-0.1m55.85 6.55 0.15-0.1q1.6 0.6 2.9 1.6l0.25 1.2-0.25-1.2h0.05l0.2 1.2-0.2 0.15q-1.4-1.55-3.35-2.35l-0.05-0.1v-0.1l0.3-0.25v-0.05m-2.45 2.15 0.05 0.05 0.1 0.05-0.2 3.85-0.55 0.35-0.45 0.25 0.25-4.1h0.3l0.5-0.45m-9.1 0.75q0.05 1.35-0.55 2.65v0.05l-4.65-1.9v-8.65l0.15 0.15 0.1 0.2 0.85 3.45 0.55 2.15 3.55 1.9" fill="#23215f" fill-rule="evenodd"/>
<path d="m20.55-21.4v0.05l-0.1 0.05-0.05 0.05 0.15-0.15m-56.1 35.45v-1l0.85-2.95 2.4 1.8 2.3 1.65 5.55 0.85 0.6-0.25-0.05 0.2 0.05 0.1 0.35 0.4v0.05q0.15 1.95 0.7 3.75l-8.4-1 0.95-3.9-0.05-0.05-0.4-0.3-0.15 0.05-0.1 0.05-0.1 0.2-1.1 3.85-0.8-0.1-2.6-3.4m47.4-31.6 0.2 0.1h0.8l-0.65 7.6-0.25-0.1-0.1-7.6m1.95 0.1h0.95-0.05l-0.05 0.1 1.45 0.1 0.35-0.2-0.35 5.2-0.1 0.2v0.2l-0.05 1.45 0.25-0.2 0.25-0.15 0.05-1.15v-0.1l0.3-4.25 0.05-1.55 0.15-0.1-0.2 1.65 0.2-1.65 0.45-0.4 0.95-0.65-0.55 3.45-0.1 0.2v0.1l-0.4 2.75-0.1 0.2v0.1l-0.1 0.95-0.95 0.65v-0.05 0.05l-2.1 1.4-0.3-0.15v-8.15m1.75 0 1.45-1.2 0.05 0.1-0.35 0.25-0.1 0.05-0.1 0.1v0.05l-0.9 0.6-0.05 0.05m2.2 5.9 0.2-1.2 0.85-6.45 1-0.55-0.25 1.2q-0.45 3.1-0.55 6.15l-1.15 0.75-0.1 0.1m0.1-0.1 0.1-1.1-0.1 1.1m-17.2-12.4-0.65 1.15 1.25 0.55-0.55-0.25-0.2 1.5-0.8 6.35-1.9 0.65-1.4 0.5 0.2-8.45-1.4-0.6-0.4-0.15v-1.25 1.25l-0.05 0.4v0.1l-0.25 9.35-0.2 0.05-0.4-10.3-0.85-0.35 1.75-0.5 3.55-1 0.75-0.2 1.55 1.2m0.75 1.75 0.65 0.3-0.1 0.35q-0.55 3.2-0.75 6.4l-0.8 0.3 0.15-0.95 0.85-6.4m6.35 2.9 1.2 0.55 0.05 0.4v0.05l1 7.75-0.6-0.2-1.65-8.55m-9.4-5.65-0.55 10.95 0.55-10.95m-7.35 1.65 0.8 10.95-0.35-0.2-1.55-11.15 0.55 0.4h0.55m21.05 26.25 0.05 0.3 0.2 0.7 1.65 0.9 0.15-0.15q2.15 0.15 4.15-1.1l0.2 0.15 0.15 0.2 0.05 0.1 3 3.35-1.55 0.1-0.9-1.8-1.25-0.65-0.4-0.2-4.1 1.3-2.6-1.45-2.95 0.05 1.8-0.8 2.35-1m-11.85 0.15v0.1l-0.15-0.25-0.25-0.4 0.4 0.35v0.2m-6.1-2.8 3.45 1.15 0.95 1.55q0.35 0.75 0.25 1.55-0.35 3-2 5.7l0.05 0.2 0.2 0.2h0.25q0.3 0 0.5-0.25l0.05 0.15 0.2 0.3-2.5 0.9v-4.1l-1.4-1.7 1.75-1 0.2-0.9 0.15-0.8-3.8-1.9 1.7-1.05m22.05 2.25v-0.45l0.1 0.05-0.1 0.4m-0.7 1.15 0.4-0.3-0.15 0.2-0.25 0.1m8 3.55-0.25-0.45 0.15 0.2 0.15 0.25h-0.05m-36.9-8.05 0.35 1.15 2.95-0.1 0.5 0.6-2.75 0.6-2.45-1.45 1.4-0.8m-8.35 6.2-0.05-0.05 1.2 0.3 0.05 0.05h-0.05l0.75 0.2v-0.05l0.4 0.1h-0.05l0.45 0.15v-0.05l0.75 0.2 0.25 0.1 0.3 0.05 0.3 0.35 0.05 0.05 0.45 0.55 0.5 0.55 1.25 1.5-1.3 0.5-0.05-0.05-0.65-1.5q-3.65-1.55-7.45-2.85l-1.45-1.05h0.7l3 0.75 0.85 0.35-0.2-0.15 1.15 0.3-1.15-0.3m1.9 0.5 0.35 0.05-0.35-0.05m0.8 0.2 0.75 0.15-0.75-0.15m-1.65-0.4-0.25 0.1 0.25 0.1v-0.2m3.3 1.1 0.45 0.55-0.45-0.55m2.05 3.8v0.45q0.1 2.7-0.35 5.35l-5.95 2.45h-0.05l-0.1-0.4-1-4.5-0.1-0.1 7.55-3.25m40.25 5.45 0.25 1.15 1.65 8.5q-1.3-1-2.9-1.6l-0.15 0.1v-6.7h-16.1l0.5-0.4h0.05l0.25-0.05 16.45-1m-3.65 14.25 0.2-3.85-0.1-0.05-0.05-0.05 2.45-2.1-0.3 0.25v0.1l0.05 0.1q1.95 0.8 3.35 2.35l-5.6 3.25m-0.75-3.5-0.25 4.1 0.45-0.25-2.8 1.65h-0.05l-6.2-2.5v-0.05q0.6-1.3 0.55-2.65l0.1 0.05 8.2-0.35m-13.5-8.15 0.25 0.95-0.1-0.2-0.15-0.15v-0.6" fill="#3a308b" fill-rule="evenodd"/>
<path d="m-11.85-17.55-0.95-8.05 1.2 0.8-0.05 0.1-0.05 0.25q0.65 3.6 0.75 7.35l0.05 1.15v0.7l0.15 0.95 0.05 0.2-0.8-0.55-0.25-2.05-0.1-0.85m0.6-7 0.3 0.2 0.65 0.4 0.2 0.15 1.55 11.15-1.85-1.25 0.15-0.15-0.1-0.85-0.1-2.65q-0.1-3.6-0.8-7m21.45 6.25 1.55 0.7 0.1 0.05 0.1 7.6-1.9-0.7-0.15-1.45-0.35-6.5-0.5-0.2-0.05 0.35-0.05-0.4 1.25 0.55m2.65 0.85h0.7l-0.1 2-0.2 5.95 0.3 0.15-1.35-0.5 0.65-7.6m-7.85-3.2 0.9 0.4 0.05 0.05 0.45 2.4q0.5 3.15 1.15 6.25l-0.2-0.05-0.9-0.35-0.3-1.8-0.2-1.1-0.2-1.3-0.1-0.45-0.65-4.05m1.4 0.65 1.35 0.6 1.65 8.55-1.85-0.7 0.45 0.15-0.4-2.45-1.2-6.15m-11.2-2.65 1.4 0.6-0.2 8.45-1.5 0.5 0.35-6.6-0.05-2.95m-2.15-0.9 0.85 0.35 0.4 10.3-1.15 0.4-0.45-5-0.55-5.9h0.45l0.45-0.15m1.45 10.6 0.25-9.35 0.05 0.8-0.25 7.45-0.05 1.1m-2.75-10.45 0.4 4.6 0.3 3.25 0.35 3.2-0.6 0.2-0.4-0.3-0.8-10.95h0.75m14.15 3.15 1.45 8.65-1.45-8.65m7.9 10.95h-0.05l0.05-0.25v0.25m-25.55-15.6 0.85 8.95-0.85-8.95m1.2 10.9-0.15-0.1-0.05-0.2 0.2 0.3" fill="#6852c5" fill-rule="evenodd"/>
<path d="m-11.6-24.8h0.05l0.3 0.2v0.05l-0.35-0.25 0.35 0.25q0.7 3.4 0.8 7l0.1 2.65 0.1 0.85-0.15 0.15-0.15-0.1 0.15 0.1-0.15-0.1-0.2-0.3-0.15-0.95v-0.7l-0.05-1.15q-0.1-3.75-0.75-7.35l0.05-0.25 0.05-0.1m25.15 7.35h0.25v7.9l-0.05 0.25-0.2-0.05-0.3-0.15 0.2-5.95 0.1-2m-7.6-2.75v-0.05l0.2 0.15 0.25 0.1 1.2 6.15 0.4 2.45-0.45-0.15q-0.65-3.1-1.15-6.25l-0.45-2.4 0.2 0.1-0.2-0.1m-11.15-2.6 0.4 0.15 0.05 2.95-0.35 6.6-0.4 0.15 0.05-1.1 0.25-7.45-0.05-0.8v-0.1l0.05-0.4m-2.65-0.6 0.55 5.9 0.45 5-0.35 0.15-0.35-3.2-0.3-3.25-0.4-4.6h0.4m16.85 4.95 0.05-0.35 0.5 0.2 0.35 6.5 0.15 1.45h-0.05l-1-7.75v-0.05m-12.95 22.4-0.2 0.9-1.75 1-0.4-0.5q1.35-0.75 2.4-1.9l-0.05 0.5m21.9 1 1.25 0.65 0.9 1.8-1.3 0.1v-0.05l0.05-1q-1.25-0.8-0.9-1.5m-28.7-19.25-0.15-1.65 0.15 1.65m-4.5 23.6 0.05 0.05 0.3 0.95-0.5 0.2-7.55 3.25-0.9 0.4-0.6 0.25-5.55-0.85-2.3-1.65h0.4l4 1.05q1.45 0.55 2.9 0 4.6-1.55 9.1-3.4l0.65-0.25 0.05 0.05-0.05-0.05m38.5 8.1h0.45v6.75l-2.45 2.1-0.5 0.45h-0.3l-8.2 0.35-0.1-0.05-3.55-1.9-0.55-2.15 2.35 1.5q2.05 1.25 4.35 1.6h0.05l4.15-0.2 0.4-0.1h0.65l1.2-0.15 1.25-1.8q0.45-0.8 0.45-1.8-0.05-2.35 0.35-4.6" fill="#918dd8" fill-rule="evenodd"/>
<path d="m35.3-1.75 0.3 0.25-4.35 2.85-5.05 0.45 1.7-1.45 2.8-2.45 4.6 0.35m-2.6 5.8 0.05 0.1-3.85 3.45-1.65-0.75-2.85-1.25-8.15-3.55-0.1-0.05v1.05l-0.3 0.25-0.4 0.3-0.7 0.5-0.65 0.5-0.15 0.15-1.65-0.9-0.2-0.7 1.35 0.1 0.35-0.15h0.05l1.2-0.6-0.55-0.95-0.15-0.2v-0.05l-0.15-0.2-0.6-1 0.1-0.15h0.05l1.9-2.15-0.55-3.1-0.05-0.25 0.15-0.15 0.95 1.7 1.25 2.25-1.25 1.6-0.25 1.25 0.25 0.9-0.25-0.9 1.35 0.4 10.25 2.8 5.2-0.25m-51.6-5.95-1.65-1.7 2 0.6 1.8 0.5 0.15 0.05 2.05-2.7-0.25-0.9h0.05l2.65 5.7 1.5-0.05-0.35-2.7 2.1 1.45 1.05 0.7-0.4-1-1.55-3.55 3.4-4.7 0.45-0.1 1.55 1.15-1.5 0.8-1.7 3.7 0.05 0.1 0.35-0.25 6.3-4.75 2-2.65 0.2-0.15 3.05 1.65-1.25 3.15h-3.2l-3.75 6.7 0.15 0.15 4.65-0.05 4.75 3.55-5.55 0.2v-0.2l-0.4-0.35-0.75-0.7-2.2-2-2.1-1.3v1.35l-0.65 0.4-1.7 1.05-1.1 0.7-0.95-1.2-0.5-0.6-2.95 0.1-0.35-1.15-1.1-4.25 1.1 4.25-1.4 0.8-0.3 0.15h-1.75l-2-1.95m0.25-4.25 0.05-0.05-2.35-3.7 4.9 1.65 3.3-1.25 0.2-0.1 0.1 0.1 0.25-0.25-2.75 3.05 0.15 0.65-0.95 1.1-2.9-1.2m23.05 3.5 1.65 0.65 0.2 0.05 4.9 1.9 0.1 0.4 0.1 0.2-4.1 0.65-2.15-1.4-1.8-0.8-0.95-0.35v-2.05l2 0.75h0.05m7.45 4.9 0.2 0.6-2.35 1-1.8 0.8-1.1 0.45-0.25 0.1-3.25 1.4-1.4 0.6-1.65-1.3 0.65-0.3 5.9-2.4q3-1.15 5.05-0.95m1.4-6.2-0.5 3.1v-0.05l-1.2-1.7-0.3-2.55-0.05-0.15 2.05 1.35m-11.25-2.25 0.35-0.1-0.75 1.75-2.9 2.1 0.1-0.2 1.5-3.15 1.7-0.4m-5.65 5.5 0.5 0.45-0.5-0.45m-2.3-0.05-1.55-3.8 1.55 3.8m33.4-1.8 0.35 0.45 0.05 0.05-2.85 2.05-0.35 1.7-7-0.8-0.6-0.05 9.55-4.65 0.4 0.55 0.45 0.7m1.2-3.65 2 2.4-2.25-0.85-6.9 1.35 5.05-3.2 2.1 0.3m-39.3-4.15 0.05-0.1h0.1l1.2 1.6-1.25 1.55-1.7 3.2-0.05 0.1 0.05-0.1 0.1-0.7 0.45-3.5 0.1-0.7 0.95-1.35m-6.35-1 1.1 1.35-2.85-0.45 1.75-0.9m6.4 10.95 0.45 0.55-0.45-0.55" fill="#af65dc" fill-rule="evenodd"/>
<path d="m24.7-6.6 2.95-1.95 7.2 6.35-4.05-0.2-0.2 0.1h-0.15l-0.85 0.55-0.6 0.8-0.15 0.1-0.45 0.7-0.5 0.5-1.7 1.45 5.05-0.45 1.25 2.3-2.85 0.1q-3.75 0.2-7.25-1.05l-1.1-0.4-3.65-1.4 7 0.8 0.35-1.7 2.85-2.05-0.05-0.05h0.2l0.15-0.15v-0.15l-0.05-0.1-0.15-0.15-0.25-0.5-0.7-0.75-0.1-0.05-0.75-0.1-1.05 0.6q-3.75 2.1-7.65 3.75l-0.65 0.25-0.25-0.15-0.2 0.05-0.05 0.15v0.05q-0.2 0.05-0.25 0.2v0.15l0.05 0.1h0.05l0.35 0.05 0.25 0.2 0.5 0.15-1.35-0.4 0.25-1.25 1.25-1.6 7.3-4.85m-45.2 2.4 1.85-1.95 2.9 1.2 0.95-1.1-0.15-0.65 2.75-3.05-0.05 0.05 0.7-0.75h0.95l-0.05 0.1h-0.05q-0.1-0.15-0.25-0.1h-0.1v0.05h-0.05l-0.15 0.2-0.95 1.5-0.15 0.9-0.15 0.55 0.05 3.1 0.05 0.05h0.15l-0.05 0.1 0.05-0.1 1.7-3.2 1.25-1.55 1.2-1.5 0.2-0.2h1.7l0.3 0.25-0.25-0.2h-0.05q-2.3 2.4-3.85 5.25l0.95 2.8 0.25 0.8-2.1-1.45 0.35 2.7-1.5 0.05-2.65-5.7h-0.05l0.25 0.9h-0.15l-2.15 2-3.65-1.05m-0.45-5.7-0.05-0.1 0.1-0.15 0.05 0.05h-0.05l-0.05 0.1v0.1m0.1-0.35 2.7-2.95 3.75 1.85 1.85 1.75-0.2 0.1-0.8-0.05q-2.3 1.3-4.75-0.05l-0.05-0.05-0.8-0.25-1.4-0.6-0.3 0.25m16.5 1.1 0.15-0.1 4.1-2.3-0.2 0.5-0.2 0.15-0.55 0.55q-2.85 3-6.15 5.5l0.05 0.05-0.35 0.25-0.05-0.1 1.7-3.7 1.5-0.8m15.4 9-2.55-1.15q-0.5-0.15-0.95-0.45-1.2-0.8-2.55-1.15l-0.25-0.2h-0.05l-0.4-0.15h-0.55l-0.5-0.15-0.95-0.3-0.2 0.1-0.05 0.05v0.3h-0.05l-0.05 0.1 0.05 0.05v0.25l0.05 0.5-0.05 0.55q0.1 0.85 1.05 1.05h0.05l0.05-0.05h0.1l0.05-0.2 1.8 0.8 2.15 1.4 4.1-0.65-0.1-0.2 0.1-0.1 0.05-0.1h0.05v-0.05l-0.4-0.25-1.75-1.45v-1.25 1.25l1.75 1.45m-1.75-2.7 1.8-2.55 0.1 0.1 0.05 0.15-0.05 0.05q-0.25 1.25-0.15 2.55l1.5 1.75 0.2-0.1v0.05l0.5-3.1 0.05 0.05 1.75-1.65 0.05 0.25q-0.15 0.4-0.05 0.9l0.1 0.2v0.15l0.05 1.8-1.85 1.75-0.2 0.4v0.15l0.15 0.6 0.4 0.45 0.7 1.25-1.75 0.4-0.05 0.1-0.05 0.15 1.25 0.1-0.35 0.15-1.35-0.1-0.05-0.3-0.25-0.75-0.45-1.55 0.45 1.55h-0.1l-0.1-0.1-0.1-0.05h-1l-0.2 0.05-1.3 0.3q-3.55 0.95-6.95 2.35-0.95 0.4-1.45 1.1l0.3-0.15-0.65 0.3-0.05-0.05v-2.85l5.55-0.2-4.75-3.55-4.65 0.05-0.15-0.15 3.75-6.7h3.2l6.15 4.7m-17.25 1.8-0.25-0.9 0.4 1-0.15-0.1m9.95-5.15v-0.05l-0.25-0.15q-0.8 0.4-1.7 0.4l-0.5 0.85-1.1 2.4q0.15 0.2 0.35 0.1l-0.1 0.2 2.9-2.1 0.75-1.75-0.35 0.1m25 2.95 0.25 0.25 0.05 0.15 0.1 0.15 0.05 0.1v0.05l-0.45-0.7m1.65-2.95-2.1-0.3-5.05 3.2 6.9-1.35 2.25 0.85-2-2.4m-14.3 7.5h-0.05l-0.1-0.15v-0.05l0.15 0.2m0.15 0.25-0.1-0.05v-0.05l-0.05-0.1 0.15 0.2m0.55 0.95-0.1 0.05 0.1-0.05m-26.75-10.8-0.45 3.5 0.05-0.45q-0.15-1.65 0.4-3.05m-5.3-3.05-1.75 0.9 2.85 0.45-1.1-1.35m0.4 8.9-0.15-0.05 0.05-0.05 0.1 0.1m-1.95-0.55-2-0.6 0.55 0.15 1.45 0.45m6.3-1.1 0.1-0.05 0.05-0.2-0.15 0.25" fill="#fcf" fill-rule="evenodd"/>
<path d="m34.85-2.2 0.45 0.45-4.6-0.35-2.8 2.45 0.5-0.5 0.45-0.7 0.15-0.1 0.6-0.8 0.85-0.55h0.15l0.2-0.1 4.05 0.2m-2.35 5.85 0.2 0.4-5.2 0.25-10.25-2.8-0.5-0.15-0.25-0.2-0.35-0.05h-0.05l-0.05-0.1v-0.15q0.05-0.15 0.25-0.2v-0.05l0.05-0.15 0.2-0.05 0.25 0.15 0.65-0.25q3.9-1.65 7.65-3.75l1.05-0.6 0.75 0.1 0.1 0.05 0.7 0.75 0.25 0.5 0.15 0.15 0.05 0.1v0.15l-0.15 0.15h-0.2l-0.35-0.45v-0.05l-0.05-0.1-0.1-0.15-0.05-0.15-0.25-0.25-0.4-0.55-9.55 4.65 0.6 0.05 3.65 1.4 1.1 0.4q3.5 1.25 7.25 1.05l2.85-0.1m-53.05-7.25-0.3-0.25 0.35-0.35 3.65 1.05 2.15-2h0.15l-2.05 2.7-0.1-0.1-0.05 0.05-1.8-0.5-1.45-0.45-0.55-0.15m-0.35-6.55 0.05-0.1 0.3-0.25 1.4 0.6 0.8 0.25 0.05 0.05q2.45 1.35 4.75 0.05l0.8 0.05-3.3 1.25-4.9-1.65v-0.1l0.05-0.1h0.05l-0.05-0.05m20.8-1.4 1.25-0.65-2 2.65-6.3 4.75-0.05-0.05q3.3-2.5 6.15-5.5l0.55-0.55 0.2-0.15 0.2-0.5m4.5 8.9-0.85-0.3 0.85 0.3h-0.05l-2-0.75v2.05l0.95 0.35-0.05 0.2h-0.1l-0.05 0.05h-0.05q-0.95-0.2-1.05-1.05l0.05-0.55-0.05-0.5v-0.25l-0.05-0.05 0.05-0.1h0.05v-0.3l0.05-0.05 0.2-0.1 0.95 0.3 0.5 0.15h0.55l0.4 0.15h0.05l0.25 0.2q1.35 0.35 2.55 1.15 0.45 0.3 0.95 0.45l2.55 1.15 0.4 0.25v0.05h-0.05l-0.05 0.1-0.1 0.1-0.1-0.4-4.9-1.9-0.2-0.05-1.65-0.65m6.65 2.5 0.1 0.1-0.1-0.1m0.75 2.25 0.05 0.15q-2.05-0.2-5.05 0.95l-5.9 2.4-0.3 0.15q0.5-0.7 1.45-1.1 3.4-1.4 6.95-2.35l1.3-0.3 0.2-0.05h1l0.1 0.05 0.1 0.1h0.1m2 1-1.25-0.1 0.05-0.15 0.05-0.1 1.75-0.4-0.7-1.25-0.4-0.45-0.15-0.6v-0.15l0.2-0.4 1.85-1.75-0.05-1.8v-0.15l-0.1-0.2q-0.1-0.5 0.05-0.9l0.55 3.1-1.9 2.15h-0.05l-0.1 0.15 0.6 1v0.05l0.1 0.15h0.05v0.05l0.05 0.1v0.05l0.1 0.05 0.55 0.95-1.2 0.6h-0.05m-1.05-4-0.2 0.1-1.5-1.75q-0.1-1.3 0.15-2.55l0.05-0.05 0.3 2.55 1.2 1.7m-18.65-9.4-0.45 0.1-3.4 4.7 1.55 3.55 0.25 0.9-0.9-0.6-0.25-0.8-0.95-2.8q1.55-2.85 3.85-5.25h0.05l0.25 0.2m4.7 7.65q-0.2 0.1-0.35-0.1l1.1-2.4 0.5-0.85q0.9 0 1.7-0.4l0.25 0.15v0.05l-1.7 0.4-1.5 3.15m-11.05-1.45h-0.15l-0.05-0.05-0.05-3.1 0.15-0.55 0.15-0.9 0.95-1.5 0.15-0.2h0.05v-0.05h0.1q0.15-0.05 0.25 0.1h0.05l-0.95 1.35-0.1 0.7q-0.55 1.4-0.4 3.05l-0.05 0.45-0.1 0.7 0.15-0.25-0.05 0.2-0.1 0.05" fill="#fff2ff" fill-rule="evenodd"/>
<path d="m-34.7 10.1 0.3-1.15 4.95-3.25 2.05-1.35h1.25l1.45 1.05q3.8 1.3 7.45 2.85l0.65 1.5 0.05 0.05 0.65-0.25q-4.5 1.85-9.1 3.4-1.45 0.55-2.9 0l-4-1.05h-0.4l-2.4-1.8m13.7-10.15 2.1-1.85 2 1.95h1.75l0.3-0.15 2.45 1.45 2.75-0.6 0.95 1.2 1.1-0.7 3.8 1.9-0.15 0.8 0.05-0.5q-1.05 1.15-2.4 1.9l-1.65-1.95-0.15-0.15-0.15-0.2-12.75-3.1m28.9 4.7 2.95-0.05 2.6 1.45 4.1-1.3 0.4 0.2q-0.35 0.7 0.9 1.5l-0.05 1v0.05l-12.6 1-0.1 0.1 0.45-3.4 0.25-0.1 1.1-0.45m-30.35 0.45 0.65 0.2 0.2 0.15-0.85-0.35m1.7 0.5v0.2l-0.25-0.1 0.25-0.1m28.35 11.8h15.65q-0.4 2.25-0.35 4.6 0 1-0.45 1.8l-1.25 1.8-1.2 0.15h-0.65l-0.4 0.1-4.15 0.2h-0.05q-2.3-0.35-4.35-1.6l-2.35-1.5-0.85-3.45-0.25-0.95v-0.7l0.65-0.45" fill="#615cc7" fill-rule="evenodd"/>
<path d="m27.25 6.85 2.15 5.6-3.7-5.45-0.75 0.05-0.55-1.45 2.85 1.25m-62.8 9.45v-2.25l2.6 3.4 0.8 0.1 0.95 0.1 8.4 1 1.05 0.1h0.05l5.95-2.45 0.1-0.05 1.85-0.75 3.5-1.45 0.6-0.25 0.85-0.35 0.45-0.2 3.9-1.6 2.5-0.9 3.7-1.35-23.25 11.15 0.05 0.15-11.05-1.85-0.05 0.1-0.25 0.05-2.7-2.7m38.3-7.3 0.55-2.4 3.25-1.4-0.45 3.4-4.05 3.35 0.7-2.95m24 16.6-1.65-8.5 2.8 2.6 2.4 7.95-12.55 7.2-13.25-5.1-0.35-9.1-2.45 1.15-0.1 0.1 0.05-0.2 2.5-1.8v0.75l2.8-1.3v8.45l4.65 1.9 6.2 2.5h0.05l2.8-1.65 0.55-0.35 5.6-3.25 0.2-0.15-0.2-1.2h-0.05m-8.85 8.85q-0.35 0-0.1 0.25l0.2-0.25h-0.1m0.25 0.55h0.05l0.05 0.05-0.1-0.05m-0.75-0.05h0.15l-1.15 0.65 0.9-0.55 0.1-0.1" fill="#f0da8e" fill-rule="evenodd"/>
<path d="m30.4 21.55 0.15 0.6v0.05l0.1 0.25 0.1 0.35 0.05 0.3 0.1 0.35 1.35 5.15-1.45 5.85-12.5 6.7-0.15-0.1-14.4-5.95-2.4-5.45v-5.95l0.25-1.8 0.1-0.1 2.45-1.15 0.35 9.1 13.25 5.1 12.55-7.2-2.4-7.95-2.8-2.6-0.25-1.15 0.7-0.05 3.8 2.95 1.05 2.7m-31.4-6.15-3.5 0.85-1.25-0.4h-2.4l-1.1 2.9-11.55 6-11.9-1.6-2.85-3.3v-3.55l2.7 2.7 0.25-0.05 0.05-0.1 11.05 1.85-0.05-0.15 23.25-11.15 0.9-0.35 0.15-0.05-0.7 2.95-3.1 2.6-0.2 0.2-0.25 0.2 0.5 0.45m31.9 8.05-0.25-1 0.25 1m-13.6 11.6-0.9 0.55 1.15-0.65h-0.75l0.5 0.1m0.85-0.05 0.1 0.05-0.05-0.05h-0.05m-0.35 0.1-0.05 0.05h0.15v-0.05h-0.1m-10.85-15.75-2.8 1.3v-0.75l0.15-0.15 2.65-1.9v1.5" fill="#d5916c" fill-rule="evenodd"/>
<path d="m-5.05-34.25 5.85-0.95 2.7-1.25-1.7-0.55-6.25-3-0.6 0.1m0 5.65-4.4 0.65-5.25-3.45v-0.75l9.65-2.1m27.65 25.35-0.4 1.25-0.4 1.1m8.65 33.95 0.1 0.4m0.2 0.65 0.05 0.3m-31.55-0.55-0.15-0.05m-22.6-22.5v-1.1m10.7-24.5 1.2 0.8 0.35 0.25 0.3 0.2 0.65 0.4m13.65-10.75 1.7-0.65m5.15 17.05 1.55 0.7m0.1 0.05 0.2 0.1h1.5m0.25 0h1.75l1.45-1.2m0.05 0 1.75-1.35 1.6-1.25 0.15-0.15m-5.75-6.05 7.05-3.55 0.9-1.35-10.6-3.75m2.65 8.65-1.5 0.7-9.35-3.65-1.95-2.05 9.95-3.75 0.2 0.1m4.9 17.55-0.05 0.65m0.95 5.15 0.85-7.25m-1.75 1.35v0.1m-0.25 2.3 0.2-1.65m2.8 1.95-0.05-0.05-0.25 1.65h0.1l1.4 0.65-1.65 1.05-0.35 0.25-1.15 0.75-0.1 0.1m2.4-7-0.4 2.55m-1.8 3.25-0.1 1.1m-6.25-20.1-0.15 1.05m-10.8 6.65-0.65 1.15 1.25 0.55 0.15 0.05 0.65 0.3 1.2 0.55m1.75 0.8 0.9 0.4 0.05 0.05 0.2 0.1 0.25 0.1 1.35 0.6 1.2 0.55 1.25 0.55m-17.15-5.25 1.75-0.5 3.55-1 0.75-0.2 2.6-0.75 0.45-0.85-5.15-5.5 6.35-2.35m-2.1 12.35-0.95 7.4h0.1l0.8-0.3m-6.4-8.8v1.25m1.6 9.2 1.4-0.5 0.55-10.95m-5.3 1.5-0.45 0.15h-0.45m1 10.9 1.15-0.4 0.2-0.05 0.25-9.35v-0.1m0.15 9.3 1.5-0.5m-4.65-9.8h-0.75l0.8 10.95 0.4 0.3 0.6-0.2 0.35-0.15m7.15-2.45-0.6 0.2-1.9 0.65m4.35-1.45 0.25-1.35 0.1-0.65m-0.1 0.65 2 0.55-2.25 0.8m-10.25 5.2 0.2-0.2h1.7l0.3 0.25 1.55 1.15 0.15-0.1 4.1-2.3 1.25-0.65m0.2-0.15 3.05 1.65-1.7-3 1.95-0.7m0.4-0.65 0.5-0.8 0.2-0.3-0.1-0.45m0.3 1.75 0.2 1.1 0.3 1.8 0.9 0.35-1.45-8.65m3.1 1.8-0.05-0.4m1.1 8.2 1.9 0.7m-4.4-1.6 1.85 0.7 0.6 0.2-1-7.75m-7.3-7.6-1.05 1.95m11.55 14.2-0.25-0.1m-4.4-1.6-0.2-0.05m-4.2 4.05 1.25-3.15m2.05-1.25-1.7-0.6 1.4-1.2m-2.6 10.8 0.85 0.3 1.65 0.65m0.2 0.05 4.9 1.9-0.1-0.1m-8.7-1.2v-1.65m0-0.35v-0.05l1.2 0.45m7.65-2.35-0.1-0.1-1.8 2.55v1.25l1.75 1.45m0.2 0.5 0.1 0.2 0.45 1.55 0.25 0.75 0.05 0.3m2.95-8.7-1.75 1.65-0.05-0.05m-2.05-1.35 2.05 1.35m-3.95 1.1-6.15-4.7h-3.2l-3.75 6.7 0.15 0.15m3.85 3.7v2.85l0.05 0.05m-4.6-15.05-1.5 0.8-1.7 3.7 0.05 0.1 1.55 3.8m0.05 0.95-1.7 1.05m1.7 4.6 1.4 1.7v4.1l2.5-0.9 3.7-1.35m0.9-0.35 0.15-0.05 0.55-2.4-1.4 0.6-1.65-1.3m-0.05-2.9v-0.2l-0.4-0.35m-0.75-0.7 0.75 0.7m-2.95-2.7-0.5-0.45m-2.25 0.9 0.65-0.4v-1.35l2.1 1.3 2.2 2m-5.35 3.6 0.4 0.5m-2.05-2.45 1.65 1.95m17.55-5-0.1-0.4m-3.25 4.7 1.8-0.8 2.35-1m8.05 4.55 1.55-0.1m-7.55-2.7-0.15 0.15-1.65-0.9-0.2-0.7m-7-3.35-1.8-0.8m3.25 6.2 0.25-0.1m-0.7 3.5 0.1-0.1 12.6-1 1.3-0.1m-13.55-2.2-3.25 1.4m2.8 2 0.45-3.4m20.9-7.75 0.35 0.45 0.05 0.05-2.85 2.05m-7.35 0.9-0.6-0.05 9.55-4.65 0.4 0.55 0.45 0.7m-2.8 4.25-7-0.8m-1.45-11.5v0.05l0.95-0.65m-3.35 1.9 0.3 0.15 2.1-1.4m-2.45 1.25h0.05v-0.25m-0.05 0.25-0.2-0.05-1.35-0.5m2.85 4.3 0.15-0.15 0.95 1.7m1.25 2.25-1.25-2.25m0.1 6.05-0.1-0.05v0.45m0.1-0.4 8.15 3.55 2.85 1.25m-11.35-5.75 0.25-1.25 1.25-1.6 7.3-4.85m-8.55 8.6-0.25-0.9m-1.8 3.5 0.65-0.5 0.7-0.5 0.4-0.3 0.3-0.25v-0.45m-2.4 8.75-13.4 5.35m24.6-9.65 0.75-0.05 3.7 5.45m-5.95-5.3h0.05m0.3-0.05 1.15-0.05-0.55-1.45m-4.9-19.95-0.15 1.7m-2.55-3.6-0.6 5.65m-2.4-6.85v7.9m-23.9-14.25 0.55 0.4h0.55m-1.4 9.5 1.85 1.25m-2.95-2-2.1-1.45h0.4l0.5-0.2m0.95-0.4-0.1-0.85m0.95 1.6-0.85-8.95m1.2 10.9-0.15-0.1-0.8-0.55-0.25-2.05m1 2.4 0.05 0.2m-0.2-1.85 0.15 1.65m0.2 0.3 0.15 0.1m2.2 1.45-0.35-0.2m-2.05 2.2h-0.95l-0.7 0.75-0.2 0.2-0.1-0.1-1.85-1.75m2.2 1.6-2.75 3.05 0.15 0.65 0.25 0.9 1.1 4.25 0.35 1.15 2.95-0.1-0.45-0.55-0.35-2.7m0.35-7.35h0.1l1.2 1.6 1.2-1.5m-2.45 3.05 1.25-1.55m-11.35 14.45 0.75 0.2m0.35 0.05 0.45 0.15m0.75 0.15 0.25 0.1 0.3 0.05 0.3 0.35 0.05 0.05m0.45 0.55 0.5 0.55 1.25 1.5 0.05 0.05 0.3 0.95 1.1 3.6v1.6l3.5-1.45 0.6-0.25-0.35-5.15m-10.75-4.2-0.3-0.1-2.65-1.2-3.65 1.2h1.95l3 0.75 0.65 0.2 1.15 0.3m2.3 0.55-0.75-0.15m-0.45-0.15-0.35-0.05m3.8-3.3-7.4-1.55m13.85-0.2 0.95 1.2 1.1-0.7m-2.05-0.5-0.5-0.6m2.05 3.1-0.15-0.2-12.75-3.1m2.1-1.85 2 1.95h1.75l0.3-0.15 1.4-0.8m-3.55 8.15-0.45-0.55m1.8 9.55 1.85-0.75m4.95-2.05 0.45-0.2 2.1-5.55-7.1-3.95 2.6 0.35m-16.6 0.25-2.05 1.35m19.75 8.1 0.85-0.35m-12.9 5.3h0.05l5.95-2.45m-7.05 2.35 1.05 0.1m-9.45-1.1 8.4 1m-12.75-4.6 2.6 3.4 0.8 0.1m57-1.6 0.7-0.05 3.8 2.95 1.45 1.1m-5.7-2.85-0.25-1.15-16.45 1-0.25 0.05h-0.05l-0.5 0.4-0.65 0.45v1.3m19.8 6.45-1.65-8.5m-23.5 4.8-0.25 1.8v0.05m28-4.9 1.05 2.7m-9.75 9 0.55-0.35 5.6-3.25m-15.2 2.75 6.2 2.5h0.05l2.8-1.65m-9.05-0.85-4.65-1.9v-8.65m-2.8 0.75-2.5 1.8-0.05 0.2m-2.2 0.75 1.75 0.9m25.6 2.05 0.25 1.2-0.2 0.15m3.15-12-8.9-2.15m-14.1 5.05-2.65 1.9m-5.55-5-0.25 0.2 0.5 0.45m3.05-3.45-3.1 2.6m2.7 7.15-0.6 0.4m-0.7-1.55 6.25-4.35m-3.85-7.2-0.7 2.95 4.05-3.35m-14.5 4.65 3.9-1.6" fill="none" stroke="#3e2f7b" stroke-linecap="round" stroke-linejoin="round" stroke-width=".05"/>
<path d="m-12.8-25.6-3.25-2.2 1.6-5.15-3-5.45 13.55-2.75 9.6 4.55-0.65 1.25 8.1-3 13.8 3.95-0.2 0.45-2.9 5.95 1.7 2.7-5 3.9v0.05l-0.05 0.2v0.05l-0.35 2.55-0.35 2.6 2.95 1-0.15 0.4-0.45 1.25-0.35 1.1 2.9 5.6 2.95-1.95 7.2 6.35 0.45 0.45 0.3 0.25-4.35 2.85 1.25 2.3 0.25 0.5-3.85 3.45-1.65-0.75 2.15 5.6 0.5 0.8 1.15 1.7h-1.1l3.05 2.7 0.25 0.2-2.85 3.7 0.05 0.2m0.1 0.4v0.05l0.1 0.25 0.25 1 1.35 5.15-1.45 5.85-12.5 6.7-0.15-0.1-14.4-5.95-2.4-5.45v-5.9l-0.05-0.05-1.9-1.05-0.15-0.1m31.55 0.55 0.1 0.35m-31.8-0.95-0.15-0.1 1.4-1.85-3.3-1 0.1-0.05 0.25-0.2 2.95-2.6-1.35-1.3-3.5 0.85-1.25-0.4h-2.4l-1.1 2.9-11.55 6-11.9-1.6-2.85-3.3v-6.8l0.85-2.95 0.3-1.15 4.95-3.25 0.85-3.75 5.1-1v-0.95m0-1.1 2.5 1.05 2.1-1.85-1.65-1.7-0.3-0.25 0.35-0.35 1.85-1.95 0.05-0.05-2.35-3.7-0.05-0.1 0.1-0.15 0.05-0.1 2.7-2.95 3.75 1.85 0.5-2.4-2.05-2.45 4.1-1.35-0.95-8.05m16.05 4.15 1.75 0.8 0.65 4.05-3.15-0.95 0.75-3.9m1.8 6.4 0.5-0.8 0.2-0.3 0.2 1.3-1.3 0.45 0.4-0.65m-3.9 38.6 0.15 0.15h0.05" fill="none" stroke="#97351e" stroke-linecap="round" stroke-linejoin="round" stroke-width=".75"/>
</g>
</defs>
</svg>
