<?xml version="1.0" encoding="UTF-8"?>
<svg version="1.1" viewBox="0 0 134.8 228.56" xmlns="http://www.w3.org/2000/svg" xmlns:cc="http://creativecommons.org/ns#" xmlns:dc="http://purl.org/dc/elements/1.1/" xmlns:rdf="http://www.w3.org/1999/02/22-rdf-syntax-ns#" xmlns:xlink="http://www.w3.org/1999/xlink">
<metadata>
<rdf:RDF>
<cc:Work rdf:about="">
<dc:format>image/svg+xml</dc:format>
<dc:type rdf:resource="http://purl.org/dc/dcmitype/StillImage"/>
</cc:Work>
</rdf:RDF>
</metadata>
<g transform="translate(-180.9 -76.632)">
<use transform="matrix(-7.9848 1.4753 -.8249 6.8859 330.47 67.59)" width="15.75" height="28.15" xlink:href="#e"/>
<use transform="matrix(-7.9848 1.4753 -.8249 6.8859 296.43 220.04)" width="13.7" height="10.6" xlink:href="#d"/>
<use transform="matrix(-7.9047 .9857 -1.3856 6.971 273 75.002)" width="9" height="4.0500002" xlink:href="#c"/>
<use transform="matrix(-7.9848 1.4753 -.8249 6.8859 289.83 115.05)" width="9" height="4" xlink:href="#b"/>
<use transform="matrix(-7.9848 1.4753 -.8249 6.8859 281.83 71.645)" width="7.25" height="6.6999998" xlink:href="#a"/>
</g>
<defs>
<g id="e" transform="translate(13.2,1)">
<use transform="translate(-13.2,-1)" width="15.75" height="28.15" xlink:href="#j"/>
</g>
<g id="j" transform="translate(13.2,1)">
<path d="m2.25-0.4q-1.35 0.9-2.5 2.45l0.1-1.85-0.1 1.85-0.3 0.4q-2.15 2.9-2.8 2.9l-0.4-0.1q1.65-3.05 3.6-5.1l0.1-0.1 0.95-0.9 1.35 0.45m-2.65 22.15h0.05v0.05l0.05 0.05 0.1 0.25 0.1 0.15 0.05 0.1q-0.45 1.3-1.3 2.25-1.1 1.2-3.6 2.1l-0.25 0.05q-4.45 1.4-6.05-2.05-1.05-1.8-1.55-3.6 0.8-2.35 1.85-3.6l2.3-2.4 1.1 0.55 0.45-2.15 0.9-2.6-0.7 2.4q-0.6 2.45-0.65 4.6 0.7 0.95 6.75 3.65l0.4 0.2 0.05 0.05-0.05-0.05m-11.45-8.75 0.5-0.95 0.05 0.35-0.55 0.6m5.8-8.6q1.4-1.85 2.4-2.8l2.25-2.35 1.8-0.25 0.5 0.15-0.95 0.9-0.1 0.1q-1.95 2.05-3.6 5.1l-0.25-0.3-0.05-0.4h-0.05q-1.2 0.75-1.35 0.75-0.65 0-0.65-0.65l0.05-0.25m5.9-4.2v-0.05 0.05m-6.95 13.3 0.2-0.2-0.2 0.2m6.45 8.35v-0.05l-0.05-0.05 0.05 0.1m-4.55 4.9q-1.9-5.45-2.1-7.1l-0.25-1.75 0.25 1.75q0.2 1.65 2.1 7.1" fill="#3d4301" fill-rule="evenodd"/>
<path d="m2.25-0.4 0.3 0.1-1.1 2.65q-1.1 2.8-1.75 5.5l-0.15-3.1 0.2-2.7-0.2 2.7 0.15 3.1q-0.75 2.85-1 5.55l-0.7 0.6q-2.35 1.9-4.6 1.9 0.05-1.35 0.65-3.55l1.5-4.9-1.75 3.45 1.2-3.1 0.8-1.7 0.15-0.25 0.3-0.6-0.3 0.6-0.15 0.25q-4.6 3.65-7.1 6.3l-0.05-0.35 2-3.15 3.3-4.5-0.05 0.25q0 0.65 0.65 0.65 0.15 0 1.35-0.75h0.05l0.05 0.4 0.25 0.3 0.4 0.1q0.65 0 2.8-2.9l0.3-0.4q1.15-1.55 2.5-2.45m-9.35 13.9-0.45 2.15-1.1-0.55 1.55-1.6" fill="#6f7d01" fill-rule="evenodd"/>
<path d="m-4.2 6.1-0.8 1.7-1.2 3.1-0.9 2.6-1.55 1.6-0.25-0.15q-2.05-1.3-2.4-2.55 2.5-2.65 7.1-6.3" fill="#7d8e01" fill-rule="evenodd"/>
<path d="m-1.3 13.4-0.15 3.3 0.3 3.5 0.75 1.55-0.4-0.2q-6.05-2.7-6.75-3.65 0.05-2.15 0.65-4.6l0.7-2.4 1.75-3.45-1.5 4.9q-0.6 2.2-0.65 3.55 2.25 0 4.6-1.9l0.7-0.6m-11.5 7.7q-0.45-1.65-0.4-3.35v-0.6q0.2-1.85 1.35-4.15l0.55-0.6q0.35 1.25 2.4 2.55l0.25 0.15-2.3 2.4q-1.05 1.25-1.85 3.6m12.15 0.75-0.05-0.1 0.05 0.05v0.05" fill="#4d5401" fill-rule="evenodd"/>
<path d="m-0.3 7.85q0.65-2.7 1.75-5.5l1.1-2.65-0.3-0.1m-2.55 8.25q-0.75 2.85-1 5.55l-0.15 3.3 0.3 3.5 0.75 1.55 0.1 0.1 0.1 0.25 0.1 0.15m-1.3-23 1.8-0.25 0.5 0.15 1.35 0.45m-2.4 0.55v0.05m-11.15 12.2-0.55 0.6m4.95 0.3-0.2 0.2" fill="none" stroke="#000" stroke-linecap="round" stroke-linejoin="round" stroke-opacity=".30196" stroke-width=".05"/>
<path d="m-11.25 24.7q-1.05-1.8-1.55-3.6-0.45-1.65-0.4-3.35v-0.2m0-0.4q0.2-1.85 1.35-4.15l0.5-0.95 2-3.15 3.3-4.5q1.4-1.85 2.4-2.8l2.25-2.35" fill="none" stroke="#000" stroke-linecap="round" stroke-linejoin="round" stroke-opacity=".2902" stroke-width=".05"/>
<path d="m-0.25 2.05-0.2 2.7 0.15 3.1m-3.45-2.6q1.65-3.05 3.6-5.1l0.1-0.1 0.95-0.9m-1.05 1.05-0.1 1.85m-3.5 3.2-0.3 0.6-0.15 0.25-0.8 1.7-1.2 3.1-0.7 2.4q-0.6 2.45-0.65 4.6 0.7 0.95 6.75 3.65l0.4 0.2m-12.4-0.65q0.8-2.35 1.85-3.6l2.3-2.4 1.55-1.6m-0.45 4.4 0.25 1.75q0.2 1.65 2.1 7.1m-6.1-14.35q2.5-2.65 7.1-6.3" fill="none" stroke="#000" stroke-linecap="round" stroke-linejoin="round" stroke-opacity=".2" stroke-width=".05"/>
</g>
<g id="d" transform="translate(5.5 .5)">
<use transform="translate(-5.5 -.5)" width="13.7" height="10.6" xlink:href="#i"/>
</g>
<g id="i" transform="translate(5.5 .5)">
<path d="m6 5.1q-1.05-1.65-1.05-2.6 0.25-0.2 0.8 0.25l1.25 1q0.75 0.5 0.7 2.35l-0.2 0.3q-0.55 0.2-1.5-1.3" fill="#6f7d01" fill-rule="evenodd"/>
<path d="m6 5.1q0.95 1.5 1.5 1.3l0.2-0.3q0.05-1.85-0.7-2.35l-1.25-1q-0.55-0.45-0.8-0.25 0 0.95 1.05 2.6m-0.55-4.25 1.95 2.85q0.7 1.3 0.8 2.2 0.2 1.85-1.3 2.15t-3.6-2v0.45l0.35 1.6-0.15 1.25q-0.3 0.75-1 0.75h-0.05l-0.5-0.05q-1-0.25-1.9-1.25l-0.4-0.5q0 0.85-0.25 1.3l-0.45 0.45q-0.7 0.25-1.6-0.5l-0.9-1.05-0.1-0.45-0.1-0.7v-0.3l0.05-0.3 0.05-1.2 0.35-1.6-0.35 1.6-0.05 1.2-0.05 0.3v0.2h-0.05q-1.35-0.15-1.6-1.95v-0.05l-0.05-0.3-0.05-0.45v-0.4l0.05-0.5v-0.05l0.2-0.8 0.5-1.35q1.3-1.55 3.4-1.8l1-0.1q2.9 0 5.8 1.35m-4.05 6.65 0.35 0.5 0.8 0.7q0.3 0 0.3-0.9l-0.15-1.05-0.1-0.3q-0.35-0.55-0.4-0.35-0.8-0.3-0.95 0.35l-0.05 0.3 0.05 0.35 0.15 0.4 1.05 2.6-1.05-2.6m-1.75 0.8-0.5-0.95-0.1-0.2-0.1-0.55-0.05-0.6 0.05-0.3-0.05 0.3 0.05 0.6 0.1 0.55 0.1 0.2 0.5 0.95m3.15-3.5 0.5 1.7-0.5-1.7m-1.55 2.3-2.1-5.85-0.5-1.65 0.5 1.65 2.1 5.85m-3.4-1.25-0.15 0.2-0.3 1.35q-0.1 1.15 1.1 1.85l0.05-0.05q-0.35-1.8-0.3-3.2v-0.25l-0.25 0.05-0.15 0.05m-1.4 2.65q0.2-1.6 0.9-3.55 0.9-2.45 1.8-3.7-0.9 1.25-1.8 3.7-0.7 1.95-0.9 3.55" fill="#3d4301" fill-rule="evenodd"/>
<path d="m1.25 7.1-0.05-0.35 0.05-0.3q0.15-0.65 0.95-0.35 0.05-0.2 0.4 0.35l0.1 0.3 0.15 1.05q0 0.9-0.3 0.9l-0.8-0.7-0.35-0.5-0.15-0.4m-3.4-1.25 0.15-0.05 0.25-0.05v0.25q-0.05 1.4 0.3 3.2l-0.05 0.05q-1.2-0.7-1.1-1.85l0.3-1.35 0.15-0.2" fill="#545c01" fill-rule="evenodd"/>
<path d="m5.45 0.85 1.95 2.85q0.7 1.3 0.8 2.2 0.2 1.85-1.3 2.15t-3.6-2m0 0.45 0.35 1.6-0.15 1.25q-0.3 0.75-1 0.75m-0.05 0-0.5-0.05q-1-0.25-1.9-1.25l-0.4-0.5q0 0.85-0.25 1.3l-0.45 0.45q-0.7 0.25-1.6-0.5l-0.9-1.05-0.1-0.45-0.1-0.7m-0.05-0.1q-1.35-0.15-1.6-1.95m0-0.05-0.05-0.3-0.05-0.45v-0.4l0.05-0.5m4.4 2.1-0.05 0.3 0.05 0.6 0.1 0.55 0.1 0.2 0.5 0.95m3.65-1.8-0.5-1.7m-6.1-0.85-0.35 1.6-0.05 1.2-0.05 0.3v0.2" fill="none" stroke="#000" stroke-linecap="round" stroke-linejoin="round" stroke-opacity=".30196" stroke-width=".05"/>
<path d="m1.4 7.5 1.05 2.6m-1.2-3 0.15 0.4m-2.75-7.9 0.5 1.65 2.1 5.85m-2.1-5.85q-0.9 1.25-1.8 3.7-0.7 1.95-0.9 3.55" fill="none" stroke="#000" stroke-linecap="round" stroke-linejoin="round" stroke-opacity=".2" stroke-width=".05"/>
<path d="m-3.75 7.35-0.05-0.1" fill="none" stroke="#000" stroke-linecap="round" stroke-linejoin="round" stroke-opacity=".2902" stroke-width=".05"/>
</g>
<g id="c" transform="translate(7.85,3.1)">
<use transform="translate(-7.85,-3.1)" width="9" height="4.0500002" xlink:href="#h"/>
</g>
<g id="h" transform="translate(7.85,3.1)">
<path d="m-1.65-2-0.85-0.9q1.05 0.1 1.85 0.65l0.55 0.35q1.65 1.15 1.15 2.2-0.3 0.6-1 0.65l-1.3-2.5-0.4-0.45m-1.45 1.95-1 0.05-2.7-0.1 0.6-0.35 2.15-1 0.95 1.4" fill="#5f2d18" fill-rule="evenodd"/>
<path d="m-4.05-1.45 2.4-0.55 0.4 0.45 1.3 2.5-1.2-0.35q-1-0.55-1.95-0.65l-0.95-1.4" fill="#804124" fill-rule="evenodd"/>
<path d="m-2.5-2.9v-0.1 0.1" fill="#8c4f26" fill-rule="evenodd"/>
<path d="m-6.85-2.75 4-0.25 0.35 0.1 0.85 0.9-2.4 0.55-0.05-0.1q-1.3-1-2.75-1.2" fill="#552b1a" fill-rule="evenodd"/>
<path d="m-6.85-2.75q1.45 0.2 2.75 1.2l0.05 0.1-2.15 1-0.6 0.35-0.2-0.05-0.4-0.2q-0.75-0.65-0.3-1.6l0.6-0.6 0.25-0.2" fill="#472416" fill-rule="evenodd"/>
<path d="m-2.5-2.9-0.35-0.1-4 0.25q1.45 0.2 2.75 1.2l0.05 0.1 0.95 1.4-1 0.05-2.7-0.1m5.15-1.9-0.85-0.9v-0.1 0.1-0.1h-0.35m2.9 3.95-1.3-2.5-0.4-0.45m-0.85-0.9q1.05 0.1 1.85 0.65l0.55 0.35q1.65 1.15 1.15 2.2-0.3 0.6-1 0.65l-1.2-0.35q-1-0.55-1.95-0.65m-3.9-0.1-0.4-0.2q-0.75-0.65-0.3-1.6l0.6-0.6 0.25-0.2" fill="none" stroke="#000" stroke-linecap="round" stroke-linejoin="round" stroke-opacity=".38824" stroke-width=".05"/>
</g>
<g id="b" transform="translate(8.1,3.1)">
<use transform="translate(-8.1,-3.1)" width="9" height="4" xlink:href="#g"/>
</g>
<g id="g" transform="translate(8.1,3.1)">
<path d="m-7.05-0.1 0.55-0.35 2.2-1 0.95 1.4-1 0.05-2.7-0.1m6.8 1-1.25-2.45-0.4-0.5-0.8-0.9 1.8 0.65 0.55 0.35q1.6 1.15 1.15 2.2-0.35 0.7-1.05 0.65" fill="#5f2d18" fill-rule="evenodd"/>
<path d="m-2.7-2.95h-0.05v-0.05l0.05 0.05" fill="#8c4f26" fill-rule="evenodd"/>
<path d="m-4.3-1.45-0.05-0.05q-1.3-1.1-2.8-1.3l4-0.2 0.4 0.05h0.05l0.8 0.9-2.4 0.6" fill="#552b1a" fill-rule="evenodd"/>
<path d="m-4.3-1.45-2.2 1-0.55 0.35-0.2-0.05-0.4-0.2q-0.75-0.65-0.3-1.55l0.6-0.7 0.2-0.2q1.5 0.2 2.8 1.3l0.05 0.05" fill="#472416" fill-rule="evenodd"/>
<path d="m-3.35-0.05-0.95-1.4 2.4-0.6 0.4 0.5 1.25 2.45-1.1-0.3q-1.05-0.5-2-0.65" fill="#9e4f15" fill-rule="evenodd"/>
<path d="m-7.05-0.1 2.7 0.1 1-0.05-0.95-1.4-0.05-0.05q-1.3-1.1-2.8-1.3l-0.2 0.2-0.6 0.7q-0.45 0.9 0.3 1.55l0.4 0.2m7 1.05-1.25-2.45-0.4-0.5m-0.8-0.9 1.8 0.65 0.55 0.35q1.6 1.15 1.15 2.2-0.35 0.7-1.05 0.65l-1.1-0.3q-1.05-0.5-2-0.65m0.6-2.9-0.4-0.05-4 0.2m4.45-0.15h-0.05v-0.05h-0.4m0.4 0.05v-0.05l0.05 0.05 0.8 0.9" fill="none" stroke="#000" stroke-linecap="round" stroke-linejoin="round" stroke-opacity=".38824" stroke-width=".05"/>
</g>
<g id="a" transform="translate(4.95,4.8)">
<use transform="translate(-4.95,-4.8)" width="7.25" height="6.6999998" xlink:href="#f"/>
</g>
<g id="f" transform="translate(4.95,4.8)">
<path d="m-2.85-1.65 0.9 0.1q0.8 0.45 1.65 2-1.15 1.1-2.15 1.1-2.5 0-2.5-2.3 0-1.05 0.85-1.05l1.25 0.15" fill="#3d4301" fill-rule="evenodd"/>
<path d="m-1.95-1.55-0.65-0.2-0.25 0.1 0.9 0.1q0.8 0.45 1.65 2-1.15 1.1-2.15 1.1-2.5 0-2.5-2.3 0-1.05 0.85-1.05l1.25 0.15" fill="none" stroke="#000" stroke-linecap="round" stroke-linejoin="round" stroke-opacity=".38824" stroke-width=".05"/>
<path d="m0.5-4.55-1.95-0.25-0.1 0.1 2.6 3.15 0.55 0.2q0.7-2.35-1.1-3.2" fill="#353a01" fill-rule="evenodd"/>
<path d="m0.5-4.55-1.95-0.25-0.1 0.1 2.6 3.15 0.55 0.2q0.7-2.35-1.1-3.2z" fill="none" stroke="#000" stroke-linecap="round" stroke-linejoin="round" stroke-opacity=".38824" stroke-width=".05"/>
<path d="m0.15-3.2 0.2 0.7q0 1.8-2.1 1.8l-0.6-0.15q-1.1-0.9-1.1-1.3 0-1.55 2.05-1.55 0.95 0 1.55 0.5" fill="#536001" fill-rule="evenodd"/>
<path d="m0.15-3.2q-0.6-0.5-1.55-0.5-2.05 0-2.05 1.55 0 0.4 1.1 1.3l0.6 0.15q2.1 0 2.1-1.8z" fill="none" stroke="#000" stroke-linecap="round" stroke-linejoin="round" stroke-opacity=".38824" stroke-width=".05"/>
<path d="m-2.3-0.35-0.1-0.2-0.1-0.45 0.1-0.35 0.85-1.15 0.65-0.1q0.25 0 0.3 1.05 0 1.2-0.7 1.5h-0.2q-0.55 0-0.8-0.3" fill="#b64616" fill-rule="evenodd"/>
<path d="m0.9-1.9-0.2 0.85q-0.35 0.6-1.15 1.1-1.05 0.65-1.6 0.65l-0.3-0.15-0.35-0.1q-0.4-0.2-0.4-0.65 0-1.2 1.05-2.05l0.75-0.5 0.95-0.25q1.25 0 1.25 1.1m-3.2 1.55q0.25 0.3 0.8 0.3h0.2q0.7-0.3 0.7-1.5-0.05-1.05-0.3-1.05l-0.65 0.1-0.85 1.15-0.1 0.35 0.1 0.45 0.1 0.2" fill="#7a2e0e" fill-rule="evenodd"/>
<path d="m0.9-1.9-0.2 0.85q-0.35 0.6-1.15 1.1-1.05 0.65-1.6 0.65l-0.3-0.15-0.35-0.1q-0.4-0.2-0.4-0.65 0-1.2 1.05-2.05l0.75-0.5 0.95-0.25q1.25 0 1.25 1.1z" fill="none" stroke="#000" stroke-linecap="round" stroke-linejoin="round" stroke-opacity=".38824" stroke-width=".05"/>
<path d="m2.3-1.3-0.4 1.3q-2.2-0.75-2.2-2 0-1.7 1.05-1.7l0.8 0.45q0.75 0.7 0.75 1.95" fill="#6f7d01" fill-rule="evenodd"/>
<path d="m2.3-1.3q0-1.25-0.75-1.95l-0.8-0.45q-1.05 0-1.05 1.7 0 1.25 2.2 2z" fill="none" stroke="#000" stroke-linecap="round" stroke-linejoin="round" stroke-opacity=".38824" stroke-width=".05"/>
<path d="m-4.3 0.65-0.35-1.9 0.05-0.1 3.3 2.45 0.25 0.6q-2.35 0.7-3.25-1.05" fill="#536001" fill-rule="evenodd"/>
<path d="m-4.3 0.65-0.35-1.9 0.05-0.1 3.3 2.45 0.25 0.6q-2.35 0.7-3.25-1.05z" fill="none" stroke="#000" stroke-linecap="round" stroke-linejoin="round" stroke-opacity=".38824" stroke-width=".05"/>
<path d="m-2.75 0.6 0.35-0.4 1.1-0.3 1.45-0.85 0.6 0.05 1.2 0.9q-1.55 1.8-3.15 1.8-1.5 0-1.6-0.9v-0.15l0.05-0.15" fill="#a6a604" fill-rule="evenodd"/>
<path d="m-2.75 0.6 0.35-0.4 1.1-0.3 1.45-0.85 0.6 0.05 1.2 0.9q-1.55 1.8-3.15 1.8-1.5 0-1.6-0.9v-0.15z" fill="none" stroke="#000" stroke-linecap="round" stroke-linejoin="round" stroke-opacity=".38824" stroke-width=".05"/>
</g>
</defs>
</svg>
