<?xml version="1.0" encoding="UTF-8"?>
<svg version="1.1" viewBox="0 0 76.202 76.271" xmlns="http://www.w3.org/2000/svg" xmlns:cc="http://creativecommons.org/ns#" xmlns:dc="http://purl.org/dc/elements/1.1/" xmlns:rdf="http://www.w3.org/1999/02/22-rdf-syntax-ns#" xmlns:xlink="http://www.w3.org/1999/xlink">
<metadata>
<rdf:RDF>
<cc:Work rdf:about="">
<dc:format>image/svg+xml</dc:format>
<dc:type rdf:resource="http://purl.org/dc/dcmitype/StillImage"/>
</cc:Work>
</rdf:RDF>
</metadata>
<g transform="translate(-243.82 -159.15)">
<use transform="translate(243.85,159.2)" width="76.150002" height="76.199997" xlink:href="#a"/>
</g>
<defs>
<g id="a" transform="translate(-243.85,-159.2)">
<path d="m263.55 163.85-0.1 0.25-0.8 3.3v-0.1l0.8-3.2 0.1-0.25" fill="#780178" fill-rule="evenodd"/>
<path d="m280.7 159.25q6.4-0.4 12.5 1.45 1.75 0.55 3.5 1.25 6.65 2.8 12.15 8.3 3.85 3.85 6.35 8.25 4.75 8.35 4.8 18.75v1l-0.3 4.15q-1.3 10.1-7.6 18.15 0.3-0.95 0.15-2.05-0.35-2.35-2.55-2-2.25 0.25-1.85 2.1l0.35 0.95q0.45-1.45 1.35-1.6 1.5-0.45 0.15 1.75-1.4 2.2-4.25 2.2-3.2 0-5.95 1.3-1.6 0.65-2.75 2l-2 2.9q-0.75 1.35-0.6 3v0.4q0.2 1 0.85 1.75l-0.15-0.1q-1.3 0.55-2.2 0.45-0.15-0.8-0.85-1.45-1.75-1.7-3 0l-0.65 0.95q1.55-0.65 2.3 0 0.8 0.55 0.15 0.95l-1.6 0.45-0.5 0.05q-2.45 0.15-4.15-2.05-2.1-2.7-5-4.1-1.7-0.85-3.65-0.85l-3.75 0.35q-1.65 0.4-3 1.75l-0.3 0.25-0.55 0.7-4.15-3.45q-2.8-2.6-5.05-5.65-2.75-1.95-5.15-4.3l-0.45-0.45q1.4 0.45 2.05-1.15l0.35-1.65q1.9 3.3 5.05 6.1 4.25 3.75 9.45 5.55h0.05l3.25 0.9h0.15l6.35 0.6q11.2 0 19.15-7.05l1.7-1.65q2.4-2.6 3.9-5.5l1.4-3.5q0.95-3.1 0.95-6.5 0-4.75-1.75-8.8l-0.5-1.05-0.15-0.3q-1.95-3.8-5.55-7l-0.5-0.45q-7.8-6.7-18.65-6.6h-1.6q-10.25 0.4-17.65 7.05-2.65 2.35-4.45 5.1l-1.2 2-0.1 0.3-0.2 0.3-0.4 1-1.35 5.1-0.25 3.35q0 4.5 1.6 8.4-0.7-0.55-1.75-0.6-1.95-0.15-3.7-0.95l-1.05-0.65-0.6-1.15-0.05-1.3q0.2 0.95 1.4 1.8l1.3 0.2q2.65-0.55 2.55-3.3l0.05-0.25q-0.25-2.1-1.65-3.5-1.3-1.35-3.2-1.4l-0.4 0.05 0.55-0.8q0.15-2 0.45-3.7 1.55-0.65 0.95-2.6l-0.25-0.55q0.55-2 1.35-3.5h0.1q2.4-0.4 4.3-2.2 1.05-1 1.75-2.65l0.4-1.45 5.25-4.25 1.05-0.55q5.05-0.05 9.95-1.15h0.05l3.4-0.35h-1.35q3.85-0.35 8.65 0.15l5.75 0.3q-1.5-0.65-3.6-1.9l-5.6-1.6-7.2 1v0.05l-1.5-0.3-1.2-0.25q-1.7-1.9-0.9-3.55v-0.05l1.45 0.3q0.75-0.1 1.3-1.05l0.5-1.15q-1.2 0.6-2 0.45 0.9-0.75 2.3-1.15l0.65-0.15 0.8-0.15 0.5-0.25 0.3 0.15q1 0.45 2 1.4 2.95 2.8 6.6 4.15 2.05 0.8 4.35 0.65l4.25-0.8q1.8-0.6 3.1-2.25l0.3-0.35q0.9-1.6 0.65-3.25v-0.1l0.25 0.1q2.1 1.1 3.15 2.4-1.2 0.4-1.4 2.25-0.45 2.85 1.55 4.8 1.5 1.45 3.7 1 2.55-0.5 5.25 0 2.65 0.45 4.25 2.8 1.2 1.65 1.3 3.7l-0.1 1.45-1.1-1.2-1-0.8 0.2-0.6q0.25-2.45-2.7-3.65l-1.8 0.2q-3.35 1.7-2.25 5.5l0.05 0.35q1 2.8 3.35 4.25 2.1 1.4 4.7 0.8l0.15-0.05 0.35 0.65 0.75 1.8-0.3 0.2q-2.25 1.75-2.6 4.25-0.3 1.85 1.2 2.85 1.7 1.15 2.7 3.05l0.15 0.35-0.4 3 0.8-1.6q0.1 0.95-0.2 2.05l-0.2 0.55q-0.55 1.9-1.95 3.35l-1.1 0.95q-2.8 1.95-2.65-0.9-0.05-1.9 1.85-3.05 1.6-0.95 1.2 0.85l-0.65 0.85q0.55-0.35 1.15-0.65 1.85-1.55 1.2-4.1l-1.05-0.95q-2.95-0.7-5.15 2.55l-0.2 0.3q-1.5 2.5-1.35 4.85 0.1 2.2 1.85 3.3 2.05 1.1 4.4-0.6l0.3-0.25q1.45-1.25 2.25-2.8l1.25-3.45q0.5-1.8 0.25-3.25v-0.1l-0.4-1.45 0.5-2.2 0.3-3-0.15-3.2q0.3-0.75-0.2-1.6v-0.05l-1.05-3.35-0.4-0.8 0.15-0.25 0.65-1.75v-0.4q0.15-1.95-0.6-3.5l-2.05-3.3q-1.25-1.6-2.9-2.35-2.9-1.5-6.2-1.45-3-0.05-4.4-2.55l-0.15-0.25 1.1-1.2 0.6 1.25 0.35-1.1q0.2-1-0.2-1.6 0.65-2.35-1.95-4.55l-4.3-3.3-5.5-1.15-0.5-0.15-1.65-0.3-2-0.35-6.45-1m29.1 64.05-0.95 0.95-2.25 2.1-1.25 1.05-0.05-0.15q-0.55-1.3-2.2-2.1l-1.75-0.15q-2.9 1.05-2.6 3.15l0.35 1.15 0.25-0.9q1.2-1.3 1.75 0.3 0.25 0.8 0.1 1.45l-0.05 0.15-1.1 0.65-2.3 1.15q-0.6-0.45-0.85-1.65l-0.1-1.3q0.1-1.75 1.3-3.2 1.5-2.05 4.05-2.4 2.55-0.5 5 0l2.65-0.25m-25.7 11.95 0.1 0.1-2.25 0.05-1.85-0.05q0.15-1.1-0.1-2.5l-1.05-1.55q-2.8-1.7-4.45 0.05l-0.7 1.15 0.9-0.45q1.9 0.05 0.95 1.7l-0.75 0.85-1.05-0.55q-1.6-0.75-3.1-1.7l0.6-0.9 1-1q1.55-1.2 3.6-1.25 2.75-0.2 4.8 1.7 2.05 1.8 3.3 4.25l0.05 0.1m-9.45-0.45h-0.05l-1.75-0.5 1.9 0.4-0.1 0.1m-7.05-2.05q-4.5-1.8-8.4-4.8 3.8 2.75 8.4 4.55v0.25m-19.05-16.9q-2.7-4.75-3.85-10.1l0.6 1.65 0.1 0.25 1 3.15q0.9 2.6 2.15 5.05m-4.25-12.25q-0.4-2.6-0.45-5.35v-1q-0.05-4.85 1.05-9.3-1 4.5-0.95 9.55l0.15 2.85 0.3 2.65-0.1 0.6m18.3-39.4q0.25-0.3 0.7-0.35l0.3-0.15-0.05 0.15v-0.1l-0.25 0.1-0.15 0.1-0.55 0.25m1.3-0.3q4.95-2.4 9.7-3.55-1.6 0.9 8.25 2.6l0.8 0.15-0.4 0.6q-0.9 1.7 0.15 4.25l1.5 1.65q3.55 1.6 5.1-0.5l0.55-1.4-0.95 0.65q-2.25 0.05-1.4-1.9 0.55-1.2 1.6-1.6l0.6-0.15 1.3 0.1q2.5 0.4 2.5 2 0 0.75-0.6 1.85l-1 1.25q-1.55 1.5-3.85 1.75-3.1 0.5-5.8-1.4-2.65-1.75-4.5-4.15 3.7-2.05-1.15-1.35l-0.8-0.65q-1.1-0.7-2.4-0.75l-2.25 0.3h-0.1q-1.55 0.6-2.55 2.15l-0.35 0.6-0.5 0.1 1.35-2.3-2.7 0.45q-1.3-0.65-2.1-0.75m-12.35 23.3q0.65-0.85 1.45-1.4l2.1-1.6q-0.8 1.95-2.4 2.6l-1.15 0.4m45.15-25.25 0.1 0.25-0.1-0.25m15.65 25.3-0.95-0.55q-1.75-1.25-1.15-3.4l0.3-0.6 1.3 2.75-0.1 0.55v0.5l0.6 0.75m-1.4-4.95q0.45-0.15 1.15 0.65l-1.15-0.65m5 12 0.45 2.7 0.05 0.5 0.15 2.55v0.4l-0.7-0.9q-1.55-1.75-0.4-4.3l0.45-0.95m-68.85 8.2q0.8-0.8 1.9 0.55 1 1.1 0.2 2.5-0.75 1.1-1.35-0.1v-0.75l-0.5 0.8-0.1 0.5-0.15-3.5m1.75 8.3 2.2 0.85q2.1 0.55 2.7 2.5 0.55 1.95-0.45 1.35-0.65-0.3-0.7-1.5l-0.45 0.7q-0.15 0.3-0.15 0.55-1.75-2.1-3.15-4.45m21.7 22.85v-0.1l0.1 0.05-0.1 0.05" fill="#d1a02e" fill-rule="evenodd"/>
<path d="m272.85 234.3-2.3-0.6-0.1-0.05h0.1l0.1-0.05-0.1-0.05q-0.15-0.5 0.2-1.2 1.5 0.95 3.1 1.7l1.05 0.55-0.15 0.1-1.9-0.4m-24.3-55.8v-0.05l1.6-2.5q-0.85 1.5-1.05 3.65v0.35q-0.2 3.85 2.55 5.15l1.35-0.05q2-1.55 1.4-3.9l-0.5-1.2v1.05q-0.7 1.6-1.4-0.15-0.8-2.05 0.3-3.45 1.55-2.3 2.6 0.95l0.3 1.45q0.25 1.95-0.4 3.75l-0.2 0.65-2.1 1.6q-0.8 0.55-1.45 1.4l-2.7 0.25q-0.9-0.1-1.55 0.3l1.25-9.25m2.4-3.65 2.85-3.45q4.65-5.15 8.8-7.2l0.55-0.25 0.15-0.1 0.25-0.1v0.1l-0.1 0.25 0.45-0.2q0.8 0.1 2.1 0.75l2.7-0.45-1.35 2.3 0.5-0.1q-0.6 1.1-0.15 2.1-2.45 0.1-4.1 1.05l-0.2-0.2q-0.65-0.9-0.75-1.8v-0.15l0.8-3.3-0.8 3.2-0.05-0.1q-0.65-1.7-6.55 3.4-2.05 1.75-2.45 3-1.55 0-2.65 1.25m25.35-10.1q4.85-0.7 1.15 1.35l-0.25-0.35-0.45-0.6-0.45-0.4m-5.4 4.15-0.6-0.25q-1.8-0.95 1.35-1.7l1-0.15 1.55 0.1 0.95 0.3-0.5 0.25-0.8 0.15-0.65 0.15q-1.4 0.4-2.3 1.15m0.85 5.3 1.5 0.3v-0.05l7.2-1 5.6 1.6q2.1 1.25 3.6 1.9l-5.75-0.3q-4.8-0.5-8.65-0.15-2.7-0.2-3.5-2.3m1.4 2.65q-4.9 1.1-9.95 1.15l-1.05 0.55-5.25 4.25 0.55-2.05q0.3-1.65-0.15-3.5l-0.05-0.45-0.2-0.65 0.7 0.05 12 0.65h3.4m-22.8 12.25q-0.8 1.5-1.35 3.5l-0.2-0.5-0.05 0.5q-0.15 1.2-0.7 1.45-1.05 0.7-0.4-1.95 0.6-2.6 2.7-3m-2.05 6.65q-0.3 1.7-0.45 3.7l-1.4-4.3q0.65 1.05 1.8 0.6h0.05" fill="#815a1d" fill-rule="evenodd"/>
<path d="m304.7 192.75 0.15 0.3-0.2 0.1 0.05-0.4m-31.2 33.75-3.25-0.9 0.05-0.2 3.2 1.1" fill="#e1bb7d" fill-rule="evenodd"/>
<path d="m300.85 218.4-1.7 1.65q-7.95 7.05-19.15 7.05l-6.35-0.6h-0.15l-3.2-1.1 1.15-0.7q2.5-2.05 1.45-7.2 3.75 1.9 9.4 2.4 5.05 0.3 8.85-2.1l0.6-0.4v-0.1l1.95-1.55v0.05l1.4-0.8v-0.1l0.9-0.55q1.15-0.55 2.55 0.65l1.35 1.45 0.45 0.7 0.5 1.25" fill="#f3e4cd" fill-rule="evenodd"/>
<path d="m265.65 210.45q0.9 0.6 1.2 1.45 0.35 0.85-0.05 1.6l-1.35 0.8-1.8-0.5-1.2-1.4q-0.3-0.9 0.05-1.55 0.45-0.75 1.35-0.85t1.8 0.45m3 4.6q0.7 0 1.3 0.5 0.55 0.45 0.75 1.1 0.15 0.6-0.25 1.05-0.3 0.45-0.95 0.45l-1.25-0.4-0.8-1.1q-0.1-0.6 0.2-1.05 0.4-0.5 1-0.55" fill="#fff" fill-rule="evenodd"/>
<path d="m312.1 220.55-1.45 1.7-0.85 1.05-2.65 0.25q-2.45-0.5-5 0-2.55 0.35-4.05 2.4-1.2 1.45-1.3 3.2l0.1 1.3q0.25 1.2 0.85 1.65l0.15 0.05-2.9 1.1q-0.65-0.75-0.85-1.75v-0.4q-0.15-1.65 0.6-3l2-2.9q1.15-1.35 2.75-2 2.75-1.3 5.95-1.3 2.85 0 4.25-2.2 1.35-2.2-0.15-1.75-0.9 0.15-1.35 1.6l-0.35-0.95q-0.4-1.85 1.85-2.1 2.2-0.35 2.55 2 0.15 1.1-0.15 2.05m-6.8 6.7-4.1 2.9q0.15-0.65-0.1-1.45-0.55-1.6-1.75-0.3l-0.25 0.9-0.35-1.15q-0.3-2.1 2.6-3.15l1.75 0.15q1.65 0.8 2.2 2.1m-12.65 6.35-2.05 0.45q0.65-0.4-0.15-0.95-0.75-0.65-2.3 0l0.65-0.95q1.25-1.7 3 0 0.7 0.65 0.85 1.45m-4.15 0.95-2.85 0.65-1.55 0.05-0.05-0.1q-1.25-2.45-3.3-4.25-2.05-1.9-4.8-1.7-2.05 0.05-3.6 1.25l-1 1-0.6 0.9q-0.35 0.7-0.2 1.2v0.1h-0.1l-2.85-0.85v-0.3q0-1 0.5-1.9l0.55-0.7 0.3-0.25q1.35-1.35 3-1.75l3.75-0.35q1.95 0 3.65 0.85 2.9 1.4 5 4.1 1.7 2.2 4.15 2.05m-8.4 0.8-3.4-0.1-2.05-0.45 0.1-0.1 0.15-0.1 0.75-0.85q0.95-1.65-0.95-1.7l-0.9 0.45 0.7-1.15q1.65-1.75 4.45-0.05l1.05 1.55q0.25 1.4 0.1 2.5m-35.4-29.6-0.3-0.95-0.1-1.2 0.1-0.6 0.2-0.65 0.05-0.3q0.75-1.7 2.65-1.8l0.4-0.05q1.9 0.05 3.2 1.4 1.4 1.4 1.65 3.5l-0.05 0.25q0.1 2.75-2.55 3.3l-1.3-0.2q-1.2-0.85-1.4-1.8v-0.65l0.1-0.5 0.5-0.8v0.75q0.6 1.2 1.35 0.1 0.8-1.4-0.2-2.5-1.1-1.35-1.9-0.55l-0.65 0.9-0.3 0.95q-0.3 1.35 0.3 2.75 0.45 1.25 1.45 2l1.05 0.65q1.75 0.8 3.7 0.95 1.05 0.05 1.75 0.6l0.7 0.8q0.55 0.9 0.6 1.85l-0.35 1.65q-0.65 1.6-2.05 1.15l-0.2-0.05q-1.25-0.55-1.1-1.45 0-0.25 0.15-0.55l0.45-0.7q0.05 1.2 0.7 1.5 1 0.6 0.45-1.35-0.6-1.95-2.7-2.5l-2.2-0.85-1.9-1.25q-0.95-0.75-1.55-1.9l-0.1-0.25-0.6-1.65m42.6-45.1 1.85-0.05 1.65 0.3 0.5 0.15 1.2 0.45-3.1 3.2-0.6 0.15-1.5-4.2m-16.45 3 2.25-0.3q1.3 0.05 2.4 0.75l-1.3 2.8-1.55-0.1-1.8-3.15m6.6 2.45q1.85 2.4 4.5 4.15 2.7 1.9 5.8 1.4 2.3-0.25 3.85-1.75l1-1.25q0.6-1.1 0.6-1.85l3.5 0.1v-0.1 0.1q0.25 1.65-0.65 3.25l-0.3 0.35q-1.3 1.65-3.1 2.25l-4.25 0.8q-2.3 0.15-4.35-0.65-3.65-1.35-6.6-4.15-1-0.95-2-1.4l1.3-2.2 0.45 0.6 0.25 0.35m9.75 0.35q-0.85 1.95 1.4 1.9l0.95-0.65-0.55 1.4q-1.55 2.1-5.1 0.5l-1.5-1.65q-1.05-2.55-0.15-4.25l4.95 2.75m-38.45 26.15 0.05-0.5 0.2 0.5h-0.25m51.35-23.3 1.25-0.05q1.2 0.15 1.7 0.8 0.4 0.6 0.2 1.6l-0.35 1.1-0.6-1.25q-0.4-0.5-0.85-0.55-1.5-0.5-0.25 1.75l0.15 0.25q1.4 2.5 4.4 2.55 3.3-0.05 6.2 1.45 1.65 0.75 2.9 2.35l2.05 3.3q0.75 1.55 0.6 3.5v0.4l-0.65 1.75-2.25-2.8 0.05-0.15 0.1-1.45q-0.1-2.05-1.3-3.7-1.6-2.35-4.25-2.8-2.7-0.5-5.25 0-2.2 0.45-3.7-1-2-1.95-1.55-4.8 0.2-1.85 1.4-2.25m18.05 23.35v0.05q0.5 0.85 0.2 1.6-0.2 0.65-0.95 1.2l-1 0.55q0.95-1.45 0.6-2.1-0.35-1-1.05 0.35l-0.45 0.95q-1.15 2.55 0.4 4.3l0.7 0.9 0.25 0.4-0.1 3.05-0.25-0.65-0.15-0.35q-1-1.9-2.7-3.05-1.5-1-1.2-2.85 0.35-2.5 2.6-4.25l0.3-0.2q1.9-1.35 2.8 0.1m-0.05 11.6q0.25 1.45-0.25 3.25l-1.25 3.45q-0.8 1.55-2.25 2.8l-0.3 0.25q-2.35 1.7-4.4 0.6-1.75-1.1-1.85-3.3-0.15-2.35 1.35-4.85l0.2-0.3q2.2-3.25 5.15-2.55l1.05 0.95q0.65 2.55-1.2 4.1-0.6 0.3-1.15 0.65l0.65-0.85q0.4-1.8-1.2-0.85-1.9 1.15-1.85 3.05-0.15 2.85 2.65 0.9l1.1-0.95q1.4-1.45 1.95-3.35l0.2-0.55 1.4-2.45m-3.85-14.15-0.15 0.05q-2.6 0.6-4.7-0.8-2.35-1.45-3.35-4.25l-0.05-0.35q-1.1-3.8 2.25-5.5l1.8-0.2q2.95 1.2 2.7 3.65l-0.2 0.6-0.2 0.7-0.25-1.05q-0.7-0.8-1.15-0.65-0.25 0.05-0.4 0.4l-0.3 0.6q-0.6 2.15 1.15 3.4l0.95 0.55 0.45 0.15 1.6 2.65-0.15 0.05" fill="#70491b" fill-rule="evenodd"/>
<path d="m273.6 160.35 3.85-0.75 3.25-0.35 6.45 1 2 0.35-1.85 0.05q-1.3 0.15-2.55 0.75l-0.35 0.25q-1.15 0.6-1.75 1.45l-0.8-0.15q-9.85-1.7-8.25-2.6m18.9 1.15-1.2-0.45 5.5 1.15 4.3 3.3q2.6 2.2 1.95 4.55-0.5-0.65-1.7-0.8l-1.25 0.05q-1.05-1.3-3.15-2.4l-0.25-0.1q-0.25-1.2-1.1-2.45-1.3-1.9-3.1-2.85m8.7 11.2q-1.25-2.25 0.25-1.75 0.45 0.05 0.85 0.55l-1.1 1.2" fill="#f5e8d1" fill-rule="evenodd"/>
<path d="m316.7 188.5 0.4 0.8 1.05 3.35q-0.9-1.45-2.8-0.1l-0.75-1.8-0.35-0.65 0.15-0.05q1.5-0.5 2.3-1.55m1.65 5.8 0.15 3.2-0.3 3-0.5 2.2-0.85-1.85-0.25-0.4v-0.4l-0.15-2.55-0.05-0.5-0.45-2.7q0.7-1.35 1.05-0.35 0.35 0.65-0.6 2.1l1-0.55q0.75-0.55 0.95-1.2m-1.45 10.35-0.8 1.6 0.4-3 0.25 0.65 0.15 0.75m-4.35-21.35 1 0.8 1.1 1.2-0.05 0.15q-0.5 2.2-1.8 1.95l-0.45-0.15-0.6-0.75v-0.5l0.1-0.55-1.3-2.75q0.15-0.35 0.4-0.4l1.15 0.65 0.25 1.05 0.2-0.7" fill="#f1dcc2" fill-rule="evenodd"/>
<path d="m259.2 227.95q-3.1-2.25-5.65-5.15l-5-6.95q-1.25-2.45-2.15-5.05l-1-3.15q0.6 1.15 1.55 1.9l1.9 1.25q1.4 2.35 3.15 4.45-0.15 0.9 1.1 1.45l0.2 0.05 0.45 0.45q2.4 2.35 5.15 4.3 2.25 3.05 5.05 5.65l4.15 3.45q-0.5 0.9-0.5 1.9-4.6-1.8-8.4-4.55m-14.3-40 1.05-3.6q0.95-3 2.6-5.85l-1.25 9.25q-0.6 0.35-1 1.15-1.15 2.15-0.4 4.9l0.55 1.35 1.4 4.3-0.55 0.8q-1.9 0.1-2.65 1.8l-0.05 0.3-0.2 0.65-0.3-2.65-0.15-2.85q-0.05-5.05 0.95-9.55m17.75-20.65v0.25q0.1 0.9 0.75 1.8l0.2 0.2q1.65-0.95 4.1-1.05 0.3 0.75 1.2 1.4l0.75 0.45v0.05q-0.8 1.65 0.9 3.55l1.2 0.25q0.8 2.1 3.5 2.3h1.35l-3.4 0.35h-3.45l-12-0.65-0.7-0.05q-0.95-2.15-2.9-2.5l-0.55-0.05q0.4-1.25 2.45-3 5.9-5.1 6.55-3.4l0.05 0.1m-15.4 39.35 0.05 1.3 0.6 1.15q-1-0.75-1.45-2-0.6-1.4-0.3-2.75l0.3-0.95 0.65-0.9 0.15 3.5v0.65" fill="#583914" fill-rule="evenodd"/>
<path d="m282.65 163.1q0.6-0.85 1.75-1.45l0.35-0.25q1.25-0.6 2.55-0.75l1.5 4.2q-1.05 0.4-1.6 1.6l-4.95-2.75 0.4-0.6m10.55 3.7q0-1.6-2.5-2l-1.3-0.1 3.1-3.2q1.8 0.95 3.1 2.85 0.85 1.25 1.1 2.45v0.1l-3.5-0.1m23.65 21.45-0.15 0.25q-0.8 1.05-2.3 1.55l-1.6-2.65q1.3 0.25 1.8-1.95l2.25 2.8m0.85 14.45 0.4 1.45v0.1l-1.4 2.45q0.3-1.1 0.2-2.05l-0.15-0.75 0.1-3.05 0.85 1.85" fill="#965c25" fill-rule="evenodd"/>
<path d="m250.15 175.95q0.3-0.55 0.7-0.95l0.1-0.15q1.1-1.25 2.65-1.25l0.55 0.05q1.95 0.35 2.9 2.5l0.2 0.65 0.05 0.45q0.45 1.85 0.15 3.5l-0.55 2.05-0.4 1.45q-0.7 1.65-1.75 2.65-1.9 1.8-4.3 2.2h-0.1q-2.1 0.4-2.7 3-0.65 2.65 0.4 1.95 0.55-0.25 0.7-1.45h0.25l0.25 0.55q0.6 1.95-0.95 2.6h-0.05q-1.15 0.45-1.8-0.6l-0.55-1.35q-0.75-2.75 0.4-4.9 0.4-0.8 1-1.15 0.65-0.4 1.55-0.3l2.7-0.25 1.15-0.4q1.6-0.65 2.4-2.6l0.2-0.65q0.65-1.8 0.4-3.75l-0.3-1.45q-1.05-3.25-2.6-0.95-1.1 1.4-0.3 3.45 0.7 1.75 1.4 0.15v-1.05l0.5 1.2q0.6 2.35-1.4 3.9l-1.35 0.05q-2.75-1.3-2.55-5.15v-0.35q0.2-2.15 1.05-3.65m17.7-9.55 0.35-0.6q1-1.55 2.55-2.15h0.1l1.8 3.15-1 0.15q-3.15 0.75-1.35 1.7l0.6 0.25q0.8 0.15 2-0.45l-0.5 1.15q-0.55 0.95-1.3 1.05l-1.45-0.3-0.75-0.45q-0.9-0.65-1.2-1.4-0.45-1 0.15-2.1m7.65-2.3 0.8 0.65 0.45 0.4-1.3 2.2-0.3-0.15-0.95-0.3 1.3-2.8" fill="#472c12" fill-rule="evenodd"/>
<path d="m270.25 225.6h-0.05l0.1-0.2-0.05 0.2m21.5-8.3v0.1l-0.6 0.4 0.6-0.5" fill="#ce8731" fill-rule="evenodd"/>
<path d="m270.3 225.4-0.1 0.2 0.1-0.2" fill="#d0b82f" fill-rule="evenodd"/>
<path d="m254.4 211.3q-1.6-3.9-1.6-8.4l0.25-3.35 1.35-5.1 0.4-1 0.2-0.3 0.1-0.3 1.2-2 0.1 2.3 0.55 3.25 0.6 2.2q1.7 5.1 5.8 9.3l2.6 2.25q6.3 4.8 14.6 4.8 10 0 17.15-7.05 6.2-6.3 6.95-14.75l0.2-0.1 0.5 1.05q1.75 4.05 1.75 8.8 0 3.4-0.95 6.5l-1.4 3.5q-1.5 2.9-3.9 5.5l-0.5-1.25-0.45-0.7-1.35-1.45q-1.4-1.2-2.55-0.65l-0.9 0.55v0.1l-1.4 0.8v-0.05l-1.95 1.55-0.6 0.5q-3.8 2.4-8.85 2.1-5.65-0.5-9.4-2.4 1.05 5.15-1.45 7.2l-1.15 0.7-0.1 0.2q-5.2-1.8-9.45-5.55-3.15-2.8-5.05-6.1-0.05-0.95-0.6-1.85l-0.7-0.8m14.25 3.75q-0.6 0.05-1 0.55-0.3 0.45-0.2 1.05l0.8 1.1 1.25 0.4q0.65 0 0.95-0.45 0.4-0.45 0.25-1.05-0.2-0.65-0.75-1.1-0.6-0.5-1.3-0.5m-3-4.6q-0.9-0.55-1.8-0.45t-1.35 0.85q-0.35 0.65-0.05 1.55l1.2 1.4 1.8 0.5 1.35-0.8q0.4-0.75 0.05-1.6-0.3-0.85-1.2-1.45" fill="#b18234" fill-rule="evenodd"/>
<path d="m273.6 160.35 3.85-0.75 3.25-0.35q6.4-0.4 12.5 1.45 1.75 0.55 3.5 1.25 6.65 2.8 12.15 8.3 3.85 3.85 6.35 8.25 4.75 8.35 4.8 18.75v1l-0.3 4.15q-1.3 10.1-7.6 18.15l-1.45 1.7-0.85 1.05-0.95 0.95-2.25 2.1-1.25 1.05m-0.05-0.15-4.1 2.9m-0.05 0.15-1.1 0.65-2.3 1.15m-2.9 1.05q-1.3 0.55-2.2 0.45l-2.05 0.45-1.6 0.45-0.5 0.05-2.85 0.65-1.55 0.05m0.1 0.1-2.25 0.05-1.85-0.05-3.4-0.1-2.05-0.45h-0.05l-1.75-0.5-2.3-0.6m-0.1-0.05-2.85-0.85v-0.05q-4.5-1.8-8.4-4.8-3.1-2.25-5.65-5.15l-5-6.95q-2.7-4.75-3.85-10.1m-0.4-2.15q-0.4-2.6-0.45-5.35v-1q-0.05-4.85 1.05-9.3l1.05-3.6q0.95-3 2.6-5.85v-0.05l1.6-2.5m0.8-1.1 2.85-3.45q4.65-5.15 8.8-7.2m0.7-0.35 0.3-0.15m-0.05 0.15-0.1 0.25 0.45-0.2q4.95-2.4 9.7-3.55m-10.3 3.5-0.15 0.1-0.55 0.25m10.65 10.3v-0.05m-18.85 36.85q-1.6-3.9-1.6-8.4l0.25-3.35 1.35-5.1 0.4-1 0.2-0.3 0.1-0.3 1.2-2q1.8-2.75 4.45-5.1 7.4-6.65 17.65-7.05h1.6q10.85-0.1 18.65 6.6l0.5 0.45q3.6 3.2 5.55 7l0.15 0.3 0.5 1.05q1.75 4.05 1.75 8.8 0 3.4-0.95 6.5l-1.4 3.5q-1.5 2.9-3.9 5.5l-1.7 1.65q-7.95 7.05-19.15 7.05l-6.35-0.6h-0.15l-3.25-0.9h-0.05q-5.2-1.8-9.45-5.55-3.15-2.8-5.05-6.1m0.6-23.1 0.1 2.3 0.55 3.25 0.6 2.2q1.7 5.1 5.8 9.3l2.6 2.25q6.3 4.8 14.6 4.8 10 0 17.15-7.05 6.2-6.3 6.95-14.75l0.05-0.4m-7.9-30.55-0.1-0.25m-26.15 71.7h-0.1" fill="none" stroke="#000" stroke-linecap="round" stroke-linejoin="round" stroke-opacity=".50196" stroke-width=".05"/>
</g>
</defs>
</svg>
