<?xml version="1.0" encoding="UTF-8"?>
<svg version="1.1" viewBox="0 0 126.85 92.101" xmlns="http://www.w3.org/2000/svg" xmlns:cc="http://creativecommons.org/ns#" xmlns:dc="http://purl.org/dc/elements/1.1/" xmlns:rdf="http://www.w3.org/1999/02/22-rdf-syntax-ns#" xmlns:xlink="http://www.w3.org/1999/xlink">
<metadata>
<rdf:RDF>
<cc:Work rdf:about="">
<dc:format>image/svg+xml</dc:format>
<dc:type rdf:resource="http://purl.org/dc/dcmitype/StillImage"/>
</cc:Work>
</rdf:RDF>
</metadata>
<g transform="translate(-211.55 -153.9)">
<use transform="translate(211.55,153.9)" width="126.85" height="92.099998" xlink:href="#a"/>
</g>
<defs>
<g id="a" transform="translate(63.4,46.05)">
<use transform="translate(-63.4,-46.05)" width="126.85" height="92.099998" xlink:href="#b"/>
</g>
<g id="b" transform="translate(63.4,46.05)">
<path d="m23.45 13.3 0.8-3.65-7.5-24.05q-6.4 3.6-16.55 0.8l-14.35-23.9-13.15-5.9 7.3 4.75q0.15 34.15 7.6 34.3h-4.65l12.05 7 10.55 3.45-11.4-1.65-12.5-7.1h-2.1l1.85-2-3.4-34.05-7.6-4.9 1.7-1.95q10.45-0.05 17.9 2.9l27.65 26.95 7.65 25.4-0.3 2.75-1.55 0.85" fill="url(#n)" fill-rule="evenodd"/>
<path d="m-20.45-2.65h2.1l12.5 7.1 11.4 1.65-10.55-3.45-12.05-7h4.65q-7.45-0.15-7.6-34.3l-7.3-4.75 13.15 5.9 14.35 23.9q10.15 2.8 16.55-0.8l7.5 24.05-0.8 3.65-3.1 1.6h-23.75l-0.25-1.45-0.5-0.05h-0.4l-11.6-1.15-4.4-2-1.7 1.25-2-1.15 5.7-9-1.25-1.6-1.25-1.75 0.6-0.65m9.7 9q3.4 4 10.55 5.15 8.85 0.4 15.65-1.25-11.85 0.15-22.55-3.65l-9.35-6.25 5.7 6" fill="url(#m)" fill-rule="evenodd"/>
<path d="m-62.9 28.65 0.3-0.15q1 2.75 5.1 5.15 4.15 2.45 11.5 4.55l1.5 0.4 6.5 1.55q16.4 3.4 38.05 3.45l15.9-0.55q12-0.8 22.1-2.9l6.5-1.55q15.95-4.3 18.1-10.1l0.3 0.15q0 6.65-16.9 11.5l-1.5 0.45q-18.45 4.95-44.5 4.95-26.1 0-44.55-4.95l-1.5-0.45q-16.95-4.85-16.9-11.5" fill="#1d2861" fill-rule="evenodd"/>
<path d="m25.4 26q1.2-0.95 1.4-1.95l0.05-0.45-0.15-0.7 1.25-9.45-1.15-2.1q9.6 1.2 17.75 3.4 18.4 4.95 18.4 11.95l-0.05 0.95-0.25 0.85q-2.15 5.8-18.1 10.1l-6.5 1.55q-10.1 2.1-22.1 2.9l9.45-17.05" fill="url(#j)" fill-rule="evenodd"/>
<path d="m-62.85 27.65 0.25 0.85-0.3 0.15 0.05-1m125.5 0.85 0.25-0.85 0.05 1-0.3-0.15" fill="#0f0" fill-rule="evenodd"/>
<path d="m23.45 13.3 1.55-0.85 0.3-2.75 1.5 1.65 1.15 2.1-1.25 9.45 0.15 0.7q-0.75 1.95-1.4-0.4l1.1-9.45q-1 2.3-5.35 3.25h-6.2q-5.2-0.65-3.25-2.1h8.6l3.1-1.6" fill="url(#i)" fill-rule="evenodd"/>
<path d="m-3.4 14.9h15.15q-1.95 1.45 3.25 2.1h6.2q4.35-0.95 5.35-3.25l-1.1 9.45q0.65 2.35 1.4 0.4l-0.05 0.45q-0.2 1-1.4 1.95-1.95 1.55-6.6 2.8-8 2.15-19.35 2.15l-4.75-0.1-1.8-0.05 1.75-15.9h1.95" fill="url(#h)" fill-rule="evenodd"/>
<path d="m-5.3 30.85 4.75 0.1q11.35 0 19.35-2.15 4.65-1.25 6.6-2.8l-9.45 17.05-15.9 0.55q-21.65-0.05-38.05-3.45l-6.5-1.55-1.5-0.4q-7.35-2.1-11.5-4.55l27.65-10.65 0.45 0.4 2.3 2.05v1.25l0.7 0.4 6.1 3.25 12.6 1.35 0.85 0.1 1.55-0.95" fill="url(#g)" fill-rule="evenodd"/>
<path d="m-10.75 6.35-5.7-6 9.35 6.25q10.7 3.8 22.55 3.65-6.8 1.65-15.65 1.25-7.15-1.15-10.55-5.15" fill="url(#f)" fill-rule="evenodd"/>
<path d="m-4.55 13.4h0.4l0.5 0.05 0.25 1.45h-1.95l-1.75 15.9 1.8 0.05-1.55 0.95-0.85-0.1-0.85-1.05 1.45-14.45v-0.65q0.85-2.3 2.55-2.15" fill="#333" fill-rule="evenodd"/>
<path d="m-22.25 11.5 1.7-1.25 4.4 2 11.6 1.15q-1.7-0.15-2.55 2.15v0.65l-10.9-1.15-3.25-1.8-4.9 12.2-0.25 1.65-0.7-0.4v-1.25l4.25-12.2 0.6-1.75" fill="url(#e)" fill-rule="evenodd"/>
<path d="m-26.4 27.1 0.25-1.65 4.9-12.2 3.25 1.8 10.9 1.15-1.45 14.45 0.85 1.05-12.6-1.35-6.1-3.25" fill="url(#d)" fill-rule="evenodd"/>
<path d="m-24.25 10.35 2 1.15-0.6 1.75-3.3-2.25-2.1 10.7-1.15 1.7-0.45-0.4 1.2-3.4 1.15-8.15 0.35-2.4 2.75-1.65-1.3 2.15 1.45 0.8" fill="url(#c)" fill-rule="evenodd"/>
<path d="m-19.8-0.25 1.25 1.6-5.7 9-1.45-0.8 1.3-2.15 4.6-7.65" fill="#7380d7" fill-rule="evenodd"/>
<path d="m-27.5 11.45-1.15 8.15-1.2 3.4-27.65 10.65q-4.1-2.4-5.1-5.15l-0.25-0.85-0.05-0.95q-0.05-6.7 16.9-11.55l1.5-0.4q7.8-2.1 17-3.3" fill="url(#l)" fill-rule="evenodd"/>
<path d="m-29.4 23.4 1.15-1.7 2.1-10.7 3.3 2.25-4.25 12.2-2.3-2.05" fill="url(#k)" fill-rule="evenodd"/>
<path d="m23.45 13.3 1.55-0.85 0.3-2.75-7.65-25.4-27.65-26.95q-7.45-2.95-17.9-2.9l-1.7 1.95 7.6 4.9 3.4 34.05-1.85 2-0.6 0.65 1.25 1.75m-4.45 10.6 2 1.15 1.7-1.25 4.4 2 11.6 1.15h0.1m0.3 0 0.5 0.05 0.25 1.45h23.75l3.1-1.6m-26.85 1.6h-1.95l-1.75 15.9 1.8 0.05 4.75 0.1q11.35 0 19.35-2.15 4.65-1.25 6.6-2.8 1.2-0.95 1.4-1.95l0.05-0.45m-34.55 8.1 0.85 0.1 1.55-0.95m-22.2-19.4 0.35-2.4 2.75-1.65 4.6-7.65m-4.45 10.6-1.45-0.8 1.3-2.15m-3.1 4.05-1.15 8.15-1.2 3.4 0.45 0.4m6.55-10.15 0.6-1.75m14.55 20.2-12.6-1.35-6.1-3.25-0.7-0.4v-1.25l-2.3-2.05m6.55-10.15-4.25 12.2m-35.75 2.2-0.05-0.95q-0.05-6.7 16.9-11.55l1.5-0.4q7.8-2.1 17-3.3m-35.1 17.05-0.25-0.85-0.05 1m125.85 0q0 6.65-16.9 11.5l-1.5 0.45q-18.45 4.95-44.5 4.95-26.1 0-44.55-4.95l-1.5-0.45q-16.95-4.85-16.9-11.5m125.55-0.15 0.25-0.85 0.05-0.95q0-7-18.4-11.95-8.15-2.2-17.75-3.4l1.15 2.1-1.25 9.45 0.15 0.7m36.05 4.05 0.05 1m-37.65-18.95 1.5 1.65" fill="none" stroke="#000" stroke-linecap="round" stroke-linejoin="round" stroke-opacity=".4" stroke-width=".5"/>
<path d="m-62.6 28.5q1 2.75 5.1 5.15m73.45 9.4-15.9 0.55q-21.65-0.05-38.05-3.45l-6.5-1.55-1.5-0.4q-7.35-2.1-11.5-4.55m120.15-5.15q-2.15 5.8-18.1 10.1l-6.5 1.55q-10.1 2.1-22.1 2.9" fill="none" stroke="#3ff" stroke-linecap="round" stroke-linejoin="round" stroke-opacity=".2" stroke-width=".5"/>
<path d="m-7.1 16.2v-0.65q0.85-2.3 2.55-2.15m-21.85 13.7 0.25-1.65 4.9-12.2 3.25 1.8 10.9 1.15-1.45 14.45 0.85 1.05" fill="none" stroke="#f9f9f9" stroke-linecap="round" stroke-linejoin="round" stroke-opacity=".32941" stroke-width=".5"/>
<path d="m-10-42.65 27.65 26.95 7.65 25.4 1.5 1.65q9.6 1.2 17.75 3.4 18.4 4.95 18.4 11.95l-0.05 0.95 0.05 1q0 6.65-16.9 11.5l-1.5 0.45q-18.45 4.95-44.5 4.95-26.1 0-44.55-4.95l-1.5-0.45q-16.95-4.85-16.9-11.5l0.05-1-0.05-0.95q-0.05-6.7 16.9-11.55l1.5-0.4q7.8-2.1 17-3.3l0.35-2.4 2.75-1.65 4.6-7.65-1.25-1.75 2.45-2.65-3.4-34.05-7.6-4.9 1.7-1.95q10.45-0.05 17.9 2.9z" fill="none" stroke="#000" stroke-linecap="round" stroke-linejoin="round" stroke-opacity=".4"/>
</g>
<linearGradient id="n" x1="-819.2" x2="819.2" gradientTransform="matrix(.0012 .021 -.0315 .0018 -1.95 -13.9)" gradientUnits="userSpaceOnUse">
<stop stop-color="#7380d7" offset="0"/>
<stop stop-color="#405bc8" offset=".98824"/>
</linearGradient>
<linearGradient id="m" x1="-819.2" x2="819.2" gradientTransform="matrix(.0059 .0219 -.0277 .0074 -7.1 -16.4)" gradientUnits="userSpaceOnUse">
<stop stop-color="#3b4eb5" offset="0"/>
<stop stop-color="#2b3c80" offset=".98824"/>
</linearGradient>
<linearGradient id="j" x1="-819.2" x2="819.2" gradientTransform="matrix(.0018 .007 -.0294 .0078 35.25 18.6)" gradientUnits="userSpaceOnUse">
<stop stop-color="#7380d7" offset="0"/>
<stop stop-color="#405bc8" offset=".98824"/>
</linearGradient>
<linearGradient id="i" x1="-819.2" x2="819.2" gradientTransform="matrix(.0076 0 0 .009 19.75 17.1)" gradientUnits="userSpaceOnUse">
<stop stop-color="#fefd61" offset="0"/>
<stop stop-color="#fefe15" offset=".98824"/>
</linearGradient>
<linearGradient id="h" x1="-819.2" x2="819.2" gradientTransform="matrix(-.0163 0 0 -.0105 9.35 22.35)" gradientUnits="userSpaceOnUse">
<stop stop-color="#feda33" offset="0"/>
<stop stop-color="#a25100" offset=".98824"/>
</linearGradient>
<linearGradient id="g" x1="-819.2" x2="819.2" gradientTransform="matrix(.0034 -.006 .0362 .0208 -17.3 32.3)" gradientUnits="userSpaceOnUse">
<stop stop-color="#3b4eb5" offset="0"/>
<stop stop-color="#2b3c80" offset=".98824"/>
</linearGradient>
<linearGradient id="f" x1="-819.2" x2="819.2" gradientTransform="matrix(-.0139 -.0064 .0022 -.0048 -4.9 5.55)" gradientUnits="userSpaceOnUse">
<stop stop-color="#1f2a60" offset="0"/>
<stop stop-color="#04060d" offset=".98824"/>
</linearGradient>
<linearGradient id="e" x1="-819.2" x2="819.2" gradientTransform="matrix(-.0074 -.002 .0029 -.0111 -15.65 20.2)" gradientUnits="userSpaceOnUse">
<stop stop-color="#ccc" offset="0"/>
<stop stop-color="#fff" offset=".98824"/>
</linearGradient>
<linearGradient id="d" x1="-819.2" x2="819.2" gradientTransform="matrix(-.0054 -.0054 .0092 -.0092 -15.55 22.85)" gradientUnits="userSpaceOnUse">
<stop stop-color="#666" offset="0"/>
<stop stop-color="#404040" offset=".98824"/>
</linearGradient>
<linearGradient id="c" x1="-819.2" x2="819.2" gradientTransform="matrix(.0018 .0018 -.0064 .0064 -28.1 14.2)" gradientUnits="userSpaceOnUse">
<stop stop-color="#fefd61" offset="0"/>
<stop stop-color="#fefe15" offset=".98824"/>
</linearGradient>
<linearGradient id="l" x1="-819.2" x2="819.2" gradientTransform="matrix(-.0123 .0051 -.0033 -.0079 -41.6 20.35)" gradientUnits="userSpaceOnUse">
<stop stop-color="#7380d7" offset="0"/>
<stop stop-color="#405bc8" offset=".98824"/>
</linearGradient>
<linearGradient id="k" x1="-819.2" x2="819.2" gradientTransform="matrix(-.002 -5e-4 .0022 -.0084 -26.7 18.25)" gradientUnits="userSpaceOnUse">
<stop stop-color="#feda33" offset="0"/>
<stop stop-color="#a25100" offset=".98824"/>
</linearGradient>
</defs>
</svg>
