<?xml version="1.0" encoding="UTF-8"?>
<svg version="1.1" viewBox="0 0 42.512 42.648" xmlns="http://www.w3.org/2000/svg" xmlns:cc="http://creativecommons.org/ns#" xmlns:dc="http://purl.org/dc/elements/1.1/" xmlns:rdf="http://www.w3.org/1999/02/22-rdf-syntax-ns#" xmlns:xlink="http://www.w3.org/1999/xlink">
<metadata>
<rdf:RDF>
<cc:Work rdf:about="">
<dc:format>image/svg+xml</dc:format>
<dc:type rdf:resource="http://purl.org/dc/dcmitype/StillImage"/>
</cc:Work>
</rdf:RDF>
</metadata>
<g transform="translate(-2.5191 -3.9039)">
<use transform="matrix(-2.5853 0 0 2.5833 44.98 3.9963)" width="16.4" height="17.25" xlink:href="#f"/>
</g>
<defs>
<g id="f" transform="translate(8.85,14.15)">
<use transform="translate(-8.85,-14.15)" width="16.4" height="16.450001" xlink:href="#k"/>
<use transform="translate(3,-11.6)" width="4.1999998" height="6.8000002" xlink:href="#e"/>
<use transform="matrix(.558 -.0457 0 .558 -5.8138 -1.9584)" width="12.05" height="4.8499999" xlink:href="#a"/>
<use transform="matrix(.558 -.0457 0 .558 -2.4094 -.9663)" width="14.55" height="7.25" xlink:href="#d"/>
<use transform="translate(-2.95,-7.8)" width="7.9499998" height="6.6999998" xlink:href="#c"/>
<use transform="translate(-8.45,-13.9)" width="11.9" height="8.8500004" xlink:href="#b"/>
</g>
<g id="k" transform="translate(8.85,14.15)">
<path d="m6.5-10.6-0.55 0.35-1.2-0.05q-0.85-0.5-0.9-1.05-0.1-0.6-0.4 0.15l-0.4 2-0.05 0.75-0.1-0.25-0.65-1.05q-1.45-2.15-1.9-3.35-1.05-0.8-2.3-0.7l-1 0.45-0.25-0.3-0.3-0.1-1 0.35-0.8 1.35q-0.3 0.75-0.05 1.4l-0.5 0.65h-0.1l-0.05 0.2-0.4 0.4-0.35 0.6-0.35 0.2-1 0.65v-0.05l-0.1 0.1-0.05 0.1-0.2 0.3q-0.35 1.05 1.55 1.4l0.45-0.15 2.55-0.2 1.55 0.45q-0.5 0.65-0.5 1.55 0 1.3 1.1 2.25l-0.6 0.1-3.3 0.8-0.15 0.1 0.1 0.35q1.7 0.2 2.65 1.4l3.4-1.55 0.45-0.2h0.15q1.55 0 2.7-0.9l0.1-0.05q1.1-1 1.15-2.3l-0.2-1.15 1.15-1.65 1.1-1.75q0.35-0.85 0.2-1.3-0.15-0.5-0.65-0.3" fill="none" stroke="#76400a" stroke-linecap="round" stroke-linejoin="round" stroke-width=".75"/>
<path d="m-1.25 1.6 3.7 0.35 1.65-2.1q0.25-0.3 0.1-0.4l0.2 0.1-1-0.55-0.5-0.3-0.5 0.25-1.75 0.85q-1.1 0.6-2.25 1.5" fill="none" stroke="#76400a" stroke-linecap="round" stroke-linejoin="round" stroke-width=".75"/>
</g>
<g id="e" transform="translate(.85 5.65)">
<use transform="translate(-.85 -5.65)" width="4.1999998" height="6.8000002" xlink:href="#j"/>
</g>
<g id="j" transform="translate(.85 5.65)">
<path d="m2.65-4.65q0.5-0.2 0.65 0.3 0.15 0.45-0.2 1.3l-1.1 1.75-1.3 1.9q-0.6 0.85-0.75 0.4v-0.75l-0.3 0.25q-0.25 0-0.4-1.3l-0.05-2.45 0.4-2q0.3-0.75 0.4-0.15 0.05 0.55 0.9 1.05l1.2 0.05 0.55-0.35" fill="#fecf30" fill-rule="evenodd"/>
</g>
<g id="a" transform="translate(10.15 -.05)">
<use transform="translate(-10.15 .05)" width="12.05" height="4.8499999" xlink:href="#i"/>
</g>
<g id="i" transform="translate(10.15 -.05)">
<path d="m-10.15 1.35 0.3-0.05 5.9-0.95 4.05-0.25 1.15-0.05q-0.15 0.25 0.15 0.8l0.5 1.5-0.15-0.25q0.05 0.3-0.85 0.55t-6.15 2.25q-1.65-2.2-4.7-2.9l-0.2-0.65" fill="#975d14" fill-rule="evenodd"/>
<path d="m-9.95 2q3.05 0.7 4.7 2.9 5.25-2 6.15-2.25t0.85-0.55l0.15 0.25-0.5-1.5q-0.3-0.55-0.15-0.8l-1.15 0.05-4.05 0.25-5.9 0.95-0.3 0.05" fill="none" stroke="#7e460a" stroke-linecap="round" stroke-linejoin="round" stroke-width=".05"/>
</g>
<g id="d" transform="translate(8.35 -.9)">
<use transform="matrix(.831 -.2688 .9362 .8302 -8.3382 4.1197)" width="12.05" height="4.8499999" xlink:href="#a"/>
</g>
<g id="c" transform="translate(3.95,3.35)">
<use transform="translate(-3.95,-3.35)" width="7.9499998" height="6.6999998" xlink:href="#h"/>
</g>
<g id="h" transform="translate(3.95,3.35)">
<path d="m0.55-3.25-0.05 0.05v-0.05h0.05" fill="#f2b89a" fill-rule="evenodd"/>
<path d="m0.5-3.2v-0.05 0.05" fill="#ed4900" fill-rule="evenodd"/>
<path d="m0.55-3.25q1.3 0.1 2.25 0.95 1.1 0.95 1.1 2.3-0.05 1.3-1.15 2.3l-0.1 0.05q-2.4-1-2.15-5.55l0.05-0.05" fill="#fee38b" fill-rule="evenodd"/>
<path d="m0.5-3.2q-0.25 4.55 2.15 5.55-1.15 0.9-2.7 0.9l-1.1-0.15q-0.9-0.2-1.6-0.8-1.1-1-1.1-2.3 0.05-1.35 1.2-2.3 1.15-1 2.75-0.95h0.4v0.05" fill="#fecf30" fill-rule="evenodd"/>
<path d="m2.65 2.35 0.1-0.05q1.1-1 1.15-2.3 0-1.35-1.1-2.3-0.95-0.85-2.25-0.95m2.1 5.6q-1.15 0.9-2.7 0.9l-1.1-0.15q-0.9-0.2-1.6-0.8-1.1-1-1.1-2.3 0.05-1.35 1.2-2.3 1.15-1 2.75-0.95h0.4" fill="none" stroke="#76400a" stroke-linecap="round" stroke-linejoin="round" stroke-width=".25"/>
</g>
<g id="b" transform="translate(6.75,6.2)">
<use transform="translate(-6.75,-6.2)" width="11.9" height="8.8500004" xlink:href="#g"/>
</g>
<g id="g" transform="translate(6.75,6.2)">
<path d="m2.05-5.4q0.45 1.2 1.9 3.35l0.65 1.05q0.2 3.85-3.55 1.6-0.95-2.1-0.7-5.3 0.1-0.8 1.7-0.7" fill="#fee38b" fill-rule="evenodd"/>
<path d="m2.05-5.4q-1.6-0.1-1.7 0.7-0.25 3.2 0.7 5.3 3.75 2.25 3.55-1.6 0.7 1.3 0.35 2.05-0.85 1.8-2.6 1.45l-6.1-1.65q-2.4-0.65-0.95-2.55l2.9-3.45q0.85-0.95 1.55-0.95 1.25-0.1 2.3 0.7" fill="#fecf30" fill-rule="evenodd"/>
<path d="m4.6-1-0.65-1.05q-1.45-2.15-1.9-3.35m2.55 4.4q0.7 1.3 0.35 2.05-0.85 1.8-2.6 1.45l-6.1-1.65q-2.4-0.65-0.95-2.55l2.9-3.45q0.85-0.95 1.55-0.95 1.25-0.1 2.3 0.7" fill="none" stroke="#76400a" stroke-linecap="round" stroke-linejoin="round" stroke-width=".25"/>
<path d="m-3.5-2.6-0.1-0.25q-0.3-0.7 0-1.55l0.8-1.25q0.5-0.55 1-0.4l0.3 0.1q-1.5 1.35-2 3.35" fill="#fff" fill-rule="evenodd"/>
<path d="m-1.5-5.95 0.4 0.65q0.2 0.7 0.05 1.9-0.1 1.15-0.7 1.3l-1.1 0.05q-0.4-0.1-0.65-0.55 0.5-2 2-3.35" fill="#f0e9d2" fill-rule="evenodd"/>
<path d="m0.8-5.45q1.1 3.7-0.3 4.65l-1.2-0.5q-0.75-0.5-0.5-1.75 0.3-1.3 0.8-1.9t1.2-0.5" fill="#fff" fill-rule="evenodd"/>
<path d="m0.5-0.8q1.4-0.95 0.3-4.65l1.25 0.9q0.5 0.75 0.65 1.75 0.1 1-0.55 1.6-0.65 0.55-1.35 0.45l-0.3-0.05" fill="#f0e9d2" fill-rule="evenodd"/>
<path d="m-4.75 1.45-0.45 0.15q-1.9-0.35-1.5-1.4l0.15-0.3h-0.05l0.1-0.1 0.1-0.15v0.1l1-0.65q0.8-0.4 1.15-1.4l2.55 0.1 1.35 0.9q1.6 1.05 1.75 1.7-3.2 0.2-6.15 1.05" fill="#fcbe44" fill-rule="evenodd"/>
<path d="m1.4 0.4-1.3 0.7-4.85 0.35q2.95-0.85 6.15-1.05" fill="#b38130" fill-rule="evenodd"/>
<path d="m1.5-1.15-0.25 0.15-0.3-0.15-0.1-0.25 0.1-0.3 0.3-0.1 0.25 0.1 0.15 0.3-0.15 0.25" fill-rule="evenodd"/>
<path d="m-2.75-4.25-0.25 0.15-0.3-0.15-0.1-0.25 0.1-0.3 0.3-0.1 0.25 0.1 0.15 0.3-0.15 0.25" fill-rule="evenodd"/>
<path d="m-3.2-1.55-0.75 0.85-0.95 0.65-0.5 0.05 0.2-0.55 0.75-0.9 0.9-0.65 0.55-0.05-0.2 0.6" fill="#fff8e0" fill-opacity=".6" fill-rule="evenodd"/>
</g>
</defs>
</svg>
