<?xml version="1.0" encoding="UTF-8"?>
<svg version="1.1" viewBox="0 0 26.988 14.895" xmlns="http://www.w3.org/2000/svg" xmlns:cc="http://creativecommons.org/ns#" xmlns:dc="http://purl.org/dc/elements/1.1/" xmlns:rdf="http://www.w3.org/1999/02/22-rdf-syntax-ns#" xmlns:xlink="http://www.w3.org/1999/xlink">
<metadata>
<rdf:RDF>
<cc:Work rdf:about="">
<dc:format>image/svg+xml</dc:format>
<dc:type rdf:resource="http://purl.org/dc/dcmitype/StillImage"/>
</cc:Work>
</rdf:RDF>
</metadata>
<g transform="translate(-261.48 -192.48)">
<use transform="translate(261.5,192.5)" width="26.950001" height="14.85" xlink:href="#a"/>
</g>
<defs>
<g id="a" transform="translate(-261.5,-192.5)">
<path d="m285.85 197.8 0.8 2.95-2.3 2.4-0.7 0.3-1.05-2.1 1.05 2.1-2.9 1.5-0.05 0.05v0.1l-6.95-0.55-2.7-1.45-0.5-0.35q-3.55-2.55-3.25-5.6v-0.05l1.6-0.6-1.6 0.6q0.15-1.85 1.7-3.3l0.25-0.25q1.75-0.7 3.6-0.9l0.8-0.05 2.85 0.2q3 0.45 5.4 1.8 1.9 1.05 3.4 2.65l0.55 0.55m-8.2 2.35 0.6-0.8-0.6 0.8m4-0.45-0.05-1.3 0.05 1.3m-11.45-5.95-1.2 0.05 1.2-0.05m10.95 12.55v0.05h-0.1l0.1-0.05m3.55-8.3-0.95-1 0.95 1m-11.5 1.2 1-0.55-1 0.55m-4-1.9 1.3-0.05-1.3 0.05m1.7 4.75-0.35 0.7 0.35-0.7" fill="#e7d885" fill-rule="evenodd"/>
<path d="m283.65 203.45 0.7-0.3 2.3-2.4-0.8-2.95q2.8 3.15 2.6 5.2-0.2 2-3.4 3.2l-1.4-2.75" fill="#698543" fill-rule="evenodd"/>
<path d="m280.7 205.1v-0.1l0.05-0.05 2.9-1.5 1.4 2.75-0.7 0.25h-0.2l-3-0.1v-0.05l-0.1 0.05q-4.15-0.4-7.3-1.8l6.95 0.55 0.45 1.2-0.45-1.2" fill="#3f5232" fill-rule="evenodd"/>
<path d="m281.15 206.35 3 0.1-2.75 0.65-0.25-0.75 0.25 0.75q-3.1 0.45-6.9 0.15l-5.45-0.95 0.9-2.05-0.9 2.05-3.95-1.45q-3-1.55-3.5-3.2l-0.1-0.95q0.15-1.7 2.8-3.95l-0.6 3.45 6.3 3.95-0.05 0.1 3.8 0.3q3.15 1.4 7.3 1.8h0.1m-19.55-4.7q0.8-1.45 2.3-2.6-1.5 1.15-2.3 2.6" fill-rule="evenodd"/>
<path d="m269.25 193.55-0.25 0.25q-1.55 1.45-1.7 3.3v0.05l-0.05-0.05h0.05-0.05q-1.95 0.85-3.35 1.95l0.4-2.3 1.3-1.05 0.75-0.55q1.4-1 2.9-1.6" fill="#dfc262" fill-rule="evenodd"/>
<path d="m273.75 204.55-3.8-0.3 0.05-0.1-6.3-3.95 0.2-1.15q1.4-1.1 3.35-1.95l0.05 0.05q-0.3 3.05 3.25 5.6l0.5 0.35 2.7 1.45m-3.2-1.8-0.55 1.4 0.55-1.4" fill="#dbc860" fill-rule="evenodd"/>
<path d="m269 193.8 1.2-0.05m11.4 4.65 0.05 1.3m-3.4-0.35-0.6 0.8m-3.45-1.5-1 0.55m-2.7-1.95-1.3 0.05" fill="none" stroke="#3f5232" stroke-linecap="round" stroke-linejoin="round" stroke-width=".25"/>
<path d="m273.65 192.6-0.8 0.05m9.05 1.95 0.8 0.1m1.05 2.3 0.95 1" fill="none" stroke="#698543" stroke-linecap="round" stroke-linejoin="round" stroke-width=".25"/>
<path d="m283.65 203.45-1.05-2.1m-1.85 3.6-0.05 0.05v0.1l0.45 1.2v0.05l0.25 0.75m3.65-0.9-1.4-2.75m-13.7 0.8-0.9 2.05m-1.75-9.2h-0.05q-1.95 0.85-3.35 1.95-1.5 1.15-2.3 2.6m8.4 2.5 0.55-1.4 0.35-0.7m-3.6-4.95 1.6-0.6m1.1 7.65-0.05 0.1" fill="none" stroke="#af9d3d" stroke-linecap="round" stroke-linejoin="round" stroke-width=".25"/>
<path d="m264.3 196.75 1.3-1.05 0.75-0.55q1.4-1 2.9-1.6" fill="none" stroke="#9c801f" stroke-linecap="round" stroke-linejoin="round" stroke-width=".25"/>
</g>
</defs>
</svg>
