<?xml version="1.0" encoding="UTF-8" standalone="no"?>
<!DOCTYPE svg PUBLIC "-//W3C//DTD SVG 1.1//EN" "http://www.w3.org/Graphics/SVG/1.1/DTD/svg11.dtd">
<svg width="100%" height="100%" viewBox="0 0 39 44" version="1.1" xmlns="http://www.w3.org/2000/svg" xmlns:xlink="http://www.w3.org/1999/xlink" xml:space="preserve" xmlns:serif="http://www.serif.com/" style="fill-rule:evenodd;clip-rule:evenodd;stroke-linecap:round;stroke-linejoin:round;">
    <g transform="matrix(1,0,0,1,-0.55,-4.25)">
        <g>
            <g id="shape0">
                <path d="M14.85,13.4L16.05,13.9L17.35,14.55L14.8,14.55L14.85,13.4M5.2,26.75L5.1,24.9L8.7,25.75L5.2,26.75M8.55,33.25L7.4,33.9L6.8,34.2L6.75,34.2L8.55,33.25" style="fill:#972b54;"/>
                <path d="M22.55,7.95L23.25,8.55L23.5,8.15L23.6,8.1C23.633,8.033 23.683,8 23.75,8L24.2,7.85L24.8,7.95L25.2,8.25L25.4,8.65L25,8.75C24.7,8.85 24.433,9.033 24.2,9.3L24.15,9.35C24.617,9.883 24.817,10.417 24.75,10.95L24.35,11.25L23.7,10.05L23.6,10.8L23.8,11.35C23.433,11.35 23.15,11.217 22.95,10.95C22.75,10.717 22.65,10.433 22.65,10.1L22.65,9.75C22.65,9.617 22.7,9.467 22.8,9.3L22.25,8.9L21.7,8.45C19.333,6.583 16.683,5.833 13.75,6.2C11.45,6.233 9.6,6.867 8.2,8.1C7.4,8.767 6.767,9.617 6.3,10.65C6.033,11.183 5.917,11.8 5.95,12.5L6.05,13.7C6.517,14.7 7.233,15.35 8.2,15.65L8.8,15.8L11.45,16.15L11.45,16.2L11.1,16.5L8.3,16.35L8.2,16.35C6.767,15.95 5.733,15.1 5.1,13.8L5,12.45C4.967,11.683 5.083,11 5.35,10.4C6.05,8.933 7,7.767 8.2,6.9C9.6,5.9 11.333,5.333 13.4,5.2C16.867,4.967 19.9,5.883 22.5,7.95L22.2,8.15L22.55,7.95M26.8,10.1L26.9,9.7L27.2,8.85L27.2,8.8L28.4,4.5C28.5,6.533 28.35,9.083 27.95,12.15L27.8,12.95L27.3,15.25L27.1,15.9L27.3,15.25C29.067,15.017 30.933,15.017 32.9,15.25C34.3,15.583 35.45,16.25 36.35,17.25C37.217,18.25 37.817,19.45 38.15,20.85C38.75,23.217 38.95,25.667 38.75,28.2L38.3,30.8L37.85,32.2C37.517,33.067 37.067,33.817 36.5,34.45L34.7,35.9C34.033,36.333 33.35,36.7 32.65,37C31.65,37.467 30.533,37.75 29.3,37.85L25.1,37.5C22.333,37.167 19.833,36.15 17.6,34.45C16.8,33.817 16.1,33.083 15.5,32.25L16.15,31.8C16.683,32.533 17.333,33.2 18.1,33.8C20.167,35.4 22.5,36.35 25.1,36.65L29,36.95L32.1,36.2L34,35.15L35.65,33.8L36.95,31.7L37.35,30.35L37.75,27.95C37.95,25.617 37.767,23.35 37.2,21.15C36.9,19.817 36.35,18.683 35.55,17.75C34.717,16.85 33.65,16.233 32.35,15.9C30.517,15.667 28.767,15.667 27.1,15.9L27.1,16.05L26.25,18.5L25.15,19.25L24.95,15L26.65,10.5L26.8,10.1M11.85,20.5L12.3,20.65L12.05,20.65L11.85,20.5M12.4,20.7L20.55,23.65L21.15,27.75L21.1,27.8L19.5,27.85L19.15,25.65L12.95,21.3L12.4,20.9L12.4,20.7M14.05,33.15L14.05,33.2L11.8,32.9L11.75,31.45L11.85,31.4L11.7,30.1L13.85,30.15L14.05,33.15M5.2,18.1L8.7,17.8L8.4,18.35L6,18.65C5.633,18.783 5.367,19.017 5.2,19.35L5,19.9C5.167,20.567 5.633,21.183 6.4,21.75L6.25,22.05C5.05,21.25 4.333,20.433 4.1,19.6L4.35,18.9C4.517,18.5 4.8,18.233 5.2,18.1" style="fill:#541834;"/>
                <path d="M24.95,15L25.15,19.25L25.25,21.05L22.9,26L21.15,27.75L20.55,23.65C22.217,20.917 23.683,18.033 24.95,15M16.15,31.8L15.5,32.25L14.05,33.15L13.85,30.15C16.117,28.617 17.883,27.117 19.15,25.65L19.5,27.85L19.65,28.95L16.15,31.8M11.8,32.9L11.85,34.35C10.217,35.083 8.533,35.683 6.8,36.15L6.75,34.2L6.8,34.2L7.4,33.9L8.55,33.25L11.75,31.45L11.8,32.9" style="fill:#895501;"/>
                <path d="M4.25,30.45L4.1,31.15L4.1,30.45L4.25,30.45" style="fill:#ffc95b;"/>
                <path d="M28.4,4.5L27.2,5.4L26.35,6.05L26.05,6.25L23.75,8C23.683,8 23.633,8.033 23.6,8.1L23.5,8.15L23.25,8.55L22.55,7.95L23.15,7.65L23.1,7.55C24.833,6.483 26.6,5.467 28.4,4.5M21.7,8.45L22.25,8.9L18.65,11.7L17.55,12.6L17.45,13.7L17.35,14.55L16.05,13.9L14.85,13.4L14.85,13.35L14.95,13.25L15.65,12.7L21.7,8.45M24.65,13.75L26.8,10.1L26.65,10.5L24.95,15C23.683,18.033 22.217,20.917 20.55,23.65L12.4,20.7L12.4,20.65L12.3,20.65L11.85,20.5L15.7,21L18.45,21.3L20.3,21.3L20.3,21.25L21.65,19L23,16.65L23.8,15.25L24.15,14.7L24.65,13.75M11.1,16.5L11.45,16.2L11.45,16.15L13.35,14.55L17.35,14.55L15.9,14.8L14.5,15.05L13.55,15.2L9.85,18.5L9.25,19.05L8.55,20.25L7.65,21.95L6.85,23.35L8,24.85L8.7,25.75L4.9,28.15L4.4,29.15L3.05,31.7L2.15,33.55L5.05,33.1C5.783,33.533 6.733,33.333 7.9,32.5L10.55,31.2L10.55,29.15L11.7,29.15L10.55,29.15L13.55,29.15L16.45,26.4L17.35,25.6L12.95,21.3L19.15,25.65C17.883,27.117 16.117,28.617 13.85,30.15L11.7,30.1L11.85,31.4L11.75,31.45L8.55,33.25L6.75,34.2L0.8,35.1L1.3,33.65L4.1,27.05L5.2,26.75L8.7,25.75L8,24.85L8.7,25.75L5.1,24.9C5.967,23.167 6.883,21.55 7.85,20.05L8.7,18.65L11.1,16.5M23.8,15.25L24.15,14.7L23.8,15.25" style="fill:#f5feb6;"/>
                <path d="M26.35,6.05L27.2,5.4L28.4,4.5L27.2,8.8L27.2,8.85L26.9,9.7L26.8,10.1L24.65,13.75L24,12.05L22.25,12.05L22.25,8.9L22.8,9.3C22.7,9.467 22.65,9.617 22.65,9.75L22.65,10.1C22.65,10.433 22.75,10.717 22.95,10.95C23.15,11.217 23.433,11.35 23.8,11.35L23.9,11.35L24.35,11.25L24.75,10.95L25,10.75L25.15,10.55L25.5,9.4L25.4,8.65L25.2,8.25L24.8,7.95L24.2,7.85L23.75,8L26.05,6.25L27.15,8.8L27.2,8.85L27.15,8.8L27.2,8.8L27.2,5.4L26.35,6.05M17.45,13.7L17.55,12.6L17.45,13.7M18.65,11.7L20.45,10.3L20.45,14.65L22.9,12.85L23.8,15.25L23,16.65L22.2,15L20.4,16.35L21.65,19L20.3,21.25L20.3,21.3L18.45,21.3L15.7,21L11.85,20.5L12.05,20.65L12.05,22.8L13.65,23.8L15.15,23.45L17.35,25.6L16.45,26.4L12.95,24.6L9.95,25.95L10.55,29.15L10.55,31.2L7.9,32.5C6.733,33.333 5.783,33.533 5.05,33.1L2.15,33.55L3.05,31.7L8.25,31L9.5,28.15L4.9,28.15L8.7,25.75L11.5,23.35L8.55,20.25L9.25,19.05L9.85,18.5L9.25,19.05L13.75,19.05L14.5,15.05L13.55,15.2L14.5,15.05L15.9,14.8L15.9,16L19.3,16L18.65,11.7M6.85,23.35L7.65,21.95L6.85,23.35M15.7,21L20.3,21.25L19.5,17.15L15.7,17.15L15.7,21M12.4,20.9L12.95,21.3L15.15,23.45L12.4,20.9M4.9,28.15L4.4,29.15L4.9,28.15" style="fill:#17e16c;"/>
                <path d="M26.05,6.25L26.35,6.05L27.2,5.4L27.2,8.8L27.15,8.8L26.05,6.25M22.25,8.9L22.25,12.05L24,12.05L24.65,13.75L24.15,14.7L23.8,15.25L22.9,12.85L20.45,14.65L20.45,10.3L22.25,8.9M17.35,14.55L17.45,13.7L17.55,12.6L18.65,11.7L19.3,16L15.9,16L15.9,14.8L17.35,14.55M23,16.65L21.65,19L20.4,16.35L22.2,15L23,16.65M12.3,20.65L12.4,20.65L12.4,20.9L15.15,23.45L13.65,23.8L12.05,22.8L12.05,20.65L12.3,20.65M8.55,20.25L11.5,23.35L8.7,25.75L8,24.85L6.85,23.35L7.65,21.95L8.55,20.25M4.9,28.15L9.5,28.15L8.25,31L3.05,31.7L4.4,29.15L4.9,28.15M10.55,29.15L9.95,25.95L12.95,24.6L16.45,26.4L13.55,29.15L10.55,29.15M9.25,19.05L9.85,18.5L13.55,15.2L14.5,15.05L13.75,19.05L9.25,19.05M15.7,21L15.7,17.15L19.5,17.15L20.3,21.25L15.7,21M4.25,30.45L4.1,30.45L4.1,31.15L4.25,30.45" style="fill:#0c7430;"/>
                <path d="M6.8,36.15L1,37.1L0.8,35.1L6.75,34.2L6.8,36.15" style="fill:#031b0b;"/>
                <path d="M28.4,4.5C26.6,5.467 24.833,6.483 23.1,7.55L22.5,7.95M23.25,8.55L23.5,8.15L23.6,8.1C23.633,8.033 23.683,8 23.75,8L24.2,7.85L24.8,7.95L25.2,8.25L25.4,8.65L25.5,9.4L25.15,10.55L25,10.75L24.75,10.95L24.35,11.25L23.9,11.35L23.8,11.35L23.6,10.8L23.7,10.05M22.8,9.3C22.7,9.467 22.65,9.617 22.65,9.75L22.65,10.1C22.65,10.433 22.75,10.717 22.95,10.95C23.15,11.217 23.433,11.35 23.8,11.35M24.2,9.3C24.433,9.033 24.7,8.85 25,8.75L25.4,8.65M26.8,10.1L26.9,9.7L27.2,8.85L27.2,8.8L28.4,4.5C28.5,6.533 28.35,9.083 27.95,12.15L27.8,12.95L27.3,15.25L27.1,15.9M11.45,16.2L11.45,16.15L13.35,14.55M21.7,8.45L15.65,12.7L14.95,13.25L14.85,13.35M26.8,10.1L26.65,10.5L24.95,15C23.683,18.033 22.217,20.917 20.55,23.65L12.4,20.7M26.25,18.5L27.1,16.05M11.85,20.5L12.3,20.65M16.15,31.8L15.5,32.25L14.05,33.15L14.05,33.2M11.85,34.35C10.217,35.083 8.533,35.683 6.8,36.15L1,37.1L0.8,35.1L1.3,33.65L4.1,27.05M5.1,24.9C5.967,23.167 6.883,21.55 7.85,20.05L8.7,18.65L11.1,16.5M19.65,28.95L16.15,31.8M11.75,31.45L11.85,31.4L11.7,30.1L13.85,30.15C16.117,28.617 17.883,27.117 19.15,25.65M11.75,31.45L8.55,33.25L7.4,33.9L6.8,34.2L6.75,34.2L0.8,35.1" style="fill:none;fill-rule:nonzero;stroke:#470000;stroke-opacity:0.38;stroke-width:0.5px;"/>
                <path d="M14.05,33.2L11.8,32.9L11.85,34.35M11.8,32.9L11.75,31.45M13.85,30.15L14.05,33.15" style="fill:none;fill-rule:nonzero;stroke:#470000;stroke-opacity:0.38;stroke-width:0.1px;"/>
                <path d="M25.15,19.25L26.25,18.5M25.25,21.05L25.15,19.25" style="fill:none;fill-rule:nonzero;stroke:#6b0000;stroke-width:0.1px;"/>
                <path d="M27.1,16.05L27.1,15.9C28.767,15.667 30.517,15.667 32.35,15.9M14.85,13.4L14.8,14.55" style="fill:none;fill-rule:nonzero;stroke:#541834;stroke-width:0.1px;"/>
                <path d="M21.1,27.8L22.9,26L25.25,21.05" style="fill:none;fill-rule:nonzero;stroke:#541834;stroke-width:0.5px;"/>
                <path d="M26.05,6.25L26.35,6.05L27.2,5.4L27.2,8.8M22.25,8.9L22.25,12.05L24,12.05L24.65,13.75L24.15,14.7L23.8,15.25L22.9,12.85L20.45,14.65L20.45,10.3L22.25,8.9M27.2,8.85L27.15,8.8L26.05,6.25M17.35,14.55L17.45,13.7L17.55,12.6L18.65,11.7L19.3,16L15.9,16L15.9,14.8L17.35,14.55M23,16.65L21.65,19L20.4,16.35L22.2,15L23,16.65M8.55,20.25L11.5,23.35L8.7,25.75L8,24.85L6.85,23.35L7.65,21.95L8.55,20.25M4.9,28.15L9.5,28.15L8.25,31L3.05,31.7L4.4,29.15L4.9,28.15M10.55,29.15L9.95,25.95L12.95,24.6L16.45,26.4L13.55,29.15L10.55,29.15M15.15,23.45L13.65,23.8L12.05,22.8L12.05,20.65M9.25,19.05L9.85,18.5L13.55,15.2L14.5,15.05L13.75,19.05L9.25,19.05M15.7,21L15.7,17.15L19.5,17.15L20.3,21.25L15.7,21M15.15,23.45L12.4,20.9" style="fill:none;fill-rule:nonzero;stroke:#071007;stroke-width:0.05px;"/>
            </g>
            <g id="sprite0" transform="matrix(0.7513,0,0,1.0625,2.60004,43.15)">
                <g id="shape1">
                    <path d="M25.35,2.4C25.317,3.067 24.067,3.633 21.6,4.1L12.7,4.8L3.75,4.1C1.25,3.633 0.017,3.067 0.05,2.4C0.017,1.733 1.25,1.167 3.75,0.7L12.7,0L21.6,0.7C24.067,1.167 25.317,1.733 25.35,2.4" style="fill-opacity:0.6;"/>
                </g>
            </g>
        </g>
    </g>
</svg>
