<?xml version="1.0" encoding="UTF-8" standalone="no"?>
<!DOCTYPE svg PUBLIC "-//W3C//DTD SVG 1.1//EN" "http://www.w3.org/Graphics/SVG/1.1/DTD/svg11.dtd">
<svg width="100%" height="100%" viewBox="0 0 186 170" version="1.1" xmlns="http://www.w3.org/2000/svg" xmlns:xlink="http://www.w3.org/1999/xlink" xml:space="preserve" xmlns:serif="http://www.serif.com/" style="fill-rule:evenodd;clip-rule:evenodd;stroke-linecap:round;stroke-linejoin:round;">
    <g transform="matrix(1,0,0,1,-103.907,-72.7741)">
        <g transform="matrix(8.60084,0,0,8.60084,176.001,148.246)">
            <g id="shape0">
                <path d="M7.3,-8.1L7.3,-8.6L7.85,-8.6L8.3,-8.55L10.15,-8L10.3,-7.9L10.35,-7.9L10.45,-7.8C11.417,-7.233 12.083,-6.433 12.45,-5.4L12.7,-4.2L12.35,-2.8L12,-2.35L11.35,-2.6L11.45,-2.75L11.5,-2.9L11.6,-3L11.6,-3.15L12.05,-4.2L12.1,-4.75L11.7,-5.9L11.25,-6.45C10.65,-7.117 9.967,-7.6 9.2,-7.9L7.3,-8.1M6.1,-8.3L6.3,-7.8C5.867,-7.667 5.5,-7.467 5.2,-7.2L4.6,-6.2L4.1,-6.5L4.3,-6.8C4.7,-7.533 5.3,-8.033 6.1,-8.3M4.55,-5.15L5.65,-4.35L5.95,-4.15L6.45,-3.65L8.5,-1.25L8.95,-1.25L9.35,-1.3L9.65,-0.85L8.75,-0.85L8.9,-0.6L9.35,0.4L9.35,0.45L9.6,1.1L9.75,1.85L9.9,2.5L9.9,3.35L9.8,5L9.7,5.3L9.05,6.15L8.25,5.55L8.35,5.45L8.7,3.3L8.7,3.1C8.633,1.733 8.25,0.45 7.55,-0.75L7.45,-1L7.15,-1.4L7.1,-1.5L5.7,-3.1L5.05,-3.65L4.7,-3.95L4.45,-4.1L3.85,-4.5C2.583,-5.267 1.25,-5.7 -0.15,-5.8L-0.2,-6.6L-0.1,-6.6L1.3,-6.45L1.75,-6.35L2.1,-6.25L2.15,-6.25L2.8,-6L3.1,-5.85C3.2,-5.817 3.317,-5.767 3.45,-5.7L3.5,-5.7L3.85,-5.55L3.9,-5.9L4.05,-6.2L4.55,-6L4.3,-5.3L4.55,-5.15M9.75,-1.4C10.117,-1.533 10.45,-1.717 10.75,-1.95L11.25,-1.7L10.5,-1.15L9.95,-1L9.75,-1.4M8.5,-1.25L8.75,-0.85L8.5,-1.25M3.85,-5.55C3.983,-5.483 4.133,-5.4 4.3,-5.3C4.133,-5.4 3.983,-5.483 3.85,-5.55M-6.5,2.35L-6.55,2.25L-6.75,1.65L-6.2,1.5L-5.85,2.55L-5.55,3.3L-4.7,4.7L-3.4,6.15L-3.6,6.45L-5.05,4.95L-6.5,2.35M-6.85,1.1L-7,-0.35L-6.9,-1.6L-6.85,-1.95L-6.5,-3L-6.6,-3L-6.9,-3.15L-6.75,-3.55L-6.5,-3.4L-6.35,-3.35L-5.2,-4.85L-4.9,-5.15L-4.65,-5.3L-3.95,-5.8L-3.85,-5.85L-3.95,-6.3L-4,-6.5L-3.6,-6.65L-3.4,-6.05L-3.85,-5.85L-3.4,-6.05L-3,-6.25L-1.9,-6.55L-1.5,-6.55L-1.35,-6.6L-1.1,-6.6L-0.95,-5.85L-1.1,-5.8C-1.967,-5.8 -2.733,-5.617 -3.4,-5.25L-3.85,-5L-4,-4.95L-4.3,-4.7L-4.75,-4.3L-5.6,-3.25L-5.9,-2.8C-6.2,-2.2 -6.367,-1.517 -6.4,-0.75L-6.4,-0.2L-6.35,0.85L-6.3,1.05L-6.4,1.05L-6.85,1.1M-7.1,-3.3L-7.8,-4.05L-7.45,-4.2L-6.95,-3.65L-7.1,-3.3M-8.1,-4.65C-8.3,-5.083 -8.383,-5.517 -8.35,-5.95L-8.25,-6.7L-8.15,-7.1L-8.05,-7.05C-7.817,-7.65 -7.533,-8.017 -7.2,-8.15L-7.3,-8.25L-7.25,-8.35L-7.2,-8.4L-7,-8.2L-6.9,-8.3L-6.95,-8.4L-6.95,-8.55L-6.85,-8.6L-6.75,-8.4L-6.35,-8.55L-5.95,-8.55L-5.95,-8.75L-5.75,-8.7L-5.75,-8.25L-6.65,-8.3C-7.083,-8.167 -7.45,-7.883 -7.75,-7.45L-8,-6.55L-8.05,-5.7L-7.9,-5.3L-7.9,-5.15L-7.7,-4.75L-8.1,-4.65M4.65,8.65L4.75,8.65L5.95,8.15L7.85,6.35L8.4,6.95L7.65,8.1L7.2,8.45L7.2,8.5L7.1,8.55L7.05,8.55C5.783,9.15 4.517,9.483 3.25,9.55L2.15,9.55L1.55,9.3L1.45,8.75L4.65,8.65M1.35,9.2L1.15,9.15L0.6,9L-0.15,8.75L-2.4,7.6L-2.65,7.35L-2.55,6.85L-0.75,8L0.05,8.35L1.3,8.7L1.35,9.2M-4.05,-6.7L-4.45,-7.45L-5.1,-8.05L-5.15,-8.05L-5.05,-8.45C-4.55,-8.217 -4.133,-7.8 -3.8,-7.2L-3.65,-6.9L-4.05,-6.7M-6.35,-3.35L-6.5,-3L-6.35,-3.35" style="fill:#cfdada;"/>
                <path d="M11.35,-2.6L12,-2.35L11.5,-1.9L11,-2.15L11.3,-2.5L11.35,-2.6M6.8,-8.5L6.9,-7.95L6.3,-7.8L6.1,-8.3L6.7,-8.45L6.8,-8.5M-0.2,-6.6L-0.15,-5.8L-0.65,-5.85L-0.75,-6.55L-0.65,-5.85L-0.95,-5.85L-1.1,-6.6L-0.85,-6.65L-0.75,-6.65L-0.75,-6.55L-0.75,-6.65L-0.2,-6.6M8.25,5.55L9.05,6.15L8.7,6.6L8.4,6.95L7.85,6.35L8.05,6.05L8.25,5.65L8.25,5.55M4.05,-6.2L4.1,-6.5L4.6,-6.2L4.55,-6L4.05,-6.2M-6.75,1.65L-6.75,1.5L-6.85,1.1L-6.4,1.05L-6.3,1.05L-6.25,1.35L-6.2,1.5L-6.75,1.65M-7.9,-4.25L-8.05,-4.5L-8.1,-4.65L-7.7,-4.75L-7.7,-4.65L-7.55,-4.4L-7.9,-4.25M8.05,6.05L8.7,6.6L8.05,6.05M1.35,9.2L1.3,8.7L1.45,8.75L1.55,9.3L1.35,9.2M-2.55,6.85L-2.65,7.35L-2.75,7.2L-2.65,6.8L-2.55,6.85M-3.6,-6.65L-4,-6.5L-4,-6.65L-4.05,-6.7L-3.65,-6.9L-3.6,-6.65M-0.75,-6.55L-0.85,-6.65L-0.75,-6.55M-5.45,-8.65L-5.4,-8.6L-5.3,-8.6L-5.05,-8.45L-5.15,-8.05L-5.5,-8.2L-5.5,-8.65L-5.45,-8.65M-3.4,6.15L-3.15,6.35L-3,6.55L-2.65,6.8L-2.75,7.2L-3.15,6.85L-3.6,6.45L-3.4,6.15M-6.25,1.35L-6.75,1.5L-6.25,1.35M-3,6.55L-3.15,6.85L-3,6.55" style="fill:#88844f;"/>
                <path d="M7.3,-8.1L9.2,-7.9C9.967,-7.6 10.65,-7.117 11.25,-6.45L11.7,-5.9L12.1,-4.75L12.05,-4.2L11.6,-3.15C11.833,-3.783 11.85,-4.433 11.65,-5.1C11.283,-6.067 10.633,-6.8 9.7,-7.3C8.9,-7.733 8.1,-7.883 7.3,-7.75L7.3,-8.1M12,-2.35L12.35,-2.8L12.15,-2.3L12,-2.35M6.4,-7.5C5.767,-7.3 5.283,-6.9 4.95,-6.3L4.8,-6.15L4.6,-6.2L5.2,-7.2C5.5,-7.467 5.867,-7.667 6.3,-7.8L6.4,-7.5M4.75,-5.9L4.55,-5.15L4.3,-5.3L4.55,-6L4.75,-5.9M9.05,6.15L9.7,5.3L9.65,5.65L9.35,6.35L9.05,6.15M8.9,-0.6L8.75,-0.85L9.65,-0.85L9.7,-0.7L9.1,-0.65L8.9,-0.6M10.1,-0.8L9.95,-1L10.5,-1.15L11.25,-1.7L11.3,-1.65L11.5,-1.55C11.067,-1.25 10.6,-1 10.1,-0.8M1.7,9.6L1.65,9.6L1.55,9.3L2.15,9.55L3.25,9.55C4.517,9.483 5.783,9.15 7.05,8.55L7.1,8.55L7.2,8.5L7.2,8.45L7.65,8.1L8.4,6.95L8.85,7.35L7.8,8.35L7.4,8.65L7.35,8.7L6.75,9.05L6.7,9.05L5.5,9.55L4.75,9.7L4.7,9.7L3.15,9.8L2.6,9.8L2.35,9.7L2.2,9.7L1.9,9.65L1.7,9.6M1.4,9.55L1,9.4L0.65,9.35L0.4,9.2L0.1,9.15L-0.1,9.05C-1.067,8.65 -1.917,8.167 -2.65,7.6L-2.65,7.35L-2.4,7.6L-0.15,8.75L0.6,9L1.15,9.15L1.35,9.2L1.4,9.55M-3.7,6.65L-4,6.4L-4.2,6.15L-5.15,5.05L-5.85,3.9L-6.1,3.4L-6.35,2.95L-6.5,2.35L-5.05,4.95L-3.6,6.45L-3.7,6.65M-7.2,-8.4L-6.95,-8.4L-6.9,-8.3L-7,-8.2L-7.2,-8.4M-4,-6.5L-3.95,-6.3L-3.85,-5.85L-3.95,-5.8L-4.1,-6.45L-4,-6.5M-4.05,-6.7L-4.15,-6.65L-4.25,-6.8L-5.2,-7.9L-5.15,-8.05L-5.1,-8.05L-4.45,-7.45L-4.05,-6.7M-7.9,-5.3L-8.05,-5.7L-8,-6.55L-7.75,-7.45C-7.45,-7.883 -7.083,-8.167 -6.65,-8.3L-5.75,-8.25L-5.75,-8.1L-7.05,-7.85C-7.517,-7.55 -7.8,-7.083 -7.9,-6.45L-7.9,-5.3" style="fill:#99b0b0;"/>
                <path d="M6.9,-7.95L7.3,-8.1L7.3,-7.75L6.95,-7.7L6.4,-7.5L6.3,-7.8L6.9,-7.95M4.8,-6.15L4.75,-5.9L4.55,-6L4.6,-6.2L4.8,-6.15M9.65,-0.85L9.95,-1L10.1,-0.8L9.7,-0.7L9.65,-0.85M12.05,-2.15L11.75,-1.8L11.5,-1.55L11.3,-1.65L11.5,-1.9L12,-2.35L12.15,-2.3L12.05,-2.15M1.65,9.6L1.4,9.55L1.35,9.2L1.55,9.3L1.65,9.6M-2.65,7.6L-2.8,7.45L-3.25,7.1L-3.7,6.65L-3.6,6.45L-3.15,6.85L-3.25,7.1L-3.15,6.85L-2.75,7.2L-2.65,7.35L-2.65,7.6M9.35,6.35L9.1,6.9L8.85,7.35L8.4,6.95L8.7,6.6L9.1,6.9L8.7,6.6L9.05,6.15L9.35,6.35M-2.8,7.45L-2.75,7.2L-2.8,7.45" style="fill:#514f2f;"/>
                <path d="M7.3,-8.6L7.3,-8.1L6.9,-7.95L6.8,-8.5L7.3,-8.6M9.35,-1.3L9.75,-1.4L9.95,-1L9.65,-0.85L9.35,-1.3M10.75,-1.95L11,-2.15L11.5,-1.9L11.3,-1.65L11.25,-1.7L10.75,-1.95M-6.9,-3.15L-7.1,-3.3L-6.95,-3.65L-6.75,-3.55L-6.9,-3.15M-7.8,-4.05L-7.9,-4.25L-7.55,-4.4L-7.45,-4.2L-7.8,-4.05M-5.75,-8.7L-5.55,-8.65L-5.5,-8.65L-5.5,-8.2L-5.75,-8.3L-5.75,-8.7" style="fill:#6f6b40;"/>
                <path d="M12.35,-2.8L12.7,-4.2L12.45,-5.4C12.083,-6.433 11.417,-7.233 10.45,-7.8L12.05,-6.85C13.15,-5.517 13.467,-4.2 13,-2.9C12.533,-1.433 11.417,-0.567 9.65,-0.3L8.95,-0.6L9.65,-0.3L9.9,0.5L9.7,0.45L9.9,1L10.05,0.85L10.3,1.95L10.05,1.9L10.15,2.4L10.4,2.35L10.45,2.85L10.15,2.7L10.1,3.25L10.5,3.2L10.3,5.5L10,5.2L9.9,5.6L10.3,5.55L9.75,7L8,8.9L7.85,8.55L7.55,8.75L7.9,8.9L7.55,9.15L7.4,8.85L6.9,9.15L7.2,9.35L5.5,9.9L5.5,9.65L4.9,9.8L5.05,10L5,10L3.1,9.9L2.6,9.8L3.15,9.8L4.7,9.7L4.75,9.7L5.5,9.55L6.7,9.05L6.75,9.05L7.35,8.7L7.4,8.65L7.8,8.35L8.85,7.35L9.1,6.9L9.35,6.35L9.65,5.65L9.7,5.3L9.8,5L9.9,3.35L9.9,2.5L9.75,1.85L9.6,1.1L9.35,0.45L9.35,0.4L8.9,-0.6L8.95,-0.6L8.9,-0.6L9.1,-0.65L9.7,-0.7L10.1,-0.8C10.6,-1 11.067,-1.25 11.5,-1.55L11.75,-1.8L12.05,-2.15L12.15,-2.3L12.35,-2.8M1.4,-1.2L1.2,-1.25L0.7,-1.1L0.55,-0.85C0.583,-1.383 0.867,-1.5 1.4,-1.2M-5,-8.5L-4.05,-8.15C-3.517,-7.617 -3.183,-7.083 -3.05,-6.55L-3,-6.25L-3.4,-6.05L-3.6,-6.65L-3.65,-6.9L-3.8,-7.2C-4.133,-7.8 -4.55,-8.217 -5.05,-8.45L-5,-8.5M0.15,1.9L0.2,2L-0.5,1.9L-0.5,1.75L0.15,1.9M-0.8,-1.1L-1,-1.4L-1.45,-1.7L-1.7,-1.7C-1.2,-1.833 -0.9,-1.633 -0.8,-1.1" style="fill:#3f545c;"/>
                <path d="M1.75,-6.35L1.3,-6.45L1.4,-6.85L1.45,-7.1L1.6,-6.75L1.75,-6.35M2.15,-6.25L2.35,-6.6L2.95,-7.15L2.75,-6.55L2.75,-6.45L2.8,-6L2.15,-6.25M3.45,-6.1L3.45,-5.7C3.317,-5.767 3.2,-5.817 3.1,-5.85L3.35,-6.15L3.45,-6.3L3.45,-6.1L3.35,-6.15L3.45,-6.1M10.4,2.35L10.15,2.4L10.05,1.9L10.3,1.95L11.1,2.1L10.4,2.35M10.05,0.85L9.9,1L9.7,0.45L9.9,0.5L10.75,0.5L10.05,0.85M10.5,3.2L10.1,3.25L10.15,2.7L10.45,2.85L11.1,3.05L10.5,3.2M10.3,5.5L10.3,5.55L9.9,5.6L10,5.2L10.3,5.5M8,8.9L7.9,8.9L7.55,8.75L7.85,8.55L8,8.9M7.55,9.15L7.8,9.75L6.9,9.15L7.4,8.85L7.55,9.15M5.5,9.9L5.6,10.45L5.05,10L4.9,9.8L5.5,9.65L5.5,9.9M3.1,9.9L2.75,10.65L2.3,9.85L1.95,10.85L1.7,9.6L1.9,9.65L2.2,9.7L2.3,9.85L2.35,9.7L2.6,9.8L3.1,9.9M1,9.4L0.8,9.95L0.65,9.35L1,9.4M0.4,9.2L0.1,10.2L-0.1,9.05L0.1,9.15L0.4,9.2M-4,6.4L-4.85,6.95L-4.2,6.15L-4,6.4M-5.85,3.9L-6.7,4.05L-6.1,3.4L-5.85,3.9M-6.35,2.95L-7.5,2.85L-6.5,2.35L-6.35,2.95M-6.9,-1.6L-7.65,-2.05L-6.85,-1.95L-6.9,-1.6M-1.9,-6.8L-2.05,-7.9L-1.6,-6.9L-1.5,-6.55L-1.9,-6.55L-1.9,-6.8M-1.3,-6.95L-1.3,-7.35L-1,-6.95L-0.85,-6.65L-1.1,-6.6L-1.35,-6.6L-1.3,-6.95" style="fill:#ffe0ca;"/>
                <path d="M-4,-6.5L-4.1,-6.45L-4.15,-6.65L-4.05,-6.7L-4,-6.65L-4,-6.5M-5.15,-8.05L-5.2,-7.9L-5.5,-8L-5.55,-8.05L-5.75,-8.1L-5.75,-8.3L-5.5,-8.2L-5.15,-8.05" style="fill:#4d4a2d;"/>
                <path d="M-8.15,-7.1C-7.983,-7.6 -7.7,-7.983 -7.3,-8.25L-7.2,-8.15C-7.533,-8.017 -7.817,-7.65 -8.05,-7.05L-8.15,-7.1M-6.85,-8.6L-5.95,-8.75L-5.95,-8.55L-6.35,-8.55L-6.75,-8.4L-6.85,-8.6" style="fill:#e3eaea;"/>
                <path d="M8.4,2.95L8.4,3.05L8.35,2.95L8.4,2.95" style="fill:#ffecdd;"/>
                <path d="M1.1,-0.6L1.15,-0.5L1.1,-0.45L1,-0.4L0.95,-0.45L0.9,-0.55L0.9,-0.6L0.95,-0.55L1.1,-0.6M0.85,0.1L0.9,0.1L1.25,0.2L1.55,0.25L1.65,0.3L1.8,0.3L1.65,0.35L1.25,0.35L0.85,0.2L0.7,0.1L0.85,0.1M-1.7,-0.4L-1.45,-0.35L-1.15,-0.25L-1.1,-0.25L-0.95,-0.2L-1.1,-0.15L-1.45,-0.15L-1.8,-0.3L-1.95,-0.4L-1.7,-0.4M-1.3,-0.9L-1.35,-1L-1.3,-1.05L-1.2,-1.05L-1.15,-0.95L-1.2,-0.85L-1.25,-0.85L-1.3,-0.9" style="fill:#161e21;"/>
                <path d="M1.1,-0.6L1.15,-0.8L1.1,-1L0.95,-1.1L0.8,-1L0.8,-0.65L0.9,-0.6L0.9,-0.55L0.95,-0.45L1,-0.4L1.1,-0.45L1.15,-0.5L1.1,-0.6M0.55,-0.85L0.7,-1.1L1.2,-1.25L1.4,-1.2L1.45,-1.15L1.55,-1.1L1.75,-0.95L2,-0.35L1.75,0.15L1.55,0.25L1.25,0.2L0.9,0.1L0.85,0.1L0.7,-0.05L0.5,-0.6L0.55,-0.85M-1.7,-1.7L-1.45,-1.7L-1,-1.4L-0.8,-1.1L-0.75,-0.85L-0.95,-0.4L-1.1,-0.3L-1.15,-0.25L-1.45,-0.35L-1.7,-0.4L-1.9,-0.55L-2.1,-1.05L-1.9,-1.55L-1.75,-1.65L-1.7,-1.7M-1.45,-1.25L-1.5,-1.45L-1.6,-1.5L-1.8,-1.45L-1.8,-1.25L-1.75,-1.1L-1.6,-0.95L-1.5,-1.05L-1.45,-1.25M-1.3,-0.9L-1.25,-0.85L-1.2,-0.85L-1.15,-0.95L-1.2,-1.05L-1.3,-1.05L-1.35,-1L-1.3,-0.9" style="fill:#ffead9;"/>
                <path d="M0.9,-0.6L0.8,-0.65L0.8,-1L0.95,-1.1L1.1,-1L1.15,-0.8L1.1,-0.6L0.95,-0.55L0.9,-0.6M-1.45,-1.25L-1.5,-1.05L-1.6,-0.95L-1.75,-1.1L-1.8,-1.25L-1.8,-1.45L-1.6,-1.5L-1.5,-1.45L-1.45,-1.25" style="fill:#fff;"/>
                <path d="M0.2,2L-0.35,2.2L-0.35,2.15L-0.5,1.9L0.2,2" style="fill:#5e7c88;"/>
                <path d="M1.75,-6.35L1.6,-6.75L2.35,-6.6L2.15,-6.25L2.1,-6.25L1.75,-6.35M1.4,-6.85L1.3,-6.45L-0.1,-6.6L-0.2,-6.6L-0.75,-6.65L-0.85,-6.65L-1,-6.95L1.4,-6.85M3.9,-5.9L3.85,-5.55L3.5,-5.7L3.45,-5.7L3.45,-6.1L3.9,-5.9M3.35,-6.15L3.1,-5.85L2.8,-6L2.75,-6.45L3.35,-6.15M-3.05,-6.55L-1.9,-6.8L-1.9,-6.55L-3,-6.25L-3.05,-6.55M-1.6,-6.9L-1.3,-6.95L-1.35,-6.6L-1.5,-6.55L-1.6,-6.9" style="fill:#e1e8e8;"/>
                <path d="M8.35,5.45L8.25,5.55L8.25,5.65L8.05,6.05L7.85,6.35L5.95,8.15L4.75,8.65L4.65,8.65L1.45,8.75L1.3,8.7L0.05,8.35L-0.75,8L-2.55,6.85L-2.65,6.8L-3,6.55L-3.15,6.35L-3.4,6.15L-4.7,4.7L-5.55,3.3L-5.3,2.85C-5.333,2.683 -5.517,2.583 -5.85,2.55C-5.517,2.583 -5.333,2.683 -5.3,2.85L-5.55,3.3L-5.85,2.55L-6.25,1.35L-6.3,1.05L-6.35,0.85L-6.25,-0.55L-5.85,-2.4L-5.65,-2.8L-5.3,-3.3L-4.7,-4L-4.6,-4.1L-3.7,-4.65L-3.7,-4.75L-3.5,-4.8C-2.667,-5.233 -1.783,-5.433 -0.85,-5.4L-0.7,-5.35C0.433,-5.317 1.583,-5.1 2.75,-4.7L2.85,-4.65L4,-3.8L5.35,-2.75L6,-2.15L6.7,-1.35L6.75,-1.3L6.9,-1.1L6.95,-0.9C7.75,0.433 8.233,1.717 8.4,2.95L8.35,2.95L8.35,5.45M0.85,-3.1C-0.15,-1.767 -0.083,-0.317 1.05,1.25L1.9,2.3C2.433,2.867 3,3.183 3.6,3.25L4.8,3.1C5.3,2.9 5.617,2.517 5.75,1.95C6.05,0.717 5.983,-0.35 5.55,-1.25C4.983,-2.383 3.967,-3.233 2.5,-3.8C1.933,-4.033 1.483,-3.933 1.15,-3.5L0.85,-3.1M6.55,5.5L5.75,5.25L5.25,5.05C3.217,4.317 1.333,3.767 -0.4,3.4L-1.45,3.25L-2.35,3.1L-4,2.9L-5.3,2.85L-4,2.9L-2.35,3.1L-1.45,3.25L-0.4,3.4C1.333,3.767 3.217,4.317 5.25,5.05L5.75,5.25L6.55,5.5L6.65,4.95L6.55,5.5L6.7,6.1L6.55,5.5M-0.5,1.75L-1,1.7L-0.1,2.95C0.067,2.483 0.4,2.217 0.9,2.15L0.15,1.9L-0.5,1.75M0.25,4.25L0.15,4.2L-0.95,3.95C-1.117,4.317 -1.167,4.733 -1.1,5.2C-1.067,4.867 -0.9,4.667 -0.6,4.6L-0.25,5.1C-0.15,4.967 -0.1,4.783 -0.1,4.55C0.067,4.583 0.217,4.7 0.35,4.9L0.25,4.25M-3.85,-3.9L-4.6,-3.1C-5.033,-2.467 -5.1,-1.517 -4.8,-0.25L-4.8,-0.15C-4.733,0.283 -4.533,0.667 -4.2,1C-3.433,1.733 -2.683,1.867 -1.95,1.4L-1.15,0.7C-0.117,-0.533 -0.217,-2.017 -1.45,-3.75C-1.783,-4.25 -2.15,-4.45 -2.55,-4.35L-3.45,-4.1L-3.85,-3.9" style="fill:#d2603e;"/>
                <path d="M-0.15,-5.8C1.25,-5.7 2.583,-5.267 3.85,-4.5L4.45,-4.1L4.7,-3.95L5.05,-3.65L5.7,-3.1L7.1,-1.5L7.15,-1.4L7.45,-1L7.55,-0.75C8.25,0.45 8.633,1.733 8.7,3.1L8.7,3.3L8.35,5.45L8.35,2.95L8.4,3.05L8.4,2.95C8.233,1.717 7.75,0.433 6.95,-0.9L6.9,-1.1L6.75,-1.3L6.7,-1.35L6,-2.15L5.35,-2.75L4,-3.8L2.85,-4.65L2.75,-4.7C1.583,-5.1 0.433,-5.317 -0.7,-5.35L-0.85,-5.4C-1.783,-5.433 -2.667,-5.233 -3.5,-4.8L-3.7,-4.75L-3.7,-4.65L-4.6,-4.1L-4.7,-4L-5.3,-3.3L-5.65,-2.8L-5.85,-2.4L-6.25,-0.55L-6.35,0.85L-6.4,-0.2L-6.4,-0.75C-6.367,-1.517 -6.2,-2.2 -5.9,-2.8L-5.6,-3.25L-4.75,-4.3L-4.3,-4.7L-4,-4.95L-3.85,-5L-3.4,-5.25C-2.733,-5.617 -1.967,-5.8 -1.1,-5.8L-0.95,-5.85L-0.65,-5.85L-0.15,-5.8M0.25,4.25L0.35,4.9C0.217,4.7 0.067,4.583 -0.1,4.55C-0.1,4.783 -0.15,4.967 -0.25,5.1L-0.6,4.6C-0.9,4.667 -1.067,4.867 -1.1,5.2C-1.167,4.733 -1.117,4.317 -0.95,3.95L0.15,4.2L0.25,4.25" style="fill:#8f3921;"/>
                <path d="M11.6,-3.15L11.6,-3L11.5,-2.9L11.45,-2.75L11.35,-2.6L11.3,-2.5L11,-2.15L10.75,-1.95C10.45,-1.717 10.117,-1.533 9.75,-1.4L9.35,-1.3L8.95,-1.25L8.5,-1.25L6.45,-3.65L5.95,-4.15C6.917,-4.417 7.55,-4.05 7.85,-3.05C8.15,-3.317 8.25,-3.617 8.15,-3.95L7.4,-4.8L6.2,-4.75L5.65,-4.35L4.55,-5.15L4.75,-5.9L4.8,-6.15L4.95,-6.3C5.283,-6.9 5.767,-7.3 6.4,-7.5L6.95,-7.7L7.3,-7.75C8.1,-7.883 8.9,-7.733 9.7,-7.3C10.633,-6.8 11.283,-6.067 11.65,-5.1C11.85,-4.433 11.833,-3.783 11.6,-3.15M0.85,-3.1L1.15,-3.5C1.483,-3.933 1.933,-4.033 2.5,-3.8C3.967,-3.233 4.983,-2.383 5.55,-1.25C5.983,-0.35 6.05,0.717 5.75,1.95C5.617,2.517 5.3,2.9 4.8,3.1L3.6,3.25C3,3.183 2.433,2.867 1.9,2.3L1.05,1.25C-0.083,-0.317 -0.15,-1.767 0.85,-3.1M1.4,-1.2C0.867,-1.5 0.583,-1.383 0.55,-0.85L0.5,-0.6L0.7,-0.05L0.85,0.1L0.7,0.1L0.85,0.2L1.25,0.35L1.65,0.35L1.8,0.3L1.65,0.3L1.55,0.25L1.75,0.15L2,-0.35L1.75,-0.95L1.55,-1.1L1.45,-1.15L1.4,-1.2M-4.1,-6.45L-3.95,-5.8L-4.65,-5.3L-5,-5.7L-5.75,-5.85L-6.15,-5.3C-6.217,-5.067 -6.167,-4.833 -6,-4.6C-5.867,-5.267 -5.5,-5.45 -4.9,-5.15L-5.2,-4.85L-6.35,-3.35L-6.5,-3.4L-6.75,-3.55L-6.95,-3.65L-7.45,-4.2L-7.55,-4.4L-7.7,-4.65L-7.7,-4.75L-7.9,-5.15L-7.9,-6.45C-7.8,-7.083 -7.517,-7.55 -7.05,-7.85L-5.75,-8.1L-5.55,-8.05L-5.5,-8L-5.2,-7.9L-4.25,-6.8L-4.15,-6.65L-4.1,-6.45M-3.85,-3.9L-3.45,-4.1L-2.55,-4.35C-2.15,-4.45 -1.783,-4.25 -1.45,-3.75C-0.217,-2.017 -0.117,-0.533 -1.15,0.7L-1.95,1.4C-2.683,1.867 -3.433,1.733 -4.2,1C-4.533,0.667 -4.733,0.283 -4.8,-0.15L-4.8,-0.25C-5.1,-1.517 -5.033,-2.467 -4.6,-3.1L-3.85,-3.9M-1.7,-1.7L-1.75,-1.65L-1.9,-1.55L-2.1,-1.05L-1.9,-0.55L-1.7,-0.4L-1.95,-0.4L-1.8,-0.3L-1.45,-0.15L-1.1,-0.15L-0.95,-0.2L-1.1,-0.25L-1.1,-0.3L-0.95,-0.4L-0.75,-0.85L-0.8,-1.1C-0.9,-1.633 -1.2,-1.833 -1.7,-1.7" style="fill:#5b4840;"/>
                <path d="M5.65,-4.35L6.2,-4.75L7.4,-4.8L8.15,-3.95C8.25,-3.617 8.15,-3.317 7.85,-3.05C7.55,-4.05 6.917,-4.417 5.95,-4.15L5.65,-4.35M0.15,1.9L0.9,2.15C0.4,2.217 0.067,2.483 -0.1,2.95L-1,1.7L-0.5,1.75L-0.5,1.9L-0.35,2.15L-0.35,2.2L0.2,2L0.15,1.9M-6,-4.6C-6.167,-4.833 -6.217,-5.067 -6.15,-5.3L-5.75,-5.85L-5,-5.7L-4.65,-5.3L-4.9,-5.15C-5.5,-5.45 -5.867,-5.267 -6,-4.6" style="fill:#3a2f29;"/>
                <path d="M10.45,-7.8L10.35,-7.9M10.3,-7.9L10.15,-8L8.3,-8.55L7.85,-8.6L7.3,-8.6L6.8,-8.5L6.7,-8.45L6.1,-8.3C5.3,-8.033 4.7,-7.533 4.3,-6.8L4.1,-6.5L4.05,-6.2L3.9,-5.9L3.85,-5.55L3.5,-5.7M1.3,-6.45L-0.1,-6.6L-0.2,-6.6L-0.75,-6.65L-0.85,-6.65M1.75,-6.35L2.1,-6.25M3.1,-5.85L2.8,-6M8.9,-0.6L9.1,-0.65M12.05,-2.15L12.15,-2.3M1.7,9.6L1.65,9.6L1.4,9.55L1,9.4M0.65,9.35L0.4,9.2M-0.1,9.05C-1.067,8.65 -1.917,8.167 -2.65,7.6L-2.8,7.45L-3.25,7.1L-3.7,6.65L-4,6.4M-4.2,6.15L-5.15,5.05L-5.85,3.9M-6.1,3.4L-6.35,2.95M-6.5,2.35L-6.55,2.25L-6.75,1.65L-6.75,1.5L-6.85,1.1L-7,-0.35L-6.9,-1.6M-6.85,-1.95L-6.5,-3L-6.6,-3L-6.9,-3.15L-7.1,-3.3L-7.8,-4.05L-7.9,-4.25L-8.05,-4.5L-8.1,-4.65C-8.3,-5.083 -8.383,-5.517 -8.35,-5.95L-8.25,-6.7L-8.15,-7.1C-7.983,-7.6 -7.7,-7.983 -7.3,-8.25L-7.25,-8.35L-7.2,-8.4L-6.95,-8.4L-6.95,-8.55M-6.85,-8.6L-5.95,-8.75L-5.55,-8.65L-5.45,-8.65L-5.4,-8.6L-5.3,-8.6L-5.05,-8.45M-3,-6.25L-1.9,-6.55M-1.5,-6.55L-1.35,-6.6M-3,-6.25L-3.4,-6.05" style="fill:none;fill-rule:nonzero;stroke:#000;stroke-opacity:0.8;stroke-width:0.05px;"/>
                <path d="M11.6,-3.15L11.6,-3M11.45,-2.75L11.35,-2.6L11.3,-2.5L11,-2.15L10.75,-1.95C10.45,-1.717 10.117,-1.533 9.75,-1.4L9.35,-1.3L8.95,-1.25L8.5,-1.25L6.45,-3.65L5.95,-4.15L5.65,-4.35L6.2,-4.75L7.4,-4.8L8.15,-3.95C8.25,-3.617 8.15,-3.317 7.85,-3.05M7.3,-7.75C8.1,-7.883 8.9,-7.733 9.7,-7.3C10.633,-6.8 11.283,-6.067 11.65,-5.1C11.85,-4.433 11.833,-3.783 11.6,-3.15M7.3,-7.75L6.95,-7.7L6.4,-7.5C5.767,-7.3 5.283,-6.9 4.95,-6.3L4.8,-6.15L4.75,-5.9L4.55,-5.15L5.65,-4.35M-0.2,-6.6L-0.15,-5.8C1.25,-5.7 2.583,-5.267 3.85,-4.5L4.45,-4.1L4.7,-3.95L5.05,-3.65L5.7,-3.1L7.1,-1.5L7.15,-1.4L7.45,-1L7.55,-0.75C8.25,0.45 8.633,1.733 8.7,3.1L8.7,3.3L8.35,5.45L8.25,5.55L9.05,6.15L9.35,6.35M8.9,-0.6L8.75,-0.85L8.5,-1.25M4.3,-5.3L4.55,-5.15M4.3,-5.3C4.133,-5.4 3.983,-5.483 3.85,-5.55M1.1,-0.6L1.15,-0.5L1.1,-0.45L1,-0.4L0.95,-0.45L0.9,-0.55L0.9,-0.6L0.95,-0.55L1.1,-0.6M0.55,-0.85L0.7,-1.1L1.2,-1.25L1.4,-1.2C0.867,-1.5 0.583,-1.383 0.55,-0.85L0.5,-0.6L0.7,-0.05L0.85,0.1L0.9,0.1L1.25,0.2L1.55,0.25L1.75,0.15L2,-0.35L1.75,-0.95L1.55,-1.1L1.45,-1.15L1.4,-1.2M-6.95,-8.55L-6.85,-8.6M6.65,4.95L6.55,5.5L6.7,6.1M-5.3,2.85L-4,2.9L-2.35,3.1L-1.45,3.25L-0.4,3.4C1.333,3.767 3.217,4.317 5.25,5.05L5.75,5.25L6.55,5.5M7.85,6.35L8.05,6.05L8.25,5.65L8.25,5.55M0.85,0.1L0.7,0.1L0.85,0.2L1.25,0.35L1.65,0.35L1.8,0.3L1.65,0.3L1.55,0.25M4.75,8.65L5.95,8.15L7.85,6.35L8.4,6.95L8.85,7.35M8.7,6.6L8.05,6.05M1.35,9.2L1.3,8.7L0.05,8.35L-0.75,8L-2.55,6.85L-2.65,7.35L-2.65,7.6M-2.75,7.2L-2.8,7.45M1.3,8.7L1.45,8.75L4.65,8.65M1.45,8.75L1.55,9.3L1.65,9.6M1.35,9.2L1.4,9.55M9.1,6.9L8.7,6.6M-4.1,-6.45L-3.95,-5.8L-3.85,-5.85L-3.4,-6.05M-4.15,-6.65L-4.1,-6.45M-5.2,-7.9L-4.25,-6.8L-4.15,-6.65M-0.75,-6.55L-0.75,-6.65M-0.75,-6.55L-0.65,-5.85L-0.15,-5.8M-1.1,-6.6L-0.95,-5.85L-0.65,-5.85M-7.9,-5.3L-7.9,-6.45C-7.8,-7.083 -7.517,-7.55 -7.05,-7.85L-5.75,-8.1L-5.55,-8.05L-5.5,-8L-5.2,-7.9M-6,-4.6C-6.167,-4.833 -6.217,-5.067 -6.15,-5.3L-5.75,-5.85L-5,-5.7L-4.65,-5.3L-3.95,-5.8M-6.75,-3.55L-6.5,-3.4L-6.35,-3.35L-5.2,-4.85L-4.9,-5.15L-4.65,-5.3M-6.95,-3.65L-7.45,-4.2L-7.55,-4.4L-7.7,-4.65L-7.7,-4.75L-7.9,-5.15M-6.95,-3.65L-6.75,-3.55M-0.95,-5.85L-1.1,-5.8C-1.967,-5.8 -2.733,-5.617 -3.4,-5.25L-3.85,-5L-4,-4.95L-4.3,-4.7L-4.75,-4.3L-5.6,-3.25L-5.9,-2.8C-6.2,-2.2 -6.367,-1.517 -6.4,-0.75L-6.4,-0.2L-6.35,0.85L-6.3,1.05L-6.25,1.35L-5.85,2.55L-5.55,3.3L-4.7,4.7L-3.4,6.15L-3.15,6.35L-3,6.55L-2.65,6.8L-2.55,6.85M-6.5,-3L-6.35,-3.35M-0.8,-1.1L-1,-1.4L-1.45,-1.7L-1.7,-1.7L-1.75,-1.65L-1.9,-1.55L-2.1,-1.05L-1.9,-0.55L-1.7,-0.4L-1.45,-0.35L-1.15,-0.25L-1.1,-0.3L-0.95,-0.4L-0.75,-0.85L-0.8,-1.1C-0.9,-1.633 -1.2,-1.833 -1.7,-1.7M-1.3,-0.9L-1.25,-0.85L-1.2,-0.85L-1.15,-0.95L-1.2,-1.05L-1.3,-1.05L-1.35,-1L-1.3,-0.9M-1.1,-0.25L-0.95,-0.2L-1.1,-0.15L-1.45,-0.15L-1.8,-0.3L-1.95,-0.4L-1.7,-0.4M-1.15,-0.25L-1.1,-0.25M-6.35,1.05L-6.3,1.05M-6.85,1.1L-6.4,1.05M-3.6,6.45L-3.4,6.15M-6.2,1.5L-6.75,1.65M-6.75,1.5L-6.25,1.35M-3.15,6.85L-3,6.55M-3.6,6.45L-3.7,6.65M-2.75,7.2L-2.65,6.8M-3.25,7.1L-3.15,6.85" style="fill:none;fill-rule:nonzero;stroke:#333;stroke-opacity:0.4;stroke-width:0.05px;"/>
                <path d="M12.35,-2.8L12.7,-4.2L12.45,-5.4C12.083,-6.433 11.417,-7.233 10.45,-7.8M9.7,5.3L9.8,5L9.9,3.35L9.9,2.5L9.75,1.85L9.6,1.1L9.35,0.45M9.35,0.4L8.9,-0.6M9.7,-0.7L10.1,-0.8C10.6,-1 11.067,-1.25 11.5,-1.55L11.75,-1.8L12.05,-2.15M9.1,-0.65L9.7,-0.7M8.95,-0.6L9.65,-0.3M12.15,-2.3L12.35,-2.8M9.7,5.3L9.65,5.65L9.35,6.35L9.1,6.9L8.85,7.35L7.8,8.35L7.4,8.65L7.35,8.7L6.75,9.05L6.7,9.05L5.5,9.55L4.75,9.7M4.7,9.7L3.15,9.8L2.6,9.8M-3.4,-6.05L-3.6,-6.65L-3.65,-6.9L-3.8,-7.2C-4.133,-7.8 -4.55,-8.217 -5.05,-8.45" style="fill:none;fill-rule:nonzero;stroke:#272727;stroke-opacity:0.4;stroke-width:0.05px;"/>
                <path d="M10.35,-7.9L10.3,-7.9M1.75,-6.35L1.6,-6.75L1.45,-7.1L1.4,-6.85L1.3,-6.45M2.15,-6.25L2.35,-6.6L2.95,-7.15L2.75,-6.55L2.75,-6.45L2.8,-6M3.45,-6.1L3.45,-5.7M3.35,-6.15L3.1,-5.85M8.95,-0.6L8.9,-0.6M9.65,-0.3C11.417,-0.567 12.533,-1.433 13,-2.9C13.467,-4.2 13.15,-5.517 12.05,-6.85L10.45,-7.8M3.35,-6.15L3.45,-6.3L3.45,-6.1M10.4,2.35L11.1,2.1L10.3,1.95L10.05,0.85L10.75,0.5L9.9,0.5L9.65,-0.3M10.5,3.2L11.1,3.05L10.45,2.85L10.4,2.35M10.3,5.55L9.75,7L8,8.9L7.9,8.9L7.55,9.15L7.8,9.75L7.2,9.35L5.5,9.9L5.6,10.45L5.05,10L5,10L3.1,9.9L2.75,10.65L2.3,9.85L1.95,10.85L1.7,9.6M1,9.4L0.8,9.95L0.65,9.35M0.4,9.2L0.1,10.2L-0.1,9.05M-4,6.4L-4.85,6.95L-4.2,6.15M-5.85,3.9L-6.7,4.05L-6.1,3.4M-6.35,2.95L-7.5,2.85L-6.5,2.35M-6.9,-1.6L-7.65,-2.05L-6.85,-1.95M-5.55,-8.65L-5.45,-8.65L-5,-8.5L-4.05,-8.15C-3.517,-7.617 -3.183,-7.083 -3.05,-6.55L-3,-6.25M-1.9,-6.8L-2.05,-7.9L-1.6,-6.9L-1.5,-6.55M-1.3,-6.95L-1.3,-7.35L-1,-6.95L-0.85,-6.65M10.5,3.2L10.3,5.5M2.3,9.85L2.35,9.7M-1.9,-6.55L-1.9,-6.8M-1.35,-6.6L-1.3,-6.95" style="fill:none;fill-rule:nonzero;stroke:#000;stroke-opacity:0.8;stroke-width:0.05px;"/>
                <path d="M-0.85,-6.65L-0.75,-6.55" style="fill:none;fill-rule:nonzero;stroke:#6f0;stroke-width:0.05px;"/>
                <path d="M-5.85,2.55C-5.517,2.583 -5.333,2.683 -5.3,2.85L-5.55,3.3" style="fill:none;fill-rule:nonzero;stroke:#000;stroke-opacity:0.4;stroke-width:0.05px;"/>
                <path d="M2.35,-6.6L1.6,-6.75M3.9,-5.9L3.45,-6.1L2.75,-6.45M-3.05,-6.55L-1.9,-6.8M-1.6,-6.9L-1.3,-6.95M-1,-6.95L1.4,-6.85" style="fill:none;fill-rule:nonzero;stroke:#000;stroke-opacity:0.5;stroke-width:0.05px;"/>
            </g>
        </g>
    </g>
</svg>
