<?xml version="1.0" encoding="UTF-8" standalone="no"?>
<!DOCTYPE svg PUBLIC "-//W3C//DTD SVG 1.1//EN" "http://www.w3.org/Graphics/SVG/1.1/DTD/svg11.dtd">
<svg width="100%" height="100%" viewBox="0 0 314 156" version="1.1" xmlns="http://www.w3.org/2000/svg" xmlns:xlink="http://www.w3.org/1999/xlink" xml:space="preserve" xmlns:serif="http://www.serif.com/" style="fill-rule:evenodd;clip-rule:evenodd;stroke-miterlimit:3;">
    <g transform="matrix(1,0,0,1,-5.34806,-6.14365)">
        <g transform="matrix(12.339,0,0,12.339,162.254,82.6595)">
            <g id="sprite0">
                <g id="sprite1" transform="matrix(-0.2007,0,0,0.2038,-0.350175,-3.25016)">
                    <g id="shape0">
                        <path d="M1.35,1.4L0.85,0.9C-0.117,-0.667 -0.4,-2.6 0,-4.9C-1.433,-3.4 -2.233,-1.65 -2.4,0.35L-3.1,2.55C-3.433,-0.917 -2.217,-3.8 0.55,-6.1C0.417,-3.133 0.683,-0.633 1.35,1.4" style="fill:#b2b2b2;"/>
                        <path d="M0.85,0.9L-0.3,-0.35C-0.2,1.85 0.067,3.25 0.5,3.85L-1.45,1.55L-1.6,3.2L-2.4,0.35C-2.233,-1.65 -1.433,-3.4 0,-4.9C-0.4,-2.6 -0.117,-0.667 0.85,0.9" style="fill:#a7a199;"/>
                        <path d="M0.85,0.9L1.35,1.4L2.4,4.6C2.567,5.233 2.483,5.7 2.15,6C1.783,6.267 0.75,6.267 -0.95,6C-1.983,5.7 -2.65,4.967 -2.95,3.8L-3.1,2.55L-2.4,0.35L-1.6,3.2L-1.45,1.55L0.5,3.85C0.067,3.25 -0.2,1.85 -0.3,-0.35L0.85,0.9" style="fill:#918068;"/>
                        <path d="M-3.1,2.55L-2.95,3.8C-2.65,4.967 -1.983,5.7 -0.95,6C0.75,6.267 1.783,6.267 2.15,6C2.483,5.7 2.567,5.233 2.4,4.6L1.35,1.4C0.683,-0.633 0.417,-3.133 0.55,-6.1C-2.217,-3.8 -3.433,-0.917 -3.1,2.55Z" style="fill:none;fill-rule:nonzero;stroke:#000;stroke-opacity:0.39;stroke-width:0.2px;"/>
                    </g>
                </g>
                <g id="sprite11" serif:id="sprite1" transform="matrix(0.258,0,0,0.2857,-2.1499,-3.34999)">
                    <g id="shape01" serif:id="shape0">
                        <path d="M1.35,1.4L0.85,0.9C-0.117,-0.667 -0.4,-2.6 0,-4.9C-1.433,-3.4 -2.233,-1.65 -2.4,0.35L-3.1,2.55C-3.433,-0.917 -2.217,-3.8 0.55,-6.1C0.417,-3.133 0.683,-0.633 1.35,1.4" style="fill:#b2b2b2;"/>
                        <path d="M0.85,0.9L-0.3,-0.35C-0.2,1.85 0.067,3.25 0.5,3.85L-1.45,1.55L-1.6,3.2L-2.4,0.35C-2.233,-1.65 -1.433,-3.4 0,-4.9C-0.4,-2.6 -0.117,-0.667 0.85,0.9" style="fill:#a7a199;"/>
                        <path d="M0.85,0.9L1.35,1.4L2.4,4.6C2.567,5.233 2.483,5.7 2.15,6C1.783,6.267 0.75,6.267 -0.95,6C-1.983,5.7 -2.65,4.967 -2.95,3.8L-3.1,2.55L-2.4,0.35L-1.6,3.2L-1.45,1.55L0.5,3.85C0.067,3.25 -0.2,1.85 -0.3,-0.35L0.85,0.9" style="fill:#918068;"/>
                        <path d="M-3.1,2.55L-2.95,3.8C-2.65,4.967 -1.983,5.7 -0.95,6C0.75,6.267 1.783,6.267 2.15,6C2.483,5.7 2.567,5.233 2.4,4.6L1.35,1.4C0.683,-0.633 0.417,-3.133 0.55,-6.1C-2.217,-3.8 -3.433,-0.917 -3.1,2.55Z" style="fill:none;fill-rule:nonzero;stroke:#000;stroke-opacity:0.39;stroke-width:0.2px;"/>
                    </g>
                </g>
                <g id="sprite2" transform="matrix(1,0,0,1,0.65,1.65)">
                    <g id="shape1">
                        <path d="M3,-4.5C2.967,-3.633 3.2,-2.383 3.7,-0.75M-5.35,-2.15C-5.017,-3.517 -4.85,-4.467 -4.85,-5" style="fill:none;fill-rule:nonzero;stroke:#665539;stroke-opacity:0.6;stroke-width:0.05px;"/>
                        <path d="M-0.05,4.4C3.117,4.367 5.833,4.017 8.1,3.35L9.5,2.9" style="fill:none;fill-rule:nonzero;stroke:#000;stroke-opacity:0.39;stroke-width:0.2px;"/>
                    </g>
                    <g id="dandidroite" transform="matrix(1,0,0,1,-0.65,-0.6)">
                        <g id="shape2">
                            <path d="M3.65,-4.05L3.65,-3.9C3.617,-3.4 3.683,-2.767 3.85,-2L8.75,-1.15C11.183,-0.45 12.4,0.4 12.4,1.4C12.4,2.2 11.65,2.9 10.15,3.5L8.75,3.95C6.483,4.617 3.767,4.967 0.6,5L0,5L-8.1,4.15L-6.65,2.8L-10.45,3.35L-11.55,2.75L-8.9,1.4L-12.4,1.25C-12.3,0.317 -11.1,-0.483 -8.8,-1.15L-6.9,-1.6L-4.65,-1.8C-4.35,-3.033 -4.2,-3.9 -4.2,-4.4L-4.2,-4.55C-4.267,-4.817 -3.867,-4.967 -3,-5L2.35,-4.75C3.15,-4.683 3.583,-4.45 3.65,-4.05" style="fill:url(#_Linear1);"/>
                        </g>
                    </g>
                    <g id="sprite4" transform="matrix(1,0,0,1,-0.65,-0.6)">
                        <g id="shape3">
                            <path d="M3.85,-2L8.75,-1.15C11.183,-0.45 12.4,0.4 12.4,1.4C12.4,2.2 11.65,2.9 10.15,3.5L8.75,3.95C6.483,4.617 3.767,4.967 0.6,5L0,5L-8.1,4.15L-6.65,2.8L-10.45,3.35L-11.55,2.75L-8.9,1.4L-12.4,1.25C-12.3,0.317 -11.1,-0.483 -8.8,-1.15L-6.9,-1.6L-4.65,-1.8C-4.35,-3.033 -4.2,-3.9 -4.2,-4.4L-4.2,-4.55C-4.267,-4.817 -3.867,-4.967 -3,-5L2.35,-4.75C3.15,-4.683 3.583,-4.45 3.65,-4.05L3.65,-3.9C3.617,-3.4 3.683,-2.767 3.85,-2" style="fill:url(#_Linear2);"/>
                        </g>
                    </g>
                    <g id="shape4">
                        <path d="M3.2,-2.6L8.1,-1.75C10.533,-1.05 11.75,-0.2 11.75,0.8C11.75,1.6 11,2.3 9.5,2.9L8.1,3.35C5.833,4.017 3.117,4.367 -0.05,4.4L-0.65,4.4L-8.75,3.55L-7.3,2.2L-11.1,2.75L-12.2,2.15L-9.55,0.8L-13.05,0.65C-12.95,-0.283 -11.75,-1.083 -9.45,-1.75L-7.55,-2.2L-5.3,-2.4" style="fill:none;fill-rule:nonzero;stroke:#000;stroke-opacity:0.39;stroke-width:0.2px;"/>
                        <path d="M-2.35,-3.75L-0.9,-3.35L1.65,-3.55L2.1,-3.75C2.5,-3.917 2.767,-4.1 2.9,-4.3L3,-4.5L3,-4.65C2.933,-5.05 2.5,-5.283 1.7,-5.35L-3.65,-5.6C-4.517,-5.567 -4.917,-5.417 -4.85,-5.15" style="fill:none;fill-rule:nonzero;stroke:#5e3e2c;stroke-opacity:0.3;stroke-width:0.05px;"/>
                    </g>
                    <g id="dandidroitebandeau" transform="matrix(1,0,0,1,-1,-0.55)">
                        <g id="shape5">
                            <path d="M2.75,-0.5L4.55,-1.65L4.8,0L3,1.65L-2.55,1.45L-4.85,0L-4.5,-1.7L-2,-0.45L2.75,-0.5" style="fill:url(#_Linear3);"/>
                        </g>
                    </g>
                    <g id="shape6">
                        <path d="M-2.9,-1L1.75,-1.05L1.95,0.45L2,1.1L-3.55,0.9L-3,-1L-2.9,-1" style="fill-opacity:0.35;"/>
                        <path d="M-5.55,-0.35L-5.85,-0.55L-5.5,-2.25L-5.35,-2.15L-3,-1L-3.55,0.9L-5.55,-0.35" style="fill-opacity:0.8;"/>
                        <path d="M-2.35,-3.75L-2.9,-1L-3,-1L-5.35,-2.15C-5.017,-3.517 -4.85,-4.467 -4.85,-5L-4.85,-5.15C-4.917,-5.417 -4.517,-5.567 -3.65,-5.6L1.7,-5.35C2.5,-5.283 2.933,-5.05 3,-4.65L3,-4.5L2.9,-4.3L0.05,-4.8L-3.2,-4.65L-2.9,-3.9L-2.35,-3.75M1.95,0.45L3.85,0.5L3.7,0.8L3.5,0.9L2.85,1.5L2.55,1.9C4.65,2.567 6.933,2.9 9.4,2.9L9.5,2.9L8.1,3.35C5.833,4.017 3.117,4.367 -0.05,4.4L-0.15,3.4C-0.25,3.033 -0.467,2.783 -0.8,2.65C-2.833,1.983 -4.7,1.1 -6.4,0L-5.55,-0.35L-3.55,0.9L2,1.1L1.95,0.45" style="fill-opacity:0.33;"/>
                        <path d="M3,-4.5C2.967,-3.633 3.2,-2.383 3.7,-0.75L3.7,-0.7C3.7,-0.333 3.333,-0.033 2.6,0.2L2.1,-3.75C2.5,-3.917 2.767,-4.1 2.9,-4.3L3,-4.5" style="fill:#fff;fill-opacity:0.7;"/>
                        <path d="M2.1,-3.75L1.65,-3.55L-0.9,-3.35L-2.35,-3.75L-2.9,-3.9L-3.2,-4.65L0.05,-4.8L2.9,-4.3C2.767,-4.1 2.5,-3.917 2.1,-3.75" style="fill:#fff;fill-opacity:0.07;"/>
                        <path d="M-2.35,-3.75L-0.9,-3.35L1.65,-3.55L2.1,-3.75C2.5,-3.917 2.767,-4.1 2.9,-4.3L3,-4.5L3,-4.65C2.933,-5.05 2.5,-5.283 1.7,-5.35L-3.65,-5.6C-4.517,-5.567 -4.917,-5.417 -4.85,-5.15" style="fill:none;fill-rule:nonzero;stroke:#5e3e2c;stroke-opacity:0.3;stroke-width:0.05px;"/>
                        <path d="M1.75,-1.05L-3,-1L-5.5,-2.25L-5.85,-0.55L-3.55,0.9L2,1.1L3.8,-0.55L3.55,-2.2L1.75,-1.05" style="fill:none;fill-rule:nonzero;stroke:#5e3f2c;stroke-opacity:0.3;stroke-width:0.05px;"/>
                    </g>
                </g>
                <g id="sprite12" serif:id="sprite1" transform="matrix(0.1938,-0.0519,0.0739,0.276,-5.30038,0.050225)">
                    <g id="shape02" serif:id="shape0">
                        <path d="M1.35,1.4L0.85,0.9C-0.117,-0.667 -0.4,-2.6 0,-4.9C-1.433,-3.4 -2.233,-1.65 -2.4,0.35L-3.1,2.55C-3.433,-0.917 -2.217,-3.8 0.55,-6.1C0.417,-3.133 0.683,-0.633 1.35,1.4" style="fill:#b2b2b2;"/>
                        <path d="M0.85,0.9L-0.3,-0.35C-0.2,1.85 0.067,3.25 0.5,3.85L-1.45,1.55L-1.6,3.2L-2.4,0.35C-2.233,-1.65 -1.433,-3.4 0,-4.9C-0.4,-2.6 -0.117,-0.667 0.85,0.9" style="fill:#a7a199;"/>
                        <path d="M0.85,0.9L1.35,1.4L2.4,4.6C2.567,5.233 2.483,5.7 2.15,6C1.783,6.267 0.75,6.267 -0.95,6C-1.983,5.7 -2.65,4.967 -2.95,3.8L-3.1,2.55L-2.4,0.35L-1.6,3.2L-1.45,1.55L0.5,3.85C0.067,3.25 -0.2,1.85 -0.3,-0.35L0.85,0.9" style="fill:#918068;"/>
                        <path d="M-3.1,2.55L-2.95,3.8C-2.65,4.967 -1.983,5.7 -0.95,6C0.75,6.267 1.783,6.267 2.15,6C2.483,5.7 2.567,5.233 2.4,4.6L1.35,1.4C0.683,-0.633 0.417,-3.133 0.55,-6.1C-2.217,-3.8 -3.433,-0.917 -3.1,2.55Z" style="fill:none;fill-rule:nonzero;stroke:#000;stroke-opacity:0.39;stroke-width:0.2px;"/>
                    </g>
                </g>
                <g id="sprite13" serif:id="sprite1" transform="matrix(0.3948,0,0,0.3948,-4.1501,-0.20016)">
                    <g id="shape03" serif:id="shape0">
                        <path d="M1.35,1.4L0.85,0.9C-0.117,-0.667 -0.4,-2.6 0,-4.9C-1.433,-3.4 -2.233,-1.65 -2.4,0.35L-3.1,2.55C-3.433,-0.917 -2.217,-3.8 0.55,-6.1C0.417,-3.133 0.683,-0.633 1.35,1.4" style="fill:#b2b2b2;"/>
                        <path d="M0.85,0.9L-0.3,-0.35C-0.2,1.85 0.067,3.25 0.5,3.85L-1.45,1.55L-1.6,3.2L-2.4,0.35C-2.233,-1.65 -1.433,-3.4 0,-4.9C-0.4,-2.6 -0.117,-0.667 0.85,0.9" style="fill:#a7a199;"/>
                        <path d="M0.85,0.9L1.35,1.4L2.4,4.6C2.567,5.233 2.483,5.7 2.15,6C1.783,6.267 0.75,6.267 -0.95,6C-1.983,5.7 -2.65,4.967 -2.95,3.8L-3.1,2.55L-2.4,0.35L-1.6,3.2L-1.45,1.55L0.5,3.85C0.067,3.25 -0.2,1.85 -0.3,-0.35L0.85,0.9" style="fill:#918068;"/>
                        <path d="M-3.1,2.55L-2.95,3.8C-2.65,4.967 -1.983,5.7 -0.95,6C0.75,6.267 1.783,6.267 2.15,6C2.483,5.7 2.567,5.233 2.4,4.6L1.35,1.4C0.683,-0.633 0.417,-3.133 0.55,-6.1C-2.217,-3.8 -3.433,-0.917 -3.1,2.55Z" style="fill:none;fill-rule:nonzero;stroke:#000;stroke-opacity:0.39;stroke-width:0.2px;"/>
                    </g>
                </g>
                <g id="sprite14" serif:id="sprite1" transform="matrix(-0.2007,0,0,0.2038,4.44983,0.19984)">
                    <g id="shape04" serif:id="shape0">
                        <path d="M1.35,1.4L0.85,0.9C-0.117,-0.667 -0.4,-2.6 0,-4.9C-1.433,-3.4 -2.233,-1.65 -2.4,0.35L-3.1,2.55C-3.433,-0.917 -2.217,-3.8 0.55,-6.1C0.417,-3.133 0.683,-0.633 1.35,1.4" style="fill:#b2b2b2;"/>
                        <path d="M0.85,0.9L-0.3,-0.35C-0.2,1.85 0.067,3.25 0.5,3.85L-1.45,1.55L-1.6,3.2L-2.4,0.35C-2.233,-1.65 -1.433,-3.4 0,-4.9C-0.4,-2.6 -0.117,-0.667 0.85,0.9" style="fill:#a7a199;"/>
                        <path d="M0.85,0.9L1.35,1.4L2.4,4.6C2.567,5.233 2.483,5.7 2.15,6C1.783,6.267 0.75,6.267 -0.95,6C-1.983,5.7 -2.65,4.967 -2.95,3.8L-3.1,2.55L-2.4,0.35L-1.6,3.2L-1.45,1.55L0.5,3.85C0.067,3.25 -0.2,1.85 -0.3,-0.35L0.85,0.9" style="fill:#918068;"/>
                        <path d="M-3.1,2.55L-2.95,3.8C-2.65,4.967 -1.983,5.7 -0.95,6C0.75,6.267 1.783,6.267 2.15,6C2.483,5.7 2.567,5.233 2.4,4.6L1.35,1.4C0.683,-0.633 0.417,-3.133 0.55,-6.1C-2.217,-3.8 -3.433,-0.917 -3.1,2.55Z" style="fill:none;fill-rule:nonzero;stroke:#000;stroke-opacity:0.39;stroke-width:0.2px;"/>
                    </g>
                </g>
                <g id="sprite15" serif:id="sprite1" transform="matrix(-0.2963,0,0,0.301,3.59992,0.5001)">
                    <g id="shape05" serif:id="shape0">
                        <path d="M1.35,1.4L0.85,0.9C-0.117,-0.667 -0.4,-2.6 0,-4.9C-1.433,-3.4 -2.233,-1.65 -2.4,0.35L-3.1,2.55C-3.433,-0.917 -2.217,-3.8 0.55,-6.1C0.417,-3.133 0.683,-0.633 1.35,1.4" style="fill:#b2b2b2;"/>
                        <path d="M0.85,0.9L-0.3,-0.35C-0.2,1.85 0.067,3.25 0.5,3.85L-1.45,1.55L-1.6,3.2L-2.4,0.35C-2.233,-1.65 -1.433,-3.4 0,-4.9C-0.4,-2.6 -0.117,-0.667 0.85,0.9" style="fill:#a7a199;"/>
                        <path d="M0.85,0.9L1.35,1.4L2.4,4.6C2.567,5.233 2.483,5.7 2.15,6C1.783,6.267 0.75,6.267 -0.95,6C-1.983,5.7 -2.65,4.967 -2.95,3.8L-3.1,2.55L-2.4,0.35L-1.6,3.2L-1.45,1.55L0.5,3.85C0.067,3.25 -0.2,1.85 -0.3,-0.35L0.85,0.9" style="fill:#918068;"/>
                        <path d="M-3.1,2.55L-2.95,3.8C-2.65,4.967 -1.983,5.7 -0.95,6C0.75,6.267 1.783,6.267 2.15,6C2.483,5.7 2.567,5.233 2.4,4.6L1.35,1.4C0.683,-0.633 0.417,-3.133 0.55,-6.1C-2.217,-3.8 -3.433,-0.917 -3.1,2.55Z" style="fill:none;fill-rule:nonzero;stroke:#000;stroke-opacity:0.39;stroke-width:0.2px;"/>
                    </g>
                </g>
                <g id="sprite16" serif:id="sprite1" transform="matrix(-0.2007,0,0,0.2038,1.74982,1.74984)">
                    <g id="shape06" serif:id="shape0">
                        <path d="M1.35,1.4L0.85,0.9C-0.117,-0.667 -0.4,-2.6 0,-4.9C-1.433,-3.4 -2.233,-1.65 -2.4,0.35L-3.1,2.55C-3.433,-0.917 -2.217,-3.8 0.55,-6.1C0.417,-3.133 0.683,-0.633 1.35,1.4" style="fill:#b2b2b2;"/>
                        <path d="M0.85,0.9L-0.3,-0.35C-0.2,1.85 0.067,3.25 0.5,3.85L-1.45,1.55L-1.6,3.2L-2.4,0.35C-2.233,-1.65 -1.433,-3.4 0,-4.9C-0.4,-2.6 -0.117,-0.667 0.85,0.9" style="fill:#a7a199;"/>
                        <path d="M0.85,0.9L1.35,1.4L2.4,4.6C2.567,5.233 2.483,5.7 2.15,6C1.783,6.267 0.75,6.267 -0.95,6C-1.983,5.7 -2.65,4.967 -2.95,3.8L-3.1,2.55L-2.4,0.35L-1.6,3.2L-1.45,1.55L0.5,3.85C0.067,3.25 -0.2,1.85 -0.3,-0.35L0.85,0.9" style="fill:#918068;"/>
                        <path d="M-3.1,2.55L-2.95,3.8C-2.65,4.967 -1.983,5.7 -0.95,6C0.75,6.267 1.783,6.267 2.15,6C2.483,5.7 2.567,5.233 2.4,4.6L1.35,1.4C0.683,-0.633 0.417,-3.133 0.55,-6.1C-2.217,-3.8 -3.433,-0.917 -3.1,2.55Z" style="fill:none;fill-rule:nonzero;stroke:#000;stroke-opacity:0.39;stroke-width:0.2px;"/>
                    </g>
                </g>
                <g id="sprite17" serif:id="sprite1" transform="matrix(0.258,0,0,0.2857,-1.9999,1.10001)">
                    <g id="shape07" serif:id="shape0">
                        <path d="M1.35,1.4L0.85,0.9C-0.117,-0.667 -0.4,-2.6 0,-4.9C-1.433,-3.4 -2.233,-1.65 -2.4,0.35L-3.1,2.55C-3.433,-0.917 -2.217,-3.8 0.55,-6.1C0.417,-3.133 0.683,-0.633 1.35,1.4" style="fill:#b2b2b2;"/>
                        <path d="M0.85,0.9L-0.3,-0.35C-0.2,1.85 0.067,3.25 0.5,3.85L-1.45,1.55L-1.6,3.2L-2.4,0.35C-2.233,-1.65 -1.433,-3.4 0,-4.9C-0.4,-2.6 -0.117,-0.667 0.85,0.9" style="fill:#a7a199;"/>
                        <path d="M0.85,0.9L1.35,1.4L2.4,4.6C2.567,5.233 2.483,5.7 2.15,6C1.783,6.267 0.75,6.267 -0.95,6C-1.983,5.7 -2.65,4.967 -2.95,3.8L-3.1,2.55L-2.4,0.35L-1.6,3.2L-1.45,1.55L0.5,3.85C0.067,3.25 -0.2,1.85 -0.3,-0.35L0.85,0.9" style="fill:#918068;"/>
                        <path d="M-3.1,2.55L-2.95,3.8C-2.65,4.967 -1.983,5.7 -0.95,6C0.75,6.267 1.783,6.267 2.15,6C2.483,5.7 2.567,5.233 2.4,4.6L1.35,1.4C0.683,-0.633 0.417,-3.133 0.55,-6.1C-2.217,-3.8 -3.433,-0.917 -3.1,2.55Z" style="fill:none;fill-rule:nonzero;stroke:#000;stroke-opacity:0.39;stroke-width:0.2px;"/>
                    </g>
                </g>
                <g id="sprite18" serif:id="sprite1" transform="matrix(-0.3089,0,0,0.2941,0.600075,1.60033)">
                    <g id="shape08" serif:id="shape0">
                        <path d="M1.35,1.4L0.85,0.9C-0.117,-0.667 -0.4,-2.6 0,-4.9C-1.433,-3.4 -2.233,-1.65 -2.4,0.35L-3.1,2.55C-3.433,-0.917 -2.217,-3.8 0.55,-6.1C0.417,-3.133 0.683,-0.633 1.35,1.4" style="fill:#b2b2b2;"/>
                        <path d="M0.85,0.9L-0.3,-0.35C-0.2,1.85 0.067,3.25 0.5,3.85L-1.45,1.55L-1.6,3.2L-2.4,0.35C-2.233,-1.65 -1.433,-3.4 0,-4.9C-0.4,-2.6 -0.117,-0.667 0.85,0.9" style="fill:#a7a199;"/>
                        <path d="M0.85,0.9L1.35,1.4L2.4,4.6C2.567,5.233 2.483,5.7 2.15,6C1.783,6.267 0.75,6.267 -0.95,6C-1.983,5.7 -2.65,4.967 -2.95,3.8L-3.1,2.55L-2.4,0.35L-1.6,3.2L-1.45,1.55L0.5,3.85C0.067,3.25 -0.2,1.85 -0.3,-0.35L0.85,0.9" style="fill:#918068;"/>
                        <path d="M-3.1,2.55L-2.95,3.8C-2.65,4.967 -1.983,5.7 -0.95,6C0.75,6.267 1.783,6.267 2.15,6C2.483,5.7 2.567,5.233 2.4,4.6L1.35,1.4C0.683,-0.633 0.417,-3.133 0.55,-6.1C-2.217,-3.8 -3.433,-0.917 -3.1,2.55Z" style="fill:none;fill-rule:nonzero;stroke:#000;stroke-opacity:0.39;stroke-width:0.2px;"/>
                    </g>
                </g>
                <g id="sprite6" transform="matrix(-0.2382,0,0,0.3362,10.85,0.74984)">
                    <g id="shape7">
                        <path d="M1.8,2L2.75,4.9L0,5.55L0.2,5.05L-2,4.35L-1.7,4.9C-1.533,5.3 -1.717,5.35 -2.25,5.05L-2.5,4.4L-2.65,3.15L-1.95,0.95L-1.15,3.8L-1,2.15L0.95,4.45C0.517,3.85 0.25,2.45 0.15,0.25L1.3,1.5L1.8,2" style="fill:#d0b895;"/>
                        <path d="M1.8,2L1.3,1.5C0.333,-0.067 0.05,-2 0.45,-4.3C-0.983,-2.8 -1.783,-1.05 -1.95,0.95L-2.65,3.15C-2.983,-0.317 -1.767,-3.2 1,-5.5C0.867,-2.533 1.133,-0.033 1.8,2" style="fill:#fff;"/>
                        <path d="M1.3,1.5L0.15,0.25C0.25,2.45 0.517,3.85 0.95,4.45L-1,2.15L-1.15,3.8L-1.95,0.95C-1.783,-1.05 -0.983,-2.8 0.45,-4.3C0.05,-2 0.333,-0.067 1.3,1.5" style="fill:#efe7dc;"/>
                        <path d="M2.75,4.9L1.8,2C1.133,-0.033 0.867,-2.533 1,-5.5C-1.767,-3.2 -2.983,-0.317 -2.65,3.15L-2.5,4.4L-2.25,5.05" style="fill:none;fill-rule:nonzero;stroke:#000;stroke-opacity:0.39;stroke-width:0.2px;"/>
                    </g>
                </g>
                <g id="sprite61" serif:id="sprite6" transform="matrix(-0.1151,0,0,0.1295,9.45002,0.30015)">
                    <g id="shape71" serif:id="shape7">
                        <path d="M1.8,2L2.75,4.9L0,5.55L0.2,5.05L-2,4.35L-1.7,4.9C-1.533,5.3 -1.717,5.35 -2.25,5.05L-2.5,4.4L-2.65,3.15L-1.95,0.95L-1.15,3.8L-1,2.15L0.95,4.45C0.517,3.85 0.25,2.45 0.15,0.25L1.3,1.5L1.8,2" style="fill:#d0b895;"/>
                        <path d="M1.8,2L1.3,1.5C0.333,-0.067 0.05,-2 0.45,-4.3C-0.983,-2.8 -1.783,-1.05 -1.95,0.95L-2.65,3.15C-2.983,-0.317 -1.767,-3.2 1,-5.5C0.867,-2.533 1.133,-0.033 1.8,2" style="fill:#fff;"/>
                        <path d="M1.3,1.5L0.15,0.25C0.25,2.45 0.517,3.85 0.95,4.45L-1,2.15L-1.15,3.8L-1.95,0.95C-1.783,-1.05 -0.983,-2.8 0.45,-4.3C0.05,-2 0.333,-0.067 1.3,1.5" style="fill:#efe7dc;"/>
                        <path d="M2.75,4.9L1.8,2C1.133,-0.033 0.867,-2.533 1,-5.5C-1.767,-3.2 -2.983,-0.317 -2.65,3.15L-2.5,4.4L-2.25,5.05" style="fill:none;fill-rule:nonzero;stroke:#000;stroke-opacity:0.39;stroke-width:0.2px;"/>
                    </g>
                </g>
                <g id="sprite62" serif:id="sprite6" transform="matrix(0.2815,0,0.0634,0.401,-7.80012,-1.5997)">
                    <g id="shape72" serif:id="shape7">
                        <path d="M1.8,2L2.75,4.9L0,5.55L0.2,5.05L-2,4.35L-1.7,4.9C-1.533,5.3 -1.717,5.35 -2.25,5.05L-2.5,4.4L-2.65,3.15L-1.95,0.95L-1.15,3.8L-1,2.15L0.95,4.45C0.517,3.85 0.25,2.45 0.15,0.25L1.3,1.5L1.8,2" style="fill:#d0b895;"/>
                        <path d="M1.8,2L1.3,1.5C0.333,-0.067 0.05,-2 0.45,-4.3C-0.983,-2.8 -1.783,-1.05 -1.95,0.95L-2.65,3.15C-2.983,-0.317 -1.767,-3.2 1,-5.5C0.867,-2.533 1.133,-0.033 1.8,2" style="fill:#fff;"/>
                        <path d="M1.3,1.5L0.15,0.25C0.25,2.45 0.517,3.85 0.95,4.45L-1,2.15L-1.15,3.8L-1.95,0.95C-1.783,-1.05 -0.983,-2.8 0.45,-4.3C0.05,-2 0.333,-0.067 1.3,1.5" style="fill:#efe7dc;"/>
                        <path d="M2.75,4.9L1.8,2C1.133,-0.033 0.867,-2.533 1,-5.5C-1.767,-3.2 -2.983,-0.317 -2.65,3.15L-2.5,4.4L-2.25,5.05" style="fill:none;fill-rule:nonzero;stroke:#000;stroke-opacity:0.39;stroke-width:0.2px;"/>
                    </g>
                </g>
                <g id="sprite63" serif:id="sprite6" transform="matrix(0.2463,-0.0258,0.0705,0.2579,-7.24991,3.74969)">
                    <g id="shape73" serif:id="shape7">
                        <path d="M1.8,2L2.75,4.9L0,5.55L0.2,5.05L-2,4.35L-1.7,4.9C-1.533,5.3 -1.717,5.35 -2.25,5.05L-2.5,4.4L-2.65,3.15L-1.95,0.95L-1.15,3.8L-1,2.15L0.95,4.45C0.517,3.85 0.25,2.45 0.15,0.25L1.3,1.5L1.8,2" style="fill:#d0b895;"/>
                        <path d="M1.8,2L1.3,1.5C0.333,-0.067 0.05,-2 0.45,-4.3C-0.983,-2.8 -1.783,-1.05 -1.95,0.95L-2.65,3.15C-2.983,-0.317 -1.767,-3.2 1,-5.5C0.867,-2.533 1.133,-0.033 1.8,2" style="fill:#fff;"/>
                        <path d="M1.3,1.5L0.15,0.25C0.25,2.45 0.517,3.85 0.95,4.45L-1,2.15L-1.15,3.8L-1.95,0.95C-1.783,-1.05 -0.983,-2.8 0.45,-4.3C0.05,-2 0.333,-0.067 1.3,1.5" style="fill:#efe7dc;"/>
                        <path d="M2.75,4.9L1.8,2C1.133,-0.033 0.867,-2.533 1,-5.5C-1.767,-3.2 -2.983,-0.317 -2.65,3.15L-2.5,4.4L-2.25,5.05" style="fill:none;fill-rule:nonzero;stroke:#000;stroke-opacity:0.39;stroke-width:0.2px;"/>
                    </g>
                </g>
                <g id="sprite64" serif:id="sprite6" transform="matrix(-0.3075,0,0,0.3362,2.1001,-4.25016)">
                    <g id="shape74" serif:id="shape7">
                        <path d="M1.8,2L2.75,4.9L0,5.55L0.2,5.05L-2,4.35L-1.7,4.9C-1.533,5.3 -1.717,5.35 -2.25,5.05L-2.5,4.4L-2.65,3.15L-1.95,0.95L-1.15,3.8L-1,2.15L0.95,4.45C0.517,3.85 0.25,2.45 0.15,0.25L1.3,1.5L1.8,2" style="fill:#d0b895;"/>
                        <path d="M1.8,2L1.3,1.5C0.333,-0.067 0.05,-2 0.45,-4.3C-0.983,-2.8 -1.783,-1.05 -1.95,0.95L-2.65,3.15C-2.983,-0.317 -1.767,-3.2 1,-5.5C0.867,-2.533 1.133,-0.033 1.8,2" style="fill:#fff;"/>
                        <path d="M1.3,1.5L0.15,0.25C0.25,2.45 0.517,3.85 0.95,4.45L-1,2.15L-1.15,3.8L-1.95,0.95C-1.783,-1.05 -0.983,-2.8 0.45,-4.3C0.05,-2 0.333,-0.067 1.3,1.5" style="fill:#efe7dc;"/>
                        <path d="M2.75,4.9L1.8,2C1.133,-0.033 0.867,-2.533 1,-5.5C-1.767,-3.2 -2.983,-0.317 -2.65,3.15L-2.5,4.4L-2.25,5.05" style="fill:none;fill-rule:nonzero;stroke:#000;stroke-opacity:0.39;stroke-width:0.2px;"/>
                    </g>
                </g>
                <g id="shape8">
                    <path d="M-0.5,-1L-0.05,-0.6L-0.6,-0.65L-1,-0.2L-0.95,-0.8L-1.35,-1.2L-0.85,-1.15L-0.45,-1.5L-0.5,-1M-3.7,4.2L-3.65,5.1L-4.2,4.35L-5.15,4.35L-4.45,3.8L-4.45,2.9L-3.9,3.6L-2.95,3.65L-3.7,4.2M-9.1,1.3L-8.7,0.9L-8.8,1.45L-8.4,1.85L-8.95,1.75L-9.4,2.15L-9.3,1.6L-9.7,1.2L-9.1,1.3M7.8,2.95L8.9,4.2L7.4,3.9L6.15,5L6.4,3.4L5.3,2L6.95,2.35L8.15,1.25L7.8,2.95" style="fill:#fff;fill-opacity:0.33;"/>
                </g>
            </g>
        </g>
    </g>
    <defs>
        <linearGradient id="_Linear1" x1="0" y1="0" x2="1" y2="0" gradientUnits="userSpaceOnUse" gradientTransform="matrix(-0.32768,9.99424,-9.99424,-0.32768,0.19434,-4.99612)"><stop offset="0" style="stop-color:#ef405b;stop-opacity:1"/><stop offset="0.2" style="stop-color:#f79547;stop-opacity:1"/><stop offset="0.41" style="stop-color:#fdf32b;stop-opacity:1"/><stop offset="0.62" style="stop-color:#37bd69;stop-opacity:1"/><stop offset="0.83" style="stop-color:#2b76b7;stop-opacity:1"/><stop offset="1" style="stop-color:#a34ba3;stop-opacity:1"/></linearGradient>
        <linearGradient id="_Linear2" x1="0" y1="0" x2="1" y2="0" gradientUnits="userSpaceOnUse" gradientTransform="matrix(14.7456,-6.06208,6.06208,14.7456,-7.1343,3.00304)"><stop offset="0" style="stop-color:#5b5b5b;stop-opacity:0.13"/><stop offset="0.07" style="stop-color:#5b5b5b;stop-opacity:0.13"/><stop offset="0.51" style="stop-color:#9a9a9a;stop-opacity:0.15"/><stop offset="1" style="stop-color:#d0d0d0;stop-opacity:0.33"/></linearGradient>
        <linearGradient id="_Linear3" x1="0" y1="0" x2="1" y2="0" gradientUnits="userSpaceOnUse" gradientTransform="matrix(-24.7398,0.16384,-0.16384,-24.7398,12.3699,-0.17155)"><stop offset="0" style="stop-color:#ef405b;stop-opacity:1"/><stop offset="0.2" style="stop-color:#f79547;stop-opacity:1"/><stop offset="0.41" style="stop-color:#fdf32b;stop-opacity:1"/><stop offset="0.62" style="stop-color:#37bd69;stop-opacity:1"/><stop offset="0.83" style="stop-color:#2b76b7;stop-opacity:1"/><stop offset="1" style="stop-color:#a34ba3;stop-opacity:1"/></linearGradient>
    </defs>
</svg>
