<?xml version="1.0" encoding="UTF-8" standalone="no"?>
<!DOCTYPE svg PUBLIC "-//W3C//DTD SVG 1.1//EN" "http://www.w3.org/Graphics/SVG/1.1/DTD/svg11.dtd">
<svg width="100%" height="100%" viewBox="0 0 942 1503" version="1.1" xmlns="http://www.w3.org/2000/svg" xmlns:xlink="http://www.w3.org/1999/xlink" xml:space="preserve" xmlns:serif="http://www.serif.com/" style="fill-rule:evenodd;clip-rule:evenodd;stroke-linecap:round;stroke-linejoin:round;">
    <g transform="matrix(1,0,0,1,-1798.84,-1324.5)">
        <g transform="matrix(10,0,0,10,0,0)">
            <g id="shape0">
                <path d="M188.9,209.8L189.5,212.55L189.75,214.55L189.8,215.25L189.85,215.8L190,217.95C190.167,220.617 190.2,223.217 190.1,225.75L190.1,226.35L190.05,227.3L189.9,229.1L189.75,229.1L189.95,224.2C189.95,221.2 189.75,218.167 189.35,215.1L185.45,209.2C185.383,210.1 185.117,211.133 184.65,212.3L184.1,208.3C183.833,205.667 183.983,203.817 184.55,202.75L186.4,204.85L187.5,206.1C188.033,206.967 188.5,208.2 188.9,209.8" style="fill:#332012;"/>
                <path d="M202.95,161.2L203.35,160.8L203.5,160.55L204,160.15L203.2,158.55L203.05,157.95L202.95,157.65C204.617,153.65 206.583,150.133 208.85,147.1C211.983,143.8 214.367,141.033 216,138.8C217.433,136.1 217.25,134.567 215.45,134.2C213.55,134.3 211.267,135.117 208.6,136.65C206,137.883 203.4,140.117 200.8,143.35L200.65,143.6L200.4,143.9L200.3,143.95L200.25,144L200.15,144.2L199.75,144.75C199.05,145.883 198.5,147.033 198.1,148.2M200.8,165L200.8,165.4C200.533,167.1 200.933,168.833 202,170.6C202.733,171.333 203.55,171.783 204.45,171.95M199.75,144.75C199.183,145.417 198.317,146.783 197.15,148.85C193.95,156.483 193.233,163.117 195,168.75L197.85,175.8L197.85,176.15C197.317,181.25 197.133,185.9 197.3,190.1L197.2,190.2C195.9,191.2 194.667,192.333 193.5,193.6C191.767,195.467 190.283,197.45 189.05,199.55C190.083,197.85 191.267,196.233 192.6,194.7L192,195.7L191.35,197C189.617,200.6 188.8,204.833 188.9,209.7L188.9,209.8M189.75,214.55L189.75,214.7L189.85,215.8M190.1,225.75L190.1,226.35L190.05,227.3M189.95,224.2L189.85,226.2L189.75,227.05L189.45,229.55L188.85,233.05L187.9,233.9L187.7,234L187.7,234.25M207.25,170.1L208.6,168.45C210.3,166.05 211.633,163.233 212.6,160C213.333,154.467 210.783,154.25 204.95,159.35L204,160.15M218,199.5C218.1,197.267 218.5,194.9 219.2,192.4C219.667,189.033 220.817,185.933 222.65,183.1L218.5,182.85C213.967,182.85 209.783,183.583 205.95,185.05L205.65,186.2L204.7,190.35M235.9,180.45L236.15,179.35L233.2,178.95L232.4,178.85C228.9,178.55 226.383,178.983 224.85,180.15C224.05,181.083 223.317,182.067 222.65,183.1M225,201.8C226.333,199.567 227.633,197.067 228.9,194.3L229.3,193.85C230.833,192.717 232.4,192.05 234,191.85L242.8,192.45C245.867,192.55 248.55,192.533 250.85,192.4L251.8,192.35L252.4,192.3L252.65,192.15C253.817,191.783 255.217,191.017 256.85,189.85C260.883,187.517 264.367,184.283 267.3,180.15C269.833,176.75 271.45,173.033 272.15,169C272.517,165.533 272.2,163.517 271.2,162.95C270.3,162.95 269.45,163.317 268.65,164.05C266.05,166.65 263.45,169.733 260.85,173.3C258.617,176.367 255.65,179.267 251.95,182L244.6,181.5C245.5,179.633 246.133,177.717 246.5,175.75C248.033,169.283 245.8,168.783 239.8,174.25C237.8,175.883 236.583,177.583 236.15,179.35M233.2,178.95L232.5,178.85L232.4,178.85M236.15,183.25C237.583,185.583 239.517,186.35 241.95,185.55M205.95,185.05C207.983,177.517 208.867,171.983 208.6,168.45M242.8,192.45L243.8,193.45L244.7,194.4L244.9,194.6C246.967,196.833 249.467,198.517 252.4,199.65C254.267,199.65 257.167,199.267 261.1,198.5L261.55,198.85L261.9,199.1L262.35,199.75L263.15,202.1L263.3,202.9C263.7,206.7 262.85,210.867 260.75,215.4C259.15,218.267 257.55,220.6 255.95,222.4C256.983,221.933 257.933,221.567 258.8,221.3C259.467,225.8 256.85,230.217 250.95,234.55L248.55,236.15L246.25,238.55L242.7,242.85C246.2,242.35 249.033,242.317 251.2,242.75C247.8,247.383 241.4,250.833 232,253.1L231.05,253.2C231.45,254.267 231.717,255.433 231.85,256.7L232.1,257L232.9,258.05C234.4,258.417 235.683,259 236.75,259.8L238.85,261.6L239.75,260.55C240.517,258.417 241.35,257.033 242.25,256.4C242.717,256.433 243.15,256.867 243.55,257.7C243.95,258.533 244.133,259.467 244.1,260.5C244.033,261.567 243.433,262.35 242.3,262.85L239.9,263.65C240,264.85 239.85,266.1 239.45,267.4C239.117,268.9 238.483,270.133 237.55,271.1M248.55,236.15L249.35,235.1M246.25,238.55C248.317,235.35 249.1,232.283 248.6,229.35C246.567,229.217 244.2,229.617 241.5,230.55C240.367,230.717 239.283,230.967 238.25,231.3C236.583,231.767 235,232.383 233.5,233.15M253.55,224.65L255.95,222.4M243.25,219.7L236.5,219.9L235.3,220.2C233.9,221.033 232.9,222.05 232.3,223.25L232.3,223.3L232.6,223.7C233.367,224.7 234.6,225.65 236.3,226.55L238.5,227.05C242.467,227.65 244.367,226.45 244.2,223.45C244.133,222.417 243.817,221.167 243.25,219.7L242.6,218C241.3,215.9 239.917,213.05 238.45,209.45M229.85,211.15L229.9,214.25C230.067,217.783 230.867,220.783 232.3,223.25M206.45,208.55C203.917,207.983 201.767,207.167 200,206.1C198.733,204.933 197.967,203.6 197.7,202.1L197.95,197.9C196.383,199.267 195.2,200.683 194.4,202.15C192.6,205.383 192.717,208.85 194.75,212.55L197.55,214C200.517,215 204.15,214.833 208.45,213.5C211.317,210.9 212.567,208.667 212.2,206.8L206.45,208.55M221.05,232.8C221.45,231.633 221.683,230.35 221.75,228.95L221.75,228.5L221.55,226.2L219.7,225.5C216.5,224.5 213.433,224.467 210.5,225.4C209.3,225.967 208.233,226.633 207.3,227.4C206.667,227.867 206.1,228.367 205.6,228.9L205.6,228.95L205.65,230.3C205.75,231.833 206.133,233.217 206.8,234.45L207.75,235.95C209.283,237.917 211.167,238.9 213.4,238.9C215.567,238.9 217.5,237.917 219.2,235.95L219.85,235.1M221.55,226.2C223.483,226.967 225.467,228.1 227.5,229.6C227.533,231.433 227.35,233.15 226.95,234.75L226.6,235.95L226.1,237.25C228,234.617 228.967,232.167 229,229.9C230.2,229.067 230.85,228.283 230.95,227.55C229.817,226.95 228.783,226.617 227.85,226.55C222.083,222.683 216.45,221.383 210.95,222.65C205.35,225.783 202.2,230.5 201.5,236.8C201.667,236 201.883,235.233 202.15,234.5C202.583,233.3 203.133,232.183 203.8,231.15C204.3,230.35 204.9,229.6 205.6,228.9M204.05,242.1C205.183,243 206.5,243.783 208,244.45C211.133,245.483 214.267,245.65 217.4,244.95L220.35,243.65M242.1,243.4L242.7,242.85M229.5,242C232.4,240.4 234.883,239.767 236.95,240.1C236.717,241.8 236.25,243.317 235.55,244.65C234.85,245.95 233.917,247.067 232.75,248L232.3,248.25M184.1,208.3C183.833,205.667 183.983,203.817 184.55,202.75L186.4,204.85L189.05,199.55M184.1,208.3C182.1,214.867 181.317,220.317 181.75,224.65C182.183,228.75 183.333,232.467 185.2,235.8L186.1,235.9C186.467,236 186.883,236.233 187.35,236.6L187.75,236.95C188.683,238.217 189.183,239.333 189.25,240.3L189.25,240.45L186.9,240.4L185.6,241.2C185.1,241.533 184.633,241.617 184.2,241.45C184.567,242.817 185.35,244.233 186.55,245.7C189.217,249.867 193.667,252.3 199.9,253C202.167,253.233 204.683,253.25 207.45,253.05M187.7,234C187.133,234.133 186.55,233.9 185.95,233.3M185.2,235.8C184.967,235.833 184.75,235.917 184.55,236.05C183.283,237.117 183.067,238.85 183.9,241.25L184.2,241.45M189.55,245.35L190.2,246.85L191.75,248.4C192.017,248.7 193.1,248.717 195,248.45M201.5,236.8L201.45,236.9C201.383,237.267 201.367,237.65 201.4,238.05L201.45,237.95C201.583,236.75 201.817,235.6 202.15,234.5M201.4,238.05L201.4,238.65M199.9,253L200.1,253.85C200.6,255.417 201.533,257 202.9,258.6C204.067,259.967 205.55,261.35 207.35,262.75M233.4,258.6L232.9,258.05M219.7,257.9L222.95,255.7C224.75,254.7 226.717,253.983 228.85,253.55L229,253.5L231.05,253.2M228.85,253.55L228.95,253.75L229,253.5M225.75,267.15L228.25,266.85L228.9,266.45C230.1,264.95 230.7,263.583 230.7,262.35C230.033,262.55 229.4,262.833 228.8,263.2C228.367,263.4 227.95,263.633 227.55,263.9C227.35,264 227.133,264.117 226.9,264.25M226.8,269L224.45,268.7L223.85,268.85L221,269.4L222,271.95L222.5,272.3L223.75,272.65C224.383,272.483 224.967,272.217 225.5,271.85L225.95,271.55C226.45,270.783 226.883,269.867 227.25,268.8L226.8,269M232,265.05L230,266.7L229.55,267.55L229.45,267.8C228.817,269.333 228.7,271.233 229.1,273.5C229.033,273.8 229.05,274.1 229.15,274.4L229.85,275.65C231.217,275.917 232.6,275.9 234,275.6L236.2,274.85M228.25,266.85L228.65,266.95L228.35,267.8L229.1,267.65L229.55,267.55M229.1,267.65L229.45,267.8M228.35,267.8L227.25,268.8M239.9,263.65L239.9,263.6C239.867,263.033 239.517,262.367 238.85,261.6M237,272.6L237.05,272.15L237.05,271.7M237.05,272.15C238.417,270.617 239.367,269.8 239.9,269.7C240.767,270.033 240.317,271.833 238.55,275.1C238.283,276.1 237.95,276.883 237.55,277.45L236.35,278.7C234.65,280.333 232.917,281.083 231.15,280.95C230.75,280.983 230.767,280.417 231.2,279.25C231.467,278.517 231.967,277.733 232.7,276.9L234,275.6M228.8,263.2C229.867,259.667 229.917,256.517 228.95,253.75M202.9,258.6L202.95,259.35C202.683,260.617 202.633,261.967 202.8,263.4C203.3,264.6 204.183,265.9 205.45,267.3L205.45,266.5M205.45,267.3L205.55,268.7L205.8,267.65L206,267.15L207.9,264.65C208.267,264.35 208.633,264.133 209,264M207.25,262.3L208.8,263.2L210.15,264.25L210.65,265.05L212.65,266.3L213.05,266.35L213.1,266.3C213.633,265.733 214.233,265.367 214.9,265.2L216.35,263.95C217.75,262.783 218.917,262.05 219.85,261.75C220.117,260.45 220.517,259.183 221.05,257.95M210.65,265.05L211.1,266.7L211.05,267.1C210.65,269.5 209.65,271.5 208.05,273.1C207.117,272.4 206.3,271 205.6,268.9L205.55,268.7M213.05,266.35L213,266.4C211.467,268.8 210.883,271.45 211.25,274.35C213.117,274.417 214.55,273.767 215.55,272.4L215.6,272.25L215.65,272.2L217.3,270.85L218.65,269.55L218.05,269.5M213.1,266.3L213.75,266.35C213.683,266.25 214.067,265.867 214.9,265.2M218.65,269.55L221,269.4M222.5,272.3L222.5,272.75L222.45,273.25L222.35,274.8L222.4,274.95C222.4,275.85 222.533,276.617 222.8,277.25C223.167,278.217 223.467,278.567 223.7,278.3C224.833,277.4 225.483,275.967 225.65,274L225.65,272.55L225.5,271.85M190.2,246.85L189.8,247.7" style="fill:none;fill-rule:nonzero;stroke:#260900;stroke-width:3.5px;"/>
            </g>
            <g id="sprite0" transform="matrix(-2.6873,0,0,2.6873,224.05,272.35)">
                <g id="shape1">
                    <path d="M0.65,0.9L0.65,0.95L0.5,1.8L0.15,2.2C-0.283,1.867 -0.533,1.333 -0.6,0.6L0.2,0.3L0.65,0.9" style="fill:#1e1613;"/>
                    <path d="M-0.6,0.6L-0.6,0.1L-0.35,-0.65C-0.05,-1.783 0.233,-2.3 0.5,-2.2L0.6,0.15L0.6,0.35L0.65,0.9L0.2,0.3L-0.6,0.6" style="fill:#432610;"/>
                    <path d="M-0.6,0.6L-0.6,0.1L-0.35,-0.65C-0.05,-1.783 0.233,-2.3 0.5,-2.2L0.6,0.15L0.6,0.35L0.65,0.9L0.65,0.95L0.5,1.8L0.15,2.2C-0.283,1.867 -0.533,1.333 -0.6,0.6Z" style="fill:none;fill-rule:nonzero;stroke:#000;stroke-opacity:0.3;stroke-width:0.07px;"/>
                </g>
            </g>
            <g id="sprite1" transform="matrix(-2.6873,0,0,2.6873,224.45,266.05)">
                <g id="shape2">
                    <path d="M1.15,-1.75C1.617,-0.25 1.533,1.067 0.9,2.2L0.25,2.45C-0.017,2.383 -0.283,2.25 -0.55,2.05C-1.05,1.317 -1.35,0.133 -1.45,-1.5C-0.617,-2.6 0.25,-2.683 1.15,-1.75" style="fill:#5d3516;"/>
                    <path d="M1.15,-1.75C1.617,-0.25 1.533,1.067 0.9,2.2L0.25,2.45C-0.017,2.383 -0.283,2.25 -0.55,2.05C-1.05,1.317 -1.35,0.133 -1.45,-1.5C-0.617,-2.6 0.25,-2.683 1.15,-1.75Z" style="fill:none;fill-rule:nonzero;stroke:#000;stroke-opacity:0.3;stroke-width:0.07px;"/>
                </g>
            </g>
            <g id="sprite2" transform="matrix(-2.6873,0,0,2.6873,235.6,275.3)">
                <g id="shape3">
                    <path d="M-0.3,1.25L-0.7,0.8L-1.1,-0.05C-1.767,-1.283 -1.933,-1.95 -1.6,-2.05L0.4,-0.1L1.05,0.55L0.15,0.4C-0.117,0.633 -0.267,0.917 -0.3,1.25" style="fill:#432610;"/>
                    <path d="M-0.3,1.25C-0.267,0.917 -0.117,0.633 0.15,0.4L1.05,0.55L1.1,0.6L1.65,1.5C1.817,1.933 1.817,2.133 1.65,2.1C1.017,2.167 0.367,1.883 -0.3,1.25" style="fill:#1e1613;"/>
                    <path d="M1.1,0.6L0.4,-0.1L-1.6,-2.05C-1.933,-1.95 -1.767,-1.283 -1.1,-0.05L-0.7,0.8L-0.3,1.25C0.367,1.883 1.017,2.167 1.65,2.1C1.817,2.133 1.817,1.933 1.65,1.5L1.1,0.6Z" style="fill:none;fill-rule:nonzero;stroke:#000;stroke-opacity:0.3;stroke-width:0.07px;"/>
                </g>
            </g>
            <g id="sprite3" transform="matrix(-2.6873,0,0,2.6873,233.05,272.75)">
                <g id="shape4">
                    <path d="M-1.45,-0.05L-1.5,-0.4L-1.4,-1.15C-0.367,-1.217 0.517,-0.933 1.25,-0.3C1.583,0.233 1.567,0.7 1.2,1.1C0.433,1.233 -0.35,1.117 -1.15,0.75L-1.3,0.7L-1.45,0.4L-1.5,0.2L-1.45,-0.05" style="fill:#704628;"/>
                    <path d="M-1.45,-0.05L-1.5,-0.4L-1.4,-1.15C-0.367,-1.217 0.517,-0.933 1.25,-0.3C1.583,0.233 1.567,0.7 1.2,1.1C0.433,1.233 -0.35,1.117 -1.15,0.75" style="fill:none;fill-rule:nonzero;stroke:#000;stroke-opacity:0.3;stroke-width:0.07px;"/>
                </g>
            </g>
            <g id="sprite4" transform="matrix(-2.6873,0,0,2.6873,206.7,263.1)">
                <g id="shape5">
                    <path d="M1.4,-1.45L1.45,0.1C1.25,0.6 0.867,1.133 0.3,1.7L-1.1,1.95C-1.567,0.85 -1.617,-0.317 -1.25,-1.55L1.4,-1.45" style="fill:#b8863e;"/>
                    <path d="M1.4,-1.45L1.45,0.1C1.25,0.6 0.867,1.133 0.3,1.7L-1.1,1.95C-1.567,0.85 -1.617,-0.317 -1.25,-1.55L1.4,-1.45Z" style="fill:none;fill-rule:nonzero;stroke:#000;stroke-opacity:0.3;stroke-width:0.07px;"/>
                </g>
            </g>
            <g id="sprite5" transform="matrix(-2.6873,0,0,2.6873,209.8,254.6)">
                <g id="shape6">
                    <path d="M-0.15,2.45C-1.55,1.417 -2.35,0.283 -2.55,-0.95C-1.283,-2.617 0.033,-3 1.4,-2.1C2.033,-1.133 2.433,0.133 2.6,1.7C2.033,2.5 1.117,2.75 -0.15,2.45" style="fill:#b8863e;"/>
                    <path d="M-0.15,2.45C-1.55,1.417 -2.35,0.283 -2.55,-0.95C-1.283,-2.617 0.033,-3 1.4,-2.1C2.033,-1.133 2.433,0.133 2.6,1.7" style="fill:none;fill-rule:nonzero;stroke:#000;stroke-opacity:0.3;stroke-width:0.07px;"/>
                </g>
            </g>
            <g id="sprite6" transform="matrix(-2.6873,0,0,2.6873,241.1,260)">
                <g id="shape7">
                    <path d="M1,0.75C1.133,0.983 1.083,1.2 0.85,1.4L-0.45,1.05C-0.883,0.85 -1.1,0.567 -1.1,0.2L-0.9,-0.85L-0.45,-1.35L0.5,0.2L1,0.75" style="fill:#5d3516;"/>
                    <path d="M1,0.75C1.133,0.983 1.083,1.2 0.85,1.4L-0.45,1.05C-0.883,0.85 -1.1,0.567 -1.1,0.2L-0.9,-0.85L-0.45,-1.35L0.5,0.2L1,0.75Z" style="fill:none;fill-rule:nonzero;stroke:#000;stroke-opacity:0.3;stroke-width:0.07px;"/>
                </g>
            </g>
            <g id="sprite7" transform="matrix(-2.6873,0,0,2.6873,234,263.2)">
                <g id="shape8">
                    <path d="M1.35,-2.1C2.283,-0.733 2.467,0.517 1.9,1.65C0.1,2.283 -1.2,2.283 -2,1.65L-2.2,0.15C-2.167,-0.217 -1.767,-0.683 -1,-1.25C-0.4,-1.717 0.383,-2 1.35,-2.1" style="fill:#704628;"/>
                    <path d="M1.9,1.65C0.1,2.283 -1.2,2.283 -2,1.65L-2.2,0.15C-2.167,-0.217 -1.767,-0.683 -1,-1.25C-0.4,-1.717 0.383,-2 1.35,-2.1" style="fill:none;fill-rule:nonzero;stroke:#000;stroke-opacity:0.3;stroke-width:0.07px;"/>
                </g>
            </g>
            <g id="sprite8" transform="matrix(-2.6873,0,0,2.6873,227.15,260.65)">
                <g id="shape9">
                    <path d="M-2.4,1.95C-2.9,1.15 -2.867,0.25 -2.3,-0.75C-1.833,-1.283 -1.4,-1.917 -1,-2.65C0.1,-2.917 0.9,-2.7 1.4,-2C2.3,-1 2.75,0.183 2.75,1.55C2.65,2.117 2.417,2.517 2.05,2.75C0.017,2.85 -1.467,2.583 -2.4,1.95" style="fill:#704628;"/>
                    <path d="M-2.3,-0.75C-1.833,-1.283 -1.4,-1.917 -1,-2.65C0.1,-2.917 0.9,-2.7 1.4,-2C2.3,-1 2.75,0.183 2.75,1.55C2.65,2.117 2.417,2.517 2.05,2.75C0.017,2.85 -1.467,2.583 -2.4,1.95" style="fill:none;fill-rule:nonzero;stroke:#000;stroke-opacity:0.3;stroke-width:0.07px;"/>
                </g>
            </g>
            <g id="sprite9" transform="matrix(-2.6873,0,0,2.6873,234.1,269.8)">
                <g id="shape10">
                    <path d="M0.8,-1.75L1.5,-1.15C1.967,-0.45 2.067,0.5 1.8,1.7L1.2,2L0.35,1.7L-0.3,1.4L-1.3,0.5L-2,-0.8C-1.8,-1.333 -1.4,-1.733 -0.8,-2L0.8,-1.75" style="fill:#704628;"/>
                    <path d="M0.8,-1.75L1.5,-1.15C1.967,-0.45 2.067,0.5 1.8,1.7M-1.3,0.5L-2,-0.8" style="fill:none;fill-rule:nonzero;stroke:#000;stroke-opacity:0.3;stroke-width:0.07px;"/>
                </g>
            </g>
            <g id="sprite10" transform="matrix(-2.6873,0,0,2.6873,218.25,256.65)">
                <g id="shape11">
                    <path d="M-5.1,0.2C-4.967,-1.267 -4.383,-2.433 -3.35,-3.3C-2.317,-4.167 -1.117,-4.6 0.25,-4.6C1.65,-4.6 2.817,-4.233 3.75,-3.5C4.717,-2.733 5.167,-1.883 5.1,-0.95C5.067,-0.05 4.533,1 3.5,2.2C2.467,3.433 1.217,4.2 -0.25,4.5L-1.7,4.6C-2.533,4.533 -3.25,4.233 -3.85,3.7C-4.783,2.867 -5.2,1.717 -5.1,0.25L-5.1,0.2" style="fill:#704628;"/>
                    <path d="M-5.1,0.2C-4.967,-1.267 -4.383,-2.433 -3.35,-3.3C-2.317,-4.167 -1.117,-4.6 0.25,-4.6C1.65,-4.6 2.817,-4.233 3.75,-3.5C4.717,-2.733 5.167,-1.883 5.1,-0.95C5.067,-0.05 4.533,1 3.5,2.2C2.467,3.433 1.217,4.2 -0.25,4.5L-1.7,4.6" style="fill:none;fill-rule:nonzero;stroke:#000;stroke-opacity:0.3;stroke-width:0.07px;"/>
                </g>
            </g>
            <g id="sprite11" transform="matrix(-2.6873,0,0,2.6873,214.5,255.3)">
                <g id="shape12">
                    <path d="M-1.5,3.7C-2.3,3.4 -2.933,3.033 -3.4,2.6C-5.133,0.7 -5.75,-0.7 -5.25,-1.6C-2.817,-4.467 -0.133,-4.867 2.8,-2.8C4.967,-2.8 5.817,-2.05 5.35,-0.55C4.883,0.983 3.333,2.533 0.7,4.1C0.133,4.167 -0.6,4.033 -1.5,3.7" style="fill:#f5e7ba;"/>
                    <path d="M-1.5,3.7C-2.3,3.4 -2.933,3.033 -3.4,2.6C-5.133,0.7 -5.75,-0.7 -5.25,-1.6C-2.817,-4.467 -0.133,-4.867 2.8,-2.8C4.967,-2.8 5.817,-2.05 5.35,-0.55C4.883,0.983 3.333,2.533 0.7,4.1C0.133,4.167 -0.6,4.033 -1.5,3.7Z" style="fill:none;fill-rule:nonzero;stroke:#000;stroke-opacity:0.3;stroke-width:0.07px;"/>
                </g>
            </g>
            <g id="sprite12" transform="matrix(-2.6873,0,0,2.6873,208.2,267.65)">
                <g id="shape13">
                    <path d="M1,0.4L0.85,-0.2L0.1,-1.1L-0.3,-1.35C-0.667,-1.183 -0.917,-0.85 -1.05,-0.35L-0.7,-1.25L-0.2,-1.65L0.35,-2L0.3,-1.75L0.5,-1.55L1.05,-0.45L1,0.4" style="fill:#b8863e;"/>
                    <path d="M1,0.4L0.95,0.45C0.717,1.25 0.417,1.783 0.05,2.05C-0.55,1.45 -0.917,0.7 -1.05,-0.2L-1.05,-0.35C-0.917,-0.85 -0.667,-1.183 -0.3,-1.35L0.1,-1.1L0.85,-0.2L1,0.4" style="fill:#1e1613;"/>
                    <path d="M-1.05,-0.35L-1.05,-0.2C-0.917,0.7 -0.55,1.45 0.05,2.05C0.417,1.783 0.717,1.25 0.95,0.45L1,0.4L0.85,-0.2L0.1,-1.1L-0.3,-1.35M-1.05,-0.35L-0.7,-1.25L-0.2,-1.65L0.35,-2M1.05,-0.45L1,0.4" style="fill:none;fill-rule:nonzero;stroke:#000;stroke-opacity:0.3;stroke-width:0.07px;"/>
                </g>
            </g>
            <g id="sprite13" transform="matrix(-2.6873,0,0,2.6873,224.7,260.4)">
                <g id="shape14">
                    <path d="M1.35,-0.9C1.65,-0.2 1.833,0.533 1.9,1.3C0.967,2.4 0.067,2.883 -0.8,2.75C-1.9,0.65 -2.133,-1.167 -1.5,-2.7C-0.567,-2.867 0.383,-2.267 1.35,-0.9" style="fill:#b8863e;"/>
                    <path d="M1.35,-0.9C1.65,-0.2 1.833,0.533 1.9,1.3M-0.8,2.75C-1.9,0.65 -2.133,-1.167 -1.5,-2.7" style="fill:none;fill-rule:nonzero;stroke:#000;stroke-opacity:0.3;stroke-width:0.07px;"/>
                </g>
            </g>
            <g id="sprite14" transform="matrix(-2.6873,0,0,2.6873,215.05,269.65)">
                <g id="shape15">
                    <path d="M-0.2,0.95C-0.467,0.35 -0.5,-0.3 -0.3,-1C0.067,-1.267 0.417,-1.333 0.75,-1.2C1.35,-0.333 1.567,0.65 1.4,1.75C0.733,1.75 0.2,1.5 -0.2,1L-0.2,0.95" style="fill:#1e1613;"/>
                    <path d="M0.75,-1.2C0.417,-1.333 0.067,-1.267 -0.3,-1C-0.5,-0.3 -0.467,0.35 -0.2,0.95L-0.85,0.45L-1.4,-0.1L-1.15,-1.5L-0.05,-1.7L0.75,-1.2" style="fill:#b8863e;"/>
                    <path d="M-0.2,0.95L-0.2,1C0.2,1.5 0.733,1.75 1.4,1.75C1.567,0.65 1.35,-0.333 0.75,-1.2L-0.05,-1.7M-1.4,-0.1L-0.85,0.45L-0.2,0.95L-1.4,-0.1Z" style="fill:none;fill-rule:nonzero;stroke:#000;stroke-opacity:0.3;stroke-width:0.07px;"/>
                </g>
            </g>
            <g id="sprite15" transform="matrix(-2.6873,0,0,2.6873,222.15,265.65)">
                <g id="shape16">
                    <path d="M0.85,-1.45C1.183,-1.35 1.617,-1.067 2.15,-0.6L3.05,0.2L1.5,1.45C0.6,1.483 -0.483,1.283 -1.75,0.85C-1.85,-0.717 -0.983,-1.483 0.85,-1.45" style="fill:#b8863e;"/>
                    <path d="M0.85,-1.45C1.183,-1.35 1.617,-1.067 2.15,-0.6L3.05,0.2M1.5,1.45C0.6,1.483 -0.483,1.283 -1.75,0.85" style="fill:none;fill-rule:nonzero;stroke:#000;stroke-opacity:0.3;stroke-width:0.07px;"/>
                    <path d="M-1.35,0.8L-2.5,0.35C-2.933,-0.25 -3.15,-0.767 -3.15,-1.2L-2,-0.65L-1.75,-0.5L-1.4,0.35L-1.35,0.8" style="fill:#b8863e;"/>
                    <path d="M-1.35,0.8L-2.5,0.35C-2.933,-0.25 -3.15,-0.767 -3.15,-1.2L-2,-0.65L-1.75,-0.5" style="fill:none;fill-rule:nonzero;stroke:#000;stroke-opacity:0.3;stroke-width:0.07px;"/>
                    <path d="M-0.85,1.15L-1.75,1.25C-2.15,1.083 -2.383,0.833 -2.45,0.5L-1.35,0.55L-0.9,0.75L-0.95,0.75C-0.65,0.883 -0.617,1.017 -0.85,1.15" style="fill:#b8863e;"/>
                    <path d="M-1.35,0.55L-2.45,0.5C-2.383,0.833 -2.15,1.083 -1.75,1.25L-0.85,1.15" style="fill:none;fill-rule:nonzero;stroke:#000;stroke-opacity:0.3;stroke-width:0.07px;"/>
                </g>
            </g>
            <g id="sprite16" transform="matrix(-2.6873,0,0,2.6873,222.365,220.351)">
                <g id="shape17">
                    <path d="M-5.95,2.3C-4.017,4.967 -4.25,6.567 -6.65,7.1C-8.35,6.6 -9.667,6 -10.6,5.3C-12.767,3.667 -13.733,2.017 -13.5,0.35C-12.767,0.583 -11.883,0.967 -10.85,1.5L-5.95,2.3" style="fill:#704628;"/>
                    <path d="M-6.65,7.1C-8.35,6.6 -9.667,6 -10.6,5.3C-12.767,3.667 -13.733,2.017 -13.5,0.35C-12.767,0.583 -11.883,0.967 -10.85,1.5L-5.95,2.3" style="fill:none;fill-rule:nonzero;stroke:#000;stroke-opacity:0.4;stroke-width:0.07px;"/>
                    <path d="M-10,5.5C-11,4.133 -11.55,2.417 -11.65,0.35L-11.7,-0.5L-11.7,-0.65C-10.633,0.45 -9.367,1.217 -7.9,1.65C-3.9,4.75 3.25,5.867 13.55,5C12.983,6.3 12.15,7.233 11.05,7.8C9.783,8.567 8.433,9.15 7,9.55L1.55,10.15L0.5,10.15C-2.7,9.95 -5.467,9.083 -7.8,7.55C-8.667,6.983 -9.4,6.3 -10,5.5" style="fill:#704628;"/>
                    <path d="M-11.7,-0.65C-11.7,-3.017 -11.15,-5.167 -10.05,-7.1C-9.483,-8.133 -8.767,-9.1 -7.9,-10C-5.367,-12.633 -2.233,-13.95 1.5,-13.95C5.2,-13.95 8.3,-12.617 10.8,-9.95C13.3,-7.283 14.517,-3.933 14.45,0.1C14.417,2.067 14.117,3.7 13.55,5C3.25,5.867 -3.9,4.75 -7.9,1.65C-9.367,1.217 -10.633,0.45 -11.7,-0.65" style="fill:#b8863e;"/>
                    <path d="M-10.05,-7.1C-9.483,-8.133 -8.767,-9.1 -7.9,-10C-5.367,-12.633 -2.233,-13.95 1.5,-13.95C5.2,-13.95 8.3,-12.617 10.8,-9.95C13.3,-7.283 14.517,-3.933 14.45,0.1C14.417,2.067 14.117,3.7 13.55,5C12.983,6.3 12.15,7.233 11.05,7.8C9.783,8.567 8.433,9.15 7,9.55L1.55,10.15L0.5,10.15C-2.7,9.95 -5.467,9.083 -7.8,7.55C-8.667,6.983 -9.4,6.3 -10,5.5" style="fill:none;fill-rule:nonzero;stroke:#000;stroke-opacity:0.3;stroke-width:0.07px;"/>
                    <path d="M-14.8,-7.65L-14.5,-8L-14.35,-8.1L-11.1,-7.7C-9.967,-8.133 -9.017,-8.783 -8.25,-9.65C-3.517,-7.017 -2.35,-3.45 -4.75,1.05L-10.3,0.65C-13.533,-2.083 -15.133,-4.567 -15.1,-6.8L-14.8,-7.65L-15.1,-6.8L-14.8,-7.65" style="fill:#b8863e;"/>
                    <path d="M-14.5,-8L-14.8,-7.65L-14.65,-7.9L-14.5,-8M-15.1,-6.8C-15.133,-4.567 -13.533,-2.083 -10.3,0.65L-4.75,1.05L-6.1,3.2C-8.733,3.233 -10.55,2.7 -11.55,1.6C-12.45,0.9 -13.35,-0.25 -14.25,-1.85C-15.017,-3.517 -15.317,-5.067 -15.15,-6.5L-15.1,-6.8" style="fill:#704628;"/>
                    <path d="M1.05,10.65C-0.317,9.783 -1.9,9.317 -3.7,9.25C-4.767,8.117 -4.233,6.9 -2.1,5.6C-0.967,5.067 0.25,4.717 1.55,4.55C5.683,4.483 7.567,5.967 7.2,9C7.033,10.4 6.15,11.767 4.55,13.1C3.217,12.567 2.05,11.75 1.05,10.65" style="fill:#b9825b;"/>
                    <path d="M1.05,10.65C-0.317,9.783 -1.9,9.317 -3.7,9.25C-4.767,8.117 -4.233,6.9 -2.1,5.6C-0.967,5.067 0.25,4.717 1.55,4.55C5.683,4.483 7.567,5.967 7.2,9" style="fill:none;fill-rule:nonzero;stroke:#000;stroke-opacity:0.4;stroke-width:0.07px;"/>
                    <path d="M11.15,-9.55C13.383,-6.95 14.467,-3.733 14.4,0.1C14.333,2.9 13.75,5 12.65,6.4C12.317,4.867 12.133,3.4 12.1,2L12.5,-3.5C12.633,-5.9 12.183,-7.917 11.15,-9.55" style="fill:#f0d5a8;"/>
                    <path d="M11.15,-9.55C13.383,-6.95 14.467,-3.733 14.4,0.1C14.333,2.9 13.75,5 12.65,6.4C12.317,4.867 12.133,3.4 12.1,2L12.5,-3.5C12.633,-5.9 12.183,-7.917 11.15,-9.55Z" style="fill:none;fill-rule:nonzero;stroke:#000;stroke-opacity:0.3;stroke-width:0.05px;"/>
                    <path d="M2.95,9.35L3,9.05C3.5,7.25 5.367,5.7 8.6,4.4C10,3.067 11.25,2.883 12.35,3.85L12.7,4.8L13.95,6C14.283,6.667 14.4,7.2 14.3,7.6C14.2,8.2 13.9,8.817 13.4,9.45C12.433,10.65 10.967,11.317 9,11.45L3.6,11C3.133,10.4 2.917,9.85 2.95,9.35" style="fill:#f0d5a8;"/>
                    <path d="M2.95,9.35C2.917,9.85 3.133,10.4 3.6,11L9,11.45C10.967,11.317 12.433,10.65 13.4,9.45C12.033,11.55 9.433,12.45 5.6,12.15L3.3,11.85L2.9,10.5L2.95,9.35" style="fill:#c6985a;"/>
                    <path d="M13.4,9.45C13.9,8.817 14.2,8.2 14.3,7.6C14.4,7.2 14.283,6.667 13.95,6L12.7,4.8L12.35,3.85C11.25,2.883 10,3.067 8.6,4.4M5.6,12.15C9.433,12.45 12.033,11.55 13.4,9.45" style="fill:none;fill-rule:nonzero;stroke:#000;stroke-opacity:0.3;stroke-width:0.07px;"/>
                    <path d="M7,11.45C5.333,12.15 3.467,12.133 1.4,11.4L1.1,11.3L-1.45,10.05C-2.983,9.35 -4.25,8.2 -5.25,6.6L-5.35,6.35C-3.117,8.05 -2.733,7.517 -4.2,4.75C0.8,9.483 4.533,11.717 7,11.45" style="fill:#c6985a;"/>
                    <path d="M-5.35,6.35C-5.983,4.25 -6.1,2.35 -5.7,0.65C-4.633,-1.217 -3.183,-2.35 -1.35,-2.75C0.483,-3.117 1.85,-3.133 2.75,-2.8C4.15,-2.3 5.55,-1.317 6.95,0.15C7.583,1.25 8.267,2.883 9,5.05C8.8,8.383 8.133,10.517 7,11.45C4.533,11.717 0.8,9.483 -4.2,4.75C-2.733,7.517 -3.117,8.05 -5.35,6.35" style="fill:#f0d5a8;"/>
                    <path d="M12.25,9.3L12.05,9.85L12.2,10.2M10.25,10.45L11.45,10.45L12.05,9.85" style="fill:none;fill-rule:nonzero;stroke:#000;stroke-opacity:0.3;stroke-width:0.07px;"/>
                    <path d="M7.85,6.7L7.85,6.55L7.9,6.6L7.85,6.7M7.1,4.1C6.133,3.5 4.333,3.067 1.7,2.8C0.4,2.933 -0.617,3.25 -1.35,3.75C-1.65,4.35 -1.733,4.95 -1.6,5.55L-2,3.15C0.1,1.55 2.233,1 4.4,1.5C5.6,2.167 6.5,3.033 7.1,4.1" style="fill:#c4b890;"/>
                    <path d="M7.85,6.55L7.85,6.7C7.95,7.033 7.7,7.333 7.1,7.6C6.633,8.067 6.05,8.45 5.35,8.75L1.85,8.95C0.383,8.45 -0.667,7.567 -1.3,6.3L-1.6,5.55C-1.733,4.95 -1.65,4.35 -1.35,3.75C-0.617,3.25 0.4,2.933 1.7,2.8C4.333,3.067 6.133,3.5 7.1,4.1C7.5,4.833 7.75,5.65 7.85,6.55" style="fill:#fcffd4;"/>
                    <path d="M7.9,6.6L7.85,6.55C7.75,5.65 7.5,4.833 7.1,4.1C6.5,3.033 5.6,2.167 4.4,1.5C2.233,1 0.1,1.55 -2,3.15" style="fill:none;fill-rule:nonzero;stroke:#000;stroke-opacity:0.4;stroke-width:0.07px;"/>
                    <path d="M-3.25,9.3C-2.35,7.2 -0.95,7.5 0.95,10.2C2.85,12.867 3.2,13.683 2,12.65C1.233,12.717 0.917,13.15 1.05,13.95C-0.183,12.917 -1.7,12.333 -3.5,12.2C-7,11.333 -9.383,10.05 -10.65,8.35C-9.083,8.017 -6.617,8.333 -3.25,9.3" style="fill:#f5e7ba;"/>
                    <path d="M1.05,13.95C-0.183,12.917 -1.7,12.333 -3.5,12.2C-7,11.333 -9.383,10.05 -10.65,8.35C-9.083,8.017 -6.617,8.333 -3.25,9.3" style="fill:none;fill-rule:nonzero;stroke:#000;stroke-opacity:0.3;stroke-width:0.07px;"/>
                    <path d="M-7.3,8.55C-9.2,6.717 -10,4.983 -9.7,3.35C-8.933,3.283 -8.05,3.433 -7.05,3.8C-5.983,3.967 -5,4.283 -4.1,4.75L-1.75,8.05C-1.417,8.95 -1.417,9.533 -1.75,9.8C-3.55,9.733 -5.4,9.317 -7.3,8.55" style="fill:#f5e7ba;"/>
                    <path d="M-7.3,8.55C-9.2,6.717 -10,4.983 -9.7,3.35C-8.933,3.283 -8.05,3.433 -7.05,3.8C-5.983,3.967 -5,4.283 -4.1,4.75" style="fill:none;fill-rule:nonzero;stroke:#000;stroke-opacity:0.3;stroke-width:0.07px;"/>
                    <path d="M-2.55,8.1C-2.15,8.867 -2.033,9.617 -2.2,10.35L-3.8,10.3C-4.667,9.6 -5.183,8.617 -5.35,7.35C-4.583,7.217 -3.667,7.45 -2.6,8.05L-2.55,8.1" style="fill:#f5e7ba;"/>
                    <path d="M-3.8,10.3L-3.65,10.4M-2.55,8.1L-2.6,8.05C-3.667,7.45 -4.583,7.217 -5.35,7.35C-5.183,8.617 -4.667,9.6 -3.8,10.3" style="fill:none;fill-rule:nonzero;stroke:#000;stroke-opacity:0.3;stroke-width:0.07px;"/>
                    <path d="M14,-1.7C14.3,-1.567 14.35,-2.7 14.15,-5.1C15.017,-2.367 15.367,-0.133 15.2,1.6C15,3.333 14.467,4.883 13.6,6.25L12.85,5.95L13.45,3.35C13.917,2.05 14.1,0.367 14,-1.7" style="fill:#f0d5a8;"/>
                    <path d="M14,-1.7C14.3,-1.567 14.35,-2.7 14.15,-5.1C15.017,-2.367 15.367,-0.133 15.2,1.6C15,3.333 14.467,4.883 13.6,6.25L14,6.4L13.4,6.6L13.6,6.25L12.85,5.95" style="fill:none;fill-rule:nonzero;stroke:#000;stroke-opacity:0.3;stroke-width:0.07px;"/>
                    <path d="M12.25,-2.1C12.017,0.267 12.117,2.533 12.55,4.7C12.883,5.167 13.233,5.217 13.6,4.85C13.933,4.35 14.217,3.583 14.45,2.55C14.683,1.083 14.733,-0.383 14.6,-1.85L14.05,-5.1C13.183,-5.033 12.583,-4.033 12.25,-2.1" style="fill:#fcffd4;"/>
                    <path d="M12.25,-2.1C12.017,0.267 12.117,2.533 12.55,4.7C12.883,5.167 13.233,5.217 13.6,4.85C13.933,4.35 14.217,3.583 14.45,2.55C14.683,1.083 14.733,-0.383 14.6,-1.85L14.05,-5.1C13.183,-5.033 12.583,-4.033 12.25,-2.1Z" style="fill:none;fill-rule:nonzero;stroke:#000;stroke-opacity:0.4;stroke-width:0.07px;"/>
                    <path d="M12.1,-1.5C11.867,-0.933 11.75,-0.233 11.75,0.6C11.717,1.433 11.783,2.15 11.95,2.75C12.117,3.317 12.333,3.6 12.6,3.6C12.867,3.6 13.1,3.317 13.3,2.75L13.65,0.6L13.45,-1.5C13.283,-2.1 13.067,-2.4 12.8,-2.4C12.533,-2.4 12.3,-2.1 12.1,-1.5M11.95,-2C12.217,-2.7 12.533,-3.05 12.9,-3.05C13.233,-3.05 13.517,-2.7 13.75,-2C13.95,-1.267 14.033,-0.4 14,0.6C13.967,1.633 13.817,2.5 13.55,3.2C13.25,3.933 12.933,4.3 12.6,4.3C12.233,4.3 11.95,3.933 11.75,3.2C11.517,2.5 11.417,1.633 11.45,0.6C11.483,-0.4 11.65,-1.267 11.95,-2" style="fill:#09a07d;"/>
                    <path d="M12.6,-0.05L12.75,-0.35L12.9,-0.05L12.95,0.7L12.85,1.45L12.7,1.75L12.55,1.45L12.5,0.7L12.6,-0.05" style="fill:#0070fa;"/>
                    <path d="M12.1,-1.5C12.3,-2.1 12.533,-2.4 12.8,-2.4C13.067,-2.4 13.283,-2.1 13.45,-1.5L13.65,0.6L13.3,2.75C13.1,3.317 12.867,3.6 12.6,3.6C12.333,3.6 12.117,3.317 11.95,2.75C11.783,2.15 11.717,1.433 11.75,0.6C11.75,-0.233 11.867,-0.933 12.1,-1.5M12.6,-0.05L12.5,0.7L12.55,1.45L12.7,1.75L12.85,1.45L12.95,0.7L12.9,-0.05L12.75,-0.35L12.6,-0.05" style="fill:#02ffc8;"/>
                    <path d="M12.6,-0.05L12.5,0.7L12.55,1.45L12.7,1.75L12.85,1.45L12.95,0.7L12.9,-0.05L12.75,-0.35L12.6,-0.05M11.95,-2C11.65,-1.267 11.483,-0.4 11.45,0.6C11.417,1.633 11.517,2.5 11.75,3.2C11.95,3.933 12.233,4.3 12.6,4.3C12.933,4.3 13.25,3.933 13.55,3.2C13.817,2.5 13.967,1.633 14,0.6C14.033,-0.4 13.95,-1.267 13.75,-2C13.517,-2.7 13.233,-3.05 12.9,-3.05C12.533,-3.05 12.217,-2.7 11.95,-2" style="fill:none;fill-rule:nonzero;stroke:#000;stroke-opacity:0.4;stroke-width:0.07px;"/>
                    <path d="M12.2,1.75C12.267,1.483 12.367,1.45 12.5,1.65C12.633,1.883 12.767,1.883 12.9,1.65C13.067,1.417 13.2,1.3 13.3,1.3L13.35,2L13.1,2.95L12.65,3.2L12.25,2.7L12.2,1.75" style="fill:#b7faeb;"/>
                    <path d="M12.45,4.7C12.95,4.633 13.283,4.5 13.45,4.3L14.1,3.2L14.55,1.65L14.65,0.75L14.65,1.9C14.417,3.067 14.083,4.017 13.65,4.75L12.45,4.7" style="fill:#4a3116;"/>
                    <path d="M6.3,3.2C6.333,4.233 6.067,5.1 5.5,5.8C4.933,6.533 4.233,6.9 3.4,6.9C2.6,6.9 1.883,6.533 1.25,5.8C0.65,5.1 0.333,4.233 0.3,3.2C0.267,2.2 0.533,1.35 1.1,0.65C1.667,-0.083 2.35,-0.45 3.15,-0.45C3.983,-0.45 4.7,-0.083 5.3,0.65C5.933,1.35 6.267,2.2 6.3,3.2M5.1,5.35C5.567,4.783 5.783,4.067 5.75,3.2C5.717,2.367 5.45,1.65 4.95,1.05C4.45,0.483 3.867,0.2 3.2,0.2C2.5,0.2 1.917,0.483 1.45,1.05L1.35,1.25C1.017,1.817 0.867,2.467 0.9,3.2C0.933,3.9 1.083,4.517 1.35,5.05L1.6,5.35C2.1,5.95 2.7,6.25 3.4,6.25C4.067,6.25 4.633,5.95 5.1,5.35" style="fill:#09a07d;"/>
                    <path d="M5.1,5.35C4.633,5.95 4.067,6.25 3.4,6.25C2.7,6.25 2.1,5.95 1.6,5.35L1.35,5.05C1.083,4.517 0.933,3.9 0.9,3.2C0.867,2.467 1.017,1.817 1.35,1.25L1.45,1.05C1.917,0.483 2.5,0.2 3.2,0.2C3.867,0.2 4.45,0.483 4.95,1.05C5.45,1.65 5.717,2.367 5.75,3.2C5.783,4.067 5.567,4.783 5.1,5.35M3.25,2.25L2.9,2.55C2.8,2.75 2.75,3 2.75,3.3L2.95,4.05C3.05,4.25 3.167,4.35 3.3,4.35L3.7,4.05L3.8,3.3L3.65,2.55L3.25,2.25" style="fill:#02ffc8;"/>
                    <path d="M3.25,2.25L3.65,2.55L3.8,3.3L3.7,4.05L3.3,4.35C3.167,4.35 3.05,4.25 2.95,4.05L2.75,3.3C2.75,3 2.8,2.75 2.9,2.55L3.25,2.25" style="fill:#0070fa;"/>
                    <path d="M6.3,3.2C6.333,4.233 6.067,5.1 5.5,5.8C4.933,6.533 4.233,6.9 3.4,6.9C2.6,6.9 1.883,6.533 1.25,5.8C0.65,5.1 0.333,4.233 0.3,3.2C0.267,2.2 0.533,1.35 1.1,0.65C1.667,-0.083 2.35,-0.45 3.15,-0.45C3.983,-0.45 4.7,-0.083 5.3,0.65C5.933,1.35 6.267,2.2 6.3,3.2Z" style="fill:none;fill-rule:nonzero;stroke:#000;stroke-opacity:0.4;stroke-width:0.07px;"/>
                    <path d="M4.7,10.3L5.05,10.85L4.5,11.25L3.4,11.2C3,11.133 2.667,11 2.4,10.8L2.1,10.25C2.133,10.05 2.3,9.917 2.6,9.85L3.7,9.85C4.133,9.95 4.467,10.1 4.7,10.3" style="fill:#f1a49a;"/>
                    <path d="M3.7,-0.35C5.233,-0.117 6.167,0.9 6.5,2.7L3.65,1.1L-1.25,1.65L1.6,-0.35L3.7,-0.35" style="fill:#f0d5a8;"/>
                    <path d="M7.85,6.1C7.417,4.167 6.3,2.75 4.5,1.85C2.533,1.25 0.417,1.783 -1.85,3.45C-1.85,4.517 -1.667,5.467 -1.3,6.3C-2.033,5.3 -2.4,4.383 -2.4,3.55C-2.833,3.25 -3.067,2.95 -3.1,2.65L-2,2.3C0.167,0.867 2.267,0.383 4.3,0.85C6.4,2.017 7.583,3.767 7.85,6.1" style="fill:#332012;"/>
                    <path d="M7.85,6.1L7.85,6.15L7.95,6.8M6.9,8.1L5.4,8.95L1.9,9.15L0.8,8.65M7.85,6.1C7.417,4.167 6.3,2.75 4.5,1.85C2.533,1.25 0.417,1.783 -1.85,3.45C-1.85,4.517 -1.667,5.467 -1.3,6.3L-1.25,6.4L-1.25,6.45M-1.3,6.3C-2.033,5.3 -2.4,4.383 -2.4,3.55C-2.833,3.25 -3.067,2.95 -3.1,2.65L-2,2.3C0.167,0.867 2.267,0.383 4.3,0.85C6.4,2.017 7.583,3.767 7.85,6.1" style="fill:none;fill-rule:nonzero;stroke:#000;stroke-opacity:0.4;stroke-width:0.07px;"/>
                    <path d="M3.25,-0.7C4.017,-0.4 4.617,0.033 5.05,0.6L3,0L1.1,0.15C1.667,-0.283 2.383,-0.567 3.25,-0.7" style="fill:#b9825b;fill-opacity:0.5;"/>
                    <path d="M13.05,-5.3L14.15,-6.55C14.45,-5.983 14.433,-4.8 14.1,-3L13.8,-4.15L12.35,-1.95C12.117,-0.183 12.067,1.55 12.2,3.25L12.15,3.25C11.983,1.317 12.033,-0.733 12.3,-2.9C12.5,-4 12.75,-4.8 13.05,-5.3" style="fill:#332012;"/>
                    <path d="M1.85,4.75L2.2,5.05L1.85,5.35L1,5.5L0.2,5.35L-0.15,5.05L0.2,4.75L1,4.6L1.85,4.75" style="fill:#fffff0;"/>
                    <path d="M4.55,4.7C4.617,4.967 4.55,5.267 4.35,5.6C4.15,5.9 3.833,6.05 3.4,6.05L2.4,5.85C2.2,5.683 2.083,5.383 2.05,4.95C1.983,4.483 2.05,4.25 2.25,4.25C2.45,4.25 2.7,4.367 3,4.6C3.3,4.8 3.617,4.8 3.95,4.6C4.25,4.4 4.45,4.433 4.55,4.7" style="fill:#b7faeb;"/>
                    <path d="M11.2,-9.45C12.167,-7.85 12.6,-5.867 12.5,-3.5L12.1,2C12.133,3.333 12.3,4.733 12.6,6.2L8.55,0.5L11.2,-9.45" style="fill:#b8863e;"/>
                    <path d="M12.1,2L12.5,-3.5C12.6,-5.867 12.167,-7.85 11.2,-9.45" style="fill:none;fill-rule:nonzero;stroke:#000;stroke-opacity:0.3;stroke-width:0.05px;"/>
                    <path d="M12.6,6.2C12.3,4.733 12.133,3.333 12.1,2L12.6,6.2Z" style="fill:none;fill-rule:nonzero;stroke:#000;stroke-opacity:0.3;stroke-width:0.07px;"/>
                    <path d="M14.15,6.4C14.483,7.033 13.967,7.4 12.6,7.5C11.233,6.933 10.067,6.2 9.1,5.3C8.8,4.8 8.65,4.317 8.65,3.85C10.083,1.783 11.25,1.367 12.15,2.6C12.417,3.9 12.7,4.767 13,5.2L14.15,6.4" style="fill:#905c19;"/>
                    <path d="M14.15,5.85C14.617,6.25 14.7,6.883 14.4,7.75C14.2,7.917 13.983,7.917 13.75,7.75L13.25,7.45C12.717,7.817 12.433,7.817 12.4,7.45C12.4,7.083 12.583,6.65 12.95,6.15C13.417,5.75 13.817,5.65 14.15,5.85" style="fill:#2a1a07;"/>
                    <path d="M14.15,5.85C14.617,6.25 14.7,6.883 14.4,7.75C14.2,7.917 13.983,7.917 13.75,7.75L13.25,7.45C12.717,7.817 12.433,7.817 12.4,7.45C12.4,7.083 12.583,6.65 12.95,6.15C13.417,5.75 13.817,5.65 14.15,5.85Z" style="fill:none;fill-rule:nonzero;stroke:#000;stroke-opacity:0.4;stroke-width:0.07px;"/>
                    <path d="M9.15,-8.35C11.05,-6.717 11.45,-4.9 10.35,-2.9C9.083,-2 7.383,-1.883 5.25,-2.55C4.183,-3.517 3.717,-4.35 3.85,-5.05L6,-4.4C6.933,-4.6 7.733,-4.9 8.4,-5.3C8.867,-5.733 9.15,-6.233 9.25,-6.8L9.15,-8.35" style="fill:#08fbc3;"/>
                    <path d="M9.15,-8.35C11.05,-6.717 11.45,-4.9 10.35,-2.9C9.083,-2 7.383,-1.883 5.25,-2.55C4.183,-3.517 3.717,-4.35 3.85,-5.05L6,-4.4C6.933,-4.6 7.733,-4.9 8.4,-5.3C8.867,-5.733 9.15,-6.233 9.25,-6.8L9.15,-8.35Z" style="fill:none;fill-rule:nonzero;stroke:#000;stroke-opacity:0.3;stroke-width:0.07px;"/>
                </g>
            </g>
            <g id="sprite17" transform="matrix(-2.6873,0,0,2.6873,237.05,216.3)">
                <g id="shape18">
                    <path d="M-2.3,1.25L-2.05,0.65L-0.5,-2.55C0,-3.283 0.417,-3.7 0.75,-3.8L1.6,-4.05L1.8,-4.05C2.133,-3.717 2.417,-3 2.65,-1.9C2.75,-0.067 2.45,1.433 1.75,2.6C1.55,2.133 1.183,1.75 0.65,1.45L-2.3,1.25" style="fill:#8d5d2f;"/>
                    <path d="M1.75,2.6L1.65,2.75L0.25,3.8C-2.35,4.5 -3.2,3.65 -2.3,1.25L0.65,1.45C1.183,1.75 1.55,2.133 1.75,2.6" style="fill:#1e1613;"/>
                    <path d="M-2.3,1.25L-2.05,0.65L-0.5,-2.55M2.65,-1.9C2.75,-0.067 2.45,1.433 1.75,2.6L1.65,2.75L0.25,3.8C-2.35,4.5 -3.2,3.65 -2.3,1.25L0.65,1.45C1.183,1.75 1.55,2.133 1.75,2.6" style="fill:none;fill-rule:nonzero;stroke:#000;stroke-opacity:0.3;stroke-width:0.07px;"/>
                </g>
            </g>
            <g id="sprite18" transform="matrix(-2.6873,0,0,2.6873,205.5,165.651)">
                <g id="shape19">
                    <path d="M0.3,9.2L-0.05,7.65C-0.883,4.617 -1.25,2.417 -1.15,1.05C-1.083,0.483 -0.95,0.067 -0.75,-0.2L-0.7,-0.2L1.75,-0.1C2.383,0.467 2.733,1.617 2.8,3.35L2.85,3.75C3.05,5.75 3.117,7.567 3.05,9.2L2.95,11.05C2.217,12.083 1.4,11.733 0.5,10L0.3,9.2" style="fill:url(#_Radial1);"/>
                    <path d="M0.3,9.2L-0.05,7.65C-0.883,4.617 -1.25,2.417 -1.15,1.05C-1.083,0.483 -0.95,0.067 -0.75,-0.2L-0.7,-0.2L1.75,-0.1C2.383,0.467 2.733,1.617 2.8,3.35L2.85,3.75C3.05,5.75 3.117,7.567 3.05,9.2" style="fill:none;fill-rule:nonzero;stroke:#000;stroke-opacity:0.4;stroke-width:0.07px;"/>
                    <path d="M0.95,-3L1.05,-3.4L1.05,-3.6L0.5,-5.85L0.55,-6.5L0.55,-6.6C0.683,-7.367 0.967,-8 1.4,-8.5L1.7,-8.3L2.15,-7.8L3.1,-6.25C4.3,-3.417 4.567,-0.95 3.9,1.15L2.8,3.9C1.867,4.133 0.95,3.75 0.05,2.75L-0.35,2L-0.8,0.2L-0.8,-0.05L-0.7,-0.2L-0.6,-0.3L0.55,-2.05L0.85,-2.65L0.95,-3" style="fill:#fcfa89;"/>
                    <path d="M2.15,-7.8L3.1,-6.25C4.3,-3.417 4.567,-0.95 3.9,1.15L2.8,3.9M-0.8,-0.05L-0.7,-0.2L-0.6,-0.3L0.55,-2.05L0.85,-2.65L0.95,-3" style="fill:none;fill-rule:nonzero;stroke:#000;stroke-opacity:0.4;stroke-width:0.07px;"/>
                    <path d="M-0.65,1.65L-1.15,1.05C-1.783,0.15 -2.283,-0.9 -2.65,-2.1C-2.917,-4.167 -1.967,-4.25 0.2,-2.35L0.55,-2.05L0.75,-1.9L0.8,-1.8L0.95,-1.65L1.55,-0.9L1.55,-0.8L1.65,-0.55L1.75,-0.25L1.75,-0.1C1.85,0.533 1.7,1.183 1.3,1.85L0.4,2.35L0,2.35L-0.15,2.2L-0.35,2.05L-0.35,2L-0.65,1.65" style="fill:url(#_Radial2);"/>
                    <path d="M-0.65,1.65L-1.15,1.05C-1.783,0.15 -2.283,-0.9 -2.65,-2.1C-2.917,-4.167 -1.967,-4.25 0.2,-2.35L0.55,-2.05L0.75,-1.9L0.8,-1.8L0.95,-1.65" style="fill:none;fill-rule:nonzero;stroke:#000;stroke-opacity:0.4;stroke-width:0.07px;"/>
                    <path d="M1.75,-0.25L1.75,-0.1C1.85,0.533 1.7,1.183 1.3,1.85L0.4,2.35" style="fill:none;fill-rule:nonzero;stroke:#000;stroke-opacity:0.2;stroke-width:0.07px;"/>
                    <path d="M2.75,-6.5C3.05,-5.633 3.05,-4.733 2.75,-3.8C2.483,-2.9 1.933,-2.533 1.1,-2.7L1,-2.85C0.367,-4.383 -0.383,-5.733 -1.25,-6.9L-3.9,-10C-4.433,-11 -4.367,-11.567 -3.7,-11.7C-3,-11.667 -2.15,-11.367 -1.15,-10.8C-0.183,-10.333 0.783,-9.5 1.75,-8.3L1.9,-8.1L1.95,-8.05L2.75,-6.5" style="fill:url(#_Radial3);"/>
                    <path d="M1,-2.85C0.367,-4.383 -0.383,-5.733 -1.25,-6.9L-3.9,-10C-4.433,-11 -4.367,-11.567 -3.7,-11.7C-3,-11.667 -2.15,-11.367 -1.15,-10.8C-0.183,-10.333 0.783,-9.5 1.75,-8.3L1.9,-8.1L1.95,-8.05L2.75,-6.5" style="fill:none;fill-rule:nonzero;stroke:#000;stroke-opacity:0.4;stroke-width:0.07px;"/>
                </g>
            </g>
            <g id="sprite19" transform="matrix(-2.6873,0,0,2.6873,245.15,184.2)">
                <g id="shape20">
                    <path d="M4.45,-1.95L4.7,-2C6.033,-2.1 6.983,-1.933 7.55,-1.5C8.717,-0.167 9.417,1.35 9.65,3.05L10.1,5.7L10.1,7.05C9.867,7.95 9.2,8.1 8.1,7.5L7.5,6.55L6.05,3.75L5.9,3.6C4.967,2.733 4.017,2.15 3.05,1.85C3.15,0.517 3.617,-0.75 4.45,-1.95" style="fill:url(#_Radial4);"/>
                    <path d="M4.45,-1.95L4.7,-2C6.033,-2.1 6.983,-1.933 7.55,-1.5C8.717,-0.167 9.417,1.35 9.65,3.05L10.1,5.7M7.5,6.55L6.05,3.75L5.9,3.6C4.967,2.733 4.017,2.15 3.05,1.85" style="fill:none;fill-rule:nonzero;stroke:#000;stroke-opacity:0.4;stroke-width:0.07px;"/>
                    <path d="M-2.75,3L-2.8,2.95C-3.4,1.517 -3.333,0.267 -2.6,-0.8L-2.55,-0.8L0.2,-1L0.8,-1.1L3.35,-1.8L4.75,-2C6.383,-0.733 6.783,1.15 5.95,3.65L5.9,3.6C5.333,3.167 4.75,2.917 4.15,2.85C1.217,3.117 -1.083,3.167 -2.75,3" style="fill:#fcfa89;"/>
                    <path d="M0.8,-1.1L3.35,-1.8L4.75,-2M5.95,3.65L5.9,3.6C5.333,3.167 4.75,2.917 4.15,2.85C1.217,3.117 -1.083,3.167 -2.75,3" style="fill:none;fill-rule:nonzero;stroke:#000;stroke-opacity:0.4;stroke-width:0.07px;"/>
                    <path d="M3.45,-1.4L3.35,-0.35C2.817,0.517 2.1,0.8 1.2,0.5L0.95,0.35L0.4,-0.55L0.2,-1L-0.5,-3.15C-1.067,-5.55 -0.233,-5.733 2,-3.7C2.733,-3.1 3.183,-2.467 3.35,-1.8L3.45,-1.4" style="fill:url(#_Radial5);"/>
                    <path d="M0.4,-0.55L0.2,-1L-0.5,-3.15C-1.067,-5.55 -0.233,-5.733 2,-3.7C2.733,-3.1 3.183,-2.467 3.35,-1.8L3.45,-1.4" style="fill:none;fill-rule:nonzero;stroke:#000;stroke-opacity:0.4;stroke-width:0.07px;"/>
                    <path d="M3.35,-0.35C2.817,0.517 2.1,0.8 1.2,0.5" style="fill:none;fill-rule:nonzero;stroke:#000;stroke-opacity:0.2;stroke-width:0.07px;"/>
                    <path d="M-2.7,2.95L-2.8,2.95L-4.35,2.1C-5.85,1.233 -7.15,0.033 -8.25,-1.5C-9.183,-2.767 -9.783,-4.15 -10.05,-5.65C-10.183,-6.95 -10.067,-7.7 -9.7,-7.9C-9.367,-7.9 -9.05,-7.767 -8.75,-7.5L-5.85,-4.05C-5.017,-2.917 -3.933,-1.85 -2.6,-0.85L-2.55,-0.8L-1.65,-0.1C-0.783,0.667 -0.533,1.383 -0.9,2.05L-1.8,2.95C-2.033,3.083 -2.333,3.083 -2.7,2.95" style="fill:url(#_Radial6);"/>
                    <path d="M-2.7,2.95L-2.8,2.95L-4.35,2.1C-5.85,1.233 -7.15,0.033 -8.25,-1.5C-9.183,-2.767 -9.783,-4.15 -10.05,-5.65C-10.183,-6.95 -10.067,-7.7 -9.7,-7.9C-9.367,-7.9 -9.05,-7.767 -8.75,-7.5L-5.85,-4.05C-5.017,-2.917 -3.933,-1.85 -2.6,-0.85" style="fill:none;fill-rule:nonzero;stroke:#000;stroke-opacity:0.4;stroke-width:0.07px;"/>
                </g>
            </g>
        </g>
    </g>
    <defs>
        <radialGradient id="_Radial1" cx="0" cy="0" r="1" gradientUnits="userSpaceOnUse" gradientTransform="matrix(6.22592,0,0,6.22592,0.95,5.5)"><stop offset="0" style="stop-color:#fcf88a;stop-opacity:1"/><stop offset="0.47" style="stop-color:#fcf88a;stop-opacity:1"/><stop offset="1" style="stop-color:#e99441;stop-opacity:1"/></radialGradient>
        <radialGradient id="_Radial2" cx="0" cy="0" r="1" gradientUnits="userSpaceOnUse" gradientTransform="matrix(4.096,0,0,4.096,-1.4,-1.45)"><stop offset="0" style="stop-color:#fcf88a;stop-opacity:1"/><stop offset="0.47" style="stop-color:#fcf88a;stop-opacity:1"/><stop offset="1" style="stop-color:#e99441;stop-opacity:1"/></radialGradient>
        <radialGradient id="_Radial3" cx="0" cy="0" r="1" gradientUnits="userSpaceOnUse" gradientTransform="matrix(5.65248,0,0,5.65248,-0.65,-7.2)"><stop offset="0" style="stop-color:#fcf88a;stop-opacity:1"/><stop offset="0.47" style="stop-color:#fcf88a;stop-opacity:1"/><stop offset="1" style="stop-color:#e99441;stop-opacity:1"/></radialGradient>
        <radialGradient id="_Radial4" cx="0" cy="0" r="1" gradientUnits="userSpaceOnUse" gradientTransform="matrix(7.04512,0,0,7.04512,6.05,1.4)"><stop offset="0" style="stop-color:#fcf88a;stop-opacity:1"/><stop offset="0.47" style="stop-color:#fcf88a;stop-opacity:1"/><stop offset="1" style="stop-color:#e99441;stop-opacity:1"/></radialGradient>
        <radialGradient id="_Radial5" cx="0" cy="0" r="1" gradientUnits="userSpaceOnUse" gradientTransform="matrix(3.93216,0,0,3.93216,1.1,-3.15)"><stop offset="0" style="stop-color:#fcf88a;stop-opacity:1"/><stop offset="0.47" style="stop-color:#fcf88a;stop-opacity:1"/><stop offset="1" style="stop-color:#e99441;stop-opacity:1"/></radialGradient>
        <radialGradient id="_Radial6" cx="0" cy="0" r="1" gradientUnits="userSpaceOnUse" gradientTransform="matrix(6.9632,0,0,6.9632,-5.45,-2.45)"><stop offset="0" style="stop-color:#fcf88a;stop-opacity:1"/><stop offset="0.47" style="stop-color:#fcf88a;stop-opacity:1"/><stop offset="1" style="stop-color:#e99441;stop-opacity:1"/></radialGradient>
    </defs>
</svg>
