<?xml version="1.0" encoding="UTF-8"?>
<svg version="1.1" viewBox="0 0 73.54 66" xmlns="http://www.w3.org/2000/svg" xmlns:cc="http://creativecommons.org/ns#" xmlns:dc="http://purl.org/dc/elements/1.1/" xmlns:rdf="http://www.w3.org/1999/02/22-rdf-syntax-ns#" xmlns:xlink="http://www.w3.org/1999/xlink">
<metadata>
<rdf:RDF>
<cc:Work rdf:about="">
<dc:format>image/svg+xml</dc:format>
<dc:type rdf:resource="http://purl.org/dc/dcmitype/StillImage"/>
</cc:Work>
</rdf:RDF>
</metadata>
<g transform="translate(-229.56 -153.95)">
<use transform="translate(229.55,153.95)" width="73.550003" height="66.050003" xlink:href="#a"/>
</g>
<defs>
<g id="a" transform="translate(-229.55,-153.95)">
<path d="m290.8 201.5q-16.4 8.3-23 8-4.55-0.2-20.8-11.8-15.65-11.1-17.2-14.2-1.1-2.2 2.85-3.35l3.3-0.6 54.85 21.95" fill="#666" fill-opacity=".35294" fill-rule="evenodd"/>
<path d="m239.3 165.8v-1.85q-0.05-0.75 0.65-1.65l0.9 0.85 1.8 3.3 0.35 0.3 0.35 0.5q-0.6-0.55-1.5-0.85-0.5-0.6-1.65-1.05l-0.7 0.3-0.2 0.15m15.8 27.75 0.25 0.55h-0.05l-0.1 0.1-0.25-0.1h-0.05l0.05-0.1 0.15-0.45m12.35-2.9 0.15 0.05-0.3 0.25 0.15-0.3" fill="#8f5932" fill-rule="evenodd"/>
<path d="m242.4 180.55-0.05-0.15 0.1-0.15-0.05 0.3" fill="#744329" fill-rule="evenodd"/>
<path d="m245.9 193.75-0.05-0.05h0.05v0.05m-7-26.15 0.1-0.35 0.05 0.05-0.15 0.3" fill="#593320" fill-rule="evenodd"/>
<path d="m243.9 159.2-0.25-0.15 0.05-0.05h0.1l0.1 0.2" fill="#78402c" fill-rule="evenodd"/>
<path d="m289.85 179.4 0.05 0.05 0.05 0.1-0.05 0.1-0.1 0.55-0.85 4.3-0.1 0.15-0.25 0.05-0.8-0.1q-0.55-0.1-1.4-1.65l-0.45-0.9v4.45q-0.2 0.65 0 2.95v1l-0.05 0.05-0.05 0.1h-0.05l-0.1-0.05-2-3-2.75-1.85v1.75l0.95 1.95 0.05 0.1-0.1 0.1h-0.1l-2-1.05-0.65-0.2-0.15 0.15 1 2-0.05 0.05-0.95 1q-0.15 0.85-1.1 1.05-0.65 0.1-1.15-1.1l-0.45-0.1v-0.05l-0.3 0.2v1.85l0.95 0.95 1.95 1h0.05l1 1.05 0.05 0.05 0.05 0.45-0.3 0.2-0.95-0.5q-1-0.25-2-1.05-0.5-0.4-0.65-0.3l-0.35 0.3-2.9 1.05-0.3 0.15 0.05 0.25h0.05l0.25 0.35v0.05l1 2 0.2 0.05 0.35-0.2q0.4-0.35 0.25-0.75-0.15-0.25 0.1-0.45 0.15-0.15 0.6-0.2l1.35-0.5 0.85-0.1 0.35 1.2v2l-0.05 0.1-0.05 0.05-2-1-0.9 0.9 0.95 1.85h0.85l0.95-1h0.2l1 1 0.05 0.1-0.05 0.1-1 1-0.1 0.05h-0.5l1.55 0.75q0.85 0.1 1.85-0.95l0.05-0.05 3-1h0.1l0.1 0.1v1.65l-0.05 0.05-0.1 0.05-0.1-0.05v-1.5l-2.85 0.95q-0.95 1-1.8 1h-0.25l-0.05-0.05-2-1-0.05-0.05v-0.05l0.05-0.1h1l0.85-0.9-0.8-0.8-0.9 0.9-0.1 0.05h-1l-0.1-0.1-1-2v-0.15l1-1h0.15l1.85 0.95v-1.85l-0.3-1-0.5 0.1-1.45 0.55-0.5 0.15v0.15q0.2 0.6-0.35 1.05l-0.45 0.25-0.45-0.15v-0.05l-0.95-1.95-0.35-0.45v0.05l-0.05-0.5 0.4-0.3q3-1.1 3.1-1l0.05-0.2v-0.1q0.15-0.2 0.5 0l0.5 0.3q0.95 0.8 1.95 1h0.05l0.8 0.5h0.05l-0.05-0.35-0.5-0.5-0.45-0.4-2.05-1.05-1-1v-2.15l0.05-0.05 0.4-0.2q0.6-0.2 0.8 0.25 0.35 1 0.85 0.95 0.8-0.15 0.9-0.9v-0.1l0.95-0.95-0.95-1.9v-0.15l0.2-0.2h0.05l0.95 0.2 1.65 0.9-0.85-1.75v-2.1l0.1-0.05h0.1l3 2v0.05l1.5 2.25 0.25 0.35 0.05-0.55q-0.25-2.4 0-3v-5.05l0.1-0.05h0.05l0.1 0.05 0.7 1.45h-0.05q0.75 1.35 1.25 1.5l0.75 0.1h0.1l1-4.95 0.05-0.1h0.1" fill-opacity=".50196" fill-rule="evenodd"/>
<path d="m289.7 178.15q0.35 0.55 0.15 1.25h-0.1l-0.05 0.1-1 4.95h-0.1l-0.75-0.1q-0.5-0.15-1.25-1.5h0.05l-0.7-1.45-0.1-0.05h-0.05l-0.1 0.05v3.55h-0.4l-1-6 4 2 1.4-2.8m-6 25.85-0.3-0.2-1.35 1.7q-0.85 0.75-1.85 0.15l-1.1-0.85-0.15 0.1-0.05-0.25-0.1-0.05h0.25q0.85 0 1.8-1l2.85-0.95v1.35m2-14.55-0.05 0.55-0.25-0.35 0.3-0.2m-6.5 6.55 0.5 0.5 0.05 0.35h-0.05l-0.8-0.5h-0.05l0.35-0.35m9.6-13.2v-0.05h-0.05l0.05 0.05" fill="#cb9845" fill-rule="evenodd"/>
<path d="m243.35 167.25-0.35-0.5-0.35-0.3-1.8-3.3-0.9-0.85q0.8-1.1 2.75-2.4l1.2-0.7q1.2 0.8 2.5-0.2l0.1-0.05 1.3 1.15 1.85-0.05q-0.15 1.1 1.6 2.25 0.85 0.55 1.6 0 0.35 0.65 1.4 1.2 1.4 0.75 2.5-0.4l0.15-0.1 0.8 0.5q1.4 0.7 2.45-0.3l0.15 0.1 0.1 0.05q0.3 0.8 1.5 1.55l1.75-0.1 1.2-1.4 0.7 0.15h0.8q0.55 0.1 1.1-0.4l0.5-0.5 1.2 1.05 0.2 0.1 0.05 0.4q0.15 0.9 1.55 1.7l1.9-0.05 5.45 5.1 5 1 1-2 6 7-2 4-4-2 1 6-3-2-3.95 1h-0.05v2l-2 2h-6l-2.7 2.75-0.15-0.05-0.65-0.25v-0.15q-0.25-0.25-0.7-0.35v-0.1q-0.3-0.4-0.8-0.55l-0.05-0.2-0.6-0.3-7.6-6.6q-1.9-1.25-3.65-3-5.2-5.1-9.3-10.85l-0.75-1.05m46.55 12.4 0.2 0.6-0.3-0.05 0.1-0.55m1.2 7v0.35l-0.4-0.05 0.1-0.35 0.3 0.05m-4.7-3.7h-0.45v-0.9l0.45 0.9" fill="#dabc7a" fill-rule="evenodd"/>
<path d="m288.8 182.8-0.05-0.05h0.05v0.05m1.9 4.15v-0.05l-0.1-0.1v-0.3l0.2-0.05v0.15l-0.1 0.35" fill="#d8b376" fill-rule="evenodd"/>
<path d="m252.05 197.55-4.25-2.6-1.9-1.2v-0.05h-0.05l-0.7-0.5q-1.85-2.95-4.5-5.4-1.55-1.45-2.45-3.25l-1.45-2.3q0.45-0.9 0.45-2.15l0.1-2.35q0.25-2.6 0.65-5.15 2.15 0.95 1.4 2.4l0.4 0.3q1.95 1.6 0.55 4.55l-0.05 0.15q0.95 1.25 1.1 2.3t-0.45 1.95l0.1 0.5q1.15 0.5 1.4 1.25 1.95 0.8 1.85 2.05 2.2 0.7 1.7 2.3 0.65 0.35 0.95 0.75 0.45-0.3 1.05-0.35l1.3 0.65q1.05 0.85 0.45 2.05 0.5 0.45 0.65 1h0.1q2.85 1.1 1.6 3.1" fill="#351f13" fill-rule="evenodd"/>
<path d="m243.8 159q2.1-1 3.85-2.35 0.15 0.9 1.6 1.8 0.6 0.4 1.2 0.25 0.1 1 1.6 2 0.95 0.6 1.75-0.15l0.3-0.25q0.7 0.25 1.3-0.35l1.3-1.55 0.6 0.45 1.8-0.1 0.45-0.4 0.55 0.2q0.1 0.7 0.9 1.3-0.55 1.35 1.5 2.65 0.95 0.6 1.75-0.15l0.4-0.35q0.85 0.45 1.6-0.25l0.6-0.55q0.35 0.55 1.25 1l-0.15 0.45-0.5 0.5q-0.55 0.5-1.1 0.4h-0.8l-0.7-0.15-1.2 1.4-1.75 0.1q-1.2-0.75-1.5-1.55l-0.1-0.05-0.15-0.1q-1.05 1-2.45 0.3l-0.8-0.5-0.15 0.1q-1.1 1.15-2.5 0.4-1.05-0.55-1.4-1.2-0.75 0.55-1.6 0-1.75-1.15-1.6-2.25l-1.85 0.05-1.3-1.15-0.1 0.05q-1.3 1-2.5 0.2l-0.1-0.2" fill="#c29536" fill-rule="evenodd"/>
<path d="m239.3 165.8 0.2-0.15 0.7-0.3q1.15 0.45 1.65 1.05 0.9 0.3 1.5 0.85l0.75 1.05q0.45 1.05 0.2 2.55 0.55 0.9-0.65 2.15l0.1 0.7q3.45 0.75 4.75 4.45 0.75 2.15-0.15 3.9 2.35 1.2 2.85 3.5l0.2-0.05q3.6 1.1 1.1 3.55 3.1 0.85 2.6 4.5l-0.15 0.45-0.05 0.1h0.05l0.25 0.1 0.1-0.1h0.05q0.4-0.45 1.05-0.5 0.9 0.3 1.45 0.7l0.45-0.4q0.7-0.55 1.55-0.6 3.55-0.1 4.05 3.35v0.15q1.5 1.05 0.8 2.8l-0.7 1.05-0.2 0.4q2.1 1.6 2.15 4.05 0 0.6-0.35 0.95l-0.15 0.1-4.4-2.3h0.45l0.3-0.35 0.25-0.6-0.35-0.7 0.15-0.35v-0.1q-0.3-1-1.4-0.85h-0.1q2.35-2.25-1-3.5l-0.7 0.3-0.45 0.35-0.85-0.35-0.45 0.1-0.05-0.05q-0.25-0.6-0.95-0.65l-0.5 0.1v0.05l-0.4-0.05-0.4 0.1q-0.25-0.6-1.05-1.05l0.15-0.2 0.2-0.6-0.05-0.15q-0.15-0.75-1-0.85l-0.15 0.05q-0.35-0.75-1.6-1.1l-0.2-0.85 0.5 0.05 0.3-0.35 0.2-0.6v-0.15q-0.2-0.75-1-0.85l-0.5 0.1-0.4 0.75-0.55-0.35 0.5-0.8v-0.15l-0.05-0.2 0.2-0.65-0.05-0.1-0.35-0.6-0.1-0.1v-0.2l-0.05-0.15q-0.15-0.8-1-0.85l-0.2 0.05-0.25 0.05-0.4 0.75-0.25-0.2v-0.15l-0.05-0.15q-0.15-0.75-0.95-0.85l-0.2-1.25 0.65 0.05 0.35-0.35 0.2-0.6-0.05-0.15q-0.15-0.75-1-0.85l-0.2 0.05-0.25 0.05-0.3 0.55-0.6-0.55q0.3-1.35-2.05-2.1l0.05-0.4 0.75 0.1 0.35-0.35 0.1-0.15 0.85-0.1q1.95-1.65-0.8-2.2l-0.05 0.05-0.4 0.05-0.05 0.05-0.45 0.7-0.5 0.1-0.1 0.2q0.3-0.9-0.5-1.6 2.15-2.15-1-3.3l0.1-0.25 0.4-1.5h0.4l0.3-0.35 0.2-0.6v-0.15q-0.2-0.75-1-0.85l-0.25 0.05-0.2 0.05-0.95-0.6 0.05-0.1q0.7-1.05 0.65-1.75-0.15-1.1-1.9-1.5l-0.05-0.05v-1.25l0.3-0.2m8.35-9.15 0.5-0.4 2.7-0.75 4.65-1.1q2.35 1.55 5.5 0.8l7 4.4 5 5.6 0.25 0.25-0.35 0.3-0.05 0.1-1.9 0.05q-1.4-0.8-1.55-1.7l-0.05-0.4-0.2-0.1-1.2-1.05 0.15-0.45q-0.9-0.45-1.25-1l-0.6 0.55q-0.75 0.7-1.6 0.25l-0.4 0.35q-0.8 0.75-1.75 0.15-2.05-1.3-1.5-2.65-0.8-0.6-0.9-1.3l-0.55-0.2-0.45 0.4-1.8 0.1-0.6-0.45-1.3 1.55q-0.6 0.6-1.3 0.35l-0.3 0.25q-0.8 0.75-1.75 0.15-1.5-1-1.6-2-0.6 0.15-1.2-0.25-1.45-0.9-1.6-1.8m-5.75 11.25-0.25 0.05-0.4 0.85q-0.3 1.1 1.6 1l0.3-0.35 0.2-0.6v-0.15q-0.25-0.9-1.2-0.85l-0.25 0.05m8.55 19.2-0.25 0.05q-0.65 0.9-0.4 1.4 0.25 0.45 1.4 0.45l0.35-0.35 0.2-0.6-0.05-0.15q-0.15-0.75-1-0.85l-0.25 0.05" fill="#856625" fill-rule="evenodd"/>
<path d="m266.75 205.55 0.55 1.4-1.7-0.9q0.35-0.35 0.35-0.95-0.05-2.45-2.15-4.05l0.2-0.4 0.7-1.05q0.7-1.75-0.8-2.8v-0.15q-0.5-3.45-4.05-3.35-0.85 0.05-1.55 0.6l-0.45 0.4q-0.55-0.4-1.45-0.7-0.65 0.05-1.05 0.5l-0.25-0.55q0.5-3.65-2.6-4.5 2.5-2.45-1.1-3.55l-0.2 0.05q-0.5-2.3-2.85-3.5 0.9-1.75 0.15-3.9-1.3-3.7-4.75-4.45l-0.1-0.7q1.2-1.25 0.65-2.15 0.25-1.5-0.2-2.55 4.1 5.75 9.3 10.85 1.75 1.75 3.65 3l7.6 6.6 0.6 0.3 0.05 0.2q0.5 0.15 0.8 0.55v0.1q0.45 0.1 0.7 0.35v0.15l0.65 0.25-0.15 0.3 3 4-1 3h-3l-1 4 1.45 3.6" fill="#c99b3d" fill-rule="evenodd"/>
<path d="m261.05 203.85-3.3-2.3-5.7-4q1.25-2-1.6-3.1h-0.1q-0.15-0.55-0.65-1 0.6-1.2-0.45-2.05l-1.3-0.65q-0.6 0.05-1.05 0.35-0.3-0.4-0.95-0.75 0.5-1.6-1.7-2.3 0.1-1.25-1.85-2.05-0.25-0.75-1.4-1.25l-0.1-0.5q0.6-0.9 0.45-1.95t-1.1-2.3l0.05-0.15q1.4-2.95-0.55-4.55l-0.4-0.3q0.75-1.45-1.4-2.4 0.4-2.55 0.95-5l0.15-0.3q1.75 0.4 1.9 1.5 0.05 0.7-0.65 1.75l-0.05 0.1 0.95 0.6 0.2-0.05 0.25-0.05q0.8 0.1 1 0.85v0.15l-0.2 0.6-0.3 0.35h-0.4l-0.4 1.5-0.1 0.25q3.15 1.15 1 3.3 0.8 0.7 0.5 1.6l0.1-0.2 0.5-0.1 0.45-0.7 0.05-0.05 0.4-0.05 0.05-0.05q2.75 0.55 0.8 2.2l-0.85 0.1-0.1 0.15-0.35 0.35-0.75-0.1-0.05 0.4q2.35 0.75 2.05 2.1l0.6 0.55 0.3-0.55 0.25-0.05 0.2-0.05q0.85 0.1 1 0.85l0.05 0.15-0.2 0.6-0.35 0.35-0.65-0.05 0.2 1.25q0.8 0.1 0.95 0.85l0.05 0.15v0.15l0.25 0.2 0.4-0.75 0.25-0.05 0.2-0.05q0.85 0.05 1 0.85l0.05 0.15v0.2l0.1 0.1 0.35 0.6 0.05 0.1-0.2 0.65 0.05 0.2v0.15l-0.5 0.8 0.55 0.35 0.4-0.75 0.5-0.1q0.8 0.1 1 0.85v0.15l-0.2 0.6-0.3 0.35-0.5-0.05 0.2 0.85q1.25 0.35 1.6 1.1l0.15-0.05q0.85 0.1 1 0.85l0.05 0.15-0.2 0.6-0.15 0.2q0.8 0.45 1.05 1.05l0.4-0.1 0.4 0.05v-0.05l0.5-0.1q0.7 0.05 0.95 0.65l0.05 0.05 0.45-0.1 0.85 0.35 0.45-0.35 0.7-0.3q3.35 1.25 1 3.5h0.1q1.1-0.15 1.4 0.85v0.1l-0.15 0.35 0.35 0.7-0.25 0.6-0.3 0.35h-0.45m-19.15-35.95 0.25-0.05q0.95-0.05 1.2 0.85v0.15l-0.2 0.6-0.3 0.35q-1.9 0.1-1.6-1l0.4-0.85 0.25-0.05m8.55 19.2 0.25-0.05q0.85 0.1 1 0.85l0.05 0.15-0.2 0.6-0.35 0.35q-1.15 0-1.4-0.45-0.25-0.5 0.4-1.4l0.25-0.05m-8.05-6.55 0.05-0.3-0.1 0.15 0.05 0.15" fill="#503d16" fill-rule="evenodd"/>
<path d="m290.1 180.25q0.4 0.45 0.35 1.05l1.2 0.75 0.2 0.25q0.65 0.85 0 2l-0.55 0.85-0.1-0.05-0.05 0.05h0.05q0.3 0.65-0.1 1.5l-0.3-0.05v-0.15l-0.2 0.05v0.3l0.1 0.1v0.05l0.4 0.05q2.85 1.4 0.85 3.65 0 0.8-0.9 1.75 3.45 1.2 1.2 4.25v0.05q1.95 1.05 0.25 3.65-0.65 1.05-1.95 0.8-1.05-0.2-1.65-0.6-0.75 0.65-1.95 0.45 0.45 1.2-1.4 2.85-0.75 0.65-1.6 0.3v-1.7l-0.1-0.1h-0.1l-3 1-0.05 0.05q-1 1.05-1.85 0.95l-1.55-0.75h0.5l0.1-0.05 1-1 0.05-0.1-0.05-0.1-1-1h-0.2l-0.95 1h-0.85l-0.95-1.85 0.9-0.9 2 1 0.05-0.05 0.05-0.1v-2l-0.35-1.2-0.85 0.1-1.35 0.5q-0.45 0.05-0.6 0.2-0.25 0.2-0.1 0.45 0.15 0.4-0.25 0.75l-0.35 0.2-0.2-0.05-1-2v-0.05l-0.25-0.35h-0.05l-0.05-0.25 0.3-0.15 2.9-1.05 0.35-0.3q0.15-0.1 0.65 0.3 1 0.8 2 1.05l0.95 0.5 0.3-0.2-0.05-0.45-0.05-0.05-1-1.05h-0.05l-1.95-1-0.95-0.95v-1.85l0.3-0.2v0.05l0.45 0.1q0.5 1.2 1.15 1.1 0.95-0.2 1.1-1.05l0.95-1 0.05-0.05-1-2 0.15-0.15 0.65 0.2 2 1.05h0.1l0.1-0.1-0.05-0.1-0.95-1.95v-1.75l2.75 1.85 2 3 0.1 0.05h0.05l0.05-0.1 0.05-0.05v-1q-0.2-2.3 0-2.95v-3.55h0.45q0.85 1.55 1.4 1.65l0.8 0.1 0.25-0.05 0.1-0.15 0.85-4.3 0.3 0.05" fill="#e6cfa2" fill-rule="evenodd"/>
<path d="m278.95 204.9-0.5 0.3-0.55 0.75q-0.6 0.7-1.5 0.5l-1.85-0.75q-0.85 0.75-1.95 0.15l-0.85-0.6-0.3-0.1-1.3 1.6-1.85 0.15q-1.05-0.6-1.4-1.3l-0.15-0.05-1.45-3.6 1-4h3l1-3-3-4 0.3-0.25 2.7-2.75h6l2-2v-1.95l0.05-0.05 3.95-1 3 2h0.4v1.5q-0.25 0.6 0 3l-0.3 0.2-1.5-2.25v-0.05l-3-2h-0.1l-0.1 0.05v2.1l0.85 1.75-1.65-0.9-0.95-0.2h-0.05l-0.2 0.2v0.15l0.95 1.9-0.95 0.95v0.1q-0.1 0.75-0.9 0.9-0.5 0.05-0.85-0.95-0.2-0.45-0.8-0.25l-0.4 0.2-0.05 0.05v2.15l1 1 2.05 1.05 0.45 0.4-0.35 0.35q-1-0.2-1.95-1l-0.5-0.3q-0.35-0.2-0.5 0v0.1l-0.05 0.2q-0.1-0.1-3.1 1l-0.4 0.3 0.05 0.5v-0.05l0.35 0.45 0.95 1.95v0.05l0.45 0.15 0.45-0.25q0.55-0.45 0.35-1.05v-0.15l0.5-0.15 1.45-0.55 0.5-0.1 0.3 1v1.85l-1.85-0.95h-0.15l-1 1v0.15l1 2 0.1 0.1h1l0.1-0.05 0.9-0.9 0.8 0.8-0.85 0.9h-1l-0.05 0.1v0.05l0.05 0.05 2 1 0.05 0.05 0.1 0.05 0.05 0.25" fill="#d3ab61" fill-rule="evenodd"/>
<path d="m246.3 157.95q-1.8 0.8-3.6 1.95-3.55 2.35-3.4 4.05 0.25 2.75-1 7v6l-2 5 8 10 12 9 11 6-0.55-1.4 0.15 0.05q0.35 0.7 1.4 1.3l1.85-0.15 1.3-1.6 0.3 0.1 0.85 0.6q1.1 0.6 1.95-0.15l1.85 0.75q0.9 0.2 1.5-0.5l0.55-0.75 0.5-0.3 0.15-0.1 1.1 0.85q1 0.6 1.85-0.15l1.35-1.7 0.3 0.2q1 0.6 1.85-0.15 1.85-1.65 1.4-2.85 1.2 0.2 1.95-0.45 0.6 0.4 1.65 0.6 1.3 0.25 1.95-0.8 1.7-2.6-0.25-3.65v-0.05q2.25-3.05-1.2-4.25 0.9-0.95 0.9-1.75 2-2.25-0.85-3.65v-0.35q0.45-0.85 0.05-1.5l0.05-0.05 0.1 0.05 0.55-0.85q1.05-1.85-1.4-3 0.05-0.6-0.35-1.05l-0.3-0.75q0.25-0.75-0.1-1.35l0.6-1.2-6-7-1 2-5-1-16-15-10-1z" fill="none" stroke="#59442b" stroke-linecap="round" stroke-linejoin="round" stroke-width="2"/>
<path d="m279.5 208.7 0.75 0.05 0.4 0.1q0.85 0.75 0.8 1.95l-0.35 0.95q-1.95 0.7-3.35-0.85l-0.1-0.4 0.1-0.9q0.65-0.5 1.45-0.8l0.3-0.1m-7.45 2.5 0.4 0.1 0.45 0.4 0.3 0.5-0.3 0.75-0.4 0.9-0.2 0.15-0.75 0.2q-0.5-0.05-0.85-0.5l-0.45-0.55-0.1-0.35 0.1-0.9 0.3-0.35q0.35-0.35 0.75-0.35h0.75m10.05 6.3 0.15 0.15 0.05 0.9-0.7 0.85-0.85 0.05-0.7-0.25q-0.45-0.75 0-1.55l0.65-0.5q0.8-0.15 1.4 0.35m20.45-15.3 0.05 0.2q0 0.55-0.5 0.8l-0.4 0.15q-0.95-0.15-0.9-1.05 0.1-0.5 0.6-0.7l0.3-0.05q0.65 0.05 0.85 0.65m-5.2 3.25 0.45 0.05q1.4 0.8 1.15 2.35l-0.25 0.55q-1.55 0.55-2.9-0.55l-0.1-0.7 0.1-0.9 0.65-0.7 0.45-0.15 0.45 0.05m-9.25 4.45 0.3 0.15 0.1 0.35 0.1 1.25 0.2 0.2 0.6 0.35 0.05 0.2 0.1 0.35 0.05 0.15 0.3 0.25 0.15 0.25-0.15 0.6-0.45 0.3-0.65-0.05-0.85 0.55-0.4 0.25q-4.75 0.8-3.95-3.3 1-0.65 2.25-0.4v-0.7l0.05-0.35 0.15-0.2q0.25-0.4 0.7-0.35l1.35 0.15m-26.75-0.2 0.25 0.1q0.5 1 0.5 2.15l-0.25 0.9-0.7 0.25-0.4-0.05-0.25-0.2-0.15-0.15q-1 0.3-1.75-0.25-0.3-0.2-0.3-0.55l0.1-0.9q0.55-0.8 1.45-1.3 0.2-0.15 0.35-0.2l1.15 0.2" fill="#856625" fill-rule="evenodd"/>
<path d="m279.5 208.7 0.75 0.05 0.4 0.1q0.85 0.75 0.8 1.95l-0.35 0.95q-1.95 0.7-3.35-0.85l-0.1-0.4 0.1-0.9q0.65-0.5 1.45-0.8l0.3-0.1m-7.45 2.5 0.4 0.1 0.45 0.4 0.3 0.5-0.3 0.75-0.4 0.9-0.2 0.15-0.75 0.2q-0.5-0.05-0.85-0.5l-0.45-0.55-0.1-0.35 0.1-0.9 0.3-0.35q0.35-0.35 0.75-0.35h0.75m10.05 6.3 0.15 0.15 0.05 0.9-0.7 0.85-0.85 0.05-0.7-0.25q-0.45-0.75 0-1.55l0.65-0.5q0.8-0.15 1.4 0.35m20.45-15.3 0.05 0.2q0 0.55-0.5 0.8l-0.4 0.15q-0.95-0.15-0.9-1.05 0.1-0.5 0.6-0.7l0.3-0.05q0.65 0.05 0.85 0.65m-5.2 3.25 0.45 0.05q1.4 0.8 1.15 2.35l-0.25 0.55q-1.55 0.55-2.9-0.55l-0.1-0.7 0.1-0.9 0.65-0.7 0.45-0.15 0.45 0.05m-9.25 4.45 0.3 0.15 0.1 0.35 0.1 1.25 0.2 0.2 0.6 0.35 0.05 0.2 0.1 0.35 0.05 0.15 0.3 0.25 0.15 0.25-0.15 0.6-0.45 0.3-0.65-0.05-0.85 0.55-0.4 0.25q-4.75 0.8-3.95-3.3 1-0.65 2.25-0.4v-0.7l0.05-0.35 0.15-0.2q0.25-0.4 0.7-0.35l1.35 0.15m-26.75-0.2 0.25 0.1q0.5 1 0.5 2.15l-0.25 0.9-0.7 0.25-0.4-0.05-0.25-0.2-0.15-0.15q-1 0.3-1.75-0.25-0.3-0.2-0.3-0.55l0.1-0.9q0.55-0.8 1.45-1.3 0.2-0.15 0.35-0.2l1.15 0.2" fill="none" stroke="#59442b" stroke-linecap="round" stroke-linejoin="round"/>
<path d="m287.2 181.7-0.25 0.1q-0.7-0.1-0.65-0.7l0.45-0.5 0.2-0.05q0.45 0.05 0.55 0.45l0.05 0.15q0 0.35-0.35 0.55m-2.3 4.5q0.45 0.05 0.6 0.45v0.15l-0.3 0.55-0.3 0.1q-0.65-0.1-0.6-0.7l0.4-0.5 0.2-0.05m-15.5 11.3 0.4 0.4 0.05 0.1-0.35 0.55-0.3 0.15q-0.65-0.1-0.6-0.7l0.05-0.15q0.05-0.25 0.35-0.35l0.2-0.05 0.2 0.05m12.35-13.65q0.5 0.05 0.6 0.45l0.05 0.15-0.35 0.55-0.3 0.1q-0.65-0.1-0.6-0.7 0.05-0.35 0.4-0.5l0.2-0.05m-8.35 6.1-0.7 0.45q-0.35 0-0.6-0.3l-0.05-0.4 0.05-0.35q0.25-0.3 0.6-0.3v-0.05h0.15q0.35 0 0.55 0.35l0.05 0.1-0.05 0.5m-1.6 0.3-0.3 0.55-0.3 0.1q-0.65-0.05-0.6-0.7l0.4-0.45 0.2-0.05q0.45 0 0.6 0.45v0.1m0 3.5v0.15l-0.3 0.55-0.3 0.1q-0.65-0.1-0.6-0.7 0.05-0.35 0.4-0.5l0.2-0.05q0.45 0.05 0.6 0.45m-0.45 3.9q-0.65-0.1-0.6-0.7 0.05-0.35 0.4-0.5l0.2-0.05q0.45 0.05 0.6 0.45l0.05 0.15-0.35 0.55-0.3 0.1m9.2-10.55-0.3 0.55-0.3 0.15q-0.65-0.1-0.6-0.7 0.05-0.4 0.4-0.5l0.2-0.05q0.45 0.05 0.6 0.45v0.1m-3.35 2.85q-0.55-0.15-0.5-0.7 0.05-0.4 0.4-0.5l0.2-0.05 0.6 0.45 0.05 0.1-0.35 0.55-0.3 0.15h-0.1m-3.7 2.2q0.45 0.05 0.6 0.45l0.05 0.15-0.35 0.55-0.3 0.1q-0.65-0.1-0.6-0.7l0.4-0.5 0.2-0.05m5.85 7.45q0.4 0.05 0.5 0.45l0.05 0.1-0.35 0.55-0.25 0.1q-0.65-0.05-0.65-0.7 0.1-0.35 0.45-0.45l0.2-0.05h0.05m-1.2 2.05-0.35 0.55-0.3 0.1q-0.65-0.1-0.6-0.7 0.05-0.35 0.4-0.45l0.2-0.1q0.45 0.05 0.6 0.5l0.05 0.1m2.65 1.85q0.45 0.05 0.6 0.45l0.05 0.15-0.35 0.55-0.3 0.1q-0.65-0.1-0.6-0.7 0.05-0.35 0.4-0.5l0.2-0.05m-5-4.75q0.5 0.05 0.6 0.45l0.05 0.15q0 0.35-0.35 0.55l-0.3 0.1q-0.65-0.1-0.6-0.7l0.4-0.5 0.2-0.05m-2.8 1.75-0.35 0.55-0.3 0.1q-0.65-0.1-0.6-0.7 0.05-0.35 0.4-0.5l0.2-0.05q0.45 0.05 0.6 0.45l0.05 0.15m2.7 2.6q0.05-0.35 0.4-0.5l0.2-0.05q0.5 0.05 0.6 0.45l0.05 0.15-0.35 0.55-0.3 0.1q-0.65-0.1-0.6-0.7m-7.6-1.7q-0.8 0.2-0.95-0.55 0.05-0.5 0.55-0.7l0.2-0.05 0.6 0.45v0.1l-0.1 0.5-0.3 0.25m0.5 2-0.15-0.25q-0.05-0.15 0.05-0.35 0.2-0.5 0.7-0.55 0.5-0.1 0.75 0.3l0.05 0.15v0.2l-0.1 0.3q-0.55 0.65-1.3 0.2" fill="#6b4e1f" fill-rule="evenodd"/>
<path d="m272.85 189 0.3-0.25 0.2-0.05q0.45 0.05 0.6 0.45v0.1l-0.35 0.55-0.2 0.15 0.05-0.5-0.05-0.1q-0.2-0.35-0.55-0.35m5.1 0.25q0.3 0.05 0.45 0.4l0.05 0.1-0.35 0.55-0.3 0.1q-0.5-0.05-0.6-0.45h0.1l0.3-0.15 0.35-0.55m-3 1.15 0.2-0.05q0.45 0.05 0.6 0.45l0.05 0.1-0.35 0.55-0.3 0.15q-0.65-0.1-0.6-0.7 0.05-0.4 0.4-0.5" fill="#c79138" fill-rule="evenodd"/>
<path d="m252.8 173.45 2-7 7-1 9 2 1 1h-7l-8 3-4 2m17.4 0.65 12.15 2.1-10.8 0.4-10.9 5.3 1.15-4.65 8.4-3.15" fill="#78402c" fill-rule="evenodd"/>
<path d="m289.2 186q0.45 0.05 0.6 0.45v0.15l-0.35 0.55-0.25 0.1q-0.65-0.1-0.6-0.7 0.05-0.35 0.4-0.5l0.2-0.05m-0.1 4.15 0.05 0.1-0.35 0.55-0.25 0.1q-0.65-0.05-0.65-0.7 0.1-0.35 0.45-0.45l0.2-0.05q0.45 0 0.55 0.45m-0.45 1.75 0.2-0.05q0.5 0 0.6 0.45l0.05 0.1-0.35 0.55-0.3 0.1q-0.65-0.1-0.6-0.7 0.05-0.35 0.4-0.45m-1.95-5.05q0.5 0.05 0.6 0.5l0.05 0.1-0.35 0.55-0.3 0.1q-0.65-0.1-0.6-0.7 0.05-0.35 0.4-0.45l0.2-0.1m-3.2 1.8q0.05 0.85-0.9 0.95-0.65-0.1-0.65-0.7 0.3-0.65 0.95-0.7 0.4 0 0.55 0.35l0.05 0.1m1.8 2 0.05 0.1q0 0.4-0.35 0.55l-0.25 0.1q-0.65-0.1-0.65-0.7 0.1-0.35 0.45-0.45l0.2-0.05q0.45 0 0.55 0.45m-1.6 1.75q0 0.4-0.35 0.55l-0.25 0.1q-0.65-0.1-0.65-0.7 0.1-0.35 0.45-0.45l0.2-0.05 0.55 0.45 0.05 0.1m2.2-0.25 0.6 0.45v0.15l-0.35 0.55-0.25 0.1q-0.65-0.1-0.6-0.7l0.4-0.5 0.2-0.05m2.1 1.95 0.05 0.1-0.35 0.55-0.3 0.15q-0.65-0.1-0.6-0.7 0.05-0.4 0.4-0.5l0.2-0.05q0.5 0.05 0.6 0.45m-4.9 0.65-0.2 0.2q-0.85 0.3-1.05-0.5 0-0.45 0.4-0.6l0.2-0.05q0.45 0 0.65 0.35l0.05 0.1q0.15 0.3-0.05 0.5m1.5 2.1q-0.45 0.6-1.15 0.4l-0.15-0.1-0.15-0.25v-0.6l0.25-0.2q0.2-0.15 0.35-0.2 0.6-0.1 0.9 0.35l0.05 0.1v0.4l-0.1 0.1m-0.5 1.6q0.5 0 0.6 0.45l0.05 0.1-0.35 0.55-0.3 0.1q-0.65-0.05-0.6-0.7 0.05-0.35 0.4-0.45l0.2-0.05m6.85-3.1-0.3 0.55-0.3 0.1q-0.65-0.1-0.6-0.7 0.05-0.35 0.4-0.5l0.2-0.05q0.45 0.05 0.6 0.45v0.15m-1.8 2.65-0.35 0.55-0.25 0.15q-0.65-0.1-0.65-0.7 0.1-0.4 0.45-0.5l0.2-0.05q0.45 0.05 0.55 0.45l0.05 0.1m-10.55-6.3 0.2-0.05q0.45 0.05 0.6 0.45v0.15l-0.35 0.55-0.25 0.1q-0.65-0.1-0.6-0.7 0.05-0.35 0.4-0.5m3.35-0.95q-0.65-0.1-0.6-0.7 0.05-0.35 0.4-0.5l0.2-0.05q0.5 0.05 0.6 0.45l0.05 0.15-0.35 0.55-0.3 0.1m-0.7 3.65q0 0.35-0.35 0.55l-0.3 0.1q-0.65-0.1-0.6-0.7 0.05-0.35 0.4-0.5l0.2-0.05q0.45 0.05 0.6 0.45l0.05 0.15m-2.15 5.25q-0.6-0.1-0.55-0.7 0.05-0.35 0.4-0.45l0.2-0.05q0.5 0 0.6 0.45l0.05 0.1-0.35 0.55-0.1 0.05h-0.05l-0.2 0.05m1.7-2.15q0.1-0.4 0.45-0.5l0.2-0.05q0.45 0.05 0.55 0.45l0.15 0.8q0.05 0.7-0.2 0.65l-0.7-0.4q-0.45-0.35-0.45-0.95m1.15 2.7q0.5 0.05 0.6 0.45l0.05 0.15-0.35 0.55-0.3 0.1q-0.65-0.1-0.6-0.7 0.05-0.35 0.4-0.5l0.2-0.05" fill="#d0a451" fill-rule="evenodd"/>
<path d="m252.8 173.45 4-2 8-3h7l-1-1-9-2-7 1-2 7m37 5-1.8 2.5-3.4-2.15 0.5 6.2-2.75-2.25-3.95 1.05 0.1 2.25-8.05 1.85-3.1 3.2 2.7 3.65-0.65 2.75m-0.75 0.35h-2.55l-1.2 4.6 1.9 2m-27-39 12.1 12.05 9.25 7.45 5.65 6.5" fill="none" stroke="#000" stroke-linecap="round" stroke-linejoin="round" stroke-opacity=".50196" stroke-width=".05"/>
<path d="m270.2 174.1-8.4 3.15-1.15 4.65 10.9-5.3 10.8-0.4-12.15-2.1" fill="none" stroke="#000" stroke-linecap="round" stroke-linejoin="round" stroke-opacity=".50196" stroke-width=".05"/>
<path d="m278.05 190.45q0.3 0 0.55-0.3l0.2-0.75-0.2-0.75q-0.25-0.3-0.55-0.3t-0.5 0.3q-0.25 0.3-0.25 0.75l0.25 0.75q0.2 0.3 0.5 0.3" fill="#35280d" fill-opacity=".61176" fill-rule="evenodd"/>
<path d="m277.4 190 0.2 0.25 0.55 0.2 0.3-0.4-0.05-0.45-0.95-0.8 0.45 1.1-0.55-0.8 0.05 0.9" fill="#ecddaa" fill-rule="evenodd"/>
<path d="m277.1 189.5 0.05 0.25 0.1 0.05-0.05 0.1 0.2 0.2v-0.1l-0.05-0.9 0.55 0.8-0.45-1.1 0.95 0.8 0.05 0.05-0.15-0.4-0.25-0.25-0.6-0.55-0.2 0.1h-0.05l-0.2 0.15-0.05 0.2 0.05 0.2 0.1 0.35v0.05h0.05-0.05" fill="#d2a94a" fill-rule="evenodd"/>
<path d="m277.1 189.45v0.05-0.05" fill="#b68129" fill-rule="evenodd"/>
<path d="m277.1 189.5h0.05-0.05" fill="#e3ba88" fill-rule="evenodd"/>
<path d="m277.6 190.25 0.6 0.15 0.3-0.4-0.1-0.75-0.5-0.65-0.6-0.15q-0.3 0.05-0.35 0.4l0.1 0.65h0.15l0.05-0.05-0.1-0.6q-0.05-0.25 0.2-0.35l0.45 0.2 0.45 0.6 0.1 0.7-0.2 0.35-0.45-0.15-0.45-0.65-0.05-0.05h-0.05l-0.05 0.05 0.05 0.05q0.15 0.4 0.45 0.65" fill="#fc6" fill-rule="evenodd"/>
<path d="m273.9 198.35q0.1 0.25 0.5 0.3l0.95-0.25 0.6-0.6 0.15-0.6q-0.15-0.25-0.65-0.35l-0.8 0.25-0.75 0.6q-0.15 0.4 0 0.65" fill="#35280d" fill-opacity=".61176" fill-rule="evenodd"/>
<path d="m274.05 197.45-0.1 0.3q-0.15 0.4 0 0.6l0.55 0.05 0.4-0.25 0.4-1.35-0.9 1.05 0.55-0.95-0.9 0.55" fill="#ecddaa" fill-rule="evenodd"/>
<path d="m274.9 198.15v0.05l0.35-0.3 0.2-0.45 0.3-0.8-0.2-0.15-0.1-0.05-0.2-0.05-0.25 0.05-0.2 0.15-0.3 0.25h-0.05l-0.25 0.25-0.05 0.1-0.05 0.05-0.1 0.25 0.05-0.05 0.9-0.55-0.55 0.95 0.9-1.05-0.4 1.35m-0.45-1.25v-0.05 0.1-0.05" fill="#d2a94a" fill-rule="evenodd"/>
<path d="m274.5 196.85h-0.05 0.05m-0.05 0.05v-0.05 0.05" fill="#b68129" fill-rule="evenodd"/>
<path d="m274.45 196.85v0.1-0.1" fill="#e3ba88" fill-rule="evenodd"/>
<path d="m273.85 197.85q-0.1 0.4 0.1 0.6l0.6 0.05 0.7-0.55 0.4-0.75v-0.65l-0.6-0.1-0.6 0.5-0.05 0.05v0.05h0.1l0.6-0.45 0.45 0.05 0.05 0.45-0.45 0.8-0.7 0.5h-0.45v-0.45l0.4-0.8 0.05-0.05v-0.05l-0.1-0.05-0.05 0.05-0.45 0.8" fill="#fc6" fill-rule="evenodd"/>
<path d="m283.05 194.75 0.55 0.15 0.55-0.4 0.15-0.55-0.25-0.55-0.55-0.1q-0.3 0.05-0.5 0.3l-0.2 0.65q0 0.35 0.25 0.5" fill="#35280d" fill-opacity=".61176" fill-rule="evenodd"/>
<path d="m282.75 194v0.3l0.35 0.4 0.45-0.05 0.15-0.3-0.35-1.05-0.2 0.95-0.05-0.85-0.35 0.6" fill="#ecddaa" fill-rule="evenodd"/>
<path d="m282.7 193.5-0.05 0.2v0.1l0.05 0.3 0.05-0.1 0.35-0.6 0.05 0.85 0.2-0.95 0.35 1.05v0.1l0.15-0.35-0.1-0.35-0.2-0.65-0.2-0.15h-0.3l-0.15 0.05-0.1 0.15-0.1 0.3 0.05 0.05v0.05-0.05h-0.05" fill="#d2a94a" fill-rule="evenodd"/>
<path d="m282.7 193.45v0.05h0.05l-0.05-0.05" fill="#b68129" fill-rule="evenodd"/>
<path d="m282.75 193.5v0.05-0.05l-0.05-0.05 0.05 0.05" fill="#e3ba88" fill-rule="evenodd"/>
<path d="m282.75 194.3 0.4 0.55 0.45-0.1 0.25-0.55-0.05-0.65-0.45-0.55-0.45 0.1-0.2 0.45 0.05 0.05h0.05q0.05-0.3 0.25-0.4 0.15-0.2 0.3-0.1l0.3 0.35 0.05 0.7-0.25 0.5-0.3 0.1-0.3-0.35-0.05-0.7v-0.05l-0.05-0.05h-0.05l-0.05 0.05 0.1 0.65" fill="#fc6" fill-rule="evenodd"/>
<path d="m288.05 188.2 0.55-0.25 0.2-0.55-0.2-0.55-0.55-0.25q-0.3 0-0.5 0.25-0.25 0.2-0.25 0.55l0.25 0.55q0.2 0.25 0.5 0.25" fill="#35280d" fill-opacity=".61176" fill-rule="evenodd"/>
<path d="m287.4 187.9 0.2 0.15 0.55 0.15 0.3-0.3-0.05-0.35-0.95-0.55 0.45 0.8-0.55-0.55 0.05 0.65" fill="#ecddaa" fill-rule="evenodd"/>
<path d="m288.4 187.55 0.05 0.05-0.15-0.3-0.25-0.2-0.6-0.4-0.2 0.05h-0.05l-0.2 0.1q-0.1 0.1-0.05 0.15l0.05 0.2 0.1 0.25 0.05 0.25 0.1 0.05-0.05 0.05 0.2 0.15v-0.05l-0.05-0.65 0.55 0.55-0.45-0.8 0.95 0.55m-1.3-0.05v-0.05 0.05h0.05-0.05" fill="#d2a94a" fill-rule="evenodd"/>
<path d="m287.1 187.45v0.05-0.05" fill="#b68129" fill-rule="evenodd"/>
<path d="m287.1 187.5h0.05-0.05v-0.05 0.05" fill="#e3ba88" fill-rule="evenodd"/>
<path d="m287.6 188.05 0.6 0.2 0.3-0.35-0.1-0.55-0.5-0.5-0.6-0.15q-0.3 0.05-0.35 0.35l0.1 0.45 0.05 0.05 0.05-0.05h0.1l-0.1-0.5q-0.05-0.2 0.2-0.25l0.45 0.15 0.45 0.5 0.1 0.5-0.2 0.25-0.45-0.15-0.45-0.45h-0.15l0.5 0.5" fill="#fc6" fill-rule="evenodd"/>
<path d="m280.5 199.7 0.55-0.25 0.2-0.6-0.2-0.6-0.55-0.25q-0.3 0-0.5 0.25-0.25 0.25-0.25 0.6l0.25 0.6 0.5 0.25" fill="#35280d" fill-opacity=".61176" fill-rule="evenodd"/>
<path d="m279.85 199.35 0.2 0.15 0.55 0.15 0.3-0.3-0.05-0.35-0.95-0.65 0.45 0.9-0.55-0.65 0.05 0.75" fill="#ecddaa" fill-rule="evenodd"/>
<path d="m279.55 198.9 0.05 0.2 0.1 0.1-0.05 0.05 0.2 0.15v-0.05l-0.05-0.75 0.55 0.65-0.45-0.9 0.95 0.65 0.05 0.05-0.15-0.35-0.25-0.2-0.6-0.45-0.2 0.05-0.05 0.05-0.2 0.1-0.05 0.15 0.05 0.2 0.1 0.25v0.05h0.05-0.05" fill="#d2a94a" fill-rule="evenodd"/>
<path d="m279.55 198.85v0.05-0.05" fill="#b68129" fill-rule="evenodd"/>
<path d="m279.55 198.9h0.05-0.05" fill="#e3ba88" fill-rule="evenodd"/>
<path d="m280.05 199.5 0.6 0.2 0.3-0.35-0.1-0.6-0.5-0.55-0.6-0.15q-0.3 0.05-0.35 0.35l0.1 0.5 0.05 0.05h0.05l0.05-0.05h0.05l-0.1-0.5q-0.05-0.2 0.2-0.25l0.45 0.1 0.45 0.55 0.1 0.55-0.2 0.25-0.45-0.15-0.45-0.5h-0.15l0.05 0.05 0.45 0.5" fill="#fc6" fill-rule="evenodd"/>
<path d="m272.15 202.45q-0.25 0.2-0.7 0l-0.9-0.75-0.6-1q-0.2-0.45 0.05-0.7 0.25-0.2 0.75 0l0.95 0.7 0.55 1.05q0.15 0.45-0.1 0.7" fill-opacity=".61176" fill-rule="evenodd"/>
<path d="m271.55 201.25-1.6-0.3q0.75 0.45 1.5 1l-1.2-0.55 0.95 1 0.1 0.05-0.35-0.05-0.1-0.15h-0.15l-0.25-0.25h0.05-0.05l-0.05-0.05h-0.1l-0.6-0.6-0.2-0.3q-0.05-0.1 0.05-0.25l-0.05-0.1 0.15-0.2 1 0.25 0.5 0.15 0.5 0.35h-0.1" fill="#d2a94a" fill-rule="evenodd"/>
<path d="m270.4 201.95h-0.1 0.1" fill="#b68129" fill-rule="evenodd"/>
<path d="m270.45 202-0.05-0.05 0.05 0.05h0.05-0.05" fill="#e3ba88" fill-rule="evenodd"/>
<path d="m271.55 201.25 0.5 0.45 0.15 0.65-0.6 0.2-0.4-0.15-0.95-1 1.2 0.55q-0.75-0.55-1.5-1l1.6 0.3" fill="#9d7431" fill-rule="evenodd"/>
<path d="m272.05 201.65 0.2 0.7q-0.2 0.3-0.65 0.2l-1.1-0.5-0.05-0.05h0.05l0.05-0.1 1.1 0.45 0.5-0.05-0.2-0.55-0.8-0.75-1-0.4-0.55 0.05 0.2 0.55 0.7 0.7v0.1h-0.05l-0.05-0.05-0.7-0.65q-0.35-0.4-0.2-0.65 0.15-0.3 0.65-0.2l1.05 0.4 0.85 0.8" fill="#1c1509" fill-rule="evenodd"/>
<path d="m271.4 192.9 0.55 0.15 0.55-0.3 0.15-0.6-0.2-0.55-0.6-0.1-0.5 0.3-0.2 0.6q0 0.35 0.25 0.5" fill="#35280d" fill-opacity=".61176" fill-rule="evenodd"/>
<path d="m271.1 192.3 0.05 0.3 0.3 0.4h0.45l0.15-0.3-0.3-1.1-0.15 1-0.05-0.85-0.45 0.55" fill="#ecddaa" fill-rule="evenodd"/>
<path d="m271.1 191.8-0.05 0.2v0.1h-0.05l0.05 0.3 0.05-0.1 0.45-0.55 0.05 0.85 0.15-1 0.3 1.1 0.05 0.05 0.1-0.3-0.25-1-0.25-0.15-0.05-0.05-0.2-0.05-0.15 0.1-0.05 0.2-0.1 0.3h-0.05 0.05v0.05-0.05h-0.05" fill="#d2a94a" fill-rule="evenodd"/>
<path d="m271.15 191.8h-0.05 0.05-0.05 0.05" fill="#b68129" fill-rule="evenodd"/>
<path d="m271.15 191.8v0.05-0.05h-0.05 0.05" fill="#e3ba88" fill-rule="evenodd"/>
<path d="m271.2 192.65 0.35 0.45 0.45-0.05 0.3-0.55-0.1-0.65-0.35-0.55-0.4 0.1-0.3 0.45h0.05v0.05l0.05 0.05 0.05-0.05q0.05-0.3 0.25-0.45l0.3-0.05 0.25 0.4 0.1 0.7-0.3 0.45-0.3 0.1-0.3-0.4-0.05-0.65 0.05-0.05-0.05-0.05h-0.1l0.05 0.75" fill="#fc6" fill-rule="evenodd"/>
<path d="m287.55 195.4 0.5 0.2q0.4 0 0.6-0.25l0.15-0.5q0.1-0.3-0.15-0.5-0.2-0.2-0.55-0.25-0.3 0-0.5 0.2l-0.25 0.55 0.2 0.55" fill="#35280d" fill-opacity=".61176" fill-rule="evenodd"/>
<path d="m287.3 194.75v0.25l0.3 0.45h0.4l0.2-0.2-0.25-1.1-0.2 0.9-0.05-0.8-0.4 0.5" fill="#ecddaa" fill-rule="evenodd"/>
<path d="m288.2 195.25v0.05l0.15-0.25-0.05-0.4-0.15-0.65-0.2-0.1-0.05-0.1h-0.2q-0.1-0.05-0.15 0.05l-0.1 0.1-0.1 0.25-0.1 0.2v0.35h0.05l0.4-0.5 0.05 0.8 0.2-0.9 0.25 1.1m-0.85-1v-0.05 0.05l0.05 0.05-0.05-0.05" fill="#d2a94a" fill-rule="evenodd"/>
<path d="m287.35 194.25v-0.05 0.05" fill="#b68129" fill-rule="evenodd"/>
<path d="m287.35 194.2v0.05l0.05 0.05-0.05-0.05v-0.05" fill="#e3ba88" fill-rule="evenodd"/>
<path d="m287.3 194.9 0.35 0.55 0.4-0.05 0.3-0.45v-0.65l-0.35-0.5-0.45-0.05-0.2 0.4-0.05 0.05h0.1v0.05l0.25-0.4 0.35-0.05 0.25 0.45v0.65l-0.3 0.4-0.3 0.05-0.25-0.35v-0.7l-0.1-0.1h0.05l-0.05 0.7" fill="#fc6" fill-rule="evenodd"/>
<path d="m284.25 178.05q0.25 0.15 0.7-0.2l1.05-1.05 0.6-1.35q0.2-0.6-0.05-0.75-0.25-0.2-0.8 0.15l-0.95 1.1-0.7 1.3q-0.1 0.6 0.15 0.8" fill="#35280d" fill-opacity=".61176" fill-rule="evenodd"/>
<path d="m284.2 176.9-0.1 0.5q0 0.6 0.2 0.6l0.65-0.45 0.5-0.7 0.1-1.8-0.8 2 0.4-1.6-0.95 1.45" fill="#ecddaa" fill-rule="evenodd"/>
<path d="m284.5 175.9-0.2 0.45-0.05 0.15-0.1 0.15-0.05 0.45 0.1-0.2 0.95-1.45-0.4 1.6 0.8-2-0.1 1.8-0.05 0.1 0.35-0.7 0.15-0.6 0.05-1.15h-0.35l-0.25 0.05-0.3 0.3-0.5 1-0.05 0.05v0.1-0.1" fill="#d2a94a" fill-rule="evenodd"/>
<path d="m284.55 175.85-0.05 0.05v0.05-0.05l0.05-0.05" fill="#b68129" fill-rule="evenodd"/>
<path d="m284.5 175.95v0.05-0.1 0.05" fill="#e3ba88" fill-rule="evenodd"/>
<path d="m284.1 177.45q-0.05 0.6 0.3 0.65 0.25 0.1 0.7-0.5l0.7-1.25 0.35-1.3q0-0.6-0.3-0.65-0.35-0.1-0.75 0.45l-0.6 1.1v0.05l0.1 0.05 0.05-0.05 0.6-1.1 0.5-0.35q0.2 0.05 0.2 0.55l-0.3 1.2-0.65 1.25-0.55 0.4q-0.25-0.05-0.15-0.55 0-0.5 0.3-1.25v-0.1h-0.15l-0.05 0.05q-0.3 0.8-0.3 1.35" fill="#fc6" fill-rule="evenodd"/>
<path d="m277.5 180.1 0.55 0.25 0.2 0.55-0.2 0.55-0.55 0.25-0.5-0.25-0.25-0.55q0-0.35 0.25-0.55 0.2-0.25 0.5-0.25" fill="#35280d" fill-opacity=".61176" fill-rule="evenodd"/>
<path d="m276.85 180.4 0.2-0.15 0.55-0.15 0.3 0.3-0.05 0.35-0.95 0.55 0.45-0.8-0.55 0.55 0.05-0.65" fill="#ecddaa" fill-rule="evenodd"/>
<path d="m277.85 180.75 0.05-0.05-0.15 0.3-0.25 0.2-0.6 0.4-0.2-0.05h-0.05l-0.2-0.1-0.05-0.15 0.05-0.2 0.1-0.25 0.05-0.25 0.1-0.05-0.05-0.05 0.2-0.15v0.05l-0.05 0.65 0.55-0.55-0.45 0.8 0.95-0.55m-1.3 0.05v0.05-0.05h0.05-0.05" fill="#d2a94a" fill-rule="evenodd"/>
<path d="m276.55 180.85v-0.05 0.05" fill="#b68129" fill-rule="evenodd"/>
<path d="m276.55 180.8h0.05-0.05v0.05-0.05" fill="#e3ba88" fill-rule="evenodd"/>
<path d="m277.05 180.25q0.3-0.25 0.6-0.2l0.3 0.35-0.1 0.55-0.5 0.5-0.6 0.15-0.35-0.35 0.1-0.45 0.05-0.05 0.05 0.05h0.1l-0.1 0.5q-0.05 0.2 0.2 0.25l0.45-0.15 0.45-0.5 0.1-0.5-0.2-0.25q-0.2-0.05-0.45 0.15l-0.45 0.45h-0.15l0.05-0.05q0.15-0.3 0.45-0.45" fill="#fc6" fill-rule="evenodd"/>
<path d="m272.4 176.55 0.55-0.25 0.2-0.55-0.2-0.55-0.55-0.25q-0.3 0-0.5 0.25-0.25 0.2-0.25 0.55t0.25 0.55l0.5 0.25" fill="#35280d" fill-opacity=".61176" fill-rule="evenodd"/>
<path d="m271.75 176.25 0.2 0.15 0.55 0.15 0.3-0.3-0.05-0.35-0.95-0.55 0.45 0.8-0.55-0.55 0.05 0.65" fill="#ecddaa" fill-rule="evenodd"/>
<path d="m271.45 175.8 0.05 0.25 0.1 0.05-0.05 0.05 0.2 0.15v-0.05l-0.05-0.65 0.55 0.55-0.45-0.8 0.95 0.55 0.05 0.05-0.15-0.3-0.25-0.2-0.6-0.4-0.2 0.05h-0.05l-0.2 0.1-0.05 0.15 0.05 0.2 0.1 0.25v0.05h0.05-0.05v-0.05" fill="#d2a94a" fill-rule="evenodd"/>
<path d="m271.45 175.8v0.05-0.05" fill="#b68129" fill-rule="evenodd"/>
<path d="m271.45 175.85h0.05-0.05v-0.05 0.05" fill="#e3ba88" fill-rule="evenodd"/>
<path d="m271.95 176.4 0.6 0.2 0.3-0.35-0.1-0.55-0.5-0.5-0.6-0.15q-0.3 0.05-0.35 0.35l0.1 0.45 0.05 0.05 0.05-0.05h0.1l-0.1-0.5q-0.05-0.2 0.2-0.25l0.45 0.15 0.45 0.5 0.1 0.5-0.2 0.25-0.45-0.15-0.45-0.45h-0.15l0.5 0.5" fill="#fc6" fill-rule="evenodd"/>
<path d="m267.95 174.95 0.7 0.25q0.35 0.2 0.35 0.55t-0.35 0.55l-0.7 0.25-0.75-0.25q-0.3-0.2-0.3-0.55t0.3-0.55q0.3-0.25 0.75-0.25" fill="#35280d" fill-opacity=".61176" fill-rule="evenodd"/>
<path d="m267 175.25 0.3-0.15 0.75-0.15q0.3 0.05 0.4 0.3l-0.05 0.35-1.3 0.55 0.65-0.8-0.8 0.55 0.05-0.65" fill="#ecddaa" fill-rule="evenodd"/>
<path d="m268.4 175.6 0.15-0.05-0.2 0.3-0.4 0.2-0.85 0.4-0.25-0.05h-0.2l-0.2-0.1-0.1-0.15 0.05-0.2 0.3-0.5 0.05-0.05v-0.05l0.25-0.15v0.05l-0.05 0.65 0.8-0.55-0.65 0.8 1.3-0.55m-1.85 0.1 0.05-0.05h0.05-0.05l-0.05 0.05" fill="#d2a94a" fill-rule="evenodd"/>
<path d="m266.6 175.65-0.05 0.05 0.05-0.05" fill="#b68129" fill-rule="evenodd"/>
<path d="m266.6 175.65h0.05-0.05l-0.05 0.05 0.05-0.05" fill="#e3ba88" fill-rule="evenodd"/>
<path d="m267.3 175.1q0.5-0.25 0.85-0.2l0.45 0.35-0.15 0.55-0.7 0.5-0.9 0.15-0.45-0.35q-0.05-0.2 0.2-0.45v-0.05l0.05 0.05h0.1l-0.15 0.5 0.35 0.25 0.6-0.15q0.45-0.15 0.7-0.5l0.15-0.5-0.3-0.25-0.65 0.15-0.6 0.45h-0.25l0.05-0.05q0.25-0.3 0.65-0.45" fill="#fc6" fill-rule="evenodd"/>
<path d="m270.4 168.7 0.55-0.25 0.2-0.55-0.2-0.55-0.55-0.25q-0.3 0-0.5 0.25-0.25 0.2-0.25 0.55t0.25 0.55l0.5 0.25" fill="#35280d" fill-opacity=".61176" fill-rule="evenodd"/>
<path d="m269.75 168.35 0.2 0.15 0.55 0.15 0.3-0.3-0.05-0.35-0.95-0.55 0.45 0.8-0.55-0.55 0.05 0.65" fill="#ecddaa" fill-rule="evenodd"/>
<path d="m269.45 167.9 0.05 0.25 0.1 0.05-0.05 0.05 0.2 0.15v-0.05l-0.05-0.65 0.55 0.55-0.45-0.8 0.95 0.55 0.05 0.05-0.15-0.3-0.25-0.2-0.6-0.4-0.2 0.05h-0.05l-0.2 0.1q-0.1 0.1-0.05 0.15l0.05 0.2 0.1 0.25v0.05h0.05-0.05v-0.05" fill="#d2a94a" fill-rule="evenodd"/>
<path d="m269.45 167.9v0.05-0.05" fill="#b68129" fill-rule="evenodd"/>
<path d="m269.45 167.95h0.05-0.05v-0.05 0.05" fill="#e3ba88" fill-rule="evenodd"/>
<path d="m269.95 168.5 0.6 0.2 0.3-0.35-0.1-0.55-0.5-0.5-0.6-0.15q-0.3 0.05-0.35 0.35l0.1 0.45 0.05 0.05 0.05-0.05h0.1l-0.1-0.5q-0.05-0.2 0.2-0.25l0.45 0.15 0.45 0.5 0.1 0.5-0.2 0.25-0.45-0.15-0.45-0.45h-0.15l0.5 0.5" fill="#fc6" fill-rule="evenodd"/>
<path d="m263.2 164.3 0.55-0.4 0.2-0.9-0.2-0.95q-0.25-0.35-0.55-0.35t-0.5 0.35q-0.25 0.4-0.25 0.95l0.25 0.9q0.2 0.4 0.5 0.4" fill="#35280d" fill-opacity=".61176" fill-rule="evenodd"/>
<path d="m262.55 163.75 0.2 0.25q0.3 0.35 0.55 0.25l0.3-0.45-0.05-0.55-0.95-0.95 0.45 1.3-0.55-0.95 0.05 1.1" fill="#ecddaa" fill-rule="evenodd"/>
<path d="m263.55 163.25 0.05 0.05-0.15-0.45-0.25-0.4-0.6-0.6-0.2 0.05-0.05 0.05-0.2 0.1q-0.1 0.15-0.05 0.3l0.05 0.25 0.1 0.45 0.05 0.35 0.1 0.1-0.05 0.1 0.2 0.25v-0.1l-0.05-1.1 0.55 0.95-0.45-1.3 0.95 0.95m-1.3-0.15v-0.05 0.05l0.05 0.05-0.05-0.05" fill="#d2a94a" fill-rule="evenodd"/>
<path d="m262.25 163.1v-0.05 0.05" fill="#b68129" fill-rule="evenodd"/>
<path d="m262.25 163.05v0.05l0.05 0.05-0.05-0.05v-0.05" fill="#e3ba88" fill-rule="evenodd"/>
<path d="m262.75 164q0.3 0.35 0.6 0.25 0.3-0.05 0.3-0.5l-0.1-0.95-0.5-0.75q-0.3-0.35-0.6-0.25-0.3 0.05-0.35 0.5l0.1 0.75 0.05 0.05h0.05l0.05-0.05h0.05l-0.1-0.75q-0.05-0.35 0.2-0.45l0.45 0.25 0.45 0.75 0.1 0.9q0 0.35-0.2 0.35l-0.45-0.15-0.45-0.8-0.05-0.05h-0.05l-0.05 0.05 0.05 0.05q0.15 0.5 0.45 0.8" fill="#fc6" fill-rule="evenodd"/>
<path d="m256.4 166.05 0.55-0.3 0.2-0.75-0.2-0.75-0.55-0.3-0.5 0.3q-0.25 0.3-0.25 0.75l0.25 0.75 0.5 0.3" fill="#35280d" fill-opacity=".61176" fill-rule="evenodd"/>
<path d="m255.75 165.6 0.2 0.25 0.55 0.2 0.3-0.4-0.05-0.45-0.95-0.8 0.45 1.1-0.55-0.8 0.05 0.9" fill="#ecddaa" fill-rule="evenodd"/>
<path d="m255.45 165.1 0.05 0.25 0.1 0.05-0.05 0.1 0.2 0.2v-0.1l-0.05-0.9 0.55 0.8-0.45-1.1 0.95 0.8 0.05 0.05-0.15-0.4-0.25-0.25-0.6-0.55-0.2 0.1h-0.05l-0.2 0.15-0.05 0.2 0.05 0.2 0.1 0.35v0.05h0.05-0.05" fill="#d2a94a" fill-rule="evenodd"/>
<path d="m255.45 165.05v0.05-0.05" fill="#b68129" fill-rule="evenodd"/>
<path d="m255.45 165.1h0.05-0.05" fill="#e3ba88" fill-rule="evenodd"/>
<path d="m255.95 165.85 0.6 0.15 0.3-0.4-0.1-0.75-0.5-0.65q-0.3-0.25-0.6-0.15l-0.35 0.4 0.1 0.65h0.15l0.05-0.05-0.1-0.6q-0.05-0.25 0.2-0.35l0.45 0.2 0.45 0.6 0.1 0.7-0.2 0.35-0.45-0.15-0.45-0.65-0.05-0.05h-0.05l-0.05 0.05 0.05 0.05 0.45 0.65" fill="#fc6" fill-rule="evenodd"/>
<path d="m267.45 177.1q0.3 0 0.55 0.25l0.2 0.55-0.2 0.55-0.55 0.25q-0.3 0-0.5-0.25-0.25-0.2-0.25-0.55t0.25-0.55q0.2-0.25 0.5-0.25" fill="#35280d" fill-opacity=".61176" fill-rule="evenodd"/>
<path d="m266.8 177.4 0.2-0.15 0.55-0.15 0.3 0.3-0.05 0.35-0.95 0.55 0.45-0.8-0.55 0.55 0.05-0.65" fill="#ecddaa" fill-rule="evenodd"/>
<path d="m266.5 177.85 0.05-0.25 0.1-0.05-0.05-0.05 0.2-0.15v0.05l-0.05 0.65 0.55-0.55-0.45 0.8 0.95-0.55 0.05-0.05-0.15 0.3-0.25 0.2-0.6 0.4-0.2-0.05h-0.05l-0.2-0.1-0.05-0.15 0.05-0.2 0.1-0.25v-0.05h0.05-0.05v0.05" fill="#d2a94a" fill-rule="evenodd"/>
<path d="m266.5 177.85v-0.05 0.05" fill="#b68129" fill-rule="evenodd"/>
<path d="m266.5 177.8h0.05-0.05v0.05-0.05" fill="#e3ba88" fill-rule="evenodd"/>
<path d="m267 177.25q0.3-0.25 0.6-0.2l0.3 0.35-0.1 0.55-0.5 0.5-0.6 0.15-0.35-0.35 0.1-0.45 0.05-0.05 0.05 0.05h0.1l-0.1 0.5q-0.05 0.2 0.2 0.25l0.45-0.15 0.45-0.5 0.1-0.5-0.2-0.25q-0.2-0.05-0.45 0.15l-0.45 0.45h-0.15l0.05-0.05q0.15-0.3 0.45-0.45" fill="#fc6" fill-rule="evenodd"/>
<path d="m262.35 173.55 0.55-0.25 0.2-0.55-0.2-0.55q-0.25-0.25-0.55-0.25t-0.5 0.25q-0.25 0.2-0.25 0.55l0.25 0.55q0.2 0.25 0.5 0.25" fill="#35280d" fill-opacity=".61176" fill-rule="evenodd"/>
<path d="m261.7 173.25 0.2 0.15 0.55 0.15 0.3-0.3-0.05-0.35-0.95-0.55 0.45 0.8-0.55-0.55 0.05 0.65" fill="#ecddaa" fill-rule="evenodd"/>
<path d="m262.7 172.9 0.05 0.05-0.15-0.3-0.25-0.2-0.6-0.4-0.2 0.05h-0.05l-0.2 0.1-0.05 0.15 0.05 0.2 0.1 0.25 0.05 0.25 0.1 0.05-0.05 0.05 0.2 0.15v-0.05l-0.05-0.65 0.55 0.55-0.45-0.8 0.95 0.55m-1.3-0.1v0.05h0.05-0.05v-0.05" fill="#d2a94a" fill-rule="evenodd"/>
<path d="m261.4 172.85v-0.05 0.05" fill="#b68129" fill-rule="evenodd"/>
<path d="m261.4 172.85h0.05-0.05v-0.05 0.05" fill="#e3ba88" fill-rule="evenodd"/>
<path d="m261.9 173.4 0.6 0.2 0.3-0.35-0.1-0.55-0.5-0.5-0.6-0.15q-0.3 0.05-0.35 0.35l0.1 0.45 0.05 0.05 0.05-0.05h0.1l-0.1-0.5q-0.05-0.2 0.2-0.25l0.45 0.15 0.45 0.5 0.1 0.5-0.2 0.25-0.45-0.15-0.45-0.45h-0.15l0.5 0.5" fill="#fc6" fill-rule="evenodd"/>
<path d="m257.9 171.95q0.45 0 0.7 0.25 0.35 0.2 0.35 0.55t-0.35 0.55l-0.7 0.25-0.75-0.25q-0.3-0.2-0.3-0.55t0.3-0.55q0.3-0.25 0.75-0.25" fill="#35280d" fill-opacity=".61176" fill-rule="evenodd"/>
<path d="m256.95 172.25 0.3-0.15 0.75-0.15q0.3 0.05 0.4 0.3l-0.05 0.35-1.3 0.55 0.65-0.8-0.8 0.55 0.05-0.65" fill="#ecddaa" fill-rule="evenodd"/>
<path d="m256.5 172.7 0.15-0.25 0.05-0.05v-0.05l0.25-0.15v0.05l-0.05 0.65 0.8-0.55-0.65 0.8 1.3-0.55 0.15-0.05-0.2 0.3-0.4 0.2-0.85 0.4-0.25-0.05h-0.2l-0.2-0.1-0.1-0.15 0.05-0.2 0.15-0.25 0.05-0.05h0.05-0.05l-0.05 0.05" fill="#d2a94a" fill-rule="evenodd"/>
<path d="m256.5 172.7 0.05-0.05-0.05 0.05" fill="#b68129" fill-rule="evenodd"/>
<path d="m256.55 172.65h0.05-0.05l-0.05 0.05 0.05-0.05" fill="#e3ba88" fill-rule="evenodd"/>
<path d="m257.25 172.1 0.85-0.2q0.4 0.05 0.45 0.35l-0.15 0.55-0.7 0.5-0.9 0.15-0.45-0.35q-0.05-0.2 0.2-0.45v-0.05l0.05 0.05h0.1l-0.15 0.5q0.05 0.2 0.35 0.25l0.6-0.15 0.7-0.5 0.15-0.5-0.3-0.25-0.65 0.15-0.6 0.45h-0.25l0.05-0.05q0.25-0.3 0.65-0.45" fill="#fc6" fill-rule="evenodd"/>
<path d="m281.3 195.7-0.65-0.1-0.6-0.65q-0.3-0.4-0.25-0.85 0-0.45 0.3-0.6l0.6 0.1 0.65 0.65 0.2 0.85-0.25 0.6" fill-opacity=".61176" fill-rule="evenodd"/>
<path d="m279.8 195.1-0.25-0.35-0.15-0.15-0.1-0.3 0.15-0.15v-0.1l0.15-0.15 0.8 0.25 0.45 0.2 0.3 0.35-0.1-0.05-1.3-0.4 1.05 0.95-0.9-0.55 0.5 0.9 0.05 0.1-0.25-0.1-0.05-0.1-0.1-0.1-0.2-0.15 0.05-0.05-0.05 0.05v-0.05l-0.05-0.05" fill="#d2a94a" fill-rule="evenodd"/>
<path d="m279.8 195.1 0.05 0.05-0.05-0.05" fill="#b68129" fill-rule="evenodd"/>
<path d="m279.85 195.15v0.05l0.05-0.05-0.05 0.05v-0.05" fill="#e3ba88" fill-rule="evenodd"/>
<path d="m280.4 195.55-0.5-0.9 0.9 0.55-1.05-0.95 1.3 0.4 0.35 0.45-0.05 0.5-0.6 0.1-0.35-0.15" fill="#9d7431" fill-rule="evenodd"/>
<path d="m281.45 195q0.15 0.4-0.1 0.6l-0.6 0.1-0.85-0.45v-0.05l0.1-0.1h0.05q0.35 0.3 0.8 0.45h0.45v-0.5l-0.55-0.6q-0.35-0.35-0.75-0.45h-0.45q-0.15 0.15 0 0.45l0.4 0.65-0.1 0.1v-0.05l-0.45-0.65q-0.2-0.35 0.05-0.5l0.65-0.1 0.8 0.4 0.55 0.7" fill="#1c1509" fill-rule="evenodd"/>
<path d="m286.8 199q-0.35 0-0.55-0.2-0.25-0.25-0.2-0.55-0.05-0.3 0.2-0.5 0.2-0.25 0.55-0.25 0.3 0 0.5 0.25l0.25 0.5-0.25 0.55q-0.2 0.2-0.5 0.2" fill-opacity=".61176" fill-rule="evenodd"/>
<path d="m287.1 198.4-0.95-0.6 0.45 0.8-0.55-0.55 0.05 0.65v0.05l-0.2-0.15v-0.05l-0.05-0.05-0.05-0.2h0.05-0.1l-0.05-0.25-0.05-0.2q-0.05-0.05 0.05-0.15l0.2-0.05 0.05-0.05 0.25-0.05 0.55 0.4 0.3 0.2 0.1 0.3-0.05-0.05" fill="#d2a94a" fill-rule="evenodd"/>
<path d="m285.8 198.3h-0.05 0.05" fill="#b68129" fill-rule="evenodd"/>
<path d="m285.8 198.3h0.05-0.05" fill="#e3ba88" fill-rule="evenodd"/>
<path d="m287.1 198.4 0.05 0.3-0.3 0.3-0.55-0.15-0.2-0.15-0.05-0.65 0.55 0.55-0.45-0.8 0.95 0.6" fill="#9d7431" fill-rule="evenodd"/>
<path d="m287.25 198.7-0.35 0.3-0.6-0.15-0.5-0.5h0.05l0.1-0.05v0.05l0.5 0.45 0.45 0.15 0.2-0.25-0.15-0.5-0.45-0.45-0.45-0.15-0.2 0.25 0.05 0.45h-0.1l-0.1-0.45q0-0.25 0.3-0.3l0.6 0.15 0.5 0.45 0.15 0.55" fill="#1c1509" fill-rule="evenodd"/>
<path d="m285.75 191.4q-0.1-0.35 0.05-0.6 0.1-0.35 0.35-0.4 0.3-0.2 0.6 0 0.3 0.05 0.45 0.4l-0.05 0.55-0.4 0.45-0.55-0.05-0.45-0.35" fill-opacity=".61176" fill-rule="evenodd"/>
<path d="m286.05 190.15q0.05-0.1 0.2-0.15 0.05-0.1 0.15-0.1l0.15-0.05 0.15 0.15v0.05l0.15 0.2-0.1 0.65-0.1 0.35-0.2 0.25 0.05-0.1 0.15-1.1-0.55 0.75 0.25-0.75-0.55 0.35h-0.05l0.05-0.25 0.1-0.1 0.1-0.05h0.05-0.05l0.05-0.05v-0.05" fill="#d2a94a" fill-rule="evenodd"/>
<path d="m286.05 190.15v0.05-0.05" fill="#b68129" fill-rule="evenodd"/>
<path d="m286.05 190.2-0.05 0.05h0.05-0.05l0.05-0.05" fill="#e3ba88" fill-rule="evenodd"/>
<path d="m285.8 190.65 0.55-0.35-0.25 0.75 0.55-0.75-0.15 1.1-0.3 0.2-0.35-0.15-0.15-0.55 0.1-0.25" fill="#9d7431" fill-rule="evenodd"/>
<path d="m286.25 191.7q-0.25 0.05-0.4-0.2-0.15-0.3-0.15-0.6l0.25-0.65h0.1v0.1l-0.25 0.65 0.1 0.5 0.3 0.05 0.4-0.35 0.25-0.6-0.1-0.45q-0.05-0.2-0.25-0.1-0.25 0-0.4 0.2h-0.1l0.05-0.05 0.35-0.25 0.4 0.1 0.15 0.6-0.25 0.65-0.45 0.4" fill="#1c1509" fill-rule="evenodd"/>
<path d="m280.55 187.8-0.15-0.5-0.05-1.15 0.05-1.15 0.15-0.5 0.15 0.5 0.05 1.15-0.05 1.15-0.15 0.5" fill-opacity=".61176" fill-rule="evenodd"/>
<path d="m280.65 186.45-0.25-1.25 0.1 1.7-0.15-1.2v1.5l-0.05-0.3v-0.7l-0.05-0.55v-0.7l0.05-0.15 0.05-0.05 0.05-0.1 0.15 0.8 0.05 0.5 0.05 0.6v-0.1" fill="#d2a94a" fill-rule="evenodd"/>
<path d="m280.3 186.25v-0.05 0.05" fill="#b68129" fill-rule="evenodd"/>
<path d="m280.3 186.3v-0.05 0.05" fill="#e3ba88" fill-rule="evenodd"/>
<path d="m280.65 186.45v0.7l-0.1 0.6-0.15-0.3-0.05-0.35v-1.4l0.15 1.2-0.1-1.7 0.25 1.25" fill="#9d7431" fill-rule="evenodd"/>
<path d="m280.65 187.1-0.05 0.65-0.2-0.3-0.1-1.05v-0.05l0.05-0.05v0.05l0.1 1 0.15 0.3 0.05-0.55-0.05-1.1-0.1-0.95-0.15-0.3-0.05 0.5v1.05-0.05l-0.05-1 0.1-0.6 0.15 0.3 0.15 1v1.15" fill="#1c1509" fill-rule="evenodd"/>
<path d="m284.8 184.4-0.25-0.55 0.2-0.6q0.25-0.4 0.6-0.4l0.6 0.1 0.2 0.55-0.2 0.65-0.6 0.35-0.55-0.1" fill-opacity=".61176" fill-rule="evenodd"/>
<path d="m284.55 183.05 0.15-0.3 0.05-0.15 0.2-0.15 0.2 0.1 0.05-0.05 0.25 0.1 0.1 0.7 0.1 0.45-0.15 0.3v-0.05l-0.3-1.15-0.25 1-0.05-0.8-0.4 0.6-0.05 0.05-0.05-0.25 0.05-0.05v-0.1l0.1-0.2v0.05-0.05l0.05-0.05h-0.05" fill="#d2a94a" fill-rule="evenodd"/>
<path d="m284.55 183.05h0.05-0.05" fill="#b68129" fill-rule="evenodd"/>
<path d="m284.6 183.05-0.05 0.05v0.05-0.05l0.05-0.05" fill="#e3ba88" fill-rule="evenodd"/>
<path d="m284.5 183.65 0.4-0.6 0.05 0.8 0.25-1 0.3 1.15-0.2 0.3-0.45 0.15-0.35-0.5v-0.3" fill="#9d7431" fill-rule="evenodd"/>
<path d="m285.4 184.4-0.5 0.05-0.4-0.5v-0.8l0.05-0.05v0.05l0.1 0.05q-0.05 0.45 0.05 0.8l0.25 0.4 0.35-0.1 0.25-0.6-0.05-0.7-0.25-0.4-0.35 0.1-0.25 0.45h-0.1v-0.05l0.05-0.05 0.2-0.45 0.5-0.1 0.35 0.5 0.05 0.8-0.3 0.6" fill="#1c1509" fill-rule="evenodd"/>
<path d="m292.25 212.65q0.25 0.15 0.7-0.2l1.05-1.05 0.6-1.35q0.2-0.6-0.05-0.75-0.25-0.2-0.8 0.15l-0.95 1.1-0.7 1.3q-0.1 0.6 0.15 0.8" fill="#35280d" fill-opacity=".61176" fill-rule="evenodd"/>
<path d="m292.2 211.5-0.1 0.5q0 0.6 0.2 0.6l0.65-0.45 0.5-0.7 0.1-1.8-0.8 2 0.4-1.6-0.95 1.45" fill="#ecddaa" fill-rule="evenodd"/>
<path d="m293.45 211.45-0.05 0.1 0.35-0.7 0.15-0.6 0.05-1.15h-0.35l-0.25 0.05-0.3 0.3-0.5 1-0.05 0.05-0.2 0.45-0.05 0.15-0.1 0.15-0.05 0.45 0.1-0.2 0.95-1.45-0.4 1.6 0.8-2-0.1 1.8m-0.95-0.9v-0.05 0.1-0.05" fill="#d2a94a" fill-rule="evenodd"/>
<path d="m292.55 210.45-0.05 0.05v0.05-0.05l0.05-0.05" fill="#b68129" fill-rule="evenodd"/>
<path d="m292.5 210.55v0.05-0.1 0.05" fill="#e3ba88" fill-rule="evenodd"/>
<path d="m292.1 212.05q-0.05 0.6 0.3 0.65 0.25 0.1 0.7-0.5l0.7-1.25 0.35-1.3q0-0.6-0.3-0.65-0.35-0.1-0.75 0.45l-0.6 1.1v0.05l0.1 0.05 0.05-0.05 0.6-1.1q0.35-0.4 0.5-0.35 0.2 0.05 0.2 0.55l-0.3 1.2-0.65 1.25-0.55 0.4q-0.25-0.05-0.15-0.55 0-0.5 0.3-1.25v-0.1h-0.15l-0.05 0.05q-0.3 0.8-0.3 1.35" fill="#fc6" fill-rule="evenodd"/>
<path d="m295.7 204.1 0.7-0.2 1.05-1.05 0.6-1.35q0.2-0.6-0.05-0.75l-0.8 0.15q-0.5 0.4-0.95 1.1-0.5 0.65-0.7 1.3-0.1 0.6 0.15 0.8" fill="#35280d" fill-opacity=".61176" fill-rule="evenodd"/>
<path d="m295.65 202.95-0.1 0.5q0 0.6 0.2 0.6l0.65-0.45 0.5-0.7 0.1-1.8-0.8 2 0.4-1.6-0.95 1.45" fill="#ecddaa" fill-rule="evenodd"/>
<path d="m295.95 201.95-0.2 0.45-0.05 0.15-0.1 0.15-0.05 0.45 0.1-0.2 0.95-1.45-0.4 1.6 0.8-2-0.1 1.8-0.05 0.1 0.35-0.7 0.15-0.6 0.05-1.15h-0.35l-0.25 0.05-0.3 0.3-0.5 1-0.05 0.05v0.1-0.1" fill="#d2a94a" fill-rule="evenodd"/>
<path d="m296 201.9-0.05 0.05v0.05-0.05l0.05-0.05" fill="#b68129" fill-rule="evenodd"/>
<path d="m295.95 202v0.05-0.1 0.05" fill="#e3ba88" fill-rule="evenodd"/>
<path d="m295.55 203.5q-0.05 0.6 0.3 0.65l0.7-0.5 0.7-1.25 0.35-1.3q0-0.6-0.3-0.65-0.35-0.1-0.75 0.45l-0.6 1.1v0.05l0.1 0.05 0.05-0.05 0.6-1.1 0.5-0.35q0.2 0.05 0.2 0.55l-0.3 1.2-0.65 1.25-0.55 0.4q-0.25-0.05-0.15-0.55 0-0.5 0.3-1.25v-0.1h-0.15l-0.05 0.05q-0.3 0.8-0.3 1.35" fill="#fc6" fill-rule="evenodd"/>
<path d="m288.65 207q0.25 0.15 0.7-0.2l1.05-1.05 0.6-1.35q0.2-0.6-0.05-0.75-0.25-0.2-0.8 0.15l-0.95 1.1q-0.5 0.65-0.7 1.3-0.1 0.6 0.15 0.8" fill="#35280d" fill-opacity=".61176" fill-rule="evenodd"/>
<path d="m288.6 205.85-0.1 0.5q0 0.6 0.2 0.6l0.65-0.45 0.5-0.7 0.1-1.8-0.8 2 0.4-1.6-0.95 1.45" fill="#ecddaa" fill-rule="evenodd"/>
<path d="m289.85 205.8-0.05 0.1 0.35-0.7 0.15-0.6 0.05-1.15h-0.35l-0.25 0.05-0.3 0.3-0.5 1-0.05 0.05-0.2 0.45-0.05 0.15-0.1 0.15-0.05 0.45 0.1-0.2 0.95-1.45-0.4 1.6 0.8-2-0.1 1.8m-0.95-0.95v0.1-0.1" fill="#d2a94a" fill-rule="evenodd"/>
<path d="m288.95 204.8-0.05 0.05 0.05-0.05m-0.05 0.1v-0.05 0.05" fill="#b68129" fill-rule="evenodd"/>
<path d="m288.9 204.9v0.05-0.1 0.05" fill="#e3ba88" fill-rule="evenodd"/>
<path d="m288.5 206.4q-0.05 0.6 0.3 0.65 0.25 0.1 0.7-0.5l0.7-1.25 0.35-1.3q0-0.6-0.3-0.65-0.35-0.1-0.75 0.45l-0.6 1.1v0.05l0.1 0.05 0.05-0.05 0.6-1.1q0.35-0.4 0.5-0.35 0.2 0.05 0.2 0.55l-0.3 1.2-0.65 1.25-0.55 0.4q-0.25-0.05-0.15-0.55 0-0.5 0.3-1.25v-0.1h-0.15l-0.05 0.05q-0.3 0.8-0.3 1.35" fill="#fc6" fill-rule="evenodd"/>
<path d="m289.9 208.55q-0.25 0.2-0.7 0l-0.9-0.75q-0.5-0.45-0.6-1-0.2-0.45 0.05-0.7 0.25-0.2 0.75 0l0.95 0.7 0.55 1.05q0.15 0.45-0.1 0.7" fill-opacity=".61176" fill-rule="evenodd"/>
<path d="m288.05 208.05-0.6-0.6-0.2-0.3q-0.05-0.1 0.05-0.25l-0.05-0.1 0.15-0.2 1 0.25 0.5 0.15 0.5 0.35h-0.1l-1.6-0.3 1.5 1-1.2-0.55 0.95 1 0.1 0.05-0.35-0.05-0.1-0.15h-0.15l-0.25-0.25h0.05-0.05l-0.05-0.05h-0.1" fill="#d2a94a" fill-rule="evenodd"/>
<path d="m288.05 208.05h0.1-0.1" fill="#b68129" fill-rule="evenodd"/>
<path d="m288.15 208.05 0.05 0.05h0.05-0.05l-0.05-0.05" fill="#e3ba88" fill-rule="evenodd"/>
<path d="m288.95 208.5-0.95-1 1.2 0.55-1.5-1 1.6 0.3 0.5 0.45 0.15 0.65-0.6 0.2-0.4-0.15" fill="#9d7431" fill-rule="evenodd"/>
<path d="m289.8 207.75q0.3 0.45 0.2 0.7-0.2 0.3-0.65 0.2l-1.1-0.5-0.05-0.05h0.05l0.05-0.1 1.1 0.45 0.5-0.05-0.2-0.55-0.8-0.75-1-0.4-0.55 0.05 0.2 0.55 0.7 0.7v0.1h-0.05l-0.05-0.05-0.7-0.65q-0.35-0.4-0.2-0.65 0.15-0.3 0.65-0.2l1.05 0.4 0.85 0.8" fill="#1c1509" fill-rule="evenodd"/>
<path d="m293.65 205.6q-0.25 0.2-0.7 0l-0.9-0.75q-0.5-0.45-0.6-1-0.2-0.45 0.05-0.7 0.25-0.2 0.75 0l0.95 0.7 0.55 1.05q0.15 0.45-0.1 0.7" fill-opacity=".61176" fill-rule="evenodd"/>
<path d="m293.05 204.4-1.6-0.3 1.5 1-1.2-0.55 0.95 1 0.1 0.05-0.35-0.05-0.1-0.15h-0.15l-0.25-0.25h0.05-0.05l-0.05-0.05h-0.1l-0.6-0.6-0.2-0.3q-0.05-0.1 0.05-0.25l-0.05-0.1 0.15-0.2 1 0.25 0.5 0.15 0.5 0.35h-0.1" fill="#d2a94a" fill-rule="evenodd"/>
<path d="m291.9 205.1h-0.1 0.1" fill="#b68129" fill-rule="evenodd"/>
<path d="m291.95 205.15-0.05-0.05 0.05 0.05h0.05-0.05" fill="#e3ba88" fill-rule="evenodd"/>
<path d="m293.05 204.4 0.5 0.45 0.15 0.65-0.6 0.2-0.4-0.15-0.95-1 1.2 0.55-1.5-1 1.6 0.3" fill="#9d7431" fill-rule="evenodd"/>
<path d="m293.55 204.8 0.2 0.7q-0.2 0.3-0.65 0.2l-1.1-0.5-0.05-0.05h0.05l0.05-0.1 1.1 0.45 0.5-0.05-0.2-0.55-0.8-0.75-1-0.4-0.55 0.05 0.2 0.55 0.7 0.7v0.1h-0.05l-0.05-0.05-0.7-0.65q-0.35-0.4-0.2-0.65 0.15-0.3 0.65-0.2l1.05 0.4 0.85 0.8" fill="#1c1509" fill-rule="evenodd"/>
<path d="m299.4 204.35q-0.25 0.2-0.7 0l-0.9-0.75q-0.5-0.45-0.6-1-0.2-0.45 0.05-0.7 0.25-0.2 0.75 0l0.95 0.7 0.55 1.05q0.15 0.45-0.1 0.7" fill-opacity=".61176" fill-rule="evenodd"/>
<path d="m297.55 203.85-0.6-0.6-0.2-0.3q-0.05-0.1 0.05-0.25l-0.05-0.1 0.15-0.2 1 0.25 0.5 0.15 0.5 0.35h-0.1l-1.6-0.3 1.5 1-1.2-0.55 0.95 1 0.1 0.05-0.35-0.05-0.1-0.15h-0.15l-0.25-0.25h0.05-0.05l-0.05-0.05h-0.1" fill="#d2a94a" fill-rule="evenodd"/>
<path d="m297.55 203.85h0.1-0.1" fill="#b68129" fill-rule="evenodd"/>
<path d="m297.65 203.85 0.05 0.05h0.05-0.05l-0.05-0.05" fill="#e3ba88" fill-rule="evenodd"/>
<path d="m298.45 204.3-0.95-1 1.2 0.55-1.5-1 1.6 0.3 0.5 0.45 0.15 0.65-0.6 0.2-0.4-0.15" fill="#9d7431" fill-rule="evenodd"/>
<path d="m299.3 203.55q0.3 0.45 0.2 0.7-0.2 0.3-0.65 0.2l-1.1-0.5-0.05-0.05h0.05l0.05-0.1 1.1 0.45 0.5-0.05-0.2-0.55-0.8-0.75-1-0.4-0.55 0.05 0.2 0.55 0.7 0.7v0.1h-0.05l-0.05-0.05-0.7-0.65q-0.35-0.4-0.2-0.65 0.15-0.3 0.65-0.2l1.05 0.4 0.85 0.8" fill="#1c1509" fill-rule="evenodd"/>
<path d="m292.1 212.6q-0.25 0.2-0.7 0-0.55-0.2-0.9-0.75l-0.6-1q-0.2-0.45 0.05-0.7 0.25-0.2 0.75 0l0.95 0.7 0.55 1.05q0.15 0.45-0.1 0.7" fill-opacity=".61176" fill-rule="evenodd"/>
<path d="m291.5 211.4-1.6-0.3 1.5 1-1.2-0.55 0.95 1 0.1 0.05-0.35-0.05-0.1-0.15h-0.15l-0.25-0.25h0.05-0.05l-0.05-0.05h-0.1l-0.6-0.6-0.2-0.3q-0.05-0.1 0.05-0.25l-0.05-0.1 0.15-0.2 1 0.25 0.5 0.15 0.5 0.35h-0.1" fill="#d2a94a" fill-rule="evenodd"/>
<path d="m290.35 212.1h-0.1 0.1" fill="#b68129" fill-rule="evenodd"/>
<path d="m290.4 212.15-0.05-0.05 0.05 0.05h0.05-0.05" fill="#e3ba88" fill-rule="evenodd"/>
<path d="m291.5 211.4 0.5 0.45 0.15 0.65-0.6 0.2-0.4-0.15-0.95-1 1.2 0.55-1.5-1 1.6 0.3" fill="#9d7431" fill-rule="evenodd"/>
<path d="m292 211.8q0.3 0.45 0.2 0.7-0.2 0.3-0.65 0.2l-1.1-0.5-0.05-0.05h0.05l0.05-0.1 1.1 0.45 0.5-0.05-0.2-0.55-0.8-0.75-1-0.4-0.55 0.05 0.2 0.55 0.7 0.7v0.1h-0.05l-0.05-0.05-0.7-0.65q-0.35-0.4-0.2-0.65 0.15-0.3 0.65-0.2l1.05 0.4q0.5 0.35 0.85 0.8" fill="#1c1509" fill-rule="evenodd"/>
<path d="m279.25 213.95q-0.25 0.2-0.7 0l-0.9-0.75-0.6-1q-0.2-0.45 0.05-0.7 0.25-0.2 0.75 0l0.95 0.7 0.55 1.05q0.15 0.45-0.1 0.7" fill-opacity=".61176" fill-rule="evenodd"/>
<path d="m277.4 213.45-0.6-0.6-0.2-0.3q-0.05-0.1 0.05-0.25l-0.05-0.1 0.15-0.2 1 0.25 0.5 0.15 0.5 0.35h-0.1l-1.6-0.3 1.5 1-1.2-0.55 0.95 1 0.1 0.05-0.35-0.05-0.1-0.15h-0.15l-0.25-0.25h0.05-0.05l-0.05-0.05h-0.1" fill="#d2a94a" fill-rule="evenodd"/>
<path d="m277.4 213.45h0.1-0.1" fill="#b68129" fill-rule="evenodd"/>
<path d="m277.5 213.45 0.05 0.05h0.05-0.05l-0.05-0.05" fill="#e3ba88" fill-rule="evenodd"/>
<path d="m278.3 213.9-0.95-1 1.2 0.55-1.5-1 1.6 0.3 0.5 0.45 0.15 0.65-0.6 0.2-0.4-0.15" fill="#9d7431" fill-rule="evenodd"/>
<path d="m279.15 213.15q0.3 0.45 0.2 0.7-0.2 0.3-0.65 0.2-0.5-0.1-1.1-0.5l-0.05-0.05h0.05l0.05-0.1 1.1 0.45 0.5-0.05-0.2-0.55-0.8-0.75-1-0.4-0.55 0.05 0.2 0.55 0.7 0.7v0.1h-0.05l-0.05-0.05-0.7-0.65q-0.35-0.4-0.2-0.65 0.15-0.3 0.65-0.2l1.05 0.4 0.85 0.8" fill="#1c1509" fill-rule="evenodd"/>
</g>
</defs>
</svg>
