<?xml version="1.0" encoding="UTF-8"?>
<svg version="1.1" viewBox="0 0 106.76 97.017" xmlns="http://www.w3.org/2000/svg" xmlns:cc="http://creativecommons.org/ns#" xmlns:dc="http://purl.org/dc/elements/1.1/" xmlns:rdf="http://www.w3.org/1999/02/22-rdf-syntax-ns#" xmlns:xlink="http://www.w3.org/1999/xlink">
<metadata>
<rdf:RDF>
<cc:Work rdf:about="">
<dc:format>image/svg+xml</dc:format>
<dc:type rdf:resource="http://purl.org/dc/dcmitype/StillImage"/>
</cc:Work>
</rdf:RDF>
</metadata>
<g transform="translate(-228.56 -146.98)">
<use transform="translate(228.6,147)" width="106.7" height="96.949997" xlink:href="#c"/>
<use transform="translate(305.65,172.75)" width="3.25" height="4.5" xlink:href="#a"/>
<use transform="matrix(-.5 .866 -.866 -.5 298.4 155.85)" width="3.25" height="4.5" xlink:href="#a"/>
<use transform="matrix(-.866 .5 -.5 -.866 318.4 167.3)" width="3.25" height="4.5" xlink:href="#a"/>
<use transform="matrix(.5 .866 -.866 .5 297.5 166.5)" width="3.25" height="4.5" xlink:href="#a"/>
<use transform="translate(317.05,174.9)" width="3.25" height="4.5" xlink:href="#a"/>
<use transform="rotate(-90,248.85,-61.2)" width="3.25" height="4.5" xlink:href="#a"/>
<use transform="matrix(.866 -.5 .5 .866 303.2 165.2)" width="3.25" height="4.5" xlink:href="#a"/>
<use transform="matrix(.866 .5 -.5 .866 306.95 151.85)" width="3.25" height="4.5" xlink:href="#a"/>
<use transform="matrix(.866 -.5 .5 .866 310.65 173.2)" width="3.25" height="4.5" xlink:href="#a"/>
<use transform="matrix(-.7071 .7071 -.7071 -.7071 325.65 172.55)" width="3.25" height="4.5" xlink:href="#a"/>
<use transform="matrix(.5 .866 -.866 .5 295.1 176.9)" width="3.25" height="4.5" xlink:href="#a"/>
<use transform="matrix(.2588 .9659 -.9659 .2588 287.45 162.9)" width="3.25" height="4.5" xlink:href="#a"/>
<use transform="matrix(.5 .866 -.866 .5 332.5 183.6)" width="3.25" height="4.5" xlink:href="#a"/>
<use transform="matrix(.2588 -.9659 .9659 .2588 307.25 162.25)" width="3.25" height="4.5" xlink:href="#a"/>
</g>
<defs>
<g id="c" transform="translate(-228.6,-147)">
<path d="m327.1 167.15q-5.9-1.35-11.25-1 1-4.75 4.2-7.25l7.05 8.25m8.2 14.25q-8.6-9-17.6-11.25 3.2-1.9 12.55 2.1l5.05 9.15m0 10q-6.5-9.25-14.1-16.2 7.65-0.2 14.1 13.55v2.65m-3.75 5.8-4.3 3.95q-3.3-10.5-8.6-24 8 6.15 12.9 20.05m-19.7 11.4-17.1 7.5-2.75 1.15q-7.65-0.75-14.4-4.95l18-9.35q6.75-0.05 15.65-1.75l1.85-26.9q7.35 15.75 3.75 27.65-4.35 3.2-9 3.8-1.05 2.35 4 2.85m-47.8-26.35 7.85-13.2q2.35 0.2 6.55-1.5 12-4.45 27.25-1.25-9.55 7.1-22.65 13.1-2.65 1.5-5.25 1.9l-3.35 0.1q0.15 1.6 0.7 2.95l-9.35 10.7q-1.5-5.65-1.7-12.8v-0.1l-0.05 0.1m13.2-22.95 0.95-1.05q4.85-4.5 12.15-3.45 6.8 0.4 13.6 7.2-13.4-2.85-26.7-2.7m8.75-9.65 6.35-2.65h1.7l6.75 5.6q3.6 3 4.55 7.95-7-7.2-11-9.45l-8.35-1.45m16.1-1.05 11.25 5.05q-0.55 4.05-3.5 7.65l-2.7-6.7-5.05-6m-31.8 32.9q2.85-1.25 0.1-2.7-2.3 0.75-0.75 2.55 0.3 0.3 0.65 0.15m8.15-13.95q1.05 6.35 4.6 11.85-3.55-5.5-4.6-11.85m13.15 21q7.45-12.4 16.8-17.55l-3.4 11.8q-2.75 6.7-6.75 12.4l-6.65-6.65m19.65 12.65 5.6 0.75-5.6-0.75m-30.2-23.65q0.3-0.8-1.3-1.6-2.35 0.7-0.75 2.5l0.65 0.15 0.9-0.45 0.5-0.6m17.9 27.55-0.5 0.25q-1.95 1.7 0.5 2.8l0.95-0.15q2.05-1.95-0.95-2.9m-9.2 3.35q-2.3 0.7-0.7 2.5l0.6 0.15q2.9-1.25 0.1-2.65" fill="#fcf7c1" fill-rule="evenodd"/>
<path d="m320.05 158.9q-3.2 2.5-4.2 7.25 5.35-0.35 11.25 1l3.15 5.1q-9.35-4-12.55-2.1 9 2.25 17.6 11.25v7.35q-6.45-13.75-14.1-13.55 7.6 6.95 14.1 16.2l-3.25 5.45-0.5 0.35q-4.9-13.9-12.9-20.05 5.3 13.5 8.6 24l-15.4 7.45q-5.05-0.5-4-2.85 4.65-0.6 9-3.8l10.4-0.8-10.4 0.8q3.6-11.9-3.75-27.65l-1.85 26.9q-8.9 1.7-15.65 1.75l-3.65-0.1q-3.2-2-4-5.6l10.3-2.05q4-5.7 6.75-12.4l3.4-11.8q-9.35 5.15-16.8 17.55l-8.55-9.15 8.55 9.15q-5.15 2.55-11.9 1.2-3.35-1.95-4.55-5.4-0.55-1.35-0.7-2.95l3.35-0.1q2.6-0.4 5.25-1.9 13.1-6 22.65-13.1-15.25-3.2-27.25 1.25-4.2 1.7-6.55 1.5l5.35-9.7v-0.05q13.3-0.15 26.7 2.7-6.8-6.8-13.6-7.2-7.3-1.05-12.15 3.45l7.8-8.6 8.35 1.45q4 2.25 11 9.45-0.95-4.95-4.55-7.95l-6.75-5.6 8.05 1.6 5.05 6 2.7 6.7q2.95-3.6 3.5-7.65l6.7 5.25m-49.75 22.6q-0.35 0.15-0.65-0.15-1.55-1.8 0.75-2.55 2.75 1.45-0.1 2.7m8.15-13.95-1.2-8.2 1.2 8.2m32.8 33.65-13-6 13 6m-30.2-23.65-0.5 0.6-0.9 0.45-0.65-0.15q-1.6-1.8 0.75-2.5 1.6 0.8 1.3 1.6m17.9 27.55q3 0.95 0.95 2.9l-0.95 0.15q-2.45-1.1-0.5-2.8l0.5-0.25m-16.7-10.5-0.65-0.15q-1.6-1.8 0.7-2.5 2.8 1.4-0.05 2.65m-1.7 10.75q-1.6-1.8 0.7-2.55 2.8 1.45-0.05 2.7l-0.65-0.15m9.2 3.1q2.8 1.4-0.1 2.65l-0.6-0.15q-1.6-1.8 0.7-2.5m-20.05-6.95-0.65-0.15q-1.6-1.8 0.7-2.5 2.8 1.4-0.05 2.65" fill="#640000" fill-rule="evenodd"/>
<path d="m292 217.25-60.4 26.65q-1.95 0.3-2.6-0.75l20.85-13.25 2.2-1.35 0.85-0.55 2.75-1.75 1.25-0.75 0.75 1.2-2-0.45 2 0.45-0.75-1.2 3.2-2.05 1.7-1.1 1.35 1.7-3.05-0.6 3.05 0.6-1.35-1.7 2.8-1.8 1.05-0.65 3.65-2.3 0.3-0.2 0.3 0.4q3.9 1.25 8.15 1.8-4.25-0.55-8.15-1.8l-0.3-0.4 3.65-2.3 4.35-2.8q6.75 4.2 14.4 4.95m-63.3 25.2q-0.25-0.9 0.05-2.35l35.3-57.85h0.05q0.2 7.15 1.7 12.8l-2.6 3.35-2.9 3.7-0.1-3.85 0.1 3.85-2.45 3.1-0.85 1.1 0.2-3.7-0.2 3.7-2.1 2.65v0.05l-1.2 1.55-1.4 1.75-2.3 2.95-1.45 1.85-1.1 1.4-2 2.5-16.75 21.45m34.25-49.1 0.25 5.05-0.25-5.05m-9.2 15.05-0.05 2.15 0.05-2.15m-5.65 8.2 0.45 0.5-0.45-0.5m3.95 11.95 1.25 0.2 0.9 1.6-0.9-1.6-1.25-0.2m4 0.45-2.75-0.25-0.4-0.75 0.4 0.75 2.75 0.25m13.25-11.4 0.6 0.2 1.8 2.55-1.8-2.55-0.6-0.2m4.05 4.35-7-0.9-0.7-1.15 0.7 1.15 7 0.9m-9.5 2.9-0.7-0.8 3.95 0.5-3.95-0.5 0.7 0.8m-4.9 3.5-1.3-1.65 1.95 0.25-1.95-0.25 1.3 1.65m5.65-7.8 1.75 0.5 1.25 1.9-1.25-1.9-1.75-0.5m18.7-3q-5.35-0.75-10.05-2.45 4.7 1.7 10.05 2.45" fill="#f7b967" fill-rule="evenodd"/>
<path d="m295.6 202.95-18 9.35q-8.7-5.45-11.8-17.25l9.35-10.7q1.2 3.45 4.55 5.4 6.75 1.35 11.9-1.2l6.65 6.65-10.3 2.05q0.8 3.6 4 5.6l3.65 0.1m-15.05 2.4 0.65 0.15q2.85-1.25 0.05-2.7-2.3 0.75-0.7 2.55m1.7-10.75q2.85-1.25 0.05-2.65-2.3 0.7-0.7 2.5l0.65 0.15m-12.55 6.9q2.85-1.25 0.05-2.65-2.3 0.7-0.7 2.5l0.65 0.15" fill="#e2cb94" fill-rule="evenodd"/>
<path d="m229 243.15-0.3-0.7 16.75-21.45 2-2.5 1.1-1.4 1.45-1.85 2.3-2.95 1.45 1.65q0.25 4.35 1.45 7.85-2.75-1.25-4.8-2.95l-0.4-3.6 0.4 3.6q2.05 1.7 4.8 2.95-1.2-3.5-1.45-7.85l-1.45-1.65 1.4-1.75 1.2-1.55v-0.05l2.1-2.65q-0.05 2.45 0.3 4.75 2.8 2.2 5.95 3.9-1.35-3.3-2.1-6.75l-3.3-3 3.3 3q0.75 3.45 2.1 6.75-3.15-1.7-5.95-3.9-0.35-2.3-0.3-4.75l0.85-1.1 2.45-3.1 2.9-3.7q0.65 7.3 3.5 13.65-2.95-1.7-5.55-3.85-0.65-3-0.85-6.1 0.2 3.1 0.85 6.1 2.6 2.15 5.55 3.85-2.85-6.35-3.5-13.65l2.6-3.35q3.1 11.8 11.8 17.25l-4.35 2.8q-3.45-1.25-6.55-3.05 3.1 1.8 6.55 3.05l-3.65 2.3-0.3 0.2-3.65 2.3-1.05 0.65-2.8 1.8-1.7 1.1-4.9-1.65q0.7 1.95 1.7 3.7-1-1.75-1.7-3.7l4.9 1.65-3.2 2.05-1.25 0.75-4-1.4q-1-2.9-1.25-6l-1.85-1.75 1.85 1.75q0.25 3.1 1.25 6l4 1.4-2.75 1.75-0.85 0.55q-1.75-0.4-3.35-1.1-0.85-2.3-1-4.8 1.85 1.3 3.95 2.2l1.25 3.15-1.25-3.15q-2.1-0.9-3.95-2.2 0.15 2.5 1 4.8 1.6 0.7 3.35 1.1l-2.2 1.35-20.85 13.25m24.7-32.6q-0.05 1.75 0.05 3.4 2.5 2.65 5.7 4.4 0.95 2.1 2.35 4-1.4-1.9-2.35-4-3.2-1.75-5.7-4.4-0.1-1.65-0.05-3.4m-8.25 10.45 2.25 1.65-0.25-4.15 0.25 4.15-2.25-1.65m9.45-12 2.4 2.05q0.5 3.9 2.15 7.3 2.4 1.35 5.15 2.2-2.75-0.85-5.15-2.2-1.65-3.4-2.15-7.3l-2.4-2.05m-9.9 16.2q1 1 3.7 2.25l1.15 2.45-1.15-2.45q-2.7-1.25-3.7-2.25m21.7-13.15q1.25 2.75 2.9 5.35-1.65-2.6-2.9-5.35m2.6 5.55q-3.15-1.1-6.05-2.65l2.4 4.95-2.4-4.95q2.9 1.55 6.05 2.65" fill="#e6a462" fill-rule="evenodd"/>
<path d="m327.1 167.15-7.05-8.25m15.25 22.5-5.05-9.15m5.05 16.5v2.65m-3.25 5.45-0.5 0.35-4.3 3.95m-15.4 7.45-17.1 7.5m-30.7-33.85 7.85-13.2m14.1-19.4 6.35-2.65m9.75 1.6 11.25 5.05m-30.3 25.75q-3.55-5.5-4.6-11.85m38.4 34.4-5.6-0.75m-19.65-12.65 6.65 6.65" fill="none" stroke="#f7cc6a" stroke-linecap="round" stroke-linejoin="round" stroke-width=".05"/>
<path d="m335.3 188.75v-7.35m-5.05-9.15-3.15-5.1m8.2 24.25-3.25 5.45m-4.8 4.3-15.4 7.45m-39.95-39.55 5.35-9.7v-0.05l0.95-1.05 7.8-8.6m6.35-2.65h1.7l8.05 1.6m11.25 5.05 6.7 5.25m7.2 42.25-10.4 0.8m-39.6-42.65v0.05l1.2 8.2m4.6 11.85 8.55 9.15m16.8-17.55-3.4 11.8m-6.75 12.4 13 6 1.85-26.9m-21.15 28.55 3.65 0.1" fill="none" stroke="#3b0206" stroke-linecap="round" stroke-linejoin="round" stroke-width=".05"/>
<path d="m228.75 240.1 35.3-57.85m0.05-0.1-0.05 0.1" fill="none" stroke="#cf7035" stroke-linecap="round" stroke-linejoin="round" stroke-opacity=".6" stroke-width=".05"/>
<path d="m294.75 216.1-2.75 1.15-60.4 26.65q-1.95 0.3-2.6-0.75l-0.3-0.7q-0.25-0.9 0.05-2.35m35.35-57.85v-0.1m13.5 30.15q6.75 4.2 14.4 4.95m-26.2-22.2q-1.5-5.65-1.7-12.8m13.5 30.05q-8.7-5.45-11.8-17.25" fill="none" stroke="#cf7035" stroke-linecap="round" stroke-linejoin="round" stroke-opacity=".6" stroke-width=".05"/>
<path d="m263.2 198.4-0.25-5.05m-2.75 4.9 0.1 3.85q0.2 3.1 0.85 6.1 2.6 2.15 5.55 3.85-2.85-6.35-3.5-13.65m-6.2 7.9q-0.05 2.45 0.3 4.75 2.8 2.2 5.95 3.9-1.35-3.3-2.1-6.75l-3.3-3m-0.85 1.1 0.2-3.7m9.5 9.45q3.1 1.8 6.55 3.05 4.7 1.7 10.05 2.45m-28.4-8.55v-0.05m-4.9 6.3 0.4 3.6q2.05 1.7 4.8 2.95-1.2-3.5-1.45-7.85l-1.45-1.65m-3.75 4.8 1.85 1.75q0.25 3.1 1.25 6l4 1.4 2 0.45-0.75-1.2q-1-1.75-1.7-3.7l4.9 1.65 3.05 0.6-1.35-1.7q-1.4-1.9-2.35-4-3.2-1.75-5.7-4.4-0.1-1.65-0.05-3.4l0.05-2.15m-5.2 8.7-0.45-0.5m4.8 11.4-1.25-3.15q-2.1-0.9-3.95-2.2 0.15 2.5 1 4.8 1.6 0.7 3.35 1.1m12.55-8q-2.75-0.85-5.15-2.2-1.65-3.4-2.15-7.3l-2.4-2.05m-7.45 9.5 0.25 4.15-2.25-1.65m8.75 9.35-0.9-1.6-1.25-0.2m0.85-0.55 0.4 0.75 2.75 0.25m-6.2 0.9-1.15-2.45q-2.7-1.25-3.7-2.25m24.6-7.8q-1.65-2.6-2.9-5.35m5 8.3-1.8-2.55-0.6-0.2m-3.65 2.3 0.7 1.15 7 0.9m-3.75-4.55 0.3 0.4q3.9 1.25 8.15 1.8m-12.4 0.3-2.4-4.95q2.9 1.55 6.05 2.65m-1.7 5.35-1.25-1.9-1.75-0.5m-5 6.4-1.95-0.25 1.3 1.65m8.15-3.8-3.95-0.5 0.7 0.8" fill="none" stroke="#cf7035" stroke-linecap="round" stroke-linejoin="round" stroke-opacity=".31372" stroke-width=".05"/>
</g>
<g id="a">
<use width="3.25" height="4.5" xlink:href="#b"/>
</g>
<g id="b">
<path d="m0.15 2.65 3.1-2.65v1.65l-3.1 1" fill="#e2c2af" fill-rule="evenodd"/>
<path d="m3.25 1.65v2.85l-3.25-1.75 0.15-0.1 3.1-1" fill="#c4835b" fill-rule="evenodd"/>
<path d="m3.25 1.65v2.85l-3.25-1.75 0.15-0.1 3.1-2.65z" fill="none" stroke="#b93809" stroke-linecap="round" stroke-linejoin="round" stroke-opacity=".56078" stroke-width=".05"/>
</g>
</defs>
</svg>
