<?xml version="1.0" encoding="UTF-8"?>
<svg version="1.1" viewBox="0 0 71.601 49.516" xmlns="http://www.w3.org/2000/svg" xmlns:cc="http://creativecommons.org/ns#" xmlns:dc="http://purl.org/dc/elements/1.1/" xmlns:rdf="http://www.w3.org/1999/02/22-rdf-syntax-ns#" xmlns:xlink="http://www.w3.org/1999/xlink">
<metadata>
<rdf:RDF>
<cc:Work rdf:about="">
<dc:format>image/svg+xml</dc:format>
<dc:type rdf:resource="http://purl.org/dc/dcmitype/StillImage"/>
</cc:Work>
</rdf:RDF>
</metadata>
<g transform="translate(-217.55 -191.68)">
<use transform="translate(217.55,191.7)" width="71.599998" height="49.5" xlink:href="#a"/>
</g>
<defs>
<g id="a" transform="translate(-217.55,-191.7)">
<path d="m289.05 208.85q0.1 3.2-10.5 12.95-10.65 9.7-12.25 8.8-10.05 1.95-21.2 0.9t-22.25-11.8l30.6-25.75q35.9 10.6 35.7 11.15-0.25 0.55-0.1 3.75" fill="#666" fill-opacity=".35294" fill-rule="evenodd"/>
<path d="m252.9 194.85-27.55 20.1q9.6 15.35 37.3 10.95 12.05-9.25 22.85-20.05-12.75-12.35-32.6-11m-1.35-2.7 0.75-0.3q22.5-1.65 36.45 13.1l0.4 0.7-0.1 0.75-7.35 5.9q-7.2 5.45-17.25 16.05l0.05-0.1-0.1 0.1-0.8 0.45q-31.55 5.15-41.55-13.5-0.3-0.5-0.15-1.05 0.1-0.55 0.6-0.9 15.2-10.15 29.05-21.2" fill="#644324" fill-rule="evenodd"/>
<path d="m240.55 201.9 0.05 0.15q0.3 0.5 1.2 0.5 3.15 0 4.3-1.35 0.55-0.65 0.6-1.75l0.8-0.65 0.65-0.85 2.95-1.9 1.35-0.05 0.55-0.3q0.8 0.9 3 0.9 3.3 0 4.25-3.2 11.5 0.85 20.35 6.9l-0.7-0.45q-1.85 1-2.65 1.8-0.5 0.5-0.75 1.25l-0.95-0.1q-3.3 0.1-3.3 4.1l0.4 1.6 0.55 0.9-1.4 1.4q-0.7 1.1-0.8 2.6-1.45 0.4-1.45 2.5v0.2l0.55 0.55q-0.7 0.45-0.85 1.25h-0.05q-1 0-1.6 0.7-0.45 0.5-0.45 0.9l0.05 0.2h-0.3q-1.05 0.05-1.45 0.75v-0.2q0-0.85-0.8-0.85-0.85 0-0.85 0.85l0.1 0.5 0.1 0.2q-1.25 0.1-1.25 1.8l0.05 0.65 0.15 0.25-0.2 0.2q-0.6-3.3-2.9-7.1-12.55-10.85-32.6-5.15l13.3-9.7m24.5 19.2 0.2-0.2-0.05 0.25-0.15-0.05m4.45-1.15h0.05l-0.05 0.05v-0.05" fill="#8f5932" fill-rule="evenodd"/>
<path d="m227.25 211.6q20.05-5.7 32.6 5.15 2.3 3.8 2.9 7.1l0.2 2.1v0.5l-2.05 0.05-0.8-3.5q-2.1-5.35-6.2-7.25l-0.5-0.35-0.55-0.35q-6.85-4.5-19.65-1.7-4.35 0.5-5.65 1.75 4 5.85 11.25 8.8-8.3-1.85-12.45-6.95 3.2 5.35 10.35 8.6 5.4 1.95 12.55 2.9-18.9-0.5-26.2-13.8l4.2-3.05" fill="#dabc7a" fill-rule="evenodd"/>
<path d="m250.35 194.7 0.15 0.4q0.25 0.4 0.75 0.4 0.6 0 1.2-0.5l0.4-0.4 0.8 0.05q0.7 0 1 0.3l1.25 0.25q1.3 0 1.9-0.6 0.4-0.4 0.4-0.95l-0.05-0.35h0.15l0.6 0.05 1.35 0.05q-0.95 3.2-4.25 3.2-2.2 0-3-0.9l-0.55 0.3-1.35 0.05-2.95 1.9-0.65 0.85-0.8 0.65q-0.05 1.1-0.6 1.75-1.15 1.35-4.3 1.35-0.9 0-1.2-0.5l-0.05-0.15 0.7-0.55 0.05 0.05q0.3 0.5 0.85 0.5 1.75 0 2.8-1.5 0.75-1.1 0.75-1.95v-0.3l4.65-3.45m12.65 28.65 0.1 0.45q0.2 0.45 0.75 0.45l0.65-0.4 0.15-0.55q0-0.7-0.8-0.8-0.85-0.05-0.85 0.85m-0.25 0.5 0.2-0.2-0.15-0.25-0.05-0.65q0-1.7 1.25-1.8l-0.1-0.2-0.1-0.5q0-0.85 0.85-0.85 0.8 0 0.8 0.85v0.2q0.4-0.7 1.45-0.75h0.3l-0.05-0.2q0-0.4 0.45-0.9 0.6-0.7 1.6-0.7h0.05q0.15-0.8 0.85-1.25l-0.55-0.55v-0.2q0-2.1 1.45-2.5 0.1-1.5 0.8-2.6l1.4-1.4-0.55-0.9-0.4-1.6q0-4 3.3-4.1l0.95 0.1q0.25-0.75 0.75-1.25 0.8-0.8 2.65-1.8l0.7 0.45 1 0.85q-0.65 0.1-0.65 0.9v0.15l-0.35-0.05q-0.9 0.1-0.9 0.85l0.1 0.45 0.25 0.3q-1.2 0.6-1.2 2.15l0.05 0.2-0.5 0.4-1.5-0.2q-2.05 0.3-2.05 2.1l0.05 0.75q0.2 0.75 1.05 0.75l0.95-0.1-0.05 0.45 0.05 0.45 0.2 0.3 0.05 0.2h-0.1q-0.85 0-0.85 0.9 0 0.4 0.15 0.65-0.2-0.25-0.7-0.25-0.9 0-0.9 0.85l0.1 0.25-0.4-0.15q-0.9-0.15-0.9 0.8l0.15 0.6q0.25 0.6 0.85 0.6l0.05 0.05-0.7 0.6-0.5 0.75q-0.2-0.3-0.65-0.35-0.85-0.05-0.85 0.95l0.05 0.45 0.3 0.35-0.15 0.3-0.65-0.25q-0.85 0-0.85 0.8l0.1 0.45 0.7 0.45-1.6 0.9q-0.05-0.65-0.8-0.65-0.85 0-0.85 0.85l0.05 0.2-0.6-0.15-0.45 0.1q-0.2-0.45-0.8-0.45-0.9 0-0.9 0.8l0.15 0.45q0.25 0.45 0.8 0.45l0.35-0.05v0.05l-0.1 0.1-0.5-0.05q-0.9 0.05-0.9 0.9 0 0.45 0.3 0.65v0.1l-0.2 0.1-1.05 0.9-0.4 0.1q-0.65 0.3-0.95 0.65l-0.2-2.1m2.3-2.75 0.15 0.05 0.05-0.25-0.2 0.2m17.75-18.95h-0.1v-0.05l0.1 0.05m-19.85 24.75 0.35 0.3-0.25 0.2h-0.15l0.05-0.5m13.85-22.2q0.3 0.55 0.75 0.55 0.8 0 0.8-0.85 0-0.95-0.85-1-0.9-0.05-0.9 0.8l0.2 0.5m8.85-0.15 0.5 0.4-0.45-0.35-0.1 0.15v-0.1l0.05-0.1m-4.2-1.65 0.4 0.1 0.15 0.35v0.05h-0.65l0.1-0.45v-0.05m-11.95 17.05v0.05l0.05-0.05h-0.05" fill="#744329" fill-rule="evenodd"/>
<path d="m258.15 193.3 0.05 0.35q0 0.55-0.4 0.95-0.6 0.6-1.9 0.6l-1.25-0.25q-0.3-0.3-1-0.3l-0.8-0.05-0.4 0.4q-0.6 0.5-1.2 0.5-0.5 0-0.75-0.4l-0.15-0.4 1.15-0.8q0.3 0.45 1.1 0.45 1.4 0 1.5-1l0.7-0.05-0.5 0.05 0.05 0.2q0.35 0.5 1.4 0.5 1.15 0 1.4-0.75h1m-12.45 4.85v0.3q0 0.85-0.75 1.95-1.05 1.5-2.8 1.5-0.55 0-0.85-0.5l-0.05-0.05 0.3-0.2q0.2 0.4 0.75 0.4 0.65 0 1.1-0.55l0.35-0.7-0.15-0.65-0.3 0.25 2.4-1.75m17.3 25.2q0-0.9 0.85-0.85 0.8 0.1 0.8 0.8l-0.15 0.55-0.65 0.4q-0.55 0-0.75-0.45l-0.1-0.45m-0.05 2.6q0.3-0.35 0.95-0.65l0.4-0.1 1.05-0.9 0.2-0.1v-0.1q-0.3-0.2-0.3-0.65 0-0.85 0.9-0.9l0.5 0.05 0.1-0.1v-0.05l-0.35 0.05q-0.55 0-0.8-0.45l-0.15-0.45q0-0.8 0.9-0.8 0.6 0 0.8 0.45l0.45-0.1 0.6 0.15-0.05-0.2q0-0.85 0.85-0.85 0.75 0 0.8 0.65l1.6-0.9-0.7-0.45-0.1-0.45q0-0.8 0.85-0.8l0.65 0.25 0.15-0.3-0.3-0.35-0.05-0.45q0-1 0.85-0.95 0.45 0.05 0.65 0.35l0.5-0.75 0.7-0.6-0.05-0.05q-0.6 0-0.85-0.6l-0.15-0.6q0-0.95 0.9-0.8l0.4 0.15-0.1-0.25q0-0.85 0.9-0.85 0.5 0 0.7 0.25-0.15-0.25-0.15-0.65 0-0.9 0.85-0.9h0.1l-0.05-0.2-0.2-0.3-0.05-0.45 0.05-0.45-0.95 0.1q-0.85 0-1.05-0.75l-0.05-0.75q0-1.8 2.05-2.1l1.5 0.2 0.5-0.4-0.05-0.2q0-1.55 1.2-2.15l-0.25-0.3-0.1-0.45q0-0.75 0.9-0.85l0.35 0.05v-0.15q0-0.8 0.65-0.9h0.05l1.05 0.9v0.1h0.1l0.6 0.5-0.05 0.35 0.05 0.45q0.1 0.4 0.55 0.5-1.05 0.3-1.1 1.35-0.9 0.05-0.9 1l0.05 0.1q-0.25-0.3-0.7-0.3-0.9-0.05-0.9 0.9l0.1 0.5q0.2 0.5 0.8 0.5h0.1l-0.3 0.3q-1.8 1.85-1.8 2.95l0.1 0.85-0.05 0.1q-1.35 0-1.35 1l0.1 0.45 0.25 0.3-0.8 0.7q-0.05-0.9-0.95-0.8-0.95 0.1-0.95 0.9l0.15 0.4 0.7 0.4-6.95 6.1-0.45-0.05q-1 0-1.1 0.75h-0.05q-1.2 0.55-1.2 1.5l0.05 0.25-1.75 1.55h-0.05l-1.7 1.55-0.35-0.3v-0.95m13.85-21.25-0.2-0.5q0-0.85 0.9-0.8 0.85 0.05 0.85 1 0 0.85-0.8 0.85-0.45 0-0.75-0.55m7.95-0.9 0.3 0.25-0.25-0.2h-0.15l0.1-0.05m1.4 1.15 0.75 0.65-1.2-1 0.45 0.35m-4.7-2.05v0.05l-0.1 0.45h0.65v-0.05l-0.15-0.35-0.4-0.1m0.7 4.15v-0.1l0.05 0.05-0.05 0.05" fill="#593320" fill-rule="evenodd"/>
<path d="m257.15 193.3q-0.25 0.75-1.4 0.75-1.05 0-1.4-0.5l-0.05-0.2 0.5-0.05h2.35m-3.05 0.05q-0.1 1-1.5 1-0.8 0-1.1-0.45l0.6-0.45 0.2-0.05h0.6l0.45-0.05h0.75m-10.8 6.55 0.3-0.25 0.15 0.65-0.35 0.7q-0.45 0.55-1.1 0.55-0.55 0-0.75-0.4l1.75-1.25m23.5 24.2-0.05-0.25q0-0.95 1.2-1.5h0.05q0.1-0.75 1.1-0.75l0.45 0.05-2.75 2.45m9.7-8.55-0.7-0.4-0.15-0.4q0-0.8 0.95-0.9 0.9-0.1 0.95 0.8l-1.05 0.9m1.85-1.6-0.25-0.3-0.1-0.45q0-1 1.35-1l0.05-0.1-0.1-0.85q0-1.1 1.8-2.95l0.3-0.3h-0.1q-0.6 0-0.8-0.5l-0.1-0.5q0-0.95 0.9-0.9 0.45 0 0.7 0.3l-0.05-0.1q0-0.95 0.9-1 0.05-1.05 1.1-1.35-0.45-0.1-0.55-0.5l-0.05-0.45 0.05-0.35 1.35 1.15-0.1 0.05h0.15l0.25 0.2 0.6 0.5-0.05 0.1v0.1l0.1-0.15 1.2 1 0.45 0.45-9 7.9m3.8-6.9 0.05-0.05-0.05-0.05v0.1" fill="#351f13" fill-rule="evenodd"/>
<path d="m262.95 226.45v0.45l-0.05 0.5-13.65 1.05q-7.15-0.95-12.55-2.9-7.15-3.25-10.35-8.6 4.15 5.1 12.45 6.95 6.95 2.85 16.9 3.05l4.25-0.25q-1.5-7.35-6.05-10.95 4.1 1.9 6.2 7.25l0.8 3.5 2.05-0.05" fill="#a47939" fill-rule="evenodd"/>
<path d="m267.3 213.95q-3.2-8.05-10.15-17.9 9.05 4.95 10.15 17.9m-14.5-1.95q1.05-8.45-1.65-16.1 6.7 6.8 1.65 16.1" fill="#dabc7a" fill-rule="evenodd"/>
<path d="m253.9 215.75q4.55 3.6 6.05 10.95l-4.25 0.25q-20.4-0.45-28.15-11.85 1.3-1.25 5.65-1.75 12.8-2.8 19.65 1.7l1.05 0.7" fill="#382614" fill-rule="evenodd"/>
<path d="m272 211.7q-14.75-3.5-32.35-6.4 19.2 0.5 32.35 6.4m2.45-9.75q-12-1.75-28.3-1.6 14.3-2.95 28.3 1.6" fill="#dabc7a" fill-rule="evenodd"/>
<path d="m263.05 227.4-13.8 1.05q-18.9-0.5-26.2-13.8l29.05-21.2q21.75-1.6 35.25 12.6l-24.2 21.25-0.1 0.1" fill="none" stroke="#000" stroke-linecap="round" stroke-linejoin="round" stroke-opacity=".4" stroke-width=".05"/>
<path d="m253.65 212.55q8.6 5 8.7 13.9m-8.45-10.7q4.55 3.6 6.05 10.95l-4.25 0.25q-15.95 0.5-26.3-6.8l-4.8-5.05q5.85-6.95 24.5-4.5m6.6 16.35q-20.4-0.45-28.15-11.85 1.3-1.25 5.65-1.75 12.8-2.8 19.65 1.7" fill="none" stroke="#000" stroke-linecap="round" stroke-linejoin="round" stroke-opacity=".2" stroke-width=".05"/>
<path d="m241.85 213.9-0.3 0.1-0.05 0.1-0.75 0.2-0.05 0.05q-0.05-0.45-0.3-0.6 0.35-0.2 0.75-0.25l0.55 0.3 0.15 0.1m-2.25 0-0.05 0.1-0.55-0.05-0.05-0.15 0.65 0.1m-2.2-0.05v0.1l0.2 0.45-0.05 0.15 0.1 0.35 0.1 0.15-0.4 0.2q-1.25 0.75-1.25 1.15l0.25 0.55-0.4 0.05-0.45-0.35 0.05-0.3q0-0.55-0.65-0.6 0.45-0.1 0.45-0.8v-0.25q0.2 0.3 0.95 0.3l0.65-0.3 0.15-0.4-0.05-0.35-0.1-0.1h0.45m1.95 1.3 0.2-0.05 0.25 0.2 0.1 0.35 0.5 0.15 0.7-0.5 0.5-0.55 0.55 0.1 0.45-0.1 0.45 0.1h0.15l0.9 0.05q0.55-0.05 0.6-0.5h0.1l0.45-0.1v0.05l0.1 0.3 0.2 0.15h1.65l0.95 0.05h0.05l-0.55 0.15-0.45 0.15-0.7-0.05q-0.5 0.1-0.5 0.5 0 0.45 0.85 0.4 0.7-0.05 0.8-0.45l0.1 0.1q0.45 0.4 1 0.35h0.05v0.1l-0.25-0.05q-0.65 0-0.65 0.55v0.05l-1.25 0.05q-1.65 0.25-1.65 0.7l0.2 0.35 1.4 0.05 1.2-0.15-0.05 0.55v0.55q-0.4 0.45-2.35 0.55-0.25 0.05-1.1-0.3l-0.9-0.3-0.45 0.25 0.15-0.55q0-0.6-0.8-0.35l-0.1 0.05 0.05-0.1 0.35-0.85 0.5-0.15-0.05 0.15q0 0.5 0.6 0.5 0.6-0.05 0.6-0.6l-0.1-0.25 0.1-0.05 0.25-0.25 0.35 0.05q0.85-0.05 0.85-0.6t-0.7-0.4q-0.5 0.1-0.6 0.35l-0.4-0.1-0.2 0.05v-0.1q0-0.55-0.8-0.7l-0.05 0.05h-0.2l-0.6-0.05h-0.15l-0.2 0.05-0.5 0.35-0.05 0.2 0.1 0.25 0.55 0.2 0.5-0.15 0.05 0.05 0.2 0.15h-0.05q-0.65 0.05-0.65 0.5v0.05l-0.2 0.15q-0.25-0.4-0.9-0.35l-0.55 0.1-0.1 0.2-0.35 0.2-0.95 0.15-0.2 0.35 0.15 0.4q0.15 0.25 0.55 0.3l-0.05 0.05q0 0.5 0.75 0.45l0.5-0.05 0.4 0.15 0.45-0.1 0.1 0.3 0.85 0.2 0.45-0.2-0.05 0.15-0.45 0.3-0.1 0.05q-0.25-0.25-0.85 0-0.95 0.4-0.95 0.75l0.1 0.25 0.15 0.1-0.05 0.15 0.25 0.4 0.6 0.4 0.2-0.05 0.1 0.2-0.05 0.05-0.65-0.05-0.15 0.05-0.4-0.05-0.45-0.1h-0.9l-0.45-0.3 0.05-0.1h0.4q1.05-0.05 1.05-0.6 0-0.3-0.4-0.35h-0.25l0.4-0.25 0.45-0.55q0-0.6-0.45-0.4l-1 0.35-0.45-0.15q-0.55 0.05-0.55 0.6l0.05 0.35 0.1 0.05-0.1 0.3v0.05l-0.5 0.15h-0.25l-0.5 0.1-1-0.05q-0.25-0.05-0.25 0.45l0.05 0.1h-0.2l-0.25-0.15 0.35-0.3q-0.25 0.35-0.6 0.35h-0.05q-0.6 0-0.6-0.75l0.25 0.05 0.1 0.1 0.25 0.15 0.5-0.25 0.15 0.15-0.3-0.4h0.55q0.55-0.05 0.55-0.7l-0.15-0.35h0.1l0.5-0.3 0.25-0.45h0.15l0.1 0.3q0.2 0.25 0.65 0.2 0.65-0.05 0.65-0.55 0-0.4-0.5-0.4v-0.2q-0.1-0.45-0.7-0.4-0.75 0.05-0.75 0.6v0.05h-0.25q-0.7 0.1-0.7 0.7l0.2 0.4-0.25-0.05v-0.15l-0.3-0.4 0.2-0.2 0.3-0.5-0.05-0.3 0.4 0.05 0.75-0.25 0.25-0.2 0.5 0.05 0.5-0.05 0.2-0.05q0.95-0.05 0.95-0.65v-0.15l-0.5-0.2 0.4-0.3 0.15-0.5v-0.2m9.8 1.65 0.35 0.05h0.25v0.05l0.1 0.25q0.15 0.25 0.45 0.2h0.1l-0.1 0.45 0.1 0.5 0.25 0.2-0.15 0.05q-0.75 0.5-0.75 0.95l0.1 0.3 0.15 0.15-0.1 0.15-0.8 0.65q-0.45 0.1-0.45 0.5l0.1 0.2 0.35 0.25-0.3-0.1-0.5-0.05-0.5-0.2-0.7 0.1-0.45 0.05v0.15l-0.15 0.5v0.05l1 0.2h0.35l0.1 0.05-0.05 0.15 0.25 0.5 0.2 0.2-0.2 0.05q-0.05-0.6-0.75-0.25l-0.8 0.7v0.15q0.35 0.05 0.5 0.25l0.1 0.25-0.3 0.5-0.3 0.05-0.55-0.15h-0.25q-0.4 0-0.55-0.25l-0.05-0.25 0.1-0.4v-0.05q0-0.3-0.5-0.45l0.3-0.4 0.45-0.65q-0.05-0.5-0.35-0.55l0.1-0.2q0.4-0.45 0.75-0.5l-0.4-0.5 0.1-0.05 0.4 0.05 0.35 0.2h1.3l0.5 0.15q0.5-0.05 0.65-0.6 0.8 0.1 0.8-1.15v-0.5q0.45-0.05 0.45-0.5 0-0.4-0.35-0.9-0.45-0.4-0.75-0.25l0.05-0.3m2.15 1.85q0.4-0.15 0.4-0.5 0-0.7-0.65-0.95h-0.25l0.25-0.25 0.2-0.4q0-0.5-0.55-0.45-0.3 0-0.65 0.3v-0.1q0.05-0.65-0.6-0.6h-0.2l0.1-0.2-0.4-0.6 0.5-0.05q0.6-0.05 0.75-0.4l2.15 1.1 0.1 0.85q0.55 0.6 0.6 1.65l-0.45-0.1q-0.6 0.05-0.6 0.5l0.15 0.35q0.25 0.25 0.65 0.25 0.5-0.05 0.5-0.55l-0.15-0.35q1.1 0.4 1.35 2.1 2.1 0 2.1 1.85l-0.3 0.95h0.1l0.3 0.15 0.15-0.05q0.5 0 1.55 2.05l0.55 0.3q1.1 0.85 1.1 1.2 0 0.6-0.65 0.6h-0.05l0.3-0.6-0.3-0.5-0.65-0.2h-0.1q-0.2-0.3-0.7-0.4l-0.55 0.05-0.55-0.1h-0.1l-0.4-0.1-0.35-0.05v-0.4l0.05-0.35q0-0.75-0.8-0.5l-0.5 0.25-0.05-0.1 0.05-0.25-0.2-0.35 0.35-1.25q0-1.2-0.7-1.7l0.15-0.6q0-0.95-0.65-0.75-0.5 0.1-0.65 0.9l-0.55-0.1q-0.05-0.15-0.25-0.2l0.1-0.25q0-0.55-0.65-0.6l-0.45 0.15 0.1-0.5v-0.15m5 8.8-1.35-0.1 0.65-0.35 0.3-0.2 0.25 0.05-0.05 0.15 0.1 0.35 0.1 0.1m-15.5-0.75h-0.2l-0.55-0.15-0.25-0.1 0.2-0.15 0.45-0.7v-0.05l0.15 0.05q-0.15 0.15-0.15 0.4l0.25 0.55 0.1 0.15m-2.55-0.25-0.6 0.1q-0.45 0-0.65-0.3l-0.1-0.35 0.05-0.15 0.25-0.15 0.45-0.35h0.05v-0.05l0.05-0.15h0.2q0.95 0 0.95-0.7-0.05-0.6-0.7-0.6-0.8 0-0.85 0.6l-0.2-0.05-1.35 0.3-0.15-0.05 1-0.55 0.8-0.75q-0.1-0.6-0.6-0.6l-0.45 0.1 0.1-0.35 0.1-0.1h0.2l0.55-0.35v0.2q-0.3-0.05-0.45 0.15l0.65 0.05 1.15-0.45q0.35-0.15 0.45 0.2h-0.35q-1 0.15-1 0.85 0 0.65 0.6 0.65 1.2 0 1.35-0.5 0.35 0.1 0.35 1.15l-0.4 0.8h0.05l-0.45 0.1q-1.2 0.45-1.2 0.85l0.15 0.45m-4.65-4.95-0.5-0.4h0.15q0.55 0 0.75-0.35l0.35 0.45-0.3-0.05q-0.4 0-0.45 0.35m-0.9-0.5h-0.25l-0.45-0.3 0.4-0.15 0.3 0.45m-1.35-1.25-0.15-0.4 0.1-0.45 0.1-0.1q0.15-0.05 0.5 0.2l0.2 0.15 0.35 0.4h-0.05l-0.8 0.2h-0.25m0.2-1.25h-0.4l-0.65 0.15h-0.05l0.15-0.2 0.2-0.5 0.05-0.05 0.15 0.3 0.5 0.2 0.05 0.1m-1.9-2.35 0.25-0.15 0.45-0.1-0.45 0.25h-0.25m2.3-0.55 0.3-0.05 0.05 0.15-0.35-0.1m2.9-1.45 0.4-0.1-0.05 0.2v0.15l-0.35-0.25m8.25 2.25v-0.05h0.05l-0.05 0.05m3.85 1.9q0-0.55-1.25-0.45-0.85 0.05-0.85 0.55l0.05 0.3q0.2 0.25 0.6 0.2l0.3-0.1 0.6 0.05q0.55-0.05 0.55-0.55m-9.9-1.35 0.8-0.5 0.45-0.35 0.35 0.05h0.15v0.15q0 0.55-0.4 0.65h-1.35m5.1 4.05q0.2-0.55 0.45-0.55l0.45 0.1 0.35-0.1 1.4 0.35-0.1 0.3 0.1 0.3-0.75-0.15h-0.45q0.05-0.4-0.9-0.35l-0.55 0.1m-2.4 2.05 0.35-0.05 0.5-0.05v0.1q-0.2 0.05-0.35 0.2l-0.4-0.2h-0.1m2.8-0.1 0.05-0.35q0-0.55-0.6-0.55l-0.25 0.05 0.1-0.25 0.05-0.05 0.55-0.2 0.8 0.15 0.15 0.15 0.4 0.2 0.35 0.1v0.1l0.15 0.3-0.4 0.05h-0.1q-0.5 0-0.65 0.25l-0.3 0.15-0.3-0.1m-1.1-0.3-0.05-0.05q0-0.2 0.15-0.3l-0.1 0.35m1.1 2.1h0.5l-0.5-0.2-0.1-0.2-0.05-0.2q0-0.5 1-0.55h0.3l0.45 0.05 0.65 0.2q0.4 0.1 0.4 0.7l-0.1 0.4 0.75 0.35 1.1-0.25 0.6-0.15 0.4 0.1 0.2 0.5-0.1 0.3 0.5-0.2 0.95-0.25q0.65 0 0.65 0.6l-0.3 0.3 0.5 0.55q0 0.6-0.8 0.6l-1.05-0.25-0.25 0.15v0.05q0 0.6-0.8 0.6h-0.3l-0.15 0.05q-0.65 0-0.65-0.65 0-0.4 1.1-1.15l-1.65 0.3-0.7-0.15-1.05-0.15q-1.85 0-2.1-0.65l-0.15 0.05-0.05 0.05-0.1-0.05 0.3-0.1-0.05-0.2q0-0.5 0.65-0.55m6.25-1.2-0.15-0.2h0.3q0.55-0.05 0.55-0.5l-0.15-0.35h0.1l0.35-0.1 0.2-0.1 0.35-0.45v-0.1q0-0.4 0.25-0.5l0.3-0.15q0.75-0.05 0.7 0.95v0.2q0.35 0.05 0.35 0.5l0.2-0.2-0.35-0.4-0.1-0.45q0-0.55 0.65-0.45h0.15v0.4l0.45 0.3v0.1l-0.1 0.35 0.15 0.4 0.25-0.05q0.55 0.05 0.55 0.5 0 0.6-0.55 0.6-0.45 0.05-0.6-0.25l-0.25 0.05-0.05 0.05-0.15 0.2v0.05l0.4-0.1q0.55 0.05 0.6 0.4 0.5 0.1 0.5 0.45 0 0.5-0.6 0.55h-0.25l-0.45-0.3v-0.05l-0.3-0.2-0.1-0.35v-0.05l-0.5 0.15h-0.15l-0.25-0.05v0.1l-0.3 0.4-0.3 0.05-0.55-0.25v-0.2l-0.4 0.1h-0.1l-0.45 0.15-0.5-0.15-0.2-0.3 0.3-0.45 0.3-0.25-0.1-0.05m-16.6-4.95 0.3-0.2 0.2-0.45v-0.25l0.8-0.65 0.2-0.2 0.2 0.15-0.2 0.5 0.1 0.45 0.15 0.25-0.35 0.05h-0.15l-0.3 0.1h-0.1l-0.2 0.15-0.45 0.2-0.2-0.1m0.8 0.4 0.35-0.3v0.05q0.1 0.25 0.5 0.2l0.35-0.05-0.1 0.35 0.05 0.25 0.5 0.15h0.25l-0.2 0.35-0.15-0.1-0.55-0.1-0.45-0.2-0.35 0.05-0.1-0.1v-0.15l-0.1-0.4m4 4.9h0.05v-0.05h-0.05v0.05m-2.35 2.65q-0.05-0.8-0.7-0.8-0.55 0-1.05 0.55l-0.4 0.6q0 0.6 0.55 0.6v0.15q0.15 0.3 0.7 0.3l0.8-0.15-1.1 0.3q-0.65 0-1-0.45l-0.2-0.55q0-1.5 1.5-1.5 1.3 0 1.25 1.25v0.15q-0.05-0.4-0.35-0.45m0.35 2.9 0.05 0.15q0.1 0.3 0.55 0.3l0.35-0.1 0.2 0.1h0.2l0.15 0.35q0.2 0.4 0.55 0.4l-0.45 0.05q-1.6 0-1.6-1.1v-0.15m1.75-0.2q-0.05-0.6-0.8-0.6l-0.55 0.1q0.35-0.25 1-0.2 1.4 0.1 1.4 1.15l-0.3 0.75 0.1-0.4q0-0.7-0.6-0.8h-0.25m-0.25 2.55-0.2 0.45v0.15l-0.65-0.15q-1 0-1 0.55 0 0.65 0.95 0.65t0.95-0.6v-0.05l0.35 0.05 0.8-0.3 0.35-0.55q0-0.55-0.75-0.55-0.55 0-0.8 0.35m0.9 1.2q-0.65-0.05-0.65 0.65l0.05 0.3 0.1 0.15h-0.15l-2.05 0.2q-0.3 0.15-0.3 0.5l0.05 0.3q0.1 0.3 0.55 0.3l2-0.2 0.35-0.55-0.15-0.4h0.15q0.65 0 0.65-0.6t-0.6-0.65m-0.4-1.55q1.3-0.15 1.3 1.05l-0.25 0.85 0.1 0.15 0.4 0.9q0 0.75-0.45 1.05l-2.5 0.45q-1.55 0-1.9-0.6l-0.05-0.25-0.75-0.5-0.15-0.55q0-0.85 1.05-1.2l0.25-0.5q0.45-0.6 1.2-0.6 0.55 0 0.8 0.3 0.35-0.45 0.95-0.55m-3.1 1.85q-0.65 0-0.65 0.5l0.1 0.4q0.15 0.35 0.6 0.35 0.55 0 0.55-0.65 0.05-0.6-0.6-0.6m9.95-3.95 0.15-0.35q0-0.55-0.6-0.55-0.35 0-0.6 0.3l-0.2 0.4v0.15q-0.15 0.1-0.15 0.35 0 0.8 1.05 0.8l0.45-0.25 0.15-0.35-0.25-0.5m0.85-0.2-0.35 0.95q-0.35 0.55-0.95 0.55-1.1 0-1.1-1.3 0-0.45 0.3-0.8 0.35-0.45 1.1-0.45 0.95 0 1 1.05m-4.1 2.95q0.2-0.55 1.15-0.55l0.65-0.1 0.15-0.45-0.05-0.35q0.4 0.3 0.4 0.95 0 0.5-0.6 1.1-0.75 0.8-1.85 0.8-0.95 0-1.3-0.7l-0.15-0.7q0-1.5 1.95-1.7h0.85q-2.4 0.05-2.4 1.6 0 0.6 0.6 0.6l0.3-0.05-0.05 0.1 0.05 0.3q0.1 0.3 0.55 0.3 0.4 0 0.8-0.35l0.35-0.6q0-0.8-0.85-0.5l-0.55 0.3m0.2 3.9-0.15-0.55q0-1 1.2-1.2 1.2-0.25 1.2 0.95l-0.45 0.85q-0.4 0.45-0.9 0.45-0.65 0-0.9-0.5m6.15-2.45q0-1 1.05-1.05t1.05 1-1.05 1.05q-0.65 0-0.9-0.5l-0.15-0.5m4.1-14v0.15l-0.1-0.1 0.1-0.05m0.05 0.35 0.05 0.1 0.3 0.25-0.1 0.05-0.3 0.05 0.05-0.4v-0.05m-0.7 3.95h0.1q0.45 0 0.6 0.35l0.25-0.1q-0.65-0.1-0.65-0.65l0.05-0.15-0.05-0.05-0.1-0.05 0.05 0.15-0.45 0.05q0.2 0.15 0.2 0.45m-2.2 10.5q0.7 0 0.7-0.65 0-0.6-0.6-0.55-0.65 0.05-0.65 0.6 0 0.6 0.55 0.6m6.2-8.4-0.05 0.05-0.2-0.05q-0.6 0-0.6 0.55v0.05l-0.3 0.4v0.05q-0.15-0.35-0.6-0.3-0.65 0.05-0.65 0.6l0.1 0.35 0.05 0.05-0.75 0.25q-0.4 0-0.55-0.3l-0.1-0.35 0.15-0.15-0.55-0.4-0.15-0.4q0-0.75 0.75-0.55l0.45 0.2 0.7-0.1q0.95-0.8 1.05 0.15l0.2-0.15q0.5-0.4 0.9-0.4l0.4 0.1 0.05-0.05 0.15 0.2-0.45 0.2m7 7.45q-0.35 0.55-1.05 0.55-1.2 0-1.2-1.05 0-1.3 1.25-1.35 1.25-0.1 1.25 1.05l-0.25 0.8m-0.45-0.7 0.15-0.55q0-0.55-0.7-0.5t-0.7 0.6l0.2 0.45-0.05 0.25 0.1 0.35q0.15 0.3 0.6 0.3 0.5 0 0.5-0.55l-0.1-0.35m-41.8-9.1v-0.05q0-0.8-0.65-0.5-0.7 0.25-0.7 0.85t0.6 0.6h0.15v0.1l0.25 0.55h-0.25q-0.7 0-0.9-0.55l-0.1-0.55q0-1.3 1.15-1.2 1.1 0.1 1.1 1.15l-0.05 0.3q-0.05-0.7-0.6-0.7m4.75 3.45q1.15 0 1.15 1.05 0 0.4-0.75 1.1-0.8 0.85-1.65 0.85-1.05 0-1.5-0.9-0.3-0.55-0.3-1.05 0-1.05 0.6-1l1.35 0.3 1.1-0.35m-0.3 1.55 0.45 0.15q0.85 0 0.85-0.7 0-0.55-0.6-0.55-0.9 0-0.9 0.65l0.05 0.25-0.05-0.05-0.85 0.1-0.75 0.2-0.25 0.3q0 0.8 1 0.8 0.55 0 0.85-0.4l0.2-0.55v-0.2m-1.05-1.05q-0.3-0.3-0.75-0.3-0.6 0-0.6 0.55 0 0.7 0.9 0.7 0.65 0 0.65-0.55l-0.2-0.4m15.5 12.35-0.05 0.2q0 0.6 0.85 0.6 1.25 0 1.25-0.75 0-0.6-0.55-0.6h-0.25l-0.2-0.35q-0.3-0.35-0.95-0.35-0.7 0-0.7 0.55 0 0.5 0.6 0.7m2.3 0.2q0 1.1-1.2 1.1-1.1 0-1.75-0.6-0.45-0.4-0.45-0.8 0-1.3 1.7-1.25t1.7 1.55" fill="#632e2e" fill-rule="evenodd"/>
<path d="m237.75 215.05 0.45-0.1q0.15-0.25 0.55-0.25 0.55 0 0.6 0.45v0.2l-0.15 0.5-0.4 0.3h-0.15l-0.35-0.05-0.45 0.35-0.8 0.5-0.35 0.1-0.35-0.1-0.25-0.55q0-0.4 1.25-1.15l0.4-0.2m11.05 1.05q0.35 0.15 0.35 0.65v0.05l-0.05 0.3q0.3-0.15 0.75 0.25 0.35 0.5 0.35 0.9 0 0.45-0.45 0.5v0.5q0 1.25-0.8 1.15-0.15 0.55-0.65 0.6l-0.5-0.15h-1.3l-0.35-0.2-0.4-0.05-0.1 0.05-0.15 0.05-0.4 0.1h-0.3l-1.4-0.35-0.35 0.1-0.45-0.1q-0.25 0-0.45 0.55l-0.45 0.5-0.2 0.05-0.6-0.4-0.25-0.4 0.05-0.15-0.15-0.1-0.1-0.25q0-0.35 0.95-0.75 0.6-0.25 0.85 0l0.1-0.05 0.45-0.3 0.05-0.15-0.45 0.2-0.85-0.2-0.1-0.3-0.45 0.1-0.4-0.15-0.5 0.05q-0.75 0.05-0.75-0.45l0.05-0.05q0.15-0.55 1.5-0.65h0.15l0.45-0.5 0.25-0.2 0.2-0.15v-0.05q0-0.45 0.65-0.5h0.05l-0.2-0.15-0.05-0.05-0.5 0.15-0.55-0.2-0.1-0.25 0.05-0.2 0.5-0.35 0.2-0.05h0.15l0.6 0.05h0.2l0.05-0.05q0.8 0.15 0.8 0.7v0.1l0.2-0.05 0.4 0.1q0.1-0.25 0.6-0.35 0.7-0.15 0.7 0.4t-0.85 0.6l-0.35-0.05-0.25 0.25-0.1 0.05 0.1 0.25q0 0.55-0.6 0.6-0.6 0-0.6-0.5l0.05-0.15-0.5 0.15-0.35 0.85-0.05 0.1 0.1-0.05q0.8-0.25 0.8 0.35l-0.15 0.55 0.45-0.25 0.9 0.3q0.85 0.35 1.1 0.3 1.95-0.1 2.35-0.55v-0.55l0.05-0.55-1.2 0.15-1.4-0.05-0.2-0.35q0-0.45 1.65-0.7l1.25-0.05v-0.05q0-0.55 0.65-0.55l0.25 0.05m1.85 2.4q0.6-0.35 0.65 0.15v0.15l-0.1 0.5-0.1 0.15-0.05 0.1-0.1 0.05 0.1 0.1 0.05 0.2v0.05l-0.05 0.4 0.3-0.05-0.05 0.25 0.05 0.3q0.2 0.3 0.6 0.25 0.5-0.05 0.5-0.65v-0.25l0.55 0.1q0.15-0.8 0.65-0.9 0.65-0.2 0.65 0.75l-0.15 0.6q0.7 0.5 0.7 1.7l-0.35 1.25 0.2 0.35-0.05 0.25 0.05 0.1 0.5-0.25q0.8-0.25 0.8 0.5l-0.05 0.35v0.4l0.35 0.05 0.4 0.1h0.1l0.55 0.1 0.55-0.05q0.5 0.1 0.7 0.4h0.1l0.65 0.2 0.3 0.5-0.3 0.6-0.35 0.05-0.4-0.15-0.35 0.1-1.5 0.35-0.45-0.2-0.1-0.1-0.1-0.35 0.05-0.15-0.25-0.05-0.3 0.2-0.65 0.35-0.2 0.1q-0.4 1.25-3.05 1.25-1.25 0-1.75-0.65-0.75 0.85-1.95 0.85-1.05 0-1.45-0.85l-1.05 0.15h-0.55l-0.4-0.3v-0.25q0-0.3 0.35-0.5l0.3-0.15h-0.25q-0.55 0-0.75-0.3v-0.05h-0.2q-0.05 0.5-0.6 0.5-1.05 0-1.05-0.7l0.1-0.25-0.15 0.15v0.05q0 0.6-0.7 0.6l-0.8-0.3-0.1-0.15-0.25-0.55q0-0.25 0.15-0.4t0.5-0.15l0.55 0.15 0.1 0.05 0.05-0.05 0.15-0.05q0.25 0.65 2.1 0.65l1.05 0.15 0.7 0.15 1.65-0.3q-1.1 0.75-1.1 1.15 0 0.65 0.65 0.65l0.15-0.05h0.3q0.8 0 0.8-0.6v-0.05l0.25-0.15 1.05 0.25q0.8 0 0.8-0.6l-0.5-0.55 0.3-0.3q0-0.6-0.65-0.6l-0.95 0.25-0.5 0.2 0.1-0.3-0.2-0.5 0.15-0.35h0.25l0.15-0.05 0.5 0.15 0.45-0.15h0.1l0.4-0.1v0.2l0.55 0.25 0.3-0.05v0.1l0.05 0.2 0.3 0.25 0.8-0.15 0.1-0.35q0-0.5-0.55-0.5l0.5-0.15v0.05l0.1 0.35 0.3 0.2v0.05l0.45 0.3h0.25q0.6-0.05 0.6-0.55 0-0.35-0.5-0.45-0.05-0.35-0.6-0.4l-0.4 0.1v-0.05l0.15-0.2 0.05-0.05 0.25-0.05q0.15 0.3 0.6 0.25 0.55 0 0.55-0.6 0-0.45-0.55-0.5l-0.25 0.05-0.15-0.4 0.1-0.35v-0.1h0.1l0.55-0.35 0.15-0.45q0-0.5-0.6-0.4-0.6 0.05-0.65 0.5h-0.15q-0.65-0.1-0.65 0.45l0.1 0.45 0.35 0.4-0.2 0.2q0-0.45-0.35-0.5v-0.2q0.05-1-0.7-0.95l-0.3 0.15v-0.05q-0.55 0.4-1.2 0.45l-0.2 0.05 0.8 0.25 0.35-0.1-0.35 0.45-0.2 0.1-0.35 0.1h-0.1l0.15 0.35q0 0.45-0.55 0.5h-0.3l0.15 0.2h-0.4q-0.6 0.1-0.65 0.55h-0.3l-0.35 0.1q-0.15-0.2-0.5-0.25v-0.15l0.8-0.7q0.7-0.35 0.75 0.25l0.2-0.05-0.2-0.2-0.25-0.5 0.05-0.15-0.1-0.05h0.1q0.1-0.3 0.55-0.25l0.05-0.3-0.25-0.3 0.5 0.05 0.3 0.1-0.35-0.25-0.1-0.2q0-0.4 0.45-0.5l0.8-0.65 0.1-0.15-0.15-0.15-0.1-0.3q0-0.45 0.75-0.95l0.15-0.05m2.4-0.45v0.05l0.1 0.05 0.15 0.35q0 0.5-0.5 0.55-0.4 0-0.65-0.25l-0.15-0.35q0-0.45 0.6-0.5l0.45 0.1m-13.25 8.4-0.7 0.25-0.85-0.25-0.15-0.45q0-0.4 1.2-0.85l0.45-0.1h-0.05l0.4-0.8q0-1.05-0.35-1.15v-0.15q0-0.8-0.6-0.85-0.1-0.35-0.45-0.2l-1.15 0.45-0.65-0.05q0.15-0.2 0.45-0.15v-0.2l-0.55 0.35h-0.2l-0.1 0.1-0.1 0.35q-0.3 0.05-0.65 0.25l-0.45-0.25-0.55-0.35-0.35 0.1q-0.3 0-0.55-0.45l-0.25-0.5v-0.05q0.05-0.35 0.45-0.35l0.3 0.05-0.35-0.45q-0.2 0.35-0.75 0.35h-0.15l-0.4-0.1-0.3-0.45-0.4 0.15h-0.2q-0.9 0-0.9-0.55l0.2-0.4h0.5l0.8-0.2h0.05l-0.35-0.4q0.1-0.2 0.45-0.25l0.45 0.1 0.1 0.4v0.25h0.1l0.35-0.05 0.45 0.2 0.1 0.45v0.1l0.4 0.2-0.25-0.05q0 0.75 0.6 0.75h0.1l0.2-0.05 0.25 0.15h0.2q0.15 0.55 1.3 0.45 1.05-0.05 1.05-0.65l-0.4-0.4 0.5-0.15v-0.05l0.1-0.3-0.1-0.05-0.05-0.35q0-0.55 0.55-0.6l0.45 0.15 1-0.35q0.45-0.2 0.45 0.4l-0.45 0.55-0.4 0.25h0.25q0.4 0.05 0.4 0.35 0 0.55-1.05 0.6h-0.4l-0.05 0.1 0.45 0.3h0.9l0.45 0.1 0.4 0.05h0.2q0.4-0.1 0.6 0.35l-0.2 0.2q-0.15 0.1-0.15 0.3l0.05 0.05q0 0.4 0.3 0.5l0.45 0.05 0.35-0.25 0.3 0.1 0.3-0.15-0.05 0.3 0.1 0.3 0.2 0.1q-1 0.05-1 0.55l0.05 0.2-1.1-0.2q-1.2 0.15-1.2 0.85v0.05q0 0.35 0.3 0.5v0.05l-0.45 0.7-0.2 0.15m-2.85-0.7-1.4 0.15q-0.65 0-1.3-0.5-0.55-0.45-0.55-0.65l0.1-0.3q0.15-0.3 0.6-0.3h0.2q0.45 0.05 1.05 0.4l0.15 0.05 1.35-0.3 0.2 0.05q0.05-0.6 0.85-0.6 0.65 0 0.7 0.6 0 0.7-0.95 0.7h-0.2l-0.05 0.15-0.05 0.05-0.45 0.35-0.25 0.15m-5.25-7.15-0.15-0.1-0.05-0.1-0.05-0.05-0.1-0.35q0-0.45 0.25-0.65l-0.05-0.15 1.35-1.35 1.35-0.05 0.3-0.05h0.35q0.65 0.05 0.65 0.6l-0.05 0.3q-0.2 0.45-1.1 0.45l-0.5-0.1-0.2-0.15-0.2 0.2-0.8 0.65v0.25l-0.2 0.45-0.3 0.2-0.25 0.05-0.25-0.05m-2.3-1.2-0.4-0.3-0.1-0.35q0-0.5 0.75-0.6h0.25q0.6 0 0.65 0.6 0 0.65-0.95 0.65h-0.2m13.7-1 0.05-0.05h-0.05v0.05m-7.8 2.2 0.3 0.4v0.15q-0.1 0.4-0.7 0.5h-0.25l-0.5-0.15-0.05-0.25 0.1-0.35q0.25-0.3 0.85-0.3h0.25m0.55 0.6-0.2-0.4q0-0.6 0.7-0.7h0.25v-0.05q0-0.55 0.75-0.6 0.6-0.05 0.7 0.4v0.2l-0.2 0.2-0.7 0.25h-0.15l-0.25 0.45-0.5 0.3h-0.1l-0.3-0.05m5.9 2.55 0.05-0.05 0.1 0.1-0.05 0.05-0.1-0.1m1.85-0.5h0.45l0.75 0.15 0.05 0.1 0.4 0.25-0.05 0.1q0.3 0.05 0.35 0.55l-0.45 0.65-0.3 0.4q0.5 0.15 0.5 0.45v0.05l-0.1 0.4 0.05 0.25q0.15 0.25 0.55 0.25h0.25l0.55 0.15 0.3-0.05 0.05 0.1-1.1 0.25-0.75-0.35 0.1-0.4q0-0.6-0.4-0.7l-0.65-0.2 0.3-0.45q0-0.5-0.55-0.55l0.4-0.05-0.15-0.3v-0.1q0.1-0.4 0.7-0.45l0.25 0.05q-0.2-0.3-0.75-0.45-0.8-0.2-0.8 0.4l0.25 0.35-0.4-0.2-0.15-0.15 0.25-0.05 0.1-0.4v-0.05m-3.85 1.8h0.1l0.4 0.2q0.15-0.15 0.35-0.2v-0.1l-0.5 0.05-0.35 0.05m2.8 1.7v-0.2l0.5 0.2h-0.5m4.95-2.35-1-0.2v-0.05l0.15-0.5v-0.15l0.45-0.05-0.1 0.3 0.25 0.4 0.25 0.25m-12.85 4.15q0.3 0.05 0.35 0.45v0.1l-0.3 0.55-0.15 0.15-0.8 0.15q-0.55 0-0.7-0.3v-0.15l-0.05-0.15q0-0.5 1-0.75l0.65-0.05m2.4 4.1q-0.35 0-0.55-0.4l-0.15-0.35v-0.1q0-0.5 0.4-0.55h0.25q0.6 0.1 0.6 0.8l-0.1 0.4-0.45 0.2m0.35 2.35q0.6 0.05 0.6 0.65t-0.65 0.6h-0.15l0.15 0.4-0.35 0.55-2 0.2q-0.45 0-0.55-0.3l-0.05-0.3q0-0.35 0.3-0.5l2.05-0.2h0.15l-0.1-0.15-0.05-0.3q0-0.7 0.65-0.65m5.2-3.7 0.55-0.15 0.7 0.2 0.25 0.5-0.15 0.35-0.45 0.25q-1.05 0-1.05-0.8 0-0.25 0.15-0.35m-2 2.8 0.55-0.3q0.85-0.3 0.85 0.5l-0.35 0.6q-0.4 0.35-0.8 0.35-0.45 0-0.55-0.3l-0.05-0.3 0.05-0.1q0-0.25 0.3-0.45m9.8-8.25q0-0.3-0.2-0.45l0.45-0.05-0.05-0.15 0.1 0.05 0.05 0.05-0.05 0.15q0 0.55 0.65 0.65l-0.25 0.1q-0.15-0.35-0.6-0.35h-0.1m0.95 0.6-0.25 0.05v-0.1l0.25 0.05m3.05 1.5 0.45-0.2-0.15-0.2-0.05 0.05-0.4-0.1q-0.4 0-0.9 0.4l-0.2 0.15q-0.1-0.95-1.05-0.15l-0.7 0.1-0.45-0.2q-0.75-0.2-0.75 0.55l0.15 0.4 0.55 0.4-0.15 0.15 0.1 0.35q0.15 0.3 0.55 0.3l0.75-0.25-0.05-0.05-0.1-0.35q0-0.55 0.65-0.6 0.45-0.05 0.6 0.3v-0.05l0.3-0.4v-0.05q0-0.55 0.6-0.55l0.2 0.05 0.05-0.05m-6.2 8.4q-0.55 0-0.55-0.6 0-0.55 0.65-0.6 0.6-0.05 0.6 0.55 0 0.65-0.7 0.65m12.75-1.65 0.1 0.35q0 0.55-0.5 0.55-0.45 0-0.6-0.3l-0.1-0.35 0.05-0.25q0.1-0.3 0.55-0.25 0.35 0.05 0.5 0.25m-42.4-8.2q0.05-0.95 0.6-0.9 0.55 0 0.6 0.7v0.1q0 0.8-0.6 0.8l-0.35-0.05-0.25-0.55v-0.1m5.05 4.1v0.2l-0.2 0.55q-0.3 0.4-0.85 0.4-1 0-1-0.8l0.25-0.3 0.75-0.2 0.85-0.1 0.05 0.05 0.15 0.2m15.7 10.75h0.25q0.55 0 0.55 0.6 0 0.75-1.25 0.75-0.85 0-0.85-0.6l0.05-0.2q0.2-0.5 1.25-0.55" fill="#3a1b1b" fill-rule="evenodd"/>
<path d="m241.85 213.9 0.6-0.1 0.3 0.05v-0.05q0.4-0.55 1.15-0.6l0.85 0.15 1.05-0.35 0.65 0.05 0.35-0.05 1 0.35q0.8 0.3 2.4 1.1-0.15 0.35-0.75 0.4l-0.5 0.05 0.4 0.6-0.1 0.2h0.2q0.65-0.05 0.6 0.6v0.1q0.35-0.3 0.65-0.3 0.55-0.05 0.55 0.45l-0.2 0.4-0.25 0.25h0.25q0.65 0.25 0.65 0.95 0 0.35-0.4 0.5-0.05-0.5-0.65-0.15l-0.25-0.2-0.1-0.5 0.1-0.45h-0.1q-0.3 0.05-0.45-0.2l-0.1-0.25v-0.05h-0.25l-0.35-0.05v-0.05q0-0.5-0.35-0.65v-0.1h-0.05q-0.55 0.05-1-0.35l-0.1-0.1q-0.1 0.4-0.8 0.45-0.85 0.05-0.85-0.4 0-0.4 0.5-0.5l0.7 0.05 0.45-0.15 0.55-0.15h-0.05l-0.95-0.05h-1.65l-0.2-0.15-0.1-0.3v-0.05l-0.45 0.1h-0.1q-0.05 0.45-0.6 0.5l-0.9-0.05h-0.15l-0.45-0.1-0.45 0.1-0.55-0.1-0.5 0.55-0.7 0.5-0.5-0.15-0.1-0.35-0.25-0.2-0.2 0.05q-0.05-0.45-0.6-0.45-0.4 0-0.55 0.25l-0.45 0.1-0.1-0.15-0.1-0.35 0.05-0.15-0.2-0.45v-0.1q0.1-0.65 0.85-0.45 0.5 0.1 0.7 0.4l0.05 0.15 0.55 0.05 0.05-0.1q0.1-0.3 0.5-0.25l0.3 0.1q0.25 0.15 0.3 0.6l0.05-0.05 0.75-0.2 0.05-0.1 0.3-0.1m-7.25 10.25-0.05-0.2 0.65-0.6 0.1-0.1h0.05l0.05-0.05 0.35-0.2q0.35-0.2 0.65-0.25l0.45-0.1q0.5 0 0.6 0.6l-0.8 0.75-1 0.55q-0.6-0.35-1.05-0.4m-3.2-5.35 0.3-0.2 0.25 0.05 0.25-0.05 0.2 0.1 0.45-0.2 0.2-0.15h0.1l0.3-0.1h0.15l0.35-0.05-0.15-0.25-0.1-0.45 0.2-0.5 0.5 0.1q0.9 0 1.1-0.45l0.45 0.35 0.4-0.05 0.35 0.1 0.35-0.1h1.35q0.4-0.1 0.4-0.65v-0.15l0.5 0.2v0.15q0 0.6-0.95 0.65l-0.2 0.05-0.5 0.05-0.5-0.05-0.25 0.2-0.75 0.25-0.4-0.05 0.05 0.3-0.3 0.5-0.2 0.2h-0.25q-0.6 0-0.85 0.3l-0.35 0.05q-0.4 0.05-0.5-0.2v-0.05l-0.35 0.3-0.45-0.1q-0.35 0.05-0.45 0.25l-0.2-0.15q-0.35-0.25-0.5-0.2m-0.95-0.15-0.5 0.2q-0.45 0-0.55-0.3l-0.05-0.35 0.2-0.6-0.15-0.2h0.2q0.95 0 0.95-0.65-0.05-0.6-0.65-0.6l0.45-0.25 1.45-0.3h0.15l0.35 0.1-0.05-0.15v-0.05l0.1-0.3 1.2-0.25h0.05l0.15-0.05h0.2l-0.05-0.2q0-0.65 0.75-0.6l0.2 0.05 0.35 0.25v-0.15l0.05-0.2q0.2-0.35 0.95-0.35l0.75 0.15 0.1 0.1 0.05 0.35-0.15 0.4-0.65 0.3q-0.75 0-0.95-0.3v0.25q0 0.7-0.45 0.8h-0.35l-0.3 0.05-1.35 0.05-1.35 1.35 0.05 0.15q-0.25 0.2-0.25 0.65l0.1 0.35 0.05 0.05-0.5-0.2-0.15-0.3-0.05 0.05-0.2 0.5-0.15 0.2m16.5-0.35q0 0.5-0.55 0.55l-0.6-0.05-0.3 0.1q-0.4 0.05-0.6-0.2l-0.05-0.3q0-0.5 0.85-0.55 1.25-0.1 1.25 0.45m-11.35 0.85 0.25 0.05 0.3 0.05 0.15 0.35q0 0.65-0.55 0.7h-0.55l0.3 0.4-0.15-0.15-0.5 0.25-0.25-0.15-0.1-0.1-0.4-0.2v-0.1l-0.1-0.45 0.55 0.1 0.15 0.1 0.2-0.35q0.6-0.1 0.7-0.5m2.45-1.1q0.5 0 0.5 0.4 0 0.5-0.65 0.55-0.45 0.05-0.65-0.2l-0.1-0.3 0.7-0.25 0.2-0.2m-3.15 3.2q0.35 0 0.6-0.35l-0.35 0.3-0.2 0.05h-0.05m0.7 0.1-0.05-0.1q0-0.5 0.25-0.45l1 0.05 0.5-0.1h0.25l0.4 0.4q0 0.6-1.05 0.65-1.15 0.1-1.3-0.45m5.35 0.4 0.15-0.05 0.65 0.05 0.1 0.1-0.1 0.25 0.25-0.05q0.6 0 0.6 0.55l-0.05 0.35-0.35 0.25-0.45-0.05q-0.3-0.1-0.3-0.5l0.1-0.35 0.2-0.2q-0.2-0.45-0.6-0.35h-0.2m0.85-0.05-0.1-0.2 0.45-0.5 0.55-0.1q0.95-0.05 0.9 0.35v0.05l-0.1 0.4-0.25 0.05-0.8-0.15-0.55 0.2-0.1-0.1m-2.4-3.5q-0.4-0.05-0.55-0.3l-0.15-0.4 0.2-0.35 0.95-0.15 0.35-0.2 0.1-0.2 0.55-0.1q0.65-0.05 0.9 0.35l-0.25 0.2-0.45 0.5h-0.15q-1.35 0.1-1.5 0.65m5.4 3.2-0.1-0.3 0.1-0.3h0.3l0.4-0.1 0.15-0.05 0.4 0.5q-0.35 0.05-0.75 0.5l-0.05 0.1-0.4-0.25-0.05-0.1m-5.05 1.65v0.05q-0.15 0.5-1.35 0.5-0.6 0-0.6-0.65 0-0.7 1-0.85h0.35q0.6 0.05 0.6 0.85v0.1m3.4-0.15q0.15-0.25 0.65-0.25h0.1q0.55 0.05 0.55 0.55l-0.3 0.45-0.45-0.05h-0.3l-0.2-0.1-0.1-0.3 0.05-0.3m1-0.7-0.35-0.1-0.25-0.35q0-0.6 0.8-0.4 0.55 0.15 0.75 0.45l-0.25-0.05q-0.6 0.05-0.7 0.45m-1.6 2.35v0.2q-0.65 0.05-0.65 0.55l0.05 0.2-0.3 0.1-0.55-0.15q-0.35 0-0.5 0.15l-0.15-0.05q-0.3-0.15-0.3-0.5v-0.05q0-0.7 1.2-0.85l1.1 0.2 0.1 0.2m4.55-3.1 0.7-0.1 0.5 0.2 0.25 0.3-0.05 0.3q-0.45-0.05-0.55 0.25h-0.45l-0.25-0.25-0.25-0.4 0.1-0.3m-0.2 3.5 0.3-0.5-0.1-0.25 0.35-0.1h0.3q0.05-0.45 0.65-0.55h0.4l0.1 0.05-0.3 0.25-0.3 0.45 0.2 0.3-0.15 0.05h-0.25l-0.15 0.35-0.4-0.1-0.6 0.15-0.05-0.1m3.45-3.1-0.35 0.1-0.8-0.25 0.2-0.05q0.65-0.05 1.2-0.45v0.05q-0.25 0.1-0.25 0.5v0.1m2.15-0.6q0.05-0.45 0.65-0.5 0.6-0.1 0.6 0.4l-0.15 0.45-0.55 0.35h-0.1l-0.45-0.3v-0.4m-1 3.2q0.55 0 0.55 0.5l-0.1 0.35-0.8 0.15-0.3-0.25-0.05-0.2v-0.1l0.3-0.4 0.25-0.05h0.15m-18.4-4.9 0.1 0.1h-0.1v-0.1m-0.05 7.95q-0.55 0-0.55-0.6l0.4-0.6q0.5-0.55 1.05-0.55 0.65 0 0.7 0.8l-0.65 0.05q-1 0.25-1 0.75l0.05 0.15m3.3 2.4h-0.2l-0.2-0.1-0.35 0.1q-0.45 0-0.55-0.3l-0.05-0.15v-0.2q0-0.4 0.4-0.5l0.55-0.1q0.75 0 0.8 0.6-0.4 0.05-0.4 0.55v0.1m0.15 1.9q0.25-0.35 0.8-0.35 0.75 0 0.75 0.55l-0.35 0.55-0.8 0.3-0.35-0.05v0.05q0 0.6-0.95 0.6t-0.95-0.65q0-0.55 1-0.55l0.65 0.15v-0.15l0.2-0.45m-2.6 1.5q0.65 0 0.6 0.6 0 0.65-0.55 0.65-0.45 0-0.6-0.35l-0.1-0.4q0-0.5 0.65-0.5m9.95-3.95-0.7-0.2-0.55 0.15v-0.15l0.2-0.4q0.25-0.3 0.6-0.3 0.6 0 0.6 0.55l-0.15 0.35m-1.35 1.3 0.05 0.35-0.15 0.45-0.65 0.1q-0.95 0-1.15 0.55-0.3 0.2-0.3 0.45l-0.3 0.05q-0.6 0-0.6-0.6 0-1.55 2.4-1.6h0.1q0.45 0 0.6 0.25m8.7-11.35 0.45-0.15q0.65 0.05 0.65 0.6l-0.1 0.25q0.2 0.05 0.25 0.2v0.25q0 0.6-0.5 0.65-0.4 0.05-0.6-0.25l-0.05-0.3 0.05-0.25 0.1-0.05-0.3-0.25-0.05-0.1-0.05-0.2v-0.15l0.05-0.1 0.1-0.15m8.7 13.4-0.2-0.45q0-0.55 0.7-0.6t0.7 0.5l-0.15 0.55q-0.15-0.2-0.5-0.25-0.45-0.05-0.55 0.25m-41.35-8.2h-0.15q-0.6 0-0.6-0.6t0.7-0.85q0.65-0.3 0.65 0.5v0.05q-0.55-0.05-0.6 0.9m4.9 3.9-0.05-0.25q0-0.65 0.9-0.65 0.6 0 0.6 0.55 0 0.7-0.85 0.7l-0.45-0.15-0.15-0.2m-0.9-0.85 0.2 0.4q0 0.55-0.65 0.55-0.9 0-0.9-0.7 0-0.55 0.6-0.55 0.45 0 0.75 0.3m15.5 12.35q-0.6-0.2-0.6-0.7 0-0.55 0.7-0.55 0.65 0 0.95 0.35l0.2 0.35q-1.05 0.05-1.25 0.55" fill="#7b3939" fill-rule="evenodd"/>
</g>
</defs>
</svg>
