<?xml version="1.0" encoding="UTF-8"?>
<svg version="1.1" viewBox="0 0 49.296 48.119" xmlns="http://www.w3.org/2000/svg" xmlns:cc="http://creativecommons.org/ns#" xmlns:dc="http://purl.org/dc/elements/1.1/" xmlns:rdf="http://www.w3.org/1999/02/22-rdf-syntax-ns#" xmlns:xlink="http://www.w3.org/1999/xlink">
<metadata>
<rdf:RDF>
<cc:Work rdf:about="">
<dc:format>image/svg+xml</dc:format>
<dc:type rdf:resource="http://purl.org/dc/dcmitype/StillImage"/>
</cc:Work>
</rdf:RDF>
</metadata>
<g transform="translate(-250.39 -175.95)">
<use transform="translate(250.4,175.95)" width="49.25" height="48.099998" xlink:href="#a"/>
</g>
<defs>
<g id="a" transform="translate(0,8.75)">
<path d="m49 17.25q-0.05-6.55-6.55-8.6l-0.15 0.1-0.1 0.05q-2.6 1.65-4.15 4.55l-0.2 0.4q-1.1 2.25-1.6 5.2l-0.5-1.7q0.65-4.75 4.3-7.85l1.15-0.9 0.2-0.15 0.6-0.4 0.35-0.2 0.35-0.1 1.35 0.3q3.25 0.7 4.6 4.05 1 2.45 0.35 5.25m-6.45 19.6-0.15-2.55q-0.6-3.55-3.45-6.65 3.55 1.25 4.05 5.85l0.05 0.85v0.05q0 1.4-0.5 2.45m-12.7-28.2 0.05-0.05q2.1 2.55 3 4.7v0.05l-0.85 0.7-1.5-0.4-0.2-0.55 1.25-0.8-1.5-0.35-0.35-2.4-1.2 2.2-1.05-0.1-0.05-0.05 0.7-2.15 1.7-0.8m-9.25-2.95v0.1l-1.25-1.1 2.35-0.95q1.7 1.65 1.6 2.65l-0.35 0.3-2.35-1m-4.6-2.6 0.7-0.1 2.65 1.7-2.05 1-0.1 0.05-1.45-0.3q-2.45 0.6-3.35 2.75l0.6 0.2q-5.85 4.3-9 11l-0.3 0.6-0.15 0.1 0.05 0.1-0.05 0.15-0.8 2-0.15 0.45-0.45 1.4-0.85-0.35q0.1 0.45 0.7 0.85-0.85 2.85-1.3 6.05-1.3-3.25-0.15-8.55 1.15-5.4 3.85-10.3l0.65-1.1 1.3-0.8 0.15-1.2q2.15-2.65 5.05-4.15l0.05 0.1-0.05-0.1q2.05-1.05 4.45-1.55m-4.4 1.65q-0.35 0.05-0.6 0.6l-0.35 0.75 1.5 0.25 1-0.75-0.35-1.05-1.2 0.2m-9.1 15.3 0.6-0.35 0.45 0.65-0.45-0.65-0.6 0.35m0.1-1.15 0.5 0.8 0.9-0.3-0.9 0.3-0.5-0.8" fill="#d28c6a" fill-rule="evenodd"/>
<path d="m36.25 18.95q0.5-2.95 1.6-5.2l0.2-0.4q1.55-2.9 4.15-4.55l0.1-0.05 0.15-0.1q6.5 2.05 6.55 8.6l-1 2.6q-1.9 3.95-5.85 6l-3.45 1.35-0.95-0.2q1.75-9.75 5.75-14.6-3.75 1.35-6.75 8.7l-0.5-2.15m6.55 5.25q3.05-3.3 4.2-7.55-3.3 5.05-7.95 7.7l3.75-0.15m-4.9 3.15q-0.75 4.15 0.05 6.45 0.5 1.65 1.85 2.35-1.9 0.25-3.25-1.9l0.15-0.55q0.75-3.15 0.75-6.45l0.45 0.1m-2.1-0.55-0.9 3.25-0.45 1.15-0.35 0.65-0.4 0.45-1.25-0.95-0.1 0.1-1.65-1.4-1.2 0.95-0.05 0.65-0.3 0.15-1.15 1.55-0.1-0.05-0.45 0.05-0.55-0.4-0.65-0.1-0.6 0.5-0.85 0.05h-0.5l-2.5 0.1h-0.2l-4.95 0.4-0.15-0.4-1.5 0.45-0.1 0.05-1.3-0.5q4.05-1.85 10.9-1.95l-0.15-0.1-1.5-0.65-0.1-0.1h0.05-0.1l-0.1-0.05-0.4-0.15-1.95-0.5-0.55-0.1-0.2-0.05-0.75-0.15-0.9-0.1-1.55-0.1h-0.95l-4.3 0.45-0.9 0.15-1.25 0.35-1.5 0.5q-2.45 0.9-4.9 2.5-1.2-1.1-1.8-2.7 0.45-3.2 1.3-6.05-0.6-0.4-0.7-0.85l0.85 0.35 0.45-1.4 0.15-0.45 0.8-2 0.05-0.15 0.4-0.8q3.15-6.7 9-11l2.6 0.75 0.05 0.05h-0.05l0.05 0.05q1.55 1.35 1.75 3.25 1.6-0.65 2.5-1.8l0.65-1.85h2.3l1.65 2.95v-1l1.8 0.5-0.8-2.2-1 0.45v-0.55l1.75-0.5-1.6-0.95 0.05-0.45q1.95 0.9 2.5 3l1.1-1.85-1.15-2.15 1.55 1.3 0.05 0.05 1.1 1.2-1.7 0.8-0.7 2.15 0.05 0.05-1.1-0.1 1.6 1.25-0.55 0.45q-1.1-0.35-2.3 0.55l0.05 0.15q-3.1-0.55-3.4 2.6-0.1 0.9 0.25 2.05l0.25 2.25 2.65 0.45q-1.55-0.6-2.2-1.7 0.15-1.95 0.95-3.55l-1.65 2.55q-0.35-1.15-0.25-2.05 0.3-3.15 3.4-2.6 1.85 2.15-1.85 5.15l1.6-0.05 0.6 0.3q0.75 0.65 0.95 1.7 0.15 1-1.45 1.8l-0.45 0.05q1.35 1.8 3.3 1.85 3.7-2.1-0.95-5.55 1.7-0.55 2.65-1.6 1.15-2.4-1.3-3.9l0.7-0.25 2.1 1.9-0.35-1.05-0.2-0.65 1.5 0.4 0.85-0.7q1.65 3.4 2.75 7.2l0.1 6.2 0.05 0.05m-9.4-21.2 0.5 0.3-1.45-0.15-0.6 0.55 0.25-1.45 1.3 0.75m-5.05-2.15 0.7 0.2q1.55 0.4 2.95 1.15l-1.7 1.6q0.1-1-1.6-2.65l-0.35-0.3m-0.75 2.35 0.2 0.25 0.65 0.9 0.15 0.55h0.2l0.15 0.2-1.35 0.55v-0.25q-0.9-1.4-2.9-2.05l-0.35-0.15-0.05-0.1 2.05-1 1.25 1.1m0.7 5.2-0.75-0.65 0.25 1-0.65 0.45 0.45 0.45-0.9 0.65 1.4-0.1-0.1 0.5v1l0.7-1.2 2.65 0.35q0.45-2.1-1.95-3.2l-1.1 0.75m1.15 10.9q0.7 1 1.55 1h0.6-0.6q-0.85 0-1.55-1m-14.95-0.7-0.95-0.8 0.7-0.95-0.7 0.95 0.95 0.8m-1.7-1.45 0.75 0.65-0.4 0.5 0.4-0.5-0.75-0.65m1.3 2.1-0.05-0.05v0.05h0.05m6.05-10.25 3.4 4.55q2.95 3.8 0.8 11.05 2.45-4.1 2.4-7.15-1.95-6.4-6.6-8.45m11.4 20.9q0.35-0.65-0.05-0.95 0.4 0.3 0.05 0.95m3.1-2.2q-0.05 1.6-0.75 2.65 0.7-1.05 0.75-2.65m3.1-4.7-2.9 0.5 1.3 3.1 2.15-0.65-0.55-2.95m-5 2.8v-0.9l-1.8-1.45-1.15 1.9 2.95 0.45" fill="#c2673a" fill-rule="evenodd"/>
<path d="m42.8 24.2-3.75 0.15q4.65-2.65 7.95-7.7-1.15 4.25-4.2 7.55m-21.2 9.3h0.05v0.05l-0.05-0.05m2.95-0.1h0.05-0.05" fill="#73733c" fill-rule="evenodd"/>
<path d="m36.25 18.95 0.5 2.15q3-7.35 6.75-8.7-4 4.85-5.75 14.6h-0.3l-0.25-0.05-1.4-0.15-0.05-0.05-0.1-6.2q-0.15-1.75 0.1-3.3l0.5 1.7m2.7 8.7q2.85 3.1 3.45 6.65l0.15 2.55q-0.8 1.5-2.75 2.3-1.25 0.55-2.3-0.45l-1.7-2.1-0.85-1.55-0.5-1.5-0.25-0.9-0.1-0.8 0.35-0.65 0.45-1.15 0.9-3.25 1.65 0.45q0 3.3-0.75 6.45l-0.15 0.55q1.35 2.15 3.25 1.9-1.35-0.7-1.85-2.35-0.8-2.3-0.05-6.45l1.05 0.3m-10.65-13.95q2.45 1.5 1.3 3.9-0.95 1.05-2.65 1.6 4.65 3.45 0.95 5.55-1.95-0.05-3.3-1.85l0.45-0.05q1.6-0.8 1.45-1.8-0.2-1.05-0.95-1.7l-0.6-0.3-1.6 0.05q3.7-3 1.85-5.15l-0.05-0.15q1.2-0.9 2.3-0.55-0.85 0.7-0.95 1.05l1.8-0.6m-6.25 4.9 1.65-2.55q-0.8 1.6-0.95 3.55 0.65 1.1 2.2 1.7l-2.65-0.45-0.25-2.25m-8.9-7q4.65 2.05 6.6 8.45 0.05 3.05-2.4 7.15 2.15-7.25-0.8-11.05l-3.4-4.55m-10.65 21.85q2.45-1.6 4.9-2.5l1.5-0.5 1.25-0.35 0.9-0.15 4.3-0.45h0.95l1.55 0.1 0.9 0.1 0.75 0.15 0.2 0.05 0.55 0.1 1.95 0.5v0.1q-9.2-1.65-16.2 2.95-0.85 1.15-2 1-0.85-0.45-1.5-1.1m12.5 0.6v-0.1l1.5-0.45 0.15 0.4 4.95-0.4 0.05 0.05v-0.05h0.15l2.5-0.1h0.25l-1.45 1.15-1.45-1-0.85 1.15-0.65-0.05-0.4 0.05h-0.35l-1.25 0.5-0.85 0.25-2.3-1.4m17.35-2.6-0.85 0.95-0.75-0.45-0.35 0.45-0.95-0.75 0.05-0.65 1.2-0.95 1.65 1.4" fill="#8d4a29" fill-rule="evenodd"/>
<path d="m26.9 5.9 0.25 0.2 1.15 2.15-1.1 1.85q-0.55-2.1-2.5-3l0.15-0.8 0.6-0.55 1.45 0.15m-6.3 2.35-0.95 0.6h0.9l-0.65 1.85q-0.9 1.15-2.5 1.8-0.2-1.9-1.75-3.25l1.45 0.35 0.1 0.85 0.65-0.6 1.4 0.6-1.1-1.25 0.75-1.25q-0.25 0-0.75 0.4l-0.35 0.25-0.65-0.95-0.05 1.15-1.45 0.4-0.05-0.05-2.6-0.75q1.1-0.85 2.35-1.6l2-1 0.35 0.15q2 0.65 2.9 2.05v0.25m3.9 2.55v-1.25l1-0.45 0.8 2.2-1.8-0.5m-2.8 2.3 0.25-0.4 1.95 0.05-1.4-0.85 0.3-1-1 0.5-0.5-0.4 1.1-0.75q2.4 1.1 1.95 3.2l-2.65-0.35m-0.9-1.75 0.1 0.65-0.3 0.25-0.45-0.45 0.65-0.45m4.95 17.05-2.95-0.45 1.15-1.9 1.8 1.45v0.9" fill="#9d532f" fill-rule="evenodd"/>
<path d="m16.05 2.75q0.1-1.75 1.5-2.1l3-0.65 0.15 0.8q0.1 1.3-0.9 1.45-1.8 0.3-2.3 0.65l-0.8 0.1-0.65-0.25" fill="#58582c" fill-rule="evenodd"/>
<path d="m17.5 2.9 3.85 0.55 0.35 0.3-2.35 0.95-2.65-1.7 0.8-0.1m-0.3 2.85 0.15 0.05-2 1q-1.25 0.75-2.35 1.6l-0.6-0.2q0.9-2.15 3.35-2.75l1.45 0.3" fill="#bf6539" fill-rule="evenodd"/>
<path d="m20.6 5.7 0.2 0.35-0.2-0.25v-0.1" fill="#988727" fill-rule="evenodd"/>
<path d="m15.65 9.2v0.05l-0.05-0.05h0.05" fill="#daca70" fill-rule="evenodd"/>
<path d="m21.45 6.95 0.35 0.55h-0.2l-0.15-0.55" fill="#b16934" fill-rule="evenodd"/>
<path d="M 16.05,2.75 16.7,3 16,3.1 16.05,2.75" fill="#663" fill-rule="evenodd"/>
<path d="m17.2 5.75 0.1-0.05 0.05 0.1-0.15-0.05" fill="#bf9f22" fill-rule="evenodd"/>
<path d="m11.6 4.75 1.2-0.2 0.35 1.05-1 0.75-1.5-0.25 0.35-0.75q0.25-0.55 0.6-0.6" fill="#c79332" fill-rule="evenodd"/>
<path d="m11.55 4.65 0.05 0.1-0.05-0.1" fill="#dcbb38" fill-rule="evenodd"/>
<path d="m3.7 20-0.1 0.2-0.05-0.1 0.15-0.1" fill="#b6c173" fill-rule="evenodd"/>
<path d="m14.9 34 0.1-0.05v0.1l-0.1-0.05m9.7-0.6h0.2l0.85-0.05-0.5 0.7-0.6-0.65h0.05" fill="#986d1f" fill-rule="evenodd"/>
<path d="m22.75 30.7 0.1 0.1 1.5 0.65 0.15 0.1q-6.85 0.1-10.9 1.95l-0.5-0.7q3.65-1.5 9.6-2.1h0.05m8-5.1 0.55 2.95-2.15 0.65-1.3-3.1 2.9-0.5" fill="#8a442d" fill-rule="evenodd"/>
<path d="m22.2 30.5 0.4 0.15-0.4-0.05v-0.1" fill="#9b821c" fill-rule="evenodd"/>
<path d="m22.85 30.8 1.5 0.65-1.5-0.65" fill="#676736" fill-rule="evenodd"/>
<path d="m21.65 33.55v-0.05 0.05" fill="#533e11" fill-rule="evenodd"/>
<path d="m24.85 6.3-0.15 0.8-0.05 0.45 1.6 0.95-1.75 0.5v2.8l-1.65-2.95h-3.2l0.95-0.6 1.35-0.55-0.15-0.2-0.35-0.55-0.65-0.9-0.2-0.35 2.35 1 0.35-0.3 1.7-1.6 0.15-0.1-0.05 0.15-0.25 1.45m-3.55 4.7 0.5 0.4 1-0.5-0.3 1 1.4 0.85-1.95-0.05-0.25 0.4-0.7 1.2v-1l0.1-0.5-1.4 0.1 0.9-0.65 0.3-0.25-0.1-0.65-0.25-1 0.75 0.65m6.15 2.25 0.55-0.45-1.6-1.25 1.1 0.1 1.05 0.1 1.2-2.2 0.35 2.4 1.5 0.35-1.25 0.8 0.75 2.25-2.1-1.9-0.7 0.25-1.8 0.6q0.1-0.35 0.95-1.05m-11.8-4.05 1.45-0.4 0.05-1.15 0.65 0.95 0.35-0.25q0.5-0.4 0.75-0.4l-0.75 1.25 1.1 1.25-1.4-0.6-0.65 0.6-0.1-0.85-1.45-0.35v-0.05" fill="#e7dca0" fill-rule="evenodd"/>
<path d="m37.75 27 0.95 0.2 3.45-1.35q3.95-2.05 5.85-6l1-2.6q0.65-2.8-0.35-5.25-1.35-3.35-4.6-4.05l-1.35-0.3-0.35 0.1-0.35 0.2-0.6 0.4m-0.2 0.15-1.15 0.9q-3.65 3.1-4.3 7.85m6.8 19.6q0.5-1.05 0.5-2.45m0-0.05-0.05-0.85q-0.5-4.6-4.05-5.85l-1.05-0.3m-0.45-0.1-1.65-0.45-0.9 3.25-0.45 1.15-0.35 0.65 0.1 0.8 0.25 0.9 0.5 1.5 0.85 1.55 1.7 2.1q1.05 1 2.3 0.45 1.95-0.8 2.75-2.3m-16.15-31.25 0.5 0.3m0.25 0.2 1.55 1.3m0.05 0.05 1.1 1.2m0.05-0.05q2.1 2.55 3 4.7m0 0.05q1.65 3.4 2.75 7.2-0.15-1.75 0.1-3.3m-19.7-14.5q0.1-1.75 1.5-2.1l3-0.65 0.15 0.8q0.1 1.3-0.9 1.45-1.8 0.3-2.3 0.65l3.85 0.55 0.7 0.2q1.55 0.4 2.95 1.15m0.1 0.05 1.3 0.75m-1.8 17.3h-0.6q-0.85 0-1.55-1m2.75-7.95-0.05-0.15m0.05 0.15q-3.1-0.55-3.4 2.6-0.1 0.9 0.25 2.05m2.55 4.3 0.45-0.05q1.6-0.8 1.45-1.8-0.2-1.05-0.95-1.7l-0.6-0.3-1.6 0.05q3.7-3 1.85-5.15m-8.5-10.95-0.65-0.25-0.05 0.35 0.7-0.1 0.8-0.1m-5.95 1.75q-2.9 1.5-5.05 4.15l-0.15 1.2-1.3 0.8-0.65 1.1q-2.7 4.9-3.85 10.3-1.15 5.3 0.15 8.55m10.85-26.1q2.05-1.05 4.45-1.55m6.6 27.55 0.1 0.05h0.1m-0.05 0 0.1 0.1 1.5 0.65 0.15 0.1q0.4 0.3 0.05 0.95m2.35 0.45q0.7-1.05 0.75-2.65m-7.9 4.4h-0.35l-1.25 0.5-0.85 0.25m-14.8-2q-1.2-1.1-1.8-2.7m21.5-0.15q-9.2-1.65-16.2 2.95-0.85 1.15-2 1-0.85-0.45-1.5-1.1m34.95-6.2 0.45 0.1m-2.15-0.6 0.05 0.05-0.05-0.05-0.1-6.2m1.55 6.4-1.4-0.15m-1.7 5.05-0.4 0.45m-11.1-1.65-0.4-0.05m-1.4 4.1-0.65-0.05" fill="none" stroke="#663232" stroke-linecap="round" stroke-linejoin="round" stroke-opacity=".43137" stroke-width=".05"/>
<path d="m27.15 6.1-0.1-0.15-0.65-0.35m2.3 1.8 0.05 0.05m-3.1 25.9 0.6-0.5 0.65 0.1m6.8-0.65-1.25-0.95-0.1 0.1-0.85 0.95-0.75-0.45-0.35 0.45-0.95-0.75-0.3 0.15-1.15 1.55m-0.1-0.05-0.45 0.05m-2.9 0.05h0.05m1.05-0.05-0.5 0.7-0.6-0.65-1.45 1.15" fill="none" stroke="#58582c" stroke-linecap="round" stroke-linejoin="round" stroke-width=".05"/>
<path d="m22.8 30.7h-0.05m-9.65 2.1q3.65-1.5 9.6-2.1h0.05" fill="none" stroke="#7c7c3f" stroke-linecap="round" stroke-linejoin="round" stroke-width=".05"/>
<path d="m3.55 20.35-0.45-0.65-0.6 0.35m1.5-0.65-0.9 0.3-0.5-0.8m3.55 2 0.4-0.5-0.75-0.65m1.45-0.3-0.7 0.95 0.95 0.8" fill="none" stroke="#533e11" stroke-linecap="round" stroke-linejoin="round"/>
<path d="m28.95-8.65-0.05-0.05v-0.05l-5.15 0.8q4.1 2.1 6.7 5.25-2.5 3.55-7 4.65 3.2 2.9 7.45 2.55l-1.2-1.95q-0.85-1.9 3.75-5.1-3.95-1.65-6.75-4.65 0.55-1 2.25-1.45" fill="#c8d8ce" fill-rule="evenodd"/>
<path d="m39.3-4.5-0.3 0.05-5.05 4.35q0.55 1.2 4.2 5-0.85 1.65-2.95 2.35 3.4 0.8 4.2-1.9-2.4-2.4-3.95-5.25 1.6-2.4 3.85-4.6" fill="#c9d9cf" fill-opacity=".66274" fill-rule="evenodd"/>
</g>
</defs>
</svg>
