<?xml version="1.0" encoding="UTF-8"?>
<svg version="1.1" viewBox="0 0 85.4 62.2" xmlns="http://www.w3.org/2000/svg" xmlns:cc="http://creativecommons.org/ns#" xmlns:dc="http://purl.org/dc/elements/1.1/" xmlns:rdf="http://www.w3.org/1999/02/22-rdf-syntax-ns#" xmlns:xlink="http://www.w3.org/1999/xlink">
<metadata>
<rdf:RDF>
<cc:Work rdf:about="">
<dc:format>image/svg+xml</dc:format>
<dc:type rdf:resource="http://purl.org/dc/dcmitype/StillImage"/>
</cc:Work>
</rdf:RDF>
</metadata>
<g transform="translate(-249.75,-172.9)">
<use transform="translate(249.7,172.9)" width="85.449997" height="62.200001" xlink:href="#a"/>
</g>
<defs>
<g id="a" transform="translate(-249.7,-172.9)">
<path d="m307.5 186.25 0.05 0.05 1.2 2.15q-0.35-1.4-0.3-2.85 3-0.6 5 2.85 1.25-3.45 3.65-5.35 0.85 0.9 1.25 1.95 0.95-0.65 2.1-1.05 1.35 2.4 0.2 5.1l0.1 0.1-0.15 4 8.65 0.5 0.1 0.1-0.1 0.1-3.35 1.7 2.9-0.05h0.1l0.05 0.1-0.05 0.05-0.1 0.25 3.95 0.7 0.1 0.1v0.05l-0.05 0.05q-2.75 1.6-5.4 3.15l0.25 0.5 0.45 0.8q3.35 0.7 7 3l0.05 0.05v0.1l-0.1 0.1-5.85 0.9-0.1 1.85v0.05q2.75 2.25 4.7 5.45l-3.85-1.1q0.9 1.85 1.25 3.9l-2.65-1.9v0.05l-0.05 0.05h-0.05l-0.7 0.05-0.1-0.1h-0.15l0.1 0.15 0.15-0.05 0.2 0.2 0.05 0.1-0.15 0.15-0.9-0.15 0.65 2.55-0.05 0.05 0.2 0.15-0.25 0.05v0.05h-0.4l-2.75 0.45v0.15h0.05l0.1-0.05q0.1 1.7-0.55 3.55l-0.1 0.1h-0.1l-0.5 1.6-0.1-0.05-0.05 0.05-1.4 2-0.05 0.05h-0.05l-0.1-0.05-1.25-1.3-0.25 0.25-1.25-1q-0.55 3.2-2 6.9l-0.1 0.1h-0.1l-0.05-0.1-1.65-3.5-1.1 0.95-0.1 0.05-0.1-0.1-1.2-3.15q-1.5 1.4-3.75 2.15l-0.1-0.05-0.05-0.05-0.3 0.05v0.05l-0.05 0.1-0.05 0.05-1.6 0.4h-0.1l-0.05-0.05v-0.1l0.1-0.95q-3.2 3.4-7.3 5.65l-0.05 0.05-0.1-0.1v-0.1l1.95-4.55-1-2.4h-0.1l-0.45 0.05v2.8l0.2 0.25 0.05 0.1-0.05 0.05-0.1 0.05-2.8-0.4q-0.25 1.35-1.4 2.75l-2.45 2.15-0.1 0.05-0.1-0.1-1.6-2.75q-1.25 2.55-3.4 5.3l-0.05 0.05-0.2-0.1-0.55-3-1.05 0.4h-0.05l-0.1-0.05v-0.1l-0.3-2.7q-1.55 0.7-3.55 0.75l-0.1-0.05v-0.1h-0.2l-0.05 0.1-0.1 0.05-1.45-0.1-0.1-0.1v-0.1l0.3-0.75q-3.4 1.85-7.25 2.65h-0.1l-0.05-0.1v-0.1l2.75-3.05v0.15l0.1-0.1-0.8-5.2-3.25 2.7-0.1 0.05-0.1-0.1v-0.05l0.3-1.3-4.9-0.15 1.1-2.15q-1.15-0.35-2-1.15 1.75-2.4 4.95-3.7l-1.3-1.05-1.25-1.85-0.75-1.95v-0.1l0.05-0.05h0.65l1.7 0.05v-0.1h0.1l0.8-0.05q-0.75-1.45-0.55-3.35l0.05-0.1h0.05l0.1-0.4 0.2-1.3 6 2.5 0.1-0.05v-0.05h-0.05l0.05-0.05 0.4-0.65 0.2-0.3 0.2-0.9-0.1-0.1v0.15l-0.95-0.95q-3.4-3.95-4.55-5.85-1.25-1.95-1.7-3.7-5.1-2.4-4-10.6l-0.45 0.5-0.1 0.05-0.05-0.05-1.25-1.1-1.15 2.8-0.05 0.1h-0.1l-0.05-0.1-0.65-1.2-0.45 0.3-0.1 0.05-0.1-0.1-0.45-1.05-1.7 0.75-0.1-0.05-0.05-0.05v-0.05l-0.05 0.05-0.05 0.1-0.8 0.15-0.1-0.05-0.05-0.05v-0.05l0.05-0.15q-1.5 1.15-3.3 1.9h-0.05l-0.1-0.05v-0.15l0.95-1.6-0.9-2-1.3 1.5-0.05 0.05h-0.1l-0.05-0.05v-0.1l0.05-3.45h-0.1l-0.05 0.05q-2.2 0.1-3.6-1.85v-0.15l0.1-0.05 1.55-0.4q-0.5-0.6-0.6-1.55l-0.05-0.65v-0.05l0.05-0.05h0.1l3.45 0.3v-1.6l0.05-0.05h0.1l0.8 0.15q-1.1-1.15-0.35-2.9l0.05-0.05h0.1l1.65 0.65q0.15-0.65 0.8-1.25l0.15-0.2 0.5-0.45 2.25 2.35 1.5-1.15 0.45 0.6q0.6-0.55 1.5-0.9 0.75-0.45 1.9-0.6h0.05l0.05 0.05 0.05 0.1-0.3 2.9 5.5 0.2-4.8 2.05-0.05 0.05-0.05 0.1 0.55-0.1-0.35 0.35 0.3 0.1q1.9 0.75 3.25 1.85l4.65-0.7q6.35-0.65 10.3 0.8 3.9 1.4 9.8 4.15 3.65 1.7 7.5 4.45l0.3-0.4 1.1-1.2 1.05 1.2q0.45-0.7 1.25-1.45l0.25-0.25v-0.1l1.2-1.1h0.1" fill-opacity=".30196" fill-rule="evenodd"/>
<path d="m288.85 204.9-0.1-1.65 7.85 0.8-0.25-4.5q5.9 0.85 7.3 7.45l0.65-6.1q6.85 1.85 5.95 10.55l-0.4 2.85 0.4-2.85q5.35-6.95 12.6-8.5l-3.45 5.35q4.35 0.4 6.2 4.6l-5.9 0.4-1.75 2-3.05 3.65-1.35-1.55-0.3 0.2-2 1.35-0.6-0.3-0.75 1.3q-1.75 1.2-3.55 2.55l-0.15-4.3-1.95 0.4-1.2 0.3-0.05-0.3-1.25-6.35-6.75 1.2 0.7-3-0.25-0.1-2.45-1.95-4.05-3-0.1-0.5m7.85 2.25-3.7 1.25 3.7-1.25m8.5 9.2-0.95 2.25 0.95-2.25m11.65-4.1q0.75 1.35 1.1 3.05-0.35-1.7-1.1-3.05" fill="#fff" fill-rule="evenodd"/>
<path d="m288.95 205.4 4.05 3 2.45 1.95 0.25 0.1-0.7 3 6.75-1.2 1.25 6.35 0.05 0.3 1.2-0.3 1.95-0.4 0.15 4.3q1.8-1.35 3.55-2.55-4.25 6.85-11 10.6l2-4.4-2.55-6.05-2.8 4.45-0.35-9.5h-0.55q-4.6 0.45-7.55-4.55l3.65-1.25q-1.35-1.5-1.8-3.85m4.05 3q-1.05 0.35-2.25 0.85 1.2-0.5 2.25-0.85m4.3 8.4 1.05 3.3-1.05-3.3m13.95 2.15 2-1.35 0.3-0.2 1.35 1.55 3.05-3.65 0.25 1.4q0.6 5.35-2.1 12.4l-4.7-10.05-0.15-0.1m14.35-6.05q0.7 1.65 1.05 3.95l-8.45-0.15-0.25-1.4 1.75-2 5.9-0.4m-24.7 13.25 3.35-7.55-3.35 7.55" fill="#e8d1ae" fill-rule="evenodd"/>
<path d="m310.25 211.45q0.9-8.7-5.95-10.55l-0.65 6.1q-1.4-6.6-7.3-7.45l0.25 4.5-7.85-0.8 0.1 1.65m4.15 3.5 3.7-1.25m7.55 11.45 0.95-2.25m4.7 3.6q-4.25 6.85-11 10.6l2-4.4-2.55-6.05-2.8 4.45-0.35-9.5h-0.55q-4.6 0.45-7.55-4.55l3.65-1.25q-1.35-1.5-1.8-3.85m9.4 14.7-1.05-3.3m-6.55-7.55q1.2-0.5 2.25-0.85m24.95 6.9q-0.35-1.7-1.1-3.05m-7 2.05 0.4-2.85q5.35-6.95 12.6-8.5l-3.45 5.35q4.35 0.4 6.2 4.6 0.7 1.65 1.05 3.95l-8.45-0.15q0.6 5.35-2.1 12.4l-4.7-10.05m-0.75-0.4-0.75 1.3m-5.65-1.35-3.35 7.55m17.05-10.85 0.25 1.4" fill="none" stroke="#000" stroke-linecap="round" stroke-linejoin="round" stroke-opacity=".30196" stroke-width=".05"/>
<path d="m307.7 225.65-1.6 0.3 0.9-7.3-4.35 0.85q0.95-5.55 7.35-7.8l-5.95 0.25q1.95-6.55 10.45-7h2.75-2.75q-6.75-3.95-8.15-10.45l5.2 2.45q0.45-4.05 4.6-6.35l0.25 5.35 1.9 1.3 3.6 2.3-1.55 1.55 0.15 0.2 1.3 1.65-0.35 0.6 1.35 0.5 2.35 2.9-4.2 0.8 0.35 1.75 0.3 1.05-0.3 0.05-6.15 2.05 1.05 6.1-2.9-0.2-0.15 0.25-1.95 2.55-2.95 4.1-0.55 0.2m2.35-7.55 1.15 3.25-1.15-3.25m9.15-9.2 2.1 0.6-2.1-0.6m-3.8-10.15q1.3-0.9 2.9-1.5-1.6 0.6-2.9 1.5" fill="#fff" fill-rule="evenodd"/>
<path d="m308.25 225.45 2.95-4.1 1.95-2.55 0.15-0.25 2.9 0.2-1.05-6.1 6.15-2.05 0.3-0.05-0.3-1.05-0.35-1.75 4.2-0.8-2.35-2.9q6.55 2.95 10.1 8.65l-4.25-1.2-5.95 3.2q2.2 0.8 4.3 1.95l-9.25 1.7v0.5q0.4 4.2-4.55 7.65l-1.15-3.2q-1.55 1.5-3.8 2.15m11.25-9.3 3.2-1.45-3.2 1.45m-8.3 5.2 0.85 1.95-0.85-1.95m10.6-18.4-1.3-1.65-0.15-0.2 1.55-1.55-3.6-2.3 1.4-0.4q5.2-1.3 12.1 0.2l-9.95 5.75-0.05 0.15m-5.65-12.35q1.6-1 3.85-1.6l-0.3 7.85-1.4 0.4-1.9-1.3-0.25-5.35m12.5 20.9-7.35-2 7.35 2" fill="#e8d1ae" fill-rule="evenodd"/>
<path d="m314.5 204.95q-8.5 0.45-10.45 7l5.95-0.25q-6.4 2.25-7.35 7.8l4.35-0.85-0.9 7.3 1.6-0.3m3.5-4.3-1.15-3.25m12.65-3.4-3.2 1.45m1.8-6.65-2.1-0.6m3.6-4.85q6.55 2.95 10.1 8.65l-4.25-1.2-5.95 3.2q2.2 0.8 4.3 1.95l-9.25 1.7v0.5q0.4 4.2-4.55 7.65l-1.15-3.2q-1.55 1.5-3.8 2.15m3.8-2.15-0.85-1.95m7.1-24.1q-1.6 0.6-2.9 1.5m1.85 6.2h-2.75q-6.75-3.95-8.15-10.45l5.2 2.45q0.45-4.05 4.6-6.35 1.6-1 3.85-1.6l-0.3 7.85q5.2-1.3 12.1 0.2l-9.95 5.75m-0.4 0.75 1.35 0.5m-1.5 5.45 7.35 2m-10.35-14.25 1.4-0.4" fill="none" stroke="#000" stroke-linecap="round" stroke-linejoin="round" stroke-opacity=".30196" stroke-width=".05"/>
<path d="m302.3 189.65 1.15-1.15 5.05 6.05 3.15-3.1q3.6 4.75-0.2 10.05l4.95-3.55q3.55 6.05-3.5 11.2l-2.35 1.6 2.35-1.6q9-0.8 15.45 3.3l-6.5 1.1q2.9 3.35 1.15 7.4l-4.6-3.9-2.65 0.1-4.95 0.25 0.1-2.05-0.3-0.05-2.4-0.5-0.2-0.6-1.6 0.3-4.35-0.85 3-3q-0.75-0.55-1.7-1.05l-1.1-0.7 0.25-0.2 3.7-5.05-5.8-4 2.75-1.5-0.1-0.25-0.35-3-0.7-4.85 0.3-0.4m4 7.05-3.6-1.8 3.6 1.8m-0.6 12.1-2.35 0.8 2.35-0.8m11.45 5.6q-0.5 1.4-1.4 2.75 0.9-1.35 1.4-2.75" fill="#fff" fill-rule="evenodd"/>
<path d="m302 190.05 0.7 4.85 0.35 3 0.1 0.25-2.75 1.5 5.8 4-3.7 5.05-0.25 0.2 1.1 0.7q0.95 0.5 1.7 1.05l-3 3 4.35 0.85q-8 1.5-15.7-0.8l4.7-1.5 2.6-5.8-5.35 0.95 6.8-6.5-0.45-0.4q-3.65-2.9-2.15-8.35 1.75 0.85 3.55 1.8 0.15-2 1.6-3.85m-2.4 13.45-1.6 2.9 1.6-2.9m3.1-8.6-2.3-1 2.3 1m5.5 19.9 2.4 0.5 0.3 0.05-0.1 2.05 4.95-0.25-0.9 1.05q-3.45 3.95-10.65 6.7 1.95-5 4.05-9.9l-0.05-0.2m14.8 6.15-2.15 3.4-6-6.15 0.9-1.05 2.65-0.1 4.6 3.9m-27.6-8.75 7.95-2.6-7.95 2.6" fill="#e8d1ae" fill-rule="evenodd"/>
<path d="m312.9 209.15q7.05-5.15 3.5-11.2l-4.95 3.55q3.8-5.3 0.2-10.05l-3.15 3.1-5.05-6.05-1.15 1.15m0.4 5.25 3.6 1.8m-8.3 9.7 1.6-2.9m3.75 6.1 2.35-0.8m0.7 5.7q-8 1.5-15.7-0.8l4.7-1.5 2.6-5.8-5.35 0.95 6.8-6.5-0.45-0.4q-3.65-2.9-2.15-8.35 1.75 0.85 3.55 1.8 0.15-2 1.6-3.85m-1.6 3.85 2.3 1m13.05 22.25q0.9-1.35 1.4-2.75m-6.6-3.65 2.35-1.6q9-0.8 15.45 3.3l-6.5 1.1q2.9 3.35 1.15 7.4l-2.15 3.4-6-6.15q-3.45 3.95-10.65 6.7 1.95-5 4.05-9.9m-0.25-0.8-1.6 0.3m-3.05-4.9-7.95 2.6m20.35 4.95-0.9 1.05" fill="none" stroke="#000" stroke-linecap="round" stroke-linejoin="round" stroke-opacity=".30196" stroke-width=".05"/>
<path d="m267.75 182.95q1.1-1.5 7.35-2.1 6.3-0.6 10.1 0.8 3.75 1.35 9.55 4.05 5.7 2.6 11.85 8 0.7 3.15-0.8 5.95l-13.25 3.5q-2.2 1.15-4.3 1.65 3.8 0.1-0.3 1.7-15.05-10.35-11.45-15.15-5.35 6.05-8.75-8.4" fill="#d90000" fill-rule="evenodd"/>
<path d="m267.75 182.95q3.4 14.45 8.75 8.4-3.6 4.8 11.45 15.15 4.1-1.6 0.3-1.7 2.1-0.5 4.3-1.65l13.25-3.5q-4.9 2.65-8.4 6.15-5.85 5.75-9.05 6-3.35 0.3-5.7-0.8-2.45-1-5.75-4.75-3.3-3.8-4.4-5.7-1.2-1.9-1.65-3.6-6.05-2.8-3.1-14" fill="#8d0000" fill-rule="evenodd"/>
<path d="m305.8 199.65q1.5-2.8 0.8-5.95-6.15-5.4-11.85-8-5.8-2.7-9.55-4.05-3.8-1.4-10.1-0.8-6.25 0.6-7.35 2.1m38.05 16.7q-4.9 2.65-8.4 6.15-5.85 5.75-9.05 6-3.35 0.3-5.7-0.8-2.45-1-5.75-4.75-3.3-3.8-4.4-5.7-1.2-1.9-1.65-3.6-6.05-2.8-3.1-14" fill="none" stroke="#000" stroke-linecap="round" stroke-linejoin="round" stroke-opacity=".30196" stroke-width=".05"/>
<path d="m251.95 179.75-0.05-0.6 3.55 0.35v-1.65q2.7 0.35 3.15 2.75l0.45-2.2q3.1 0.75 2.45 3.95l-0.2 1 0.2-1q2.6-2.55 6-3.05l-1.75 1.9q2 0.2 2.75 1.75l-2.7 0.1-0.8 0.75-1.5 1.3-0.65-0.6-0.1 0.05-0.95 0.5-0.25-0.1-0.4 0.45-1.65 0.9v-1.55l-0.9 0.1-0.55 0.15 0.05-0.15-0.45-2.3-3.15 0.35 0.4-1.05-0.1-0.05-1.1-0.75-1.75-1.1v-0.2m3.5 0.85-1.75 0.45 1.75-0.45m3.65 3.5-0.5 0.75 0.5-0.75m5.4-1.45 0.5 1.15-0.5-1.15" fill="#fff" fill-rule="evenodd"/>
<path d="m251.95 179.95 1.75 1.1 1.1 0.75 0.1 0.05-0.4 1.05 3.15-0.35 0.45 2.3-0.05 0.15 0.55-0.15 0.9-0.1v1.55l1.65-0.9q-2.05 2.45-5.25 3.8l1-1.6-1-2.2-1.4 1.65 0.1-3.5-0.25-0.05q-2.15 0.15-3.35-1.7l1.65-0.45q-0.55-0.55-0.7-1.4m3.5 4.2 0.45 1.25-0.45-1.25m-1.75-3.1-1.05 0.3 1.05-0.3m8.1 4 0.95-0.5 0.1-0.05 0.65 0.6 1.5-1.3 0.05 0.5q0.15 1.95-1.25 4.5l-1.9-3.7-0.1-0.05m6.7-2.1 0.4 1.5-3.85-0.15-0.05-0.5 0.8-0.75 2.7-0.1m-11.6 4.65 1.7-2.75-1.7 2.75" fill="#e8d1ae" fill-rule="evenodd"/>
<path d="m261.5 182.35q0.65-3.2-2.45-3.95l-0.45 2.2q-0.45-2.4-3.15-2.75v1.65l-3.55-0.35 0.05 0.6m1.75 1.3 1.75-0.45m0.45 4.8-0.45-1.25m3.15 0.7 0.5-0.75m2.05 1.3q-2.05 2.45-5.25 3.8l1-1.6-1-2.2-1.4 1.65 0.1-3.5-0.25-0.05q-2.15 0.15-3.35-1.7l1.65-0.45q-0.55-0.55-0.7-1.4m0.7 1.4 1.05-0.3m11.3 2.75-0.5-1.15m-3.2 0.7 0.2-1q2.6-2.55 6-3.05l-1.75 1.9q2 0.2 2.75 1.75l0.4 1.5-3.85-0.15q0.15 1.95-1.25 4.5l-1.9-3.7m-0.35-0.15-0.4 0.45m-2.55-0.55-1.7 2.75m8.1-3.8 0.05 0.5" fill="none" stroke="#000" stroke-linecap="round" stroke-linejoin="round" stroke-opacity=".30196" stroke-width=".05"/>
<path d="m260.05 187.5-0.75 0.15 0.6-2.7-2 0.25q0.55-2 3.55-2.8l-2.75 0.05q1.05-2.35 4.9-2.5l1.3 0.05-1.3-0.05q-2.95-1.5-3.5-3.85l2.4 0.95q0.25-1.5 2.2-2.3v1.95l0.85 0.5 1.55 0.9-0.7 0.5 0.05 0.1 0.55 0.6-0.15 0.25 0.55 0.15 1.05 1.1-1.95 0.25 0.25 1-0.15 0.05-2.9 0.7 0.4 2.25-1.35-0.1-0.05 0.1-0.95 0.9-1.45 1.5-0.25 0.05m1.25-2.75 0.45 1.2-0.45-1.2m4.4-3.3 0.95 0.2-0.95-0.2m-1.5-3.75 1.35-0.5-1.35 0.5" fill="#fff" fill-rule="evenodd"/>
<path d="m260.3 187.45 1.45-1.5 0.95-0.9 0.05-0.1 1.35 0.1-0.4-2.25 2.9-0.7 0.15-0.05-0.25-1 1.95-0.25-1.05-1.1q2.95 1.15 4.45 3.25l-1.9-0.45-2.8 1.1q1 0.3 1.95 0.75l-4.3 0.55v0.2q0.05 1.55-2.25 2.8l-0.45-1.2q-0.7 0.55-1.8 0.75m5.3-3.35 1.55-0.5-1.55 0.5m-3.85 1.85 0.35 0.75-0.35-0.75m5.25-6.65-0.55-0.6-0.05-0.1 0.7-0.5-1.55-0.9 0.65-0.15 5.5 0.15-4.65 2.05-0.05 0.05m-2.3-4.55q0.75-0.35 1.8-0.55l-0.3 2.85-0.65 0.15-0.85-0.5v-1.95m5.25 7.75-3.3-0.85 3.3 0.85" fill="#e8d1ae" fill-rule="evenodd"/>
<path d="m263.6 179.95q-3.85 0.15-4.9 2.5l2.75-0.05q-3 0.8-3.55 2.8l2-0.25-0.6 2.7 0.75-0.15m1.7-1.55-0.45-1.2m6.1-5.05q2.95 1.15 4.45 3.25l-1.9-0.45-2.8 1.1q1 0.3 1.95 0.75l-4.3 0.55v0.2q0.05 1.55-2.25 2.8l-0.45-1.2q-0.7 0.55-1.8 0.75m6.85-3.85-1.55 0.5m1.05-2.45-0.95-0.2m-3.6 5.25-0.35-0.75m3.8-8.75-1.35 0.5m0.7 2.3-1.3-0.05q-2.95-1.5-3.5-3.85l2.4 0.95q0.25-1.5 2.2-2.3 0.75-0.35 1.8-0.55l-0.3 2.85 5.5 0.15-4.65 2.05m-0.2 0.3 0.55 0.15m-0.75 1.95 3.3 0.85m-4.4-5.3 0.65-0.15" fill="none" stroke="#000" stroke-linecap="round" stroke-linejoin="round" stroke-opacity=".30196" stroke-width=".05"/>
<path d="m258.55 174.25 0.55-0.45 2.2 2.3 1.5-1.15q1.5 1.8-0.35 3.7l2.35-1.25q1.5 2.25-1.85 4.05l-1.1 0.55 1.1-0.55q4.1-0.2 6.95 1.35l-2.95 0.35q1.25 1.25 0.35 2.7l-2-1.45h-1.25l-2.25 0.05 0.15-0.7-0.2-0.05-1.05-0.2-0.1-0.25-0.7 0.15-2-0.4 1.45-1.05-0.75-0.4-0.5-0.25 1.95-1.95-2.6-1.45 1.3-0.55-0.05-0.05-0.1-1.1-0.2-1.85 0.15-0.1m1.65 2.6-1.6-0.65 1.6 0.65m-0.5 4.45-1.1 0.25 1.1-0.25m5.05 2.1-0.7 1 0.7-1" fill="#fff" fill-rule="evenodd"/>
<path d="m258.4 174.35 0.2 1.85 0.1 1.1 0.05 0.05-1.3 0.55 2.6 1.45-1.95 1.95 0.5 0.25 0.75 0.4-1.45 1.05 2 0.4-7.15-0.45 2.15-0.5 1.3-2.1-2.45 0.35 3.2-2.4-0.15-0.1q-1.6-1.15-0.75-3.1l1.5 0.65q0.15-0.7 0.85-1.4m-1.4 4.95-0.8 1.05 0.8-1.05m1.6-3.1-1.05-0.45 1.05 0.45m2.1 7.3 1.05 0.2 0.2 0.05-0.15 0.7 2.25-0.05-0.4 0.4q-1.65 1.4-5 2.4l2.05-3.65v-0.05m6.6 2.35-1.05 1.25-2.6-2.3 0.4-0.4h1.25l2 1.45m-12.4-3.4 3.7-0.9-3.7 0.9" fill="#e8d1ae" fill-rule="evenodd"/>
<path d="m262.95 181.45q3.35-1.8 1.85-4.05l-2.35 1.25q1.85-1.9 0.35-3.7l-1.5 1.15-2.2-2.3-0.55 0.45m0.05 1.95 1.6 0.65m-0.3 6.55-7.15-0.45 2.15-0.5 1.3-2.1-2.45 0.35 3.2-2.4-0.15-0.1q-1.6-1.15-0.75-3.1l1.5 0.65q0.15-0.7 0.85-1.4m-2.2 6 0.8-1.05m1.6 2.25 1.1-0.25m-2.15-5.55 1.05 0.45m5.45 8.2 0.7-1m-2.9-1.4 1.1-0.55q4.1-0.2 6.95 1.35l-2.95 0.35q1.25 1.25 0.35 2.7l-1.05 1.25-2.6-2.3q-1.65 1.4-5 2.4l2.05-3.65m-0.1-0.3-0.7 0.15m-1.3-1.85-3.7 0.9m9.15 1.95-0.4 0.4" fill="none" stroke="#000" stroke-linecap="round" stroke-linejoin="round" stroke-opacity=".30196" stroke-width=".05"/>
<path d="m291.45 200.8q0.1-0.75 0.35-1.4l6.2 0.7 0.8-3.85q4.6 0.75 4.25 6.3l1.95-5.1q5.15 1.55 2.45 8.95l-1 2.35 1-2.35q6-5.9 12.25-7.3l-4.05 4.6q3.45 0.35 4 3.85l-4.9 0.35-1.8 1.7-3.35 3.1-0.8-1.3-0.3 0.15-1.9 1.15-0.4-0.25-0.95 1.1q-1.75 1-3.45 2.15l0.8-3.65-1.65 0.3-1.1 0.3 0.1-0.3 0.4-5.35-5.8 1.05 1.2-2.55-0.15-0.1-1.55-1.65-2.6-2.5v-0.45m5.95 1.9-3.35 1.05 3.35-1.05m4.8 7.8-1.25 1.85 1.25-1.85m10.45-3.45q0.35 1.15 0.3 2.55 0.05-1.4-0.3-2.55" fill="#fff" fill-rule="evenodd"/>
<path d="m291.45 201.25 2.6 2.5 1.55 1.65 0.15 0.1-1.2 2.55 5.8-1.05-0.4 5.35-0.1 0.3 1.1-0.3 1.65-0.3-0.8 3.65q1.7-1.15 3.45-2.15-5 5.7-11.4 8.95l2.65-3.75-0.7-5.1-3.3 3.8 1.85-8.1-0.45 0.05q-3.85 0.4-5.15-3.85l3.3-1.05q-0.8-1.3-0.6-3.25m4.25 9.65 0.1 2.75-0.1-2.75m10.9 1.8 1.9-1.15 0.3-0.15 0.8 1.3 3.35-3.1-0.15 1.2q-0.7 4.5-4.55 10.5l-1.55-8.5-0.1-0.1m-12.55-8.95-2 0.75 2-0.75m25.6 3.8q0.2 1.45 0 3.4l-6.85-0.15 0.15-1.2 1.8-1.7 4.9-0.35m-18.7 4.8-4.45 6.4 4.45-6.4" fill="#e8d1ae" fill-rule="evenodd"/>
<path d="m307.45 206.4q2.7-7.4-2.45-8.95l-1.95 5.1q0.35-5.55-4.25-6.3l-0.8 3.85-6.2-0.7q-0.25 0.65-0.35 1.4m2.6 2.95 3.35-1.05m7.85 10.85q-5 5.7-11.4 8.95l2.65-3.75-0.7-5.1-3.3 3.8 1.85-8.1-0.45 0.05q-3.85 0.4-5.15-3.85l3.3-1.05q-0.8-1.3-0.6-3.25m4.35 12.4-0.1-2.75m5.25 1.45 1.25-1.85m3.05 3.05 0.95-1.1m6.75-2.85q0.05-1.4-0.3-2.55m-20.6-2.55 2-0.75m12.4 5 1-2.35q6-5.9 12.25-7.3l-4.05 4.6q3.45 0.35 4 3.85 0.2 1.45 0 3.4l-6.85-0.15q-0.7 4.5-4.55 10.5l-1.55-8.5m6.25-3.2-0.15 1.2m-16.3 7.95 4.45-6.4" fill="none" stroke="#000" stroke-linecap="round" stroke-linejoin="round" stroke-opacity=".30196" stroke-width=".05"/>
<path d="m302.25 218.35-1.4 0.3 2.4-6.25-3.8 0.75q2.05-4.7 7.8-6.6l-4.9 0.2q3.05-5.5 10.1-5.85l2.25-0.05-2.25 0.05q-4.6-3.35-4.3-8.9l3.7 2.1q1.25-3.45 5.15-5.4l-0.95 4.55 1.25 1.1 2.35 1.95q-0.85 0.65-1.6 1.25l0.1 0.25 0.7 1.35-0.4 0.5 0.95 0.45 1.25 2.45-3.55 0.65-0.1 1.5v0.9l-0.3 0.05-5.5 1.75-0.5 5.15-2.35-0.15-2.3 2.3-3.35 3.5-0.45 0.15m3.6-6.4 0.2 2.75-0.2-2.75m9.5-7.75 1.65 0.5-1.65-0.5m-0.8-8.6q1.3-0.75 2.75-1.25-1.45 0.5-2.75 1.25" fill="#fff" fill-rule="evenodd"/>
<path d="m302.7 218.2 3.35-3.5 2.3-2.3 2.35 0.15 0.5-5.15 5.5-1.75 0.3-0.05v-0.9l0.1-1.5 3.55-0.65-1.25-2.45q4.7 2.5 6.3 7.35l-3.2-1.05-5.55 2.7q1.6 0.65 3.1 1.65l-8 1.4-0.1 0.5q-0.65 3.5-5.45 6.45l-0.25-2.75q-1.55 1.3-3.55 1.85m3.35-3.5 0.2 1.65-0.2-1.65m7.9-4.35 3-1.25-3 1.25m4.9-11.2-0.7-1.35-0.1-0.25q0.75-0.6 1.6-1.25l-2.35-1.95 1.2-0.35q4.55-1.1 9.85 0.15l-9.4 4.85-0.1 0.15m-1.85-10.45q1.55-0.8 3.55-1.35-1.1 3.35-2.05 6.65l-1.2 0.35-1.25-1.1 0.95-4.55m5.5 17.7-5.5-1.7 5.5 1.7" fill="#e8d1ae" fill-rule="evenodd"/>
<path d="m312.45 200.9q-7.05 0.35-10.1 5.85l4.9-0.2q-5.75 1.9-7.8 6.6l3.8-0.75-2.4 6.25 1.4-0.3m3.8-3.65-0.2-2.75m11.15-7.25-1.65-0.5m4.05-4.1q4.7 2.5 6.3 7.35l-3.2-1.05-5.55 2.7q1.6 0.65 3.1 1.65l-8 1.4-0.1 0.5q-0.65 3.5-5.45 6.45l-0.25-2.75q-1.55 1.3-3.55 1.85m14.25-9.1-3 1.25m-7.7 6-0.2-1.65m11.25-20.35q-1.45 0.5-2.75 1.25m0.15 5.25-2.25 0.05q-4.6-3.35-4.3-8.9l3.7 2.1q1.25-3.45 5.15-5.4 1.55-0.8 3.55-1.35-1.1 3.35-2.05 6.65 4.55-1.1 9.85 0.15l-9.4 4.85m-0.5 0.65 0.95 0.45m-2.4 4.6 5.5 1.7m-5.2-12.05 1.2-0.35" fill="none" stroke="#000" stroke-linecap="round" stroke-linejoin="round" stroke-opacity=".30196" stroke-width=".05"/>
<path d="m305.95 187.95 1.2-1 2.75 5.15q1.55-1.3 3.25-2.65 1.9 4-2.45 8.5l4.85-2.95q1.55 5.1-5.3 9.4l-2.35 1.35 2.35-1.35q7.5-0.65 11.8 2.8l-5.55 0.95q1.65 2.8-0.7 6.25l-2.85-3.3-2.3 0.1-4 0.15 0.55-1.7h-0.25l-1.9-0.45v-0.55l-1.35 0.3-3.35-0.75 3.1-2.5-1.1-0.9-0.8-0.55 4.45-4.45-3.85-3.45 2.55-1.25v-0.2l0.35-2.5 0.55-4.1 0.35-0.35m1.65 5.95-2.55-1.5 2.55 1.5m-3.2 10.2-2.05 0.7 2.05-0.7m8.05 4.75-1.8 2.35 1.8-2.35" fill="#fff" fill-rule="evenodd"/>
<path d="m305.6 188.3-0.55 4.1-0.35 2.5v0.2l-2.55 1.25 3.85 3.45-4.45 4.45 0.8 0.55 1.1 0.9-3.1 2.5 3.35 0.75q-6.9 1.25-12.65-0.7l4.15-1.25 3.45-4.9-4.55 0.85 6.95-5.55-0.25-0.35q-2.3-2.5 0.15-7.05l2.55 1.5q0.55-1.65 2.1-3.2m-0.55 4.1-1.55-0.9 1.55 0.9m-4.4 7.2-2 2.5 2-2.5m4.4 9.6 1.9 0.45h0.25l-0.55 1.7 4-0.15-0.9 0.9q-3.7 3.3-10.2 5.65l5.5-8.4v-0.15m10.75 5.2-2.55 2.85-3.5-5.15 0.9-0.9 2.3-0.1 2.85 3.3m-20.6-7.4 7.15-2.2-7.15 2.2" fill="#e8d1ae" fill-rule="evenodd"/>
<path d="m310.25 204.4q6.85-4.3 5.3-9.4l-4.85 2.95q4.35-4.5 2.45-8.5-1.7 1.35-3.25 2.65l-2.75-5.15-1.2 1m-0.9 4.45 2.55 1.5m-5.25 10.9 2.05-0.7m-0.7 4.85q-6.9 1.25-12.65-0.7l4.15-1.25 3.45-4.9-4.55 0.85 6.95-5.55-0.25-0.35q-2.3-2.5 0.15-7.05l2.55 1.5q0.55-1.65 2.1-3.2m-6.95 13.8 2-2.5m2.85-8.1 1.55 0.9m5.6 18.8 1.8-2.35m-4.55-3.1 2.35-1.35q7.5-0.65 11.8 2.8l-5.55 0.95q1.65 2.8-0.7 6.25l-2.55 2.85-3.5-5.15q-3.7 3.3-10.2 5.65l5.5-8.4m0-0.7-1.35 0.3m-1.35-4.15-7.15 2.2m15.45 4.2-0.9 0.9" fill="none" stroke="#000" stroke-linecap="round" stroke-linejoin="round" stroke-opacity=".30196" stroke-width=".05"/>
<path d="m308.1 186.2q-0.15 4.2 3.05 8.25l3.2 0.7-0.8-5.05q-2-4.6-5.45-3.9" fill="#82bc24" fill-rule="evenodd"/>
<path d="m312.15 191.95 1.45 3.45 3.4-4.05q2.25-4.85-0.45-7.6-3.35 2.65-4.4 8.2" fill="#4d8700" fill-rule="evenodd"/>
<path d="m319.8 184.55q-4.1 1.55-6.65 6.7l0.6 3.95 4.45-3q3.55-4.05 1.6-7.65" fill="#82bc24" fill-rule="evenodd"/>
<path d="m270.85 208.05q0.1-0.7 0.35-1.3l6.2 2.6 0.8-3.55q4.6 2.15 4.25 7.6l1.95-4.6q5.15 3.15 2.45 9.7l-1 2.15 1-2.15q6-4.05 12.25-3.5-2 1.6-4.05 3.35 3.45 1.3 4 5.05l-4.9-1.15q-0.9 0.5-1.8 1.15l-3.35 2.1-0.8-1.55-0.3 0.05-1.9 0.6-0.4-0.4-0.95 0.85q-1.75 0.45-3.45 1.05l0.8-3.4-1.65-0.15-1.1-0.05 0.1-0.25 0.4-5.25-5.8-0.75 1.2-2.15-0.15-0.15-1.55-2.1-2.6-3.35v-0.45m5.95 3.75-3.35 0.05 3.35-0.05m4.8 9.25-1.25 1.5 1.25-1.5m10.45-0.25q0.35 1.2 0.3 2.6 0.05-1.4-0.3-2.6" fill="#fff" fill-rule="evenodd"/>
<path d="m270.85 208.5 2.6 3.35 1.55 2.1 0.15 0.15-1.2 2.15 5.8 0.75-0.4 5.25-0.1 0.25 1.1 0.05 1.65 0.15-0.8 3.4q1.7-0.6 3.45-1.05-5 4.2-11.4 5.5l2.65-2.95-0.7-5.3-3.3 2.75 1.85-7.5-0.45-0.15q-3.85-0.75-5.15-5.35l3.3-0.1q-0.8-1.5-0.6-3.45m4.25 10.95 0.1 2.85-0.1-2.85m10.9 5.15 1.9-0.6 0.3-0.05 0.8 1.55 3.35-2.1-0.15 1.1q-0.7 4.3-4.55 9.15l-1.55-8.95-0.1-0.1m-12.55-12.75-2 0.1 2-0.1m25.6 11.55q0.2 1.5 0 3.35l-6.85-2.25 0.15-1.1q0.9-0.65 1.8-1.15l4.9 1.15m-18.7-0.85-4.45 5.05 4.45-5.05" fill="#e8d1ae" fill-rule="evenodd"/>
<path d="m286.85 218.5q2.7-6.55-2.45-9.7l-1.95 4.6q0.35-5.45-4.25-7.6l-0.8 3.55-6.2-2.6q-0.25 0.6-0.35 1.3m2.6 3.8 3.35-0.05m-1.6 10.5-0.1-2.85m5.25 3.1 1.25-1.5m3.05 4 0.95-0.85m6.75-0.8q0.05-1.4-0.3-2.6m-7.4 4.25q-5 4.2-11.4 5.5l2.65-2.95-0.7-5.3-3.3 2.75 1.85-7.5-0.45-0.15q-3.85-0.75-5.15-5.35l3.3-0.1q-0.8-1.5-0.6-3.45m0.6 3.45 2-0.1m12.4 8.8 1-2.15q6-4.05 12.25-3.5-2 1.6-4.05 3.35 3.45 1.3 4 5.05 0.2 1.5 0 3.35l-6.85-2.25q-0.7 4.3-4.55 9.15l-1.55-8.95m6.25-1.3-0.15 1.1m-16.3 3.1 4.45-5.05" fill="none" stroke="#000" stroke-linecap="round" stroke-linejoin="round" stroke-opacity=".30196" stroke-width=".05"/>
<path d="m281.65 228.95-1.4-0.15 2.4-5.5-3.8-0.4q2.05-4.1 7.8-4.25l-4.9-1.25q3.05-4.65 10.1-2.9l2.25 0.65-2.25-0.65q-4.6-4.7-4.3-10.1l3.7 3.15q1.25-3 5.15-3.8l-0.95 4.25 1.25 1.5 2.35 2.7-1.6 0.75 0.1 0.25 0.7 1.6-0.4 0.35 0.95 0.75 1.25 2.85-3.55-0.45-0.1 1.4v0.95l-0.3-0.05-5.5 0.1-0.5 5-2.35-0.9-0.15 0.15-2.15 1.5-3.35 2.5h-0.45m3.6-5.35 0.2 2.85-0.2-2.85m9.5-4.85 1.65 0.95-1.65-0.95m-0.8-8.85 2.75-0.4-2.75 0.4" fill="#fff" fill-rule="evenodd"/>
<path d="m282.1 228.95 3.35-2.5 2.15-1.5 0.15-0.15 2.35 0.9 0.5-5 5.5-0.1 0.3 0.05v-0.95l0.1-1.4 3.55 0.45-1.25-2.85q4.7 3.9 6.3 9.25l-3.2-2-5.55 1 3.1 2.6-8-1-0.1 0.4q-0.65 3.35-5.45 4.8l-0.25-2.75q-1.55 0.75-3.55 0.75m11.25-4.45 3-0.35-3 0.35m4.9-9.7-0.7-1.6-0.1-0.25 1.6-0.75-2.35-2.7h1.2q4.55 0.25 9.85 3.15l-9.4 2.05-0.1 0.1m-12.8 11.65 0.2 1.75-0.2-1.75m10.95-22.7 3.55-0.25-2.05 6h-1.2l-1.25-1.5 0.95-4.25m0 15.95 5.5 3.45-5.5-3.45" fill="#e8d1ae" fill-rule="evenodd"/>
<path d="m291.85 214.5q-7.05-1.75-10.1 2.9l4.9 1.25q-5.75 0.15-7.8 4.25l3.8 0.4-2.4 5.5 1.4 0.15m3.8-2.5-0.2-2.85m13.55-7.7q4.7 3.9 6.3 9.25l-3.2-2-5.55 1 3.1 2.6-8-1-0.1 0.4q-0.65 3.35-5.45 4.8l-0.25-2.75q-1.55 0.75-3.55 0.75m14.25-4.8-3 0.35m3.05-4.8-1.65-0.95m4.05-2.85-0.95-0.75m-1.15-5.65-2.75 0.4m-8.3 18.3-0.2-1.75m8.65-11.3-2.25-0.65q-4.6-4.7-4.3-10.1l3.7 3.15q1.25-3 5.15-3.8l3.55-0.25-2.05 6q4.55 0.25 9.85 3.15l-9.4 2.05m-1.65-5.2h1.2m4 13.65-5.5-3.45" fill="none" stroke="#000" stroke-linecap="round" stroke-linejoin="round" stroke-opacity=".30196" stroke-width=".05"/>
<path d="m285.35 199.65q0.55-0.4 1.2-0.65l2.75 6q1.55-0.9 3.25-1.7 1.9 4.6-2.45 7.8l4.85-1.55q1.55 5.65-5.3 7.9l-2.35 0.6 2.35-0.6q7.5 1.55 11.8 6.35l-5.55-0.75q1.65 3.25-0.7 6.05l-2.85-4.2-2.3-0.55-4-1.05 0.55-1.55-0.25-0.15-1.9-1v-0.55l-1.35-0.1q-1.65-0.9-3.35-1.7l3.1-1.6-1.1-1.25-0.8-0.8 0.25-0.15 4.2-2.95-3.85-4.55 2.55-0.55v-0.2l0.35-2.4 0.55-3.9 0.35-0.25m1.65 6.45-2.55-2.3 2.55 2.3m-3.2 9.25-2.05 0.05 2.05-0.05m8.05 7.15-1.8 1.85 1.8-1.85" fill="#fff" fill-rule="evenodd"/>
<path d="m285 199.9-0.55 3.9-0.35 2.4v0.2l-2.55 0.55 3.85 4.55-4.2 2.95-0.25 0.15 0.8 0.8 1.1 1.25-3.1 1.6q1.7 0.8 3.35 1.7-6.9-0.85-12.65-4.55l4.15 0.05 3.45-3.85-4.55-0.55 6.95-3.4-0.25-0.45q-2.3-3.2 0.15-7l2.55 2.2q0.55-1.45 2.1-2.5m-4.95 9.8-2 1.9 2-1.9m4.4 10.9 1.9 1 0.25 0.15-0.55 1.55 4 1.05-0.9 0.6q-3.7 2.2-10.2 2.6l5.5-6.8v-0.15m0-16.8-1.55-1.4 1.55 1.4m10.75 25.3-2.55 2.1-3.5-6.25 0.9-0.6 2.3 0.55 2.85 4.2m-13.45-13.7-7.15 0.05 7.15-0.05" fill="#e8d1ae" fill-rule="evenodd"/>
<path d="m289.65 217.45q6.85-2.25 5.3-7.9l-4.85 1.55q4.35-3.2 2.45-7.8-1.7 0.8-3.25 1.7l-2.75-6q-0.65 0.25-1.2 0.65m-0.9 4.15 2.55 2.3m-3.9 13.85q-6.9-0.85-12.65-4.55l4.15 0.05 3.45-3.85-4.55-0.55 6.95-3.4-0.25-0.45q-2.3-3.2 0.15-7l2.55 2.2q0.55-1.45 2.1-2.5m-6.95 11.7 2-1.9m1.7 5.7 2.05-0.05m-0.7 4.6 1.35 0.1m5.6 4.3 1.8-1.85m-8.95-20.1 1.55 1.4m2.85 14.25 2.35-0.6q7.5 1.55 11.8 6.35l-5.55-0.75q1.65 3.25-0.7 6.05l-2.55 2.1-3.5-6.25q-3.7 2.2-10.2 2.6l5.5-6.8m5.6 3.6-0.9 0.6m-14.55-9.5 7.15-0.05" fill="none" stroke="#000" stroke-linecap="round" stroke-linejoin="round" stroke-opacity=".30196" stroke-width=".05"/>
<path d="m268.7 211.9q4.25-0.25 8.35 2.85l0.8 3.2-5.1-0.75q-4.6-1.9-4.05-5.3" fill="#82bc24" fill-rule="evenodd"/>
<path d="m274.55 215.75 3.45 1.4-4 3.5q-4.75 2.35-7.6-0.3 2.6-3.4 8.15-4.6" fill="#4d8700" fill-rule="evenodd"/>
<path d="m267.35 223.6q1.45-4.15 6.55-6.75l3.9 0.5-2.9 4.5q-3.95 3.65-7.55 1.75" fill="#82bc24" fill-rule="evenodd"/>
<path d="m282.8 202.65 0.95-0.4 1.5 4.5 2.4-1.15q1 3.45-2.25 5.65l3.5-0.95q0.7 4.1-4.3 5.55l-1.7 0.35 1.7-0.35q5.2 1.45 7.95 5.1l-3.9-0.75q0.9 2.45-1 4.4l-1.7-3.15-1.5-0.5-2.8-0.9 0.5-1.1-0.15-0.1-1.25-0.8v-0.4l-0.95-0.15-2.2-1.35 2.25-1.1-0.7-0.95-0.45-0.6 0.15-0.1 3.15-2.05-2.35-3.45 1.85-0.3v-0.15l0.45-1.75 0.6-2.85 0.25-0.2m-2.15 11.5-1.5-0.05 1.5 0.05m2.9-6.65-1.6-1.8 1.6 1.8m2.25 12.2-1.35 1.25 1.35-1.25" fill="#fff" fill-rule="evenodd"/>
<path d="m282.55 202.85-0.6 2.85-0.45 1.75v0.15l-1.85 0.3 2.35 3.45-3.15 2.05-0.15 0.1 0.45 0.6 0.7 0.95-2.25 1.1 2.2 1.35q-4.75-0.8-8.6-3.75l2.95 0.15 2.7-2.7-3.2-0.6 5.2-2.25-0.15-0.3q-1.4-2.4 0.55-5.15l1.6 1.75q0.55-1.05 1.7-1.8m-1.8 15.2 1.25 0.8 0.15 0.1-0.5 1.1 2.8 0.9-0.7 0.45q-2.8 1.45-7.4 1.5l4.4-4.75v-0.1m1.2-12.35-1.1-1.05 1.1 1.05m-3.55 4.2-1.55 1.3 1.55-1.3m9.25 14.7-1.9 1.45-2-4.65 0.7-0.45 1.5 0.5 1.7 3.15m-8.5-10.5-5-0.2 5 0.2" fill="#e8d1ae" fill-rule="evenodd"/>
<path d="m284.6 215.85q5-1.45 4.3-5.55l-3.5 0.95q3.25-2.2 2.25-5.65l-2.4 1.15-1.5-4.5-0.95 0.4m-0.85 3.05 1.6 1.8m-4.4 6.6 1.5 0.05m-0.85 3.35 0.95 0.15m3.7 3.3 1.35-1.25m-6-2.2q-4.75-0.8-8.6-3.75l2.95 0.15 2.7-2.7-3.2-0.6 5.2-2.25-0.15-0.3q-1.4-2.4 0.55-5.15l1.6 1.75q0.55-1.05 1.7-1.8m-5.7 8.35 1.55-1.3m2.45-5.25 1.1 1.05m0.95 10.5 1.7-0.35q5.2 1.45 7.95 5.1l-3.9-0.75q0.9 2.45-1 4.4l-1.9 1.45-2-4.65q-2.8 1.45-7.4 1.5l4.4-4.75m3.7 2.8-0.7 0.45m-9.6-7.5 5 0.2" fill="none" stroke="#000" stroke-linecap="round" stroke-linejoin="round" stroke-opacity=".30196" stroke-width=".05"/>
<path d="m276.3 217.55-0.55-0.8 4.25-1.1-1.55-2.25q3.3-0.7 6.15 2.35l-1.65-3.2q4.05-0.4 6.5 4.2l0.7 1.5-0.7-1.5q0.45-4.55 3.7-6.75l-0.05 3.4q2.35-0.65 4.65 1.1l-2.9 1.35-0.2 1.35-0.4 2.4-1.2-0.45-0.1 0.1-0.55 1.1-0.45-0.05 0.05 0.8-1 1.95-1.45-2.15q-0.45 0.25-0.9 0.6l-0.5 0.4-0.15-0.15-2.65-3-3.1 1.95-0.65-1.65-0.15-0.05-1.85-0.5-3.05-0.75-0.25-0.2m4.8-0.35-1.5 1.3 1.5-1.3m7.35 3 0.2 1.3-0.2-1.3m4.6-4.35 1.6 1.35-1.6-1.35" fill="#fff" fill-rule="evenodd"/>
<path d="m276.55 217.75 3.05 0.75 1.85 0.5 0.15 0.05 0.65 1.65 3.1-1.95 2.65 3 0.15 0.15 0.5-0.4q0.45-0.35 0.9-0.6l1.45 2.15 1-1.95q0.05 4.25-2.2 7.45l-0.4-2.6-3.25-2.55v2.75l-3.25-4.7-0.3 0.1q-2.25 1.1-5.4-0.85l1.45-1.3q-1.1-0.55-2.1-1.65m7.95 4.2 1.65 1.45-1.65-1.45m7.9-1.6 0.55-1.1 0.1-0.1 1.2 0.45 0.4-2.4 0.6 0.65q2 2.55 2.9 6.65l-5.65-4.15h-0.1m-12.8-1.85-0.95 0.9 0.95-0.9m18.15-4 1.9 1.8-4.4 1.55-0.6-0.65 0.2-1.35 2.9-1.35m-9.1 7 0.75 4.45-0.75-4.45" fill="#e8d1ae" fill-rule="evenodd"/>
<path d="m289.45 216.75q-2.45-4.6-6.5-4.2l1.65 3.2q-2.85-3.05-6.15-2.35l1.55 2.25-4.25 1.1 0.55 0.8m3.3 0.95 1.5-1.3m5.05 6.2-1.65-1.45m4.15-0.45-0.2-1.3m3.55 0.9-0.05-0.8m2.7-3.1-1.6-1.35m-1.05 5.25q0.05 4.25-2.2 7.45l-0.4-2.6-3.25-2.55v2.75l-3.25-4.7-0.3 0.1q-2.25 1.1-5.4-0.85l1.45-1.3q-1.1-0.55-2.1-1.65m2.1 1.65 0.95-0.9m10.55-0.25-0.7-1.5q0.45-4.55 3.7-6.75l-0.05 3.4q2.35-0.65 4.65 1.1l1.9 1.8-4.4 1.55q2 2.55 2.9 6.65l-5.65-4.15m2.15-3.15 0.6 0.65m-5.85 8.1-0.75-4.45" fill="none" stroke="#000" stroke-linecap="round" stroke-linejoin="round" stroke-opacity=".30196" stroke-width=".05"/>
<path d="m294.8 206.6 0.9 0.35-2 4.15 2.5 1.05q-1.75 3-5.6 2.05l3.2 1.95q-2.45 3.3-7.05 0.55l-1.5-0.95 1.5 0.95q2.7 4.75 2.05 9.2l-2.2-3.35q-1.1 2.25-3.8 2.25l1-3.35-0.75-1.45-1.4-2.7 1.2-0.35-0.1-0.2-0.3-1.45 0.3-0.25-0.55-0.75-0.65-2.6 2.35 1 0.2-1.15 0.1-0.75 0.15 0.05 3.75 0.95 0.75-4.05 1.5 1.15 0.1-0.1 1.55-0.8 2.5-1.45 0.3 0.05m-2.85 3.75 0.05-2.35-0.05 2.35m-6.85 2.3-1-1.1 1 1.1m-0.15 7.45-1.9-0.1 1.9 0.1" fill="#fff" fill-rule="evenodd"/>
<path d="m294.5 206.55-2.5 1.45-1.55 0.8-0.1 0.1-1.5-1.15-0.75 4.05-3.75-0.95-0.15-0.05-0.1 0.75-0.2 1.15-2.35-1 0.65 2.6q-2.9-4.15-3.55-8.85l2 2.3 3.85 0.15-1.9-2.7 5.35 2.3 0.05-0.35q0.7-2.65 4.1-3l-0.05 2.35 2.45 0.05m-8 1.6-2-0.25 2 0.25m-4.05 7.15 0.3 1.45 0.1 0.2-1.2 0.35 1.4 2.7-0.8-0.25q-3.1-1.05-6.35-4.4l6.5 0.05 0.05-0.1m9.55-7.3 0.05-1.5-0.05 1.5m-9.2 16.8-2.4-0.45 1.85-4.6 0.8 0.25 0.75 1.45-1 3.35m1.3-13.25-3.45-3.8 3.45 3.8" fill="#e8d1ae" fill-rule="evenodd"/>
<path d="m286.75 216.7q4.6 2.75 7.05-0.55l-3.2-1.95q3.85 0.95 5.6-2.05l-2.5-1.05 2-4.15-0.9-0.35m-2.8 1.4-0.05 2.35m-7.45-2.45 2 0.25m-2.4 3.4 1 1.1m-2.9 1.65 0.55 0.75m0.3 4.95 1.9 0.1m-2.75-5.8q-2.9-4.15-3.55-8.85l2 2.3 3.85 0.15-1.9-2.7 5.35 2.3 0.05-0.35q0.7-2.65 4.1-3l-0.05 2.35 2.45 0.05m-2.45-0.05-0.05 1.5m-6.75 7.75 1.5 0.95q2.7 4.75 2.05 9.2l-2.2-3.35q-1.1 2.25-3.8 2.25l-2.4-0.45 1.85-4.6q-3.1-1.05-6.35-4.4l6.5 0.05m0.65 4.6-0.8-0.25m-1.6-12 3.45 3.8" fill="none" stroke="#000" stroke-linecap="round" stroke-linejoin="round" stroke-opacity=".30196" stroke-width=".05"/>
<path d="m283.55 224.5-1.35-0.5q-4.05-1.65-5.7-5.5-1.65-4 0-8 1.6-3.95 5.55-5.65 2.45-1.05 5.05-0.7-15.65 9.05-3.55 20.35" fill="#8d0000" fill-rule="evenodd"/>
<path d="m287.1 204.15q1.4 0.1 2.85 0.7 3.95 1.65 5.65 5.55t0.6 7.8q-1.05 3.95-5.05 5.65-4.05 1.7-7.6 0.65-12.1-11.3 3.55-20.35" fill="#e50000" fill-rule="evenodd"/>
<path d="m283.55 224.5-1.35-0.5q-4.05-1.65-5.7-5.5-1.65-4 0-8 1.6-3.95 5.55-5.65 2.45-1.05 5.05-0.7 1.4 0.1 2.85 0.7 3.95 1.65 5.65 5.55t0.6 7.8q-1.05 3.95-5.05 5.65-4.05 1.7-7.6 0.65z" fill="none" stroke="#000" stroke-linecap="round" stroke-linejoin="round" stroke-opacity=".30196" stroke-width=".1"/>
<path d="m291.75 207.55q0.15-0.55 1.75 1.75 1.6 2.2 1.7 4.2 0.05 1.8-0.8 2.9-0.9 1.1-1.95 0.85-1.2-0.35-0.6-1.5 0.45-1.25 0.25-3.85l-0.45-3.2q-0.2-0.7 0.1-1.15" fill="#ffedc4" fill-opacity=".54118" fill-rule="evenodd"/>
<path d="m287.65 202.85 0.9 0.1q1.55 0.45 2.55 1.2 1.1 0.8 0.95 1.5-0.15 0.75-1.45 0.85l-2.75-0.2h-0.1q-1.85-1.75-0.1-3.45" fill="#d33a00" fill-rule="evenodd"/>
<path d="m287.75 206.3q-1.55-0.4-2.55-1.2-1-0.75-0.85-1.5 0.15-0.7 1.35-0.85l1.95 0.1q-1.75 1.7 0.1 3.45" fill="#ab1200" fill-rule="evenodd"/>
<path d="m287.75 206.3q-1.55-0.4-2.55-1.2-1-0.75-0.85-1.5 0.15-0.7 1.35-0.85l1.95 0.1 0.9 0.1q1.55 0.45 2.55 1.2 1.1 0.8 0.95 1.5-0.15 0.75-1.45 0.85l-2.75-0.2z" fill="none" stroke="#000" stroke-linecap="round" stroke-linejoin="round" stroke-opacity=".30196" stroke-width=".1"/>
<path d="m282.1 203.95q3.05-1.75 5.8-0.2 2.7 1.6 3.45 5.6 0.75 4.1-0.9 8.25t-4.7 5.9q-3.1 1.85-5.75 0.3-2.75-1.6-3.5-5.7-0.75-4.05 0.9-8.1 1.6-4.2 4.7-6.05" fill="url(#c)" fill-rule="evenodd"/>
<path d="m290.3 200.9-0.35 3.95-2.5-1.35 1.5-2.8 1.25 0.1 0.1 0.1" fill="#f3811d" fill-rule="evenodd"/>
<path d="m289.95 204.85 0.35-3.95 1.1 0.6-0.9 3.55-0.55-0.2" fill="#ffb82b" fill-rule="evenodd"/>
<path d="m289.95 204.85 0.55 0.2 0.9-3.55-1.1-0.6m-0.1-0.1-1.25-0.1-1.5 2.8 2.5 1.35z" fill="none" stroke="#000" stroke-linecap="round" stroke-linejoin="round" stroke-opacity=".30196" stroke-width=".1"/>
<path d="m310.8 221.55q-0.4-4.25 2.5-8.45l3.2-0.9-0.55 5.1q-1.7 4.65-5.15 4.25" fill="#82bc24" fill-rule="evenodd"/>
<path d="m314.5 215.5 1.25-3.55 3.6 3.85q2.6 4.65 0 7.6-3.45-2.45-4.85-7.9" fill="#4d8700" fill-rule="evenodd"/>
<path d="m322.55 222.45q-4.15-1.3-6.95-6.3l0.3-3.9 4.65 2.7q3.75 3.8 2 7.5" fill="#82bc24" fill-rule="evenodd"/>
<path d="m301.3 199.1 0.4-1.1 5.3 2.55 1.15-3.15q3.9 2.1 3.05 6.95l2.2-4q4.3 3 1.2 8.7l-1.15 1.85 1.15-1.85q5.8-3.4 11.4-2.65l-3.95 2.85q2.9 1.35 3 4.7l-4.25-1.25-1.8 0.9-3.25 1.75-0.55-1.4-0.25 0.05-1.75 0.4-0.35-0.4q-0.5 0.3-1 0.75l-3.15 0.8 1.1-2.95-1.5-0.2-0.95-0.1 0.05-0.25 0.95-4.6-5.15-0.9 1.3-1.9-0.1-0.1-1.15-1.95-2.05-3.05 0.1-0.45m4.95 3.6-3-0.1 3 0.1m3.35 8.4-1.3 1.3 1.3-1.3m9.45 0.15-0.05 2.35 0.05-2.35" fill="#fff" fill-rule="evenodd"/>
<path d="m301.2 199.55 2.05 3.05 1.15 1.95 0.1 0.1-1.3 1.9 5.15 0.9-0.95 4.6-0.05 0.25 0.95 0.1 1.5 0.2-1.1 2.95 3.15-0.8q-4.9 3.55-10.75 4.4l2.65-2.45-0.05-4.75-3.3 2.3 2.5-6.55-0.45-0.2q-3.4-0.85-4.05-4.95l2.95 0.05q-0.5-1.35-0.15-3.05m2.65 9.85q-0.15 1.3-0.15 2.55 0-1.25 0.15-2.55m-0.6-6.8h-1.9 1.9m9.95 11.8 1.75-0.4 0.25-0.05 0.55 1.4 3.25-1.75-0.25 1.05q-1.05 3.75-5.05 7.9l-0.4-8.05-0.1-0.1m11.85-0.45q0.05 1.3-0.3 2.95l-6-2.25 0.25-1.05 1.8-0.9 4.25 1.25m-21.3 2.75 4.55-4.3-4.55 4.3" fill="#e8d1ae" fill-rule="evenodd"/>
<path d="m314.6 209.05q3.1-5.7-1.2-8.7l-2.2 4q0.85-4.85-3.05-6.95l-1.15 3.15-5.3-2.55-0.4 1.1m1.95 3.5 3 0.1m5.6 12.05q-4.9 3.55-10.75 4.4l2.65-2.45-0.05-4.75-3.3 2.3 2.5-6.55-0.45-0.2q-3.4-0.85-4.05-4.95l2.95 0.05q-0.5-1.35-0.15-3.05m2.5 12.4q0-1.25 0.15-2.55m4.45 3 1.3-1.3m-8.25-8.5h1.9m15.75 11 0.05-2.35m-5.6-0.35 1.15-1.85q5.8-3.4 11.4-2.65l-3.95 2.85q2.9 1.35 3 4.7 0.05 1.3-0.3 2.95l-6-2.25q-1.05 3.75-5.05 7.9l-0.4-8.05m-0.45-0.5q-0.5 0.3-1 0.75m-3.55-2.35-4.55 4.3m15.25-3.1-0.25 1.05" fill="none" stroke="#000" stroke-linecap="round" stroke-linejoin="round" stroke-opacity=".30196" stroke-width=".05"/>
<path d="m308.75 217.85-1.3-0.2 2.8-4.75-3.35-0.5q2.25-3.55 7.5-3.45l-4.35-1.35q3.3-3.95 9.4-2.15 1 0.3 2 0.7-1-0.4-2-0.7-3.6-4.35-2.75-9.1l3 2.95q1.45-2.65 5.05-3.2l-1.3 3.75 0.95 1.35 1.9 2.5-1.55 0.65 0.05 0.2 0.4 1.4-0.4 0.35 0.8 0.7 0.85 2.55-3.2-0.55-0.2 1.3-0.1 0.8h-0.25l-4.95-0.2-1.05 4.45-2-0.9-0.15 0.15-2.1 1.2q-1.65 1-3.25 2.1l-0.45-0.05m12.9-8.45 1.4 0.9-1.4-0.9m-9.1 3.9-0.1 2.5 0.1-2.5m9.35-11.85 2.5-0.25-2.5 0.25" fill="#fff" fill-rule="evenodd"/>
<path d="m309.2 217.9q1.6-1.1 3.25-2.1l2.1-1.2 0.15-0.15 2 0.9 1.05-4.45 4.95 0.2h0.25l0.1-0.8 0.2-1.3 3.2 0.55-0.85-2.55q3.8 3.65 4.75 8.45l-2.7-1.9-5.1 0.7 2.5 2.4-7.1-1.2-0.15 0.35q-0.95 2.95-5.4 4.05l0.05-2.45q-1.45 0.6-3.25 0.5m16-11.95-0.4-1.4-0.05-0.2 1.55-0.65-1.9-2.5 1.1 0.1q4.1 0.4 8.5 3.15l-8.7 1.45-0.1 0.05m-12.75 9.85v1.6-1.6m7.35-1.4 2.75-0.15-2.75 0.15m4.95-18.3 3.2-0.1-2.45 5.3-1.1-0.1-0.95-1.35 1.3-3.75m-1.7 14.2 4.6 3.25-4.6-3.25" fill="#e8d1ae" fill-rule="evenodd"/>
<path d="m319.45 205.45q-6.1-1.8-9.4 2.15l4.35 1.35q-5.25-0.1-7.5 3.45l3.35 0.5-2.8 4.75 1.3 0.2m3.7-2.05 0.1-2.5m10.5-3-1.4-0.9m3.95-2.4-0.8-0.7m-0.4-5.1-2.5 0.25m3.7 5.55q3.8 3.65 4.75 8.45l-2.7-1.9-5.1 0.7 2.5 2.4-7.1-1.2-0.15 0.35q-0.95 2.95-5.4 4.05l0.05-2.45q-1.45 0.6-3.25 0.5m13.35-3.65-2.75 0.15m-7.35 3v-1.6m9-9.65q-1-0.4-2-0.7-3.6-4.35-2.75-9.1l3 2.95q1.45-2.65 5.05-3.2l3.2-0.1-2.45 5.3q4.1 0.4 8.5 3.15l-8.7 1.45m-0.9-4.7 1.1 0.1m2.15 12.25-4.6-3.25" fill="none" stroke="#000" stroke-linecap="round" stroke-linejoin="round" stroke-opacity=".30196" stroke-width=".05"/>
<path d="m315 191.95 1.15-0.5 1.9 5.4q1.5-0.7 3.1-1.3 1.2 4.15-3.05 6.75l4.55-1.1q0.85 5-5.65 6.7l-2.1 0.5 2.1-0.5q6.6 1.75 10 6.2l-4.9-0.9q1.1 2.95-1.3 5.3l-2.15-3.8-1.95-0.6-3.55-1.05 0.65-1.35-0.2-0.2-1.55-0.95v-0.45l-1.2-0.2-2.85-1.7 2.95-1.2-0.85-1.2-0.65-0.75 0.3-0.1 4.05-2.5-2.95-4.15 2.35-0.35v-0.2l0.65-2.15 0.85-3.45 0.3-0.2m-3.05 13.9-1.85-0.05 1.85 0.05m3.95-8.1-2.05-2.15 2.05 2.15m2.6 14.8-1.8 1.55 1.8-1.55" fill="#fff" fill-rule="evenodd"/>
<path d="m314.7 192.15-0.85 3.45-0.65 2.15v0.2l-2.35 0.35 2.95 4.15-4.05 2.5-0.3 0.1 0.65 0.75 0.85 1.2-2.95 1.2 2.85 1.7q-6.15-1-10.95-4.55l3.8 0.2 3.5-3.25-4.1-0.7 6.7-2.75-0.2-0.35q-1.75-2.95 0.85-6.25l2.05 2.05q0.65-1.3 2.2-2.15m-2.65 18.4 1.55 0.95 0.2 0.2-0.65 1.35 3.55 1.05-0.95 0.5q-3.55 1.8-9.45 1.85l5.7-5.75 0.05-0.15m1.8-14.95-1.35-1.3 1.35 1.3m-4.65 5.1-2 1.6 2-1.6m11.6 17.8q-1 0.95-2.55 1.8l-2.5-5.7 0.95-0.5 1.95 0.6 2.15 3.8m-10.7-12.7-6.4-0.25 6.4 0.25" fill="#e8d1ae" fill-rule="evenodd"/>
<path d="m317 207.9q6.5-1.7 5.65-6.7l-4.55 1.1q4.25-2.6 3.05-6.75-1.6 0.6-3.1 1.3l-1.9-5.4-1.15 0.5m-1.15 3.65 2.05 2.15m-5.8 8.05 1.85 0.05m-1.1 4.05 1.2 0.2m4.65 4 1.8-1.55m-7.65-2.65q-6.15-1-10.95-4.55l3.8 0.2 3.5-3.25-4.1-0.7 6.7-2.75-0.2-0.35q-1.75-2.95 0.85-6.25l2.05 2.05q0.65-1.3 2.2-2.15m-7.5 10.15 2-1.6m3.3-6.4 1.35 1.3m1.05 12.8 2.1-0.5q6.6 1.75 10 6.2l-4.9-0.9q1.1 2.95-1.3 5.3-1 0.95-2.55 1.8l-2.5-5.7q-3.55 1.8-9.45 1.85l5.7-5.75m4.7 3.4-0.95 0.5m-12.05-9.05 6.4 0.25" fill="none" stroke="#000" stroke-linecap="round" stroke-linejoin="round" stroke-opacity=".30196" stroke-width=".05"/>
<path d="m306.15 196.65q-5.6 21.8 15.05 20.85l-1.6 0.8q-4.9 2.15-9.85 0.25-5-2-7.1-6.9-2.2-4.9-0.2-9.85 1.15-3.2 3.7-5.15" fill="#8d0000" fill-rule="evenodd"/>
<path d="m321.2 217.5q-20.65 0.95-15.05-20.85 1.35-1.2 3.15-1.95 4.9-2.2 9.9-0.2 4.95 1.9 7.55 6.25 2.55 4.3 0.55 9.45-2 5.1-6.1 7.3" fill="#e50000" fill-rule="evenodd"/>
<path d="m306.15 196.65q-2.55 1.95-3.7 5.15-2 4.95 0.2 9.85 2.1 4.9 7.1 6.9 4.95 1.9 9.85-0.25l1.6-0.8q4.1-2.2 6.1-7.3 2-5.15-0.55-9.45-2.6-4.35-7.55-6.25-5-2-9.9 0.2-1.8 0.75-3.15 1.95z" fill="none" stroke="#000" stroke-linecap="round" stroke-linejoin="round" stroke-opacity=".30196" stroke-width=".1"/>
<path d="m313.2 195.45 3.15-0.05q3.35 0.5 5.15 2.15 1.75 1.55 2 3.3 0.2 1.7-1 2.4-1.3 0.85-1.85-0.7-0.75-1.55-3.25-3.6l-3.2-2.35q-0.85-0.5-1-1.15" fill="#ffedc4" fill-opacity=".54118" fill-rule="evenodd"/>
<path d="m305.5 195.15 0.95-0.65q1.7-1.05 3.3-1.3 1.6-0.3 2.1 0.5 0.55 0.75-0.45 2.05-0.9 1.25-2.6 2.3l-0.1 0.05q-3.2 0.15-3.2-2.95" fill="#d33a00" fill-rule="evenodd"/>
<path d="m308.7 198.1q-1.75 1.05-3.3 1.25-1.55 0.25-2.1-0.5-0.5-0.8 0.45-2.05l1.75-1.65q0 3.1 3.2 2.95" fill="#ab1200" fill-rule="evenodd"/>
<path d="m308.7 198.1q-1.75 1.05-3.3 1.25-1.55 0.25-2.1-0.5-0.5-0.8 0.45-2.05l1.75-1.65 0.95-0.65q1.7-1.05 3.3-1.3 1.6-0.3 2.1 0.5 0.55 0.75-0.45 2.05-0.9 1.25-2.6 2.3z" fill="none" stroke="#000" stroke-linecap="round" stroke-linejoin="round" stroke-opacity=".30196" stroke-width=".1"/>
<path d="m315.3 216-0.65 0.45q-0.45 0.1-1.9 0.75-1.5 0.55-2.2 1-0.8 0.55-1.2-0.25t0.05-1.6q0.45-0.9 1.65-1.35l2.75 0.1q1.65 0.6 1.5 0.9" fill="#ffedc4" fill-opacity=".54118" fill-rule="evenodd"/>
<path d="m302.05 201.25q1.85-5.1 6.7-7.15 4.8-2.1 9.7 0.05 5 2.15 7.3 7.3 2.2 5.1 0.3 10.15-1.75 5.1-6.55 7.25-4.8 2.05-9.85-0.1-4.9-2.1-7.1-7.2-2.3-5.15-0.5-10.3" fill="url(#b)" fill-rule="evenodd"/>
<path d="m304.35 192.8 3.5 2.35-2.55 1.65-1.85-2.85 0.75-1.1 0.15-0.05" fill="#f3811d" fill-rule="evenodd"/>
<path d="m307.85 195.15-3.5-2.35 1.15-0.7 2.85 2.6-0.5 0.45" fill="#ffb82b" fill-rule="evenodd"/>
<path d="m307.85 195.15 0.5-0.45-2.85-2.6-1.15 0.7m-0.15 0.05-0.75 1.1 1.85 2.85 2.55-1.65z" fill="none" stroke="#000" stroke-linecap="round" stroke-linejoin="round" stroke-opacity=".30196" stroke-width=".1"/>
<path d="m255.85 174.9 0.05-0.05h0.15l0.35 0.15 1.35 3.7 7.25 2.1 9.15 7.55 3.55-0.4q-2.35 7.1 2.75 10.85l3.9 5.45q1.65-2.85 4.75-2.4l1.15 3.2q-9.95 8.1-2.05 18.05l7.9 2.05 3.7 2.8-2.2-0.3q-0.3 1.35-1.35 2.75l-2.5 2.15-0.1 0.05-0.1-0.1-1.6-2.8q-1.25 2.55-3.4 5.35l-0.1 0.05-0.1-0.05-0.05-0.05-0.55-3.05-1.05 0.45h-0.1l-0.05-0.05-0.05-0.1-0.2-2.75q-1.6 0.75-3.6 0.8l-0.1-0.05-0.05-0.1h-0.2l-0.05 0.1-0.05 0.05-1.45-0.1-0.1-0.1v-0.1l0.3-0.75q-3.35 1.85-7.25 2.6h-0.05l-0.05-0.05-0.05-0.1 0.05-0.05 2.65-3v0.1l0.05 0.05 0.05-0.1-0.7-5.25-3.35 2.75-0.05 0.05-0.1-0.05-0.05-0.05v-0.05l0.35-1.3-4.85-0.15q0.35-1.15 1.05-2.15l-2-1.15q1.75-2.4 5-3.7l-1.35-1.05-1.25-1.8-0.8-2v-0.05l0.1-0.05 0.05-0.05h0.6l1.7 0.05v-0.05l0.1-0.05 0.8-0.05q-0.75-1.45-0.55-3.4l0.1-0.1 0.1-0.3 0.25-1.35 5.95 2.5 0.1-0.05v-0.05h-0.05l0.05-0.05 0.45-0.7 0.15-0.2 0.2-0.95-0.1-0.1-0.05 0.1v0.05l-0.9-1q-3.4-3.9-4.55-5.85-1.2-1.9-1.7-3.65-4.6-2.15-4.15-8.95l0.4 0.6-0.35-1.25 0.1-1-0.3 0.35-0.15 0.15-0.1 0.05-0.05-0.05-1.25-1.1-0.05 0.2-1.1 2.6-0.05 0.1h-0.1l-0.65-1.3-0.5 0.35h-0.15l-0.05-0.05-0.5-1.1-1.65 0.75-0.1-0.05-0.05-0.05v-0.05l-0.05 0.05-0.05 0.1-0.8 0.15-0.05-0.05-0.1-0.05v-0.05l0.05-0.15q-1.5 1.1-3.3 1.9h-0.1l-0.05-0.05-0.05-0.1 0.05-0.05 0.95-1.6-0.95-2-1.25 1.5-0.05 0.05h-0.1l-0.05-0.05v-0.1l0.05-3.45h-0.1l-0.05 0.05q-2.2 0.1-3.6-1.85v-0.15l0.1-0.05 1.55-0.4q-0.5-0.6-0.65-1.55l-0.05-0.65 0.1-0.1h0.05l3.5 0.3v-1.5l0.05-0.1 0.05-0.05h0.05l0.8 0.15q-1.05-1.15-0.4-2.9m71.9 28.95 0.6 4.6q-1.7 7.15-8.2 10.05-4.9 3.15-9.95 0.85-4.9-2.05-6.8-6.35l-2.45-7.2 1.2-3q-1.05-4.9 4.15-8.05 4.8-2.6 9.6-1l-6.2 3.25q-3.95 1-1.55 8.75 2.35 5.1 7.5 6.9 12.9 2.45 12.1-8.8" fill-opacity=".30196" fill-rule="evenodd"/>
</g>
<radialGradient id="c" cx="0" cy="0" r="819.2" gradientTransform="matrix(.016 .0093 -.009 .023 276.5 213.25)" gradientUnits="userSpaceOnUse">
<stop stop-color="#652801" stop-opacity=".64314" offset=".17255"/>
<stop stop-color="#fff" stop-opacity="0" offset=".87843"/>
</radialGradient>
<radialGradient id="b" cx="0" cy="0" r="819.2" gradientTransform="matrix(.0284 -.0124 .0124 .0284 304.8 215)" gradientUnits="userSpaceOnUse">
<stop stop-color="#652801" stop-opacity=".64314" offset=".17255"/>
<stop stop-color="#fff" stop-opacity="0" offset=".87843"/>
</radialGradient>
</defs>
</svg>
