<?xml version="1.0" encoding="UTF-8" standalone="no"?>
<!DOCTYPE svg PUBLIC "-//W3C//DTD SVG 1.1//EN" "http://www.w3.org/Graphics/SVG/1.1/DTD/svg11.dtd">
<svg width="100%" height="100%" viewBox="0 0 102 171" version="1.1" xmlns="http://www.w3.org/2000/svg" xmlns:xlink="http://www.w3.org/1999/xlink" xml:space="preserve" xmlns:serif="http://www.serif.com/" style="fill-rule:evenodd;clip-rule:evenodd;stroke-linecap:round;stroke-linejoin:round;">
    <g transform="matrix(1,0,0,1,-178.975,-89.975)">
        <g transform="matrix(1,0,0,1,179.1,90.05)">
            <g>
                <g id="Symbol_4_0_Layer2_0_FILL">
                    <path d="M70.8,110.8L62.9,121.45L60.3,133.15L40.55,163.15L40.55,170.65L60.3,154.9L72.55,132.35L70.8,110.8M53.95,123.2L60.2,113.75L57.95,113.25L53.95,123.2M57,99.2L58.25,107.5L62.15,100.2L57,99.2M44.45,80.05C49.817,80.15 55.167,81.033 60.5,82.7C65.3,84.367 69.383,86.283 72.75,88.45L74.75,84.6L76.75,80.7C71.983,79.133 67.117,78.217 62.15,77.95C56.15,77.817 50.25,78.517 44.45,80.05M45.2,90.6L42.5,89.45L40.65,87.1L29.75,104.5L7.5,127.75L0,137L0,151.75L6.8,161.85L15.3,159.65L32.05,146.65L43.05,134.15L49.05,124.4L55.8,109.85L52.55,97.35L48.05,100.6L45.2,90.6M51.9,101.5L51.9,106L49,101.5L51.9,101.5M47.8,113.1C47.733,114.6 47.433,115.95 46.9,117.15C44.367,123.05 40.667,128.283 35.8,132.85L37.05,131.1C38.383,129.433 39.417,127.667 40.15,125.8L39.75,125.95L36.8,126.85L36.95,126.6C39.35,120.933 41.883,115.517 44.55,110.35L47.8,113.1M37.5,21.35L31.75,11.35L28.5,16.35L31.75,29.6L45.75,71.45L48.45,70.6L43.65,49.05L37.5,21.35M88.8,40.1L88.8,17.1L78.05,6.35L86.25,0.05L80,0.55C68.667,2.883 61.583,6.117 58.75,10.25C55.917,14.317 54.333,16.717 54,17.45L52.95,33.6L51.5,55.95L48.45,70.6L50.85,69.8C52.217,66.467 53.767,63.2 55.5,60L55.65,59.9L57.9,60L58.35,62.1C58.617,63.1 58.5,63.4 58,63L56.75,63.5C56.483,64.433 56.367,65.433 56.4,66.5C56.433,67.2 56.617,67.833 56.95,68.4L63.05,67.85C63.783,64.883 65.267,62.317 67.5,60.15C67.733,63.05 67.25,65.617 66.05,67.85L67.5,67.95L78.25,56.7L82,49.7L88.8,40.1Z" style="fill:#f1eac2;fill-rule:nonzero;"/>
                    <path d="M62.9,121.45L65.45,109.7L58.75,127.25L33,156.5L40.55,163.15L60.3,133.15L62.9,121.45M52.95,33.6L43.65,49.05L48.45,70.6L51.5,55.95L52.95,33.6Z" style="fill:#b19b52;fill-rule:nonzero;"/>
                    <path d="M65.45,109.7L62.9,121.45L70.8,110.8L69.75,98.45L65.45,109.7M51.9,106L51.9,101.5L49,101.5L51.9,106Z" style="fill:#e9dfad;fill-rule:nonzero;"/>
                    <path d="M54.75,94.7L45.2,90.6L48.05,100.6L52.55,97.35L55.8,109.85L49.05,124.4L43.05,134.15L32.05,146.65L15.3,159.65L6.8,161.85L7.75,163.25L23.5,166.7L33,156.5L58.75,127.25L65.45,109.7L69.75,98.45L54.75,94.7M58.25,107.5L57,99.2L62.15,100.2L58.25,107.5M60.2,113.75L53.95,123.2L57.95,113.25L60.2,113.75M46.9,117.15C47.433,115.95 47.733,114.6 47.8,113.1L44.55,110.35C41.883,115.517 39.35,120.933 36.95,126.6L36.8,126.85L39.75,125.95L40.15,125.8C39.417,127.667 38.383,129.433 37.05,131.1L35.8,132.85C40.667,128.283 44.367,123.05 46.9,117.15M57.9,60L55.65,59.9L55.5,60C53.767,63.2 52.217,66.467 50.85,69.8C52.85,69.167 54.883,68.7 56.95,68.4C56.617,67.833 56.433,67.2 56.4,66.5C56.367,65.433 56.483,64.433 56.75,63.5L58,63C58.5,63.4 58.617,63.1 58.35,62.1L57.9,60M63.05,67.85L66.05,67.85C67.25,65.617 67.733,63.05 67.5,60.15C65.267,62.317 63.783,64.883 63.05,67.85M43.65,49.05L52.95,33.6L54,17.45L44,21.35L37.5,21.35L43.65,49.05M100.5,21.2L101.15,18.35L101.15,15.35C98.917,5.583 93.95,0.483 86.25,0.05L78.05,6.35L88.8,17.1L88.8,40.1L82,49.7L78.25,56.7L67.5,67.95C72.567,69.117 76.483,71.033 79.25,73.7L90.5,57.7L100.5,21.2Z" style="fill:#ddd195;fill-rule:nonzero;"/>
                    <path d="M44.45,80.05L42.95,80.4C41.15,81.067 39.75,82.5 38.75,84.7L40.65,87.1L42.5,89.45L45.2,90.6L54.75,94.7L69.75,98.45C72.15,96.75 73.4,94.967 73.5,93.1C73.533,91.233 73.283,89.683 72.75,88.45C69.383,86.283 65.3,84.367 60.5,82.7C55.167,81.033 49.817,80.15 44.45,80.05M55.65,83.25L55.85,83.7C56.85,87.067 55.833,88.967 52.8,89.4C46.467,90.033 44.317,87.883 46.35,82.95C49.083,80.583 52.183,80.683 55.65,83.25M67.5,67.95L66.05,67.85L63.05,67.85L56.95,68.4C54.883,68.7 52.85,69.167 50.85,69.8L48.45,70.6L45.75,71.45C43.617,73.15 42.283,74.983 41.75,76.95L41.75,80.7L42.95,80.4L44.45,80.05C50.25,78.517 56.15,77.817 62.15,77.95C67.117,78.217 71.983,79.133 76.75,80.7L74.75,84.6L78.65,83.5L81,80.7C81.7,78.233 81.117,75.9 79.25,73.7C76.483,71.033 72.567,69.117 67.5,67.95M61.15,68.6C62.45,68.4 63.65,68.667 64.75,69.4L65.95,70.55C67.15,72.45 67.267,74.417 66.3,76.45L63.8,77L60.2,77.15L56.95,77.2C55.55,77.433 54.317,77.283 53.25,76.75C51.85,76.183 51.083,75.217 50.95,73.85C50.817,72.417 51.4,71.417 52.7,70.85L53.4,70.6L49.2,70.95L49.55,70.55C53.317,69.45 57.183,68.8 61.15,68.6Z" style="fill:#d6a70a;fill-rule:nonzero;"/>
                    <path d="M55.85,83.7L55.65,83.25C52.183,80.683 49.083,80.583 46.35,82.95C44.317,87.883 46.467,90.033 52.8,89.4C55.833,88.967 56.85,87.067 55.85,83.7M51.15,86C51.05,84.933 51.483,84.233 52.45,83.9C53.683,83.967 54.25,84.6 54.15,85.8C54.117,86.567 53.733,87.017 53,87.15C51.867,87.383 51.25,87 51.15,86M64.75,69.4C63.65,68.667 62.45,68.4 61.15,68.6C57.183,68.8 53.317,69.45 49.55,70.55L49.2,70.95L53.4,70.6L52.7,70.85C51.4,71.417 50.817,72.417 50.95,73.85C51.083,75.217 51.85,76.183 53.25,76.75C54.317,77.283 55.55,77.433 56.95,77.2L60.2,77.15L63.8,77L66.3,76.45C67.267,74.417 67.15,72.45 65.95,70.55L64.75,69.4M62.4,73.35L62.15,74C61.217,75.067 60.133,75.267 58.9,74.6C58.733,74.533 58.633,74.4 58.6,74.2C58.233,72.8 58.717,71.867 60.05,71.4C61.517,71.333 62.3,71.983 62.4,73.35Z" style="fill:#f2d117;fill-rule:nonzero;"/>
                    <path d="M52.45,83.9C51.483,84.233 51.05,84.933 51.15,86C51.25,87 51.867,87.383 53,87.15C53.733,87.017 54.117,86.567 54.15,85.8C54.25,84.6 53.683,83.967 52.45,83.9M62.15,74L62.4,73.35C62.3,71.983 61.517,71.333 60.05,71.4C58.717,71.867 58.233,72.8 58.6,74.2C58.633,74.4 58.733,74.533 58.9,74.6C60.133,75.267 61.217,75.067 62.15,74Z" style="fill:#fff;fill-rule:nonzero;"/>
                </g>
                <path id="Symbol_4_0_Layer2_0_1_STROKES" d="M86.25,0.05C93.95,0.483 98.917,5.583 101.15,15.35L101.15,18.35L100.5,21.2L90.5,57.7L79.25,73.7C81.117,75.9 81.7,78.233 81,80.7L78.65,83.5L74.75,84.6L72.75,88.45C73.283,89.683 73.533,91.233 73.5,93.1C73.4,94.967 72.15,96.75 69.75,98.45L70.8,110.8L72.55,132.35L60.3,154.9L40.55,170.65L40.55,163.15L33,156.5L23.5,166.7L7.75,163.25L6.8,161.85L0,151.75L0,137L7.5,127.75L29.75,104.5L40.65,87.1L38.75,84.7C39.75,82.5 41.15,81.067 42.95,80.4L41.75,80.7L41.75,76.95C42.283,74.983 43.617,73.15 45.75,71.45L31.75,29.6L28.5,16.35L31.75,11.35L37.5,21.35L44,21.35L54,17.45C54.333,16.717 55.917,14.317 58.75,10.25C61.583,6.117 68.667,2.883 80,0.55L86.25,0.05ZM88.8,40.1L82,49.7L78.25,56.7L67.5,67.95C72.567,69.117 76.483,71.033 79.25,73.7M54,17.45L52.95,33.6M66.05,67.85L67.5,67.95M63.05,67.85L66.05,67.85M63.05,67.85L56.95,68.4C54.883,68.7 52.85,69.167 50.85,69.8L48.45,70.6L45.75,71.45M52.95,33.6L51.5,55.95L48.45,70.6L43.65,49.05L37.5,21.35M42.95,80.4L44.45,80.05C50.25,78.517 56.15,77.817 62.15,77.95C67.117,78.217 71.983,79.133 76.75,80.7L74.75,84.6M40.65,87.1L42.5,89.45L45.2,90.6L54.75,94.7L69.75,98.45L65.45,109.7L62.9,121.45M44.45,80.05C49.817,80.15 55.167,81.033 60.5,82.7C65.3,84.367 69.383,86.283 72.75,88.45M62.9,121.45L60.3,133.15L40.55,163.15M65.45,109.7L58.75,127.25L33,156.5" style="fill:none;fill-rule:nonzero;stroke:#000;stroke-opacity:0.37;stroke-width:0.25px;"/>
            </g>
            <g transform="matrix(1,0,0,1,-179.1,-90.05)">
                <path d="M247.343,192.608C247.362,192.605 247.381,192.603 247.4,192.6L249.1,192.45L252.7,192.7L252.8,192.75L256.55,193.85L256.584,193.861C256.662,193.886 256.741,193.912 256.818,193.937C256.834,193.942 256.85,193.947 256.866,193.953C257.022,194.004 257.177,194.055 257.331,194.107C257.365,194.119 257.398,194.13 257.432,194.141C257.507,194.167 257.581,194.192 257.656,194.218L257.722,194.24C257.764,194.255 257.807,194.27 257.849,194.284C257.874,194.293 257.898,194.301 257.922,194.31C257.971,194.327 258.019,194.344 258.068,194.361L258.098,194.372C258.383,194.472 258.664,194.573 258.941,194.676L258.969,194.687C259.065,194.722 259.161,194.758 259.257,194.794L259.332,194.823C259.347,194.829 259.361,194.834 259.376,194.84L259.471,194.876L259.535,194.901C259.573,194.915 259.61,194.93 259.648,194.944L259.679,194.956C259.762,194.988 259.845,195.021 259.927,195.053L260.02,195.09L260.042,195.099C260.126,195.132 260.21,195.166 260.293,195.199C260.324,195.212 260.355,195.224 260.387,195.237C260.466,195.269 260.545,195.302 260.624,195.334C260.762,195.391 260.899,195.448 261.035,195.506C261.152,195.555 261.268,195.605 261.383,195.655C261.445,195.681 261.507,195.708 261.568,195.735L261.613,195.755C261.658,195.775 261.704,195.795 261.749,195.815C261.851,195.86 261.952,195.905 262.053,195.951L262.082,195.964C262.123,195.982 262.163,196.001 262.204,196.019L262.284,196.056L262.379,196.1L262.427,196.122C262.445,196.13 262.463,196.139 262.481,196.147C262.512,196.161 262.542,196.175 262.571,196.189C262.637,196.22 262.702,196.251 262.767,196.282L262.795,196.295C262.858,196.325 262.92,196.354 262.982,196.384C262.996,196.391 263.011,196.399 263.026,196.406C263.098,196.44 263.17,196.475 263.241,196.51C263.341,196.559 263.44,196.609 263.539,196.658C263.568,196.673 263.598,196.688 263.627,196.702L263.654,196.716C263.702,196.74 263.75,196.765 263.798,196.789C263.856,196.819 263.914,196.849 263.972,196.878C264.001,196.894 264.031,196.909 264.06,196.924C264.14,196.966 264.22,197.008 264.3,197.05L266.95,193.1L271.4,196.15L273.45,197.55L270.65,201.65L274.6,205.9L277.25,209.35L277.35,209.6C277.361,209.616 277.372,209.631 277.383,209.647L277.411,209.689L277.442,209.734L277.468,209.774C277.506,209.83 277.543,209.886 277.579,209.943C277.598,209.973 277.617,210.003 277.637,210.035C277.664,210.078 277.69,210.121 277.717,210.164L277.726,210.18C277.755,210.227 277.783,210.275 277.811,210.323C277.83,210.355 277.849,210.387 277.867,210.42L277.894,210.467C277.904,210.484 277.913,210.501 277.923,210.518L277.95,210.567C278.053,210.753 278.153,210.945 278.249,211.142C278.303,211.253 278.356,211.365 278.407,211.477L278.412,211.488C278.438,211.547 278.465,211.607 278.491,211.667L278.509,211.707C278.584,211.883 278.658,212.062 278.729,212.245C278.779,212.375 278.827,212.506 278.875,212.639C278.881,212.657 278.888,212.676 278.894,212.694C278.922,212.773 278.949,212.852 278.976,212.932L278.978,212.937C278.993,212.984 279.009,213.031 279.024,213.078L279.031,213.099C279.048,213.151 279.064,213.203 279.081,213.256C279.099,213.312 279.116,213.369 279.133,213.425C279.143,213.459 279.153,213.492 279.163,213.527C279.202,213.658 279.24,213.791 279.277,213.927C279.301,214.013 279.324,214.1 279.346,214.187C279.365,214.262 279.384,214.336 279.403,214.411C279.464,214.658 279.521,214.91 279.574,215.167L279.594,215.26L279.603,215.305C279.684,215.704 279.756,216.115 279.82,216.538L279.828,216.59C279.86,216.805 279.89,217.021 279.917,217.237L279.92,217.261C279.955,217.539 279.987,217.823 280.015,218.111L280.017,218.137C280.019,218.159 280.022,218.182 280.024,218.204C280.048,218.459 280.069,218.717 280.088,218.979C280.093,219.043 280.097,219.107 280.102,219.171C280.105,219.22 280.108,219.268 280.111,219.316C280.116,219.398 280.121,219.481 280.126,219.564L280.13,219.647L280.135,219.731C280.139,219.815 280.143,219.898 280.147,219.982L280.151,220.067L280.155,220.168C280.159,220.27 280.163,220.372 280.167,220.476L280.167,220.492C280.169,220.54 280.17,220.587 280.172,220.635L280.172,220.655C280.181,220.945 280.187,221.24 280.189,221.538L280.19,221.615C280.197,222.491 280.18,223.405 280.138,224.354L280.134,224.437L280.133,224.469C280.122,224.707 280.109,224.945 280.096,225.183L280.09,225.282L280.088,225.314C280.057,225.84 280.019,226.365 279.976,226.89L279.975,226.9C279.963,227.04 279.951,227.181 279.938,227.323L279.937,227.336C279.919,227.545 279.899,227.754 279.879,227.962L279.869,228.067L279.865,228.102C279.854,228.213 279.843,228.325 279.832,228.437L279.822,228.526C279.807,228.668 279.792,228.811 279.777,228.953L279.773,228.989C279.757,229.133 279.741,229.277 279.724,229.421L279.712,229.529C279.683,229.773 279.654,230.016 279.624,230.259L279.619,230.293C279.613,230.343 279.607,230.393 279.6,230.444L279.586,230.554C279.574,230.653 279.561,230.752 279.548,230.851L279.538,230.926C279.525,231.025 279.512,231.125 279.498,231.225L279.495,231.252C279.487,231.308 279.479,231.364 279.472,231.42L279.459,231.513C279.412,231.849 279.364,232.189 279.313,232.532C279.276,232.782 279.237,233.035 279.198,233.289L279.185,233.367C279.062,234.157 278.927,234.964 278.781,235.788L278.772,235.838C278.745,235.989 278.718,236.141 278.69,236.294L278.683,236.33C278.603,236.773 278.52,237.216 278.435,237.658C278.348,238.111 278.258,238.563 278.167,239.014L278.15,239.1C278.147,239.048 278.144,238.995 278.142,238.943C278.122,238.587 278.1,238.234 278.074,237.884L278.072,237.848C278.053,237.596 278.033,237.343 278.011,237.091L278.01,237.074C278.005,237.022 278.001,236.971 277.996,236.919L277.992,236.876C277.988,236.832 277.984,236.787 277.98,236.742L277.978,236.716C277.975,236.684 277.972,236.653 277.969,236.622L277.965,236.578C277.922,236.134 277.875,235.694 277.822,235.26C277.818,235.223 277.813,235.185 277.809,235.148L277.803,235.103C277.779,234.906 277.754,234.711 277.727,234.515L277.721,234.47C277.715,234.425 277.709,234.38 277.702,234.336L277.696,234.291C277.667,234.079 277.636,233.869 277.603,233.659C277.584,233.535 277.565,233.412 277.545,233.289C277.532,233.21 277.519,233.131 277.506,233.053L277.499,233.009C277.484,232.92 277.469,232.831 277.453,232.742C277.44,232.666 277.427,232.591 277.413,232.515C277.409,232.49 277.404,232.464 277.4,232.439C277.39,232.383 277.38,232.328 277.369,232.273L277.361,232.23C277.329,232.057 277.296,231.886 277.263,231.714C277.234,231.568 277.204,231.423 277.174,231.278L277.163,231.225C277.152,231.172 277.141,231.12 277.129,231.068L277.124,231.042C277.082,230.847 277.039,230.653 276.995,230.459L276.985,230.417L276.964,230.326C276.949,230.26 276.933,230.195 276.917,230.129L276.908,230.088C276.855,229.869 276.801,229.652 276.746,229.436L276.735,229.395C276.72,229.336 276.705,229.278 276.689,229.218L276.683,229.194C276.669,229.14 276.654,229.087 276.64,229.033L276.638,229.025C276.628,228.988 276.618,228.951 276.607,228.913L276.597,228.873C276.593,228.859 276.589,228.845 276.585,228.831C276.546,228.688 276.506,228.547 276.465,228.406C276.423,228.258 276.38,228.112 276.336,227.966L276.312,227.887L276.301,227.849C276.277,227.771 276.253,227.693 276.229,227.616L276.228,227.613C276.214,227.567 276.199,227.521 276.185,227.475C276.179,227.458 276.174,227.44 276.168,227.423L276.156,227.384C276.146,227.354 276.136,227.323 276.126,227.293L276.119,227.269C276.094,227.192 276.069,227.116 276.044,227.039L276.027,226.99C276.001,226.911 275.975,226.832 275.948,226.753L275.935,226.717C275.925,226.686 275.914,226.654 275.903,226.622L275.89,226.585C275.87,226.527 275.85,226.47 275.83,226.414C275.824,226.396 275.817,226.377 275.811,226.359L275.798,226.322C275.761,226.218 275.723,226.114 275.685,226.011C275.641,225.89 275.596,225.77 275.551,225.65C275.528,225.59 275.505,225.531 275.482,225.471L275.461,225.416C275.449,225.385 275.437,225.355 275.425,225.324C275.406,225.276 275.387,225.228 275.368,225.18L275.353,225.144C275.293,224.992 275.232,224.842 275.169,224.693C275.147,224.64 275.125,224.587 275.102,224.534L275.087,224.498C275.074,224.467 275.061,224.436 275.047,224.405C275.03,224.365 275.013,224.325 274.996,224.286L274.97,224.227C274.957,224.196 274.943,224.166 274.93,224.135C274.896,224.057 274.861,223.98 274.826,223.902C274.787,223.815 274.747,223.729 274.707,223.642C274.653,223.524 274.598,223.407 274.542,223.29C274.376,222.944 274.205,222.603 274.028,222.269L273.993,222.202C273.949,222.119 273.904,222.037 273.86,221.954C273.851,221.938 273.841,221.921 273.832,221.904C273.805,221.855 273.778,221.806 273.751,221.757C273.719,221.699 273.686,221.64 273.653,221.582L273.617,221.518L273.598,221.486C273.573,221.442 273.548,221.398 273.523,221.354L273.493,221.302C273.448,221.224 273.402,221.146 273.356,221.069C273.331,221.027 273.306,220.986 273.281,220.944L273.262,220.913C273.198,220.805 273.132,220.698 273.066,220.592L273.032,220.538L273.021,220.52C272.902,220.33 272.78,220.141 272.656,219.954C272.636,219.924 272.616,219.894 272.596,219.864L272.576,219.834C272.527,219.762 272.479,219.691 272.43,219.62C272.417,219.601 272.404,219.582 272.391,219.563C272.366,219.526 272.341,219.49 272.315,219.454L272.296,219.426C272.231,219.334 272.166,219.242 272.1,219.15L269.5,216.3L269.434,216.229L269.375,216.165C269.364,216.153 269.354,216.141 269.343,216.129C269.167,215.94 268.993,215.753 268.819,215.57L268.739,215.486L268.7,215.445C268.611,215.352 268.523,215.259 268.435,215.168C268.407,215.139 268.379,215.111 268.351,215.082L268.318,215.047C268.298,215.027 268.278,215.006 268.258,214.986C268.18,214.906 268.102,214.827 268.024,214.748L267.993,214.716C267.956,214.679 267.919,214.642 267.883,214.605L267.817,214.539L267.75,214.472C267.728,214.45 267.706,214.428 267.684,214.406C267.599,214.322 267.515,214.238 267.43,214.155L267.367,214.093L267.331,214.059C267.253,213.982 267.176,213.907 267.098,213.832L267.077,213.812C266.97,213.709 266.863,213.608 266.757,213.507C266.58,213.341 266.405,213.178 266.23,213.018L266.18,212.973L266.142,212.938C266.034,212.84 265.927,212.743 265.82,212.648L265.802,212.633C265.633,212.482 265.465,212.336 265.297,212.192C265.262,212.162 265.227,212.132 265.192,212.102L265.135,212.054C265.125,212.045 265.114,212.036 265.103,212.027C265.087,212.013 265.071,211.999 265.054,211.986C265.029,211.964 265.003,211.943 264.978,211.921L264.913,211.867L264.881,211.841C264.78,211.757 264.679,211.673 264.578,211.592L264.512,211.539C264.485,211.516 264.457,211.494 264.43,211.472L264.414,211.46C264.39,211.44 264.365,211.42 264.34,211.4C264.328,211.39 264.315,211.38 264.303,211.37C264.268,211.343 264.234,211.316 264.2,211.289L264.15,211.25L230.65,260.7L230.565,260.685C230.507,260.674 230.45,260.664 230.393,260.653L230.353,260.646L230.285,260.633C230.223,260.621 230.162,260.609 230.1,260.597L230.061,260.589L230.003,260.577C229.959,260.568 229.914,260.559 229.869,260.55L229.812,260.538C229.786,260.532 229.76,260.527 229.735,260.521C229.672,260.508 229.609,260.494 229.547,260.48L229.472,260.463L229.421,260.451C228.996,260.353 228.587,260.246 228.193,260.13L228.148,260.116C228.132,260.111 228.116,260.107 228.101,260.102C228.016,260.076 227.933,260.051 227.85,260.024C227.78,260.002 227.71,259.979 227.64,259.956L227.607,259.945C227.577,259.935 227.547,259.925 227.517,259.915L227.467,259.898L227.413,259.879C227.39,259.871 227.368,259.863 227.346,259.856C227.328,259.849 227.309,259.843 227.291,259.836C227.272,259.829 227.253,259.823 227.235,259.816C227.215,259.809 227.195,259.801 227.175,259.794L227.11,259.771C227.105,259.768 227.099,259.766 227.093,259.764C227.073,259.757 227.053,259.749 227.033,259.742L226.959,259.714L226.904,259.693L226.88,259.683C226.847,259.671 226.814,259.658 226.782,259.645L226.748,259.631C226.685,259.606 226.623,259.581 226.562,259.556L226.547,259.55C226.491,259.526 226.435,259.503 226.38,259.479L226.364,259.472C226.343,259.463 226.322,259.454 226.301,259.445L226.274,259.433L226.219,259.409C226.213,259.406 226.206,259.403 226.2,259.4L225.4,258.55L225.371,258.52C225.353,258.5 225.335,258.481 225.318,258.461L225.287,258.427C225.262,258.399 225.238,258.37 225.214,258.342L225.19,258.313C225.171,258.29 225.151,258.266 225.132,258.242L225.125,258.232C225.098,258.199 225.072,258.165 225.047,258.131L225.03,258.109C225.021,258.096 225.011,258.083 225.002,258.07L224.976,258.034L224.953,258.001L224.933,257.972C224.885,257.902 224.839,257.831 224.796,257.759L224.79,257.75C224.783,257.737 224.775,257.725 224.768,257.712L224.761,257.701C224.677,257.557 224.6,257.407 224.53,257.253L224.513,257.216L224.499,257.182C224.496,257.176 224.494,257.171 224.492,257.165C224.469,257.113 224.448,257.06 224.427,257.007C224.422,256.994 224.417,256.981 224.413,256.968L224.409,256.958C224.385,256.894 224.362,256.828 224.34,256.762L224.337,256.752C224.327,256.721 224.317,256.69 224.308,256.659L224.3,256.633C224.294,256.613 224.287,256.592 224.281,256.571L224.27,256.53L224.263,256.505C224.249,256.455 224.237,256.405 224.224,256.355L224.222,256.344C224.214,256.313 224.207,256.282 224.2,256.25L254.5,211.55L257.6,206.9L255.95,206L253.55,204.8L252.15,204.2L248.75,202.8L248.4,202.7L238.7,201.45L237.5,201.5L232.1,202.35L231.65,202.4C231.623,202.406 231.596,202.412 231.568,202.419C231.53,202.427 231.493,202.436 231.455,202.445C231.344,202.47 231.232,202.497 231.12,202.523C231.103,202.527 231.086,202.531 231.069,202.535C230.917,202.572 230.764,202.609 230.611,202.648L230.528,202.669L230.444,202.69L230.404,202.7C230.382,202.706 230.36,202.711 230.338,202.717C230.262,202.736 230.186,202.756 230.11,202.776C230.012,202.802 229.914,202.828 229.816,202.854C229.788,202.861 229.76,202.869 229.732,202.876L229.673,202.893C229.634,202.903 229.595,202.914 229.556,202.925L229.48,202.945L229.4,202.968C229.356,202.98 229.313,202.992 229.27,203.004C229.246,203.011 229.221,203.017 229.197,203.024C229.144,203.039 229.092,203.054 229.039,203.069C228.967,203.09 228.895,203.11 228.823,203.131C228.803,203.137 228.784,203.143 228.764,203.149L228.722,203.161C228.637,203.186 228.553,203.211 228.468,203.236L228.424,203.249C228.297,203.287 228.171,203.325 228.044,203.364L227.97,203.387C227.855,203.423 227.739,203.459 227.623,203.496C227.57,203.512 227.518,203.529 227.466,203.546C227.364,203.578 227.263,203.611 227.161,203.644C227.086,203.668 227.011,203.693 226.935,203.718L226.867,203.741C226.841,203.75 226.815,203.758 226.789,203.767C226.724,203.789 226.659,203.811 226.594,203.833C226.533,203.853 226.472,203.874 226.411,203.895L226.336,203.92L226.25,203.95L229.25,201.7L232.5,199.4L232.54,199.373C232.58,199.345 232.62,199.318 232.661,199.29C232.823,199.179 232.985,199.07 233.147,198.962C233.37,198.814 233.592,198.669 233.812,198.526C233.854,198.499 233.895,198.473 233.936,198.446C234.04,198.38 234.143,198.314 234.246,198.249L234.324,198.2C234.36,198.178 234.395,198.156 234.43,198.133L234.469,198.109C234.59,198.034 234.71,197.96 234.83,197.886L234.877,197.857C234.952,197.812 235.026,197.767 235.1,197.722C235.267,197.621 235.433,197.522 235.599,197.425C235.693,197.37 235.786,197.316 235.879,197.263C236.059,197.159 236.239,197.057 236.417,196.957C236.487,196.918 236.557,196.88 236.626,196.841C236.728,196.785 236.83,196.73 236.932,196.675C237.086,196.592 237.24,196.51 237.393,196.43C237.412,196.42 237.431,196.41 237.45,196.4L238,196.05L241.1,194.55L241.153,194.526L241.206,194.502L241.277,194.47C241.302,194.459 241.326,194.448 241.352,194.437C241.422,194.405 241.493,194.374 241.563,194.343C241.59,194.332 241.616,194.32 241.642,194.309C241.749,194.262 241.855,194.217 241.962,194.172L242.02,194.148L242.042,194.139C242.096,194.116 242.149,194.094 242.202,194.072C242.241,194.057 242.279,194.041 242.317,194.025C242.348,194.013 242.378,194.001 242.409,193.988L242.425,193.982C242.462,193.967 242.499,193.953 242.536,193.938L242.538,193.937C242.575,193.923 242.611,193.908 242.648,193.894C242.68,193.881 242.711,193.869 242.743,193.857C242.802,193.834 242.861,193.812 242.919,193.789C242.942,193.781 242.965,193.772 242.988,193.763C243.034,193.746 243.08,193.729 243.125,193.712L243.211,193.681L243.229,193.674C243.254,193.665 243.278,193.656 243.303,193.647C243.336,193.635 243.37,193.623 243.404,193.611C243.496,193.578 243.588,193.546 243.68,193.515C243.732,193.497 243.784,193.479 243.836,193.461C243.942,193.426 244.048,193.391 244.153,193.357L244.202,193.342L244.252,193.326L244.301,193.311L244.35,193.295C244.4,193.28 244.449,193.265 244.498,193.25L244.547,193.235L244.571,193.228C244.612,193.215 244.653,193.203 244.694,193.191L244.722,193.183C244.753,193.174 244.784,193.165 244.815,193.156L244.889,193.135C244.921,193.126 244.953,193.117 244.985,193.108L245.054,193.089C245.064,193.086 245.073,193.084 245.082,193.081C245.177,193.055 245.272,193.03 245.366,193.006L245.371,193.005C245.475,192.978 245.579,192.952 245.682,192.927L245.729,192.916L245.759,192.909C245.852,192.887 245.945,192.866 246.037,192.845L246.06,192.84C246.099,192.832 246.139,192.823 246.178,192.815C246.21,192.808 246.242,192.801 246.274,192.795C246.32,192.785 246.366,192.776 246.412,192.767C246.435,192.762 246.458,192.758 246.482,192.753L246.505,192.749C246.528,192.744 246.551,192.74 246.574,192.735C246.636,192.724 246.698,192.712 246.76,192.701L246.783,192.697C246.808,192.693 246.833,192.688 246.859,192.684C246.918,192.674 246.977,192.664 247.036,192.654L247.058,192.651C247.074,192.648 247.089,192.646 247.104,192.644C247.184,192.631 247.264,192.619 247.343,192.608ZM250.321,202.234L250.293,202.221C250.338,202.241 250.382,202.262 250.426,202.282C250.391,202.266 250.356,202.25 250.321,202.234ZM250.204,202.18L250.155,202.158C250.171,202.165 250.188,202.173 250.204,202.18ZM246.903,202.152L246.846,202.138C246.865,202.143 246.884,202.147 246.903,202.152ZM246.747,202.114L246.774,202.121L246.747,202.114ZM246.592,202.079C246.611,202.083 246.63,202.087 246.649,202.092L246.62,202.085C246.601,202.081 246.582,202.076 246.564,202.072L246.592,202.079ZM249.932,202.06C249.943,202.065 249.954,202.069 249.965,202.074L249.932,202.06ZM246.357,202.026C246.369,202.029 246.381,202.032 246.394,202.034L246.357,202.026ZM249.832,202.017L249.859,202.028L249.832,202.017ZM246.279,202.009L246.301,202.014L246.279,202.009ZM245.909,201.933C245.947,201.941 245.986,201.948 246.024,201.956C245.995,201.95 245.966,201.944 245.938,201.939L245.909,201.933ZM245.775,201.907L245.812,201.914L245.775,201.907ZM245.698,201.892L245.737,201.899L245.698,201.892ZM245.613,201.876C245.626,201.878 245.639,201.881 245.652,201.883L245.613,201.876ZM245.453,201.846L245.393,201.836C245.413,201.839 245.433,201.843 245.453,201.846ZM245.213,201.805L245.231,201.807L245.213,201.805ZM249.233,201.774C249.257,201.783 249.28,201.792 249.303,201.801C249.289,201.795 249.275,201.79 249.261,201.784L249.233,201.774ZM249.008,201.689C249.018,201.692 249.027,201.696 249.036,201.699C249.027,201.696 249.018,201.692 249.008,201.689ZM244.278,201.663L244.305,201.667L244.278,201.663ZM248.783,201.607C248.83,201.624 248.878,201.641 248.926,201.658C248.887,201.644 248.849,201.631 248.811,201.617L248.783,201.607ZM248.708,201.581C248.723,201.586 248.739,201.592 248.755,201.597L248.708,201.581ZM243.531,201.575L243.589,201.581L243.531,201.575ZM248.5,201.509C248.556,201.528 248.612,201.547 248.668,201.567C248.621,201.551 248.575,201.535 248.528,201.519L248.5,201.509ZM243.087,201.532C243.1,201.533 243.112,201.534 243.124,201.535L243.087,201.532ZM242.837,201.512C242.893,201.516 242.949,201.521 243.005,201.525C242.949,201.52 242.893,201.516 242.837,201.512ZM242.761,201.506C242.781,201.507 242.801,201.509 242.821,201.51L242.761,201.506ZM242.702,201.501C242.712,201.502 242.721,201.503 242.731,201.504C242.721,201.503 242.712,201.502 242.702,201.501ZM242.612,201.495C242.629,201.496 242.645,201.497 242.662,201.499L242.612,201.495ZM241.714,201.448C241.892,201.454 242.07,201.462 242.247,201.472C242.08,201.463 241.912,201.455 241.744,201.449L241.714,201.448ZM247.857,201.307C248.033,201.359 248.209,201.413 248.384,201.471C248.209,201.413 248.033,201.359 247.857,201.307ZM241.654,201.445C241.674,201.446 241.694,201.447 241.714,201.448L241.654,201.445ZM239.77,201.442C239.729,201.444 239.688,201.445 239.647,201.446C239.688,201.445 239.729,201.444 239.77,201.442ZM241.594,201.443C241.604,201.444 241.614,201.444 241.624,201.444C241.614,201.444 241.604,201.444 241.594,201.443ZM241.38,201.437C241.43,201.439 241.48,201.44 241.53,201.441C241.48,201.44 241.43,201.439 241.38,201.437ZM240.012,201.436L239.981,201.437C239.93,201.438 239.878,201.439 239.827,201.441C239.889,201.439 239.95,201.437 240.012,201.436ZM241.201,201.433C241.241,201.434 241.282,201.435 241.322,201.436L241.292,201.435C241.271,201.435 241.251,201.434 241.231,201.434L241.201,201.433ZM240.165,201.433C240.155,201.433 240.145,201.433 240.134,201.434L240.165,201.433ZM241.066,201.431C241.081,201.431 241.095,201.432 241.11,201.432L241.066,201.431ZM240.964,201.43L241.002,201.43L240.964,201.43ZM240.353,201.43C240.372,201.43 240.391,201.43 240.41,201.43L240.353,201.43ZM240.867,201.429C240.887,201.429 240.908,201.43 240.928,201.43L240.867,201.429ZM240.502,201.429L240.463,201.429C240.476,201.429 240.489,201.429 240.502,201.429ZM239.771,201.334C239.749,201.345 239.728,201.355 239.707,201.366C239.728,201.355 239.749,201.345 239.771,201.334ZM239.882,201.279C239.853,201.293 239.825,201.307 239.796,201.321C239.825,201.307 239.854,201.293 239.882,201.279ZM247.647,201.247L247.618,201.239C247.666,201.252 247.713,201.266 247.761,201.279L247.789,201.288C247.742,201.274 247.694,201.26 247.647,201.247ZM240.087,201.185C240.064,201.195 240.042,201.205 240.019,201.215C240.042,201.205 240.064,201.195 240.087,201.185ZM247.502,201.207L247.446,201.192C247.465,201.197 247.483,201.202 247.502,201.207ZM240.417,201.049C240.313,201.089 240.21,201.131 240.108,201.175L240.092,201.183C240.199,201.135 240.308,201.091 240.417,201.049ZM240.463,201.032L240.454,201.036L240.463,201.032ZM246.647,200.999L246.64,200.998L246.647,200.999ZM246.532,200.975L246.571,200.983L246.532,200.975ZM246.509,200.97L246.496,200.967L246.509,200.97ZM246.423,200.952L246.453,200.959L246.423,200.952ZM246.315,200.931C246.327,200.933 246.339,200.936 246.351,200.938L246.315,200.931ZM246.06,200.883L246.031,200.878C246.113,200.893 246.195,200.908 246.277,200.924C246.205,200.91 246.133,200.896 246.06,200.883ZM245.769,200.834L245.74,200.829C245.787,200.836 245.834,200.844 245.881,200.852C245.844,200.846 245.806,200.84 245.769,200.834ZM245.594,200.806C245.609,200.808 245.624,200.811 245.638,200.813L245.594,200.806ZM245.33,200.768C245.354,200.772 245.378,200.775 245.402,200.778C245.388,200.776 245.374,200.774 245.359,200.772L245.33,200.768ZM245.247,200.757C245.265,200.76 245.283,200.762 245.301,200.764L245.247,200.757ZM245.007,200.728C245.085,200.737 245.162,200.746 245.24,200.756C245.172,200.748 245.104,200.739 245.037,200.731L245.007,200.728ZM244.624,200.688C244.651,200.69 244.679,200.693 244.707,200.696C244.689,200.694 244.671,200.692 244.653,200.69L244.624,200.688ZM244.358,200.665C244.387,200.667 244.417,200.67 244.446,200.672L244.387,200.667L244.358,200.665ZM244.32,200.662L244.269,200.658C244.286,200.659 244.303,200.661 244.32,200.662ZM244.18,200.652C244.195,200.653 244.211,200.654 244.227,200.655L244.18,200.652ZM244.049,200.639L244.028,200.637C244.056,200.64 244.082,200.642 244.109,200.645C244.089,200.643 244.069,200.641 244.049,200.639ZM243.898,200.624L243.867,200.621C243.878,200.622 243.888,200.623 243.898,200.624ZM243.708,200.609C243.701,200.608 243.694,200.608 243.688,200.607L243.708,200.609ZM243.546,200.599C243.557,200.599 243.568,200.6 243.579,200.601C243.568,200.6 243.557,200.599 243.546,200.599ZM243.416,200.593C243.443,200.594 243.469,200.595 243.495,200.596C243.469,200.595 243.443,200.594 243.416,200.593ZM243.313,200.589L243.277,200.588C243.289,200.589 243.301,200.589 243.313,200.589ZM260.953,198.985C260.965,199.004 260.978,199.023 260.99,199.042C260.978,199.023 260.966,199.004 260.953,198.985ZM260.828,198.788C260.84,198.806 260.851,198.825 260.862,198.843C260.851,198.824 260.839,198.806 260.828,198.788ZM260.794,198.731L260.82,198.775C260.812,198.76 260.803,198.746 260.794,198.731ZM260.723,198.611L260.735,198.633L260.723,198.611ZM262.2,198.373C262.252,198.438 262.305,198.503 262.358,198.567C262.305,198.503 262.252,198.438 262.2,198.373ZM260.653,198.488C260.661,198.503 260.669,198.517 260.677,198.531C260.669,198.517 260.661,198.503 260.653,198.488ZM263.432,198.394L263.432,198.408C263.432,198.403 263.432,198.399 263.432,198.394ZM260.571,198.34L260.592,198.379L260.571,198.34ZM263.43,198.28C263.43,198.302 263.431,198.325 263.431,198.347L263.431,198.337C263.43,198.315 263.43,198.293 263.43,198.271L263.43,198.28ZM260.376,197.953C260.425,198.057 260.477,198.16 260.53,198.261L260.523,198.248C260.47,198.146 260.419,198.044 260.369,197.94L260.376,197.953ZM263.43,198.233C263.43,198.236 263.43,198.239 263.43,198.242C263.43,198.239 263.43,198.236 263.43,198.233ZM263.431,198.127L263.431,198.155C263.431,198.146 263.431,198.137 263.431,198.127ZM261.887,197.979C261.929,198.033 261.972,198.088 262.014,198.142C261.965,198.079 261.916,198.017 261.867,197.954L261.887,197.979ZM263.437,197.944C263.436,197.965 263.435,197.987 263.435,198.008C263.435,197.986 263.436,197.965 263.437,197.944ZM263.443,197.847C263.441,197.87 263.44,197.893 263.439,197.915L263.438,197.925C263.44,197.899 263.441,197.873 263.443,197.847ZM263.45,197.75L263.448,197.77C263.449,197.763 263.449,197.756 263.45,197.75ZM239.566,201.441L239.55,201.45C239.568,201.44 239.585,201.431 239.603,201.421C239.59,201.428 239.578,201.435 239.566,201.441ZM240.624,201.429L240.593,201.429C240.635,201.429 240.677,201.429 240.718,201.429C240.687,201.429 240.655,201.429 240.624,201.429Z" style="fill-opacity:0.5;fill-rule:nonzero;"/>
            </g>
            <g transform="matrix(1,0,0,1,43.1,100.35)">
                <g>
                    <g id="Symbol_3_0_Layer0_0_FILL">
                        <path d="M5.05,9.3L8.7,9.25L9.3,8.4C9.2,7.8 8.867,7.333 8.3,7L5.05,9.3M16.4,5.2L15.55,3.4L15.55,3.25L13.8,3.65L13.25,4C14.283,4.133 15.333,4.533 16.4,5.2M31.5,3.3L32.35,1.45L28.6,0.35L28.5,0.3L24.9,0.05L23.2,0.2C21.267,0.467 19.167,1.117 16.9,2.15L16.85,2.3C16.25,2.4 15.817,2.717 15.55,3.25L18.3,2.65L22.1,5.25C22.467,4.783 22.7,4.25 22.8,3.65L22.9,1.65L26.1,0.9L29.7,3.5L31.5,3.3Z" style="fill:#e7e7e7;fill-rule:nonzero;"/>
                        <path d="M15.55,3.25C15.817,2.717 16.25,2.4 16.85,2.3L16.9,2.15L13.8,3.65L15.55,3.25M45.15,12.2C44.217,11.967 43.35,11.6 42.55,11.1L41.05,10L40.95,9.95C38.417,8.917 36.7,7.15 35.8,4.65L36.2,4.45C36.467,4.15 36.733,4.217 37,4.65C37.8,5.783 38.65,6.8 39.55,7.7C39.283,6.967 39.183,6.183 39.25,5.35L39.5,5.4L40.1,4.65C37.833,3.45 35.25,2.383 32.35,1.45L31.5,3.3L29.7,3.5L26.1,0.9L22.9,1.65L22.8,3.65C22.7,4.25 22.467,4.783 22.1,5.25L18.3,2.65L15.55,3.25L15.55,3.4L16.4,5.2C15.333,4.533 14.283,4.133 13.25,4C11.65,4.833 10,5.833 8.3,7C8.867,7.333 9.2,7.8 9.3,8.4L8.7,9.25L5.05,9.3L2.05,11.55C3.883,10.917 5.683,10.4 7.45,10L7.9,9.95L13.3,9.1L14.05,8.25L14.15,8.15L14.45,8.85L14.5,9.05L15.35,9.05C16.683,8.317 18.217,8.05 19.95,8.25C22.483,8.417 24.917,9.133 27.25,10.4L32.05,12.4C33.083,12.7 34.183,13.15 35.35,13.75C39.517,15.95 43.517,17.117 47.35,17.25C48.65,16.783 48.433,15.467 46.7,13.3L45.15,12.2Z" style="fill:#b9b9b9;fill-rule:nonzero;"/>
                        <path d="M31.7,20.8L30.3,19.15L0,63.85C0.2,64.75 0.6,65.517 1.2,66.15C4.933,61.217 8.85,56.383 12.95,51.65C16.983,46.917 20.75,42.067 24.25,37.1C27.75,32.067 30.233,26.633 31.7,20.8M43,8.75L47.2,3.75L42.75,0.7L40.1,4.65L39.5,5.4L39.3,5.8L43,8.75Z" style="fill:#a75403;fill-rule:nonzero;"/>
                        <path d="M39.95,18.85L33.4,14.5L30.3,19.15L31.7,20.8C30.233,26.633 27.75,32.067 24.25,37.1C20.75,42.067 16.983,46.917 12.95,51.65C8.85,56.383 4.933,61.217 1.2,66.15L2,67C3.267,67.567 4.75,68 6.45,68.3L39.95,18.85M49.25,5.15L47.2,3.75L43,8.75L46,10.4L46.45,9.25L49.25,5.15Z" style="fill:#5e3002;fill-rule:nonzero;"/>
                        <path d="M46.45,9.25L46,10.4L43,8.75L39.3,5.8L39.5,5.4L39.25,5.35C39.183,6.183 39.283,6.967 39.55,7.7C41.883,10.067 44.6,11.65 47.7,12.45L45.15,12.2L46.7,13.3C48.433,15.467 48.65,16.783 47.35,17.25C43.517,17.117 39.517,15.95 35.35,13.75C34.183,13.15 33.083,12.7 32.05,12.4L27.25,10.4C24.917,9.133 22.483,8.417 19.95,8.25C18.217,8.05 16.683,8.317 15.35,9.05C17.983,8.95 20.5,9.2 22.9,9.8L24.2,10.3L24.55,10.4L27.95,11.8L29.35,12.4L31.75,13.6L33.4,14.5L39.95,18.85C41.65,20.183 43.433,21.867 45.3,23.9L47.9,26.75C51.5,31.75 53.517,38.4 53.95,46.7C56.917,32.067 56.65,22.233 53.15,17.2L53.05,16.95L50.4,13.5L46.45,9.25Z" style="fill:#979797;fill-rule:nonzero;"/>
                        <path d="M42.55,11.1C43.35,11.6 44.217,11.967 45.15,12.2L47.7,12.45C44.6,11.65 41.883,10.067 39.55,7.7C38.65,6.8 37.8,5.783 37,4.65C36.733,4.217 36.467,4.15 36.2,4.45L35.8,4.65C36.7,7.15 38.417,8.917 40.95,9.95L41.05,10L42.55,11.1Z" style="fill:#cbcbcb;fill-rule:nonzero;"/>
                    </g>
                    <path id="Symbol_3_0_Layer0_0_1_STROKES" d="M47.2,3.75L49.25,5.15L46.45,9.25L50.4,13.5L53.05,16.95L53.15,17.2C56.65,22.233 56.917,32.067 53.95,46.7C53.517,38.4 51.5,31.75 47.9,26.75L45.3,23.9C43.433,21.867 41.65,20.183 39.95,18.85L6.45,68.3C4.75,68 3.267,67.567 2,67L1.2,66.15C0.6,65.517 0.2,64.75 0,63.85L30.3,19.15L33.4,14.5L31.75,13.6L29.35,12.4L27.95,11.8L24.55,10.4M24.2,10.3L22.9,9.8C20.5,9.2 17.983,8.95 15.35,9.05L14.5,9.05M13.3,9.1L7.9,9.95L7.45,10C5.683,10.4 3.883,10.917 2.05,11.55L5.05,9.3L8.3,7C10,5.833 11.65,4.833 13.25,4L13.8,3.65L16.9,2.15C19.167,1.117 21.267,0.467 23.2,0.2L24.9,0.05L28.5,0.3L28.6,0.35L32.35,1.45C35.25,2.383 37.833,3.45 40.1,4.65L42.75,0.7L47.2,3.75M43,8.75L46,10.4L46.45,9.25M39.5,5.4L40.1,4.65M43,8.75L39.3,5.8L39.5,5.4M39.95,18.85L33.4,14.5" style="fill:none;fill-rule:nonzero;stroke:#000;stroke-width:0.05px;"/>
                    <path id="Symbol_3_0_Layer0_0_2_STROKES" d="M14.5,9.05L14.45,8.85L14.15,8.15L14.05,8.25L13.3,9.1" style="fill:none;fill-rule:nonzero;stroke:#a75403;stroke-width:0.05px;"/>
                </g>
            </g>
        </g>
    </g>
</svg>
