<?xml version="1.0" encoding="UTF-8" standalone="no"?>
<!DOCTYPE svg PUBLIC "-//W3C//DTD SVG 1.1//EN" "http://www.w3.org/Graphics/SVG/1.1/DTD/svg11.dtd">
<svg width="100%" height="100%" viewBox="0 0 1014 1709" version="1.1" xmlns="http://www.w3.org/2000/svg" xmlns:xlink="http://www.w3.org/1999/xlink" xml:space="preserve" xmlns:serif="http://www.serif.com/" style="fill-rule:evenodd;clip-rule:evenodd;stroke-linecap:round;stroke-linejoin:round;">
    <g transform="matrix(1,0,0,1,-1789.75,-899.75)">
        <g transform="matrix(10,0,0,10,-287.5,109)">
            <g id="sprite0">
                <g id="shape0">
                    <path d="M261.85,96.6C262.183,95.867 263.767,93.467 266.6,89.4C268.933,85.967 274.483,82.9 283.25,80.2L274.75,86.45L281.3,92.6L285.9,109.95L283.2,126.55L275.4,140.05L275.35,139.3C273.117,141.467 271.633,144.033 270.9,147L264.8,147.55C264.467,146.983 264.283,146.35 264.25,145.65C264.217,144.583 264.333,143.583 264.6,142.65L265.85,142.15C266.35,142.55 266.467,142.25 266.2,141.25L265.75,139.15L263.5,139.05L263.35,139.15C261.617,142.35 260.067,145.617 258.7,148.95L256.3,149.75L259.35,135.1L260.8,112.75L261.85,96.6M207.85,230.9L207.85,216.15L215.35,206.9L237.6,183.65L248.5,166.25L250.35,168.6L253.05,169.75L255.9,179.75L255.9,186.35L258.5,191.75L254.95,195.8C255.35,194.733 255.583,193.55 255.65,192.25L252.4,189.5C249.733,194.667 247.2,200.083 244.8,205.75L244.85,205.95L247.6,205.1L247.9,205.25C247.167,206.983 246.167,208.65 244.9,210.25L245.2,210.5L233.45,223.4L223,230.75L207.85,230.9" style="fill:#f0c586;"/>
                    <path d="M261.85,96.6L260.8,112.75L251.5,128.2L245.35,100.5L251.85,100.5L261.85,96.6M258.7,148.95C260.067,145.617 261.617,142.35 263.35,139.15L263.5,139.05L265.75,139.15L266.2,141.25C266.467,142.25 266.35,142.55 265.85,142.15L264.6,142.65C264.333,143.583 264.217,144.583 264.25,145.65C264.283,146.35 264.467,146.983 264.8,147.55C262.733,147.85 260.7,148.317 258.7,148.95M275.4,140.05L283.2,126.55L285.9,109.95L281.3,92.6L274.75,86.45L283.25,80.2L294.1,79.2L285.9,85.5L296.65,96.25L296.65,119.25L289.85,128.85L286.1,135.85L275.35,147.1L273.9,147C275,144.967 275.5,142.65 275.4,140.05M277.6,177.6L278.65,189.95L270.75,200.6L273.3,188.85L277.6,177.6M214.65,241L207.85,230.9L223,230.75L233.45,223.4L245.2,210.5C249.3,206.3 252.483,201.567 254.75,196.3L254.95,195.8L258.5,191.75L255.9,186.35L255.9,179.75L260.4,176.5L263.65,189L256.9,203.55L250.9,213.3L239.9,225.8L223.15,238.8L214.65,241M270,153.15C269.067,154.217 267.983,154.417 266.75,153.75L266.45,153.35C266.083,151.95 266.567,151.017 267.9,150.55C269.367,150.483 270.15,151.133 270.25,152.5L270,153.15M259,165.15C258.9,164.083 259.333,163.383 260.3,163.05C261.533,163.117 262.1,163.75 262,164.95C261.967,165.717 261.583,166.167 260.85,166.3C259.717,166.533 259.1,166.15 259,165.15M259.75,185.15L259.75,180.65L256.85,180.65L259.75,185.15M265.8,192.4L268.05,192.9L261.8,202.35L265.8,192.4M270,179.35L266.1,186.65L264.85,178.35L270,179.35" style="fill:#fff;"/>
                    <path d="M270.9,147C271.633,144.033 273.117,141.467 275.35,139.3L275.4,140.05C275.5,142.65 275,144.967 273.9,147L270.9,147M294.1,79.2C301.8,79.633 306.767,84.733 309,94.5L309,97.5L298.35,136.85L287.1,152.85C284.333,150.183 280.417,148.267 275.35,147.1L286.1,135.85L289.85,128.85L296.65,119.25L296.65,96.25L285.9,85.5L294.1,79.2M282.6,163.75L280.6,167.6C277.233,165.433 273.15,163.517 268.35,161.85L264.35,160.75C260.317,159.783 256.3,159.267 252.3,159.2C256.967,157.967 261.7,157.283 266.5,157.15C267.667,157.083 268.833,157.067 270,157.1L273.2,157.35C277.067,157.783 280.867,158.617 284.6,159.85L282.6,163.75M278.65,189.95L280.4,211.5L268.15,234.05L248.4,249.8L248.4,242.3L268.15,212.3L270.75,200.6L278.65,189.95M240.85,235.65L231.35,245.85L215.6,242.4L214.65,241L223.15,238.8L239.9,225.8L250.9,213.3L256.9,203.55L263.65,189L260.4,176.5L255.9,179.75L253.05,169.75L262.6,173.85L277.6,177.6L273.3,188.85L266.6,206.4L240.85,235.65M253.6,150.6L239.6,108.75L236.35,95.5L239.6,90.5L245.35,100.5L251.5,128.2L256.3,149.75L253.6,150.6M259.75,185.15L256.85,180.65L259.75,180.65L259.75,185.15M254.95,195.8L254.75,196.3C252.483,201.567 249.3,206.3 245.2,210.5L244.9,210.25C246.167,208.65 247.167,206.983 247.9,205.25L248,204.95L247.85,205.05L247.6,205.1L244.85,205.95L244.8,205.75C247.2,200.083 249.733,194.667 252.4,189.5L255.65,192.25C255.583,193.55 255.35,194.733 254.95,195.8M270,179.35L264.85,178.35L266.1,186.65L270,179.35M265.8,192.4L261.8,202.35L268.05,192.9L265.8,192.4" style="fill:url(#_Linear1);"/>
                    <path d="M256.3,149.75L258.7,148.95C260.7,148.317 262.733,147.85 264.8,147.55L270.9,147L273.9,147L275.35,147.1C280.417,148.267 284.333,150.183 287.1,152.85C288.967,155.05 289.55,157.383 288.85,159.85L286.5,162.65L282.6,163.75L284.6,159.85C280.867,158.617 277.067,157.783 273.2,157.35L270,157.1C268.833,157.067 267.667,157.083 266.5,157.15C261.7,157.283 256.967,157.967 252.3,159.2C256.3,159.267 260.317,159.783 264.35,160.75L268.35,161.85C273.15,163.517 277.233,165.433 280.6,167.6C281.133,168.833 281.383,170.383 281.35,172.25C281.25,174.117 280,175.9 277.6,177.6L262.6,173.85L253.05,169.75L250.35,168.6L248.5,166.25L246.6,163.85C247.6,161.65 249,160.217 250.8,159.55L249.6,159.85L249.6,156.1C250.133,154.133 251.467,152.3 253.6,150.6L256.3,149.75M273.8,149.7L272.6,148.55C271.5,147.817 270.3,147.55 269,147.75C265.033,147.95 261.167,148.6 257.4,149.7L257.05,150.1L261.25,149.75L260.55,150C259.25,150.567 258.667,151.567 258.8,153C258.933,154.367 259.7,155.333 261.1,155.9C262.167,156.433 263.4,156.583 264.8,156.35L271.65,156.15L274.15,155.6C275.117,153.567 275,151.6 273.8,149.7M263.5,162.4C260.033,159.833 256.933,159.733 254.2,162.1C252.167,167.033 254.317,169.183 260.65,168.55C263.683,168.117 264.7,166.217 263.7,162.85L263.5,162.4M252.3,159.2L250.8,159.55L252.3,159.2" style="fill:#d6a70a;"/>
                    <path d="M260.8,112.75L259.35,135.1L256.3,149.75L251.5,128.2L260.8,112.75M248.4,242.3L240.85,235.65L266.6,206.4L273.3,188.85L270.75,200.6L268.15,212.3L248.4,242.3" style="fill:url(#_Linear2);"/>
                    <path d="M273.8,149.7C275,151.6 275.117,153.567 274.15,155.6L271.65,156.15L264.8,156.35C263.4,156.583 262.167,156.433 261.1,155.9C259.7,155.333 258.933,154.367 258.8,153C258.667,151.567 259.25,150.567 260.55,150L261.25,149.75L257.05,150.1L257.4,149.7C261.167,148.6 265.033,147.95 269,147.75C270.3,147.55 271.5,147.817 272.6,148.55L273.8,149.7M270,153.15L270.25,152.5C270.15,151.133 269.367,150.483 267.9,150.55C266.567,151.017 266.083,151.95 266.45,153.35L266.75,153.75C267.983,154.417 269.067,154.217 270,153.15M263.5,162.4L263.7,162.85C264.7,166.217 263.683,168.117 260.65,168.55C254.317,169.183 252.167,167.033 254.2,162.1C256.933,159.733 260.033,159.833 263.5,162.4M259,165.15C259.1,166.15 259.717,166.533 260.85,166.3C261.583,166.167 261.967,165.717 262,164.95C262.1,163.75 261.533,163.117 260.3,163.05C259.333,163.383 258.9,164.083 259,165.15" style="fill:#f2d117;"/>
                    <path d="M247.6,205.1L247.85,205.05L248,204.95L247.9,205.25L247.6,205.1" style="fill:#7c9b00;"/>
                    <path d="M283.25,80.2C274.483,82.9 268.933,85.967 266.6,89.4C263.767,93.467 262.183,95.867 261.85,96.6L260.8,112.75L259.35,135.1L256.3,149.75L258.7,148.95C260.7,148.317 262.733,147.85 264.8,147.55L270.9,147L273.9,147L275.35,147.1C280.417,148.267 284.333,150.183 287.1,152.85C288.967,155.05 289.55,157.383 288.85,159.85L286.5,162.65L282.6,163.75L280.6,167.6C281.133,168.833 281.383,170.383 281.35,172.25C281.25,174.117 280,175.9 277.6,177.6L278.65,189.95L280.4,211.5L268.15,234.05L248.4,249.8L248.4,242.3L240.85,235.65L231.35,245.85L215.6,242.4L214.65,241L207.85,230.9L207.85,216.15L215.35,206.9L237.6,183.65L248.5,166.25L246.6,163.85C247.6,161.65 249,160.217 250.8,159.55L249.6,159.85L249.6,156.1C250.133,154.133 251.467,152.3 253.6,150.6L239.6,108.75L236.35,95.5L239.6,90.5L245.35,100.5L251.85,100.5L261.85,96.6M283.25,80.2L294.1,79.2C301.8,79.633 306.767,84.733 309,94.5L309,97.5L298.35,136.85L287.1,152.85M275.35,147.1L286.1,135.85L289.85,128.85L296.65,119.25M251.5,128.2L245.35,100.5M251.5,128.2L256.3,149.75L253.6,150.6M282.6,163.75L284.6,159.85C280.867,158.617 277.067,157.783 273.2,157.35L270,157.1C268.833,157.067 267.667,157.083 266.5,157.15C261.7,157.283 256.967,157.967 252.3,159.2C256.3,159.267 260.317,159.783 264.35,160.75L268.35,161.85C273.15,163.517 277.233,165.433 280.6,167.6M250.8,159.55L252.3,159.2M248.5,166.25L250.35,168.6L253.05,169.75L262.6,173.85L277.6,177.6L273.3,188.85L270.75,200.6L268.15,212.3L248.4,242.3M273.3,188.85L266.6,206.4L240.85,235.65" style="fill:none;fill-rule:nonzero;stroke:#000;stroke-opacity:0.37;stroke-width:0.25px;"/>
                </g>
            </g>
        </g>
    </g>
    <defs>
        <linearGradient id="_Linear1" x1="0" y1="0" x2="1" y2="0" gradientUnits="userSpaceOnUse" gradientTransform="matrix(9.66656,-60.6208,60.6208,9.66656,362.216,171.11)"><stop offset="0" style="stop-color:#f0c586;stop-opacity:1"/><stop offset="1" style="stop-color:#fae9d1;stop-opacity:1"/></linearGradient>
        <linearGradient id="_Linear2" x1="0" y1="0" x2="1" y2="0" gradientUnits="userSpaceOnUse" gradientTransform="matrix(-5.07904,-8.84736,8.84736,-5.07904,394.318,126.307)"><stop offset="0" style="stop-color:#f8e6cb;stop-opacity:1"/><stop offset="1" style="stop-color:#f8e6cb;stop-opacity:1"/></linearGradient>
    </defs>
</svg>
