<?xml version="1.0" encoding="UTF-8"?>
<svg width="101px" height="171px" version="1.1" viewBox="261.05 -177.85 101.15 170.6" xmlns="http://www.w3.org/2000/svg" xmlns:xlink="http://www.w3.org/1999/xlink">
<defs>
<g id="a">
<path d="m330.8-79.45 1.05 12.35-7.9 10.65 2.55-11.75 4.3-11.25m-20.75 3.05h2.9v4.5l-2.9-4.5" fill="#e9dfad"/>
<path d="m306.8-106.45-14-41.85-3.25-13.25 3.25-5 5.75 10 6.15 27.7 4.8 21.55-2.7 0.85m8.25-54q0.5-1.1 4.75-7.2 4.25-6.2 21.25-9.7l6.25-0.5-8.2 6.3 10.75 10.75v23l-6.8 9.6-3.75 7-10.75 11.25-1.45-0.1q1.8-3.35 1.45-7.7-3.35 3.25-4.45 7.7l-6.1 0.55q-0.5-0.85-0.55-1.9-0.05-1.6 0.35-3l1.25-0.5q0.75 0.6 0.35-0.9-0.3-1-0.45-2.1l-2.25-0.1-0.15 0.1q-2.6 4.8-4.65 9.8l-2.4 0.8 3.05-14.65 1.45-22.35 1.05-16.15m20.75 67.15-2 3.85q-5.05-3.25-12.25-5.75-8-2.5-16.05-2.65 8.7-2.3 17.7-2.1 7.45 0.4 14.6 2.75l-2 3.9m-3.95 26.2 1.75 21.55-12.25 22.55-19.75 15.75v-7.5l19.75-30 2.6-11.7 7.9-10.65m-64 51.05-6.8-10.1v-14.75l7.5-9.25 22.25-23.25 10.9-17.4 1.85 2.35 2.7 1.15 2.85 10 4.5-3.25 3.25 12.5-6.75 14.55-6 9.75-11 12.5-16.75 13-8.5 2.2m42.2-60.35 2.9 4.5v-4.5h-2.9m8-2.3 5.15 1-3.9 7.3-1.25-8.3m-17.25 26.75 0.4-0.15q-1.1 2.8-3.1 5.3l-1.25 1.75q7.3-6.85 11.1-15.7 0.8-1.8 0.9-4.05l-3.25-2.75q-4 7.75-7.6 16.25l-0.15 0.25q1.5-0.3 2.95-0.9m14.2-2.75 4-9.95 2.25 0.5-6.25 9.45" fill="#f1eac2"/>
<path d="m309.5-107.3-4.8-21.55 9.3-15.45-1.45 22.35-3.05 14.65m-7.9 92.55-7.55-6.65 25.75-29.25 6.7-17.55-2.55 11.75-2.6 11.7-19.75 30" fill="#b19b52"/>
<path d="m306.8-106.45 2.7-0.85 2.4-0.8 6.1-1.4 6.1-0.55h2.55 0.45l1.45 0.1q7.6 1.75 11.75 5.75 2.8 3.3 1.75 7l-2.35 2.8-3.9 1.1 2-3.9q-7.15-2.35-14.6-2.75-9-0.2-17.7 2.1 8.05 0.15 16.05 2.65 7.2 2.5 12.25 5.75 0.8 1.85 0.75 4.65-0.15 2.8-3.75 5.35l-15-3.75-9.55-4.1-2.7-1.15-1.85-2.35-1.9-2.4q1.5-3.3 4.2-4.3l-1.2 0.3v-3.75q0.8-2.95 4-5.5m5.2 2.4q0.2 2.05 2.3 2.9 1.6 0.8 3.7 0.45l3.25-0.05 3.6-0.15 2.5-0.55q1.45-3.05-0.35-5.9l-1.2-1.15q-1.65-1.1-3.6-0.8-5.95 0.3-11.6 1.95l-0.35 0.4 4.2-0.35-0.7 0.25q-1.95 0.85-1.75 3m4.7 9.4q-5.2-3.85-9.3-0.3-3.05 7.4 6.45 6.45 4.55-0.65 3.05-5.7l-0.2-0.45m-11.2-3.2-1.5 0.35 1.5-0.35" fill="#d6a70a"/>
<path d="m312-104.05q-0.2-2.15 1.75-3l0.7-0.25-4.2 0.35 0.35-0.4q5.65-1.65 11.6-1.95 1.95-0.3 3.6 0.8l1.2 1.15q1.8 2.85 0.35 5.9l-2.5 0.55-3.6 0.15-3.25 0.05q-2.1 0.35-3.7-0.45-2.1-0.85-2.3-2.9m11.45-0.5q-0.15-2.05-2.35-1.95-2 0.7-1.45 2.8l0.3 0.4q1.85 1 3.25-0.6l0.25-0.65m-9.4 13.8q1.1-0.2 1.15-1.35 0.15-1.8-1.7-1.9-1.45 0.5-1.3 2.1 0.15 1.5 1.85 1.15m2.65-3.9 0.2 0.45q1.5 5.05-3.05 5.7-9.5 0.95-6.45-6.45 4.1-3.55 9.3 0.3" fill="#f2d117"/>
<path d="m304.7-128.85-6.15-27.7h6.5l10-3.9-1.05 16.15-9.3 15.45m42.6-49q11.55 0.65 14.9 15.3v3l-0.65 2.85-10 36.5-11.25 16q-4.15-4-11.75-5.75l10.75-11.25 3.75-7 6.8-9.6v-23l-10.75-10.75 8.2-6.3m-53.25 156.45-9.5 10.2-15.75-3.45-0.95-1.4 8.5-2.2 16.75-13 11-12.5 6-9.75 6.75-14.55-3.25-12.5-4.5 3.25-2.85-10 9.55 4.1 15 3.75-4.3 11.25-6.7 17.55-25.75 29.25m17.85-86.7q2.05-5 4.65-9.8l0.15-0.1 2.25 0.1q0.15 1.1 0.45 2.1 0.4 1.5-0.35 0.9l-1.25 0.5q-0.4 1.4-0.35 3 0.05 1.05 0.55 1.9l-6.1 1.4m12.2-1.95q1.1-4.45 4.45-7.7 0.35 4.35-1.45 7.7h-0.45-2.55m-6.05 31.35 1.25 8.3 3.9-7.3-5.15-1m-17.25 26.75q-1.45 0.6-2.95 0.9l0.15-0.25q3.6-8.5 7.6-16.25l3.25 2.75q-0.1 2.25-0.9 4.05-3.8 8.85-11.1 15.7l1.25-1.75q2-2.5 3.1-5.3l-0.4 0.15m14.2-2.75 6.25-9.45-2.25-0.5-4 9.95" fill="#ddd195"/>
<path d="m323.45-104.55-0.25 0.65q-1.4 1.6-3.25 0.6l-0.3-0.4q-0.55-2.1 1.45-2.8 2.2-0.1 2.35 1.95m-9.4 13.8q-1.7 0.35-1.85-1.15-0.15-1.6 1.3-2.1 1.85 0.1 1.7 1.9-0.05 1.15-1.15 1.35" fill="#fff"/>
<path d="m298.55-156.55-5.75-10-3.25 5 3.25 13.25 14 41.85 2.7-0.85-4.8-21.55-6.15-27.7h6.5l10-3.9q0.5-1.1 4.75-7.2 4.25-6.2 21.25-9.7l6.25-0.5q11.55 0.65 14.9 15.3v3l-0.65 2.85-10 36.5-11.25 16q2.8 3.3 1.75 7l-2.35 2.8-3.9 1.1-2 3.85q0.8 1.85 0.75 4.65-0.15 2.8-3.75 5.35l1.05 12.35 1.75 21.55-12.25 22.55-19.75 15.75v-7.5l-7.55-6.65-9.5 10.2-15.75-3.45-0.95-1.4-6.8-10.1v-14.75l7.5-9.25 22.25-23.25 10.9-17.4-1.9-2.4q1.5-3.3 4.2-4.3l-1.2 0.3v-3.75q0.8-2.95 4-5.5m7.2-37.85 1.05-16.15m2.95 50.95 6.1-0.55h2.55 0.45l1.45 0.1 10.75-11.25 3.75-7 6.8-9.6m-40.35 30.5 2.4-0.8 6.1-1.4m-8.5 2.2 3.05-14.65 1.45-22.35m-10 46.8 1.5-0.35q8.7-2.3 17.7-2.1 7.45 0.4 14.6 2.75l-2 3.9m-30.3-4.55q8.05 0.15 16.05 2.65 7.2 2.5 12.25 5.75m-27.55 2.15 9.55 4.1 15 3.75-4.3 11.25-2.55 11.75-2.6 11.7-19.75 30m0.1-76.05 1.85 2.35 2.7 1.15m20.25 19.1-6.7 17.55-25.75 29.25m34.5-88.55q7.6 1.75 11.75 5.75" fill="none" stroke="#000" stroke-opacity=".37255" stroke-width=".5"/>
</g>
</defs>
<use xlink:href="#a"/>
</svg>
