<?xml version="1.0" encoding="UTF-8"?>
<svg version="1.1" viewBox="0 0 38.33 33.158" xmlns="http://www.w3.org/2000/svg" xmlns:cc="http://creativecommons.org/ns#" xmlns:dc="http://purl.org/dc/elements/1.1/" xmlns:rdf="http://www.w3.org/1999/02/22-rdf-syntax-ns#" xmlns:xlink="http://www.w3.org/1999/xlink">
<metadata>
<rdf:RDF>
<cc:Work rdf:about="">
<dc:format>image/svg+xml</dc:format>
<dc:type rdf:resource="http://purl.org/dc/dcmitype/StillImage"/>
</cc:Work>
</rdf:RDF>
</metadata>
<g transform="translate(-256.29 -183.88)">
<use transform="matrix(.3483 0 0 .3483 256.3 183.89)" width="110" height="95.150002" xlink:href="#b"/>
<use transform="matrix(.1057 -.109 .109 .1057 268.68 211.91)" width="21.75" height="20.549999" xlink:href="#a"/>
<use transform="matrix(.1965 0 0 .1965 265.06 206.39)" width="21.75" height="20.549999" xlink:href="#a"/>
<use transform="matrix(.2562 .0874 -.0874 .2562 261.95 199.42)" width="21.75" height="20.549999" xlink:href="#a"/>
</g>
<defs>
<g id="b" transform="translate(55,47.55)">
<path d="m-41.55-34.25-0.45-0.55-0.35-0.05h-0.05q-0.65 0.05-0.75 0.75v0.25l-1.05-1.25-1.65 4.65-2.8 5.75v0.7l0.05 1.2-1.95 1.1 2-0.65 0.8 24-0.25 0.1 0.7 2.35 0.2 0.55 3.1 10.05 2.05 2.55 0.15 0.8-0.05-0.7 2.4 3q-0.55 0.05-0.6 0.65-0.1 0.65 0.55 0.95h0.35l0.25-0.1 0.4-0.3 3.05 3.85 0.05 0.05q0 0.55 0.55 0.9h0.15l0.1 0.1 2.4 3.05-0.3-0.1q-1.75 0.45-1.35 2.15 0.25 1.3 1.55 1 1.45-0.45 1.6-1.2l3.05 3.85 2.75 1.2q-0.05 0.6 0.55 0.9l0.4 0.05 0.3-0.1 0.25-0.15 0.1 0.05 17.55 7.8 8.45-0.35 0.15 0.1 0.35 0.05 0.25-0.1 0.05-0.05h0.45l8.05-0.3h0.05q0.1 0.4 0.35 0.65l-17.8 2.65-15.2-5.75 0.05-0.1 0.45-0.3 0.05-0.25q-0.05-0.65-0.55-1h-0.35q-0.7 0-0.8 0.65l0.05 0.6-5.95-2.3-8.5-7.7-13.7-17.25-5.15-18.8 0.3 0.65-0.25-0.7 1.85-19 2.55-6.8 13.9-14.75 19.4-2.35 3.75 2.65-0.25 0.5q-0.05 0.6 0.55 0.95l0.4 0.05 0.25-0.15 0.45-0.35 9.1 6.35-0.85 1.6-0.25-0.1q-0.1-0.5-0.5-0.8l-0.35-0.05-0.5 0.15-12.5-6.5-0.1-0.05-0.5-0.65-0.35-0.05-0.4 0.1-1.25-0.7-0.05-0.25h-0.05l-10.45 3.8-0.1-0.15q0.25-1.1-0.75-1.6h-0.05l-0.35-0.05h-0.2l-0.6 0.35q-0.55 0.35-0.6 1 0.4 0.85 0.95 1.05l-5.8 2.15-1.2 1.65-1.75 2.4m-7.5 7.5-0.05-0.05-0.35-0.05q-0.7 0-0.8 0.75v0.2q0 0.45 0.55 0.75h0.35l0.25-0.1 0.45-0.35 0.1-0.25q-0.05-0.6-0.5-0.9m-0.8 11.95-0.15-0.35-0.2-0.05h-0.2l-0.25 0.1 0.2 0.55 0.6-0.25m-2.3 12.3q-0.1 0.65 0.55 0.95l0.35 0.05q0.9 0.05 1.45-0.5v-0.25q-0.05-0.65-0.55-1h-0.3q-1.15-0.2-1.5 0.75m-0.8-13.2 0.35 0.05 0.3-0.15 0.4-0.3 0.05-0.25q0.05-0.65-0.5-0.95h-0.35q-0.7-0.05-0.8 0.65-0.1 0.65 0.55 0.95m3.35 10.05-0.25 0.1 0.2 0.55 0.6-0.25-0.15-0.3-0.2-0.1h-0.2m44.25-10.75 1.55-3.45 0.05-0.05 0.35-0.3 0.1-0.25-0.05-0.4 2.6-5.85 0.6 0.25-10.05 26.3 1.85 11.4 1.25 2.2-0.1 0.1q-1.85 0.35-1.4 2.15 0.25 1.25 1.55 0.9 0.95-0.25 1.35-0.65l1.95 3.45 0.2 0.35-0.35-0.05q-0.75 0-0.8 0.65-0.15 0.65 0.5 0.95l0.4 0.05 0.3-0.1 0.45-0.3v-0.3h0.05l2.95 5.25 2.4 3.1q-0.25 1 0.65 1.7h0.45l0.2-0.1 2.05 2.7 1.25 0.9 4.9 1.6v0.15l-7.8-1.3-0.3-0.1-0.4-0.3q2.2-0.85 0.1-2.8h-0.05l-0.75-0.15q-1.3 0.3-1.45 1.35l-9.1-6.75v-0.15l0.05-0.3q0-0.5-0.35-0.8l-0.05-0.15-5.45-22.35 7.8-17.35q0.75-0.5 0.55-1.2m-20.55-27.2-0.15-0.1h-0.2l-0.3 0.1 0.25 0.5 0.55-0.2-0.15-0.3m-9.9 1.2-0.3-0.05q-0.75 0-0.85 0.7-0.1 0.6 0.55 0.95l0.35 0.05 0.3-0.1 0.45-0.35 0.05-0.25q-0.05-0.6-0.55-0.95m28.15 60.3q-0.75 0-0.85 0.65t0.55 1l0.35 0.05 0.35-0.15 0.4-0.3 0.05-0.25q0-0.65-0.55-0.95l-0.3-0.05m2.6 4.8-0.8-0.15q-1.8 0.45-1.35 2.15 0.25 1.3 1.5 0.95 2.35-0.65 1.4-2.15l-0.75-0.85v0.05m0.85 0.7 0.55-0.3-0.15-0.35h-0.15l-0.25-0.05-0.3 0.1 0.3 0.6m-33 1.1v0.05l-0.25 0.05-0.35 0.25q0.5 1.15 1.6 0.95l0.1-0.2q-0.35-0.75-1.1-1.1m1.25 3.45h-0.2l-0.25 0.1 0.2 0.55 0.6-0.25-0.15-0.35-0.2-0.05m34.15-0.85q0-0.65-0.45-1l-0.4-0.05q-0.7 0.05-0.85 0.7-0.1 0.65 0.6 1h0.35l0.25-0.1 0.5-0.35v-0.2m-9.55 16.3q-0.1-1.05-1.15-1.2l-0.6 0.05q-0.55 0.1-0.55 0.6 0.15 1.2 1.55 1.25l0.55-0.3 0.2-0.15v-0.25m-37.25-37.45-0.6 0.05q-0.55 0.1-0.6 0.6 0.2 1.2 1.6 1.25l0.55-0.3 0.15-0.2 0.05-0.25q-0.1-1-1.15-1.15m0.7 3-0.05 0.05-0.75-0.15q-1.8 0.4-1.4 2.2 0.35 1.2 1.55 0.9 3-0.85 0.65-3m2.15 1.6h-0.15l-0.55 0.1 0.05 0.25 0.45 1.05 0.75-0.1-0.05-0.25-0.5-1.05m0.45 7.35 0.35 0.05 0.3-0.1 0.45-0.35 0.05-0.25q-0.05-0.65-0.55-1h-0.3q-0.7 0-0.85 0.7-0.1 0.6 0.55 0.95m4.1 2.1-0.4-0.1-0.25 0.15 0.2 0.55 0.6-0.25-0.15-0.35" fill="#b08500" fill-rule="evenodd"/>
<path d="m-43.15-33.85v-0.25q0.1-0.7 0.75-0.75h0.05l0.35 0.05 0.45 0.55 0.05 0.4-0.05 0.25-0.45 0.35-0.25 0.1h-0.15l-0.2-0.05-0.45-0.35-0.1-0.3m23.85-10.05 0.4-0.1 0.35 0.05 0.5 0.65v0.25l-0.05 0.25-0.45 0.35-0.25 0.15-0.3-0.1q-0.65-0.3-0.6-0.95l0.4-0.55m-21.85 26.25v-0.05l0.05 0.05h-0.05m-8.7 2.85-0.6 0.25-0.2-0.55 0.25-0.1h0.2l0.2 0.05 0.15 0.35m0.25 9.15h0.2l0.2 0.1 0.15 0.3-0.6 0.25-0.2-0.55 0.25-0.1m8.85 1.35 0.25-0.1 0.25 0.05 0.15 0.05 0.2 0.3-0.6 0.3-0.25-0.6m20.35-35.9 0.1-0.05 0.15-0.05h0.25l0.1 0.05 0.05 0.15 0.1 0.2-0.15 0.1-0.35 0.15-0.2-0.3v-0.05l-0.05-0.15v-0.05m2.4 3.9 0.35-0.35 0.55-0.3h0.2l0.45 0.05h0.05q0.8 0.4 0.75 1.25l-0.05 0.35-0.05 0.25-2.45-0.4-0.05-0.15 0.25-0.7m1.3 8.85 0.1-0.05 0.25 0.05 0.15 0.05 0.15 0.35h-0.05l-0.5 0.3-0.25-0.6 0.1-0.05 0.65 0.35-0.6-0.4m1.7-11.05v0.05l-0.55 0.2-0.2-0.45-0.05-0.1h0.05l0.2-0.1h0.25l0.15 0.05 0.1 0.25 0.05 0.1m-0.3 6.45q0.95 0.5 0.7 1.6l-0.05 0.25q-1.5 1.4-2.45-0.55 0-0.7 0.55-1.05l0.6-0.3h0.15l0.5 0.1v-0.05m7.75 3.9 0.35 0.05q0.5 0.3 0.5 0.9l-0.05 0.25-0.45 0.35-0.25 0.15-0.35-0.05q-0.65-0.35-0.55-0.95 0.1-0.75 0.8-0.7m-18.35-15.45 0.15 0.3-0.55 0.2-0.25-0.5 0.3-0.1h0.2l0.15 0.1m-12.75 6.55v-0.15q0.1-0.75 0.85-0.7h0.3l0.3 0.3 0.25 0.65-0.05 0.3-0.45 0.35-0.3 0.05-0.35-0.05q-0.6-0.3-0.55-0.75m5.7 6.35-0.55 0.05-0.15-0.9v-0.25l0.55-0.15h0.05l0.1 0.05 0.25 0.9-0.05 0.25-0.2 0.05m4.55 4.95h-0.05v-0.05l0.05 0.05m-7.7-4.05h-0.05l-0.15-0.3-0.1-0.25 0.3-0.1h0.2l0.2 0.05 0.1 0.35-0.5 0.25m9.9-1.95q0.5 0.35 0.55 1v0.2l-0.45 0.35-0.35 0.1-0.35-0.05q-0.65-0.3-0.55-0.95t0.85-0.6l0.3-0.05m2.5 10-0.05-0.1 0.3-0.1 0.25 0.05h0.1l0.15 0.35h-0.05l-0.45 0.3-0.25-0.5m6.7 2.25 0.25-0.05 0.35 0.05 0.35 0.3 0.2 0.65-0.1 0.25-0.4 0.3-0.3 0.1h-0.35q-0.65-0.3-0.55-0.95 0.05-0.6 0.55-0.65m-13.8-4.05 0.05 0.15-0.5 0.3-0.3-0.6 0.3-0.15 0.25 0.05 0.15 0.1 0.05 0.1v0.05m-2.45 0.8v-0.05 0.05m-1.7 14.5 0.4 0.1 0.15 0.35-0.35 0.15-0.25 0.1-0.2-0.55 0.25-0.15m4.9-8.4-0.35-0.05q-0.65-0.3-0.55-0.95 0.1-0.75 0.8-0.7h0.35q0.5 0.35 0.5 0.95v0.25l-0.45 0.35-0.3 0.15m-7.1 3.35-0.6 0.25-0.2-0.5 0.25-0.15h0.25l0.15 0.1 0.15 0.3m32.95 36.7-0.3-0.6 0.3-0.1 0.25 0.05h0.15l0.15 0.35-0.55 0.3m-30.75-8.75-0.2-0.55 0.25-0.15 0.4 0.1 0.15 0.35-0.6 0.25m0.85 3.65 0.15 0.05 0.15 0.3-0.55 0.3-0.25-0.6 0.25-0.1 0.25 0.05m1.7-0.15 0.15 0.4-0.55 0.25-0.25-0.55 0.25-0.1h0.4m-3.8-2.95q0.45 0.3 0.5 0.9l-0.05 0.25-0.45 0.4-0.3 0.1-0.3-0.05q-0.7-0.35-0.6-0.95 0.15-0.7 0.85-0.7l0.35 0.05m-3.85-1.35 0.2 0.05 0.2 0.1 0.15 0.3-0.6 0.25-0.2-0.55 0.25-0.15m2.85 10.65q0.75 0.35 1.1 1.1l-0.1 0.2q-1.1 0.2-1.6-0.95l0.35-0.25 0.25-0.05v-0.05m4.95-0.1-0.55 0.3-0.3-0.6 0.3-0.1 0.2 0.05 0.15 0.05 0.2 0.3m6.45 6.1q0.5 0.35 0.5 0.95l-0.05 0.25-0.45 0.35-0.25 0.15-0.35-0.1q-0.65-0.3-0.55-0.9 0.1-0.75 0.8-0.7h0.35m-10.15-2.55 0.2 0.05 0.15 0.35-0.6 0.25-0.2-0.55 0.25-0.1h0.2m-10.75-23.2-0.15-0.2-0.1-0.55q0.15-0.7 0.85-0.7h0.35l0.45 0.7-0.25-0.25h-0.35q-0.7 0-0.8 0.65v0.35m0.95 5.8 0.5 1.05 0.05 0.25-0.75 0.1-0.45-1.05-0.05-0.25 0.55-0.1h0.15m4.55 9.45 0.15 0.35-0.6 0.25-0.2-0.55 0.25-0.15 0.4 0.1m48.1 23.1 0.15 0.35-0.5 0.25-0.3-0.55 0.3-0.15 0.25 0.05 0.1 0.05m3.2-1.65h0.25l0.15 0.1 0.15 0.3-0.6 0.25-0.15-0.55q0.05-0.15 0.2-0.1m-5.55-0.9 0.2-0.05 0.2 0.1 0.1 0.35-0.55 0.2-0.25-0.5 0.3-0.1" fill="#ffebae" fill-rule="evenodd"/>
<path d="m-39.8-36.65 1.2-1.65 5.8-2.15q0.7 0.3 1.55-0.5v-0.05l0.15-0.05 10.45-3.8 0.1 0.25 1.25 0.7-0.4 0.55q-0.05 0.65 0.6 0.95l0.3 0.1 0.25-0.15 0.45-0.35 0.05-0.25 0.1-0.2 12.5 6.5-0.35 0.55q-0.05 0.6 0.55 0.95l0.35 0.05 0.35-0.1 0.45-0.35 0.05-0.3-0.05-0.1 0.25 0.1 0.85-1.6 1.05 4.2-0.3 0.1-0.65 0.2q-0.8 1.45 0.3 2.5h0.4l0.55-0.25 0.15-0.2 0.2-0.05 0.05 0.3 1.1 4.2v0.1l-0.6-0.25-2.6 5.85-0.5-0.55h-0.35q-0.7-0.05-0.75 0.65-0.1 0.65 0.55 0.95l0.35 0.05q0.1-0.05 0.25-0.15v0.05l-1.55 3.45q-0.15-0.6-0.95-1.35l-0.05 0.05-0.8-0.2q-1.1 0.25-1.35 1.1l-0.55 0.15-15.35-6.85 2.7 1.15 6.5 2.75-6.75-3.05-7.1-10.2q0.2-0.3 0.05-0.8l0.05-0.25 0.1-0.3-0.1-0.2 12.2 7-0.1 0.05 0.25 0.6 0.5-0.3h0.05l-0.15-0.35-0.15-0.05-0.25-0.05-0.1 0.05q-11.25-7.65-10-8.95l0.1-0.25 8.4 1.2 2.45 0.4 0.05-0.25 0.05-0.35q0.05-0.85-0.75-1.25h-0.05l-0.45-0.05h-0.2l-0.55 0.3-0.35 0.35q-7.85-2.35-8.55-3.2l0.1-0.1 3.75 0.35 2.2 0.1h0.05l0.05-0.3 0.05-0.5v-0.05 0.05l0.2 0.3 0.35-0.15 0.15-0.1-0.1-0.2-0.05-0.15-0.1-0.05h-0.25l-0.15 0.05-0.1 0.05-0.05-0.1-0.7-0.75v0.05l-0.45-0.1-0.2 0.05-0.4 0.2-3.4-1.1-0.4-0.05h-0.05l-0.15-0.05-0.55 0.3-10.45 4.15-0.3-0.3h-0.3q-0.75-0.05-0.85 0.7v0.15l-1.15 0.4m51.8 80.95-8.05 0.3-0.05-0.35 0.05-0.2q0-0.65-0.5-1h-0.35q-0.7 0-0.8 0.7-0.1 0.55 0.4 0.85l-8.45 0.35-17.55-7.8 0.1-0.25v-0.2q0-0.65-0.5-1h-0.35q-0.75 0-0.8 0.7h-0.05l-2.75-1.2-3.05-3.85q0.2-0.75-1-1.85l-0.05 0.05-0.45-0.05-2.4-3.05 0.1-0.1 0.35-0.1 0.45-0.35v-0.25q-0.05-0.6-0.5-0.95h-0.35q-0.7-0.05-0.85 0.65l-0.05 0.05-3.05-3.85h0.05l0.05-0.25q0-0.65-0.5-0.95l-0.35-0.05-0.2 0.05-2.4-3-2.05-22.5 0.7-0.55 0.1-0.25q0.15-0.95-0.6-1.4v-0.05l0.05-0.05 0.65-7.5q0.4 0.5 1.25 0.25 1.6-0.45 1.65-1.25l2.6 5.75-0.5-0.15h-0.65q-0.5 0.15-0.5 0.65 0.15 1.2 1.55 1.25l0.55-0.3 0.15-0.15 2 4.45-0.3 0.8q0.5 0.95 1.15 1.1l4.5 10.05-3.55-10.3 0.45-0.35 0.05-0.3q0.2-1.05-0.75-1.55h-0.5l-0.9-2.65 0.35-0.15-0.15-0.35-0.4-0.1-4.3-12.55q0.45 0.2 0.9 0l16.9 25.8-12.85-24.75 0.45-0.1q2.95-0.85 0.6-2.95v0.05l-0.15-0.05 2-0.6 0.15 0.3 0.5-0.3-0.05-0.15 1.75 0.95v-0.2q0.95-0.3 5.35 1.05l0.25 0.5 0.45-0.3 6 2.05q-0.5 0.05-0.55 0.65-0.1 0.65 0.55 0.95h0.35l0.3-0.1 0.4-0.3 0.1-0.25-0.2-0.65 6.95 2.55-0.25 0.5q-0.1 0.65 0.55 1h0.5q0.4 0.65 1.4 0.4l1-0.45-7.8 17.35 5.45 22.35-0.1 0.05-0.35-0.05q-0.7 0-0.8 0.7-0.15 0.65 0.5 0.95l0.4 0.05 0.25-0.1 0.4-0.3 0.05 0.1 9.1 6.75 0.1 0.85q0.3 1.25 1.5 0.9l0.55-0.15 0.4 0.3 0.3 0.1 7.8 1.3 0.05-0.05 0.6 1.35 0.6 1.3 0.6 1.45-0.65-1.45h0.05-0.05l0.65 1.45 1 2.15 0.45 1.1-0.1 0.05-0.9-1.15-0.8-0.1-0.25 0.05-0.3-0.3h-0.35q-0.7 0-0.8 0.7-0.1 0.5 0.3 0.8l0.05 0.9v0.1m-53.95-27.05-2.05-2.55-3.1-10.05 0.25-0.1 0.15 0.2 0.55 0.6 0.35 0.05 0.3-0.15 0.4-0.3 0.05-0.25q0-0.45-0.25-0.7l-0.45-0.7h-0.35q-0.7 0-0.85 0.7l-0.35 0.1-0.7-2.35 0.25-0.1-0.8-24 1.1-0.4 0.05 0.1 0.2 0.45-0.15 0.05 0.7 8-0.25 0.05-0.35-0.05q-0.75 0-0.85 0.7-0.1 0.6 0.55 0.9l0.35 0.1 0.3-0.1 0.4-0.25 0.55 6.65 4 23.4m-6.65-40.05-0.05-1.2 1.2 0.6-1.15 0.6m2.75-7.65 1.65-4.65 1.05 1.25 0.1 0.3-2.8 3.1m4.7 12.8-0.75-0.1-0.85 0.3 0.3-3.35 0.05-0.05-0.05-0.05-0.1-0.2 0.15-0.05 1.8 4-0.55-0.55v0.05m0.4 13.35 0.25 0.6 0.6-0.3-0.2-0.3-0.15-0.05-0.25-0.05-0.25 0.1m25.7-34.3-0.1-0.25-0.15-0.05h-0.25l-0.2 0.1h-0.05l0.05 0.1 0.2 0.45 0.55-0.2v-0.05l3.4 1-3.45-1.1m-0.25 6.55v0.05l-0.5-0.1h-0.15l-0.6 0.3q-0.55 0.35-0.55 1.05 0.95 1.95 2.45 0.55l0.05-0.25q0.25-1.1-0.7-1.6m7.75 3.9q-0.7-0.05-0.8 0.7-0.1 0.6 0.55 0.95l0.35 0.05 0.25-0.15 0.45-0.35 0.05-0.25q0-0.6-0.5-0.9l-0.35-0.05m5-0.55-0.35-0.05q-0.7 0.05-0.8 0.7t0.55 1h0.35l0.25-0.1 0.5-0.4 0.05-0.15q-0.05-0.65-0.55-1m-20.25-11.65-2-0.25 2.1 0.1-0.1 0.15m-10.25 8.4q-0.15-1.85 0.2-2.05l2.55 2.6-0.15 0.15q-0.55 0.35-0.55 1.05 0.95 1.95 2.5 0.55l0.05-0.25 0.05-0.4 6.4 7.6q-6.15-2.8-6.4-3.05l-0.05-0.05v0.05l-0.75-0.15-0.15 0.05-3-1.65q0.25-0.55-0.35-1.35l-0.25-1.85 0.2-0.05 0.05-0.25-0.25-0.9-0.1-0.05m-3.05 2.15 0.35 0.5-2.25-1.3 0.35-0.35 0.1-0.25q0.05-0.5 1.3 1.2l0.1 0.2h0.05m13.55-5.3-0.6 0.3q-0.6 0.4-0.65 1.1 1.05 1.95 2.55 0.5l0.05-0.25q0.2-1.05-0.75-1.55h-0.05l-0.4-0.1h-0.15m-3.65 3.35-0.3 0.05q-0.75-0.05-0.85 0.6t0.55 0.95l0.35 0.05 0.35-0.1 0.45-0.35v-0.2q-0.05-0.65-0.55-1m3.3 3.05-0.4-0.05h-0.2l-0.6 0.25q-0.55 0.4-0.6 1.1 1 1.95 2.5 0.5l0.1-0.25q0.2-1.1-0.8-1.6v0.05m-7.15 12.05 0.3-0.15 0.45-0.35v-0.25q0-0.6-0.5-0.95h-0.35q-0.7-0.05-0.8 0.7-0.1 0.65 0.55 0.95l0.35 0.05m17.75 31.2-0.35-0.05q-0.7 0-0.85 0.7-0.05 0.6 0.6 1h0.35l0.25-0.1 0.45-0.4 0.05-0.25q-0.05-0.6-0.5-0.9m-2.2-6.35 0.45-0.3 0.05-0.25q0-0.65-0.5-0.95h-0.35q-0.75-0.05-0.8 0.6-0.1 0.65 0.55 1l0.35 0.05 0.25-0.15m-24.7-1.75v0.05l-0.45-0.05h-0.2q-0.3 0.05-0.55 0.25-0.6 0.4-0.6 1.1 0.95 1.95 2.5 0.55l0.05-0.3q0.2-1.1-0.75-1.6m-0.85 7.4-0.25 0.15 0.2 0.55 0.6-0.25-0.15-0.3-0.2-0.1-0.2-0.05m3.85 1.35-0.35-0.05q-0.7 0-0.85 0.7-0.1 0.6 0.6 0.95l0.3 0.05 0.3-0.1 0.45-0.4 0.05-0.25q-0.05-0.6-0.5-0.9m3.8 2.95h-0.4l-0.25 0.1 0.25 0.55 0.55-0.25-0.15-0.4m-1.7 0.15-0.25-0.05-0.25 0.1 0.25 0.6 0.55-0.3-0.15-0.3-0.15-0.05m-0.85-3.65 0.6-0.25-0.15-0.35-0.4-0.1-0.25 0.15 0.2 0.55m4.2 4.6q-0.6 0.4-0.6 1.1 0.95 1.95 2.5 0.5l0.05-0.25q0.2-1.1-0.75-1.6v0.05l-0.45-0.05-0.15-0.05-0.6 0.3m4.95 11.25h-0.35q-0.7-0.05-0.8 0.7-0.1 0.6 0.55 0.9l0.35 0.1 0.25-0.15 0.45-0.35 0.05-0.25q0-0.6-0.5-0.95m-6.45-6.1-0.2-0.3-0.15-0.05-0.2-0.05-0.3 0.1 0.3 0.6 0.55-0.3m33.4 10.3-0.05 0.1h0.2l-0.15-0.1m6.95 4.95-0.4-0.05q-0.7 0.05-0.8 0.7t0.55 1h0.35l0.3-0.1 0.45-0.35 0.05-0.25q-0.05-0.6-0.5-0.95m-2.15-4.05q-0.7 0-0.8 0.75-0.1 0.6 0.5 0.95h0.4l0.25-0.1 0.45-0.35 0.05-0.25q0-0.6-0.5-0.95l-0.35-0.05m-1.4 4.95-0.3 0.1 0.25 0.5 0.55-0.2-0.1-0.35-0.2-0.1-0.2 0.05m5.55 0.9q-0.15-0.05-0.2 0.1l0.15 0.55 0.6-0.25-0.15-0.3-0.15-0.1h-0.25m-3.2 1.65-0.1-0.05-0.25-0.05-0.3 0.15 0.3 0.55 0.5-0.25-0.15-0.35m4.85-2.8q-0.15 0.65 0.5 0.95l0.4 0.05 0.25-0.15 0.45-0.3 0.05-0.25q0-0.65-0.5-0.95h-0.4q-0.7 0-0.75 0.65m0.3-1.7q-0.05-0.6-0.55-0.95h-0.2l-0.45-0.5-0.05 0.05-0.75-0.1q-1.75 0.45-1.35 2.15 0.3 1.3 1.5 0.95 1.55-0.45 1.65-1.25l0.15-0.1 0.05-0.25m0.45-1.35 0.55 1.3-0.55-1.3" fill="#ffc820" fill-rule="evenodd"/>
<path d="m-41.55-34.25 1.75-2.4 1.15-0.4q-0.05 0.45 0.55 0.75l0.35 0.05 0.3-0.05 0.45-0.35 0.05-0.3-0.25-0.65 10.45-4.15 0.55-0.3 0.15 0.05h0.05l0.4 0.05 3.4 1.1 0.4-0.2 0.2-0.05 0.45 0.1v-0.05l0.7 0.75 0.05 0.1v0.05l0.05 0.15v0.05l-0.05 0.5-0.05 0.3h-0.05l-2.2-0.1-3.75-0.35-0.1 0.1q0.7 0.85 8.55 3.2l-0.25 0.7 0.05 0.15-8.4-1.2-0.1 0.25q-1.25 1.3 10 8.95l0.6 0.4-0.65-0.35-12.2-7 0.1 0.2-0.1 0.3-0.05 0.25q0.15 0.5-0.05 0.8l7.1 10.2 6.75 3.05-6.5-2.75-2.7-1.15 15.35 6.85 0.25 0.1-0.3-0.1-6.95-2.55-0.35-0.3-0.35-0.05-0.25 0.05-6-2.05h0.05l-0.15-0.35h-0.1l-0.25-0.05-0.3 0.1 0.05 0.1q-4.4-1.35-5.35-1.05v0.2l-1.75-0.95v-0.05l-0.05-0.1-0.15-0.1-0.25-0.05-0.3 0.15 0.15 0.3-2 0.6 0.15 0.05v-0.05q2.35 2.1-0.6 2.95l-0.45 0.1 12.85 24.75-16.9-25.8q-0.45 0.2-0.9 0l4.3 12.55-0.25 0.15 0.2 0.55 0.25-0.1 0.9 2.65h0.5q0.95 0.5 0.75 1.55l-0.05 0.3-0.45 0.35 3.55 10.3-4.5-10.05q-0.65-0.15-1.15-1.1l0.3-0.8-2-4.45-0.15 0.15-0.55 0.3q-1.4-0.05-1.55-1.25 0-0.5 0.5-0.65h0.65l0.5 0.15-2.6-5.75q-0.05 0.8-1.65 1.25-0.85 0.25-1.25-0.25l-0.65 7.5-0.2-0.05 0.15 0.1v0.05q0.75 0.45 0.6 1.4l-0.1 0.25-0.7 0.55 2.05 22.5 0.05 0.7-0.15-0.8-4-23.4-0.55-6.65-0.4 0.25-0.3 0.1-0.35-0.1q-0.65-0.3-0.55-0.9 0.1-0.7 0.85-0.7l0.35 0.05 0.3 0.25-0.05-0.3-0.7-8h0.2l-0.05-0.05-0.2-0.45-0.05-0.1-1.1 0.4-2 0.65 1.95-1.1 1.15-0.6-1.2-0.6v-0.7l2.8-5.75 2.8-3.1 0.45 0.35 0.2 0.05h0.15l0.25-0.1 0.45-0.35 0.05-0.25-0.05-0.4m8.75-6.2q-0.55-0.2-0.95-1.05 0.05-0.65 0.6-1l0.6-0.35h0.2l0.35 0.05h0.05q1 0.5 0.75 1.6l-0.05 0.2v0.05q-0.85 0.8-1.55 0.5m-9.75 19.35 0.1 0.2 0.05 0.05-0.05 0.05-0.3 3.35 0.85-0.3 0.75 0.1h0.05l0.5 0.5-1.8-4-0.2-0.05 0.05 0.1m27.5-17.5 3.45 1.1-3.4-1-0.05-0.1m-7.75-1.75 0.1-0.15-2.1-0.1 2 0.25m-13-2.05q0.5 0.35 0.55 0.95l-0.05 0.25-0.45 0.35-0.3 0.1-0.35-0.05q-0.65-0.35-0.55-0.95 0.1-0.7 0.85-0.7l0.3 0.05m2.75 10.45h-0.05l-0.55 0.15v0.25l0.15 0.9 0.55-0.05 0.25 1.85q0.6 0.8 0.35 1.35l3 1.65 0.15-0.05 0.75 0.15h0.05q0.25 0.25 6.4 3.05l-6.4-7.6-0.05 0.4-0.05 0.25q-1.55 1.4-2.5-0.55 0-0.7 0.55-1.05l0.2-0.1-0.05-0.05-2.55-2.6q-0.35 0.2-0.2 2.05m-3.2 1.95q-1.25-1.7-1.3-1.2l-0.1 0.25-0.35 0.35 2.25 1.3-0.35-0.5 0.5-0.25-0.1-0.35-0.2-0.05h-0.2l-0.3 0.1 0.1 0.25 0.05 0.1m13.7-5.1h0.15l0.4 0.1h0.05q0.95 0.5 0.75 1.55l-0.05 0.25q-1.5 1.45-2.55-0.5 0.05-0.7 0.65-1.1l0.6-0.3m-6.65 3.6-0.25-0.05v0.05h0.25m6.3 2.8v-0.05q1 0.5 0.8 1.6l-0.1 0.25q-1.5 1.45-2.5-0.5 0.05-0.7 0.6-1.1l0.6-0.25h0.2l0.4 0.05m-14.25 15.4-0.15-0.3-0.15-0.1h-0.25l-0.25 0.15 0.2 0.5 0.6-0.25m-2.05 19.75q0.95 0.5 0.75 1.6l-0.05 0.3q-1.55 1.4-2.5-0.55 0-0.7 0.6-1.1 0.25-0.2 0.55-0.25h0.2l0.45 0.05v-0.05m8.45 12.8 0.6-0.3 0.15 0.05 0.45 0.05v-0.05q0.95 0.5 0.75 1.6l-0.05 0.25q-1.55 1.45-2.5-0.5 0-0.7 0.6-1.1" fill="#fff" fill-rule="evenodd"/>
<path d="m-5.45-36.75 0.5-0.15 0.35 0.05q0.4 0.3 0.5 0.8l0.05 0.1-0.05 0.3-0.45 0.35-0.35 0.1-0.35-0.05q-0.6-0.35-0.55-0.95l0.35-0.55m-6.65-7.15-0.45 0.35-0.25 0.15-0.4-0.05q-0.6-0.35-0.55-0.95l0.25-0.5 0.55-0.2 0.4 0.05q0.5 0.3 0.5 0.9l-0.05 0.25m-9.6 85.35-0.05-0.6q0.1-0.65 0.8-0.65h0.35q0.5 0.35 0.55 1l-0.05 0.25-0.45 0.3-0.1 0.1-0.2 0.05-0.35-0.1-0.5-0.35m34.1 3.5q-0.25-0.25-0.35-0.65l-0.05-0.1-0.05-0.9q-0.4-0.3-0.3-0.8 0.1-0.7 0.8-0.7h0.35l0.3 0.3 0.25-0.05 0.8 0.1 0.9 1.15q0.25 0.45 0.1 0.9l-0.4 0.4-1.25 0.55q-0.7 0.2-1.1-0.2m-8.9-0.35-0.05 0.05-0.25 0.1-0.35-0.05-0.15-0.1q-0.5-0.3-0.4-0.85 0.1-0.7 0.8-0.7h0.35q0.5 0.35 0.5 1l-0.05 0.2-0.4 0.35m-26.9-7.5-0.25 0.15-0.3 0.1-0.4-0.05q-0.6-0.3-0.55-0.9h0.05q0.05-0.7 0.8-0.7h0.35q0.5 0.35 0.5 1v0.2l-0.2 0.2m-7.3-5.75q-0.15 0.75-1.6 1.2-1.3 0.3-1.55-1-0.4-1.7 1.35-2.15l0.3 0.1 0.45 0.05 0.05-0.05q1.2 1.1 1 1.85m-4-5h-0.15q-0.55-0.35-0.55-0.9v-0.1q0.15-0.7 0.85-0.65h0.35q0.45 0.35 0.5 0.95v0.25l-0.45 0.35-0.35 0.1h-0.2m-3.8-4.8-0.4 0.3-0.25 0.1h-0.35q-0.65-0.3-0.55-0.95 0.05-0.6 0.6-0.65l0.2-0.05 0.35 0.05q0.5 0.3 0.5 0.95l-0.05 0.25h-0.05m-10.55-48.3q0.45 0.3 0.5 0.9l-0.1 0.25-0.45 0.35-0.25 0.1h-0.35q-0.55-0.3-0.55-0.75v-0.2q0.1-0.75 0.8-0.75l0.35 0.05 0.05 0.05m-3.9 11.05q-0.65-0.3-0.55-0.95 0.1-0.7 0.8-0.65h0.35q0.55 0.3 0.5 0.95l-0.05 0.25-0.4 0.3-0.3 0.15-0.35-0.05m0.8 13.2q0.35-0.95 1.5-0.75h0.3q0.5 0.35 0.55 1v0.25q-0.55 0.55-1.45 0.5l-0.35-0.05q-0.65-0.3-0.55-0.95m43.1-14.15 0.55-0.15q0.25-0.85 1.35-1.1l0.8 0.2 0.05-0.05q0.8 0.75 0.95 1.35 0.2 0.7-0.55 1.2l-1 0.45q-1 0.25-1.4-0.4h-0.5q-0.65-0.35-0.55-1l0.25-0.5 0.3 0.1-0.25-0.1m5.25-3.25q-0.15 0.1-0.25 0.15l-0.35-0.05q-0.65-0.3-0.55-0.95 0.05-0.7 0.75-0.65h0.35l0.5 0.55 0.05 0.4-0.1 0.25-0.35 0.3h-0.05m2.3-11.1-0.15 0.2-0.55 0.25h-0.4q-1.1-1.05-0.3-2.5l0.65-0.2 0.35-0.05v0.05q0.75 0.8 0.5 1.9l-0.1 0.35m-1.05 2.3q0.5 0.35 0.55 1l-0.05 0.15-0.5 0.4-0.25 0.1h-0.35q-0.65-0.35-0.55-1t0.8-0.7l0.35 0.05m-5.65 53.35q0.35 0.3 0.35 0.8l-0.05 0.3h-0.05v0.05l-0.4 0.3-0.25 0.1-0.4-0.05q-0.65-0.3-0.5-0.95 0.1-0.7 0.8-0.7l0.35 0.05 0.15 0.1m9.4 8q0.15-1.05 1.45-1.35l0.75 0.15h0.05q2.1 1.95-0.1 2.8l-0.55 0.15q-1.2 0.35-1.5-0.9l-0.1-0.85m2.45-2.05-0.2 0.1h-0.45q-0.9-0.7-0.65-1.7l0.15-0.35 0.15-0.2 0.35-0.15 0.5 0.05 0.05-0.05q0.7 0.6 0.65 1.55l-0.1 0.25-0.45 0.5m-6.7-9.95v0.3l-0.45 0.3-0.3 0.1-0.4-0.05q-0.65-0.3-0.5-0.95 0.05-0.65 0.8-0.65l0.35 0.05 0.25 0.45 0.25 0.4v0.05m-2.65-4.7q-0.4 0.4-1.35 0.65-1.3 0.35-1.55-0.9-0.45-1.8 1.4-2.15h0.15l0.6 0.1q1.65 1.45 0.75 2.3m-8.8-7.75-0.25 0.15-0.35-0.05q-0.65-0.35-0.55-1 0.05-0.65 0.8-0.6h0.35q0.5 0.3 0.5 0.95l-0.05 0.25-0.45 0.3m2.2 6.35q0.45 0.3 0.5 0.9l-0.05 0.25-0.45 0.4-0.25 0.1h-0.35q-0.65-0.4-0.6-1 0.15-0.7 0.85-0.7l0.35 0.05m4.65 3.35 0.3 0.05q0.55 0.3 0.55 0.95l-0.05 0.25-0.4 0.3-0.35 0.15-0.35-0.05q-0.65-0.35-0.55-1t0.85-0.65m2.6 4.8v-0.05l0.75 0.85q0.95 1.5-1.4 2.15-1.25 0.35-1.5-0.95-0.45-1.7 1.35-2.15l0.8 0.15m3.25 4.4v0.2l-0.5 0.35-0.25 0.1h-0.35q-0.7-0.35-0.6-1 0.15-0.65 0.85-0.7l0.4 0.05q0.45 0.35 0.45 1m-9.55 16.3v0.25l-0.2 0.15-0.55 0.3q-1.4-0.05-1.55-1.25 0-0.5 0.55-0.6l0.6-0.05q1.05 0.15 1.15 1.2m-33.95-39.4q0.25 0.25 0.25 0.7l-0.05 0.25-0.4 0.3-0.3 0.15-0.35-0.05-0.55-0.6v-0.35q0.1-0.65 0.8-0.65h0.35l0.25 0.25m-3.3 1.95q1.05 0.15 1.15 1.15l-0.05 0.25-0.15 0.2-0.55 0.3q-1.4-0.05-1.6-1.25 0.05-0.5 0.6-0.6l0.6-0.05m0.7 3q2.35 2.15-0.65 3-1.2 0.3-1.55-0.9-0.4-1.8 1.4-2.2l0.75 0.15 0.05-0.05m2.6 8.95q-0.65-0.35-0.55-0.95 0.15-0.7 0.85-0.7h0.3q0.5 0.35 0.55 1l-0.05 0.25-0.45 0.35-0.3 0.1-0.35-0.05m51.25 17.7 0.35 0.05q0.5 0.35 0.5 0.95l-0.05 0.25-0.45 0.35-0.25 0.1h-0.4q-0.6-0.35-0.5-0.95 0.1-0.75 0.8-0.75m2.15 4.05q0.45 0.35 0.5 0.95l-0.05 0.25-0.45 0.35-0.3 0.1h-0.35q-0.65-0.35-0.55-1t0.8-0.7l0.4 0.05m3.95-1.05-0.05 0.25-0.15 0.1q-0.1 0.8-1.65 1.25-1.2 0.35-1.5-0.95-0.4-1.7 1.35-2.15l0.75 0.1 0.05-0.05 0.45 0.5h0.2q0.5 0.35 0.55 0.95m-0.3 1.7q0.05-0.65 0.75-0.65h0.4q0.5 0.3 0.5 0.95l-0.05 0.25-0.45 0.3-0.25 0.15-0.4-0.05q-0.65-0.3-0.5-0.95" fill="#5e4600" fill-rule="evenodd"/>
<path d="m-20.65-44.85h0.05l0.05 0.25-0.1-0.25m2.6 1.55 0.1 0.05-0.1 0.2v-0.25m30.1 87.6h-0.05v-0.1l0.05 0.1m-8.1 0.3h-0.45l0.4-0.35 0.05 0.35m-27.25-7.45-0.1-0.05 0.2-0.2-0.1 0.25m-11.3-10.7-0.1-0.1h0.2l-0.1 0.1m-0.8-1-0.05-0.05 0.05-0.05v0.1m-11.7-20.8-0.2-0.55 0.35-0.1 0.1 0.55-0.25 0.1m4.7-25.8-0.15 0.05-0.05-0.1 0.2 0.05m-4.8-1.05 0.05 0.05h-0.2l0.15-0.05m0.55 8.05 0.05 0.3-0.3-0.25 0.25-0.05m3 6.7-0.05 0.05-0.15-0.1 0.2 0.05m39.85-12.4v-0.05h0.05l-0.05 0.05m2.5-11.2-0.2 0.05 0.1-0.35 0.1 0.3m-0.95-2.2 0.3-0.1 0.05 0.05-0.35 0.05m-28.05 1.85 0.05 0.05-0.2 0.1 0.15-0.15m1.1-0.1h-0.25v-0.05l0.25 0.05m20.95 56 0.05 0.15-0.15-0.1 0.1-0.05m0.3 1.3v-0.05l0.05 0.15-0.05-0.1m23 17.5 0.1-0.05 0.4 0.9 0.15 0.3h-0.05l-0.1 0.05v-0.35l-0.4 0.05q0.15-0.45-0.1-0.9" fill="#c90" fill-rule="evenodd"/>
<path d="m-31.2-41.2 0.1 0.15-0.15 0.05 0.05-0.2m10.65 82.95-0.05 0.1h-0.05l0.1-0.1m12.65-16v0.15l-0.05-0.15h0.05m19.75 10.2v-0.15l0.05 0.1-0.05 0.05m-14.85-15.3h-0.05v-0.05l0.05 0.05m-4.2-7.1 0.1-0.1 0.05 0.1h-0.15m21.95 31.05 0.4-0.4 0.4-0.05v0.35l-0.8 0.1" fill="#916c00" fill-rule="evenodd"/>
<path d="m51.35 25.5 0.05-0.05-1.65 3.3-25.25 10.95 18.05-9.5 0.9-0.5 1-0.5 6.9-3.7" fill="#8c211e" fill-rule="evenodd"/>
<path d="m51.4 25.45-0.05 0.05-0.15-0.3 0.2 0.25m-7.95 4.25-0.9 0.5-18.05 9.5-8.8 4.75-1-2.3 1 2.3-0.15-0.3-0.4-0.9-0.45-1.1-1-2.15-0.6-1.45-0.6-1.3-0.6-1.35-0.05-0.1h0.05l-0.05-0.05 3-4.5 1.85-2.65 9.2-10.7-2.9 5.55 0.55 0.4-6.1 8.2-1.5 2 0.55 0.45 1.65-1.9 19.4-18-0.75 6.75 4.5-2.45-5.8 9.55 11.3-4.6-3.85 5 0.5 0.85-0.9 0.5 0.9-0.5m-26.95 4.8-3.4 4.05 3.4-4.05" fill="#f99" fill-rule="evenodd"/>
<path d="m51.35 25.5-6.9 3.7-1 0.5 1-0.5-1 0.5-0.5-0.85 3.85-5-11.3 4.6 5.8-9.55-4.5 2.45 0.75-6.75-19.4 18 16.85-19.75-16.85 19.75-0.7-0.55 6.1-8.2 1.05-1.4-1.6 1 2.9-5.55-9.2 10.7 2.15-3.5 5.7-8.85 10.45-3.4 3.55-2.6 16.45 8.15-3.8 6.8 0.15 0.3" fill="#8c312f" fill-rule="evenodd"/>
<path d="m23.55 23.85-0.55-0.4 1.6-1-1.05 1.4" fill="#c96d6d" fill-rule="evenodd"/>
<path d="m17.45 32.05 0.7 0.55-1.65 1.9-0.55-0.45 1.5-2" fill="#d66969" fill-rule="evenodd"/>
<path d="m1.15 34.7 0.15 0.1h-0.2l0.05-0.1" fill="#f9c" fill-rule="evenodd"/>
<path d="m-3-37.55-9.1-6.35m-1.4-1-3.75-2.65-19.4 2.35-13.9 14.75-2.55 6.8-1.85 19 0.25 0.7-0.3-0.65 5.15 18.8 13.7 17.25 8.5 7.7 5.95 2.3m1.1 0.4 15.2 5.75 17.8-2.65m-12.55-71.4v-0.1l-1.1-4.2m-0.7-2.6-1.05-4.2m1.1 4.25-0.05-0.05m13.8 69.15-4.9-1.6-1.25-0.9-2.05-2.7m-1.3-1.6-2.4-3.1-2.95-5.25m-0.75-1.25-1.95-3.45m-1.4-2.5-1.25-2.2-1.85-11.4 10.05-26.3m-2.9 47.05 0.05 0.05m-0.05-0.05-0.25-0.4m-0.45-0.8 0.45 0.8m54.7 5.25-0.05 0.05-6.9 3.7m-1.9 1-18.05 9.5 25.25-10.95 1.65-3.3-0.2-0.25 3.8-6.8-16.45-8.15-3.55 2.6-16.85 19.75m25.3-2.9-0.9 0.5m0.9-0.5 1-0.5m-27.95 5.3 1.65-1.9m0.7-7.5 5.7-8.85 10.45-3.4m-20.15 18.4-3 4.5 0.05 0.05h-0.05l0.05 0.1 0.6 1.35m0.6 1.3 3.4-4.05m2.35-9.4-4 6.15m-3 4.55v-0.05m1.25 2.8h-0.05l0.65 1.45 1 2.15 1 2.3 8.8-4.75m-11.45-1.15-0.55-1.3m2.25 7.35 0.8-0.1m0.15-0.05h-0.05l-0.1 0.05" fill="none" stroke="#000" stroke-linecap="round" stroke-linejoin="round" stroke-opacity=".30196" stroke-width=".05"/>
</g>
<g id="a" transform="translate(10.9,10.25)">
<path d="m3.25-3.5 7.6 0.65-6.5 4.85 2.25 8.3-7.1-4.65-7.95 3.65 3.6-7.7-6.05-4.95 8.3-0.35 3.15-6.55 2.7 6.75" fill="#ffc" fill-rule="evenodd"/>
</g>
</defs>
</svg>
