<?xml version="1.0" encoding="utf-8"?>
<!-- Generator: Adobe Illustrator 27.2.0, SVG Export Plug-In . SVG Version: 6.00 Build 0)  -->
<svg version="1.1" id="Calque_1" xmlns="http://www.w3.org/2000/svg" xmlns:xlink="http://www.w3.org/1999/xlink" x="0px" y="0px"
	 viewBox="0 0 612 792" style="enable-background:new 0 0 612 792;" xml:space="preserve">
<style type="text/css">
	.st0{fill:#FFFFFF;}
	.st1{fill:#606060;}
	.st2{fill:#7C7C7C;}
	.st3{fill:#D7D7D7;}
	.st4{fill:#AEAEAE;}
	.st5{fill:#E5E5E5;}
</style>
<g>
	<g>
		<path class="st0" d="M226.1,395.5c0-25.8,0-51.6-0.1-77.4c0-2.5,0.6-3.1,3.1-3.1c51.6,0.1,103.3,0.1,154.9,0
			c2.5,0,3.1,0.6,3.1,3.1c-0.1,52-0.1,103.9,0,155.9c0,2.5-0.6,3.1-3.1,3.1c-51.6-0.1-103.3-0.1-154.9,0c-2.5,0-3.1-0.6-3.1-3.1
			C226.1,447.8,226.1,421.6,226.1,395.5z M347,341c-0.3-1.1-1.2-1-2-1l0,0c-0.6-1.5-2-0.9-3.1-1.1c-0.7-1.1-1.8-0.8-2.8-0.9
			c-4.4-4.6-10.2-6.1-16.1-8.6c2.9,3.4,2.3,6.1,0.9,8.8c-2.1,3.7-4.6,7.3-5,11.7c-0.9,1.3-1.9,2.5-1.8,4.1c-2.7,4.7-7.7,5.9-12.1,8
			c-0.7,0-1.3,0-2,0c-0.7-1.2-1.1-2.9-3-2.9c0-0.7,0-1.3,0-2c2.2-9.8,11.8-14.3,16.4-22.8c-4.2-0.3-5.4,5.1-9.3,4.8
			c-8.3-6-18-9.5-27.1-14c-0.3-1-1.2-0.9-2-1.1l0.1,0.1c-0.4-0.9-1.3-0.9-2.1-1.1l0.1,0.1c-0.4-1-1.3-0.9-2.1-1.1l0.1,0.1
			c-0.4-0.9-1.3-0.9-2.1-1.2c-0.3-0.9-1.1-0.9-1.8-0.8c-0.7-0.4-1.4-0.7-2.2-1.1c-1.3-1.1-2.9-2-4.2-0.7c-0.9,1,0.5,2.3,1.1,3.5
			c1.4,2.8,2.8,5.6,4.2,8.4c-6.1,4.7-10.6,10.5-13.1,17.8c-1.3,0.6-2,1.7-2.2,3.1c-5.9,1-10.3,4.7-14.8,8.4c-2.8,1.3-4.7,4-7.8,4.8
			c-2.2,0.3-1.7-2.2-3-3.2c0,1.9-0.4,3.7,0.1,5.2c2.8,7.8,2.8,16.2,5.1,24.1c0.8,2.7,0.7,5.5,3.6,6.8c1,1,2,1.9,3,2.9
			c0,1.7-1.6,2.5-2.1,3.8c-0.5,1.5-2.6,3.5-0.1,4.8c6,3.1,7.7,9,10.1,14.5c-0.1,0.9,0.1,1.6,1,2l0,0c0,0.9,0.1,1.6,1,2l0,0
			c-0.1,0.9,0.2,1.6,1,2l0,0c0,0.9,0.2,1.6,1,2l0,0c0,0.9,0.2,1.6,1,2l0,0c0.1,0.6,0.3,1.1,1,1l0,0c-0.1,1-0.3,2,1.2,1.1
			c0.3,0,0.6,0,0.9-0.1c0,3.6,3.9,1,4.8,3.1c7.6,3.6,15.3,7.2,22.9,10.8c4.2,2.3,7.9,5.2,10.7,9.1c2.2,3,4.6,5.4,8.4,6
			c1.3,1.7,3,2.2,5,2l0,0c1.3,1.5,3,2.2,5,2l0,0c1,0.6,2,1.3,3,1.9c3.7,0.7,6.8,3.5,10.9,3.1c0.8,1.2,1.8,1,3,0.7
			c5-1.2,9.3-4,14-5.8c2.6,0.1,4.9-0.5,6.2-3c2.2,0.7,3.4-0.9,4.8-2c1.8,0.1,3.8,0.4,4.9-1.4c3.7-6.1,8.7-11.5,11.2-18.3
			c0.3-0.4,0.6-0.8,1-1.2l0,0c0.9-0.4,1-1.2,1-2l0,0c1-0.3,1-1.2,1-2l0,0c1-0.3,1.4-1,1-2l0,0c0.8,0.1,0.9-0.4,1-1l0,0
			c1.1-0.3,1.1-1.2,1-2l0,0c1.5-0.4,2-1.6,2-3l0,0c1.1-0.3,1.1-1.2,1-2c1.5-1.4,3.7-5.5,3.8-7c1.3-6.3-0.4-12.2-2.1-18.2
			c-0.1-2.2,1.2-4.6-0.7-6.6c-0.2-0.2-0.5-0.3-0.8-0.2c-0.5-0.9-1.4-1-2.3-1l0.1,0c-0.4-1-1.3-0.9-2.1-1c-0.6-2.6,2.7-3,3-5
			c1.3-0.7,1.1-2,1-3.1c-1.2-9.1-2.4-18.2-3.7-27.2c-0.2-1.7-0.7-3.3-2.3-4.2c-7.6-3.9-15.3-7.7-22.9-11.5l0,0c-0.4-0.9-1.1-1.1-2-1
			l0,0C348.7,341,347.9,340.9,347,341L347,341z M240,334.1L240,334.1c-0.9,0.4-1,1.1-1,2l0-0.1c-1.5,1.3-2.1,3.1-2,5.1l0-0.1
			c-0.2,1-3.6,2.1,0,3.1c0.8,1.2,1.6,0.6,2.5,0c7.5-4.7,12-11.7,15.2-19.7c0.4-1,0.8-2.3-0.6-3c-11.4,6.3-11.4,6.3-13,10.6
			C240.1,332.4,240,333.2,240,334.1z M257,319.6c-0.1-0.3-0.3-0.5-0.4-0.8c-0.2,0.2-0.4,0.5-0.4,0.7c0,0.3,0.2,0.5,0.3,0.8
			C256.7,320.1,256.8,319.8,257,319.6z"/>
		<path class="st1" d="M283.9,448.9c-7.6-3.6-15.3-7.2-22.9-10.8c1.7-2.1,7.8-0.7,5.1-6.2c-3.2-6.6-6.7-13.1-9.1-20.1
			c1.1-0.6,2.2-1.2,3.4-1.6c2.1-0.8,1.1-2.9,2-4.3c0.7-1.1-1.2-1.5-1.8-1.6c-6.9-1.2-13.4-4.1-20.4-4.5c-1-1-2-1.9-3-2.9
			c2,0,3.9,0,5.9-0.1c1.1,0.4,2.1,0.9,3.2,1.2c12.8,4.1,14.7,3.1,17-9.9c0.1-0.6,0.5-1.2,0.6-1.9c1.7-9.8,5.5-19,8.4-28.5
			c1.7-5.7,2.7-10.5-3-14.4c-0.7-0.5-0.8-1.7-1.2-2.6c1.2-1.8,3-2.5,5-2.9c7.1,2.7,14.1,5.4,21.2,8.1c-5,2.5-8.5,6.3-10.4,11.6
			c0,0-0.1,0.1-0.1,0.1c-0.5,0.4-1.2,0.6-1.5,1.1c-5.2,9-5.4,19.6-9,29.2c-0.3,0.8,0.9,1.6,1.8,2.1c1.7,1.6,3.8,2.3,5.9,3.1
			c2.3,1.4,4.1,3.6,7.1,3.8c3.7,2.3,7.9,3.7,12,4.7c6.2,1.6,12.8,5.2,18.2-1.7c19.2-2.2,37.8-7.4,56.7-10.9c1.3-0.1,2.7-0.1,4-0.2
			c-0.4,2-3.6,2.4-3,5c-0.3-0.1-0.6-0.1-0.9,0c-15.4,2.4-30.9,4.3-46.2,7.7c-3.1,0.7-6.8-0.3-8.8,3.4c-6.3,2.9-8.8,8.1-9,14.7
			c-0.1,5.4,0,10.9,0,16.3c0,0-0.1,0.1-0.1,0.1c-5-1-9.7-3-14.9-3.1c-4.5-2.8-9.8-3.4-14.7-5.1c3.8-3,8.7-2.9,12.9-4.7
			c7.2-3,12.6-8.9,12.7-15.2c-0.2-0.4-0.4-1.1-0.7-1.2c-8.8-3-17.4-6.2-26.3-8.6c-4.8-1.3-8.6,1.5-8.6,5.6c-0.1,3.5-0.8,6.8-1,10.2
			c-0.1,3.7-0.2,7.4-0.3,11c2.3,7.5,5,14.8,11.5,20C282.6,445.9,284.4,446.8,283.9,448.9z"/>
		<path class="st1" d="M343.8,467.9c-4.7,1.8-9,4.6-14,5.8c-1.2,0.3-2.2,0.5-3-0.7c0.5-1.6-0.6-2.4-1.7-3.2
			c-0.4-1.3-0.8-2.5-1.2-3.8c-3.4-10.4-9.4-19.6-13.1-29.9c0,0,0.1-0.1,0.1-0.1c1.8-0.1,3.7,0,5.4-0.4c10.5-2.3,20.9-4.8,31.4-7.1
			c9.3-2,18.6-4.4,28.1-5.6c-5.3,9.6-10.7,19.2-15.7,28.9c-1.9,3.6-4.8,6.7-5.3,11c-1.4,1.1-2.7,2.7-4.8,2c0.6-3.7,3.9-6.6,3.5-11.7
			C349.5,458.3,345.8,462.5,343.8,467.9z"/>
		<path class="st2" d="M268,340.9c0.4,0.9,0.5,2.1,1.2,2.6c5.7,3.9,4.7,8.6,3,14.4c-2.8,9.5-6.6,18.7-8.4,28.5
			c-0.1,0.6-0.5,1.2-0.6,1.9c-2.3,13-4.1,14.1-17,9.9c-1.1-0.4-2.2-0.8-3.2-1.2c-0.2-6.1,0.7-12.1,1.6-18.1c1.4-9.9,5-18.9,9.2-27.8
			c0.2-1.4,0.9-2.5,2.2-3.1C260,345.6,264,343.2,268,340.9z"/>
		<path class="st3" d="M318.2,400.1c-5.4,6.9-12.1,3.3-18.2,1.7c-4.1-1-8.3-2.4-12-4.7c0.6-1.1,1.5-2.2,1.9-3.4
			c3.1-9.5,6.1-19.1,12-27.4c0.9-1.2,1.3-2.7,1.1-4.3c0.7,0,1.3,0,2,0c2.6,4.3,5.9,6.5,11.3,5.1c1.9-0.5,4-1.6,6.2-0.8
			c-1.9,4.3-3.7,8.7-4.9,13.3C315.6,386.5,315,393.3,318.2,400.1z"/>
		<path class="st4" d="M378.9,389c-1.3,0.1-2.7,0.1-4,0.2c-2.5-8.4-2.6-17.2-3.9-25.8c-0.4-2.6-1.2-3.5-3.6-3.3
			c-6.9,0.6-13.8,1-20.7,1.7c-6.7,0.7-13.1,3.3-19.9,2.9c0.3-1.4,1.2-2.4,2.3-3.1c4-2.3,7.9-4.6,12-6.6c5.1-2.5,10.3-4.6,15.5-6.9
			c-1.8-2.4-5.4-1.8-5.7-5c7.6,3.8,15.3,7.7,22.9,11.5c1.7,0.8,2.1,2.5,2.3,4.2c1.3,9.1,2.5,18.1,3.7,27.2
			C380.1,387,380.3,388.3,378.9,389z"/>
		<path class="st5" d="M351,343c0.4,3.2,3.9,2.6,5.7,5c-5.3,2.3-10.5,4.5-15.5,6.9c-4.1,2-8.1,4.3-12,6.6c-1.1,0.7-2.1,1.7-2.3,3.1
			c-1.5,0.6-2.9,1.1-4.4,1.7c-2.2-0.8-4.2,0.3-6.2,0.8c-5.3,1.4-8.7-0.9-11.3-5.1c4.4-2.1,9.4-3.3,12.1-8c3.3-0.6,6.5-1.5,9-4
			c5.6-2.7,8.8-7.9,13-12.1c1,0.1,2.1-0.2,2.8,0.9c0.6,1.6,1.9,1.2,3.1,1.1c0,0,0,0,0,0c0.3,1.1,1.1,1.2,2,1c0,0,0,0,0,0
			c0.3,1.2,1.1,1.2,2,1c0,0,0,0,0,0C349.3,343.1,350.1,343.1,351,343L351,343z"/>
		<path class="st5" d="M325.1,469.8c1.1,0.8,2.1,1.6,1.7,3.2c-4.1,0.5-7.2-2.3-10.9-3.1c0-2.2-1.5-2.1-3-1.9c0,0,0,0,0,0
			c-1-2.4-3-2.2-5-2c0,0,0,0,0,0c-0.9-2.6-3.1-1.9-5-2c-3.8-0.6-6.2-3-8.4-6c-2.8-3.9-6.5-6.8-10.7-9.1c0.5-2.1-1.3-3-2.4-3.9
			c-6.5-5.2-9.2-12.4-11.5-20c4.3-1,7.3,2.9,11.3,2.9c4.9,1.7,10.2,2.3,14.7,5.1c-4.1,0.8-8.1-1.8-12.7-0.6
			c8.4,11,18.3,19.8,27.8,28.9C314.9,465.1,319.2,469,325.1,469.8z"/>
		<path class="st4" d="M294.1,346c-7.1-2.7-14.1-5.4-21.2-8.1c-1.7-2.5-1.6-5.8-3.8-7.9c-1.4-2.8-2.8-5.6-4.2-8.4
			c-0.6-1.1-2-2.5-1.1-3.5c1.3-1.3,2.9-0.3,4.2,0.7c0.4,1,1.3,1,2.2,1.1c0.8-0.1,1.5-0.1,1.8,0.8c0.3,1,1.2,1.2,2.1,1.2
			c0,0-0.1-0.1-0.1-0.1c0.4,1,1.2,1,2.1,1.1c0,0-0.1-0.1-0.1-0.1c0.4,1,1.3,1,2.1,1.1c0,0-0.1-0.1-0.1-0.1c0.3,0.9,1.2,1,2,1.1
			c9.1,4.5,18.7,8,27.1,14C303,341.8,299,344.7,294.1,346z"/>
		<path class="st3" d="M280.9,393.2c-2.1-0.8-4.2-1.6-5.9-3.1c4-7.1,4.4-15.3,6.9-22.9c1-3,2.5-6.1,1.7-9.5c0,0,0.1-0.1,0.1-0.1
			c0.8,0.3,1.9,0.4,2.3-0.3c4.3-7.1,8.9-3.9,13.5-0.4c0.1,0.1,0.3,0.1,0.5,0.1c0,0.7,0,1.3,0,2c-0.4,0.7-0.9,1.4-1.1,2.1
			c-3.7,10.2-8.1,20-16.2,27.7C281.4,390,280.9,391.5,280.9,393.2z"/>
		<path class="st4" d="M320,405c1.9-3.7,5.7-2.7,8.8-3.4c15.3-3.4,30.8-5.2,46.2-7.7c0.7,1.2,1.9,1.1,3,1c0,0-0.1,0-0.1,0
			c0.4,1.1,1.3,1.1,2.3,1c0.3-0.1,0.6,0,0.8,0.2c0.1,2.2-0.6,4.5,0.7,6.6c1.8,5.9,3.4,11.9,2.2,18.2c-2.3,1.7-5,0.7-7.5,1.2
			c-0.1-4.6-0.3-9.3-0.3-13.9c-0.1-9-0.5-9.5-9.5-8.2c-0.3,0-0.6,0.1-1,0.2C350.5,402.7,335.2,403.3,320,405z"/>
		<path class="st5" d="M253.8,351c-4.2,8.9-7.8,18-9.2,27.8c-0.9,6-1.7,12-1.6,18.1c-2,0-3.9,0-5.9,0.1c-3-1.4-2.9-4.1-3.6-6.8
			c-2.3-7.9-2.3-16.3-5.1-24.1c-0.5-1.5-0.1-3.2-0.1-5.2c1.2,1,0.7,3.5,3,3.2c0.7,3,1.4,6,2,9.1c1,4.5,1.9,8.9,2.8,13.4
			c0.2,1.1,0.7,1.9,1.7,2.2c0.7,0.2,1.2-0.3,1.3-1.1c0.7-5,3-9.8,1.2-15c-0.1-4.5-0.1-8.9-1.3-13.3C243.4,355.7,247.8,352,253.8,351
			z"/>
		<path class="st5" d="M240.1,399.9c7.1,0.3,13.6,3.3,20.4,4.5c0.6,0.1,2.5,0.5,1.8,1.6c-0.9,1.4,0.1,3.6-2,4.3
			c-1.2,0.4-2.3,1.1-3.4,1.6c-7.8,0.9-7.6,0.9-5.4,8.2c1.5,5,4.3,9.6,4.6,14.9c-0.3,0-0.6,0-0.9,0.1c-0.4-0.4-0.8-0.7-1.2-1.1
			c0,0,0,0,0,0c-0.1-0.6-0.3-1.1-1-1c0,0,0,0,0,0c0.1-0.9,0.2-1.8-1-2c0,0,0,0,0,0c0.1-0.9,0.1-1.8-1-2c0,0,0,0,0,0
			c0.1-0.9,0.2-1.8-1-2c0,0,0,0,0,0c0.1-0.9,0.1-1.8-1-2c0,0,0,0,0,0c0.1-0.9,0.1-1.7-1-2c-2.4-5.5-4.1-11.4-10.1-14.5
			c-2.5-1.3-0.5-3.3,0.1-4.8C238.5,402.4,240.1,401.5,240.1,399.9z"/>
		<path class="st5" d="M376.4,422.2c2.5-0.5,5.2,0.5,7.5-1.2c-0.1,1.5-2.4,5.6-3.8,7c-1.1,0.3-1.2,1.1-1,2c0,0,0,0,0,0
			c-2.4-0.2-2.1,1.5-2,3c0,0,0,0,0,0c-1.2,0.3-1.2,1.1-1,2c0,0,0,0,0,0c-0.7,0-1,0.4-1,1c0,0,0,0,0,0c-1.1,0.3-1.2,1.1-1,2
			c0,0,0,0,0,0c-1.1,0.3-1.2,1.1-1,2c0,0,0,0,0,0c-1.2,0.3-1.2,1.1-1,2c0,0,0,0,0,0c-0.5,0-1.1-0.1-1.3,0.1c-0.5,0.4,0,0.8,0.4,1.1
			c-2.6,6.8-7.5,12.2-11.2,18.3c-1.1,1.8-3.1,1.4-4.9,1.4c0.5-4.2,3.5-7.4,5.3-11c5-9.8,10.5-19.3,15.7-28.9
			C376.1,422.8,376.3,422.5,376.4,422.2z"/>
		<path class="st2" d="M256.1,435c-0.3-5.3-3.1-9.9-4.6-14.9c-2.2-7.3-2.4-7.3,5.4-8.2c2.4,7,5.8,13.5,9.1,20.1
			c2.7,5.5-3.4,4.1-5.1,6.2C260.1,435.9,256.1,438.6,256.1,435z"/>
		<path class="st3" d="M339.1,338c-4.2,4.2-7.4,9.4-13,12.1c-2.3-2.3-4.8,1.1-7.2-0.2c0.4-4.4,2.9-8,5-11.7c1.5-2.6,2-5.3-0.9-8.8
			C328.9,331.9,334.7,333.4,339.1,338z"/>
		<path class="st5" d="M299.9,357.1c-0.2,0-0.4,0-0.5-0.1c-4.6-3.5-9.1-6.7-13.5,0.4c-0.4,0.7-1.5,0.6-2.3,0.3
			c1.9-5.3,5.5-9.1,10.4-11.6c4.8-1.4,8.8-4.3,12.9-7c4,0.3,5.1-5.1,9.3-4.8C311.8,342.7,302.2,347.2,299.9,357.1z"/>
		<path class="st5" d="M280.9,393.2c-0.1-1.7,0.5-3.2,1.8-4.4c8.1-7.6,12.5-17.5,16.2-27.7c0.3-0.7,0.7-1.4,1.1-2.1
			c2,0,2.3,1.7,3,2.9c0.1,1.6-0.2,3-1.1,4.3c-5.9,8.3-8.9,17.9-12,27.4c-0.4,1.2-1.3,2.3-1.9,3.4
			C285.1,396.8,283.2,394.6,280.9,393.2z"/>
		<path class="st5" d="M241.1,332c1.6-4.4,1.6-4.4,13-10.6c1.4,0.7,1,2,0.6,3c-3.2,8-7.7,15-15.2,19.7c-0.9,0.6-1.7,1.2-2.5,0
			c0-1,0-2,0-3.1c0,0,0,0.1,0,0.1c2.3-1,2.1-3.1,2-5.1c0,0,0,0.1,0,0.1c1.1-0.3,1-1.2,1-2.1c0,0,0,0.1,0,0.1
			C241.1,333.8,241,332.9,241.1,332z"/>
		<path class="st5" d="M269.1,330.1c2.3,2.2,2.2,5.5,3.8,7.9c-2,0.4-3.8,1.1-5,2.9c-4,2.3-8,4.7-12,7
			C258.5,340.5,263,334.7,269.1,330.1z"/>
		<path class="st4" d="M233.2,373.1c-0.7-3-1.4-6-2-9.1c3.1-0.7,5-3.4,7.8-4.8c1.1,4.4,1.2,8.8,1.3,13.3
			C237.9,372.8,235.6,373,233.2,373.1z"/>
		<path class="st5" d="M343.8,467.9c1.9-5.4,5.7-9.6,9.7-14.7c0.3,5.1-2.9,8-3.5,11.7C348.7,467.4,346.4,467.9,343.8,467.9z"/>
		<path class="st4" d="M318.9,349.9c2.4,1.3,4.9-2.1,7.2,0.2c-2.5,2.4-5.7,3.4-9,4C317,352.3,318,351.1,318.9,349.9z"/>
		<path class="st4" d="M239.1,336c0.1,2,0.2,4-2,5.1C237,339.1,237.5,337.3,239.1,336z"/>
		<path class="st2" d="M381.7,402.8c-1.3-2.1-0.6-4.4-0.7-6.6C382.8,398.2,381.6,400.6,381.7,402.8z"/>
		<path class="st4" d="M303,463.9c1.9,0.1,4.1-0.6,5,2C306,466.1,304.3,465.6,303,463.9z"/>
		<path class="st4" d="M308,466c2-0.2,4-0.4,5,2C311,468.2,309.3,467.5,308,466z"/>
		<path class="st4" d="M377,433c0-1.5-0.4-3.2,2-3C379,431.4,378.5,432.6,377,433z"/>
		<path class="st4" d="M313,468c1.5-0.2,3-0.3,3,1.9C314.9,469.3,314,468.6,313,468z"/>
		<path class="st4" d="M237.1,341c0,1,0,2,0,3.1C233.5,343.1,236.8,342,237.1,341z"/>
		<path class="st5" d="M257,319.6c-0.2,0.2-0.3,0.5-0.5,0.7c-0.1-0.3-0.4-0.5-0.3-0.8c0-0.3,0.3-0.5,0.4-0.7
			C256.7,319.1,256.8,319.3,257,319.6z"/>
		<path class="st4" d="M345,340c-1.2,0.1-2.5,0.5-3.1-1.1C343,339.1,344.4,338.6,345,340z"/>
		<path class="st2" d="M378,395c-1.2,0.1-2.3,0.2-3-1c0.3,0,0.6,0,0.9,0C376.7,394,377.6,393.9,378,395z"/>
		<path class="st4" d="M240.1,334c0,0.9,0,1.7-1,2.1C239,335.2,239.2,334.4,240.1,334z"/>
		<path class="st4" d="M241.1,332c0,0.8,0,1.7-1,2C240,333.2,240.1,332.4,241.1,332z"/>
		<path class="st2" d="M278.1,324c-0.8-0.1-1.7-0.1-2.1-1.1C276.8,323.1,277.7,323.2,278.1,324z"/>
		<path class="st4" d="M248.1,423c1.1,0.3,1.1,1.1,1,2C248.1,424.6,248,423.9,248.1,423z"/>
		<path class="st2" d="M276.1,323c-0.9,0-1.7-0.1-2.1-1.1C274.8,322.1,275.7,322.1,276.1,323z"/>
		<path class="st4" d="M249,425c1.1,0.3,1.2,1.1,1,2C249.2,426.6,249,425.8,249,425z"/>
		<path class="st2" d="M274.1,322c-0.9,0-1.7-0.1-2.1-1.2C272.8,321.2,273.7,321.1,274.1,322z"/>
		<path class="st4" d="M250,427c1.2,0.2,1.1,1.1,1,2C250.2,428.6,250,427.9,250,427z"/>
		<path class="st4" d="M379,430c-0.2-1-0.1-1.8,1-2C380,428.8,380,429.7,379,430z"/>
		<path class="st2" d="M270.2,320c-0.9-0.1-1.8-0.1-2.2-1.1C268.7,319.3,269.5,319.7,270.2,320z"/>
		<path class="st4" d="M252,431c1.2,0.3,1.1,1.1,1,2C252.2,432.6,252,431.8,252,431z"/>
		<path class="st2" d="M380.2,396c-0.9,0-1.9,0-2.3-1C378.8,395,379.7,395.1,380.2,396z"/>
		<path class="st4" d="M376,435c-0.2-0.9-0.1-1.8,1-2C377,433.8,377,434.7,376,435z"/>
		<path class="st4" d="M254,434c0.4,0.4,0.8,0.7,1.2,1.1C253.7,436,253.9,435,254,434z"/>
		<path class="st4" d="M351,343c-0.9,0.1-1.7,0.1-2-1C349.9,341.9,350.6,342.1,351,343z"/>
		<path class="st4" d="M251,429c1.2,0.3,1.1,1.1,1,2C251.2,430.6,251,429.8,251,429z"/>
		<path class="st4" d="M374,438c-0.2-0.9,0-1.7,1-2C375.4,437,374.9,437.7,374,438z"/>
		<path class="st4" d="M373,440c-0.2-0.9-0.1-1.7,1-2C374,438.8,374,439.7,373,440z"/>
		<path class="st4" d="M372,442c-0.2-1-0.2-1.8,1-2C373,440.8,372.8,441.6,372,442z"/>
		<path class="st4" d="M371,443.2c-0.4-0.3-0.8-0.7-0.4-1.1c0.3-0.2,0.9-0.1,1.3-0.1C371.7,442.4,371.3,442.8,371,443.2z"/>
		<path class="st4" d="M349,342c-0.9,0.2-1.8,0.1-2-1C347.9,340.9,348.7,341,349,342z"/>
		<path class="st4" d="M347,341c-0.9,0.1-1.7,0.1-2-1C345.8,340,346.7,340,347,341z"/>
		<path class="st2" d="M280,325.1c-0.8-0.1-1.6-0.2-2-1.1C278.8,324.2,279.7,324,280,325.1z"/>
		<path class="st4" d="M253,433c0.7,0,0.9,0.4,1,1C253.3,434.1,253.1,433.6,253,433z"/>
		<path class="st4" d="M375,436c0-0.7,0.3-1,1-1C375.9,435.6,375.8,436.1,375,436z"/>
		<path class="st2" d="M322.4,366.3c1.5-0.6,2.9-1.1,4.4-1.7c6.8,0.4,13.2-2.3,19.9-2.9c6.9-0.7,13.8-1.1,20.7-1.7
			c2.5-0.2,3.3,0.8,3.6,3.3c1.3,8.6,1.3,17.4,3.9,25.8c-18.9,3.5-37.5,8.7-56.7,10.9c-3.2-6.7-2.6-13.5-0.7-20.4
			C318.8,375,320.5,370.6,322.4,366.3z"/>
		<path class="st2" d="M376.4,422.2c-0.1,0.3-0.3,0.6-0.5,0.8c-9.5,1.2-18.8,3.6-28.1,5.6c-10.5,2.2-20.9,4.8-31.4,7.1
			c-1.8,0.4-3.6,0.3-5.4,0.4c0-5.4-0.1-10.9,0-16.3c0.2-6.6,2.7-11.8,9-14.7c15.2-1.7,30.5-2.3,45.6-4.7c0.3-0.1,0.6-0.1,1-0.2
			c9-1.3,9.5-0.8,9.5,8.2C376.1,412.9,376.3,417.5,376.4,422.2z"/>
		<path class="st3" d="M281.2,427.9c-4,0-7-3.9-11.3-2.9c0.1-3.7,0.2-7.4,0.3-11c2.5-0.3,1.8-2.5,2.2-3.9c2.1-7,3.2-7.7,10.5-6.3
			c8,1.5,15.9,2.8,23.9,4.2c-0.1,6.2-5.5,12.1-12.7,15.2C289.9,424.9,285,424.9,281.2,427.9z"/>
		<path class="st4" d="M325.1,469.8c-5.9-0.8-10.2-4.7-14.1-8.5c-9.5-9.1-19.3-18-27.8-28.9c4.5-1.2,8.6,1.4,12.7,0.6
			c5.2,0.1,9.9,2.2,14.9,3.1c3.7,10.3,9.7,19.5,13.1,29.9C324.4,467.3,324.8,468.5,325.1,469.8z"/>
		<path class="st5" d="M306.9,408c-8-1.4-16-2.7-23.9-4.2c-7.4-1.4-8.5-0.7-10.5,6.3c-0.4,1.4,0.3,3.6-2.2,3.9
			c0.1-3.4,0.9-6.7,1-10.2c0.1-4.1,3.9-6.9,8.6-5.6c8.9,2.4,17.6,5.7,26.3,8.6C306.5,406.9,306.6,407.6,306.9,408z"/>
		<path class="st5" d="M283.6,357.7c0.8,3.4-0.7,6.5-1.7,9.5c-2.5,7.6-3,15.8-6.9,22.9c-0.9-0.4-2.1-1.2-1.8-2.1
			c3.5-9.6,3.8-20.1,9-29.2C282.4,358.4,283.1,358.1,283.6,357.7z"/>
		<path class="st2" d="M233.2,373.1c2.3-0.2,4.7-0.4,7-0.5c1.9,5.2-0.5,10-1.2,15c-0.1,0.8-0.6,1.3-1.3,1.1c-1-0.3-1.5-1.1-1.7-2.2
			C235.2,382.1,234.2,377.6,233.2,373.1z"/>
	</g>
</g>
</svg>
