<?xml version="1.0" encoding="UTF-8" standalone="no"?>
<!DOCTYPE svg PUBLIC "-//W3C//DTD SVG 1.1//EN" "http://www.w3.org/Graphics/SVG/1.1/DTD/svg11.dtd">
<svg width="100%" height="100%" viewBox="0 0 212 248" version="1.1" xmlns="http://www.w3.org/2000/svg" xmlns:xlink="http://www.w3.org/1999/xlink" xml:space="preserve" xmlns:serif="http://www.serif.com/" style="fill-rule:evenodd;clip-rule:evenodd;stroke-linecap:round;stroke-linejoin:round;">
    <g transform="matrix(1,0,0,1,-187.706,-45.8594)">
        <g transform="matrix(7.09063,0,0,7.09063,-663.347,-1407.72)">
            <g id="sprite0" transform="matrix(0.9241,0.0056,0,-1.1531,127.45,236.5)">
                <g id="shape0">
                    <path d="M4.65,0.2L9.7,0.8C10.933,0.767 12.217,1.25 13.55,2.25C14.883,3.25 15.95,4.633 16.75,6.4L19.05,11.15L21.15,15.7C21.783,17.333 22.6,19.067 23.6,20.9C24.6,22.7 24.467,23.967 23.2,24.7C21.9,25.367 20.917,25.583 20.25,25.35L19.45,25.1L19,24.85L18.75,24.75L17.95,24.05C17.45,23.583 17.25,22.417 17.35,20.55C17.417,18.65 17.217,16.767 16.75,14.9L15.1,9.25C14.467,7.35 13.117,5.867 11.05,4.8C8.983,3.733 6.483,2.767 3.55,1.9C2.85,1.767 2.317,1.883 1.95,2.25C1.55,2.65 1.367,3.117 1.4,3.65L1.4,4.45L1.3,4.55L1.2,4.55L0.4,3.75C-0.1,3.217 -0.1,2.4 0.4,1.3C1.133,0.1 2.55,-0.267 4.65,0.2M10.05,1.05L5.4,0.5C3.233,0.067 1.7,0.367 0.8,1.4C0.233,2.333 0.3,3.183 1,3.95C0.967,3.05 1.133,2.4 1.5,2C1.933,1.5 2.667,1.383 3.7,1.65L6.1,2.5L11.55,4.85C13.583,5.817 14.867,7.267 15.4,9.2L17.15,15.15C17.783,17.217 17.95,19.267 17.65,21.3C17.517,22.333 17.883,23.417 18.75,24.55C19.183,24.817 19.683,25.017 20.25,25.15C20.85,25.317 21.7,25.117 22.8,24.55C23.9,23.983 24.017,22.8 23.15,21L20.8,15.8L18.55,10.9L16.25,6.15C15.55,4.65 14.55,3.433 13.25,2.5C11.983,1.533 10.917,1.05 10.05,1.05" style="fill:#473251;"/>
                </g>
            </g>
            <g id="shape1">
                <path d="M130.2,224.05L132.2,225.1C132.7,225.567 132.883,226 132.75,226.4L132.1,228.45C132.067,229.25 132.367,229.65 133,229.65C133.7,229.483 134.117,229.067 134.25,228.4C134.25,227.833 134.067,227.183 133.7,226.45L134.15,225.4L134.5,225.2L134.8,230.15C135.867,232.05 137.633,233.417 140.1,234.25C142.867,235.05 144.267,235.933 144.3,236.9C144.333,237.3 144.25,237.6 144.05,237.8L142.6,237.6C141.333,236.9 139.767,236.25 137.9,235.65C137.2,235.35 136.45,235.417 135.65,235.85L135.65,235.95L135.5,236.8C135.4,237 135.417,237.283 135.55,237.65C135.817,238.483 135.867,239.1 135.7,239.5L133.8,239.35C132.967,238.917 132.35,238.317 131.95,237.55C131.617,236.45 131.567,235.4 131.8,234.4L131.45,234.4L131.45,234.35L131.3,234.35C130.2,234.383 129.2,234.617 128.3,235.05L128.25,235.05L130.8,231.35C131.633,228.983 131.433,226.55 130.2,224.05" style="fill:#ffefd6;"/>
                <path d="M129.35,223.8L129.7,223.75L130.05,223.75L130.2,224.05C131.433,226.55 131.633,228.983 130.8,231.35L128.25,235.05L128.3,235.05L128.25,235.2L128.1,235.15L128.25,235.2L127.45,237.2L127.85,238.4L127.4,238.25L127.3,238.25L126.75,237.05L127.65,235.35C126.85,235.783 126.15,236.367 125.55,237.1C122.85,239.467 121.017,239.883 120.05,238.35C120.317,237.417 121.417,236.267 123.35,234.9C124.85,233.767 125.783,232.317 126.15,230.55L125.75,225.05C126.45,224.383 127.65,223.967 129.35,223.8M131.4,235.85C131.367,235.383 131.383,234.9 131.45,234.4L131.8,234.4C131.567,235.4 131.617,236.45 131.95,237.55C132.35,238.317 132.967,238.917 133.8,239.35L135.7,239.5C135.433,239.967 134.783,240.067 133.75,239.8C132.283,239.4 131.5,238.083 131.4,235.85M128.1,235.15L128.25,235.05L128.1,235.15L128.05,235.15L128.1,235.15M127.65,235.35L128.05,235.15L127.65,235.35M144.05,237.8C143.55,238.267 142.367,238.133 140.5,237.4C137.433,236.1 135.767,235.9 135.5,236.8L135.65,235.95L135.65,235.85C136.45,235.417 137.2,235.35 137.9,235.65C139.767,236.25 141.333,236.9 142.6,237.6L144.05,237.8" style="fill:#d5c6ae;"/>
                <path d="M128.25,235.2C129.35,235.467 130.317,235.85 131.15,236.35L130.2,238.1L128.85,238.65L127.85,238.4L127.45,237.2L128.25,235.2" style="fill:#cbb99a;"/>
                <path d="M128.25,235.2L128.3,235.05C129.2,234.617 130.2,234.383 131.3,234.35L131.45,234.35L131.45,234.4C131.383,234.9 131.367,235.383 131.4,235.85L131.15,236.35C130.317,235.85 129.35,235.467 128.25,235.2" style="fill:#987c4e;"/>
                <path d="M130.2,224.05L130.05,223.75L130.3,223.75C132.367,223.717 133.75,224.033 134.45,224.7L134.5,225.2L134.15,225.4L133.7,226.45C134.067,227.183 134.25,227.833 134.25,228.4C134.117,229.067 133.7,229.483 133,229.65C132.367,229.65 132.067,229.25 132.1,228.45L132.75,226.4C132.883,226 132.7,225.567 132.2,225.1L130.2,224.05" style="fill:#fff9f0;"/>
                <path d="M129.7,223.75L130.3,223.75C132.367,223.717 133.75,224.033 134.45,224.7L134.5,225.2L134.8,230.15M127.65,235.35C126.85,235.783 126.15,236.367 125.55,237.1C122.85,239.467 121.017,239.883 120.05,238.35C120.317,237.417 121.417,236.267 123.35,234.9C124.85,233.767 125.783,232.317 126.15,230.55L125.75,225.05C126.45,224.383 127.65,223.967 129.35,223.8M131.45,234.35L131.3,234.35C130.2,234.383 129.2,234.617 128.3,235.05L128.25,235.05L128.1,235.15M128.05,235.15L127.65,235.35" style="fill:none;fill-rule:nonzero;stroke:#937c4d;stroke-width:0.05px;"/>
                <path d="M131.4,235.85C131.367,235.383 131.383,234.9 131.45,234.4L131.45,234.35M144.05,237.8C143.55,238.267 142.367,238.133 140.5,237.4C137.433,236.1 135.767,235.9 135.5,236.8C135.4,237 135.417,237.283 135.55,237.65C135.817,238.483 135.867,239.1 135.7,239.5C135.433,239.967 134.783,240.067 133.75,239.8C132.283,239.4 131.5,238.083 131.4,235.85M144.05,237.8C144.25,237.6 144.333,237.3 144.3,236.9C144.267,235.933 142.867,235.05 140.1,234.25C137.633,233.417 135.867,232.05 134.8,230.15" style="fill:none;fill-rule:nonzero;stroke:#937c4d;stroke-width:0.05px;"/>
                <path d="M130.05,223.75C129.517,222.717 129.283,221.75 129.35,220.85" style="fill:none;fill-rule:nonzero;stroke:#33291c;stroke-width:0.05px;"/>
                <path d="M131.15,236.35L131.4,235.85M128.1,235.15L128.25,235.2M127.85,238.4L128.85,238.65L130.2,238.1L131.15,236.35M128.1,235.15L128.05,235.15M127.65,235.35L126.75,237.05L127.3,238.25L127.4,238.25L127.85,238.4" style="fill:none;fill-rule:nonzero;stroke:#aa8c59;stroke-width:0.05px;"/>
                <path d="M133.85,211.85C135.017,213.017 135.6,214.417 135.6,216.05C135.6,217.683 135.017,219.083 133.85,220.25C132.683,221.417 131.283,222.017 129.65,222.05C127.983,222.017 126.583,221.417 125.45,220.25C124.25,219.083 123.65,217.683 123.65,216.05C123.65,214.417 124.25,213.017 125.45,211.85C126.583,210.65 127.983,210.067 129.65,210.1C131.283,210.067 132.683,210.65 133.85,211.85" style="fill:#ffe26f;"/>
                <path d="M133.2,219.7C132.2,220.7 131,221.2 129.6,221.2C128.2,221.2 127,220.7 126,219.7C125,218.7 124.5,217.5 124.5,216.1C124.5,214.7 125,213.5 126,212.5C127,211.5 128.2,211 129.6,211C131,211 132.2,211.5 133.2,212.5C134.2,213.5 134.7,214.7 134.7,216.1C134.7,217.5 134.2,218.7 133.2,219.7" style="fill:#fc0;"/>
            </g>
            <g id="sprite1" transform="matrix(1,0,0,1,132.35,221.2)">
                <g id="shape2">
                    <path d="M5.95,1C6.617,1.7 6.95,2.517 6.95,3.45C6.95,4.383 6.617,5.2 5.95,5.9C5.25,6.567 4.433,6.917 3.5,6.95C2.533,6.917 1.717,6.567 1.05,5.9C0.35,5.2 0,4.383 0,3.45C0,2.517 0.35,1.7 1.05,1C1.717,0.3 2.533,-0.033 3.5,0C4.433,-0.033 5.25,0.3 5.95,1" style="fill:#fff1b7;"/>
                    <path d="M5.55,5.55C4.983,6.15 4.3,6.45 3.5,6.45C2.667,6.45 1.967,6.15 1.4,5.55C0.8,4.983 0.5,4.3 0.5,3.5C0.5,2.667 0.8,1.967 1.4,1.4C1.967,0.833 2.667,0.55 3.5,0.55C4.3,0.55 4.983,0.833 5.55,1.4C6.15,1.967 6.45,2.667 6.45,3.5C6.45,4.3 6.15,4.983 5.55,5.55" style="fill:#ffe680;"/>
                </g>
            </g>
            <g id="shape3">
                <path d="M135.55,205.7C136.017,206.133 136.25,206.667 136.25,207.3C136.25,207.933 136.017,208.467 135.55,208.9C135.117,209.367 134.583,209.6 133.95,209.6C133.317,209.6 132.783,209.367 132.35,208.9C131.883,208.467 131.65,207.933 131.65,207.3C131.65,206.667 131.883,206.133 132.35,205.7C132.783,205.233 133.317,205 133.95,205C134.583,205 135.117,205.233 135.55,205.7" style="fill:#ffe26f;"/>
                <path d="M135.3,208.75C134.933,209.117 134.483,209.3 133.95,209.3C133.417,209.3 132.95,209.117 132.55,208.75C132.15,208.35 131.95,207.883 131.95,207.35C131.95,206.817 132.15,206.35 132.55,205.95C132.95,205.583 133.417,205.4 133.95,205.4C134.483,205.4 134.933,205.583 135.3,205.95C135.7,206.35 135.9,206.817 135.9,207.35C135.9,207.883 135.7,208.35 135.3,208.75" style="fill:#fc0;"/>
            </g>
            <g id="sprite2" transform="matrix(1,0,0,1,122.9,208.5)">
                <g id="shape4">
                    <path d="M1.8,0.3L2.1,1.05L1.8,1.8C1.6,2 1.35,2.1 1.05,2.1L0.3,1.8C0.1,1.6 0,1.35 0,1.05C0,0.783 0.1,0.533 0.3,0.3C0.5,0.1 0.75,0 1.05,0C1.35,0 1.6,0.1 1.8,0.3" style="fill:#fef3c5;"/>
                    <path d="M1.7,1.7L1.05,1.95L0.4,1.7L0.15,1.05C0.15,0.817 0.233,0.6 0.4,0.4L1.05,0.15C1.283,0.15 1.5,0.233 1.7,0.4L1.95,1.05L1.7,1.7" style="fill:#feea99;"/>
                </g>
            </g>
            <g id="sprite3" transform="matrix(1,0,0,1,121.05,219.6)">
                <g id="shape5">
                    <path d="M3.15,0.55C3.517,0.883 3.7,1.317 3.7,1.85C3.7,2.35 3.517,2.783 3.15,3.15C2.783,3.517 2.35,3.7 1.85,3.7C1.317,3.7 0.883,3.517 0.55,3.15C0.183,2.783 0,2.35 0,1.85C0,1.317 0.183,0.883 0.55,0.55C0.883,0.15 1.317,-0.033 1.85,0C2.35,-0.033 2.783,0.15 3.15,0.55" style="fill:#ffeb9a;"/>
                    <path d="M2.95,3C2.65,3.333 2.283,3.5 1.85,3.5C1.417,3.5 1.05,3.333 0.75,3C0.417,2.7 0.25,2.333 0.25,1.9C0.25,1.467 0.417,1.083 0.75,0.75C1.05,0.45 1.417,0.3 1.85,0.3C2.283,0.3 2.65,0.45 2.95,0.75C3.283,1.083 3.45,1.467 3.45,1.9C3.45,2.333 3.283,2.7 2.95,3" style="fill:#ffdb4d;"/>
                </g>
            </g>
        </g>
    </g>
</svg>
