<?xml version="1.0" encoding="UTF-8" standalone="no"?>
<!DOCTYPE svg PUBLIC "-//W3C//DTD SVG 1.1//EN" "http://www.w3.org/Graphics/SVG/1.1/DTD/svg11.dtd">
<svg width="100%" height="100%" viewBox="0 0 61 65" version="1.1" xmlns="http://www.w3.org/2000/svg" xmlns:xlink="http://www.w3.org/1999/xlink" xml:space="preserve" xmlns:serif="http://www.serif.com/" style="fill-rule:evenodd;clip-rule:evenodd;stroke-linecap:round;stroke-linejoin:round;">
    <g transform="matrix(1,0,0,1,-9.22607,-0.414308)">
        <g transform="matrix(1,0,0,1,39.8,63.5)">
            <g id="sprite0" transform="matrix(-0.5156,0.0707,0,0.8009,0.0503,-0.04965)">
                <g id="shape0">
                    <path d="M5.75,-1.9C7.183,-1.6 7.917,-1.15 7.95,-0.55C7.983,0.017 7.3,0.533 5.9,1C4.467,1.5 2.733,1.817 0.7,1.95L-4.55,1.65C-6.017,1.317 -6.75,0.867 -6.75,0.3C-6.783,-0.267 -6.1,-0.8 -4.7,-1.3C-3.267,-1.8 -1.533,-2.1 0.5,-2.2L5.75,-1.9" style="fill:#382c16;"/>
                </g>
            </g>
            <g id="sprite1" transform="matrix(0.7528,-0.5542,0.7472,0.6063,-5.09964,-40.8995)">
                <g id="shape1">
                    <path d="M17.9,-20L18.05,-20.05C17.217,-17.717 16.25,-15.433 15.15,-13.2L13.8,-14.95L17.85,-19.95L17.9,-20M12.65,-8.65L9.15,-3.55C7.517,-3.85 6.117,-4.233 4.95,-4.7L2.6,1.25L0.3,0.2L4.1,-6.45L7.2,-6.85L10.45,-10.85L12.65,-8.65M4.95,-4.7L5.3,-5.5L4.95,-4.7" style="fill:#b67a18;"/>
                    <path d="M17.9,-20L17.85,-19.95L10.6,-17.05L8.7,-17.1C11.367,-18.533 14.433,-19.5 17.9,-20" style="fill:#ffeec8;"/>
                    <path d="M13.8,-14.95L15.15,-13.2L12.65,-8.65L10.45,-10.85L13.8,-14.95" style="fill:#7e482c;"/>
                    <path d="M4,-13.8L5.65,-15.15C6.983,-15.117 8.633,-15.75 10.6,-17.05C11.7,-16.75 12.767,-16.05 13.8,-14.95L10.45,-10.85C8.183,-12.783 6.033,-13.767 4,-13.8" style="fill:#a26437;"/>
                    <path d="M17.85,-19.95L13.8,-14.95C12.767,-16.05 11.7,-16.75 10.6,-17.05L17.85,-19.95M0.3,0.2L-2.25,-0.95L1.8,-6.55C0.9,-7.383 0.4,-8.333 0.3,-9.4C1.367,-11.067 2.6,-12.533 4,-13.8C6.033,-13.767 8.183,-12.783 10.45,-10.85L7.2,-6.85L4.1,-6.45L0.3,0.2M6.6,-8.7L6.65,-8.65L6.6,-8.75L6.6,-8.7M3.3,-11.9C0.667,-9.9 1.017,-8.583 4.35,-7.95C2.983,-8.85 2.633,-10.167 3.3,-11.9M2.6,-7.7L1.8,-6.55L2.6,-7.7" style="fill:#ffc600;"/>
                    <path d="M5.65,-15.15C6.583,-15.883 7.6,-16.533 8.7,-17.1L10.6,-17.05C8.633,-15.75 6.983,-15.117 5.65,-15.15" style="fill:#daaa92;"/>
                    <path d="M3.3,-11.9C2.633,-10.167 2.983,-8.85 4.35,-7.95C1.017,-8.583 0.667,-9.9 3.3,-11.9" style="fill:#fee4ab;"/>
                    <path d="M15.15,-13.2C16.25,-15.433 17.217,-17.717 18.05,-20.05L17.9,-20C14.433,-19.5 11.367,-18.533 8.7,-17.1C7.6,-16.533 6.583,-15.883 5.65,-15.15L4,-13.8C2.6,-12.533 1.367,-11.067 0.3,-9.4C0.4,-8.333 0.9,-7.383 1.8,-6.55L2.6,-7.7M15.15,-13.2L12.65,-8.65L9.15,-3.55C7.517,-3.85 6.117,-4.233 4.95,-4.7L2.6,1.25M-2.25,-0.95L1.8,-6.55M5.3,-5.5L4.95,-4.7" style="fill:none;fill-rule:nonzero;stroke:#966801;stroke-width:0.05px;"/>
                    <path d="M13.8,-14.95L15.15,-13.2M13.8,-14.95C12.767,-16.05 11.7,-16.75 10.6,-17.05L8.7,-17.1M12.65,-8.65L10.45,-10.85C8.183,-12.783 6.033,-13.767 4,-13.8" style="fill:none;fill-rule:nonzero;stroke:#966801;stroke-width:0.05px;"/>
                </g>
            </g>
            <g id="sprite11" serif:id="sprite1" transform="matrix(1,0,0,1,10.7,-39.7)">
                <g id="shape11" serif:id="shape1">
                    <path d="M17.9,-20L18.05,-20.05C17.217,-17.717 16.25,-15.433 15.15,-13.2L13.8,-14.95L17.85,-19.95L17.9,-20M12.65,-8.65L9.15,-3.55C7.517,-3.85 6.117,-4.233 4.95,-4.7L2.6,1.25L0.3,0.2L4.1,-6.45L7.2,-6.85L10.45,-10.85L12.65,-8.65M4.95,-4.7L5.3,-5.5L4.95,-4.7" style="fill:#b67a18;"/>
                    <path d="M17.9,-20L17.85,-19.95L10.6,-17.05L8.7,-17.1C11.367,-18.533 14.433,-19.5 17.9,-20" style="fill:#ffeec8;"/>
                    <path d="M13.8,-14.95L15.15,-13.2L12.65,-8.65L10.45,-10.85L13.8,-14.95" style="fill:#7e482c;"/>
                    <path d="M4,-13.8L5.65,-15.15C6.983,-15.117 8.633,-15.75 10.6,-17.05C11.7,-16.75 12.767,-16.05 13.8,-14.95L10.45,-10.85C8.183,-12.783 6.033,-13.767 4,-13.8" style="fill:#a26437;"/>
                    <path d="M17.85,-19.95L13.8,-14.95C12.767,-16.05 11.7,-16.75 10.6,-17.05L17.85,-19.95M0.3,0.2L-2.25,-0.95L1.8,-6.55C0.9,-7.383 0.4,-8.333 0.3,-9.4C1.367,-11.067 2.6,-12.533 4,-13.8C6.033,-13.767 8.183,-12.783 10.45,-10.85L7.2,-6.85L4.1,-6.45L0.3,0.2M6.6,-8.7L6.65,-8.65L6.6,-8.75L6.6,-8.7M3.3,-11.9C0.667,-9.9 1.017,-8.583 4.35,-7.95C2.983,-8.85 2.633,-10.167 3.3,-11.9M2.6,-7.7L1.8,-6.55L2.6,-7.7" style="fill:#ffc600;"/>
                    <path d="M5.65,-15.15C6.583,-15.883 7.6,-16.533 8.7,-17.1L10.6,-17.05C8.633,-15.75 6.983,-15.117 5.65,-15.15" style="fill:#daaa92;"/>
                    <path d="M3.3,-11.9C2.633,-10.167 2.983,-8.85 4.35,-7.95C1.017,-8.583 0.667,-9.9 3.3,-11.9" style="fill:#fee4ab;"/>
                    <path d="M15.15,-13.2C16.25,-15.433 17.217,-17.717 18.05,-20.05L17.9,-20C14.433,-19.5 11.367,-18.533 8.7,-17.1C7.6,-16.533 6.583,-15.883 5.65,-15.15L4,-13.8C2.6,-12.533 1.367,-11.067 0.3,-9.4C0.4,-8.333 0.9,-7.383 1.8,-6.55L2.6,-7.7M15.15,-13.2L12.65,-8.65L9.15,-3.55C7.517,-3.85 6.117,-4.233 4.95,-4.7L2.6,1.25M-2.25,-0.95L1.8,-6.55M5.3,-5.5L4.95,-4.7" style="fill:none;fill-rule:nonzero;stroke:#966801;stroke-width:0.05px;"/>
                    <path d="M13.8,-14.95L15.15,-13.2M13.8,-14.95C12.767,-16.05 11.7,-16.75 10.6,-17.05L8.7,-17.1M12.65,-8.65L10.45,-10.85C8.183,-12.783 6.033,-13.767 4,-13.8" style="fill:none;fill-rule:nonzero;stroke:#966801;stroke-width:0.05px;"/>
                </g>
            </g>
            <g id="sprite2" transform="matrix(1,0,0,1,-0.65,-23.55)">
                <g id="sprite3" transform="matrix(0.9915,0.7047,0.5226,-0.7203,-6.40065,8.14989)">
                    <g id="sprite4" transform="matrix(0.9865,0,0,0.6259,0.1003,-4.60045)">
                        <g id="shape2">
                            <path d="M-6,-1.5C-5.733,-5.233 -4.333,-7.933 -1.8,-9.6C-0.867,-10.2 -0.25,-10.517 0.05,-10.55C0.483,-10.583 1.033,-10.3 1.7,-9.7C4.6,-7.133 6.05,-4.3 6.05,-1.2C4.683,-0.267 2.3,0.117 -1.1,-0.05C-4.433,-0.217 -6.067,-0.7 -6,-1.5" style="fill:#ce9e79;"/>
                            <path d="M-6,-1.5C-5.733,-5.233 -4.333,-7.933 -1.8,-9.6C-0.867,-10.2 -0.25,-10.517 0.05,-10.55C0.483,-10.583 1.033,-10.3 1.7,-9.7C4.6,-7.133 6.05,-4.3 6.05,-1.2C4.683,-0.267 2.3,0.117 -1.1,-0.05C-4.433,-0.217 -6.067,-0.7 -6,-1.5Z" style="fill:none;fill-rule:nonzero;stroke:#60331b;stroke-width:0.05px;"/>
                            <path d="M-1.75,-9.15C-0.75,-9.983 -0.167,-9.883 0,-8.85C-0.6,-8.25 -1.267,-6.8 -2,-4.5C-2.3,-3.5 -2.75,-3.033 -3.35,-3.1C-3.883,-3.133 -4.267,-3.517 -4.5,-4.25C-4.667,-4.75 -4.45,-5.583 -3.85,-6.75C-3.217,-7.95 -2.517,-8.75 -1.75,-9.15" style="fill:#d7ceca;"/>
                        </g>
                    </g>
                    <g id="sprite5" transform="matrix(0.9722,0,0,0.9269,0.19992,-0.199775)">
                        <g id="shape3">
                            <path d="M1.15,0.05C0.917,-0.95 1.383,-2.25 2.55,-3.85C3.65,-5.317 3.9,-6.667 3.3,-7.9C5.367,-8.3 6.317,-9.033 6.15,-10.1C7.35,-9.467 7.267,-7.917 5.9,-5.45C5.233,-4.217 5.083,-3.283 5.45,-2.65L7.1,-0.55L1.15,0.05" style="fill:#9a6714;"/>
                            <path d="M3.3,-7.9C3.9,-6.667 3.65,-5.317 2.55,-3.85C1.383,-2.25 0.917,-0.95 1.15,0.05C-1.583,0.017 -4.333,-0.4 -7.1,-1.2L-5.8,-3.25C-5.667,-3.617 -5.817,-4.417 -6.25,-5.65C-6.75,-7.117 -6.9,-8.2 -6.7,-8.9C-6.4,-9.667 -6.033,-10.117 -5.6,-10.25C-6,-8.617 -4.033,-7.767 0.3,-7.7L3.3,-7.9" style="fill:#d9a800;"/>
                            <path d="M7.1,-0.55L5.45,-2.65C5.083,-3.283 5.233,-4.217 5.9,-5.45C7.267,-7.917 7.35,-9.467 6.15,-10.1C6.317,-9.033 5.367,-8.3 3.3,-7.9L0.3,-7.7C-4.033,-7.767 -6,-8.617 -5.6,-10.25C-6.033,-10.117 -6.4,-9.667 -6.7,-8.9C-6.9,-8.2 -6.75,-7.117 -6.25,-5.65C-5.817,-4.417 -5.667,-3.617 -5.8,-3.25L-7.1,-1.2" style="fill:none;fill-rule:nonzero;stroke:#7f5800;stroke-width:0.05px;"/>
                        </g>
                    </g>
                </g>
                <g id="sprite6" transform="matrix(0.7026,-0.5166,0.4099,0.6259,-8.94948,-12.6499)">
                    <g id="sprite41" serif:id="sprite4" transform="matrix(1,0,0,1,0.2,-7.65)">
                        <g id="shape21" serif:id="shape2">
                            <path d="M-6,-1.5C-5.733,-5.233 -4.333,-7.933 -1.8,-9.6C-0.867,-10.2 -0.25,-10.517 0.05,-10.55C0.483,-10.583 1.033,-10.3 1.7,-9.7C4.6,-7.133 6.05,-4.3 6.05,-1.2C4.683,-0.267 2.3,0.117 -1.1,-0.05C-4.433,-0.217 -6.067,-0.7 -6,-1.5" style="fill:#ce9e79;"/>
                            <path d="M-6,-1.5C-5.733,-5.233 -4.333,-7.933 -1.8,-9.6C-0.867,-10.2 -0.25,-10.517 0.05,-10.55C0.483,-10.583 1.033,-10.3 1.7,-9.7C4.6,-7.133 6.05,-4.3 6.05,-1.2C4.683,-0.267 2.3,0.117 -1.1,-0.05C-4.433,-0.217 -6.067,-0.7 -6,-1.5Z" style="fill:none;fill-rule:nonzero;stroke:#60331b;stroke-width:0.05px;"/>
                            <path d="M-1.75,-9.15C-0.75,-9.983 -0.167,-9.883 0,-8.85C-0.6,-8.25 -1.267,-6.8 -2,-4.5C-2.3,-3.5 -2.75,-3.033 -3.35,-3.1C-3.883,-3.133 -4.267,-3.517 -4.5,-4.25C-4.667,-4.75 -4.45,-5.583 -3.85,-6.75C-3.217,-7.95 -2.517,-8.75 -1.75,-9.15" style="fill:#d7ceca;"/>
                        </g>
                    </g>
                    <g id="sprite51" serif:id="sprite5" transform="matrix(0.9155,0,0,1,5e-05,0)">
                        <g id="shape31" serif:id="shape3">
                            <path d="M1.15,0.05C0.917,-0.95 1.383,-2.25 2.55,-3.85C3.65,-5.317 3.9,-6.667 3.3,-7.9C5.367,-8.3 6.317,-9.033 6.15,-10.1C7.35,-9.467 7.267,-7.917 5.9,-5.45C5.233,-4.217 5.083,-3.283 5.45,-2.65L7.1,-0.55L1.15,0.05" style="fill:#9a6714;"/>
                            <path d="M3.3,-7.9C3.9,-6.667 3.65,-5.317 2.55,-3.85C1.383,-2.25 0.917,-0.95 1.15,0.05C-1.583,0.017 -4.333,-0.4 -7.1,-1.2L-5.8,-3.25C-5.667,-3.617 -5.817,-4.417 -6.25,-5.65C-6.75,-7.117 -6.9,-8.2 -6.7,-8.9C-6.4,-9.667 -6.033,-10.117 -5.6,-10.25C-6,-8.617 -4.033,-7.767 0.3,-7.7L3.3,-7.9" style="fill:#d9a800;"/>
                            <path d="M7.1,-0.55L5.45,-2.65C5.083,-3.283 5.233,-4.217 5.9,-5.45C7.267,-7.917 7.35,-9.467 6.15,-10.1C6.317,-9.033 5.367,-8.3 3.3,-7.9L0.3,-7.7C-4.033,-7.767 -6,-8.617 -5.6,-10.25C-6.033,-10.117 -6.4,-9.667 -6.7,-8.9C-6.9,-8.2 -6.75,-7.117 -6.25,-5.65C-5.817,-4.417 -5.667,-3.617 -5.8,-3.25L-7.1,-1.2" style="fill:none;fill-rule:nonzero;stroke:#7f5800;stroke-width:0.05px;"/>
                        </g>
                    </g>
                </g>
                <g id="sprite61" serif:id="sprite6" transform="matrix(0.3049,-0.9511,0.9511,0.3049,-12.6497,-3.39937)">
                    <g id="sprite42" serif:id="sprite4" transform="matrix(1,0,0,1,0.2,-7.65)">
                        <g id="shape22" serif:id="shape2">
                            <path d="M-6,-1.5C-5.733,-5.233 -4.333,-7.933 -1.8,-9.6C-0.867,-10.2 -0.25,-10.517 0.05,-10.55C0.483,-10.583 1.033,-10.3 1.7,-9.7C4.6,-7.133 6.05,-4.3 6.05,-1.2C4.683,-0.267 2.3,0.117 -1.1,-0.05C-4.433,-0.217 -6.067,-0.7 -6,-1.5" style="fill:#ce9e79;"/>
                            <path d="M-6,-1.5C-5.733,-5.233 -4.333,-7.933 -1.8,-9.6C-0.867,-10.2 -0.25,-10.517 0.05,-10.55C0.483,-10.583 1.033,-10.3 1.7,-9.7C4.6,-7.133 6.05,-4.3 6.05,-1.2C4.683,-0.267 2.3,0.117 -1.1,-0.05C-4.433,-0.217 -6.067,-0.7 -6,-1.5Z" style="fill:none;fill-rule:nonzero;stroke:#60331b;stroke-width:0.05px;"/>
                            <path d="M-1.75,-9.15C-0.75,-9.983 -0.167,-9.883 0,-8.85C-0.6,-8.25 -1.267,-6.8 -2,-4.5C-2.3,-3.5 -2.75,-3.033 -3.35,-3.1C-3.883,-3.133 -4.267,-3.517 -4.5,-4.25C-4.667,-4.75 -4.45,-5.583 -3.85,-6.75C-3.217,-7.95 -2.517,-8.75 -1.75,-9.15" style="fill:#d7ceca;"/>
                        </g>
                    </g>
                    <g id="sprite52" serif:id="sprite5" transform="matrix(0.9155,0,0,1,5e-05,0)">
                        <g id="shape32" serif:id="shape3">
                            <path d="M1.15,0.05C0.917,-0.95 1.383,-2.25 2.55,-3.85C3.65,-5.317 3.9,-6.667 3.3,-7.9C5.367,-8.3 6.317,-9.033 6.15,-10.1C7.35,-9.467 7.267,-7.917 5.9,-5.45C5.233,-4.217 5.083,-3.283 5.45,-2.65L7.1,-0.55L1.15,0.05" style="fill:#9a6714;"/>
                            <path d="M3.3,-7.9C3.9,-6.667 3.65,-5.317 2.55,-3.85C1.383,-2.25 0.917,-0.95 1.15,0.05C-1.583,0.017 -4.333,-0.4 -7.1,-1.2L-5.8,-3.25C-5.667,-3.617 -5.817,-4.417 -6.25,-5.65C-6.75,-7.117 -6.9,-8.2 -6.7,-8.9C-6.4,-9.667 -6.033,-10.117 -5.6,-10.25C-6,-8.617 -4.033,-7.767 0.3,-7.7L3.3,-7.9" style="fill:#d9a800;"/>
                            <path d="M7.1,-0.55L5.45,-2.65C5.083,-3.283 5.233,-4.217 5.9,-5.45C7.267,-7.917 7.35,-9.467 6.15,-10.1C6.317,-9.033 5.367,-8.3 3.3,-7.9L0.3,-7.7C-4.033,-7.767 -6,-8.617 -5.6,-10.25C-6.033,-10.117 -6.4,-9.667 -6.7,-8.9C-6.9,-8.2 -6.75,-7.117 -6.25,-5.65C-5.817,-4.417 -5.667,-3.617 -5.8,-3.25L-7.1,-1.2" style="fill:none;fill-rule:nonzero;stroke:#7f5800;stroke-width:0.05px;"/>
                        </g>
                    </g>
                </g>
                <g id="sprite31" serif:id="sprite3" transform="matrix(0.5508,0.5202,-0.5421,0.515,15.6499,-10.9501)">
                    <g id="sprite43" serif:id="sprite4" transform="matrix(0.9865,0,0,0.6259,0.1003,-4.60045)">
                        <g id="shape23" serif:id="shape2">
                            <path d="M-6,-1.5C-5.733,-5.233 -4.333,-7.933 -1.8,-9.6C-0.867,-10.2 -0.25,-10.517 0.05,-10.55C0.483,-10.583 1.033,-10.3 1.7,-9.7C4.6,-7.133 6.05,-4.3 6.05,-1.2C4.683,-0.267 2.3,0.117 -1.1,-0.05C-4.433,-0.217 -6.067,-0.7 -6,-1.5" style="fill:#ce9e79;"/>
                            <path d="M-6,-1.5C-5.733,-5.233 -4.333,-7.933 -1.8,-9.6C-0.867,-10.2 -0.25,-10.517 0.05,-10.55C0.483,-10.583 1.033,-10.3 1.7,-9.7C4.6,-7.133 6.05,-4.3 6.05,-1.2C4.683,-0.267 2.3,0.117 -1.1,-0.05C-4.433,-0.217 -6.067,-0.7 -6,-1.5Z" style="fill:none;fill-rule:nonzero;stroke:#60331b;stroke-width:0.05px;"/>
                            <path d="M-1.75,-9.15C-0.75,-9.983 -0.167,-9.883 0,-8.85C-0.6,-8.25 -1.267,-6.8 -2,-4.5C-2.3,-3.5 -2.75,-3.033 -3.35,-3.1C-3.883,-3.133 -4.267,-3.517 -4.5,-4.25C-4.667,-4.75 -4.45,-5.583 -3.85,-6.75C-3.217,-7.95 -2.517,-8.75 -1.75,-9.15" style="fill:#d7ceca;"/>
                        </g>
                    </g>
                    <g id="sprite53" serif:id="sprite5" transform="matrix(0.9722,0,0,0.9269,0.19992,-0.199775)">
                        <g id="shape33" serif:id="shape3">
                            <path d="M1.15,0.05C0.917,-0.95 1.383,-2.25 2.55,-3.85C3.65,-5.317 3.9,-6.667 3.3,-7.9C5.367,-8.3 6.317,-9.033 6.15,-10.1C7.35,-9.467 7.267,-7.917 5.9,-5.45C5.233,-4.217 5.083,-3.283 5.45,-2.65L7.1,-0.55L1.15,0.05" style="fill:#9a6714;"/>
                            <path d="M3.3,-7.9C3.9,-6.667 3.65,-5.317 2.55,-3.85C1.383,-2.25 0.917,-0.95 1.15,0.05C-1.583,0.017 -4.333,-0.4 -7.1,-1.2L-5.8,-3.25C-5.667,-3.617 -5.817,-4.417 -6.25,-5.65C-6.75,-7.117 -6.9,-8.2 -6.7,-8.9C-6.4,-9.667 -6.033,-10.117 -5.6,-10.25C-6,-8.617 -4.033,-7.767 0.3,-7.7L3.3,-7.9" style="fill:#d9a800;"/>
                            <path d="M7.1,-0.55L5.45,-2.65C5.083,-3.283 5.233,-4.217 5.9,-5.45C7.267,-7.917 7.35,-9.467 6.15,-10.1C6.317,-9.033 5.367,-8.3 3.3,-7.9L0.3,-7.7C-4.033,-7.767 -6,-8.617 -5.6,-10.25C-6.033,-10.117 -6.4,-9.667 -6.7,-8.9C-6.9,-8.2 -6.75,-7.117 -6.25,-5.65C-5.817,-4.417 -5.667,-3.617 -5.8,-3.25L-7.1,-1.2" style="fill:none;fill-rule:nonzero;stroke:#7f5800;stroke-width:0.05px;"/>
                        </g>
                    </g>
                </g>
                <g id="sprite62" serif:id="sprite6" transform="matrix(1.0408,-0.6324,-0.4551,-0.766,11.8506,10.7491)">
                    <g id="sprite44" serif:id="sprite4" transform="matrix(1,0,0,1,0.2,-7.65)">
                        <g id="shape24" serif:id="shape2">
                            <path d="M-6,-1.5C-5.733,-5.233 -4.333,-7.933 -1.8,-9.6C-0.867,-10.2 -0.25,-10.517 0.05,-10.55C0.483,-10.583 1.033,-10.3 1.7,-9.7C4.6,-7.133 6.05,-4.3 6.05,-1.2C4.683,-0.267 2.3,0.117 -1.1,-0.05C-4.433,-0.217 -6.067,-0.7 -6,-1.5" style="fill:#ce9e79;"/>
                            <path d="M-6,-1.5C-5.733,-5.233 -4.333,-7.933 -1.8,-9.6C-0.867,-10.2 -0.25,-10.517 0.05,-10.55C0.483,-10.583 1.033,-10.3 1.7,-9.7C4.6,-7.133 6.05,-4.3 6.05,-1.2C4.683,-0.267 2.3,0.117 -1.1,-0.05C-4.433,-0.217 -6.067,-0.7 -6,-1.5Z" style="fill:none;fill-rule:nonzero;stroke:#60331b;stroke-width:0.05px;"/>
                            <path d="M-1.75,-9.15C-0.75,-9.983 -0.167,-9.883 0,-8.85C-0.6,-8.25 -1.267,-6.8 -2,-4.5C-2.3,-3.5 -2.75,-3.033 -3.35,-3.1C-3.883,-3.133 -4.267,-3.517 -4.5,-4.25C-4.667,-4.75 -4.45,-5.583 -3.85,-6.75C-3.217,-7.95 -2.517,-8.75 -1.75,-9.15" style="fill:#d7ceca;"/>
                        </g>
                    </g>
                    <g id="sprite54" serif:id="sprite5" transform="matrix(0.9155,0,0,1,5e-05,0)">
                        <g id="shape34" serif:id="shape3">
                            <path d="M1.15,0.05C0.917,-0.95 1.383,-2.25 2.55,-3.85C3.65,-5.317 3.9,-6.667 3.3,-7.9C5.367,-8.3 6.317,-9.033 6.15,-10.1C7.35,-9.467 7.267,-7.917 5.9,-5.45C5.233,-4.217 5.083,-3.283 5.45,-2.65L7.1,-0.55L1.15,0.05" style="fill:#9a6714;"/>
                            <path d="M3.3,-7.9C3.9,-6.667 3.65,-5.317 2.55,-3.85C1.383,-2.25 0.917,-0.95 1.15,0.05C-1.583,0.017 -4.333,-0.4 -7.1,-1.2L-5.8,-3.25C-5.667,-3.617 -5.817,-4.417 -6.25,-5.65C-6.75,-7.117 -6.9,-8.2 -6.7,-8.9C-6.4,-9.667 -6.033,-10.117 -5.6,-10.25C-6,-8.617 -4.033,-7.767 0.3,-7.7L3.3,-7.9" style="fill:#d9a800;"/>
                            <path d="M7.1,-0.55L5.45,-2.65C5.083,-3.283 5.233,-4.217 5.9,-5.45C7.267,-7.917 7.35,-9.467 6.15,-10.1C6.317,-9.033 5.367,-8.3 3.3,-7.9L0.3,-7.7C-4.033,-7.767 -6,-8.617 -5.6,-10.25C-6.033,-10.117 -6.4,-9.667 -6.7,-8.9C-6.9,-8.2 -6.75,-7.117 -6.25,-5.65C-5.817,-4.417 -5.667,-3.617 -5.8,-3.25L-7.1,-1.2" style="fill:none;fill-rule:nonzero;stroke:#7f5800;stroke-width:0.05px;"/>
                        </g>
                    </g>
                </g>
                <g id="sprite7" transform="matrix(1,0,0,1,3.65,-3.05)">
                    <g id="shape4">
                        <path d="M-10.2,10.3L-8.7,11.85L-8.35,11.95L-7.25,12.9C-6.717,13.667 -6.417,14.617 -6.35,15.75C-6.283,16.817 -6.467,17.733 -6.9,18.5C-7.333,19.267 -7.9,19.667 -8.6,19.7C-9.3,19.7 -9.917,19.317 -10.45,18.55L-11.3,16.4L-13.3,16.55C-14.2,16.35 -14.9,15.933 -15.4,15.3C-15.933,14.633 -16.1,13.917 -15.9,13.15L-15.5,12.25L-16.1,12.05C-17.267,11.517 -18.117,10.867 -18.65,10.1C-19.183,9.333 -19.233,8.65 -18.8,8.05C-18.367,7.417 -17.6,7.067 -16.5,7C-15.4,6.9 -14.267,7.117 -13.1,7.65C-11.933,8.117 -11.083,8.733 -10.55,9.5L-10.2,10.3" style="fill:#a26437;"/>
                        <path d="M-8.35,11.95L-7.25,12.9C-6.717,13.667 -6.417,14.617 -6.35,15.75C-6.283,16.817 -6.467,17.733 -6.9,18.5C-7.333,19.267 -7.9,19.667 -8.6,19.7C-9.3,19.7 -9.917,19.317 -10.45,18.55L-11.3,16.4L-13.3,16.55C-14.2,16.35 -14.9,15.933 -15.4,15.3C-15.933,14.633 -16.1,13.917 -15.9,13.15L-15.5,12.25L-16.1,12.05C-17.267,11.517 -18.117,10.867 -18.65,10.1C-19.183,9.333 -19.233,8.65 -18.8,8.05C-18.367,7.417 -17.6,7.067 -16.5,7C-15.4,6.9 -14.267,7.117 -13.1,7.65C-11.933,8.117 -11.083,8.733 -10.55,9.5L-10.2,10.3" style="fill:none;fill-rule:nonzero;stroke:#644a39;stroke-width:0.05px;"/>
                        <path d="M-10.2,10.3L-8.7,11.85L-8.35,11.95L-10.2,10.3Z" style="fill:none;fill-rule:nonzero;stroke:#644a39;stroke-width:0.05px;"/>
                        <path d="M-4.85,18.7C-8.117,17.933 -11.033,16.283 -13.6,13.75C-17.233,10.083 -19.05,5.7 -19.05,0.6C-19.05,-4.533 -17.233,-8.917 -13.6,-12.55C-9.967,-16.217 -5.583,-18.033 -0.45,-18C2.35,-18.033 4.933,-17.5 7.3,-16.4C19.133,1.833 15.083,13.533 -4.85,18.7" style="fill:#ffc600;"/>
                        <path d="M7.3,-16.4C9.233,-15.5 11.033,-14.217 12.7,-12.55C16.333,-8.917 18.15,-4.533 18.15,0.6C18.15,5.7 16.333,10.083 12.7,13.75C9.067,17.383 4.683,19.2 -0.45,19.2L-4.85,18.7C15.083,13.533 19.133,1.833 7.3,-16.4" style="fill:#b67a18;"/>
                        <path d="M-4.85,18.7C-8.117,17.933 -11.033,16.283 -13.6,13.75C-17.233,10.083 -19.05,5.7 -19.05,0.6C-19.05,-4.533 -17.233,-8.917 -13.6,-12.55C-9.967,-16.217 -5.583,-18.033 -0.45,-18C2.35,-18.033 4.933,-17.5 7.3,-16.4C9.233,-15.5 11.033,-14.217 12.7,-12.55C16.333,-8.917 18.15,-4.533 18.15,0.6C18.15,5.7 16.333,10.083 12.7,13.75C9.067,17.383 4.683,19.2 -0.45,19.2L-4.85,18.7Z" style="fill:none;fill-rule:nonzero;stroke:#966801;stroke-width:0.05px;"/>
                        <path d="M-11.9,-9.2L-12.7,-8.45L-15.15,-8.4C-16.117,-8.633 -16.967,-9.05 -17.7,-9.65C-18.433,-10.283 -18.833,-10.9 -18.9,-11.5C-18.933,-12.133 -18.617,-12.583 -17.95,-12.85L-16.1,-13.05C-16.367,-13.683 -16.467,-14.283 -16.4,-14.85C-16.3,-15.617 -15.967,-16.133 -15.4,-16.4L-13.55,-16.25L-12.7,-15.65L-12.55,-16.15C-12.183,-17.05 -11.667,-17.617 -11,-17.85C-10.333,-18.117 -9.717,-17.983 -9.15,-17.45C-8.583,-16.883 -8.217,-16.1 -8.05,-15.1C-7.917,-14.1 -8.033,-13.133 -8.4,-12.2C-8.767,-11.3 -9.267,-10.717 -9.9,-10.45L-10.55,-10.35L-11.85,-9.45L-11.9,-9.2" style="fill:#a26437;"/>
                        <path d="M-11.9,-9.2L-12.7,-8.45L-15.15,-8.4C-16.117,-8.633 -16.967,-9.05 -17.7,-9.65C-18.433,-10.283 -18.833,-10.9 -18.9,-11.5C-18.933,-12.133 -18.617,-12.583 -17.95,-12.85L-16.1,-13.05C-16.367,-13.683 -16.467,-14.283 -16.4,-14.85C-16.3,-15.617 -15.967,-16.133 -15.4,-16.4L-13.55,-16.25L-12.7,-15.65L-12.55,-16.15C-12.183,-17.05 -11.667,-17.617 -11,-17.85C-10.333,-18.117 -9.717,-17.983 -9.15,-17.45C-8.583,-16.883 -8.217,-16.1 -8.05,-15.1C-7.917,-14.1 -8.033,-13.133 -8.4,-12.2C-8.767,-11.3 -9.267,-10.717 -9.9,-10.45L-10.55,-10.35" style="fill:none;fill-rule:nonzero;stroke:#644a39;stroke-width:0.05px;"/>
                        <path d="M-10.55,-10.35L-11.85,-9.45L-11.9,-9.2L-10.55,-10.35Z" style="fill:none;fill-rule:nonzero;stroke:#644a39;stroke-width:0.05px;"/>
                        <path d="M-15.6,1.2C-15.567,1.633 -15.667,2.117 -15.9,2.65C-16.267,3.483 -16.917,4.233 -17.85,4.9C-18.75,5.5 -19.633,5.8 -20.5,5.8C-21.4,5.833 -22.033,5.55 -22.4,4.95C-22.767,4.35 -22.75,3.617 -22.35,2.75C-22.05,2.05 -21.583,1.45 -20.95,0.95C-21.45,0.517 -21.833,-0.033 -22.1,-0.7C-22.4,-1.6 -22.4,-2.433 -22.1,-3.2C-21.8,-3.967 -21.267,-4.467 -20.5,-4.7L-19.55,-4.8L-19.65,-5.45C-19.783,-6.717 -19.65,-7.767 -19.25,-8.6C-18.85,-9.433 -18.283,-9.833 -17.55,-9.8C-16.783,-9.733 -16.083,-9.25 -15.45,-8.35C-14.85,-7.417 -14.467,-6.317 -14.3,-5.05C-14.133,-3.817 -14.25,-2.783 -14.65,-1.95L-15.1,-1.2L-15.65,0.85L-15.6,1.2" style="fill:#a26437;"/>
                        <path d="M-15.6,1.2C-15.567,1.633 -15.667,2.117 -15.9,2.65C-16.267,3.483 -16.917,4.233 -17.85,4.9C-18.75,5.5 -19.633,5.8 -20.5,5.8C-21.4,5.833 -22.033,5.55 -22.4,4.95C-22.767,4.35 -22.75,3.617 -22.35,2.75C-22.05,2.05 -21.583,1.45 -20.95,0.95C-21.45,0.517 -21.833,-0.033 -22.1,-0.7C-22.4,-1.6 -22.4,-2.433 -22.1,-3.2C-21.8,-3.967 -21.267,-4.467 -20.5,-4.7L-19.55,-4.8L-19.65,-5.45C-19.783,-6.717 -19.65,-7.767 -19.25,-8.6C-18.85,-9.433 -18.283,-9.833 -17.55,-9.8C-16.783,-9.733 -16.083,-9.25 -15.45,-8.35C-14.85,-7.417 -14.467,-6.317 -14.3,-5.05C-14.133,-3.817 -14.25,-2.783 -14.65,-1.95L-15.1,-1.2" style="fill:none;fill-rule:nonzero;stroke:#644a39;stroke-width:0.05px;"/>
                        <path d="M-15.1,-1.2L-15.65,0.85L-15.6,1.2L-15.1,-1.2Z" style="fill:none;fill-rule:nonzero;stroke:#644a39;stroke-width:0.05px;"/>
                        <path d="M-6.05,-13.15L-7.4,-14.6C-8.033,-15.533 -8.35,-16.483 -8.35,-17.45C-8.35,-18.417 -8.033,-19.15 -7.4,-19.65L-5.1,-19.8C-4.4,-19.567 -3.783,-19.133 -3.25,-18.5C-2.75,-19.067 -2.15,-19.55 -1.45,-19.95L1.2,-20.15C1.933,-19.917 2.433,-19.383 2.7,-18.55L2.8,-17.5L3.45,-17.75L6.75,-17.65C7.55,-17.283 7.95,-16.683 7.95,-15.85C7.883,-15.05 7.35,-14.233 6.35,-13.4C5.383,-12.6 4.233,-12.033 2.9,-11.7L2.4,-11.6C1.3,-11.4 0.367,-11.4 -0.4,-11.6L-4.55,-12.3C-5.317,-12.667 -5.817,-12.95 -6.05,-13.15" style="fill:#a26437;"/>
                        <path d="M-6.05,-13.15L-7.4,-14.6C-8.033,-15.533 -8.35,-16.483 -8.35,-17.45C-8.35,-18.417 -8.033,-19.15 -7.4,-19.65L-5.1,-19.8C-4.4,-19.567 -3.783,-19.133 -3.25,-18.5C-2.75,-19.067 -2.15,-19.55 -1.45,-19.95L1.2,-20.15C1.933,-19.917 2.433,-19.383 2.7,-18.55L2.8,-17.5L3.45,-17.75L6.75,-17.65C7.55,-17.283 7.95,-16.683 7.95,-15.85C7.883,-15.05 7.35,-14.233 6.35,-13.4C5.383,-12.6 4.233,-12.033 2.9,-11.7L2.4,-11.6" style="fill:none;fill-rule:nonzero;stroke:#644a39;stroke-width:0.05px;"/>
                        <path d="M14.2,4.25L14.55,2.1L14.35,1.7C14.183,1.233 14.2,0.75 14.4,0.25C14.7,-0.65 15.317,-1.383 16.25,-1.95C17.15,-2.483 18.133,-2.683 19.2,-2.55C20.2,-2.517 20.95,-2.15 21.45,-1.45C21.983,-0.75 22.117,0.033 21.85,0.9C21.617,1.567 21.2,2.15 20.6,2.65L22.15,4.5C22.65,5.5 22.817,6.383 22.65,7.15C22.383,7.917 21.85,8.367 21.05,8.5L19.95,8.5L20.2,9.2C20.6,10.533 20.633,11.633 20.3,12.5C20,13.3 19.417,13.65 18.55,13.55C17.717,13.417 16.833,12.833 15.9,11.8C15,10.7 14.367,9.5 14,8.2C13.533,6.833 13.45,5.733 13.75,4.9L14.2,4.25" style="fill:#a26437;"/>
                        <path d="M14.35,1.7C14.183,1.233 14.2,0.75 14.4,0.25C14.7,-0.65 15.317,-1.383 16.25,-1.95C17.15,-2.483 18.133,-2.683 19.2,-2.55C20.2,-2.517 20.95,-2.15 21.45,-1.45C21.983,-0.75 22.117,0.033 21.85,0.9C21.617,1.567 21.2,2.15 20.6,2.65L22.15,4.5C22.65,5.5 22.817,6.383 22.65,7.15C22.383,7.917 21.85,8.367 21.05,8.5L19.95,8.5L20.2,9.2C20.6,10.533 20.633,11.633 20.3,12.5C20,13.3 19.417,13.65 18.55,13.55C17.717,13.417 16.833,12.833 15.9,11.8C15,10.7 14.367,9.5 14,8.2C13.533,6.833 13.45,5.733 13.75,4.9L14.2,4.25" style="fill:none;fill-rule:nonzero;stroke:#644a39;stroke-width:0.05px;"/>
                        <path d="M14.2,4.25L14.55,2.1L14.35,1.7L14.2,4.25Z" style="fill:none;fill-rule:nonzero;stroke:#644a39;stroke-width:0.05px;"/>
                        <path d="M8.05,12.8L9.9,11.7L10.15,11.4L11.4,10.6C12.267,10.2 13.167,10.05 14.1,10.15C15.033,10.217 15.717,10.5 16.15,11C16.583,11.5 16.667,12.05 16.4,12.65C16.067,13.25 15.483,13.75 14.65,14.15L12.5,14.6L11.8,16.4C11.233,17.133 10.583,17.683 9.85,18.05L7.9,18.2L7.35,17.75L6.9,18.25L4.25,20.2L2.5,20.05C2.167,19.583 2.2,18.867 2.6,17.9C3.033,16.9 3.7,15.933 4.6,15C5.5,14.033 6.383,13.367 7.25,13L8.05,12.8" style="fill:#a26437;"/>
                        <path d="M10.15,11.4L11.4,10.6C12.267,10.2 13.167,10.05 14.1,10.15C15.033,10.217 15.717,10.5 16.15,11C16.583,11.5 16.667,12.05 16.4,12.65C16.067,13.25 15.483,13.75 14.65,14.15L12.5,14.6L11.8,16.4C11.233,17.133 10.583,17.683 9.85,18.05L7.9,18.2L7.35,17.75L6.9,18.25L4.25,20.2L2.5,20.05C2.167,19.583 2.2,18.867 2.6,17.9C3.033,16.9 3.7,15.933 4.6,15C5.5,14.033 6.383,13.367 7.25,13L8.05,12.8" style="fill:none;fill-rule:nonzero;stroke:#644a39;stroke-width:0.05px;"/>
                        <path d="M8.05,12.8L9.9,11.7L10.15,11.4L8.05,12.8Z" style="fill:none;fill-rule:nonzero;stroke:#644a39;stroke-width:0.05px;"/>
                        <path d="M5.6,-8.6C5.233,-8.867 4.967,-9.25 4.8,-9.75C4.5,-10.55 4.517,-11.433 4.85,-12.4C5.183,-13.367 5.733,-14.1 6.5,-14.6C7.233,-15.167 7.983,-15.35 8.75,-15.15C9.45,-14.917 9.95,-14.383 10.25,-13.55C10.45,-12.917 10.483,-12.233 10.35,-11.5L12.5,-11.05C13.4,-10.617 13.983,-10.033 14.25,-9.3C14.517,-8.6 14.417,-7.967 13.95,-7.4L13.25,-6.75L13.75,-6.35C14.783,-5.583 15.433,-4.783 15.7,-3.95C15.933,-3.15 15.733,-2.55 15.1,-2.15L12.25,-1.95C11.05,-2.25 9.95,-2.783 8.95,-3.55C7.883,-4.317 7.217,-5.1 6.95,-5.9L6.85,-6.65L5.9,-8.4L5.6,-8.6" style="fill:#a26437;"/>
                        <path d="M5.6,-8.6C5.233,-8.867 4.967,-9.25 4.8,-9.75C4.5,-10.55 4.517,-11.433 4.85,-12.4C5.183,-13.367 5.733,-14.1 6.5,-14.6C7.233,-15.167 7.983,-15.35 8.75,-15.15C9.45,-14.917 9.95,-14.383 10.25,-13.55C10.45,-12.917 10.483,-12.233 10.35,-11.5L12.5,-11.05C13.4,-10.617 13.983,-10.033 14.25,-9.3C14.517,-8.6 14.417,-7.967 13.95,-7.4L13.25,-6.75L13.75,-6.35C14.783,-5.583 15.433,-4.783 15.7,-3.95C15.933,-3.15 15.733,-2.55 15.1,-2.15L12.25,-1.95C11.05,-2.25 9.95,-2.783 8.95,-3.55C7.883,-4.317 7.217,-5.1 6.95,-5.9L6.85,-6.65" style="fill:none;fill-rule:nonzero;stroke:#644a39;stroke-width:0.05px;"/>
                        <path d="M6.85,-6.65L5.9,-8.4L5.6,-8.6L6.85,-6.65Z" style="fill:none;fill-rule:nonzero;stroke:#644a39;stroke-width:0.05px;"/>
                    </g>
                </g>
                <g id="sprite32" serif:id="sprite3" transform="matrix(1.2222,-0.2494,0.1568,1.0586,2.99954,-12.1502)">
                    <g id="sprite45" serif:id="sprite4" transform="matrix(0.9865,0,0,0.6259,0.1003,-4.60045)">
                        <g id="shape25" serif:id="shape2">
                            <path d="M-6,-1.5C-5.733,-5.233 -4.333,-7.933 -1.8,-9.6C-0.867,-10.2 -0.25,-10.517 0.05,-10.55C0.483,-10.583 1.033,-10.3 1.7,-9.7C4.6,-7.133 6.05,-4.3 6.05,-1.2C4.683,-0.267 2.3,0.117 -1.1,-0.05C-4.433,-0.217 -6.067,-0.7 -6,-1.5" style="fill:#ce9e79;"/>
                            <path d="M-6,-1.5C-5.733,-5.233 -4.333,-7.933 -1.8,-9.6C-0.867,-10.2 -0.25,-10.517 0.05,-10.55C0.483,-10.583 1.033,-10.3 1.7,-9.7C4.6,-7.133 6.05,-4.3 6.05,-1.2C4.683,-0.267 2.3,0.117 -1.1,-0.05C-4.433,-0.217 -6.067,-0.7 -6,-1.5Z" style="fill:none;fill-rule:nonzero;stroke:#60331b;stroke-width:0.05px;"/>
                            <path d="M-1.75,-9.15C-0.75,-9.983 -0.167,-9.883 0,-8.85C-0.6,-8.25 -1.267,-6.8 -2,-4.5C-2.3,-3.5 -2.75,-3.033 -3.35,-3.1C-3.883,-3.133 -4.267,-3.517 -4.5,-4.25C-4.667,-4.75 -4.45,-5.583 -3.85,-6.75C-3.217,-7.95 -2.517,-8.75 -1.75,-9.15" style="fill:#d7ceca;"/>
                        </g>
                    </g>
                    <g id="sprite55" serif:id="sprite5" transform="matrix(0.9722,0,0,0.9269,0.19992,-0.199775)">
                        <g id="shape35" serif:id="shape3">
                            <path d="M1.15,0.05C0.917,-0.95 1.383,-2.25 2.55,-3.85C3.65,-5.317 3.9,-6.667 3.3,-7.9C5.367,-8.3 6.317,-9.033 6.15,-10.1C7.35,-9.467 7.267,-7.917 5.9,-5.45C5.233,-4.217 5.083,-3.283 5.45,-2.65L7.1,-0.55L1.15,0.05" style="fill:#9a6714;"/>
                            <path d="M3.3,-7.9C3.9,-6.667 3.65,-5.317 2.55,-3.85C1.383,-2.25 0.917,-0.95 1.15,0.05C-1.583,0.017 -4.333,-0.4 -7.1,-1.2L-5.8,-3.25C-5.667,-3.617 -5.817,-4.417 -6.25,-5.65C-6.75,-7.117 -6.9,-8.2 -6.7,-8.9C-6.4,-9.667 -6.033,-10.117 -5.6,-10.25C-6,-8.617 -4.033,-7.767 0.3,-7.7L3.3,-7.9" style="fill:#d9a800;"/>
                            <path d="M7.1,-0.55L5.45,-2.65C5.083,-3.283 5.233,-4.217 5.9,-5.45C7.267,-7.917 7.35,-9.467 6.15,-10.1C6.317,-9.033 5.367,-8.3 3.3,-7.9L0.3,-7.7C-4.033,-7.767 -6,-8.617 -5.6,-10.25C-6.033,-10.117 -6.4,-9.667 -6.7,-8.9C-6.9,-8.2 -6.75,-7.117 -6.25,-5.65C-5.817,-4.417 -5.667,-3.617 -5.8,-3.25L-7.1,-1.2" style="fill:none;fill-rule:nonzero;stroke:#7f5800;stroke-width:0.05px;"/>
                        </g>
                    </g>
                </g>
                <g id="sprite63" serif:id="sprite6" transform="matrix(-0.3049,-0.9511,-0.9511,0.3049,13.6497,1.40063)">
                    <g id="sprite46" serif:id="sprite4" transform="matrix(1,0,0,1,0.2,-7.65)">
                        <g id="shape26" serif:id="shape2">
                            <path d="M-6,-1.5C-5.733,-5.233 -4.333,-7.933 -1.8,-9.6C-0.867,-10.2 -0.25,-10.517 0.05,-10.55C0.483,-10.583 1.033,-10.3 1.7,-9.7C4.6,-7.133 6.05,-4.3 6.05,-1.2C4.683,-0.267 2.3,0.117 -1.1,-0.05C-4.433,-0.217 -6.067,-0.7 -6,-1.5" style="fill:#ce9e79;"/>
                            <path d="M-6,-1.5C-5.733,-5.233 -4.333,-7.933 -1.8,-9.6C-0.867,-10.2 -0.25,-10.517 0.05,-10.55C0.483,-10.583 1.033,-10.3 1.7,-9.7C4.6,-7.133 6.05,-4.3 6.05,-1.2C4.683,-0.267 2.3,0.117 -1.1,-0.05C-4.433,-0.217 -6.067,-0.7 -6,-1.5Z" style="fill:none;fill-rule:nonzero;stroke:#60331b;stroke-width:0.05px;"/>
                            <path d="M-1.75,-9.15C-0.75,-9.983 -0.167,-9.883 0,-8.85C-0.6,-8.25 -1.267,-6.8 -2,-4.5C-2.3,-3.5 -2.75,-3.033 -3.35,-3.1C-3.883,-3.133 -4.267,-3.517 -4.5,-4.25C-4.667,-4.75 -4.45,-5.583 -3.85,-6.75C-3.217,-7.95 -2.517,-8.75 -1.75,-9.15" style="fill:#d7ceca;"/>
                        </g>
                    </g>
                    <g id="sprite56" serif:id="sprite5" transform="matrix(0.9155,0,0,1,5e-05,0)">
                        <g id="shape36" serif:id="shape3">
                            <path d="M1.15,0.05C0.917,-0.95 1.383,-2.25 2.55,-3.85C3.65,-5.317 3.9,-6.667 3.3,-7.9C5.367,-8.3 6.317,-9.033 6.15,-10.1C7.35,-9.467 7.267,-7.917 5.9,-5.45C5.233,-4.217 5.083,-3.283 5.45,-2.65L7.1,-0.55L1.15,0.05" style="fill:#9a6714;"/>
                            <path d="M3.3,-7.9C3.9,-6.667 3.65,-5.317 2.55,-3.85C1.383,-2.25 0.917,-0.95 1.15,0.05C-1.583,0.017 -4.333,-0.4 -7.1,-1.2L-5.8,-3.25C-5.667,-3.617 -5.817,-4.417 -6.25,-5.65C-6.75,-7.117 -6.9,-8.2 -6.7,-8.9C-6.4,-9.667 -6.033,-10.117 -5.6,-10.25C-6,-8.617 -4.033,-7.767 0.3,-7.7L3.3,-7.9" style="fill:#d9a800;"/>
                            <path d="M7.1,-0.55L5.45,-2.65C5.083,-3.283 5.233,-4.217 5.9,-5.45C7.267,-7.917 7.35,-9.467 6.15,-10.1C6.317,-9.033 5.367,-8.3 3.3,-7.9L0.3,-7.7C-4.033,-7.767 -6,-8.617 -5.6,-10.25C-6.033,-10.117 -6.4,-9.667 -6.7,-8.9C-6.9,-8.2 -6.75,-7.117 -6.25,-5.65C-5.817,-4.417 -5.667,-3.617 -5.8,-3.25L-7.1,-1.2" style="fill:none;fill-rule:nonzero;stroke:#7f5800;stroke-width:0.05px;"/>
                        </g>
                    </g>
                </g>
                <g id="sprite8" transform="matrix(1,0,0,1,-0.05,-0.05)">
                    <g id="shape5">
                        <path d="M-0.75,-15.25C3.45,-15.017 6.967,-13.35 9.8,-10.25C11.9,-7.95 13.45,-4.933 14.45,-1.2L14.55,-0.75C15.35,2.417 15.567,4.617 15.2,5.85C14.933,6.617 13.433,8.433 10.7,11.3C8,14.133 4.6,15.45 0.5,15.25C-2.933,15.083 -5.983,13.9 -8.65,11.7L-10.1,10.3C-13.233,7.1 -14.95,3.7 -15.25,0.1L-15.25,-0.65C-15.45,-4.55 -14.017,-8.1 -10.95,-11.3C-8.217,-14.133 -4.817,-15.45 -0.75,-15.25" style="fill:#b67a18;"/>
                        <path d="M-9.1,11.65L-10.5,10.4C-13.367,7.433 -14.9,4.3 -15.1,1L-15.15,0.35C-15.283,-3.25 -13.9,-6.517 -11,-9.45C-8.367,-12.05 -5.117,-13.25 -1.25,-13.05C2.717,-12.883 6,-11.383 8.6,-8.55C10.533,-6.417 11.95,-3.633 12.85,-0.2C7.217,11.867 -0.1,15.817 -9.1,11.65" style="fill:#fff7e6;"/>
                        <path d="M-9.1,11.65C-0.1,15.817 7.217,11.867 12.85,-0.2L12.95,0.2C13.65,3.133 13.817,5.15 13.45,6.25C13.183,6.983 11.733,8.667 9.1,11.3C6.5,13.9 3.283,15.117 -0.55,14.95C-3.783,14.783 -6.633,13.683 -9.1,11.65" style="fill:#f0e1ca;"/>
                        <path d="M12.85,-0.2C11.95,-3.633 10.533,-6.417 8.6,-8.55C6,-11.383 2.717,-12.883 -1.25,-13.05C-5.117,-13.25 -8.367,-12.05 -11,-9.45C-13.9,-6.517 -15.283,-3.25 -15.15,0.35L-15.1,1C-14.9,4.3 -13.367,7.433 -10.5,10.4L-9.1,11.65C-6.633,13.683 -3.783,14.783 -0.55,14.95C3.283,15.117 6.5,13.9 9.1,11.3C11.733,8.667 13.183,6.983 13.45,6.25C13.817,5.15 13.65,3.133 12.95,0.2L12.85,-0.2Z" style="fill:none;fill-rule:nonzero;stroke:#58360e;stroke-width:0.05px;"/>
                        <path d="M-9.3,-5.75C-8.967,-5.217 -9.133,-4.383 -9.8,-3.25C-10.467,-2.117 -10.85,-0.95 -10.95,0.25C-11.017,1.417 -11.4,2.25 -12.1,2.75L-13.7,2.65C-14.1,2.183 -14.4,1.367 -14.6,0.2C-14.833,-0.967 -14.617,-2.133 -13.95,-3.3C-13.317,-4.5 -12.483,-5.35 -11.45,-5.85L-9.3,-5.75M-5.8,-11.8C-4.867,-11.967 -4.05,-11.867 -3.35,-11.5C-2.65,-11.133 -2.3,-10.633 -2.3,-10C-2.267,-9.367 -2.6,-8.783 -3.3,-8.25C-4,-7.683 -4.8,-7.333 -5.7,-7.2C-6.733,-7.1 -7.567,-7.217 -8.2,-7.55C-8.933,-7.917 -9.283,-8.4 -9.25,-9C-9.283,-9.633 -8.95,-10.233 -8.25,-10.8C-7.583,-11.333 -6.767,-11.667 -5.8,-11.8" style="fill:#fff;"/>
                        <path d="M-9.3,-5.75C-8.967,-5.217 -9.133,-4.383 -9.8,-3.25C-10.467,-2.117 -10.85,-0.95 -10.95,0.25C-11.017,1.417 -11.4,2.25 -12.1,2.75L-13.7,2.65C-14.1,2.183 -14.4,1.367 -14.6,0.2C-14.833,-0.967 -14.617,-2.133 -13.95,-3.3C-13.317,-4.5 -12.483,-5.35 -11.45,-5.85L-9.3,-5.75M-5.8,-11.8C-4.867,-11.967 -4.05,-11.867 -3.35,-11.5C-2.65,-11.133 -2.3,-10.633 -2.3,-10C-2.267,-9.367 -2.6,-8.783 -3.3,-8.25C-4,-7.683 -4.8,-7.333 -5.7,-7.2C-6.733,-7.1 -7.567,-7.217 -8.2,-7.55C-8.933,-7.917 -9.283,-8.4 -9.25,-9C-9.283,-9.633 -8.95,-10.233 -8.25,-10.8C-7.583,-11.333 -6.767,-11.667 -5.8,-11.8" style="fill:none;fill-rule:nonzero;stroke:#fcedd8;stroke-width:0.05px;"/>
                    </g>
                    <g id="sprite9" transform="matrix(1,0,0,1,-5.85,4.15)">
                        <g id="shape6">
                            <path d="M0.95,-1.6L-0.35,-1.95C-1.083,-1.95 -1.717,-1.7 -2.25,-1.2C-2.75,-0.667 -2.983,-0.05 -2.95,0.65C-2.983,1.383 -2.75,2 -2.25,2.5C-1.883,2.867 -1.45,3.1 -0.95,3.2L-0.35,3.3C0.35,3.3 0.95,3.033 1.45,2.5C1.983,2 2.25,1.383 2.25,0.65C2.25,-0.05 1.983,-0.667 1.45,-1.2L0.95,-1.6M4.15,4.15C2.983,5.317 1.6,5.9 0,5.9C-1.633,5.9 -3.033,5.317 -4.2,4.15C-5.367,2.983 -5.933,1.6 -5.9,0C-5.933,-1.6 -5.367,-2.983 -4.2,-4.15C-3.033,-5.317 -1.633,-5.9 0,-5.9C1.6,-5.9 2.983,-5.317 4.15,-4.15C5.283,-2.983 5.867,-1.6 5.9,0C5.867,1.6 5.283,2.983 4.15,4.15" style="fill:url(#_Radial1);"/>
                            <path d="M0.95,-1.6L1.45,-1.2C1.983,-0.667 2.25,-0.05 2.25,0.65C2.25,1.383 1.983,2 1.45,2.5C0.95,3.033 0.35,3.3 -0.35,3.3L-0.95,3.2C-1.45,3.1 -1.883,2.867 -2.25,2.5C-2.75,2 -2.983,1.383 -2.95,0.65C-2.983,-0.05 -2.75,-0.667 -2.25,-1.2C-1.717,-1.7 -1.083,-1.95 -0.35,-1.95L0.95,-1.6Z" style="fill:none;fill-rule:nonzero;stroke:#818fde;stroke-width:0.05px;"/>
                            <path d="M0.65,0.75L4.35,-3.2" style="fill:none;fill-rule:nonzero;stroke:#e0eefe;stroke-width:0.05px;"/>
                            <path d="M-1.65,-0.45L-2.3,-4.75M2.75,3.25L3.95,3.65M2,1L5.8,-0.25M0.85,2.6L1.7,2.9M0.15,3.55L0.8,5.1" style="fill:none;fill-rule:nonzero;stroke:#5761d2;stroke-width:0.05px;"/>
                            <path d="M-0.8,-0.65L-0.1,-5.6M-1.3,2.95L-1.55,5.05M-2.15,0.45L-5.3,-2.75" style="fill:none;fill-rule:nonzero;stroke:#ced1f2;stroke-width:0.05px;"/>
                            <path d="M-2.45,2.2L-4.6,3.3" style="fill:none;fill-rule:nonzero;stroke:#818fde;stroke-width:0.05px;"/>
                            <path d="M0.15,0.2L1.65,-2.35" style="fill:none;fill-rule:nonzero;stroke:#5761d2;stroke-width:0.05px;"/>
                            <path d="M0.1,-0.3L0.35,-0.1C0.617,0.2 0.75,0.55 0.75,0.95C0.75,1.35 0.617,1.683 0.35,1.95C0.083,2.217 -0.25,2.35 -0.65,2.35L-0.95,2.35L-1.65,1.95C-1.917,1.683 -2.05,1.35 -2.05,0.95C-2.05,0.55 -1.917,0.2 -1.65,-0.1C-1.383,-0.367 -1.05,-0.5 -0.65,-0.5L0.1,-0.3" style="fill:#353d62;"/>
                        </g>
                    </g>
                </g>
                <g id="sprite10" transform="matrix(1,0,0,1,5.45,-4.5)">
                    <g id="shape7">
                        <path d="M-2.15,-12.25L-1.25,-12.25C-0.283,-12.183 0.667,-11.767 1.6,-11C2.567,-10.3 3.233,-9.483 3.6,-8.55C3.967,-7.617 3.917,-6.85 3.45,-6.25C3.017,-5.65 2.317,-5.4 1.35,-5.5C0.383,-5.6 -0.583,-6 -1.55,-6.7L-2,-7.1L-2.7,-6.4C-3.4,-5.933 -4.167,-5.767 -5,-5.9C-5.867,-6.033 -6.567,-6.417 -7.1,-7.05C-7.533,-7.583 -7.75,-8.15 -7.75,-8.75L-10.2,-8.55C-11.167,-8.65 -11.8,-8.983 -12.1,-9.55C-12.367,-10.117 -12.2,-10.733 -11.6,-11.4C-11,-12.1 -10.15,-12.65 -9.05,-13.05L-5.9,-13.45L-4.5,-13L-4.25,-12.75L-2.15,-12.25" style="fill:#a26437;"/>
                        <path d="M-4.5,-13L-5.9,-13.45L-9.05,-13.05C-10.15,-12.65 -11,-12.1 -11.6,-11.4C-12.2,-10.733 -12.367,-10.117 -12.1,-9.55C-11.8,-8.983 -11.167,-8.65 -10.2,-8.55L-7.75,-8.75C-7.75,-8.15 -7.533,-7.583 -7.1,-7.05C-6.567,-6.417 -5.867,-6.033 -5,-5.9C-4.167,-5.767 -3.4,-5.933 -2.7,-6.4L-2,-7.1L-1.55,-6.7C-0.583,-6 0.383,-5.6 1.35,-5.5C2.317,-5.4 3.017,-5.65 3.45,-6.25C3.917,-6.85 3.967,-7.617 3.6,-8.55C3.233,-9.483 2.567,-10.3 1.6,-11C0.667,-11.767 -0.283,-12.183 -1.25,-12.25L-2.15,-12.25" style="fill:none;fill-rule:nonzero;stroke:#644a39;stroke-width:0.05px;"/>
                        <path d="M-2.15,-12.25L-4.25,-12.75L-4.5,-13L-2.15,-12.25Z" style="fill:none;fill-rule:nonzero;stroke:#644a39;stroke-width:0.05px;"/>
                        <path d="M11.4,5L11.8,5.7C12.133,6.5 12.25,7.533 12.15,8.8C12.083,10.033 11.817,11.117 11.35,12.05C10.883,12.95 10.35,13.433 9.75,13.5C9.183,13.533 8.733,13.15 8.4,12.35C8.033,11.517 7.883,10.483 7.95,9.25L8.05,8.6L7.25,8.5C6.65,8.267 6.217,7.783 5.95,7.05C5.683,6.283 5.65,5.467 5.85,4.6C6.017,3.9 6.3,3.35 6.7,2.95C6.167,2.417 5.783,1.817 5.55,1.15C5.183,0.317 5.133,-0.4 5.4,-1C5.667,-1.6 6.15,-1.9 6.85,-1.9C7.55,-1.9 8.267,-1.6 9,-1C9.733,-0.367 10.283,0.367 10.65,1.2L10.9,2.65L10.85,2.95L11.4,5" style="fill:#a26437;"/>
                        <path d="M10.9,2.65L10.65,1.2C10.283,0.367 9.733,-0.367 9,-1C8.267,-1.6 7.55,-1.9 6.85,-1.9C6.15,-1.9 5.667,-1.6 5.4,-1C5.133,-0.4 5.183,0.317 5.55,1.15C5.783,1.817 6.167,2.417 6.7,2.95C6.3,3.35 6.017,3.9 5.85,4.6C5.65,5.467 5.683,6.283 5.95,7.05C6.217,7.783 6.65,8.267 7.25,8.5L8.05,8.6L7.95,9.25C7.883,10.483 8.033,11.517 8.4,12.35C8.733,13.15 9.183,13.533 9.75,13.5C10.35,13.433 10.883,12.95 11.35,12.05C11.817,11.117 12.083,10.033 12.15,8.8C12.25,7.533 12.133,6.5 11.8,5.7L11.4,5" style="fill:none;fill-rule:nonzero;stroke:#644a39;stroke-width:0.05px;"/>
                        <path d="M11.4,5L10.85,2.95L10.9,2.65L11.4,5Z" style="fill:none;fill-rule:nonzero;stroke:#644a39;stroke-width:0.05px;"/>
                    </g>
                </g>
            </g>
        </g>
    </g>
    <defs>
        <radialGradient id="_Radial1" cx="0" cy="0" r="1" gradientUnits="userSpaceOnUse" gradientTransform="matrix(6.144,0,0,6.144,-0.05,0)"><stop offset="0" style="stop-color:#6066aa;stop-opacity:1"/><stop offset="0.34" style="stop-color:#6066aa;stop-opacity:1"/><stop offset="0.8" style="stop-color:#b4c6ef;stop-opacity:1"/><stop offset="1" style="stop-color:#fff;stop-opacity:1"/></radialGradient>
    </defs>
</svg>
