<?xml version="1.0" encoding="UTF-8" standalone="no"?>
<svg xmlns:xlink="http://www.w3.org/1999/xlink" height="80.0px" width="80.0px" xmlns="http://www.w3.org/2000/svg">
  <g transform="matrix(2.0, 0.0, 0.0, 2.0, 0.0, 0.0)">
    <use height="40.0" transform="matrix(1.0, 0.0, 0.0, 1.0, 0.0, 0.0)" width="40.0" xlink:href="#shape0"/>
    <use height="21.75" transform="matrix(1.3333, 0.0, 0.0, 1.3333, 5.45, 5.7)" width="22.05" xlink:href="#sprite0"/>
  </g>
  <defs>
    <g id="shape0" transform="matrix(1.0, 0.0, 0.0, 1.0, 0.0, 0.0)">
      <path d="M40.0 0.0 L40.0 40.0 0.0 40.0 0.0 0.0 40.0 0.0" fill="#aa871a" fill-rule="evenodd" stroke="none"/>
      <path d="M1.85 38.05 L1.85 1.05 38.85 1.05 38.85 38.05 1.85 38.05" fill="#aa871a" fill-rule="evenodd" stroke="none"/>
      <path d="M38.55 37.8 L38.55 38.65 1.65 38.6 1.65 1.6 38.55 1.6 38.55 37.8 24.0 23.35 38.55 37.8" fill="#aa871a" fill-rule="evenodd" stroke="none"/>
      <path d="M31.45 30.4 L38.55 37.8 38.55 1.6 1.85 1.6 1.65 1.6 1.65 2.0 9.25 8.95 M1.65 2.0 L1.65 38.6 38.55 38.65 38.55 37.8" fill="none" stroke="#ececec" stroke-linecap="round" stroke-linejoin="round" stroke-width="1.5"/>
      <path d="M31.15 9.0 Q35.6 13.45 35.65 19.75 L35.65 19.85 Q35.6 26.0 31.45 30.4 L31.15 30.75 Q26.75 35.2 20.4 35.25 L20.25 35.25 Q13.95 35.25 9.4 30.75 L9.15 30.45 Q4.95 26.05 4.95 19.85 4.85 13.6 9.35 9.05 L9.4 9.0 Q13.95 4.45 20.25 4.45 L20.55 4.45 Q26.65 4.6 30.95 8.85 L31.15 9.0" fill="#aa871a" fill-rule="evenodd" stroke="none"/>
      <path d="M17.05 4.8 L15.0 5.4 Q11.95 6.45 9.4 9.0 L9.35 9.05 Q4.85 13.6 4.95 19.85 4.95 26.05 9.15 30.45 L9.4 30.75 Q12.75 34.05 17.05 34.95 L20.05 35.25 20.4 35.25 23.35 34.95 Q27.75 34.15 31.15 30.75 L31.45 30.4 Q35.6 26.0 35.65 19.85 L35.65 19.75 Q35.6 13.45 31.15 9.0 L30.95 8.85 Q27.6 5.65 23.4 4.85 L20.55 4.45 20.05 4.45 17.05 4.8 M37.95 20.15 Q37.95 27.15 33.35 32.2 L32.75 32.85 Q27.6 37.95 20.4 38.15 L20.0 38.15 Q12.55 38.15 7.35 32.85 L7.15 32.65 Q2.0 27.45 2.0 20.15 L2.0 19.85 Q2.15 12.75 7.35 7.45 L7.55 7.25 Q12.8 2.15 20.0 2.2 L20.55 2.2 Q27.4 2.4 32.4 7.2 L32.75 7.45 Q37.85 12.6 37.95 19.75 L37.95 20.15" fill="#aa871a" fill-rule="evenodd" stroke="none"/>
      <path d="M37.95 20.15 Q37.95 27.15 33.35 32.2 L32.75 32.85 Q27.6 37.95 20.4 38.15 L20.0 38.15 Q12.55 38.15 7.35 32.85 L7.15 32.65 Q2.0 27.45 2.0 20.15 L2.0 19.85 Q2.15 12.75 7.35 7.45 L7.55 7.25 Q12.8 2.15 20.0 2.2 L20.55 2.2 Q27.4 2.4 32.4 7.2 L32.75 7.45 Q37.85 12.6 37.95 19.75 L37.95 20.15" fill="#aa871a" fill-rule="evenodd" stroke="none"/>
      <path d="M37.95 20.15 Q37.95 27.15 33.35 32.2 L32.75 32.85 Q27.6 37.95 20.4 38.15 L20.0 38.15 Q12.55 38.15 7.35 32.85 L7.15 32.65 Q2.0 27.45 2.0 20.15 L2.0 19.85 Q2.15 12.75 7.35 7.45 L7.55 7.25 Q12.8 2.15 20.0 2.2 L20.55 2.2 Q27.4 2.4 32.4 7.2 L32.75 7.45 Q37.85 12.6 37.95 19.75 L37.95 20.15 Z" fill="none" stroke="#ececec" stroke-linecap="round" stroke-linejoin="round" stroke-width="1.5"/>
      <path d="M17.05 35.2 Q12.6 34.4 9.2 31.0 L9.05 30.85 8.95 30.75 Q4.75 26.35 4.75 20.15 4.65 13.8 9.15 9.25 L9.2 9.25 9.25 9.2 Q12.45 5.85 17.05 5.05 L20.05 4.75 20.55 4.75 23.4 5.05 Q27.55 5.95 30.75 9.05 L30.95 9.25 Q35.4 13.75 35.45 20.0 L35.45 20.15 Q35.4 26.25 31.25 30.65 L30.95 31.0 Q27.65 34.2 23.35 35.2 L20.4 35.45 20.05 35.45 17.05 35.2 23.35 35.2 23.4 5.05 17.05 5.05 4.75 20.15 9.05 30.85 17.05 35.2" fill="#aa871a" fill-rule="evenodd" stroke="none"/>
      <path d="M17.05 35.2 Q12.6 34.4 9.2 31.0 L8.95 30.75 Q4.75 26.35 4.75 20.15 4.65 13.8 9.15 9.25 L9.2 9.25 9.25 9.2 Q12.45 5.85 17.05 5.05 L20.05 4.75 20.55 4.75 23.4 5.05 Q27.55 5.95 30.75 9.05 L30.95 9.25 Q35.4 13.75 35.45 20.0 L35.45 20.15 Q35.4 26.25 31.25 30.65 L30.95 31.0 Q27.65 34.2 23.35 35.2 L20.4 35.45 20.05 35.45 17.05 35.2 Z" fill="none" stroke="#ececec" stroke-linecap="round" stroke-linejoin="round" stroke-width="0.9"/>
      <path d="M35.75 19.75 L37.95 19.75 M9.2 8.85 L7.55 7.25 M4.45 19.85 L2.0 19.85 M20.55 4.45 L20.55 2.2 M20.4 35.8 L20.4 38.15 M8.2 31.75 L7.15 32.65 M31.75 30.6 L33.35 32.2 M32.55 7.25 L30.95 8.85" fill="none" stroke="#ececec" stroke-linecap="round" stroke-linejoin="round" stroke-width="1.5"/>
      <path d="M30.95 8.85 L37.85 2.05 M8.8 31.15 L1.85 37.85" fill="none" stroke="#ececec" stroke-linecap="round" stroke-linejoin="round" stroke-width="1.5"/>
    </g>
    <g id="sprite0" transform="matrix(1.0, 0.0, 0.0, 1.0, 0.0, 0.0)">
      <use height="21.75" transform="matrix(1.0, 0.0, 0.0, 1.0, 0.0, 0.0)" width="22.05" xlink:href="#shape1"/>
    </g>
    <g id="shape1" transform="matrix(1.0, 0.0, 0.0, 1.0, 0.0, 0.0)">
      <path d="M10.9 1.1 Q10.0 1.2 9.75 1.55 9.3 2.1 9.25 2.9 9.15 3.8 9.75 4.4 10.4 4.95 10.85 4.95 L11.5 4.65 11.7 4.1 11.2 3.8 10.15 3.95 10.45 3.5 Q11.0 3.0 11.8 3.05 12.8 3.2 13.1 3.8 13.3 4.25 13.0 4.8 L12.3 5.35 12.35 5.35 11.85 5.55 Q12.4 6.05 12.35 6.7 12.2 7.35 11.7 7.65 L12.2 8.0 12.75 8.0 Q12.45 7.3 13.1 6.85 L13.0 7.3 13.1 7.8 13.3 8.0 13.7 8.0 13.7 8.3 14.15 8.4 14.7 8.05 15.0 7.5 14.45 6.7 14.4 6.7 14.1 6.85 14.25 7.15 Q14.45 7.35 14.6 7.4 L14.45 7.45 Q14.05 7.55 13.85 7.25 13.5 6.9 13.55 6.6 13.55 6.3 13.9 6.25 L14.3 6.2 Q13.85 4.3 15.15 3.0 17.4 1.65 19.35 4.05 20.5 6.25 18.55 7.2 L18.95 6.3 18.8 5.3 17.95 4.15 Q17.3 3.55 16.8 3.65 16.1 3.8 15.5 4.25 14.8 4.95 14.75 5.7 14.9 6.5 15.2 6.85 L15.85 7.1 16.4 6.85 16.25 6.25 15.55 5.65 15.95 5.55 Q16.75 5.55 17.2 6.2 17.8 7.05 17.6 7.65 L16.8 8.25 15.95 8.15 15.95 8.2 15.35 7.9 15.35 7.8 15.3 7.8 14.95 8.6 Q14.35 9.05 13.7 8.9 L13.7 9.65 14.2 10.45 14.2 10.2 Q14.55 9.1 15.55 9.4 L15.15 9.6 14.85 10.0 14.75 10.65 14.95 11.2 15.6 11.4 16.3 11.2 16.5 10.95 16.5 10.7 16.55 10.45 16.4 10.35 16.15 10.25 16.0 10.5 16.1 11.0 15.9 10.85 Q15.6 10.65 15.7 10.2 15.8 9.75 16.0 9.6 L16.5 9.65 16.65 9.75 16.75 9.5 16.9 9.35 Q17.95 7.6 19.8 7.65 22.3 8.35 22.0 11.3 21.25 13.75 19.2 13.0 L20.1 12.6 20.75 11.8 20.95 10.45 Q20.9 9.5 20.5 9.25 19.8 8.8 19.15 8.75 18.2 8.7 17.65 9.25 17.1 9.95 17.1 10.35 L17.35 11.0 17.95 11.25 18.25 10.7 18.2 9.75 18.5 10.0 Q19.1 10.55 18.95 11.3 18.8 12.35 18.25 12.6 L17.25 12.55 Q16.75 12.25 16.7 11.8 L16.7 11.9 16.55 11.4 Q16.0 12.05 15.3 11.95 14.45 11.7 14.25 11.0 L13.7 11.9 13.7 12.3 Q14.55 11.85 15.0 12.6 L14.55 12.5 14.1 12.6 13.7 13.0 13.7 13.55 13.45 13.55 13.45 13.65 13.85 14.2 14.55 14.45 14.85 14.4 14.95 14.25 15.15 14.05 15.15 13.9 15.0 13.6 Q14.9 13.6 14.75 13.75 L14.5 14.1 14.4 13.95 Q14.35 13.6 14.65 13.3 14.95 13.0 15.3 13.0 L15.6 13.35 15.7 13.7 15.95 13.6 16.15 13.55 Q18.2 13.05 19.45 14.45 20.8 16.65 18.4 18.6 16.2 19.75 15.25 17.8 L16.15 18.2 17.15 18.05 18.3 17.2 Q18.9 16.55 18.8 16.05 L18.2 14.75 Q17.6 14.1 16.75 14.0 15.95 14.15 15.6 14.45 L15.35 15.1 15.6 15.65 16.2 15.5 16.85 14.8 16.9 15.2 Q16.9 16.0 16.25 16.45 15.45 17.1 14.85 16.85 14.35 16.7 14.2 16.05 14.05 15.55 14.3 15.2 L14.25 15.2 14.45 14.8 13.25 14.45 Q12.95 14.0 12.95 13.55 L12.2 13.55 11.45 14.0 11.55 14.0 Q12.7 14.4 12.35 15.35 L12.15 14.9 11.8 14.6 11.15 14.55 10.55 14.75 10.35 15.4 Q10.3 15.75 10.55 16.1 L10.7 16.2 10.75 16.2 11.35 16.3 11.5 15.95 11.25 15.8 10.8 15.85 10.9 15.7 Q11.2 15.45 11.55 15.5 12.0 15.5 12.15 15.8 L12.15 16.3 12.0 16.5 12.15 16.6 Q13.9 17.65 13.8 19.5 13.15 22.0 10.15 21.7 7.7 20.95 8.45 18.9 L8.85 19.8 Q9.2 20.25 9.65 20.45 L11.05 20.65 Q12.0 20.55 12.2 20.2 L12.7 18.85 Q12.8 17.95 12.2 17.35 11.5 16.8 11.1 16.8 10.75 16.8 10.45 17.1 L10.25 17.65 Q10.4 17.95 10.75 17.95 L11.8 17.85 11.5 18.2 Q11.0 18.8 10.15 18.7 9.15 18.55 8.85 17.95 8.65 17.5 8.95 16.95 9.15 16.55 9.65 16.4 L9.6 16.4 10.25 16.2 Q9.8 15.75 9.8 15.05 10.0 14.3 10.65 14.1 L9.75 13.55 9.15 13.55 Q9.4 14.4 8.5 14.7 L8.7 14.25 8.7 13.8 8.65 13.55 8.2 13.55 8.2 13.0 7.85 12.9 7.25 13.15 6.8 13.75 Q6.8 14.2 6.95 14.3 L6.95 14.35 7.25 14.45 7.5 14.45 7.5 14.1 7.1 13.8 7.35 13.75 7.9 14.15 8.05 14.8 7.5 15.1 7.65 15.55 Q8.2 17.6 6.75 18.85 4.55 20.2 2.6 17.8 1.45 15.6 3.4 14.65 L3.0 15.55 Q3.0 16.2 3.15 16.55 L4.0 17.7 Q4.65 18.3 5.15 18.2 L6.45 17.6 Q7.1 17.0 7.2 16.15 7.05 15.35 6.75 15.05 L6.1 14.75 5.55 15.0 Q5.45 15.35 5.7 15.6 6.1 16.2 6.45 16.25 L6.0 16.3 Q5.2 16.3 4.75 15.65 4.1 14.85 4.35 14.25 4.5 13.75 5.15 13.6 L6.0 13.7 6.0 13.65 6.55 13.95 Q6.5 13.0 7.15 12.55 L8.2 12.45 8.2 11.75 7.7 11.0 Q7.3 12.05 6.4 11.75 L6.8 11.55 7.1 11.15 7.2 10.5 7.0 9.95 6.35 9.7 5.65 9.95 5.55 10.05 5.55 10.8 5.8 10.9 5.95 10.65 5.8 10.15 6.05 10.3 Q6.35 10.5 6.25 10.95 L5.95 11.55 5.45 11.5 5.4 11.45 5.35 11.6 5.2 11.75 Q4.1 13.55 2.25 13.45 -0.25 12.75 0.05 9.8 0.8 7.35 2.85 8.1 L1.95 8.5 Q1.45 8.85 1.3 9.3 L1.1 10.65 Q1.2 11.65 1.55 11.85 2.25 12.3 2.9 12.35 3.85 12.4 4.4 11.85 L4.95 10.75 4.7 10.1 4.1 9.85 Q3.8 10.0 3.8 10.4 3.7 11.1 3.9 11.35 L3.55 11.1 Q2.95 10.55 3.1 9.8 3.25 8.8 3.8 8.5 L4.8 8.6 5.35 9.3 5.35 9.2 5.5 9.65 Q5.95 9.1 6.65 9.2 7.55 9.45 7.7 10.3 L8.2 9.5 8.2 9.0 8.15 9.0 Q7.05 9.4 6.75 8.4 L7.15 8.6 7.65 8.6 8.2 8.3 8.2 8.0 8.5 8.0 8.5 7.8 8.3 7.15 7.7 6.7 7.6 6.85 7.55 6.85 7.25 7.2 7.0 7.4 7.35 7.4 7.65 7.0 7.7 7.25 7.25 7.8 6.6 7.95 6.45 7.8 6.0 7.9 Q3.9 8.35 2.7 7.0 1.4 4.85 3.75 2.85 6.0 1.75 6.95 3.65 L6.0 3.25 5.05 3.4 3.9 4.25 Q3.3 4.95 3.35 5.4 L3.95 6.7 Q4.65 7.4 5.4 7.45 L6.45 7.1 6.6 6.85 6.7 6.8 6.8 6.35 6.6 5.8 6.0 5.95 Q5.35 6.45 5.35 6.8 L5.3 6.25 Q5.25 5.5 5.95 5.0 6.7 4.4 7.35 4.6 7.85 4.75 8.0 5.4 L7.85 6.25 7.9 6.2 7.85 6.45 Q8.45 6.45 8.9 7.05 9.15 7.6 9.0 8.0 L10.1 8.0 10.4 7.7 Q9.5 7.25 9.8 6.45 L10.0 6.85 10.4 7.15 10.85 7.25 10.95 7.1 11.15 7.25 11.6 7.05 11.85 6.4 11.6 5.7 11.4 5.55 10.75 5.55 10.65 5.85 10.9 6.0 11.4 5.9 11.25 6.1 10.6 6.3 Q10.15 6.25 10.0 6.0 9.9 5.7 10.05 5.5 L10.15 5.4 9.95 5.3 9.8 5.15 Q8.05 4.1 8.15 2.25 8.75 -0.25 11.8 0.05 14.25 0.8 13.5 2.85 L13.1 1.95 12.3 1.3 10.9 1.1 M13.7 10.75 L12.95 10.0 12.95 8.75 11.9 8.75 11.05 8.05 10.3 8.75 8.95 8.75 8.95 9.75 8.25 10.5 8.95 11.45 8.95 12.8 10.1 12.8 10.95 13.6 11.8 12.8 12.95 12.8 12.95 11.7 13.7 10.75" fill="#ececec" fill-rule="evenodd" stroke="none"/>
    </g>
  </defs>
</svg>
