<?xml version="1.0" encoding="UTF-8" standalone="no"?>
<svg xmlns:xlink="http://www.w3.org/1999/xlink" height="40.05px" width="40.05px" xmlns="http://www.w3.org/2000/svg">
  <g transform="matrix(1.0, 0.0, 0.0, 1.0, 0.15, 0.1)">
    <path d="M39.9 39.95 L-0.15 39.95 -0.15 -0.1 39.9 -0.1 39.9 39.95" fill="#ffffff" fill-rule="evenodd" stroke="none"/>
    <path d="M19.8 19.45 L1.75 1.9 19.8 19.45 37.75 2.0 19.8 19.45 38.45 37.7 38.55 37.8 38.55 38.0 38.55 37.8 38.45 37.7 19.8 19.45 M1.75 36.9 L1.75 1.9 1.75 1.5 1.75 1.0 38.75 1.0 38.75 38.0 38.55 38.0 1.75 38.0 1.75 37.8 1.75 37.1 1.75 36.9 M1.75 37.8 L19.9 20.35 1.75 37.8 M38.45 37.7 L38.45 1.5 1.75 1.5 38.45 1.5 38.45 37.7" fill="#ffffff" fill-rule="evenodd" stroke="none"/>
    <path d="M19.8 19.45 L37.75 2.0 M1.75 37.1 L1.75 36.9 M19.9 20.35 L1.75 37.8" fill="none" stroke="#3a1d46" stroke-linecap="round" stroke-linejoin="round" stroke-width="0.75"/>
    <path d="M1.75 1.9 L19.8 19.45 M1.75 1.5 L1.55 1.5 1.55 38.5 38.55 38.5 38.55 38.0 38.55 37.8 38.45 37.7 19.8 19.45 M1.75 1.5 L38.45 1.5 38.45 37.7" fill="none" stroke="#3a1d46" stroke-linecap="round" stroke-linejoin="round" stroke-width="1.0"/>
    <path d="M31.0 8.9 Q35.45 13.35 35.55 19.65 L35.55 19.8 Q35.5 25.9 31.35 30.3 L31.0 30.65 Q26.55 35.1 20.3 35.15 L20.15 35.15 Q13.8 35.15 9.3 30.65 L9.05 30.4 Q4.8 25.95 4.8 19.8 4.75 13.45 9.25 8.95 L9.3 8.9 Q13.8 4.4 20.15 4.4 L20.45 4.4 Q26.5 4.5 30.85 8.75 L31.0 8.9" fill="#ffffff" fill-rule="evenodd" stroke="none"/>
    <path d="M37.85 19.65 L35.55 19.65 37.85 19.65 37.85 20.05 Q37.85 27.0 33.2 32.1 L31.35 30.3 33.2 32.1 32.6 32.75 Q27.45 37.85 20.3 38.05 L19.9 38.05 Q12.45 38.05 7.2 32.75 L7.0 32.55 Q1.9 27.35 1.9 20.05 L1.9 19.8 Q2.0 12.55 7.2 7.35 L7.4 7.15 9.15 8.85 7.4 7.15 Q12.6 2.05 19.9 2.1 L20.45 2.1 Q27.3 2.3 32.3 7.1 L32.6 7.35 Q37.7 12.5 37.85 19.65 M30.85 8.75 L32.3 7.1 30.85 8.75 Q27.55 5.55 23.3 4.75 L20.45 4.4 20.3 4.4 20.25 4.4 20.15 4.4 19.95 4.4 16.95 4.7 Q12.6 5.55 9.3 8.9 L9.25 8.95 9.15 8.85 9.25 8.95 Q4.75 13.45 4.8 19.8 L4.6 19.8 1.9 19.8 4.6 19.8 Q4.55 13.45 9.05 8.95 L9.1 8.9 9.15 8.85 Q12.5 5.5 16.95 4.7 12.5 5.5 9.15 8.85 L9.1 8.9 9.05 8.95 Q4.55 13.45 4.6 19.8 L4.8 19.8 Q4.8 25.95 9.05 30.4 L8.95 30.5 9.05 30.4 9.3 30.65 Q12.6 33.95 16.95 34.85 L19.95 35.15 20.1 35.15 20.15 35.15 20.3 35.15 20.3 38.05 20.3 35.15 23.25 34.85 Q27.65 34.0 31.0 30.65 L31.35 30.3 Q35.5 25.9 35.55 19.8 L35.55 19.65 Q35.45 13.35 31.0 8.9 L30.85 8.75 M8.95 30.5 L8.85 30.4 Q4.6 25.95 4.6 19.8 4.6 25.95 8.85 30.4 L8.95 30.5 9.1 30.65 Q12.5 34.05 16.95 34.85 12.5 34.05 9.1 30.65 L8.95 30.5 7.0 32.55 8.95 30.5 M20.45 2.1 L20.45 4.4 20.45 2.1" fill="#ffffff" fill-rule="evenodd" stroke="none"/>
    <path d="M37.85 19.65 Q37.7 12.5 32.6 7.35 L32.3 7.1 M33.2 32.1 Q37.85 27.0 37.85 20.05 L37.85 19.65 M7.4 7.15 L7.2 7.35 Q2.0 12.55 1.9 19.8 M33.2 32.1 L32.6 32.75 Q27.45 37.85 20.3 38.05 L19.9 38.05 Q12.45 38.05 7.2 32.75 L7.0 32.55 Q1.9 27.35 1.9 20.05 L1.9 19.8 M7.4 7.15 Q12.6 2.05 19.9 2.1 L20.45 2.1 Q27.3 2.3 32.3 7.1" fill="none" stroke="#3a1d46" stroke-linecap="round" stroke-linejoin="round" stroke-width="1.0"/>
    <path d="M23.3 4.75 Q27.45 5.6 30.65 8.75 L30.8 8.9 Q35.25 13.35 35.35 19.65 L35.35 19.8 Q35.3 25.9 31.15 30.3 L30.8 30.65 Q27.5 33.9 23.25 34.85 M16.95 4.7 Q12.5 5.5 9.15 8.85 M4.6 19.8 Q4.55 13.45 9.05 8.95 L9.1 8.9 9.15 8.85 M4.6 19.8 Q4.6 25.95 8.85 30.4 L8.95 30.5 M23.3 4.75 L20.45 4.4 20.3 4.4 20.25 4.4 20.15 4.4 19.95 4.4 16.95 4.7 M20.3 35.15 L20.15 35.15 20.1 35.15 19.95 35.15 16.95 34.85 Q12.5 34.05 9.1 30.65 L8.95 30.5 M20.3 35.15 L23.25 34.85" fill="none" stroke="#3a1d46" stroke-linecap="round" stroke-linejoin="round" stroke-width="0.75"/>
    <path d="M35.55 19.65 L37.85 19.65 M32.3 7.1 L30.85 8.75 M31.35 30.3 L33.2 32.1 M9.15 8.85 L9.25 8.95 M9.15 8.85 L7.4 7.15 M1.9 19.8 L4.6 19.8 M4.8 19.8 L4.6 19.8 M8.95 30.5 L9.05 30.4 M20.45 4.4 L20.45 2.1 M8.95 30.5 L7.0 32.55 M20.3 35.15 L20.3 38.05" fill="none" stroke="#3a1d46" stroke-linecap="round" stroke-linejoin="round" stroke-width="0.75"/>
    <path d="M23.05 16.65 L24.1 15.6 24.3 16.95 25.65 17.45 24.55 18.15 24.7 19.5 23.45 18.35 21.4 18.8 22.55 17.7 21.7 16.4 23.05 16.65 M29.45 15.95 L26.95 17.2 28.1 15.4 26.6 14.05 28.4 13.9 29.4 12.2 30.1 13.9 32.05 14.05 30.8 15.35 31.45 17.05 29.45 15.95 M22.6 7.95 L21.45 10.5 23.5 12.55 19.7 12.1 16.5 15.25 17.25 12.05 14.05 10.9 16.8 9.7 17.3 6.75 19.5 8.75 22.6 7.95 M11.25 32.1 L11.45 30.45 Q12.0 27.9 13.9 25.95 L12.75 23.4 Q12.05 21.8 13.05 20.45 L13.35 20.05 Q14.15 19.1 15.0 19.55 15.4 19.75 15.7 20.05 L16.45 21.05 Q17.0 22.1 17.0 23.55 L17.0 23.8 Q18.7 23.05 20.75 23.05 23.05 23.05 25.0 24.0 L24.95 23.55 Q24.95 22.25 25.45 21.25 L26.25 20.05 26.6 19.8 Q27.1 19.5 27.7 20.05 L28.2 20.7 Q29.05 22.0 28.7 23.45 L27.85 25.75 27.7 26.05 28.8 27.4 Q29.75 28.9 30.1 30.7 26.2 34.5 20.9 34.85 L19.9 34.85 Q15.0 34.85 11.25 32.1" fill="#3a1d46" fill-rule="evenodd" stroke="none"/>
    <path d="M30.1 30.7 Q26.2 34.5 20.9 34.85 L19.9 34.85 Q15.0 34.85 11.25 32.1" fill="none" stroke="#3a1d46" stroke-linecap="round" stroke-linejoin="round" stroke-width="1.0"/>
  </g>
</svg>
