<?xml version="1.0" encoding="UTF-8" standalone="no"?>
<svg xmlns:xlink="http://www.w3.org/1999/xlink" height="157.1px" width="161.65px" xmlns="http://www.w3.org/2000/svg">
  <g transform="matrix(1.0, 0.0, 0.0, 1.0, -56.5, -56.7)">
    <path d="M205.6 75.8 L202.5 79.55 204.65 79.35 207.1 82.15 209.85 91.25 Q211.0 92.25 211.95 93.2 L213.9 92.55 215.4 94.2 217.2 100.9 217.2 103.5 Q217.65 110.35 216.7 112.95 L214.4 113.6 217.65 115.4 216.7 122.05 214.75 122.85 215.7 125.15 Q213.9 129.7 209.85 130.85 L204.95 131.35 203.5 131.5 Q203.0 131.85 202.85 132.3 L202.2 133.3 Q197.95 139.8 193.05 138.85 191.25 138.5 190.15 137.85 188.35 136.7 187.35 134.95 L182.3 134.75 181.8 134.75 181.8 134.95 181.8 135.6 Q181.0 139.15 178.9 140.95 177.6 141.95 176.1 142.45 L172.35 142.25 172.2 142.25 Q172.05 146.5 170.4 147.3 169.45 147.95 168.6 147.95 167.5 147.95 166.85 147.0 164.2 149.45 161.95 149.9 L159.35 149.6 Q155.9 148.6 155.75 144.4 L155.75 144.2 154.1 143.9 Q153.95 144.05 153.95 144.4 L153.3 146.35 152.8 146.65 150.85 148.3 151.05 149.1 152.15 148.95 Q153.45 149.1 154.45 149.9 L155.1 150.75 Q156.25 153.0 155.1 156.1 L155.9 156.95 Q157.85 159.2 160.8 159.2 163.9 159.05 168.3 155.95 L168.45 156.75 Q168.45 158.7 165.35 162.3 161.95 165.9 156.9 166.7 L154.45 166.7 Q148.1 165.9 144.0 162.8 L141.75 162.45 139.8 162.0 133.25 182.85 Q132.95 184.3 132.8 186.1 L136.5 189.85 Q137.5 193.6 135.4 197.0 L134.55 198.0 Q130.8 203.2 124.3 206.3 L124.15 206.3 Q124.15 206.65 124.0 206.3 L120.9 210.2 116.15 210.2 115.5 210.2 Q115.35 210.2 115.35 210.35 L114.85 211.05 113.05 212.5 Q112.4 212.5 111.9 212.8 110.15 213.3 108.65 212.8 108.15 212.65 108.0 212.5 107.2 212.0 106.85 211.05 L106.4 211.05 Q103.95 211.5 101.8 213.3 L101.65 213.3 93.2 211.85 90.1 207.45 Q80.3 198.3 82.1 186.1 L84.4 181.35 88.3 179.9 88.45 179.6 88.8 179.25 94.5 165.1 Q95.8 160.2 96.3 154.65 L96.3 154.5 96.1 154.5 87.0 150.55 Q70.55 143.25 57.0 132.5 L57.65 130.55 64.5 116.85 Q65.95 114.4 67.75 112.3 L67.75 112.1 67.1 111.45 Q64.85 108.85 62.2 106.4 L63.35 102.65 Q66.3 102.65 69.05 103.5 L73.65 105.45 73.8 105.45 Q75.25 103.5 77.2 101.7 L89.6 100.25 107.5 99.1 113.2 98.9 Q118.1 99.1 122.85 98.9 L122.85 98.75 Q122.85 96.15 124.65 94.5 127.4 93.55 130.35 95.5 L135.55 94.05 Q135.2 93.05 135.55 92.25 135.85 91.45 136.7 90.75 L138.0 89.95 Q140.6 89.15 143.05 90.3 L144.35 90.95 145.65 91.9 Q148.4 90.75 151.2 89.95 151.2 89.8 151.35 89.8 L151.35 89.15 151.35 89.0 151.35 88.5 151.5 88.35 151.5 88.15 Q152.0 81.65 156.75 80.65 L158.5 80.5 Q162.75 80.2 165.7 82.15 L172.35 79.7 Q174.8 75.6 175.45 69.45 L175.45 65.35 Q175.65 63.25 174.8 60.8 174.35 59.0 173.5 57.2 L173.65 57.35 Q175.95 58.5 177.25 60.0 L177.6 60.15 177.75 60.65 Q179.55 62.6 180.85 65.05 L182.3 68.15 182.8 69.45 182.8 69.6 Q185.55 70.1 188.35 72.35 L189.5 73.35 Q191.9 72.05 194.55 70.9 197.8 69.25 201.35 70.4 L205.6 75.8" fill="#3a0203" fill-rule="evenodd" stroke="none"/>
    <path d="M205.6 75.8 L202.5 79.55 204.65 79.35 207.1 82.15 209.85 91.25 Q211.0 92.25 211.95 93.2 L213.9 92.55 215.4 94.2 217.2 100.9 217.2 103.5 Q217.65 110.35 216.7 112.95 L214.4 113.6 217.65 115.4 216.7 122.05 214.75 122.85 215.7 125.15 Q213.9 129.7 209.85 130.85 L204.95 131.35 203.5 131.5 Q203.0 131.85 202.85 132.3 L202.2 133.3 Q197.95 139.8 193.05 138.85 191.25 138.5 190.15 137.85 188.35 136.7 187.35 134.95 L182.3 134.75 181.8 134.75 181.8 134.95 181.8 135.6 Q181.0 139.15 178.9 140.95 177.6 141.95 176.1 142.45 L172.35 142.25 172.2 142.25 Q172.05 146.5 170.4 147.3 169.45 147.95 168.6 147.95 167.5 147.95 166.85 147.0 164.2 149.45 161.95 149.9 L159.35 149.6 Q155.9 148.6 155.75 144.4 L155.75 144.2 154.1 143.9 Q153.95 144.05 153.95 144.4 L153.3 146.35 152.8 146.65 150.85 148.3 151.05 149.1 152.15 148.95 Q153.45 149.1 154.45 149.9 L155.1 150.75 Q156.25 153.0 155.1 156.1 L155.9 156.95 Q157.85 159.2 160.8 159.2 163.9 159.05 168.3 155.95 L168.45 156.75 Q168.45 158.7 165.35 162.3 161.95 165.9 156.9 166.7 L154.45 166.7 Q148.1 165.9 144.0 162.8 L141.75 162.45 139.8 162.0 133.25 182.85 Q132.95 184.3 132.8 186.1 L136.5 189.85 Q137.5 193.6 135.4 197.0 L134.55 198.0 Q130.8 203.2 124.3 206.3 L124.15 206.3 Q124.15 206.65 124.0 206.3 L120.9 210.2 116.15 210.2 115.5 210.2 Q115.35 210.2 115.35 210.35 L114.85 211.05 113.05 212.5 Q112.4 212.5 111.9 212.8 110.15 213.3 108.65 212.8 108.15 212.65 108.0 212.5 107.2 212.0 106.85 211.05 L106.4 211.05 Q103.95 211.5 101.8 213.3 L101.65 213.3 93.2 211.85 90.1 207.45 Q80.3 198.3 82.1 186.1 L84.4 181.35 88.3 179.9 88.45 179.6 88.8 179.25 94.5 165.1 Q95.8 160.2 96.3 154.65 L96.3 154.5 96.1 154.5 87.0 150.55 Q70.55 143.25 57.0 132.5 L57.65 130.55 64.5 116.85 Q65.95 114.4 67.75 112.3 L67.75 112.1 67.1 111.45 Q64.85 108.85 62.2 106.4 L63.35 102.65 Q66.3 102.65 69.05 103.5 L73.65 105.45 73.8 105.45 Q75.25 103.5 77.2 101.7 L89.6 100.25 107.5 99.1 113.2 98.9 Q118.1 99.1 122.85 98.9 L122.85 98.75 Q122.85 96.15 124.65 94.5 127.4 93.55 130.35 95.5 L135.55 94.05 Q135.2 93.05 135.55 92.25 135.85 91.45 136.7 90.75 L138.0 89.95 Q140.6 89.15 143.05 90.3 L144.35 90.95 145.65 91.9 Q148.4 90.75 151.2 89.95 151.2 89.8 151.35 89.8 L151.35 89.15 151.35 89.0 151.35 88.5 151.5 88.35 151.5 88.15 Q152.0 81.65 156.75 80.65 L158.5 80.5 Q162.75 80.2 165.7 82.15 L172.35 79.7 Q174.8 75.6 175.45 69.45 L175.45 65.35 Q175.65 63.25 174.8 60.8 174.35 59.0 173.5 57.2 L173.65 57.35 Q175.95 58.5 177.25 60.0 L177.6 60.15 177.75 60.65 Q179.55 62.6 180.85 65.05 L182.3 68.15 182.8 69.45 182.8 69.6 Q185.55 70.1 188.35 72.35 L189.5 73.35 Q191.9 72.05 194.55 70.9 197.8 69.25 201.35 70.4 L205.6 75.8 Z" fill="none" stroke="#999999" stroke-linecap="round" stroke-linejoin="round" stroke-width="1.0"/>
  </g>
</svg>
