<?xml version="1.0" encoding="UTF-8" standalone="no"?>
<svg xmlns:xlink="http://www.w3.org/1999/xlink" height="24.45px" width="19.5px" xmlns="http://www.w3.org/2000/svg">
  <g transform="matrix(1.0, 0.0, 0.0, 1.0, -10.0, -7.6)">
    <path d="M23.95 14.65 L25.25 15.65 26.3 15.65 29.5 19.65 29.5 20.95 28.6 25.2 26.3 29.4 25.55 32.05 23.75 32.05 22.5 30.75 23.35 27.55 25.0 27.35 25.9 25.75 25.9 21.45 25.7 21.45 25.7 22.0 24.15 23.25 24.15 26.95 19.65 27.5 15.1 26.95 15.1 23.25 13.65 22.1 13.65 25.75 14.5 27.35 16.15 27.55 17.05 30.75 15.8 32.05 13.95 32.05 13.25 29.4 10.95 25.2 10.0 20.95 10.0 19.65 13.2 15.65 14.0 15.65 15.35 14.65 16.6 14.4 Q16.45 13.95 16.45 13.35 16.45 11.85 17.4 10.8 18.35 9.8 19.65 9.8 20.9 9.8 21.9 10.8 22.8 11.85 22.8 13.35 L22.65 14.4 23.95 14.65 M14.9 10.8 Q19.75 4.25 24.6 11.2 19.8 7.7 14.9 10.8" fill="#313131" fill-rule="evenodd" stroke="none"/>
  </g>
</svg>
