<?xml version="1.0" encoding="UTF-8" standalone="no"?>
<svg xmlns:xlink="http://www.w3.org/1999/xlink" height="21.05px" width="24.6px" xmlns="http://www.w3.org/2000/svg">
  <g transform="matrix(1.0, 0.0, 0.0, 1.0, -8.2, -7.45)">
    <path d="M30.0 21.3 L30.95 21.2 31.05 21.95 31.85 22.15 31.5 23.15 30.85 23.0 29.75 24.0 31.3 24.45 32.25 23.95 32.8 24.6 32.2 25.25 32.45 26.05 31.6 26.45 31.2 25.55 29.45 25.1 30.0 26.85 30.95 27.1 30.7 28.05 29.65 27.75 29.2 28.5 28.45 28.1 28.9 27.05 28.5 25.3 27.5 26.45 27.65 27.45 26.75 27.75 26.45 26.9 25.45 26.6 25.9 25.8 26.5 25.9 27.8 24.75 26.15 24.3 25.45 24.95 24.6 24.2 25.3 23.6 24.95 22.55 26.0 22.25 26.4 23.15 28.1 23.65 27.4 22.0 26.55 21.75 27.0 20.75 27.8 21.0 28.45 20.45 29.2 21.2 28.55 21.75 29.05 23.35 29.95 22.4 30.0 21.3 M24.3 22.65 L21.75 22.75 21.8 25.85 22.85 25.85 22.9 28.35 17.95 28.5 17.9 26.05 18.9 26.0 18.9 22.9 16.4 22.9 16.15 18.75 17.1 18.7 17.35 21.15 18.35 21.1 16.9 11.0 20.15 7.45 23.85 11.05 22.35 21.0 23.35 20.9 23.5 18.4 24.45 18.4 24.3 22.65 M15.45 22.15 L15.15 23.15 14.45 23.0 13.4 24.0 14.95 24.45 15.85 23.95 16.45 24.6 15.85 25.25 16.05 26.05 15.25 26.45 14.85 25.55 13.05 25.1 13.65 26.85 14.6 27.1 14.35 28.05 13.25 27.75 12.8 28.5 12.1 28.1 12.5 27.05 12.15 25.3 11.15 26.45 11.25 27.45 10.35 27.75 10.05 26.9 9.05 26.6 9.5 25.8 10.15 25.9 11.4 24.75 9.75 24.3 9.05 24.95 8.2 24.2 8.95 23.6 8.6 22.55 9.65 22.25 10.0 23.15 11.7 23.65 11.0 22.0 10.2 21.75 10.6 20.75 11.4 21.0 12.1 20.45 12.8 21.2 12.15 21.75 12.7 23.35 13.6 22.4 13.65 21.3 14.6 21.2 14.65 21.95 15.45 22.15 M19.25 21.2 L20.55 21.2 20.35 9.1 17.9 11.65 19.25 21.2" fill="#313131" fill-rule="evenodd" stroke="none"/>
  </g>
</svg>
