<?xml version="1.0" encoding="UTF-8" standalone="no"?>
<svg xmlns:xlink="http://www.w3.org/1999/xlink" height="22.0px" width="19.75px" xmlns="http://www.w3.org/2000/svg">
  <g transform="matrix(1.0, 0.0, 0.0, 1.0, -10.5, -9.45)">
    <path d="M28.45 23.15 L29.3 23.75 27.95 26.6 25.65 25.6 25.65 29.0 Q20.7 30.6 15.35 29.0 L15.35 25.6 12.8 26.4 11.6 23.75 12.4 23.25 Q10.5 21.0 10.5 18.1 10.5 15.1 12.55 12.8 L12.8 12.55 13.35 12.0 Q16.25 9.45 20.35 9.45 24.5 9.45 27.35 12.0 L28.0 12.55 Q30.25 14.95 30.25 18.1 30.25 20.95 28.45 23.15 M27.0 19.0 Q23.85 21.05 22.4 21.4 22.6 22.7 23.35 23.15 L25.1 22.9 Q27.3 22.0 27.0 19.0 M18.05 23.15 Q18.8 22.7 19.0 21.4 17.55 21.05 14.4 19.0 14.1 22.0 16.3 22.9 L18.05 23.15 M21.5 26.05 L20.55 23.8 19.35 26.05 21.5 26.05" fill="#372d2d" fill-rule="evenodd" stroke="none"/>
    <path d="M21.85 28.75 L21.85 31.45 19.15 31.45 19.15 28.75 21.85 28.75" fill="#372d2d" fill-rule="evenodd" stroke="none"/>
    <path d="M24.7 28.1 L25.4 30.75 22.75 31.45 22.05 28.8 24.7 28.1" fill="#372d2d" fill-rule="evenodd" stroke="none"/>
    <path d="M19.05 28.5 L18.35 31.15 15.7 30.45 16.4 27.8 19.05 28.5" fill="#372d2d" fill-rule="evenodd" stroke="none"/>
  </g>
</svg>
