<?xml version="1.0" encoding="UTF-8" standalone="no"?>
<svg xmlns:xlink="http://www.w3.org/1999/xlink" height="22.3px" width="26.3px" xmlns="http://www.w3.org/2000/svg">
  <g transform="matrix(1.0, 0.0, 0.0, 1.0, -8.25, -9.15)">
    <path d="M27.9 10.85 Q27.25 11.15 27.15 11.55 27.05 12.0 27.4 12.65 27.95 13.45 27.0 14.3 26.25 14.8 26.35 15.4 L26.5 16.05" fill="none" stroke="#372d2d" stroke-linecap="round" stroke-linejoin="round" stroke-width="1.0"/>
    <path d="M19.6 10.6 Q19.2 11.15 19.3 11.55 L20.05 12.45 Q20.9 12.85 20.5 14.05 20.1 14.85 20.5 15.3 L21.0 15.8" fill="none" stroke="#372d2d" stroke-linecap="round" stroke-linejoin="round" stroke-width="1.0"/>
    <path d="M15.5 12.6 L16.5 12.8 Q17.15 13.0 16.95 13.8 L17.3 13.95 18.0 14.45 Q18.5 14.9 18.05 15.85 18.65 16.15 18.7 17.1 18.75 17.8 17.85 18.6 L16.3 19.55 Q15.8 19.7 15.6 19.35 14.8 19.55 14.45 19.85 L12.9 19.6 Q12.7 19.95 13.1 20.6 L13.65 21.45 14.5 22.5 16.95 25.1 17.5 25.1 Q17.35 24.8 18.15 22.85 19.0 20.7 20.95 19.85 L23.35 18.65 27.2 19.0 Q29.45 17.75 30.85 17.15 32.25 16.55 32.95 16.8 L34.3 16.85 Q34.9 23.15 34.0 25.55 33.05 27.9 30.95 30.0 L28.3 27.65 Q27.9 27.3 27.05 27.1 L26.25 26.9 21.6 29.75 Q21.15 29.8 19.45 30.45 L17.55 31.25 15.7 31.45 13.45 31.1 Q12.7 30.75 11.5 28.9 10.3 27.05 9.8 25.5 L8.95 22.5 Q8.6 21.1 8.4 19.6 8.15 18.1 8.3 17.65 8.65 15.8 11.95 12.5 12.5 12.0 13.25 11.85 L14.7 11.85 Q15.75 11.9 15.5 12.6" fill="#382d2d" fill-rule="evenodd" stroke="none"/>
    <path d="M23.7 9.65 Q23.15 10.1 23.2 10.5 23.2 11.0 23.65 11.55 24.4 12.15 23.7 13.25 23.1 13.85 23.4 14.45 L23.7 15.05" fill="none" stroke="#372d2d" stroke-linecap="round" stroke-linejoin="round" stroke-width="1.0"/>
  </g>
</svg>
