<?xml version="1.0" encoding="UTF-8" standalone="no"?>
<svg xmlns:xlink="http://www.w3.org/1999/xlink" height="24.75px" width="28.5px" xmlns="http://www.w3.org/2000/svg">
  <g transform="matrix(1.0, 0.0, 0.0, 1.0, -8.15, -5.2)">
    <path d="M21.8 5.7 Q23.2 8.65 25.0 9.15 26.65 9.55 28.25 6.85 27.6 8.75 29.85 13.25 31.75 17.05 36.15 17.8 32.05 18.55 30.65 21.0 29.8 22.5 31.9 25.55 26.65 22.05 26.7 27.5 25.85 25.35 23.45 24.9 26.4 24.9 28.55 22.7 30.75 20.6 30.75 17.55 30.75 14.55 28.55 12.35 26.4 10.2 23.4 10.2 20.4 10.2 18.2 12.35 16.55 14.05 16.2 16.2 16.35 14.35 15.8 13.35 17.7 12.75 14.5 9.35 16.6 10.45 19.75 10.05 21.75 9.75 21.8 5.7 M23.1 24.9 L22.65 28.4 Q20.95 30.3 19.5 29.9 18.0 29.5 16.45 27.7 14.9 25.8 13.55 26.25 9.45 25.0 8.15 22.4 L8.15 18.55 Q8.9 16.5 10.1 17.5 10.15 19.3 11.35 20.7 L16.55 21.55 Q18.85 20.6 19.8 20.7 L24.7 13.55 Q27.35 17.75 27.0 21.55 L23.15 24.25 23.1 24.85 23.1 24.9" fill="#313131" fill-rule="evenodd" stroke="none"/>
    <path d="M21.8 5.7 Q21.75 9.75 19.75 10.05 16.6 10.45 14.5 9.35 17.7 12.75 15.8 13.35 16.35 14.35 16.2 16.2 16.55 14.05 18.2 12.35 20.4 10.2 23.4 10.2 26.4 10.2 28.55 12.35 30.75 14.55 30.75 17.55 30.75 20.6 28.55 22.7 26.4 24.9 23.45 24.9 25.85 25.35 26.7 27.5 26.65 22.05 31.9 25.55 29.8 22.5 30.65 21.0 32.05 18.55 36.15 17.8 31.75 17.05 29.85 13.25 27.6 8.75 28.25 6.85 26.65 9.55 25.0 9.15 23.2 8.65 21.8 5.7 M16.15 18.65 L16.05 17.55 16.1 17.1 16.2 16.2 M23.1 24.85 L23.45 24.9 23.4 24.9 23.1 24.9" fill="none" stroke="#313131" stroke-linecap="round" stroke-linejoin="round" stroke-width="1.0"/>
  </g>
</svg>
