<?xml version="1.0" encoding="UTF-8" standalone="no"?>
<svg xmlns:xlink="http://www.w3.org/1999/xlink" height="26.55px" width="25.0px" xmlns="http://www.w3.org/2000/svg">
  <g transform="matrix(1.0, 0.0, 0.0, 1.0, -9.4, -8.4)">
    <path d="M11.2 23.95 L11.35 24.15 Q16.8 32.7 20.9 22.0 L19.6 20.55 Q15.45 18.6 10.9 17.55 L11.2 23.95 M13.65 11.45 L13.5 11.55 13.5 11.6 13.4 11.75 10.9 17.45 15.2 18.1 19.8 18.35 20.25 18.35 21.7 17.3 Q20.4 5.95 13.55 11.55 L13.65 11.45 M13.05 8.9 L13.55 10.55 Q13.9 10.25 14.25 10.05 21.55 4.2 24.55 19.0 L27.35 21.4 24.25 22.05 Q17.35 35.35 10.8 24.6 L9.4 25.8 10.4 23.85 10.05 17.4 10.05 17.15 12.95 10.95 13.05 8.9 M29.4 24.9 Q31.0 24.35 31.55 22.25 33.4 19.0 33.05 15.45 34.6 18.3 34.35 21.9 34.25 27.4 30.3 31.2 26.15 35.0 20.6 34.95 18.2 34.9 14.85 32.75 24.25 32.2 26.45 24.95 L29.4 24.9" fill="#313131" fill-rule="evenodd" stroke="none"/>
  </g>
</svg>
