<?xml version="1.0" encoding="UTF-8" standalone="no"?>
<svg xmlns:xlink="http://www.w3.org/1999/xlink" height="25.1px" width="22.3px" xmlns="http://www.w3.org/2000/svg">
  <g transform="matrix(1.0, 0.0, 0.0, 1.0, -8.85, -8.65)">
    <path d="M18.8 19.75 L18.6 20.35 18.8 20.95 19.5 22.0 19.45 21.95 19.8 22.4 Q20.55 23.95 20.9 25.5 L21.0 25.75 21.15 25.95 21.35 26.15 21.55 26.2 22.0 26.25 22.9 25.95 24.5 27.55 Q22.0 30.1 20.25 33.75 17.8 27.7 12.15 24.7 6.4 21.65 10.6 15.75 14.8 9.85 20.25 15.8 23.6 12.1 26.4 12.9 28.05 13.4 29.5 15.5 33.35 21.2 28.3 24.4 L26.9 25.4 25.2 23.7 25.45 22.85 25.5 22.3 25.25 21.9 24.75 21.65 Q23.1 21.35 21.65 20.55 L21.6 20.55 21.15 20.25 21.25 20.35 20.0 19.55 19.65 19.45 19.4 19.45 19.1 19.55 Q18.9 19.6 18.8 19.75 M26.6 11.85 Q20.65 8.5 12.8 11.9 19.9 5.4 26.65 11.85 L26.6 11.85 M20.3 21.5 L20.3 21.45 19.5 20.35 20.7 21.1 21.15 21.35 Q22.75 22.2 24.6 22.55 L24.1 23.95 31.05 30.85 30.05 31.85 23.15 24.9 21.8 25.3 Q21.4 23.55 20.6 21.9 L20.3 21.5" fill="#313131" fill-rule="evenodd" stroke="none"/>
  </g>
</svg>
