<?xml version="1.0" encoding="UTF-8" standalone="no"?>
<svg xmlns:xlink="http://www.w3.org/1999/xlink" height="40.0px" width="40.0px" xmlns="http://www.w3.org/2000/svg">
  <g transform="matrix(1.0, 0.0, 0.0, 1.0, 0.0, 0.0)">
    <path d="M40.0 0.0 L40.0 40.0 0.0 40.0 0.0 0.0 40.0 0.0" fill="#793337" fill-rule="evenodd" stroke="none"/>
    <path d="M1.85 38.05 L1.85 1.05 38.85 1.05 38.85 38.05 1.85 38.05" fill="#1f1f1d" fill-rule="evenodd" stroke="none"/>
    <path d="M38.55 37.8 L38.55 38.65 1.65 38.6 1.65 1.6 38.55 1.6 38.55 37.8 24.0 23.35 38.55 37.8" fill="#793337" fill-rule="evenodd" stroke="none"/>
    <path d="M31.45 30.4 L38.55 37.8 38.55 1.6 1.85 1.6 1.65 1.6 1.65 2.0 9.25 8.95 M1.65 2.0 L1.65 38.6 38.55 38.65 38.55 37.8" fill="none" stroke="#ececec" stroke-linecap="round" stroke-linejoin="round" stroke-width="1.5"/>
    <path d="M31.15 9.0 Q35.6 13.45 35.65 19.75 L35.65 19.85 Q35.6 26.0 31.45 30.4 L31.15 30.75 Q26.75 35.2 20.4 35.25 L20.25 35.25 Q13.95 35.25 9.4 30.75 L9.15 30.45 Q4.95 26.05 4.95 19.85 4.85 13.6 9.35 9.05 L9.4 9.0 Q13.95 4.45 20.25 4.45 L20.55 4.45 Q26.65 4.6 30.95 8.85 L31.15 9.0" fill="#1f1f1d" fill-rule="evenodd" stroke="none"/>
    <path d="M17.05 4.8 L15.0 5.4 Q11.95 6.45 9.4 9.0 L9.35 9.05 Q4.85 13.6 4.95 19.85 4.95 26.05 9.15 30.45 L9.4 30.75 Q12.75 34.05 17.05 34.95 L20.05 35.25 20.4 35.25 23.35 34.95 Q27.75 34.15 31.15 30.75 L31.45 30.4 Q35.6 26.0 35.65 19.85 L35.65 19.75 Q35.6 13.45 31.15 9.0 L30.95 8.85 Q27.6 5.65 23.4 4.85 L20.55 4.45 20.05 4.45 17.05 4.8 M37.95 20.15 Q37.95 27.15 33.35 32.2 L32.75 32.85 Q27.6 37.95 20.4 38.15 L20.0 38.15 Q12.55 38.15 7.35 32.85 L7.15 32.65 Q2.0 27.45 2.0 20.15 L2.0 19.85 Q2.15 12.75 7.35 7.45 L7.55 7.25 Q12.8 2.15 20.0 2.2 L20.55 2.2 Q27.4 2.4 32.4 7.2 L32.75 7.45 Q37.85 12.6 37.95 19.75 L37.95 20.15" fill="#1f1f1d" fill-rule="evenodd" stroke="none"/>
    <path d="M37.95 20.15 Q37.95 27.15 33.35 32.2 L32.75 32.85 Q27.6 37.95 20.4 38.15 L20.0 38.15 Q12.55 38.15 7.35 32.85 L7.15 32.65 Q2.0 27.45 2.0 20.15 L2.0 19.85 Q2.15 12.75 7.35 7.45 L7.55 7.25 Q12.8 2.15 20.0 2.2 L20.55 2.2 Q27.4 2.4 32.4 7.2 L32.75 7.45 Q37.85 12.6 37.95 19.75 L37.95 20.15" fill="#793337" fill-rule="evenodd" stroke="none"/>
    <path d="M37.95 20.15 Q37.95 27.15 33.35 32.2 L32.75 32.85 Q27.6 37.95 20.4 38.15 L20.0 38.15 Q12.55 38.15 7.35 32.85 L7.15 32.65 Q2.0 27.45 2.0 20.15 L2.0 19.85 Q2.15 12.75 7.35 7.45 L7.55 7.25 Q12.8 2.15 20.0 2.2 L20.55 2.2 Q27.4 2.4 32.4 7.2 L32.75 7.45 Q37.85 12.6 37.95 19.75 L37.95 20.15 Z" fill="none" stroke="#ececec" stroke-linecap="round" stroke-linejoin="round" stroke-width="1.5"/>
    <path d="M17.05 35.2 Q12.6 34.4 9.2 31.0 L9.05 30.85 8.95 30.75 Q4.75 26.35 4.75 20.15 4.65 13.8 9.15 9.25 L9.2 9.25 9.25 9.2 Q12.45 5.85 17.05 5.05 L20.05 4.75 20.55 4.75 23.4 5.05 Q27.55 5.95 30.75 9.05 L30.95 9.25 Q35.4 13.75 35.45 20.0 L35.45 20.15 Q35.4 26.25 31.25 30.65 L30.95 31.0 Q27.65 34.2 23.35 35.2 L20.4 35.45 20.05 35.45 17.05 35.2 23.35 35.2 23.4 5.05 17.05 5.05 4.75 20.15 9.05 30.85 17.05 35.2" fill="#793337" fill-rule="evenodd" stroke="none"/>
    <path d="M17.05 35.2 Q12.6 34.4 9.2 31.0 L8.95 30.75 Q4.75 26.35 4.75 20.15 4.65 13.8 9.15 9.25 L9.2 9.25 9.25 9.2 Q12.45 5.85 17.05 5.05 L20.05 4.75 20.55 4.75 23.4 5.05 Q27.55 5.95 30.75 9.05 L30.95 9.25 Q35.4 13.75 35.45 20.0 L35.45 20.15 Q35.4 26.25 31.25 30.65 L30.95 31.0 Q27.65 34.2 23.35 35.2 L20.4 35.45 20.05 35.45 17.05 35.2 Z" fill="none" stroke="#ececec" stroke-linecap="round" stroke-linejoin="round" stroke-width="0.9"/>
    <path d="M35.75 19.75 L37.95 19.75 M9.2 8.85 L7.55 7.25 M4.45 19.85 L2.0 19.85 M20.55 4.45 L20.55 2.2 M20.4 35.8 L20.4 38.15 M8.2 31.75 L7.15 32.65 M31.75 30.6 L33.35 32.2 M32.55 7.25 L30.95 8.85" fill="none" stroke="#ececec" stroke-linecap="round" stroke-linejoin="round" stroke-width="1.5"/>
    <path d="M30.95 8.85 L37.85 2.05 M8.8 31.15 L1.85 37.85" fill="none" stroke="#ececec" stroke-linecap="round" stroke-linejoin="round" stroke-width="1.5"/>
    <path d="M25.8 16.85 Q27.15 15.25 29.25 15.25 31.4 15.55 32.6 17.35 33.85 19.35 33.65 22.55 33.4 26.6 31.4 28.85 28.8 31.6 23.35 31.6 L22.65 31.6 22.4 31.55 23.85 31.4 24.8 30.95 Q25.45 30.55 25.55 29.95 25.75 29.05 25.25 28.85 L24.55 28.85 Q24.25 28.85 24.45 29.2 L24.8 29.75 24.4 30.25 23.55 30.15 Q23.0 29.75 23.0 29.05 23.15 28.15 23.55 27.8 24.05 27.25 24.8 27.4 25.55 27.4 26.0 27.85 26.55 28.4 26.4 29.25 26.25 30.25 25.55 30.85 L25.4 31.05 Q27.8 30.4 29.35 29.05 31.0 27.55 31.25 25.2 31.75 21.8 30.45 21.15 L28.6 21.0 Q27.65 21.35 28.25 22.45 29.35 23.15 29.35 24.4 29.35 25.6 28.2 26.55 27.45 27.25 25.8 25.85 24.2 24.25 24.25 21.65 24.4 18.6 25.8 16.85 M18.55 13.0 L18.4 12.95 Q17.55 12.05 17.55 11.05 17.6 9.85 18.4 9.2 19.2 8.4 20.2 8.4 L20.55 8.4 Q21.8 8.4 22.45 9.2 23.25 10.0 23.25 11.05 23.25 12.0 22.55 12.95 L21.8 13.55 21.65 13.55 21.65 13.8 23.65 14.2 23.65 20.25 22.05 20.25 22.05 16.85 21.65 16.85 21.65 25.15 19.2 25.15 19.2 16.85 18.8 16.85 18.8 20.25 17.2 20.25 17.2 14.2 19.2 13.8 19.2 13.55 18.55 13.0 M11.35 15.25 Q13.55 15.25 14.8 16.85 16.2 18.6 16.4 21.65 16.4 24.25 14.8 25.85 13.15 27.25 12.4 26.55 11.25 25.6 11.25 24.4 11.25 23.15 12.35 22.45 12.95 21.35 12.0 21.0 L10.15 21.15 Q8.85 21.8 9.35 25.2 9.6 27.55 11.25 29.05 12.8 30.4 15.2 31.05 L15.05 30.85 Q14.35 30.25 14.2 29.25 14.2 28.25 14.6 27.85 15.05 27.4 15.8 27.4 16.55 27.25 17.05 27.8 17.6 28.2 17.6 29.05 17.6 29.75 17.05 30.15 L16.2 30.25 15.8 29.75 Q15.8 29.4 16.15 29.2 16.35 28.85 16.05 28.85 L15.35 28.85 Q14.85 29.05 15.05 29.95 15.15 30.55 15.8 30.95 L16.75 31.4 18.2 31.55 17.95 31.6 17.25 31.6 Q11.85 31.6 9.2 28.85 7.2 26.6 6.95 22.55 6.75 19.35 8.0 17.35 9.2 15.55 11.35 15.25" fill="#f2f2f2" fill-rule="evenodd" stroke="none"/>
  </g>
</svg>
