<?xml version="1.0" encoding="UTF-8" standalone="no"?>
<svg xmlns:xlink="http://www.w3.org/1999/xlink" height="27.65px" width="27.75px" xmlns="http://www.w3.org/2000/svg">
  <g transform="matrix(1.0, 0.0, 0.0, 1.0, -5.35, -7.2)">
    <path d="M12.2 20.3 L13.15 22.25 13.15 22.3 12.9 22.6 12.1 23.35 10.9 24.55 Q10.15 26.2 11.4 28.25 13.7 29.7 15.4 29.0 L17.65 26.75 Q19.3 27.7 21.05 28.15 L22.5 28.5 Q27.5 29.2 33.1 25.95 32.1 28.5 29.95 30.6 25.7 34.8 19.75 34.85 13.8 34.85 9.55 30.65 5.3 26.45 5.35 20.65 5.35 14.7 9.6 10.5 11.5 8.6 14.15 7.45 10.4 13.25 11.65 18.55 L12.2 20.3 10.6 22.25 12.2 20.3 M9.4 21.2 L11.65 18.55 9.4 21.2 M12.9 22.6 L13.15 22.25 12.9 22.6 M19.9 29.55 L21.05 28.15 19.9 29.55 M20.95 30.35 L22.5 28.5 20.95 30.35" fill="#313131" fill-rule="evenodd" stroke="none"/>
    <path d="M13.15 22.25 L21.85 11.45 M12.9 22.6 L12.1 23.35 M21.05 28.15 L27.95 19.6 M11.65 18.55 L20.4 7.7 M13.15 22.25 L12.9 22.6 M11.65 18.55 L9.4 21.2 M21.05 28.15 L19.9 29.55 M27.4 15.6 L19.9 24.9 M27.95 7.95 L19.4 18.35" fill="none" stroke="#313131" stroke-linecap="round" stroke-linejoin="round" stroke-width="1.0"/>
    <path d="M12.2 20.3 L17.7 13.5 M12.2 20.3 L10.6 22.25 M19.4 18.35 L14.05 24.9 M26.3 23.75 L22.5 28.5 20.95 30.35 M25.05 14.05 L15.45 25.95" fill="none" stroke="#313131" stroke-linecap="round" stroke-linejoin="round" stroke-width="0.5"/>
  </g>
</svg>
