<?xml version="1.0" encoding="UTF-8" standalone="no"?>
<svg xmlns:xlink="http://www.w3.org/1999/xlink" height="23.5px" width="23.7px" xmlns="http://www.w3.org/2000/svg">
  <g transform="matrix(1.0, 0.0, 0.0, 1.0, -7.75, -8.45)">
    <path d="M10.25 15.75 L10.05 13.05 11.65 15.3 12.0 14.75 13.15 16.7 13.5 16.1 14.4 17.5 18.9 20.05 19.1 18.9 21.7 22.0 21.55 22.3 21.45 22.5 17.35 21.9 18.35 21.0 13.9 18.45 12.2 18.35 12.5 17.75 10.25 17.75 10.55 17.25 7.75 16.9 10.25 15.75 M13.6 14.65 L14.15 13.55 Q18.8 5.5 29.85 10.2 21.3 8.35 14.3 14.05 L13.6 14.65 M20.1 19.4 Q20.7 18.6 21.45 18.2 L24.1 18.05 Q25.2 18.8 25.4 20.65 25.5 22.4 24.55 24.25 23.65 26.15 22.15 27.0 L19.5 27.05 Q18.3 26.35 18.3 24.55 18.15 23.5 18.45 22.5 L19.65 22.65 19.65 23.0 Q19.7 23.65 20.2 24.05 L21.35 23.95 Q22.0 23.65 22.45 22.75 22.85 22.0 22.85 21.2 22.8 20.5 22.3 20.2 L21.2 20.25 20.95 20.4 20.05 19.4 20.1 19.4 M19.45 18.6 L19.35 18.55 19.2 18.45 19.15 18.45 Q20.5 16.8 22.2 15.8 24.95 14.3 27.05 15.45 29.0 16.6 29.2 19.75 29.25 22.85 27.55 26.2 25.7 29.55 22.95 31.15 20.25 32.6 18.25 31.5 16.25 30.35 16.05 27.15 15.9 24.7 17.0 22.1 L17.0 22.15 17.15 22.3 17.3 22.3 17.6 22.35 17.6 22.45 Q16.95 24.3 17.05 26.05 17.15 28.65 18.75 29.6 20.3 30.55 22.3 29.35 24.45 28.1 25.95 25.45 27.2 22.75 27.1 20.1 26.95 17.55 25.4 16.65 23.85 15.65 21.8 16.9 20.6 17.55 19.6 18.8 L19.45 18.6 M31.4 14.6 Q22.75 11.85 16.9 15.9 19.7 8.8 31.45 14.6 L31.4 14.6" fill="#313131" fill-rule="evenodd" stroke="none"/>
  </g>
</svg>
