<?xml version="1.0" encoding="UTF-8" standalone="no"?>
<svg xmlns:xlink="http://www.w3.org/1999/xlink" height="24.15px" width="22.0px" xmlns="http://www.w3.org/2000/svg">
  <g transform="matrix(1.0, 0.0, 0.0, 1.0, -9.1, -7.45)">
    <path d="M20.1 7.45 Q23.9 7.85 26.4 9.15 L28.95 11.0 Q29.8 13.7 29.85 16.5 L29.8 17.75 29.65 19.45 28.95 22.75 28.2 23.25 27.8 23.55 25.2 25.0 24.15 25.45 24.15 27.7 24.55 25.8 25.2 25.5 Q25.3 27.7 25.95 29.15 L25.7 29.2 14.45 29.2 14.25 29.15 Q14.9 27.7 14.95 25.5 L15.6 25.8 16.0 27.7 16.0 25.45 14.95 25.0 12.4 23.55 11.95 23.25 11.2 22.75 10.55 19.45 10.35 17.75 10.3 16.5 Q10.35 13.7 11.2 11.0 12.3 9.95 13.75 9.15 16.25 7.85 20.05 7.45 L20.1 7.45 M12.55 14.3 Q11.4 15.45 11.4 17.1 11.4 18.75 12.55 19.9 13.7 21.05 15.35 21.05 16.6 21.05 17.6 20.35 17.1 21.8 13.95 22.15 16.5 22.75 18.0 21.4 17.85 22.75 16.15 24.05 19.6 22.85 19.3 17.2 L19.3 17.1 Q19.3 15.45 18.15 14.3 17.0 13.15 15.35 13.15 13.7 13.15 12.55 14.3 M10.8 22.85 L10.95 23.1 11.7 23.6 12.15 23.9 12.2 23.95 Q12.0 24.35 11.7 24.2 10.55 23.65 9.4 22.1 8.55 19.1 10.05 19.05 L10.1 19.5 Q10.3 21.15 10.8 22.85 M27.65 14.3 Q26.45 13.15 24.85 13.15 23.2 13.15 22.0 14.3 20.85 15.45 20.85 17.1 L20.85 17.2 Q20.6 22.85 24.0 24.05 22.35 22.75 22.2 21.4 23.65 22.75 26.2 22.15 23.05 21.8 22.55 20.35 23.55 21.05 24.85 21.05 26.45 21.05 27.65 19.9 28.8 18.75 28.8 17.1 28.8 15.45 27.65 14.3 M30.05 19.5 L30.15 19.05 Q31.6 19.1 30.8 22.1 29.6 23.65 28.45 24.2 28.2 24.35 27.95 23.95 L28.05 23.9 28.45 23.6 29.2 23.1 29.35 22.85 30.05 19.5 M22.45 31.3 L20.65 31.6 20.65 29.5 22.45 29.5 22.45 31.3 M17.7 31.3 L17.7 29.5 19.5 29.5 19.5 31.6 17.7 31.3 M25.1 29.5 L25.1 30.35 23.45 31.2 23.45 29.5 25.1 29.5 M15.05 29.5 L16.7 29.5 16.7 31.2 15.05 30.35 15.05 29.5" fill="#313131" fill-rule="evenodd" stroke="none"/>
  </g>
</svg>
