<?xml version="1.0" encoding="UTF-8" standalone="no"?>
<!DOCTYPE svg PUBLIC "-//W3C//DTD SVG 1.1//EN" "http://www.w3.org/Graphics/SVG/1.1/DTD/svg11.dtd">
<svg width="100%" height="100%" viewBox="0 0 39 47" version="1.1" xmlns="http://www.w3.org/2000/svg" xmlns:xlink="http://www.w3.org/1999/xlink" xml:space="preserve" xmlns:serif="http://www.serif.com/" style="fill-rule:evenodd;clip-rule:evenodd;stroke-linecap:round;stroke-linejoin:round;">
    <g transform="matrix(1,0,0,1,-2.15,-1.35)">
        <g>
            <g id="shape0">
                <path d="M13.25,10.75L13.85,9.4L13.25,10.75M12.8,20.2L13.3,18.65L13.3,18.75L12.8,20.2M13.45,18.15L14.8,14.7L13.45,18.35L13.45,18.15" style="fill:#f15081;"/>
                <path d="M13.3,18.65L13.15,19L13.4,18.3L13.3,18.65M15.8,12.35L16.25,11.2L18.45,7.15L18.45,7L18.45,7.2C17.483,8.867 16.6,10.583 15.8,12.35" style="fill:#f5feb6;"/>
                <path d="M29.1,19.25L23.7,27.35L26.9,21.5L29.1,19.25" style="fill:#541834;"/>
                <path d="M8.9,18.05L8.95,16.95L8.9,18.6L8.9,18.05" style="fill:#ffc95b;"/>
                <path d="M34.75,2.3L35.05,2.4L35.75,2.9L35.2,3.1L34.75,2.3" style="fill:#895501;"/>
                <path d="M35.75,2.9L36.9,2.95L37.6,3.4L38.15,4.45L37.7,5.75L38.65,6.25L38.7,6.3C39,6.567 39.183,6.883 39.25,7.25C38.883,8.317 38.1,8.883 36.9,8.95C37.333,9.55 37.417,10.167 37.15,10.8C36.717,11.4 36,11.683 35,11.65L33.2,11.45C33.6,12.083 33.667,12.7 33.4,13.3C32.933,14.1 32.1,14.6 30.9,14.8C31.567,15.533 31.667,16.333 31.2,17.2C30.9,17.733 30.417,18.083 29.75,18.25C28.85,18.617 27.85,18.733 26.75,18.6C27.083,19.067 27.15,19.583 26.95,20.15L25.2,21.25L23,21.5C23.267,21.867 23.35,22.217 23.25,22.55C23.05,23.017 22.667,23.417 22.1,23.75C21.233,24.317 20.35,24.6 19.45,24.6L17.2,24.85L16.7,25.45C16.9,25.817 16.933,26.183 16.8,26.55C16.667,27.017 16.4,27.417 16,27.75C14.133,28.65 12.15,29.383 10.05,29.95L9.3,30.65L8.6,33.5L7.95,35.4L6.8,36.75L5.25,38L7.35,35.4L9,30.1L15.8,26.9L16.3,26.15L16.15,24.8C16.117,25.267 15.817,25.7 15.25,26.1L14.65,26.15L8.8,29.75L7.1,35.05L5.25,37.15L4.9,37.3L4.25,37.45C3.783,37.483 3.783,37.233 4.25,36.7L4.5,36.45L6,34.8L6.7,33L7.15,30.75L7.15,29C6.683,27.567 6.417,26.467 6.35,25.7L6.3,25.4C6.3,24.267 6.617,23.15 7.25,22.05L7.25,21.95L7.8,21.55L8.35,21.5L8.55,21.7L7.85,27.95L8.7,27.3L8.6,21.8L8.75,21.95L8.8,21.5L8.7,23C9.533,18.667 10.717,15.417 12.25,13.25L12.35,13.65L9.65,25.7L10.2,24.8L10.45,23.6C10.15,25.533 10.483,25.367 11.45,23.1C11.317,23.233 12.033,20.583 13.6,15.15C15.167,9.717 16.333,6.95 17.1,6.85L17.8,6.8L17.8,6.95L18.45,6.95L18.45,7.15L16.25,11.2L15.8,12.35L14.8,14.7L13.45,18.15L13.4,18.3L13.15,19L13.3,18.65L12.8,20.2L12.7,20.5L12.6,20.75C12.467,21.217 12.517,21.267 12.75,20.9L15.7,14.6C17,11.567 18.183,9.2 19.25,7.5L19.8,6.75C21,5.017 22.4,4.017 24,3.75C21,6.983 18.6,10.667 16.8,14.8L19.1,11.5L21.6,7.6L23.75,5.05C24.417,4.25 25.85,3.733 28.05,3.5C25.483,5.6 23.033,8.317 20.7,11.65L23.15,9.75L25.3,7.3L24.9,7.8L25.7,6.9L24.5,9.5L26.9,7.8L28.8,7.05C29.533,6.217 30.317,5.483 31.15,4.85L30.1,5.2L32.3,2.95L31.9,3.2L33.1,1.8L34.1,1.85L34.75,2.3L35.2,3.1L35.75,2.9M37.45,5.05L37.35,4L36.7,3.65C34.067,4.283 31.867,5.3 30.1,6.7C32.367,5.9 34.55,5.45 36.65,5.35L37.45,5.05M30.55,10.25L35.45,10.25C36.15,10.083 36.5,9.65 36.5,8.95L35.65,8.15L38.05,7.75L38.65,7.05L38,6.25C37.933,6.617 37.6,6.883 37,7.05L30.5,7.75L33.9,7.8L35.65,8.15C35.75,8.583 35.517,8.933 34.95,9.2C30.283,8.733 26.267,9.417 22.9,11.25C25.4,10.617 27.95,10.283 30.55,10.25M31.85,11.05C31.85,11.55 31.667,11.917 31.3,12.15C30.6,11.75 29.8,11.617 28.9,11.75C25.433,11.917 22.217,12.767 19.25,14.3L16.15,16.55C20.35,14.05 24.567,13.1 28.8,13.7L30.35,13.95L29.9,13.1L31.65,12.9C32.117,12.567 32.333,12.183 32.3,11.75L31.85,11.05M30.35,15.3L30.35,15.25C30.05,14.817 29.75,14.65 29.45,14.75L29.05,15.5C23.483,14.667 18.45,16.167 13.95,20L12.8,21.05L13.9,20.2C17.233,17.767 20.867,16.55 24.8,16.55L29.5,16.6C30.033,16.233 30.317,15.8 30.35,15.3M25.85,17.5L26.05,17.75C25.617,18.65 25.083,19.017 24.45,18.85C19.75,18.217 15.133,20.217 10.6,24.85C14.033,22.05 17.383,20.417 20.65,19.95L24,19.85L25.15,19.85L25.9,19.4L26.35,18.15L25.85,17.5M22.2,20.95L21.6,20.4C21.833,20.633 21.867,20.9 21.7,21.2C21.667,21.567 21.317,21.783 20.65,21.85C16.383,22.35 12.6,24.4 9.3,28C11.467,26.1 13.567,24.85 15.6,24.25L15.25,24L17.6,23.15L20.8,23.05L21.6,22.6L22.3,21.95L22.2,20.95" style="fill:#9cc2a4;"/>
                <path d="M6.3,25.4C6.033,23.233 6.2,21.367 6.8,19.8C7.4,18.9 8.1,18.4 8.9,18.3L8.9,18.05L8.9,18.6L8.95,16.95C8.983,15.55 9.333,14.35 10,13.35L10.15,13.15C10.783,12.283 11.55,11.85 12.45,11.85L12.9,11.75L13.15,11.1L13.25,10.75L13.85,9.4L15.55,6.75C16.183,5.983 16.933,5.383 17.8,4.95L18.8,4.55L20.6,4.35C21.233,3.617 21.933,3.1 22.7,2.8L23.05,2.65C23.983,2.217 24.9,2.3 25.8,2.9C26.967,1.967 28.2,1.467 29.5,1.4L30.45,1.55L32.05,2.1L33.1,1.8L31.9,3.2C29.4,4.067 27.2,5.883 25.3,8.65L26.9,7.8L24.5,9.5L25.7,6.9L24.9,7.8L25.3,7.3L28.55,3.3L28.05,3.5C25.85,3.733 24.417,4.25 23.75,5.05L21.6,7.6L24.1,3.7L24,3.75C22.4,4.017 21,5.017 19.8,6.75L19.25,7.5C18.183,9.2 17,11.567 15.7,14.6L12.75,20.9C12.517,21.267 12.467,21.217 12.6,20.75L12.7,20.5L12.8,20.2L13.3,18.75L13.3,18.65L13.4,18.3L13.45,18.15L13.45,18.35L14.8,14.7L15.8,12.35C16.6,10.583 17.483,8.867 18.45,7.2L18.45,6.95L17.8,6.95L17.8,6.8L17.1,6.85C16.333,6.95 15.167,9.717 13.6,15.15C12.033,20.583 11.317,23.233 11.45,23.1C10.483,25.367 10.15,25.533 10.45,23.6L11.05,20.4L11.2,19.75L12.35,13.75L12.35,13.65L12.25,13.25C10.717,15.417 9.533,18.667 8.7,23L8.8,21.5L8.75,21.95L8.6,21.8L8.55,21.7L8.35,21.5L7.8,21.55L7.25,21.95L7.25,22.05C6.617,23.15 6.3,24.267 6.3,25.4" style="fill:#d5e6d8;"/>
                <path d="M37.6,3.4L37.9,3.5C38.667,3.933 39.05,4.417 39.05,4.95C39.083,5.417 38.95,5.85 38.65,6.25L37.7,5.75L38.15,4.45L37.6,3.4M31.9,3.2L32.3,2.95L30.1,5.2L31.15,4.85C30.317,5.483 29.533,6.217 28.8,7.05L26.9,7.8L25.3,8.65C27.2,5.883 29.4,4.067 31.9,3.2M25.3,7.3L23.15,9.75L20.7,11.65C23.033,8.317 25.483,5.6 28.05,3.5L28.55,3.3L25.3,7.3M21.6,7.6L19.1,11.5L16.8,14.8C18.6,10.667 21,6.983 24,3.75L24.1,3.7L21.6,7.6M8.6,21.8L8.7,27.3L7.85,27.95L8.55,21.7L8.6,21.8" style="fill:#497852;"/>
                <path d="M10.45,23.6L10.2,24.8L9.65,25.7L12.35,13.65L12.35,13.75L11.2,19.75L11.05,20.4L10.45,23.6" style="fill:#325238;"/>
                <path d="M2.3,38.45L2.2,37.55L4.25,36.55L4.5,36.45L4.25,36.7C3.783,37.233 3.783,37.483 4.25,37.45L4.9,37.3L4.25,37.6L2.3,38.45" style="fill:#243c26;"/>
                <path d="M38.7,6.3C39.6,6.6 40.1,7.083 40.2,7.75C39.833,8.817 39.067,9.4 37.9,9.5C38.333,10.1 38.4,10.717 38.1,11.35C37.667,11.95 36.95,12.233 35.95,12.2L34.15,12C34.55,12.633 34.617,13.25 34.35,13.85C33.883,14.65 33.067,15.15 31.9,15.35C32.533,16.05 32.617,16.833 32.15,17.7C31.85,18.267 31.367,18.633 30.7,18.8L29.15,19.15L29.1,19.25L26.9,21.5L26.15,21.8L24.35,22.2L24.2,23.1L23.1,24.3C22.233,24.833 21.35,25.117 20.45,25.15L18.15,25.4C18.45,25.967 18.5,26.467 18.3,26.9L17.55,28C15.317,29.1 13.133,29.933 11,30.5L10.25,31.15L9.6,34.05L8.9,35.9L7.75,37.3L5.7,39L2.45,40.2L2.3,38.45L4.25,37.6L4.9,37.3L5.25,37.15L7.1,35.05L8.8,29.75L14.65,26.15L15.25,26.1C15.817,25.7 16.117,25.267 16.15,24.8L16.3,26.15L15.8,26.9L9,30.1L7.35,35.4L5.25,38L6.8,36.75L7.95,35.4L8.6,33.5L9.3,30.65L10.05,29.95C12.15,29.383 14.133,28.65 16,27.75C16.4,27.417 16.667,27.017 16.8,26.55C16.933,26.183 16.9,25.817 16.7,25.45L17.2,24.85L19.45,24.6C20.35,24.6 21.233,24.317 22.1,23.75C22.667,23.417 23.05,23.017 23.25,22.55C23.35,22.217 23.267,21.867 23,21.5L25.2,21.25L26.95,20.15C27.15,19.583 27.083,19.067 26.75,18.6C27.85,18.733 28.85,18.617 29.75,18.25C30.417,18.083 30.9,17.733 31.2,17.2C31.667,16.333 31.567,15.533 30.9,14.8C32.1,14.6 32.933,14.1 33.4,13.3C33.667,12.7 33.6,12.083 33.2,11.45L35,11.65C36,11.683 36.717,11.4 37.15,10.8C37.417,10.167 37.333,9.55 36.9,8.95C38.1,8.883 38.883,8.317 39.25,7.25C39.183,6.883 39,6.567 38.7,6.3M37.45,5.05L36.65,5.35C34.55,5.45 32.367,5.9 30.1,6.7C31.867,5.3 34.067,4.283 36.7,3.65L37.35,4L37.45,5.05M31.85,11.05L32.3,11.75C32.333,12.183 32.117,12.567 31.65,12.9L29.9,13.1L30.35,13.95L28.8,13.7C24.567,13.1 20.35,14.05 16.15,16.55L19.25,14.3C22.217,12.767 25.433,11.917 28.9,11.75C29.8,11.617 30.6,11.75 31.3,12.15C31.667,11.917 31.85,11.55 31.85,11.05M30.55,10.25C27.95,10.283 25.4,10.617 22.9,11.25C26.267,9.417 30.283,8.733 34.95,9.2C35.517,8.933 35.75,8.583 35.65,8.15L33.9,7.8L30.5,7.75L37,7.05C37.6,6.883 37.933,6.617 38,6.25L38.65,7.05L38.05,7.75L35.65,8.15L36.5,8.95C36.5,9.65 36.15,10.083 35.45,10.25L30.55,10.25M29.15,19.15L29.75,18.25L29.15,19.15M30.35,15.3C30.317,15.8 30.033,16.233 29.5,16.6L24.8,16.55C20.867,16.55 17.233,17.767 13.9,20.2L12.8,21.05L13.95,20C18.45,16.167 23.483,14.667 29.05,15.5L29.45,14.75C29.75,14.65 30.05,14.817 30.35,15.25L30.35,15.3M25.85,17.5L26.35,18.15L25.9,19.4L25.15,19.85L24,19.85L20.65,19.95C17.383,20.417 14.033,22.05 10.6,24.85C15.133,20.217 19.75,18.217 24.45,18.85C25.083,19.017 25.617,18.65 26.05,17.75L25.85,17.5M22.2,20.95L22.3,21.95L21.6,22.6L20.8,23.05L17.6,23.15L15.25,24L15.6,24.25C13.567,24.85 11.467,26.1 9.3,28C12.6,24.4 16.383,22.35 20.65,21.85C21.317,21.783 21.667,21.567 21.7,21.2C21.867,20.9 21.833,20.633 21.6,20.4L22.2,20.95" style="fill:#3c6240;"/>
                <path d="M29.15,19.15L29.1,19.25L26.9,21.5M29.75,18.25L29.15,19.15" style="fill:none;fill-rule:nonzero;stroke:#895501;stroke-width:0.1px;"/>
                <path d="M29.1,19.25L23.7,27.35L26.9,21.5" style="fill:none;fill-rule:nonzero;stroke:#541834;stroke-width:0.1px;"/>
                <path d="M35.75,2.9L36.9,2.95L37.6,3.4M4.25,36.55L4.5,36.45L6,34.8L6.7,33L7.15,30.75L7.15,29C6.683,27.567 6.417,26.467 6.35,25.7L6.3,25.4C6.033,23.233 6.2,21.367 6.8,19.8C7.4,18.9 8.1,18.4 8.9,18.3L8.9,18.05L8.95,16.95C8.983,15.55 9.333,14.35 10,13.35L10.15,13.15C10.783,12.283 11.55,11.85 12.45,11.85L12.9,11.75L13.15,11.1L13.25,10.75L13.85,9.4L15.55,6.75C16.183,5.983 16.933,5.383 17.8,4.95L18.8,4.55L20.6,4.35C21.233,3.617 21.933,3.1 22.7,2.8L23.05,2.65C23.983,2.217 24.9,2.3 25.8,2.9C26.967,1.967 28.2,1.467 29.5,1.4L30.45,1.55L32.05,2.1L33.1,1.8L34.1,1.85L34.75,2.3L35.2,3.1L35.75,2.9M12.6,20.75L12.7,20.5L12.8,20.2L13.3,18.65L13.4,18.3L13.45,18.15L14.8,14.7L15.8,12.35C16.6,10.583 17.483,8.867 18.45,7.2L18.45,7M4.9,37.3L5.25,37.15M4.9,37.3L4.25,37.6" style="fill:none;fill-rule:nonzero;stroke:#293d3d;stroke-width:0.1px;"/>
                <path d="M2.3,38.45L2.2,37.55L4.25,36.55M4.25,37.6L2.3,38.45" style="fill:none;fill-rule:nonzero;stroke:#3a5655;stroke-width:0.1px;"/>
            </g>
            <g id="sprite0" transform="matrix(0.7513,0,0,1.0625,6.90003,43.2)">
                <g id="shape1">
                    <path d="M25.35,2.4C25.317,3.067 24.067,3.633 21.6,4.1L12.7,4.8L3.75,4.1C1.25,3.633 0.017,3.067 0.05,2.4C0.017,1.733 1.25,1.167 3.75,0.7L12.7,0L21.6,0.7C24.067,1.167 25.317,1.733 25.35,2.4" style="fill-opacity:0.6;"/>
                </g>
            </g>
        </g>
    </g>
</svg>
