<?xml version="1.0" encoding="UTF-8"?>
<svg version="1.1" viewBox="0 0 78.999 99.9" xmlns="http://www.w3.org/2000/svg" xmlns:cc="http://creativecommons.org/ns#" xmlns:dc="http://purl.org/dc/elements/1.1/" xmlns:rdf="http://www.w3.org/1999/02/22-rdf-syntax-ns#" xmlns:xlink="http://www.w3.org/1999/xlink">
<metadata>
<rdf:RDF>
<cc:Work rdf:about="">
<dc:format>image/svg+xml</dc:format>
<dc:type rdf:resource="http://purl.org/dc/dcmitype/StillImage"/>
</cc:Work>
</rdf:RDF>
</metadata>
<g transform="translate(-235.46 -150.52)">
<use transform="translate(235.5,150.55)" width="78.949997" height="99.849998" xlink:href="#c"/>
<use transform="matrix(-.1243 0 0 .1243 286.24 199.78)" width="200.05" height="144.85001" xlink:href="#b"/>
<use transform="matrix(-.6768 0 0 .6768 274.11 204.75)" width="4.3000002" height="1.35" xlink:href="#a"/>
</g>
<defs>
<g id="c" transform="translate(-235.5,-150.55)">
<path d="m306.85 168.95q-0.05-6.05-9.35-10.3-9.35-4.2-22.55-4.2t-22.55 4.2q-9.35 4.25-9.3 10.3-0.05 6 9.3 10.2 9.35 4.25 22.55 4.25t22.55-4.25q9.3-4.2 9.35-10.2m-71.1 1.7q-0.9-3.05 1.3-6.45 1.15-2.4 6.45-6.25 3.2-2.45 9.4-4.35 7.15-2.4 12.25-2.75l7.95-0.3 13.2 0.45 6.7 1.3q5.1 1.1 10.6 4.05 4.65 2.6 7.25 5.25 2.55 2.6 3.2 5.35v0.05q0.75 2.2 0.05 4.55l-1.3 2.95q-2.5 3.25-4.55 4.65-3.6 2.8-7.05 4.35-6.3 2.65-12.7 3.4-8.8 1.4-19.3 0.5-9.25-0.85-18.45-3.95l-6.1-3.05q-7.9-4.9-8.9-9.75" fill="#c78c60" fill-rule="evenodd"/>
<path d="m306.85 168.95q-0.05 6-9.35 10.2-9.35 4.25-22.55 4.25t-22.55-4.25q-9.35-4.2-9.3-10.2-0.05-6.05 9.3-10.3 9.35-4.2 22.55-4.2t22.55 4.2q9.3 4.25 9.35 10.3m-51.1 4.9q1.3 0.9 3.05 1.7 6.7 3.15 16.25 3.15t16.25-3.15q6.75-3.15 6.75-7.6 0-2.65-2.4-4.8-1.6-1.5-4.35-2.75l-0.4-0.2q-6.6-2.95-15.85-2.95-9.55 0-16.25 3.15-6.75 3.1-6.75 7.55 0 3.3 3.7 5.9" fill="#761d39" fill-rule="evenodd"/>
<path d="m295.65 163.15q2.4 2.15 2.4 4.8 0 4.45-6.75 7.6-6.7 3.15-16.25 3.15t-16.25-3.15q-1.75-0.8-3.05-1.7l6.15-2.2 4.35-1.15 2.7 0.5-0.05 1.15 1.25-1.5 9.1-1.75h0.9q4.9-0.6 8.15-1.7 4.6-1.4 7.35-4.05m-51.7 45.3-1.3-8.8 7 1.8 0.1 2.45q0.6 3.45 2.1 5.45l1.8 2.25-9.7-3.15" fill="#a42543" fill-rule="evenodd"/>
<path d="m255.75 173.85q-3.7-2.6-3.7-5.9 0-4.45 6.75-7.55 6.7-3.15 16.25-3.15 9.25 0 15.85 2.95l0.4 0.2q2.75 1.25 4.35 2.75-2.75 2.65-7.35 4.05-3.25 1.1-8.15 1.7h-0.9q1.2-0.65 1.5-1.9 0.5-1.85-0.4-3.25-1.3-2.15-3.75-2.55l-1.7-0.3q-0.35-0.95-1.45-1.35-4.7-1.3-9.25 0.55-0.7 0.3-1.25 0.8l-0.9 1.15-0.7 1.45 0.65 0.55 1.05-0.3-0.15-1.05 1.75-1.05 4.35 5.65-2-0.1-0.9 0.55q-0.65 0.7-0.6 1.6 0 0.85 0.75 1.15l-4.35 1.15-6.15 2.2m44.4 29.9q0 2-1.7 4.2-2.15 3.3-4.15 5.3-2.65 2.85-5.5 4.15l-2.5 0.8-4.9 0.5-5.95-1.4-5.75 1.75q-5.5 0.2-7.75-0.85-3.6-1.2-6.3-4.1l-3.8-4.75q-1.5-2-2.1-5.45l-0.1-2.45q0.15-1.8 1.75-3.15 2.65-2 7-1.95l12.05 1.45q7.35 0.8 13.55-0.15l5.35-1.1q2.95-0.55 5.55 0.45 2.3 0.45 3.4 1.95 1.75 1.85 1.85 4.8m-29.65-39.65q0.05 1.25 1.45 1.65l0.75 0.25 0.75-0.55-0.2-1.6-0.4 0.2-0.15 0.45-0.45 0.9-1.15-2.2q3.2-0.5 6.6 0.15 0.55 0 1 0.45l0.75 1.15q0.65 1.6-0.8 2.9l-1.15 0.65-2.2 0.7-4.9 0.3q0.15-4.3-2.85-7.05l-1.95-1.5 7.9 0.05q-2.05 0.45-2.85 2.4-0.15 0.3-0.15 0.7m-2.8 5.3-0.75-0.05-0.15-0.75 0.2-0.45h0.65l-0.5 0.85 0.55 0.4m1.45-0.75-0.05 0.85-1-0.05 0.55-0.2 0.5-0.6" fill="#fff" fill-rule="evenodd"/>
<path d="m245 215.7-1.05-7.25 9.7 3.15 2 2.5q2.7 2.9 6.3 4.1 2.25 1.05 7.75 0.85l5.75-1.75 5.95 1.4 4.9-0.5-6 3.65q-4.5 2.1-8.45 2.55l-9.05-0.35-17.8-8.35m-2.35-16.05-2.1-11.25q4.1 3.9 8.55 5.7 4.7 1.7 9.3 2.25-4.35-0.05-7 1.95-1.6 1.35-1.75 3.15l-7-1.8m46.7-3.1 7-1.45q4.4-1.4 8.6-3.5-1.9 7.05-4.8 12.15-0.1-2.95-1.85-4.8-1.1-1.5-3.4-1.95-2.6-1-5.55-0.45" fill="#e7dfd8" fill-rule="evenodd"/>
<path d="m308.1 189.85-0.3 1.95q-2.1 7.45-4.6 12.05-2.5 4.55-4.95 7.8-2.5 3.25-8.1 7.35-5.65 4.05-11.3 6.45-4.4 1.7-9.3 1.8l-6.75-3.2 9.05 0.35q3.95-0.45 8.45-2.55l6-3.65 2.5-0.8q2.85-1.3 5.5-4.15 2-2 4.15-5.3 1.7-2.2 1.7-4.2 2.9-5.1 4.8-12.15l3.15-1.75m-60.6 42.85-1.35-9.15 4.15 5.45q-2.65 1.85-2.8 3.7" fill="#baa890" fill-rule="evenodd"/>
<path d="m245.3 217.75-0.3-2.05 17.8 8.35 6.75 3.2 2.05 0.95v0.05l-19.1-1.4-7.2-9.1" fill="#f8eac0" fill-rule="evenodd"/>
<path d="m271.6 228.25-0.7 4.25-0.1-0.05q-0.1-1.3-1.1-2.3-1.05-1-2.3-1.15-1.3-0.15-2.15 0.7-0.8 0.8-0.7 2.1 0.15 1.3 1.15 2.3 0.85 0.85 1.9 1.1v0.1l-1.4-0.3h-0.55l-13.05-2.85-0.1-5.3 19.1 1.4" fill="#efd074" fill-rule="evenodd"/>
<path d="m270.9 232.5-0.1 0.5q-0.05 0.95-0.7 1.6-0.8 0.8-2.1 0.65l-0.4-0.05q-1.05-0.25-1.9-1.1-1-1-1.15-2.3-0.1-1.3 0.7-2.1 0.85-0.85 2.15-0.7 1.25 0.15 2.3 1.15 1 1 1.1 2.3l0.1 0.05m-3.3 2.8q0.6 0.2 1.1 0.55 1.05 0.6 0.95 1.3t-1.25 1.05l-2.65 0.2q-1.5-0.2-2.5-0.8-1.05-0.65-0.95-1.35 0.05-0.7 1.2-1.05l2.15-0.2h0.55l1.4 0.3" fill="#ffe9a2" fill-rule="evenodd"/>
<path d="m246.15 223.55-0.85-5.8 7.2 9.1 0.1 5.3-2.3-3.15-4.15-5.45" fill="#ebc149" fill-rule="evenodd"/>
<path d="m314.1 171.55-1.3 11.85q-2.2 4.4-4.7 6.45l-3.15 1.75q-4.2 2.1-8.6 3.5l-7 1.45-5.35 1.1q-6.2 0.95-13.55 0.15l-12.05-1.45q-4.6-0.55-9.3-2.25-4.45-1.8-8.55-5.7-2.25-1.8-3.9-5.25l-0.9-12.5q1 4.85 8.9 9.75l6.1 3.05q9.2 3.1 18.45 3.95 10.5 0.9 19.3-0.5 6.4-0.75 12.7-3.4 3.45-1.55 7.05-4.35 2.05-1.4 4.55-4.65l1.3-2.95" fill="url(#e)" fill-rule="evenodd"/>
<path d="m307.8 191.8-6.1 46.4q-1.45 3-4.05 5.3l-5.95 3.2-5.45 2.4-6.25 1.15-7.25 0.15-7.9-1.1-7.55-2.75-5-3.4q-2.65-2.15-4.15-5.95l-0.65-4.5q0.15-1.85 2.8-3.7l2.3 3.15 13.05 2.85-2.15 0.2q-1.15 0.35-1.2 1.05-0.1 0.7 0.95 1.35 1 0.6 2.5 0.8l2.65-0.2q1.15-0.35 1.25-1.05t-0.95-1.3q-0.5-0.35-1.1-0.55v-0.1l0.4 0.05q1.3 0.15 2.1-0.65 0.65-0.65 0.7-1.6l0.1-0.5 0.7-4.25v-0.05l-2.05-0.95q4.9-0.1 9.3-1.8 5.65-2.4 11.3-6.45 5.6-4.1 8.1-7.35 2.45-3.25 4.95-7.8 2.5-4.6 4.6-12.05" fill="url(#d)" fill-rule="evenodd"/>
<path d="m279.25 168.9-9.1 1.75-1.25 1.5 0.05-1.15-2.7-0.5q-0.75-0.3-0.75-1.15-0.05-0.9 0.6-1.6l0.9-0.55 2 0.1-4.35-5.65-1.75 1.05 0.15 1.05-1.05 0.3-0.65-0.55 0.7-1.45 0.9-1.15q0.55-0.5 1.25-0.8 4.55-1.85 9.25-0.55 1.1 0.4 1.45 1.35l1.7 0.3q2.45 0.4 3.75 2.55 0.9 1.4 0.4 3.25-0.3 1.25-1.5 1.9m-10.1-0.25-0.5 0.6-0.55 0.2 1 0.05 0.05-0.85m-1.45 0.75-0.55-0.4 0.5-0.85h-0.65l-0.2 0.45 0.15 0.75 0.75 0.05m2.8-5.3q0-0.4 0.15-0.7 0.8-1.95 2.85-2.4l-7.9-0.05 1.95 1.5q3 2.75 2.85 7.05l4.9-0.3 2.2-0.7 1.15-0.65q1.45-1.3 0.8-2.9l-0.75-1.15q-0.45-0.45-1-0.45-3.4-0.65-6.6-0.15l1.15 2.2 0.45-0.9 0.15-0.45 0.4-0.2 0.2 1.6-0.75 0.55-0.75-0.25q-1.4-0.4-1.45-1.65" fill="#7e6130" fill-rule="evenodd"/>
<path d="m235.75 170.65q-0.9-3.05 1.3-6.45 1.15-2.4 6.45-6.25 3.2-2.45 9.4-4.35 7.15-2.4 12.25-2.75l7.95-0.3 13.2 0.45 6.7 1.3q5.1 1.1 10.6 4.05 4.65 2.6 7.25 5.25 2.55 2.6 3.2 5.35v0.05q0.75 2.2 0.05 4.55l-1.3 11.85q-2.2 4.4-4.7 6.45l-0.3 1.95-6.1 46.4q-1.45 3-4.05 5.3l-5.95 3.2-5.45 2.4-6.25 1.15-7.25 0.15-7.9-1.1-7.55-2.75-5-3.4q-2.65-2.15-4.15-5.95l-0.65-4.5-1.35-9.15-0.85-5.8-0.3-2.05-1.05-7.25-1.3-8.8-2.1-11.25q-2.25-1.8-3.9-5.25l-0.9-12.5m69.2 20.95 3.15-1.75m-18.75 6.7 7-1.45q4.4-1.4 8.6-3.5m-64.4-3.2q4.1 3.9 8.55 5.7 4.7 1.7 9.3 2.25" fill="none" stroke="#000" stroke-linecap="round" stroke-linejoin="round" stroke-opacity=".46274" stroke-width=".05"/>
<path d="m300.15 203.75q0 2-1.7 4.2-2.15 3.3-4.15 5.3-2.65 2.85-5.5 4.15l-2.5 0.8m13.85-14.45q-0.1-2.95-1.85-4.8-1.1-1.5-3.4-1.95-2.6-1-5.55-0.45l-5.35 1.1q-6.2 0.95-13.55 0.15l-12.05-1.45q-4.35-0.05-7 1.95m-1.75 3.15 0.1 2.45q0.6 3.45 2.1 5.45l3.8 4.75q2.7 2.9 6.3 4.1 2.25 1.05 7.75 0.85l5.75-1.75 5.95 1.4 4.9-0.5" fill="none" stroke="#000" stroke-linecap="round" stroke-linejoin="round" stroke-opacity=".42353" stroke-width=".05"/>
<path d="m271.6 228.2v0.05" fill="none" stroke="#000" stroke-linecap="round" stroke-linejoin="round" stroke-width=".05"/>
<path d="m270.8 232.45 0.1 0.05" fill="none" stroke="#000" stroke-linecap="round" stroke-linejoin="round" stroke-width=".05"/>
<path d="m251.4 198.3q-1.6 1.35-1.75 3.15" fill="none" stroke="#000" stroke-linecap="round" stroke-linejoin="round" stroke-opacity=".42353" stroke-width=".05"/>
</g>
<linearGradient id="e" x1="-819.2" x2="819.2" gradientTransform="matrix(.0455 -.0022 9e-4 .018 277.65 183.4)" gradientUnits="userSpaceOnUse">
<stop stop-color="#be7925" offset="0"/>
<stop stop-color="#855629" offset=".47451"/>
<stop stop-color="#c59e70" offset=".83137"/>
<stop stop-color="#d9923c" offset="1"/>
</linearGradient>
<linearGradient id="d" x1="-819.2" x2="819.2" gradientTransform="matrix(.0368 0 0 .0358 277.65 221.1)" gradientUnits="userSpaceOnUse">
<stop stop-color="#882251" offset="0"/>
<stop stop-color="#da4588" offset=".29412"/>
<stop stop-color="#823e65" offset=".6902"/>
<stop stop-color="#d83d3d" offset="1"/>
</linearGradient>
<g id="b" transform="translate(-234.5,31.15)">
<path d="m380.65 96.25q12 1 0.75 0.4l-0.75-0.4m-125-100.55-0.2-0.05 0.2-0.15v0.2m10.3 24.25-0.6 1.3 0.2-1.85 0.4 0.55" fill="#3a2814" fill-opacity=".19216" fill-rule="evenodd"/>
<path d="m392.9 1.1 0.2-0.05-0.25 0.2-0.45 0.45 0.5-0.6m-87.95 104.05-2.7 0.9-0.1-0.35q1.65-0.55 3.55-0.8l-0.75 0.25m-33.9-29.25h-0.25l0.15-0.15 0.1 0.15m-16.6-0.55-0.5-0.05 0.25-0.25 0.25 0.3m107.05 8.25 0.25-0.05 0.3-0.05-0.15 0.1-0.65 0.05 0.25-0.05m-121.4 12.1-0.3-0.5 0.1-0.05 0.2 0.55" fill="#cccee1" fill-rule="evenodd"/>
<path d="m253.95-3.4q0.7-1.35 1.3-2l0.75-0.25-0.05 0.4v0.5l-0.3 0.25-0.2 0.15-1.85 1.7 0.35-0.75m63.85-26.7 0.25-0.05-0.1 0.5-0.15-0.45m63.8 41.4 0.65-1.1 1.4-1.9-1.3 2.7-0.35 0.15-0.15 0.05-0.25 0.1m10.7-10 0.6-0.2-0.5 0.6-0.1-0.4m-15.8 30.1-0.5 0.35 0.4-0.3 0.1-0.15v0.1m-110.55 48.45 0.35-0.2v0.05l-0.35 0.15m8.65-9.9v-0.05q0.4-0.25 0.85-0.45l-0.85 0.5m-6.95-39.7q-2.7-0.35-3.1-1.35l3.1 1.35m-11.45-6.55-0.45 0.8 0.45-0.8m8.5-15.4q1.1-1.45 3.8-1.05-2.25 1.8-3.8 1.05m27.3-14.4 0.1 0.65h-0.3l0.2-0.65m-0.3 10 2.75-0.2q1 0.1 1.65 0.5 1.8 1.15 1.7 2.05-0.1 0.75-1.7 1.95l1.7-1.95-1.7-2.05-4.4-0.3m-6.15 9.3v0.45l-0.25 1.1-0.3 0.6-0.15 0.25-0.4 0.5-0.05 0.05 0.2-0.7 0.05-0.15-0.05-0.3-0.4-1.05 1.35-0.75m50.95-31.75 0.25 0.3-0.15 0.05-0.1-0.35m40.6 45.1v0.1l-0.15 0.55-0.05 0.3-0.05 0.15q-1 2.55 0.25-1.1m-10.1 0.65 0.05 0.35-0.05 0.2-0.75-0.35h-0.05q0.65-0.55 0.75-0.4l0.05 0.2m-3.55-13.15-0.05 0.15v-0.15h0.05m-66.05 18.9-0.05-0.05-1.5-2.25h0.15l0.1 0.05 1.65 0.6-0.35 1.65m51.35 38.5q-2.7 3.95-3.2 0.05l3.2-0.05m-7.85 16.1 0.45-0.4 0.05-0.05 0.3 0.5-0.8-0.05m36-25.85-0.15 0.3 0.15-0.3m-58.75-40.3h0.05l0.15 0.35-0.2-0.35m-11.05-3.7-0.35 0.3 0.1-0.6 0.25 0.3m-41.65 1.55-0.1-0.05h-0.35l-0.85-0.15-1.1-0.25q1.5-0.2 2.35 0.45h0.05m-25.65 75.95 0.3 0.5-4.35 0.8 4.05-1.3" fill="#cd9d6d" fill-rule="evenodd"/>
<path d="m273.9-23.3h0.1v0.7l-0.1-0.7m107.7 34.65v-0.05l0.25-0.1-0.25 0.15m2.05-3.05 1.1-1.25-0.55 1.5-0.55-0.25m-115.45 22.15-0.55-0.2 0.55-0.05v0.25m-11.9-6.8v-0.1l0.4-0.65-0.4 0.75m6.5-29.85 0.8 0.15-0.05 0.05-0.4-0.1-0.35-0.1m29.3 0.75v1.65q-0.2 2-2.1 2.85l1.3-2.95 0.5-1.55h0.3m94.95 14.7-0.05-0.05 0.1-0.05q0.8-0.3 0.1 0.05l-0.15 0.05m-10.55 22v0.05l-0.1 0.15-0.4 0.3 0.5-0.5m-119-9.4-0.35 0.05 0.1-0.25 1.45-6.75 0.8-4.2-0.75 4.4-1.1 6.05v0.05l-0.1 0.45-0.05 0.2m53.35 65.45-0.3 0.1-0.85-0.1h1.15" fill="#bd8146" fill-rule="evenodd"/>
<path d="m255.25-5.4 0.8-0.65-0.1 0.8 0.05-0.4-0.75 0.25m113.45 22.5 0.6-0.45-0.3 0.25-0.35 0.55 0.05-0.35m6.8 36.75 0.25 0.1 0.15 0.05 0.2 0.1 0.85 0.45 0.05 0.05 1.05 0.7-3 1.7h-0.05l-1.15-2.2-0.05-0.05 1.7-0.9m20.05 0.95 6.75-0.7-6.5 1.65-0.25-0.95m38.65 20.95q0.75 0.6-0.15 1l-1.3 0.3 1.3-1.2 0.15-0.1m-179.5 11.5q0.35-1.1 1.8-2.3-0.1 0.95-1.8 2.3m26.1-28.95 0.2-0.75 0.25 0.2-0.45 0.55m-27.15-13.3-0.55 0.2q-0.8 0.25-1.3-0.4l1.85 0.2m10.65-36.95 0.4-0.45-0.15 0.6-0.05 0.05-0.3-0.1 0.1-0.1m26.9-16.9-0.25-0.45 0.05-0.1 0.2 0.55m0.6 3.4 0.1-1.05-0.5-1.9q1 0.2 0.6 2.3l-0.2 0.65m-1.8 4.5-0.15 0.25-0.05-0.2-0.15 0.05-0.9 0.2 0.15-0.1 0.1-0.1 1.45-1.65 0.85-1.4-1.3 2.95m1.5 4.2 0.2 0.65-0.3-0.55 0.1-0.1m-6.2 11.5-0.45 0.85-0.15 0.25-0.25 0.25 0.4-0.5 0.15-0.25 0.3-0.6m93 9.8v0.15h-0.05l-0.15 0.1 0.2-0.25m-82.45 6.1-0.1-0.1 0.25 0.1h-0.15m28.55 56.6-0.15 0.05 0.5-0.15-0.35 0.1m-37.45-67.1-0.25 1.5 0.05-0.2-1.3-0.5 1.5-0.8m-10.25-11.55-0.3 0.3v-0.25l0.3-0.05" fill="#d7af88" fill-rule="evenodd"/>
<path d="m377.15 26.55-0.05 0.1v-0.1h0.05m-0.25 0.95-0.05 0.15 0.05-0.15m-98 41.05 0.5 0.6v0.05l-0.5-0.65" fill="#6f573c" fill-rule="evenodd"/>
<path d="m265.55 19.4-0.05-0.05-0.05-0.1 0.35 0.35 0.15 0.35-0.4-0.55m-7.9 1.8 0.1 0.4-0.2 0.05 0.1-0.45" fill="#cd9a5c" fill-rule="evenodd"/>
<path d="m344.8 42.25q-3.65-0.4-6.05 1.2-0.95 0.6-1.7 1.55 0.75-0.95 1.7-1.55 2.4-1.6 6.05-1.2l0.5 1.2 0.05 0.1q-3.85 3.3-7.9 2.65l-0.4-1.2-0.4-1.55q-1.35-5.75 0.25-9.6l6.4-1.5q-0.35 4.85 1.5 9.9" fill="#66281a" fill-rule="evenodd"/>
<path d="m276.55 8.9-0.05 0.1-0.1-0.1 0.3-0.3-0.15 0.3m-10.15-23.2h-0.05l-0.2-0.05 0.3-0.6-0.05 0.5v0.15m103.5 61.4v-0.2l0.1 0.2h-0.1m-5 49.35-0.1 0.1-0.2-0.35 0.3 0.25" fill="#ebd6c2" fill-rule="evenodd"/>
<path d="m285.6 7.8 0.1 0.1q-0.55-0.2-1-0.6l-0.25-0.25 1.15 0.75" fill="#e9d5c0" fill-rule="evenodd"/>
<path d="m250.1 7.25 0.25-0.85-0.15-0.2q-0.55-0.8-0.85-1.8-0.3-1.05-0.3-2.25 0-2.4 1.15-4.1 1.15-1.65 2.75-1.65l1 0.2-0.35 0.75 1.85-1.7 0.2 0.05q0.35 4.95 3.45 4.5l0.55-0.1q0.35-0.15 0.6 0.45l2.95 6q0.5 1 1.1 1.5l-0.1 0.1 0.3 0.1 0.05-0.05 0.15 0.1q1.55 0.75 3.8-1.05 1.9-1.55 4.3-4.95l1.65-1.15 2.2-1.1 1.8-0.6 0.35-0.1q3.9-1 8.05 0.15-1.3 3.2-4.1 5.5l-2.45 1.65q-1.55 0.9-2.95 2.05l-0.8 0.2 0.15-0.3-0.3 0.05v0.25q-1.65 0.25-3.3-0.45-1.75 0.75-3.4 1.75l0.95 2.7-0.5 0.15q-1.1 0.45-4 6.55l-0.6-0.3h-0.05l-0.05-0.05 0.05 0.1 0.05 0.05-0.2 1.85 0.6-1.3 0.15 0.2v0.05l0.3 0.75 0.25 0.75 0.85 3q0.65 2.8 0.7 5.5l-0.55 0.05-3.1-1.35-2.45-1.35q-2.6 2.7-5.55-3.4l-0.25-0.5 0.4-0.75-0.4 0.65-0.1 0.15-0.45 0.8q-1.05 2.1-1.35 4.25-0.35 2.15 0 4.35 0.9 5.3 0.85 8.4l-0.3 1.95q-0.4 1.1-1.3 1.55l-1.85-0.2q-0.4-0.45-0.65-1.35-0.8-3.05-0.05-11.25l0.3-3.6 0.1-2.25-0.3-5.75-0.05-0.3-0.05-0.1-0.3-1.5-0.15-0.85-0.1-1-0.15-1.55q0.6-1.45 0.7-3.25v-0.45q0-2.5-1-4.35m40.9-16.65 1-1.9 2.65-4.5q3.1-4.35 7.4-7.5l2.5-1.65q6.3-3.75 13.25-5.15l0.15 0.45-0.65 1q-2.75 0.8-4.75 2.15-2.8 1.8-2.45 3.6 0.25 1.1 1.95 0.45-2.25 2.15-4.9 4-12.8 10.6-1.8 18.4l-6.2 26.3q-0.85 2.55-1.4 5.05-1.25-2-2.6-2.2l-0.45-0.05h-0.1l0.05 0.1 1.1 1.4 0.1 0.1 1.5 2.25 0.05 0.05q-1.1 5.65-0.9 10.5 0.3 6.45 3 11.45l1.7-4.3-0.7 5.9q3.1 4.75 8.7 8 2.5-7.2 3.95 1.95 5.45 2.35 12.7 3.6 0.05-11.85 0.95-12.55 0.7-0.6 5.35 14.95l0.35 1.15 2.8 9.5q0.7-5.6 1.65-8.5l0.35-1q0.9-2.25 2.05-2.2l2.5 0.05 3.75-6.15q-0.35 4.15-0.05 6.2 0.5 3.9 3.2-0.05l2.1-0.1q-0.05-0.7 3.4-8.3 11.85 12.45 10.15 0.85-1.45-9.65 2.9-3.75l2.1 3.15q4.9 8.15 4.7-0.85l-0.85-8.7 0.55 1 0.05 0.05 1.15 2.2h0.05l2.5 4.35q4.5 7.6 6.7 8.8l5.1-7.05 2.75 2.1 3.7 0.75 0.7 0.15 4.2 0.85 19.2 4.25 0.15 0.05 0.2 0.05 4.8 1.25 5.35 1.55 0.35 0.1 0.3 0.1q2.2 0.75 3 1.35l0.1 0.1h0.05l-0.15 0.1-1.3 1.2-0.2 0.05-1.5 0.2-6 0.65-1.45 0.15h-0.05l-14.45 1-8.6 0.35-6.85 0.7q-3.7 0.85-2 2.6 1.55 1.6 7.85 4.05l6 2.15 0.55 0.2 3.05 1.05 1.75 0.65 2.05 0.75q2.95 1.1 4.35 1.85 0.7 0.35 1 0.65 0.9 0.85-2.3 0.7l-6.85-0.8-0.2-0.05-2.85-0.45h-0.2l-0.25-0.05-0.15-0.05-6.7-1.1-2.05-0.35-19.3-3.3q-2.05-0.55-3.55 1.65-1 1.4 4.85 4.85l1.95 1.1 0.75 0.4 3 1.55q1.25 0.65 2.65 1.3l0.35 0.2h0.05q2.3 1.1 3.85 1.95l1 0.55q5.15 2.85-3.5 0.3l-1.95-0.6-0.15-0.05h-0.05l-0.25-0.1-11.15-3.55-0.2-0.05-10-3.3h-0.1l-4.4-1.5q-10.5-3.65-6.1 3.6l0.75 1.25q2.8 4.9 2.15 5.5l-0.45 0.1q-1.9-0.4-4.25-2.9-2.2-2.3-14.95 4.55l-0.15 0.1-0.1 0.05-2.15 1.15-1.95 1.1q-12.55 6.85-7.05 1.55l4.6-4.7 1.35-2 0.15-0.4q0.15-1.45-2.35-3.5l-0.9-0.6q-1.9-0.9-4.9 0l-1.9 0.7-7.95 3.05-6.8 2.3-2.65 0.9 0.75-0.25q-1.9 0.25-3.55 0.8l0.1 0.35-1.4 0.45-0.25 0.1-7.65 1.2-7.6 1.85-10.8 2h-0.1l-2.25 0.25q-5.6 0.4 2-2.8 7.55-3.2 7.3-3.55l-1.3-3.85 0.05-0.9q0.15-1.05 0.75-2.6l0.95-2.1 0.65-1.45q0.8-1.8 0.5-2.45-0.85-2-10.8 0.45l-2.2 0.55-8.4-0.35h-0.15l-3.05-0.05-7.7 1-3.8 0.6-4.45 0.8-0.2-0.9 8.1-2.8q5-1.9 4.65-2.3-0.75-0.9-0.4-1.95 1.7-1.35 1.8-2.3l0.65-0.55q2.05-1.55 4.5-2.6l1.45-0.6 1-0.4 0.9-0.4 0.95-0.55 0.35-0.15v-0.05l2.4-1.35 2.35-1.65v-0.75l-0.1-0.15-0.15 0.15-9.15-0.3-7.2-0.25-0.25-0.3-0.25 0.25-19.45-1.9q0.25-0.4 2.85-0.75l0.15-0.05 0.45-0.05 0.4-0.05 0.15-0.05h0.15l1.95-0.25h0.15l0.2-0.05h0.25l0.25-0.05 8.7-0.85 11.05-0.85 13.4-0.45 0.85-0.5 2.8-1.05 0.65 0.15 1.15 0.15 1.6-1.15v-0.05l-0.1-0.25v-0.05l-0.45-1q-0.7-1-6-1.85h-0.15l-0.15-0.05-3.3-0.45-1.25-0.15-16.1-1.35 27.9-0.2-0.8-1-0.05-0.05-0.3-0.65-0.05-0.15-0.15-0.85 0.1-1.15 0.45-0.55-0.25-0.2 0.6-1.25 0.55-0.65-0.6-0.65q-1.8-2.2-3.15-5.2l-0.55-1.55-1.3-3.7-0.45-1.1-1.7-4.1-2.15-4.3-1.8-2.1 0.4-2.2 0.1-0.35 1.15-6.2 0.25-1.1 0.55-1.9 0.4-0.9q0.9-1.5 2.8-1.1l0.25 0.05 0.4 0.05q1.35 0 3.15-0.95l0.15-0.1 0.15-0.05 0.35-0.25 2-1.05q1.05 0 1.85-0.75l0.3-0.3 0.15-0.25 0.45-0.85 0.25-1.1v-0.45l2.3-1.3 3.75-0.65q1.05-0.1 1.35-0.85l0.15-1.2v-0.1l-0.1-0.75-0.15-0.7 0.7 0.35 1.25 1.65 0.15 0.2q0.65-1.25 1.15-1.65 1.6-1.2 1.7-1.95 0.1-0.9-1.7-2.05-0.65-0.4-1.65-0.5l-2.75 0.2-0.2-0.65-0.55-1.4-0.05-0.1-0.9-2.15-0.15-0.3 0.15-0.25q1.9-0.85 2.1-2.85v-1.65l-0.1-0.65q0.4-2.1-0.6-2.3l-0.05-0.15-0.15-0.3-0.2-0.55m78.3 26.05 5.15-2.85 0.6-0.2 0.2-0.1 0.4-0.15 0.4-0.1 0.65-0.2 0.2-0.05 0.35-0.1 0.65-0.15 3.7-1.4 0.25-0.15 0.15-0.05 0.35-0.15 1.3-2.7 0.55 0.25 0.55-1.5 1.8-1.8 1.2-1.05q2.65-2.2 4.55-2.9l0.1 0.4q-3.3 4.05-5.3 7.45l-0.1 0.05 0.05 0.05q-5.35 9.1-3.65 15.8 2.75-3.65 14.45 1.9l-1.2 1.95-0.2 0.1-0.25 0.15-0.1 0.05q-1.6 0.9-4.6-0.55-2.75-1.3-3.95-1.45h-0.45q-0.95 0.15-4.65 2.8l-0.35 0.25q-2.4 1.7-3.8 2l-1.2-0.05q-0.45-0.2-0.6-0.8v-0.15l1.05-3.4 0.2-0.65 0.5-2.5h0.05v-0.15l0.1-1.7 0.15-0.4-0.8 2-0.55 1.85-0.05 0.25h-0.05q-1.25 3.65-0.25 1.1-0.6 2.45-0.35 3.6l-0.5 0.5-5.3 5.4-0.05 0.1-0.15 0.25-0.2 0.3-0.15 0.3-0.3-0.2q-0.45-4.65-1.7-9.5l-0.05-0.2-0.15-0.7v-0.3l-0.1-2.6q0.1-2.5 0.65-6.2l0.15-0.95 0.35-0.55 0.3-0.25m11.8-4.45 0.15-0.2-0.7 0.35h0.5l0.05-0.15m-47.05 36.95q0.75-0.65 1.6-0.75l0.95 0.3q0.85 0.35 1.4 1.1l0.65 0.65 5.2-0.35 1.05 0.35 0.2 0.1q1.25 0.7 1.8 2.2l0.1 0.5-0.45 1.65-0.65 0.95q-1.55 0.85-2.9 1.35-4.4 1.65-7.1 0-1.05-0.65-1.85-1.75-0.95-1.3-1.55-3.3 0.15-1.6 1.3-2.8l0.25-0.2m10.85 1.3-0.3 0.35-2.65 0.95-5.05-0.25 5.05 0.25 2.65-0.95 0.3-0.35m-20.5 36.8 0.35-0.1-0.5 0.15 0.15-0.05m16.5 0.3 0.8 0.05-0.3-0.5-0.05 0.05-0.45 0.4m20.6-3.95-0.25 0.05 0.65-0.05 0.15-0.1-0.3 0.05-0.25 0.05m15.4-21.9-0.15 0.3 0.15-0.3m-28.6 48.95q0 1.25-1.6 2.15-1.55 0.9-3.8 0.9t-3.85-0.9q-1.55-0.9-1.55-2.15 0-0.9 0.85-1.6l0.7-0.55q1.6-0.9 3.85-0.9t3.8 0.9q0.7 0.4 1.1 0.9 0.5 0.55 0.5 1.25m-61.65-88.7-0.05 0.15-0.1 0.85 0.15-1m0.3-1.8-1.5 0.8 1.3 0.5-0.05 0.2 0.25-1.5m-21.5-0.9h-0.05q-0.85-0.65-2.35-0.45l1.1 0.25 0.85 0.15h0.35l0.1 0.05m-14.05-13.2v0.3l-0.1 1 0.35 0.05-0.25-1.4v0.05m6.25 15.15v-0.05l1.1-6.05 0.75-4.4-0.8 4.2-1.45 6.75-0.1 0.25 0.35-0.05 0.25-0.25-0.1-0.4m0.8 0.1 0.05-0.4-0.4 0.3 0.35 0.1m20.45 47.25 0.5 0.65v-0.05l-0.5-0.6m9.2-2.3-2.45-1.35-0.95-0.6-0.25-0.2-0.9-0.65-1.45-1.25-0.05-0.05 0.05 0.05 1.45 1.25 0.9 0.65 0.25 0.2 0.95 0.6 2.45 1.35m-14.9 31.6 1.3 0.85-2.7 0.1q-5.25 0.05-0.4-0.65l1.8-0.3m37.65-10.55h-1.15l0.85 0.1 0.3-0.1" fill="#7e6130" fill-rule="evenodd"/>
<path d="m266.05 19.75-0.1 0.2-0.15-0.35 0.25 0.15m-14.65-13.7v-0.05l0.25 1.4-0.35-0.05 0.1-1v-0.3m6.35 15.55-0.25 0.25 0.05-0.2 0.2-0.05" fill="#c78d56" fill-rule="evenodd"/>
<path d="m278.25 68.4 0.5-0.15 0.2-0.1 2.7-0.65v0.05l-1.6 1.15-1.15-0.15-0.65-0.15m-6.75-4.55-1.25-0.15 1.25 0.15m15.15-41.9-0.15 1 0.1-0.85 0.05-0.15" fill="#c08850" fill-rule="evenodd"/>
<path d="m266.15 19.6-0.1 0.15-0.25-0.15-0.3-0.3h0.05l0.6 0.3" fill="#5c62a3" fill-rule="evenodd"/>
<path d="m256.05-6.05v-0.3l0.05-0.45q0.3-2.05 2.7-6.7t7.9-7.7l0.4-0.25q3.35-1.75 6.8-1.85l0.1 0.7v-0.7l3.95 0.5 1.65 0.5 0.2 0.1q4.4 1.65 7.05 5.6l2.65 4.2 1.5 3-0.05 0.1 0.25 0.45 0.15 0.3 0.05 0.15 0.5 1.9-0.1 1.05-0.5 1.55-0.85 1.4-1.45 1.65-0.1 0.1-0.15 0.1 0.9-0.2 0.15-0.05 0.05 0.2 0.15 0.3 0.9 2.15 0.05 0.1 0.55 1.4-0.1 0.1 0.3 0.55 4.4 0.3 1.7 2.05-1.7 1.95q-0.5 0.4-1.15 1.65l-0.15-0.2-1.25-1.65-0.7-0.35 0.15 0.7 0.1 0.75v0.1l-0.15 1.2q-0.3 0.75-1.35 0.85l-3.75 0.65-2.3 1.3-1.35 0.75 0.4 1.05 0.05 0.3-0.05 0.15-0.2 0.7q-0.8 0.75-1.85 0.75l-2 1.05-0.35 0.25-0.15 0.05-0.15 0.1q-1.8 0.95-3.15 0.95l-0.4-0.05-0.25-0.05q-1.9-0.4-2.8 1.1l-0.4 0.9-0.55 1.9-0.25 1.1-1.15 6.2-0.1 0.35-0.4 2.2q-1.25 5.25-2.35 5.25t-0.75-1.8q0.65-2.6 0.75-4.2l0.1-1.75v-0.25q-0.05-2.7-0.7-5.5l-0.85-3-0.25-0.75-0.3-0.75v-0.05l-0.15-0.2 0.1-0.2 0.1-0.15q2.9-6.1 4-6.55l0.5-0.15-0.95-2.7q1.65-1 3.4-1.75 1.65 0.7 3.3 0.45l0.1 0.1 0.05-0.1 0.8-0.2q1.4-1.15 2.95-2.05l2.45-1.65q2.8-2.3 4.1-5.5-4.15-1.15-8.05-0.15l-0.35 0.1-1.8 0.6-2.2 1.1-1.65 1.15q-2.4 3.4-4.3 4.95-2.7-0.4-3.8 1.05l-0.15-0.1 0.15-0.6-0.4 0.45q-0.6-0.5-1.1-1.5l-2.95-6q-0.25-0.6-0.6-0.45l-0.55 0.1q-3.1 0.45-3.45-4.5v-0.2l0.3-0.25v-0.5l0.1-0.8m62-24.1 8.1-0.9h4.9l3 0.3q7.3 0.9 13.95 4.4 9.05 4.65 14.55 13.05l1.85 2.7q6.65 10.1 5.15 21.95l-0.75 5.15-0.05 0.45-0.05 0.15-0.05 0.35-0.15 0.95q-0.55 3.7-0.65 6.2l0.1 2.6v0.3l0.15 0.7 0.05 0.2q1.25 4.85 1.7 9.5l0.2 6.45 1.15 0.7 0.15 0.1q4.05 2.7 4.15 7.55v1.15l-1.7 0.9-0.55-1 0.85 8.7q0.2 9-4.7 0.85l-2.1-3.15q-4.35-5.9-2.9 3.75 1.7 11.6-10.15-0.85-3.45 7.6-3.4 8.3l-2.1 0.1-3.2 0.05q-0.3-2.05 0.05-6.2l-3.75 6.15-2.5-0.05q-1.15-0.05-2.05 2.2l-0.35 1q-0.95 2.9-1.65 8.5l-2.8-9.5-0.35-1.15q-4.65-15.55-5.35-14.95-0.9 0.7-0.95 12.55-7.25-1.25-12.7-3.6-1.45-9.15-3.95-1.95-5.6-3.25-8.7-8l0.7-5.9-1.7 4.3q-2.7-5-3-11.45-0.2-4.85 0.9-10.5l0.35-1.65-1.65-0.6-0.1-0.05-0.25-0.1-1.1-1.4-0.05-0.1h0.1l0.45 0.05q1.35 0.2 2.6 2.2 0.55-2.5 1.4-5.05l6.2-26.3q-11-7.8 1.8-18.4 2.65-1.85 4.9-4-1.7 0.65-1.95-0.45-0.35-1.8 2.45-3.6 2-1.35 4.75-2.15l0.65-1 0.1-0.5m75.05 31.2 2 0.15q1.85 0.95-0.85 7.65t-1.15 5.8q1.55-0.95 2.2-1.15l1.05-0.3 3.65 0.15q3.7 0.8 3.95 2.15 0.25 1.3-4.35 3.45-2.8 1.25-3.25 2.25-0.3 0.65 0.35 1.15 1.7 1.3 1.55 3.5v0.2l-0.05 0.3-0.35 0.6q-11.7-5.55-14.45-1.9-1.7-6.7 3.65-15.8l0.15-0.05q0.7-0.35-0.1-0.05 2-3.4 5.3-7.45l0.45-0.45 0.25-0.2m-15.05 54.25 17.5-0.5 0.25 0.95-14.6 3.6h-0.05l0.05 0.15 0.05 0.1 0.1 0.25 0.3 0.8 0.85-0.25 9.35-0.7 7.65-0.35q16.15-0.4-2.55 4.65l-1.45 0.35-3.4 0.85-2.75-2.1-5.1 7.05q-2.2-1.2-6.7-8.8l-2.5-4.35 3-1.7m-127.25-36.6-3.4-1.85q-4.5-2.55-4.5-5.25t1.2-4.65q1.2-1.9 2.9-1.9t2.9 1.9l0.2 0.3q1 1.85 1 4.35v0.45q-0.1 1.8-0.7 3.25l0.15 1.55 0.1 1 0.15 0.85m12-24.9 0.35 0.1 0.4 0.1 0.05-0.05-0.8-0.15m3.6-8.1v-0.15l0.05-0.5-0.3 0.6 0.2 0.05h0.05m70.1-4.25 0.1 0.35 0.15-0.05-0.25-0.3m40.65 45.1 0.05-0.25 0.55-1.85 0.8-2-0.15 0.4-0.1 1.7-0.2 0.25 0.15-0.1-0.5 2.5-0.2 0.65-1.05 3.4q-0.25-1.15 0.35-3.6l0.05-0.15 0.05-0.3 0.15-0.55 0.05-0.1m-10.15 0.65-0.05-0.2q-0.1-0.15-0.75 0.4h0.05l0.75 0.35 0.05-0.2-0.05-0.35m2.9 19.9h0.1l-0.1-0.2v0.2m-6.45-33.05h-0.05v0.15l0.05-0.15m-18.65 28.2q-1.85-5.05-1.5-9.9l-6.4 1.5q-1.6 3.85-0.25 9.6l0.4 1.55 0.4 1.2q4.05 0.65 7.9-2.65l-0.05-0.1-0.5-1.2m-10.75 6.9-0.25 0.2q-1.15 1.2-1.3 2.8 0.6 2 1.55 3.3 0.8 1.1 1.85 1.75 2.7 1.65 7.1 0 1.35-0.5 2.9-1.35l0.65-0.95 0.45-1.65-0.1-0.5q-0.55-1.5-1.8-2.2l-0.2-0.1-1.05-0.35-5.2 0.35-0.65-0.65q-0.55-0.75-1.4-1.1l-0.95-0.3q-0.85 0.1-1.6 0.75m-15.9-27.75 0.2 0.35-0.15-0.35h-0.05m-11.05-3.7-0.25-0.3-0.1 0.6 0.35-0.3m-21.5-9.9-1.15-0.75 0.25 0.25q0.45 0.4 1 0.6l-0.1-0.1" fill="#b98e46" fill-rule="evenodd"/>
<path d="m257.15 84.4q2.05-1.55 4.5-2.6l1.45-0.6 1-0.4 0.9-0.4 0.95-0.55 0.35-0.2 2.4-1.35 2.35-1.65v-0.75h-0.25l-9.15-0.3-7.2-0.25m-0.5-0.05-19.45-1.9q0.25-0.4 2.85-0.75l0.15-0.05 0.45-0.05 0.4-0.05 0.15-0.05h0.15l1.95-0.25h0.15l0.2-0.05h0.25l0.25-0.05 8.7-0.85 11.05-0.85 13.4-0.45m0.85-0.5 2.8-1.05 0.5-0.15 0.2-0.1 2.7-0.65-0.1-0.25v-0.05l-0.45-1q-0.7-1-6-1.85h-0.15l-0.15-0.05-3.3-0.45m-1.25-0.15-16.1-1.35 27.9-0.2-0.8-1-0.05-0.05-0.3-0.65-0.05-0.15-0.15-0.85 0.1-1.15 0.2-0.75 0.6-1.25 0.55-0.65m54.9-10.65q0.75-0.95 1.7-1.55 2.4-1.6 6.05-1.2-1.85-5.05-1.5-9.9l-6.4 1.5q-1.6 3.85-0.25 9.6l0.4 1.55 0.4 1.2q4.05 0.65 7.9-2.65l-0.05-0.1-0.5-1.2m-7.9 9.25 5.05 0.25 2.65-0.95 0.3-0.35m3.4 60.2q0 1.25-1.6 2.15-1.55 0.9-3.8 0.9t-3.85-0.9q-1.55-0.9-1.55-2.15 0-0.9 0.85-1.6l0.7-0.55q1.6-0.9 3.85-0.9t3.8 0.9q0.7 0.4 1.1 0.9 0.5 0.55 0.5 1.25m-78.05-46.95 1.25 0.15m10.55-1.7 0.05 0.05 1.45 1.25 0.9 0.65 0.25 0.2 0.95 0.6 2.45 1.35m-12.65 3.2-0.85 0.5" fill="none" stroke="#5a3c1f" stroke-linecap="round" stroke-linejoin="round" stroke-width=".05"/>
<path d="m313.75 1q0.25-2.2 2.1-4.45 2.55-3 6.55-4.3l7.1-0.25 0.55 0.2" fill="none" stroke="#5a3c1f" stroke-linecap="round" stroke-linejoin="round" stroke-width="2"/>
<path d="m350.8-10.7 0.45-0.2q2.65-0.8 5.75 0.8 3.1 1.55 4.85 4.7 0.9 1.5 1.15 2.95" fill="none" stroke="#5a3c1f" stroke-linecap="round" stroke-linejoin="round" stroke-width="2"/>
<path d="m347 34.5 5.1 2.65-2.65 5.1-5.1-2.65 2.65-5.1" fill="#630" fill-rule="evenodd"/>
<path d="m337.5 45.15v-12l14-3v12q-5.2-3.95-14 3" fill="#630" fill-rule="evenodd"/>
<path d="m351.5 44v2.15q0 2.9-2.05 5.4t-4.95 3.1-4.95-1-2.05-4.5v-2.6q7.65 0.8 14-2.55" fill="#f00" fill-rule="evenodd"/>
<path d="m337.5 45.15q8.8-6.95 14-3v1.85q-6.35 3.35-14 2.55v-1.4" fill="#fe4343" fill-rule="evenodd"/>
</g>
<g id="a" transform="translate(127.3,-101.35)">
<path d="m-127.3 102.25 0.1-0.35 0.35-0.15q0.2 0 0.3 0.15l0.15 0.35-0.15 0.3q-0.1 0.15-0.3 0.15l-0.35-0.15-0.1-0.3m4.15-0.75 0.15 0.35-0.15 0.3-0.35 0.15-0.3-0.15-0.15-0.3 0.15-0.35q0.15-0.15 0.3-0.15 0.2 0 0.35 0.15" fill-rule="evenodd"/>
</g>
</defs>
</svg>
