<?xml version="1.0" encoding="UTF-8"?>
<svg version="1.1" viewBox="0 0 94.553 125.45" xmlns="http://www.w3.org/2000/svg" xmlns:cc="http://creativecommons.org/ns#" xmlns:dc="http://purl.org/dc/elements/1.1/" xmlns:rdf="http://www.w3.org/1999/02/22-rdf-syntax-ns#" xmlns:xlink="http://www.w3.org/1999/xlink">
<metadata>
<rdf:RDF>
<cc:Work rdf:about="">
<dc:format>image/svg+xml</dc:format>
<dc:type rdf:resource="http://purl.org/dc/dcmitype/StillImage"/>
</cc:Work>
</rdf:RDF>
</metadata>
<g transform="translate(-228.2,-137.75)">
<use transform="translate(228.2,137.75)" width="94.550003" height="125.45" xlink:href="#a"/>
<use transform="translate(236.35,152)" width="77.75" height="98.349998" xlink:href="#b"/>
</g>
<defs>
<g id="a" transform="translate(47.25,62.7)">
<use transform="translate(-47.25,-62.7)" width="94.550003" height="125.45" xlink:href="#c"/>
</g>
<g id="c" transform="translate(47.25,62.7)">
<path d="m-39.4-56.85q1.05-2.75 4.25-3.6l0.9-0.2q-0.2 5.15-1.8 11-2.2-3.2-3.35-7.2m7-3 0.85-2.35h1.4q0.35 1.45 1.3 2.8l2.55-2.8h4.3q-2.75 6.8-6.35 13.85l-4.05-11.5m15.6-2.35h1.6q3.5 1.6 7.7 1.4l3.85-0.6 3.15-0.8h3.55q-2.55 6.45-7.55 8.55-2.65-3.8-3-6.2l-6.4 9.8q-0.95-6.1-2.9-12.15m22.35 0h8q-1.05 5.6-0.2 13.85-4.5-5.5-7.8-13.85m10.65 0h4.1q-1.35 1.55-2.25 4.45-0.65-2.35-1.85-4.45m6.6 0h4.95q2.75 3.55 2 10.8 2.1-5.15 6.3-10.05l0.65-0.75h2.4q-3.4 4.35-6.35 8.95l-1.85 2.65-0.05 0.05-3.45 3.9q-1.55-7.65-4.6-15.55m8.55 61.5q0.65 1 0.65 2.4t-0.65 2.4-1.55 1-1.55-1-0.65-2.4 0.65-2.4 1.55-1 1.55 1m13.05 31.3q-0.1 0.65-0.05 1.4 0.45 5.75 0.4 11.5 0 2 0.4 3.8l-1.45 5.1q-1.35 4-5.25 6.6-2.9 0.5-4.95 3.25h-3.6q-2.55-7.4-5.9-13.55-1.1 5.55-3 10.2-1.65-4.4-2.55-8.9-1.8 6-2.5 12.25h-2.05l-3.1-11.85q-1.1 5.9-2.75 11.85h-3.25q-1.45-4.4-2.5-8.85 0.35 4.7-0.4 8.85h-5l-1.05-3.4q-1.1-3.9-1.6-7.4l-1.5-2.85q-0.75 0.6-1.9 0.95-3.1 5.55-3.75 12.7h-2.35q-0.65-5.3 1.8-10.55-4.2 4.85-5.8 10.55h-8.9q-0.3-3.6-1.05-7.15-3.15 3.15-4.4 7.15h-0.35q-0.05-5.3-2.2-9.9-1.4-3.05-3.7-5.75l-2.7 7.15-0.95 2.85q-2.2-5.1-2.85-10.7l2.7-0.7-0.05-0.75q0-2.8 2.75-4.8 1.55-1.15 3.5-1.6l-0.1-0.85q0-2.1 2.05-3.6 1.95-1.4 4.7-1.45-1.45-1.65-1.45-3.9 0-2.6 1.95-4.45 2-1.85 4.8-1.85t4.75 1.85q1 0.95 1.5 2.05t0.5 2.4q0 1.25-0.45 2.35l3.65-0.45q-0.45 0.8-0.45 1.75 0 1.3 0.8 2.3h-0.2q-1.7 0-2.9 1.15-1.15 1.2-1.15 2.9l0.05 0.6-1.95-0.4q-2.4 0-4.1 2.05-1.65 2.1-1.65 5t1.65 4.95q1.7 2.1 4.1 2.1t4.05-2.1q1.7-2.05 1.7-4.95 0-1.8-0.65-3.25l0.85 0.05q1.7 0 2.85-1.2 1.2-1.15 1.2-2.85 0-1.35-0.7-2.35l0.75 0.05q1.95 0 3.3-1.2 0.95-0.8 1.25-1.8 2.5 2 2.5 4.7l-0.25 1.65 2.9-0.45q2.15 0 3.9 0.85l1.1-1.2q0.85-0.7 1.9-1.05 0.25-1.75 1.85-3 1.95-1.5 4.7-1.5l2.75 0.45q0.4-1 1.05-1.85 1.9-2.5 4.55-2.5t4.5 2.5l0.6 0.85-0.05-0.55q0-2.2 1.75-3.8 1.75-1.55 4.25-1.55t4.25 1.55l0.9 1.05q0.2-2 0.95-3.5 1-2 2.4-2t2.4 2 1 4.8v0.1l1.25 0.1m-27.8 8.9q-0.75 0.7-1 1.6l-0.55-0.05q-1.05 0-1.8 0.5t-0.75 1.2 0.75 1.2 1.8 0.5l1.4-0.25 0.15 0.1q1.15 1 2.75 1t2.7-1q1.15-1 1.15-2.4t-1.15-2.4q-1.1-1-2.7-1t-2.75 1m21.35 2.05q-1.2-1.7-2.9-1.7l-0.65 0.1q-1.3 0.25-2.25 1.6-1.2 1.7-1.2 4.1t1.2 4.1 2.9 1.7h0.4q0.15 0.75 0.7 1.4 0.85 1 2.05 1t2.05-1 0.85-2.4l-0.2-1.3-0.65-1.1q-0.55-0.65-1.2-0.85l0.1-1.55q0-2.4-1.2-4.1" fill="#ceb38c" fill-rule="evenodd"/>
<path d="m-34.25-60.65q1.4-0.15 1.85 0.85v-0.05l4.05 11.5q3.6-7.05 6.35-13.85h5.2q1.95 6.05 2.9 12.15l6.4-9.8q0.35 2.4 3 6.2 5-2.1 7.55-8.55h2.5q3.3 8.35 7.8 13.85-0.85-8.25 0.2-13.85h2.65q1.2 2.1 1.85 4.45 0.9-2.9 2.25-4.45h2.5q3.05 7.9 4.6 15.55l3.45-3.9 0.05-0.05 1.85-2.65q2.95-4.6 6.35-8.95h7.35v41.5l-0.05 1-0.95-0.05v-0.8q-0.25-3-2.05-5.2-2.05-2.45-4.95-2.45-2.55 0-4.45 1.95l1.35 1.05q1.45 1.55 1.45 3.75t-1.45 3.75q-1.4 1.55-3.4 1.55t-3.45-1.55q-1.4-1.55-1.4-3.75v-0.15l-1.3 1.25-0.75 1.25-0.7-0.75q-3.25-3.1-7.85-3.1-2.35 0-4.3 0.8-0.9-3.05-3.55-5.45-3.25-2.9-7.6-3.4-0.25 1.2-1.55 2.15-1.55 1.15-3.75 1.15t-3.8-1.15l-0.35-0.25-2.05 1.5q-2.3 2.05-3.25 4.65-2.55-0.9-5.55-0.9-5.8 0-9.9 3.3-3.8 3.1-4.05 7.35-1.8 0.3-3.15 1.8l-0.8 1.15q-1.05-0.65-2.35-0.65-2 0-3.45 1.5-1.4 1.5-1.4 3.6h-2.15l0.15-7 1.1-2.8q1.75-3.65 1.8-7.95 0.1-6.9-1.85-12.7l-1.05-4.45v-21.5h5.35l1.15 9.35q-0.15-2.35 0.45-4 1.15 4 3.35 7.2 1.6-5.85 1.8-11m79.45 57.85q0.05 4.65 1.25 9.2v4.4l-0.55-0.45-5.6-13.15h4.9m-78.9-33.15q0 1 0.85 1.7 0.85 0.75 2.05 0.75t2.05-0.75q0.85-0.7 0.85-1.7t-0.85-1.75q-0.85-0.7-2.05-0.7t-2.05 0.7q-0.85 0.75-0.85 1.75m-5.9-15.05-0.25-1.85 0.25 1.85m23.2 15.45-1.35-0.4q-0.8 0-1.4 0.4-0.55 0.45-0.55 1.05t0.55 1q0.6 0.45 1.4 0.45t1.35-0.45q0.6-0.4 0.6-1t-0.6-1.05m22.2-14.95 0.05 0.8q0 1.5-0.7 2.55-0.7 1.1-1.7 1.1t-1.7-1.1q-0.7-1.05-0.7-2.55v-0.05l-0.2 0.2q-1.25 1.45-1.25 3.45t1.25 3.4q1.3 1.45 3.1 1.45t3.05-1.45q1.3-1.4 1.3-3.4t-1.3-3.45l-1.2-0.95m-9.35 42.1q-1.1 0-1.9-0.65-0.75-0.65-0.75-1.55t0.75-1.55q0.8-0.65 1.9-0.65t1.85 0.65q0.8 0.65 0.8 1.55t-0.8 1.55q-0.75 0.65-1.85 0.65m16.7-11.1q2 0 3.4 1.55 1.45 1.55 1.45 3.75t-1.45 3.75q-1.4 1.55-3.4 1.55t-3.45-1.55q-1.4-1.55-1.4-3.75t1.4-3.75q1.45-1.55 3.45-1.55m-59.85 32.35 2.45-2.3 0.35 0.7-2.8 1.6m63.7 0.9q0.8 0 1.35 0.65l0.35 0.45 0.25 1.1q0 0.9-0.6 1.55-0.55 0.65-1.35 0.65t-1.4-0.65q-0.55-0.65-0.55-1.55t0.55-1.55q0.6-0.65 1.4-0.65m-10.65 6.3q-0.6 0-1.05-0.7-0.4-0.7-0.4-1.7t0.4-1.7q0.45-0.7 1.05-0.7t1 0.7q0.45 0.7 0.45 1.7t-0.45 1.7q-0.4 0.7-1 0.7m-21.95-2.4q1.3 0 2.2 1.25 0.95 1.3 0.95 3.1t-0.95 3.05q-0.9 1.3-2.2 1.3t-2.25-1.3q-0.9-1.25-0.9-3.05t0.9-3.1q0.95-1.25 2.25-1.25" fill="#d6c19f" fill-rule="evenodd"/>
<path d="m46.4-19.7q-0.25 5.95-0.9 11.35-0.35 2.8-0.3 5.55h-4.9l-9.35 13.85q-1.7 2.4-2.8 4.45-4.35-9.8-11.55-16.35-0.8 4.05-3.15 2.75l-6.05 3.25q0.1-4.85-3.55-5.6-7.5 4.8-13.15 11.2-2.35-6.05-7.6-9.4-1.75 3.45-4.35 2.2-4.15 10.8-8.8-0.25-0.65-1.55-1.55-2.95 0.45 8.5-6.5 10.95-1.1-5-3.9-7.35-2.9 4.3-4.75 2.9l0.25-12.65h2.15q0-2.1 1.4-3.6 1.45-1.5 3.45-1.5 1.3 0 2.35 0.65l0.8-1.15q1.35-1.5 3.15-1.8 0.25-4.25 4.05-7.35 4.1-3.3 9.9-3.3 3 0 5.55 0.9 0.95-2.6 3.25-4.65l2.05-1.5 0.35 0.25q1.6 1.15 3.8 1.15t3.75-1.15q1.3-0.95 1.55-2.15 4.35 0.5 7.6 3.4 2.65 2.4 3.55 5.45 1.95-0.8 4.3-0.8 4.6 0 7.85 3.1l0.7 0.75 0.75-1.25 1.3-1.25v0.15q0 2.2 1.4 3.75 1.45 1.55 3.45 1.55t3.4-1.55q1.45-1.55 1.45-3.75t-1.45-3.75l-1.35-1.05q1.9-1.95 4.45-1.95 2.9 0 4.95 2.45 1.8 2.2 2.05 5.2v0.8l0.95 0.05m-80.1-16.25q0-1 0.85-1.75 0.85-0.7 2.05-0.7t2.05 0.7q0.85 0.75 0.85 1.75t-0.85 1.7q-0.85 0.75-2.05 0.75t-2.05-0.75q-0.85-0.7-0.85-1.7m39.5-14.55 1.2 0.95q1.3 1.45 1.3 3.45t-1.3 3.4q-1.25 1.45-3.05 1.45t-3.1-1.45q-1.25-1.4-1.25-3.4t1.25-3.45l0.2-0.2v0.05q0 1.5 0.7 2.55 0.7 1.1 1.7 1.1t1.7-1.1q0.7-1.05 0.7-2.55l-0.05-0.8m-22.2 14.95q0.6 0.45 0.6 1.05t-0.6 1q-0.55 0.45-1.35 0.45t-1.4-0.45q-0.55-0.4-0.55-1t0.55-1.05q0.6-0.4 1.4-0.4l1.35 0.4m29.55 16.05q-2 0-3.45 1.55-1.4 1.55-1.4 3.75t1.4 3.75q1.45 1.55 3.45 1.55t3.4-1.55q1.45-1.55 1.45-3.75t-1.45-3.75q-1.4-1.55-3.4-1.55m-16.7 11.1q1.1 0 1.85-0.65 0.8-0.65 0.8-1.55t-0.8-1.55q-0.75-0.65-1.85-0.65t-1.9 0.65q-0.75 0.65-0.75 1.55t0.75 1.55q0.8 0.65 1.9 0.65m34.9 7.7q-0.65-1-1.55-1t-1.55 1-0.65 2.4 0.65 2.4 1.55 1 1.55-1 0.65-2.4-0.65-2.4m-75.25 11.95q4.5 8.2 12.1 2.2 9 4.3 11.1-3.05 7.7-4.1 9.15 3.4 0.35 1.75 0.95 2.65 1.8 2.6 6-2.65 2.05-2.55 4.9-4.45 1.65-1.05 2.75-2.5 5.1 6.95 12.95 1.65 3.15-2.1 4.95 0.2 0.8 0.95 1.1 2.5l0.55 2.15q2.2 6.95 9 6.1 4.85-15.85 14.85-6.95v15.25q-1.75 0.85-2.05 2.85l-1.25-0.1v-0.1q0-2.8-1-4.8t-2.4-2-2.4 2q-0.75 1.5-0.95 3.5l-0.9-1.05q-1.75-1.55-4.25-1.55t-4.25 1.55q-1.75 1.6-1.75 3.8l0.05 0.55-0.6-0.85q-1.85-2.5-4.5-2.5t-4.55 2.5q-0.65 0.85-1.05 1.85l-2.75-0.45q-2.75 0-4.7 1.5-1.6 1.25-1.85 3-1.05 0.35-1.9 1.05l-1.1 1.2q-1.75-0.85-3.9-0.85l-2.9 0.45 0.25-1.65q0-2.7-2.5-4.7-0.3 1-1.25 1.8-1.35 1.2-3.3 1.2l-0.75-0.05q0.7 1 0.7 2.35 0 1.7-1.2 2.85-1.15 1.2-2.85 1.2l-0.85-0.05q0.65 1.45 0.65 3.25 0 2.9-1.7 4.95-1.65 2.1-4.05 2.1t-4.1-2.1q-1.65-2.05-1.65-4.95t1.65-5q1.7-2.05 4.1-2.05l1.95 0.4-0.05-0.6q0-1.7 1.15-2.9 1.2-1.15 2.9-1.15h0.2q-0.8-1-0.8-2.3 0-0.95 0.45-1.75l-3.65 0.45q0.45-1.1 0.45-2.35 0-1.3-0.5-2.4t-1.5-2.05q-1.95-1.85-4.75-1.85t-4.8 1.85q-1.95 1.85-1.95 4.45 0 2.25 1.45 3.9-2.75 0.05-4.7 1.45-2.05 1.5-2.05 3.6l0.1 0.85q-1.95 0.45-3.5 1.6-2.75 2-2.75 4.8l0.05 0.75-2.7 0.7-0.35-33.05 2.8-1.6m60.9 2.5q-0.8 0-1.4 0.65-0.55 0.65-0.55 1.55t0.55 1.55q0.6 0.65 1.4 0.65t1.35-0.65q0.6-0.65 0.6-1.55l-0.25-1.1-0.35-0.45q-0.55-0.65-1.35-0.65m-0.4 25.75q1.15-1 2.75-1t2.7 1q1.15 1 1.15 2.4t-1.15 2.4q-1.1 1-2.7 1t-2.75-1l-0.15-0.1-1.4 0.25q-1.05 0-1.8-0.5t-0.75-1.2 0.75-1.2 1.8-0.5l0.55 0.05q0.25-0.9 1-1.6m-32.2-21.85q-1.3 0-2.25 1.25-0.9 1.3-0.9 3.1t0.9 3.05q0.95 1.3 2.25 1.3t2.2-1.3q0.95-1.25 0.95-3.05t-0.95-3.1q-0.9-1.25-2.2-1.25m21.95 2.4q0.6 0 1-0.7 0.45-0.7 0.45-1.7t-0.45-1.7q-0.4-0.7-1-0.7t-1.05 0.7q-0.4 0.7-0.4 1.7t0.4 1.7q0.45 0.7 1.05 0.7" fill="#d3bb97" fill-rule="evenodd"/>
<path d="m45.15 47.3 0.15 0.55q0.4 1.6 1.15 3.1v11.3h-12.95q2.05-2.75 4.95-3.25 3.9-2.6 5.25-6.6l1.45-5.1m-15.25 14.95h-1.55q-2.25-0.6-1.7-3.95-1 2.85-4.8 3.55l-1.3-2.85-2.35-3.95-0.1 7.2h-2.15q0.7-6.25 2.5-12.25 0.9 4.5 2.55 8.9 1.9-4.65 3-10.2 3.35 6.15 5.9 13.55m-16 0h-5.85q1.65-5.95 2.75-11.85l3.1 11.85m-9.1 0h-2.9q0.75-4.15 0.4-8.85 1.05 4.45 2.5 8.85m-10.55-10.8-1.65 3.35-3.3 7.45h-2.2q0.65-7.15 3.75-12.7 1.15-0.35 1.9-0.95l1.5 2.85m-9.5 10.8h-4q1.6-5.7 5.8-10.55-2.45 5.25-1.8 10.55m-12.9 0h-5.45q1.25-4 4.4-7.15 0.75 3.55 1.05 7.15m-5.8 0h-3.25q-0.9-2.3-1.2-4.45-0.15 2.3-0.55 4.45h-2.9q-0.45-2.8-1.65-5.6v-0.05l0.95-2.85 2.7-7.15q2.3 2.7 3.7 5.75 2.15 4.6 2.2 9.9m-4.55-8.8 0.1-0.8-0.1 0.8q-0.25 2.1 0.1 4.35 0.1-2.1 0.05-4.35h-0.15" fill="#ba997a" fill-rule="evenodd"/>
<path d="m-39.4-56.85q1.05-2.75 4.25-3.6l0.9-0.2q1.4-0.15 1.85 0.85v-0.05l0.85-2.35h1.4q0.35 1.45 1.3 2.8l2.55-2.8h11.1q3.5 1.6 7.7 1.4l3.85-0.6 3.15-0.8h28.25q2.75 3.55 2 10.8 2.1-5.15 6.3-10.05l0.65-0.75h9.75v8q0.4 8.35 0.05 15.55l-0.05 1.3v16.65l-0.05 1q-0.25 5.95-0.9 11.35-0.35 2.8-0.3 5.55 0.05 4.65 1.25 9.2l0.1 0.35q0.55 2.05-0.1 3.2v0.85m-0.55-0.45-5.6-13.15-9.35 13.85q-1.7 2.4-2.8 4.45-4.35-9.8-11.55-16.35-0.8 4.05-3.15 2.75l-6.05 3.25q0.1-4.85-3.55-5.6-7.5 4.8-13.15 11.2-2.35-6.05-7.6-9.4-1.75 3.45-4.35 2.2-4.15 10.8-8.8-0.25-0.65-1.55-1.55-2.95 0.45 8.5-6.5 10.95-1.1-5-3.9-7.35-2.9 4.3-4.75 2.9l0.25-12.65 0.15-7 1.1-2.8q1.75-3.65 1.8-7.95 0.1-6.9-1.85-12.7l-1.05-4.45v-21.5h5.35l1.15 9.35q-0.15-2.35 0.45-4m-0.45 4 0.25 1.85m86.05-3.2v16.85m-90.35 48.6q4.5 8.2 12.1 2.2 9 4.3 11.1-3.05 7.7-4.1 9.15 3.4 0.35 1.75 0.95 2.65 1.8 2.6 6-2.65 2.05-2.55 4.9-4.45 1.65-1.05 2.75-2.5 5.1 6.95 12.95 1.65 3.15-2.1 4.95 0.2 0.8 0.95 1.1 2.5l0.55 2.15q2.2 6.95 9 6.1 4.85-15.85 14.85-6.95v15.25q-1.75 0.85-2.05 2.85-0.1 0.65-0.05 1.4 0.45 5.75 0.4 11.5 0 2 0.4 3.8l0.15 0.55q0.4 1.6 1.15 3.1v11.3h-18.1q-2.25-0.6-1.7-3.95-1 2.85-4.8 3.55l-1.3-2.85-2.35-3.95-0.1 7.2h-21.2l-1.05-3.4q-1.1-3.9-1.6-7.4l-1.65 3.35-3.3 7.45h-26.5q-0.9-2.3-1.2-4.45-0.15 2.3-0.55 4.45h-2.9q-0.45-2.8-1.65-5.6v-0.05q-2.2-5.1-2.85-10.7l-0.35-33.05 2.45-2.3 0.35 0.7m90.35-4.85v3.55m-8.5 31.6q1.2 1.7 1.2 4.1l-0.1 1.55q0.65 0.2 1.2 0.85l0.65 1.1 0.2 1.3q0 1.4-0.85 2.4t-2.05 1-2.05-1q-0.55-0.65-0.7-1.4h-0.4q-1.7 0-2.9-1.7t-1.2-4.1 1.2-4.1q0.95-1.35 2.25-1.6l0.65-0.1q1.7 0 2.9 1.7m-76.35 11.1-0.1 0.8m0.1 4.35q-0.35-2.25-0.1-4.35" fill="none" stroke="#6f521f" stroke-linecap="round" stroke-linejoin="round"/>
</g>
<g id="b" transform="translate(-236.35,-152)">
<path d="m314.1 152-7.35 24.3-25.25 27.2q-1.1-1.1-3.1-1.1-2.05 0-6.3 4.15l-2.65 2.85-1.3 1.15-0.7 0.8-0.4-0.55 0.05-0.65-3.5-3.8 29.3-43.75 21.2-10.6m-46.35 65.45 0.85-0.1-8.25 8.9 8.5 7.65-5.05 3.4-8.6-7.85-15.3 20.9-3.55-3.75 15.35-20.4-9-7.9 1.35-6.7 10 9 6.8-10.15 1.65 1.35q0.35 0.95 1.25 2.4 1.9 3.25 4 3.25" fill-rule="evenodd"/>
</g>
</defs>
</svg>
