<?xml version="1.0" encoding="UTF-8" standalone="no"?>
<!DOCTYPE svg PUBLIC "-//W3C//DTD SVG 1.1//EN" "http://www.w3.org/Graphics/SVG/1.1/DTD/svg11.dtd">
<svg width="100%" height="100%" viewBox="0 0 386 605" version="1.1" xmlns="http://www.w3.org/2000/svg" xmlns:xlink="http://www.w3.org/1999/xlink" xml:space="preserve" xmlns:serif="http://www.serif.com/" style="fill-rule:evenodd;clip-rule:evenodd;stroke-linecap:round;stroke-linejoin:round;">
    <g transform="matrix(1,0,0,1,-1353.99,-1171)">
        <g transform="matrix(10,0,0,10,0,0)">
            <g id="shape0">
                <path d="M162.7,119.95L162,119.05L161.6,118.8L161.15,118.6L160.8,118.45L160.05,118.25C158.917,117.85 157.567,117.633 156,117.6C155.567,117.833 155.217,117.933 154.95,117.9L154.15,117.65L154.1,117.65C152.633,117.717 151.35,117.967 150.25,118.4L150.05,118.4L149.75,118.5L149.75,118.55L149.35,118.7C148.283,119.167 147.7,119.7 147.6,120.3L147.6,120.4L147.65,120.5L147.65,120.7L147.95,122.8L148.1,124.05L148.15,124.2L148.15,124.4L148.2,124.65L147.7,124.8C146.533,125.233 145.733,125.7 145.3,126.2C142.767,127.733 142.6,129.883 144.8,132.65L144.85,132.75L145.45,133.35L146,134.15L146.05,136.6C145.617,136.867 145.383,137.367 145.35,138.1L145.3,138.1L145.3,138.3C143.8,139.533 142.417,141.1 141.15,143L140.7,143.7L139.5,145.85L139.15,146.5L138.6,147.6C136.767,151.5 135.867,155.55 135.9,159.75C135.867,164.217 137.15,167.667 139.75,170.1C140.417,170.767 141.2,171.35 142.1,171.85L142.4,172L142.9,172.3L143.1,172.65C143.667,173.583 144.75,174.433 146.35,175.2C147.75,175.867 149.3,176.367 151,176.7L155.4,177.05L156.15,177C159.383,176.933 162.15,176.333 164.45,175.2C166.483,174.233 167.7,173.117 168.1,171.85L168.05,171.8L168.15,171.75L168.15,171.8L169,171.3C171.933,169.4 173.4,165.55 173.4,159.75C173.4,155.217 172.25,150.817 169.95,146.55L169.75,146.2L167.7,142.9C166.6,141.3 165.433,139.95 164.2,138.85L164.4,138.3L164.4,138.25C164.333,137.417 164,136.667 163.4,136L163.4,138.2L163.15,138L163.15,134.45L163.85,133.75C164.717,133.217 165.2,132.633 165.3,132C167.533,128.8 166.633,126.383 162.6,124.75L162.6,123.35L162.65,120.65L162.65,120.55L162.7,120.3L162.7,119.95Z" style="fill:none;fill-rule:nonzero;stroke:#000;stroke-opacity:0.3;stroke-width:1px;"/>
                <path d="M167.65,168.95C169.617,167.217 170.6,164.167 170.6,159.8C170.6,155.933 169.617,152.183 167.65,148.55L167.7,148.5C167.7,148.3 167.583,148.133 167.35,148L165.85,145.6C162.65,141.033 158.867,138.783 154.5,138.85C150.133,138.917 146.467,141.2 143.5,145.7L142.4,147.55C142.067,147.717 141.867,148.033 141.8,148.5L141.7,148.85C139.933,152.383 139.067,156.033 139.1,159.8C139.067,163.533 140.133,166.45 142.3,168.55L143.05,169.15C142.75,169.683 142.6,170.25 142.6,170.85L142.65,172.15L142.4,172L142.1,171.85C141.2,171.35 140.417,170.767 139.75,170.1C137.15,167.667 135.867,164.217 135.9,159.75C135.867,155.55 136.767,151.5 138.6,147.6L139.15,146.5L139.5,145.85L140.7,143.7L141.15,143C144.683,137.667 149.05,134.967 154.25,134.9C159.417,134.8 163.9,137.467 167.7,142.9L169.75,146.2L169.95,146.55C172.25,150.817 173.4,155.217 173.4,159.75C173.4,165.55 171.933,169.4 169,171.3L168.15,171.8L168.15,171.75L168.25,170.85C168.25,170.183 168.05,169.55 167.65,168.95M156.15,177L155.4,177.05L151,176.7C149.3,176.367 147.75,175.867 146.35,175.2C144.75,174.433 143.667,173.583 143.1,172.65C147.833,174.683 152.433,175.617 156.9,175.45L156.15,177" style="fill:#b0c657;"/>
                <path d="M143.05,169.15L142.3,168.55C140.133,166.45 139.067,163.533 139.1,159.8C139.067,156.033 139.933,152.383 141.7,148.85L141.8,148.5C141.867,148.033 142.067,147.717 142.4,147.55L143.5,145.7C146.467,141.2 150.133,138.917 154.5,138.85C158.867,138.783 162.65,141.033 165.85,145.6L167.35,148C167.583,148.133 167.7,148.3 167.7,148.5L167.65,148.55C169.617,152.183 170.6,155.933 170.6,159.8C170.6,164.167 169.617,167.217 167.65,168.95L166.95,169.5L166.15,169.95C164.083,171.717 161.117,172.717 157.25,172.95C153.317,173.217 149.267,172.383 145.1,170.45L144.3,170L143.05,169.15M162.9,157L163.85,154.55C164.317,153.183 164.517,151.85 164.45,150.55L164.4,150.5C164.3,149.133 163.933,148.033 163.3,147.2C162.767,146.467 162.05,145.933 161.15,145.6L161,145.55L160.9,145.5L157.5,145.3L157.35,145.45L155.7,145.9L155.45,145.95L154.25,146.55C154.083,146.617 153.9,146.717 153.7,146.85L153.6,146.95C152.2,147.75 150.9,148.7 149.7,149.8L149.7,149.85L148.45,151.25L147.3,152.7L147.1,153.05L146.7,153.7L146.65,153.75C146.15,154.55 145.7,155.4 145.3,156.3L144.7,158L144.7,158.05L144.35,159.35C144.217,160.183 144.167,161.05 144.2,161.95L144.2,162L144.5,163.8L144.6,164L145.1,165.1L145.2,165.25C145.733,166.05 146.5,166.617 147.5,166.95L147.6,167L147.75,167.05L148.5,167.2L149.2,167.3L150.85,167.25L153.15,166.55L154.15,166.15L154.85,165.7L154.9,165.65L157.3,164.05L158.7,162.8L160.1,161.35L160.5,160.85L160.8,160.4L161.9,158.85L162.9,157M162.4,154.85L160.85,155.15L160.2,156.75L159.55,158L159.5,158.05L160.75,158.5L159.8,159.8L159.35,160.4L159.15,160.6L159.1,160.7L158.05,161.8L157.25,160.8L156.4,161.55L154.75,162.65L154.65,162.7L154.75,164.25C154.483,164.417 154.25,164.567 154.05,164.7L153.35,165L151.35,165.6L151.85,163.7L150.9,163.75L149.85,163.5L149.75,163.5L149.65,163.45L148.5,165.3C147.667,165.033 147.017,164.567 146.55,163.9L146.45,163.75L148,162.3L147.65,161.35L147.4,160.15L145.7,161.05L145.85,158.9L146.15,157.75L146.15,157.7L147.75,157.4L148.15,156.3L149.15,154.55L147.85,154.1L148.15,153.6L148.35,153.3L149.3,152.1L150.4,150.9L151.1,152L151.2,151.9C151.967,151.1 152.817,150.45 153.75,149.95L153.65,148.35L153.8,148.3L154.25,148C154.617,147.8 154.967,147.65 155.3,147.55L155.45,147.5L156.85,147.1L156.35,148.85L156.45,148.85L158.8,148.9L159.9,147.15L160,147.2L160.1,147.2C160.567,147.4 160.967,147.65 161.3,147.95L161.95,148.6L160.45,150.05C160.883,150.617 161.133,151.383 161.2,152.35L161.2,152.4L162.85,151.45L162.7,153.8L162.4,154.85M168.05,171.8L168.1,171.85C167.7,173.117 166.483,174.233 164.45,175.2C162.15,176.333 159.383,176.933 156.15,177L156.9,175.45L157.5,175.4C162.1,175.1 165.617,173.9 168.05,171.8" style="fill:#89a837;"/>
                <path d="M167.65,168.95C168.05,169.55 168.25,170.183 168.25,170.85L168.15,171.75L168.05,171.8C165.617,173.9 162.1,175.1 157.5,175.4L156.9,175.45C152.433,175.617 147.833,174.683 143.1,172.65L142.9,172.3L142.65,172.15L142.6,170.85C142.6,170.25 142.75,169.683 143.05,169.15L144.3,170L145.1,170.45C149.267,172.383 153.317,173.217 157.25,172.95C161.117,172.717 164.083,171.717 166.15,169.95L166.95,169.5L167.65,168.95" style="fill:#657b28;"/>
                <path d="M168.15,171.8L169,171.3C171.933,169.4 173.4,165.55 173.4,159.75C173.4,155.217 172.25,150.817 169.95,146.55L169.75,146.2L167.7,142.9C163.9,137.467 159.417,134.8 154.25,134.9C149.05,134.967 144.683,137.667 141.15,143L140.7,143.7L139.5,145.85L139.15,146.5L138.6,147.6C136.767,151.5 135.867,155.55 135.9,159.75C135.867,164.217 137.15,167.667 139.75,170.1C140.417,170.767 141.2,171.35 142.1,171.85L142.4,172L142.9,172.3M168.05,171.8L168.15,171.8M168.1,171.85C167.7,173.117 166.483,174.233 164.45,175.2C162.15,176.333 159.383,176.933 156.15,177L155.4,177.05L151,176.7C149.3,176.367 147.75,175.867 146.35,175.2C144.75,174.433 143.667,173.583 143.1,172.65" style="fill:none;fill-rule:nonzero;stroke:#000;stroke-opacity:0.4;stroke-width:0.1px;"/>
                <path d="M143.05,169.15L142.3,168.55C140.133,166.45 139.067,163.533 139.1,159.8C139.067,156.033 139.933,152.383 141.7,148.85L141.8,148.5C141.867,148.033 142.067,147.717 142.4,147.55L143.5,145.7C146.467,141.2 150.133,138.917 154.5,138.85C158.867,138.783 162.65,141.033 165.85,145.6L167.35,148C167.583,148.133 167.7,148.3 167.7,148.5L167.65,148.55C169.617,152.183 170.6,155.933 170.6,159.8C170.6,164.167 169.617,167.217 167.65,168.95L166.95,169.5L166.15,169.95C164.083,171.717 161.117,172.717 157.25,172.95C153.317,173.217 149.267,172.383 145.1,170.45L144.3,170L143.05,169.15" style="fill:none;fill-rule:nonzero;stroke:#d3e0a3;stroke-width:1px;"/>
                <path d="M156.9,175.45C152.433,175.617 147.833,174.683 143.1,172.65M168.05,171.8C165.617,173.9 162.1,175.1 157.5,175.4L156.9,175.45" style="fill:none;fill-rule:nonzero;stroke:#b9ce6f;stroke-width:1px;"/>
                <path d="M163.15,139.1L163.15,139.4C162.983,140.4 162.033,141.25 160.3,141.95C158.667,142.617 156.7,142.95 154.4,142.95C152.1,142.95 150.133,142.617 148.5,141.95C146.867,141.283 146.05,140.5 146.05,139.6L146.1,139.4C146.167,138.533 146.967,137.8 148.5,137.2C149,136.967 149.533,136.783 150.1,136.65L154.4,136.15L159.05,136.75L154.7,137.3L154.7,137.4C156.533,138.533 158.383,138.967 160.25,138.7L161.6,137.8C162.633,138.3 163.15,138.733 163.15,139.1M156.5,133.75L154.8,133.8C152.733,133.767 150.967,133.483 149.5,132.95C148.033,132.45 147.3,131.817 147.3,131.05C147.3,130.317 148.033,129.683 149.5,129.15C150.733,128.683 152.2,128.417 153.9,128.35C154.267,130.517 155.133,132.317 156.5,133.75M150.1,136.65C151.433,137.083 152.917,137.3 154.55,137.3L154.7,137.3L154.55,137.3C152.917,137.3 151.433,137.083 150.1,136.65" style="fill:#89a837;"/>
                <path d="M146.1,139.4L146,134.15C145.4,133.483 145.1,132.733 145.1,131.9C145.1,130.4 146.033,129.117 147.9,128.05C149.767,127.017 152.033,126.5 154.7,126.5C157.367,126.5 159.633,127.017 161.5,128.05C163.367,129.117 164.3,130.4 164.3,131.9C164.3,133.033 163.917,133.883 163.15,134.45L161.5,135.7L159.05,136.75L154.4,136.15L150.1,136.65C149.533,136.783 149,136.967 148.5,137.2C146.967,137.8 146.167,138.533 146.1,139.4M163.15,136.8L163.15,139.1C163.15,138.733 162.633,138.3 161.6,137.8L163.15,136.8M156.5,133.75L160.15,132.95C161.617,132.45 162.35,131.817 162.35,131.05C162.35,130.317 161.617,129.683 160.15,129.15C158.683,128.617 156.9,128.35 154.8,128.35L153.9,128.35L154.8,128.35C156.9,128.35 158.683,128.617 160.15,129.15C161.617,129.683 162.35,130.317 162.35,131.05C162.35,131.817 161.617,132.45 160.15,132.95L156.5,133.75C155.133,132.317 154.267,130.517 153.9,128.35C152.2,128.417 150.733,128.683 149.5,129.15C148.033,129.683 147.3,130.317 147.3,131.05C147.3,131.817 148.033,132.45 149.5,132.95C150.967,133.483 152.733,133.767 154.8,133.8L156.5,133.75M146,134.15L147.9,135.7L150.1,136.65L147.9,135.7L146,134.15" style="fill:#b0c657;"/>
                <path d="M163.15,134.45L163.15,136.8L161.6,137.8L160.25,138.7C158.383,138.967 156.533,138.533 154.7,137.4L154.7,137.3L159.05,136.75L161.5,135.7L163.15,134.45" style="fill:#607526;"/>
                <path d="M163.15,139.1L163.15,139.4" style="fill:none;fill-rule:nonzero;stroke:#000;stroke-opacity:0.6;stroke-width:1px;"/>
                <path d="M146.1,139.4L146,134.15C145.4,133.483 145.1,132.733 145.1,131.9C145.1,130.4 146.033,129.117 147.9,128.05C149.767,127.017 152.033,126.5 154.7,126.5C157.367,126.5 159.633,127.017 161.5,128.05C163.367,129.117 164.3,130.4 164.3,131.9C164.3,133.033 163.917,133.883 163.15,134.45L163.15,139.1" style="fill:none;fill-rule:nonzero;stroke:#000;stroke-opacity:0.4;stroke-width:0.1px;"/>
                <path d="M146.1,139.4C146.167,138.533 146.967,137.8 148.5,137.2C149,136.967 149.533,136.783 150.1,136.65L147.9,135.7L146,134.15M153.9,128.35L154.8,128.35C156.9,128.35 158.683,128.617 160.15,129.15C161.617,129.683 162.35,130.317 162.35,131.05C162.35,131.817 161.617,132.45 160.15,132.95L156.5,133.75L154.8,133.8C152.733,133.767 150.967,133.483 149.5,132.95C148.033,132.45 147.3,131.817 147.3,131.05C147.3,130.317 148.033,129.683 149.5,129.15C150.733,128.683 152.2,128.417 153.9,128.35M150.1,136.65L154.4,136.15L159.05,136.75L161.5,135.7L163.15,134.45M159.05,136.75L154.7,137.3L154.55,137.3C152.917,137.3 151.433,137.083 150.1,136.65M161.6,137.8C162.633,138.3 163.15,138.733 163.15,139.1" style="fill:none;fill-rule:nonzero;stroke:#d3e0a3;stroke-width:1px;"/>
                <path d="M163.15,139.4C162.983,140.4 162.033,141.25 160.3,141.95C158.667,142.617 156.7,142.95 154.4,142.95C152.1,142.95 150.133,142.617 148.5,141.95C146.867,141.283 146.05,140.5 146.05,139.6L146.1,139.4" style="fill:none;fill-rule:nonzero;stroke:#b3ca60;stroke-width:1px;"/>
            </g>
            <g id="sprite0" transform="matrix(1,0,0,1,144.2,145.15)">
                <g id="shape1">
                    <path d="M15.8,2.05L15.7,2L14.6,3.75L12.25,3.7L12.15,3.7L12.65,1.95L11.25,2.35L11.1,2.4L10.05,2.85L9.6,3.15L9.45,3.2L9.55,4.8C8.617,5.3 7.767,5.95 7,6.75L6.9,6.85L6.2,5.75L5.1,6.95L4.15,8.15L3.95,8.45L3.65,8.95L4.95,9.4L3.95,11.15L3.55,12.25L1.95,12.55L1.95,12.6L1.65,13.75C1.517,14.45 1.467,15.167 1.5,15.9L3.2,15L3.45,16.2L3.8,17.15L2.25,18.6L2.35,18.75C2.817,19.417 3.467,19.883 4.3,20.15L5.45,18.3L5.55,18.35L5.65,18.35L6.7,18.6L7.65,18.55L7.15,20.45L9.15,19.85L9.85,19.55L10.55,19.1L10.45,17.55L10.55,17.5L12.2,16.4L13.05,15.65L13.85,16.65L14.9,15.55L14.95,15.45L15.15,15.25L15.6,14.65L16.55,13.35L15.3,12.9L15.35,12.85L16,11.6L16.65,10L18.2,9.7L18.5,8.65L18.65,6.3L17,7.25L17,7.2C16.933,6.233 16.683,5.467 16.25,4.9L17.75,3.45L17.1,2.8C16.767,2.5 16.367,2.25 15.9,2.05L15.8,2.05M16.95,0.45C17.85,0.783 18.567,1.317 19.1,2.05C19.733,2.883 20.1,3.983 20.2,5.35L20.25,5.4C20.317,6.7 20.117,8.033 19.65,9.4L18.7,11.85L17.7,13.7L16.6,15.25L16.3,15.7L15.9,16.2L14.5,17.65L13.1,18.9L10.7,20.5L10.65,20.55L9.95,21L8.95,21.4L6.65,22.1L5,22.15L4.3,22.05L3.55,21.9L3.4,21.85L3.3,21.8C2.3,21.467 1.533,20.9 1,20.1L0.9,19.95L0.4,18.85L0.3,18.65L0,16.85L0,16.8C-0.033,15.9 0.017,15.033 0.15,14.2L0.5,12.9L0.5,12.85L1.1,11.15C1.5,10.25 1.95,9.4 2.45,8.6L2.5,8.55L2.9,7.9L3.1,7.55L4.25,6.1L5.5,4.7L5.5,4.65C6.7,3.55 8,2.6 9.4,1.8L9.5,1.7L10.05,1.4L11.25,0.8L11.5,0.75L13.15,0.3L13.3,0.15L16.7,0.35L16.8,0.4L16.95,0.45" style="fill:#7bdeff;"/>
                </g>
            </g>
            <g id="shape2">
                <path d="M169.75,153.45L169.9,153.6C170.267,172.667 161.133,178.2 142.5,170.2C158.6,173.533 167.683,167.95 169.75,153.45" style="fill:#fff;fill-opacity:0.4;"/>
                <path d="M149.3,146.3C149.967,148.2 149.3,149.7 147.3,150.8C145.3,151.867 144.15,153.55 143.85,155.85C143.583,158.15 142.983,159.35 142.05,159.45C141.15,159.483 140.35,158.55 139.65,156.65C138.983,154.717 138.9,152.55 139.4,150.15C139.867,147.783 140.767,145.9 142.1,144.5C143.433,143.067 144.8,142.533 146.2,142.9C147.6,143.233 148.633,144.367 149.3,146.3" style="fill:#fff;fill-opacity:0.8;"/>
                <path d="M154.8,135.55C154.733,135.917 154.267,136.15 153.4,136.25L150.55,135.9C149.45,135.633 148.517,135.3 147.75,134.9C147.017,134.433 146.683,134.017 146.75,133.65C146.817,133.317 147.25,133.233 148.05,133.4L150.9,134.05L153.7,134.8C154.5,134.967 154.867,135.217 154.8,135.55" style="fill:#fff;fill-opacity:0.6;"/>
                <path d="M161.8,129.15C161.733,129.45 161.433,129.517 160.9,129.35L158.95,128.95L157,128.5C156.467,128.367 156.233,128.15 156.3,127.85C156.333,127.583 156.65,127.4 157.25,127.3L159.25,127.45C159.983,127.617 160.617,127.867 161.15,128.2C161.617,128.567 161.833,128.883 161.8,129.15" style="fill:#fff;fill-opacity:0.6;"/>
                <path d="M141.15,166.2C140.617,166.2 140.15,165.983 139.75,165.55C139.383,165.083 139.2,164.533 139.2,163.9C139.2,163.267 139.383,162.717 139.75,162.25C140.15,161.817 140.617,161.6 141.15,161.6C141.683,161.6 142.15,161.817 142.55,162.25C142.917,162.717 143.1,163.267 143.1,163.9C143.1,164.533 142.917,165.083 142.55,165.55C142.15,165.983 141.683,166.2 141.15,166.2" style="fill:#fff;fill-opacity:0.6;"/>
                <path d="M163.4,138.5L164.05,138.3L164.35,138.25L164.4,138.25L164.4,138.3L164.2,138.85L164,139.2L163.3,140.5L163.3,140.6C162.3,141.733 161.267,142.4 160.2,142.6L159.75,142.3L161.1,140.35L161.2,140.2C161.867,139.4 162.6,138.833 163.4,138.5M149.3,141.55C148.633,141.85 147.717,141.667 146.55,141L146.25,140.7L145.3,139L145.3,138.1L145.35,138.1C145.383,137.333 145.633,136.817 146.1,136.55L146.2,138.45L147.95,139.65L148.15,139.8C148.717,140.3 149.1,140.883 149.3,141.55M150.35,143.35C149.883,142.917 149.55,142.35 149.35,141.65L152,141.8L152.2,141.85C153,142.05 153.633,142.4 154.1,142.9C153.733,143.8 152.633,144.017 150.8,143.55L150.75,143.55L150.35,143.35M154.25,143.1C154.983,142.7 155.833,142.383 156.8,142.15L157,142.05L159.55,142.25C158.817,143.35 157.45,143.933 155.45,144L154.25,143.1M145.35,138.1L146.2,138.45L145.35,138.1" style="fill:#cda338;"/>
                <path d="M164.4,138.25L164.35,138.25L164.05,138.3L163.4,138.5L163.4,136C164,136.667 164.333,137.417 164.4,138.25M159.75,142.3L160.2,142.6C161.267,142.4 162.3,141.733 163.3,140.6L162.05,142.15L161.2,142.75L160.45,143C158.417,143.967 156.8,144.367 155.6,144.2L155.65,144.15L155.45,144L155.65,144.15L155.45,144.2C153.417,144.233 151.867,144.017 150.8,143.55C152.633,144.017 153.733,143.8 154.1,142.9L154.15,142.95L154.25,143.1L155.45,144C157.45,143.933 158.817,143.35 159.55,142.25L159.75,142.3M149.3,141.55L149.35,141.65C149.55,142.35 149.883,142.917 150.35,143.35L150.4,143.5L147.9,142.1L147.8,142.05L146.55,141C147.717,141.667 148.633,141.85 149.3,141.55M160.2,142.6L160.95,142.75L160.45,143L160.95,142.75L160.2,142.6" style="fill:#a2642f;"/>
                <path d="M164.4,138.25L164.35,138.25L164.05,138.3L163.4,138.5C162.6,138.833 161.867,139.4 161.2,140.2L161.1,140.35L159.75,142.3L160.2,142.6L160.95,142.75L160.45,143L161.2,142.75L162.05,142.15L163.3,140.6M163.3,140.5L164,139.2L164.2,138.85L164.4,138.3L164.45,138.3L164.45,138.25L164.4,138.25C164.333,137.417 164,136.667 163.4,136L163.4,138.5M162.05,142.15L163.3,140.85L164,139.2M149.35,141.65L149.3,141.55C149.1,140.883 148.717,140.3 148.15,139.8L147.95,139.65L146.2,138.45L145.35,138.1L145.3,138.1L145.3,139L146.25,140.7L146.55,141L147.8,142.05L147.9,142.1L150.4,143.5L150.35,143.35C149.883,142.917 149.55,142.35 149.35,141.65L152,141.8L152.2,141.85C153,142.05 153.633,142.4 154.1,142.9M154.15,142.95L154.25,143.1C154.983,142.7 155.833,142.383 156.8,142.15L157,142.05L159.55,142.25L159.75,142.3M145.35,138.1C145.383,137.333 145.633,136.817 146.1,136.55L146.2,138.45M150.75,143.55L150.35,143.35M147.8,142.05L146.25,140.7M147.9,142.1L149,142.95C150.767,143.883 152.783,144.35 155.05,144.35L155.45,144.35C157.55,144.283 159.383,143.8 160.95,142.9L161.2,142.75M155.45,144L155.65,144.15L155.45,144.2C153.417,144.233 151.867,144.017 150.8,143.55M155.6,144.2C156.8,144.367 158.417,143.967 160.45,143M154.25,143.1L155.45,144M155.45,144.2L155.6,144.2" style="fill:none;fill-rule:nonzero;stroke:#000;stroke-opacity:0.4;stroke-width:0.4px;"/>
                <path d="M165.65,156.6C165.65,157.367 165.417,158.017 164.95,158.55C164.483,159.083 163.917,159.35 163.25,159.35C162.55,159.35 161.967,159.083 161.5,158.55C161.033,158.017 160.8,157.367 160.8,156.6C160.8,155.833 161.033,155.183 161.5,154.65C161.967,154.117 162.55,153.85 163.25,153.85C163.917,153.85 164.483,154.117 164.95,154.65C165.417,155.183 165.65,155.833 165.65,156.6M157.35,153.7L157.85,153.45C158.05,153.45 158.233,153.533 158.4,153.7L158.6,154.25L158.4,154.85L157.85,155.05L157.35,154.85L157.15,154.25L157.35,153.7M154.75,158.45C155.183,158.45 155.567,158.633 155.9,159C156.2,159.333 156.35,159.75 156.35,160.25C156.35,160.717 156.2,161.117 155.9,161.45C155.567,161.817 155.183,162 154.75,162C154.317,162 153.95,161.817 153.65,161.45C153.35,161.117 153.2,160.717 153.2,160.25C153.2,159.75 153.35,159.333 153.65,159C153.95,158.633 154.317,158.45 154.75,158.45" style="fill:#f7c68a;fill-opacity:0.62;"/>
                <path d="M165.45,153.75C165.417,155.817 164.867,157.683 163.8,159.35C161.767,162.483 159.6,164.55 157.3,165.55L152.3,166.85C155.933,165.65 158.233,164.55 159.2,163.55C162.167,160.883 163.7,158.2 163.8,155.5C163.9,152.8 163.35,150.567 162.15,148.8C163.817,149.033 164.917,150.683 165.45,153.75M152.05,152.4L150.6,153.45L150.35,153.65L148.7,155.25C146.833,157.05 145.883,159.383 145.85,162.25C145.85,164.95 148.25,167.433 153.05,169.7L154.15,170.2L153.1,170.2C148.667,170.133 145.55,167.95 143.75,163.65C143.083,162.183 142.933,160.433 143.3,158.4C143.667,156.333 145.367,153.917 148.4,151.15C151.867,149.117 153.717,149.483 153.95,152.25L152.05,152.4M156.75,158.15C157.25,157.883 157.717,157 158.15,155.5C158.583,153.933 158.533,152.6 158,151.5C157.433,150.333 156.033,149.417 153.8,148.75C157.7,148.45 160,149.667 160.7,152.4C160.867,153.233 160.883,154.133 160.75,155.1C160.517,157.3 159.7,159.2 158.3,160.8C157.367,161.867 156.217,162.8 154.85,163.6C152.55,164.967 150.767,165 149.5,163.7C148.167,162.467 147.783,161.067 148.35,159.5C148.583,158.867 149.083,158.083 149.85,157.15L151.65,155.5C152.75,154.767 153.617,154.7 154.25,155.3C154.683,155.7 154.833,156.133 154.7,156.6L154.3,157.25L153.9,157.55L152.95,157.55L152.75,157.8C152.683,157.933 152.75,158.083 152.95,158.25C153.35,158.65 153.95,158.817 154.75,158.75L156.75,158.15" style="fill:url(#_Linear1);"/>
            </g>
            <g id="sprite1" transform="matrix(-0.1902,-0.1473,0.2242,-0.2816,152.849,160.149)">
                <g id="sprite2" transform="matrix(0.7715,0,0,0.7715,0.749775,-0.250325)">
                    <g id="sprite3" transform="matrix(1,0,0,1,-23,1.15)">
                        <g id="shape3">
                            <path d="M6.15,-0.55L8.45,-0.75L15,-1.25L21.7,-1.5C23.467,-1.3 24.35,-1.067 24.35,-0.8C24.35,-0.533 23.433,-0.317 21.6,-0.15C19.767,-0.017 17.433,-0.067 14.6,-0.3L8.3,-0.55C6.967,-0.45 6.25,-0.45 6.15,-0.55" style="fill:#fefd8d;fill-opacity:0.97;"/>
                            <path d="M19.65,1.5C18.55,2.067 17.083,2.567 15.25,3C13.383,3.4 12.05,3.8 11.25,4.2L9.9,4.7C9.8,4.633 10.267,4.4 11.3,4L15.15,2C16.717,1.067 18.083,0.483 19.25,0.25L21.15,0.3C21.217,0.533 20.717,0.933 19.65,1.5" style="fill:#fffd8f;fill-opacity:0.4;"/>
                            <path d="M13.85,-4.6C12.917,-4.867 12.517,-5.117 12.65,-5.35C12.783,-5.583 13.317,-5.45 14.25,-4.95C15.183,-4.45 16.7,-4.1 18.8,-3.9C20.867,-3.7 22.2,-3.1 22.8,-2.1C23.367,-1.133 23.4,-0.367 22.9,0.2C22.367,0.767 21.467,0.9 20.2,0.6C18.933,0.267 17.783,-0.617 16.75,-2.05C15.683,-3.517 14.717,-4.367 13.85,-4.6" style="fill:#fffd8f;fill-opacity:0.39;"/>
                        </g>
                    </g>
                    <g id="sprite31" serif:id="sprite3" transform="matrix(0.6024,0.7962,-0.2592,0.1665,-14.3996,-17.2)">
                        <g id="shape31" serif:id="shape3">
                            <path d="M6.15,-0.55L8.45,-0.75L15,-1.25L21.7,-1.5C23.467,-1.3 24.35,-1.067 24.35,-0.8C24.35,-0.533 23.433,-0.317 21.6,-0.15C19.767,-0.017 17.433,-0.067 14.6,-0.3L8.3,-0.55C6.967,-0.45 6.25,-0.45 6.15,-0.55" style="fill:#fefd8d;fill-opacity:0.97;"/>
                            <path d="M19.65,1.5C18.55,2.067 17.083,2.567 15.25,3C13.383,3.4 12.05,3.8 11.25,4.2L9.9,4.7C9.8,4.633 10.267,4.4 11.3,4L15.15,2C16.717,1.067 18.083,0.483 19.25,0.25L21.15,0.3C21.217,0.533 20.717,0.933 19.65,1.5" style="fill:#fffd8f;fill-opacity:0.4;"/>
                            <path d="M13.85,-4.6C12.917,-4.867 12.517,-5.117 12.65,-5.35C12.783,-5.583 13.317,-5.45 14.25,-4.95C15.183,-4.45 16.7,-4.1 18.8,-3.9C20.867,-3.7 22.2,-3.1 22.8,-2.1C23.367,-1.133 23.4,-0.367 22.9,0.2C22.367,0.767 21.467,0.9 20.2,0.6C18.933,0.267 17.783,-0.617 16.75,-2.05C15.683,-3.517 14.717,-4.367 13.85,-4.6" style="fill:#fffd8f;fill-opacity:0.39;"/>
                        </g>
                    </g>
                    <g id="sprite32" serif:id="sprite3" transform="matrix(-0.9792,0.1994,-0.1994,-0.9792,21.7499,-4.49945)">
                        <g id="shape32" serif:id="shape3">
                            <path d="M6.15,-0.55L8.45,-0.75L15,-1.25L21.7,-1.5C23.467,-1.3 24.35,-1.067 24.35,-0.8C24.35,-0.533 23.433,-0.317 21.6,-0.15C19.767,-0.017 17.433,-0.067 14.6,-0.3L8.3,-0.55C6.967,-0.45 6.25,-0.45 6.15,-0.55" style="fill:#fefd8d;fill-opacity:0.97;"/>
                            <path d="M19.65,1.5C18.55,2.067 17.083,2.567 15.25,3C13.383,3.4 12.05,3.8 11.25,4.2L9.9,4.7C9.8,4.633 10.267,4.4 11.3,4L15.15,2C16.717,1.067 18.083,0.483 19.25,0.25L21.15,0.3C21.217,0.533 20.717,0.933 19.65,1.5" style="fill:#fffd8f;fill-opacity:0.4;"/>
                            <path d="M13.85,-4.6C12.917,-4.867 12.517,-5.117 12.65,-5.35C12.783,-5.583 13.317,-5.45 14.25,-4.95C15.183,-4.45 16.7,-4.1 18.8,-3.9C20.867,-3.7 22.2,-3.1 22.8,-2.1C23.367,-1.133 23.4,-0.367 22.9,0.2C22.367,0.767 21.467,0.9 20.2,0.6C18.933,0.267 17.783,-0.617 16.75,-2.05C15.683,-3.517 14.717,-4.367 13.85,-4.6" style="fill:#fffd8f;fill-opacity:0.39;"/>
                        </g>
                    </g>
                    <g id="sprite33" serif:id="sprite3" transform="matrix(-0.7487,-0.6595,0.2206,-0.2148,16.9997,15.2498)">
                        <g id="shape33" serif:id="shape3">
                            <path d="M6.15,-0.55L8.45,-0.75L15,-1.25L21.7,-1.5C23.467,-1.3 24.35,-1.067 24.35,-0.8C24.35,-0.533 23.433,-0.317 21.6,-0.15C19.767,-0.017 17.433,-0.067 14.6,-0.3L8.3,-0.55C6.967,-0.45 6.25,-0.45 6.15,-0.55" style="fill:#fefd8d;fill-opacity:0.97;"/>
                            <path d="M19.65,1.5C18.55,2.067 17.083,2.567 15.25,3C13.383,3.4 12.05,3.8 11.25,4.2L9.9,4.7C9.8,4.633 10.267,4.4 11.3,4L15.15,2C16.717,1.067 18.083,0.483 19.25,0.25L21.15,0.3C21.217,0.533 20.717,0.933 19.65,1.5" style="fill:#fffd8f;fill-opacity:0.4;"/>
                            <path d="M13.85,-4.6C12.917,-4.867 12.517,-5.117 12.65,-5.35C12.783,-5.583 13.317,-5.45 14.25,-4.95C15.183,-4.45 16.7,-4.1 18.8,-3.9C20.867,-3.7 22.2,-3.1 22.8,-2.1C23.367,-1.133 23.4,-0.367 22.9,0.2C22.367,0.767 21.467,0.9 20.2,0.6C18.933,0.267 17.783,-0.617 16.75,-2.05C15.683,-3.517 14.717,-4.367 13.85,-4.6" style="fill:#fffd8f;fill-opacity:0.39;"/>
                        </g>
                    </g>
                    <g id="sprite34" serif:id="sprite3" transform="matrix(-0.2087,0.9761,-0.3253,-0.0696,4.40002,-24.7503)">
                        <g id="shape34" serif:id="shape3">
                            <path d="M6.15,-0.55L8.45,-0.75L15,-1.25L21.7,-1.5C23.467,-1.3 24.35,-1.067 24.35,-0.8C24.35,-0.533 23.433,-0.317 21.6,-0.15C19.767,-0.017 17.433,-0.067 14.6,-0.3L8.3,-0.55C6.967,-0.45 6.25,-0.45 6.15,-0.55" style="fill:#fefd8d;fill-opacity:0.97;"/>
                            <path d="M19.65,1.5C18.55,2.067 17.083,2.567 15.25,3C13.383,3.4 12.05,3.8 11.25,4.2L9.9,4.7C9.8,4.633 10.267,4.4 11.3,4L15.15,2C16.717,1.067 18.083,0.483 19.25,0.25L21.15,0.3C21.217,0.533 20.717,0.933 19.65,1.5" style="fill:#fffd8f;fill-opacity:0.4;"/>
                            <path d="M13.85,-4.6C12.917,-4.867 12.517,-5.117 12.65,-5.35C12.783,-5.583 13.317,-5.45 14.25,-4.95C15.183,-4.45 16.7,-4.1 18.8,-3.9C20.867,-3.7 22.2,-3.1 22.8,-2.1C23.367,-1.133 23.4,-0.367 22.9,0.2C22.367,0.767 21.467,0.9 20.2,0.6C18.933,0.267 17.783,-0.617 16.75,-2.05C15.683,-3.517 14.717,-4.367 13.85,-4.6" style="fill:#fffd8f;fill-opacity:0.39;"/>
                        </g>
                    </g>
                    <g id="sprite35" serif:id="sprite3" transform="matrix(0.3716,-0.9258,0.3086,0.1239,-10.05,24.2002)">
                        <g id="shape35" serif:id="shape3">
                            <path d="M6.15,-0.55L8.45,-0.75L15,-1.25L21.7,-1.5C23.467,-1.3 24.35,-1.067 24.35,-0.8C24.35,-0.533 23.433,-0.317 21.6,-0.15C19.767,-0.017 17.433,-0.067 14.6,-0.3L8.3,-0.55C6.967,-0.45 6.25,-0.45 6.15,-0.55" style="fill:#fefd8d;fill-opacity:0.97;"/>
                            <path d="M19.65,1.5C18.55,2.067 17.083,2.567 15.25,3C13.383,3.4 12.05,3.8 11.25,4.2L9.9,4.7C9.8,4.633 10.267,4.4 11.3,4L15.15,2C16.717,1.067 18.083,0.483 19.25,0.25L21.15,0.3C21.217,0.533 20.717,0.933 19.65,1.5" style="fill:#fffd8f;fill-opacity:0.4;"/>
                            <path d="M13.85,-4.6C12.917,-4.867 12.517,-5.117 12.65,-5.35C12.783,-5.583 13.317,-5.45 14.25,-4.95C15.183,-4.45 16.7,-4.1 18.8,-3.9C20.867,-3.7 22.2,-3.1 22.8,-2.1C23.367,-1.133 23.4,-0.367 22.9,0.2C22.367,0.767 21.467,0.9 20.2,0.6C18.933,0.267 17.783,-0.617 16.75,-2.05C15.683,-3.517 14.717,-4.367 13.85,-4.6" style="fill:#fffd8f;fill-opacity:0.39;"/>
                        </g>
                    </g>
                </g>
                <g id="shape4">
                    <path d="M2.4,-2.4C3.033,-1.767 3.367,-0.967 3.4,0C3.367,0.933 3.033,1.733 2.4,2.4C1.733,3.033 0.933,3.367 0,3.4C-0.967,3.367 -1.767,3.033 -2.4,2.4C-3.067,1.733 -3.4,0.933 -3.4,0C-3.4,-0.967 -3.067,-1.767 -2.4,-2.4C-1.767,-3.067 -0.967,-3.4 0,-3.4C0.933,-3.4 1.733,-3.067 2.4,-2.4" style="fill:#fff;"/>
                </g>
            </g>
            <g id="sprite11" serif:id="sprite1" transform="matrix(-0.0913,-0.0707,0.1076,-0.1351,165.35,157.55)">
                <g id="sprite21" serif:id="sprite2" transform="matrix(0.7715,0,0,0.7715,0.749775,-0.250325)">
                    <g id="sprite36" serif:id="sprite3" transform="matrix(1,0,0,1,-23,1.15)">
                        <g id="shape36" serif:id="shape3">
                            <path d="M6.15,-0.55L8.45,-0.75L15,-1.25L21.7,-1.5C23.467,-1.3 24.35,-1.067 24.35,-0.8C24.35,-0.533 23.433,-0.317 21.6,-0.15C19.767,-0.017 17.433,-0.067 14.6,-0.3L8.3,-0.55C6.967,-0.45 6.25,-0.45 6.15,-0.55" style="fill:#fefd8d;fill-opacity:0.97;"/>
                            <path d="M19.65,1.5C18.55,2.067 17.083,2.567 15.25,3C13.383,3.4 12.05,3.8 11.25,4.2L9.9,4.7C9.8,4.633 10.267,4.4 11.3,4L15.15,2C16.717,1.067 18.083,0.483 19.25,0.25L21.15,0.3C21.217,0.533 20.717,0.933 19.65,1.5" style="fill:#fffd8f;fill-opacity:0.4;"/>
                            <path d="M13.85,-4.6C12.917,-4.867 12.517,-5.117 12.65,-5.35C12.783,-5.583 13.317,-5.45 14.25,-4.95C15.183,-4.45 16.7,-4.1 18.8,-3.9C20.867,-3.7 22.2,-3.1 22.8,-2.1C23.367,-1.133 23.4,-0.367 22.9,0.2C22.367,0.767 21.467,0.9 20.2,0.6C18.933,0.267 17.783,-0.617 16.75,-2.05C15.683,-3.517 14.717,-4.367 13.85,-4.6" style="fill:#fffd8f;fill-opacity:0.39;"/>
                        </g>
                    </g>
                    <g id="sprite37" serif:id="sprite3" transform="matrix(0.6024,0.7962,-0.2592,0.1665,-14.3996,-17.2)">
                        <g id="shape37" serif:id="shape3">
                            <path d="M6.15,-0.55L8.45,-0.75L15,-1.25L21.7,-1.5C23.467,-1.3 24.35,-1.067 24.35,-0.8C24.35,-0.533 23.433,-0.317 21.6,-0.15C19.767,-0.017 17.433,-0.067 14.6,-0.3L8.3,-0.55C6.967,-0.45 6.25,-0.45 6.15,-0.55" style="fill:#fefd8d;fill-opacity:0.97;"/>
                            <path d="M19.65,1.5C18.55,2.067 17.083,2.567 15.25,3C13.383,3.4 12.05,3.8 11.25,4.2L9.9,4.7C9.8,4.633 10.267,4.4 11.3,4L15.15,2C16.717,1.067 18.083,0.483 19.25,0.25L21.15,0.3C21.217,0.533 20.717,0.933 19.65,1.5" style="fill:#fffd8f;fill-opacity:0.4;"/>
                            <path d="M13.85,-4.6C12.917,-4.867 12.517,-5.117 12.65,-5.35C12.783,-5.583 13.317,-5.45 14.25,-4.95C15.183,-4.45 16.7,-4.1 18.8,-3.9C20.867,-3.7 22.2,-3.1 22.8,-2.1C23.367,-1.133 23.4,-0.367 22.9,0.2C22.367,0.767 21.467,0.9 20.2,0.6C18.933,0.267 17.783,-0.617 16.75,-2.05C15.683,-3.517 14.717,-4.367 13.85,-4.6" style="fill:#fffd8f;fill-opacity:0.39;"/>
                        </g>
                    </g>
                    <g id="sprite38" serif:id="sprite3" transform="matrix(-0.9792,0.1994,-0.1994,-0.9792,21.7499,-4.49945)">
                        <g id="shape38" serif:id="shape3">
                            <path d="M6.15,-0.55L8.45,-0.75L15,-1.25L21.7,-1.5C23.467,-1.3 24.35,-1.067 24.35,-0.8C24.35,-0.533 23.433,-0.317 21.6,-0.15C19.767,-0.017 17.433,-0.067 14.6,-0.3L8.3,-0.55C6.967,-0.45 6.25,-0.45 6.15,-0.55" style="fill:#fefd8d;fill-opacity:0.97;"/>
                            <path d="M19.65,1.5C18.55,2.067 17.083,2.567 15.25,3C13.383,3.4 12.05,3.8 11.25,4.2L9.9,4.7C9.8,4.633 10.267,4.4 11.3,4L15.15,2C16.717,1.067 18.083,0.483 19.25,0.25L21.15,0.3C21.217,0.533 20.717,0.933 19.65,1.5" style="fill:#fffd8f;fill-opacity:0.4;"/>
                            <path d="M13.85,-4.6C12.917,-4.867 12.517,-5.117 12.65,-5.35C12.783,-5.583 13.317,-5.45 14.25,-4.95C15.183,-4.45 16.7,-4.1 18.8,-3.9C20.867,-3.7 22.2,-3.1 22.8,-2.1C23.367,-1.133 23.4,-0.367 22.9,0.2C22.367,0.767 21.467,0.9 20.2,0.6C18.933,0.267 17.783,-0.617 16.75,-2.05C15.683,-3.517 14.717,-4.367 13.85,-4.6" style="fill:#fffd8f;fill-opacity:0.39;"/>
                        </g>
                    </g>
                    <g id="sprite39" serif:id="sprite3" transform="matrix(-0.7487,-0.6595,0.2206,-0.2148,16.9997,15.2498)">
                        <g id="shape39" serif:id="shape3">
                            <path d="M6.15,-0.55L8.45,-0.75L15,-1.25L21.7,-1.5C23.467,-1.3 24.35,-1.067 24.35,-0.8C24.35,-0.533 23.433,-0.317 21.6,-0.15C19.767,-0.017 17.433,-0.067 14.6,-0.3L8.3,-0.55C6.967,-0.45 6.25,-0.45 6.15,-0.55" style="fill:#fefd8d;fill-opacity:0.97;"/>
                            <path d="M19.65,1.5C18.55,2.067 17.083,2.567 15.25,3C13.383,3.4 12.05,3.8 11.25,4.2L9.9,4.7C9.8,4.633 10.267,4.4 11.3,4L15.15,2C16.717,1.067 18.083,0.483 19.25,0.25L21.15,0.3C21.217,0.533 20.717,0.933 19.65,1.5" style="fill:#fffd8f;fill-opacity:0.4;"/>
                            <path d="M13.85,-4.6C12.917,-4.867 12.517,-5.117 12.65,-5.35C12.783,-5.583 13.317,-5.45 14.25,-4.95C15.183,-4.45 16.7,-4.1 18.8,-3.9C20.867,-3.7 22.2,-3.1 22.8,-2.1C23.367,-1.133 23.4,-0.367 22.9,0.2C22.367,0.767 21.467,0.9 20.2,0.6C18.933,0.267 17.783,-0.617 16.75,-2.05C15.683,-3.517 14.717,-4.367 13.85,-4.6" style="fill:#fffd8f;fill-opacity:0.39;"/>
                        </g>
                    </g>
                    <g id="sprite310" serif:id="sprite3" transform="matrix(-0.2087,0.9761,-0.3253,-0.0696,4.40002,-24.7503)">
                        <g id="shape310" serif:id="shape3">
                            <path d="M6.15,-0.55L8.45,-0.75L15,-1.25L21.7,-1.5C23.467,-1.3 24.35,-1.067 24.35,-0.8C24.35,-0.533 23.433,-0.317 21.6,-0.15C19.767,-0.017 17.433,-0.067 14.6,-0.3L8.3,-0.55C6.967,-0.45 6.25,-0.45 6.15,-0.55" style="fill:#fefd8d;fill-opacity:0.97;"/>
                            <path d="M19.65,1.5C18.55,2.067 17.083,2.567 15.25,3C13.383,3.4 12.05,3.8 11.25,4.2L9.9,4.7C9.8,4.633 10.267,4.4 11.3,4L15.15,2C16.717,1.067 18.083,0.483 19.25,0.25L21.15,0.3C21.217,0.533 20.717,0.933 19.65,1.5" style="fill:#fffd8f;fill-opacity:0.4;"/>
                            <path d="M13.85,-4.6C12.917,-4.867 12.517,-5.117 12.65,-5.35C12.783,-5.583 13.317,-5.45 14.25,-4.95C15.183,-4.45 16.7,-4.1 18.8,-3.9C20.867,-3.7 22.2,-3.1 22.8,-2.1C23.367,-1.133 23.4,-0.367 22.9,0.2C22.367,0.767 21.467,0.9 20.2,0.6C18.933,0.267 17.783,-0.617 16.75,-2.05C15.683,-3.517 14.717,-4.367 13.85,-4.6" style="fill:#fffd8f;fill-opacity:0.39;"/>
                        </g>
                    </g>
                    <g id="sprite311" serif:id="sprite3" transform="matrix(0.3716,-0.9258,0.3086,0.1239,-10.05,24.2002)">
                        <g id="shape311" serif:id="shape3">
                            <path d="M6.15,-0.55L8.45,-0.75L15,-1.25L21.7,-1.5C23.467,-1.3 24.35,-1.067 24.35,-0.8C24.35,-0.533 23.433,-0.317 21.6,-0.15C19.767,-0.017 17.433,-0.067 14.6,-0.3L8.3,-0.55C6.967,-0.45 6.25,-0.45 6.15,-0.55" style="fill:#fefd8d;fill-opacity:0.97;"/>
                            <path d="M19.65,1.5C18.55,2.067 17.083,2.567 15.25,3C13.383,3.4 12.05,3.8 11.25,4.2L9.9,4.7C9.8,4.633 10.267,4.4 11.3,4L15.15,2C16.717,1.067 18.083,0.483 19.25,0.25L21.15,0.3C21.217,0.533 20.717,0.933 19.65,1.5" style="fill:#fffd8f;fill-opacity:0.4;"/>
                            <path d="M13.85,-4.6C12.917,-4.867 12.517,-5.117 12.65,-5.35C12.783,-5.583 13.317,-5.45 14.25,-4.95C15.183,-4.45 16.7,-4.1 18.8,-3.9C20.867,-3.7 22.2,-3.1 22.8,-2.1C23.367,-1.133 23.4,-0.367 22.9,0.2C22.367,0.767 21.467,0.9 20.2,0.6C18.933,0.267 17.783,-0.617 16.75,-2.05C15.683,-3.517 14.717,-4.367 13.85,-4.6" style="fill:#fffd8f;fill-opacity:0.39;"/>
                        </g>
                    </g>
                </g>
                <g id="shape41" serif:id="shape4">
                    <path d="M2.4,-2.4C3.033,-1.767 3.367,-0.967 3.4,0C3.367,0.933 3.033,1.733 2.4,2.4C1.733,3.033 0.933,3.367 0,3.4C-0.967,3.367 -1.767,3.033 -2.4,2.4C-3.067,1.733 -3.4,0.933 -3.4,0C-3.4,-0.967 -3.067,-1.767 -2.4,-2.4C-1.767,-3.067 -0.967,-3.4 0,-3.4C0.933,-3.4 1.733,-3.067 2.4,-2.4" style="fill:#fff;"/>
                </g>
            </g>
            <g id="sprite12" serif:id="sprite1" transform="matrix(-0.142,-0.11,0.1674,-0.2102,160.1,150.8)">
                <g id="sprite22" serif:id="sprite2" transform="matrix(0.7715,0,0,0.7715,0.749775,-0.250325)">
                    <g id="sprite312" serif:id="sprite3" transform="matrix(1,0,0,1,-23,1.15)">
                        <g id="shape312" serif:id="shape3">
                            <path d="M6.15,-0.55L8.45,-0.75L15,-1.25L21.7,-1.5C23.467,-1.3 24.35,-1.067 24.35,-0.8C24.35,-0.533 23.433,-0.317 21.6,-0.15C19.767,-0.017 17.433,-0.067 14.6,-0.3L8.3,-0.55C6.967,-0.45 6.25,-0.45 6.15,-0.55" style="fill:#fefd8d;fill-opacity:0.97;"/>
                            <path d="M19.65,1.5C18.55,2.067 17.083,2.567 15.25,3C13.383,3.4 12.05,3.8 11.25,4.2L9.9,4.7C9.8,4.633 10.267,4.4 11.3,4L15.15,2C16.717,1.067 18.083,0.483 19.25,0.25L21.15,0.3C21.217,0.533 20.717,0.933 19.65,1.5" style="fill:#fffd8f;fill-opacity:0.4;"/>
                            <path d="M13.85,-4.6C12.917,-4.867 12.517,-5.117 12.65,-5.35C12.783,-5.583 13.317,-5.45 14.25,-4.95C15.183,-4.45 16.7,-4.1 18.8,-3.9C20.867,-3.7 22.2,-3.1 22.8,-2.1C23.367,-1.133 23.4,-0.367 22.9,0.2C22.367,0.767 21.467,0.9 20.2,0.6C18.933,0.267 17.783,-0.617 16.75,-2.05C15.683,-3.517 14.717,-4.367 13.85,-4.6" style="fill:#fffd8f;fill-opacity:0.39;"/>
                        </g>
                    </g>
                    <g id="sprite313" serif:id="sprite3" transform="matrix(0.6024,0.7962,-0.2592,0.1665,-14.3996,-17.2)">
                        <g id="shape313" serif:id="shape3">
                            <path d="M6.15,-0.55L8.45,-0.75L15,-1.25L21.7,-1.5C23.467,-1.3 24.35,-1.067 24.35,-0.8C24.35,-0.533 23.433,-0.317 21.6,-0.15C19.767,-0.017 17.433,-0.067 14.6,-0.3L8.3,-0.55C6.967,-0.45 6.25,-0.45 6.15,-0.55" style="fill:#fefd8d;fill-opacity:0.97;"/>
                            <path d="M19.65,1.5C18.55,2.067 17.083,2.567 15.25,3C13.383,3.4 12.05,3.8 11.25,4.2L9.9,4.7C9.8,4.633 10.267,4.4 11.3,4L15.15,2C16.717,1.067 18.083,0.483 19.25,0.25L21.15,0.3C21.217,0.533 20.717,0.933 19.65,1.5" style="fill:#fffd8f;fill-opacity:0.4;"/>
                            <path d="M13.85,-4.6C12.917,-4.867 12.517,-5.117 12.65,-5.35C12.783,-5.583 13.317,-5.45 14.25,-4.95C15.183,-4.45 16.7,-4.1 18.8,-3.9C20.867,-3.7 22.2,-3.1 22.8,-2.1C23.367,-1.133 23.4,-0.367 22.9,0.2C22.367,0.767 21.467,0.9 20.2,0.6C18.933,0.267 17.783,-0.617 16.75,-2.05C15.683,-3.517 14.717,-4.367 13.85,-4.6" style="fill:#fffd8f;fill-opacity:0.39;"/>
                        </g>
                    </g>
                    <g id="sprite314" serif:id="sprite3" transform="matrix(-0.9792,0.1994,-0.1994,-0.9792,21.7499,-4.49945)">
                        <g id="shape314" serif:id="shape3">
                            <path d="M6.15,-0.55L8.45,-0.75L15,-1.25L21.7,-1.5C23.467,-1.3 24.35,-1.067 24.35,-0.8C24.35,-0.533 23.433,-0.317 21.6,-0.15C19.767,-0.017 17.433,-0.067 14.6,-0.3L8.3,-0.55C6.967,-0.45 6.25,-0.45 6.15,-0.55" style="fill:#fefd8d;fill-opacity:0.97;"/>
                            <path d="M19.65,1.5C18.55,2.067 17.083,2.567 15.25,3C13.383,3.4 12.05,3.8 11.25,4.2L9.9,4.7C9.8,4.633 10.267,4.4 11.3,4L15.15,2C16.717,1.067 18.083,0.483 19.25,0.25L21.15,0.3C21.217,0.533 20.717,0.933 19.65,1.5" style="fill:#fffd8f;fill-opacity:0.4;"/>
                            <path d="M13.85,-4.6C12.917,-4.867 12.517,-5.117 12.65,-5.35C12.783,-5.583 13.317,-5.45 14.25,-4.95C15.183,-4.45 16.7,-4.1 18.8,-3.9C20.867,-3.7 22.2,-3.1 22.8,-2.1C23.367,-1.133 23.4,-0.367 22.9,0.2C22.367,0.767 21.467,0.9 20.2,0.6C18.933,0.267 17.783,-0.617 16.75,-2.05C15.683,-3.517 14.717,-4.367 13.85,-4.6" style="fill:#fffd8f;fill-opacity:0.39;"/>
                        </g>
                    </g>
                    <g id="sprite315" serif:id="sprite3" transform="matrix(-0.7487,-0.6595,0.2206,-0.2148,16.9997,15.2498)">
                        <g id="shape315" serif:id="shape3">
                            <path d="M6.15,-0.55L8.45,-0.75L15,-1.25L21.7,-1.5C23.467,-1.3 24.35,-1.067 24.35,-0.8C24.35,-0.533 23.433,-0.317 21.6,-0.15C19.767,-0.017 17.433,-0.067 14.6,-0.3L8.3,-0.55C6.967,-0.45 6.25,-0.45 6.15,-0.55" style="fill:#fefd8d;fill-opacity:0.97;"/>
                            <path d="M19.65,1.5C18.55,2.067 17.083,2.567 15.25,3C13.383,3.4 12.05,3.8 11.25,4.2L9.9,4.7C9.8,4.633 10.267,4.4 11.3,4L15.15,2C16.717,1.067 18.083,0.483 19.25,0.25L21.15,0.3C21.217,0.533 20.717,0.933 19.65,1.5" style="fill:#fffd8f;fill-opacity:0.4;"/>
                            <path d="M13.85,-4.6C12.917,-4.867 12.517,-5.117 12.65,-5.35C12.783,-5.583 13.317,-5.45 14.25,-4.95C15.183,-4.45 16.7,-4.1 18.8,-3.9C20.867,-3.7 22.2,-3.1 22.8,-2.1C23.367,-1.133 23.4,-0.367 22.9,0.2C22.367,0.767 21.467,0.9 20.2,0.6C18.933,0.267 17.783,-0.617 16.75,-2.05C15.683,-3.517 14.717,-4.367 13.85,-4.6" style="fill:#fffd8f;fill-opacity:0.39;"/>
                        </g>
                    </g>
                    <g id="sprite316" serif:id="sprite3" transform="matrix(-0.2087,0.9761,-0.3253,-0.0696,4.40002,-24.7503)">
                        <g id="shape316" serif:id="shape3">
                            <path d="M6.15,-0.55L8.45,-0.75L15,-1.25L21.7,-1.5C23.467,-1.3 24.35,-1.067 24.35,-0.8C24.35,-0.533 23.433,-0.317 21.6,-0.15C19.767,-0.017 17.433,-0.067 14.6,-0.3L8.3,-0.55C6.967,-0.45 6.25,-0.45 6.15,-0.55" style="fill:#fefd8d;fill-opacity:0.97;"/>
                            <path d="M19.65,1.5C18.55,2.067 17.083,2.567 15.25,3C13.383,3.4 12.05,3.8 11.25,4.2L9.9,4.7C9.8,4.633 10.267,4.4 11.3,4L15.15,2C16.717,1.067 18.083,0.483 19.25,0.25L21.15,0.3C21.217,0.533 20.717,0.933 19.65,1.5" style="fill:#fffd8f;fill-opacity:0.4;"/>
                            <path d="M13.85,-4.6C12.917,-4.867 12.517,-5.117 12.65,-5.35C12.783,-5.583 13.317,-5.45 14.25,-4.95C15.183,-4.45 16.7,-4.1 18.8,-3.9C20.867,-3.7 22.2,-3.1 22.8,-2.1C23.367,-1.133 23.4,-0.367 22.9,0.2C22.367,0.767 21.467,0.9 20.2,0.6C18.933,0.267 17.783,-0.617 16.75,-2.05C15.683,-3.517 14.717,-4.367 13.85,-4.6" style="fill:#fffd8f;fill-opacity:0.39;"/>
                        </g>
                    </g>
                    <g id="sprite317" serif:id="sprite3" transform="matrix(0.3716,-0.9258,0.3086,0.1239,-10.05,24.2002)">
                        <g id="shape317" serif:id="shape3">
                            <path d="M6.15,-0.55L8.45,-0.75L15,-1.25L21.7,-1.5C23.467,-1.3 24.35,-1.067 24.35,-0.8C24.35,-0.533 23.433,-0.317 21.6,-0.15C19.767,-0.017 17.433,-0.067 14.6,-0.3L8.3,-0.55C6.967,-0.45 6.25,-0.45 6.15,-0.55" style="fill:#fefd8d;fill-opacity:0.97;"/>
                            <path d="M19.65,1.5C18.55,2.067 17.083,2.567 15.25,3C13.383,3.4 12.05,3.8 11.25,4.2L9.9,4.7C9.8,4.633 10.267,4.4 11.3,4L15.15,2C16.717,1.067 18.083,0.483 19.25,0.25L21.15,0.3C21.217,0.533 20.717,0.933 19.65,1.5" style="fill:#fffd8f;fill-opacity:0.4;"/>
                            <path d="M13.85,-4.6C12.917,-4.867 12.517,-5.117 12.65,-5.35C12.783,-5.583 13.317,-5.45 14.25,-4.95C15.183,-4.45 16.7,-4.1 18.8,-3.9C20.867,-3.7 22.2,-3.1 22.8,-2.1C23.367,-1.133 23.4,-0.367 22.9,0.2C22.367,0.767 21.467,0.9 20.2,0.6C18.933,0.267 17.783,-0.617 16.75,-2.05C15.683,-3.517 14.717,-4.367 13.85,-4.6" style="fill:#fffd8f;fill-opacity:0.39;"/>
                        </g>
                    </g>
                </g>
                <g id="shape42" serif:id="shape4">
                    <path d="M2.4,-2.4C3.033,-1.767 3.367,-0.967 3.4,0C3.367,0.933 3.033,1.733 2.4,2.4C1.733,3.033 0.933,3.367 0,3.4C-0.967,3.367 -1.767,3.033 -2.4,2.4C-3.067,1.733 -3.4,0.933 -3.4,0C-3.4,-0.967 -3.067,-1.767 -2.4,-2.4C-1.767,-3.067 -0.967,-3.4 0,-3.4C0.933,-3.4 1.733,-3.067 2.4,-2.4" style="fill:#fff;"/>
                </g>
            </g>
            <g id="sprite13" serif:id="sprite1" transform="matrix(-0.0913,-0.0707,0.1076,-0.1351,147.85,161.65)">
                <g id="sprite23" serif:id="sprite2" transform="matrix(0.7715,0,0,0.7715,0.749775,-0.250325)">
                    <g id="sprite318" serif:id="sprite3" transform="matrix(1,0,0,1,-23,1.15)">
                        <g id="shape318" serif:id="shape3">
                            <path d="M6.15,-0.55L8.45,-0.75L15,-1.25L21.7,-1.5C23.467,-1.3 24.35,-1.067 24.35,-0.8C24.35,-0.533 23.433,-0.317 21.6,-0.15C19.767,-0.017 17.433,-0.067 14.6,-0.3L8.3,-0.55C6.967,-0.45 6.25,-0.45 6.15,-0.55" style="fill:#fefd8d;fill-opacity:0.97;"/>
                            <path d="M19.65,1.5C18.55,2.067 17.083,2.567 15.25,3C13.383,3.4 12.05,3.8 11.25,4.2L9.9,4.7C9.8,4.633 10.267,4.4 11.3,4L15.15,2C16.717,1.067 18.083,0.483 19.25,0.25L21.15,0.3C21.217,0.533 20.717,0.933 19.65,1.5" style="fill:#fffd8f;fill-opacity:0.4;"/>
                            <path d="M13.85,-4.6C12.917,-4.867 12.517,-5.117 12.65,-5.35C12.783,-5.583 13.317,-5.45 14.25,-4.95C15.183,-4.45 16.7,-4.1 18.8,-3.9C20.867,-3.7 22.2,-3.1 22.8,-2.1C23.367,-1.133 23.4,-0.367 22.9,0.2C22.367,0.767 21.467,0.9 20.2,0.6C18.933,0.267 17.783,-0.617 16.75,-2.05C15.683,-3.517 14.717,-4.367 13.85,-4.6" style="fill:#fffd8f;fill-opacity:0.39;"/>
                        </g>
                    </g>
                    <g id="sprite319" serif:id="sprite3" transform="matrix(0.6024,0.7962,-0.2592,0.1665,-14.3996,-17.2)">
                        <g id="shape319" serif:id="shape3">
                            <path d="M6.15,-0.55L8.45,-0.75L15,-1.25L21.7,-1.5C23.467,-1.3 24.35,-1.067 24.35,-0.8C24.35,-0.533 23.433,-0.317 21.6,-0.15C19.767,-0.017 17.433,-0.067 14.6,-0.3L8.3,-0.55C6.967,-0.45 6.25,-0.45 6.15,-0.55" style="fill:#fefd8d;fill-opacity:0.97;"/>
                            <path d="M19.65,1.5C18.55,2.067 17.083,2.567 15.25,3C13.383,3.4 12.05,3.8 11.25,4.2L9.9,4.7C9.8,4.633 10.267,4.4 11.3,4L15.15,2C16.717,1.067 18.083,0.483 19.25,0.25L21.15,0.3C21.217,0.533 20.717,0.933 19.65,1.5" style="fill:#fffd8f;fill-opacity:0.4;"/>
                            <path d="M13.85,-4.6C12.917,-4.867 12.517,-5.117 12.65,-5.35C12.783,-5.583 13.317,-5.45 14.25,-4.95C15.183,-4.45 16.7,-4.1 18.8,-3.9C20.867,-3.7 22.2,-3.1 22.8,-2.1C23.367,-1.133 23.4,-0.367 22.9,0.2C22.367,0.767 21.467,0.9 20.2,0.6C18.933,0.267 17.783,-0.617 16.75,-2.05C15.683,-3.517 14.717,-4.367 13.85,-4.6" style="fill:#fffd8f;fill-opacity:0.39;"/>
                        </g>
                    </g>
                    <g id="sprite320" serif:id="sprite3" transform="matrix(-0.9792,0.1994,-0.1994,-0.9792,21.7499,-4.49945)">
                        <g id="shape320" serif:id="shape3">
                            <path d="M6.15,-0.55L8.45,-0.75L15,-1.25L21.7,-1.5C23.467,-1.3 24.35,-1.067 24.35,-0.8C24.35,-0.533 23.433,-0.317 21.6,-0.15C19.767,-0.017 17.433,-0.067 14.6,-0.3L8.3,-0.55C6.967,-0.45 6.25,-0.45 6.15,-0.55" style="fill:#fefd8d;fill-opacity:0.97;"/>
                            <path d="M19.65,1.5C18.55,2.067 17.083,2.567 15.25,3C13.383,3.4 12.05,3.8 11.25,4.2L9.9,4.7C9.8,4.633 10.267,4.4 11.3,4L15.15,2C16.717,1.067 18.083,0.483 19.25,0.25L21.15,0.3C21.217,0.533 20.717,0.933 19.65,1.5" style="fill:#fffd8f;fill-opacity:0.4;"/>
                            <path d="M13.85,-4.6C12.917,-4.867 12.517,-5.117 12.65,-5.35C12.783,-5.583 13.317,-5.45 14.25,-4.95C15.183,-4.45 16.7,-4.1 18.8,-3.9C20.867,-3.7 22.2,-3.1 22.8,-2.1C23.367,-1.133 23.4,-0.367 22.9,0.2C22.367,0.767 21.467,0.9 20.2,0.6C18.933,0.267 17.783,-0.617 16.75,-2.05C15.683,-3.517 14.717,-4.367 13.85,-4.6" style="fill:#fffd8f;fill-opacity:0.39;"/>
                        </g>
                    </g>
                    <g id="sprite321" serif:id="sprite3" transform="matrix(-0.7487,-0.6595,0.2206,-0.2148,16.9997,15.2498)">
                        <g id="shape321" serif:id="shape3">
                            <path d="M6.15,-0.55L8.45,-0.75L15,-1.25L21.7,-1.5C23.467,-1.3 24.35,-1.067 24.35,-0.8C24.35,-0.533 23.433,-0.317 21.6,-0.15C19.767,-0.017 17.433,-0.067 14.6,-0.3L8.3,-0.55C6.967,-0.45 6.25,-0.45 6.15,-0.55" style="fill:#fefd8d;fill-opacity:0.97;"/>
                            <path d="M19.65,1.5C18.55,2.067 17.083,2.567 15.25,3C13.383,3.4 12.05,3.8 11.25,4.2L9.9,4.7C9.8,4.633 10.267,4.4 11.3,4L15.15,2C16.717,1.067 18.083,0.483 19.25,0.25L21.15,0.3C21.217,0.533 20.717,0.933 19.65,1.5" style="fill:#fffd8f;fill-opacity:0.4;"/>
                            <path d="M13.85,-4.6C12.917,-4.867 12.517,-5.117 12.65,-5.35C12.783,-5.583 13.317,-5.45 14.25,-4.95C15.183,-4.45 16.7,-4.1 18.8,-3.9C20.867,-3.7 22.2,-3.1 22.8,-2.1C23.367,-1.133 23.4,-0.367 22.9,0.2C22.367,0.767 21.467,0.9 20.2,0.6C18.933,0.267 17.783,-0.617 16.75,-2.05C15.683,-3.517 14.717,-4.367 13.85,-4.6" style="fill:#fffd8f;fill-opacity:0.39;"/>
                        </g>
                    </g>
                    <g id="sprite322" serif:id="sprite3" transform="matrix(-0.2087,0.9761,-0.3253,-0.0696,4.40002,-24.7503)">
                        <g id="shape322" serif:id="shape3">
                            <path d="M6.15,-0.55L8.45,-0.75L15,-1.25L21.7,-1.5C23.467,-1.3 24.35,-1.067 24.35,-0.8C24.35,-0.533 23.433,-0.317 21.6,-0.15C19.767,-0.017 17.433,-0.067 14.6,-0.3L8.3,-0.55C6.967,-0.45 6.25,-0.45 6.15,-0.55" style="fill:#fefd8d;fill-opacity:0.97;"/>
                            <path d="M19.65,1.5C18.55,2.067 17.083,2.567 15.25,3C13.383,3.4 12.05,3.8 11.25,4.2L9.9,4.7C9.8,4.633 10.267,4.4 11.3,4L15.15,2C16.717,1.067 18.083,0.483 19.25,0.25L21.15,0.3C21.217,0.533 20.717,0.933 19.65,1.5" style="fill:#fffd8f;fill-opacity:0.4;"/>
                            <path d="M13.85,-4.6C12.917,-4.867 12.517,-5.117 12.65,-5.35C12.783,-5.583 13.317,-5.45 14.25,-4.95C15.183,-4.45 16.7,-4.1 18.8,-3.9C20.867,-3.7 22.2,-3.1 22.8,-2.1C23.367,-1.133 23.4,-0.367 22.9,0.2C22.367,0.767 21.467,0.9 20.2,0.6C18.933,0.267 17.783,-0.617 16.75,-2.05C15.683,-3.517 14.717,-4.367 13.85,-4.6" style="fill:#fffd8f;fill-opacity:0.39;"/>
                        </g>
                    </g>
                    <g id="sprite323" serif:id="sprite3" transform="matrix(0.3716,-0.9258,0.3086,0.1239,-10.05,24.2002)">
                        <g id="shape323" serif:id="shape3">
                            <path d="M6.15,-0.55L8.45,-0.75L15,-1.25L21.7,-1.5C23.467,-1.3 24.35,-1.067 24.35,-0.8C24.35,-0.533 23.433,-0.317 21.6,-0.15C19.767,-0.017 17.433,-0.067 14.6,-0.3L8.3,-0.55C6.967,-0.45 6.25,-0.45 6.15,-0.55" style="fill:#fefd8d;fill-opacity:0.97;"/>
                            <path d="M19.65,1.5C18.55,2.067 17.083,2.567 15.25,3C13.383,3.4 12.05,3.8 11.25,4.2L9.9,4.7C9.8,4.633 10.267,4.4 11.3,4L15.15,2C16.717,1.067 18.083,0.483 19.25,0.25L21.15,0.3C21.217,0.533 20.717,0.933 19.65,1.5" style="fill:#fffd8f;fill-opacity:0.4;"/>
                            <path d="M13.85,-4.6C12.917,-4.867 12.517,-5.117 12.65,-5.35C12.783,-5.583 13.317,-5.45 14.25,-4.95C15.183,-4.45 16.7,-4.1 18.8,-3.9C20.867,-3.7 22.2,-3.1 22.8,-2.1C23.367,-1.133 23.4,-0.367 22.9,0.2C22.367,0.767 21.467,0.9 20.2,0.6C18.933,0.267 17.783,-0.617 16.75,-2.05C15.683,-3.517 14.717,-4.367 13.85,-4.6" style="fill:#fffd8f;fill-opacity:0.39;"/>
                        </g>
                    </g>
                </g>
                <g id="shape43" serif:id="shape4">
                    <path d="M2.4,-2.4C3.033,-1.767 3.367,-0.967 3.4,0C3.367,0.933 3.033,1.733 2.4,2.4C1.733,3.033 0.933,3.367 0,3.4C-0.967,3.367 -1.767,3.033 -2.4,2.4C-3.067,1.733 -3.4,0.933 -3.4,0C-3.4,-0.967 -3.067,-1.767 -2.4,-2.4C-1.767,-3.067 -0.967,-3.4 0,-3.4C0.933,-3.4 1.733,-3.067 2.4,-2.4" style="fill:#fff;"/>
                </g>
            </g>
            <g id="sprite14" serif:id="sprite1" transform="matrix(-0.0913,-0.0707,0.1076,-0.1351,151.4,149.9)">
                <g id="sprite24" serif:id="sprite2" transform="matrix(0.7715,0,0,0.7715,0.749775,-0.250325)">
                    <g id="sprite324" serif:id="sprite3" transform="matrix(1,0,0,1,-23,1.15)">
                        <g id="shape324" serif:id="shape3">
                            <path d="M6.15,-0.55L8.45,-0.75L15,-1.25L21.7,-1.5C23.467,-1.3 24.35,-1.067 24.35,-0.8C24.35,-0.533 23.433,-0.317 21.6,-0.15C19.767,-0.017 17.433,-0.067 14.6,-0.3L8.3,-0.55C6.967,-0.45 6.25,-0.45 6.15,-0.55" style="fill:#fefd8d;fill-opacity:0.97;"/>
                            <path d="M19.65,1.5C18.55,2.067 17.083,2.567 15.25,3C13.383,3.4 12.05,3.8 11.25,4.2L9.9,4.7C9.8,4.633 10.267,4.4 11.3,4L15.15,2C16.717,1.067 18.083,0.483 19.25,0.25L21.15,0.3C21.217,0.533 20.717,0.933 19.65,1.5" style="fill:#fffd8f;fill-opacity:0.4;"/>
                            <path d="M13.85,-4.6C12.917,-4.867 12.517,-5.117 12.65,-5.35C12.783,-5.583 13.317,-5.45 14.25,-4.95C15.183,-4.45 16.7,-4.1 18.8,-3.9C20.867,-3.7 22.2,-3.1 22.8,-2.1C23.367,-1.133 23.4,-0.367 22.9,0.2C22.367,0.767 21.467,0.9 20.2,0.6C18.933,0.267 17.783,-0.617 16.75,-2.05C15.683,-3.517 14.717,-4.367 13.85,-4.6" style="fill:#fffd8f;fill-opacity:0.39;"/>
                        </g>
                    </g>
                    <g id="sprite325" serif:id="sprite3" transform="matrix(0.6024,0.7962,-0.2592,0.1665,-14.3996,-17.2)">
                        <g id="shape325" serif:id="shape3">
                            <path d="M6.15,-0.55L8.45,-0.75L15,-1.25L21.7,-1.5C23.467,-1.3 24.35,-1.067 24.35,-0.8C24.35,-0.533 23.433,-0.317 21.6,-0.15C19.767,-0.017 17.433,-0.067 14.6,-0.3L8.3,-0.55C6.967,-0.45 6.25,-0.45 6.15,-0.55" style="fill:#fefd8d;fill-opacity:0.97;"/>
                            <path d="M19.65,1.5C18.55,2.067 17.083,2.567 15.25,3C13.383,3.4 12.05,3.8 11.25,4.2L9.9,4.7C9.8,4.633 10.267,4.4 11.3,4L15.15,2C16.717,1.067 18.083,0.483 19.25,0.25L21.15,0.3C21.217,0.533 20.717,0.933 19.65,1.5" style="fill:#fffd8f;fill-opacity:0.4;"/>
                            <path d="M13.85,-4.6C12.917,-4.867 12.517,-5.117 12.65,-5.35C12.783,-5.583 13.317,-5.45 14.25,-4.95C15.183,-4.45 16.7,-4.1 18.8,-3.9C20.867,-3.7 22.2,-3.1 22.8,-2.1C23.367,-1.133 23.4,-0.367 22.9,0.2C22.367,0.767 21.467,0.9 20.2,0.6C18.933,0.267 17.783,-0.617 16.75,-2.05C15.683,-3.517 14.717,-4.367 13.85,-4.6" style="fill:#fffd8f;fill-opacity:0.39;"/>
                        </g>
                    </g>
                    <g id="sprite326" serif:id="sprite3" transform="matrix(-0.9792,0.1994,-0.1994,-0.9792,21.7499,-4.49945)">
                        <g id="shape326" serif:id="shape3">
                            <path d="M6.15,-0.55L8.45,-0.75L15,-1.25L21.7,-1.5C23.467,-1.3 24.35,-1.067 24.35,-0.8C24.35,-0.533 23.433,-0.317 21.6,-0.15C19.767,-0.017 17.433,-0.067 14.6,-0.3L8.3,-0.55C6.967,-0.45 6.25,-0.45 6.15,-0.55" style="fill:#fefd8d;fill-opacity:0.97;"/>
                            <path d="M19.65,1.5C18.55,2.067 17.083,2.567 15.25,3C13.383,3.4 12.05,3.8 11.25,4.2L9.9,4.7C9.8,4.633 10.267,4.4 11.3,4L15.15,2C16.717,1.067 18.083,0.483 19.25,0.25L21.15,0.3C21.217,0.533 20.717,0.933 19.65,1.5" style="fill:#fffd8f;fill-opacity:0.4;"/>
                            <path d="M13.85,-4.6C12.917,-4.867 12.517,-5.117 12.65,-5.35C12.783,-5.583 13.317,-5.45 14.25,-4.95C15.183,-4.45 16.7,-4.1 18.8,-3.9C20.867,-3.7 22.2,-3.1 22.8,-2.1C23.367,-1.133 23.4,-0.367 22.9,0.2C22.367,0.767 21.467,0.9 20.2,0.6C18.933,0.267 17.783,-0.617 16.75,-2.05C15.683,-3.517 14.717,-4.367 13.85,-4.6" style="fill:#fffd8f;fill-opacity:0.39;"/>
                        </g>
                    </g>
                    <g id="sprite327" serif:id="sprite3" transform="matrix(-0.7487,-0.6595,0.2206,-0.2148,16.9997,15.2498)">
                        <g id="shape327" serif:id="shape3">
                            <path d="M6.15,-0.55L8.45,-0.75L15,-1.25L21.7,-1.5C23.467,-1.3 24.35,-1.067 24.35,-0.8C24.35,-0.533 23.433,-0.317 21.6,-0.15C19.767,-0.017 17.433,-0.067 14.6,-0.3L8.3,-0.55C6.967,-0.45 6.25,-0.45 6.15,-0.55" style="fill:#fefd8d;fill-opacity:0.97;"/>
                            <path d="M19.65,1.5C18.55,2.067 17.083,2.567 15.25,3C13.383,3.4 12.05,3.8 11.25,4.2L9.9,4.7C9.8,4.633 10.267,4.4 11.3,4L15.15,2C16.717,1.067 18.083,0.483 19.25,0.25L21.15,0.3C21.217,0.533 20.717,0.933 19.65,1.5" style="fill:#fffd8f;fill-opacity:0.4;"/>
                            <path d="M13.85,-4.6C12.917,-4.867 12.517,-5.117 12.65,-5.35C12.783,-5.583 13.317,-5.45 14.25,-4.95C15.183,-4.45 16.7,-4.1 18.8,-3.9C20.867,-3.7 22.2,-3.1 22.8,-2.1C23.367,-1.133 23.4,-0.367 22.9,0.2C22.367,0.767 21.467,0.9 20.2,0.6C18.933,0.267 17.783,-0.617 16.75,-2.05C15.683,-3.517 14.717,-4.367 13.85,-4.6" style="fill:#fffd8f;fill-opacity:0.39;"/>
                        </g>
                    </g>
                    <g id="sprite328" serif:id="sprite3" transform="matrix(-0.2087,0.9761,-0.3253,-0.0696,4.40002,-24.7503)">
                        <g id="shape328" serif:id="shape3">
                            <path d="M6.15,-0.55L8.45,-0.75L15,-1.25L21.7,-1.5C23.467,-1.3 24.35,-1.067 24.35,-0.8C24.35,-0.533 23.433,-0.317 21.6,-0.15C19.767,-0.017 17.433,-0.067 14.6,-0.3L8.3,-0.55C6.967,-0.45 6.25,-0.45 6.15,-0.55" style="fill:#fefd8d;fill-opacity:0.97;"/>
                            <path d="M19.65,1.5C18.55,2.067 17.083,2.567 15.25,3C13.383,3.4 12.05,3.8 11.25,4.2L9.9,4.7C9.8,4.633 10.267,4.4 11.3,4L15.15,2C16.717,1.067 18.083,0.483 19.25,0.25L21.15,0.3C21.217,0.533 20.717,0.933 19.65,1.5" style="fill:#fffd8f;fill-opacity:0.4;"/>
                            <path d="M13.85,-4.6C12.917,-4.867 12.517,-5.117 12.65,-5.35C12.783,-5.583 13.317,-5.45 14.25,-4.95C15.183,-4.45 16.7,-4.1 18.8,-3.9C20.867,-3.7 22.2,-3.1 22.8,-2.1C23.367,-1.133 23.4,-0.367 22.9,0.2C22.367,0.767 21.467,0.9 20.2,0.6C18.933,0.267 17.783,-0.617 16.75,-2.05C15.683,-3.517 14.717,-4.367 13.85,-4.6" style="fill:#fffd8f;fill-opacity:0.39;"/>
                        </g>
                    </g>
                    <g id="sprite329" serif:id="sprite3" transform="matrix(0.3716,-0.9258,0.3086,0.1239,-10.05,24.2002)">
                        <g id="shape329" serif:id="shape3">
                            <path d="M6.15,-0.55L8.45,-0.75L15,-1.25L21.7,-1.5C23.467,-1.3 24.35,-1.067 24.35,-0.8C24.35,-0.533 23.433,-0.317 21.6,-0.15C19.767,-0.017 17.433,-0.067 14.6,-0.3L8.3,-0.55C6.967,-0.45 6.25,-0.45 6.15,-0.55" style="fill:#fefd8d;fill-opacity:0.97;"/>
                            <path d="M19.65,1.5C18.55,2.067 17.083,2.567 15.25,3C13.383,3.4 12.05,3.8 11.25,4.2L9.9,4.7C9.8,4.633 10.267,4.4 11.3,4L15.15,2C16.717,1.067 18.083,0.483 19.25,0.25L21.15,0.3C21.217,0.533 20.717,0.933 19.65,1.5" style="fill:#fffd8f;fill-opacity:0.4;"/>
                            <path d="M13.85,-4.6C12.917,-4.867 12.517,-5.117 12.65,-5.35C12.783,-5.583 13.317,-5.45 14.25,-4.95C15.183,-4.45 16.7,-4.1 18.8,-3.9C20.867,-3.7 22.2,-3.1 22.8,-2.1C23.367,-1.133 23.4,-0.367 22.9,0.2C22.367,0.767 21.467,0.9 20.2,0.6C18.933,0.267 17.783,-0.617 16.75,-2.05C15.683,-3.517 14.717,-4.367 13.85,-4.6" style="fill:#fffd8f;fill-opacity:0.39;"/>
                        </g>
                    </g>
                </g>
                <g id="shape44" serif:id="shape4">
                    <path d="M2.4,-2.4C3.033,-1.767 3.367,-0.967 3.4,0C3.367,0.933 3.033,1.733 2.4,2.4C1.733,3.033 0.933,3.367 0,3.4C-0.967,3.367 -1.767,3.033 -2.4,2.4C-3.067,1.733 -3.4,0.933 -3.4,0C-3.4,-0.967 -3.067,-1.767 -2.4,-2.4C-1.767,-3.067 -0.967,-3.4 0,-3.4C0.933,-3.4 1.733,-3.067 2.4,-2.4" style="fill:#fff;"/>
                </g>
            </g>
            <g id="sprite15" serif:id="sprite1" transform="matrix(-0.0652,-0.0504,0.0768,-0.0964,154.249,169.151)">
                <g id="sprite25" serif:id="sprite2" transform="matrix(0.7715,0,0,0.7715,0.749775,-0.250325)">
                    <g id="sprite330" serif:id="sprite3" transform="matrix(1,0,0,1,-23,1.15)">
                        <g id="shape330" serif:id="shape3">
                            <path d="M6.15,-0.55L8.45,-0.75L15,-1.25L21.7,-1.5C23.467,-1.3 24.35,-1.067 24.35,-0.8C24.35,-0.533 23.433,-0.317 21.6,-0.15C19.767,-0.017 17.433,-0.067 14.6,-0.3L8.3,-0.55C6.967,-0.45 6.25,-0.45 6.15,-0.55" style="fill:#fefd8d;fill-opacity:0.97;"/>
                            <path d="M19.65,1.5C18.55,2.067 17.083,2.567 15.25,3C13.383,3.4 12.05,3.8 11.25,4.2L9.9,4.7C9.8,4.633 10.267,4.4 11.3,4L15.15,2C16.717,1.067 18.083,0.483 19.25,0.25L21.15,0.3C21.217,0.533 20.717,0.933 19.65,1.5" style="fill:#fffd8f;fill-opacity:0.4;"/>
                            <path d="M13.85,-4.6C12.917,-4.867 12.517,-5.117 12.65,-5.35C12.783,-5.583 13.317,-5.45 14.25,-4.95C15.183,-4.45 16.7,-4.1 18.8,-3.9C20.867,-3.7 22.2,-3.1 22.8,-2.1C23.367,-1.133 23.4,-0.367 22.9,0.2C22.367,0.767 21.467,0.9 20.2,0.6C18.933,0.267 17.783,-0.617 16.75,-2.05C15.683,-3.517 14.717,-4.367 13.85,-4.6" style="fill:#fffd8f;fill-opacity:0.39;"/>
                        </g>
                    </g>
                    <g id="sprite331" serif:id="sprite3" transform="matrix(0.6024,0.7962,-0.2592,0.1665,-14.3996,-17.2)">
                        <g id="shape331" serif:id="shape3">
                            <path d="M6.15,-0.55L8.45,-0.75L15,-1.25L21.7,-1.5C23.467,-1.3 24.35,-1.067 24.35,-0.8C24.35,-0.533 23.433,-0.317 21.6,-0.15C19.767,-0.017 17.433,-0.067 14.6,-0.3L8.3,-0.55C6.967,-0.45 6.25,-0.45 6.15,-0.55" style="fill:#fefd8d;fill-opacity:0.97;"/>
                            <path d="M19.65,1.5C18.55,2.067 17.083,2.567 15.25,3C13.383,3.4 12.05,3.8 11.25,4.2L9.9,4.7C9.8,4.633 10.267,4.4 11.3,4L15.15,2C16.717,1.067 18.083,0.483 19.25,0.25L21.15,0.3C21.217,0.533 20.717,0.933 19.65,1.5" style="fill:#fffd8f;fill-opacity:0.4;"/>
                            <path d="M13.85,-4.6C12.917,-4.867 12.517,-5.117 12.65,-5.35C12.783,-5.583 13.317,-5.45 14.25,-4.95C15.183,-4.45 16.7,-4.1 18.8,-3.9C20.867,-3.7 22.2,-3.1 22.8,-2.1C23.367,-1.133 23.4,-0.367 22.9,0.2C22.367,0.767 21.467,0.9 20.2,0.6C18.933,0.267 17.783,-0.617 16.75,-2.05C15.683,-3.517 14.717,-4.367 13.85,-4.6" style="fill:#fffd8f;fill-opacity:0.39;"/>
                        </g>
                    </g>
                    <g id="sprite332" serif:id="sprite3" transform="matrix(-0.9792,0.1994,-0.1994,-0.9792,21.7499,-4.49945)">
                        <g id="shape332" serif:id="shape3">
                            <path d="M6.15,-0.55L8.45,-0.75L15,-1.25L21.7,-1.5C23.467,-1.3 24.35,-1.067 24.35,-0.8C24.35,-0.533 23.433,-0.317 21.6,-0.15C19.767,-0.017 17.433,-0.067 14.6,-0.3L8.3,-0.55C6.967,-0.45 6.25,-0.45 6.15,-0.55" style="fill:#fefd8d;fill-opacity:0.97;"/>
                            <path d="M19.65,1.5C18.55,2.067 17.083,2.567 15.25,3C13.383,3.4 12.05,3.8 11.25,4.2L9.9,4.7C9.8,4.633 10.267,4.4 11.3,4L15.15,2C16.717,1.067 18.083,0.483 19.25,0.25L21.15,0.3C21.217,0.533 20.717,0.933 19.65,1.5" style="fill:#fffd8f;fill-opacity:0.4;"/>
                            <path d="M13.85,-4.6C12.917,-4.867 12.517,-5.117 12.65,-5.35C12.783,-5.583 13.317,-5.45 14.25,-4.95C15.183,-4.45 16.7,-4.1 18.8,-3.9C20.867,-3.7 22.2,-3.1 22.8,-2.1C23.367,-1.133 23.4,-0.367 22.9,0.2C22.367,0.767 21.467,0.9 20.2,0.6C18.933,0.267 17.783,-0.617 16.75,-2.05C15.683,-3.517 14.717,-4.367 13.85,-4.6" style="fill:#fffd8f;fill-opacity:0.39;"/>
                        </g>
                    </g>
                    <g id="sprite333" serif:id="sprite3" transform="matrix(-0.7487,-0.6595,0.2206,-0.2148,16.9997,15.2498)">
                        <g id="shape333" serif:id="shape3">
                            <path d="M6.15,-0.55L8.45,-0.75L15,-1.25L21.7,-1.5C23.467,-1.3 24.35,-1.067 24.35,-0.8C24.35,-0.533 23.433,-0.317 21.6,-0.15C19.767,-0.017 17.433,-0.067 14.6,-0.3L8.3,-0.55C6.967,-0.45 6.25,-0.45 6.15,-0.55" style="fill:#fefd8d;fill-opacity:0.97;"/>
                            <path d="M19.65,1.5C18.55,2.067 17.083,2.567 15.25,3C13.383,3.4 12.05,3.8 11.25,4.2L9.9,4.7C9.8,4.633 10.267,4.4 11.3,4L15.15,2C16.717,1.067 18.083,0.483 19.25,0.25L21.15,0.3C21.217,0.533 20.717,0.933 19.65,1.5" style="fill:#fffd8f;fill-opacity:0.4;"/>
                            <path d="M13.85,-4.6C12.917,-4.867 12.517,-5.117 12.65,-5.35C12.783,-5.583 13.317,-5.45 14.25,-4.95C15.183,-4.45 16.7,-4.1 18.8,-3.9C20.867,-3.7 22.2,-3.1 22.8,-2.1C23.367,-1.133 23.4,-0.367 22.9,0.2C22.367,0.767 21.467,0.9 20.2,0.6C18.933,0.267 17.783,-0.617 16.75,-2.05C15.683,-3.517 14.717,-4.367 13.85,-4.6" style="fill:#fffd8f;fill-opacity:0.39;"/>
                        </g>
                    </g>
                    <g id="sprite334" serif:id="sprite3" transform="matrix(-0.2087,0.9761,-0.3253,-0.0696,4.40002,-24.7503)">
                        <g id="shape334" serif:id="shape3">
                            <path d="M6.15,-0.55L8.45,-0.75L15,-1.25L21.7,-1.5C23.467,-1.3 24.35,-1.067 24.35,-0.8C24.35,-0.533 23.433,-0.317 21.6,-0.15C19.767,-0.017 17.433,-0.067 14.6,-0.3L8.3,-0.55C6.967,-0.45 6.25,-0.45 6.15,-0.55" style="fill:#fefd8d;fill-opacity:0.97;"/>
                            <path d="M19.65,1.5C18.55,2.067 17.083,2.567 15.25,3C13.383,3.4 12.05,3.8 11.25,4.2L9.9,4.7C9.8,4.633 10.267,4.4 11.3,4L15.15,2C16.717,1.067 18.083,0.483 19.25,0.25L21.15,0.3C21.217,0.533 20.717,0.933 19.65,1.5" style="fill:#fffd8f;fill-opacity:0.4;"/>
                            <path d="M13.85,-4.6C12.917,-4.867 12.517,-5.117 12.65,-5.35C12.783,-5.583 13.317,-5.45 14.25,-4.95C15.183,-4.45 16.7,-4.1 18.8,-3.9C20.867,-3.7 22.2,-3.1 22.8,-2.1C23.367,-1.133 23.4,-0.367 22.9,0.2C22.367,0.767 21.467,0.9 20.2,0.6C18.933,0.267 17.783,-0.617 16.75,-2.05C15.683,-3.517 14.717,-4.367 13.85,-4.6" style="fill:#fffd8f;fill-opacity:0.39;"/>
                        </g>
                    </g>
                    <g id="sprite335" serif:id="sprite3" transform="matrix(0.3716,-0.9258,0.3086,0.1239,-10.05,24.2002)">
                        <g id="shape335" serif:id="shape3">
                            <path d="M6.15,-0.55L8.45,-0.75L15,-1.25L21.7,-1.5C23.467,-1.3 24.35,-1.067 24.35,-0.8C24.35,-0.533 23.433,-0.317 21.6,-0.15C19.767,-0.017 17.433,-0.067 14.6,-0.3L8.3,-0.55C6.967,-0.45 6.25,-0.45 6.15,-0.55" style="fill:#fefd8d;fill-opacity:0.97;"/>
                            <path d="M19.65,1.5C18.55,2.067 17.083,2.567 15.25,3C13.383,3.4 12.05,3.8 11.25,4.2L9.9,4.7C9.8,4.633 10.267,4.4 11.3,4L15.15,2C16.717,1.067 18.083,0.483 19.25,0.25L21.15,0.3C21.217,0.533 20.717,0.933 19.65,1.5" style="fill:#fffd8f;fill-opacity:0.4;"/>
                            <path d="M13.85,-4.6C12.917,-4.867 12.517,-5.117 12.65,-5.35C12.783,-5.583 13.317,-5.45 14.25,-4.95C15.183,-4.45 16.7,-4.1 18.8,-3.9C20.867,-3.7 22.2,-3.1 22.8,-2.1C23.367,-1.133 23.4,-0.367 22.9,0.2C22.367,0.767 21.467,0.9 20.2,0.6C18.933,0.267 17.783,-0.617 16.75,-2.05C15.683,-3.517 14.717,-4.367 13.85,-4.6" style="fill:#fffd8f;fill-opacity:0.39;"/>
                        </g>
                    </g>
                </g>
                <g id="shape45" serif:id="shape4">
                    <path d="M2.4,-2.4C3.033,-1.767 3.367,-0.967 3.4,0C3.367,0.933 3.033,1.733 2.4,2.4C1.733,3.033 0.933,3.367 0,3.4C-0.967,3.367 -1.767,3.033 -2.4,2.4C-3.067,1.733 -3.4,0.933 -3.4,0C-3.4,-0.967 -3.067,-1.767 -2.4,-2.4C-1.767,-3.067 -0.967,-3.4 0,-3.4C0.933,-3.4 1.733,-3.067 2.4,-2.4" style="fill:#fff;"/>
                </g>
            </g>
            <g id="shape5">
                <path d="M151.25,158.2L150.6,158.05L151.3,155.3L151.95,155.45L151.25,158.2M150.85,155.3L149.55,156.25L150.15,158L149.45,157.65L149.3,156.5L148.6,157.5L147.9,157.3L149.25,156.25L148.65,154.7L149.55,154.95L149.5,156L150.15,155.2L150.85,155.3M153.3,155.8L152.6,158.55L152,158.4L152.7,155.65L153.3,155.8" style="fill:#fff;"/>
                <path d="M145.8,166.1L145.5,165.6L148,165.65L146.4,167.4L146.15,166.85L147.55,165.7L145.8,166.1M144.65,163.95L146.4,163.1L146.6,163.45L144.9,164.35L144.65,163.95M145.95,162.05L146.15,162.45L144.4,163.4L144.2,163C144.8,162.7 145.383,162.383 145.95,162.05M146.9,163.95L147.2,164.45L145.4,165.3L145.15,164.9L146.9,163.95" style="fill:#fff;"/>
                <path d="M150.55,148L151.3,147.5L151,149.55L153.1,150.65L152.1,151L150.95,150.1L151.15,151.55L150.35,152.05L150.7,149.9L148.7,148.85L149.7,148.5L150.7,149.4L150.55,148M152.1,147.4L151.6,147.2L152.7,146.75L152.6,147.15L154.1,149.8L154.45,149.9L153.35,150.35L153.6,150.1L152.1,147.4" style="fill:#fff;"/>
                <path d="M159.45,164.55L161.5,166.6L161.05,167.05L159,165L159.45,164.55M161.95,165.95L160,164L160.45,163.55L162.4,165.5L161.95,165.95M158,166L158.45,165.55L160.5,167.6L160.05,168.05L158,166" style="fill:#fff;"/>
                <path d="M163.35,153.1L163,152.9L162.8,152.85L162.6,153.05L162.45,153.3L162.25,153.6L160.35,156.9L163.75,155.2L164,155.1L164.1,155.1L164.25,155L164.35,154.9L164.5,154.5L164.35,154.1L164.5,154L165.8,155.35L165.65,155.5L165.35,155.35L165,155.35L164.45,155.6L159.65,157.65L159.2,157.3L161.75,152.8L162,152.3L162.1,152L161.95,151.65L162.1,151.5L163.5,152.9L163.35,153.1M160.4,149.7L161.65,151L161.5,151.2L161.25,151.05L161.1,151.1L160.8,151.15L160.5,151.45L157.75,154.05L157.55,154.35L157.45,154.55L157.45,154.75L157.5,155.05L157.4,155.2L156.05,153.85L156.2,153.7L156.55,153.85L156.8,153.8L157.25,153.45L159.95,150.9L160.25,150.5L160.3,150.3L160.3,150.15L160.25,149.95L160.4,149.7" style="fill:#fff;"/>
                <path d="M159.8,130.8L160.5,130.65L162.4,130.1L163.05,129.7L163.7,129.45C164.933,128.883 165.533,128.233 165.5,127.5C165.533,126.4 164.517,125.5 162.45,124.8L162.25,124.7L162.5,124.7C166.633,126.333 167.567,128.767 165.3,132C165.2,132.733 164.55,133.4 163.35,134L162.25,134.3L159.8,134.95L159.8,130.8" style="fill:#89a837;"/>
                <path d="M162.25,124.7L162.45,124.8C164.517,125.5 165.533,126.4 165.5,127.5C165.533,128.233 164.933,128.883 163.7,129.45L163.05,129.7L162.4,130.1L160.5,130.65L159.8,130.8L159.55,130.8L157.6,131.1L155.1,131.15L151.8,131.05L149.6,130.6L149.3,130.6L144.8,127.85L144.75,127.45C144.717,126.983 144.9,126.567 145.3,126.2C145.733,125.7 146.533,125.233 147.7,124.8C149.767,124.033 152.25,123.65 155.15,123.65C157.583,123.65 159.7,123.917 161.5,124.45L162.25,124.7" style="fill:#e9f0e4;"/>
                <path d="M159.8,130.8L159.8,134.95L156.95,135.3L155,135.45L150.2,135.1L147.4,134.3C146.233,133.933 145.433,133.467 145,132.9L144.85,132.75L144.8,132.65C144.1,130.283 144.133,128.783 144.9,128.15C145.233,128.85 146.15,129.5 147.65,130.1L148.75,130.5L149.3,130.6L149.6,130.6L151.8,131.05L155.1,131.15L157.6,131.1L159.55,130.8L159.8,130.8M162.5,124.7L162.25,124.7L161.5,124.45L161,124.2L162.5,124.7" style="fill:#b0c657;"/>
                <path d="M145.3,126.2C144.9,126.567 144.717,126.983 144.75,127.45L144.8,127.85L144.9,128.15C144.133,128.783 144.1,130.283 144.8,132.65C142.6,129.883 142.767,127.733 145.3,126.2" style="fill:#b9be9c;"/>
                <path d="M144.8,127.85L149.3,130.6L148.75,130.5L147.65,130.1C146.15,129.5 145.233,128.85 144.9,128.15L144.8,127.85" style="fill:#fff;"/>
                <path d="M159.8,134.95L162.25,134.3L163.35,134C164.55,133.4 165.2,132.733 165.3,132C167.567,128.767 166.633,126.333 162.5,124.7L161,124.2L161.5,124.45C159.7,123.917 157.583,123.65 155.15,123.65C152.25,123.65 149.767,124.033 147.7,124.8C146.533,125.233 145.733,125.7 145.3,126.2C142.767,127.733 142.6,129.883 144.8,132.65L144.85,132.75L145,132.9C145.433,133.467 146.233,133.933 147.4,134.3L150.2,135.1L155,135.45L156.95,135.3L159.8,134.95Z" style="fill:none;fill-rule:nonzero;stroke:#000;stroke-opacity:0.4;stroke-width:0.1px;"/>
                <path d="M149.75,118.55L149.5,118.65C148.7,119.05 148.283,119.483 148.25,119.95L148.25,120.25L151.5,119.7C150.333,120.067 149.433,120.5 148.8,121L150.35,121.75L151.35,122.05L151.4,122.05L155.25,122.3L158.45,122.05L160.15,121.6C161.25,121.2 161.9,120.733 162.1,120.2L162.15,119.95L162.15,119.65L161.5,118.8L161.6,118.8L162,119.05L162.7,119.95L162.7,120.2L162.65,120.55L162.7,120.2L162.7,120.3L162.65,120.55L162.6,120.55L162.65,120.65C162.383,121.183 161.683,121.633 160.55,122L158.7,122.55L155.25,122.85L151.05,122.55L151,122.55L149.85,122.2C148.55,121.767 147.817,121.267 147.65,120.7L147.65,120.5L147.6,120.4L147.6,120.3C147.7,119.7 148.283,119.167 149.35,118.7L149.75,118.55M156,117.6L156,118.2C155,118.767 154.367,118.583 154.1,117.65L154.15,117.65L154.95,117.9C155.217,117.933 155.567,117.833 156,117.6M156.9,119.95L156.9,119.9C156.9,119.767 157.017,119.683 157.25,119.65L157.4,119.6L158.2,119.75L157.45,120L156.9,119.95M159.95,118.95L160.25,119.25L160,119.45L159.35,119.55L158.85,119.5L158.5,119.2L158.55,119.15L158.9,118.95L159.45,118.85L159.95,118.95M160.1,120.2C160.733,120.167 161.05,120.233 161.05,120.4L160.75,120.7L159.55,120.95C158.883,120.95 158.5,120.833 158.4,120.6L158.4,120.55L158.95,120.35L160.1,120.2M153.9,121.1L153.95,121.05L154.5,120.8L155.4,120.7L156.75,120.9L157.25,121.15L156.35,121.45L154.8,121.6L153.55,121.4L153.9,121.1M157.6,118.6L157.85,118.6L158.05,118.8L157.45,118.9L157.2,118.85L157.25,118.75C157.283,118.683 157.333,118.65 157.4,118.65L157.6,118.6" style="fill:#ac9c46;"/>
                <path d="M161.5,118.8L162.15,119.65L162.15,119.95L162.1,120.2C161.9,120.733 161.25,121.2 160.15,121.6L158.45,122.05L155.25,122.3L151.4,122.05L151.35,122.05L150.35,121.75L148.8,121C149.433,120.5 150.333,120.067 151.5,119.7L148.25,120.25L148.25,119.95C148.283,119.483 148.7,119.05 149.5,118.65L149.75,118.55L150.05,118.4L150.25,118.4C151.35,117.967 152.633,117.717 154.1,117.65C154.367,118.583 155,118.767 156,118.2L156,117.6C157.567,117.633 158.917,117.85 160.05,118.25L160.8,118.45L161.15,118.6L161.5,118.8M156.9,119.95L157.45,120L158.2,119.75L157.4,119.6L157.25,119.65C157.017,119.683 156.9,119.767 156.9,119.9L156.9,119.95M153.9,121.1L153.55,121.4L154.8,121.6L156.35,121.45L157.25,121.15L156.75,120.9L155.4,120.7L154.5,120.8L153.95,121.05L153.9,121.1M160.1,120.2L158.95,120.35L158.4,120.55L158.4,120.6C158.5,120.833 158.883,120.95 159.55,120.95L160.75,120.7L161.05,120.4C161.05,120.233 160.733,120.167 160.1,120.2M159.95,118.95L159.45,118.85L158.9,118.95L158.55,119.15L158.5,119.2L158.85,119.5L159.35,119.55L160,119.45L160.25,119.25L159.95,118.95M157.6,118.6L157.4,118.65C157.333,118.65 157.283,118.683 157.25,118.75L157.2,118.85L157.45,118.9L158.05,118.8L157.85,118.6L157.6,118.6" style="fill:#e0c585;"/>
                <path d="M158.7,122.55L160.55,122C161.683,121.633 162.383,121.183 162.65,120.65L162.6,120.55L162.65,120.55L162.65,120.65L162.6,123.35L162.6,124.85L162.5,125.85L162.5,125.95L162.55,128.2L162.55,128.3C162.117,128.667 161.533,128.983 160.8,129.25L158.9,129.75L158.35,129.85C158.217,128.95 158.2,127.783 158.3,126.35L158.4,124.85L158.45,124L158.7,122.55M162.15,125.6L161.55,125.6L160.35,125.95C160.117,126.117 160,126.267 160,126.4C160.033,126.767 160.317,126.933 160.85,126.9L161.85,126.6L162.4,125.95L162.15,125.6M162,123.05L161.75,122.75L161.35,123L161.05,123.5L161.05,124.05L161.1,124.3L161.2,124.55L161.45,124.5L161.9,124L162,123.8C162.133,123.567 162.133,123.317 162,123.05M162.5,125.85L162.6,123.35L162.5,125.85M160.15,123.05L160,123.3L160.3,123.5L160.85,123.15L160.35,123.05L160.15,123.05M159.5,123.9C159.333,123.9 159.217,123.95 159.15,124.05L159.05,124.05L158.8,124.15L158.6,124.3L158.7,124.45C158.767,124.583 158.983,124.65 159.35,124.65L160,124.45L160.3,124.2L160.05,124.05L160,124L159.5,123.9M160.3,125L160.3,125.05L159.95,125.25L159.95,125.45L160.15,125.5C160.283,125.5 160.417,125.433 160.55,125.3L160.7,125.15L160.55,125L160.45,125.05L160.35,125L160.3,125" style="fill:url(#_Linear2);"/>
                <path d="M162.15,125.6L162.4,125.95L161.85,126.6L160.85,126.9C160.317,126.933 160.033,126.767 160,126.4C160,126.267 160.117,126.117 160.35,125.95L161.55,125.6L162.15,125.6M160.3,125L160.35,125L160.45,125.05L160.55,125L160.7,125.15L160.55,125.3C160.417,125.433 160.283,125.5 160.15,125.5L159.95,125.45L159.95,125.25L160.3,125.05L160.3,125M159.5,123.9L160,124L160.05,124.05L160.3,124.2L160,124.45L159.35,124.65C158.983,124.65 158.767,124.583 158.7,124.45L158.6,124.3L158.8,124.15L159.05,124.05L159.15,124.05C159.217,123.95 159.333,123.9 159.5,123.9M160.15,123.05L160.35,123.05L160.85,123.15L160.3,123.5L160,123.3L160.15,123.05" style="fill:#77653c;"/>
                <path d="M162,123.05C162.133,123.317 162.133,123.567 162,123.8L161.9,124L161.45,124.5L161.2,124.55L161.1,124.3L161.05,124.05L161.05,123.5L161.35,123L161.75,122.75L162,123.05M149.05,125.55L148.8,125.3L149.05,125.15L149.2,125.05L149.45,125.2L149.05,125.55M149.65,126.05L149.85,125.75L150.15,125.85L150.45,125.75C150.717,125.75 150.85,125.85 150.85,126.05L150.6,126.35L150.2,126.45C149.833,126.45 149.65,126.317 149.65,126.05M151.25,124.6L151.15,124.9L150.95,124.95L150.3,125.15L149.8,125L149.6,124.85L149.45,124.75C149.383,124.417 149.5,124.183 149.8,124.05L150.15,124.05L150.5,124L150.75,124.05C151.083,124.083 151.25,124.267 151.25,124.6" style="fill:#927b47;"/>
                <path d="M161.6,118.8L161.5,118.8L161.15,118.6L161.6,118.8M150.05,118.4L149.75,118.55L149.75,118.5L150.05,118.4" style="fill:#e6c497;"/>
                <path d="M147.65,120.7C147.817,121.267 148.55,121.767 149.85,122.2L151,122.55L151.05,122.55L155.25,122.85L158.7,122.55L158.45,124L158.4,124.85L158.3,126.35C158.2,127.783 158.217,128.95 158.35,129.85L155.45,130.1L152.05,129.9L151.3,129.75L151.25,129.75L150.15,129.4C149.483,129.2 148.85,128.867 148.25,128.4L148.3,128.25L148.25,125.1L148.25,124.85L148.15,124.4L148.15,124.2L148.1,124.05L147.95,122.8L147.65,120.7M151.25,124.6C151.25,124.267 151.083,124.083 150.75,124.05L150.5,124L150.15,124.05L149.8,124.05C149.5,124.183 149.383,124.417 149.45,124.75L149.6,124.85L149.8,125L150.3,125.15L150.95,124.95L151.15,124.9L151.25,124.6M149.65,126.05C149.65,126.317 149.833,126.45 150.2,126.45L150.6,126.35L150.85,126.05C150.85,125.85 150.717,125.75 150.45,125.75L150.15,125.85L149.85,125.75L149.65,126.05M149.05,125.55L149.45,125.2L149.2,125.05L149.05,125.15L148.8,125.3L149.05,125.55" style="fill:url(#_Linear3);"/>
                <path d="M149.75,118.55L149.35,118.7C148.283,119.167 147.7,119.7 147.6,120.3L147.6,120.4L147.65,120.5L147.65,120.7L147.95,122.8L148.1,124.05L148.15,124.2L148.15,124.4L148.2,124.85L148.3,128.25M162.6,120.55L162.65,120.55L162.7,120.2L162.7,119.95L162,119.05L161.6,118.8L161.15,118.6L160.8,118.45L160.05,118.25C158.917,117.85 157.567,117.633 156,117.6C155.567,117.833 155.217,117.933 154.95,117.9L154.15,117.65L154.1,117.65C152.633,117.717 151.35,117.967 150.25,118.4L150.05,118.4L149.75,118.5L149.75,118.55M162.65,120.55L162.65,120.65L162.6,123.35L162.5,125.85M162.5,125.95L162.55,128.2M162.55,128.3C162.117,128.667 161.533,128.983 160.8,129.25L158.9,129.75L158.35,129.85L155.45,130.1L152.05,129.9L151.3,129.75L151.25,129.75L150.15,129.4C149.483,129.2 148.85,128.867 148.25,128.4M162.65,120.55L162.7,120.3L162.7,120.2" style="fill:none;fill-rule:nonzero;stroke:#000;stroke-opacity:0.4;stroke-width:0.1px;"/>
            </g>
        </g>
    </g>
    <defs>
        <linearGradient id="_Linear1" x1="0" y1="0" x2="1" y2="0" gradientUnits="userSpaceOnUse" gradientTransform="matrix(-23.4291,10.9773,-10.9773,-23.4291,163.568,155.683)"><stop offset="0" style="stop-color:#3cc;stop-opacity:1"/><stop offset="0" style="stop-color:#3cc;stop-opacity:0.62"/><stop offset="0.68" style="stop-color:#79c387;stop-opacity:0.41"/><stop offset="1" style="stop-color:#ffb103;stop-opacity:0"/></linearGradient>
        <linearGradient id="_Linear2" x1="0" y1="0" x2="1" y2="0" gradientUnits="userSpaceOnUse" gradientTransform="matrix(-8.02816,3.2768,-3.2768,-8.02816,164.237,122.436)"><stop offset="0" style="stop-color:#c2a561;stop-opacity:1"/><stop offset="0.15" style="stop-color:#c2a561;stop-opacity:1"/><stop offset="0.57" style="stop-color:#927b47;stop-opacity:1"/><stop offset="1" style="stop-color:#927b47;stop-opacity:1"/></linearGradient>
        <linearGradient id="_Linear3" x1="0" y1="0" x2="1" y2="0" gradientUnits="userSpaceOnUse" gradientTransform="matrix(10.9773,-0.16384,0.16384,10.9773,147.723,124.999)"><stop offset="0" style="stop-color:#c2a561;stop-opacity:1"/><stop offset="0.15" style="stop-color:#c2a561;stop-opacity:1"/><stop offset="0.57" style="stop-color:#927b47;stop-opacity:1"/><stop offset="1" style="stop-color:#927b47;stop-opacity:1"/></linearGradient>
    </defs>
</svg>
