<?xml version="1.0" encoding="UTF-8"?>
<svg version="1.1" viewBox="0 0 60.463 44.809" xmlns="http://www.w3.org/2000/svg" xmlns:cc="http://creativecommons.org/ns#" xmlns:dc="http://purl.org/dc/elements/1.1/" xmlns:rdf="http://www.w3.org/1999/02/22-rdf-syntax-ns#" xmlns:xlink="http://www.w3.org/1999/xlink">
<metadata>
<rdf:RDF>
<cc:Work rdf:about="">
<dc:format>image/svg+xml</dc:format>
<dc:type rdf:resource="http://purl.org/dc/dcmitype/StillImage"/>
</cc:Work>
</rdf:RDF>
</metadata>
<g transform="translate(-93.538 -91.274)">
<use transform="translate(93.55,91.25)" width="60.450001" height="44.849998" xlink:href="#a"/>
</g>
<defs>
<g id="a" transform="translate(-93.55,-91.25)">
<path d="m153 125.8q-15.35 8.3-19.9 10.05-4.55 1.7-21.05-9-16.5-10.75-17.95-14.25-1.5-3.6 1-4.95 2.45-1.4 6.75-0.8l51.15 18.95" fill="#666" fill-opacity=".35294" fill-rule="evenodd"/>
<path d="m104 98 8-5q2.95-1.85 6 1l10 3h6l4 2.5q4.5 2.35 7 1.5 4-1.35 8 6v18l-22 9-30-19q1.4-9.55 1-12-0.25-1.55 0.85-3.4l1.15-1.6" fill="#ae6b2b" fill-rule="evenodd"/>
<path d="m104 98-1.15 1.6q-1.1 1.85-0.85 3.4 0.4 2.45-1 12l30 19 22-9v-18q-4-7.35-8-6-2.5 0.85-7-1.5l-4-2.5h-6l-10-3q-3.05-2.85-6-1z" fill="none" stroke="#533a13" stroke-linecap="round" stroke-linejoin="round" stroke-width="2"/>
<path d="m106 97.9q0.25-0.6 1.3-1.1l0.55-0.2 0.35 0.1-0.05-0.45q3-1.65 6.2-2.85l0.35 0.1q2.9 1.25 5.85 2.15l0.6 0.9q0.4 0.35 0.45 0.75l0.3-0.3q-0.05-0.55 0.25-0.9l5.85 1.2q0.1 0.85-1.9 1.7-0.9 0.35-1.3-0.5l-1.75 1.2q-0.7 0.3-1.15-0.4-0.45-0.75-0.45-1.3-0.45 0.55-1.7 1.05-0.7 0.25-1.1-0.4l-0.3-0.6-0.1-0.15q0.2 0.95-1.85 1.8-0.7 0.3-1.15-0.4l-0.05-0.1-0.1 0.1 0.25 0.15 0.25 0.3 0.15 0.45-0.1 0.3-0.3 0.5q-0.95 0.6-1.6-0.3l-0.1-0.6-0.15 0.05v0.2q0.4 0.55 0 1.25 0.8 1-1.15 2.4l-1 0.15q0.2 0.4-0.75 0.35l-0.15-0.1q-0.2-0.45 0.25-0.7h0.1l-0.45-0.65q-0.9 0.35-1.55-0.6l-0.05-0.1-0.4 0.2q0.75 0.35-0.15 0.85l-0.15 0.05q-0.75-0.45-0.4-0.75-0.5 0.05-0.85-0.45l-0.1-0.15q-0.45 0.25-1.05 0l-0.2-0.1h-0.25l-0.15-0.05-0.05-0.15q-0.6 0.15-0.95-0.45-1.25-2 0.75-2.75 0.35-0.45 1.2-0.7m11.9-0.7-0.1 0.05 0.2 0.2-0.1-0.25m25.6 5.95-0.15 0.1q-1.35-0.4-0.2-1.05 1.1 0.2 0.35 0.95m-0.2 1.65-0.15 0.1q-1.35-0.4-0.25-1l0.05-0.05q1.1 0.2 0.35 0.95m3.3-1.35q-1.3-0.4-0.2-1v-0.05q1.15 0.2 0.4 0.95l-0.2 0.1m-4.05 24.45h-0.25q-3.45 1.85-7.2 3.35l-3.1 1.05q-0.85 0.25-1.35 0.7l-0.1-0.25q-0.2-0.5 0.1-1.1l0.4-0.55 0.1-3.05q0-0.6 0.15-1.15l0.25-0.85-0.25-0.45q-0.6-1.15 0-2.3l0.05-0.1q0.3-0.6 0.85-0.8-0.95-1.75 1.35-2.4 1.3 0.55 1.6 1.2l0.45-0.15q-0.2-1 1.2-1.35 1.65 0.65 1.4 1.4 0.25-0.2 0.75-0.3 2.3 1.25 0.3 2.2 0.4 0.45-0.05 0.95l0.15 0.1 0.15-0.55q0.25-0.7 1-0.75 3.25 0.8 1.95 3.45 1.05 0.8 0 1.5l0.1 0.2m-5.25-23.6-0.5-0.15-0.9 0.7q-1.55 1.05-2.2-0.6l-0.8 0.85q-0.9 0.75-1.7 0.45l-0.25 0.1q-0.5 0.2-0.9 0-0.3 0.65-1.8 1.25-0.65 0.3-1.1-0.35-1.4-2.25 1.25-2.95l0.8 0.5q-0.15-1.35 1.7-1.75l0.35-0.15 0.7-0.2 0.1 0.05q-1.05-2.3 1.45-2.9 0.15-0.3 0.45-0.5l1.8 1.2q2.7 1.15 5.45 1.55-0.15 0.75-1.35 1.6l-0.55 0.3-0.6 0.65q-0.55 0.55-1.4 0.35m3.9-0.45q-1.2-0.2-0.35-1.1l0.15-0.1q1.2 0.3 0.3 1.15l-0.1 0.05m-18.9 1.2 0.45 0.15 0.25 0.1 0.2 0.3 0.15 0.5-0.05 0.3-0.3 0.45q-1 0.65-1.6-0.3-0.2-0.4-0.1-0.8l0.35-0.45 0.65-0.2v-0.05m2.4-0.1-0.15-0.05q-0.2-0.5 0.25-0.7l0.2-0.1q1.1 0.9-0.3 0.85m1.85 0.95 0.2 0.3 0.15 0.45-0.1 0.3-0.25 0.5-0.8 0.25-0.8 0.2-0.15-0.1q-0.15-0.4 0.15-0.6l-0.05-0.1-0.05-0.75q0.1-0.3 0.35-0.45l0.65-0.25v-0.05l0.4 0.15 0.3 0.15m0.95 2.45 0.2-0.1q1.1 0.9-0.3 0.85l-0.15-0.05q-0.2-0.5 0.25-0.7m11.2 11.15q-0.65-1.55 1.05-1.95 2.6 1.35-0.1 2.4-0.65 0.25-0.95-0.45m-22.75-16.4 0.15 0.5-0.1 0.3-0.25 0.45q-1 0.65-1.65-0.3l-0.05-0.75q0.1-0.3 0.35-0.5l0.65-0.2v-0.05l0.4 0.15 0.3 0.1 0.2 0.3" fill="#8c5722" fill-rule="evenodd"/>
<path d="m132.65 114.7 0.35-3.7h7q1.8-0.05 4-3 0.55-0.75 4.35-0.95l3.65-0.05v15.3l-0.3 0.25-1.15-0.7-0.95 0.45q-0.3-0.8-1.8-1.6 2.85-1.65-0.7-3.45-2.45 0.75-1.9 2.35l-0.05 0.15-1.25-0.8q-2.15 0.7-1.9 2.05l-0.15 0.15-0.55 0.45-0.8-0.6q0.6-0.5 0.7-1 2.4-1.55-0.8-3.2 1.65-1.45-1.4-3.05-3.35 1.1-1.05 3.65 0.25 0.3 0.6 0.3-0.25 0.25-0.25 0.6l-0.5 0.35q0.1-0.5-0.35-1.05v-0.15l-0.05-0.15q-0.2-0.55-0.75-0.55l-0.2 0.05-0.2-0.1q1.35-1.45-0.4-2.6l0.15-0.45-0.05-0.15q-0.2-0.5-0.75-0.55l-0.25 0.05-0.5 0.45v0.2l-0.15 0.05q-1.2 0.3-1.65 1m19.05 5.3q-0.3-0.5-0.95-0.4l-0.3 0.15q-0.55 0.25-0.45 0.8 0.45 0.85 1.4 0.5l0.35-0.45v-0.45l-0.05-0.15m-5.65 0.9 0.4 0.3q-0.75 0.5-0.75 1.15v0.05l-0.4-0.4q0.7-0.6 0.6-1.2l0.05-0.05 0.1 0.15m-3-4.05-0.05-0.2q-0.15-0.5-0.75-0.55l-0.25 0.05q-0.35 0.15-0.45 0.45-0.25 0.9 0.7 1.05l0.35-0.15 0.45-0.65m1.1-1.35q-0.4 0.1-0.5 0.45-0.2 0.85 0.75 1.05l0.35-0.15q0.4-0.2 0.4-0.7l-0.05-0.15q-0.15-0.5-0.7-0.55l-0.25 0.05m-1.7-1.85-0.05-0.15q-0.15-0.5-0.7-0.55l-0.25 0.05q-0.4 0.1-0.5 0.45-0.2 0.9 0.75 1.05 0.15-0.05 0.35-0.15 0.4-0.2 0.4-0.7m8.25 2.2q-0.15-0.55-0.7-0.6l-0.25 0.1-0.5 0.45q-0.2 0.85 0.75 1.05l0.35-0.15q0.4-0.25 0.4-0.7l-0.05-0.15" fill="#d08840" fill-rule="evenodd"/>
<path d="m132.65 114.7q0.45-0.7 1.65-1l0.15-0.05v-0.2l0.5-0.45 0.25-0.05q0.55 0.05 0.75 0.55l0.05 0.15-0.15 0.45q1.75 1.15 0.4 2.6l0.2 0.1 0.2-0.05q0.55 0 0.75 0.55l0.05 0.15v0.15q0.45 0.55 0.35 1.05l0.5-0.35q0-0.35 0.25-0.6-0.35 0-0.6-0.3-2.3-2.55 1.05-3.65 3.05 1.6 1.4 3.05 3.2 1.65 0.8 3.2-0.1 0.5-0.7 1l0.8 0.6 0.55-0.45 0.15-0.15q-0.25-1.35 1.9-2.05l1.25 0.8 0.05-0.15q-0.55-1.6 1.9-2.35 3.55 1.8 0.7 3.45 1.5 0.8 1.8 1.6l0.95-0.45 1.15 0.7-1.4 1.75q-3.85 1.95-7.75 3.6l-0.1-0.2q1.05-0.7 0-1.5 1.3-2.65-1.95-3.45-0.75 0.05-1 0.75l-0.15 0.55-0.15-0.1q0.45-0.5 0.05-0.95 2-0.95-0.3-2.2-0.5 0.1-0.75 0.3 0.25-0.75-1.4-1.4-1.4 0.35-1.2 1.35l-0.45 0.15q-0.3-0.65-1.6-1.2-2.3 0.65-1.35 2.4-0.55 0.2-0.85 0.8l-0.05 0.1-0.15-1.45v-0.05l-0.05-0.05-0.05-0.3v-2.6q0.1-0.8 0.7-1.75l0.75-0.8q-0.3-0.95 0.15-1.6m18.05 1.15 0.05 0.15q0 0.45-0.4 0.7l-0.35 0.15q-0.95-0.2-0.75-1.05l0.5-0.45 0.25-0.1q0.55 0.05 0.7 0.6m-8.25-2.2q0 0.5-0.4 0.7-0.2 0.1-0.35 0.15-0.95-0.15-0.75-1.05 0.1-0.35 0.5-0.45l0.25-0.05q0.55 0.05 0.7 0.55l0.05 0.15m1.7 1.85 0.25-0.05q0.55 0.05 0.7 0.55l0.05 0.15q0 0.5-0.4 0.7l-0.35 0.15q-0.95-0.2-0.75-1.05 0.1-0.35 0.5-0.45m-1.1 1.35-0.45 0.65-0.35 0.15q-0.95-0.15-0.7-1.05 0.1-0.3 0.45-0.45l0.25-0.05q0.6 0.05 0.75 0.55l0.05 0.2m3 4.05-0.1-0.15-0.05 0.05q0.1 0.6-0.6 1.2l0.4 0.4v-0.05q0-0.65 0.75-1.15l-0.4-0.3m5.65-0.9 0.05 0.15v0.45l-0.35 0.45q-0.95 0.35-1.4-0.5-0.1-0.55 0.45-0.8l0.3-0.15q0.65-0.1 0.95 0.4m-20.4 6.9v-1.3l0.25 0.45-0.25 0.85m7.4-7.4q0.3 0.7 0.95 0.45 2.7-1.05 0.1-2.4-1.7 0.4-1.05 1.95m12.6 7.45-0.05-0.05 0.15-0.1-0.1 0.15" fill="#ae6b2b" fill-rule="evenodd"/>
<path d="m130.55 132.75-2.2-1.6-0.45-0.25-0.05-0.05-7.35-4.6 0.05-0.05q3.15-1.2 0.1-2.8l-0.15 0.05q0.75-1.85-2.35-3-0.45 0.1-0.85 0.35l-0.1 0.1-0.5 0.3-0.25-0.2q0.1-0.65-0.3-1.2l0.05-0.2q1.45-1.05-0.95-2.25l-0.1 0.05q0.55-0.8-1.15-1.75l0.15-0.05q3.15-1.2 0.15-2.75-2.05 0.4-1.25 2.25l0.45 0.55q-0.35 0.1-0.55 0.25-0.25-0.7-1.2-1.25l0.15-1.2q0.5-0.75-0.85-1.55 2.5-1.2-0.3-2.65l-0.4 0.1-1.05-0.65q1.55-1.15-0.95-2.2 0.3-1.6-2.45-2.6-0.35 0.05-0.65 0.25-0.3-1.1-2.3-1.85l0.05-0.3 28 10 0.05 6.85v2.6l-0.45-1.1q0.45 3.8 0.55 7.7l-0.1 3.05-0.4 0.55q-0.3 0.6-0.1 1.1m-7.2-11.25-0.2 0.05q-0.45 0.25-0.25 0.75l0.15 0.05q1.4 0.05 0.3-0.85m-0.3 1.55q-0.15-0.5-0.75-0.55l-0.25 0.05q-0.35 0.1-0.45 0.45-0.25 0.9 0.7 1.05l0.35-0.15 0.45-0.7-0.05-0.15m-0.55-5.8-0.05-0.15q-0.2-0.55-0.75-0.6l-0.25 0.1-0.5 0.45q-0.2 0.85 0.75 1.05l0.35-0.15q0.4-0.25 0.45-0.7m1.15 9.35q-0.2 0.85 0.75 1.05l0.35-0.15 0.45-0.7-0.05-0.15q-0.2-0.55-0.75-0.6l-0.25 0.1-0.5 0.45m-16.55-17.8 0.25 0.3-0.6 0.55-0.6-0.7 0.75-0.4 0.05-0.05 0.15 0.3m11.55 1.5-0.2 0.05q-0.5 0.25-0.3 0.7l0.2 0.1q1.35 0.05 0.3-0.85m-3.9-3.45q-0.15-0.5-0.75-0.55l-0.25 0.05q-0.35 0.1-0.45 0.45-0.25 0.9 0.7 1.05l0.35-0.15 0.45-0.7-0.05-0.15m1.8 11.15q0.3 0.8 1.05 0.5 3.15-1.2 0.15-2.75-2.05 0.4-1.2 2.25m2.65 1.05-0.2 0.1q-0.45 0.2-0.25 0.7l0.15 0.05q1.4 0.05 0.3-0.85m1.35 0.85q1.4 0.05 0.3-0.85l-0.2 0.1q-0.45 0.2-0.25 0.7l0.15 0.05m-7.3-7.7q0.35 0.8 1.1 0.5 3.15-1.2 0.15-2.75-2.05 0.4-1.25 2.25m3.45 3 0.15 0.1q1.4 0.05 0.35-0.85l-0.2 0.05q-0.5 0.25-0.3 0.7m0.15-2.4q1.4 0.05 0.35-0.85l-0.2 0.05q-0.5 0.25-0.3 0.75l0.15 0.05m2 1.45-0.2 0.05q-0.5 0.25-0.25 0.7l0.15 0.1q1.4 0 0.3-0.85" fill="#7e4f1f" fill-rule="evenodd"/>
<path d="m120.5 126.25h-0.05q-0.35-0.5-3.75-1.7l-4.7-3.2q-7.6-4.05-10.65-6.35 1.1-5 0.7-7.35-0.25-1.5 0.15-2.95 0.4-1.35 0.2-2.35l0.4-0.1 0.15 0.05q2 0.75 2.3 1.85 0.3-0.2 0.65-0.25 2.75 1 2.45 2.6 2.5 1.05 0.95 2.2l1.05 0.65 0.4-0.1q2.8 1.45 0.3 2.65 1.35 0.8 0.85 1.55l-0.15 1.2q0.95 0.55 1.2 1.25 0.2-0.15 0.55-0.25l-0.45-0.55q-0.8-1.85 1.25-2.25 3 1.55-0.15 2.75l-0.15 0.05q1.7 0.95 1.15 1.75l0.1-0.05q2.4 1.2 0.95 2.25l-0.05 0.2q0.4 0.55 0.3 1.2l0.25 0.2 0.5-0.3 0.1-0.1q0.4-0.25 0.85-0.35 3.1 1.15 2.35 3l0.15-0.05q3.05 1.6-0.1 2.8l-0.05 0.05m2-9q-0.05 0.45-0.45 0.7l-0.35 0.15q-0.95-0.2-0.75-1.05l0.5-0.45 0.25-0.1q0.55 0.05 0.75 0.6l0.05 0.15m0.55 5.8 0.05 0.15-0.45 0.7-0.35 0.15q-0.95-0.15-0.7-1.05 0.1-0.35 0.45-0.45l0.25-0.05q0.6 0.05 0.75 0.55m0.3-1.55q1.1 0.9-0.3 0.85l-0.15-0.05q-0.2-0.5 0.25-0.75l0.2-0.05m0.3 5.1 0.5-0.45 0.25-0.1q0.55 0.05 0.75 0.6l0.05 0.15-0.45 0.7-0.35 0.15q-0.95-0.2-0.75-1.05m-8.9-19.75 0.05 0.15-0.45 0.7-0.35 0.15q-0.95-0.15-0.7-1.05 0.1-0.35 0.45-0.45l0.25-0.05q0.6 0.05 0.75 0.55m3.9 3.45q1.05 0.9-0.3 0.85l-0.2-0.1q-0.2-0.45 0.3-0.7l0.2-0.05m-11.55-1.5-0.15-0.3-0.05 0.05-0.75 0.4 0.6 0.7 0.6-0.55-0.25-0.3m-4.85 8.5v-0.05l0.35 0.35-0.35-0.3m16.6-3.05q1.1 0.85-0.3 0.85l-0.15-0.1q-0.25-0.45 0.25-0.7l0.2-0.05m-2-1.45-0.15-0.05q-0.2-0.5 0.3-0.75l0.2-0.05q1.05 0.9-0.35 0.85m-0.15 2.4q-0.2-0.45 0.3-0.7l0.2-0.05q1.05 0.9-0.35 0.85l-0.15-0.1m-3.45-3q-0.8-1.85 1.25-2.25 3 1.55-0.15 2.75-0.75 0.3-1.1-0.5m7.3 7.7-0.15-0.05q-0.2-0.5 0.25-0.7l0.2-0.1q1.1 0.9-0.3 0.85m-1.35-0.85q1.1 0.9-0.3 0.85l-0.15-0.05q-0.2-0.5 0.25-0.7l0.2-0.1m-2.65-1.05q-0.85-1.85 1.2-2.25 3 1.55-0.15 2.75-0.75 0.3-1.05-0.5" fill="#472c12" fill-rule="evenodd"/>
<path d="m102.95 102.3 0.05-0.3m-1.95 13.05 0.05-0.35" fill="none" stroke="#674318" stroke-linecap="round" stroke-linejoin="round" stroke-width="2"/>
<path d="m141.6 128.4 10.4-4.4v-17l-3.65 0.05q-3.8 0.2-4.35 0.95-2.2 2.95-4 3h-7l-1.95 19.5v0.45m-28.05-28.95 28 10 0.05 18.5" fill="none" stroke="#000" stroke-linecap="round" stroke-linejoin="round" stroke-opacity=".50196" stroke-width=".05"/>
<path d="m111.25 98.1q1.4 0.05 0.35-0.85l-0.2 0.1-0.35 0.4-0.3-0.3-0.2 0.1q-0.35 0.15-0.3 0.5-0.35 0.15-0.2 0.6l0.2 0.1q1 0 0.7-0.45l0.3-0.2m-2.25-0.1 5-2-3 3-2 3v-4m14 0 6 2h-4l1 1-7 1-3 2v-3l3-3h4m16.45 4.6 1.55 0.4h1l-5 4-9 1 1-3 7-1 1-2 1.95 0.5q-0.45 0.25-0.2 0.7l0.15 0.05q1.2 0.05 0.55-0.65m-20.4-1.8q0.65 0.35 1.25-0.25l0.05-0.15q0.2-0.7-0.45-0.9-0.5 0.1-0.95 0.45l-0.05 0.3 0.05 0.4-0.3-0.25-0.2 0.05q-0.5 0.2-0.3 0.7l0.2 0.1q1 0 0.7-0.45m1.5 0.65q1.4 0 0.3-0.85l-0.2 0.05q-0.45 0.2-0.25 0.7l0.15 0.1m-0.15-1.75 0.15 0.1q1.4 0 0.3-0.9l-0.2 0.1q-0.45 0.2-0.25 0.7m9.5 6.95q1.4 0 0.3-0.9l-0.2 0.1q-0.45 0.2-0.25 0.7l0.15 0.1m-7.65-6.65q1.4 0 0.35-0.85l-0.2 0.05q-0.5 0.2-0.3 0.7l0.15 0.1m0.55 0.15-0.2 0.1q-0.5 0.2-0.3 0.7l0.2 0.1q1.35 0 0.3-0.9m2-1-0.2 0.05q-0.45 0.2-0.25 0.7l0.15 0.1q1.4 0 0.3-0.85m6.65 5.6-0.2 0.05q-0.45 0.25-0.25 0.7l0.15 0.1q1.4 0 0.3-0.85m2.05 1.4 0.15 0.05q1.4 0.05 0.3-0.85l-0.2 0.1q-0.5 0.2-0.25 0.7m2.05 0.55q0.8-0.7-0.35-0.95v0.05q-1.1 0.6 0.2 1l0.15-0.1m0.9-1.05q-0.5 0.2-0.25 0.7l0.15 0.05q1.4 0.05 0.3-0.85l-0.2 0.1m-1.3-0.85-0.3-0.25-0.2 0.05q-0.5 0.2-0.3 0.7l0.15 0.1q1.05 0 0.75-0.45h0.05q1.4 0.05 0.3-0.85l-0.2 0.1q-0.4 0.2-0.25 0.6m1.25 0.1 0.15 0.05q1.4 0.05 0.3-0.85l-0.2 0.1q-0.45 0.2-0.25 0.7m3.3-0.5q1.1-0.5 0.05-1.1l-0.15 0.05q-0.65 0.45-0.15 1l0.25 0.05m-1.8-0.75-0.2 0.05q-0.5 0.25-0.25 0.7l0.15 0.1q1.4 0.05 0.3-0.85m-0.35-0.9q-0.5 0.2-0.3 0.7l0.2 0.05q1.35 0.05 0.3-0.85l-0.2 0.1" fill="#ebcb98" fill-rule="evenodd"/>
<path d="m111.25 98.1-0.3 0.2q0.3 0.45-0.7 0.45l-0.2-0.1q-0.15-0.45 0.2-0.6-0.05-0.35 0.3-0.5l0.2-0.1 0.3 0.3 0.35-0.4 0.2-0.1q1.05 0.9-0.35 0.85m27.7 4.4 0.05-0.05 0.2-0.05 0.25 0.2q0.65 0.7-0.55 0.65l-0.15-0.05q-0.25-0.45 0.2-0.7m-1.4 0.25 0.2-0.1q1.05 0.9-0.3 0.85l-0.2-0.05q-0.2-0.5 0.3-0.7m0.35 0.9q1.1 0.9-0.3 0.85l-0.15-0.1q-0.25-0.45 0.25-0.7l0.2-0.05m1.8 0.75-0.25-0.05q-0.5-0.55 0.15-1l0.15-0.05q1.05 0.6-0.05 1.1m-3.3 0.5q-0.2-0.5 0.25-0.7l0.2-0.1q1.1 0.9-0.3 0.85l-0.15-0.05m-1.25-0.1q-0.15-0.4 0.25-0.6l0.2-0.1q1.1 0.9-0.3 0.85h-0.05q0.3 0.45-0.75 0.45l-0.15-0.1q-0.2-0.5 0.3-0.7l0.2-0.05 0.3 0.25m1.3 0.85 0.2-0.1q1.1 0.9-0.3 0.85l-0.15-0.05q-0.25-0.5 0.25-0.7m-0.9 1.05-0.15 0.1q-1.3-0.4-0.2-1v-0.05q1.15 0.25 0.35 0.95m-2.05-0.55q-0.25-0.5 0.25-0.7l0.2-0.1q1.1 0.9-0.3 0.85l-0.15-0.05m-2.05-1.4q1.1 0.85-0.3 0.85l-0.15-0.1q-0.2-0.45 0.25-0.7l0.2-0.05m-6.65-5.6q1.1 0.85-0.3 0.85l-0.15-0.1q-0.2-0.5 0.25-0.7l0.2-0.05m-2 1q1.05 0.9-0.3 0.9l-0.2-0.1q-0.2-0.5 0.3-0.7l0.2-0.1m-0.55-0.15-0.15-0.1q-0.2-0.5 0.3-0.7l0.2-0.05q1.05 0.85-0.35 0.85m7.65 6.65-0.15-0.1q-0.2-0.5 0.25-0.7l0.2-0.1q1.1 0.9-0.3 0.9m-9.5-6.95q-0.2-0.5 0.25-0.7l0.2-0.1q1.1 0.9-0.3 0.9l-0.15-0.1m0.15 1.75-0.15-0.1q-0.2-0.5 0.25-0.7l0.2-0.05q1.1 0.85-0.3 0.85m-1.5-0.65q0.3 0.45-0.7 0.45l-0.2-0.1q-0.2-0.5 0.3-0.7l0.2-0.05 0.3 0.25-0.05-0.4 0.05-0.3q0.45-0.35 0.95-0.45 0.65 0.2 0.45 0.9l-0.05 0.15q-0.6 0.6-1.25 0.25" fill="#fbf1ea" fill-rule="evenodd"/>
<path d="m109 98v4l2-3 3-3-5 2m14 0 6 2h-4l1 1-7 1-3 2v-3l3-3h4m16.45 4.6 1.55 0.4h1l-5 4-9 1 1-3 7-1 1-2 1.95 0.5" fill="none" stroke="#000" stroke-linecap="round" stroke-linejoin="round" stroke-opacity=".50196" stroke-width=".05"/>
<path d="m153 125.8q-15.35 8.3-19.9 10.05-4.55 1.7-21.05-9-16.5-10.75-17.95-14.25-1.5-3.6 1-4.95 2.45-1.4 6.75-0.8l51.15 18.95" fill="#666" fill-opacity=".35294" fill-rule="evenodd"/>
<path d="m104 98 8-5q2.95-1.85 6 1l10 3h6l4 2.5q4.5 2.35 7 1.5 4-1.35 8 6v18l-22 9-30-19q1.4-9.55 1-12-0.25-1.55 0.85-3.4l1.15-1.6" fill="#ae6b2b" fill-rule="evenodd"/>
<path d="m104 98-1.15 1.6q-1.1 1.85-0.85 3.4 0.4 2.45-1 12l30 19 22-9v-18q-4-7.35-8-6-2.5 0.85-7-1.5l-4-2.5h-6l-10-3q-3.05-2.85-6-1z" fill="none" stroke="#533a13" stroke-linecap="round" stroke-linejoin="round" stroke-width="2"/>
<path d="m106 97.9q0.25-0.6 1.3-1.1l0.55-0.2 0.35 0.1-0.05-0.45q3-1.65 6.2-2.85l0.35 0.1q2.9 1.25 5.85 2.15l0.6 0.9q0.4 0.35 0.45 0.75l0.3-0.3q-0.05-0.55 0.25-0.9l5.85 1.2q0.1 0.85-1.9 1.7-0.9 0.35-1.3-0.5l-1.75 1.2q-0.7 0.3-1.15-0.4-0.45-0.75-0.45-1.3-0.45 0.55-1.7 1.05-0.7 0.25-1.1-0.4l-0.3-0.6-0.1-0.15q0.2 0.95-1.85 1.8-0.7 0.3-1.15-0.4l-0.05-0.1-0.1 0.1 0.25 0.15 0.25 0.3 0.15 0.45-0.1 0.3-0.3 0.5q-0.95 0.6-1.6-0.3l-0.1-0.6-0.15 0.05v0.2q0.4 0.55 0 1.25 0.8 1-1.15 2.4l-1 0.15q0.2 0.4-0.75 0.35l-0.15-0.1q-0.2-0.45 0.25-0.7h0.1l-0.45-0.65q-0.9 0.35-1.55-0.6l-0.05-0.1-0.4 0.2q0.75 0.35-0.15 0.85l-0.15 0.05q-0.75-0.45-0.4-0.75-0.5 0.05-0.85-0.45l-0.1-0.15q-0.45 0.25-1.05 0l-0.2-0.1h-0.25l-0.15-0.05-0.05-0.15q-0.6 0.15-0.95-0.45-1.25-2 0.75-2.75 0.35-0.45 1.2-0.7m11.9-0.7-0.1 0.05 0.2 0.2-0.1-0.25m25.4 7.6-0.15 0.1q-1.35-0.4-0.25-1l0.05-0.05q1.1 0.2 0.35 0.95m0.2-1.65-0.15 0.1q-1.35-0.4-0.2-1.05 1.1 0.2 0.35 0.95m3.1 0.3q-1.3-0.4-0.2-1v-0.05q1.15 0.2 0.4 0.95l-0.2 0.1m-4.05 24.45h-0.25q-3.45 1.85-7.2 3.35l-3.1 1.05q-0.85 0.25-1.35 0.7l-0.1-0.25q-0.2-0.5 0.1-1.1l0.4-0.55 0.1-3.05q0-0.6 0.15-1.15l0.25-0.85-0.25-0.45q-0.6-1.15 0-2.3l0.05-0.1q0.3-0.6 0.85-0.8-0.95-1.75 1.35-2.4 1.3 0.55 1.6 1.2l0.45-0.15q-0.2-1 1.2-1.35 1.65 0.65 1.4 1.4 0.25-0.2 0.75-0.3 2.3 1.25 0.3 2.2 0.4 0.45-0.05 0.95l0.15 0.1 0.15-0.55q0.25-0.7 1-0.75 3.25 0.8 1.95 3.45 1.05 0.8 0 1.5l0.1 0.2m-5.75-23.75-0.9 0.7q-1.55 1.05-2.2-0.6l-0.8 0.85q-0.9 0.75-1.7 0.45l-0.25 0.1q-0.5 0.2-0.9 0-0.3 0.65-1.8 1.25-0.65 0.3-1.1-0.35-1.4-2.25 1.25-2.95l0.8 0.5q-0.15-1.35 1.7-1.75l0.35-0.15 0.7-0.2 0.1 0.05q-1.05-2.3 1.45-2.9 0.15-0.3 0.45-0.5l1.8 1.2q2.7 1.15 5.45 1.55-0.15 0.75-1.35 1.6l-0.55 0.3-0.6 0.65q-0.55 0.55-1.4 0.35l-0.5-0.15m4.05-1.4 0.15-0.1q1.2 0.3 0.3 1.15l-0.1 0.05q-1.2-0.2-0.35-1.1m-16.15 2.2-0.15-0.05q-0.2-0.5 0.25-0.7l0.2-0.1q1.1 0.9-0.3 0.85m-2.4 0.1 0.45 0.15 0.25 0.1 0.2 0.3 0.15 0.5-0.05 0.3-0.3 0.45q-1 0.65-1.6-0.3-0.2-0.4-0.1-0.8l0.35-0.45 0.65-0.2v-0.05m4.25 0.85 0.2 0.3 0.15 0.45-0.1 0.3-0.25 0.5-0.8 0.25-0.8 0.2-0.15-0.1q-0.15-0.4 0.15-0.6l-0.05-0.1-0.05-0.75q0.1-0.3 0.35-0.45l0.65-0.25v-0.05l0.4 0.15 0.3 0.15m0.95 2.45 0.2-0.1q1.1 0.9-0.3 0.85l-0.15-0.05q-0.2-0.5 0.25-0.7m11.2 11.15q-0.65-1.55 1.05-1.95 2.6 1.35-0.1 2.4-0.65 0.25-0.95-0.45m-22.75-16.4 0.15 0.5-0.1 0.3-0.25 0.45q-1 0.65-1.65-0.3l-0.05-0.75q0.1-0.3 0.35-0.5l0.65-0.2v-0.05l0.4 0.15 0.3 0.1 0.2 0.3" fill="#8c5722" fill-rule="evenodd"/>
<path d="m132.65 114.7 0.35-3.7h7q1.8-0.05 4-3 0.55-0.75 4.35-0.95l3.65-0.05v15.3l-0.3 0.25-1.15-0.7-0.95 0.45q-0.3-0.8-1.8-1.6 2.85-1.65-0.7-3.45-2.45 0.75-1.9 2.35l-0.05 0.15-1.25-0.8q-2.15 0.7-1.9 2.05l-0.15 0.15-0.55 0.45-0.8-0.6q0.6-0.5 0.7-1 2.4-1.55-0.8-3.2 1.65-1.45-1.4-3.05-3.35 1.1-1.05 3.65 0.25 0.3 0.6 0.3-0.25 0.25-0.25 0.6l-0.5 0.35q0.1-0.5-0.35-1.05v-0.15l-0.05-0.15q-0.2-0.55-0.75-0.55l-0.2 0.05-0.2-0.1q1.35-1.45-0.4-2.6l0.15-0.45-0.05-0.15q-0.2-0.5-0.75-0.55l-0.25 0.05-0.5 0.45v0.2l-0.15 0.05q-1.2 0.3-1.65 1m19.05 5.3q-0.3-0.5-0.95-0.4l-0.3 0.15q-0.55 0.25-0.45 0.8 0.45 0.85 1.4 0.5l0.35-0.45v-0.45l-0.05-0.15m-5.65 0.9 0.4 0.3q-0.75 0.5-0.75 1.15v0.05l-0.4-0.4q0.7-0.6 0.6-1.2l0.05-0.05 0.1 0.15m-1.9-5.4q-0.4 0.1-0.5 0.45-0.2 0.85 0.75 1.05l0.35-0.15q0.4-0.2 0.4-0.7l-0.05-0.15q-0.15-0.5-0.7-0.55l-0.25 0.05m-1.1 1.35-0.05-0.2q-0.15-0.5-0.75-0.55l-0.25 0.05q-0.35 0.15-0.45 0.45-0.25 0.9 0.7 1.05l0.35-0.15 0.45-0.65m-1-2.5q0.4-0.2 0.4-0.7l-0.05-0.15q-0.15-0.5-0.7-0.55l-0.25 0.05q-0.4 0.1-0.5 0.45-0.2 0.9 0.75 1.05 0.15-0.05 0.35-0.15m8.65 1.5q-0.15-0.55-0.7-0.6l-0.25 0.1-0.5 0.45q-0.2 0.85 0.75 1.05l0.35-0.15q0.4-0.25 0.4-0.7l-0.05-0.15" fill="#d08840" fill-rule="evenodd"/>
<path d="m132.65 114.7q0.45-0.7 1.65-1l0.15-0.05v-0.2l0.5-0.45 0.25-0.05q0.55 0.05 0.75 0.55l0.05 0.15-0.15 0.45q1.75 1.15 0.4 2.6l0.2 0.1 0.2-0.05q0.55 0 0.75 0.55l0.05 0.15v0.15q0.45 0.55 0.35 1.05l0.5-0.35q0-0.35 0.25-0.6-0.35 0-0.6-0.3-2.3-2.55 1.05-3.65 3.05 1.6 1.4 3.05 3.2 1.65 0.8 3.2-0.1 0.5-0.7 1l0.8 0.6 0.55-0.45 0.15-0.15q-0.25-1.35 1.9-2.05l1.25 0.8 0.05-0.15q-0.55-1.6 1.9-2.35 3.55 1.8 0.7 3.45 1.5 0.8 1.8 1.6l0.95-0.45 1.15 0.7-1.4 1.75q-3.85 1.95-7.75 3.6l-0.1-0.2q1.05-0.7 0-1.5 1.3-2.65-1.95-3.45-0.75 0.05-1 0.75l-0.15 0.55-0.15-0.1q0.45-0.5 0.05-0.95 2-0.95-0.3-2.2-0.5 0.1-0.75 0.3 0.25-0.75-1.4-1.4-1.4 0.35-1.2 1.35l-0.45 0.15q-0.3-0.65-1.6-1.2-2.3 0.65-1.35 2.4-0.55 0.2-0.85 0.8l-0.05 0.1-0.15-1.45v-0.05l-0.05-0.05-0.05-0.3v-2.6q0.1-0.8 0.7-1.75l0.75-0.8q-0.3-0.95 0.15-1.6m18.05 1.15 0.05 0.15q0 0.45-0.4 0.7l-0.35 0.15q-0.95-0.2-0.75-1.05l0.5-0.45 0.25-0.1q0.55 0.05 0.7 0.6m-8.65-1.5q-0.2 0.1-0.35 0.15-0.95-0.15-0.75-1.05 0.1-0.35 0.5-0.45l0.25-0.05q0.55 0.05 0.7 0.55l0.05 0.15q0 0.5-0.4 0.7m1 2.5-0.45 0.65-0.35 0.15q-0.95-0.15-0.7-1.05 0.1-0.3 0.45-0.45l0.25-0.05q0.6 0.05 0.75 0.55l0.05 0.2m1.1-1.35 0.25-0.05q0.55 0.05 0.7 0.55l0.05 0.15q0 0.5-0.4 0.7l-0.35 0.15q-0.95-0.2-0.75-1.05 0.1-0.35 0.5-0.45m1.9 5.4-0.1-0.15-0.05 0.05q0.1 0.6-0.6 1.2l0.4 0.4v-0.05q0-0.65 0.75-1.15l-0.4-0.3m5.65-0.9 0.05 0.15v0.45l-0.35 0.45q-0.95 0.35-1.4-0.5-0.1-0.55 0.45-0.8l0.3-0.15q0.65-0.1 0.95 0.4m-20.4 6.9v-1.3l0.25 0.45-0.25 0.85m7.4-7.4q0.3 0.7 0.95 0.45 2.7-1.05 0.1-2.4-1.7 0.4-1.05 1.95m12.6 7.45-0.05-0.05 0.15-0.1-0.1 0.15" fill="#ae6b2b" fill-rule="evenodd"/>
<path d="m130.55 132.75-2.2-1.6-0.45-0.25-0.05-0.05-7.35-4.6 0.05-0.05q3.15-1.2 0.1-2.8l-0.15 0.05q0.75-1.85-2.35-3-0.45 0.1-0.85 0.35l-0.1 0.1-0.5 0.3-0.25-0.2q0.1-0.65-0.3-1.2l0.05-0.2q1.45-1.05-0.95-2.25l-0.1 0.05q0.55-0.8-1.15-1.75l0.15-0.05q3.15-1.2 0.15-2.75-2.05 0.4-1.25 2.25l0.45 0.55q-0.35 0.1-0.55 0.25-0.25-0.7-1.2-1.25l0.15-1.2q0.5-0.75-0.85-1.55 2.5-1.2-0.3-2.65l-0.4 0.1-1.05-0.65q1.55-1.15-0.95-2.2 0.3-1.6-2.45-2.6-0.35 0.05-0.65 0.25-0.3-1.1-2.3-1.85l0.05-0.3 28 10 0.05 6.85v2.6l-0.45-1.1q0.45 3.8 0.55 7.7l-0.1 3.05-0.4 0.55q-0.3 0.6-0.1 1.1m-7.5-9.7q-0.15-0.5-0.75-0.55l-0.25 0.05q-0.35 0.1-0.45 0.45-0.25 0.9 0.7 1.05l0.35-0.15 0.45-0.7-0.05-0.15m0-0.7q1.4 0.05 0.3-0.85l-0.2 0.05q-0.45 0.25-0.25 0.75l0.15 0.05m-0.6-5.25q-0.2-0.55-0.75-0.6l-0.25 0.1-0.5 0.45q-0.2 0.85 0.75 1.05l0.35-0.15q0.4-0.25 0.45-0.7l-0.05-0.15m1.2 9.5q-0.2 0.85 0.75 1.05l0.35-0.15 0.45-0.7-0.05-0.15q-0.2-0.55-0.75-0.6l-0.25 0.1-0.5 0.45m-16.55-17.8 0.25 0.3-0.6 0.55-0.6-0.7 0.75-0.4 0.05-0.05 0.15 0.3m11.55 1.5-0.2 0.05q-0.5 0.25-0.3 0.7l0.2 0.1q1.35 0.05 0.3-0.85m-3.9-3.45q-0.15-0.5-0.75-0.55l-0.25 0.05q-0.35 0.1-0.45 0.45-0.25 0.9 0.7 1.05l0.35-0.15 0.45-0.7-0.05-0.15m1.8 11.15q0.3 0.8 1.05 0.5 3.15-1.2 0.15-2.75-2.05 0.4-1.2 2.25m3.85 1.85 0.15 0.05q1.4 0.05 0.3-0.85l-0.2 0.1q-0.45 0.2-0.25 0.7m-1.2-0.8-0.2 0.1q-0.45 0.2-0.25 0.7l0.15 0.05q1.4 0.05 0.3-0.85m-5.95-6.85q0.35 0.8 1.1 0.5 3.15-1.2 0.15-2.75-2.05 0.4-1.25 2.25m3.45 3 0.15 0.1q1.4 0.05 0.35-0.85l-0.2 0.05q-0.5 0.25-0.3 0.7m0-2.45 0.15 0.05q1.4 0.05 0.35-0.85l-0.2 0.05q-0.5 0.25-0.3 0.75m2.15 1.5-0.2 0.05q-0.5 0.25-0.25 0.7l0.15 0.1q1.4 0 0.3-0.85" fill="#7e4f1f" fill-rule="evenodd"/>
<path d="m120.5 126.25h-0.05q-0.35-0.5-3.75-1.7l-4.7-3.2q-7.6-4.05-10.65-6.35 1.1-5 0.7-7.35-0.25-1.5 0.15-2.95 0.4-1.35 0.2-2.35l0.4-0.1 0.15 0.05q2 0.75 2.3 1.85 0.3-0.2 0.65-0.25 2.75 1 2.45 2.6 2.5 1.05 0.95 2.2l1.05 0.65 0.4-0.1q2.8 1.45 0.3 2.65 1.35 0.8 0.85 1.55l-0.15 1.2q0.95 0.55 1.2 1.25 0.2-0.15 0.55-0.25l-0.45-0.55q-0.8-1.85 1.25-2.25 3 1.55-0.15 2.75l-0.15 0.05q1.7 0.95 1.15 1.75l0.1-0.05q2.4 1.2 0.95 2.25l-0.05 0.2q0.4 0.55 0.3 1.2l0.25 0.2 0.5-0.3 0.1-0.1q0.4-0.25 0.85-0.35 3.1 1.15 2.35 3l0.15-0.05q3.05 1.6-0.1 2.8l-0.05 0.05m1.95-9.15 0.05 0.15q-0.05 0.45-0.45 0.7l-0.35 0.15q-0.95-0.2-0.75-1.05l0.5-0.45 0.25-0.1q0.55 0.05 0.75 0.6m0.6 5.25-0.15-0.05q-0.2-0.5 0.25-0.75l0.2-0.05q1.1 0.9-0.3 0.85m0 0.7 0.05 0.15-0.45 0.7-0.35 0.15q-0.95-0.15-0.7-1.05 0.1-0.35 0.45-0.45l0.25-0.05q0.6 0.05 0.75 0.55m0.6 3.55 0.5-0.45 0.25-0.1q0.55 0.05 0.75 0.6l0.05 0.15-0.45 0.7-0.35 0.15q-0.95-0.2-0.75-1.05m-8.9-19.75 0.05 0.15-0.45 0.7-0.35 0.15q-0.95-0.15-0.7-1.05 0.1-0.35 0.45-0.45l0.25-0.05q0.6 0.05 0.75 0.55m3.9 3.45q1.05 0.9-0.3 0.85l-0.2-0.1q-0.2-0.45 0.3-0.7l0.2-0.05m-11.55-1.5-0.15-0.3-0.05 0.05-0.75 0.4 0.6 0.7 0.6-0.55-0.25-0.3m-4.85 8.5v-0.05l0.35 0.35-0.35-0.3m16.6-3.05q1.1 0.85-0.3 0.85l-0.15-0.1q-0.25-0.45 0.25-0.7l0.2-0.05m-2.15-1.5q-0.2-0.5 0.3-0.75l0.2-0.05q1.05 0.9-0.35 0.85l-0.15-0.05m0 2.45q-0.2-0.45 0.3-0.7l0.2-0.05q1.05 0.9-0.35 0.85l-0.15-0.1m-3.45-3q-0.8-1.85 1.25-2.25 3 1.55-0.15 2.75-0.75 0.3-1.1-0.5m5.95 6.85q1.1 0.9-0.3 0.85l-0.15-0.05q-0.2-0.5 0.25-0.7l0.2-0.1m1.2 0.8q-0.2-0.5 0.25-0.7l0.2-0.1q1.1 0.9-0.3 0.85l-0.15-0.05m-3.85-1.85q-0.85-1.85 1.2-2.25 3 1.55-0.15 2.75-0.75 0.3-1.05-0.5" fill="#472c12" fill-rule="evenodd"/>
<path d="m102.95 102.3 0.05-0.3m-1.95 13.05 0.05-0.35" fill="none" stroke="#674318" stroke-linecap="round" stroke-linejoin="round" stroke-width="2"/>
<path d="m141.6 128.4 10.4-4.4v-17l-3.65 0.05q-3.8 0.2-4.35 0.95-2.2 2.95-4 3h-7l-1.95 19.5v0.45m-28.05-28.95 28 10 0.05 18.5" fill="none" stroke="#000" stroke-linecap="round" stroke-linejoin="round" stroke-opacity=".50196" stroke-width=".05"/>
<path d="m111.25 98.1q1.4 0.05 0.35-0.85l-0.2 0.1-0.35 0.4-0.3-0.3-0.2 0.1q-0.35 0.15-0.3 0.5-0.35 0.15-0.2 0.6l0.2 0.1q1 0 0.7-0.45l0.3-0.2m-2.25-0.1 5-2-3 3-2 3v-4m14 0 6 2h-4l1 1-7 1-3 2v-3l3-3h4m16.45 4.6 1.55 0.4h1l-5 4-9 1 1-3 7-1 1-2 1.95 0.5q-0.45 0.25-0.2 0.7l0.15 0.05q1.2 0.05 0.55-0.65m-19.1-2.2q0.2-0.7-0.45-0.9-0.5 0.1-0.95 0.45l-0.05 0.3 0.05 0.4-0.3-0.25-0.2 0.05q-0.5 0.2-0.3 0.7l0.2 0.1q1 0 0.7-0.45 0.65 0.35 1.25-0.25l0.05-0.15m0.05 0.95 0.15 0.1q1.4 0 0.3-0.85l-0.2 0.05q-0.45 0.2-0.25 0.7m0.25-2.35q-0.45 0.2-0.25 0.7l0.15 0.1q1.4 0 0.3-0.9l-0.2 0.1m9.25 7.65q1.4 0 0.3-0.9l-0.2 0.1q-0.45 0.2-0.25 0.7l0.15 0.1m-7.4-5.6q1.35 0 0.3-0.9l-0.2 0.1q-0.5 0.2-0.3 0.7l0.2 0.1m-0.25-1.05q1.4 0 0.35-0.85l-0.2 0.05q-0.5 0.2-0.3 0.7l0.15 0.1m2.35-0.8q-0.45 0.2-0.25 0.7l0.15 0.1q1.4 0 0.3-0.85l-0.2 0.05m6.85 5.55-0.2 0.05q-0.45 0.25-0.25 0.7l0.15 0.1q1.4 0 0.3-0.85m2.05 1.4 0.15 0.05q1.4 0.05 0.3-0.85l-0.2 0.1q-0.5 0.2-0.25 0.7m1.9 0.65 0.15-0.1q0.8-0.7-0.35-0.95v0.05q-1.1 0.6 0.2 1m1.25-1.25-0.2 0.1q-0.5 0.2-0.25 0.7l0.15 0.05q1.4 0.05 0.3-0.85m-0.25-0.65 0.15 0.05q1.4 0.05 0.3-0.85l-0.2 0.1q-0.45 0.2-0.25 0.7m-1.25-0.1-0.3-0.25-0.2 0.05q-0.5 0.2-0.3 0.7l0.15 0.1q1.05 0 0.75-0.45h0.05q1.4 0.05 0.3-0.85l-0.2 0.1q-0.4 0.2-0.25 0.6m4.55-0.4q1.1-0.5 0.05-1.1l-0.15 0.05q-0.65 0.45-0.15 1l0.25 0.05m-1.8-0.75-0.2 0.05q-0.5 0.25-0.25 0.7l0.15 0.1q1.4 0.05 0.3-0.85m-0.15-1-0.2 0.1q-0.5 0.2-0.3 0.7l0.2 0.05q1.35 0.05 0.3-0.85" fill="#ebcb98" fill-rule="evenodd"/>
<path d="m111.25 98.1-0.3 0.2q0.3 0.45-0.7 0.45l-0.2-0.1q-0.15-0.45 0.2-0.6-0.05-0.35 0.3-0.5l0.2-0.1 0.3 0.3 0.35-0.4 0.2-0.1q1.05 0.9-0.35 0.85m27.7 4.4 0.05-0.05 0.2-0.05 0.25 0.2q0.65 0.7-0.55 0.65l-0.15-0.05q-0.25-0.45 0.2-0.7m-1.2 0.15q1.05 0.9-0.3 0.85l-0.2-0.05q-0.2-0.5 0.3-0.7l0.2-0.1m0.15 1q1.1 0.9-0.3 0.85l-0.15-0.1q-0.25-0.45 0.25-0.7l0.2-0.05m1.8 0.75-0.25-0.05q-0.5-0.55 0.15-1l0.15-0.05q1.05 0.6-0.05 1.1m-4.55 0.4q-0.15-0.4 0.25-0.6l0.2-0.1q1.1 0.9-0.3 0.85h-0.05q0.3 0.45-0.75 0.45l-0.15-0.1q-0.2-0.5 0.3-0.7l0.2-0.05 0.3 0.25m1.25 0.1q-0.2-0.5 0.25-0.7l0.2-0.1q1.1 0.9-0.3 0.85l-0.15-0.05m0.25 0.65q1.1 0.9-0.3 0.85l-0.15-0.05q-0.25-0.5 0.25-0.7l0.2-0.1m-1.25 1.25q-1.3-0.4-0.2-1v-0.05q1.15 0.25 0.35 0.95l-0.15 0.1m-1.9-0.65q-0.25-0.5 0.25-0.7l0.2-0.1q1.1 0.9-0.3 0.85l-0.15-0.05m-2.05-1.4q1.1 0.85-0.3 0.85l-0.15-0.1q-0.2-0.45 0.25-0.7l0.2-0.05m-6.85-5.55 0.2-0.05q1.1 0.85-0.3 0.85l-0.15-0.1q-0.2-0.5 0.25-0.7m-2.35 0.8-0.15-0.1q-0.2-0.5 0.3-0.7l0.2-0.05q1.05 0.85-0.35 0.85m0.25 1.05-0.2-0.1q-0.2-0.5 0.3-0.7l0.2-0.1q1.05 0.9-0.3 0.9m7.4 5.6-0.15-0.1q-0.2-0.5 0.25-0.7l0.2-0.1q1.1 0.9-0.3 0.9m-9.25-7.65 0.2-0.1q1.1 0.9-0.3 0.9l-0.15-0.1q-0.2-0.5 0.25-0.7m-0.25 2.35q-0.2-0.5 0.25-0.7l0.2-0.05q1.1 0.85-0.3 0.85l-0.15-0.1m-0.05-0.95-0.05 0.15q-0.6 0.6-1.25 0.25 0.3 0.45-0.7 0.45l-0.2-0.1q-0.2-0.5 0.3-0.7l0.2-0.05 0.3 0.25-0.05-0.4 0.05-0.3q0.45-0.35 0.95-0.45 0.65 0.2 0.45 0.9" fill="#fbf1ea" fill-rule="evenodd"/>
<path d="m109 98v4l2-3 3-3-5 2m14 0 6 2h-4l1 1-7 1-3 2v-3l3-3h4m16.45 4.6 1.55 0.4h1l-5 4-9 1 1-3 7-1 1-2 1.95 0.5" fill="none" stroke="#000" stroke-linecap="round" stroke-linejoin="round" stroke-opacity=".50196" stroke-width=".05"/>
</g>
</defs>
</svg>
