<?xml version="1.0" encoding="UTF-8"?>
<svg version="1.1" viewBox="0 0 79.328 114.05" xmlns="http://www.w3.org/2000/svg" xmlns:cc="http://creativecommons.org/ns#" xmlns:dc="http://purl.org/dc/elements/1.1/" xmlns:rdf="http://www.w3.org/1999/02/22-rdf-syntax-ns#" xmlns:xlink="http://www.w3.org/1999/xlink">
<metadata>
<rdf:RDF>
<cc:Work rdf:about="">
<dc:format>image/svg+xml</dc:format>
<dc:type rdf:resource="http://purl.org/dc/dcmitype/StillImage"/>
</cc:Work>
</rdf:RDF>
</metadata>
<g transform="translate(-235.32 -143.4)">
<use transform="translate(235.35,143.4)" width="79.300003" height="114.05" xlink:href="#a"/>
</g>
<defs>
<g id="a" transform="translate(-235.35,-143.4)">
<path d="m261.6 149.2q6.65 0.1 13.45 2.85l0.7 2.65q-7-1.9-13.85-1.55l-0.3-3.95" fill="#e85555" fill-rule="evenodd"/>
<path d="m261.9 153.15q-9.1 0.55-18 4.95l3.1-3.9-1.3-1.2q7.85-3.9 15.9-3.8l0.3 3.95" fill="#df1e1e" fill-rule="evenodd"/>
<path d="m261.6 149.2q6.65 0.1 13.45 2.85l0.7 2.65q-7-1.9-13.85-1.55-9.1 0.55-18 4.95l3.1-3.9-1.3-1.2q7.85-3.9 15.9-3.8z" fill="none" stroke="#000" stroke-linecap="round" stroke-linejoin="round" stroke-opacity=".50196" stroke-width=".4"/>
<path d="m270.75 167.85-0.1-0.15q-0.95-1.95-1.3-4l-0.15-1.05q-0.25-2.4 0.35-4.25l0.25-0.55q0.4-1.1 1.15-1.95l0.8-0.8q2.95-2.55 7.7-1.3 4.8 1.15 8.5 5.5 2.6 2.95 3.65 6.25l0.25 0.65-0.05 0.15 0.4 2.1v2.55q-0.25 2.1-1.3 3.65l-1.2 1.3q-2.5 2.15-6.25 1.7l-1.55-0.3-1.35-0.4-3.8-2.05-1.4-1.15-1.9-1.85-0.55-0.7-0.95-1.3-1.2-2.05" fill="#c7aa74" fill-rule="evenodd"/>
<path d="m290.9 174.65q1.05-1.55 1.3-3.65v-2.55l-0.4-2.1 0.05-0.15-0.25-0.65q-1.05-3.3-3.65-6.25-3.7-4.35-8.5-5.5-4.75-1.25-7.7 1.3l-0.8 0.8q-0.75 0.85-1.15 1.95l-0.25 0.55q-0.6 1.85-0.35 4.25l0.15 1.05q0.35 2.05 1.3 4l0.1 0.15q-5.6 0.15-9.7 1.4-2.1 0.6-3.25 1.35l-1.5 1.85-3.65 5.05q-4.1 6.25-6.95 13.15-2.7 6.45-3.8 13.45-1.15 7-0.9 14.1 0.25 7.75 2.8 14.95 2.6 7.35 8.8 12.1 6.1 4.75 13.75 5.95 7.6 1.35 15.35-0.05 7.65-1.45 13.35-6.7 4-3.65 6.5-8.3 1.1-0.4 2.2-2.15 1.2-2 2.35-5.75l0.2-0.8 0.4-1.4 0.2-0.8 0.8-4.55 0.3-2.8 0.1-3.25q0-4.4-0.6-9.3v-0.05l-0.45-3.2-1.1-5.3q-1.65-6.55-4.5-11.6l-0.6-1.1q-3.85-6.4-8-6.45l-0.6-0.95-1.35-2.05m5.5-6.7q4.85 7.4 8.4 15.55 3.8 8.6 6.1 17.65 2.2 8.9 1.65 18-0.45 8-3.3 15.5-3.05 8-9.5 13.9-6.75 6.2-15.9 7.9-9.2 1.7-18.25 0.1-9.05-1.4-16.3-7.1-7.35-5.65-10.45-14.35-3.05-8.55-3.35-17.8-0.3-8.45 1.1-16.8 1.3-8.3 4.45-15.95 3.4-8.2 8.3-15.65 4.75-7.3 10.75-13.25 3.8-3.35 8.3-5.35 3.65-1.7 7.6-0.65 5.25 1.3 9.2 4.95 6.4 5.85 11.2 13.35" fill="#775413" fill-rule="evenodd"/>
<path d="m256.3 172.45 1.5-1.85q1.15-0.75 3.25-1.35 4.1-1.25 9.7-1.4l1.2 2.05 0.95 1.3 0.55 0.7 1.9 1.85 1.4 1.15 3.8 2.05-7.8 0.55q-6.85 0-11.7-1.4-4.8-1.45-4.8-3.45l0.05-0.2" fill="#966a18" fill-rule="evenodd"/>
<path d="m290.9 174.65 1.35 2.05 0.6 0.95-0.75 0.05q-4.9 0.6 3.9 12.4l1.6 2.25 1.75 2.7q4.6 7.7 5.85 15.3l0.4 3.2q0.8 11.65-3.15 17.55t-1.05 5.1l0.15-0.05q-2.5 4.65-6.5 8.3-5.7 5.25-13.35 6.7-7.75 1.4-15.35 0.05-7.65-1.2-13.75-5.95-6.2-4.75-8.8-12.1-2.55-7.2-2.8-14.95-0.25-7.1 0.9-14.1 1.1-7 3.8-13.45 2.85-6.9 6.95-13.15l3.65-5.05-0.05 0.2q0 2 4.8 3.45 4.85 1.4 11.7 1.4l7.8-0.55 1.35 0.4 1.55 0.3q3.75 0.45 6.25-1.7l1.2-1.3" fill="#674810" fill-rule="evenodd"/>
<path d="m292.85 177.65q4.15 0.05 8 6.45l0.6 1.1q2.85 5.05 4.5 11.6l1.1 5.3 0.45 3.2v0.05q0.6 4.9 0.6 9.3l-0.1 3.25-0.3 2.8-0.8 4.55-0.2 0.8-0.4 1.4-0.2 0.8q-1.15 3.75-2.35 5.75-1.1 1.75-2.2 2.15l-0.15 0.05q-2.9 0.8 1.05-5.1t3.15-17.55l-0.4-3.2q-1.25-7.6-5.85-15.3l-1.75-2.7-1.6-2.25q-8.8-11.8-3.9-12.4l0.75-0.05" fill="#c09f61" fill-rule="evenodd"/>
<path d="m296.4 167.95q-4.8-7.5-11.2-13.35-3.95-3.65-9.2-4.95-3.95-1.05-7.6 0.65-4.5 2-8.3 5.35-6 5.95-10.75 13.25-4.9 7.45-8.3 15.65-3.15 7.65-4.45 15.95-1.4 8.35-1.1 16.8 0.3 9.25 3.35 17.8 3.1 8.7 10.45 14.35 7.25 5.7 16.3 7.1 9.05 1.6 18.25-0.1 9.15-1.7 15.9-7.9 6.45-5.9 9.5-13.9 2.85-7.5 3.3-15.5 0.55-9.1-1.65-18-2.3-9.05-6.1-17.65-3.55-8.15-8.4-15.55z" fill="none" stroke="#000" stroke-linecap="round" stroke-linejoin="round" stroke-opacity=".50196" stroke-width=".25"/>
<path d="m292.1 200.7q1.6 1.6 1.6 3.85t-1.6 3.8q-1.55 1.6-3.8 1.6-1.65 0-2.95-0.85v0.15q0 1.25-0.9 2.15t-2.15 0.9-2.15-0.9-0.9-2.15 0.9-2.15 2.15-0.9l0.9 0.15q-0.3-0.85-0.3-1.8 0-2.25 1.55-3.85 1.6-1.55 3.85-1.55t3.8 1.55m-31.9-8q-1.2 1.2-2.85 1.2-1.7 0-2.9-1.2-1.15-1.2-1.15-2.85 0-1.7 1.15-2.9 1.2-1.15 2.9-1.15 1.65 0 2.85 1.15 1.2 1.2 1.2 2.9 0 1.65-1.2 2.85m-6.1 15.2q0-0.9 0.6-1.5t1.45-0.55q0.85-0.05 1.45 0.55t0.6 1.5q0 0.85-0.6 1.45t-1.45 0.6-1.45-0.6-0.6-1.45m21.25 21.85q1.2-1.15 2.9-1.15 1.65 0 2.85 1.15l0.75 1.05 0.45-0.5q1.6-1.55 3.85-1.55t3.8 1.55q1.35 1.35 1.55 3.1l0.95-0.05q2.05-0.05 3.45 1.25 1.4 1.35 1.4 3.2t-1.4 3.15q-1.05 0.95-2.35 1.25 0 0.8-0.6 1.4t-1.45 0.6l-0.6-0.1q-0.05 0.8-0.6 1.4-0.6 0.6-1.45 0.6t-1.45-0.6l-0.1-0.1-0.7 1.05-1.75 0.9-0.75 1.05q-0.9 0.9-2.25 0.95-1.1-0.05-1.9-0.65l-0.45 0.55q-0.9 0.9-2.25 0.95-1.35-0.05-2.25-0.95l-0.4-0.5q-0.85 0.7-1.95 0.7-1.25 0-2.15-0.9t-0.9-2.15 0.9-2.15 2.15-0.9l0.9 0.15-0.3-1.45q-1.2-0.05-2.05-0.9-0.9-0.9-0.9-2.15t0.9-2.15 2.15-0.9 2.15 0.9l0.25 0.25 0.15-0.05 0.3-0.9-0.85-0.65q-1.15-1.2-1.15-2.85 0-1.7 1.15-2.9m-5.35 3.2q0.95 0.95 0.95 2.3 0 1.3-0.95 2.25-0.9 0.9-2.25 0.95-1.35-0.05-2.25-0.95-0.95-0.95-0.95-2.25 0-1.35 0.95-2.3 0.9-0.9 2.25-0.9t2.25 0.9m-14.95-12.7q2.25 0 3.8 1.55 1.6 1.6 1.6 3.85t-1.6 3.8q-1.55 1.6-3.8 1.6t-3.85-1.6q-1.55-1.55-1.55-3.8t1.55-3.85q1.6-1.55 3.85-1.55m8.7 6.7q0.85-0.05 1.45 0.55t0.6 1.5q0 0.85-0.6 1.45t-1.45 0.6-1.45-0.6-0.6-1.45q0-0.9 0.6-1.5t1.45-0.55m36.65-15.1q2.15 0 3.65 1.5t1.5 3.65q0 2.1-1.5 3.6l-0.4 0.4q1 1.3 1 3.1 0 2.1-1.5 3.6-1.5 1.55-3.65 1.55t-3.65-1.55l-0.85-1.1q-1.15 1.15-2.8 1.15-1.7 0-2.9-1.2-1.15-1.2-1.15-2.85 0-1.7 1.15-2.9 1.2-1.15 2.9-1.15 1.65 0 2.85 1.15l0.25 0.3 0.55-0.65 0.45-0.4q-1.05-1.3-1.05-3.05 0-2.15 1.5-3.65t3.65-1.5" fill="#966a18" fill-rule="evenodd"/>
<path d="m259.6 161.35q1.2-1.15 2.9-1.15 1.65 0 2.85 1.15 1.2 1.2 1.2 2.9 0 1.65-1.2 2.85t-2.85 1.2q-1.7 0-2.9-1.2-1.15-1.2-1.15-2.85 0-1.7 1.15-2.9m10.95 46.5q1.45 1.45 1.45 3.5t-1.45 3.5-3.5 1.5q-2.1-0.05-3.55-1.5t-1.45-3.5 1.45-3.5 3.55-1.45q2.05 0 3.5 1.45" fill="#b8821d" fill-rule="evenodd"/>
<path d="m270.25 242.75q-0.6 6.25-4.25 8.7l-1.05 0.6-1.35 0.5q-5.9 1.7-12.25-4.6l-0.2-0.2-1.9-2.1q-4.8-5.85-7.35-14.6l-0.7-2.65q-2.2-9.1-0.45-16.7l0.25-1.15q2.1-7.7 7.6-9.3 3.55-1.05 2.7 3.35l-1.15 3.75-2.05 4.7-1.4 3.7q-1.75 6.25 2.05 10l2.1 1.6q2.2 1.4 5.5 2.3l1.3 0.35 2.05 0.7q2.75 0.95 4.85 2.15 5.15 2.95 5.7 7.15v1.75" fill="#a58241" fill-opacity=".6" fill-rule="evenodd"/>
<path d="m255.45 161.35q-8.65 6.55-13.9 17.5l-0.15-6.55-2.3-0.5q4.7-9.6 12.8-14.8l3.55 4.35" fill="#df1e1e" fill-rule="evenodd"/>
<path d="m251.9 157q6.65-4.3 15.65-5.6l2.8 2.55q-8.4 2.5-14.9 7.4l-3.55-4.35" fill="#e85555" fill-rule="evenodd"/>
<path d="m251.9 157q6.65-4.3 15.65-5.6l2.8 2.55q-8.4 2.5-14.9 7.4-8.65 6.55-13.9 17.5l-0.15-6.55-2.3-0.5q4.7-9.6 12.8-14.8z" fill="none" stroke="#000" stroke-linecap="round" stroke-linejoin="round" stroke-opacity=".50196" stroke-width=".4"/>
<path d="m247.2 184.4 4.65-2.25 7.4-3.55q-1.95 5.4-3.45 11.35-2.5 10.1-2.75 17.7-0.6 19 2.2 29.95 0.85 3.25 2 6-2.55 0.9-5.35 0.1l-0.3-0.75q-1.15-2.8-2-6.05-2.8-11.2-2.2-30.5 0.25-7.75 2.75-18.05l1.7-6.2-1.7 6.2q-2.5 10.3-2.75 18.05-0.6 19.3 2.2 30.5 0.85 3.25 2 6.05l0.3 0.75q-2.1-0.6-4.35-2.15-1.1-2.7-1.9-5.85-2.8-10.95-2.2-29.95 0.25-7.6 2.75-17.7l1-3.65" fill="#df1e1e" fill-rule="evenodd"/>
<path d="m247.2 184.4q2.35-8.45 5.65-15.7 10-21.9 23.7-19.05 3.7 1.25 5.4 2.5-9.45-3.5-19.5 18.45-1.75 3.85-3.2 8l-7.4 3.55-4.65 2.25m29.1-34.5q-9.45-3.6-19.5 18.75-1.75 3.9-3.2 8.15-0.95 2.6-1.75 5.35 0.8-2.75 1.75-5.35 1.45-4.25 3.2-8.15 10.05-22.35 19.5-18.75" fill="#e85555" fill-rule="evenodd"/>
<path d="m257.25 243.6q4.15 10 12.5 13.5l-7.1-1.05q-6.95-3.65-10.75-12.35 3.8 8.7 10.75 12.35l-0.9-0.25q-9.65-3.2-14.2-14.25 2.25 1.55 4.35 2.15 2.8 0.8 5.35-0.1" fill="#bb1a1a" fill-rule="evenodd"/>
<path d="m281.95 152.15q-9.45-3.5-19.5 18.45-1.75 3.85-3.2 8-1.95 5.4-3.45 11.35-2.5 10.1-2.75 17.7-0.6 19 2.2 29.95 0.85 3.25 2 6 4.15 10 12.5 13.5l-7.1-1.05-0.9-0.25" fill="none" stroke="#000" stroke-linecap="round" stroke-linejoin="round" stroke-opacity=".6" stroke-width=".4"/>
<path d="m251.85 182.15q0.8-2.75 1.75-5.35 1.45-4.25 3.2-8.15 10.05-22.35 19.5-18.75m-13.65 106.15 1.45 0.7m-12.25-74.6-1.7 6.2q-2.5 10.3-2.75 18.05-0.6 19.3 2.2 30.5 0.85 3.25 2 6.05l0.3 0.75q3.8 8.7 10.75 12.35" fill="none" stroke="#eaef7a" stroke-linecap="round" stroke-linejoin="round" stroke-opacity=".8" stroke-width=".4"/>
<path d="m265.9 145.25 0.05 0.05q2.05-1.35 3.8-1.4-2.45 2.1-2 5.6 1.3-3.35 4.2-5 0.95-0.6 2.1-0.9 1.65 0.25 2.8 1.3 1.05 2.15 0.8 3.3-1.3-1.2-3.25 0.75-1.95 1.85-1.75 3.95-3.8 1.8-8.85-1.5l-0.15-0.95q-0.25-3.15 2.25-5.2" fill="#df1e1e" fill-rule="evenodd"/>
<path d="m263.8 151.4q5.05 3.3 8.85 1.5-0.2-2.1 1.75-3.95 1.95-1.95 3.25-0.75 0.25-1.15-0.8-3.3 1.2 1.15 1.85 3.2 0.9 4.9-5.9 6.65-7.9 0.7-9-3.35m8.15-6.9q-2.9 1.65-4.2 5-0.45-3.5 2-5.6 1.15 0 2.2 0.6m6.1 4.2-0.4-0.5 0.4 0.5m-5.4 4.2 0.15 0.9-0.15-0.9" fill="#bb1a1a" fill-rule="evenodd"/>
<path d="m265.95 145.3 0.1-0.15-0.15 0.1q-2.5 2.05-2.25 5.2l0.15 0.95m8.85 1.5q-0.2-2.1 1.75-3.95 1.95-1.95 3.25-0.75l0.4 0.5m-1.2-3.8q-1.15-1.05-2.8-1.3-1.15 0.3-2.1 0.9-2.9 1.65-4.2 5m2-5.6q-1.75 0.05-3.8 1.4m10.9-0.4q1.2 1.15 1.85 3.2 0.9 4.9-5.9 6.65-7.9 0.7-9-3.35m8.15-6.9q-1.05-0.6-2.2-0.6m3.05 9.9-0.15-0.9" fill="none" stroke="#000" stroke-linecap="round" stroke-linejoin="round" stroke-opacity=".4" stroke-width=".4"/>
<path d="m301.05 159.05q10.8 6.4 13.4 15.8l-4.25-0.1-4 5.55q-2.75-10.65-13.7-18.35l8.55-2.9" fill="#bb1a1a" fill-rule="evenodd"/>
<path d="m301.05 159.05-8.55 2.9q-8.3-5.85-17.3-10.45 0.5-2.2 2.75-1.3 14.1 3.5 23.1 8.85" fill="#df1e1e" fill-rule="evenodd"/>
<path d="m292.5 161.95q10.95 7.7 13.7 18.35l4-5.55 4.25 0.1q-2.6-9.4-13.4-15.8m-8.55 2.9q-8.3-5.85-17.3-10.45 0.5-2.2 2.75-1.3 14.1 3.5 23.1 8.85" fill="none" stroke="#000" stroke-linecap="round" stroke-linejoin="round" stroke-opacity=".50196" stroke-width=".4"/>
<path d="m289.6 165.9 2.75 3.6q7.75 11 6.55 21.2l-3.8-1.95-5.65 3.5q1.35-10.1-4.15-20.8-1.75-3.35-4.1-6.75l8.4 1.2" fill="#bb1a1a" fill-rule="evenodd"/>
<path d="m289.6 165.9-8.4-1.2-8.4-11.9q0.55-1.7 2.2-1.8 8.95 8.05 14.6 14.9" fill="#df1e1e" fill-rule="evenodd"/>
<path d="m281.2 164.7q2.35 3.4 4.1 6.75 5.5 10.7 4.15 20.8l5.65-3.5 3.8 1.95q1.2-10.2-6.55-21.2l-2.75-3.6m-8.4-1.2-8.4-11.9q0.55-1.7 2.2-1.8 8.95 8.05 14.6 14.9" fill="none" stroke="#000" stroke-linecap="round" stroke-linejoin="round" stroke-opacity=".4" stroke-width=".4"/>
</g>
</defs>
</svg>
