<?xml version="1.0" encoding="UTF-8"?>
<svg version="1.1" viewBox="0 0 113.12 105.45" xmlns="http://www.w3.org/2000/svg" xmlns:cc="http://creativecommons.org/ns#" xmlns:dc="http://purl.org/dc/elements/1.1/" xmlns:rdf="http://www.w3.org/1999/02/22-rdf-syntax-ns#" xmlns:xlink="http://www.w3.org/1999/xlink">
<metadata>
<rdf:RDF>
<cc:Work rdf:about="">
<dc:format>image/svg+xml</dc:format>
<dc:type rdf:resource="http://purl.org/dc/dcmitype/StillImage"/>
</cc:Work>
</rdf:RDF>
</metadata>
<g transform="translate(-218.4,-147.75)">
<use transform="translate(218.4,147.75)" width="113.15" height="105.45" xlink:href="#a"/>
</g>
<defs>
<g id="a" transform="translate(-218.4,-147.75)">
<path d="m330.95 216q1.15 9.6-5.25 18.05l-80.2 18.75q11.1-9.15 20.15-21.8 5-1.7 20.2-5.7 15.05-4.05 27.45-6.3l17.65-3" fill="url(#e)" fill-rule="evenodd"/>
<path d="m245.5 252.8q-14.4-29.45-26.7-78.1 8.7-12 19.8-15 18.35 33.65 27.05 71.3-9.05 12.65-20.15 21.8" fill="url(#d)" fill-rule="evenodd"/>
<path d="m238.6 159.7q21-7.3 42-10.45h0.75q15.35-0.25 20.2 2.5 5.5 3.4 11.9 13.65l2.25 3.9 0.55 1q10.25 22.6 14.7 45.7l-17.65 3q-12.4 2.25-27.45 6.3-15.2 4-20.2 5.7-8.7-37.65-27.05-71.3m80.2 48.8q-2.9-23.45-20.6-50.15-18-0.45-44 8.1 13.05 23.1 20.3 52.4l40.3-9.45 4-0.9" fill="url(#c)" fill-rule="evenodd"/>
<path d="m254.2 166.45 40.55-4.5 20.05 47.45-40.3 9.45q-7.25-29.3-20.3-52.4" fill="url(#b)" fill-rule="evenodd"/>
<path d="m281.35 149.25 22-1.1q4.6 7.45 10.1 17.25-6.4-10.25-11.9-13.65-4.85-2.75-20.2-2.5m-27.15 17.2q26-8.55 44-8.1 17.7 26.7 20.6 50.15l-4 0.9-20.05-47.45-40.55 4.5" fill="#a37a27" fill-rule="evenodd"/>
<path d="m318.8 208.5q-2.9-23.45-20.6-50.15-18-0.45-44 8.1" fill="none" stroke="#3d2b0a" stroke-linecap="round" stroke-linejoin="round" stroke-width=".05"/>
<path d="m254.2 166.45q13.05 23.1 20.3 52.4l40.3-9.45" fill="none" stroke="#a37a27" stroke-linecap="round" stroke-linejoin="round" stroke-width=".05"/>
<path d="m330.95 216q1.15 9.6-5.25 18.05l-80.2 18.75q-14.4-29.45-26.7-78.1 8.7-12 19.8-15 21-7.3 42-10.45h0.75l22-1.1q4.6 7.45 10.1 17.25l2.25 3.9 0.55 1q10.25 22.6 14.7 45.7" fill="none" stroke="#a37a27" stroke-linecap="round" stroke-linejoin="round" stroke-width=".8"/>
</g>
<linearGradient id="e" x1="-819.2" x2="819.2" gradientTransform="matrix(9e-4 .0189 -.0531 .0026 288.45 240)" gradientUnits="userSpaceOnUse">
<stop stop-color="#f8ead1" offset=".10588"/>
<stop stop-color="#a57e30" offset=".96078"/>
</linearGradient>
<linearGradient id="d" x1="-819.2" x2="819.2" gradientTransform="matrix(-.0225 .0183 -.0305 -.0374 219.5 222.75)" gradientUnits="userSpaceOnUse">
<stop stop-color="#ecdbbb" offset=".10588"/>
<stop stop-color="#9d894d" offset=".96078"/>
</linearGradient>
<linearGradient id="c" x1="-819.2" x2="819.2" gradientTransform="matrix(-.0696 -.0541 .0318 -.0409 262.45 175)" gradientUnits="userSpaceOnUse">
<stop stop-color="#f8ead1" offset=".10588"/>
<stop stop-color="#bb8d2f" offset=".96078"/>
</linearGradient>
<linearGradient id="b" x1="-819.2" x2="819.2" gradientTransform="matrix(-.0211 -.0279 .0246 -.0186 274.95 177.55)" gradientUnits="userSpaceOnUse">
<stop stop-color="#d0b684" offset=".094118"/>
<stop stop-color="#967128" offset=".96078"/>
</linearGradient>
</defs>
</svg>
