<?xml version="1.0" encoding="UTF-8"?>
<svg version="1.1" viewBox="0 0 90.17 94.245" xmlns="http://www.w3.org/2000/svg" xmlns:cc="http://creativecommons.org/ns#" xmlns:dc="http://purl.org/dc/elements/1.1/" xmlns:rdf="http://www.w3.org/1999/02/22-rdf-syntax-ns#" xmlns:xlink="http://www.w3.org/1999/xlink">
<metadata>
<rdf:RDF>
<cc:Work rdf:about="">
<dc:format>image/svg+xml</dc:format>
<dc:type rdf:resource="http://purl.org/dc/dcmitype/StillImage"/>
</cc:Work>
</rdf:RDF>
</metadata>
<g transform="translate(-229.86 -153.36)">
<use transform="translate(229.85,163.25)" width="81.25" height="26.35" xlink:href="#c"/>
<use transform="matrix(1.49 0 0 1.49 238.85 153.37)" width="50.400002" height="63.25" xlink:href="#b"/>
<use transform="translate(234.8,182.6)" width="85.25" height="57.299999" xlink:href="#a"/>
</g>
<defs>
<g id="c" transform="translate(-229.85,-163.25)">
<path d="m267.6 185.8 0.4 0.25-0.45-0.1 0.05-0.15" fill="#0c9" fill-rule="evenodd"/>
<path d="m237.1 174.9q4.65-2.6 9.75-1.15 0 4.4 5.8 7.75l-12.1-0.45 4.1-3-5.45 0.2-2.65 2.2-1.5-0.5q1.75-1.65 2.05-5.05m13.05 0.2q4.1 2.15 8.5 6.85 4.85 1.25 8.95 3.85l-0.05 0.15q-6.05-2.55-11.7-3.8-6.45-3.85-5.7-7.05" fill="#bef" fill-rule="evenodd"/>
<path d="m238.25 189.05q-2.95-0.75-5.95-2.25l-0.1-0.05q-2.65-3.35-2.3-4.9l0.1-0.3 1.55-1.95 1.2 0.05-0.4 1.9 2.6-1.5 0.1-0.1 1.5 0.5 2.65-2.2 5.45-0.2-4.1 3-5.15 0.95q4.15 0.5 7.35 1.35-4.55 2.3-4.5 5.7m13.1-1.15q-5.8 2.45-11.85 1.4 0.35-3.05 4.65-5.55 5.2 1.6 7.2 4.15" fill="#64d9ff" fill-rule="evenodd"/>
<path d="m231.55 179.6q2.7-3.15 5.55-4.7-0.3 3.4-2.05 5.05h-0.05l-0.05 0.1-2.6 1.5 0.4-1.9-1.2-0.05m15.3-5.85q1.6 0.45 3.3 1.35-0.75 3.2 5.7 7.05l-3.2-0.65q-5.8-3.35-5.8-7.75m-7.35 15.55-1.25-0.25q-0.05-3.4 4.5-5.7l1.4 0.4q-4.3 2.5-4.65 5.55" fill="#fff" fill-rule="evenodd"/>
<path d="m267.55 185.95-9.35-2.25q-3.4 2.75-6.85 4.2-2-2.55-7.2-4.15l-1.4-0.4q-3.2-0.85-7.35-1.35l5.15-0.95 12.1 0.45 3.2 0.65q5.65 1.25 11.7 3.8" fill="#047d7a" fill-rule="evenodd"/>
<path d="m283.1 189-0.3 0.25 0.15-0.35 0.15 0.1" fill="#0c9" fill-rule="evenodd"/>
<path d="m305.45 169.5h-0.1v-0.05l0.1 0.05" fill="#fc0" fill-rule="evenodd"/>
<path d="m282.95 188.9q1.8-4.35 5-7.65 1-6.5 3.1-10.4 2.2 2.95-0.8 9.45-3.75 3.65-7.15 8.7l-0.15-0.1m10-20.75q3.2-3.6 8.15-2.95 1.95 3.35 4.25 4.25v0.05l-0.95 1.1-3.2-1.1-4.35 2.05 4.75 1.3q-4.85 1.85-9.2 5.5 2.75-5.8 0.55-10.2" fill="#bef" fill-rule="evenodd"/>
<path d="m307.85 167.65 2.25 1.35 0.2 0.25q1.05 1.4 0.75 5.9l-0.05 0.05q-1.55 2.8-3.5 4.75-1.7-3.4-6.4-3.85 2-2.2 5-4.45-2.35 0.4-4.5 1.2l-4.75-1.3 4.35-2.05 3.2 1.1 0.95-1.1h0.1l2.8 0.45-1.3-1.75 0.9-0.55m-1.2 13.1q-4.15 3.6-9.9 3.5 0.2-3.4 3.45-7.15 4.6 0.7 6.45 3.65" fill="#64d9ff" fill-rule="evenodd"/>
<path d="m307.5 179.95-0.85 0.8q-1.85-2.95-6.45-3.65l0.9-1q4.7 0.45 6.4 3.85m-16.45-9.1q0.85-1.6 1.9-2.7 2.2 4.4-0.55 10.2l-2.15 1.95q3-6.5 0.8-9.45m10.05-5.65q3 0.4 6.75 2.45l-0.9 0.55 1.3 1.75-2.8-0.45-0.1-0.05q-2.3-0.9-4.25-4.25" fill="#fff" fill-rule="evenodd"/>
<path d="m296.75 184.25q-3.5-0.05-7.55-1.4l-6.1 6.15q3.4-5.05 7.15-8.7l2.15-1.95q4.35-3.65 9.2-5.5 2.15-0.8 4.5-1.2-3 2.25-5 4.45l-0.9 1q-3.25 3.75-3.45 7.15" fill="#047d7a" fill-rule="evenodd"/>
<path d="m270.05 187.65h0.15l0.05 0.3-0.2-0.3" fill="#0c9" fill-rule="evenodd"/>
<path d="m259.75 180.85q-4.9-1.1-7.5-5.05 2.25-2.2 6.35-1.9 1.75 3.9 1.15 6.95m-8.05-5.9q-1.15-2.1-1.75-4.85v-0.05q0.8-4 2.05-5.05l0.25-0.15 2.2-0.75 0.65 0.65-1.5 1.25 2.55 0.2 0.5 1.15 2.95-0.35 3.2 2.65-4.35 0.25q-1.65-1.15-3.5-1.95 1.95 2.6 3.15 4.9-4.1-0.55-6.4 2.1" fill="#64d9ff" fill-rule="evenodd"/>
<path d="m267.85 170.2q0.75 3.8 0.05 9.7 1.85 3.55 2.3 7.75h-0.15q-1.6-5.1-3.85-9-0.95-6.35 1.65-8.45m-7.1-6.9q4.35 0.35 6.15 4.15-2.95 3.45-2.05 9.05-2.8-4.05-6.4-6.6l4.35-0.25-3.2-2.65-2.95 0.35-0.5-1.15q2.1-0.4 4.6-2.9" fill="#bef" fill-rule="evenodd"/>
<path d="m266.2 178.65q2.25 3.9 3.85 9l-3.6-6.6-6.7-0.2q0.6-3.05-1.15-6.95l-0.5-1.05q-1.2-2.3-3.15-4.9 1.85 0.8 3.5 1.95 3.6 2.55 6.4 6.6l1.35 2.15" fill="#047d7a" fill-rule="evenodd"/>
<path d="m267.85 170.2q-2.6 2.1-1.65 8.45l-1.35-2.15q-0.9-5.6 2.05-9.05l0.95 2.75m-15.6 5.6-0.55-0.85q2.3-2.65 6.4-2.1l0.5 1.05q-4.1-0.3-6.35 1.9m2.2-11.7q3.65-1.05 6.3-0.8-2.5 2.5-4.6 2.9l-2.55-0.2 1.5-1.25-0.65-0.65" fill="#fff" fill-rule="evenodd"/>
</g>
<g id="b" transform="translate(25.2,31.6)">
<path d="m1.35-2.9 1.1-2.9 5.75-0.85 0.65-1.4 1.45 1-0.7 0.1-0.35 1.05-6.45 1.45-0.2 1.5 12.45 3.15 6.15 2.8-8.55-8.5 8.25 5.5 1.85 4 0.3 2.85-0.75 0.5-0.1 0.55-0.35 0.3-0.2 0.5-20.05-4.4-0.3 0.15-0.5-0.05 0.55-7.3m-1.9 0.25-2.65 6.85-18.65 2.75 0.25-3.25 12.55-12.85 7.4 3.4 2.2 1.3-1.1 1.8m-0.75-28q3.5-0.65 6.2 4 2.7 4.7 3 12.8l-0.05 1.9-1.45 1q-8.2 3.45-15.45-1.4-0.3-6.45 2-12.05 2.25-5.6 5.75-6.25m-18.7 34-0.25-0.45v0.5l0.25-0.05 17.85-5.65-17.85 5.65m17.9-5.65h-0.05 0.05m-5.55-10.5-0.05-0.25-0.45 0.25 0.15 0.1 0.25 0.1 0.1-0.2 12.9 0.8-12.9-0.8m9.5 15.7h0.45l-0.3-0.6-0.15 0.6m4.95-17-14.5 1.05 14.5-1.05m-27.1 19.55-0.15-1.25-0.25 1.3 0.4-0.05" fill="#005e9b" fill-opacity=".40784" fill-rule="evenodd"/>
<path d="m-0.4 4.3 0.15-0.05q9.5 3.75 19.9 4.9l0.3 0.1 0.15 0.15 0.6 0.7-0.35 0.25q-7.9 5.4-17.15 7.95l-2.8-0.05q-10.7-3.7-20.75-9.1l-0.55 0.3-0.05-0.05q1.65-2.55 5.3-3.15l15.25-1.95m0.15 11.4-0.2 0.8 0.2 0.05v-0.85q0-4.2-0.15-8.45 0.15 4.25 0.15 8.45m-18.7-6.8 0.15 0.05 0.05-0.1-0.2 0.05" fill="#003395" fill-opacity=".40784" fill-rule="evenodd"/>
<path d="m20.35 10.35-1.75 4.9-1.75 7.1-0.75 0.3v0.05l-0.45 0.25q-1.3 0.95-2.8 1.5-6.4 2.2-12.6 4.55l-0.1 0.2-1.95-0.3q-5.55-1.15-9.9-4.85l-9.2-14.6 0.55-0.3q10.05 5.4 20.75 9.1l2.8 0.05q9.25-2.55 17.15-7.95m-30.5 13.15 20.2-0.9 0.65 0.25-0.65-0.25-20.2 0.9" fill="#001160" fill-opacity=".40784" fill-rule="evenodd"/>
<path d="m2.6-2.95 12.45 3.15 6.15 2.8m-19.85-5.9-1.9 0.25m-21.05 6.35-0.85 0.25m10.75 20.1-2.65 0.9m25.05-2.1-0.65-0.25-20.2 0.9m27.7 1.95-1.9-0.75m-35.9-21.3 0.25-0.05 17.85-5.65h0.05m-5.6-10.75-0.45 0.25m0.15 0.1 0.35-0.1 12.9 0.8m-14.3-0.35-1.15 0.55m10.9 9.95q-0.9 3-1.1 6.15m-7.3-17.35 14.5-1.05m-7.05 29.8q0-4.2-0.15-8.45m0.15 8.45v0.85m9.75-29.95-1.6-0.45" fill="none" stroke="#005f9c" stroke-linecap="round" stroke-linejoin="round" stroke-opacity=".90588" stroke-width=".05"/>
<path d="m11.05-10.55-1.4 1.25q0.8-1.3 1.95-2.2l-0.5 0.85-0.05 0.1m0.8-1.4q0.05-0.65-0.75-0.65l-0.3 0.3-0.4-0.15h-0.4l0.4-0.25 1.95-0.15-0.5 0.9m-10.75 3.6q-0.55 0.55-0.45 0.8v0.45l1.65-0.15q1.65-0.05 3.35-0.65 2-0.5 4-1.4-3.75 3.15-8.4 4l-0.55-0.05q-6.8-1.7-13.15-4.65l-0.15-0.15-0.1 0.05v0.05l-0.95-2.4 1.85 0.5q-0.3 0.55 0.2 1.15 0.5 0.45 1.25 0.4 4.15 2.1 8.5 3.6l0.25-0.1q0.25-0.15 0.35-0.45-3.45-2.4-7.9-3.5l-0.55-0.5 10.8 3m9.3-4.1v-0.25 0.25m2.55 38.5q-0.55 0.5-1.5 0.9l-5.75 2.25-0.1-7-0.1-9.4q0.75 3.35 2.25 5.8 2.45 4.15 5.2 7.45" fill="#004a84" fill-opacity=".40784" fill-rule="evenodd"/>
<path d="m-0.55-28.65 0.05-0.15q0.45-0.8-0.4-1.15l-1.45 0.75q-1.55 0.95-2.7 2.55l-0.4 0.7q-3.55 5.9-2.45 13.3l7.05 1.55q0.35-0.3 0.25-0.7-1.95-6.7-1.4-13.45l0.35-3 1.1-0.4m6.6 5.3q-1.35-2.9-3.5-5.45l-0.45 0.25q1.05 2.7 1.5 5.4 0.7 4.7-0.55 9.55l-0.85 0.85 0.4 0.55 0.7-0.05q2.65-0.75 4.85-2.4-0.25-4.7-2.1-8.7m-1.55 0.05 0.45 0.45-0.3 0.1-0.15-0.55m-17.2 13.25 0.25 0.05-0.25-0.05v-0.05l0.1-0.05 0.15 0.15q6.35 2.95 13.15 4.65l0.55 0.05q4.65-0.85 8.4-4l1.4-1.25q7.85 4.75 12.9 12.2 1.1 1.6 0.6 3.55-2.4 8.75-5.45 17.25l-1.35 3.45-16.35 4.9-4.35-5.7q-2.8-3.45-6.55-6.35l-6.95-5.55-1.65-1.45q-1.85-1.8-3.15-3.6 1.35 2.15 2.35 4.05l0.15 0.25 4.7 9.6q1.7 3.6 5.45 4.7 3.4 0.95 5.95 2.9l0.9 0.6-12.4-5.1q-6-9.35-10.3-19.5-0.55-1.3 0.15-2.55 3.25-6.1 8.6-10.6l3-2.55m24.3-1.45q-1.15 0.9-1.95 2.2-2 0.9-4 1.4-1.7 0.6-3.35 0.65l-1.65 0.15v-0.45q-0.1-0.25 0.45-0.8l8.9-4.1-8.9 4.1-10.8-3-2.1-0.6q0-4 0.85-7.55 0.9-3.8 2.5-6.4 3.3-5.3 7.9-5.2 4.55 0.05 7.8 5.5 3.2 5.4 3.15 12.9l-0.7 0.35 0.3-0.1h0.4l0.4 0.15 0.3-0.3q0.8 0 0.75 0.65l-0.05 0.15-0.05 0.2-0.15 0.1 0.25-0.45-0.25 0.45m-24.1 2.85q-2.2 1.2-3.95 3.25-3.4 3.85-5.85 8.3 2.65 1.35 4.9-0.45 6.1-5 13.7-6.05l0.2-0.05q0.3-0.15 0.4-0.45l-0.05-0.1q-4.9-1.8-9.35-4.45m18.4-1.3-0.1 0.1q-0.45 0.25-0.35 0.7 1.55 0.7 3.6-0.25l2-1.75 0.1-0.2q0.15-0.8-0.75-0.8-1.85 1.7-4.5 2.2m-3.25 6.75q8.85 4.25 18.4 6.5l0.35-0.75-9.65-9.4q-0.7-0.35-1.25-0.8-2.75 2.9-6.85 3.75l-0.7 0.15-0.3 0.55m19.75 7.6q-3.9 1.35-8.5 3.05-4.25 1.5-8.4 3.65 1.65 1.1 3.4 1.55 4.05 1.1 4.6 4.3 0.8 5.05 0.95 8.65 1.45-1.55 2.3-3.85 1.45-4.25 3.2-8.5 1.75-4.35 2.45-8.85m-9.45 21.65q-2.75-3.3-5.2-7.45-1.5-2.45-2.25-5.8l0.1 9.4 0.1 7 5.75-2.25q0.95-0.4 1.5-0.9m-21.8-13.9q3.15 1.9 4.85 4.75 1.55 2.6 2.9 5.9 1.45 3.55 3.2 7.1-0.85-3.6-1.3-7.25-0.6-4.65-0.8-10.7-1.7-1.75-5.35-2.2-4.4-0.5-8.6-1.7l-0.6-0.15-5.8-2-2.65-1.1q0.85 1.15 2.3 1.8h0.05q2.95 1.25 5.65 2.45l0.5 0.2 0.2 0.1q2.75 1.2 5.45 2.8" fill="#005e9b" fill-opacity=".40784" fill-rule="evenodd"/>
<path d="m5.9-9.95q2.65-0.5 4.5-2.2 0.9 0 0.75 0.8l-0.1 0.2-2 1.75q-2.05 0.95-3.6 0.25-0.1-0.45 0.35-0.7l0.1-0.1" fill="#007ebb" fill-opacity=".10588" fill-rule="evenodd"/>
<path d="m-0.55-28.65-1.1 0.4-0.35 3q-0.55 6.75 1.4 13.45 0.1 0.4-0.25 0.7l-7.05-1.55q-1.1-7.4 2.45-13.3l0.4-0.7q1.15-1.6 2.7-2.55l1.45-0.75q0.85 0.35 0.4 1.15l-0.05 0.15m-1.2 58.9-0.9-0.6q-2.55-1.95-5.95-2.9-3.75-1.1-5.45-4.7l-4.7-9.6-0.15-0.25q-1-1.9-2.35-4.05 1.3 1.8 3.15 3.6l1.65 1.45 6.95 5.55q3.75 2.9 6.55 6.35l4.35 5.7 0.2 0.35-1.05-0.1-2.3-0.8m-10.75-38.9q4.45 2.65 9.35 4.45l0.05 0.1q-0.1 0.3-0.4 0.45l-0.2 0.05q-7.6 1.05-13.7 6.05-2.25 1.8-4.9 0.45 2.45-4.45 5.85-8.3 1.75-2.05 3.95-3.25m2.8-2.7 0.55 0.5q4.45 1.1 7.9 3.5-0.1 0.3-0.35 0.45l-0.25 0.1q-4.35-1.5-8.5-3.6-0.75 0.05-1.25-0.4-0.5-0.6-0.2-1.15l2.1 0.6m0.85 23.5q-2.7-1.6-5.45-2.8l-0.2-0.1-0.5-0.2q-2.7-1.2-5.65-2.45h-0.05q-1.45-0.65-2.3-1.8l2.65 1.1 5.8 2 0.6 0.15q4.2 1.2 8.6 1.7 3.65 0.45 5.35 2.2 0.2 6.05 0.8 10.7 0.45 3.65 1.3 7.25-1.75-3.55-3.2-7.1-1.35-3.3-2.9-5.9-1.7-2.85-4.85-4.75m9.4 18.9 0.85-0.25-0.85 0.25" fill="#00245e" fill-opacity=".40784" fill-rule="evenodd"/>
<path d="m3.6-23.15q-0.45-2.7-1.5-5.4l0.45-0.25q2.15 2.55 3.5 5.45l-1.1 0.5-0.45-0.45-0.9 0.15" fill="#008fcc" fill-opacity=".70588" fill-rule="evenodd"/>
<path d="m6.05-23.35q1.85 4 2.1 8.7-2.2 1.65-4.85 2.4l-0.7 0.05-0.4-0.55 0.85-0.85q1.25-4.85 0.55-9.55l0.9-0.15 0.15 0.55 0.3-0.1 1.1-0.5m-3.4 20.15 0.3-0.55 0.7-0.15q4.1-0.85 6.85-3.75 0.55 0.45 1.25 0.8l9.65 9.4-0.35 0.75q-9.55-2.25-18.4-6.5m19.75 7.6q-0.7 4.5-2.45 8.85-1.75 4.25-3.2 8.5-0.85 2.3-2.3 3.85-0.15-3.6-0.95-8.65-0.55-3.2-4.6-4.3-1.75-0.45-3.4-1.55 4.15-2.15 8.4-3.65 4.6-1.7 8.5-3.05" fill="#008fcc" fill-opacity=".40784" fill-rule="evenodd"/>
<path d="m-12.45-10-0.25-0.05m23.75-0.5-1.4 1.25q-3.75 3.15-8.4 4l-0.55-0.05q-6.8-1.7-13.15-4.65l-0.15-0.15m24.2-1.35 0.25-0.45m-1.85-0.5-8.9 4.1m-13.8-1.75v0.05m24.3-1.45-0.5 0.85m-22.9-1.3 2.1 0.6 10.8 3m9.3-4.35v0.25m-0.4 0 0.4-0.25m-9 43.5-0.85 0.25" fill="none" stroke="#005f9c" stroke-linecap="round" stroke-linejoin="round" stroke-opacity=".90588" stroke-width=".05"/>
<path d="m-12.7-10.05-3 2.55q-5.35 4.5-8.6 10.6-0.7 1.25-0.15 2.55 4.3 10.15 10.3 19.5l12.4 5.1m3.15 0.55 16.35-4.9 1.35-3.45q3.05-8.5 5.45-17.25 0.5-1.95-0.6-3.55-5.05-7.45-12.9-12.2m-23.75 0.5-0.95-2.4 1.85 0.5q0-4 0.85-7.55 0.9-3.8 2.5-6.4 3.3-5.3 7.9-5.2 4.55 0.05 7.8 5.5 3.2 5.4 3.15 12.9l1.95-0.15-0.5 0.9m-10.45 42.75 0.2 0.35-1.05-0.1-2.3-0.8" fill="none" stroke="#005f9c" stroke-linecap="round" stroke-linejoin="round" stroke-opacity=".90588"/>
</g>
<g id="a" transform="translate(-234.8,-182.6)">
<path d="m276 227 3.15 2.95-1.85 2.2q1.3-0.15 1.35 1.25l2.2-2.5q3.15 0.95 4.1 5.35l4-4.7q-4.05-1-5.25-3.7l2.1-2.35q-1.35-0.05-1.65-1.35l-1.8 1.95-2.65-2.6 5.8-5.4 1.25-4.3-5.05 0.5-5.75 5.55-0.05-0.05q0.1-3.5 0.5-7.25l3.35-0.65 24.3-7.05 2.75 4.5-5.5 23.05-19.65 7.1-3.3 0.4q-1.2-3.6-1.85-7.8l-0.5-5.1" fill="#e6ddc1" fill-rule="evenodd"/>
<path d="m275.9 219.8-5.65-5.5-5.05-0.5 1.25 4.3 5.8 5.4-2.7 2.6-1.75-1.95q-0.35 1.3-1.7 1.35l2.1 2.35q-1.2 2.7-5.25 3.7l4.05 4.7q0.9-4.4 4.1-5.35l2.15 2.5q0.05-1.4 1.4-1.25l-1.85-2.2 3.15-3 0.05 0.05 0.5 5.1q0.65 4.2 1.85 7.8-3 0-6-1l-17.35-6.15-8.45-21.75 2.75-3.6 17.25 3.85q5.8 1.5 9.85 1.3-0.4 3.75-0.5 7.25" fill="#dacea5" fill-rule="evenodd"/>
<path d="m266.45 218.1-1.25-4.3 5.05 0.5 5.7 5.55 5.75-5.55 5.05-0.5-1.25 4.3-5.8 5.4 2.65 2.6 1.8-1.95q0.3 1.3 1.65 1.35l-2.1 2.35q1.2 2.7 5.25 3.7l-4 4.7q-0.95-4.4-4.1-5.35l-2.2 2.5q-0.05-1.4-1.35-1.25l1.85-2.2-3.2-3-3.15 3 1.85 2.2q-1.35-0.15-1.4 1.25l-2.15-2.5q-3.2 0.95-4.1 5.35l-4.05-4.7q4.05-1 5.25-3.7l-2.1-2.35q1.35-0.05 1.7-1.35l1.75 1.95 2.7-2.6-5.8-5.4" fill="#426580" fill-rule="evenodd"/>
<path d="m245.05 197.9q-2.3 1.9-4.15 4.15 4.6-2.3 8.5-3.6-2.15 5 1.15 8-3.6 1.25-8 1.85l-0.1 0.05q-5.85-1.25-7-2.8l-0.2-0.35-0.35-2.75 1.15-0.7 1.45 1.9 1.15-3.15 1.9-0.6 0.5-3.6 5.1-3.75-1.1 5.35m6.15 0q6.6-2 11-1.05-3.25 5.95-10.15 8.95-2.65-2.9-0.85-7.9" fill="#64d9ff" fill-rule="evenodd"/>
<path d="m265.65 187.15-4.65 1.65q-9.95 0.8-12.3-2.45l14.8 0.45 2.15 0.35m-8.35 3.15q-7.15 3.25-12.25 7.6l1.1-5.35-5.1 3.75-0.5 3.6-1.9 0.6h-0.05q0.15-2.65-2.85-5.85 2-5.3 8.4-7.35 4.25 3.85 13.15 3" fill="#bef" fill-rule="evenodd"/>
<path d="m261 188.8 4.65-1.65-0.9 1.65q-0.65 4.5-2.55 8.05-4.4-0.95-11 1.05l-1.8 0.55q-3.9 1.3-8.5 3.6 1.85-2.25 4.15-4.15 5.1-4.35 12.25-7.6l3.7-1.5" fill="#047d7a" fill-rule="evenodd"/>
<path d="m261 188.8-3.7 1.5q-8.9 0.85-13.15-3 2.05-0.65 4.55-0.95 2.35 3.25 12.3 2.45m-11.6 9.65 1.8-0.55q-1.8 5 0.85 7.9l-1.5 0.65q-3.3-3-1.15-8m-14.5 4q-0.4-4.5 0.85-7.8 3 3.2 2.85 5.85h0.05l-1.15 3.15-1.45-1.9-1.15 0.7" fill="#fff" fill-rule="evenodd"/>
<path d="m309.8 194.45-1.15-5.35 5.15 3.75 0.45 3.6 1.95 0.6 1.1 3.15 1.45-1.9 1.2 0.7-0.4 2.75-0.15 0.35q-1.2 1.55-7 2.8l-0.1-0.05q-4.45-0.6-8-1.85 3.25-3 1.1-8 3.9 1.3 8.5 3.6-1.85-2.25-4.1-4.15m-6.15 0q1.75 5-0.85 7.9-6.95-3-10.15-8.95 4.35-0.95 11 1.05" fill="#64d9ff" fill-rule="evenodd"/>
<path d="m316.2 197.05-1.95-0.6-0.45-3.6-5.15-3.75 1.15 5.35q-5.15-4.35-12.3-7.6 8.9 0.85 13.2-3 6.35 2.05 8.4 7.35-3.05 3.2-2.9 5.85m-27-13.35 2.1-0.35 14.85-0.45q-2.4 3.25-12.35 2.45l-4.6-1.65" fill="#bef" fill-rule="evenodd"/>
<path d="m297.5 186.85q7.15 3.25 12.3 7.6 2.25 1.9 4.1 4.15-4.6-2.3-8.5-3.6l-1.75-0.55q-6.65-2-11-1.05-1.95-3.55-2.6-8.05l-0.85-1.65 4.6 1.65q1.9 0.7 3.7 1.5" fill="#047d7a" fill-rule="evenodd"/>
<path d="m316.2 197.05q-0.15-2.65 2.9-5.85 1.2 3.3 0.85 7.8l-1.2-0.7-1.45 1.9-1.1-3.15m-5.5-13.2q-4.3 3.85-13.2 3-1.8-0.8-3.7-1.5 9.95 0.8 12.35-2.45 2.45 0.3 4.55 0.95m-5.3 11.15q2.15 5-1.1 8l-1.5-0.65q2.6-2.9 0.85-7.9l1.75 0.55" fill="#fff" fill-rule="evenodd"/>
<path d="m291.45 205.15 0.15-0.05 0.65 2.4h-0.05l-0.75-2.35" fill="#360" fill-rule="evenodd"/>
<path d="m293.8 213.85q-4.7 1.05-11.3-1.55-5.75-3.65-5.65-9.25 7.1 6.85 15.35 4.45l0.4 1.2 0.4 1.3 2.3 0.95-1.5 2.9m-16.3-14.5q1.1-3.6 4.15-7.8 2.75 0.75 5.35-0.3l4.4 13.8q-8.05 1.75-13.9-5.7" fill="#bef" fill-rule="evenodd"/>
<path d="m289.8 189.55 1.65-1.55q2.8 0.85 4.9 2.15-1.8 6-5.9 9.1-0.75-4.9-0.65-9.7m8.65 2.1q5.5 4.75 4.15 13.6l-0.3 0.7q-2.85 6.6-8.5 7.9l1.5-2.9-2.3-0.95-0.4-1.3-0.35-1.2-0.65-2.4-0.7-3.2q5.7-2.1 7.55-10.25" fill="#64d9ff" fill-rule="evenodd"/>
<path d="m296.35 190.15 2.1 1.5q-1.85 8.15-7.55 10.25l-0.45-2.65q4.1-3.1 5.9-9.1m-19.5 12.9q0-1.75 0.65-3.7 5.85 7.45 13.9 5.7l0.05 0.1 0.75 2.35q-8.25 2.4-15.35-4.45" fill="#fff" fill-rule="evenodd"/>
<path d="m287 191.25 2.8-1.7q-0.1 4.8 0.65 9.7l0.45 2.65 0.7 3.2-0.15 0.05-0.05-0.1-4.4-13.8" fill="#047d7a" fill-rule="evenodd"/>
<path d="m270.1 208.6h-0.05 0.05" fill="#360" fill-rule="evenodd"/>
<path d="m276.6 191.6 2.5-0.55q2.55 2.1 4.15 4.3-4.95 4.4-10.85 5.15 1.7-4.75 4.2-8.9m8.1 6.1q3.5 6.9-2.45 14.05l-0.65 0.45q-6.35 4.45-13.05 2.8l3.05-1.85-1.95-1.95 0.2-1.35 0.25-1.25 0.55-2.4 0.9-3.15q7.05 0.9 13.15-5.35" fill="#64d9ff" fill-rule="evenodd"/>
<path d="m258.55 194.2q2.95-2.65 8.4-4.85 2.5 2 5.85 2.35l-2.35 14.35q-9.45-2.45-11.9-11.85m10 20.8q-5.5-1.4-11.2-6.9-4.3-6.1-1.35-10.95 4.05 9.55 14.05 11.45l-0.2 1.25-0.2 1.35 1.95 1.95-3.05 1.85" fill="#bef" fill-rule="evenodd"/>
<path d="m256 197.15q0.9-1.55 2.55-2.95 2.45 9.4 11.9 11.85l-0.4 2.55q-10-1.9-14.05-11.45m27.25-1.8 1.45 2.35q-6.1 6.25-13.15 5.35 0.35-1.3 0.85-2.55 5.9-0.75 10.85-5.15" fill="#fff" fill-rule="evenodd"/>
<path d="m272.8 191.7 3.8-0.1q-2.5 4.15-4.2 8.9-0.5 1.25-0.85 2.55l-0.9 3.15-0.55 2.4h-0.05l0.4-2.55 2.35-14.35" fill="#047d7a" fill-rule="evenodd"/>
</g>
</defs>
</svg>
