<?xml version="1.0" encoding="UTF-8"?>
<svg version="1.1" viewBox="0 0 264.9 121" xmlns="http://www.w3.org/2000/svg" xmlns:cc="http://creativecommons.org/ns#" xmlns:dc="http://purl.org/dc/elements/1.1/" xmlns:rdf="http://www.w3.org/1999/02/22-rdf-syntax-ns#" xmlns:xlink="http://www.w3.org/1999/xlink">
<metadata>
<rdf:RDF>
<cc:Work rdf:about="">
<dc:format>image/svg+xml</dc:format>
<dc:type rdf:resource="http://purl.org/dc/dcmitype/StillImage"/>
</cc:Work>
</rdf:RDF>
</metadata>
<g transform="translate(-192.65,-200.15)">
<use transform="translate(192.65,200.15)" width="264.89999" height="121" xlink:href="#a"/>
</g>
<defs>
<g id="a" transform="translate(-192.65,-200.15)">
<path d="m192.65 270.3 3.05-16.75 11.2 4.4 2.5 16.3-16.75-3.95m9.35 34.1-3-19.6 10.4-3.8 5.7 18.2-13.1 5.2m241.8-45.15-1.25-9.35 11.05-3.15 3.95 13.25-13.75-0.75m-3.45-15.8-9.8-23.85 9.8-8.7 0.6 0.45 13.45 22.6-14.05 9.5" fill="#fe5a5a" fill-rule="evenodd"/>
<path d="m206.9 257.95-11.2-4.4 20.05-26.85 11.05 7.9-19.9 23.35m233.45-47.05-9.8 8.7q-9-4.3-18.15-8.55l3-10.9 24.95 10.75" fill="#fe8b8b" fill-rule="evenodd"/>
<path d="m209.4 274.25-2.5-16.3 61.25 6-11.65 21-41.4 14.25-5.7-18.2 13.15-3.75-13.15-3m21.65-5.7-4.1 6.65 31.1-11.7-27 5.05m212.75-9.3-39.65 12.6-19.25-18.3-1.1-14.7 46.75-19.25 9.8 23.85-8.85 7.9 11.05-1.45 1.25 9.35m-17.05-8.55-9.95-3.5-27.3 4.3 37.25-0.8" fill="#ffa8ab" fill-rule="evenodd"/>
<path d="m231.05 268.55 27-5.05-31.1 11.7 4.1-6.65m195.7-17.85-37.25 0.8 27.3-4.3 9.95 3.5" fill="#fff" fill-rule="evenodd"/>
<path d="m226.8 234.6q21.15 7.9 42.5 15.95l-1.15 13.4-61.25-6 19.9-23.35m157 4.25-7.75 3.15 36.35-30.95q9.15 4.25 18.15 8.55l-46.75 19.25" fill="#ffd7c8" fill-rule="evenodd"/>
<path d="m269.3 250.55 8.35 5.7-3.45 11.8-16.45 23.55-30.35 19.6-12.3-12 41.4-14.25 11.65-21 1.15-13.4m-59.9 23.7 13.15 3-13.15 3.75v-6.75m174.4-35.4 1.1 14.7 19.25 18.3 39.65-12.6-9.45 17.05-34.15 2.65-25.4-16.9-5.7-11.2 6.95-8.85 7.75-3.15m58.75 11.05-11.05 1.45 8.85-7.9 2.2 6.45" fill="#cc7575" fill-rule="evenodd"/>
<path d="m192.65 270.3 16.75 3.95v6.75l-10.4 3.8-6.35-14.5m34.75 40.9-11.5 9.95-13.9-16.45v-0.3l13.1-5.2 12.3 12m206.95-34.9 9.45-17.05 13.75 0.75v0.15l-11.5 18.8-11.7-2.65m20.05-42.35-0.8 12.8-11.05 3.15-2.2-6.45 14.05-9.5" fill="#de2121" fill-rule="evenodd"/>
<path d="m288.4 224.8h0.8q-5.7 12.45-11.25 24.95-1.55 18 5.85 21.65l46.6-3.15q34.6-3.35 45 2.35l-11.8 28.45-61.6 5.5-26.9-18.95q-4.55-16.1-4.7-35.4l18-25.4m6 53.2h-0.15v0.2q0-0.2 0.15-0.2" fill="#cc7575" fill-rule="evenodd"/>
<path d="m375.4 270.6q-10.4-5.7-45-2.35l-46.6 3.15q-7.4-3.65-5.85-21.65 5.55-12.5 11.25-24.95h69.8l11.7 16.25 4.7 29.55m-91.25-8.05h-0.2v0.15q0-0.15 0.2-0.15m6.3 8.35h-0.3 0.3" fill="#ffa8ab" fill-rule="evenodd"/>
<path d="m363.6 299.05 11.8-28.45-4.7-29.55-11.7-16.25h0.8l15.6 12.65 6.35 29.2-18.15 32.4" fill="#ffc9cc" fill-rule="evenodd"/>
<path d="m288.4 224.8-18 25.4m89.4-25.4 15.6 12.65" fill="none" stroke="#d79b9d" stroke-linecap="round" stroke-linejoin="round" stroke-width=".05"/>
<path d="m270.4 250.2q0.15 19.3 4.7 35.4l26.9 18.95 61.6-5.5m11.8-61.6 6.35 29.2-18.15 32.4" fill="none" stroke="#d79b9d" stroke-linecap="round" stroke-linejoin="round" stroke-width=".05"/>
<path d="m291.85 272-3.75-37.75 7.55-11.35 45.5-6.3 14.05 9 7.25 34.9-35.05 8.85-35.55 2.65" fill="#ffd7c8" fill-rule="evenodd"/>
<path d="m362.45 260.5-3.6 23.85-28.75 6.45-25.75 2.4-12.5-21.2 35.55-2.65 35.05-8.85" fill="#fd8f75" fill-rule="evenodd"/>
<path d="m321.55 240.45q2.85 1.7 4.1 5.8 0.5 2.4 2.25 3.65l1.25 1.1q6.45-4.9 13.6-8.5 4.25-9.65 9.95-18.35l0.6-0.45q4.1 2.5 0.65 8.05-1.75 2.7-3.35 5.85-0.6 0.8-0.9 2.05 11.5-3.65 20.2 5.5 4.1 4.45 2.35 10.45-1.55 5.05-4.75 1.55-0.75-0.6-0.3-1.85 2.05-6.8-4.1-9.5-8.7-4.6-17.35 1.1-2.25 5.2-4.9 9.65 6.15 1.55 13.1 0.3 0.6 0 0.95 0.8 0.6 4.6-4.3 4.9-3.75 0.15-7.55-0.15l-5.7-1.1q-2.5 3-5.35 5.65-4.6 4.45-9.95 2.85-5.4-1.4-3-6.95 1.55-4.75 5.2-7.75l0.95-0.75q-2.2-2.25-3.95-4.75-3.3-4.25-0.65-8.55 0.15-0.45 0.95-0.6m-32.35 12.45-3-9.45q-1.45-3.65 1.9-4.6 2.8 1.6 3.75 5.7l0.95 4.1 0.5 1.9q4.75-3 9.15-6.35 4.4 2.25 0.15 6.2-3.65 3.15-7.55 5.35 2.05 6.3 4.4 12.5l4.9 0.6q2.2-5.05 4.9-9.95 0.15-0.45 0.8-0.8 3.95 2.7 1.1 8.4l-1.45 2.85q6.95 0.95 13.3 5.05 2.2 1.55 0.95 4.4-1.6 3.35-3.65 0.65-0.5-0.5-0.65-1.1-5.85-3.15-12.45-3.65-1.45 3-3.35 5.7 0.35 2.2-0.75 4.25-0.8 1.6-2.25 0.8l-0.95-0.95q-2.35 2.05-5.2 3.45l-5.35 0.2q-7.45-2.25-5.7-10.6 0.8-4.75 4.6-6.65 3-1.55 6.3-2.2l-3.65-10.75q-5.5 2.55-11.35 3.5-1.6 0.3-1.75-1.45-0.45-4.1 3.8-4.1 1.9-0.15 3.8-1.1l3.8-1.9m-1.6 26.25q1.6 6.15 7.45 2.8l2.8-2.2-1.55-5.85q-5.55 0-8.55 5.25h-0.15m14.05-4.9 0.15 0.15v-0.15h-0.15m21.5-9.8q5.35 1.4 9.65-4.45l0.15-0.3q-1.9-0.95-3.5-2.05-3.45 3-6.3 6.8m12.95-9.35 1.55-3.6q-2.05 1.1-3.75 2.5l2.2 1.1" fill="#ba3301" fill-rule="evenodd"/>
<path d="m281.75 241.4-0.3 0.15 0.3-0.15" fill="#feee98" fill-rule="evenodd"/>
<path d="m281.75 241.4 24.8-18.8 21.65-2.55-25.9 14.2-20.55 7.15m44.25-7.75 26.35-2.7-56.55 10.6 30.2-7.9m16.25-9.5 19.45 4.45 9.3 7.9-28.75-12.35" fill="#fff" fill-rule="evenodd"/>
<path d="m311.6 260.8q13.3 0 26.4 0.15l-56.55 4.3 30.15-4.45m38.1-21h0.15l10.4-0.8 13.1 4.25q-5.5 2.85-10.9 5.85l-12.75-9.3" fill="#660301" fill-opacity=".50196" fill-rule="evenodd"/>
<path d="m292.95 252.6 13.75 4.4-16.25 4.6h-13.25l15.75-9" fill="#fe4e0c" fill-opacity=".50196" fill-rule="evenodd"/>
<path d="m344.6 261.9 28.75-9.3-13.7 12-15.05-2.7" fill="#660101" fill-opacity=".50196" fill-rule="evenodd"/>
<path d="m346.85 283.85 20.35-3.95q-7.9 3.65-15.65 7.45l-20.65 1.4q7.9-2.55 15.95-4.9m-20.55 9.65h-17.2l-20.55-7.1 16.75 2.05 21 5.05" fill="#660101" fill-opacity=".50196" fill-rule="evenodd"/>
</g>
</defs>
</svg>
