<?xml version="1.0" encoding="UTF-8"?>
<svg version="1.1" viewBox="0 0 58.457 50.446" xmlns="http://www.w3.org/2000/svg" xmlns:cc="http://creativecommons.org/ns#" xmlns:dc="http://purl.org/dc/elements/1.1/" xmlns:rdf="http://www.w3.org/1999/02/22-rdf-syntax-ns#" xmlns:xlink="http://www.w3.org/1999/xlink">
<metadata>
<rdf:RDF>
<cc:Work rdf:about="">
<dc:format>image/svg+xml</dc:format>
<dc:type rdf:resource="http://purl.org/dc/dcmitype/StillImage"/>
</cc:Work>
</rdf:RDF>
</metadata>
<g transform="translate(-268.01 -189.04)">
<use transform="matrix(-.1384 .0385 .0371 .1437 320.31 223.99)" width="111.35" height="77.550003" xlink:href="#a"/>
<use transform="matrix(.3373 .0945 -.0283 .1087 272.77 206.16)" width="159.2" height="168.14999" xlink:href="#e"/>
<use transform="matrix(.1432 0 0 .1487 269.63 215.39)" width="111.35" height="77.550003" xlink:href="#a"/>
<use transform="matrix(-.1384 -.0385 -.0371 .1437 309.84 227.53)" width="111.35" height="77.550003" xlink:href="#a"/>
<use transform="matrix(.1384 -.0385 .0371 .1437 278.36 223.23)" width="111.35" height="77.550003" xlink:href="#a"/>
<use transform="matrix(.1432 0 0 .1487 270.68 204.42)" width="352.25" height="206.14999" xlink:href="#d"/>
<use transform="matrix(.2967 0 0 .1339 282.05 189.04)" width="118.35" height="231" xlink:href="#c"/>
<use transform="matrix(-.0323 -.0876 .0715 -.0264 274.97 218.13)" width="21.75" height="20.549999" xlink:href="#b"/>
<use transform="matrix(-.0249 -.078 .0709 -.0226 272.89 218.38)" width="21.75" height="20.549999" xlink:href="#b"/>
</g>
<defs>
<g id="a" transform="translate(55.65,38.75)">
<path d="m49.95-1.4-0.75-15.4-14.85 2.35-10.8-5.25-17.7 4.1-2.1-9.5-14.85-7-0.2-0.2 5.3-6.3 0.05-0.1 61.65 17.3-5.75 20m-101.95-8.45 1.3-3.3 12.75-7.3-14.05 10.6m2.7 12.8 30.4-5.35-21.4 15.55-1.35-5.7-7.65-4.5m27.3 8.8 15.05-18.25-4.15 21.95-3.7-11.6-7.2 7.9m28.5 13.9 9.25-22.25-1.85 28.25-3.8-6.55-3.6 0.55m27.6 12.5 7.9-11.75-3.6 12.4-4.3-0.65" fill="#508530" fill-rule="evenodd"/>
<path d="m-6-38.6-5.3 6.3 0.2 0.2 14.85 7 2.1 9.5 17.7-4.1 10.8 5.25 14.85-2.35 0.75 15.4-7.95 27.8-7.9 11.75-18-2.65-2.2-3.85 1.85-28.25-9.25 22.25-20.05 3.15 3.15-11.1-0.7-2.25 4.15-21.95-15.05 18.25-0.65 0.65-17.1 3.2-0.55-2.45 21.4-15.55-30.4 5.35-6.35-3.75 3.65-9.05 14.05-10.6 31.8-18.3 0.2 0.05-0.05 0.1" fill="#9fd385" fill-rule="evenodd"/>
<path d="m-5.95-38.7-0.05 0.1" fill="none" stroke="#39c" stroke-linecap="round" stroke-linejoin="round" stroke-width=".05"/>
<path d="m49.95-1.4 5.75-20-61.65-17.3m-32 18.25-12.75 7.3-1.3 3.3-3.65 9.05 6.35 3.75 7.65 4.5 1.35 5.7 0.55 2.45 17.1-3.2 0.65-0.65 7.2-7.9 3.7 11.6 0.7 2.25-3.15 11.1 20.05-3.15 3.6-0.55 3.8 6.55 2.2 3.85 18 2.65 4.3 0.65 3.6-12.4 7.95-27.8m-87.9-19.05 31.8-18.3 0.2 0.05z" fill="none" stroke="#000" stroke-linecap="round" stroke-linejoin="round" stroke-opacity=".30196" stroke-width=".05"/>
</g>
<g id="e" transform="translate(-35.5,33.5)">
<path d="m35.5-33.5h159.2v168.15h-159.2v-168.15" fill="url(#h)" fill-rule="evenodd"/>
</g>
<radialGradient id="h" cx="0" cy="0" r="819.2" gradientTransform="matrix(.1414 0 0 .1414 115.1 50.55)" gradientUnits="userSpaceOnUse">
<stop stop-opacity=".39216" offset="0"/>
<stop stop-color="#555" stop-opacity=".59216" offset=".16863"/>
<stop stop-color="#7b7b7b" stop-opacity=".62353" offset=".47451"/>
<stop stop-color="#7b7b7b" stop-opacity="0" offset=".66667"/>
</radialGradient>
<g id="d" transform="translate(176.1,103.05)">
<path d="m160.6 42.25 4.15 7.85 2.25 3.1-5.2-3.4-8.55-9.6 6.8 3.4 0.55-1.35m10.75 20.95-0.55 2.6-18.65-1.95 19.2-0.65m1.65 14.3-8.45 1.5-29.4 1.2 26.9-2.85-1.75-4.4 12.7 4.55m-41.35 2.7-44.05-0.15-21.35-0.1h-7.4l-10.2-2.45-1.15-0.3 4.05-5.05 8.65 2 28.6 3.05 1.55-3.95 41.3 6.95m-45 8.45-0.65 0.95-2.85 1.25-0.5-8 4 5.8m-5.35 3-4.85 2.1-0.7-10.5 5.55 8.4m-8.45 3.7-2.9 1.25-4.65 3.2 4.15-17.2 3.4 12.75m-39.2-21.6-26.65-6.7-18.55-9 8.6 1.3 7.1-2.55-0.95-3.1 27.9 11.8 18-8.05-16 13.45 0.7 2.7-0.15 0.15m-66.05-20.1-1.5-5.95 18.4 5.85-15.05-0.65-1.85 0.75m-1.7-6.75-0.2-0.65-6.3-3.3-24.45-6.85-12.35-11.1-19.3-18.25-5.1-16.7 15.45 19.45 23.7 17.55 21.85 6.9 0.4 1.65 6.8-6.95-1.1 4.4-1.25 5.05 1.25-5.05 19.4 10.45-20.65-5.4-0.1 0.5-0.1 0.3 0.15-0.25 22.7 11.35-20.8-3.1m-74.05-13.3-2-2.95 0.25-0.4 16.8-1.5-15.05 4.85m2.75-11.45 1.15-2 13.7 2.4-14.85-0.4m4.75-8.35 1.6-2.9 10.95 6.65-12.55-3.75m31.6-73.4 3-2.75 12.4 3.3-15.4-0.55m7.5-6.95 2.55-2.35 0.1 0.05 14.05 6.2-16.7-3.9m10.6-3.85 6.7-1.1 13.7 7.15-20.4-6.05m11.9-2 6.7-1.1 1.2-0.05 10.8 8.5-18.7-7.35m35.55-2.35 6.6-0.15 8.1 8.85-14.7-8.7m21.7-2.4-3.15-6.35 3.2-2.25 14.4 17.85-14.45-9.25m4.15-11.55 4.95-3.55 0.4 0.45 10.85 21.9-16.2-18.8m19.2 11.5 2.35 2.5 1.4-2.15 1.5 11.55-5.25-11.9m72.45 75.45-17.7-1.95-19.1 14.4-5.5 24.6 9.2 27.2-17.85-33.9 8.1-24.2 21.25-12.1 21.6 5.95m3.05 21.8-5.8 7.3-2.7 15.75 2.45 17.3-9.05-16.85 5.2-18.75 9.9-4.75m-153.2 18.85 1.85 7.35-1.85-7.35m-60.55-32.15 0.7-1.3-0.7 1.3" fill="#564327" fill-rule="evenodd"/>
<path d="m45.3-76.85 1.4-2.15 11.55 18.15v0.3l-33.4-3-6.65-13.6 14.45 9.25-14.4-17.85 4.1-2.95 16.2 18.8-10.85-21.9 13.85 14.6 5.25 11.9-1.5-11.55m42.3 156.9 1.55 4.75-2.5 3.85-4-5.8 0.5 8-1.85 0.8-5.55-8.4 0.7 10.5-3.6 1.6-3.4-12.75-4.15 17.2-4.8 3.3-1.85-5.6 7.6-17.55 21.35 0.1m-99.15-22-20.55-3.15-0.3-1.25 1.85-0.75 15.05 0.65-18.4-5.85-0.2-0.8 20.8 3.1-22.7-11.35-0.05-0.05 0.1-0.5 20.65 5.4-19.4-10.45 1.1-4.4 0.3-1.05 34.7 20.25 1.75 5.7 0.05 0.15 0.95 3.1-7.1 2.55-8.6-1.3m-65.85-33.05-19.3 14.4-7.25 0.5-4.2-6.3 15.05-4.85-16.8 1.5 4.5-8.1 14.85 0.4-13.7-2.4 3.6-6.35 12.55 3.75-10.95-6.65 2.35-4.15 19.3 18.25m8.25-75.9-0.3-8.3 0.4-0.4 15.4 0.55-12.4-3.3 4.5-4.2 16.7 3.9-14.05-6.2 0.05-0.2 7.9-1.35 20.4 6.05-13.7-7.15 5.2-0.9 18.7 7.35-10.8-8.5 27.65-1.2 14.7 8.7-8.1-8.85 6.5-0.25 11.4 11.8-50.75 2.85-36.3 8.9-0.65 0.65-2.45 0.05" fill="#31140f" fill-rule="evenodd"/>
<path d="m-59-68.9 0.15-0.15-0.05 0.2-0.1-0.05m117.25 8.35v-0.25h0.05l0.15 0.3-0.2-0.05m-154.25 66-0.7 1.3 0.7-1.3" fill="#6a7965" fill-rule="evenodd"/>
<path d="m58.25-60.85 0.3 0.15-0.05 0.05 35.55 21 23.15 27.15 7.75 14.7-2.8 0.8 4.55 2.75 15.1 12.6 12.4 11.55 6.4 12.35-0.55 1.35-6.8-3.4 8.55 9.6 5.2 3.4 5.1 6.9-0.75 3.1-19.2 0.65 18.65 1.95 5.15 3.95 0.2 7.2-3.15 0.55-12.7-4.55 1.75 4.4-26.9 2.85h-3.5l-41.3-6.95-1.55 3.95-28.6-3.05-8.65-2-4.05 5.05v0.05l-10.05 12.65-0.2-1.05 6.7-11.5-7.45 8.25v-0.05l-0.35-1.6 8.05-13.7-8.8 10.55-0.4-1.95 9.6-14.05-10.8 8.8-0.7-2.7 16-13.45-18 8.05-27.9-11.8-0.05-0.15-1.75-5.7-34.7-20.25-0.3 1.05-6.8 6.95-0.4-1.65-21.85-6.9-23.7-17.55-15.45-19.45-0.05-0.05-10.1-6.05-55.2 7.7-8.9-10.3-0.05-0.1 5.6-10.9 17.05-1.65-14.05-4.75 5.55-12.55 12.9 0.35-9.95-7.75 11.35-4.15 16.7 3.75-11.9-18.2 5.05-8.45 10.25 3.4-4.7-12.3 12.65 6.2-5.1-10.25 0.8-7.05 13.2 2.05 21.05 44.95 12.35 5.4 8.15-0.25 2.45-0.05 0.65-0.65 36.3-8.9 50.75-2.85 3.85-0.2 33.4 3 0.2 0.05-0.15-0.3h-0.05v-0.05m22.65 123.35-9.2-27.2 5.5-24.6 19.1-14.4 17.7 1.95-21.6-5.95-21.25 12.1-8.1 24.2 17.85 33.9m47.6-34.4q-1.85 2.75-0.95 6.1 0.85 3.35 3.95 5.35 3.05 2 6.45 1.45 3.45-0.55 5.25-3.3 1.8-2.8 0.9-6.15-0.85-3.4-3.9-5.35-3.05-2-6.5-1.45-3.4 0.55-5.2 3.35m-17.5 32.3-2.45-17.3 2.7-15.75 5.8-7.3-9.9 4.75-5.2 18.75 9.05 16.85" fill="url(#g)" fill-rule="evenodd"/>
<path d="m58.55-60.7 37.9 18.95 26.1 29.55 5.75 16.85 13.5 13.7-15.1-12.6-4.55-2.75 2.8-0.8-7.75-14.7-23.15-27.15-35.55-21 0.05-0.05" fill-rule="evenodd"/>
<path d="m133.4 25.1q-0.9 0.4-1.75 0.9-1.75 1.05-2.7 2.7-0.35 0.6-0.55 1.3-0.25 1.05 0.45 1.8l0.5 0.1q3.65-1.2 6.4-4.05 0.55-0.55 0.55-1.3 0.05-2.05-2.3-1.65l-0.6 0.2m-4.9 3q1.8-2.8 5.2-3.35 3.45-0.55 6.5 1.45 3.05 1.95 3.9 5.35 0.9 3.35-0.9 6.15-1.8 2.75-5.25 3.3-3.4 0.55-6.45-1.45-3.1-2-3.95-5.35-0.9-3.35 0.95-6.1" fill="#999" fill-rule="evenodd"/>
<path d="m133.4 25.1 0.6-0.2q2.35-0.4 2.3 1.65 0 0.75-0.55 1.3-2.75 2.85-6.4 4.05l-0.5-0.1q-0.7-0.75-0.45-1.8 0.2-0.7 0.55-1.3 0.95-1.65 2.7-2.7 0.85-0.5 1.75-0.9" fill="#fff" fill-rule="evenodd"/>
<path d="m33.85 73.8-0.2-0.05 0.15-0.15 0.05 0.2" fill="url(#f)" fill-rule="evenodd"/>
<path d="m37.25 88.85-0.75-3.25 7.45-8.25-6.7 11.5m-1.1-4.9-0.75-3.15 8.8-10.55-8.05 13.7m-1.15-5.1-1.15-5.05-0.05-0.2 10.8-8.8-9.6 14.05" fill="#d5e3a6" fill-rule="evenodd"/>
<path d="m-36.05 38.6 0.05 0.05-0.15 0.25 0.1-0.3" fill="#a0b871" fill-rule="evenodd"/>
<path d="m128.5 28.1q1.8-2.8 5.2-3.35 3.45-0.55 6.5 1.45 3.05 1.95 3.9 5.35 0.9 3.35-0.9 6.15-1.8 2.75-5.25 3.3-3.4 0.55-6.45-1.45-3.1-2-3.95-5.35-0.9-3.35 0.95-6.1" fill="none" stroke="#000" stroke-linecap="round" stroke-linejoin="round" stroke-opacity=".55294"/>
<path d="m45.3-76.85 1.4-2.15 11.55 18.15 38.2 19.1 26.1 29.55 5.75 16.85 13.5 13.7 12.4 11.55 6.4 12.35 4.15 7.85 2.25 3.1 5.1 6.9-0.75 3.1-0.55 2.6 5.15 3.95 0.2 7.2-3.15 0.55-8.45 1.5-29.4 1.2h-3.5l-44.05-0.15 1.55 4.75-2.5 3.85-0.65 0.95-2.85 1.25-1.85 0.8-4.85 2.1-3.6 1.6-2.9 1.25-4.65 3.2-4.8 3.3-1.85-5.6 7.6-17.55h-7.4l-10.2-2.45-1.15-0.25-10.05 12.65-0.2-1.05-0.75-3.25v-0.05l-0.35-1.6-0.75-3.15-0.4-1.95-1.15-5.05-0.2-0.05-26.65-6.7-18.55-9-20.55-3.15-0.3-1.25-1.5-5.95-0.2-0.8-0.2-0.65-6.3-3.3-24.45-6.85-12.35-11.1-19.3 14.4-7.25 0.5-4.2-6.3-2-2.95 0.25-0.4 4.5-8.1 1.15-2 3.6-6.35 1.6-2.9 2.35-4.15 19.3 18.25m8.25-75.9-0.3-8.3 0.4-0.4 3-2.75 4.5-4.2 2.55-2.35 0.15-0.15 7.9-1.35 6.7-1.1 5.2-0.9 6.7-1.1 1.2-0.05 27.65-1.2 6.6-0.15 6.5-0.25 11.4 11.8 3.85-0.2-6.65-13.6-3.15-6.35 3.2-2.25 4.1-2.95 4.95-3.55 0.4 0.45 13.85 14.6 2.35 2.5 1.4-2.15m12.95 16.3 0.2 0.05-0.15-0.3m-0.05 0v-0.05m0 0.3-33.4-3m26.7 135.7-4.05 5.05 1.15 0.3m104.6-37.3 8.55 9.6 5.2 3.4m-133.2 20.4-0.7-2.7 16-13.45m-45.9-3.75 0.95 3.1-7.1 2.55-8.6-1.3m45.35 15.55 0.05 0.2m13.65 3.45v-0.05m40.1 2.85-21.35-0.1m-45.25-143.3-50.75 2.85-36.3 8.9-0.65 0.65m30.65 89.55-0.1 0.3m1.85 7.35-1.85-7.35m-59.85-33.45-0.7 1.3" fill="none" stroke="#000" stroke-linecap="round" stroke-linejoin="round" stroke-opacity=".30196" stroke-width=".05"/>
<path d="m80.9 62.5-9.2-27.2 5.5-24.6 19.1-14.4 17.7 1.95m-3 62.15-2.45-17.3 2.7-15.75 5.8-7.3m35.1 43.8 18.65 1.95" fill="none" stroke="#000" stroke-linecap="round" stroke-linejoin="round" stroke-opacity=".30196"/>
<path d="m-96.7 6.75-5.1-16.7-0.05-0.05-10.1-6.05-55.2 7.7-8.9-10.3-0.05-0.1 5.6-10.9 17.05-1.65-14.05-4.75 5.55-12.55 12.9 0.35-9.95-7.75 11.35-4.15 16.7 3.75-11.9-18.2 5.05-8.45 10.25 3.4-4.7-12.3 12.65 6.2-5.1-10.25 0.8-7.05 13.2 2.05 21.05 44.95 12.35 5.4m43.7 79.3 0.3-1.05 34.7 20.25 1.75 5.7m-89.5-44.05-15.45-19.45m67.1 43 1.1-4.4m-2.45 9.95 0.1-0.5 1.25-5.05" fill="none" stroke="#000" stroke-linecap="round" stroke-linejoin="round" stroke-opacity=".30196" stroke-width=".05"/>
</g>
<linearGradient id="g" x1="-819.2" x2="819.2" gradientTransform="matrix(-.0117 .0442 -.2154 -.057 2.15 20.95)" gradientUnits="userSpaceOnUse">
<stop stop-color="#31140f" offset="0"/>
<stop stop-color="#d1de76" offset="1"/>
</linearGradient>
<linearGradient id="f" x1="-819.2" x2="819.2" gradientTransform="matrix(.0814 .0269 -.0286 .0867 -1.65 -1.8)" gradientUnits="userSpaceOnUse">
<stop stop-color="#3e465b" offset="0"/>
<stop stop-color="#bad678" offset="1"/>
</linearGradient>
<g id="c" transform="translate(59.15,115.5)">
<path d="m26.35-5.55q-4.35 9.4-19 22.25-14.7 12.85-5.15 62.3-16.4-29.05-20-60.95-3.05-36.8 28.55-58.05 15.2-12.05-8.05-75.5 38.5 79.5 29.25 95.4-0.65 1.05-0.9 3.1-0.35 2.05-4.7 11.45m31.2 31.85q-0.2 1.9-3.15 7.9-3 6.05-11.8 18.8-7.65 11.05-3.85 50.2l1.35 12.3q-2.25-6.1-4.05-12.3-6.35-21.4-8.05-44.35-1.85-34.2 17.25-53.95 9.25-11.2-4.85-70.15 23.3 73.85 17.7 88.65-0.35 1-0.55 2.9m-100.8 1.55q-9.45 13.7-2.7 67.35-10.7-29.1-13.05-61.05-1.95-36.8 18.65-58.15 9.95-12.05-5.25-75.6 25.1 79.6 19.05 95.6l-0.55 3.1q-0.2 2-3.45 8.5t-12.7 20.25" fill-opacity=".46274" fill-rule="evenodd"/>
</g>
<g id="b" transform="translate(10.9,10.25)">
<path d="m3.25-3.5 7.6 0.65-6.5 4.85 2.25 8.3-7.1-4.65-7.95 3.65 3.6-7.7-6.05-4.95 8.3-0.35 3.15-6.55 2.7 6.75" fill="#ffc" fill-rule="evenodd"/>
</g>
</defs>
</svg>
