<?xml version="1.0" encoding="UTF-8" standalone="no"?>
<!DOCTYPE svg PUBLIC "-//W3C//DTD SVG 1.1//EN" "http://www.w3.org/Graphics/SVG/1.1/DTD/svg11.dtd">
<svg width="100%" height="100%" viewBox="0 0 102 172" version="1.1" xmlns="http://www.w3.org/2000/svg" xmlns:xlink="http://www.w3.org/1999/xlink" xml:space="preserve" xmlns:serif="http://www.serif.com/" style="fill-rule:evenodd;clip-rule:evenodd;stroke-linecap:round;stroke-linejoin:round;">
    <g transform="matrix(1,0,0,1,-178.975,-89.975)">
        <g transform="matrix(1,0,0,1,179.1,90.05)">
            <g>
                <g id="Symbol_4_0_Layer2_0_FILL">
                    <path d="M70.8,110.8L62.9,121.45L60.3,133.15L40.55,163.15L40.55,170.65L60.3,154.9L72.55,132.35L70.8,110.8M53.95,123.2L60.2,113.75L57.95,113.25L53.95,123.2M57,99.2L58.25,107.5L62.15,100.2L57,99.2M44.45,80.05C49.817,80.15 55.167,81.033 60.5,82.7C65.3,84.367 69.383,86.283 72.75,88.45L74.75,84.6L76.75,80.7C71.983,79.133 67.117,78.217 62.15,77.95C56.15,77.817 50.25,78.517 44.45,80.05M45.2,90.6L42.5,89.45L40.65,87.1L29.75,104.5L7.5,127.75L0,137L0,151.75L6.8,161.85L15.3,159.65L32.05,146.65L43.05,134.15L49.05,124.4L55.8,109.85L52.55,97.35L48.05,100.6L45.2,90.6M51.9,101.5L51.9,106L49,101.5L51.9,101.5M47.8,113.1C47.733,114.6 47.433,115.95 46.9,117.15C44.367,123.05 40.667,128.283 35.8,132.85L37.05,131.1C38.383,129.433 39.417,127.667 40.15,125.8L39.75,125.95L36.8,126.85L36.95,126.6C39.35,120.933 41.883,115.517 44.55,110.35L47.8,113.1M37.5,21.35L31.75,11.35L28.5,16.35L31.75,29.6L45.75,71.45L48.45,70.6L43.65,49.05L37.5,21.35M88.8,40.1L88.8,17.1L78.05,6.35L86.25,0.05L80,0.55C68.667,2.883 61.583,6.117 58.75,10.25C55.917,14.317 54.333,16.717 54,17.45L52.95,33.6L51.5,55.95L48.45,70.6L50.85,69.8C52.217,66.467 53.767,63.2 55.5,60L55.65,59.9L57.9,60L58.35,62.1C58.617,63.1 58.5,63.4 58,63L56.75,63.5C56.483,64.433 56.367,65.433 56.4,66.5C56.433,67.2 56.617,67.833 56.95,68.4L63.05,67.85C63.783,64.883 65.267,62.317 67.5,60.15C67.733,63.05 67.25,65.617 66.05,67.85L67.5,67.95L78.25,56.7L82,49.7L88.8,40.1Z" style="fill:#f1eac2;fill-rule:nonzero;"/>
                    <path d="M62.9,121.45L65.45,109.7L58.75,127.25L33,156.5L40.55,163.15L60.3,133.15L62.9,121.45M52.95,33.6L43.65,49.05L48.45,70.6L51.5,55.95L52.95,33.6Z" style="fill:#b19b52;fill-rule:nonzero;"/>
                    <path d="M65.45,109.7L62.9,121.45L70.8,110.8L69.75,98.45L65.45,109.7M51.9,106L51.9,101.5L49,101.5L51.9,106Z" style="fill:#e9dfad;fill-rule:nonzero;"/>
                    <path d="M54.75,94.7L45.2,90.6L48.05,100.6L52.55,97.35L55.8,109.85L49.05,124.4L43.05,134.15L32.05,146.65L15.3,159.65L6.8,161.85L7.75,163.25L23.5,166.7L33,156.5L58.75,127.25L65.45,109.7L69.75,98.45L54.75,94.7M58.25,107.5L57,99.2L62.15,100.2L58.25,107.5M60.2,113.75L53.95,123.2L57.95,113.25L60.2,113.75M46.9,117.15C47.433,115.95 47.733,114.6 47.8,113.1L44.55,110.35C41.883,115.517 39.35,120.933 36.95,126.6L36.8,126.85L39.75,125.95L40.15,125.8C39.417,127.667 38.383,129.433 37.05,131.1L35.8,132.85C40.667,128.283 44.367,123.05 46.9,117.15M57.9,60L55.65,59.9L55.5,60C53.767,63.2 52.217,66.467 50.85,69.8C52.85,69.167 54.883,68.7 56.95,68.4C56.617,67.833 56.433,67.2 56.4,66.5C56.367,65.433 56.483,64.433 56.75,63.5L58,63C58.5,63.4 58.617,63.1 58.35,62.1L57.9,60M63.05,67.85L66.05,67.85C67.25,65.617 67.733,63.05 67.5,60.15C65.267,62.317 63.783,64.883 63.05,67.85M43.65,49.05L52.95,33.6L54,17.45L44,21.35L37.5,21.35L43.65,49.05M100.5,21.2L101.15,18.35L101.15,15.35C98.917,5.583 93.95,0.483 86.25,0.05L78.05,6.35L88.8,17.1L88.8,40.1L82,49.7L78.25,56.7L67.5,67.95C72.567,69.117 76.483,71.033 79.25,73.7L90.5,57.7L100.5,21.2Z" style="fill:#ddd195;fill-rule:nonzero;"/>
                    <path d="M44.45,80.05L42.95,80.4C41.15,81.067 39.75,82.5 38.75,84.7L40.65,87.1L42.5,89.45L45.2,90.6L54.75,94.7L69.75,98.45C72.15,96.75 73.4,94.967 73.5,93.1C73.533,91.233 73.283,89.683 72.75,88.45C69.383,86.283 65.3,84.367 60.5,82.7C55.167,81.033 49.817,80.15 44.45,80.05M55.65,83.25L55.85,83.7C56.85,87.067 55.833,88.967 52.8,89.4C46.467,90.033 44.317,87.883 46.35,82.95C49.083,80.583 52.183,80.683 55.65,83.25M67.5,67.95L66.05,67.85L63.05,67.85L56.95,68.4C54.883,68.7 52.85,69.167 50.85,69.8L48.45,70.6L45.75,71.45C43.617,73.15 42.283,74.983 41.75,76.95L41.75,80.7L42.95,80.4L44.45,80.05C50.25,78.517 56.15,77.817 62.15,77.95C67.117,78.217 71.983,79.133 76.75,80.7L74.75,84.6L78.65,83.5L81,80.7C81.7,78.233 81.117,75.9 79.25,73.7C76.483,71.033 72.567,69.117 67.5,67.95M61.15,68.6C62.45,68.4 63.65,68.667 64.75,69.4L65.95,70.55C67.15,72.45 67.267,74.417 66.3,76.45L63.8,77L60.2,77.15L56.95,77.2C55.55,77.433 54.317,77.283 53.25,76.75C51.85,76.183 51.083,75.217 50.95,73.85C50.817,72.417 51.4,71.417 52.7,70.85L53.4,70.6L49.2,70.95L49.55,70.55C53.317,69.45 57.183,68.8 61.15,68.6Z" style="fill:#d6a70a;fill-rule:nonzero;"/>
                    <path d="M55.85,83.7L55.65,83.25C52.183,80.683 49.083,80.583 46.35,82.95C44.317,87.883 46.467,90.033 52.8,89.4C55.833,88.967 56.85,87.067 55.85,83.7M51.15,86C51.05,84.933 51.483,84.233 52.45,83.9C53.683,83.967 54.25,84.6 54.15,85.8C54.117,86.567 53.733,87.017 53,87.15C51.867,87.383 51.25,87 51.15,86M64.75,69.4C63.65,68.667 62.45,68.4 61.15,68.6C57.183,68.8 53.317,69.45 49.55,70.55L49.2,70.95L53.4,70.6L52.7,70.85C51.4,71.417 50.817,72.417 50.95,73.85C51.083,75.217 51.85,76.183 53.25,76.75C54.317,77.283 55.55,77.433 56.95,77.2L60.2,77.15L63.8,77L66.3,76.45C67.267,74.417 67.15,72.45 65.95,70.55L64.75,69.4M62.4,73.35L62.15,74C61.217,75.067 60.133,75.267 58.9,74.6C58.733,74.533 58.633,74.4 58.6,74.2C58.233,72.8 58.717,71.867 60.05,71.4C61.517,71.333 62.3,71.983 62.4,73.35Z" style="fill:#f2d117;fill-rule:nonzero;"/>
                    <path d="M52.45,83.9C51.483,84.233 51.05,84.933 51.15,86C51.25,87 51.867,87.383 53,87.15C53.733,87.017 54.117,86.567 54.15,85.8C54.25,84.6 53.683,83.967 52.45,83.9M62.15,74L62.4,73.35C62.3,71.983 61.517,71.333 60.05,71.4C58.717,71.867 58.233,72.8 58.6,74.2C58.633,74.4 58.733,74.533 58.9,74.6C60.133,75.267 61.217,75.067 62.15,74Z" style="fill:#fff;fill-rule:nonzero;"/>
                </g>
                <path id="Symbol_4_0_Layer2_0_1_STROKES" d="M86.25,0.05C93.95,0.483 98.917,5.583 101.15,15.35L101.15,18.35L100.5,21.2L90.5,57.7L79.25,73.7C81.117,75.9 81.7,78.233 81,80.7L78.65,83.5L74.75,84.6L72.75,88.45C73.283,89.683 73.533,91.233 73.5,93.1C73.4,94.967 72.15,96.75 69.75,98.45L70.8,110.8L72.55,132.35L60.3,154.9L40.55,170.65L40.55,163.15L33,156.5L23.5,166.7L7.75,163.25L6.8,161.85L0,151.75L0,137L7.5,127.75L29.75,104.5L40.65,87.1L38.75,84.7C39.75,82.5 41.15,81.067 42.95,80.4L41.75,80.7L41.75,76.95C42.283,74.983 43.617,73.15 45.75,71.45L31.75,29.6L28.5,16.35L31.75,11.35L37.5,21.35L44,21.35L54,17.45C54.333,16.717 55.917,14.317 58.75,10.25C61.583,6.117 68.667,2.883 80,0.55L86.25,0.05ZM88.8,40.1L82,49.7L78.25,56.7L67.5,67.95C72.567,69.117 76.483,71.033 79.25,73.7M54,17.45L52.95,33.6M66.05,67.85L67.5,67.95M63.05,67.85L66.05,67.85M63.05,67.85L56.95,68.4C54.883,68.7 52.85,69.167 50.85,69.8L48.45,70.6L45.75,71.45M52.95,33.6L51.5,55.95L48.45,70.6L43.65,49.05L37.5,21.35M42.95,80.4L44.45,80.05C50.25,78.517 56.15,77.817 62.15,77.95C67.117,78.217 71.983,79.133 76.75,80.7L74.75,84.6M40.65,87.1L42.5,89.45L45.2,90.6L54.75,94.7L69.75,98.45L65.45,109.7L62.9,121.45M44.45,80.05C49.817,80.15 55.167,81.033 60.5,82.7C65.3,84.367 69.383,86.283 72.75,88.45M62.9,121.45L60.3,133.15L40.55,163.15M65.45,109.7L58.75,127.25L33,156.5" style="fill:none;fill-rule:nonzero;stroke:#000;stroke-opacity:0.37;stroke-width:0.25px;"/>
            </g>
            <g transform="matrix(1,0,0,1,-179.1,-90.05)">
                <path d="M266.466,220.98C266.439,221.038 266.412,221.095 266.386,221.152C266.301,221.112 266.228,221.048 266.176,220.965C266.085,220.819 266.075,220.636 266.15,220.481C265.537,221.742 265.043,223.036 264.669,224.364L264.407,225.567L264.4,225.662L264.407,225.734L264.906,228.677L265.2,230.736L265.2,230.847C265.2,230.922 265.214,230.987 265.237,231.042L265.257,231.102L265.35,232.172L265.352,232.399L265.352,232.394L265.549,234.613C265.549,234.613 265.451,237.308 265.451,237.308C265.451,237.308 265.055,240.329 265.055,240.329C265.055,240.329 264.958,240.96 264.958,240.96L264.459,243.303C264.022,245.524 263.736,247.426 263.602,249.008L263.601,249.083C263.602,249.097 263.604,249.111 263.606,249.125C263.908,251.108 264.261,252.922 264.664,254.569C264.666,254.575 264.668,254.582 264.67,254.588C265.416,257.181 266.252,258.99 267.148,260.027C267.839,260.827 268.582,261.2 269.35,261.2C270.133,261.2 270.882,260.825 271.569,260.026C272.462,258.988 273.276,257.179 273.982,254.584C274.455,252.928 274.81,251.137 275.046,249.211L275.05,249.134C274.982,246.998 274.494,244.454 273.578,241.504C273.578,241.504 273.439,241.041 273.439,241.041C273.439,241.041 273.198,239.402 273.198,239.402C273.198,239.402 273.1,237.338 273.1,237.338C273.1,237.338 273.1,235.666 273.1,235.666L273.339,232.04C273.37,231.982 273.391,231.917 273.398,231.848L273.546,230.311C273.546,230.311 274.244,225.674 274.244,225.674L274.25,225.581L274.238,225.489L273.988,224.389C273.984,224.374 273.98,224.36 273.975,224.345L273.275,222.195C273.271,222.181 273.266,222.168 273.26,222.154L272.458,220.268C272.458,220.268 272.661,217.75 272.661,217.75C272.661,217.75 273.9,217.75 273.9,217.75C274.176,217.75 274.4,217.526 274.4,217.25L274.4,215.55L276.7,215.55C276.97,215.55 277.191,215.336 277.2,215.066L277.25,213.522L277.248,213.552L277.25,213.472L277.448,209.253L277.5,208.892L277.5,208.564L277.549,207.687C277.549,207.687 277.798,204.945 277.798,204.945L277.8,204.47L278.148,200.144L278.348,198.05C278.348,198.05 279.047,191.356 279.047,191.356C279.047,191.356 279.546,187.163 279.546,187.163C279.546,187.163 280.296,181.567 280.296,181.567C280.296,181.567 280.795,177.867 280.795,177.867C280.816,177.713 280.764,177.557 280.654,177.447C280.544,177.337 280.389,177.284 280.235,177.304L278.347,177.553C278.347,177.553 274.01,177.902 274.01,177.902L256.852,179.552C256.651,179.572 256.482,179.71 256.422,179.903C256.363,180.095 256.425,180.305 256.58,180.434C257.532,181.227 258.392,182.969 259.217,185.629L259.914,188.368L260.362,190.309L260.509,190.997C260.509,190.997 260.708,192.089 260.708,192.089L261.2,192.5C261.2,192.5 260.712,192.109 260.712,192.109L260.816,192.577L260.859,192.746L260.904,193.063C260.909,193.101 260.918,193.135 260.929,193.167C260.92,193.142 260.913,193.116 260.908,193.089L261.006,193.63C261.006,193.63 261.954,200.265 261.954,200.265L262.203,202.357L262.753,207.251C262.753,207.251 263.002,209.994 263.002,209.994C263.002,209.994 263.402,214.692 263.402,214.692L263.9,215.15C263.9,215.15 263.405,214.723 263.405,214.723C263.405,214.723 263.446,215.05 263.453,215.103C263.506,215.531 263.95,215.55 263.95,215.55C263.95,215.55 264.15,215.55 264.15,215.55C264.15,215.55 264.15,217.25 264.15,217.25C264.15,217.526 264.374,217.75 264.65,217.75L265.989,217.75L266.2,220.37L266.2,220.382L266.155,220.472L266.202,220.549C266.217,220.728 266.314,220.836 266.418,220.902L266.466,220.98ZM277.437,209.313L277.444,209.278C277.439,209.311 277.43,209.343 277.419,209.374L277.437,209.313Z" style="fill-opacity:0.5;fill-rule:nonzero;"/>
            </g>
            <g transform="matrix(1,0,0,1,75.8,85.75)">
                <g>
                    <g id="Symbol_3_0_Layer0_0_FILL">
                        <path d="M10.6,62.85L10.4,62.75L11,61.6C9.967,61.933 9.15,62.483 8.55,63.25L10.6,62.85M7.2,71.25L8.85,72.6C8.483,69.667 9.183,67.15 10.95,65.05L10.85,64.5L8.05,65.6C7.617,67.8 7.333,69.683 7.2,71.25M11.15,60.8L11.3,60.25L9.05,59.55L8.65,62.6L8.55,63.25C9.05,61.95 9.917,61.133 11.15,60.8M11.55,59.2C10.517,58.833 10.367,57.817 11.1,56.15L10.85,56.1L9.15,56.8L9.05,59.55L11.55,59.2M10.9,54.7L10.85,54.5C9.883,54.033 9.883,53.3 10.85,52.3C10.183,52.4 9.5,52.6 8.8,52.9L8.8,53.05L8.85,53.2L8.95,54.35L8.95,54.55L10.9,54.7M8.9,47.25L8,47.85L8.5,50.8L10.8,51C9.8,50.3 9.183,49.067 8.95,47.3L8.9,47.25Z" style="fill:#600;fill-rule:nonzero;"/>
                        <path d="M8.55,63.25L8.05,65.6L10.85,64.5L10.95,64.45L11.1,64.4C12.9,63.8 14.55,63.45 16.05,63.35C14.683,62.75 12.867,62.583 10.6,62.85L8.55,63.25M8.85,72.6L7.2,71.25C7.5,73.217 7.85,75.017 8.25,76.65C9.45,80.817 10.85,82.9 12.45,82.9C14.083,82.9 15.467,80.817 16.6,76.65C17.067,75.017 17.417,73.25 17.65,71.35C16.117,72.817 14.4,73.55 12.5,73.55L9.95,73.05L8.85,72.6M9.15,73.95L9.35,73.75C10.05,74.45 11.433,74.867 13.5,75C10.8,76.4 9.767,77.783 10.4,79.15C8.933,77.817 8.517,76.083 9.15,73.95M10.85,56.1L12.55,55.45L15.95,54.05L10.9,54.7L8.95,54.55L9.15,56.8L10.85,56.1M15.35,53.4C14.066,52.156 12.549,51.356 10.8,51L8.5,50.8L8.8,52.9C9.5,52.6 10.183,52.4 10.85,52.3C12.658,51.945 14.158,52.311 15.35,53.4M12.45,60.55L11.15,60.8C9.917,61.133 9.05,61.95 8.55,63.25C9.15,62.483 9.967,61.933 11,61.6L14.1,61.1L12.45,60.55M10.85,56.1L11.1,56.15C13.133,56.583 14.667,57.717 15.7,59.55L15.7,57.85L12.55,55.45L10.85,56.1M11.3,60.25L12.45,60.55L14.1,61.1L15.8,61.65L15.7,59.55L11.55,59.2L9.05,59.55L11.3,60.25M9.85,42.55L9.8,42.7L9.7,42.9C9.1,44.133 8.617,45.4 8.25,46.7L8,47.85L8.9,47.25C10,46.583 11.2,46.25 12.5,46.25C13.4,46.25 14.283,46.433 15.15,46.8C13.983,45.333 13.783,43.7 14.55,41.9L14.55,41.85C13.917,40.917 13.15,40.45 12.25,40.45C11.35,40.45 10.55,41.133 9.85,42.5C9.55,41 9.933,39.983 11,39.45L9.55,39.45L9.8,42.55L9.85,42.55M12,41.75C10.9,42.95 11.05,44.267 12.45,45.7C10.783,44.733 9.717,44.783 9.25,45.85C9.25,44.217 10.167,42.85 12,41.75M7.75,37.25L7.75,39.45L11,39.45C10.233,39.283 9.75,38.55 9.55,37.25L7.75,37.25Z" style="fill-rule:nonzero;"/>
                        <path d="M8.85,72.6L9.95,73.05L12.5,73.55C14.4,73.55 16.117,72.817 17.65,71.35C17.583,69.25 17.1,66.75 16.2,63.85L16.05,63.35C14.55,63.45 12.9,63.8 11.1,64.4L10.95,64.45L10.85,64.5L10.95,65.05C9.183,67.15 8.483,69.667 8.85,72.6M12.55,55.45L15.7,57.85L15.95,54.05L12.55,55.45M14.1,61.1L11,61.6L10.4,62.75L10.6,62.85C12.867,62.583 14.683,62.75 16.05,63.35L15.8,61.65L14.1,61.1M12.45,60.55L11.3,60.25L11.15,60.8L12.45,60.55M11.1,56.15C10.367,57.817 10.517,58.833 11.55,59.2L15.7,59.55C14.667,57.717 13.133,56.583 11.1,56.15M15.45,53.5L15.35,53.4C14.158,52.311 12.658,51.945 10.85,52.3C9.883,53.3 9.883,54.033 10.85,54.5L10.9,54.7L15.95,54.05L15.95,54L15.45,53.5M8.9,47.25L8.95,47.3C9.183,49.067 9.8,50.3 10.8,51C12.549,51.356 14.066,52.156 15.35,53.4L15.95,54L15.95,54.05L16,54L16.15,52.45C16.283,50.45 15.95,48.567 15.15,46.8C14.283,46.433 13.4,46.25 12.5,46.25C11.2,46.25 10,46.583 8.9,47.25Z" style="fill:#630;fill-rule:nonzero;"/>
                        <path d="M9.35,73.75L9.15,73.95C8.517,76.083 8.933,77.817 10.4,79.15C9.767,77.783 10.8,76.4 13.5,75C11.433,74.867 10.05,74.45 9.35,73.75M12.45,39.45L11,39.45C9.933,39.983 9.55,41 9.85,42.5C10.55,41.133 11.35,40.45 12.25,40.45C13.15,40.45 13.917,40.917 14.55,41.85C15.15,41.15 14.917,40.35 13.85,39.45L12.45,39.45M11,39.45L12.45,39.45C14.617,39.183 15.35,38.45 14.65,37.25L9.55,37.25C9.75,38.55 10.233,39.283 11,39.45M12.45,45.7C11.05,44.267 10.9,42.95 12,41.75C10.167,42.85 9.25,44.217 9.25,45.85C9.717,44.783 10.783,44.733 12.45,45.7M9.85,42.55L9.8,42.65L9.8,42.7L9.85,42.55M18.3,16.5L18.9,14.55C15.5,13.083 12.517,11.25 9.95,9.05L18.3,16.5M5.55,22.4L5.8,24.5C9.033,25.1 13.517,27.233 19.25,30.9L20.05,31.4L19.35,30.6L16.65,27.45C13.117,26.55 9.417,24.867 5.55,22.4M2.5,3.3L2.4,3.85C2.4,4.217 2.533,4.5 2.8,4.7C3,4.967 3.283,5.1 3.65,5.1C3.95,5.1 4.233,4.967 4.5,4.7L4.45,4.65C3.55,4.983 2.9,4.533 2.5,3.3M5.45,9.85L5.2,9.6L3.5,10.45L5.45,9.85M18.55,5.6L17.9,3.15L5.2,9.6L5.45,9.85L9.4,8.55C12.467,6.817 15.517,5.833 18.55,5.6Z" style="fill:#333;fill-rule:nonzero;"/>
                        <path d="M16.85,47.8C16.317,47.4 15.75,47.067 15.15,46.8C15.95,48.567 16.283,50.45 16.15,52.45L16.85,47.8M16.6,46.7L15.9,44.55C16.3,45.917 16.05,46.667 15.15,46.8C15.75,47.067 16.317,47.4 16.85,47.8L16.6,46.7M17,37.45L17,37.25L14.65,37.25C15.35,38.45 14.617,39.183 12.45,39.45L17,39.45L17,37.45M19.85,35.65L19.25,35.6C18.817,36.433 18.2,36.35 17.4,35.35C17.833,36.85 16.817,37.183 14.35,36.35C14.217,36.917 13.4,37.217 11.9,37.25L19.8,37.25L19.85,35.7L19.85,35.65M19.8,28.4L20.15,29.85L20.4,27.1L20.4,26.65L20.75,22.3C19.95,23.167 19.133,23.433 18.3,23.1C19.667,24.367 20.167,26.133 19.8,28.4M21.5,0.25C22.133,0.317 22.383,1.167 22.25,2.8C21.85,8.767 21.133,13.7 20.1,17.6C20.967,17.867 20.633,18.517 19.1,19.55C20.167,18.917 20.717,19.833 20.75,22.3L20.95,20.2L21.65,13.5L22.15,9.3L22.9,3.7L23.4,0L21.5,0.25Z" style="fill:#c00;fill-rule:nonzero;"/>
                        <path d="M15.05,42.55L14.85,42.2L14.55,41.9C13.783,43.7 13.983,45.333 15.15,46.8C16.05,46.667 16.3,45.917 15.9,44.55L15.05,42.55M14.85,42.2L15.05,42.55L15.3,39.45L13.85,39.45C14.917,40.35 15.15,41.15 14.55,41.85L14.55,41.9L14.85,42.2M17.6,33.05L17.6,33C13.667,34 9.917,32.8 6.35,29.4L6.6,32.15L7,36.85L7.05,37.25L11.9,37.25C13.4,37.217 14.217,36.917 14.35,36.35C11.183,36.017 8.7,34.667 6.9,32.3C10.1,34.033 13.667,34.3 17.6,33.1L17.6,33.05M20.05,31.4L19.25,31.9C19.683,33 19.683,34.017 19.25,34.95L19.25,35.6L19.85,35.65L20.05,31.4M22.25,2.8C22.383,1.167 22.133,0.317 21.5,0.25L17.15,0.6L20.35,0.8L17.9,3.15L18.55,5.6C21.217,-0.367 21.717,1.267 20.05,10.5C20.55,15.233 20.167,16.583 18.9,14.55L18.3,16.5C19.567,17.233 19.283,18.2 17.45,19.4C20.283,23.4 16.283,20.217 5.45,9.85L3.5,10.45L3.95,12.4C3.717,9.867 7.933,13.15 16.6,22.25L11.35,20.25L18.2,24.65L16.65,27.45L19.35,30.6L20.1,31.1L20.1,30.75C20.067,30.017 19.75,29.55 19.15,29.35L19.8,28.4C20.167,26.133 19.667,24.367 18.3,23.1C19.133,23.433 19.95,23.167 20.75,22.3C20.717,19.833 20.167,18.917 19.1,19.55C20.633,18.517 20.967,17.867 20.1,17.6C21.133,13.7 21.85,8.767 22.25,2.8Z" style="fill:#f00;fill-rule:nonzero;"/>
                        <path d="M17.6,33L17.6,33.05L17.75,33.1L17.6,33M19.25,31.9C19.15,32.8 18.8,33.233 18.2,33.2C18.667,33.4 19.017,33.983 19.25,34.95C19.683,34.017 19.683,33 19.25,31.9M20.05,31.4L20.1,31.1L19.35,30.6L20.05,31.4M19.8,28.4L19.15,29.35C19.75,29.55 20.067,30.017 20.1,30.75L20.15,29.85L19.8,28.4M2.8,7.7L3.5,10.45L5.2,9.6L2.8,7.7Z" style="fill:#ccc;fill-rule:nonzero;"/>
                        <path d="M18.2,33.2C18.8,33.233 19.15,32.8 19.25,31.9L20.05,31.4L19.25,30.9C13.517,27.233 9.033,25.1 5.8,24.5L6.35,29.4C9.917,32.8 13.667,34 17.6,33L17.75,33.1L17.6,33.05L17.6,33.1C13.667,34.3 10.1,34.033 6.9,32.3C8.7,34.667 11.183,36.017 14.35,36.35C16.817,37.183 17.833,36.85 17.4,35.35C18.2,36.35 18.817,36.433 19.25,35.6L19.25,34.95C19.017,33.983 18.667,33.4 18.2,33.2M4.6,15.75L5.55,22.4C9.417,24.867 13.117,26.55 16.65,27.45L18.2,24.65L11.35,20.25L16.6,22.25C7.933,13.15 3.717,9.867 3.95,12.4L4.1,13.1L4.3,14.2L4.4,14.65L4.45,14.85L4.5,15.2L4.6,15.75M0,2.25C1,3.083 1.933,4.9 2.8,7.7L5.2,9.6L17.9,3.15L20.35,0.8L17.15,0.6L0,2.25M2.8,3C3,2.767 3.283,2.65 3.65,2.65C3.95,2.65 4.233,2.767 4.5,3C4.733,3.233 4.85,3.517 4.85,3.85L4.6,4.6L4.5,4.7C4.233,4.967 3.95,5.1 3.65,5.1C3.283,5.1 3,4.967 2.8,4.7C2.533,4.5 2.4,4.217 2.4,3.85L2.5,3.3L2.8,3M9.4,8.55L5.45,9.85C16.283,20.217 20.283,23.4 17.45,19.4C19.283,18.2 19.567,17.233 18.3,16.5L9.95,9.05C12.517,11.25 15.5,13.083 18.9,14.55C20.167,16.583 20.55,15.233 20.05,10.5C21.717,1.267 21.217,-0.367 18.55,5.6C15.517,5.833 12.467,6.817 9.4,8.55Z" style="fill:#666;fill-rule:nonzero;"/>
                    </g>
                    <path id="Symbol_3_0_Layer0_0_1_STROKES" d="M20.75,22.3L20.95,20.2L21.65,13.5L22.15,9.3L22.9,3.7L23.4,0L21.5,0.25L17.15,0.6M3.95,12.4L3.5,10.45M20.1,30.75L20.1,31.1M20.75,22.3L20.4,26.65L20.4,27.1L20.15,29.85L20.1,30.75M4.6,4.6L4.85,3.85C4.85,3.517 4.733,3.233 4.5,3C4.233,2.767 3.95,2.65 3.65,2.65C3.283,2.65 3,2.767 2.8,3L2.5,3.3C2.9,4.533 3.55,4.983 4.45,4.65L4.6,4.6L4.5,4.7C4.233,4.967 3.95,5.1 3.65,5.1C3.283,5.1 3,4.967 2.8,4.7C2.533,4.5 2.4,4.217 2.4,3.85L2.5,3.3M3.5,10.45L2.8,7.7C1.933,4.9 1,3.083 0,2.25L17.15,0.6M5.2,9.6L5.45,9.85M5.8,24.5L5.55,22.4L4.6,15.75L4.5,15.2L4.45,14.85L4.4,14.65L4.3,14.2L4.1,13.1L3.95,12.4M20.1,31.1L20.05,31.4L19.85,35.65L19.85,35.7L19.8,37.25L17.1,37.25L17,37.45L17,39.45L15.3,39.45L15.05,42.55L15.9,44.55L16.6,46.7L16.85,47.8L16.15,52.45L16,54L15.95,54.05L15.7,57.85L15.7,59.55L15.8,61.65L16.05,63.35L16.2,63.85C17.1,66.75 17.583,69.25 17.65,71.35C17.417,73.25 17.067,75.017 16.6,76.65C15.467,80.817 14.083,82.9 12.45,82.9C10.85,82.9 9.45,80.817 8.25,76.65C7.85,75.017 7.5,73.217 7.2,71.25C7.333,69.683 7.617,67.8 8.05,65.6L8.55,63.25L8.65,62.6L9.05,59.55L9.15,56.8L8.95,54.55L8.95,54.35L8.85,53.2L8.8,53.05L8.8,52.9L8.5,50.8L8,47.85L8.25,46.7C8.617,45.4 9.1,44.133 9.7,42.9L9.8,42.7L9.8,42.55L9.55,39.45L7.75,39.45L7.75,37.25L7.05,37.25L7,36.85L6.6,32.15L6.35,29.4L5.8,24.5M9.55,37.25L7.75,37.25M8,47.85L8.9,47.25C10,46.583 11.2,46.25 12.5,46.25C13.4,46.25 14.283,46.433 15.15,46.8M14.55,41.9L14.55,41.85C13.917,40.917 13.15,40.45 12.25,40.45C11.35,40.45 10.55,41.133 9.85,42.5M11,39.45L9.55,39.45M10.8,51C12.549,51.356 14.066,52.156 15.35,53.4L15.95,54L15.95,54.05L12.55,55.45L15.7,57.85M17.1,37.25L17,37.25L17,37.45M11,39.45L12.45,39.45M14.65,37.25L9.55,37.25M14.55,41.9L14.85,42.2L15.05,42.55M12.45,39.45L15.3,39.45M14.65,37.25L17,37.25M15.15,46.8C15.75,47.067 16.317,47.4 16.85,47.8M10.9,54.7L15.95,54.05M11.1,56.15L10.85,56.1L9.15,56.8M11.15,60.8L12.45,60.55L11.3,60.25M11.15,60.8C9.917,61.133 9.05,61.95 8.55,63.25C9.15,62.483 9.967,61.933 11,61.6L14.1,61.1L12.45,60.55M15.35,53.4C14.158,52.311 12.658,51.945 10.85,52.3C10.183,52.4 9.5,52.6 8.8,52.9M12.55,55.45L10.85,56.1M15.7,59.55L11.55,59.2L9.05,59.55L11.3,60.25M11.1,56.15C13.133,56.583 14.667,57.717 15.7,59.55M15.8,61.65L14.1,61.1M7.2,71.25L8.85,72.6L9.95,73.05L12.5,73.55C14.4,73.55 16.117,72.817 17.65,71.35M10.6,62.85C12.867,62.583 14.683,62.75 16.05,63.35C14.55,63.45 12.9,63.8 11.1,64.4L10.95,64.45L10.85,64.5M8.5,50.8L10.8,51M8.95,54.55L10.9,54.7M10.6,62.85L8.55,63.25M8.05,65.6L10.85,64.5" style="fill:none;fill-rule:nonzero;stroke:#000;stroke-opacity:0.4;stroke-width:1px;"/>
                </g>
            </g>
        </g>
    </g>
</svg>
