<?xml version="1.0" encoding="UTF-8"?>
<svg version="1.1" viewBox="0 0 46.993 43.621" xmlns="http://www.w3.org/2000/svg" xmlns:cc="http://creativecommons.org/ns#" xmlns:dc="http://purl.org/dc/elements/1.1/" xmlns:rdf="http://www.w3.org/1999/02/22-rdf-syntax-ns#" xmlns:xlink="http://www.w3.org/1999/xlink">
<metadata>
<rdf:RDF>
<cc:Work rdf:about="">
<dc:format>image/svg+xml</dc:format>
<dc:type rdf:resource="http://purl.org/dc/dcmitype/StillImage"/>
</cc:Work>
</rdf:RDF>
</metadata>
<g transform="translate(-251.53 -178.2)">
<use transform="translate(251.55,178.2)" width="46.950001" height="43.599998" xlink:href="#a"/>
</g>
<defs>
<g id="a">
<path d="m22.4 15.4v0.05l-0.1-0.1 0.1 0.05" fill="#81601b" fill-rule="evenodd"/>
<path d="m45.7 12.2v0.05l-0.05-0.25 0.05 0.2" fill="#455465" fill-rule="evenodd"/>
<path d="m45.7 12.2v0.05-0.05" fill="#735517" fill-rule="evenodd"/>
<path d="m22.5 15.2 0.05 0.05h-0.1l0.05-0.05" fill="#e8d082" fill-rule="evenodd"/>
<path d="m22.4 15.4-0.1-0.05 0.25-0.1-0.15 0.15m3.5 22.15 0.2 1.05-0.15-0.35-0.05-0.7" fill="#5e7188" fill-rule="evenodd"/>
<path d="m32.5 20.7-1.1 3.9-3.05 3.4h0.05l-0.55 0.6h-0.05l-0.4 0.4v0.05l-4.9 7.2-0.45 3.7-0.05-3.2v-0.15h-0.05l-0.05-0.5 2.15-3.3h-0.05l0.45-0.7 0.05-0.05 2.3-3.55 2.25-2.15 0.75-0.7h0.05l1.05-1.05 1.6-3.9" fill="#b85445" fill-rule="evenodd"/>
<path d="m11.45 0 0.2 0.05 3.5 3-2.9 3.45q0.6 1.15 2.05 1.6-2.35 0.55-2.9-1.3 1.65-1.65 2.7-3.65-1.1-1.65-2.65-3.15" fill="#c9d9cf" fill-opacity=".66274" fill-rule="evenodd"/>
<path d="m0.4 9.65q3.95-1.7 6.75-4.7-0.55-1-2.25-1.45h0.1l-0.05-0.1 5.15 0.8q-4.15 2.1-6.65 5.25 2.45 3.55 6.95 4.65-3.15 2.9-7.4 2.55l1.15-1.95q0.85-1.9-3.75-5.05" fill="#c8d8ce" fill-rule="evenodd"/>
<path d="m42.65 7.25 0.45 0.45 0.45 0.5 2.1 3.5v0.3l0.05 0.25 0.1 2.85q-0.15 2.5-3.3 8.8l-0.75 1.35-3.3 5q0.7-3.3-0.75-7.85l-0.05-0.15q0.95-1.5 0.75-4.3-0.2-3.45-2.25-5.95-2.7-2.05-6.3-0.5-0.2-1.2-1.25-2.25-0.55-0.55-1.25-1.05l0.4-0.65-0.4 0.65q-5.25 1.1-4.2 6.3l-0.65 0.7-0.05 0.05-0.15 0.1 0.1 0.1q-2.45 3.2-9.5 6.3l2.25 1.2q-1.2-0.5-3.05 0.25-1.5 1-1.7 2.75v0.65q-5.2 0.85-10.35-4.6-0.25-1.45 0.95-2.55l0.25-0.3 5.85 1.55 0.8-1.3 0.2 0.1 0.15-0.3 1.9-0.3q6.2-7.45 12.65-12.3l0.35-0.25q5.3-2.55 9.65-2.9l0.25 0.15 0.6 0.35-0.7 0.8-0.45 0.7 2.15-1.1 2.1 1.4-1-1.85 0.25-0.2 2.2 0.75h-1.05l0.2 0.1 0.35 0.25 0.15 0.1 0.4 0.3-0.55 0.55q-0.35 0.3-0.35 0.5l1.6-0.7 1.45 1.15-0.6-1.4 0.05-0.05q1.35 0.75 2.4 1.65l-0.7 0.35-1.05-0.9 0.1 0.2 0.15 0.6 0.1 0.45-0.75 0.05-0.6 0.2 1.65 0.5 0.4 1.8 0.45-1.45 1 0.05-0.7-0.8 0.35-0.7m-5.9 24.6-1.6 1.65-3.45 3.25q-1.6 1.7-2.45 3.9l-0.3-0.05q-2.3-1.1-2.85-2l-0.2-1.05q0.2-1.2 1.7-3.3 2.4-3.4 5.5-6.15 2.25 1.05 3.65 3.75m-16-17.5q0.25 1.75 1.25 1.2l0.3-0.2-0.3 0.2q-1 0.55-1.25-1.2m-9.2 6.7 1.35 0.7-1.35-0.7m29.45-4.65-2.55-0.65q1.3 1.05 2.55 0.65m0.95-1.9-3.3 0.6q2.25 0.55 3.3-0.6m-0.3-2.7-3.1 2.55q2.8-0.7 3.1-2.55" fill="#92581f" fill-rule="evenodd"/>
<path d="m38.45 30.25-0.65 3.95-1.05-2.35q-1.4-2.7-3.65-3.75-3.1 2.75-5.5 6.15-1.5 2.1-1.7 3.3l0.05 0.7 0.15 0.35q-0.45 3 0.8 4.75l-2.8-0.45q-3.1-1-4.25-1.85-0.35-1.8 0.45-3.45l0.25-0.55 0.2-0.3 0.35-0.6 0.6-1 1.8-2.7 1.35-1.9 1.45-1.75 0.1-0.15 0.2-0.5q0.6-1.7 0.3-3.85l0.25-0.5q1.2-2.45 1-3.15l0.8-0.35-0.95-1.3-8.55 3.2-3.35 1.25-0.2-0.1-0.7-0.4h-0.05l-2.25-1.2q7.05-3.1 9.5-6.3v-0.05l0.15-0.15q5.15 1.05 7.15-2.15l0.15-1.6q3.6-1.55 6.3 0.5 2.05 2.5 2.25 5.95 0.2 2.8-0.75 4.3l0.05 0.15q1.45 4.55 0.75 7.85m-2.55-15.55-0.15 1.75-1.35-1.5-0.05 2.3-1.4-1.25-2.2 1.35-0.55 2.35 1.9-1 0.25-0.15 0.85-0.5 0.7-0.35 0.9 1.1 0.05-1.65 0.4-0.2 0.65 1.25 0.05-1.7 0.1-0.05-0.15-1.75m-3.4 6-1.6 3.9-1.05 1.05h-0.05l-0.75 0.7-2.25 2.15-2.3 3.55-0.05 0.05-0.45 0.7h0.05l-2.15 3.3 0.05 0.5h0.05v0.15l0.05 3.2 0.45-3.7 4.9-7.2v-0.05l0.4-0.4h0.05l0.55-0.6h-0.05l3.05-3.4 1.1-3.9m-4 7.85v-0.05h-0.05l0.05 0.05" fill="#d17e2c" fill-rule="evenodd"/>
<path d="m19.85 41.05-0.7-0.7q-0.35-0.7 0.15-2.2l0.65-1.6 0.4-0.85 0.05-0.1 0.7-1.35 3.75-6.25 0.7-1.25 1.35-2.45q0.3 2.15-0.3 3.85l-0.2 0.5-0.1 0.15-1.45 1.75-1.35 1.9-1.8 2.7-0.6 1-0.35 0.6-0.2 0.3-0.25 0.55q-0.8 1.65-0.45 3.45" fill="#db9651" fill-rule="evenodd"/>
<path d="m29.25 40.65 1.1 0.45 3.6 1q1.05 0.05 2.35-1-1.25-1.1-0.6-2.9 0.45-1.3 1.45-1.65-0.4 1.6 0.9 2.65l4.3 0.2q-0.6 1.5-1.9 2.2-1.65 0.9-2.95 0.4-0.9 0.85-1.4 1.05l-2.75 0.45q-3.1 0.25-6.45-0.15-1.25-1.75-0.8-4.75 0.55 0.9 2.85 2l0.25 0.1 0.05-0.05" fill="#b76f26" fill-rule="evenodd"/>
<path d="m45.65 11.7-2.1-3.5-0.45-0.5-0.45-0.45 0.4-0.7-0.1 0.05-0.7 0.3q-1.05-0.9-2.4-1.65l0.75-0.55-1.05-0.15-0.3-1.55-0.05 0.1-0.65 1.35h-0.35l-2.2-0.75 0.8-0.7-1.45-0.1-0.6-1.95q3.05 0.6 5.65 2.55 2.45 1.9 3.8 4.3 1.3 2.35 1.45 3.9m-44.4 7.45q1.2-1.3 2.9-0.8l3.75 1.05-0.8 1.3-5.85-1.55m7 0.05q5.75-8.4 13.6-16.05 5.45-3.3 11.8-2.4l1.05 0.2-0.75 1.95-1.9 0.15 0.25 0.15 0.5 0.25q-4.35 0.35-9.65 2.9l-0.35 0.25q-6.45 4.85-12.65 12.3l-1.9 0.3" fill="#d78c42" fill-rule="evenodd"/>
<path d="m28.15 20.65q-3.95 1.65-8.3 2.45l-0.4-0.9 8.55-3.2 0.95 1.3-0.8 0.35m4.8-4.65 1.4 1.25 0.05-2.3 1.35 1.5 0.15-1.75 0.15 1.75-0.1 0.05-0.05 1.7-0.65-1.25-0.4 0.2-0.05 1.65-0.9-1.1-0.7 0.35-0.85 0.5-0.25 0.15-1.9 1 0.55-2.35 2.2-1.35" fill="#ba7127" fill-rule="evenodd"/>
<path d="m42.5 23.9q3.15-6.3 3.3-8.8l-0.1-2.85q1.2 5 1.25 8.3 0 3.35-0.9 9.9l-1.8-1.8q0.55-0.3 1.05-0.55 0-1.75-0.8-2.95-0.85-1.25-2-1.25m-17.65 4.1-4.55-0.1q5.65-4.5 6.65-4.25l0.2 0.15-0.25 0.5-1.35 2.45-0.7 1.25m-8.75-4.55 0.15 0.1q0.8 0.75 0.55 2.35-0.35 1.8-1.8 2.7-2.15 1.15-3.05 0.7l-0.2 0.05q-3.3 0.45-6.35-1.2-2.45-1.35-4.95-4.95l-0.4-1.2q5.15 5.45 10.35 4.6v-0.65q0.2-1.75 1.7-2.75 1.85-0.75 3.05-0.25h0.05l0.7 0.4 0.2 0.1m11.25-15.25q0.7 0.5 1.25 1.05 1.05 1.05 1.25 2.25l-0.15 1.6q-2 3.2-7.15 2.15l-0.05-0.05 0.65-0.7q-1.05-5.2 4.2-6.3m-15.4 21.1q-1.4-0.7-1.55-2.7 0.15 2 1.55 2.7m26.5-13.55 2.55 0.65q-1.25 0.4-2.55-0.65m0.2-0.65 3.3-0.6q-1.05 1.15-3.3 0.6m-0.1-0.75 3.1-2.55q-0.3 1.85-3.1 2.55" fill="#8f3921" fill-rule="evenodd"/>
<path d="m34.75 0.95 0.6 1.95 1.45 0.1-0.8 0.7-0.25 0.2 1 1.85-2.1-1.4-2.15 1.1 0.45-0.7 0.7-0.8-0.6-0.35-0.25-0.15-0.5-0.25-0.25-0.15 1.9-0.15 0.75-1.95 0.05-0.1v0.1m3.45 3.5h0.35l0.65-1.35 0.05-0.1 0.3 1.55 1.05 0.15-0.75 0.55-0.05 0.05 0.6 1.4-1.45-1.15-1.6 0.7q0-0.2 0.35-0.5l0.55-0.55-0.4-0.3-0.15-0.1-0.35-0.25-0.2-0.1h1.05m4.05 2.45 0.7-0.3 0.1-0.05-0.4 0.7-0.35 0.7 0.7 0.8-1-0.05-0.45 1.45-0.4-1.8-1.65-0.5 0.6-0.2 0.75-0.05-0.1-0.45-0.15-0.6-0.1-0.2 1.05 0.9 0.7-0.35" fill="#ecdd8a" fill-rule="evenodd"/>
<path d="m45.65 11.7q-0.15-1.55-1.45-3.9-1.35-2.4-3.8-4.3-2.6-1.95-5.65-2.55m10.95 11.3v-0.05m0 0.05-0.05-0.25v-0.3m0 0.3 0.05 0.2m0 0.05 0.1 2.85q-0.15 2.5-3.3 8.8 1.15 0 2 1.25 0.8 1.2 0.8 2.95-0.5 0.25-1.05 0.55l1.8 1.8q0.9-6.55 0.9-9.9-0.05-3.3-1.25-8.3m-3.2 11.65-0.75 1.35-3.3 5-0.65 3.95-1.05-2.35-1.6 1.65-3.45 3.25q-1.6 1.7-2.45 3.9l1.1 0.45 3.6 1q1.05 0.05 2.35-1-1.25-1.1-0.6-2.9 0.45-1.3 1.45-1.65-0.4 1.6 0.9 2.65l4.3 0.2q-0.6 1.5-1.9 2.2-1.65 0.9-2.95 0.4-0.9 0.85-1.4 1.05l-2.75 0.45q-3.1 0.25-6.45-0.15l-2.8-0.45q-3.1-1-4.25-1.85l-0.7-0.7q-0.35-0.7 0.15-2.2l0.65-1.6 0.4-0.85 0.05-0.1 0.7-1.35 3.75-6.25-4.55-0.1q5.65-4.5 6.65-4.25l0.2 0.15q1.2-2.45 1-3.15-3.95 1.65-8.3 2.45l-0.4-0.9-3.35 1.25 0.15 0.1q0.8 0.75 0.55 2.35-0.35 1.8-1.8 2.7-2.15 1.15-3.05 0.7l-0.2 0.05q-3.3 0.45-6.35-1.2-2.45-1.35-4.95-4.95l-0.4-1.2q-0.25-1.45 0.95-2.55l0.25-0.3q1.2-1.3 2.9-0.8l3.75 1.05 0.2 0.1 0.15-0.3q5.75-8.4 13.6-16.05 5.45-3.3 11.8-2.4l1.05 0.2m-7.35 7.25q0.7 0.5 1.25 1.05 1.05 1.05 1.25 2.25 3.6-1.55 6.3 0.5 2.05 2.5 2.25 5.95 0.2 2.8-0.75 4.3l0.05 0.15q1.45 4.55 0.75 7.85m-10.7-22.7-0.4 0.65q-5.25 1.1-4.2 6.3l-0.65 0.7m0.05 0.05q5.15 1.05 7.15-2.15l0.15-1.6m-7.45 3.9v0.05q-2.45 3.2-9.5 6.3l2.25 1.2h0.05l0.7 0.4 0.2 0.1m6.35-8.2-0.15 0.1 0.25-0.1-0.15 0.15m0.05-0.15 0.05-0.05m-0.2 0.15-0.3 0.2q-1 0.55-1.25-1.2m-1.3 7.85 8.55-3.2 0.95 1.3-0.8 0.35m-1 3.15-0.25 0.5-1.35 2.45-0.7 1.25m11.05-13.3-0.15 1.75-1.35-1.5-0.05 2.3-1.4-1.25m-2.2 1.35-0.55 2.35 1.9-1 0.25-0.15 0.85-0.5m-20.3 3.7-1.35-0.7m3.6 1.9q-1.2-0.5-3.05 0.25-1.5 1-1.7 2.75v0.65q0.15 2 1.55 2.7m13.95 8.25q0.2-1.2 1.7-3.3 2.4-3.4 5.5-6.15 2.25 1.05 3.65 3.75m-10.65 6.75q0.55 0.9 2.85 2l0.3 0.05-0.05 0.05-0.25-0.1m-2.85-2-0.15-0.35-0.05-0.7m15.1-21.15q-1.25 0.4-2.55-0.65m0.2-0.65q2.25 0.55 3.3-0.6m-0.3-2.7q-0.3 1.85-3.1 2.55" fill="none" stroke="#600" stroke-linecap="round" stroke-linejoin="round" stroke-opacity=".39216" stroke-width=".05"/>
</g>
</defs>
</svg>
