<?xml version="1.0" encoding="UTF-8"?>
<svg version="1.1" viewBox="0 0 213.3 211.7" xmlns="http://www.w3.org/2000/svg" xmlns:cc="http://creativecommons.org/ns#" xmlns:dc="http://purl.org/dc/elements/1.1/" xmlns:rdf="http://www.w3.org/1999/02/22-rdf-syntax-ns#" xmlns:xlink="http://www.w3.org/1999/xlink">
<metadata>
<rdf:RDF>
<cc:Work rdf:about="">
<dc:format>image/svg+xml</dc:format>
<dc:type rdf:resource="http://purl.org/dc/dcmitype/StillImage"/>
</cc:Work>
</rdf:RDF>
</metadata>
<g transform="translate(-170.8 -89.95)">
<use transform="translate(170.8,89.95)" width="213.3" height="211.7" xlink:href="#a"/>
</g>
<defs>
<g id="a" transform="translate(-170.8,-89.95)">
<path d="m350.45 90.25q-0.7 4.7-2.85 7.95-1.75-1.55-4.2-3.05l-1.75-0.65q4.15-3.05 8.8-4.25m-0.3 132.35q2.05 2.35 3.45 5.1l-5.85 1.15 2.4-6.25m-24.95-101.25 0.85 0.55-2.1 2.25-0.65-0.75-0.55-0.55 2-1.75 0.45 0.25m-21.85 158.7-0.7 3.8q-2.25-1.05-4.2-2.35l4.9-1.45m-128.2-4.05 0.65 1.7q1.4 2.2 2.85 3.8-3.6 2.85-7.55 3.3 1.1-4.6 4.05-8.8" fill="#edcffa" fill-rule="evenodd"/>
<path d="m347.6 98.2 0.1 0.1 0.25 0.2q2.85 3.55 1.9 5.95 1.35 5.85-8.65 8.55-5.9 0.3-6.3-6.15l0.05-0.3 0.2-0.85q0.7-3.25 3.15-3.55 2.6-0.3 5.75 3l0.35 0.4q-3.85 3.3-7.3 0.25l1.5 3.7q3.8 0.55 5.6-0.8 0.85-0.7 0.9-1.5 0-0.55-0.35-1.15 0.55 0 0.5-0.55-0.1-0.8-1.3-2.7-3-5.35-9.35-1.85l-0.3 0.3q-4 4.8-1.1 10.4l0.3 0.55 0.05 0.05-0.05 0.05-3.6 3.95 3.6-3.95 1.8 4.6-0.25 0.1-4.1 1.6 4.1-1.6 4.35 11.25 0.1 0.3 3.5 13.05 0.05 0.3q4.9 16.35 5.95 29.65v0.45l-1.15 1.95q1.25 11.95 0.35 19.85l2.3-3.6q-0.55 21.25-5.95 33.35l-1.85 1.65 0.5-1.5-4.6 5.45-1.35-4.2q6.8-15.6 8.05-34.7 2.3-34.5-14.35-71.65l-1.05-2.35-0.45-0.9-0.15-0.4q-4.65-10.05-0.2-16.75 4.2-6.25 12.55-3.7l1.75 0.65q2.45 1.5 4.2 3.05m-149.95 165.95q9.8 4.2 19.45 7.05 27.2 7.45 51.4 4.3 15.55-2.05 28.35-8.15 2.4 2.25 5.5 3l-16.35 8.9-12.05 0.95q-10.65 2.35-22.6 2.25h-2l-0.5-0.05-10.25-0.35q-21.1-3-41.8-13.2l-4.75-2.15-0.1 0.1-0.45-0.15q-5.65-2-9.15 2.7-3.6 4.85 0.45 8.5 2.75 1.3 4.5 1.2h0.05q1.1 0.3 1.95-0.9 0.9-1.3 0.9-3.5-2.05 2.95-6.6 0.9-1.05-1.65-0.9-3.1 0.2-2.45 3.4-3.25l4.15-0.55q3 0.1 4.5 2.15l0.75 1.45q-0.3 9.1-3.25 10.05-6.7 2.4-13.55-0.8h-0.05q-1.45-1.6-2.85-3.8l-0.65-1.7q-2.8-8.3 3.3-12.6 6.6-4.65 16.7-0.25l-3.1 3.55 3.1-3.55 0.45 0.15 2.05 0.85-0.85 4.7 0.85-4.7m149.2-63.7q0.9-2.85 1.35-6.65-0.45 3.8-1.35 6.65m0.95-27.05 0.05 0.55-0.05-0.55m-75 104.2q-6.6 1.95-11.75 1.9 5.15 0.05 11.75-1.9m13.55-1.1q-5.95 2.3-12.4 3.7 6.45-1.4 12.4-3.7m-96.35-4.2 0.2 2.35-0.2-2.35m35.1 4.5q15.35 3.4 31.55 3.5-16.2-0.1-31.55-3.5" fill="#775b33" fill-rule="evenodd"/>
<path d="m347.7 98.3-0.1-0.1q2.15-3.25 2.85-7.95l0.55-0.15q0.35 5.45-1.2 10.5l-1.85-2.1-0.25-0.2m-0.3 121.5 2.75 2.8-2.4 6.25-3.65 0.15q1.85-4.5 3.3-9.2m-44.15 54.35q0.35 3 0.1 5.9l-4.9 1.45q-2.25-1.5-4.15-3.35 4.6-1.75 8.95-4m-124.6 7.35h0.05q1.3 1.5 2.75 2.45-5 1.7-10.5 1.5l0.15-0.65q3.95-0.45 7.55-3.3" fill="#af87be" fill-rule="evenodd"/>
<path d="m347.95 98.5 1.85 2.1q2.15 2.9 2.55 6.25 0.7 7.45-9.55 8.7-5.8 0.2-7.45-3.1l1.6 3.75q17.4 41.25 15.05 77.3-0.9 14-4.6 26.2v0.1q-1.45 4.7-3.3 9.2l-1.7 3.9q-2.65 5.6-5.95 10.75l-4.35-8.65q2.85-4.85 5.15-10.05l1.35 4.2 4.6-5.45-0.5 1.5 1.85-1.65q5.4-12.1 5.95-33.35l-2.3 3.6q0.9-7.9-0.35-19.85l1.15-1.95v-0.45q-1.05-13.3-5.95-29.65l-0.05-0.3-3.5-13.05-0.1-0.3-4.35-11.25 0.25-0.1-1.8-4.6 0.05-0.05-0.05-0.05-0.3-0.55q-2.9-5.6 1.1-10.4l0.3-0.3q6.35-3.5 9.35 1.85 1.2 1.9 1.3 2.7 0.05 0.55-0.5 0.55 0.35 0.6 0.35 1.15-0.05 0.8-0.9 1.5-1.8 1.35-5.6 0.8l-1.5-3.7q3.45 3.05 7.3-0.25l-0.35-0.4q-3.15-3.3-5.75-3-2.45 0.3-3.15 3.55l-0.2 0.85-0.05 0.3q0.4 6.45 6.3 6.15 10-2.7 8.65-8.55 0.95-2.4-1.9-5.95m-3.2 7.55-0.35-0.5 0.35 0.5m-9.85 0.8q-0.4 2.3-0.1 4-0.3-1.7 0.1-4m-1.35 5.4 1.25-1.4-1.25 1.4m3.4 3.95-1.65 0.7 1.65-0.7m-2.15-5.35q0.15 0.9 0.55 1.6-0.4-0.7-0.55-1.6m-24.7 159.3-6.85 4q-4.35 2.25-8.95 4-10.65 4.05-22.85 5.7-25.4 3.35-53.85-4.55-10.55-3.15-21.25-7.8l-1.35-0.6-0.25-0.1q-1.5-2.05-4.5-2.15l-4.15 0.55q-3.2 0.8-3.4 3.25-0.15 1.45 0.9 3.1 4.55 2.05 6.6-0.9 0 2.2-0.9 3.5-0.85 1.2-1.95 0.9h-0.05q-1.75 0.1-4.5-1.2-4.05-3.65-0.45-8.5 3.5-4.7 9.15-2.7l0.45 0.15 0.1-0.1 4.75 2.15q20.7 10.2 41.8 13.2l10.25 0.35 0.5 0.05h2q11.95 0.1 22.6-2.25l12.05-0.95 16.35-8.9 0.55 0.15 7.2-0.35m32.75-43.3 1.7-3.3-1.7 3.3m-164.15 54.65q6.85 3.2 13.55 0.8 2.95-0.95 3.25-10.05 0.65 1.7 0.65 4.3-1.05 10.25-8.45 9.75-3.35-0.3-6.25-2.35-1.45-0.95-2.75-2.45m13.25-14.7-1.7 1.85 1.7-1.85m-8.35 8.75q0.75 1.25 2.2 2.55 0.8 0.75 1.5 0.95-0.7-0.2-1.5-0.95-1.45-1.3-2.2-2.55m13.2-6.7-0.45 2.65 0.45-2.65" fill="#6a522d" fill-rule="evenodd"/>
<path d="m296.85 267.35q14.75-7.1 25.85-19.6 5.3-6 9.4-12.75l4.35 8.65q-3.7 5.65-8.2 10.8-8.15 9.25-18.15 15.7l-7.2 0.35-0.55-0.15q-3.1-0.75-5.5-3" fill="#372b17" fill-rule="evenodd"/>
<path d="m347.7 98.3 0.25 0.2 1.85 2.1q1.55-5.05 1.2-10.5l-0.55 0.15q-4.65 1.2-8.8 4.25-8.35-2.55-12.55 3.7-4.45 6.7 0.2 16.75l0.15 0.4 0.45 0.9 1.05 2.35q16.65 37.15 14.35 71.65-1.25 19.1-8.05 34.7m10.35-126.75q-1.75-1.55-4.2-3.05l-1.75-0.65m3.45 12.7q-0.05 0.8-0.9 1.5-1.8 1.35-5.6 0.8m5.8-3.95-0.35-0.4q-3.15-3.3-5.75-3-2.45 0.3-3.15 3.55l-0.2 0.85m9.45-1 0.35 0.5m5.05-5.45q2.15 2.9 2.55 6.25 0.7 7.45-9.55 8.7-5.8 0.2-7.45-3.1l1.6 3.75q17.4 41.25 15.05 77.3-0.9 14-4.6 26.2v0.1l2.75 2.8q2.05 2.35 3.45 5.1l-5.85 1.15-3.65 0.15-1.7 3.9q-2.65 5.6-5.95 10.75-3.7 5.65-8.2 10.8-8.15 9.25-18.15 15.7l-6.85 4q0.35 3 0.1 5.9l-0.7 3.8q-2.25-1.05-4.2-2.35-2.25-1.5-4.15-3.35-10.65 4.05-22.85 5.7-25.4 3.35-53.85-4.55m117.2-168.45q-0.3-1.7 0.1-4m-117.8 164.35q27.2 7.45 51.4 4.3 15.55-2.05 28.35-8.15 14.75-7.1 25.85-19.6 5.3-6 9.4-12.75 2.85-4.85 5.15-10.05m-1.9-112.5q-0.4-0.7-0.55-1.6m9.3 118.15q1.85-4.5 3.3-9.2m-53.1 58.35q4.6-1.75 8.95-4m-108.1-11q-10.1-4.4-16.7 0.25-6.1 4.3-3.3 12.6l0.65 1.7q1.4 2.2 2.85 3.8h0.05m16.8-9.25-0.75-1.45q-1.5-2.05-4.5-2.15l-4.15 0.55q-3.2 0.8-3.4 3.25-0.15 1.45 0.9 3.1m6.6-0.9-0.2-2.35m-2.7 6.75q-0.7-0.2-1.5-0.95-1.45-1.3-2.2-2.55m11.4-4.65-0.25-0.1m0.85-7.5-0.45-0.15m-20 12.85q-2.95 4.2-4.05 8.8l-0.15 0.65q5.5 0.2 10.5-1.5-1.45-0.95-2.75-2.45m8.6-2.45h0.05q1.1 0.3 1.95-0.9 0.9-1.3 0.9-3.5m-8.75 9.3q2.9 2.05 6.25 2.35 7.4 0.5 8.45-9.75 0-2.6-0.65-4.3" fill="none" stroke="#000" stroke-linecap="round" stroke-linejoin="round" stroke-width=".3"/>
<path d="m329.9 116.25 3.6-3.95 0.05-0.05m-8.35 9.1 0.85 0.55-2.1 2.25-0.65-0.75-122.85 133.9 0.5 0.4-1.3 2.1-0.85-0.65-0.3 0.35-0.85 4.65q9.8 4.2 19.45 7.05m106.2-147.8-0.55-0.55 2-1.75 0.45 0.25 0.75-0.8 3.95-4.3m1.05 2.35 4.1-1.6 0.25-0.1 1.65-0.7m-11 4.35 5-1.95m3.85-7.75-1.25 1.4m-115.95 167.05q-10.55-3.15-21.25-7.8l-0.15 0.55m4.25-14.75-0.55-0.35-1.6 1.8 0.5 0.4m-6.85 7.65 0.1-0.1 3.1-3.55 3.35-3.65m-8.25 9.15 1.7-1.85m4.4 4.7-1.35-0.6m1.35 0.6 0.45-2.65 0.85-4.7-2.05-0.85" fill="none" stroke="#000" stroke-linecap="round" stroke-linejoin="round" stroke-width=".3"/>
<path d="m344.55 223.55q5.4-12.1 5.95-33.35m-2.3 3.6q-0.45 3.8-1.35 6.65m-7.35-71.9-0.1-0.3m3.6 13.35 0.05 0.3m4.8 32.05q1.25 11.95 0.35 19.85m-0.35-19.85-0.05-0.55m-3.25 50.15-1.7 3.3m-81.8 52.65q5.15 0.05 11.75-1.9m1.15 2.6q6.45-1.4 12.4-3.7m-29.7 3.8q-16.2-0.1-31.55-3.5" fill="none" stroke="#372b17" stroke-linecap="round" stroke-linejoin="round" stroke-width=".05"/>
<path d="m336.45 243.65 2.75 5.5m-7.1-14.15-2.15-4.3m2.15 4.3 4.35 8.65" fill="none" stroke="#6f0" stroke-linecap="round" stroke-linejoin="round" stroke-width=".05"/>
<path d="m329.9 226.9 0.9 0.95-0.9-0.95m-0.9-0.25q-0.4-1.1-2.9-0.9-1.9 0.7-2.2 2.25l2.15 0.2q1.7-1.6 2.95-1.55m-0.25 1.6q-0.6-0.35-1.3 0.45-0.75 0.8-1.4 0.5-0.7-0.25-0.6 0.6 0.05 0.85 0.7 1.4 0.6 0.45 1.45 0.4 0.85-0.1 1.4-0.7 0.45-0.65 0.4-1.45-0.1-0.85-0.65-1.2m2.9 1.5-0.1-0.3-0.4-0.9q0.45 2.8-1.75 4.35-4.2 2-8.4-1.4-0.4-1.5 0-3.05 0.55-2.6 3.6-4.15 3.55-1.85 5.8-0.9 2.7 1.1 4.55 4.7 5.8 14 6.7 31.4l-4.65-10.05q-4.2-6.55-9.1-11.8 2.85 0.25 4.25-1.45 2.3-3.05-0.5-6.45m-23.45 22.55 5.05 2.95q7.8 4.35 15.9 7.25l3.85 1.3q-8.95 1.75-19.6 1.2-11.05-0.5-14.4-3.15l-0.15-0.2-0.25-0.35q-1.4-2-0.3-5.9 0.9-3.3 3.35-4.35 1.7-0.8 3.7-0.55l0.2 0.1 1.45 0.95 0.95 0.85q1.25 6.25-3.2 6.8-2.9 0.3-2.25-3.2-1.6 2.45-0.8 3.8l0.4 0.45 0.4 0.3-0.4-0.3-0.4-0.45 0.8 0.75 0.05 0.05 1.35 1.3 4.5 0.25q1.4-0.7 2.25-1.9 0.9-2.2-0.25-4.35l-1.2-1.75-0.7-1.15-0.45-0.5 0.15-0.2m-2.5 1.25q0-0.85-0.6-1.45-0.55-0.55-1.4-0.55t-1.45 0.55q-0.55 0.6-0.55 1.45t0.55 1.25q0.55 0.35 1.35-0.35t1.45-0.35q0.65 0.3 0.65-0.55" fill="#e42375" fill-rule="evenodd"/>
<path d="m322.6 233.6q3.65 3.2 7.7 0.35l0.25-0.25q1.65-1.75 1.1-3.95 2.8 3.4 0.5 6.45-1.4 1.7-4.25 1.45 4.9 5.25 9.1 11.8l4.65 10.05v0.35q-2.2-4.25-4.75-8.3-3.35-5.25-7.4-10.15l-3.5-4.1-3.4-3.7m11.2 30.45 2.8 0.85q-17.4 2.75-32.45-0.1-3.45-0.95-5.15-2.95 3.35 2.65 14.4 3.15 10.65 0.55 19.6-1.2l0.8 0.25m-24.6-9.9 1.2 1.75q1.15 2.15 0.25 4.35-0.85 1.2-2.25 1.9l-4.5-0.25-1.35-1.3 0.5 0.2q3.75 1.3 5.65-1.45l0.2-0.3q1.2-2.75 0.3-4.9" fill="#96124a" fill-rule="evenodd"/>
<path d="m326.05 228.2-2.15-0.2q0.3-1.55 2.2-2.25 2.5-0.2 2.9 0.9-1.25-0.05-2.95 1.55m-5.05 3.3q4.2 3.4 8.4 1.4 2.2-1.55 1.75-4.35l0.4 0.9 0.1 0.3q0.55 2.2-1.1 3.95l-0.25 0.25q-4.05 2.85-7.7-0.35l-0.15-0.1-1.1-1.15-0.15-0.2-0.2-0.65m-12.95 21 0.45 0.5 0.7 1.15q0.9 2.15-0.3 4.9l-0.2 0.3q-1.9 2.75-5.65 1.45l-0.5-0.2-0.05-0.05-0.8-0.75q-0.8-1.35 0.8-3.8-0.65 3.5 2.25 3.2 4.45-0.55 3.2-6.8l0.1 0.1" fill="#c11760" fill-rule="evenodd"/>
<path d="m328.75 228.25q0.55 0.35 0.65 1.2 0.05 0.8-0.4 1.45-0.55 0.6-1.4 0.7-0.85 0.05-1.45-0.4-0.65-0.55-0.7-1.4-0.1-0.85 0.6-0.6 0.65 0.3 1.4-0.5 0.7-0.8 1.3-0.45m-23.05 25.3q0 0.85-0.65 0.55-0.65-0.35-1.45 0.35t-1.35 0.35q-0.55-0.4-0.55-1.25t0.55-1.45q0.6-0.55 1.45-0.55t1.4 0.55q0.6 0.6 0.6 1.45" fill="#f084b1" fill-rule="evenodd"/>
<path d="m313.25 255.25q8.35-3.2 13.05-8.85l5.4 7.5q-3.1 2.8-2.55 8.6-8.1-2.9-15.9-7.25" fill="#4b6c74" fill-rule="evenodd"/>
<path d="m322.6 233.6 3.4 3.7 3.5 4.1q4.05 4.9 7.4 10.15-3.3 0.6-5.2 2.35l-5.4-7.5 0.15-0.2-3.2-6.25q0.1-2.85-0.75-6.3l0.1-0.05" fill="#374f55" fill-rule="evenodd"/>
<path d="m323.25 239.95 3.2 6.25-0.15 0.2q-4.7 5.65-13.05 8.85l-5.05-2.95q14.65-1.5 15.05-12.35" fill="#608a95" fill-rule="evenodd"/>
<path d="m330.8 227.85-0.9-0.95m-0.9-0.25q-1.25-0.05-2.95 1.55m-5.05 3.3 0.2 0.65 0.15 0.2 1.1 1.15 0.15 0.1q3.65 3.2 7.7 0.35l0.25-0.25q1.65-1.75 1.1-3.95m10 29.75q-0.9-17.4-6.7-31.4-1.85-3.6-4.55-4.7-2.25-0.95-5.8 0.9-3.05 1.55-3.6 4.15-0.4 1.55 0 3.05m1.6 2.1 3.4 3.7 3.5 4.1q4.05 4.9 7.4 10.15 2.55 4.05 4.75 8.3v-0.35m-33.45-7.2 5.05 2.95m20.55 8.8 2.8 0.85q-17.4 2.75-32.45-0.1m1.2-14.3 0.2 0.1 1.45 0.95 1.2 0.75m-0.15 0.2 0.45 0.5m-6 7.55-0.4-0.3-0.4-0.45q-0.8-1.35 0.8-3.8m5.45-3.6-0.95-0.85m22.15 10.95 3.85 1.3m-3.85-1.3q-8.1-2.9-15.9-7.25m-5.3-2.85 0.1 0.1m1.15 1.65q0.9 2.15-0.3 4.9l-0.2 0.3q-1.9 2.75-5.65 1.45l-0.5-0.2" fill="none" stroke="#000" stroke-linecap="round" stroke-linejoin="round" stroke-opacity=".6" stroke-width=".05"/>
<path d="m323.25 239.95q-0.4 10.85-15.05 12.35l-0.15 0.2m23.65 1.4q1.9-1.75 5.2-2.35m-32.75 13.25q-3.45-0.95-5.15-2.95m-0.15-0.2-0.25-0.35q-1.4-2-0.3-5.9 0.9-3.3 3.35-4.35 1.7-0.8 3.7-0.55m26.35 3.4q-3.1 2.8-2.55 8.6m-6.65-28.85q0.85 3.45 0.75 6.3m-0.75-6.3-0.05-0.15" fill="none" stroke="#000" stroke-linecap="round" stroke-linejoin="round" stroke-opacity=".6" stroke-width=".05"/>
<path d="m308.75 219.75 2.1 1.65 2.1-2.2-2-1.55 2.15-2.1 1.4 1.6 1.35-1.45-1.6-1.2 5.8-5.6 1.9 1.85q-10.75 11.85 0.5 24.25l-0.1 0.05-0.3 0.05-15.3-13.4 2-1.95" fill="#d2aa55" fill-rule="evenodd"/>
<path d="m308.75 219.75 2.2-2.1 2 1.55-2.1 2.2-2.1-1.65m4.35-4.2 1.15-1.05 1.6 1.2-1.35 1.45-1.4-1.6" fill="#e4e170" fill-rule="evenodd"/>
<path d="m321.95 210.75 1.9 1.95q-10.35 9.75-0.35 22l1.3 1.5-1.9 1.25-18.15-13.8 2-1.95 15.3 13.4 0.3-0.05 0.1-0.05q-11.25-12.4-0.5-24.25" fill="#bb7331" fill-rule="evenodd"/>
<path d="m310.95 217.65-2.2 2.1m2.2-2.1 2.15-2.1 1.15-1.05 5.8-5.6 1.9 1.85 1.9 1.95q-10.35 9.75-0.35 22l1.3 1.5-1.9 1.25-18.15-13.8 4-3.9" fill="none" stroke="#000" stroke-linecap="round" stroke-linejoin="round" stroke-opacity=".50196" stroke-width=".3"/>
<path d="m296.1 236 0.65-0.8 15.3 16.9-1.1 1.95-1.1-0.8q-13.4-9.45-22.35 1.95l-1.8-1.5q10.75-11.3 24.55-1.15l0.4-0.6-0.05-0.1-14.5-15.85" fill="#bb7331" fill-rule="evenodd"/>
<path d="m296.1 236 14.5 15.85 0.05 0.1-0.4 0.6q-13.8-10.15-24.55 1.15l-2.35-1.95 2.05-2.55 1.75 1 0.05-0.1 1.95-2.1-1.6-1.4 2.05-2.6 3.15 1.9 4.95-6.55-3-1.6 1.4-1.75" fill="#d2aa55" fill-rule="evenodd"/>
<path d="m294.7 237.75 3 1.6-4.95 6.55-3.15-1.9 5.1-6.25m-7.15 8.85 1.6 1.4-1.95 2.1-0.05 0.1-1.75-1 2.15-2.6" fill="#e4e170" fill-rule="evenodd"/>
<path d="m309.85 253.25 1.1 0.8 1.1-1.95-15.3-16.9-0.65 0.8-1.4 1.75-5.1 6.25-2.05 2.6-2.15 2.6-2.05 2.55 2.35 1.95 1.8 1.5q8.95-11.4 22.35-1.95z" fill="none" stroke="#000" stroke-linecap="round" stroke-linejoin="round" stroke-opacity=".50196" stroke-width=".3"/>
<path d="m349.7 268.75q0.05 1.4 0.7 3.05l-121.3-103.4 1.9-1.75 1.25 1.1 4.4 3.8 11.9 10.3 101.15 86.9" fill="#ae864a" fill-rule="evenodd"/>
<path d="m356.85 264.5q2.1-1.65 5-1.65t4.95 1.65q2.1 1.65 2.1 4t-2.2 2.05q-2.25-0.35-5.1 0.1l-4.8 0.35q-2-0.15-2-2.5t2.05-4m-3.45 13.55q0.15 1.75-1.5 1.65l-3.75 0.35-3.55 0.5q-1.45 0-1.6-1.7-0.15-1.75 1.3-3.1 1.45-1.3 3.6-1.45 2.15-0.2 3.75 0.9t1.75 2.85" fill="#feabca" fill-rule="evenodd"/>
<path d="m350.4 271.8q-0.65-1.65-0.7-3.05-0.2-6.15 11.6-8.05l0.3-0.05q12.05-2.1 15.25 21.4-0.1 10.95 4.9 17.45-7.35-8.55-13.45-5.45l-2.8 0.6-1.25-4.75-1.2 5.1q-4 0.4-7.55-0.1l-2.25 1.25-0.9-1.9q-1.85-0.55-3.55-1.35l0.9-6.45-3.15 5.3-1.85-1.25 0.4-2.2-0.3-0.9-1.3 2.15-3.5-3.45v-1.75q0.65-13.45 8.55-12.25l2.25 0.55-0.4-0.85m3 6.25q-0.15-1.75-1.75-2.85t-3.75-0.9q-2.15 0.15-3.6 1.45-1.45 1.35-1.3 3.1 0.15 1.7 1.6 1.7l3.55-0.5 3.75-0.35q1.65 0.1 1.5-1.65m3.45-13.55q-2.05 1.65-2.05 4t2 2.5l4.8-0.35q2.85-0.45 5.1-0.1 2.2 0.3 2.2-2.05t-2.1-4q-2.05-1.65-4.95-1.65t-5 1.65" fill="#e42375" fill-rule="evenodd"/>
<path d="m236.65 171.55-4.4-3.8 2.45-13.45 4.65 3.5v2.95l-1.1 1.35 0.95 2.45-0.9 3.6-1.1-1.55-0.55 4.95m103.35 114.55 3.5 3.45 1.3-2.15 0.3 0.9-0.4 2.2 1.85 1.25 3.15-5.3-0.9 6.45q1.7 0.8 3.55 1.35l0.9 1.9 2.25-1.25q3.55 0.5 7.55 0.1l1.2-5.1 1.25 4.75 2.8-0.6q6.1-3.1 13.45 5.45l0.45 0.55 0.6 0.7q-7.8-4.7-19.8-3.3l-9.55-0.85q-13-2.3-13.45-10.5m-107.75-114 2.1 1.8-9.65 3.2 7.55-5m7.55 6.45 1.95 1.7-4.2 1.7 2.25-3.4" fill="#b01557" fill-rule="evenodd"/>
<path d="m230.35 170.5 1.9 1.6-7.55 5 9.65-3.2 0.45 0.4q-4.75 2.5-9.45 5.05l-8.15-5.75 13.15-3.1m7 6 2.45 2.05-2.25 3.4 4.2-1.7 5.2 4.45-9.1 0.8-6-3.85 5.5-5.15" fill="#ea4a8e" fill-rule="evenodd"/>
<path d="m248.55 181.85-11.9-10.3 0.55-4.95 1.1 1.55 0.9-3.6-0.95-2.45 1.1-1.35v-2.95l5.85 4.4-1.9 6.95 1-0.95 0.25 0.15 1 0.1 3 13.4" fill="#700e37" fill-rule="evenodd"/>
<path d="m229.1 168.4 121.3 103.4 0.4 0.85-2.25-0.55-101.6-87.4-5.2-4.45-1.95-1.7-2.45-2.05-2.55-2.2-0.45-0.4-2.1-1.8-1.9-1.6-1.8-1.55 0.55-0.55" fill="#6a522d" fill-rule="evenodd"/>
<path d="m350.4 271.8q-0.65-1.65-0.7-3.05l-101.15-86.9-11.9-10.3-4.4-3.8-1.25-1.1-1.9 1.75m121.3 103.4 0.4 0.85-2.25-0.55q-7.9-1.2-8.55 12.25v1.75q0.45 8.2 13.45 10.5l9.55 0.85q12-1.4 19.8 3.3l-0.6-0.7m-0.45-0.55q-5-6.5-4.9-17.45-3.2-23.5-15.25-21.4l-0.3 0.05q-11.8 1.9-11.6 8.05m33.1 32 1.15 0.75m-144.6-143.7-4.65-3.5-2.45 13.45m7.1-9.95 5.85 4.4-1.9 6.95 1-0.95 0.25 0.15 1 0.1 3 13.4m-18.2-11.35 1.9 1.6 2.1 1.8 0.45 0.4 2.55 2.2 2.45 2.05 1.95 1.7 5.2 4.45 101.6 87.4m-118.2-101.6-1.8-1.55 0.55-0.55m8.25 8.1-5.5 5.15 6 3.85 9.1-0.8m-16.6-14.2-13.15 3.1 8.15 5.75q4.7-2.55 9.45-5.05" fill="none" stroke="#000" stroke-linecap="round" stroke-linejoin="round" stroke-opacity=".6" stroke-width=".3"/>
</g>
</defs>
</svg>
