<?xml version="1.0" encoding="UTF-8"?>
<svg version="1.1" viewBox="0 0 58.55 50.606" xmlns="http://www.w3.org/2000/svg" xmlns:cc="http://creativecommons.org/ns#" xmlns:dc="http://purl.org/dc/elements/1.1/" xmlns:rdf="http://www.w3.org/1999/02/22-rdf-syntax-ns#" xmlns:xlink="http://www.w3.org/1999/xlink">
<metadata>
<rdf:RDF>
<cc:Work rdf:about="">
<dc:format>image/svg+xml</dc:format>
<dc:type rdf:resource="http://purl.org/dc/dcmitype/StillImage"/>
</cc:Work>
</rdf:RDF>
</metadata>
<g transform="translate(-245.75 -175.17)">
<use transform="translate(245.75,175.15)" width="58.549999" height="50.650002" xlink:href="#a"/>
</g>
<defs>
<g id="a" transform="translate(-245.75,-175.15)">
<path d="m258.1 218.3-0.05-0.1h0.05v-0.05 0.15m25.8-35.05 0.05 0.05-0.05 0.05v-0.1m0 0.1 0.15 0.15-0.05 0.05-0.1-0.2m-25.85 34.85h0.05-0.05" fill="#fff" fill-rule="evenodd"/>
<path d="m283.95 183.3q2.25 1.25 2.45 3.55l-0.1 0.35-0.35 1.15q-0.1-2.95-1.7-4.25l-0.2-0.6-0.15-0.15 0.05-0.05" fill="#d1d1d1" fill-rule="evenodd"/>
<path d="m258 201.75-0.25-0.25 0.25 0.25m-6.05-0.8 0.2-0.1h0.05l-0.25 0.1" fill="#878787" fill-rule="evenodd"/>
<path d="m251.95 200.95h-0.1 0.1" fill="#999" fill-rule="evenodd"/>
<path d="m257.7 202.15h-0.15 0.15" fill="#7d6337" fill-rule="evenodd"/>
<path d="m250.55 203.7v0.05h-0.05l0.05-0.05m0.45 1 0.95 1.9h-0.1v0.05l-0.85-1.95m6.7-2.55 0.35-0.05-0.35 0.05" fill="#bfbfbf" fill-rule="evenodd"/>
<path d="m258.05 202.1 0.05-0.05-0.05 0.05" fill="#ccc" fill-rule="evenodd"/>
<path d="m303.8 192.6-0.9 0.2-7.7 1.35-7.5 1.6 0.5 3.1 1.1 4.4 0.45 0.35 0.05 0.1m-0.05 0.1q0.65 1.9-0.5 3.95-0.05 2.05-0.5 2.95m-0.65 1.05q-0.8 2.2-2 4.2-4.65 8-12.4 9.15-7.8 1.15-14.15-5.25l-0.1-0.05-0.05-0.1-0.5-0.5-0.65-0.7m-0.15-0.2-0.05-0.1m0.05-0.05v0.05q5.6 5.85 12.4 4.85 2.95-0.45 5.35-2.05 0.2-2.15 3.65-3.3 0.05-0.75 0.9-2.5 0.8-1.8 1.95-2.45v-0.15q-0.05-2.6 1.55-4.5-0.25-1.4 0.5-3.05l0.1-1q0.1-0.3 0.75-0.55l0.3-0.15m-0.35-7-4.6 0.95m-0.6 0.1-10.75 2.35m21.85-6.95 0.25-0.05 4.4-0.1 7.2-0.05m-21.5-12.45q-0.8-1.3-2.5-1.65-1.3-1.8-2.35-1.95l-1.75-0.1-0.1-0.05q-3.3-1.1-6.9-0.55-4.4 0.65-7.75 3.5-1.5 1.25-2.8 2.85 3.3-3.5 7.85-4.15 4.3-0.65 8.2 1.45 2.2 1.25 4.25 3.4l2 2.4 0.4 1v0.15q0.35 0.7 1.25 1.4l0.4 1.35 0.6 0.7m0 0.7 0.5 1.15 0.1 0.15 0.15 0.2 0.1 0.1 0.05 0.25 0.8 0.25h0.2m0.65 1.85-26.75 7.15m-0.3-0.2 0.05 0.05-2.75-2.2-2.75 0.9-0.35 0.7m-0.1 0-5.6 1.8 4.2 0.9 0.1 0.05m0 0.1 0.45 0.9m0.95 1.9h0.1l0.35-0.1 2.3-0.6 3.35-3.75 11.15-2.4m12.6-18.8-0.3-0.75m0.3 0.75 0.65 0.2 0.7 0.45 0.2 0.25 0.55 1.4 0.05 0.05q2.25 1.25 2.45 3.55l0.05 0.35q1 0.55 1.25 1.35l-0.05 1.2q0.5 0.6 0.35 0.9l0.05 0.15v0.1l-0.5 0.75-0.05 2.2 0.65-0.2m0.3-0.1 2.5-0.7m-7.05-9.5v-0.1m-0.75 9.2-0.05-0.2v-0.05m-31.2 8.75h-0.05m0.1 5.65h-0.1m0 0.05-0.85-1.95" fill="none" stroke="#000" stroke-linecap="round" stroke-linejoin="round"/>
<path d="m289.8 203.7-0.05 0.1m-1 6.9-0.65 1.05m-29.85 6.75-0.15-0.2m27.45-14.95q0.15-3-0.1-5.45l-0.1-0.6v-0.3l-0.1-0.35-0.05-0.2v-0.1m-4.6 0.95-0.6 0.1m2.25-7.5v0.7m1.9 2.1 0.1 0.25 0.55 1.6m-26.75 7.15-0.05 0.05-0.25-0.25m-5.8-0.55h-0.1m-1.3 2.75v0.1m30.95-23.6h-0.05v-0.05m0.4 0.9-0.05-0.1m6.35 12.7 0.3-0.1m2.5-0.7 0.15-0.05m-33 9.25-0.05 0.05m-7.5 1.65-0.1-0.1m7.65 14.55v0.1m0-0.1h-0.05" fill="none" stroke="#000" stroke-linecap="round" stroke-linejoin="round"/>
<path d="m257.4 182.1q1.25-1.6 2.65-2.8 2.7-1.55 5.85-1.7 4-0.2 7.4 1.9-3.8-2.15-8.1-1.5-4.55 0.65-7.8 4.1" fill="#9a9a9a" fill-rule="evenodd"/>
<path d="m283.95 183.25v0.05l0.1 0.2h-0.05l-0.05-0.2-0.05-0.05h0.05m-0.6-1.45q1.2 3.45 0.85 6.75-0.4 1.65-1.45 3.2-0.5-0.7-0.5-1.15v-0.7q1.2-3 0.15-7.05l-0.2-0.75-0.35-1.1 0.5 1.8q0.5 2.7 0.05 5.1l-0.7 1.3q-0.35-0.6-0.45-1.4 0.6-3.6-1.35-7.6 0.85 1.95 0.9 4.1v0.15l-0.1 1-0.25 0.6q-0.3 0.25-0.45-0.4-0.5-2.7-1.25-4.35 0.7 1.8 0.9 3.95l-2-2.35q-2.1-2.2-4.35-3.4-3.4-2.1-7.4-1.9-3.15 0.15-5.85 1.7 3.4-2.85 7.8-3.5 3.6-0.5 6.9 0.6h0.15l1.7 0.1q1.05 0.15 2.4 2 1.65 0.3 2.45 1.6v0.05h0.05l0.35 0.75 0.6 0.25 0.7 0.45 0.2 0.2m-24.45 37.4-0.6-0.75-0.25-0.25v-0.05h0.05-0.05l0.05 0.1-0.05-0.1h0.05q5.6 5.85 12.4 4.85 2.95-0.45 5.35-2 0.2-2.2 3.6-3.4 0.1-0.7 0.95-2.45 0.85-1.8 2-2.4 2.9-1.4 4.95-4.25-0.4 1.35-1.3 2.7-2.25 3.25-6.5 6.4 3.9-2 6.35-4.45l-3.05 3.85-0.4 0.55q-2.35 2.95-6.4 3.45h2.45q-2.9 1.95-6.4 2.5-6.8 1-12.5-3.7l-0.15-0.15-0.55-0.45m26.3-22.95 1.05-0.2 0.75 1.7 0.05 0.15v0.05l-0.5-0.55-0.15-0.2-0.8-0.65-0.4-0.25v-0.05m0.15-1.85-0.55 0.1-0.55-1.55 1.1 1.45m0.1 3.5 0.6 0.45 1.25 1.05q0.35 2.6-0.35 3.65h-0.05l-0.7 0.1h-0.05l-0.65 0.2 0.65-0.2h0.05l-1 1.5q0.65-0.35 1.15-0.9-0.1 2-1.4 3.95l0.8-0.6q-0.9 3.5-3.4 5.45-0.05-2.6 1.6-4.5-0.35-1.4 0.5-3.05l0.05-0.95q0.1-0.35 0.75-0.6l0.25-0.1q0.2-3-0.05-5.45m-3.6-17v0.1-0.1m-2.3 36.7h-0.1 0.1m-3.5 3.4h-0.2 0.2" fill="#fff" fill-rule="evenodd"/>
<path d="m303 192.6h0.8l-0.9 0.1-7.65 1.4-0.9 0.2-0.3 0.05-2.55 0.55-3.8 0.8-0.65 0.15-0.8 0.2-1.05 0.2-4.6 1-0.6 0.1-10.7 2.35h-0.1l-11.1 2.4 0.05-0.05h-0.05l-0.05-0.05-0.3 0.1h-0.1 0.05l-0.15 0.05 0.1-0.05 0.55-0.15 5.85-1.4 3.2-0.7 1.1-0.25 1.6-0.3 2.3-0.6 0.5-0.15 4.7-0.95 2.15-0.6 3.4-0.9 2.05-0.55 0.8-0.25 0.3-0.05 0.75-0.2 0.7-0.15 0.3-0.1 0.45-0.1 0.05-0.05 1.45-0.25 0.9-0.2 4.2-0.95 7.95-0.65h0.1" fill="#7d6337" fill-rule="evenodd"/>
<path d="m291.35 192.7 4.4-0.1h7.25-0.1l-7.95 0.65h-1.15l-0.2 0.05q-2-0.05-2.5-0.45 0.05-0.1 0.25-0.15" fill="#e0d0b8" fill-rule="evenodd"/>
<path d="m284.6 190.9q0.25-0.15 0.55-0.2l0.2-0.1 1.2-0.2 0.6-0.05 0.85 0.3 0.05 0.15v0.05l-0.5 0.8 0.05-0.6v-0.1l-0.05-0.05-0.55-0.2-1.05 0.1h-0.05l-0.6 0.15-0.7 0.35-0.65-0.1q0.3-0.2 0.65-0.3" fill="#858585" fill-rule="evenodd"/>
<path d="m287.55 191.65-0.05 2.15-0.95 0.25q-0.7-0.95-2.4-1.35l-0.4-0.65 0.35-0.4 0.5-0.35 0.7-0.35 0.6-0.15h0.05l1.05-0.1 0.55 0.2 0.05 0.05v0.1l-0.05 0.6m0.15 4.05 0.5 3.1 1.1 4.45-0.45-0.15-0.15-0.45-0.85-2.7-0.05-0.1-0.5-0.45-1.25-1.05-0.6-0.45-0.05-0.4-0.05-0.25v-0.2l-0.05-0.1-0.05-0.35v-0.2l-0.05-0.1 0.4 0.25 0.8 0.65 0.15 0.2 0.5 0.55 0.35 0.4 0.05 0.05-0.4-2.55 0.65-0.15" fill="#c5c5c5" fill-rule="evenodd"/>
<path d="m294.95 193.25-4.2 0.95-0.9 0.2-1.45 0.25-0.05 0.05-0.45 0.1-0.3 0.1-0.7 0.15-0.75 0.2-0.3 0.05-0.8 0.25-2.05 0.55-3.4 0.9-2.15 0.6-4.7 0.95-0.5 0.15-2.3 0.6-1.6 0.3-1.1 0.25-3.2 0.7-5.85 1.4-0.55 0.15-0.25 0.05 0.25-0.05-0.1 0.05h-0.15l-5.6 1.2h-0.2l6.4-1.65h0.05l5.95-1.6 0.9-0.05 0.3-0.05q0.65-0.35 1.4-0.35h0.75l5.05-1.35 1.25-0.25 2.05-0.35 2.5-0.75 2.95-0.9 3.8-1 0.65-0.2 0.45-0.1 0.75-0.2 0.75-0.15 0.35-0.05 0.45-0.1h0.05l0.25-0.05 2.1-0.35 1.1-0.2 1.75-0.35 0.2-0.05h1.15" fill="#ad884b" fill-rule="evenodd"/>
<path d="m287.5 193.8 0.65-0.2 0.3-0.1 2.55-0.7h0.05l0.05 0.05q0.5 0.4 2.5 0.45l-1.75 0.35-1.1 0.2-2.1 0.35-0.25 0.05h-0.05l-0.45 0.1-0.35 0.05-0.75 0.15-0.75 0.2-0.45 0.1-0.65 0.2-3.8 1-2.95 0.9-2.5 0.75-2.05 0.35-1.25 0.25-5.05 1.35h-0.75q-0.75 0-1.4 0.35l-0.3 0.05-0.9 0.05 20.8-5.6 0.55-0.1 1.2-0.35 0.95-0.25" fill="#c4a773" fill-rule="evenodd"/>
<path d="m284.05 183.5h-0.05 0.05m-24.5 36.35-0.1-0.1-0.05-0.1-0.5-0.45 0.55 0.45 0.15 0.15-0.05 0.05m-1.5-17.85 0.05 0.05h0.05l-0.05 0.05-3.4 3.75-0.85 0.25 0.25-0.1-1.05-2.3 0.05-0.05 4.45-1 0.5-0.6v-0.05m24.3-19.2-0.5-1.8 0.35 1.1 0.2 0.75-0.05-0.05m-24.25 19.25h-0.05 0.05" fill="#ccc" fill-rule="evenodd"/>
<path d="m283.1 192.05 0.05-0.1 0.05-0.15q0.15-0.2 0.45-0.4l0.3-0.2 0.65 0.1-0.5 0.35-0.35 0.4 0.4 0.65h-0.2q-0.6-0.05-0.8-0.3l-0.05-0.25v-0.1m-33.85 11.3-3.05-0.6 5.2-1.65 0.5-0.15 0.05-0.05-0.05 0.05 0.05-0.05 3.4 0.6 0.25 0.25-6.35 1.6" fill="#999" fill-rule="evenodd"/>
<path d="m286.25 196.05 0.8-0.2 0.4 2.55-0.05-0.05-0.35-0.4v-0.05l-0.05-0.15-0.75-1.7m-0.9-1.65-1.1-1.45-0.1-0.25q1.7 0.4 2.4 1.35l-1.2 0.35m1.95 5 0.5 0.45 0.05 0.1 0.85 2.7 0.15 0.45-0.2-0.05h-1.7q0.7-1.05 0.35-3.65" fill="#dadada" fill-rule="evenodd"/>
<path d="m250.45 203.65-1.2-0.3 6.35-1.6-0.25-0.25-3.4-0.6 0.2-0.05 0.05-0.05 0.65-0.15 4.9 0.85 0.05 0.05 0.25 0.15h-0.05l-6.4 1.65-1 0.3h-0.15m7.6-1.95-0.3-0.2 0.3 0.2" fill="#878787" fill-rule="evenodd"/>
<path d="m257.8 201.55-0.05-0.05-4.9-0.85-0.35 0.05-0.3 0.1-0.05 0.05-0.2 0.05 0.35-0.7 2.75-0.85 2.75 2.2" fill="#e7e7e7" fill-rule="evenodd"/>
<path d="m252 206.55-0.1 0.05h-0.05l-0.85-1.95-0.4-0.85v-0.05l-0.05-0.05 0.05-0.05-0.05 0.05 0.05-0.05 1-0.3h0.2l5.6-1.2h0.15l0.15-0.05h0.05l0.3-0.1v0.05l-0.5 0.6-4.45 1-0.05 0.05 1.05 2.3-0.25 0.1-0.3 0.1-1.15 0.25-0.3 0.1h-0.1l-1-1.9 1 1.9m5.75-4.45 0.3-0.05-0.3 0.05" fill="#bfbfbf" fill-rule="evenodd"/>
<path d="m283.95 183.25q2.25 1.25 2.5 3.55v0.35q0.95 0.55 1.2 1.35-0.2 1.05-0.85 1.65 0.4-1.65-0.4-2.6-0.3 1.65-1.25 3.15-0.3 0.05-0.55 0.2l1.35-2.6q-0.1-2.95-1.7-4.2 1.3 3.9-1.05 7.7l-0.05 0.15-0.05 0.1-0.05 0.05-0.2-0.25-0.1-0.1q1.05-1.55 1.45-3.2 0.35-3.3-0.85-6.75l0.55 1.45 0.05 0.05v-0.05m0.1 0.25-0.1-0.2 0.05 0.2h0.05m5.25 19.75q0.35 0.1 0.45 0.3v0.2q0.6 1.9-0.5 3.95-0.05 2.05-0.5 3l-0.65 1.05-1.95 4.15q-4.7 8-12.45 9.15-7.8 1.15-14.15-5.2l0.05-0.05q5.7 4.7 12.5 3.7 3.5-0.55 6.4-2.5h-2.45q4.05-0.5 6.4-3.45l0.4-0.55 3.05-3.85q-2.45 2.45-6.35 4.45 4.25-3.15 6.5-6.4 0.9-1.35 1.3-2.7-2.05 2.85-4.95 4.25l-0.05-0.2q2.5-1.95 3.4-5.45l-0.8 0.6q1.3-1.95 1.4-3.95-0.5 0.55-1.15 0.9l1-1.5 0.7-0.1h1.75l0.2 0.05 0.45 0.15m-9.65-18q-0.2-2.15-0.9-3.95 0.75 1.65 1.25 4.35 0.15 0.65 0.45 0.4l0.25-0.6 0.1-1v-0.15q-0.05-2.15-0.9-4.1 1.95 4 1.35 7.6-0.9-0.65-1.2-1.4l-0.1-0.15-0.3-1m2.05 3.95 0.7-1.3q0.45-2.4-0.05-5.1l0.05 0.05q1.05 4.05-0.15 7.05l-0.55-0.7" fill="#a9abbc" fill-rule="evenodd"/>
<path d="m283.2 191.8q2.35-3.8 1.05-7.7 1.6 1.25 1.7 4.2l-1.35 2.6q-0.35 0.1-0.65 0.3l-0.3 0.2q-0.3 0.2-0.45 0.4m1.95-1.1q0.95-1.5 1.25-3.15 0.8 0.95 0.4 2.6 0.65-0.6 0.85-1.65v1.2q0.55 0.6 0.35 0.95l-0.85-0.3-0.6 0.05-1.2 0.2-0.2 0.1" fill="#9193aa" fill-rule="evenodd"/>
<path d="m287.65 188.5q-0.25-0.8-1.2-1.35v-0.35q-0.25-2.3-2.5-3.55h-0.05l-0.55-1.45m0.6 1.5-0.05-0.05m-1.15 8.5 0.1 0.1 0.2 0.25m0.05-0.05 0.05-0.1 0.05-0.15m1.4-0.9q0.25-0.15 0.55-0.2m2.5-2.2v1.2q0.55 0.6 0.35 0.95l0.05 0.15v0.05l-0.5 0.8-0.05 2.15 0.65-0.2m0.3-0.1 2.55-0.7m0.35-0.1 4.4-0.1h7.25-0.1l-7.95 0.65m8.85-0.65-0.9 0.1-7.65 1.4-0.9 0.2-6.65 1.4 0.5 3.1 1.1 4.45q0.35 0.1 0.45 0.3v0.1m0 0.1q0.6 1.9-0.5 3.95-0.05 2.05-0.5 3m-0.65 1.05-1.95 4.15q-4.7 8-12.45 9.15-7.8 1.15-14.15-5.2l-0.1-0.1-0.05-0.1-0.5-0.45-0.6-0.75m-0.2-0.2-0.05-0.05m-6.05-11.65-0.1 0.05m-0.05 0-0.85-1.95m-0.55-1-1.2-0.3-3.05-0.6 5.2-1.65 0.5-0.15m5.45-18.85h0.05q1.25-1.6 2.65-2.8 3.4-2.85 7.8-3.5 3.6-0.5 6.9 0.6h0.15l1.7 0.1q1.05 0.15 2.4 2 1.65 0.3 2.45 1.6m0.05 0.05 0.35 0.75 0.6 0.25 0.7 0.45 0.2 0.2m4.65 8.85-0.85-0.3-0.6 0.05-1.2 0.2-0.2 0.1m-27.05 11.4 11.1-2.4m0.1 0 10.7-2.35m0.6-0.1 4.6-1 1.05-0.2 0.8-0.2 0.65-0.15m6.1-2.45-0.2 0.05q-2-0.05-2.5-0.45 0.05-0.1 0.25-0.15m-27.35 7.4-5.95 1.6m-0.05 0-6.4 1.65m0.2 0 5.6-1.2h0.1m27.3-7.65 0.55-0.1m-0.55 0.1-20.8 5.6m24.85 3 0.45 0.15m-2.75-9.2-1.2 0.35m2.15-0.6-0.95 0.25m-0.35 9.1 0.7-0.1h1.75l0.2 0.05m-3.35 0.25 0.65-0.2h0.05m-3.85 9.4 0.05 0.2q-1.15 0.6-2 2.4-0.85 1.75-0.95 2.45-3.4 1.2-3.6 3.4-2.4 1.55-5.35 2-6.8 1-12.4-4.85m24.25-5.6q-0.05-2.6 1.6-4.5-0.35-1.4 0.5-3.05l0.05-0.95q0.1-0.35 0.75-0.6l0.25-0.1m8.4-10.1h1.05m-15.3-8 0.3 1 0.1 0.15q0.3 0.75 1.2 1.4 0.1 0.8 0.45 1.4l0.55 0.7m0 0.7q0 0.45 0.5 1.15m-9.45-12.25q2.25 1.2 4.35 3.4l2 2.35m-22.25-3.15q3.25-3.45 7.8-4.1 4.3-0.65 8.1 1.5m-15.5 22.05-0.05-0.05m0.05 0.05-2.75-2.2-2.75 0.85-0.35 0.7-0.05 0.05m0.25-0.1 0.05-0.05 0.65-0.15 4.9 0.85m-5.25-0.8 0.35-0.05m-0.85 5.9h0.1l0.3-0.1 1.15-0.25 0.3-0.1 0.25-0.1m-3.5-2.25v0.05l0.4 0.85m-0.45-1h-0.1m0.15 0 1-0.3m6.5-1.25-3.4 3.75-0.85 0.25m30.1-14.9-0.3 0.2q-0.3 0.2-0.45 0.4m-0.05 0.6-0.05-0.15v-0.1l-0.05-0.05m0.05 0.05v-0.1m0 0.1 0.05 0.25q0.2 0.25 0.8 0.3h0.2m0.45-1.8q-0.35 0.1-0.65 0.3" fill="none" stroke="#000" stroke-linecap="round" stroke-linejoin="round" stroke-width=".05"/>
<path d="m288.15 193.6 0.3-0.1m2.55-0.7h0.05l0.3-0.1m-1.6 10.95v0.1m-1 6.95-0.65 1.05m-29.8 6.7-0.2-0.2m-0.05-0.05v-0.05l-6.05-11.6m-1-1.9-0.45-0.85-0.05-0.15h-0.05m0.95-2.55 5.95-19m24.1-2v0.05h0.05m-23.85 21.95h0.1m22.25-4.75 0.6-0.1m-23.2 4.9 0.25-0.05m26.6-9.15 0.55 1.55m0.45 1.9v0.2l0.05 0.35 0.05 0.1v0.2l0.05 0.25 0.05 0.4m-0.25-1.65v0.05m-1.05-3.6 0.1 0.25m1.25 10.4q0.2-3-0.05-5.45m-3.6-16.9v-0.1m0.4 9v0.7m-24.5 10.9 0.3 0.2m0 0.35h0.05m-0.05 0-0.3 0.05m-5.85-1.15 0.05-0.05 0.2-0.05m-1.55 2.8-0.05 0.05v0.05l0.05 0.05m0.4 0.85 1 1.9m-1.45-2.75v-0.05l-0.05-0.1m28.95 13.95h0.1m-3.7 3.4h0.2m-17.95-2.85h-0.05l0.05 0.1" fill="none" stroke="#000" stroke-linecap="round" stroke-linejoin="round" stroke-width=".05"/>
</g>
</defs>
</svg>
