<?xml version="1.0" encoding="UTF-8"?>
<svg version="1.1" viewBox="0 0 74.222 175.89" xmlns="http://www.w3.org/2000/svg" xmlns:cc="http://creativecommons.org/ns#" xmlns:dc="http://purl.org/dc/elements/1.1/" xmlns:rdf="http://www.w3.org/1999/02/22-rdf-syntax-ns#" xmlns:xlink="http://www.w3.org/1999/xlink">
<metadata>
<rdf:RDF>
<cc:Work rdf:about="">
<dc:format>image/svg+xml</dc:format>
<dc:type rdf:resource="http://purl.org/dc/dcmitype/StillImage"/>
</cc:Work>
</rdf:RDF>
</metadata>
<g transform="translate(-247.92 -121.01)">
<use transform="translate(314.6,140.85)" width="1.5" height="143.55" xlink:href="#i"/>
<use transform="matrix(.5193 .5193 -.5193 .5193 290.31 121.23)" width="34.349998" height="45.700001" xlink:href="#a"/>
<use transform="translate(279.05,121.05)" width="43.049999" height="52.150002" xlink:href="#h"/>
<use transform="matrix(.1341 .2023 -.2523 .3205 297.81 140.61)" width="34.349998" height="45.700001" xlink:href="#a"/>
<use transform="matrix(-.1341 -.2023 -.2523 .3205 305.57 152.6)" width="34.349998" height="45.700001" xlink:href="#a"/>
<use transform="translate(280.8,120.65)" width="41.349998" height="53.900002" xlink:href="#g"/>
<use transform="matrix(.5193 -.5193 -.5193 -.5193 290.71 295.02)" width="34.349998" height="45.700001" xlink:href="#a"/>
<use transform="matrix(.5193 -.5193 -.5193 -.5193 275.71 260.77)" width="34.349998" height="45.700001" xlink:href="#a"/>
<use transform="translate(279.05,244.7)" width="43.049999" height="52.150002" xlink:href="#f"/>
<use transform="matrix(.1341 -.2023 -.2523 -.3205 297.81 277.29)" width="34.349998" height="45.700001" xlink:href="#a"/>
<use transform="matrix(-.1341 .2023 -.2523 -.3205 305.57 265.3)" width="34.349998" height="45.700001" xlink:href="#a"/>
<use transform="translate(280.8,243.35)" width="41.349998" height="53.900002" xlink:href="#e"/>
<use transform="matrix(.5193 .5193 -.5193 .5193 275.31 155.48)" width="34.349998" height="45.700001" xlink:href="#a"/>
<use transform="translate(247.95,140.55)" width="52" height="93" xlink:href="#d"/>
<use transform="matrix(.4068 .1271 -.109 .4744 268.21 173.88)" width="34.349998" height="45.700001" xlink:href="#a"/>
<use transform="matrix(-.4068 -.1271 -.109 .4744 291.97 181.44)" width="34.349998" height="45.700001" xlink:href="#a"/>
<use transform="translate(264.2,142.75)" width="35.799999" height="133.05" xlink:href="#c"/>
<use transform="matrix(.4068 -.1271 -.109 -.4744 267.51 242.47)" width="34.349998" height="45.700001" xlink:href="#a"/>
<use transform="matrix(-.4068 .1271 -.109 -.4744 291.22 234.86)" width="34.349998" height="45.700001" xlink:href="#a"/>
<use transform="translate(257.7,188.2)" width="41.549999" height="87.650002" xlink:href="#b"/>
</g>
<defs>
<g id="i" transform="translate(-314.6,-140.85)">
<path d="m315.1 141.35q0.5 69.75 0.5 142.55" fill="none" stroke="#000" stroke-linecap="round" stroke-linejoin="round"/>
</g>
<g id="a" transform="translate(17.15,22.85)">
<path d="m5.75-21.15 1.55 4.85-2.35 6.65-3.5 3.8 4.3-11.35v-3.95" fill="#6c4b24" fill-rule="evenodd"/>
<path d="m-11.2 4.95h1.4l-3.6 3.6 2.2-3.6" fill="#23230c" fill-rule="evenodd"/>
<path d="m17.2 0.85v1l-5.05 5.05v15.95l-2.25-7.9-7.5-8.45-2.35 2.15h-4.55l-3.9 9.2 0.15-8.5-6.7 3.1h-2.2l0.3-1.1h1l6.5-3.25 4.95-5.75-3.75-1.95 4.05-1.9h7.25l6.3-4.15 2.75 3.4 5 3.1m-21.7 7.8 1.8-4.25-5.55 4.95 5.55-4.95h2.9-2.9l-1.8 4.25" fill="#52351b" fill-rule="evenodd"/>
<path d="m2.8-22.15-0.8-0.25 0.8 0.25" fill="#fff" fill-rule="evenodd"/>
<path d="m2-22.4 0.8 0.25 1 0.35 1.95 0.65v3.95l-4.3 11.35 3.5-3.8h6.6q0.45 1 1.3 1.85 1.75 1.75 4.35 1.8v6.85l-5-3.1-2.75-3.4-6.3 4.15h-7.25l-4.05 1.9 3.75 1.95-4.95 5.75-6.5 3.25 3.05-11.25-1.15-2.95 3.45-5.25-3.25 2.4 2.65-6.85 5-3.4 0.05 0.1q0.6 0 1-0.35l0.35-0.45 0.35-0.75 6.35-5m-0.95 8.05-0.55-1 0.55 1m-0.4-1.5h-1.15l-0.95-0.8h-3.25 3.25l0.95 0.8h1.15m-0.15 0.5h-1.45l-1.05-0.85h-3.05 3.05l1.05 0.85h1.45m-2.1 5.05-6.15 2.05-3.05 2.4v6.75q3.25-6.65 9.2-11.2m-9.6 15.25-2.2 3.6 3.6-3.6h-1.4m11.25-19.45-1-0.85 1 0.85" fill="url(#ap)" fill-rule="evenodd"/>
<path d="m-4.75-18.65 5.5-4.2 1.25 0.45-6.35 5-0.4-1.25" fill="url(#ao)" fill-rule="evenodd"/>
<path d="m-16.85 11.35 2.75-10.7-1.65-3.65 0.1-0.2 3.05-9.5 5.65-4.3 0.85 1.05-5 3.4-2.65 6.85 3.25-2.4-3.45 5.25 1.15 2.95-3.05 11.25h-1" fill="url(#ad)" fill-rule="evenodd"/>
<path d="m-1.6-10.3q-5.95 4.55-9.2 11.2v-6.75l3.05-2.4 6.15-2.05" fill="url(#s)" fill-rule="evenodd"/>
<path d="m-4.75-18.65 0.4 1.25m-2.6 0.4 0.85 1.05 0.05 0.1q0.6 0 1-0.35l0.35-0.45 0.35-0.75m-0.7 1.2h3.05l1.05 0.85h1.45m-1.45 0 1 0.85" fill="none" stroke="#a48c66" stroke-linecap="round" stroke-linejoin="round" stroke-width=".05"/>
<path d="m0.5-15.35 0.55 1m-5.75-2.3h3.25l0.95 0.8h1.15" fill="none" stroke="#dcb996" stroke-linecap="round" stroke-linejoin="round" stroke-width=".05"/>
<path d="m2.8-22.15-0.8-0.25-1.25-0.45-5.5 4.2m8.55-3.15 1.95 0.65 1.55 4.85-2.35 6.65h6.6m5.65 3.65v7.85l-5.05 5.05v15.95l-2.25-7.9-7.5-8.45-2.35 2.15h-4.55l-3.9 9.2 0.15-8.5-6.7 3.1h-2.2l0.3-1.1 2.75-10.7-1.65-3.65 0.1-0.2 3.05-9.5 5.65-4.3m5.35 6.7q-5.95 4.55-9.2 11.2v-6.75l3.05-2.4 6.15-2.05m-6.65 19.65 5.55-4.95h2.9m-2.9 0-1.8 4.25m-6.7-3.7h1.4l-3.6 3.6 2.2-3.6" fill="none" stroke="#000" stroke-linecap="round" stroke-linejoin="round" stroke-opacity=".25098" stroke-width=".05"/>
<path d="m11.55-9.65q0.45 1 1.3 1.85 1.75 1.75 4.35 1.8" fill="none" stroke="#000" stroke-linecap="round" stroke-linejoin="round" stroke-opacity=".25098" stroke-width=".05"/>
</g>
<radialGradient id="ap" cx="0" cy="0" r="819.2" gradientTransform="matrix(.0419 0 0 .0419 15.75 -2.05)" gradientUnits="userSpaceOnUse">
<stop stop-color="#52351b" offset="0"/>
<stop stop-color="#9b6b33" offset="1"/>
</radialGradient>
<radialGradient id="ao" cx="0" cy="0" r="819.2" gradientTransform="matrix(.0094 0 0 .0094 -4.75 -18.65)" gradientUnits="userSpaceOnUse">
<stop stop-color="#fff" offset="0"/>
<stop stop-color="#9b6b33" offset="1"/>
</radialGradient>
<radialGradient id="ad" cx="0" cy="0" r="819.2" gradientTransform="matrix(.0358 0 0 .0358 -6.1 -15.95)" gradientUnits="userSpaceOnUse">
<stop stop-color="#fff" offset="0"/>
<stop stop-color="#9b6b33" offset="1"/>
</radialGradient>
<radialGradient id="s" cx="0" cy="0" r="819.2" gradientTransform="matrix(.0121 0 0 .0121 -9.5 -4.25)" gradientUnits="userSpaceOnUse">
<stop stop-color="#ffdc66" offset="0"/>
<stop stop-color="#a22626" offset="1"/>
</radialGradient>
<g id="h" transform="translate(-279.05,-121.05)">
<path d="m281.75 157.1 1.15-0.2-1.35 2.05 0.2-1.85m-2.7 6.2 2.5 0.5 3.75-1.9 1.05-1.05 2.05-3.45 0.3-2.4 2.2-1.3-1.15-0.1 1.95-1.25 1.35-2.4 0.35-2.15 3.55 1.7 0.1 0.05-0.1 2.85-5.15 4.45-1.3 2.75-3.6 4.35-6.55 1.15-1.3-1.8" fill="#52351b" fill-rule="evenodd"/>
<path d="m288.7 155-1.25-0.2 0.25-1.5 2.05 0.3 1.15 0.1-2.2 1.3" fill="#f2c35d" fill-rule="evenodd"/>
<path d="m281.75 157.1-0.8 0.25 1.9-2.25 3.75-1.4 0.05-1.1 0.8-1.35 1.55-1.9 3-1.5 1.4-0.05-0.35 2.15-1.35 2.4-1.95 1.25-2.05-0.3-0.25 1.5 1.25 0.2-0.3 2.4-2.05 3.45-1.05 1.05-3.75 1.9-2.5-0.5 2.95-0.4 2.65-2.95 0.9-1.55-1.15-1.95-1.5 0.45-1.15 0.2" fill="url(#o)" fill-rule="evenodd"/>
<path d="m293.4 147.8-1.4 0.05-3 1.5-1.55 1.9-0.8 1.35-0.05 1.1-3.75 1.4-1.9 2.25 0.8-0.25 1.15-0.2 1.5-0.45 1.15 1.95-0.9 1.55-2.65 2.95-2.95 0.4 2.5 0.5 3.75-1.9 1.05-1.05 2.05-3.45 0.3-2.4-1.25-0.2 0.25-1.5 2.05 0.3 1.95-1.25 1.35-2.4 0.35-2.15 3.55 1.7 0.1 0.05-0.1 2.85-5.15 4.45-1.3 2.75-3.6 4.35-6.55 1.15-1.3-1.8m10.7-9.7 1.15 0.1-2.2 1.3m-6.95 2.1-0.2 1.85 1.35-2.05" fill="none" stroke="#000" stroke-linecap="round" stroke-linejoin="round" stroke-opacity=".25098" stroke-width=".05"/>
<path d="m317.2 135.75-3.3 3.95h-3.6l3.7-4.75 3.2 0.8" fill="#c57e4b" fill-rule="evenodd"/>
<path d="m310.3 139.7h3.6l3.3-3.95 0.05 5.2-6.65 2.3-0.3-3.55m-21.2 29-1.9 1.2 0.35-1.5 1.55 0.3m-2.65 4.35-0.6 0.15-4.2-6.3 0.2-0.8 4.6 6.95m-2.3-7.7 1.05-2.5 0.15 2.2-1.2 0.3" fill="#412f18" fill-rule="evenodd"/>
<path d="m305.05 144.1-0.7 0.85-0.35-0.6-0.35-0.55 0.65-0.85 0.2 0.75 0.55 0.4" fill="#523a1e" fill-rule="evenodd"/>
<path d="m287.2 169.9-0.75 3.15-4.6-6.95 2.3-0.75 1.2-0.3 1.15-0.4 0.7 1.05 0.75 1.1-0.4 1.6-0.35 1.5" fill="#b98046" fill-rule="evenodd"/>
<path d="m315.05 124.45q1.85-2.4 3.8-3.15t2.8 0.6q0.85 1.3 0.15 3.9t-2.55 5l-2.45 2.4-1.35 0.75q-1.95 0.75-2.8-0.6-0.9-1.35-0.2-3.9l0.65-1.85q0.75-1.65 1.95-3.15" fill="url(#n)" fill-rule="evenodd"/>
<path d="m304.3 142.95 0.1-0.65q0.2-0.95 0.8-1.75 0.7-0.85 1.35-1.05 0.7-0.2 1 0.35 0.4 0.5 0.15 1.45l-0.85 1.7-1.3 1-0.5 0.05v0.05l-0.55-0.4-0.2-0.75" fill="url(#m)" fill-rule="evenodd"/>
<path d="m285.2 162.85 4.05-2.25 10.1-15.9 1.95-0.7 1.95-0.75 0.4 0.55 0.35 0.55-16.8 21.35-0.7-1.05-1.15 0.4-0.15-2.2m17.65-18.45-3.25 1.4-9.15 14.4 9.15-14.4 3.25-1.4" fill="url(#l)" fill-rule="evenodd"/>
<path d="m304.35 144.95 0.4 0.55-1.4 5.3-12.25 12.5-2 5.4-1.55-0.3 0.4-1.6-0.75-1.1 16.8-21.35 0.35 0.6m-12.9 17 11.4-12 0.85-3.5-0.85 3.5-11.4 12" fill="url(#k)" fill-rule="evenodd"/>
<path d="m315.05 124.45q1.85-2.4 3.8-3.15t2.8 0.6q0.85 1.3 0.15 3.9t-2.55 5l-2.45 2.4-1.35 0.75q-1.95 0.75-2.8-0.6-0.9-1.35-0.2-3.9l0.65-1.85q0.75-1.65 1.95-3.15m-4.75 15.25h3.6l3.3-3.95-3.2-0.8-3.7 4.75 0.3 3.55 6.65-2.3-0.05-5.2m-12.9 7.2 0.1-0.65q0.2-0.95 0.8-1.75 0.7-0.85 1.35-1.05 0.7-0.2 1 0.35 0.4 0.5 0.15 1.45l-0.85 1.7-1.3 1-0.5 0.05v0.05l-0.7 0.85 0.4 0.55-1.4 5.3-12.25 12.5-2 5.4-1.9 1.2-0.75 3.15-0.6 0.15m-4.2-6.3 0.2-0.8 2.3-0.75 1.05-2.5 4.05-2.25m12.05-16.6 1.95-0.75 0.4 0.55 0.65-0.85 0.2 0.75 0.55 0.4m-1.4-0.3 0.35 0.55 0.35 0.6m-17.15 20.75 0.75 1.1-0.4 1.6 1.55 0.3m-1.9 1.2 0.35-1.5m-2.2-3.35 1.15-0.4 0.7 1.05 16.8-21.35m-19.85 21 1.2-0.3-0.15-2.2m-3.35 3.25 4.6 6.95" fill="none" stroke="#000" stroke-linecap="round" stroke-linejoin="round" stroke-opacity=".25098" stroke-width=".05"/>
<path d="m303.7 146.45-0.85 3.5-11.4 12m-1-1.75 9.15-14.4 3.25-1.4" fill="none" stroke="#e1cbb5" stroke-linecap="round" stroke-linejoin="round" stroke-width=".05"/>
<path d="m296.25 158.35-6.5 8.25-2.4-3.6 6.5-8.25 2.4 3.6" fill="#52351b" fill-rule="evenodd"/>
<path d="m296.25 158.35-6.5 8.25-2.4-3.6 6.5-8.25z" fill="none" stroke="#000" stroke-linecap="round" stroke-linejoin="round" stroke-opacity=".25098" stroke-width=".05"/>
<path d="m304.05 147.3-4.8 6.1-2.4-3.6 4.8-6.1 2.4 3.6" fill="#52351b" fill-rule="evenodd"/>
<path d="m304.05 147.3-4.8 6.1-2.4-3.6 4.8-6.1z" fill="none" stroke="#000" stroke-linecap="round" stroke-linejoin="round" stroke-opacity=".25098" stroke-width=".05"/>
</g>
<radialGradient id="o" cx="0" cy="0" r="819.2" gradientTransform="matrix(.0132 .0076 -.0121 .021 281.4 163.3)" gradientUnits="userSpaceOnUse">
<stop stop-color="#52351b" offset="0"/>
<stop stop-color="#c57e4b" offset=".6"/>
</radialGradient>
<radialGradient id="n" cx="0" cy="0" r="819.2" gradientTransform="matrix(.0047 .007 -.0088 .0112 319.5 124.25)" gradientUnits="userSpaceOnUse">
<stop stop-color="#c57e4b" offset="0"/>
<stop stop-color="#412f18" offset=".52157"/>
</radialGradient>
<radialGradient id="m" cx="0" cy="0" r="819.2" gradientTransform="matrix(.0016 .0024 -.0031 .0039 306.15 142.8)" gradientUnits="userSpaceOnUse">
<stop stop-color="#412f18" offset="0"/>
<stop stop-color="#b98046" offset=".59608"/>
</radialGradient>
<radialGradient id="l" cx="0" cy="0" r="819.2" gradientTransform="matrix(.0109 .0165 -.0206 .0261 286.5 164.65)" gradientUnits="userSpaceOnUse">
<stop stop-color="#412f18" offset="0"/>
<stop stop-color="#b98046" offset=".59608"/>
</radialGradient>
<radialGradient id="k" cx="0" cy="0" r="819.2" gradientTransform="matrix(.011 .0166 -.0208 .0264 287.85 167.05)" gradientUnits="userSpaceOnUse">
<stop stop-color="#412f18" offset="0"/>
<stop stop-color="#b98046" offset=".59608"/>
</radialGradient>
<g id="g" transform="translate(-280.8,-120.65)">
<path d="m316.15 135.4-3.4 1.9-1.45 3.4 3.3 0.75 2.7-0.45-1 0.85-4.95 1.55-4.75-0.05-1.35-3.3 2.25-4.8q2.55-1.45 5.05-2.8l4.45-0.15 1.25 1.9-0.65 0.4-1.45 0.8m-5.3 1.7 0.35-1.7-3.6 2.45 3.25-0.75" fill="#b98046" fill-rule="evenodd"/>
<path d="m316.3 141.85-2 1.85-3.15 2.1-4.4 0.25-1.8 0.65-2.15-3.3 1.3-3.8 3.4-4.35-2.25 4.8 1.35 3.3 4.75 0.05 4.95-1.55m1.3-7.25-1.05 4.1-0.4-3.3 1.45-0.8" fill="#412f18" fill-rule="evenodd"/>
<path d="m310.85 137.1-3.25 0.75 3.6-2.45-0.35 1.7" fill="#fad463" fill-rule="evenodd"/>
<path d="m316.15 135.4-3.4 1.9-1.45 3.4 3.3 0.75 2.7-0.45-1 0.85-2 1.85-3.15 2.1-4.4 0.25-1.8 0.65-2.15-3.3 1.3-3.8 3.4-4.35q2.55-1.45 5.05-2.8l4.45-0.15 1.25 1.9-0.65 0.4-1.05 4.1-0.4-3.3 1.45-0.8m-10.1 0.65-2.25 4.8 1.35 3.3 4.75 0.05 4.95-1.55m-5.45-4.75-3.25 0.75 3.6-2.45-0.35 1.7" fill="none" stroke="#000" stroke-linecap="round" stroke-linejoin="round" stroke-opacity=".25098" stroke-width=".05"/>
<path d="m315.65 126.65q-0.6 1.5-0.35 2.6t1.2 1.15 2.1-0.95q1.05-1 1.65-2.5 0.6-1.45 0.35-2.6-0.25-1.1-1.2-1.15t-2.1 0.95q-1.05 1.05-1.65 2.5" fill="#003c00" fill-rule="evenodd"/>
<path d="m317.8 124.5-0.35 0.3-0.45 0.4-0.3 0.4-0.6 1.15q-0.35 0.85-0.3 1.5l0.05 0.55q0.2 0.8 0.9 0.85h0.4l0.5-0.2 0.8-1.25 0.2-0.75 0.2-0.55 0.15-0.95-0.25-0.95q-0.35-0.4-0.95-0.5m-0.95 4.5q-0.15-0.05-0.15-0.5l0.05-0.15 0.2-0.3q0.65-0.25 0.5 0.6l-0.2 0.3-0.4 0.05m-0.05-2h-0.05q0.1-0.5 0.5-1.15 0.6-0.9 1.1-0.6 0.35 0.3 0.1 0.85-0.15 0.05-0.2-0.1l-0.25-0.15-0.25 0.2q-0.3 0.5-0.2 0.85l0.05 0.1q-0.5 0.5-0.75 0.15l-0.05-0.1v-0.05 0.3l-0.1-0.4 0.1 0.1" fill="url(#j)" fill-rule="evenodd"/>
<path d="m317.65 129.45 0.2-0.1 0.55-0.4 0.9-1.2 0.45-0.75 0.3-1.2v-0.75l-0.05-0.1-0.1-0.35-0.05-0.15-0.3-0.25v-0.05l-0.2-0.05-0.25-0.1q-0.65 0-1.3 0.5 0.6 0.1 0.95 0.5l0.25 0.95-0.15 0.95-0.2 0.55-0.2 0.75-0.8 1.25" fill="#159971" fill-rule="evenodd"/>
<path d="m316.85 129 0.4-0.05 0.2-0.3q0.15-0.85-0.5-0.6l-0.2 0.3-0.05 0.15q0 0.45 0.15 0.5m-0.05-2v0.05l0.05 0.1q0.25 0.35 0.75-0.15l-0.05-0.1q-0.1-0.35 0.2-0.85l0.25-0.2 0.25 0.15q0.05 0.15 0.2 0.1 0.25-0.55-0.1-0.85-0.5-0.3-1.1 0.6-0.4 0.65-0.5 1.15h0.05" fill="#fff" fill-rule="evenodd"/>
<path d="m316.8 127-0.1-0.1 0.1 0.4v-0.3" fill="#7ceb8c" fill-rule="evenodd"/>
<path d="m317.8 124.5-0.35 0.3-0.45 0.4-0.3 0.4-0.6 1.15q-0.35 0.85-0.3 1.5l0.05 0.55q0.2 0.8 0.9 0.85h0.4l0.5-0.2 0.2-0.1 0.55-0.4 0.9-1.2 0.45-0.75 0.3-1.2v-0.75l-0.05-0.1-0.1-0.35-0.05-0.15-0.3-0.25v-0.05l-0.2-0.05-0.25-0.1q-0.65 0-1.3 0.5z" fill="none" stroke="#000" stroke-linecap="round" stroke-linejoin="round" stroke-opacity=".24314" stroke-width=".05"/>
<path d="m316.25 129.65-0.25 0.65-1.35 1.75h-0.7l-1.05 1.75-1.75-0.05v-5.25l0.95-2.1 1.45-2.1 1.4-1.55 2.3-0.65 0.3 0.45-1.1 1.4 0.3 0.45 0.2 2.9-0.2 0.7-0.5 1.65m-0.15-6.25 0.35 0.55-0.35-0.55m-8.6 11.75 2.2 0.5 3.25-0.65 1.8-1 4.1-5.15-1.45 3.95-1.3 1.7-1.65 1.6-2.6 1.15-3.35-0.45-0.3-0.25-0.7-1.4m3.9 4.35-0.55 3.1-1.1 1-2.55 0.75-4.65-0.45-1.75-2.65 2.75 0.7 5-0.1 1.65-2.15 0.8-0.05 0.4-0.15m2.1-7.45-0.5-0.05-0.9-2.65-0.05 3.5 0.9 0.05 0.55-0.85h0.45-0.45m-31.4 33.6 1.65-1.55 1.6-0.55h4.85l0.55-0.5 0.8-0.3-0.3 1.7-2.25 1.45-3.95-0.6-2.95 0.35" fill="#c57e4b" fill-rule="evenodd"/>
<path d="m310.2 139.7-2.9 0.2-2.55-1.65 0.6-2.2 1.1-1.85 1.25-1.1 1.4-0.9 0.65 0.05-2.35 2.85 0.1 0.05 0.8 1.6 0.2 0.05 3.35 0.45 2.6-1.15 1.65-1.6 1.3-1.7-0.15 0.35-1.55 3-1.5 1.85-2.8 1.5-0.4 0.15-0.8 0.05m0.65 2.9-0.2 0.85-0.8 1.65-1.6 1.85-1.1 0.8-1.5 0.7q-2.1-1.2-4.25-2.3l-2 0.2-1.9 1.1-0.2 0.25-0.2-1.45 0.05-0.25 0.3-1.45 1.2-1.55 2.15-1.75 1.75 2.65 4.65 0.45 2.55-0.75 1.1-1m-29.25 24.25 0.5-1.2 2.95-0.35 3.95 0.6 2.25-1.45 0.3-1.7 3.05-3.05-0.95 3.35 0.25 0.35-1.15 2-2 1.95-1.95 0.55-2.25-0.1-0.3 0.1 0.1-0.1-2.9-0.1-0.7 0.9-1.15-1.75m4.75 0.95h0.2-0.2" fill="#5b371e" fill-rule="evenodd"/>
<path d="m316.75 128-0.05 0.8-0.45 0.85 0.5-1.65" fill="#f2c35d" fill-rule="evenodd"/>
<path d="m313.5 132.05-0.55 0.85-0.9-0.05 0.05-3.5 0.9 2.65 0.5 0.05" fill="#002b00" fill-rule="evenodd"/>
<path d="m308.2 136.55 0.3 0.25-0.2-0.05-0.1-0.2" fill="#744e26" fill-rule="evenodd"/>
<path d="m302.55 149.6 0.15 1.15-0.4 1.5-0.45 1-0.6 0.75 0.2-1.2-1.15-0.35 2.25-2.85" fill="#322010" fill-rule="evenodd"/>
<path d="m316.25 129.65-0.25 0.65-1.35 1.75h-0.7l-1.05 1.75-1.75-0.05v-5.25l0.95-2.1 1.45-2.1 1.4-1.55 2.3-0.65 0.3 0.45-1.1 1.4 0.3 0.45 0.2 2.9-0.2 0.7-0.05 0.8-0.45 0.85 0.5-1.65m-0.3-4.05-0.35-0.55m-5.9 16.3-2.9 0.2-2.55-1.65 0.6-2.2 1.1-1.85 1.25-1.1 1.4-0.9 0.65 0.05-2.35 2.85 0.1 0.05 2.2 0.5 3.25-0.65 1.8-1 4.1-5.15-1.45 3.95-0.15 0.35-1.55 3-1.5 1.85-2.8 1.5-0.55 3.1-0.2 0.85-0.8 1.65-1.6 1.85-1.1 0.8-1.5 0.7q-2.1-1.2-4.25-2.3l-2 0.2-1.9 1.1-0.2 0.25-0.2-1.45 0.05-0.25 0.3-1.45 1.2-1.55 2.15-1.75 2.75 0.7 5-0.1 1.65-2.15 0.8-0.05 0.4-0.15m2.1-7.45-0.5-0.05-0.9-2.65-0.05 3.5 0.9 0.05 0.55-0.85h0.45m-32.35 34.8 0.5-1.2 1.65-1.55 1.6-0.55h4.85l0.55-0.5 0.8-0.3 3.05-3.05-0.95 3.35 0.25 0.35-1.15 2-2 1.95-1.95 0.55-2.25-0.1h-0.2l-2.9-0.1-0.7 0.9m3.5-0.7 0.1-0.1" fill="none" stroke="#000" stroke-linecap="round" stroke-linejoin="round" stroke-opacity=".25098" stroke-width=".05"/>
<path d="m302.55 149.6 0.15 1.15-0.4 1.5-0.45 1-0.6 0.75 0.2-1.2-1.15-0.35 2.25-2.85" fill="none" stroke="#000" stroke-linecap="round" stroke-linejoin="round" stroke-width=".05"/>
<path d="m308.2 136.75h-0.05l-0.1-0.15 0.2-0.2 0.1 0.05 0.05 0.15-0.2 0.15" fill="#c8915b" fill-rule="evenodd"/>
<path d="m308.35 136.45 0.2-0.1q0.25 0 0.15 0.35t-0.35 0.3q-0.25 0-0.15-0.25l0.2-0.15-0.05-0.15m1.7-0.05q0.2-0.05 0.05 0.25l-0.25 0.35q-0.3-0.05-0.15-0.3l0.35-0.3m-1 0.75q-0.2-0.15-0.1-0.4 0.1-0.3 0.35-0.25 0.25 0.1 0.05 0.4l-0.3 0.25m5.2-1.65 0.05 0.4-0.4 0.35q-0.2-0.05-0.05-0.35l0.4-0.4m-0.8 0.8-0.25 0.3q-0.25-0.1-0.1-0.4l0.35-0.3q0.2 0 0 0.4m-0.8 0.25q0.25-0.05 0.15 0.25l-0.4 0.35q-0.25 0.05-0.1-0.25 0.1-0.3 0.35-0.35m-0.7 0v0.25l-0.2 0.2-0.05-0.3 0.25-0.15m-1.65 0.1q0.05-0.3 0.25-0.3t0.05 0.35l-0.3 0.25v-0.3m0.7 0.4q-0.25 0.05-0.15-0.4 0.2-0.4 0.4-0.3l0.1 0.4-0.35 0.3m4.9-2.85q-0.15 0-0.05-0.3 0.15-0.25 0.35-0.3v0.3l-0.3 0.3m-0.1 0.7-0.35 0.35q-0.25-0.05-0.15-0.4 0.15-0.35 0.4-0.35l0.1 0.4m-1.3 0.65q0.1-0.35 0.35-0.3 0.25-0.05 0.15 0.3l-0.35 0.35q-0.25 0.05-0.15-0.35m-4.25 7.35q-0.2-0.05-0.05-0.4 0.1-0.35 0.35-0.4 0.3 0 0.1 0.4l-0.4 0.4m-0.7 0.8 0.2-0.25 0.1 0.25-0.25 0.25q-0.15 0-0.05-0.25m-1.05 0.8q-0.25 0.05-0.1-0.4 0.2-0.45 0.45-0.4t0.1 0.45l-0.45 0.35m-0.25-0.45-0.3 0.25-0.05-0.25q0.1-0.3 0.3-0.3l0.05 0.3m-0.75 0.5-0.1-0.15q0.05-0.2 0.25-0.2v0.2l-0.15 0.15m-0.4-0.5q0.25 0 0.05 0.35-0.05 0.4-0.3 0.45-0.3-0.05-0.15-0.4 0.15-0.4 0.4-0.4m-3.95-0.1-0.3 0.35q-0.25 0-0.05-0.3 0.1-0.4 0.35-0.4 0.2-0.05 0 0.35m1.1-0.4 0.1 0.4-0.35 0.35q-0.25 0-0.1-0.35l0.35-0.4m-0.75 0.65v-0.2l0.15-0.15 0.1 0.2-0.25 0.15m-0.6-0.6-0.4 0.35q-0.2 0-0.1-0.3 0.1-0.35 0.4-0.4 0.25 0 0.1 0.35m-1.5-0.1q-0.25 0.05-0.05-0.35 0.1-0.4 0.4-0.35 0.2 0.05 0.05 0.4l-0.4 0.3m0.5-0.05q0.15-0.45 0.45-0.45 0.25 0 0.1 0.45l-0.4 0.4q-0.25 0-0.15-0.4m4.2 1.2q-0.2 0-0.05-0.2l0.25-0.3 0.05 0.25-0.25 0.25m-1.35-0.95 0.15-0.15 0.05 0.2-0.15 0.15q-0.1 0-0.05-0.2m1.05 0.1q0.25 0.05 0.05 0.45l-0.45 0.5q-0.25-0.05 0-0.45 0.15-0.45 0.4-0.5m-21.45 20.95q0.25-0.05 0.1 0.3 0.3 0.05 0.2 0.5l-0.4 0.4q-0.3 0-0.2-0.4l-0.05-0.05q-0.15 0.05-0.05-0.35 0.15-0.35 0.4-0.4m2.65 0.65-0.35 0.35q-0.25 0.05-0.1-0.3 0.1-0.35 0.3-0.35 0.25-0.05 0.15 0.3m0.3-0.2 0.15 0.35-0.35 0.35q-0.25 0-0.15-0.35 0.05-0.4 0.35-0.35m3.8-0.35q-0.25-0.1-0.15-0.45l0.45-0.4q0.25 0.05 0.05 0.45l-0.35 0.4m-0.55 0.2q-0.25-0.05-0.05-0.3l0.25-0.3q0.25-0.05 0.1 0.3l-0.3 0.3m-2.75 1-0.5 0.5q-0.35-0.1-0.1-0.5 0.2-0.4 0.5-0.5t0.1 0.5m0.3-0.2q0.1-0.4 0.35-0.4 0.3 0 0.1 0.4l-0.4 0.4q-0.2-0.05-0.05-0.4m1.3-0.65q0.25-0.05 0.15 0.35l-0.4 0.4q-0.25 0-0.15-0.35 0.15-0.4 0.4-0.4m0.2 0.25 0.2-0.25 0.15 0.25-0.2 0.2q-0.2 0.05-0.15-0.2m-3.8 0.3-0.25 0.25q-0.2 0-0.1-0.25l0.3-0.3q0.2 0 0.05 0.3m-0.35-0.8q0.25-0.1 0.15 0.35l-0.4 0.35q-0.25-0.05-0.1-0.35 0.2-0.35 0.35-0.35" fill="#dbb997" fill-rule="evenodd"/>
<path d="m314.6 129.1-0.6 1.35-0.8-1.25v-1.4l0.65-1.2 0.75 2.5" fill="#f2c35d" fill-rule="evenodd"/>
<path d="m295.2 152.6q0.75-1 1.6-1.25 0.9-0.3 1.3 0.4 0.45 0.55 0.1 1.75-0.25 1.15-1 2.15-0.8 0.95-1.65 1.25-0.8 0.25-1.25-0.35-0.4-0.65-0.15-1.8 0.25-1.2 1.05-2.15" fill="#003c00" fill-rule="evenodd"/>
<path d="m294.55 155 0.1-0.35 0.1-0.5 0.15-0.35 0.55-0.85 0.95-0.8 0.35-0.2q0.6-0.15 0.95 0.3v0.05l0.15 0.25 0.1 0.4-0.6 1-0.4 0.5-0.3 0.3-0.6 0.5-0.75 0.2q-0.45-0.1-0.75-0.45m2.7-2.45-0.4 0.1-0.05 0.05-0.15 0.35 0.6 0.05 0.15-0.25-0.15-0.3m-1.35 0.75-0.6 0.75q-0.4 0.8 0 1.05l0.6-0.25-0.1-0.15-0.25-0.1 0.05-0.2q0.25-0.45 0.55-0.5h0.05q0.15-0.55-0.2-0.6h-0.1l0.2-0.1-0.3 0.1h0.1" fill="url(#an)" fill-rule="evenodd"/>
<path d="m297.95 152.95-0.05 0.15-0.05 0.55-0.45 1.1-0.35 0.6-0.7 0.65q-0.15 0.15-0.35 0.25l-0.15 0.05-0.1 0.05-0.3 0.05h-0.1l-0.3-0.05v-0.05l-0.15-0.05-0.15-0.15v-0.05q-0.25-0.4-0.2-1.05 0.3 0.35 0.75 0.45l0.75-0.2 0.6-0.5 0.3-0.3 0.4-0.5 0.6-1" fill="#159971" fill-rule="evenodd"/>
<path d="m297.25 152.55 0.15 0.3-0.15 0.25-0.6-0.05 0.15-0.35 0.05-0.05 0.4-0.1m-1.35 0.75h0.1q0.35 0.05 0.2 0.6h-0.05q-0.3 0.05-0.55 0.5l-0.05 0.2 0.25 0.1 0.1 0.15-0.6 0.25q-0.4-0.25 0-1.05l0.6-0.75" fill="#fff" fill-rule="evenodd"/>
<path d="m295.9 153.3h-0.1l0.3-0.1-0.2 0.1" fill="#7ceb8c" fill-rule="evenodd"/>
<path d="m294.55 155 0.1-0.35 0.1-0.5 0.15-0.35 0.55-0.85 0.95-0.8 0.35-0.2q0.6-0.15 0.95 0.3v0.05l0.15 0.25 0.1 0.4-0.05 0.15-0.05 0.55-0.45 1.1-0.35 0.6-0.7 0.65q-0.15 0.15-0.35 0.25l-0.15 0.05-0.1 0.05-0.3 0.05h-0.1l-0.3-0.05v-0.05l-0.15-0.05-0.15-0.15v-0.05q-0.25-0.4-0.2-1.05z" fill="none" stroke="#000" stroke-linecap="round" stroke-linejoin="round" stroke-opacity=".24314" stroke-width=".05"/>
</g>
<radialGradient id="j" cx="0" cy="0" r="819.2" gradientTransform="matrix(.0044 3e-4 .0027 -.0069 317.9 124.5)" gradientUnits="userSpaceOnUse">
<stop stop-color="#159971" offset="0"/>
<stop stop-color="#93fe92" offset=".60392"/>
<stop stop-color="#f2fff2" offset=".98824"/>
</radialGradient>
<radialGradient id="an" cx="0" cy="0" r="819.2" gradientTransform="matrix(.0019 .0029 -.0036 .0046 294.6 155.1)" gradientUnits="userSpaceOnUse">
<stop stop-color="#159971" offset="0"/>
<stop stop-color="#93fe92" offset=".60392"/>
<stop stop-color="#f2fff2" offset=".98824"/>
</radialGradient>
<g id="f" transform="translate(-279.05,-244.7)">
<path d="m281.75 260.8 1.15 0.2-1.35-2.05 0.2 1.85m-2.7-6.2 2.5-0.5 3.75 1.9 1.05 1.05 2.05 3.45 0.3 2.4 2.2 1.3-1.15 0.1 1.95 1.25 1.35 2.4 0.35 2.15 3.55-1.7 0.1-0.05-0.1-2.85-5.15-4.45-1.3-2.75-3.6-4.35-6.55-1.15-1.3 1.8" fill="#52351b" fill-rule="evenodd"/>
<path d="m288.7 262.9-1.25 0.2 0.25 1.5 2.05-0.3 1.15-0.1-2.2-1.3" fill="#f2c35d" fill-rule="evenodd"/>
<path d="m281.75 260.8-0.8-0.25 1.9 2.25 3.75 1.4 0.05 1.1 0.8 1.35 1.55 1.9 3 1.5 1.4 0.05-0.35-2.15-1.35-2.4-1.95-1.25-2.05 0.3-0.25-1.5 1.25-0.2-0.3-2.4-2.05-3.45-1.05-1.05-3.75-1.9-2.5 0.5 2.95 0.4 2.65 2.95 0.9 1.55-1.15 1.95-1.5-0.45-1.15-0.2" fill="url(#am)" fill-rule="evenodd"/>
<path d="m293.4 270.1-1.4-0.05-3-1.5-1.55-1.9-0.8-1.35-0.05-1.1-3.75-1.4-1.9-2.25 0.8 0.25 1.15 0.2 1.5 0.45 1.15-1.95-0.9-1.55-2.65-2.95-2.95-0.4 2.5-0.5 3.75 1.9 1.05 1.05 2.05 3.45 0.3 2.4-1.25 0.2 0.25 1.5 2.05-0.3 1.95 1.25 1.35 2.4 0.35 2.15 3.55-1.7 0.1-0.05-0.1-2.85-5.15-4.45-1.3-2.75-3.6-4.35-6.55-1.15-1.3 1.8m10.7 9.7 1.15-0.1-2.2-1.3m-6.95-2.1-0.2-1.85 1.35 2.05" fill="none" stroke="#000" stroke-linecap="round" stroke-linejoin="round" stroke-opacity=".25098" stroke-width=".05"/>
<path d="m317.2 282.15-3.3-3.95h-3.6l3.7 4.75 3.2-0.8" fill="#c57e4b" fill-rule="evenodd"/>
<path d="m310.3 278.2h3.6l3.3 3.95 0.05-5.2-6.65-2.3-0.3 3.55m-21.2-29-1.9-1.2 0.35 1.5 1.55-0.3m-2.65-4.35-0.6-0.15-4.2 6.3 0.2 0.8 4.6-6.95m-2.3 7.7 1.05 2.5 0.15-2.2-1.2-0.3" fill="#412f18" fill-rule="evenodd"/>
<path d="m305.05 273.8-0.7-0.85-0.35 0.6-0.35 0.55 0.65 0.85 0.2-0.75 0.55-0.4" fill="#523a1e" fill-rule="evenodd"/>
<path d="m287.2 248-0.75-3.15-4.6 6.95 2.3 0.75 1.2 0.3 1.15 0.4 0.7-1.05 0.75-1.1-0.4-1.6-0.35-1.5" fill="#b98046" fill-rule="evenodd"/>
<path d="m315.05 293.45q1.85 2.4 3.8 3.15t2.8-0.6q0.85-1.3 0.15-3.9t-2.55-5l-2.45-2.4-1.35-0.75q-1.95-0.75-2.8 0.6-0.9 1.35-0.2 3.9l0.65 1.85q0.75 1.65 1.95 3.15" fill="url(#al)" fill-rule="evenodd"/>
<path d="m304.3 274.95 0.1 0.65q0.2 0.95 0.8 1.75 0.7 0.85 1.35 1.05 0.7 0.2 1-0.35 0.4-0.5 0.15-1.45l-0.85-1.7-1.3-1-0.5-0.05v-0.05l-0.55 0.4-0.2 0.75" fill="url(#ak)" fill-rule="evenodd"/>
<path d="m285.2 255.05 4.05 2.25 10.1 15.9 1.95 0.7 1.95 0.75 0.4-0.55 0.35-0.55-16.8-21.35-0.7 1.05-1.15-0.4-0.15 2.2m17.65 18.45-3.25-1.4-9.15-14.4 9.15 14.4 3.25 1.4" fill="url(#aj)" fill-rule="evenodd"/>
<path d="m304.35 272.95 0.4-0.55-1.4-5.3-12.25-12.5-2-5.4-1.55 0.3 0.4 1.6-0.75 1.1 16.8 21.35 0.35-0.6m-12.9-17 11.4 12 0.85 3.5-0.85-3.5-11.4-12" fill="url(#ai)" fill-rule="evenodd"/>
<path d="m315.05 293.45q1.85 2.4 3.8 3.15t2.8-0.6q0.85-1.3 0.15-3.9t-2.55-5l-2.45-2.4-1.35-0.75q-1.95-0.75-2.8 0.6-0.9 1.35-0.2 3.9l0.65 1.85q0.75 1.65 1.95 3.15m-4.75-15.25h3.6l3.3 3.95-3.2 0.8-3.7-4.75 0.3-3.55 6.65 2.3-0.05 5.2m-12.9-7.2 0.1 0.65q0.2 0.95 0.8 1.75 0.7 0.85 1.35 1.05 0.7 0.2 1-0.35 0.4-0.5 0.15-1.45l-0.85-1.7-1.3-1-0.5-0.05v-0.05l-0.7-0.85 0.4-0.55-1.4-5.3-12.25-12.5-2-5.4-1.9-1.2-0.75-3.15-0.6-0.15m-4.2 6.3 0.2 0.8 2.3 0.75 1.05 2.5 4.05 2.25m12.05 16.6 1.95 0.75 0.4-0.55 0.65 0.85 0.2-0.75 0.55-0.4m-1.4 0.3 0.35-0.55 0.35-0.6m-17.15-20.75 0.75-1.1-0.4-1.6 1.55-0.3m-1.9-1.2 0.35 1.5m-2.2 3.35 1.15 0.4 0.7-1.05 16.8 21.35m-18.65-20.7-0.15 2.2m-1.05-2.5 1.2 0.3m-3.5-1.05 4.6-6.95" fill="none" stroke="#000" stroke-linecap="round" stroke-linejoin="round" stroke-opacity=".25098" stroke-width=".05"/>
<path d="m303.7 271.45-0.85-3.5-11.4-12m-1 1.75 9.15 14.4 3.25 1.4" fill="none" stroke="#e1cbb5" stroke-linecap="round" stroke-linejoin="round" stroke-width=".05"/>
<path d="m296.25 259.55-6.5-8.25-2.4 3.6 6.5 8.25 2.4-3.6" fill="#52351b" fill-rule="evenodd"/>
<path d="m296.25 259.55-6.5-8.25-2.4 3.6 6.5 8.25z" fill="none" stroke="#000" stroke-linecap="round" stroke-linejoin="round" stroke-opacity=".25098" stroke-width=".05"/>
<path d="m304.05 270.6-4.8-6.1-2.4 3.6 4.8 6.1 2.4-3.6" fill="#52351b" fill-rule="evenodd"/>
<path d="m304.05 270.6-4.8-6.1-2.4 3.6 4.8 6.1z" fill="none" stroke="#000" stroke-linecap="round" stroke-linejoin="round" stroke-opacity=".25098" stroke-width=".05"/>
</g>
<radialGradient id="am" cx="0" cy="0" r="819.2" gradientTransform="matrix(.0132 -.0076 -.0121 -.021 281.4 254.6)" gradientUnits="userSpaceOnUse">
<stop stop-color="#52351b" offset="0"/>
<stop stop-color="#c57e4b" offset=".6"/>
</radialGradient>
<radialGradient id="al" cx="0" cy="0" r="819.2" gradientTransform="matrix(.0047 -.007 -.0088 -.0112 319.5 293.65)" gradientUnits="userSpaceOnUse">
<stop stop-color="#c57e4b" offset="0"/>
<stop stop-color="#412f18" offset=".52157"/>
</radialGradient>
<radialGradient id="ak" cx="0" cy="0" r="819.2" gradientTransform="matrix(.0016 -.0024 -.0031 -.0039 306.15 275.1)" gradientUnits="userSpaceOnUse">
<stop stop-color="#412f18" offset="0"/>
<stop stop-color="#b98046" offset=".59608"/>
</radialGradient>
<radialGradient id="aj" cx="0" cy="0" r="819.2" gradientTransform="matrix(.0109 -.0165 -.0206 -.0261 286.5 253.25)" gradientUnits="userSpaceOnUse">
<stop stop-color="#412f18" offset="0"/>
<stop stop-color="#b98046" offset=".59608"/>
</radialGradient>
<radialGradient id="ai" cx="0" cy="0" r="819.2" gradientTransform="matrix(.011 -.0166 -.0208 -.0264 287.85 250.85)" gradientUnits="userSpaceOnUse">
<stop stop-color="#412f18" offset="0"/>
<stop stop-color="#b98046" offset=".59608"/>
</radialGradient>
<g id="e" transform="translate(-280.8,-243.35)">
<path d="m316.15 282.5q-1.65-1-3.4-1.9l-1.45-3.4 3.3-0.75 2.7 0.45-1-0.85-4.95-1.55-4.75 0.05-1.35 3.3 2.25 4.8 5.05 2.8 4.45 0.15 1.25-1.9-0.65-0.4-1.45-0.8m-5.3-1.7 0.35 1.7-3.6-2.45 3.25 0.75" fill="#b98046" fill-rule="evenodd"/>
<path d="m316.3 276.05-2-1.85-3.15-2.1-4.4-0.25-1.8-0.65-2.15 3.3 1.3 3.8 3.4 4.35-2.25-4.8 1.35-3.3 4.75-0.05 4.95 1.55m1.3 7.25-1.05-4.1-0.4 3.3 1.45 0.8" fill="#412f18" fill-rule="evenodd"/>
<path d="m310.85 280.8-3.25-0.75 3.6 2.45-0.35-1.7" fill="#fad463" fill-rule="evenodd"/>
<path d="m316.15 282.5q-1.65-1-3.4-1.9l-1.45-3.4 3.3-0.75 2.7 0.45-1-0.85-2-1.85-3.15-2.1-4.4-0.25-1.8-0.65-2.15 3.3 1.3 3.8 3.4 4.35 5.05 2.8 4.45 0.15 1.25-1.9-0.65-0.4-1.05-4.1-0.4 3.3 1.45 0.8m-10.1-0.65-2.25-4.8 1.35-3.3 4.75-0.05 4.95 1.55m-5.45 4.75-3.25-0.75 3.6 2.45-0.35-1.7" fill="none" stroke="#000" stroke-linecap="round" stroke-linejoin="round" stroke-opacity=".25098" stroke-width=".05"/>
<path d="m315.65 291.25q-0.6-1.5-0.35-2.6t1.2-1.15 2.1 0.95q1.05 1 1.65 2.5 0.6 1.45 0.35 2.6-0.25 1.1-1.2 1.15t-2.1-0.95q-1.05-1.05-1.65-2.5" fill="#003c00" fill-rule="evenodd"/>
<path d="m317.8 293.4-0.35-0.3-0.45-0.4-0.3-0.4-0.6-1.15q-0.35-0.85-0.3-1.5l0.05-0.55q0.2-0.8 0.9-0.85h0.4l0.5 0.2q0.6 0.65 0.8 1.25l0.2 0.75 0.2 0.55 0.15 0.95-0.25 0.95q-0.35 0.4-0.95 0.5m-0.95-4.5q-0.15 0.05-0.15 0.5l0.05 0.15 0.2 0.3q0.65 0.25 0.5-0.6l-0.2-0.3-0.4-0.05m-0.05 2v-0.3l-0.1 0.4 0.1-0.1h-0.05l0.5 1.15q0.6 0.9 1.1 0.6 0.35-0.3 0.1-0.85l-0.2 0.1-0.25 0.15-0.25-0.2q-0.3-0.5-0.2-0.85l0.05-0.1q-0.5-0.5-0.75-0.15l-0.05 0.1v0.05" fill="url(#ah)" fill-rule="evenodd"/>
<path d="m317.65 288.45 0.2 0.1 0.55 0.4 0.9 1.2 0.45 0.75 0.3 1.2v0.75l-0.05 0.1-0.1 0.35-0.05 0.15-0.3 0.25v0.05l-0.2 0.05-0.25 0.1q-0.65 0-1.3-0.5 0.6-0.1 0.95-0.5l0.25-0.95-0.15-0.95-0.2-0.55-0.2-0.75q-0.2-0.6-0.8-1.25" fill="#159971" fill-rule="evenodd"/>
<path d="m316.85 288.9 0.4 0.05 0.2 0.3q0.15 0.85-0.5 0.6l-0.2-0.3-0.05-0.15q0-0.45 0.15-0.5m-0.05 2v-0.05l0.05-0.1q0.25-0.35 0.75 0.15l-0.05 0.1q-0.1 0.35 0.2 0.85l0.25 0.2 0.25-0.15 0.2-0.1q0.25 0.55-0.1 0.85-0.5 0.3-1.1-0.6l-0.5-1.15h0.05" fill="#fff" fill-rule="evenodd"/>
<path d="m316.8 290.9-0.1 0.1 0.1-0.4v0.3" fill="#7ceb8c" fill-rule="evenodd"/>
<path d="m317.8 293.4-0.35-0.3-0.45-0.4-0.3-0.4-0.6-1.15q-0.35-0.85-0.3-1.5l0.05-0.55q0.2-0.8 0.9-0.85h0.4l0.5 0.2 0.2 0.1 0.55 0.4 0.9 1.2 0.45 0.75 0.3 1.2v0.75l-0.05 0.1-0.1 0.35-0.05 0.15-0.3 0.25v0.05l-0.2 0.05-0.25 0.1q-0.65 0-1.3-0.5z" fill="none" stroke="#000" stroke-linecap="round" stroke-linejoin="round" stroke-opacity=".24314" stroke-width=".05"/>
<path d="m316.25 288.25-0.25-0.65-1.35-1.75h-0.7l-1.05-1.75-1.75 0.05v5.25l0.95 2.1 1.45 2.1 1.4 1.55 2.3 0.65 0.3-0.45-1.1-1.4 0.3-0.45 0.2-2.9-0.2-0.7-0.5-1.65m-0.15 6.25 0.35-0.55-0.35 0.55m-8.6-11.75 2.2-0.5 3.25 0.65 1.8 1 4.1 5.15-1.45-3.95-1.3-1.7-1.65-1.6-2.6-1.15-3.35 0.45-0.3 0.25-0.7 1.4m3.9-4.35-0.55-3.1-1.1-1-2.55-0.75-4.65 0.45-1.75 2.65 2.75-0.7 5 0.1 1.65 2.15 0.8 0.05 0.4 0.15m2.1 7.45-0.5 0.05-0.9 2.65-0.05-3.5 0.9-0.05 0.55 0.85h0.45-0.45m-31.4-33.6 1.65 1.55 1.6 0.55h4.85l0.55 0.5 0.8 0.3-0.3-1.7-2.25-1.45-3.95 0.6-2.95-0.35" fill="#c57e4b" fill-rule="evenodd"/>
<path d="m310.2 278.2-2.9-0.2-2.55 1.65 0.6 2.2 1.1 1.85 1.25 1.1 1.4 0.9 0.65-0.05-2.35-2.85 0.1-0.05 0.8-1.6 0.2-0.05 3.35-0.45 2.6 1.15 1.65 1.6 1.3 1.7-0.15-0.35-1.55-3-1.5-1.85-2.8-1.5-0.4-0.15-0.8-0.05m0.65-2.9-0.2-0.85-0.8-1.65-1.6-1.85-1.1-0.8-1.5-0.7-4.25 2.3-2-0.2-1.9-1.1-0.2-0.25-0.2 1.45 0.05 0.25 0.3 1.45 1.2 1.55 2.15 1.75 1.75-2.65 4.65-0.45 2.55 0.75 1.1 1m-28.75-23.05 2.95 0.35 3.95-0.6 2.25 1.45 0.3 1.7 3.05 3.05-0.95-3.35 0.25-0.35-1.15-2-2-1.95-1.95-0.55-2.25 0.1-0.3-0.1 0.1 0.1-2.9 0.1-0.7-0.9-1.15 1.75 0.5 1.2m4.25-2.15h0.2-0.2" fill="#5b371e" fill-rule="evenodd"/>
<path d="m316.75 289.9-0.05-0.8-0.45-0.85 0.5 1.65" fill="#f2c35d" fill-rule="evenodd"/>
<path d="m313.5 285.85-0.55-0.85-0.9 0.05 0.05 3.5 0.9-2.65 0.5-0.05" fill="#002b00" fill-rule="evenodd"/>
<path d="m308.2 281.35 0.3-0.25-0.2 0.05-0.1 0.2" fill="#744e26" fill-rule="evenodd"/>
<path d="m302.55 268.3 0.15-1.15-0.4-1.5-0.45-1-0.6-0.75 0.2 1.2-1.15 0.35 2.25 2.85" fill="#322010" fill-rule="evenodd"/>
<path d="m316.25 288.25-0.25-0.65-1.35-1.75h-0.7l-1.05-1.75-1.75 0.05v5.25l0.95 2.1 1.45 2.1 1.4 1.55 2.3 0.65 0.3-0.45-1.1-1.4 0.3-0.45 0.2-2.9-0.2-0.7-0.05-0.8-0.45-0.85 0.5 1.65m-0.3 4.05-0.35 0.55m-5.9-16.3-2.9-0.2-2.55 1.65 0.6 2.2 1.1 1.85 1.25 1.1 1.4 0.9 0.65-0.05-2.35-2.85 0.1-0.05 2.2-0.5 3.25 0.65 1.8 1 4.1 5.15-1.45-3.95-0.15-0.35-1.55-3-1.5-1.85-2.8-1.5-0.55-3.1-0.2-0.85-0.8-1.65-1.6-1.85-1.1-0.8-1.5-0.7-4.25 2.3-2-0.2-1.9-1.1-0.2-0.25-0.2 1.45 0.05 0.25 0.3 1.45 1.2 1.55 2.15 1.75 2.75-0.7 5 0.1 1.65 2.15 0.8 0.05 0.4 0.15m2.1 7.45-0.5 0.05-0.9 2.65-0.05-3.5 0.9-0.05 0.55 0.85h0.45m-22.4-30.7-0.8-0.3-0.55-0.5h-4.85l-1.6-0.55-1.65-1.55m9.45 2.9 3.05 3.05-0.95-3.35 0.25-0.35-1.15-2-2-1.95-1.95-0.55-2.25 0.1h-0.2l-2.9 0.1-0.7-0.9m3.5 0.7 0.1 0.1m-4.75 0.95 0.5 1.2" fill="none" stroke="#000" stroke-linecap="round" stroke-linejoin="round" stroke-opacity=".25098" stroke-width=".05"/>
<path d="m302.55 268.3 0.15-1.15-0.4-1.5-0.45-1-0.6-0.75 0.2 1.2-1.15 0.35 2.25 2.85" fill="none" stroke="#000" stroke-linecap="round" stroke-linejoin="round" stroke-width=".05"/>
<path d="m308.2 281.15h-0.05l-0.1 0.15 0.2 0.2 0.1-0.05 0.05-0.15-0.2-0.15" fill="#c8915b" fill-rule="evenodd"/>
<path d="m308.35 281.45q0.1 0.15 0.2 0.1 0.25 0 0.15-0.35t-0.35-0.3q-0.25 0-0.15 0.25l0.2 0.15-0.05 0.15m1.7 0.05q0.2 0.05 0.05-0.25l-0.25-0.35q-0.3 0.05-0.15 0.3l0.35 0.3m-1-0.75q-0.2 0.15-0.1 0.4 0.1 0.3 0.35 0.25 0.25-0.1 0.05-0.4l-0.3-0.25m5.2 1.65 0.05-0.4q-0.15-0.35-0.4-0.35-0.2 0.05-0.05 0.35l0.4 0.4m-0.8-0.8-0.25-0.3q-0.25 0.1-0.1 0.4l0.35 0.3q0.2 0 0-0.4m-0.8-0.25 0.15-0.25q-0.1-0.35-0.4-0.35-0.25-0.05-0.1 0.25l0.35 0.35m-0.7 0v-0.25l-0.2-0.2q-0.1 0.1-0.05 0.3l0.25 0.15m-1.65-0.1 0.25 0.3q0.2 0 0.05-0.35l-0.3-0.25v0.3m0.7-0.4q-0.25-0.05-0.15 0.4l0.4 0.3 0.1-0.4q-0.1-0.3-0.35-0.3m4.9 2.85q-0.15 0-0.05 0.3 0.15 0.25 0.35 0.3v-0.3l-0.3-0.3m-0.1-0.7-0.35-0.35q-0.25 0.05-0.15 0.4l0.4 0.35 0.1-0.4m-1.3-0.65q0.1 0.35 0.35 0.3 0.25 0.05 0.15-0.3l-0.35-0.35q-0.25-0.05-0.15 0.35m-4.25-7.35q-0.2 0.05-0.05 0.4l0.35 0.4q0.3 0 0.1-0.4l-0.4-0.4m-0.7-0.8 0.2 0.25 0.1-0.25-0.25-0.25q-0.15 0-0.05 0.25m-1.05-0.8q-0.25-0.05-0.1 0.4 0.2 0.45 0.45 0.4t0.1-0.45l-0.45-0.35m-0.25 0.45-0.3-0.25q-0.15 0-0.05 0.25l0.3 0.3 0.05-0.3m-0.75-0.5q-0.15-0.05-0.1 0.15l0.25 0.2v-0.2l-0.15-0.15m-0.4 0.5q0.25 0 0.05-0.35-0.05-0.4-0.3-0.45-0.3 0.05-0.15 0.4 0.15 0.4 0.4 0.4m-3.95 0.1q-0.05-0.35-0.3-0.35t-0.05 0.3q0.1 0.4 0.35 0.4 0.2 0.05 0-0.35m1.1 0.4 0.1-0.4-0.35-0.35q-0.25 0-0.1 0.35l0.35 0.4m-0.75-0.65v0.2l0.15 0.15 0.1-0.2q-0.1-0.15-0.25-0.15m-0.6 0.6-0.4-0.35q-0.2 0-0.1 0.3l0.4 0.4q0.25 0 0.1-0.35m-1.5 0.1q-0.25-0.05-0.05 0.35 0.1 0.4 0.4 0.35 0.2-0.05 0.05-0.4l-0.4-0.3m0.5 0.05q0.15 0.45 0.45 0.45 0.25 0 0.1-0.45l-0.4-0.4q-0.25 0-0.15 0.4m4.2-1.2q-0.2 0-0.05 0.2l0.25 0.3 0.05-0.25-0.25-0.25m-1.35 0.95 0.15 0.15 0.05-0.2-0.15-0.15q-0.1 0-0.05 0.2m1.05-0.1q0.25-0.05 0.05-0.45l-0.45-0.5q-0.25 0.05 0 0.45 0.15 0.45 0.4 0.5m-21.45-20.95q0.25 0.05 0.1-0.3 0.3-0.05 0.2-0.5l-0.4-0.4q-0.3 0-0.2 0.4l-0.05 0.05q-0.15-0.05-0.05 0.35l0.4 0.4m2.65-0.65-0.35-0.35q-0.25-0.05-0.1 0.3l0.3 0.35q0.25 0.05 0.15-0.3m0.3 0.2 0.15-0.35-0.35-0.35q-0.25 0-0.15 0.35 0.05 0.4 0.35 0.35m3.8 0.35q-0.25 0.1-0.15 0.45l0.45 0.4q0.25-0.05 0.05-0.45l-0.35-0.4m-0.55-0.2q-0.25 0.05-0.05 0.3l0.25 0.3q0.25 0.05 0.1-0.3l-0.3-0.3m-2.75-1-0.5-0.5q-0.35 0.1-0.1 0.5l0.5 0.5q0.3 0.1 0.1-0.5m0.3 0.2q0.1 0.4 0.35 0.4 0.3 0 0.1-0.4l-0.4-0.4q-0.2 0.05-0.05 0.4m1.3 0.65q0.25 0.05 0.15-0.35l-0.4-0.4q-0.25 0-0.15 0.35 0.15 0.4 0.4 0.4m0.2-0.25 0.2 0.25 0.15-0.25-0.2-0.2q-0.2-0.05-0.15 0.2m-3.8-0.3-0.25-0.25q-0.2 0-0.1 0.25l0.3 0.3q0.2 0 0.05-0.3m-0.35 0.8q0.25 0.1 0.15-0.35l-0.4-0.35q-0.25 0.05-0.1 0.35l0.35 0.35" fill="#dbb997" fill-rule="evenodd"/>
<path d="m314.6 288.8-0.6-1.35-0.8 1.25v1.4l0.65 1.2 0.75-2.5" fill="#f2c35d" fill-rule="evenodd"/>
<path d="m295.2 265.3q0.75 1 1.6 1.25 0.9 0.3 1.3-0.4 0.45-0.55 0.1-1.75-0.25-1.15-1-2.15-0.8-0.95-1.65-1.25-0.8-0.25-1.25 0.35-0.4 0.65-0.15 1.8 0.25 1.2 1.05 2.15" fill="#003c00" fill-rule="evenodd"/>
<path d="m294.55 262.9 0.1 0.35 0.1 0.5 0.15 0.35 0.55 0.85 0.95 0.8 0.35 0.2q0.6 0.15 0.95-0.3v-0.05l0.15-0.25 0.1-0.4-0.6-1-0.4-0.5-0.3-0.3-0.6-0.5-0.75-0.2q-0.45 0.1-0.75 0.45m2.7 2.45-0.4-0.1-0.05-0.05-0.15-0.35 0.6-0.05 0.15 0.25-0.15 0.3m-1.35-0.75 0.2 0.1-0.3-0.1h0.1l-0.6-0.75q-0.4-0.8 0-1.05 0.3-0.1 0.6 0.25l-0.1 0.15-0.25 0.1 0.05 0.2q0.25 0.45 0.55 0.5h0.05q0.15 0.55-0.2 0.6h-0.1" fill="url(#ag)" fill-rule="evenodd"/>
<path d="m297.95 264.95-0.05-0.15-0.05-0.55-0.45-1.1-0.35-0.6-0.7-0.65-0.35-0.25-0.15-0.05-0.1-0.05-0.3-0.05h-0.1l-0.3 0.05v0.05l-0.15 0.05-0.15 0.15v0.05q-0.25 0.4-0.2 1.05 0.3-0.35 0.75-0.45l0.75 0.2 0.6 0.5 0.3 0.3 0.4 0.5 0.6 1" fill="#159971" fill-rule="evenodd"/>
<path d="m297.25 265.35 0.15-0.3-0.15-0.25-0.6 0.05 0.15 0.35 0.05 0.05 0.4 0.1m-1.35-0.75h0.1q0.35-0.05 0.2-0.6h-0.05q-0.3-0.05-0.55-0.5l-0.05-0.2 0.25-0.1 0.1-0.15q-0.3-0.35-0.6-0.25-0.4 0.25 0 1.05l0.6 0.75" fill="#fff" fill-rule="evenodd"/>
<path d="m295.9 264.6h-0.1l0.3 0.1-0.2-0.1" fill="#7ceb8c" fill-rule="evenodd"/>
<path d="m294.55 262.9 0.1 0.35 0.1 0.5 0.15 0.35 0.55 0.85 0.95 0.8 0.35 0.2q0.6 0.15 0.95-0.3v-0.05l0.15-0.25 0.1-0.4-0.05-0.15-0.05-0.55-0.45-1.1-0.35-0.6-0.7-0.65-0.35-0.25-0.15-0.05-0.1-0.05-0.3-0.05h-0.1l-0.3 0.05v0.05l-0.15 0.05-0.15 0.15v0.05q-0.25 0.4-0.2 1.05z" fill="none" stroke="#000" stroke-linecap="round" stroke-linejoin="round" stroke-opacity=".24314" stroke-width=".05"/>
</g>
<radialGradient id="ah" cx="0" cy="0" r="819.2" gradientTransform="matrix(.0044 -3e-4 .0027 .0069 317.9 293.4)" gradientUnits="userSpaceOnUse">
<stop stop-color="#159971" offset="0"/>
<stop stop-color="#93fe92" offset=".60392"/>
<stop stop-color="#f2fff2" offset=".98824"/>
</radialGradient>
<radialGradient id="ag" cx="0" cy="0" r="819.2" gradientTransform="matrix(.0019 -.0029 -.0036 -.0046 294.6 262.8)" gradientUnits="userSpaceOnUse">
<stop stop-color="#159971" offset="0"/>
<stop stop-color="#93fe92" offset=".60392"/>
<stop stop-color="#f2fff2" offset=".98824"/>
</radialGradient>
<g id="d" transform="translate(-247.95,-140.55)">
<path d="m251.45 199.9-1.35 1.75q-0.95 1.35-1.45 2.65-0.35 0.95-0.55 1.95-0.45 2.65 0.4 5.4 1.2 3.9 4.45 6.4 1.2 0.95 2.75 1.65 5.3 2.6 11.35 1.45l0.35-0.1 0.25-0.05 2.5-0.8q1.75-0.7 3.25-1.8 1.3-3.75 0.05-6.35l-1.2-3.1-1.25-2.45q-1.1-1.8-3.05-3.75-2-1.9-6.7-2.85t-9.8 0m13.2 18.45q-1.25 0.25-3.75-1.5l-0.3-0.5 0.4-1.65q4.15-2.25 6.6 1.15 0.45 0.8 0 1.7-1.2 1.15-2.95 0.8m-9.55-7 1.15 0.95-2.25-1.3 1.1 0.35-0.15-0.15q-1.75-2-1.45-5.05 0.4-4.65 6.05-4.55 3.65 0.15 4.4 2.65-0.65 0.7-1.9 0.35l-2.55-0.05-1.1 1q-0.25 2.5 2.45 3.7l0.5 0.3q-1.45 2.9-5.1 2.05l-0.9-0.2-0.25-0.05" fill="url(#af)" fill-rule="evenodd"/>
<path d="m273.4 218.4 1.05-0.85 2.3-2.65q2.05-3 2.1-6.15 0.05-1.9-0.55-3.9-0.85-2.75-2.8-4.9l-2.45-2.1-1.15-0.6-0.75-0.4q-1.35-0.6-2.65-1.05l-0.65-0.2-3.45-0.55h-2.15l-2.6 0.4-0.25 0.05q-4.9 1.25-7.95 4.4 5.1-0.95 9.8 0t6.7 2.85q1.95 1.95 3.05 3.75l1.25 2.45 1.2 3.1q1.25 2.6-0.05 6.35" fill="#159971" fill-rule="evenodd"/>
<path d="m264.65 218.35q1.75 0.35 2.95-0.8 0.45-0.9 0-1.7-2.45-3.4-6.6-1.15l-0.4 1.65 0.3 0.5q2.5 1.75 3.75 1.5m-9.55-7 0.25 0.05 0.9 0.2q3.65 0.85 5.1-2.05l-0.5-0.3q-2.7-1.2-2.45-3.7l1.1-1 2.55 0.05q1.25 0.35 1.9-0.35-0.75-2.5-4.4-2.65-5.65-0.1-6.05 4.55-0.3 3.05 1.45 5.05l0.15 0.15" fill="#fff" fill-rule="evenodd"/>
<path d="m255.1 211.35-1.1-0.35 2.25 1.3-1.15-0.95" fill="#7ceb8c" fill-rule="evenodd"/>
<path d="m251.45 199.9-1.35 1.75q-0.95 1.35-1.45 2.65-0.35 0.95-0.55 1.95-0.45 2.65 0.4 5.4 1.2 3.9 4.45 6.4 1.2 0.95 2.75 1.65 5.3 2.6 11.35 1.45l0.35-0.1 0.25-0.05 2.5-0.8q1.75-0.7 3.25-1.8l1.05-0.85 2.3-2.65q2.05-3 2.1-6.15 0.05-1.9-0.55-3.9-0.85-2.75-2.8-4.9l-2.45-2.1-1.15-0.6-0.75-0.4q-1.35-0.6-2.65-1.05l-0.65-0.2-3.45-0.55h-2.15l-2.6 0.4-0.25 0.05q-4.9 1.25-7.95 4.4z" fill="none" stroke="#000" stroke-linecap="round" stroke-linejoin="round" stroke-opacity=".24314" stroke-width=".05"/>
<path d="m257.55 200.1 1.55-0.95-0.2 2.9-1.35-1.95m1.35 7.9 4.6-1 4.25-4.1 0.8-1.7v-4.75l-1.7-2.6 2.3-2.6-2 0.55 2-2.35v-3.25l-1.45-2.5 7.3-0.35 0.25 0.05 2.5 3-4.2 7.5 0.5 3.55-1.7 6.55-9.65 5.05-3.8-1.05" fill="#52351b" fill-rule="evenodd"/>
<path d="m266.85 193.85-2.2 0.55-1.05-1.7 3.55-0.9 2-0.55-2.3 2.6" fill="#f2c35d" fill-rule="evenodd"/>
<path d="m257.55 200.1-1.15 0.7 1.05-3.4 4.75-3.65-0.9-1.1v-1.85l0.7-2.85 3.45-3.35 2.25-0.9 1.45 2.5v3.25l-2 2.35-3.55 0.9 1.05 1.7 2.2-0.55 1.7 2.6v4.75l-0.8 1.7-4.25 4.1-4.6 1q2.25-1.1 4.45-2.1l1.5-4.6 0.05-2.15-3.65-1.3-2.15 1.3-1.55 0.95" fill="url(#ae)" fill-rule="evenodd"/>
<path d="m267.7 183.7-2.25 0.9-3.45 3.35-0.7 2.85v1.85l0.9 1.1-4.75 3.65-1.05 3.4 1.15-0.7 1.55-0.95 2.15-1.3 3.65 1.3-0.05 2.15-1.5 4.6q-2.2 1-4.45 2.1l4.6-1 4.25-4.1 0.8-1.7v-4.75l-1.7-2.6-2.2 0.55-1.05-1.7 3.55-0.9 2-2.35v-3.25l-1.45-2.5 7.3-0.35 0.25 0.05 2.5 3-4.2 7.5 0.5 3.55-1.7 6.55-9.65 5.05-3.8-1.05m8.25-16.2 2-0.55-2.3 2.6m-9.3 6.25 1.35 1.95 0.2-2.9" fill="none" stroke="#000" stroke-linecap="round" stroke-linejoin="round" stroke-opacity=".25098" stroke-width=".05"/>
<path d="m258.9 208.95 3.8-1.05 9.65 5 1.7 6.6-0.5 3.55 4.2 7.5-2.5 2.95-0.25 0.05-7.3-0.3 1.45-2.5v-3.25l-2-2.35 2 0.5-2.3-2.6 1.7-2.55v-4.8l-0.8-1.65-4.25-4.15-4.6-0.95m-1.35 7.85 1.35-1.9 0.2 2.85-1.55-0.95" fill="#52351b" fill-rule="evenodd"/>
<path d="m266.85 223.05 2.3 2.6-2-0.5-3.55-0.95 1.05-1.7 2.2 0.55" fill="#f2c35d" fill-rule="evenodd"/>
<path d="m258.9 208.95 4.6 0.95 4.25 4.15 0.8 1.65v4.8l-1.7 2.55-2.2-0.55-1.05 1.7 3.55 0.95 2 2.35v3.25l-1.45 2.5-2.25-0.9-3.45-3.35-0.7-2.85v-1.9l0.9-1.1-4.75-3.6-1.05-3.4 1.15 0.65 1.55 0.95 2.15 1.35 3.65-1.35-0.05-2.1-1.5-4.6-4.45-2.1" fill="url(#ac)" fill-rule="evenodd"/>
<path d="m267.7 233.25 7.3 0.3 0.25-0.05 2.5-2.95-4.2-7.5 0.5-3.55-1.7-6.6-9.65-5-3.8 1.05 4.6 0.95 4.25 4.15 0.8 1.65v4.8l-1.7 2.55 2.3 2.6-2-0.5 2 2.35v3.25l-1.45 2.5-2.25-0.9-3.45-3.35-0.7-2.85v-1.9l0.9-1.1-4.75-3.6-1.05-3.4 1.15 0.65 1.35-1.9 0.2 2.85 2.15 1.35 3.65-1.35-0.05-2.1-1.5-4.6-4.45-2.1m7.95 14.1-2.2-0.55-1.05 1.7 3.55 0.95m-9.6-8.35 1.55 0.95" fill="none" stroke="#000" stroke-linecap="round" stroke-linejoin="round" stroke-opacity=".25098" stroke-width=".05"/>
<path d="m295 157.55-1.7 5.95-5.85 2.1 1.6-7.05 5.95-1" fill="#c57e4b" fill-rule="evenodd"/>
<path d="m287.45 165.6 5.85-2.1 1.7-5.95 4.95 5.2-8.7 6.3-3.8-3.45m-7.15 41.9-1.95 2.4-0.9-1.8 2.85-0.6m-0.2 6-0.85 0.55-12.7-3.95-0.45-0.95 14 4.35m-10.95-6.45-0.65-3.2 2.2 2.15-1.55 1.05" fill="#412f18" fill-rule="evenodd"/>
<path d="m283.1 173.15-0.3 1.25-1.15-0.35-1.1-0.35 0.3-1.3 1.05 0.65 1.2 0.1" fill="#523a1e" fill-rule="evenodd"/>
<path d="m278.35 209.9 1.75 3.6-14-4.35 3.05-2.1 1.55-1.05 1.6-1.05 2.1 0.7 2.15 0.65 1.8 3.6" fill="#b98046" fill-rule="evenodd"/>
<path d="m280.85 147.25q0.8-3.5 3.3-5.4 2.45-1.9 5.1-1.05 2.6 0.8 3.9 3.85 1.3 3.1 0.5 6.6-0.55 2.25-1.7 3.85l-1.55 1.6q-2.45 1.9-5.05 1.05-2.7-0.85-4-3.9l-0.65-2.25q-0.35-2.1 0.15-4.35" fill="url(#ab)" fill-rule="evenodd"/>
<path d="m280.85 172.4-0.5-0.7q-0.5-1.1-0.25-2.25 0.25-1.25 1.2-1.85 0.9-0.6 1.95-0.25 1 0.3 1.5 1.35 0.55 1.05 0.3 2.25-0.3 1.2-1.2 1.8l-0.75 0.35v0.05l-1.2-0.1-1.05-0.65" fill="url(#aa)" fill-rule="evenodd"/>
<path d="m268.5 203.85 4.45-4.7 1.45-22 2.55-1.9 2.45-1.95 1.15 0.4 1.1 0.35-7.25 31.6-2.1-0.7-1.6 1.05-2.2-2.15m11.35-29.1-4 3.35-1.25 20 1.25-20 4-3.35" fill="url(#z)" fill-rule="evenodd"/>
<path d="m282.8 174.4 1.1 0.35 2.75 6.2-8.2 19.9 1.85 6.65-2.85 0.6-0.9-1.8-2.15-0.65 7.25-31.6 1.15 0.35m-5 24.85 7.25-18.85-1.95-4.1 1.95 4.1-7.25 18.85" fill="url(#y)" fill-rule="evenodd"/>
<path d="m280.85 147.25q0.8-3.5 3.3-5.4 2.45-1.9 5.1-1.05 2.6 0.8 3.9 3.85 1.3 3.1 0.5 6.6-0.55 2.25-1.7 3.85l-1.55 1.6q-2.45 1.9-5.05 1.05-2.7-0.85-4-3.9l-0.65-2.25q-0.35-2.1 0.15-4.35m6.6 18.35 5.85-2.1 1.7-5.95-5.95 1-1.6 7.05 3.8 3.45 8.7-6.3-4.95-5.2m-14.15 14.85-0.5-0.7q-0.5-1.1-0.25-2.25 0.25-1.25 1.2-1.85 0.9-0.6 1.95-0.25 1 0.3 1.5 1.35 0.55 1.05 0.3 2.25-0.3 1.2-1.2 1.8l-0.75 0.35v0.05l-0.3 1.25 1.1 0.35 2.75 6.2-8.2 19.9 1.85 6.65-1.95 2.4 1.75 3.6-0.85 0.55m-12.7-3.95-0.45-0.95 3.05-2.1-0.65-3.2 4.45-4.7m4-23.9 2.45-1.95 1.15 0.4 0.3-1.3 1.05 0.65 1.2 0.1m-2.55 0.55 1.1 0.35 1.15 0.35m-8.4 31.25 2.15 0.65 0.9 1.8 2.85-0.6m-1.95 2.4-0.9-1.8m-6.75-2.1 1.6-1.05 2.1 0.7 7.25-31.6m-10.95 31.95-2.2-2.15m0.65 3.2 1.55-1.05m-4.6 3.15 14 4.35" fill="none" stroke="#000" stroke-linecap="round" stroke-linejoin="round" stroke-opacity=".25098" stroke-width=".05"/>
<path d="m283.1 176.3 1.95 4.1-7.25 18.85m-3.2-1.15 1.25-20 4-3.35" fill="none" stroke="#e1cbb5" stroke-linecap="round" stroke-linejoin="round" stroke-width=".05"/>
<path d="m282.3 192.8-2.8 12.25-7.2-2.25 2.8-12.25 7.2 2.25" fill="#52351b" fill-rule="evenodd"/>
<path d="m282.3 192.8-2.8 12.25-7.2-2.25 2.8-12.25z" fill="none" stroke="#000" stroke-linecap="round" stroke-linejoin="round" stroke-opacity=".25098" stroke-width=".05"/>
<path d="m284.4 177-2.05 9-7.2-2.25 2.05-9 7.2 2.25" fill="#52351b" fill-rule="evenodd"/>
<path d="m284.4 177-2.05 9-7.2-2.25 2.05-9z" fill="none" stroke="#000" stroke-linecap="round" stroke-linejoin="round" stroke-opacity=".25098" stroke-width=".05"/>
</g>
<radialGradient id="af" cx="0" cy="0" r="819.2" gradientTransform="matrix(.0363 -.0083 -.0097 -.031 252.65 199.65)" gradientUnits="userSpaceOnUse">
<stop stop-color="#159971" offset="0"/>
<stop stop-color="#93fe92" offset=".60392"/>
<stop stop-color="#f2fff2" offset=".98824"/>
</radialGradient>
<radialGradient id="ae" cx="0" cy="0" r="819.2" gradientTransform="matrix(.0285 0 0 .0285 262.7 206.55)" gradientUnits="userSpaceOnUse">
<stop stop-color="#52351b" offset="0"/>
<stop stop-color="#c57e4b" offset=".6"/>
</radialGradient>
<radialGradient id="ac" cx="0" cy="0" r="819.2" gradientTransform="matrix(.0272 0 0 .0272 264.35 211.2)" gradientUnits="userSpaceOnUse">
<stop stop-color="#52351b" offset="0"/>
<stop stop-color="#c57e4b" offset=".6"/>
</radialGradient>
<radialGradient id="ab" cx="0" cy="0" r="819.2" gradientTransform="matrix(.0141 .0044 -.0038 .0165 287.95 144.45)" gradientUnits="userSpaceOnUse">
<stop stop-color="#c57e4b" offset="0"/>
<stop stop-color="#412f18" offset=".52157"/>
</radialGradient>
<radialGradient id="aa" cx="0" cy="0" r="819.2" gradientTransform="matrix(.0049 .0015 -.0013 .0057 283.75 171.2)" gradientUnits="userSpaceOnUse">
<stop stop-color="#412f18" offset="0"/>
<stop stop-color="#b98046" offset=".59608"/>
</radialGradient>
<radialGradient id="z" cx="0" cy="0" r="819.2" gradientTransform="matrix(.0332 .0104 -.0089 .0387 272.3 204.95)" gradientUnits="userSpaceOnUse">
<stop stop-color="#412f18" offset="0"/>
<stop stop-color="#b98046" offset=".59608"/>
</radialGradient>
<radialGradient id="y" cx="0" cy="0" r="819.2" gradientTransform="matrix(.0334 .0105 -.009 .039 276.7 206.6)" gradientUnits="userSpaceOnUse">
<stop stop-color="#412f18" offset="0"/>
<stop stop-color="#b98046" offset=".59608"/>
</radialGradient>
<g id="c" transform="translate(-264.2,-142.75)">
<path d="m292.95 157.8-3.75 3.9 0.8 4.35 6.1-1.25 3.9-2-0.75 1.4-6.65 4.6-7.7 2.7-5.25-2.6-0.9-6.2 5.55-5.85 7.1-2.7 3.85 1.2-0.75 0.8-1.55 1.65m-7.05 4.8-0.95-1.9-3.6 4.6 4.55-2.7" fill="#b98046" fill-rule="evenodd"/>
<path d="m299.25 164.2-1.55 3.15-3.1 3.9-6.95 2.9-2.3 1.7-6.6-2.1-1.5-4.6 1.5-6.45 0.9 6.2 5.25 2.6 7.7-2.7 6.65-4.6m-4.75-8.05 2.1 4.7-3.65-3.05 1.55-1.65" fill="#412f18" fill-rule="evenodd"/>
<path d="m285.9 162.6-4.55 2.7 3.6-4.6 0.95 1.9" fill="#fad463" fill-rule="evenodd"/>
<path d="m292.95 157.8-3.75 3.9 0.8 4.35 6.1-1.25 3.9-2-0.75 1.4-1.55 3.15-3.1 3.9-6.95 2.9-2.3 1.7-6.6-2.1-1.5-4.6 1.5-6.45 5.55-5.85 7.1-2.7 3.85 1.2-0.75 0.8 2.1 4.7-3.65-3.05 1.55-1.65m-15.75 6.55 0.9 6.2 5.25 2.6 7.7-2.7 6.65-4.6m-13.35-1.6-4.55 2.7 3.6-4.6 0.95 1.9" fill="none" stroke="#000" stroke-linecap="round" stroke-linejoin="round" stroke-opacity=".25098" stroke-width=".05"/>
<path d="m284 149.2q0.45 1.85 1.9 2.85t3.05 0.45q1.6-0.45 2.4-2.15 0.85-1.7 0.4-3.55-0.4-1.85-1.85-2.85-1.4-0.95-3-0.45t-2.45 2.15q-0.85 1.7-0.45 3.55" fill="#003c00" fill-rule="evenodd"/>
<path d="m285.35 145.65-0.25 0.45-0.3 0.75-0.1 0.55q-0.1 0.75 0.1 1.55 0.25 1.05 0.85 1.75l0.6 0.45q1.1 0.75 2.3 0.35h0.1l0.05-0.05 0.5-0.2 0.65-0.5 0.05-1.75-0.5-1.5-0.65-1.1q-0.4-0.5-1.35-0.8l-2.05 0.05m2.7 5.1q-0.25 0.05-0.75-0.4l-0.05-0.15 0.1-0.45q0.8-0.65 1.35 0.3v0.45l-0.65 0.25m-1.95-1.95 0.3 0.3-0.5-0.4 0.2 0.1q-0.35-0.6-0.3-1.45 0.1-1.3 1.25-1.25 0.75 0.05 0.9 0.7l-0.4 0.15-0.55-0.05-0.2 0.25q-0.05 0.75 0.5 1.1h0.1q-0.25 0.85-1 0.6l-0.25-0.05h-0.05" fill="url(#x)" fill-rule="evenodd"/>
<path d="m289.85 150.75 0.25-0.2 0.45-0.75q0.4-0.8 0.4-1.75l-0.05-1-0.6-1.4-0.5-0.6-0.25-0.2-0.15-0.1-0.55-0.25-0.1-0.05-0.75-0.2h-0.1l-0.3 0.05-0.55 0.1-0.05 0.05q-1.05 0.3-1.65 1.2l2.05-0.05q0.95 0.3 1.35 0.8l0.65 1.1 0.5 1.5-0.05 1.75" fill="#159971" fill-rule="evenodd"/>
<path d="m288.05 150.75 0.65-0.25v-0.45q-0.55-0.95-1.35-0.3l-0.1 0.45 0.05 0.15q0.5 0.45 0.75 0.4m-1.95-1.95h0.05l0.25 0.05q0.75 0.25 1-0.6h-0.1q-0.55-0.35-0.5-1.1l0.2-0.25 0.55 0.05 0.4-0.15q-0.15-0.65-0.9-0.7-1.15-0.05-1.25 1.25-0.05 0.85 0.3 1.45" fill="#fff" fill-rule="evenodd"/>
<path d="m286.1 148.8-0.2-0.1 0.5 0.4-0.3-0.3" fill="#7ceb8c" fill-rule="evenodd"/>
<path d="m285.35 145.65-0.25 0.45-0.3 0.75-0.1 0.55q-0.1 0.75 0.1 1.55 0.25 1.05 0.85 1.75l0.6 0.45q1.1 0.75 2.3 0.35h0.1l0.05-0.05 0.5-0.2 0.65-0.5 0.25-0.2 0.45-0.75q0.4-0.8 0.4-1.75l-0.05-1-0.6-1.4-0.5-0.6-0.25-0.2-0.15-0.1-0.55-0.25-0.1-0.05-0.75-0.2h-0.1l-0.3 0.05-0.55 0.1-0.05 0.05q-1.05 0.3-1.65 1.2z" fill="none" stroke="#000" stroke-linecap="round" stroke-linejoin="round" stroke-opacity=".24314" stroke-width=".05"/>
<path d="m287.85 151.9 0.25 0.75-0.6 2.6-1.05 0.4-0.15 2.45-2.8 0.95-4.95-5.35-0.45-2.7 0.4-3 0.85-2.4 3.1-1.95 0.9 0.3-0.5 2.05 0.9 0.3 3.1 2.7 0.25 0.9 0.75 2m-6.1-6.25 1.1 0.35-1.1-0.35m-3 16.95 4.1-0.75 4.7-2.6 1.95-2.05 1.8-7.65 1.3 4.85-0.4 2.55-1.25 2.55-3.1 2.7-5.85 1.5-0.7-0.1-2.55-1m10.4 2.15 2.05 3.5-0.8 1.65-3.5 2.25-7.9 2.35-5.35-1.7 5.15-0.95 8-3.1 0.7-3.1 1.2-0.5 0.45-0.4m-3.55-8.85-0.8 0.3-4-2.2 3.25 3.6 1.45-0.55 0.1-1.15 0.85-0.25-0.85 0.25m-19.4 52.7 1.2-2.6 2.05-1.5 7.9-2.8 0.4-0.8 1.1-0.85 1 1.95-2.25 2.75-6.95 1.75-4.45 2.1" fill="#c57e4b" fill-rule="evenodd"/>
<path d="m287.5 165.65-4.55 1.95-5.7-0.2-1.05-2.65-0.05-2.45 1.05-1.9 1.45-1.7 1.15-0.3-1.1 4.2h0.05l2.55 1 0.35 0.2 0.35-0.1 5.85-1.5 3.1-2.7 1.25-2.55 0.4-2.55 0.2 0.5 0.25 3.9-0.7 2.7-3.2 3.25-0.45 0.4-1.2 0.5m3.7 2.6 0.55 0.95 0.25 2.15-0.95 2.8-0.9 1.5-1.9 1.55-8.95 0.2-3.1 1.4-2.1 2.15-0.1 0.4-1.75-1.35-0.15-0.2-0.7-1.75 0.5-2.25 1.75-3 5.35 1.7 7.9-2.35 3.5-2.25 0.8-1.65m-25 40.35 4.45-2.1 6.95-1.75 2.25-2.75-1-1.95 2.05-4.9 1.55 4 0.7 0.2v2.7l-1.35 3.15-2.75 1.7-3.6 1.25h-0.05l-0.4 0.25 0.05-0.1 0.05-0.05-4.8 1.6-0.3 1.3-3.5-1.1-0.3-1.45m8.9-0.35 0.3-0.1-0.3 0.1" fill="#5b371e" fill-rule="evenodd"/>
<path d="m287.1 149.9 0.8 0.8q-0.1 0.65-0.05 1.2l-0.75-2" fill="#f2c35d" fill-rule="evenodd"/>
<path d="m285.6 155.9-0.1 1.15-1.45 0.55-3.25-3.6 4 2.2 0.8-0.3" fill="#002b00" fill-rule="evenodd"/>
<path d="m281.3 163.6 0.7 0.1-0.35 0.1-0.35-0.2" fill="#744e26" fill-rule="evenodd"/>
<path d="m284.35 180.2 1.3 1.1 0.75 1.75 0.2 1.3-0.25 1.1-0.75-1.35-2.25 0.3 1-4.2" fill="#322010" fill-rule="evenodd"/>
<path d="m287.85 151.9 0.25 0.75-0.6 2.6-1.05 0.4-0.15 2.45-2.8 0.95-4.95-5.35-0.45-2.7 0.4-3 0.85-2.4 3.1-1.95 0.9 0.3-0.5 2.05 0.9 0.3 3.1 2.7 0.25 0.9 0.8 0.8q-0.1 0.65-0.05 1.2l-0.75-2m-4.25-3.9-1.1-0.35m5.75 20-4.55 1.95-5.7-0.2-1.05-2.65-0.05-2.45 1.05-1.9 1.45-1.7 1.15-0.3-1.1 4.2h0.05l4.1-0.75 4.7-2.6 1.95-2.05 1.8-7.65 1.3 4.85 0.2 0.5 0.25 3.9-0.7 2.7-3.2 3.25 2.05 3.5 0.55 0.95 0.25 2.15-0.95 2.8-0.9 1.5-1.9 1.55-8.95 0.2-3.1 1.4-2.1 2.15-0.1 0.4-1.75-1.35-0.15-0.2-0.7-1.75 0.5-2.25 1.75-3 5.15-0.95 8-3.1 0.7-3.1 1.2-0.5 0.45-0.4m-3.55-8.85-0.8 0.3-4-2.2 3.25 3.6 1.45-0.55 0.1-1.15 0.85-0.25m-7.6 44.4-1.1 0.85-0.4 0.8-7.9 2.8-2.05 1.5-1.2 2.6m12.65-8.55 2.05-4.9 1.55 4 0.7 0.2v2.7l-1.35 3.15-2.75 1.7-3.6 1.25m-0.45 0.25 0.05-0.1 0.05-0.05-4.8 1.6-0.3 1.3m-3.5-1.1-0.3-1.45m9.2-0.45-0.3 0.1" fill="none" stroke="#000" stroke-linecap="round" stroke-linejoin="round" stroke-opacity=".25098" stroke-width=".05"/>
<path d="m284.35 180.2 1.3 1.1 0.75 1.75 0.2 1.3-0.25 1.1-0.75-1.35-2.25 0.3 1-4.2" fill="none" stroke="#000" stroke-linecap="round" stroke-linejoin="round" stroke-width=".05"/>
<path d="m281.45 163.8-0.05 0.05-0.3-0.1 0.1-0.3h0.2l0.15 0.1-0.1 0.25" fill="#c8915b" fill-rule="evenodd"/>
<path d="m281.4 163.45 0.25-0.25q0.4-0.1 0.6 0.3 0.15 0.35-0.3 0.55-0.4 0.1-0.5-0.25l0.1-0.25-0.15-0.1m2.75-1.1q0.25-0.1 0.35 0.3 0.15 0.35-0.2 0.45-0.4 0.1-0.45-0.2 0-0.35 0.3-0.55m-0.95 1.35q-0.45 0-0.5-0.35-0.15-0.35 0.3-0.45 0.45-0.05 0.5 0.4 0 0.4-0.3 0.4m6.85-4.7q0.35-0.1 0.45 0.35 0.15 0.5-0.25 0.65-0.4 0.1-0.45-0.35t0.25-0.65m-0.45 1.25q0.15 0.5-0.2 0.55l-0.5-0.4q-0.15-0.4 0.2-0.5 0.35-0.15 0.5 0.35m-1.1 0.8q0.35-0.2 0.45 0.15 0.15 0.35-0.2 0.6-0.5 0.2-0.5-0.2-0.15-0.4 0.25-0.55m-1.2 0.35 0.35 0.25-0.25 0.35-0.3-0.25q-0.1-0.3 0.2-0.35m-2.6 1.1q-0.05-0.35 0.2-0.5l0.4 0.35-0.2 0.4q-0.25 0.1-0.4-0.25m1.6 0q-0.45 0.2-0.55-0.35-0.15-0.5 0.25-0.55 0.4-0.1 0.55 0.35l-0.25 0.55m5.25-5.8-0.3-0.25q-0.05-0.35 0.2-0.5l0.3 0.3q0.1 0.3-0.2 0.45m0.5 0.8q0.2 0.5-0.2 0.55-0.45 0.15-0.6-0.3t0.25-0.55q0.4-0.15 0.55 0.3m-1.5 1.4q-0.15-0.4 0.25-0.55t0.55 0.25q0.05 0.35-0.25 0.55-0.4 0.15-0.55-0.25m0.05 9.9q-0.4 0.1-0.5-0.3-0.2-0.4 0.2-0.55 0.45-0.2 0.55 0.25t-0.25 0.6m-0.45 1.35q-0.1-0.3 0.15-0.4 0.2-0.15 0.3 0.15t-0.15 0.4q-0.2 0.1-0.3-0.15m-0.95 1.35q-0.4 0.25-0.5-0.3-0.15-0.55 0.3-0.65 0.5-0.15 0.6 0.3 0.05 0.45-0.4 0.65m-0.85-0.3-0.2 0.45q-0.25 0.1-0.35-0.25-0.05-0.35 0.2-0.4 0.25-0.1 0.35 0.2m-0.75 1.05q-0.2 0.05-0.25-0.15-0.05-0.25 0.15-0.35l0.25 0.15-0.15 0.35m-1.15-0.3q0.35-0.15 0.5 0.3 0.15 0.4-0.2 0.55-0.45 0.15-0.55-0.25-0.15-0.55 0.25-0.6m-6.4 2.15q0.15 0.4-0.25 0.55-0.35 0.15-0.4-0.25-0.1-0.55 0.25-0.65 0.3-0.1 0.4 0.35m1.4-1.05q0.35-0.1 0.55 0.3l-0.25 0.65q-0.4 0.15-0.5-0.35-0.2-0.45 0.2-0.6m-0.6 1.1q-0.2 0.1-0.25-0.15t0.2-0.25q0.15-0.1 0.2 0.1l-0.15 0.3m-1.6-0.25q0.1 0.45-0.25 0.6-0.4 0.1-0.55-0.3-0.1-0.35 0.3-0.55 0.4-0.15 0.5 0.25m-2.5 0.8q-0.3 0.15-0.45-0.3-0.05-0.45 0.3-0.6 0.4-0.1 0.45 0.35 0.1 0.35-0.3 0.55m0.8-0.35q-0.15-0.6 0.25-0.75 0.45-0.1 0.6 0.45 0.2 0.4-0.25 0.65-0.45 0.15-0.6-0.35m7.9-1.25q-0.3 0.15-0.35-0.2-0.1-0.35 0.2-0.4 0.3-0.1 0.35 0.2l-0.2 0.4m-3.1-0.15q-0.05-0.15 0.2-0.25 0.15-0.1 0.2 0.1l-0.1 0.3q-0.25 0.1-0.3-0.15m1.85-0.5q0.4-0.15 0.55 0.4 0.15 0.5-0.35 0.7-0.4 0.2-0.5-0.4-0.05-0.55 0.3-0.7m-15.2 33.95q0.35-0.2 0.5 0.2 0.5-0.15 0.7 0.35 0.2 0.4-0.25 0.65t-0.75-0.3v-0.05q-0.35 0.2-0.45-0.25t0.25-0.6m4.9-1q0.15 0.5-0.2 0.65t-0.5-0.25q-0.15-0.45 0.2-0.6 0.35-0.2 0.5 0.2m0.25-0.35q0.5-0.05 0.6 0.25l-0.15 0.6q-0.4 0.15-0.6-0.3-0.3-0.4 0.15-0.55m5.75-2.6q-0.3 0.1-0.45-0.35t0.25-0.6q0.45-0.2 0.5 0.3t-0.3 0.65m-0.55 0.6q-0.4 0.05-0.4-0.3-0.05-0.35 0.2-0.5t0.4 0.25q0.15 0.5-0.2 0.55m-3.55 2.6q0.2 0.7-0.35 0.8t-0.65-0.5q-0.05-0.55 0.35-0.75 0.4-0.3 0.65 0.45m0.25-0.35q-0.1-0.5 0.25-0.7 0.45-0.15 0.5 0.4 0.1 0.5-0.3 0.6-0.35 0.1-0.45-0.3m1.5-1.5q0.4-0.2 0.55 0.3 0.15 0.45-0.25 0.6-0.35 0.2-0.55-0.2-0.1-0.5 0.25-0.7m0.65 0.15q-0.15-0.25 0.1-0.4 0.3-0.05 0.4 0.2l-0.15 0.4q-0.2 0.1-0.35-0.2m-5.9 2.5-0.2 0.5q-0.3 0.05-0.4-0.25l0.2-0.45q0.3-0.15 0.4 0.2m-1.3-0.6q0.25-0.25 0.45 0.3 0.15 0.5-0.3 0.6-0.4 0.05-0.45-0.35t0.3-0.55" fill="#dbb997" fill-rule="evenodd"/>
<path d="m284.7 152.15 0.3 1.75-2.4-0.75-1.35-1.45-0.05-1.7 3.5 2.15" fill="#f2c35d" fill-rule="evenodd"/>
<path d="m275.2 187.6q0.35-1.45 1.5-2.25 1.15-0.75 2.45-0.35 1.25 0.4 1.9 1.7 0.65 1.35 0.3 2.8-0.3 1.45-1.45 2.25t-2.4 0.4q-1.3-0.4-1.95-1.75t-0.35-2.8" fill="#003c00" fill-rule="evenodd"/>
<path d="m276.35 190.4-0.25-0.4-0.25-0.55-0.05-0.4q-0.1-0.6 0.05-1.2 0.2-0.85 0.7-1.4l0.45-0.4q0.85-0.5 1.8-0.25h0.1l0.45 0.2 0.5 0.35q0.25 0.85 0 1.4l-0.2 0.7-0.2 0.55-0.5 0.8-1.05 0.6q-0.75 0.25-1.55 0m2.1-4-0.6 0.3-0.05 0.15 0.05 0.35q0.7 0.45 1.05-0.25l0.05-0.4-0.5-0.15m-1.55 1.5 0.2-0.2-0.35 0.3 0.15-0.1-0.05 0.05q-0.25 0.45-0.2 1.1 0.05 1.05 0.95 1 0.6 0 0.75-0.55l-0.3-0.1h-0.45l-0.15-0.2q-0.05-0.55 0.4-0.85h0.05q-0.25-0.65-0.8-0.5l-0.15 0.1-0.05-0.05" fill="url(#w)" fill-rule="evenodd"/>
<path d="m279.85 186.35 0.15 0.25 0.35 0.55 0.4 1.35-0.1 0.85-0.45 1.1-0.4 0.45-0.2 0.1-0.15 0.1-0.35 0.2-0.15 0.1-0.55 0.1h-0.3l-0.5-0.1q-0.75-0.25-1.25-1 0.8 0.25 1.55 0l1.05-0.6 0.5-0.8 0.2-0.55 0.2-0.7q0.25-0.55 0-1.4" fill="#159971" fill-rule="evenodd"/>
<path d="m278.45 186.4 0.5 0.15-0.05 0.4q-0.35 0.7-1.05 0.25l-0.05-0.35 0.05-0.15 0.6-0.3m-1.55 1.5 0.05 0.05 0.15-0.1q0.55-0.15 0.8 0.5h-0.05q-0.45 0.3-0.4 0.85l0.15 0.2h0.45l0.3 0.1q-0.15 0.55-0.75 0.55-0.9 0.05-0.95-1-0.05-0.65 0.2-1.1l0.05-0.05" fill="#fff" fill-rule="evenodd"/>
<path d="m276.9 187.9-0.15 0.1 0.35-0.3-0.2 0.2" fill="#7ceb8c" fill-rule="evenodd"/>
<path d="m276.35 190.4-0.25-0.4-0.25-0.55-0.05-0.4q-0.1-0.6 0.05-1.2 0.2-0.85 0.7-1.4l0.45-0.4q0.85-0.5 1.8-0.25h0.1l0.45 0.2 0.5 0.35 0.15 0.25 0.35 0.55 0.4 1.35-0.1 0.85-0.45 1.1-0.4 0.45-0.2 0.1-0.15 0.1-0.35 0.2-0.15 0.1-0.55 0.1h-0.3l-0.5-0.1q-0.75-0.25-1.25-1z" fill="none" stroke="#000" stroke-linecap="round" stroke-linejoin="round" stroke-opacity=".24314" stroke-width=".05"/>
<path d="m294.25 258.75-5.9-1-1.6-7.1 5.85 2.1 1.65 6" fill="#c57e4b" fill-rule="evenodd"/>
<path d="m279.55 208.75-2.85-0.55 0.95-1.85 1.9 2.4m-0.15-5.95-14 4.35 0.45-0.95 12.7-4 0.85 0.6m-10.95 6.45 1.55 1.05-2.2 2.15 0.65-3.2m18.3 41.4 3.75-3.4 8.7 6.25-4.95 5.25-1.65-6-5.85-2.1" fill="#412f18" fill-rule="evenodd"/>
<path d="m280.95 242.25 1.1-0.35 0.3 1.3q-0.55-0.15-1.15 0l-1.1 0.7-0.25-1.3 1.1-0.35" fill="#523a1e" fill-rule="evenodd"/>
<path d="m277.65 206.35-0.95 1.85-0.85 1.8-4.3 1.3-1.55-1-1.55-1.05-3.05-2.1 14-4.35-1.75 3.55" fill="#b98046" fill-rule="evenodd"/>
<path d="m280.65 262.4 0.05-0.2q1.3-2.9 3.9-3.7 2.65-0.8 5.1 1.1 0.85 0.65 1.5 1.6l0.7 1q0.7 1.3 1.05 2.85 0.8 3.45-0.5 6.55t-3.95 3.95q-2.65 0.8-5.05-1.1-2.5-1.95-3.3-5.45-0.5-2.25-0.15-4.3 0.2-1.2 0.65-2.3" fill="url(#v)" fill-rule="evenodd"/>
<path d="m282.35 243.2h0.05l0.7 0.3q0.95 0.65 1.2 1.8 0.25 1.2-0.25 2.3-0.55 1.05-1.55 1.4-1 0.3-1.95-0.35-0.9-0.6-1.15-1.75-0.3-1.25 0.25-2.25l0.45-0.75 1.1-0.7q0.6-0.15 1.15 0" fill="url(#u)" fill-rule="evenodd"/>
<path d="m273.7 210.65 7.25 31.6-1.1 0.35-1.15 0.35-2.5-1.85-2.5-1.95-1.45-22.05-4.45-4.65 2.2-2.15 1.55 1 2.15-0.65m5.4 30.9-4-3.35-1.25-20.05 1.25 20.05 4 3.35" fill="url(#t)" fill-rule="evenodd"/>
<path d="m276.7 208.2 2.85 0.55-1.85 6.7 8.2 19.9-2.7 6.2-1.15 0.35-1.1 0.35-7.25-31.6 2.15-0.65 0.85-1.8m0.4 8.8 7.2 18.85-1.95 4.1 1.95-4.1-7.2-18.85" fill="url(#r)" fill-rule="evenodd"/>
<path d="m276.7 208.2 2.85 0.55-1.9-2.4-0.95 1.85-0.85 1.8-2.15 0.65 7.25 31.6 1.1-0.35 1.15-0.35 2.7-6.2-8.2-19.9 1.85-6.7m-1.9-2.4 1.75-3.55-14 4.35 3.05 2.1 1.55 1.05 1.55 1 2.15-0.65m5.7-7.85-0.85-0.6m-12.7 4-0.45 0.95m21.35 43.5 3.75-3.4 8.7 6.25-4.95 5.25-5.9-1-1.6-7.1 5.85 2.1 1.65 6m-18.05-17.65 2.5 1.85 1.15-0.35 1.1-0.35m-0.85 1.65-0.45 0.75q-0.55 1-0.25 2.25 0.25 1.15 1.15 1.75 0.95 0.65 1.95 0.35 1-0.35 1.55-1.4 0.5-1.1 0.25-2.3-0.25-1.15-1.2-1.8l-0.7-0.3h-0.05q-0.55-0.15-1.15 0l-1.1 0.7-0.25-1.3m2.5 0.6-0.3-1.3m-1.4 20.5q-0.45 1.1-0.65 2.3-0.35 2.05 0.15 4.3 0.8 3.5 3.3 5.45 2.4 1.9 5.05 1.1 2.65-0.85 3.95-3.95t0.5-6.55q-0.35-1.55-1.05-2.85l-0.7-1q-0.65-0.95-1.5-1.6-2.45-1.9-5.1-1.1-2.6 0.8-3.9 3.7l-0.05 0.2m-12.2-53.15-0.65 3.2 2.2-2.15m-2.2 2.15 4.45 4.65" fill="none" stroke="#000" stroke-linecap="round" stroke-linejoin="round" stroke-opacity=".25098" stroke-width=".05"/>
<path d="m282.35 239.95 1.95-4.1-7.2-18.85m-3.25 1.15 1.25 20.05 4 3.35" fill="none" stroke="#e1cbb5" stroke-linecap="round" stroke-linejoin="round" stroke-width=".05"/>
<path d="m281.6 223.55-2.8-12.25-7.2 2.25 2.8 12.25 7.2-2.25" fill="#52351b" fill-rule="evenodd"/>
<path d="m281.6 223.55-2.8-12.25-7.2 2.25 2.8 12.25z" fill="none" stroke="#000" stroke-linecap="round" stroke-linejoin="round" stroke-opacity=".25098" stroke-width=".05"/>
<path d="m283.7 239.3-2.05-9-7.2 2.25 2.05 9 7.2-2.25" fill="#52351b" fill-rule="evenodd"/>
<path d="m283.7 239.3-2.05-9-7.2 2.25 2.05 9z" fill="none" stroke="#000" stroke-linecap="round" stroke-linejoin="round" stroke-opacity=".25098" stroke-width=".05"/>
</g>
<radialGradient id="x" cx="0" cy="0" r="819.2" gradientTransform="matrix(.0074 -.0023 -.002 -.0086 285.6 145.55)" gradientUnits="userSpaceOnUse">
<stop stop-color="#159971" offset="0"/>
<stop stop-color="#93fe92" offset=".60392"/>
<stop stop-color="#f2fff2" offset=".98824"/>
</radialGradient>
<radialGradient id="w" cx="0" cy="0" r="819.2" gradientTransform="matrix(.0058 .0018 -.0016 .0068 276.55 190.45)" gradientUnits="userSpaceOnUse">
<stop stop-color="#159971" offset="0"/>
<stop stop-color="#93fe92" offset=".60392"/>
<stop stop-color="#f2fff2" offset=".98824"/>
</radialGradient>
<radialGradient id="v" cx="0" cy="0" r="819.2" gradientTransform="matrix(.0141 -.0044 -.0038 -.0165 287.25 271.85)" gradientUnits="userSpaceOnUse">
<stop stop-color="#c57e4b" offset="0"/>
<stop stop-color="#412f18" offset=".52157"/>
</radialGradient>
<radialGradient id="u" cx="0" cy="0" r="819.2" gradientTransform="matrix(.0049 -.0015 -.0013 -.0057 283 245.1)" gradientUnits="userSpaceOnUse">
<stop stop-color="#412f18" offset="0"/>
<stop stop-color="#b98046" offset=".59608"/>
</radialGradient>
<radialGradient id="t" cx="0" cy="0" r="819.2" gradientTransform="matrix(.0332 -.0104 -.0089 -.0387 271.55 211.3)" gradientUnits="userSpaceOnUse">
<stop stop-color="#412f18" offset="0"/>
<stop stop-color="#b98046" offset=".59608"/>
</radialGradient>
<radialGradient id="r" cx="0" cy="0" r="819.2" gradientTransform="matrix(.0334 -.0105 -.009 -.039 276 209.7)" gradientUnits="userSpaceOnUse">
<stop stop-color="#412f18" offset="0"/>
<stop stop-color="#b98046" offset=".59608"/>
</radialGradient>
<g id="b" transform="translate(-257.7,-188.2)">
<path d="m292.2 258.55-3.75-3.9 0.8-4.35 6.1 1.25 3.9 2-0.75-1.4-6.65-4.6-7.7-2.7-5.25 2.6-0.9 6.2 5.55 5.85 7.1 2.7 3.85-1.2-0.75-0.8-1.55-1.65m-7.05-4.8-0.95 1.9-3.6-4.6 4.55 2.7" fill="#b98046" fill-rule="evenodd"/>
<path d="m298.5 252.15-1.55-3.15-3.1-3.9-6.95-2.9-2.3-1.7-6.6 2.1-1.5 4.6 1.5 6.45 0.9-6.2 5.25-2.6 7.7 2.7 6.65 4.6m-4.75 8.05 2.1-4.7-3.65 3.05 1.55 1.65" fill="#412f18" fill-rule="evenodd"/>
<path d="m285.15 253.75-4.55-2.7 3.6 4.6 0.95-1.9" fill="#fad463" fill-rule="evenodd"/>
<path d="m292.2 258.55-3.75-3.9 0.8-4.35 6.1 1.25 3.9 2-0.75-1.4-1.55-3.15-3.1-3.9-6.95-2.9-2.3-1.7-6.6 2.1-1.5 4.6 1.5 6.45 5.55 5.85 7.1 2.7 3.85-1.2-0.75-0.8 2.1-4.7-3.65 3.05 1.55 1.65m-15.75-6.55 0.9-6.2 5.25-2.6 7.7 2.7 6.65 4.6m-13.35 1.6-4.55-2.7 3.6 4.6 0.95-1.9" fill="none" stroke="#000" stroke-linecap="round" stroke-linejoin="round" stroke-opacity=".25098" stroke-width=".05"/>
<path d="m284.25 270.05q0.45 1.85 1.9 2.85t3.05 0.45q1.6-0.45 2.4-2.15 0.85-1.7 0.4-3.55-0.4-1.85-1.85-2.85-1.4-0.95-3-0.45t-2.45 2.15q-0.85 1.7-0.45 3.55" fill="#003c00" fill-rule="evenodd"/>
<path d="m285.55 266.5-0.25 0.45-0.3 0.75-0.1 0.55q-0.1 0.75 0.1 1.55 0.25 1.05 0.85 1.75l0.6 0.45q1.1 0.75 2.3 0.35h0.1l0.05-0.05 0.5-0.2 0.65-0.5 0.05-1.75-0.5-1.5-0.65-1.1q-0.4-0.5-1.35-0.8l-2.05 0.05m2.7 5.1q-0.25 0.05-0.75-0.4l-0.05-0.15 0.1-0.45q0.8-0.65 1.35 0.3v0.45q-0.25 0.35-0.65 0.25m-1.95-1.95 0.3 0.3-0.5-0.4 0.2 0.1q-0.35-0.6-0.3-1.45 0.1-1.3 1.25-1.25 0.75 0.05 0.9 0.7l-0.4 0.15-0.55-0.05-0.2 0.25q-0.05 0.75 0.5 1.1h0.1q-0.25 0.85-1 0.6l-0.25-0.05h-0.05" fill="url(#q)" fill-rule="evenodd"/>
<path d="m290.05 271.6 0.25-0.2 0.45-0.75q0.4-0.8 0.4-1.75l-0.05-1-0.6-1.4-0.5-0.6-0.25-0.2-0.15-0.1-0.55-0.25-0.1-0.05-0.75-0.2h-0.1l-0.3 0.05-0.55 0.1-0.05 0.05q-1.05 0.3-1.65 1.2l2.05-0.05q0.95 0.3 1.35 0.8l0.65 1.1 0.5 1.5-0.05 1.75" fill="#159971" fill-rule="evenodd"/>
<path d="m288.25 271.6q0.4 0.1 0.65-0.25v-0.45q-0.55-0.95-1.35-0.3l-0.1 0.45 0.05 0.15q0.5 0.45 0.75 0.4m-1.95-1.95h0.05l0.25 0.05q0.75 0.25 1-0.6h-0.1q-0.55-0.35-0.5-1.1l0.2-0.25 0.55 0.05 0.4-0.15q-0.15-0.65-0.9-0.7-1.15-0.05-1.25 1.25-0.05 0.85 0.3 1.45" fill="#fff" fill-rule="evenodd"/>
<path d="m286.3 269.65-0.2-0.1 0.5 0.4-0.3-0.3" fill="#7ceb8c" fill-rule="evenodd"/>
<path d="m285.55 266.5-0.25 0.45-0.3 0.75-0.1 0.55q-0.1 0.75 0.1 1.55 0.25 1.05 0.85 1.75l0.6 0.45q1.1 0.75 2.3 0.35h0.1l0.05-0.05 0.5-0.2 0.65-0.5 0.25-0.2 0.45-0.75q0.4-0.8 0.4-1.75l-0.05-1-0.6-1.4-0.5-0.6-0.25-0.2-0.15-0.1-0.55-0.25-0.1-0.05-0.75-0.2h-0.1l-0.3 0.05-0.55 0.1-0.05 0.05q-1.05 0.3-1.65 1.2z" fill="none" stroke="#000" stroke-linecap="round" stroke-linejoin="round" stroke-opacity=".24314" stroke-width=".05"/>
<path d="m287.1 264.4 0.25-0.75-0.6-2.6-1.05-0.4-0.15-2.45-2.8-0.95-4.95 5.35-0.45 2.7 0.4 3 0.85 2.4 3.1 1.95 0.9-0.3-0.5-2.05 0.9-0.3 3.1-2.7 0.25-0.9 0.75-2m-6.1 6.25 1.1-0.35-1.1 0.35m-3-16.95 4.1 0.75 4.7 2.6 1.95 2.05 1.8 7.65 1.3-4.85-0.4-2.55-1.25-2.55-3.1-2.7-5.85-1.5-0.7 0.1-2.55 1m10.4-2.15 2.05-3.5-0.8-1.65-3.5-2.25-7.9-2.35-5.35 1.7 5.15 0.95 8 3.1 0.7 3.1 1.2 0.5 0.45 0.4m-3.55 8.85-0.8-0.3-4 2.2 3.25-3.6 1.45 0.55 0.1 1.15 0.85 0.25-0.85-0.25m-19.4-52.7 1.2 2.6 2.05 1.5 7.9 2.8 0.4 0.8 1.1 0.85 1-1.95-2.25-2.75-6.95-1.75-4.45-2.1" fill="#c57e4b" fill-rule="evenodd"/>
<path d="m286.75 250.65-4.55-1.95-5.7 0.2-1.05 2.65-0.05 2.45 1.05 1.9 1.45 1.7 1.15 0.3-1.1-4.2h0.05l2.55-1 0.35-0.2 0.35 0.1 5.85 1.5 3.1 2.7 1.25 2.55 0.4 2.55 0.2-0.5 0.25-3.9-0.7-2.7-3.2-3.25-0.45-0.4-1.2-0.5m3.7-2.6 0.55-0.95 0.25-2.15-0.95-2.8-0.9-1.5-1.9-1.55-8.95-0.2-3.1-1.4-2.1-2.15-0.1-0.4-1.75 1.35-0.15 0.2-0.7 1.75 0.5 2.25 1.75 3 5.35-1.7 7.9 2.35 3.5 2.25 0.8 1.65m-24.7-41.8-0.3 1.45 4.45 2.1 6.95 1.75 2.25 2.75-1 1.95 2.05 4.9 1.55-4 0.7-0.2v-2.7l-1.35-3.15-2.75-1.7-3.6-1.25h-0.05l-0.4-0.25 0.05 0.1 0.05 0.05-4.8-1.6-0.3-1.3-3.5 1.1m8.6 1.8 0.3 0.1-0.3-0.1" fill="#5b371e" fill-rule="evenodd"/>
<path d="m286.35 266.4 0.8-0.8-0.05-1.2-0.75 2" fill="#f2c35d" fill-rule="evenodd"/>
<path d="m284.85 260.4-0.1-1.15-1.45-0.55-3.25 3.6 4-2.2 0.8 0.3" fill="#002b00" fill-rule="evenodd"/>
<path d="m280.55 252.7 0.7-0.1-0.35-0.1-0.35 0.2" fill="#744e26" fill-rule="evenodd"/>
<path d="m283.6 236.1 1.3-1.1 0.75-1.75 0.2-1.3-0.25-1.1-0.75 1.35-2.25-0.3 1 4.2" fill="#322010" fill-rule="evenodd"/>
<path d="m287.1 264.4 0.25-0.75-0.6-2.6-1.05-0.4-0.15-2.45-2.8-0.95-4.95 5.35-0.45 2.7 0.4 3 0.85 2.4 3.1 1.95 0.9-0.3-0.5-2.05 0.9-0.3 3.1-2.7 0.25-0.9 0.8-0.8-0.05-1.2-0.75 2m-4.25 3.9-1.1 0.35m5.75-20-4.55-1.95-5.7 0.2-1.05 2.65-0.05 2.45 1.05 1.9 1.45 1.7 1.15 0.3-1.1-4.2h0.05l4.1 0.75 4.7 2.6 1.95 2.05 1.8 7.65 1.3-4.85 0.2-0.5 0.25-3.9-0.7-2.7-3.2-3.25 2.05-3.5 0.55-0.95 0.25-2.15-0.95-2.8-0.9-1.5-1.9-1.55-8.95-0.2-3.1-1.4-2.1-2.15-0.1-0.4-1.75 1.35-0.15 0.2-0.7 1.75 0.5 2.25 1.75 3 5.15 0.95 8 3.1 0.7 3.1 1.2 0.5 0.45 0.4m-3.55 8.85-0.8-0.3-4 2.2 3.25-3.6 1.45 0.55 0.1 1.15 0.85 0.25m-19.95-54.4-0.3 1.45 1.2 2.6 2.05 1.5 7.9 2.8 0.4 0.8 1.1 0.85 2.05 4.9 1.55-4 0.7-0.2v-2.7l-1.35-3.15-2.75-1.7-3.6-1.25m-0.45-0.25 0.05 0.1 0.05 0.05-4.8-1.6-0.3-1.3m5.4 3-0.3-0.1" fill="none" stroke="#000" stroke-linecap="round" stroke-linejoin="round" stroke-opacity=".25098" stroke-width=".05"/>
<path d="m283.6 236.1 1.3-1.1 0.75-1.75 0.2-1.3-0.25-1.1-0.75 1.35-2.25-0.3 1 4.2" fill="none" stroke="#000" stroke-linecap="round" stroke-linejoin="round" stroke-width=".05"/>
<path d="m280.7 252.5-0.05-0.05q-0.25-0.1-0.3 0.1l0.1 0.3h0.2l0.15-0.1q0.1-0.2-0.1-0.25" fill="#c8915b" fill-rule="evenodd"/>
<path d="m280.65 252.85 0.25 0.25q0.4 0.1 0.6-0.3 0.15-0.35-0.3-0.55-0.4-0.1-0.5 0.25 0.2 0.05 0.1 0.25l-0.15 0.1m2.75 1.1q0.25 0.1 0.35-0.3 0.15-0.35-0.2-0.45-0.4-0.1-0.45 0.2 0 0.35 0.3 0.55m-0.95-1.35q-0.45 0-0.5 0.35-0.15 0.35 0.3 0.45 0.45 0.05 0.5-0.4l-0.3-0.4m6.85 4.7q0.35 0.1 0.45-0.35 0.15-0.5-0.25-0.65-0.4-0.1-0.45 0.35t0.25 0.65m-0.45-1.25q0.15-0.5-0.2-0.55-0.45 0.05-0.5 0.4-0.15 0.4 0.2 0.5 0.35 0.15 0.5-0.35m-1.1-0.8q0.35 0.2 0.45-0.15 0.15-0.35-0.2-0.6-0.5-0.2-0.5 0.2-0.15 0.4 0.25 0.55m-1.2-0.35 0.35-0.25-0.25-0.35-0.3 0.25q-0.1 0.3 0.2 0.35m-2.6-1.1q-0.05 0.35 0.2 0.5 0.3 0.05 0.4-0.35 0.05-0.35-0.2-0.4-0.25-0.1-0.4 0.25m1.6 0q-0.45-0.2-0.55 0.35-0.15 0.5 0.25 0.55 0.4 0.1 0.55-0.35 0.1-0.4-0.25-0.55m5.25 5.8q-0.3-0.05-0.3 0.25-0.05 0.35 0.2 0.5l0.3-0.3q0.1-0.3-0.2-0.45m0.5-0.8q0.2-0.5-0.2-0.55-0.45-0.15-0.6 0.3t0.25 0.55q0.4 0.15 0.55-0.3m-1.5-1.4q-0.15 0.4 0.25 0.55t0.55-0.25q0.05-0.35-0.25-0.55-0.4-0.15-0.55 0.25m0.05-9.9q-0.4-0.1-0.5 0.3-0.2 0.4 0.2 0.55 0.45 0.2 0.55-0.25t-0.25-0.6m-0.45-1.35q-0.1 0.3 0.15 0.4 0.2 0.15 0.3-0.15t-0.15-0.4q-0.2-0.1-0.3 0.15m-0.95-1.35q-0.4-0.25-0.5 0.3-0.15 0.55 0.3 0.65 0.5 0.15 0.6-0.3 0.05-0.45-0.4-0.65m-0.85 0.3-0.2-0.45q-0.25-0.1-0.35 0.25-0.05 0.35 0.2 0.4 0.25 0.1 0.35-0.2m-0.75-1.05q-0.2-0.05-0.25 0.15-0.05 0.25 0.15 0.35l0.25-0.15-0.15-0.35m-1.15 0.3q0.35 0.15 0.5-0.3 0.15-0.4-0.2-0.55-0.45-0.15-0.55 0.25-0.15 0.55 0.25 0.6m-6.4-2.15q0.15-0.4-0.25-0.55-0.35-0.15-0.4 0.25-0.1 0.55 0.25 0.65 0.3 0.1 0.4-0.35m1.4 1.05q0.35 0.1 0.55-0.3 0.1-0.45-0.25-0.65-0.4-0.15-0.5 0.35-0.2 0.45 0.2 0.6m-0.6-1.1q-0.2-0.1-0.25 0.15t0.2 0.25q0.15 0.1 0.2-0.1l-0.15-0.3m-1.6 0.25q0.1-0.45-0.25-0.6-0.4-0.1-0.55 0.3-0.1 0.35 0.3 0.55 0.4 0.15 0.5-0.25m-2.5-0.8q-0.3-0.15-0.45 0.3-0.05 0.45 0.3 0.6 0.4 0.1 0.45-0.35 0.1-0.35-0.3-0.55m0.8 0.35q-0.15 0.6 0.25 0.75 0.45 0.1 0.6-0.45 0.2-0.4-0.25-0.65-0.45-0.15-0.6 0.35m7.9 1.25q-0.3-0.15-0.35 0.2-0.1 0.35 0.2 0.4l0.35-0.2-0.2-0.4m-3.1 0.15 0.2 0.25 0.2-0.1-0.1-0.3q-0.25-0.1-0.3 0.15m1.85 0.5q0.4 0.15 0.55-0.4 0.15-0.5-0.35-0.7-0.4-0.2-0.5 0.4-0.05 0.55 0.3 0.7m-15.2-33.95q0.35 0.2 0.5-0.2 0.5 0.15 0.7-0.35 0.2-0.4-0.25-0.65t-0.75 0.3v0.05q-0.35-0.2-0.45 0.25t0.25 0.6m4.9 1q0.15-0.5-0.2-0.65t-0.5 0.25q-0.15 0.45 0.2 0.6 0.35 0.2 0.5-0.2m0.25 0.35q0.5 0.05 0.6-0.25 0.15-0.35-0.15-0.6-0.4-0.15-0.6 0.3-0.3 0.4 0.15 0.55m5.75 2.6q-0.3-0.1-0.45 0.35t0.25 0.6q0.45 0.2 0.5-0.3t-0.3-0.65m-0.55-0.6q-0.4-0.05-0.4 0.3-0.05 0.35 0.2 0.5l0.4-0.25q0.15-0.5-0.2-0.55m-3.55-2.6q0.2-0.7-0.35-0.8t-0.65 0.5q-0.05 0.55 0.35 0.75 0.4 0.3 0.65-0.45m0.25 0.35q-0.1 0.5 0.25 0.7 0.45 0.15 0.5-0.4 0.1-0.5-0.3-0.6-0.35-0.1-0.45 0.3m1.5 1.5q0.4 0.2 0.55-0.3 0.15-0.45-0.25-0.6-0.35-0.2-0.55 0.2-0.1 0.5 0.25 0.7m0.65-0.15q-0.15 0.25 0.1 0.4 0.3 0.05 0.4-0.2l-0.15-0.4q-0.2-0.1-0.35 0.2m-5.9-2.5-0.2-0.5q-0.3-0.05-0.4 0.25l0.2 0.45q0.3 0.15 0.4-0.2m-1.3 0.6q0.25 0.25 0.45-0.3 0.15-0.5-0.3-0.6-0.4-0.05-0.45 0.35l0.3 0.55" fill="#dbb997" fill-rule="evenodd"/>
<path d="m284 264.1 0.3-1.75-2.4 0.75-1.35 1.45-0.05 1.7 3.5-2.15" fill="#f2c35d" fill-rule="evenodd"/>
<path d="m274.5 228.65q0.35 1.45 1.5 2.25 1.15 0.75 2.45 0.35 1.25-0.4 1.9-1.7 0.65-1.35 0.3-2.8-0.3-1.45-1.45-2.25t-2.4-0.4q-1.3 0.4-1.95 1.75t-0.35 2.8" fill="#003c00" fill-rule="evenodd"/>
<path d="m275.65 225.9q-0.2 0.15-0.25 0.4l-0.25 0.55-0.05 0.4 0.05 1.2q0.2 0.85 0.7 1.4l0.45 0.4 1.8 0.25h0.1l0.45-0.2 0.5-0.35q0.25-0.85 0-1.4l-0.2-0.7-0.2-0.55-0.5-0.8q-0.3-0.45-1.05-0.6-0.75-0.25-1.55 0m2.1 4q-0.2 0.05-0.6-0.3l-0.05-0.15 0.05-0.35q0.7-0.45 1.05 0.25l0.05 0.4-0.5 0.15m-1.55-1.5-0.05-0.05q-0.25-0.45-0.2-1.1 0.05-1.05 0.95-1 0.6 0 0.75 0.55l-0.3 0.1q-0.25-0.15-0.45 0l-0.15 0.2q-0.05 0.55 0.4 0.85h0.05q-0.25 0.65-0.8 0.5l-0.15-0.1-0.05 0.05 0.2 0.2-0.35-0.3 0.15 0.1" fill="url(#p)" fill-rule="evenodd"/>
<path d="m279.15 229.95 0.15-0.25 0.35-0.55 0.4-1.35-0.1-0.85-0.45-1.1-0.4-0.45-0.2-0.1-0.15-0.1-0.35-0.2-0.15-0.1-0.55-0.1h-0.3l-0.5 0.1q-0.75 0.25-1.25 1 0.8-0.25 1.55 0 0.75 0.15 1.05 0.6l0.5 0.8 0.2 0.55 0.2 0.7q0.25 0.55 0 1.4" fill="#159971" fill-rule="evenodd"/>
<path d="m277.75 229.9 0.5-0.15-0.05-0.4q-0.35-0.7-1.05-0.25l-0.05 0.35 0.05 0.15q0.4 0.35 0.6 0.3m-1.55-1.5 0.05-0.05 0.15 0.1q0.55 0.15 0.8-0.5h-0.05q-0.45-0.3-0.4-0.85l0.15-0.2q0.2-0.15 0.45 0l0.3-0.1q-0.15-0.55-0.75-0.55-0.9-0.05-0.95 1-0.05 0.65 0.2 1.1l0.05 0.05" fill="#fff" fill-rule="evenodd"/>
<path d="m276.2 228.4-0.15-0.1 0.35 0.3-0.2-0.2" fill="#7ceb8c" fill-rule="evenodd"/>
<path d="m275.65 225.9q-0.2 0.15-0.25 0.4l-0.25 0.55-0.05 0.4 0.05 1.2q0.2 0.85 0.7 1.4l0.45 0.4 1.8 0.25h0.1l0.45-0.2 0.5-0.35 0.15-0.25 0.35-0.55 0.4-1.35-0.1-0.85-0.45-1.1-0.4-0.45-0.2-0.1-0.15-0.1-0.35-0.2-0.15-0.1-0.55-0.1h-0.3l-0.5 0.1q-0.75 0.25-1.25 1z" fill="none" stroke="#000" stroke-linecap="round" stroke-linejoin="round" stroke-opacity=".24314" stroke-width=".05"/>
<path d="m278.25 196.45 0.3 0.8-0.6 2.55-1.1 0.4-0.1 2.45-2.8 0.95-5-5.35-0.45-2.7 0.4-3 0.85-2.4 3.1-1.95 0.95 0.25-0.5 2.05 0.9 0.3 3.05 2.75 0.3 0.9 0.7 2m4.85 2.5-0.45 2.55-1.25 2.55-3.1 2.7-5.9 1.45-0.65-0.05-2.55-1 4.1-0.7 4.65-2.6 2-2.1 1.75-7.65 1.4 4.85m-3.55 10.3 2.1 3.6-0.6 1.15-3.7-1.05 0.6-2.75 1.2-0.5 0.4-0.45m-3.5-8.8-0.8 0.3-3.95-2.2 3.2 3.6 1.45-0.55 0.1-1.15 0.8-0.25-0.8 0.25m-3.85-10.3 1.1 0.35-1.1-0.35" fill="#c57e4b" fill-rule="evenodd"/>
<path d="m277.55 194.45 0.75 0.85-0.05 1.15-0.7-2" fill="#f2c35d" fill-rule="evenodd"/>
<path d="m272.4 208.2 5.9-1.45 3.1-2.7 1.25-2.55 0.45-2.55 0.1 0.5 0.3 3.95-0.7 2.65-3.25 3.2-0.4 0.45-1.2 0.5-4.1 1.75-6.9-1.95-0.3-0.7-0.05-2.45 1.05-1.9 1.45-1.7 1.1-0.35-1.1 4.25h0.1l2.55 1 0.35 0.15 0.3-0.1m9.25 4.65 0.55 0.9 0.05 0.6-1.2-0.35 0.6-1.15" fill="#5b371e" fill-rule="evenodd"/>
<path d="m276.05 200.45-0.1 1.15-1.45 0.55-3.2-3.6 3.95 2.2 0.8-0.3" fill="#002b00" fill-rule="evenodd"/>
<path d="m271.75 208.15 0.65 0.05-0.3 0.1-0.35-0.15" fill="#744e26" fill-rule="evenodd"/>
<path d="m278.25 196.45 0.3 0.8-0.6 2.55-1.1 0.4-0.1 2.45-2.8 0.95-5-5.35-0.45-2.7 0.4-3 0.85-2.4 3.1-1.95 0.95 0.25-0.5 2.05 0.9 0.3 3.05 2.75 0.3 0.9 0.75 0.85-0.05 1.15-0.7-2m5.55 4.5-1.4-4.85-1.75 7.65-2 2.1-4.65 2.6-4.1 0.7m13.9-8.2 0.1 0.5 0.3 3.95-0.7 2.65-3.25 3.2 2.1 3.6 0.55 0.9 0.05 0.6 0.05 0.4m-15.35-4.75-0.3-0.7-0.05-2.45 1.05-1.9 1.45-1.7 1.1-0.35-1.1 4.25h0.1m6.85-6.7-0.1 1.15-1.45 0.55-3.2-3.6 3.95 2.2 0.8-0.3 0.8-0.25m-3.55-9.7-1.1-0.35m1.65 21.8-0.5 0.2m3.9 1.2 0.1-0.4 0.6-2.75-4.1 1.75m5.7-2.7-0.4 0.45-1.2 0.5m-20.25 65.65v-0.1l0.05 0.05-0.05 0.05" fill="none" stroke="#000" stroke-linecap="round" stroke-linejoin="round" stroke-opacity=".25098" stroke-width=".05"/>
<path d="m271.35 208.2q-0.2-0.25 0.05-0.5 0.2-0.2 0.4 0.1l-0.1 0.5q-0.2 0.2-0.35-0.1" fill="#c8915b" fill-rule="evenodd"/>
<path d="m282.35 201.15-0.4-0.05q-0.15-0.15 0.05-0.35t0.4 0l-0.05 0.4m-1.35 2.45q-0.1-0.35 0.1-0.65 0.25-0.3 0.55 0.1 0.25 0.35-0.1 0.6l-0.55-0.05m1.25-1.15q-0.35 0.25-0.5 0-0.15-0.3 0.15-0.65l0.5 0.05-0.15 0.6m-4.65 3.2q0.4-0.35 0.65 0.25 0.25 0.55-0.25 0.95t-0.65-0.2q-0.2-0.65 0.25-1m-0.7 1.5q-0.25 0.2-0.4-0.15-0.15-0.3 0.1-0.5t0.4 0.1q0.15 0.35-0.1 0.55m-1.7-0.1 0.15-0.15q0.3-0.25 0.6 0.15 0.25 0.35-0.1 0.65l-0.55-0.05-0.2 0.25q-0.35 0.25-0.55-0.2-0.25-0.45 0.1-0.7l0.55 0.05m-1.9 1.2q-0.1-0.5 0.2-0.75t0.5 0.2q0.15 0.4-0.2 0.75-0.35 0.25-0.5-0.2m-1.4 0.1q-0.1-0.4 0.2-0.6 0.35-0.2 0.55 0.25t-0.2 0.55q-0.45 0.15-0.55-0.2m9.15-3.4q-0.55 0.4-0.85-0.25-0.3-0.7 0.3-0.95 0.5-0.25 0.8 0.3 0.25 0.55-0.25 0.9m-2.45 1.25q-0.25-0.45 0.1-0.75 0.4-0.35 0.65 0.15 0.2 0.5-0.2 0.8-0.4 0.25-0.55-0.2m0.85-0.65q-0.15-0.4 0.15-0.55 0.3-0.25 0.5 0.1t-0.15 0.55l-0.5-0.1m0.65 7.4q-0.2-0.45 0.25-0.85t0.7 0.15-0.25 0.8l-0.7-0.1" fill="#dbb997" fill-rule="evenodd"/>
<path d="m275.2 196.75 0.3 1.75-2.4-0.75-1.35-1.45-0.05-1.7 3.5 2.15" fill="#f2c35d" fill-rule="evenodd"/>
<path d="m271.7 208.35-0.65 0.05 0.35-0.15 0.3 0.1" fill="#744e26" fill-rule="evenodd"/>
<path d="m271.05 208.4 0.65-0.05 5.9 1.45 3.05 2.65 1.3 2.65 0.4 2.5-1.35 4.85-1.75-7.65-1.95-2.05-4.7-2.6-4.15-0.75 2.6-1m1.55 17.65 0.5 2-0.95 0.3-3.05-1.9-0.9-2.45-0.4-3 0.45-2.7 5-5.35 2.8 0.95 0.1 2.5 1.1 0.35 0.55 2.6-0.25 0.75-0.7 2-0.3 0.9-3.05 2.75-0.9 0.3-1.1 0.35 1.1-0.35m2.75-9.95 0.8 0.3-0.8-0.3-0.1-1.15-1.45-0.55-3.2 3.6 3.95-2.2 0.8 0.3m1.3-12.5 3.7-1.05 0.6 1.2-2.05 3.55-0.5-0.45-1.15-0.5-0.6-2.75" fill="#c57e4b" fill-rule="evenodd"/>
<path d="m271.7 208.35-0.3-0.1-0.35 0.15-2.6 1 1.05 4.25-1.05-0.35-1.45-1.7-1.15-1.9 0.1-2.45 0.3-0.7 6.85-1.95 4.15 1.75 1.15 0.5 0.5 0.45 3.2 3.2 0.65 2.7-0.25 3.9-0.15 0.5-0.4-2.5-1.3-2.65-3.05-2.65-5.9-1.45m8.65-5.8 1.2-0.35-0.1 0.55-0.5 1-0.6-1.2" fill="#5b371e" fill-rule="evenodd"/>
<path d="m275.35 216.1-0.8-0.3-3.95 2.2 3.2-3.6 1.45 0.55 0.1 1.15" fill="#002b00" fill-rule="evenodd"/>
<path d="m276.85 222.1 0.7-2 0.05 1.2-0.75 0.8" fill="#f2c35d" fill-rule="evenodd"/>
<path d="m273.1 204.6-0.45-0.2m-4.2 5 4.15 0.75 4.7 2.6 1.95 2.05 1.75 7.65 1.35-4.85m-16.1-11.05-0.3 0.7-0.1 2.45 1.15 1.9 1.45 1.7 1.05 0.35-1.05-4.25m7.7 7-0.1-2.5-2.8-0.95-5 5.35-0.45 2.7 0.4 3 0.9 2.45 3.05 1.9 0.95-0.3-0.5-2-1.1 0.35m1.1-0.35 0.9-0.3 3.05-2.75 0.3-0.9 0.7-2 0.25-0.75-0.55-2.6-1.1-0.35-1.6-0.6-3.95 2.2 3.2-3.6 1.45 0.55 0.1 1.15m6.2-13.9-0.1 0.55-0.5 1-2.05 3.55 3.2 3.2 0.65 2.7-0.25 3.9-0.15 0.5m-5.8-14.35 0.1 0.35 0.6 2.75 1.15 0.5 0.5 0.45m-2.05 14.8 0.75-0.8-0.05-1.2m-0.3-13.75-4.15-1.75z" fill="none" stroke="#000" stroke-linecap="round" stroke-linejoin="round" stroke-opacity=".25098" stroke-width=".05"/>
<path d="m271.2 207.6q0.5-0.4 0.95 0.2 0.3 0.5-0.05 0.95l-0.25 0.15q-0.65 0.45-0.9-0.15t0.1-1l0.15-0.15m2.5 1.15q0.25-0.2 0.55 0.15 0.3 0.3-0.05 0.5l-0.55-0.1q-0.25-0.35 0.05-0.55m6.5-5q-0.35-0.35 0.15-0.7 0.5-0.4 0.8 0 0.25 0.35-0.2 0.75l-0.75-0.05m1.6 9.9q0.3 0.6-0.2 1.05l0.3 0.4q0.55 0.9-0.15 1.35-0.75 0.5-1.1-0.35-0.3-0.75 0.05-1.3l-0.3-0.4q-0.25-0.55-0.05-0.85-0.15-0.5 0.3-0.7 0.5-0.3 0.8 0.2l0.1 0.25 0.25 0.35m-4.45-3.65q0.2 0.35-0.15 0.65-0.4 0.2-0.6-0.15-0.3-0.35 0.15-0.65 0.4-0.3 0.6 0.15m-1.3-0.3q0.35 0.65-0.2 1-0.65 0.35-0.95-0.2-0.35-0.65 0.25-1 0.55-0.4 0.9 0.2m3.75 2.85q-0.55 0.15-0.8-0.3-0.3-0.4 0.2-0.7t0.8 0.25-0.2 0.75m-2.05-1.9q-0.2-0.5 0.15-0.55 0.3-0.1 0.55 0.25t-0.1 0.5q-0.4 0.15-0.6-0.2" fill="#dbb997" fill-rule="evenodd"/>
<path d="m274.5 219.8 0.3-1.75-2.4 0.75-1.35 1.45-0.05 1.7 3.5-2.15" fill="#f2c35d" fill-rule="evenodd"/>
</g>
<radialGradient id="q" cx="0" cy="0" r="819.2" gradientTransform="matrix(.0074 -.0023 -.002 -.0086 285.8 266.4)" gradientUnits="userSpaceOnUse">
<stop stop-color="#159971" offset="0"/>
<stop stop-color="#93fe92" offset=".60392"/>
<stop stop-color="#f2fff2" offset=".98824"/>
</radialGradient>
<radialGradient id="p" cx="0" cy="0" r="819.2" gradientTransform="matrix(.0058 -.0018 -.0016 -.0068 275.85 225.85)" gradientUnits="userSpaceOnUse">
<stop stop-color="#159971" offset="0"/>
<stop stop-color="#93fe92" offset=".60392"/>
<stop stop-color="#f2fff2" offset=".98824"/>
</radialGradient>
</defs>
</svg>
