<?xml version="1.0" encoding="UTF-8"?>
<svg version="1.1" viewBox="0 0 249.77 254.83" xmlns="http://www.w3.org/2000/svg" xmlns:cc="http://creativecommons.org/ns#" xmlns:dc="http://purl.org/dc/elements/1.1/" xmlns:rdf="http://www.w3.org/1999/02/22-rdf-syntax-ns#" xmlns:xlink="http://www.w3.org/1999/xlink">
<metadata>
<rdf:RDF>
<cc:Work rdf:about="">
<dc:format>image/svg+xml</dc:format>
<dc:type rdf:resource="http://purl.org/dc/dcmitype/StillImage"/>
</cc:Work>
</rdf:RDF>
</metadata>
<g transform="translate(-156.63 -101.81)">
<use transform="translate(156.65,101.85)" width="249.7" height="254.75" xlink:href="#a"/>
</g>
<defs>
<g id="a" transform="translate(-156.65,-101.85)">
<path d="m326.55 121.6q2.2-2.7 4.8-0.15-1.2 0.35-2.3 0.85-3.15 1.4-5.8 4.05-5.2 5.2-5.55 12.5l-0.05 1.05 0.1 1.95 0.2 9.6 7.55 12.4q-6.55-1.7-11.65-6.8-7.65-7.7-7.6-18.5-0.05-2.5 0.4-4.8l0.4-1.95h-0.1l0.9-3 0.35-0.65 0.9-1.65q1.8-3.45 4.75-6.4l1.35-1.25-1.35 1.25q-2.95 2.95-4.75 6.4l-0.6-0.3-0.5-5.15-1.7 4.2-4.95-5.95 1.45 5.75-13.8-2-1.05-0.25-0.1-0.2 4-3.1-3.7-3.95q14.4 0.8 27.05 3.3 5.85 1.15 11.35 2.75m74.95 81.35 0.3 1.45-1.15 1.25q-2.4 2.35-5.05 4l3.95 19-2.35 2.2 5.4 4.35-2.95 2.3 3.65 1.15-2.95 1.9 0.2 5.75-0.9 1.2-3.6-3.75q-0.6-16.65-3.6-31-1.65 1.35-1.85-0.8l-3.6 0.95h-0.15l-4.65 0.4q-10.85-0.05-18.5-7.65-7.65-7.7-7.6-18.5-0.05-8.75 4.95-15.4l-0.75-3.55q-0.55-1.8-1.3-3.25l8.15-4.5 5 5.35q-1.75 1-3.2 2.4l-2 2.15-0.8 1.1-0.75 1.15q-3.5 5.75-2.5 12.5l0.1 0.65 0.15 0.75 0.2 0.7 1.85 9.7q4.3 8.15 13 11.6 6.3 1.7 12.95 1.2 6.25-1.05 10.35-6.75m-9.05 8.3 3.15-1.6-3.15 1.6m3.75 39.4 3.6 3.45 1-1.25 0.05 0.95-1.9 22.9 0.05 0.85-1.25 1.05-2.55-2.95q1.05-13.05 1-25m2.4 31.3-5.05 36.65-1.55 7.95-0.75 1.5-4.25 0.1 4.25-0.1-1.8 10.6-3.9-3.95 1.45-6.55q5.5-25.75 7.65-46.55l1.9 2.3 2.05-1.95m-5.05 48.55q10.8-7.9 12.45 0.9l0.25 1.5 0.05 0.75-8.1-1.65-5.8 4.1q0.4-2.5 1.1-5.35l0.05-0.25m1.45 22.65q-13.55 6.4-11.9-6.75l-7.55 4.5-0.7-1.1q5.3-1.8 9.6-10.3l1.1-4.8 3.9 3.95-0.2 1-0.75 8.2 2.35 4.25 4.15 1.05m-72.55-83.2-8.95-9.15 12.6-8.75-3.15 11.25 12.75 6.65h-13.25m-67.5-69.2-8.1 13.55 3.35-18.4 4.75 4.85m-5.7-5.85-21.05-1.75 15.65-3.8 5.4 5.55m-77.2-53.75-5.3-1.2 1.5-2.05q5.4-6.9 14.1-10.7h0.05q5.9-2.6 13.95-3.7l3.55-0.4 0.4 0.05 0.45 0.05h0.35l4.35-0.8q22.8-4.3 43-6l3.75 3.3-3.9 2.25 0.55 0.75-5.9-0.5-0.15 2.35-2.05-1.6-3.2 2.05-0.05-2.25-31.5 4.35-0.15-0.4-0.55-1.15-1.45-2.1-2.75-0.25 2.75 0.25 1.45 2.1 0.55 1.15-0.15 0.45-0.6 1.5q-4.85 9.6-33.05 12.5m82.95-25.25q14.8-1 28.15-0.55l2.9 2.6-4.4 3.45 0.5 0.9h-0.4l-0.1-0.9-0.6-4.45-2.1 4.7-20.9-0.2 1.6-1.5-4.65-4.05m128.75 227 0.7-3.4-0.7 3.4-0.15 0.6-0.5 2.9 0.5-2.9 0.15-0.6m-178.45-217.35 0.15-3.15-0.15 3.15" fill="#9f6a35" fill-rule="evenodd"/>
<path d="m368.35 140.85-2.2-1.65q-1.05-0.55-1.35-0.2-0.35 0.35 0.25 1.35 0.55 1 1.7 2.1l2.15 1.65q1.05 0.55 1.4 0.2 0.3-0.35-0.25-1.35l-1.7-2.1m-13.4-7.6q30.45 5.85 36.95 32.85-2.8-1.7-5.75-2.4-3.7-0.85-7.7-0.1l-3.5 0.9q-6.25-12.8-19.9-18.7l0.05-0.15q0.65-2.1 0.8-4.4v-2.75q-0.2-2.65-1-5l0.05-0.25m26.85 21.4q0.35-0.35-0.2-1.4l-1.7-2.1-2.2-1.65q-1.05-0.55-1.35-0.2-0.35 0.3 0.25 1.3 0.55 1.05 1.7 2.15l2.15 1.65q1 0.55 1.35 0.25" fill="#f99" fill-rule="evenodd"/>
<path d="m343 146.1q-0.8-0.95-0.8-2.1 0-1.4 1.1-2.4 1.1-1.05 2.7-1l0.65 0.05q1.15 0.15 2 0.95 0.8 0.7 1 1.6l0.1 0.7q-0.05 1.5-1.1 2.5-0.85 0.8-2 0.95l-0.65 0.05q-1.6 0-2.7-1l-0.3-0.3m35.6 24.85q1.25 0.9 1.6 2.35 0.3 1.45-0.5 2.6t-2.25 1.35q-1.5 0.2-2.75-0.7-1.3-0.9-1.65-2.35-0.3-1.4 0.45-2.5 0.85-1.25 2.3-1.45 1.5-0.2 2.8 0.7" fill-rule="evenodd"/>
<path d="m396.05 243.75 3.6 3.75 0.9-1.2 0.25 6.55-1 1.25-3.6-3.45-0.15-6.9m2.95 33.8-0.55 4.05 0.15 0.35-2.05 1.95-1.9-2.3 0.55-5.95 2.55 2.95 1.25-1.05m-150.55-161.15 6.55-0.5 4.65 4.05-1.6 1.5v-0.05l-8.8 1.45-0.2 0.15-0.2-0.3-0.55-0.75 3.9-2.25-3.75-3.3m34.7-1.05 5 0.2 3.7 3.95-4 3.1 0.1 0.2-1.65-0.45-4.15-0.05-0.5-0.9 4.4-3.45-2.9-2.6" fill="#cf9b23" fill-rule="evenodd"/>
<path d="m197.95 142.3q-8.7 2.4-25.9-1.15 28.2-2.9 33.05-12.5l0.6-1.5 0.15-0.45 0.15 0.4q0.55 1.4 0.75 3 0.3 5.1-2.2 8.2-2.2 2.75-6.6 4m-38.85-28.95-2.45-3.2q5.35 2.4 10.35-2.15 19.3-16.7 33.15 11.85l0.2 0.25 0.4 3.1-0.45-0.05-0.4-0.05-3.55 0.4q-6.05-16.9-37.25-10.15" fill="#80552b" fill-rule="evenodd"/>
<path d="m375.55 350.9-1.45 0.85-0.45 0.4q-8.8 7.65-24.8 2.2l-17.3-14.15q11.75 2.15 32.9-5 12.55-3.05 10.4 14.6l0.7 1.1m-193.25-223.7q-12.15-0.35-23.2-13.85 31.2-6.75 37.25 10.15-8.05 1.1-13.95 3.7h-0.1m189.85 223.15q-9.35 7.65-18.5 2.15 9.15 5.5 18.5-2.15m-4.65-8.4q3.75-0.65 5.75 7.05-2-7.7-5.75-7.05" fill="#5a3d1f" fill-rule="evenodd"/>
<path d="m368.35 140.85 1.7 2.1q0.55 1 0.25 1.35-0.35 0.35-1.4-0.2l-2.15-1.65q-1.15-1.1-1.7-2.1-0.6-1-0.25-1.35 0.3-0.35 1.35 0.2l2.2 1.65m13.45 13.8q-0.35 0.3-1.35-0.25l-2.15-1.65q-1.15-1.1-1.7-2.15-0.6-1-0.25-1.3 0.3-0.35 1.35 0.2l2.2 1.65 1.7 2.1q0.55 1.05 0.2 1.4" fill="#8c2517" fill-rule="evenodd"/>
<path d="m353.75 148.85 1.3-3.05q13.65 5.9 19.9 18.7l-1.3 0.55-1.5 0.75-5-5.35q-6.5-6.6-13.4-11.6" fill="#db3c24" fill-rule="evenodd"/>
<path d="m400.9 184q-0.25 3.1-1.55 6l-0.75 1.5-1.1 1.8q-4.55 6.45-12.3 7.9-5.05 0.85-9.55-0.7-2.45-0.85-4.75-2.45t-3.95-3.6q-2-2.4-3.05-5.35 21.6 14.2 37-5.1m-51.25-40.8q5.35-1 6.25-4.35v2.4q-0.15 2.3-0.8 4.4l-0.05 0.15-1.3 3.05-0.35 0.6q-1.25 2.1-3.1 3.95-1.7 1.7-3.65 2.9-4.4 2.7-9.85 2.7-7.95 0-13.55-5.6-4.05-4.05-5.15-9.35 11.9 5 24.9 2.05l0.3 0.3q1.1 1 2.7 1l0.65-0.05q1.15-0.15 2-0.95 1.05-1 1.1-2.5l-0.1-0.7" fill="#b9ab8e" fill-rule="evenodd"/>
<path d="m325.5 163.85-7.55-12.4-0.2-9.6 0.35 2.2q1.1 5.3 5.15 9.35 5.6 5.6 13.55 5.6 5.45 0 9.85-2.7 1.95-1.2 3.65-2.9 1.85-1.85 3.1-3.95l0.35-0.6q6.9 5 13.4 11.6l-8.15 4.5q-3.35-6.3-10.85-5.55l-1.5 1.05q-6.3 4.2-14.3 4.25-3.6-0.05-6.85-0.85m73.85 26.15q1.85 1.55 0 4.1l2.15 8.85q-4.1 5.7-10.35 6.75-6.65 0.5-12.95-1.2-8.7-3.45-13-11.6l-1.85-9.7 0.55 1.9q1.05 2.95 3.05 5.35 1.65 2 3.95 3.6t4.75 2.45q4.5 1.55 9.55 0.7 7.75-1.45 12.3-7.9l1.1-1.8 0.75-1.5m2.45 14.4q3.95 19.65 3.45 43.75l-2.9-4.1-1.8 2.25-0.2-5.75 2.95-1.9-3.65-1.15 2.95-2.3-5.4-4.35 2.35-2.2-3.95-19q2.65-1.65 5.05-4l1.15-1.25m3.15 51.7q-0.55 11.05-2 23l-1.9-3.25-2.05 1.7-0.05-0.85 1.9-22.9-0.05-0.95 1.3-1.6 2.85 4.85m-2.7 28.65q-2.8 20.4-8.1 43.25l-2.9 0.05 2.9-0.05-0.6 2.5-0.05 0.25q-0.7 2.85-1.1 5.35l-0.35 2 0.35-2 5.8-4.1 8.1 1.65q0.8 11.3-7.6 17.55l-3.7 1.95-4.15-1.05-2.35-4.25 0.75-8.2 0.2-1 1.8-10.6 0.75-1.5 1.55-7.95 5.05-36.65 1.05-1.1 2.6 3.9m-10.2 53.35-0.4 2.8-2.2-2.25 2.2 2.25 0.4-2.8m0.05 3.3-0.45-0.5q-0.2 1.4-0.25 2.55-0.55 8.95 5.75 2.85l1.25-1.45 0.8 0.15-0.8-0.15-1.25 1.45q-6.3 6.1-5.75-2.85 0.05-1.15 0.25-2.55l0.45 0.5m5.75-3.15q6.15-0.25 0.55 6.6l-7-1.4 7 1.4q5.6-6.85-0.55-6.6" fill="#634221" fill-rule="evenodd"/>
<path d="m309.1 126.5-0.9 1.65-0.35 0.65-0.9 3q-2.55 0-1.5-3.5-7.55-1.5-15.75-2.3l-1.75-3.2 1.05 0.25 13.8 2-1.45-5.75 4.95 5.95 1.7-4.2 0.5 5.15 0.6 0.3m-103.1 0.6 31.5-4.35 0.05 2.25 3.2-2.05 2.05 1.6 0.15-2.35 5.9 0.5 0.2 0.3 1.7 2.15q-20.55 1.05-44 4.95-0.2-1.6-0.75-3m76.15-4.8 1.8 3.15q-11.9-0.9-24.95-0.6l-2.25-2.2 1.3-1.2 20.9 0.2 2.1-4.7 0.6 4.45 0.1 0.9h0.4" fill="#7e5429" fill-rule="evenodd"/>
<path d="m282.15 122.3 4.15 0.05 1.65 0.45 1.75 3.2-5.75-0.55-1.8-3.15m-23.15 2.55-8.25 0.3-1.7-2.15 0.2-0.15 8.8-1.45v0.05l-1.3 1.2 2.25 2.2" fill="#a87d1c" fill-rule="evenodd"/>
<path d="m405.25 248.15-0.3 7.95-2.85-4.85-1.3 1.6-0.25-6.55 1.8-2.25 2.9 4.1m-2.3 30.95-0.7 5.65-2.6-3.9-1.05 1.1-0.15-0.35 0.55-4.05 2.05-1.7 1.9 3.25" fill="#806015" fill-rule="evenodd"/>
<path d="m317.75 141.85-0.1-1.95 0.05-1.05q0.35-7.3 5.55-12.5 2.65-2.65 5.8-4.05 1.1-0.5 2.3-0.85h0.1l5.35-0.7 5.3 0.7q2.4 0.65 4.55 2l3.1 2.35 0.55 0.55q3.1 3.1 4.5 6.9l0.1 0.25q0.8 2.35 1 5v0.35q-0.9 3.35-6.25 4.35-0.2-0.9-1-1.6-0.85-0.8-2-0.95l-0.65-0.05q-1.6-0.05-2.7 1-1.1 1-1.1 2.4 0 1.15 0.8 2.1-13 2.95-24.9-2.05l-0.35-2.2m74.15 24.25 0.85 0.6 1.9 1.5q4.8 4.25 5.95 10.8 0.45 2.55 0.3 5-15.4 19.3-37 5.1l-0.55-1.9-0.2-0.7-0.15-0.75-0.1-0.65q-1-6.75 2.5-12.5l0.75-1.15 0.8-1.1 2-2.15q1.45-1.4 3.2-2.4l1.5-0.75 1.3-0.55 3.5-0.9q4-0.75 7.7 0.1 2.95 0.7 5.75 2.4m-13.3 4.85q-1.3-0.9-2.8-0.7-1.45 0.2-2.3 1.45-0.75 1.1-0.45 2.5 0.35 1.45 1.65 2.35 1.25 0.9 2.75 0.7 1.45-0.2 2.25-1.35t0.5-2.6q-0.35-1.45-1.6-2.35" fill="#fff" fill-rule="evenodd"/>
<path d="m326.55 121.6q-5.5-1.6-11.35-2.75l-1.35 1.25q-2.95 2.95-4.75 6.4l-0.9 1.65m-1.15 3.65-0.4 1.95q-0.45 2.3-0.4 4.8-0.05 10.8 7.6 18.5 5.1 5.1 11.65 6.8m-7.75-22-0.1-1.95 0.05-1.05q0.35-7.3 5.55-12.5 2.65-2.65 5.8-4.05 1.1-0.5 2.3-0.85h0.1l5.35-0.7 5.3 0.7q2.4 0.65 4.55 2l3.1 2.35 0.55 0.55q3.1 3.1 4.5 6.9h0.15q30.45 5.85 36.95 32.85l0.85 0.6 1.9 1.5q4.8 4.25 5.95 10.8 0.45 2.55 0.3 5-0.25 3.1-1.55 6l-0.75 1.5-1.1 1.8q-4.55 6.45-12.3 7.9-5.05 0.85-9.55-0.7-2.45-0.85-4.75-2.45t-3.95-3.6q-2-2.4-3.05-5.35l-0.55-1.9-0.2-0.7-0.15-0.75-0.1-0.65q-1-6.75 2.5-12.5l0.75-1.15 0.8-1.1 2-2.15q1.45-1.4 3.2-2.4l-5-5.35q-6.5-6.6-13.4-11.6l1.3-3.05m44.3 48.3 2.15 8.85 0.3 1.45q3.95 19.65 3.45 43.75l-0.3 7.95q-0.55 11.05-2 23l-0.7 5.65q-2.8 20.4-8.1 43.25l-0.6 2.5m-37.65-191.65v-0.35q-0.2-2.65-1-5l-0.1-0.25m-36.7 10.8q1.1 5.3 5.15 9.35 5.6 5.6 13.55 5.6 5.45 0 9.85-2.7 1.95-1.2 3.65-2.9 1.85-1.85 3.1-3.95l0.35-0.6m1.35-3.2q0.65-2.1 0.8-4.4v-2.4m5.15 32.9q-5 6.65-4.95 15.4-0.05 10.8 7.6 18.5 7.65 7.6 18.5 7.65l4.65-0.4m5.6-0.15q3 14.35 3.6 31l0.15 6.9q0.05 11.95-1 25l-0.55 5.95q-2.15 20.8-7.65 46.55m8.6-118.5-3.15 1.6m-44.3-51.85-1.5 1.05q-6.3 4.2-14.3 4.25-3.6-0.05-6.85-0.85m49.45 0.65 3.5-0.9q4-0.75 7.7 0.1 2.95 0.7 5.75 2.4m-19.75-0.3 1.5-0.75 1.3-0.55m26.85 39.9-1.15 1.25q-2.4 2.35-5.05 4m-11.15 129.85 1.1-4.8 1.45-6.55m-220.25-188.2 1.5-2.05q5.4-6.9 14.1-10.7m18.75-4 4.35-0.8q22.8-4.3 43-6l6.55-0.5q14.8-1 28.15-0.55l5 0.2q14.4 0.8 27.05 3.3m76.85 219.25 0.35-2q0.4-2.5 1.1-5.35m-9.05 8.75-0.7 3.4m-183.45-219.75-0.4-0.05-3.55 0.4q-8.05 1.1-13.95 3.7h-0.05m-0.05 0h0.1m107.3-1.2q8.2 0.8 15.75 2.3m-21.5-2.85 5.75 0.55m28.4 18.05-0.35-2.2m-33.8-16.4q-11.9-0.9-24.95-0.6l-8.25 0.3q-20.55 1.05-44 4.95" fill="none" stroke="#000" stroke-linecap="round" stroke-linejoin="round" stroke-width=".05"/>
<path d="m331.35 121.45q-2.6-2.55-4.8 0.15m-19.6 10.2h0.1m92.3 58.2q1.85 1.55 0 4.1m-5.2 133.9h0.5m-51.65-181.9q-0.8-0.95-0.8-2.1 0-1.4 1.1-2.4 1.1-1.05 2.7-1l0.65 0.05q1.15 0.15 2 0.95 0.8 0.7 1 1.6l0.1 0.7q-0.05 1.5-1.1 2.5-0.85 0.8-2 0.95l-0.65 0.05q-1.6 0-2.7-1l-0.15-0.15m15.85 18.7q0.75 1.45 1.3 3.25l0.75 3.55m29.55 40.2q0.2 2.15 1.85 0.8m-44.3-53.35q7.5-0.75 10.85 5.55m19.6 6q1.25 0.9 1.6 2.35 0.3 1.45-0.5 2.6t-2.25 1.35q-1.5 0.2-2.75-0.7-1.3-0.9-1.65-2.35-0.3-1.4 0.45-2.5 0.85-1.25 2.3-1.45 1.5-0.2 2.8 0.7m12.65 157.1 2.9-0.05m-0.6 2.5q10.8-7.9 12.45 0.9l0.25 1.5 0.05 0.75q0.8 11.3-7.6 17.55l-3.7 1.95q-13.55 6.4-11.9-6.75l-7.55 4.5-1.45 0.85-0.45 0.4q-8.8 7.65-24.8 2.2l-17.3-14.15q11.75 2.15 32.9-5 12.55-3.05 10.4 14.6 5.3-1.8 9.6-10.3m1.1-4.8-6.25-6.4-56.85-58.35-8.95-9.15-58.55-60.05-8.1 13.55 3.35-18.4-0.95-1-21.05-1.75 15.65-3.8-39.85-40.85-6.05-6.2q-8.7 2.4-25.9-1.15l-5.3-1.2m15.6-12.75h-0.05q-12.15-0.35-23.2-13.85l-2.45-3.2q5.35 2.4 10.35-2.15 19.3-16.7 33.15 11.85l0.2 0.25 0.4 3.1h0.35m185.9 204.95 4.25-0.1m-1.8 10.6 2.2 2.25 0.4-2.8m1.45-7.35 0.05-0.25m-9.8 12.4-0.15 0.6-0.5 2.9m16.1-1.4-0.8-0.15-1.25 1.45q-6.3 6.1-5.75-2.85 0.05-1.15 0.25-2.55l0.45 0.5m-2.65-2.75-3.9-3.95m1.45-6.55-7.7 0.15m12.1 15.15 7 1.4q5.6-6.85-0.55-6.6m-22.3 12.65-0.7-1.1m-169-223.1-0.55-1.15-1.45-2.1-2.75-0.25m4.75 3.5 0.15 0.4m-8.05 15.2q4.4-1.25 6.6-4 2.5-3.1 2.2-8.2-0.2-1.6-0.75-3m-2 21.4 0.55-10.2m0.9-15.9-0.15 3.15m-4.55-2.35-0.45-0.05m105.15 5.15q-1.05 3.5 1.5 3.5m-57.7 63.1-5.4-5.55m11.1 11.4-4.75-4.85m63.3 64.9 12.6-8.75-3.15 11.25 12.75 6.65h-13.25" fill="none" stroke="#000" stroke-linecap="round" stroke-linejoin="round" stroke-width=".05"/>
<path d="m373.25 349q-2-7.7-5.75-7.05m-13.85 10.55q9.15 5.5 18.5-2.15" fill="none" stroke="#cf9b23" stroke-linecap="round" stroke-linejoin="round" stroke-width=".05"/>
</g>
</defs>
</svg>
