<?xml version="1.0" encoding="UTF-8"?>
<svg version="1.1" viewBox="0 0 79.17 88.604" xmlns="http://www.w3.org/2000/svg" xmlns:cc="http://creativecommons.org/ns#" xmlns:dc="http://purl.org/dc/elements/1.1/" xmlns:rdf="http://www.w3.org/1999/02/22-rdf-syntax-ns#" xmlns:xlink="http://www.w3.org/1999/xlink">
<metadata>
<rdf:RDF>
<cc:Work rdf:about="">
<dc:format>image/svg+xml</dc:format>
<dc:type rdf:resource="http://purl.org/dc/dcmitype/StillImage"/>
</cc:Work>
</rdf:RDF>
</metadata>
<g transform="translate(-235.38 -155.65)">
<use transform="translate(235.4,155.65)" width="79.150002" height="88.599998" xlink:href="#a"/>
</g>
<defs>
<g id="a" transform="translate(-235.4,-155.65)">
<path d="m294.65 168.55-2.6-2.75-8.6-0.55 8.25-3.15h5l-2.05 6.45m-14.35-2.05 10.45 1.35 3.7 2.8-0.05 0.7-0.2 2.6-0.75 3.55-0.8 1.6 2.85-1.3 2.05-0.25 3.25-0.45 3.15 2.2 2.95 12-1.9 3.65-1.6-4.2q0.35 0 0.6-0.55l0.3-1.2-0.3-1.25-0.6-0.5q-0.35 0-0.65 0.5l-1.5-7.3-0.8-1.1q-1.15-1.25-4-0.8-2.2 0.3-3.95 2.15-21.45 21.85-40.95 45.6l-0.55 0.9q-2.5 4.15-7.15-1.15-0.85-1.7-1.4-3.6 23.9-13.4 48.45-45.5l0.3-0.4 1.45-1.4q0.65-2-1.45-3.35-7.75-1.95-17.45-1.75l6.55-3.55m2.6 3.4 0.45-0.55-0.45-0.6-1.1-0.2-1.1 0.2q-0.45 0.25-0.45 0.6t0.45 0.55l1.1 0.25 1.1-0.25m21.1 6.65 4.7-3.5 1.25 5.7-2.35 9.75-2.5-11.05-2.8-0.55 1.55-0.25 0.15-0.1" fill="#fff" fill-rule="evenodd"/>
<path d="m283.45 165.25 8.6 0.55 2.6 2.75-0.25 0.7 0.05 1.4-3.7-2.8-10.45-1.35 3.15-1.25m-0.55 4.65-1.1 0.25-1.1-0.25q-0.45-0.2-0.45-0.55t0.45-0.6l1.1-0.2 1.1 0.2 0.45 0.6-0.45 0.55m19.85 17.85q0.3-0.5 0.65-0.5l0.6 0.5 0.3 1.25-0.3 1.2q-0.25 0.55-0.6 0.55t-0.65-0.55q-0.25-0.5-0.25-1.2t0.25-1.25m4.15 3.55-2.95-12-3.15-2.2 1.5-0.2 2.8 0.55 2.5 11.05-0.7 2.8m-67.35 50.5-1.75 2.3q-2.85 0.4-2.2-2.2l1.6-2.15q0.25 0.75 0.8 1.25l1 0.6 0.55 0.2" fill="#006" fill-rule="evenodd"/>
<path d="m273.75 170.05q9.7-0.2 17.45 1.75 2.1 1.35 1.45 3.35l-1.45 1.4v-2.85q-8.7-2.1-17.45-1.85-1.5-1.2 0-1.8m-29.9 56q4.65 5.3 7.15 1.15l0.55-0.9q19.5-23.75 40.95-45.6 1.75-1.85 3.95-2.15 2.85-0.45 4 0.8l0.8 1.1 1.5 7.3q-0.25 0.55-0.25 1.25t0.25 1.2q0.3 0.55 0.65 0.55l1.6 4.2-0.6 1.15q-0.8 1.45-1.6 0-1.2-7.25-3.25-14l-0.7-2.2h-2.55l-0.35 0.35q-27.2 25.95-41.45 55.4-2.05-0.75-3.8-1.85l1.9-3.7-2.9 3.05-0.65-0.5q-2.1-1.65-3.65-3.9l-1.55-2.7" fill="#eaecee" fill-rule="evenodd"/>
<path d="m300.8 177.1-3.25 0.45-3.35-3.6 0.2-2.6 9.6 5.2-0.15 0.1-1.55 0.25-1.5 0.2" fill="#666" fill-rule="evenodd"/>
<path d="m297.55 177.55-2.05 0.25-2.85 1.3 0.8-1.6 0.75-3.55 3.35 3.6" fill="#ccc" fill-rule="evenodd"/>
<path d="m249.05 232.65-8.05 9.4-1.45-0.25-0.55-0.2 5.85-7.35-1.7-2.9 2.25-2.6q1.55 2.25 3.65 3.9m-11.05 8.35q-0.55-0.5-0.8-1.25l4-3.4-3.2 4.65" fill="#744e00" fill-rule="evenodd"/>
<path d="m237.2 239.75q-0.2-0.6-0.15-1.35l6.1-7.05 1.7 2.9-5.85 7.35-1-0.6 3.2-4.65-4 3.4" fill="#960" fill-rule="evenodd"/>
<path d="m283.45 165.25 8.6 0.55 2.6 2.75 2.05-6.45h-5l-8.25 3.15-3.15 1.25 10.45 1.35 3.7 2.8-0.05-1.4 0.25-0.7m-20.9 1.5q-1.5 0.6 0 1.8 8.75-0.25 17.45 1.85v2.85l-0.3 0.4q-24.55 32.1-48.45 45.5 0.55 1.9 1.4 3.6m58.9-38.3q0.3-0.5 0.65-0.5l0.6 0.5 0.3 1.25-0.3 1.2q-0.25 0.55-0.6 0.55t-0.65-0.55q-0.25-0.5-0.25-1.2t0.25-1.25m2.25 7.2 1.9-3.65-2.95-12-3.15-2.2-3.25 0.45-2.05 0.25-2.85 1.3 0.8-1.6 0.75-3.55 0.2-2.6 0.05-0.7m-14.15-4.15-6.55 3.55m30.25 6.5 4.7-3.5 1.25 5.7-2.35 9.75-0.7 2.8m-4.6-14.4 1.55-0.25 0.15-0.1-9.6-5.2m10.6 23.6-0.6 1.15q-0.8 1.45-1.6 0-1.2-7.25-3.25-14l-0.7-2.2h-2.55l-0.35 0.35q-27.2 25.95-41.45 55.4-2.05-0.75-3.8-1.85l1.9-3.7-2.9 3.05-0.65-0.5-8.05 9.4-1.45-0.25-1.75 2.3q-2.85 0.4-2.2-2.2l1.6-2.15q-0.2-0.6-0.15-1.35l6.1-7.05 2.25-2.6-1.55-2.7m56.95-48.95 1.5-0.2 2.8 0.55 2.5 11.05m-13.4-14.55 3.35 3.6m-58 64.25-0.55-0.2-1-0.6q-0.55-0.5-0.8-1.25m8.2-11q1.55 2.25 3.65 3.9" fill="none" stroke="#000" stroke-linecap="round" stroke-linejoin="round" stroke-opacity=".30196" stroke-width=".2"/>
<path d="m282.9 169.9-1.1 0.25-1.1-0.25q-0.45-0.2-0.45-0.55t0.45-0.6l1.1-0.2 1.1 0.2 0.45 0.6-0.45 0.55" fill="none" stroke="#000" stroke-linecap="round" stroke-linejoin="round" stroke-opacity=".30196" stroke-width=".2"/>
<path d="m295.75 161.7q0.8-1.2 1.8-2.1 2.15 0.45 4.1 1.3-1.55 1.25-2.85 2.8l3.75 2.8 2.95-3.3q-1.75-1.4-3.85-2.3 1.95-1.65 4.35-2.8 1.6 0.65 2.9 1.8l-3.4 3.3q2.1 1.7 3.7 4.05l-2.45 3-4.2-3.75-2.7 3.25-3.2-2.95q0.95-1.7 2.15-3.1l-3.05-2" fill="#d9f4fd" fill-rule="evenodd"/>
<path d="m302.55 166.5-3.75-2.8q1.3-1.55 2.85-2.8 2.1 0.9 3.85 2.3l-2.95 3.3" fill="#f3fcfe" fill-rule="evenodd"/>
<path d="m294.35 160.85 1.25-1.6 1.95 0.35q-1 0.9-1.8 2.1l-1.4-0.85m14.3-3.85 2.05 1.45-1.8 1.45q1.45 1.3 2.55 3.25l-2.25 4.1q-1.6-2.35-3.7-4.05l3.4-3.3q-1.3-1.15-2.9-1.8-2.4 1.15-4.35 2.8-1.95-0.85-4.1-1.3 1.4-1.45 3.2-2.35 2.95-0.05 5.25 0.85l2.65-1.1m-14.3 7.2 1.4-2.5 3.05 2q-1.2 1.4-2.15 3.1l3.2 2.95-2.55 3.3-2.35-2.7 1.7-3.55-2.3-2.6m14.85 3.05q1.25 1.85 2.25 4.15l-1.7 1.9-3-3.05q-1.35 1.3-2.9 2.45-2.1-1.4-4-2.95l2.7-3.25 4.2 3.75 2.45-3" fill="#bceffa" fill-rule="evenodd"/>
<path d="m293.3 162.9q0.4-1.1 1.05-2.05l1.4 0.85-1.4 2.5 2.3 2.6-1.7 3.55-1.8-2.75q0.5-1.85 1.2-3.4l-1.05-1.3m2.3-3.65 0.25-0.3q0.8-0.8 1.65-1.35l3.25-0.35q-1.8 0.9-3.2 2.35l-1.95-0.35m9.4-3.4q1.95 0.25 3.65 1.15l-2.65 1.1q-2.3-0.9-5.25-0.85 1.9-0.95 4.25-1.4m5.7 2.6 0.55 0.5 1.15 1.35-0.95 2.85q1.15 2.15 1.8 5.1l-1.8 3.15 0.75 1.95-0.95 1-0.3 0.3-1.2-1.35-2.15 1.7-3.75-2.3-4 2.35-2.55-2-1.15 1.6-0.3-0.3-1.6-2 0.7-2 2.35 2.7 2.55-3.3q1.9 1.55 4 2.95 1.55-1.15 2.9-2.45l3 3.05 1.7-1.9q-1-2.3-2.25-4.15l2.25-4.1q-1.1-1.95-2.55-3.25l1.8-1.45" fill="#aaeaf4" fill-rule="evenodd"/>
<path d="m292.65 166.65q0-2 0.65-3.75l1.05 1.3q-0.7 1.55-1.2 3.4l1.8 2.75-0.7 2q-1.05-1.65-1.4-3.6l0.3-1.15-0.5-0.95m4.85-9.05q2.65-1.85 6.05-1.85l1.45 0.1q-2.35 0.45-4.25 1.4l-3.25 0.35m14.9 2.7q1.6 2.15 1.95 4.75l-1.1 3.2q-0.65-2.95-1.8-5.1l0.95-2.85m1.25 10.55-1.45 2.5-0.75-1.95 1.8-3.15 0.4 2.6m-2.7 3.8-1.6 1.25-1.75-0.9q-1.75 1.1-3.9 1.7-2.05-0.55-3.85-1.65l4-2.35 3.75 2.3 2.15-1.7 1.2 1.35m-13.2 1.25-1.6-1.25 1.15-1.6 2.55 2-2.1 0.85" fill="#86d3e3" fill-rule="evenodd"/>
<path d="m292.85 168.75-0.2-2.1 0.5 0.95-0.3 1.15m21.5-3.7 0.1 1.6q0 2.25-0.8 4.2l-0.4-2.6 1.1-3.2m-5 10.85q-1.3 0.85-2.75 1.25l-3.05 0.4-2.75-0.3q-1.65-0.45-3.05-1.35l2.1-0.85q1.8 1.1 3.85 1.65 2.15-0.6 3.9-1.7l1.75 0.9m-8.55 1.35 2.9-0.55 2.9 0.45-2.9-0.45-2.9 0.55" fill="#4594c2" fill-rule="evenodd"/>
<path d="m292.85 168.75-0.2-2.1q0-2 0.65-3.75 0.4-1.1 1.05-2.05l1.25-1.6 0.25-0.3q0.8-0.8 1.65-1.35 2.65-1.85 6.05-1.85l1.45 0.1q1.95 0.25 3.65 1.15l2.05 1.45 0.55 0.5 1.15 1.35q1.6 2.15 1.95 4.75l0.1 1.6q0 2.25-0.8 4.2l-1.45 2.5-0.95 1-0.3 0.3-1.6 1.25q-1.3 0.85-2.75 1.25l-3.05 0.4-2.75-0.3q-1.65-0.45-3.05-1.35l-1.6-1.25-0.3-0.3-1.6-2q-1.05-1.65-1.4-3.6" fill="none" stroke="#000" stroke-linecap="round" stroke-linejoin="round" stroke-opacity=".30196" stroke-width=".2"/>
<path d="m292.85 168.75 0.3-1.15-0.5-0.95m20.6 1.6 1.1-3.2m-18.6-3.35q0.8-1.2 1.8-2.1l-1.95-0.35m-1.25 4.95 1.4-2.5-1.4-0.85m0.6 9.5 1.7-3.55-2.3-2.6q-0.7 1.55-1.2 3.4l1.8 2.75 2.35 2.7 2.55-3.3-3.2-2.95q0.95-1.7 2.15-3.1l-3.05-2m-1.4 2.5-1.05-1.3m9.25 3.6-3.75-2.8q1.3-1.55 2.85-2.8-1.95-0.85-4.1-1.3 1.4-1.45 3.2-2.35l-3.25 0.35m11.4 2.3 1.8-1.45m-1.5 8.8 2.25-4.1q-1.1-1.95-2.55-3.25l-3.4 3.3q2.1 1.7 3.7 4.05 1.25 1.85 2.25 4.15l1.8-3.15q-0.65-2.95-1.8-5.1l0.95-2.85m-11.65-3.05q2.95-0.05 5.25 0.85l2.65-1.1m-2.65 1.1q1.6 0.65 2.9 1.8m-6.35 6.6 2.95-3.3q-1.75-1.4-3.85-2.3 1.95-1.65 4.35-2.8m-5.25-0.85q1.9-0.95 4.25-1.4m6.45 15.55 0.75 1.95m-5.45-3.1 3 3.05 1.7-1.9m-0.5 3.25-1.2-1.35-2.15 1.7 1.75 0.9m-9.5-6.15q1.9 1.55 4 2.95 1.55-1.15 2.9-2.45l-4.2-3.75-2.7 3.25m0 5.3q1.8 1.1 3.85 1.65 2.15-0.6 3.9-1.7l-3.75-2.3-4 2.35-2.55-2-1.15 1.6m10.45 2.5-2.9-0.45-2.9 0.55m-5.85-6.9-0.7 2m3.5 3.55 2.1-0.85m13.4-6.8 0.4 2.6m-4.45-3.6-2.45 3" fill="none" stroke="#fff" stroke-linecap="round" stroke-linejoin="round" stroke-opacity=".30196" stroke-width=".2"/>
</g>
</defs>
</svg>
