<?xml version="1.0" encoding="UTF-8"?>
<svg version="1.1" viewBox="0 0 202.34 212.22" xmlns="http://www.w3.org/2000/svg" xmlns:cc="http://creativecommons.org/ns#" xmlns:dc="http://purl.org/dc/elements/1.1/" xmlns:rdf="http://www.w3.org/1999/02/22-rdf-syntax-ns#" xmlns:xlink="http://www.w3.org/1999/xlink">
<metadata>
<rdf:RDF>
<cc:Work rdf:about="">
<dc:format>image/svg+xml</dc:format>
<dc:type rdf:resource="http://purl.org/dc/dcmitype/StillImage"/>
</cc:Work>
</rdf:RDF>
</metadata>
<g transform="translate(-174.33 -295.04)">
<use transform="translate(174.35,322)" width="186.35001" height="185.25" xlink:href="#q"/>
<use transform="matrix(1.7531 -1.6883 -.0273 .4069 253.6 412.38)" width="56" height="56" xlink:href="#a"/>
<use transform="matrix(.9249 .3792 -.3792 .9249 219.25 412.63)" width="42.650002" height="104.25" xlink:href="#c"/>
<use transform="matrix(.9249 .3792 -.3792 .9249 211.4 398.03)" width="42.650002" height="104.25" xlink:href="#c"/>
<use transform="matrix(.9249 .3792 -.3792 .9249 186.03 463.31)" width="14.65" height="21" xlink:href="#h"/>
<use transform="matrix(.7922 -.9843 .3027 .0901 164.61 501.48)" width="50.900002" height="54.450001" xlink:href="#b"/>
<use transform="matrix(.1978 .1138 -.1288 .2238 337.69 277.96)" width="286.64999" height="712.45001" xlink:href="#g"/>
<use transform="matrix(.4099 .257 -.3408 .5435 188.01 461.42)" width="33" height="37.549999" xlink:href="#f"/>
<use transform="translate(178.25,466.75)" width="22.85" height="21.799999" xlink:href="#i"/>
<use transform="matrix(-.2946 .1103 -.0365 -.0975 197.1 484.3)" width="56" height="56" xlink:href="#a"/>
<use transform="matrix(.6008 -.7945 .348 .1485 204.89 460.68)" width="50.900002" height="54.450001" xlink:href="#b"/>
<use transform="matrix(.6115 -.7868 .4361 -.0526 212.55 473.64)" width="50.900002" height="54.450001" xlink:href="#b"/>
<use transform="matrix(.6115 -.7868 .4361 -.0526 176.15 506.19)" width="50.900002" height="54.450001" xlink:href="#b"/>
</g>
<defs>
<g id="q" transform="translate(-174.35,-322)">
<path d="m352.45 322.35 3.7-0.05 0.8 6.15 0.05 0.6 0.3 4.45 0.2 7.15h-4.8l-0.1-4.5-0.05-6.05 3.75-0.95-3.7-0.2-0.1-0.55-0.05-6.05" fill="#e4cbb4" fill-rule="evenodd"/>
<path d="m360.45 340.5-91.55 86.75-9.3 8.75q-6.75 2.8-11.7 2l-0.25-0.05 12.4-11.55q1.35-1.15 7.2-4.6 8-4.7 12.95-9 3.15-2.75 4.4-4.7 1.1-1.6 3.3-3.45 2.05-1.45 12.5-11.6l11.35-11.55q1.15-1.5 6.9-6.4l5.65-4.9q-0.1-1.5 0.85-3.95l6.5-6.1 2.1-1.8 4.9-4.75 8.45-7.75 0.55 3.6q9.9-8.5 9.85-8.8l2.95-0.15m-70.6 38.35 40.35-36.35q3.3 0.4 3.35 2.9 0 2.15-5.15 7.75-5 5.3-12.4 11.15-17.15 13.65-26.15 14.55m62.75-49.9 3.7 0.2-3.75 0.95-8.1 6.9 7.55-8.1 0.6 0.05m-6.9 22.1 1.95-1.6-1.95 1.6m-20.45 18.2-0.95 0.95 0.95-0.95m-78.95 58.55 0.5-3.75 26.85-22.45-27.35 26.2m22.6-0.55q-4.4 2.8-12.85 9.5l-0.45 0.3-0.35 0.05-0.1 0.35 0.45-0.4-0.45 0.4 0.1-0.35 0.35-0.05 0.45-0.3q8.45-6.7 12.85-9.5m1.9-4.45-2.2 0.9-1.9 1.05 1.9-1.05 2.2-0.9m-5.9 3.45q-8.75 6.2-13.1 11.3 4.35-5.1 13.1-11.3" fill="#c1874f" fill-rule="evenodd"/>
<path d="m339.25 334.3 13.2-11.95 0.05 6.05-0.5 0.5-7.55 8.1 8.1-6.9 0.05 6.05 0.1 4.5-5.6 5.2-8.45 7.75q2.7-2.85 3.25-4.7 0.25-1.1 0-2.5l-0.35-2.5-0.2-4.25q-0.55-3.7-2.1-5.35m16.9-12 4.1-0.05 0.2 18.25-2.95 0.15-0.2-7.15-0.3-4.45-0.05-0.6-0.8-6.15m-103 89.85 22.25-20.2 2.6 0.4 0.1-0.05q6.95-0.1 19.65-7.4l6.65-4.05q10.25-6.6 20.85-15.35l6.4-5.35-6.5 6.1-52.95 48.95-1.6-5.5-0.7-0.3q0.05 3.7 1.4 5.8l-11.25 11.2-12.4 11.55q-0.8-1.8-1.2-3.85-0.45-2.85-0.15-6.3l27.35-26.2-26.85 22.45q-0.85-0.65 0.05-4.75l3.5-2.5q2.85-2.1 2.8-4.65m99.45-76q-0.95 0.85-3.25 2.35-1.7 1.05-2.3 1.95 0.6-0.9 2.3-1.95 2.3-1.5 3.25-2.35m-74.6 56.2-2.6 2.4q-4.9 4.6-5.7 4.9 0.8-0.3 5.7-4.9l2.6-2.4m-3 8.4-0.1-0.2-0.05 0.05-1.2 1 1.2-1 0.05-0.05 0.1 0.2 0.25 0.95-0.1 3.85 1.15-1.05-0.5-3.2-0.8-0.55-0.15-0.15 0.15 0.15m-23.8 29.25-2.1 2.05-2.65 2.05 2.65-2.05 2.1-2.05m46.55-45.1-21.45 19.6 21.45-19.6m-42.1 38.35 14.25-13.85-14.25 13.85m14.95-13.55 4.55-4.15-4.55 4.15" fill="#d6ad87" fill-rule="evenodd"/>
<path d="m256.25 441.15-18.65 17.4q-3.5 0.25-5.35-1.1l3.15 2.7 1.3 1-0.55 0.85-18.5 16.6-2.9 0.05q-2.75 0.45-6.35-1.3l0.2 0.3 1.4 1.65q1.65 1.65 2.75 2.2-20.85 29.45-32.3 24.9-0.95 0.55-1.85-2.65 1.05 0.75 8.25-6.6l1.8-1.45q0.2-0.2 0.55-0.35l2.8-2.55 2-1.9 3.3-3.5 6.6-7.5 3.7-2.9 0.05-0.1-0.15-0.05q1.6-2.95 6.05-6.6 4.7-3.95 7.3-6.7 2.55-2.85 3.2-4.4 1.55-2.75 3.1-3.8l0.65-0.2 0.95-0.5 0.65-0.6 4.2-4.15-0.45 0.5 2.8-2.05 2.45-1.95 1.8-1.4 1.9-1.35 1.5-1 2-1.3q1.75 1.15 3.7 1.05l1.7-0.1 0.75-0.15q1.75-2.75 2.25-0.5l1.85-0.85 0.4 0.35m-57.3 21.05 0.3-0.3 4.2-0.15v1l-0.45 0.05 0.4 0.5 0.05 0.6-0.7-0.3-0.6-0.3q0.05-1.85-3.2-1.1m28.05-28.15 0.6-0.6h2.2l-0.55 1.8-0.35 1.5-0.6 0.2q-0.4 0-0.45-0.75l-0.15-0.95-0.7-1.2m18.9-18.95 0.55-0.65q4.2-2.6 5.75-1.5-3.4 1.25-4.55 3.65l-1-0.8-0.75-0.7m-13.65 42.35-0.95-0.95 0.95 0.95m-23.85 19.9-0.75-0.45 0.75 0.45" fill="#984b01" fill-rule="evenodd"/>
<path d="m259.6 436-2.05 3.2-1.7 1.6-1.85 0.85q-0.5-2.25-2.25 0.5l-0.75 0.15-2.25-3.05-0.85-1.25q4.95 0.8 11.7-2m-22 22.55q-0.05 1.25-0.9 2.6l-1.3-1-3.15-2.7q1.85 1.35 5.35 1.1m-22.85 20.1-1.95 2.8-0.05 0.05q-1.1-0.55-2.75-2.2l-1.4-1.65-0.2-0.3q3.6 1.75 6.35 1.3m-36.15 25.1q-0.15 1.6-0.75 0.6l9-7.2q-7.2 7.35-8.25 6.6" fill="#7e4001" fill-rule="evenodd"/>
<path d="m174.6 494.25q-0.35-6.95 4.85-13.55l19.3-18.3 0.2-0.2q3.25-0.75 3.2 1.1l-2.6 1.6q-3.8 2.35-10.3 8.9-2.25 2.25-5.5 4.35-2.1 1.45-3.35 3-1.35 1.5-3 5.35-1.65 3.8-2.8 7.75m28.85-32.5q-0.25-3.2 2.5-5.5l21.05-22.2 0.7 1.2q-1.5 0.8-2.75 3.5-1.85 3.75-6 6.75-3 2.2-14.6 15-0.3 0.75 0 1.45l-0.9 0.5v-0.7m26.35-28.3 1.75-2.8 13.65-14.9 0.7-0.65 0.75 0.7 1 0.8v0.05l-0.25 0.6-0.55 2.05q-0.9 4.1-0.05 4.75l-0.5 3.75q-0.3 3.45 0.15 6.3 0.4 2.05 1.2 3.85l0.25 0.05 0.85 1.25 2.25 3.05-1.7 0.1q-1.95 0.1-3.7-1.05l-0.1-0.05-1-0.75-0.5-1.05q-0.3-1.1 0.7-2.1l-1.15-2.2q-0.4-0.55-0.45-2.1l0.05-1.05q0.05-0.7 0.25-1-0.45-5.8 0.5-10.6l-5.8 5.3q-4.05 3.45-6.75 6.8l-2.1 2.7 0.55-1.8m14.1-13q0.45-2.45 1.3-4.7-0.85 2.25-1.3 4.7" fill="#e77607" fill-rule="evenodd"/>
<path d="m252.2 412.95 0.95-0.8q0.05 2.55-2.8 4.65l-3.5 2.5 0.55-2.05 0.25-0.6v-0.05q1.15-2.4 4.55-3.65m100.5-72.3h4.8q0.05 0.3-9.85 8.8l-0.55-3.6 5.6-5.2m-27.55 25.6q-0.95 2.45-0.85 3.95l-5.65 4.9q-5.75 4.9-6.9 6.4l-11.35 11.55q-10.45 10.15-12.5 11.6-2.2 1.85-3.3 3.45-1.25 1.95-4.4 4.7-4.95 4.3-12.95 9-5.85 3.45-7.2 4.6l11.25-11.2q-1.35-2.1-1.4-5.8l0.7 0.3 1.6 5.5h-0.9 0.9l52.95-48.95m-50.15 34.5 0.8 0.55 0.5 3.2-1.15 1.05 0.1-3.85-0.25-0.95" fill="#b77a40" fill-rule="evenodd"/>
<path d="m330.2 342.5 9.05-8.2q1.55 1.65 2.1 5.35l0.2 4.25 0.35 2.5q0.25 1.4 0 2.5-0.55 1.85-3.25 4.7l-7 6.55-6.4 5.35q-10.6 8.75-20.85 15.35l-6.65 4.05q-12.7 7.3-19.65 7.4l-0.1 0.05-2.6-0.4 14.45-13.1q9-0.9 26.15-14.55 7.4-5.85 12.4-11.15 5.15-5.6 5.15-7.75-0.05-2.5-3.35-2.9" fill="#ca9868" fill-rule="evenodd"/>
<path d="m244 439.5 0.5 1.05 1 0.75 0.1 0.05-2 1.3-1.5 1-1.9 1.35-1.8 1.4-2.45 1.95-2.8 2.05 0.45-0.5q2.75-3.5 3.5-4.1l2.15-2.45 2.25-1.8 2.5-2.05" fill="#7c3e00" fill-rule="evenodd"/>
<path d="m177.85 504.35q-3.05-5.15-3.25-10.1 1.15-3.95 2.8-7.75 1.65-3.85 3-5.35 1.25-1.55 3.35-3 3.25-2.1 5.5-4.35 6.5-6.55 10.3-8.9l2.6-1.6 0.6 0.3 0.7 0.3-0.05-0.6-0.4-0.5 0.45-0.05v-0.3l0.9-0.5q-0.3-0.7 0-1.45 11.6-12.8 14.6-15 4.15-3 6-6.75 1.25-2.7 2.75-3.5l0.15 0.95q0.05 0.75 0.45 0.75l0.6-0.2 0.35-1.5 2.1-2.7q2.7-3.35 6.75-6.8l5.8-5.3q-0.95 4.8-0.5 10.6-0.2 0.3-0.25 1l-0.05 1.05q0.05 1.55 0.45 2.1l1.15 2.2q-1 1-0.7 2.1l-2.5 2.05-2.25 1.8-2.15 2.45q-0.75 0.6-3.5 4.1l-4.2 4.15-0.65 0.6-0.95 0.5-0.65 0.2q-1.55 1.05-3.1 3.8-0.65 1.55-3.2 4.4-2.6 2.75-7.3 6.7-4.45 3.65-6.05 6.6l0.1 0.15-3.7 2.9-6.6 7.5-3.3 3.5-2 1.9-2.8 2.55q-0.35 0.15-0.55 0.35l-1.8 1.45-9 7.2m49.8-56.8-0.05-5.75 1.3-5.05-1.3 5.05 0.05 5.75m-24.25 15.75 0.05-0.55-0.05 0.55m1.8 9.45q-1.65-2.55-1.75-8.85 0.1 6.3 1.75 8.85" fill="url(#v)" fill-rule="evenodd"/>
<path d="m207.6 477-0.1-0.15 0.15 0.05-0.05 0.1" fill="url(#u)" fill-rule="evenodd"/>
<path d="m330.2 342.5 9.05-8.2 13.2-11.95 3.7-0.05 4.1-0.05 0.2 18.25-91.55 86.75-9.3 8.75-2.05 3.2-1.3 1.95-18.65 17.4q-0.05 1.25-0.9 2.6l-0.55 0.85-18.5 16.6-2.9 0.05-1.95 2.8m-0.05 0.05q-20.85 29.45-32.3 24.9-0.95 0.55-1.85-2.65-0.15 1.6-0.75 0.6-3.05-5.15-3.25-10.1-0.35-6.95 4.85-13.55l19.3-18.3m0.15-0.15 0.35-0.35 4.2-0.15q-0.25-3.2 2.5-5.5l21.05-22.2 0.6-0.6h2.2l1.75-2.8 13.65-14.9 0.7-0.65 0.55-0.65q4.2-2.6 5.75-1.5l0.95-0.8 22.25-20.2 14.45-13.1 40.35-36.35q3.3 0.4 3.35 2.9 0 2.15-5.15 7.75-5 5.3-12.4 11.15-17.15 13.65-26.15 14.55m66.3-56.55 0.8 6.15 0.05 0.6 0.3 4.45 0.2 7.15 2.95-0.15m-8-18.15 0.05 6.05 0.1 0.55 3.7 0.2-3.75 0.95 0.05 6.05 0.1 4.5h4.8q0.05 0.3-9.85 8.8l-1.95 1.6m6.8-22.65-0.5 0.5 0.6 0.05m-5.55 11.5q0.6-0.9 2.3-1.95 2.3-1.5 3.25-2.35m-5.5 9.7 5.6-5.2m-0.7-11.75-7.55 8.1 8.1-6.9m-20.9 30.05 2.1-1.8 4.9-4.75-7 6.55-6.5 6.1-52.95 48.95-1.6-5.5-0.7-0.3-14.25 13.85m68.65-53.05 0.95-0.95m13.4-15.65q2.7-2.85 3.25-4.7 0.25-1.1 0-2.5l-0.35-2.5-0.2-4.25q-0.55-3.7-2.1-5.35m-0.6 19.3 8.45-7.75m-87.05 80.55q1.35-1.15 7.2-4.6 8-4.7 12.95-9 3.15-2.75 4.4-4.7 1.1-1.6 3.3-3.45 2.05-1.45 12.5-11.6l11.35-11.55q1.15-1.5 6.9-6.4l5.65-4.9m-48.9 21.75 2.6 0.4 0.1-0.05q6.95-0.1 19.65-7.4l6.65-4.05q10.25-6.6 20.85-15.35l6.4-5.35m-61.95 39.5q0.8-0.3 5.7-4.9l2.6-2.4m-31.15 26.95 0.55-2.05 0.25-0.6m-0.85 7.4q-0.85-0.65 0.05-4.75l3.5-2.5q2.85-2.1 2.8-4.65m-7.95 3.6q-0.85 2.25-1.3 4.7m0.6 20.1 1 0.75 0.1 0.05q1.75 1.15 3.7 1.05l1.7-0.1m-3.1-4.3-0.25-0.05q-0.8-1.8-1.2-3.85-0.45-2.85-0.15-6.3l0.5-3.75 26.85-22.45 1.2-1 0.05-0.05 0.1 0.2 0.8 0.55 0.5 3.2 21.45-19.6m-51.3 49.2 2.65-2.05 2.1-2.05m4.4 7.05-0.45 0.4 0.1-0.35 0.35-0.05 0.45-0.3q8.45-6.7 12.85-9.5m-21.25 10.7 12.4-11.55 11.25-11.2q-1.35-2.1-1.4-5.8m-22.25 7.2q1.15-2.4 4.55-3.65m22.8-12.2 0.25 0.95-0.1 3.85 1.15-1.05m-1.45-3.9 0.15 0.15m-2.8 14.45h-0.9m3.85-9.65-4.55 4.15m-3.9 15.05 1.9-1.05 2.2-0.9m2.85-21.2-27.35 26.2m5.5 9.75q4.35-5.1 13.1-11.3m-17 11.75q4.95 0.8 11.7-2m-3.75 4.8-1.85 0.85q-0.5-2.25-2.25 0.5l-0.75 0.15m4.85-1.5 1.7-1.6m-54.1 24.7-0.05-0.6m0.05-0.55v-1m0.45 18.15 3.7-2.9m-20.75 20.15q-7.2 7.35-8.25 6.6m52.7-47.25 0.95 0.95q1.85 1.35 5.35 1.1m-8.7-21.8 0.35-1.5 0.55-1.8m-0.9 3.3-1.3 5.05 0.05 5.75m-24.2 16.35q0.1 6.3 1.75 8.85m-1.75-10-0.05 0.55m4.25 13.6 0.75 0.45q3.6 1.75 6.35 1.3m-7.1-1.75-0.05 0.1" fill="none" stroke="#633" stroke-linecap="round" stroke-linejoin="round" stroke-opacity=".47059" stroke-width=".5"/>
<path d="m244.7 437.4q-1 1-0.7 2.1l0.5 1.05" fill="none" stroke="#f9a653" stroke-linecap="round" stroke-linejoin="round" stroke-opacity=".47059" stroke-width=".5"/>
<path d="m243.9 420.45q-0.95 4.8-0.5 10.6m0.15 4.15 1.15 2.2" fill="none" stroke="#f9a653" stroke-linecap="round" stroke-linejoin="round" stroke-opacity=".38039" stroke-width=".5"/>
</g>
<linearGradient id="v" x1="-819.2" x2="819.2" gradientTransform="matrix(.0068 -.0166 .0245 .0101 221.4 437.2)" gradientUnits="userSpaceOnUse">
<stop stop-color="#c46200" offset="0"/>
<stop stop-color="#ed7c0b" offset="1"/>
</linearGradient>
<linearGradient id="u" x1="-819.2" x2="819.2" gradientTransform="matrix(-.0029 -.0215 .0475 -.0063 207.7 446.25)" gradientUnits="userSpaceOnUse">
<stop stop-color="#c46200" offset="0"/>
<stop stop-color="#ed7c0b" offset="1"/>
</linearGradient>
<g id="a" transform="translate(31,23.85)">
<use transform="translate(-31,-23.85)" width="56" height="56" xlink:href="#p"/>
</g>
<g id="p" transform="translate(31,23.85)">
<path d="m-3-23.85q11.6 0 19.8 8.2t8.2 19.8-8.2 19.8-19.8 8.2-19.8-8.2-8.2-19.8 8.2-19.8 19.8-8.2" fill="url(#t)" fill-rule="evenodd"/>
</g>
<radialGradient id="t" cx="0" cy="0" r="819.2" gradientTransform="matrix(.0349 0 0 .0349 -3 4.15)" gradientUnits="userSpaceOnUse">
<stop stop-color="#ffee69" stop-opacity=".8" offset="0"/>
<stop stop-color="#fef18a" stop-opacity="0" offset="1"/>
</radialGradient>
<g id="c" transform="translate(-1.45,3.05)">
<use transform="matrix(.2342 -.4859 -.0359 .394 20.246 46.668)" width="56" height="56" xlink:href="#a"/>
<use transform="matrix(.2342 -.4859 -.0359 .394 3.4465 79.118)" width="56" height="56" xlink:href="#a"/>
<use transform="matrix(.2342 -.4859 -.0359 .394 30.996 24.168)" width="56" height="56" xlink:href="#a"/>
<use transform="matrix(.6812 -1.4135 -.0253 .2775 5.5865 80.799)" width="56" height="56" xlink:href="#a"/>
</g>
<g id="h" transform="translate(-.25 .25)">
<use transform="translate(.25 -.25)" width="14.65" height="21" xlink:href="#o"/>
</g>
<g id="o" transform="translate(-.25 .25)">
<path d="m2.8 19.35 0.1 0.3-1.75-1.85-0.35 0.7-0.25-1.95q-0.25-3.9 1.3-7.15 1.3-2.8 4.25-5.8l2.9 1.2 0.95 0.3-3.3 3.65q-4.3 5.75-4.1 9.35l0.25 1.25" fill="#a38200" fill-rule="evenodd"/>
<path d="m12.55 2.3q0.2-0.2 0.85 0.85l1.05 1.55q0.4 0.4 0.45 2.75l-0.3 4-0.7 2.9q-0.45 1.25-3.2 4.1-2.8 2.85-5.2 2.2l-1.25-0.25-1.45-1.05-0.25-1.25q-0.2-3.6 4.1-9.35l3.3-3.65 2.6-2.8" fill="#584700" fill-rule="evenodd"/>
<path d="m8.95 0.65q1.15-1.05 2.1-0.9t0.35 0.15q-0.65 0-0.3 0.7t1.3 1.2l0.45 0.15-0.3 0.35-2.6 2.8-0.95-0.3-2.9-1.2 2.85-2.95" fill="#342900" fill-rule="evenodd"/>
<path d="m12.85 1.95-0.3 0.35m-9.75 17.05 0.1 0.3m-2.1-1.15-0.25-1.95q-0.25-3.9 1.3-7.15 1.3-2.8 4.25-5.8l2.85-2.95m1 4.45-3.3 3.65q-4.3 5.75-4.1 9.35l0.25 1.25m7.15-14.25 2.6-2.8" fill="none" stroke="#592c2c" stroke-linecap="round" stroke-linejoin="round" stroke-opacity=".47059" stroke-width=".5"/>
</g>
<g id="b" transform="translate(-1.8,-2.75)">
<use transform="translate(1.8,2.75)" width="50.900002" height="54.450001" xlink:href="#n"/>
</g>
<g id="n" transform="translate(-1.8,-2.75)">
<path d="m22.7 19.25 7.1 2.2-1.6 6.4-6.95-2.4 1.45-6.2m12.1 3.85 6.35 2.15-1.7 6.95-6.35-2.5 1.7-6.6m-16.5 12.8 1.8-6.2q3.15 1.25 6.85 2.85l-0.65 2.25-1.15 3.65q-3.25-1.35-6.85-2.55m13.45-1.2 3.35 1.55 2.95 1.3-2.05 6.55-2.85-1.65q-1.5-0.95-3.15-1.75l1.75-6" fill-opacity=".05098" fill-rule="evenodd"/>
<path d="m52.2 24-10.15-3.55-5.35-1.8-0.8-0.3-5.15-1.6-7.05-2.2-1 4.7 7.1 2.2 4.25 1.4 0.75 0.25 6.35 2.15 6.55 2.5m-33.8-23-1.3 6.65 5.15 1.4 2-9.55m-13.95 34.15 5 1.5 1.45-4.85-5-1.25 0.6-2.15 1.25-4.5 1.15-4.4 1.3-5.45 5.15 1.3 1.05-4.8m-7.5 8.95 4.95 1.65 1.5-5.8m1.6 18.3q3.6 1.2 6.85 2.55l1.15-3.65 0.65-2.25q-3.7-1.6-6.85-2.85l-1.8 6.2-1.7 4.95 6.8 2.6 5.1 2.1 6.05 2.7m-25.45-22.1q2.15 0.45 5 1.4l6 2.15m-7.85 4.35 1.85-6.5m2.5 13.3-0.85 8.1m16-14.25 1.35-5 1.7-6.6m-3.05 11.6-1.75 6q1.65 0.8 3.15 1.75l2.85 1.65 2.05-6.55-2.95-1.3-3.35-1.55m1.35-5 6.35 2.5 1.7-6.95m-12.95 2.6-6.95-2.4-6.05-2.05m11.75 9.15 1.25-4.7 1.6-6.4m-4.65 17q2.55 1.05 4.85 2.25m-7.3-21.45-1.45 6.2m16.8 12.1 6.25 3.1" fill="none" stroke="#000" stroke-linecap="round" stroke-opacity=".15294"/>
<path d="m34.55 48.25 0.45 0.2q5.9 2.7 10.45 5.15m-39.65-16.2-3.5 10.05m5.85-0.5 0.9-2.6 1.75-5.45m28.65-6.7 0.95 0.4 5.05 2.15m-20.35 20.75 2.4-7 1-2.95m7.5-1.45 9.05 4.95m-10.5-0.8-3.35 8.45m-7.8-13.25-3.85 9.4" fill="none" stroke="#000" stroke-linecap="round" stroke-opacity=".05098"/>
</g>
<g id="g" transform="translate(193.25,535.95)">
<use transform="translate(-193.25,-535.95)" width="286.64999" height="712.45001" xlink:href="#m"/>
</g>
<g id="m" transform="translate(193.25,535.95)">
<path d="m-65.2-290.65q9.15-0.6 19.05 5.1 14.9 8.6 22.5 24.9 7.6 16.35 14.7 20.2 7.05 3.85 14.25 17.85 7.25 14.05 8.95 56.4 0.75 15.55-0.1 40.55-0.85 25.95-2.7 29-1.85 3.15-8.55 40.25-6.75 37.15 5.35 28.9 12.1-8.3-28.1 44.5t-54.15 61.8q-28.5 18.4-40.6 20.65-12.2 2.3-30.1 14.35-16.85 12.4-24.15 11.7-4.05-5.45-11.7-7.4-5.5 12.5-7.15 33.55-9.9-23-0.1-51.85l5.25-15.55 0.05 1.85q0.25 7.65 1.4 10.55l-0.35 4.65q-0.4 5.6 1.05 6.45 4.4 2.55 14.8-1.7v0.15l1.15-0.65q8.7-4.6 29.1-27.55 19.3-21.65 25.6-31.65 20.5-32.6 32.4-67.4 3.95-11.95 10.9-35.85l11.05-37.25 0.8 0.85q9.2 9.4 21.2 12.9l3.85 1q1.9 0.3 5.55-4.85 1.4-1.55 2.2-3.35l4.85 0.2q4.65 0 7.55-1.95 3.45-2.3 3.45-6.8 0-5.6-17.1-18.05 2.15-0.65 4.6-2.7 3.5-2.95 3.5-5.25 0-0.45-3.9-4.55-7.8-22.1-28.55-40.65l-1-1-0.6-20.3q-0.65-22.2-5.25-40.35 8.25 8.1 18.85 17.6l-21.15-25.6q-2.5-7.95-5.9-15v-0.15q0-1-1.95-7.1l-2.5-8.15q-1.1-5.4-4.7-18.15l-0.8-3.8q1.6 0.95 3.45 0.95 3.2 0 3.7-1.1l0.05-1.15m-90.85 299.45q8.7-16.65 14.3-22 5.75-5.45 8.6-7 2.85-1.5 3.65-2.2l-0.05-0.15q13.1-14.25 9.35-20.5 2.55 0.7 6.3 8 1.25-4.05 1.15-11.2l-0.1 0.55q0.9-5.3-2.8-21.75 14.05 25.55 11.8 41.1 1.3 9.55-1.5 25.2-1.85 10.3-5.15 21.55-2.65 8.9-3.35 10-1.65 3.75-4.2 7.25-5.15 7.05-10.75 7.2 14.6-11.85 15.1-31.95 0.5-20-3.8-30l-0.7 0.55-3.55-7.15q-18.35 8.3-34.3 32.5m7.3-254.05q-6.15 6.85-13.4 17.95 6.4-11.7 12.6-21l0.8 3.05m11.05-19.3 4.55-5.2q0 2.85 1.9 8.9-2.25 2.55-4.25 4.35l-2.2-8.05m4.7-5.4q19.15-20.35 35.15-14.95-17.45 2.6-28.85 18.6l-0.6 0.55-2.6 3.3-0.4-0.9-2.7-6.6m39.95-15.9-3.45-1.6 2.8 0.05h0.2l0.45 1.55m49.95 257.5q9.65-19.35 3.45-49.4-16 49.85-19.35 62.05t-31.6 64.6l24.15-41.4q8.3-15.5 11-16.05 2.65-0.4 12.35-19.8m-139.05 187.85-0.15-21.65 6.2 36.75-6.05-15.1" fill="#690" fill-rule="evenodd"/>
<path d="m-182.55 84.25q5.6-16.75 7.95-25 9.2-32.3 18.15-49.7l0.4-0.75q15.95-24.2 34.3-32.5l3.55 7.15q-17 12.45-25.65 26.15-8.4 13.4-15.25 31.3 1.65-3.8 8.65-16.8 7-12.9 13.55-20.85-18.1 27-23.6 59.75-5.45 32.65-5.1 43.05-10.4 4.25-14.8 1.7-1.45-0.85-1.05-6.45l0.35-4.65 0.4-4.35-0.4 4.35q-1.15-2.9-1.4-10.55l-0.05-1.85" fill="#94b803" fill-rule="evenodd"/>
<path d="m-149.55-248.3-2.45-10.15q-7.95-35.2-7.95-62.45 0-7.85 2.8-21.25 0.55-9 1.5-16.5 0.85-6.95 2.15-13.55-12.2 33.6-14.95 68.8h-1.5l0.5-22.1 0.5-16.9q0-2.5-2-6t-1.95-19.55q0.05-16.1 20.5-61.4 20.45-45.35 42.45-48.75t48.65-48.15q-10.6 22.75-8.5 24.75 11.1-19.25 20.3-29.5-12.45 19.2-12.45 22.35-7.35 15.25-14.65 33.1-8 2.55-21.4 53.85-13.4 51.25 13.7 91.3-2.9-43.25-1.05-59.25 1.8-16.05 5.55-30.1 3.75-14.1 17.9-27.55 14.1-13.5 36.5-11 22.45 2.5 50.9 12.1 28.5 9.6 63.05 41.3-42.95-23.15-74.35-25.3 11 2.75 25.3 9.05 20.65 9.1 50.55 36.4-44.8-24.3-69.85-33.1t-53.85 0.25q-28.8 9-32.85 84.1-1.8 17.75 1.55 40.6l-0.25 2.25-0.05 1.15q-0.5 1.1-3.7 1.1-1.85 0-3.45-0.95l0.8 3.8q3.6 12.75 4.7 18.15l2.5 8.15q1.95 6.1 1.95 7.1v0.15q-0.05 2.95-1.6 4.55-0.45 0.45 7.5 10.45l21.15 25.6q-10.6-9.5-18.85-17.6-23.35-22.95-27.95-34.6-3.75-0.35-9.55-18.15l-1.3-4.1-0.45-1.55q-4.7-15.55-8.1-33.8-4.05-21.6-7.45-61-3.4-39.45 6.55-66.25-8.3 4.2-17.3 20.9-9 16.65-14.4 34.7-5.45 18.05-7.75 37.9-2 17.15-2 43.55 0 2.7 3.75 18.2t3.75 16.3l-0.05 3-0.45 1.5-1.5 1.25-0.95 0.6 1.7 6 2.2 8.05 3.6 13.05q6.9 25.05 25.5 41.4-19.65-41.85-24.85-58.8-1.9-6.05-1.9-8.9v-0.6l0.15 0.4 2.7 6.6 0.4 0.9q6.35 15.1 14.5 28 18.1 28.65 38.45 37.35l7.35 7.75 21.2 21 1 1q20.75 18.55 28.55 40.65 3.9 4.1 3.9 4.55 0 2.3-3.5 5.25-2.45 2.05-4.6 2.7 17.1 12.45 17.1 18.05 0 4.5-3.45 6.8-2.9 1.95-7.55 1.95l-4.85-0.2q-0.8 1.8-2.2 3.35-3.65 5.15-5.55 4.85l-3.85-1q-12-3.5-21.2-12.9l-0.8-0.85q-12.35-12.25-19.2-11.5-7.05 0.75-17.1-8.9l-0.05-0.05q-13.85-17.15-29.2-48.3-1.4-2.95-4.25-18.9l-7.25-16.1q-9.45-20.9-16.3-47.35l-0.8-3.05m16.9-130.05 5.6 70.65v21.7q-6.45-5.15-9.4-26.15-3-21.05 3.8-66.2" fill="url(#s)" fill-rule="evenodd"/>
<path d="m-149.55-248.3-2.45-10.15q-7.95-35.2-7.95-62.45 0-7.85 2.8-21.25 0.55-9 1.5-16.5 0.85-6.95 2.15-13.55-12.2 33.6-14.95 68.8h-1.5l0.5-22.1 0.5-16.9q0-2.5-2-6t-1.95-19.55q0.05-16.1 20.5-61.4 20.45-45.35 42.45-48.75t48.65-48.15q-10.6 22.75-8.5 24.75 11.1-19.25 20.3-29.5-12.45 19.2-12.45 22.35-7.35 15.25-14.65 33.1-8 2.55-21.4 53.85-13.4 51.25 13.7 91.3-2.9-43.25-1.05-59.25 1.8-16.05 5.55-30.1 3.75-14.1 17.9-27.55 14.1-13.5 36.5-11 22.45 2.5 50.9 12.1 28.5 9.6 63.05 41.3-42.95-23.15-74.35-25.3 11 2.75 25.3 9.05 20.65 9.1 50.55 36.4-44.8-24.3-69.85-33.1t-53.85 0.25q-28.8 9-32.85 84.1-1.8 17.75 1.55 40.6l-0.25 2.25q9.15-0.6 19.05 5.1 14.9 8.6 22.5 24.9 7.6 16.35 14.7 20.2 7.05 3.85 14.25 17.85 7.25 14.05 8.95 56.4 0.75 15.55-0.1 40.55-0.85 25.95-2.7 29-1.85 3.15-8.55 40.25-6.75 37.15 5.35 28.9 12.1-8.3-28.1 44.5t-54.15 61.8q-28.5 18.4-40.6 20.65-12.2 2.3-30.1 14.35-16.85 12.4-24.15 11.7-4.05-5.45-11.7-7.4-5.5 12.5-7.15 33.55-9.9-23-0.1-51.85l5.25-15.55q5.6-16.75 7.95-25 9.2-32.3 18.15-49.7l0.4-0.75q8.7-16.65 14.3-22 5.75-5.45 8.6-7 2.85-1.5 3.65-2.2l-0.05-0.15q13.1-14.25 9.35-20.5 2.55 0.7 6.3 8 1.25-4.05 1.15-11.2l-0.1 0.55q0.9-5.3-2.8-21.75 14.05 25.55 11.8 41.1 1.3 9.55-1.5 25.2-1.85 10.3-5.15 21.55-2.65 8.9-3.35 10-1.65 3.75-4.2 7.25-5.15 7.05-10.75 7.2 14.6-11.85 15.1-31.95 0.5-20-3.8-30l-0.7 0.55q-17 12.45-25.65 26.15-8.4 13.4-15.25 31.3 1.65-3.8 8.65-16.8 7-12.9 13.55-20.85-18.1 27-23.6 59.75-5.45 32.65-5.1 43.05l1.15-0.5q8.7-4.6 29.1-27.55 19.3-21.65 25.6-31.65 20.5-32.6 32.4-67.4 3.95-11.95 10.9-35.85l11.05-37.25q-12.35-12.25-19.2-11.5-7.05 0.75-17.1-8.9l-0.05-0.05q-13.85-17.15-29.2-48.3-1.4-2.95-4.25-18.9l-7.25-16.1q-9.45-20.9-16.3-47.35-6.15 6.85-13.4 17.95 6.4-11.7 12.6-21l0.8 3.05m55.25-42.15q-4.7-15.55-8.1-33.8-4.05-21.6-7.45-61-3.4-39.45 6.55-66.25-8.3 4.2-17.3 20.9-9 16.65-14.4 34.7-5.45 18.05-7.75 37.9-2 17.15-2 43.55 0 2.7 3.75 18.2t3.75 16.3l-0.05 3-0.45 1.5-1.5 1.25-0.95 0.6 1.7 6 4.55-5.2v-0.6l0.15 0.4q19.15-20.35 35.15-14.95-17.45 2.6-28.85 18.6l-0.6 0.55-2.6 3.3q6.35 15.1 14.5 28 18.1 28.65 38.45 37.35l7.35 7.75 21.2 21-0.6-20.3q-0.65-22.2-5.25-40.35-23.35-22.95-27.95-34.6-3.75-0.35-9.55-18.15l-1.3-4.1-3.45-1.6 2.8 0.05h0.2l0.45 1.55m-39.6-92.5q-6.8 45.15-3.8 66.2 2.95 21 9.4 26.15v-21.7l-5.6-70.65m-0.35 108.4 2.7 6.6 0.4 0.9m-1.35 1.6q-1.9-6.05-1.9-8.9m-2.35 13.25q2-1.8 4.25-4.35 5.2 16.95 24.85 58.8-18.6-16.35-25.5-41.4l-3.6-13.05-2.2-8.05m72.5-26.1-0.05 1.15q-0.5 1.1-3.7 1.1-1.85 0-3.45-0.95l0.8 3.8q3.6 12.75 4.7 18.15l2.5 8.15q1.95 6.1 1.95 7.1v0.15q3.4 7.05 5.9 15l21.15 25.6q-10.6-9.5-18.85-17.6m-8.2-23q-0.05 2.95-1.6 4.55-0.45 0.45 7.5 10.45m8.15 68.65 1 1q20.75 18.55 28.55 40.65 3.9 4.1 3.9 4.55 0 2.3-3.5 5.25-2.45 2.05-4.6 2.7 17.1 12.45 17.1 18.05 0 4.5-3.45 6.8-2.9 1.95-7.55 1.95l-4.85-0.2q-0.8 1.8-2.2 3.35-3.65 5.15-5.55 4.85l-3.85-1q-12-3.5-21.2-12.9l-0.8-0.85m12.3 65.8q9.65-19.35 3.45-49.4-16 49.85-19.35 62.05t-31.6 64.6l24.15-41.4q8.3-15.5 11-16.05 2.65-0.4 12.35-19.8m-138 125 0.4-4.35m15.1 13.75q-10.4 4.25-14.8 1.7-1.45-0.85-1.05-6.45l0.35-4.65m16.65 8.9-1.15 0.65v-0.15m-16.55 53.45-0.15-21.65 6.2 36.75-6.05-15.1" fill="none" stroke="#fff" stroke-linecap="round" stroke-opacity=".62353"/>
</g>
<linearGradient id="s" x1="-819.2" x2="819.2" gradientTransform="matrix(.0419 .1287 -.1609 .0524 -12.75 -268.25)" gradientUnits="userSpaceOnUse">
<stop stop-color="#690" offset="0"/>
<stop stop-color="#b7fc2d" offset="1"/>
</linearGradient>
<g id="f" transform="translate(-1.4,2)">
<use transform="matrix(.8924 0 0 1 2.8038 .15)" width="35.400002" height="35.400002" xlink:href="#e"/>
<use transform="matrix(.866 -.5 .4299 .7446 1.4 6.2)" width="16.4" height="16.4" xlink:href="#d"/>
<use transform="translate(8.05,2.9)" width="4.8499999" height="4.4000001" xlink:href="#j"/>
</g>
<g id="e" transform="translate(.5 .5)">
<use transform="translate(-.5 -.5)" width="35.400002" height="35.400002" xlink:href="#l"/>
</g>
<g id="l" transform="translate(.5 .5)">
<path d="m28.6 17.65q0 4.8-3.35 8.15t-8.15 3.35q-4.75 0-8.1-3.35t-2.8-4.45q0.5-1.15 13.65-4.45-11.55-6.65-10.85-7.35 3.35-3.35 8.1-3.35 4.8 0 8.15 3.35t3.35 8.1" fill="#1f8fc7" fill-opacity=".60784" fill-rule="evenodd"/>
<path d="m20.1 0.25q5.25 0.8 9.25 4.8 5.05 5.05 5.05 12.15t-5.05 12.15q-4.65 4.65-11.1 5.05 16.5-12.5 1.85-34.15" fill="#176891" fill-opacity=".60784" fill-rule="evenodd"/>
<path d="m18.25 34.4h-1.05q-7.1 0-12.15-5.05t-5.05-12.15 5.05-12.15 12.15-5.05l2.9 0.25q14.65 21.65-1.85 34.15" fill="#1f8fc7" fill-opacity=".60784" fill-rule="evenodd"/>
<path d="m20.1 0.25q5.25 0.8 9.25 4.8 5.05 5.05 5.05 12.15t-5.05 12.15q-4.65 4.65-11.1 5.05h-1.05q-7.1 0-12.15-5.05t-5.05-12.15 5.05-12.15 12.15-5.05z" fill="none" stroke="#17170c" stroke-linecap="round" stroke-linejoin="round" stroke-opacity=".18824"/>
<path d="m15.75 8.25-1.7-3.7m8.4 4.7 1.45-3.65m2.8 9.25 3.1-0.95" fill="none" stroke="#abe3ff" stroke-linecap="round" stroke-linejoin="round" stroke-opacity=".14902"/>
<path d="m1.55 13.9h0.1q1.35 4.35 2 5.4 2 3.6 6 3.6l2.4-0.3 2.5-0.3q1.5 0 2.2 0.6 1 0.85 1 3.1t-1.4 3.9q-1.5 1.8-3.8 1.8-3.55 0-7-4.6-4-5.35-4-13.2" fill="#29b8ff" fill-opacity=".76078" fill-rule="evenodd"/>
<path d="m22.7 2.25q3.5 2.25 6.8 6.15l0.35 0.35q5.45 7.4 0 17.1l-1.35 2.15q-3.8 3.25-6.9 3.85 6.5-7.15 7-15.45 0.45-8.35-5.9-14.15" fill="#176891" fill-opacity=".76078" fill-rule="evenodd"/>
</g>
<g id="d">
<use width="16.4" height="16.4" xlink:href="#k"/>
</g>
<g id="k">
<path d="m14 14q-2.4 2.4-5.8 2.4t-5.8-2.4-2.4-5.8 2.4-5.8 5.8-2.4 5.8 2.4 2.4 5.8-2.4 5.8" fill="url(#r)" fill-rule="evenodd"/>
</g>
<radialGradient id="r" cx="0" cy="0" r="819.2" gradientTransform="matrix(.011 0 0 .011 8.2 8.2)" gradientUnits="userSpaceOnUse">
<stop stop-color="#f9fede" stop-opacity=".76078" offset="0"/>
<stop stop-color="#fff" stop-opacity="0" offset="1"/>
</radialGradient>
<g id="j" transform="translate(-8.05,-2.9)">
<path d="m12.15 6.65q-0.7 0.65-1.7 0.65t-1.7-0.65-0.7-1.55 0.7-1.55 1.7-0.65 1.7 0.65q0.75 0.65 0.75 1.55t-0.75 1.55" fill="#fff" fill-opacity=".76078" fill-rule="evenodd"/>
</g>
<g id="i" transform="translate(-178.25,-466.75)">
<path d="m195 479.1q1.65 1.3 2.65 3.35-2.15 2.75-5.3 4.25l-0.35-0.6q-0.85-1.45-1.1-2.8l0.1-0.1 2.15-1.5 1.85-2.6m-5.7 4.9 0.45 1.65 0.65 1.9-1.7 0.45q-5.55 1.25-8.95-2.7l-0.35-0.8 0.4-0.95q0.3-0.65 1.05-1.2 1.25 2.2 3.95 2.5l4.5-0.85" fill="#fc0" fill-rule="evenodd"/>
<path d="m196.75 471.2h-0.05 0.05m-5.85 12.1q0.25 1.35 1.1 2.8l0.35 0.6-1.95 0.85-0.65-1.9-0.45-1.65 1.6-0.7m-11.15 2-0.7-0.9q-0.8-1.1-0.4-2.1l0.3-1.5q0-0.3 0.35-0.55l0.6-0.5q0.3 1.4 0.9 2.45l0.05 0.15q-0.75 0.55-1.05 1.2l-0.4 0.95 0.35 0.8" fill="#fee892" fill-rule="evenodd"/>
<path d="m200.2 469.7q-3.45-1.95-4.1-0.6l-0.4-0.8-0.35-0.55q-0.2-0.8 1.5-0.75 2 0.1 3.35 2.7" fill="#caa202" fill-rule="evenodd"/>
<path d="m200.85 473.9-0.7-1.05q-0.9-1-2.35-1.6l-0.65-0.1-0.4 0.05h-0.05v-0.2l-0.55-1.8-0.05-0.1q0.65-1.35 4.1 0.6l0.25 0.45v0.05q0.4 1.9 0.4 3.7" fill="#7d6402" fill-rule="evenodd"/>
<path d="m200.85 473.9-0.05 0.65q-0.25 3.85-2.65 7.2l-0.5 0.7q-1-2.05-2.65-3.35 1.6-2.8 1.9-6.25l-0.2-1.65h0.05l0.4-0.05 0.65 0.1q1.45 0.6 2.35 1.6l0.7 1.05" fill="#fdb23c" fill-rule="evenodd"/>
<path d="m196.7 471.2 0.2 1.65q-0.3 3.45-1.9 6.25l-1.85 2.6-2.15 1.5-0.1 0.1-1.6 0.7m8.35-1.55 0.5-0.7q2.4-3.35 2.65-7.2m0.05-0.65q0-1.8-0.4-3.7v-0.05l-0.25-0.45q-1.35-2.6-3.35-2.7-1.7-0.05-1.5 0.75l0.35 0.55 0.45 0.9 0.55 1.8v0.2m-4.35 15.5q3.15-1.5 5.3-4.25m-7.25 5.1 1.95-0.85m-12.6-1.4q3.4 3.95 8.95 2.7l1.7-0.45m-9.55-5.2-0.05-0.15q-0.6-1.05-0.9-2.45l-0.6 0.5q-0.35 0.25-0.35 0.55l-0.3 1.5q-0.4 1 0.4 2.1l0.7 0.9m1.1-2.95q1.25 2.2 3.95 2.5l4.5-0.85" fill="none" stroke="#633" stroke-linecap="round" stroke-linejoin="round" stroke-opacity=".47059" stroke-width=".5"/>
</g>
</defs>
</svg>
