<?xml version="1.0" encoding="UTF-8"?>
<svg version="1.1" viewBox="0 0 271.8 467.99" xmlns="http://www.w3.org/2000/svg" xmlns:cc="http://creativecommons.org/ns#" xmlns:dc="http://purl.org/dc/elements/1.1/" xmlns:rdf="http://www.w3.org/1999/02/22-rdf-syntax-ns#" xmlns:xlink="http://www.w3.org/1999/xlink">
<metadata>
<rdf:RDF>
<cc:Work rdf:about="">
<dc:format>image/svg+xml</dc:format>
<dc:type rdf:resource="http://purl.org/dc/dcmitype/StillImage"/>
</cc:Work>
</rdf:RDF>
</metadata>
<g transform="translate(-122.85 14.425)">
<use transform="translate(122.85,-14.4)" width="271.75" height="467.95001" xlink:href="#a"/>
</g>
<defs>
<g id="a" transform="translate(-122.85,14.4)">
<path d="m175.9 124.2v-0.1q-2.1-2.1-3.9-5.1l-1.35-2.45q0.6-1.65 2.05-2.8 2.05-1.55 4.6-1.2 2.5 0.35 4.05 2.4t1.2 4.55l-0.4 1.45q-0.55 1.55-1.95 2.65-1.65 1.25-3.6 1.25l-0.7-0.65m-7.45-25.45 0.05-0.25q1.05-5.9 3.5-10.7l1.15 0.05q2.5 0.35 4 2.4 1.6 2.05 1.25 4.55-0.3 2.55-2.4 4.1-2 1.5-4.5 1.15-1.75-0.25-3.05-1.3m30-22.4q2 1.85 3.65 4.75l1.1 2.2 1.35 3.55-3 0.35h-0.05q-1.75-0.25-3-1.3-0.6-0.4-1.1-1.05-1.5-2.1-1.15-4.6 0.35-2.4 2.2-3.9m-3.9 32.35-0.35 0.25q-2 1.55-4.5 1.2-2.55-0.35-4.1-2.4t-1.2-4.6q0.35-2.5 2.4-4.05t4.6-1.2q2.5 0.35 4 2.4 1.6 2 1.25 4.5-0.3 2.35-2.1 3.9" fill="#e2cd9a" fill-rule="evenodd"/>
<path d="m204.55 86.85q1.2 4.15 1.35 8.8 0.15 3.8-0.4 7.95-0.85 6.25-3.1 11.35-1.8 4.2-4.6 7.6-6.05 7.5-13.15 6.5-4.3-0.6-8.05-4.2 1.95 0 3.6-1.25 1.4-1.1 1.95-2.65 7.65-4.7 12.4-12.25 1.8-1.55 2.1-3.9 3.7-7.55 4.9-17.6l3-0.35" fill="#717100" fill-rule="evenodd"/>
<path d="m170.65 116.55q-3.95-8-2.2-17.8 1.3 1.05 3.05 1.3 2.5 0.35 4.5-1.15 2.1-1.55 2.4-4.1 0.35-2.5-1.25-4.55-1.5-2.05-4-2.4l-1.15-0.05q2.35-4.5 5.9-8 7.3-7.25 14.35-6.3 3.5 0.5 6.2 2.85-1.85 1.5-2.2 3.9-0.35 2.5 1.15 4.6 0.5 0.65 1.1 1.05 1.25 1.05 3 1.3h0.05q-1.2 10.05-4.9 17.6 0.35-2.5-1.25-4.5-1.5-2.05-4-2.4-2.55-0.35-4.6 1.2t-2.4 4.05q-0.35 2.55 1.2 4.6t4.1 2.4q2.5 0.35 4.5-1.2l0.35-0.25q-4.75 7.55-12.4 12.25l0.4-1.45q0.35-2.5-1.2-4.55t-4.05-2.4q-2.55-0.35-4.6 1.2-1.45 1.15-2.05 2.8" fill="#990" fill-rule="evenodd"/>
<path d="m205.9 95.65q4.5 2.9 10.05-2.3l1.25 3.1q-2.45 15.55-11.8 18.75l-3-0.25q2.25-5.1 3.1-11.35 0.55-4.15 0.4-7.95" fill="#ab8732" fill-rule="evenodd"/>
<path d="m217.2 96.45q4.35 12.7-4.9 23.55-2.45-3.95-6.9-4.8 9.35-3.2 11.8-18.75" fill="#d3b367" fill-rule="evenodd"/>
<path d="m175.9 124.2v-0.1" fill="none" stroke="#000" stroke-linecap="round" stroke-linejoin="round" stroke-opacity=".43137" stroke-width=".05"/>
<path d="m175.9 124.1q-2.1-2.1-3.9-5.1l-1.35-2.45q-3.95-8-2.2-17.8l0.05-0.25q1.05-5.9 3.5-10.7 2.35-4.5 5.9-8 7.3-7.25 14.35-6.3 3.5 0.5 6.2 2.85 2 1.85 3.65 4.75l1.1 2.2 1.35 3.55q1.2 4.15 1.35 8.8 4.5 2.9 10.05-2.3l1.25 3.1q4.35 12.7-4.9 23.55-2.45-3.95-6.9-4.8l-3-0.25q-1.8 4.2-4.6 7.6-6.05 7.5-13.15 6.5-4.3-0.6-8.05-4.2l-0.7-0.65m30-28.55q0.15 3.8-0.4 7.95-0.85 6.25-3.1 11.35" fill="none" stroke="#000" stroke-linecap="round" stroke-linejoin="round" stroke-opacity=".43137" stroke-width=".05"/>
<path d="m214.65 420.45 168.3-397.25" fill="none" stroke="#000" stroke-linecap="round" stroke-linejoin="round" stroke-opacity=".43137" stroke-width=".05"/>
<path d="m254.55 81.5 7.6 2.15 5.65-0.9q28.25-5.2 63.75-25.15-3.15-0.55 2.35-7.25-5.3 3.3-11.2 6.45-25.4 13.4-61.75 23.05l-6.4 1.65" fill="#997420" fill-rule="evenodd"/>
<path d="m254.55 81.5 6.4-1.65q36.35-9.65 61.75-23.05-7.7-2.25 0.1-10.35-39.5 15.8-84.1 24.05l-8.2 1.4q4.95 2.5 10.25 4.65 6.65 2.75 13.8 4.95" fill="#3d2500" fill-rule="evenodd"/>
<path d="m383.85 0.35q-0.05 6.55-14.45 16.3-66.35 42.6-142.5 48.9l-7.05 0.45q5.2 3.15 10.65 5.9l8.2-1.4q44.6-8.25 84.1-24.05l8.1-3.3q29.9-12.5 49.55-33.15 7.2-7.5 3.4-9.65" fill="#735513" fill-rule="evenodd"/>
<path d="m333.9 50.35q-5.5 6.7-2.35 7.25 19.45-10.9 41.05-26.2l4.25-3.05q13.65-11.7 16.8-22.25 1.65-5.4 0.5-10.5-4.6-8.65-15.3-10-11.05 0-14.95 8.05-3.85 4.9 7.25 6.65 2.7-4.45 5.65-5.2 12.55-3.55 14.2 5.45 1.25 5.65-6.25 14.05-9.6 14-48.65 34.35l-2.2 1.4" fill="#bda158" fill-rule="evenodd"/>
<path d="m322.7 56.8q5.9-3.15 11.2-6.45l2.2-1.4q39.05-20.35 48.65-34.35 7.5-8.4 6.25-14.05-1.65-9-14.2-5.45 3.1-0.8 6.45 2.65l0.5 1.2 0.05 0.55 0.05 0.85q3.8 2.15-3.4 9.65-19.65 20.65-49.55 33.15l-8.1 3.3q-7.8 8.1-0.1 10.35" fill="#4d2f02" fill-rule="evenodd"/>
<path d="m331.55 57.6q-35.5 19.95-63.75 25.15l-5.65 0.9-7.6-2.15m77-23.9q19.45-10.9 41.05-26.2l4.25-3.05q13.65-11.7 16.8-22.25 1.65-5.4 0.5-10.5-4.6-8.65-15.3-10-11.05 0-14.95 8.05-3.85 4.9 7.25 6.65 2.7-4.45 5.65-5.2m7.05 5.25q-0.05 6.55-14.45 16.3-66.35 42.6-142.5 48.9l-7.05 0.45q5.2 3.15 10.65 5.9 4.95 2.5 10.25 4.65 6.65 2.75 13.8 4.95" fill="none" stroke="#000" stroke-linecap="round" stroke-linejoin="round" stroke-opacity=".43137" stroke-width=".05"/>
<path d="m187.85 173.15 11.7 4.95q1.3 2.8-0.15 4.55l-11.7-4.95q1.45-1.65 0.15-4.55m14.4 2.3-11.7-4.95q2.25-3.1 1.2-6.55l11.7 4.95q1.05 3.45-1.2 6.55m-7.75-13.4q2.95-2.95 1.3-7.8l11.7 4.95q1.65 4.85-1.3 7.85l-11.7-5m-16.65 40.2q2.9-2.6 0.75-7.15l11.7 4.95q2.25 4.65-0.2 7.35l-12.25-5.15m3.8-9.05q1.55-1.95 0-5.25l11.7 4.95q1.5 3.15 0.15 5.1l-11.85-4.8m3.9-8q0.95-2.2-0.25-5.9l11.7 4.95q1.2 3.65 0.25 5.9l-11.7-4.95" fill="#069" fill-rule="evenodd"/>
<path d="m187.85 173.15q1.65-1.3 2.7-2.65l11.7 4.95-2.7 2.65-11.7-4.95m3.9-9.2 2.75-1.9 11.7 5-2.75 1.85-11.7-4.95m-5.5 45.8-11.7-4.95q2.65-0.9 3.3-2.55l12.25 5.15q-1.25 1.45-3.85 2.35m-7.65-14.65q2.1-0.75 3.05-1.9l11.85 4.8q-0.95 1.3-3.2 2.05l-11.7-4.95m3.05-7.15q2.9-0.65 3.9-2.75l11.7 4.95q-1 2.05-3.9 2.75l-11.7-4.95m3.65-8.65q1.6-0.65 2.4-1.6l11.7 4.95q-0.8 0.9-2.4 1.6l-11.7-4.95" fill="#004566" fill-rule="evenodd"/>
<path d="m207.5 159.2 24.55 10.3q-4.85 2.2-4.75 6.45-10.55-4.5-21.1-8.9 2.95-3 1.3-7.85m20.5 20q-4.25 1.7-4.65 5.1l-21.1-8.85q2.25-3.1 1.2-6.55l24.55 10.3m-3.9 9.2q-3.6-0.5-3.2 3.15l-21.5-8.9q1.45-1.75 0.15-4.55l24.55 10.3m-2.55 6.15q-4.3 1.1-4.85 3.8l-19.45-8.2q0.95-2.25-0.25-5.9l24.55 10.3m-3.65 8.65q-3.25 0.05-3.5 3.25l-20.9-8.45q1.35-1.95-0.15-5.1l24.55 10.3m-3.05 7.15q-5.5 1.55-5.45 5.45l-19.3-8.4q2.45-2.7 0.2-7.35l24.55 10.3" fill="#91b9cc" fill-rule="evenodd"/>
<path d="m199.55 178.1 2.7-2.65 21.1 8.85q-0.2 1.8 0.75 4.1l-24.55-10.3m27.75-2.15q0.05 1.5 0.7 3.25l-24.55-10.3 2.75-1.85q10.55 4.4 21.1 8.9m-6.4 15.6q0.05 1.3 0.65 3l-24.55-10.3q1.6-0.7 2.4-1.6l21.5 8.9m-4.2 6.8q-0.5 1.95 1.2 4.85l-24.55-10.3q2.9-0.7 3.9-2.75l19.45 8.2m-2.3 8.1q-0.15 1.55 0.45 3.9l-24.55-10.3q2.25-0.75 3.2-2.05l20.9 8.45m-5 9.35q0.05 1.85 1.4 4.25l-24.55-10.3q2.6-0.9 3.85-2.35l19.3 8.4" fill="#48829d" fill-rule="evenodd"/>
<path d="m164.15 298.65q3.4 1.8 6.85 3.85l3.45 4.6q16.6 23.15 28.4 61.15-2.6-1.9-3.25 6.4-1.5-5.9-3.6-12.1-9-26.6-28.4-58.35l-3.45-5.55" fill="#997420" fill-rule="evenodd"/>
<path d="m164.15 298.65 3.45 5.55q19.4 31.75 28.4 58.35-7.05-3.85-6.95 6.85-17.45-38-43.7-74.55l-4.9-6.7q5.25 1.85 10.5 4.1 6.6 2.85 13.2 6.4" fill="#3d2500" fill-rule="evenodd"/>
<path d="m201.2 442.55q4.45-4.35 0.8-20.85-18.4-74.45-68.45-131.8l-4.7-5.3q5.85 1.55 11.6 3.55l4.9 6.7q26.25 36.55 43.7 74.55l3.5 7.9q12.8 29.15 12.8 56.5 0.05 9.95-4.15 8.75" fill="#735513" fill-rule="evenodd"/>
<path d="m199.6 374.65q0.65-8.3 3.25-6.4 6.45 20.7 11.45 45.9l1 5q1.75 17.2-3.2 26.45-2.45 4.65-6.75 7.25-9.2 2.5-17.75-4-7.9-7.75-5.2-15.85 0.6-5.85 9.7 0.7-1.1 4.85 0.5 7.35 6.55 11.15 13.85 6.35 4.7-2.85 5.1-13.6 2.7-16-11.35-56.7l-0.6-2.45" fill="#bda158" fill-rule="evenodd"/>
<path d="m196 362.55q2.1 6.2 3.6 12.1l0.6 2.45q14.05 40.7 11.35 56.7-0.4 10.75-5.1 13.6-7.3 4.8-13.85-6.35 1.7 2.7 6.4 2.8l1.25-0.55 0.35-0.2 0.6-0.55q4.2 1.2 4.15-8.75 0-27.35-12.8-56.5l-3.5-7.9q-0.1-10.7 6.95-6.85" fill="#4d2f02" fill-rule="evenodd"/>
<path d="m202.85 368.25q-11.8-38-28.4-61.15l-3.45-4.6q-3.45-2.05-6.85-3.85m38.7 69.6q6.45 20.7 11.45 45.9l1 5q1.75 17.2-3.2 26.45-2.45 4.65-6.75 7.25-9.2 2.5-17.75-4-7.9-7.75-5.2-15.85 0.6-5.85 9.7 0.7-1.1 4.85 0.5 7.35m8.6 1.5q4.45-4.35 0.8-20.85-18.4-74.45-68.45-131.8l-4.7-5.3q5.85 1.55 11.6 3.55 5.25 1.85 10.5 4.1 6.6 2.85 13.2 6.4" fill="none" stroke="#000" stroke-linecap="round" stroke-linejoin="round" stroke-opacity=".43137" stroke-width=".05"/>
<path d="m195.25 217.25-4.3-2.15q-4.6-6.4 3.55-6.35 13.2 6.25 23.85 15.55 3.2 5.65-3.6 6.3l-3.45-2.9q-3.05-2.45-6.4-4.7-4.6-3.15-9.65-5.75m-39.7 79q-8.75-8.55-4.5-10.5 6.65 3.1 12.65 7.05 4.1 2.6 7.8 5.6l3.45 2.85q3.2 5.7-3.55 6.35-7.35-6.45-15.85-11.35" fill="#95701a" fill-rule="evenodd"/>
<path d="m190.95 215.1 4.3 2.15q5.05 2.6 9.65 5.75-11.2 14.5-20.65 30.15-1.85-3.9-6.55-4.8-6.35-1.25-18.05 3.15 10.55-20.05 17.55-41.9 7.15 2.35 13.75 5.5m4.3 2.15-17.55 31.1 17.55-31.1" fill="#3d2500" fill-rule="evenodd"/>
<path d="m194.5 208.75q-8.15-0.05-3.55 6.35-6.6-3.15-13.75-5.5l-6.9-2.05-3.2-0.85q-2.8-5.45 3.6-6.3 12.75 3.15 23.8 8.35m-38.95 87.5q-14.2-8.2-31.8-12.55-2.85-5.45 3.55-6.35l2.95 0.8q5.55 1.5 10.75 3.4 5.15 1.85 10.05 4.2-4.25 1.95 4.5 10.5" fill="#6e5213" fill-rule="evenodd"/>
<path d="m159.65 251.5q11.7-4.4 18.05-3.15 4.7 0.9 6.55 4.8-3.95 6.4-7.5 13.05-7.05 12.85-13.05 26.6-6-3.95-12.65-7.05-4.9-2.35-10.05-4.2 10.4-14.5 18.65-30.05m8.65 13.5 9.4-16.65-9.4 16.65" fill="#4d2f02" fill-rule="evenodd"/>
<path d="m177.2 209.6q-7 21.85-17.55 41.9-8.25 15.55-18.65 30.05-5.2-1.9-10.75-3.4 27.7-31.45 40.05-70.6l6.9 2.05" fill="#735513" fill-rule="evenodd"/>
<path d="m204.9 223q3.35 2.25 6.4 4.7-12.4 16.15-22.45 34.15-0.7-4.6-12.1 4.35 3.55-6.65 7.5-13.05 9.45-15.65 20.65-30.15" fill="#997420" fill-rule="evenodd"/>
<path d="m176.75 266.2q11.4-8.95 12.1-4.35-9.75 17.4-17.35 36.55-3.7-3-7.8-5.6 6-13.75 13.05-26.6" fill="#bda158" fill-rule="evenodd"/>
<path d="m190.95 215.1 4.3 2.15m16.05 10.45 3.45 2.9m3.6-6.3q-10.65-9.3-23.85-15.55m-27.4-2.05 3.2 0.85m0.4-7.15q12.75 3.15 23.8 8.35" fill="none" stroke="#000" stroke-linecap="round" stroke-linejoin="round" stroke-opacity=".43137" stroke-width=".05"/>
<path d="m214.75 230.6q6.8-0.65 3.6-6.3m-40.65 24.05 17.55-31.1m-65 60.9-2.95-0.8q-6.4 0.9-3.55 6.35 17.6 4.35 31.8 12.55 8.5 4.9 15.85 11.35 6.75-0.65 3.55-6.35l-3.45-2.85q7.6-19.15 17.35-36.55 10.05-18 22.45-34.15m-81.05 50.45q27.7-31.45 40.05-70.6m7.4 40.8-9.4 16.65m2.4-64.6q-6.4 0.85-3.6 6.3" fill="none" stroke="#000" stroke-linecap="round" stroke-linejoin="round" stroke-opacity=".43137" stroke-width=".05"/>
<path d="m262.55 90.15-3.85-2.45-7.05-3.9q-5.1-2.6-10.4-4.6l-4.55-1.6q-5.65-5.9 2.15-6.95 13.85 4.6 25.85 12.55 4.2 5.4-2.15 6.95m-27.8 75 3.85 2.4q4.25 5.4-2.15 6.95-8.25-5.5-17.4-9.4-10.05-7.5-6.35-10.1 6.95 2.3 13.5 5.5 4.4 2.1 8.55 4.65" fill="#95701a" fill-rule="evenodd"/>
<path d="m236.7 77.6 4.55 1.6q5.3 2 10.4 4.6-7.8 16.2-13.8 33.5-2.45-3.7-7.15-4-6.3-0.4-16.6 5.65 6.1-21.85 8.4-45.05 7.35 1.4 14.2 3.7m4.55 1.6-10.55 34.1 10.55-34.1" fill="#3d2500" fill-rule="evenodd"/>
<path d="m238.85 70.65q-7.8 1.05-2.15 6.95-6.85-2.3-14.2-3.7l-7-1.15-3.2-0.45q-3.8-5.15 2.15-6.95 12.85 1.45 24.4 5.3m-19.8 94.45q-15.15-6.45-32.85-8.45-3.75-5.15 2.15-6.95l3 0.4q5.6 0.75 10.9 2 5.35 1.2 10.45 2.9-3.7 2.6 6.35 10.1" fill="#6e5213" fill-rule="evenodd"/>
<path d="m237.85 117.3q-2.4 7.05-4.5 14.3-4.2 14.1-7.15 28.9-6.55-3.2-13.5-5.5-5.1-1.7-10.45-2.9 7.1-16.2 11.85-33.15 10.3-6.05 16.6-5.65 4.7 0.3 7.15 4m-12.8 14.25 5.65-18.25-5.65 18.25" fill="#4d2f02" fill-rule="evenodd"/>
<path d="m191.35 150.1q20.15-35.85 24.15-77.35l7 1.15q-2.3 23.2-8.4 45.05-4.75 16.95-11.85 33.15-5.3-1.25-10.9-2" fill="#735513" fill-rule="evenodd"/>
<path d="m251.65 83.8 7.05 3.9q-8.65 18.1-14.7 37.85-1.6-4.6-10.65 6.05 2.1-7.25 4.5-14.3 6-17.3 13.8-33.5" fill="#997420" fill-rule="evenodd"/>
<path d="m244 125.55q-5.85 19.05-9.25 39.6-4.15-2.55-8.55-4.65 2.95-14.8 7.15-28.9 9.05-10.65 10.65-6.05" fill="#bda158" fill-rule="evenodd"/>
<path d="m262.55 90.15q6.35-1.55 2.15-6.95m-6 4.5q-8.65 18.1-14.7 37.85-5.85 19.05-9.25 39.6l3.85 2.4q4.25 5.4-2.15 6.95-8.25-5.5-17.4-9.4-15.15-6.45-32.85-8.45-3.75-5.15 2.15-6.95l3 0.4q20.15-35.85 24.15-77.35m-3.2-0.45q-3.8-5.15 2.15-6.95m16.25 47.95-5.65 18.25m5.65-18.25 10.55-34.1" fill="none" stroke="#000" stroke-linecap="round" stroke-linejoin="round" stroke-opacity=".43137" stroke-width=".05"/>
<path d="m258.7 87.7 3.85 2.45m2.15-6.95q-12-7.95-25.85-12.55m-2.15 6.95 4.55 1.6m-25.75-6.45-3.2-0.45m2.15-6.95q12.85 1.45 24.4 5.3" fill="none" stroke="#000" stroke-linecap="round" stroke-linejoin="round" stroke-opacity=".43137" stroke-width=".05"/>
<path d="m179 81.55-0.05-0.1q-0.8-3.45-0.95-7.7l0.1-3.4q1.6-1.4 3.85-1.65 3.1-0.4 5.55 1.5 2.4 1.85 2.75 4.95 0.45 3.1-1.45 5.5l-1.3 1.4q-1.55 1.2-3.75 1.45-2.4 0.3-4.45-0.85l-0.3-1.1m7.55-31.2 0.2-0.25q4.7-5.55 10.2-9.1l1.1 0.75q2.45 1.85 2.8 4.95 0.4 3.1-1.45 5.5-1.9 2.45-5 2.85-3.05 0.35-5.5-1.5-1.65-1.3-2.35-3.2m45.05-5.35q1.05 3.2 1 7.25l-0.25 2.95-0.75 4.55q-1.8-0.25-3.3-1.45l-0.05-0.05q-1.7-1.3-2.4-3.15l-0.45-1.8q-0.35-3.05 1.55-5.5 1.8-2.3 4.65-2.8m-23.7 31.6-0.45 0.05q-3.05 0.35-5.5-1.55-2.4-1.85-2.8-4.95-0.4-3.05 1.5-5.5 1.85-2.4 4.95-2.85 3.1-0.35 5.5 1.5 2.45 1.9 2.8 5 0.4 3.1-1.45 5.5-1.75 2.25-4.55 2.8" fill="#e2cd9a" fill-rule="evenodd"/>
<path d="m231.6 59.75q-1.2 5.05-3.85 10.05-2.15 4.1-5.25 8.1-4.7 6.05-10.1 10-4.5 3.35-9.5 5.25-10.85 4.05-17.7-1.25-4.2-3.25-5.9-9.25 2.05 1.15 4.45 0.85 2.2-0.25 3.75-1.45 10.8-0.4 20.4-5.45 2.8-0.55 4.55-2.8 8.5-5.7 15.85-15.5 1.5 1.2 3.3 1.45" fill="#717100" fill-rule="evenodd"/>
<path d="m178.1 70.35q0.7-10.75 8.45-20 0.7 1.9 2.35 3.2 2.45 1.85 5.5 1.5 3.1-0.4 5-2.85 1.85-2.4 1.45-5.5-0.35-3.1-2.8-4.95l-1.1-0.75q5.15-3.3 11-4.85 12.05-3.2 18.9 2.1 3.35 2.65 4.75 6.75-2.85 0.5-4.65 2.8-1.9 2.45-1.55 5.5l0.45 1.8q0.7 1.85 2.4 3.15l0.05 0.05q-7.35 9.8-15.85 15.5 1.85-2.4 1.45-5.5-0.35-3.1-2.8-5-2.4-1.85-5.5-1.5-3.1 0.45-4.95 2.85-1.9 2.45-1.5 5.5 0.4 3.1 2.8 4.95 2.45 1.9 5.5 1.55l0.45-0.05q-9.6 5.05-20.4 5.45l1.3-1.4q1.9-2.4 1.45-5.5-0.35-3.1-2.75-4.95-2.45-1.9-5.55-1.5-2.25 0.25-3.85 1.65" fill="#990" fill-rule="evenodd"/>
<path d="m227.75 69.8q2.95 5.8 11.95 3.65l-0.55 4.05q-12.05 14.75-23.8 12.45-1.3-1.1-2.95-2.05 5.4-3.95 10.1-10 3.1-4 5.25-8.1" fill="#ab8732" fill-rule="evenodd"/>
<path d="m239.15 77.5q-3.2 15.95-19.45 21.7-0.2-5.6-4.35-9.25 11.75 2.3 23.8-12.45" fill="#d3b367" fill-rule="evenodd"/>
<path d="m179 81.55-0.05-0.1" fill="none" stroke="#000" stroke-linecap="round" stroke-linejoin="round" stroke-opacity=".43137" stroke-width=".05"/>
<path d="m178.95 81.45q-0.8-3.45-0.95-7.7l0.1-3.4q0.7-10.75 8.45-20l0.2-0.25q4.7-5.55 10.2-9.1 5.15-3.3 11-4.85 12.05-3.2 18.9 2.1 3.35 2.65 4.75 6.75 1.05 3.2 1 7.25l-0.25 2.95-0.75 4.55q-1.2 5.05-3.85 10.05 2.95 5.8 11.95 3.65l-0.55 4.05q-3.2 15.95-19.45 21.7-0.2-5.6-4.35-9.25-1.3-1.1-2.95-2.05-4.5 3.35-9.5 5.25-10.85 4.05-17.7-1.25-4.2-3.25-5.9-9.25l-0.3-1.1m48.75-11.75q-2.15 4.1-5.25 8.1-4.7 6.05-10.1 10" fill="none" stroke="#000" stroke-linecap="round" stroke-linejoin="round" stroke-opacity=".43137" stroke-width=".05"/>
<path d="m253.25 49.2v-0.05q0.05-2 0.65-4.35l0.55-1.9q1.1-0.5 2.35-0.3 1.75 0.25 2.8 1.65t0.8 3.1q-0.2 1.8-1.6 2.85l-0.95 0.55-2.25 0.25q-1.4-0.2-2.35-1.15v-0.65m8.75-16.05 0.15-0.1q3.4-2.4 7-3.5l0.55 0.55q1.05 1.4 0.75 3.15-0.2 1.75-1.6 2.8-1.4 1.1-3.15 0.85t-2.8-1.65q-0.75-0.95-0.9-2.1m25.65 3.7q0.1 1.9-0.5 4.15l-0.6 1.55-1.05 2.45q-0.95-0.45-1.65-1.3v-0.05q-0.75-0.95-0.85-2.1v-1.05q0.25-1.75 1.65-2.8 1.35-1 3-0.85m-17.75 13.9-0.25-0.05q-1.75-0.25-2.8-1.65t-0.85-3.15q0.3-1.7 1.7-2.75t3.1-0.85q1.8 0.2 2.85 1.6t0.8 3.2q-0.2 1.75-1.6 2.8-1.3 1-2.95 0.85" fill="#e2cd9a" fill-rule="evenodd"/>
<path d="m285.5 45q-1.45 2.6-3.65 4.95-1.8 1.95-4.1 3.7-3.45 2.6-7 4.05-2.95 1.15-6 1.4-6.65 0.7-9.6-3.2-1.85-2.4-1.9-6.05 0.95 0.95 2.35 1.15l2.25-0.25q6.05 1.4 12.05 0 1.65 0.15 2.95-0.85 5.5-1.9 11-6.2 0.7 0.85 1.65 1.3" fill="#717100" fill-rule="evenodd"/>
<path d="m254.45 42.9q1.95-5.8 7.55-9.75 0.15 1.15 0.9 2.1 1.05 1.4 2.8 1.65t3.15-0.85q1.4-1.05 1.6-2.8 0.3-1.75-0.75-3.15l-0.55-0.55q3.3-1.05 6.8-1.05 7.1 0 10.1 3.95 1.45 1.9 1.6 4.4-1.65-0.15-3 0.85-1.4 1.05-1.65 2.8v1.05q0.1 1.15 0.85 2.1v0.05q-5.5 4.3-11 6.2 1.4-1.05 1.6-2.8 0.25-1.8-0.8-3.2t-2.85-1.6q-1.7-0.2-3.1 0.85t-1.7 2.75q-0.2 1.75 0.85 3.15t2.8 1.65l0.25 0.05q-6 1.4-12.05 0l0.95-0.55q1.4-1.05 1.6-2.85 0.25-1.7-0.8-3.1t-2.8-1.65q-1.25-0.2-2.35 0.3" fill="#990" fill-rule="evenodd"/>
<path d="m281.85 49.95q0.75 3.6 6.05 3.8l-0.9 2.1q-8.85 6.4-14.9 3.35l-1.35-1.5q3.55-1.45 7-4.05 2.3-1.75 4.1-3.7" fill="#ab8732" fill-rule="evenodd"/>
<path d="m287 55.85q-4.05 8.35-13.95 9.15 0.75-3.15-0.95-5.8 6.05 3.05 14.9-3.35" fill="#d3b367" fill-rule="evenodd"/>
<path d="m253.25 49.2v-0.05" fill="none" stroke="#000" stroke-linecap="round" stroke-linejoin="round" stroke-opacity=".43137" stroke-width=".05"/>
<path d="m253.25 49.15q0.05-2 0.65-4.35l0.55-1.9q1.95-5.8 7.55-9.75l0.15-0.1q3.4-2.4 7-3.5 3.3-1.05 6.8-1.05 7.1 0 10.1 3.95 1.45 1.9 1.6 4.4 0.1 1.9-0.5 4.15l-0.6 1.55-1.05 2.45q-1.45 2.6-3.65 4.95 0.75 3.6 6.05 3.8l-0.9 2.1q-4.05 8.35-13.95 9.15 0.75-3.15-0.95-5.8l-1.35-1.5q-2.95 1.15-6 1.4-6.65 0.7-9.6-3.2-1.85-2.4-1.9-6.05v-0.65m28.6 0.75q-1.8 1.95-4.1 3.7-3.45 2.6-7 4.05" fill="none" stroke="#000" stroke-linecap="round" stroke-linejoin="round" stroke-opacity=".43137" stroke-width=".05"/>
</g>
</defs>
</svg>
