<?xml version="1.0" encoding="UTF-8"?>
<svg version="1.1" viewBox="0 0 98.303 91.414" xmlns="http://www.w3.org/2000/svg" xmlns:cc="http://creativecommons.org/ns#" xmlns:dc="http://purl.org/dc/elements/1.1/" xmlns:rdf="http://www.w3.org/1999/02/22-rdf-syntax-ns#" xmlns:xlink="http://www.w3.org/1999/xlink">
<metadata>
<rdf:RDF>
<cc:Work rdf:about="">
<dc:format>image/svg+xml</dc:format>
<dc:type rdf:resource="http://purl.org/dc/dcmitype/StillImage"/>
</cc:Work>
</rdf:RDF>
</metadata>
<g transform="translate(-225.7 -154.85)">
<use transform="translate(225.7,154.85)" width="98.300003" height="91.400002" xlink:href="#a"/>
</g>
<defs>
<g id="a" transform="translate(-225.7,-154.85)">
<path d="m319.85 158.25-1.35 2.85 2.65-2.75q1.5-1.4 2.55-1.75l0.2 2.15-8.05 7.7-0.9 0.8-0.4 0.4-1.2 1.05-4.1 3.5-2.15 1.7-0.45 0.35 10.4-3 0.2 1.35-16.8 6.45-2.75 2.05-3.45 2.4-3.2-0.3 5.45-3.5-1.15-1.6q3.9-5.75 9.05-6.9 7-1.65 8.05-4.55 1.15-5.45 7.4-8.4m-30.1 19.15 4.2-2.45 1.75-0.95 2.8-1.7q-2.15 1.7-3.95 4.65l-4.55 3.7-1.15-0.95 0.9-2.3m11-6.55 0.1-0.05q3.55-4.1 4.7-11.15l1.3 0.15-2.5 8.5 1.05-0.8 1.25-0.95 0.15-0.15 2.9-2.4 1.8-1.35 0.65-0.65 3.5-3.35 3.7-3.7 1.85 0.55-0.35 0.7q-8 4.4-9.45 9.05l-0.2 0.85q-1.65 2.35-7.65 3.75-1.45 0.3-2.8 1m3.5-2.45h0.1v-0.1l-0.1 0.1" fill="#f5ef76" fill-rule="evenodd"/>
<path d="m320.85 156.2-1 2.05q-6.25 2.95-7.4 8.4-1.05 2.9-8.05 4.55-5.15 1.15-9.05 6.9l-0.8-1.15q1.8-2.95 3.95-4.65l2.25-1.45q1.35-0.7 2.8-1 6-1.4 7.65-3.75l0.2-0.85q1.45-4.65 9.45-9.05m-14 3.6 1.65 0.15-1.85 6.6-1.25 0.95-1.05 0.8v0.1h-0.1l0.1-0.1 2.5-8.5" fill="#ec7b4a" fill-rule="evenodd"/>
<path d="m294.25 183.5 3.7 0.7 0.75 3.75-6.65-0.75-0.7 1.25 1.1 3.65-4.55-1.1-0.55-2.55q-13.7 10.75-25.35 23.1l-5 5.45q-11.65 13.15-21.1 28.05 1.25-4.4 0.6-7.05l-0.1-0.3 20.25-25 32.45-29.2-0.25-0.35-1.5 1.2-0.1-2.85q0.85 0.5 1.6 1.65-0.75-1.15-1.6-1.65l-0.15-4.4 3.8-2.85-1.15 3.15-0.9 2.3 1.15 0.95 4.55-3.7 0.8 1.15 1.15 1.6-5.45 3.5 3.2 0.3m-13.65-0.9-2.8-1-0.2-1.2 4.55 1.15-1.55 1.05m8.95 1.8-0.45-0.9 0.45 0.9m-32.55 32.6q0-2.35-0.35-4.3 0.35 1.95 0.35 4.3" fill="#62552f" fill-rule="evenodd"/>
<path d="m228.1 233.75q11.85-14.15 19-22.2l5.85-6.35q4.9-5.25 10.65-10.05l1.4-1.15q1.05-0.9 2.2-1.75l2.1-1.65 2.05-1.5 0.25-0.25 2.7-1.9q2.2-1.6 4.6-3.1l1.35-0.85 0.55-0.35-0.2-0.05 1.55-1.05-4.55-1.15-0.1-0.3 5.25 0.2 0.9-1.25-3.05-5.15 3.6-0.75 2.2 4.25 3.15-4.5 1.8 0.25-0.45 1.1-3.8 2.85 0.15 4.4 0.1 2.85 1.5-1.2 0.25 0.35-32.45 29.2-0.5-1.95 3.9-4.9-3.9 4.9 0.5 1.95-20.25 25q-1.35-4.45-8.3-3.95m37.5-32.3 9.4-7.35-1.3-1.55 1.1-0.85-1.1 0.85 1.3 1.55 12.35-9.75-12.35 9.75-9.4 7.35m18.4-19.75q1.8-1 3.25-0.2-1.45-0.8-3.25 0.2m-42.75 47.15 14.9-18.1-14.9 18.1m18.8-25.65 13.65-10.65-13.65 10.65" fill="#8e7c44" fill-rule="evenodd"/>
<path d="m235.9 245.05q-4.45 2.1-9.15-0.6l-0.2-0.1q-1.2-4.1 0.2-8.25l0.6-1.5 0.75-0.85q6.95-0.5 8.3 3.95l0.1 0.3q0.65 2.65-0.6 7.05m-7.45-8.6q-1.5 3.3-0.5 6.65 3.35 1.95 6.5 0.45 2.35-8.4-6-7.1" fill="#665931" fill-rule="evenodd"/>
<path d="m228.45 236.45q8.35-1.3 6 7.1-3.15 1.5-6.5-0.45-1-3.35 0.5-6.65" fill="#c04814" fill-rule="evenodd"/>
<path d="m320.85 156.2-1 2.05-1.35 2.85 2.65-2.75q1.5-1.4 2.55-1.75l0.2 2.15-8.05 7.7-0.9 0.8-0.4 0.4-1.2 1.05-4.1 3.5-2.15 1.7-0.45 0.35 10.4-3 0.2 1.35-16.8 6.45-2.75 2.05-3.45 2.4m11.3-23.85 1.3 0.15 1.65 0.15-1.85 6.6m12.7-11.6 1.85 0.55-0.2 0.4m-16.65 12.4 1.05-0.8 1.25-0.95m-2.4 1.85 0.1-0.1" fill="none" stroke="#f40000" stroke-linecap="round" stroke-linejoin="round" stroke-width=".2"/>
<path d="m294.25 183.5 3.7 0.7 0.75 3.75-6.65-0.75-0.7 1.25 1.1 3.65-4.55-1.1-0.55-2.55m-6.55-5.8-0.2-0.05-2.8-1-0.2-1.2-0.1-0.3 5.25 0.2 0.9-1.25-3.05-5.15 3.6-0.75 2.2 4.25 3.15-4.5 1.8 0.25-0.45 1.1-1.15 3.15-0.9 2.3 1.15 0.95 4.55-3.7 0.8 1.15 1.15 1.6-5.45 3.5 3.2 0.3m-5.4-0.35 0.25 0.35 0.45 0.9m-2.2-0.05 1.5-1.2q-0.75-1.15-1.6-1.65-1.45-0.8-3.25 0.2m-9.2 10-1.1 0.85 1.3 1.55 12.35-9.75m-12.35 9.75-9.4 7.35m-5.55 4.4-3.9 4.9 0.5 1.95q0.35 1.95 0.35 4.3m-20.5 21q0.65 2.65-0.6 7.05m-7.8-11.3q6.95-0.5 8.3 3.95m37.3-45.15-13.65 10.65m-3.9 7.55-14.9 18.1" fill="none" stroke="#000" stroke-linecap="round" stroke-linejoin="round" stroke-opacity=".6" stroke-width=".4"/>
<path d="m287.35 188.45q-13.7 10.75-25.35 23.1l-5 5.45q-11.65 13.15-21.1 28.05-4.45 2.1-9.15-0.6l-0.2-0.1q-1.2-4.1 0.2-8.25l0.6-1.5 0.75-0.85q11.85-14.15 19-22.2l5.85-6.35q4.9-5.25 10.65-10.05l1.4-1.15q1.05-0.9 2.2-1.75l2.1-1.65 2.05-1.5 0.25-0.25 2.7-1.9q2.2-1.6 4.6-3.1l1.35-0.85 0.55-0.35" fill="none" stroke="#000" stroke-linecap="round" stroke-linejoin="round" stroke-opacity=".6" stroke-width=".6"/>
<path d="m228.45 236.45q8.35-1.3 6 7.1-3.15 1.5-6.5-0.45-1-3.35 0.5-6.65" fill="none" stroke="#f40000" stroke-linecap="round" stroke-linejoin="round" stroke-width=".4"/>
</g>
</defs>
</svg>
