<?xml version="1.0" encoding="UTF-8"?>
<svg version="1.1" viewBox="0 0 469.2 505.45" xmlns="http://www.w3.org/2000/svg" xmlns:cc="http://creativecommons.org/ns#" xmlns:dc="http://purl.org/dc/elements/1.1/" xmlns:rdf="http://www.w3.org/1999/02/22-rdf-syntax-ns#" xmlns:xlink="http://www.w3.org/1999/xlink">
<metadata>
<rdf:RDF>
<cc:Work rdf:about="">
<dc:format>image/svg+xml</dc:format>
<dc:type rdf:resource="http://purl.org/dc/dcmitype/StillImage"/>
</cc:Work>
</rdf:RDF>
</metadata>
<g transform="translate(-109.5 11.95)">
<use transform="translate(109.5,-11.95)" width="469.20001" height="505.45001" xlink:href="#a"/>
</g>
<defs>
<g id="a" transform="translate(234.6,252.7)">
<use transform="translate(-234.6,-252.7)" width="469.20001" height="505.45001" xlink:href="#b"/>
</g>
<g id="b" transform="translate(234.6,252.7)">
<path d="m208.95-161.95 5.7 0.55-66.85 79.8 61.15-80.35m-147.55 190.55-50.55 50.1 1.2-10.25-46.25 47.1-2-5.95 165.3-164.15 76.85-78.9 22.15-16.95-25.1 27.6 28.05-23.6-169.3 166.45-0.35 8.55m-280.05 213.85-5.15-9.65q74.4-26.75 138.15-74l30.75-30.5 0.9 7.45-21.6 21.95q-29.5 25.2-60.9 45-40.3 25.3-82.15 39.75m-8.7-16.2-3.45-6.55q60.45-20 121.85-52.85-57.05 38.1-118.4 59.4" fill="#714f28" fill-rule="evenodd"/>
<path d="m-40.2 97.9q110.45-106.45 209.05-215.65l34.4-44.85 5.7 0.65-61.15 80.35 66.85-79.8 3.15 0.3-14.5 21.85 20.6-15.75 1.7 1.4 2.5 3.2-22.15 16.95-76.85 78.9-165.3 164.15-4-11.7m-183.6 134.9-3.55-6.55q61.35-21.3 118.4-59.4-61.4 32.85-121.85 52.85l-3.3-6.3q75.1-21.6 142.55-66.75 17.6-16.45 34.85-32.9l1.8 14.55-30.75 30.5q-63.75 47.25-138.15 74" fill="#8d6232" fill-rule="evenodd"/>
<path d="m217.8-161.1q-3.1 9 6.1 6.1l-20.6 15.75 14.5-21.85m10.3 10.7q2.95 4 6 7.85l-172.7 171.15 0.35-8.55 169.3-166.45-28.05 23.6 25.1-27.6m-217.25 229.1-99.85 99q-60.45 46.7-124.5 74.55l-5.15-9.8q41.85-14.45 82.15-39.75 31.4-19.8 60.9-45l21.6-21.95-0.9-7.45-1.8-14.55 16.5-15.85 4 11.7 2 5.95 46.25-47.1-1.2 10.25" fill="#51371e" fill-rule="evenodd"/>
<path d="m-40.2 97.9q110.45-106.45 209.05-215.65l34.4-44.85 5.7 0.65 5.7 0.55 3.15 0.3-14.5 21.85 20.6-15.75 0.4-0.35 1.3 1.75 2.5 3.2q2.95 4 6 7.85l-172.7 171.15-50.55 50.1-99.85 99q-60.45 46.7-124.5 74.55l-5.15-9.8-5.15-9.65-3.55-6.55-3.45-6.55-3.3-6.3q75.1-21.6 142.55-66.75 17.6-16.45 34.85-32.9l16.5-15.85" fill="none" stroke="#000" stroke-linecap="round" stroke-linejoin="round" stroke-opacity=".4"/>
<path d="m217.8-161.1q-3.1 9 6.1 6.1l1.7 1.4" fill="none" stroke="#000" stroke-linecap="round" stroke-linejoin="round" stroke-opacity=".4"/>
<path d="m105.85-168.6-18.1 8.95q-13.55-12.4-29.45-24.25l17.35-11.1q15.1 12.25 30.2 26.4m9.5 96.95 4.2-13.9 11.1-2.35-15.3 16.25m-128.3-178.3 2.4 1.05-25.35 25.7q-10.75-5.65-22.05-11l8.4-9.6 36.6-6.15m20.7 9.9q9.75 5.05 19.45 10.95l-8.3 4.1-5.25 7.05-6.75-1.05q-16.4-1.8-28.4 3.8l-0.05-0.05-5.85-3.35 35.15-21.45" fill="#771a0d" fill-rule="evenodd"/>
<path d="m87.75-159.65 18.1-8.95q13.05 12.3 26.1 26.05l-19 8.4q-11.45-13-25.2-25.5m-12.1-35.35-17.35 11.1-19.5-13.75 16.75-12.75q10 7.25 20.1 15.4" fill="#5b120b" fill-rule="evenodd"/>
<path d="m121.05-105 2.15-2.05-10.1 0.75-1.8 11.45q-10.25-15-21.9-28.95l23.55-10.35q15.55 17.85 26.7 36.7l-1.75 1.8-18.95 4.55q-6.1-5.85 2.1-13.9" fill="#ba7001" fill-rule="evenodd"/>
<path d="m121.05-105-6.65 0.6-1.85 11.5-10.35-0.35-1.55 5.95-2.05 1.4 2.2-9.35 10.5 0.4 1.8-11.45 10.1-0.75-2.15 2.05m-7.1 19.55 2.3-1.5-8.1 31.6-3.3 3.1q-11.3 7.6-23.95 22.9l-2.35-3.25 5.2-5.4 7.3-7.7 10.8-11.55 3.2-3.35 3.5-3.7 5.4-21.15m-27.1 64.15-3-4.1q6.55-11.7 17.15-19.3-1.05 9.95 14 11.35 7.4-3 2.8-10.15-0.05 5.3-4.1 5-11.05-2.3-5.75-10.55 5.2-4.7 10.4-4.8 16.35-1.4 11.15 23.2l-3.8 3.6-25.35 24.05-13.5-18.3m46.7-13.25q5.85-24.5-16.8-23.55-2.2 0.65-4.5 1.7l3.1-15.25 15.3-16.25 10.4-2.1q-2.45 3.85-4.7 8.1-11.3 25.65 14.6 30.8l-17.4 16.55m25.1-23.8-2.6 2.5q-26.7-2.4-15.4-24.4 6.25-13.25 14.5-11 10.8 3.1-2.55 12.3 8.75 2.45 11.35-5.35 2.75-14.7-14.9-10.85 9.8-12.35 21.55-16.15l0.8 3.25 0.7 2.4 5.7-0.85 3.15-0.4q12.2 8.05 16.85 20.2-10.7 1.3-18.4 8.7l-20.75 19.65m10.2-59.4q-12.9 7.25-23.2 21.1l-1.75 2.95-25.9 5.05 0.95-2.45 18.95-4.55 1.75-1.8 21.85-23.55 5.05-5.55 2.3 8.8m38.9 31.1-4.2-0.3q-2.95-9.3-15.25-20.3 11.6 0 20.05 3.95l5.4 17.7-6-1.05" fill-rule="evenodd"/>
<path d="m58.3-183.9q15.9 11.85 29.45 24.25l-21.5 10.65q-10.35-10.3-21.65-19.9l10.45-12.9 3.25-2.1" fill="#f90" fill-rule="evenodd"/>
<path d="m100.65-87.3 1.55-5.95 10.35 0.35 1.85-11.5 6.65-0.6q-8.2 8.05-2.1 13.9l-0.95 2.45 25.9-5.05 1.75-2.95q10.3-13.85 23.2-21.1 4.35-0.95 5.6 3.85 0.65 4.95-3.05 5.85l-0.8-3.25q-11.75 3.8-21.55 16.15 17.65-3.85 14.9 10.85-2.6 7.8-11.35 5.35 13.35-9.2 2.55-12.3-8.25-2.25-14.5 11-11.3 22 15.4 24.4l2.6-2.5q1.25 2.5-0.35 4.85-2.95 3.6-7.35 2.4-25.9-5.15-14.6-30.8 2.25-4.25 4.7-8.1l-10.4 2.1-11.1 2.35-4.2 13.9-3.1 15.25q2.3-1.05 4.5-1.7 22.65-0.95 16.8 23.55-0.35 3.85-2.6 6.3-4.35 2.25-5.25 1.2l3.8-3.6q5.2-24.6-11.15-23.2-5.2 0.1-10.4 4.8-5.3 8.25 5.75 10.55 4.05 0.3 4.1-5 4.6 7.15-2.8 10.15-15.05-1.4-14-11.35-10.6 7.6-17.15 19.3l3 4.1q-2.8 1.9-6-1.85-1.05-3.4 0.05-6.15v-0.05q12.65-15.3 23.95-22.9l3.3-3.1 8.1-31.6-2.3 1.5q-4.25-7.6-13.3-1.85m97.15 0.6q-4.65-12.15-16.85-20.2l-3.15 0.4 4.65-3.55q3.45 0.4 5.85 2.8 12.3 11 15.25 20.3l4.2 0.3-2.5 2.9q-4 1.75-7.45-2.95m-222.45-116.65q0.55-6.1 3.1-11.9l0.05 0.05 9.55 5.55 13.25 8.4-13.05 17.65q-6.2-1.65-8.85 2.1-3.3-7.4-3.95-14.35l9.1-12.05-9.2 4.55m69.25 34.45q11.3 9.6 21.65 19.9l-20.05 9.95q-7.15-7-14.75-13.6l13.15-16.25m-18.6 11.6-4.05-3.3 12.95-8.3-8.9 11.6" fill="#ff3" fill-rule="evenodd"/>
<path d="m87.75-159.65q13.75 12.5 25.2 25.5l-23.55 10.35q-10.9-13.05-23.15-25.2l21.5-10.65" fill="#db8402" fill-rule="evenodd"/>
<path d="m111.3-94.85-10.5-0.4-2.2 9.35 2.05-1.4q9.05-5.75 13.3 1.85l-20 5.75q-11.55-18.45-25.3-34.95l20.75-9.15q11.65 13.95 21.9 28.95" fill="#e2cd0c" fill-rule="evenodd"/>
<path d="m112.95-134.15 19-8.4 19.45 21.4q5.55 4.1 10.1 0.15l-21.85 23.55q-11.15-18.85-26.7-36.7" fill="#350b06" fill-rule="evenodd"/>
<path d="m86.2-56.3 0.05 0.05 4.8 10.55-7.3 7.7q3.95-7.65 1.9-11.5l-0.05-0.1-3.8-6.4 4.4-0.3m-15.65-16.75q-11.35-15.85-25.7-31.15l3.7-1.6 26.2 31.6-4.2 1.15" fill="#face6b" fill-rule="evenodd"/>
<path d="m86.2-56.3 15.65-0.95-10.8 11.55-4.8-10.55-0.05-0.05m7.75-23.4-19.2 5.5-26.2-31.6 20.1-8.85q13.75 16.5 25.3 34.95" fill="#871c01" fill-rule="evenodd"/>
<path d="m101.85-57.25-15.65 0.95-11.45-17.9 19.2-5.5q5.8 9.25 11.1 19.1l-3.2 3.35" fill="#541101" fill-rule="evenodd"/>
<path d="m105.05-60.6q-5.3-9.85-11.1-19.1l20-5.75-5.4 21.15-3.5 3.7" fill="#cab60b" fill-rule="evenodd"/>
<path d="m13.65-217.95-12.35 16.7-13.25-8.4-9.55-5.55q12-5.6 28.4-3.8l6.75 1.05m9.65 32.05 15.5-11.75 19.5 13.75-3.25 2.1-10.45 12.9-4.15-3.55-17.15-13.45" fill="#e38902" fill-rule="evenodd"/>
<path d="m-10.55-248.9q9.15 4.1 18.3 8.85l-35.15 21.45-8.5-4.6 25.35-25.7m37.75 19.8q14.2 8.45 28.35 18.7l-16.75 12.75-13.45-8.8q-4.5-4.15-1.65-9.05l-10.05-2.45 5.25-7.05 8.3-4.1m-99.1-11.45 22.35-3.25-8.4 9.6-13.95-6.35" fill="#921d10" fill-rule="evenodd"/>
<path d="m13.65-217.95 10.05 2.45q-2.85 4.9 1.65 9.05l13.45 8.8-15.5 11.75q-10.7-7.9-22-15.35l12.35-16.7" fill="#fda92d" fill-rule="evenodd"/>
<path d="m74.75-74.2 11.45 17.9-4.4 0.3q-5.15-8.6-11.25-17.05l4.2-1.15m-120.35-174.05 27.35-3.95 5.3 2.25-36.6 6.15 3.95-4.45" fill="#f9c44a" fill-rule="evenodd"/>
<path d="m-78.75-243.55 33.15-4.7-3.95 4.45-22.35 3.25-6.85-3" fill="#facc63" fill-rule="evenodd"/>
<path d="m-24.65-203.35-29.9 14.9-28.95-16.55 25.55-29.2q11.3 5.35 22.05 11l-23.85 24.25 32.35-19.65 5.85 3.35q-2.55 5.8-3.1 11.9m0.1 7.5q0.65 6.95 3.95 14.35 2.65-3.75 8.85-2.1l-11.15 14.9-15.2-9.3 13.55-17.85m28.6 46.75 17.9-11.5 4.05 3.3-12.6 16.35-9.35-8.15m22.45 19.8-8.05-7.25 13-16.1q7.6 6.6 14.75 13.6l-19.7 9.75" fill="#f30" fill-rule="evenodd"/>
<path d="m-15.1-156.75-10.85-7.8 3.05-4.15 12.3 8.6-4.5 3.35m-25.6-17.85-18.25-11.6 4.4-2.25 16.45 10.45-2.6 3.4m-45.4-27.45q-26-14.55-55.45-28.45l-6.6-3.1 69.4-9.95 6.85 3-63.3 9.15 51.7 26.4-2.6 2.95" fill="#fffcf7" fill-rule="evenodd"/>
<path d="m-54.55-188.45 29.9-14.9q-0.35 3.7 0.1 7.5l-13.55 17.85-16.45-10.45m27.15-30.15-32.35 19.65 23.85-24.25 8.5 4.6m-30.55-15.6-25.55 29.2-51.7-26.4 63.3-9.15 13.95 6.35m46.2 50.6 3.1 1.05 14.55 9.85-16.5 12.6-12.3-8.6 11.15-14.9" fill="#f96706" fill-rule="evenodd"/>
<path d="m1.3-201.25q11.3 7.45 22 15.35l-17.4 13.2-14.55-9.85-3.1-1.05 13.05-17.65m-25.85 5.4q-0.45-3.8-0.1-7.5l9.2-4.55-9.1 12.05" fill="#fefd89" fill-rule="evenodd"/>
<path d="m21.7-126.85-6.45-5.75 3.2-3.95 8.05 7.25-4.8 2.45m-11.4-9.95-11.2-9.15 4.95-3.15 9.35 8.15-3.1 4.15m-36.25-27.75-14.75-10.05 2.6-3.4 15.2 9.3-3.05 4.15m-33-21.65-8.4-5.05-18.75-10.8 2.6-2.95 28.95 16.55-4.4 2.25" fill="#fce1a5" fill-rule="evenodd"/>
<path d="m44.85-104.2q-10.75-11.45-23.15-22.65l4.8-2.45 22.05 23.5-3.7 1.6m-29.6-28.4-4.95-4.2 3.1-4.15 5.05 4.4-3.2 3.95m-16.15-13.35q-6.85-5.45-14.2-10.8l4.5-3.35 14.65 11-4.95 3.15" fill="#fbd98c" fill-rule="evenodd"/>
<path d="m5.9-172.7 17.4-13.2 17.15 13.45 4.15 3.55-13.15 16.25-5.45-4.65 8.9-11.6-12.95 8.3q-7.8-6.25-16.05-12.1m62.75 58.05q-10.55-12.75-22.45-24.4l20.05-9.95q12.25 12.15 23.15 25.2l-20.75 9.15" fill="#ecec02" fill-rule="evenodd"/>
<path d="m-10.6-160.1 16.5-12.6q8.25 5.85 16.05 12.1l-17.9 11.5-14.65-11m24 19.15 12.6-16.35 5.45 4.65-13 16.1-5.05-4.4m13.1 11.65 19.7-9.75q11.9 11.65 22.45 24.4l-20.1 8.85-22.05-23.5" fill="#ca2902" fill-rule="evenodd"/>
<path d="m105.85-168.6q-15.1-14.15-30.2-26.4m-17.35 11.1q15.9 11.85 29.45 24.25 13.75 12.5 25.2 25.5m19-8.4q-13.05-13.75-26.1-26.05m-5.2 81.3 1.55-5.95 10.35 0.35 1.85-11.5 6.65-0.6 2.15-2.05-10.1 0.75-1.8 11.45-10.5-0.4-2.2 9.35 2.05-1.4q9.05-5.75 13.3 1.85l2.3-1.5-8.1 31.6-3.3 3.1q-11.3 7.6-23.95 22.9v0.05q-1.1 2.75-0.05 6.15 3.2 3.75 6 1.85l-3-4.1q6.55-11.7 17.15-19.3-1.05 9.95 14 11.35 7.4-3 2.8-10.15-0.05 5.3-4.1 5-11.05-2.3-5.75-10.55 5.2-4.7 10.4-4.8 16.35-1.4 11.15 23.2l-3.8 3.6q0.9 1.05 5.25-1.2 2.25-2.45 2.6-6.3 5.85-24.5-16.8-23.55-2.2 0.65-4.5 1.7l3.1-15.25 4.2-13.9 11.1-2.35 10.4-2.1q-2.45 3.85-4.7 8.1-11.3 25.65 14.6 30.8 4.4 1.2 7.35-2.4 1.6-2.35 0.35-4.85l-2.6 2.5q-26.7-2.4-15.4-24.4 6.25-13.25 14.5-11 10.8 3.1-2.55 12.3 8.75 2.45 11.35-5.35 2.75-14.7-14.9-10.85 9.8-12.35 21.55-16.15l0.8 3.25q3.7-0.9 3.05-5.85-1.25-4.8-5.6-3.85-12.9 7.25-23.2 21.1l-1.75 2.95-25.9 5.05 0.95-2.45q-6.1-5.85 2.1-13.9m10.9-37.55 19.45 21.4q5.55 4.1 10.1 0.15l5.05-5.55 2.3 8.8m-7.35-3.25-21.85 23.55-1.75 1.8-18.95 4.55m20.7-6.35q-11.15-18.85-26.7-36.7m64.85 27.65 3.15-0.4q12.2 8.05 16.85 20.2 3.45 4.7 7.45 2.95l2.5-2.9-4.2-0.3q-2.95-9.3-15.25-20.3-2.4-2.4-5.85-2.8l-4.65 3.55-5.7 0.85-0.7-2.4m36.35 21.4 6 1.05-5.4-17.7q-8.45-3.95-20.05-3.95m9.5 20.55q-10.7 1.3-18.4 8.7l-20.75 19.65m-56.8 1.1 3.2-3.35q-5.3-9.85-11.1-19.1m-2.9 34 10.8-11.55m-18.1 19.25q3.95-7.65 1.9-11.5l-0.05-0.1-3.8-6.4q-5.15-8.6-11.25-17.05-11.35-15.85-25.7-31.15-10.75-11.45-23.15-22.65l-6.45-5.75-4.95-4.2-11.2-9.15q-6.85-5.45-14.2-10.8l-10.85-7.8-14.75-10.05-18.25-11.6-8.4-5.05-18.75-10.8q-26-14.55-55.45-28.45l-6.6-3.1 69.4-9.95 33.15-4.7 27.35-3.95 5.3 2.25 2.4 1.05q9.15 4.1 18.3 8.85 9.75 5.05 19.45 10.95 14.2 8.45 28.35 18.7 10 7.25 20.1 15.4m38.3 109.55-5.4 21.15-3.5 3.7m20.65 33.55-25.35 24.05-13.5-18.3m43.8-66.6-15.3 16.25m35.6 20.55-17.4 16.55m-94.75-163.1-13.45-8.8q-4.5-4.15-1.65-9.05l-10.05-2.45m-35.15 2.75q12-5.6 28.4-3.8l6.75 1.05m-38.3 14.6q0.55-6.1 3.1-11.9m0.05 0.05-0.05-0.05m-3 19.4q-0.45-3.8-0.1-7.5m0.1 7.5q0.65 6.95 3.95 14.35 2.65-3.75 8.85-2.1m17.65 10.9-14.55-9.85-3.1-1.05m70.05-0.3-19.5-13.75m-12.8 40.35-4.05-3.3q-7.8-6.25-16.05-12.1m20.1 15.4 5.45 4.65m14.75 13.6q-7.15-7-14.75-13.6m37.2 38q-10.55-12.75-22.45-24.4m22.45 24.4q13.75 16.5 25.3 34.95m-13.05 50.35-2.35-3.25 5.2-5.4 7.3-7.7" fill="none" stroke="#000" stroke-linecap="round" stroke-linejoin="round" stroke-opacity=".4"/>
<path d="m86.85-50.75 1.1 2.65 3.8 9.8h0.05l15.15 42.6-5.6 0.5-6.55 1.6-12.15 8.6-9.55 11.35-2.05 6.2-15.25 13.5q-18.4 20.35-34.25 35l-6 8.5-8.75 5.1-6.65 7.8-13.95 6.65q-20.2 15.5-29.7 28.1l-2-11 18.35-26.3 19.15-1.55-22.85-5.05-14.75 30.35-0.9-13.3 12.75-17.8-6.2-1.4 2.35-1.9 21.55 4.7 21.7-31 23.9-12.55 1.25-2.85 3.35-1.55-3.35 1.55-39.6 17.95 5.5-4.85q15.85-7.45 31.65-14.8l24.75-26.1 24.7-9.15-40 10 3.7-4.05 21.9-5.7 10.75-16.05 12.3 4.25-8.8-9.65-10.25-6.75 1.9-3.05 22.9 13.65 2.55-3.8-15.15-30.2q3.25-8.3 7.25-10m-13.75 77.1-2.8 3.3-5.65 2.55 5.65-2.55 2.8-3.3m4.55-36.95 23.7 15.4-23.7-15.4m17.15 17-17 4.2 17-4.2m-73.25 74.65-9 8.05 17-38.7-17 38.7 9-8.05m12.6-35.05-5.3 15.1 9.2-14.75 26.6-14.15q-15.25 6.85-30.5 13.8m-42.15 52.35 7.15 1.6 4.8-3.65q1.4-0.85 2.85-1.65-1.45 0.8-2.85 1.65l-4.8 3.65-7.15-1.6m-25.75-5.8 2.9 0.75-2.9-0.75" fill="#771a0d" fill-rule="evenodd"/>
<path d="m-45.5 126.2-0.1-2.55 14.75-30.35 22.85 5.05-19.15 1.55-18.35 26.3m-1-15.85-0.95-13.35 7.5-5.85 6.2 1.4-12.75 17.8m8.9-21.1 10.95-8.8 14.05-14.8 14.5-9.65 18.95-17.75 11.55-15.25 12.95-10.8 10.15-12.6 9-16.15 6.9-7.4q4.9-8.65 8.2-16.8l15.15 30.2-2.55 3.8-22.9-13.65 2.1-3.55-2.1 3.55-1.9 3.05 10.25 6.75 8.8 9.65-12.3-4.25-10.75 16.05-21.9 5.7-3.7 4.05 40-10-24.7 9.15-24.75 26.1q-15.8 7.35-31.65 14.8l-5.5 4.85 39.6-17.95-1.25 2.85-23.9 12.55-21.7 31-21.55-4.7m39.5-33.25-5.2 4.65 5.2-4.65m43.45-43.8-3.85 4.35 3.85-4.35m19.3 20-26.6 14.15-9.2 14.75 5.3-15.1q15.25-6.95 30.5-13.8" fill="#f30" fill-rule="evenodd"/>
<path d="m106.95 4.3-5.6 0.5-6.55 1.6-12.15 8.6-9.55 11.35-2.05 6.2-15.25 13.5q-18.4 20.35-34.25 35l-6 8.5-8.75 5.1-6.65 7.8-13.95 6.65q-20.2 15.5-29.7 28.1l-2-11-0.1-2.55-0.9-13.3-0.95-13.35 7.5-5.85 2.35-1.9 10.95-8.8 14.05-14.8 14.5-9.65 18.95-17.75 11.55-15.25 12.95-10.8 10.15-12.6 9-16.15 6.9-7.4q4.9-8.65 8.2-16.8 3.25-8.3 7.25-10m-17.55 30.35 2.1-3.55m6.25 13.35-10.25-6.75 1.9-3.05m-27.8 36.95-3.7 4.05 40-10 17-4.2m6.55-1.6-23.7-15.4m-13 42.8 5.65-2.55 2.8-3.3m-38.95 19.65-3.35 1.55-1.25 2.85-17 38.7 9-8.05m-24.85-20.4-5.5 4.85 39.6-17.95m10.7-31 3.85-4.35m-48.65 48.45 5.2-4.65m32.25-10q15.25-6.95 30.5-13.8m-98.4 60.35-6.2-1.4m46.75 3.5q-1.45 0.8-2.85 1.65l-4.8 3.65-7.15-1.6-22.85-5.05-14.75 30.35m14.75-30.35-2.9-0.75" fill="none" stroke="#000" stroke-linecap="round" stroke-linejoin="round" stroke-opacity=".4"/>
</g>
</defs>
</svg>
