<?xml version="1.0" encoding="UTF-8"?>
<svg version="1.1" viewBox="0 0 35.025 41.925" xmlns="http://www.w3.org/2000/svg" xmlns:cc="http://creativecommons.org/ns#" xmlns:dc="http://purl.org/dc/elements/1.1/" xmlns:rdf="http://www.w3.org/1999/02/22-rdf-syntax-ns#" xmlns:xlink="http://www.w3.org/1999/xlink">
<metadata>
<rdf:RDF>
<cc:Work rdf:about="">
<dc:format>image/svg+xml</dc:format>
<dc:type rdf:resource="http://purl.org/dc/dcmitype/StillImage"/>
</cc:Work>
</rdf:RDF>
</metadata>
<g transform="translate(-258.5 -180.38)">
<use transform="translate(258.5,180.4)" width="35" height="41.900002" xlink:href="#a"/>
</g>
<defs>
<g id="a" transform="translate(4.15,-5.8)">
<use transform="translate(-4.15,5.8)" width="35" height="41.900002" xlink:href="#b"/>
</g>
<g id="b" transform="translate(4.15,-5.8)">
<path d="m30.6 6 0.15-0.2v0.1l-0.1 0.1 0.1-0.1 0.1-0.05-0.15 0.2-0.05-0.05h-0.05" fill="#d5d5df" fill-rule="evenodd"/>
<path d="m30.6 6h0.05l0.05 0.05-4.7 5.7-0.4 0.45-0.35 0.3q-1.8 1.7-3.55 2.4-5.2 2.15-6.85 7l-2.05 4.1h-1.2l-0.45-0.35q3.1-5.6 8.4-11.05 5.45-5.6 11.05-8.6m-17.25 22.9 1.25 1-3-0.45-1-2.85 1 0.85 1.75 1.45" fill="#eff3f7" fill-rule="evenodd"/>
<path d="m8.6 29.05 2-2.45 1 2.85-3-0.4m17.4-17.3-0.65 0.8-8.75 10.65-0.3 0.4 0.75-1-0.2 0.15q-3.05 3.4-4.05 3.25l2.05-4.1q1.65-4.85 6.85-7 1.75-0.7 3.55-2.4l0.35-0.3 0.4-0.45m-5.7 5.9q0.4-1.05 0.05-1.3-0.35-0.3-1.25 0.35-0.95 0.65-1.9 1.85-1 1.2-1.45 2.2-0.45 1.05-0.1 1.35 0.35 0.25 1.3-0.35l1.9-1.85 1.45-2.25" fill="#add3d6" fill-rule="evenodd"/>
<path d="m30.7 6.05q-1.9 6.05-6.3 12.55-4.3 6.25-9.2 10.4l-0.45-0.4-0.2-1.15q1.7-1.6 3.6-2.85 4.4-2.55 5.55-8.05 0.3-1.9 1.65-4l0.65-0.8 4.7-5.7" fill="#c6dfde" fill-rule="evenodd"/>
<path d="m14.6 29.9-2 2.45-1-2.9 3 0.45m10.75-17.35q-1.35 2.1-1.65 4-1.15 5.5-5.55 8.05-1.9 1.25-3.6 2.85 0.05-1.7 2.05-4.25l8.75-10.65m-2.8 5.65q-0.35-0.3-1.25 0.35-0.95 0.65-1.95 1.85l-1.4 2.2q-0.5 1.05-0.15 1.3 0.35 0.3 1.3-0.3l1.9-1.85 1.45-2.25q0.45-1.05 0.1-1.3" fill="#63a2ad" fill-rule="evenodd"/>
<path d="m22.55 18.2q0.35 0.25-0.1 1.3l-1.45 2.25-1.9 1.85q-0.95 0.6-1.3 0.3-0.35-0.25 0.15-1.3l1.4-2.2q1-1.2 1.95-1.85 0.9-0.65 1.25-0.35" fill="#92c7c6" fill-rule="evenodd"/>
<path d="m20.3 17.65-1.45 2.25-1.9 1.85q-0.95 0.6-1.3 0.35-0.35-0.3 0.1-1.35 0.45-1 1.45-2.2 0.95-1.2 1.9-1.85 0.9-0.65 1.25-0.35 0.35 0.25-0.05 1.3" fill="#c7e2e1" fill-rule="evenodd"/>
<path d="m14.75 28.6-0.7-0.55 0.1-0.1-1.85-1.35-0.7-0.6h1.2q1 0.15 4.05-3.25l0.2-0.15-0.75 1 0.3-0.4q-2 2.55-2.05 4.25l0.2 1.15m-3.15 0.85 1 2.9-4-3.3 3 0.4" fill="#4e8a92" fill-rule="evenodd"/>
<path d="m14.05 28.05-0.7 0.85-1.75-1.45 0.7-0.85 1.85 1.35-0.1 0.1" fill="#305b61" fill-rule="evenodd"/>
<path d="m12.6 32.35 0.25 0.2 0.05 0.45q-0.8 1.7-1.75 1.5l-3.8-3.15q-0.6-1.3 0.5-2.5l0.45-0.05 0.3 0.25 4 3.3m-10.6 13.3 0.05 0.45-1.1 1.4-5-4.1q0.95-1.15 2.05-0.95l0.15 0.05 1.7 1.35 2.15 1.8" fill="#381e10" fill-rule="evenodd"/>
<path d="m11.15 34.5-1.45 1.3-1.55 1.5-0.75 0.8-1.45 1.7-0.65 0.85-1.25 1.7-0.6 0.9-1.1 1.75-0.35 0.65-2.15-1.8 0.6-0.35 0.85-0.55 0.95-0.65-0.2-0.4q-0.5-1.15-1.5-1 0.2-0.55 0.05-1.35l2.5 2.05 1.5-1.5q-0.1-0.7-0.4-1.1-0.6-0.7-1.75-0.65l0.2-1.3 2.7 2.25 1.35-1.75q-0.05-0.85-0.55-1.25-0.5-0.5-1.6-0.5l0.2-1.3 2.5 2.1 1-2-0.2-0.9q-0.35-0.75-1.5-0.5l0.25-1.25 0.55-0.6 3.8 3.15" fill="#004842" fill-rule="evenodd"/>
<path d="m-1.4 41.95q1.55-0.1 1.95-1.05 1-0.15 1.5 1l0.2 0.4-0.95 0.65-0.85 0.55-1.85-1.55m2-2.4q1.45-0.15 1.85-1.2 1.15-0.05 1.75 0.65 0.3 0.4 0.4 1.1l-1.5 1.5-2.5-2.05m2.05-2.5q1.5-0.1 1.9-1.25 1.1 0 1.6 0.5 0.5 0.4 0.55 1.25l-1.35 1.75-2.7-2.25m2.1-2.55q1.35-0.3 1.8-1.3 1.15-0.25 1.5 0.5l0.2 0.9-1 2-2.5-2.1" fill="#01897e" fill-rule="evenodd"/>
<path d="m-1.85 42.5 0.45-0.55 1.85 1.55-0.6 0.35-1.7-1.35" fill="#006563" fill-rule="evenodd"/>
<path d="m0.95 47.5-0.55 0.2-4.55-3.75 0.1-0.55 5 4.1" fill="#251310" fill-rule="evenodd"/>
<path d="m30.75 5.9v-0.1l-0.15 0.2h0.05l0.1-0.1 0.1-0.05-0.15 0.2q-1.9 6.05-6.3 12.55-4.3 6.25-9.2 10.4l-0.45-0.4-0.7-0.55-0.7 0.85 1.25 1-2 2.45-4-3.3 2-2.45 1 0.85 0.7-0.85-0.7-0.6-0.45-0.35q3.1-5.6 8.4-11.05 5.45-5.6 11.05-8.6m-19.45 28.5-1.45 1.3-1.55 1.5-0.75 0.8-1.45 1.7-0.65 0.85-1.25 1.7-0.6 0.9-1.1 1.75-0.35 0.65m-3.85-3.15 0.45-0.55q1.55-0.1 1.95-1.05 0.2-0.55 0.05-1.35 1.45-0.15 1.85-1.2l0.2-1.3q1.5-0.1 1.9-1.25l0.2-1.3q1.35-0.3 1.8-1.3l0.25-1.25 0.55-0.6m4.95-4.75 1.85 1.35-0.1 0.1m-2.45-0.6 1.75 1.45" fill="none" stroke="#000" stroke-linecap="round" stroke-linejoin="round" stroke-width=".05"/>
</g>
</defs>
</svg>
