<?xml version="1.0" encoding="UTF-8"?>
<svg version="1.1" viewBox="0 0 80.3 92" xmlns="http://www.w3.org/2000/svg" xmlns:cc="http://creativecommons.org/ns#" xmlns:dc="http://purl.org/dc/elements/1.1/" xmlns:rdf="http://www.w3.org/1999/02/22-rdf-syntax-ns#" xmlns:xlink="http://www.w3.org/1999/xlink">
<metadata>
<rdf:RDF>
<cc:Work rdf:about="">
<dc:format>image/svg+xml</dc:format>
<dc:type rdf:resource="http://purl.org/dc/dcmitype/StillImage"/>
</cc:Work>
</rdf:RDF>
</metadata>
<g transform="translate(-234.75 -154.6)">
<use transform="translate(234.75,154.6)" width="80.300003" height="92" xlink:href="#a"/>
</g>
<defs>
<g id="a" transform="translate(-234.75,-154.6)">
<path d="m239.45 239-4.2-3.55 4.05-4.35 0.9 0.9 2.85 2.8-3.6 4.2m29.6-42.05q0.15-0.25 0.1 0.05 7.3-2.05 29.3-24.8l0.15-0.15 11.45-12.3 4.4-4.8 0.2-0.05-0.1 0.75-14.75 16.2 0.2-0.3-0.6 0.75q-23.2 27.8-19.95 33l-10.4-8.1v-0.25" fill="#fc0" fill-rule="evenodd"/>
<path d="m249.4 240.95 1.4 1.4-3.05 3.75-8.3-7.1 3.6-4.2 6.35 6.15m32.1-37.55-2 1.9h-0.05v0.05l-0.1 0.05-4.65 0.6 0.55 4.1-7.15-4.5-3.05-1.95 4.4-1.65-0.4-4.8 10.4 8.1q-3.25-5.2 19.95-33l0.6-0.75-0.2 0.3q-15.35 21.5-18.3 31.55" fill="#bf9900" fill-rule="evenodd"/>
<path d="m269.15 197q26.2-37.55 45.2-42l-4.3 4.75-11.45 12.3-0.15 0.15q-22 22.75-29.3 24.8m16.5-15.75q0.65 0.65 3.55-1.6 2.95-2.2 6.4-5.95 3.4-3.75 5.35-6.9 1.95-3.1 1.25-3.75-0.7-0.6-3.6 1.6-2.95 2.2-6.35 6-3.45 3.75-5.4 6.85-1.9 3.15-1.2 3.75" fill="#fd5" fill-rule="evenodd"/>
<path d="m314.55 155.65q-2.45 18.7-33.05 47.75 2.95-10.05 18.3-31.55l14.75-16.2m-22.05 31.2q0.7 0.55 3.45-1.85 2.8-2.4 5.95-6.4 3.15-4.05 4.85-7.3t1-3.8q-0.75-0.6-3.55 1.85-2.75 2.4-5.9 6.4t-4.85 7.25-0.95 3.85" fill="#e1b500" fill-rule="evenodd"/>
<path d="m256.1 219.55 5.5-6.35 7.65 6.25q-1.85 4.7-5.45 5.9l-7.7-5.8m-7.85 9.2 4.05-4.75 7 6.25q-0.95 2.6-4.6 5l-6.45-6.5m27-18.65 1.7 1.05q-0.6 2.2-2.7 2.9l-8.75-5.45 2.6-3 7.15 4.5" fill="#b71f09" fill-rule="evenodd"/>
<path d="m252.3 224 3.8-4.45 7.7 5.8q-4.5-0.3-4.5 4.9l-7-6.25m16.95-4.55-7.65-6.25 3.9-4.6 8.75 5.45q-5.45 0.1-5 5.4m-21 9.3 6.45 6.5q-5.05 1.1-5.3 5.7l-6.35-6.15 5.2-6.05" fill="#9c1b07" fill-rule="evenodd"/>
<path d="m252.5 216.8 3.6 2.75-3.8 4.45-3.25-2.95 3.45-4.25m9.1-3.6-3.7-3.05 3.4-4.15 4.2 2.6-3.9 4.6m-21.4 18.8 5.05-6.25 3 3-5.2 6.05-2.85-2.8" fill="#861606" fill-rule="evenodd"/>
<path d="m256.1 219.55-3.6-2.75 5.4-6.65 3.7 3.05-5.5 6.35m-7.05 1.5 3.25 2.95-4.05 4.75-3-3 3.8-4.7m16.45-12.45-4.2-2.6 2.5-3.1 1.25 0.75 3.05 1.95-2.6 3" fill="#e1250b" fill-rule="evenodd"/>
<path d="m240.2 232 2.85 2.8 6.35 6.15m19.65-43.75-0.1-0.1m45.4-42.1 0.2-0.2-0.1 0.15m-34.95 50.35 0.1 0.1h-0.25m-10.3-8.2v-0.25m10.4 8.35h0.05m-0.05 0.05-0.05 0.05m0.05-0.05v-0.05l-10.4-8.1m-4 6.45 3.05 1.95 7.15 4.5" fill="none" stroke="#000" stroke-linecap="round" stroke-linejoin="round" stroke-opacity=".6" stroke-width=".4"/>
<path d="m268.95 197.1 0.1-0.15q0.15-0.25 0.1 0.05 26.2-37.55 45.2-42l0.1-0.05 0.2-0.05-0.1 0.75m-35.05 49.65-0.05 0.05-0.1 0.05" fill="none" stroke="#000" stroke-linecap="round" stroke-linejoin="round" stroke-opacity=".6" stroke-width=".4"/>
<path d="m257.9 210.15-5.4 6.65-3.45 4.25m14.75 4.3q3.6-1.2 5.45-5.9m-7.95-13.45-3.4 4.15m-3.2 25.1q3.65-2.4 4.6-5m-19.1 1.75 5.05-6.25 3.8-4.7m-9.6 17.95-4.2-3.55 4.05-4.35 0.9 0.9m9.2 8.95 1.4 1.4-3.05 3.75-8.3-7.1m9.95 1.95q0.25-4.6 5.3-5.7m59.85-79.6q-2.45 18.7-33.05 47.75l-2 1.9m-0.15 0.1-4.65 0.6 0.55 4.1 1.7 1.05q-0.6 2.2-2.7 2.9-5.45 0.1-5 5.4m23.25-32.6q-0.75-0.6 0.95-3.85t4.85-7.25 5.9-6.4q2.8-2.45 3.55-1.85 0.7 0.55-1 3.8t-4.85 7.3q-3.15 4-5.95 6.4-2.75 2.4-3.45 1.85m-6.85-5.6q-0.7-0.6 1.2-3.75 1.95-3.1 5.4-6.85 3.4-3.8 6.35-6 2.9-2.2 3.6-1.6 0.7 0.65-1.25 3.75-1.95 3.15-5.35 6.9-3.45 3.75-6.4 5.95-2.9 2.25-3.55 1.6m-16.6 15.95 0.4 4.8-4.4 1.65m-3.75 2.35 2.5-3.1 1.25 0.75m-1.25 21.7q-4.5-0.3-4.5 4.9" fill="none" stroke="#000" stroke-linecap="round" stroke-linejoin="round" stroke-opacity=".6"/>
<path d="m296.4 171.85q-1.75-6.3-0.9-10.75 0.8-4.05 3.5-5.55 0.9-0.55 1.9-0.7h1.6q1 0.15 2 0.6 3.15 1.45 5.35 5.45 3.55 6.5 2.7 17.3l-1.15 9.4q-1.05 6.75-1.35 9.45 9.4 23.75-8.9 41.65m1.95-19.9q6.45-9.85 6.95-21.75-0.4-1.15-2.15-3.5l-3.7-5.05q-4.05-5.95-6.4-12.35" fill="none" stroke="#fee57f" stroke-linecap="round" stroke-linejoin="round" stroke-width=".4"/>
</g>
</defs>
</svg>
