<?xml version="1.0" encoding="UTF-8"?>
<svg version="1.1" viewBox="0 0 47.371 51.332" xmlns="http://www.w3.org/2000/svg" xmlns:cc="http://creativecommons.org/ns#" xmlns:dc="http://purl.org/dc/elements/1.1/" xmlns:rdf="http://www.w3.org/1999/02/22-rdf-syntax-ns#" xmlns:xlink="http://www.w3.org/1999/xlink">
<metadata>
<rdf:RDF>
<cc:Work rdf:about="">
<dc:format>image/svg+xml</dc:format>
<dc:type rdf:resource="http://purl.org/dc/dcmitype/StillImage"/>
</cc:Work>
</rdf:RDF>
</metadata>
<g transform="translate(-251.32 -174.74)">
<use transform="matrix(.6304 0 0 .6304 251.35 174.74)" width="75.099998" height="81.400002" xlink:href="#a"/>
</g>
<defs>
<g id="a" transform="translate(0 .25)">
<path d="m36.15 45.3-0.15 0.15-0.1 0.05-0.2 0.15-0.1 0.05-0.15 0.1h-0.05l-0.25 0.1q-4.35 1.9-7.5-0.5l-0.9-0.8q-0.7-0.7-0.15-1.55 1.5-2.25 4.3-2.25 3.95-1.2 5.5 1.85 0.5 1 0.35 1.75l-0.4 0.7-0.2 0.2" fill="#a79e76" fill-rule="evenodd"/>
<path d="m16.15 59.4q2.75 1.9 7.45 0l-14.7 16.35-0.25 0.25-1.9-0.35q-1.5-0.6-2.25-1.95l-0.45-1.1 12.1-13.2" fill="#da5e14" fill-rule="evenodd"/>
<path d="m32.5 41.55 5.55 1.8-14.45 16.05q-4.7 1.9-7.45 0l16.35-17.85m-29.75 32.5 1.3-1.45 0.45 1.1q0.75 1.35 2.25 1.95l1.9 0.35-0.15 0.15-1.85 2.1-1 1.5-1.35 0.2q-1.15-0.3-2-1.25l-0.6-0.9-0.2-0.55-0.2-0.8q-0.05-0.6 0.35-1.45l0.9-0.7 0.2-0.25" fill="#95410f" fill-rule="evenodd"/>
<path d="m6.65 78.25 0.15 0.75q0.05 1.2-0.75 1.75-0.85 0.55-2.2 0.35-1.4-0.2-2.35-1.2-1-1-1.3-1.95l-0.15-0.85-0.05-0.2q-0.15-1.6 0.85-2.4 0.4-0.4 1-0.5l0.9 0.05-0.2 0.25-0.9 0.7q-0.4 0.85-0.35 1.45l0.2 0.8 0.2 0.55 0.6 0.9q0.85 0.95 2 1.25l1.35-0.2 1-1.5" fill="#de941e" fill-rule="evenodd"/>
<path d="m32.5 41.55-16.35 17.85m7.45 0 14.45-16.05m-35.3 30.7 1.3-1.45 12.1-13.2m-13.4 14.65-0.9-0.05q-0.6 0.1-1 0.5-1 0.8-0.85 2.4l0.05 0.2 0.15 0.85q0.3 0.95 1.3 1.95 0.95 1 2.35 1.2 1.35 0.2 2.2-0.35 0.8-0.55 0.75-1.75l-0.15-0.75-1 1.5-1.35 0.2q-1.15-0.3-2-1.25l-0.6-0.9-0.2-0.55-0.2-0.8q-0.05-0.6 0.35-1.45l0.9-0.7 0.2-0.25m6.15 1.7 14.7-16.35m-15.1 16.75-1.85 2.1" fill="none" stroke="#54483a" stroke-linecap="round" stroke-linejoin="round" stroke-opacity=".70196" stroke-width=".05"/>
<path d="m11.15 64.25 1-1q-0.35 0.55 0.1 1.5 0.5 0.95 1.6 1.8 1.15 0.8 2.25 0.85h0.5l-1.05 0.6-2.45 0.4 1.55 0.6-1.45 1.7q-2.6-1.9-2.55-2.4-0.05-0.7 1.75 0.6-2-2.55-1.55-3.55l0.3-1.1m-7.6 14.75-0.4-0.2q-1.1-0.85-1.6-1.85-0.45-0.95-0.3-1.65l1.35-1.7q0.75 2.7 2.2 5.2l-1.25 0.2m1.7-8.6 0.1-0.1 0.2 0.6 0.7 0.95 0.2-1q0.4-1.7 0.7-2.05l1 1.35q0.4 0.55-0.1 1.9l0.55-1.75 0.5 0.05 2.2 1.4-2.15 0.5 0.9 0.1q0.35 0.05 0.75 0.85 0.3 0.85-4.4 0.65l2.8 1.55 0.15 0.75-4.5 0.1 1.65 1.35 0.65 0.7-2.3 0.5q-0.85-3.45-0.45-5.45 0.4-2.15 1-2.3l-0.15-0.65m3.25-3.55 0.1-0.15 0.05 1.15 1.9 2.45-1.45 0.05-0.1-0.1h-0.4q0.35-1.5-0.2-2.55h-0.05l0.15-0.85" fill="#4d433a" fill-rule="evenodd"/>
<path d="m2.6 73.6 2.65-3.2 0.15 0.65q-0.6 0.15-1 2.3-0.4 2 0.45 5.45h-0.05q-1.45-2.5-2.2-5.2m2.75-3.3 3.15-3.45-0.15 0.85h0.05q0.55 1.05 0.2 2.55h-0.1l0.1 0.05-0.55 1.75q0.5-1.35 0.1-1.9l-1-1.35q-0.3 0.35-0.7 2.05l-0.2 1-0.7-0.95-0.2-0.6m3.25-3.6 2.55-2.45-0.3 1.1q-0.45 1 1.55 3.55-1.8-1.3-1.75-0.6-0.05 0.5 2.55 2.4l-2.65-0.4-1.9-2.45-0.05-1.15" fill="#5c5047" fill-rule="evenodd"/>
<path d="m16.6 67.4 0.6-0.2-1.9 3-0.45 0.7-0.6 0.85q-2.4 3.05-7.7 7.75l-1.15 0.1q-0.9-0.1-1.85-0.6l1.25-0.2h0.05l2.3-0.5-0.65-0.7-1.65-1.35 4.5-0.1-0.15-0.75-2.8-1.55q4.7 0.2 4.4-0.65-0.4-0.8-0.75-0.85l-0.9-0.1 2.15-0.5-2.2-1.4-0.5-0.05-0.1-0.05h0.5l0.1 0.1 1.45-0.05 2.65 0.4 1.45-1.7-1.55-0.6 2.45-0.4 1.05-0.6" fill="#362f29" fill-rule="evenodd"/>
<path d="m11.15 64.25 1-1q-0.35 0.55 0.1 1.5 0.5 0.95 1.6 1.8 1.15 0.8 2.25 0.85h0.5l0.6-0.2-1.9 3-0.45 0.7-0.6 0.85q-2.4 3.05-7.7 7.75l-1.15 0.1q-0.9-0.1-1.85-0.6l-0.4-0.2q-1.1-0.85-1.6-1.85-0.45-0.95-0.3-1.65l1.35-1.7 2.65-3.2 0.1-0.1 3.15-3.45 0.1-0.15z" fill="none" stroke="#000" stroke-linecap="round" stroke-linejoin="round" stroke-width=".05"/>
<path d="m45.15 19.15q0.35-0.2 0.95-0.25l5.65 0.6 0.2 0.1q4.35-0.5 3.45 2.95-0.3 1.15-1.5 1.2l-3.1-0.15-0.75-0.55-4.9-3.9m-12.45-18.95 3.05 9.1-1.4 6.1-1.2 1.45-5.1 6.1-0.05 0.05-12.4 14.7-4.05 0.7-2.9-8.55 1.15-4.85 20.85-24.5 2.05-0.3m13.4 58.3-0.2 0.25-14.3-11.4 0.4 0.25 0.35-0.05q1.25-0.25 2.05-1.1 3.35-3.55-1.7-4.85l-3.15 0.45q-1.4 0.3-1.7 1.6l-0.1 0.6-0.85-0.7 5.35-6.4 8.25 6.6 0.25-0.25 5.35 15" fill="#b3ae88" fill-rule="evenodd"/>
<path d="m39.25 14.5 0.3-0.1-3.7-5.15-0.1 0.05-3.05-9.1 1.2-0.2 17.25 13.6 0.2 0.1 16.7 13.15 3.4 4.8 2.7 8.8-1 0.85-15.85-12.65-6.5-5.05 3.1 0.15q1.2-0.05 1.5-1.2 0.9-3.45-3.45-2.95l-0.2-0.1-5.65-0.6q-0.6 0.05-0.95 0.25l-2.25-1.75h0.05l-1-0.75q-0.95-0.8-1.9-1.5l-0.8-0.65m16.7 13.05 1.35 1.1-0.5-0.4-0.8-0.65v-0.1l-0.05 0.05m-20.65-19.7 8.7 1.5q-7.2-1.75-9.15-2.85l0.45 1.35" fill="#cbcaad" fill-rule="evenodd"/>
<path d="m35.75 9.3 0.1-0.05 3.7 5.15-0.3 0.1-4.95 1.15v-0.05l2.55-3v-0.1l-0.05 0.05-2.45 2.85 1.4-6.1m37.4 32 1-0.85 0.7 2.25-1.45 1.7-0.4-3 0.15-0.1m-57.55-3.6-2.55 3-1.5-2.2v-0.1l4.05-0.7m0.2-0.05 0.1 0.05-1 5.7-0.15-0.15-1.6-2.4 2.65-3.2" fill="#dddbcc" fill-rule="evenodd"/>
<path d="m55.95 27.55 0.05-0.05v0.1l-0.05-0.05m-19.15-15 0.05-0.05v0.1l-0.05-0.05m-8.75 10.4v0.1l-0.05-0.05 0.05-0.05" fill="#ae9e99" fill-rule="evenodd"/>
<path d="m41.95 16.65 1 0.75h-0.05l-6.15 1.65q4.15-1.25 5.2-2.4m-6.65-8.8-0.45-1.35q1.95 1.1 9.15 2.85l-8.7-1.5m-10.4 18.95q-0.9 1.2-1.55 8.35 0.3-4.75-0.15-6.3l1.7-2.05m30.55 39.05q0.1-4.45-1-8.75 1.85 4.2 2.2 7.3l-0.2 0.25-1 1.2m-4.6-34 10.55 8.5-15.3 18.15-5.35-15 10.1-11.65m-19.25 15.5-3.85-3.1 0.1-0.6q0.3-1.3 1.7-1.6l3.15-0.45q5.05 1.3 1.7 4.85-0.8 0.85-2.05 1.1l-0.35 0.05-0.4-0.25" fill="#a79e76" fill-rule="evenodd"/>
<path d="m39.25 14.5 0.8 0.65q0.95 0.7 1.9 1.5-1.05 1.15-5.2 2.4l6.15-1.65 2.25 1.75 4.9 3.9 0.75 0.55 6.5 5.05 15.85 12.65-0.15 0.1 0.4 3-16.95 20.25 0.2-0.25q-0.35-3.1-2.2-7.3 1.1 4.3 1 8.75l-3.85 4.6-2.55 0.15-34.15-27.2 1-5.7-0.1-0.05 7.4-8.8q0.45 1.55 0.15 6.3 0.65-7.15 1.55-8.35l3.15-3.75 5.2-6.15 1.05-1.25v-0.05 0.05l4.95-1.15m18.05 14.15 0.3 0.25-0.3-0.25m-6.45 3.2-8.45-6.75-10.15 12.05-5.35 6.4 0.85 0.7 3.85 3.1 14.3 11.4 0.2-0.25 15.3-18.15-10.55-8.5" fill="#c2bfa3" fill-rule="evenodd"/>
<path d="m33.15 16.85 0.1 0.05-5.2 6.15v-0.1l5.1-6.1m24.15 11.8 0.3 0.25-0.3-0.25" fill="#ccc" fill-rule="evenodd"/>
<path d="m56.8 28.25 0.5 0.4-0.5-0.4" fill="#acacac" fill-rule="evenodd"/>
<path d="m74.15 40.45-2.7-8.8-3.4-4.8-16.7-13.15-0.2-0.1-17.25-13.6-1.2 0.2m-21.15 38.2-2.9-8.55 1.15-4.85 20.85-24.5 2.05-0.3m-19.65 40.5-1.5-2.2v-0.1m3.35 5 34.15 27.2 2.55-0.15 3.85-4.6m1-1.2 16.95-20.25m-41.15-7.25 10.15-12.05 8.45 6.75m-18.6 5.3 8.25 6.6 0.25-0.25 10.1-11.65m-35.95 11.55-0.15-0.15-1.6-2.4m61-0.4 0.7 2.25-1.45 1.7m-16.95 20.25-1 1.2" fill="none" stroke="#694634" stroke-linecap="round" stroke-linejoin="round" stroke-width=".5"/>
<path d="m49.3 30.35-12.6 14.6q-4.35 1.2-4.55-2.8l12.9-15 4.25 3.2" fill="#95410f" fill-rule="evenodd"/>
<path d="m49.3 30.35-12.6 14.6m-4.55-2.8 12.9-15" fill="none" stroke="#54483a" stroke-linecap="round" stroke-linejoin="round" stroke-opacity=".70196" stroke-width=".05"/>
<path d="m39.8 26.6h-0.05l-1.25 0.35-0.05-0.05 2.15-0.7-0.8 0.4m6.6 1.3 0.85 0.45-0.65-0.3-0.2-0.15" fill="#6a5a40" fill-rule="evenodd"/>
<path d="m40.6 26.2 1.05-0.55 0.25-0.35 1.4 0.2q1.55 1.15 3.1 2.4l0.2 0.15-4.55-1.95-2.25 0.5 0.8-0.4" fill="#948f61" fill-rule="evenodd"/>
<path d="m39.8 26.6h-0.05l-1.25 0.35m-0.05-0.05 2.15-0.7 1.05-0.55 0.25-0.35 1.4 0.2q1.55 1.15 3.1 2.4l0.85 0.45 0.5 0.3m-1.15-0.6-4.55-1.95-2.25 0.5 0.8-0.4m6 1.85-0.2-0.15m0.85 0.45-0.65-0.3" fill="none" stroke="#0b0a16" stroke-linecap="round" stroke-linejoin="round" stroke-opacity=".30196" stroke-width=".5"/>
<path d="m28.5 44.95-0.05 0.1-0.55-1.15 0.35 0.35v0.05l0.25 0.65m1.15-5.3 0.45-0.65-0.25 0.5-0.2 0.15" fill="#6a5a40" fill-rule="evenodd"/>
<path d="m27.9 43.9-0.4-0.45-0.3-0.1 0.2-0.9 2.25-2.8 0.2-0.15-1.95 3.5 0.35 1.25-0.35-0.35" fill="#948f61" fill-rule="evenodd"/>
<path d="m28.45 45.05-0.55-1.15-0.4-0.45-0.3-0.1 0.2-0.9 2.25-2.8 0.45-0.65 0.3-0.45m-2.15 5.7v0.05l0.25 0.65m1.35-5.45-0.2 0.15m0.2-0.15-1.95 3.5 0.35 1.25-0.35-0.35m2.2-4.9-0.25 0.5" fill="none" stroke="#0b0a16" stroke-linecap="round" stroke-linejoin="round" stroke-opacity=".30196" stroke-width=".5"/>
<path d="m37.2 44.8-0.2 0.65q-0.45 0.5-1.4 0.3-1-0.25-1.95-1.05t-1.3-1.75q-0.35-0.9 0.1-1.4 0.2-0.3 0.6-0.35" fill="none" stroke="#000" stroke-linecap="round" stroke-linejoin="round"/>
<path d="m55.4 22.1-0.2 0.65q-0.45 0.5-1.4 0.3-1-0.25-1.95-1.05t-1.3-1.75q-0.35-0.9 0.1-1.4 0.2-0.3 0.6-0.35" fill="none" stroke="#000" stroke-linecap="round" stroke-linejoin="round"/>
<path d="m51.7 16.65v-0.05 0.05m-0.45 0.95 0.1 0.05 0.05 0.45-0.15-0.5m4 4.5 0.3 0.1 0.85 0.05 0.45-0.05v0.1l-0.35 0.05-1.05-0.15-0.2-0.1" fill="#f4b940" fill-rule="evenodd"/>
<path d="m51.7 16.6 0.1-0.1 2.3-0.1q1.3 0.5 2.45 1.65 1.1 1.1 1.4 2.3v0.95l-0.6 0.75-0.4 0.25h-0.1v-0.1l-0.45 0.05-0.85-0.05-0.3-0.1h-0.2l-0.15-0.15-0.7-0.5-0.2-0.05-0.1-0.1-0.95-0.75-0.35-0.35q-1.05-1.15-1.15-1.7l-0.05-0.4-0.05-0.45-0.1-0.05 0.1-0.6 0.05-0.05 0.1-0.15 0.2-0.15v-0.05m1.25 0.4q-0.4 0.35-0.1 1.15l1.2 1.55q0.85 0.75 1.75 1.05l1.3-0.05q0.35-0.35 0.05-1.15t-1.15-1.55-1.75-1.05l-1.3 0.05" fill="#4d433a" fill-rule="evenodd"/>
<path d="m56.95 22.3-0.05 0.3-0.4 0.55-2.05-0.15-0.05-0.05q-1.35-0.55-2.5-1.7l-1.2-1.6-0.3-0.65-0.05-0.2q-0.4-1.2 0.25-1.6 0.3-0.25 0.75-0.2l-0.1 0.6 0.15 0.5 0.05 0.4q0.1 0.55 1.15 1.7l0.35 0.35 0.95 0.75 0.1 0.1 0.2 0.05 0.7 0.5 0.15 0.15h0.2l0.2 0.1 1.05 0.15 0.35-0.05h0.1m-4-5.3 1.3-0.05q0.9 0.3 1.75 1.05t1.15 1.55-0.05 1.15l-1.3 0.05q-0.9-0.3-1.75-1.05l-1.2-1.55q-0.3-0.8 0.1-1.15" fill="#7e6c61" fill-rule="evenodd"/>
<path d="m51.7 16.6 0.1-0.1 2.3-0.1q1.3 0.5 2.45 1.65 1.1 1.1 1.4 2.3v0.95l-0.6 0.75-0.4 0.25-0.05 0.3-0.4 0.55-2.05-0.15-0.05-0.05q-1.35-0.55-2.5-1.7l-1.2-1.6-0.3-0.65-0.05-0.2q-0.4-1.2 0.25-1.6 0.3-0.25 0.75-0.2l0.05-0.05 0.1-0.15 0.2-0.15v-0.05m-0.45 1 0.1-0.6m5.5 5.3h0.1m-5.55-4.2-0.15-0.5m1.7-0.6 1.3-0.05q0.9 0.3 1.75 1.05t1.15 1.55-0.05 1.15l-1.3 0.05q-0.9-0.3-1.75-1.05l-1.2-1.55q-0.3-0.8 0.1-1.15m3.9 5.3-0.35 0.05-1.05-0.15-0.2-0.1" fill="none" stroke="#54483a" stroke-linecap="round" stroke-linejoin="round" stroke-opacity=".70196" stroke-width=".05"/>
</g>
</defs>
</svg>
