<?xml version="1.0" encoding="UTF-8"?>
<svg version="1.1" viewBox="0 0 86.208 83.697" xmlns="http://www.w3.org/2000/svg" xmlns:cc="http://creativecommons.org/ns#" xmlns:dc="http://purl.org/dc/elements/1.1/" xmlns:rdf="http://www.w3.org/1999/02/22-rdf-syntax-ns#" xmlns:xlink="http://www.w3.org/1999/xlink">
<metadata>
<rdf:RDF>
<cc:Work rdf:about="">
<dc:format>image/svg+xml</dc:format>
<dc:type rdf:resource="http://purl.org/dc/dcmitype/StillImage"/>
</cc:Work>
</rdf:RDF>
</metadata>
<g transform="translate(-231.87 -158.62)">
<use transform="translate(231.9,158.65)" width="86.150002" height="83.650002" xlink:href="#a"/>
</g>
<defs>
<g id="a" transform="translate(-231.9,-158.65)">
<path d="m306.15 170.65q7.1 8.6 7.1 20.25 0 8.55-3.85 15.5 1.7-6.2 2-12.2 0.75-13.4-5.25-23.55m-18.3 40.2q-15.4-5.25-25.6-21.65-0.3-4.1 0.9-8.15l5.7-0.35q7.9 0.7 14 6.8 6.05 6.05 6.7 13.9 0.5 5.35-1.7 9.45m7.3 1.8q1.5-4.55 1-10-0.9-10.9-9.35-19.35-8.2-8.2-18.7-9.4 1.7-1.7 3.65-3.1 5.85-4.25 13.75-5.8 6.55 2.25 11.6 7.5 8.6 9 7.85 22.4-0.45 8.9-5.1 18.25l-4.1-0.4-0.6-0.1" fill="#f4f3f2" fill-rule="evenodd"/>
<path d="m296.25 219.4q-2 1.1-4.1 1.85l-2.85 0.9-1.15 0.25 1.95-1.75q3.5-3.5 5.05-8l0.6 0.1 4.1 0.4-3.6 6.25m-45-41.1q0.75-1.85 1.75-3.55 0.9-1.6 2.05-3.05l0.85-1.1q9.2-7.75 21.1-7.2 4.5 0.25 8.5 1.6-7.9 1.55-13.75 5.8-1.95 1.4-3.65 3.1l-0.75-0.05q-9.55-0.8-16.1 4.45m11.9 2.75q-1.2 4.05-0.9 8.15 10.2 16.4 25.6 21.65-1.05 1.9-2.65 3.5-5.05 5.05-12.95 4.35-7.85-0.65-13.9-6.7-6.1-6.1-6.8-14-0.7-7.85 4.4-12.9 3.05-3.1 7.2-4.05" fill="#d3cfcb" fill-rule="evenodd"/>
<path d="m309.4 206.4q-2 3.6-5.05 6.75l-0.1 0.15-4.4-0.15q4.65-9.35 5.1-18.25 0.75-13.4-7.85-22.4-5.05-5.25-11.6-7.5 6.2-1.25 13.65-0.8 2.45 1.65 4.7 3.9l2.3 2.55q6 10.15 5.25 23.55-0.3 6-2 12.2m-46.25-25.35 0.65-1.9q1.95-2.9 4.3-5.25 10.5 1.2 18.7 9.4 8.45 8.45 9.35 19.35 0.5 5.45-1 10-3.8-0.65-7.3-1.8 2.2-4.1 1.7-9.45-0.65-7.85-6.7-13.9-6.1-6.1-14-6.8l-5.7 0.35" fill="#4b636b" fill-rule="evenodd"/>
<path d="m304.25 213.3-0.4 0.4q-3.55 3.5-7.6 5.7l3.6-6.25 4.4 0.15m-16.1 9.1-7.1 0.7q-13.4 0-22.85-9.4l-3.1-3.6q-6.3-8.3-6.3-19.2 0-6.8 2.45-12.6 6.55-5.25 16.1-4.45l0.75 0.05q-2.35 2.35-4.3 5.25l-0.65 1.9q-4.15 0.95-7.2 4.05-5.1 5.05-4.4 12.9 0.7 7.9 6.8 14 6.05 6.05 13.9 6.7 7.9 0.7 12.95-4.35 1.6-1.6 2.65-3.5 3.5 1.15 7.3 1.8-1.55 4.5-5.05 8l-1.95 1.75m-32.25-51.8 2.3-2.5q9.45-9.45 22.85-9.45 10.2 0 18.1 5.55-7.45-0.45-13.65 0.8-4-1.35-8.5-1.6-11.9-0.55-21.1 7.2" fill="#2c3a3f" fill-rule="evenodd"/>
<path d="m306.15 170.65q7.1 8.6 7.1 20.25 0 8.55-3.85 15.5-2 3.6-5.05 6.75m-0.1 0.15-0.4 0.4q-3.55 3.5-7.6 5.7-2 1.1-4.1 1.85l-2.85 0.9-1.15 0.25-7.1 0.7q-13.4 0-22.85-9.4l-3.1-3.6q-6.3-8.3-6.3-19.2 0-6.8 2.45-12.6 0.75-1.85 1.75-3.55 0.9-1.6 2.05-3.05m0.85-1.1 2.3-2.5q9.45-9.45 22.85-9.45 10.2 0 18.1 5.55 2.45 1.65 4.7 3.9l2.3 2.55z" fill="none" stroke="#322b27" stroke-linecap="round" stroke-linejoin="round" stroke-width=".05"/>
<path d="m308.35 190q5.9-3.4 8.4-0.9t0.2 9.5q-2.4 6.85-8.25 14.1-5.8 7.25-11.7 10.65-5.95 3.3-8.45 0.8-2.55-2.55-0.15-9.4 2.3-7 8.15-14.2 5.8-7.25 11.8-10.55m5.25 2.55q-14.95 10.25-20.75 26.95 5.8-16.7 20.75-26.95" fill="#4b636b" fill-rule="evenodd"/>
<path d="m308.35 190q-6 3.3-11.8 10.55-5.85 7.2-8.15 14.2-2.4 6.85 0.15 9.4 2.5 2.5 8.45-0.8 5.9-3.4 11.7-10.65 5.85-7.25 8.25-14.1 2.3-7-0.2-9.5t-8.4 0.9" fill="none" stroke="#322b27" stroke-linecap="round" stroke-linejoin="round" stroke-width=".05"/>
<path d="m292.85 219.5q5.8-16.7 20.75-26.95" fill="none" stroke="#85a0a9" stroke-linecap="round" stroke-linejoin="round" stroke-width=".05"/>
<path d="m301.7 188.3q-2.8-2.25-4.3-6.3-1.55-4.05-0.95-7.55 0.5-3.5 2.95-4.4 2.4-0.95 5.2 1.3 2.65 2.25 4.2 6.35 1.55 4.05 1 7.5-0.6 3.5-3 4.45-2.4 0.9-5.1-1.35" fill="#f9f8f8" fill-opacity=".6" fill-rule="evenodd"/>
<path d="m250.55 216.6q5.5-2.05 12.55 2.25-10.3 12.4-21.6 23.1 0.9-3.8-2.15-7.3-3.2-3.5-7.1-3.15 9.55-6.8 18.3-14.9" fill="#8b5143" fill-rule="evenodd"/>
<path d="m241.5 241.95q-2.6 1.35-6.55-2.55-4.1-4.15-2.7-7.9 3.9-0.35 7.1 3.15 3.05 3.5 2.15 7.3" fill="#bb7c5b" fill-rule="evenodd"/>
<path d="m250.55 216.6q5.45-5.1 10.65-10.75 5.15 1.1 6.85 6.85l-4.95 6.15q-7.05-4.3-12.55-2.25" fill="#6d3d36" fill-rule="evenodd"/>
<path d="m268.05 212.7q-1.7-5.75-6.85-6.85-5.2 5.65-10.65 10.75m-9.05 25.35q-2.6 1.35-6.55-2.55-4.1-4.15-2.7-7.9 9.55-6.8 18.3-14.9" fill="none" stroke="#322b27" stroke-linecap="round" stroke-linejoin="round" stroke-width=".05"/>
<path d="m263.1 218.85 4.95-6.15m-26.55 29.25q11.3-10.7 21.6-23.1" fill="none" stroke="#c76d01" stroke-linecap="round" stroke-linejoin="round" stroke-width=".05"/>
</g>
</defs>
</svg>
