<?xml version="1.0" encoding="UTF-8"?>
<svg version="1.1" viewBox="0 0 35.352 43.351" xmlns="http://www.w3.org/2000/svg" xmlns:cc="http://creativecommons.org/ns#" xmlns:dc="http://purl.org/dc/elements/1.1/" xmlns:rdf="http://www.w3.org/1999/02/22-rdf-syntax-ns#" xmlns:xlink="http://www.w3.org/1999/xlink">
<metadata>
<rdf:RDF>
<cc:Work rdf:about="">
<dc:format>image/svg+xml</dc:format>
<dc:type rdf:resource="http://purl.org/dc/dcmitype/StillImage"/>
</cc:Work>
</rdf:RDF>
</metadata>
<g transform="translate(-257.3 -178.8)">
<use transform="translate(257.3,178.8)" width="35.400002" height="43.349998" xlink:href="#a"/>
</g>
<defs>
<g id="a" transform="translate(-257.3,-178.8)">
<path d="m282.1 200.1 0.35 0.45 0.45 0.35-0.05-0.1-0.15-0.15-0.2-0.1h-0.05l-0.1-0.1-0.25-0.35-0.1-0.45-1.9-0.85-0.2-0.1-0.3-0.2-0.15-0.05-0.25-0.15-4.4 6.4 0.15 0.6-9.6 14q-1.2 1.65-3 2.15-1.75 0.55-3.05-0.35-1.35-0.95-1.5-2.75-0.05-1.8 1.2-3.45l0.25-0.4 10-13.2h0.7l4.65-6.1-0.3-0.3-0.15-0.1-1.2-1.1-0.3-0.3h-0.05l-0.1-0.1-1.3-1.4-0.7-0.2h-0.1l-0.05-0.1-0.15-0.15-0.2-0.1h-0.05l-0.1-0.1q-0.75-0.75-0.15-2.75 0.65-2.15 2.45-4.6l0.4-0.5q1.65-2.15 3.35-3.3 1.85-1.25 2.75-0.55l0.25 0.2 0.2 0.15 0.55 0.85 1.8 1.05 0.4 0.2 1.9 1.2 0.1-0.15 0.05-0.1 0.1-0.1q0.25-0.15 0.85 0 0.7 0.2 1.5 0.75l1.3 1.25 0.3 0.75v-0.05l-0.05 0.2-0.15 0.1-0.2 0.35 0.45 0.4 0.35 0.35 1.65 1.6 1 0.1 0.15 0.1 0.2 0.15 0.1 0.1 0.2 0.1 0.2 0.15 0.3 0.75-0.05 1.3-0.15 0.65-0.1 0.15q-0.55 1.9-2 4.05l-0.4 0.5q-1.75 2.35-3.6 3.6l-0.1 0.05-0.6 0.4q-0.8 0.4-1.45 0.4l-0.7-0.2h-0.1m0.95-17.85 0.15-0.2m7.45 6.15 0.4 0.25m-0.5-0.35 0.1 0.1m-12 9.45h0.15l0.2 0.1-0.05 0.05m-0.15-0.15v0.05m2.85 1.3-0.45-0.15m5.95-14.05-0.2 0.25" fill="none" stroke="#000" stroke-linecap="round" stroke-linejoin="round"/>
<path d="m287.9 186.6 0.1 0.1h0.05l0.2 0.25q0.5 0.7 0.1 2.3l-0.05 0.3-0.15 0.5-0.05 0.15-1.2 1.9-0.3 0.45-0.75 0.95q1.3-2 1.85-3.75l0.15-0.5q0.6-1.95-0.05-2.7l0.1 0.05m2.05 1.95 0.95 0.1 0.35 0.25 0.05 0.05v0.05l0.3 0.75-0.1 1.2-0.2 0.8q-0.6 1.9-2.05 4.05l-0.35 0.5-0.25 0.3-1.3 1.45-2.15 1.85-0.1 0.05-0.6 0.4-1.2 0.4h-0.15l-0.3-0.05-0.25-0.05-0.15-0.1h-0.1l-0.35-0.45-0.1-0.4 0.4 0.15v0.05q0.9 0.4 2.15-0.3l0.45-0.3h0.05l0.65-0.5 0.95-0.8 0.3-0.3 1.05-1.2 0.75-1q1.4-2.05 1.9-3.85 0.6-2-0.2-2.6v-0.05l-0.4-0.45m-11.75-9.2q0.2 0.05 0.35 0.2l0.25 0.2 0.3 0.8-0.1 1.2-0.2 0.8q-0.6 1.9-2.05 4l-0.4 0.55-0.3 0.45 0.2-0.3-0.2 0.3-1.45 1.5-1.95 1.65-0.1 0.05-0.6 0.4-1 0.35-0.2-0.15h-0.05l-0.05-0.1q-0.75-0.75-0.2-2.75 0.65-2.15 2.5-4.6l0.35-0.5q1.65-2.15 3.35-3.3 0.85-0.6 1.55-0.75m3.25 2.5 0.3 0.15q0.75 0.75 0.15 2.75l-0.55 1.5-1.55 2.7-0.35 0.5-2.85 3-0.9 0.65-0.65 0.4-0.4-0.25-0.05-0.05 0.7-0.4q1.9-1.2 3.75-3.65l0.35-0.5q1.5-2.25 2.05-4.25 0.55-1.8 0-2.55m3 17.75 0.5-0.3-0.5 0.3" fill="#ccc" fill-rule="evenodd"/>
<path d="m270.1 191.45-0.2-0.1h-0.05l-0.05-0.1q-0.75-0.75-0.2-2.75 0.65-2.15 2.5-4.6l0.35-0.5q1.65-2.15 3.35-3.3 1.5-1 2.4-0.75-0.7 0.15-1.55 0.75-1.7 1.15-3.35 3.3l-0.35 0.5q-1.85 2.45-2.5 4.6-0.55 2 0.2 2.75l0.05 0.1h0.05l0.2 0.15h-0.3l-0.55-0.05" fill="#efefef" fill-rule="evenodd"/>
<path d="m281.9 199.7h-0.05l-1.85-0.85h0.15l1.75 0.8v0.05-0.05l-1.75-0.8q0.85 0.05 1.95-0.7l0.15-0.15 0.2-0.1 0.15-0.15 0.1-0.05 0.15-0.1 1.2-1.05 1.35-1.6 0.1-0.05 0.35-0.55 0.35-0.5q1.3-1.9 1.9-3.65l0.05-0.15 0.7-1.8 0.1-0.55 0.95 0.9 0.4 0.45v0.05q0.85 0.6 0.25 2.55-0.55 1.85-1.95 3.85l-0.3 0.45-0.4 0.55-1.05 1.2-0.3 0.3-0.95 0.8-0.65 0.5h-0.05l-0.45 0.3q-1.25 0.65-2.1 0.25v-0.05l-0.45-0.15 0.45 0.15v0.05q0.85 0.4 2.1-0.25-1.25 0.7-2.15 0.3v-0.05l-0.4-0.15m-2.4-1.2h-0.05l-0.15-0.05-0.2-0.1h-0.05l-1-0.6q-1.65-1-3.15-2.2h-0.05l-0.35-0.3v-0.05l-0.3-0.25-0.15-0.1-1.2-1.05h0.1l1.1 1 0.15 0.1 0.3 0.3q2.15 1.75 4.6 3.1l0.25 0.15h0.15l0.25 0.05h0.2q0.8-0.05 1.9-0.8l0.5-0.35 0.3-0.25-0.3 0.25-0.5 0.35q-1.1 0.75-1.9 0.8h-0.2l-0.25-0.05h-0.15l-0.25-0.15q-2.45-1.35-4.6-3.1l-0.3-0.3-0.15-0.1-1.1-1q0.9 0.35 2.1-0.25l1.3 0.8 1 0.6h0.05l0.2 0.1 0.15 0.05 0.25 0.05-0.1 0.1 0.15 0.1 0.25 0.1 1.85 0.85 0.45 0.15v0.05q1.05 0.5 2.6-0.6 1.25-0.8 2.55-2.25l-0.3 0.4-0.45 0.65-1.45 1.6-0.9 0.8-0.35 0.3-0.5 0.35q-1.1 0.75-1.9 0.8h-0.2l-0.2-0.05v-0.05l0.2 0.1 0.05-0.05-0.05 0.05-0.2-0.1v0.05l-0.15-0.05 0.15 0.05m-6.85-4.95h-0.05l-0.15-0.15-0.1-0.05-1.3-1.4h0.1l0.35-0.05 0.85-0.3 0.1-0.05v-0.05h0.1l0.6-0.4 0.1-0.05q1.85-1.25 3.6-3.65l0.35-0.45q1.45-2.15 2.05-4.05l0.2-0.8 0.1-1.35 0.4 0.25-0.1 1.25-0.15 0.6-0.05 0.15q-0.6 1.9-2.05 4.05l-0.35 0.5q-1.8 2.35-3.6 3.6l-0.15 0.05-0.55 0.4-0.3 0.15 0.15 0.05v0.05l1.8 1.35q-1.1 0.6-1.95 0.3l0.05 0.05-0.2-0.2-0.1-0.05-1.25-1.35 1.25 1.35 0.1 0.05 0.2 0.2-0.05-0.05q0.85 0.3 1.95-0.3l0.05 0.05q-1.1 0.55-1.95 0.3h-0.05m6.45 4.75-0.05 0.05 0.05-0.05m9.05-8.25q-0.6 1.8-1.9 3.75l-0.35 0.5-0.4 0.6 0.4-0.6 0.35-0.5q1.3-1.95 1.9-3.75m-1.3 7.65-0.3 0.3 0.3-0.3" fill="#4a2d24" fill-rule="evenodd"/>
<path d="m291.75 189.25 0.35 0.75-0.1 1.3-0.15 0.65-0.05 0.15q-0.6 1.9-2.05 4.05l-0.4 0.5q-1.75 2.35-3.6 3.6l-0.1 0.05-0.6 0.4-1.45 0.4 1.4-0.4 0.55-0.4 0.15-0.05q1.8-1.25 3.55-3.6l0.4-0.5q1.45-2.15 2.05-4.05l0.05-0.15 0.15-0.65 0.1-1.3-0.1 0.45-0.15 0.65-0.05 0.15q-0.6 1.9-2.05 4.05l-0.4 0.5q1.45-2.15 2.05-4.05l0.2-0.8 0.1-1.2-0.3-0.75v-0.05l0.1 0.05 0.35 0.25m-21.6 2.25-0.05-0.05 0.55 0.05h-0.5m8.65-11.75 0.25 0.15 0.5 0.85-0.1 1.35-0.2 0.8q-0.6 1.9-2.05 4.05l-0.35 0.45q-1.75 2.4-3.6 3.65l-0.1 0.05-0.6 0.4h-0.1l-0.1 0.1-0.2 0.05-0.2 0.1-0.5 0.1-0.35 0.05 0.2-0.05 0.75-0.2 0.15-0.05 0.15-0.1h0.05l0.6-0.4 0.1-0.05q1.85-1.25 3.65-3.65l0.35-0.45q1.45-2.15 2.05-4.05l0.2-0.8 0.1-1.15-0.05 0.3-0.2 0.8q-0.6 1.9-2.05 4.05l-0.4 0.45-0.6 0.85 0.2-0.3 0.4-0.55q1.45-2.1 2.05-4l0.2-0.8 0.1-1.2-0.3-0.8m10.45 16.05-0.6 0.8 0.25-0.3 0.35-0.5m-6.1 4.95-0.5-0.05-0.05-0.05 0.25 0.05 0.3 0.05m-0.5-0.05-0.05-0.05 0.05 0.05" fill="#9a9a9a" fill-rule="evenodd"/>
<path d="m283.6 201.1h-0.05l-0.75-0.2h-0.05l-0.05-0.1-0.15-0.15 0.1 0.05 0.5 0.05h0.15l1.3-0.4 0.6-0.4 0.1-0.05q1.7-1.15 3.35-3.3-1.65 2.15-3.35 3.3l-0.1 0.05-0.6 0.4-1.3 0.4 1.2-0.4 0.6-0.4 0.1-0.05 2.15-1.85 1.3-1.45 0.6-0.8 0.4-0.5q1.45-2.15 2.05-4.05l0.05-0.15 0.15-0.65 0.1-0.45-0.1 1.3-0.15 0.65-0.05 0.15q-0.6 1.9-2.05 4.05l-0.4 0.5q-1.75 2.35-3.55 3.6l-0.15 0.05-0.55 0.4-1.4 0.4m-3.6-2.25-0.25-0.1-0.15-0.1 0.1-0.1-0.05 0.05 0.05-0.05h0.2q0.8-0.05 1.9-0.8l0.5-0.35 0.35-0.3 0.9-0.8 1.45-1.6 0.45-0.65 0.3-0.4 0.1-0.15 0.75-0.95 0.3-0.45 1.2-1.9q-0.6 1.75-1.9 3.65l-0.35 0.5-0.35 0.55-0.1 0.05-1.35 1.6-1.2 1.05-0.15 0.1-0.1 0.05-0.15 0.15-0.2 0.1-0.15 0.15q-1.1 0.75-1.95 0.7l-0.1-0.05-0.25-0.1-0.15-0.1 0.15 0.1 0.25 0.1 0.1 0.05h-0.15m-7.15-5.05-0.15-0.15-0.05-0.1h0.05q0.85 0.25 1.95-0.3l0.4 0.25q-1.25 0.65-2.1 0.25l-0.2-0.1v-0.05l-0.05-0.05 0.05 0.05v0.05l0.2 0.1q0.85 0.4 2.1-0.25v0.05q-1.2 0.6-2.1 0.25h-0.1m-1.75-1.9h-0.15l-0.7-0.2h-0.05l-0.1-0.1-0.1-0.15 0.15 0.05h0.65l1.3-0.35 0.55-0.4 0.15-0.05q1.65-1.15 3.25-3.15-1.6 2-3.25 3.15l-0.15 0.05-0.55 0.4-1.3 0.35h-0.1 0.25l1-0.35 0.6-0.4 0.1-0.05 1.95-1.65 1.45-1.5 0.1-0.15 0.6-0.85 0.4-0.45q1.45-2.15 2.05-4.05l0.2-0.8 0.05-0.3-0.1 1.15-0.2 0.8q-0.6 1.9-2.05 4.05l-0.35 0.45q-1.8 2.4-3.65 3.65l-0.1 0.05-0.6 0.4h-0.05l-0.15 0.1-0.15 0.05-0.75 0.2-0.2 0.05m-0.05 0-0.65-0.2h-0.05l-0.2-0.2 0.2 0.2h0.05l0.65 0.2m1.7 1.7-0.05-0.05 0.05 0.05m0.1 0.1 0.1 0.1-0.1-0.1m12.15 1 0.75-1.05-0.75 1.05m-4.95 4.1q0.9 0.1 2.1-0.7-1.2 0.8-2.1 0.7m3.5 2.3-0.65-0.2h-0.05l-0.2-0.2 0.2 0.2h0.05l0.65 0.2m-0.95-3.35 0.25-0.15-0.25 0.15m-0.4 0.3 0.25-0.15-0.25 0.15m0.6 2.8-0.2-0.15 0.2 0.15" fill="#656565" fill-rule="evenodd"/>
<path d="m287.45 186.2 0.4 0.35h-0.05q0.65 0.75 0.05 2.7l-0.15 0.5q-0.55 1.75-1.85 3.75l-0.1 0.15q-1.3 1.45-2.55 2.25-1.55 1.1-2.6 0.6v-0.05l-0.45-0.15-1.85-0.85-0.25-0.1-0.15-0.1 0.1-0.1-0.25-0.05-0.15-0.05-0.2-0.1h-0.05l-1-0.6-1.3-0.8v-0.05l0.65-0.4 0.9-0.65 2.85-3 0.35-0.5 1.55-2.7 0.55-1.5q0.6-2-0.15-2.75l1.9 1.2-0.05 0.05q-0.15 0.35 0.3 1l1.25 1.15 0.55 0.4 1 0.4 0.7 0.05 0.05-0.05m0.8 0.75 1.7 1.6 0.4 0.45v0.05q0.8 0.6 0.2 2.6-0.5 1.8-1.9 3.85l-0.75 1 0.4-0.55 0.3-0.45q1.4-2 1.95-3.85 0.6-1.95-0.25-2.55v-0.05l-0.4-0.45-0.95-0.9-0.1 0.55-0.7 1.8 0.15-0.5 0.05-0.3q0.4-1.6-0.1-2.3m-17.1 5-0.05-0.05 0.35-0.05 0.5-0.1 0.2-0.1 0.2-0.05 0.1-0.1v0.05l-0.1 0.05-0.85 0.3-0.35 0.05m8.8-10.95 1.45 0.8 0.05 0.05q0.55 0.75 0 2.55-0.55 2-2.05 4.25l-0.35 0.5q-1.85 2.45-3.75 3.65l-0.7 0.4-1.8-1.35v-0.05l-0.15-0.05 0.3-0.15 0.55-0.4 0.15-0.05q1.8-1.25 3.6-3.6l0.35-0.5q1.45-2.15 2.05-4.05l0.05-0.15 0.15-0.6 0.1-1.25m-8 10.75-0.45 0.15 0.45-0.15" fill="#613a2e" fill-rule="evenodd"/>
<path d="m284 182.9h0.25l-0.2 0.05 0.2-0.05 0.45 0.1q0.7 0.15 1.5 0.75l1.25 1.2 0.3 0.75-0.1 0.15-0.05 0.1-0.15 0.25-0.05 0.05-0.7-0.05-1-0.4 0.15-0.05v-0.05l0.15-0.15 0.2 0.1 0.65 0.2-0.35-0.15 0.15-0.2-0.3-0.75-1.25-1.2q-0.55-0.4-1.05-0.6l-0.05-0.05m-4.95 15.45-4.35 6.35-0.5 0.75-0.5-0.1-0.3-0.1h-0.05l-0.15-0.1-0.2-0.05q-0.75-0.3-1.55-0.9l-1.6-1.35 0.75 0.5 1.9 1.05 0.35 0.1 0.5 0.1 1.5-2.2-0.05-2-0.3-2.15-0.15-0.55-0.55-1.55 0.7-0.95v0.05l0.35 0.3h0.05q1.5 1.2 3.15 2.2l1 0.6m8.55-12.4-0.75-0.1 0.75 0.1m-12.75 16.45 3.2-4.65-3.2 4.65" fill="#824f3e" fill-rule="evenodd"/>
<path d="m284 182.9 0.05 0.05q0.5 0.2 1.05 0.6l1.25 1.2 0.3 0.75-0.15 0.2 0.35 0.15-0.65-0.2-0.2-0.1-0.65-0.45h-0.05l-1.25-1.2q-0.4-0.55-0.3-0.85l0.05-0.05 0.2-0.1" fill="#975b48" fill-rule="evenodd"/>
<path d="m258.3 220.2-0.35-0.7 0.35 0.7m11.6-18.9 3.9-5.15 0.55 1.55 0.15 0.55 0.3 2.15 0.05 2-1.5 2.2-0.5-0.1-0.35-0.1-1.9-1.05-0.75-0.5v-0.05l-0.25-0.3-0.3-0.45 0.6-0.75m13.75-18.1 0.1-0.15q-0.1 0.3 0.3 0.85l1.25 1.2h0.05l0.65 0.45-0.15 0.15v0.05l-0.15 0.05-0.55-0.4-1.25-1.15q-0.45-0.65-0.3-1l0.05-0.05m-8.8 12.35h0.05-0.05" fill="#a1664c" fill-rule="evenodd"/>
<path d="m274.7 204.7 0.15 0.6-0.35 0.55h-0.6l-0.55-0.15-0.85-0.3-0.15-0.05-0.15-0.1 0.1 0.05h0.55l0.15-0.2 0.2 0.05 0.15 0.1h0.05l0.3 0.1 0.5 0.1 0.5-0.75m-1.5 0.45 0.2 0.1-0.2-0.1" fill-rule="evenodd"/>
<path d="m274.5 205.85-9.25 13.45-0.25 0.35q-1.15 1.35-2.7 1.8-1.8 0.55-3.1-0.35l-0.65-0.6-0.15-0.15-0.1-0.15-0.2-0.4q0.9 0.55 2.1 0.45h0.05l0.75-0.2q1.05-0.3 1.9-1l1.1-1.15 8.5-12.5 0.85 0.3 0.55 0.15h0.6" fill="#202020" fill-rule="evenodd"/>
<path d="m268.8 201.75 0.35-0.45h0.75l-0.6 0.75 0.3 0.45 0.25 0.3v0.05l1.6 1.35q0.8 0.6 1.55 0.9l-0.15 0.2h-0.55l-0.1-0.05-0.25-0.1-0.65-0.4-0.05-0.05-0.15-0.1q-1.2-0.85-1.85-1.75l-0.15-0.25-0.1-0.15q-0.25-0.45-0.2-0.7" fill="#222" fill-rule="evenodd"/>
<path d="m269.1 202.6 0.15 0.25q0.65 0.9 1.85 1.75l0.15 0.1 0.05 0.05 0.65 0.4 0.25 0.1 0.15 0.1 0.15 0.05-8.5 12.5-1.1 1.15q-0.85 0.7-1.9 1l-0.75 0.2h-0.05q-0.65-0.15-1.2-0.45l-0.1-0.3-0.15-0.5-0.05-0.5-0.05-0.15q-0.05-1.8 1.2-3.45l0.25-0.4 9-11.9" fill="#333" fill-rule="evenodd"/>
<path d="m257.95 219.5-0.1-0.3-0.1-0.5v-0.35q-0.1-1.8 1.15-3.45l0.25-0.4 9.65-12.75q-0.05 0.25 0.2 0.7l0.1 0.15-0.1-0.15 0.1 0.15-9 11.9-0.25 0.4q-1.25 1.65-1.2 3.45l0.05 0.15 0.05 0.5 0.15 0.5 0.1 0.3q0.55 0.3 1.2 0.45-1.2 0.1-2.1-0.45l-0.15-0.3m-0.2-1.15v0.35-0.35" fill="#757575" fill-rule="evenodd"/>
<path d="m284.05 182.95 0.2-0.05 0.5 0.1 1.55 0.75 1.25 1.2 0.3 0.65v0.05l-0.05 0.1-0.15 0.1-0.05 0.1-0.15 0.25 0.4 0.35 0.15 0.15h0.05l0.2 0.25 1.7 1.6 0.95 0.1 0.15 0.1 0.2 0.15 0.3 0.2 0.2 0.15 0.35 0.75-0.1 1.3-0.15 0.65-0.05 0.15q-0.6 1.9-2.05 4.05l-0.4 0.5q-1.75 2.35-3.6 3.6l-0.1 0.05-0.6 0.4-1.45 0.4h-0.05l-0.75-0.2h-0.05l-0.05-0.1-0.1-0.1-0.25-0.15-0.05-0.1-0.3-0.35-0.1-0.4h-0.05l-1.85-0.85m-0.35-0.25-0.15-0.1h-0.05l-0.15-0.05-0.2-0.1h-0.05l-4.35 6.35 0.15 0.6-0.35 0.55-9.25 13.45-0.25 0.35q-1.15 1.35-2.7 1.8-1.8 0.55-3.1-0.35l-0.65-0.6-0.15-0.15-0.1-0.15-0.35-0.7-0.1-0.3-0.1-0.5v-0.35q-0.1-1.8 1.15-3.45l0.25-0.4 9.65-12.75 0.35-0.45h0.75l3.9-5.15 0.7-0.95-0.3-0.25-0.15-0.1-1.2-1.05m-0.25-0.25-0.15-0.15-0.1-0.05-1.3-1.4h0.1l-0.05-0.05h-0.15l-0.7-0.2h-0.05l-0.1-0.1-0.1-0.15 0.15 0.05-0.05-0.05-0.2-0.1h-0.05l-0.05-0.1q-0.75-0.75-0.2-2.75 0.65-2.15 2.5-4.6l0.35-0.5q1.65-2.15 3.35-3.3 1.5-1 2.4-0.75 0.2 0.05 0.35 0.2l0.25 0.2 0.25 0.15 0.5 0.85 0.4 0.25 1.45 0.8 0.05 0.05-0.05-0.1 0.2 0.15 0.15 0.1 1.9 1.2 0.1-0.15 0.05-0.1 0.05-0.05-0.05 0.1m-0.05 0.05 0.05-0.05m-0.15 0.2-0.05 0.05q-0.15 0.35 0.3 1l1.25 1.15 0.55 0.4 1 0.4 0.7 0.05 0.05-0.05m-1.45-0.65-0.65-0.45h-0.05l-1.25-1.2q-0.4-0.55-0.3-0.85m3.1 2.8 0.75 0.1m-0.75-0.1-0.65-0.2-0.2-0.1m1.8 1 0.1 0.05m-0.1-0.05q0.65 0.75 0.05 2.7l-0.15 0.5q-0.55 1.75-1.85 3.75m2.25-3.3 0.05-0.15 0.15-0.5 0.05-0.3q0.4-1.6-0.1-2.3m-0.6-1.1 0.1-0.15m-0.1 0.15 0.2-0.25m1.1 2.1 0.95 0.9 0.4 0.45v0.05q0.85 0.6 0.25 2.55-0.55 1.85-1.95 3.85l-0.3 0.45-0.4 0.55 0.75-1q1.4-2.05 1.9-3.85 0.6-2-0.2-2.6v-0.05l-0.4-0.45m1.35 0.45v-0.05l-0.05-0.05-0.35-0.25m0.4 0.3 0.1 0.05 0.35 0.25m-0.45-0.25 0.3 0.75-0.1 1.2-0.2 0.8q-0.6 1.9-2.05 4.05l-0.35 0.5-0.25 0.3q-1.65 2.15-3.35 3.3l-0.1 0.05-0.6 0.4-1.3 0.4h-0.15m-1.7-18.9 0.3 0.15q0.75 0.75 0.15 2.75l-0.55 1.5-1.55 2.7-0.35 0.5-2.85 3-0.9 0.65-0.65 0.4m10.7 0.15 0.1-0.15m-13.4-2h0.1l0.6-0.4 0.1-0.05q1.85-1.25 3.6-3.65l0.35-0.45q1.45-2.15 2.05-4.05l0.2-0.8 0.1-1.35m-7.35 10.85-0.15 0.05m-0.75 0.2-0.2 0.05 0.35-0.05 0.5-0.1 0.2-0.1 0.2-0.05 0.1-0.1m-1.3 0.45 1.25 1.35 0.1 0.05 0.2 0.2-0.05-0.05q0.85 0.3 1.95-0.3l0.7-0.4q1.9-1.2 3.75-3.65l0.35-0.5q1.5-2.25 2.05-4.25 0.55-1.8 0-2.55m-2.65-2.1 0.3 0.8-0.1 1.2-0.2 0.8q-0.6 1.9-2.05 4l-0.4 0.55-0.3 0.45q-1.6 2-3.25 3.15l-0.15 0.05-0.55 0.4-1.3 0.35h-0.15l-0.55-0.05m0.05 0.05 0.2 0.2h0.05l0.65 0.2m3.6 1.35q-1.1 0.55-1.95 0.3l0.05 0.05v0.05l0.2 0.1q0.85 0.4 2.1-0.25m-2.35 0.05h-0.05m0.05 0 0.05 0.05m0.2 0.2h-0.05m0.05 0-0.1-0.1m0.1 0.1 1.1 1 0.15 0.1 0.3 0.3q2.15 1.75 4.6 3.1l0.25 0.15h0.15l0.25 0.05h0.2q0.8-0.05 1.9-0.8l0.5-0.35 0.3-0.25 0.9-0.8 1.45-1.6 0.45-0.65 0.3-0.4-0.75 1.05m-10.15 0.85-0.35-0.3v-0.05m0.4 0.35h-0.05m0.05 0q1.5 1.2 3.15 2.2l1 0.6 0.05-0.05m-4.05-4.75q-1.2 0.6-2.1 0.25m6.8 4.7-0.05 0.05h0.2q0.8-0.05 1.9-0.8l0.5-0.35 0.35-0.3m-3 1.5 0.05-0.05-0.2-0.05-0.15-0.05m0.35 0.1-0.2-0.1v0.05m0.65 0.35-0.1-0.05-0.25-0.1-0.15-0.1m0.5 0.25h-0.15m1.9 0.85v-0.05l-1.75-0.8q0.85 0.05 1.95-0.7l0.05-0.05q-1.2 0.8-2.1 0.7m-10.2 4.05 1.6 1.35q0.8 0.6 1.55 0.9l0.2 0.05 0.15 0.1h0.05l0.3 0.1 0.5 0.1 0.5-0.75m7.95-4 0.2 0.2h0.05l0.65 0.2m1.95-6.2 0.4-0.6 0.35-0.5q1.3-1.95 1.9-3.75m-0.05 0.15q-0.6 1.75-1.9 3.65l-0.35 0.5-0.35 0.55-0.1 0.05-1.35 1.6-1.2 1.05-0.15 0.1-0.1 0.05-0.15 0.15-0.2 0.1-0.1 0.1m0.7-0.5-0.25 0.15m5.3-1.25-1.05 1.2-0.3 0.3-0.95 0.8-0.65 0.5-0.5 0.3q-1.25 0.7-2.15 0.3v-0.05l-0.4-0.15m2.55-0.1 0.45-0.3h0.05m-2.5-1.4-0.25 0.15m-0.3 1.6 0.45 0.15v0.05q0.85 0.4 2.1-0.25m-1.8 1.1-0.1-0.05 0.05 0.05 0.2 0.15m-0.8-0.75 0.35 0.45h0.1l0.15 0.1 0.25 0.05 0.3 0.05m-0.5-0.05-0.05-0.05 0.05 0.05m3.9-2.7 0.3-0.3m-17.75 4.9 0.15 0.25q0.65 0.9 1.85 1.75l0.15 0.1 0.05 0.05 0.65 0.4 0.25 0.1m-3.1-2.65-0.1-0.15q-0.25-0.45-0.2-0.7m1.05 1.1v-0.05l-0.25-0.3-0.3-0.45 0.6-0.75m2.6 4.1-0.15-0.05m-14.6 13.35v-0.35m0.35 1.45 0.2 0.4m-0.2-0.4-0.15-0.3m15.45-14.25-0.2-0.1m1.3 0.7h-0.6l-0.55-0.15-0.85-0.3m-1-13.5 0.45-0.15" fill="none" stroke="#000" stroke-linecap="round" stroke-linejoin="round" stroke-width=".25"/>
</g>
</defs>
</svg>
