<?xml version="1.0" encoding="UTF-8" standalone="no"?>
<!DOCTYPE svg PUBLIC "-//W3C//DTD SVG 1.1//EN" "http://www.w3.org/Graphics/SVG/1.1/DTD/svg11.dtd">
<svg width="100%" height="100%" viewBox="0 0 264 235" version="1.1" xmlns="http://www.w3.org/2000/svg" xmlns:xlink="http://www.w3.org/1999/xlink" xml:space="preserve" xmlns:serif="http://www.serif.com/" style="fill-rule:evenodd;clip-rule:evenodd;stroke-linecap:round;stroke-linejoin:round;">
    <g transform="matrix(1,0,0,1,-148.858,-83.4364)">
        <g transform="matrix(4.93834,0,0,4.93834,-1084.86,-789.538)">
            <g id="shape0">
                <path d="M270.25,181.65L270.25,181.55C270.25,180.617 270.5,179.7 271,178.8C271.667,177.9 272.45,177.283 273.35,176.95L274.85,176.8L275.2,176.9L275.4,177L275.65,177.15L275.8,177.25L275.75,177.25L276.2,177.9C276.2,178.233 275.55,178.583 274.25,178.95L273.7,179.15C272.767,179.483 272.3,180.033 272.3,180.8L272.1,182.05C271.933,182.583 271.667,182.85 271.3,182.85L271,182.8L270.3,181.65L270.25,181.65M271.05,182.15L271.4,181.95L271.5,181.75L271.4,181.4L271.05,181.3C270.75,181.3 270.6,181.45 270.6,181.75C270.6,182.017 270.75,182.15 271.05,182.15L271.05,182.2L271.05,182.15M271.3,181C271.467,181 271.583,180.7 271.65,180.1C271.75,179.5 272.15,178.95 272.85,178.45C273.583,177.917 274.3,177.633 275,177.6C275,176.767 274.3,176.717 272.9,177.45C271.5,178.183 270.817,179.2 270.85,180.5L270.9,180.75L271.3,181" style="fill:#5e5e5e;"/>
                <path d="M275.8,177.25L276.3,177.75L276.65,178.3L276.65,178.45L276.7,178.45L276.85,179.2C276.65,179.833 276.35,180.25 275.95,180.45L275.5,180.45L275.1,179.8L274.4,179.75L274.3,179.8C273.967,179.967 273.683,180.25 273.45,180.65C273.217,181.05 273.1,181.433 273.1,181.8L273.1,181.85C273.1,182.15 273.183,182.383 273.35,182.55L273.45,182.6L273.55,182.7L272.9,183.7C272.533,184.1 272.15,184.283 271.75,184.25L271.15,183.85C270.783,183.583 270.533,183.183 270.4,182.65L270.3,182.15L270.3,182.1L270.25,181.75L270.25,181.65L270.3,181.65L271,182.8L271.3,182.85C271.667,182.85 271.933,182.583 272.1,182.05L272.3,180.8C272.3,180.033 272.767,179.483 273.7,179.15L274.25,178.95C275.55,178.583 276.2,178.233 276.2,177.9L275.75,177.25L275.8,177.25" style="fill:#4f4f4f;"/>
                <path d="M273.1,181.85L273.15,181.8L274,181C274.267,180.6 274.4,180.2 274.4,179.8L274.4,179.75L275.1,179.8L275.5,180.45L275.5,180.65C275.5,181.05 275.367,181.433 275.1,181.8L274.3,182.65L273.55,182.7L273.45,182.6L273.35,182.55C273.183,182.383 273.1,182.15 273.1,181.85" style="fill:#1c1c1c;"/>
                <path d="M276.85,179.2L276.85,179.85C276.85,180.717 276.567,181.567 276,182.4C275.5,183.267 274.917,183.867 274.25,184.2L272.55,184.5L271.75,184.25C272.15,184.283 272.533,184.1 272.9,183.7L273.55,182.7L274.3,182.65L275.1,181.8C275.367,181.433 275.5,181.05 275.5,180.65L275.5,180.45L275.95,180.45C276.35,180.25 276.65,179.833 276.85,179.2" style="fill:#363636;"/>
                <path d="M271.3,181L270.9,180.75L270.85,180.5C270.817,179.2 271.5,178.183 272.9,177.45C274.3,176.717 275,176.767 275,177.6C274.3,177.633 273.583,177.917 272.85,178.45C272.15,178.95 271.75,179.5 271.65,180.1C271.583,180.7 271.467,181 271.3,181M271.05,182.15C270.75,182.15 270.6,182.017 270.6,181.75C270.6,181.45 270.75,181.3 271.05,181.3L271.4,181.4L271.5,181.75L271.4,181.95L271.05,182.15" style="fill:#aeaeae;"/>
                <path d="M270.25,181.65L270.25,181.55C270.25,180.617 270.5,179.7 271,178.8C271.667,177.9 272.45,177.283 273.35,176.95L274.85,176.8L275.2,176.9L275.4,177L275.65,177.15L275.8,177.25L276.3,177.75L276.65,178.3L276.65,178.45L276.7,178.45L276.85,179.2L276.85,179.85C276.85,180.717 276.567,181.567 276,182.4C275.5,183.267 274.917,183.867 274.25,184.2L272.55,184.5L271.75,184.25L271.15,183.85C270.783,183.583 270.533,183.183 270.4,182.65L270.3,182.15L270.3,182.1L270.25,181.75L270.25,181.65M274.4,179.75L274.4,179.8C274.4,180.2 274.267,180.6 274,181L273.15,181.8L273.1,181.85C273.1,182.15 273.183,182.383 273.35,182.55L273.45,182.6L273.55,182.7L274.3,182.65L275.1,181.8C275.367,181.433 275.5,181.05 275.5,180.65L275.5,180.45L275.1,179.8L274.4,179.75L274.3,179.8C273.967,179.967 273.683,180.25 273.45,180.65C273.217,181.05 273.1,181.433 273.1,181.8L273.1,181.85" style="fill:none;fill-rule:nonzero;stroke:#000;stroke-opacity:0.3;stroke-width:0.05px;"/>
                <path d="M259.95,190.25C259.617,189.683 259.483,189.15 259.55,188.65L259.65,188.1C259.783,187.7 260.217,187.15 260.95,186.45C261.617,185.85 264.017,184.517 268.15,182.45L268.3,182.4L268.65,182.25L269.8,181.65L269.85,181.65C269.95,181.55 270.167,181.433 270.5,181.3L271.05,181.05L272.6,180.35L273.3,180.1L273.35,180.05L277,178.9L278.05,178.65L278.4,178.55C280.7,177.983 283.95,177.533 288.15,177.2L288.2,177.2L290.25,177.35L292.2,177.6C295.333,178.067 297.9,179.033 299.9,180.5L300.5,180.95L302.05,182.5L302,182.35C302.833,183.783 303.15,184.767 302.95,185.3L302.85,186.55L302.65,187.45L302.2,188.6L302.1,188.9L301.95,189.15L301.25,190.35L301.2,190.3L301.25,190.4L300.7,191.25L299.5,192.9C298.667,193.933 297.467,194.7 295.9,195.2L294.55,195.55L293.9,195.7L293.8,195.7L290.1,196L289.7,196L288.35,195.85L286.85,195.5L286.55,195.4L282.6,194.2C279.033,193 276.75,192.4 275.75,192.4L275.25,192.45L272.9,192.85C271.8,193.15 270.8,193.633 269.9,194.3L269.65,193.85L269.35,193.2C270.95,192.033 272.75,191.417 274.75,191.35L275.25,191.3C276.25,191.3 278.533,191.9 282.1,193.1L282.3,193.15C284.7,193.95 286.55,194.483 287.85,194.75L289.2,194.9L289.6,194.9L292.15,194.75L292.9,194.7L293.75,194.55L295.4,194.1C296.967,193.6 298.167,192.833 299,191.8L300.2,190.15L301.7,187.5L301.95,186.8C302.283,185.9 302.417,185.15 302.35,184.55L302.25,184.1L301.95,183.4L301.6,182.9L300.55,181.75L300.05,181.3C297.983,179.6 295.15,178.5 291.55,178L291.4,177.95L291.3,177.95L288.75,177.7L287.8,177.8L278.8,179.05L277.4,179.4L274.2,180.4L274.15,180.4C273.717,180.567 273.333,180.717 273,180.85C272.033,181.25 271.367,181.55 271,181.75L270.9,181.8L270.75,181.9L270.2,182.15L269.05,182.7L269,182.75L268.6,182.95L268.55,182.95C265.95,184.25 264.033,185.267 262.8,186C262.067,186.4 261.583,186.717 261.35,186.95C260.617,187.65 260.217,188.217 260.15,188.65L260.15,188.75L260.2,188.75L260.3,189.05L260.6,189.8L260.65,189.8L260.8,190.3L261.1,190.95L262.2,193.15C262.833,194.683 263.15,195.95 263.15,196.95C263.15,197.95 262.95,198.7 262.55,199.2L262.35,199.4L261.45,199.5L261.4,199.4L261.95,198.9C262.25,198.4 262.4,197.717 262.4,196.85C262.4,195.883 262.117,194.633 261.55,193.1L261.5,192.95L261.45,193.05L261.4,193L261.15,192.45L260,190.25L259.95,190.25M265.05,201.45L264.55,200.85L264.5,200.6L264.5,200.5L264.6,199.9C264.833,198.667 265.633,197.2 267,195.5L268.6,193.85L269.5,194.6C268.8,195.167 268.133,195.833 267.5,196.6C266.5,197.867 265.8,199 265.4,200L265.35,200.05L265.1,200.85L265.1,200.9L265.05,201.45M262.2,193.15L261.55,193.1L262.2,193.15M273.35,180.05L274.2,180.4L273.35,180.05M293.75,194.55L294.55,195.55L293.75,194.55M292.2,177.6L291.4,177.95L292.2,177.6" style="fill:#c47909;"/>
                <path d="M262.8,186C264.033,185.267 265.95,184.25 268.55,182.95L268.6,182.95L269,182.75L269.05,182.7L270.2,182.15L270.75,181.9L270.9,181.8L271,181.75C271.367,181.55 272.033,181.25 273,180.85C273.333,180.717 273.717,180.567 274.15,180.4L274.2,180.4L274.2,181.8L274.2,180.4L277.4,179.4L278.8,179.05L278,179.45C276.567,180.183 275.617,180.783 275.15,181.25L274.85,181.55L274.85,181.6L274.2,181.8L273.35,182.1L272.8,182.4L271.1,183.15L271,183.2L270.1,183.55L269.65,183.8L269.4,183.9L266.2,185.5C264.5,186.4 263.35,186.85 262.75,186.85L262.6,186.8L262.6,186.45L262.8,186M271.15,195.15L269.9,194.3C270.8,193.633 271.8,193.15 272.9,192.85L272.85,193C272.85,193.433 273.067,193.817 273.5,194.15C272.667,194.35 271.883,194.683 271.15,195.15M269.5,194.6L271,195.25L270.15,195.85C268.817,196.85 267.983,197.683 267.65,198.35L267,199.5L266.5,200.1L265.85,200.4L265.5,200.15L265.4,200.05L265.4,200C265.8,199 266.5,197.867 267.5,196.6C268.133,195.833 268.8,195.167 269.5,194.6" style="fill:#523101;"/>
                <path d="M274.15,194.5C273.25,194.633 272.4,194.967 271.6,195.5C270.533,196.2 269.55,197.25 268.65,198.65L267.9,200.15L267.45,200.95L265.35,200.95L265.35,201.5L265.05,201.45L265.1,200.9L265.1,200.85L265.35,200.05L265.4,200L265.4,200.05L265.5,200.15L265.85,200.4L266.5,200.1L267,199.5L267.65,198.35C267.983,197.683 268.817,196.85 270.15,195.85L271,195.25L271.6,195.5L271.15,195.15C271.883,194.683 272.667,194.35 273.5,194.15L273.9,194.35L274.15,194.5M275.4,182.4L274.2,182.75L274,182.8L271.25,183.7L270.6,183.95L270.4,184L269.95,184.25L269.85,184.3C267.35,185.5 265.267,186.6 263.6,187.6L261.9,188.8L260.6,189.8L260.3,189.05L260.2,188.75L260.15,188.65C260.217,188.217 260.617,187.65 261.35,186.95C261.583,186.717 262.067,186.4 262.8,186L262.6,186.45L262.6,186.8L262.75,186.85C263.35,186.85 264.5,186.4 266.2,185.5L269.4,183.9L269.65,183.8L270.1,183.55L271,183.2L271.1,183.15L272.8,182.4L273.35,182.1L274.2,181.8L274.2,182.75L274.2,181.8L274.85,181.6L274.85,182.3L275.4,182.4" style="fill:#402501;"/>
                <path d="M296.65,182.55L295.25,181.8L294.45,181.45C293.45,180.983 292.367,180.7 291.2,180.6L289.95,180.55L286.7,180.65C282.967,180.85 279.35,181.4 275.85,182.3L275.4,182.4L274.85,182.3L274.85,181.6L275.35,181.45L277.6,180.85L283.4,179.45L287.15,179.2L287.3,179.2L291.25,179.65L291.55,179.7C293.183,180 294.117,180.283 294.35,180.55L296.35,182.3L296.65,182.55M291.25,179.65L291.2,180.6L291.25,179.65" style="fill:#523003;"/>
                <path d="M301.7,187.5C301.433,186.767 301,186.067 300.4,185.4L298.65,183.85C298.05,183.417 297.383,182.983 296.65,182.55L296.35,182.3L294.35,180.55C294.117,180.283 293.183,180 291.55,179.7L291.25,179.65L287.3,179.2L287.15,179.2L283.4,179.45L277.6,180.85L275.35,181.45L274.85,181.6L274.85,181.55L275.15,181.25C275.617,180.783 276.567,180.183 278,179.45L278.8,179.05L287.8,177.8L288.75,177.7L291.3,177.95L291.3,178L291.25,179.65L291.3,178L291.3,177.95L291.4,177.95L291.55,178C295.15,178.5 297.983,179.6 300.05,181.3L300.55,181.75L301.6,182.9L301.95,183.4L302.25,184.1L302.35,184.55C302.417,185.15 302.283,185.9 301.95,186.8L301.7,187.5M291.4,177.95L291.3,178L291.4,177.95" style="fill:#5e3a04;"/>
                <path d="M302.95,185.3L303,185.5L303.25,187.15L303.1,187.95C302.767,189.417 302.167,190.8 301.3,192.1L301.35,191.05L301.25,190.4L301.2,190.3L301.25,190.35L301.95,189.15L302.1,188.9L302.2,188.6L302.65,187.45L302.85,186.55L302.95,185.3M268.6,193.85L268.65,193.8L269.65,193.85L269.9,194.3L271.15,195.15L271.6,195.5L271,195.25L269.5,194.6L268.6,193.85M260.9,195.25L260.2,195.15L261.4,193.05L261.5,193.05L260.9,195.25M273.5,194.15C273.067,193.817 272.85,193.433 272.85,193L272.9,192.85L275.25,192.45L275.75,192.4C276.75,192.4 279.033,193 282.6,194.2L286.55,195.4L286.35,195.9C286.35,196.233 286.517,196.617 286.85,197.05L281.6,195.7L280.65,195.35L279.45,194.9C277.617,194.2 276.35,193.85 275.65,193.85L273.5,194.15M301.25,190.35L301.25,190.4L301.25,190.35" style="fill:#663e04;"/>
                <path d="M303.25,187.15L303.25,188.1C303.117,190.2 302.533,191.967 301.5,193.4C300.833,194.367 299.967,195.183 298.9,195.85L300.55,193.9C300.917,193.367 301.167,192.767 301.3,192.1C302.167,190.8 302.767,189.417 303.1,187.95L303.25,187.15M288.65,198L287.55,197.85L281.9,196.25C278.167,195.017 275.883,194.4 275.05,194.4L274.15,194.5L273.9,194.35L273.5,194.15L275.65,193.85C276.35,193.85 277.617,194.2 279.45,194.9L280.65,195.35L281.6,195.7L286.85,197.05L287.35,197.6L288.65,198" style="fill:#573303;"/>
                <path d="M261.4,199.4L261.2,198.75L261.55,198.75L261.55,197.85L260.95,197.85L260.55,196.45L260.9,195.25L261.5,193.05L261.45,193.05L261.5,192.95L261.55,193.1C262.117,194.633 262.4,195.883 262.4,196.85C262.4,197.717 262.25,198.4 261.95,198.9L261.4,199.4M260.2,195.15C259.9,193.95 259.75,192.767 259.75,191.6L259.95,190.25L260,190.25L261.15,192.45L261.4,193L261.45,193.05L261.4,193.05L260.2,195.15M286.55,195.4L286.85,195.5L288.35,195.85L289.7,196L290.1,196L293.8,195.7L293.9,195.7L294.55,195.55L295.9,195.2C297.467,194.7 298.667,193.933 299.5,192.9L300.7,191.25L301.25,190.4L301.35,191.05L301.3,192.1L300.2,193.45C299,194.85 297.533,195.883 295.8,196.55L295,196.8L294.6,196.9L290.8,197.4L286.85,197.05C286.517,196.617 286.35,196.233 286.35,195.9L286.55,195.4M294.6,196.9L294.55,195.55L294.6,196.9M260.15,188.75L260.2,188.75L260.15,188.75M261.55,193.1L261.5,193.05L261.5,192.95L261.5,193.05L261.55,193.1M261.4,193L261.4,193.05L261.4,193" style="fill:#8a5507;"/>
                <path d="M298.9,195.85C298.3,196.25 297.633,196.583 296.9,196.85L295.55,197.3L294.6,197.55L292.2,197.95L291.85,197.95L289.95,198.05L289.25,198.05L288.65,198L287.35,197.6L286.85,197.05L290.8,197.4L294.6,196.9L295,196.8L295.8,196.55C297.533,195.883 299,194.85 300.2,193.45L301.3,192.1C301.167,192.767 300.917,193.367 300.55,193.9L298.9,195.85M294.6,197.55L294.6,196.9L294.6,197.55" style="fill:#7a4b06;"/>
                <path d="M260.15,188.75L260.15,188.65L260.2,188.75L260.15,188.75" style="fill:#925a07;"/>
                <path d="M259.95,190.25C259.617,189.683 259.483,189.15 259.55,188.65L259.65,188.1C259.783,187.7 260.217,187.15 260.95,186.45C261.617,185.85 264.017,184.517 268.15,182.45L268.3,182.4L268.65,182.25L269.8,181.65L269.85,181.65C269.95,181.55 270.167,181.433 270.5,181.3L271.05,181.05L272.6,180.35L273.3,180.1L273.35,180.05L277,178.9L278.05,178.65L278.4,178.55C280.7,177.983 283.95,177.533 288.15,177.2L288.2,177.2L290.25,177.35L292.2,177.6C295.333,178.067 297.9,179.033 299.9,180.5L300.5,180.95L302.05,182.5L302,182.35C302.833,183.783 303.15,184.767 302.95,185.3L303,185.5M303.25,187.15L303.25,188.1C303.117,190.2 302.533,191.967 301.5,193.4C300.833,194.367 299.967,195.183 298.9,195.85C298.3,196.25 297.633,196.583 296.9,196.85L295.55,197.3L294.6,197.55L292.2,197.95L291.85,197.95L289.95,198.05L289.25,198.05L288.65,198L287.55,197.85L281.9,196.25C278.167,195.017 275.883,194.4 275.05,194.4L274.15,194.5C273.25,194.633 272.4,194.967 271.6,195.5C270.533,196.2 269.55,197.25 268.65,198.65L267.9,200.15L267.45,200.95M265.35,201.5L265.05,201.45L264.55,200.85L264.5,200.6L264.5,200.5L264.6,199.9C264.833,198.667 265.633,197.2 267,195.5L268.6,193.85L268.65,193.8L269.65,193.85L269.35,193.2C270.95,192.033 272.75,191.417 274.75,191.35L275.25,191.3C276.25,191.3 278.533,191.9 282.1,193.1L282.3,193.15C284.7,193.95 286.55,194.483 287.85,194.75L289.2,194.9L289.6,194.9L292.15,194.75L292.9,194.7L293.75,194.55L295.4,194.1C296.967,193.6 298.167,192.833 299,191.8L300.2,190.15L301.7,187.5C301.433,186.767 301,186.067 300.4,185.4L298.65,183.85C298.05,183.417 297.383,182.983 296.65,182.55L295.25,181.8L294.45,181.45C293.45,180.983 292.367,180.7 291.2,180.6L289.95,180.55L286.7,180.65C282.967,180.85 279.35,181.4 275.85,182.3L275.4,182.4L274.2,182.75L274,182.8L271.25,183.7L270.6,183.95L270.4,184L269.95,184.25L269.85,184.3C267.35,185.5 265.267,186.6 263.6,187.6L261.9,188.8L260.6,189.8M260.65,189.8L261.1,190.95L262.2,193.15C262.833,194.683 263.15,195.95 263.15,196.95C263.15,197.95 262.95,198.7 262.55,199.2L262.35,199.4L261.45,199.5L261.4,199.4L261.2,198.75M260.95,197.85L260.55,196.45L260.9,195.25L260.2,195.15C259.9,193.95 259.75,192.767 259.75,191.6L259.95,190.25M261.55,193.1L262.2,193.15M274.2,181.8L274.2,182.75M274.2,181.8L274.2,180.4L273.35,180.05M291.25,179.65L291.3,178L291.3,177.95M294.55,195.55L293.75,194.55M291.3,178L291.4,177.95L292.2,177.6M291.2,180.6L291.25,179.65M301.95,189.15L302.1,188.9M302.85,186.55L302.95,185.3M301.25,190.4L301.25,190.35M294.6,196.9L294.6,197.55M294.55,195.55L294.6,196.9M260.15,188.75L260.15,188.65L260.2,188.75M260.8,190.3L260.65,189.8M261.5,193.05L261.5,192.95M261.5,193.05L261.55,193.1M261.4,193.05L261.4,193" style="fill:none;fill-rule:nonzero;stroke:#000;stroke-opacity:0.3;stroke-width:0.05px;"/>
                <path d="M295.3,196.25L295.3,196.15C295.3,195.217 295.55,194.283 296.05,193.35C296.717,192.45 297.517,191.833 298.45,191.5L299.95,191.35L300.35,191.45L300.55,191.55L300.8,191.7L300.95,191.8L300.9,191.8L301.35,192.45C301.35,192.783 300.683,193.133 299.35,193.5L298.8,193.7C297.833,194.067 297.35,194.633 297.35,195.4L297.15,196.7C296.983,197.233 296.717,197.5 296.35,197.5L296.05,197.45L295.35,196.25L295.3,196.25M296.1,196.8L296.45,196.6L296.55,196.35L296.45,196L296.1,195.9C295.8,195.9 295.65,196.05 295.65,196.35C295.65,196.65 295.8,196.8 296.1,196.8L296.1,196.85L296.1,196.8M296.35,195.6C296.517,195.6 296.633,195.3 296.7,194.7C296.8,194.067 297.217,193.5 297.95,193C298.683,192.467 299.417,192.183 300.15,192.15C300.15,191.283 299.433,191.233 298,192C296.567,192.733 295.867,193.767 295.9,195.1L295.95,195.35L296.35,195.6" style="fill:#5e5e5e;"/>
                <path d="M300.95,191.8L301.45,192.3L301.8,192.85L301.8,193L301.85,193L302,193.75C301.8,194.417 301.5,194.85 301.1,195.05L300.65,195.05C300.583,194.75 300.45,194.533 300.25,194.4L299.5,194.35L299.4,194.4C299.067,194.567 298.783,194.85 298.55,195.25C298.317,195.65 298.2,196.05 298.2,196.45L298.2,196.5L298.45,197.2L298.55,197.25L298.65,197.35L298,198.35C297.633,198.75 297.233,198.933 296.8,198.9L296.2,198.5C295.833,198.233 295.583,197.833 295.45,197.3L295.35,196.8L295.35,196.75L295.3,196.35L295.3,196.25L295.35,196.25L296.05,197.45L296.35,197.5C296.717,197.5 296.983,197.233 297.15,196.7L297.35,195.4C297.35,194.633 297.833,194.067 298.8,193.7L299.35,193.5C300.683,193.133 301.35,192.783 301.35,192.45L300.9,191.8L300.95,191.8" style="fill:#4f4f4f;"/>
                <path d="M299.5,194.35L300.25,194.4C300.45,194.533 300.583,194.75 300.65,195.05L300.65,195.25C300.65,195.65 300.517,196.05 300.25,196.45L299.4,197.3L298.65,197.35L298.55,197.25L298.45,197.2L298.2,196.5L299.1,195.6C299.367,195.2 299.5,194.8 299.5,194.4L299.5,194.35" style="fill:#1c1c1c;"/>
                <path d="M302,193.75L302,194.45C302,195.317 301.717,196.183 301.15,197.05C300.65,197.917 300.05,198.517 299.35,198.85L297.65,199.2L296.8,198.9C297.233,198.933 297.633,198.75 298,198.35L298.65,197.35L299.4,197.3L300.25,196.45C300.517,196.05 300.65,195.65 300.65,195.25L300.65,195.05L301.1,195.05C301.5,194.85 301.8,194.417 302,193.75" style="fill:#363636;"/>
                <path d="M296.1,196.8C295.8,196.8 295.65,196.65 295.65,196.35C295.65,196.05 295.8,195.9 296.1,195.9L296.45,196L296.55,196.35L296.45,196.6L296.1,196.8M296.35,195.6L295.95,195.35L295.9,195.1C295.867,193.767 296.567,192.733 298,192C299.433,191.233 300.15,191.283 300.15,192.15C299.417,192.183 298.683,192.467 297.95,193C297.217,193.5 296.8,194.067 296.7,194.7C296.633,195.3 296.517,195.6 296.35,195.6" style="fill:#aeaeae;"/>
                <path d="M295.3,196.25L295.3,196.15C295.3,195.217 295.55,194.283 296.05,193.35C296.717,192.45 297.517,191.833 298.45,191.5L299.95,191.35L300.35,191.45L300.55,191.55L300.8,191.7L300.95,191.8L301.45,192.3L301.8,192.85L301.8,193L301.85,193L302,193.75L302,194.45C302,195.317 301.717,196.183 301.15,197.05C300.65,197.917 300.05,198.517 299.35,198.85L297.65,199.2L296.8,198.9L296.2,198.5C295.833,198.233 295.583,197.833 295.45,197.3L295.35,196.8L295.35,196.75L295.3,196.35L295.3,196.25M298.2,196.5L298.2,196.45C298.2,196.05 298.317,195.65 298.55,195.25C298.783,194.85 299.067,194.567 299.4,194.4L299.5,194.35L300.25,194.4C300.45,194.533 300.583,194.75 300.65,195.05L300.65,195.25C300.65,195.65 300.517,196.05 300.25,196.45L299.4,197.3L298.65,197.35L298.55,197.25L298.45,197.2L298.2,196.5L299.1,195.6C299.367,195.2 299.5,194.8 299.5,194.4L299.5,194.35" style="fill:none;fill-rule:nonzero;stroke:#000;stroke-opacity:0.3;stroke-width:0.05px;"/>
                <path d="M299.95,194L300.15,194.05L300.4,194.5C300.633,195.2 300.467,195.817 299.9,196.35C299.467,196.65 299.05,196.783 298.65,196.75L298.05,196.55L297.9,195.85C297.9,195.317 298.083,194.867 298.45,194.5C298.783,194.167 299.217,194 299.75,194L299.95,194M299.6,195C299.6,194.6 299.417,194.4 299.05,194.4C298.65,194.4 298.45,194.6 298.45,195C298.45,195.367 298.65,195.55 299.05,195.55C299.417,195.55 299.6,195.367 299.6,195" style="fill:#945b07;"/>
                <path d="M299.6,195C299.6,195.367 299.417,195.55 299.05,195.55C298.65,195.55 298.45,195.367 298.45,195C298.45,194.6 298.65,194.4 299.05,194.4C299.417,194.4 299.6,194.6 299.6,195" style="fill:#f7a833;"/>
                <path d="M300.15,194.05L301.05,194.5C301.417,194.867 301.6,195.317 301.6,195.85C301.6,196.35 301.417,196.783 301.05,197.15C300.717,197.483 300.283,197.65 299.75,197.65C299.217,197.65 298.783,197.483 298.45,197.15L298.05,196.55L298.65,196.75C299.05,196.783 299.467,196.65 299.9,196.35C300.467,195.817 300.633,195.2 300.4,194.5L300.15,194.05" style="fill:#663e04;"/>
                <path d="M300.15,194.05L301.05,194.5C301.417,194.867 301.6,195.317 301.6,195.85C301.6,196.35 301.417,196.783 301.05,197.15C300.717,197.483 300.283,197.65 299.75,197.65C299.217,197.65 298.783,197.483 298.45,197.15L298.05,196.55L297.9,195.85C297.9,195.317 298.083,194.867 298.45,194.5C298.783,194.167 299.217,194 299.75,194L299.95,194" style="fill:none;fill-rule:nonzero;stroke:#000;stroke-opacity:0.3;stroke-width:0.05px;"/>
                <path d="M262.3,201.5L263.8,200.75L262.3,201.5L261.8,201.3C260.433,200.667 258.683,200.4 256.55,200.5L256.55,200.45C257.017,200.05 257.483,199.767 257.95,199.6C260.417,199.5 262.367,199.883 263.8,200.75L264,200.85C264.533,200.95 265.15,201.383 265.85,202.15L267.7,204.6L267.65,204.65C267.583,204.783 267.45,204.85 267.25,204.85C267.05,204.85 266.617,204.65 265.95,204.25L265.05,203.75L264.9,203.6L264.4,203.05C263.7,202.283 263.1,201.833 262.6,201.7L262.3,201.5" style="fill:#946e3c;"/>
                <path d="M256.55,200.5C258.683,200.4 260.433,200.667 261.8,201.3L258.85,200.95C257.65,200.983 256.6,201.217 255.7,201.65L255.4,201.15L255.7,201.65L254.95,202.05L254.9,202.1L254.25,202.55L253.65,203.1C252.983,203.767 252.417,204.617 251.95,205.65L251.8,205.45L252.25,204.65L252.9,203.7L253.5,203C253.733,201.833 254.367,201.217 255.4,201.15L256.35,200.55L256.55,200.5M253.65,203.1L253.5,203L253.65,203.1" style="fill:#b38349;"/>
                <path d="M262.3,201.5L262.6,201.7C263.1,201.833 263.7,202.283 264.4,203.05L264.9,203.6L265.05,203.75L266.35,205.6L266.4,205.65L267,207.25L266.35,208.7L264.9,208.65L266.35,208.7L264.65,211.7L264.9,209.05L264.9,208.65L264.85,208.1L264.75,207.7L264.6,207.2C265.133,206.333 265.717,205.8 266.35,205.6C265.717,205.8 265.133,206.333 264.6,207.2C264.267,206.133 263.65,205.05 262.75,203.95C262.217,203.283 261.75,202.883 261.35,202.75C260.217,201.95 258.633,201.6 256.6,201.7L255.95,202.1L255.4,202.55L255,202.95L254.25,202.55L255,202.95L254.5,203.6L253.8,204.55C253.1,205.617 252.65,206.517 252.45,207.25L252.35,207.95L252.35,208.55L252.25,209.65L251.75,209.6L252.2,206L252.15,205.95L251.95,205.65C252.417,204.617 252.983,203.767 253.65,203.1L254.25,202.55L254.9,202.1L254.95,202.05L255.4,202.55L254.95,202.05L255.7,201.65C256.6,201.217 257.65,200.983 258.85,200.95L261.8,201.3L262.3,201.5M266.1,207.85L264.85,208.1L266.1,207.85M265.75,207.1L264.75,207.7L265.75,207.1M250.6,213.3L250.55,212.6L250.65,210.85L252.05,210.75L251.95,211.9L251.95,212.45L252.1,213.8L252.25,214.8L251,213.75L250.6,213.3M250.95,209.55L250.95,209.5L251.05,209.55L250.95,209.55M255.7,201.65L255.95,202.1L255.7,201.65M253.65,203.1L254.5,203.6L253.65,203.1" style="fill:#806134;"/>
                <path d="M265.05,203.75L265.95,204.25C266.617,204.65 267.05,204.85 267.25,204.85C267.45,204.85 267.583,204.783 267.65,204.65L267.7,204.6L268.05,205.3C268.65,206 268.833,206.817 268.6,207.75L268.6,207.9L268.3,210.65L268.05,210.95L266.9,211.7L267.2,208.75L267.2,208.7L267,207.25L266.4,205.65L266.35,205.6L265.05,203.75M268.05,205.3L266.4,205.65L268.05,205.3M268.6,207.75L267.2,208.7L268.6,207.75" style="fill:#73522f;"/>
                <path d="M266.35,208.7L267,207.25L267.2,208.7L267.2,208.75L266.9,211.7L266.1,214.45L266.1,214.5L264.05,214.2L264.65,211.7L266.35,208.7L267.2,208.7L266.35,208.7M263.4,216.1L265,217.2L265,217.25C264.233,218.717 263.383,219.833 262.45,220.6L262.1,220.9C261.667,221.633 261,221.933 260.1,221.8L258.65,221.95L257.25,221.9L256.6,221.7L256.5,221.7L256.6,221L256.7,220.65L256.7,220.55L257.6,220.75L258.25,220.75L259.85,220.45L260.55,220.1L260.8,219.95L261.15,219.65L261.75,220.45L260.8,219.95L261.75,220.45L261.15,219.65C262.017,218.85 262.767,217.667 263.4,216.1M254.6,219.45L254.55,219.45L253.9,220.45C253.133,219.817 252.483,218.967 251.95,217.9L251.4,217.25C251.133,216.95 251,216.35 251,215.45L250.7,214.15L250.6,213.3L251,213.75L252.25,214.8L252.3,215.05L252.5,215.8L252.7,216.35L252.8,216.6L252.95,216.95L251.95,217.9L252.95,216.95C253.383,218.017 253.933,218.85 254.6,219.45M250.65,210.85L250.75,210.1L250.8,209.9L250.95,209.55L251.05,209.55L251.75,209.8L251.75,209.6L252.25,209.65L252.15,210.05L252.05,210.75L250.65,210.85M251.95,216.05L252.5,215.8L251.95,216.05M252,216.7L252.7,216.35L252,216.7M251,215.45L252.3,215.05L251,215.45M260.7,220.7L260.55,220.1L260.7,220.7M260.1,221.8L259.85,220.45L260.1,221.8M262.1,220.9L261.75,220.45L262.1,220.9" style="fill:#664c2a;"/>
                <path d="M268.3,210.65C268.067,211.95 267.633,213.383 267,214.95L266.95,215.15L266.1,214.45L266.9,211.7L268.05,210.95L268.3,210.65M265,217.25L265.9,217.25C264.9,218.883 263.75,220 262.45,220.6C263.383,219.833 264.233,218.717 265,217.25" style="fill:#543c22;"/>
                <path d="M264.75,207.7L264.85,208.1L264.9,208.65L264.9,209.05L264.65,211.7L264.05,214.2L263.65,215.35L263.6,215.5L263.55,215.7L263.4,216.1C262.767,217.667 262.017,218.85 261.15,219.65L260.8,219.95L260.55,220.1L259.85,220.45L258.25,220.75L257.6,220.75L256.7,220.55L257.3,220.35L255.3,219.3L254.6,219.45C253.933,218.85 253.383,218.017 252.95,216.95L252.8,216.6L252.7,216.35L252.5,215.8L252.3,215.05L252.25,214.8L252.1,213.8L251.95,212.45L251.95,211.9L252.05,210.75L252.15,210.05L252.25,209.65L252.35,208.55L252.35,207.95L252.45,207.25C252.65,206.517 253.1,205.617 253.8,204.55L254.5,203.6L255,202.95L255.4,202.55L255.95,202.1L256.6,201.7C258.633,201.6 260.217,201.95 261.35,202.75C261.75,202.883 262.217,203.283 262.75,203.95C263.65,205.05 264.267,206.133 264.6,207.2L264.75,207.7" style="fill:#332515;"/>
                <path d="M262.3,201.5L262.6,201.7C263.1,201.833 263.7,202.283 264.4,203.05L264.9,203.6M267.7,204.6L265.85,202.15C265.15,201.383 264.533,200.95 264,200.85L263.8,200.75C262.367,199.883 260.417,199.5 257.95,199.6C257.483,199.767 257.017,200.05 256.55,200.45L256.55,200.5C258.683,200.4 260.433,200.667 261.8,201.3L262.3,201.5M264.75,207.7L264.85,208.1L264.9,208.65L264.9,209.05L264.65,211.7L264.05,214.2M267,207.25L266.4,205.65L266.35,205.6L265.05,203.75M264.6,207.2L264.75,207.7M255.95,202.1L256.6,201.7C258.633,201.6 260.217,201.95 261.35,202.75C261.75,202.883 262.217,203.283 262.75,203.95C263.65,205.05 264.267,206.133 264.6,207.2M267.7,204.6L268.05,205.3C268.65,206 268.833,206.817 268.6,207.75L268.6,207.9L268.3,210.65C268.067,211.95 267.633,213.383 267,214.95L266.95,215.15M266.1,214.45L266.1,214.5M265.9,217.25C264.9,218.883 263.75,220 262.45,220.6L262.1,220.9C261.667,221.633 261,221.933 260.1,221.8L258.65,221.95L257.25,221.9M253.9,220.45C253.133,219.817 252.483,218.967 251.95,217.9L251.4,217.25C251.133,216.95 251,216.35 251,215.45L250.7,214.15L250.6,213.3L250.55,212.6L250.65,210.85L250.75,210.1L250.8,209.9L250.95,209.55L250.95,209.5M251.8,205.45L252.25,204.65L252.9,203.7L253.5,203C253.733,201.833 254.367,201.217 255.4,201.15L256.35,200.55L256.55,200.5M267.2,208.7L267.2,208.75L266.9,211.7L266.1,214.45M267.2,208.7L267,207.25M265,217.25C264.233,218.717 263.383,219.833 262.45,220.6M255,202.95L255.4,202.55L255.95,202.1M254.5,203.6L255,202.95M252.25,209.65L252.35,208.55L252.35,207.95L252.45,207.25C252.65,206.517 253.1,205.617 253.8,204.55L254.5,203.6M252.25,214.8L252.1,213.8L251.95,212.45L251.95,211.9L252.05,210.75L252.15,210.05L252.25,209.65M252.95,216.95L252.8,216.6L252.7,216.35L252.5,215.8L252.3,215.05L252.25,214.8M254.6,219.45C253.933,218.85 253.383,218.017 252.95,216.95M261.15,219.65L260.8,219.95L260.55,220.1L259.85,220.45L258.25,220.75L257.6,220.75L256.7,220.55M263.4,216.1C262.767,217.667 262.017,218.85 261.15,219.65" style="fill:none;fill-rule:nonzero;stroke:#000;stroke-opacity:0.3;stroke-width:0.05px;"/>
                <path d="M250.95,209.55L251.05,209.55" style="fill:none;fill-rule:nonzero;stroke:#000;stroke-width:0.05px;"/>
                <path d="M263.8,200.75L262.3,201.5M264.85,208.1L266.1,207.85M264.9,208.65L266.35,208.7L267.2,208.7L268.6,207.75M266.35,205.6C265.717,205.8 265.133,206.333 264.6,207.2M264.75,207.7L265.75,207.1M266.4,205.65L268.05,205.3M255.4,201.15L255.7,201.65L255.95,202.1M255.4,202.55L254.95,202.05L254.9,202.1M254.25,202.55L255,202.95M253.5,203L253.65,203.1L254.5,203.6M252.7,216.35L252,216.7M252.5,215.8L251.95,216.05M252.3,215.05L251,215.45M252.95,216.95L251.95,217.9M260.8,219.95L261.75,220.45L261.15,219.65M260.55,220.1L260.7,220.7M259.85,220.45L260.1,221.8M261.75,220.45L262.1,220.9" style="fill:none;fill-rule:nonzero;stroke:#000;stroke-opacity:0.15;stroke-width:0.05px;"/>
                <path d="M267.4,213.85L267.5,213.5L267.95,213.85L268.5,215L268.75,215.5L267.25,215.15L265.6,214.75L266.1,214.3L265.6,214.75L265.5,214.75L265.5,214.8L264.85,214.35L265.5,214.8L264.9,216.3L264.4,217.5L264.85,214.35L264.15,213.95L264.05,213.95L264.15,213.35L265.7,214.1L265.75,214.1L265.7,214.15L265.75,214.15L266.1,214.3L267.05,214.6L267.3,214.6L267.9,214.75L267.4,213.85M265.7,214.1L265.75,214.1L265.7,214.1" style="fill:#c47909;"/>
                <path d="M263.65,219.2L262.65,217.3C263.25,216.3 263.7,215.233 264,214.1L264.05,213.95L264.15,213.95L264.85,214.35L264.4,217.5L264.4,217.55L264.1,218.3L263.65,219.2" style="fill:#925a07;"/>
                <path d="M265.6,214.75L267.25,215.15C267.05,216.383 266.5,217.35 265.6,218.05L264.4,217.55L264.4,217.5L264.9,216.3L265.5,214.8L265.5,214.75L265.6,214.75M265.75,214.1L265.75,214.15L265.7,214.15L265.75,214.1L265.75,214.15L265.75,214.1" style="fill:#5e3a04;"/>
                <path d="M267.25,215.15L268.75,215.5L268.8,215.5L268.8,215.55C267.767,216.983 267.15,217.967 266.95,218.5L266.8,218.95L263.7,219.2L263.7,219.25L263.65,219.25L263.65,219.2L263.7,219.2L263.65,219.2L263.7,219.2L263.65,219.2L264.1,218.3L264.4,217.55L265.6,218.05C266.5,217.35 267.05,216.383 267.25,215.15" style="fill:#452a02;"/>
                <path d="M267.4,213.85L267.9,214.75L267.3,214.6L267.05,214.6L267.4,213.85" style="fill:#2b1a01;"/>
                <path d="M268.75,215.5L268.5,215L267.95,213.85L267.5,213.5L267.4,213.85L267.05,214.6L266.1,214.3L265.6,214.75M267.9,214.75L267.3,214.6L267.05,214.6M268.75,215.5L268.8,215.5L268.8,215.55C267.767,216.983 267.15,217.967 266.95,218.5L266.8,218.95L263.7,219.2L263.7,219.25M263.65,219.2L262.65,217.3C263.25,216.3 263.7,215.233 264,214.1L264.05,213.95L264.15,213.35L265.7,214.1L265.75,214.1L265.7,214.1M265.75,214.15L266.1,214.3M264.15,213.95L264.85,214.35L265.5,214.8M265.75,214.15L265.75,214.1M263.65,219.2L263.7,219.2L263.65,219.2" style="fill:none;fill-rule:nonzero;stroke:#000;stroke-opacity:0.3;stroke-width:0.05px;"/>
                <path d="M257.4,220.6L255.2,220.35L253.8,219.85L252.05,221.6L252,221.5L253.9,218.65L253.95,218.65C254.95,219.583 256.067,220.183 257.3,220.45L257.4,220.45L257.4,220.6" style="fill:#c47909;"/>
                <path d="M252.05,221.6L253.8,219.85L255.2,220.35L257.4,220.6L257.4,220.45L257.45,220.45L258.4,220.1L258.5,220.8L257.8,221L257.65,221.95L257.45,223.2L258.25,222.65L258.25,222.6L258.75,221.95L258.8,221.95L259.4,221.8L258.2,223.25L258.2,223.3L256.85,224.15L256.9,223.95L257.25,221.2C256.917,222.333 256.283,222.85 255.35,222.75L254.6,222.65L252.4,221.9L252.05,221.6M257.4,220.6L257.25,221.2L257.4,220.6M257.45,220.45L257.8,221L257.45,220.45M257.45,223.2L256.9,223.95L257.45,223.2" style="fill:#925a07;"/>
                <path d="M257.4,220.45L257.3,220.45C256.067,220.183 254.95,219.583 253.95,218.65L255.1,218.4L258.4,220.1L257.45,220.45L257.4,220.45" style="fill:#452a02;"/>
                <path d="M258.75,221.95L258.25,222.6L258.25,222.65L257.45,223.2L257.65,221.95L258.75,221.95" style="fill:#2b1a01;"/>
                <path d="M252.4,221.9L254.6,222.65L255.35,222.75C256.283,222.85 256.917,222.333 257.25,221.2L256.9,223.95L256.85,224.15C255.15,223.583 253.667,222.833 252.4,221.9" style="fill:#5e3a04;"/>
                <path d="M253.95,218.65L253.9,218.65" style="fill:none;fill-rule:nonzero;stroke:#000;stroke-width:0.05px;"/>
                <path d="M257.4,220.6L257.4,220.45L257.3,220.45C256.067,220.183 254.95,219.583 253.95,218.65L255.1,218.4L258.4,220.1L258.5,220.8L257.8,221L257.45,220.45L258.4,220.1M253.9,218.65L252,221.5L252.05,221.6L252.4,221.9C253.667,222.833 255.15,223.583 256.85,224.15L258.2,223.3L258.2,223.25L259.4,221.8L258.8,221.95L257.65,221.95L257.8,221M257.25,221.2L257.4,220.6M257.4,220.45L257.45,220.45M257.65,221.95L257.45,223.2L258.25,222.65L258.25,222.6L258.75,221.95M256.9,223.95L256.85,224.15M257.25,221.2L256.9,223.95L257.45,223.2" style="fill:none;fill-rule:nonzero;stroke:#000;stroke-opacity:0.3;stroke-width:0.05px;"/>
                <path d="M253.4,206.6L252.3,206.5L250,205.2L251.3,204.5L252.55,204.3L252.3,204.55L251.05,205.2L253.35,206.5L251.05,205.2L251.85,205.6L253.35,206.5L253.4,206.55L253.4,206.6" style="fill:#c47909;"/>
                <path d="M251.05,205.2L252.3,204.55L252.35,204.5L251.85,205.6L251.05,205.2" style="fill:#2b1a01;"/>
                <path d="M250,205.2L252.3,206.5L251.2,210.35L250.9,210.5L249.9,210.5L249.95,210.25L250.7,209.75C251.2,209.25 251.45,208.517 251.45,207.55C251.45,207.217 251.333,206.95 251.1,206.75L250.1,206.1L250,205.2" style="fill:#925a07;"/>
                <path d="M249.9,210.5L250.9,210.5L251.2,210.35L251.05,211L250.95,210.95L249.85,210.7L249.9,210.5" style="fill:#5e3a04;"/>
                <path d="M250.1,206.1L251.1,206.75C251.333,206.95 251.45,207.217 251.45,207.55C251.45,208.517 251.2,209.25 250.7,209.75L249.95,210.25L250.2,207.6L250.25,207.5L250.1,206.1" style="fill:#b87209;"/>
                <path d="M251.2,210.35C251.833,210.017 252.317,209.583 252.65,209.05L252,211.3L251.1,211L251.05,211L251.2,210.35" style="fill:#452a02;"/>
                <path d="M252.3,206.5L253.4,206.6L252.65,209.05C252.317,209.583 251.833,210.017 251.2,210.35L252.3,206.5" style="fill:#784a06;"/>
                <path d="M252.3,206.5L253.4,206.6L253.4,206.55L253.35,206.5L251.05,205.2L252.3,204.55L252.55,204.3L251.3,204.5L250,205.2L252.3,206.5L251.2,210.35L251.05,211M252.65,209.05L253.4,206.6M252.3,204.55L252.35,204.5L251.85,205.6M249.95,210.25L249.9,210.5L249.85,210.7L250.95,210.95M251.1,211L252,211.3L252.65,209.05M250.1,206.1L250,205.2M249.95,210.25L250.2,207.6L250.25,207.5L250.1,206.1" style="fill:none;fill-rule:nonzero;stroke:#000;stroke-opacity:0.3;stroke-width:0.05px;"/>
                <path d="M252.4,206.5L252.4,206.4L252.4,206.5" style="fill:#fd952d;fill-opacity:0.8;"/>
                <path d="M260.2,203.6L259.75,203.45L259.6,203.3L258.2,202.75C258.1,202.65 258,202.6 257.9,202.6L257.4,202.25L257.4,202.2L257.8,202.15L263.1,204.2L263,204.95L262.05,204.5L260.6,203.85L260.2,203.6M256.85,208.5L257.55,209.5L256.8,208.7L256.75,208.65L256.7,208.55L255.7,207.45L254.05,205.75L253.2,205.1L254.05,204.95L255.05,205.85L256.85,208.5M262.4,207L263.55,206.35L264.5,206.6L262.5,207.5L261.8,209.45L262.15,208.35L262.4,207M261.65,218L261.45,217.05L262.8,211.95L261.65,218M253.95,218.55L252.85,218.7L253.3,218.4L253.8,217.8L254.7,216.3L254.75,216.25L254.9,215.85L255.05,215.5L254.9,215.95L254.85,216.25L254.05,218.2L253.95,218.55" style="fill:#948052;"/>
                <path d="M262.05,204.5L263,204.95L262.9,205.3L262.4,207L262.15,208.35C261.783,207.783 261.517,207.167 261.35,206.5C261.083,205.667 261.217,205 261.75,204.5L262.35,204.8L262.6,205L262.4,204.8L262.05,204.5" style="fill:#a84713;fill-opacity:0.8;"/>
                <path d="M255.05,209.2L255.3,209.65L255.45,209.9L255.55,210.1L254.85,210.65L254.7,210.75C254.167,211.017 253.667,211.15 253.2,211.15L253.1,211.15L252.7,211.05L252.5,210.9L252.1,210.65L251.95,210.5L252.5,207.7L252.65,207.2C253.517,207.667 254.317,208.333 255.05,209.2" style="fill:#f8a12a;"/>
                <path d="M255.85,216.05L255.85,216C256.717,215.667 257.5,214.95 258.2,213.85C258.867,212.85 259.367,211.667 259.7,210.3L260.05,207.7C260.15,206.3 260.067,205 259.8,203.8L260.2,203.6L260.6,203.85C261.1,205.45 261.283,207.25 261.15,209.25C260.983,212.017 260.283,214.333 259.05,216.2L257.7,217.8L257.45,218.05L257.25,218.2L256.45,218.55L256.2,217.85L255.85,216.05" style="fill:#363636;"/>
                <path d="M256.35,220.7L254.65,219.9L253.95,218.55L254.05,218.2L254.85,216.25L254.95,216.25L255,216.75L255.4,218.85L255.45,218.85C255.617,219.45 255.833,220 256.1,220.5L256.3,220.6L256.35,220.7M252.2,217.45L251.85,216.8L252.2,215.05C252.5,215.383 252.817,215.65 253.15,215.85L253.45,216L253.7,216.05L254.5,216.25L254.75,216.25L254.7,216.3L253.5,217.65L252.75,218.1L252.2,217.45" style="fill:url(#_Radial1);"/>
                <path d="M260.6,203.85L262.05,204.5L262.4,204.8L262.6,205L262.35,204.8L261.75,204.5C261.217,205 261.083,205.667 261.35,206.5C261.517,207.167 261.783,207.783 262.15,208.35L261.8,209.45L262.75,209.75L260.4,214.45L263.15,210C263.417,210.133 263.683,210.317 263.95,210.55L263.75,211.05L263.75,213.95L261.7,218.05L261.65,218.1L261.65,218L261.7,218.05L261.65,218L262.8,211.95L261.45,217.05L261.4,217.4L261.35,217.4C260.883,217.733 260.167,217.483 259.2,216.65L260.5,218.05L260.85,218.3L260.85,218.35L260.15,220L260.1,220C259.4,220.167 258.75,220.433 258.15,220.8L257.9,220.6C257.267,220 256.8,219.35 256.5,218.65L256.45,218.55L257.25,218.2L257.45,218.05L257.7,217.8L259.05,216.2C260.283,214.333 260.983,212.017 261.15,209.25C261.283,207.25 261.1,205.45 260.6,203.85" style="fill:#1c1c1c;"/>
                <path d="M258.9,204.15L259.1,204.05L259.75,203.85L259.8,203.8C260.067,205 260.15,206.3 260.05,207.7L259.7,210.3C259.367,211.667 258.867,212.85 258.2,213.85C257.5,214.95 256.717,215.667 255.85,216L255.85,216.05L255.8,215.9L255.85,214.2L255.9,213.75L256,213.3L256,212.9L256.3,212.75C257.167,211.883 257.85,210.767 258.35,209.4L258.55,208.9L258.9,207.65L259.05,206.25L259.05,205.6L259,205.2L258.9,204.45L258.9,204.15M259.6,203.3L259.25,203.7L258.85,203.95L258.2,202.75L259.6,203.3M252.2,215.05C252.233,214.217 252.017,213.3 251.55,212.3L251.55,211.7L251.7,211.75L251.85,211.85C252.083,211.917 252.4,212.1 252.8,212.4L253.2,212.65L254.05,213.4L254.15,213.6L254.25,213.7L254.35,213.9L254.9,215.85L254.75,216.25L254.5,216.25L253.7,216.05L253.45,216L253.15,215.85C252.817,215.65 252.5,215.383 252.2,215.05M254.95,216.25L254.85,216.25L254.9,215.95L254.95,216.25" style="fill:#4f4f4f;"/>
                <path d="M258.9,204.15L258.9,204.45L259,205.2L259.05,205.6L259.05,206.25L258.9,207.65L258.55,208.9L258.35,209.4C257.85,210.767 257.167,211.883 256.3,212.75L256,212.9L256,212.85C256.067,212.083 255.983,211.367 255.75,210.7L255.55,210.1L256.75,208.65L256.8,208.7L257.55,209.5L256.85,208.5L257.2,207.85L257.6,206.8L257.95,205.75L257.95,205.5L258,205.3L258,205.15L258.05,204.8L258,204.25L258,203.85L257.65,202.75L257.35,202.3L257.4,202.25L257.9,202.6C258,202.6 258.1,202.65 258.2,202.75L258.85,203.95L258.65,204.05L258.4,204.2L258.9,204.15" style="fill:#595959;"/>
                <path d="M256.55,202.4L257.2,202.3L257.35,202.3L257.65,202.75L258,203.85L258,204.25L258.05,204.8L258,205.15L258,205.3L257.95,205.5L257.95,205.75L257.6,206.8L257.2,207.85L256.85,208.5L255.05,205.85L254.5,204.2C255,203.4 255.683,202.8 256.55,202.4M256.75,208.65L255.55,210.1L255.45,209.9L255.3,209.65L255.05,209.2L254.55,208.55L253.05,207.05L252.4,206.5L252.55,205.8L252.65,205.75L252.7,205.65L253.1,205.5C254.467,206.533 255.667,207.55 256.7,208.55L256.75,208.65" style="fill:#666;"/>
                <path d="M255.55,210.1L255.75,210.7C255.983,211.367 256.067,212.083 256,212.85L255.4,213.4L255.15,213.5C254.883,213.7 254.617,213.833 254.35,213.9L254.25,213.7L254.15,213.6L254.05,213.4L253.2,212.65L252.8,212.4C252.4,212.1 252.083,211.917 251.85,211.85L251.7,211.75L251.55,211.7C251.417,211.7 251.45,211.65 251.65,211.55L251.75,210.9L251.95,210.5L252.1,210.65L252.5,210.9L252.7,211.05L253.1,211.15L253.2,211.15C253.667,211.15 254.167,211.017 254.7,210.75L254.85,210.65L255.55,210.1" style="fill:#de8f25;"/>
                <path d="M256,212.9L256,213.3L255.9,213.75L255.85,214.2L255.8,215.9L255.2,216.2L254.95,216.25L254.9,215.95L255.05,215.5L254.9,215.85L254.35,213.9C254.617,213.833 254.883,213.7 255.15,213.5L255.4,213.4L256,212.85L256,212.9" style="fill:#c47e21;"/>
                <path d="M255.8,215.9L255.85,216.05L256.2,217.85L256.45,218.55L256.5,218.65L256,218.85L255.75,218.9L255.7,218.85L255.4,218.85L255,216.75L254.95,216.25L255.2,216.2L255.8,215.9" style="fill:#ab6b1c;"/>
                <path d="M258.15,220.8L257.55,221.3L257.45,221.2L256.65,220.9L256.35,220.7L256.3,220.6L256.1,220.5C255.833,220 255.617,219.45 255.45,218.85L255.7,218.85L255.75,218.9L256,218.85L256.5,218.65C256.8,219.35 257.267,220 257.9,220.6L258.15,220.8" style="fill:#915a17;"/>
                <path d="M261.8,209.45L262.5,207.5L264.5,206.6L264.8,208.45L263.95,210.55C263.683,210.317 263.417,210.133 263.15,210L263.3,209.75L263.6,208.05L262.75,209.75L261.8,209.45" style="fill:#8f3a0f;"/>
                <path d="M251.75,210.9L252.4,206.6L252.4,206.5L253.05,207.05L254.55,208.55L255.05,209.2C254.317,208.333 253.517,207.667 252.65,207.2L252.5,207.7L251.95,210.5L251.75,210.9" style="fill:#fc0;"/>
                <path d="M261.35,217.4L260.5,218.05L259.2,216.65C260.167,217.483 260.883,217.733 261.35,217.4" style="fill:#615436;"/>
                <path d="M252.85,218.7L252.2,217.45L252.75,218.1L253.5,217.65L254.7,216.3L253.8,217.8L253.3,218.4L252.85,218.7M252.7,205.65L253.2,205.1L254.05,205.75L255.7,207.45L256.7,208.55C255.667,207.55 254.467,206.533 253.1,205.5L252.7,205.65M255.05,205.85L254.05,204.05C254.917,203.217 255.75,202.667 256.55,202.4C255.683,202.8 255,203.4 254.5,204.2L255.05,205.85" style="fill:#c7ac6f;"/>
                <path d="M259.8,203.8L259.75,203.85L259.1,204.05L258.9,204.15L258.4,204.2L258.65,204.05L258.85,203.95L259.25,203.7L259.6,203.3L259.75,203.45L260.2,203.6L259.8,203.8M263.15,210L260.4,214.45L263.6,208.05L263.3,209.75L263.15,210" style="fill:#c24f15;"/>
                <path d="M263,204.95L263.1,204.2L257.8,202.15L257.4,202.2L257.4,202.25L257.35,202.3L257.2,202.3L256.55,202.4C255.75,202.667 254.917,203.217 254.05,204.05L255.05,205.85L254.05,204.95L253.2,205.1L252.7,205.65L252.65,205.75L252.55,205.8L252.7,205.65M264.5,206.6L263.55,206.35L262.4,207L262.9,205.3M264.5,206.6L264.8,208.45L263.95,210.55L263.75,211.05M261.4,217.4L261.35,217.4M258.15,220.8L257.55,221.3L257.45,221.2L256.65,220.9L256.35,220.7L254.65,219.9L253.95,218.55L252.85,218.7L252.2,217.45L251.85,216.8L252.2,215.05C252.233,214.217 252.017,213.3 251.55,212.3L251.55,211.7C251.417,211.7 251.45,211.65 251.65,211.55L251.75,210.9L252.4,206.6M252.4,206.5L252.55,205.8M256.3,220.6L256.35,220.7M261.65,218L261.7,218.05M254.9,215.95L255.05,215.5L254.9,215.85L254.75,216.25L254.7,216.3L253.8,217.8L253.3,218.4L252.85,218.7M254.85,216.25L254.05,218.2L253.95,218.55M254.9,215.95L254.85,216.25" style="fill:none;fill-rule:nonzero;stroke:#000;stroke-opacity:0.3;stroke-width:0.05px;"/>
                <path d="M264.5,202.35L264.5,201.8L266.6,201.8L266.55,201.95L266.25,202.6L264.5,202.35" style="fill:#402501;"/>
                <path d="M260.35,199.6L260.3,199.3L260.1,198.7L260.7,198.7L260.7,199.6L260.35,199.6" style="fill:#8a5507;"/>
                <path d="M266.6,201.8L266.55,201.95L266.25,202.6L264.5,202.35M260.35,199.6L260.3,199.3L260.1,198.7" style="fill:none;fill-rule:nonzero;stroke:#000;stroke-opacity:0.3;stroke-width:0.05px;"/>
                <path d="M263.1,194.35L263.05,194.35C263.317,194.583 263.45,194.8 263.45,195C263.45,195.333 262.817,195.667 261.55,196L261,196.2C260.067,196.567 259.6,197.117 259.6,197.85L259.4,199.1C259.233,199.633 258.967,199.9 258.6,199.9L258.35,199.85L257.65,198.7L257.6,198.7L257.6,198.6C257.6,197.7 257.85,196.783 258.35,195.85C258.983,194.983 259.75,194.4 260.65,194.1L262.1,193.95L262.5,194.05L262.7,194.15L262.95,194.25L263.1,194.35M258.8,198.75L258.7,198.45L258.4,198.35C258.1,198.35 257.95,198.483 257.95,198.75C257.95,199.05 258.1,199.2 258.4,199.2L258.7,199L258.8,198.75M258.6,198.05C258.767,198.05 258.883,197.767 258.95,197.2C259.05,196.567 259.45,196.017 260.15,195.55C260.883,195.017 261.6,194.733 262.3,194.7C262.3,193.867 261.6,193.817 260.2,194.55C258.833,195.283 258.167,196.283 258.2,197.55L258.25,197.8L258.6,198.05" style="fill:#5e5e5e;"/>
                <path d="M258.6,198.05L258.25,197.8L258.2,197.55C258.167,196.283 258.833,195.283 260.2,194.55C261.6,193.817 262.3,193.867 262.3,194.7C261.6,194.733 260.883,195.017 260.15,195.55C259.45,196.017 259.05,196.567 258.95,197.2C258.883,197.767 258.767,198.05 258.6,198.05M258.8,198.75L258.7,199L258.4,199.2C258.1,199.2 257.95,199.05 257.95,198.75C257.95,198.483 258.1,198.35 258.4,198.35L258.7,198.45L258.8,198.75" style="fill:#aeaeae;"/>
                <path d="M259.05,201.25C259.483,201.283 259.867,201.1 260.2,200.7L260.85,199.75L261.6,199.7L262.4,198.85C262.667,198.483 262.8,198.1 262.8,197.7L262.8,197.5L263.2,197.5C263.6,197.333 263.9,196.917 264.1,196.25L264.1,196.95C264.1,197.783 263.817,198.617 263.25,199.45C262.783,200.283 262.217,200.867 261.55,201.2L259.9,201.55L259.05,201.25" style="fill:#262626;"/>
                <path d="M257.6,198.7L257.65,198.7L258.35,199.85L258.6,199.9C258.967,199.9 259.233,199.633 259.4,199.1L259.6,197.85C259.6,197.117 260.067,196.567 261,196.2L261.55,196C262.817,195.667 263.45,195.333 263.45,195C263.45,194.8 263.317,194.583 263.05,194.35L263.1,194.35L263.45,194.75L263.55,194.85L263.9,195.4L263.9,195.55L263.95,195.55L264.1,196.25C263.9,196.917 263.6,197.333 263.2,197.5L262.8,197.5L262.4,196.9L261.65,196.85L261.6,196.9L260.75,197.7C260.517,198.1 260.4,198.483 260.4,198.85L260.4,198.9L260.65,199.6L260.75,199.65L260.85,199.75L260.2,200.7C259.867,201.1 259.483,201.283 259.05,201.25L258.5,200.85C258.133,200.583 257.883,200.2 257.75,199.7L257.65,199.2L257.65,199.15L257.6,198.75L257.6,198.7" style="fill:#404040;"/>
                <path d="M260.85,199.75L260.75,199.65L260.65,199.6L260.4,198.9L260.45,198.85L261.3,198.05L261.65,196.9L261.65,196.85L262.4,196.9L262.8,197.5L262.8,197.7C262.8,198.1 262.667,198.483 262.4,198.85L261.6,199.7L260.85,199.75" style="fill:#0d0d0d;"/>
                <path d="M263.1,194.35L262.95,194.25L262.7,194.15L262.5,194.05L262.1,193.95L260.65,194.1C259.75,194.4 258.983,194.983 258.35,195.85C257.85,196.783 257.6,197.7 257.6,198.6L257.6,198.75L257.65,199.15L257.65,199.2L257.75,199.7C257.883,200.2 258.133,200.583 258.5,200.85L259.05,201.25L259.9,201.55L261.55,201.2C262.217,200.867 262.783,200.283 263.25,199.45C263.817,198.617 264.1,197.783 264.1,196.95L264.1,196.25L263.95,195.55L263.9,195.55L263.9,195.4L263.55,194.85L263.45,194.75L263.1,194.35M260.85,199.75L260.75,199.65L260.65,199.6L260.4,198.9L260.4,198.85C260.4,198.483 260.517,198.1 260.75,197.7L261.6,196.9L261.65,196.85L262.4,196.9L262.8,197.5L262.8,197.7C262.8,198.1 262.667,198.483 262.4,198.85L261.6,199.7L260.85,199.75M261.65,196.85L261.65,196.9L261.3,198.05L260.45,198.85L260.4,198.9" style="fill:none;fill-rule:nonzero;stroke:#000;stroke-opacity:0.3;stroke-width:0.05px;"/>
                <path d="M261.1,198.05C261.467,198.05 261.65,197.867 261.65,197.5C261.65,197.1 261.467,196.9 261.1,196.9C260.7,196.9 260.5,197.1 260.5,197.5C260.5,197.867 260.7,198.05 261.1,198.05M260.1,199.05L259.95,198.35C259.95,197.817 260.133,197.367 260.5,197C260.833,196.667 261.267,196.5 261.8,196.5L262,196.5L262.2,196.55L262.45,197C262.683,197.7 262.517,198.317 261.95,198.85L260.7,199.25L260.1,199.05" style="fill:#945b07;"/>
                <path d="M261.1,198.05C260.7,198.05 260.5,197.867 260.5,197.5C260.5,197.1 260.7,196.9 261.1,196.9C261.467,196.9 261.65,197.1 261.65,197.5C261.65,197.867 261.467,198.05 261.1,198.05" style="fill:#f7a833;"/>
                <path d="M262.2,196.55C262.533,196.617 262.833,196.767 263.1,197C263.467,197.367 263.65,197.817 263.65,198.35C263.65,198.85 263.467,199.283 263.1,199.65C262.767,199.983 262.333,200.15 261.8,200.15C261.267,200.15 260.833,199.983 260.5,199.65L260.1,199.05L260.7,199.25L261.95,198.85C262.517,198.317 262.683,197.7 262.45,197L262.2,196.55" style="fill:#663e04;"/>
                <path d="M260.1,199.05L259.95,198.35C259.95,197.817 260.133,197.367 260.5,197C260.833,196.667 261.267,196.5 261.8,196.5L262,196.5M262.2,196.55C262.533,196.617 262.833,196.767 263.1,197C263.467,197.367 263.65,197.817 263.65,198.35C263.65,198.85 263.467,199.283 263.1,199.65C262.767,199.983 262.333,200.15 261.8,200.15C261.267,200.15 260.833,199.983 260.5,199.65L260.1,199.05L262.2,196.55Z" style="fill:none;fill-rule:nonzero;stroke:#000;stroke-opacity:0.3;stroke-width:0.05px;"/>
                <path d="M262.6,201.7L262.6,201.6C262.6,200.667 262.85,199.733 263.35,198.8C264.017,197.9 264.817,197.283 265.75,196.95L267.25,196.8L267.65,196.9L267.85,197L268.1,197.15L268.25,197.25L268.2,197.25L268.65,197.9C268.65,198.233 267.983,198.583 266.65,198.95L266.1,199.15C265.133,199.517 264.65,200.083 264.65,200.85L264.45,202.15C264.283,202.683 264.017,202.95 263.65,202.95L263.35,202.9L262.65,201.7L262.6,201.7M263.4,202.25L263.75,202.05L263.85,201.8L263.75,201.45L263.4,201.35C263.1,201.35 262.95,201.5 262.95,201.8C262.95,202.1 263.1,202.25 263.4,202.25L263.4,202.3L263.4,202.25M263.65,201.05C263.817,201.05 263.933,200.75 264,200.15C264.1,199.517 264.517,198.95 265.25,198.45C265.983,197.917 266.717,197.633 267.45,197.6C267.45,196.733 266.733,196.683 265.3,197.45C263.867,198.183 263.167,199.217 263.2,200.55L263.25,200.8L263.65,201.05" style="fill:#5e5e5e;"/>
                <path d="M268.25,197.25L268.75,197.75L269.1,198.3L269.1,198.45L269.15,198.45L269.3,199.2C269.1,199.867 268.8,200.3 268.4,200.5L267.95,200.5C267.883,200.2 267.75,199.983 267.55,199.85L266.8,199.8L266.7,199.85C266.367,200.017 266.083,200.3 265.85,200.7C265.617,201.1 265.5,201.5 265.5,201.9L265.5,201.95C265.5,202.25 265.583,202.483 265.75,202.65L265.85,202.7L265.95,202.8L265.3,203.8C264.933,204.2 264.533,204.383 264.1,204.35L263.5,203.95C263.133,203.683 262.883,203.283 262.75,202.75L262.65,202.25L262.65,202.2L262.6,201.8L262.6,201.7L262.65,201.7L263.35,202.9L263.65,202.95C264.017,202.95 264.283,202.683 264.45,202.15L264.65,200.85C264.65,200.083 265.133,199.517 266.1,199.15L266.65,198.95C267.983,198.583 268.65,198.233 268.65,197.9L268.2,197.25L268.25,197.25" style="fill:#4f4f4f;"/>
                <path d="M266.8,199.8L267.55,199.85C267.75,199.983 267.883,200.2 267.95,200.5L267.95,200.7C267.95,201.1 267.817,201.5 267.55,201.9L266.7,202.75L265.95,202.8L265.85,202.7L265.75,202.65C265.583,202.483 265.5,202.25 265.5,201.95L266.4,201.05C266.667,200.65 266.8,200.25 266.8,199.85L266.8,199.8" style="fill:#1c1c1c;"/>
                <path d="M269.3,199.2L269.3,199.9C269.3,200.767 269.017,201.633 268.45,202.5C267.95,203.367 267.35,203.967 266.65,204.3L264.95,204.65L264.1,204.35C264.533,204.383 264.933,204.2 265.3,203.8L265.95,202.8L266.7,202.75L267.55,201.9C267.817,201.5 267.95,201.1 267.95,200.7L267.95,200.5L268.4,200.5C268.8,200.3 269.1,199.867 269.3,199.2" style="fill:#363636;"/>
                <path d="M263.4,202.25C263.1,202.25 262.95,202.1 262.95,201.8C262.95,201.5 263.1,201.35 263.4,201.35L263.75,201.45L263.85,201.8L263.75,202.05L263.4,202.25M263.65,201.05L263.25,200.8L263.2,200.55C263.167,199.217 263.867,198.183 265.3,197.45C266.733,196.683 267.45,196.733 267.45,197.6C266.717,197.633 265.983,197.917 265.25,198.45C264.517,198.95 264.1,199.517 264,200.15C263.933,200.75 263.817,201.05 263.65,201.05" style="fill:#aeaeae;"/>
                <path d="M262.6,201.7L262.6,201.6C262.6,200.667 262.85,199.733 263.35,198.8C264.017,197.9 264.817,197.283 265.75,196.95L267.25,196.8L267.65,196.9L267.85,197L268.1,197.15L268.25,197.25L268.75,197.75L269.1,198.3L269.1,198.45L269.15,198.45L269.3,199.2L269.3,199.9C269.3,200.767 269.017,201.633 268.45,202.5C267.95,203.367 267.35,203.967 266.65,204.3L264.95,204.65L264.1,204.35L263.5,203.95C263.133,203.683 262.883,203.283 262.75,202.75L262.65,202.25L262.65,202.2L262.6,201.8L262.6,201.7M265.5,201.95L265.5,201.9C265.5,201.5 265.617,201.1 265.85,200.7C266.083,200.3 266.367,200.017 266.7,199.85L266.8,199.8L267.55,199.85C267.75,199.983 267.883,200.2 267.95,200.5L267.95,200.7C267.95,201.1 267.817,201.5 267.55,201.9L266.7,202.75L265.95,202.8L265.85,202.7L265.75,202.65C265.583,202.483 265.5,202.25 265.5,201.95L266.4,201.05C266.667,200.65 266.8,200.25 266.8,199.85L266.8,199.8" style="fill:none;fill-rule:nonzero;stroke:#000;stroke-opacity:0.3;stroke-width:0.05px;"/>
                <path d="M267.25,199.45L267.45,199.5L267.7,199.95C267.933,200.65 267.767,201.267 267.2,201.8C266.767,202.1 266.35,202.233 265.95,202.2L265.35,202C265.25,201.767 265.2,201.533 265.2,201.3C265.2,200.767 265.383,200.317 265.75,199.95C266.083,199.617 266.517,199.45 267.05,199.45L267.25,199.45M266.9,200.45C266.9,200.05 266.717,199.85 266.35,199.85C265.95,199.85 265.75,200.05 265.75,200.45C265.75,200.817 265.95,201 266.35,201C266.717,201 266.9,200.817 266.9,200.45" style="fill:#945b07;"/>
                <path d="M266.9,200.45C266.9,200.817 266.717,201 266.35,201C265.95,201 265.75,200.817 265.75,200.45C265.75,200.05 265.95,199.85 266.35,199.85C266.717,199.85 266.9,200.05 266.9,200.45" style="fill:#f7a833;"/>
                <path d="M267.45,199.5L268.35,199.95C268.717,200.317 268.9,200.767 268.9,201.3C268.9,201.8 268.717,202.233 268.35,202.6C268.017,202.933 267.583,203.1 267.05,203.1C266.517,203.1 266.083,202.933 265.75,202.6L265.35,202L265.95,202.2C266.35,202.233 266.767,202.1 267.2,201.8C267.767,201.267 267.933,200.65 267.7,199.95L267.45,199.5" style="fill:#663e04;"/>
                <path d="M267.45,199.5L268.35,199.95C268.717,200.317 268.9,200.767 268.9,201.3C268.9,201.8 268.717,202.233 268.35,202.6C268.017,202.933 267.583,203.1 267.05,203.1C266.517,203.1 266.083,202.933 265.75,202.6L265.35,202C265.25,201.767 265.2,201.533 265.2,201.3C265.2,200.767 265.383,200.317 265.75,199.95C266.083,199.617 266.517,199.45 267.05,199.45L267.25,199.45" style="fill:none;fill-rule:nonzero;stroke:#000;stroke-opacity:0.3;stroke-width:0.05px;"/>
            </g>
            <g id="sprite0" transform="matrix(1.2825,-1.7896,1.3576,0.9729,266.25,200.6)">
                <g id="shape1">
                    <path d="M1.55,-1.55C1.983,-1.117 2.2,-0.6 2.2,0C2.2,0.6 1.983,1.117 1.55,1.55C1.117,1.983 0.6,2.2 0,2.2C-0.6,2.2 -1.117,1.983 -1.55,1.55C-1.983,1.117 -2.2,0.6 -2.2,0C-2.2,-0.6 -1.983,-1.117 -1.55,-1.55C-1.117,-1.983 -0.6,-2.2 0,-2.2C0.6,-2.2 1.117,-1.983 1.55,-1.55" style="fill:url(#_Radial2);"/>
                </g>
            </g>
            <g id="sprite01" serif:id="sprite0" transform="matrix(1.2825,-1.7896,1.3576,0.9729,261.1,197.7)">
                <g id="shape11" serif:id="shape1">
                    <path d="M1.55,-1.55C1.983,-1.117 2.2,-0.6 2.2,0C2.2,0.6 1.983,1.117 1.55,1.55C1.117,1.983 0.6,2.2 0,2.2C-0.6,2.2 -1.117,1.983 -1.55,1.55C-1.983,1.117 -2.2,0.6 -2.2,0C-2.2,-0.6 -1.983,-1.117 -1.55,-1.55C-1.117,-1.983 -0.6,-2.2 0,-2.2C0.6,-2.2 1.117,-1.983 1.55,-1.55" style="fill:url(#_Radial3);"/>
                </g>
            </g>
            <g id="sprite02" serif:id="sprite0" transform="matrix(1.5179,-4.9341,2.6985,0.8302,256.95,209.55)">
                <g id="shape12" serif:id="shape1">
                    <path d="M1.55,-1.55C1.983,-1.117 2.2,-0.6 2.2,0C2.2,0.6 1.983,1.117 1.55,1.55C1.117,1.983 0.6,2.2 0,2.2C-0.6,2.2 -1.117,1.983 -1.55,1.55C-1.983,1.117 -2.2,0.6 -2.2,0C-2.2,-0.6 -1.983,-1.117 -1.55,-1.55C-1.117,-1.983 -0.6,-2.2 0,-2.2C0.6,-2.2 1.117,-1.983 1.55,-1.55" style="fill:url(#_Radial4);"/>
                </g>
            </g>
        </g>
    </g>
    <defs>
        <radialGradient id="_Radial1" cx="0" cy="0" r="1" gradientUnits="userSpaceOnUse" gradientTransform="matrix(12.6157,-3.03104,2.78528,13.4349,255.4,209.9)"><stop offset="0" style="stop-color:#5f6056;stop-opacity:1"/><stop offset="0.16" style="stop-color:#414141;stop-opacity:1"/><stop offset="1" style="stop-color:#1c1c1c;stop-opacity:1"/></radialGradient>
        <radialGradient id="_Radial2" cx="0" cy="0" r="1" gradientUnits="userSpaceOnUse" gradientTransform="matrix(1.72032,0,0,1.72032,0,0)"><stop offset="0" style="stop-color:#fff;stop-opacity:0.35"/><stop offset="1" style="stop-color:#fff;stop-opacity:0"/></radialGradient>
        <radialGradient id="_Radial3" cx="0" cy="0" r="1" gradientUnits="userSpaceOnUse" gradientTransform="matrix(1.72032,0,0,1.72032,0,0)"><stop offset="0" style="stop-color:#fff;stop-opacity:0.35"/><stop offset="1" style="stop-color:#fff;stop-opacity:0"/></radialGradient>
        <radialGradient id="_Radial4" cx="0" cy="0" r="1" gradientUnits="userSpaceOnUse" gradientTransform="matrix(1.72032,0,0,1.72032,0,0)"><stop offset="0" style="stop-color:#fff;stop-opacity:0.35"/><stop offset="1" style="stop-color:#fff;stop-opacity:0"/></radialGradient>
    </defs>
</svg>
