<?xml version="1.0" encoding="UTF-8"?>
<svg version="1.1" viewBox="0 0 74.25 97.8" xmlns="http://www.w3.org/2000/svg" xmlns:cc="http://creativecommons.org/ns#" xmlns:dc="http://purl.org/dc/elements/1.1/" xmlns:rdf="http://www.w3.org/1999/02/22-rdf-syntax-ns#" xmlns:xlink="http://www.w3.org/1999/xlink">
<metadata>
<rdf:RDF>
<cc:Work rdf:about="">
<dc:format>image/svg+xml</dc:format>
<dc:type rdf:resource="http://purl.org/dc/dcmitype/StillImage"/>
</cc:Work>
</rdf:RDF>
</metadata>
<g transform="translate(-212.42 -73.075)">
<use transform="translate(212.45,73.1)" width="74.199997" height="97.75" xlink:href="#f"/>
<use transform="matrix(.3572 -.4091 .1671 .1459 280.6 143.55)" width="7.0999999" height="7.0999999" xlink:href="#b"/>
<use transform="matrix(.3815 0 0 .3815 243.5 161.05)" width="18" height="18" xlink:href="#a"/>
<use transform="matrix(.281 0 0 .281 228.8 151.25)" width="18" height="18" xlink:href="#a"/>
<use transform="matrix(.1804 0 0 .1804 242.1 144.3)" width="18" height="18" xlink:href="#a"/>
<use transform="matrix(.087 .2319 -.2319 .087 246.85 129.7)" width="18" height="18" xlink:href="#a"/>
<use transform="matrix(.1818 0 0 .1818 251.9 122)" width="18" height="18" xlink:href="#a"/>
<use transform="matrix(.1832 0 0 .1832 250.8 101.2)" width="18" height="18" xlink:href="#a"/>
<use transform="matrix(.1821 .1677 -.1677 .1821 260.75 128.3)" width="18" height="18" xlink:href="#a"/>
<use transform="matrix(.1143 0 0 .1143 264.5 151)" width="18" height="18" xlink:href="#a"/>
<use transform="matrix(.0818 -.2337 .2337 .0818 254.05 153.2)" width="18" height="18" xlink:href="#a"/>
<use transform="matrix(.0068 .1195 -.1195 .0068 253.75 78.1)" width="18" height="18" xlink:href="#a"/>
<use transform="matrix(.1171 0 0 .1171 247 88.9)" width="18" height="18" xlink:href="#a"/>
<use transform="matrix(.1846 0 0 .1846 242.7 110.2)" width="18" height="18" xlink:href="#a"/>
<use transform="translate(225.95,90)" width="52" height="80" xlink:href="#c"/>
</g>
<defs>
<g id="f" transform="translate(37.1,48.85)">
<path d="m-30.5-0.5h-0.05 0.05" fill="#63030d" fill-rule="evenodd"/>
<path d="m-21.1 13.15h-0.05l0.05-0.05v0.05m32.15 25.9 0.05 0.15-1.5 0.5 1.45-0.65" fill="#c4061a" fill-rule="evenodd"/>
<path d="m6.3-7.5 4.75 1.2-4.85-0.9 0.1-0.3" fill="#630008" fill-rule="evenodd"/>
<path d="m-16.6 12.15-2.3-1 0.05-0.1 2.25 1.1" fill="#cf035a" fill-rule="evenodd"/>
<path d="m15 36.75h0.2q-0.1 0-0.15 0.1l-0.05-0.1" fill="#db114e" fill-rule="evenodd"/>
<path d="m-18.9 11.15-2.75-1.4 2.8 1.3-0.05 0.1" fill="#4d152d" fill-rule="evenodd"/>
<path d="m32.6 27.5-1.1 2.1-3.25 2.7-0.35 0.3-2.25 1.45-2.45 1.45-0.85 0.45-2.6 1.25-2.8 1.25-0.25 0.1-2.95 1.1-1.9 0.6-3.75 0.9-3.5 0.5h-0.55l-0.55 0.05 1.05-0.2 3-0.9 0.1-0.05 1.85-0.8 0.1-0.05 1.5-0.5 5.3-1.8 0.15 0.4q3.4-2.05 6.85-4.05l9.2-6.25m-53.7-14.4v0.05-0.05m3.05 11.7-2.75-2.15-0.05-0.15-0.05-1.7 0.3-3.75v-0.15l2.35 0.35-0.05 0.25-0.25 0.6 0.45 6.1 0.05 0.6" fill="#8c0010" fill-rule="evenodd"/>
<path d="m-18.2 17.25h0.1v0.05l-0.05 0.2v0.05l-0.1-0.05h-0.05l0.1-0.2v-0.05" fill="#8d0311" fill-rule="evenodd"/>
<path d="m-17.6 15.4 0.1 0.05-0.1-0.05m-0.65 1.85h0.05v0.05l-0.05-0.05" fill="#9d0043" fill-rule="evenodd"/>
<path d="m-18.2 17.3-0.1 0.2 0.05-0.25 0.05 0.05" fill="#91003e" fill-rule="evenodd"/>
<path d="m-18.1 17.25 0.05 0.05-0.1 0.2 0.05-0.2v-0.05" fill="#f00" fill-opacity=".4902" fill-rule="evenodd"/>
<path d="m-18.15 17.55-0.15-0.05h0.05l0.1 0.05" fill="#75000f" fill-rule="evenodd"/>
<path d="m28.05 32.75-1.9 2.6-0.5-1.3 2.25-1.45 0.15 0.15" fill="#310c18" fill-rule="evenodd"/>
<path d="m15 36.85v-0.1l0.05 0.1h-0.05" fill="#e70463" fill-rule="evenodd"/>
<path d="m21.45 6.6 1.45 1.75q3.5 5.5 3.5 12.45 0 3.95-1.1 7.35l-7.45 6.75-0.05 0.05-0.65 0.5q-0.45 0.3-1.95 1.3h-0.2l-8.5 0.95-6.55-1.65-3.25-2.7-0.05-0.8-0.5-5.2 1.3-6.55 0.35-1.6-0.25-1.7 1.5 0.05-0.2 2.15q0 4.95 3.5 8.45t8.45 3.5 8.45-3.5 3.5-8.45-3.5-8.45-8.45-3.5-8.45 3.5q-1.75 1.75-2.6 3.9l-2.6-0.35v-0.1l-0.45-3.15-3.25-3.25-4.05-1q8.35-1.95 3.2-4.35 14.85-5.25 21.95-1.1 4.75 2.8 6.9 4.75" fill="#f60" fill-rule="evenodd"/>
<path d="m26.15 35.35-1 1.25h-0.05q-2.3 2.7-4.6 4.6-3.8 3.2-8 4.85l-3.55 1.15q-3.4 0.8-7.1 0.85-13.65-0.05-23.3-11.45-4.1-4.9-6.35-10.3-1.35-3.25-2.25-7.05l-0.6-3.6-0.35-5.95v-0.75l1.05 0.8 0.65 0.45 0.05 0.05 3.55 2 3.8 1.7 0.4 0.2 1.4 0.5-0.5 2.25v0.15l-0.3 3.75 0.05 1.7 0.05 0.15 0.45 3.35q1.35 6.5 6.4 11.5 6.9 6.95 16.7 6.95 4 0 7.35-1.1l2.25-0.85q2.8-1.25 5.4-3.35l2-1.95 2.6-1.25 0.85-0.45 2.45-1.45 0.5 1.3m-28.7-14.55-1.3 6.55 0.5 5.2-5.65-2.3-0.35-0.75-8.75-5.3-0.45-6.1 0.25-0.6 0.15 0.05v-0.05l0.1-0.2-0.05-0.05h-0.1l0.7-1.8 0.55 0.15 7.45 1.45-0.5 2.2q1.85 13.25 7.45 1.55m-6.2-6.85-2-0.4-5.45-1.3 0.9-2.3 0.95-0.6 4.2-0.25 2.1 1.8-0.7 3.05" fill="#a61515" fill-rule="evenodd"/>
<path d="m28.55-30 0.7 0.9 0.15 2.8-1.3 0.55v-0.1l-0.05 0.05-0.65 0.35q-3.85 2.2-8.65 3.25l-9.1 0.85q3.15-0.5 6.3-1.6l2.25-0.85 6.65-2.1 2.5-1.4 1.2-2.7m-59.65 38.85-0.1-0.1q-2.7-2.25-3.9-4.7-1.05-2.1-1.1-4.3l0.05-0.65 5.85-4.2 0.35-0.2-0.2 1.15-3.5 3.4-1.45 4.8 0.35-0.25q1.15 2.15 4.15 4.3l1.85 1.25 2.2 1.25 5.4 2.55h0.05v-0.05l5.45 1.3 2 0.45 1.4 0.2 10 1.35 1.55 0.1 2.65 0.1h1.3l9.8-0.6 0.05 0.35-6.1 0.9-4.25 0.3h-0.05l-3 0.05-0.65-0.05-1.5-0.05-6.4-0.35-0.65-0.1-7.45-1.45-0.55-0.15-0.1-0.05-2.5-0.75-1.4-0.5-0.4-0.2-3.8-1.7-3.55-2-0.05-0.05-0.65-0.45-1.05-0.8-0.1-0.1m27.75 23.7 0.05 0.8 3.25 2.7 6.55 1.65 8.5-0.95v0.1q-2 1.3-3.95 2.2l-1.45 0.65-0.1 0.05-1.85 0.8-0.1 0.05-3 0.9-1.05 0.2v0.05l-5.15-0.25-7.65-3.25-6-5.45-2.7-7.65-0.05-0.35-0.05-0.6 8.75 5.3 0.35 0.75 5.65 2.3" fill="#791111" fill-rule="evenodd"/>
<path d="m3.5 41.7 0.55-0.05h0.55l3.5-0.5 3.75-0.9 1.9-0.6 2.95-1.1 0.25-0.1 2.8-1.25-2 1.95q-2.6 2.1-5.4 3.35l-2.25 0.85q-3.35 1.1-7.35 1.1-9.8 0-16.7-6.95-5.05-5-6.4-11.5l-0.45-3.35 2.75 2.15 0.05 0.35 2.7 7.65 6 5.45 7.65 3.25 5.15 0.25v-0.05m-21.1-26.3 0.1 0.05-0.7 1.8h-0.05l-2.35-0.35 0.5-2.25 2.5 0.75" fill="#600d0d" fill-rule="evenodd"/>
<path d="m35.75 18.65-0.7 4.15-2.45 4.7-9.2 6.25q-3.45 2-6.85 4.05l-0.15-0.4-5.3 1.8-0.05-0.15q1.95-0.9 3.95-2.2h0.05q0.05-0.1 0.15-0.1 1.5-1 1.95-1.3l0.65-0.5 0.05-0.05 6.1-3.1 7.1-6.8 4.7-6.35m-10.85-50.3 1.65 2.8-0.65 0.55-3.55-0.4-7.8 0.45-0.05-0.15 0.95-0.45 3.7-1.5 0.2 0.15q1.3 0.8 1.95 0.3 0.45-0.35 0.35-1.2l0.3-0.1 2.9-0.6 0.05 0.15m-42.15 23.85q0.35 4.65 1.9 9.9l1.4 2-4.9 6.95-2.8-1.3q-9.25-5-8.9-9.8l0.05-0.45q0.35-2.35 2.9-4l0.2-0.15q1.2-0.85 3.15-1.5l2-0.6 5-1.05m-0.1-1.9-3.7 0.3-6.15 1.05 0.75-5.35 0.15-0.65 0.45-1.85 0.05-0.2 0.8-2.4q3.25-9.15 11.05-14.55 5.8-4.05 14.2-5.95-5.3 3.15-9 7-8.1 8.35-8.6 19.85v2.75m17.1 24.85q0.85-2.15 2.6-3.9 3.5-3.5 8.45-3.5t8.45 3.5 3.5 8.45-3.5 8.45-8.45 3.5-8.45-3.5-3.5-8.45l0.2-2.15 0.65 0.05 3-0.05h0.05l4.25-0.3 6.1-0.9h0.1l0.15-0.05 4.6-1.15-4.8 0.5h-0.1q-4.85 0.25-10.35-0.15h-0.05l-2.9-0.35m-2.2 2.35 0.25 1.7-0.35 1.6q-5.6 11.7-7.45-1.55l0.5-2.2 0.65 0.1 6.4 0.35m-0.4-2.8-4.5-0.5h-0.2l-0.15-0.05-1.05-0.2 0.7-3.05-2.1-1.8-4.2 0.25 3.75-2.05 4.05 1 3.25 3.25 0.45 3.15" fill="#c13513" fill-rule="evenodd"/>
<path d="m36 17.1-0.25 1.55-4.7 6.35-7.1 6.8-6.1 3.1 7.45-6.75 2.7-3.05 5.2-4.35 2.8-3.65" fill="#f28500" fill-rule="evenodd"/>
<path d="m34.6 9.4h0.3l1.35 6.4-0.25 1.3-2.8 3.65-5.2 4.35 2.55-3.15 3.35-5.15-0.15 0.75 0.3-1v-0.1l0.25-0.9 0.05-0.75 0.25-5.4m-70.55-12.25q0.8-2.2 3.75-3.7l-0.95 2.4 2.85-0.95-5.85 4.2 0.2-1.95" fill="#ff910b" fill-rule="evenodd"/>
<path d="m-32.2-6.55q1.3-0.7 2.65-1.1l-0.4 2.35-0.35 0.2-2.85 0.95 0.95-2.4" fill="#ff9f2b" fill-rule="evenodd"/>
<path d="m28.2-30.5 0.35 0.5-1.2 2.7-2.5 1.4-6.65 2.1q4.1-1.75 7.7-4.5l0.65-0.55 1.65-1.65m-15.1 46.85-0.05-0.35-9.8 0.6h-1.3l-2.65-0.1-1.55-0.1-10-1.35-1.4-0.2-2-0.45-5.45-1.3-0.05 0.05-5.4-2.55-2.2-1.25-1.85-1.25q-3-2.15-4.15-4.3l-0.35 0.25 1.45-4.8 3.5-3.4-0.4 3.65-0.05 0.4 0.05 0.05q-0.35 4.8 8.9 9.8l2.75 1.4 2.3 1 0.4 0.1 5.45 1.3 2 0.4 1.05 0.2 0.15 0.05h0.2l4.5 0.5v0.1l2.6 0.35 2.9 0.35h0.05q5.5 0.4 10.35 0.15h0.1l4.8-0.5-4.6 1.15-0.15 0.05h-0.1" fill="#e9680a" fill-rule="evenodd"/>
<path d="m25.1-31.8 0.5-0.1 2.05 0.65 0.55 0.75-1.65 1.65-1.65-2.8 0.2-0.15" fill="#b95309" fill-rule="evenodd"/>
<path d="m28.1-25.75 1.45 3.8 2.7 10.25 0.5 2.25 0.8 4.25 0.65 4.75 0.3 3.4 0.1 6.35-6.5-2.15-4.65-0.3 3.55 1.3 3.35 2.45 3.6 5.75-0.05 0.45-3.35 5.15-2.55 3.15-2.7 3.05q1.1-3.4 1.1-7.35 0-6.95-3.5-12.45l-1.45-1.75q-14.5-16.15-33.5-3.9l-1.9 1.4-1.4-2q-1.55-5.25-1.9-9.9 10.25-1.55 23.45 0.6l4.85 0.9-4.75-1.2-5.8-1.05q-9.8-1.6-17.85-1.15v-2.75q0.5-11.5 8.6-19.85 3.7-3.85 9-7-8.4 1.9-14.2 5.95-7.8 5.4-11.05 14.55l-0.8 2.4-0.05 0.2-0.45 1.85-0.15 0.65-0.75 5.35-2.35 0.7 0.8-3.95 0.85-3.75 0.5-1.85q2.1-7.75 3.7-11.25 1.05-2.2 3.5-5.85l0.7-1q2.5-3.65 5.3-6.25 6.95-6.5 15.75-6.45 8.7-0.05 15.65 6.45 2.8 2.6 5.3 6.25l2.35 3.5-2.9 0.6-0.3 0.1-0.1-0.75q-0.4-1.45-1.55-3t-2.45-2.3q-1.3-0.8-1.95-0.35-0.65 0.5-0.25 1.95t1.55 3q1.05 1.4 2.25 2.2l-3.7 1.5-0.95 0.45 0.05 0.15 7.8-0.45 3.55 0.4q-3.6 2.75-7.7 4.5l-2.25 0.85q-3.15 1.1-6.3 1.6l9.1-0.85q4.8-1.05 8.65-3.25l0.65-0.35 0.05 0.05m-5.55 5.6 1.4 3.05 3.2 8.9 1.05 3.3 1.15 4.15 1.05 4.65 0.35 1.9 1.45-0.6-0.1-2.05-0.45-4.8-0.65-4.25-0.4-2.25v-0.05l-2.3-10.3-1.1-3.45-0.3 0.05-0.55 0.8-2.15 0.4h-1.85l0.2 0.55m11.5 36.7v-0.1 0.1" fill="#ff9411" fill-rule="evenodd"/>
<path d="m6.2-7.2q-13.2-2.15-23.45-0.6l-5 1.05 1.2-2.65 3.7-0.3q8.05-0.45 17.85 1.15l5.8 1.05-0.1 0.3" fill="#a92412" fill-rule="evenodd"/>
<path d="m-21.05-9.4-1.2 2.65-2 0.6q-1.95 0.65-3.15 1.5l-0.2 0.15q-2.55 1.65-2.9 4h-0.05l0.4-3.65 0.2-1.15 0.4-2.35 2.35-0.7 6.15-1.05" fill="#801d04" fill-rule="evenodd"/>
<path d="m34.6 9.3v0.1l-0.25 5.4-0.05 0.75-0.25 0.9v0.1l-0.3 1 0.15-0.75 0.05-0.45-3.6-5.75-3.35-2.45-3.55-1.3 4.65 0.3 6.5 2.15" fill="#9e2305" fill-rule="evenodd"/>
<path d="m21.65-31.1q0.1 0.85-0.35 1.2-0.65 0.5-1.95-0.3l-0.2-0.15q-1.2-0.8-2.25-2.2-1.15-1.55-1.55-3t0.25-1.95q0.65-0.45 1.95 0.35 1.3 0.75 2.45 2.3t1.55 3l0.1 0.75m0.9 10.95-0.2-0.55h1.85l2.15-0.4 0.55-0.8 0.3-0.05 1.1 3.45 2.3 10.3v0.05l0.4 2.25 0.65 4.25 0.45 4.8 0.1 2.05-1.45 0.6-0.35-1.9-1.05-4.65-1.15-4.15-1.05-3.3-3.2-8.9-1.4-3.05" fill="#ffe079" fill-rule="evenodd"/>
<path d="m-13.95 4.1 1.9-1.4q19-12.25 33.5 3.9-2.15-1.95-6.9-4.75-7.1-4.15-21.95 1.1 5.15 2.4-3.2 4.35l-3.75 2.05-0.95 0.6-0.9 2.3-0.4-0.1-2.25-1.1 4.9-6.95" fill="#ffaf2b" fill-rule="evenodd"/>
<path d="m34.9 9.4 1.35 6.4-0.25 1.3-0.25 1.55-0.7 4.15-2.45 4.7-1.1 2.1-3.25 2.7m-0.35 0.3 0.35-0.3" fill="none" stroke="#5e0000" stroke-linecap="round" stroke-linejoin="round" stroke-width="1.75"/>
<path d="m25.1-31.8 0.5-0.1 2.05 0.65 0.55 0.75 0.35 0.5 0.7 0.9 0.15 2.8-1.3 0.55 1.45 3.8 2.7 10.25 0.5 2.25 0.8 4.25 0.65 4.75 0.3 3.4 0.1 6.35m-6.35 23-0.2 0.45-1.9 2.6-1 1.25h-0.05q-2.3 2.7-4.6 4.6-3.8 3.2-8 4.85l-3.55 1.15q-3.4 0.8-7.1 0.85-13.65-0.05-23.3-11.45-4.1-4.9-6.35-10.3-1.35-3.25-2.25-7.05l-0.6-3.6-0.45-5.95v-0.85l-0.1-0.1q-2.7-2.25-3.9-4.7-1.05-2.1-1.1-4.3l-0.05-0.6 0.05-1 0.25-1q0.8-2.2 3.75-3.7 1.3-0.7 2.65-1.1l0.8-3.95 0.85-3.75 0.5-1.85q2.1-7.75 3.7-11.25 1.05-2.2 3.5-5.85l0.7-1q2.5-3.65 5.3-6.25 6.95-6.5 15.75-6.45 8.7-0.05 15.65 6.45 2.8 2.6 5.3 6.25l2.35 3.5h0.25m3 5.95v0.1m-64.25 24.85-0.05 0.65m0.05-0.65 0.2-1.95m5.3 18.5-0.35-5.95v-0.75l-0.1-0.1" fill="none" stroke="#940b0b" stroke-linecap="round" stroke-linejoin="round" stroke-width="1.75"/>
</g>
<g id="b">
<use width="7.0999999" height="7.0999999" xlink:href="#e"/>
</g>
<g id="e">
<path d="m1.05 6.05q-1.05-1.05-1.05-2.5t1.05-2.5 2.5-1.05 2.5 1.05 1.05 2.5-1.05 2.5-2.5 1.05-2.5-1.05" fill="#ffbf2b" fill-rule="evenodd"/>
</g>
<g id="a">
<use width="18" height="18" xlink:href="#d"/>
</g>
<g id="d">
<path d="m14.4 2.9 0.55-0.65 0.4 0.35-0.7 0.55-0.25-0.25" fill="#7b0018" fill-rule="evenodd"/>
<path d="m17.75 8.85 0.25-0.35v0.5l-0.25-0.15" fill="#650010" fill-rule="evenodd"/>
<path d="m14.4 2.9 0.25 0.25q0.85 0.95 0.85 2.3 0 1.5-1.1 2.55-1.05 1.05-2.55 1.05t-2.6-1.05q-1.05-1.05-1.05-2.55t1.05-2.55q1.1-1.05 2.6-1.05t2.55 1.05" fill="#a94f05" fill-rule="evenodd"/>
<path d="m14.95 2.25-0.55 0.65q-1.05-1.05-2.55-1.05t-2.6 1.05q-1.05 1.05-1.05 2.55t1.05 2.55q1.1 1.05 2.6 1.05t2.55-1.05q1.1-1.05 1.1-2.55 0-1.35-0.85-2.3l0.7-0.55q2.45 2.45 2.65 5.9l-0.25 0.35-2.65 3.55-4.65 1.35-4.45-1.3-2.65-5.9 2.1-5.85q1.65-0.7 3.55-0.7 3.45 0 5.95 2.25" fill="#992905" fill-rule="evenodd"/>
<path d="m5.45 0.7-2.1 5.85 2.65 5.9 4.45 1.3 4.65-1.35 2.65-3.55 0.25 0.15q0 3.75-2.65 6.35l-0.05 0.05q-2.6 2.6-6.3 2.6t-6.35-2.6l-0.05-0.05q-2.6-2.6-2.6-6.35t2.6-6.4q1.3-1.25 2.85-1.9" fill="#901608" fill-rule="evenodd"/>
</g>
<g id="c" transform="translate(23.6,31.95)">
<path d="m7.4-30.95 4 4 6 12 1 6-1 5 3 6 4 5 3 5 1 7-0.8 7.2-2.15 1.9q1.1-3.4 1.1-7.35 0-6.95-3.5-12.45-1.45-2.25-3.45-4.25-6.9-6.95-16.7-6.95-9.75 0-16.7 6.95l-0.55 0.55q-2.65 2.8-4.2 6.05l-0.15 0.35-4.25-1.9 0.35-7.1 16-15 8-3 3-5-4-6h-4l-2 4-2-5 3-4h6l6 1" fill="#d11f06" fill-opacity=".37255" fill-rule="evenodd"/>
<path d="m12.5 42.5q2.8-1.25 5.4-3.35l1.85-1.8 5.05-2.4-0.4 1.1-8 8-11 4-11-1-10-5-6-6-2-14 0.45-8.3 3.15 1-0.45 2.15v0.15l-0.3 3.75 0.05 1.7 0.05 0.15 0.45 3.35q1.35 6.5 6.4 11.5 6.9 6.95 16.7 6.95 4 0 7.35-1.1l2.25-0.85" fill="#ee680c" fill-rule="evenodd"/>
</g>
</defs>
</svg>
