<?xml version="1.0" encoding="UTF-8" standalone="no"?>
<!DOCTYPE svg PUBLIC "-//W3C//DTD SVG 1.1//EN" "http://www.w3.org/Graphics/SVG/1.1/DTD/svg11.dtd">
<svg width="100%" height="100%" viewBox="0 0 350 419" version="1.1" xmlns="http://www.w3.org/2000/svg" xmlns:xlink="http://www.w3.org/1999/xlink" xml:space="preserve" xmlns:serif="http://www.serif.com/" style="fill-rule:evenodd;clip-rule:evenodd;stroke-linecap:round;stroke-linejoin:round;">
    <g transform="matrix(1,0,0,1,-133.696,-193.342)">
        <g transform="matrix(9.6669,0,0,9.6669,-2673.09,-3496.61)">
            <g id="shape0">
                <path d="M317.85,404.1L321.65,407.15L326,410L322.45,409.25L320.15,407.75L318.35,406.4L318.6,407.05L318.65,407.25C319.483,409.917 319.983,413.15 320.15,416.95L318.7,421.25C318.7,419.017 318.583,416.833 318.35,414.7L317.95,411.7C317.55,413.733 316.867,415.85 315.9,418.05L314,421.85L309.95,424.45C311.883,421.483 313.417,418.4 314.55,415.2L314.85,414.3L316,410.2L316.15,409.4L316.25,408.95L316.65,406.35L316.7,406.2L316.85,404.7M306.6,416.8L306.65,418.1C307.083,418.333 307.467,418.65 307.8,419.05C308.4,419.783 308.65,420.6 308.55,421.5C308.45,422.433 308.05,423.167 307.35,423.7C306.617,424.3 305.783,424.55 304.85,424.45C303.95,424.35 303.2,423.933 302.6,423.2L302,422.15L301.85,422.25C301.183,422.783 300.417,423.017 299.55,422.95C298.717,422.85 298.033,422.467 297.5,421.8C297,421.2 296.783,420.467 296.85,419.6C296.95,418.767 297.317,418.05 297.95,417.45L298.7,417L298.7,416.65L298.8,414L298.85,412.9L299,410.65L299.05,409.8L298.8,410.5L298.25,412.05L297.95,412.95L297.7,413.8C296.833,417.1 296.383,420.483 296.35,423.95L294.45,419.7L295.05,415.45C295.483,413.083 296.133,410.967 297,409.1L294.9,411.4C293.467,413.1 292.117,414.883 290.85,416.75L292.1,412.4C293.633,410.3 295.15,408.5 296.65,407L297.25,406.45L297.8,405.9L298.4,405.4L299.55,404.4L299.6,404.4L299.55,404.4L297.65,404.6L297.4,404.6L296.55,404.65L294.55,404.7L291.2,403.55L295.85,403.45L296.45,403.4L296.75,403.4L298.45,403.2L298.35,403L298.2,402.35L297.95,401.65L297.8,401C297.5,399.667 297.783,398.717 298.65,398.15L299.9,397.65L303.35,397.75M314.25,400.45L315.7,402.05M315.3,402.4L315.75,403.6L316.65,406.3L316.65,406.35M315.95,404.2L315.65,403.85L314.6,402.6L314.35,402.3L313.65,401.3L312.8,399.75M305.85,407L306.15,409.15L306.15,409.2L306.4,411.8L306.4,412.35L306.5,413.9L306.6,416.35L306.6,416.8M315.9,401.85L316.85,403.15L317.85,404.1M317.95,411.7L318.05,410.85L318.2,406.7L318.05,405.6L317.7,404.75L317.65,404.65L316.85,403.15M318.35,406.4L318.05,405.6M313.45,399.55L314.25,400.45M304.35,402.1L306.1,401.65L307.6,401.15M305.85,407L305.85,406.8L305.75,406.45C305.483,405.017 305.167,403.933 304.8,403.2L304.45,402.65L303.7,402L302.7,402.1L302.6,402.15L302.35,402.3L302.3,402.3L301.8,402.7L301.65,402.85L301.9,403L302.55,403.65L302.7,403.95L303,404.7L303.45,406.45L303.5,406.8L303.5,406.9L303.55,407.25L303.55,407.4L303.6,407.6L303.65,408.65L303.65,409.1L303.7,412L303.7,416.55L303.75,418.1L305.5,417.8L306.65,418.1M308,401.65L306.95,402.3L304.8,403.2M302.3,402.3L302.25,402.3L301.45,402.2L301.35,402.25L300.7,402.85L300.1,404.05L300.05,404.25L299.9,404.65L299.55,406.2L299.45,406.85L299.25,407.95L299.1,409.65L299.05,409.8M301.15,401.85L301.2,402.05L301.35,402.2L301.35,402.25M303.75,399.35C302.317,399.35 301.467,399.85 301.2,400.85L301.1,401.45L301.15,401.85M298.7,417L300.15,416.8L301.35,417.15L301.35,415.25L301.4,412.3L301.4,408.3L301.55,407.3L301.6,406.85L301.85,405.35L301.95,404.95L302.2,404.35L302.55,403.65M303,404.7L302.4,404.85L301.95,404.95M297,409.1L297.2,408.6L297.65,407.7L298.45,406.35L298.85,405.75L299.8,404.55L300.05,404.25M303.7,402L304.25,401.8M302.7,403.95L302.2,404.35M299.6,404.4L300.1,404.05M298.45,403.2L298.6,403.15L300.7,402.85M301.35,417.15L302.3,417.9L302.85,418.8L303.05,418.55L303.75,418.1M302,422.15L301.9,420.85C302,420.05 302.317,419.367 302.85,418.8" style="fill:none;fill-rule:nonzero;stroke:#000;stroke-opacity:0.3;stroke-width:1px;"/>
                <path d="M295.85,403.45C295.483,402.517 295.35,401.483 295.45,400.35C293.483,398.75 292.8,396.5 293.4,393.6C293.8,391 295.233,388.617 297.7,386.45L299.5,384.8C301.167,383.8 302.9,383.083 304.7,382.65C307.467,382.117 309.717,382.5 311.45,383.8L312.45,384.75C313.25,385.617 313.667,386.683 313.7,387.95L313.9,389.4L314.65,390.15C315.45,391.017 315.867,392.083 315.9,393.35C316.1,394.017 316.133,395 316,396.3L316.85,397.15C317.65,398.05 318.067,399.1 318.1,400.3C318.3,400.967 318.3,401.917 318.1,403.15L317.85,404.1M318.55,406.55L318.6,407.05L318.65,407.25M314.85,414.3L313.9,414.9C311.667,416.2 309.233,416.833 306.6,416.8M298.8,414L297.95,412.95M296.65,407C296.517,406.3 296.517,405.55 296.65,404.75L296.55,404.65M297.95,401.65C297.183,401.45 296.5,401.15 295.9,400.75L295.65,400.55L295.45,400.35M309.1,390.4C309.267,389.733 309.1,389.267 308.6,389C307.867,388.533 307.017,388.3 306.05,388.3C304.55,388.733 303.1,389.367 301.7,390.2L299.9,391.85C299.133,392.517 298.483,393.2 297.95,393.9L297.85,394.1C297.783,394.5 297.883,394.9 298.15,395.3L298.4,395.6L298.75,395.8L299.2,395.95L299.4,396L300.8,396.15L301.35,396.15L302.2,396.05L302.5,396C303.8,394.867 305.283,394.133 306.95,393.8L307,393.8L307.05,393.75L307.1,393.45L307.2,393.65L307.7,393.15L308.6,391.95L308.7,391.75L309.1,390.9L309.1,390.4M313.9,389.4L313.85,390.5L313.8,390.9L313.45,392.25L312.5,394.15L311.3,396.15L311.3,396.3L310.9,397.1L310.3,398.05L310,398.4L309.4,399.05L309.3,398.85L309.1,399.25L308.05,400C306.917,400.7 305.7,401.183 304.4,401.45L304.25,401.5L303.7,401.55M311.3,396.15L310.5,397.05L309.6,397.9L309.5,398L308.6,398.8L306.75,400.3L308.05,400M316,396.3L315.7,397.5L315.2,398.75L314.7,399.55L314.25,400.45M313.65,401.3L313.35,401.7L313.25,402.25L313.25,402.7L312.55,403.8L311.35,405.05L311.2,405.15L311.2,405.1L311.1,404.95L311.1,405.1L310.9,405.3L309.95,405.85C308.683,406.483 307.35,406.867 305.95,407L305.85,407M306.4,412.35C307.8,412.217 309.15,411.883 310.45,411.35L311.5,410.85L311.65,410.75L311.9,410.6L313.65,409.45L314.85,408.5C315.583,407.8 316.183,407.067 316.65,406.3M313.35,401.7L311.8,403.3L311.55,403.55L310.7,404.25L310.25,404.6L308.2,405.85L309.35,405.8L309.95,405.85M311.5,410.85L311.35,410.95L310.45,411.35M311.9,410.6L311.65,410.75M306.05,388.3L304.75,388.4C302.95,388.767 301.35,389.6 299.95,390.9C298.983,391.8 298.317,392.8 297.95,393.9M307,393.8L306.9,393.85C305.567,394.917 304.1,395.633 302.5,396M304.25,401.5C305.017,400.967 305.85,400.567 306.75,400.3M302.25,401.75L301.25,401.85L301.15,401.85M301.55,407.3L303.15,407.3L303.55,407.25M308.2,405.85L305.85,406.8M297.8,405.9L297.05,405.25L296.65,404.75M301.4,411.95L303.7,412.4M301.35,415.8C302.083,416.1 302.867,416.35 303.7,416.55M298.8,410.5L299,410.65" style="fill:none;fill-rule:nonzero;stroke:#000;stroke-opacity:0.3;stroke-width:1px;stroke-linejoin:miter;stroke-miterlimit:1;"/>
                <path d="M296.45,403.4L291.2,403.55L294.55,404.7L297.4,404.6L296.45,403.4" style="fill:#929123;"/>
                <path d="M297.4,404.6C301.9,404.267 305.433,403.283 308,401.65L307.6,401.15C304,402.317 300.283,403.067 296.45,403.4L297.4,404.6" style="fill:#5a5225;"/>
                <path d="M296.45,403.4L291.2,403.55M294.55,404.7L297.4,404.6C301.9,404.267 305.433,403.283 308,401.65M307.6,401.15C304,402.317 300.283,403.067 296.45,403.4" style="fill:none;fill-rule:nonzero;stroke:#382510;stroke-opacity:0.2;stroke-width:0.4px;"/>
                <path d="M291.2,403.55L294.55,404.7" style="fill:none;fill-rule:nonzero;stroke:#382510;stroke-opacity:0.15;stroke-width:0.2px;"/>
                <path d="M294.9,411.4L291.75,413.6L292.1,412.4C296.3,406.667 300.35,403.133 304.25,401.8L304.55,402.55C300.983,405.05 297.767,408 294.9,411.4" style="fill:#978e24;"/>
                <path d="M291.75,413.6L294.9,411.4C293.467,413.1 292.117,414.883 290.85,416.75L291.75,413.6" style="fill:#baaf38;"/>
                <path d="M290.85,416.75C292.117,414.883 293.467,413.1 294.9,411.4C297.767,408 300.983,405.05 304.55,402.55M304.25,401.8C300.35,403.133 296.3,406.667 292.1,412.4" style="fill:none;fill-rule:nonzero;stroke:#382510;stroke-opacity:0.2;stroke-width:0.4px;"/>
                <path d="M291.75,413.6L290.85,416.75M292.1,412.4L291.75,413.6" style="fill:none;fill-rule:nonzero;stroke:#382510;stroke-opacity:0.15;stroke-width:0.2px;"/>
                <path d="M297.7,413.8L295.05,415.45C296.017,410.25 297.983,406.183 300.95,403.25L301.85,403.7C300.05,407 298.667,410.367 297.7,413.8" style="fill:#978e24;"/>
                <path d="M295.05,415.45L297.7,413.8C296.833,417.1 296.383,420.483 296.35,423.95L294.45,419.7L295.05,415.45" style="fill:#bbaf2b;"/>
                <path d="M295.05,415.45L294.45,419.7M296.35,423.95C296.383,420.483 296.833,417.1 297.7,413.8C298.667,410.367 300.05,407 301.85,403.7M300.95,403.25C297.983,406.183 296.017,410.25 295.05,415.45" style="fill:none;fill-rule:nonzero;stroke:#382510;stroke-opacity:0.2;stroke-width:0.4px;"/>
                <path d="M294.45,419.7L296.35,423.95" style="fill:none;fill-rule:nonzero;stroke:#382510;stroke-opacity:0.15;stroke-width:0.2px;"/>
                <path d="M317.1,412.2C317.8,411.433 318.283,410.567 318.55,409.6C318.75,408.533 318.767,407.683 318.6,407.05L317.4,406.35C316.867,406.25 316.483,406.1 316.25,405.9L314.8,404.95L313.45,404.9L311.8,405.05C311.2,405.017 310.617,405.15 310.05,405.45L309.35,405.8C310.917,405.867 312.233,406.3 313.3,407.1C313.8,407.4 313.933,407.8 313.7,408.3L313.7,408.75L314.65,408.5C315.583,408.467 316.25,408.783 316.65,409.45C316.983,409.883 317.183,410.417 317.25,411.05L317.1,412.2M311.75,414.05L305.45,413.8C302.25,413.5 299.867,411.683 298.3,408.35C297.467,408.317 297.35,409.367 297.95,411.5C299.817,414.933 302.6,416.55 306.3,416.35C310.033,416.017 312.167,415.433 312.7,414.6C313.067,414.067 312.75,413.883 311.75,414.05M302.7,407.2C305.167,405.633 308.167,404.717 311.7,404.45C306.333,403.317 303.333,404.233 302.7,407.2" style="fill:#823909;"/>
                <path d="M317.1,412.2L317.25,411.05C317.183,410.417 316.983,409.883 316.65,409.45C316.25,408.783 315.583,408.467 314.65,408.5L313.7,408.75C313.233,409.517 312.55,410.183 311.65,410.75L311.55,410.6L311.35,410.95C309.783,411.65 308.117,411.983 306.35,411.95C304.75,411.85 303.467,411.483 302.5,410.85C302,410.35 301.817,409.867 301.95,409.4C302.35,408.5 303.133,407.733 304.3,407.1C305.767,406.233 307.45,405.8 309.35,405.8L310.05,405.45C310.617,405.15 311.2,405.017 311.8,405.05L313.45,404.9L314.8,404.95L316.25,405.9C316.483,406.1 316.867,406.25 317.4,406.35L318.6,407.05C318.567,405.983 318.167,405 317.4,404.1L314.4,404.65C311.233,402.817 307.617,402.833 303.55,404.7L302.15,405.6C301.417,406.067 300.867,407.067 300.5,408.6L301.65,410.55C302.317,411.517 303.8,412.15 306.1,412.45C301.667,412.15 299.333,410.45 299.1,407.35C299.7,405.583 301.35,403.717 304.05,401.75L302.1,402.85C299.467,404.25 297.883,406.033 297.35,408.2C296.617,410.633 297.3,412.767 299.4,414.6C301.133,416 303.433,416.733 306.3,416.8C309.067,416.867 311.6,416.233 313.9,414.9C315.3,414.1 316.367,413.2 317.1,412.2M316.1,409.3L316.25,409.65C316.05,410.183 315.733,410.617 315.3,410.95C314.467,411.75 313.583,412.3 312.65,412.6L310.6,413.15L309.9,413L310.7,412.45L312.25,411.3L312.5,411.15L312.85,411.05L314.35,409.35L314.55,408.95C315.217,408.65 315.733,408.767 316.1,409.3M311.75,414.05C312.75,413.883 313.067,414.067 312.7,414.6C312.167,415.433 310.033,416.017 306.3,416.35C302.6,416.55 299.817,414.933 297.95,411.5C297.35,409.367 297.467,408.317 298.3,408.35C299.867,411.683 302.25,413.5 305.45,413.8L311.75,414.05M302.7,407.2C303.333,404.233 306.333,403.317 311.7,404.45C308.167,404.717 305.167,405.633 302.7,407.2" style="fill:#cb7f13;"/>
                <path d="M316.1,409.3C315.733,408.767 315.217,408.65 314.55,408.95L314.35,409.35L312.85,411.05L312.5,411.15L312.25,411.3L310.7,412.45L309.9,413L310.6,413.15L312.65,412.6C313.583,412.3 314.467,411.75 315.3,410.95C315.733,410.617 316.05,410.183 316.25,409.65L316.1,409.3" style="fill:#f5b527;"/>
                <path d="M302.1,405.15L302.85,404.4C303.25,403.8 303.317,403.55 303.05,403.65C302.683,403.683 302.35,403.85 302.05,404.15C300.983,405.217 300.55,405.833 300.75,406L301.05,406.3L301.35,406.15L302.1,405.15" style="fill:#ffff42;"/>
                <path d="M317.4,404.1L316.4,403.1C314.7,401.667 312.4,400.917 309.5,400.85C307.667,400.917 305.85,401.217 304.05,401.75C301.35,403.717 299.7,405.583 299.1,407.35C299.333,410.45 301.667,412.15 306.1,412.45C303.8,412.15 302.317,411.517 301.65,410.55L300.5,408.6C300.867,407.067 301.417,406.067 302.15,405.6L303.55,404.7C307.617,402.833 311.233,402.817 314.4,404.65L317.4,404.1M302.1,405.15L301.35,406.15L301.05,406.3L300.75,406C300.55,405.833 300.983,405.217 302.05,404.15C302.35,403.85 302.683,403.683 303.05,403.65C303.317,403.55 303.25,403.8 302.85,404.4L302.1,405.15" style="fill:#f9cc64;"/>
                <path d="M318.6,407.05C318.767,407.683 318.75,408.533 318.55,409.6C318.283,410.567 317.8,411.433 317.1,412.2C316.367,413.2 315.3,414.1 313.9,414.9C311.6,416.233 309.067,416.867 306.3,416.8C303.433,416.733 301.133,416 299.4,414.6C297.3,412.767 296.617,410.633 297.35,408.2C297.883,406.033 299.467,404.25 302.1,402.85L304.05,401.75C305.85,401.217 307.667,400.917 309.5,400.85C312.4,400.917 314.7,401.667 316.4,403.1L317.4,404.1C318.167,405 318.567,405.983 318.6,407.05M313.7,408.75L313.7,408.3C313.933,407.8 313.8,407.4 313.3,407.1C312.233,406.3 310.917,405.867 309.35,405.8C307.45,405.8 305.767,406.233 304.3,407.1C303.133,407.733 302.35,408.5 301.95,409.4C301.817,409.867 302,410.35 302.5,410.85C303.467,411.483 304.75,411.85 306.35,411.95C308.117,411.983 309.783,411.65 311.35,410.95L311.55,410.6L311.65,410.75C312.55,410.183 313.233,409.517 313.7,408.75" style="fill:none;fill-rule:nonzero;stroke:#000;stroke-opacity:0.5;stroke-width:0.05px;stroke-linejoin:miter;"/>
                <path d="M320.15,407.75L321.65,407.15L326,410L322.45,409.25L320.15,407.75" style="fill:#929123;"/>
                <path d="M321.65,407.15L320.15,407.75C316.483,405.117 314.033,402.45 312.8,399.75L313.45,399.55C315.817,402.383 318.55,404.917 321.65,407.15" style="fill:#5a5225;"/>
                <path d="M321.65,407.15C318.55,404.917 315.817,402.383 313.45,399.55M312.8,399.75C314.033,402.45 316.483,405.117 320.15,407.75L322.45,409.25M326,410L321.65,407.15" style="fill:none;fill-rule:nonzero;stroke:#382510;stroke-opacity:0.2;stroke-width:0.4px;"/>
                <path d="M322.45,409.25L326,410" style="fill:none;fill-rule:nonzero;stroke:#382510;stroke-opacity:0.15;stroke-width:0.2px;"/>
                <path d="M318.7,421.25C318.7,419.017 318.583,416.833 318.35,414.7L319.75,418.15L318.7,421.25" style="fill:#929123;"/>
                <path d="M319.75,418.15L318.35,414.7C317.85,410.367 316.817,406.25 315.25,402.35L315.9,401.85C318.433,404.983 319.85,410.017 320.15,416.95L319.75,418.15" style="fill:#5a5225;"/>
                <path d="M318.35,414.7C318.583,416.833 318.7,419.017 318.7,421.25M318.35,414.7C317.85,410.367 316.817,406.25 315.25,402.35M315.9,401.85C318.433,404.983 319.85,410.017 320.15,416.95" style="fill:none;fill-rule:nonzero;stroke:#382510;stroke-opacity:0.2;stroke-width:0.4px;"/>
                <path d="M318.7,421.25L319.75,418.15L320.15,416.95" style="fill:none;fill-rule:nonzero;stroke:#382510;stroke-opacity:0.15;stroke-width:0.2px;"/>
                <path d="M315.9,418.05L314,421.85L309.95,424.45C311.883,421.483 313.417,418.4 314.55,415.2L315.9,418.05" style="fill:#929123;"/>
                <path d="M315.9,418.05L314.55,415.2C315.717,411.867 316.483,408.367 316.85,404.7L317.9,404.75C318.733,408.717 318.067,413.15 315.9,418.05" style="fill:#5a5225;"/>
                <path d="M314,421.85L315.9,418.05C318.067,413.15 318.733,408.717 317.9,404.75M314.55,415.2C313.417,418.4 311.883,421.483 309.95,424.45M316.85,404.7C316.483,408.367 315.717,411.867 314.55,415.2" style="fill:none;fill-rule:nonzero;stroke:#382510;stroke-opacity:0.2;stroke-width:0.4px;"/>
                <path d="M309.95,424.45L314,421.85L309.95,424.45Z" style="fill:none;fill-rule:nonzero;stroke:#382510;stroke-opacity:0.15;stroke-width:0.2px;"/>
                <path d="M313.25,402.7L314.2,402.3C315.167,402.2 315.85,402.483 316.25,403.15C316.583,403.583 316.8,404.15 316.9,404.85C316.967,405.25 316.9,405.683 316.7,406.15C317.4,405.25 317.867,404.25 318.1,403.15C318.3,401.917 318.3,400.967 318.1,400.3C317.833,400 317.433,399.783 316.9,399.65C316.333,399.55 315.95,399.417 315.75,399.25C315.283,398.75 314.767,398.45 314.2,398.35L312.95,398.45C312.283,398.35 311.7,398.45 311.2,398.75C310.633,398.85 310.05,399.067 309.45,399.4L308.75,399.9C310.35,399.8 311.683,400.117 312.75,400.85C313.283,401.15 313.45,401.617 313.25,402.25L313.25,402.7M311.4,408.75L305.05,409.2C301.817,409.2 299.383,407.433 297.75,403.9C296.883,403.967 296.8,405.133 297.5,407.4C299.433,411 302.25,412.5 305.95,411.9C309.683,411.133 311.833,410.267 312.4,409.3C312.7,408.667 312.367,408.483 311.4,408.75M302.15,402.1C304.583,400.133 307.583,398.817 311.15,398.15C305.717,397.483 302.717,398.8 302.15,402.1" style="fill:#823909;"/>
                <path d="M315.65,403.05L315.8,403.4L314.85,404.95C314.083,405.917 313.217,406.617 312.25,407.05L310.2,407.85L309.45,407.8L310.25,407.15L311.85,405.65L312.1,405.5L312.4,405.3L313.9,403.2C313.833,403.067 313.883,402.95 314.05,402.85C314.75,402.417 315.283,402.483 315.65,403.05M316.7,406.15C316.9,405.683 316.967,405.25 316.9,404.85C316.8,404.15 316.583,403.583 316.25,403.15C315.85,402.483 315.167,402.2 314.2,402.3L313.25,402.7C312.817,403.6 312.133,404.417 311.2,405.15L311.1,404.95L310.9,405.3C309.367,406.267 307.717,406.833 305.95,407C304.35,407.067 303.033,406.8 302,406.2C301.5,405.7 301.317,405.2 301.45,404.7C301.85,403.633 302.6,402.683 303.7,401.85C305.167,400.75 306.85,400.1 308.75,399.9L309.45,399.4C310.05,399.067 310.633,398.85 311.2,398.75C311.7,398.45 312.283,398.35 312.95,398.45L314.2,398.35C314.767,398.45 315.283,398.75 315.75,399.25C315.95,399.417 316.333,399.55 316.9,399.65C317.433,399.783 317.833,400 318.1,400.3C318.067,399.1 317.65,398.05 316.85,397.15L313.9,398.05C310.6,396.35 306.933,396.767 302.9,399.3L301.5,400.4C300.833,401 300.333,402.183 300,403.95L301.15,406.05C301.817,406.983 303.317,407.517 305.65,407.65C301.217,407.783 298.833,406.15 298.5,402.75C299.033,400.717 300.65,398.45 303.35,395.95L301.45,397.4C298.817,399.233 297.267,401.383 296.8,403.85C296.067,406.65 296.8,408.917 299,410.65C300.767,412.05 303.1,412.633 306,412.4C308.767,412.167 311.317,411.183 313.65,409.45C315.017,408.45 316.033,407.35 316.7,406.15M311.4,408.75C312.367,408.483 312.7,408.667 312.4,409.3C311.833,410.267 309.683,411.133 305.95,411.9C302.25,412.5 299.433,411 297.5,407.4C296.8,405.133 296.883,403.967 297.75,403.9C299.383,407.433 301.817,409.2 305.05,409.2L311.4,408.75M302.15,402.1C302.717,398.8 305.717,397.483 311.15,398.15C307.583,398.817 304.583,400.133 302.15,402.1" style="fill:#cb7f13;"/>
                <path d="M315.65,403.05C315.283,402.483 314.75,402.417 314.05,402.85C313.883,402.95 313.833,403.067 313.9,403.2L312.4,405.3L312.1,405.5L311.85,405.65L310.25,407.15L309.45,407.8L310.2,407.85L312.25,407.05C313.217,406.617 314.083,405.917 314.85,404.95L315.8,403.4L315.65,403.05" style="fill:#f5b527;"/>
                <path d="M301.5,399.95L302.2,399.05C302.6,398.283 302.667,398 302.4,398.2C302.033,398.267 301.683,398.483 301.35,398.85C300.317,400.15 299.917,400.883 300.15,401.05L300.5,401.3L300.75,401.15L301.5,399.95" style="fill:#ffff42;"/>
                <path d="M303.35,395.95C300.65,398.45 299.033,400.717 298.5,402.75C298.833,406.15 301.217,407.783 305.65,407.65C303.317,407.517 301.817,406.983 301.15,406.05L300,403.95C300.333,402.183 300.833,401 301.5,400.4L302.9,399.3C306.933,396.767 310.6,396.35 313.9,398.05L316.85,397.15L315.8,396.1C314.033,394.733 311.7,394.167 308.8,394.4C306.933,394.633 305.117,395.15 303.35,395.95M301.5,399.95L300.75,401.15L300.5,401.3L300.15,401.05C299.917,400.883 300.317,400.15 301.35,398.85C301.683,398.483 302.033,398.267 302.4,398.2C302.667,398 302.6,398.283 302.2,399.05L301.5,399.95" style="fill:#f9cc64;"/>
                <path d="M313.25,402.7L313.25,402.25C313.45,401.617 313.283,401.15 312.75,400.85C311.683,400.117 310.35,399.8 308.75,399.9C306.85,400.1 305.167,400.75 303.7,401.85C302.6,402.683 301.85,403.633 301.45,404.7C301.317,405.2 301.5,405.7 302,406.2C303.033,406.8 304.35,407.067 305.95,407C307.717,406.833 309.367,406.267 310.9,405.3L311.1,404.95L311.2,405.15C312.133,404.417 312.817,403.6 313.25,402.7M318.1,400.3C318.3,400.967 318.3,401.917 318.1,403.15C317.867,404.25 317.4,405.25 316.7,406.15C316.033,407.35 315.017,408.45 313.65,409.45C311.317,411.183 308.767,412.167 306,412.4C303.1,412.633 300.767,412.05 299,410.65C296.8,408.917 296.067,406.65 296.8,403.85C297.267,401.383 298.817,399.233 301.45,397.4L303.35,395.95C305.117,395.15 306.933,394.633 308.8,394.4C311.7,394.167 314.033,394.733 315.8,396.1L316.85,397.15C317.65,398.05 318.067,399.1 318.1,400.3" style="fill:none;fill-rule:nonzero;stroke:#000;stroke-opacity:0.5;stroke-width:0.05px;stroke-linejoin:miter;"/>
                <path d="M314.7,399.55C315.367,398.55 315.8,397.467 316,396.3C316.133,395 316.1,394.017 315.9,393.35C315.633,393.05 315.25,392.867 314.75,392.8L313.65,392.45C313.183,391.983 312.683,391.717 312.15,391.65C311.617,391.55 311.217,391.617 310.95,391.85C310.317,391.817 309.767,392 309.3,392.4C308.733,392.533 308.167,392.8 307.6,393.2L306.95,393.8C308.483,393.533 309.767,393.733 310.8,394.4C311.3,394.667 311.467,395.133 311.3,395.8L311.3,396.3C311.567,396.067 311.867,395.9 312.2,395.8C313.133,395.6 313.8,395.817 314.2,396.45C314.533,396.883 314.75,397.467 314.85,398.2L314.7,399.55M309.7,402.8L303.6,403.85C300.533,404.15 298.183,402.533 296.55,399C295.717,399.167 295.65,400.4 296.35,402.7C298.283,406.267 301,407.567 304.5,406.6C308.067,405.433 310.117,404.317 310.65,403.25C310.917,402.55 310.6,402.4 309.7,402.8M300.7,396.75C303,394.417 305.833,392.75 309.2,391.75C304,391.55 301.167,393.217 300.7,396.75" style="fill:#823909;"/>
                <path d="M314.7,399.55L314.85,398.2C314.75,397.467 314.533,396.883 314.2,396.45C313.8,395.817 313.133,395.6 312.2,395.8C311.867,395.9 311.567,396.067 311.3,396.3C310.9,397.267 310.267,398.183 309.4,399.05L309.3,398.85L309.1,399.25C307.667,400.383 306.1,401.117 304.4,401.45C302.867,401.683 301.6,401.533 300.6,401C300.133,400.533 299.95,400.033 300.05,399.5C300.417,398.333 301.117,397.267 302.15,396.3C303.55,395 305.15,394.167 306.95,393.8L307.6,393.2C308.167,392.8 308.733,392.533 309.3,392.4C309.767,392 310.317,391.817 310.95,391.85C311.217,391.617 311.617,391.55 312.15,391.65C312.683,391.717 313.183,391.983 313.65,392.45L314.75,392.8C315.25,392.867 315.633,393.05 315.9,393.35C315.867,392.083 315.45,391.017 314.65,390.15L311.85,391.35C308.65,389.917 305.15,390.7 301.35,393.7L300.05,395C299.383,395.7 298.917,396.983 298.65,398.85L299.8,400.9C300.467,401.833 301.917,402.25 304.15,402.15C299.917,402.717 297.617,401.25 297.25,397.75C297.683,395.55 299.167,393.033 301.7,390.2L299.9,391.85C297.433,394.017 296,396.4 295.6,399C294.967,402 295.717,404.317 297.85,405.95C299.55,407.217 301.783,407.6 304.55,407.1C307.217,406.6 309.633,405.333 311.8,403.3C313.1,402.133 314.067,400.883 314.7,399.55M313.65,396.4L313.8,396.75L312.9,398.5C312.167,399.567 311.35,400.367 310.45,400.9L308.5,401.95L307.8,401.95L308.55,401.2L310,399.5L310.25,399.3C310.35,399.2 310.467,399.133 310.6,399.1L311.95,396.75C311.883,396.617 311.933,396.483 312.1,396.35L313.65,396.4M309.7,402.8C310.6,402.4 310.917,402.55 310.65,403.25C310.117,404.317 308.067,405.433 304.5,406.6C301,407.567 298.283,406.267 296.35,402.7C295.65,400.4 295.717,399.167 296.55,399C298.183,402.533 300.533,404.15 303.6,403.85L309.7,402.8M300.7,396.75C301.167,393.217 304,391.55 309.2,391.75C305.833,392.75 303,394.417 300.7,396.75" style="fill:#cb7f13;"/>
                <path d="M313.65,396.4L312.1,396.35C311.933,396.483 311.883,396.617 311.95,396.75L310.6,399.1C310.467,399.133 310.35,399.2 310.25,399.3L310,399.5L308.55,401.2L307.8,401.95L308.5,401.95L310.45,400.9C311.35,400.367 312.167,399.567 312.9,398.5L313.8,396.75L313.65,396.4" style="fill:#f5b527;"/>
                <path d="M300,394.5L300.65,393.5C301.05,392.7 301.117,392.4 300.85,392.6C300.483,392.7 300.15,392.967 299.85,393.4C298.883,394.833 298.517,395.617 298.75,395.75L299.05,396.05L299.3,395.85L300,394.5" style="fill:#ffff42;"/>
                <path d="M314.65,390.15L313.65,389.2C311.917,387.9 309.667,387.517 306.9,388.05C305.1,388.483 303.367,389.2 301.7,390.2C299.167,393.033 297.683,395.55 297.25,397.75C297.617,401.25 299.917,402.717 304.15,402.15C301.917,402.25 300.467,401.833 299.8,400.9L298.65,398.85C298.917,396.983 299.383,395.7 300.05,395L301.35,393.7C305.15,390.7 308.65,389.917 311.85,391.35L314.65,390.15M300,394.5L299.3,395.85L299.05,396.05L298.75,395.75C298.517,395.617 298.883,394.833 299.85,393.4C300.15,392.967 300.483,392.7 300.85,392.6C301.117,392.4 301.05,392.7 300.65,393.5L300,394.5" style="fill:#f9cc64;"/>
                <path d="M315.9,393.35C316.1,394.017 316.133,395 316,396.3C315.8,397.467 315.367,398.55 314.7,399.55C314.067,400.883 313.1,402.133 311.8,403.3C309.633,405.333 307.217,406.6 304.55,407.1C301.783,407.6 299.55,407.217 297.85,405.95C295.717,404.317 294.967,402 295.6,399C296,396.4 297.433,394.017 299.9,391.85L301.7,390.2C303.367,389.2 305.1,388.483 306.9,388.05C309.667,387.517 311.917,387.9 313.65,389.2L314.65,390.15C315.45,391.017 315.867,392.083 315.9,393.35M311.3,396.3L311.3,395.8C311.467,395.133 311.3,394.667 310.8,394.4C309.767,393.733 308.483,393.533 306.95,393.8C305.15,394.167 303.55,395 302.15,396.3C301.117,397.267 300.417,398.333 300.05,399.5C299.95,400.033 300.133,400.533 300.6,401C301.6,401.533 302.867,401.683 304.4,401.45C306.1,401.117 307.667,400.383 309.1,399.25L309.3,398.85L309.4,399.05C310.267,398.183 310.9,397.267 311.3,396.3" style="fill:none;fill-rule:nonzero;stroke:#000;stroke-opacity:0.5;stroke-width:0.05px;stroke-linejoin:miter;"/>
                <path d="M309.1,390.9L310,390.4C310.933,390.2 311.6,390.417 312,391.05C312.333,391.483 312.55,392.067 312.65,392.8L312.5,394.15C313.167,393.15 313.6,392.067 313.8,390.9C313.933,389.6 313.9,388.617 313.7,387.95C313.433,387.65 313.05,387.467 312.55,387.4L311.45,387.05C310.983,386.583 310.483,386.317 309.95,386.25C309.417,386.15 309.017,386.217 308.75,386.45C308.117,386.417 307.567,386.6 307.1,387C306.533,387.133 305.967,387.4 305.4,387.8L304.75,388.4C306.283,388.133 307.567,388.333 308.6,389C309.1,389.267 309.267,389.733 309.1,390.4L309.1,390.9M307.5,397.4L301.4,398.45C298.333,398.75 295.983,397.133 294.35,393.6C293.517,393.767 293.45,395 294.15,397.3C296.083,400.867 298.8,402.167 302.3,401.2C305.867,400.033 307.917,398.917 308.45,397.85C308.717,397.15 308.4,397 307.5,397.4M298.5,391.35C300.8,389.017 303.633,387.35 307,386.35C301.8,386.15 298.967,387.817 298.5,391.35" style="fill:#823909;"/>
                <path d="M311.45,391L311.6,391.35L310.7,393.1C309.967,394.167 309.15,394.967 308.25,395.5L306.3,396.55L305.6,396.55L306.35,395.8L307.8,394.1L308.05,393.9C308.15,393.8 308.267,393.733 308.4,393.7L309.75,391.35C309.683,391.217 309.733,391.083 309.9,390.95L311.45,391M312.5,394.15L312.65,392.8C312.55,392.067 312.333,391.483 312,391.05C311.6,390.417 310.933,390.2 310,390.4L309.1,390.9C308.7,391.867 308.067,392.783 307.2,393.65L307.1,393.45L306.9,393.85C305.467,394.983 303.9,395.717 302.2,396.05C300.667,396.283 299.4,396.133 298.4,395.6C297.933,395.133 297.75,394.633 297.85,394.1C298.217,392.933 298.917,391.867 299.95,390.9C301.35,389.6 302.95,388.767 304.75,388.4L305.4,387.8C305.967,387.4 306.533,387.133 307.1,387C307.567,386.6 308.117,386.417 308.75,386.45C309.017,386.217 309.417,386.15 309.95,386.25C310.483,386.317 310.983,386.583 311.45,387.05L312.55,387.4C313.05,387.467 313.433,387.65 313.7,387.95C313.667,386.683 313.25,385.617 312.45,384.75L309.65,385.95C306.45,384.517 302.95,385.3 299.15,388.3L297.85,389.6C297.183,390.3 296.717,391.583 296.45,393.45L297.6,395.5C298.267,396.433 299.717,396.85 301.95,396.75C297.717,397.317 295.417,395.85 295.05,392.35C295.483,390.15 296.967,387.633 299.5,384.8L297.7,386.45C295.233,388.617 293.8,391 293.4,393.6C292.767,396.6 293.517,398.917 295.65,400.55C297.35,401.817 299.583,402.2 302.35,401.7C305.017,401.2 307.433,399.933 309.6,397.9C310.9,396.733 311.867,395.483 312.5,394.15M307.5,397.4C308.4,397 308.717,397.15 308.45,397.85C307.917,398.917 305.867,400.033 302.3,401.2C298.8,402.167 296.083,400.867 294.15,397.3C293.45,395 293.517,393.767 294.35,393.6C295.983,397.133 298.333,398.75 301.4,398.45L307.5,397.4M298.5,391.35C298.967,387.817 301.8,386.15 307,386.35C303.633,387.35 300.8,389.017 298.5,391.35" style="fill:#cb7f13;"/>
                <path d="M311.45,391L309.9,390.95C309.733,391.083 309.683,391.217 309.75,391.35L308.4,393.7C308.267,393.733 308.15,393.8 308.05,393.9L307.8,394.1L306.35,395.8L305.6,396.55L306.3,396.55L308.25,395.5C309.15,394.967 309.967,394.167 310.7,393.1L311.6,391.35L311.45,391" style="fill:#f5b527;"/>
                <path d="M297.8,389.1L298.45,388.1C298.85,387.3 298.917,387 298.65,387.2C298.283,387.3 297.95,387.567 297.65,388C296.683,389.433 296.317,390.217 296.55,390.35L296.85,390.65L297.1,390.45L297.8,389.1" style="fill:#ffff42;"/>
                <path d="M299.5,384.8C296.967,387.633 295.483,390.15 295.05,392.35C295.417,395.85 297.717,397.317 301.95,396.75C299.717,396.85 298.267,396.433 297.6,395.5L296.45,393.45C296.717,391.583 297.183,390.3 297.85,389.6L299.15,388.3C302.95,385.3 306.45,384.517 309.65,385.95L312.45,384.75L311.45,383.8C309.717,382.5 307.467,382.117 304.7,382.65C302.9,383.083 301.167,383.8 299.5,384.8M297.8,389.1L297.1,390.45L296.85,390.65L296.55,390.35C296.317,390.217 296.683,389.433 297.65,388C297.95,387.567 298.283,387.3 298.65,387.2C298.917,387 298.85,387.3 298.45,388.1L297.8,389.1" style="fill:#f9cc64;"/>
                <path d="M309.1,390.9L309.1,390.4C309.267,389.733 309.1,389.267 308.6,389C307.567,388.333 306.283,388.133 304.75,388.4C302.95,388.767 301.35,389.6 299.95,390.9C298.917,391.867 298.217,392.933 297.85,394.1C297.75,394.633 297.933,395.133 298.4,395.6C299.4,396.133 300.667,396.283 302.2,396.05C303.9,395.717 305.467,394.983 306.9,393.85L307.1,393.45L307.2,393.65C308.067,392.783 308.7,391.867 309.1,390.9M313.7,387.95C313.9,388.617 313.933,389.6 313.8,390.9C313.6,392.067 313.167,393.15 312.5,394.15C311.867,395.483 310.9,396.733 309.6,397.9C307.433,399.933 305.017,401.2 302.35,401.7C299.583,402.2 297.35,401.817 295.65,400.55C293.517,398.917 292.767,396.6 293.4,393.6C293.8,391 295.233,388.617 297.7,386.45L299.5,384.8C301.167,383.8 302.9,383.083 304.7,382.65C307.467,382.117 309.717,382.5 311.45,383.8L312.45,384.75C313.25,385.617 313.667,386.683 313.7,387.95" style="fill:none;fill-rule:nonzero;stroke:#000;stroke-opacity:0.5;stroke-width:0.05px;stroke-linejoin:miter;"/>
                <path d="M301.85,405.35C301.65,406.15 301.5,407.167 301.4,408.4L301.4,411.55C300.567,411.617 299.667,413.317 298.7,416.65C298.767,413.083 298.95,410.183 299.25,407.95C299.817,408.617 300.683,407.75 301.85,405.35" style="fill:#7b6020;"/>
                <path d="M301.4,411.55L301.3,421.15L298.65,418.8L298.7,416.65C299.667,413.317 300.567,411.617 301.4,411.55M299.25,407.95C299.95,402.617 301.267,400.967 303.2,403C302.6,403.3 302.15,404.083 301.85,405.35C300.683,407.75 299.817,408.617 299.25,407.95" style="fill:#4b340e;"/>
                <path d="M301.85,405.35C301.65,406.15 301.5,407.167 301.4,408.4L301.4,411.55L301.3,421.15L298.65,418.8L298.7,416.65C298.767,413.083 298.95,410.183 299.25,407.95C299.95,402.617 301.267,400.967 303.2,403C302.6,403.3 302.15,404.083 301.85,405.35Z" style="fill:none;fill-rule:nonzero;stroke:#382510;stroke-opacity:0.3;stroke-width:0.6px;"/>
                <path d="M301.45,419.3C301.483,418.767 301.35,418.267 301.05,417.8C300.717,417.367 300.267,417.133 299.7,417.1C299.133,417.033 298.633,417.167 298.2,417.5C297.767,417.9 297.533,418.367 297.5,418.9C297.433,419.467 297.567,419.95 297.9,420.35C298.267,420.817 298.733,421.083 299.3,421.15C299.867,421.183 300.35,421.017 300.75,420.65C301.15,420.317 301.383,419.867 301.45,419.3M302.3,417.9C302.867,418.6 303.1,419.367 303,420.2C302.933,421.067 302.55,421.75 301.85,422.25C301.183,422.783 300.417,423.017 299.55,422.95C298.717,422.85 298.033,422.467 297.5,421.8C297,421.2 296.783,420.467 296.85,419.6C296.95,418.767 297.317,418.05 297.95,417.45C298.583,416.917 299.317,416.7 300.15,416.8C301.017,416.867 301.733,417.233 302.3,417.9" style="fill:#6c2206;"/>
                <path d="M301.45,419.3C301.383,419.867 301.15,420.317 300.75,420.65C300.35,421.017 299.867,421.183 299.3,421.15C298.733,421.083 298.267,420.817 297.9,420.35C297.567,419.95 297.433,419.467 297.5,418.9C297.533,418.367 297.767,417.9 298.2,417.5C298.633,417.167 299.133,417.033 299.7,417.1C300.267,417.133 300.717,417.367 301.05,417.8C301.35,418.267 301.483,418.767 301.45,419.3" style="fill:#c16100;"/>
                <path d="M302.3,417.9C302.867,418.6 303.1,419.367 303,420.2C302.933,421.067 302.55,421.75 301.85,422.25C301.183,422.783 300.417,423.017 299.55,422.95C298.717,422.85 298.033,422.467 297.5,421.8C297,421.2 296.783,420.467 296.85,419.6C296.95,418.767 297.317,418.05 297.95,417.45C298.583,416.917 299.317,416.7 300.15,416.8C301.017,416.867 301.733,417.233 302.3,417.9Z" style="fill:none;fill-rule:nonzero;stroke:#382510;stroke-opacity:0.3;stroke-width:0.3px;"/>
                <path d="M299.2,418.8C299.067,419 298.9,419.083 298.7,419.05C298.5,419.05 298.317,418.933 298.15,418.7L297.95,418.25L298.25,417.65L298.85,417.5L299.3,417.75C299.5,417.917 299.583,418.133 299.55,418.4L299.2,418.8" style="fill:#ffa004;"/>
                <path d="M303.75,399.35L304,399.25L303.95,399.1L303.7,398.45L303.6,398.2C305.5,397.733 306.533,398.417 306.7,400.25L303.65,401.55C303.65,401.75 303.683,401.817 303.75,401.75C305.717,401.117 306.9,401.583 307.3,403.15C307.667,404.65 307.083,405.783 305.55,406.55C303.717,406.95 302.667,406.383 302.4,404.85L303.95,404.25L304.25,403.35L303.35,402.65L301.2,400.85C301.467,399.85 302.317,399.35 303.75,399.35" style="fill-opacity:0.3;"/>
                <path d="M303.35,402.65L304.25,403.35L303.95,404.25L302.4,404.85C300.633,405.25 299.283,404.633 298.35,403C299.983,404.033 301.183,403.983 301.95,402.85L303.35,402.65" style="fill:#823909;"/>
                <path d="M303.6,398.2L303.7,398.45L303.95,399.1L304,399.25L303.75,399.35C302.317,399.35 301.467,399.85 301.2,400.85C301.067,401.183 301.067,401.583 301.2,402.05L301.95,402.85C301.183,403.983 299.983,404.033 298.35,403L298.2,402.35C297.1,399.683 297.667,398.117 299.9,397.65L303.35,397.75L303.45,397.95L303.6,398.2" style="fill:#f5b527;"/>
                <path d="M303.75,399.35C302.317,399.35 301.467,399.85 301.2,400.85C301.067,401.183 301.067,401.583 301.2,402.05L301.95,402.85L303.35,402.65M304.25,403.35L303.95,404.25L302.4,404.85C300.633,405.25 299.283,404.633 298.35,403L298.2,402.35C297.1,399.683 297.667,398.117 299.9,397.65L303.35,397.75" style="fill:none;fill-rule:nonzero;stroke:#000;stroke-opacity:0.3;stroke-width:0.4px;"/>
                <path d="M299.15,400.5L298.4,400.55C298.3,400.383 298.333,399.983 298.5,399.35C298.567,398.75 298.917,398.35 299.55,398.15L301.3,398.1C301.867,398.167 302.2,398.3 302.3,398.5C302.467,398.7 302.317,398.9 301.85,399.1L300.4,399.7C299.8,400 299.383,400.267 299.15,400.5" style="fill:#ffff42;"/>
                <path d="M306.15,409.15C306.45,411.95 306.617,415.55 306.65,419.95L303.75,422.4L303.65,408.65L303.5,406.9C304.667,408.9 305.55,409.65 306.15,409.15" style="fill:#7b6020;"/>
                <path d="M306.15,409.15C305.55,409.65 304.667,408.9 303.5,406.9C303.2,404.633 302.583,403.283 301.65,402.85C303.883,400.517 305.383,402.617 306.15,409.15" style="fill:#4b340e;"/>
                <path d="M303.5,406.9L303.65,408.65L303.75,422.4L306.65,419.95C306.617,415.55 306.45,411.95 306.15,409.15C305.383,402.617 303.883,400.517 301.65,402.85C302.583,403.283 303.2,404.633 303.5,406.9Z" style="fill:none;fill-rule:nonzero;stroke:#382510;stroke-opacity:0.3;stroke-width:0.6px;"/>
                <path d="M307.8,419.05C308.4,419.783 308.65,420.6 308.55,421.5C308.45,422.433 308.05,423.167 307.35,423.7C306.617,424.3 305.783,424.55 304.85,424.45C303.95,424.35 303.2,423.933 302.6,423.2C302.033,422.567 301.8,421.783 301.9,420.85C302,419.95 302.383,419.183 303.05,418.55C303.783,417.95 304.6,417.7 305.5,417.8C306.433,417.9 307.2,418.317 307.8,419.05M306.85,420.45C306.917,419.883 306.767,419.367 306.4,418.9C306.033,418.433 305.55,418.167 304.95,418.1C304.317,418.033 303.783,418.2 303.35,418.6C302.917,419 302.667,419.483 302.6,420.05C302.533,420.683 302.683,421.217 303.05,421.65C303.383,422.15 303.867,422.433 304.5,422.5C305.1,422.567 305.633,422.383 306.1,421.95C306.533,421.583 306.783,421.083 306.85,420.45" style="fill:#6c2206;"/>
                <path d="M306.85,420.45C306.783,421.083 306.533,421.583 306.1,421.95C305.633,422.383 305.1,422.567 304.5,422.5C303.867,422.433 303.383,422.15 303.05,421.65C302.683,421.217 302.533,420.683 302.6,420.05C302.667,419.483 302.917,419 303.35,418.6C303.783,418.2 304.317,418.033 304.95,418.1C305.55,418.167 306.033,418.433 306.4,418.9C306.767,419.367 306.917,419.883 306.85,420.45" style="fill:#c16100;"/>
                <path d="M307.8,419.05C308.4,419.783 308.65,420.6 308.55,421.5C308.45,422.433 308.05,423.167 307.35,423.7C306.617,424.3 305.783,424.55 304.85,424.45C303.95,424.35 303.2,423.933 302.6,423.2C302.033,422.567 301.8,421.783 301.9,420.85C302,419.95 302.383,419.183 303.05,418.55C303.783,417.95 304.6,417.7 305.5,417.8C306.433,417.9 307.2,418.317 307.8,419.05Z" style="fill:none;fill-rule:nonzero;stroke:#382510;stroke-opacity:0.3;stroke-width:0.3px;"/>
                <path d="M304.4,420.05C304.267,420.217 304.1,420.283 303.9,420.25L303.3,419.9L303.1,419.35L303.45,418.75L304.05,418.55L304.55,418.9C304.75,419.033 304.833,419.233 304.8,419.5L304.4,420.05" style="fill:#ffa004;"/>
            </g>
        </g>
    </g>
</svg>
