<?xml version="1.0" encoding="UTF-8"?>
<svg version="1.1" viewBox="0 0 411.2 373.24" xmlns="http://www.w3.org/2000/svg" xmlns:cc="http://creativecommons.org/ns#" xmlns:dc="http://purl.org/dc/elements/1.1/" xmlns:rdf="http://www.w3.org/1999/02/22-rdf-syntax-ns#" xmlns:xlink="http://www.w3.org/1999/xlink">
<metadata>
<rdf:RDF>
<cc:Work rdf:about="">
<dc:format>image/svg+xml</dc:format>
<dc:type rdf:resource="http://purl.org/dc/dcmitype/StillImage"/>
</cc:Work>
</rdf:RDF>
</metadata>
<g transform="translate(-74.85 -216.37)">
<use transform="translate(74.85,216.35)" width="411.20001" height="373.25" xlink:href="#a"/>
</g>
<defs>
<g id="a" transform="translate(.5 .5)">
<use transform="translate(-.5 -.5)" width="411.20001" height="373.25" xlink:href="#b"/>
</g>
<g id="b" transform="translate(.5 .5)">
<path d="m298.4 50.15-279.65 315.75q-15.5 17.45-18.75-12.95l283.95-310.7-0.05-0.05q54.1-64.15 106.65-30.75 43.8 27.9-10 88.35-12 12.95-15.55-8.5 38.4-43.05 7.9-62.8-34.1-22.8-70.55 16.9-2.05 2.2-3.95 4.75 1.9-2.55 3.95-4.75l0.25 0.15-4.2 4.6" fill="#413411" fill-rule="evenodd"/>
<path d="m302.35 45.4q36.45-39.7 70.55-16.9 30.5 19.75-7.9 62.8 3.55 21.45 15.55 8.5 53.8-60.45 10-88.35-52.55-33.4-106.65 30.75l0.05 0.05-283.95 310.7q3.25 30.4 18.75 12.95l279.65-315.75q1.9-2.55 3.95-4.75m0.25 0.15-4.2 4.6" fill="none" stroke="#003" stroke-linecap="round" stroke-linejoin="round" stroke-opacity=".27843"/>
</g>
</defs>
</svg>
