<?xml version="1.0" encoding="UTF-8" standalone="no"?>
<!DOCTYPE svg PUBLIC "-//W3C//DTD SVG 1.1//EN" "http://www.w3.org/Graphics/SVG/1.1/DTD/svg11.dtd">
<svg width="100%" height="100%" viewBox="0 0 195 181" version="1.1" xmlns="http://www.w3.org/2000/svg" xmlns:xlink="http://www.w3.org/1999/xlink" xml:space="preserve" xmlns:serif="http://www.serif.com/" style="fill-rule:evenodd;clip-rule:evenodd;stroke-linecap:round;stroke-linejoin:round;">
    <g transform="matrix(1,0,0,1,-158.275,-61.725)">
        <g>
            <g id="shape0">
                <path d="M230.85,77.85L228.6,75.65C229.033,73.617 229.8,71.983 230.9,70.75C236.567,66.35 242.317,64.15 248.15,64.15C249.117,64.517 249.8,65 250.2,65.6C250.6,66.167 251.033,67.517 251.5,69.65C252.4,75.817 252.317,81.217 251.25,85.85C250.183,88.117 248.267,90.1 245.5,91.8C241.4,94.833 236.867,96.317 231.9,96.25C231.233,95.717 230.883,94.833 230.85,93.6C232.05,94.3 232.683,93.517 232.75,91.25L232.75,94.75C236.683,94.45 239.783,93.55 242.05,92.05L243.15,91.3L245,90C246,89.333 246.617,88.75 246.85,88.25L246.95,88.2L246.95,88.25C247.917,87.817 248.917,86.333 249.95,83.8C250.95,78.433 251.017,73.417 250.15,68.75C249.55,67.183 248.5,66.15 247,65.65C242.033,66.317 237.4,68.267 233.1,71.5C231.767,73.233 231.017,75.35 230.85,77.85" style="fill:#ccc;"/>
                <path d="M230.85,77.85C231.017,75.35 231.767,73.233 233.1,71.5C237.4,68.267 242.033,66.317 247,65.65C248.5,66.15 249.55,67.183 250.15,68.75C251.017,73.417 250.95,78.433 249.95,83.8C248.917,86.333 247.917,87.817 246.95,88.25L247.05,88.1C249.55,84.2 250.15,78.05 248.85,69.65C246.517,67.15 241.767,68.4 234.6,73.4L233.1,77.55C232.867,78.317 232.117,78.417 230.85,77.85M230.85,93.6C230.883,94.833 231.233,95.717 231.9,96.25C236.867,96.317 241.4,94.833 245.5,91.8C248.267,90.1 250.183,88.117 251.25,85.85C250.85,87.55 250.317,89.133 249.65,90.6C243.65,94.867 237.633,97.5 231.6,98.5C229.967,97.067 229.25,95.633 229.45,94.2L230.85,93.6" style="fill:#666;"/>
                <path d="M232.75,91.25C232.683,93.517 232.05,94.3 230.85,93.6L230.85,77.85C232.117,78.417 232.867,78.317 233.1,77.55L232.75,91.25M187.6,142C187.867,142.5 188.8,142.733 190.4,142.7L190.4,162.15L187.6,142" style="fill:#513600;"/>
                <path d="M228.6,75.65L230.85,77.85C213.35,87.95 200.367,101.7 191.9,119.1C187.967,127.967 187.467,135.833 190.4,142.7C188.8,142.733 187.867,142.5 187.6,142C184.5,136.667 184.817,129.533 188.55,120.6C195.183,104.8 208.533,89.817 228.6,75.65" style="fill:#960;"/>
                <path d="M190.4,142.7C187.467,135.833 187.967,127.967 191.9,119.1C200.367,101.7 213.35,87.95 230.85,77.85L230.85,93.6L229.45,94.2C210.917,102.3 197.9,121.7 190.4,152.4L190.4,142.7" style="fill:#754f00;"/>
                <path d="M228.6,75.65L230.85,77.85C232.117,78.417 232.867,78.317 233.1,77.55L234.6,73.4C241.767,68.4 246.517,67.15 248.85,69.65C250.15,78.05 249.55,84.2 247.05,88.1L246.95,88.25L246.95,88.2M246.85,88.25C246.617,88.75 246,89.333 245,90L243.15,91.3L242.05,92.05C239.783,93.55 236.683,94.45 232.75,94.75L232.75,91.25C232.683,93.517 232.05,94.3 230.85,93.6L229.45,94.2C229.25,95.633 229.967,97.067 231.6,98.5C237.633,97.5 243.65,94.867 249.65,90.6C250.317,89.133 250.85,87.55 251.25,85.85C252.317,81.217 252.4,75.817 251.5,69.65C251.033,67.517 250.6,66.167 250.2,65.6C249.8,65 249.117,64.517 248.15,64.15C242.317,64.15 236.567,66.35 230.9,70.75C229.8,71.983 229.033,73.617 228.6,75.65C208.533,89.817 195.183,104.8 188.55,120.6C184.817,129.533 184.5,136.667 187.6,142C187.867,142.5 188.8,142.733 190.4,142.7C187.467,135.833 187.967,127.967 191.9,119.1C200.367,101.7 213.35,87.95 230.85,77.85L230.85,93.6M233.1,77.55L232.75,91.25M190.4,142.7L190.4,152.4C197.9,121.7 210.917,102.3 229.45,94.2M190.4,152.4L190.4,162.15L187.6,142" style="fill:none;fill-rule:nonzero;stroke:#000;stroke-opacity:0.4;stroke-width:0.05px;"/>
                <path d="M246.95,88.2L246.85,88.25" style="fill:none;fill-rule:nonzero;stroke:#0f0;stroke-width:0.05px;"/>
                <path d="M319.5,80.85C317.767,71.65 325.9,65.283 343.9,61.75C348.067,61.783 350.933,62.667 352.5,64.4L352.5,68.1C351.6,65.9 348.6,64.667 343.5,64.4C326.1,67.533 319.367,74.033 323.3,83.9L327.45,91.05C331.817,99.683 334.283,108.767 334.85,118.3L334.95,121.5L334.95,124C334.85,127.9 334.45,131.883 333.75,135.95C327.917,152.117 315.617,163.467 296.85,170L294.45,167.75C310.417,162.95 321.55,154.8 327.85,143.3L330.8,136.7C334.933,121.7 331.683,104.583 321.05,85.35C320.283,83.783 319.767,82.283 319.5,80.85" style="fill:#960;"/>
                <path d="M296.85,170C315.617,163.467 327.917,152.117 333.75,135.95C334.45,131.883 334.85,127.9 334.95,124L334.95,147.15C330.083,167.917 316.2,181.417 293.3,187.65L296.85,170M327.45,91.05L323.3,83.9C319.367,74.033 326.1,67.533 343.5,64.4C348.6,64.667 351.6,65.9 352.5,68.1C352.1,71.5 348.367,74 341.3,75.6C334.9,76.8 330.283,81.95 327.45,91.05" style="fill:#754f00;"/>
                <path d="M319.5,80.85C319.767,82.283 320.283,83.783 321.05,85.35C331.683,104.583 334.933,121.7 330.8,136.7L327.85,143.3C329.017,122.3 327.367,108.983 322.9,103.35L319.5,80.85" style="fill:#513600;"/>
                <path d="M352.5,68.1L352.5,64.4C350.933,62.667 348.067,61.783 343.9,61.75C325.9,65.283 317.767,71.65 319.5,80.85C319.767,82.283 320.283,83.783 321.05,85.35C331.683,104.583 334.933,121.7 330.8,136.7L327.85,143.3C321.55,154.8 310.417,162.95 294.45,167.75L296.85,170C315.617,163.467 327.917,152.117 333.75,135.95C334.45,131.883 334.85,127.9 334.95,124L334.95,121.5L334.85,118.3C334.283,108.767 331.817,99.683 327.45,91.05L323.3,83.9C319.367,74.033 326.1,67.533 343.5,64.4C348.6,64.667 351.6,65.9 352.5,68.1C352.1,71.5 348.367,74 341.3,75.6C334.9,76.8 330.283,81.95 327.45,91.05M319.5,80.85L322.9,103.35C327.367,108.983 329.017,122.3 327.85,143.3M295.55,170.4L296.85,170L293.3,187.65C316.2,181.417 330.083,167.917 334.95,147.15L334.95,124" style="fill:none;fill-rule:nonzero;stroke:#000;stroke-opacity:0.4;stroke-width:0.05px;"/>
                <path d="M189.75,101.05L191,102.55L191.85,122.45L192.45,133L192.45,140.35L189.75,159.95L189.75,101.05M200.15,147.7L207.45,153.7L207.8,154C207.533,155.9 205.35,156.383 201.25,155.45C198.35,163.05 196.317,172.083 195.15,182.55L196.2,151L200.15,147.7M212.6,157.9L225.05,168.15L229.2,166.35L228.1,174.25L224.45,175.85L224.45,231.45L221,238.7L210.8,229.8L210.9,229.35L213.7,209.75L208.7,223L205.25,218.9C202.75,197.733 203.617,178.517 207.85,161.25C211.317,161.65 212.9,160.533 212.6,157.9M234.65,164L242.55,160.55L237.2,178.4L234.65,185L234.65,164M250.75,157L256.25,154.6C256.883,157.3 259.333,158.683 263.6,158.75L267.4,186.9L266.2,220.85L245.15,231.35L248.35,207C252.817,192.267 254.817,177.533 254.35,162.8L250.1,160.95L250.75,157M285.8,133.65L306.9,125.35L313.25,128.75L291.45,141.2L315.85,132L309.7,167.8L302.4,187.35L308.2,149.6L304.35,149.6L298.95,172.9C288.883,193.767 278.1,208.617 266.6,217.45L269.4,192.55C273.467,174.083 279.65,157.533 287.95,142.9C282.683,140.667 281.967,137.583 285.8,133.65M309.05,186.95L305.4,197.5L305,200.15L283.55,212.8L309.05,186.95M190.65,201.3L190.6,204.75L189.35,206.05L189.35,190L190.65,172.7L190.65,201.3M186.1,195.6L184.1,193.1L185.4,187.6L186.1,195.6M170,170.9L168.8,169.45L167.1,158.35L158.3,136.65L160.9,137.75L165.15,145.75L165.85,147.1C165.583,138.033 166.433,130.167 168.4,123.5L171.6,122.1L172.2,127.25L168.4,123.5L172.2,127.25L174.95,151.05L168.8,135.55L167.7,138.25L174.5,160.9C173.6,165.6 172.1,168.933 170,170.9M160.7,105L164.35,115.75L166.2,121.35L165.25,123.65L160.7,105M182.2,115.35L184.55,117.1L184.55,122.95L182.1,124.15L182.05,124.15L173.9,117.2L182.05,124.15C184.317,136.317 185.233,147.083 184.8,156.45L179.35,139.25L176.3,138.4L181.65,167.05L175.9,153.35C174.433,140.183 173.767,128.133 173.9,117.2L173.9,117.15C175.633,115.05 178.4,114.45 182.2,115.35M167.1,158.35L169.8,165.05L167.1,158.35M170.65,156.15L165.85,147.1L170.65,156.15M271.9,147.25L278.85,147.25L273.35,157.75L271.9,147.25M296.9,149.85C284.367,163.85 277.8,177.8 277.2,191.7C283.733,186.367 290.3,172.417 296.9,149.85M215.8,173.45C212.3,186.883 211.567,197.233 213.6,204.5C215.633,197.567 216.367,187.217 215.8,173.45" style="fill:#715b3e;"/>
                <path d="M184.55,117.1L184.55,101.05L189.75,101.05L189.75,159.95L192.45,140.35L192.45,147.7L194.35,205.9L190.65,201.3L190.65,172.7L189.35,190L189.35,206.05L186.7,202.35L186.1,195.6L185.4,187.6L184.1,193.1L179,186.7L178.35,180.95L177.05,169.35L174.5,160.9L167.7,138.25L168.8,135.55L174.95,151.05L175.9,153.35L181.65,167.05L176.3,138.4L179.35,139.25L184.8,156.45C185.233,147.083 184.317,136.317 182.05,124.15L182.1,124.15L184.55,126.25L184.55,117.1M256.25,154.6L264.7,150.9L268.55,154.1L267.4,186.9L263.6,158.75C259.333,158.683 256.883,157.3 256.25,154.6M165.15,145.75L158.5,103.9L160.7,105L165.25,123.65L166.2,121.35L164.35,115.75L165.6,115.75L171.45,120.85L171.6,122.1L168.4,123.5L166.2,121.35L168.4,123.5C166.433,130.167 165.583,138.033 165.85,147.1L165.15,145.75M170.7,114.45L178.4,112.55L182.2,115.35C178.4,114.45 175.633,115.05 173.9,117.15L170.7,114.45M188.45,168.1L184.8,156.45L188.45,168.1M179.35,176.35L177.05,169.35L179.35,176.35M296.9,149.85C290.3,172.417 283.733,186.367 277.2,191.7C277.8,177.8 284.367,163.85 296.9,149.85" style="fill:#8a7342;"/>
                <path d="M191.85,122.45L200.15,128.55L192.45,133L191.85,122.45M208.25,154.35L212.6,157.9C212.9,160.533 211.317,161.65 207.85,161.25C203.617,178.517 202.75,197.733 205.25,218.9L194.35,205.9L195.15,182.55C196.317,172.083 198.35,163.05 201.25,155.45C205.35,156.383 207.533,155.9 207.8,154L208.25,154.35M229.2,166.35L230.8,154.75L234.65,154.75L234.65,185L237.2,178.4L242.55,160.55L246.8,146.4L252.55,146.4L250.75,157L250.1,160.95L254.35,162.8C254.817,177.533 252.817,192.267 248.35,207L240.45,233.75L228.85,242.1L224.45,231.45L224.45,200.75L228.1,174.25L229.2,166.35M264.7,141.95L285.8,133.65C281.967,137.583 282.683,140.667 287.95,142.9C279.65,157.533 273.467,174.083 269.4,192.55L273.35,157.75L278.85,147.25L271.9,147.25L264.7,141.95M313.25,128.75L315.85,132L291.45,141.2L313.25,128.75M309.7,167.8L314.55,154.75L319.05,157.95L309.05,186.95L283.55,212.8L265.95,223.1L266.2,220.85L266.6,217.45C278.1,208.617 288.883,193.767 298.95,172.9L304.35,149.6L308.2,149.6L302.4,187.35L309.7,167.8M178.35,180.95L170,170.9C172.1,168.933 173.6,165.6 174.5,160.9L177.05,169.35L178.35,180.95M171.45,120.85L170.7,114.45L173.9,117.15L173.9,117.2C173.767,128.133 174.433,140.183 175.9,153.35L174.95,151.05L172.2,127.25L171.6,122.1L171.45,120.85M184.55,122.95L184.55,126.25L182.1,124.15L184.55,122.95M234.65,193.75L234.65,185L234.65,193.75M246.15,184.15L250.1,160.95L246.15,184.15M297.95,177.1L298.95,172.9L297.95,177.1M215.8,173.45C216.367,187.217 215.633,197.567 213.6,204.5C211.567,197.233 212.3,186.883 215.8,173.45" style="fill:#8a704d;"/>
                <path d="M200.15,128.55L200.15,147.7L196.2,151L195.15,182.55L194.35,205.9L192.45,147.7L192.45,133L200.15,128.55M264.7,150.9L264.7,141.95L271.9,147.25L273.35,157.75L269.4,192.55L266.6,217.45L266.2,220.85L267.4,186.9L268.55,154.1L264.7,150.9M245.15,231.35C243.083,229.983 241.517,230.783 240.45,233.75L248.35,207L245.15,231.35M228.85,242.1L221,238.7L224.45,231.45L228.85,242.1M210.9,229.35C211.467,224.517 210.733,222.4 208.7,223L213.7,209.75L210.9,229.35M224.45,200.75L224.45,175.85L228.1,174.25L224.45,200.75" style="fill:#53432d;"/>
                <path d="M184.55,117.1L184.55,101.05L189.75,101.05L191,102.55L191.85,122.45L200.15,128.55M229.2,166.35L230.8,154.75L234.65,154.75L234.65,193.75M242.55,160.55L246.8,146.4L252.55,146.4L250.75,157L250.1,160.95L246.15,184.15M309.7,167.8L314.55,154.75L319.05,157.95L309.05,186.95L305.4,197.5M228.85,242.1L221,238.7L210.8,229.8L210.9,229.35C211.467,224.517 210.733,222.4 208.7,223L205.25,218.9L194.35,205.9L190.65,201.3L190.6,204.75L189.35,206.05L186.7,202.35L186.1,195.6L184.1,193.1L179,186.7L178.35,180.95L170,170.9L168.8,169.45L167.1,158.35L158.3,136.65L160.9,137.75L165.15,145.75L158.5,103.9L160.7,105L164.35,115.75L165.6,115.75L171.45,120.85L170.7,114.45L178.4,112.55L182.2,115.35L184.55,117.1L184.55,126.25L182.1,124.15L182.05,124.15L182.1,124.15M184.8,156.45L188.45,168.1M168.4,123.5L172.2,127.25L171.6,122.1L171.45,120.85M166.2,121.35L164.35,115.75M166.2,121.35L168.4,123.5M173.9,117.15L173.9,117.2L173.9,117.15L170.7,114.45M175.9,153.35L181.65,167.05L176.3,138.4L179.35,139.25L184.8,156.45M174.5,160.9L167.7,138.25L168.8,135.55L174.95,151.05L172.2,127.25M165.15,145.75L165.85,147.1L170.65,156.15M192.45,133L191.85,122.45M173.9,117.2L182.05,124.15M169.8,165.05L167.1,158.35M174.5,160.9L177.05,169.35L179.35,176.35M174.95,151.05L175.9,153.35M185.4,187.6L186.1,195.6M177.05,169.35L178.35,180.95M200.15,147.7L196.2,151L195.15,182.55L194.35,205.9M224.45,200.75L228.1,174.25L229.2,166.35M242.55,160.55L237.2,178.4L234.65,185M298.95,172.9L304.35,149.6L308.2,149.6L302.4,187.35L309.7,167.8M298.95,172.9L297.95,177.1" style="fill:none;fill-rule:nonzero;stroke:#000;stroke-opacity:0.4;stroke-width:0.05px;"/>
                <path d="M200.15,128.55L200.15,147.7L207.45,153.7L208.25,154.35L212.6,157.9L225.05,168.15L229.2,166.35M234.65,164L242.55,160.55M250.75,157L256.25,154.6L264.7,150.9L264.7,141.95L306.9,125.35L313.25,128.75L315.85,132L309.7,167.8M305.4,197.5L305,200.15L283.55,212.8L265.95,223.1L266.2,220.85L245.15,231.35C243.083,229.983 241.517,230.783 240.45,233.75L228.85,242.1M192.45,133L200.15,128.55M192.45,147.7L192.45,133M267.4,186.9L268.55,154.1L264.7,150.9M267.4,186.9L266.2,220.85L266.6,217.45" style="fill:none;fill-rule:nonzero;stroke:#000;stroke-opacity:0.4;stroke-width:0.05px;"/>
                <path d="M200.15,128.55L192.45,133L191.85,122.45L200.15,128.55M164.35,115.75L165.6,115.75L171.45,120.85L172.2,127.25L166.2,121.35L164.35,115.75M170.7,114.45L178.4,112.55L184.55,117.1L184.55,126.25L182.1,124.15L182.05,124.15L173.9,117.2L173.9,117.15L170.7,114.45M229.2,166.35L228.1,174.25L224.45,175.85L207.85,161.25L196.2,151L200.15,147.7L225.05,168.15L229.2,166.35M240,169.05L234.65,171.4L234.65,164L242.55,160.55L240,169.05M313.25,128.75L315.85,132L291.45,141.2L287.95,142.9L278.85,147.25L271.9,147.25L264.7,141.95L306.9,125.35L313.25,128.75M268.55,154.1L268.45,156.65L249.4,164.95L250.75,157L264.7,150.9L268.55,154.1" style="fill:#fff;fill-opacity:0.24;"/>
            </g>
        </g>
    </g>
</svg>
