<?xml version="1.0" encoding="UTF-8"?>
<svg version="1.1" viewBox="0 0 140.03 84.872" xmlns="http://www.w3.org/2000/svg" xmlns:cc="http://creativecommons.org/ns#" xmlns:dc="http://purl.org/dc/elements/1.1/" xmlns:rdf="http://www.w3.org/1999/02/22-rdf-syntax-ns#" xmlns:xlink="http://www.w3.org/1999/xlink">
<metadata>
<rdf:RDF>
<cc:Work rdf:about="">
<dc:format>image/svg+xml</dc:format>
<dc:type rdf:resource="http://purl.org/dc/dcmitype/StillImage"/>
</cc:Work>
</rdf:RDF>
</metadata>
<g transform="translate(-205.45 -157.52)">
<use transform="translate(205.45,157.55)" width="140" height="84.800003" xlink:href="#a"/>
</g>
<defs>
<g id="a" transform="translate(-205.45,-157.55)">
<path d="m264.15 211.8-2.45 0.9-5-35.3v-0.05l34.5-19.65 0.05 0.05 0.15 3.5-30 16.85-2.15 1.2 0.1 0.6 4.8 31.9m-7.45-34.4 4.7 0.7-4.7-0.7" fill="#5c6d70" fill-rule="evenodd"/>
<path d="m256.65 177.3 7.8-13.1 1.45-0.75 4.6-1.1 0.9 1-0.4 0.6 0.4-0.6-0.9-1 1.8-0.45 18.45-4.35h0.05l0.4 0.15-34.5 19.65v-0.05h-0.05m15-13.65-0.25-0.3 0.9-1.45-0.9 1.45 0.25 0.3" fill="#d2dadb" fill-rule="evenodd"/>
<path d="m318.7 167.9 8.75 3.25-39.7 21.65-0.2-0.1-28.2-12.8-0.1-0.6 2.15-1.2 30-16.85 3.7-2.1 18.9 7-0.75 2.8 5.45-1.05m-34.4 2.3 16.5-1.25-0.9 9.9v0.05l-18.75 2.85 3.15-11.55m18.65 10.65v-0.05l1.2-13.1-21.9 1.65-4.15 15.3 24.85-3.8" fill="#b7c5c6" fill-rule="evenodd"/>
<path d="m338.8 172.8 0.05 0.35-43.8 22.75-0.05-0.05-7.25-3.05 39.7-21.65 2.95-1.3 8.4 2.95" fill="#98acad" fill-rule="evenodd"/>
<path d="m345.45 209.15-2.25 9.25-39.3 22.45-0.3-0.1-8.6-44.85h0.05l43.8-22.75 2.6 14.25-4.25 6.6 5.4-0.3 2.85 15.45m-61.15-38.95 0.1-0.45-0.1 0.45-3.15 11.55 18.75-2.85v-0.05l0.9-9.9-16.5 1.25m22.65 54.55 3.7-6-1.8-2.7 1.8 2.7-3.7 6m5.9-18 4.8 0.5 3.9-6.4-3.9 6.4 7 0.75-7-0.75-7 11.5 2.5 3.8-2.5-3.8 7-11.5-4.8-0.5m-9.9-25.9-24.85 3.8 4.15-15.3 21.9-1.65-1.2 13.1v0.05" fill="#849c9d" fill-rule="evenodd"/>
<path d="m303.6 240.75-7.6-3.25-0.9-4.65-7.55-40.05h0.2l7.25 3.05v0.05l8.6 44.85" fill="#667e80" fill-rule="evenodd"/>
<path d="m295.1 232.85-30.75-17.75-0.15-1.5-0.05-1.8-4.8-31.9 28.2 12.8v0.1l7.55 40.05" fill="#465657" fill-rule="evenodd"/>
<path d="m343.2 218.4-39.3 22.45m38.7-47.15 2.85 15.45m-6.65-36.35 0.05 0.35 2.6 14.25m-14-16.25 2.95-1.3m-2.95 1.3-39.7 21.65m7.3 3.1 43.8-22.75m-47.6-15.4 0.15 3.5m-7 8.5-0.1 0.45 16.5-1.25-0.9 9.9v0.05l-18.75 2.85 3.15-11.55m10.7 25.7h0.05m7.9-15.05-24.85 3.8 4.15-15.3 21.9-1.65-1.2 13.1v0.05" fill="none" stroke="#000" stroke-linecap="round" stroke-linejoin="round" stroke-opacity=".30196" stroke-width=".05"/>
<path d="m303.9 240.85-0.3-0.1-7.6-3.25-0.9-4.65-30.75-17.75q-0.05 0.6-0.1-0.05l-0.05-1.45-0.05-1.8-2.45 0.9-5-35.3v-0.05l-0.1 0.05 0.05-0.1 7.8-13.1 1.45-0.75 4.6-1.1-0.75-0.85m60.65 8.35 8.4 2.95m-20.1-4.9 8.75 3.25m-39.7 21.65 7.25 3.05 0.05 0.05m-22.75-34 0.25-0.4m-1.55 2.45 0.4-0.6-0.9-1 1.8-0.45 18.45-4.35h0.05l0.4 0.15 0.05 0.05m0.15 3.5 3.7-2.1 18.9 7m-41.7-4.25-0.9 1.45 0.25 0.3m15.9 29.05v0.1l7.55 40.05m-7.35-40.05-0.2-0.1-28.2-12.8 4.8 31.9m-4.8-31.9-0.1-0.6 2.15-1.2-4.7-0.7m7.65 37.7-0.15-1.5m0.15 1.5-0.1-0.05m57.3-14.2-3.9 6.4 7 0.75m-7-0.75-7 11.5 2.5 3.8m4.5-15.3-4.8-0.5m-4 9.3 1.8 2.7-3.7 6m-45.55-46.65 30-16.85m-34.8 16.15 0.1-0.1v0.05l34.5-19.65m3.8 38.2 8.6 44.85" fill="none" stroke="#000" stroke-linecap="round" stroke-linejoin="round" stroke-opacity=".30196" stroke-width=".05"/>
<path d="m257.95 213q1.95 4.65-1.8 9.35l-41.45 19.75q-1.5-4.5-4.15-7.65l47.4-21.45" fill="#997846" fill-rule="evenodd"/>
<path d="m255.95 209.8 19.4-9.1q8.8 1.95 4.7 10.3l-23.9 11.35q3.75-4.7 1.8-9.35-0.7-1.6-2-3.2m-41.25 32.3q-5.3 1.3-8.9-3.6-1.3-4.65 2.55-6.25l2.2 2.2q2.65 3.15 4.15 7.65" fill="#715833" fill-rule="evenodd"/>
<path d="m255.95 209.8q1.3 1.6 2 3.2l-47.4 21.45-2.2-2.2 47.6-22.45" fill="#b6935f" fill-rule="evenodd"/>
<path d="m256.15 222.35 23.9-11.35q4.1-8.35-4.7-10.3l-19.4 9.1m0.2 12.55-41.45 19.75q-5.3 1.3-8.9-3.6-1.3-4.65 2.55-6.25l47.6-22.45m-45.4 24.65-2.2-2.2m6.35 9.85q-1.5-4.5-4.15-7.65" fill="none" stroke="#000" stroke-linecap="round" stroke-linejoin="round" stroke-opacity=".30196" stroke-width=".05"/>
</g>
</defs>
</svg>
