<?xml version="1.0" encoding="UTF-8"?>
<svg width="34px" height="42px" version="1.1" viewBox="262.05 176.35 33.9 42.15" xmlns="http://www.w3.org/2000/svg" xmlns:xlink="http://www.w3.org/1999/xlink">
<defs>
<g id="a">
<path d="m15.75 10.05q-0.85-0.7-1.2-1.75-0.3-1.15 0.3-1.9 0.4-0.65 1.2-0.9l-0.2 0.25q-0.65 0.4-0.75 1.35t0.7 1.15l1.6-1.3q0.8-0.65 0.15-1.1l-1.15-0.4q1.1-0.1 2 0.55l0.35 0.45 0.35 0.35-0.45 1-0.3 0.5-0.3 0.55-1.2 1.35-0.55 0.2-0.55-0.35m13.9 4.15q0.65 0.5 0.8 1.5 0.15 0.9-0.45 1.8-0.7 0.75-1.7 0.8-0.9 0.05-1.95-0.5l-0.35-0.35-0.05-0.55 0.05 0.55-0.1-0.05q-0.1-0.1-0.05-0.35l0.1-0.15q0.45-1.2 1.25-2.1 0.4-0.7 1-0.95 0.55-0.5 1.1 0.1l-0.75-0.15q-0.7 0.25-0.6 0.95l1.2-0.05q1.35 0.4 0.5-0.5m-5.4 7.95 0.3 0.8 0.05 0.65-0.4 1q-0.6 0.45-1.6 0.7-1 0-1.75-0.6l-0.45-0.4-0.05-0.25 0.05-0.25q0.6-1.4 1.5-2.2l0.2-0.2q0.4-0.45 0.9-0.3l0.1 0.05q-0.5 0.2-0.7 0.55l-0.15 0.45 0.4-0.25 0.35-0.1q0.4-0.15 0.95 0.3l0.3 0.05m-13.25-4.9v-0.05q-0.9-0.7-1.15-1.6-0.3-1 0.2-1.65 0.4-0.65 1.05-0.8h-0.05q-0.5 0.3-0.55 1.2-0.15 0.55 0.4 1.05l1.7-1.1q0.75-0.55 0.35-0.9l-0.1-0.1 0.5 0.35 0.35 0.3 0.15 0.3v0.1 0.1l-0.05 0.1-0.25 0.65-0.15 0.15-0.2 0.25-1.4 2-0.8-0.35m7.3-2.25 1-0.15q0.7-0.55 1.5-0.6 0.4-0.1 0.2-0.3-0.9-0.85-1.6-0.5-0.9 0-1.4 0.9-0.35 0.35 0.3 0.65m-0.6 1.45-0.3-0.75q-0.25-1 0.3-1.8 0.55-0.85 1.65-0.85 0.95-0.15 1.9 0.55 0.85 0.65 1.2 1.75 0.2 0.9-0.3 1.6l-0.15 0.15-0.1 0.15q-0.55 0.6-1.45 0.7-1-0.05-1.85-0.7l-0.9-0.8m-4-2.5 0.15 0.5-0.15-0.5m0.1 10-0.05-0.05-0.85-0.9-0.25-0.65q-0.3-0.95 0.2-1.65 0.45-0.75 1.4-0.7 1-0.15 1.9 0.6l0.15 0.15 0.2 0.15 0.05 0.05 0.65 1.25 0.1 0.2-0.1 0.9-0.15 0.35-0.05 0.1q-0.55 0.5-1.25 0.6l-0.3 0.05-1.25-0.25h-0.05l-0.25-0.15-0.1-0.05-0.9-0.95 0.9 0.95m1-3.7-0.6 0.05q-1.1 0.2-0.85 1l1.7-0.4 0.75-0.15q-0.5-0.5-1-0.5m8.15-12.4q-0.25-1.15 0.35-1.95 0.4-0.7 1.15-0.85l0.65-0.2q1.05-0.15 2.1 0.65 0.8 0.55 1.15 1.65l0.05 0.15q0.1 0.7-0.15 1.4l-0.25 0.5-0.25 0.25q-0.65 0.6-1.55 0.85-1.2 0.05-2.05-0.55l-0.35-0.25-0.3-0.3-0.05-0.1v-0.05l-0.05-0.05-0.45-1.1v-0.05m1.9-2.7q-1 0.3-1.4 1.4-0.5 1.3 0.7 0.65 0.45-0.3 0.9-0.3 1.2-0.05 1.35-1.1-0.95-0.95-1.55-0.65m3.15 4.05-0.25 0.25 0.25-0.25" fill="#303"/>
<path d="m16.05 5.5 0.3-0.05h0.05l1.15 0.4q0.65 0.45-0.15 1.1l-1.6 1.3q-0.8-0.2-0.7-1.15t0.75-1.35l0.2-0.25m13.3 8.5 0.3 0.2q0.85 0.9-0.5 0.5l-1.2 0.05q-0.1-0.7 0.6-0.95l0.75 0.15 0.05 0.05m-5.85 7.35 0.15 0.1 0.55 0.6 0.05 0.1-0.3-0.05q-0.55-0.45-0.95-0.3l-0.35 0.1-0.4 0.25 0.15-0.45q0.2-0.35 0.7-0.55l0.05-0.05 0.35 0.25 0.75 0.8-0.75-0.8m-12.4-8.2 0.25-0.1 0.3-0.05q0.6-0.2 1.2 0.3l0.1 0.1q0.4 0.35-0.35 0.9l-1.7 1.1q-0.55-0.5-0.4-1.05 0.05-0.9 0.55-1.2h0.05l0.4-0.1 1.35 0.25-1.35-0.25-0.4 0.1m7.2 1.85q-0.65-0.3-0.3-0.65 0.5-0.9 1.4-0.9 0.7-0.35 1.6 0.5 0.2 0.2-0.2 0.3-0.8 0.05-1.5 0.6l-1 0.15m-3.5 5.25q0.5 0 1 0.5l-0.75 0.15-1.7 0.4q-0.25-0.8 0.85-1l0.6-0.05m10.05-15.1q0.6-0.3 1.55 0.65-0.15 1.05-1.35 1.1-0.45 0-0.9 0.3-1.2 0.65-0.7-0.65 0.4-1.1 1.4-1.4" fill="#cda9a9"/>
<path d="m30.4 4.7 2.35 2.2q0.25 0.3 0.15 0.85t-0.65 0.4l-3.75-1.8-0.4-0.25 0.15 0.15 0.3 0.65q0.25 0.95-0.05 2.2-5.75 6.85-8.45 11.15l-1.15 1.95q-2.3 4.05-3.15 3.8h-0.15v-0.05l-0.5-0.05h-0.9l-0.7-0.2-0.05-0.05-0.15-0.05-0.25-0.1-0.05-0.05 0.05 0.05h-0.05v-0.05l-0.6-0.55-0.6-0.75q-1.15-1.7-0.65-2.4 4.45-5.2 7.6-10.25 3.5-5.7 5.5-7.25l0.4 0.15-0.3-0.2 0.4-0.1h0.45l0.3 0.1 0.1 0.1 0.4 0.3q0.65 0.2 1.5 0.65 0.8 0.25 2.45 1 1.3 0.4 1.05-0.3l-0.6-1.25m-26.15 29.55 0.85-1.5 0.05-0.05 1.2-1.75q0.7-0.95 1.9-1.8 1.15-0.8 2.15-2.55l0.05 0.05 0.6 0.25h0.05l-0.1 0.4 0.25 0.55 0.35 0.2-1.15 1.45q-2.1 2.55-2.9 2.75-1.05 0.3-1.85 0.85l-1.45 1.15m5.6-8.4 0.15-0.2-0.15 0.2m1.15-8.55v-0.05l0.8 0.35 1.4-2 0.1 0.05-0.6 1.6q-0.2 0.7-0.9 1.2h-0.25q-0.4-0.2-0.5-0.6l-0.05-0.55m4.65-7.15 0.1-0.1 0.55 0.35 0.55-0.2 1.2-1.35 0.3-0.55 0.25 0.1-0.8 1.7q-0.45 0.7-0.9 0.85l-1-0.15-0.25-0.65m6.5 6.8q0.5-0.7 0.3-1.6-0.35-1.1-1.2-1.75-0.95-0.7-1.9-0.55-1.1 0-1.65 0.85-0.55 0.8-0.3 1.8l0.3 0.75 0.7 0.95 0.55 0.55q0.8 0.8 1.7 0.5l1.3-1.15 0.2-0.35-0.2 0.35-0.05-0.05 0.1-0.15 0.15-0.15m-4.95 6.35 0.1-0.9-0.1-0.2-0.65-1.25-0.05-0.05-0.2-0.15-0.15-0.15q-0.9-0.75-1.9-0.6-0.95-0.05-1.4 0.7-0.5 0.7-0.2 1.65l0.25 0.65 0.85 0.9 0.05 0.05 0.1 0.05 0.25 0.25 0.05 0.1q0.75 0.65 1.6 0.6 0.9-0.15 1.1-0.9l0.1-0.3 0.05-0.1 0.15-0.35m8.8-18.7 2.1 1.5-2.1-1.5m1.75 4.85 0.25-0.25 0.25-0.5q0.25-0.7 0.15-1.4l-0.05-0.15q-0.35-1.1-1.15-1.65-1.05-0.8-2.1-0.65l-0.65 0.2q-0.75 0.15-1.15 0.85-0.6 0.8-0.35 1.95v0.05l0.45 1.1 0.05 0.05v0.05l0.05 0.1 0.15 0.4q0.4 0.8 1.55 1.3 1 0.4 1.65-0.3l0.9-1.15m-16.4 15.25h0.35l0.75 0.45 0.3 0.3 0.05 0.45-0.05 0.35-0.25 0.5-0.05-0.05-0.6-0.2h-0.05l0.1-0.4-0.25-0.6-0.1-0.05v-0.25l-0.2-0.5" fill="#c93"/>
<path d="m11.15 23.95-1.8-1.65q-0.85-0.85-0.8-1.25h-0.05l1.25-1.95 1.3-1.25q0.1 0.4 0.5 0.6h0.25q0.7-0.5 0.9-1.2l0.6-1.6-0.1-0.05 0.2-0.25 0.15-0.15 0.25-0.65 0.05-0.1v-0.1-0.1l-0.15-0.3 2.2-3.15 1 0.15q0.45-0.15 0.9-0.85l0.8-1.7-0.25-0.1 0.3-0.5 0.45-1-0.35-0.35q0.3-0.65 1.4-1.6l1.4-1.3q0.55-0.45 1.25-0.55 1 0.05 2.4 1v0.1h-0.45l-0.4 0.1 0.3 0.2-0.4-0.15q-2 1.55-5.5 7.25-3.15 5.05-7.6 10.25-0.5 0.7 0.65 2.4l0.6 0.75 0.6 0.55-1.55-1.2-0.3-0.3" fill="#deb025"/>
<path d="m18.4 6 3.8-5.55 0.05-0.25 0.05-0.05v-0.05l0.25-0.1 0.55 0.15q3.75 1.65 7.3 4.55l0.6 1.25q0.25 0.7-1.05 0.3-1.65-0.75-2.45-1-0.85-0.45-1.5-0.65l-0.4-0.3v-0.05l-0.1-0.05-0.3-0.1v-0.1q-1.4-0.95-2.4-1-0.7 0.1-1.25 0.55l-1.4 1.3q-1.1 0.95-1.4 1.6l-0.35-0.45m-12.05 24.95 3.5-5.1 0.15-0.2 0.1 0.1 0.15 0.1-0.05 0.25 0.2 0.5q-1 1.75-2.15 2.55-1.2 0.85-1.9 1.8m3.4-11.85 1.25-1.8 0.05 0.55-1.3 1.25m3.6-5.45 2.3-3.5 0.25 0.65-2.2 3.15-0.35-0.3m8.85-13.2 0.25 0.6q0.85 1.55 2.85 3l0.2 0.15-0.2-0.15q-2-1.45-2.85-3l-0.25-0.6" fill="#f5d154"/>
<path d="m32.75 6.9q1.15 1.25 0.9 1.7l-4.25 5.4h-0.05l-0.05-0.05q-0.55-0.6-1.1-0.1-0.6 0.25-1 0.95-0.8 0.9-1.25 2.1l-0.1 0.15q-0.05 0.25 0.05 0.35l0.1 0.05q-0.1 0.3-0.05 0.55l-2.95 3.1q-0.5-0.15-0.9 0.3l-0.2 0.2q-0.9 0.8-1.5 2.2l-0.05 0.25q-0.3 0.25-0.25 0.55-1.45 2.1-2.65 2.15l-1.8-0.05h-0.05v-0.05l-0.4-0.1-1.15-0.45v0.05l-0.75-0.5v0.05l-0.25-0.2 0.25 0.1 0.15 0.05 0.05 0.05 0.7 0.2h0.9l0.5 0.05v0.05h0.15q0.85 0.25 3.15-3.8l1.15-1.95q2.7-4.3 8.45-11.15 0.3-1.25 0.05-2.2l-0.3-0.65-0.15-0.15 0.4 0.25 2.9 1.7q1.9 0.9 2.25 0.55-0.35 0.35-2.25-0.55l-2.9-1.7 3.75 1.8q0.55 0.15 0.65-0.4t-0.15-0.85m-10.8 10.4-1.3 1.15q-0.9 0.3-1.7-0.5l-0.55-0.55-0.7-0.95 0.9 0.8q0.85 0.65 1.85 0.7 0.9-0.1 1.45-0.7l0.05 0.05m-4.95 6.45-0.1 0.3q-0.2 0.75-1.1 0.9-0.85 0.05-1.6-0.6l-0.05-0.1-0.2-0.2 0.15 0.1h0.05 0.05l1.25 0.25 0.3-0.05q0.7-0.1 1.25-0.6m10.75-14.3-0.9 1.15q-0.65 0.7-1.65 0.3-1.15-0.5-1.55-1.3l-0.15-0.4 0.3 0.3 0.35 0.25q0.85 0.6 2.05 0.55 0.9-0.25 1.55-0.85" fill="#a67326"/>
<path d="m26.35 17.8-0.45 0.5-2.4 3.05-0.35-0.25-0.05 0.05-0.1-0.05 2.95-3.1q-0.05-0.25 0.05-0.55l0.35 0.35m-5.5 6.9-2.75 3.4-1.45-0.4-0.25-0.2-1-0.55-1.1-0.6-0.2-0.15-0.05-0.05 0.05 0.05 0.2 0.15-0.1 0.2-0.35 0.4-0.15 0.2v0.1l-0.35 0.45-0.15 0.2-0.6-0.2 0.1-0.4-0.2-0.55 0.25-0.5 0.05-0.35-0.05-0.45-0.3-0.3-0.75-0.45h-0.35l-0.05-0.1-0.15-0.1v-0.1l-0.05-0.35 0.05-0.1 0.3 0.3 1.55 1.2v0.05h0.05l0.25 0.2v-0.05l0.75 0.5v-0.05l1.15 0.45 0.4 0.1v0.05h0.05l1.8 0.05q1.2-0.05 2.65-2.15-0.05-0.3 0.25-0.55l0.05 0.25 0.45 0.4m-8.65 4.5-5.5 7.15-1.05-0.45-1.45-1.35-0.1-0.1 0.15-0.2 1.45-1.15q0.8-0.55 1.85-0.85 0.8-0.2 2.9-2.75l1.15-1.45 0.25 0.05-0.1 0.4 0.25 0.55 0.2 0.15m13.7-10.9 0.05-0.3-0.05 0.3m-12.55 9.4 0.35-0.55-0.35 0.55" fill="#712f1c"/>
<path d="m15.4 26.95v0.15l-0.15 0.45 0.3 0.15 0.25 0.6-0.25 0.55-0.6 0.25q-0.35 0-0.6-0.25l-0.2-0.25-0.05-0.3 0.05-0.3 0.1-0.15-0.3-0.2-0.2-0.25-0.05-0.15v-0.1l0.15-0.2v0.1q0.05 0.5 0.45-0.3v-0.25l-0.1 0.05 0.1-0.2 1.1 0.6m-2.2 0.95 0.25 0.6-0.25 0.55-0.1 0.1 0.35 0.15 0.25 0.6-0.25 0.55-0.6 0.25-0.6-0.25q-0.25-0.2-0.25-0.55 0-0.25 0.15-0.45l0.1-0.15 0.1-0.05-0.15-0.05-0.2-0.15-0.25-0.55 0.1-0.4-0.25-0.05-0.35-0.2-0.25-0.55 0.1-0.4h-0.05l-0.6-0.25-0.05-0.05-0.2-0.5 0.05-0.25-0.15-0.1-0.1-0.1-0.15-0.45v-0.1l-0.15-0.15-0.25-0.55q0-0.25 0.15-0.45l0.1-0.15q0.25-0.2 0.6-0.2l0.6 0.2 0.2 0.25 0.05 0.35v0.1l0.15 0.1 0.05 0.1 0.2 0.5v0.25l0.1 0.05 0.25 0.6-0.1 0.4h0.05l0.6 0.2 0.05 0.05 0.2 0.55-0.1 0.4 0.6 0.2m8.8 5.35-0.6 0.25-0.6-0.25-0.2-0.25-0.05-0.3 0.05-0.3 0.2-0.3q0.25-0.2 0.6-0.2l0.6 0.2 0.25 0.6-0.25 0.55m0.2-0.1 0.1-0.15q0.25-0.2 0.6-0.2l0.6 0.2 0.25 0.6-0.25 0.55-0.6 0.25-0.6-0.25-0.2-0.25-0.05-0.3 0.05-0.3 0.1-0.15q-0.05 1.1 0.45 0.1 0.25-0.45-0.45-0.1m-0.4 1.7-0.6 0.25q-0.35 0-0.6-0.25l-0.2-0.25-0.05-0.3 0.05-0.3 0.2-0.3 0.6-0.2 0.6 0.2 0.25 0.6-0.25 0.55m-10.2-8.15-0.45 0.15v0.05q-0.05 1.05 0.45 0.05v-0.25m3.65 0.85-0.3-0.05q-0.35 0-0.6 0.2l-0.1 0.15 0.1-0.15q0.25-0.2 0.6-0.2l0.3 0.05m0.95 1.65 0.25 0.6-0.25 0.55-0.6 0.25-0.6-0.25-0.2-0.25-0.05-0.3 0.05-0.3 0.2-0.3 0.6-0.2 0.6 0.2m-1.5-1.25 0.05-0.05-0.5-0.05q-0.05 1.1 0.45 0.1m1.15 2.8q0.25-0.2 0.6-0.2l0.6 0.2 0.25 0.6v0.1l0.45-0.1 0.6 0.2 0.25 0.6-0.25 0.55-0.6 0.25-0.6-0.25-0.2-0.25-0.05-0.3v-0.1l-0.45 0.1-0.6-0.25-0.2-0.25-0.05-0.3 0.05-0.3 0.2-0.3m-0.95-1.4q-0.05 1.1 0.45 0.1 0.25-0.45-0.45-0.1m-1.8-0.2-0.25-0.05q-0.3 0-0.5 0.15 0.2-0.15 0.5-0.15l0.25 0.05m-0.7-1.25-0.5 0.15v0.05q-0.05 1.05 0.45 0.05l0.05-0.25m0.2-0.2-0.6 0.2-0.1 0.15-0.05 0.05 0.05-0.05 0.1-0.15 0.6-0.2m1.25 3.2 0.25 0.6-0.25 0.55-0.6 0.25-0.6-0.25q-0.25-0.2-0.25-0.55 0-0.25 0.15-0.45l0.1-0.15 0.6-0.2 0.6 0.2m-1.25-1.6h-0.05l-0.4 0.15q-0.05 1.1 0.45 0.1v-0.25m0.1 3.35q-0.05 1.1 0.45 0.1 0.25-0.45-0.45-0.1l0.1-0.15 0.6-0.2 0.6 0.2 0.25 0.6-0.2 0.5h0.1l0.6 0.2 0.25 0.6-0.25 0.55-0.6 0.25-0.6-0.25-0.25-0.55q0-0.25 0.15-0.45l0.05-0.05h-0.1l-0.6-0.25q-0.25-0.2-0.25-0.55 0-0.25 0.15-0.45m0.9 1.25-0.15 0.05q-0.05 1.1 0.45 0.1 0.2-0.3-0.1-0.2l-0.2 0.05m0.45-0.3-0.5 0.2-0.05 0.1 0.05-0.1 0.5-0.2m-1.05-2.45q0.25-0.45-0.45-0.1-0.05 1.1 0.45 0.1m3.2-0.15q0.25-0.45-0.45-0.1-0.05 1.1 0.45 0.1m2.7 0.8 0.6-0.2 0.6 0.2 0.25 0.6-0.25 0.55-0.6 0.25-0.6-0.25-0.2-0.25-0.05-0.3 0.05-0.3 0.2-0.3m-1.6-0.35-0.15 0.1-0.2 0.3-0.05 0.2 0.05-0.2 0.2-0.3 0.15-0.1m-0.25 0.25v0.2q0 0.8 0.45-0.1 0.2-0.35-0.25-0.2l-0.2 0.1m3.65 0.55q-0.05 1.1 0.45 0.1 0.25-0.45-0.45-0.1m-0.2 1.6q-0.05 1.1 0.45 0.1 0.25-0.45-0.45-0.1m-1.25-1.8q0.25-0.45-0.45-0.1-0.05 1.1 0.45 0.1m-9.2-8q0.25-0.45-0.45-0.1-0.05 1.1 0.45 0.1m1.1 0.45-0.45-0.1-0.6 0.2-0.1 0.15-0.15 0.35 0.15-0.35 0.1-0.15 0.6-0.2 0.45 0.1m-0.9 0.7 0.2-0.35q0.25-0.45-0.45-0.1v0.4l0.25 0.05m0.1 0.75q0 0.55 0.35 0.05l0.1-0.25q0.25-0.45-0.45-0.1v0.3m1.45 0.55-0.55 0.2-0.1 0.15-0.05 0.05 0.05-0.05 0.1-0.15 0.55-0.2m-0.25-1.05q-0.25-0.15-0.5-0.15-0.35 0-0.6 0.2l-0.1 0.15-0.1 0.2 0.1-0.2 0.1-0.15q0.25-0.2 0.6-0.2 0.25 0 0.5 0.15m8.8 9.3-0.25 0.55-0.6 0.25-0.6-0.25-0.2-0.25-0.05-0.3 0.05-0.3 0.2-0.3 0.6-0.2 0.6 0.2 0.25 0.6m-2.1 0.75-0.6 0.25-0.6-0.25-0.2-0.25-0.05-0.3 0.05-0.3 0.2-0.3q0.25-0.2 0.6-0.2l0.6 0.2 0.25 0.6-0.25 0.55m-1.55-0.3-0.25 0.55-0.6 0.25-0.6-0.25-0.2-0.25-0.05-0.3 0.05-0.3 0.2-0.3q0.25-0.2 0.6-0.2l0.6 0.2 0.25 0.6m0.25-0.7q-0.05 1.1 0.45 0.1 0.25-0.45-0.45-0.1m2.3-0.1q0.25-0.45-0.45-0.1-0.05 1.1 0.45 0.1m-3.65 0.45q0.25-0.45-0.45-0.1-0.05 1.1 0.45 0.1" fill="#8a0202"/>
<path d="m22.65 33.25q-0.5 1-0.45-0.1 0.7-0.35 0.45 0.1m-8.45-6.7 0.1-0.05v0.25q-0.4 0.8-0.45 0.3v-0.1l0.35-0.4m-2.6 0.15v0.25q-0.5 1-0.45-0.05v-0.05l0.45-0.15m3.1 1.25q-0.5 1-0.45-0.1l0.5 0.05-0.05 0.05m0.2 1.4q0.7-0.35 0.45 0.1-0.5 1-0.45-0.1m-2.5-1.45-0.05 0.25q-0.5 1-0.45-0.05v-0.05l0.5-0.15m0.15 1.4h0.05v0.25q-0.5 1-0.45-0.1l0.4-0.15m0.15 3.35q0.7-0.35 0.45 0.1-0.5 1-0.45-0.1m1.1 1.2q0.3-0.1 0.1 0.2-0.5 1-0.45-0.1l0.15-0.05 0.2-0.05m2.4-2.85q-0.5 1-0.45-0.1 0.7-0.35 0.45 0.1m-3.2 0.15q-0.5 1-0.45-0.1 0.7-0.35 0.45 0.1m-2.95-7.1q-0.5 1-0.45-0.1 0.7-0.35 0.45 0.1m9.2 8q-0.5 1-0.45-0.1 0.7-0.35 0.45 0.1m1.25 1.8q0.7-0.35 0.45 0.1-0.5 1-0.45-0.1m0.2-1.6q0.7-0.35 0.45 0.1-0.5 1-0.45-0.1m-3.65-0.55 0.2-0.1q0.45-0.15 0.25 0.2-0.45 0.9-0.45 0.1v-0.2m-7.05-6.55v-0.4q0.7-0.35 0.45 0.1l-0.2 0.35-0.25-0.05m0.35 0.8v-0.3q0.7-0.35 0.45 0.1l-0.1 0.25q-0.35 0.5-0.35-0.05m5.25 8.9q-0.5 1-0.45-0.1 0.7-0.35 0.45 0.1m3.65-0.45q-0.5 1-0.45-0.1 0.7-0.35 0.45 0.1m-2.3 0.1q0.7-0.35 0.45 0.1-0.5 1-0.45-0.1" fill="#dfc1b3"/>
<path d="m6.7 36.35h0.45q-3.75 3.2-4.25 5.8l-1.45-0.55-0.25-0.1q-0.75-0.7-1.2-1.55l0.4-0.05q0.65-0.65 0.8 0.1 0.15 0.7 0.45 0.3 0.3-0.5 1.2-0.85 0.9-0.45 2.05-2.35l-0.75-1.9h-0.75l0.55-1.1 0.15 0.35 0.1 0.1 1.45 1.35 1.05 0.45" fill="#40002c"/>
<path d="m0.4 39.9 2.05-2.9 0.9-1.75 0.05-0.05h0.75l0.75 1.9q-1.15 1.9-2.05 2.35-0.9 0.35-1.2 0.85-0.3 0.4-0.45-0.3-0.15-0.75-0.8-0.1" fill="#906"/>
<path d="m15.75 10.05q-0.85-0.7-1.2-1.75-0.3-1.15 0.3-1.9 0.4-0.65 1.2-0.9l0.3-0.05h0.05q1.1-0.1 2 0.55l3.8-5.55 0.05-0.25 0.05-0.05m0-0.05 0.25-0.1 0.55 0.15q3.75 1.65 7.3 4.55l2.35 2.2q1.15 1.25 0.9 1.7l-4.25 5.4h-0.05l0.3 0.2q0.65 0.5 0.8 1.5 0.15 0.9-0.45 1.8-0.7 0.75-1.7 0.8-0.9 0.05-1.95-0.5l-0.45 0.5-2.4 3.05m0.75 0.8 0.3 0.8 0.05 0.65-0.4 1q-0.6 0.45-1.6 0.7-1 0-1.75-0.6l-2.75 3.4-1.45-0.4-0.25-0.2-1-0.55v0.15l-0.15 0.45 0.3 0.15 0.25 0.6-0.25 0.55-0.6 0.25q-0.35 0-0.6-0.25l-0.2-0.25-0.05-0.3 0.05-0.3 0.1-0.15-0.3-0.2-0.2-0.25-0.05-0.15-0.35 0.45-0.15 0.2 0.25 0.6-0.25 0.55-0.1 0.1 0.35 0.15 0.25 0.6-0.25 0.55-0.6 0.25-0.6-0.25q-0.25-0.2-0.25-0.55 0-0.25 0.15-0.45l0.1-0.15 0.1-0.05-0.15-0.05-5.5 7.15h0.45q-3.75 3.2-4.25 5.8l-1.45-0.55-0.25-0.1q-0.75-0.7-1.2-1.55l0.4-0.05 2.05-2.9 0.9-1.75m0.05-0.05 0.55-1.1 0.15 0.35 0.15-0.2 0.85-1.5 0.05-0.05 1.2-1.75 3.5-5.1 0.15-0.2-0.15-0.45v-0.1l-0.15-0.15-0.25-0.55q0-0.25 0.15-0.45l0.1-0.15q0.25-0.2 0.6-0.2l0.6 0.2 0.2 0.25 0.05-0.1-1.8-1.65q-0.85-0.85-0.8-1.25m-0.05 0 1.25-1.95 1.25-1.8v-0.05-0.05q-0.9-0.7-1.15-1.6-0.3-1 0.2-1.65 0.4-0.65 1.05-0.8m1.75 0.15 0.5 0.35 2.3-3.5 0.1-0.1m9.75-5.85-0.2-0.15q-2-1.45-2.85-3l-0.25-0.6m-9.35 12.85-1.35-0.25-0.4 0.1m0.7 4.45-0.8-0.35m2.85-2.9v0.1l-0.05 0.1m0.05-0.1-0.15-0.5m11.9-9.65-0.1-0.1m0.1 0.1 0.4 0.3m-13 20.85 0.05 0.05 0.25 0.2m14.95-19.45-0.15-0.15-2.1-1.5m2.5 1.75-0.4-0.25m5.55 2.5q-0.35 0.35-2.25-0.55l-2.9-1.7m-4.7 3.15-0.3-0.3m0.75 12.95-0.75-0.8m-1.5 11.9-0.6 0.25-0.6-0.25-0.2-0.25-0.05-0.3 0.05-0.3 0.2-0.3q0.25-0.2 0.6-0.2l0.6 0.2 0.25 0.6-0.25 0.55m0.2-0.1 0.1-0.15q0.25-0.2 0.6-0.2l0.6 0.2 0.25 0.6-0.25 0.55-0.6 0.25-0.6-0.25-0.2-0.25-0.05-0.3 0.05-0.3 0.1-0.15m-0.4 1.7-0.6 0.25q-0.35 0-0.6-0.25l-0.2-0.25-0.05-0.3 0.05-0.3 0.2-0.3 0.6-0.2 0.6 0.2 0.25 0.6-0.25 0.55m-7.75-8.7 0.05 0.05 0.2 0.15 1.1 0.6m-2.9-0.2 0.2 0.55-0.1 0.4 0.6 0.2m0.1-2.25 0.75 0.5m-2.7-1.45 0.2 0.5v0.25l0.1 0.05 0.25 0.6-0.1 0.4h0.05l0.6 0.2 0.05 0.05m1.7-0.2-0.35 0.4-0.15 0.2v0.1m0-0.1-0.35 0.55m0.95-1.35-0.1 0.2m0.05 1.3 0.1-0.15q0.25-0.2 0.6-0.2l0.3 0.05m-2.25-2.1-1.55-1.2-0.3-0.3m5.05 5.25 0.25 0.6-0.25 0.55-0.6 0.25-0.6-0.25-0.2-0.25-0.05-0.3 0.05-0.3 0.2-0.3 0.6-0.2 0.6 0.2m-0.35 1.55q0.25-0.2 0.6-0.2l0.6 0.2 0.25 0.6v0.1l0.45-0.1 0.6 0.2 0.25 0.6-0.25 0.55-0.6 0.25-0.6-0.25-0.2-0.25-0.05-0.3v-0.1l-0.45 0.1-0.6-0.25-0.2-0.25-0.05-0.3 0.05-0.3 0.2-0.3m-3.5-1.5q0.2-0.15 0.5-0.15l0.25 0.05m-1.25-1.05 0.05-0.05 0.1-0.15 0.6-0.2m-0.4 1.5-0.2-0.15-0.25-0.55 0.1-0.4-0.25-0.05-0.35-0.2-0.25-0.55 0.1-0.4h-0.05l-0.6-0.25-0.05-0.05-0.2-0.5 0.05-0.25-0.15-0.1-0.1-0.1m3.85 5.25 0.25 0.6-0.25 0.55-0.6 0.25-0.6-0.25q-0.25-0.2-0.25-0.55 0-0.25 0.15-0.45l0.1-0.15 0.6-0.2 0.6 0.2m-1.25-1.6h-0.05m0.25 3.2 0.6-0.2 0.6 0.2 0.25 0.6-0.2 0.5h0.1l0.6 0.2 0.25 0.6-0.25 0.55-0.6 0.25-0.6-0.25-0.25-0.55q0-0.25 0.15-0.45l0.05-0.05h-0.1l-0.6-0.25q-0.25-0.2-0.25-0.55 0-0.25 0.15-0.45l0.1-0.15m1 1.35-0.2 0.05m-0.1 0 0.05-0.1 0.5-0.2m4.85-1.8 0.6-0.2 0.6 0.2 0.25 0.6-0.25 0.55-0.6 0.25-0.6-0.25-0.2-0.25-0.05-0.3 0.05-0.3 0.2-0.3m-2 0.25 0.05-0.2 0.2-0.3 0.15-0.1m-6.2-7.4 0.05 0.35v0.1l0.15 0.1 0.05 0.1m-1.5 0.4 0.15-0.35 0.1-0.15 0.6-0.2 0.45 0.1m-1.15 0.65 0.25 0.05m0 0.65 0.1-0.2 0.1-0.15q0.25-0.2 0.6-0.2 0.25 0 0.5 0.15m-0.45 1.45 0.05-0.05 0.1-0.15 0.55-0.2m-7.7 7.95 0.1 0.1 1.45 1.35 1.05 0.45m13.65-1.6-0.25 0.55-0.6 0.25-0.6-0.25-0.2-0.25-0.05-0.3 0.05-0.3 0.2-0.3 0.6-0.2 0.6 0.2 0.25 0.6m-2.1 0.75-0.6 0.25-0.6-0.25-0.2-0.25-0.05-0.3 0.05-0.3 0.2-0.3q0.25-0.2 0.6-0.2l0.6 0.2 0.25 0.6-0.25 0.55m-1.55-0.3-0.25 0.55-0.6 0.25-0.6-0.25-0.2-0.25-0.05-0.3 0.05-0.3 0.2-0.3q0.25-0.2 0.6-0.2l0.6 0.2 0.25 0.6" fill="none" stroke="#000" stroke-width=".5"/>
<path d="m22.15 16.95-0.2 0.35m-4.75 6-0.15 0.35m-3.15 0.35-0.1-0.05-0.9-0.95m10.5-14-0.45-1.1v-0.05m3 9.05 0.05 0.55m-0.05 0.55-0.05 0.3m1.85-8.85 0.25-0.25" fill="none" stroke="#000" stroke-width=".5"/>
</g>
</defs>
<use transform="translate(262.05 176.35)" xlink:href="#a"/>
</svg>
