<?xml version="1.0" encoding="UTF-8"?>
<svg version="1.1" viewBox="0 0 98.042 83.95" xmlns="http://www.w3.org/2000/svg" xmlns:cc="http://creativecommons.org/ns#" xmlns:dc="http://purl.org/dc/elements/1.1/" xmlns:rdf="http://www.w3.org/1999/02/22-rdf-syntax-ns#" xmlns:xlink="http://www.w3.org/1999/xlink">
<metadata>
<rdf:RDF>
<cc:Work rdf:about="">
<dc:format>image/svg+xml</dc:format>
<dc:type rdf:resource="http://purl.org/dc/dcmitype/StillImage"/>
</cc:Work>
</rdf:RDF>
</metadata>
<g transform="translate(-225.71 -158.5)">
<use transform="translate(225.7,158.5)" width="98.050003" height="83.949997" xlink:href="#a"/>
</g>
<defs>
<g id="a" transform="translate(-225.7,-158.5)">
<path d="m312.1 162.85q3.35-1.7 6.6-3.85-2.65 11.65-6.7 21.65-7.1 4.25-5.2 11.15-5.5 3.55-5.7 9.45-4.85 2-5.85 7.7-13.05 15.35-32 23.7l-1 0.45-1.45 0.6-2.25-3.8q5.3-2.25 12.75-7.25 7.4-5.05 12.75-10.4l2.3-2.5 4.85-0.2-0.05-3.15q8.9-9.8 20.95-43.55" fill="#ffeb9b" fill-rule="evenodd"/>
<path d="m254.1 216.55q36.15-17.25 48.25-43.05-0.8-3.95-9.55-5.4 9.95-0.6 19.3-5.25-12.05 33.75-20.95 43.55l0.05 3.15-4.85 0.2q2.7-3.45 1.85-5.15-1.2-2.35-8.5 3.25-7.35 5.6-14.3 8.95l-11.4 5.45-2.35-3.95-0.1-0.15 0.1-0.05 2.45-1.55" fill="#fd5" fill-rule="evenodd"/>
<path d="m286.35 209.75-2.3 2.5q-5.35 5.35-12.75 10.4-7.45 5-12.75 7.25l-4.55-7.65 11.4-5.45q6.95-3.35 14.3-8.95 7.3-5.6 8.5-3.25 0.85 1.7-1.85 5.15" fill="#e1b500" fill-rule="evenodd"/>
<path d="m263.25 232.65 2.85 5.1-2.7 1.5-1.15-6.15 1-0.45m-36.4-4.1 0.4-1.7q3.3 1.65 7.7-0.1-0.8 3.35-0.55 5.9l-0.6 0.1q-4.2 0.45-6.95-4.2m17.5-13.3 7-4.65 2.75 5.95-2.45 1.55-0.1 0.05 0.1 0.15-0.1 6.4-7.2-9.45" fill="#bf9900" fill-rule="evenodd"/>
<path d="m263.4 239.25-4.7 2.7-4-6.85-7.85-13.4-3.4-5.85 0.9-0.6 7.2 9.45 0.1-6.4 2.35 3.95 4.55 7.65 2.25 3.8 1.45-0.6 1.15 6.15m-22.55 0.85q-3.4 1.9-8.9 0.85-7.65-0.25-5.1-12.4 2.75 4.65 6.95 4.2l0.6-0.1v0.2q0.5 5.9 6.45 7.25" fill="#846900" fill-rule="evenodd"/>
<path d="m254.7 235.1-2.35 0.85-3.5 1.3-5.3 1.9-2.7 0.95q-5.95-1.35-6.45-7.25l3.05-1.25 4.05-1.65 4.2-1.7q-0.75-2.2-1.1-4.95l2.25-1.6 7.85 13.4m-2.35 0.85q-4.75-1.95-6.65-7.7 1.9 5.75 6.65 7.7m-8.8 3.2q-4.7-2.6-6.1-7.55 1.4 4.95 6.1 7.55m5.3-1.9q-5.9-2.3-7.35-7.3 1.45 5 7.35 7.3" fill="#861606" fill-rule="evenodd"/>
<path d="m234.95 226.75 1.85-0.4 4.25-1.35 3.55-1.7q0.35 2.75 1.1 4.95l-4.2 1.7-4.05 1.65-3.05 1.25v-0.2q-0.25-2.55 0.55-5.9m6.1-1.75q-0.2 2.7 0.45 4.95-0.65-2.25-0.45-4.95m-4.25 1.35q-0.05 2.85 0.65 5.25-0.7-2.4-0.65-5.25" fill="#b91f09" fill-rule="evenodd"/>
<path d="m312.1 162.85q3.35-1.7 6.6-3.85-2.65 11.65-6.7 21.65-7.1 4.25-5.2 11.15-5.5 3.55-5.7 9.45-4.85 2-5.85 7.7-13.05 15.35-32 23.7l2.85 5.1-2.7 1.5-4.7 2.7-4-6.85-2.35 0.85-3.5 1.3-5.3 1.9-2.7 0.95q-3.4 1.9-8.9 0.85-7.65-0.25-5.1-12.4l0.4-1.7q3.3 1.65 7.7-0.1l1.85-0.4 4.25-1.35 3.55-1.7 2.25-1.6-3.4-5.85 0.9-0.6 7-4.65 2.75 5.95q36.15-17.25 48.25-43.05-0.8-3.95-9.55-5.4 9.95-0.6 19.3-5.25m-77.7 69.8v0.2m12.45-11.15 7.85 13.4" fill="none" stroke="#000" stroke-linecap="round" stroke-linejoin="round" stroke-opacity=".6"/>
<path d="m258.55 229.9 2.25 3.8m1.45-0.6 1-0.45m-11.7-14.5 0.1-0.05 2.45-1.55m-2.45 1.75 2.35 3.95 4.55 7.65m-24.15 2.95q0.5 5.9 6.45 7.25m-5.9-13.35q-0.8 3.35-0.55 5.9" fill="none" stroke="#000" stroke-linecap="round" stroke-linejoin="round" stroke-opacity=".6" stroke-width=".4"/>
<path d="m241.5 229.95q-0.65-2.25-0.45-4.95m-3.6 6.6q-0.7-2.4-0.65-5.25m0.65 5.25q1.4 4.95 6.1 7.55m2.15-10.9q1.9 5.75 6.65 7.7m-6.65-7.7q-0.75-2.2-1.1-4.95m-3.1 6.65q1.45 5 7.35 7.3" fill="none" stroke="#000" stroke-linecap="round" stroke-linejoin="round" stroke-opacity=".6" stroke-width=".4"/>
<path d="m296.6 209.4-1.35 11.9-2.5-10.35-15.75 8.7 15.15-11.65-15.4-2.8 16.85-1.3h0.1l3.15-18 0.35 18.45 26.55-1-26.65 5.85-0.5 0.2m4.85 3.7 4.05 6-5-3.8-1.85-3.85 2.8 1.65" fill="#fff" fill-opacity=".50196" fill-rule="evenodd"/>
</g>
</defs>
</svg>
