<?xml version="1.0" encoding="UTF-8"?>
<svg version="1.1" viewBox="0 0 217.82 190.19" xmlns="http://www.w3.org/2000/svg" xmlns:cc="http://creativecommons.org/ns#" xmlns:dc="http://purl.org/dc/elements/1.1/" xmlns:rdf="http://www.w3.org/1999/02/22-rdf-syntax-ns#" xmlns:xlink="http://www.w3.org/1999/xlink">
<metadata>
<rdf:RDF>
<cc:Work rdf:about="">
<dc:format>image/svg+xml</dc:format>
<dc:type rdf:resource="http://purl.org/dc/dcmitype/StillImage"/>
</cc:Work>
</rdf:RDF>
</metadata>
<g transform="translate(-17.982 -11.386)">
<use transform="translate(37.95,35.75)" width="157.85001" height="165.8" xlink:href="#h"/>
<use transform="matrix(.1806 .2123 -.5595 .4759 182.81 26.694)" width="160" height="160" xlink:href="#c"/>
<use transform="matrix(.2176 .2558 -.5595 .4759 199.03 32.816)" width="69.349998" height="56.950001" xlink:href="#a"/>
<use transform="matrix(.4716 .5545 -1.2128 1.0315 156.11 40.838)" width="69.349998" height="56.950001" xlink:href="#a"/>
<use transform="matrix(.282 .3316 -.7251 .6167 140.24 59.212)" width="69.349998" height="56.950001" xlink:href="#a"/>
<use transform="matrix(.2402 .2824 -.6177 .5254 177.95 30.739)" width="69.349998" height="56.950001" xlink:href="#a"/>
<use transform="matrix(.2402 .2824 -.6177 .5254 137.75 77.639)" width="69.349998" height="56.950001" xlink:href="#a"/>
<use transform="translate(18,15.1)" width="206.85001" height="156.14999" xlink:href="#e"/>
<use transform="matrix(.1222 .2835 -.7471 .322 213.94 1.4101)" width="160" height="160" xlink:href="#c"/>
<use transform="matrix(.1472 .3416 -.7471 .322 229.09 13.002)" width="69.349998" height="56.950001" xlink:href="#a"/>
<use transform="matrix(.3191 .7404 -1.6193 .698 181.07 7.6536)" width="69.349998" height="56.950001" xlink:href="#a"/>
<use transform="matrix(.1908 .4427 -.9682 .4173 158.27 21.977)" width="69.349998" height="56.950001" xlink:href="#a"/>
<use transform="matrix(.1625 .3771 -.8248 .3555 207.53 4.1958)" width="69.349998" height="56.950001" xlink:href="#a"/>
<use transform="matrix(.1625 .3771 -.8248 .3555 149.83 40.746)" width="69.349998" height="56.950001" xlink:href="#a"/>
<use transform="translate(50.5,61)" width="72.650002" height="58.25" xlink:href="#d"/>
</g>
<defs>
<g id="h" transform="translate(-37.95,-35.75)">
<path d="m106.45 124 0.05-0.05 0.35 0.8 0.8 0.85-0.15 0.1-0.65-0.95-0.4-0.75" fill="#bfd0c0" fill-rule="evenodd"/>
<path d="m158.7 90.5q-2.85-0.2-5.15-1-5.15-1.7-7.15-6.55-0.9-2.15-1.15-4.85 3.8 6.05 9.5 10l3.95 2.4" fill="#e8eee8" fill-rule="evenodd"/>
<path d="m110.7 140.9h-0.05l-1.65-1.05 1.7 1.05m-5.25-16.1 1-0.8 0.4 0.75-1.4 0.05" fill="#bacdbf" fill-rule="evenodd"/>
<path d="m118.15 120.7q-0.1 1.55-2.1 5.9-2.35 4.9-7.05 13.25l-0.05 0.05-4.7 8.25-0.45 0.7-1.85-0.4q-2.75-0.6-5.6-1.85 15.85-14.4 21.8-25.9" fill="#0e2520" fill-rule="evenodd"/>
<path d="m107.65 125.6q7.55-5.2 10.45-5.45l0.05 0.55q-5.95 11.5-21.8 25.9l-0.15-0.05-0.55-0.3-0.6-0.2-0.4-0.25-0.4-0.7q-1.65-2.75-2.45-6.25l-0.15-1.05q5.25-4.35 9.6-7.55l6.25-4.55 0.15-0.1" fill="#1c4a41" fill-rule="evenodd"/>
<path d="m110.65 140.9-4.6 8.2v0.05l-0.15-0.05-2.1-0.25 0.45-0.7 4.7-8.25 1.7 1m-19.4-5.8 8.95-6.2 5.25-4.1 1.4-0.05 0.65 0.95-6.25 4.55q-4.35 3.2-9.6 7.55l-0.4-2.6v-0.1" fill="#8eac94" fill-rule="evenodd"/>
<path d="m96.2 146.55 0.15 0.05q2.85 1.25 5.6 1.85-0.45 3.1-2.5 6.45l-1.9-0.35-2.95-0.55q1.55 0.35 3-0.45l1.1-2.3q0.1-0.95-0.55-1.4l-3-0.5-0.55-0.35 1.6-2.45m-1.15-0.5 0.6 0.2-1.7 2.2-1-0.8 2.1-1.6m-5.4-6.5 1.9-0.7h0.25q0.8 3.5 2.45 6.25l-1.9 1.9-0.55-0.6q-2.5-3.7-2.15-6.85m0.85 20.75q0.7-1.35 0.2-2.15l-0.85-0.25-1.95-1.45q-1.3-1.35-2.25-2.9 1.25-0.9 2.95-1.05-0.65 3.3 2.1 4l1.4 0.4q1.15 0.45 0.65 1.05l-2.25 2.35" fill="#648269" fill-rule="evenodd"/>
<path d="m95.65 146.25 0.55 0.3-1.6 2.45-0.65-0.55 1.7-2.2m-1.4-1.15 0.4 0.7 0.4 0.25-2.1 1.6-0.6-0.65 1.9-1.9" fill="#8da58f" fill-rule="evenodd"/>
<path d="m93.95 148.45 0.65 0.55-3.1 3.75-1.15-0.65 3.6-3.65m-4.9 2.65q-0.8-0.9-1.45-2 2.25 0.05 4.75-2.1l0.6 0.65q-2.65 1.75-3.9 3.45" fill="#c6d2c7" fill-rule="evenodd"/>
<path d="m153.55 89.5-9.4 9q-1.75 1.05-3.45 2.15l-2 3.3q-12.4 12.6-19.15 22.2l-1.85 1.3 0.3 0.8-2.45 4-4.85 8.65-1.7-1.05q4.7-8.35 7.05-13.25 2-4.35 2.1-5.9l-0.05-0.55q-2.9 0.25-10.45 5.45l-0.8-0.85-0.35-0.8q6.15-4.9 12-10.3l2.9-2.5 2.75 0.85-2.35-1.5 1.85-1.8 1.75 0.85-0.85-1.75q9.3-9.3 18.05-20v-0.05l0.8 0.45-0.45-0.85 0.8-1 0.95 1.55-0.1-2.6 1.8-2.35q2 4.85 7.15 6.55" fill="#98b498" fill-rule="evenodd"/>
<path d="m153.55 89.5q2.3 0.8 5.15 1-14.3 8.65-28.1 30.2l-1.2-0.95 0.5 2.1-3.2 5.2-3.15 3-1.25 4.9q-6.5 12.1-12.9 27.2-1-7.45-3.45-13h0.1v-0.05l4.6-8.2h0.05l4.85-8.65 2.45-4-0.3-0.8 1.85-1.3q6.75-9.6 19.15-22.2l2-3.3q1.7-1.1 3.45-2.15l9.4-9" fill="url(#am)" fill-rule="evenodd"/>
<path d="m146.4 82.95-1.8 2.35 0.1 2.6-0.95-1.55-0.8 1 0.45 0.85-0.8-0.45v0.05q-8.75 10.7-18.05 20l0.85 1.75-1.75-0.85-1.85 1.8 2.35 1.5-2.75-0.85-2.9 2.5q-5.85 5.4-12 10.3l-0.05 0.05-1 0.8-5.25 4.1-8.95 6.2h-0.1q-5.8-2.1-13.3-2 8.6-4.8 16.1-9.35l0.2-0.1 3.55-0.15-1.6-1.05q42.55-26.2 49.1-44.4l0.05 0.05q0.25 2.7 1.15 4.85" fill="url(#al)" fill-rule="evenodd"/>
<path d="m94.6 154-0.2-0.05-2.9-1.2 3.1-3.75 0.55 0.35 3 0.5q0.65 0.45 0.55 1.4l-1.1 2.3q-1.45 0.8-3 0.45m-4.25-1.9-0.95-0.65-0.35-0.35q1.25-1.7 3.9-3.45l1 0.8-3.6 3.65m-2.75-3q-0.65-1.15-1.15-2.45l-0.1-0.4-0.45-1.5q-0.3-1.25-0.45-2.7l1.35-0.9q1.5-1 2.85-1.6-0.35 3.15 2.15 6.85l0.55 0.6q-2.5 2.15-4.75 2.1" fill="url(#aa)" fill-rule="evenodd"/>
<path d="m158.7 90.5q-2.85-0.2-5.15-1-5.15-1.7-7.15-6.55-0.9-2.15-1.15-4.85 3.8 6.05 9.5 10l3.95 2.4h0.05-0.05m-52.65 58.6v0.05m-0.1 0q2.45 5.55 3.45 13 6.4-15.1 12.9-27.2l1.25-4.9 3.15-3 3.2-5.2-0.5-2.1 1.2 0.95q13.8-21.55 28.1-30.2m-13.5-12.45q-6.55 18.2-49.1 44.4l1.6 1.05-3.55 0.15-0.2 0.1q-7.5 4.55-16.1 9.35 7.5-0.1 13.3 2m14.3-10.3 1-0.8m1.2 1.6q7.55-5.2 10.45-5.45l0.05 0.55q-0.1 1.55-2.1 5.9-2.35 4.9-7.05 13.25l-0.05 0.05m36.3-61.8-0.05-0.15v0.1m-37.7 47.65 0.15-0.1m-12 20.65 0.55 0.3 0.15 0.05q2.85 1.25 5.6 1.85-0.45 3.1-2.5 6.45l-1.9-0.35-2.95-0.55-0.2-0.05m-0.15-8.85 0.4 0.7 0.4 0.25 0.6 0.2-1.7 2.2m8 0 1.85 0.4 0.45-0.7 4.7-8.25m-22.5 6.75-0.1-0.4-0.45-1.5q-0.3-1.25-0.45-2.7l1.35-0.9q1.5-1 2.85-1.6l1.9-0.7m0.25 0-0.15-1.05-0.4-2.6-0.1-0.1m14.8 14.05-0.05-0.05-2.1-0.25m2.1 0.25 0.15 0.05m1.45-23.45-6.25 4.55q-4.35 3.2-9.6 7.55m-0.4-2.7v0.1m-0.05-0.05 0.05-0.05m-13.75-1.7 0.35-0.3m31.55 29.05-0.25 0.4m-14.9-17.45q-1.65-2.75-2.45-6.25" fill="none" stroke="#1d382b" stroke-linecap="round" stroke-linejoin="round" stroke-opacity=".43137" stroke-width=".05"/>
<path d="m153.55 89.5-9.4 9q-1.75 1.05-3.45 2.15l-2 3.3q-12.4 12.6-19.15 22.2l-1.85 1.3 0.3 0.8-2.45 4-4.85 8.65h-0.05l-4.6 8.2m0.45-25.15q6.15-4.9 12-10.3l2.9-2.5 2.75 0.85-2.35-1.5 1.85-1.8 1.75 0.85-0.85-1.75q9.3-9.3 18.05-20v-0.05l0.8 0.45-0.45-0.85 0.8-1 0.95 1.55-0.1-2.6 1.8-2.35m-55.15 52.15 8.95-6.2 5.25-4.1m1-0.8 0.05-0.05m-0.05 0.05 0.4 0.75-1.4 0.05" fill="none" stroke="#2c3a37" stroke-linecap="round" stroke-linejoin="round" stroke-opacity=".24314"/>
<path d="m90.5 160.3 2.25-2.35q0.5-0.6-0.65-1.05m-25.25 26.55 0.8-0.9" fill="none" stroke="#353520" stroke-linecap="round" stroke-linejoin="round" stroke-opacity=".6902" stroke-width=".05"/>
<path d="m63.55 184.35q1.5 3.15 0.35 6.4-1.1 3.2-4.25 4.6-3.15 1.5-6.45 0.25-3.3-1.3-4.8-4.5-1.55-3.2-0.4-6.4 1.1-3.2 4.3-4.65 3.1-1.4 6.4-0.15t4.85 4.45m-5.45-2.65-4.95 0.2q-2.45 1.05-3.35 3.55-0.85 2.4 0.35 4.9 1.1 2.45 3.65 3.4t5-0.1q2.4-1.15 3.25-3.55 0.9-2.55-0.25-4.95-1.2-2.5-3.7-3.45" fill="#2b805e" fill-rule="evenodd"/>
<path d="m58.1 181.7q2.5 0.95 3.7 3.45 1.15 2.4 0.25 4.95-0.85 2.4-3.25 3.55-2.45 1.05-5 0.1t-3.65-3.4q-1.2-2.5-0.35-4.9 0.9-2.5 3.35-3.55l4.95-0.2" fill="url(#p)" fill-rule="evenodd"/>
<path d="m63.55 184.35q-1.55-3.2-4.85-4.45t-6.4 0.15q-3.2 1.45-4.3 4.65-1.15 3.2 0.4 6.4 1.5 3.2 4.8 4.5 3.3 1.25 6.45-0.25 3.15-1.4 4.25-4.6 1.15-3.25-0.35-6.4z" fill="none" stroke="#000" stroke-linecap="round" stroke-linejoin="round" stroke-opacity=".50196" stroke-width=".05"/>
<path d="m59.9 190.65q-2.35 0.8-4.95-0.1-2.5-1-3.65-3.15-1.4-2.15-0.6-4.15 0.65-2.05 3-2.85l4.8 0.2q2.5 0.9 3.85 3.05 1.25 2.2 0.55 4.2t-3 2.8" fill="url(#n)" fill-rule="evenodd"/>
<path d="m52.6 185.55q0.85-0.4 1.1-1.25 0.3-0.85-0.05-1.75-0.45-0.8-1.3-1.1l-1.7-0.05q-0.85 0.45-1.15 1.3-0.25 0.85 0.1 1.7 0.4 0.8 1.3 1.2l1.7-0.05" fill="#fff" fill-opacity=".4902" fill-rule="evenodd"/>
<path d="m62.15 191.55q-2.9-0.65-6-3.15l-1.2-1.25q1.45-2.95 4.3-5.95 0.75 1.25 1.9 2.1l-0.25 2.7-1 2.65q0.85 1.95 2.25 2.9m-8.75-6.5-1.1-2.1q3.4-1.3 6.15-3.3l0.35 0.7-5.4 4.7m-1.55-4.2-0.1-1.15q3.35-0.35 6.15-2.7l0.35 1.8q-2.8 2.05-6.4 2.05" fill="#648269" fill-rule="evenodd"/>
<path d="m62.15 191.55q-1.4-0.95-2.25-2.9l1-2.65 0.25-2.7q1.8 1.35 4.65 1.65-2.05 3.15-1.7 6.85l-1.65-0.15-0.3-0.1" fill="#bacdbf" fill-rule="evenodd"/>
<path d="m59.25 181.2q-2.85 3-4.3 5.95l-1.55-2.1 5.4-4.7 0.45 0.85m-6.95 1.75-0.45-2.1q3.6 0 6.4-2.05l0.2 0.85q-2.75 2-6.15 3.3" fill="#8aa88f" fill-rule="evenodd"/>
<path d="m54.95 187.15 1.2 1.25q3.1 2.5 6 3.15-1.4-0.95-2.25-2.9l1-2.65 0.25-2.7q-1.15-0.85-1.9-2.1m-4.3 5.95-1.55-2.1-1.1-2.1-0.45-2.1-0.1-1.15q3.35-0.35 6.15-2.7l0.35 1.8 0.2 0.85 0.35 0.7 0.45 0.85m2.9 10.35 0.3 0.1 1.65 0.15q-0.35-3.7 1.7-6.85-2.85-0.3-4.65-1.65" fill="none" stroke="#1d382b" stroke-linecap="round" stroke-linejoin="round" stroke-opacity=".43137" stroke-width=".05"/>
<path d="m86.45 146.65 1.1 2.45 1.5 2.05 0.35 0.3 0.95 0.65 1.1 0.7 2.95 1.15-0.1 0.45-2.25 2.45-1.4-0.35q-2.7-0.65-2.1-4-1.7 0.15-2.95 1l-0.7-1.2-0.7 0.05-6.65 7.85-6.1 6.85-11.25 11.7q-0.6 1.7 1.15 4.75-2.95-1.9-3.3-6.4 14.55-14.05 27.7-30.1l0.7-0.35m-18.85 35.9-0.75 0.95q0.35-2.3-0.85-3.55-1.35-0.55-3.4 0.55-0.5-1.1 0.05-2.45l2.6-2.6q-1.1 1.3-1.3 3.65 4.75-1.8 3.65 3.45m18-19.9 0.45-0.75q0.6-1.45-0.1-2.8-1.2-1.45-3-0.2-0.5-1.35 0.15-2.7 0.7-1.3 1.6-1.85-0.85 1.15-0.75 3.2 3.25-0.5 3.2 2.95-0.2 1-0.7 1.6l-0.85 0.55m-5.65 5.95q0.25-1.9-0.6-2.95-0.75-1.2-2.7-0.35-0.7-1.45-0.2-2.4 0.7-1.2 1.75-1.9-0.95 1.1-0.5 3.35 2.95-0.45 3.05 2.85l-0.8 1.4m-6.8 6.85q0.5-1.45-0.35-2.7-1.2-0.65-2.4 0.2-0.6-1.4-0.1-3.2l1.8-2q-1.1 1.3-0.9 3.6 3.15-0.5 2.65 2.5-0.15 1-0.7 1.6" fill="#212321" fill-rule="evenodd"/>
<path d="m84.7 154.35q-0.9 0.55-1.6 1.85-0.65 1.35-0.15 2.7 1.8-1.25 3 0.2 0.7 1.35 0.1 2.8l-0.45 0.75-0.6 0.15q-3.2 0.4-3.2-2.95-2.5-0.05-3.5 1.05l-0.1 0.1q-1.05 0.7-1.75 1.9-0.5 0.95 0.2 2.4 1.95-0.85 2.7 0.35 0.85 1.05 0.6 2.95-0.5 0.45-1.15 0.7-4.1 0.4-3.05-2.85-2.45 0-3.55 1.25l-0.75-0.65 6.1-6.85 6.65-7.85 0.7-0.05 0.7 1.2-0.9 0.85" fill="#696c68" fill-rule="evenodd"/>
<path d="m85.6 153.5q0.95 1.6 2.25 2.95l2 1.4 0.8 0.3q0.5 0.8-0.2 2.2l-0.1 0.05-0.35 0.4-7.6 7.3q-5.65 5.5-12.7 14.9-0.55 0.55-1.35 0l-0.75-0.45q1.1-5.25-3.65-3.45 0.2-2.35 1.3-3.65 1.25-1.5 3.7-1.75-0.15 2.7 2.7 2.5 0.95-0.15 1.5-0.75t0.7-1.6q0.5-3-2.65-2.5-0.2-2.3 0.9-3.6h0.05l0.05-0.05q1.1-1.25 3.55-1.25-1.05 3.25 3.05 2.85 0.65-0.25 1.15-0.7l0.8-1.4q-0.1-3.3-3.05-2.85-0.45-2.25 0.5-3.35l0.1-0.1q1-1.1 3.5-1.05 0 3.35 3.2 2.95l0.6-0.15 0.85-0.55q0.5-0.6 0.7-1.6 0.05-3.45-3.2-2.95-0.1-2.05 0.75-3.2l0.9-0.85" fill="#bacdbf" fill-rule="evenodd"/>
<path d="m66.85 183.5-1.15 1.35q-2.6-0.2-4.35-1.35-1.75-3.05-1.15-4.75l11.25-11.7 0.75 0.65-0.05 0.05h-0.05l-1.8 2q-0.5 1.8 0.1 3.2 1.2-0.85 2.4-0.2 0.85 1.25 0.35 2.7-0.55 0.6-1.5 0.75-2.85 0.2-2.7-2.5-2.45 0.25-3.7 1.75l-2.6 2.6q-0.55 1.35-0.05 2.45 2.05-1.1 3.4-0.55 1.2 1.25 0.85 3.55" fill="#616460" fill-rule="evenodd"/>
<path d="m86.45 146.65 1.1 2.45 1.5 2.05 0.35 0.3 0.95 0.65 1.1 0.7 2.95 1.15" fill="none" stroke="#1d382b" stroke-linecap="round" stroke-linejoin="round" stroke-opacity=".43137" stroke-width=".05"/>
<path d="m94.3 154.4-2.25 2.45-1.4-0.35q-2.7-0.65-2.1-4-1.7 0.15-2.95 1m4.75 6.9-0.35 0.4-7.6 7.3q-5.65 5.5-12.7 14.9-0.55 0.55-1.35 0l-0.75-0.45m-0.75 0.95-1.15 1.35q-2.6-0.2-4.35-1.35-2.95-1.9-3.3-6.4 14.55-14.05 27.7-30.1m-0.15 15.65 0.85-0.55q0.5-0.6 0.7-1.6 0.05-3.45-3.2-2.95-0.1-2.05 0.75-3.2l0.9-0.85m-13.4 14.2q1.1-1.25 3.55-1.25-1.05 3.25 3.05 2.85 0.65-0.25 1.15-0.7m-1.75-7.6 0.1-0.1q1-1.1 3.5-1.05 0 3.35 3.2 2.95l0.6-0.15m-12.45 12.8q0.55-0.6 0.7-1.6 0.5-3-2.65-2.5-0.2-2.3 0.9-3.6h0.05l0.05-0.05m6-6.7q-0.95 1.1-0.5 3.35 2.95-0.45 3.05 2.85l-0.8 1.4m-6.8 6.85q-0.55 0.6-1.5 0.75-2.85 0.2-2.7-2.5-2.45 0.25-3.7 1.75-1.1 1.3-1.3 3.65 4.75-1.8 3.65 3.45" fill="none" stroke="#353520" stroke-linecap="round" stroke-linejoin="round" stroke-opacity=".6902" stroke-width=".05"/>
<path d="m85.65 145.55 0.05 0.05 1.05 1.8q-8.05-4.45-9.35-2.65-0.45-1.4 0.25-1.7 2.65-0.65 8 2.5m-7.05 1.8-0.6 1.2-34.95-9.7-4.95-2.55 21.2 5.75 1.15 0.35 2.15 0.6 8 2.2 8 2.15" fill="#252725" fill-rule="evenodd"/>
<path d="m77.4 144.75q0.25 1 1.2 2.6l-8-2.15q-0.25-3.7 6.15-8.45l4.05 0.1q-2.4 1.2-2.45 2.75 0.2 1.2 8.45 1.85l-2.05 1.4 0.9 2.7q-5.35-3.15-8-2.5-0.7 0.3-0.25 1.7m-39.3-8.5 28.75 0.4q0.9 1.5-7.55 5.4l-21.2-5.75v-0.05m30.95 0.4 2.15 0.05q-1.45 4.55-8.6 6.3l-2.15-0.6q8.9-3.6 8.6-5.75" fill="url(#m)" fill-rule="evenodd"/>
<path d="m66.85 136.65h2.2q0.3 2.15-8.6 5.75l-1.15-0.35q8.45-3.9 7.55-5.4m4.35 0.05 5.55 0.05q-6.4 4.75-6.15 8.45l-8-2.2q7.15-1.75 8.6-6.3" fill="#a2a2a2" fill-rule="evenodd"/>
<path d="m85.65 145.55 0.05 0.05 1.05 1.8q-8.05-4.45-9.35-2.65 0.25 1 1.2 2.6l-0.6 1.2-34.95-9.7-4.95-2.55-0.15-0.05h0.15l28.75 0.4h2.2l2.15 0.05 5.55 0.05 4.05 0.1q-2.4 1.2-2.45 2.75 0.2 1.2 8.45 1.85l-2.05 1.4 0.9 2.7q-5.35-3.15-8-2.5-0.7 0.3-0.25 1.7m-16.95-2.35 2.15 0.6 8 2.2 8 2.15m-19.3-5.3 1.15 0.35m-22.35-6.1 21.2 5.75" fill="none" stroke="#353520" stroke-linecap="round" stroke-linejoin="round" stroke-opacity=".6902" stroke-width=".05"/>
<path d="m109.55 201.4-3-4.7-12.65-33.9 1.15-0.7 7.2 19.6 1.1 2.85 0.7 1.95 0.1 0.25 1.15 3.15 1.1 3.05 0.1 0.15 3.05 8.3m-11.8-38.3q1.7-1.5-3.55-9.2l1.7 0.6 0.05 0.05q3.9 5.35 3.45 8.15-0.25 0.7-1.65 0.4" fill="#252725" fill-rule="evenodd"/>
<path d="m107.9 184.2 1.7 17.15-0.05 0.05-3.05-8.3-0.1-0.15 1.5-8.75m-12.85-22.1q1.65 0.8 2.7 1 1.4 0.3 1.65-0.4 0.45-2.8-3.45-8.15l3.3 0.75 0.95-1.9q1.4 8.2 2.6 8.25 1.5-0.15 2.55-2.6l0.8 8.4 0.05 0.15 0.3 3.3q-1.15 4.45-4.25 10.8l-7.2-19.6m11.85 11.9 0.6 6.85q-0.05 2.9-2.2 9.05l-1.15-3.15-0.1-0.25-0.7-1.95q0.45-4 3.55-10.55" fill="#5e5f5c" fill-rule="evenodd"/>
<path d="m107.5 180.85 0.4 3.35-1.5 8.75-1.1-3.05q2.15-6.15 2.2-9.05m-1-9.95 0.4 3.1q-3.1 6.55-3.55 10.55l-1.1-2.85q3.1-6.35 4.25-10.8" fill="#d5d5d5" fill-rule="evenodd"/>
<path d="m107.5 180.85 0.4 3.35 1.7 17.15v0.2l-0.05-0.15-3-4.7-12.65-33.9 1.15-0.7q1.65 0.8 2.7 1 1.7-1.5-3.55-9.2l1.7 0.6 0.05 0.05 3.3 0.75 0.95-1.9q1.4 8.2 2.6 8.25 1.5-0.15 2.55-2.6l0.8 8.4m0.05 0.15 0.3 3.3 0.4 3.1 0.6 6.85m-2.2 9.05 1.1 3.05m-8.65-29.85q1.4 0.3 1.65-0.4 0.45-2.8-3.45-8.15m7.4 30 0.7 1.95m0.1 0.25 1.15 3.15m1.2 3.2 3.05 8.3m-14.5-39.3 7.2 19.6 1.1 2.85" fill="none" stroke="#353520" stroke-linecap="round" stroke-linejoin="round" stroke-opacity=".6902" stroke-width=".05"/>
<path d="m106.4 192.95 0.1 0.15" fill="none" stroke="#1e3727" stroke-linecap="round" stroke-linejoin="round" stroke-opacity=".32157" stroke-width=".05"/>
<path d="m158.35 80.45q0.85 1.9 0.1 3.95-0.7 1.95-2.65 2.85l-3.9 0.2q-2-0.75-2.85-2.65-0.9-1.95-0.2-3.95 0.75-2 2.65-2.9l3.95-0.15q1.95 0.7 2.9 2.65m-3.35-1.55-3 0.15q-1.45 0.65-2.05 2.25-0.55 1.5 0.1 3 0.7 1.45 2.25 2.05l3-0.15q1.5-0.7 2.05-2.2 0.55-1.55-0.1-3.05-0.7-1.5-2.25-2.05" fill="#2b805e" fill-rule="evenodd"/>
<path d="m155 78.9q1.55 0.55 2.25 2.05 0.65 1.5 0.1 3.05-0.55 1.5-2.05 2.2l-3 0.15q-1.55-0.6-2.25-2.05-0.65-1.5-0.1-3 0.6-1.6 2.05-2.25l3-0.15" fill="url(#l)" fill-rule="evenodd"/>
<path d="m158.35 80.45q-0.95-1.95-2.9-2.65l-3.95 0.15q-1.9 0.9-2.65 2.9-0.7 2 0.2 3.95 0.85 1.9 2.85 2.65l3.9-0.2q1.95-0.9 2.65-2.85 0.75-2.05-0.1-3.95z" fill="none" stroke="#000" stroke-linecap="round" stroke-linejoin="round" stroke-opacity=".50196" stroke-width=".05"/>
<path d="m156 84.4-3-0.05q-1.55-0.6-2.25-1.9-0.85-1.3-0.35-2.5 0.45-1.25 1.9-1.8l2.9 0.05q1.55 0.55 2.35 1.9 0.75 1.3 0.25 2.55-0.4 1.2-1.8 1.75" fill="url(#k)" fill-rule="evenodd"/>
<path d="m151.55 81.4 0.7-0.85q0.2-0.5-0.05-1-0.2-0.5-0.75-0.7-0.5-0.2-1.05 0-0.5 0.3-0.7 0.8-0.2 0.55 0.05 1.05l0.75 0.7q0.55 0.2 1.05 0" fill="#fff" fill-opacity=".4902" fill-rule="evenodd"/>
<path d="m175.35 64.7-1.75 1 0.15 1.55-3.45-0.75 3.2-0.8-4.4-0.6 6.25-0.4" fill="#e7ede8" fill-rule="evenodd"/>
<path d="m172.65 76.4-2.9 5-15.75 1.2-0.05-0.4h-0.4l-0.05-13.05 11.65-9.2 1.6 0.15 0.85-2.1 28.2-22.25-10.8 18.85-1.7-0.85 1.1 1.95-10.65 18.65-1.85-0.4 1.2 1.35-1.1-0.2 0.7 1.2-0.05 0.1m2.7-11.7 11.75-18.75-28.1 23.45-5.05 12.8 13.5-5 0.85-1.25 1-4 3.25-2.8 1.2-1.9-0.15-1.55 1.75-1" fill="url(#j)" fill-rule="evenodd"/>
<path d="m153.95 82.2 5.05-12.8 28.1-23.45-11.75 18.75-6.25 0.4 4.4 0.6-3.2 0.8 3.45 0.75-1.2 1.9-3.25 2.8-1 4-0.85 1.25-13.5 5" fill="#98b498" fill-rule="evenodd"/>
<path d="m172.65 76.4-2.9 5-15.75 1.2h-0.25l-0.2 0.05v-0.45l-0.05-13.05 11.65-9.2m2.45-1.95 28.2-22.25-10.8 18.85m-0.6 1.1-10.65 18.65m-19.95 8.25 0.15-0.4" fill="none" stroke="#1e3727" stroke-linecap="round" stroke-linejoin="round" stroke-opacity=".32157" stroke-width=".05"/>
<path d="m153.95 82.2 5.05-12.8 28.1-23.45-11.75 18.75-6.25 0.4 4.4 0.6-3.2 0.8 3.45 0.75-1.2 1.9-3.25 2.8-1 4-0.85 1.25-13.5 5" fill="none" stroke="#2c3a37" stroke-linecap="round" stroke-linejoin="round" stroke-opacity=".24314"/>
<path d="m165.15 59.95 1.6 0.15 0.85-2.1m17.4-3.4-1.7-0.85 1.1 1.95m-10.65 18.65-1.85-0.4 1.2 1.35-1.1-0.2 0.7 1.2-0.05 0.1z" fill="none" stroke="#1d382b" stroke-linecap="round" stroke-linejoin="round" stroke-opacity=".43137" stroke-width=".05"/>
<path d="m115.9 123.05-2.5 2.5-2.95 1.85-1.7 0.25q-0.25-0.35 0.6-1.5 0.9-1.25 2.45-2.55 1.65-1.25 3-1.9t1.65-0.2q0.35 0.35-0.55 1.55" fill="#b0cec1" fill-opacity=".32157" fill-rule="evenodd"/>
<path d="m67.55 178.35q-0.65 0-1.15-0.45-0.45-0.4-0.5-1.1-0.05-0.65 0.4-1.15t1.15-0.55q0.65 0 1.1 0.45 0.5 0.4 0.55 1.1l-0.45 1.15q-0.45 0.5-1.1 0.55" fill="url(#i)" fill-rule="evenodd"/>
<path d="m86.1 154.3 2.05 2.3-0.2 0.25q-0.4 0.5-1.1 0.45-0.65 0.1-1.1-0.35-0.5-0.45-0.55-1.15 0-0.65 0.4-1.15l0.5-0.35" fill="url(#ak)" fill-rule="evenodd"/>
<path d="m86.1 154.3 0.65-0.15q0.65-0.05 1.15 0.4 0.45 0.45 0.5 1.1 0.05 0.55-0.25 0.95l-2.05-2.3" fill="url(#aj)" fill-rule="evenodd"/>
<path d="m88.15 156.6q0.3-0.4 0.25-0.95-0.05-0.65-0.5-1.1-0.5-0.45-1.15-0.4l-0.65 0.15m2.05 2.3-0.2 0.25q-0.4 0.5-1.1 0.45-0.65 0.1-1.1-0.35-0.5-0.45-0.55-1.15 0-0.65 0.4-1.15l0.5-0.35" fill="none" stroke="#1d382b" stroke-linecap="round" stroke-linejoin="round" stroke-opacity=".43137" stroke-width=".05"/>
</g>
<linearGradient id="am" x1="-819.2" x2="819.2" gradientTransform="matrix(-.0303 .0288 -.0361 -.0379 131.3 120.95)" gradientUnits="userSpaceOnUse">
<stop stop-color="#c9d8ca" offset=".0039216"/>
<stop stop-color="#fafcfa" offset="1"/>
</linearGradient>
<linearGradient id="al" x1="-819.2" x2="819.2" gradientTransform="matrix(-.0391 .0341 -.0346 -.0395 116.2 110.9)" gradientUnits="userSpaceOnUse">
<stop stop-color="#c9d8ca" offset=".0039216"/>
<stop stop-color="#fafcfa" offset="1"/>
</linearGradient>
<linearGradient id="aa" x1="-819.2" x2="819.2" gradientTransform="matrix(.0075 .0069 -.0037 .004 89.5 145.6)" gradientUnits="userSpaceOnUse">
<stop stop-color="#c5dcc5" offset="0"/>
<stop stop-color="#779a76" offset="1"/>
</linearGradient>
<linearGradient id="p" x1="-819.2" x2="819.2" gradientTransform="matrix(.0026 -.0074 -.0075 -.0028 55.95 187.8)" gradientUnits="userSpaceOnUse">
<stop stop-color="#acecc6" offset="0"/>
<stop stop-color="#276947" offset="1"/>
</linearGradient>
<linearGradient id="n" x1="-819.2" x2="819.2" gradientTransform="matrix(-.0022 .0062 .0052 .002 56.75 185.6)" gradientUnits="userSpaceOnUse">
<stop stop-color="#fff" stop-opacity=".8" offset="0"/>
<stop stop-color="#44e31c" stop-opacity="0" offset="1"/>
</linearGradient>
<linearGradient id="m" x1="-819.2" x2="819.2" gradientTransform="matrix(.0185 .017 -.0121 .0131 63.2 139.5)" gradientUnits="userSpaceOnUse">
<stop stop-color="#ccc" offset="0"/>
<stop stop-color="#484848" offset="1"/>
</linearGradient>
<linearGradient id="l" x1="-819.2" x2="819.2" gradientTransform="matrix(.0017 -.0045 -.0045 -.0017 153.7 82.6)" gradientUnits="userSpaceOnUse">
<stop stop-color="#acecc6" offset="0"/>
<stop stop-color="#276947" offset="1"/>
</linearGradient>
<linearGradient id="k" x1="-819.2" x2="819.2" gradientTransform="matrix(-.0014 .0038 .0032 .0012 154.05 81.3)" gradientUnits="userSpaceOnUse">
<stop stop-color="#fff" stop-opacity=".8" offset="0"/>
<stop stop-color="#44e31c" stop-opacity="0" offset="1"/>
</linearGradient>
<linearGradient id="j" x1="-819.2" x2="819.2" gradientTransform="matrix(.0279 -.0311 .039 .0349 166 55.6)" gradientUnits="userSpaceOnUse">
<stop stop-color="#c9d8ca" offset=".0039216"/>
<stop stop-color="#fafcfa" offset="1"/>
</linearGradient>
<linearGradient id="i" x1="-819.2" x2="819.2" gradientTransform="matrix(.0014 .0013 -.0013 .0014 67.45 176.7)" gradientUnits="userSpaceOnUse">
<stop stop-color="#729672" offset=".0039216"/>
<stop stop-color="#396039" offset="1"/>
</linearGradient>
<linearGradient id="ak" x1="-819.2" x2="819.2" gradientTransform="matrix(.0014 .0013 -.0013 .0014 86.8 155.75)" gradientUnits="userSpaceOnUse">
<stop stop-color="#c9d8ca" offset=".0039216"/>
<stop stop-color="#fafcfa" offset="1"/>
</linearGradient>
<linearGradient id="aj" x1="-819.2" x2="819.2" gradientTransform="matrix(.0014 .0013 -.0013 .0014 86.8 155.75)" gradientUnits="userSpaceOnUse">
<stop stop-color="#729672" offset=".0039216"/>
<stop stop-color="#afcfaf" offset="1"/>
</linearGradient>
<g id="c" transform="translate(80,80)">
<use transform="translate(-80,-80)" width="160" height="160" xlink:href="#g"/>
</g>
<g id="g" transform="translate(80,80)">
<path d="m56.55-56.6q23.45 23.45 23.45 56.6t-23.45 56.55q-23.4 23.45-56.55 23.45t-56.6-23.45q-23.4-23.4-23.4-56.55t23.4-56.6q23.45-23.4 56.6-23.4t56.55 23.4" fill="url(#ai)" fill-rule="evenodd"/>
</g>
<radialGradient id="ai" cx="0" cy="0" r="819.2" gradientTransform="scale(.0984)" gradientUnits="userSpaceOnUse">
<stop stop-color="#d6ffeb" stop-opacity=".12549" offset=".48627"/>
<stop stop-color="#e5fff4" stop-opacity="0" offset="1"/>
</radialGradient>
<g id="a" transform="translate(45.75,17.3)">
<use transform="translate(-30.55,-10.1)" width="52.5" height="36.450001" xlink:href="#b"/>
<use transform="matrix(.3928 .3928 -.3928 .3928 2.9665 -11.619)" width="52.5" height="36.450001" xlink:href="#b"/>
<use transform="matrix(.601 .601 -.601 .601 -23.841 -13.832)" width="52.5" height="36.450001" xlink:href="#b"/>
<use transform="matrix(.4112 .4112 -.4112 .4112 -.5599 -3.7669)" width="52.5" height="36.450001" xlink:href="#b"/>
<use transform="matrix(.6111 0 0 .6111 -27.67 -17.322)" width="52.5" height="36.450001" xlink:href="#b"/>
</g>
<g id="b" transform="translate(30.55,10.1)">
<use transform="translate(-30.55,-10.1)" width="52.5" height="36.450001" xlink:href="#f"/>
</g>
<g id="f" transform="translate(30.55,10.1)">
<path d="m21.95-8.6q-2.15 0.5-3.55 1.3l-0.4-0.7 3.95-0.6m-17 11.75-0.45-0.55 0.9-0.1q-0.4 0.3-0.45 0.65m-4.05-1.8q-0.6-1.05-1.65-0.8 0.95-0.25 1.4-1-0.15 0.95 0.25 1.8m-31.15-8.95-0.3-0.75 1.15-0.1-0.85 0.85m9.15-2.5-0.35 0.95-0.35-0.9 0.7-0.05m20.2 24.75q-0.8 0.4-0.9 1.05l-0.35-0.95 1.25-0.1m-4.25 10.25q0.5 1 1.2-0.1l-0.6 1.55-0.6-1.45m-0.05-16.55q-0.95 1.65 0.45 1.3l-4.45 2.4q2.6-1.75 4-3.7" fill="#ccffef" fill-rule="evenodd"/>
</g>
<g id="e" transform="translate(-18,-15.1)">
<path d="m121.85 109.4q3.5 4.85-0.65 12.9-4.15 8.15-13.45 14.8t-18.3 7.95-12.5-3.55q-3.45-4.85 0.7-12.95t13.45-14.75 18.3-8q9-1.25 12.45 3.6" fill="url(#ah)" fill-rule="evenodd"/>
<path d="m74 171.25q-0.65 0-1.15-0.45-0.45-0.4-0.5-1.1-0.05-0.65 0.4-1.15t1.15-0.55q0.65 0 1.1 0.45 0.5 0.4 0.55 1.1 0 0.65-0.45 1.15t-1.1 0.55" fill="url(#ag)" fill-rule="evenodd"/>
<path d="m80.45 164.1q-0.65 0-1.15-0.45-0.45-0.4-0.5-1.1-0.05-0.65 0.4-1.15t1.15-0.55q0.65 0 1.1 0.45 0.5 0.4 0.55 1.1l-0.45 1.15q-0.45 0.5-1.1 0.55" fill="url(#af)" fill-rule="evenodd"/>
<path d="m101.45 79.6 0.1-0.05 0.1 1 0.55 1.1-0.2 0.1-0.35-1.2-0.2-0.95" fill="#bfd0c0" fill-rule="evenodd"/>
<path d="m157.45 43.6q2.1 7.65 6.8 13.7l3.4 3.85q-3-1.15-5.1-2.7-4.9-3.55-5.45-9.3-0.25-2.55 0.35-5.55" fill="#e8eee8" fill-rule="evenodd"/>
<path d="m100.45 98.85h-0.05l-1.4-1.6 1.45 1.6m-0.3-18.65 1.3-0.6 0.2 0.95-1.5-0.35" fill="#bacdbf" fill-rule="evenodd"/>
<path d="m114.9 79.95q-0.65 1.6-4.15 5.5-4 4.4-11.75 11.8h-0.05l-7.65 7.15-0.75 0.65-1.8-0.95q-2.75-1.65-5.35-3.8 21.45-10.2 31.5-20.35" fill="#0e2520" fill-rule="evenodd"/>
<path d="m102.2 81.65q9.7-3.05 12.8-2.35l-0.1 0.65q-10.05 10.15-31.5 20.35l-0.1-0.2-0.5-0.4-0.6-0.5-0.35-0.35-0.2-0.9q-0.85-3.45-0.5-7.4l0.1-1.15q7-2.85 12.65-4.9 4.55-1.65 8.1-2.75l0.2-0.1" fill="#1c4a41" fill-rule="evenodd"/>
<path d="m100.4 98.85-7.5 7.2-0.05 0.05-0.15-0.1-2.15-0.95 0.75-0.65 7.65-7.15 1.45 1.6m-18.65-12.4 11.45-3.7 6.95-2.55 1.5 0.35 0.35 1.2q-3.55 1.1-8.1 2.75-5.65 2.05-12.65 4.9l0.5-2.9v-0.05" fill="#8eac94" fill-rule="evenodd"/>
<path d="m82.2 99.2 0.6 0.5-2.55 1.75-0.8-1.2 2.75-1.05m1.1 0.9 0.1 0.2q2.6 2.15 5.35 3.8-1.45 3.05-4.8 6-0.8-0.65-1.85-1.05-1.6-0.65-2.95-1.55 1.5 0.85 3.35 0.5l1.85-2.05q0.45-0.95-0.1-1.65-1.15-0.3-3-1.55l-0.45-0.5 2.5-2.15m-4.65-9.5 2.2-0.05h0.3q-0.35 3.95 0.5 7.4l-2.6 1.45-0.35-0.9q-1.5-4.65-0.05-7.9m-5.9 22.25q1.2-1.2 0.85-2.2-0.3-0.35-0.75-0.55l-1.6-2.2q-0.9-1.8-1.45-3.8l3.5-0.1q-1.75 3.3 0.95 4.85l1.35 0.9q1.1 0.85 0.35 1.35l-3.2 1.75" fill="#648269" fill-rule="evenodd"/>
<path d="m82.8 99.7 0.5 0.4-2.5 2.15-0.55-0.8 2.55-1.75m-1.15-1.75 0.2 0.9 0.35 0.35-2.75 1.05-0.4-0.85 2.6-1.45" fill="#8da58f" fill-rule="evenodd"/>
<path d="m76.25 105.2-0.95-1.1 4.95-2.65 0.55 0.8-4.55 2.95m-2-2.5q-0.6-1.25-0.9-2.6 2.4 0.75 5.7-0.7l0.4 0.85q-3.35 1-5.2 2.45" fill="#c6d2c7" fill-rule="evenodd"/>
<path d="m162.55 58.45q-6.75 3.25-12.85 6.35l-4.4 1.25-3.2 2.8q-17.2 9.3-27.45 17.25l-2.45 0.75 0.15 1.1-3.95 3.35-7.95 7.55-1.45-1.6q7.75-7.4 11.75-11.8 3.5-3.9 4.15-5.5l0.1-0.65q-3.1-0.7-12.8 2.35l-0.55-1.1-0.1-1q8.05-3.15 16.05-7.05l3.85-1.65 2.6 1.75-1.95-2.35 2.55-1.25 1.55 1.45-0.3-2.1q12.9-6.85 25.55-15.35h0.05l0.7 0.75-0.15-1.15 1.1-0.75 0.55 2 0.7-2.8 2.7-1.9q0.55 5.75 5.45 9.3" fill="#98b498" fill-rule="evenodd"/>
<path d="m167.65 61.15q-17.95 4.5-39.55 22.85l-1-1.45-0.1 2.45-5.05 4.45-4.4 2.15-2.85 4.75q-10.85 10.7-22.5 24.6 1.35-8.2 0.55-14.85h0.1l0.05-0.05 7.5-7.2h0.05l7.95-7.55 3.95-3.35-0.15-1.1 2.45-0.75q10.25-7.95 27.45-17.25l3.2-2.8 4.4-1.25q6.1-3.1 12.85-6.35 2.1 1.55 5.1 2.7" fill="url(#ae)" fill-rule="evenodd"/>
<path d="m157.1 49.15-2.7 1.9-0.7 2.8-0.55-2-1.1 0.75 0.15 1.15-0.7-0.75h-0.05q-12.65 8.5-25.55 15.35l0.3 2.1-1.55-1.45-2.55 1.25 1.95 2.35-2.6-1.75-3.85 1.65q-8 3.9-16.05 7.05l-0.1 0.05-1.3 0.6-6.95 2.55-11.45 3.7-0.1-0.1q-5.5-4.05-13.45-6.4l20.15-4.7 0.2-0.05 3.8 1-1.4-1.6q53.6-13.9 66.45-31.1l0.05 0.1q-0.6 3-0.35 5.55" fill="url(#ad)" fill-rule="evenodd"/>
<path d="m79.45 100.25 0.8 1.2-4.95 2.65-0.8-0.95-0.25-0.45q1.85-1.45 5.2-2.45m-0.3 7.25-0.15-0.05q-1.55-1-2.75-2.25l4.55-2.95 0.45 0.5q1.85 1.25 3 1.55 0.55 0.7 0.1 1.65l-1.85 2.05q-1.85 0.35-3.35-0.5m-5.8-7.4-0.4-3v-0.45l0.05-1.8 0.35-2.9q0.9-0.4 1.75-0.55 1.9-0.65 3.55-0.8-1.45 3.25 0.05 7.9l0.35 0.9q-3.3 1.45-5.7 0.7" fill="url(#ac)" fill-rule="evenodd"/>
<path d="m167.65 61.15h0.05-0.05q-17.95 4.5-39.55 22.85l-1-1.45-0.1 2.45-5.05 4.45-4.4 2.15-2.85 4.75q-10.85 10.7-22.5 24.6l-0.4 0.3m65.65-77.65q2.1 7.65 6.8 13.7l3.4 3.85q-3-1.15-5.1-2.7-4.9-3.55-5.45-9.3-0.25-2.55 0.35-5.55v-0.15l-0.05 0.05q-12.85 17.2-66.45 31.1l1.4 1.6-3.8-1-0.2 0.05-20.15 4.7q7.95 2.35 13.45 6.4m11.25 19.7-0.05 0.05m-0.1 0q0.8 6.65-0.55 14.85m7.95-40.75 1.3-0.6m0.75 2.05q9.7-3.05 12.8-2.35l-0.1 0.65q-0.65 1.6-4.15 5.5-4 4.4-11.75 11.8h-0.05m3.05-15.5 0.2-0.1m-20 17.55 0.6 0.5 0.5 0.4 0.1 0.2q2.6 2.15 5.35 3.8-1.45 3.05-4.8 6-0.8-0.65-1.85-1.05-1.6-0.65-2.95-1.55l-0.15-0.05m2.65-9.5 0.2 0.9 0.35 0.35m-1.95 2.25 2.55-1.75m7.75 5.35 0.75-0.65 7.65-7.15m-10.2 6.85 1.8 0.95 2.15 0.95 0.15 0.1m-19.9-9v-0.45l0.05-1.8 0.35-2.9q0.9-0.4 1.75-0.55 1.9-0.65 3.55-0.8l2.2-0.05m0.3 0 0.1-1.15 0.5-2.9v-0.05l-0.1-0.1m11.1 19.75-0.05-0.1m9.3-24.25q-3.55 1.1-8.1 2.75-5.65 2.05-12.65 4.9m0.5-2.95v0.05m-14.05-6.35 0.5-0.2m13.45 18q-0.85-3.45-0.5-7.4" fill="none" stroke="#1d382b" stroke-linecap="round" stroke-linejoin="round" stroke-opacity=".43137" stroke-width=".05"/>
<path d="m162.55 58.45q-6.75 3.25-12.85 6.35l-4.4 1.25-3.2 2.8q-17.2 9.3-27.45 17.25l-2.45 0.75 0.15 1.1-3.95 3.35-7.95 7.55h-0.05l-7.5 7.2m8.65-26.5q8.05-3.15 16.05-7.05l3.85-1.65 2.6 1.75-1.95-2.35 2.55-1.25 1.55 1.45-0.3-2.1q12.9-6.85 25.55-15.35h0.05l0.7 0.75-0.15-1.15 1.1-0.75 0.55 2 0.7-2.8 2.7-1.9m-75.35 37.3 11.45-3.7 6.95-2.55m1.3-0.6 0.1-0.05m0.1 1-1.5-0.35m1.3-0.6 0.2 0.95" fill="none" stroke="#2c3a37" stroke-linecap="round" stroke-linejoin="round" stroke-opacity=".24314"/>
<path d="m72.75 112.85 3.2-1.75q0.75-0.5-0.35-1.35m-35.4 20 1.15-0.75" fill="none" stroke="#353520" stroke-linecap="round" stroke-linejoin="round" stroke-opacity=".6902" stroke-width=".05"/>
<path d="m36.4 129.6q0.55 3.85-1.75 6.9-2.25 3.05-6 3.5-3.8 0.55-6.9-1.85-3.05-2.45-3.6-6.3-0.65-3.85 1.65-6.9 2.25-3.05 6.1-3.5 3.75-0.45 6.8 1.9 3.1 2.35 3.7 6.25m-4.95-4.5q-2.35-1.9-5.3-1.5-2.9 0.35-4.65 2.7-1.75 2.3-1.25 5.35 0.45 2.9 2.8 4.75t5.3 1.55q2.85-0.45 4.6-2.75 1.7-2.35 1.35-5.3-0.45-3.05-2.85-4.8" fill="#2b805e" fill-rule="evenodd"/>
<path d="m31.45 125.1q2.4 1.75 2.85 4.8 0.35 2.95-1.35 5.3-1.75 2.3-4.6 2.75-2.95 0.3-5.3-1.55t-2.8-4.75q-0.5-3.05 1.25-5.35 1.75-2.35 4.65-2.7 2.95-0.4 5.3 1.5" fill="url(#ab)" fill-rule="evenodd"/>
<path d="m36.4 129.6q-0.6-3.9-3.7-6.25-3.05-2.35-6.8-1.9-3.85 0.45-6.1 3.5-2.3 3.05-1.65 6.9 0.55 3.85 3.6 6.3 3.1 2.4 6.9 1.85 3.75-0.45 6-3.5 2.3-3.05 1.75-6.9z" fill="none" stroke="#000" stroke-linecap="round" stroke-linejoin="round" stroke-opacity=".50196" stroke-width=".05"/>
<path d="m30.5 135.05q-2.8 0.1-5.2-1.65-2.3-1.95-2.9-4.6-0.8-2.65 0.7-4.6 1.4-1.9 4.15-2 2.65-0.05 5.05 1.75 2.3 1.85 3 4.55t-0.75 4.65q-1.45 1.85-4.05 1.9" fill="url(#z)" fill-rule="evenodd"/>
<path d="m24.5 127.25q1-0.2 1.6-1t0.45-1.8q-0.15-1.05-0.95-1.65-0.8-0.65-1.85-0.55-0.95 0.15-1.55 0.95t-0.5 1.85q0.2 1 0.95 1.7 0.85 0.55 1.85 0.5" fill="#fff" fill-opacity=".4902" fill-rule="evenodd"/>
<path d="m34.3 127.75-1.1 2.8-1.95 2.4q0.3 2.35 1.45 3.85-2.85-1.65-5.3-5.3l-0.9-1.7q2.45-2.7 6.45-4.95 0.4 1.6 1.35 2.9m-8.8-0.7-0.4-2.55q4-0.3 7.6-1.5l0.05 0.85-7.25 3.2m-0.25-4.9q0.1-0.65 0.35-1.25 3.55 0.7 7.35-0.9l-0.3 1.95-7.4 0.2" fill="#648269" fill-rule="evenodd"/>
<path d="m34.3 127.75q1.5 2.05 4.4 3.3-3.2 2.6-4.1 6.6l-1.6-0.7-0.3-0.15q-1.15-1.5-1.45-3.85l1.95-2.4 1.1-2.8" fill="#bacdbf" fill-rule="evenodd"/>
<path d="m26.5 129.8-1-2.75 7.25-3.2 0.2 1q-4 2.25-6.45 4.95m-1.4-5.3q-0.05-1.25 0.15-2.35l7.4-0.2 0.05 1.05q-3.6 1.2-7.6 1.5" fill="#8aa88f" fill-rule="evenodd"/>
<path d="m32.7 136.8 0.3 0.15 1.6 0.7q0.9-4 4.1-6.6-2.9-1.25-4.4-3.3l-1.1 2.8-1.95 2.4q0.3 2.35 1.45 3.85-2.85-1.65-5.3-5.3l-0.9-1.7-1-2.75-0.4-2.55q-0.05-1.25 0.15-2.35 0.1-0.65 0.35-1.25 3.55 0.7 7.35-0.9l-0.3 1.95 0.05 1.05 0.05 0.85 0.2 1q0.4 1.6 1.35 2.9" fill="none" stroke="#1d382b" stroke-linecap="round" stroke-linejoin="round" stroke-opacity=".43137" stroke-width=".05"/>
<path d="m73 97.15 0.4 3q0.3 1.35 0.9 2.6l0.25 0.45 0.8 1 1 1.1 2.7 2.2-0.25 0.4-3.15 1.9-1.35-0.85q-2.7-1.6-0.95-4.9l-3.5 0.1-0.3-1.55-0.85-0.15-9.55 6.15-8.65 5.25-15.7 8.75q-1.2 1.65-0.35 5.45-2.55-3-1.4-7.9 19.95-10.1 39.15-22.9l0.8-0.1m-31.6 31.9-1.15 0.75q1.2-2.35 0.3-4-1.25-1-3.85-0.6-0.1-1.3 0.9-2.55l3.55-1.9q-1.55 1.05-2.5 3.4 5.6-0.3 2.75 4.9m25.55-15.2 0.65-0.65q1.1-1.4 0.9-3.05-0.9-1.9-3.15-1.15-0.15-1.6 1-2.85 1.2-1.1 2.3-1.4-1.25 0.9-1.85 3.15 3.65 0.5 2.4 4.15-0.45 1-1.2 1.45l-1.05 0.35m-8 4.45q0.95-2 0.35-3.35-0.45-1.5-2.75-1.2-0.3-1.85 0.55-2.65 1.2-1.05 2.5-1.45-1.35 0.9-1.6 3.4 3.25 0.5 2.3 3.95l-1.35 1.3m-8-3.45q-1.55 0.95-2.1 3.55 3.45 0.45 2 3.45l-1.3 1.45q1-1.35 0.5-2.95-1.05-1.1-2.55-0.5-0.2-1.75 0.85-3.5l2.6-1.5" fill="#212321" fill-rule="evenodd"/>
<path d="m68.65 104.75q-1.1 0.3-2.3 1.4-1.15 1.25-1 2.85 2.25-0.75 3.15 1.15 0.2 1.65-0.9 3.05l-0.65 0.65-0.75-0.05q-3.45-0.7-2.4-4.15l-4.1-0.1-0.1 0.1q-1.3 0.4-2.5 1.45-0.85 0.8-0.55 2.65 2.3-0.3 2.75 1.2 0.6 1.35-0.35 3.35l-1.4 0.3q-4.45-0.85-2.3-3.95l-4.2 0.1-0.55-0.9 8.65-5.25 9.55-6.15 0.85 0.15 0.3 1.55-1.2 0.6" fill="#696c68" fill-rule="evenodd"/>
<path d="m69.85 104.15q0.55 2 1.45 3.8l1.6 2.2 0.8 0.55q0.3 0.95-0.9 2.2l-0.15 0.1-0.5 0.25-10.4 5.3q-7.8 3.95-18.25 11.65-0.8 0.4-1.5-0.4l-0.6-0.75q2.85-5.2-2.75-4.9 0.95-2.35 2.5-3.4 1.85-1.2 4.5-0.65-1 2.8 2.05 3.5l1.85-0.3 1.3-1.45q1.45-3-2-3.45 0.55-2.6 2.1-3.55l0.1-0.1 4.2-0.1q-2.15 3.1 2.3 3.95l1.4-0.3 1.35-1.3q0.95-3.45-2.3-3.95 0.25-2.5 1.6-3.4l0.1-0.1 4.1 0.1q-1.05 3.45 2.4 4.15l0.75 0.05 1.05-0.35q0.75-0.45 1.2-1.45 1.25-3.65-2.4-4.15 0.6-2.25 1.85-3.15l1.2-0.6" fill="#bacdbf" fill-rule="evenodd"/>
<path d="m40.25 129.8-1.65 1q-2.65-1.1-4.15-2.75-0.85-3.8 0.35-5.45l15.7-8.75 0.55 0.9-0.1 0.1-2.6 1.5q-1.05 1.75-0.85 3.5 1.5-0.6 2.55 0.5 0.5 1.6-0.5 2.95l-1.85 0.3q-3.05-0.7-2.05-3.5-2.65-0.55-4.5 0.65l-3.55 1.9q-1 1.25-0.9 2.55 2.6-0.4 3.85 0.6 0.9 1.65-0.3 4" fill="#616460" fill-rule="evenodd"/>
<path d="m73 97.15 0.4 3q0.3 1.35 0.9 2.6l0.25 0.45 0.8 1 1 1.1 2.7 2.2" fill="none" stroke="#1d382b" stroke-linecap="round" stroke-linejoin="round" stroke-opacity=".43137" stroke-width=".05"/>
<path d="m78.8 107.9-3.15 1.9-1.35-0.85q-2.7-1.6-0.95-4.9l-3.5 0.1m2.8 8.85-0.5 0.25-10.4 5.3q-7.8 3.95-18.25 11.65-0.8 0.4-1.5-0.4l-0.6-0.75m-1.15 0.75-1.65 1q-2.65-1.1-4.15-2.75-2.55-3-1.4-7.9 19.95-10.1 39.15-22.9m-5.25 16.6 1.05-0.35q0.75-0.45 1.2-1.45 1.25-3.65-2.4-4.15 0.6-2.25 1.85-3.15l1.2-0.6m-18.8 10.6 4.2-0.1q-2.15 3.1 2.3 3.95l1.4-0.3m0.65-8.65 0.1-0.1 4.1 0.1q-1.05 3.45 2.4 4.15l0.75 0.05m-15.9 0.9-0.1 0.1q-1.55 0.95-2.1 3.55 3.45 0.45 2 3.45l-1.3 1.45-1.85 0.3q-3.05-0.7-2.05-3.5-2.65-0.55-4.5 0.65-1.55 1.05-2.5 3.4 5.6-0.3 2.75 4.9m18.2-19.4q-1.35 0.9-1.6 3.4 3.25 0.5 2.3 3.95l-1.35 1.3" fill="none" stroke="#353520" stroke-linecap="round" stroke-linejoin="round" stroke-opacity=".6902" stroke-width=".05"/>
<path d="m72.45 95.65 0.05 0.05 0.55 2.3q-7.05-7.35-9.1-5.9 0-1.6 0.85-1.7 2.95 0.2 7.65 5.25m-8.05-0.4-1.05 1.15-33.85-21.7-4.35-4.25 20.5 12.95 1.15 0.7 2.05 1.3 7.8 5 7.75 4.85" fill="#252725" fill-rule="evenodd"/>
<path d="m65.9 83.5 4.25 1.35q-2.9 0.5-3.5 2.1-0.15 1.35 8.35 4.7l-2.6 0.85 0.05 3.15q-4.7-5.05-7.65-5.25-0.85 0.1-0.85 1.7-0.05 1.2 0.45 3.15l-7.75-4.85q0.9-4.05 9.25-6.9m-40.75-13.15 30.25 9.75q0.45 1.9-9.75 3.3l-20.5-12.95v-0.1m32.6 10.55 2.3 0.65q-3.05 4.35-11.2 3.85l-2.05-1.3q10.55-0.85 10.95-3.2" fill="url(#y)" fill-rule="evenodd"/>
<path d="m55.4 80.1 2.35 0.8q-0.4 2.35-10.95 3.2l-1.15-0.7q10.2-1.4 9.75-3.3m4.65 1.45 5.85 1.95q-8.35 2.85-9.25 6.9l-7.8-5q8.15 0.5 11.2-3.85" fill="#a2a2a2" fill-rule="evenodd"/>
<path d="m65.9 83.5 4.25 1.35q-2.9 0.5-3.5 2.1-0.15 1.35 8.35 4.7l-2.6 0.85 0.05 3.15 0.05 0.05 0.55 2.3q-7.05-7.35-9.1-5.9-0.05 1.2 0.45 3.15l-1.05 1.15-33.85-21.7-4.35-4.25-0.2-0.15 0.2 0.05 30.25 9.75 2.35 0.8 2.3 0.65 5.85 1.95m-9.25 6.9 7.75 4.85m-18.75-11.85 1.15 0.7 2.05 1.3 7.8 5m-31.5-19.95 20.5 12.95m18.3 8.7q0-1.6 0.85-1.7 2.95 0.2 7.65 5.25" fill="none" stroke="#353520" stroke-linecap="round" stroke-linejoin="round" stroke-opacity=".6902" stroke-width=".05"/>
<path d="m79.55 162.6-1.65-5.9-2.4-40.05 1.45-0.3 1.3 23 0.2 3.35 0.1 2.35v0.3l0.25 3.7 0.2 3.6v0.2l0.55 9.75m-0.05-44.4q2.25-1-0.75-10.85l1.55 1.2v0.05q2.45 6.95 1.05 9.75l-1.85-0.15" fill="#252725" fill-rule="evenodd"/>
<path d="m83.35 143.85-3.75 18.75h-0.05l-0.55-9.75v-0.2l4.35-8.8m-6.4-27.5q1.5 1.3 2.55 1.85l1.85 0.15q1.4-2.8-1.05-9.75l3.3 1.85 1.65-1.7q-1.2 9.1 0.05 9.6 1.7 0.3 3.55-1.95l-1.85 9.15v0.15l-0.75 3.65q-2.65 4.35-8 10l-1.3-23m8.65 16.4-1.5 7.4q-1 3.1-5.3 8.9l-0.25-3.7v-0.3l-0.1-2.35q1.75-4.05 7.15-9.95" fill="#5e5f5c" fill-rule="evenodd"/>
<path d="m84.1 140.15-0.75 3.7-4.35 8.8-0.2-3.6q4.3-5.8 5.3-8.9m2.15-10.8-0.65 3.4q-5.4 5.9-7.15 9.95l-0.2-3.35q5.35-5.65 8-10" fill="#d5d5d5" fill-rule="evenodd"/>
<path d="m84.1 140.15-0.75 3.7-3.75 18.75-0.05 0.15v-0.15l-1.65-5.9-2.4-40.05 1.45-0.3q1.5 1.3 2.55 1.85 2.25-1-0.75-10.85l1.55 1.2v0.05l3.3 1.85 1.65-1.7q-1.2 9.1 0.05 9.6 1.7 0.3 3.55-1.95l-1.85 9.15m0 0.15-0.75 3.65-0.65 3.4-1.5 7.4m-5.3 8.9 0.2 3.6m0.5-34.45 1.85 0.15q1.4-2.8-1.05-9.75m-1.85 34.1 0.1 2.35m0 0.3 0.25 3.7m0.2 3.8 0.55 9.75m-1.3-23.25 0.2 3.35m-1.5-26.35 1.3 23" fill="none" stroke="#353520" stroke-linecap="round" stroke-linejoin="round" stroke-opacity=".6902" stroke-width=".05"/>
<path d="m79 152.65v0.2" fill="none" stroke="#1e3727" stroke-linecap="round" stroke-linejoin="round" stroke-opacity=".32157" stroke-width=".05"/>
<path d="m170.55 50.4q0.3 2.3-1.15 4.2-1.35 1.8-3.7 2.15t-4.25-1.05q-1.85-1.45-2.15-3.8-0.35-2.35 1.1-4.2 1.4-1.9 3.75-2.15 2.3-0.35 4.2 1.1 1.85 1.35 2.2 3.75m-3-2.75q-1.45-1.1-3.2-0.8-1.85 0.2-2.95 1.65-1.1 1.4-0.85 3.2t1.7 2.9 3.25 0.85q1.85-0.3 2.9-1.65 1.1-1.45 0.85-3.2-0.25-1.85-1.7-2.95" fill="#2b805e" fill-rule="evenodd"/>
<path d="m167.55 47.65q1.45 1.1 1.7 2.95 0.25 1.75-0.85 3.2-1.05 1.35-2.9 1.65-1.8 0.25-3.25-0.85t-1.7-2.9 0.85-3.2q1.1-1.45 2.95-1.65 1.75-0.3 3.2 0.8" fill="url(#x)" fill-rule="evenodd"/>
<path d="m170.55 50.4q-0.35-2.4-2.2-3.75-1.9-1.45-4.2-1.1-2.35 0.25-3.75 2.15-1.45 1.85-1.1 4.2 0.3 2.35 2.15 3.8 1.9 1.4 4.25 1.05t3.7-2.15q1.45-1.9 1.15-4.2z" fill="none" stroke="#000" stroke-linecap="round" stroke-linejoin="round" stroke-opacity=".50196" stroke-width=".05"/>
<path d="m166.85 53.8q-1.75 0.05-3.15-1-1.4-1.15-1.8-2.75-0.45-1.6 0.5-2.75 0.85-1.2 2.55-1.25 1.65-0.1 3.1 1 1.4 1.05 1.85 2.7 0.4 1.65-0.5 2.85-0.95 1.15-2.55 1.2" fill="url(#w)" fill-rule="evenodd"/>
<path d="m163.2 49.15 1-0.6q0.35-0.5 0.3-1.1-0.1-0.65-0.6-1-0.5-0.4-1.1-0.3-0.65 0.1-1 0.6-0.4 0.5-0.3 1.1t0.55 1l1.15 0.3" fill="#fff" fill-opacity=".4902" fill-rule="evenodd"/>
<path d="m193.8 39.1-2.2 0.55-0.35 1.7q-1.7-1.05-3.4-1.95l3.7 0.25-4.55-2.1 6.8 1.55" fill="#e7ede8" fill-rule="evenodd"/>
<path d="m189 48.85-1.9-1.1 0.85 1.9-1.05-0.6 0.35 1.5q-0.05 0-0.15 0.1l-4.7 4.4-17.1-3.85 0.15-0.5 15.9-0.9 1.3-1.1 2.35-3.85 4.35-1.95 1.9-1.55 0.35-1.7 2.2-0.55 18.5-16-37.35 15.75-9.5 11.85-0.45-0.1 4.15-13.9 15.4-5.9 1.6 0.7 1.55-2 37.15-14.4-17.55 16.55-1.55-1.5 0.55 2.4-17.3 16.3" fill="url(#v)" fill-rule="evenodd"/>
<path d="m191.25 41.35-1.9 1.55-4.35 1.95-2.35 3.85-1.3 1.1-15.9 0.9 9.5-11.85 37.35-15.75-18.5 16-6.8-1.55 4.55 2.1-3.7-0.25q1.7 0.9 3.4 1.95" fill="#98b498" fill-rule="evenodd"/>
<path d="m187.1 50.65-4.7 4.4-17.1-3.85-0.2-0.1-0.05-0.05-0.2-0.05 0.15-0.4 4.15-13.9 15.4-5.9m3.15-1.3 37.15-14.4-17.55 16.55m-1 0.9-17.3 16.3m-23.9 2.25 0.35-0.4" fill="none" stroke="#1e3727" stroke-linecap="round" stroke-linejoin="round" stroke-opacity=".32157" stroke-width=".05"/>
<path d="m191.25 41.35-1.9 1.55-4.35 1.95-2.35 3.85-1.3 1.1-15.9 0.9 9.5-11.85 37.35-15.75-18.5 16-6.8-1.55 4.55 2.1-3.7-0.25q1.7 0.9 3.4 1.95" fill="none" stroke="#2c3a37" stroke-linecap="round" stroke-linejoin="round" stroke-opacity=".24314"/>
<path d="m189 48.85-1.9-1.1 0.85 1.9-1.05-0.6 0.35 1.5q-0.05 0-0.15 0.1m-2.55-19.85 1.6 0.7 1.55-2m19.6 2.15-1.55-1.5 0.55 2.4" fill="none" stroke="#1d382b" stroke-linecap="round" stroke-linejoin="round" stroke-opacity=".43137" stroke-width=".05"/>
<path d="m111.75 81.7q-1.3 0.95-3.4 1.8l-3.75 1.05q-1.6 0.3-1.85-0.25-0.2-0.5 1.15-1.45 1.35-1 3.4-1.8 2.15-0.85 3.8-1.1 1.65-0.2 1.8 0.3 0.2 0.5-1.15 1.45" fill="#b0cec1" fill-opacity=".32157" fill-rule="evenodd"/>
<path d="m42.6 124.5-1.1-0.85q-0.35-0.65-0.2-1.35 0.2-0.7 0.85-1.1l1.35-0.15q0.75 0.15 1.05 0.85 0.4 0.55 0.25 1.35l-0.85 1.05-1.35 0.2" fill="url(#u)" fill-rule="evenodd"/>
<path d="m70.1 105.05 1.45 3.15-0.3 0.15-1.3 0.2q-0.75-0.2-1.15-0.8-0.35-0.65-0.1-1.35 0.1-0.75 0.75-1.1l0.65-0.25" fill="url(#t)" fill-rule="evenodd"/>
<path d="m71.55 108.2-1.45-3.15 0.75 0.05q0.7 0.2 1.05 0.85 0.4 0.6 0.2 1.3l-0.55 0.95" fill="url(#s)" fill-rule="evenodd"/>
<path d="m71.55 108.2 0.55-0.95q0.2-0.7-0.2-1.3-0.35-0.65-1.05-0.85l-0.75-0.05-0.65 0.25q-0.65 0.35-0.75 1.1-0.25 0.7 0.1 1.35 0.4 0.6 1.15 0.8l1.3-0.2z" fill="none" stroke="#1d382b" stroke-linecap="round" stroke-linejoin="round" stroke-opacity=".43137" stroke-width=".05"/>
</g>
<radialGradient id="ah" cx="0" cy="0" r="819.2" gradientTransform="matrix(.0106 .0148 -.0285 .0204 99.4 125.45)" gradientUnits="userSpaceOnUse">
<stop stop-color="#fff" stop-opacity=".77255" offset="0"/>
<stop stop-color="#fff" stop-opacity="0" offset="1"/>
</radialGradient>
<linearGradient id="ag" x1="-819.2" x2="819.2" gradientTransform="matrix(.0014 .0013 -.0013 .0014 73.9 169.6)" gradientUnits="userSpaceOnUse">
<stop stop-color="#729672" offset=".0039216"/>
<stop stop-color="#396039" offset="1"/>
</linearGradient>
<linearGradient id="af" x1="-819.2" x2="819.2" gradientTransform="matrix(.0014 .0013 -.0013 .0014 80.35 162.45)" gradientUnits="userSpaceOnUse">
<stop stop-color="#729672" offset=".0039216"/>
<stop stop-color="#396039" offset="1"/>
</linearGradient>
<linearGradient id="ae" x1="-819.2" x2="819.2" gradientTransform="matrix(-.0414 .0207 -.0259 -.0519 128.75 84.45)" gradientUnits="userSpaceOnUse">
<stop stop-color="#c9d8ca" offset=".0039216"/>
<stop stop-color="#fafcfa" offset="1"/>
</linearGradient>
<linearGradient id="ad" x1="-819.2" x2="819.2" gradientTransform="matrix(-.0525 .0235 -.0237 -.0531 116.1 68.9)" gradientUnits="userSpaceOnUse">
<stop stop-color="#c9d8ca" offset=".0039216"/>
<stop stop-color="#fafcfa" offset="1"/>
</linearGradient>
<linearGradient id="ac" x1="-819.2" x2="819.2" gradientTransform="matrix(.0057 .0097 -.0052 .0031 76.5 96.95)" gradientUnits="userSpaceOnUse">
<stop stop-color="#c5dcc5" offset="0"/>
<stop stop-color="#779a76" offset="1"/>
</linearGradient>
<linearGradient id="ab" x1="-819.2" x2="819.2" gradientTransform="matrix(.0051 -.007 -.007 -.0054 27.25 130.8)" gradientUnits="userSpaceOnUse">
<stop stop-color="#acecc6" offset="0"/>
<stop stop-color="#276947" offset="1"/>
</linearGradient>
<linearGradient id="z" x1="-819.2" x2="819.2" gradientTransform="matrix(-.0043 .0059 .0049 .0038 28.75 128.7)" gradientUnits="userSpaceOnUse">
<stop stop-color="#fff" stop-opacity=".8" offset="0"/>
<stop stop-color="#44e31c" stop-opacity="0" offset="1"/>
</linearGradient>
<linearGradient id="y" x1="-819.2" x2="819.2" gradientTransform="matrix(.0141 .0241 -.017 .01 50.6 81.9)" gradientUnits="userSpaceOnUse">
<stop stop-color="#ccc" offset="0"/>
<stop stop-color="#484848" offset="1"/>
</linearGradient>
<linearGradient id="x" x1="-819.2" x2="819.2" gradientTransform="matrix(.0032 -.0043 -.0043 -.0032 164.9 51.15)" gradientUnits="userSpaceOnUse">
<stop stop-color="#acecc6" offset="0"/>
<stop stop-color="#276947" offset="1"/>
</linearGradient>
<linearGradient id="w" x1="-819.2" x2="819.2" gradientTransform="matrix(-.0027 .0036 .003 .0023 165.85 49.95)" gradientUnits="userSpaceOnUse">
<stop stop-color="#fff" stop-opacity=".8" offset="0"/>
<stop stop-color="#44e31c" stop-opacity="0" offset="1"/>
</linearGradient>
<linearGradient id="v" x1="-819.2" x2="819.2" gradientTransform="matrix(.0396 -.0238 .03 .0497 186.85 26.45)" gradientUnits="userSpaceOnUse">
<stop stop-color="#c9d8ca" offset=".0039216"/>
<stop stop-color="#fafcfa" offset="1"/>
</linearGradient>
<linearGradient id="u" x1="-819.2" x2="819.2" gradientTransform="matrix(.0011 .0019 -.0019 .0011 43.05 122.75)" gradientUnits="userSpaceOnUse">
<stop stop-color="#729672" offset=".0039216"/>
<stop stop-color="#396039" offset="1"/>
</linearGradient>
<linearGradient id="t" x1="-819.2" x2="819.2" gradientTransform="matrix(.0011 .0019 -.0019 .0011 70.35 106.85)" gradientUnits="userSpaceOnUse">
<stop stop-color="#c9d8ca" offset=".0039216"/>
<stop stop-color="#fafcfa" offset="1"/>
</linearGradient>
<linearGradient id="s" x1="-819.2" x2="819.2" gradientTransform="matrix(.0011 .0019 -.0019 .0011 70.35 106.85)" gradientUnits="userSpaceOnUse">
<stop stop-color="#729672" offset=".0039216"/>
<stop stop-color="#afcfaf" offset="1"/>
</linearGradient>
<g id="d" transform="translate(-50.5,-61)">
<path d="m122.65 69.3q2.1 6.25-4.95 13.45-7 7.3-19 11.35-12 4-22 2.4-9.95-1.55-12.05-7.8t4.9-13.5q7.05-7.25 19.05-11.25 12-4.05 21.95-2.5 10 1.6 12.1 7.85" fill="url(#r)" fill-rule="evenodd"/>
<path d="m51.85 119.2-1.1-0.85q-0.35-0.65-0.2-1.35 0.2-0.7 0.85-1.1l1.35-0.15q0.75 0.15 1.05 0.85 0.4 0.55 0.25 1.35-0.2 0.7-0.85 1.05l-1.35 0.2" fill="url(#q)" fill-rule="evenodd"/>
<path d="m60.95 113.5q-0.75-0.25-1.1-0.85-0.35-0.65-0.2-1.35 0.2-0.7 0.85-1.1l1.35-0.15q0.75 0.15 1.05 0.85 0.4 0.55 0.25 1.35-0.2 0.7-0.85 1.05l-1.35 0.2" fill="url(#o)" fill-rule="evenodd"/>
</g>
<radialGradient id="r" cx="0" cy="0" r="819.2" gradientTransform="matrix(.0064 .0191 -.0368 .0123 93.65 79)" gradientUnits="userSpaceOnUse">
<stop stop-color="#fff" stop-opacity=".77255" offset="0"/>
<stop stop-color="#fff" stop-opacity="0" offset="1"/>
</radialGradient>
<linearGradient id="q" x1="-819.2" x2="819.2" gradientTransform="matrix(.0011 .0019 -.0019 .0011 52.3 117.45)" gradientUnits="userSpaceOnUse">
<stop stop-color="#729672" offset=".0039216"/>
<stop stop-color="#396039" offset="1"/>
</linearGradient>
<linearGradient id="o" x1="-819.2" x2="819.2" gradientTransform="matrix(.0011 .0019 -.0019 .0011 61.4 111.75)" gradientUnits="userSpaceOnUse">
<stop stop-color="#729672" offset=".0039216"/>
<stop stop-color="#396039" offset="1"/>
</linearGradient>
</defs>
</svg>
