<?xml version="1.0" encoding="UTF-8"?>
<svg version="1.1" viewBox="0 0 86.05 110.45" xmlns="http://www.w3.org/2000/svg" xmlns:cc="http://creativecommons.org/ns#" xmlns:dc="http://purl.org/dc/elements/1.1/" xmlns:rdf="http://www.w3.org/1999/02/22-rdf-syntax-ns#" xmlns:xlink="http://www.w3.org/1999/xlink">
<metadata>
<rdf:RDF>
<cc:Work rdf:about="">
<dc:format>image/svg+xml</dc:format>
<dc:type rdf:resource="http://purl.org/dc/dcmitype/StillImage"/>
</cc:Work>
</rdf:RDF>
</metadata>
<g transform="translate(-231.92 -145.23)">
<use transform="translate(231.95,145.25)" width="86" height="110.4" xlink:href="#a"/>
</g>
<defs>
<g id="a" transform="translate(-231.95,-145.25)">
<path d="m296.35 151.85 2.8-2.4 1.15-1.05 2.65-2.35 4 1.6-4.25 2.25-1.75 0.95-0.4 0.2-4.2 0.8m10.6 5.2-1.2 1.75-0.65 1-1.15 1.65-2.7 3.95-1.15 1.65-1.35 2-0.95 0.6-3-5.75 1.4-0.75-0.5-1.8-2.8 0.65 2.8-0.65 0.5 1.8-1.4 0.75 3 5.75-1.1 0.7-3.15 2-1.3 0.3-1.5 0.35 0.85-1.5-0.9-0.3 1-2.1q1.05-2.55 1.3-4.55l-0.1-2.55-0.55-1.55 5.85-1.35 2.05-0.5-0.85 2.3 1.85 4.5-1.85-4.5 0.85-2.3 2-0.45 1.75-0.4 1.25-0.3 0.5 1.35-0.5-1.35 1.7-0.4m-28.3 39.8-1.5 1.9-1 1.3-2.5 3.35-0.8 1-4.3 5.65-1.3 1.75-2.45 3.15 0.3-0.45 0.1-0.2 1.9-3.4 1.2-2.15 0.25 1.3-0.25-1.3 1.5-2.7 2.5-2.55 0.8-0.85 2.45-2.6 1.3-1.3 0.9-1 0.9-0.9m-46.7 54.15 2.55-2.65 1.55-1.7 1.8-1.95-0.55 2.4-1.25-0.45 1.25 0.45-0.7 2.8-4.65 1.1m17.4-22.15 1.15-1.4 1.2-1.45 2.35-2.8 1.1-1.3 1.9-2.3-0.95 2.7-0.75 2.2-0.65 0.45 0.25-1.15-0.9-0.6 0.9 0.6-0.25 1.15-2.95 2.15-1.2 0.85-0.05-0.5 0.05 0.5-1.2 0.9m40.2-55.6 1.15-2.05 0.9 0.3-0.85 1.5-1.2 0.25m9.6-23.8 1.8 1.4-1.8-1.4m1.15-1.05 2.4 1.5-2.4-1.5m-0.2 18.65-2.75-5.5 0.85-2.45-0.85 2.45 2.75 5.5m3.85-5.6-1.7-3.3 1.7 3.3m1.15-1.65-1.1-2.05 1.1 2.05m-13.4 9.3 1.75 1.55-1.2 2 1.2-2-1.75-1.55m1.3-4.55 3.7 5.8-3.7-5.8m-17.45 35.5h0.6-0.6m-1.9 3.35-0.55-0.75 0.55 0.75m3.5-4.65h-0.3 0.3m-4.85 4.75 0.55 0.9-0.55-0.9m-5.05 8.3-0.15-0.9 0.15 0.9m-12.1 10.1 0.95 0.4-0.95-0.4m-3.45 4.1 0.05 1.1-0.05-1.1m-17.2 22.35 2.45 0.15-2.45-0.15" fill="#e7d083" fill-rule="evenodd"/>
<path d="m264.4 215.6-0.4 0.6-1.35 2.15-1.2 1.85-1.95 3.05-2.95 0.9 0.35-1.5-0.8-0.35 0.8 0.35-0.35 1.5-1.2 0.35 0.75-2.2 0.95-2.7 0.65-0.95 0.65-0.9 2.55-3.8 0.7-1.1 4.85-7.2 1-1.45 3.8-5.6-1.45 7.45-1.5 2.7-1.2 2.15-1.9 3.4-0.1 0.2-0.7 1.1m27.95-55.15 0.8-1.65 0.75-1.65 1.15-2.5 0.45-0.9 0.85-1.9 4.2-0.8-3.2 3.7-0.9 1-1.4-1.1 1.4 1.1-1.55 1.8-1.2 1.4-1.35 1.5m3.15-6.7 1.85 1-1.85-1m-2.35 5.05 0.55 0.15-0.55-0.15m0.75-1.65 1 0.4-1-0.4m-26.45 47.05 0.85 4.55-0.85-4.55m-3.45 12-0.3-1.55-1.05 0.85-1.75-1.55 1.75 1.55 1.05-0.85 0.3 1.55m-2.4-3.35 1.6 1 1.95-2.75 0.05 3.2-0.05-3.2-1.95 2.75-1.6-1m4.85-7.2 0.65 5.25-0.65-5.25m-8.1 12.1 4.3 0.6-4.3-0.6m3.1 2.45-3.75-1.55 3.75 1.55" fill="#faf5e4" fill-rule="evenodd"/>
<path d="m306.95 147.65v9.4l-1.7 0.4-1.25 0.3-1.75 0.4-0.55-1.05h-0.9l-0.55 1.5 0.55-1.5h0.9l0.55 1.05-2 0.45-2.05 0.5 0.9-2.7h-1.85l-0.8-0.65 0.8 0.65h1.85l-0.9 2.7-5.85 1.35 1.35-1.5 1.6 0.4 0.9-1.3-1.3-0.5 1.3 0.5-0.9 1.3-1.6-0.4 1.2-1.4 1.55-1.8 0.9-1 0.9 0.45 4.25-0.3 1.5 2.85-1.5-2.85-4.25 0.3-0.9-0.45 3.2-3.7 0.4-0.2 2.4 1.9 1.9 4.7-1.9-4.7-2.4-1.9 1.75-0.95 2.15 1.35 2.1 4.75-2.1-4.75-2.15-1.35 4.25-2.25m-13.4 28.6-2.25 3.1-1.15 1.6-1.35 1.85-1.3 1.8-1 1.45-0.95 1.25-1.95 2.75-0.6 0.75-4.35 5.65v0.4l-0.9 0.9-0.9 1-1.3 1.3-2.45 2.6-0.8 0.85-2.5 2.55 1.45-7.45 0.75-1.05 4.05-5.6 1.5-2.1 1.4-1.95 0.9-1.2 1.45-2 2.5-3.45 1.4-2 1.4-1.9 2.95-4.1 1.2-0.25 1.5-0.35 1.3-0.3v3.9m-34.05 47-3.6 5.25-3.4 4.9-2.75 4.05-1.05 1.5-2.3 3.3-5.1 7.4-2.8 4.05-0.5-1.05-0.9-1.8 4.7-3.8 0.55-1.4-2.65 1-1.4-2.55 0.95-1.3 3.65-5.05 3.25-4.55 1.2-1.6 2-2.75 1.2-0.9 1.2-0.85 0.35 3.5 2.05-1.45-0.2-0.5 0.75-3.7-0.75 3.7 0.2 0.5-2.05 1.45-0.35-3.5 2.95-2.15 0.65-0.45 1.2-0.35 2.95-0.9m-21.65 21.45 0.45-0.6 1.4 2.55 2.65-1-0.55 1.4-4.7 3.8-0.5-0.95 0.35-1.4 1.5 0.1 0.65-0.9-1.8-0.6 1.8 0.6-0.65 0.9-1.5-0.1 0.35-1.4 0.55-2.4m52.9-71.7-2.2 3.65 1.6 4.3-1.6-4.3 2.2-3.65m0.55 6.35-1.1-3.35 2.05-3.35-2.05 3.35 1.1 3.35m-2.5 3.45-2.2-5.45 2.2 5.45m-1.3 1.8-2.3-5.35 2.3 5.35m-1.95 2.7-0.6-0.85-1.95 2.6 0.6 1-0.6-1 1.95-2.6 0.6 0.85m-2.55 3.5-1.3-1.2 0.45-1-3.2-0.7 3.2 0.7-0.45 1 1.3 1.2m-3.15-4.1 3.15 0.85 2-3.75 1.5 2.25-1.5-2.25-2 3.75-3.15-0.85m3.95-5.45 0.65 1.55-1.6 2.35-1.55-0.45 1.55 0.45 1.6-2.35-0.65-1.55m-5.15 15.2-1.6-1.4 2.95-4.85-2.45-0.35 2.45 0.35-2.95 4.85 1.6 1.4m-2.6-4.5 1.35 0.55-2.8 3.85 3.15 1.4-3.15-1.4 2.8-3.85-1.35-0.55m-4.05 5.6 2.05 1 2.8 0.2-2.8-0.2-2.05-1m-0.75 1.05 1.05 1.25-1 2.05 1 1.6-1-1.6 1-2.05-1.05-1.25m4.3 1.45h-1.4l-1.65 1.7 0.6 0.9-0.6-0.9 1.65-1.7h1.4m-23.05 33.35-0.05-1.55-1.65 0.85-0.25-4.75 0.25 4.75 1.65-0.85 0.05 1.55m3.4-4.9-0.25-0.8 0.9-3.55-0.9 3.55 0.25 0.8m-9.75 4.7v5.9l2.35-1.35 0.2 1.2-0.2-1.2-2.35 1.35v-5.9m-3.25 4.55 0.35 3.1 1.25-0.95-0.1-4.25 0.1 4.25-1.25 0.95-0.35-3.1m6.85-0.3-0.35-2.1-1.85 0.85-0.2-4.6 0.2 4.6 1.85-0.85 0.35 2.1m-10.5 5.35 1.25 1.95 5.9-2.5-5.9 2.5-1.25-1.95m2.05 6.85-3.3 3 3.3-3" fill="#f2e7bf" fill-rule="evenodd"/>
<path d="m298.75 169.05-0.7 1.05-0.8 1.1-3.7 5.05v-3.9l3.15-2 1.1-0.7 0.95-0.6m-60.25 84.65-2.55 1.95-4-2.8v-1.85l4.65-1.1 0.5 0.95 0.9 1.8-3.5 0.35-0.6-1.4 3.2-0.75-3.2 0.75 0.6 1.4 3.5-0.35 0.5 1.05m58.2-83.35 0.55 0.85-0.55-0.85m1.35-0.25-0.25-0.45 0.25 0.45" fill="#afa272" fill-rule="evenodd"/>
<path d="m317.45 146.05v0.05q-3.85 5.65-10.5 8.85v-2.65l5.65-3.2-1.2 1.45 5.9-4.4 0.15-0.1" fill-rule="evenodd"/>
<path d="m306.95 149.65q5.75-1.1 11-4.4l-0.5 0.8-0.15 0.1-3 1.8q-3.65 1.5-7.35 2.2v-0.5" fill="#fff" fill-rule="evenodd"/>
<path d="m306.95 150.15q3.7-0.7 7.35-2.2l3-1.8-5.9 4.4 1.2-1.45-5.65 3.2v-2.15" fill="#999" fill-rule="evenodd"/>
<path d="m296.35 151.85 2.8-2.4 1.15-1.05 2.65-2.35 4 1.6v2q5.75-1.1 11-4.4l-0.5 0.8v0.05q-3.85 5.65-10.5 8.85v2.1l-1.2 1.75-0.65 1-1.15 1.65-2.7 3.95-1.15 1.65-1.35 2-0.7 1.05-0.8 1.1-3.7 5.05-2.25 3.1-1.15 1.6-1.35 1.85-1.3 1.8-1 1.45-0.95 1.25-1.95 2.75-0.6 0.75-4.35 5.65v0.4l-1.5 1.9-1 1.3-2.5 3.35-0.8 1-4.3 5.65-1.3 1.75-2.45 3.15-0.4 0.65-0.4 0.6-1.35 2.15-1.2 1.85-1.95 3.05-3.6 5.25-3.4 4.9-2.75 4.05-1.05 1.5-2.3 3.3-5.1 7.4-2.8 4.05-2.55 1.95-4-2.8v-1.85l2.55-2.65 1.55-1.7 1.8-1.95 0.45-0.6 0.95-1.3 3.65-5.05 3.25-4.55 1.2-1.6 2-2.75 1.15-1.4 1.2-1.45 2.35-2.8 1.1-1.3 1.9-2.3 0.65-0.95 0.65-0.9 2.55-3.8 0.7-1.1 4.85-7.2 1-1.45 3.8-5.6 0.75-1.05 4.05-5.6 1.5-2.1 1.4-1.95 0.9-1.2 1.45-2 2.5-3.45 1.4-2 1.4-1.9 2.95-4.1 1.15-2.05 1-2.1q1.05-2.55 1.3-4.55l-0.1-2.55-0.55-1.55 0.8-1.65 0.75-1.65 1.15-2.5 0.45-0.9 0.85-1.9m10.6-1.7v2.15m0-2.15v-0.5m0 5.3v-2.65" fill="none" stroke="#000" stroke-linecap="round" stroke-linejoin="round" stroke-opacity=".4" stroke-width=".05"/>
<path d="m300.95 150.85-1.8-1.4m4.85 8.3-1.5-2.85-4.25 0.3-0.9-0.45-1.85-1m0.95 2 0.8 0.65h1.85l-0.9 2.7-0.85 2.45 2.75 5.5m0.15-8.45 0.55-1.5h0.9l0.55 1.05 1.7 3.3m1.3-4-1.9-4.7-2.4-1.9m1.75-0.95-2.4-1.5m-5.25 6.25 1.4 1.1m-1.55 1.8 1.3 0.5-0.9 1.3-1.6-0.4-0.55-0.15m-0.25 3.2 2.8-0.65 0.5 1.8-1.4 0.75 3 5.75 0.25 0.45m3.2-4.7-1.85-4.5 0.85-2.3m-5.35-1.05-1-0.4m13.05-1.15-2.1-4.75-2.15-1.35m1.3 7.85 1.1 2.05m0.15-2.35 0.5 1.35m-8.5 12.4-0.55-0.85-3.7-5.8m-0.75 8.1 1.2-2-1.75-1.55m-0.95 3.9 0.85-1.5-0.9-0.3m-0.55 9.75-1.6-4.3 2.2-3.65m-9.45 11.7 1.55 0.45 1.6-2.35-0.65-1.55m2.7 4.8-1.5-2.25-2 3.75-3.15-0.85m-0.9 1.2 3.2 0.7-0.45 1 1.3 1.2m0.6-0.75-0.6-1 1.95-2.6 0.6 0.85m-0.35-8.05 2.3 5.35m-0.9-7.25 2.2 5.45m3.45-10.15-2.05 3.35 1.1 3.35m-13.55 18.4-3.15-1.4 2.8-3.85-1.35-0.55m1.5-2.1 2.45 0.35-2.95 4.85 1.6 1.4m-1.8 2.3-2.8-0.2-2.05-1m4.15 2.5h-0.6m-2.45 2.6 0.55 0.75m3.2-4.65h0.3m-4.85 4.75-1-1.6 1-2.05-1.05-1.25m1.85 4.05-0.6-0.9 1.65-1.7h1.4m-2.7 4.35-0.55-0.9m-4 5.25 0.25 1.3m-0.25-1.3-0.85-4.55m-0.35 6.7 0.15 0.9m-6.35 2.15 1.75 1.55 1.05-0.85 0.3 1.55m1.2-1.9-0.05-3.2-1.95 2.75-1.6-1m5.5-1.95-0.65-5.25m-3.8 12.7-4.3-0.6m-3.65 7.2-0.75 3.7 0.2 0.5-2.05 1.45-0.35-3.5-0.05-1.1m-1.15 1.95 0.25 4.75 1.65-0.85 0.05 1.55m3.6-11.1-0.95-0.4m0.95 0.4 0.8 0.35-0.35 1.5-0.9 3.55 0.25 0.8m-1.85-5.3 0.9 0.6-0.25 1.15m-4.2 2.5 0.05 0.5m-3.2 3.65 0.2 4.6 1.85-0.85 0.35 2.1m-5.35-1.8 0.1 4.25-1.25 0.95-0.35-3.1m5.8 1.2-0.2-1.2-2.35 1.35v-5.9m-7.85 10.9 1.4 2.55 2.65-1-0.55 1.4-4.7 3.8-3.2 0.75 0.6 1.4 3.5-0.35 3.3-3m5.1-7.4-5.9 2.5-1.25-1.95m-3.2 3.85 1.25 0.45 1.8 0.6-0.65 0.9-1.5-0.1-2.45-0.15m23.2-29.7 3.75 1.55" fill="none" stroke="#463000" stroke-linecap="round" stroke-linejoin="round" stroke-opacity=".2" stroke-width=".05"/>
<path d="m295.5 153.75 2.75 1.45 4.25-0.3 2.6 4.9-1.15 1.65-2.25-4.35h-0.9l-1.4 3.8 1.85 4.5-1.15 1.65-2.75-5.5 1.75-5.15h-1.85l-2.2-1.75 0.45-0.9m4.8-5.35 4.55 2.85 2.1 4.75v1.05l-1.2 1.75-2.4-6.05-4.2-3.3 1.15-1.05m-4.1 14.75-1.4 0.75 3.25 6.2-0.8 1.1-4.25-6.65-0.1-2.55 2.8-0.65 0.5 1.8m-3.05-4.35 0.75-1.65 2.3 0.9-0.9 1.3-2.15-0.55m-1.55 12.7-0.9-0.3 1-2.1 1.75 1.55-3.25 5.35 1.1 3.35-1.15 1.6-1.6-4.3 3.05-5.15m-5 5.85 2.2 5.45-1.3 1.8-2.3-5.35 1.4-1.9m-1.05 9.95-0.6-0.85-1.95 2.6 0.6 1-0.6 0.75-1.3-1.2 0.45-1-3.2-0.7 0.9-1.2 3.15 0.85 2-3.75 1.5 2.25-0.95 1.25m-1.1-4.5-1.6 2.35-1.55-0.45 2.5-3.45 0.65 1.55m-8.4 9.15 1.5-2.1 2.45 0.35-2.95 4.85 1.6 1.4v0.35l-0.9 0.95-3.15-1.4 2.8-3.85-1.35-0.55m-17.7 25.8 4.3 0.6-1.2 1.85-3.75-1.55 0.65-0.9m17.8-17.7h-2l-1.65 1.7 1.15 1.65-0.8 1-1.55-2.5 1-2.05-1.05-1.25 0.75-1.05 2.05 1 3.1 0.2-1 1.3m-8.7 4.15 1.1 5.85-1.3 1.75-0.8-6.15 1-1.45m-3.75 10.45-1.05 0.85-1.75-1.55 0.7-1.1 1.6 1 1.95-2.75 0.05 3.2-1.2 1.9-0.3-1.55m-6.8 8-1.25 5.05 0.25 0.8-3.4 4.9-0.05-1.55-1.65 0.85-0.3-5.25 1.2-1.45 0.4 4.6 2.05-1.45-0.2-0.5 1-4.85-0.9-0.6 1.1-1.3 1.75 0.75m-7.15 14.8-1.05 1.5-0.2-1.2-2.35 1.35v-5.9l1.2-1.6 0.2 4.6 1.85-0.85 0.35 2.1m-5.35-1.8 0.1 4.25-1.25 0.95-0.35-3.1 1.5-2.1m-2.6 11.4 0.55-1.4-2.65 1-1.4-2.55 0.95-1.3 1.25 1.95 5.9-2.5-5.1 7.4-3.3 3-3.5 0.35-0.6-1.4 3.2-0.75 4.7-3.8m-7.3 1.3 1.55-1.7 3.05 1.05-0.65 0.9-3.95-0.25" fill="#fff" fill-opacity=".49804" fill-rule="evenodd"/>
</g>
</defs>
</svg>
