<?xml version="1.0" encoding="UTF-8"?>
<svg version="1.1" viewBox="0 0 59.795 99.248" xmlns="http://www.w3.org/2000/svg" xmlns:cc="http://creativecommons.org/ns#" xmlns:dc="http://purl.org/dc/elements/1.1/" xmlns:rdf="http://www.w3.org/1999/02/22-rdf-syntax-ns#" xmlns:xlink="http://www.w3.org/1999/xlink">
<metadata>
<rdf:RDF>
<cc:Work rdf:about="">
<dc:format>image/svg+xml</dc:format>
<dc:type rdf:resource="http://purl.org/dc/dcmitype/StillImage"/>
</cc:Work>
</rdf:RDF>
</metadata>
<g transform="translate(-248.62 -157.18)">
<use transform="translate(248.65,157.2)" width="52.650002" height="86.550003" xlink:href="#a"/>
<use transform="matrix(.8501 -.1128 .1128 .8501 261.91 183.33)" width="52.650002" height="86.550003" xlink:href="#a"/>
</g>
<defs>
<g id="a" transform="translate(25.65,43.25)">
<use transform="translate(-25.65,-43.25)" width="52.650002" height="86.550003" xlink:href="#b"/>
</g>
<g id="b" transform="translate(25.65,43.25)">
<path d="m22.15-23.45q3.45-9.9 3.05-19.8 3.35 11.9 0.45 23.1l-3.5-3.3" fill="url(#h)" fill-rule="evenodd"/>
<path d="m-2.5 16.7q10.85-21.2 24.65-40.15l3.5 3.3q-14.15 19.1-24.85 42.4l-3.3-5.55" fill="url(#g)" fill-rule="evenodd"/>
<path d="m-7 11.1 23-36.95 9.2-17.4q0.4 9.9-3.05 19.8-13.8 18.95-24.65 40.15l-4.5-5.6m7.35-5.5 0.3-0.65-0.3-0.7-0.65-0.25q-0.4 0-0.7 0.25l-0.25 0.7 0.25 0.65 0.7 0.3q0.4 0 0.65-0.3m-2 4.7q0-0.85-0.4-1.45-0.35-0.55-0.9-0.55t-0.95 0.55q-0.35 0.6-0.35 1.45t0.35 1.4q0.4 0.6 0.95 0.6t0.9-0.6q0.4-0.55 0.4-1.4" fill="url(#f)" fill-rule="evenodd"/>
<path d="m25.2-43.25-9.2 17.4-23 36.95-0.05 0.05-2.4 1.2 34.65-55.6m-50.85 81.5 2.4-3.8 2-0.5-2.3 4.3h-2.1" fill="#adacac" fill-rule="evenodd"/>
<path d="m0.35 5.6q-0.25 0.3-0.65 0.3l-0.7-0.3-0.25-0.65 0.25-0.7q0.3-0.25 0.7-0.25l0.65 0.25 0.3 0.7-0.3 0.65" fill="url(#e)" fill-rule="evenodd"/>
<path d="m-7 11.1 4.5 5.6-0.7 1.25-3.2 5.25-1.35 2.25-5.35 8.95-2.05 3.4-6.05-3.9 4.7-7.55 2.2-3.55 4.3-6.85 2.95-4.8 0.05-0.05m0.6 12.1-3.6-7.25 3.6 7.25m-1.35 2.25-6.55-2.65 6.55 2.65m-5.35 8.95-3.4-8.05 3.4 8.05" fill="#930" fill-rule="evenodd"/>
<path d="m-23.25 34.45 5.25-8.4 1.25-2.05 4.4-7 2.9-4.65 2.4-1.2-2.95 4.8-4.3 6.85-2.45 1.2 2.45-1.2-2.2 3.55-4.7 7.55-0.05 0.05-2 0.5m13.25-18.5-2.35 1.05 2.35-1.05m-6.5 10.4-1.5-0.3 1.5 0.3" fill="#c30" fill-rule="evenodd"/>
<path d="m-1.65 10.3q0 0.85-0.4 1.4-0.35 0.6-0.9 0.6t-0.95-0.6q-0.35-0.55-0.35-1.4t0.35-1.45q0.4-0.55 0.95-0.55t0.9 0.55q0.4 0.6 0.4 1.45" fill="url(#d)" fill-rule="evenodd"/>
<path d="m-15.15 37.8-3.7 5.5-4.7-5.05 2.3-4.3 0.05-0.05 6.05 3.9" fill="url(#c)" fill-rule="evenodd"/>
<path d="m0.8 22.25-4-4.3 0.7-1.25 3.3 5.55m-19.65 21.05h-2.35l-4.45-5.05h2.1l4.7 5.05" fill="#595958" fill-rule="evenodd"/>
<path d="m-7 11.1 4.5 5.6m27.7-59.95q3.35 11.9 0.45 23.1-14.15 19.1-24.85 42.4l-4-4.3-3.2 5.25-1.35 2.25-5.35 8.95-2.05 3.4-3.7 5.5h-2.35l-4.45-5.05h2.1l4.7 5.05m11.8-32.15 0.05-0.05-0.05 0.05-2.4 1.2m-0.55 3.6 3.6 7.25m-7.9-0.4-2.45 1.2m13.55-6.05 0.7-1.25m-11.8 6.1 6.55 2.65m-4.6-8.45 2.35-1.05m-11.2 17.95-0.05 0.05-2 0.5m5.25-8.4 1.5 0.3 3.4 8.05m-8.1-0.5 6.05 3.9" fill="none" stroke="#000" stroke-linecap="round" stroke-linejoin="round" stroke-opacity=".58039" stroke-width=".05"/>
<path d="m-25.65 38.25 2.4-3.8 5.25-8.4 1.25-2.05 4.4-7 2.9-4.65 34.65-55.6" fill="none" stroke="#000" stroke-linecap="round" stroke-linejoin="round" stroke-opacity=".58039" stroke-width=".05"/>
</g>
<linearGradient id="h" x1="-819.2" x2="819.2" gradientTransform="matrix(-.0013 -.0013 .0071 -.0071 26.35 -30.55)" gradientUnits="userSpaceOnUse">
<stop stop-color="#dfdfdf" offset="0"/>
<stop stop-color="#f8f8f8" offset="1"/>
</linearGradient>
<linearGradient id="g" x1="-819.2" x2="819.2" gradientTransform="matrix(-.0017 -.0029 .0226 -.0131 8.8 -6.5)" gradientUnits="userSpaceOnUse">
<stop stop-color="#dfdfdf" offset="0"/>
<stop stop-color="#f8f8f8" offset="1"/>
</linearGradient>
<linearGradient id="f" x1="-819.2" x2="819.2" gradientTransform="matrix(-.0147 .0206 -.0061 -.0044 5.25 -4.75)" gradientUnits="userSpaceOnUse">
<stop stop-color="#8c8c8c" offset="0"/>
<stop stop-color="#c8c7c6" offset="1"/>
</linearGradient>
<linearGradient id="e" x1="-819.2" x2="819.2" gradientTransform="matrix(.0012 0 0 .0012 -.3 4.95)" gradientUnits="userSpaceOnUse">
<stop stop-color="#8c8c8c" offset="0"/>
<stop stop-color="#41403f" offset="1"/>
</linearGradient>
<linearGradient id="d" x1="-819.2" x2="819.2" gradientTransform="matrix(.0016 0 0 .0024 -2.95 10.3)" gradientUnits="userSpaceOnUse">
<stop stop-color="#8c8c8c" offset="0"/>
<stop stop-color="#41403f" offset="1"/>
</linearGradient>
<linearGradient id="c" x1="-819.2" x2="819.2" gradientTransform="matrix(.0054 0 0 .0057 -19.6 38.6)" gradientUnits="userSpaceOnUse">
<stop stop-color="#8c8c8c" offset="0"/>
<stop stop-color="#bfbebd" offset="1"/>
</linearGradient>
</defs>
</svg>
