<?xml version="1.0" encoding="UTF-8"?>
<svg version="1.1" viewBox="0 0 85.05 73.65" xmlns="http://www.w3.org/2000/svg" xmlns:cc="http://creativecommons.org/ns#" xmlns:dc="http://purl.org/dc/elements/1.1/" xmlns:rdf="http://www.w3.org/1999/02/22-rdf-syntax-ns#" xmlns:xlink="http://www.w3.org/1999/xlink">
<metadata>
<rdf:RDF>
<cc:Work rdf:about="">
<dc:format>image/svg+xml</dc:format>
<dc:type rdf:resource="http://purl.org/dc/dcmitype/StillImage"/>
</cc:Work>
</rdf:RDF>
</metadata>
<g transform="translate(-232.45 -163.65)">
<use transform="translate(232.45,171.9)" width="76.300003" height="65.400002" xlink:href="#c"/>
<use transform="translate(243.5,206)" width="30.049999" height="29.65" xlink:href="#b"/>
<use transform="translate(298.3,163.65)" width="19.200001" height="13.3" xlink:href="#a"/>
</g>
<defs>
<g id="c" transform="translate(-232.45,-171.9)">
<path d="m239.75 237.05q3.75-0.75 6.45-2.15l0.7-0.45 0.3 0.6 0.4 0.85 0.05 0.05-1.85 0.5-6.05 0.6" fill="#cac55e" fill-rule="evenodd"/>
<path d="m245.75 232.75 1.15 1.7-0.7 0.45q-2.7 1.4-6.45 2.15-3.7-0.1-6.9-1.35 7.4-0.25 12-2.65l0.85-0.4 0.05 0.1" fill="#c7dba2" fill-rule="evenodd"/>
<path d="m245.7 232.65-0.85 0.4q-4.6 2.4-12 2.65l-0.15-0.05q5.05-1.7 8.4-3.85l1.8-1.4 1.35 0.9 1.45 1.35" fill="#e1ecce" fill-rule="evenodd"/>
<path d="m246.9 234.45-1.15-1.7m-12.9 2.95q3.2 1.25 6.9 1.35m7.15-2.6 0.3 0.6 0.4 0.85 0.05 0.05-1.85 0.5-6.05 0.6m5.95-4.4-1.45-1.35-1.35-0.9-1.8 1.4q-3.35 2.15-8.4 3.85l0.15 0.05" fill="none" stroke="#000" stroke-linecap="round" stroke-linejoin="round" stroke-opacity=".30196" stroke-width=".5"/>
<path d="m299.6 172.85 0.85 0.6 3 1.65 0.15 0.05 3.4 1.25 0.5 5.55-7.2 2.4 2.05-2.2 1.5-1.65q-0.75-4.4-4.25-7.65m2.5 10.9q0.6-0.8 0.25-1.6 0.35 0.8-0.25 1.6" fill="#de6c58" fill-rule="evenodd"/>
<path d="m296.25 179.3-0.3-3.25q1.3-3.55 2.65-3.9l1 0.7q3.5 3.25 4.25 7.65l-1.5 1.65q-0.4-2.25-4.2-1.6 3.8-0.65 4.2 1.6l-2.05 2.2-0.05 0.05-0.15 0.05-2.2 0.75 0.15-0.15h-2.35l-1.1-1.05 1.1 1.05h-2.2l0.35-0.3 0.4 0.3-0.4-0.3 0.75-0.75 1.85-1.75 1.7-1.7 0.85-0.8-2.75-0.45m10.75-2.9 1 0.25 0.5 2.85-1 2.45-0.5-5.55m-6.9 8.05q0.3-2.7-3.65-2.2 3.95-0.5 3.65 2.2" fill="#eaa295" fill-rule="evenodd"/>
<path d="m270.75 211.6q-6.4 6.9-14.7 14.75l-3-4.2q7.9-7.45 15.35-15.25l3.45-3.65 4.15-4.8-0.05-0.55-0.2-0.4 14.2-12.4 2-1.75 1.05-0.95 1.95-1.65 1.05-0.95 0.25-0.25v-0.25l2.75 0.45-0.85 0.8-2.15-0.75 2.15 0.75-1.7 1.7-1.85 1.75-0.75 0.75-0.35 0.3h0.4l-0.45 0.45-1.9-1.8 1.9 1.8-1.7 1.6-10.4 9.7h-1.8l-11 12.9 2.2 1.9m-27 22.05q-0.6-1-1.3-3.95 5.55-2.85 10.3-7.3v2.8l-9 8.45m46.2-48.55 1.8 2-1.8-2m7.95-0.05h0.15l-0.15 0.15v-0.15m-5.95-1.7 1.9 1.4-1.9-1.4m4.5-1.1-1.5-1.5 1.5 1.5m-1.85 1.75-1.6-1.6 1.6 1.6" fill="#a67533" fill-rule="evenodd"/>
<path d="m297.9 185.2-1.05 1-0.5 0.45-0.8 0.8-1.85 1.8-19.6 19-3.35 3.35-2.2-1.9 11-12.9h1.8l10.4-9.7 1.7-1.6 0.45-0.45h4v0.15m-41.85 41.15q-4.9 4.55-7.65 10.65-3.9-2.15-4.65-3.35l9-8.45v-2.8l0.3-0.25 3 4.2m40.8-40.15-1.15-1.15 1.15 1.15m-1.3 1.25-2.1-1.95 2.1 1.95m0.8-0.8-2.1-1.6 2.1 1.6m-2.65 2.6-1.95-2.15 1.95 2.15" fill="#6b4b21" fill-rule="evenodd"/>
<path d="m296.25 179.3-0.3-3.25q1.3-3.55 2.65-3.9" fill="none" stroke="#f9e1dd" stroke-linecap="round" stroke-linejoin="round" stroke-width=".5"/>
<path d="m308 176.65 0.5 2.85-1 2.45-7.2 2.4-0.05 0.05m-0.15 0.05-2.2 0.75-1.05 1-0.5 0.45-0.8 0.8-1.85 1.8-19.6 19-3.35 3.35q-6.4 6.9-14.7 14.75-4.9 4.55-7.65 10.65-3.9-2.15-4.65-3.35-0.6-1-1.3-3.95 5.55-2.85 10.3-7.3l0.3-0.25m36.9-37.05 2-1.75 1.05-0.95 1.95-1.65 1.05-0.95 0.25-0.25v-0.25l2.75 0.45-0.85 0.8-1.7 1.7-1.85 1.75-0.75 0.75-0.35 0.3h4.55l-0.15 0.15" fill="none" stroke="#000" stroke-linecap="round" stroke-linejoin="round" stroke-opacity=".30196" stroke-width=".5"/>
<path d="m300.25 184.4-0.15 0.05m-1.95-3.9q3.8-0.65 4.2 1.6 0.35 0.8-0.25 1.6m-6.1-3.95 2.15 0.75m-1.7 1.7q3.95-0.5 3.65 2.2m-8.35 2.65-1.8-2m4.65-1.1 1.1 1.05 1.15 1.15m-2.6-1.15-0.4-0.3-1.9-1.4m1.5 2.15-1.9-1.8m1.9 1.8 2.1 1.95m-1.3-2.4 2.1 1.6m-4.6 0.45 1.95 2.15m-0.7-6.85 1.6 1.6m0.35-3.25 1.5 1.5" fill="none" stroke="#9f3320" stroke-linecap="round" stroke-linejoin="round" stroke-width=".5"/>
<path d="m253.05 222.15q7.9-7.45 15.35-15.25l3.45-3.65 4.15-4.8-0.25-0.95 14.2-12.4" fill="none" stroke="#cd9d5c" stroke-linecap="round" stroke-linejoin="round" stroke-width=".5"/>
</g>
<g id="b" transform="translate(.25 .25)">
<path d="m27 4.15-1.65 1.6-0.5-0.45-2.55-2.45-0.3-0.35-0.9-0.85 1.7-1.65 4.2 4.15m-22.7 22.6-4.3-4.8 1.8-1.5 0.75 0.85 3.05 3.55-1.3 1.9" fill="#7b7a4f" fill-rule="evenodd"/>
<path d="m22 2.5 0.3 0.35 0.7 2.2v0.05l-1.65 1.5-0.85 0.8-0.1 0.15-0.95 1-0.95-0.5 0.95 0.5-1.2 1.3q-0.45 0-1 0.5-0.9 0.85-1.55 2.3l-0.6 1.85 0.05 0.1-2.15 1.05-0.6 0.25q-5.25 2.5-7.45 8l-1.45-3.55 18.5-17.85m-1.6 5.05-0.95-0.45 0.95 0.45" fill="#dfd6c4" fill-rule="evenodd"/>
<path d="m23.05 5.05 1 0.15-1.45 3.4-3 2.3-0.05-0.1-0.75-0.75-0.55-0.2 1.2-1.3 0.95-1 0.1-0.15 0.85-0.8 1.65-1.5 0.05-0.05m-2.7 4.05-0.9-0.55 0.9 0.55m-3.25 4.6 0.7 2.5-0.15 0.15-4.1 3.9-0.3 0.3-2.35-0.6 2.1-4.3 2.15-1.05q0.1 0.25 1.05-0.35 0.45-0.35 0.9-0.55" fill="#ddd2b9" fill-rule="evenodd"/>
<path d="m25.35 5.75 1.65 1.6-9.2 8.85-0.7-2.5q0.55-0.3 1.05-0.35 0.9-0.2 1.25-1.25l0.2-1.2 3-2.3 1.45-3.4 0.8 0.1 0.5 0.45" fill="#dbcaa8" fill-rule="evenodd"/>
<path d="m13.25 20.55-6.2 5.95-0.3-0.3 4.15-6.25 2.35 0.6" fill="#d9c7a0" fill-rule="evenodd"/>
<path d="m25.35 5.75 1.65-1.6 2.55 2.55-1.5 1.65-1.05-1-1.65-1.6m-18.3 20.75 0.95 1.1-1.6 1.55-2.05-2.3-0.05-0.1 1.3-1.9 1.15 1.35 0.3 0.3" fill="#4f4e32" fill-rule="evenodd"/>
<path d="m25.35 5.75 1.65 1.6 1.05 1 1.5-1.65-2.55-2.55-4.2-4.15-1.7 1.65 0.9 0.85 0.3 0.35 2.55 2.45 0.5 0.45m-2.3-0.7-0.05 0.05-1.65 1.5m-0.85 0.8-0.1 0.15m-0.95 1 0.9 0.55m4.5-3.8-0.8-0.1m-6.25 11 9.2-8.85m-4-2.3h0.05m-3.6 3.5-0.95-0.5m-14.2 18.7-4.3-4.8 1.8-1.5 0.75 0.85m15.1-4.95-4.1 3.9m-0.3 0.3-6.2 5.95 0.95 1.1-1.6 1.55-2.05-2.3m1.25-2-3.05-3.55m4.2 4.9 0.3 0.3m-1.45-1.65 1.15 1.35m12.7-19.1 0.95 0.45" fill="none" stroke="#000" stroke-linecap="round" stroke-linejoin="round" stroke-opacity=".30196" stroke-width=".5"/>
<path d="M 2.55,21.3 3.5,20.35 22,2.5" fill="none" stroke="#e2ded6" stroke-linecap="round" stroke-linejoin="round" stroke-width=".5"/>
</g>
<g id="a" transform="translate(-298.3,-163.65)">
<path d="m300.35 174.05-0.75-0.55-1-0.7-0.05-0.1 1.95-1.75q3.35-2.75 7.2-4.4-4.3 3.15-6.7 6.6l-0.65 0.9" fill="#cac55e" fill-rule="evenodd"/>
<path d="m300.35 174.05 0.65-0.9q2.4-3.45 6.7-6.6 4.55-2.15 9.3-2.6-9 4.8-13.25 10.6l-0.75 1.05-0.15-0.05-2.5-1.5" fill="#c7dba2" fill-rule="evenodd"/>
<path d="m317 163.95 0.25-0.05q-5.25 5.15-8 10l-1.4 2.8-1.45-0.2-0.8-0.1-2.6-0.8 0.75-1.05q4.25-5.8 13.25-10.6" fill="#e1ecce" fill-rule="evenodd"/>
<path d="m307.7 166.55q-3.85 1.65-7.2 4.4l-1.95 1.75 0.05 0.1 1 0.7 0.75 0.55m7.35-7.5q4.55-2.15 9.3-2.6l0.25-0.05q-5.25 5.15-8 10l-1.4 2.8-1.45-0.2-0.8-0.1-2.6-0.8m-0.15-0.05-2.5-1.5" fill="none" stroke="#000" stroke-linecap="round" stroke-linejoin="round" stroke-opacity=".30196" stroke-width=".5"/>
</g>
</defs>
</svg>
