<?xml version="1.0" encoding="UTF-8"?>
<svg version="1.1" viewBox="0 0 51.3 127.35" xmlns="http://www.w3.org/2000/svg" xmlns:cc="http://creativecommons.org/ns#" xmlns:dc="http://purl.org/dc/elements/1.1/" xmlns:rdf="http://www.w3.org/1999/02/22-rdf-syntax-ns#" xmlns:xlink="http://www.w3.org/1999/xlink">
<metadata>
<rdf:RDF>
<cc:Work rdf:about="">
<dc:format>image/svg+xml</dc:format>
<dc:type rdf:resource="http://purl.org/dc/dcmitype/StillImage"/>
</cc:Work>
</rdf:RDF>
</metadata>
<g transform="translate(-230.82 -122.68)">
<use transform="translate(230.85,122.7)" width="51.25" height="127.5" xlink:href="#a"/>
</g>
<defs>
<g id="a" transform="translate(25.6,63.75)">
<path d="m-1.65 20.65v3.05l-0.45-0.1q-0.3-0.75-0.6-0.5l-0.25 0.35q-0.25-0.65-0.75-0.45l-0.45 0.25-0.55-0.7 0.35-0.5-0.35 0.5q0-1.05-0.8-1.1v-1l-0.05-0.45 0.05-0.2 1.2-0.9 0.2 0.15 1.25 0.9 1.05 0.8 0.15-0.1m0.15-3.5-0.1 0.8-0.25 0.4q-0.7 0.45-1.45-1l0.15-0.75q2.3-8.6-0.7-20.6 3.85 11 2.35 20.85v0.3m-0.6 6.45-0.05-0.95 0.05 0.95m-3-3.25-0.4 0.1 0.4-0.1m0.25 0.65-0.65 0.35 0.65-0.35" fill="#55351e" fill-rule="evenodd"/>
<path d="m-3.15 16.6-0.15 0.75q0.75 1.45 1.45 1l0.05 0.7-1.05 0.9-1.25-0.9-0.25-1.95 1.2-0.5m-0.25 1.7-0.25-0.45 0.25 0.45" fill="#d6b389" fill-rule="evenodd"/>
<path d="m-1.5 17.15 0.75 1.3-0.05 1.8-0.85 0.4-0.15 0.1-1.05-0.8 1.05-0.9-0.05-0.7 0.25-0.4 0.1-0.8" fill="#b19247" fill-rule="evenodd"/>
<path d="m-1.5 17.15v-0.3q1.5-9.85-2.35-20.85 3 12 0.7 20.6" fill="none" stroke="#000" stroke-linecap="round" stroke-linejoin="round" stroke-opacity=".4" stroke-width=".25"/>
<path d="m-1.5 17.15 0.75 1.3-0.05 1.8-0.85 0.4v3.05m-0.45-0.1 0.05 0.95m0.2-6.2 0.25-0.4 0.1-0.8m-1.65-0.55-0.15 0.75q0.75 1.45 1.45 1m-1 1.6 1.05 0.8 0.15-0.1m-1.05 2.45-0.25 0.35-0.15 0.9m0.95-1.7 0.05 0.95m-3.4-3.15-0.8 0.05m2.2-1.45-0.25-1.95 1.2-0.5m-2.35 3.85 0.4-0.1m-0.4 1 0.65-0.35m0.75-1.95-0.2-0.15-1.2 0.9-0.05 0.2m0.05 1.35-0.85 0.45m1.65 0.75-0.55 0.55m1.1 0.15-0.2 0.6m0.2-0.6 0.45-0.25m-0.65-0.95-0.35 0.5m1.85-2.6-1.25-0.9" fill="none" stroke="#000" stroke-linecap="round" stroke-linejoin="round" stroke-opacity=".4" stroke-width=".25"/>
<path d="m-3.65 17.85 0.25 0.45" fill="none" stroke="#ffc" stroke-linecap="round" stroke-linejoin="round" stroke-width="1.75"/>
<path d="m0.05 27.15q1.2-14.4-5.8-31.45 7.9 15.05 8.2 30.95l0.05 0.45v1.4l-0.3 0.65q-0.75 1-2.2-0.9l0.05-1.1m3 5.45 0.75 4.7-0.65 0.15q-0.6-1.05-0.95-0.5-0.2 0.2-0.25 0.65-0.55-0.95-1.25-0.4l-0.45 0.6h-0.05l-1-0.8q-0.2-1.55-1.35-1.3v-0.2l0.8-0.85-0.8 0.85-0.25-1.4-0.1-0.65v-0.25l1.5-2 0.25 0.15 2 0.8 1.65 0.65 0.15-0.2m0.1 4.85-0.35-1.55 0.35 1.55m-5-3.6-0.55 0.25 0.55-0.25m1.05 3.15 0.45-0.95-0.45 0.95" fill="#55351e" fill-rule="evenodd"/>
<path d="m0.05 27.15-0.05 1.1q1.45 1.9 2.2 0.9l0.25 1.05-1.2 1.95-2-0.8-0.8-2.85 1.6-1.35m0.05 2.6-0.45-0.55 0.45 0.55" fill="#d6b389" fill-rule="evenodd"/>
<path d="m2.2 29.15 0.3-0.65v-1.4l1.3 1.6 0.4 2.85-1.15 1.05-0.15 0.2-1.65-0.65 1.2-1.95-0.25-1.05" fill="#b19247" fill-rule="evenodd"/>
<path d="m2.5 27.1-0.05-0.45q-0.3-15.9-8.2-30.95 7 17.05 5.8 31.45" fill="none" stroke="#000" stroke-linecap="round" stroke-linejoin="round" stroke-opacity=".4" stroke-width=".25"/>
<path d="m0.05 27.15-0.05 1.1q1.45 1.9 2.2 0.9l0.3-0.65v-1.4l1.3 1.6 0.4 2.85-1.15 1.05 0.75 4.7m-0.65 0.15 0.3 1.45m-2.2-6.75 1.65 0.65 0.15-0.2m-0.85 4.35q-0.2 0.2-0.25 0.65l-0.05 1.45m0.9-3.15 0.35 1.55m-3.9-6.1-0.25-0.15-1.5 2v0.25m0.1 0.65 0.55-0.25m1.1-2.5-0.8-2.85 1.6-1.35m-2.45 6.95-1.05 0.55m1.3 0.85-1.1 1.1m3.5 1.2 0.45-0.6m-0.45 0.6-0.25 1.05m-0.8-1.85-0.6 1.1m2.65-5.95-2-0.8m0.4 4.7-0.45 0.95m-0.55-2.35-0.8 0.85" fill="none" stroke="#000" stroke-linecap="round" stroke-linejoin="round" stroke-opacity=".4" stroke-width=".25"/>
<path d="m-0.35 29.2 0.45 0.55" fill="none" stroke="#ffc" stroke-linecap="round" stroke-linejoin="round" stroke-width="1.75"/>
<path d="m16.8-42.05q3.8-8 8.75-15.75-0.2 13.6-2.05 21.3l-1.4 4.7q-3.1 8.75-9.4 15.55l-0.7 0.25q13.6-31.75 4.8-26.05m-21.35 22.15-1.7-2.55-0.1-1q-0.8-6.9 0.7-13.7l3.8 0.35q-1.5 6.6-2.7 16.9m-0.3-20.3 0.05-0.2 1.65-4.65 0.15-0.3 3.05 2-1.4 4.5-3.5-1.35m4.1-9.8q3.15-5.95 8.7-13.65-1.75 7.65-2.5 15.05-2.1-0.8-3.9 2.1l-2.3-3.5" fill="#c1c29c" fill-rule="evenodd"/>
<path d="m12-16-8.05 2.7h-0.8l-3.65-1.05-0.7-0.5-3.35-5.05q1.2-10.3 2.7-16.9l0.5-2.05 1.4-4.5q0.7-1.95 1.5-3.15 1.8-2.9 3.9-2.1-1.2 11.3-0.1 21.85l0.05 0.35q6.8-5.4 10.4-13.5l1-2.15q8.8-5.7-4.8 26.05m-1.75-3.8 0.95-1.8-4.3 1.35 0.15 1 3.2-0.55m-9.3-2.4-2.3-2.35-0.75-0.55 0.15 1.9 2.1 2 0.8-1" fill="#888c66" fill-rule="evenodd"/>
<path d="m-5.65-37.15 0.8-3.05 3.5 1.35-0.5 2.05-3.8-0.35m2.65-8.2 2.25-4.65 2.3 3.5q-0.8 1.2-1.5 3.15l-3.05-2" fill="#f4ecd2" fill-rule="evenodd"/>
<path d="m-24.6 63.45q-0.55-0.35-0.9-1.35l16.65-51.9 0.95 1.75-4.2 11.65 4.2-11.65 0.75 1.45-17.45 50.05m27.75-76.75q-1.45-0.05-2.65-0.55l-1-0.5 3.65 1.05m-24.7 66.2 3.1-9.05-3.1 9.05m6.65-19.15 0.6-2.05-0.6 2.05" fill="#960" fill-rule="evenodd"/>
<path d="m-2.7 6-20.25 57.35-1.65 0.1 17.45-50.05-0.75-1.45-0.95-1.75 1.8-5.55 0.85 0.7 1.4 0.6 1.3 0.1 0.8-0.05m-4.6 4.25-0.6 1.7 0.6-1.7" fill="#724701" fill-rule="evenodd"/>
<path d="m-7.05 4.65-0.9-1 1.4-6.45q-0.65 3.65 1.55 6.95l-1.2 1.2-0.85-0.7m3.4-16.45 1.8-3.65 0.65 0.6 0.7 0.5 1 0.5q2.45 3.75-0.85 9.45l-0.2-0.35q-3.5-3.4-3.1-7.05" fill="#d2c520" fill-rule="evenodd"/>
<path d="m-6.55-2.8 0.1-0.25q1.2-5.05 2.8-8.75-0.4 3.65 3.1 7.05l0.2 0.35q-0.4 6.45-4.65 8.55-2.2-3.3-1.55-6.95" fill="#e1d53c" fill-rule="evenodd"/>
<path d="m1.15 0.4-0.05 0.25-2.4 4.95-1.4 0.4-0.8 0.05-1.5-1.9q4.25-2.1 4.65-8.55 1.9 2.7 1.5 4.8" fill="#9f8d28" fill-rule="evenodd"/>
<path d="m3.95-13.3 1.1-0.1q-1.1 7.15-3.9 13.8 0.4-2.1-1.5-4.8 3.3-5.7 0.85-9.45 1.2 0.5 2.65 0.55h0.8m-8.95 17.45 1.5 1.9-1.3-0.1-1.4-0.6 1.2-1.2" fill="#8f8025" fill-rule="evenodd"/>
<path d="m16.8-42.05q3.8-8 8.75-15.75-0.2 13.6-2.05 21.3l-1.4 4.7q-3.1 8.75-9.4 15.55l-0.7 0.25-8.05 2.7 1.1-0.1q-1.1 7.15-3.9 13.8l-0.05 0.25-2.4 4.95-1.4 0.4-20.25 57.35-1.65 0.1q-0.55-0.35-0.9-1.35l16.65-51.9 1.8-5.55-0.9-1 1.4-6.45 0.1-0.25q1.2-5.05 2.8-8.75l1.8-3.65 0.65 0.6-3.35-5.05-1.7-2.55-0.1-1q-0.8-6.9 0.7-13.7l0.8-3.05 0.05-0.2 1.65-4.65 0.15-0.3 2.25-4.65q3.15-5.95 8.7-13.65-1.75 7.65-2.5 15.05-1.2 11.3-0.1 21.85l0.05 0.35q6.8-5.4 10.4-13.5l1-2.15m-6.55 22.25-3.2 0.55-0.15-1 4.3-1.35-0.95 1.8m-7.1 6.5h0.8m-3-8.9-2.3-2.35-0.75-0.55 0.15 1.9 2.1 2 0.8-1m2.2 8.9q-1.45-0.05-2.65-0.55l-1-0.5 3.65 1.05m-3.5 8.9q1.9 2.7 1.5 4.8m-2.35-15.25 0.7 0.5m-3.15 2.55q-0.4 3.65 3.1 7.05l0.2 0.35m-4.65 8.55 1.5 1.9 0.8-0.05m-3.5-0.65 1.4 0.6 1.3 0.1m-3.55-1.4 0.85 0.7m1.2-1.2q-2.2-3.3-1.55-6.95" fill="none" stroke="#3b3625" stroke-linecap="round" stroke-linejoin="round" stroke-opacity=".72157" stroke-width=".25"/>
<path d="m-7.9 11.95 0.6-1.7m-0.6 1.7-4.2 11.65m-2.2 8.1-0.6 2.05m-3.55 10.1-3.1 9.05" fill="none" stroke="#b68c49" stroke-linecap="round" stroke-linejoin="round" stroke-width=".25"/>
</g>
</defs>
</svg>
