<?xml version="1.0" encoding="UTF-8"?>
<svg version="1.1" viewBox="0 0 359.13 295.92" xmlns="http://www.w3.org/2000/svg" xmlns:cc="http://creativecommons.org/ns#" xmlns:dc="http://purl.org/dc/elements/1.1/" xmlns:rdf="http://www.w3.org/1999/02/22-rdf-syntax-ns#" xmlns:xlink="http://www.w3.org/1999/xlink">
<metadata>
<rdf:RDF>
<cc:Work rdf:about="">
<dc:format>image/svg+xml</dc:format>
<dc:type rdf:resource="http://purl.org/dc/dcmitype/StillImage"/>
</cc:Work>
</rdf:RDF>
</metadata>
<g transform="translate(-27.355 -17.967)">
<use transform="matrix(.7722 0 0 .8711 27.356 17.988)" width="465.04999" height="339.64999" xlink:href="#a"/>
</g>
<defs>
<g id="a" transform="translate(232.5,169.8)">
<use transform="translate(-232.5,-169.8)" width="465.04999" height="339.64999" xlink:href="#b"/>
</g>
<g id="b" transform="translate(232.5,169.8)">
<path d="m145.4-130.45q-27.6 1.05-49 11.3l-3.45-5.85q19.7-7 42.5-7.45l9.95 2" fill="#aa8c48" fill-rule="evenodd"/>
<path d="m96.4-119.15 3.45 5.85q-0.7 4.75-9.75 9.55l-22.85-61.6-0.7-4.45 26.4 44.8 3.45 5.85m-59.1 33.45-30.8-30.45 35.9 24.75-5.1 5.7m164.7 13.8-45.55 15.4q-8-3.15-7.6-12.4l83.6-13.8-30.45 10.8m-41.9 66.45v-0.05q-0.7-4.9 2.5-10.2l2-2.85 50.1 45.3-54.6-32.2m-31.85 14.3-2.55 33.5-6.55-31.1q4.65-1.1 9.1-2.4" fill="#666" fill-rule="evenodd"/>
<path d="m90.1-103.75q9.05-4.8 9.75-9.55l-3.45-5.85q21.4-10.25 49-11.3 10.15 2.25 19.6 5.3l6 2.05 4.6 3.15q-33.8 9.2-54.95 26.65 26.55-16.65 60.15-22.55l5.85 5.5q4.3 4.65 6.5 9.35l-23.4 19.8-12.85 0.7q-5.65 0.65-8.05 11.6-30.2 21.15-65.85 28.5-2.9-5.2-9.05-10.35-8.35-5-23.5-7.35 20.35-23.8 43.85-44.05-25.7 19.8-46.7 43.2-4.45-1.15-11.15-1.25 13.6-27.7 40.3-45.5 1.6 4 13.35 1.95m-39.65 66.65v0.05-0.05m24.75 53.2q7.4-3.7 9.6-9.8 38.9 1.1 77.8-22-3.2 5.3-2.5 10.2l-0.05 0.05q-14 9.05-31.8 14.3-4.45 1.3-9.1 2.4l-7.4 1.5q-16.85 3.1-36.55 3.35m117.85-56.6q-6.35 11.05-14.8 20l-2.7-3.55h0.05l17.45-16.45m-17.45 16.45h-0.05 0.05" fill="#a47617" fill-rule="evenodd"/>
<path d="m90.1-103.75q-11.75 2.05-13.35-1.95l-1.8-11.25-7.7-48.4 22.85 61.6m58.75 34.85q2.4-10.95 8.05-11.6l12.85-0.7 30.55-1.6 32.25 0.05-0.1 0.05-83.6 13.8m-142.35-47.25 42 18.6-6.1 6.15-35.9-24.75m171.75 95.65 36.5 47.3-0.05-0.05-50.1-45.3 0.55-0.7q5.5-6.85 10.4-4.8l2.7 3.55m-52.55 62.85-13.95-29.6 7.4-1.5 6.55 31.1" fill="#999" fill-rule="evenodd"/>
<path d="m76.75-105.7q-26.7 17.8-40.3 45.5 6.7 0.1 11.15 1.25l-0.25 20.45-9.55-0.3-1.5 0.8-11.55-20.95h0.05q11.85-19.35 27.75-37.95-17.4 18.15-30.95 39.65l-0.05 0.05 12.15 20.6-17 9.45q-5.05-11-3.45-21.95 10.8-20.95 24.05-36.6l5.1-5.7 6.1-6.15q12.3-11.65 26.45-19.4l1.8 11.25m-26.3 47.6q15.15 2.35 23.5 7.35 6.15 5.15 9.05 10.35 1.4 2.55 2.05 5.1 2.8 8.3 3.2 16.85l-15.05-0.05 15 6.45q-0.5 7.05-2.55 14.3-0.2 2.15-0.85 4.05-2.2 6.1-9.6 9.8-24.7-4.2-30.95-9.95l14.75-8.95q5.4-5.7 6.5-12.2 0.85-5.7-1.8-11.05-1.25-2.45-3.2-4.8l-5.45-3.75-3.65-2-0.95-0.5v-21" fill="#ac8f2b" fill-rule="evenodd"/>
<path d="m47.6-58.95q21-23.4 46.7-43.2-23.5 20.25-43.85 44.05v21.05l-3.1-1.45 0.25-20.45m35.4 18.55q35.65-7.35 65.85-28.5-0.4 9.25 7.6 12.4l45.55-15.4 0.15 1.1q0.7 8.65-1.5 14.35-3.3 8.45-7.6 15.95l-17.45 16.45h-0.05q-4.9-2.05-10.4 4.8l-0.55 0.7-2 2.85q-38.9 23.1-77.8 22 0.65-1.9 0.85-4.05 2.05-7.25 2.55-14.3 54.95-13.45 86-43.3-31.95 22.5-85.95 36.9-0.4-8.55-3.2-16.85-0.65-2.55-2.05-5.1m86.75-40.8 23.4-19.8q3.95 7.45 6.25 14.75l0.9 3.45-30.55 1.6m11.05-34.65q-33.6 5.9-60.15 22.55 21.15-17.45 54.95-26.65-3.15 4.25 5.2 4.1m-159.25 58.65 0.05-0.05q13.55-21.5 30.95-39.65-15.9 18.6-27.75 37.95h-0.05l11.55 20.95-2.6 1.4-12.15-20.6" fill="#7b5911" fill-rule="evenodd"/>
<path d="m186.65-110.35-5.85-5.5q-8.35 0.15-5.2-4.1l-4.6-3.15-6-2.05 15.55-9.75 16.55 5.4-13.5 7.75 17.95-5.1 8.15 4.85-23.05 11.65m-150.35 72.35 1.5-0.8 9.55 0.3 3.1 1.45 0.95 0.45 3.65 2q-85.35 49.7-259.4 144.2l15.6 18.6-21.45 10.45 23.8-4.15q2.65 3.85 3.3 17.35-0.55 10.3-6.45 17.9-16.95 1.05-33.9-8.25l-7.05-17.4q-4.9-16.6 2.35-31.95 168.25-94.65 244.85-139.3l17-9.45 2.6-1.4" fill="#c68835" fill-rule="evenodd"/>
<path d="m-188.75 128.2-15.6-18.6q174.05-94.5 259.4-144.2l5.45 3.75q1.95 2.35 3.2 4.8-45 32.3-95.4 63.8l-157.05 90.45m385.85-257.7q-2.2 2 4.45 2.65l-17.95 5.1 13.5-7.75" fill="#985101" fill-rule="evenodd"/>
<path d="m193.15-101q-2.2-4.7-6.5-9.35l23.05-11.65q7.2 11.7 4.95 19.3-0.35 8.2-9.25 14.95l-6 1.5q-2.3-7.3-6.25-14.75m-382.7 270.75q5.9-7.6 6.45-17.9-0.65-13.5-3.3-17.35l154.7-96.75q50.4-31.5 95.4-63.8 2.65 5.35 1.8 11.05-1.1 6.5-6.5 12.2l-14.75 8.95q-78.15 47.55-233.8 163.6" fill="#7c4201" fill-rule="evenodd"/>
<path d="m88.2-12.05-15-6.45 15.05 0.05q54-14.4 85.95-36.9-31.05 29.85-86 43.3" fill="#45320a" fill-rule="evenodd"/>
<path d="m-186.4 134.5-23.8 4.15 21.45-10.45 157.05-90.45-154.7 96.75" fill="#5c3101" fill-rule="evenodd"/>
<path d="m96.4-119.15 3.45 5.85q-0.7 4.75-9.75 9.55-11.75 2.05-13.35-1.95l-1.8-11.25-7.7-48.4m81.6 96.45q2.4-10.95 8.05-11.6l12.85-0.7m23.4-19.8q-2.2-4.7-6.5-9.35l-5.85-5.5m-5.2-4.1-4.6-3.15-6-2.05q-9.45-3.05-19.6-5.3l-9.95-2q-22.8 0.45-42.5 7.45l-26.4-44.8 0.7 4.45m29.15 46.2-3.45-5.85m-86.45 8.85 42 18.6q12.3-11.65 26.45-19.4m-32.55 25.55 6.1-6.15m-12.2 59.55 1.5-0.8m-21.1 11.65q-5.05-11-3.45-21.95 10.8-20.95 24.05-36.6l-30.8-30.45m35.9 24.75-5.1 5.7m-3.6 49.1-17 9.45q-76.6 44.65-244.85 139.3m279.55-148.75-0.95-0.45m-16.75 0.45 2.6-1.4m15.1 1.4-0.95-0.5m8.55 34.3-14.75 8.95q6.25 5.75 30.95 9.95m126.8-88-45.55 15.4q-8-3.15-7.6-12.4m83.6-13.8 0.1-0.05-32.25-0.05-30.55 1.6m-9.65 75.7-0.05 0.05h0.05v-0.05q-0.7-4.9 2.5-10.2l2-2.85 0.55-0.7q5.5-6.85 10.4-4.8l2.7 3.55 36.5 47.3-0.05-0.05-54.6-32.2m37-124.05q-2.2 2 4.45 2.65l8.15 4.85q7.2 11.7 4.95 19.3-0.35 8.2-9.25 14.95l-6 1.5 0.9 3.45m-35.3-42.35 15.55-9.75 16.55 5.4m-21.5 9.55q-3.15 4.25 5.2 4.1m21.2 43.95 0.15 1.1q0.7 8.65-1.5 14.35-3.3 8.45-7.6 15.95-6.35 11.05-14.8 20m54.2-62.2-30.45 10.8m-8.85-29.1q3.95 7.45 6.25 14.75m-71.15 95.1-2.55 33.5-13.95-29.6q-16.85 3.1-36.55 3.35m43.95-4.85-7.4 1.5m16.5-3.9q-4.45 1.3-9.1 2.4m40.9-16.7q-14 9.05-31.8 14.3m-84-2.7q-78.15 47.55-233.8 163.6" fill="none" stroke="#000" stroke-linecap="round" stroke-linejoin="round" stroke-opacity=".47059" stroke-width=".05"/>
<path d="m37.8-38.8 9.55 0.3m7.7 3.9-3.65-2m-0.95-0.45-3.1-1.45m7.7 3.9 5.45 3.75q1.95 2.35 3.2 4.8 2.65 5.35 1.8 11.05-1.1 6.5-6.5 12.2" fill="none" stroke="#000" stroke-linecap="round" stroke-linejoin="round" stroke-opacity=".47059" stroke-width="3.5"/>
<path d="m175.55-24.05h0.05" fill="none" stroke="#0f0" stroke-linecap="round" stroke-linejoin="round" stroke-width=".05"/>
<path d="m-228.15 112.15q-7.25 15.35-2.35 31.95l7.05 17.4q16.95 9.3 33.9 8.25" fill="none" stroke="#000" stroke-linecap="round" stroke-linejoin="round" stroke-opacity=".47059" stroke-width=".05"/>
</g>
</defs>
</svg>
