<?xml version="1.0" encoding="UTF-8" standalone="no"?>
<!DOCTYPE svg PUBLIC "-//W3C//DTD SVG 1.1//EN" "http://www.w3.org/Graphics/SVG/1.1/DTD/svg11.dtd">
<svg width="100%" height="100%" viewBox="0 0 81 105" version="1.1" xmlns="http://www.w3.org/2000/svg" xmlns:xlink="http://www.w3.org/1999/xlink" xml:space="preserve" xmlns:serif="http://www.serif.com/" style="fill-rule:evenodd;clip-rule:evenodd;stroke-linecap:round;stroke-linejoin:round;">
    <g transform="matrix(1,0,0,1,-392.45,-101.4)">
        <g>
            <g id="shape0">
                <path d="M406.65,107.9L405,102.2L404.95,102L404.9,101.9L407.15,102.1L408.45,102.65L409.95,103.55C411.05,104.25 412.3,105.183 413.7,106.35L416.05,108.45L418.4,110.7L420.35,112.7L423.05,115.5L424.45,117L423.05,115.5L420.35,112.7L418.4,110.7L416.05,108.45L413.7,106.35C412.3,105.183 411.05,104.25 409.95,103.55L408.45,102.65L409.95,103.5C411.05,104.2 412.3,105.133 413.7,106.3L416.05,108.35L418.4,110.6L420.35,112.55L423.05,115.35L424.45,116.85L424.45,116.9L424.5,116.95L424.45,117C422.35,118.533 420.633,120.5 419.3,122.9L417.9,125.95L416.9,128.95C416.033,132.183 415.6,135.233 415.6,138.1C415.567,140.967 415.433,143.15 415.2,144.65C414.933,146.117 414.75,147.7 414.65,149.4L414.7,147.7L414.5,150.55L414.1,154.65L414.1,155L414,155.75L413.8,157.5L414.4,157.7C415.733,158.267 417.017,158.85 418.25,159.45C419.917,160.217 421.467,161.017 422.9,161.85L426.65,164.15C428.417,165.35 429.95,166.567 431.25,167.8C432.25,168.767 432.983,169.65 433.45,170.45L433.6,170.7L433.65,170.8C434.083,171.667 434.15,172.417 433.85,173.05C433.417,173.85 432.35,174.45 430.65,174.85L429.5,172.55L428.2,170.5L427.4,169.35C426.5,168.183 425.55,167.217 424.55,166.45C422.617,164.883 420.483,164.017 418.15,163.85L415.55,162.8L415.4,162.75L412.9,161.85L412.1,165.1C411.7,166.967 411.417,171.433 411.25,178.5L411.15,178.75L411.1,180L411.45,180.75L412.1,181.95C413.333,184.017 415.017,185.967 417.15,187.8C419.417,189.733 421.8,191.45 424.3,192.95C428.5,195.45 433.033,197.35 437.9,198.65C442.667,199.883 447.5,200.55 452.4,200.65L455.55,200.65C449.517,204.55 442.85,206.167 435.55,205.5C428.15,204.833 421.1,202.967 414.4,199.9C412.3,198.933 410.267,197.867 408.3,196.7C402.967,193.567 398.167,189.7 393.9,185.1L393.15,184.3L392.95,184C393.217,183.2 393.533,182.417 393.9,181.65C395.3,178.617 397.1,175.767 399.3,173.1L399.1,172.15C400.9,169.95 402.5,167.733 403.9,165.5L406.05,161.8C408.183,157.733 409.717,153.583 410.65,149.35C411.35,146.117 411.8,142.683 412,139.05L412.05,138.25L412.2,138.25L411.75,132.9L411.25,128.95C410.75,125.517 410.083,121.933 409.25,118.2L408.45,114.75L407.2,109.75L406.65,107.9M412.2,147.7L412.3,141.75L412.2,138.75L412.2,138.25L412.2,138.75L412.3,141.75L412.2,147.7M412.3,111.1L411.6,111L412.3,111.1L412.2,111.6L412.25,113.15L412.35,113.55L412.65,114.45C413.05,115.417 413.6,116.183 414.3,116.75L415,117.15L416.3,117.2L416.5,117.1C416.767,115.767 416.717,114.683 416.35,113.85L416.55,114.2L417.35,116.95L418.05,116.8L418.05,114.25C418.083,112.617 417.617,111.15 416.65,109.85C415.85,108.783 414.75,108.333 413.35,108.5L411.9,109.65L413.35,108.5C414.75,108.333 415.85,108.783 416.65,109.85C417.617,111.15 418.083,112.617 418.05,114.25L418.05,116.8L417.35,116.95L416.55,114.2L416.35,113.85L416.1,113.5C415.5,112.6 414.833,111.967 414.1,111.6C413.467,111.267 412.867,111.083 412.3,111.05L412.3,111.1M412.2,138.75L412.15,138.25L412.2,138.75"/>
                <path d="M408.45,102.65L407.15,102.1L404.9,101.9L404.95,102L405,102.2L406.65,107.9L407.2,109.85L408.45,114.9L409.25,118.45C410.083,122.217 410.75,125.85 411.25,129.35L411.75,133.35L412.15,138.25L412.2,138.75L412.3,141.75L412.2,147.7M412.2,138.25L412.2,138.75M412.05,138.25L412,139.05C411.8,142.683 411.35,146.117 410.65,149.35C409.717,153.583 408.183,157.733 406.05,161.8L403.9,165.5C402.5,167.733 400.9,169.95 399.1,172.15L399.3,173.1C397.1,175.767 395.3,178.617 393.9,181.65C393.533,182.417 393.217,183.2 392.95,184L393.15,184.3L393.9,185.1C398.167,189.7 402.967,193.567 408.3,196.7C410.267,197.867 412.3,198.933 414.4,199.9C421.1,202.967 428.15,204.833 435.55,205.5C442.85,206.167 449.517,204.55 455.55,200.65L452.4,200.65C447.5,200.55 442.667,199.883 437.9,198.65C433.033,197.35 428.5,195.45 424.3,192.95C421.8,191.45 419.417,189.733 417.15,187.8C415.017,185.967 413.333,184.017 412.1,181.95L411.45,180.75L411.1,180L411.15,178.75L411.25,178.5C411.417,171.433 411.7,166.967 412.1,165.1L412.9,161.85L415.4,162.75L415.55,162.8L418.15,163.85C420.483,164.017 422.617,164.883 424.55,166.45C425.55,167.217 426.5,168.183 427.4,169.35L428.2,170.5L429.5,172.55L430.65,174.85C432.35,174.45 433.417,173.85 433.85,173.05C434.15,172.417 434.083,171.667 433.65,170.8L433.6,170.7L433.45,170.45C432.983,169.65 432.25,168.767 431.25,167.8C429.95,166.567 428.417,165.35 426.65,164.15L422.9,161.85C421.467,161.017 419.917,160.217 418.25,159.45C417.017,158.85 415.733,158.267 414.4,157.7L413.8,157.5L414,155.75L414.1,155L414.1,154.65L414.5,150.55L414.7,147.7M414.65,149.4C414.75,147.7 414.933,146.117 415.2,144.65C415.433,143.15 415.567,140.967 415.6,138.1C415.6,135.233 416.033,132.183 416.9,128.95L417.9,125.95L419.3,122.9C420.633,120.5 422.35,118.533 424.45,117L423.05,115.5L420.35,112.7L418.4,110.7L416.05,108.45L413.7,106.35C412.3,105.183 411.05,104.25 409.95,103.55L408.45,102.65M424.45,116.85L424.45,116.9L424.5,116.95L424.45,117" style="fill:none;fill-rule:nonzero;stroke:#645f26;stroke-width:1px;"/>
                <path d="M416.35,113.85L416.55,114.2L417.35,116.95L418.05,116.8L418.05,114.25C418.083,112.617 417.617,111.15 416.65,109.85C415.85,108.783 414.75,108.333 413.35,108.5L411.9,109.65M411.6,111L412.3,111.1L412.3,111.05C412.867,111.083 413.467,111.267 414.1,111.6C414.833,111.967 415.5,112.6 416.1,113.5L416.35,113.85L415.1,112.45C414.333,111.717 413.4,111.267 412.3,111.1L412.2,111.6L412.25,113.15L412.35,113.55L412.65,114.45C413.05,115.417 413.6,116.183 414.3,116.75L415,117.15L416.3,117.2L416.5,117.1C416.767,115.767 416.717,114.683 416.35,113.85" style="fill:none;fill-rule:nonzero;stroke:#645f26;stroke-width:1px;"/>
                <path d="M408.45,114.75L407.2,109.75L407.15,102.1C407.95,102.367 408.883,102.833 409.95,103.5L409.7,106.15L410.7,106.65L410.8,109.9L409.8,111.55L408.45,114.75" style="fill:#dcdb3a;"/>
                <path d="M413.7,106.3L416.05,108.35C416.05,109.217 415.917,110 415.65,110.7L415.2,110.35C414.5,109.817 413.867,109.667 413.3,109.9L412.85,110.15L413.7,106.3M412.15,113.55L412.25,113.15L412.35,113.55L412.15,113.55" style="fill:#afaf1f;"/>
                <path d="M407.2,109.75L404.9,101.9L407.15,102.1L407.2,109.75" style="fill:#aaaa1e;"/>
                <path d="M426.65,164.15C426.45,164.917 426.45,165.633 426.65,166.3L429.75,168.65L430.35,169.05L430.9,169.85C431.167,170.817 431.833,171.133 432.9,170.8L433.6,170.7C434.6,172.7 433.6,174.05 430.6,174.75L429.5,172.55C429.7,171.35 429.4,170.283 428.6,169.35C428.333,169.017 428.05,168.933 427.75,169.1L427.35,169.25C426.45,168.083 425.5,167.117 424.5,166.35L424.4,165.7C424.267,164.433 423.5,163.4 422.1,162.6L420.9,161.85L418.55,161C418.217,160.933 418.05,160.8 418.05,160.6L418.25,159.45C419.917,160.217 421.467,161.017 422.9,161.85L426.65,164.15" style="fill:#d0c539;"/>
                <path d="M407.8,179.8L407,179.45L403.35,177.55C402.85,177.217 402.4,176.883 402,176.55L408.3,164.4L408.3,163.9L408.6,163.5L408.6,163L408.9,162.6L408.9,162.1L409.85,158.75L410.65,158.6L411,156.8C411.833,156.8 412.55,156.583 413.15,156.15C413.65,155.783 413.95,155.367 414.05,154.9L413.95,155.65L413.75,157.45L414.4,157.7L413,158.85L412.25,159.75L418.1,163.75L412.85,161.75L412.55,162.75L411.2,163.25L407.8,179.8" style="fill:#cdb636;"/>
                <path d="M411,156.8L410.65,158.6L409.85,158.75L408.6,158.95L408,161.25L407.1,162.25L406.05,161.8C408.183,157.733 409.717,153.583 410.65,149.35C411.383,145.883 411.85,142.217 412.05,138.35L411.75,132.9L412.15,124.4L411.85,123.9L411.75,119.65L410.85,119.05L411.45,114.6L412.15,113.55L412.35,113.55L412.65,114.45C413.05,115.417 413.6,116.183 414.3,116.75L415,117.15L415,117.65L414.7,118.05L413.65,126.15L415,127L414.35,143.3L413,143.4L412.85,143.4L413,147.7L413.1,147.7L413.1,147.95L412.3,149.2L411.75,149.5L412.85,150.3L411.85,153.65L411.85,154.15L411.55,154.6L411.55,155.1L411.25,155.6L411,156.8M416.05,108.35L418.4,110.6L417,112.9L416.95,112.7C416.617,111.9 416.183,111.233 415.65,110.7C415.917,110 416.05,109.217 416.05,108.35M433.6,170.7L432.9,170.8C431.833,171.133 431.167,170.817 430.9,169.85L430.35,169.05L429.75,168.65L426.65,166.3C426.45,165.633 426.45,164.917 426.65,164.15C428.417,165.35 429.95,166.567 431.25,167.8C432.383,168.867 433.167,169.833 433.6,170.7" style="fill:#e4d99a;"/>
                <path d="M411.75,132.9L411.25,128.95C410.75,125.517 410.083,121.933 409.25,118.2L408.45,114.75L409.8,111.55L410.8,109.9L410.7,106.65L409.7,106.15L409.95,103.5C411.05,104.2 412.3,105.133 413.7,106.3L412.85,110.15C412.517,110.45 412.3,110.933 412.2,111.6L412.25,113.15L412.15,113.55L411.45,114.6L410.85,119.05L411.75,119.65L411.85,123.9L412.15,124.4L411.75,132.9M420.35,112.55L423.05,115.35L419.55,118.85L419.25,122.8L417.85,125.85L416.1,124.6L415.85,117.65L417.35,117.65L419,114.4L419.7,113.75L420.35,112.55M427.35,169.25L427.75,169.1C428.05,168.933 428.333,169.017 428.6,169.35C429.4,170.283 429.7,171.35 429.5,172.55L427.35,169.25" style="fill:#d1c20e;"/>
                <path d="M407.8,179.8L411.2,163.25L412.55,162.75C411.617,165.817 411.167,171.033 411.2,178.4L410.05,179.7L407.8,179.8M418.1,163.75L412.25,159.75L413,158.85L414.4,157.7C415.733,158.267 417.017,158.85 418.25,159.45L418.05,160.6C418.05,160.8 418.217,160.933 418.55,161L420.9,161.85L422.1,162.6C423.5,163.4 424.267,164.433 424.4,165.7L424.5,166.35C423.233,165.35 421.9,164.633 420.5,164.2L418.1,163.75M414.05,154.9C413.95,155.367 413.65,155.783 413.15,156.15C412.55,156.583 411.833,156.8 411,156.8L411.25,155.6L411.55,155.1L411.55,154.6L411.85,154.15L411.85,153.65L412.85,150.3L411.75,149.5L412.3,149.2L413.1,147.95L413.1,147.7L413,147.7L412.85,143.4L413,143.4L414.35,143.3L415,127L413.65,126.15L414.7,118.05L415,117.65L415,117.15L416.3,117.2C416.867,116.967 417.217,116.4 417.35,115.5C417.483,114.667 417.367,113.8 417,112.9L418.4,110.6L420.35,112.55L419.7,113.75L419,114.4L417.35,117.65L415.85,117.65L416.1,124.6L417.85,125.85L416.85,128.95C415.983,132.15 415.533,135.85 415.5,140.05C415.5,141.517 415.333,143.1 415,144.8C414.7,146.5 414.617,147.55 414.75,147.95L414.65,147.7L414.45,150.45L414.05,154.55L414.05,154.9M409.85,158.75L408.9,162.1L408.9,162.6L408.6,163L408.6,163.5L408.3,163.9L408.3,164.4L402,176.55L400.7,175.35L399.65,173.95L399.1,172.15C400.9,169.95 402.5,167.733 403.9,165.5L406.05,161.8L407.1,162.25L408,161.25L408.6,158.95L409.85,158.75M423.05,115.35L424.45,116.85C422.35,118.383 420.617,120.367 419.25,122.8L419.55,118.85L423.05,115.35" style="fill:#b7a904;"/>
                <path d="M403.4,177.65L402.05,176.65L401.45,176.15L400.75,175.45L399.7,174.05L399.15,172.25C400.95,170.05 402.567,169.35 404,170.15C405.433,170.95 406.883,171.15 408.35,170.75C409.783,170.35 410.933,166.25 411.8,158.45C412.667,150.65 413.1,144.367 413.1,139.6L413.1,138.25L413.55,133.75C414.683,134.017 415.7,132.533 416.6,129.3L416.65,128.95C418.817,120.783 419.3,115.6 418.1,113.4L417.1,111.8L416.75,111.05C416.35,110.25 415.867,109.7 415.3,109.4L413.1,107.1C411,105.067 409.033,103.733 407.2,103.1C405.367,102.467 404.617,102.1 404.95,102L405.45,101.9L407.2,102.2C408,102.467 408.933,102.933 410,103.6L413.75,106.4L416.1,108.45L418.45,110.7L420.4,112.65L423.1,115.45L424.5,116.95C422.4,118.483 420.667,120.467 419.3,122.9L417.9,125.95L416.9,128.95C416.033,132.183 415.533,135.417 415.4,138.65L414.85,146.3L414.65,148.4L414.5,150.55L414.1,154.65L414.1,155L414,155.75L413.8,157.55L414.45,157.8L416.1,158.55C416.833,158.883 417.583,159.783 418.35,161.25C419.117,162.683 421.667,164.617 426,167.05C430.3,169.483 432.55,170.5 432.75,170.1C432.917,169.7 433.217,169.933 433.65,170.8C434.083,171.667 434.15,172.417 433.85,173.05C433.417,173.85 432.35,174.45 430.65,174.85L429.55,172.65L427.4,169.35C426.5,168.183 425.55,167.217 424.55,166.45C422.617,164.883 420.483,164.017 418.15,163.85L415.55,162.8L415.4,162.75L412.9,161.85L412.1,165.1C411.7,166.967 411.417,171.433 411.25,178.5L410.45,179.5L410.1,179.8L407.85,179.9L407.05,179.55L407,179.55C405.6,178.917 404.4,178.283 403.4,177.65" style="fill:#9f8804;fill-opacity:0.72;"/>
                <path d="M409.6,168.55C409.767,170.75 410.35,172.35 411.35,173.35L411.1,180C409.9,177.367 409.383,174.533 409.55,171.5L409.6,168.55" style="fill:#847420;"/>
                <path d="M394.4,185.65C394.433,183.683 394.917,181.783 395.85,179.95C399.85,174.317 403.95,169.1 408.15,164.3L408.3,164.15L408.65,164.25L408.45,164.7L408.4,164.75C407.2,167.617 406.733,170.517 407,173.45C407.1,174.45 407.317,175.417 407.65,176.35C408.383,178.317 408.85,180.35 409.05,182.45L409.15,184.95C411.617,186.583 413.45,188.767 414.65,191.5C415.75,194.1 417.8,195.217 420.8,194.85L422.5,195.9L424.65,198.1C425.45,199.2 426.6,199.717 428.1,199.65C432.467,200.117 436.817,200.9 441.15,202L444.25,202.65L447.05,202L452.4,200.65L455.55,200.65C449.517,204.55 442.85,206.167 435.55,205.5C428.15,204.833 421.1,202.967 414.4,199.9C412.3,198.933 410.267,197.867 408.3,196.7C403.167,193.7 398.533,190.017 394.4,185.65M408,164.2L405.05,167L407.25,164.75L407.3,164.7C407.567,164.467 407.8,164.3 408,164.2" style="fill:url(#_Linear1);"/>
                <path d="M394.4,185.65L394.35,185.75L393.95,185.15L393.15,184.55L392.95,184C394.083,180.933 395.65,177.95 397.65,175.05C399.65,172.117 402.117,169.433 405.05,167L408,164.2L408.3,164.15L408.15,164.3C403.95,169.1 399.85,174.317 395.85,179.95C394.917,181.783 394.433,183.683 394.4,185.65" style="fill:url(#_Linear2);"/>
                <path d="M408.65,164.25L408.85,164.4L409,164.6L409.45,166.4L409.6,168.55L409.55,171.5C409.383,174.533 409.9,177.367 411.1,180L411.45,180.75L412.1,181.95C413.333,184.017 415.017,185.967 417.15,187.8C419.417,189.733 421.8,191.45 424.3,192.95C428.5,195.45 433.033,197.35 437.9,198.65C442.667,199.883 447.5,200.55 452.4,200.65L447.05,202L444.25,202.65L441.15,202C436.817,200.9 432.467,200.117 428.1,199.65C426.6,199.717 425.45,199.2 424.65,198.1L422.5,195.9L420.8,194.85C417.8,195.217 415.75,194.1 414.65,191.5C413.45,188.767 411.617,186.583 409.15,184.95L409.05,182.45C408.85,180.35 408.383,178.317 407.65,176.35C407.317,175.417 407.1,174.45 407,173.45C406.733,170.517 407.2,167.617 408.4,164.75L408.45,164.7L408.65,164.25" style="fill:url(#_Linear3);"/>
                <path d="M408.8,180.3C409.733,180.6 410.567,181.183 411.3,182.05C412.167,182.817 412.633,183.683 412.7,184.65L412.6,185.6L412.35,186.45L412.2,186.7L412.1,186.85C411.7,187.417 411.1,187.817 410.3,188.05L409.85,188.1L409.5,188.05L408.95,188.05L408.05,187.75C407.083,187.35 406.25,186.717 405.55,185.85C404.95,184.75 404.75,183.717 404.95,182.75L405.05,182.3C405.283,181.233 405.783,180.55 406.55,180.25C406.717,180.517 407.033,180.65 407.5,180.65L407.7,180.7L408.8,180.3" style="fill:url(#_Radial4);"/>
                <path d="M406.55,180.25L406.35,179.75L406.35,179.45C406.35,178.95 406.517,178.5 406.85,178.1C407.117,177.667 407.45,177.4 407.85,177.3L408.25,177.25L408.65,177.3L408.85,177.4L409.45,178L409.5,178.2L409.55,178.35L409.55,178.55L409.5,178.95L408.95,180.2L408.8,180.3L407.7,180.7L407.5,180.65C407.033,180.65 406.717,180.517 406.55,180.25" style="fill:url(#_Radial5);"/>
                <path d="M414.75,112.05C414.817,118.783 412.25,124.5 407.05,129.2C401.85,133.933 399.2,138.35 399.1,142.45C398.967,146.517 402.6,149.067 410,150.1C417.4,151.1 422.95,153.2 426.65,156.4C430.317,159.567 436,163.8 443.7,169.1C449.733,173.267 455.783,174.367 461.85,172.4L461.8,172.3C461.467,170.833 462.083,169.483 463.65,168.25L464.35,168.15C465.417,167.783 466.35,167.783 467.15,168.15L468.85,167.95C473.65,162.283 473.467,156.767 468.3,151.4C462.433,145.333 454.167,141.5 443.5,139.9C432.8,138.267 427.517,133.65 427.65,126.05C427.783,118.45 425.467,112.533 420.7,108.3C418.567,106.933 417.05,106.683 416.15,107.55M468.85,167.95L469.9,167.85L470.05,169.35L468.15,169.55L466.65,170.2C465.483,172.6 466.233,174.8 468.9,176.8C470.533,177.967 471.367,179.3 471.4,180.8C471.433,181.3 470.283,182.583 467.95,184.65M467.15,168.15L465.85,168.25L465.9,169C465.833,169.533 466.067,169.917 466.6,170.15L466.8,170.05L467.9,169L467.3,168.25L467.15,168.15M468.15,169.55L468.1,168.8L467.9,169M466.65,170.2L466.6,170.15C465,171.117 463.417,171.867 461.85,172.4C463.35,174.1 462.983,175.833 460.75,177.6M468.1,168.8L468.85,167.95" style="fill:none;fill-rule:nonzero;stroke:#645f26;stroke-width:1px;"/>
            </g>
        </g>
    </g>
    <defs>
        <linearGradient id="_Linear1" x1="0" y1="0" x2="1" y2="0" gradientUnits="userSpaceOnUse" gradientTransform="matrix(62.5869,0,0,62.5869,392.957,189.053)"><stop offset="0" style="stop-color:#dce0d3;stop-opacity:1"/><stop offset="0.33" style="stop-color:#8b9e78;stop-opacity:1"/><stop offset="0.97" style="stop-color:#d1d1d1;stop-opacity:1"/><stop offset="1" style="stop-color:#d1d1d1;stop-opacity:1"/></linearGradient>
        <linearGradient id="_Linear2" x1="0" y1="0" x2="1" y2="0" gradientUnits="userSpaceOnUse" gradientTransform="matrix(28.672,9.17504,-9.17504,28.672,387.083,174.969)"><stop offset="0" style="stop-color:#767c58;stop-opacity:1"/><stop offset="0.33" style="stop-color:#dae0d3;stop-opacity:1"/><stop offset="0.97" style="stop-color:#d5d5d5;stop-opacity:1"/><stop offset="1" style="stop-color:#d5d5d5;stop-opacity:1"/></linearGradient>
        <linearGradient id="_Linear3" x1="0" y1="0" x2="1" y2="0" gradientUnits="userSpaceOnUse" gradientTransform="matrix(62.5869,0,0,62.5869,392.957,189.056)"><stop offset="0" style="stop-color:#879e65;stop-opacity:1"/><stop offset="0.33" style="stop-color:#d6dbce;stop-opacity:1"/><stop offset="0.97" style="stop-color:#f2f2f2;stop-opacity:1"/><stop offset="1" style="stop-color:#f2f2f2;stop-opacity:1"/></linearGradient>
        <radialGradient id="_Radial4" cx="0" cy="0" r="1" gradientUnits="userSpaceOnUse" gradientTransform="matrix(2.8672,-1.14688,1.14688,2.70336,409.65,185.2)"><stop offset="0" style="stop-color:#fff;stop-opacity:1"/><stop offset="0.97" style="stop-color:#f5fef3;stop-opacity:0"/><stop offset="1" style="stop-color:#f5fef3;stop-opacity:0"/></radialGradient>
        <radialGradient id="_Radial5" cx="0" cy="0" r="1" gradientUnits="userSpaceOnUse" gradientTransform="matrix(-0.73728,-1.06496,1.06496,-0.73728,408.3,178.5)"><stop offset="0" style="stop-color:#fff;stop-opacity:1"/><stop offset="0.97" style="stop-color:#f5fef3;stop-opacity:0"/><stop offset="1" style="stop-color:#f5fef3;stop-opacity:0"/></radialGradient>
    </defs>
</svg>
