<?xml version="1.0" encoding="UTF-8"?>
<svg version="1.1" viewBox="0 0 48.814 58.661" xmlns="http://www.w3.org/2000/svg" xmlns:cc="http://creativecommons.org/ns#" xmlns:dc="http://purl.org/dc/elements/1.1/" xmlns:rdf="http://www.w3.org/1999/02/22-rdf-syntax-ns#" xmlns:xlink="http://www.w3.org/1999/xlink">
<metadata>
<rdf:RDF>
<cc:Work rdf:about="">
<dc:format>image/svg+xml</dc:format>
<dc:type rdf:resource="http://purl.org/dc/dcmitype/StillImage"/>
</cc:Work>
</rdf:RDF>
</metadata>
<g transform="translate(-245.39 -155.52)">
<use transform="translate(245.4,155.55)" width="48.799999" height="58.599998" xlink:href="#a"/>
</g>
<defs>
<g id="a">
<use width="48.799999" height="58.599998" xlink:href="#b"/>
</g>
<g id="b">
<path d="m46.6 4.55-0.45-0.35 0.45 0.35q0.9 1.05 1.8 2.65l0.35 1.75-0.35-1.75 0.15 0.3q0.3 0.55 0.2 1.45-0.25 1.65-4.8 6.3l-4.9-2.85v-0.05l-0.85-0.65-1.05-0.85-3.85-3.25q1.15-3.7 2.2-5.4l2.55-1 8.1 3 0.2 0.05 0.25 0.3m-3.05 7.55 0.3-0.45 1.85-2.6q-1.65-2.15-7.15-5.6l-0.65-0.35-1.8 3.1-0.7 0.65 8 5.8 0.2-0.55h-0.05" fill="#c8dadf" fill-rule="evenodd"/>
<path d="m46.35 4.25-0.2-0.05-8.1-3-2.55 1q1.25-2.15 2.15-2.2l3.35 0.8 0.25 0.15 0.55 0.3 2.95 1.85 1.4 1.1-1.4-1.1q1.45 0.9 1.6 1.15m-2.8 7.85h0.05l-0.2 0.55-8-5.8 0.7-0.65 7.45 5.9" fill="#e7eff1" fill-rule="evenodd"/>
<path d="m37.15 10.85 1.05 0.85 0.85 0.65v0.05q-5.75 10.15-17.35 24.55l-1.65 2-1.45 1.75-3.45 4.15-0.1 0.15-0.25-0.4q-0.5-0.65-1.1-0.8l-0.7-0.1h-0.1l0.5-0.65 0.8 0.95q7.8-6.65 23.75-31.05l-1.15-1.1-0.8 0.55 1.15-1.55m1.05 0.85-0.25 1.25 0.25-1.25" fill="#999" fill-rule="evenodd"/>
<path d="m36 12.4 0.8-0.55 1.15 1.1q-15.95 24.4-23.75 31.05l-0.8-0.95 2.1-2.35 1.55-1.75 1.75-2q11.1-13.05 17.2-24.55" fill="#ccc" fill-rule="evenodd"/>
<path d="m9.65 39.3v0.05l-2.5 1.45-0.35 0.4q-0.8 0.95-1.45 2.05h-1.2q1.15-1.6 2.65-3.25l2.85-0.7m-8.5 9.25 0.3-0.65v-0.05l0.65-0.5 0.15-0.25 1.4-0.2q-0.6 1.65-0.9 3.55l-0.3 3.55-0.85 1.05-1.5 0.45q-0.25-2.05 0.2-4.2l0.5-1.8 0.35-0.95" fill="#e0f5f8" fill-rule="evenodd"/>
<path d="m20.35 47.25 1.75 5.05-0.75-0.05-2-1.3 1-3.7m-2.05 7.85-3.7 1.8-0.5-0.3-0.35-0.6 0.1-1.75h0.1l0.3-0.45 0.95-0.45 0.6-0.25 1.3-0.7 0.65 0.35 0.25 0.35 0.15 0.65h0.1l0.05 1.35m-6.3 2.7-0.1 0.05q-3.15 0.85-5.95 0.75l-3.4-0.65-0.7-0.2-0.1-0.9 1.35-1.3 6.85-0.4q0.9 0.2 1.45 1.05 0.5 0.7 0.6 1.6" fill="#c0ebf1" fill-rule="evenodd"/>
<path d="m4.15 43.25h1.2q-1.05 1.7-1.7 3.65l-1.4 0.2-0.15 0.25-0.65 0.5q1-2.25 2.6-4.45l0.1-0.15m-2.3 14.5-1.45-0.65-0.3-1.6 1.5-0.45 0.85-1.05v1.45l0.2 0.05 0.45 0.05-1.35 1.3 0.1 0.9" fill="#fff" fill-rule="evenodd"/>
<path d="m22.1 52.3 0.1 0.2 0.05 0.2-3.95 2.4-0.05-1.35h-0.1l-0.15-0.65-0.25-0.35-0.65-0.35 2.2-1.25 0.05-0.2 2 1.3 0.75 0.05m-7.5 4.6-2.6 0.9q-0.1-0.9-0.6-1.6-0.55-0.85-1.45-1.05l4.3-1.35-0.3 0.45h-0.1l-0.1 1.75 0.35 0.6 0.5 0.3" fill="#e4f7fa" fill-rule="evenodd"/>
<path d="m11.1 41.8 1.55 1.65 0.25 0.25h0.1l-3.25 3.85 0.85-0.05 3.1-3.7q0.6 0.15 1.1 0.8l-3.15 3.9 0.75-0.1 2.7-3.4 0.7 0.35 0.05 0.05 0.6 0.3 0.5 0.3 1.6 0.9 0.2 0.15 0.05 0.1q0.2 0.7 0 1.35l-0.5 1.65-0.1 0.3-0.95 1.1-0.6 0.65-0.85 0.9-0.6 0.25-0.95 0.45-4.3 1.35-6.85 0.4-0.45-0.05q-0.05-1.05 0.25-1.8l0.45-1.75 0.25-1.5v-0.3q0.05-0.9 0.5-1.7l0.95-1.65 0.9-1.5 0.85-1.4 0.15-0.25 1.05-1.65q0.5-0.85 1.25-0.8l1.15 0.25 0.05 0.05 0.65 0.3" fill="#a2cad2" fill-rule="evenodd"/>
<path d="m15.05 45h0.05l-2.7 3.4-0.75 0.1 3.15-3.9 0.25 0.4m1.4 0.7q1.35 0.6 3 1.2l0.9 0.3v0.05l-1 3.7-0.05 0.2-2.2 1.25-1.3 0.7 0.85-0.9 0.6-0.65 0.95-1.1 0.1-0.3 0.5-1.65q0.2-0.65 0-1.35l-0.05-0.1-0.2-0.15-1.6-0.9-0.5-0.3" fill="#8abbc6" fill-rule="evenodd"/>
<path d="m5.35 43.25q0.65-1.1 1.45-2.05l0.35-0.4 2.5-1.45 0.8 1.6 0.65 0.85-0.65-0.3-0.05-0.05-1.15-0.25q-0.75-0.05-1.25 0.8l-1.05 1.65-0.15 0.25-0.85 1.4-0.9 1.5-0.95 1.65q-0.45 0.8-0.5 1.7v0.3l-0.25 1.5-0.45 1.75q-0.3 0.75-0.25 1.8l-0.2-0.05v-1.45l0.3-3.55q0.3-1.9 0.9-3.55 0.65-1.95 1.7-3.65" fill="#bdd9df" fill-rule="evenodd"/>
<path d="m13 43.7 0.7 0.1-3.1 3.7-0.85 0.05 3.25-3.85" fill="#d0e3e8" fill-rule="evenodd"/>
<path d="m43.85 11.65-0.3 0.45-7.45-5.9 1.8-3.1 0.65 0.35-1.9 2.75 7.2 5.45" fill="#8fb4be" fill-rule="evenodd"/>
<path d="m15.1 45 0.7 0.35 0.05 0.05m-2.15-1.6-0.7-0.1m0.7 0.1q0.6 0.15 1.1 0.8l0.25 0.4" fill="none" stroke="#637e85" stroke-linecap="round" stroke-linejoin="round" stroke-width=".05"/>
<path d="m36 12.4 0.8-0.55 1.15 1.1 0.25-1.25m-24.8 31.35 0.8 0.95q7.8-6.65 23.75-31.05" fill="none" stroke="#999" stroke-linecap="round" stroke-linejoin="round" stroke-width=".05"/>
<path d="m20.2 47.15 0.15 0.05" fill="none" stroke="#4b2e47" stroke-linecap="round" stroke-linejoin="round" stroke-width=".05"/>
<path d="m15.85 45.4 0.6 0.3m5.65 6.6 0.1 0.2m-10.2 5.3-0.1 0.05" fill="none" stroke="#827880" stroke-linecap="round" stroke-linejoin="round" stroke-width=".1"/>
<path d="m36.65 6.2 1.9-2.75" fill="none" stroke="#7a99a9" stroke-linecap="round" stroke-linejoin="round" stroke-width=".05"/>
<path d="m37.15 10.85-1.15 1.55m-26.35 26.95v-0.05m3.25 4.4 0.5-0.65m-0.4 0.65h-0.1" fill="none" stroke="#333" stroke-linecap="round" stroke-linejoin="round" stroke-width=".05"/>
<path d="m15.05 45h0.05" fill="none" stroke="#5c8f9e" stroke-linecap="round" stroke-linejoin="round" stroke-width=".05"/>
<path d="m46.15 4.2 0.45 0.35m-11.1-2.35q-1.05 1.7-2.2 5.4l3.85 3.25 1.05 0.85 0.85 0.65v0.05l4.9 2.85q4.55-4.65 4.8-6.3l-0.35-1.75q-0.9-1.6-1.8-2.65m-2.75 7.1-0.3 0.45h0.05m-7.5-5.9 1.8-3.1 0.65 0.35q5.5 3.45 7.15 5.6l-1.85 2.6m-39.8 31.75 0.1-0.15" fill="none" stroke="#4a3933" stroke-linecap="round" stroke-linejoin="round" stroke-width=".1"/>
<path d="m44.75 3.1-2.95-1.85-0.55-0.3-0.25-0.15-3.35-0.8q-0.9 0.05-2.15 2.2m10.65 2-1.4-1.1m-35.1 36.2-2.85 0.7q-1.5 1.65-2.65 3.25m5.5-3.9 0.8 1.6 0.65 0.85 1.55 1.65 0.25 0.25m0.5-0.65 2.1-2.35 1.55-1.75 1.75-2q11.1-13.05 17.2-24.55m-34.55 35.5v-0.05q1-2.25 2.6-4.45m-3.95 12.1q-0.25-2.05 0.2-4.2l0.5-1.8 0.35-0.95m37.9-36.15q-5.75 10.15-17.35 24.55l-1.65 2-1.45 1.75-3.45 4.15-0.1 0.15m1.4 0.7q1.35 0.6 3 1.2m0.9 0.3v0.05l1.75 5.05m0.1 0.2 0.05 0.2-3.95 2.4-3.7 1.8-2.6 0.9m-0.1 0.05q-3.15 0.85-5.95 0.75l-3.4-0.65-0.7-0.2-1.45-0.65-0.3-1.6" fill="none" stroke="#4a3933" stroke-linecap="round" stroke-linejoin="round" stroke-width=".05"/>
<path d="m43.85 11.65-7.2-5.45m-35.5 42.35 0.3-0.65m18-1 0.75 0.25" fill="none" stroke="#4a3933" stroke-linecap="round" stroke-linejoin="round" stroke-width=".05"/>
</g>
</defs>
</svg>
