<?xml version="1.0" encoding="UTF-8"?>
<svg version="1.1" viewBox="0 0 230.68 242.73" xmlns="http://www.w3.org/2000/svg" xmlns:cc="http://creativecommons.org/ns#" xmlns:dc="http://purl.org/dc/elements/1.1/" xmlns:rdf="http://www.w3.org/1999/02/22-rdf-syntax-ns#" xmlns:xlink="http://www.w3.org/1999/xlink">
<metadata>
<rdf:RDF>
<cc:Work rdf:about="">
<dc:format>image/svg+xml</dc:format>
<dc:type rdf:resource="http://purl.org/dc/dcmitype/StillImage"/>
</cc:Work>
</rdf:RDF>
</metadata>
<g transform="translate(-163.02 -278.86)">
<use transform="matrix(.7071 .7071 -.7071 .7071 366.45 254.09)" width="87.5" height="332.79999" xlink:href="#j"/>
</g>
<defs>
<g id="j" transform="translate(.5 -6)">
<use transform="matrix(1.4863 0 0 .834 -.0932 5.983)" width="54.700001" height="281.20001" xlink:href="#i"/>
<use transform="translate(-.5 209.8)" width="87.5" height="129" xlink:href="#e"/>
</g>
<g id="i" transform="translate(.5 .5)">
<use transform="translate(-.5 -.5)" width="54.700001" height="281.20001" xlink:href="#h"/>
<use transform="matrix(.8195 0 0 1.527 17.59 59.736)" width="18.25" height="16.5" xlink:href="#b"/>
<use transform="matrix(.8195 0 0 1.527 18.49 105.39)" width="18.25" height="16.5" xlink:href="#b"/>
<use transform="matrix(.8195 0 0 1.527 18.49 151.14)" width="18.25" height="16.5" xlink:href="#b"/>
<use transform="matrix(.8195 0 0 1.527 18.94 199.49)" width="18.25" height="16.5" xlink:href="#b"/>
<use transform="matrix(.3054 0 0 .5637 19.635 62.123)" width="35.400002" height="36.900002" xlink:href="#a"/>
<use transform="matrix(.3054 0 0 .5637 20.535 107.77)" width="35.400002" height="36.900002" xlink:href="#a"/>
<use transform="matrix(.3054 0 0 .5637 20.535 153.52)" width="35.400002" height="36.900002" xlink:href="#a"/>
<use transform="matrix(.3054 0 0 .5637 20.985 201.87)" width="35.400002" height="36.900002" xlink:href="#a"/>
</g>
<g id="h" transform="translate(.5 .5)">
<use transform="translate(-.5 -.5)" width="54.700001" height="281.20001" xlink:href="#p"/>
</g>
<g id="p" transform="translate(.5 .5)">
<path d="m5.1 251.35-1.45-2.85 0.1-0.7 1.35 3.55m0.1-72.45-1.25-3.3 0.8 0.25 0.1 0.55 0.35 2.5m-1.25-3.3 0.9 0.8-0.9-0.8" fill="#963" fill-rule="evenodd"/>
<path d="m12.1 197.1 0.25 0.8h-0.25v-0.05l0.25 0.05-0.25-0.05v-0.75m30.55 16.9-0.4-1.7 0.7 1.85-0.3-0.15" fill="#c7a349" fill-rule="evenodd"/>
<path d="m32.9 38.75 0.05 0.05q2.5 5.3 3.9 10.55l0.05 0.3-4.45-1.2 0.15-0.25-0.65-0.15 0.65 0.15-0.15 0.25-0.3-0.1h-0.05l-0.05-0.05 0.1 0.05-0.1-0.05-0.1-0.25-2.3-6.35 2.45-0.8 0.2-1.95 0.6-0.2m-3.7 1.7-0.1-0.25 0.15 0.05v0.05l-0.05 0.15m2.4 7.5 0.35 0.1 0.1 0.25-0.45-0.35m-20.4 192.15-0.1 1.05v-0.65l0.1-0.4" fill="#666" fill-rule="evenodd"/>
<path d="m4.75 175.85q-0.85-5.2-2.5-9.25 4-15.5 3.9-24.8-0.15-9.35-4.4-12.55 3.25-6.6 4.45-11.65 1-4.15 0.55-7.3l0.2-0.8 1.15-5.5q2.1-12.7-2.95-14.25-2-0.6-5.15 0.55l0.5-6.3q4.45-50.25 22.6-84l0.1 0.1q13 11.85 19.7 55.05l0.15 0.75 0.3 2.2 0.1 5q-0.05 1 1.05 6.65l1.35 8.15 1.75 3.8q-3.9 3.1-4.35 15.3t1.35 21.05q1.8 8.9 2.1 9.5-2.7 5.65-3.15 12.2-0.8 10.85 4.75 24.25-3.05 5.95-3.5 13.6-0.8 12.75 5.65 30.15l2.15 8.15-0.1 2.2q-0.65 12.3 0.65 24.35l0.05 0.15 0.8 6.1v0.05l-0.7 1.6-0.05 0.1-0.25 0.55v0.05l-2.25 4.4-1.3 2.4v0.05l-2.25 3.65-1.8 2.7v0.05l-0.4 0.55-0.05 0.05-2.3 3.1-0.1 0.1-0.05 0.1q-5.25 6.6-11.75 12l-0.35-0.25-3.6-2.8h-0.05l-4.85-4.2-0.15-0.15q-10.2-9.5-16.65-21.45l-1.35-3.55q1.75-13.15 0.6-24.85l-0.55-4.35v-0.1l-0.35-2.1 0.05-0.4 0.05-0.55 0.2-1.15 0.2-1.55 0.05-0.25 0.15-1.05 0.45-3.65 0.1-0.6q1.9-4.9 2.55-9.85l0.3-4.15q0.1-7.1-2.35-14.3l-0.35-2.5-0.1-0.55m28.15-137.1q-2.6-5.55-6.5-11.3l-0.25-0.35-0.3 0.5-0.25 0.45q-2.3 4-4.35 8.2l-0.55 1.1v0.05q-2.35 4.9-4.25 10.05l-1.3 3.6q-1.15 3.25-2.15 6.65-1.25 4.3-2.25 8.85-2 8.75-3.05 18.1l-0.5 0.05 0.5-0.05-0.05 0.5 6.7 6.25-2.8 19.2-0.35 2.25-1.05 7 1.35 3.75v0.9l-0.25 19v2.6l-0.15 11.3 0.45 0.7q2.4 3.95 3.05 6.35l0.1 0.3v0.15l-2.6 4.25v16.8l-1.65 2.5 1.65-2.5v11.95h0.25l-1.65 23.25v1.1q3 9.7 0.5 17.85l-0.1 0.4v0.7l-0.6-0.15 0.6 0.15q-0.05 17.3 11.8 30.65l4.45 4.55q7.2-3.6 12.75-10.35l2.65-3.55q3.7-5.45 6.6-12.55l0.2-0.6q-8-6.1-6.9-32.9-0.1-1.05 0.2-1.75l-0.2-0.7 0.3 0.15-0.7-1.85-4.6-11.7-0.05-0.15 1.7-1.4 0.6-7.95 1.9-26.25-0.15-0.65-1.25-5.25-1.1-8.3-0.2-1.6 0.1-1.25 1.2-18.85 1.5-6.3q-2.9-2.35-3.3-5.15-0.5-3.15 2.15-6.85v-0.05q-1.2-10.5-0.55-16.15l0.25-1.7q0.55-3.7 1.75-7.7l0.8-2.7 0.05-0.2-5.6-16.15v-0.3q-0.65-6.25 0.8-8.95l-0.5-3.25-0.15-0.85-0.65-2.9-0.05-0.1-0.05-0.3q-1.4-5.25-3.9-10.55l-0.05-0.05m8.15 53.4-0.6 0.6 0.6-0.6m-33.4-7-0.45-0.45 0.45 0.45m-4.65 0.45 0.6-0.7-0.6 0.7m36.5 32.2-0.9-0.3 0.9 0.3m0.4 30.1-0.7-0.1 0.7 0.1m-29.75-28.05-0.55-1.55 0.55 1.55m29.15 80.05v-0.85 0.85m-24.6-35.15h-0.5 0.5m-3.6 6 1-1.6-1 1.6m39.95 78.6h-1.5 1.5m-13.4-48.75 2.45 0.3-2.45-0.3m-26.95 21.3-0.45 0.1 0.45-0.1m16.65 54.5-0.6 0.75 0.6-0.75 0.05 0.05 0.85 0.75-0.85-0.75-0.05-0.05" fill="url(#bc)" fill-rule="evenodd"/>
<path d="m25.85 27.6 0.3-0.5 0.25 0.35q3.9 5.75 6.5 11.3l-1.5 0.5 0.9-0.3-0.2 1.95-2.45 0.8-0.95 0.3 0.5-1.55 0.45 1.25-0.45-1.25 0.05-0.15v-0.05l-0.15-0.05-0.35-0.1 0.25-0.1 0.1 0.2-0.1-0.2 0.35-0.1 2.05-0.65-2.6 0.25h-0.15l-4.65-1.5-2.2-1.15 3.8-8.8 0.25-0.45m11.05 22.05 0.05 0.1 0.65 2.9-5.2-4.1 0.05-0.1-0.05 0.1-0.3-0.2h0.05l0.1 0.1-0.1-0.1 0.3 0.1 4.45 1.2m6.1 32.7-0.8 2.7-7.15-1.2-0.6-0.1 8.55-1.4m-14.35-43.3 0.15 0.45-0.15-0.45m-13.5 12 3.55 2.9 0.15 0.4-0.5-0.15-5.35 3.5q1-3.4 2.15-6.65m11.3 6.1 0.15-0.2 0.15 0.1-0.35 0.25 0.05-0.15m2.9-17.25-0.1 0.35 0.1-0.35m-2.15 6.85 1.15-3.65 2.85 4.75-4-1.1m0.2 39.65 0.25-0.1 4.7-1.55 1.1 7.2 4.5 3.15v-0.05l-2.7 15.55h-23.7l2.8-19.2 0.15-0.75 12.9-4.25m-9.05-32.2 0.35-0.25-0.35 0.25m-3.3 37.85-0.7-0.65 0.7 0.65m19.9 4.4v-1.55l-1.05-0.75-1.3 2.25 0.55 1.25 1.8-1.2m-14.6 15.2 18.25 5.85q0.4 2.8 3.3 5.15l-1.5 6.3-1.2 18.85-16.05-2.45-0.35-0.05 0.35 0.05 16.15 5.3 1.1 8.3 1.25 5.25-7.95 0.15-15.95 0.35-3.05 0.05-0.1-0.3q-0.65-2.4-3.05-6.35l-0.45-0.7 0.15-11.3 9-1.2 2.55 0.4-2.1-17.15-8.8-3.5-0.4-0.15v-2.8 1.9l-1.35-3.75 1.05-7 9.15-1.2m-8.45 13-0.4-1.05 0.4 1.05m26.75 92.4 4-0.6q-1.1 26.8 6.9 32.9l-0.2 0.6-38.25-8.75 38.25 8.75q-2.9 7.1-6.6 12.55l-2.65 3.55q-5.55 6.75-12.75 10.35l-4.45-4.55q-11.85-13.35-11.8-30.65v-0.05l0.1-1.05q2.5-8.15-0.5-17.85v-0.35l6.25-1.5 11.65-1.8v7.4l4.05 6.6-0.55 0.25 0.55-0.25 0.95 1.6-0.95-1.6 6-2.9v-12.65m1 12.15-1 0.5 1-0.5m-11.05-0.9v-2.3 2.3m0-2.3-0.5-0.85 0.5 0.85m10.05 4.1v-0.4 0.4m-2 11.35v-3.75l-4-1.4-3 5.15h7" fill="url(#bb)" fill-rule="evenodd"/>
<path d="m24 38 4.65 1.5h0.15l0.2 0.5-0.2-0.5 2.6-0.25-2.05 0.65-0.35 0.1-0.25 0.1-3.1-1.05-1.65-1.05" fill="url(#as)" fill-rule="evenodd"/>
<path d="m21.25 36.25 0.55 0.6 2.2 1.15 1.65 1.05-4.4-1.7h-0.55l0.55-1.1m-10 107.25 9 1.4-9 1.2v-2.6" fill="url(#ah)" fill-rule="evenodd"/>
<path d="m37.6 52.65 0.15 0.85-3.55-2.95-1.95-1.8 0.15-0.2 5.2 4.1m-12-24.6-3.8 8.8-0.55-0.6q2.05-4.2 4.35-8.2m-4.35 9.3-4.8 10.1q1.9-5.15 4.25-10.05v-0.05h0.55m5.8 9.85 0.05-0.25h0.05l-0.1 0.25m-3.9 98.15 16.05 2.45-0.1 1.25 0.2 1.6-16.15-5.3" fill="#4f4f4f" fill-rule="evenodd"/>
<path d="m37.45 65.7v0.3l5.6 16.15-0.05 0.2-8.55 1.4 0.6 0.1-2.65 0.9h-0.05l-4.7 1.55-0.25 0.1-19.7-1.75q1.05-9.35 3.05-18.1l15.65-9.25 0.35-0.25 10.7 8.65m-25.45 17.7 9.3 1.7v-1l-9.35-2.95v2.25h0.05" fill="url(#w)" fill-rule="evenodd"/>
<path d="m37.75 53.5 0.5 3.25q-1.45 2.7-0.8 8.95l-10.7-8.65-0.15-0.1 5.55-8.1 0.1-0.1 1.95 1.8 3.55 2.95m-3.55-2.95-2.05-1.7 2.05 1.7" fill="url(#d)" fill-rule="evenodd"/>
<path d="m28.4 110.6-8.05 1.05-9.15 1.2 0.35-2.25h16.85m-8.65 0.85 0.6 0.2-0.6-0.2" fill="url(#s)" fill-rule="evenodd"/>
<path d="m40.75 110.6v0.05q-2.65 3.7-2.15 6.85l-18.25-5.85 8.05-1.05h12.35m-5.5 0-0.05 0.25 0.05-0.25" fill="url(#c)" fill-rule="evenodd"/>
<path d="m34.95 96.45-1.8 1.2-0.55-1.25 1.3-2.25 1.05 0.75v1.55m-17.7 81.65 2.05 14.25-2 4.45-2.05-1.2-2.1-11.25 4.1-6.25m11.35 40.5 10.05-1.55v12.65l-6 2.9-4.05-6.6v-7.4m8.05 22.85h-7l3-5.15 4 1.4v3.75" fill="#757575" fill-rule="evenodd"/>
<path d="m28.75 40.1 0.35 0.1 0.1 0.25-0.5 1.55 0.95-0.3 2.3 6.35-0.35-0.1-0.25-0.1h-0.15 0.15l0.25 0.1 0.45 0.35 0.05 0.05 0.3 0.2-0.15 0.2-0.1 0.1-0.65-0.55 0.65 0.55-5.55 8.1-0.15 0.2-7.6-2.8-0.15-0.4-3.55-2.9 1.3-3.6 4.8-10.1 4.4 1.7 3.1 1.05m-2.8 16.3 0.65 0.55-0.65-0.55m2.2-13.85 0.2 0.55-0.2-0.55m-0.95 4.2-0.05 0.2 0.05-0.2 4 1.1-2.85-4.75-1.15 3.65m-0.05 0.2h-0.05l-0.05 0.25 0.1-0.25" fill="#707070" fill-rule="evenodd"/>
<path d="m18.85 54.35 7.6 2.8-0.05 0.15-15.65 9.25q1-4.55 2.25-8.85l5.35-3.5 0.5 0.15" fill="url(#r)" fill-rule="evenodd"/>
<path d="m7.7 84.65 19.7 1.75-12.9 4.25-0.15 0.75-6.7-6.25 0.05-0.5" fill="url(#q)" fill-rule="evenodd"/>
<path d="m37.95 95.05 2.5-2.3-0.25 1.7q-0.65 5.65 0.55 16.15h-5.5l2.7-15.55m-26.05 29.6 8.8 3.5 2.1 17.15-2.55-0.4-9-1.4 0.25-19 0.4 0.15 0.7 2.05-0.7-2.05" fill="url(#ba)" fill-rule="evenodd"/>
<path d="m42.2 85.05q-1.2 4-1.75 7.7l-2.5 2.3v0.05l-4.5-3.15-1.1-7.2h0.05l2.65-0.9 7.15 1.2" fill="url(#c)" fill-rule="evenodd"/>
<path d="m12 83.4h-0.05v-2.25l9.35 2.95v1l-9.3-1.7" fill="#6b6b6b" fill-rule="evenodd"/>
<path d="m41.65 164.2 0.15 0.65-1.9 26.25-5.95 9-21.6-2.2-0.25-0.8v-11.15l1.05-1.6 2.1 11.25 2.05 1.2 2-4.45-2.05-14.25 6.15-9.45-0.55-0.4 1.05-0.35-0.5 0.75 0.5-0.75 9.8-3.55 7.95-0.15m-22.15 29.5-0.2-1.35 0.2 1.35m-1.8 3.35-0.4-0.25 0.4 0.25m-2.45-1.45 0.1 0.65-0.1-0.65" fill="url(#d)" fill-rule="evenodd"/>
<path d="m39.9 191.1-0.6 7.95-1.7 1.4 0.05 0.15-3.7-0.5 5.95-9" fill="url(#az)" fill-rule="evenodd"/>
<path d="m42.85 214.7q-0.3 0.7-0.2 1.75l-4 0.6v-1.4 1.4l-10.05 1.55v-0.75 0.75l-11.65 1.8 21.7-4.75 4.2-0.95" fill="#4a4a4a" fill-rule="evenodd"/>
<path d="m12.35 197.9 21.6 2.2 3.7 0.5 4.6 11.7 0.4 1.7 0.2 0.7-4.2 0.95-10.05 2.2v-0.4 0.4l-11.65 2.55-4.5 0.65 4.5-0.65-6.25 1.5v-0.75l1.65-23.25m26.3 16.8v0.95-0.95" fill="url(#ay)" fill-rule="evenodd"/>
<path d="m14.7 164.75 3.05-0.05 5.1 3.55 0.55 0.4-6.15 9.45-4.1 6.25-1.05 1.6v-16.8l2.6-4.25v-0.15m8.15 3.5-0.8 0.3 0.8-0.3m-5.85 8.15 0.25 1.7-0.25-1.7" fill="url(#ax)" fill-rule="evenodd"/>
<path d="m17.75 164.7 15.95-0.35-9.8 3.55-1.05 0.35-5.1-3.55" fill="url(#aw)" fill-rule="evenodd"/>
<path d="m3.95 212.75 0.05-0.25 0.15-1.05 0.45-3.65 0.1-0.6q1.9-4.9 2.55-9.85l0.3-4.15q0.1-7.1-2.35-14.3l-1.25-3.3 0.8 0.25m0.1 0.55-0.9-0.8" fill="none" stroke="#000" stroke-linecap="round" stroke-linejoin="round" stroke-opacity=".10196"/>
<path d="m4.75 175.85q-0.85-5.2-2.5-9.25 4-15.5 3.9-24.8-0.15-9.35-4.4-12.55 3.25-6.6 4.45-11.65 1-4.15 0.55-7.3l0.2-0.8 1.15-5.5q2.1-12.7-2.95-14.25-2-0.6-5.15 0.55l0.5-6.3q4.45-50.25 22.6-84l0.1 0.1q13 11.85 19.7 55.05l0.15 0.75 0.3 2.2 0.1 5q-0.05 1 1.05 6.65l1.35 8.15 1.75 3.8q-3.9 3.1-4.35 15.3t1.35 21.05q1.8 8.9 2.1 9.5-2.7 5.65-3.15 12.2-0.8 10.85 4.75 24.25-3.05 5.95-3.5 13.6-0.8 12.75 5.65 30.15l2.15 8.15-0.1 2.2m-21.75 62.1-0.35-0.25m-26.6-61.35v-0.1l-0.35-2.1 0.05-0.4 0.05-0.55 0.2-1.15 0.2-1.55m0.8-36.9 0.1 0.55 0.35 2.5" fill="none" stroke="#000" stroke-linecap="round" stroke-linejoin="round" stroke-opacity=".2"/>
<path d="m25.85 27.6 0.3-0.5 0.25 0.35q3.9 5.75 6.5 11.3l0.05 0.05q2.5 5.3 3.9 10.55l0.05 0.3m0.05 0.1 0.65 2.9 0.15 0.85 0.5 3.25q-1.45 2.7-0.8 8.95v0.3l5.6 16.15-0.05 0.2-0.8 2.7q-1.2 4-1.75 7.7l-0.25 1.7q-0.65 5.65 0.55 16.15v0.05q-2.65 3.7-2.15 6.85 0.4 2.8 3.3 5.15l-1.5 6.3-1.2 18.85 0.7 0.1m-14.3-119.85q-2.3 4-4.35 8.2m0.55 0.6 2.2 1.15 4.65 1.5h0.15l2.6-0.25 1.5-0.5m-4.15 1.35 0.35 0.1 0.15 0.05 0.1-0.35 2.05-0.65m-2.4 0.75-0.25 0.1-3.1-1.05-4.4-1.7m-4.8 10.1-1.3 3.6 3.55 2.9 0.15 0.4 7.6 2.8 0.15-0.2-0.65-0.55m3.05-16.4 0.35-0.1m-0.15 0.55-0.5 1.55m0.55-1.75v0.05l-0.05 0.15m-12.75 7q1.9-5.15 4.25-10.05v-0.05l0.55-1.1m5.9 10.7 0.05-0.2m4 1.1h0.15l0.25 0.1 0.35 0.1 0.65 0.15-0.15 0.25-0.05 0.1 5.2 4.1m-10.45-5.7-0.1 0.25m-3.05-9.2 1.65 1.05m6.45 9.3 0.15 0.1m-0.2-0.15 0.05 0.05m0.15 0.4-0.1 0.1m0.1-0.1 0.15-0.2-0.15-0.1m-0.2-0.15-0.45-0.35m-4.85 9.1-0.15-0.1 5.55-8.1m-5.75 8.45 0.35-0.25 10.7 8.65m-11-8.55-0.05 0.15-15.65 9.25q-2 8.75-3.05 18.1l-0.05 0.5 6.7 6.25 0.15-0.75 12.9-4.25m0.25-0.1 4.7-1.55m0.05 0 2.65-0.9-0.6-0.1 8.55-1.4m-24.15-28-0.5-0.15-5.35 3.5q-1.25 4.3-2.25 8.85m7.95-12.6-0.35 0.25m-5.35 3.5q1-3.4 2.15-6.65m-7.95 33.65 0.45 0.45m6.7 6.25 0.7 0.65m20-8.2 7.15 1.2m-13.8 25.55-8.05 1.05m14.9-1.05h-23.7l-0.35 2.25 9.15-1.2m-8.85 11.95v-1.9m-0.3-8.85-1.05 7 1.35 3.75 0.4 1.05 0.7 2.05m10.2 18.6 0.35 0.05 16.05 2.45-0.1 1.25 0.2 1.6 1.1 8.3 1.25 5.25 0.15 0.65-1.9 26.25-0.6 7.95v0.85m-29.7-81.6 0.55 1.55m1.35 4.65-0.25 19 9 1.4 2.55 0.4m-11.55 0.8 9-1.2m-9-1.4v2.6l-0.15 11.3 0.45 0.7q2.4 3.95 3.05 6.35l0.1 0.3 3.05-0.05 15.95-0.35 7.95-0.15m-30.15-40.6v0.9m3.2 40.25v0.15l-2.6 4.25v27.95l0.25 0.8 21.6 2.2 5.95-9m-27.8-21.95-1 1.6m3.1-6h0.5m-2.6 33.1v0.05h0.25l-0.25-0.05v-0.75m28.65-86.5h-5.5m-20.9-19.2-2.8 19.2m31.1 105.85q-0.1-1.05 0.2-1.75l-4.2 0.95m4 0.8q-1.1 26.8 6.9 32.9h1.5m-8.2-34.65-0.2-0.7-0.4-1.7-4.6-11.7-3.7-0.5m8.7 13.9 0.3 0.15-0.7-1.85m-4.6-11.7-0.05-0.15 1.7-1.4m0.8 1.85-2.45-0.3m-9.05 17.25 10.05-2.2m-27.95 6.25 6.25-1.5 11.65-2.55m-18.35 4.15 0.45-0.1v-0.75l1.65-23.25m-1.65 24v0.35q3 9.7 0.5 17.85l-0.1 0.4v0.7l38.25 8.75 0.2-0.6m-38.45-8.15-0.6-0.15m16.85 35.35 0.05 0.05 0.85 0.75m-1.5-0.05 0.6-0.75-4.45-4.55q-11.85-13.35-11.8-30.65m16.25 35.2q7.2-3.6 12.75-10.35l2.65-3.55q3.7-5.45 6.6-12.55" fill="none" stroke="#000" stroke-linecap="round" stroke-linejoin="round" stroke-opacity=".10196" stroke-width=".05"/>
<path d="m36.9 49.65 0.05 0.1m3.5 43 0.6-0.6m-15.45-64.1 0.25-0.45m-4.05 9.25 3.8-8.8m3.2 11.45-0.15-0.45m0.45 1.15-0.1-0.2-0.2-0.5m-7.55-2.15-4.8 10.1m13.2-5.75-0.45-1.25-0.1-0.25m-0.75 2.9-0.2-0.55m3.8 5.5-2.3-6.35m2.45-0.8 0.2-1.95m-5.25 8.25 0.05-0.25h0.05m5 1.4h-0.05m0.15 0.1-0.1-0.1-0.1-0.05-0.1-0.25m0.2 0.8 2.05 1.7-1.95-1.8m-0.1-0.4 0.3 0.1m-0.3 0.4-0.65-0.55m2.7 2.25 3.55 2.95m-10.35 32.9 0.25-0.1m4.7-1.55h0.05m-25.2-0.05 0.5-0.05m-4.1 0.25-0.6 0.7m34.95 9.5v-0.05m0.65 22.45 0.9 0.3m-19.15-6.15 18.25 5.85m-3.4-6.65 0.05-0.25 2.7-15.55m-17.6 16.6-0.6-0.2m3.65 57.2 0.5-0.75-1.05 0.35 0.55 0.4-6.15 9.45-0.25-1.7m2.3 15.95 0.2 1.35m2.55-25.15 0.8-0.3-5.1-3.55m6.15 3.2 9.8-3.55m-21.6 21.6 1.05-1.6 4.1-6.25m-6.8 10.35 1.65-2.5m3.25 10.3-0.1-0.65m2.05 1.2 0.4 0.25m20.95 18.6v1.4l4-0.6m-14.05 1.4v0.75l10.05-1.55v12.65l1-0.5m-11.05-11.75v0.4m10.05-2.2v-0.95m-21.7 5.7-4.5 0.65m20.2 11.55 0.95 1.6m-1.5-1.35 0.55-0.25-4.05-6.6v2.3m4.05 4.3 6-2.9v0.4m-10.55-4.95 0.5 0.85v-7.4l-11.65 1.8" fill="none" stroke="#030303" stroke-linecap="round" stroke-linejoin="round" stroke-opacity=".10196" stroke-width=".05"/>
<path d="m0.6 89.95-0.45 0.3 0.05-1.05q1.65-38.85 15.4-72.35 3.35-8.2 7.45-16.05l0.5 1.9q1.85 7.6 2.5 14.15 0.45 4.85 0.25 9.1l-0.65 1.25q-15.4 28.8-18.05 57.65l-2.4 1.75-4.6 3.35" fill="url(#av)" fill-rule="evenodd"/>
<path d="m5.2 86.6 2.6-1.65 6.65 6.7-3.9 25.7-0.85 1.15-7.65 10.3 0.4-0.8q5.2-10.9 4.4-17.7v-0.3l0.4-1.7q5.1-22.5-6.65-18.35l4.6-3.35" fill="url(#au)" fill-rule="evenodd"/>
<path d="m9.7 118.5 1.85 3.2-0.2 35.15-5.15 5.3-3.5 3.6 0.1-0.4q7.7-29.55-1.4-36.2l1.05-1.15-0.4 0.8 7.65-10.3" fill="url(#at)" fill-rule="evenodd"/>
<path d="m12.1 169.6v28.3l-0.75 10.55-6.65-1.2q6.15-11.95-2.2-40.7l-0.05-0.2 9.65 3.25" fill="url(#ar)" fill-rule="evenodd"/>
<path d="m6.2 162.15 5.1-4.75 3.8 7.5-2.9 4.75-0.1-0.05-9.65-3.25 0.05 0.2-0.65-0.3 0.95-0.9-0.1 0.4 3.5-3.6" fill="url(#aq)" fill-rule="evenodd"/>
<path d="m10.3 222.2q4.35 8.5 0.35 19l-6.2 2.8q2.25-12.8-0.9-27.65l1.15-9.1 6.55 1.6-0.95 12.95v0.4" fill="url(#ap)" fill-rule="evenodd"/>
<path d="m11 241.3q1.2 22.1 15.75 35.8l-11.35-10.2-11.25-16.65v-5.75l6.85-3.2" fill="url(#ao)" fill-rule="evenodd"/>
<path d="m37.7 200.6 0.95-1.5 7.4 2.3-8.35-0.8" fill="url(#an)" fill-rule="evenodd"/>
<path d="m23.55 2.7-0.3-2.7 0.1-0.35q12.7 16.45 20 58.65l0.1 6.25 2.15 13.5 2.5 3.4h-5.05l-5.15-14.9-0.9-10.95q0.6-11.85-10.9-27.15l-0.4-0.55-0.05-0.7 0.65-1.25q0.2-4.25-0.25-9.1-0.65-6.55-2.5-14.15" fill="url(#am)" fill-rule="evenodd"/>
<path d="m43.8 110.1 0.1-0.05 0.1 1.5v0.1q0.4 8.05 2.65 15.65l-4.55-3.95-0.25-0.25q-5.9-6.45-0.95-12.45h0.05l2.85-0.55" fill="url(#al)" fill-rule="evenodd"/>
<path d="m42.05 165.05-2.95-16q0.1-15.25 2.75-25.55l5 4.25q-7 15.25 1.7 36.3l0.05 0.1h-0.05l-0.65 0.1-5.8 0.85-0.05-0.05" fill="url(#ak)" fill-rule="evenodd"/>
<path d="m40.9 110.65q-2.7-15.75 2.25-29h4.4q-6.35 6.6-3.75 28.45l-2.85 0.55h-0.05" fill="url(#aj)" fill-rule="evenodd"/>
<path d="m47.9 164.25q-6.8 16.7 0.75 37.4l0.05 0.15-0.6-0.15-0.3-0.1-8.75-2.45 2.7-34h0.05l0.25-0.05 0.05 0.05 5.8-0.85" fill="url(#ai)" fill-rule="evenodd"/>
<path d="m48.1 201.65 4.5 14.6 0.05 0.5q-1.15 16.1 1.55 32.15l-4.75 0.05q-9.6-7.4-6.6-34.25l-5.4-14.15 0.25 0.05 8.35 0.8 1.75 0.15 0.3 0.1" fill="url(#ag)" fill-rule="evenodd"/>
</g>
<radialGradient id="bc" cx="0" cy="0" r="819.2" gradientTransform="matrix(.185 0 0 .185 43.95 129.25)" gradientUnits="userSpaceOnUse">
<stop stop-color="#d9d9d9" offset="0"/>
<stop stop-color="#666" offset="1"/>
</radialGradient>
<linearGradient id="bb" x1="-819.2" x2="819.2" gradientTransform="matrix(0 .1148 -.1522 0 28.95 308.7)" gradientUnits="userSpaceOnUse">
<stop stop-color="#666" offset="0"/>
<stop offset="1"/>
</linearGradient>
<linearGradient id="as" x1="-819.2" x2="819.2" gradientTransform="matrix(0 .1148 -.1522 0 28.95 308.7)" gradientUnits="userSpaceOnUse">
<stop stop-color="#4d4d4d" offset="0"/>
<stop offset="1"/>
</linearGradient>
<linearGradient id="ah" x1="-819.2" x2="819.2" gradientTransform="matrix(0 .1148 -.1522 0 28.95 308.7)" gradientUnits="userSpaceOnUse">
<stop stop-color="#4f4f4f" offset="0"/>
<stop offset="1"/>
</linearGradient>
<linearGradient id="w" x1="-819.2" x2="819.2" gradientTransform="matrix(0 .1148 -.1522 0 28.95 308.7)" gradientUnits="userSpaceOnUse">
<stop stop-color="#5e5e5e" offset="0"/>
<stop offset="1"/>
</linearGradient>
<linearGradient id="d" x1="-819.2" x2="819.2" gradientTransform="matrix(0 .1148 -.1522 0 28.95 308.7)" gradientUnits="userSpaceOnUse">
<stop stop-color="#636363" offset="0"/>
<stop offset="1"/>
</linearGradient>
<linearGradient id="s" x1="-819.2" x2="819.2" gradientTransform="matrix(0 .1148 -.1522 0 28.95 308.7)" gradientUnits="userSpaceOnUse">
<stop stop-color="#525252" offset="0"/>
<stop offset="1"/>
</linearGradient>
<linearGradient id="c" x1="-819.2" x2="819.2" gradientTransform="matrix(0 .1148 -.1522 0 28.95 308.7)" gradientUnits="userSpaceOnUse">
<stop stop-color="#757575" offset="0"/>
<stop offset="1"/>
</linearGradient>
<linearGradient id="r" x1="-819.2" x2="819.2" gradientTransform="matrix(0 .1148 -.1522 0 28.95 308.7)" gradientUnits="userSpaceOnUse">
<stop stop-color="#6b6b6b" offset="0"/>
<stop offset="1"/>
</linearGradient>
<linearGradient id="q" x1="-819.2" x2="819.2" gradientTransform="matrix(0 .1148 -.1522 0 28.95 308.7)" gradientUnits="userSpaceOnUse">
<stop stop-color="#575757" offset="0"/>
<stop offset="1"/>
</linearGradient>
<linearGradient id="ba" x1="-819.2" x2="819.2" gradientTransform="matrix(0 .1148 -.1522 0 28.95 308.7)" gradientUnits="userSpaceOnUse">
<stop stop-color="#707070" offset="0"/>
<stop offset="1"/>
</linearGradient>
<linearGradient id="az" x1="-819.2" x2="819.2" gradientTransform="matrix(0 .1148 -.1522 0 28.95 308.7)" gradientUnits="userSpaceOnUse">
<stop stop-color="#4a4a4a" offset="0"/>
<stop offset="1"/>
</linearGradient>
<linearGradient id="ay" x1="-819.2" x2="819.2" gradientTransform="matrix(0 .1148 -.1522 0 28.95 308.7)" gradientUnits="userSpaceOnUse">
<stop stop-color="#5c5c5c" offset="0"/>
<stop offset="1"/>
</linearGradient>
<linearGradient id="ax" x1="-819.2" x2="819.2" gradientTransform="matrix(0 .1148 -.1522 0 28.95 308.7)" gradientUnits="userSpaceOnUse">
<stop stop-color="#696969" offset="0"/>
<stop offset="1"/>
</linearGradient>
<linearGradient id="aw" x1="-819.2" x2="819.2" gradientTransform="matrix(0 .1148 -.1522 0 28.95 308.7)" gradientUnits="userSpaceOnUse">
<stop stop-color="#545454" offset="0"/>
<stop offset="1"/>
</linearGradient>
<linearGradient id="av" x1="-819.2" x2="819.2" gradientTransform="matrix(.0071 -.0263 .0526 .0142 12.95 45.2)" gradientUnits="userSpaceOnUse">
<stop stop-color="#fff" stop-opacity=".28235" offset="0"/>
<stop stop-color="#fafafa" stop-opacity="0" offset="1"/>
</linearGradient>
<linearGradient id="au" x1="-819.2" x2="819.2" gradientTransform="matrix(0 -.0168 .0268 0 7.75 105.35)" gradientUnits="userSpaceOnUse">
<stop stop-color="#fff" stop-opacity=".28235" offset="0"/>
<stop stop-color="#fafafa" stop-opacity="0" offset="1"/>
</linearGradient>
<linearGradient id="at" x1="-819.2" x2="819.2" gradientTransform="matrix(0 -.0062 .0288 0 6.55 142.1)" gradientUnits="userSpaceOnUse">
<stop stop-color="#fff" stop-opacity=".28235" offset="0"/>
<stop stop-color="#fafafa" stop-opacity="0" offset="1"/>
</linearGradient>
<linearGradient id="ar" x1="-819.2" x2="819.2" gradientTransform="matrix(-.0029 -.0237 .0111 -.0014 6.85 187.55)" gradientUnits="userSpaceOnUse">
<stop stop-color="#fff" stop-opacity=".28235" offset="0"/>
<stop stop-color="#fafafa" stop-opacity="0" offset="1"/>
</linearGradient>
<linearGradient id="aq" x1="-819.2" x2="819.2" gradientTransform="matrix(0 -.0046 .0075 0 9.15 166.05)" gradientUnits="userSpaceOnUse">
<stop stop-color="#fff" stop-opacity=".28235" offset="0"/>
<stop stop-color="#fafafa" stop-opacity="0" offset="1"/>
</linearGradient>
<linearGradient id="ap" x1="-819.2" x2="819.2" gradientTransform="matrix(0 -.0101 .0224 0 7.95 225.6)" gradientUnits="userSpaceOnUse">
<stop stop-color="#fff" stop-opacity=".28235" offset="0"/>
<stop stop-color="#fafafa" stop-opacity="0" offset="1"/>
</linearGradient>
<linearGradient id="ao" x1="-819.2" x2="819.2" gradientTransform="matrix(0 -.0138 .0219 0 9.35 251.95)" gradientUnits="userSpaceOnUse">
<stop stop-color="#fff" stop-opacity=".28235" offset="0"/>
<stop stop-color="#fafafa" stop-opacity="0" offset="1"/>
</linearGradient>
<linearGradient id="an" x1="-819.2" x2="819.2" gradientTransform="matrix(.0051 0 0 .0014 41.85 200.25)" gradientUnits="userSpaceOnUse">
<stop stop-color="#fff" stop-opacity=".28235" offset="0"/>
<stop stop-color="#fafafa" stop-opacity="0" offset="1"/>
</linearGradient>
<linearGradient id="am" x1="-819.2" x2="819.2" gradientTransform="matrix(.0058 .0368 -.0492 .0077 49.25 37.75)" gradientUnits="userSpaceOnUse">
<stop stop-opacity="0" offset="0"/>
<stop stop-opacity=".4" offset=".98824"/>
</linearGradient>
<linearGradient id="al" x1="-819.2" x2="819.2" gradientTransform="matrix(.004 .0149 -.0101 .0027 44.5 118.95)" gradientUnits="userSpaceOnUse">
<stop stop-opacity="0" offset="0"/>
<stop stop-opacity=".67059" offset="1"/>
</linearGradient>
<linearGradient id="ak" x1="-819.2" x2="819.2" gradientTransform="matrix(0 -.0226 .0254 0 43.85 144.3)" gradientUnits="userSpaceOnUse">
<stop stop-opacity=".42353" offset="0"/>
<stop stop-opacity=".12157" offset="1"/>
</linearGradient>
<linearGradient id="aj" x1="-819.2" x2="819.2" gradientTransform="matrix(.0036 -.0134 .0171 .0046 44.05 92.3)" gradientUnits="userSpaceOnUse">
<stop stop-opacity=".30196" offset="0"/>
<stop stop-opacity="0" offset="1"/>
</linearGradient>
<linearGradient id="ai" x1="-819.2" x2="819.2" gradientTransform="matrix(.0015 -.0057 .0221 .0059 43.9 179.25)" gradientUnits="userSpaceOnUse">
<stop stop-opacity=".28235" offset="0"/>
<stop stop-opacity="0" offset="1"/>
</linearGradient>
<linearGradient id="ag" x1="-819.2" x2="819.2" gradientTransform="matrix(.0049 -.0182 .0285 .0076 45.8 224.75)" gradientUnits="userSpaceOnUse">
<stop stop-opacity=".2902" offset="0"/>
<stop stop-opacity="0" offset="1"/>
</linearGradient>
<g id="b" transform="translate(.5 .5)">
<use transform="translate(-.5 -.5)" width="18.25" height="16.5" xlink:href="#o"/>
</g>
<g id="o" transform="translate(.5 .5)">
<path d="m15.8 3.35 0.2 0.35-0.85-0.3 0.05-0.45 0.6 0.4-0.6-0.4-0.05 0.45 0.85 0.3q2.05 3.5 0.35 6.05l0.3 0.1-0.3-0.1q1.7-2.55-0.35-6.05l-7.35 3.9 2.65-7.25-2.65 7.25 7.35-3.9q1.25 1.75 1.25 4.05 0 3.2-2.55 5.45-1.05 0.95-2.25 1.55l-0.15-0.25q2.8-1.25 3.85-4.2l0.25-0.25-0.05-0.3 0.05 0.3-0.25 0.25q-1.05 2.95-3.85 4.2l0.15 0.25-0.3 0.1q-1.6 0.65-3.55 0.65l-2.7-0.35 0.15-0.45-0.15 0.45-0.2-0.05-0.85-0.35q-1.3-0.55-2.35-1.55l-0.15-0.15-1.2-1.45-0.4-0.6-0.1-0.3-0.25-0.6q-0.4-1.05-0.4-2.2v-0.2q0-1.3 0.45-2.45l0.2-0.5-0.2 0.5 0.2-0.5 0.4-0.75q0.55-0.95 1.45-1.75 0.7-0.65 1.5-1.05l0.2-0.15 0.15-0.05 0.05 0.05-0.4 0.15 0.4-0.15-0.05-0.05 0.1-0.05h0.05v-0.05 0.05h-0.05l0.05-0.05 0.35-0.15 0.05 0.15-0.05-0.15q1.7-0.75 3.75-0.75l2.6 0.35h0.1l0.15 0.05h0.05l1 0.4 2.2 1.45 1.1 1.1m-4.35-2.95 1.05 0.4-1.05-0.4m-0.15 5 3.85-2-3.85 2m5.05 4.35-4.7-1.5 4.7 1.5m-1.15-6.8-0.4-0.6 0.4 0.6m-10.3-2.05-0.4 0.05 0.4-0.05 3.55 6.8-0.15 0.1-6.85 3.65-0.3 0.15 0.3-0.15 6.85-3.65-7.65-2.5-0.2-0.05 0.2 0.05 0.4-1.3-0.4 1.3 7.65 2.5 0.15-0.1-3.55-6.8q3.15-1.3 6.3-0.55-3.15-0.75-6.3 0.55m-0.4 0.05-0.1 0.1 0.1-0.1m-4.05 4.3-0.45 2.65 0.45-2.65m5.15 3.4-4.7 2.3 0.55 0.5-0.55-0.5 4.7-2.3m-4.95 2.05 0.25 0.25-0.15 0.05 0.15-0.05-0.25-0.25m-0.25-0.6 0.45 0.8-0.45-0.8m15.75 0.2-7.6-2.45 0.1-0.25-0.1 0.25 7.6 2.45m-6.25 0.2-1.35-2.6v-0.05h-0.05l-0.05-0.15 0.2-0.1-0.2 0.1 0.05 0.15h0.05v0.05l1.35 2.6 2.4 3.95v0.05-0.05l-2.4-3.95 2.05 3.95-2.05-3.95m-3.85 4.2 2.5-6.8-0.05-0.05-0.2-0.05 0.2 0.05 0.05 0.05-2.5 6.8 5.9-0.25-5.9 0.25h-0.3 0.3m0.6-9.1-2.25-4.55 2.25 4.55m-5.2 5.85q0.3 0.9 0.9 1.6-0.6-0.7-0.9-1.6m10.7 3.4-0.2-0.4 0.2 0.4m0.15-0.4h-0.35 0.35" fill="#4a4a4a" fill-rule="evenodd"/>
<path d="m16 3.7-0.2-0.35m-3.3-2.55 2.2 1.45 1.1 1.1m-4.5-3-2.65 7.25 7.35-3.9m-4.5-3.3 1 0.4m-0.05 13.95q1.2-0.6 2.25-1.55 2.55-2.25 2.55-5.45 0-2.3-1.25-4.05m-11.8-2.65-0.2 0.15m0.5-0.3-0.05 0.05m0.45-0.05-0.05-0.15-0.35 0.15m-3.85 3.85-0.2 0.5q-0.45 1.15-0.45 2.45v0.2m0.45-2.65 0.2 0.05m0.4-1.3-0.4 0.75m0.4-0.75q0.55-0.95 1.45-1.75 0.7-0.65 1.5-1.05m-1.65 11.85-1.2-1.45-0.4-0.6-0.1-0.3-0.25-0.6m0.75 1.5 0.3-0.15 6.85-3.65-7.65-2.5m8 2.3-0.1 0.25 7.6 2.45m-7.85-2.5 0.15-0.1-3.55-6.8m6.3-0.55-2.6-0.35q-2.05 0-3.75 0.75m3.8 6.85-0.2 0.1 0.05 0.15h0.05v0.05l1.35 2.6m-1.6-2.7 0.2 0.05 0.05 0.05-2.5 6.8-0.15 0.45-0.2-0.05m6.25-0.65-2.05-3.95m2.55 4.25-0.3 0.1q-1.6 0.65-3.55 0.65l-2.7-0.35-0.15 0.35m-0.9-0.75q-1.3-0.55-2.35-1.55l-0.15-0.15m9.6 1.4 0.2 0.4" fill="none" stroke="#333" stroke-linecap="round" stroke-linejoin="round" stroke-opacity=".10196"/>
<path d="m15.8 3.35-0.6-0.4-0.05 0.45 0.85 0.3q2.05 3.5 0.35 6.05l0.3 0.1m-1.85-7.5q-0.75-0.9-2.3-1.55l-1.05-0.4-0.15-0.05m-0.1 0h0.1m0.15 0.05h0.05m3.65 3-3.85 2m5.05 4.35 0.05 0.3-0.25 0.25q-1.05 2.95-3.85 4.2l0.15 0.25m2.35-12.4 0.4 0.6m-3.55 5.3 4.7 1.5m-12.35-8.55 0.4-0.15-0.05-0.05-0.15 0.05m0.25-0.1h0.05v-0.05m-0.05 0.05-0.1 0.05m0.15-0.05 0.4-0.05q3.15-1.3 6.3-0.55m-6.8 0.7 0.1-0.1m-4.05 4.3 0.2-0.5m-0.65 3.15 0.45-2.65m0.2 0.05 0.4-1.3m2.95-2.8q-2.15 0.85-2.95 2.8m-0.65 6.1q-0.4-1.05-0.4-2.2m0.75 3.1 0.15-0.05-0.25-0.25m0.8 0.75-0.55-0.5 4.7-2.3m-4.75 2.25-0.45-0.8m9.5 0.4 2.4 3.95v0.05m-6.25 0.2 5.9-0.25h0.35m-7.9-13.4 2.25 4.55m-0.95 9.5-0.85-0.35q-1.6-0.65-2.5-1.7-0.6-0.7-0.9-1.6m4.3 3.25h0.3" fill="none" stroke="#fff" stroke-linecap="round" stroke-linejoin="round" stroke-opacity=".10196"/>
</g>
<g id="a" transform="translate(.05 2)">
<use transform="translate(-.05 -.5)" width="35.400002" height="35.400002" xlink:href="#g"/>
<use transform="matrix(.866 -.5 .4299 .7446 1.4 6.2)" width="16.4" height="16.4" xlink:href="#f"/>
<use transform="translate(8.05,2.9)" width="4.8499999" height="4.4000001" xlink:href="#l"/>
</g>
<g id="g" transform="translate(.5 .5)">
<use transform="translate(-.5 -.5)" width="35.400002" height="35.400002" xlink:href="#n"/>
</g>
<g id="n" transform="translate(.5 .5)">
<path d="m28.6 17.65q0 4.8-3.35 8.15t-8.15 3.35q-4.75 0-8.1-3.35t-2.8-4.45q0.5-1.15 13.65-4.45-11.55-6.65-10.85-7.35 3.35-3.35 8.1-3.35 4.8 0 8.15 3.35t3.35 8.1" fill="#1f8fc7" fill-opacity=".8" fill-rule="evenodd"/>
<path d="m20.1 0.25q5.25 0.8 9.25 4.8 5.05 5.05 5.05 12.15t-5.05 12.15q-4.65 4.65-11.1 5.05 16.5-12.5 1.85-34.15" fill="#176891" fill-opacity=".8" fill-rule="evenodd"/>
<path d="m18.25 34.4h-1.05q-7.1 0-12.15-5.05t-5.05-12.15 5.05-12.15 12.15-5.05l2.9 0.25q14.65 21.65-1.85 34.15" fill="#1f8fc7" fill-opacity=".8" fill-rule="evenodd"/>
<path d="m20.1 0.25q5.25 0.8 9.25 4.8 5.05 5.05 5.05 12.15t-5.05 12.15q-4.65 4.65-11.1 5.05h-1.05q-7.1 0-12.15-5.05t-5.05-12.15 5.05-12.15 12.15-5.05z" fill="none" stroke="#17170c" stroke-linecap="round" stroke-linejoin="round" stroke-opacity=".25098"/>
<path d="m15.75 8.25-1.7-3.7m8.4 4.7 1.45-3.65m2.8 9.25 3.1-0.95" fill="none" stroke="#abe3ff" stroke-linecap="round" stroke-linejoin="round" stroke-opacity=".2"/>
<path d="m1.55 13.9h0.1q1.35 4.35 2 5.4 2 3.6 6 3.6l2.4-0.3 2.5-0.3q1.5 0 2.2 0.6 1 0.85 1 3.1t-1.4 3.9q-1.5 1.8-3.8 1.8-3.55 0-7-4.6-4-5.35-4-13.2" fill="#29b8ff" fill-rule="evenodd"/>
<path d="m22.7 2.25q3.5 2.25 6.8 6.15l0.35 0.35q5.45 7.4 0 17.1l-1.35 2.15q-3.8 3.25-6.9 3.85 6.5-7.15 7-15.45 0.45-8.35-5.9-14.15" fill="#176891" fill-rule="evenodd"/>
</g>
<g id="f">
<use width="16.4" height="16.4" xlink:href="#m"/>
</g>
<g id="m">
<path d="m14 14q-2.4 2.4-5.8 2.4t-5.8-2.4-2.4-5.8 2.4-5.8 5.8-2.4 5.8 2.4 2.4 5.8-2.4 5.8" fill="url(#af)" fill-rule="evenodd"/>
</g>
<radialGradient id="af" cx="0" cy="0" r="819.2" gradientTransform="matrix(.011 0 0 .011 8.2 8.2)" gradientUnits="userSpaceOnUse">
<stop stop-color="#f9fede" offset="0"/>
<stop stop-color="#fff" stop-opacity="0" offset="1"/>
</radialGradient>
<g id="l" transform="translate(-8.05,-2.9)">
<path d="m12.15 6.65q-0.7 0.65-1.7 0.65t-1.7-0.65-0.7-1.55 0.7-1.55 1.7-0.65 1.7 0.65q0.75 0.65 0.75 1.55t-0.75 1.55" fill="#fff" fill-rule="evenodd"/>
</g>
<g id="e" transform="translate(.5 9)">
<use transform="translate(-.5 -9)" width="87.5" height="129" xlink:href="#k"/>
</g>
<g id="k" transform="translate(.5 9)">
<path d="m43.15 28.5 0.05 0.1v0.75l-0.1 0.2 0.05-1.05-0.05 1.05v0.05-0.05l0.35 0.85-0.35-0.8-0.35-0.85-1.65-3.8 1.8 3.1 0.2 0.4 0.05 0.05" fill="#525252" fill-opacity=".45098" fill-rule="evenodd"/>
<path d="m81.85 26.85 4.6 18.05 0.05 0.15-0.6-0.5 0.55 0.35-0.55-0.35-8.5-15.45q2.2-1.15 4.45-2.25m-37.05 90.45-12.5-32 5.15-12.35 6.4 4.65 0.1-0.05 0.85 39.75m-6.3-45.75 0.4-0.2v-0.9l-6.65-7.95 6.2-8.75 5.05 2.25v0.45l0.4 18.2-0.7 0.25-5.1-3.2 0.4-0.15m-3.25-20.9-0.4-0.25h-0.75q0.3-3.1-0.1-5.8l9.15-5.75-0.05-0.05v-9.2l0.35 0.8 0.2 8.05 0.45-0.3-0.65 15.5-0.25 0.05-7.95-3.05m-34.9-5.9-0.35 0.35 0.15-0.7 0.2 0.35m8.5-25.95 11.1-9.7 5.3 4.6 0.2 0.55-12.95 7.9-0.1 0.05-0.2-0.35-3.35-3.05m9.2-10.8-0.15-0.1 4.15-6.55 8 7.65 3.4-5.8 9-8.65 9.4 8.1 0.1 0.05-0.4 7.55-3.5 2.8-0.5 0.3-0.15 0.5-8.85-0.9 4.35 15.1-1.8-3.1 1.65 3.8-14.8-13.05 0.75 5.1-1.4-8.1-6.9-7.2-2.35 2.5m37.9 1.3 6.6-7 4.4 6.4-0.25 0.2-3.3-2.7-6.25 6.6-1 5.45-12.85 11 0.15 1.15-0.35-0.85 0.1-0.2v-0.15l7.9-14.85 4.85-5.05m9.05 0.65 11.5 9.2-3.1 2.75 3.1-2.75 0.4-0.4 5.7-5.75-5.25 16.05-3.95-7.15v-0.05l-0.1-0.05-14.15-7.6 0.05-0.15 5.8-4.1m-10.6 20.85 0.1-0.1v0.1h-0.1m-23.5 0.7-0.45-0.25h0.05l0.3-0.05 0.1 0.3-0.4-0.25 0.4 0.25m-0.85-22.5 4 3.85 7.05 12.1-7.05-12.1-4-3.85" fill="#525252" fill-rule="evenodd"/>
<path d="m24.8 32.2-4.7-1.15-0.9-0.3q0 0.5-0.45 0.2t-4.8 0.65q-4.4 0.9-13.6 13.15l-0.2-0.35 9.2-16.45 0.45 0.1-0.25-0.5 0.3-0.5v-0.05l2.6-4.65-0.05-0.15 0.1-0.05 12.95-7.9 4.6 14.55 0.75 2.4-0.3 0.05h-0.05l-5.65 0.95m-5.6-1.45-6.7-8.6 6.7 8.6" fill="url(#ae)" fill-rule="evenodd"/>
<path d="m3.85 26.45-1.75-13.65 7.45 14.75 0.25 0.5-0.45-0.1-5.5-1.5" fill="url(#ad)" fill-rule="evenodd"/>
<path d="m0.15 44.4 3.7-17.65v-0.3l5.5 1.5-9.2 16.45" fill="#424242" fill-rule="evenodd"/>
<path d="m42.75 28.75 0.35 0.85v9.2l-12.2-7.3-0.1-0.3-0.75-2.4-1.35-8-0.75-5.1 14.8 13.05" fill="url(#ac)" fill-rule="evenodd"/>
<path d="m66.7 8.9-1.55 0.9-0.2 0.1 0.05 0.05-5.8 4.1-0.05 0.15-4.65 16.5-0.1 0.1-0.55 0.15 0.15-0.15 2.4-12.8-0.25 0.25 1-5.45 6.25-6.6 3.3 2.7m-23.6 19.55-0.2-0.4-4.35-15.1 8.85 0.9-4.3 14.6" fill="#454545" fill-rule="evenodd"/>
<path d="m19.8 8.95-1.75-0.95 2.35-2.5 6.9 7.2 1.4 8.1 1.35 8-4.6-14.55-0.2-0.55-5.3-4.6v-0.05l-0.15-0.1" fill="#666" fill-rule="evenodd"/>
<path d="m85.9 44.55-2.5-2.65q-1.65-2-4.05-3.75l-0.45-0.35q-4.55-4.45-9.4-7.1-5.6-2.15-8.55-0.6-2.8 1.45-2.5 1.6l-3.95-0.9v-0.1l4.65-16.5 14.15 7.6 0.1 0.05v0.05l3.95 7.15 0.05 0.05 8.5 15.45m-16.4-13.85 0.15-0.35-0.15 0.35m0.15-0.35 3.65-8.55-3.65 8.55" fill="url(#ab)" fill-rule="evenodd"/>
<path d="m82.6 13 0.35-0.35 0.05-0.1-1.15 14.3q-2.25 1.1-4.45 2.25l-0.05-0.05 5.25-16.05m-26.45 5.25 0.25-0.25-2.4 12.8-0.15 0.15h-0.05l-0.3 0.25-5.6 4.25-3.8 2.7-0.45 0.3-0.2-8.05-0.15-1.15 12.85-11" fill="#383838" fill-rule="evenodd"/>
<path d="m2.1 12.8-0.05-0.35 6.8 6.35 3.35 3.05 0.2 0.35 0.05 0.15-2.6 4.65v0.05l-0.3 0.5-7.45-14.75" fill="#4d4d4d" fill-rule="evenodd"/>
<path d="m58.45 31.7h0.05v0.05q-6.95 7.55-6 19.8l-9.05 2.1 0.65-15.5 3.8-2.7 5.6-4.25 0.3-0.25h0.05l0.55-0.15h0.1l3.95 0.9m-10.95 22.55 7.55 9.55-7.3 7.95 0.5 0.85 0.25 0.35 7.05 11.4-10.75 35.15v-2.2l-0.85-39.75 2.55-3.9-2.6 1-0.4-18.2 4-2.2m1 18.7-2 0.7 2-0.7" fill="#3a3a3a" fill-rule="evenodd"/>
<path d="m51.95 2.7 0.25 0.25 0.25 0.2 3.5 6.15-4.85 5.05-7.9 14.85v-0.6l-0.05-0.1-0.05-0.05 4.3-14.6 0.15-0.5 0.5-0.3 3.5-2.8 0.4-7.55" fill="#404040" fill-rule="evenodd"/>
<path d="m52.5 51.55-5 2.7-4 2.2v-0.45l-5.05-2.25-0.15-0.05-3.45-1.55 0.4-1.5 7.95 3.05 0.25-0.05 9.05-2.1m-15.05 21.4 0.6-1.25h0.05l5.1 3.2 0.7-0.25 2.6-1-2.55 3.9-0.1 0.05-6.4-4.65" fill="#333" fill-rule="evenodd"/>
<path d="m34 44.6q-0.4-2.4-1.3-4.45l-0.75-1.5q-2.3-3.95-7-6.45h-0.15l5.65-0.95 0.45 0.25 12.2 7.3 0.05 0.05-9.15 5.75" fill="url(#aa)" fill-rule="evenodd"/>
<path d="m82.95 12.65 0.05-0.1-1.15 14.3 4.6 18.05 0.05 0.15-0.6-0.5-2.5-2.65q-1.65-2-4.05-3.75l-0.45-0.35q-4.55-4.45-9.4-7.1-5.6-2.15-8.55-0.6-2.8 1.45-2.5 1.6m0.05 0v0.05q-6.95 7.55-6 19.8l-5 2.7 7.55 9.55-7.3 7.95 0.75 1.2 7.05 11.4-10.75 35.15v-2.2l-12.5-32 5.15-12.35 0.6-1.25h0.05l0.4-0.15m0.4-0.2v-0.9l-6.65-7.95 6.2-8.75-0.15-0.05-3.45-1.55 0.4-1.5-0.4-0.25h-0.75q0.3-3.1-0.1-5.8-0.4-2.4-1.3-4.45l-0.75-1.5q-2.3-3.95-7-6.45m-4.85-1.15-0.9-0.3q0 0.5-0.45 0.2t-4.8 0.65q-4.4 0.9-13.6 13.15l-0.35 0.35m0.15-0.7 3.7-17.65v-0.3l-1.75-13.65-0.05-0.35 6.8 6.35 11.1-9.7-0.15-0.15-1.75-0.95-0.15-0.1 4.15-6.55 8 7.65m25.9 0.3 6.6-7 4.4 6.4-0.25 0.2-1.55 0.9-0.15 0.15 11.5 9.2 0.4-0.4 5.7-5.75m3.85 31.9-0.55-0.35m-20.75-34.75-0.2 0.1 0.05 0.05m11.5 9.2 0.4-0.4m-22.5 12.05 0.1-0.1m-11.3-1.5 7.9-14.85 4.85-5.05m-12.75 19.9v-0.6l-0.05-0.1-0.05 1.05 0.1-0.2v-0.15m-0.05-0.7-0.05-0.05-0.2-0.4-1.8-3.1-7.05-12.1-4-3.85m39.6 21.35-0.15 0.35m-38.6 0.8-0.4-0.25m-10.7-22.3 0.15 0.1v0.05m28.3 63.5-0.5-0.85" fill="none" stroke="#000" stroke-linecap="round" stroke-linejoin="round" stroke-opacity=".2"/>
<path d="m82.6 13 0.35-0.35m-24.5 19.05h0.05m-20.4 40 0.4-0.15 0.4-0.2m-13.95-39.15h-0.15l-4.7-1.15m9.95-22.05 3.4-5.8 9-8.65 9.4 8.1 0.1 0.05 0.25 0.25m0.25 0.2 3.5 6.15m21.45 19.8q2.2-1.15 4.45-2.25m-16.85-16.9-5.8 4.1-0.05 0.15m14.25 7.7 3.1-2.75m-22.65 11.8 0.55-0.15h0.1l3.95 0.9m-3.95-1 4.65-16.5m-16.05 15.4v-0.05m4.8 5.9 5.6-4.25m-10.4-1.6v9.2l-12.2-7.3m-0.45-0.25-5.65 0.95m48.5-10.4-3.65 8.55m-39.6-1.55 0.75 2.4 0.1 0.3m-0.4-0.25h-0.05m-10.5-22.15 5.3 4.6 0.2 0.55 4.6 14.55m-21.2-10 3.35 3.05 0.2 0.35 0.05 0.15m0.05-0.2 6.7 8.6m16.05 19.9 7.95 3.05 0.25-0.05 9.05-2.1m-6 22.1 2-0.7-0.25-0.35m-4.35 2.05-0.7 0.25-5.1-3.2m8.4 1.95-2.6 1" fill="none" stroke="#000" stroke-linecap="round" stroke-linejoin="round" stroke-opacity=".10196"/>
<path d="m44.05 40.35 0.05 10.3-0.45-0.35q-2.45-2-5.1-3.4-4-2.1-5.85-1.7v-6.45l11.35 1.6" fill="url(#z)" fill-rule="evenodd"/>
<path d="m43.65-9 0.3 0.75-0.95 0.4 0.65-1.15m-2.5 5.65 1.65-1.4 0.7 0.55 5.9 4.7 2.2 1.8 0.85 0.8-1.15 6.6 0.35 0.45-4.45 3.5v0.35l-8.95-0.9-3.4-2.75-0.95-6.65 2.7-3.55 0.25-0.15q1.7-1.15 4.3-3.35" fill="url(#y)" fill-rule="evenodd"/>
<path d="m9.55 18.5 10.15-8.95 0.15 0.2 5.3 4.6-11.8 7.35-0.1-0.1-3.7-3.1" fill="url(#x)" fill-rule="evenodd"/>
<path d="m77.1 28.35-3.4-6.45 8.7-8.25-5.3 14.7" fill="url(#v)" fill-rule="evenodd"/>
<path d="m40.45 64.9q-3.3-1.45-5.35-1.8v-12.45l3.9 2.25q5.35 2.8 6.55 2.8l0.95-0.05v12.45l-0.05-0.05q-2.9-1.8-6-3.15" fill="url(#u)" fill-rule="evenodd"/>
<path d="m34.45 73.45 4.75 2.85 4.75 2.65 0.85-0.1v13.9q-2.15-1.95-6.25-4.5-3.2-1.95-5.2-2.6v-12.7l1.1 0.5" fill="url(#t)" fill-rule="evenodd"/>
</g>
<linearGradient id="ae" x1="-819.2" x2="819.2" gradientTransform="matrix(.0119 .017 -.0152 .0106 29.3 26.95)" gradientUnits="userSpaceOnUse">
<stop stop-color="#525252" offset="0"/>
<stop offset="1"/>
</linearGradient>
<linearGradient id="ad" x1="-819.2" x2="819.2" gradientTransform="matrix(.0033 .0123 -.0084 .0022 8.8 26.95)" gradientUnits="userSpaceOnUse">
<stop stop-color="#525252" offset="0"/>
<stop offset="1"/>
</linearGradient>
<linearGradient id="ac" x1="-819.2" x2="819.2" gradientTransform="matrix(.0197 .0341 -.0122 .007 44.7 40.8)" gradientUnits="userSpaceOnUse">
<stop stop-color="#525252" offset="0"/>
<stop offset="1"/>
</linearGradient>
<linearGradient id="ab" x1="-819.2" x2="819.2" gradientTransform="matrix(.004 .0398 -.0184 .0019 65.05 39.6)" gradientUnits="userSpaceOnUse">
<stop stop-color="#525252" offset="0"/>
<stop offset="1"/>
</linearGradient>
<linearGradient id="aa" x1="-819.2" x2="819.2" gradientTransform="matrix(-.0126 -.0219 .007 -.0041 29.2 30.85)" gradientUnits="userSpaceOnUse">
<stop stop-color="#525252" offset="0"/>
<stop offset="1"/>
</linearGradient>
<linearGradient id="z" x1="-819.2" x2="819.2" gradientTransform="matrix(-.0061 .0227 -.0415 -.0111 37.55 70.2)" gradientUnits="userSpaceOnUse">
<stop stop-color="#fff" stop-opacity="0" offset="0"/>
<stop stop-color="#fff" stop-opacity=".090196" offset="1"/>
</linearGradient>
<radialGradient id="y" cx="0" cy="0" r="819.2" gradientTransform="matrix(.0172 0 0 .0172 46.65 6.75)" gradientUnits="userSpaceOnUse">
<stop stop-color="#fff" stop-opacity=".30196" offset="0"/>
<stop stop-color="#fafafa" stop-opacity="0" offset="1"/>
</radialGradient>
<linearGradient id="x" x1="-819.2" x2="819.2" gradientTransform="matrix(.0022 .0028 -.0059 .0045 17.4 15.7)" gradientUnits="userSpaceOnUse">
<stop stop-color="#fff" stop-opacity="0" offset="0"/>
<stop stop-color="#fff" stop-opacity=".10196" offset="1"/>
</linearGradient>
<linearGradient id="v" x1="-819.2" x2="819.2" gradientTransform="matrix(-.0038 .0037 -.0063 -.0064 80.1 20.65)" gradientUnits="userSpaceOnUse">
<stop stop-color="#fff" stop-opacity="0" offset="0"/>
<stop stop-color="#fff" stop-opacity=".10196" offset="1"/>
</linearGradient>
<linearGradient id="u" x1="-819.2" x2="819.2" gradientTransform="matrix(-.0061 .0227 -.0415 -.0111 39.95 71.3)" gradientUnits="userSpaceOnUse">
<stop stop-color="#fff" stop-opacity="0" offset="0"/>
<stop stop-color="#fff" stop-opacity=".22353" offset="1"/>
</linearGradient>
<linearGradient id="t" x1="-819.2" x2="819.2" gradientTransform="matrix(-.0061 .0227 -.0415 -.0111 38.2 74.05)" gradientUnits="userSpaceOnUse">
<stop stop-color="#fff" stop-opacity="0" offset="0"/>
<stop stop-color="#fff" stop-opacity=".10196" offset="1"/>
</linearGradient>
</defs>
</svg>
