<?xml version="1.0" encoding="UTF-8"?>
<svg version="1.1" viewBox="0 0 33.05 49.95" xmlns="http://www.w3.org/2000/svg" xmlns:cc="http://creativecommons.org/ns#" xmlns:dc="http://purl.org/dc/elements/1.1/" xmlns:rdf="http://www.w3.org/1999/02/22-rdf-syntax-ns#" xmlns:xlink="http://www.w3.org/1999/xlink">
<metadata>
<rdf:RDF>
<cc:Work rdf:about="">
<dc:format>image/svg+xml</dc:format>
<dc:type rdf:resource="http://purl.org/dc/dcmitype/StillImage"/>
</cc:Work>
</rdf:RDF>
</metadata>
<g transform="translate(-258.48 -175.48)">
<use transform="translate(258.45,175.5)" width="33.049999" height="49.950001" xlink:href="#a"/>
</g>
<defs>
<g id="a" transform="translate(-258.45,-175.5)">
<path d="m279.25 212.7h0.05l-8.75 0.75q-1.6 0.25-2.4 2.05v0.05l-0.4 0.8-0.5 0.95-0.6 0.95q-1.65 2.5-3.3 3.9l-0.25 0.15-0.2-0.45-0.3-0.35-0.45-0.4-0.1-0.05q2.3-2.6 3.95-5.6 0.5-0.9-0.45-3.9l0.1-1.05 0.05-0.05 1.1 3.2 0.05 0.15 1-1.55 11.4 0.45m-8.7 0.75-3.7 0.35 3.7-0.35" fill-rule="evenodd"/>
<path d="m262.5 201.75 3.75 5.9 0.65 1.05 1 1.5-0.1-0.05-3.75-5.85 3.5 6.45 0.75 0.6 0.4-0.6 0.05 0.05-0.9 1.45-0.1-0.1-5.25-10.4" fill="#676767" fill-rule="evenodd"/>
<path d="m260.5 220.75 0.1-0.35q0.55-2.15 2.15-4.65l0.65-0.95 0.65-0.85 0.55-0.7 0.05-0.05h0.05l0.85-1.65q0.95 3 0.45 3.9-1.65 3-3.95 5.6-0.75-0.45-1.55-0.3m5.15-10.25-0.1-0.4-3.05-8.35 5.25 10.4 0.1 0.1-1 1.55-0.05-0.15-1.1-3.2-0.05 0.05m-0.05-0.2 0.1 0.15-0.1-0.15m1.2 3.35 0.95-1.5-0.95 1.5" fill="#2d2d2d" fill-rule="evenodd"/>
<path d="m264.05 204.3 3.75 5.85 0.1 0.05 0.8 0.55-0.4 0.6-0.75-0.6-3.5-6.45" fill="#8c8c8c" fill-rule="evenodd"/>
<path d="m258.5 223.5 0.05-1 0.45 0.4q0.85 0.55 1.8 0.35t1.5-1.05l0.3-0.6v-0.1l0.3 0.35q0.05 0.8-0.4 1.55-0.55 0.85-1.45 1.05-0.95 0.2-1.8-0.35l-0.75-0.75v0.15m33-48-16.3 34.4-4.75 0.2-0.8 1.25-0.9-0.55 1.15-1.8h0.05v-0.05l17.1-26.55 4.45-6.9m-20.75 33.5 3.9-0.15 10.6-22.4-14.5 22.55" fill="#62a3ac" fill-rule="evenodd"/>
<path d="m258.65 222.15 0.2-0.35q0.55-0.85 1.5-1l0.15-0.05q0.8-0.15 1.55 0.3l0.1 0.05 0.45 0.4v0.1q-0.75-0.55-1.6-0.55h-0.2q-1.2 0.05-2.05 1.05l-0.1 0.05m9.25-11.95 0.8-1.2-1.8-4.4 24.6-29.1-4.45 6.9-18.85 22.25 1.75 4.3-0.05 0.05-1.15 1.8-0.05-0.05-0.8-0.55" fill="#e9f2f3" fill-rule="evenodd"/>
<path d="m269.65 211.35 9.6 1.35-11.4-0.45 0.9-1.45 0.9 0.55" fill="#aaa" fill-rule="evenodd"/>
<path d="m269.95 208.95-1.75-4.3 18.85-22.25-17.1 26.55" fill="#c4dcdf" fill-rule="evenodd"/>
<path d="m258.55 222.5 0.1-0.35 0.1-0.05q0.85-1 2.05-1.05h0.2q0.85 0 1.6 0.55l-0.3 0.6q-0.55 0.85-1.5 1.05t-1.8-0.35l-0.45-0.4m12.2-13.5 14.5-22.55-10.6 22.4-3.9 0.15" fill="#83b7be" fill-rule="evenodd"/>
<path d="m263.1 222.3 0.05 0.3q0.2 0.9-0.3 1.75-0.55 0.85-1.5 1.05l-1.8-0.3q-0.85-0.55-1-1.5l-0.05-0.1v-0.15l0.75 0.75q0.85 0.55 1.8 0.35 0.9-0.2 1.45-1.05 0.45-0.75 0.4-1.55l0.2 0.45" fill="#508b94" fill-rule="evenodd"/>
<path d="m279.3 212.7h0.1-0.15m0.05 0-8.75 0.75q-1.6 0.25-2.4 2.05v0.05l-0.4 0.8-0.5 0.95-0.6 0.95q-1.65 2.5-3.3 3.9l-0.25 0.15 0.05 0.3q0.2 0.9-0.3 1.75-0.55 0.85-1.5 1.05l-1.8-0.3q-0.85-0.55-1-1.5l-0.05-0.1 0.05-1 0.1-0.35 0.2-0.35q0.55-0.85 1.5-1l0.15-0.05 0.1-0.35q0.55-2.15 2.15-4.65l0.65-0.95 0.65-0.85 0.55-0.7 0.05-0.05h0.05l0.85-1.65 0.1-1.05-0.1-0.4-3.05-8.35 3.75 5.9m0.65 1.05 1 1.5 0.8-1.2-1.8-4.4 24.6-29.1-16.3 34.4-4.75 0.2-0.8 1.25 9.6 1.35m-12.4 1.1 3.7-0.35m-1.8-2.65 0.9 0.55m-3.95-0.9-0.1-0.15m-1.55-6 3.75 5.85 0.1 0.05 0.8 0.55 0.05 0.05m-1 1.35-0.95 1.5 0.05 0.15m-0.05-0.15-1.1-3.2m-3.65 10.6 0.1 0.05 0.45 0.4 0.3 0.35 0.2 0.45m-2.6-1.55q0.8-0.15 1.55 0.3m-3.55 2.45v-0.15" fill="none" stroke="#5f462e" stroke-linecap="round" stroke-linejoin="round" stroke-width=".05"/>
</g>
</defs>
</svg>
