<?xml version="1.0" encoding="UTF-8"?>
<svg version="1.1" viewBox="0 0 28.219 46.818" xmlns="http://www.w3.org/2000/svg" xmlns:cc="http://creativecommons.org/ns#" xmlns:dc="http://purl.org/dc/elements/1.1/" xmlns:rdf="http://www.w3.org/1999/02/22-rdf-syntax-ns#" xmlns:xlink="http://www.w3.org/1999/xlink">
<metadata>
<rdf:RDF>
<cc:Work rdf:about="">
<dc:format>image/svg+xml</dc:format>
<dc:type rdf:resource="http://purl.org/dc/dcmitype/StillImage"/>
</cc:Work>
</rdf:RDF>
</metadata>
<g transform="translate(-257.72 -178.41)">
<use transform="matrix(.4275 .0854 -.0854 .4275 266.12 175.45)" width="62.349998" height="104.5" xlink:href="#a"/>
</g>
<defs>
<g id="a" transform="translate(31.2,52.25)">
<path d="m0.6-40.25-0.25-0.65 0.05-0.75q0.45-0.9 1.05-1.15h0.15l0.45-5.85-0.1-0.05q-0.7 0.05-0.8-0.75v-0.05l0.1-1.05q0.05-1.75 3.5-1.7 3-0.1 4.15 1.7v1.1l-0.15 0.1q-0.25 0.75-0.8 0.65-0.6-0.95-2-1.1 1.55 3.5-0.65 6.65l2.1 0.65 0.15 0.05h0.05l1 0.8-0.2 1.85-0.6-0.8q-0.9-1.2-3.25-1.5-3.3 0.1-3.95 1.85m6.9-2.25 0.05 0.05-0.15-0.05h0.1m-2.15 28.2 1.65 1.5v1l-2-1.6-1.1 0.3h-0.05l0.15 1.05v0.15q0.3 3.6-0.8 7.3 1.65-0.25 3.35 1.4v0.05h0.15q8.8 0.3 15.25-1.95l3.7 5.5q-0.8 7.15-0.1 15.15l0.45 4.1 1.2 14.8q-1.15-0.1-2.2 0.5l-0.05-0.45-0.5-8.2-0.85-14.15q-0.25-5.95 0.05-11.4v-0.3l-3.1-3.6-2.35 0.85h-11.65l-0.75 0.55-0.8-0.7-0.05-0.05-1.4 1.1-0.55 5.05 1-2.05 0.25 0.55q-0.1 0.05-0.05 0.15-1.35 2.25-2.3 7.85-1.3-10.2-4.15-9.35l-0.3-1.35 0.15-1.75h-10.25l-3.95-0.95-3.1 3.8q-0.45 6.65-1.25 13.6l-5.75 20.4h-0.4l-1.5 0.4q7.05-19.55 7.3-34.55l4.2-5.5q6.05 2.3 15.25 1.95l1-9.65 1.45-1.5 3.2-0.3 1.55 0.3m-2.4-27.85 0.5-0.1 0.2-0.25-0.25-0.3-0.45-0.1-0.45 0.1q-0.25 0.1-0.2 0.3l0.2 0.25 0.45 0.1m-1.35-0.65q1.8-0.75 3.7-0.35-1.9-0.4-3.7 0.35m-0.95 31.95-0.1-1.5q-0.65 0-0.85 1.5-0.55 5.15-0.3 7.25 0.15 1.55 0.45 1.55t0.45-1.55q0.8-4.7 0.35-7.25m0.85 22.45v0.05l-0.1 0.45 0.1-0.5" fill="#fc0" fill-rule="evenodd"/>
<path d="m2.95-42.15-0.45-0.1-0.2-0.25q-0.05-0.2 0.2-0.3l0.45-0.1 0.45 0.1 0.25 0.3-0.2 0.25-0.5 0.1m-2.3 31.3q0.45 2.55-0.35 7.25-0.15 1.55-0.45 1.55t-0.45-1.55q-0.25-2.1 0.3-7.25 0.2-1.5 0.85-1.5l0.1 1.5m26.45 46 0.4 0.5-0.35 0.45-0.75 0.25-0.75-0.25-0.35-0.45q0-0.35 0.3-0.5l0.8-0.2 0.7 0.2m0.75 5.8 0.3 2.5v2.55l-0.3 1.05q-0.3 0-0.55-1.05l-0.2-2.55q-0.15-1.5 0-2.5 0.1-1.05 0.35-1.05 0.2 0 0.4 1.05m-55.8-5.8 0.45 0.1 0.15 0.4-0.2 0.35-0.45 0.15-0.4-0.15-0.15-0.35 0.15-0.4 0.45-0.1m-0.95 6.45v1.85l-0.2 1.8-0.3 0.8-0.2-0.8v-1.8l0.2-1.85q0.15-0.7 0.3-0.65l0.2 0.65" fill="#ffc" fill-rule="evenodd"/>
<path d="m31.15 38.5v0.15l-0.9 0.7 0.2 1.2q-1-1.3-1.95-1.6-1.45-0.5-3.05 1.05v-0.75l-1.35-0.85-0.1-0.15q2.45-2.45 4.55-1.9 1.35 0.3 2.6 2.15m-55.3 0.05-1.1 0.8-0.4 1.05 0.9 0.8-0.05 0.1q-1.6-1.5-3.15-1.5-1.5-0.1-3.05 1.2l0.6-0.6 0.2-0.9-0.8-0.7q1.9-2.2 3.6-2.25 1.75-0.15 3.25 2m28.4-36.4-0.25-0.55-1 2.05 0.55-5.05 1.4-1.1 0.05 0.05 0.8 0.7 0.75-0.55h11.65l2.35-0.85 3.1 3.6v0.3q-0.3 5.45-0.05 11.4l-0.2-3.5-0.25-3.6q-1.95-6.35-6.35-6.65h-9.4l-0.75 2.4q-1.35-0.4-2.4 1.35m-6.8-2.7-0.2-1.05h-9.4q-4.75 0.3-7 6.65l-2.5 13.7 0.7-4.6q0.8-6.95 1.25-13.6l3.1-3.8 3.95 0.95h10.25l-0.15 1.75" fill="#b47101" fill-rule="evenodd"/>
<path d="m7.95-48.7-0.05 0.05-0.4 6.15h-0.1l-2.1-0.65q2.2-3.15 0.65-6.65 1.4 0.15 2 1.1" fill="#de9600" fill-rule="evenodd"/>
<path d="m0.6-14.3 1.7-24.9q0.2-1 1-1.35l1.3-0.2 0.55 0.15 0.25 0.3-1.6 25.7-3.2 0.3" fill="#960" fill-rule="evenodd"/>
<path d="m8.4-39.8-1.25 0.7h-0.75l-1.25-1.5-0.55-0.15-1.3 0.2q-0.8 0.35-1 1.35-1.5-0.6-1.7-1.05 0.65-1.75 3.95-1.85 2.35 0.3 3.25 1.5l0.6 0.8" fill="#d99700" fill-rule="evenodd"/>
<path d="m6.4-39.1-1.05 24.8-1.55-0.3 1.6-25.7 1 1.2" fill="#6b4301" fill-rule="evenodd"/>
<path d="m7-11.8-0.45 8.6q-1.7-1.65-3.35-1.4 1.1-3.7 0.8-7.3v-0.15l-0.15-1.05h0.05l1.1-0.3 2 1.6" fill="#da9905" fill-rule="evenodd"/>
<path d="m23.4 8.65 0.2 3.5 0.85 14.15q-13.85 1-22.6-4.4 0.95-6 3.75-16.7 2.15-0.8 4.5-1.05l-0.1 0.1q-0.5 0.45-0.5 1.05l0.3 3.8 0.3 1.7q0.25 1.15 0.8 0.65 0.7-0.95 1.4-3.25l0.6-2.9q-0.05-0.6-0.55-1.05l-0.3-0.2 5.3 0.6-0.15 0.1q-0.5 0.45-0.5 1.05-0.1 0.55 0.35 3.85l0.3 1.7q0.3 1.15 0.8 0.65l1.4-3.25 0.55-2.95-0.15-0.45 0.35 0.1q2.8 0.8 3.1 3.2m-46.25 17.35q4.15-19.05 7.5-20.7l0.05-0.05v0.05l0.1 3.8 0.25 1.7q0.2 1.15 0.75 0.65 0.75-0.95 1.55-3.25l0.75-2.9-0.3-0.8q2.5-0.35 5.3-0.1v0.3l0.15 3.85 0.2 1.65q0.25 1.2 0.8 0.65 0.7-0.9 1.5-3.2l0.7-2.7 2.75 0.65q1.8-0.3 1.85 4.25l-0.25 6.15-0.15 1.4 0.5-2.35-0.25 6.75q-17.05 6.9-23.75 4.2" fill="#999" fill-rule="evenodd"/>
<path d="m4.25 2.15q1.05-1.75 2.4-1.35l0.75-2.4h9.4q4.4 0.3 6.35 6.65l0.25 3.6q-0.3-2.4-3.1-3.2l-0.35-0.1-0.45-0.6q-0.5-0.45-1.15-0.4h-0.3q-0.5 0.05-0.7 0.3l-5.3-0.6-0.85-0.2h-0.3l-0.8 0.3q-2.35 0.25-4.5 1.05-2.8 10.7-3.75 16.7-0.65 3.75-0.5 5.55l0.05 0.45-0.8 1.85 0.3-7.95 0.25-6.75-0.5 2.35 0.15-1.4 0.25-6.15q-0.05-4.55-1.85-4.25l-2.75-0.65v-0.25q-0.05-0.55-0.5-1-0.55-0.5-1.15-0.4h-0.3q-0.55 0-0.95 0.4l-0.45 0.7q-2.8-0.25-5.3 0.1l-0.2-0.25q-0.5-0.45-1.15-0.4h-0.3q-0.5 0.05-0.85 0.4-0.55 0.4-0.6 1l-0.05 0.05q-3.35 1.65-7.5 20.7l-0.2 1.1 1.4-8.35 2.5-13.7q2.25-6.35 7-6.65h9.4l0.2 1.05 0.3 1.35q2.85-0.85 4.15 9.35 0.95-5.6 2.3-7.85-0.05-0.1 0.05-0.15m-2.75 9.45-0.1 0.5 0.1-0.45v-0.05" fill="#6b696b" fill-rule="evenodd"/>
<path d="m28.5 52.25-4-11.05 0.85-1.05 0.1-0.15q1.6-1.55 3.05-1.05 1.95 1.25 0 13.3m-4.5-14-0.2-1.55 1.2-1.75q1.05-0.6 2.2-0.5l1.3 0.3q1.4 1.25 0.05 1.6-2.1-0.55-4.55 1.9m-53.95 14-1.25-11.05 0.2-0.2q1.55-1.3 3.05-1.2 2.5 0.95-2 12.45m-1.05-13.45-0.1-0.15 0.35-1.95 2.15-1.75 1.5-0.4q2.05 0.95-0.3 2-1.7 0.05-3.6 2.25m48.35-27.45-0.3-1.7q-0.45-3.3-0.35-3.85 0-0.6 0.5-1.05l0.15-0.1q0.2-0.25 0.7-0.3l0.4 0.25 0.3 0.4 0.2 0.65-0.6 2.95-1 2.75m-7.25-0.55-0.3-1.7-0.3-3.8q0-0.6 0.5-1.05l0.1-0.1 0.8-0.3 0.4 0.25q0.45 0.4 0.45 1.05l-0.6 2.9-1.05 2.75m-25.4-5.55q0.05-0.6 0.6-1 0.35-0.35 0.85-0.4l0.4 0.25 0.4 0.55 0.05 0.5-0.75 2.9-1.2 2.75-0.25-1.7-0.1-3.8v-0.05m8.4-0.85 0.45-0.7q0.4-0.4 0.95-0.4l0.4 0.25q0.4 0.4 0.45 1v0.15l-0.75 2.8q-0.6 1.75-1.15 2.7l-0.2-1.65-0.15-3.85v-0.3m34 30.75-0.7-0.2-0.8 0.2q-0.3 0.15-0.3 0.5l0.35 0.45 0.75 0.25 0.75-0.25 0.35-0.45-0.4-0.5m0.75 5.8q-0.2-1.05-0.4-1.05-0.25 0-0.35 1.05-0.15 1 0 2.5l0.2 2.55q0.25 1.05 0.55 1.05l0.3-1.05v-2.55l-0.3-2.5m-55.8-5.8-0.45 0.1-0.15 0.4 0.15 0.35 0.4 0.15 0.45-0.15 0.2-0.35-0.15-0.4-0.45-0.1m-0.95 6.45-0.2-0.65q-0.15-0.05-0.3 0.65l-0.2 1.85v1.8l0.2 0.8 0.3-0.8 0.2-1.8v-1.85" fill="#ffcf00" fill-rule="evenodd"/>
<path d="m24.95 34.5q-11.75-5.55-23.1-5.75l-1.5 3.4-1-3.4q-11.8 0.2-23.75 5.75l1.35-7.4 0.2-1.1q6.7 2.7 23.75-4.2l-0.3 7.95 0.8-1.85-0.05-0.45q-0.15-1.8 0.5-5.55 8.75 5.4 22.6 4.4l0.5 8.2" fill="#c2c6d3" fill-rule="evenodd"/>
<path d="m26 19.65q0.75 6.45 2.55 13.6l0.45 1.7 2 1.75 0.15 1.8q-1.25-1.85-2.6-2.15 1.35-0.35-0.05-1.6l-1.3-0.3-1.2-14.8m4.45 20.9v0.15l0.5 0.5-2.45 11.05q1.95-12.05 0-13.3 0.95 0.3 1.95 1.6m-54.85-6.05-0.3 0.45 1.05 1.75-0.15 1.7-0.35 0.15q-1.5-2.15-3.25-2 2.35-1.05 0.3-2h0.4l5.75-20.4-0.7 4.6-1.4 8.35-1.35 7.4m-0.4 6.8-5.15 10.95q4.5-11.5 2-12.45 1.55 0 3.15 1.5m53.3-6.55 0.5 0.2-0.5-0.2" fill="#e79e31" fill-rule="evenodd"/>
<path d="m12.05 4.05 0.3 0.2q0.5 0.45 0.55 1.05l-0.6 2.9q-0.7 2.3-1.4 3.25-0.55 0.5-0.8-0.65l1.05-2.75 0.6-2.9q0-0.65-0.45-1.05l-0.4-0.25h0.3l0.85 0.2m7.9 1.3 0.15 0.45-0.55 2.95-1.4 3.25q-0.5 0.5-0.8-0.65l1-2.75 0.6-2.95-0.2-0.65-0.3-0.4-0.4-0.25h0.3q0.65-0.05 1.15 0.4l0.45 0.6m-33.8-1.5h0.3q0.65-0.05 1.15 0.4l0.2 0.25 0.3 0.8-0.75 2.9q-0.8 2.3-1.55 3.25-0.55 0.5-0.75-0.65l1.2-2.75 0.75-2.9-0.05-0.5-0.4-0.55-0.4-0.25m8.35-0.55h0.3q0.6-0.1 1.15 0.4 0.45 0.45 0.5 1v0.25l-0.7 2.7q-0.8 2.3-1.5 3.2-0.55 0.55-0.8-0.65 0.55-0.95 1.15-2.7l0.75-2.8v-0.15q-0.05-0.6-0.45-1l-0.4-0.25" fill="#de9a00" fill-rule="evenodd"/>
<path d="m0.6-40.25-0.25-0.65 0.05-0.75q0.45-0.9 1.05-1.15h0.15l0.45-5.85-0.1-0.05q-0.7 0.05-0.8-0.75v-0.05l0.1-1.05q0.05-1.75 3.5-1.7 3-0.1 4.15 1.7v1.1l-0.15 0.1q-0.25 0.75-0.8 0.65l-0.05 0.05-0.4 6.15 0.05 0.05h0.05l1 0.8-0.2 1.85-1.25 0.7h-0.75l-1.05 24.8 1.65 1.5v1l-0.45 8.6v0.05h0.15q8.8 0.3 15.25-1.95l3.7 5.5q-0.8 7.15-0.1 15.15l0.45 4.1q0.75 6.45 2.55 13.6l0.45 1.7 2 1.75 0.15 1.8v0.15l-0.9 0.7 0.2 1.2v0.15l0.5 0.5-2.45 11.05-4-11.05 0.85-1.05 0.1-0.15v-0.75l-1.35-0.85-0.1-0.15-0.2-1.55 1.2-1.75-0.05-0.45q-11.75-5.55-23.1-5.75l-1.5 3.4-1-3.4q-11.8 0.2-23.75 5.75l-0.3 0.45 1.05 1.75-0.15 1.7-0.35 0.15-1.1 0.8-0.4 1.05 0.9 0.8-0.05 0.1-5.15 10.95-1.25-11.05 0.8-0.8 0.2-0.9-0.8-0.7-0.1-0.15 0.35-1.95 2.15-1.75q7.05-19.55 7.3-34.55l4.2-5.5q6.05 2.3 15.25 1.95l1-9.65 1.45-1.5 1.7-24.9q-1.5-0.6-1.7-1.05m4.8-0.05-0.25-0.3m2.25-1.9-2.1-0.65q-1.9-0.4-3.7 0.35m5.95 0.35-0.15-0.05m-1 3.4-1-1.2m-1.6 25.7 1.55 0.3m-4.75 0 3.2-0.3m0.45 16.75q1.05-1.75 2.4-1.35l0.75-2.4h9.4q4.4 0.3 6.35 6.65l0.25 3.6 0.2 3.5 0.85 14.15 0.5 8.2m-12.9-30.45 0.3 0.2q0.5 0.45 0.55 1.05l-0.6 2.9q-0.7 2.3-1.4 3.25-0.55 0.5-0.8-0.65m9.85-5.45 0.15 0.45-0.55 2.95-1.4 3.25q-0.5 0.5-0.8-0.65m0.7-7h0.3q0.65-0.05 1.15 0.4l0.45 0.6m-7.9-1.3-0.85-0.2h-0.3m-6.7-1.55q-1.35 2.25-2.3 7.85-1.3-10.2-4.15-9.35l-0.3-1.35-0.2-1.05h-9.4q-4.75 0.3-7 6.65l-2.5 13.7-1.4 8.35m9.2-23.25h0.3q0.65-0.05 1.15 0.4l0.2 0.25m6.7-1.2h0.3q0.6-0.1 1.15 0.4 0.45 0.45 0.5 1v0.25m32.55 30-0.5-0.2-1.3-0.3q-1.15-0.1-2.2 0.5m-31.55-24.75q0.25 1.2 0.8 0.65 0.7-0.9 1.5-3.2l0.7-2.7m-11.4 5.85q0.2 1.15 0.75 0.65 0.75-0.95 1.55-3.25l0.75-2.9-0.3-0.8m-3.1 0.8v-0.05m-11.8 29.3h0.4m-0.7 2q1.75-0.15 3.25 2m-0.25-4.05 1.35-7.4m-7.95 11.7q1.9-2.2 3.6-2.25" fill="none" stroke="#000" stroke-linecap="round" stroke-linejoin="round" stroke-opacity=".4" stroke-width=".05"/>
</g>
</defs>
</svg>
