<?xml version="1.0" encoding="UTF-8"?>
<svg version="1.1" viewBox="0 0 74.85 114.65" xmlns="http://www.w3.org/2000/svg" xmlns:cc="http://creativecommons.org/ns#" xmlns:dc="http://purl.org/dc/elements/1.1/" xmlns:rdf="http://www.w3.org/1999/02/22-rdf-syntax-ns#" xmlns:xlink="http://www.w3.org/1999/xlink">
<metadata>
<rdf:RDF>
<cc:Work rdf:about="">
<dc:format>image/svg+xml</dc:format>
<dc:type rdf:resource="http://purl.org/dc/dcmitype/StillImage"/>
</cc:Work>
</rdf:RDF>
</metadata>
<g transform="translate(-237.1 -234.6)">
<use transform="translate(237.1,234.6)" width="74.849998" height="114.65" xlink:href="#a"/>
</g>
<defs>
<g id="a" transform="translate(-237.1,-234.6)">
<path d="m311.85 234.7-2.75 2.55q-7.5 5.4-13.45 11.35l-1.95 1.95q-4.55 4.85-8.2 10l-0.3-3.2q1.35-3.05 3.25-6.15-3.7 4.1-5.15 8.55l-0.35 0.75q-2.35 1.55-4.6 3.4l-1.3 1q-3.55 2.85-6.85 6.15l-4.35 4.65q-2.65 2.95-5.15 6.25-2.55 1.45-4.9 3.7 2.65-1.65 5.3-3l2.35 0.55q-4.4 2.1-8.8 4.3l-2.9 4.4-1.35 2.25q-6.1 11.2-7.55 24.65l-1.4-0.1-2-0.3q8.4-53.8 72.4-83.7m-67.4 84.2 1.7-10.3 0.8 10.3h-2.5" fill="#424242" fill-rule="evenodd"/>
<path d="m309.1 237.25 2.75-2.55q-2.65 6.65-5.95 12.75-2.25-4.55 3.2-10.2m-9.7 15.2q1.55-3.25 6.5-5-3.1 5.9-6.8 11.4-1-3.7 0.3-6.4" fill="#aeaeae" fill-rule="evenodd"/>
<path d="m239.45 334.3v-0.6l3.2 1.6 1.25 0.55-1.2 0.8 1.2-0.8 2.6 1.3 0.2 0.9-3.1-1.3-0.95 0.95q-0.05-0.55 0.05-1.05v-0.5l-3.25-1.85m0.2-3.8v-1l2.8-2.5 0.6 0.5v0.1l-3.4 2.9m0.55-8.35q-0.05-0.75 0.05-1.45l1.2 0.7 1.4 0.5q2 0.8 4.65 1.25l1.35-0.35-0.9 1.7q-2.65 0.25-4.75-0.85l-3-1.5m2.85 5.45 0.05-0.05 3.2 2.4-0.1 0.9-3.2-2.4 0.05-0.85" fill="#4b0000" fill-rule="evenodd"/>
<path d="m239.45 334.3 3.25 1.85v0.5q-0.1 0.5-0.05 1.05l-0.2 4.2-3.5 0.2 0.15-3.05 0.35-4.75m3.2 1-3.2-1.6 0.2-3.2 3.4-2.9-0.05 0.85-0.35 6.85m-3-5.8 0.35-4.35 0.2-3 3 1.5-0.15 3.85-0.6-0.5-2.8 2.5m2.8-2.5-2.45-1.85 2.45 1.85m-3.35 12.05 3.6-2.4-3.6 2.4" fill="#6f1212" fill-rule="evenodd"/>
<path d="m243.9 335.85-1.25-0.55 0.35-6.85 3.2 2.4q-0.35 3.05 0.3 6.3l-2.6-1.3m2.4-5.9-3.2-2.4-0.05 0.05v-0.1l0.15-3.85q2.1 1.1 4.75 0.85-1.25 2.65-1.65 5.45m-3.2-2.4-0.05-0.05 0.05 0.05m4.65 13.95-5.3 0.4 0.2-4.2 0.95-0.95 3.1 1.3 1.05 3.45" fill="#5d0000" fill-rule="evenodd"/>
<path d="m239.45 318.4 2 0.3-1.9 0.4 1.9 2.3-1.2-0.7q-2.1-1.2-3.05-2.85l2.25 0.55m-0.8 26.9-0.8-0.3-0.2-2.8 1.3-0.1 3.5-0.2 5.3-0.4 6.35-1.95 0.55 0.75-6.85 2.35-6.1 0.3 0.05 0.05h-3.1v2.3" fill="#d1a852" fill-rule="evenodd"/>
<path d="m241.45 318.7 1.4 0.1 1.6 0.1h2.6l1.75-0.15 5.8-0.9q0.6 0.6 0.6 1.3l-6.6 0.8-5.8-0.3 5.35 2.05-5.3 0.2-1.4-0.5-1.9-2.3 1.9-0.4m-2.8 26.6v-2.3h3.1l-0.05-0.05 2.45 1.15-4.55 0.05 2 2.4-2.95-1.25" fill="#bf9640" fill-rule="evenodd"/>
<path d="m241.7 342.95 6.1-0.3 6.85-2.35q1.05 1.75-0.2 4.7-1.85 3.55-6.65 4.15l-6.2-2.6-2-2.4 4.55-0.05-2.45-1.15m13.5-23.8q-0.1 1.1-2 2.5l-4.35 1.15-1.35 0.35q-2.65-0.45-4.65-1.25l5.3-0.2-5.35-2.05 5.8 0.3 6.6-0.8" fill="#9b721c" fill-rule="evenodd"/>
<path d="m250.4 294.15 1.35-2.25 3.25 8.35q-2.35 2.25-3.85 4.55l-0.75-10.65m15.45-18.45 4.35-4.65 4.75 10.75q-1.25 1.05-2.2 2.6l-3.55-3.55 0.35 7.65-3.3 0.4-0.65-8.15 4.2-1.4-3.9 0.6-0.05-4.25m12.5-11.8q2.25-1.85 4.6-3.4l-0.3 1.3q-0.65 2.25-0.6 4.6l1.3-4.4 0.7-1.9 1.15-2.75 0.3 3.2q3.65-5.15 8.2-10l3.55 8.85q-6.95 2.15-6 10-6.55 0.05-8.6 6l-4.3-11.5m17.3-15.3q5.95-5.95 13.45-11.35-5.45 5.65-3.2 10.2-4.95 1.75-6.5 5l-3.75-3.85" fill="#545454" fill-rule="evenodd"/>
<path d="m242.85 318.8q1.45-13.45 7.55-24.65l0.75 10.65q-4.85 6.95-2.35 13.95l-1.75 0.15h-0.1l-0.8-10.3-1.7 10.3-1.6-0.1m8.9-26.9 2.9-4.4q4.4-2.2 8.8-4.3l-2.35-0.55 1.95-0.85 1.85-0.75q0.3-0.2 0.7-0.3l0.65 8.15q-4.35 1.35-5.95 7.15l-1.5 0.9-3.8 3.3-3.25-8.35m8.95-9.95q2.5-3.3 5.15-6.25l0.05 4.25-1.1 0.3-2.15 0.75-1.95 0.95m16.35-17.05 1.3-1 4.3 11.5q-0.65 1.75-0.9 4.1l-3.2 0.4-1.5-15" fill="#666" fill-rule="evenodd"/>
<path d="m261.1 282.65q-2.65 1.35-5.3 3 2.35-2.25 4.9-3.7l1.95-0.95 0.3 0.7 0.1 0.1-1.95 0.85m22.2-22.9q1.45-4.45 5.15-8.55-1.9 3.1-3.25 6.15l-1.15 2.75q-0.35-0.35-0.75-0.35m-17.7 21q-0.4 0.1-0.7 0.3l-0.05-0.15-0.05-0.65 1.1-0.3 3.9-0.6-4.2 1.4m17.75-18.75-1.3 4.4q-0.05-2.35 0.6-4.6l0.55 0.15 0.15 0.05" fill="#900" fill-rule="evenodd"/>
<path d="m282.95 260.5 0.35-0.75q0.4 0 0.75 0.35l-0.7 1.9-0.15-0.05-0.55-0.15 0.3-1.3m-18.05 20.55-1.85 0.75-0.1-0.1-0.3-0.7 2.15-0.75 0.05 0.65 0.05 0.15" fill="#c30" fill-rule="evenodd"/>
<path d="m260.3 296.05q1.6-5.8 5.95-7.15l3.3-0.4 1.5 0.2q-5.15 3.85-10.75 7.35" fill="#fff" fill-rule="evenodd"/>
<path d="m270.2 271.05q3.3-3.3 6.85-6.15l1.5 15q-2.05 0.55-3.6 1.9l-4.75-10.75m23.5-20.5 1.95-1.95 3.75 3.85q-1.3 2.7-0.3 6.4l-1.85 0.55-3.55-8.85m-22.65 38.15-1.5-0.2-0.35-7.65 3.55 3.55q-1 1.8-1.6 4.2l-0.1 0.1" fill="#787878" fill-rule="evenodd"/>
<path d="m271.15 288.6q0.6-2.4 1.6-4.2 0.95-1.55 2.2-2.6 1.55-1.35 3.6-1.9l3.2-0.4q-5.05 4.75-10.6 9.1" fill="#f0f0f0" fill-rule="evenodd"/>
<path d="m291.25 269.4q-4.4 5.3-9.5 10.1 0.25-2.35 0.9-4.1 2.05-5.95 8.6-6" fill="#dedede" fill-rule="evenodd"/>
<path d="m299.1 258.85q-3.7 5.5-7.85 10.55-0.95-7.85 6-10l1.85-0.55" fill="#ccc" fill-rule="evenodd"/>
<path d="m309.1 237.25 2.75-2.55q-64 29.9-72.4 83.7l2 0.3 1.4 0.1 1.6 0.1h2.5m14.15-36.25q-2.65 1.35-5.3 3 2.35-2.25 4.9-3.7m22.25-21.45 0.35-0.75q1.45-4.45 5.15-8.55-1.9 3.1-3.25 6.15m23.9-20.1q-5.45 5.65-3.2 10.2 3.3-6.1 5.95-12.75m-72.4 99v0.6m3.25 2.35 1.2-0.8-1.25-0.55-3.2-1.6 0.2-3.2v-1l0.35-4.35 0.2-3q-0.05-0.75 0.05-1.45-2.1-1.2-3.05-2.85l2.25 0.55m6.85 11.55-3.2-2.4-0.05 0.05m3.15 3.25 0.1-0.9q0.4-2.8 1.65-5.45m-4.9 3 0.05 0.05m-0.05-0.05-0.6-0.5m-2.8 3.5 3.4-2.9m-3.05-2.45 2.45 1.85m-3.5 15.1-1.3 0.1 0.2 2.8 0.8 0.3 2.95 1.25 6.2 2.6q4.8-0.6 6.65-4.15 1.25-2.95 0.2-4.7l-0.55-0.75-6.35 1.95-5.3 0.4-3.5 0.2 0.15-3.05 0.35-4.75m4.45 1.55 2.6 1.3q-0.65-3.25-0.3-6.3m0.3 6.3 0.2 0.9 1.05 3.45m-5.05-4.85-3.6 2.4m25.8-58-1.85 0.75-1.95 0.85m3.8-1.6q0.3-0.2 0.7-0.3l4.2-1.4-3.9 0.6-1.1 0.3 0.05 0.65 0.05 0.15m-1.85 0.75-0.1-0.1-0.3-0.7-1.95 0.95m1.95-0.95 2.15-0.75m-16 38.5 5.8-0.9q0.6 0.6 0.6 1.3-0.1 1.1-2 2.5l-4.35 1.15-0.9 1.7m-5.1-2.6-1.4-0.5-1.2-0.7m6.8-1.8 1.75-0.15q-2.5-7 2.35-13.95m-8.3 17.1q2 0.8 4.65 1.25l1.35-0.35m6.15-22.55 3.8-3.3 1.5-0.9q1.6-5.8 5.95-7.15m-5.95 7.15q5.6-3.5 10.75-7.35l-1.5-0.2-3.3 0.4m4.9-0.3q0.6-2.4 1.6-4.2m-1.7 4.3 0.1-0.1q5.55-4.35 10.6-9.1l-3.2 0.4q-2.05 0.55-3.6 1.9-1.25 1.05-2.2 2.6m-17.75 15.85q-2.35 2.25-3.85 4.55m48.25-52.35q1.55-3.25 6.5-5-3.1 5.9-6.8 11.4t-7.85 10.55q-4.4 5.3-9.5 10.1 0.25-2.35 0.9-4.1m16.75-22.95q-1.3 2.7-0.3 6.4l-1.85 0.55q-6.95 2.15-6 10-6.55 0.05-8.6 6m1.4-15.3-0.7 1.9-1.3 4.4q-0.05-2.35 0.6-4.6l0.3-1.3m0.4 1.5-0.15-0.05-0.55-0.15m0.65-2.05q0.4 0 0.75 0.35l1.15-2.75" fill="none" stroke="#000" stroke-linecap="round" stroke-linejoin="round" stroke-opacity=".41176" stroke-width=".2"/>
</g>
</defs>
</svg>
