<?xml version="1.0" encoding="UTF-8"?>
<svg version="1.1" viewBox="0 0 78.787 98.866" xmlns="http://www.w3.org/2000/svg" xmlns:cc="http://creativecommons.org/ns#" xmlns:dc="http://purl.org/dc/elements/1.1/" xmlns:rdf="http://www.w3.org/1999/02/22-rdf-syntax-ns#" xmlns:xlink="http://www.w3.org/1999/xlink">
<metadata>
<rdf:RDF>
<cc:Work rdf:about="">
<dc:format>image/svg+xml</dc:format>
<dc:type rdf:resource="http://purl.org/dc/dcmitype/StillImage"/>
</cc:Work>
</rdf:RDF>
</metadata>
<g transform="translate(-235.58 -151.2)">
<use transform="translate(235.6,151.2)" width="78.75" height="98.849998" xlink:href="#a"/>
</g>
<defs>
<g id="a" transform="translate(-235.6,-151.2)">
<path d="m289.65 151.5 0.05 0.05-0.1 0.2 0.05-0.25" fill="#62a3ac" fill-rule="evenodd"/>
<path d="m289.6 151.75-0.45-0.55 0.5 0.3-0.05 0.25" fill="#c4dcdf" fill-rule="evenodd"/>
<path d="m289.7 151.55 0.9 0.45q19.5 16.35 8.1 37.8l-1.7 3.1-6.75 8.75-5.3 5.8q-11.65 13.1-12.95 15.5 0.05-1.2-0.5-2.35l-0.4-0.6-0.1-0.1q-0.8-1-2.05-1.3-1.75-0.45-3.45 0.5-0.65 0.35-1.1 0.85l-2.75-2.25 7.95-8.15q13.65-16.4 16.8-39.4l3.5 3.15q5-6.3 3.8-12.85l-0.15-1.25q-1.05-3.7-3.95-7.45l0.1-0.2" fill="#efe6ca" fill-rule="evenodd"/>
<path d="m290.6 152q3.6 2 6.65 4.15 5.55 3.85 9.25 8.05 17.3 19.35-4.95 45.15-5.5 5-11.65 9.45-8.45 5.8-11.9 7.75l-6.5 4.1-0.25 0.1-0.75-0.95-0.85-1.1-0.25-0.2-0.35-0.85-0.25-0.25 1.65-1.25q1-0.85 1.4-2.1l0.15-1.1q1.3-2.4 12.95-15.5l5.3-5.8 6.75-8.75 1.7-3.1q11.4-21.45-8.1-37.8" fill="#f8f4e7" fill-rule="evenodd"/>
<path d="m271.25 230.75 0.3 0.35 0.65 3.95 5.95 5-2.55 1.8q-5.45-2.6-9.4-6.95l0.05-0.1-0.35-0.3-1.2-1.75q-2.05-4.6-5.2-8.3l-1.45-1.85-1.6-1-5.65-3.45-0.3-0.1 0.95-2.6 11.4 6.6-1.25-4.4 0.05 0.05 2.75 2.25-0.1 0.15 0.4 0.4-0.15 0.05-0.05 0.05 0.4 0.6 3.7 5.9 0.2 0.3 0.25 0.25 0.35 0.85 0.25 0.2 0.85 1.1 0.75 0.95m-20.25 11.65-0.2 0.15-0.15-0.2 0.05 0.25q0 1.9-1.1 3.6-1.6 2.6-4.5 3.35-2.95 0.7-5.55-0.85-2.65-1.55-3.35-4.45-0.4-1.35-0.3-2.55 0.2-1.55 1.1-2.95 1.6-2.65 4.6-3.4l1.55-0.15h0.8l1.5 0.2 0.05-0.05 0.05 0.05q6.1 2.3 5.45 7m-1.65-4.3-0.1-0.05v0.05h0.1m-6.4 7.05h0.05l0.05-0.25-0.1 0.25" fill="#a1664c" fill-rule="evenodd"/>
<path d="m262.1 234.6-7.15 5q5-6.5-4.85-8.65l3.65-3.8q6.3-2.45 8.35 7.45" fill="#a68931" fill-rule="evenodd"/>
<path d="m252.35 241.45q-0.7 0.5-1.35 0.95 0.65-4.7-5.45-7l0.3 0.05 0.2-0.2q6.8-0.65 6.3 6.2" fill="#d5bc71" fill-rule="evenodd"/>
<path d="m266.2 234.9v-0.05l0.05-0.05-0.05 0.1m-15.4 7.65-0.1 0.05-0.05-0.25 0.15 0.2m-1.45-4.45h-0.1v-0.05l0.1 0.05" fill="#58382b" fill-rule="evenodd"/>
<path d="m254.95 239.6-2.6 1.85q0.5-6.85-6.3-6.2l4.05-4.3q9.85 2.15 4.85 8.65" fill="#c5a33a" fill-rule="evenodd"/>
<path d="m242.95 245.15 0.1-0.25-0.05 0.25h-0.05" fill="#fc3" fill-rule="evenodd"/>
<path d="m264.7 232.75-2.6 1.85q-2.05-9.9-8.35-7.45l4.3-4.55 1.45 1.85q3.15 3.7 5.2 8.3" fill="#7b6624" fill-rule="evenodd"/>
<path d="m264.5 220.6 0.05-0.05 0.15-0.05 0.2 0.05-0.4 0.05" fill="#bd571a" fill-rule="evenodd"/>
<path d="m271.55 231.1q3.65 3.95 9.25 7.15l-2.65 1.8-5.95-5-0.65-3.95m-21.05-13.05-2.25-1.05 2.4-5.85 4 1.9q3.8 1.95 6.4 4.15l0.55 0.45 1.25 4.4-11.4-6.6-0.95 2.6" fill="#d6b7a9" fill-rule="evenodd"/>
<path d="m264.4 219.95q0.45-0.5 1.1-0.85 1.7-0.95 3.45-0.5 1.25 0.3 2.05 1.3l0.1 0.1 0.4 0.6q0.55 1.15 0.5 2.35l-0.15 1.1q-0.4 1.25-1.4 2.1l-1.65 1.25-0.2-0.3-3.7-5.9-0.4-0.6 0.4-0.05-0.2-0.05-0.4-0.4 0.1-0.15" fill="#d00" fill-rule="evenodd"/>
<path d="m266.2 234.9v-0.05l0.05-0.05-0.35-0.3-1.2-1.75m-13.7 9.65-0.2 0.15-0.1 0.05m-5.25-7.2 0.05-0.05 0.05 0.05 0.3 0.05 0.2-0.2m43.6-83.75 0.05 0.05m-31.65 71.05 1.45 1.85q3.15 3.7 5.2 8.3m-0.2-12.15 0.05-0.05 0.15-0.05" fill="none" stroke="#1f3336" stroke-linecap="round" stroke-linejoin="round" stroke-opacity=".70196" stroke-width=".1"/>
<path d="m290.6 152q3.6 2 6.65 4.15 5.55 3.85 9.25 8.05 17.3 19.35-4.95 45.15-5.5 5-11.65 9.45-8.45 5.8-11.9 7.75l-6.5 4.1-0.25 0.1 0.3 0.35q3.65 3.95 9.25 7.15l-2.65 1.8-2.55 1.8q-5.45-2.6-9.4-6.95m-1.5-2.15-2.6 1.85-7.15 5-2.6 1.85q-0.7 0.5-1.35 0.95m-0.3 0.2q0 1.9-1.1 3.6-1.6 2.6-4.5 3.35-2.95 0.7-5.55-0.85-2.65-1.55-3.35-4.45-0.4-1.35-0.3-2.55 0.2-1.55 1.1-2.95 1.6-2.65 4.6-3.4l1.55-0.15h0.8l1.5 0.2m0.6-0.15 4.05-4.3 3.65-3.8 4.3-4.55-1.6-1-5.65-3.45-0.3-0.1-2.25-1.05 2.4-5.85 4 1.9q3.8 1.95 6.4 4.15l0.55 0.45 0.05 0.05 7.95-8.15q13.65-16.4 16.8-39.4l3.5 3.15q5-6.3 3.8-12.85l-0.15-1.25q-1.05-3.7-3.95-7.45" fill="none" stroke="#0b1f37" stroke-linecap="round" stroke-linejoin="round" stroke-opacity=".50196" stroke-width=".6"/>
<path d="m271 219.9 0.1 0.1m-6.8 0.1 0.1-0.15" fill="none" stroke="#f8f4e7" stroke-linecap="round" stroke-linejoin="round" stroke-width=".1"/>
<path d="m242.4 242.1q-0.8 0.85-1.95 0.85t-2-0.85q-0.8-0.8-0.8-1.95t0.8-2q0.85-0.8 2-0.8t1.95 0.8q0.85 0.85 0.85 2t-0.85 1.95" fill="#d6b7a9" fill-rule="evenodd"/>
</g>
</defs>
</svg>
