<?xml version="1.0" encoding="UTF-8"?>
<svg version="1.1" viewBox="0 0 188.61 279.35" xmlns="http://www.w3.org/2000/svg" xmlns:cc="http://creativecommons.org/ns#" xmlns:dc="http://purl.org/dc/elements/1.1/" xmlns:rdf="http://www.w3.org/1999/02/22-rdf-syntax-ns#" xmlns:xlink="http://www.w3.org/1999/xlink">
<metadata>
<rdf:RDF>
<cc:Work rdf:about="">
<dc:format>image/svg+xml</dc:format>
<dc:type rdf:resource="http://purl.org/dc/dcmitype/StillImage"/>
</cc:Work>
</rdf:RDF>
</metadata>
<g transform="translate(-142.92 -23.775)">
<use transform="translate(142.95,23.8)" width="188.55" height="279.29999" xlink:href="#a"/>
</g>
<defs>
<g id="a" transform="translate(-142.95,-23.8)">
<path d="m293.1 90.5 3.75-3.25-4.55-7.3-7.4-0.95-0.45-0.5-2.4-2.55 3.45-0.55-0.55-3.65-5.9-2.7-0.5-0.1-1.15 2.65q-5-4.1-10.45-6.9-5.7-7.15-11.4-9.4 4.3 0.85 12.7 3.35-6.4-14.5-30.95-34.85 50 29.55 71.55 82.6l-3.15 4.1 4.6-0.2q5.9 15.5 9.9 33.65l-6.8 3.95-0.85-3.45 4.45-1.55 0.4-0.95-1.35-1.8-3.6 3.45-1.05-4.5-0.05-0.05v-0.05l4-3.9-1.9-7.4-5.6-2.05-0.05-0.15-1.55-5.1-12.05 2.35 10.1-7.9q-4.95-14.05-11.2-24.35m-89.85 118.5-10.45 5.6q-20.95-23.55-33.15-48.8l-1.55-3.25q-6.3-13.3-9.8-26.9l5.65-4.25-7.25-1.55q-9.7-42.2 5.65-82.3-4.8 33.9 3.85 51 6.05-8.6 9.55-12.55-3.6 6.2-1.8 16.4-8.85 20.8 1.4 48.25l-3.2 2.3v0.05l2.1 2.9 3.2 0.1q4.1 9.7 10.65 19.95l17.7-5.05-13.7 11.15q2.7 4.25 6 8.55l0.2 0.15-2.5 7.6 2.25 2.85 5.95-3 1.7 2.1 7.55 8.7m-48.85-78-0.45 0.4 0.45-0.4" fill="#fff" fill-rule="evenodd"/>
<path d="m284.9 79 7.4 0.95 4.55 7.3-3.75 3.25q-3.85-6.5-8.2-11.5m22.95 46.65 5.6 2.05 1.9 7.4-4 3.9-3.5-13.35m4.6 17.95 3.6-3.45 1.35 1.8-0.4 0.95-4.45 1.55-0.1-0.85m-35.05-72 1.15-2.65 0.5 0.1 5.9 2.7 0.55 3.65-3.45 0.55-4.65-4.35m-83.4 126.6-5.95 3-2.25-2.85 2.5-7.6 5.7 7.45m-26.55-42.2-3.2-0.1-2.1-2.9v-0.05l3.2-2.3 2.1 5.35" fill="#e7e7de" fill-rule="evenodd"/>
<path d="m237.4 101.55 2.45-1 13.2 23.05-3.6 1.6 3.6-1.6 1.95-1.05-0.95 2.65-0.15 0.15q-11.75 5.35-23.45 10.75l-0.15-0.05-2.85-0.85 2.2-0.9 6.15-2.85 13.65-6.25-12.05-23.65m23.35 27.75 1.75-0.45 9.2 12.95-6.3 3.3 1.5 2.6-8.7-8.25-0.6-1.55q-2.05-4.25-6.25-5.9l5.7-1.45 3.7-1.25m-20.9 32.65 7.7-3.95 1.05 0.95-1.15 0.55 1.15-0.55 12.45-6.35 2.45 5.35-15 3.6-1.05-2.05-8.6 4.4 1-1.95m17.2-31.4 8.35 14.55-8.35-14.55m-2.3 46.8 15.05-8.25 12.2 26.15-1.5 0.85-9.25-19.9-15.35 3.6-1.15-2.45" fill="#72899c" fill-rule="evenodd"/>
<path d="m293.1 90.5q6.25 10.3 11.2 24.35l-10.1 7.9 12.05-2.35 1.55 5.1 0.05 0.15-0.2-0.05-3.65 2.65-0.55 9.15 7.9 1.65 0.05 0.05 1.05 4.5-1.45 1.35 1.55-0.5 0.85 3.45-16.6 9.6-14.55-21.4q-5.3 2.8-10.55 5.7l-9.2-12.95q5.45-1.7 10-5 6.9-5.1 10.8-13.45 2.25-4.75 0.15-12.75-2.25-8.05-10.5-23.45-3-5.5-6-9.5 5.45 2.8 10.45 6.9l-0.4 0.95 4.05 3.45 1-0.05 2.4 2.55 0.45 0.5-0.65-0.05q-1.35 2.45-2.55 4.95l6.25 2.7 3.35 5.5 1.8-1.6m-55.7 11.05 12.05 23.65-13.65 6.25-10.15-25.1 11.75-4.8m19.5 28.6 3.85-0.85-3.7 1.25-0.15-0.4m-53.65 78.85-7.55-8.7-1.7-2.1 19.25-9.55-9.9-4.8-14.95 6.6-0.1 0.3-0.2-0.15q-3.3-4.3-6-8.55l13.7-11.15-17.7 5.05q-6.55-10.25-10.65-19.95h5.65l0.95 5.95 7.7 2.6 1.95-8-12.2-10.45-6.15 4.55q-10.25-27.45-1.4-48.25 0.9 5.7 3.65 12.55 7.35 19.1 13.4 27.2 6 7.95 12.7 9.3 11.3 2.15 21.65-0.55 9.45-2.65 17.05-9.2l-1.65-4.4 8.35-2.15q-1.15 1.45-1.8 3.35-1.1 2.95-0.45 5.9 0.3 1.5 1.05 3.1 0.85 1.85 2.25 3.25l0.45 0.45 6.95 6.8-7.7 3.95-1.25-3.35-20.15 9.55 7.7 28.55-22.9 12.3m-5.55-50.4-2.5-3.5-6 1.45 1.2 2.95 7.3-0.9m27.5-1.8-1.4-2.4-9.8 4.3 0.85 2.95q5.15-2.45 10.35-4.85m-26.45 41.8 5.4 3.95 7.3-4.5-1-5.45-11.7 6m33.65-56.9 6.2 16.9-6.2-16.9m39.45-6.3 9.65-3.05 1.3-1.7-2.3-4.3-9.4 5.8 0.75 3.25m-6.7 26.1-13.3 7.1-3.35-7.05 15-3.6 1.65 3.55m-7.75 21.55-1.5-3.25 15.35-3.6 9.25 19.9-9.8 6-9.85-20.55-3.45 1.5" fill="#adbac6" fill-rule="evenodd"/>
<path d="m225.65 106.35 10.15 25.1-6.15 2.85-9.4-25.75 5.4-2.2m41.65 97.75-9.9-21.05 3.45-1.5 9.85 20.55q-1.65 0.95-3.4 2" fill="#d6dce2" fill-rule="evenodd"/>
<path d="m311.35 139v0.05l-7.9-1.65 0.55-9.15 3.65-2.65 0.2 0.05 3.5 13.35m-18.25-48.5-1.8 1.6-3.35-5.5-6.25-2.7q1.2-2.5 2.55-4.95l0.65 0.05q4.35 5 8.2 11.5m-11.05-14.55-1 0.05-4.05-3.45 0.4-0.95 4.65 4.35m-116.7 74.7 6.15-4.55 12.2 10.45-1.95 8-7.7-2.6-0.95-5.95h-5.65l-2.1-5.35m32.35 7.95-7.3 0.9-1.2-2.95 6-1.45 2.5 3.5m27.5-1.8q-5.2 2.4-10.35 4.85l-0.85-2.95 9.8-4.3 1.4 2.4m-36.9 33.95 0.1-0.3 14.95-6.6 9.9 4.8-19.25 9.55-5.7-7.45m10.45 7.85 11.7-6 1 5.45-7.3 4.5-5.4-3.95m73.1-63.2-0.75-3.25 9.4-5.8 2.3 4.3-1.3 1.7-9.65 3.05m40.6 8.2 0.1 0.85-1.55 0.5 1.45-1.35" fill="#94a5b4" fill-rule="evenodd"/>
<path d="m254.05 125.25 2.85 4.9 0.15 0.4-5.7 1.45h-0.05q-4.25-1.75-8.35 0.15-2.35 1.1-3.85 3l-8.35 2.15-0.45-1.15 0.15-0.05q11.7-5.4 23.45-10.75l0.15-0.1m2.65 24.25 1.45-2.95q1.1-3.6 0.05-7.1l8.7 8.25 0.2 0.4v-0.05l-19.55 9.95 19.55-9.95v0.05l1.9 0.4q-4.05 2.05-7.95 4.1l-12.45 6.35-1.05-0.95-6.95-6.8q1.5 1.45 3.75 2.25 4.35 1.6 8.45-0.45 2.4-1.3 3.9-3.5" fill="#4e606d" fill-rule="evenodd"/>
<path d="m239.1 135.15q1.5-1.9 3.85-3 4.1-1.9 8.35-0.15h0.05q4.2 1.65 6.25 5.9l0.6 1.55q1.05 3.5-0.05 7.1l-1.45 2.95q-10.75 5-19.85-5.1-0.65-2.95 0.45-5.9 0.65-1.9 1.8-3.35m4.55 7.95q0.9 1.95 3.3 2.6 2.45 0.5 4.9-0.65 2.35-1.25 3.5-3.5 1-2.2 0.05-4.15-0.9-1.95-3.2-2.55-2.45-0.6-4.9 0.6-2.4 1.25-3.5 3.45-1.1 2.25-0.15 4.2" fill="#fc0" fill-rule="evenodd"/>
<path d="m243.65 143.1q-0.95-1.95 0.15-4.2 1.1-2.2 3.5-3.45 2.45-1.2 4.9-0.6 2.3 0.6 3.2 2.55 0.95 1.95-0.05 4.15-1.15 2.25-3.5 3.5-2.45 1.15-4.9 0.65-2.4-0.65-3.3-2.6" fill="#ffe88a" fill-rule="evenodd"/>
<path d="m240.15 150.75q-1.4-1.4-2.25-3.25-0.75-1.6-1.05-3.1 9.1 10.1 19.85 5.1-1.5 2.2-3.9 3.5-4.1 2.05-8.45 0.45-2.25-0.8-3.75-2.25l-0.45-0.45" fill="#cea500" fill-rule="evenodd"/>
<path d="m265.15 161.5 6.6-3.45 3.7 7.9-5.65 3.15-15.05 8.25-4 2.2-3.3-7.3 1.5-2.1 2.9-1.55 13.3-7.1m16.85 33.75 7.3-4.45 5.1 11-4.4 2.85-20.2 12.85-2.5 1.6-3.8-10.45 0.7-2.6 3.1-1.95q1.75-1.05 3.4-2l9.8-6 1.5-0.85m13.75 21.85 5.1 10.9-17.45 6.9 2.9 6 14.6-12.75 5.55 11.85-15.65 10.2-4.5-9.3-3.85 3.35-3.55-7.55 4.5-1.8-3.35-6.7 15.7-11.1m14.1 30.2 4.5 9.7-11.6 11.75-1.9 1.95-5.95-12.15-4.2 3.1-4.1-8.6 4.2-2.85 4.1 8.35 14.95-11.25m8.35 17.9 2.4 5.15-14.2 11.5-2.9-5.8 7.4-5.45 7.3-5.4m3.95 8.45 2.35-1.85-1.1 14.05-0.15 0.15-17.25 14.3-4.9-7.6 0.75-2.7 1.55-1.2-1.55-3.25 4.55-3.7 1.55 3.3 14.2-11.5m-23.15 5.8-2.15-4.65 4-4.1 2.65 5.35-4.5 3.4m-21.5-56.4-1.25-2.7 8.7-2.5-7.45 5.2m25.9 65.75 4.55-3.65-4.55 3.65" fill="#5a4e39" fill-rule="evenodd"/>
<path d="m248.95 170.15-1.5 2.1 3.3 7.3-2.1 1.1-3.9-8.3 4.2-2.2m57.05 130.15-3.35 2.8-4.7-9.95 3.9-3.15-0.75 2.7 4.9 7.6m-4.15-14.75-2.85-6.1 4.5-3.4 2.9 5.8-4.55 3.7m-5-10.75-6.15-13.15 4.2-3.1 5.95 12.15-4 4.1m-10.25-21.75-4.15-8.8 3.85-3.35 4.5 9.3-4.2 2.85m-7.7-16.35-2.7-5.8-2.5-5.25-1.9-4 4.45-1.3 1.25 2.7 2.55 5.15-3.85 2.7 3.85-2.7 3.35 6.7-4.5 1.8m-11.6-17.6-2.4 1.5-5.45-11.65 4.75-2.9-0.7 2.6 3.8 10.45m6.4 6.55 3.8-2.6-3.8 2.6" fill="#8a7757" fill-rule="evenodd"/>
<path d="m290 204.65 3.5 7.45 2.25 5-15.7 11.1-2.55-5.15 7.45-5.2-8.7 2.5-4.45 1.3-2-4.15 20.2-12.85m16.45 35.35 3.4 7.3-14.95 11.25-4.1-8.35 15.65-10.2m7.9 17 3.85 8.2-7.3 5.4-7.4 5.45-2.65-5.35 1.9-1.95 11.6-11.75m6.25 13.35 1.55 3.3-14.2 11.5-1.55-3.3 14.2-11.5m3.9 1.45 2.65-2.2 4.35 9.55-8.1 6.7 1.1-14.05m-39.55-53.95q4.2-2.9 8.55-5.75-4.35 2.85-8.55 5.75m15.9 10.15 0.05 0.15-14.6 12.75-2.9-6 17.45-6.9m10.05 42.6-8.15-1.85 8.15 1.85" fill="#332c20" fill-rule="evenodd"/>
<path d="m313.4 147.9 6.8-3.95q-4-18.15-9.9-33.65l-4.6 0.2 3.15-4.1q-21.55-53.05-71.55-82.6 24.55 20.35 30.95 34.85-8.4-2.5-12.7-3.35 5.7 2.25 11.4 9.4m-13.9 58.9-13.2-23.05-2.45 1-11.75 4.8-5.4 2.2 9.4 25.75 6.15-2.85 13.65-6.25 3.6-1.6 1.95-1.05-0.95 2.65v0.05l2.85 4.9 3.85-0.85 1.75-0.45q5.45-1.7 10-5 6.9-5.1 10.8-13.45 2.25-4.75 0.15-12.75-2.25-8.05-10.5-23.45-3-5.5-6-9.5m-113 66.7-5.65 4.25q3.5 13.6 9.8 26.9l1.55 3.25q12.2 25.25 33.15 48.8l10.45-5.6 22.9-12.3-7.7-28.55 20.15-9.55-6.2-16.9-1.65-4.4-0.45-1.15v-0.1l-2.85-0.85 2.2-0.9m-65.7-31.9q-1.8-10.2 1.8-16.4-3.5 3.95-9.55 12.55-8.65-17.1-3.85-51-15.35 40.1-5.65 82.3l7.25 1.55 0.45-0.4m9.55-28.6q0.9 5.7 3.65 12.55 7.35 19.1 13.4 27.2 6 7.95 12.7 9.3 11.3 2.15 21.65-0.55 9.45-2.65 17.05-9.2m6.7-6.55q1.5-1.9 3.85-3 4.1-1.9 8.35-0.15h0.05m5.7-1.45-0.15-0.4m-2.85-4.95-0.15 0.15 0.15-0.1m-23.6 10.85-0.15 0.05m0.15-0.05-0.15-0.05m6.55 8.35q-0.65-2.95 0.45-5.9 0.65-1.9 1.8-3.35m1.05 15.6q-1.4-1.4-2.25-3.25-0.75-1.6-1.05-3.1m19.85 5.1 1.45-2.95q1.1-3.6 0.05-7.1l-0.6-1.55q-2.05-4.25-6.25-5.9m-11.5 29.95-1.25-3.35m18.1-9.1q-1.5 2.2-3.9 3.5-4.1 2.05-8.45 0.45-2.25-0.8-3.75-2.25m6.95 6.8 19.55-9.95v0.05l-0.2-0.4-1.5-2.6-8.35-14.55m-9.5 27.45-7.7 3.95-1 1.95 8.6-4.4 1.15-0.55m16.8-13.85 6.3-3.3q5.25-2.9 10.55-5.7l14.55 21.4 16.6-9.6m-52.35 4.7q3.9-2.05 7.95-4.1l-1.9-0.4m-13.2-22.75q-11.75 5.35-23.45 10.75m39.35 33 5.65-3.15-3.7-7.9-6.6 3.45-13.3 7.1-2.9 1.55m1.8 9.4 4-2.2 15.05-8.25 12.2 26.15 7.3-4.45 5.1 11-4.4 2.85 3.5 7.45 2.25 5 5.1 10.9 0.5-0.2-0.45 0.35 5.55 11.85 3.4 7.3 4.5 9.7 3.85 8.2 2.4 5.15 1.55 3.3 2.35-1.85 2.65-2.2 4.35 9.55-8.1 6.7m-0.15 0.15-17.25 14.3-3.35 2.8-4.7-9.95 3.9-3.15 1.55-1.2-1.55-3.25-2.85-6.1-2.15-4.65-6.15-13.15-4.1-8.6-4.15-8.8-3.55-7.55-2.7-5.8-2.5-5.25-1.9-4-2-4.15-2.5 1.6-2.4 1.5-5.45-11.65 4.75-2.9 3.1-1.95-9.9-21.05-1.5-3.25-1.15-2.45m8.75-19.4-2.45-5.35-12.45 6.35m16.55 2.55-1.65-3.55m-15 3.6 3.35 7.05m-3.35-7.05-1.05-2.05m3.3 20.05-2.1 1.1-3.9-8.3 4.2-2.2m21.75 31.95 9.8-6m1.5-0.85-1.5 0.85m-9.8 6q-1.65 0.95-3.4 2m10.2 18.95 7.45-5.2m-7.45 5.2-3.8 2.6m2.5 5.25 3.85-2.7 15.7-11.1m-2.25-5q-4.35 2.85-8.55 5.75m-15.15-0.35 20.2-12.85m10.9 23.5-0.05-0.15-17.45 6.9m2.9 6 14.6-12.75m-14.3 24.9 4.2-2.85 15.65-10.2m-20.15 0.9-3.85 3.35m-3.55-7.55 4.5-1.8m17.45 35.8 1.9-1.95 11.6-11.75m-23.65 4.65 4.2-3.1m14.95-11.25-14.95 11.25m23.3 6.65-7.3 5.4-7.4 5.45m2.9 5.8 14.2-11.5m-12.65 14.8 14.2-11.5m-23.15 5.8 4.5-3.4m-2.65-5.35-4 4.1m11.1 10.35-4.55 3.65m-1.55-3.25 4.55-3.7m-3.65-13.1 8.15 1.85" fill="none" stroke="#000" stroke-linecap="round" stroke-linejoin="round" stroke-opacity=".25098" stroke-width=".05"/>
</g>
</defs>
</svg>
