<?xml version="1.0" encoding="UTF-8"?>
<svg version="1.1" viewBox="0 0 101.45 98.4" xmlns="http://www.w3.org/2000/svg" xmlns:cc="http://creativecommons.org/ns#" xmlns:dc="http://purl.org/dc/elements/1.1/" xmlns:rdf="http://www.w3.org/1999/02/22-rdf-syntax-ns#" xmlns:xlink="http://www.w3.org/1999/xlink">
<metadata>
<rdf:RDF>
<cc:Work rdf:about="">
<dc:format>image/svg+xml</dc:format>
<dc:type rdf:resource="http://purl.org/dc/dcmitype/StillImage"/>
</cc:Work>
</rdf:RDF>
</metadata>
<g transform="translate(-224.25 -151.25)">
<use transform="translate(224.25,151.25)" width="101.45" height="98.400002" xlink:href="#a"/>
</g>
<defs>
<g id="a" transform="translate(-224.25,-151.25)">
<path d="m284.3 181.85h-7.35v-1.85l16.45-20.6 5.35 4.25-14.45 18.2m7.3-13.3 4.1-4.8-4.1 4.8-4 4.75 4-4.75-1.6-1.15-2.3 3.25 2.3-3.25 1.6 1.15m-8.5 10.2-2.5 3.1 2.5-3.1" fill="#b1ad54" fill-rule="evenodd"/>
<path d="m276.95 180 16.45-20.6 5.35 4.25-14.45 18.2" fill="none" stroke="#000" stroke-linecap="round" stroke-linejoin="round" stroke-opacity=".6" stroke-width=".6"/>
<path d="m280.6 181.85 2.5-3.1m4.5-5.45 4-4.75-1.6-1.15-2.3 3.25m8-6.9-4.1 4.8" fill="none" stroke="#000" stroke-linecap="round" stroke-linejoin="round" stroke-opacity=".6" stroke-width=".05"/>
<path d="m237.25 240.2-0.1 0.2 0.05-0.15 0.05-0.05" fill="#bfbb71" fill-rule="evenodd"/>
<path d="m274.3 193.7-4.75 5.95-30.2 37.95-0.15 1.65q-0.95 0.45-1.95 0.95l-0.05 0.05-0.05 0.15-0.65 2.1-2.15 1.4-4.35 5.45-5.45-4.25 3.8-4.75 0.15-2q1.3-0.75 2.55-1.45l0.25-0.3 0.1-0.05h-0.1l0.4-2.05 2.2-1.1 28.25-35.6 3.85-4.8q5.1-1.9 8.3 0.7m-6 2.85-9.5 12.1-2-1.35-2.45 2.9 2.45-2.9 2 1.35 9.5-12.1m-9.5 12.1-16.05 20.45 16.05-20.45m-22.05 31.2q-0.85-1.95-3.9-2.45 3.05 0.5 3.9 2.45" fill="#b1ad54" fill-rule="evenodd"/>
<path d="m266 193 12.6-15.8 5.4 4.25-9.7 12.25q-3.2-2.6-8.3-0.7m6.8-1.9 4.05-4.75 4.1-4.8-4.1 4.8-4.05 4.75m0.1-2.7 2.35-3.2 1.6 1.15-1.6-1.15-2.35 3.2" fill="#8b873f" fill-rule="evenodd"/>
<path d="m266 193 12.6-15.8 5.4 4.25-9.7 12.25-4.75 5.95m-30.2 37.95-0.15 1.65q-0.95 0.45-1.95 0.95m-0.1 0.2-0.65 2.1-2.15 1.4m-6-3.55 0.15-2q1.3-0.75 2.55-1.45l0.25-0.3v-0.05l0.4-2.05 2.2-1.1m28.25-35.6 3.85-4.8m-28.85 47.4 0.05-0.15 0.05-0.05m-5.95-3.6 0.1-0.05" fill="none" stroke="#000" stroke-linecap="round" stroke-linejoin="round" stroke-opacity=".6" stroke-width=".6"/>
<path d="m269.55 199.65-30.2 37.95m-2.1 2.6-0.1 0.2m-2.8 3.5-4.35 5.45-5.45-4.25 3.8-4.75m5.55-6.95 28.25-35.6" fill="none" stroke="#000" stroke-linecap="round" stroke-linejoin="round" stroke-opacity=".6" stroke-width=".6"/>
<path d="m254.35 210.2 2.45-2.9 2 1.35 9.5-12.1m12.65-15-4.1 4.8-4.05 4.75m-30.05 38 16.05-20.45m18.05-22.3-1.6-1.15-2.35 3.2m-40.05 49q3.05 0.5 3.9 2.45" fill="none" stroke="#000" stroke-linecap="round" stroke-linejoin="round" stroke-opacity=".6" stroke-width=".05"/>
<path d="m315.9 169.85-0.75 3.35-1.45 4.8 3.7 3.85-5.75 0.85q-6.65 12.9-20.9 15.4l-1.1 0.2-2.65 0.25-1.85-5.9q-0.4-4.6-1.95-7.85-2.25-4.65-7.65-7.05-5.7-2.55-14.4 1.8 1.8-16.25 19.2-25.3-0.2 11.6 5.35 16.15 5.45 4.5 11.3 4.4 4.45-0.1 12.1-2.55l6.8-2.4" fill="#adbac6" fill-rule="evenodd"/>
<path d="m285.15 192.65 1.85 5.9 2.65-0.25 1.1-0.2q14.25-2.5 20.9-15.4l5.75-0.85-3.7-3.85 1.45-4.8 0.75-3.35q3.35-1.3 9.5-18.3-3.3 46.85-20.9 57.55l-5.05-5.1 1.3 6.05q-7.25 2.7-30.1 7.2 14.2-13.8 14.55-18.6 0.2-3.25-0.05-6" fill="#dde2e8" fill-rule="evenodd"/>
<path d="m285.15 192.65q0.25 2.75 0.05 6-0.35 4.8-14.55 18.6 22.85-4.5 30.1-7.2l-1.3-6.05 5.05 5.1q17.6-10.7 20.9-57.55-6.15 17-9.5 18.3l-6.8 2.4q-7.65 2.45-12.1 2.55-5.85 0.1-11.3-4.4-5.55-4.55-5.35-16.15-17.4 9.05-19.2 25.3 8.7-4.35 14.4-1.8 5.4 2.4 7.65 7.05 1.55 3.25 1.95 7.85z" fill="none" stroke="#000" stroke-linecap="round" stroke-linejoin="round" stroke-opacity=".6" stroke-width=".6"/>
<path d="m289.15 184.8q0.35-0.85 1-1.7l1.4-1.4-0.2-0.85q-0.3-1.9 0.85-3.35 1.1-1.45 2.9-1.7 1.85-0.25 3.3 0.8 1.45 1.1 1.75 3l0.05 0.6h0.1q1.3 0.5 2.4 1.4 1.05 0.85 1.7 1.85l0.15 0.1 0.6-0.05q1.85-0.2 3.25 1 1.4 1.15 1.6 3 0.15 1.8-1 3.2-1.2 1.45-3.05 1.65l-0.65 0.05-0.05 0.05-1.05 1.7-1.35 1.4-2.6-2-2.05-1.65-2.45-1.9-2.35-1.85-2.45-1.95-1.8-1.4" fill="#dadfe4" fill-rule="evenodd"/>
<path d="m302.85 195.55q-1.9 1.65-4.6 1.95l-1.2 0.15-2.9-0.6q-1.3-0.45-2.5-1.4l-0.2-0.15q-1.25-1.05-2-2.3-0.9-1.55-1.15-3.5v-0.1q-0.3-2.6 0.85-4.8l1.8 1.4 2.45 1.95 2.35 1.85 2.45 1.9 2.05 1.65 2.6 2m-5.8 2.1 3.2-4.1-3.2 4.1m-2.9-0.6 4.05-5.15-4.05 5.15m-5.85-7.45 2.65-3.4-2.65 3.4m1.15 3.6 3.95-5.05-3.95 5.05m2 2.3 4.3-5.5-4.3 5.5" fill="#f7f8f9" fill-rule="evenodd"/>
<path d="m289.15 184.8q0.35-0.85 1-1.7l1.4-1.4-0.2-0.85q-0.3-1.9 0.85-3.35 1.1-1.45 2.9-1.7 1.85-0.25 3.3 0.8 1.45 1.1 1.75 3l0.05 0.6h0.1q1.3 0.5 2.4 1.4 1.05 0.85 1.7 1.85l0.15 0.1 0.6-0.05q1.85-0.2 3.25 1 1.4 1.15 1.6 3 0.15 1.8-1 3.2-1.2 1.45-3.05 1.65l-0.65 0.05-0.05 0.05-1.05 1.7-1.35 1.4q-1.9 1.65-4.6 1.95l-1.2 0.15-2.9-0.6q-1.3-0.45-2.5-1.4l-0.2-0.15q-1.25-1.05-2-2.3-0.9-1.55-1.15-3.5v-0.1q-0.3-2.6 0.85-4.8l1.8 1.4 2.45 1.95 2.35 1.85 2.45 1.9 2.05 1.65 2.6 2" fill="none" stroke="#000" stroke-linecap="round" stroke-linejoin="round" stroke-opacity=".6" stroke-width=".3"/>
<path d="m295.75 190-4.3 5.5m1.95-7.35-3.95 5.05m1.5-7-2.65 3.4m9.9 2.3-4.05 5.15m6.1-3.5-3.2 4.1" fill="none" stroke="#000" stroke-linecap="round" stroke-linejoin="round" stroke-opacity=".6" stroke-width=".05"/>
<path d="m300.75 186q1.5-0.2 2.7 0.7 1.2 0.95 1.4 2.55 0.2 1.55-0.75 2.75t-2.55 1.35q-1.5 0.2-1.15-1.9 0.4-2.2-0.45-3.2-0.8-1.05-0.8-1.55 0-0.55 1.6-0.7" fill="#4e5c6b" fill-rule="evenodd"/>
<path d="m298.85 184.65q-0.2-1.6-1.4-2.5-1.2-0.95-2.7-0.75-1.6 0.15-2.55 1.35t-0.75 2.75q0.2 1.6 2.15 0.7 2-0.9 3.25-0.3l1.7 0.45q0.5-0.15 0.3-1.7" fill="#4e5c6b" fill-rule="evenodd"/>
<path d="m291.7 172.4-10.1 12.8-5.75-4.5 10.1-12.8 5.75 4.5" fill="#4e5c6b" fill-rule="evenodd"/>
<path d="m291.7 172.4-10.1 12.8-5.75-4.5 10.1-12.8z" fill="none" stroke="#000" stroke-linecap="round" stroke-linejoin="round" stroke-opacity=".6" stroke-width=".6"/>
</g>
</defs>
</svg>
