<?xml version="1.0" encoding="UTF-8"?>
<svg version="1.1" viewBox="0 0 352.09 380.21" xmlns="http://www.w3.org/2000/svg" xmlns:cc="http://creativecommons.org/ns#" xmlns:dc="http://purl.org/dc/elements/1.1/" xmlns:rdf="http://www.w3.org/1999/02/22-rdf-syntax-ns#" xmlns:xlink="http://www.w3.org/1999/xlink">
<metadata>
<rdf:RDF>
<cc:Work rdf:about="">
<dc:format>image/svg+xml</dc:format>
<dc:type rdf:resource="http://purl.org/dc/dcmitype/StillImage"/>
</cc:Work>
</rdf:RDF>
</metadata>
<g transform="translate(-138.39 31.49)">
<use transform="translate(138.4,-31.45)" width="352.04999" height="380.14999" xlink:href="#a"/>
</g>
<defs>
<g id="a" transform="translate(-138.4,31.45)">
<path d="m392.7-14.5q52.2-21.95 97.75-15.5-15.2 6.55-28.4 14.3-25.25-1.25-31.85 5.95-3.35 2.65 0.05 4.05 3.5 1.45 14.2 1.55-5.55 4.05-10.6 8.4-8.6 2-23 6.85-14.5 4.9-23.2-2.4 11.4-10.15 27.25-18.55-43.45 14.55-22.2-4.65" fill="#9e9d03" fill-rule="evenodd"/>
<path d="m430.25-5.7q-3.4-1.4-0.05-4.05 6.6-7.2 31.85-5.95-18.85 1.1-31.8 10m-32.3 51.95v0.05q-22.05 9.3-33.2 26.2-3.15-0.4-3.45-2.25 5.55-15.65 36.65-24m-49-3.35q-4.5-0.2-4.15-3.6 0.4-3.65 6-8.7 5.45-5.1 13-8.65 7.45-3.6 12.5-3.55l1.55 0.1q1.95 0.3 2.65 1.4l-0.3 0.3q-5-0.05-12.55 3.55-7.5 3.6-13 8.65-5.55 5.05-5.95 8.7-0.1 1.1 0.25 1.8m3.35 93.2q-1.85-0.9-4.55-1.45-7.35-1.5-17.15 0.3-9.75 1.8-16.2 5.9-6.35 4.1-5.6 8.05 0.25 1.4 1.3 2.5-3.2-1.55-3.65-4.1-0.75-3.95 5.65-8.05 6.35-4.05 16.15-5.9 9.75-1.8 17.2-0.3 4.8 0.95 6.85 3.05" fill="#788202" fill-rule="evenodd"/>
<path d="m392.7-14.5q-21.25 19.2 22.2 4.65-15.85 8.4-27.25 18.55-10.05-7.1-51.1 7.3 28.9-19.1 56.15-30.5m-193.65 210.2q21.3-4.8 38.55-14.65 29.95-4.95 36.95-9.4 1.55-0.8 4.55-1.65-0.5 1.55-0.85 3.15-4.65 19.45-30.6 33.6l-6.7-1.75-8.95-1.7q-1.55-1.85-4.55-3.5-6.8-3.75-16.85-4.5l-1.4-0.1-10.15 0.5" fill="#b17c01" fill-rule="evenodd"/>
<path d="m387.65 8.7q8.7 7.3 23.2 2.4 14.4-4.85 23-6.85-12.95 11-23.2 23.8-19.85 9.25-41.15 20.1-21.25 10.9-25.1 3.85 4.9-5.6 11.65-10.2 2.7-0.9 5.9-2.4 7.5-3.6 13-8.65 5.55-5.1 5.95-8.75 0.1-1.05-0.25-1.8l-0.15-0.3q-0.7-1.1-2.65-1.4 4.4-5.1 9.8-9.8m-87.65 124.6q12.6-1.4 25.65-7.9 13.15-6.4 47.9 4.95-0.9 14.2-0.1 29.45-9.65 0.7-28.45-2.05-18.85-2.75-39.15 3.65-20.2 6.35-26.75 8.6 6.7-23.6 20.9-36.7m52.3 2.8q-2.05-2.1-6.85-3.05-7.45-1.5-17.2 0.3-9.8 1.85-16.15 5.9-6.4 4.1-5.65 8.05 0.45 2.55 3.65 4.1 1.8 0.85 4.5 1.4 7.45 1.55 17.25-0.3 9.75-1.8 16.1-5.9 6.45-4.05 5.7-8.05-0.25-1.35-1.35-2.45" fill="#bac903" fill-rule="evenodd"/>
<path d="m398 46.25h-0.05q-31.1 8.35-36.65 24 0.3 1.85 3.45 2.25 5.95 0.65 22.4-4.4-3.3 7.9-5.7 16.25l-11.7 2.15-25.35 5.15q-18.85-9.95-6.15-31.3 2.6-4.4 6.15-8.35 3.85 7.05 25.1-3.85 21.3-10.85 41.15-20.1-7 8.65-12.65 18.2m-23.2 70.1q-0.85 6.85-1.25 14-34.75-11.35-47.9-4.95-13.05 6.5-25.65 7.9 3.45-3.2 7.4-5.7-1.25-10.1 17.75-19.75 6.25 4.6 26.1 6.95l23.55 1.55" fill="#979702" fill-rule="evenodd"/>
<path d="m377.85 18.5-1.55-0.1q-5.05-0.05-12.5 3.55-7.55 3.55-13 8.65-5.6 5.05-6 8.7-0.35 3.4 4.15 3.6l0.5 0.05q2.85 0 6.6-1.15-6.75 4.6-11.65 10.2-1.05-13-37.35 15.5 2.85-15.85 4.15-33.65 12.8-9.65 25.35-17.85 41.05-14.4 51.1-7.3-5.4 4.7-9.8 9.8m-140.25 162.55q28.1-16 45.7-45.5 4.9 2.95 16.7-2.25-14.2 13.1-20.9 36.7-3 0.85-4.55 1.65-7 4.45-36.95 9.4" fill="#c90" fill-rule="evenodd"/>
<path d="m344.4 52q-3.55 3.95-6.15 8.35-12.7 21.35 6.15 31.3-11.15 2.6-15.95 4.55-4.4 1.8-5.65 3.75-1 1.5-0.5 4 0.35 2.1 2.85 3.9-19 9.65-17.75 19.75-3.95 2.5-7.4 5.7-11.8 5.2-16.7 2.25 6-10.05 10.7-21.7 18.5-3.6 19.2-17.85 0.3-7.45-11.55-4.5 3.2-11.4 5.4-24 36.3-28.5 37.35-15.5" fill="#a07001" fill-rule="evenodd"/>
<path d="m344.4 91.65 25.35-5.15 11.7-2.15q-4.6 15.25-6.65 32l-23.55-1.55q-19.85-2.35-26.1-6.95 11.75-5.95 31.25-11.75-7.1-1.85-12-4.45m29.05 68.15 0.6 9.7q-119.05 8.9-70.9 57.4-12-0.05-23-5.1 0.25-2.85-2.1-6-2.05-2.7-5.3-4.5-1.55-0.75-3.25-1.35-5.5-2-10.35-0.8-1.25 0.3-2.25 0.8-4.45-1.75-9.25-3.2 25.95-14.15 30.6-33.6 0.35-1.6 0.85-3.15 6.55-2.25 26.75-8.6 20.3-6.4 39.15-3.65 18.8 2.75 28.45 2.05" fill="#afaf03" fill-rule="evenodd"/>
<path d="m325.15 107.85q-2.5-1.8-2.85-3.9-0.5-2.5 0.5-4 1.25-1.95 5.65-3.75 4.8-1.95 15.95-4.55 4.9 2.6 12 4.45-19.5 5.8-31.25 11.75" fill="#c18702" fill-rule="evenodd"/>
<path d="m313.2 96q-3.8-4.55-10.35-1.35-1.45-2.2-1.2-3.15 11.85-2.95 11.55 4.5" fill="#7e5801" fill-rule="evenodd"/>
<path d="m186 202.7q0.45-1.15 1.45-2.15 1.9-1.95 5.8-3.35 2.7-1.05 5.8-1.5l10.15-0.5q-10.25 4.35 0.6 10.85 7.3 4.4 21.55 6.55-1.85 1.55-5.1 2.7-7.3 2.65-17.35 1.9-10-0.8-16.85-4.55t-6.5-8.3q0.05-0.85 0.45-1.65m86.75 8.6q3.25 1.8 5.3 4.5 2.35 3.15 2.1 6-4.55-2.1-9.05-5.1-3.1-1.8-6.25-3.35l7.9-2.05" fill="#dbddc4" fill-rule="evenodd"/>
<path d="m173.3 206.2q4.5-2.2 9.85-3.15l2.85-0.35q-0.4 0.8-0.45 1.65-0.35 4.55 6.5 8.3t16.85 4.55q10.05 0.75 17.35-1.9 3.25-1.15 5.1-2.7 2.35-1.95 2.55-4.45 0.2-2.55-1.9-4.85l8.95 1.7q-9.5 14.55 23.9 24.55 16.35 7.35 40.7 8.65l12.95-1.45-3.2 2.25q-9.45 6-21.95 4.55l-12.95-4.1-32.45-10.15-18.8-5.85-5.35-0.95q-10.15-1.9-18.8-2.8l-21.3-0.65q-14.55 0.1-10.4-12.85" fill="#900" fill-rule="evenodd"/>
<path d="m319.7 260.85q-10.95 9.3-29.4 12.75-12.15-0.65-22.3-2.55-11.05-2.1-19.6-5.55-6.95-2.85-12.3-6.65l3.2-2.45 4.7 3.55 18.75 6.5q10.1 5.25 35.25-0.8 9.6-1.1 21.7-4.8m-159.55-13.45q-5.9-7.95-5.25-18.75 1.55-4.5 3.65-8.2 5.65 15.3 19.15 19.15-12.4 3.75-8.45 11.5-4.7-0.6-9.1-3.7m8.9-38.7q2-1.4 4.25-2.5-4.15 12.95 10.4 12.85 0.7 10.65 18.65 22.75l-7.45-0.9-8.4-0.8q-19.85-11.75-17.45-31.4m98.95 62.35q-3.3-2.2-5.25-4.6 1.95 2.4 5.25 4.6m-20.05-41.75 32.45 10.15q-8.3 13.25-28.5 14.2l-6.15-2.1-13.25-3.9q12.55-5.8 15.45-18.35m0.45 36.2q-2.9-2.35-4.4-5.55 1.5 3.2 4.4 5.55" fill="#c60" fill-rule="evenodd"/>
<path d="m256.9 209.95q1-0.5 2.25-0.8 4.85-1.2 10.35 0.8 1.7 0.6 3.25 1.35l-7.9 2.05q-3.95-1.85-7.95-3.4m-47.7-14.75 1.4 0.1q10.05 0.75 16.85 4.5 3 1.65 4.55 3.5 2.1 2.3 1.9 4.85-0.2 2.5-2.55 4.45-14.25-2.15-21.55-6.55-10.85-6.5-0.6-10.85" fill="#fff" fill-rule="evenodd"/>
<path d="m303.15 226.9q10.7 0.05 22.3-3.9 2.65-1 4.6-1.05-5 9.35-11.55 14.8l-12.95 1.45q-24.35-1.3-40.7-8.65-33.4-10-23.9-24.55l6.7 1.75q4.8 1.45 9.25 3.2 4 1.55 7.95 3.4 3.15 1.55 6.25 3.35 4.5 3 9.05 5.1 11 5.05 23 5.1" fill="#c00" fill-rule="evenodd"/>
<path d="m172.35 257.75q-7.9-4.35-12.2-10.35 4.4 3.1 9.1 3.7l4.95 4.75-1.85 1.9m-13.8-37.3q4.2-7.35 10.5-11.75-2.4 19.65 17.45 31.4l-8.8-0.5q-13.5-3.85-19.15-19.15m108.3 39.2 7.8 3.55q9.05 4 23.35 2.45-25.15 6.05-35.25 0.8-3.6-4.45-2.85-9.7l6.95 2.9m-27.55-3.25 3.35-2.45q0.1 3.3 1.35 6l-4.7-3.55m-28.9-13.4-8.05-1.2q-17.95-12.1-18.65-22.75l21.3 0.65q-5.4 12.45 5.4 23.3" fill="#984b01" fill-rule="evenodd"/>
<path d="m139.05 299.2q6.15-9.15 12.45-17.35 1.25 0.3 3.3-0.45 3.4-1 6.9-3.95 3.55-3.05 5.05-6.3 1.55-3.1 0.35-4.6-0.75-0.85-2.05-0.85l-0.05-0.05 3.5-3.8 3.85-4.1 1.85-1.9 2.95-2.9 4.45-4.15 2.85-2.25q22.25 5.9 31.2 17-2.7 4.7-3.35 11.3l2.2 11.8-15.2-2.25-6.1 2.9-0.9 0.45v0.25l-5.95 22.15q0.5 4.9 2.4 10.25-13.45 10.55-25.25 9.3l-14-7.9-10.45-22.6m65.8-36.15q-0.05-1.95-1.1-3.3-2.4-2.85-8.8-0.9-6.3 2.05-12.85 7.6-6.65 5.7-9.55 11.55-2.9 6.15-0.55 8.95 0.75 0.8 1.9 1.2 2.45 0.95 6.8-0.55 6.45-1.9 13-7.5 6.6-5.65 9.45-11.7 1.6-3.1 1.7-5.35" fill="#dbb357" fill-rule="evenodd"/>
<path d="m225.35 287.7-9.55 8.9-16.5-12.2 15.2 2.25 10.85 1.05m-33.6 24.55 1.95 10.3-4.95-2.15q-1.9-5.35-2.4-10.25l5.4 2.1m-12.95 34.2-12.25 2.25-15.9-1.95 13.95-5.55q7.05 2.55 14.2 5.25m-27.3-64.6 5.65-3.25q5.5-3.25 7.8-12.9h0.1q1.3 0 2.05 0.85 1.2 1.5-0.35 4.6-1.5 3.25-5.05 6.3-3.5 2.95-6.9 3.95-2.05 0.75-3.3 0.45m22.4 6.3q-1.15-0.4-1.9-1.2-2.35-2.8 0.55-8.95 2.9-5.85 9.55-11.55 6.55-5.55 12.85-7.6 6.4-1.95 8.8 0.9 1.05 1.35 1.1 3.3-2.55-1.05-7 0.3-6.35 2.1-12.85 7.65-6.65 5.65-9.55 11.55-1.55 3.25-1.55 5.6" fill="#a88024" fill-rule="evenodd"/>
<path d="m335 232.8-8.75 9.65q-7 7.35-1.6 13.55-7.3-0.1-7-6.35 2.3-9.65 8.15-13.8 3.85-2.75 9.2-3.05m-160.8 23.05-4.95-4.75q5.9 0.75 12.35-2.3l-4.45 4.15-2.95 2.9" fill="#542b01" fill-rule="evenodd"/>
<path d="m204.85 263.05q-0.1 2.25-1.7 5.35-2.85 6.05-9.45 11.7-6.55 5.6-13 7.5-4.35 1.5-6.8 0.55 0-2.35 1.55-5.6 2.9-5.9 9.55-11.55 6.5-5.55 12.85-7.65 4.45-1.35 7-0.3" fill="#630" fill-rule="evenodd"/>
<path d="m223.5 267.7q-1.8 2.9-0.55 7.25l-10.65-0.1q0.65-6.6 3.35-11.3l7.85 4.15m-7.7 28.9q-9.95-3.6-16.2 3l-7.25-11.7v-0.05l0.85-0.55 6.1-2.9 16.5 12.2m-76.35 37.6q-1.85-17.45-0.4-35l10.45 22.6-10.05 12.4" fill="#af8525" fill-rule="evenodd"/>
<path d="m193.7 322.55-5.55 19.35q-4.7 2.2-9.35 4.55-7.15-2.7-14.2-5.25l-1.1-11.5q11.8 1.25 25.25-9.3l4.95 2.15" fill="#d2a02d" fill-rule="evenodd"/>
<path d="m222.95 274.95 2.4 12.75-10.85-1.05-2.2-11.8 10.65 0.1m-23.35 24.65-7.85 12.65-5.4-2.1 5.95-22.15 0.05-0.1 7.25 11.7m-48.95 47.15q-7.1-4.75-11.2-12.55l10.05-12.4 14 7.9 1.1 11.5-13.95 5.55" fill="#85651d" fill-rule="evenodd"/>
<path d="m330.05 221.95q7-0.3 4.95 10.85-5.35 0.3-9.2 3.05l-7.3 0.9q6.55-5.45 11.55-14.8m-49.65 17.5 12.95 4.1q12.5 1.45 21.95-4.55-14.85 19.8-48.45 20.65l-6.95-2.9-8-3.1q20.2-0.95 28.5-14.2" fill="#fd8813" fill-rule="evenodd"/>
<path d="m324.65 256-4.95 4.85q-12.1 3.7-21.7 4.8-14.3 1.55-23.35-2.45l-7.8-3.55q33.6-0.85 48.45-20.65l3.2-2.25 7.3-0.9q-5.85 4.15-8.15 13.8-0.3 6.25 7 6.35m-119.65-36.3q8.65 0.9 18.8 2.8l5.35 0.95 18.8 5.85q-2.9 12.55-15.45 18.35l-9.25-2.15q-4.4-15.45 0.55-23-4.95 7.55-0.55 23l-12.85-2.5q-10.8-10.85-5.4-23.3" fill="#ec7702" fill-rule="evenodd"/>
<path d="m236.1 258.85-5.2 3.9-7.9-6.65 22.75-4.55-3.1 2.4-3.35 2.45-3.2 2.45" fill="#695016" fill-rule="evenodd"/>
<path d="m215.65 263.55q-8.95-11.1-31.2-17 5.05-3.7 10.45-5.65l7.45 0.9 8.05 1.2 12.85 2.5 9.25 2.15 13.25 3.9-22.75 4.55q-4.65 2.7-7.35 7.45" fill="#84511e" fill-rule="evenodd"/>
<path d="m230.9 262.75q-5.45 1.7-7.4 4.95l-7.85-4.15q2.7-4.75 7.35-7.45l7.9 6.65" fill="#9f6224" fill-rule="evenodd"/>
<path d="m181.6 248.8q-6.45 3.05-12.35 2.3-3.95-7.75 8.45-11.5l8.8 0.5 8.4 0.8q-5.4 1.95-10.45 5.65l-2.85 2.25m70.3 4.85 8 3.1q-0.75 5.25 2.85 9.7l-18.75-6.5q-1.25-2.7-1.35-6l3.1-2.4 6.15 2.1" fill="#763c01" fill-rule="evenodd"/>
<path d="m462.05-15.7q13.2-7.75 28.4-14.3-45.55-6.45-97.75 15.5-21.25 19.2 22.2 4.65-15.85 8.4-27.25 18.55m46.2-4.45q5.05-4.35 10.6-8.4-10.7-0.1-14.2-1.55-3.4-1.4-0.05-4.05m31.85-5.95q-18.85 1.1-31.8 10m-32.3 52 0.05-0.05h-0.05m-36.65 24q0.3 1.85 3.45 2.25 11.15-16.9 33.2-26.2m12.7-18.25q10.25-12.8 23.2-23.8m-35.85 42q5.65-9.55 12.65-18.2m-66.25 23.95q-3.55 3.95-6.15 8.35-12.7 21.35 6.15 31.3 4.9 2.6 12 4.45-19.5 5.8-31.25 11.75-19 9.65-17.75 19.75-3.95 2.5-7.4 5.7-14.2 13.1-20.9 36.7-0.5 1.55-0.85 3.15-4.65 19.45-30.6 33.6 4.8 1.45 9.25 3.2 1-0.5 2.25-0.8 4.85-1.2 10.35 0.8 1.7 0.6 3.25 1.35 3.25 1.8 5.3 4.5 2.35 3.15 2.1 6 11 5.05 23 5.1 10.7 0.05 22.3-3.9 2.65-1 4.6-1.05 7-0.3 4.95 10.85l-8.75 9.65q-7 7.35-1.6 13.55l-4.95 4.85q-10.95 9.3-29.4 12.75-12.15-0.65-22.3-2.55-11.05-2.1-19.6-5.55-6.95-2.85-12.3-6.65l-5.2 3.9q-5.45 1.7-7.4 4.95-1.8 2.9-0.55 7.25l2.4 12.75-9.55 8.9q-9.95-3.6-16.2 3l-7.85 12.65 1.95 10.3-5.55 19.35q-4.7 2.2-9.35 4.55l-12.25 2.25-15.9-1.95q-7.1-4.75-11.2-12.55-1.85-17.45-0.4-35 6.15-9.15 12.45-17.35l5.65-3.25q5.5-3.25 7.8-12.9l0.05-0.05 3.5-3.8 3.85-4.1q-7.9-4.35-12.2-10.35-5.9-7.95-5.25-18.75 1.55-4.5 3.65-8.2 4.2-7.35 10.5-11.75 2-1.4 4.25-2.5 4.5-2.2 9.85-3.15l2.85-0.35q0.45-1.15 1.45-2.15 1.9-1.95 5.8-3.35 2.7-1.05 5.8-1.5 21.3-4.8 38.55-14.65 28.1-16 45.7-45.5 6-10.05 10.7-21.7 18.5-3.6 19.2-17.85-3.8-4.55-10.35-1.35-1.45-2.2-1.2-3.15 3.2-11.4 5.4-24m74.4 16.85q2.4-8.35 5.7-16.25-16.45 5.05-22.4 4.4m13.1-54q4.4-5.1 9.8-9.8m-51.1 7.3q-12.55 8.2-25.35 17.85-1.3 17.8-4.15 33.65m37.35-15.5q4.9-5.6 11.65-10.2-3.75 1.15-6.6 1.15l-0.5-0.05q-0.35-0.7-0.25-1.8 0.4-3.65 5.95-8.7 5.5-5.05 13-8.65 7.55-3.6 12.55-3.55h0.45l-0.15-0.3q-0.7-1.1-2.65-1.4m2.8 1.7q0.35 0.75 0.25 1.8-0.4 3.65-5.95 8.75-5.5 5.05-13 8.65-3.2 1.5-5.9 2.4m17.5 88.55q0.4-7.15 1.25-14 2.05-16.75 6.65-32m-7.9 46q-0.9 14.2-0.1 29.45l0.6 9.7q-119.05 8.9-70.9 57.4m6.95-75.5q-1.05-1.1-1.3-2.5-0.75-3.95 5.6-8.05 6.45-4.1 16.2-5.9 9.8-1.8 17.15-0.3 2.7 0.55 4.55 1.45m-42.2 15.3q1.8 0.85 4.5 1.4 7.45 1.55 17.25-0.3 9.75-1.8 16.1-5.9 6.45-4.05 5.7-8.05-0.25-1.35-1.35-2.45m-15.75-120.1q28.9-19.1 56.15-30.5m-209 233.55q-14.55 0.1-10.4-12.85m58.05 6.4q-1.85 1.55-5.1 2.7-7.3 2.65-17.35 1.9-10-0.8-16.85-4.55t-6.5-8.3q0.05-0.85 0.45-1.65m23.2-7.5 1.4 0.1q10.05 0.75 16.85 4.5 3 1.65 4.55 3.5l8.95 1.7 6.7 1.75m-16.3 5.85q2.35-1.95 2.55-4.45 0.2-2.55-1.9-4.85m-32.95-7.6 10.15-0.5m-39.95 55.9q-4.7-0.6-9.1-3.7m14.05 8.45-1.85 1.9m-7.4 7.95h0.1m9.15-9.85 2.95-2.9 4.45-4.15q-6.45 3.05-12.35 2.3m8.45-11.5q-13.5-3.85-19.15-19.15m46.3 42.6q-0.1 2.25-1.7 5.35-2.85 6.05-9.45 11.7-6.55 5.6-13 7.5-4.35 1.5-6.8 0.55 0-2.35 1.55-5.6 2.9-5.9 9.55-11.55 6.5-5.55 12.85-7.65 4.45-1.35 7-0.3m-16.1 57.35q-1.9-5.35-2.4-10.25l5.95-22.15v-0.25l0.9-0.45 6.1-2.9 15.2 2.25-2.2-11.8q0.65-6.6 3.35-11.3 2.7-4.75 7.35-7.45m-38.55-9.55-2.85 2.25m-32.1 73-10.45-22.6m49.7 21.2q-13.45 10.55-25.25 9.3l-14-7.9m169-85.05q6.55-5.45 11.55-14.8m4.95 10.85q-5.35 0.3-9.2 3.05-5.85 4.15-8.15 13.8-0.3 6.25 7 6.35m-9.35-17 3.2-2.25m-53.65-23.4q3.15 1.55 6.25 3.35 4.5 3 9.05 5.1m-23.25-11.85q4 1.55 7.95 3.4m15.55 26.1 12.95 4.1q12.5 1.45 21.95-4.55-14.85 19.8-48.45 20.65l7.8 3.55q9.05 4 23.35 2.45 9.6-1.1 21.7-4.8m-56.95 5.6q1.95 2.4 5.25 4.6m-63-51.35q8.65 0.9 18.8 2.8l5.35 0.95 18.8 5.85 32.45 10.15q-8.3 13.25-28.5 14.2l8 3.1 6.95 2.9m-30.75-0.8 3.2-2.45 3.35-2.45 3.1-2.4-22.75 4.55m0.25-10.6 9.25 2.15q12.55-5.8 15.45-18.35m-2.2 22.25 6.15 2.1m-9.25 0.3q0.1 3.3 1.35 6 1.5 3.2 4.4 5.55m14.35 0.95q-3.6-4.45-2.85-9.7m-27.4-9.1 13.25 3.9m-21.95-29.05q-4.95 7.55-0.55 23l-12.85-2.5-8.05-1.2-7.45-0.9q-5.4 1.95-10.45 5.65m25.95-3.55q-10.8-10.85-5.4-23.3l-21.3-0.65q0.7 10.65 18.65 22.75m-15.85-1.7 8.4 0.8m-17.2-1.3 8.8 0.5q-19.85-11.75-17.45-31.4m23.3 79.2v-0.05q-0.1 0.1-0.05 0.15m0.9-0.7-0.85 0.55-0.05-0.1" fill="none" stroke="#000" stroke-linecap="round" stroke-linejoin="round" stroke-opacity=".4" stroke-width=".05"/>
<path d="m353.65 138.55q-0.25-1.35-1.35-2.45-1.85-0.9-4.55-1.45-7.35-1.5-17.15 0.3-9.75 1.8-16.2 5.9-6.35 4.1-5.6 8.05 0.25 1.4 1.3 2.5 1.8 0.85 4.5 1.4 7.45 1.55 17.25-0.3 9.75-1.8 16.1-5.9 6.45-4.05 5.7-8.05m1-106.15q-5.55 5.05-5.95 8.7-0.1 1.1 0.25 1.8l0.5 0.05q2.85 0 6.6-1.15 2.7-0.9 5.9-2.4 7.5-3.6 13-8.65 5.55-5.1 5.95-8.75 0.1-1.05-0.25-1.8l-0.15-0.3-0.3 0.3q-5-0.05-12.55 3.55-7.5 3.6-13 8.65m135.8-62.4q-15.2 6.55-28.4 14.3-18.85 1.1-31.8 10 3.5 1.45 14.2 1.55-5.55 4.05-10.6 8.4-12.95 11-23.2 23.8-7 8.65-12.65 18.2h-0.05v0.05q-22.05 9.3-33.2 26.2 5.95 0.65 22.4-4.4-3.3 7.9-5.7 16.25-4.6 15.25-6.65 32-0.85 6.85-1.25 14-0.9 14.2-0.1 29.45l0.6 9.7q-119.05 8.9-70.9 57.4 10.7 0.05 22.3-3.9 2.65-1 4.6-1.05 7-0.3 4.95 10.85l-8.75 9.65q-7 7.35-1.6 13.55l-4.95 4.85q-10.95 9.3-29.4 12.75-12.15-0.65-22.3-2.55-11.05-2.1-19.6-5.55-6.95-2.85-12.3-6.65l-5.2 3.9q-5.45 1.7-7.4 4.95-1.8 2.9-0.55 7.25l2.4 12.75-9.55 8.9q-9.95-3.6-16.2 3l-7.85 12.65 1.95 10.3-5.55 19.35q-4.7 2.2-9.35 4.55l-12.25 2.25-15.9-1.95q-7.1-4.75-11.2-12.55-1.85-17.45-0.4-35 6.15-9.15 12.45-17.35l5.65-3.25q5.5-3.25 7.8-12.9h0.1l-0.05-0.05 3.5-3.8 3.85-4.1q-7.9-4.35-12.2-10.35-5.9-7.95-5.25-18.75 1.55-4.5 3.65-8.2 4.2-7.35 10.5-11.75 2-1.4 4.25-2.5 4.5-2.2 9.85-3.15l2.85-0.35q0.45-1.15 1.45-2.15 1.9-1.95 5.8-3.35 2.7-1.05 5.8-1.5 21.3-4.8 38.55-14.65 28.1-16 45.7-45.5 6-10.05 10.7-21.7 18.5-3.6 19.2-17.85-3.8-4.55-10.35-1.35-1.45-2.2-1.2-3.15 3.2-11.4 5.4-24 2.85-15.85 4.15-33.65 12.8-9.65 25.35-17.85 28.9-19.1 56.15-30.5 52.2-21.95 97.75-15.5m-298.1 317.9v-0.05l0.85-0.55-0.9 0.45v0.25l0.05-0.1" fill="#024301" fill-opacity=".23137" fill-rule="evenodd"/>
</g>
</defs>
</svg>
