<?xml version="1.0" encoding="UTF-8"?>
<svg version="1.1" viewBox="0 0 82.65 82" xmlns="http://www.w3.org/2000/svg" xmlns:cc="http://creativecommons.org/ns#" xmlns:dc="http://purl.org/dc/elements/1.1/" xmlns:rdf="http://www.w3.org/1999/02/22-rdf-syntax-ns#" xmlns:xlink="http://www.w3.org/1999/xlink">
<metadata>
<rdf:RDF>
<cc:Work rdf:about="">
<dc:format>image/svg+xml</dc:format>
<dc:type rdf:resource="http://purl.org/dc/dcmitype/StillImage"/>
</cc:Work>
</rdf:RDF>
</metadata>
<g transform="translate(-234.95 -250.55)">
<use transform="translate(234.95,250.55)" width="82.650002" height="82" xlink:href="#a"/>
</g>
<defs>
<g id="a" transform="translate(-234.95,-250.55)">
<path d="m250.8 252.55-1.95 0.65-1.45-1.85 3-0.2 0.4 1.4m39.55 45.55 1.3-0.2-0.1 2.8-1.2-1.6-0.45-0.55 0.45-0.45m21.65 8.95q1.25 0.65 2.35 0.75l-0.05 1.85q-0.55-0.45-1.3-0.4l-1-2.2m-13.9 24.3-3.75 0.65 0.1-3.1q0.4 0.9 1.85 1.25l2.1-0.9-0.3 2.1m-5.45-3.05q-0.5-1.9-2.25-3.85l-1-1-0.75-0.65 0.7-2 0.75 0.95 0.85 0.95q1.4 1.3 2.35 1.85l-0.65 3.75m-2.8-19.3 2.4 1.1 0.55 8.95 1.6-8.2 2.05 0.55 1.15 1.15-3.5 10.4-4-4-0.25-9.95m4.95 14.65 5.25-8.65 0.9 0.9-4.5 10.4q-1.1-0.1-1.6 0.3l-0.15-1.55q0.55-0.05 0.8-0.7l-0.7-0.7m3.9 3.9-1-1 2.45-4.55-1.45 5.55" fill="#c00" fill-rule="evenodd"/>
<path d="m248.85 253.2-1.85 0.65q-0.1-0.2-0.4-0.3l-1.05-0.05-1.65 1.65-1.5-3.5 5-0.3 1.45 1.85m44.65 44.45 3.5-0.6-3 7.7-1.05-1.85-0.4-0.6 0.95-4.65m7.4-1.2 2.8-0.4-0.65 2.35-0.7-0.4-1.75 0.95 0.3-2.5m15 20-0.25 2.05-7.75 4.35-1.2-1.2 4.7-10 0.2 1 0.95 0.95-2.55 6.35 5.9-3.5m-2.95 12.65-1.05 0.15-1.15-0.45-0.4-3.5 1.8 1.8 0.8 2m-7.65 0.55-0.2 0.6-4.9 0.8 1.65-14.25 1.7 1.7 1.75 11.15m-10.95 2.35-3.25 0.45 1.35-0.55q0.75-1.75 0.2-3.6l0.65-3.75q0.85 0.55 1.4 0.5l0.15 1.55-0.5 0.9q-0.15 0.75 0.1 1.4l-0.1 3.1m-57.9-75.9 0.15-1.15 3.85 3.65-1.15 1.15-2.85-3.65m64.5 45.6 1.55 0.45-0.1 3.5 2.2-0.1 1.8 1.9-10.3 2.2-0.55-1.55 5.4-6.4m7.05 7.35 0.95 0.95-7.55 6.35-1.35-1.35-5.25 8.65-0.7-0.7 3.5-10.4 0.9 0.9-1.7-1.7 11.2-2.7m-9.5 4.4 1.05 1.05 5-3.2-6.05 2.15m1.05 1.05 0.5 0.5-0.5-0.5" fill="#ba0000" fill-rule="evenodd"/>
<path d="m304.7 295.85 2.35-0.35-1.15 0.65q-1.1 2.8 0.65 5.65-0.15 1.45-0.15 2.85-1.25-0.95-2-1.2l0.3-7.6m5.45 9.95q0.9 0.8 1.85 1.25l1 2.2-0.45 0.05q-1.5 0.4-1.15 2.35l-4.7 10-2.45-2.45 0.75 0.75 4.4 8.4-1.3-0.2-2.3-4.2 0.6 4.5q-0.75 0.35-1.1 1.2l-1.75-11.15 0.7 0.7 4.65-7.05-6.2 5.5-0.85-0.85-1.65 14.25-2.1 0.3 0.3-2.1 1.35-0.65-1.05-1.05 1.45-5.55-2.45 4.55-1.25-0.25 4.5-10.4 0.45 0.45 7.55-6.35 0.45 0.45q1.45-0.55 0-2.6l0.75-2.05m4.2 2q1.35 0.15 2.6-0.4l0.55-1.35-0.4 2.7-2.1 1.8-0.7-0.9 0.05-1.85m-0.3 18.5 0.25 0.55-0.35 2.05-2.7-2.7 2.8 0.1m-74.15-74.45 2.5-0.2 1.5 3.5-1.95 1.95-1.55-1.55-0.5-3.7m10.5-0.7 6.2-0.5-5.8 1.9-0.4-1.4m51.45 65.65-0.45-0.45 0.45 0.45" fill="#a80000" fill-rule="evenodd"/>
<path d="m247 253.85q0.15 0.35-0.1 1l-7.2 7.2-0.85-0.15-0.3-0.3 8.05-8.05q0.3 0.1 0.4 0.3m43.25 43.35q0.25 0.25 0.1 0.9l-7.2 7.2-0.8-0.1 7.9-8m0.1 1.9 1.2 1.6 1 1.6 0.4 0.6 1.05 1.85 0.65 1.25 0.9 2.1 0.55 1.55 0.2 0.9q-5.05-4.15-8.7-8.6l2.75-2.85" fill="#666" fill-rule="evenodd"/>
<path d="m245.8 255.95q20.55 21.85 42.4 42.4l-1.7 1.7-41.6-43.2 0.9-0.9m-2.8 2.8 1.05-1.05q21.3 21.1 25.85 27.25-9.9-8.3-26.9-26.2" fill="#594f3e" fill-rule="evenodd"/>
<path d="m288.2 298.35 1.2-1.2 0.85 0.05-7.9 8q-0.25-0.25-0.15-0.85l6-6m-44.3-43.2 1.65-1.65 1.05 0.05-8.05 8.05q-0.25-0.25-0.2-0.9l5.55-5.55m41.7 51.2-1.35-1.05 1.5-1.5q5.4 4.6 10.6 7.1l0.1 0.5-2.05-0.55-1.95-0.65-0.2-0.1-2.4-1.1-1.8-1.1-0.05-0.05-2.4-1.5" fill="#8a8a8a" fill-rule="evenodd"/>
<path d="m291.65 297.9 1.85-0.25-0.95 4.65-1-1.6 0.1-2.8m7.1-1.1 2.15-0.35-0.3 2.5-1.75 0.85 1.7 1.7 0.4 0.2-5.4 6.4-0.9-2.1 4.1-9.2m4.95-0.75 1-0.2-0.3 7.6q-0.95-0.25-1.3 0.6l1.5 1.5-2.2 0.1 0.1-3.5q1.1-0.1 1.5-1.3 0.25-1.55-0.95-2.45l0.65-2.35m2.85 5.75q0.75 1.25 2 2.5l0.4 0.4-0.4 2.1-0.8-0.9-1.35-1.25q0-1.4 0.15-2.85m-17.9 21q-1.25-1.15-2.55-1.75l-0.65-2.05 0.5-0.1q2.1-0.7 0.65-3.45l-0.5-0.5 1.95-7.05 1.8 1.1 0.25 9.95-0.95-0.95q-1.45 0.55 0.2 2.8l-0.7 2m-5.4-2.4-2 0.4-0.65 1.15 1.6-10.3 1.05 8.75m-0.55-11.95 0.45-3.15 0.45-0.45 0.65 0.45 1.35 1.05-0.7 7.4-0.45 0.85-1.75-6.15m-43.85-46.55-1.05 2.65-1.65-4.45-0.05-0.05 0.35-3.95 2.85 3.65-0.95 0.95q-0.05 0.65 0.2 0.9l0.3 0.3m-2.4 6.2-1.4 3.4 0.65-6.55 0.75 3.15m69.95 39.35 1.6 1.6-11.2 2.7-0.35-0.35-0.1-0.5-0.05-0.35-0.2-0.9 10.3-2.2m-14.15 2.65 0.2 0.1 1.95 0.65-1.6 8.2-0.55-8.95m7.3 4.4-1.05-1.05 6.05-2.15-5 3.2" fill="#de1212" fill-rule="evenodd"/>
<path d="m289.9 298.55 0.45 0.55-2.75 2.85q3.65 4.45 8.7 8.6l0.05 0.35q-5.2-2.5-10.6-7.1l-1.5 1.5-0.65-0.45 6.3-6.3" fill="#303030" fill-rule="evenodd"/>
<path d="m297 297.05 1.75-0.25-4.1 9.2-0.65-1.25 3-7.7m-10.9 24q-1.45-0.65-2.85-0.65l-1.05-8.75 0.5-3.2 1.75 6.15-1.4 2.7q0.8 1.7 2.4 1.7l0.65 2.05m-0.5-14.7 2.4 1.5 0.05 0.05-1.95 7.05-1.2-1.2 0.7-7.4" fill="#ff3636" fill-rule="evenodd"/>
<path d="m316.6 312.35-0.7 4.1-5.9 3.5 2.55-6.35 1.1 1.1 0.8-1.8 2.15-0.55m-0.95 6.15-0.2 1.2q-2.85 0.95-2.05 4.65l-3.95 0.05 0.9 0.9 0.4 3.5-1.35-0.45-4.4-8.4 2.9 2.9 7.75-4.35m-79.05-63.55 0.2-2.9 3.6 3.5 1.55 1.55-1.5 1.5-3.85-3.65m66.95 63.55-0.85-0.85 6.2-5.5-4.65 7.05-0.7-0.7m5.9 5.9-1.55-1.55 1.55 1.55" fill="#960000" fill-rule="evenodd"/>
<path d="m308.95 304.7 1.2 1.1-0.75 2.05-0.85-1.05 0.4-2.1m8.15 4.05-0.5 3.6-2.15 0.55 0.8-1.7-0.25-0.65 2.1-1.8m-3.7 15.6 0.65 1.95-2.8-0.1-1.8-1.8 3.95-0.05m0.55 4.55-1 0.2-0.8-2 1.8 1.8m-5.85-0.75-1.7 0.3-0.6-4.5 2.3 4.2" fill="#720000" fill-rule="evenodd"/>
<path d="m283.3 303.25q-20.5-21.9-42.9-41.9l1.6-1.6 42.9 41.9-1.6 1.6" fill="#7d7362" fill-rule="evenodd"/>
<path d="m242 259.75 1-1q17 17.9 26.9 26.2-4.55-6.15-25.85-27.25l0.85-0.85 41.6 43.2-1.6 1.6-42.9-41.9" fill="#6b6150" fill-rule="evenodd"/>
<path d="m237.8 264.55-1.35 3.55-0.75-3.15q0.15-2.45 0.45-4.85l1.65 4.45m-1-12.5 3.1-0.2 0.5 3.7-3.6-3.5" fill="#f02424" fill-rule="evenodd"/>
<path d="m250.8 252.55-1.95 0.65-1.85 0.65m-1.2 2.1q20.55 21.85 42.4 42.4m25.75 30.55-1 0.2-1.05 0.15-1.15-0.45-1.35-0.45-1.3-0.2-1.7 0.3q-0.75 0.35-1.1 1.2l-0.2 0.6-4.9 0.8-2.1 0.3-3.75 0.65-3.25 0.45 1.35-0.55q0.75-1.75 0.2-3.6-0.5-1.9-2.25-3.85l-1-1-0.75-0.65q-1.25-1.15-2.55-1.75-1.45-0.65-2.85-0.65l-2 0.4-0.65 1.15 1.6-10.3 0.5-3.2 0.45-3.15m0.15-2.05q-20.5-21.9-42.9-41.9m-1.55 0.55-1.05 2.65-1.35 3.55-1.4 3.4 0.65-6.55q0.15-2.45 0.45-4.85m-0.05-0.05 0.35-3.95 0.15-1.15 0.2-2.9 3.1-0.2 2.5-0.2 5-0.3 3-0.2 6.2-0.5-5.8 1.9m-5.9 4.3 41.6 43.2m-46.1-44.5 1.55 1.55m-5.15-5.05 3.6 3.5m3.65 2.15q21.3 21.1 25.85 27.25-9.9-8.3-26.9-26.2m41.25 46.55 1.35 1.05 2.4 1.5 0.05 0.05 1.8 1.1 2.4 1.1 0.2 0.1 1.95 0.65 2.05 0.55 1.15 1.15m-13.35-7.25-0.65-0.45m1.3-3.2-42.9-41.9m44.1 55.2 0.5 0.5q1.45 2.75-0.65 3.45l-0.5 0.1q-1.6 0-2.4-1.7l1.4-2.7 0.45-0.85 1.2 1.2m3.25 5.85q-1.65-2.25-0.2-2.8l0.95 0.95m8.4-5.5 1.05 1.05m-1.05-1.05-0.9-0.9m-3.5 10.4 0.7 0.7m5.25-8.65-0.5-0.5m-10.2 6.3 0.75 0.95 0.85 0.95q1.4 1.3 2.35 1.85 0.85 0.55 1.4 0.5t0.8-0.7l-0.7-0.7m0.05 2.95q0.5-0.4 1.6-0.3m4.5-10.4-0.9-0.9m-5.6 13.9q-0.25-0.65-0.1-1.4l0.5-0.9m-0.4 2.3q0.4 0.9 1.85 1.25l2.1-0.9 1.35-0.65-2.05-2.05-1.25-0.25m6.25-8.65 11.25 11.25m-11.25-11.25-0.85-0.85m-0.9-0.9 0.9 0.9m-7.75 6.15-4-4" fill="none" stroke="#000" stroke-linecap="round" stroke-linejoin="round" stroke-opacity=".4" stroke-width=".2"/>
<path d="m247 253.85q0.15 0.35-0.1 1l-1.1 1.1m42.4 42.4 1.2-1.2 0.85 0.05q0.25 0.25 0.1 0.9l1.3-0.2 1.85-0.25 3.5-0.6 1.75-0.25 2.15-0.35 2.8-0.4 1-0.2 2.35-0.35-1.15 0.65q-1.1 2.8 0.65 5.65 0.75 1.25 2 2.5l0.4 0.4 1.2 1.1q0.9 0.8 1.85 1.25 1.25 0.65 2.35 0.75 1.35 0.15 2.6-0.4l0.55-1.35-0.4 2.7-0.5 3.6-0.7 4.1-0.25 2.05-0.2 1.2q-2.85 0.95-2.05 4.65l0.65 1.95 0.25 0.55-0.35 2.05m-30.8-23.6-0.8-0.1q-0.25-0.25-0.15-0.85l6-6m-47.8-37-0.7 0.7-0.85-0.15m5.05-6.75 1.65-1.65 1.05 0.05q0.3 0.1 0.4 0.3m-2.1 3 0.9-0.9m44.55 42.15-0.45 0.45 0.45 0.55 1.2 1.6m1 1.6-1-1.6m11.5-2.3-0.7-0.4-1.75 0.95-1.75 0.85 1.7 1.7 0.4 0.2 1.55 0.45q1.1-0.1 1.5-1.3 0.25-1.55-0.95-2.45m-8.4 7.6 0.9 2.1 0.55 1.55 0.2 0.9 0.05 0.35m-3.8-8.6 0.4 0.6 1.05 1.85 0.65 1.25m9.95-0.45-1.5-1.5q0.35-0.85 1.3-0.6m2 1.2q-1.25-0.95-2-1.2m4.15 3.35-0.8-0.9-1.35-1.25m-1.8 0.9 1.8 1.9 3 3q1.45-0.55 0-2.6l-0.85-1.05m4.45 2.45-0.45 0.05q-1.5 0.4-1.15 2.35l0.2 1 2.05 2.05 0.8-1.8 0.8-1.7-0.25-0.65-0.7-0.9q-0.55-0.45-1.3-0.4m-72.6-47.9 4.5-4.5m-2.95 0.25 1.95-1.95m-1.95 1.95-3.6 3.6q-0.05 0.65 0.2 0.9l0.3 0.3m44.3 43.4 6.75-6.75m6.55 12.85-0.1-0.5" fill="none" stroke="#000" stroke-linecap="round" stroke-linejoin="round" stroke-opacity=".4" stroke-width=".2"/>
<path d="m236.15 260.1-0.05-0.05" fill="none" stroke="#0f0" stroke-linecap="round" stroke-linejoin="round" stroke-width=".2"/>
<path d="m236.8 252.05 1.6-0.1 2.05 2.05 13.1-3.1 3.05-0.25-9.6 3.2q0.15 0.35-0.1 1l-1.1 1.1 2 2.2-5.2 5.2-2.2-2-0.7 0.7-0.85-0.15-0.3-0.3q-0.25-0.25-0.2-0.9l3.6-3.6-5.15-5.05m77.3 74.4 0.2 0.4-0.35 2.05-17.5-17.5-0.1-0.5-0.05-0.35-0.2-0.9-0.55-1.55-0.9-2.1-0.65-1.25-1.05-1.85-0.4-0.6-1-1.6-1.2-1.6-0.45-0.55 0.45-0.45 1.45-0.25 3 4q2.75 4.85 3.2 8.5l16.1 16.1" fill-opacity=".4" fill-rule="evenodd"/>
<path d="m238.85 261.9-3.8 9.6 4.15-16.05-2.35-3.15-0.05-0.25 5.15 5.05-3.6 3.6q-0.05 0.65 0.2 0.9l0.3 0.3m52.95 35.95 3.65-0.55 20.25 20.45-0.25 1.95q-2.85 0.95-2.05 4.65l0.7 2.1-16.1-16.1q-0.45-3.65-3.2-8.5l-3-4m22.15 31.05-1.2 0.2-16.75-16.75q-5.1-0.9-10.75-4.85l-0.85 0.15-1.4-1.4 0.15-0.95 0.45-0.45 0.65 0.45 1.35 1.05 2.4 1.5 0.05 0.05 1.8 1.1 2.4 1.1 0.2 0.1 1.95 0.65 2.05 0.55 17.5 17.5m-9.65-30.25 0.3 2.4-1.25 1.75-2-0.3-0.55-0.85 0.15 0.05 1.55 0.45q1.1-0.1 1.5-1.3 0.25-1.55-0.95-2.45l-0.7-0.4 0.85-0.45 1.1 1.1m1 4.5 3.35 2.75 3.4 1.2 2.3 0.7 1.35-0.05-3.15 1.55q-1.35 0.35-1.25 2.05l-1.9-0.9q1.45-0.55 0-2.6l-0.85-1.05-0.8-0.9-1.35-1.25q-1.25-0.95-2-1.2h-0.3l1.2-0.3m-20.55 15.75 0.7 0.1 0.5-0.1q2.1-0.7 0.65-3.45l-1.7-1.7 0.9 0.2 1.85 1.85q0.85 2.05-0.5 3.1l-2 0.3-0.4-0.3m31.25-2.85-2.35-1.35 1.6-3.5-0.25-0.65-0.7-0.9-0.1-0.1 2.85-0.45-1.05 6.95m-22.45 8.65 1.15 0.35q0.55-0.05 0.8-0.7l-6.35-6.35 0.6 0.1 6.45 6.45q-0.15 1.25-1.6 0.9l-1.05-0.75m4.15 1.85 0.8 0.2 2.4 2.4-3.8 1.3-0.8-0.3 3.45-1.55-2.05-2.05" fill-opacity=".2" fill-rule="evenodd"/>
<path d="m284.75 318.9 0.4 0.3 2-0.3q1.35-1.05 0.5-3.1l-1.85-1.85-0.9-0.2-1.85 3.55q0.6 1.3 1.7 1.6m8.8 5.8 1.05 0.75q1.45 0.35 1.6-0.9l-6.45-6.45-0.6-0.1q-1.45 0.55 0.2 2.8l0.75 0.95 0.85 0.95q1.4 1.3 2.35 1.85l0.25 0.15m-12.95-2.75 1.9-12.2 20.8 20.8-12.2 1.9 1.35-0.55q0.75-1.75 0.2-3.6-0.5-1.9-2.25-3.85l-1-1-0.75-0.65q-1.25-1.15-2.55-1.75-1.45-0.65-2.85-0.65l-2 0.4-0.65 1.15m17.1 4.6-1.25-0.25q-1.1-0.1-1.6 0.3l-0.5 0.9q-0.15 0.75 0.1 1.4 0.4 0.9 1.85 1.25l0.8 0.3 3.8-1.3-2.4-2.4-0.8-0.2" fill="#fff" fill-opacity=".21961" fill-rule="evenodd"/>
</g>
</defs>
</svg>
