<?xml version="1.0" encoding="UTF-8"?>
<svg width="56px" height="75px" version="1.1" viewBox="316.3 143.07 56.3 74.777" xmlns="http://www.w3.org/2000/svg" xmlns:xlink="http://www.w3.org/1999/xlink">
<defs>
<radialGradient id="bh" cx="0" cy="0" r="819.2" gradientTransform="matrix(.043701 0 0 .043701 320.45 212.15)" gradientUnits="userSpaceOnUse">
<stop stop-color="#ae8e79" offset=".027451"/>
<stop stop-color="#e2d8d1" offset="1"/>
</radialGradient>
<radialGradient id="aw" cx="0" cy="0" r="819.2" gradientTransform="matrix(.045166 0 0 .045166 327.7 214.25)" gradientUnits="userSpaceOnUse">
<stop stop-color="#ae8e79" offset=".027451"/>
<stop stop-color="#e2d8d1" offset="1"/>
</radialGradient>
<radialGradient id="al" cx="0" cy="0" r="819.2" gradientTransform="matrix(.022049 0 0 .022049 343.6 203.3)" gradientUnits="userSpaceOnUse">
<stop stop-color="#ae8e79" offset=".027451"/>
<stop stop-color="#fafafa" offset="1"/>
</radialGradient>
<radialGradient id="aa" cx="0" cy="0" r="819.2" gradientTransform="matrix(.0074005 0 0 .0074005 327.2 217.2)" gradientUnits="userSpaceOnUse">
<stop stop-color="#ae8e79" offset=".027451"/>
<stop stop-color="#fafafa" offset="1"/>
</radialGradient>
<g id="br">
<path d="m321.7 216.85-5.4-7.95 11-31.9 5.8 11.7-10.95 27.15-0.45 1" fill="url(#bh)"/>
<path d="m334.4 191.35 4.15-0.4-16.85 25.9 0.45-1 12.25-24.5" fill="#b69987"/>
<path d="m333.1 188.7 1.3 2.65-12.25 24.5 10.95-27.15" fill="#e2d8d1"/>
<path d="m338.55 190.95 16.5-1.6-22.9 27.9-10.45-0.4 16.85-25.9" fill="url(#aw)"/>
<path d="m355.05 189.35-21.8 27.95-1.1-0.05 22.9-27.9" fill="url(#al)"/>
<path d="m333.25 217.3-0.45 0.55-11.1-1 10.45 0.4 1.1 0.05" fill="url(#aa)"/>
<path d="m338.55 190.95 16.5-1.6-21.8 27.95-0.45 0.55-11.1-1-5.4-7.95 11-31.9 5.8 11.7 1.3 2.65 4.15-0.4-16.85 25.9 10.45 0.4 22.9-27.9m-33.35 27.5 0.45-1 10.95-27.15m-10.95 27.15 12.25-24.5" fill="none" stroke="#a17960" stroke-opacity=".25098" stroke-width=".5"/>
</g>
<radialGradient id="p" cx="0" cy="0" r="819.2" gradientTransform="matrix(-.017929 0 0 -.011185 3.45 2.8)" gradientUnits="userSpaceOnUse">
<stop stop-color="#f8f468" offset="0"/>
<stop stop-color="#fbb64b" offset=".48627"/>
<stop stop-color="#f35f3a" offset="1"/>
</radialGradient>
<g id="d">
<path d="m1.55 3.85h-0.5q-1.1-0.45-0.6-1.2 0.8-0.6 2-0.3l0.4 0.45q-0.15 0.9-1.3 1.05m2.2-5.6-2.1-0.85q-2-0.55-3.35-1.4 2.25-0.95 5.25 0.05 5.15 1.7 0.8 4.5l0.25 0.05-0.5-0.05q-1.4-0.15-2.4-0.8l0.8-0.6q0.8-0.4 1.25-0.9" fill="#fdfdbd"/>
<path d="m3.75-1.75q-0.45 0.5-1.25 0.9l-0.8 0.6q1 0.65 2.4 0.8l0.5 0.05-0.25-0.05q4.35-2.8-0.8-4.5-3-1-5.25-0.05 1.35 0.85 3.35 1.4l2.1 0.85m-2.2 5.6q1.15-0.15 1.3-1.05l-0.4-0.45q-1.2-0.3-2 0.3-0.5 0.75 0.6 1.2h0.5m4.75 0.1q-2.6 1.65-6.3 1.65t-6.3-1.65q-2.65-1.65-2.65-3.95t2.65-3.9q2.6-1.65 6.3-1.65t6.3 1.65q2.6 1.6 2.6 3.9t-2.6 3.95" fill="url(#p)"/>
<path d="m6.3 3.95q-2.6 1.65-6.3 1.65t-6.3-1.65q-2.65-1.65-2.65-3.95t2.65-3.9q2.6-1.65 6.3-1.65t6.3 1.65q2.6 1.6 2.6 3.9t-2.6 3.95" fill="none" stroke="#a17960" stroke-width=".5"/>
</g>
<radialGradient id="h" cx="0" cy="0" r="819.2" gradientTransform="matrix(-.0035095 -.0020294 -.0032806 .0056763 .8 -1.15)" gradientUnits="userSpaceOnUse">
<stop stop-color="#ae8e79" offset=".027451"/>
<stop stop-color="#fafafa" offset="1"/>
</radialGradient>
<radialGradient id="g" cx="0" cy="0" r="819.2" gradientTransform="matrix(-.0040283 -.0023193 -.0037689 .0065308 -1.4 1.8)" gradientUnits="userSpaceOnUse">
<stop stop-color="#ae8e79" offset=".027451"/>
<stop stop-color="#fafafa" offset="1"/>
</radialGradient>
<g id="bp">
<path d="m-2.05 3.05 2.4-2 1.2-2.1 0.1-2.5 0.35 0.4v0.55q0.4 1.9-0.8 4.15h-0.1l-1.7 1.9-0.45 0.15-0.1-0.05-0.35-0.05-0.25 0.1-0.3-0.55" fill="url(#h)"/>
<path d="m-2.05 3.05q0.4-1.25 1.25-2.05l1.65-2.1 0.8-2.45-0.1 2.5-1.2 2.1-2.4 2" fill="url(#g)"/>
<path d="m-2.05 3.05 2.4-2 1.2-2.1 0.1-2.5" fill="none" stroke="#a17960" stroke-opacity=".25098" stroke-width=".5"/>
</g>
<g id="c">
<use xlink:href="#bp"/>
</g>
<radialGradient id="f" cx="0" cy="0" r="819.2" gradientTransform="matrix(.0032043 .0024567 -.0039673 .0052032 335.25 180.05)" gradientUnits="userSpaceOnUse">
<stop stop-color="#ae8e79" offset=".027451"/>
<stop stop-color="#fafafa" offset="1"/>
</radialGradient>
<radialGradient id="e" cx="0" cy="0" r="819.2" gradientTransform="matrix(.0036926 .0028229 -.0045624 .0059814 333.4 183.25)" gradientUnits="userSpaceOnUse">
<stop stop-color="#ae8e79" offset=".027451"/>
<stop stop-color="#fafafa" offset="1"/>
</radialGradient>
<radialGradient id="bg" cx="0" cy="0" r="819.2" gradientTransform="matrix(-.0032043 -.0024567 -.0039673 .0052032 344.75 187.35)" gradientUnits="userSpaceOnUse">
<stop stop-color="#ae8e79" offset=".027451"/>
<stop stop-color="#fafafa" offset="1"/>
</radialGradient>
<radialGradient id="bf" cx="0" cy="0" r="819.2" gradientTransform="matrix(-.0036926 -.0028229 -.0045624 .0059814 342.2 189.95)" gradientUnits="userSpaceOnUse">
<stop stop-color="#ae8e79" offset=".027451"/>
<stop stop-color="#fafafa" offset="1"/>
</radialGradient>
<radialGradient id="be" cx="0" cy="0" r="819.2" gradientTransform="matrix(-.0065765 -.0036926 -.0066681 .011658 342.2 181.65)" gradientUnits="userSpaceOnUse">
<stop stop-color="#fff" offset=".24706"/>
<stop stop-color="#a47e64" offset="1"/>
</radialGradient>
<radialGradient id="bd" cx="0" cy="0" r="819.2" gradientTransform="matrix(-.0038147 -.0021362 -.0038605 .0067596 342.95 185.7)" gradientUnits="userSpaceOnUse">
<stop stop-color="#fff" offset=".24706"/>
<stop stop-color="#a47e64" offset="1"/>
</radialGradient>
<radialGradient id="bc" cx="0" cy="0" r="819.2" gradientTransform="matrix(-.0038757 -.002182 -.0039368 .0068665 345.1 186.7)" gradientUnits="userSpaceOnUse">
<stop stop-color="#fff" offset=".24706"/>
<stop stop-color="#a47e64" offset="1"/>
</radialGradient>
<radialGradient id="bb" cx="0" cy="0" r="819.2" gradientTransform="matrix(-.002533 -.0014191 -.0025787 .0045013 343.2 188.35)" gradientUnits="userSpaceOnUse">
<stop stop-color="#fff" offset=".24706"/>
<stop stop-color="#a47e64" offset="1"/>
</radialGradient>
<radialGradient id="ba" cx="0" cy="0" r="819.2" gradientTransform="matrix(.006485 .0038452 -.0067596 .011597 340.25 180.55)" gradientUnits="userSpaceOnUse">
<stop stop-color="#fff" offset=".24706"/>
<stop stop-color="#a47e64" offset="1"/>
</radialGradient>
<radialGradient id="az" cx="0" cy="0" r="819.2" gradientTransform="matrix(.0037537 .0022278 -.0039215 .0067291 336.45 182)" gradientUnits="userSpaceOnUse">
<stop stop-color="#fff" offset=".24706"/>
<stop stop-color="#a47e64" offset="1"/>
</radialGradient>
<radialGradient id="ay" cx="0" cy="0" r="819.2" gradientTransform="matrix(.0038147 .0022736 -.0039825 .0068359 334.45 180.6)" gradientUnits="userSpaceOnUse">
<stop stop-color="#fff" offset=".24706"/>
<stop stop-color="#a47e64" offset="1"/>
</radialGradient>
<radialGradient id="ax" cx="0" cy="0" r="819.2" gradientTransform="matrix(.0025024 .0014801 -.0026093 .0044861 333.95 183.1)" gradientUnits="userSpaceOnUse">
<stop stop-color="#fff" offset=".24706"/>
<stop stop-color="#a47e64" offset="1"/>
</radialGradient>
<g id="bo">
<path d="m332.5 184.3-0.6-0.05v-0.3l-0.2-0.3-0.1-0.05-0.05-0.45 1.15-2.3-0.05-0.1q1.6-1.95 3.55-2.3l0.5-0.25 0.5 0.15-2.35 1.1-1.45 1.9-0.9 2.95" fill="url(#f)"/>
<path d="m337.2 178.35-1.95 1.7q-0.95 1.25-1.35 2.3-0.4 1.1-1.4 1.95l0.9-2.95 1.45-1.9 2.35-1.1" fill="url(#e)"/>
<path d="m332.5 184.3 0.9-2.95 1.45-1.9 2.35-1.1" fill="none" stroke="#a17960" stroke-opacity=".25098" stroke-width=".5"/>
<path d="m341.4 191.1 0.2 0.55h0.3q0.2-0.15 0.3 0.1l0.1 0.05 0.45-0.05 1.95-1.7h0.05q1.5-2.05 1.35-4l0.1-0.55-0.3-0.45-0.45 2.5-1.45 1.9-2.6 1.65" fill="url(#bg)"/>
<path d="m345.9 185.05-1.15 2.3-1.85 1.9q-0.9 0.7-1.5 1.85l2.6-1.65 1.45-1.9 0.45-2.5" fill="url(#bf)"/>
<path d="m341.4 191.1 2.6-1.65 1.45-1.9 0.45-2.5" fill="none" stroke="#a17960" stroke-opacity=".25098" stroke-width=".5"/>
<path d="m346.15 186.85q1.2-2.4 0.9-5-0.3-2.1-2.1-2.4-1.7-0.35-3.6 1.6l-0.1 0.95 1.3 2.35 1.8 1q-0.55-1.25-0.05-3.35 0.5-0.95 1-0.5 1.35 1.95 0.85 5.35m-1.85-4.85-0.7 0.35 0.7-0.6v0.25" fill="url(#be)"/>
<path d="m341.25 182q-0.9 2.2-0.45 3.8l0.85 0.5 0.85 0.45 1.25-0.3 0.6-1.1-1.8-1-1.3-2.35" fill="url(#bd)"/>
<path d="m344.45 187.85q0.8 0.4 1.7-1 0.5-3.4-0.85-5.35-0.5-0.45-1 0.5-0.5 2.1 0.05 3.35l-0.6 1.1q-0.45 0.45-0.1 0.9l0.8 0.5" fill="url(#bc)"/>
<path d="m344.3 182v-0.25l-0.7 0.6 0.7-0.35" fill="#f7f4f2"/>
<path d="m341.65 186.3q-0.55 0.85-0.1 1.75 0.1 0.9 1.2 0.7 0.95 0.25 1.7-0.9l-0.8-0.5q-0.35-0.45 0.1-0.9l-1.25 0.3-0.85-0.45" fill="url(#bb)"/>
<path d="m346.15 186.85q1.2-2.4 0.9-5-0.3-2.1-2.1-2.4-1.7-0.35-3.6 1.6l-0.1 0.95q-0.9 2.2-0.45 3.8l0.85 0.5q-0.55 0.85-0.1 1.75 0.1 0.9 1.2 0.7 0.95 0.25 1.7-0.9 0.8 0.4 1.7-1 0.5-3.4-0.85-5.35-0.5-0.45-1 0.5-0.5 2.1 0.05 3.35l-1.8-1-1.3-2.35m2.5 4.45q-0.45 0.45-0.1 0.9l0.8 0.5m-2.8-1.55 0.85 0.45 1.25-0.3 0.6-1.1" fill="none" stroke="#cbaba0" stroke-width=".5"/>
<path d="m333.75 179.8q1.55-2.3 3.9-3.35 2-0.8 3.1 0.7 1.2 1.25 0.5 3.9l-0.8 0.55h-2.7l-1.8-1.05q1.4-0.1 2.95-1.65 0.6-0.85-0.05-1.05-2.35-0.25-5.1 1.95m5.15-0.9 0.05 0.85 0.15-0.95-0.2 0.1" fill="url(#ba)"/>
<path d="m340.45 181.6q-1.45 1.85-3.1 2.25l-1.7-1-0.35-1.2 0.65-1.1 1.8 1.05h2.7" fill="url(#az)"/>
<path d="m333.8 181.75q-0.75-0.55-0.05-1.95 2.75-2.2 5.1-1.95 0.65 0.2 0.05 1.05-1.55 1.55-2.95 1.65l-0.65 1.1q-0.15 0.65-0.65 0.55l-0.85-0.45" fill="url(#ay)"/>
<path d="m338.9 178.9 0.2-0.1-0.15 0.95-0.05-0.85" fill="#f7f4f2"/>
<path d="m336.5 183.35q-0.45 0.95-1.45 1-0.85 0.4-1.25-0.7-0.6-0.7 0-1.9l0.85 0.45q0.5 0.1 0.65-0.55l0.35 1.2 0.85 0.5" fill="url(#ax)"/>
<path d="m333.75 179.8q1.55-2.3 3.9-3.35 2-0.8 3.1 0.7 1.2 1.25 0.5 3.9l-0.8 0.55q-1.45 1.85-3.1 2.25l-0.85-0.5q-0.45 0.95-1.45 1-0.85 0.4-1.25-0.7-0.6-0.7 0-1.9-0.75-0.55-0.05-1.95 2.75-2.2 5.1-1.95 0.65 0.2 0.05 1.05-1.55 1.55-2.95 1.65l1.8 1.05h2.7m-3.95 1.75-0.85-0.5-0.35-1.2q-0.15 0.65-0.65 0.55l-0.85-0.45m1.5-0.1 0.65-1.1" fill="none" stroke="#cbaba0" stroke-width=".5"/>
</g>
<radialGradient id="av" cx="0" cy="0" r="819.2" gradientTransform="matrix(-.0083466 .010956 .00048828 .0030823 3.55 -3.3)" gradientUnits="userSpaceOnUse">
<stop stop-color="#fff" offset="0"/>
<stop stop-color="#bea282" offset="1"/>
</radialGradient>
<radialGradient id="au" cx="0" cy="0" r="819.2" gradientTransform="matrix(-.0092316 .0121 .00054932 .0034027 3.8 -3.3)" gradientUnits="userSpaceOnUse">
<stop stop-color="#ba9c7a" offset="0"/>
<stop stop-color="#dcceba" offset=".98824"/>
</radialGradient>
<radialGradient id="at" cx="0" cy="0" r="819.2" gradientTransform="matrix(-.0078125 .010239 .00045776 .0028839 .5 -.3)" gradientUnits="userSpaceOnUse">
<stop stop-color="#ba9c7a" offset=".019608"/>
<stop stop-color="#926f4e" offset="1"/>
</radialGradient>
<radialGradient id="as" cx="0" cy="0" r="819.2" gradientTransform="matrix(-.0074768 .0098114 .0004425 .0027618 4.55 -3.5)" gradientUnits="userSpaceOnUse">
<stop stop-color="#fff" offset="0"/>
<stop stop-color="#bea282" offset="1"/>
</radialGradient>
<radialGradient id="ar" cx="0" cy="0" r="819.2" gradientTransform="matrix(-.0055084 .0072174 .00032043 .0020294 2.35 -.55)" gradientUnits="userSpaceOnUse">
<stop stop-color="#dcceba" offset=".56471"/>
<stop stop-color="#bea282" offset="1"/>
</radialGradient>
<radialGradient id="aq" cx="0" cy="0" r="819.2" gradientTransform="matrix(-.0034637 .0045319 .00019836 .0012817 2.6 -.45)" gradientUnits="userSpaceOnUse">
<stop stop-color="#ba9c7a" offset="0"/>
<stop stop-color="#dcceba" offset=".98824"/>
</radialGradient>
<radialGradient id="ap" cx="0" cy="0" r="819.2" gradientTransform="matrix(-.0024719 .0032501 .00015259 .00091553 1.4 1.05)" gradientUnits="userSpaceOnUse">
<stop stop-color="#ba9c7a" offset=".019608"/>
<stop stop-color="#926f4e" offset="1"/>
</radialGradient>
<radialGradient id="ao" cx="0" cy="0" r="819.2" gradientTransform="matrix(-.0078735 .01033 .00045776 .0029144 6.65 -3.35)" gradientUnits="userSpaceOnUse">
<stop stop-color="#ba9c7a" offset="0"/>
<stop stop-color="#dcceba" offset=".98824"/>
</radialGradient>
<radialGradient id="an" cx="0" cy="0" r="819.2" gradientTransform="matrix(-.0072937 .0095825 .00042725 .0027008 3.15 -.2)" gradientUnits="userSpaceOnUse">
<stop stop-color="#ba9c7a" offset=".019608"/>
<stop stop-color="#926f4e" offset="1"/>
</radialGradient>
<radialGradient id="am" cx="0" cy="0" r="819.2" gradientTransform="matrix(-.0051575 .0067749 .00030518 .0019073 3.7 .55)" gradientUnits="userSpaceOnUse">
<stop stop-color="#fff" offset="0"/>
<stop stop-color="#bea282" offset="1"/>
</radialGradient>
<radialGradient id="ak" cx="0" cy="0" r="819.2" gradientTransform="matrix(-.0061951 .0081177 .00036621 .0022888 3.8 .5)" gradientUnits="userSpaceOnUse">
<stop stop-color="#ba9c7a" offset="0"/>
<stop stop-color="#dcceba" offset=".98824"/>
</radialGradient>
<radialGradient id="aj" cx="0" cy="0" r="819.2" gradientTransform="matrix(-.0024109 .0031738 .00013733 .00088501 4.4 .35)" gradientUnits="userSpaceOnUse">
<stop stop-color="#fff" offset="0"/>
<stop stop-color="#bea282" offset="1"/>
</radialGradient>
<radialGradient id="ai" cx="0" cy="0" r="819.2" gradientTransform="matrix(-.0036774 .004837 .00021362 .001358 4.15 1.6)" gradientUnits="userSpaceOnUse">
<stop stop-color="#ba9c7a" offset="0"/>
<stop stop-color="#dcceba" offset=".98824"/>
</radialGradient>
<radialGradient id="ah" cx="0" cy="0" r="819.2" gradientTransform="matrix(-.0049744 .0065308 .00028992 .0018311 4.75 .8)" gradientUnits="userSpaceOnUse">
<stop stop-color="#ba9c7a" offset=".019608"/>
<stop stop-color="#926f4e" offset="1"/>
</radialGradient>
<radialGradient id="ag" cx="0" cy="0" r="819.2" gradientTransform="matrix(-.0049896 .006546 .00028992 .0018463 1.45 2.8)" gradientUnits="userSpaceOnUse">
<stop stop-color="#ba9c7a" offset=".019608"/>
<stop stop-color="#926f4e" offset="1"/>
</radialGradient>
<radialGradient id="af" cx="0" cy="0" r="819.2" gradientTransform="matrix(-.0036621 .0048065 .00021362 .001358 2.7 3.3)" gradientUnits="userSpaceOnUse">
<stop stop-color="#ba9c7a" offset=".019608"/>
<stop stop-color="#926f4e" offset="1"/>
</radialGradient>
<radialGradient id="ae" cx="0" cy="0" r="819.2" gradientTransform="matrix(-.0048981 .006424 .00028992 .0018158 6.95 -1.7)" gradientUnits="userSpaceOnUse">
<stop stop-color="#fff" offset="0"/>
<stop stop-color="#bea282" offset="1"/>
</radialGradient>
<radialGradient id="ad" cx="0" cy="0" r="819.2" gradientTransform="matrix(-.0052338 .0068817 .00030518 .0019379 7.15 -1.6)" gradientUnits="userSpaceOnUse">
<stop stop-color="#ba9c7a" offset="0"/>
<stop stop-color="#dcceba" offset=".98824"/>
</radialGradient>
<g id="bn">
<path d="m4.7-4.7-0.85-0.45-0.95 0.85-0.45 0.5v0.1l-0.7 0.7 0.2-0.45-1.4 1.25-0.05 0.15 0.5 0.85 1.35-0.8 2.35-2.7" fill="url(#av)"/>
<path d="m0.5-2.05-0.4 1.85 2.65-1.75 1.75-1.95 0.2-0.8-2.35 2.7-1.35 0.8-0.5-0.85" fill="url(#au)"/>
<path d="m1.75-0.85h-0.1v0.05l-0.4 0.35-0.4 0.4q0.75-0.45 0.95-0.75l-0.05-0.05" fill="#a38261"/>
<path d="m0.1-0.2 0.75 0.15 0.55-0.1 0.3-0.1 1.4-1.3 0.8-0.7 0.4-1.25 0.2-0.4-1.75 1.95-2.65 1.75m1.65-0.65 0.05 0.05q-0.2 0.3-0.95 0.75l0.4-0.4 0.4-0.35v-0.05h0.1" fill="url(#at)"/>
<path d="m0.6-0.1-0.4 1.3 0.85-0.05-0.8 1.6 0.35 0.05 0.75-0.65 0.45-1.15-0.75 0.15 0.05-0.35 0.3-0.95-0.55 0.1-0.25-0.05" fill="#9d7c5a"/>
<path d="m7.25-4.45-1.6-0.2-1.35 1.15-0.4 1.25-0.8 0.7-0.05 0.4 1.15-0.1 2.7-2.8 0.35-0.4" fill="url(#as)"/>
<path d="m1.4-0.15-0.3 0.95 0.6-0.5 1.35-1.45 0.05-0.4-1.4 1.3-0.3 0.1" fill="url(#ar)"/>
<path d="m1.1 0.8-0.05 0.35 1.3-1.15 0.6-0.65 0.1-0.5-1.35 1.45-0.6 0.5" fill="url(#aq)"/>
<path d="m1.05 1.15 0.75-0.15h0.2l0.5-0.6 0.4-0.55 0.05-0.5-0.6 0.65-1.3 1.15" fill="url(#ap)"/>
<path d="m6.95-3.5 0.35-0.95h-0.05l-0.35 0.4-2.7 2.8-1.15 0.1-0.1 0.5-0.05 0.5 2.15-1.35 1.9-2" fill="url(#ao)"/>
<path d="m2.5 0.4 0.3-0.05 0.3-0.25 1.1-0.8 0.1 0.65 0.05 0.2 0.65-0.7 0.75-0.65 0.85-1.3 0.35-1-1.9 2-2.15 1.35-0.4 0.55" fill="url(#an)"/>
<path d="m4.3-0.05-0.1-0.65-1.1 0.8-0.3 0.25-0.3 0.05-0.5 0.6 0.15 1 0.9-0.8 1.25-1.25" fill="url(#am)"/>
<path d="m1.35 2.15-0.3 0.65 1.15-0.45 2.15-2.2-0.05-0.2-1.25 1.25-0.9 0.8-0.15-1h-0.2l-0.45 1.15" fill="url(#ak)"/>
<path d="m5-0.55-0.65 0.7-0.8 1.45-1.1 1.05 0.7-0.2 1.5-1.6 0.05-0.3 0.3-1.1" fill="url(#aj)"/>
<path d="m2.45 2.65-0.45 1.2 1.7-1.6 1.15-1.3-0.35 0.15 0.15-0.25-1.5 1.6-0.7 0.2" fill="url(#ai)"/>
<path d="m5.2 0.8 1.2-0.5 1.1-2.3-1.95 2.05-0.85 0.5-0.05 0.3-0.15 0.25 0.7-0.3" fill="url(#ah)"/>
<path d="m1.05 2.8 0.65 0.55 0.75-0.7 1.1-1.05 0.8-1.45-2.15 2.2-1.15 0.45" fill="url(#ag)"/>
<path d="m2 3.85 1.85-1.05 1.35-2-0.35 0.15-1.15 1.3-1.7 1.6" fill="url(#af)"/>
<path d="m7.85-2.55-0.9-0.95-0.35 1-0.85 1.3-0.75 0.65 1.05-0.3 1.8-1.7" fill="url(#ae)"/>
<path d="m7.5-2 0.35-0.55-1.8 1.7-1.05 0.3-0.3 1.1 0.85-0.5 1.95-2.05" fill="url(#ad)"/>
<path d="m4.7-4.7-0.85-0.45-0.95 0.85-0.45 0.5v0.1l-0.7 0.7 0.2-0.45-1.4 1.25-0.05 0.15-0.4 1.85 0.5 0.1-0.4 1.3 0.85-0.05-0.8 1.6 0.35 0.05 0.75-0.65-0.3 0.65 0.65 0.55 0.75-0.7-0.45 1.2 1.85-1.05 1.35-2 1.2-0.5 1.1-2.3 0.35-0.55-0.9-0.95 0.35-0.95h-0.05l-1.6-0.2-1.35 1.15 0.2-0.4 0.2-0.8m-4.1 4.6 0.25 0.05 0.55-0.1 0.3-0.1 1.4-1.3-0.05 0.4-0.1 0.5-0.6 0.65-1.3 1.15 0.75-0.15-0.45 1.15m1.75-3.7 0.8-0.7 0.4-1.25m0 3.45-0.1-0.65-1.1 0.8-0.3 0.25-0.3 0.05 0.4-0.55m4.05-3.35-0.35 1-0.85 1.3-0.75 0.65-0.65 0.7-0.05-0.2m-2.3 1.05 0.5-0.6m0.45-1.05-0.05 0.5m-0.9 1.15h-0.2m2.85-0.15 0.05-0.3 0.85-0.5 1.95-2.05m-2.65 2.95-0.35 0.15 0.15-0.25m-0.3-0.7-0.8 1.45-1.1 1.05m2.4-1.7-1.15 1.3-1.7 1.6m2.35-3.7-2.15 2.2-1.15 0.45m3.65-2.25 0.3-1.1m0.2 1.35-0.35 0.15" fill="none" stroke="#000" stroke-opacity=".24314" stroke-width=".5"/>
</g>
<radialGradient id="ac" cx="0" cy="0" r="819.2" gradientTransform="matrix(.21332 0 0 .21332 17.75 -81.3)" gradientUnits="userSpaceOnUse">
<stop stop-color="#fff" stop-opacity="0" offset="0"/>
<stop stop-color="#333" offset="1"/>
</radialGradient>
<g id="b">
<path d="m-4.6-64.95 7.25-7.4 3.35-0.3 0.35-0.5q2.5-2.5 5.5-3.8-0.1 0-0.1-0.05l-1.9-2.65 10.4-10.65 5 25-3.25 13.3 3.75 15.2-5.25 16.65 7 10.35-2.5 9.75-5.4 5.4 2.4 4.85-3.75 25.5-5.4 4.85v0.05l4.15 9.85-13.35 25.2-10.65-4.15-8.35 18.8-12.2-18.2 4.65-36.45-3.4-8.85 10.9-42.2 9.6-9.8-3.95-11.6 5.15-28.15" fill="url(#ac)"/>
</g>
<radialGradient id="ab" cx="0" cy="0" r="819.2" gradientTransform="matrix(.007782 -.011368 .0030823 -.00050354 -2.45 5.15)" gradientUnits="userSpaceOnUse">
<stop stop-color="#fff" offset="0"/>
<stop stop-color="#bea282" offset="1"/>
</radialGradient>
<radialGradient id="z" cx="0" cy="0" r="819.2" gradientTransform="matrix(.0085907 -.012558 .0034027 -.00054932 -2.3 5.4)" gradientUnits="userSpaceOnUse">
<stop stop-color="#ba9c7a" offset="0"/>
<stop stop-color="#dcceba" offset=".98824"/>
</radialGradient>
<radialGradient id="y" cx="0" cy="0" r="819.2" gradientTransform="matrix(.0072784 -.010635 .0028839 -.00047302 -.55 1.3)" gradientUnits="userSpaceOnUse">
<stop stop-color="#ba9c7a" offset=".019608"/>
<stop stop-color="#926f4e" offset="1"/>
</radialGradient>
<radialGradient id="x" cx="0" cy="0" r="819.2" gradientTransform="matrix(.006958 -.010178 .0027618 -.0004425 -2.25 6.2)" gradientUnits="userSpaceOnUse">
<stop stop-color="#fff" offset="0"/>
<stop stop-color="#bea282" offset="1"/>
</radialGradient>
<radialGradient id="w" cx="0" cy="0" r="819.2" gradientTransform="matrix(.005127 -.0074921 .0020294 -.00033569 -.15 3.15)" gradientUnits="userSpaceOnUse">
<stop stop-color="#dcceba" offset=".56471"/>
<stop stop-color="#bea282" offset="1"/>
</radialGradient>
<radialGradient id="v" cx="0" cy="0" r="819.2" gradientTransform="matrix(.0032196 -.004715 .0012817 -.00021362 -.05 3.35)" gradientUnits="userSpaceOnUse">
<stop stop-color="#ba9c7a" offset="0"/>
<stop stop-color="#dcceba" offset=".98824"/>
</radialGradient>
<radialGradient id="u" cx="0" cy="0" r="819.2" gradientTransform="matrix(.0023041 -.0033722 .00091553 -.00015259 1.05 1.75)" gradientUnits="userSpaceOnUse">
<stop stop-color="#ba9c7a" offset=".019608"/>
<stop stop-color="#926f4e" offset="1"/>
</radialGradient>
<radialGradient id="t" cx="0" cy="0" r="819.2" gradientTransform="matrix(.0073395 -.010727 .0029144 -.00047302 -1.45 8.05)" gradientUnits="userSpaceOnUse">
<stop stop-color="#ba9c7a" offset="0"/>
<stop stop-color="#dcceba" offset=".98824"/>
</radialGradient>
<radialGradient id="s" cx="0" cy="0" r="819.2" gradientTransform="matrix(.0067902 -.0099335 .0027008 -.0004425 .4 3.8)" gradientUnits="userSpaceOnUse">
<stop stop-color="#ba9c7a" offset=".019608"/>
<stop stop-color="#926f4e" offset="1"/>
</radialGradient>
<radialGradient id="r" cx="0" cy="0" r="819.2" gradientTransform="matrix(.0048065 -.0070343 .0019073 -.00030518 1.3 4.05)" gradientUnits="userSpaceOnUse">
<stop stop-color="#fff" offset="0"/>
<stop stop-color="#bea282" offset="1"/>
</radialGradient>
<radialGradient id="q" cx="0" cy="0" r="819.2" gradientTransform="matrix(.0057678 -.0084229 .0022888 -.00036621 1.3 4.2)" gradientUnits="userSpaceOnUse">
<stop stop-color="#ba9c7a" offset="0"/>
<stop stop-color="#dcceba" offset=".98824"/>
</radialGradient>
<radialGradient id="o" cx="0" cy="0" r="819.2" gradientTransform="matrix(.002243 -.0032806 .00088501 -.00015259 1.35 4.8)" gradientUnits="userSpaceOnUse">
<stop stop-color="#fff" offset="0"/>
<stop stop-color="#bea282" offset="1"/>
</radialGradient>
<radialGradient id="n" cx="0" cy="0" r="819.2" gradientTransform="matrix(.0034332 -.0050201 .001358 -.00022888 2.4 4.2)" gradientUnits="userSpaceOnUse">
<stop stop-color="#ba9c7a" offset="0"/>
<stop stop-color="#dcceba" offset=".98824"/>
</radialGradient>
<radialGradient id="m" cx="0" cy="0" r="819.2" gradientTransform="matrix(.0046387 -.0067749 .0018311 -.00030518 1.9 4.95)" gradientUnits="userSpaceOnUse">
<stop stop-color="#ba9c7a" offset=".019608"/>
<stop stop-color="#926f4e" offset="1"/>
</radialGradient>
<radialGradient id="l" cx="0" cy="0" r="819.2" gradientTransform="matrix(.0046387 -.0067902 .0018463 -.00030518 2.7 1.25)" gradientUnits="userSpaceOnUse">
<stop stop-color="#ba9c7a" offset=".019608"/>
<stop stop-color="#926f4e" offset="1"/>
</radialGradient>
<radialGradient id="k" cx="0" cy="0" r="819.2" gradientTransform="matrix(.0034027 -.0049896 .001358 -.00021362 3.6 2.25)" gradientUnits="userSpaceOnUse">
<stop stop-color="#ba9c7a" offset=".019608"/>
<stop stop-color="#926f4e" offset="1"/>
</radialGradient>
<radialGradient id="j" cx="0" cy="0" r="819.2" gradientTransform="matrix(.0045624 -.0066681 .0018158 -.00028992 .15 7.85)" gradientUnits="userSpaceOnUse">
<stop stop-color="#fff" offset="0"/>
<stop stop-color="#bea282" offset="1"/>
</radialGradient>
<radialGradient id="i" cx="0" cy="0" r="819.2" gradientTransform="matrix(.0048828 -.0071411 .0019379 -.00032043 .3 8.05)" gradientUnits="userSpaceOnUse">
<stop stop-color="#ba9c7a" offset="0"/>
<stop stop-color="#dcceba" offset=".98824"/>
</radialGradient>
<g id="bm">
<path d="m-3.35 6.7q-0.35-0.35-0.75-0.6l0.5-1.25 0.4-0.55 0.05-0.05 0.45-0.95-0.35 0.4 0.75-1.75 0.15-0.1 0.9 0.25-0.25 1.5-1.85 3.1" fill="url(#ab)"/>
<path d="m-2.15 1.85 1.6-0.95-0.8 3.05-1.35 2.25-0.65 0.5 1.85-3.1 0.25-1.5-0.9-0.25" fill="url(#z)"/>
<path d="m-0.65 2.65v-0.05-0.05l0.2-0.5 0.2-0.45q-0.1 0.8-0.35 1.05h-0.05" fill="#a38261"/>
<path d="m-0.55 0.9 0.25 0.5 0.05 0.2 0.1 0.5h0.05l0.05 0.35-0.8 1.7-0.45 1.05-1.4 1 1.35-2.25 0.8-3.05m-0.1 1.75h0.05q0.25-0.25 0.35-1.05l-0.2 0.45-0.2 0.5v0.05 0.05" fill="url(#y)"/>
<path d="m-0.3 1.4q0.55-0.45 1.15-0.8l0.1 0.8 1.35-1.3 0.15 0.35-0.4 0.9-0.9 0.8-0.2-0.75-0.25 0.15-0.85 0.55-0.1-0.5-0.05-0.2" fill="#9d7c5a"/>
<path d="m-2.4 9.05-0.6-1.5 0.65-1.6 1.05-0.75 0.45-1.05 0.35-0.1 0.2 1.05-1.75 3.45-0.35 0.5" fill="url(#x)"/>
<path d="m-0.15 2.1 0.85-0.55-0.25 0.7-0.95 1.8-0.35 0.1 0.8-1.7-0.05-0.35h-0.05 0.05-0.05" fill="url(#w)"/>
<path d="m0.7 1.55 0.25-0.15-0.6 1.6-0.45 0.8-0.4 0.25 0.95-1.8 0.25-0.7" fill="url(#v)"/>
<path d="m0.95 1.4 0.2 0.75v0.2l-0.35 0.65-0.45 0.55-0.45 0.25 0.45-0.8 0.6-1.6" fill="url(#u)"/>
<path d="m-1.5 8.45-0.85 0.65-0.05-0.05 0.35-0.5 1.75-3.45-0.2-1.05 0.4-0.25 0.45-0.25-0.55 2.45-1.3 2.45" fill="url(#t)"/>
<path d="m0.35 3.55 0.45-0.55 0.05 0.3-0.15 0.35-0.5 1.3 0.65-0.1h0.2l-0.35 0.85-0.4 0.9-1 1.2-0.8 0.65 1.3-2.45 0.55-2.45" fill="url(#s)"/>
<path d="m0.8 3 0.35-0.65 1.05-0.2-0.5 1.1-0.85 1.6-0.65 0.1 0.5-1.3 0.15-0.35-0.05-0.3" fill="url(#r)"/>
<path d="m2.05 1.35 0.55-0.45-0.05 1.2-1.5 2.75h-0.2l0.85-1.6 0.5-1.1-1.05 0.2v-0.2l0.9-0.8" fill="url(#q)"/>
<path d="M1.05 4.85 L2.3 3.6 2.9 2.2 2.95 3.0 1.85 4.85 1.65 5.0 0.7 5.7 1.05 4.85" fill="url(#o)"/>
<path d="M2.9 2.2 L3.85 1.45 2.9 3.6 2.05 5.1 2.1 4.65 1.85 4.85 2.95 3.0 2.9 2.2" fill="url(#n)"/>
<path d="m2 5.45-0.05 1.3-1.85 1.75 1.3-2.5 0.25-1 0.2-0.15 0.25-0.2-0.05 0.45-0.05 0.35" fill="url(#m)"/>
<path d="M2.6 0.9 L3.35 1.35 2.9 2.2 2.3 3.6 1.05 4.85 2.55 2.1 2.6 0.9" fill="url(#l)"/>
<path d="m3.85 1.45-0.35 2.1-1.5 1.9 0.05-0.35 0.85-1.5 0.95-2.15" fill="url(#k)"/>
<path d="m-0.35 9-1.15-0.55 0.8-0.65 1-1.2 0.4-0.9 0.05 1.1-1.1 2.2" fill="url(#j)"/>
<path d="m0.1 8.5-0.45 0.5 1.1-2.2-0.05-1.1 0.95-0.7-0.25 1-1.3 2.5" fill="url(#i)"/>
<path d="m-3.35 6.7q-0.35-0.35-0.75-0.6l0.5-1.25 0.4-0.55 0.05-0.05 0.45-0.95-0.35 0.4 0.75-1.75 0.15-0.1 1.6-0.95 0.25 0.5q0.55-0.45 1.15-0.8l0.1 0.8 1.35-1.3 0.15 0.35-0.4 0.9 0.55-0.45 0.75 0.45-0.45 0.85 0.95-0.75-0.35 2.1-1.5 1.9-0.05 1.3-1.85 1.75-0.45 0.5-1.15-0.55-0.85 0.65-0.05-0.05-0.6-1.5 0.65-1.6-0.35 0.25-0.65 0.5m3.05-5.3 0.05 0.2 0.1 0.5h0.05-0.05m1.1-0.7 0.2 0.75 0.9-0.8m-2.9 2.8-0.45 1.05-1.05 0.75m1.5-1.8 0.35-0.1 0.4-0.25 0.45-0.8 0.6-1.6m-1.05 0.7 0.05 0.35-0.8 1.7m1.65-1.15 0.35-0.65v-0.2m-1.25 1.65 0.45-0.25 0.45-0.55 0.05 0.3-0.15 0.35-0.5 1.3 0.65-0.1m0.2 0 1.25-1.25 0.6-1.4m-0.85 2.9 0.05-0.45-0.25 0.2-0.2 0.15-0.25 1-1.3 2.5m0.95-3.65 1.5-2.75 0.05-1.2m-0.55 4.2 0.85-1.5 0.95-2.15m-2.8 3.4h-0.2m-2.35 3.6 0.8-0.65 1-1.2 0.4-0.9 0.35-0.85m0.95 0.6 0.05-0.35m-0.4-0.1-0.95 0.7" fill="none" stroke="#000" stroke-opacity=".24314" stroke-width=".5"/>
</g>
<g id="a">
<use xlink:href="#bn"/>
<use transform="matrix(-.12683 .16637 .0074463 .046844 3.65 -1.2)" filter="url(#bk)" xlink:href="#b"/>
<use xlink:href="#bm"/>
<use transform="matrix(.1181 -.17265 .046814 -.0076294 -.3 4.65)" filter="url(#bj)" xlink:href="#b"/>
</g>
<filter id="bk">
<feColorMatrix in="SourceGraphic" result="cxform" values="0.578125 0.0 0.0 0.0 0.3359375 0.0 0.578125 0.0 0.0 0.16796875 0.0 0.0 0.578125 0.0 0.08203125 0.0 0.0 0.0 1.0 0.0"/>
<feComposite in2="SourceGraphic" operator="in" result="color-xform"/>
</filter>
<filter id="bj">
<feColorMatrix in="SourceGraphic" result="cxform" values="0.578125 0.0 0.0 0.0 0.3359375 0.0 0.578125 0.0 0.0 0.16796875 0.0 0.0 0.578125 0.0 0.08203125 0.0 0.0 0.0 1.0 0.0"/>
<feComposite in2="SourceGraphic" operator="in" result="color-xform"/>
</filter>
<g id="bq">
<path d="m334.6 191.55-1.3-0.75 4.45-7.75 1.3 0.75-4.45 7.75" fill="#b69987"/>
<path d="m339.05 183.8 1.65 0.9-4.45 7.75-1.65-0.9 4.45-7.75" fill="#916a53"/>
<path d="m337.55 186.5-1.3-0.75 4.45-7.75 1.3 0.75-4.45 7.75" fill="#b69987"/>
<path d="m342 178.75 1.65 0.9-4.45 7.75-1.65-0.9 4.45-7.75" fill="#916a53"/>
</g>
<filter id="bi">
<feColorMatrix in="SourceGraphic" result="cxform" values="0.48828125 0.0 0.0 0.0 0.46875 0.0 0.41015625 0.0 0.0 0.703125 0.0 0.0 0.19921875 0.0 0.59765625 0.0 0.0 0.0 1.0 0.0"/>
<feComposite in2="SourceGraphic" operator="in" result="color-xform"/>
</filter>
<filter id="bl">
<feColorMatrix in="SourceGraphic" result="cxform" values="0.48828125 0.0 0.0 0.0 0.46875 0.0 0.41015625 0.0 0.0 0.703125 0.0 0.0 0.19921875 0.0 0.59765625 0.0 0.0 0.0 1.0 0.0"/>
<feComposite in2="SourceGraphic" operator="in" result="color-xform"/>
</filter>
</defs>
<use xlink:href="#br"/>
<use transform="matrix(.6851 .39555 -.64116 1.1105 364.8 150.7)" filter="url(#bi)" xlink:href="#d"/>
<use transform="translate(370.2 152.85)" xlink:href="#c"/>
<use transform="matrix(-.5 -.86603 -.86603 .5 359.2 147.4)" xlink:href="#c"/>
<use transform="matrix(.62775 .47935 -.77701 1.0175 338.8 185.6)" filter="url(#bl)" xlink:href="#d"/>
<use xlink:href="#bo"/>
<use transform="translate(342.45 173.45)" xlink:href="#a"/>
<use transform="translate(346.2 175.8)" xlink:href="#a"/>
<use xlink:href="#bq"/>
<use transform="translate(355.85 154.55)" xlink:href="#a"/>
<use transform="translate(359.7 156.9)" xlink:href="#a"/>
<use transform="translate(348.25 165.55)" xlink:href="#a"/>
<use transform="translate(352 167.9)" xlink:href="#a"/>
</svg>
