<?xml version="1.0" encoding="UTF-8"?>
<svg version="1.1" viewBox="0 0 182.71 251.65" xmlns="http://www.w3.org/2000/svg" xmlns:cc="http://creativecommons.org/ns#" xmlns:dc="http://purl.org/dc/elements/1.1/" xmlns:rdf="http://www.w3.org/1999/02/22-rdf-syntax-ns#" xmlns:xlink="http://www.w3.org/1999/xlink">
<metadata>
<rdf:RDF>
<cc:Work rdf:about="">
<dc:format>image/svg+xml</dc:format>
<dc:type rdf:resource="http://purl.org/dc/dcmitype/StillImage"/>
</cc:Work>
</rdf:RDF>
</metadata>
<g transform="translate(-165.16 -67.725)">
<use transform="translate(165.2,67.75)" width="182.64999" height="251.60001" xlink:href="#a"/>
</g>
<defs>
<g id="a" transform="translate(-165.2,-67.75)">
<path d="m266.2 212.35q4.3 11.25 13.9 21.95-27.9-0.45-50-6.9l3.3-15.25-14.45 11.35q-36.9-14.7-48.55-46.4-16.95-45.5 21.2-109.35-9.45 25.3-4.5 42.65 3.45 11.95 5.7 14.7-3.45 18.2-0.55 33.35l-2.4 2.1 0.1 0.1 3.4 3q1.6 6.2 4.5 11.75l-13.4-5.45-3.3 9.15 7.7 6.5-0.35 7.95 15.85 1.3 5.5-3.45q3.2 3.05 7.1 5.6l7.9-4.5-3.8 7.2 7.15 3.8 19.75-17.65-2.6 23.45 6.25 1.3-1.4 4.65 2.2 6.6 4.7-6.2-1.45-4.45 10.55 1.15m71.6 106.9-3.75 0.1 5.7-3.7h0.1l-2.05 3.6m-161.8-171 4.45 7.9 4.75-0.4 2.8-7.55-7.35-4.15-4.65 4.2" fill="#fff" fill-rule="evenodd"/>
<path d="m291.1 139.05 4.9-2.4q2.95-1.75 4.1-3.75l0.75-1.75q2.2-6.5-4.9-14.65 21.55 13.95 26.6 28.4 3.15 9.25 0.05 19.45-2.5 7.85-8.9 16.6 2.1-3.85-0.25-8.55-2.35-4.65-5.6-5.6l-1.6-0.4-6.25-11.3 1-1.3-1.95-0.3-7.95-14.45m4.35 13.4q-1.95-1.5-2.95-2.55l-2.25-1.95q-4.5-2.95-8.85-2.1-4.5 0.8-6.8 6.25l-0.7 1.8-1.55 4.75h-0.1q-0.25-2 0.15-3.35 0.65-2.65 0.9-2.9 1.65-7.8 7.35-8.8 5.4-1.05 11.2 3.5l2.15 2.35q0.85 0.95 1.85 2.8l-0.4 0.2m-19.25 15.55 0.25 0.15 0.4 0.25 2.5 1.1q4.95 1.7 10.45-0.05l2.45-1 0.15-0.1q3.25-1.6 5.3-4.45l0.7-1.75 0.15-0.5 1.55-0.55 0.35 1.35-2.4 2.55-3.9 4.35-9.65 2.95-4.6-1.4-5.6-1.55 0.35-1.1 1.55-0.25m-15.4-4.5-4.3 4.15-8 0.05 12.3-4.2m-68.55-5.05 8.15-7.75 7.9 3.65 0.4 7.45-12.95 3.8-2.4-1.95q-0.7-2.6-1.1-5.2m5.6 16.95 2.9 1.25 18.1-5.85 5.75 5.9-7.85 10.5-6.9 4.2q-7.45-7-12-16m53.75 35.2 1.85-6.5 2.2 7.1-4.05-0.6" fill="#94a5b4" fill-rule="evenodd"/>
<path d="m278.9 114.95 1.9 0.8 1.45 4.05-3.85 20.15-5.5 1.4-7.2-21.3 4.9 2.05-0.8-3.4 9.1-3.75m24.25 64.45 26.05 74.35-13.5 6.8-28.05-78.65 15.5-2.5m27.85 79.6 2.65 7.5-13 8.1-2.7-7.7 13.05-7.9m6 16.9 1.5 4.45-12.4 9.7-2.35-6.65 13.25-7.5m3.4 16.95-10.7 19.05-3.6-10.3q1.8-0.6 3.6-1.4 6.05-2.6 10.7-7.35" fill="#5a4e39" fill-rule="evenodd"/>
<path d="m269.65 142.1-7.55-21.45 3.55-4.1 11.6-2.3 1.65 0.7-9.1 3.75 0.8 3.4-4.9-2.05 7.2 21.3-3.25 0.75m59.8 170.3h-0.1l-2.55 0.55-4.5-12.6 2.7-1.8 0.7 2.1 0.4 0.95 3.6 10.3-0.25 0.5m-6.6-19.9-2.55-7.1 3.45-2 2.35 6.65-3.25 2.45m-5.6-15.75-2.75-7.8 3.45-2.05 2.7 7.7-3.4 2.15m-5.1-14.4-28.2-79.9 3.7-0.55 28.05 78.65-3.55 1.8" fill="#877556" fill-rule="evenodd"/>
<path d="m270.75 145.05-0.25-0.65 19.35-3 2 5.7q-5.8-4.55-11.2-3.5-5.7 1-7.35 8.8l-2.55-7.35m12.05 34.1-1.6-4.45 14.65 0.1-13.05 4.35m-10.5-20.2-0.2 0.55 0.25-0.1-0.05-0.45 0.05-0.3 1.55-4.75 0.7-1.8q2.3-5.45 6.8-6.25 4.35-0.85 8.85 2.1l2.25 1.95q1 1.05 2.95 2.55l-3.1 0.3-0.8 0.1 0.2 0.15q-7.6 0.75-15.05 4.55v-0.3l-0.45 0.25q-2 0.85-3.9 1.9l0.15 0.95 0.65 2.35-5.55 0.85 4.65-4.9 0.05 0.3m23.9-6 2.85 0.55 1.95 0.3-1 1.3-2.15 2.5-0.45-1.5-1.3-3.1 0.1-0.05" fill="#4e606d" fill-rule="evenodd"/>
<path d="m272.5 160.35-0.15-0.95q1.9-1.05 3.9-1.9l0.45 0.05 0.05 0.75 0.1 0.15 0.05 0.1q-2.2 0.85-4.4 1.8" fill="#dc9158" fill-rule="evenodd"/>
<path d="m266.2 212.35-10.55-1.15-2.2-7.1-1.85 6.5-6.25-1.3 2.6-23.45-19.75 17.65-7.15-3.8 3.8-7.2-7.9 4.5q-3.9-2.55-7.1-5.6l6.9-4.2 7.85-10.5-5.75-5.9-18.1 5.85-2.9-1.25q-2.9-5.55-4.5-11.75l2.4 1.95 12.95-3.8-0.4-7.45-7.9-3.65-8.15 7.75q-2.9-15.15 0.55-33.35 7.8 11.8 22.95 18 12.85 5.2 27.55 6.25 14.7 1 27.45-4.3l2.55 7.35q-0.25 0.25-0.9 2.9-0.4 1.35-0.15 3.35l-4.65 4.9 5.55-0.85v0.05q1.2 4 3.05 5.25l-1.55 0.25-0.35 1.1 5.6 1.55 0.55 1.65q-26.9 4.35-14.25 39.8m76.65 106.85-5.05 0.05 2.05-3.6h-0.1l-1.75-2.2 3.4-0.95 1.45 6.7m-82.05-155.7-12.3 4.2 8-0.05 4.3-4.15" fill="#adbac6" fill-rule="evenodd"/>
<path d="m273.15 162.7-0.65-2.35q2.2-0.95 4.4-1.8 0.6 1.05 3 1.35 2.65 0.2 5.85-0.75 3.25-0.9 5.1-2.45 1.8-1.55 1.45-2.8l-0.05-0.1-0.5-0.8-0.2-0.15 0.8-0.1 0.5 1q2.7 6.6-0.45 14.6l-0.15 0.1-2.45 1q-5.5 1.75-10.45 0.05l-2.5-1.1-0.4-0.25-0.25-0.15q-1.85-1.25-3.05-5.25v-0.05" fill="#ebc0a0" fill-rule="evenodd"/>
<path d="m270.2 143.5q-1.4-0.45-0.55-1.4l3.25-0.75 5.5-1.4 10.05-2.55q0.8 0.45 0.45 1.3l-18.7 4.8m19.15-3.55 1.75-0.9 7.95 14.45-2.85-0.55-0.35-0.7q-1-1.85-1.85-2.8l-2.15-2.35-2-5.7-0.5-1.45m16.9 26.45-7.6 0.4-0.6-1.8 2.4-2.55-0.35-1.35-1.55 0.55q0.1-1.3-0.7-4.05l2.15-2.5 6.25 11.3m-5.35 6.65q1.25 0.65 0.6 1.7l-18.05 6.25q-1.2-0.6-0.65-1.85l13.05-4.35 5.05-1.75" fill="#71879b" fill-rule="evenodd"/>
<path d="m270.5 144.4-0.3-0.9 18.7-4.8 0.45 1.25 0.5 1.45-19.35 3m28.15 22.4 2.25 6.25-5.05 1.75-14.65-0.1-0.75-2.15-0.55-1.65 4.6 1.4 9.65-2.95 3.9-4.35 0.6 1.8m42.9 138.65 2.85 13.7-1.55 0.05-1.45-6.7-3.4 0.95-2.75-3.45q3.25-1.8 6.3-4.55" fill="#323f47" fill-rule="evenodd"/>
<path d="m276.9 158.55-0.05-0.1 15.4-4.65 0.05 0.1q0.35 1.25-1.45 2.8-1.85 1.55-5.1 2.45-3.2 0.95-5.85 0.75-2.4-0.3-3-1.35" fill="#b32d2d" fill-rule="evenodd"/>
<path d="m276.7 157.55q7.45-3.8 15.05-4.55l0.5 0.8-15.4 4.65-0.1-0.15-0.05-0.75" fill="#932424" fill-rule="evenodd"/>
<path d="m292.35 152.75 3.1-0.3 0.75 0.5h-0.1v0.05l1.3 3.1 0.45 1.5q0.8 2.75 0.7 4.05l-0.15 0.5-0.7 1.75q-2.05 2.85-5.3 4.45 3.15-8 0.45-14.6l-0.5-1" fill="#faefe7" fill-rule="evenodd"/>
<path d="m282.25 119.8 6.2 17.6-10.05 2.55 3.85-20.15m19.25 54.95 1.65 4.65-15.5 2.5-3.7 0.55-0.5-1.45 18.05-6.25m27.7 79 1.8 5.25-13.05 7.9-3.45 2.05-2.35-6.6 3.55-1.8 13.5-6.8m4.45 12.75 3.35 9.4-13.25 7.5-3.45 2-3.05-8.65 3.4-2.15 13-8.1m4.85 13.85 2.45 6.9q1.2-0.85 2.5-1.65l4.4 12.65q-3 4.1-6.25 7.15l-0.05 0.05q-3.05 2.75-6.3 4.55-2.65 1.45-5.4 2.25l-0.4 0.15 0.25-0.5 10.7-19.05 1.75-2.05-1.2-3.55 1.2 3.55-1.75 2.05q-4.65 4.75-10.7 7.35-1.8 0.8-3.6 1.4l-0.4-0.95-0.7-2.1-2.15-6.05 3.25-2.45 12.4-9.7" fill="#42392b" fill-rule="evenodd"/>
<path d="m255.65 211.2 1.45 4.45-4.7 6.2-2.2-6.6 1.4-4.65 4.05 0.6m-45.8-19.8-5.5 3.45-15.85-1.3 0.35-7.95-7.7-6.5 3.3-9.15 13.4 5.45q4.55 9 12 16m-16.5-27.75-3.4-3-0.1-0.1 2.4-2.1q0.4 2.6 1.1 5.2m-17.35-15.4 4.65-4.2 7.35 4.15-2.8 7.55-4.75 0.4-4.45-7.9" fill="#e7e7de" fill-rule="evenodd"/>
<path d="m192.8 125.1q-2.25-2.75-5.7-14.7-4.95-17.35 4.5-42.65-38.15 63.85-21.2 109.35 11.65 31.7 48.55 46.4l14.45-11.35-3.3 15.25q22.1 6.45 50 6.9-9.6-10.7-13.9-21.95m-73.4-87.25q7.8 11.8 22.95 18 12.85 5.2 27.55 6.25 14.7 1 27.45-4.3l-0.25-0.65-0.3-0.9q-1.4-0.45-0.55-1.4l-7.55-21.45 3.55-4.1 11.6-2.3 1.65 0.7 1.9 0.8 1.45 4.05 6.2 17.6q0.8 0.45 0.45 1.3l0.45 1.25 1.75-0.9 4.9-2.4q2.95-1.75 4.1-3.75l0.75-1.75q2.2-6.5-4.9-14.65 21.55 13.95 26.6 28.4 3.15 9.25 0.05 19.45-2.5 7.85-8.9 16.6 2.1-3.85-0.25-8.55-2.35-4.65-5.6-5.6l-1.6-0.4-7.6 0.4 2.25 6.25q1.25 0.65 0.6 1.7l1.65 4.65 26.05 74.35 1.8 5.25 2.65 7.5 3.35 9.4 1.5 4.45 2.45 6.9q1.2-0.85 2.5-1.65l4.4 12.65q-3 4.1-6.25 7.15l-0.05 0.05 2.85 13.7-1.55 0.05-5.05 0.05-3.75 0.1 5.7-3.7-1.75-2.2-2.75-3.45q-2.65 1.45-5.4 2.25l-0.4 0.15m-0.1 0-2.55 0.55-4.5-12.6 2.7-1.8-2.15-6.05-2.55-7.1-3.05-8.65-2.75-7.8-2.35-6.6-28.2-79.9-0.5-1.45q-1.2-0.6-0.65-1.85l-1.6-4.45-0.75-2.15q-26.9 4.35-14.25 39.8m6.1-53.4-0.2 0.55 0.25-0.1-0.05-0.45-0.05-0.3-4.65 4.9 5.55-0.85-0.65-2.35-0.15-0.95q1.9-1.05 3.9-1.9l0.45-0.25v0.3q7.45-3.8 15.05-4.55l-0.2-0.15 0.8-0.1 3.1-0.3q-1.95-1.5-2.95-2.55l-2.25-1.95q-4.5-2.95-8.85-2.1-4.5 0.8-6.8 6.25l-0.7 1.8-1.55 4.75-0.05 0.3m3.9 9.05q-1.85-1.25-3.05-5.25v-0.05m19.1 5.75-2.45 1q-5.5 1.75-10.45 0.05l-2.5-1.1-0.4-0.25-0.25-0.15-1.55 0.25-0.35 1.1 5.6 1.55 4.6 1.4 9.65-2.95 3.9-4.35 2.4-2.55-0.35-1.35-1.55 0.55-0.15 0.5-0.7 1.75q-2.05 2.85-5.3 4.45m-3.05-28.4 0.5 1.45 2 5.7 2.15 2.35q0.85 0.95 1.85 2.8l0.35 0.7 2.85 0.55 1.95 0.3-1 1.3m-30.35-13 3.25-0.75 5.5-1.4 10.05-2.55m-11.6 21.05-0.1-0.15-0.05-0.75-0.45-0.05m0.65 1.05-0.05-0.1m15.4-4.65-0.5-0.8m-19.5 5.65q-0.25-2 0.15-3.35 0.65-2.65 0.9-2.9l-2.55-7.35m21.5 8.75 0.05 0.1q0.35 1.25-1.45 2.8-1.85 1.55-5.1 2.45-3.2 0.95-5.85 0.75-2.4-0.3-3-1.35m18.55-6.1 0.4-0.2m0.35 0.7h-0.1v0.05l1.3 3.1 0.45 1.5 2.15-2.5m-3.8-2.15-0.75-0.5m2.4 5.15q0.8 2.75 0.7 4.05m-25.25-9.25q1.65-7.8 7.35-8.8 5.4-1.05 11.2 3.5m-21.65-3.6 18.7-4.8m9.15 26.3 0.6 1.8m-18.75 4.1 0.55 1.65m15.4 2.25 5.05-1.75m-18.1 6.1 13.05-4.35m-12.4 6.2 18.05-6.25m15.75 102 3.4-2.15 13-8.1m-15.7 0.4-3.45 2.05m3.45-2.05 13.05-7.9m-15.3 1.55-3.55 1.8m17.05-8.6-13.5 6.8m25.25 26.7 1.2 3.55-1.75 2.05q-4.65 4.75-10.7 7.35-1.8 0.8-3.6 1.4m-5.8-16.2 3.45-2 13.25-7.5m-14.15 16.6 3.25-2.45 12.4-9.7m-3.25 29.65q3.25-1.8 6.3-4.55m-16.55-6.9 0.7 2.1" fill="none" stroke="#000" stroke-linecap="round" stroke-linejoin="round" stroke-opacity=".25098" stroke-width=".05"/>
</g>
</defs>
</svg>
