<?xml version="1.0" encoding="UTF-8"?>
<svg version="1.1" viewBox="0 0 94.25 91.118" xmlns="http://www.w3.org/2000/svg" xmlns:cc="http://creativecommons.org/ns#" xmlns:dc="http://purl.org/dc/elements/1.1/" xmlns:rdf="http://www.w3.org/1999/02/22-rdf-syntax-ns#" xmlns:xlink="http://www.w3.org/1999/xlink">
<metadata>
<rdf:RDF>
<cc:Work rdf:about="">
<dc:format>image/svg+xml</dc:format>
<dc:type rdf:resource="http://purl.org/dc/dcmitype/StillImage"/>
</cc:Work>
</rdf:RDF>
</metadata>
<g transform="translate(-227.85 -154.9)">
<use transform="translate(227.85,154.9)" width="94.25" height="91.099998" xlink:href="#a"/>
</g>
<defs>
<g id="a" transform="translate(-227.85,-154.9)">
<path d="m292.6 166-1.75 1.7 2.1 1-4.35-1.4 2.25-2.6 1.75 1.3" fill="#8a9aa8" fill-rule="evenodd"/>
<path d="m304.25 169.2 1.45-3.5q2.7-6.2 6.95-10.5l2.7 0.6 0.4 0.2 0.3 0.4 0.1 1.3 1.3 3.25 0.85 1.3q-1.4 7.75-4.55 15.45l-0.1 0.25-2.95 6.85-0.55 0.95-5.9-16.55m-24.3 51.3-10.25-11.5q8.85-3.6 12.55-9.8 4.2-6.75 2.45-9.4l-0.35-0.45-1.1-1.25-0.65-0.25 6-7.6 0.55 0.8 1.3 1.1 0.5 0.15q2.35 0.25 5.25-2l0.45 26.55-2.3 2.95-3.2 3.6q-3.25 3.4-6.75 5.1-2.05 1.3-4.45 2m13-51.8-2.1-1 1.75-1.7 3.9 3.05-1.85 2-1.7-2.35" fill="#adbac6" fill-rule="evenodd"/>
<path d="m310.15 185.75 0.55-0.95 2.95-6.85 0.1-0.25q3.15-7.7 4.55-15.45 2.7 5.4 3.4 11.95l0.1 5.85q-0.25 4.9-0.9 10.25l-0.2-0.05q-2 6.15-4.95 11.3l-5.6-15.8m-13.3 36.05-8.85 7.5-8.05-8.8q2.4-0.7 4.45-2 3.5-1.7 6.75-5.1l3.2-3.6 2.3-2.95 0.2 14.95" fill="#e9ecef" fill-rule="evenodd"/>
<path d="m304.25 169.2 5.9 16.55-0.8 1.35q-1.75 3.75-4.25 7.4-5.15 8.05-6.9 10.1l-0.3 0.35-1.25 1.9-0.45-26.55q2.35-1.8 5-5.25 1.3-1.5 2.3-4.1l0.75-1.75" fill="#c5cdd6" fill-rule="evenodd"/>
<path d="m315.75 201.55q-2.2 3.8-4.95 7.05l-3 3.15q-3.6 3.9-9.4 8.75l-1.55 1.3-0.2-14.95 1.25-1.9 0.3-0.35q1.75-2.05 6.9-10.1 2.5-3.65 4.25-7.4l0.8-1.35 5.6 15.8" fill="#fcfcfc" fill-rule="evenodd"/>
<path d="m318.3 162.25-0.85-1.3-1.3-3.25-0.1-1.3-0.3-0.4-0.4-0.2-2.7-0.6q-4.25 4.3-6.95 10.5l-1.45 3.5m-24.3 51.3-10.25-11.5q8.85-3.6 12.55-9.8 4.2-6.75 2.45-9.4l-0.35-0.45-1.1-1.25-0.65-0.25m6-7.6 0.55 0.8 1.3 1.1 0.5 0.15q2.35 0.25 5.25-2 2.35-1.8 5-5.25 1.3-1.5 2.3-4.1l0.75-1.75" fill="none" stroke="#647a8e" stroke-linecap="round" stroke-linejoin="round" stroke-width=".6"/>
<path d="m318.3 162.25q2.7 5.4 3.4 11.95l0.1 5.85q-0.25 4.9-0.9 10.25l-0.2-0.05q-2 6.15-4.95 11.3-2.2 3.8-4.95 7.05l-3 3.15q-3.6 3.9-9.4 8.75l-1.55 1.3-8.85 7.5-8.05-8.8" fill="none" stroke="#adbac6" stroke-linecap="round" stroke-linejoin="round" stroke-width=".6"/>
<path d="m294.65 171.05 1.85-2-3.9-3.05-1.75-1.3-2.25 2.6" fill="none" stroke="#000" stroke-linecap="round" stroke-linejoin="round" stroke-opacity=".6" stroke-width=".6"/>
<path d="m274.95 192.25-31.1 36.05-3.05-2.6 30.65-37 3.2 3.35 0.3 0.2" fill="#a3c180" fill-rule="evenodd"/>
<path d="m246.6 230.6-2.75-2.3 31.1-36.05 1.1 0.8 0.8 1-30.25 36.55" fill="#799d4d" fill-rule="evenodd"/>
<path d="m246.6 230.6 30.25-36.55-0.8-1-1.1-0.8m-34.15 33.45 30.65-37 3.2 3.35 0.3 0.2" fill="none" stroke="#000" stroke-linecap="round" stroke-linejoin="round" stroke-opacity=".6" stroke-width=".6"/>
<path d="m236.7 244.3-1.2 1.4q-6.55 0.35-6.95-5.95l-0.4-0.8 2.3-2.75q7.25 1.35 6.25 8.1" fill="#5a4e39" fill-rule="evenodd"/>
<path d="m241.05 239-4.35 5.3q1-6.75-6.25-8.1l2.3-2.8q7-0.3 8.3 5.6" fill="#faf3de" fill-rule="evenodd"/>
<path d="m248.1 214.8 2.8-3.45 1.2 0.1q5.5-0.4 6.3 5.25l0.05 1.35-1.45 1.75q-2.25-6.35-8.9-5m4.1 10.8-2.4 2.9q-1.9-8-9.3-4.5l5.4-6.55q5.85 2.3 6.3 8.15m-9.15 11-2 2.4q-1.3-5.9-8.3-5.6l4.4-5.35q9.6-1.5 5.9 8.55" fill="#e6dcbf" fill-rule="evenodd"/>
<path d="m249.8 228.5-6.75 8.1q3.7-10.05-5.9-8.55l3.35-4.05q7.4-3.5 9.3 4.5" fill="#dccfa7" fill-rule="evenodd"/>
<path d="m257 219.8-4.8 5.8q-0.45-5.85-6.3-8.15l2.2-2.65q6.65-1.35 8.9 5" fill="#d6c696" fill-rule="evenodd"/>
<path d="m248.1 214.8 2.8-3.45 1.2 0.1q5.5-0.4 6.3 5.25l0.05 1.35-1.45 1.75-7.2 8.7-8.75 10.5-4.35 5.3-1.2 1.4q-6.55 0.35-6.95-5.95l-0.4-0.8 2.3-2.75 2.3-2.8 4.4-5.35 3.35-4.05 5.4-6.55z" fill="none" stroke="#000" stroke-linecap="round" stroke-linejoin="round" stroke-opacity=".6" stroke-width=".6"/>
<path d="m271.75 155.25q4.65 13.7 10.3 18.7l-5.7 7.05q-7.15-7.5-22.5-8.35 0.2-9.3 4.8-13.5 4.3-3.85 13.1-3.9" fill="#adbac6" fill-rule="evenodd"/>
<path d="m271.75 155.25q-8.8 0.05-13.1 3.9-4.6 4.2-4.8 13.5 15.35 0.85 22.5 8.35l5.7-7.05q-5.65-5-10.3-18.7z" fill="none" stroke="#647a8e" stroke-linecap="round" stroke-linejoin="round" stroke-width=".6"/>
<path d="m288.75 165.6q5.65-0.1 7.05 6.2l-21.7 26.85q-0.45-6.8-6.7-6.15l21.35-26.9" fill="#5a4e39" fill-rule="evenodd"/>
<path d="m295.8 171.8-21.7 26.85m-6.7-6.15 21.35-26.9" fill="none" stroke="#000" stroke-linecap="round" stroke-linejoin="round" stroke-opacity=".6" stroke-width=".6"/>
</g>
</defs>
</svg>
