<?xml version="1.0" encoding="UTF-8"?>
<svg width="286px" height="268px" version="1.1" viewBox="130.35 67 286.4 267.5" xmlns="http://www.w3.org/2000/svg" xmlns:xlink="http://www.w3.org/1999/xlink">
<defs>
<linearGradient id="n" x1="-819.2" x2="819.2" gradientTransform="matrix(.024277 -.01738 .0065765 .009201 83.65 -124.2)" gradientUnits="userSpaceOnUse">
<stop stop-color="#aabac4" offset="0"/>
<stop stop-color="#fff" offset=".54118"/>
<stop stop-color="#afbec7" offset="1"/>
</linearGradient>
<linearGradient id="h" x1="-819.2" x2="819.2" gradientTransform="matrix(.015244 -.0087433 .0033875 .0059052 83.45 -123.9)" gradientUnits="userSpaceOnUse">
<stop stop-color="#3c465e" offset="0"/>
<stop stop-color="#74a0be" offset="1"/>
</linearGradient>
<linearGradient id="g" x1="-819.2" x2="819.2" gradientTransform="matrix(.030823 .0082703 -.010101 .037643 65.85 -112.8)" gradientUnits="userSpaceOnUse">
<stop stop-color="#aabac4" offset="0"/>
<stop stop-color="#fff" offset=".54118"/>
<stop stop-color="#afbec7" offset="1"/>
</linearGradient>
<linearGradient id="f" x1="-819.2" x2="819.2" gradientTransform="matrix(.05835 -.049149 .0090637 .010757 94.65 -76)" gradientUnits="userSpaceOnUse">
<stop stop-color="#aabac4" offset="0"/>
<stop stop-color="#e8e8e8" offset="1"/>
</linearGradient>
<linearGradient id="e" x1="-819.2" x2="819.2" gradientTransform="matrix(.0026245 -.0018311 .0026245 .0037842 73.8 -123.6)" gradientUnits="userSpaceOnUse">
<stop stop-color="#818181" offset="0"/>
<stop stop-color="#515151" offset="1"/>
</linearGradient>
<linearGradient id="d" x1="-819.2" x2="819.2" gradientTransform="matrix(.042679 -.048065 .0056 .0049744 7.6 -85.15)" gradientUnits="userSpaceOnUse">
<stop stop-color="#aabac4" offset="0"/>
<stop stop-color="#e8e8e8" offset="1"/>
</linearGradient>
<linearGradient id="c" x1="-819.2" x2="819.2" gradientTransform="matrix(.031815 -.024063 .010986 .014526 32.2 -54.25)" gradientUnits="userSpaceOnUse">
<stop stop-color="#7f97a5" offset="0"/>
<stop stop-color="#fff" offset=".76863"/>
</linearGradient>
<linearGradient id="b" x1="-819.2" x2="819.2" gradientTransform="matrix(0 .010284 -.024414 0 23.2 -27.95)" gradientUnits="userSpaceOnUse">
<stop stop-color="#333" offset="0"/>
<stop stop-color="#5b5b5b" offset="1"/>
</linearGradient>
<linearGradient id="a" x1="-819.2" x2="819.2" gradientTransform="matrix(.064957 -.024979 .016418 .042725 36.55 -64.95)" gradientUnits="userSpaceOnUse">
<stop stop-color="#3c465e" offset="0"/>
<stop stop-color="#74a0be" offset="1"/>
</linearGradient>
<linearGradient id="m" x1="-819.2" x2="819.2" gradientTransform="matrix(.0014191 .010132 -.014877 .0020905 -5.15 -15.95)" gradientUnits="userSpaceOnUse">
<stop stop-color="#333" offset="0"/>
<stop stop-color="#5b5b5b" offset="1"/>
</linearGradient>
<linearGradient id="l" x1="-819.2" x2="819.2" gradientTransform="matrix(.031281 -.02681 .020889 .024368 -93.8 76.15)" gradientUnits="userSpaceOnUse">
<stop stop-color="#a78503" offset="0"/>
<stop stop-color="#6c4102" offset="1"/>
</linearGradient>
<linearGradient id="k" x1="-819.2" x2="819.2" gradientTransform="matrix(.021286 -.028671 .0079956 .0059357 -26.3 -5.7)" gradientUnits="userSpaceOnUse">
<stop stop-color="#9f7302" offset="0"/>
<stop stop-color="#b57902" offset="1"/>
</linearGradient>
<linearGradient id="j" x1="-819.2" x2="819.2" gradientTransform="matrix(-.041351 .046997 -.0020447 -.0018005 -101.65 72.65)" gradientUnits="userSpaceOnUse">
<stop stop-color="#9f7302" offset="0"/>
<stop stop-color="#b57902" offset="1"/>
</linearGradient>
<linearGradient id="i" x1="-819.2" x2="819.2" gradientTransform="matrix(.015961 0 0 .020508 -91.25 85.05)" gradientUnits="userSpaceOnUse">
<stop stop-color="#9f7302" offset="0"/>
<stop stop-color="#b57902" offset="1"/>
</linearGradient>
<g id="p">
<path d="m73.15-124.25-3.7 3.2q-3.25 3.2-3.15 5.65 0.2 2.45 3.65 2.7t8.15-1.8q4.7-2.1 7.95-5.35 3.2-3.25 3.05-5.65-0.15-2.5-3.6-2.75-3.25-0.25-8.75 1.8l1.5-3.9q7.25-3.1 12.65-2.7 5.65 0.4 5.85 4.45 0.3 4-5 9.35-5.3 5.3-13.05 8.75-7.7 3.4-13.35 3-5.65-0.45-5.95-4.45-0.25-4.05 5.1-9.3 4-4.05 9.35-6.95l-0.7 3.95" fill="url(#n)"/>
<path d="m76.75-126.45q5.5-2.05 8.75-1.8 3.45 0.25 3.6 2.75 0.15 2.4-3.05 5.65-3.25 3.25-7.95 5.35-4.7 2.05-8.15 1.8t-3.65-2.7q-0.1-2.45 3.15-5.65l3.7-3.2 0.7 5.25 0.8-2.05 2.1-5.4" fill="url(#h)"/>
<path d="m141.8-125.5q-25.45 21.05-42.55 30.55-29.05 16.1-52.3 10.15-15.35-3.85-14.85-18.7 1.85-6.5 7.65-19.05-4.7 22.4 10.3 28.45 35.45 5.05 91.75-31.4" fill="url(#g)"/>
<path d="m99.25-94.95q17.1-9.5 42.55-30.55l-62.15 69.1-10.6 0.85 3.9 1.15 3.95 1.1-27.35 30.35-13.35-1.75 63.05-70.25" fill="url(#f)"/>
<path d="m73.15-124.25 0.7-3.95 0.8 7.15-0.8 2.05-0.7-5.25" fill="url(#e)"/>
<path d="m39.75-122.55q-5.8 12.55-7.65 19.05l-64.4 71.5-15.25-0.25 87.3-90.3" fill="url(#d)"/>
<path d="m42-79.3q-15.7 28.1-38.8 46.3 4.95 3.9 6.05 11.25l-0.1 1.25q-0.3 1.6-1.15 2.85-2.85 3.25-6.2 3.6 3.6-2 4.4-5.45 1.4-3.6-3.9-10.15-4.05-2.45-9.9-2.4-4.8 0-8 3.05-2.8 2.5-3 5.6-0.85-1.15-0.3-3.2 0.5-2.05 1.85-5.15 0.3-0.75 1.2-1.35 2-1.25 3.75-1.8 46.5-42.1 54.1-44.4m-50.65 43.95-3.45 0.45 3.45-0.45m9.35 0.75 2.5 1.6-2.5-1.6" fill="url(#c)"/>
<path d="m3.2-33q23.1-18.2 38.8-46.3l1.2-0.05-30.4 51.5q0.95 2.45-1.5 4.9l-2.15 2.45 0.1-1.25q-1.1-7.35-6.05-11.25" fill="url(#b)"/>
<path d="m72.95-54.4-3.9-1.15 10.6-0.85-6.7 2"/>
<path d="m32.1-103.5q-0.5 14.85 14.85 18.7 23.25 5.95 52.3-10.15l-63.05 70.25-23.4-3.15 30.4-51.5-1.2 0.05q-7.6 2.3-54.1 44.4-1.75 0.55-3.75 1.8-0.9 0.6-1.2 1.35l-15.25-0.25 64.4-71.5" fill="url(#a)"/>
<path d="m36.2-24.7 13.35 1.75h-38.25q2.45-2.45 1.5-4.9l23.4 3.15m-55.1-1.9-28.65-5.65 30.5 0.5q-1.35 3.1-1.85 5.15" fill="#333"/>
<path d="m1.8-14.05-3.2-0.3 3.5-4 0.15-0.55q1.6-5.95-5.4-10.35-5.45-0.9-10.4 2l-4.05 4.65-1-0.8q0.2-3.1 3-5.6 3.2-3.05 8-3.05 5.85-0.05 9.9 2.4 5.3 6.55 3.9 10.15-0.8 3.45-4.4 5.45" fill="url(#m)"/>
<path d="m-1.4-14.35-21.6 24.85q-39.6 46.85-75.2 97.15 0.7-3.55-2.9-5.8l22.95-31q1.1 1.45 1.05 2.9 0.05-1.45-1.05-2.9-1-1.3-2.95-2.6l-23.2 31.15 1.3 1.45 0.05 0.05q2.7 3.35 2.3 6.75l-18.45 24.85q1.9-2.75-0.15-7.4-1.5-3.65-6.1-10.3l32.7-40.95-34.85 40.85q-3.65-2.1-6.55-2.45l78.3-88.35q0.75 0.25 1.35 0.65l20.7-23.8q3.05-0.25 5.15 1.3l-19.2 21.8q3 1.05 2.85 2.8l37.1-43.6q-3.4-6-12.1-3.05l2.3-2.6 4.05-4.65q4.95-2.9 10.4-2 7 4.4 5.4 10.35l-0.15 0.55-3.5 4m-82.1 74.95 30.55-34.55q-0.55-0.9-1.45-1.5 0.9 0.6 1.45 1.5l-30.55 34.55" fill="url(#l)"/>
<path d="m-58.1 23.4 38.2-43.4q8.7-2.95 12.1 3.05l-37.1 43.6q0.15-1.75-2.85-2.8l19.2-21.8q-2.1-1.55-5.15-1.3l-20.7 23.8q-0.6-0.4-1.35-0.65l-2.35-0.5" fill="url(#k)"/>
<path d="m-140.5 114.55 79.3-91.25 3.1 0.1 2.35 0.5-78.3 88.35q-3.95-0.45-6.45 2.3" fill="url(#j)"/>
<path d="m-98.2 107.65h-2.45q0.4-3.4-2.3-6.75l-0.05-0.05q1.05 0.45 1.9 1 3.6 2.25 2.9 5.8m-20.9 24.85-0.05 0.05-0.1 0.15q-5.2 1.35-12.85-1.8l5.15-7.8-2.55 2.45-5.05 3.2q-10.05-7.45-6.1-14.05l0.15-0.15q2.5-2.75 6.45-2.3 2.9 0.35 6.55 2.45l34.85-40.85-32.7 40.95q4.6 6.65 6.1 10.3 2.05 4.65 0.15 7.4" fill="#6c4102"/>
<path d="m-101.1 101.85q-0.85-0.55-1.9-1l-1.3-1.45 23.2-31.15q1.95 1.3 2.95 2.6l-22.95 31" fill="url(#i)"/>
<path d="m-132.1 130.9 2.6-5.35 2.55-2.45-5.15 7.8" fill="#960"/>
<path d="m76.75-126.45q5.5-2.05 8.75-1.8 3.45 0.25 3.6 2.75 0.15 2.4-3.05 5.65-3.25 3.25-7.95 5.35-4.7 2.05-8.15 1.8t-3.65-2.7q-0.1-2.45 3.15-5.65l3.7-3.2m0.7-3.95q-5.35 2.9-9.35 6.95-5.35 5.25-5.1 9.3 0.3 4 5.95 4.45 5.65 0.4 13.35-3 7.75-3.45 13.05-8.75 5.3-5.35 5-9.35-0.2-4.05-5.85-4.45-5.4-0.4-12.65 2.7m21 35.4q17.1-9.5 42.55-30.55-56.3 36.45-91.75 31.4-15-6.05-10.3-28.45-5.8 12.55-7.65 19.05-0.5 14.85 14.85 18.7 23.25 5.95 52.3-10.15m-63.05 70.25 13.35 1.75 27.35-30.35m2.75-3.1 62.15-69.1m-99.8 46.2q-7.6 2.3-54.1 44.4l3.45-0.45m50.65-43.95 1.2-0.05-30.4 51.5 23.4 3.15m-23.4-3.15q0.95 2.45-1.5 4.9h38.25m-38.25 0-2.15 2.45q-0.3 1.6-1.15 2.85-2.85 3.25-6.2 3.6l-3.2-0.3-21.6 24.85q-39.6 46.85-75.2 97.15h-2.45l-18.45 24.85-0.05 0.05-0.1 0.15q-5.2 1.35-12.85-1.8l2.6-5.35-5.05 3.2q-10.05-7.45-6.1-14.05l0.15-0.15 79.3-91.25 3.1 0.1 38.2-43.4 2.3-2.6-1-0.8q-0.85-1.15-0.3-3.2l-28.65-5.65 87.3-90.3m-30.6 102.05 0.1-1.25q-1.1-7.35-6.05-11.25l-2.5-1.6m-17.75 2.85q0.3-0.75 1.2-1.35 2-1.25 3.75-1.8m-4.95 3.15-30.5-0.5m29.95 9.65 4.05-4.65q4.95-2.9 10.4-2 7 4.4 5.4 10.35l-0.15 0.55-3.5 4m-53 38.9q0.9 0.6 1.45 1.5l-30.55 34.55m27.75-36.7q0.75 0.25 1.35 0.65m-3.7-1.15 2.35 0.5m-78.3 88.35q2.9 0.35 6.55 2.45l34.85-40.85-32.7 40.95q4.6 6.65 6.1 10.3 2.05 4.65 0.15 7.4m100.2-159.1q0.5-2.05 1.85-5.15m-61.1 102.6q1.1 1.45 1.05 2.9m-21.1 33.9q0.7-3.55-2.9-5.8-0.85-0.55-1.9-1l0.05 0.05q2.7 3.35 2.3 6.75m22.5-36.8q-1-1.3-2.95-2.6l-23.2 31.15 1.3 1.45m-31.05 11.4q-3.95-0.45-6.45 2.3m11 11 2.55-2.45-5.15 7.8m133.9-144.95q3.6-2 4.4-5.45" fill="none" stroke="#000" stroke-opacity=".4902" stroke-width=".5"/>
<path d="m73.15-124.25 0.7-3.95m4.4-2.15-1.5 3.9-2.1 5.4-0.8 2.05-0.7-5.25" fill="none" stroke="#000" stroke-opacity=".52157" stroke-width=".5"/>
<path d="m99.25-94.95-63.05 70.25m40.7-28.6-3.95-1.1-3.9-1.15 10.6-0.85m-5-64.65-0.8-7.15m-0.9 73.8 6.7-2m-111.95 24.4 64.4-71.5" fill="none" stroke="#000" stroke-opacity=".47843" stroke-width=".5"/>
</g>
<g id="o">
<use xlink:href="#p"/>
</g>
</defs>
<use transform="translate(274.95 200.45)" xlink:href="#o"/>
</svg>
