<?xml version="1.0" encoding="UTF-8"?>
<svg version="1.1" viewBox="0 0 83.4 81.4" xmlns="http://www.w3.org/2000/svg" xmlns:cc="http://creativecommons.org/ns#" xmlns:dc="http://purl.org/dc/elements/1.1/" xmlns:rdf="http://www.w3.org/1999/02/22-rdf-syntax-ns#" xmlns:xlink="http://www.w3.org/1999/xlink">
<metadata>
<rdf:RDF>
<cc:Work rdf:about="">
<dc:format>image/svg+xml</dc:format>
<dc:type rdf:resource="http://purl.org/dc/dcmitype/StillImage"/>
</cc:Work>
</rdf:RDF>
</metadata>
<g transform="translate(-233.25,-159.75)">
<use transform="translate(233.25,159.75)" width="83.400002" height="81.400002" xlink:href="#a"/>
</g>
<defs>
<g id="a" transform="translate(-233.25,-159.75)">
<path d="m251.35 224.4-4.75-9 3.45-9.85 0.2 0.05q-0.2 6.35 1.5 12.5l-2.35-3.1 2.1 4.95-0.15 4.45" fill="#dff7ff" fill-rule="evenodd"/>
<path d="m250.25 205.6q2.55 4.6 3.25 13.25l-2.15 5.55 0.15-4.45-2.1-4.95 2.35 3.1q-1.7-6.15-1.5-12.5" fill="#71c2ee" fill-rule="evenodd"/>
<path d="m248.75 210.75-0.25 4.4-0.7-0.25 0.2-5.5 0.65 1.05 0.1 0.3m-0.45 5.05 2.9 9-0.4 0.15-3.35-9.9 0.4 0.2 0.35 0.25 0.1 0.3" fill="#dff7ff" fill-rule="evenodd"/>
<path d="m248.5 215.15 0.25-4.4 3.2 8.75-0.15 1.4q-0.05-2.05-2.35-7-1.05-0.55-0.15 3.15l2.15 6.9-0.1 0.8-0.15 0.05-2.9-9 0.2-0.1v-0.55" fill="#c1f3ff" fill-rule="evenodd"/>
<path d="m248 209.4-0.2 5.5-0.35 0.05-3.7-1.2 0.5-5.4 3.75 1.05" fill="#a8daf4" fill-rule="evenodd"/>
<path d="m251.45 223.95-2.15-6.9q-0.9-3.7 0.15-3.15 2.3 4.95 2.35 7l-0.35 3.05m-7.7-10.2 3.7 1.2v0.1l3.35 9.9-0.55 0.2-2.7-0.85-3.8-10.55" fill="#9ccff3" fill-rule="evenodd"/>
<path d="m250.2 224.5-7.05 5.75-4.4 4.3-1.8 4.7 6.3 0.4 0.1 0.1-10.1 1.4 4.55-11.1 0.4-0.35 2.5-1.7 0.05 1.25 0.15-0.15 9.25-4.7 0.05 0.1" fill="#dff7ff" fill-rule="evenodd"/>
<path d="m243.25 239.65-6.3-0.4 1.8-4.7 4.4-4.3 7.05-5.75 0.15-0.1 4.25 2.2-11.35 13.05m-2.35-10.55-0.15 0.15-0.05-1.25-2.5 1.7 10.2-11.15 4.75-1.1-0.2 1.5-12.05 10.15" fill="#9ccff3" fill-rule="evenodd"/>
<path d="m250.15 224.4-9.25 4.7 12.05-10.15-2.5 5.2-0.3 0.25" fill="#c1f3ff" fill-rule="evenodd"/>
<path d="m244.95 231.15q-0.05 0.75 0.9 2.05l0.1 0.1h-0.2l-2.5-0.8v-0.15l1.7-1.2" fill="#dff7ff" fill-rule="evenodd"/>
<path d="m242.8 226 2.15 5.15-1.7 1.2-0.1 0.1-4.2-2.1 3.85-4.35m3.15 7.3 0.35-0.55 1.3 0.1 0.35 0.7 1.75-0.7-4.8 5.3-4.8 1.2 0.25-1.5 5.4-4.55h0.2" fill="#9ccff3" fill-rule="evenodd"/>
<path d="m240.35 237.85 2.55-5.15 0.35-0.2 2.5 0.8-5.4 4.55" fill="#c1f3ff" fill-rule="evenodd"/>
<path d="m242.8 226 7.45-8.6 0.1-0.1 9.9-1.55-4.75 10.9-0.45 0.45-5.35 5.75-1.75 0.7-0.35-0.7-1.3-0.1-0.35 0.55-0.1-0.1q-0.95-1.3-0.9-2.05l-2.15-5.15" fill="#82c9f0" fill-rule="evenodd"/>
<path d="m261.45 223.85-0.3 0.05v0.2l0.2-0.15 0.35 0.35 0.05 0.1-0.05-0.3-0.25-0.25m4.3 0.65-2.6 1.4-6.15 0.3-1.05-1.2v-0.55l2.5-1.45 5.3-0.3 0.65 0.1 1.35 1.7" fill="#82c9f0" fill-rule="evenodd"/>
<path d="m253.9 224.95 5.7 8.9 8.25-1.55q-0.05-0.1 0.05-0.3-4.85-1.6-9.15-5.7l1.85 4-3.3-4.25-3.4-1.1" fill="#dff7ff" fill-rule="evenodd"/>
<path d="m267.9 232q-2.9-4.7-9.3-8.2l-4.7 1.15 3.4 1.1 3.3 4.25-1.85-4q4.3 4.1 9.15 5.7" fill="#71c2ee" fill-rule="evenodd"/>
<path d="m258.8 230.25-3.2-0.45-0.1 0.6 3.8 0.65-0.4-0.65-0.1-0.15m-3.7-0.45-4.75-3.8-0.3 0.35 5.15 4.35 0.05-0.35v-0.4l-0.15-0.15" fill="#dff7ff" fill-rule="evenodd"/>
<path d="m255.6 229.8 3.2 0.45-4.5-4-1-0.05q1.4 0.3 3.65 2.95-0.15 1-2.25-0.25l-3.6-2.9-0.65-0.05-0.1 0.05 4.75 3.8 0.15-0.15 0.35 0.15" fill="#c1f3ff" fill-rule="evenodd"/>
<path d="m259.3 231.05-3.8-0.65-0.25 0.3-0.95 3.2 3.95 0.4 1.05-3.25" fill="#a8daf4" fill-rule="evenodd"/>
<path d="m251.1 226 3.6 2.9q2.1 1.25 2.25 0.25-2.25-2.65-3.65-2.95l-2.2-0.2m3.2 7.9 0.95-3.2h-0.05l-5.15-4.35-0.45 0.4-0.7 2.45 5.4 4.7" fill="#9ccff3" fill-rule="evenodd"/>
<path d="m254.45 223 4.5-4.05 2.75-3.05 0.45-3.65-5.1-0.95-0.1-0.1 7.85-0.2-1.45 8.65-0.25 0.25-1.65 1.15-0.35-1.05-0.1 0.1-6.45 2.95-0.1-0.05" fill="#dff7ff" fill-rule="evenodd"/>
<path d="m257.05 211.3 5.1 0.95-0.45 3.65-2.75 3.05-4.5 4.05-0.05 0.1q-1.85-1.15-3.85-2.25l6.5-9.55m3.95 8.8 0.1-0.1 0.35 1.05 1.65-1.15-6 8.15-3.6 0.45-0.15-1.25 7.65-7.15" fill="#9ccff3" fill-rule="evenodd"/>
<path d="m254.55 223.05 6.45-2.95-7.65 7.15 1.05-4 0.15-0.2" fill="#c1f3ff" fill-rule="evenodd"/>
<path d="m316.05 160.55-10.1 14.65-33.15 35.1-15.4 10.55-0.2-0.15 14.3-15.9 0.95-1.1 7.55-7.1-5.65 9.7 12.95-16.7 20.95-19.65 7.8-9.4" fill="#71c2ee" fill-rule="evenodd"/>
<path d="m266.65 199.55 10.9-11.8 30.3-22.85 8.8-5.15-0.6 0.8-7.8 9.4-20.95 19.65-12.95 16.7 5.65-9.7-7.55 7.1-1.05 1.05-7.75 1.5 3-6.7" fill="#dff7ff" fill-rule="evenodd"/>
<path d="m257.2 220.7-3.35-3.7 6.1-10.1-0.05-0.05 6.75-7.3-3 6.7 7.75-1.5 0.1 0.05-14.3 15.9" fill="#9ccff3" fill-rule="evenodd"/>
<path d="m244.65 216.75 0.7 0.45 0.1 0.15 0.5 3.15-0.6 0.1-0.7-3.85m5.05 8.95-0.3 0.35-4.35-5.15 0.35-0.05h0.3l0.15 0.15 3.85 4.7" fill="#dff7ff" fill-rule="evenodd"/>
<path d="m245.45 217.35 4 4.4 0.1 1.05q-0.4-1.4-3.05-3.65-0.95 0.1 0.35 2.25l2.9 3.6 0.05 0.65-0.1 0.05-3.85-4.7 0.15-0.15-0.05-0.35-0.5-3.15" fill="#c1f3ff" fill-rule="evenodd"/>
<path d="m241.85 221.8-0.45-3.9 3.25-1.15 0.7 3.85-0.35 0.3-3.15 0.9" fill="#a8daf4" fill-rule="evenodd"/>
<path d="m249.55 222.8 0.2 2.2-2.9-3.6q-1.3-2.15-0.35-2.25 2.65 2.25 3.05 3.65m-0.15 3.25-0.45 0.4-2.4 0.75-4.7-5.4 3.15-0.9h0.05l4.35 5.15" fill="#9ccff3" fill-rule="evenodd"/>
</g>
</defs>
</svg>
