<?xml version="1.0" encoding="UTF-8"?>
<svg version="1.1" viewBox="0 0 215.56 214.95" xmlns="http://www.w3.org/2000/svg" xmlns:cc="http://creativecommons.org/ns#" xmlns:dc="http://purl.org/dc/elements/1.1/" xmlns:rdf="http://www.w3.org/1999/02/22-rdf-syntax-ns#" xmlns:xlink="http://www.w3.org/1999/xlink">
<metadata>
<rdf:RDF>
<cc:Work rdf:about="">
<dc:format>image/svg+xml</dc:format>
<dc:type rdf:resource="http://purl.org/dc/dcmitype/StillImage"/>
</cc:Work>
</rdf:RDF>
</metadata>
<g transform="translate(-.11073 -4.825)">
<use transform="translate(.15 4.85)" width="215.5" height="214.89999" xlink:href="#b"/>
</g>
<defs>
<g id="b" transform="translate(107.75,107.45)">
<use transform="translate(-107.75,-107.45)" width="215.5" height="214.89999" xlink:href="#d"/>
<use transform="matrix(.7071 .7071 -.7071 .7071 4.4024 -42.402)" width="65.800003" height="65.150002" xlink:href="#a"/>
<use transform="matrix(-.3337 -.3337 .3337 -.3337 43.756 -51.156)" width="65.800003" height="65.150002" xlink:href="#a"/>
<use transform="matrix(.3946 .1057 -.1815 .6772 75.82 -80.268)" width="65.800003" height="65.150002" xlink:href="#a"/>
<use transform="matrix(.2206 .2206 -.6874 .6874 -61.607 45.307)" width="65.800003" height="65.150002" xlink:href="#a"/>
</g>
<g id="d" transform="translate(107.75,107.45)">
<path d="m33.55-43.2-0.25 0.25q-1.8 7.6 2.25 9.45 2.3 1.1 6.7 0.15l-1.9 5.2 0.25 0.1-3.2-0.05-1.6 0.25q-9.45 1-7.9-9.7l-0.75-2.05 3.3-3.35 3.1-0.25m57.8-3.95 0.5 6.25q0.6 14.1-3.3 22.85l-10.1-3.8q1.8-2.9 2.15-6.3l0.05-1.6q-0.05-2.95-1.5-5.15l12.2-12.25m-194.8 134.65-1.6-1.55q1-4.2 5.4-6.9 2.85 5.05-3.8 8.45m38.3-69.9 15.45-15.3 1.75 6.95 9.45-9.4 5 24-8.6 8.6-5.85-23.2-12.6 12.65-3.1-2.9-1.5-1.4m25.2-24.85 11.5-11.4 1.55 6.9-11.6 11.6-1.45-7.1m49.75-49.15 7.4-7.3 4.2-0.55 0.55-4.2 3.9-3.85 2.7 0.1 0.45-3.2 4.25-4.15 0.35 7.3 15.4-15.4 1.1-0.4v25.5l-15.25 15.2-1.25-24.9-21.55 21.55-2-1.95 2 1.95-1.75 1.75-0.25-3.7-0.25-3.75m40.3-36.8 43.7-13.05-5.15 5.1-38.55 13.1v-5.15m-21 21h-0.55l-0.1 0.65 0.1-0.65h0.55m-5.9 7.7-1.8 0.25 1.8-0.25m-20.25 54.4q4.65-2.7 9.65-4.3l2.05-0.6-54.8 55.3-0.4 0.4-2.5-2.35 46-48.45" fill="#e5e5e5" fill-rule="evenodd"/>
<path d="m93.8-106.25 4-1.2-64.25 64.25-3.1 0.25 4.4-4.4 15.25-15.2 38.55-38.6 5.15-5.1m-22.65 101.75q-6.8 1.3-15.75 0.05l-5.3-0.95v-9.95q5.1 0.6 9.8-1.2 2.05 1.55 4.8 1.8l0.9 0.05h1.05l0.5-0.05-0.4 0.2 4.4 10.05m-33.6 11.75-8.15 8.25-5.25 0.4-0.3 5.25-8.35 8.45-0.65-9.7 22.25-22.25 0.45 9.6m40.85-43.2 0.75 1.05q1.45 2.2 1.5 5.15l-0.05 1.6q-0.35 3.4-2.15 6.3l-2.25 2.75q-3.9 3.85-8.95 4.35l-0.1-0.45q3.6-1 6.6-3.9 1.25-1.3 2.9-3.7 1.25-1.9 1.75-4.65l0.2-1.4q0.25-3.15-0.85-6.85l0.65-0.25m-11.75 21.25 0.1 0.15-0.1-0.15m-49.2-33.2 1.05-0.2-3.05 10.85-0.15-0.15 2.15-10.5m-2.8 32.9q-0.5 2.85-1.7 5.9-2.65 6.65-8.7 14.2l-22.25 22.2-12.25 12.25-5.4 5.45 5.4-5.45 3 14.45-6.15-6.6-2.25-2.4-0.15 0.1-4.1-3.8-0.25-1 54.8-55.3" fill="#bbb" fill-rule="evenodd"/>
<path d="m106.25-93.7-14.9 46.55-12.2 12.25-0.75-1.05q3.25-6.1 6.25-13.95l16.7-38.9 4.9-4.9" fill="#f0f0f0" fill-rule="evenodd"/>
<path d="m42.25-33.35 0.55-0.1 64.95-65-1.5 4.75-65.65 65.65-0.25-0.1 1.9-5.2m-147.3 119.3-0.4-0.4q-0.9-6.2 5.8-6.5-4.4 2.7-5.4 6.9m55.35-83.65 9.75-9.55 1.45 7.1-9.45 9.4-1.75-6.95m21.25-20.95 10.1-9.95 9.3-9.2 17.1-16.9 1.75-1.7 0.25 3.75-2-2.05 2 2.05 0.25 3.7-37.2 37.2-1.55-6.9m61.7-60.9 12.45-12.35 4.4-1.3v5.15l-1.1 0.4-15.4 15.4-0.35-7.3m-54.75 91.4 15.35-15.35q4.35-3.9 9.1-6.6l-46 48.45-0.85-0.8-0.1-0.1-1.6-1.5 24.1-24.1m11.9-43.05-8.75 2.6 8.75-2.6 0.55-6.6-0.55 6.6 1.15-0.35-1.15 0.35" fill="#fff" fill-rule="evenodd"/>
<path d="m88.55-18.05q-5 11.1-17.4 13.55l-4.4-10.05 0.4-0.2-0.5 0.05h-1.05l-0.9-0.05 1.1-0.15 0.8-0.15 0.55-0.15 0.1 0.45q5.05-0.5 8.95-4.35l2.25-2.75 10.1 3.8m-38.45 12.65-12.55 12.65-0.45-9.6 13-13v-14.4l0.9-0.4-0.9 0.4v-7.8l51.25-51.25-16.7 38.9q-3 7.85-6.25 13.95l-0.65 0.25-0.4-1.25 0.5 0.45 0.55 0.55-0.55-0.55-0.5-0.45q-3.15-2.8-7.9-2.35-5.1 0.45-9 4.4l-0.9 0.95-8.55 3.8 5.2 2.95-0.2 1.35q-0.45 5.1 2.8 8.35l1.1 0.95q-4.7 1.8-9.8 1.2v9.95m-34.6 35-27.65 27.95-1.15-9.55h0.05-0.05l-10.05 10.1-1.1-1.15-0.2-0.25-2.6-2.7-3-14.45 12.25-12.25 4.75 20.7 28.1-28.1-1.9-29q1.2-3.05 1.7-5.9l-2.05 0.6-2.3-34.55 23.3-23.3 1.25 24.9-4.4 4.4-3.3 3.35 0.75 2.05q-1.55 10.7 7.9 9.7l1.3 25.5-22.25 22.25 0.65 9.7m-116.95 59.95-2-2.05q6.65-3.4 3.8-8.45l2.2 2.15 1.5 1.45 0.75 0.8 3.6 3.65q-2.4 4.1-6.15 6.15l-3.7-3.7m190.1-190.7-38.55 38.6v-25.5l38.55-13.1m-21.4 86.4h-0.1 0.1m-94.15 3 5.4 23.6-12 12-5-24 11.6-11.6m-15.2 44.2-3.5 3.5-4.7-4.4-5.45-5.1-1.15-1.1-0.15-0.15-0.15-0.1-3.35-3.2 12.6-12.65 5.85 23.2m59.55-80.35-2.15 10.5 0.15 0.15 3.05-10.85-1.05 0.2 0.05-0.1-5.45-2.7 5.45 2.7-0.05 0.1m6.45 19.15-8.45-8.5 8.45 8.5m-2.1-19.9-3.3 0.55 3.3-0.55m8.5 31.25-0.6 0.6 0.6-0.6m-0.6 0.6-3.1-1.45-0.45 5 3.55-3.55m-80.5 38.25-4.95 5 4.95-5m0.5 10.1 0.95-4.3-0.95 4.3m-47.1 56.7-0.05-7.05 0.05 7.05m1.4 2.9 3.6-3.6-3.6 3.6" fill="#ccc" fill-rule="evenodd"/>
<path d="m50.1-29.75v14.4l-13 13-1.3-25.5 1.6-0.25 3.2 0.05 9.5-9.5v7.8" fill="#d1d1d1" fill-rule="evenodd"/>
<path d="m2.95-10.1q-4.75 2.7-9.1 6.6l-15.35 15.35-5.4-23.6 37.2-37.2 2.3 34.55q-5 1.6-9.65 4.3m1.5-24.55-3.05 3.1 3.05-3.1m-22.45 61.95 22.25-22.2q6.05-7.55 8.7-14.2l1.9 29-28.1 28.1-4.75-20.7" fill="#dedede" fill-rule="evenodd"/>
<path d="m-106.85 105.4q-0.6-0.7-0.8-1.6l6.9-13.55 3 3-9.1 12.15m10.9-22.75q0.85-4.3 3.9-5.8l0.9 0.95q-2.85 2-4.05 5.65l-0.75-0.8m10.3-10.45 1.3-2.4q0.3-5.4 5.2-7.85l1.4 1.4q-3.55 3.25-5.65 7.35l0.7 0.75q-0.4 1.9-1.1 2.65l4.95 4.95q-1.5 2.6-4.8 3.7l-5.05-5.1q3-1.25 4.9-3.55l-1.85-1.9m16.5-18.2 1.35-2.6q0.15-6 4.75-7.55l2.6 2.6q-4.2 2.25-6.15 6.15l0.65 0.65q0.2 1.35-1.15 2.85l-2.05-2.1m23.55-18.05 1.6 1.5-7.3 0.3 0.1-2.3 0.15-4-6.4 0.1 0.2-3.65 0.2-2.55h0.15l1.15 1.1-1.5 1.45 1.5-1.45 5.45 5.1 4.7 4.4m5.7 5.35 4.1 3.8 2.4 2.3 6.15 6.6 2.6 2.7 0.2 0.25 1.1 1.15 4.55 4.95-6.2 0.05 0.3-6.4-6.55 0.1 0.3-6.45-6.7 0.1v-0.15l0.3-6.45-6.85 0.05 0.3-5.6 0.85 0.05 2.5 2.35 0.65 0.6m-23.75-22.3 3.1 2.9 3.35 3.2-6.65 0.05 0.2-6.15m13.35 12.55-0.9 3.9 0.9-3.9m-34.05 38.25 0.95 0.9-0.95-0.9m16.55-18.4 1.2 1.2-1.2-1.2m-1.25 16.7-5.9-5.85q5-2.4 7.85-6.15l6 6q-2.6 5-7.95 6" fill="#d275ff" fill-rule="evenodd"/>
<path d="m-18.15 63.65 2.85 3.15 12.9 1.15-0.85 6-17.1 1-56.75-56.75 1.7-16.25 5.5-0.6 1.5 13.2 3.25 3.05 1.5 1.4-0.2 6.15 6.65-0.05 0.15 0.1v0.15l-0.2 2.55-0.2 3.65 6.4-0.1-0.15 4-0.1 2.3 7.3-0.3 0.1 0.1v0.75l-0.3 5.6 6.85-0.05-0.3 6.45v0.15l6.7-0.1-0.3 6.45 6.55-0.1-0.3 6.4 6.2-0.05 0.65 0.6m-65.45 31.4 3.7 3.75q0.15 5.45-6.3 6l-3.6-3.6-3.65-3.7q4.5-1.15 6.15-6.15l3.7 3.7" fill="#333" fill-rule="evenodd"/>
<path d="m-12.15 57.55-5.6 5.65-1.05-0.15-4.55-4.95 10.05-10.1 1.15 9.55" fill="#b2b2b2" fill-rule="evenodd"/>
<path d="m-3.25 73.95-0.25 2.05-18.1 2-59.15-57.8 3.1-17.95 2.25-0.3-1.7 16.25 56.75 56.75 17.1-1m-94.5 19.3q3.75-2.05 6.15-6.15l0.55 0.5 3.75 3.75q-1.65 5-6.15 6.15l-4.3-4.25m1.75-0.7 4.95-4.95-4.95 4.95" fill="#666" fill-rule="evenodd"/>
<path d="m-3.5 76-0.25 1.8-17.2 3.5-17.8-17.2-5.55-4.6-7.5-7.5-7.15-7.05-1.6-1.6-22.6-23.35 3.15-17.5 2.35-0.25-3.1 17.95 59.15 57.8 18.1-2" fill="#404040" fill-rule="evenodd"/>
<path d="m-63.05 43.85 2.5-0.5 1.6 1.6q0.45 0.5-1.5 1.5l-2.6-2.6m-4.55 29.6-10.15-10.1q1.05-0.9 2.8-1.1l5.9 5.85 2.9 2.85-1.45 2.5m-21.85 3.5 0.75 0.7 5.05 5.1 2.85 2.8-0.75 1.8-9.6-9.55 1.7-0.85" fill="#bb2dff" fill-rule="evenodd"/>
<path d="m-60.45 46.45q1.95-1 1.5-1.5l7.15 7.05q0.05 1.45-0.35 2.75l-8.3-8.3" fill="#7300aa" fill-rule="evenodd"/>
<path d="m-92.05 76.85 1.9-0.65 0.7 0.75-1.7 0.85-0.9-0.95m12.9-14.9q1.25-0.65 2.85-1.1l1.35 1.4q-1.75 0.2-2.8 1.1l-1.4-1.4m-3.55 9.5 4.8 4.8q-0.3 1.55-0.95 2.8l-4.95-4.95q0.7-0.75 1.1-2.65m16.75-18.2 6 6-1.15 2.85-6-6q1.35-1.5 1.15-2.85" fill="#c751ff" fill-rule="evenodd"/>
<path d="m-105.7 106.35-1.15-0.95 9.1-12.15 4.3 4.25-12.25 8.85m23-34.9-0.7-0.75q2.1-4.1 5.65-7.35l10.15 10.1q-2.8 4-7.25 5.85l-7.85-7.85m-8.9 15.65-3.6-3.65q1.2-3.65 4.05-5.65l9.6 9.55q-1.9 3.6-5.75 4l-3.75-3.75-0.55-0.5m0.55 0.5 1.5-1.5-1.5 1.5m25.1-34.35-0.65-0.65q1.95-3.9 6.15-6.15l8.3 8.3q-1.15 3.7-6.15 6.15l-7.65-7.65" fill="#9c00e8" fill-rule="evenodd"/>
<path d="m-107.65 103.8q-0.2-0.8-0.05-1.7l6.25-12.55 0.7 0.7-6.9 13.55m17.5-27.6q2.6-1.1 4.5-4l1.85 1.9q-1.9 2.3-4.9 3.55l-0.75-0.7-0.7-0.75m13.85-15.35q4.6-2.7 7.15-6.85l2.05 2.1q-2.85 3.75-7.85 6.15l-1.35-1.4" fill="#ecc4ff" fill-rule="evenodd"/>
<path d="m-52.4 66.85q-1.45 0.55-2.65 1.25l-6.05-6 1.15-2.85 1.65 1.65 5.9 5.95m-18.3 16.6q-1.4 0.5-2.55 1.2l-5.6-5.6q0.65-1.25 0.95-2.8l7.2 7.2" fill="#8200bf" fill-rule="evenodd"/>
<path d="m-55.05 68.1q-4.6 2.65-6.7 7.25l-4.4-4.4-2.9-2.85q5.35-1 7.95-6l6.05 6m-18.2 16.55q-2.75 1.7-3.9 4.6l-3.65-3.7-2.85-2.8q3.3-1.1 4.8-3.7l5.6 5.6" fill="#ab00fd" fill-rule="evenodd"/>
<path d="m-61.75 75.35q-0.35 1.6-1.05 2.9l-4.8-4.8 1.45-2.5 4.4 4.4m-15.4 13.9-0.75 1.75-3.65-3.65 0.75-1.8 3.65 3.7" fill="#7800b3" fill-rule="evenodd"/>
<path d="m-45 61.9q-1.95 4.5-7.4 4.95l-5.9-5.95q5-2.45 6.15-6.15l7.15 7.15m-17.8 16.35q-2.2 4.1-7.9 5.2l-4.15-4.15q4.45-1.85 7.25-5.85l4.8 4.8m-15.1 12.75q-1.95 3.5-5.7 4.05l-3.7-3.7q3.85-0.4 5.75-4l3.65 3.65m-11.9 10.2-12.55 6.25q-2.05-0.35-3.35-1.1l12.25-8.85 3.65 3.7" fill="#609" fill-rule="evenodd"/>
<path d="m-44.3 59.5-0.7 2.4-7.15-7.15q0.4-1.3 0.35-2.75l7.5 7.5" fill="#420062" fill-rule="evenodd"/>
<path d="m93.8-106.25 4-1.2-64.5 64.5q-1.8 7.6 2.25 9.45 2.3 1.1 6.7 0.15l0.55-0.1 64.95-65-1.5 4.75-14.9 46.55 0.5 6.25q0.6 14.1-3.3 22.85-5 11.1-17.4 13.55-6.8 1.3-15.75 0.05l-5.3-0.95-12.55 12.65-8.15 8.25-5.25 0.4-0.3 5.25-8.35 8.45-27.65 27.95-5.6 5.65-0.4 0.45 2.85 3.15 12.9 1.15-0.85 6-0.25 2.05-0.25 1.8-17.2 3.5-17.8-17.2-5.55-4.6-0.7 2.4q-1.95 4.5-7.4 4.95-1.45 0.55-2.65 1.25-4.6 2.65-6.7 7.25-0.35 1.6-1.05 2.9-2.2 4.1-7.9 5.2-1.4 0.5-2.55 1.2-2.75 1.7-3.9 4.6l-0.75 1.75q-1.95 3.5-5.7 4.05l3.7 3.75q0.15 5.45-6.3 6l-3.6-3.6-12.55 6.25q-2.05-0.35-3.35-1.1l-1.15-0.95q-0.6-0.7-0.8-1.6-0.2-0.8-0.05-1.7l6.25-12.55-2-2.05-1.6-1.55-0.4-0.4q-0.9-6.2 5.8-6.5l2.2 2.15 1.5 1.45q0.85-4.3 3.9-5.8l1.9-0.65q2.6-1.1 4.5-4l1.3-2.4q0.3-5.4 5.2-7.85 1.25-0.65 2.85-1.1 4.6-2.7 7.15-6.85l1.35-2.6q0.15-6 4.75-7.55l2.5-0.5-22.6-23.35 3.15-17.5 2.35-0.25 2.25-0.3 5.5-0.6 1.5 13.2 3.25 3.05 15.45-15.3 9.75-9.55 11.5-11.4 10.1-9.95 8.75-2.6 1.15-0.35m-0.6-6.25 17.1-16.9 1.75-1.7 7.4-7.3 4.2-0.55 0.55-4.2 3.9-3.85 2.7 0.1 0.45-3.2 4.25-4.15 12.45-12.35 4.4-1.3 43.7-13.05m-15.4 70.3 0.75 1.05m-1.8-2.05 0.4 1.25q1.1 3.7 0.85 6.85l-0.2 1.4q-0.5 2.75-1.75 4.65-1.65 2.4-2.9 3.7-3 2.9-6.6 3.9m11.25-20.75-0.55-0.55-0.5-0.45q-3.15-2.8-7.9-2.35-5.1 0.45-9 4.4l-0.9 0.95 1.55-0.7m17.35 12.8q1.8-2.9 2.15-6.3l0.05-1.6q-0.05-2.95-1.5-5.15m-11.9 20.15q5.05-0.5 8.95-4.35l2.25-2.75m-18.55 5.3-1.1-0.95q-3.25-3.25-2.8-8.35l0.2-1.35-5.2-2.95-0.9 0.4m9.8 13.2q2.05 1.55 4.8 1.8l1.1-0.15 0.8-0.15 0.55-0.15m-16.15-14.95 8.55-3.8m5.15 19.2 0.9 0.05h1.05l0.5-0.05h0.1m-59.2-39.95 2 2.05 2 1.95m9.35-13.55 1.8-0.25m5.25-7.05 0.1-0.65h0.55m-50.6 84.05-24.1 24.1 1.6 1.5 0.1 0.1 0.85 0.8 2.5 2.35 0.65 0.6 4.1 3.8m37.2-76.65 3.05-3.1m-13.5-3.15-0.55 6.6m45.4 3.35 1.6-0.25 3.2 0.05m-23.15-19.85-2.15 10.5 0.15 0.15 3.05-10.85-1.05 0.2 0.05-0.1-5.45-2.7m6.45 2.6 3.3-0.55m-6.35 11.4 8.45 8.5m-10.95 19.65q1.2-3.05 1.7-5.9l-2.05 0.6m-48.25 59.4 5.4-5.45 12.25-12.25 22.25-22.2q6.05-7.55 8.7-14.2m16.75-7.7 0.6-0.6m-0.6 0.6-3.1-1.45-0.45 5 3.55-3.55m-53.05 74.9-1.1-1.15m-0.2-0.25-2.6-2.7-6.15-6.6-2.4-2.3m17 17.95-4.55-4.95m5.2 5.55-0.65-0.6m-44.85-44.05 3.1 2.9m-4.6-4.3 1.5 1.4m6.45 6.1-3.35-3.2m4.8 4.55-1.15-1.1m-0.35 2.55 1.5-1.45 4.95-5m-0.4 14 0.9-3.9-5.45-5.1m-3.2 18.5-1.6-1.6m11.2-16.1-0.95 4.3 4.7 4.4m-5.6-0.5-0.05 1.15m-32.15 34.1 0.7 0.75 12 12m-12.7-12.75-0.95-0.9m-17.1 19.75 3.7 3.7 4.3 4.25 3.65 3.7m-1.8-14.1-3.6-3.65-0.75-0.8m-1.5-1.45 0.05 7.05m7.95-11.3 0.75 0.7 5.05 5.1 2.85 2.8 3.65 3.7m-12.3-12.3-0.7-0.75m-0.9 11.4-0.55-0.5m2.05-1-1.5 1.5 7.45 7.45m-8.8-7.5-3.6 3.6m4.95-3.55-4.95 4.95m44.2-40.55-7.15-7.05m7.15 7.05 7.5 7.5m-22.3-6.9 8.3 8.3 5.9 5.95m-14.2-14.25-1.2-1.2m-1.25 16.7 2.9 2.85 4.4 4.4m-13.2-13.1 5.9 5.85m-5.9-5.85-1.35-1.4m42.9-13.45-2.25-2.4" fill="none" stroke="#666" stroke-linecap="round" stroke-linejoin="round" stroke-opacity=".58824" stroke-width=".05"/>
<path d="m50.1-88.05-1.1 0.4-15.4 15.4m16.5 34.7 51.25-51.25m-51.25 0.75 38.55-13.1m-76.6 50.45 21.55-21.55m-55.1 84.1 15.35-15.35q4.35-3.9 9.1-6.6 4.65-2.7 9.65-4.3m-2.3-34.55-37.2 37.2 5.4 23.6m33.55-62.55-1.75 1.75m4.35 33.95-54.8 55.3m1.65-40.45-9.45 9.4m-12.6 12.65 12.6-12.65m-49.8 84q3.75-2.05 6.15-6.15m53.1-87.25 11.6-11.6m67.5-16.3 9.5-9.5" fill="none" stroke="#fff" stroke-linecap="round" stroke-linejoin="round" stroke-width=".05"/>
<path d="m101.35-88.8-16.7 38.9q-3 7.85-6.25 13.95m-28.3 20.6q5.1 0.6 9.8-1.2m-9.8 1.2-13 13m29.65-12.2-0.1-0.15m-39.5-24.9 0.75 2.05q-1.55 10.7 7.9 9.7m-20.95 47.75 22.25-22.25m-22.25 22.25-28.1 28.1h-0.05m-10.05 10.1 10.05-10.1" fill="none" stroke="#666" stroke-linecap="round" stroke-linejoin="round" stroke-opacity=".36863" stroke-width=".05"/>
<path d="m-3.25 73.95-17.1 1-56.75-56.75 1.7-16.25" fill="none" stroke="#e5e5e5" stroke-linecap="round" stroke-linejoin="round" stroke-opacity=".36863" stroke-width=".05"/>
<path d="m-74.85 79.3q4.45-1.85 7.25-5.85m-16.05 9.3q3.3-1.1 4.8-3.7m-8.45 12.3q3.85-0.4 5.75-4m23.25-26.45q5-2.45 6.15-6.15m-16.9 13.35q5.35-1 7.95-6m-36.65 31.15-9.1 12.15m13.4-7.9-12.25 8.85" fill="none" stroke="#dd95ff" stroke-linecap="round" stroke-linejoin="round" stroke-width=".05"/>
</g>
<g id="a" transform="translate(0,-17.25)">
<use transform="translate(0,17.25)" width="65.800003" height="65.150002" xlink:href="#c"/>
</g>
<g id="c" transform="translate(0,-17.25)">
<path d="m57.75 17.25v46.7l-9.05 2.6q-15.8 4.6-18.05 4.65-10.85-0.05-14.25-2.3-2.25-1.45-2.25-5.45l0.7-2.1q0-0.35-1.6-0.65l-3.55-0.7q-5.2-1.35-5.2-4.55 0-3.35 10-5.45l6.9-1.6q3.1-1.05 3.1-2.65 0-1.25-2.05-3.75-1.6-1.95-1.95-3.1l4.3-1.3q1.15-0.4 1.4-1.8l0.2-2.65q-1.25-5.55 10.05-8.45 7.35-1.9 13.55-2.7 2.45-0.65 5.15-2.95 1.5-1.3 2.6-1.8m-28.65 59.9 1.15-0.55q3.85-1.4 17.3-3.6l10.2-1.9v11.3q-23.05 0.35-28.65-5.25m-13.25-40.25 1.55 0.15q1.1 0.55 1.1 1.5-0.2 0.85-1.4 1.65-2.4 1.6-7.5 1.2h-9.45l-0.15-0.7q0-0.75 4.45-2.15l3.7-0.9 7.7-0.75" fill="#2d160b" fill-opacity=".14902" fill-rule="evenodd"/>
<path d="m53.2 26.15 3.75-0.45 1.65-1.05v35.45q-4.1-1.1-5.15-1.05-3.05-0.05-4.3 1.45-0.35 0.3-1.6 3.15-2.05 4.6-11 4.6-9.1 0-17.2-7.3l-5.3-3.45q-2-1.3-2-3.7 0-0.7 1.85-2.6 1.85-1.95 1.9-3.15-0.05-0.95-4.45-3.9-4.35-3-4.35-4.75-0.05-2.75 7-5l4.9-1.45q2.2-0.75 2.2-1.3l-1-0.95q2.3-1.05 11.95-2.7 8.6-1.45 8.6-1.95-0.5-0.6-0.45-0.85-0.05-0.7 2.1-0.7 3.6 0 6.95 0.85l3.95 0.8m-1.8 40.7q2.55-0.75 7.2-1.05v9.2l-1.75-0.05q-9.8 0-9.8-4 0-2.9 4.35-4.1" fill="#2d160b" fill-opacity=".25098" fill-rule="evenodd"/>
<path d="m13.35 60.1q2.45-3.8 6.85-2.2m18.15-1.75q0.65-1.3 1.85-6.1 0.8-3.3 1.95-3.3 1.55 0 1.6 3.25l-0.05 4.35 5.15-0.2q1 0 4.25-3.6l1.35 3.8q1.65-0.5 4.95-2.45 0.4 0.4 0.4 0.85 0 0.5-1.3 2.5" fill="none" stroke="#8b655a" stroke-linecap="round" stroke-linejoin="round" stroke-opacity=".05098" stroke-width=".8"/>
<path d="m63.65 45.1 0.6-2.7m-4.6 1.5 0.1-3.2m1.95 31.7q1.45-2.75 3.7-0.75m-7.55 1.7q-2.35-4.35-5 0.5" fill="none" stroke="#8b655a" stroke-linecap="round" stroke-linejoin="round" stroke-opacity=".05098" stroke-width=".8"/>
</g>
</defs>
</svg>
