<?xml version="1.0" encoding="UTF-8"?>
<svg width="64px" height="94px" version="1.1" viewBox="312.2 133.9 63.55 94.45" xmlns="http://www.w3.org/2000/svg" xmlns:xlink="http://www.w3.org/1999/xlink">
<defs>
<radialGradient id="al" cx="0" cy="0" r="819.2" gradientTransform="matrix(.054382 0 0 .054382 333.1 227.6)" gradientUnits="userSpaceOnUse">
<stop stop-color="#5f83be" offset=".25098"/>
<stop stop-color="#aec0de" offset="1"/>
</radialGradient>
<radialGradient id="aa" cx="0" cy="0" r="819.2" gradientTransform="matrix(.044983 0 0 .044983 334.35 223.65)" gradientUnits="userSpaceOnUse">
<stop stop-color="#d0e2f6" offset=".69804"/>
<stop stop-color="#aec0de" offset="1"/>
</radialGradient>
<radialGradient id="p" cx="0" cy="0" r="819.2" gradientTransform="matrix(.054382 0 0 .054382 334.05 224.45)" gradientUnits="userSpaceOnUse">
<stop stop-color="#5f83be" offset=".25098"/>
<stop stop-color="#aec0de" offset="1"/>
</radialGradient>
<radialGradient id="f" cx="0" cy="0" r="819.2" gradientTransform="matrix(.0059204 0 0 .0059204 320.85 221.4)" gradientUnits="userSpaceOnUse">
<stop stop-color="#5f83be" offset=".69804"/>
<stop stop-color="#aec0de" offset="1"/>
</radialGradient>
<radialGradient id="e" cx="0" cy="0" r="819.2" gradientTransform="matrix(.006897 0 0 .006897 321.75 224.95)" gradientUnits="userSpaceOnUse">
<stop stop-color="#5f83be" offset=".69804"/>
<stop stop-color="#aec0de" offset="1"/>
</radialGradient>
<radialGradient id="d" cx="0" cy="0" r="819.2" gradientTransform="matrix(.0096283 .0056763 -.0056763 .0096283 367.7 148.8)" gradientUnits="userSpaceOnUse">
<stop stop-color="#a2b7e8" offset="0"/>
<stop stop-color="#a3e2fa" offset=".59608"/>
<stop stop-color="#dbf7fd" offset=".98039"/>
</radialGradient>
<radialGradient id="c" cx="0" cy="0" r="819.2" gradientTransform="matrix(.010406 .006134 -.006134 .010406 358.75 159.65)" gradientUnits="userSpaceOnUse">
<stop stop-color="#a2b7e8" offset="0"/>
<stop stop-color="#a3e2fa" offset=".59608"/>
<stop stop-color="#dbf7fd" offset=".98039"/>
</radialGradient>
<radialGradient id="b" cx="0" cy="0" r="819.2" gradientTransform="matrix(.0056152 .0033112 -.0033112 .0056152 353.35 165.55)" gradientUnits="userSpaceOnUse">
<stop stop-color="#a2b7e8" offset="0"/>
<stop stop-color="#a3e2fa" offset=".59608"/>
<stop stop-color="#dbf7fd" offset=".98039"/>
</radialGradient>
<radialGradient id="a" cx="0" cy="0" r="819.2" gradientTransform="matrix(.022964 .013519 -.013519 .022964 343.45 178.75)" gradientUnits="userSpaceOnUse">
<stop stop-color="#a2b7e8" offset="0"/>
<stop stop-color="#a3e2fa" offset=".59608"/>
<stop stop-color="#dbf7fd" offset=".98039"/>
</radialGradient>
<radialGradient id="ak" cx="0" cy="0" r="819.2" gradientTransform="matrix(.016541 .0097351 -.0097351 .016541 349.2 179)" gradientUnits="userSpaceOnUse">
<stop stop-color="#a2b7e8" offset="0"/>
<stop stop-color="#a3e2fa" offset=".59608"/>
<stop stop-color="#dbf7fd" offset=".98039"/>
</radialGradient>
<radialGradient id="aj" cx="0" cy="0" r="819.2" gradientTransform="matrix(.0063324 .0037231 -.0037231 .0063324 346.1 186.05)" gradientUnits="userSpaceOnUse">
<stop stop-color="#a2b7e8" offset="0"/>
<stop stop-color="#a3e2fa" offset=".59608"/>
<stop stop-color="#dbf7fd" offset=".98039"/>
</radialGradient>
<radialGradient id="ai" cx="0" cy="0" r="819.2" gradientTransform="matrix(.0043335 .0025482 -.0025482 .0043335 340.65 184.55)" gradientUnits="userSpaceOnUse">
<stop stop-color="#a2b7e8" offset="0"/>
<stop stop-color="#a3e2fa" offset=".59608"/>
<stop stop-color="#dbf7fd" offset=".98039"/>
</radialGradient>
<radialGradient id="ah" cx="0" cy="0" r="819.2" gradientTransform="matrix(.0042114 .0024872 -.0024872 .0042114 356.4 166.2)" gradientUnits="userSpaceOnUse">
<stop stop-color="#fff" offset="0"/>
<stop stop-color="#fff" stop-opacity="0" offset="1"/>
</radialGradient>
<radialGradient id="ag" cx="0" cy="0" r="819.2" gradientTransform="matrix(-.0064697 -.0038147 .0038147 -.0064697 348 182.4)" gradientUnits="userSpaceOnUse">
<stop stop-color="#9cb7d6" offset="0"/>
<stop stop-color="#a3e2fa" offset=".4549"/>
</radialGradient>
<radialGradient id="af" cx="0" cy="0" r="819.2" gradientTransform="matrix(-.0058289 -.0034332 .0034332 -.0058289 345.4 183.3)" gradientUnits="userSpaceOnUse">
<stop stop-color="#9cb7d6" offset="0"/>
<stop stop-color="#a3e2fa" offset=".4549"/>
</radialGradient>
<radialGradient id="ae" cx="0" cy="0" r="819.2" gradientTransform="matrix(-.0071259 -.0041962 .0041962 -.0071259 350.5 182.2)" gradientUnits="userSpaceOnUse">
<stop stop-color="#9cb7d6" offset="0"/>
<stop stop-color="#a3e2fa" offset=".4549"/>
</radialGradient>
<radialGradient id="ad" cx="0" cy="0" r="819.2" gradientTransform="matrix(-.0031128 -.0018311 .0018311 -.0031128 354.5 169.8)" gradientUnits="userSpaceOnUse">
<stop stop-color="#9cb7d6" offset="0"/>
<stop stop-color="#a3e2fa" offset=".4549"/>
</radialGradient>
<radialGradient id="ac" cx="0" cy="0" r="819.2" gradientTransform="matrix(.0064697 .0038147 .0038147 -.0064697 344.3 180.4)" gradientUnits="userSpaceOnUse">
<stop stop-color="#9cb7d6" offset="0"/>
<stop stop-color="#a3e2fa" offset=".4549"/>
</radialGradient>
<radialGradient id="ab" cx="0" cy="0" r="819.2" gradientTransform="matrix(.0058289 .0034332 .0034332 -.0058289 344.8 183.1)" gradientUnits="userSpaceOnUse">
<stop stop-color="#9cb7d6" offset="0"/>
<stop stop-color="#a3e2fa" offset=".4549"/>
</radialGradient>
<radialGradient id="z" cx="0" cy="0" r="819.2" gradientTransform="matrix(.0071259 .0041962 .0041962 -.0071259 343.3 178.1)" gradientUnits="userSpaceOnUse">
<stop stop-color="#9cb7d6" offset="0"/>
<stop stop-color="#a3e2fa" offset=".4549"/>
</radialGradient>
<radialGradient id="y" cx="0" cy="0" r="819.2" gradientTransform="matrix(.0031128 .0018311 .0018311 -.0031128 352.2 168.5)" gradientUnits="userSpaceOnUse">
<stop stop-color="#9cb7d6" offset="0"/>
<stop stop-color="#a3e2fa" offset=".4549"/>
</radialGradient>
<radialGradient id="x" cx="0" cy="0" r="819.2" gradientTransform="matrix(-.0064697 -.0038147 .0038147 -.0064697 344.05 189.05)" gradientUnits="userSpaceOnUse">
<stop stop-color="#9cb7d6" offset="0"/>
<stop stop-color="#a3e2fa" offset=".4549"/>
</radialGradient>
<radialGradient id="w" cx="0" cy="0" r="819.2" gradientTransform="matrix(-.0058289 -.0034332 .0034332 -.0058289 341.45 189.95)" gradientUnits="userSpaceOnUse">
<stop stop-color="#9cb7d6" offset="0"/>
<stop stop-color="#a3e2fa" offset=".4549"/>
</radialGradient>
<radialGradient id="v" cx="0" cy="0" r="819.2" gradientTransform="matrix(-.0071259 -.0041962 .0041962 -.0071259 346.55 188.85)" gradientUnits="userSpaceOnUse">
<stop stop-color="#9cb7d6" offset="0"/>
<stop stop-color="#a3e2fa" offset=".4549"/>
</radialGradient>
<radialGradient id="u" cx="0" cy="0" r="819.2" gradientTransform="matrix(-.0031128 -.0018311 .0018311 -.0031128 350.55 176.45)" gradientUnits="userSpaceOnUse">
<stop stop-color="#9cb7d6" offset="0"/>
<stop stop-color="#a3e2fa" offset=".4549"/>
</radialGradient>
<radialGradient id="t" cx="0" cy="0" r="819.2" gradientTransform="matrix(.0064697 .0038147 .0038147 -.0064697 340.35 187.15)" gradientUnits="userSpaceOnUse">
<stop stop-color="#9cb7d6" offset="0"/>
<stop stop-color="#a3e2fa" offset=".4549"/>
</radialGradient>
<radialGradient id="s" cx="0" cy="0" r="819.2" gradientTransform="matrix(.0058289 .0034332 .0034332 -.0058289 340.85 189.85)" gradientUnits="userSpaceOnUse">
<stop stop-color="#9cb7d6" offset="0"/>
<stop stop-color="#a3e2fa" offset=".4549"/>
</radialGradient>
<radialGradient id="r" cx="0" cy="0" r="819.2" gradientTransform="matrix(.0071259 .0041962 .0041962 -.0071259 339.35 184.85)" gradientUnits="userSpaceOnUse">
<stop stop-color="#9cb7d6" offset="0"/>
<stop stop-color="#a3e2fa" offset=".4549"/>
</radialGradient>
<radialGradient id="q" cx="0" cy="0" r="819.2" gradientTransform="matrix(.0031128 .0018311 .0018311 -.0031128 348.25 175.25)" gradientUnits="userSpaceOnUse">
<stop stop-color="#9cb7d6" offset="0"/>
<stop stop-color="#a3e2fa" offset=".4549"/>
</radialGradient>
<g id="ap">
<path d="m330.95 184.05h-1.1l0.55-0.9 0.55 0.9" fill="url(#al)"/>
<path d="m330.95 184.05-0.55-0.9-0.55 0.9" fill="none" stroke="#000" stroke-opacity=".24314" stroke-width=".5"/>
<path d="m321.9 217.45 0.15-0.1q8.15-4.85 15.45-11-1.45-1.05-3.35-0.8h-10.45q2-1.85 4.7-3.15 6.85-3.2 14.3-4.15l-2.3 1.05q-5.05 1.15-8.75 3.75 0.5 0.85 1.65 1.05l2.95 0.6q1.25 0.2 2.3 1.05h3.3l-0.3 0.5q-4.15 4.5-9.55 7.3-4.8 2.5-9.85 4.05l-0.25-0.15 0.25 0.15-1.5 0.45-2.25 2.65-0.55 0.5-0.85 0.75-1.4-1.9-1.1-1.8 0.55-0.8 0.65-0.85 1.55-1.85 3.95 2.3-0.5 0.9 1.2-0.5m3.35 1.95 2.2 1.25-0.15 0.25-2.85 4.35-0.5 0.75-0.55 0.75-2.1-1.05 0.4-0.7 0.05-0.05 2.2 1.05-2.2-1.05 1.9-3.1 1.6-2.45m-10.2-1.95 2.8 3.75-2.8-3.75" fill="#fefefe"/>
<path d="m322.15 217.6q5.05-1.55 9.85-4.05 5.4-2.8 9.55-7.3l0.3-0.5h-3.3q-1.05-0.85-2.3-1.05l-2.95-0.6q-1.15-0.2-1.65-1.05 3.7-2.6 8.75-3.75l2.3-1.05q-7.45 0.95-14.3 4.15-2.7 1.3-4.7 3.15h10.45q1.9-0.25 3.35 0.8-7.3 6.15-15.45 11l-0.15 0.1-0.7-0.4-3.95-2.3-1.85-1.1 15.4-26.7q5.25 10.55 18.65 10.75l-15.4 26.75-6.6-3.8-2.2-1.25-3.1-1.8" fill="url(#aa)"/>
<path d="m327.45 220.65 6.6 3.8 15.4-26.75q-13.4-0.2-18.65-10.75l-15.4 26.7 1.85 1.1-1.55 1.85-0.65 0.85-0.55 0.8-0.75-1.4-0.1-0.2q-0.8-1.65-1.45-3.5l18.6-32.25h1.1q8.4 12.55 23.7 13.1l-19.15 33.15-4.4 0.75q-4.8 0.45-8.65-1.15l0.55-0.75 0.5-0.75 2.85-4.35 0.15-0.25m3.6-38.45-17.85 30.8 1.55 4.1 0.3 0.35-0.3-0.35-1.55-4.1 17.85-30.8m-5.3 44.65-1.8-0.85 1.8 0.85" fill="url(#p)"/>
<path d="m322.15 217.6 3.1 1.8-1.6 2.45-1.9 3.1-1.75-0.85-2.15-2.9 0.55-0.5 2.25-2.65 1.5-0.45" fill="url(#f)"/>
<path d="m321.2 217.05 0.7 0.4-1.2 0.5 0.5-0.9" fill="#aec0de"/>
<path d="m321.3 225.7q-2.35-1.45-4.3-3.75l0.85-0.75 2.15 2.9 1.75 0.85-0.05 0.05-0.4 0.7" fill="url(#e)"/>
<path d="m321.9 217.45 0.25 0.15 3.1 1.8 2.2 1.25 6.6 3.8m-18.65-10.8 1.85 1.1 3.95 2.3 0.7 0.4" fill="none" stroke="#000" stroke-opacity=".24314" stroke-width=".5"/>
<path d="m315.05 217.45-0.3-0.35-1.55-4.1 17.85-30.8m-9.3 42.75-1.75-0.85-2.15-2.9-2.8-3.75m8.9 8.55 1.8 0.85m-1.8-0.85-2.2-1.05" fill="none" stroke="#bbcab9" stroke-width=".5"/>
<path d="m334.05 224.45 15.4-26.75q-13.4-0.2-18.65-10.75l-15.4 26.7m16.5-32.75q8.4 12.55 23.7 13.1l-19.15 33.15-4.4 0.75q-4.8 0.45-8.65-1.15l-2.1-1.05q-2.35-1.45-4.3-3.75l-1.4-1.9-1.1-1.8-0.75-1.4-0.1-0.2q-0.8-1.65-1.45-3.5l18.6-32.25" fill="none" stroke="#000" stroke-opacity=".24314" stroke-width=".5"/>
<path d="m362.5 158.45 2.7-7.4-0.85 0.45-3.5 1.7 4.85-3.7 2.25-0.3-5.45 9.25m-5.05 3.85-4.35 8.25-2.5 4.85-3.1 1.7-6.35 7.9 0.65-2.1 4.3-6.65 3.6-2.15 8.55-14.55 1.55-1.85-2.05 4-0.3 0.6" fill="#82a4cc"/>
<path d="m364.35 151.5 0.85-0.45-2.7 7.4-1.8 5.15-2.65 2.45-4.95 4.5 4.35-8.25 2.3-0.95 0.15-0.3 4.45-9.55m-4.95 6.45 0.4-0.25-1.55 1.85-1.5 1.85-3.1 1.95 3.75-6.35-0.4 2.5 2.4-1.55m-6.9 8.7-4.25 5.2 2.4-6.6 1.85 1.4m-13.65 18.05 1.7 2.4 0.15-0.6 0.45-1.5 1.55 1.25 4.15-7 0.65-2.15 1.45 2.7 3.5-0.75-2.5 2.35-1.4 1.3-3.9 3.8-0.9 0.9-3 2.8 3-2.8 4-0.2-5.7 2.7-1.3 0.3-1.5 1.4 0.65-2.4-1.05-4.5m5.8 1.8 2.2-7.25-2.2 7.25m-4.75 2.7 0.65-2.1-0.65 2.1" fill="#5f83be"/>
<path d="m367.95 149.2-2.25 0.3-4.85 3.7 1.5-1.85 9.05-10.95-3.45 8.8m-0.25-0.4-1.75 0.05-3.6 2.5 3.6-2.5 1.75-0.05" fill="url(#d)"/>
<path d="m360.85 153.2 3.5-1.7-4.45 9.55-0.4 0.15-1.75 0.5 2.05-4-0.4 0.25-2 0.9 0.15-2.1 1.6-2.7 1.65-0.85h0.05m2.75-0.85-4.1 8.85 4.1-8.85" fill="url(#c)"/>
<path d="m359.9 161.05-0.15 0.3-2.3 0.95 0.3-0.6 1.75-0.5 0.4-0.15m0.95-7.85h-0.05 0.05m-3.3 3.55-0.15 2.1 2-0.9-2.4 1.55 0.4-2.5 0.15-0.25m-0.8 4.65 1.5-1.85-8.55 14.55-3.6 2.15-4.3 6.65 0.65-2.05 3.4-4.95 3.65-2 7.25-12.5m-5.8 3.65 1.75 1.35-0.2 0.25-1.85-1.4 0.3-0.2m-3.45 12.05-0.65 2.15-4.15 7-1.55-1.25 6.35-7.9m-1.35 2.35-3.55 6-0.8-0.5 0.8 0.5 3.55-6" fill="#b6e9fb"/>
<path d="m353.65 163.35 3.1-1.95-4.05 5-1.75-1.35 2.7-1.7" fill="url(#b)"/>
<path d="m352.7 166.4 4.05-5-7.25 12.5-3.65 2-3.4 4.95 0.85-2.85 4.95-6.15 4.25-5.2 0.2-0.25" fill="url(#a)"/>
<path d="m353.1 170.55 4.95-4.5-5.6 12.95v0.05l-3.5 0.75-1.45-2.7 3.1-1.7 2.5-4.85m0.3 0.35 3.8-3.6-3.8 3.6m-1.4 7.55-2.8 0.55-1.15-1.65 1.15 1.65 2.8-0.55" fill="url(#ak)"/>
<path d="m344.65 186.5 3.9-3.8 1.4-1.3-2.2 5.8-4 0.2 0.9-0.9m2.55 0.05-2.35 0.35 3.7-4.2-3.7 4.2 2.35-0.35" fill="url(#aj)"/>
<path d="m342.45 180.85-0.65 2.05-0.65 2.1-0.45 1.5-0.15 0.6-1.7-2.4 3.6-3.85m-3.25 3.95 1.5 1.7-1.5-1.7" fill="url(#ai)"/>
<path d="m364.35 151.5 0.85-0.45-2.7 7.4 5.45-9.25m-7.1 4 3.5-1.7m-6.9 10.8-4.35 8.25 4.95-4.5 2.65-2.45 1.8-5.15m-1.65-5.25 1.5-1.85 9.05-10.95-3.45 8.8m-7.15 4h0.05-0.05l-1.65 0.85-1.6 2.7m2.25 0.95-2.05 4-0.3 0.6m-0.05-5.3 0.15-0.25m-3.9 6.6 3.1-1.95 1.5-1.85 1.55-1.85m-2.4-0.7-3.75 6.35-2.7 1.7m1.75 1.35 4.05-5m-14.3 19.45-0.65 2.05m6.45-11.05 4.25-5.2 0.2-0.25m-2.05-1.15-2.4 6.6-4.95 6.15-0.85 2.85-3.6 3.85m1.7 2.4 0.15-0.6 0.45-1.5 0.65-2.1m8.85-17.65 0.3-0.2m-3.45 12.05 3.1-1.7 2.5-4.85m-0.65 8.5v-0.05l5.6-12.95m-10.55 11.05-0.65 2.15-2.2 7.25 3.9-3.8 1.4-1.3 2.5-2.35m-8.7 8.35 0.9-0.9m-3.5-1.5 6.35-7.9m0.25 10.1-5.7 2.7-1.3 0.3-1.5 1.4 0.65-2.4-1.05-4.5m1.9 5.5 3-2.8m4-0.2 2.2-5.8m-9.4 5.7-0.65 2.1" fill="none" stroke="#000" stroke-opacity=".25098" stroke-width=".5"/>
<path d="m362.35 151.35 3.6-2.5 1.75-0.05m-10.15 7.95-0.15 2.1 2-0.9m-1.65 3.75 1.75-0.5 4.1-8.85m-3.7 8.7-0.4 0.15m-8.55 3.85 1.75 1.35m4.05-5-7.25 12.5-3.65 2-3.4 4.95m-1.75 5.65-1.5-1.7m8.85-7.45 1.15 1.65 2.8-0.55m5.2-11.15-3.8 3.6m-11.6 14.05 0.8 0.5 3.55-6m2.4 3.25-3.7 4.2 2.35-0.35" fill="none" stroke="#fff" stroke-width=".5"/>
<path d="m359.85 168.2q-0.85 1.4-2.45 1.8t-3.05-0.4q-1.4-0.85-1.8-2.45t0.45-3q0.8-1.45 2.4-1.85t3 0.45q1.45 0.8 1.85 2.4t-0.4 3.05" fill="url(#ah)"/>
<path d="m345.35 182.8 1.6-2.7 0.75 2.95 0.8 2.95-3.15-3.2" fill="#7096c5"/>
<path d="m347.7 183.05-0.75-2.95 2.2-3.75 2.5 5.05-1.95 0.8-2 0.85m1.4-6.1 2.15 4.3-2.15-4.3" fill="url(#ag)"/>
<path d="m345.4 183.3 2.55 2.6-2.55-2.6m-0.05-0.5 3.15 3.2-6.15 1.95 3-5.15" fill="url(#af)"/>
<path d="m357.1 181-6.15 2.8-1.25-1.6 1.95-0.8 0.8-3.5 4.65 3.1m-4.45-2.65 3.75 2.5-3.75-2.5" fill="url(#ae)"/>
<path d="m354.95 172.6 2.15 8.4-4.65-3.1 1.75-8.2 0.75 2.9" fill="#5f83be"/>
<path d="m357.2 171-2.25 1.6-0.75-2.9 0.3-1.5 2.7 2.8m-2.6-2.4 2.2 2.3-2.2-2.3" fill="url(#ad)"/>
<path d="m349.15 176.35 5.7-9.7-0.35 1.55-0.3 1.5-1.75 8.2-0.8 3.5-2.5-5.05" fill="#82a4cc"/>
<path d="m354.85 166.65 1.15-1.9 0.55 0.65 0.65 5.6-2.7-2.8 0.35-1.55" fill="#608abd"/>
<path d="m346.95 180.1-1.6 2.7m3.15 3.2-0.8-2.95-0.75-2.95 2.2-3.75 5.7-9.7 1.15-1.9 0.55 0.65 0.65 5.6-2.25 1.6 2.15 8.4-6.15 2.8-1.25-1.6-2 0.85m0.8 2.95-6.15 1.95 3-5.15m9.6-10.2-0.75-2.9-1.75 8.2-0.8 3.5-1.95 0.8m4.8-14 0.35-1.55m-0.35 1.55-0.3 1.5" fill="none" stroke="#000" stroke-opacity=".26275" stroke-width=".5"/>
<path d="m347.95 185.9-2.55-2.6m5.85-2.05-2.15-4.3m7.3 3.9-3.75-2.5m4.15-7.45-2.2-2.3" fill="none" stroke="#fff" stroke-width=".5"/>
<path d="m346.85 180.2-2.95 0.75-2.9 0.75 4.25 1.2 1.6-2.7" fill="#7096c5"/>
<path d="m343.7 178.8 0.2 2.15 2.95-0.75 2.2-3.75-5.6 0.25 0.25 2.1m4.9-2.05-4.85 0.2 4.85-0.2" fill="url(#ac)"/>
<path d="m341 181.7 1.25 6.35 3-5.15-4.25-1.2m3.8 1.4-3.45-1 3.45 1" fill="url(#ab)"/>
<path d="m343.7 178.8-0.25-2.1 2.7-2.4-5.05-2.6 0.55 6.8 2.05 0.3m1.95-4.45-4.05-2.1 4.05 2.1" fill="url(#z)"/>
<path d="m341.1 171.7 5.05 2.6 6.25-5.5-2.85 0.7-8.45 2.2" fill="#5f83be"/>
<path d="m349.55 169.5 2.85-0.7 1.2-1-3.8-1-0.25 2.7m3.65-1.6-3.1-0.8 3.1 0.8" fill="url(#y)"/>
<path d="m343.45 176.7 5.6-0.25 5.7-9.7-1.15 1.05-1.2 1-6.25 5.5-2.7 2.4" fill="#82a4cc"/>
<path d="m353.6 167.8 1.15-1.05 1.15-1.9-0.85-0.25-5.25 2.2 3.8 1" fill="#608abd"/>
<path d="m343.9 180.95-0.2-2.15-0.25-2.1m5.6-0.25-2.2 3.75-2.95 0.75-2.9 0.75 1.25 6.35 3-5.15 1.6-2.7m-3.15-1.4-2.05-0.3-0.55-6.8m5.05 2.6-2.7 2.4m6.1-7.2 2.85-0.7-6.25 5.5m7.45-6.5 1.15-1.05-5.7 9.7m5.7-9.7 1.15-1.9-0.85-0.25-5.25 2.2-0.25 2.7-8.45 2.2m12.5-3.9-1.2 1" fill="none" stroke="#000" stroke-opacity=".26275" stroke-width=".5"/>
<path d="m341.35 182.1 3.45 1m5.3-16 3.1 0.8m-11.6 4.35 4.05 2.1m-1.9 2.6 4.85-0.2" fill="none" stroke="#fff" stroke-width=".5"/>
<path d="m343 186.75 0.75 2.95 0.8 2.95-3.15-3.2 1.6-2.7" fill="#7096c5"/>
<path d="m345.75 188.85-2 0.85-0.75-2.95 2.2-3.75 2.5 5.05-1.95 0.8m-0.6-5.25 2.15 4.3-2.15-4.3" fill="url(#x)"/>
<path d="m344.55 192.65-6.15 1.95 3-5.15 3.15 3.2m-3.1-2.7 2.55 2.6-2.55-2.6" fill="url(#w)"/>
<path d="m345.75 188.85 1.95-0.8 0.8-3.5 4.65 3.1-6.15 2.8-1.25-1.6m2.95-3.85 3.75 2.5-3.75-2.5" fill="url(#v)"/>
<path d="m353.15 187.65-4.65-3.1 1.75-8.2 0.75 2.9 2.15 8.4" fill="#5f83be"/>
<path d="m351 179.25-0.75-2.9 0.3-1.5 2.7 2.8-2.25 1.6m-0.35-4 2.2 2.3-2.2-2.3" fill="url(#u)"/>
<path d="m347.7 188.05-2.5-5.05 5.7-9.7-0.35 1.55-0.3 1.5-1.75 8.2-0.8 3.5" fill="#82a4cc"/>
<path d="m350.55 174.85 0.35-1.55 1.15-1.9 0.55 0.65 0.65 5.6-2.7-2.8" fill="#608abd"/>
<path d="m343.75 189.7 2-0.85 1.95-0.8m-2.5-5.05-2.2 3.75 0.75 2.95 0.8 2.95-6.15 1.95 3-5.15 1.6-2.7m2.75 2.1 1.25 1.6 6.15-2.8m-4.65-3.1-0.8 3.5m3.3-8.8-0.75-2.9-1.75 8.2m2.05-9.7 0.35-1.55-5.7 9.7m5.7-9.7 1.15-1.9 0.55 0.65 0.65 5.6-2.25 1.6 2.15 8.4m-2.6-12.8-0.3 1.5" fill="none" stroke="#000" stroke-opacity=".26275" stroke-width=".5"/>
<path d="m344 192.55-2.55-2.6m11.4-12.4-2.2-2.3m1.8 12.25-3.75-2.5m-1.4 2.9-2.15-4.3" fill="none" stroke="#fff" stroke-width=".5"/>
<path d="m341.3 189.65 1.6-2.7-2.95 0.75-2.9 0.75 4.25 1.2" fill="#7096c5"/>
<path d="m339.95 187.7 2.95-0.75 2.2-3.75-5.6 0.25 0.25 2.1 0.2 2.15m4.7-4.2-4.85 0.2 4.85-0.2" fill="url(#t)"/>
<path d="m340.85 189.85-3.45-1 3.45 1m0.45-0.2-4.25-1.2 1.25 6.35 3-5.15" fill="url(#s)"/>
<path d="m337.15 178.45 0.55 6.8 2.05 0.3-0.25-2.1 2.7-2.4-5.05-2.6m4.55 2.65-4.05-2.1 4.05 2.1" fill="url(#r)"/>
<path d="m345.6 176.25-8.45 2.2 5.05 2.6 6.25-5.5-2.85 0.7" fill="#5f83be"/>
<path d="m345.85 173.55-0.25 2.7 2.85-0.7 1.2-1-3.8-1m3.4 1.1-3.1-0.8 3.1 0.8" fill="url(#q)"/>
<path d="m345.1 183.2 5.7-9.7-1.15 1.05-1.2 1-6.25 5.5-2.7 2.4 5.6-0.25" fill="#82a4cc"/>
<path d="m350.8 173.5 1.15-1.9-0.85-0.25-5.25 2.2 3.8 1 1.15-1.05" fill="#608abd"/>
<path d="m342.9 186.95-1.6 2.7m-4.25-1.2 2.9-0.75 2.95-0.75 2.2-3.75 5.7-9.7 1.15-1.9-0.85-0.25-5.25 2.2-0.25 2.7-8.45 2.2 0.55 6.8 2.05 0.3 0.2 2.15m-2.9 0.75 1.25 6.35 3-5.15m4.3-13.4 2.85-0.7-6.25 5.5-2.7 2.4 0.25 2.1m9.9-11 1.15-1.05m-1.15 1.05-1.2 1" fill="none" stroke="#000" stroke-opacity=".26275" stroke-width=".5"/>
<path d="m337.4 188.85 3.45 1m-1.05-6.15 4.85-0.2m-7-4.5 4.05 2.1m4.45-7.25 3.1 0.8" fill="none" stroke="#fff" stroke-width=".5"/>
</g>
<radialGradient id="o" cx="0" cy="0" r="819.2" gradientTransform="matrix(.009903 0 0 .009903 -2.1 3.3)" gradientUnits="userSpaceOnUse">
<stop stop-color="#159971" offset="0"/>
<stop stop-color="#93fe92" offset=".60392"/>
<stop stop-color="#f2fff2" offset=".98824"/>
</radialGradient>
<g id="ao">
<path d="m-5.2 0q0-2.15 1.55-3.65 1.5-1.55 3.65-1.55t3.65 1.55q1.55 1.5 1.55 3.65 0 2.1-1.55 3.65-1.5 1.55-3.65 1.55t-3.65-1.55q-1.55-1.55-1.55-3.65" fill="#003c00"/>
<path d="m-2.45 3.3-0.45-0.4-0.6-0.7-0.3-0.55-0.3-1.65q0-1.25 0.6-2.2l0.6-0.7q1.1-1.1 2.75-1.2h0.1 0.05l0.7 0.1 1 0.3q0.6 1.05 0.5 1.9l-0.05 1-0.1 0.8-0.5 1.35q-0.35 0.7-1.5 1.3-1.1 0.6-2.5 0.65m1.9-6.4q-0.3 0.05-0.8 0.7l-0.05 0.2 0.25 0.45q1.2 0.4 1.55-0.8l-0.1-0.5-0.85-0.05m-1.85 2.75 0.2-0.35-0.45 0.55 0.25-0.2-0.05 0.05q-0.3 0.7 0.05 1.6 0.45 1.35 1.9 0.95 0.9-0.3 0.9-1.1l-0.5 0.05-0.65 0.2-0.35-0.25q-0.25-0.75 0.35-1.3l0.1-0.1q-0.6-0.75-1.5-0.25l-0.2 0.1-0.05 0.05" fill="url(#o)"/>
<path d="m1.7-3.7 0.35 0.15 0.8 0.65q0.75 0.75 1 1.7l0.2 1.2-0.35 1.65-0.45 0.8-0.25 0.25-0.15 0.2-0.6 0.45-0.15 0.15-0.85 0.35-0.15 0.05-0.4 0.1-0.7 0.1h-0.05q-1.35-0.05-2.4-0.8 1.4-0.05 2.5-0.65 1.15-0.6 1.5-1.3l0.5-1.35 0.1-0.8 0.05-1q0.1-0.85-0.5-1.9" fill="#159971"/>
<path d="m-0.55-3.1 0.85 0.05 0.1 0.5q-0.35 1.2-1.55 0.8l-0.25-0.45 0.05-0.2q0.5-0.65 0.8-0.7m-1.85 2.75 0.05-0.05 0.2-0.1q0.9-0.5 1.5 0.25l-0.1 0.1q-0.6 0.55-0.35 1.3l0.35 0.25 0.65-0.2 0.5-0.05q0 0.8-0.9 1.1-1.45 0.4-1.9-0.95-0.35-0.9-0.05-1.6l0.05-0.05" fill="#fff"/>
<path d="m-2.4-0.35-0.25 0.2 0.45-0.55-0.2 0.35" fill="#7ceb8c"/>
<path d="m-2.45 3.3-0.45-0.4-0.6-0.7-0.3-0.55-0.3-1.65q0-1.25 0.6-2.2l0.6-0.7q1.1-1.1 2.75-1.2h0.1 0.05l0.7 0.1 1 0.3 0.35 0.15 0.8 0.65q0.75 0.75 1 1.7l0.2 1.2-0.35 1.65-0.45 0.8-0.25 0.25-0.15 0.2-0.6 0.45-0.15 0.15-0.85 0.35-0.15 0.05-0.4 0.1-0.7 0.1h-0.05q-1.35-0.05-2.4-0.8" fill="none" stroke="#000" stroke-opacity=".24314" stroke-width=".5"/>
</g>
<radialGradient id="n" cx="0" cy="0" r="819.2" gradientTransform="matrix(-.0064697 -.0038147 .0038147 -.0064697 366.55 151.65)" gradientUnits="userSpaceOnUse">
<stop stop-color="#9cb7d6" offset="0"/>
<stop stop-color="#a3e2fa" offset=".4549"/>
</radialGradient>
<radialGradient id="m" cx="0" cy="0" r="819.2" gradientTransform="matrix(-.0058289 -.0034332 .0034332 -.0058289 363.95 152.55)" gradientUnits="userSpaceOnUse">
<stop stop-color="#9cb7d6" offset="0"/>
<stop stop-color="#a3e2fa" offset=".4549"/>
</radialGradient>
<radialGradient id="l" cx="0" cy="0" r="819.2" gradientTransform="matrix(-.0071259 -.0041962 .0041962 -.0071259 369.05 151.45)" gradientUnits="userSpaceOnUse">
<stop stop-color="#9cb7d6" offset="0"/>
<stop stop-color="#a3e2fa" offset=".4549"/>
</radialGradient>
<radialGradient id="k" cx="0" cy="0" r="819.2" gradientTransform="matrix(-.0031128 -.0018311 .0018311 -.0031128 373.05 139.05)" gradientUnits="userSpaceOnUse">
<stop stop-color="#9cb7d6" offset="0"/>
<stop stop-color="#a3e2fa" offset=".4549"/>
</radialGradient>
<radialGradient id="j" cx="0" cy="0" r="819.2" gradientTransform="matrix(.0064697 .0038147 .0038147 -.0064697 362.9 149.7)" gradientUnits="userSpaceOnUse">
<stop stop-color="#9cb7d6" offset="0"/>
<stop stop-color="#a3e2fa" offset=".4549"/>
</radialGradient>
<radialGradient id="i" cx="0" cy="0" r="819.2" gradientTransform="matrix(.0058289 .0034332 .0034332 -.0058289 363.4 152.4)" gradientUnits="userSpaceOnUse">
<stop stop-color="#9cb7d6" offset="0"/>
<stop stop-color="#a3e2fa" offset=".4549"/>
</radialGradient>
<radialGradient id="h" cx="0" cy="0" r="819.2" gradientTransform="matrix(.0071259 .0041962 .0041962 -.0071259 361.9 147.4)" gradientUnits="userSpaceOnUse">
<stop stop-color="#9cb7d6" offset="0"/>
<stop stop-color="#a3e2fa" offset=".4549"/>
</radialGradient>
<radialGradient id="g" cx="0" cy="0" r="819.2" gradientTransform="matrix(.0031128 .0018311 .0018311 -.0031128 370.8 137.8)" gradientUnits="userSpaceOnUse">
<stop stop-color="#9cb7d6" offset="0"/>
<stop stop-color="#a3e2fa" offset=".4549"/>
</radialGradient>
<g id="an">
<path d="m351.35 174.3-0.9-0.1-0.6-0.75q-0.1-0.5 0.15-0.95t0.75-0.55l0.95 0.15 0.55 0.7-0.2 0.95q-0.25 0.45-0.7 0.55" fill="#fff"/>
<path d="m363.9 152.05 1.6-2.7 0.75 2.95 0.8 2.95-3.15-3.2" fill="#7096c5"/>
<path d="m366.25 152.3-0.75-2.95 2.2-3.75 2.5 5.05-1.95 0.8-2 0.85m1.4-6.1 2.15 4.3-2.15-4.3" fill="url(#n)"/>
<path d="m363.95 152.55 2.55 2.6-2.55-2.6m-0.05-0.5 3.15 3.2-6.15 1.95 3-5.15" fill="url(#m)"/>
<path d="m375.65 150.25-6.15 2.8-1.25-1.6 1.95-0.8 0.8-3.5 4.65 3.1m-4.45-2.65 3.75 2.5-3.75-2.5" fill="url(#l)"/>
<path d="m373.5 141.85 2.15 8.4-4.65-3.1 1.75-8.2 0.75 2.9" fill="#5f83be"/>
<path d="m375.75 140.25-2.25 1.6-0.75-2.9 0.3-1.5 2.7 2.8m-2.6-2.4 2.2 2.3-2.2-2.3" fill="url(#k)"/>
<path d="m367.7 145.6 5.7-9.7-0.35 1.55-0.3 1.5-1.75 8.2-0.8 3.5-2.5-5.05" fill="#82a4cc"/>
<path d="m373.4 135.9 1.15-1.9 0.55 0.65 0.65 5.6-2.7-2.8 0.35-1.55" fill="#608abd"/>
<path d="m365.5 149.35-1.6 2.7m3.15 3.2-0.8-2.95-0.75-2.95 2.2-3.75 5.7-9.7 1.15-1.9 0.55 0.65 0.65 5.6-2.25 1.6 2.15 8.4-6.15 2.8-1.25-1.6-2 0.85m0.8 2.95-6.15 1.95 3-5.15m9.6-10.2-0.75-2.9-1.75 8.2-0.8 3.5-1.95 0.8m4.8-14 0.35-1.55m-0.35 1.55-0.3 1.5" fill="none" stroke="#000" stroke-opacity=".26275" stroke-width=".5"/>
<path d="m366.5 155.15-2.55-2.6m5.85-2.05-2.15-4.3m7.3 3.9-3.75-2.5m4.15-7.45-2.2-2.3" fill="none" stroke="#fff" stroke-width=".5"/>
<path d="m365.45 149.5-2.95 0.75-2.9 0.75 4.25 1.2 1.6-2.7" fill="#7096c5"/>
<path d="m362.3 148.1 0.2 2.15 2.95-0.75 2.2-3.75-5.6 0.25 0.25 2.1m4.9-2.05-4.85 0.2 4.85-0.2" fill="url(#j)"/>
<path d="m359.6 151 1.25 6.35 3-5.15-4.25-1.2m3.8 1.4-3.45-1 3.45 1" fill="url(#i)"/>
<path d="m362.3 148.1-0.25-2.1 2.7-2.4-5.05-2.6 0.55 6.8 2.05 0.3m1.95-4.45-4.05-2.1 4.05 2.1" fill="url(#h)"/>
<path d="m359.7 141 5.05 2.6 6.25-5.5-2.85 0.7-8.45 2.2" fill="#5f83be"/>
<path d="m368.15 138.8 2.85-0.7 1.2-1-3.8-1-0.25 2.7m3.65-1.6-3.1-0.8 3.1 0.8" fill="url(#g)"/>
<path d="m362.05 146 5.6-0.25 5.7-9.7-1.15 1.05-1.2 1-6.25 5.5-2.7 2.4" fill="#82a4cc"/>
<path d="m372.2 137.1 1.15-1.05 1.15-1.9-0.85-0.25-5.25 2.2 3.8 1" fill="#608abd"/>
<path d="m362.5 150.25-0.2-2.15-0.25-2.1m5.6-0.25-2.2 3.75-2.95 0.75-2.9 0.75 1.25 6.35 3-5.15 1.6-2.7m-3.15-1.4-2.05-0.3-0.55-6.8m5.05 2.6-2.7 2.4m6.1-7.2 2.85-0.7-6.25 5.5m7.45-6.5 1.15-1.05-5.7 9.7m5.7-9.7 1.15-1.9-0.85-0.25-5.25 2.2-0.25 2.7-8.45 2.2m12.5-3.9-1.2 1" fill="none" stroke="#000" stroke-opacity=".26275" stroke-width=".5"/>
<path d="m359.95 151.4 3.45 1m5.3-16 3.1 0.8m-11.6 4.35 4.05 2.1m-1.9 2.6 4.85-0.2" fill="none" stroke="#fff" stroke-width=".5"/>
</g>
<filter id="am">
<feColorMatrix in="SourceGraphic" result="cxform" values="0.359375 0.0 0.0 0.0 0.0 0.0 0.359375 0.0 0.0 0.63671875 0.0 0.0 0.359375 0.0 0.63671875 0.0 0.0 0.0 1.0 0.0"/>
<feComposite in2="SourceGraphic" operator="in" result="color-xform"/>
</filter>
</defs>
<use xlink:href="#ap"/>
<use transform="matrix(-.56561 -.33289 .33289 -.56561 351.5 172.35)" filter="url(#am)" xlink:href="#ao"/>
<use xlink:href="#an"/>
</svg>
