<?xml version="1.0" encoding="UTF-8"?>
<svg version="1.1" viewBox="0 0 20.163 23.484" xmlns="http://www.w3.org/2000/svg" xmlns:cc="http://creativecommons.org/ns#" xmlns:dc="http://purl.org/dc/elements/1.1/" xmlns:rdf="http://www.w3.org/1999/02/22-rdf-syntax-ns#" xmlns:xlink="http://www.w3.org/1999/xlink">
<metadata>
<rdf:RDF>
<cc:Work rdf:about="">
<dc:format>image/svg+xml</dc:format>
<dc:type rdf:resource="http://purl.org/dc/dcmitype/StillImage"/>
</cc:Work>
</rdf:RDF>
</metadata>
<g transform="translate(-266.47 -187.85)">
<use transform="matrix(-.7071 .7071 .7071 .7071 277.52 184.29)" width="25.75" height="18.5" xlink:href="#b"/>
<use transform="matrix(.4651 -.3047 .2874 .4386 266.64 208.62)" width="8.1000004" height="8.1000004" xlink:href="#a"/>
<use transform="matrix(.7746 -.5075 .4786 .7305 271.81 203.89)" width="8.1000004" height="8.1000004" xlink:href="#a"/>
</g>
<defs>
<g id="b" transform="translate(-.05 9.25)">
<path d="m25.5 2.15-0.15-0.35-0.35-0.15-0.35 0.15-0.15 0.35 0.15 0.35 0.35 0.15 0.35-0.15 0.15-0.35m-3.15-1.85q0.6-0.55 1.45-0.55t1.4 0.55q0.6 0.6 0.6 1.45t-0.6 1.4q-0.55 0.6-1.4 0.6t-1.45-0.6q-0.55-0.55-0.55-1.4t0.55-1.45" fill="#163d12" fill-rule="evenodd"/>
<path d="M 25.5,2.15 25.35,2.5 25,2.65 24.65,2.5 24.5,2.15 24.65,1.8 25,1.65 25.35,1.8 25.5,2.15" fill="#225c1d" fill-rule="evenodd"/>
<path d="m22.35 0.3q0.6-0.55 1.45-0.55t1.4 0.55q0.6 0.6 0.6 1.45t-0.6 1.4q-0.55 0.6-1.4 0.6t-1.45-0.6q-0.55-0.55-0.55-1.4t0.55-1.45z" fill="none" stroke="#393939" stroke-linecap="round" stroke-linejoin="round" stroke-opacity=".73333" stroke-width=".05"/>
<path d="m5.6-8.7 1.95-0.45 0.15-0.05h0.35l-1.15 0.3-1.75 0.75 0.45-0.55-0.45 0.55q-1.55 0.85-3 2.5l-0.45 0.55 0.2-0.8-0.2 0.8q-0.9 1.25-1.2 2.75l-0.2-0.35q0.45-1.75 1.55-3.15l0.05-0.05q1.5-2 3.7-2.8m9.45 16.4-0.3 1.15-0.05 0.05h-0.1q-0.25-1.1-3.95-0.55h-0.2q-3.2 0.45-6-1l-0.7-0.4q-2.15-1.3-3.05-3.45-0.5-1.15-0.6-2.5l-0.05-0.8q-0.1-1.55 0.25-2.9l0.2 0.35q-0.3 1.3-0.1 2.85l0.05 0.1q0.2 1.55 0.8 2.8l-0.55 0.1 0.55-0.1q0.85 1.75 2.45 2.95l1.2 0.75q2.35 1.15 5.4 0.8l0.65-0.1-0.5 0.55 0.5-0.55 3.8-0.15 0.3 0.05m-0.35 1.2 0.05-1.25-0.05 1.25m-10.25-1.55 0.45-0.25-0.45 0.25m-4.05-6.85-0.35-0.3 0.35 0.3" fill="#e1caae" fill-rule="evenodd"/>
<path d="m6.9-8.9 1.15-0.3h0.05l-1 0.4q-0.9 0.3-2.1 2.05t-0.85 4.85q0.3 3.05 2.45 4.3l2.1 0.95-5 0.05-0.1-0.1 0.1 0.1 5-0.05 1.65 0.3 2.35-0.35 0.5-0.2q0.8-0.45 1.55-0.8l0.25 0.85v0.05l-0.1 0.1h-2.2 2.2l0.1-0.1v-0.05l-0.25-0.85 0.7-0.3 0.3-0.15 0.2 2.2h-0.05l0.05 0.4v0.05l-0.05 0.2-0.3 1.05-0.75 0.15 0.15-2.7-0.15 2.7-2.35 0.15h-1.6l-2.6-0.25q-3.05-0.55-4.6-2.4l-0.1-0.1q-0.7-0.85-1.1-1.95-1.5-4 0.3-6.7l0.65-0.8 0.35-0.35-1 1.15 1-1.15q1.7-1.8 3.1-2.4m8.05 12.15-2.45 2.8 2.45-2.8m-0.3 6v-0.15 0.15m-6.35-3.45 6.6-2.5-6.6 2.5" fill="#eadbc4" fill-rule="evenodd"/>
<path d="m8.1-9.2 0.7-0.05h-0.1q-1.85 0.6-3.05 2.2-1.6 2.1-1.2 4.7 0.3 2.55 2.4 4.15t4.7 1.25l2.25-0.75 1.9-0.95 0.05 0.5-0.3 0.15-0.7 0.3q-0.75 0.35-1.55 0.8l-0.5 0.2-4 0.05 4-0.05-2.35 0.35-1.65-0.3-2.1-0.95q-2.15-1.25-2.45-4.3-0.35-3.1 0.85-4.85t2.1-2.05l1-0.4m6.5 11.1 0.15 0.4-0.15-0.4" fill="#f2e8db" fill-rule="evenodd"/>
<path d="m5.15-8.15 1.75-0.75q-1.4 0.6-3.1 2.4l-0.35 0.35-0.65 0.8-1.4 1.7 0.3-1.45-0.3 1.45 1.4-1.7q-1.8 2.7-0.3 6.7 0.4 1.1 1.1 1.95l0.1 0.1h-2.45q-0.6-1.25-0.8-2.8l-0.05-0.1q-0.2-1.55 0.1-2.85 0.3-1.5 1.2-2.75l0.45-0.55q1.45-1.65 3-2.5l-1.35 1.65 1.35-1.65m10.45 13.9-0.5 1.65h0.05l-0.1 0.3-0.3-0.05 0.1-1.75-0.1 1.75-3.8 0.15-0.65 0.1q-3.05 0.35-5.4-0.8l-1.2-0.75q-1.6-1.2-2.45-2.95h2.45q1.55 1.85 4.6 2.4l2.6 0.25h1.6l2.35-0.15 0.75-0.15m-14.2-9.4-0.55 2.55-0.35-1.25 0.35 1.25 0.55-2.55m11.1 9.7-1.55 1.75 1.55-1.75m-11.65-7.15 0.8 2.7-1.25-1.1 1.25 1.1-0.8-2.7m0.8 2.7 1.95 1.7-1.95-1.7m6.65 4.2-3.4 1.3 3.4-1.3" fill="#e7d2bc" fill-rule="evenodd"/>
<path d="m15.55-3.1 0.1-0.15-0.05 0.2-0.05-0.05m8.7 6.95h0.05v0.05l-0.05-0.05m-5.9 2.95 0.05-0.1v0.1h-0.05" fill="#a97e01" fill-rule="evenodd"/>
<path d="m17.55-2.3-0.4-0.35-0.05-0.1 0.45 0.4v0.05m1.65 8.75h-0.05 0.05" fill="#c69504" fill-rule="evenodd"/>
<path d="m15.65 0.75-0.1-1.3 0.1 1.3m-0.2-2.55 0.1-1.3v0.05h0.05q-0.15 0.45-0.15 1.25m2.75 0.8q-0.45 0.05-0.45-0.6 0 0.6 0.45 0.6m-1.2 8.4q0.1 0.35 0.45 0.15l0.9-0.8v0.05l-0.85 0.8h-0.05q-0.35 0.15-0.45-0.2m1.4-1.7q0.05-0.45 0.7-0.3l0.3 0.45-0.3-0.4q-0.65-0.2-0.7 0.25m-1.15 2.65q-0.8 0.1-1.1-1.75l-0.1-1.05 0.1 1.05q0.3 1.8 1.1 1.75m0.3-10.65v-0.05 0.05m-1.9-0.8-0.05 0.05 0.05-0.05m7.2 3.9h0.05l-0.05 0.05v-0.05m-6.9 3.65-0.05-0.4h0.05v0.4" fill="#598a93" fill-rule="evenodd"/>
<path d="m15.6-3.05h-0.05v-0.05l0.05 0.05" fill="#3f6167" fill-rule="evenodd"/>
<path d="m15.7 1.35-0.05-0.6-0.1-1.3-0.1-1.25q0-0.8 0.15-1.25l0.05-0.05-0.1 1.15 0.7 8.4q0.4 3.15 2.35 0.8-0.8 1.05-1.35 1.1-0.8 0.05-1.1-1.75l-0.2-2.1v-0.45l-0.2-2.2-0.05-0.5m2.85-2.45-0.35 0.1q-0.45 0-0.45-0.6h0.1q0.1 0.6 0.7 0.4v0.1" fill="#fee6a0" fill-rule="evenodd"/>
<path d="m22.85 0.85v-0.05 0.05" fill="#a1664c" fill-rule="evenodd"/>
<path d="m19.2 6.45-0.6 0.8 0.25-0.3 0.15-0.2 0.15-0.3h0.05" fill="#e9f2f3" fill-rule="evenodd"/>
<path d="m17.85-1.6h0.2l-0.5-0.7v-0.05l0.7 0.7 0.3 0.45q-0.6 0.2-0.7-0.4m-0.7-1.05-0.55-0.3q-0.45-0.15-0.45 0.45-0.35 0.05-0.15 0.95l0.7 8.7q0 1.15 0.55 0.85l1.15-1.2v-0.1l-0.05 0.1v-0.05l0.35-0.75-0.3 0.05-0.05-0.2h0.5q0.35 0.2 0.3 0.6l-0.15 0.3-0.15 0.2-0.25 0.3q-1.95 2.35-2.35-0.8l-0.7-8.4 0.1-1.15q0.45-0.4 1.45 0.35l0.05 0.1m6.85 6.95q-0.55 0.6-0.9-0.4v-0.3l-0.25-2.75 0.05-0.05 0.75 0.05v0.05h0.05v0.05l0.3 3.35m-6.4-0.95 0.05 0.55-0.2 0.6-0.4-0.4-0.25-2.85 0.25-0.35h0.05l0.5 2.45m1.6 3.1h-0.05 0.05" fill="#f2ab06" fill-rule="evenodd"/>
<path d="m15.65-3.25 0.1-0.15q0.65-0.95 2.7 1.3l0.3 0.55-0.2 0.45v-0.1l-0.3-0.45-0.7-0.7-0.45-0.4q-1-0.75-1.45-0.35l-0.05 0.05 0.05-0.2m0.5 0.75 0.05 0.5 0.25 2.65q0.55-1.05 0.9-0.05l0.25 2.75-0.5-2.45h-0.05l-0.25 0.35 0.25 2.85 0.4 0.4-0.7-0.45 0.25 3.35q0.1 0.35 0.45 0.2h0.05l0.85-0.8h0.05l-1.15 1.2q-0.55 0.3-0.55-0.85l-0.7-8.7q-0.2-0.9 0.15-0.95m6.65 2.45-0.05-0.2q0.2-1.35 1.1-0.3l0.05 0.05v0.05l0.35 4.3 0.05 0.05-0.3 0.4-0.3-3.35v-0.05h-0.05v-0.05l-0.75-0.05h-0.05l-0.05-0.85m-4.45 5.9 0.05-0.15q0.05-0.45 0.7-0.25l0.3 0.4-0.2 0.6h-0.05q0.05-0.4-0.3-0.6h-0.5m-1.9-5.2 0.3 3.4-0.3-3.4" fill="#996b04" fill-rule="evenodd"/>
<path d="m23.1 3.6q-2.35-1.35-5.3-0.35 0-1.1 0.75-1.05l0.05-0.05q2.2 0.15 4.25-1.35v0.05l0.25 2.75" fill="#225c1d" fill-rule="evenodd"/>
<path d="m17.4 1.15q2.85 0.6 5.4-1.2l0.05 0.85q-2.05 1.5-4.25 1.35l-0.05 0.05q-0.75-0.05-0.75 1.05l-0.05 0.05-0.15 0.05-0.2-2.2" fill="#163d12" fill-rule="evenodd"/>
<path d="m15.7 1.35-0.05-0.6-0.1-1.3-0.1-1.25q0-0.8 0.15-1.25l0.05-0.2 0.1-0.15q0.65-0.95 2.7 1.3l0.3 0.55-0.2 0.45-0.35 0.1m-2.65-2.1 0.1-0.15m2.1 1.65h0.3l-0.5-0.7-0.4-0.35-0.55-0.3q-0.45-0.15-0.45 0.45l0.05 0.5 0.25 2.65q0.55-1.05 0.9-0.05l0.05 0.55q2.85 0.6 5.4-1.2l-0.05-0.2q0.2-1.35 1.1-0.3l0.05 0.05v0.05l0.35 4.3h0.05v0.05l-0.3 0.4q-0.55 0.6-0.9-0.4v-0.3q-2.35-1.35-5.3-0.35l-0.05 0.05-0.15 0.05 0.05 0.55-0.2 0.6-0.7-0.45 0.25 3.35q0.1 0.35 0.45 0.15l0.9-0.8 0.35-0.75-0.3 0.05-0.05-0.2 0.05-0.15q0.05-0.45 0.7-0.3l0.3 0.45-0.2 0.6-0.6 0.8q-0.8 1.05-1.35 1.1m-1.1-1.75-0.2-2.1-0.05 0.2m-0.15-2.85-0.05-0.5m3.15 5.6 0.15-0.2 0.15-0.3h0.05m-3.65-9.5v-0.05m2.2 1.5q0 0.6 0.45 0.6m4.65 1.8v0.05l0.05-0.05m-0.05 0-0.05-0.85m0.05 0.9 0.25 2.75m-7.2 0.45h0.05l-0.2-2.2m0.2 2.2v0.45m2.45 1.2q0.05-0.45 0.7-0.25l0.3 0.4m-2-4.7 0.2 2.2m-0.85 0.7-0.3-3.4m-0.4 4.9 0.1 1.05q0.3 1.8 1.1 1.75m-1.7-8.9 0.1 1.3" fill="none" stroke="#393939" stroke-linecap="round" stroke-linejoin="round" stroke-opacity=".73333" stroke-width=".05"/>
<path d="m5.6-8.7-0.45 0.55m3.55 11.5 4-0.05h2.2l0.1-0.1v-0.05l-0.25-0.85-0.15-0.4m-11.8-7.25 1-1.15 1.35-1.65m-3.45 3.05-0.3 1.45 1.4-1.7m0.8 8.65 0.1 0.1 5-0.05m-6.8-9.25-0.2 0.8m-1.2 2.75 0.35 1.25 0.55-2.55m-0.9 1.3-0.2-0.35m12.2 8.75 2.45-2.8m0.05-0.05-0.15 2.7-0.1 1.75-0.05 1.25m-9.8-1.8-0.45 0.25m6.5 0.45-0.5 0.55m0.5-0.55 1.55-1.75m-12.45-5.85 0.35 0.3 1.25 1.1-0.8-2.7m0.4 4.5-0.55 0.1m2.9-0.2-1.95-1.7m2.05 1.8h-2.45m3.65 3.7 3.4-1.3m6.6-2.5-6.6 2.5" fill="none" stroke="#5c5c5c" stroke-linecap="round" stroke-linejoin="round" stroke-opacity=".2902" stroke-width=".05"/>
<path d="m8.05-9.2h-0.35l-0.15 0.05-1.95 0.45m2.5-0.5 0.7-0.05h-0.1q-1.85 0.6-3.05 2.2-1.6 2.1-1.2 4.7 0.3 2.55 2.4 4.15t4.7 1.25l2.25-0.75 1.9-0.95m0.2 3.35-0.3 1.05-0.5 1.65h0.05l-0.1 0.3-0.3 1.15-0.05 0.05h-0.1q-0.25-1.1-3.95-0.55h-0.2q-3.2 0.45-6-1l-0.7-0.4q-2.15-1.3-3.05-3.45-0.5-1.15-0.6-2.5l-0.05-0.8q-0.1-1.55 0.25-2.9 0.45-1.75 1.55-3.15l0.05-0.05q1.5-2 3.7-2.8" fill="none" stroke="#333" stroke-linecap="round" stroke-linejoin="round" stroke-width=".05"/>
</g>
<g id="a" transform="translate(0,4.05)">
<path d="m4.05-4.05q1.7 0 2.85 1.15 1.2 1.2 1.2 2.9t-1.2 2.85q-1.15 1.2-2.85 1.2t-2.9-1.2q-1.15-1.15-1.15-2.85t1.15-2.9q1.2-1.15 2.9-1.15" fill="url(#c)" fill-rule="evenodd"/>
</g>
<radialGradient id="c" cx="0" cy="0" r="819.2" gradientTransform="matrix(.0051 0 0 .0051 4.05 0)" gradientUnits="userSpaceOnUse">
<stop stop-color="#fff" offset="0"/>
<stop stop-color="#fff" stop-opacity="0" offset="1"/>
</radialGradient>
</defs>
</svg>
