<?xml version="1.0" encoding="UTF-8"?>
<svg version="1.1" viewBox="0 0 29.861 43.463" xmlns="http://www.w3.org/2000/svg" xmlns:cc="http://creativecommons.org/ns#" xmlns:dc="http://purl.org/dc/elements/1.1/" xmlns:rdf="http://www.w3.org/1999/02/22-rdf-syntax-ns#" xmlns:xlink="http://www.w3.org/1999/xlink">
<metadata>
<rdf:RDF>
<cc:Work rdf:about="">
<dc:format>image/svg+xml</dc:format>
<dc:type rdf:resource="http://purl.org/dc/dcmitype/StillImage"/>
</cc:Work>
</rdf:RDF>
</metadata>
<g transform="translate(-260.52 -178.61)">
<use transform="translate(260.55,178.65)" width="29.799999" height="43.599998" xlink:href="#a"/>
</g>
<defs>
<g id="a" transform="translate(-260.55,-178.65)">
<path d="m271.95 214.35-1.25 7.7q-1.2-0.4-1.95-0.45-0.4-0.05-0.45 0.3l-1.5 0.1-2.1-1.75q0-3.8 5.55-7.4l1.7 1.5" fill="#6b0500" fill-rule="evenodd"/>
<path d="m271.95 214.35-1.25 7.7q-1.2-0.4-1.95-0.45-0.4-0.05-0.45 0.3l-1.5 0.1-2.1-1.75q0-3.8 5.55-7.4z" fill="none" stroke="#000" stroke-linecap="round" stroke-linejoin="round" stroke-opacity=".30196" stroke-width=".05"/>
<path d="m266.85 219.9 5.2-7.75" fill="none" stroke="#000" stroke-linecap="round" stroke-linejoin="round" stroke-opacity=".30196" stroke-width=".05"/>
<path d="m261.4 214.25q-0.5-0.45-0.65-1.15l-0.2-0.75q1.4-2.65 4.8-2.85l0.8-0.05 3.1 0.5q-3 1.3-6.35 3.2-0.15 0-0.15 0.1-0.7 0.45-1.35 1" fill="#900" fill-rule="evenodd"/>
<path d="m269.25 209.95h0.3l1.1 0.5 0.15 0.05 0.1 1.15-8 1.5 8-1.5 0.15 1.95q-3.35 2.05-8.3 3.5l0.35-0.75q0-0.55-0.6-1l-0.05-0.2-0.3-0.2v-0.1l-0.75-0.6q0.65-0.55 1.35-1 0-0.1 0.15-0.1 3.35-1.9 6.35-3.2" fill="#6b0500" fill-rule="evenodd"/>
<path d="m269.25 209.95h0.3l1.1 0.5 0.15 0.05 0.1 1.15 1.3-0.2m-10.8 2.8q-0.5-0.45-0.65-1.15l-0.2-0.75q1.4-2.65 4.8-2.85l0.8-0.05 3.1 0.5m-6.35 3.2 8-1.5 0.15 1.95q-3.35 2.05-8.3 3.5l0.35-0.75q0-0.55-0.6-1l-0.05-0.2-0.3-0.2v-0.1l-0.75-0.6" fill="none" stroke="#000" stroke-linecap="round" stroke-linejoin="round" stroke-opacity=".30196" stroke-width=".05"/>
<path d="m281.2 191.3 2.2 3.7 0.35 0.6 0.4 0.45 2.65 3.15 0.05 0.15 0.05 0.05 1.7 1.6q1.25 1.2 1.6 4.15 0.3 2.9-0.9 5.4l-0.75 3.8q0.05 0.2-0.7 0l-1.8-0.55-4.6 3.55v-0.1l-3.45-0.6q-2.15-0.55-3.15-1.3-1-0.8-2.35-3.65-1.25-2.7-1.65-5.5l-0.05-0.25-0.05-0.5-0.1-0.65h0.15l0.1 0.45-0.1-0.45q6.8-0.45 10.05-1.7l5.45-2.35q-1.05-2.7-3.05-4.15-2.05-1.55-2.5-1.5-1.75-3.35-3.7-6.35-1.95-3.05-2.35-0.9l-1-2.4q1.25-0.9 2.85-0.75l2.85 4.05 1.8 2.55m5.7 8.1 0.45 0.65-0.9-1q-0.85-1 0.4 0.3-1.25-1.3-0.4-0.3l0.9 1-0.45-0.65m1.95 10.5q0.2-0.25 0.15 0.75 0.05-0.15 0.3-0.1-0.25-0.05-0.3 0.1 0.05-1-0.15-0.75m-8.8 4.2-0.9 0.05h-2.2q-1.05-0.05-0.45 0.95 0.55 1 3.45 1.45 2.85 0.4 2.7-1.15-0.2-1.55-2.6-1.3" fill="#1e2f33" fill-rule="evenodd"/>
<path d="m281.45 217.35q-0.7 0.8-5.6-0.35l-1.45-0.45-2.8-1.3q-1.95-0.9-2.3-2.1l-0.85-4.7-0.55-4.45-0.2-2.45v-1.15l-0.85-3.55-0.65-2.4-0.7-3.35-0.35-2.4q0.1-0.45 1.3-0.85v0.1l1.15 3.85q1.1 3.3 2.5 9.8l0.2 0.9 0.35 2.3 0.1 0.65 0.05 0.5 0.05 0.25q0.4 2.8 1.65 5.5 1.35 2.85 2.35 3.65 1 0.75 3.15 1.3l3.45 0.6v0.1m-8.55-22.4 2.55-1.5-2.8-7.4 1.05-0.6 1 2.4 3.05 7.3-0.45 0.15q-1 0.35-3 1.45l-0.25 0.2-0.4-0.7-0.75-1.3" fill-rule="evenodd"/>
<path d="m270.65 178.8q0.1-0.7 2 1.6l3.9 4.3q-1.6-0.15-2.85 0.75l-1.25-2.55-1.8-4.1" fill="#f0dbb9" fill-rule="evenodd"/>
<path d="m265.15 188.7-0.15-1.2-0.05-1.1v-3.9l0.15-1.15 1.35 6.5q-1.2 0.4-1.3 0.85m7.5-2.65q-2.65-6.35-2-7.25l1.8 4.1 1.25 2.55-1.05 0.6" fill="#dab869" fill-rule="evenodd"/>
<path d="m269.2 187.3 0.2 0.4 0.4 0.85 0.1 0.2 0.15 0.45 0.7 1.6 1.05 2.25 0.05 0.1 0.4 0.7 0.65 1.1 0.75 1.3 0.4 0.7 0.25-0.2q2-1.1 3-1.45l0.45-0.15-3.05-7.3q0.4-2.15 2.35 0.9 1.95 3 3.7 6.35 0.45-0.05 2.5 1.5 2 1.45 3.05 4.15l-5.45 2.35q-3.25 1.25-10.05 1.7l0.1 0.45-0.1-0.45h-0.15l-0.35-2.3-0.2-0.9q-1.4-6.5-2.5-9.8l-1.15-3.85v-0.1q1.75-0.55 2.75-0.55m10.85 26.8q2.4-0.25 2.6 1.3 0.15 1.55-2.7 1.15-2.9-0.45-3.45-1.45-0.6-1 0.45-0.95h2.2l0.9-0.05" fill="#497c8a" fill-rule="evenodd"/>
<path d="m265.1 181.35q0.15-0.9 0.45-0.7l0.55 0.65 0.75 1.35 1.5 2.95 0.85 1.7q-1 0-2.75 0.55l-1.35-6.5" fill="#f8f7ed" fill-rule="evenodd"/>
<path d="m281.2 191.3 2.2 3.7 0.35 0.6 0.4 0.45 2.65 3.15 0.05 0.15 0.05 0.05 1.7 1.6q1.25 1.2 1.6 4.15 0.3 2.9-0.9 5.4l-0.75 3.8q0.05 0.2-0.7 0m-12 2.65-1.45-0.45-2.8-1.3q-1.95-0.9-2.3-2.1l-0.85-4.7-0.55-4.45-0.2-2.45v-1.15l-0.85-3.55-0.65-2.4-0.7-3.35-0.35-2.4-0.15-1.2-0.05-1.1v-3.9l0.15-1.15q0.15-0.9 0.45-0.7l0.55 0.65 0.75 1.35 1.5 2.95 1.05 2.1 0.4 0.85 0.1 0.2 0.15 0.45 0.7 1.6 1.05 2.25 0.05 0.1 0.4 0.7 0.65 1.1m-0.25-8.9q-2.65-6.35-2-7.25 0.1-0.7 2 1.6l3.9 4.3 2.85 4.05m7.45 10.6q-1.25-1.3-0.4-0.3l0.9 1-0.45-0.65m-5.45 17.95v-0.1m7.85-6.7q-0.25-0.05-0.3 0.1 0.05-1-0.15-0.75" fill="none" stroke="#000" stroke-linecap="round" stroke-linejoin="round" stroke-opacity=".30196" stroke-width=".05"/>
<path d="m288.45 208.95q0.35 1.65-0.4 2.35-0.4 0.7-1.65 1.25-0.05-0.55 0.25-1.7 0.25-1.2 1.8-1.9m-10.9 4.6q0.05-0.35 2.35-0.6t3.25 1.45q-2 0.95-3.7 0.45-0.8 0-1.9-1.3" fill="#fff" fill-rule="evenodd"/>
<path d="m286.4 212.55-0.2 0.05q-0.15-0.5-0.05-1.55 0.1-2.1 2.1-2.8l0.05 0.05 0.15 0.65q-1.55 0.7-1.8 1.9-0.3 1.15-0.25 1.7m-8.85 1-0.3-0.4-0.1-0.1 3.4-0.8q1.9-0.15 2.8 1.6l0.15 0.35-0.35 0.2q-0.95-1.7-3.25-1.45t-2.35 0.6" fill="#b0bcc2" fill-rule="evenodd"/>
<path d="m286.4 212.55-0.2 0.05q-0.15-0.5-0.05-1.55 0.1-2.1 2.1-2.8l0.05 0.05 0.15 0.65q0.35 1.65-0.4 2.35-0.4 0.7-1.65 1.25m-3.25 1.85 0.35-0.2-0.15-0.35q-0.9-1.75-2.8-1.6l-3.4 0.8 0.1 0.1 0.3 0.4m5.6 0.85q-2 0.95-3.7 0.45-0.8 0-1.9-1.3" fill="none" stroke="#000" stroke-linecap="round" stroke-linejoin="round" stroke-width=".7"/>
<path d="m266.75 207.85q-0.1-1.1 1.2-2.4l0.6 1.35q4 0.35 8.35-1 9.05-2.95 10.6-4.75v-1.3l1.2 0.35 0.75 1 0.05 1.5q-0.15 0.95 0.6 2.45-0.9 1.9-7.1 3.95 2.35-2.2 2.35-2.9-4.1 2-7.45 2.6l-4.15 0.6q-3.7 0.2-7-1.45m0.6 1.2-0.05-0.05h0.05v0.05m15.4-3.3q2.65-1.85 2.15-2.25-1.45 1-4.3 2.15l-7.05 2.1q2.15 0.65 5.55-0.1 3.35-0.75 5.2-1.9 1.05-0.7-1.55 0" fill="#900" fill-rule="evenodd"/>
<path d="m290.1 205.05 0.15 0.3q0.5 0.95-1.25 2.5l-1.55 1.25-1.55 1-1.05 0.6q-3.3 1.85-7 2.65l-7.75 0.35q-1.9 0.1-1.9-2.7l-0.25-0.5-0.6-1.45v-0.05h-0.05l-0.55-0.95v-0.2q3.3 1.65 7 1.45l4.15-0.6q3.35-0.6 7.45-2.6 0 0.7-2.35 2.9 6.2-2.05 7.1-3.95m-10.25 4.15-0.75 0.35-1.4 0.5q-6.55 1.75-9.75 0.45 3.2 1.3 9.75-0.45l1.4-0.5 0.75-0.35" fill="#5e0000" fill-rule="evenodd"/>
<path d="m282.75 205.75q2.6-0.7 1.55 0-1.85 1.15-5.2 1.9-3.4 0.75-5.55 0.1l7.05-2.1q2.85-1.15 4.3-2.15 0.5 0.4-2.15 2.25" fill="#e00000" fill-rule="evenodd"/>
<path d="m266.75 207.85q-0.1-1.1 1.2-2.4l0.6 1.35q4 0.35 8.35-1 9.05-2.95 10.6-4.75v-1.3l1.2 0.35 0.75 1 0.05 1.5q-0.15 0.95 0.6 2.45l0.15 0.3q0.5 0.95-1.25 2.5l-1.55 1.25-1.55 1-1.05 0.6q-3.3 1.85-7 2.65l-7.75 0.35q-1.9 0.1-1.9-2.7l-0.25-0.5-0.6-1.45-0.05-0.05-0.55-0.95v-0.2m1.2 2.65q3.2 1.3 9.75-0.45l1.4-0.5 0.75-0.35" fill="none" stroke="#000" stroke-linecap="round" stroke-linejoin="round" stroke-opacity=".30196" stroke-width=".05"/>
<path d="m284.1 199.55 0.3 0.45 0.8 1.1-1.35 0.9q0.4-1.1 0.25-2.45" fill="#f0dbb9" fill-rule="evenodd"/>
<path d="m283.85 202 1.35-0.9-0.8-1.1-0.3-0.45v-0.1l-0.1-0.5v-0.05l-0.05-0.15q-0.55-2.3-1.9-4.1l2.7 2.6 1.6 1.85q0.1 1.3-1 2.45l-1.1 0.9-0.3 0.2-0.55 0.3 0.2-0.3 0.25-0.65m-12.8 3.1-0.35-0.05-2.45-0.7-0.05-2.1 0.1-1.65v-0.3l1.35 1.4 0.3 0.25 0.75 0.55 0.35 2.6" fill="#dab869" fill-rule="evenodd"/>
<path d="m270.7 202.5q1.15 0.7 2.6 1.1l3.7 0.8q-3.35 1-5.95 0.7l-0.35-2.6" fill="#fff" fill-rule="evenodd"/>
</g>
</defs>
</svg>
