<?xml version="1.0" encoding="UTF-8"?>
<svg version="1.1" viewBox="0 0 36.208 49.421" xmlns="http://www.w3.org/2000/svg" xmlns:cc="http://creativecommons.org/ns#" xmlns:dc="http://purl.org/dc/elements/1.1/" xmlns:rdf="http://www.w3.org/1999/02/22-rdf-syntax-ns#" xmlns:xlink="http://www.w3.org/1999/xlink">
<metadata>
<rdf:RDF>
<cc:Work rdf:about="">
<dc:format>image/svg+xml</dc:format>
<dc:type rdf:resource="http://purl.org/dc/dcmitype/StillImage"/>
</cc:Work>
</rdf:RDF>
</metadata>
<g transform="translate(-6.8108 -4.107)">
<use transform="matrix(1.3931 -2.4787 2.4787 1.3931 12.788 46.298)" width="2.5" height="2.75" xlink:href="#b"/>
<use transform="matrix(.3765 .8154 -.8154 .3765 40.164 36.718)" width="10.1" height="20.6" xlink:href="#e"/>
<use transform="matrix(.8993 0 0 .8993 20.972 48.362)" width="5.0500002" height="4.3000002" xlink:href="#a"/>
<use transform="matrix(.8993 0 0 .8993 13.572 48.112)" width="5.0500002" height="4.3000002" xlink:href="#a"/>
<use transform="matrix(.8993 0 0 .8993 16.972 49.662)" width="5.0500002" height="4.3000002" xlink:href="#a"/>
<use transform="matrix(2.8508 0 0 2.8508 16.141 26.734)" width="3.9000001" height="8.4499998" xlink:href="#d"/>
<use transform="matrix(2.8508 0 0 2.8508 20.537 44.259)" width="2.5" height="2.75" xlink:href="#b"/>
<use transform="matrix(.8959 -.075 .075 .8959 5.1796 4.7258)" width="36.400002" height="38.349998" xlink:href="#c"/>
</g>
<defs>
<g id="b" transform="translate(1.25,1.4)">
<path d="m0.9-1 0.3 0.35 0.05 0.05-1.15 1.95-1.35-0.45 0.1-0.65 1.25 0.4q0.65-0.7 0.8-1.65" fill-rule="evenodd"/>
<path d="m-1.15 0.25 0.05-0.55 1.6-1.1 0.4 0.4q-0.15 0.95-0.8 1.65l-1.25-0.4" fill-rule="evenodd"/>
</g>
<g id="e" transform="translate(5,20.6)">
<path d="m4.1-19.9 0.9 0.45 0.1 0.55-2.2 2.6-0.95-0.8 0.4-0.95q0.55-1.1 1.75-1.85m-5.2 15.6 2.65-1.4v5.7h-2.65v-4.3" fill-rule="evenodd"/>
<path d="m0.15-20.6 0.65 0.55q0.85 2-0.65 3.15l-0.2-0.15q-1.5-2.05 0.2-3.55m-1.25 16.3q0-6.8-0.4-11.05 1.7-1.4 3.4-0.4-0.65 4.95-0.35 10.05l-2.65 1.4m-3.4-14.95 0.9 0.15 2.6 2.45-0.55 0.8q-1.95-0.45-3.45-2.55l0.5-0.85" fill="#41595c" fill-rule="evenodd"/>
</g>
<g id="a" transform="translate(2.7,2.1)">
<path d="m-2.55-0.25 1.75 0.5 2.85-0.8 0.3 1.9-2.95 0.85-2.1-0.65 0.15-1.8" fill-rule="evenodd"/>
<path d="m-2.55-0.25v-0.4l2.25-1.45 2.2 0.9 0.15 0.65-2.85 0.8-1.75-0.5" fill="#41595c" fill-rule="evenodd"/>
</g>
<g id="d" transform="translate(1.95,4.25)">
<path d="m-1.6 0.95-0.2-0.9v-1.1l0.1-0.3q0.45-1.35 0.4-2.65l1.15-0.25q-0.75 1.5-0.25 4.4h0.1v0.05l-1.3 0.75m3.55 1.8v0.55l-0.1 0.45h-0.05l-1.85 0.45-0.5-0.4-0.15 0.15 0.15-2.1 1.25 0.55 1.25 0.35m-3.1 1.25h-0.25l0.4-2.1-0.15 2.1" fill-rule="evenodd"/>
<path d="m-0.3 0.2q0.4 1.25 2.15 2.4l0.1 0.05v0.1l-1.25-0.35-1.25-0.55-0.15 2.1-0.05 0.05h-0.4l0.15-2.1-0.4 2.1h-0.55l0.45-0.7 0.1-0.75v-0.5l-0.2-1.1 1.3-0.75" fill="#41595c" fill-rule="evenodd"/>
</g>
<g id="c" transform="translate(19.5,19.35)">
<path d="m-6.2 18.55-0.85 0.2-1.65 0.25 0.25-2.1 1.5 0.05 0.75 1.6" fill="#fff" fill-rule="evenodd"/>
<path d="m-16.35 9.25 5.9 1.45q-3.6 2-3 5.6-1.15-0.05-2-1.15l-0.9-5.9m7.9 7.65q-0.2-2.25-1.1-4.25l6.45 0.6q-0.95 2.9-2.9 5.25l-0.2 0.05-0.75-1.6-1.5-0.05" fill="#cecab0" fill-rule="evenodd"/>
<path d="m-11.8-16.5 0.65 9.2 3.9 3.25q-1.95 1.35-3.85 2.75l-3-3.15 2.3-12.05" fill-rule="evenodd"/>
<path d="m-11.8-16.5 0.55-2.85 3.6 8.45 5.05 3.55-4.65 3.3-3.9-3.25-0.65-9.2" fill="#41595c" fill-rule="evenodd"/>
<path d="m2.9 11.05q-0.05 3.8 8.3 6.5l-15.25 0.25-12-5.9q-2.25-4.1-3.45-9.5 2.35 2.55 5.75 2.1l11.1 1.35 5.55 5.2" fill="#273538" fill-rule="evenodd"/>
<path d="m6.2-0.5q1.25 2.25 1.4 4 0.2 2.7-1.35 3.85-1.6 1.15-3.25 4.7-1.65 3.6-5.15 3.5l-4.1-0.1q-4.9-0.3-7.45-2.8l14.9-5.35 5-7.8m-11.1-6.35 1.5-0.1-0.2-5.35 0.3 0.4 1.7 7.9-2.45-1.1-0.85-1.75" fill-rule="evenodd"/>
<path d="m-3.3-11.9 4.85 6 1 0.65 1.95 2.05 1.7 2.7-5 7.8-14.9 5.35-0.4-0.45-1-1.25-0.95-2-0.15-0.45q-0.55-1.8-0.4-3.85 0.3-4.4 2-6.05t4.1-3.5q1.95-1.5 5.6-1.95l0.85 1.75 2.45 1.1-1.7-7.9" fill="#41595c" fill-rule="evenodd"/>
<path d="m2.15 1.4 5.5 0.2-0.05-2.1 6.9-2.45 0.15 0.1 1.85 1.15q-1.4 4-7.85 11.15l-2 0.2h-0.05l-3.2-3.9-1.25-4.35" fill-rule="evenodd"/>
<path d="m16.5-1.7-1.85-1.15-0.15-0.1-6.9 2.45 0.05 2.1-5.5-0.2-0.85-3 3.25-1.95 12.25-0.9q0.25 1.1-0.3 2.75" fill="#41595c" fill-rule="evenodd"/>
<path d="m0.8 10.95-0.1 0.75v0.1q-3.1 3.3-7.75 3.1l-2.1-1.2-1.5-3.6 0.55-2.55q1.75-1.7 4.3-1.65 2.7-0.05 4.75 1.95 1.35 1.35 1.85 3.1" fill="#fff" fill-rule="evenodd"/>
<path d="m-9.15 13.7-1.65-1.25-0.9-0.85-0.5 0.05q-1.25 0.05-2.45-0.5-1.4-4.95-0.8-8.4 0.2-1.45 0.75-2.6v-0.1q1.35-1.7 2.85-0.75 1.1 1.7 1.5 3.5 0.2 2.6 2.25 2.15 3.45-3.35 7.85-0.15 1.35 3.15 1.05 6.15-0.5-1.75-1.85-3.1-2.05-2-4.75-1.95-2.55-0.05-4.3 1.65l-0.55 2.55 1.5 3.6" fill="#cecab0" fill-rule="evenodd"/>
<path d="m-12.45 6.65q0.55-0.05 1 0.4 0.4 0.4 0.4 0.95v1.3q0 0.55-0.4 1-0.45 0.4-1 0.4t-0.95-0.4q-0.45-0.45-0.4-1v-1.3q-0.05-0.55 0.4-0.95 0.4-0.45 0.95-0.4m2.4 3.4q0.05-0.6 0.5-0.95 0.4-0.35 1-0.3 0.55 0.05 0.9 0.5 0.35 0.4 0.35 1l-0.1 1.2q-0.1 0.55-0.5 0.9l-1 0.35-0.95-0.5q-0.35-0.45-0.3-1l0.1-1.2" fill-rule="evenodd"/>
</g>
</defs>
</svg>
