<?xml version="1.0" encoding="UTF-8"?>
<svg version="1.1" viewBox="0 0 96.169 67.946" xmlns="http://www.w3.org/2000/svg" xmlns:cc="http://creativecommons.org/ns#" xmlns:dc="http://purl.org/dc/elements/1.1/" xmlns:rdf="http://www.w3.org/1999/02/22-rdf-syntax-ns#" xmlns:xlink="http://www.w3.org/1999/xlink">
<metadata>
<rdf:RDF>
<cc:Work rdf:about="">
<dc:format>image/svg+xml</dc:format>
<dc:type rdf:resource="http://purl.org/dc/dcmitype/StillImage"/>
</cc:Work>
</rdf:RDF>
</metadata>
<g transform="translate(-226.9 -167)">
<use transform="matrix(1.0979 0 0 1.2878 265.1 166.27)" width="52.799999" height="51.700001" xlink:href="#b"/>
<use transform="translate(226.9,177.05)" width="45.700001" height="57.900002" xlink:href="#c"/>
<use transform="matrix(.0075 .1323 -.1128 .0088 273.82 172.65)" width="98.650002" height="108.05" xlink:href="#a"/>
<use transform="matrix(.0704 -.0565 .0482 .0826 245.12 186.23)" width="98.650002" height="108.05" xlink:href="#a"/>
<use transform="matrix(.1027 .0539 -.0459 .1204 254.51 167.44)" width="98.650002" height="108.05" xlink:href="#a"/>
<use transform="matrix(.1117 -.0185 .0157 .1311 248.44 176.83)" width="98.650002" height="108.05" xlink:href="#a"/>
<use transform="matrix(.0635 .0822 -.0701 .0744 262.8 172.43)" width="98.650002" height="108.05" xlink:href="#a"/>
<use transform="matrix(.0421 -.0836 .0713 .0493 247.77 190.31)" width="98.650002" height="108.05" xlink:href="#a"/>
<use transform="matrix(.0795 .0863 -.0582 .1195 264.32 171.39)" width="98.650002" height="108.05" xlink:href="#a"/>
<use transform="matrix(.0986 .0095 -.007 .1477 257.31 182.05)" width="98.650002" height="108.05" xlink:href="#a"/>
<use transform="matrix(.0415 .1069 -.0716 .0627 270.32 180.99)" width="98.650002" height="108.05" xlink:href="#a"/>
<use transform="matrix(.0826 .0025 -.0022 .1237 253.69 186.69)" width="98.650002" height="108.05" xlink:href="#a"/>
<use transform="matrix(.0986 .0095 -.007 .1477 267.56 185.2)" width="98.650002" height="108.05" xlink:href="#a"/>
<use transform="matrix(.0826 .0025 -.0022 .1237 264.04 189.79)" width="98.650002" height="108.05" xlink:href="#a"/>
<use transform="matrix(-.0438 .0807 .1057 .1144 250.5 181.89)" width="98.650002" height="108.05" xlink:href="#a"/>
<use transform="matrix(-.0807 .0011 .052 .1174 266.82 196.51)" width="98.650002" height="108.05" xlink:href="#a"/>
<use transform="matrix(.001 .0943 .0746 .015 260.32 178.58)" width="98.650002" height="108.05" xlink:href="#a"/>
<use transform="matrix(.026 .0776 .057 -.0203 261.54 187.22)" width="98.650002" height="108.05" xlink:href="#a"/>
<use transform="matrix(-.0629 .0366 .0398 .0881 275.86 173.94)" width="98.650002" height="108.05" xlink:href="#a"/>
<use transform="matrix(-.0747 -.0159 3e-4 .0943 280.72 182.09)" width="98.650002" height="108.05" xlink:href="#a"/>
<use transform="matrix(-.0349 .0579 .0519 .0554 271.12 178.5)" width="98.650002" height="108.05" xlink:href="#a"/>
<use transform="matrix(.0214 .0705 .0522 -.0156 266.68 185.27)" width="98.650002" height="108.05" xlink:href="#a"/>
<use transform="matrix(.0455 .0847 .0593 -.0445 261.9 192.12)" width="98.650002" height="108.05" xlink:href="#a"/>
<use transform="matrix(-.035 -.0904 -.0656 .03 285.57 199.04)" width="98.650002" height="108.05" xlink:href="#a"/>
<use transform="matrix(-.0491 -.0594 -.0387 .0536 281.31 191.54)" width="98.650002" height="108.05" xlink:href="#a"/>
<use transform="matrix(-.0536 .0103 .0175 .0714 275.75 184.28)" width="98.650002" height="108.05" xlink:href="#a"/>
<use transform="matrix(.0358 .105 .0895 -.042 243.35 190.14)" width="98.650002" height="108.05" xlink:href="#a"/>
<use transform="matrix(.0578 .0666 .0568 -.0678 248.08 198.78)" width="98.650002" height="108.05" xlink:href="#a"/>
<use transform="matrix(.0715 -.0174 -.0149 -.0839 254.82 206.94)" width="98.650002" height="108.05" xlink:href="#a"/>
<use transform="matrix(.076 -.0699 -.0596 -.0892 261.67 210.27)" width="98.650002" height="108.05" xlink:href="#a"/>
<use transform="matrix(.0689 .0191 .0163 -.0809 254.12 202.82)" width="98.650002" height="108.05" xlink:href="#a"/>
<use transform="matrix(-.0755 -.0396 -.0338 .0885 281.9 190.02)" width="98.650002" height="108.05" xlink:href="#a"/>
<use transform="matrix(-.0461 -.0809 -.069 .0541 279.5 199.33)" width="98.650002" height="108.05" xlink:href="#a"/>
<use transform="matrix(-.0695 -5e-4 -4e-4 .0815 274.55 188.12)" width="98.650002" height="108.05" xlink:href="#a"/>
<use transform="matrix(.0056 -.0811 -.0692 -.0065 273.06 205.46)" width="98.650002" height="108.05" xlink:href="#a"/>
<use transform="matrix(-.049 -.0455 -.0388 .0575 274.12 195.84)" width="98.650002" height="108.05" xlink:href="#a"/>
<use transform="matrix(-.0081 -.0867 -.0739 .0095 273.84 208.62)" width="98.650002" height="108.05" xlink:href="#a"/>
<use transform="matrix(-.0715 -.0238 -.0203 .0838 275.17 192.2)" width="98.650002" height="108.05" xlink:href="#a"/>
</g>
<defs>
<g id="b" transform="translate(0,-1.65)">
<use transform="translate(11.7,8.9)" width="41.099998" height="44.450001" xlink:href="#d"/>
<use transform="matrix(-.0068 .1014 .1014 .0068 10.609 5.5319)" width="98.650002" height="108.05" xlink:href="#a"/>
<use transform="matrix(-.0633 -.0433 -.0433 .0633 36.413 15.918)" width="98.650002" height="108.05" xlink:href="#a"/>
<use transform="matrix(-.0923 .0413 .0413 .0923 27.975 1.6297)" width="98.650002" height="108.05" xlink:href="#a"/>
<use transform="matrix(-.1004 -.0142 -.0142 .1004 33.423 8.7253)" width="98.650002" height="108.05" xlink:href="#a"/>
<use transform="matrix(-.0571 .063 .063 .0571 20.565 5.3614)" width="98.650002" height="108.05" xlink:href="#a"/>
<use transform="matrix(-.0378 -.0641 -.0641 .0378 34.077 19.071)" width="98.650002" height="108.05" xlink:href="#a"/>
<use transform="matrix(-.0714 .0662 .0523 .0916 19.202 4.5886)" width="98.650002" height="108.05" xlink:href="#a"/>
<use transform="matrix(-.0886 .0073 .0063 .1132 25.434 12.776)" width="98.650002" height="108.05" xlink:href="#a"/>
<use transform="matrix(-.0373 .0819 .0644 .0481 13.765 11.911)" width="98.650002" height="108.05" xlink:href="#a"/>
<use transform="matrix(-.0743 .0019 .002 .0948 28.708 16.333)" width="98.650002" height="108.05" xlink:href="#a"/>
<use transform="matrix(-.0886 .0073 .0063 .1132 16.284 15.176)" width="98.650002" height="108.05" xlink:href="#a"/>
<use transform="matrix(-.0743 .0019 .002 .0948 19.408 18.683)" width="98.650002" height="108.05" xlink:href="#a"/>
<use transform="matrix(.0394 .0618 -.095 .0877 31.539 12.615)" width="98.650002" height="108.05" xlink:href="#a"/>
<use transform="matrix(.0726 8e-4 -.0468 .09 16.946 23.849)" width="98.650002" height="108.05" xlink:href="#a"/>
<use transform="matrix(-9e-4 .0723 -.067 .0115 22.764 10.112)" width="98.650002" height="108.05" xlink:href="#a"/>
<use transform="matrix(-.0233 .0595 -.0513 -.0156 21.619 16.707)" width="98.650002" height="108.05" xlink:href="#a"/>
<use transform="matrix(.0566 .028 -.0358 .0675 8.7417 6.5215)" width="98.650002" height="108.05" xlink:href="#a"/>
<use transform="matrix(.0672 -.0122 -2e-4 .0723 4.3976 12.799)" width="98.650002" height="108.05" xlink:href="#a"/>
<use transform="matrix(.0314 .0444 -.0467 .0424 13.022 10.066)" width="98.650002" height="108.05" xlink:href="#a"/>
<use transform="matrix(-.0192 .054 -.0469 -.012 17.031 15.181)" width="98.650002" height="108.05" xlink:href="#a"/>
<use transform="matrix(-.0409 .0649 -.0533 -.0341 21.348 20.489)" width="98.650002" height="108.05" xlink:href="#a"/>
<use transform="matrix(.0315 -.0693 .0589 .023 .0128 25.779)" width="98.650002" height="108.05" xlink:href="#a"/>
<use transform="matrix(.0442 -.0455 .0347 .0411 3.8438 20.03)" width="98.650002" height="108.05" xlink:href="#a"/>
<use transform="matrix(.0481 .0079 -.0157 .0547 8.8713 14.454)" width="98.650002" height="108.05" xlink:href="#a"/>
<use transform="matrix(-.0322 .0805 -.0805 -.0322 37.984 18.967)" width="98.650002" height="108.05" xlink:href="#a"/>
<use transform="matrix(-.052 .051 -.051 -.052 33.721 25.589)" width="98.650002" height="108.05" xlink:href="#a"/>
<use transform="matrix(-.0643 -.0134 .0134 -.0643 27.701 31.83)" width="98.650002" height="108.05" xlink:href="#a"/>
<use transform="matrix(-.0683 -.0536 .0536 -.0683 21.53 34.384)" width="98.650002" height="108.05" xlink:href="#a"/>
<use transform="matrix(-.062 .0146 -.0146 -.062 28.298 28.624)" width="98.650002" height="108.05" xlink:href="#a"/>
<use transform="matrix(.0678 -.0303 .0303 .0678 3.414 18.884)" width="98.650002" height="108.05" xlink:href="#a"/>
<use transform="matrix(.0414 -.062 .062 .0414 5.5553 26.025)" width="98.650002" height="108.05" xlink:href="#a"/>
<use transform="matrix(.0625 -4e-4 4e-4 .0625 9.9457 17.396)" width="98.650002" height="108.05" xlink:href="#a"/>
<use transform="matrix(-.005 -.0622 .0622 -.005 11.29 30.688)" width="98.650002" height="108.05" xlink:href="#a"/>
<use transform="matrix(.0441 -.0349 .0349 .0441 10.341 23.342)" width="98.650002" height="108.05" xlink:href="#a"/>
<use transform="matrix(.0072 -.0665 .0665 .0072 10.604 33.138)" width="98.650002" height="108.05" xlink:href="#a"/>
<use transform="matrix(.0642 -.0182 .0182 .0642 9.396 20.53)" width="98.650002" height="108.05" xlink:href="#a"/>
</g>
<g id="d" transform="translate(-11.7,-8.9)">
<path d="m12.2 34.5 1.6-6.35v-0.05l1.6-3.7 0.45-1.5 0.05-0.25q4.95 3.2 7.95 0.85 0.25 1.5 1.55 1.95h-0.05q-3.2 1.35-5.95 12.75v0.1l-0.2-0.25q-5 1-7-3.55m8.25-4.25q-4.15 1.85-6.65-2.1 2.5 3.95 6.65 2.1" fill="#0d6842" fill-rule="evenodd"/>
<path d="m39.35 52.4q-0.25 0.4-0.75 0.2-0.45-0.2-0.65-0.6l0.7-3.35q-2.2 0.8-4.45-0.75 1-7.2 5.75-10.7l0.35-0.05q2.35-0.05 4.35 4-4.25 1.75-5.35 7.65v0.05l0.05 3.55m-9.8-21.2q-2.7 4.65-2.95 10.65-0.4-1-1.45-5.45l4.4-5.2m0.55 15.6v-0.05q1.25-9.15 7.65-11.4 1.95 0.35 2.2 1.85-4.75 3.5-5.75 10.7-2.5-0.1-4.1-1.1m13.05-5.9q-3.65 1.8-4.5 7.75 0.85-5.95 4.5-7.75" fill="#0c5d3b" fill-rule="evenodd"/>
<path d="m29.55 31.2 0.1-0.15h0.1l0.1-0.1q2.4 0.05 2.85 2.25l0.2 0.1q-2.9 2.85-5.55 10.4l-0.75-1.85q0.25-6 2.95-10.65" fill="#0a482e" fill-rule="evenodd"/>
<path d="m15.85 22.6-0.65-7.85q3.7 3.65 7.4 0.5l0.05-0.05q1.7 4.2 1.25 8.25l-0.05 0.05q-3 2.35-7.95-0.85l-0.05-0.05" fill="#093c26" fill-rule="evenodd"/>
<path d="m26.6 41.85 0.75 1.85 0.1 0.25 0.45 0.9 0.05 0.15-4.95-3.75-0.05-2.05 2.2-2.8q1.05 4.45 1.45 5.45" fill="#072f1e" fill-rule="evenodd"/>
<path d="m22.95 39.2 0.05 2.05q-2-1.15-3.6-2.95v-0.1q2.75-11.4 5.95-12.75-2.5 6.55-2.4 13.75" fill="#06291a" fill-rule="evenodd"/>
<path d="m22.95 9.15q0.05 3.3-0.35 5.65l0.05 0.4-0.05 0.05q-3.7 3.15-7.4-0.5l-0.45-5.6h8.2m6.9 39.95q-3.5-2-6.55-5.1-1.7-1.7-4.35-1.9-0.2-1.1-0.05-1.65l0.5-2.15q1.6 1.8 3.6 2.95l4.95 3.75 2 3.45-0.1 0.65m-6.55-5.1-0.3-2.75 0.3 2.75" fill="#052115" fill-rule="evenodd"/>
<path d="m25.35 25.45h0.05q2.65 2 4.35 5.6h-0.1l-0.1 0.15-4.4 5.2-2.2 2.8q-0.1-7.2 2.4-13.75" fill="#031b12" fill-rule="evenodd"/>
<path d="m41.5 34.55 0.2 0.05 3.4 1.85 1.9 2.2 0.05 0.1q1.9 0 1.2 1.65-2.05 0.05-3.3 0.65l-0.2 0.1h-0.1q-2-4.05-4.35-4l-0.35 0.05q-0.25-1.5-2.2-1.85 1.65-0.65 3.75-0.8" fill="#0f794c" fill-rule="evenodd"/>
<path d="m33.85 30.25 0.1 0.05 1.7 0.95q-1.5 0.75-2.75 2.05l-0.2-0.1q-0.45-2.2-2.85-2.25 2.4-1.6 4-0.7" fill="#0f6a44" fill-rule="evenodd"/>
<path d="m22.95 9.15h1.05l0.05 4.6-1.4 1.45-0.05-0.4q0.4-2.35 0.35-5.65m5.4 16.75-0.3-0.1 0.2 0.2 1.05 1.1 4.55 3.15q-1.6-0.9-4 0.7l-0.1 0.1q-1.7-3.6-4.35-5.6 1.65-0.7 2.95 0.45" fill="#09402a" fill-rule="evenodd"/>
<path d="m25.15 22.05 0.2 1 3 2.85q-1.3-1.15-2.95-0.45-1.3-0.45-1.55-1.95l0.05-0.05 1.25-1.4" fill="#108353" fill-rule="evenodd"/>
<path d="m22.65 15.2 1.4-1.45q0.2 4.3 1.1 8.3l-1.25 1.4q0.45-4.05-1.25-8.25" fill="#0d5b3a" fill-rule="evenodd"/>
<path d="m37.95 52-4.05-1.2-3.95-1.7h-0.1l0.1-0.65 0.15-1.65q1.6 1 4.1 1.1 2.25 1.55 4.45 0.75l-0.7 3.35m-4.05-1.2 0.3-2.9-0.3 2.9" fill="#0a4d30" fill-rule="evenodd"/>
<path d="m18.95 42.1q-2.4-0.2-4.55-1.55-2-1.2-2.45-4.7l0.1-1 0.15-0.35q2 4.55 7 3.55l0.2 0.25-0.5 2.15q-0.15 0.55 0.05 1.65" fill="#0a4e31" fill-rule="evenodd"/>
<path d="m44.75 41.15 0.2-0.1q1.15 1.35 2.3 4.35 1.55 3.9 2.25 5.2l-0.55 0.75q-3.3-0.1-9.65-2.5v-0.05q1.1-5.9 5.35-7.65h0.1m0.2 4.05-1-1.65-0.85 0.65 1.05 1.2-0.4 1 1.2 0.2 2 2.8-1.55-3.15-0.85-0.4 0.4-0.65" fill="#9baa6c" fill-rule="evenodd"/>
<path d="m48.25 40.4 2.65 4.75 1.3 3.65-2.7 1.8q-0.7-1.3-2.25-5.2-1.15-3-2.3-4.35 1.25-0.6 3.3-0.65m-3.3 4.8-0.4 0.65 0.85 0.4 1.55 3.15-2-2.8-1.2-0.2 0.4-1-1.05-1.2 0.85-0.65 1 1.65" fill="#abb391" fill-rule="evenodd"/>
<path d="m52.2 48.8 0.35 0.95-4.5 3.35-8.7-0.7-0.05-3.55q6.35 2.4 9.65 2.5l0.55-0.75 2.7-1.8" fill="#819b30" fill-rule="evenodd"/>
<path d="m27.35 43.7q2.65-7.55 5.55-10.4 0.5 1.45 4.6 1.85l0.25 0.2q-6.4 2.25-7.65 11.4l-2.15-1.75-0.05-0.15-0.45-0.9-0.1-0.25" fill="#108151" fill-rule="evenodd"/>
<path d="m35.65 31.25 5.85 3.3q-2.1 0.15-3.75 0.8l-0.25-0.2q-4.1-0.4-4.6-1.85 1.25-1.3 2.75-2.05" fill="#15a266" fill-rule="evenodd"/>
<path d="m27.95 45 2.15 1.75v0.05l-0.15 1.65-2-3.45" fill="#0d6942" fill-rule="evenodd"/>
<path d="m28.05 25.8 0.2 0.2m5.6 4.25 0.1 0.05m7.55 4.25 0.2 0.05m-19.05-19.4-0.05 0.05q-3.7 3.15-7.4-0.5m0.7 7.9-0.05-0.05m8 0.9 0.05-0.05m-0.05 0.05q-3 2.35-7.95-0.85m9.45 2.8h0.05q1.65-0.7 2.95 0.45m-3.2-3.85-1.25 1.4m5.75 7.6-0.1 0.15q-2.7 4.65-2.95 10.65l0.75 1.85q2.65-7.55 5.55-10.4 1.25-1.3 2.75-2.05m-6.1-0.05-4.4 5.2q1.05 4.45 1.45 5.45m-3.65-2.65 0.05 2.05 0.3 2.75m4.65 1-0.05-0.15-0.45-0.9-0.1-0.25m-2.2-7.3-2.2 2.8q-0.1-7.2 2.4-13.75-3.2 1.35-5.95 12.75v0.1m-0.45 3.8q-0.2-1.1-0.05-1.65l0.5-2.15m8.55 6.7 2 3.45 0.15-1.65v-0.05q1.25-9.15 7.65-11.4m-7.8 13.1-0.1 0.65m-16.05-20.95q2.5 3.95 6.65 2.1m24.5 10.8q1.25-0.6 3.3-0.65m-3.6 0.75h0.1m-0.1 0q-4.25 1.75-5.35 7.65v0.05l0.05 3.55m-5.15-4.5-0.3 2.9m4.05 1.2 0.7-3.35q0.85-5.95 4.5-7.75m-8.95 7q1-7.2 5.75-10.7m1.55-2.65q-2.1 0.15-3.75 0.8m-7.9-4.4q2.4-1.6 4-0.7" fill="none" stroke="#000" stroke-linecap="round" stroke-linejoin="round" stroke-opacity=".30196" stroke-width=".05"/>
<path d="m28.35 25.9-0.3-0.1m-12.2-2.9v-0.3" fill="none" stroke="#000" stroke-linecap="round" stroke-linejoin="round" stroke-opacity=".30196" stroke-width=".05"/>
<path d="m24.05 13.75-0.05-4.6h-1.05q0.05 3.3-0.35 5.65l0.05 0.4 1.4-1.45q0.2 4.3 1.1 8.3l0.2 1 3 2.85m-0.1 0.1 1.05 1.1 4.55 3.15m0.1 0.05 1.7 0.95 5.85 3.3m0.2 0.05 3.4 1.85 1.9 2.2 0.05 0.1q1.9 0 1.2 1.65l2.65 4.75 1.3 3.65 0.35 0.95-4.5 3.35-8.7-0.7q-0.25 0.4-0.75 0.2-0.45-0.2-0.65-0.6l-4.05-1.2-3.95-1.7h-0.1q-3.5-2-6.55-5.1-1.7-1.7-4.35-1.9-2.4-0.2-4.55-1.55-2-1.2-2.45-4.7l0.1-1 0.15-0.35 1.6-6.35v-0.05l1.6-3.7 0.45-1.5m0-0.3-0.65-7.85-0.45-5.6" fill="none" stroke="#000" stroke-linecap="round" stroke-linejoin="round" stroke-opacity=".6" stroke-width=".5"/>
</g>
<g id="a" transform="translate(49.35,54)">
<path d="m-42.95-49.7q9.9-8.6 29.45-0.05 19.65 8.45 37.45 29.05 17.75 20.6 23.35 41.2t-4.35 29.2-29.55 0.1q-19.55-8.5-37.35-29.1t-23.4-41.2q-5.55-20.6 4.4-29.2" fill="#046" fill-rule="evenodd"/>
<path d="m25.9-8.8q11.05 12.75 14.4 25.55 3.55 12.8-2.6 18.1t-18.35 0.05q-12.1-5.25-23.15-18t-14.5-25.55 2.7-18.1 18.25-0.05q12.2 5.25 23.25 18" fill="#046" fill-rule="evenodd"/>
</g>
<g id="c" transform="translate(-226.9,-177.05)">
<path d="m257.35 198.6h0.1q3.5 1.8 6.6 16.65v0.1l0.2-0.3q5.6 1.25 7.85-4.65l-1.85-8.25v-0.1l-1.75-4.8-0.5-1.95-0.1-0.35q-5.45 4.15-8.8 1.1-0.3 1.95-1.75 2.55m5.55 6.25q4.65 2.4 7.35-2.7-2.7 5.1-7.35 2.7" fill="#128b58" fill-rule="evenodd"/>
<path d="m256.05 220 1.65-7.1-4.95-6.8q3 6.05 3.3 13.9m-14.2 13.8q0.3 0.45 0.8 0.25l0.75-0.8-0.75-4.4q2.45 1.05 4.9-0.95 2.8-0.15 4.6-1.4v-0.1q-1.4-11.95-8.5-14.9-2.2 0.45-2.5 2.45l-0.35-0.1q-2.65-0.1-4.9 5.2 4.75 2.3 6 10v0.1l-0.05 4.65m-0.7-19.85q5.35 4.55 6.4 13.95-1.05-9.4-6.4-13.95m1.5 14.9q-0.95-7.75-5-10.1 4.05 2.35 5 10.1" fill="#107c4f" fill-rule="evenodd"/>
<path d="m255.2 222.45 0.85-2.45q-0.3-7.85-3.3-13.9l-0.15-0.2h-0.05l-0.15-0.1q-2.45 0.05-3.05 2.5 4.4 2.85 5.85 14.15" fill="#0e613e" fill-rule="evenodd"/>
<path d="m268.7 184.6q-4.05 4.8-8.15 0.7l-0.1-0.05q-1.9 5.45-1.45 10.7l0.1 0.1q3.35 3.05 8.8-1.1l0.1-0.05 0.7-10.3" fill="#0c5033" fill-rule="evenodd"/>
<path d="m260.1 216.5-2.4-3.6-1.65 7.1-0.85 2.45-0.1 0.35-0.55 1.1-0.05 0.2q3.5-2.65 5.55-4.9l0.05-2.7" fill="#0a3f28" fill-rule="evenodd"/>
<path d="m260.1 216.5-0.05 2.7q2.2-1.5 4-3.85v-0.1q-3.1-14.85-6.6-16.65 2.8 8.55 2.65 17.9" fill="#093723" fill-rule="evenodd"/>
<path d="m268.7 184.6 0.5-7.3h-9.1q-0.05 4.35 0.45 7.4l-0.1 0.55 0.1 0.05q4.1 4.1 8.15-0.7m-4.4 36.65q0.45-2.35 0.3-3.05l-0.55-2.85q-1.8 2.35-4 3.85-2.05 2.25-5.55 4.9l-2.2 4.55 0.1 0.8q3.9-2.6 7.3-6.65 1.9-1.1 4.6-1.55m-4.6 1.55 0.35-3.6-0.35 3.6" fill="#072c1d" fill-rule="evenodd"/>
<path d="m257.45 198.6h-0.1q-2.95 2.6-4.8 7.3h0.05l0.15 0.2 4.95 6.8 2.4 3.6q0.15-9.35-2.65-17.9" fill="#052518" fill-rule="evenodd"/>
<path d="m239.5 210.45-0.25 0.1-3.8 2.4-2.05 2.9-0.1 0.1q-2.15 0-1.35 2.15 2.25 0.1 3.7 0.85l0.2 0.1h0.05q2.25-5.3 4.9-5.2l0.35 0.1q0.3-2 2.5-2.45-1.85-0.85-4.15-1.05" fill="#15a266" fill-rule="evenodd"/>
<path d="m247.95 204.85-0.1 0.05-2.9 2.45q2.7-0.25 4.25 0.85l0.05 0.55 0.1-0.45-0.15-0.1 0.15 0.1q0.6-2.45 3.05-2.5-2.65-2.15-4.45-0.95" fill="#158e5b" fill-rule="evenodd"/>
<path d="m260.45 185.25 0.1-0.55q-0.5-3.05-0.45-7.4h-1.2l-0.05 6.05 1.6 1.9m-7.9 20.65q1.85-4.7 4.8-7.3-1.75-0.95-3.25 0.6l0.3-0.15-0.2 0.25-1.15 1.45-5.1 4.1q1.8-1.2 4.45 0.95l0.15 0.1" fill="#0c5638" fill-rule="evenodd"/>
<path d="m259 195.95-1.3-1.75-0.25 1.25-3.35 3.75q1.5-1.55 3.25-0.6 1.45-0.6 1.75-2.55l-0.1-0.1" fill="#16af6f" fill-rule="evenodd"/>
<path d="m260.45 185.25-1.6-1.9q-0.2 5.6-1.15 10.85l1.3 1.75q-0.45-5.25 1.45-10.7" fill="#127a4e" fill-rule="evenodd"/>
<path d="m243.4 233.25q3.15-1.25 4.5-1.55l4.4-2.25h0.1l-0.1-0.8-0.15-2.15q-1.8 1.25-4.6 1.4l0.35 3.8-0.35-3.8q-2.45 2-4.9 0.95l0.75 4.4" fill="#0e6741" fill-rule="evenodd"/>
<path d="m264.3 221.25q4.6 0.35 6.4-1.75t1.65-7.3l-0.1-1.3-0.15-0.5q-2.25 5.9-7.85 4.65l-0.2 0.3 0.55 2.85q0.15 0.7-0.3 3.05" fill="#0e6942" fill-rule="evenodd"/>
<path d="m235.9 219.05h-0.05l-0.2-0.1q-1.3 1.8-2.55 5.7l-2.55 6.75 0.6 1q3.7-0.15 10.75-3.25v-0.1q-1.25-7.7-6-10m-0.25 7.15-2.25 3.65 1.7-4.15 0.95-0.5-0.4-0.85 1.1-2.1 0.95 0.8-1.2 1.6 0.45 1.3-1.3 0.25" fill="#cfe391" fill-rule="evenodd"/>
<path d="m231.95 218.1q-1.45 2.5-3 6.2l-1.4 4.8 3 2.3 2.55-6.75q1.25-3.9 2.55-5.7-1.45-0.75-3.7-0.85m3.7 8.1 1.3-0.25-0.45-1.3 1.2-1.6-0.95-0.8-1.1 2.1 0.4 0.85-0.95 0.5-1.7 4.15 2.25-3.65" fill="#e4efc2" fill-rule="evenodd"/>
<path d="m227.55 229.1-0.4 1.2 5 4.4 9.7-0.9 0.05-4.65q-7.05 3.1-10.75 3.25l-0.6-1-3-2.3" fill="#accf41" fill-rule="evenodd"/>
<path d="m254.5 224.1 0.05-0.2 0.55-1.1 0.1-0.35q-1.45-11.3-5.85-14.15l-0.1 0.45-0.05-0.55q-0.7 2.55-5.25 3.05l-0.3 0.25q7.1 2.95 8.5 14.9l2.35-2.3" fill="#16ad6d" fill-rule="evenodd"/>
<path d="m244.95 207.35-5.45 3.1q2.3 0.2 4.15 1.05l0.3-0.25q4.55-0.5 5.25-3.05-1.55-1.1-4.25-0.85" fill="#1cd988" fill-rule="evenodd"/>
<path d="m252.3 228.65 2.2-4.55-2.35 2.3v0.1l0.15 2.15" fill="#128d59" fill-rule="evenodd"/>
<path d="m268.7 184.6q-4.05 4.8-8.15 0.7l-0.1-0.05m-1.45 10.7-1.3-1.75m1.4 1.85-0.1-0.1m-1.55 2.65h-0.1q-1.75-0.95-3.25 0.6m5-3.15q3.35 3.05 8.8-1.1l0.1-0.05m2.25 7.25q-2.7 5.1-7.35 2.7m1.4 16.4q0.45-2.35 0.3-3.05l-0.55-2.85v-0.1q-3.1-14.85-6.6-16.65 2.8 8.55 2.65 17.9l-0.05 2.7-0.35 3.6m-2-9.9 2.4 3.6m-5.6 7.6 0.05-0.2 0.55-1.1 0.1-0.35 0.85-2.45 1.65-7.1-4.95-6.8-0.15-0.2m1.8-6.85-0.2 0.25m-6.25 5.55-0.1 0.05m-8.35 5.55-0.25 0.1m13.15-4.75q-2.65-2.15-4.45-0.95m1.4 3.45q4.4 2.85 5.85 14.15m-5.85-14.15-0.15-0.1q-1.55-1.1-4.25-0.85m-9.05 11.7h-0.05m-0.2-0.1q-1.45-0.75-3.7-0.85m9.95 11.05-0.05 4.65m-5.95-14.75q4.75 2.3 6 10v0.1m10.5 0.3-0.1-0.8 2.2-4.55m-2.35 2.3q-1.4-11.95-8.5-14.9-1.85-0.85-4.15-1.05m12.65 16.05 0.15 2.15m-0.15-2.15v-0.1m-4.25 5.3-0.35-3.8q-1.05-9.4-6.4-13.95m1.5 14.9 0.75 4.4m-5.75-14.5q4.05 2.35 5 10.1m10.1-22.75q3 6.05 3.3 13.9" fill="none" stroke="#000" stroke-linecap="round" stroke-linejoin="round" stroke-opacity=".30196" stroke-width=".05"/>
<path d="m268 194.9v0.4m-13.9 3.9 0.3-0.15" fill="none" stroke="#000" stroke-linecap="round" stroke-linejoin="round" stroke-opacity=".30196" stroke-width=".05"/>
<path d="m269.2 177.3-0.5 7.3m-8.25 0.65 0.1-0.55q-0.5-3.05-0.45-7.4m-1.25 6.05 0.05-6.05h1.2m-1.25 6.05 1.6 1.9m-2.75 8.95q0.95-5.25 1.15-10.85m-4.75 15.85 3.35-3.75 0.25-1.25m10.3 1.1 0.5 1.95 1.75 4.8v0.1m-2.25-7.25 0.7-10.3m3.4 25.8 0.15 0.5 0.1 1.3q0.15 5.2-1.65 7.3t-6.4 1.75m7.8-10.85-1.85-8.25m-16.05-2.85-1.15 1.45-5.1 4.1m-0.1 0.05-2.9 2.45-5.45 3.1m-0.25 0.1-3.8 2.4-2.05 2.9-0.1 0.1q-2.15 0-1.35 2.15-1.45 2.5-3 6.2l-1.4 4.8-0.4 1.2 5 4.4 9.7-0.9q0.3 0.45 0.8 0.25l0.75-0.8q3.15-1.25 4.5-1.55l4.4-2.25h0.1q3.9-2.6 7.3-6.65 1.9-1.1 4.6-1.55" fill="none" stroke="#000" stroke-linecap="round" stroke-linejoin="round" stroke-opacity=".6" stroke-width=".5"/>
</g>
</defs>
</svg>
