<?xml version="1.0" encoding="UTF-8" standalone="no"?>
<!DOCTYPE svg PUBLIC "-//W3C//DTD SVG 1.1//EN" "http://www.w3.org/Graphics/SVG/1.1/DTD/svg11.dtd">
<svg width="100%" height="100%" viewBox="0 0 16 34" version="1.1" xmlns="http://www.w3.org/2000/svg" xmlns:xlink="http://www.w3.org/1999/xlink" xml:space="preserve" xmlns:serif="http://www.serif.com/" style="fill-rule:evenodd;clip-rule:evenodd;stroke-linecap:round;stroke-linejoin:round;">
    <g transform="matrix(1,0,0,1,-267.225,-183.725)">
        <g>
            <g id="shape0">
                <path d="M279.05,206.35C279.583,208.55 280.417,210.383 281.55,211.85L282.65,212.75L280.95,212.75L280.95,212.7C279.317,211.333 278.15,209.8 277.45,208.1L277.35,207.9L277.45,206.5L278.05,206.1L279.05,206.35M277.8,213.25L277.6,213.55L277.55,214L277.55,214.2C277.417,214.833 277.067,215.233 276.5,215.4L275.1,215.6L275,215.6C274.3,214.3 273.75,212.583 273.35,210.45L274.25,210.15L275.45,210.5L275.75,210.2L275.6,208.65L276.1,208.2L276.55,208.2L276.55,208.25C276.65,210.05 277.083,211.7 277.85,213.2L277.8,213.25M270.95,216L270.75,216.15L270.1,216.45C268.4,214.65 267.45,212.6 267.25,210.3L267.35,209.15C267.383,208.017 267.533,206.317 267.8,204.05L269.35,203.85L270.8,205.1L271.2,206.15L270.8,209.7C270.633,211.9 270.683,214 270.95,216M276.05,206.1L275.1,205.85L274.65,205.15L275.05,204.2L275.05,204.15L276.05,204.35L276.1,204.35L276.05,206.1" style="fill:#4d4f04;"/>
                <path d="M280.3,212.75L277.95,213.2L277.85,213.2C277.083,211.7 276.65,210.05 276.55,208.25L276.85,208.3L277.35,207.9L277.45,208.1C278.15,209.8 279.317,211.333 280.95,212.7L280.3,212.75M275,215.6L273.55,215.6C272.417,215.567 271.55,215.7 270.95,216C270.683,214 270.633,211.9 270.8,209.7L271.85,211.2L272.35,211.3L273.3,210.5L273.35,210.45C273.75,212.583 274.3,214.3 275,215.6M270.1,216.45L270.75,217.05L270.75,217.1C269.217,217.233 268.05,216.95 267.25,216.25L267.25,210.3C267.45,212.6 268.4,214.65 270.1,216.45" style="fill:#2c2d02;"/>
                <path d="M273.3,210.5L273.35,210.45L273.3,210.5" style="fill:#0284c1;"/>
                <path d="M270.75,217.05L270.8,217.1L270.75,217.1L270.75,217.05" style="fill:#cf0;"/>
                <path d="M282.65,212.75L282.7,212.75L282.75,212.8L282.6,212.75L282.65,212.75M280.95,212.75L280.3,212.75L280.95,212.7L280.95,212.75M277.9,213.2L277.8,213.25L277.85,213.2L277.9,213.2" style="fill:#555ba0;"/>
                <path d="M267.8,204.05L268,201.95L268.6,194.65C268.7,191.95 268.533,189.517 268.1,187.35C271.367,186.617 274.017,185.417 276.05,183.75C276.717,184.517 277.15,185.367 277.35,186.3L277.4,186.45L277.7,193.3L277.7,193.5C277.8,196.3 277.983,198.783 278.25,200.95L278.25,201.1C278.383,203.033 278.65,204.783 279.05,206.35L278.05,206.1L277.45,206.5L277.35,207.9C277.017,207.1 276.8,206.267 276.7,205.4L276.55,208.2L276.1,208.2L275.6,208.65L275.75,210.2L275.45,210.5L274.25,210.15L273.35,210.45C272.85,207.75 272.583,204.383 272.55,200.35C271.95,202.35 271.5,204.283 271.2,206.15L270.8,205.1L269.35,203.85L267.8,204.05M276.05,206.1L276.1,204.35L276.05,204.35L275.05,204.15L275.05,204.2L274.65,205.15L275.1,205.85L276.05,206.1" style="fill:#ae9937;"/>
                <path d="M271.2,206.15C271.5,204.283 271.95,202.35 272.55,200.35C272.583,204.383 272.85,207.75 273.35,210.45L273.3,210.5L272.35,211.3L271.85,211.2L270.8,209.7L271.2,206.15M276.55,208.2L276.7,205.4C276.8,206.267 277.017,207.1 277.35,207.9L276.85,208.3L276.55,208.25L276.55,208.2" style="fill:#7c6d27;"/>
                <path d="M276.05,183.75C276.717,184.517 277.15,185.367 277.35,186.3L277.4,186.45L277.7,193.3L277.7,193.5C277.8,196.3 277.983,198.783 278.25,200.95L278.25,201.1C278.383,203.033 278.65,204.783 279.05,206.35C279.583,208.55 280.417,210.383 281.55,211.85L282.65,212.75L282.7,212.75L282.75,212.8L282.6,212.75L280.3,212.75L277.95,213.2L277.9,213.2M277.8,213.25L277.6,213.55L277.55,214L277.55,214.2C277.417,214.833 277.067,215.233 276.5,215.4L275.1,215.6L273.55,215.6C272.417,215.567 271.55,215.7 270.95,216L270.75,216.15L270.1,216.45L270.75,217.05L270.8,217.1L270.75,217.1C269.217,217.233 268.05,216.95 267.25,216.25M277.85,213.2L277.8,213.25M270.1,216.45C268.4,214.65 267.45,212.6 267.25,210.3" style="fill:none;fill-rule:nonzero;stroke:#0f121c;stroke-width:0.05px;"/>
            </g>
            <g id="shape1" transform="matrix(1,0,0,1,273.35,192.5)">
                <path d="M2.7,1.15L2.75,1.25L2.75,1.55L2.7,1.5L2.5,1.2L2.7,1.15M3.2,1.75L2.85,2.25L2.3,2.5L1.7,2.6L1.2,2.65L0.8,2.6L0.8,2.5L0.85,2.45L1.35,2.45L1.95,2.4L2.5,2.2L3.05,1.7L3.05,1.6L3.2,1.6L3.2,1.75" style="fill:#c6bcad;"/>
                <path d="M2.7,1.15L2.5,1.2L2.7,1.5L2.75,1.55L2.75,1.25L2.7,1.15M3.2,1.6L3.05,1.6L3.05,1.7L2.5,2.2L1.95,2.4L1.35,2.45L0.85,2.45L0.8,2.5L0.8,2.6L1.2,2.65L1.7,2.6L2.3,2.5L2.85,2.25L3.2,1.75C3.2,2.017 3.017,2.25 2.65,2.45L1.2,2.7L-0.2,2.45L-0.5,2.25L-0.55,2.2L-0.45,2.2L-0.15,2.3L-0.1,2.25L-0.2,2.15L-0.75,1.95L-0.95,1.9C-1.283,1.767 -1.217,1.633 -0.75,1.5L-0.3,1.4L0.05,1.3L0.3,0.85L0.35,0.9L0.75,1L1.15,0.9L1.35,0.75L2.65,1.05L3.2,1.6M-0.6,1.65L-0.45,1.7L-0.4,1.65L-0.5,1.55L-0.6,1.65" style="fill:#856547;"/>
                <path d="M-0.2,2.15L-0.1,2.25L-0.15,2.3L-0.45,2.2L-0.2,2.15M-0.6,1.65L-0.5,1.55L-0.4,1.65L-0.45,1.7L-0.6,1.65" style="fill:#403023;"/>
                <path d="M-0.3,2.3L-0.05,2.2L-0.3,2.1L-1.45,2.1L-1.7,2.2L-1.45,2.3L-0.3,2.3M-2.65,1.7L-2.5,1.75L-2.15,1.8L-1.75,1.75L-1.6,1.7L-1.95,1.6L-2.3,1.55L-2.5,1.6L-2.65,1.7M-3.05,2.65L-3.15,2.7L-3.05,2.75L-2.3,2.75L-2.15,2.7L-2.3,2.65L-2.65,2.6L-3.05,2.65" style="fill:#856547;"/>
            </g>
            <g id="sprite0" transform="matrix(0.1551,0,0,0.1551,274.65,192.3)">
                <g id="shape2">
                    <path d="M-12,-16.45C-6.533,-16.483 -1.717,-14.533 2.45,-10.6C8.683,-4.733 9.633,0.417 5.3,4.85C4.633,5.517 3.85,6.117 2.95,6.65L3.2,7.1L3.25,7.15L3.6,8.05L3.9,8.65L3.9,8.75C8.167,11.25 9.167,12.6 6.9,12.8L3.25,13.05C4.183,14.383 4.017,14.883 2.75,14.55L0,14C-3.667,15.8 -5.717,15.55 -6.15,13.25C-11.083,13.017 -12.317,11.733 -9.85,9.4L-10.3,8.05L-10.55,7.15L-10.55,7.1C-18.65,3.2 -23.167,-1.65 -24.1,-7.45C-25.033,-13.283 -21,-16.283 -12,-16.45" style="fill:#b4a45d;"/>
                    <path d="M-12,-16.45C-6.533,-16.483 -1.717,-14.533 2.45,-10.6C8.683,-4.733 9.633,0.417 5.3,4.85C4.633,5.517 3.85,6.117 2.95,6.65L3.2,7.1L3.25,7.15L3.6,8.05L3.9,8.65L3.9,8.75C8.167,11.25 9.167,12.6 6.9,12.8L3.25,13.05C4.183,14.383 4.017,14.883 2.75,14.55L0,14C-3.667,15.8 -5.717,15.55 -6.15,13.25C-11.083,13.017 -12.317,11.733 -9.85,9.4L-10.3,8.05L-10.55,7.15L-10.55,7.1C-18.65,3.2 -23.167,-1.65 -24.1,-7.45C-25.033,-13.283 -21,-16.283 -12,-16.45Z" style="fill:none;fill-rule:nonzero;stroke:#856547;stroke-width:1px;"/>
                </g>
                <g>
                    <clipPath id="_clip1">
                        <path d="M-12.3,-17.25C-6.633,-16.75 -1.717,-14.533 2.45,-10.6C8.683,-4.733 9.633,0.417 5.3,4.85C4.633,5.517 3.85,6.117 2.95,6.65L3.2,7.1L3.6,8.05L3.9,8.65L3.9,8.75C8.167,11.25 9.167,12.6 6.9,12.8L3.25,13.05C4.183,14.383 4.017,14.883 2.75,14.55L0,14C-3.667,15.8 -5.717,15.55 -6.15,13.25C-11.083,13.017 -12.317,11.733 -9.85,9.4L-10.3,8.05L-10.55,7.15L-10.55,7.1C-18.65,3.2 -22.983,-1.7 -23.55,-7.6C-24.15,-13.5 -20.4,-16.717 -12.3,-17.25"/>
                    </clipPath>
                    <g clip-path="url(#_clip1)">
                        <g id="shape4" transform="matrix(0.14,0,0.052,0.14,-14.15,18.6)">
                            <path d="M0,12.95C0,10.35 0.333,7.9 1,5.6C1.167,11.833 3.45,17.15 7.85,21.55C12.45,26.15 18,28.45 24.5,28.45C31,28.45 36.533,26.15 41.1,21.55C45.7,16.983 48,11.45 48,4.95C48,3.217 47.85,1.567 47.55,0C49.75,3.667 50.9,7.767 51,12.3C52.1,15.733 54.017,18.817 56.75,21.55C61.35,26.15 66.9,28.45 73.4,28.45C79.9,28.45 85.433,26.15 90,21.55C94.6,16.983 96.9,11.45 96.9,4.95C96.9,3.217 96.75,1.567 96.45,0C98.75,3.833 99.9,8.15 99.9,12.95C99.9,19.983 97.4,25.983 92.4,30.95C87.433,35.95 81.433,38.45 74.4,38.45C67.367,38.45 61.35,35.95 56.35,30.95C53.25,27.85 51.117,24.35 49.95,20.45C48.783,24.35 46.633,27.85 43.5,30.95C38.533,35.95 32.533,38.45 25.5,38.45C18.467,38.45 12.45,35.95 7.45,30.95C2.483,25.983 0,19.983 0,12.95" style="fill:#865f09;"/>
                            <path d="M96.5,12.95C96.5,10.35 96.833,7.9 97.5,5.6C97.667,11.833 99.95,17.15 104.35,21.55C108.95,26.15 114.5,28.45 121,28.45C127.5,28.45 133.033,26.15 137.6,21.55C142.2,16.983 144.5,11.45 144.5,4.95C144.5,3.217 144.35,1.567 144.05,0C146.25,3.667 147.4,7.767 147.5,12.3C148.6,15.733 150.517,18.817 153.25,21.55C157.85,26.15 163.4,28.45 169.9,28.45C176.4,28.45 181.933,26.15 186.5,21.55C191.1,16.983 193.4,11.45 193.4,4.95C193.4,3.217 193.25,1.567 192.95,0C195.25,3.833 196.4,8.15 196.4,12.95C196.4,19.983 193.9,25.983 188.9,30.95C183.933,35.95 177.933,38.45 170.9,38.45C163.867,38.45 157.85,35.95 152.85,30.95C149.75,27.85 147.617,24.35 146.45,20.45C145.283,24.35 143.133,27.85 140,30.95C135.033,35.95 129.033,38.45 122,38.45C114.967,38.45 108.95,35.95 103.95,30.95C98.983,25.983 96.5,19.983 96.5,12.95" style="fill:#865f09;"/>
                            <path d="M0,78.15C0,75.55 0.333,73.1 1,70.8C1.167,77.033 3.45,82.35 7.85,86.75C12.45,91.35 18,93.65 24.5,93.65C31,93.65 36.533,91.35 41.1,86.75C45.7,82.183 48,76.65 48,70.15C48,68.417 47.85,66.767 47.55,65.2C49.75,68.867 50.9,72.967 51,77.5C52.1,80.933 54.017,84.017 56.75,86.75C61.35,91.35 66.9,93.65 73.4,93.65C79.9,93.65 85.433,91.35 90,86.75C94.6,82.183 96.9,76.65 96.9,70.15C96.9,68.417 96.75,66.767 96.45,65.2C98.75,69.033 99.9,73.35 99.9,78.15C99.9,85.183 97.4,91.183 92.4,96.15C87.433,101.15 81.433,103.65 74.4,103.65C67.367,103.65 61.35,101.15 56.35,96.15C53.25,93.05 51.117,89.55 49.95,85.65C48.783,89.55 46.633,93.05 43.5,96.15C38.533,101.15 32.533,103.65 25.5,103.65C18.467,103.65 12.45,101.15 7.45,96.15C2.483,91.183 0,85.183 0,78.15" style="fill:#865f09;"/>
                            <path d="M92.9,61.4C92.9,58.8 93.233,56.35 93.9,54.05C94.067,60.283 96.35,65.6 100.75,70C105.35,74.6 110.9,76.9 117.4,76.9C123.9,76.9 129.433,74.6 134,70C138.6,65.433 140.9,59.9 140.9,53.4C140.9,51.667 140.75,50.017 140.45,48.45C142.65,52.117 143.8,56.217 143.9,60.75C145,64.183 146.917,67.267 149.65,70C154.25,74.6 159.8,76.9 166.3,76.9C172.8,76.9 178.333,74.6 182.9,70C187.5,65.433 189.8,59.9 189.8,53.4C189.8,51.667 189.65,50.017 189.35,48.45C191.65,52.283 192.8,56.6 192.8,61.4C192.8,68.433 190.3,74.433 185.3,79.4C180.333,84.4 174.333,86.9 167.3,86.9C160.267,86.9 154.25,84.4 149.25,79.4C146.15,76.3 144.017,72.8 142.85,68.9C141.683,72.8 139.533,76.3 136.4,79.4C131.433,84.4 125.433,86.9 118.4,86.9C111.367,86.9 105.35,84.4 100.35,79.4C95.383,74.433 92.9,68.433 92.9,61.4" style="fill:#865f09;"/>
                            <path d="M96.5,153.15C96.5,150.55 96.833,148.1 97.5,145.8C97.667,152.033 99.95,157.35 104.35,161.75C108.95,166.35 114.5,168.65 121,168.65C127.5,168.65 133.033,166.35 137.6,161.75C142.2,157.183 144.5,151.65 144.5,145.15C144.5,143.417 144.35,141.767 144.05,140.2C146.25,143.867 147.4,147.967 147.5,152.5C148.6,155.933 150.517,159.017 153.25,161.75C157.85,166.35 163.4,168.65 169.9,168.65C176.4,168.65 181.933,166.35 186.5,161.75C191.1,157.183 193.4,151.65 193.4,145.15C193.4,143.417 193.25,141.767 192.95,140.2C195.25,144.033 196.4,148.35 196.4,153.15C196.4,160.183 193.9,166.183 188.9,171.15C183.933,176.15 177.933,178.65 170.9,178.65C163.867,178.65 157.85,176.15 152.85,171.15C149.75,168.05 147.617,164.55 146.45,160.65C145.283,164.55 143.133,168.05 140,171.15C135.033,176.15 129.033,178.65 122,178.65C114.967,178.65 108.95,176.15 103.95,171.15C98.983,166.183 96.5,160.183 96.5,153.15" style="fill:#865f09;"/>
                            <path d="M40.85,124.15C40.85,121.55 41.183,119.1 41.85,116.8C42.017,123.033 44.3,128.35 48.7,132.75C53.3,137.35 58.85,139.65 65.35,139.65C71.85,139.65 77.383,137.35 81.95,132.75C86.55,128.183 88.85,122.65 88.85,116.15C88.85,114.417 88.7,112.767 88.4,111.2C90.6,114.867 91.75,118.967 91.85,123.5C92.95,126.933 94.867,130.017 97.6,132.75C102.2,137.35 107.75,139.65 114.25,139.65C120.75,139.65 126.283,137.35 130.85,132.75C135.45,128.183 137.75,122.65 137.75,116.15C137.75,114.417 137.6,112.767 137.3,111.2C139.6,115.033 140.75,119.35 140.75,124.15C140.75,131.183 138.25,137.183 133.25,142.15C128.283,147.15 122.283,149.65 115.25,149.65C108.217,149.65 102.2,147.15 97.2,142.15C94.1,139.05 91.967,135.55 90.8,131.65C89.633,135.55 87.483,139.05 84.35,142.15C79.383,147.15 73.383,149.65 66.35,149.65C59.317,149.65 53.3,147.15 48.3,142.15C43.333,137.183 40.85,131.183 40.85,124.15" style="fill:#865f09;"/>
                        </g>
                        <g id="shape41" serif:id="shape4" transform="matrix(0.14,0,0.052,0.14,-24.05,-7.9)">
                            <path d="M0,12.95C0,10.35 0.333,7.9 1,5.6C1.167,11.833 3.45,17.15 7.85,21.55C12.45,26.15 18,28.45 24.5,28.45C31,28.45 36.533,26.15 41.1,21.55C45.7,16.983 48,11.45 48,4.95C48,3.217 47.85,1.567 47.55,0C49.75,3.667 50.9,7.767 51,12.3C52.1,15.733 54.017,18.817 56.75,21.55C61.35,26.15 66.9,28.45 73.4,28.45C79.9,28.45 85.433,26.15 90,21.55C94.6,16.983 96.9,11.45 96.9,4.95C96.9,3.217 96.75,1.567 96.45,0C98.75,3.833 99.9,8.15 99.9,12.95C99.9,19.983 97.4,25.983 92.4,30.95C87.433,35.95 81.433,38.45 74.4,38.45C67.367,38.45 61.35,35.95 56.35,30.95C53.25,27.85 51.117,24.35 49.95,20.45C48.783,24.35 46.633,27.85 43.5,30.95C38.533,35.95 32.533,38.45 25.5,38.45C18.467,38.45 12.45,35.95 7.45,30.95C2.483,25.983 0,19.983 0,12.95" style="fill:#865f09;"/>
                            <path d="M96.5,12.95C96.5,10.35 96.833,7.9 97.5,5.6C97.667,11.833 99.95,17.15 104.35,21.55C108.95,26.15 114.5,28.45 121,28.45C127.5,28.45 133.033,26.15 137.6,21.55C142.2,16.983 144.5,11.45 144.5,4.95C144.5,3.217 144.35,1.567 144.05,0C146.25,3.667 147.4,7.767 147.5,12.3C148.6,15.733 150.517,18.817 153.25,21.55C157.85,26.15 163.4,28.45 169.9,28.45C176.4,28.45 181.933,26.15 186.5,21.55C191.1,16.983 193.4,11.45 193.4,4.95C193.4,3.217 193.25,1.567 192.95,0C195.25,3.833 196.4,8.15 196.4,12.95C196.4,19.983 193.9,25.983 188.9,30.95C183.933,35.95 177.933,38.45 170.9,38.45C163.867,38.45 157.85,35.95 152.85,30.95C149.75,27.85 147.617,24.35 146.45,20.45C145.283,24.35 143.133,27.85 140,30.95C135.033,35.95 129.033,38.45 122,38.45C114.967,38.45 108.95,35.95 103.95,30.95C98.983,25.983 96.5,19.983 96.5,12.95" style="fill:#865f09;"/>
                            <path d="M0,78.15C0,75.55 0.333,73.1 1,70.8C1.167,77.033 3.45,82.35 7.85,86.75C12.45,91.35 18,93.65 24.5,93.65C31,93.65 36.533,91.35 41.1,86.75C45.7,82.183 48,76.65 48,70.15C48,68.417 47.85,66.767 47.55,65.2C49.75,68.867 50.9,72.967 51,77.5C52.1,80.933 54.017,84.017 56.75,86.75C61.35,91.35 66.9,93.65 73.4,93.65C79.9,93.65 85.433,91.35 90,86.75C94.6,82.183 96.9,76.65 96.9,70.15C96.9,68.417 96.75,66.767 96.45,65.2C98.75,69.033 99.9,73.35 99.9,78.15C99.9,85.183 97.4,91.183 92.4,96.15C87.433,101.15 81.433,103.65 74.4,103.65C67.367,103.65 61.35,101.15 56.35,96.15C53.25,93.05 51.117,89.55 49.95,85.65C48.783,89.55 46.633,93.05 43.5,96.15C38.533,101.15 32.533,103.65 25.5,103.65C18.467,103.65 12.45,101.15 7.45,96.15C2.483,91.183 0,85.183 0,78.15" style="fill:#865f09;"/>
                            <path d="M92.9,61.4C92.9,58.8 93.233,56.35 93.9,54.05C94.067,60.283 96.35,65.6 100.75,70C105.35,74.6 110.9,76.9 117.4,76.9C123.9,76.9 129.433,74.6 134,70C138.6,65.433 140.9,59.9 140.9,53.4C140.9,51.667 140.75,50.017 140.45,48.45C142.65,52.117 143.8,56.217 143.9,60.75C145,64.183 146.917,67.267 149.65,70C154.25,74.6 159.8,76.9 166.3,76.9C172.8,76.9 178.333,74.6 182.9,70C187.5,65.433 189.8,59.9 189.8,53.4C189.8,51.667 189.65,50.017 189.35,48.45C191.65,52.283 192.8,56.6 192.8,61.4C192.8,68.433 190.3,74.433 185.3,79.4C180.333,84.4 174.333,86.9 167.3,86.9C160.267,86.9 154.25,84.4 149.25,79.4C146.15,76.3 144.017,72.8 142.85,68.9C141.683,72.8 139.533,76.3 136.4,79.4C131.433,84.4 125.433,86.9 118.4,86.9C111.367,86.9 105.35,84.4 100.35,79.4C95.383,74.433 92.9,68.433 92.9,61.4" style="fill:#865f09;"/>
                            <path d="M96.5,153.15C96.5,150.55 96.833,148.1 97.5,145.8C97.667,152.033 99.95,157.35 104.35,161.75C108.95,166.35 114.5,168.65 121,168.65C127.5,168.65 133.033,166.35 137.6,161.75C142.2,157.183 144.5,151.65 144.5,145.15C144.5,143.417 144.35,141.767 144.05,140.2C146.25,143.867 147.4,147.967 147.5,152.5C148.6,155.933 150.517,159.017 153.25,161.75C157.85,166.35 163.4,168.65 169.9,168.65C176.4,168.65 181.933,166.35 186.5,161.75C191.1,157.183 193.4,151.65 193.4,145.15C193.4,143.417 193.25,141.767 192.95,140.2C195.25,144.033 196.4,148.35 196.4,153.15C196.4,160.183 193.9,166.183 188.9,171.15C183.933,176.15 177.933,178.65 170.9,178.65C163.867,178.65 157.85,176.15 152.85,171.15C149.75,168.05 147.617,164.55 146.45,160.65C145.283,164.55 143.133,168.05 140,171.15C135.033,176.15 129.033,178.65 122,178.65C114.967,178.65 108.95,176.15 103.95,171.15C98.983,166.183 96.5,160.183 96.5,153.15" style="fill:#865f09;"/>
                            <path d="M40.85,124.15C40.85,121.55 41.183,119.1 41.85,116.8C42.017,123.033 44.3,128.35 48.7,132.75C53.3,137.35 58.85,139.65 65.35,139.65C71.85,139.65 77.383,137.35 81.95,132.75C86.55,128.183 88.85,122.65 88.85,116.15C88.85,114.417 88.7,112.767 88.4,111.2C90.6,114.867 91.75,118.967 91.85,123.5C92.95,126.933 94.867,130.017 97.6,132.75C102.2,137.35 107.75,139.65 114.25,139.65C120.75,139.65 126.283,137.35 130.85,132.75C135.45,128.183 137.75,122.65 137.75,116.15C137.75,114.417 137.6,112.767 137.3,111.2C139.6,115.033 140.75,119.35 140.75,124.15C140.75,131.183 138.25,137.183 133.25,142.15C128.283,147.15 122.283,149.65 115.25,149.65C108.217,149.65 102.2,147.15 97.2,142.15C94.1,139.05 91.967,135.55 90.8,131.65C89.633,135.55 87.483,139.05 84.35,142.15C79.383,147.15 73.383,149.65 66.35,149.65C59.317,149.65 53.3,147.15 48.3,142.15C43.333,137.183 40.85,131.183 40.85,124.15" style="fill:#865f09;"/>
                        </g>
                        <g id="shape5">
                            <path d="M3.15,18.05L-1.7,18.05C-3.2,19.717 -5.117,19.083 -7.45,16.15C-11.583,15.65 -13.9,13.7 -14.4,10.3C-14.533,9.7 -14.317,9.317 -13.75,9.15L-11.35,9.2L-11.6,8.65C-13.767,4.383 -13.283,1.033 -10.15,-1.4C-7.45,-0.333 -6.517,1.267 -7.35,3.4C-8.05,5.067 -8,6.817 -7.2,8.65C-6.633,9.983 -5.817,11.333 -4.75,12.7L-3.95,13.2L-3.75,13.3C-1.183,12.767 1.433,13.033 4.1,14.1C4.9,14.433 5.383,14.983 5.55,15.75C5.883,17.35 5.083,18.117 3.15,18.05" style="fill:#725209;fill-opacity:0.34;"/>
                        </g>
                    </g>
                </g>
                <g id="shape6">
                    <path d="M0.4,-6.9C-4.367,-13.033 -5.583,-15.4 -3.25,-14C-0.917,-12.6 0.9,-11.117 2.2,-9.55C4.633,-6.55 5,-5.433 3.3,-6.2C1.6,-6.933 0.633,-7.167 0.4,-6.9" style="fill:#473409;"/>
                    <path d="M-14.3,-14.9L-13.7,-14.9C-7.167,-14.467 -4.117,-11.483 -4.55,-5.95C-7.717,-3.517 -11.733,-2.8 -16.6,-3.8C-21.7,-8.967 -20.933,-12.667 -14.3,-14.9" style="fill:#473409;"/>
                    <path d="M3.5,3.45L2.2,3.5L-1.3,3.8L-4.5,4L-3.45,2.55L-9.4,-2.2C-6.167,-4.467 -1.483,-5.517 4.65,-5.35C7.15,-1.717 6.8,1.217 3.6,3.45L3.5,3.45" style="fill:#473409;"/>
                    <path d="M2.65,7.45C3.183,7.783 3,7.983 2.1,8.05C2.267,7.483 2.45,7.283 2.65,7.45" style="fill:#b18609;"/>
                    <path d="M-9,-11.65C-10.133,-11.917 -11.1,-12.367 -11.9,-13C-12.7,-13.633 -13.1,-14.25 -13.1,-14.85C-13.167,-15.45 -12.817,-15.867 -12.05,-16.1L-9.2,-15.95C-8.067,-15.65 -7.1,-15.183 -6.3,-14.55C-5.5,-13.95 -5.067,-13.35 -5,-12.75C-5,-12.15 -5.383,-11.733 -6.15,-11.5L-9,-11.65" style="fill:#c6bcad;"/>
                    <path d="M4.45,-3C0.45,-3.367 -3.017,-2.75 -5.95,-1.15L-8.15,-2.2C-5.983,-4.067 -2.117,-5.083 3.45,-5.25L4.45,-3" style="fill:#dad8d5;"/>
                    <path d="M4.5,1.95C3.333,2.95 1.283,3.483 -1.65,3.55L-2.15,2.4C-0.05,2.567 1.783,2.25 3.35,1.45L4.5,1.95" style="fill:#dad8d5;"/>
                    <path d="M7,11.5L7.3,12.2L6.7,12.3C6.333,12.267 5.95,12.1 5.55,11.8L4.55,10.9C4.283,10.567 4.183,10.333 4.25,10.2C4.283,10.033 4.467,9.983 4.8,10.05C5.167,10.15 5.567,10.333 6,10.6L7,11.5" style="fill:#c6bcad;"/>
                    <path d="M3.05,13L3.25,13.45L2.9,13.5L2.3,13.25L1.75,12.75L1.55,12.35L1.9,12.25L2.5,12.55L3.05,13" style="fill:#c6bcad;"/>
                </g>
            </g>
        </g>
    </g>
</svg>
