<?xml version="1.0" encoding="UTF-8" standalone="no"?>
<!DOCTYPE svg PUBLIC "-//W3C//DTD SVG 1.1//EN" "http://www.w3.org/Graphics/SVG/1.1/DTD/svg11.dtd">
<svg width="100%" height="100%" viewBox="0 0 59 87" version="1.1" xmlns="http://www.w3.org/2000/svg" xmlns:xlink="http://www.w3.org/1999/xlink" xml:space="preserve" xmlns:serif="http://www.serif.com/" style="fill-rule:evenodd;clip-rule:evenodd;stroke-linecap:round;stroke-linejoin:round;">
    <g transform="matrix(1,0,0,1,0.005,-8.17957e-13)">
        <g transform="matrix(-1,0,0,1,304.42,-156.83)">
            <g id="a">
                <path d="M249.35,225.3L249.3,224.6C249.267,215.067 251.95,206.933 257.35,200.2C262.517,193.733 268.683,190.367 275.85,190.1C285.783,193.8 290.967,200.85 291.4,211.25C290.1,217.65 287,222.333 282.1,225.3C271.167,231.733 260.25,231.733 249.35,225.3" style="fill:#c30;"/>
                <path d="M275.85,190.1L276.85,190.1C282.25,190.067 287.1,191.767 291.4,195.2C293.1,196.567 294.733,198.233 296.3,200.2C301.7,206.933 304.4,215.067 304.4,224.6C304.4,226.467 304.017,228.367 303.25,230.3C288.083,241.333 270.9,242.317 251.7,233.25C250.267,229.817 249.483,227.167 249.35,225.3C260.25,231.733 271.167,231.733 282.1,225.3C287,222.333 290.1,217.65 291.4,211.25C290.967,200.85 285.783,193.8 275.85,190.1" style="fill:#900;"/>
                <path d="M275.85,190.1L276.85,190.1C282.25,190.067 287.1,191.767 291.4,195.2C293.1,196.567 294.733,198.233 296.3,200.2C301.7,206.933 304.4,215.067 304.4,224.6C304.4,226.467 304.017,228.367 303.25,230.3M251.7,233.25C250.267,229.817 249.483,227.167 249.35,225.3L249.3,224.6C249.267,215.067 251.95,206.933 257.35,200.2C262.517,193.733 268.683,190.367 275.85,190.1" style="fill:none;fill-rule:nonzero;stroke:#000;stroke-opacity:0.4;stroke-width:0.05px;"/>
                <path d="M303.25,230.3C288.083,241.333 270.9,242.317 251.7,233.25" style="fill:none;fill-rule:nonzero;stroke:#000;stroke-opacity:0.4;stroke-width:0.05px;"/>
                <path d="M280.3,156.9L277.75,166.5L281.45,163L281.05,169.05L280.85,170.7C279.117,171.833 277.4,173.017 275.7,174.25L276.25,172.1L277.75,166.5L276.25,172.1L272.75,167.8C274.45,163.467 276.667,159.9 279.4,157.1C279.767,156.867 280.067,156.8 280.3,156.9M280.35,173.6C279.95,175.7 279.383,177.817 278.65,179.95L272.85,184.7L269.75,196.3C268.317,193.067 268.383,186.983 269.95,178.05L270.15,177.2L273.25,183.2L275.25,175.85L280.35,173.6M273.25,183.2L272.85,184.7L273.25,183.2" style="fill:#c30;"/>
                <path d="M280.3,156.9C281.167,157.167 281.55,159.2 281.45,163L277.75,166.5L280.3,156.9M280.85,170.7L280.35,173.6L275.25,175.85L275.7,174.25L275.25,175.85L273.25,183.2L270.15,177.2C270.783,173.733 271.65,170.6 272.75,167.8L276.25,172.1L275.7,174.25C277.4,173.017 279.117,171.833 280.85,170.7M278.65,179.95C276.783,185.517 273.85,191.05 269.85,196.55L269.75,196.3L272.85,184.7L278.65,179.95" style="fill:#900;"/>
                <path d="M281.45,163C281.55,159.2 281.167,157.167 280.3,156.9L277.75,166.5L276.25,172.1L275.7,174.25L275.25,175.85M281.45,163L281.05,169.05L280.85,170.7L280.35,173.6C279.95,175.7 279.383,177.817 278.65,179.95C276.783,185.517 273.85,191.05 269.85,196.55L269.75,196.3C268.317,193.067 268.383,186.983 269.95,178.05L270.15,177.2C270.783,173.733 271.65,170.6 272.75,167.8C274.45,163.467 276.667,159.9 279.4,157.1C279.767,156.867 280.067,156.8 280.3,156.9M272.85,184.7L273.25,183.2L275.25,175.85M269.75,196.3L272.85,184.7" style="fill:none;fill-rule:nonzero;stroke:#000;stroke-opacity:0.4;stroke-width:0.05px;"/>
                <path d="M264.5,222.95C263.933,222.95 263.417,222.633 262.95,222C262.583,221.467 262.4,220.783 262.4,219.95C262.4,219.083 262.583,218.35 262.95,217.75C263.417,217.183 263.933,216.9 264.5,216.9C265.033,216.9 265.5,217.183 265.9,217.75C266.333,218.35 266.55,219.083 266.55,219.95C266.55,220.783 266.333,221.467 265.9,222C265.5,222.633 265.033,222.95 264.5,222.95"/>
                <path d="M252.85,219C252.417,219 252.017,218.75 251.65,218.25C251.317,217.783 251.15,217.217 251.15,216.55C251.15,215.85 251.317,215.25 251.65,214.75C252.017,214.283 252.417,214.05 252.85,214.05C253.317,214.05 253.717,214.283 254.05,214.75C254.417,215.25 254.6,215.85 254.6,216.55C254.6,217.217 254.417,217.783 254.05,218.25C253.717,218.75 253.317,219 252.85,219"/>
                <path d="M258.1,228.35L255.4,230.1C255.8,228.5 256.667,227.167 258,226.1C258.7,226.4 258.733,227.15 258.1,228.35" style="fill:#796100;"/>
                <path d="M257.95,238.7L245.5,242.25L245.5,228.15L246.8,236.95C247.367,233.817 248.35,230.467 249.75,226.9C251.15,223.367 253.7,220.733 257.4,219C263.3,222.3 267.067,227.55 268.7,234.75L263.15,237.2L257.95,238.7M258.1,228.35C258.733,227.15 258.7,226.4 258,226.1C256.667,227.167 255.8,228.5 255.4,230.1L258.1,228.35" style="fill:#fc0;"/>
                <path d="M245.5,228.15C247.8,222.583 251.767,219.533 257.4,219C253.7,220.733 251.15,223.367 249.75,226.9C248.35,230.467 247.367,233.817 246.8,236.95L245.5,228.15" style="fill:#ffdf5e;"/>
                <path d="M261.3,241.75L257.95,238.7L263.15,237.2L263.15,239.15C261.917,238.85 261.3,239.717 261.3,241.75" style="fill:#f9c;"/>
                <path d="M263.15,239.15L263.15,243.05L261.3,241.75C261.3,239.717 261.917,238.85 263.15,239.15" style="fill:#fcc;"/>
                <path d="M263.15,239.15L263.15,243.05L261.3,241.75L257.95,238.7L245.5,242.25L245.5,228.15C247.8,222.583 251.767,219.533 257.4,219C263.3,222.3 267.067,227.55 268.7,234.75L263.15,237.2L263.15,239.15M263.15,237.2L257.95,238.7" style="fill:none;fill-rule:nonzero;stroke:#000;stroke-opacity:0.4;stroke-width:0.05px;"/>
            </g>
        </g>
    </g>
</svg>
