<?xml version="1.0" encoding="UTF-8"?>
<svg version="1.1" viewBox="0 0 144.5 95.069" xmlns="http://www.w3.org/2000/svg" xmlns:cc="http://creativecommons.org/ns#" xmlns:dc="http://purl.org/dc/elements/1.1/" xmlns:rdf="http://www.w3.org/1999/02/22-rdf-syntax-ns#" xmlns:xlink="http://www.w3.org/1999/xlink">
<metadata>
<rdf:RDF>
<cc:Work rdf:about="">
<dc:format>image/svg+xml</dc:format>
<dc:type rdf:resource="http://purl.org/dc/dcmitype/StillImage"/>
</cc:Work>
</rdf:RDF>
</metadata>
<g transform="translate(-55 -109.79)">
<use transform="matrix(1 0 0 .9263 55 140.2)" width="144.5" height="67.800003" xlink:href="#c"/>
<use transform="matrix(1 -.1671 0 .8619 86.3 111.75)" width="109.25" height="87" xlink:href="#b"/>
<use transform="translate(56.3,117.85)" width="109.25" height="87" xlink:href="#b"/>
<use transform="matrix(.7701 0 .092 .7701 102.4 142.5)" width="44.799999" height="29.299999" xlink:href="#a"/>
<use transform="matrix(.4978 0 0 .4978 129.25 159.9)" width="44.799999" height="29.299999" xlink:href="#a"/>
</g>
<defs>
<g id="c">
<use width="144.5" height="67.800003" xlink:href="#f"/>
</g>
<g id="f">
<path d="m133 31q-16.45 4.35-26.25 8.3 5.9 6.75 6.3 7.6 0.45 0.85 0.45 5.8 0 4.45-1.25 7.9-2.6 7.2-9.5 7.2-11.7 0-29.4-4.65-21.35-5.6-25.6-13.05-1.35-2.3-6.7-7l-7.5-6.8q-1.3-1.5-7-2.1l-11.35-0.9q-15.2-1.45-15.2-8.15 0-2.45 1.6-3.7 1.65-1.35 8.7-4.35-0.95-2.95-2.6-4.55-1.2-1.15-1.2-3.35 0-8.95 25.85-9.2 19.85-0.2 61.9 5.1 4.15 1.35 28.25 4.55 22 3.9 22 10 0 7.35-11.5 11.35" fill-opacity=".2902" fill-rule="evenodd"/>
</g>
<g id="b">
<use width="109.25" height="87" xlink:href="#e"/>
</g>
<g id="e">
<path d="m83.4 47.5 1.3-0.35 1.75 2.5q10.25 5.1 16.75 13.25 5.3 7.6 4.5 12.25l-0.25 1q-2.8 4-7.65 5.45l-3.2 0.7 4.55-2.75q3-2.35 3-4.9-3.75-13.5-20.1-20.4-1 0.4-1.95 0.9-5.95 2.9-12.65 9.9 7.25-11.2 14.5-14.65-4.95-0.25-15.05 12.7-2.45 2.55-3.05 1.4 0.65-1.65 1.6-3.1 2.5-3.4 4.95-6 2.3-2.5 4.55-4.25 3.3-2.6 6.45-3.65m-80.95-11.65q-5.25-8.3 0.75-17.2l2.2 1.45q4 2.85 6.6 6.8-5.3-4.5-8.1-4.95l-1.1-0.05q-3.3 6.35 1.5 14.35l-2.1-1.35 0.25 0.95" fill="#d6d6d6" fill-rule="evenodd"/>
<path d="m82.1 55.15q0.95-0.5 1.95-0.9 16.35 6.9 20.1 20.4 0 2.55-3 4.9-3.6-15.1-19.05-24.4m-77.8-18.9q-4.8-8-1.5-14.35l1.1 0.05q-2 6.8 3.65 15.75l-2.15-0.85-1.1-0.6" fill="#c3c2af" fill-rule="evenodd"/>
<path d="m65.85 64.5q0.6 1.15 3.05-1.4 10.1-12.95 15.05-12.7-7.25 3.45-14.5 14.65 6.7-7 12.65-9.9 15.45 9.3 19.05 24.4l-4.55 2.75-0.6 0.05q-6.35 0.6-15.3-1.95-9.7-2.05-16.85-4.65-0.05-6.45 2-11.25m-53.85-37.6q3.55 5.4 4.45 12.75-5.15-0.55-8.9-1.95-5.65-8.95-3.65-15.75 2.8 0.45 8.1 4.95" fill="#cacabd" fill-rule="evenodd"/>
<path d="m106.05 84.1q-1.75 1.4-4.35 2.55-16.15 1.95-39.2-7.4-13-5.3-13.55-6.1-5.7-2.75-10.7-14.4-4.15-6.1-9.65-9.9-3.1-2.1-6.6-3.5l-1.2-0.45q-2.8-1.05-5.9-1.6l-0.65-0.25q-4.75-0.7-7.55-1.7l-1.3-4.5 2.15 0.85q3.75 1.4 8.9 1.95 12.4 4.6 20 12.5l0.8 1.5q5.65 9.85 14.45 16.05 4.75 3.35 12.15 6.05 7.15 2.6 16.85 4.65 8.95 2.55 15.3 1.95l0.6-0.05 3.2-0.7q0.4 1.55 7.6-1.1l-1.35 3.6m-93.5-83.85q1.2 0.5 2.3 2-2.5 4.1-1.15 8.05-7-2.3-7.25-0.15l-0.5 1.35q-0.15-4.45 1.75-7.75 2.15-3.3 4.85-3.5" fill="#1c0000" fill-rule="evenodd"/>
<path d="m107.7 75.15 1.5 1.75q0.5 4.15-3.15 7.2l1.35-3.6q-7.2 2.65-7.6 1.1 4.85-1.45 7.65-5.45l0.25-1m-104.25-35.5-1.25-4.75 2.1 1.35 1.1 0.6 1.3 4.5q-2.2-0.75-3.25-1.7m1.7-26.05q-0.6-6.85 1.9-10.75 2.9-3.65 5.5-2.6-2.7 0.2-4.85 3.5-1.9 3.3-1.75 7.75l-0.5 1.35-0.3 0.75" fill="#2a0000" fill-rule="evenodd"/>
<path d="m30.75 16.8 3.05-3.05 0.95-0.55 1-0.5 0.95-2.2q3.95-1.95 8.25-2.25l1.1 2.4h1.15q3.55 11.8 13.8 24.2l4.4 2.05v1.55l15.3 7.95 2.7 1.1q-3.15 1.05-6.45 3.65-2.1-6.1-12.65-11.9l-0.9 1.05q-2.05 2.15-4.85 3.8-2.55 1.5-5.75 2.55 7.55-4.15 9.65-9.05l-0.5 0.4q-11.4-15.65-14.9-24.5l-1-2.85 1 2.85-3.15-3.35q-2.05-0.35-4.1 1.55l2.75 0.4 0.9 0.3q5.15 15.35 14.9 28.6l-0.65 0.5q-13.2-21.95-14.9-28.15-3.8-0.7-7.3 0.55l-0.35-0.3q-3.75 5.3-11.5 6.8l2.4-0.85q1.95-0.85 3.7-2l1-0.75m5-4.1q2.05-1 4.05-1-2 0-4.05 1m25.25 22.15 1.95 2.3-0.5 0.45 0.5-0.45-1.95-2.3" fill="#c4c4c4" fill-rule="evenodd"/>
<path d="m28.6 48.85-4.25 3.55-2.35-7.05q3.5 1.4 6.6 3.5m48.35 2.3q-2.25 1.75-4.55 4.25l-0.2-1.4q-1.15-7.35-8.8-13.7l0.9-1.05q10.55 5.8 12.65 11.9m-18.6-10.15q-9.75-13.25-14.9-28.6l-0.9-0.3-2.75-0.4q2.05-1.9 4.1-1.55l3.15 3.35q3.5 8.85 14.9 24.5l-3.6 3m-32.3-21.45q-5.9 1.25-10.4 0.1-9.45-3.7-8.35-8.75-0.2-2.1 5.75 0.35l0.65 0.05 16.05 6.25q-1.75 1.15-3.7 2" fill-rule="evenodd"/>
<path d="m24.35 52.4-1.7 0.45-1.85-7.95 1.2 0.45 2.35 7.05m-15.75-4.2-3.4-1.8-1.75-6.75q1.05 0.95 3.25 1.7l1.9 6.85m-5.4-29.55 1.95-5.05 0.3-0.75 0.65 1.05 0.2 0.3 0.15 0.2q-1.25 2.25-1.05 5.7l-2.2-1.45m58.75 19.35 0.5-0.4q-2.1 4.9-9.65 9.05-7.95 2.35-15 1.6-1.7 0.75-0.55 5.4l-0.8-1.5q-3.05-6.05 2-5.75 7.75 0.9 13.65-1.4 1.9-0.75 3.6-1.85l2-1.65-2 1.65q-1.7 1.1-3.6 1.85 1.45-12.55-16.6-31.1 3.5-1.25 7.3-0.55 1.7 6.2 14.9 28.15l0.65-0.5 3.6-3m-3.4 6.1q2.8-1.65 4.85-3.8 7.65 6.35 8.8 13.7-14.75 15.2-13.65-9.9" fill="#2a2a2a" fill-rule="evenodd"/>
<path d="m22.65 52.85q-6.85-1.05-14.05-4.65l-1.9-6.85q2.8 1 7.55 1.7l0.65 0.25q3.1 0.55 5.9 1.6l1.85 7.95m49.75 2.55q-2.45 2.6-4.95 6-0.95 1.45-1.6 3.1-2.05 4.8-2 11.25-7.4-2.7-12.15-6.05-8.8-6.2-14.45-16.05-1.15-4.65 0.55-5.4 7.05 0.75 15-1.6 3.2-1.05 5.75-2.55-1.1 25.1 13.65 9.9l0.2 1.4m-20.3-10.4q-5.9 2.3-13.65 1.4-5.05-0.3-2 5.75-7.6-7.9-20-12.5-0.9-7.35-4.45-12.75-2.6-3.95-6.6-6.8-0.2-3.45 1.05-5.7l1.45 1.75q4.15 4.3 10.9 4.65l3.9-0.15 0.95-0.25q7.75-1.5 11.5-6.8l0.35 0.3q18.05 18.55 16.6 31.1" fill="#191919" fill-rule="evenodd"/>
<path d="m13.7 10.3q4.35 1.45 11.25 4.6l5.8 1.9-1 0.75-16.05-6.25-0.65-0.05q-5.95-2.45-5.75-0.35-1.1 5.05 8.35 8.75 4.5 1.15 10.4-0.1l-2.4 0.85-0.95 0.25-3.9 0.15q-6.75-0.35-10.9-4.65l-1.45-1.75-0.15-0.2-0.2-0.3-0.65-1.05 1-2.7q0.25-2.15 7.25 0.15" fill="#404040" fill-rule="evenodd"/>
<path d="m83.4 47.5 1.3-0.35 1.75 2.5q10.25 5.1 16.75 13.25 5.3 7.6 4.5 12.25l1.5 1.75q0.5 4.15-3.15 7.2-1.75 1.4-4.35 2.55-16.15 1.95-39.2-7.4-13-5.3-13.55-6.1-5.7-2.75-10.7-14.4-4.15-6.1-9.65-9.9l-4.25 3.55-1.7 0.45q-6.85-1.05-14.05-4.65l-3.4-1.8-1.75-6.75-1-3.8q-5.25-8.3 0.75-17.2l1.95-5.05q-0.6-6.85 1.9-10.75 2.9-3.65 5.5-2.6 1.2 0.5 2.3 2-2.5 4.1-1.15 8.05 4.35 1.45 11.25 4.6l5.8 1.9 3.05-3.05 0.95-0.55 1-0.5 0.95-2.2q3.95-1.95 8.25-2.25l1.1 2.4h1.15q3.55 11.8 13.8 24.2l4.4 2.05v1.55l15.3 7.95 2.7 1.1q-3.15 1.05-6.45 3.65-2.25 1.75-4.55 4.25-2.45 2.6-4.95 6-0.95 1.45-1.6 3.1-2.05 4.8-2 11.25-7.4-2.7-12.15-6.05-8.8-6.2-14.45-16.05m46.7-3.25q-7.25 3.45-14.5 14.65m27.15 17.25 3.2-0.7q4.85-1.45 7.65-5.45l0.25-1m-49.35-34.15q-9.75-13.25-14.9-28.6l-0.9-0.3-2.75-0.4q-2 0-4.05 1m11.3 0.8-1-2.85m1 2.85q3.5 8.85 14.9 24.5l0.5-0.4 0.5-0.45-1.95-2.3m-2.65 6.15-0.65 0.5-2 1.65q-1.7 1.1-3.6 1.85-5.9 2.3-13.65 1.4-5.05-0.3-2 5.75l0.8 1.5m24.7-15.65-3.6 3m-34.7-20.6 2.4-0.85q-5.9 1.25-10.4 0.1-9.45-3.7-8.35-8.75-0.2-2.1 5.75 0.35l0.65 0.05 16.05 6.25 1-0.75m-1 0.75q-1.75 1.15-3.7 2m-19.6-5.15 1.45 1.75q4.15 4.3 10.9 4.65l3.9-0.15 0.95-0.25m-17.7-8.9 0.5-1.35q0.25-2.15 7.25 0.15m-7.75 1.2q-0.15-4.45 1.75-7.75 2.15-3.3 4.85-3.5m-7.1 12.6 0.65 1.05 0.2 0.3 0.15 0.2m-1.05 5.7q4 2.85 6.6 6.8 3.55 5.4 4.45 12.75 12.4 4.6 20 12.5m-31.3-38.55 0.3-0.75 0.5-1.35m-0.55 8.6-2.2-1.45m2.2 18.2-1.1-0.6-2.1-1.35 0.25 0.95m4.25 5.5q-2.2-0.75-3.25-1.7m3.25 1.7q2.8 1 7.55 1.7l0.65 0.25q3.1 0.55 5.9 1.6l1.2 0.45q3.5 1.4 6.6 3.5m-12.15-9.2q-5.15-0.55-8.9-1.95l-2.15-0.85m58.45 38.9q7.15 2.6 16.85 4.65 8.95 2.55 15.3 1.95m-71.65-29.95-2.35-7.05" fill="none" stroke="#000" stroke-linecap="round" stroke-linejoin="round" stroke-opacity=".4" stroke-width=".05"/>
<path d="m47.85 12.85q-0.9 2.25-5.4 2.8m7.75 2.55q-2.6 1.9-5.65 1.3m7.8 2.9q-1.9 2.85-5.65 1.5m7.85 2.2q-1.8 2.75-5.25 2.3m11.1 5.6q-1.7 2.75-6 4.15m3.1-7.7q-1.25 2.55-6.8 2.05" fill="none" stroke="#000" stroke-linecap="round" stroke-linejoin="round" stroke-width="2"/>
</g>
<g id="a">
<use width="44.799999" height="29.299999" xlink:href="#d"/>
</g>
<g id="d">
<path d="m22.75 14.55v0.45l0.45-0.45 0.35 0.05-1 0.65 1.05 0.55-0.25 0.25h0.5l0.45 0.8-0.15 1.2h-1.4v0.65l0.35 0.4-0.1 0.05h-2.2v-0.55l-0.45 0.45-0.8-0.9 0.1-0.1h-0.15l-0.5-0.55 0.8-0.95 0.1-0.75 0.25 0.25h0.6v-1l0.15-0.1 1.85-0.4" fill="#fff" fill-rule="evenodd"/>
<path d="m20.95 6.4 0.1-2.1 0.35-3.25q0.15-1.05 0.35-1.05t0.4 1.05l0.3 3.25 0.1 1.6-1.6 0.5m7.2 3.5q1.85-1.6 1.95-1.5l-1.6 2.15-0.35-0.65m1.95 6.2 8.15 0.25 6.55 0.7-6.55 0.7-8.4 0.25 0.25-1.9m-4.05 6.5 0.05 0.2-0.3-0.05 0.25-0.15m-3.55 1.5-0.05 0.9q-0.3 4.3-0.7 4.3t-0.7-4.3v-0.5l1.45-0.4m-7.5 0.05-2.8 2.15q-0.15-0.15 1.95-2.5l0.85 0.35m-5-6.25-2.75-0.1-0.7-0.05-6.55-0.7 6.55-0.7h0.7l3.3-0.15-0.55 1.7m4.05-6.8q-0.45-0.6-0.35-0.7t0.65 0.35l-0.3 0.35" fill="#fff" fill-opacity=".32157" fill-rule="evenodd"/>
<path d="m22.55 5.9 0.2 5.95q-1.05 0.35-2 1l0.2-6.45 1.6-0.5m0.2 6.4v0.85l-0.9-0.5 0.9-0.35m1.15 1.6 3.25-3.15 1-0.85 0.35 0.65-0.75 0.8-2.95 3.2-0.9-0.65m2.3 2.15 3.9 0.05-0.25 1.9-3.4 0.05q0.35-0.95-0.25-2m-2.1 4.2 0.4 0.45 1.55 1.9-0.25 0.15-1.85-1.5-0.7-0.6 0.85-0.4m-1.4 0.65-0.2 3.2-1.45 0.4-0.2-3.7 1.3 0.3 0.55-0.2m-3.05-1.15-4.55 4.25-0.1 0.15-0.85-0.35 0.35-0.4 4.35-4.5 0.8 0.85m-1.45-1.7-8.2-0.15 0.55-1.7 7.05-0.15-0.1 0.15q0.1 0.95 0.7 1.85m-0.2-2.6-2.8-2.95-1.15-1.4 0.3-0.35 1.4 1.2 2.95 2.65-0.6 0.7-0.1 0.15" fill="#fff" fill-opacity=".4902" fill-rule="evenodd"/>
<path d="m22.75 11.85v0.45l-0.9 0.35 0.9 0.5v1.4l-1.85 0.4-0.15 0.1v-2.2q0.95-0.65 2-1m0.45 2.7 0.7-0.65 0.9 0.65-1.2 1.25-1.05-0.55 1-0.65-0.35-0.05m0.65 1.5h2.35q0.6 1.05 0.25 2h-2.3l0.15-1.2-0.45-0.8m-0.75 3.05 1 1.15-0.85 0.4-0.55-0.5v0.75l-0.55 0.2-1.3-0.3-0.05-1.65h2.2l0.1-0.05m-2.75-0.05-0.7 0.7-0.8-0.85 0.7-0.75 0.8 0.9m-0.85-1h-1.3q-0.6-0.9-0.7-1.85l0.1-0.15h1l-0.6-0.6 0.1-0.15 0.6-0.7 1.2 1.2-0.1 0.75-0.8 0.95 0.5 0.55" fill="#fff" fill-opacity=".77255" fill-rule="evenodd"/>
</g>
</defs>
</svg>
