<?xml version="1.0" encoding="UTF-8"?>
<svg version="1.1" viewBox="0 0 44.3 109.4" xmlns="http://www.w3.org/2000/svg" xmlns:cc="http://creativecommons.org/ns#" xmlns:dc="http://purl.org/dc/elements/1.1/" xmlns:rdf="http://www.w3.org/1999/02/22-rdf-syntax-ns#" xmlns:xlink="http://www.w3.org/1999/xlink">
<metadata>
<rdf:RDF>
<cc:Work rdf:about="">
<dc:format>image/svg+xml</dc:format>
<dc:type rdf:resource="http://purl.org/dc/dcmitype/StillImage"/>
</cc:Work>
</rdf:RDF>
</metadata>
<g transform="translate(-187.65 -168.8)">
<use transform="translate(187.65,168.8)" width="44.299999" height="109.4" xlink:href="#a"/>
</g>
<defs>
<g id="a" transform="translate(22.15,54.7)">
<use transform="translate(-22.15,-54.7)" width="44.299999" height="109.4" xlink:href="#b"/>
</g>
<g id="b" transform="translate(22.15,54.7)">
<path d="m4.35-45.8 1.5 0.15q2.35 27.75-2.8 70.6l-0.25-38.9-1.2-32.1 2.75 0.25m13.3 36.65q0.4 2.65 1.5 1.95l-9.25 43.35h-0.85l1.85-8.55 6.75-36.75m-13.45 56.1-1.85-0.3-0.1-8.5-0.05-4.05v-0.05l0.75-4.7 0.4 5.35-0.05 0.1h0.05l0.85 12.15m-16.65-54.75 0.1-0.05 0.7-0.4q3.75 17.45 7.05 35.7l-1.8-0.45-6.05-34.8" fill="#cdb465" fill-rule="evenodd"/>
<path d="m9.05 36.15-1.4 1.3 1.3-8.8 1.95-1.05-1.85 8.55m-12.1 0.25-3.55-1.15-2.4-9 2.6 0.75 1.8 0.45 1.55 8.95" fill-rule="evenodd"/>
<path d="m-0.7-46.3q2.2 31.9 2.9 78.2v2.2l0.05 4.05 0.1 8.5 0.05 7.65-2.5 0.15q-1.4-9.15-2.95-18.05l-1.55-8.95q-3.3-18.25-7.05-35.7-4.2-19.5-9-38l2.4-0.85 9.55 32.65 9.55 57.6-7.25-56.9-6.65-35.3 5.2-1.95 5.3 35.1-2.7-36.1 4-1.5 0.55 7.2m8.35 83.75-1.5 9.8-1.7-0.25 7.25-55.85-8.35 43.55-0.4-5.35q7.8-51.2 4.45-83.8l11.6 16.45-0.85 5.7-9.2 60.95-1.3 8.8" fill="#e9d69a" fill-rule="evenodd"/>
<path d="m18.15-32.3 3.15 4.25-3.65 18.9-6.75 36.75-1.95 1.05 9.2-60.95m-13.7 79.3-0.25-0.05-0.85-12.15h-0.05l0.05-0.1 8.35-43.55-7.25 55.85m-19.05-41.55-2.1-10.95 3.35-1.8 0.9-0.5 6.05 34.8-2.6-0.75-5.6-20.8m-3.65-52.55q3.25 1.2 5.2-1.95l6.65 35.3 7.25 56.9-9.55-57.6-9.55-32.65" fill="#e2c97a" fill-rule="evenodd"/>
<path d="m19.15-7.2 2.75 3.55-11.45 39.8h-0.55l9.25-43.35m-25.75 42.45 0.4 1.5-4.5-1.85-8.9-27.95 5-1.5 5.6 20.8 2.4 9m-1.25-86.25 0.1-0.05q1.2 2.3 2.5-0.95l2.7 36.1-5.3-35.1" fill="#dec067" fill-rule="evenodd"/>
<path d="m4.35-45.8v-6.7l3.05-1.95q3.35 32.6-4.45 83.8l-0.75 4.7v-2.15q-0.7-46.3-2.9-78.2l2.3 0.25 1.2 32.1 0.25 38.9q5.15-42.85 2.8-70.6l-1.5-0.15m-1.5 72.35-0.1 0.85-0.55 4.5 0.55-4.5 0.1-0.85m-13.55 8.35-1.45-0.9-7.45-24.7v-2.35l8.9 27.95m-2.65-42.2-8.55-34.8 1.25-4.15q4.8 18.5 9 38l-0.7 0.4-0.1 0.05-0.9 0.5" fill="#816b29" fill-rule="evenodd"/>
<path d="m7.4-54.45-3.05 1.95v6.7l1.5 0.15m-4.25-0.4-2.3-0.25m2.9 78.2 0.55-4.5 0.1-0.85m15.3-58.85 3.15 4.25-3.65 18.9q0.4 2.65 1.5 1.95l2.75 3.55-11.45 39.8h-0.55m-0.05 0h-0.8l-1.4 1.3-1.5 9.8-1.7-0.25-0.25-0.05-1.85-0.3 0.05 7.65-2.5 0.15m-2.95-18.05-3.55-1.15 0.4 1.5-4.5-1.85-1.45-0.9-7.45-24.7v-2.35l5-1.5-2.1-10.95 3.35-1.8-8.55-34.8 1.25-4.15 2.4-0.85q3.25 1.2 5.2-1.95l5.2-1.95m0.1-0.05q1.2 2.3 2.5-0.95l4-1.5 0.55 7.2m2.3 0.25 2.75 0.25m13.8 13.5 0.85-5.7-11.6-16.45m-5.2 88.55v-0.05m8.7-6.45-1.85 8.55m-0.1-7.5 1.95-1.05m-3.25 9.85 1.3-8.8m-15.35-1.65 1.8 0.45m-7.05-35.7-0.7 0.4m-0.1 0.05-0.9 0.5m6.75 42.55-2.4-9 2.6 0.75m-13.2-20.05 8.9 27.95" fill="none" stroke="#000" stroke-linecap="round" stroke-linejoin="round" stroke-opacity=".4" stroke-width=".05"/>
<path d="m-0.1 54.45q-1.4-9.15-2.95-18.05m-1.55-8.95 1.55 8.95" fill="none" stroke="#000" stroke-linecap="round" stroke-linejoin="round" stroke-opacity=".4" stroke-width=".05"/>
<path d="m9.9 36.15h-0.05" fill="none" stroke="#0f0" stroke-linecap="round" stroke-linejoin="round" stroke-width=".05"/>
<path d="m-0.7-46.3q2.2 31.9 2.9 78.2m5.2-86.35q3.35 32.6-4.45 83.8l-0.75 4.7m0.15 12.6-0.1-8.5-0.05-4.05m8.7-6.5 6.75-36.75m-8.7 37.8 9.2-60.95m-22.75 59.75q-3.3-18.25-7.05-35.7m2.65 34.5-5.6-20.8" fill="none" stroke="#eedfb2" stroke-linecap="round" stroke-linejoin="round" stroke-width=".05"/>
<path d="m4.35-52.5v6.7l-5.05-0.5-0.55-7.2-4 1.5q-1.3 3.25-2.5 0.95l-5.3 2q-1.95 3.15-5.2 1.95l-2.4 0.85-1.25 4.15 8.55 34.8-3.35 1.8 2.1 10.95-5 1.5v2.35l7.45 24.7 1.45 0.9 4.5 1.85-0.4-1.5 3.55 1.15q1.55 8.9 2.95 18.05l2.5-0.15-0.05-7.65 3.8 0.6 1.5-9.8 1.4-1.3h1.4l11.45-39.8-2.75-3.55q-1.1 0.7-1.5-1.95l3.65-18.9-3.15-4.25 0.85-5.7-11.6-16.45z" fill="none" stroke="#000" stroke-linecap="round" stroke-linejoin="round" stroke-opacity=".2" stroke-width=".5"/>
</g>
</defs>
</svg>
