<?xml version="1.0" encoding="UTF-8"?>
<svg version="1.1" viewBox="0 0 56.3 33.41" xmlns="http://www.w3.org/2000/svg" xmlns:cc="http://creativecommons.org/ns#" xmlns:dc="http://purl.org/dc/elements/1.1/" xmlns:rdf="http://www.w3.org/1999/02/22-rdf-syntax-ns#" xmlns:xlink="http://www.w3.org/1999/xlink">
<metadata>
<rdf:RDF>
<cc:Work rdf:about="">
<dc:format>image/svg+xml</dc:format>
<dc:type rdf:resource="http://purl.org/dc/dcmitype/StillImage"/>
</cc:Work>
</rdf:RDF>
</metadata>
<g transform="translate(-246.82 -183.27)">
<use transform="translate(246.85,183.3)" width="56.25" height="33.349998" xlink:href="#a"/>
</g>
<defs>
<g id="a" transform="translate(-246.85,-183.3)">
<path d="m265.9 192.1q1.3-2.25 2.25-3.2 4.5-4.95 9.35-5.3v-0.05q9.35 2 18.8 12.6l2.05 2.5-1.45 1.15q-6.4-10.7-15.65-13.4-1 1.8 1.05 4.45l7.65 9.1q-17.8 1.2-24.05-7.85m35.55 11.7 1.65 3.8-2.15 6.25-7.7 1.8-3.25-2.25-1-4.75-3.95-1.65-2.85 2.7-4.85 0.75-3.15 3.55-7.85 1.75-7.5-6 2.1-6.7q16 4.7 34.45 3.05 4.75 6.05 5.55 7.75-0.45-5.75-1.55-8.65l2.05-1.4" fill="#c6e8f4" fill-rule="evenodd"/>
<path d="m289.95 199.95-7.65-9.1q-2.05-2.65-1.05-4.45 9.25 2.7 15.65 13.4l-6.95 0.15m5.45 6.15 4-0.9q1.1 2.9 1.55 8.65-0.8-1.7-5.55-7.75" fill="#fff" fill-rule="evenodd"/>
<path d="m259.9 189.9q3.2-2.45 6.15-3.95 5.95-3.2 10.7-2.55l0.75 0.2q-4.85 0.35-9.35 5.3-0.95 0.95-2.25 3.2-2.55-3.2-6-2.2m33.35 25.75-4.45 1-6.6-4.4-8 1.75 3.15-3.55 4.85-0.75 2.85-2.7 3.95 1.65 1 4.75 3.25 2.25m-34.4-5.9-4.05-4.55-7.95 0.95q1.7-4.35 4.75-8.25 2 3.5 9.35 5.15l-2.1 6.7" fill="#839eb8" fill-rule="evenodd"/>
<path d="m277.5 183.6-0.75-0.2 0.75 0.15v0.05" fill="#f8ebcf" fill-rule="evenodd"/>
<path d="m295.4 206.1-5.45-6.15 6.95-0.15q0.7 0.8 2.5 5.4l-4 0.9" fill="#d5deec" fill-rule="evenodd"/>
<path d="m298.35 198.65q1.75 2.45 3.1 5.15l-2.05 1.4q-1.8-4.6-2.5-5.4l1.45-1.15m-8.4 1.3 5.45 6.15q-18.45 1.65-34.45-3.05 2.95-7.45 4.95-10.95 6.25 9.05 24.05 7.85" fill="#bed8eb" fill-rule="evenodd"/>
<path d="m259.9 189.9q3.45-1 6 2.2-2 3.5-4.95 10.95-7.35-1.65-9.35-5.15 2.05-2.65 4.7-5.05l2.05-1.7 1.55-1.25" fill="#5183b3" fill-rule="evenodd"/>
<path d="m276.75 183.4q-4.75-0.65-10.7 2.55-2.95 1.5-6.15 3.95m17.6-6.3-0.75-0.2 0.75 0.15q9.35 2 18.8 12.6l2.05 2.5q1.75 2.45 3.1 5.15l1.65 3.8-2.15 6.25-7.7 1.8-4.45 1-6.6-4.4-8 1.75-7.85 1.75-7.5-6-4.05-4.55-7.95 0.95q1.7-4.35 4.75-8.25 2.05-2.65 4.7-5.05l2.05-1.7 1.55-1.25" fill="none" stroke="#53472d" stroke-linecap="round" stroke-linejoin="round" stroke-width=".05"/>
<path d="m293.25 215.65-3.25-2.25-1-4.75-3.95-1.65" fill="none" stroke="#755835" stroke-linecap="round" stroke-linejoin="round" stroke-width=".05"/>
<path d="m285.05 207-2.85 2.7-4.85 0.75-3.15 3.55" fill="none" stroke="#a48148" stroke-linecap="round" stroke-linejoin="round" stroke-width=".05"/>
</g>
</defs>
</svg>
