<?xml version="1.0" encoding="UTF-8"?>
<svg version="1.1" viewBox="0 0 95.75 63.967" xmlns="http://www.w3.org/2000/svg" xmlns:cc="http://creativecommons.org/ns#" xmlns:dc="http://purl.org/dc/elements/1.1/" xmlns:rdf="http://www.w3.org/1999/02/22-rdf-syntax-ns#" xmlns:xlink="http://www.w3.org/1999/xlink">
<metadata>
<rdf:RDF>
<cc:Work rdf:about="">
<dc:format>image/svg+xml</dc:format>
<dc:type rdf:resource="http://purl.org/dc/dcmitype/StillImage"/>
</cc:Work>
</rdf:RDF>
</metadata>
<g transform="translate(-227.1 -168.5)">
<use transform="translate(227.1,168.5)" width="95.75" height="63.950001" xlink:href="#a"/>
</g>
<defs>
<g id="a" transform="translate(-227.1,-168.5)">
<path d="m240.65 194.65q2.25 6.25 5.75 4.5l0.6-0.4-0.25-0.6 1.1-0.2h0.05l0.1-0.1 2.55-2.9q-1.65-6.45-8.6-9.65 2.3-6.95 10.45-3.1l0.7 0.3q4.85 2.6 7.2 6.65h1.15l0.15 0.05 1.2 0.25h0.1l0.5 0.2 0.35 0.25q15.3 25.35 12.75 34.35-1.6-0.25-3.35-1.85-4.75 8.7-12.15 9.25l-0.2-0.05h-0.05l-0.3-0.05-0.5-0.1q-8.4-4.7-19.2-36l-0.05-0.25-0.05-0.55m18.55-14.5q2-2.8 6.2-1.6l4.65 1.35 2.25 1.75-2.95-0.65q-5.85-2.95-7.75-1.4 1.9-1.55 7.75 1.4l2.95 0.65 0.55 0.1 6.55 0.5h0.5l0.05-0.05 2.8-1.15 3.9-0.3 0.15-0.85q10.45 3.8 16.1 6.85l9.1 4.95q2.2 1.15 6.25 2.4l1.5 0.7 0.8 0.25 0.85 0.15 0.35 0.5 0.25 0.1 0.2 0.3 0.35 1.7 0.05 0.9-0.15 1.05q-0.6-2.65-2.95-4.35-4 11.3-13.95 15.6-6.85 0.45-14.55-3.6l-4.15-2.2q18.05 6.8 22-6.85-5.3-1.7-10.1-4.45-2.45 0.65-4.6 2.5l0.4-5.15q-4.6-3.25-8.65-7.55l0.6-2.15 0.15-0.8-0.15 0.8-0.6 2.15q-0.85 2.7-2.1 5.15-1.5 1.95-3.85 2.75l-1.3 0.35q-15.15-6-17.05-12.35-0.55 0.4-0.75 1.15l-0.05 0.1-1.6-0.7m2 20.65q2.2-0.7 4.55-1.05l-4.75-8.85q-2.15 0.45-3.55 1.05-5 2.1-10.65 10.4l-0.05 0.1 3.35 4.1q5.15-3.95 11.1-5.75m-0.9-11.65q-3.45 0.15-7.35 3.5l-2.4 2.3 2.4-2.3q3.9-3.35 7.35-3.5m26.2-7.6-6.55 0.7h-0.05 0.05l6.55-0.7" fill="#795c26" fill-rule="evenodd"/>
<path d="m240.9 182.95q2.9-6.75 11.3-2.45l0.9 0.45q2.3 1.4 4.5 3.55 2 2 3.85 4.65-1.85-2.65-3.85-4.65 0.45-2.8 1.6-4.35l1.6 0.7q-1.35 3.85 1.5 6.45l0.35 0.35 0.15 1.8-1.2-0.25-0.15-0.05h-1.15q-2.35-4.05-7.2-6.65l-0.7-0.3q-8.15-3.85-10.45 3.1-0.9 2.6-0.95 6.7l0.05 0.35q1.05 6.15 5.7 5.8l0.25 0.6-0.6 0.4q-3.5 1.75-5.75-4.5l-0.55-4.05q-0.55-4.45 0.8-7.65m29.15-3.05q4.75 1.1 9.9 1.2l2.8-0.05-2.8 1.15-0.05 0.05h-0.5l-6.55-0.5-0.55-0.1-2.25-1.75" fill="#c1943e" fill-rule="evenodd"/>
<path d="m246.75 198.15q-4.65 0.35-5.7-5.8l-0.05-0.35q0.05-4.1 0.95-6.7 6.95 3.2 8.6 9.65l-2.55 2.9-0.1 0.1h-0.05l-1.1 0.2m14.05-17.3 0.05-0.1q0.2-0.75 0.75-1.15 1.9 6.35 17.05 12.35l-6.5-0.35q-2.5-0.6-5.45-1.8-2.55-0.95-4.05-2.15l-0.35-0.35q-2.85-2.6-1.5-6.45" fill="#523e1b" fill-rule="evenodd"/>
<path d="m282.15 203.4-2.2-0.65q-3.9-1.05-8.1-1.35-5.45-9.6-8.1-11.5l-0.35-0.25-0.5-0.2h-0.1l-0.15-1.8q1.5 1.2 4.05 2.15 2.95 1.2 5.45 1.8 3 5.85 7.8 10.05l2.2 1.75" fill="#362812" fill-rule="evenodd"/>
<path d="m286.85 205.2-3.2-1.3-0.6-0.25-0.55-0.15-0.35-0.1-2.2-1.75q-4.8-4.2-7.8-10.05l6.5 0.35 1.3-0.35q2.35-0.8 3.85-2.75 1.25-2.45 2.1-5.15 4.05 4.3 8.65 7.55l-0.4 5.15q2.15-1.85 4.6-2.5 4.8 2.75 10.1 4.45-3.95 13.65-22 6.85m-29.4-13.25 3.75 8.85q-5.95 1.8-11.1 5.75l-3.35-4.1 0.05-0.1q5.65-8.3 10.65-10.4" fill="#93702f" fill-rule="evenodd"/>
<path d="m259.95 231.45q-4.75-1.2-11.1-12.2-6.9-11.85-7.6-20.45l-0.5-3.35q10.8 31.3 19.2 36" fill="#61491f" fill-rule="evenodd"/>
<path d="m286.8 179.9 0.05-0.45q0.4-2.1 14.45 5.7l20.05 9.15 0.65 1.5-0.25-0.1-0.35-0.5-0.85-0.15-0.8-0.25-1.5-0.7q-4.05-1.25-6.25-2.4l-9.1-4.95q-5.65-3.05-16.1-6.85m-14.95 21.5 6.15 11.45q1.4 2.1 1.95 4.3 0.75 2.75 0.15 5.55l-0.05 0.2q-1.15 1.65-3.4 1.4l-0.15-0.05q2.55-9-12.75-34.35 2.65 1.9 8.1 11.5" fill="#695021" fill-rule="evenodd"/>
<path d="m322.45 199.75v0.15q-0.65 2.6-3.5 5.1-2.75 2.4-5.65 3.85l-0.3 0.15q-3.6 1.7-7.45 2 9.95-4.3 13.95-15.6 2.35 1.7 2.95 4.35m-42.4 23.15-0.1 0.4v0.1q-0.6 2.15-1.95 4.25l-0.05 0.1-0.9 1.25q-6.15 3.95-13.6 3.05h-0.4l-2.05-0.4q7.4-0.55 12.15-9.25 1.75 1.6 3.35 1.85l0.15 0.05q2.25 0.25 3.4-1.4" fill="#322610" fill-rule="evenodd"/>
<path d="m257.45 191.95q1.4-0.6 3.55-1.05l4.75 8.85q-2.35 0.35-4.55 1.05l-3.75-8.85" fill="#86662b" fill-rule="evenodd"/>
<path d="m240.9 182.95q-1.35 3.2-0.8 7.65l0.55 4.05m6.1 3.5q-4.65 0.35-5.7-5.8l-0.05-0.35q0.05-4.1 0.95-6.7m18.35 3.85h1.15m-3.85-4.65q0.45-2.8 1.6-4.35 2-2.8 6.2-1.6l4.65 1.35q4.75 1.1 9.9 1.2l2.8-0.05 3.9-0.3 0.15-0.85 0.05-0.45q0.4-2.1 14.45 5.7l20.05 9.15 0.65 1.5 0.2 0.3 0.35 1.7 0.05 0.9-0.15 1.05m0 0.15q-0.65 2.6-3.5 5.1-2.75 2.4-5.65 3.85l-0.3 0.15q-3.6 1.7-7.45 2-6.85 0.45-14.55-3.6l-4.15-2.2-3.2-1.3m-0.6-0.25-0.55-0.15m-0.35-0.1-2.2-0.65q-3.9-1.05-8.1-1.35l6.15 11.45q1.4 2.1 1.95 4.3 0.75 2.75 0.15 5.55m-0.05 0.2-0.1 0.4v0.1q-0.6 2.15-1.95 4.25l-0.05 0.1-0.9 1.25q-6.15 3.95-13.6 3.05h-0.4l-2.05-0.4-0.2-0.05h-0.05l-0.3-0.05-0.5-0.1q-4.75-1.2-11.1-12.2-6.9-11.85-7.6-20.45l-0.5-3.35m-0.05-0.25-0.05-0.55m20.15-13.8 0.05-0.1q0.2-0.75 0.75-1.15 1.9-1.55 7.75 1.4l2.95 0.65m-10 5.65q-2.85-2.6-1.5-6.45m0.8 8.35 1.2 0.25m-0.15-1.8q1.5 1.2 4.05 2.15 2.95 1.2 5.45 1.8l6.5 0.35m-15.75-2.5 0.5 0.2 0.35 0.25q2.65 1.9 8.1 11.5m-21.3-6.45 2.4-2.3q3.9-3.35 7.35-3.5m-13.55 9 1.1-0.2h0.05l0.1-0.1 2.55-2.9m36.1-14.2-0.15 0.8-0.6 2.15q-0.85 2.7-2.1 5.15-1.5 1.95-3.85 2.75l-1.3 0.35m1.25-9.7h0.05l6.55-0.7" fill="none" stroke="#413305" stroke-linecap="round" stroke-linejoin="round" stroke-width=".5"/>
<path d="m257.6 184.5q-2.2-2.15-4.5-3.55l-0.9-0.45q-8.4-4.3-11.3 2.45m1.05 2.35q2.3-6.95 10.45-3.1l0.7 0.3q4.85 2.6 7.2 6.65m1.15 0q-1.85-2.65-3.85-4.65m3.85 4.65 0.15 0.05" fill="none" stroke="#413305" stroke-linecap="round" stroke-linejoin="round" stroke-width=".5"/>
<path d="m261.35 179.6-1.15 3.45q-3.1-5.55-9.65-9 5.9 1.25 10.8 5.55m12.5 9.55q-6.5-0.8-11.05-8.3-1.9-6.6-6.05-12.1 7.25 3.7 10 11.65 1.65-4.2 0.7-9.1 2.3 3.9 2.1 8.95 2-1.95 2.15-5.05 1.15 3.25 1.35 6.75l0.05 0.9 2.35-3.35 1 0.95-3.25 4.55 0.1 1.5q1.5-0.2 3.1-1.65-0.55 2.55-2.5 4.25l-0.05 0.05" fill="#fc0" fill-rule="evenodd"/>
<path d="m261.35 179.6 1.35 1.25h0.1q4.55 7.5 11.05 8.3l-0.3 0.25 0.05 0.15q0.8 1.4 2.2 2.55-3.45 0.65-9.4-2.1-4.05-1.95-5.4-4.4-0.65-1.1-0.7-2.3v-0.1l-0.1-0.15 1.15-3.45" fill="#dfbb4f" fill-rule="evenodd"/>
<path d="m260.3 183.2v0.1q0.05 1.2 0.7 2.3 1.35 2.45 5.4 4.4 5.95 2.75 9.4 2.1-1.4-1.15-2.2-2.55l-0.05-0.15 0.3-0.25m-0.8-7.2 0.05 0.9 2.35-3.35 1 0.95-3.25 4.55 0.1 1.5q1.5-0.2 3.1-1.65-0.55 2.55-2.5 4.25" fill="none" stroke="#000" stroke-linecap="round" stroke-linejoin="round" stroke-opacity=".6" stroke-width=".5"/>
<path d="m262.8 180.85h-0.1l-1.35-1.25q-4.9-4.3-10.8-5.55 6.55 3.45 9.65 9l0.1 0.15m2.5-2.35q-1.9-6.6-6.05-12.1 7.25 3.7 10 11.65 1.65-4.2 0.7-9.1 2.3 3.9 2.1 8.95 2-1.95 2.15-5.05 1.15 3.25 1.35 6.75" fill="none" stroke="#000" stroke-linecap="round" stroke-linejoin="round" stroke-opacity=".6" stroke-width=".5"/>
<path d="m253.65 181.75 0.05 0.9 2.25-3.15 0.95 0.85-3.05 4.3 1 0.65q0.5 0.55 2.85-2.35 1.45 3.3 1.05 3.75l-0.05 0.05-1.35 0.25h-0.1q-9 0.75-13.3-6.2-1.8-6.2-5.7-11.35 6.85 3.45 9.5 10.85 1.55-3.9 0.65-8.45 2.2 3.6 2 8.35 1.85-1.85 2-4.7 1.1 3 1.25 6.25m-12.65 9.75 0.6-8.55q-2.95-5.25-9.2-8.55 6.3 1.35 11.5 6.35 0.2 2.35-2.9 10.75" fill="#fc0" fill-rule="evenodd"/>
<path d="m258.75 186.7 1.4 2.3-1.7 0.55-3.1 1.85-1.8 0.9-0.4 0.35-5.25 5.4q-3.65 0.8-5.8-1.85l-0.9-2.75-0.05-0.3q-0.2-0.7-0.15-1.65 3.1-8.4 2.9-10.75l0.05 0.05q4.3 6.95 13.3 6.2h0.1l1.35-0.25 0.05-0.05" fill="#dfbb4f" fill-rule="evenodd"/>
<path d="m253.65 181.75 0.05 0.9 2.25-3.15 0.95 0.85-3.05 4.3 1 0.65q0.5 0.55 2.85-2.35 1.45 3.3 1.05 3.75l-0.05 0.05m-17.7 4.75 0.6-8.55" fill="none" stroke="#000" stroke-linecap="round" stroke-linejoin="round" stroke-opacity=".6" stroke-width=".5"/>
<path d="m241.6 182.95q-2.95-5.25-9.2-8.55 6.3 1.35 11.5 6.35l0.05 0.05q-1.8-6.2-5.7-11.35 6.85 3.45 9.5 10.85 1.55-3.9 0.65-8.45 2.2 3.6 2 8.35 1.85-1.85 2-4.7 1.1 3 1.25 6.25z" fill="none" stroke="#000" stroke-linecap="round" stroke-linejoin="round" stroke-opacity=".6" stroke-width=".5"/>
<path d="m241.7 184.35 0.55 0.4-0.95-2.8h0.9l1.35 3.8 0.9-0.2q0.55 0.05-0.3-2.7 2.75 1 2.85 1.5l-0.45 0.85v0.05q-3.45 5-9.6 3.5-4.7-2.3-9.6-3 5.1-1.75 10.9 0.85-1.8-2.9-5.05-4.8 3.2 0.75 6.1 3.35-0.35-1.9-2.1-3.45 2.4 0.95 4.5 2.65m0.7 11.6-5.15-4.8q-4.55-1.25-9.3 0.2 3.55-2.55 8.9-2.55 1.6 1.15 5.55 7.15" fill="#fc0" fill-rule="evenodd"/>
<path d="m247 184.35 2 0.45-0.3 1.15-0.2 2.55-0.2 1.45 0.05 0.35 1.2 5.55q-1.1 2.3-3.7 2l-2.1-1-0.2-0.1-1.15-0.8q-3.95-6-5.55-7.15l0.1-0.05q6.15 1.5 9.6-3.5v-0.05l0.45-0.85" fill="#dfbb4f" fill-rule="evenodd"/>
<path d="m241.7 184.35 0.55 0.4-0.95-2.8h0.9l1.35 3.8 0.9-0.2q0.55 0.05-0.3-2.7 2.75 1 2.85 1.5m-4.6 11.6-5.15-4.8" fill="none" stroke="#000" stroke-linecap="round" stroke-linejoin="round" stroke-opacity=".6" stroke-width=".5"/>
<path d="m237.25 191.15q-4.55-1.25-9.3 0.2 3.55-2.55 8.9-2.55l0.1-0.05q-4.7-2.3-9.6-3 5.1-1.75 10.9 0.85-1.8-2.9-5.05-4.8 3.2 0.75 6.1 3.35-0.35-1.9-2.1-3.45 2.4 0.95 4.5 2.65z" fill="none" stroke="#000" stroke-linecap="round" stroke-linejoin="round" stroke-opacity=".6" stroke-width=".5"/>
</g>
</defs>
</svg>
