<?xml version="1.0" encoding="UTF-8" standalone="no"?>
<svg xmlns:xlink="http://www.w3.org/1999/xlink" height="194.5px" width="165.5px" xmlns="http://www.w3.org/2000/svg">
  <g transform="matrix(10.0, 0.0, 0.0, 10.0, 82.5, 97.0)">
    <use height="15.0" transform="matrix(1.1031, 0.0, 0.0, 1.0, -7.0, -7.55)" width="11.8" xlink:href="#sprite0"/>
    <use height="14.45" transform="matrix(1.0, 0.0, 0.0, 1.0, -7.65, -5.65)" width="11.8" xlink:href="#shape1"/>
    <use height="19.45" transform="matrix(1.1031, 0.0, 0.0, 1.0, -8.25, -9.7)" width="15.0" xlink:href="#sprite1"/>
    <use height="19.45" transform="matrix(1.0, 0.0, 0.0, 1.0, -8.25, -9.7)" width="16.55" xlink:href="#shape3"/>
  </g>
  <defs>
    <g id="sprite0" transform="matrix(1.0, 0.0, 0.0, 1.0, 0.0, 0.0)">
      <use height="15.0" transform="matrix(1.0, 0.0, 0.0, 1.0, 0.0, 0.0)" width="11.8" xlink:href="#shape0"/>
    </g>
    <g id="shape0" transform="matrix(1.0, 0.0, 0.0, 1.0, 0.0, 0.0)">
      <path d="M11.8 9.95 Q11.7 12.65 10.15 14.15 L10.05 14.25 6.1 15.0 5.9 14.9 5.1 14.55 4.95 14.45 2.85 12.9 2.8 12.85 0.5 8.85 Q0.1 7.7 0.0 6.45 L0.0 6.1 0.0 5.75 0.0 5.6 0.1 4.3 0.15 4.3 0.2 4.25 1.6 1.2 1.55 1.15 Q2.45 0.25 3.55 0.05 L3.75 0.0 3.8 0.0 7.55 1.15 7.55 1.1 7.6 1.15 Q8.7 1.8 9.7 3.15 L10.6 4.65 11.8 9.95 M7.45 2.8 L3.4 2.2 2.75 2.75 2.75 2.8 1.7 5.85 1.7 6.05 1.7 6.2 1.75 7.0 1.75 7.15 2.95 10.85 Q3.8 12.05 5.05 12.6 L5.1 12.6 8.75 11.95 Q9.4 11.25 9.65 10.25 L9.7 10.25 9.6 6.45 9.45 6.0 9.5 5.75 9.1 4.8 8.95 4.85 8.3 3.8 7.45 2.8" fill="#c0e0f3" fill-rule="evenodd" stroke="none"/>
    </g>
    <g id="shape1" transform="matrix(1.0, 0.0, 0.0, 1.0, 7.65, 5.65)">
      <path d="M0.05 -5.55 L-0.2 -5.6 -0.2 -5.65 0.1 -5.55 0.05 -5.55 M1.25 8.35 L1.3 8.45 1.25 8.55 0.85 8.8 1.05 8.55 1.25 8.35 M0.05 6.4 L-0.35 6.65 -0.2 6.4 -0.05 6.2 0.05 6.35 0.05 6.4" fill="#4d4a44" fill-rule="evenodd" stroke="none"/>
      <path d="M4.15 2.75 L4.15 2.8 4.1 2.8 4.15 2.75" fill="url(#gradient0)" fill-rule="evenodd" stroke="none"/>
      <path d="M-5.95 5.2 L-5.95 5.15 -5.85 5.2 -5.95 5.2" fill="#ffffff" fill-rule="evenodd" stroke="none"/>
      <path d="M-7.55 -4.55 L-7.45 -4.5 -7.65 -4.35 -7.55 -4.55" fill="#6a6355" fill-rule="evenodd" stroke="none"/>
    </g>
    <linearGradient gradientTransform="matrix(0.0053, 0.0114, -0.1357, 0.0526, 12.25, 2.4)" gradientUnits="userSpaceOnUse" id="gradient0" spreadMethod="pad" x1="-819.2" x2="819.2">
      <stop offset="0.0" stop-color="#808080"/>
      <stop offset="1.0" stop-color="#6a6355" stop-opacity="0.9882353"/>
    </linearGradient>
    <g id="sprite1" transform="matrix(1.0, 0.0, 0.0, 1.0, 0.0, 0.0)">
      <use height="19.45" transform="matrix(1.0, 0.0, 0.0, 1.0, 0.0, 0.0)" width="15.0" xlink:href="#shape2"/>
    </g>
    <g id="shape2" transform="matrix(1.0, 0.0, 0.0, 1.0, 0.0, 0.0)">
      <path d="M12.7 6.45 L13.15 7.45 12.9 8.25 13.7 8.1 15.0 8.85 14.7 9.2 14.05 9.9 13.7 10.2 13.5 10.2 13.85 10.65 13.85 10.7 13.95 11.95 13.6 12.2 13.6 12.25 12.95 12.1 12.45 12.0 12.35 12.0 12.15 11.75 11.1 10.55 11.05 10.55 11.45 10.95 11.45 11.0 11.55 12.0 11.6 12.2 11.25 12.45 11.2 12.5 10.8 12.4 10.05 12.25 9.25 11.4 8.8 10.9 8.5 10.95 8.5 11.1 Q8.35 12.2 7.85 12.85 L8.1 13.6 9.8 14.0 9.9 14.1 10.55 14.95 10.2 15.15 9.35 15.7 9.25 15.65 9.3 15.75 10.75 16.1 10.9 16.1 11.2 16.4 11.8 17.05 11.45 17.35 Q11.05 17.55 10.6 17.85 L10.5 17.8 10.6 18.0 10.45 19.2 10.1 19.45 8.9 18.7 8.65 18.15 8.6 18.05 8.45 18.25 8.25 18.5 7.25 18.55 7.1 17.8 7.05 17.45 7.25 17.15 7.3 17.05 7.7 16.4 7.5 16.05 7.45 15.9 7.3 16.1 7.15 16.35 6.25 16.4 5.95 15.3 6.25 14.75 6.55 14.25 6.3 13.65 4.95 13.4 4.4 13.0 3.95 12.55 4.05 12.95 4.35 14.1 4.1 14.9 Q3.95 15.05 3.75 15.15 L3.35 14.65 3.45 15.2 3.25 16.0 2.9 16.25 2.3 15.55 2.15 14.9 2.1 14.85 2.1 14.9 1.9 15.2 1.15 15.1 1.15 14.0 1.35 13.7 0.95 13.4 0.5 12.45 0.85 12.15 1.4 11.9 1.65 12.05 1.3 11.3 1.65 11.0 2.2 10.7 3.05 11.3 3.15 11.2 2.9 10.15 2.9 9.15 2.9 9.05 3.05 8.25 2.85 7.95 2.7 7.75 2.35 7.9 1.85 8.15 1.8 8.2 1.15 7.75 1.15 7.7 1.45 6.8 1.75 6.55 1.55 6.25 1.25 6.45 0.65 6.75 0.0 6.3 0.05 6.2 0.3 5.4 0.4 5.35 0.45 5.35 0.7 5.2 0.65 5.15 0.35 4.8 0.15 3.65 0.6 3.35 1.35 3.4 1.4 3.45 1.4 3.4 1.9 2.8 1.95 2.75 2.4 2.7 2.7 3.3 2.75 3.35 2.55 4.85 3.15 4.15 3.55 4.1 3.7 4.4 3.9 4.8 3.85 5.0 3.7 6.35 4.1 6.9 Q4.15 6.8 4.25 6.8 4.75 6.35 5.3 6.35 L5.35 5.95 4.55 4.8 4.55 4.35 4.55 3.85 4.5 3.65 4.85 3.35 5.65 3.35 4.95 2.45 4.95 2.15 4.9 1.3 5.25 1.0 6.1 0.95 6.25 1.15 6.3 1.0 6.95 0.15 7.05 0.0 7.5 0.05 7.85 1.05 7.75 1.8 8.35 1.55 9.3 2.05 8.75 3.2 8.65 3.3 8.4 3.45 7.35 3.85 7.3 4.05 7.3 4.1 7.3 4.25 7.5 4.15 7.55 4.15 7.85 4.05 8.8 4.6 8.6 4.95 8.25 5.65 7.9 5.95 6.9 6.25 6.75 6.8 Q7.45 7.3 7.95 8.25 L8.3 9.05 8.35 9.05 8.45 9.0 8.8 7.6 9.1 7.45 9.65 7.15 9.8 7.05 10.1 7.0 10.25 6.95 10.65 7.9 10.6 8.15 10.45 8.65 10.65 8.65 10.75 8.6 10.8 8.35 11.15 7.15 11.5 6.95 11.75 6.8 12.1 6.6 12.25 6.55 12.7 6.45 M8.0 1.8 L8.0 1.85 8.05 1.8 8.0 1.8 M4.0 9.8 L5.3 12.0 6.8 11.55 6.7 10.35 6.55 8.9 5.5 8.4 4.75 8.1 4.0 9.8" fill="#4681a5" fill-rule="evenodd" stroke="none"/>
      <path d="M8.0 1.8 L8.05 1.8 8.0 1.85 8.0 1.8" fill="#c4c4c4" fill-rule="evenodd" stroke="none"/>
    </g>
    <g id="shape3" transform="matrix(1.0, 0.0, 0.0, 1.0, 8.25, 9.7)">
      <path d="M-0.45 -9.7 L0.05 -9.65 0.4 -8.65 0.05 -8.4 -0.4 -9.55 -0.45 -9.7 M-1.9 -8.45 L-2.45 -8.45 -2.85 -8.4 -2.45 -8.7 -1.5 -8.75 -1.9 -8.45 M-1.85 -6.15 Q-0.75 -6.3 0.05 -7.1 L0.6 -7.85 0.65 -7.9 0.95 -8.15 2.0 -7.65 1.65 -7.35 1.2 -6.55 1.2 -6.5 1.15 -6.4 1.0 -6.25 -0.15 -5.85 -0.4 -5.75 -0.45 -5.75 -0.45 -5.7 -0.6 -5.15 0.1 -5.4 0.2 -5.5 0.4 -5.65 1.45 -5.1 1.05 -4.8 0.95 -4.6 Q-1.25 -4.6 -2.4 -3.3 L-2.4 -3.35 -2.4 -3.3 -2.45 -3.1 -3.7 -2.8 -3.55 -2.9 -2.4 -3.35 -2.35 -3.75 -3.25 -4.9 -3.25 -5.35 -3.25 -5.85 -3.3 -6.05 -2.9 -6.35 -2.0 -6.35 -2.35 -6.05 -2.1 -5.75 -1.9 -5.55 -1.9 -5.8 -1.8 -6.05 -1.8 -6.1 -1.85 -6.15 M7.05 1.0 L7.15 2.25 6.75 2.5 6.7 2.15 6.65 1.25 6.65 1.2 7.05 1.0 M6.05 2.4 Q5.95 5.1 4.2 6.6 L4.1 6.7 4.75 7.35 4.4 7.65 4.35 7.6 3.7 6.95 3.4 6.7 3.8 6.4 3.6 6.4 3.65 6.35 Q5.4 4.85 5.5 2.3 L6.05 2.4 M-0.25 7.45 L-0.45 7.35 -1.35 7.0 -1.0 7.1 -0.2 7.35 -0.25 7.45 M-7.7 2.75 L-7.3 2.45 -6.7 2.2 -7.1 2.45 -7.25 2.55 -7.7 2.75 M-6.45 2.35 L-6.8 1.6 -6.45 1.3 -5.8 1.0 -6.2 1.25 -5.15 1.95 -4.9 1.6 -4.75 1.5 -5.05 0.45 -4.85 0.6 Q-4.5 0.7 -4.1 0.15 L-4.2 0.4 -3.05 2.15 -4.15 2.2 -4.5 2.25 -5.75 2.8 -6.0 2.95 -5.85 2.85 -6.3 2.55 -6.45 2.35 M-7.0 -1.95 L-7.0 -2.0 -6.65 -2.9 Q-6.25 -3.05 -6.2 -3.1 L-6.3 -3.15 -6.55 -3.45 -6.85 -3.25 -7.55 -2.95 -8.25 -3.4 -8.2 -3.5 Q-7.35 -3.55 -6.65 -4.1 L-5.7 -5.3 -5.8 -4.5 -5.55 -4.2 -5.45 -4.8 -5.45 -4.85 -4.75 -5.55 -4.35 -5.6 -4.15 -5.3 -3.95 -4.9 -4.35 -4.6 -4.4 -4.2 -4.55 -3.05 -4.3 -2.7 -5.05 -2.5 -5.65 -2.2 -6.2 -1.55 -6.25 -1.5 -7.0 -1.95 M-8.1 -6.05 L-7.6 -6.35 -6.75 -6.3 -7.15 -6.0 -7.65 -6.05 -8.1 -6.05 M-6.1 -6.95 L-5.6 -7.0 -5.25 -6.4 -5.2 -6.35 -5.6 -6.05 -6.05 -6.9 -6.1 -6.95 M8.3 -0.85 L7.9 -0.55 6.45 -1.3 6.85 -1.6 8.3 -0.85 M4.7 -2.9 L4.45 -2.75 3.15 -4.65 1.3 -6.4 1.35 -6.45 3.7 -4.4 4.7 -2.9 M3.1 -1.5 L2.55 -2.65 2.9 -2.7 3.05 -2.75 3.5 -1.8 3.1 -1.5 M-0.8 -2.9 L0.5 -1.45 0.9 -0.65 0.5 -0.35 0.45 -0.4 Q-0.65 -0.5 -0.85 0.65 L-1.0 -0.8 -2.2 -1.3 Q-1.25 -1.25 -0.45 -2.0 L-1.2 -2.6 -0.8 -2.9 M5.25 -3.15 L5.75 -3.25 6.25 -2.25 5.85 -1.95 5.25 -3.15 M0.75 1.7 L0.75 1.35 1.15 1.25 1.15 1.4 Q0.95 2.5 0.4 3.15 L-0.15 3.4 Q0.6 2.8 0.75 1.7 M4.15 2.75 L4.1 2.45 4.05 2.05 4.0 1.55 4.4 1.25 4.4 1.3 4.5 2.3 4.55 2.5 4.15 2.75 M2.55 4.3 L2.65 4.4 3.4 5.25 3.0 5.45 2.95 5.45 2.25 4.75 2.0 4.55 2.55 4.3 M4.1 6.7 L3.8 6.4 4.1 6.7" fill="#ffffff" fill-opacity="0.2" fill-rule="evenodd" stroke="none"/>
      <path d="M0.05 -8.4 L0.4 -8.65 0.3 -7.9 -0.1 -7.65 0.05 -8.4 M-1.35 -8.55 L-1.45 -7.95 -1.9 -8.45 -1.5 -8.75 -1.35 -8.55 M-2.0 -6.35 L-1.85 -6.15 -1.8 -6.1 -1.8 -6.05 -1.9 -5.8 -1.9 -5.55 -2.1 -5.75 -2.35 -6.05 -2.0 -6.35 M8.3 -0.85 L7.25 0.2 6.95 0.45 7.15 0.2 7.9 -0.55 8.3 -0.85 M6.65 0.5 L7.05 0.95 7.05 1.0 6.65 1.2 6.1 0.6 6.65 0.5 M-1.35 7.0 L-1.5 6.9 -3.9 5.3 -3.7 5.2 -3.45 4.4 -3.8 3.25 -3.45 4.4 -3.85 4.65 -3.95 4.25 -4.3 3.15 -4.15 3.0 -4.05 2.9 -3.95 2.8 -3.9 2.85 -3.8 3.25 Q-2.8 4.5 -1.4 5.05 L-1.35 5.05 -1.7 5.6 -1.35 6.7 -0.35 6.65 0.05 6.4 0.05 6.35 0.25 6.7 -0.2 7.35 -1.0 7.1 -1.35 7.0 M-4.55 4.95 L-4.45 5.5 -4.75 5.8 -5.2 4.3 -5.0 4.05 -4.85 4.7 -4.55 4.95 M-6.7 2.2 L-6.45 2.35 -6.3 2.55 -5.85 2.85 -6.0 2.95 -6.1 3.1 -7.1 2.45 -6.7 2.2 M-6.75 -6.3 L-6.7 -6.25 -6.75 -5.6 -7.15 -6.0 -6.75 -6.3 M2.9 -0.75 L3.1 -1.5 3.5 -1.8 3.45 -1.55 3.3 -1.05 2.9 -0.75 M1.25 -4.75 L0.85 -4.05 0.45 -3.75 0.6 -3.95 0.95 -4.6 1.05 -4.8 1.45 -5.1 1.25 -4.75 M-0.65 -3.45 L-0.8 -2.9 -1.2 -2.6 -1.0 -3.35 -0.65 -3.45 M0.9 -0.65 L1.05 -0.7 1.0 -0.45 0.5 -0.35 0.9 -0.65 M5.85 -1.95 L6.25 -2.25 6.0 -1.45 5.6 -1.2 5.85 -1.95 M1.0 -6.25 L1.15 -6.4 1.2 -6.5 1.2 -6.55 1.65 -7.35 2.0 -7.65 1.4 -6.5 1.35 -6.45 1.3 -6.4 1.0 -6.25 M-0.6 -5.15 L-0.45 -5.7 -0.45 -5.75 -0.4 -5.75 -0.15 -5.85 -0.2 -5.65 -0.2 -5.6 -0.2 -5.45 -0.6 -5.15 M-3.7 -2.8 L-3.95 -2.65 -4.1 -2.5 -4.3 -2.7 -4.55 -3.05 -4.4 -4.2 -4.35 -4.6 -3.95 -4.9 -4.0 -4.7 -4.15 -3.35 -3.7 -2.8 M-4.1 0.15 L-3.15 -1.7 -3.0 -1.6 -3.85 0.1 -4.2 0.4 -4.1 0.15 M-0.75 1.85 L-0.7 2.0 -2.8 2.6 -2.4 2.3 -0.75 1.85 M3.65 2.7 L4.1 2.8 4.15 2.8 4.15 2.75 4.55 2.5 4.5 2.3 4.4 1.3 4.4 1.25 4.0 1.55 3.9 1.5 3.4 0.95 3.95 0.85 4.0 0.85 4.4 1.25 5.15 2.05 5.4 2.3 5.5 2.3 Q5.4 4.85 3.65 6.35 L3.6 6.4 3.8 6.4 3.4 6.7 3.25 6.65 2.2 6.45 1.65 6.3 2.0 6.05 3.6 6.4 2.0 6.05 1.95 5.95 2.05 6.0 3.0 5.45 3.4 5.25 2.65 4.4 Q3.4 3.7 3.65 2.7 M0.7 3.9 L2.55 4.3 2.0 4.55 0.4 4.2 0.35 4.2 0.3 4.15 0.7 3.9 M3.95 0.85 L4.4 1.25 3.95 0.85 M-5.6 -6.05 L-5.2 -6.35 -5.45 -4.85 -5.45 -4.8 -5.55 -4.2 -5.8 -4.5 -5.7 -5.3 -5.6 -6.0 -5.6 -6.05 M-4.9 1.6 L-5.15 1.95 -6.2 1.25 -5.8 1.0 -4.9 1.6" fill="#000000" fill-opacity="0.29803923" fill-rule="evenodd" stroke="none"/>
      <path d="M0.6 -7.85 L0.6 -7.9 0.65 -7.9 0.6 -7.85" fill="#c4c4c4" fill-rule="evenodd" stroke="none"/>
      <path d="M1.3 8.45 L1.25 8.55 0.85 8.8 1.05 8.55 1.25 8.35 1.3 8.45 M6.85 -1.6 L6.45 -1.3 5.6 -1.2 6.0 -1.45 6.85 -1.6 M3.6 -1.1 L3.5 -0.85 3.4 -0.85 2.9 -0.75 3.3 -1.05 3.5 -1.05 3.6 -1.1 M-3.25 -5.85 L-3.25 -5.35 -3.95 -4.8 -4.0 -4.7 -3.95 -4.9 -4.15 -5.3 -3.25 -5.85 M-5.65 -1.8 L-5.25 -1.95 -5.1 -1.75 -5.1 -1.5 -5.1 -1.35 -5.05 -0.55 -5.05 0.45 -4.75 1.5 -4.9 1.6 -5.25 0.65 -5.65 -1.3 -5.65 -1.6 -5.65 -1.8 M-0.2 -5.6 L-0.2 -5.65 0.1 -5.55 0.05 -5.55 -0.2 -5.6 M-0.35 6.65 L-0.2 6.4 -0.05 6.2 0.05 6.35 0.05 6.4 -0.35 6.65 M-3.9 2.85 L-3.4 3.3 Q-2.55 4.45 -1.4 5.05 -2.8 4.5 -3.8 3.25 L-3.9 2.85" fill="#4d4a44" fill-rule="evenodd" stroke="none"/>
      <path d="M3.35 8.1 L3.45 8.3 3.05 8.6 2.65 7.95 3.35 8.1 M-3.9 5.3 L-4.1 5.45 -4.0 5.2 -3.95 4.95 -3.85 4.65 -3.45 4.4 -3.7 5.2 -3.9 5.3 M-4.45 5.5 L-4.65 6.3 -5.05 6.55 -4.9 6.05 -4.75 5.8 -4.45 5.5 M-0.2 -5.6 L0.05 -5.55 -0.2 -5.45 -0.2 -5.6 M-2.8 2.6 L-3.05 2.15 -4.2 0.4 -3.85 0.1 -2.4 2.3 -2.8 2.6 M0.4 3.15 L0.7 3.9 0.3 4.15 -0.15 3.4 0.4 3.15" fill="#000000" fill-opacity="0.4" fill-rule="evenodd" stroke="none"/>
      <path d="M0.4 -5.65 L0.2 -5.5 0.1 -5.4 -0.6 -5.15 -0.2 -5.45 0.05 -5.55 0.1 -5.55 0.4 -5.65" fill="#504c45" fill-rule="evenodd" stroke="none"/>
      <path d="M4.1 2.8 L4.15 2.75 4.15 2.8 4.1 2.8" fill="url(#gradient1)" fill-rule="evenodd" stroke="none"/>
      <path d="M-6.65 -2.9 L-6.3 -3.15 -6.2 -3.1 Q-6.25 -3.05 -6.65 -2.9 M-7.65 -4.35 L-7.55 -4.55 -7.45 -4.5 -7.65 -4.35" fill="#6a6355" fill-rule="evenodd" stroke="none"/>
      <path d="M-5.85 5.2 L-5.95 5.2 -5.95 5.15 -5.85 5.2" fill="#ffffff" fill-rule="evenodd" stroke="none"/>
      <path d="M0.05 -9.65 L-0.45 -9.7 -0.6 -9.55 -1.3 -8.7 -1.35 -8.55 -1.45 -7.95 M-2.85 -8.4 L-2.8 -7.55 -2.8 -7.25 -2.0 -6.35 -1.85 -6.15 -1.8 -6.1 -1.8 -6.05 -1.9 -5.8 -1.9 -5.55 -2.1 -5.75 -2.35 -6.05 -2.0 -6.35 -2.9 -6.35 -3.3 -6.05 -3.25 -5.85 -3.25 -5.35 -3.25 -4.9 -2.35 -3.75 -2.4 -3.35 -2.4 -3.3 -2.45 -3.1 -3.7 -2.8 -3.55 -2.9 -2.4 -3.35 M0.6 -7.85 L0.6 -7.9 0.65 -7.9 0.6 -7.85 M0.3 -7.9 L-0.1 -7.65 M8.3 -0.85 L7.25 0.2 6.95 0.45 6.9 0.45 6.85 0.5 6.65 0.5 7.05 0.95 7.05 1.0 7.15 2.25 6.75 2.5 6.75 2.55 6.05 2.4 Q5.95 5.1 4.2 6.6 L4.1 6.7 4.75 7.35 4.4 7.65 3.45 8.15 3.35 8.1 3.45 8.3 3.3 9.5 2.9 9.75 1.55 9.0 1.3 8.45 1.25 8.55 0.85 8.8 -0.25 8.85 -0.4 8.1 -0.45 7.75 -0.25 7.45 -0.45 7.35 -1.35 7.0 -1.5 6.9 -3.9 5.3 -4.1 5.45 -4.55 4.95 -4.45 5.5 -4.65 6.3 -5.05 6.55 -5.7 5.85 -5.85 5.2 -5.95 5.2 -6.15 5.5 -7.0 5.4 -7.0 4.3 -6.75 4.0 -7.2 3.7 -7.7 2.75 -7.3 2.45 -6.7 2.2 -6.45 2.35 -6.8 1.6 -6.45 1.3 -7.0 -1.1 -7.0 -1.8 -7.0 -1.95 -7.0 -2.0 M-6.85 -3.25 L-7.55 -2.95 -8.25 -3.4 -8.2 -3.5 -7.9 -4.3 -7.8 -4.35 -7.65 -4.35 -7.55 -4.55 -7.85 -4.9 -8.1 -6.05 -7.6 -6.35 -6.75 -6.3 -6.7 -6.25 -6.7 -6.3 -6.15 -6.9 -6.1 -6.95 -5.6 -7.0 -5.25 -6.4 Q-4.3 -7.3 -3.05 -7.5 L-2.85 -7.55 -2.8 -7.55 M7.9 -0.55 L8.3 -0.85 6.85 -1.6 6.0 -1.45 6.25 -2.25 5.75 -3.25 5.25 -3.15 5.1 -3.1 4.7 -2.9 4.45 -2.75 4.05 -2.55 3.55 -1.3 3.6 -1.1 3.5 -0.85 3.4 -0.85 2.9 -0.75 M2.55 -2.65 L2.9 -2.7 2.2 -3.75 1.25 -4.75 0.85 -4.05 0.45 -3.75 -0.65 -3.45 -0.8 -2.9 0.5 -1.45 0.9 -0.65 1.05 -0.7 1.45 -2.1 M1.0 -6.25 L1.3 -6.4 1.35 -6.45 1.4 -6.5 M-1.5 -8.75 L-1.35 -8.55 M-2.85 -8.4 L-2.45 -8.7 -1.5 -8.75 M1.45 -5.1 L0.4 -5.65 0.1 -5.55 0.05 -5.55 -0.2 -5.6 -0.2 -5.45 0.05 -5.55 M0.1 -5.4 L-0.6 -5.15 -0.45 -5.7 -0.45 -5.75 -0.4 -5.75 -0.15 -5.85 1.0 -6.25 M-6.2 -1.55 L-5.65 -1.8 -5.25 -1.95 -5.1 -1.75 -4.9 -1.45 -5.05 -0.65 -5.05 -0.55 -5.05 0.45 -4.75 1.5 -4.9 1.6 -5.8 1.0 -6.45 1.3 M-4.1 0.15 L-3.15 -1.7 -3.0 -1.6 -2.2 -1.3 -1.0 -0.8 -0.85 0.65 -0.75 1.85 -0.7 2.0 -2.8 2.6 -3.05 2.15 -4.2 0.4 -4.1 0.15 M-1.0 -3.35 L-0.65 -3.45 M1.45 -5.1 L1.25 -4.75 M-0.2 -5.65 L-0.2 -5.6 M-0.2 -5.65 L-0.15 -5.85 M-0.2 -5.45 L-0.6 -5.15 M1.05 -0.7 L1.0 -0.45 M-2.4 2.3 L-3.85 0.1 -3.0 -1.6 M-2.4 2.3 L-0.75 1.85 M0.75 1.7 L0.75 1.35 1.15 1.25 1.45 1.2 1.95 1.7 2.85 2.55 3.65 2.7 4.1 2.8 4.15 2.75 4.55 2.5 4.5 2.3 4.4 1.3 4.4 1.25 3.95 0.85 4.0 0.85 4.4 1.25 5.15 2.05 5.4 2.3 5.5 2.3 6.05 2.4 M1.15 1.25 L1.15 1.4 Q0.95 2.5 0.4 3.15 L0.7 3.9 2.55 4.3 2.65 4.4 Q3.4 3.7 3.65 2.7 M3.5 -1.8 L3.45 -1.55 3.55 -1.3 M2.9 -2.7 L3.05 -2.75 3.5 -1.8 M3.3 -1.05 L3.45 -1.55 M3.3 -1.05 L3.5 -1.05 3.6 -1.1 M4.1 2.8 L4.15 2.8 4.15 2.75 M6.65 1.2 L7.05 1.0 M4.7 -2.9 L3.7 -4.4 1.35 -6.45 M3.0 5.45 L3.4 5.25 2.65 4.4 M0.35 4.2 L0.3 4.15 -0.15 3.4 0.4 3.15 M3.6 6.4 L3.8 6.4 4.1 6.7 M3.6 6.4 L2.0 6.05 1.95 5.95 2.05 6.0 3.0 5.45 M2.65 7.95 L3.35 8.1 M0.3 4.15 L0.7 3.9 M-3.4 3.3 L-2.8 3.7 -1.3 3.95 -1.0 4.55 -1.35 5.05 -1.7 5.6 -1.35 6.7 -0.35 6.65 0.05 6.4 0.05 6.35 0.25 6.7 -0.2 7.35 -0.25 7.45 M-0.05 6.2 L0.05 6.35 M-1.4 5.05 L-1.35 5.05 M2.55 4.3 L2.0 4.55 M-5.2 -6.35 L-5.25 -6.4 M-5.2 -6.35 L-5.45 -4.85 -4.75 -5.55 -4.35 -5.6 -4.15 -5.3 -3.95 -4.9 -4.0 -4.7 -4.15 -3.35 -3.7 -2.8 M-5.7 -5.3 L-5.8 -4.5 -5.55 -4.2 -5.45 -4.8 -5.45 -4.85 M-6.75 -5.6 L-6.7 -6.25 M-7.65 -4.35 L-7.45 -4.5 -7.55 -4.55 M-6.65 -2.9 Q-6.25 -3.05 -6.2 -3.1 L-6.3 -3.15 M-4.0 -4.7 L-3.95 -4.8 -3.25 -5.35 M-5.05 -0.55 L-5.1 -1.35 -5.1 -1.5 -5.1 -1.75 M-6.2 -1.55 L-6.25 -1.5 -7.0 -1.95 M-6.45 2.35 L-6.3 2.55 -5.85 2.85 -6.0 2.95 M-3.95 2.8 L-3.9 2.85 -3.4 3.3 Q-2.55 4.45 -1.4 5.05 M-3.8 3.25 L-3.45 4.4 -3.7 5.2 -3.9 5.3 M-5.0 4.05 L-4.85 4.7 -4.55 4.95 M-5.95 5.2 L-5.95 5.15 -5.85 5.2 M-3.9 2.85 L-3.8 3.25" fill="none" stroke="#000000" stroke-linecap="round" stroke-linejoin="round" stroke-opacity="0.29803923" stroke-width="0.05"/>
      <path d="M0.4 -8.65 L0.05 -9.65 M0.95 -8.15 L0.3 -7.9 0.4 -8.65 M2.0 -7.65 L0.95 -8.15 M1.4 -6.5 L2.0 -7.65" fill="none" stroke="#000000" stroke-linecap="round" stroke-linejoin="round" stroke-opacity="0.29803923" stroke-width="0.1"/>
    </g>
    <linearGradient gradientTransform="matrix(0.0053, 0.0114, -0.1357, 0.0526, 12.25, 2.4)" gradientUnits="userSpaceOnUse" id="gradient1" spreadMethod="pad" x1="-819.2" x2="819.2">
      <stop offset="0.0" stop-color="#808080"/>
      <stop offset="1.0" stop-color="#6a6355" stop-opacity="0.9882353"/>
    </linearGradient>
  </defs>
</svg>
