<?xml version="1.0" encoding="UTF-8"?>
<svg version="1.1" viewBox="0 0 17.3 37.179" xmlns="http://www.w3.org/2000/svg" xmlns:cc="http://creativecommons.org/ns#" xmlns:dc="http://purl.org/dc/elements/1.1/" xmlns:rdf="http://www.w3.org/1999/02/22-rdf-syntax-ns#" xmlns:xlink="http://www.w3.org/1999/xlink">
<metadata>
<rdf:RDF>
<cc:Work rdf:about="">
<dc:format>image/svg+xml</dc:format>
<dc:type rdf:resource="http://purl.org/dc/dcmitype/StillImage"/>
</cc:Work>
</rdf:RDF>
</metadata>
<g transform="translate(-292.28 -180.22)">
<use transform="translate(292.3,180.25)" width="17.25" height="37.150002" xlink:href="#a"/>
</g>
<defs>
<g id="a" transform="translate(-292.3,-180.25)">
<path d="m309.45 212.45 0.1 0.1h-0.05l-0.1-0.05 0.05-0.05m-1.9 0.05-0.7-0.05 0.7-0.05v0.1m-3.4 0.5-0.1 0.05 0.1-0.05m-11.8-3.2v-0.55 0.55" fill="#555ba0" fill-rule="evenodd"/>
<path d="m304.2 212.95v0.05h-0.05l0.05-0.05" fill="#43487e" fill-rule="evenodd"/>
<path d="m301 181.1 1.15-0.85q1.05 1.3 1.4 2.85v0.05l0.05 0.1v0.1l0.45 9.05q-0.4 1.85-4 5.7 0.5-2.1 0.85-8.65 0.4-6.65 0.1-8.35m3.6 19.7q0.55 6.65 3.6 10.7l1.25 0.95-0.05 0.05h-1.85v-0.1q-1.8-1.5-2.9-3.2-1.55-2.5-1.8-4.05l-0.05-0.1q-0.25 2.05 0.05 3.85v0.05l0.65 2.95q-2.65-3.3-3.3-5.6l-0.05-6.45 0.15-0.35 4.3 1.3m-8.15 15.3-0.25 0.15-0.7 0.35-0.9-1.05-0.25-0.35q-0.85-1.15-1.3-2.45-0.55-1.4-0.7-2.95l0.1-1.35q0.05-0.9 0.25-1.75 2.55-4.05 4.9-4.9l-0.55 2.5v0.05l-0.1 0.05-1.7 2.25 0.4 0.95 0.8 0.3-0.25 2.65q-0.1 2.85 0.25 5.55m-2.95-18.6 0.35-5.9-0.05-3.25-0.5-4.1 1.45-0.4 0.25-0.05q1.4 0.8 3.15 6.1 1.7 5.2 1.4 7.25l-1.3 2.25v-0.8l-0.2 0.6q-4.25-0.55-4.55-1.7m4.75 4.1 0.8-1.45 0.35-0.1 0.3 12.45-0.05-0.2-0.35-1.6q-0.6-3-0.9-6.35l-0.05-0.8v-0.4l-0.1-1.45v-0.1m4.5-12.15-0.55 0.15-0.65 4.3 0.25 0.5 1.45-2.7-0.5-2.25m-5.2 6.95 0.25-1.95-0.85-1.85-1.1 0.55-0.45 1.2 2.15 2.05m4.25 4.9-0.4 0.5v0.05l0.35 2.15 1.45 1.3 1.3 0.55-0.8-3.35-1.9-1.15v-0.05" fill="#e9350a" fill-rule="evenodd"/>
<path d="m295 183.8q3.45-1 6-2.7 0.3 1.7-0.1 8.35-0.35 6.55-0.85 8.65 3.6-3.85 4-5.7l0.3 5.9 0.2 1.8v0.15l0.05 0.55-4.3-1.3-0.15 0.35 0.05 6.45q0.65 2.3 3.3 5.6l0.65 1.1-0.1 0.05-0.2 0.35-0.05 0.45-0.05 0.25q-0.2 1.05-1.1 1.35l-0.85 0.15-0.75 0.05h-0.1q-0.55-1-0.95-2.25l-0.25-0.7-0.05-0.2-0.3-12.45-0.35 0.1-0.8 1.45v-2.2l1.3-2.25q0.3-2.05-1.4-7.25-1.75-5.3-3.15-6.1m-2.3 22.9 0.8-9.2q0.3 1.15 4.55 1.7l-0.45 2.6q-2.35 0.85-4.9 4.9m10.05-17.25 0.5 2.25-1.45 2.7-0.25-0.5 0.65-4.3 0.55-0.15m-5.2 6.95-2.15-2.05 0.45-1.2 1.1-0.55 0.85 1.85-0.25 1.95m4.25 4.9v0.05l1.9 1.15 0.8 3.35-1.3-0.55-1.45-1.3-0.35-2.15v-0.05l0.4-0.5m-3.45 2.25 0.05 0.8-0.6 0.95-0.3 0.25-0.4 2.6-0.65-0.25-0.8-0.3-0.4-0.95 1.7-2.25 0.1-0.05 1.25-0.85 0.05 0.05" fill="#2f1700" fill-rule="evenodd"/>
<path d="m306.85 212.45-1.6 0.35-1.75-0.9-0.65-2.95v-0.05q-0.3-1.8-0.05-3.85l0.05 0.1q0.25 1.55 1.8 4.05 1.1 1.7 2.9 3.2l-0.7 0.05m-7.4 3.2h-0.1q-1.9-0.05-2.9 0.45-0.35-2.7-0.25-5.55l0.25-2.65 0.65 0.25 0.4-2.6 0.3-0.25 0.6-0.95q0.3 3.35 0.9 6.35l0.35 1.6 0.1 0.4-0.3 2.95m-1.4-16.45 0.2-0.6v0.45l-0.2 0.15m-0.45 2.6 0.65-0.1 0.1 1.45v0.4l-0.05-0.05-1.25 0.85v-0.05l0.55-2.5" fill="#ad1c07" fill-rule="evenodd"/>
<path d="m305.25 212.8-1 0.15h-0.05l-0.05 0.05-0.65-1.1 1.75 0.9m-4.3 2.85h-1.5l0.3-2.95 0.25 0.7q0.4 1.25 0.95 2.25m-2.7-16.25v2.3l-0.65 0.1 0.45-2.6 0.2-0.15v0.35" fill-rule="evenodd"/>
<path d="m295.5 216.6 0.75 0.75q-2.55 0.2-3.95-1l0.05-6.55q0.15 1.55 0.7 2.95 0.45 1.3 1.3 2.45l0.25 0.35 0.9 1.05" fill="#616161" fill-rule="evenodd"/>
<path d="m303.6 183.25v0.1m0.2 30.5-0.05 0.25q-0.2 1.05-1.1 1.35l-0.85 0.15" fill="none" stroke="#4f4f4f" stroke-linecap="round" stroke-linejoin="round" stroke-width=".05"/>
<path d="m304.35 198.3 0.2 1.8v0.15l0.05 0.55q0.55 6.65 3.6 10.7l1.25 0.95 0.1 0.1h-0.05l-0.1-0.05h-1.85l-0.7-0.05-1.6 0.35-1 0.15m-0.2 0.1-0.2 0.35-0.05 0.45m-2 1.75-0.75 0.05h-1.7q-1.9-0.05-2.9 0.45l-0.25 0.15-0.7 0.35 0.7 0.7m7.95-4.3-0.1 0.05m-11.7-3.25q0.15 1.55 0.7 2.95 0.45 1.3 1.3 2.45l0.25 0.35 0.9 1.05" fill="none" stroke="#900" stroke-linecap="round" stroke-linejoin="round" stroke-width=".05"/>
<path d="m304.2 212.95v0.05h-0.05" fill="none" stroke="#0f121c" stroke-linecap="round" stroke-linejoin="round" stroke-width=".05"/>
<path d="m296.2 217.3 0.05 0.05q-2.55 0.2-3.95-1" fill="none" stroke="#333" stroke-linecap="round" stroke-linejoin="round" stroke-width=".05"/>
<path d="m302.15 180.25q1.05 1.3 1.4 2.85v0.05l0.05 0.1m0 0.1 0.45 9.05 0.3 5.9m-12.05 18.05 0.05-6.55 0.1-1.35q0.05-0.9 0.25-1.75l0.8-9.2 0.35-5.9-0.05-3.25-0.5-4.1 1.45-0.4 0.25-0.05m3.05 15.4-0.45 2.6q-2.35 0.85-4.9 4.9m5.35-7.5q-4.25-0.55-4.55-1.7" fill="none" stroke="#2f1700" stroke-linecap="round" stroke-linejoin="round" stroke-width=".05"/>
</g>
</defs>
</svg>
