<?xml version="1.0" encoding="UTF-8"?>
<svg version="1.1" viewBox="0 0 160.63 123.28" xmlns="http://www.w3.org/2000/svg" xmlns:cc="http://creativecommons.org/ns#" xmlns:dc="http://purl.org/dc/elements/1.1/" xmlns:rdf="http://www.w3.org/1999/02/22-rdf-syntax-ns#" xmlns:xlink="http://www.w3.org/1999/xlink">
<metadata>
<rdf:RDF>
<cc:Work rdf:about="">
<dc:format>image/svg+xml</dc:format>
<dc:type rdf:resource="http://purl.org/dc/dcmitype/StillImage"/>
</cc:Work>
</rdf:RDF>
</metadata>
<g transform="translate(-174.67 -139.25)">
<use transform="translate(230.2,139.25)" width="66.5" height="18.799999" xlink:href="#g"/>
<use transform="translate(214.7,143.6)" width="120.55" height="112.7" xlink:href="#b"/>
<use transform="matrix(.341 -.0183 .1023 .3137 299.65 150.5)" width="37.25" height="32.549999" xlink:href="#a"/>
<use transform="matrix(.3307 -.0178 .0992 .3041 259.8 158.75)" width="37.25" height="32.549999" xlink:href="#a"/>
<use transform="translate(174.7,149.8)" width="120.55" height="112.7" xlink:href="#d"/>
<use transform="matrix(.341 -.0183 .1023 .3137 257.95 160.2)" width="37.25" height="32.549999" xlink:href="#a"/>
<use transform="translate(228.2,140.8)" width="65.5" height="17.15" xlink:href="#c"/>
</g>
<defs>
<g id="g" transform="translate(-230.2,-139.25)">
<path d="m230.25 155.25 0.2-1.5q21.9-8.45 47.6-10.85 5-0.45 10.1-2.15l4.8-1.5q2.75 0.2 3.55 2.75l0.2 0.75q-28.5 18.25-65.5 14.75-1.2-0.85-0.95-2.25" fill="#fdf3d7" fill-rule="evenodd"/>
</g>
<g id="b">
<use width="120.55" height="112.7" xlink:href="#f"/>
</g>
<g id="f">
<path d="m78.8 0.3q-0.35 2.5-3.4 3.95l-2.45 0.85-2.7 0.25h-2.7l-3.1-0.05h-5.35l-0.3-1.4 1.6-0.35-0.05-0.35 2.55-0.25 0.2 0.05 4.1 0.25h0.35q5.55-0.1 9.6-3.25l1.65 0.3m-26.85 5.1-5.9 1.25-3.5 0.4-4.55 0.95-1.2 0.3-3.95 1.35-0.15-0.4q1.9-1.2 3.55-2.1l1.1-0.6q2.35-1.3 4.05-1.9 2.1-0.75 4.95-1.45l0.3-0.05 1.35 1q1.65 1.05 3.95 1.25" fill="#35484f" fill-rule="evenodd"/>
<path d="m34.9 104.5 2.45 5.7q-8.2-3.05-17-10.8l-5.15-4.85q-5.8-5.85-9.4-12.55l-0.6-1.15q-5.05-10.1-5.2-22.1-0.1-8.2 2.2-15.65 2.5-8.3 7.95-15.6 2-2.7 4.45-5.3 4.85-5.1 10-8.35l3.2-1.85 0.4-0.25 2.15-1.05 2.5-1.05 3.95-1.35 1.2-0.3 4.55-0.95 3.5-0.4 0.65-0.05 2.55-0.1-4.3 6.3-2.05 0.4h-0.1l-2.3 0.55q-2.45 0.65-4.95 1.55l-0.4 0.1-0.2 0.1-4.05 1.05q-8.35 2.65-14.75 9.45-1.55 1.6-2.95 3.45-3.65 4.75-5.9 10.75-3.1 8.25-3.4 18.8-0.3 11.35 4.7 21l0.35 0.65q2.95 5.4 7.6 10.3 4.4 4.6 8.8 7.9 4.8 3.6 9.55 5.65" fill="#516d77" fill-rule="evenodd"/>
<path d="m78.8 0.3 6.05 1q2.55 0.45 5.3 1.8l-25.5 5.35q-2.45-0.75-5-1.2l-5.9-0.7-3.25-0.1-1.25 0.05-2.55 0.1-0.65 0.05 5.9-1.25 1.25-0.3 0.05 0.3h0.5l5.35-0.1h5.35l3.1 0.05h2.7l2.7-0.25 2.45-0.85q3.05-1.45 3.4-3.95m-62.65 25.7 5.85-1.6q5.6-1.6 11.25-2.6l1.9-0.35-0.4 0.3q-1.45 1.15-2.7 2.6-3.8 4.45-5.6 11.95-1.75 7.1-1.75 16.9v1.35q0.1 5.5 1.05 10.25-0.25 1-1.15 1.75l0.25 0.35 1.8 1.85 0.05 0.05 0.75 2.35v1.95q0.15 1.15 1.9 2.5l0.1 0.25v2.25l-1.4 0.9-7.25 0.65-11.85 1-0.35-0.65q-5-9.65-4.7-21 0.3-10.55 3.4-18.8 2.25-6 5.9-10.75 1.4-1.85 2.95-3.45m14.8 52.5h0.05l0.1 0.15-2.1 0.25 0.45-0.4h1.5m18.45 15.15 1.5 0.85-2.3 0.35 0.8-1.2" fill="#63848f" fill-rule="evenodd"/>
<path d="m58.8 3.9 0.3 1.4-5.35 0.1h-0.5l-0.05-0.3 5.6-1.2" fill="#2f3f44" fill-rule="evenodd"/>
<path d="m60.4 3.55-1.6 0.35-5.6 1.2-1.25 0.3q-2.3-0.2-3.95-1.25l-1.35-1 5.8-1.15 1.6 0.4 6.25 0.8 0.1 0.35" fill="#1b2427" fill-rule="evenodd"/>
<path d="m73.55 12.15 0.7 0.4q5.45 3.1 10.55 8.1l1.55 1.55 1.1 1.15 0.1 0.15q13.7 15.3 13.7 36.7 0 9.95-3 18.65-2.8 8.1-8.2 15.1l-2.75 3.25-0.95 1-2.45 2.5-2.05 1.8-4.85 3.65-6.1 3.45-0.05 0.05h-0.05l-0.2 0.1q-4.2 1.85-8.75 2.95h-12.4l-0.9-0.1-5.35-0.8q-2.9-0.5-5.85-1.6l-2.45-5.7q3.7 1.55 7.4 2.15l10.4 1.2 6.85-0.2 5.2-1.5q3.65-1.35 7.6-3.85l2.85-1.95q4.75-3.5 9.75-8.7 5.55-5.75 8.55-13.9 2.7-7.5 3.25-17 1.15-19.8-13.35-34l-0.6-0.6 0.9-4.25h-5.5q-10.85-9.4-17.6-9.55-8.7-0.15-13.45 0.2l-0.3 0.05-1.9 0.2 4.3-6.3 1.25-0.05 3.25 0.1 5.9 0.7q2.55 0.45 5 1.2 4.65 1.4 8.9 3.7m-40.85-2.9 0.15 0.4-2.5 1.05q1.2-0.75 2.35-1.45" fill="#87a4ad" fill-rule="evenodd"/>
<path d="m87.55 23.5q4.8-1.15 9.7-1.95l10.4-1.75 1.35-0.2q4.7 6 7.5 13.45 3.55 9.45 4 21.25 0.65 17.5-4.5 27.7l-2.2 3.6-1.45 1.95-1.45-1.15q-6.25 1.65-12.3 4.05l-8.55 3.5q5.4-7 8.2-15.1 3-8.7 3-18.65 0-21.4-13.7-36.7m-59.5 55.5 1.4-0.9v0.4l-0.45 0.4-1 0.85-0.1-0.1-0.3-0.4q0.25-0.15 0.45-0.25" fill="#c1cfd5" fill-rule="evenodd"/>
<path d="m60.35 3.2 0.05 0.35-0.1-0.35h0.05" fill="#f1df01" fill-rule="evenodd"/>
<path d="m28 79.75h-0.05l-0.05-0.1 0.1 0.1" fill="#fff3b5" fill-rule="evenodd"/>
<path d="m109 19.6-1.35 0.2-10.4 1.75q-4.9 0.8-9.7 1.95l-0.1-0.15-1.1-1.15-1.55-1.55q-5.1-5-10.55-8.1l-0.7-0.4 4.35-1.15 6.45-1 13.2-1.75 0.15-0.15 0.15 0.15q4.3 3.5 9.05 8.85l2.1 2.5m-18.95 74.35 8.55-3.5q6.05-2.4 12.3-4.05l1.45 1.15-0.2 0.15-1.4 1.6q-7.55 8.3-12.65 11.6l-8.85 0.05-5.35-0.25 2.45-2.5 0.95-1 2.75-3.25" fill="#a2b8bd" fill-rule="evenodd"/>
<path d="m97.7 8.1-0.15 0.15-13.2 1.75-6.45 1-4.35 1.15q-4.25-2.3-8.9-3.7l25.5-5.35q3.55 1.7 7.55 5m-35.85 104.6q4.55-1.1 8.75-2.95l0.2-0.1h0.05l0.05-0.05 6.1-3.45 4.85-3.65 2.05-1.8 5.35 0.25 8.85-0.05-1 0.6-1.4 0.8-2.55 0.95-3.3 1.15-0.2 0.05-5.55 1.55h-0.05l-1.75 0.35-2.65 1.6-2.55 0.95-5.8 1.9h-0.05l-0.2 0.05-8.85 1.85h-0.35m16.35-102.05-0.55 0.1 0.2 0.15 0.35-0.25" fill="#6b8f98" fill-rule="evenodd"/>
<path d="m46.85 12.75q-1 0.6-3.55 2.55l-8.15 6.15-1.9 0.35q-5.65 1-11.25 2.6l-5.85 1.6q6.4-6.8 14.75-9.45l4.05-1.05 0.2-0.1 0.4-0.1q2.5-0.9 4.95-1.55l2.3-0.55h0.1l2.05-0.4 1.9-0.2v0.15m-15.75 65.9q3.4 5.3 8.6 8.9l9.7 6.1-0.8 1.2-12.85 2.25-10.4 1.75q-4.4-3.3-8.8-7.9-4.65-4.9-7.6-10.3l11.85-1 7.25-0.65q-0.2 0.1-0.45 0.25l0.3 0.4 0.05 0.1h0.05l1-0.85 2.1-0.25" fill="#486166" fill-rule="evenodd"/>
<path d="m52.7 107.85-10.4-1.2q-3.7-0.6-7.4-2.15-4.75-2.05-9.55-5.65l10.4-1.75 12.85-2.25 2.3-0.35 2.4 1.15q6.4 3.05 11.5 3.65l1.65 0.2-5.55 2.6q-4.55 2.35-8.2 5.75" fill="#324347" fill-rule="evenodd"/>
<path d="m75.2 100.35-2.85 1.95q-3.95 2.5-7.6 3.85l-5.2 1.5-6.85 0.2q3.65-3.4 8.2-5.75l5.55-2.6 3.7 0.4 5.05 0.45" fill="#11181a" fill-rule="evenodd"/>
<path d="m109 19.6-2.1-2.5q-4.75-5.35-9.05-8.85l-0.15-0.15m-24.15 4.05 0.7 0.4q5.45 3.1 10.55 8.1l1.55 1.55 1.1 1.15m0.1 0.15q13.7 15.3 13.7 36.7 0 9.95-3 18.65-2.8 8.1-8.2 15.1m22.3-6.4 1.45-1.95 2.2-3.6q5.15-10.2 4.5-27.7-0.45-11.8-4-21.25-2.8-7.45-7.5-13.45m-30.2-19.3 6.05 1q2.55 0.45 5.3 1.8 3.55 1.7 7.55 5m-50.85 4.5 0.3-0.05q4.75-0.35 13.45-0.2 6.75 0.15 17.6 9.55h5.5l-0.9 4.25 0.6 0.6q14.5 14.2 13.35 34-0.55 9.5-3.25 17-3 8.15-8.55 13.9-5 5.2-9.75 8.7l-2.85 1.95q-3.95 2.5-7.6 3.85l-5.2 1.5-6.85 0.2-10.4-1.2q-3.7-0.6-7.4-2.15m2.45 5.7q2.95 1.1 5.85 1.6l5.35 0.8 0.9 0.1m12.4 0q4.55-1.1 8.75-2.95l0.2-0.1h0.05l0.05-0.05 6.1-3.45 4.85-3.65 2.05-1.8 2.45-2.5 0.95-1 2.75-3.25m22.3-6.4-0.2 0.15-1.4 1.6q-7.55 8.3-12.65 11.6l-1 0.6-1.4 0.8-2.55 0.95-3.3 1.15-0.2 0.05-5.55 1.55h-0.05l-1.75 0.35-2.65 1.6-2.55 0.95-5.8 1.9h-0.05l-0.2 0.05-8.85 1.85m16.6-112.4-1.65-0.3m-31.1 6.65 0.65-0.05 2.55-0.1 1.25-0.05 3.25 0.1 5.9 0.7q2.55 0.45 5 1.2 4.65 1.4 8.9 3.7m-27.2-8.95q-2.85 0.7-4.95 1.45-1.7 0.6-4.05 1.9l-1.1 0.6q-1.65 0.9-3.55 2.1m0.15 0.4 3.95-1.35 1.2-0.3 4.55-0.95 3.5-0.4m0.6-3.5 5.8-1.15m-17.3 19.45 8.15-6.15q2.55-1.95 3.55-2.55l0.3-0.2m-0.3 0.05-1.9 0.2-2.05 0.4h-0.1l-2.3 0.55q-2.45 0.65-4.95 1.55l-0.4 0.1-0.2 0.1-4.05 1.05q-8.35 2.65-14.75 9.45-1.55 1.6-2.95 3.45-3.65 4.75-5.9 10.75-3.1 8.25-3.4 18.8-0.3 11.35 4.7 21l0.35 0.65q2.95 5.4 7.6 10.3 4.4 4.6 8.8 7.9 4.8 3.6 9.55 5.65m0.25-83.05-0.4 0.3q-1.45 1.15-2.7 2.6-3.8 4.45-5.6 11.95-1.75 7.1-1.75 16.9v1.35q0.1 5.5 1.05 10.25-0.25 1-1.15 1.75l0.25 0.35 0.4 0.45 0.45 0.2 0.25 0.15v0.4h0.7v0.65l0.05 0.05 0.75 2.35v1.95q0.15 1.15 1.9 2.5l0.1 0.05v2.45h0.3l0.5 0.2 0.7 0.2h0.05l0.1 0.15q3.4 5.3 8.6 8.9l9.7 6.1 1.5 0.85 2.4 1.15q6.4 3.05 11.5 3.65l1.65 0.2 3.7 0.4 5.05 0.45m-50.6-86.5 1.6-0.95q0.7-0.5 1.6-0.9l0.15-0.15 0.25-0.1 2.15-1.05q1.2-0.75 2.35-1.45m-4.5 2.5-0.4 0.25-3.2 1.85q-5.15 3.25-10 8.35-2.45 2.6-4.45 5.3-5.45 7.3-7.95 15.6-2.3 7.45-2.2 15.65 0.15 12 5.2 22.1l0.6 1.15q3.6 6.7 9.4 12.55l5.15 4.85q8.8 7.75 17 10.8m-7-99.5 2.5-1.05m-3.4 68.45v0.4h1.5m-4.3-9.75-1.8-1.85m4.6 8.95-0.1-0.25m-1.4 4.15-0.05-0.1-0.3-0.4" fill="none" stroke="#a9dfe7" stroke-linecap="round" stroke-linejoin="round" stroke-width=".05"/>
</g>
<g id="a">
<use width="37.25" height="32.549999" xlink:href="#e"/>
</g>
<g id="e">
<path d="m34.25 11.85q-1.95 1.8-2.05 4.8-0.15 3.15-1 6l-2.05 5.2q-1.2 2.5-4.75 2.25l-7.35-1.05q1.85 0.1 3.3-0.75 2.5-1.4 4.4-3.6 2.85-3.25 4.85-8.1-2.2-2.9-6.9-4 0.75-3.25 0.25-7.2l4.4 2.9q3.2 2.35 6.9 3.55" fill="#c2d3d3" fill-rule="evenodd"/>
<path d="m34.25 11.85q-3.7-1.2-6.9-3.55l-4.4-2.9q0.5 3.95-0.25 7.2 4.7 1.1 6.9 4-2 4.85-4.85 8.1-1.9 2.2-4.4 3.6-1.45 0.85-3.3 0.75l7.35 1.05q3.55 0.25 4.75-2.25l2.05-5.2q0.85-2.85 1-6 0.1-3 2.05-4.8m-14.85-11.5 0.45-0.35 17.4 11.65-5.7 20.15-20.95 0.75-0.05-0.2-7.15-19.45 16-12.55m-9.5 15 2.25 7.25 0.45 1.3 1.45 4.9q-0.25-2.5-0.35-5.3-0.15-4.3 2.45-7.45 1.3-1.6 2.95-2.45 0.85-0.5 0.75-2.3-0.2-3.3 0.5-6.45-2.75 2.05-5.95 3.95-3.75 2.25-4.55 4.85-0.2 0.8 0.05 1.7" fill="#395051" fill-rule="evenodd"/>
<path d="m10.55 32.35q-1.85-0.1-4.4-1.2-1.45-6.25-4.5-11.55-1.1-1.95-1.6-4.3-0.3-1.4 0.65-2.25l10.15-9.3q3.65-3.6 8.55-3.4l-16 12.55 7.15 19.45" fill="#0a0e0e" fill-rule="evenodd"/>
<path d="m9.9 15.35q-0.25-0.9-0.05-1.7 0.8-2.6 4.55-4.85 3.2-1.9 5.95-3.95-0.7 3.15-0.5 6.45 0.1 1.8-0.75 2.3-1.65 0.85-2.95 2.45-2.6 3.15-2.45 7.45 0.1 2.8 0.35 5.3l-1.45-4.9-0.45-1.3-2.25-7.25" fill="#182323" fill-rule="evenodd"/>
<path d="m10.55 32.35q-1.85-0.1-4.4-1.2-1.45-6.25-4.5-11.55-1.1-1.95-1.6-4.3-0.3-1.4 0.65-2.25l10.15-9.3q3.65-3.6 8.55-3.4l0.45-0.35 17.4 11.65-5.7 20.15-20.95 0.75-0.05-0.2-7.15-19.45 16-12.55" fill="none" stroke="#1b5658" stroke-linecap="round" stroke-linejoin="round" stroke-width=".05"/>
</g>
<g id="d" transform="translate(-174.7,-149.8)">
<path d="m253.5 150.1q-0.35 2.5-3.4 3.95l-2.45 0.85-2.7 0.25h-2.7l-3.1-0.05h-5.35l-0.3-1.4 1.6-0.35-0.05-0.35 2.55-0.25 0.2 0.05 4.1 0.25h0.35q5.55-0.1 9.6-3.25l1.65 0.3m-26.85 5.1-5.9 1.25-3.5 0.4-4.55 0.95-1.2 0.3q-1.9 0.55-3.95 1.35l-0.15-0.4q1.9-1.2 3.55-2.1l1.1-0.6q2.35-1.3 4.05-1.9l4.95-1.45 0.3-0.05 1.35 1q1.65 1.05 3.95 1.25" fill="#35484f" fill-rule="evenodd"/>
<path d="m209.6 254.3 2.45 5.7q-8.2-3.05-17-10.8l-5.15-4.85q-5.8-5.85-9.4-12.55l-0.6-1.15q-5.05-10.1-5.2-22.1-0.1-8.2 2.2-15.65 2.5-8.3 7.95-15.6 2-2.7 4.45-5.3 4.85-5.1 10-8.35l3.2-1.85 0.4-0.25 2.15-1.05 2.5-1.05q2.05-0.8 3.95-1.35l1.2-0.3 4.55-0.95 3.5-0.4 0.65-0.05 2.55-0.1-4.3 6.3-2.05 0.4h-0.1l-2.3 0.55-4.95 1.55-0.4 0.1-0.2 0.1-4.05 1.05q-8.35 2.65-14.75 9.45l-2.95 3.45q-3.65 4.75-5.9 10.75-3.1 8.25-3.4 18.8-0.3 11.35 4.7 21l0.35 0.65q2.95 5.4 7.6 10.3 4.4 4.6 8.8 7.9 4.8 3.6 9.55 5.65" fill="#516d77" fill-rule="evenodd"/>
<path d="m253.5 150.1 6.05 1q2.55 0.45 5.3 1.8l-25.5 5.35-5-1.2-5.9-0.7-3.25-0.1-1.25 0.05-2.55 0.1-0.65 0.05 5.9-1.25 1.25-0.3 0.05 0.3h0.5l5.35-0.1h5.35l3.1 0.05h2.7l2.7-0.25 2.45-0.85q3.05-1.45 3.4-3.95m-62.65 25.7 5.85-1.6q5.6-1.6 11.25-2.6l1.9-0.35-0.4 0.3q-1.45 1.15-2.7 2.6-3.8 4.45-5.6 11.95-1.75 7.1-1.75 16.9v1.35q0.1 5.5 1.05 10.25-0.25 1-1.15 1.75l0.25 0.35 1.8 1.85 0.05 0.05 0.75 2.35v1.95q0.15 1.15 1.9 2.5l0.1 0.25v2.25l-1.4 0.9-7.25 0.65-11.85 1-0.35-0.65q-5-9.65-4.7-21 0.3-10.55 3.4-18.8 2.25-6 5.9-10.75l2.95-3.45m14.8 52.5h0.05l0.1 0.15-2.1 0.25 0.45-0.4h1.5m18.45 15.15 1.5 0.85-2.3 0.35 0.8-1.2" fill="#63848f" fill-rule="evenodd"/>
<path d="m233.5 153.7 0.3 1.4-5.35 0.1h-0.5l-0.05-0.3 5.6-1.2" fill="#2f3f44" fill-rule="evenodd"/>
<path d="m235.1 153.35-1.6 0.35-5.6 1.2-1.25 0.3q-2.3-0.2-3.95-1.25l-1.35-1q2.55-0.65 5.8-1.15l1.6 0.4 6.25 0.8 0.1 0.35" fill="#1b2427" fill-rule="evenodd"/>
<path d="m248.25 161.95 0.7 0.4q5.45 3.1 10.55 8.1l1.55 1.55 1.1 1.15 0.1 0.15q13.7 15.3 13.7 36.7 0 9.95-3 18.65-2.8 8.1-8.2 15.1l-2.75 3.25-0.95 1-2.45 2.5-2.05 1.8-4.85 3.65-6.1 3.45-0.05 0.05h-0.05l-0.2 0.1q-4.2 1.85-8.75 2.95h-12.4l-0.9-0.1-5.35-0.8q-2.9-0.5-5.85-1.6l-2.45-5.7q3.7 1.55 7.4 2.15l10.4 1.2 6.85-0.2 5.2-1.5q3.65-1.35 7.6-3.85l2.85-1.95q4.75-3.5 9.75-8.7 5.55-5.75 8.55-13.9 2.7-7.5 3.25-17 1.15-19.8-13.35-34l-0.6-0.6 0.9-4.25h-5.5q-10.85-9.4-17.6-9.55-8.7-0.15-13.45 0.2l-0.3 0.05-1.9 0.2 4.3-6.3 1.25-0.05 3.25 0.1 5.9 0.7 5 1.2q4.65 1.4 8.9 3.7m-40.85-2.9 0.15 0.4-2.5 1.05 2.35-1.45" fill="#87a4ad" fill-rule="evenodd"/>
<path d="m262.25 173.3 9.7-1.95 10.4-1.75 1.35-0.2q4.7 6 7.5 13.45 3.55 9.45 4 21.25 0.65 17.5-4.5 27.7l-2.2 3.6-1.45 1.95-1.45-1.15q-6.25 1.65-12.3 4.05-4.3 1.7-8.55 3.5 5.4-7 8.2-15.1 3-8.7 3-18.65 0-21.4-13.7-36.7m-59.5 55.5 1.4-0.9v0.4l-0.45 0.4-1 0.85-0.1-0.1-0.3-0.4 0.45-0.25" fill="#c1cfd5" fill-rule="evenodd"/>
<path d="m235.05 153 0.05 0.35-0.1-0.35h0.05" fill="#f1df01" fill-rule="evenodd"/>
<path d="m202.7 229.55h-0.05l-0.05-0.1 0.1 0.1" fill="#fff3b5" fill-rule="evenodd"/>
<path d="m283.7 169.4-1.35 0.2-10.4 1.75-9.7 1.95-0.1-0.15-1.1-1.15-1.55-1.55q-5.1-5-10.55-8.1l-0.7-0.4 4.35-1.15 6.45-1 13.2-1.75 0.15-0.15 0.15 0.15q4.3 3.5 9.05 8.85l2.1 2.5m-18.95 74.35q4.25-1.8 8.55-3.5 6.05-2.4 12.3-4.05l1.45 1.15-0.2 0.15-1.4 1.6q-7.55 8.3-12.65 11.6l-8.85 0.05-5.35-0.25 2.45-2.5 0.95-1 2.75-3.25" fill="#a2b8bd" fill-rule="evenodd"/>
<path d="m272.4 157.9-0.15 0.15-13.2 1.75-6.45 1-4.35 1.15q-4.25-2.3-8.9-3.7l25.5-5.35q3.55 1.7 7.55 5m-35.85 104.6q4.55-1.1 8.75-2.95l0.2-0.1h0.05l0.05-0.05 6.1-3.45 4.85-3.65 2.05-1.8 5.35 0.25 8.85-0.05-1 0.6-1.4 0.8-2.55 0.95-3.3 1.15-0.2 0.05-5.55 1.55h-0.05l-1.75 0.35-2.65 1.6-2.55 0.95-5.8 1.9h-0.05l-0.2 0.05-8.85 1.85h-0.35m16.35-102.05-0.55 0.1 0.2 0.15 0.35-0.25" fill="#6b8f98" fill-rule="evenodd"/>
<path d="m221.55 162.55-3.55 2.55-8.15 6.15-1.9 0.35q-5.65 1-11.25 2.6l-5.85 1.6q6.4-6.8 14.75-9.45l4.05-1.05 0.2-0.1 0.4-0.1 4.95-1.55 2.3-0.55h0.1l2.05-0.4 1.9-0.2v0.15m-15.75 65.9q3.4 5.3 8.6 8.9 5.15 3.6 9.7 6.1l-0.8 1.2-12.85 2.25-10.4 1.75q-4.4-3.3-8.8-7.9-4.65-4.9-7.6-10.3l11.85-1 7.25-0.65-0.45 0.25 0.3 0.4 0.05 0.1h0.05l1-0.85 2.1-0.25" fill="#486166" fill-rule="evenodd"/>
<path d="m227.4 257.65-10.4-1.2q-3.7-0.6-7.4-2.15-4.75-2.05-9.55-5.65l10.4-1.75 12.85-2.25 2.3-0.35 2.4 1.15q6.4 3.05 11.5 3.65l1.65 0.2-5.55 2.6q-4.55 2.35-8.2 5.75" fill="#324347" fill-rule="evenodd"/>
<path d="m249.9 250.15-2.85 1.95q-3.95 2.5-7.6 3.85l-5.2 1.5-6.85 0.2q3.65-3.4 8.2-5.75l5.55-2.6 3.7 0.4 5.05 0.45" fill="#11181a" fill-rule="evenodd"/>
<path d="m283.7 169.4-2.1-2.5q-4.75-5.35-9.05-8.85l-0.15-0.15m-24.15 4.05 0.7 0.4q5.45 3.1 10.55 8.1l1.55 1.55 1.1 1.15m0.1 0.15q13.7 15.3 13.7 36.7 0 9.95-3 18.65-2.8 8.1-8.2 15.1m22.3-6.4 1.45-1.95 2.2-3.6q5.15-10.2 4.5-27.7-0.45-11.8-4-21.25-2.8-7.45-7.5-13.45m-30.2-19.3 6.05 1q2.55 0.45 5.3 1.8 3.55 1.7 7.55 5m-50.85 4.5 0.3-0.05q4.75-0.35 13.45-0.2 6.75 0.15 17.6 9.55h5.5l-0.9 4.25 0.6 0.6q14.5 14.2 13.35 34-0.55 9.5-3.25 17-3 8.15-8.55 13.9-5 5.2-9.75 8.7l-2.85 1.95q-3.95 2.5-7.6 3.85l-5.2 1.5-6.85 0.2-10.4-1.2q-3.7-0.6-7.4-2.15m2.45 5.7q2.95 1.1 5.85 1.6l5.35 0.8 0.9 0.1m12.4 0q4.55-1.1 8.75-2.95l0.2-0.1h0.05l0.05-0.05 6.1-3.45 4.85-3.65 2.05-1.8 2.45-2.5 0.95-1 2.75-3.25m22.3-6.4-0.2 0.15-1.4 1.6q-7.55 8.3-12.65 11.6l-1 0.6-1.4 0.8-2.55 0.95-3.3 1.15-0.2 0.05-5.55 1.55h-0.05l-1.75 0.35-2.65 1.6-2.55 0.95-5.8 1.9h-0.05l-0.2 0.05-8.85 1.85m16.6-112.4-1.65-0.3m-31.1 6.65 0.65-0.05 2.55-0.1 1.25-0.05 3.25 0.1 5.9 0.7 5 1.2q4.65 1.4 8.9 3.7m-27.2-8.95-4.95 1.45q-1.7 0.6-4.05 1.9l-1.1 0.6q-1.65 0.9-3.55 2.1m0.15 0.4q2.05-0.8 3.95-1.35l1.2-0.3 4.55-0.95 3.5-0.4m0.6-3.5q2.55-0.65 5.8-1.15m-17.3 19.45 8.15-6.15 3.55-2.55 0.3-0.2m-0.3 0.05-1.9 0.2-2.05 0.4h-0.1l-2.3 0.55-4.95 1.55-0.4 0.1-0.2 0.1-4.05 1.05q-8.35 2.65-14.75 9.45l-2.95 3.45q-3.65 4.75-5.9 10.75-3.1 8.25-3.4 18.8-0.3 11.35 4.7 21l0.35 0.65q2.95 5.4 7.6 10.3 4.4 4.6 8.8 7.9 4.8 3.6 9.55 5.65m0.25-83.05-0.4 0.3q-1.45 1.15-2.7 2.6-3.8 4.45-5.6 11.95-1.75 7.1-1.75 16.9v1.35q0.1 5.5 1.05 10.25-0.25 1-1.15 1.75l0.25 0.35 0.4 0.45 0.45 0.2 0.25 0.15v0.4h0.7v0.65l0.05 0.05 0.75 2.35v1.95q0.15 1.15 1.9 2.5l0.1 0.05v2.45h0.3l0.5 0.2 0.7 0.2h0.05l0.1 0.15q3.4 5.3 8.6 8.9 5.15 3.6 9.7 6.1l1.5 0.85 2.4 1.15q6.4 3.05 11.5 3.65l1.65 0.2 3.7 0.4 5.05 0.45m-50.6-86.5 1.6-0.95q0.7-0.5 1.6-0.9l0.15-0.15 0.25-0.1 2.15-1.05 2.35-1.45m-4.5 2.5-0.4 0.25-3.2 1.85q-5.15 3.25-10 8.35-2.45 2.6-4.45 5.3-5.45 7.3-7.95 15.6-2.3 7.45-2.2 15.65 0.15 12 5.2 22.1l0.6 1.15q3.6 6.7 9.4 12.55l5.15 4.85q8.8 7.75 17 10.8m-7-99.5 2.5-1.05m-3.4 68.45v0.4h1.5m-4.3-9.75-1.8-1.85m4.6 8.95-0.1-0.25m-1.4 4.15-0.05-0.1-0.3-0.4" fill="none" stroke="#a9dfe7" stroke-linecap="round" stroke-linejoin="round" stroke-width=".05"/>
</g>
<g id="c" transform="translate(-228.2,-140.8)">
<path d="m254.45 148.5 1.25 0.25 0.95 0.8 0.5 0.7 0.3 0.75 0.25 0.75-0.4 1.4-0.9 1.55-0.65 0.8-2.55 2q-14.1 2-25-4.5l0.15-1.5q0.1-0.75 0.5-1.45 0.25-0.45 0.65-0.75 1.3-0.95 2.45-1.05l1 0.5q-0.4 0.6-0.4 1.25 0 1.9 3.3 3.2 3.3 1.35 7.95 1.35t7.95-1.35q3.3-1.3 3.3-3.2 0-0.8-0.6-1.5m17.9-5.1q-0.9 0.8-0.9 1.75 0 1.8 3.25 3.05 3.25 1.3 7.85 1.3t7.85-1.3q2.45-0.95 3.05-2.2l0.2 0.75q0.2 1.25-0.65 2.25l-0.55 0.75q-8.7 4.55-19.6 1.45-2.65-0.75-3.65-3.2v-0.75q-0.05-2.7 2.55-3.65l0.6-0.2" fill="#1c1302" fill-rule="evenodd"/>
<path d="m244.25 147h-1.9q-0.45 0.05-0.85 0.45l-0.4 0.5-0.1 0.25v0.55l0.75 0.4-5.95-1.05v0.05l-0.6 0.2q-0.5 0.15-0.65 0.65l-0.1 0.55q6.75 4.45 16.15 2.55l0.25-0.25 0.65-0.75 0.65-0.55 0.15-0.3 0.1-0.25v-0.25l-0.05-0.3-0.15-0.25-0.45-0.55q-0.35-0.5-1.05-0.55l-0.45 0.1-0.15 0.05q-1.7-0.75-3.6-1.05l-2.25-0.2m-11.3 1.75q0.75-1.1 2.9-2 3.3-1.3 7.95-1.3t7.95 1.3q1.9 0.75 2.7 1.75 0.6 0.7 0.6 1.5 0 1.9-3.3 3.2-3.3 1.35-7.95 1.35t-7.95-1.35q-3.3-1.3-3.3-3.2 0-0.65 0.4-1.25m53.8-5.7 0.05-0.15-0.15-0.2q-1.45-1.8-4-1.4l-0.05 0.05-0.6 0.25-0.25 0.25-0.05 0.15q-0.45 0.35-0.45 0.9l1.55 1.25-3.45-0.75-0.45 0.1-0.35 0.15-0.45 0.55-0.3 0.35-1.4 0.05q-0.9 0.3-0.95 1.25-0.05 0.45 0.35 0.7 5.45 3.3 12.25 2.05 2.15-0.4 2.85-2.3l-0.05-0.3-0.1-0.5-0.25-0.6-0.35-0.7-0.4-0.2-3-0.95m6.7 2.95q-0.6 1.25-3.05 2.2-3.25 1.3-7.85 1.3t-7.85-1.3q-3.25-1.25-3.25-3.05 0-0.95 0.9-1.75 0.8-0.75 2.35-1.35 3.25-1.25 7.85-1.25t7.85 1.25q3.25 1.3 3.25 3.1l-0.2 0.85" fill="#b5001c" fill-rule="evenodd"/>
<path d="m241.75 149.15q3.95 2.05 8.75 0.95l0.2-0.3 0.15-0.25 0.1-0.3v-0.25l-0.05-0.25-0.15-0.2-0.65-0.3 0.15-0.05 0.45-0.1q0.7 0.05 1.05 0.55l0.45 0.55 0.15 0.25 0.05 0.3v0.25l-0.1 0.25-0.15 0.3-0.65 0.55-0.65 0.75-0.25 0.25q-9.4 1.9-16.15-2.55l0.1-0.55q0.15-0.5 0.65-0.65l0.6-0.2v-0.05l5.95 1.05m48.75-4.25 0.25 0.6 0.1 0.5 0.05 0.3q-0.7 1.9-2.85 2.3-6.8 1.25-12.25-2.05-0.4-0.25-0.35-0.7 0.05-0.95 0.95-1.25l1.4-0.05 0.3-0.35 0.45-0.55 0.35-0.15 0.45-0.1 3.45 0.75q2.75 1.95 6.35 3.05l0.45-0.15 0.65-0.4 0.3-1.1-0.05-0.65" fill="#790013" fill-rule="evenodd"/>
<path d="m244.25 147-0.45 0.1v0.05q-0.55-0.05-0.85 0.5l-0.05 0.25q0.8 2.1 3.8 0.9l0.55-0.7v-0.3l-0.2-0.2-0.55-0.4q1.9 0.3 3.6 1.05l0.65 0.3 0.15 0.2 0.05 0.25v0.25l-0.1 0.3-0.15 0.25-0.2 0.3q-4.8 1.1-8.75-0.95l-0.75-0.4v-0.55l0.1-0.25 0.4-0.5q0.4-0.4 0.85-0.45h1.9m42.5-3.95 3 0.95 0.4 0.2 0.35 0.7 0.05 0.65-0.3 1.1-0.65 0.4-0.45 0.15q-3.6-1.1-6.35-3.05l-1.55-1.25q0-0.55 0.45-0.9v0.1l0.1 0.2q1.7 1.2 4.1 1.55l0.5-0.25 0.2-0.15 0.1-0.25 0.05-0.15" fill="#d90021" fill-rule="evenodd"/>
<path d="m246.5 147.2 0.55 0.4 0.2 0.2v0.3l-0.55 0.7q-3 1.2-3.8-0.9l0.05-0.25q0.3-0.55 0.85-0.5v-0.05l0.45-0.1 2.25 0.2m35.2-5.2 0.05-0.15 0.25-0.25 0.6-0.25 0.05-0.05q2.55-0.4 4 1.4l0.15 0.2-0.1 0.3-0.1 0.25-0.2 0.15-0.5 0.25q-2.4-0.35-4.1-1.55l-0.1-0.2v-0.1" fill="#ffc8d0" fill-rule="evenodd"/>
<path d="m232.95 148.75q0.75-1.1 2.9-2 3.3-1.3 7.95-1.3t7.95 1.3q1.9 0.75 2.7 1.75 0.6 0.7 0.6 1.5 0 1.9-3.3 3.2-3.3 1.35-7.95 1.35t-7.95-1.35q-3.3-1.3-3.3-3.2 0-0.65 0.4-1.25m60.5-2.75q-0.6 1.25-3.05 2.2-3.25 1.3-7.85 1.3t-7.85-1.3q-3.25-1.25-3.25-3.05 0-0.95 0.9-1.75m21.1 2.6 0.2-0.85q0-1.8-3.25-3.1-3.25-1.25-7.85-1.25t-7.85 1.25q-1.55 0.6-2.35 1.35" fill="none" stroke="#c90" stroke-linecap="round" stroke-linejoin="round" stroke-width=".05"/>
</g>
</defs>
</svg>
