<?xml version="1.0" encoding="UTF-8"?>
<svg version="1.1" viewBox="0 0 339.38 112.03" xmlns="http://www.w3.org/2000/svg" xmlns:cc="http://creativecommons.org/ns#" xmlns:dc="http://purl.org/dc/elements/1.1/" xmlns:rdf="http://www.w3.org/1999/02/22-rdf-syntax-ns#" xmlns:xlink="http://www.w3.org/1999/xlink">
<metadata>
<rdf:RDF>
<cc:Work rdf:about="">
<dc:format>image/svg+xml</dc:format>
<dc:type rdf:resource="http://purl.org/dc/dcmitype/StillImage"/>
</cc:Work>
</rdf:RDF>
</metadata>
<g transform="translate(-97.137 -112.68)">
<use transform="translate(131.5,112.7)" width="273.70001" height="90.099998" xlink:href="#c"/>
<use transform="matrix(-1.4946 -.3464 .3464 -1.4946 189.09 216.31)" width="50.5" height="38.049999" xlink:href="#a"/>
<use transform="matrix(-1.291 -.8259 .8259 -1.291 168.27 211)" width="50.5" height="38.049999" xlink:href="#a"/>
<use transform="matrix(-1.291 -.8259 .8259 -1.291 162.37 195.3)" width="50.5" height="38.049999" xlink:href="#a"/>
<use transform="matrix(1.4946 -.3464 -.3464 -1.4946 344.56 215.16)" width="50.5" height="38.049999" xlink:href="#a"/>
<use transform="matrix(1.291 -.8259 -.8259 -1.291 365.38 209.85)" width="50.5" height="38.049999" xlink:href="#a"/>
<use transform="matrix(1.291 -.8259 -.8259 -1.291 371.28 194.15)" width="50.5" height="38.049999" xlink:href="#a"/>
<use transform="matrix(-1.4946 -.3464 .3464 -1.4946 241.34 242.16)" width="50.5" height="38.049999" xlink:href="#a"/>
<use transform="matrix(1.4946 -.3464 -.3464 -1.4946 261.16 242.16)" width="50.5" height="38.049999" xlink:href="#a"/>
<use transform="matrix(1.4946 .3464 -.3464 1.4946 261.91 130.14)" width="50.5" height="38.049999" xlink:href="#a"/>
<use transform="matrix(-1.5169 .2274 .2274 1.5169 246.97 130.02)" width="50.5" height="38.049999" xlink:href="#a"/>
<use transform="translate(217.95,159.05)" width="63.75" height="52.400002" xlink:href="#b"/>
</g>
<defs>
<g id="c" transform="translate(-131.5,-112.7)">
<path d="m402.3 139.65v0.1l0.05 0.6q-0.85 2.7-3.5 5.2-3.55 3.25-10.3 6.1-9.5-3.8-25.6-7.05-10.25-2.05-21.6-3.55-31.5-4.25-71.5-4.35h-1.8l-46.8 1.6-27.2 2.8q-11 1.5-20.95 3.5-13.4 2.7-22.2 5.8l-3.6 1.35-3.1-1.35q-4.75-2.2-7.3-4.6-2.85-2.65-3.05-5.5v-1.1q0.9-10.85 39.25-18.6 9.95-2 20.95-3.5 13.75-1.85 29.1-2.9l44.9-1.5q55.6 0 94.9 7.9 39.15 7.9 39.35 19.05m-175.65-17.15-1.7 0.2-1.8-8.5 1.8 8.5 1.7-0.2m114.35 6.6-15.45-1.8 15.45 1.8m57.85 16.45q-5.1-4.55-17.8-8.4 12.7 3.85 17.8 8.4m-70.45-9.1 1.05-1.75-4.5-2.45-12.15-0.05-0.2-2.6 0.2 2.6 12.15 0.05 4.5 2.45 1.3-2.2-1.3 2.2 11.9 6.35-11.9-6.35-1.05 1.75m47.05-0.85q-5.35-1.45-11.75-2.75 6.4 1.3 11.75 2.75m-18.4-4-10.5-1.75 10.5 1.75m-129.9-5.4-1.45 0.15-0.75-3.65-0.65 0.05 0.65-0.05 0.75 3.65 1.45-0.15m-4.55 0.1-17.75 1.6 17.75-1.6m3.65 2.8-0.55-2.75-1.15 0.1 1.15-0.1 0.7 3.5-0.15-0.75-3.25 6h2.35-2.35l3.25-6m15.8-3.8-14 0.65 14-0.65m-20.8 13 1.75-3.2h-1.35 1.35l-1.75 3.2m-38.65-7.35-9.55 1.75-2.9 0.6 2.9-0.6 9.55-1.75m16.5-2.4-5.05 0.65-5.7 0.85 5.7-0.85 5.05-0.65m106.95 5.25-0.45-1.65-9.1-0.05-0.2-1.7 0.2 1.7 9.1 0.05-0.35-1.25 0.35 1.25 7.2 0.05-7.2-0.05 0.45 1.65m6.85 0.25-0.1-1.85 0.1 1.85m-36.55 0.3-1.35-0.55 3.25-1.85 10 0.1-0.1-0.9 0.1 0.9-10-0.1-3.25 1.85 1.35 0.55m12.1 0-0.2-2.3 8.25 0.05 0.35 3-0.35-3-8.25-0.05 0.2 2.3m31.5-7.55-20.85-1.3 20.85 1.3m-46.25 6.5 1.3 0.5-5.15 2.9 5.15-2.9-1.3-0.5m19.5-8.05q-10.35-0.4-21.3-0.45 10.95 0.05 21.3 0.45m-26.7-0.45q-9.55 0-18.65 0.3 9.1-0.3 18.65-0.3m-118.75 14.85q-7.35 2.9-10.85 6.15 3.5-3.25 10.85-6.15m17-5.1q-6.15 1.45-11.1 3 4.95-1.55 11.1-3" fill="#292b36" fill-rule="evenodd"/>
<path d="m402.3 139.65v0.1l0.05 0.6v-0.15l-0.05-0.55q-0.2-11.15-39.35-19.05-39.3-7.9-94.9-7.9l-44.9 1.5m165.4 37.45q-9.5-3.8-25.6-7.05-10.25-2.05-21.6-3.55-31.5-4.25-71.5-4.35h-1.8l-46.8 1.6-27.2 2.8q-11 1.5-20.95 3.5-13.4 2.7-22.2 5.8l-3.6 1.35m-13.45-11.45-0.05-0.55 0.05-0.55q0.9-10.85 39.25-18.6 9.95-2 20.95-3.5 13.75-1.85 29.1-2.9m-89.3 26.1v-1.1" fill="none" stroke="#000" stroke-linecap="round" stroke-linejoin="round" stroke-opacity=".30196" stroke-width=".05"/>
<path d="m136.9 145.8q3.5-3.25 10.85-6.15" fill="none" stroke="#b15c5a" stroke-linecap="round" stroke-linejoin="round"/>
<path d="m381.05 137.15q12.7 3.85 17.8 8.4m-73.3-18.25 15.45 1.8m5.55 0.75 10.5 1.75m6.65 1.25q6.4 1.3 11.75 2.75m-170.6-7.7 17.75-1.6m5.45-0.35 14-0.65m-53.7 4.75 5.7-0.85 5.05-0.65m-28.95 4.75 2.9-0.6 9.55-1.75m116.5-5.45 20.85 1.3m-72.1-1.7q9.1-0.3 18.65-0.3m5.4 0q10.95 0.05 21.3 0.45m-139.55 12.3q4.95-1.55 11.1-3" fill="none" stroke="#51556a" stroke-linecap="round" stroke-linejoin="round"/>
<path d="m223.15 114.2 1.8 8.5 1.7-0.2m85.95 7.1 0.2 2.6 12.15 0.05 4.5 2.45 1.3-2.2m-1.3 2.2 11.9 6.35m-11.9-6.35-1.05 1.75m-104.1-13.7 0.65-0.05 0.75 3.65 1.45-0.15m-0.75 3.65-0.15-0.75-3.25 6h2.35m-0.8-8.65 1.15-0.1 0.55 2.75m-4.6 6h1.35l-1.75 3.2m75.6-3.2-0.35-3-8.25-0.05 0.2 2.3m-0.3-3.2 0.1 0.9-10-0.1-3.25 1.85 1.35 0.55m19.95-3.95 0.2 1.7 9.1 0.05-0.35-1.25m7.55 1.3 0.1 1.85m-7.3-1.9 7.2 0.05m-7.2-0.05 0.45 1.65m-36.2 2.9 5.15-2.9-1.3-0.5" fill="none" stroke="#51556a" stroke-linecap="round" stroke-linejoin="round" stroke-width=".05"/>
<path d="m352.95 160.7 10-1.85 5.35-1.1q12.35-2.75 20.25-6.1 6.75-2.85 10.3-6.1 2.65-2.5 3.5-5.2l0.05-0.05q5.65 19.3 0 35.65l-0.05 0.15-0.1 0.65q-1.7 10.55-39.3 18.1l-4.05 0.8 1.2-6.75 0.75-4.25 1.1-6.35 0.3-1.95-0.3 1.95 1.5 3-1.5-3-2.8-5.45-6.2-12.15m8.95 9.8-2.75 2.35 2.75-2.35m-59.8 31.5q-15.05 0.75-31.55 0.8h-2.5q-43.9 0-77.65-4.95l-17.3-3q-18.45-3.7-28.25-8.15l-1.85-0.85-0.35-8.2-0.25-4.45-0.25-5.3 2.9-4.55 2.85-4.4 3.65-5.65q6.8 2.3 16.25 4.45l5.3 1.1q9.95 2 20.95 3.55 15.6 2.1 33.3 3.2l39.25 1.2h1.45l19.85-0.25 2.6-0.1 10.95-0.45 0.15 9.8 0.2 11.45-2.1-0.45 2.1 0.45 0.25 11.75 0.05 3m60.65-17.45-1.9 0.1 1.9-0.1m-0.5 3.8-2.15 0.55 2.15-0.55m-159.4-4.85-2.15-2.1 9.55-5.65-3.1-3.7 3.1 3.7-9.55 5.65 2.15 2.1m9.6-5.1-2.2-2.65 6.85-4.05-1.7-1.9 1.7 1.9-6.85 4.05 2.2 2.65m7.2-3.8-2.55-2.9 10.25-6.1-10.25 6.1 2.55 2.9m-29.25 23.25-1.15-3.05 4.2-1.5-4.2 1.5 1.15 3.05m5.45-10.05-2.65-2-6 3.55 2.05 5.45-1.95 0.7 1.95-0.7-2.05-5.45 6-3.55 2.65 2m1.2-9.95 3.65 3.55-7.5 4.4-2.3-1.75 2.3 1.75 7.5-4.4-3.65-3.55m101.45-2.55 3.1 0.5-3.1-0.5m-154.7-2.2-1.4 0.1 1.4-0.1m0.85 4.65-2-0.1 2 0.1m2.05-12.9-1.65-1.5 1.65 1.5m3.75-3.55-2.55-2.35 2.55 2.35m151.6 37.7-1.5 0.45 1.5-0.45" fill="#292b36" fill-rule="evenodd"/>
<path d="m352.95 160.7 6.2 12.15-2.9 2.45 2.9-2.45 2.8 5.45-1.1 6.35-0.75 4.25-1.2 6.75q-22.25 4.2-49.5 5.95l-7.3 0.4-0.05-3-0.25-11.75-0.2-11.45-0.15-9.8q28.3-1.4 51.5-5.3m-209.95 25.15q-7-3.55-8.65-7.55-0.55-1.25-0.55-2.5v-0.2q-1.2-4.65-1.75-9.25-1.65-13.35 1.8-26.05 0.2 2.85 3.05 5.5 2.55 2.4 7.3 4.6l3.1 1.35 4.25 1.55-3.65 5.65-1.05-0.95 1.05 0.95-2.85 4.4-2.9 4.55 0.25 5.3-1 0.05 1-0.05 0.25 4.45 0.35 8.2m217.85-1.2-2 0.1 2-0.1m-4.25 5.05 3.5-0.8-3.5 0.8m-52.1-1.9-2.7-0.55 2.7 0.55m2.25-11.15-5.15-0.85 5.15 0.85m-161.7-13.3-2.65-2.4 2.65 2.4m-4.2 14.2 1.8 0.1-1.8-0.1m166.4 19.7-5.2 1.75 5.2-1.75" fill="#333544" fill-rule="evenodd"/>
<path d="m402.35 140.35q-0.85 2.7-3.5 5.2-3.55 3.25-10.3 6.1-7.9 3.35-20.25 6.1l-5.35 1.1-10 1.85m49.45-20.4q5.65 19.3 0 35.65l-0.05 0.15-0.1 0.65q-1.7 10.55-39.3 18.1l-4.05 0.8q-22.25 4.2-49.5 5.95l-7.3 0.4q-15.05 0.75-31.55 0.8h-2.5q-43.9 0-77.65-4.95l-17.3-3q-18.45-3.7-28.25-8.15l-1.85-0.85q-7-3.55-8.65-7.55-0.55-1.25-0.55-2.5v-0.2q-1.2-4.65-1.75-9.25-1.65-13.35 1.8-26.05 0.2 2.85 3.05 5.5 2.55 2.4 7.3 4.6l3.1 1.35 4.25 1.55q6.8 2.3 16.25 4.45l5.3 1.1q9.95 2 20.95 3.55 15.6 2.1 33.3 3.2l39.25 1.2h1.45l19.85-0.25 2.6-0.1 10.95-0.45q28.3-1.4 51.5-5.3" fill="none" stroke="#000" stroke-linecap="round" stroke-linejoin="round" stroke-opacity=".30196" stroke-width=".05"/>
<path d="m352.95 160.7 6.2 12.15 2.75-2.35m-1.05 14.15 1.9-0.1m-0.5-8.2-0.3 1.95 1.5 3m-1.5-3-1.1 6.35-0.75 4.25 2.15-0.55m-3.4-3.6 2-0.1m-0.75 4.25-1.2 6.75m1.2-6.75-3.5 0.8m-0.35-14.4 2.9-2.45 2.8 5.45m-171.05 5.75 2.3 1.75 7.5-4.4-3.65-3.55m-9.75 17.65 1.95-0.7-2.05-5.45 6-3.55 2.65 2m-2.4 5.5-4.2 1.5 1.15 3.05m36.95-32.25-10.25 6.1 2.55 2.9m-4.25-4.8 1.7 1.9-6.85 4.05 2.2 2.65m-5.3-6.35 3.1 3.7-9.55 5.65 2.15 2.1m96.85 3.3 2.1 0.45-0.2-11.45-3.1-0.5m3.3 11.95 2.7 0.55m-3.05-21.8 0.15 9.8 5.15 0.85m-159.9-18.65 1.05 0.95 3.65-5.65m-6.5 10.05-2.9 4.55 0.25 5.3 1.4-0.1m-1.4-12.15 2.65 2.4 2.85-4.4 2.55 2.35m-5.4 2.05 1.65 1.5m-4.05 12.8 2 0.1m-2-0.1 0.35 8.2m-1.6-12.6 1-0.05 0.25 4.45-1.8-0.1m159.7 21.9 1.5-0.45-0.25-11.75m0.25 11.75 0.05 3m-0.05-3 5.2-1.75" fill="none" stroke="#51556a" stroke-linecap="round" stroke-linejoin="round" stroke-width=".05"/>
</g>
<g id="a" transform="translate(4.3,1.55)">
<path d="m31.5 7.05 0.1 0.15-0.1 0.1v-0.25" fill="#333" fill-rule="evenodd"/>
<path d="m8.5 21 1.15-2.55 3.55 0.55-2.1 0.15-0.2 1.85h-2.4m4.85-2-2.6-2.4q1.4-2.25 3.5-4.3l3.4 2.1-1.5-3.8 0.9-0.75q0.6-0.5 1.25-0.9 0.9 2.25 2.45 4.3l0.15 0.7-3.1 0.55h-0.1l-2.85-0.15 0.65 1.35 1.45 1.8q-1.35-0.7-2.9-0.85-0.5-0.15-0.65 0.2l0.85 2.1-0.9 0.05m5.45-10.4q0.8-0.55 1.75-1.05l0.4 0.2 1.6 2.45q-1.85-0.2-3.75-1.6m2.8-1-0.5-0.4 3.2-1.85 1.8 1-0.75-1.5 2.4-1 2.3 1.65-1.75-1.85q1.45-0.65 3.05-1.2l0.15 4.6v0.25h-8.3l2.7 2.5q-2.2-0.8-4.3-2.2" fill="#292b36" fill-rule="evenodd"/>
<path d="m38.1 0.9 6.65-1.55 1.45-0.9-5.4 4.95q-2.45 2-2.8 3.1l-3.75-1.55 3.3 2.95-1.75 4.15-1.4-0.05 0.9 1.05-2.35 4.05-3.8-2.35 2.6 3.85-0.7 0.75-1.7-1.1 1.05 1.75-0.85 0.85-1.65 1.25-4.5-2.4 1.55 4.25q-1 0.55-1.9 1.05l-1.55-2.25 0.8 2.6-2.3 1.05-1.75-2 0.05 2.7-1.05 0.35-3.2 1.05-0.9-2.35-0.35 2.7q-4.75 1.1-8.55 0.7l-7.2 6.95-1.35-1.75 8.15-5.1v-0.05q-0.15-1.3 1.95-4.35l2.7-4.25h2.4l0.2-1.85 2.1-0.15h0.15l0.05 0.05-0.05-0.05 0.9-0.05-0.85-2.1q0.15-0.35 0.65-0.2 1.55 0.15 2.9 0.85l-1.45-1.8-0.65-1.35 2.85 0.15h0.1l3.1-0.55-0.15-0.7q-1.55-2.05-2.45-4.3l0.5-0.35q1.9 1.4 3.75 1.6l-1.6-2.45 2.25 1.2-1.6-1.35q2.1 1.4 4.3 2.2l-2.7-2.5h8.3l0.1-0.1-0.1-0.15-0.15-4.6 5.4-1.25h0.15l-0.55 1.9 1.75-2.2m6.65-1.55-10.5 5.6-2.65 2.25 2.65-2.25 10.5-5.6m-40.9 30.25 0.4-0.05 0.4-0.7-0.8 0.75m27.65-22.3-26.85 21.55 26.85-21.55" fill="#17181e" fill-rule="evenodd"/>
<path d="m38.1 0.9 6.65-1.55 1.45-0.9-5.4 4.95q-2.45 2-2.8 3.1l-3.75-1.55 3.3 2.95-1.75 4.15m-0.5 1-2.35 4.05-3.8-2.35 2.6 3.85-0.7 0.75m-0.65 0.65-0.85 0.85-1.65 1.25m-2.95 1.85q-1 0.55-1.9 1.05m-0.75 0.35-2.3 1.05m-1.7 0.7-1.05 0.35-3.2 1.05m-1.25 0.35q-4.75 1.1-8.55 0.7l-7.2 6.95-1.35-1.75 8.15-5.1v-0.05q-0.15-1.3 1.95-4.35l2.7-4.25 1.15-2.55 3.55 0.55h0.15l0.05 0.05-0.05-0.05-2.6-2.4q1.4-2.25 3.5-4.3m1.9-1.7 0.9-0.75q0.6-0.5 1.25-0.9l0.5-0.35q0.8-0.55 1.75-1.05l0.4 0.2 2.25 1.2-1.6-1.35-0.5-0.4 3.2-1.85m1.05-0.5 2.4-1 2.3 1.65-1.75-1.85q1.45-0.65 3.05-1.2l5.4-1.25h0.15m-5.4 6.1 0.1-0.1 2.65-2.25 10.5-5.6m-40.9 30.25 0.4-0.05 0.4-0.7-0.8 0.75m0.8-0.75 26.85-21.55" fill="none" stroke="#000" stroke-linecap="round" stroke-linejoin="round" stroke-opacity=".30196" stroke-width=".05"/>
</g>
<g id="b" transform="translate(-217.95,-159.05)">
<path d="m251.7 159.15q-4.3 5.25 1.5 8-23.9 0.35-23.9-0.05-6.6 17.65 1.45 34.35l23.15 1.45q-1.75 3.8 1.25 6.7-33.5-3.25-29.4-3.3-15.55-24.75 3.4-45.25 9.85-2.4 22.55-1.9" fill="#c3c344" fill-rule="evenodd"/>
<path d="m253.2 167.15q-5.8-2.75-1.5-8 11.15 0.45 24.5 3.15 11.85 30.85-1.85 49.15l-19.2-1.85q-3-2.9-1.25-6.7l17 1.05q8.95-14.15-3-37.05l-14.7 0.25m2.3-5.4q7.65-0.35 17.75 2-10.1-2.35-17.75-2m21.2 10.85q-0.55-3.8-2.9-8.4 2.35 4.6 2.9 8.4m2.15 10.3-0.6-3.9 0.6 3.9" fill="#dada49" fill-rule="evenodd"/>
<path d="m253.2 167.15 14.7-0.25q11.95 22.9 3 37.05l-17-1.05m1.25 6.7 19.2 1.85q13.7-18.3 1.85-49.15-13.35-2.7-24.5-3.15-12.7-0.5-22.55 1.9-18.95 20.5-3.4 45.25-4.1 0.05 29.4 3.3m-1.95-42.45q-23.9 0.35-23.9-0.05-6.6 17.65 1.45 34.35l23.15 1.45" fill="none" stroke="#000" stroke-linecap="round" stroke-linejoin="round" stroke-opacity=".30196" stroke-width=".05"/>
<path d="m278.25 179 0.6 3.9m-5.05-18.7q2.35 4.6 2.9 8.4m-3.45-8.85q-10.1-2.35-17.75-2" fill="none" stroke="#fff" stroke-linecap="round" stroke-linejoin="round" stroke-width="2"/>
<path d="m231 183.05q-0.65 3.15 1.6 6.15l-11.15-1.05-3.5-4.45q0.1-2.15 3.05-4.3 3.05-0.85 11.1 0.8-0.85 1.4-1.1 2.85" fill="#b3b335" fill-rule="evenodd"/>
<path d="m232.6 189.2q-2.25-3-1.6-6.15 0.25-1.45 1.1-2.85l1.85 0.4q9.6 2.1 4.65 9.2l-6-0.6m5.55-4.4q-4.15-2.2-7.15-1.75 3-0.45 7.15 1.75" fill="#caca3a" fill-rule="evenodd"/>
<path d="m232.6 189.2 6 0.6q4.95-7.1-4.65-9.2l-1.85-0.4q-8.05-1.65-11.1-0.8-2.95 2.15-3.05 4.3l3.5 4.45 11.15 1.05" fill="none" stroke="#000" stroke-linecap="round" stroke-linejoin="round" stroke-opacity=".30196" stroke-width=".05"/>
<path d="m231 183.05q3-0.45 7.15 1.75" fill="none" stroke="#fff" stroke-linecap="round" stroke-linejoin="round" stroke-width="2"/>
</g>
</defs>
</svg>
