<?xml version="1.0" encoding="UTF-8"?>
<svg version="1.1" viewBox="0 0 76.952 73.376" xmlns="http://www.w3.org/2000/svg" xmlns:cc="http://creativecommons.org/ns#" xmlns:dc="http://purl.org/dc/elements/1.1/" xmlns:rdf="http://www.w3.org/1999/02/22-rdf-syntax-ns#" xmlns:xlink="http://www.w3.org/1999/xlink">
<metadata>
<rdf:RDF>
<cc:Work rdf:about="">
<dc:format>image/svg+xml</dc:format>
<dc:type rdf:resource="http://purl.org/dc/dcmitype/StillImage"/>
</cc:Work>
</rdf:RDF>
</metadata>
<g transform="translate(-12.718 -13.655)">
<use transform="matrix(1.158,0,0,1.158,12.75,13.7)" width="66.449997" height="63.299999" xlink:href="#a"/>
</g>
<defs>
<g id="a">
<use width="66.449997" height="63.299999" xlink:href="#b"/>
</g>
<g id="b">
<path d="m52.95 12.85q4.25 3.35 6.9 10.45 1.15 3.1 1.65 5.8-6.15 5.1-10.85-4.95l0.65-0.85 0.4-0.6 0.65-1.15 0.25-0.6q1.15-3.25 0.35-8.1m8.4 22.9q4.45 3.55 5.05 8.25l-0.65 0.6 0.15-1.2q-0.1-0.85-0.9-2.5t-1.4-2.05l-1.35-1.05q-0.7-0.6-0.5 0.95 0.15 1.6 1.3 3.2l1.7 2.65 0.4 0.55q-7.15 6.05-9.3-0.95 3.05-2.2 2.85-3.8 1.9-1.95 2.65-4.65m-5.65-18.3-1.1-1.35q-0.7-0.6-0.5 0.95 0.15 1.6 1.3 3.2 1.15 1.55 1.9 3t1.8 2.1q1 0.65 0-1.85-1.05-2.55-2.05-3.9l-1.35-2.15" fill="#ffaf2b" fill-rule="evenodd"/>
<path d="m21.5 0.1q3.3-0.2 7.4-0.05 8.45 0.3 13.45 1.55 4.8 1.2 6.5 3.25 3.5 4.2 4.1 8 0.8 4.85-0.35 8.1l-0.25 0.6-0.65 1.15-0.4 0.6-0.65 0.85-1.55 2.1q2.2-3.15 2.95-8.05-2-14.15-18.95-16.85l4.6 0.1q-6.5-1.55-16.2-1.35" fill="url(#j)" fill-rule="evenodd"/>
<path d="m38.6 45q-0.1 1.9-4.1 2.05l-2.35 0.35q-4.65-1.15 3.3-5.05l1.6-0.6q1.6 2 1.55 3.25m-22.05-44.25 0.7-0.15 4.25-0.5q9.7-0.2 16.2 1.35l-4.6-0.1q16.95 2.7 18.95 16.85-0.75 4.9-2.95 8.05l-0.15 0.15-0.2 0.3-1.05 1.3-0.5 0.65-0.25 0.3-0.55 3.3q-1.65 7.25-7 9 8.15-9.15 5-23.95l-14.3-10.2-2.3-2.25q-1.1-0.35 2.55-3.6-7.6 0.3-12.5 5.05l-5.45 2.3q0.1-5.35 4.85-7.95l-0.7 0.1m-10.25 18.5h-0.05l0.05-0.05v0.05" fill="url(#i)" fill-rule="evenodd"/>
<path d="m53.2 61.25-1.05-0.7q1.5-3.75 1-9.4l-0.5-1.55q-1.15-2.9-3.85-4.75l0.55-1.05q1.45-2.55 0.5-8-0.9-5.1-2.65-7.15l0.5-0.65q2.35 2.3 3.25 7.75l0.3 3.45q0 3.3-1.3 5.3l2.05 2.05q1.55 2.05 2.05 4.85l0.2 1.7q0.2 3.6-1.05 8.15" fill="#c45c11" fill-rule="evenodd"/>
<path d="m61.5 29.1 0.25 3.35q-4.1 6.2-10.5 6.75l-0.3-3.45q-0.9-5.45-3.25-7.75l1.05-1.3 0.2-0.3 0.15-0.15 1.55-2.1q4.7 10.05 10.85 4.95m4.9 14.9v2.85q-6.1 6.55-12.15 6.25l-0.2-1.7q-0.5-2.8-2.05-4.85l3.85-2.35q2.15 7 9.3 0.95 0.25 0.25 0.5-0.2l0.1-0.35 0.65-0.6" fill="#f5931b" fill-rule="evenodd"/>
<path d="m52.65 49.6q-1.2-0.95-6.15-2.95-5-1.95-7.9-1.65 0.05-1.25-1.55-3.25l2.35-0.5q5.35-1.75 7-9l0.55-3.3 0.25-0.3q1.75 2.05 2.65 7.15 0.95 5.45-0.5 8l-0.55 1.05q2.7 1.85 3.85 4.75m-35-16.65 5.5-0.8 11.95-3.65 0.15 0.95-0.9 0.4-5.55 2.15-3.5 1-0.5 0.1-0.85 0.2-2.6 0.45-2.2 0.3-1.1 0.05-0.05-0.05-0.35-1.1m-4.25-0.3-0.2 1.1q-8.3-0.4-10.45-3.15l0.25-1.15q1.9 1.9 5.8 2.7l4.6 0.5" fill="#6d270a" fill-rule="evenodd"/>
<path d="m55.85 44.2-3.85 2.35-2.05-2.05q5.75-1.15 8.75-4.1 0.2 1.6-2.85 3.8" fill="#ec7a0b" fill-rule="evenodd"/>
<path d="m61.75 32.45-0.3 2.8-0.1 0.5q-0.75 2.7-2.65 4.65-3 2.95-8.75 4.1 1.3-2 1.3-5.3 6.4-0.55 10.5-6.75m4.65 14.4-0.45 2.15q-3.1 10.7-12.75 12.25 1.25-4.55 1.05-8.15 6.05 0.3 12.15-6.25" fill="#dc730a" fill-rule="evenodd"/>
<path d="m3.6 40.7 2.5-0.05-0.8-0.9 5.9 1.3-0.7-0.85q1.2-0.25 1.95-1.6l1.15-3.15q1.2-0.5 0.4-1.7l0.15-1.1q1.45-0.75 0.05-1.7l0.15-3.35q0-2.2-0.5-3l0.6-0.3-0.6 0.3q-5.15-2.85-6.35-4.95l-0.05-0.05q-0.6-0.4-1.15-0.35-1.2 0.95-1.8 2.05l-0.9 1.6-0.85 1.85q-0.35 1.05-0.4 2.15-0.4-0.15-0.65 0.55l-0.05 0.35-1.1-2.3q1.9-3.55 3.1-9 0.3-1.3-0.4-2.2 1.25-5.85 3.6-7.95l3-2.75q2.25-1.95 6.7-2.85l0.7-0.1q-4.75 2.6-4.85 7.95l5.45-2.3q4.9-4.75 12.5-5.05-3.65 3.25-2.55 3.6l2.3 2.25 14.3 10.2q3.15 14.8-5 23.95l-2.35 0.5-1.6 0.6q-1.95 0.8-6.7 1.4l-4.9 0.05q-10.8-0.2-20.25-3.1m32.1-7.05 0.4-2.05q1.3-1.6-0.4-2.4l-0.1-0.9 0.7-0.55q0.75-1-0.7-2.1-1.9-5.9-3.85-9.15l-0.05-0.1q-1.65-0.65-3.3-0.6-3.2 0.1-6.4 2.6-5 3.85-7.2 3.9l-0.2-0.3 0.2 0.3-0.05 0.2-0.15 1.25v0.1h-0.1l-0.1 1.45q-0.05 2.1 0.2 3.35 0.45 1.65 0.8 1.85l-0.3 1.35q-0.05 1.1 1.1 1.15l0.05 0.05 0.45 1.1q-0.5 0.8-0.2 1.45 0.3 0.7 1.75 1.15 1.05 2.75 5.35 5.15l0.3 0.2 2.15 0.35h0.3l2.55-0.4q2.35-0.85 4.1-3.1l0.55-0.7 1.3-2.25 0.85-2.35m-21.25-9.35 0.05-0.45-0.05 0.45q-0.4-0.3-0.9-1.9l-0.05-0.6-0.05-0.15-4.25-2.1-3.3-4.65-1.4 0.65 0.75 3.75 0.8-0.55h1.65l0.8 1.65q2.65 1.8 5.05 2 0.5 1.6 0.9 1.9m0.2-12.4 0.8-2.75-0.8 2.75-0.15 0.5q-1.1 4.4-1.05 8.25l1.15 1.35q0.55-0.25 1.15-0.55l6.3-4.3-7.4 3.65q-0.75-4.1 0-8.9m-8.35 7.35v-0.05l-0.05 0.05h0.05m8.2 4.6h0.1l-0.05 0.55-0.05-0.55m3.05 17.75 3.3 0.4-4.2-4.1 0.9 3.7" fill="url(#h)" fill-rule="evenodd"/>
<path d="m14.8 22.3q2.2-0.05 7.2-3.9 3.2-2.5 6.4-2.6 1.65-0.05 3.3 0.6l0.05 0.1q1.95 3.25 3.85 9.15 1.45 1.1 0.7 2.1l-0.7 0.55 0.1 0.9q1.7 0.8 0.4 2.4l-0.4 2.05q-2.55 5.35-8.6 6.9h1.8q2.25-0.5 4.65-2.3l-0.55 0.7q-1.75 2.25-4.1 3.1l-2.55 0.4h-0.3q-4.35-1.9-6.2-5.55l4.15-0.1q-4.4-0.4-6.6-1.55-1.5-0.85-0.1-1.1h-0.6l-0.45-1.1 0.05-0.05h0.55q-1.45-0.5-0.35-1.3 3.9-2.9 8.85-4.2l4.45-1-4.45 1q-4.65 1.15-9.1 2.75-1.35-3.45 0-7.25l-1.65 0.85v-0.1l0.15-1.25 0.05-0.2m9.1 19.8-0.3-0.2 0.3 0.2m-10.05-17.5q0.5 0.8 0.5 3l-0.15 3.35q1.4 0.95-0.05 1.7l-0.15 1.1q0.8 1.2-0.4 1.7l-1.15 3.15q-0.75 1.35-1.95 1.6l-1.85-0.15q-4.6-3.25-4.95-6.55 2.75 2 7.3 2.2l1.55-0.05-1.55 0.05q1.4-0.3-0.35-0.6-1.8-0.35-4.85-1.5-3.05-1.2-3.95-2.95-0.05-0.65 0.3-1.1h0.05l-0.05-0.1v-0.75l0.85 0.75-0.25 1.15q2.15 2.75 10.45 3.15l0.2-1.1h0.75-0.75l-4.6-0.5q2-0.4 0.3-1.35l-4.25-2.6-1.9-0.95-0.6-0.35q0.05-1.1 0.4-2.15 1.25-0.45 2.65 0l2.05-5.15 0.05 0.05q1.2 2.1 6.35 4.95m20.75 1.05q-1.25-4.95-4.05-8.35-2.2 0.65-3.15 1.75 2.15 3.55 2.4 7.45 1.8 0.3 2.35 0.95 2.45 0.25 3.7-0.9-0.4-0.5-1.25-0.9m-16.95 7.3-0.8 0.05 0.8-0.05 0.35 1.1 0.05 0.05 1.1-0.05 2.2-0.3 2.6-0.45 0.85-0.2 0.5-0.1 3.5-1q2.95-0.15 3.6 0.7 1.35 0.25 3.35-1.55 0.6-1.15-1.4-1.3l0.9-0.4-0.15-0.95-11.95 3.65-5.5 0.8m17.95-4.65-0.5 0.2 0.5-0.2m-21.6 5.45h-0.8 0.8m22.1-2.15q-1.9 1.75-4 2.9-3.4 1.8-7.55 2.25l-0.55 0.05 0.55-0.05q4.15-0.45 7.55-2.25 2.1-1.15 4-2.9m-18.8 2.55 0.75-0.05-0.75 0.05m-3.8-3.3q-5.05-1.15-8.65-2.65 3.6 1.5 8.65 2.65m-11.3-1.3 0.55 1.05-0.55-1.05m33.5-0.35-0.45 0.25 0.45-0.25" fill="#aa7322" fill-rule="evenodd"/>
<path d="m35.7 33.65-0.85 2.35-1.3 2.25q-2.4 1.8-4.65 2.3h-1.8q6.05-1.55 8.6-6.9m-9.65 8.8-2.15-0.35-0.3-0.2q-4.3-2.4-5.35-5.15-1.45-0.45-1.75-1.15-0.3-0.65 0.2-1.45h0.6q-1.4 0.25 0.1 1.1 2.2 1.15 6.6 1.55l-4.15 0.1-1.6-0.15 1.6 0.15q1.85 3.65 6.2 5.55m-9.85-9.45q-1.15-0.05-1.1-1.15l0.3-1.35q-0.35-0.2-0.8-1.85-0.25-1.25-0.2-3.35l0.1-1.45 0.05 0.55 0.05-0.55 1.65-0.85q-1.35 3.8 0 7.25 4.45-1.6 9.1-2.75-4.95 1.3-8.85 4.2-1.1 0.8 0.35 1.3h-0.65m13.6-6.5q-0.25-3.9-2.4-7.45 0.95-1.1 3.15-1.75 2.8 3.4 4.05 8.35l-4.8 0.85 4.8-0.85q0.85 0.4 1.25 0.9-1.25 1.15-3.7 0.9-0.55-0.65-2.35-0.95m-27.05-1.75 0.85-1.85 0.9-1.6q0.6-1.1 1.8-2.05 0.55-0.05 1.15 0.35l-2.05 5.15q-1.4-0.45-2.65 0m-0.9 5.9q0.9 1.75 3.95 2.95 3.05 1.15 4.85 1.5 1.75 0.3 0.35 0.6-4.55-0.2-7.3-2.2 0.35 3.3 4.95 6.55l-0.7-0.25q-3.05-1.35-4.45-3.95-0.8-1.5-0.9-3.3-0.7-1.1-0.75-1.9m1.1-3.4 1.9 0.95 4.25 2.6q1.7 0.95-0.3 1.35-3.9-0.8-5.8-2.7l-0.85-0.75-0.5-0.9 0.05-0.35q0.25-0.7 0.65-0.55l0.6 0.35m0.75 6.25-1.1-0.95 1.1 0.95m30.65-3.65q2 0.15 1.4 1.3-2 1.8-3.35 1.55-0.65-0.85-3.6-0.7l5.55-2.15" fill="url(#g)" fill-rule="evenodd"/>
<path d="m4.5 45.3-0.95-0.35q-1.75-0.9-1.25-2.55 0.3-1.05 1.3-1.7 9.45 2.9 20.25 3.1l-15.2-1.05q-6.55 1.4 0.05 4l-4.2-1.45m0.8-5.55q-1.15-1.55-3-5.4-2.65-4.1-2.25-8l0.5-0.85 1.1 2.3 0.5 0.9v0.85q-0.35 0.45-0.3 1.1 0.05 0.8 0.75 1.9 0.1 1.8 0.9 3.3 1.4 2.6 4.45 3.95l0.7 0.25 1.85 0.15 0.7 0.85-5.9-1.3m9.35-27.85q-0.75 4.8 0 8.9l7.4-3.65-6.3 4.3q-0.6 0.3-1.15 0.55l-1.15-1.35q-0.05-3.85 1.05-8.25l0.15-0.5m-6.15 8.5-0.8-1.65h-1.65l-0.8 0.55-0.75-3.75 1.4-0.65 3.3 4.65 4.25 2.1 0.05 0.15 0.05 0.6q-2.4-0.2-5.05-2m9.05 21.2-0.9-3.7 4.2 4.1-3.3-0.4" fill="url(#f)" fill-rule="evenodd"/>
<path d="m2.15 29.55v-0.1l0.05 0.1h-0.05" fill="#ffe242" fill-rule="evenodd"/>
<path d="m34.5 47.05 0.55 2-2.4 1.2q2.2 5.45-3.05 9.95-0.75-0.05-1.4-0.6 3.9-2.65 3.1-9.15h-2.1q0 4.3-2.1 7.55l-0.6-1.7v-0.05q0.9-2.3 1.15-5.85l0.05-2.6-0.05 2.6q-0.25 3.55-1.15 5.85l-1.25-5.4q0.55 6.15-2.55 9.4l-1.35-0.3q3.3-5.3 1.4-9.9h-3.75l-0.6 2.05q-0.2 2.9 0.35 4.8-0.95 3.4-2.45 5l-0.35 0.35 0.65-2.1q0.8-3 0.6-6.65l-0.1-1.4-1.3-0.05q0.35 9.25-4.7 10.85-1.5-1-1.85-1.85 5.1-3.85 3.45-10.75h-3.75q-0.95 3.45-0.7 6.5l0.05 0.3q-0.45 5-3.85 3.15 5.05-0.95 0.75-12.2h-2.6q0.75-1.35 1.9-2.75l4.2 1.45 1.4 0.35 9.5 0.9 8.1-0.2 4.45-0.4 2.35-0.35m-14.9 0.95-0.6 2.05 0.6-2.05m-10.65 2.3 1.15-3.2-1.15 3.2" fill="url(#e)" fill-rule="evenodd"/>
<path d="m28.2 59.6q-0.65-0.55-1.1-1.6 2.1-3.25 2.1-7.55h2.1q0.8 6.5-3.1 9.15m-6.85 0.35q-1.9-0.75-2.6-3.05-0.55-1.9-0.35-4.8l0.6-2.05h3.75q1.9 4.6-1.4 9.9m-12.1 1.1q-0.75-1.9-0.95-3.95l-0.05-0.3q-0.25-3.05 0.7-6.5h3.75q1.65 6.9-3.45 10.75m-4.8-0.8q-5.65-5.5-1.85-12.2h2.6q4.3 11.25-0.75 12.2m-1-3.7q-1.65-3.95 0.45-8.5-2.1 4.55-0.45 8.5m17.4-0.05q-0.65-2.95 0-6.45-0.65 3.5 0 6.45m9.4-0.35v-5.7 5.7m-20 1.5q-0.9-3.5 0-7.35-0.9 3.85 0 7.35" fill="url(#d)" fill-rule="evenodd"/>
<path d="m32.15 47.4-4.45 0.4-8.1 0.2-9.5-0.9-1.4-0.35q-6.6-2.6-0.05-4l15.2 1.05 4.9-0.05q4.75-0.6 6.7-1.4-7.95 3.9-3.3 5.05" fill="url(#c)" fill-rule="evenodd"/>
<path d="m35.05 49.05q1.55 6.95-2.85 10.2-1.45 1-2.6 0.95 5.25-4.5 3.05-9.95l1.2-0.6q1.15 3.6 0 5.7 1.15-2.1 0-5.7l1.2-0.6m-8.55 7.25q-1.25 3.15-3.8 3.95 3.1-3.25 2.55-9.4l1.25 5.4v0.05m-10.55 5.95q-2 1.7-4.85 0.65 5.05-1.6 4.7-10.85l1.3 0.05 0.1 1.4q0.2 3.65-0.6 6.65l-0.65 2.1m1.25-8.75q-0.15 4.65-2.3 7.75 2.15-3.1 2.3-7.75" fill="#faf2e2" fill-rule="evenodd"/>
<path d="m55.7 17.45 1.35 2.15q1 1.35 2.05 3.9 1 2.5 0 1.85-1.05-0.65-1.8-2.1t-1.9-3q-1.15-1.6-1.3-3.2-0.2-1.55 0.5-0.95l1.1 1.35m9.45 27.7-0.4-0.55-1.7-2.65q-1.15-1.6-1.3-3.2-0.2-1.55 0.5-0.95l1.35 1.05q0.6 0.4 1.4 2.05t0.9 2.5l-0.15 1.2-0.1 0.35q-0.25 0.45-0.5 0.2" fill="#ffd779" fill-rule="evenodd"/>
<path d="m21.5 0.1q3.3-0.2 7.4-0.05 8.45 0.3 13.45 1.55 4.8 1.2 6.5 3.25 3.5 4.2 4.1 8 4.25 3.35 6.9 10.45 1.15 3.1 1.65 5.8l0.25 3.35-0.3 2.8-0.1 0.5q4.45 3.55 5.05 8.25v2.85l-0.45 2.15q-3.1 10.7-12.75 12.25l-1.05-0.7q1.5-3.75 1-9.4l-0.5-1.55q-1.2-0.95-6.15-2.95-5-1.95-7.9-1.65-0.1 1.9-4.1 2.05l0.55 2q1.55 6.95-2.85 10.2-1.45 1-2.6 0.95-0.75-0.05-1.4-0.6t-1.1-1.6l-0.6-1.7q-1.25 3.15-3.8 3.95l-1.35-0.3q-1.9-0.75-2.6-3.05-0.95 3.4-2.45 5l-0.35 0.35q-2 1.7-4.85 0.65-1.5-1-1.85-1.85-0.75-1.9-0.95-3.95-0.45 5-3.85 3.15-5.65-5.5-1.85-12.2 0.75-1.35 1.9-2.75l-0.95-0.35q-1.75-0.9-1.25-2.55 0.3-1.05 1.3-1.7l2.5-0.05-0.8-0.9q-1.15-1.55-3-5.4-2.65-4.1-2.25-8l0.5-0.85q1.9-3.55 3.1-9 0.3-1.3-0.4-2.2 1.25-5.85 3.6-7.95l3-2.75q2.25-1.95 6.7-2.85l0.7-0.15 4.25-0.5m27.6 26.15 1.55-2.1 0.65-0.85 0.4-0.6 0.65-1.15 0.25-0.6q1.15-3.25 0.35-8.1m-5.75 15.8 0.5-0.65 1.05-1.3 0.2-0.3 0.15-0.15m-9.7 15q5.35-1.75 7-9l0.55-3.3 0.25-0.3q1.75 2.05 2.65 7.15 0.95 5.45-0.5 8l-0.55 1.05q2.7 1.85 3.85 4.75m-0.65-3.05q1.55 2.05 2.05 4.85l0.2 1.7q0.2 3.6-1.05 8.15m-1.95-22.05-0.3-3.45q-0.9-5.45-3.25-7.75m2.25 16.5q1.3-2 1.3-5.3m-1.3 5.3 2.05 2.05m6.7-6.15q-3 2.95-8.75 4.1m11.4-8.75q-0.75 2.7-2.65 4.65m-19.3 0.85-2.35 0.5q1.6 2 1.55 3.25m-23.8-22.7q2.2-0.05 7.2-3.9 3.2-2.5 6.4-2.6 1.65-0.05 3.3 0.6l0.05 0.1q1.95 3.25 3.85 9.15 1.45 1.1 0.7 2.1l-0.7 0.55 0.1 0.9q1.7 0.8 0.4 2.4l-0.4 2.05-0.85 2.35-1.3 2.25-0.55 0.7q-1.75 2.25-4.1 3.1l-2.55 0.4h-0.3l-2.15-0.35-0.3-0.2q-4.3-2.4-5.35-5.15-1.45-0.45-1.75-1.15-0.3-0.65 0.2-1.45l-0.45-1.1-0.05-0.05q-1.15-0.05-1.1-1.15l0.3-1.35q-0.35-0.2-0.8-1.85-0.25-1.25-0.2-3.35l0.1-1.45m-0.05 0.45-0.6 0.3q0.5 0.8 0.5 3l-0.15 3.35q1.4 0.95-0.05 1.7l-0.15 1.1q0.8 1.2-0.4 1.7l-1.15 3.15q-0.75 1.35-1.95 1.6m19.3-13.7 4.8-0.85m-4.8 0.85-4.45 1m-10.75-5.5 0.2 0.3-0.05 0.2-0.15 1.25v0.1h-0.1m-11.75 0.9 0.85-1.85 0.9-1.6q0.6-1.1 1.8-2.05h-0.05l0.05-0.05v0.05q0.55-0.05 1.15 0.35l0.05 0.05q1.2 2.1 6.35 4.95m0.7-0.2 0.05-0.55m-3.6 11.85 1.55-0.05m-1.55 0.05q-4.55-0.2-7.3-2.2m4.95 6.55 1.85 0.15m2.9-7.55-0.2 1.1h0.8m-0.6-1.1h0.75m3.15 1.5h-0.6m7.3 2.65 0.55-0.05q4.15-0.45 7.55-2.25 2.1-1.15 4-2.9m-18.05 2.5-0.05-0.05-0.35-1.1m0.6 3.8 1.6 0.15 4.15-0.1m4.8-4.8-3.5 1-0.5 0.1-0.85 0.2-2.6 0.45-2.2 0.3-1.1 0.05-0.75 0.05m-14.35-6.9 1.9 0.95q3.6 1.5 8.65 2.65m-11.85-3.05 0.05-0.35q0.25-0.7 0.65-0.55 0.05-1.1 0.4-2.15m-0.6 4.8q-0.35 0.45-0.3 1.1 0.05 0.8 0.75 1.9l1.1 0.95m-1.55-4.05v0.1m0.05 0-0.05-0.1v-0.75l-0.5-0.9m1.35 1.65-0.25 1.15q2.15 2.75 10.45 3.15m-10.45-3.15-0.55-1.05m-0.05-0.85 0.85 0.75q1.9 1.9 5.8 2.7l4.6 0.5m-10.8-0.1q0.1 1.8 0.9 3.3 1.4 2.6 4.45 3.95l0.7 0.25m0.05 6.7 1.4 0.35 9.5 0.9 8.1-0.2 4.45-0.4m3.3-5.05q-1.95 0.8-6.7 1.4l-4.9 0.05m-15.15 2.95-4.2-1.45m30.75-15.85-0.9 0.4m-5.55 2.15 5.55-2.15m0.75-1.35 0.15 0.95 0.45-0.25m-12.1 12.7 0.3 0.2m10.6 4.95-2.35 0.35m-28.55-6.7q9.45 2.9 20.25 3.1m2.65 12.45v0.05m1.2-8.5-0.05 2.6q-0.25 3.55-1.15 5.85m-7.75 0.65q-0.55-1.9-0.35-4.8l1.2-4.1m-10.65 2.3q-0.95 3.45-0.7 6.5l0.05 0.3m1.8-10-1.15 3.2" fill="none" stroke="#000" stroke-linecap="round" stroke-linejoin="round" stroke-opacity=".41176" stroke-width=".05"/>
<path d="m14.5 23.85-0.05 0.45q-0.4-0.3-0.9-1.9m3.3 10.6 0.8-0.05 5.5-0.8 11.95-3.65 0.5-0.2m-20.15-19.15-0.8 2.75-0.15 0.5q-1.1 4.4-1.05 8.25m1.05 3.2 0.05 0.55m2.3 8.6h-0.65" fill="none" stroke="#000" stroke-linecap="round" stroke-linejoin="round" stroke-opacity=".41176" stroke-width=".05"/>
<path d="m3.9 48.05q-2.1 4.55-0.45 8.5m30.4-6.9q1.15 3.6 0 5.7m-13-5.3q-0.65 3.5 0 6.45m9.4-6.05v5.7m-15.35 5.1q2.15-3.1 2.3-7.75m-6.95-3.2q-0.9 3.85 0 7.35" fill="none" stroke="#8a6d51" stroke-linecap="round" stroke-linejoin="round" stroke-width=".05"/>
</g>
<linearGradient id="j" x1="-819.2" x2="819.2" gradientTransform="matrix(.025 0 0 .0177 32.8 14.45)" gradientUnits="userSpaceOnUse">
<stop stop-color="#56628f" offset="0"/>
<stop stop-color="#b7c8d9" offset="1"/>
</linearGradient>
<linearGradient id="i" x1="-819.2" x2="819.2" gradientTransform="matrix(.025 0 0 .0177 32.8 14.45)" gradientUnits="userSpaceOnUse">
<stop stop-color="#56628f" offset="0"/>
<stop stop-color="#89a6c2" offset="1"/>
</linearGradient>
<linearGradient id="h" x1="-819.2" x2="819.2" gradientTransform="matrix(.0293 0 0 .0263 23.95 22.2)" gradientUnits="userSpaceOnUse">
<stop stop-color="#56628f" offset="0"/>
<stop stop-color="#1d2530" offset=".31373"/>
<stop stop-color="#263c48" offset=".58039"/>
<stop stop-color="#8085b3" offset="1"/>
</linearGradient>
<linearGradient id="g" x1="-819.2" x2="819.2" gradientTransform="matrix(.0182 -.0049 .0014 .0054 17.35 24.9)" gradientUnits="userSpaceOnUse">
<stop stop-color="#ed981b" offset="0"/>
<stop stop-color="#ffe242" offset="1"/>
</linearGradient>
<linearGradient id="f" x1="-819.2" x2="819.2" gradientTransform="matrix(.025 0 0 .0177 32.8 14.45)" gradientUnits="userSpaceOnUse">
<stop stop-color="#777c80" offset=".062745"/>
<stop stop-color="#89a6c2" offset="1"/>
</linearGradient>
<linearGradient id="e" x1="-819.2" x2="819.2" gradientTransform="matrix(.0128 -.0074 .0047 .0082 13.4 56.7)" gradientUnits="userSpaceOnUse">
<stop stop-color="#91725e" offset="0"/>
<stop stop-color="#836841" offset="1"/>
</linearGradient>
<linearGradient id="d" x1="-819.2" x2="819.2" gradientTransform="matrix(.0128 -.0074 .0047 .0082 13.4 56.7)" gradientUnits="userSpaceOnUse">
<stop stop-color="#dfbb97" offset="0"/>
<stop stop-color="#97794f" offset="1"/>
</linearGradient>
<linearGradient id="c" x1="-819.2" x2="819.2" gradientTransform="matrix(.0208 .0036 -7e-4 .0044 23.75 44.35)" gradientUnits="userSpaceOnUse">
<stop stop-color="#56628f" offset="0"/>
<stop stop-color="#1d2530" offset=".31373"/>
<stop stop-color="#263c48" offset=".58039"/>
<stop stop-color="#8085b3" offset="1"/>
</linearGradient>
</defs>
</svg>
