<?xml version="1.0" encoding="UTF-8"?>
<svg version="1.1" viewBox="0 0 10.55 12.95" xmlns="http://www.w3.org/2000/svg" xmlns:cc="http://creativecommons.org/ns#" xmlns:dc="http://purl.org/dc/elements/1.1/" xmlns:rdf="http://www.w3.org/1999/02/22-rdf-syntax-ns#" xmlns:xlink="http://www.w3.org/1999/xlink">
<metadata>
<rdf:RDF>
<cc:Work rdf:about="">
<dc:format>image/svg+xml</dc:format>
<dc:type rdf:resource="http://purl.org/dc/dcmitype/StillImage"/>
</cc:Work>
</rdf:RDF>
</metadata>
<g transform="translate(-1.125 -.97502)">
<use transform="matrix(-1,0,0,1,11.65,1.1)" width="10.4" height="12.7" xlink:href="#g"/>
<use transform="translate(1.15,1)" width="10.05" height="12.9" xlink:href="#h"/>
</g>
<defs>
<g id="g">
<use transform="translate(4.6)" width="5.8000002" height="10.65" xlink:href="#f"/>
<use transform="matrix(.3707 .0104 -.0402 .3611 4.6913 11.435)" width="3.7" height="3.45" xlink:href="#e"/>
<use transform="matrix(-.5263 0 0 .5263 2.75 10.85)" width="3.1500001" height="1.9" xlink:href="#d"/>
<use transform="translate(1.4,8.3)" width="3.05" height="3.2" xlink:href="#m"/>
<use transform="matrix(.865 -.0684 .0789 .9966 1.4241 5.7499)" width="6.0500002" height="5.9499998" xlink:href="#c"/>
<use transform="translate(4.1,8.55)" width="3.0999999" height="3.5" xlink:href="#k"/>
<use transform="matrix(-.1045 .268 .4047 .3229 1.4009 8.3311)" width="2.55" height="2.6500001" xlink:href="#a"/>
<use transform="matrix(.2329 .3052 -.7935 .6056 4.8191 7.6988)" width="2.55" height="2.6500001" xlink:href="#a"/>
<use transform="translate(0,1.25)" width="6.5500002" height="7.8499999" xlink:href="#b"/>
</g>
<g id="f" transform="translate(-.2 11.1)">
<use transform="translate(.2 -11.1)" width="5.8000002" height="10.65" xlink:href="#p"/>
</g>
<g id="p" transform="translate(-.2 11.1)">
<path d="m5.1-9.1 0.15 0.25v0.05l-0.8 0.35q0.5 0.15 1.05 1.4l0.5 1.65-0.6-0.2 0.05 1q-0.1 0.95-0.95 2.8-0.7 1.35-2.35 1.35l-0.55-0.1 0.25-0.05 1.3-0.8 0.55-0.85q1.05-1.3 1.1-3.4l-0.1-0.9 0.35 0.05 0.3 0.2-0.6-1.45q-0.5-0.7-1.15-0.75 0.7-0.6 1.45-0.6h0.05m-3.55-1.65 0.1-0.05 0.35-0.3-0.1 0.65-0.05 0.05h0.05l-0.5 0.45 0.15-0.65v-0.15m2.45-0.05 0.2 0.05h0.05l-0.4 0.35h-0.05l-1 0.35 0.8-0.55 0.4-0.2" fill="#ffd066" fill-rule="evenodd"/>
<path d="m5.1-9.1h-0.05q-0.75 0-1.45 0.6 0.65 0.05 1.15 0.75l0.6 1.45-0.3-0.2-0.35-0.05 0.1 0.9q-0.05 2.1-1.1 3.4l-0.55 0.85-1.3 0.8-0.25 0.05q-0.45-0.1-0.75-0.4l0.3-0.2q0.75-0.45 1.45-2.1l0.3-1.15-0.15-0.65 0.05-0.1 0.2 0.05v-0.05q-1.2-2.2-1.5-3.4l-0.1-0.35q0.45-1.5 1.65-1.9h0.95l-0.4 0.2-0.8 0.55 1-0.35v0.05l0.8 0.6 0.5 0.65m-3.55-1.5-0.15 0.65-0.05-0.05 0.2-0.6" fill="#ffa717" fill-rule="evenodd"/>
<path d="m0.85-0.95-0.25-0.2q-0.3-0.45-0.35-0.95v-0.5l0.1-0.15 0.25-0.2 0.05-0.05 0.45-0.55q0.3-0.35 0.4-1.1v-0.05l0.05-0.5 0.3 0.2-0.15-0.45-0.65-1.35q-0.7-1.35-0.55-2.35 0.05-0.6 0.55-1.1l0.5-0.5v0.15l-0.2 0.6 0.05 0.05 0.5-0.45 0.2-0.2 0.95-0.2q-1.2 0.4-1.65 1.9l0.1 0.35q0.3 1.2 1.5 3.4v0.05l-0.2-0.05-0.05 0.1 0.15 0.65-0.3 1.15q-0.7 1.65-1.45 2.1l-0.3 0.2" fill="#da8e13" fill-rule="evenodd"/>
<path d="m1.6-0.55 0.55 0.1q1.65 0 2.35-1.35 0.85-1.85 0.95-2.8l-0.05-1 0.6 0.2-0.5-1.65q-0.55-1.25-1.05-1.4l0.8-0.35v-0.05l-0.15-0.25m-3.6 4.45v-0.05l0.05-0.5 0.3 0.2-0.15-0.45-0.65-1.35q-0.7-1.35-0.55-2.35 0.05-0.6 0.55-1.1l0.5-0.5 0.1-0.05m0.35-0.3-0.1 0.65 0.2-0.15 0.95-0.2h0.95l0.2 0.05h0.05l-0.4 0.35h-0.05v0.05l0.8 0.6 0.5 0.65m-3.25-1.3 0.05-0.05" fill="none" stroke="#000" stroke-linecap="round" stroke-linejoin="round" stroke-opacity=".30196" stroke-width=".05"/>
</g>
<g id="e" transform="translate(2.15 .95)">
<use transform="translate(-2.15 -.95)" width="3.7" height="3.45" xlink:href="#o"/>
</g>
<g id="o" transform="translate(2.15 .95)">
<path d="m-1.45 2.5h-0.6l-0.1-0.9 0.1-0.45 1.4-1.75 1.55-0.35 0.45 1.4 0.2 1.35-0.3 0.55-1.1 0.05-1.6 0.1-0.05-0.6 0.05 0.6m1.7-1.25-0.25 0.55 0.15 0.6-0.15-0.6 0.25-0.55" fill="#a75454" fill-rule="evenodd"/>
<path d="m0.15 2.4 1.1-0.05 0.3-0.55-0.2-1.35-0.45-1.4-1.55 0.35-1.4 1.75-0.1 0.45 0.1 0.9h0.6l-0.05-0.6m0.05 0.6 1.6-0.1-0.15-0.6 0.25-0.55" fill="none" stroke="#000" stroke-linecap="round" stroke-linejoin="round" stroke-opacity=".30196" stroke-width=".05"/>
</g>
<g id="d">
<use width="3.1500001" height="1.9" xlink:href="#n"/>
</g>
<g id="n">
<path d="m2.9 1.85h-0.05l-1.75 0.05-0.95-0.6-0.15-1.1 0.65-0.2 0.95 0.65h0.65l0.4 0.55 0.25 0.65-0.25-0.65-0.4-0.55h0.35l0.35 0.25 0.2 0.8-0.25 0.15" fill="#a75454" fill-rule="evenodd"/>
<path d="M 2.25,0.65 H 1.6 L 0.65,0 0,0.2 0.15,1.3 1.1,1.9 2.85,1.85 H 2.9 L 2.65,1.2 2.25,0.65 H 2.6 L 2.95,0.9 3.15,1.7 2.9,1.85" fill="none" stroke="#000" stroke-linecap="round" stroke-linejoin="round" stroke-opacity=".30196" stroke-width=".05"/>
</g>
<g id="m" transform="translate(-1.4,-8.3)">
<path d="m4.1 8.3q0.9 1.45-0.65 2.9l-0.15 0.05-1.7 0.1q-0.7-2.15 1.3-2.8l1.2-0.25" fill="#ffa717" fill-rule="evenodd"/>
<path d="m1.6 11.35q-0.7-2.15 1.3-2.8" fill="none" stroke="#000" stroke-linecap="round" stroke-linejoin="round" stroke-opacity=".30196" stroke-width=".05"/>
<path d="m4.1 8.3q0.9 1.45-0.65 2.9l-0.15 0.05-1.7 0.1z" fill="none" stroke="#000" stroke-linecap="round" stroke-linejoin="round" stroke-opacity=".30196" stroke-width=".05"/>
</g>
<g id="c" transform="translate(2.65,5.5)">
<use transform="translate(-2.65,-5.5)" width="6.0500002" height="5.9499998" xlink:href="#l"/>
</g>
<g id="l" transform="translate(2.65,5.5)">
<path d="m-2.6-1.95q-0.1 0.7 0.25 1.25l0.15 0.2q-0.55-0.55-0.4-1.45m3.4 2.25 0.2-0.55 0.25 0.5-0.4 0.1h-0.05v-0.05" fill="#ffa717" fill-rule="evenodd"/>
<path d="m-2.45-2.7h0.05q2 0.25 2.5 0.95l0.9 1.5-0.2 0.55-0.05 0.1h-0.05q-2 0.25-2.9-0.9l-0.15-0.2q-0.35-0.55-0.25-1.25v-0.1l0.05-0.3 0.1-0.35" fill="#ffd066" fill-rule="evenodd"/>
<path d="m1-0.25-0.9-1.5q-0.5-0.7-2.5-0.95h-0.05l0.25-0.6 0.05-0.05q1.1-1 2.65 0.4 0.7 0.95 0.65 2l-0.15 0.7" fill="#d69610" fill-rule="evenodd"/>
<path d="m1-0.25 0.15-0.7q0.05-1.05-0.65-2-1.55-1.4-2.65-0.4l0.05-0.1 0.15-0.35 0.65-1.1 1.9-0.6q0.95-0.05 2.25 1.5 0.5 0.7 0.55 2.05 0 1.3-0.5 1.6l-0.65 0.35-0.75 0.2-0.25 0.05-0.25-0.5" fill="#da8e13" fill-rule="evenodd"/>
<path d="m-2.15-3.35-0.05 0.05-0.25 0.6-0.1 0.35-0.05 0.3v0.1q-0.1 0.7 0.25 1.25l0.15 0.2q0.9 1.15 2.9 0.9h0.05l0.05-0.1v0.05h0.05l0.4-0.1 0.25-0.05 0.75-0.2 0.65-0.35q0.5-0.3 0.5-1.6-0.05-1.35-0.55-2.05-1.3-1.55-2.25-1.5l-1.9 0.6-0.65 1.1-0.15 0.35z" fill="none" stroke="#000" stroke-linecap="round" stroke-linejoin="round" stroke-opacity=".30196" stroke-width=".05"/>
</g>
<g id="k" transform="translate(-4.1,-8.55)">
<path d="m5.4 8.85q0.95 0.85 0.95 1.35 0 1.55-1.45 1.6l-0.7-0.35-0.05-0.4q-0.25-1.5 1.1-2.1l0.15-0.1" fill="#ffa717" fill-rule="evenodd"/>
<path d="m4.2 11.45 0.7 0.35q1.45-0.05 1.45-1.6 0-0.5-0.95-1.35l0.15-0.05h0.5l0.75-0.25q1.05 1.6-0.5 3.2l-0.15 0.05-1.8 0.1-0.15-0.45" fill="#da8e13" fill-rule="evenodd"/>
<path d="m5.25 8.95q-1.35 0.6-1.1 2.1m0.05 0.4 0.15 0.45" fill="none" stroke="#000" stroke-linecap="round" stroke-linejoin="round" stroke-opacity=".30196" stroke-width=".05"/>
<path d="m4.35 11.9 1.8-0.1 0.15-0.05q1.55-1.6 0.5-3.2" fill="none" stroke="#000" stroke-linecap="round" stroke-linejoin="round" stroke-opacity=".30196" stroke-width=".05"/>
</g>
<g id="a" transform="translate(1.25 -.05)">
<use transform="translate(-1.25 .05)" width="2.55" height="2.6500001" xlink:href="#j"/>
</g>
<g id="j" transform="translate(1.25 -.05)">
<path d="m1.3 0.05q0.15 0.8-0.95 2.4l-1.6-0.05q-0.1-0.95 0.55-2.15l2-0.2" fill="#ffa717" fill-rule="evenodd"/>
<path d="m1.3 0.05q0.15 0.8-0.95 2.4l-1.6-0.05q-0.1-0.95 0.55-2.15" fill="none" stroke="#000" stroke-linecap="round" stroke-linejoin="round" stroke-opacity=".30196" stroke-width=".05"/>
</g>
<g id="b" transform="translate(2.75,4.75)">
<use transform="translate(-2.75,-4.75)" width="6.5500002" height="7.8499999" xlink:href="#i"/>
</g>
<g id="i" transform="translate(2.75,4.75)">
<path d="m-1.65-4.2 0.15-0.15q1.55 0.35 2.35 1.35l-0.95 1.2q-0.55-0.55-0.55-1.05l0.2-0.35-0.45 0.15q-0.25-0.8-0.75-1.15" fill="#ffa717" fill-rule="evenodd"/>
<path d="m-1.65-4.2q0.5 0.35 0.75 1.15l0.45-0.15-0.2 0.35q0 0.5 0.55 1.05l-0.95-0.05-0.7-1.4-0.05-0.8 0.15-0.15" fill="#b27410" fill-rule="evenodd"/>
<path d="m0.85-3q-0.8-1-2.35-1.35l-0.15 0.15q0.5 0.35 0.75 1.15l0.45-0.15-0.2 0.35q0 0.5 0.55 1.05m-1.55-2.4-0.15 0.15 0.05 0.8 0.7 1.4" fill="none" stroke="#000" stroke-linecap="round" stroke-linejoin="round" stroke-opacity=".30196" stroke-width=".05"/>
<path d="m0.1-4.7 0.05-0.05 0.7 0.9-0.05 0.4-0.7-1.25m0.75 0.85h0.05v0.05l-0.05-0.05m-0.05-0.25-0.1-0.35h0.1v0.35m0.05-0.35h0.2l0.45 0.8-0.65-0.8m1.3 1.25 0.2 0.25 0.25 0.45-0.65 1.45q-0.95-0.35-1.7 1.2-0.8 1.7-1.15 1.7t-0.45-2.65l-0.2-0.95 0.05-0.1q1.15-1.25 2.4-1.45l1.25 0.1" fill="#ffa717" fill-rule="evenodd"/>
<path d="m2.6-2.5q1.6 3.4-1.55 5.3l-1.95 0.25-1.05-0.85q-0.55-2 0.4-3.95l0.2 0.95q0.1 2.65 0.45 2.65t1.15-1.7q0.75-1.55 1.7-1.2l0.65-1.45" fill="#da8e13" fill-rule="evenodd"/>
<path d="m0.1-4.7 0.7 1.25 0.05-0.4 0.05 0.05v-0.05l-0.1-0.25v-0.35h0.05l0.65 0.8 0.15 0.1 0.5 0.35-1.25-0.1q-1.25 0.2-2.4 1.45l1-1.6 0.25-0.15 0.4-0.15-0.45-0.85 0.4-0.1" fill="#ffd066" fill-rule="evenodd"/>
<path d="m0.85-3.85-0.7-0.9-0.05 0.05m0.75 0.85h0.05l-0.1-0.25-0.1-0.35m0.15 0h0.2l0.45 0.8 0.15 0.1 0.5 0.35 0.2 0.25 0.25 0.45q1.6 3.4-1.55 5.3l-1.95 0.25-1.05-0.85q-0.55-2 0.4-3.95l0.05-0.1 1-1.6 0.25-0.15 0.4-0.15-0.45-0.85 0.4-0.1m0.8 0.85v0.05l-0.05-0.05z" fill="none" stroke="#000" stroke-linecap="round" stroke-linejoin="round" stroke-opacity=".30196" stroke-width=".05"/>
<path d="m1.1-2.85q0.8-1 2.4-1.3l0.15 0.15q-0.5 0.35-0.75 1.1l-0.45-0.15 0.2 0.4q-0.1 0.5-0.6 1l-0.95-1.2" fill="#ffa717" fill-rule="evenodd"/>
<path d="m3.65-4 0.15 0.15-0.05 0.85q-0.45 0.4-0.75 1.35h-0.95q0.5-0.5 0.6-1l-0.2-0.4 0.45 0.15q0.25-0.75 0.75-1.1" fill="#b27410" fill-rule="evenodd"/>
<path d="m1.1-2.85q0.8-1 2.4-1.3l0.3 0.3-0.05 0.85q-0.45 0.4-0.75 1.35m-0.95 0q0.5-0.5 0.6-1l-0.2-0.4 0.45 0.15q0.25-0.75 0.75-1.1" fill="none" stroke="#000" stroke-linecap="round" stroke-linejoin="round" stroke-opacity=".30196" stroke-width=".05"/>
<path d="m0.65 0.05 0.9 0.15 0.55 0.8-0.15 0.5-0.75 0.65-0.85 0.1q-0.4-0.7 0.1-1.8l0.2-0.4" fill="#723901" fill-rule="evenodd"/>
<path d="m0.65 0.05 0.05-0.15q0.65-0.9 1.1-0.5 0.4 1 0.3 1.6l-0.55-0.8-0.9-0.15" fill="#fbfaf6" fill-rule="evenodd"/>
<path d="m2.1 1q0.1-0.6-0.3-1.6-0.45-0.4-1.1 0.5l-0.05 0.15-0.2 0.4q-0.5 1.1-0.1 1.8l0.85-0.1 0.75-0.65 0.15-0.5m-1.45-1.25q0.75-1 1.25-0.55 0.5 1.2 0.35 1.95l-0.2 0.5-0.85 0.7-1 0.15q-0.45-0.85 0.1-2.1l0.2-0.4 0.15-0.25" fill="#f9e2c8" fill-rule="evenodd"/>
<path d="m1.55 0.2-0.25 0.35-0.3 0.2h-0.3v-0.3q0-0.2 0.15-0.35l0.4-0.2h0.3v0.3" fill="#fff" fill-rule="evenodd"/>
<path d="m-1.4-0.25 0.1 0.4q0.1 1-0.05 1.75l-0.35 0.05-0.25-0.55-0.05-0.45 0.25-0.9 0.35-0.3" fill="#723901" fill-rule="evenodd"/>
<path d="m-2 0.95 0.2-1.65q0.15-0.45 0.4 0.3v0.15l-0.35 0.3-0.25 0.9" fill="#fbfaf6" fill-rule="evenodd"/>
<path d="m-1.4-0.25v-0.15q-0.25-0.75-0.4-0.3l-0.2 1.65 0.05 0.45 0.25 0.55 0.35-0.05q0.15-0.75 0.05-1.75l-0.1-0.4m0.05-0.1 0.1 0.4q0.15 1.15-0.05 2.05l-0.4 0.05-0.3-0.6-0.05-0.45 0.2-2q0.2-0.55 0.5 0.35v0.2" fill="#f9e2c8" fill-rule="evenodd"/>
<path d="m-1.7 0.1 0.05 0.3 0.15 0.2 0.1-0.1v-0.3l-0.05-0.3-0.15-0.2-0.1 0.1v0.3" fill="#fff" fill-rule="evenodd"/>
<path d="m-0.9 1.55 0.15 0.35q0 0.45-0.4 0.45l-0.45-0.25v-0.2l0.15-0.25 0.4-0.1h0.15" fill="#c99" fill-rule="evenodd"/>
<path d="m-0.5 1.6 0.2 0.3q0.15 0.3 0 0.5l-0.25 0.15-0.05 0.05h-0.8l-0.1-0.3-0.05 0.05h-0.05v-0.25l0.45 0.25q0.4 0 0.4-0.45l-0.15-0.35 0.4 0.05" fill="#a75454" fill-rule="evenodd"/>
<path d="m-1.55 2.35 0.05-0.05 0.1 0.3h0.8l0.05-0.05 0.25-0.15q0.15-0.2 0-0.5l-0.2-0.3" fill="none" stroke="#000" stroke-linecap="round" stroke-linejoin="round" stroke-opacity=".30196" stroke-width=".05"/>
<path d="m-1.7 1.9q-0.15-0.3-0.65-0.3m0.6 0.6-0.7-0.1m2.4 0.05 0.05-0.05q0.95-0.45 1.7-0.4m-1.8 0.5 0.1 0.05q1.2 0.05 1.55 0.55m-1.8-0.4 0.1 0.05q0.7 0.2 0.95 0.65m-3.55-0.55 1.1-0.2h0.05" fill="none" stroke="#fff" stroke-linecap="round" stroke-linejoin="round" stroke-opacity=".30196" stroke-width=".05"/>
</g>
<g id="h" transform="translate(-1.15,-1)">
<path d="m9.2 2.5-0.45 0.85h0.1q0.65-0.4 1.55-0.6l0.3 0.3-0.05 0.8-0.5 0.85 0.3 0.55 0.05 0.1q0.75 1.65 0.55 3.3l-0.05 0.1-0.1 0.5v0.05l-0.05 0.05-0.45 0.55 0.15 0.2-0.6 0.35q0.5 0.7 0.2 1.85h0.15l0.15 0.1 0.1 0.45-0.1 0.05-0.05 0.05h-0.9l-0.5-0.3v-0.1l-0.45-0.1-1.1 0.15-0.15 0.4-0.45 0.1 0.15 0.2 0.05 0.15v0.35l-1.2-0.05-0.15-0.2 0.05-0.5-0.25-0.15-0.1-0.05-0.8-1.15q-1.25-0.15-1.8-1.3-0.9-1.85-1-2.8l0.1-1-0.65 0.2q0.1-0.65 0.55-1.65 0.5-1.25 1-1.4l-0.75-0.35v-0.05l0.1-0.25 0.55-0.65 0.8-0.6v-0.05h-0.05l-0.4-0.35 0.2-0.05h1l0.9 0.2 0.2 0.15 0.05 0.05-0.05-0.05-0.1-0.65 0.4 0.3 0.05 0.05 0.55 0.5q0.45 0.5 0.55 1.1v0.4l0.35 0.2 0.3-0.2 0.4-0.8h0.35l-0.15 0.6h0.05l0.65-0.9 0.45 0.15m-3.35 4.95q-0.15-0.6 0-1.25l-0.3 0.55-0.15 0.45 0.35-0.2v0.55l0.1-0.1" fill="none" stroke="#000" stroke-linecap="round" stroke-linejoin="round" stroke-opacity=".6" stroke-width=".25"/>
</g>
</defs>
</svg>
