<?xml version="1.0" encoding="UTF-8"?>
<svg version="1.1" viewBox="0 0 90.975 41.375" xmlns="http://www.w3.org/2000/svg" xmlns:cc="http://creativecommons.org/ns#" xmlns:dc="http://purl.org/dc/elements/1.1/" xmlns:rdf="http://www.w3.org/1999/02/22-rdf-syntax-ns#" xmlns:xlink="http://www.w3.org/1999/xlink">
<metadata>
<rdf:RDF>
<cc:Work rdf:about="">
<dc:format>image/svg+xml</dc:format>
<dc:type rdf:resource="http://purl.org/dc/dcmitype/StillImage"/>
</cc:Work>
</rdf:RDF>
</metadata>
<g transform="translate(-229.48 -179.28)">
<use transform="translate(229.5,179.3)" width="90.949997" height="41.349998" xlink:href="#a"/>
</g>
<defs>
<g id="a" transform="translate(-229.5,-179.3)">
<path d="m303.1 197.9 11.15 2.6 4.4 5.35 1.8 9.4-18.45 5.1 0.15-2.9h0.55q0.05-0.9 0.45-2.05l0.05-6.55q-0.95-4.3 0-8.65l-0.1-2.3m-27.3 16.05-22.2 4.95v-0.1l1.1-1.2 8.85-5.2q1.5-0.35 2.7-1.95l2.45-1 0.85-1.2 1.8-1.3q2.1-0.6 2.95-2h0.55v1l0.9 0.85 0.05 7.15" fill="#960" fill-opacity=".10196" fill-rule="evenodd"/>
<path d="m229.5 205.5 0.65-17.35 6.95 1.05q-2.65 2.3 4.4 4.55 3.6-0.4 3.45-2.55l3.45 1.15q0.95 0.7 1.2 2.7l0.8 8.15v2.75l-1.85-2.55 1.85 5.35v2.65l-0.5 0.35q-0.15-0.2-0.65-0.3-0.5 0.2-0.5 0.85v0.15l-0.45 0.25q-1.75 0.5-2.4-1.7-0.15-2.15-2.45-3.05-1.15-0.8-2.3 0l-2.5 1.05q-1.1 0.55-1.85-0.65l-0.9-1.65 0.6-0.85q0.2-0.8-0.45-1.55t-1.75-1q-1.1-0.3-2 0-0.95 0.35-1.15 1.15-0.15 0.5 0.1 1.05h-1.75m29.65-22.75-0.05-0.25q0-0.7 1.8-1.2l4.45-0.5 4.4 0.5q1.85 0.5 1.85 1.2l-0.1 0.3q-6.6-2-12.35-0.05m-14.5 12.95 0.55-0.6q0.35-0.5-0.6-0.65-0.5 0.2-0.5 0.85 0 0.5 0.55 0.4m30.2 2.55v-3.8h18.5l-1.8 1.65 3.25-1.65h4.4l-1.5 1.15 2.95-1.15q1 0.1 1.4 1.6l0.7 4.45q-1.4 1.15-1.4 3.75 0.1 3.85 1.35 4.5l-0.55 6.65-2.35-0.8q-0.4-2.2-2.85-2.5-3.5 0.65-5 2.45-0.5 1.75-1.65 1.1-0.55-2.55-3-2.6-4.15 0.3-4.4 2.25-0.55 1.8-6.05-0.85l1.5-1.05q1.45-1.05-0.55-4.9l-2.05-1.7-0.9-0.85v-7.7m7.7-14.55q-0.45-0.4-0.4-0.85-0.05-0.6 0.7-1.1 0.5-0.35 1.35-0.65 2.05-0.7 5.05-0.7 2.95 0 5.05 0.7 1.1 0.4 1.6 0.9 0.45 0.35 0.45 0.85l-0.15 0.5q-6.8-3.25-13.65 0.35m1 18.65q2.2-0.5 2.3-1.7-0.25-2.2-3.55-1.95-1.95 0.65-1.9 1.85 0.2 1.85 3.15 1.8m13.15 3.55q1.45 0.9 2.1 0.3 1.05-1.3-0.85-2.9-1.35-0.7-1.95 0-0.9 1.05 0.7 2.6" fill="#decd01" fill-rule="evenodd"/>
<path d="m275.8 215.15v-1.2l-0.05-7.15 2.05 1.7q2 3.85 0.55 4.9l-1.5 1.05-1.05 0.7m-44.55-9.65q-0.25-0.55-0.1-1.05 0.2-0.8 1.15-1.15 0.9-0.3 2 0 1.1 0.25 1.75 1t0.45 1.55l-0.6 0.85-0.55 0.25-2.05 0.05q-1.1-0.3-1.7-1.05l-0.35-0.45m17.5 6.95v-0.15q0-0.65 0.5-0.85 0.5 0.1 0.65 0.3l-0.05 0.35-0.55 0.6q-0.45 0.1-0.55-0.25m-3.8-21.25q0.15 2.15-3.45 2.55-7.05-2.25-4.4-4.55 1.1-0.7 6.25 0 1.9 1.5 1.6 2m17.4-1.25q3.55-0.6 3.75 1.85-0.3 1.55-2.15 1.75l-1.6-1.55q-0.95-1.2 0-2.05m-6.4-6.7q0-0.65 0.5-0.85 0.95 0.15 0.6 0.65l-0.55 0.6q-0.55 0.1-0.55-0.4m-3.15 13.85q0-0.65 0.5-0.85 0.5 0.1 0.65 0.3l-0.05 0.35-0.55 0.6q-0.45 0.1-0.55-0.25v-0.15m-8.15-1.4q-0.55 0.1-0.55-0.4 0-0.65 0.5-0.85 0.95 0.15 0.6 0.65l-0.55 0.6m30.2 1.55q-1.65 1.1-2.75-0.9-0.55-1.15 0.95-1.35l1.8 0.55v1.7m-13.9 3.6-1.45 1.55q-1.45 0.4-1.55-1.05 0.05-1.7 1.4-2.25 2.55 0.4 1.6 1.75m2.25-5.55q0-0.65 0.5-0.85 0.95 0.15 0.6 0.65l-0.55 0.6q-0.55 0.1-0.55-0.4m39.5 13.45q-1.25-0.65-1.35-4.5 0-2.6 1.4-3.75-0.8 3.15-0.05 8.25m-6-2.85q-1.6-1.55-0.7-2.6 0.6-0.7 1.95 0 1.9 1.6 0.85 2.9-0.65 0.6-2.1-0.3m-13.15-3.55q-2.95 0.05-3.15-1.8-0.05-1.2 1.9-1.85 3.3-0.25 3.55 1.95-0.1 1.2-2.3 1.7" fill="#8db044" fill-rule="evenodd"/>
<path d="m303.15 215.4q-0.4 1.15-0.45 2.05h-27.85v-1.5l0.95-0.8 1.05-0.7q5.5 2.65 6.05 0.85 0.25-1.95 4.4-2.25 2.45 0.05 3 2.6 1.15 0.65 1.65-1.1 1.5-1.8 5-2.45 2.45 0.3 2.85 2.5l2.35 0.8h1m-72.2-7.35-0.8-0.35-0.65-2.2h1.75l0.35 0.45q0.6 0.75 1.7 1.05l2.05-0.05 0.55-0.25 0.9 1.65q0.75 1.2 1.85 0.65l2.5-1.05q1.15-0.8 2.3 0 2.3 0.9 2.45 3.05 0.65 2.2 2.4 1.7l0.45-0.25q0.1 0.35 0.55 0.25l0.55-0.6 0.05-0.35 0.5-0.35v5.5l-19.45-8.85m40.55-25.25q-0.3 0.5-1.75 0.9l-4.4 0.5-4.45-0.5q-1.45-0.4-1.75-0.95 5.75-1.95 12.35 0.05m24.7 0.55q-0.4 0.65-1.9 1.15-2.1 0.75-5.05 0.8l-5.05-0.8q-1.15-0.35-1.65-0.8 6.85-3.6 13.65-0.35" fill="#948901" fill-rule="evenodd"/>
<path d="m298.5 220.6-1.4-0.25q-1.95 0.4-3.95 0-1 0.55-2.05 0l-3.75 0.25-5.45-0.25q-3.45 0.55-5.95 0l-0.65-2.9h26.05l0.2 0.9-1.5 0.65 0.85 0.65-0.95 0.25-1.45-1 0.8 1.1-1.5-0.5 0.7 1.1m-44.9-1.8-0.2 0.15-0.4 0.2-0.6-1.55 1.2 1.2m-3.75 0.7-2.65-0.45q-1.4 0.1-2.15-1.45l-2.9-0.65-1.2-1.3h-1.3l-1.9-0.5q-2.4-1.05-2.85-2.1l-0.75-0.1-1.6-1.45-0.55-0.9-0.5 0.4-0.95-0.8 0.4-2.15 19.45 8.85 24.45-14.8v0.95l-3.1 1.7-3 2.8-2.55 0.85-2.2 1.65-2.1 0.75-3.35 2.15-1.8 1.9h-1.6l-2.05 1.7-2.1 0.8 0.1 0.8-2.35-0.8 0.85 1.15-1.1-0.5 1.35 1.5m48.35-1.15-0.8-0.1 0.8 0.6v-0.5m-1.1 1.15-2.65-1.35 1.65 1.25 1 0.1m-2 0.75 0.35-0.05-1.2-0.9 0.85 0.95m-48.05-1.85 0.3-0.5-1.2-0.55 0.9 1.05" fill="#063" fill-rule="evenodd"/>
<path d="m303.1 197.9 0.1 2.3q-0.25 0.1-0.45 0.3l-0.7-4.45q-0.4-1.5-1.4-1.6l-2.95 1.15 1.5-1.15h-4.4l-3.25 1.65 1.8-1.65h-18.5q1.05-3.8 2.6-7.75 1.35-3.4 3.05-6.85 9-1.1 17.6 0 3.35 7.65 4.85 14.6l0.15 3.45m0.1 10.95-0.05 6.55h-1l0.55-6.65 0.5 0.1m-73.05-20.7q17.25-5.05 35.25-8.5 7.25 0.6 12.05 1.95-12.95 4.25-26.15 11.6l-0.9 10-0.8-8.15q-0.25-2-1.2-2.7l-3.45-1.15q0.3-0.5-1.6-2-5.15-0.7-6.25 0l-6.95-1.05m29-5.4q0.3 0.55 1.75 0.95l4.45 0.5 4.4-0.5q1.45-0.4 1.75-0.9l0.1-0.3q0-0.7-1.85-1.2l-4.4-0.5-4.45 0.5q-1.8 0.5-1.8 1.2l0.05 0.25m-3.2 0.5q0 0.5 0.55 0.4l0.55-0.6q0.35-0.5-0.6-0.65-0.5 0.2-0.5 0.85m26.6 0.45q0.5 0.45 1.65 0.8l5.05 0.8q2.95-0.05 5.05-0.8 1.5-0.5 1.9-1.15l0.15-0.5q0-0.5-0.45-0.85-0.5-0.5-1.6-0.9-2.1-0.7-5.05-0.7-3 0-5.05 0.7-0.85 0.3-1.35 0.65-0.75 0.5-0.7 1.1-0.05 0.45 0.4 0.85" fill="#ff0" fill-rule="evenodd"/>
<path d="m277.45 181.6v5.1q-1.55 3.95-2.6 7.75v1.1l-1.8-0.55q-1.5 0.2-0.95 1.35 1.1 2 2.75 0.9v1l-1.65 2.45q-1.45 2.55-2.1 1.7-0.5-1.25-1.2-0.7-0.9 1.9-3.15 3.65l-1.15 0.55q-0.85-1.3-1.7 0-1.85 3-3.75 2.6-0.55-0.9-1.6-0.4-1.3 0.9-2.2 3.65-1.65 1.4-4.15 1.05l-1.8-1.4v-2.65l-1.85-5.35 1.85 2.55v-2.75l0.9-10q13.2-7.35 26.15-11.6m-15.1 8.35q-0.95 0.85 0 2.05l1.6 1.55q1.85-0.2 2.15-1.75-0.2-2.45-3.75-1.85m-9.55 7.15v0.15q0.1 0.35 0.55 0.25l0.55-0.6 0.05-0.35q-0.15-0.2-0.65-0.3-0.5 0.2-0.5 0.85m10.4-1.8q0 0.5 0.55 0.4l0.55-0.6q0.35-0.5-0.6-0.65-0.5 0.2-0.5 0.85m-2.25 5.55q0.95-1.35-1.6-1.75-1.35 0.55-1.4 2.25 0.1 1.45 1.55 1.05l1.45-1.55" fill="#e8e800" fill-rule="evenodd"/>
<path d="m302.15 217.45-0.15 2.9-3.5 0.25-0.7-1.1 1.5 0.5-0.8-1.1 1.45 1 0.95-0.25-0.85-0.65 1.5-0.65-0.2-0.9h0.8m-49.15 1.7-1.2-0.2-0.55 0.75-1.4-0.2-1.35-1.5 1.1 0.5-0.85-1.15 2.35 0.8-0.1-0.8 2.1-0.8 2.05-1.7h1.6l1.8-1.9 3.35-2.15 2.1-0.75 2.2-1.65 2.55-0.85 3-2.8 3.1-1.7v1.9h-0.55q-0.85 1.4-2.95 2l-1.8 1.3-0.85 1.2-2.45 1q-1.2 1.6-2.7 1.95l-8.85 5.2-1.1 1.2-1.2-1.2 0.6 1.55m42.1 1.1-0.85-0.95 1.2 0.9-0.35 0.05m2-0.75-1-0.1-1.65-1.25 2.65 1.35m1.1-1.15v0.5l-0.8-0.6 0.8 0.1m-51.15 0.05-0.9-1.05 1.2 0.55-0.3 0.5" fill="#093" fill-rule="evenodd"/>
<path d="m250.4 211.4 1.8 1.4q2.5 0.35 4.15-1.05 0.9-2.75 2.2-3.65 1.05-0.5 1.6 0.4 1.9 0.4 3.75-2.6 0.85-1.3 1.7 0l1.15-0.55q2.25-1.75 3.15-3.65 0.7-0.55 1.2 0.7 0.65 0.85 2.1-1.7l1.65-2.45v3.85l-24.45 14.8v-5.5" fill="#ada001" fill-rule="evenodd"/>
<path d="m303.2 200.2q-0.95 4.35 0 8.65l-0.5-0.1q-0.75-5.1 0.05-8.25 0.2-0.2 0.45-0.3" fill="#a7c569" fill-rule="evenodd"/>
<path d="m303.1 197.9 0.1 2.3q-0.95 4.35 0 8.65l-0.05 6.55q-0.4 1.15-0.45 2.05h-0.55l-0.15 2.9-3.5 0.25-1.4-0.25q-1.95 0.4-3.95 0-1 0.55-2.05 0l-3.75 0.25-5.45-0.25q-3.45 0.55-5.95 0l-0.65-2.9h-0.45v-1.5l0.95-0.8v-1.2m-22.2 4.85-0.2 0.15-0.4 0.2-1.2-0.2-0.55 0.75-1.4-0.2-2.65-0.45q-1.4 0.1-2.15-1.45l-2.9-0.65-1.2-1.3h-1.3l-1.9-0.5q-2.4-1.05-2.85-2.1l-0.75-0.1-1.6-1.45-0.55-0.9-0.5 0.4-0.95-0.8 0.4-2.15-0.8-0.35-0.65-2.2 0.65-17.35q17.25-5.05 35.25-8.5 7.25 0.6 12.05 1.95v5.1q1.35-3.4 3.05-6.85 9-1.1 17.6 0 3.35 7.65 4.85 14.6l0.15 3.45m-31.6-15.1q-6.6-2-12.35-0.05m15.7 15.5v-1m0-1.7v-1.1q1.05-3.8 2.6-7.75m-2.6 16.35v-0.95l-24.45 14.8-19.45-8.85m43.9-12.5v1.7m0 1v3.85m-21.25 16.7 1.1-1.2 8.85-5.2q1.5-0.35 2.7-1.95l2.45-1 0.85-1.2 1.8-1.3q2.1-0.6 2.95-2h0.55v-1.9m0 1.9v1l0.9 0.85 0.05 7.15m20.4-30.6q-6.8-3.25-13.65 0.35m18.8 33.75h0.8m-26.85 0h26.05" fill="none" stroke="#000" stroke-linecap="round" stroke-linejoin="round" stroke-opacity=".4" stroke-width=".05"/>
<path d="m271.5 182.8q-0.3 0.5-1.75 0.9l-4.4 0.5-4.45-0.5q-1.45-0.4-1.75-0.95m37.05 0.6q-0.4 0.65-1.9 1.15-2.1 0.75-5.05 0.8l-5.05-0.8q-1.15-0.35-1.65-0.8" fill="none" stroke="#000" stroke-linecap="round" stroke-linejoin="round" stroke-opacity=".4" stroke-width=".05"/>
<path d="m279.75 187.45q-0.5-0.7-0.1-1.35 0.95-0.9 1.3 0l0.35 0.6 0.55-0.65q7.15-1.6 14.3 0.25l1.1-0.4q1.45 0.05 1.2 0.45-0.15 0.5-0.65 0.25 1.05 0.95 1.2 1.9l-1.3 0.3q-0.95-0.45-0.95-1.15l0.05-0.4q-7.65-1.75-14.55 0l-0.2 0.5-0.25 0.55q-1.1 1.25-2 0.65l-0.15-0.1q-0.55-0.5-0.25-1l0.35-0.4" fill="#930" fill-rule="evenodd"/>
<path d="m279.75 187.45q-1.4-0.35-0.45-1.9 1.55-1 2.05-0.15 7.75-2.25 15.1 0l1.05-0.3q2.6 0.7 2.05 1.35l-0.35 0.45h-0.7l0.8 0.7-0.05 0.5-0.25 0.4q-0.15-0.95-1.2-1.9 0.5 0.25 0.65-0.25 0.25-0.4-1.2-0.45l-1.1 0.4q-7.15-1.85-14.3-0.25l-0.55 0.65-0.35-0.6q-0.35-0.9-1.3 0-0.4 0.65 0.1 1.35" fill="#bb3d00" fill-rule="evenodd"/>
<path d="m299 188.5 0.25-0.4v0.05l0.7 0.6-0.4 1.15q-1.05 0.4-2.1 0l-1.3-1.05q-6.75-1.2-13.55 0.35l-0.8 0.95q-0.25 0.55-1.3 0.3-1.25-0.2-1.1-1l0.4-0.5q0.9 0.6 2-0.65l0.25-0.55q7.15-1.45 14.7-0.1 0 0.7 0.95 1.15l1.3-0.3m-19.35 0.35-0.95-0.65q0.25-0.6 0.7-0.35-0.3 0.5 0.25 1" fill="#decd01" fill-rule="evenodd"/>
<path d="m299.25 188.1 0.05-0.5-0.8-0.7h0.7l0.35-0.45q0.55-0.65-2.05-1.35l-1.05 0.3q-7.35-2.25-15.1 0-0.5-0.85-2.05 0.15-0.95 1.55 0.45 1.9m19.25 1.05 0.25-0.4m-19.45 0.85-0.15-0.1q-0.55-0.5-0.25-1l0.35-0.4m17 0.2q0 0.7 0.95 1.15l1.3-0.3m-19.2 0.45q0.9 0.6 2-0.65l0.25-0.55 0.2-0.5q6.9-1.75 14.55 0l-0.05 0.4" fill="none" stroke="#000" stroke-linecap="round" stroke-linejoin="round" stroke-opacity=".4" stroke-width=".05"/>
<path d="m279.9 190.4q-0.5-0.7-0.1-1.35 0.95-0.9 1.3 0l0.35 0.6 0.55-0.65q7.15-1.6 14.3 0.25l1.1-0.4q1.45 0.05 1.2 0.45-0.15 0.5-0.65 0.25 1.05 0.95 1.2 1.9l-1.3 0.3q-0.95-0.45-0.95-1.15l0.05-0.4q-7.65-1.75-14.55 0l-0.2 0.5-0.25 0.55q-1.1 1.25-2 0.65l-0.15-0.1q-0.55-0.5-0.25-1l0.35-0.4" fill="#930" fill-rule="evenodd"/>
<path d="m279.9 190.4q-1.4-0.35-0.45-1.9 1.55-1 2.05-0.15 7.75-2.25 15.1 0l1.05-0.3q2.6 0.7 2.05 1.35l-0.35 0.45h-0.7l0.8 0.7-0.05 0.5-0.25 0.4q-0.15-0.95-1.2-1.9 0.5 0.25 0.65-0.25 0.25-0.4-1.2-0.45l-1.1 0.4q-7.15-1.85-14.3-0.25l-0.55 0.65-0.35-0.6q-0.35-0.9-1.3 0-0.4 0.65 0.1 1.35" fill="#bb3d00" fill-rule="evenodd"/>
<path d="m299.15 191.45 0.25-0.4v0.05l0.7 0.6-0.4 1.15q-1.05 0.4-2.1 0l-1.3-1.05q-6.75-1.2-13.55 0.35l-0.8 0.95q-0.25 0.55-1.3 0.3-1.25-0.2-1.1-1l0.4-0.5q0.9 0.6 2-0.65l0.25-0.55q7.15-1.45 14.7-0.1 0 0.7 0.95 1.15l1.3-0.3m-19.35 0.35-0.95-0.65q0.25-0.6 0.7-0.35-0.3 0.5 0.25 1" fill="#decd01" fill-rule="evenodd"/>
<path d="m299.4 191.05 0.05-0.5-0.8-0.7h0.7l0.35-0.45q0.55-0.65-2.05-1.35l-1.05 0.3q-7.35-2.25-15.1 0-0.5-0.85-2.05 0.15-0.95 1.55 0.45 1.9m19.25 1.05 0.25-0.4m-19.45 0.85-0.15-0.1q-0.55-0.5-0.25-1l0.35-0.4m17 0.2q0 0.7 0.95 1.15l1.3-0.3m-19.2 0.45q0.9 0.6 2-0.65l0.25-0.55 0.2-0.5q6.9-1.75 14.55 0l-0.05 0.4" fill="none" stroke="#000" stroke-linecap="round" stroke-linejoin="round" stroke-opacity=".4" stroke-width=".05"/>
<path d="m245.3 183.9q-0.35-0.75-0.05-1.3 0.65-0.65 0.9 0.25l0.2 0.6 0.4-0.5q4.9-0.3 9.8 2.6l0.75-0.15q1 0.3 0.8 0.6-0.1 0.4-0.4 0.15 0.7 1 0.8 1.95-0.3 0.2-0.9 0-0.65-0.55-0.65-1.2l0.05-0.35q-5.25-2.9-10-2.4l-0.1 0.4-0.2 0.45q-0.75 1-1.35 0.3l-0.1-0.15q-0.4-0.55-0.2-0.95l0.25-0.3" fill="#930" fill-rule="evenodd"/>
<path d="m245.3 183.9q-0.95-0.55-0.3-1.85 1.05-0.65 1.4 0.25 5.3-0.8 10.35 2.5l0.7-0.1q1.8 1.05 1.45 1.55l-0.25 0.35-0.5-0.1 0.55 0.8-0.05 0.4-0.15 0.4q-0.1-0.95-0.8-1.95 0.3 0.25 0.4-0.15 0.2-0.3-0.8-0.6l-0.75 0.15q-4.9-2.9-9.8-2.6l-0.4 0.5-0.2-0.6q-0.25-0.9-0.9-0.25-0.3 0.55 0.05 1.3" fill="#bb3d00" fill-rule="evenodd"/>
<path d="m258.5 188.1 0.15-0.4v0.05l0.5 0.7-0.25 0.95q-0.75 0.25-1.45-0.35l-0.9-1.15q-4.65-2.2-9.3-1.95l-0.55 0.75-0.9 0.05q-0.85-0.35-0.75-1.1l0.3-0.35q0.6 0.7 1.35-0.3l0.2-0.45q4.9-0.15 10.05 2.35 0 0.65 0.65 1.2 0.6 0.2 0.9 0m-13.25-2.95-0.65-0.75q0.15-0.5 0.45-0.2-0.2 0.4 0.2 0.95" fill="#decd01" fill-rule="evenodd"/>
<path d="m258.65 187.7 0.05-0.4-0.55-0.8 0.5 0.1 0.25-0.35q0.35-0.5-1.45-1.55l-0.7 0.1q-5.05-3.3-10.35-2.5-0.35-0.9-1.4-0.25-0.65 1.3 0.3 1.85m13.2 4.2 0.15-0.4m-13.3-2.4-0.1-0.15q-0.4-0.55-0.2-0.95l0.25-0.3m11.65 3q0 0.65 0.65 1.2 0.6 0.2 0.9 0m-13.15-2.8q0.6 0.7 1.35-0.3l0.2-0.45 0.1-0.4q4.75-0.5 10 2.4l-0.05 0.35" fill="none" stroke="#000" stroke-linecap="round" stroke-linejoin="round" stroke-opacity=".4" stroke-width=".05"/>
<path d="m239.3 185.3q-0.35-0.75-0.05-1.3 0.65-0.6 0.9 0.25l0.25 0.6 0.4-0.5q5.2-0.2 10.35 2.75l0.8-0.15q1.05 0.3 0.9 0.6-0.1 0.45-0.5 0.15 0.8 1.05 0.9 1.95l-0.95 0.05q-0.7-0.6-0.7-1.25l0.05-0.3q-5.55-3-10.55-2.55l-0.15 0.4-0.15 0.45q-0.8 0.95-1.45 0.25l-0.1-0.15q-0.4-0.5-0.2-0.9l0.25-0.35" fill="#930" fill-rule="evenodd"/>
<path d="m239.3 185.3q-1-0.55-0.3-1.85 1.1-0.6 1.45 0.25 5.6-0.7 10.95 2.65l0.75-0.1q1.9 1.1 1.5 1.6l-0.25 0.35-0.5-0.1 0.55 0.75-0.05 0.45-0.15 0.35q-0.1-0.9-0.9-1.95 0.4 0.3 0.5-0.15 0.15-0.3-0.9-0.6l-0.8 0.15q-5.15-2.95-10.35-2.75l-0.4 0.5-0.25-0.6q-0.25-0.85-0.9-0.25-0.3 0.55 0.05 1.3" fill="#bb3d00" fill-rule="evenodd"/>
<path d="m253.25 189.65 0.15-0.35v0.05l0.55 0.7-0.3 0.95q-0.75 0.25-1.55-0.35l-0.95-1.2q-4.85-2.25-9.8-2.05l-0.55 0.75q-0.2 0.45-0.95 0-0.9-0.35-0.8-1.05l0.3-0.4q0.65 0.7 1.45-0.25l0.15-0.45q5.2-0.1 10.65 2.45 0 0.65 0.7 1.25l0.95-0.05m-14-3.1-0.7-0.75q0.15-0.5 0.5-0.15-0.2 0.4 0.2 0.9" fill="#decd01" fill-rule="evenodd"/>
<path d="m253.4 189.3 0.05-0.45-0.55-0.75 0.5 0.1 0.25-0.35q0.4-0.5-1.5-1.6l-0.75 0.1q-5.35-3.35-10.95-2.65-0.35-0.85-1.45-0.25-0.7 1.3 0.3 1.85m13.95 4.35 0.15-0.35m-14.05-2.6-0.1-0.15q-0.4-0.5-0.2-0.9l0.25-0.35m12.3 3.15q0 0.65 0.7 1.25l0.95-0.05m-13.9-2.95q0.65 0.7 1.45-0.25l0.15-0.45 0.15-0.4q5-0.45 10.55 2.55l-0.05 0.3" fill="none" stroke="#000" stroke-linecap="round" stroke-linejoin="round" stroke-opacity=".4" stroke-width=".05"/>
</g>
</defs>
</svg>
