<?xml version="1.0" encoding="UTF-8"?>
<svg version="1.1" viewBox="0 0 15.55 33.432" xmlns="http://www.w3.org/2000/svg" xmlns:cc="http://creativecommons.org/ns#" xmlns:dc="http://purl.org/dc/elements/1.1/" xmlns:rdf="http://www.w3.org/1999/02/22-rdf-syntax-ns#" xmlns:xlink="http://www.w3.org/1999/xlink">
<metadata>
<rdf:RDF>
<cc:Work rdf:about="">
<dc:format>image/svg+xml</dc:format>
<dc:type rdf:resource="http://purl.org/dc/dcmitype/StillImage"/>
</cc:Work>
</rdf:RDF>
</metadata>
<g transform="translate(-314.22 -180.72)">
<use transform="translate(314.25,180.75)" width="15.5" height="33.400002" xlink:href="#a"/>
</g>
<defs>
<g id="a" transform="translate(-314.25,-180.75)">
<path d="m323.05 180.75q1 1.15 1.3 2.55l0.05 0.15 0.3 6.85v0.2q0.15 4.2 0.55 7.45v0.15q0.45 7 3.3 10.75l1.1 0.9h-1.7v-0.05q-3.65-3.1-4.25-7.3-0.6 4.4 1.15 7.8l-0.05 0.05-0.2 0.3-0.05 0.45v0.2q-0.2 0.95-1.05 1.2l-1.4 0.2h-0.1q-2.4-4.45-2.45-15.25-2.5 8.6-1.6 15.65l-0.2 0.15-0.65 0.3q-2.55-2.7-2.85-6.15l0.1-1.15 0.65-7.2 0.6-7.3q0.15-4.05-0.5-7.3 4.9-1.1 7.95-3.6" fill-rule="evenodd"/>
<path d="m329.65 209.75h0.05l0.05 0.05-0.15-0.05h0.05m-1.7 0h-0.65l0.65-0.05v0.05m-3.05 0.45-0.1 0.05 0.05-0.05h0.05" fill="#555ba0" fill-rule="evenodd"/>
<path d="m327.3 209.75-2.35 0.45h-0.1q-1.75-3.4-1.15-7.8 0.6 4.2 4.25 7.3l-0.65 0.05m-5.3 2.85h-1.45l-2.6 0.4q-0.9-7.05 1.6-15.65 0.05 10.8 2.45 15.25" fill="#2d2d2d" fill-rule="evenodd"/>
<path d="m317.1 213.45 0.65 0.6 0.05 0.05q-2.35 0.2-3.55-0.85v-5.95q0.3 3.45 2.85 6.15" fill="#a7a7a7" fill-rule="evenodd"/>
<path d="m323.05 180.75q1 1.15 1.3 2.55l0.05 0.15 0.3 6.85v0.2q0.15 4.2 0.55 7.45v0.15q0.45 7 3.3 10.75l1.1 0.9h0.05l0.05 0.05-0.15-0.05h-2.3l-2.35 0.45h-0.05m-0.1 0.05-0.2 0.3-0.05 0.45v0.2q-0.2 0.95-1.05 1.2l-1.4 0.2h-1.55l-2.6 0.4-0.2 0.15-0.65 0.3 0.65 0.6 0.05 0.05q-2.35 0.2-3.55-0.85m10.6-3.05-0.05 0.05m-7.7 3.2q-2.55-2.7-2.85-6.15" fill="none" stroke="#0f121c" stroke-linecap="round" stroke-linejoin="round" stroke-width=".05"/>
</g>
</defs>
</svg>
