<?xml version="1.0" encoding="UTF-8"?>
<svg version="1.1" viewBox="0 0 12.55 15.25" xmlns="http://www.w3.org/2000/svg" xmlns:cc="http://creativecommons.org/ns#" xmlns:dc="http://purl.org/dc/elements/1.1/" xmlns:rdf="http://www.w3.org/1999/02/22-rdf-syntax-ns#" xmlns:xlink="http://www.w3.org/1999/xlink">
<metadata>
<rdf:RDF>
<cc:Work rdf:about="">
<dc:format>image/svg+xml</dc:format>
<dc:type rdf:resource="http://purl.org/dc/dcmitype/StillImage"/>
</cc:Work>
</rdf:RDF>
</metadata>
<g transform="translate(-268.68 -192.32)">
<use transform="translate(268.7,192.35)" width="12.5" height="15.2" xlink:href="#a"/>
</g>
<defs>
<g id="a" transform="translate(-268.7,-192.35)">
<path d="m275.65 192.4q2.15 0.25 3.7 2.15 1.85 2.25 1.85 5.4t-1.85 5.35l-1.05 1.1-3.35-0.2-1.35-0.75-1.2-2.15q-0.85-2.95-1.05-6.15l1.8-2.9 2.05-1.9 0.45 0.05" fill="#d1a94b" fill-rule="evenodd"/>
<path d="m275.2 192.35-2.05 1.9-1.8 2.9q0.2 3.2 1.05 6.15l1.2 2.15 1.35 0.75 3.35 0.2q-1.45 1.15-3.35 1.15-2.6 0-4.45-2.25-1.8-2.2-1.8-5.35t1.8-5.4q1.85-2.2 4.45-2.2h0.25" fill="#7b6533" fill-rule="evenodd"/>
<path d="m278.3 206.4 1.05-1.1q1.85-2.2 1.85-5.35t-1.85-5.4q-1.55-1.9-3.7-2.15m2.65 14q-1.45 1.15-3.35 1.15-2.6 0-4.45-2.25-1.8-2.2-1.8-5.35t1.8-5.4q1.85-2.2 4.45-2.2h0.25" fill="none" stroke="#333" stroke-linecap="round" stroke-linejoin="round" stroke-width=".05"/>
<path d="m274.8 195.45-0.25 0.15-0.3-0.15-0.1-0.25 0.1-0.3 0.3-0.1 0.25 0.1 0.15 0.3-0.15 0.25" fill-rule="evenodd"/>
<path d="m276.8 195.05-0.25 0.15-0.3-0.15-0.1-0.25 0.1-0.3 0.3-0.1 0.25 0.1 0.15 0.3-0.15 0.25" fill-rule="evenodd"/>
<path d="m278.45 194.9-0.25 0.15-0.3-0.15-0.1-0.25 0.1-0.3 0.3-0.1 0.25 0.1 0.15 0.3-0.15 0.25" fill-rule="evenodd"/>
<path d="m276.9 203.45-0.25 0.15-0.3-0.15-0.1-0.25 0.1-0.3 0.3-0.1 0.25 0.1 0.15 0.3-0.15 0.25" fill-rule="evenodd"/>
<path d="m278.9 203.05-0.25 0.15-0.3-0.15-0.1-0.25 0.1-0.3 0.3-0.1 0.25 0.1 0.15 0.3-0.15 0.25" fill-rule="evenodd"/>
<path d="m276.9 205.2-0.25 0.15-0.3-0.15-0.1-0.25 0.1-0.3 0.3-0.1 0.25 0.1 0.15 0.3-0.15 0.25" fill-rule="evenodd"/>
<path d="m278.9 204.8-0.25 0.15-0.3-0.15-0.1-0.25 0.1-0.3 0.3-0.1 0.25 0.1 0.15 0.3-0.15 0.25" fill-rule="evenodd"/>
<path d="m276.55 199.85q-0.4 0.6-0.95 0.6-0.6 0-1.15-0.6-0.4-0.35-0.4-0.95 0-0.55 0.4-1.15 0.55-0.35 1.15-0.35 0.55 0 0.95 0.35 0.55 0.6 0.55 1.15 0 0.6-0.55 0.95" fill-rule="evenodd"/>
<path d="m280.1 199.4q-0.4 0.6-0.95 0.6-0.6 0-1.15-0.6-0.4-0.35-0.4-0.95 0-0.55 0.4-1.15 0.55-0.35 1.15-0.35 0.55 0 0.95 0.35 0.55 0.6 0.55 1.15 0 0.6-0.55 0.95" fill-rule="evenodd"/>
<path d="m276.95 201.85-0.25 0.15-0.3-0.15-0.1-0.25 0.1-0.3 0.3-0.1 0.25 0.1 0.15 0.3-0.15 0.25" fill-rule="evenodd"/>
<path d="m278.95 201.45-0.25 0.15-0.3-0.15-0.1-0.25 0.1-0.3 0.3-0.1 0.25 0.1 0.15 0.3-0.15 0.25" fill-rule="evenodd"/>
</g>
</defs>
</svg>
