<?xml version="1.0" encoding="UTF-8" standalone="no"?>
<!DOCTYPE svg PUBLIC "-//W3C//DTD SVG 1.1//EN" "http://www.w3.org/Graphics/SVG/1.1/DTD/svg11.dtd">
<svg width="100%" height="100%" viewBox="0 0 94 114" version="1.1" xmlns="http://www.w3.org/2000/svg" xmlns:xlink="http://www.w3.org/1999/xlink" xml:space="preserve" xmlns:serif="http://www.serif.com/" style="fill-rule:evenodd;clip-rule:evenodd;stroke-linecap:round;stroke-linejoin:round;">
    <g transform="matrix(1,0,0,1,-228.15,-143.05)">
        <g>
            <g id="shape0">
                <path d="M319.4,154.65L319.4,157.3L314.65,159.2L315,156.95L319.4,154.65M230.95,187.95C232.15,187.283 232.15,185.25 230.95,181.85L234.65,190.15L230.95,187.95M230.95,159.25L230.95,156.8L235.95,159L234.8,160.05L234.85,161.2L230.95,159.25M289.85,145.95C291.083,147.917 292.333,147.917 293.6,145.95L290.85,152.25L289.85,145.95M279.4,149.55L279.6,149.35L281.85,149.4L276.2,155.6L272.35,150.5L275.05,153.6L279.4,149.55" style="fill:#546b6b;"/>
                <path d="M319.4,157.3L319.4,191.45L316.9,194.6L319.4,196.6L319.4,206.05L319,207.1L318.6,206.5L314.6,200.4L315.05,198.3L313.75,196.45L313.75,184.7L315.5,181.8L315.25,181.2L313.75,178.25L313.75,174.9L315.2,174.25L315.55,167.55L313.75,166.2L313.75,165.25L314.65,159.2L319.4,157.3M319.4,207.7L319.4,213.75L317.3,211.4L319,207.1L319.4,207.7" style="fill:#658383;"/>
                <path d="M230.95,156.8L228.65,155.8L241,143.55L245.55,151.95L243.95,151.7L243.5,152.1L243.5,152.15L235.95,159L230.95,156.8M310.45,145.95L310.9,144.1L321.3,153.65L319.4,154.65L315,156.95L315.05,156.5L310.6,152.7L308.8,152.7L310.45,145.95M279.6,149.35L279.4,149.55L275.05,153.6L272.35,150.5L270.85,148.8L280.15,148.85L279.6,149.35M238.55,152.6L236.85,150.9L235.2,152L236.95,154.3L238.55,152.6L236.95,154.3L235.2,152L236.85,150.9L238.55,152.6M313.9,150.25L315.2,151.4L314.1,153.1L312.85,151.65L313.9,150.25L312.85,151.65L314.1,153.1L315.2,151.4L313.9,150.25" style="fill:#849f9f;"/>
                <path d="M250.75,240.2L241.95,233.25L249.7,236.05L250.75,240.2M234.2,227.1L230.95,224.5L230.95,187.95L234.65,190.15L230.95,181.85L230.95,159.25L234.85,161.2L235.1,168.75L236,169.3L236,171.3L234.8,171.85L234.8,174.7L234.75,177.05L234.75,177.15L235.8,178.25L236,178.45L236,181.25C236.733,186.517 236.733,191.183 236,195.25L236,198.65L235.9,198.95L234.3,203.45L234.3,203.55L236,206.6L236,208.25L233.2,208.5L233,214.6L232.85,217.8L232.7,221.7L232.7,222.2L232.75,222.35L232.95,223.05L234.2,227.1M242.3,145.95L289.85,145.95L290.85,152.25L293.6,145.95L310.45,145.95L308.8,152.7L296.6,152.7C296.2,153.367 295.617,153.367 294.85,152.7L291.05,152.7L283.4,154.85L282.7,155.05L281.9,155.25L279.4,155.95L275.7,157L269.9,155.35L267.05,154.55L260.5,152.7L251.1,152.7L245.55,151.95L242.3,145.95M279.6,149.35L280.15,148.85L270.85,148.8L272.35,150.5L276.2,155.6L281.85,149.4L279.6,149.35" style="fill:#cfdada;"/>
                <path d="M291.05,152.7L294.85,152.7L295.15,153.7L283.4,154.85L291.05,152.7M296.6,152.7L307.5,152.7L307.8,154.5L296.7,154.55L296.6,152.7M298,163.1L302.05,163.7L296.5,164.4L288.1,168.85L288.7,167.6L289.25,167.15L291.1,165.7L291.2,165.65L297.45,162.9L298,163.1M243.5,152.15L243.5,152.1L244.65,152.9L235.7,160.7L236.05,168.25L237.5,170.25L236,169.3L235.1,168.75L234.85,161.2L234.8,160.05L235.95,159L243.5,152.15M251.75,162.75L251.8,162.7L253.1,163.6L234.8,172.95L234.8,171.85L236,171.3L237.6,170.45L237.7,170.4L251.75,162.75M269.9,155.35L275.7,157L279.4,155.95L279.55,156.95L276.95,158.55L269.9,155.35M250.25,206.9L236.05,210.6L233,214.6L233.2,208.5L236,208.25L236.75,208.2L250.25,206.9" style="fill:#fcffd1;"/>
                <path d="M241.95,233.25L235.35,230.85L234.2,227.1L232.95,223.05L232.85,222.4L241.15,225.25L241.65,221.55L242.9,225.3L256.2,225L256.8,224.05L304.35,214.8L304.9,210.9L307,213.9L318.6,206.5L319,207.1L317.3,211.4L313.75,220.3L312.95,222.4L310.1,229.6L304.55,228.7L300.25,228.25L294.7,228L294.4,228C289.3,227.933 284.3,228.35 279.4,229.25C271.267,230.717 263.417,233.45 255.85,237.45L254.45,237.75L249.7,236.05L241.95,233.25M295.15,153.7L294.85,152.7C295.617,153.367 296.2,153.367 296.6,152.7L296.7,154.55L296.85,159.1L296.85,159.2L296.4,157.75L295.15,153.7M257.1,166.5L256.25,161.3L251.1,152.7L252.65,152.7L257.1,160.15L259.45,168.25L257.1,166.5M279.4,155.95L280.65,155.6L280.75,159.35L280.75,160.75L280.75,159.35L290.65,165.35L287.7,163.95L280.75,160.75L279.95,160.35L280.45,160.6L277.65,166.8L277.8,166.9L272.3,174.35L272.25,174.3L272.2,174.3L268.85,173.7L266.45,173.25L261.05,169.4L267.5,170.2L272.2,174.3L274.4,170.45L274.4,170.4L276.95,165.95L279.9,160.35L279.95,160.35L279.55,156.95L279.4,155.95M271.5,180.7L271.35,181.75L262.3,181.6L266,190L265,196.5L262.95,199.5C263.283,197.967 263.45,196.367 263.45,194.7C263.483,190.633 262.617,186.133 260.85,181.2L261,181.3L261.35,181.55L262.45,180.45L271.5,180.7M259.65,204.45L261.6,207.6L273.75,208.35L285.85,205.35L288.65,201.8L289.15,202.2L291.8,204.65L284.45,210.3C277.583,212 270.667,212.45 263.7,211.65L260.55,209.75L257.45,207.85L258.55,206.1L259.65,204.45M283.25,196.8L283.05,196.6L281.75,189.45L285.25,180.75L286.35,178.75L287.35,180.95L287.15,181.2L286.6,182.85C284.933,187.983 284.283,192.65 284.65,196.85L283.25,196.8M249.5,174.9L250.3,174.7C248.7,175.833 247.367,177.183 246.3,178.75C242.833,183.683 241.9,190.717 243.5,199.85L242.4,199.75L241.05,192.7L242.05,183.8L245.15,178.35L249.5,174.9M273.8,189.1L277.3,191.95C274.3,191.55 271.133,191.983 267.8,193.25L269.3,189.75L273.8,189.1M268.65,187.55L268.95,184.8L272.05,184.4L273.85,187.1L268.65,187.55M262.3,181.6L261.35,181.55L262.3,181.6M311.4,174.2L311.8,174.35L313.75,178.25L315.25,181.2L309.95,183.9L305.95,184.6L304.65,184.85L305.95,184.6L306.7,188.15L305.2,188.3L304.65,184.85L303.9,182.15L303.75,181.7L302.65,179.3L311.4,174.2M277.65,166.8L276.95,165.95L277.65,166.8M298.3,233.45L297,234.4L288.05,241.15L285.65,240.2L285.45,240.15L283.85,237.25L285.45,240.15L285.65,240.2L285.65,242.95L278.55,248.3L277.2,247.95L276.25,247.75L276.55,248.2L276.55,248.35L271.4,248.35L270.85,249.3L266.5,245.85L271,246L273.4,243.35L273.8,243.95L277.65,245.3L283.45,242.1L283.85,237.25L283.65,236.95L282.6,235L282.35,234.6L288.15,237.35L297.4,233.5L298.3,233.45M297.4,233.5L297,234.4L297.4,233.5M276.25,247.75L273.8,243.95L276.25,247.75" style="fill:#615f49;"/>
                <path d="M283.4,154.85L295.15,153.7L296.4,157.75L291.65,161.55L282.5,157.85L281.9,155.25L282.7,155.05L283.4,154.85M307.5,152.7L309,152.7L310.25,160.8L297.8,159.1L296.85,159.1L296.7,154.55L307.8,154.5L307.5,152.7M302.05,163.7L302.8,163.8L312.65,165.3L312.95,165.55L313.15,165.7L313.35,169.5L298.35,166.25L286.9,171.8L284.3,176.6L283.9,173.05L284.2,172.4L285,170.55L288.7,167.6L288.1,168.85L296.5,164.4L302.05,163.7M244.65,152.9L250.5,157L251.75,162.75L237.7,170.4L237.5,170.25L236.05,168.25L235.7,160.7L244.65,152.9M253.1,163.6L257.1,166.5L259.45,168.25L261.05,169.4L266.45,173.25L268.85,173.7L265.65,174.4L254,166.15L244.35,169.35L234.8,174.7L234.8,172.95L253.1,163.6M257.7,152.7L260.5,152.7L267.05,154.55L269.9,155.35L276.95,158.55L279.55,156.95L279.95,160.35L279.9,160.35L276.95,165.95L274.4,170.4L269.35,166.9L263.05,166.3L263.15,158.9L257.7,152.7M274.35,175.95L274.65,173.4L278.2,173.55L277,175.65L274.35,175.95M268.1,196.7C270.433,195.533 272.9,195.283 275.5,195.95L275.75,205.5L266.55,206.95L261.75,204.7L267.75,196.9L268.1,196.7M287.7,163.95L281.4,164.7L277.8,166.95L277.8,166.9L277.65,166.8L280.45,160.6L280.75,160.75L287.7,163.95M260.55,209.75L264.65,214.75L238.25,215.15L232.85,217.8L233,214.6L236.05,210.6L250.25,206.9L251,206.85L258.55,206.1L257.45,207.85L260.55,209.75M304.85,200.8L308.15,203.85L304.1,204.65L298.85,208.7L299.55,204.75L294.45,201.05L297.75,200.35L297.8,200.35L302.1,201.25L304.3,200.9L304.4,200.95L304.65,200.85L304.85,200.8" style="fill:#c8ccb0;"/>
                <path d="M315,156.95L314.65,159.2L313.75,165.25L313.75,166.2L313.15,165.7L313.75,166.2L315.55,167.55L315.2,174.25L313.75,174.9L313.3,174.95L311.8,174.35L311.4,174.2L298.55,169.1L289.3,173.4L286.35,178.75L285.25,180.75L281.75,189.45L283.05,196.6L283.25,196.8L288.65,201.8L283.25,196.8L284.65,196.85L300.35,197.5L300.3,198.35L297.8,200.35L300.3,198.35L300.25,200.35L301.45,200.4L304.3,200.9L302.1,201.25L297.8,200.35L297.75,200.35L294.45,201.05L289.15,202.2L294.45,201.05L299.55,204.75L298.85,208.7L304.1,204.65L308.15,203.85L304.85,200.8L312.05,198L312.9,197.85L314.6,200.4L312.9,197.85L312.05,198L310.55,187.85L306.75,188.15L306.7,188.15L305.95,184.6L309.95,183.9L315.25,181.2L315.5,181.8L313.75,184.7L312.8,186.3L312.6,195.05L313.75,196.45L315.05,198.3L314.6,200.4L318.6,206.5L307,213.9L304.9,210.9L304.35,214.8L256.8,224.05L256.2,225L242.9,225.3L241.65,221.55L241.15,225.25L232.85,222.4L232.7,221.7L232.85,217.8L238.25,215.15L264.65,214.75L260.55,209.75L263.7,211.65C270.667,212.45 277.583,212 284.45,210.3L291.8,204.65L289.15,202.2L288.65,201.8L285.85,205.35L273.75,208.35L261.6,207.6L259.65,204.45L261.95,201.05L259.65,204.45L258.55,206.1L251,206.85L250.25,206.9L236.75,208.2L236,206.6L234.3,203.55L234.3,203.45L235.9,198.95L236,198.95L236.2,199L237.8,197.65L236,195.25C236.733,191.183 236.733,186.517 236,181.25L237.95,179.1L236.15,178.2L249.5,174.9L245.15,178.35L242.05,183.8L241.05,192.7L242.4,199.75L236.2,199L242.4,199.75L243.5,199.85C248.5,200.25 253.45,200.283 258.35,199.95L261.05,199.7L261.95,201.05L262.95,199.5L265,196.5L266,190L262.3,181.6L271.35,181.75L271.5,180.7L271.55,180.15L273.75,181.45L277,175.65L273.75,181.45L271.55,180.15L271.5,180.7L262.45,180.45C259.983,177.483 256.617,174.65 252.35,171.95L234.75,177.05L234.8,174.7L244.35,169.35L254,166.15L265.65,174.4L268.85,173.7L272.2,174.3L267.5,170.2L261.05,169.4L259.45,168.25L257.1,160.15L252.65,152.7L257.7,152.7L263.15,158.9L263.05,166.3L269.35,166.9L274.4,170.4L274.4,170.45L272.2,174.3L272.25,174.3L272.2,174.45L272.3,174.35L277.8,166.9L277.8,166.95L281.4,164.7L287.7,163.95L290.65,165.35L291.15,165.6L290.65,165.35L280.75,159.35L280.65,155.6L281.9,155.25L282.5,157.85L291.65,161.55L296.4,157.75L296.85,159.2L296.85,159.1L297.8,159.1L310.25,160.8L309,152.7L310.6,152.7L315.05,156.5L315,156.95M297.9,162.7L296.85,159.2L297.9,162.7L297.45,162.9L291.2,165.65L291.2,165.6L291.15,165.6L291.1,165.7L289.25,167.15L288.7,167.6L285,170.55L284.2,172.4L283.9,173.05L284.3,176.6L286.9,171.8L298.35,166.25L313.35,169.5L313.15,165.7L312.95,165.55L312.65,165.3L302.8,163.8L302.05,163.7L298,163.1L297.9,162.7M243.5,152.1L243.95,151.7L245.55,151.95L251.1,152.7L256.25,161.3L257.1,166.5L253.1,163.6L251.8,162.7L251.75,162.75L250.5,157L244.65,152.9L243.5,152.1M245.8,169.85C247.7,170.083 249.883,170.783 252.35,171.95C249.883,170.783 247.7,170.083 245.8,169.85M277,175.65L278.2,173.55L274.65,173.4L274.35,175.95L277,175.65M281.7,195.35L283.05,196.6L281.7,195.35M273.8,189.1L269.3,189.75L267.8,193.25C271.133,191.983 274.3,191.55 277.3,191.95L273.8,189.1M268.65,187.55L273.85,187.1L272.05,184.4L268.95,184.8L268.65,187.55M268.1,196.7L267.75,196.9L261.75,204.7L266.55,206.95L275.75,205.5L275.5,195.95C272.9,195.283 270.433,195.533 268.1,196.7M272.2,174.45L271.55,180.15L272.2,174.45M273.75,181.45L274.35,175.95L273.75,181.45M283.55,173.8L277.8,166.95L283.55,173.8L283.6,173.85L283.6,173.8L283.55,173.8L281.45,175.3L283.55,173.8M283.9,173.05L283.6,173.8L283.9,173.05M281.5,175.35L281.45,175.3L281.1,175.55L281.5,175.35L279.9,180.8L283.15,183.05L279.9,184.15L275.65,181.7L277.7,177.05L281.1,175.55L277.7,177.05L275.65,181.7L279.9,184.15L283.15,183.05L279.9,180.8L281.5,175.35" style="fill:#8a8b6d;"/>
                <path d="M236,169.3L237.5,170.25L237.7,170.4L237.6,170.45L236,171.3L236,169.3M236,178.45L236,178.2L236.15,178.2L237.95,179.1L236,181.25L236,178.45M236,198.95L236,195.25L237.8,197.65L236.2,199L236,198.95M311.8,174.35L313.3,174.95L313.75,174.9L313.75,178.25L311.8,174.35M313.75,196.45L312.6,195.05L312.8,186.3L313.75,184.7L313.75,196.45M312.95,222.4L313.75,220.3L313.75,221.75L312.95,222.4M278.55,248.3L277.6,249L277.35,248.35L276.55,248.35L276.55,248.2L276.25,247.75L277.2,247.95L278.55,248.3M277.2,247.95L277.35,248.35L277.2,247.95M236.75,208.2L236,208.25L236,206.6L236.75,208.2" style="fill:#495f5f;"/>
                <path d="M234.75,177.05L252.35,171.95C256.617,174.65 259.983,177.483 262.45,180.45L261.35,181.55L261,181.3L260.85,181.2L260.7,181C258.3,177.967 255.4,175.8 252,174.5L250.3,174.7L249.5,174.9L236.15,178.2L236,178.2L235.8,178.25L234.75,177.15L234.75,177.05M286.35,178.75L289.3,173.4L298.55,169.1L311.4,174.2L302.65,179.3C301.383,177.067 299.733,175.533 297.7,174.7C293.867,175.033 290.417,177.117 287.35,180.95L286.35,178.75M304.55,228.7L298.3,233.45L297.4,233.5L288.15,237.35L282.35,234.6L282.2,234.3L281.85,233.7L279.7,235.65L282.6,235L283.65,236.95L283.85,237.25L283.45,242.1L277.65,245.3L273.8,243.95L273.4,243.35L270.8,239.3L273.4,243.35L271,246L266.5,245.85L261.35,241.8L266.5,238.6L259.9,240.65L255.85,237.45C263.417,233.45 271.267,230.717 279.4,229.25L281.85,233.7L279.4,229.25C284.3,228.35 289.3,227.933 294.4,228L294.7,228L298.25,230.95L298.45,231.15L297.4,233.5L298.45,231.15L298.25,230.95L294.7,228L300.25,228.25L304.55,228.7M269.8,237.75L266.5,238.6L269.8,237.75L270.8,239.3L271.25,237.45L269.8,237.75M279.7,235.65L271.25,237.45L279.7,235.65M300.25,228.25L298.25,230.95L300.25,228.25" style="fill:#43442a;"/>
                <path d="M262.95,199.5L261.95,201.05L261.05,199.7L258.35,199.95C260.75,199.017 262.45,197.267 263.45,194.7C263.45,196.367 263.283,197.967 262.95,199.5M250.3,174.7L252,174.5C255.4,175.8 258.3,177.967 260.7,181C256,178.933 251.2,178.183 246.3,178.75C247.367,177.183 248.7,175.833 250.3,174.7M302.65,179.3L303.75,181.7C302.917,180.267 301.55,179.15 299.65,178.35C296.017,177.883 293.067,178.433 290.8,180L290.25,180.15L286.7,182.55L287.15,181.2L287.35,180.95C290.417,177.117 293.867,175.033 297.7,174.7C299.733,175.533 301.383,177.067 302.65,179.3M291.5,178.65L290.8,180L291.5,178.65" style="fill:#9b884a;"/>
                <path d="M260.7,181L260.85,181.2C262.617,186.133 263.483,190.633 263.45,194.7C262.45,197.267 260.75,199.017 258.35,199.95C253.45,200.283 248.5,200.25 243.5,199.85C241.9,190.717 242.833,183.683 246.3,178.75C251.2,178.183 256,178.933 260.7,181M246.15,197L245.75,194.9L245.55,191.65C245.583,187.65 246.667,183.7 248.8,179.8C246.667,183.7 245.583,187.65 245.55,191.65L245.75,194.9L246.15,197M259.6,190.65L259.95,190.1C260.25,189.467 260.4,188.717 260.4,187.85C260.4,187.017 260.25,186.3 259.95,185.7C259.65,185.067 259.267,184.767 258.8,184.8C258.433,184.8 258.117,185.017 257.85,185.45L257.85,185.4L257.65,185.35C257.017,185.35 256.467,185.867 256,186.9C255.567,187.933 255.35,189.183 255.35,190.65C255.35,192.117 255.567,193.367 256,194.4L256.15,194.7C256.583,195.533 257.083,195.95 257.65,195.95C258.283,195.95 258.817,195.433 259.25,194.4L259.35,194.2C259.75,193.2 259.95,192.017 259.95,190.65L259.95,190.2L259.6,190.65M303.75,181.7L303.9,182.15L304.65,184.85L305.2,188.3L304.05,188.4L303.05,188.8L301.9,189.25L300.5,189.8L300.35,197.5L284.65,196.85C284.283,192.65 284.933,187.983 286.6,182.85L286.7,182.55L290.25,180.15L290.8,180C289.133,183.467 288.283,186.967 288.25,190.5L288.45,193.75L288.85,195.85L288.45,193.75L288.25,190.5C288.283,186.967 289.133,183.467 290.8,180C293.067,178.433 296.017,177.883 299.65,178.35C301.55,179.15 302.917,180.267 303.75,181.7M291.15,185.15L291.2,184.8L291,184.75C290.367,184.75 289.817,185.267 289.35,186.3C288.917,187.333 288.7,188.583 288.7,190.05C288.7,191.517 288.917,192.767 289.35,193.8L290.1,194.95C290.367,195.217 290.667,195.35 291,195.35L291.65,195.15L292.6,193.8C293.067,192.767 293.3,191.517 293.3,190.05L293.3,189.65L293.45,189.45C293.75,188.817 293.9,188.067 293.9,187.2C293.9,186.367 293.75,185.65 293.45,185.05C293.15,184.417 292.767,184.117 292.3,184.15C291.833,184.15 291.467,184.467 291.2,185.1L291.15,185.15" style="fill:#e3caac;"/>
                <path d="M259.6,190.65L259.95,190.2L259.95,190.65C259.95,192.017 259.75,193.2 259.35,194.2L259.25,194.4C258.817,195.433 258.283,195.95 257.65,195.95C257.083,195.95 256.583,195.533 256.15,194.7L256,194.4C255.567,193.367 255.35,192.117 255.35,190.65C255.35,189.183 255.567,187.933 256,186.9C256.467,185.867 257.017,185.35 257.65,185.35L257.85,185.4L257.85,185.45L257.7,185.75C257.367,186.35 257.217,187.083 257.25,187.95C257.217,188.783 257.367,189.517 257.7,190.15C257.967,190.75 258.333,191.05 258.8,191.05L259.6,190.65M293.3,189.65L293.3,190.05C293.3,191.517 293.067,192.767 292.6,193.8L291.65,195.15L291,195.35C290.667,195.35 290.367,195.217 290.1,194.95L289.35,193.8C288.917,192.767 288.7,191.517 288.7,190.05C288.7,188.583 288.917,187.333 289.35,186.3C289.817,185.267 290.367,184.75 291,184.75L291.2,184.8L291.15,185.15C290.85,185.75 290.717,186.467 290.75,187.3C290.717,188.133 290.867,188.867 291.2,189.5C291.467,190.1 291.833,190.4 292.3,190.4C292.7,190.367 293.033,190.117 293.3,189.65"/>
                <path d="M303.05,188.8L304.05,188.4L305.2,188.3L306.7,188.15L306.75,188.15L310.55,187.85L312.05,198L304.85,200.8L304.65,200.85L304.4,200.95L303.95,190.15L303.05,188.8" style="fill:#a56e01;"/>
                <path d="M301.9,189.25L303.05,188.8L303.95,190.15L304.4,200.95L304.3,200.9L301.45,200.4L301.15,190.1L301.9,189.25" style="fill:#c90;"/>
                <path d="M300.35,197.5L300.5,189.8L301.9,189.25L301.15,190.1L301.45,200.4L300.25,200.35L300.3,198.35L300.35,197.5" style="fill:#cac502;"/>
                <path d="M319.4,213.75L319.4,224.5L280.35,254L281.4,255.5C276.867,256.7 272.133,256.717 267.2,255.55L268.15,253.95L250.75,240.2L249.7,236.05L254.45,237.75L255.85,237.45L259.9,240.65L261.35,241.8L266.5,245.85L270.85,249.3L271.4,248.35L277.35,248.35L277.6,249L278.55,248.3L285.65,242.95L288.05,241.15L297,234.4L298.3,233.45L304.55,228.7L310.1,229.6L312.95,222.4L313.75,221.75L313.75,220.3L317.3,211.4L319.4,213.75M280.35,254L277.6,249L280.35,254M268.15,253.95L270.85,249.3L268.15,253.95M274.65,252.05L273.1,251.9L272.6,254.45L275.25,253.95L274.65,252.05L275.25,253.95L272.6,254.45L273.1,251.9L274.65,252.05" style="fill:#506767;"/>
                <path d="M288.05,241.15L285.65,242.95L285.65,240.2L288.05,241.15M282.35,234.6L282.6,235L279.7,235.65L281.85,233.7L282.2,234.3L282.35,234.6M259.9,240.65L266.5,238.6L261.35,241.8L259.9,240.65M269.8,237.75L271.25,237.45L270.8,239.3L269.8,237.75" style="fill:#384949;"/>
                <path d="M257.85,185.45C258.117,185.017 258.433,184.8 258.8,184.8C259.267,184.767 259.65,185.067 259.95,185.7C260.25,186.3 260.4,187.017 260.4,187.85C260.4,188.717 260.25,189.467 259.95,190.1L259.6,190.65L258.8,191.05C258.333,191.05 257.967,190.75 257.7,190.15C257.367,189.517 257.217,188.783 257.25,187.95C257.217,187.083 257.367,186.35 257.7,185.75L257.85,185.45M293.3,189.65C293.033,190.117 292.7,190.367 292.3,190.4C291.833,190.4 291.467,190.1 291.2,189.5C290.867,188.867 290.717,188.133 290.75,187.3C290.717,186.467 290.85,185.75 291.15,185.15L291.2,185.1C291.467,184.467 291.833,184.15 292.3,184.15C292.767,184.117 293.15,184.417 293.45,185.05C293.75,185.65 293.9,186.367 293.9,187.2C293.9,188.067 293.75,188.817 293.45,189.45L293.3,189.65" style="fill:#fff;"/>
                <path d="M319.4,154.65L319.4,191.45L316.9,194.6L319.4,196.6L319.4,224.5L280.35,254L281.4,255.5C276.867,256.7 272.133,256.717 267.2,255.55L268.15,253.95L250.75,240.2L241.95,233.25L235.35,230.85L234.2,227.1L230.95,224.5L230.95,187.95C232.15,187.283 232.15,185.25 230.95,181.85L230.95,156.8L228.65,155.8L241,143.55L242.3,145.95L289.85,145.95C291.083,147.917 292.333,147.917 293.6,145.95L310.45,145.95L310.9,144.1L321.3,153.65L319.4,154.65" style="fill:none;fill-rule:nonzero;stroke:#000;stroke-opacity:0.8;stroke-width:1px;"/>
                <path d="M319.4,154.65L315,156.95L314.65,159.2L313.75,165.25L313.75,165.55M291.05,152.7L283.4,154.85M295.15,153.7L294.85,152.7M308.8,152.7L310.45,145.95M279.6,149.35L280.15,148.85L270.85,148.8L272.35,150.5L275.05,153.6L279.4,149.55M310.6,152.7L315.05,156.5L315,156.95M296.85,159.1L296.85,159.2L297.9,162.7L298,163.1L302.05,163.7M302.8,163.8L312.65,165.3L312.95,165.55M313.15,165.7L313.75,166.2L315.55,167.55L315.2,174.25L313.75,174.9L313.3,174.95L311.8,174.35L313.75,178.25L315.25,181.2L309.95,183.9L305.95,184.6L304.65,184.85M313.9,150.25L312.85,151.65L314.1,153.1L315.2,151.4L313.9,150.25M238.55,152.6L236.95,154.3L235.2,152L236.85,150.9L238.55,152.6M243.5,152.1L243.95,151.7L245.55,151.95L242.3,145.95M251.75,162.75L251.8,162.7L253.1,163.6L257.1,166.5L256.25,161.3L251.1,152.7L245.55,151.95M260.5,152.7L267.05,154.55M269.9,155.35L275.7,157L279.4,155.95L281.9,155.25L282.7,155.05M261.05,169.4L259.45,168.25L257.1,166.5M268.85,173.7L266.45,173.25L261.05,169.4L267.5,170.2L272.2,174.3L274.4,170.45M272.2,174.3L272.25,174.3L272.2,174.3L268.85,173.7M234.8,174.7L234.75,177.05L234.75,177.15L235.8,178.25L236,178.45M252.35,171.95C249.883,170.783 247.7,170.083 245.8,169.85M277,175.65L278.2,173.55L274.65,173.4L274.35,175.95L273.75,181.45L271.55,180.15L271.5,180.7L271.35,181.75M277,175.65L273.75,181.45M262.3,181.6L266,190L265,196.5L262.95,199.5L261.95,201.05L259.65,204.45L258.55,206.1L257.45,207.85L260.55,209.75L263.7,211.65C270.667,212.45 277.583,212 284.45,210.3L291.8,204.65L289.15,202.2L288.65,201.8L283.25,196.8L283.05,196.6L281.7,195.35M272.25,174.3L272.2,174.45L272.3,174.35L277.8,166.9L277.8,166.95L283.55,173.8L283.6,173.85L283.6,173.8L283.9,173.05M252.65,152.7L257.1,160.15L259.45,168.25M237.5,170.25L236,169.3L235.1,168.75L234.85,161.2L234.8,160.05L235.95,159L230.95,156.8M236,171.3L237.6,170.45L237.7,170.4L237.5,170.25M236,178.2L235.8,178.25M236,181.25L237.95,179.1L236.15,178.2L236,178.2M250.3,174.7L252,174.5M260.85,181.2L261,181.3L261.35,181.55L262.3,181.6M249.5,174.9L250.3,174.7M249.5,174.9L236.15,178.2M251.75,162.75L237.7,170.4M236,198.65L235.9,198.95L234.3,203.45L234.3,203.55L236,206.6L236.75,208.2L236,208.25L233.2,208.5L233,214.6L232.85,217.8L232.7,221.7L232.85,222.4L232.95,223.05L234.2,227.1M236,195.25L237.8,197.65L236.2,199L242.4,199.75L243.5,199.85C248.5,200.25 253.45,200.283 258.35,199.95L261.05,199.7L261.95,201.05M236,198.95L236.2,199M273.8,189.1L277.3,191.95C274.3,191.55 271.133,191.983 267.8,193.25L269.3,189.75L273.8,189.1M271.55,180.15L272.2,174.45M296.7,154.55L296.85,159.1M296.85,159.2L296.4,157.75L295.15,153.7M297.45,162.9L297.9,162.7M298,163.1L297.45,162.9L291.2,165.65L291.1,165.7L289.25,167.15M311.4,174.2L311.8,174.35M286.35,178.75L289.3,173.4L298.55,169.1L311.4,174.2M291.15,165.6L290.65,165.35L287.7,163.95L280.75,160.75L280.75,159.35L290.65,165.35M291.1,165.7L291.2,165.6L291.15,165.6M280.75,159.35L280.65,155.6M279.55,156.95L279.4,155.95M279.55,156.95L279.95,160.35L280.75,160.75M279.95,160.35L279.9,160.35L276.95,165.95L277.65,166.8L280.45,160.6M277.65,166.8L277.8,166.9M281.5,175.35L279.9,180.8L283.15,183.05L279.9,184.15L275.65,181.7L277.7,177.05L281.1,175.55L283.55,173.8M281.1,175.55L281.5,175.35M288.7,167.6L285,170.55L284.2,172.4M284.65,196.85L300.35,197.5L300.5,189.8L301.9,189.25L303.05,188.8L304.05,188.4L305.2,188.3L306.7,188.15M286.35,178.75L285.25,180.75L281.75,189.45L283.05,196.6M283.25,196.8L284.65,196.85M294.45,201.05L289.15,202.2M318.6,206.5L314.6,200.4L312.9,197.85L312.05,198L304.85,200.8L304.65,200.85L304.4,200.95L304.3,200.9L301.45,200.4L300.25,200.35L300.3,198.35L300.35,197.5M294.45,201.05L297.75,200.35L297.8,200.35L300.3,198.35M313.75,184.7L312.8,186.3L312.6,195.05L313.75,196.45L315.05,198.3L314.6,200.4M313.75,184.7L315.5,181.8L315.25,181.2M306.75,188.15L310.55,187.85L312.05,198M296.6,152.7L296.7,154.55M274.4,170.4L276.95,165.95M235.95,159L243.5,152.15M312.95,222.4L313.75,220.3L317.3,211.4L319,207.1L318.6,206.5M312.95,222.4L310.1,229.6L304.55,228.7L300.25,228.25L294.7,228L294.4,228C289.3,227.933 284.3,228.35 279.4,229.25C271.267,230.717 263.417,233.45 255.85,237.45L254.45,237.75L249.7,236.05L241.95,233.25M277.6,249L280.35,254M282.6,235L282.35,234.6M282.2,234.3L281.85,233.7L279.7,235.65L282.6,235L283.65,236.95M283.85,237.25L285.45,240.15L285.65,240.2L288.05,241.15M281.85,233.7L279.4,229.25M259.9,240.65L266.5,238.6L269.8,237.75L271.25,237.45L279.7,235.65M277.6,249L277.35,248.35L271.4,248.35L270.85,249.3L268.15,253.95M276.25,247.75L277.2,247.95L278.55,248.3M277.35,248.35L277.2,247.95M276.25,247.75L276.55,248.2L276.55,248.35M297.4,233.5L298.45,231.15L298.25,230.95L294.7,228M285.65,240.2L285.65,242.95M298.25,230.95L300.25,228.25M297,234.4L297.4,233.5M250.25,206.9L236.75,208.2M251,206.85L258.55,206.1M271.25,237.45L270.8,239.3L273.4,243.35L273.8,243.95L276.25,247.75M269.8,237.75L270.8,239.3M261.35,241.8L266.5,238.6M274.65,252.05L275.25,253.95L272.6,254.45L273.1,251.9L274.65,252.05M319,207.1L319.4,207.7M236,171.3L234.8,171.85L234.8,174.7M232.7,221.7L232.7,222.2L232.75,222.35L232.85,222.4M232.75,222.35L232.95,223.05" style="fill:none;fill-rule:nonzero;stroke:#000;stroke-opacity:0.4;stroke-width:0.4px;"/>
                <path d="M294.85,152.7L291.05,152.7M294.85,152.7C295.617,153.367 296.2,153.367 296.6,152.7L310.6,152.7M313.75,166.2L313.75,165.55M251.1,152.7L260.5,152.7M236,169.3L236,171.3M236,178.45L236,178.2M236,178.45L236,181.25C236.733,186.517 236.733,191.183 236,195.25L236,198.95M252,174.5C255.4,175.8 258.3,177.967 260.7,181L260.85,181.2C262.617,186.133 263.483,190.633 263.45,194.7C263.45,196.367 263.283,197.967 262.95,199.5M250.3,174.7C248.7,175.833 247.367,177.183 246.3,178.75C242.833,183.683 241.9,190.717 243.5,199.85M268.65,187.55L273.85,187.1L272.05,184.4L268.95,184.8L268.65,187.55M313.75,178.25L313.75,174.9M302.65,179.3L303.75,181.7M303.9,182.15L304.65,184.85L305.2,188.3M286.6,182.85C284.933,187.983 284.283,192.65 284.65,196.85M287.35,180.95C290.417,177.117 293.867,175.033 297.7,174.7C299.733,175.533 301.383,177.067 302.65,179.3M287.35,180.95L287.15,181.2L286.7,182.55M313.75,196.45L313.75,184.7M313.75,220.3L313.75,221.75L312.95,222.4M304.55,228.7L298.3,233.45L297,234.4L288.05,241.15L285.65,242.95L278.55,248.3L277.6,249M255.85,237.45L259.9,240.65L261.35,241.8L266.5,245.85L270.85,249.3M236,208.25L236,206.6" style="fill:none;fill-rule:nonzero;stroke:#000;stroke-opacity:0.4;stroke-width:0.4px;"/>
                <path d="M248.8,179.8C246.667,183.7 245.583,187.65 245.55,191.65L245.75,194.9L246.15,197M290.8,180L291.5,178.65M290.8,180C289.133,183.467 288.283,186.967 288.25,190.5L288.45,193.75L288.85,195.85" style="fill:none;fill-rule:nonzero;stroke:#cfdada;stroke-opacity:0.6;stroke-width:2px;"/>
            </g>
        </g>
    </g>
</svg>
