<?xml version="1.0" encoding="UTF-8"?>
<svg version="1.1" viewBox="0 0 44.01 58.644" xmlns="http://www.w3.org/2000/svg" xmlns:cc="http://creativecommons.org/ns#" xmlns:dc="http://purl.org/dc/elements/1.1/" xmlns:rdf="http://www.w3.org/1999/02/22-rdf-syntax-ns#" xmlns:xlink="http://www.w3.org/1999/xlink">
<metadata>
<rdf:RDF>
<cc:Work rdf:about="">
<dc:format>image/svg+xml</dc:format>
<dc:type rdf:resource="http://purl.org/dc/dcmitype/StillImage"/>
</cc:Work>
</rdf:RDF>
</metadata>
<g transform="translate(-268.46 -177.42)">
<use transform="matrix(.1555 .053 -.053 .1555 289.4 177.46)" width="59.450001" height="45.950001" xlink:href="#b"/>
<use transform="matrix(.1645 0 0 .1645 276.51 180.08)" width="59.450001" height="45.950001" xlink:href="#b"/>
<use transform="matrix(.1645 0 0 .1645 281.51 177.92)" width="59.450001" height="45.950001" xlink:href="#b"/>
<use transform="translate(268.45,182.2)" width="29.450001" height="46.099998" xlink:href="#d"/>
<use transform="matrix(.1645 0 0 .1645 287.56 180.78)" width="59.450001" height="45.950001" xlink:href="#b"/>
<use transform="matrix(.6366 .2296 -.3389 .9397 276.05 191.08)" width="15.5" height="7.0500002" xlink:href="#a"/>
<use transform="matrix(.5555 .2248 -.4336 1.0714 279.66 192.71)" width="15.5" height="7.0500002" xlink:href="#a"/>
<use transform="matrix(.6366 .2296 -.3389 .9397 277.1 187.93)" width="15.5" height="7.0500002" xlink:href="#a"/>
<use transform="matrix(.1645 0 0 .1645 276.51 181.32)" width="59.450001" height="45.950001" xlink:href="#b"/>
<use transform="matrix(.7028 0 0 1 290.3 190.35)" width="15.5" height="7.0500002" xlink:href="#a"/>
<use transform="matrix(.1645 0 0 .1645 282.46 181.58)" width="59.450001" height="45.950001" xlink:href="#b"/>
<use transform="matrix(.6366 .2296 -.3389 .9397 277.05 182.93)" width="15.5" height="7.0500002" xlink:href="#a"/>
<use transform="matrix(.5042 .2041 -.6214 1.5354 280.87 184.64)" width="15.5" height="7.0500002" xlink:href="#a"/>
<use transform="matrix(.512 0 0 .9543 292.13 186.01)" width="15.5" height="7.0500002" xlink:href="#a"/>
<use transform="translate(282.3,186.6)" width="15.5" height="7.0500002" xlink:href="#a"/>
<use transform="matrix(1.0548 0 0 1.6839 281.48 189.96)" width="15.5" height="7.0500002" xlink:href="#a"/>
<use transform="matrix(.1555 .053 -.053 .1555 300.4 176.96)" width="59.450001" height="45.950001" xlink:href="#b"/>
<use transform="matrix(.1645 0 0 .1645 292.51 177.42)" width="59.450001" height="45.950001" xlink:href="#b"/>
<use transform="matrix(.1645 0 0 .1645 287.51 179.58)" width="59.450001" height="45.950001" xlink:href="#b"/>
<use transform="translate(288.05,181.9)" width="20.700001" height="54.150002" xlink:href="#c"/>
<use transform="matrix(.7028 0 0 1 301.55 191.75)" width="15.5" height="7.0500002" xlink:href="#a"/>
<use transform="translate(293.8,193.75)" width="15.5" height="7.0500002" xlink:href="#a"/>
<use transform="matrix(.1645 0 0 .1645 287.51 180.82)" width="59.450001" height="45.950001" xlink:href="#b"/>
<use transform="matrix(.1645 0 0 .1645 298.56 180.28)" width="59.450001" height="45.950001" xlink:href="#b"/>
<use transform="matrix(.6366 .2296 -.3389 .9397 287.05 190.58)" width="15.5" height="7.0500002" xlink:href="#a"/>
<use transform="matrix(.5555 .2248 -.4336 1.0714 290.66 192.21)" width="15.5" height="7.0500002" xlink:href="#a"/>
<use transform="matrix(.6366 .2296 -.3389 .9397 288.1 187.43)" width="15.5" height="7.0500002" xlink:href="#a"/>
<use transform="matrix(.7028 0 0 1 301.3 187.85)" width="15.5" height="7.0500002" xlink:href="#a"/>
<use transform="matrix(.6366 .2296 -.3389 .9397 288.05 182.43)" width="15.5" height="7.0500002" xlink:href="#a"/>
<use transform="matrix(.7393 .2992 -.7608 1.8798 290.53 182.2)" width="15.5" height="7.0500002" xlink:href="#a"/>
<use transform="matrix(.1645 0 0 .1645 293.31 181.38)" width="59.450001" height="45.950001" xlink:href="#b"/>
<use transform="matrix(.7028 0 0 1 299.25 183.6)" width="15.5" height="7.0500002" xlink:href="#a"/>
<use transform="translate(293.3,185.1)" width="15.5" height="7.0500002" xlink:href="#a"/>
<use transform="matrix(1.3097 0 0 1.6839 291.45 187.01)" width="15.5" height="7.0500002" xlink:href="#a"/>
</g>
<defs>
<g id="b" transform="translate(29.7,22.95)">
<path d="m-2-7.5 0.15 0.2 0.15 0.3-0.7-2.4q-0.75-2.2-0.8-4.8l0.45 1.1 0.6 1.65q0.5 1.5 1.1 0.9l-0.1 0.25v0.05q-0.55 1.25-0.05 0.35l0.1-0.25q2.15 7.3 2.05 3.45v-5.4l0.15-0.3q0.2 0.35 0.3-0.25l0.4-3.45 0.45 2.5 0.55 2.1 0.1-0.3 0.3-1.5q0.1-0.85 0.45-0.9l0.15 0.6 0.1 0.9 0.05 0.6v-0.9q-0.05-1.05 0.05-2.1v-5.75q-0.1-1.45 0.2-2.1 0 1.85 0.25 3.6 1.25 9.5 4.55 16.2l0.6 1.45 0.15 0.35-0.05 0.1h0.1-0.1l0.05-0.1q1.55-4.65 0.35-12.85h0.7q0.5 7 0.1 12.85l-0.1 0.25q-0.05 0.2 0.05 0.35l-0.05 0.3 0.35-0.45 0.05-0.6 0.05-0.05 0.1 0.3 0.3 1.2 0.3-0.3 0.1-0.6 0.3-1.5 0.15 0.3 0.2 0.6q0.05 0.3 0.25 0.45 0.1 0.15 0.25 0.15l0.05-0.6 0.05-0.3v-0.3l0.15 0.3 0.05 0.9 0.1 0.9 0.3 2.1 0.25-0.95 0.3-3.25v-0.55h0.1q0.9 4.9 2.1 9.6h0.6q0.2-0.05 0.4 0.15l1.35 0.45 1.15-2.4q1.95-4.45 2.3-7.05 0.4-2.6 0.5 5.25 0.05 7.8 0.9 7.8 0.65 0 1.15 0.9l-0.9 0.7q-0.85 0.35-1.35 1.7 0.65 0.6 1.4 0.4l0.95-0.25q0.4-0.1 0.3 0.75-1.1-0.1-2.1 0.4l-0.3 0.2q-0.5 0.45-0.4 1.55h3.1l-4.75 0.3-3.45-0.7-1.1-1.3-0.05 0.1q-0.2 0.4 0 0.95l-0.45-0.1-0.5-1.1-0.9-1.95-0.45-1.35v1.35q-0.75-1.05-1.35-2.55v1.8l-0.6-2.1q0.1 0.75-0.15 0.9l-0.35-1.2-0.1-0.4v0.55q-0.1 0.35-0.35-0.3-0.35-1-0.55-2.55l-0.05 1.7-0.4 3.1-0.35-1.05q-0.4-1.8-0.4-0.6l-0.05 0.05-0.8-2.3-0.05 1.05-1-2.1-0.15 1.8-0.9-1.35-0.15 0.9-0.8-1.65-0.1 1.35-1.1-2.9-0.25 2.6-0.75-2.25 0.05 2.7-0.05-0.15q-0.5-0.7-0.7-2.25v2.55l-0.7-1.65v1.05q0.05 1.8-0.2 1.5l-0.3-0.75q-0.65-0.4-1.05-1.5l0.4 2.7-0.4-0.4q-0.85-1.05-0.85 0.4l0.05 0.15q-0.3 0.2-0.55-0.3l0.15 0.75-0.05 0.15-1.5-1.05 0.35 2.35-1.15-0.7-0.75-1.8-0.7 1.8-1.65-3-1.2-2.9-0.5-1.65 3.25 1.2-0.6-3-2.4-1.5-1.7-5.25-0.25-4.1 2 4.45q0.45 1.05 1.1 1.5 0.35 0.25 0.6-0.45 0.2-0.65 0.55 0.2v0.05l0.1 0.3-0.1-0.35-0.2-1.15v-1.1l0.9 0.1 0.25-0.25-0.2-0.6-0.45-1.55-0.2-0.75q0.9 1.8 2 2.9l1.15 1.1q0.2 0.15 0.4-0.15 0.1-0.2 0.05-0.55l-0.35-2.65 0.1-0.05m12.1 6.75v2.2h0.7v-1.9 1.9h-0.7v-2.2l0.15-0.65-0.35 0.1q0.1-0.2-0.15 0l0.05 0.05v0.05l0.05 0.1 0.25 0.35m-4.1-9.4-0.35 2.1v0.25l0.05 1.1v0.3l0.1 0.3q0.2 1.5 0.8 2.6l0.45 0.75 0.2 0.35 0.3 0.85q0.15 0.9 0.55 1.2h0.1q0.25 0.05 0.4-0.45l0.25-0.7-0.35-0.9-0.35-0.6-0.05-0.2-0.5-1.2-0.4-1-0.15-0.3-0.4-0.9-0.15-0.45q-0.35-0.9-0.45-2.05-0.1-0.55-0.05-1.05m3.75 8.85v-0.05 0.05l-0.05 0.05 0.05-0.05m1.1 0.55q-0.1-0.15-0.05-0.35l0.1-0.25-0.05 0.6m-23.7 9.8 2.15 2.35 0.5 0.6q0.55 0.8 0.7 1.8l0.05 0.3q0.25-1.55-0.05-3.05l0.9 1.2 2.5 2.4 2.3 1.55 2.6 2q0.5 0.6 1.25 0.6l0.7-0.3 1.05-1.5 1.15-2.3h0.1q1.05 2.35 3.1 3.7l0.25-0.15 0.45-0.8 0.45-0.95 1.85 2 0.7 0.2 0.9 0.25 0.1 0.3q0 0.45-0.6 0.45l-5.6-0.55-1.05-0.15-3.15 0.3-0.45 0.15-0.9 0.1-6.75 0.2-1.2 0.15-0.35 0.1-0.4 0.2q-0.45 0.6-0.8 0.6-0.3 0.1-0.6-0.2l-1.55-1.75-0.2-0.45-0.1-0.2q-0.4-0.05-0.45 0.35h-0.05q0.1-2.6-0.4-5.2-0.3-1.45-0.95-2.7l-0.6-0.7-2.45-2.3 0.1-0.15q1.9 0.8 3.45 2 0.85 0.65 1.35 1.45l0.3 0.35-0.05-1.2q0-0.45-0.25-0.95v-0.1m28.4-4.05-0.5-2.65-0.25-2.25-0.1-0.6v3.4l-0.05 0.2q-0.3 0.65-0.3 1.5v0.1h0.6l0.5 0.5 0.1 0.7 0.05 0.15 0.15 0.6-0.1-1.2-0.1-0.45" fill="#8a836e" fill-rule="evenodd"/>
<path d="m-9.45-4.4 1.7 5.25 2.4 1.5 0.6 3-3.25-1.2 0.5 1.65 1.2 2.9 1.65 3 0.7-1.8 0.75 1.8 1.15 0.7-0.35-2.35 1.5 1.05 0.05-0.15-0.15-0.75q0.25 0.5 0.55 0.3l-0.05-0.15q0-1.45 0.85-0.4l0.4 0.4-0.4-2.7q0.4 1.1 1.05 1.5l0.3 0.75q0.25 0.3 0.2-1.5v-1.05l0.7 1.65v-2.55q0.2 1.55 0.7 2.25l0.05 0.15-0.05-2.7 0.75 2.25 0.25-2.6 1.1 2.9 0.1-1.35 0.8 1.65 0.15-0.9 0.9 1.35 0.15-1.8 1 2.1 0.05-1.05 0.8 2.3 0.05-0.05q0-1.2 0.4 0.6l0.35 1.05 0.4-3.1 0.05-1.7q0.2 1.55 0.55 2.55 0.25 0.65 0.35 0.3v-0.55l0.1 0.4 0.35 1.2q0.25-0.15 0.15-0.9l0.6 2.1v-1.8q0.6 1.5 1.35 2.55v-1.35l0.45 1.35 0.9 1.95 0.5 1.1 0.45 0.1q-0.2-0.55 0-0.95l0.05-0.1 1.1 1.3 3.45 0.7 4.75-0.3h4.05l-12.3 3.45q-6.7-0.3-13.25 1.65l-0.05 0.3 0.05-0.3v0.3h-0.05l-7.3 0.1q-8.95 0.4-17.2-3.85l-1-0.55-0.3-1.1 5.35-0.95 1-1.7-14.4-17.1 11.15 7.8 0.05-0.3-0.65-0.15 0.1-7.25 0.1 0.05 0.05 3.3 1.65-11.15q0.4 5.2 1.8 9.65l0.3-3.9 0.15 1.25q0.25 1.8 0.95 2.7l0.45 0.6 0.4-1.25v-0.4l0.05-0.15 0.1 0.4 1.25-10.35 2.5 8.7-0.15-1.65m15.45-5.75q-0.05 0.5 0.05 1.05 0.1 1.15 0.45 2.05l0.15 0.45 0.4 0.9 0.15 0.3 0.4 1 0.5 1.2 0.05 0.2 0.35 0.6 0.35 0.9-0.25 0.7q-0.15 0.5-0.4 0.45h-0.1q-0.4-0.3-0.55-1.2l-0.3-0.85-0.2-0.35-0.45-0.75q-0.6-1.1-0.8-2.6l-0.1-0.3v-0.3l-0.05-1.1v-0.25l0.35-2.1m-18.85 19.3q0.25 0.5 0.25 0.95l0.05 1.2-0.3-0.35q-0.5-0.8-1.35-1.45-1.55-1.2-3.45-2l-0.1 0.15 2.45 2.3 0.6 0.7q0.65 1.25 0.95 2.7 0.5 2.6 0.4 5.2h0.05q0.05-0.4 0.45-0.35l0.1 0.2 0.2 0.45 1.55 1.75q0.3 0.3 0.6 0.2 0.35 0 0.8-0.6l0.4-0.2 0.35-0.1 1.2-0.15 6.75-0.2 0.9-0.1 0.45-0.15 3.15-0.3 1.05 0.15 5.6 0.55q0.6 0 0.6-0.45l-0.1-0.3-0.9-0.25-0.7-0.2-1.85-2-0.45 0.95-0.45 0.8-0.25 0.15q-2.05-1.35-3.1-3.7h-0.1l-1.15 2.3-1.05 1.5-0.7 0.3q-0.75 0-1.25-0.6l-2.6-2-2.3-1.55-2.5-2.4-0.9-1.2q0.3 1.5 0.05 3.05l-0.05-0.3q-0.15-1-0.7-1.8l-0.5-0.6-2.15-2.35v0.1m-0.5 9.4v0.4l0.05-0.4-0.05 0.4v-0.4m3.85-7.5-0.75-1.4-0.15-0.5 0.15 0.5 0.75 1.4m-4.7-3.55q0.85 0.5 1.35 1.55-0.5-1.05-1.35-1.55m-3.45 0-0.7-0.45 0.6 0.6-0.6-0.6 0.7 0.45m33.2-2.5 0.1 0.45 0.1 1.2-0.15-0.6-0.05-0.15-0.1-0.7-0.5-0.5h-0.6v-0.1q0-0.85 0.3-1.5l0.05-0.2v-3.4l0.1 0.6 0.25 2.25 0.5 2.65m-12.5 9.7-0.05-0.15-0.05 0.15 0.05-0.15 0.05 0.15" fill="#8e8977" fill-rule="evenodd"/>
<path d="m9.75-1.35-0.15-0.35-0.6-1.45q-3.3-6.7-4.55-16.2-0.25-1.75-0.25-3.6-0.3 0.65-0.2 2.1v5.75q-0.1 1.05-0.05 2.1v0.9l-0.05-0.6-0.1-0.9-0.15-0.6q-0.35 0.05-0.45 0.9l-0.3 1.5-0.1 0.3-0.55-2.1-0.45-2.5-0.4 3.45q-0.1 0.6-0.3 0.25l-0.15 0.3v5.4q0.1 3.85-2.05-3.45l-0.1 0.25q-0.5 0.9 0.05-0.35v-0.05l0.1-0.25q-0.6 0.6-1.1-0.9l-0.6-1.65-0.45-1.1q0.05 2.6 0.8 4.8l0.7 2.4-0.15-0.3-0.15-0.2-0.15-0.1 0.05 0.15 0.35 2.65q0.05 0.35-0.05 0.55-0.2 0.3-0.4 0.15l-1.15-1.1q-1.1-1.1-2-2.9l0.2 0.75 0.45 1.55 0.2 0.6-0.25 0.25-0.9-0.1v1.1l0.2 1.15 0.1 0.35-0.1-0.3v-0.05q-0.35-0.85-0.55-0.2-0.25 0.7-0.6 0.45-0.65-0.45-1.1-1.5l-2-4.45 0.25 4.1m35.15 21.85h-3.1q-0.1-1.1 0.4-1.55l0.3-0.2q1-0.5 2.1-0.4 0.1-0.85-0.3-0.75l-0.95 0.25q-0.75 0.2-1.4-0.4 0.5-1.35 1.35-1.7l0.9-0.7q-0.5-0.9-1.15-0.9-0.85 0-0.9-7.8-0.1-7.85-0.5-5.25-0.35 2.6-2.3 7.05l-1.15 2.4-1.35-0.45q-0.2-0.2-0.4-0.15h-0.6q-1.2-4.7-2.1-9.6l-0.1-0.8v-1.05m0 1.85v0.55l-0.3 3.25-0.25 0.95-0.3-2.1-0.1-0.9-0.05-0.9-0.15-0.3v0.3l-0.05 0.3-0.05 0.6q-0.15 0-0.25-0.15-0.2-0.15-0.25-0.45l-0.2-0.6-0.15-0.3-0.3 1.5-0.1 0.6-0.3 0.3-0.3-1.2-0.15-0.45v0.2l-0.05 0.6-0.35 0.45 0.05-0.3 0.05-0.6 0.15 0.3 0.1 0.15m-1.05 0.15-0.25-0.35-0.05-0.1v-0.05h-0.1l0.05-0.1q1.55-4.65 0.35-12.85h0.7q0.5 7 0.1 12.85l-0.1 0.25q-0.05 0.2 0.05 0.35m-0.95-0.55-0.1 0.1m0-0.05-0.05-0.05-0.05 0.05m0.05-0.1v0.05q0.25-0.2 0.15 0l0.35-0.1-0.15 0.65m-0.3-0.5 0.1-0.05m4.55-1.4v-0.8m-26.25-7.95v-0.65 0.65l2.5 8.7-0.15-1.65m-9.5 2.25v-0.6l-0.1 0.55-0.1 7.25 0.65 0.15-0.05 0.3-11.15-7.8 14.4 17.1-1 1.7-5.35 0.95 0.3 1.1 1 0.55q8.25 4.25 17.2 3.85l7.3-0.1 0.05-0.3q6.55-1.95 13.25-1.65l12.3-3.45h-4.05m-44.65-19.6 0.05 3.3 1.65-11.15q0.4 5.2 1.8 9.65l0.3-3.9 0.15 1.25q0.25 1.8 0.95 2.7l0.45 0.6 0.4-1.25v-0.4l0.05-0.15 0.1 0.4 1.25-10.35m10.65 1.2 0.05 0.1q0.35-0.75 0.1-0.45l-0.05 0.05m-4.3 2.45-0.45-0.7m9.95 31.65h0.05" fill="none" stroke="#29251a" stroke-linecap="round" stroke-linejoin="round" stroke-opacity=".45098" stroke-width=".05"/>
<path d="m6-10.15-0.35 2.1v0.25l0.05 1.1v0.3l0.1 0.3q0.2 1.5 0.8 2.6l0.45 0.75 0.2 0.35 0.3 0.85q0.15 0.9 0.55 1.2h0.1q0.25 0.05 0.4-0.45l0.25-0.7-0.35-0.9-0.35-0.6-0.05-0.2-0.5-1.2-0.4-1-0.15-0.3-0.4-0.9-0.15-0.45q-0.35-0.9-0.45-2.05-0.1-0.55-0.05-1.05m-18.85 19.2v0.1m-4.9-1.5-0.6-0.6 0.7 0.45m4.8 1.55q-0.5-1.05-1.35-1.55m3.8 1.65 0.15 0.5 0.75 1.4m-3.8 7.5-0.05 0.4v-0.4m28.9-13.55-0.5-2.65-0.25-2.25-0.1-0.6v3.4l-0.05 0.2q-0.3 0.65-0.3 1.5v0.1h0.6l0.5 0.5 0.1 0.7 0.05 0.15 0.15 0.6-0.1-1.2-0.1-0.45m-12.6 9.7 0.05-0.15 0.05 0.15" fill="none" stroke="#29251a" stroke-linecap="round" stroke-linejoin="round" stroke-opacity=".45098" stroke-width=".05"/>
<path d="m10.8-0.45v1.9h-0.7v-2.2" fill="none" stroke="#29251a" stroke-linecap="round" stroke-linejoin="round" stroke-opacity=".45098"/>
</g>
<g id="d" transform="translate(-268.45,-182.2)">
<path d="m281.95 200.8-0.2-2.15q0.65 0.55 0.9 1.5l-0.7 0.65m0-6.8 0.05-1.75 0.05-0.8 0.15-3.55 0.85 4.6 0.65 3.4-0.05 0.7 0.05-0.7 0.1 0.7h-0.15v0.45l0.2 1.65 0.05 0.3 0.15 0.4-0.2 0.5 0.2-0.5 0.2 0.45h-0.1l-0.3 0.05-1.2 0.25 0.1-2.95-0.1-2.8q-0.05-1.2-0.55-2.05l-0.1-0.1 0.05 0.05v0.95l-0.1 0.75m0.1-1.7v-0.85 0.85" fill="#1f101f" fill-rule="evenodd"/>
<path d="m297.1 193.8q0.2 0.65 0.8 0.7-0.9 0.1-1 1.2l0.05 0.7 0.1 0.55q-0.5-0.8-1.35-0.2l0.1 0.05h-0.2l-0.25 0.3q-0.3 0.55-0.35 1.2-0.45-0.65-1.1-0.75h-1q-1 0.2-1.1 1.35l-0.05 0.3q-0.75-1.15-1.95-1.55-0.75-0.25-0.9 0.25l-0.1 0.3q0 0.6 0.65 0.95l0.4 0.15-1.55-0.2v-0.9q-0.1-0.25-0.35-0.2l-0.45 0.1q-0.4 0.15-0.5 0.6-0.15 0.8 0.25 1.45-0.65-0.95-2.05-0.9-0.65 0.05-0.65 0.6l0.05 0.25 0.15 0.35-0.5-0.6-0.2-0.45-0.15-0.4-0.05-0.3-0.2-1.65v-0.45h0.15l-0.1-0.7-0.65-3.4 0.4 0.6 0.2 0.35 0.5 0.65q0.85 0.9 0.2 1.85l-0.25 0.4 0.85 0.1 0.8-0.35 0.05-0.35q0.45 0.65 1.55 0.35 0.5-0.4 0.45-0.95 0.35 1.35 1.75 0.9 0.7-0.25 0.55-1.05 0.6 0.9 1.85 0.55l0.5-0.25q0.65-0.45 0.5-1.2 0.5 0.55 1 0.55l0.75-0.3 0.2-0.25 0.2-0.45q0.1-0.85 0.9-0.1l0.4-1.5 0.35 0.8 0.15 0.95h0.2m-15.4 4.8-0.55-0.3q0 0.55-0.55 0.8 0.05-0.85 0.55-0.8l-0.1-0.4q-0.15-0.6-0.7-0.55-1.2 0.1-1.25 1.3l0.1-1.2q0.2-1.8-1.4-2.2l0.95-0.75 0.95-1.6 0.1-0.3q-0.15 0.95 0.25 1.5l0.35 0.15q0.7 0.05 0.75-0.7v0.05q-0.05 0.6 0.05 1.05l0.75-0.65 0.1-0.75v-0.95l0.05 0.05q0.5 0.85 0.55 2.05l0.1 2.8-0.1 2.95q-0.25-0.95-0.9-1.5v-0.05h-0.05m13.9-1.8 0.05-0.05h0.05-0.05l-0.05 0.05" fill="#fff" fill-rule="evenodd"/>
<path d="m296.65 192.05 0.1 0.8-0.35-0.8h0.25m-16.95 0.85v-0.3h0.1l-0.1 0.3m10.55-0.55q-0.4-1.05 0.65-0.75l0.3 0.3q0.5 0.8-0.2 1.35-0.5-0.25-0.75-0.9m-7.6 7.8v0.1-0.1" fill="#643265" fill-rule="evenodd"/>
<path d="m282.05 184.5 1.4-1.45h1.75q1.35-0.2 2.7 0l3.3 0.05q1.65 0.05 2.5 0.45 0.8 0.35 0.7 0.9l-1.6 0.95-2.55 0.35-6.05-0.15h-0.15q-0.9-0.15-1.65-0.75l-0.35-0.35" fill="#44421c" fill-rule="evenodd"/>
<path d="m285.2 183.05h-1.75l-1.4 1.45 0.35 0.35q0.75 0.6 1.65 0.75h0.15l6.05 0.15 2.55-0.35 1.6-0.95q0.1-0.55-0.7-0.9-0.85-0.4-2.5-0.45l-3.3-0.05q-1.35-0.2-2.7 0m-5.5 9.55 0.85-8.6q0.25-0.7 1.75-1.3 0.85-0.35 2.4-0.45l6.65 0.05 2.5 0.6h0.1l1.35 1 0.25 0.4 1.1 7.75h-0.25l-0.4 1.5q-0.8-0.75-0.9 0.1l-0.2 0.45-0.2 0.25-0.75 0.3q-0.5 0-1-0.55 0.15 0.75-0.5 1.2l-0.5 0.25q-1.25 0.35-1.85-0.55 0.15 0.8-0.55 1.05-1.4 0.45-1.75-0.9 0.05 0.55-0.45 0.95-1.1 0.3-1.55-0.35l-0.05 0.35-0.8 0.35-0.85-0.1 0.25-0.4q0.65-0.95-0.2-1.85l-0.5-0.65-0.2-0.35-0.4-0.6-0.85-4.6-0.15 3.55-0.05 0.8-0.05 1.75-0.75 0.65q-0.1-0.45-0.05-1.05v-0.05q-0.05 0.75-0.75 0.7l-0.35-0.15q-0.4-0.55-0.25-1.5h-0.1m13.4 22.75 0.25 2.7-0.2 0.25-3.9 1.25-3.55-2.15-0.7-5.9q-0.15 1.45-3 4.2l-0.1-0.05 0.55-1.8q0.55-0.7 0.35-5.15l-0.05-1.15-0.2-4.65 2.1 0.85 3.85 0.3 0.1 0.3 0.55 1.6q1.95 5.95 3.95 9.4m-2.85-23q0.25 0.65 0.75 0.9 0.7-0.55 0.2-1.35l-0.3-0.3q-1.05-0.3-0.65 0.75" fill="#e6e4c4" fill-rule="evenodd"/>
<path d="m293.9 197.55q-0.7 2.6-0.85 4.5l0.05 13.3q-2-3.45-3.95-9.4l-0.55-1.6-0.1-0.3-3.85-0.3-2.1-0.85v-0.2l-0.05-0.45-0.55-1.45 0.7-0.65 1.2-0.25 0.3-0.05h0.1l0.5 0.6-0.15-0.35-0.05-0.25q0-0.55 0.65-0.6 1.4-0.05 2.05 0.9-0.4-0.65-0.25-1.45 0.1-0.45 0.5-0.6l0.45-0.1q0.25-0.05 0.35 0.2v0.9l1.55 0.2-0.4-0.15q-0.65-0.35-0.65-0.95l0.1-0.3q0.15-0.5 0.9-0.25 1.2 0.4 1.95 1.55l0.05-0.3q0.1-1.15 1.1-1.35h1m-11.25 2.6v0.1-0.1" fill="#928d3d" fill-rule="evenodd"/>
<path d="m268.55 222.7 0.1-0.6q0-1.45 1.9-2.5 2.85-1.3 7.25-1.6l1.55-0.9v-0.05l1.95-1.1q1.8 1.95 4.3 3.2-1.55 2.15-5.6 3l-0.65 0.2-3.3 0.95-0.6 0.15-0.9 0.25-1.25 0.1h-0.95q-1.95 0.1-3.8-1.1" fill="#d0cd91" fill-rule="evenodd"/>
<path d="m293.15 218.3q0.4 1.8 0.3 4.35l-0.15 0.5q-1.35 0.95-3 1.45l-3.75 0.6-11.35 1.85q-3.7-0.35-5.2-1.15l-0.65-0.5q-0.65-0.8-0.8-1.75v-0.95q1.85 1.2 3.8 1.1h0.95l1.25-0.1 0.9-0.25 0.6-0.15 3.3-0.95 0.65-0.2q4.05-0.85 5.6-3-2.5-1.25-4.3-3.2l0.6-0.3-0.05 0.2 0.15-0.15q2.85-2.75 3-4.2l0.7 5.9 3.55 2.15 3.9-1.25" fill="#989441" fill-rule="evenodd"/>
<path d="m293.3 223.15-0.35 1.45-2.15 1-0.25 0.1-3.75 0.65-11.6 1.9-0.15-0.05q-4.8-0.55-5.6-1.55h-0.05l-0.05-0.05-0.15-0.2-0.45-0.8q-0.35-0.8-0.2-1.95 0.15 0.95 0.8 1.75l0.65 0.5q1.5 0.8 5.2 1.15l11.35-1.85 3.75-0.6q1.65-0.5 3-1.45" fill="#5a5827" fill-rule="evenodd"/>
<path d="m282.05 184.5 0.35 0.35q0.75 0.6 1.65 0.75h0.15l6.05 0.15 2.55-0.35 1.6-0.95q0.1-0.55-0.7-0.9-0.85-0.4-2.5-0.45l-3.3-0.05q-1.35-0.2-2.7 0m-5.5 9.55 0.85-8.6q0.25-0.7 1.75-1.3 0.85-0.35 2.4-0.45l6.65 0.05 2.5 0.6h0.1l1.35 1 0.25 0.4 1.1 7.75 0.1 0.8m-2.85 4.7q-0.7 2.6-0.85 4.5l0.05 13.3 0.25 2.7-0.2 0.25q0.4 1.8 0.3 4.35v0.45l-0.15 0.05-0.35 1.45-2.15 1-0.25 0.1-3.75 0.65-11.6 1.9-0.15-0.05q-4.8-0.55-5.6-1.55h-0.05l-0.05-0.05-0.15-0.2-0.45-0.8q-0.35-0.8-0.2-1.95v-0.95l0.1-0.6q0-1.45 1.9-2.5 2.85-1.3 7.25-1.6l1.55-0.9m0-0.05 1.95-1.1 0.6-0.3 0.55-1.8q0.55-0.7 0.35-5.15l-0.05-1.15-0.2-4.65m0-0.2-0.05-0.45-0.55-1.45-0.2-2.15v-0.05m-2.05-5.7v-0.3m2.25 1.4 0.05-1.75 0.05-0.8 0.15-3.55 0.85 4.6m0.65 3.4-0.65-3.4m0.65 3.4 0.1 0.7m-1.8 19.1q2.85-2.75 3-4.2l0.7 5.9 3.55 2.15 3.9-1.25m-24.6 5.35q0.15 0.95 0.8 1.75l0.65 0.5q1.5 0.8 5.2 1.15l11.35-1.85 3.75-0.6q1.65-0.5 3-1.45l0.15-0.5m-11.45-6.95-0.15 0.15 0.05-0.2" fill="none" stroke="#350035" stroke-linecap="round" stroke-linejoin="round" stroke-width=".1"/>
<path d="m296.75 192.85 0.35 0.9v0.05q0.2 0.65 0.8 0.7-0.9 0.1-1 1.2l0.05 0.7 0.1 0.55q-0.5-0.8-1.35-0.2h-0.05l-0.05 0.05-0.25 0.3q-0.3 0.55-0.35 1.2-0.45-0.65-1.1-0.75m-12.15 1.1-0.05-0.05-0.55-0.3q0 0.55-0.55 0.8 0.05-0.85 0.55-0.8l-0.1-0.4q-0.15-0.6-0.7-0.55-1.2 0.1-1.25 1.3l0.1-1.2q0.2-1.8-1.4-2.2l0.95-0.75 0.95-1.6m0.1-0.3q-0.15 0.95 0.25 1.5l0.35 0.15q0.7 0.05 0.75-0.7v0.05q-0.05 0.6 0.05 1.05l0.75-0.65m1.1-1.5 0.4 0.6 0.2 0.35 0.5 0.65q0.85 0.9 0.2 1.85l-0.25 0.4 0.85 0.1 0.8-0.35 0.05-0.35q0.45 0.65 1.55 0.35 0.5-0.4 0.45-0.95 0.35 1.35 1.75 0.9 0.7-0.25 0.55-1.05 0.6 0.9 1.85 0.55l0.5-0.25q0.65-0.45 0.5-1.2 0.5 0.55 1 0.55l0.75-0.3 0.2-0.25 0.2-0.45q0.1-0.85 0.9-0.1l0.4-1.5m-14.35 0.25 0.05 0.05q0.5 0.85 0.55 2.05l0.1 2.8-0.1 2.95v0.1-0.1q-0.25-0.95-0.9-1.5m2.1 1.25 0.2-0.5-0.15-0.4-0.05-0.3-0.2-1.65v-0.45l0.05-0.7m-1.65-3.6-0.05-0.05m0.05 0.05v0.95l-0.1 0.75m-2.15-1.4-0.1 0.3m2.35-1.45v0.85m2.2 7.55 0.5 0.6-0.15-0.35-0.05-0.25q0-0.55 0.65-0.6 1.4-0.05 2.05 0.9-0.4-0.65-0.25-1.45 0.1-0.45 0.5-0.6l0.45-0.1q0.25-0.05 0.35 0.2v0.9l1.55 0.2-0.4-0.15q-0.65-0.35-0.65-0.95l0.1-0.3q0.15-0.5 0.9-0.25 1.2 0.4 1.95 1.55l0.05-0.3q0.1-1.15 1.1-1.35h1m2.85-4.7-0.35-0.8m-12.15 7.8-0.2-0.45" fill="none" stroke="#350035" stroke-linecap="round" stroke-linejoin="round" stroke-width=".05"/>
<path d="m275.45 223.45 0.6-0.15m-3.7 0.5h0.95" fill="none" stroke="#482e22" stroke-linecap="round" stroke-linejoin="round" stroke-width=".1"/>
<path d="m285.2 183.05h-1.75l-1.4 1.45z" fill="none" stroke="#000" stroke-linecap="round" stroke-linejoin="round" stroke-opacity=".45098" stroke-width=".05"/>
</g>
<g id="a" transform="translate(7.75,3.5)">
<path d="m-4.35 0.75-1.25-0.75 0.5-1.1 0.4 0.15 0.05-0.05 0.4-0.35 0.35-0.3 0.05-0.05 0.45-0.1h0.05l2.5-0.6 1.75-0.15 0.15-0.1 1.6-0.7 0.35 0.55 1.55-0.7 0.25 0.85-1.9 0.95 2.3 0.05-0.05 0.7v0.7l-1.75-0.35 0.2 0.55h-0.15l-0.25 0.45 0.05 0.05 0.4 0.35h0.1l0.8 0.85-0.05 0.2-1.4-0.5-0.05-0.05-0.25-0.1h-0.05l-1.45-0.15-0.15-0.05-0.7-0.35-0.15 0.05h-0.25l0.45 0.55v0.05l0.2 0.3 0.15 0.2 0.05 0.05-0.65 0.15h-0.05l0.1 0.4-0.25-0.05-1.25 1-0.2-0.25 1.25-0.8v-0.1l-1.15 0.8-0.2-0.3-0.1-0.1-0.15-0.1-0.8 0.65-0.1-0.35-1.55-0.15-2.5 0.9-1.05-0.65 3.2-1.45-0.9-0.05 0.2-0.35 0.45-0.25 0.45 0.05v-0.1m3.75-3.2h-0.2 0.2m1.15 0.8 0.85-0.65 0.5 0.7-1.25 0.85 1.25-0.85-0.5-0.7-0.85 0.65m-2.5 1-0.65-0.75 0.7-0.75 1.2 1.35-1.2-1.35-0.7 0.75 0.65 0.75m-0.95 0.15-1.8-0.45 1.8 0.45m5-1.9 0.9-0.4-0.9 0.4m-6.05 5-0.25 0.05 0.25-0.05h0.05l1-0.25h0.15l-0.1-0.55 0.95-0.6-0.95 0.6 0.1 0.55h-0.15l-1 0.25v-0.05l-0.05 0.05m0.25-1.1-0.85-0.05 0.85 0.05m0.95 0.85 0.1 0.45-0.1-0.45" fill="#d6ceb6" fill-rule="evenodd"/>
<path d="m4.75 1.3 0.8 0.75-1.05 1.1-2.85-1.6-0.15 0.05h-0.75l-0.25-0.3v-0.05l-0.45-0.55h0.25l0.15-0.05 0.7 0.35 0.15 0.05 1.45 0.15h0.05l0.25 0.1 0.05 0.05 1.4 0.5 0.05-0.2 0.2-0.35" fill="#c2b18f" fill-rule="evenodd"/>
<path d="m5.15-0.95 2.6 1.45-1.05 0.65-1.7-0.4-0.25 0.55-0.2 0.35-0.8-0.85h-0.1l-0.4-0.35-0.05-0.05 0.25-0.45h0.15l-0.2-0.55 1.75 0.35v-0.7m-1.25 1.4 1.1 0.3-1.1-0.3" fill="#baa985" fill-rule="evenodd"/>
<path d="m-4.35 0.75-1.25-0.75 0.5-1.1 0.4 0.15 1.8 0.45m-1.75-0.5 0.4-0.35m0.35-0.3 0.05-0.05m4.75-0.85 0.15-0.1m1.6-0.7 0.35 0.55 1.55-0.7 0.25 0.85-1.9 0.95 2.3 0.05-0.05 0.7 2.6 1.45-1.05 0.65-1.7-0.4-0.25 0.55 0.8 0.75-1.05 1.1-2.85-1.6-0.15 0.05h-0.75l-0.25-0.3m0.35 0.5 0.05 0.05-0.65 0.15h-0.05m-1.4 1.35-0.2-0.25 1.25-0.8v-0.05m-1.6 0.25-0.8 0.65-0.1-0.35-1.55-0.15-2.5 0.9-1.05-0.65 3.2-1.45-0.9-0.05 0.2-0.35m4.55-1.85-1.2-1.35-0.7 0.75 0.65 0.75m2.6-0.1 1.25-0.85-0.5-0.7-0.85 0.65m-0.05 2.9v0.05m4.65-2.25v0.7l-1.75-0.35m1.15 2.25 0.2-0.35m-1.75-4.1-0.9 0.4m0.7 3.6h-0.05m1.8 0.45-0.05 0.2-1.4-0.5-0.05-0.05m-6.95 1.3 1-0.25h0.15l-0.1-0.55 0.95-0.6m-2.65 0.25 0.85 0.05m-0.5 1.15 0.25-0.05m0.05 0h-0.05m1.3 0.2-0.1-0.45m7.75-1.6-1.1-0.3" fill="none" stroke="#665933" stroke-linecap="round" stroke-linejoin="round" stroke-width=".05"/>
</g>
<g id="c" transform="translate(-288.05,-181.9)">
<path d="m292.15 197.05 0.05 0.05h-0.05v-0.05" fill="#86578e" fill-rule="evenodd"/>
<path d="m299.45 185.1 0.15-0.1v0.05l-0.15 0.05" fill="#472547" fill-rule="evenodd"/>
<path d="m300.25 200.25 0.35-0.25 0.2-0.15 0.6-0.4v0.1l-0.5 0.35-0.2 0.1-0.4 0.25h-0.05m1.5-0.95v-0.05h0.05l-0.05 0.05m0.65-0.25-0.15-0.2 0.15 0.15v0.05m-0.45 13.45 0.15 0.65-0.1-0.15 0.1 0.15h-0.05l-0.05-0.15-0.05-0.5m1.5 7.1v0.05-0.05m-8.85-25.95-0.5 1.65-0.25 0.55 0.75-2.2m6.3 6.25-0.1-0.05 0.1 0.05m-0.3 0.1h0.1-0.1" fill="#1f101f" fill-rule="evenodd"/>
<path d="m292.55 185.5-0.05-0.05 0.15-0.1-0.1 0.15" fill="#6f4635" fill-rule="evenodd"/>
<path d="m292.4 185.3 0.25 0.05-0.15 0.1-0.1-0.15m0.8 12.3 0.1 0.1h-0.05l-0.05-0.1" fill="#7e513d" fill-rule="evenodd"/>
<path d="m307.35 193.95h0.05q0.4 1.2 1.35 1.8-1.45-0.35-1.6 0.8l-0.45-0.25 0.05-0.7-2.3-0.05 1.9-0.95-0.2-0.65 0.2-0.55 1 0.55m-8.65 1.35-0.5 0.15-0.15-1.25 0.45 0.7 0.2 0.4m-0.2 4.7 0.4 0.05-0.8 0.5 0.4-0.55m1.2-0.15 0.1-0.1 0.15 0.1 0.1 0.1-0.35-0.1m2.55-1-0.2-0.3 0.25 0.3h0.25l0.15 0.5-0.3-0.35-0.15-0.15m-10 0.6-0.7 0.5-0.3-1.3q-0.85-1.85-1.55 0.1 0-0.8-0.65-1l0.85-0.85q0.15-0.4-0.05-0.7l-1.1 0.05q0.45-1.2-0.7-1.4 0.45-0.75 1.05-1.15l0.15 0.15 0.05-0.3q0.4-0.25 0.9-0.35 0 1.15 0.35 1.5 0.35 0.25 1-0.25-0.55 1.9 1 2.05-0.5 0.1-0.4 0.55v0.05h0.05l0.05 0.2 0.6-0.45 0.5-1.15q0.2-1.4 0.9-2.3l0.4-0.5-0.05 0.75-0.75 2.2-0.2 0.55-0.2 1.15-0.05 0.15q-0.15 1.45 0.35 3-0.7-1.1-1.3-1.2l-0.2-0.05m-0.35-2.2v-0.05l-0.05-0.05 0.05 0.1m1.3 0.35 0.05 0.1h0.05l-0.1-0.1" fill="#fff" fill-rule="evenodd"/>
<path d="m295.8 194.9 0.15-0.15 0.05 0.05-0.2 0.1" fill="#424" fill-rule="evenodd"/>
<path d="m291.85 197.15 0.05 0.05v0.05l-0.05-0.1" fill="#a1664c" fill-rule="evenodd"/>
<path d="m303.25 221.15-0.05 0.15v-0.2l0.05 0.05m-11.35-23.9-0.05-0.1 0.05 0.1m11.2 23.6 0.05-0.05v0.2l-0.05-0.15" fill="#2f1830" fill-rule="evenodd"/>
<path d="m297.65 199.85h-0.05l0.05-0.05v0.05m4.15 12.9 0.15-0.25 0.05 0.5-0.15-0.2-0.05-0.05" fill="#643265" fill-rule="evenodd"/>
<path d="m303.2 221.3v0.05h-0.05v-0.35l0.05 0.05v0.05l-0.05 0.25 0.05-0.05-0.05 0.05 0.05-0.25v0.2" fill="#5b2709" fill-rule="evenodd"/>
<path d="m303.55 225.15 0.35 1.5h-0.25l-0.1-1.5m-14.05 2.1 0.05-0.15 0.2-0.65 0.65-1.4-0.5 1.4v0.05l-0.2 0.75h-0.2" fill="#481f06" fill-rule="evenodd"/>
<path d="m300.2 224.65 0.05 0.15v1.4l-0.05-1.4v-0.15m-5.35 5.65-0.35-0.05-0.6-0.3 0.95 0.35" fill="#7e360c" fill-rule="evenodd"/>
<path d="m299.95 227.45h0.1v0.05l-0.1-0.05m-2.4 2.5h-0.05v-0.05l0.05 0.05" fill="#505c5f" fill-rule="evenodd"/>
<path d="m302.15 183.2-2.8-0.3h-2.85l-3.25 0.15-1.15 0.6-0.3 1 0.15 0.2 0.45 0.45 0.1 0.15 0.05 0.05 3.05 0.5 1.4 0.2h1.9l0.8-0.05 2.55-0.4 1.6-1.1q0.15-1.1-1.7-1.45m-12.45 7.4 0.8-6.45q0.2-0.8 1.75-1.6 1.8-0.95 8.1-0.55 3.55 0.3 4.6 2l0.25 0.55 2.05 6.7 0.1 2.7-1-0.55-0.2 0.55-0.05-0.2-1.55 0.7-0.35-0.55-1.6 0.7-0.15 0.1-1.75 0.15-2 0.45-0.2-0.4-0.45-0.7 0.15 1.25h-0.05l-2.05-7.45v1.5l-1.5 4.15 0.05-0.75-0.4 0.5q-0.7 0.9-0.9 2.3l-0.5 1.15-0.6 0.45-0.05-0.2-0.05-0.05q-0.1-0.45 0.4-0.55-1.55-0.15-1-2.05-0.65 0.5-1 0.25-0.35-0.35-0.35-1.5-0.5 0.1-0.9 0.35l0.35-2.8 0.05-0.15m2.3 26.7 2.2-5.3-1.6-10.2 3.35 1.95 3-0.05 2.55-1.1 0.15 5v0.2q-1.25 1.05-3 1.7l-1.05 0.4-1.45 0.6q1.3 0.8 3.35 1.05 1.4 0.2 2.3 1.2l0.05 0.05 0.15 0.2 0.05 0.15q0.35 3.8 0.8 5.35v-0.05q-2.45-4.25-4.5-5.3l-1-0.3-0.05-0.05h-0.15l-0.25 0.25-2.25 2.1-1.25 1.6-0.6 1.1-0.8-0.55m8.95-22.5h-0.2 0.2m-7.5 34.95q0.6 2.2 3.9 1.6-1.4 2.25-4.1 0.65-1.75-1.05-2.15-2.6l-0.05-0.95q0.1-0.4 0.5-0.5 1.25-0.35 1.65 0.75l0.1 0.45 0.15 0.6" fill="#e6e4c4" fill-rule="evenodd"/>
<path d="m299.6 185.05v-0.05l-0.15 0.1-2.4 0.4-4.4-0.15-0.25-0.05-0.45-0.45-0.15-0.2 0.3-1 1.15-0.6 3.25-0.15h2.85l2.8 0.3-0.15 0.2-0.8 0.85-1.6 0.8m-1.45 10.4-0.45 0.1-0.05 0.05-0.75 0.65-0.05 0.05-0.15-0.05-0.9-1.35-2.35 2.65 0.2-1.15 0.2-0.55 0.25-0.55 0.5-1.65 1.5-4.15v-1.5l2.05 7.45m-2.35-0.55 0.2-0.1-0.05-0.05-0.15 0.15" fill="#585625" fill-rule="evenodd"/>
<path d="m299.6 185.05 1.6-0.8 0.8-0.85 0.15-0.2q1.85 0.35 1.7 1.45l-1.6 1.1-2.55 0.4-0.8 0.05h-1.9l-1.4-0.2-3.05-0.5 0.1-0.15 4.4 0.15 2.4-0.4 0.15-0.05" fill="#2f2e13" fill-rule="evenodd"/>
<path d="m296.7 196.25-0.25-0.1-0.5 1.1 1.25 0.75v0.1l-0.45-0.05-0.45 0.25-0.2 0.35 0.9 0.05-3.2 1.45 1.05 0.65 2.5-0.9 1.15 0.1-0.4 0.55 0.8-0.5 0.1 0.35 0.7-0.55 0.35 0.1 0.2 0.3h0.05l-0.15 0.1 0.2 0.25 1.25-1 0.25 0.05-0.1-0.35 0.05-0.05 0.65-0.15-0.05-0.05v-0.05l0.3 0.35-0.15-0.5h0.5l0.15-0.05 1.25 0.7-2.5 13-0.15 0.25q-0.9-1-2.3-1.2-2.05-0.25-3.35-1.05l1.45-0.6 1.05-0.4q1.75-0.65 3-1.7v-0.2l-0.15-5-2.55 1.1-3 0.05-3.35-1.95-0.35-2.35 0.2 0.05q0.6 0.1 1.3 1.2-0.5-1.55-0.35-3l0.05-0.15 2.35-2.65 0.9 1.35m5.4 16.9 1.3 5.25v0.05l0.15 1.4q-0.1-0.65-0.1-0.25v0.1l-0.2 1.45-0.05-0.05v-0.15l-0.05-0.15-0.05 0.05-0.4-1.5-0.3-0.55-0.05-0.05q-2.55-4.1-4.15-5.05-0.55-0.3-1-0.3-1.25 0.85-2.25 2l-1.15 1.55-0.65 1.05-0.45 0.75-0.05 0.1-0.55 1.65-0.1-3.2 0.8 0.55 0.6-1.1 1.25-1.6 2.25-2.1 0.25-0.25h0.15l0.05 0.05 1 0.3q2.05 1.05 4.5 5.3v0.05q-0.45-1.55-0.8-5.35h0.05" fill="#928d3d" fill-rule="evenodd"/>
<path d="m290.4 225.05 1.7-4.55 0.55-1.65 0.05-0.1 0.45-0.75 0.65-1.05 1.15-1.55q2.4-0.55 3.75 1.55 1.45 2.35 1.65 4.85l-0.15 2.85v0.15q-2.15 4-7 3.9-0.4-1.1-1.65-0.75-0.4 0.1-0.5 0.5h-0.1l-1.25-1.2 0.2-0.75v-0.05l0.5-1.4" fill="#d0cd91" fill-rule="evenodd"/>
<path d="m300.25 226.2-0.3 1.25 0.1 0.05q-0.9 1.65-2.5 2.45l-0.05-0.05-1.1 0.3-1.55 0.1-0.95-0.35-0.45-0.2-0.15-0.6-0.1-0.45q4.85 0.1 7-3.9l0.05 1.4" fill="#bfbb6a" fill-rule="evenodd"/>
<path d="m303.2 221.35 0.35 3.8 0.1 1.5q0.65 6.8-5.9 7.7-3.7 0.55-6.2-1.8-2.25-2.6-1.85-5.3l1.25 1.2h0.1l0.05 0.95q0.4 1.55 2.15 2.6 2.7 1.6 4.1-0.65-3.3 0.6-3.9-1.6l0.45 0.2 0.6 0.3 0.35 0.05 1.55-0.1 1.1-0.3v0.05h0.05q1.6-0.8 2.5-2.45v-0.05h-0.1l0.3-1.25v-1.4l-0.05-0.15 0.15-2.85q-0.2-2.5-1.65-4.85-1.35-2.1-3.75-1.55 1-1.15 2.25-2 0.45 0 1 0.3 1.6 0.95 4.15 5.05l0.05 0.05 0.3 0.55 0.45 2h0.05" fill="#989441" fill-rule="evenodd"/>
<path d="m303.9 226.65q1.7 8.25-4.25 9.1-6.45 0.9-8.35-1-1.95-2-2.1-4.05-0.2-1.8 0.3-3.45h0.2q-0.4 2.7 1.85 5.3 2.5 2.35 6.2 1.8 6.55-0.9 5.9-7.7h0.25" fill="#5a5827" fill-rule="evenodd"/>
<path d="m289.7 190.6 0.8-6.45q0.2-0.8 1.75-1.6 1.8-0.95 8.1-0.55 3.55 0.3 4.6 2l0.25 0.55 2.05 6.7 0.1 2.7h0.05q0.4 1.2 1.35 1.8-1.45-0.35-1.6 0.8m-2.7 2.95-2.5 13 0.15 0.65 1.3 5.25v0.05l0.15 1.4m-0.1-0.25v0.1l-0.2 1.45-0.05 0.15v0.05l0.35 3.8 0.35 1.5q1.7 8.25-4.25 9.1-6.45 0.9-8.35-1-1.95-2-2.1-4.05-0.2-1.8 0.3-3.45l0.05-0.15 0.2-0.65 0.65-1.4 1.7-4.55-0.1-3.2 2.2-5.3-1.6-10.2-0.35-2.35-0.7 0.5-0.3-1.3q-0.85-1.85-1.55 0.1 0-0.8-0.65-1l0.85-0.85q0.15-0.4-0.05-0.7l-1.1 0.05q0.45-1.2-0.7-1.4 0.45-0.75 1.05-1.15l0.2-0.15 0.35-2.8m6.45-1.25-1.5 4.15-0.5 1.65-0.25 0.55-0.2 0.55-0.2 1.15m-1.3-0.5q-0.1-0.45 0.4-0.55-1.55-0.15-1-2.05-0.65 0.5-1 0.25-0.35-0.35-0.35-1.5-0.5 0.1-0.9 0.35m2.9 3.55 0.05 0.2 0.6-0.45 0.5-1.15q0.2-1.4 0.9-2.3l0.4-0.5-0.05 0.75-0.75 2.2m-1.65 1.25h-0.05v-0.05m0.1 2.4 0.2 0.05q0.6 0.1 1.3 1.2-0.5-1.55-0.35-3l0.05-0.15m4.75-2.1-0.15-1.25 0.45 0.7 0.2 0.4m7.45-1.35 0.2-0.55 1 0.55m-9.2 1.5-2.05-7.45m6.15 10.85 0.15 0.15 0.3 0.35-0.15-0.5m-1.75 1 0.1 0.05m-0.2 0.1h-0.1m-2.1 0-0.4 0.55 0.8-0.5m0.8-0.2 0.35 0.1m1.95 13.05 0.1 0.15m-7.15 2.25q1-1.15 2.25-2 0.45 0 1 0.3 1.6 0.95 4.15 5.05l0.05 0.05 0.3 0.55 0.4 1.5 0.05 0.15v-0.2l0.05 0.15v0.15l-0.05 0.25 0.05-0.05v-0.2m-8.25-5.7-1.15 1.55-0.65 1.05-0.45 0.75-0.05 0.1-0.55 1.65m9.9-7.5-0.15-0.2-0.05-0.05m-12.1 14.5q-0.4 2.7 1.85 5.3 2.5 2.35 6.2 1.8 6.55-0.9 5.9-7.7l-0.1-1.5m-0.4-4.15 0.05 0.05m-0.05 0.3-0.45-2m0.45 2v-0.35m-12.75 4.05-0.5 1.4v0.05l-0.2 0.75" fill="none" stroke="#350035" stroke-linecap="round" stroke-linejoin="round" stroke-width=".05"/>
<path d="m302.15 183.2-2.8-0.3h-2.85m-4.55 1.95 0.45 0.45m0.15 0.2 3.05 0.5 1.4 0.2h1.9l0.8-0.05 2.55-0.4 1.6-1.1q0.15-1.1-1.7-1.45m-9.65 2.25 0.05 0.05m-0.05-0.05-0.1-0.15" fill="none" stroke="#350035" stroke-linecap="round" stroke-linejoin="round" stroke-width=".1"/>
</g>
</defs>
</svg>
