<?xml version="1.0" encoding="UTF-8" standalone="no"?>
<!DOCTYPE svg PUBLIC "-//W3C//DTD SVG 1.1//EN" "http://www.w3.org/Graphics/SVG/1.1/DTD/svg11.dtd">
<svg width="100%" height="100%" viewBox="0 0 211 206" version="1.1" xmlns="http://www.w3.org/2000/svg" xmlns:xlink="http://www.w3.org/1999/xlink" xml:space="preserve" xmlns:serif="http://www.serif.com/" style="fill-rule:evenodd;clip-rule:evenodd;stroke-linecap:round;stroke-linejoin:round;">
    <g transform="matrix(1,0,0,1,-169.521,-131.15)">
        <g>
            <g id="shape0">
                <path d="M200.6,322.1C200.567,318.1 204.95,314.7 213.75,311.9C222.55,309.133 233.15,307.75 245.55,307.75C257.95,307.75 268.55,309.133 277.35,311.9C286.117,314.7 290.5,318.1 290.5,322.1C290.5,326.067 286.117,329.433 277.35,332.2C268.55,335 257.95,336.4 245.55,336.4C233.15,336.4 222.55,335 213.75,332.2C204.95,329.433 200.567,326.067 200.6,322.1" style="fill:#333;fill-opacity:0.74;"/>
                <path d="M222.15,195.65C223.65,195.583 225.117,195.6 226.55,195.7L233.45,196.7C232.45,199.833 231.25,203.183 229.85,206.75C227.25,208.283 225.15,208.283 223.55,206.75C225.15,208.283 227.25,208.283 229.85,206.75C233.817,207.55 237.35,206.183 240.45,202.65C242.783,192.517 241.783,184.083 237.45,177.35C238.117,176.917 239.167,177.65 240.6,179.55C244,184.017 246.917,189.633 249.35,196.4L251.9,204.7L253.5,207.15C256.833,212.917 258.433,220.2 258.3,229L257.85,236.2C254.417,247.733 247.967,255.6 238.5,259.8C239.567,253.867 239.567,247.933 238.5,242C234.8,233.167 229.067,226.117 221.3,220.85C218.367,220.017 215.45,219.433 212.55,219.1C222.883,208.3 226.083,200.483 222.15,195.65M247,230.65L247,225.25C250.2,222.483 252.15,218.417 252.85,213.05C252.517,208.55 252.2,205.767 251.9,204.7C252.2,205.767 252.517,208.55 252.85,213.05C252.15,218.417 250.2,222.483 247,225.25L247,230.65" style="fill:url(#_Linear1);"/>
                <path d="M170.25,195.1C171.183,194.167 172.283,194.75 173.55,196.85C177.783,202.55 182.533,206.933 187.8,210C184.867,213.933 182.283,218.05 180.05,222.35L176.7,218.6C179.733,219.433 180.783,218.1 179.85,214.6C178.517,208.467 175.317,201.967 170.25,195.1" style="fill:url(#_Linear2);"/>
                <path d="M179.2,224.1C172.633,217 169.417,207.65 169.55,196.05C169.75,195.617 169.983,195.3 170.25,195.1C175.317,201.967 178.517,208.467 179.85,214.6C180.783,218.1 179.733,219.433 176.7,218.6L180.05,222.35L179.2,224.1" style="fill:url(#_Linear3);"/>
                <path d="M177.55,227.65L179.2,224.1L180.05,222.35C182.283,218.05 184.867,213.933 187.8,210C189.1,208.233 190.483,206.517 191.95,204.85C202.917,199.083 212.983,196.017 222.15,195.65C226.083,200.483 222.883,208.3 212.55,219.1C200.883,217.833 189.217,220.683 177.55,227.65" style="fill:url(#_Linear4);"/>
                <path d="M176.4,247.75C176.5,241.917 177.55,236.867 179.55,232.6C190.317,226.567 201.267,224.317 212.4,225.85C219.1,233.55 215.05,239.05 200.25,242.35L193.15,242C184.35,242.1 178.767,244.017 176.4,247.75" style="fill:url(#_Linear5);"/>
                <path d="M196.6,268.6C191.667,268.167 186.917,267.033 182.35,265.2C180.717,261.133 180.05,256.683 180.35,251.85L180.45,250.5C189.217,248.1 197.017,248.1 203.85,250.5C215.783,259.7 213.367,265.733 196.6,268.6" style="fill:url(#_Linear6);"/>
                <path d="M224.4,259.6L211.1,268L196.6,268.6C213.367,265.733 215.783,259.7 203.85,250.5C197.017,248.1 189.217,248.1 180.45,250.5L180.55,249.6C193.117,244.933 204.9,244.933 215.9,249.6L224.65,259.4L224.4,259.6" style="fill:url(#_Linear7);"/>
                <path d="M233,258.9L229.3,261L216.9,245.4C211.767,243.867 206.217,242.85 200.25,242.35C215.05,239.05 219.1,233.55 212.4,225.85L214.9,226.25C222.133,229.95 227.6,234.6 231.3,240.2C234.433,247.033 235.633,252.9 234.9,257.8L233,258.9" style="fill:url(#_Linear8);"/>
                <path d="M264.05,206.85L264.3,207.6L263.8,207.2L264.05,206.85M224.65,259.4L224.65,259.45L224.4,259.6L224.65,259.4" style="fill:#7c5500;"/>
                <path d="M249.35,196.4C254.683,198.333 259.583,201.817 264.05,206.85L263.8,207.2L258.15,202.65C258.817,206.617 257.267,208.117 253.5,207.15L251.9,204.7L249.35,196.4" style="fill:url(#_Linear9);"/>
                <path d="M226.55,195.7L234,194.85L233.45,196.7L226.55,195.7" style="fill:url(#_Linear10);"/>
                <path d="M234,194.85C235.433,189.85 236.3,185.433 236.6,181.6C236.533,179.167 236.817,177.75 237.45,177.35C241.783,184.083 242.783,192.517 240.45,202.65C237.35,206.183 233.817,207.55 229.85,206.75C231.25,203.183 232.45,199.833 233.45,196.7L234,194.85" style="fill:url(#_Linear11);"/>
                <path d="M264.3,207.6C265.267,210.933 265.517,214.083 265.05,217.05C263.283,222.283 261.033,226.267 258.3,229C258.433,220.2 256.833,212.917 253.5,207.15C257.267,208.117 258.817,206.617 258.15,202.65L263.8,207.2L264.3,207.6" style="fill:url(#_Linear12);"/>
                <path d="M238.5,259.8L233,258.9L234.9,257.8C235.633,252.9 234.433,247.033 231.3,240.2C227.6,234.6 222.133,229.95 214.9,226.25L212.4,225.85C201.267,224.317 190.317,226.567 179.55,232.6C178.417,231.2 177.75,229.55 177.55,227.65C189.217,220.683 200.883,217.833 212.55,219.1C215.45,219.433 218.367,220.017 221.3,220.85C229.067,226.117 234.8,233.167 238.5,242C239.567,247.933 239.567,253.867 238.5,259.8M229.3,261C227.4,261.533 225.767,261.067 224.4,259.6L224.65,259.45L224.65,259.4L215.9,249.6C204.9,244.933 193.117,244.933 180.55,249.6L180.45,250.5L180.35,251.85C178.417,251.417 177.1,250.067 176.4,247.8L176.4,247.75C178.767,244.017 184.35,242.1 193.15,242L200.25,242.35C206.217,242.85 211.767,243.867 216.9,245.4L229.3,261" style="fill:#5b3702;"/>
                <path d="M222.15,195.65C223.65,195.583 225.117,195.6 226.55,195.7L234,194.85C235.433,189.85 236.3,185.433 236.6,181.6C236.533,179.167 236.817,177.75 237.45,177.35C238.117,176.917 239.167,177.65 240.6,179.55C244,184.017 246.917,189.633 249.35,196.4C254.683,198.333 259.583,201.817 264.05,206.85L264.3,207.6C265.267,210.933 265.517,214.083 265.05,217.05C263.283,222.283 261.033,226.267 258.3,229L257.85,236.2C254.417,247.733 247.967,255.6 238.5,259.8L233,258.9L229.3,261C227.4,261.533 225.767,261.067 224.4,259.6L211.1,268L196.6,268.6C191.667,268.167 186.917,267.033 182.35,265.2C180.717,261.133 180.05,256.683 180.35,251.85C178.417,251.417 177.1,250.067 176.4,247.8L176.15,246.8L176.4,247.75C176.5,241.917 177.55,236.867 179.55,232.6C178.417,231.2 177.75,229.55 177.55,227.65L179.2,224.1C172.633,217 169.417,207.65 169.55,196.05C169.75,195.617 169.983,195.3 170.25,195.1C171.183,194.167 172.283,194.75 173.55,196.85C177.783,202.55 182.533,206.933 187.8,210C189.1,208.233 190.483,206.517 191.95,204.85C202.917,199.083 212.983,196.017 222.15,195.65M212.55,219.1C215.45,219.433 218.367,220.017 221.3,220.85C229.067,226.117 234.8,233.167 238.5,242C239.567,247.933 239.567,253.867 238.5,259.8M180.05,222.35C182.283,218.05 184.867,213.933 187.8,210M179.2,224.1L180.05,222.35M180.45,250.5L180.35,251.85M224.65,259.4L215.9,249.6C204.9,244.933 193.117,244.933 180.55,249.6L180.45,250.5M176.4,247.75C178.767,244.017 184.35,242.1 193.15,242L200.25,242.35C206.217,242.85 211.767,243.867 216.9,245.4L229.3,261M212.4,225.85C201.267,224.317 190.317,226.567 179.55,232.6M223.55,206.75C225.15,208.283 227.25,208.283 229.85,206.75C231.25,203.183 232.45,199.833 233.45,196.7L226.55,195.7M233,258.9L234.9,257.8C235.633,252.9 234.433,247.033 231.3,240.2C227.6,234.6 222.133,229.95 214.9,226.25L212.4,225.85M212.55,219.1C200.883,217.833 189.217,220.683 177.55,227.65M224.65,259.4L224.65,259.45L224.4,259.6M249.35,196.4L251.9,204.7L253.5,207.15C256.833,212.917 258.433,220.2 258.3,229M233.45,196.7L234,194.85M251.9,204.7C252.2,205.767 252.517,208.55 252.85,213.05C252.15,218.417 250.2,222.483 247,225.25L247,230.65" style="fill:none;fill-rule:nonzero;stroke:#000;stroke-opacity:0.39;stroke-width:0.05px;"/>
                <path d="M250.1,245.8C249.167,245.8 248.367,245.25 247.7,244.15C247.033,243.083 246.7,241.783 246.7,240.25C246.7,238.717 247.033,237.4 247.7,236.3C248.367,235.233 249.167,234.7 250.1,234.7C251.033,234.7 251.833,235.233 252.5,236.3C253.167,237.4 253.5,238.717 253.5,240.25C253.5,241.783 253.167,243.083 252.5,244.15C251.833,245.25 251.033,245.8 250.1,245.8" style="fill-opacity:0.59;"/>
                <path d="M341.2,151.75C349.533,141.717 359.15,134.85 370.05,131.15C374.083,132.017 375.233,133.633 373.5,136C361.867,139.3 351.883,145.217 343.55,153.75C344.05,154.45 344.417,155.217 344.65,156.05C358.383,151.317 370.083,150.15 379.75,152.55C381.283,156.25 379.85,158.05 375.45,157.95C366.45,155.783 356.267,156.267 344.9,159.4C344.833,160.2 344.65,160.933 344.35,161.6C344.983,170.6 337.683,182.983 322.45,198.75C294.95,225.883 270.8,240.8 250,243.5C246.5,241.933 245.933,239.667 248.3,236.7C266.133,236.667 289.617,222.483 318.75,194.15C330.617,182.083 337.117,172.467 338.25,165.3C337.217,165 336.283,164.35 335.45,163.35C334.383,161.983 333.85,160.333 333.85,158.4C333.85,157.133 334.083,156 334.55,155C330.35,151.6 322.8,149.733 311.9,149.4C282.2,148.667 253.2,155.6 224.9,170.2C205.067,182.133 194.217,193.733 192.35,205L186.95,210.4L186.95,209.25C187.383,193.583 199.45,179.333 223.15,166.5C253.183,150.9 283.2,143.483 313.2,144.25C325.033,145.217 333.5,147.633 338.6,151.5L339.4,151.4L341.2,151.75" style="fill:url(#_Linear13);"/>
            </g>
        </g>
    </g>
    <defs>
        <linearGradient id="_Linear1" x1="0" y1="0" x2="1" y2="0" gradientUnits="userSpaceOnUse" gradientTransform="matrix(-50.9542,-50.9542,50.9542,-50.9542,259.393,230.561)"><stop offset="0" style="stop-color:#866a00;stop-opacity:1"/><stop offset="1" style="stop-color:#5e4b00;stop-opacity:1"/></linearGradient>
        <linearGradient id="_Linear2" x1="0" y1="0" x2="1" y2="0" gradientUnits="userSpaceOnUse" gradientTransform="matrix(-8.02816,-13.7626,13.7626,-8.02816,182.105,210.694)"><stop offset="0" style="stop-color:#866a00;stop-opacity:1"/><stop offset="1" style="stop-color:#5e4b00;stop-opacity:1"/></linearGradient>
        <linearGradient id="_Linear3" x1="0" y1="0" x2="1" y2="0" gradientUnits="userSpaceOnUse" gradientTransform="matrix(6.06208,-10.3219,10.3219,6.06208,175.591,213.207)"><stop offset="0" style="stop-color:#fc0;stop-opacity:1"/><stop offset="1" style="stop-color:#feeeb4;stop-opacity:1"/></linearGradient>
        <linearGradient id="_Linear4" x1="0" y1="0" x2="1" y2="0" gradientUnits="userSpaceOnUse" gradientTransform="matrix(32.4403,-8.68352,8.68352,32.4403,193.895,215.607)"><stop offset="0" style="stop-color:#fc0;stop-opacity:1"/><stop offset="1" style="stop-color:#feeeb4;stop-opacity:1"/></linearGradient>
        <linearGradient id="_Linear5" x1="0" y1="0" x2="1" y2="0" gradientUnits="userSpaceOnUse" gradientTransform="matrix(28.5082,0,0,28.5082,187.146,239.615)"><stop offset="0" style="stop-color:#fc0;stop-opacity:1"/><stop offset="1" style="stop-color:#feeeb4;stop-opacity:1"/></linearGradient>
        <linearGradient id="_Linear6" x1="0" y1="0" x2="1" y2="0" gradientUnits="userSpaceOnUse" gradientTransform="matrix(27.1974,0,0,27.1974,185.751,261.659)"><stop offset="0" style="stop-color:#fc0;stop-opacity:1"/><stop offset="1" style="stop-color:#feeeb4;stop-opacity:1"/></linearGradient>
        <linearGradient id="_Linear7" x1="0" y1="0" x2="1" y2="0" gradientUnits="userSpaceOnUse" gradientTransform="matrix(-11.7965,-11.7965,11.7965,-11.7965,212.028,259.069)"><stop offset="0" style="stop-color:#866a00;stop-opacity:1"/><stop offset="1" style="stop-color:#5e4b00;stop-opacity:1"/></linearGradient>
        <linearGradient id="_Linear8" x1="0" y1="0" x2="1" y2="0" gradientUnits="userSpaceOnUse" gradientTransform="matrix(-27.0336,-27.0336,27.0336,-27.0336,227.466,247.868)"><stop offset="0" style="stop-color:#866a00;stop-opacity:1"/><stop offset="1" style="stop-color:#5e4b00;stop-opacity:1"/></linearGradient>
        <linearGradient id="_Linear9" x1="0" y1="0" x2="1" y2="0" gradientUnits="userSpaceOnUse" gradientTransform="matrix(3.93216,-6.71744,6.71744,3.93216,255.3,208.239)"><stop offset="0" style="stop-color:#fc0;stop-opacity:1"/><stop offset="1" style="stop-color:#feeeb4;stop-opacity:1"/></linearGradient>
        <linearGradient id="_Linear10" x1="0" y1="0" x2="1" y2="0" gradientUnits="userSpaceOnUse" gradientTransform="matrix(2.29376,-3.76832,3.76832,2.29376,230.016,197.674)"><stop offset="0" style="stop-color:#fc0;stop-opacity:1"/><stop offset="1" style="stop-color:#feeeb4;stop-opacity:1"/></linearGradient>
        <linearGradient id="_Linear11" x1="0" y1="0" x2="1" y2="0" gradientUnits="userSpaceOnUse" gradientTransform="matrix(14.9094,-25.7229,25.7229,14.9094,235.032,199.895)"><stop offset="0" style="stop-color:#fc0;stop-opacity:1"/><stop offset="1" style="stop-color:#feeeb4;stop-opacity:1"/></linearGradient>
        <linearGradient id="_Linear12" x1="0" y1="0" x2="1" y2="0" gradientUnits="userSpaceOnUse" gradientTransform="matrix(-9.50272,-35.3894,35.3894,-9.50272,262.359,216.73)"><stop offset="0" style="stop-color:#866a00;stop-opacity:1"/><stop offset="1" style="stop-color:#5e4b00;stop-opacity:1"/></linearGradient>
        <linearGradient id="_Linear13" x1="0" y1="0" x2="1" y2="0" gradientUnits="userSpaceOnUse" gradientTransform="matrix(193.331,0,0,193.331,186.984,196.297)"><stop offset="0" style="stop-color:#630;stop-opacity:1"/><stop offset="1" style="stop-color:#1a0d00;stop-opacity:1"/></linearGradient>
    </defs>
</svg>
