<?xml version="1.0" encoding="UTF-8" standalone="no"?>
<!DOCTYPE svg PUBLIC "-//W3C//DTD SVG 1.1//EN" "http://www.w3.org/Graphics/SVG/1.1/DTD/svg11.dtd">
<svg width="100%" height="100%" viewBox="0 0 296 215" version="1.1" xmlns="http://www.w3.org/2000/svg" xmlns:xlink="http://www.w3.org/1999/xlink" xml:space="preserve" xmlns:serif="http://www.serif.com/" style="fill-rule:evenodd;clip-rule:evenodd;stroke-miterlimit:3;">
    <g transform="matrix(1,0,0,1,-6.58018,31.255)">
        <g transform="matrix(9.58411,0,0,9.58411,-59.2303,-2.08656)">
            <g id="sprite0" transform="matrix(1,0,0,1,21.65,13.5)">
                <g id="sprite1" transform="matrix(1,0,0,1,0.6,-3.7)">
                    <g id="shape0">
                        <path d="M-9.2,2.6L-9.3,1.8C-9.167,1.6 -9.05,1.617 -8.95,1.85C-8.85,2.083 -8.85,2.283 -8.95,2.45L-9.05,2.6L-9.2,2.6M-9.45,3.5L-9.5,3.3L-9.45,3.1C-9.317,2.9 -9.2,2.833 -9.1,2.9C-9,2.933 -9,3.05 -9.1,3.25L-9.45,3.5" style="fill:#bfe7ba;fill-opacity:0.48;"/>
                    </g>
                    <g id="base2" transform="matrix(1,0,0,1,-2,-1.1)">
                        <g id="shape1">
                            <path d="M1.75,-2.95C1.75,-2.35 1.5,-1.817 1,-1.35C0.5,-0.917 -0.1,-0.7 -0.8,-0.7C-1.5,-0.7 -2.1,-0.917 -2.6,-1.35C-3.1,-1.817 -3.35,-2.35 -3.35,-2.95C-3.35,-3.583 -3.1,-4.133 -2.6,-4.6C-2.1,-5.033 -1.5,-5.25 -0.8,-5.25C-0.1,-5.25 0.5,-5.033 1,-4.6C1.5,-4.133 1.75,-3.583 1.75,-2.95M9.3,1.7C9.467,2.367 9.317,3.017 8.85,3.65C8.417,4.283 7.783,4.7 6.95,4.9L4.65,4.75C3.95,4.45 3.517,3.967 3.35,3.3C3.183,2.633 3.317,1.983 3.75,1.35C4.217,0.75 4.85,0.333 5.65,0.1L7.95,0.25C8.683,0.55 9.133,1.033 9.3,1.7M-1.85,2.45L-3,2.8L-4.15,2.45L-4.6,1.55C-4.6,1.217 -4.45,0.933 -4.15,0.7C-3.817,0.467 -3.433,0.35 -3,0.35C-2.567,0.35 -2.183,0.467 -1.85,0.7C-1.55,0.933 -1.4,1.217 -1.4,1.55C-1.4,1.883 -1.55,2.183 -1.85,2.45M-6.95,2.95C-7.05,2.717 -7.167,2.7 -7.3,2.9L-7.2,3.7L-7.05,3.7L-6.95,3.55C-6.85,3.383 -6.85,3.183 -6.95,2.95M-9.15,3.15L-8.3,2.35C-7.933,2.183 -7.6,2.183 -7.3,2.35C-7,2.517 -6.833,2.8 -6.8,3.2C-6.733,3.567 -6.817,3.95 -7.05,4.35L-7.9,5.15L-8.9,5.1C-9.2,4.933 -9.367,4.667 -9.4,4.3L-9.15,3.15M-7.1,4C-7.2,3.933 -7.317,4 -7.45,4.2L-7.5,4.4L-7.45,4.6L-7.1,4.35C-7,4.15 -7,4.033 -7.1,4" style="fill:#77ce6c;fill-opacity:0.48;"/>
                        </g>
                    </g>
                    <g id="shape2">
                        <path d="M4.55,-0.4C4.45,-0.767 4.683,-0.917 5.25,-0.85C5.817,-0.783 6.133,-0.6 6.2,-0.3L6.15,-0.05L5.9,0.2L5.15,-0.1L4.55,-0.4M6.85,1.4L6.45,1.25L6.4,1C6.3,0.633 6.367,0.4 6.6,0.3C6.833,0.2 7,0.333 7.1,0.7C7.2,1.1 7.117,1.333 6.85,1.4M-1.25,-4.8L-1.8,-5.2L-2.25,-5.65C-2.25,-5.983 -2.033,-6.05 -1.6,-5.85C-1.167,-5.65 -0.95,-5.4 -0.95,-5.1L-1,-4.9L-1.25,-4.8M-1.1,-3.95L-0.75,-4.5C-0.55,-4.533 -0.45,-4.367 -0.45,-4C-0.45,-3.633 -0.55,-3.45 -0.75,-3.45L-1.05,-3.7L-1.1,-3.95M-5.05,1.6C-5.283,1.6 -5.4,1.55 -5.4,1.45L-5.25,1.3L-5.1,1.3C-4.867,1.3 -4.733,1.35 -4.7,1.45C-4.667,1.55 -4.783,1.6 -5.05,1.6M-4.25,1.35L-4.4,1.35L-4.5,1.2L-3.9,0.75C-3.667,0.75 -3.617,0.85 -3.75,1.05L-4.25,1.35" style="fill:#e7e7e7;fill-opacity:0.4;"/>
                    </g>
                    <g id="sprite3" transform="matrix(0.4221,0,0,0.4221,-15.35,2.3)">
                        <g id="shape3">
                            <path d="M4.35,3.2C6.783,3.633 8.65,4.267 9.95,5.1C10.717,6.667 10.467,8.05 9.2,9.25C8.267,7.783 6.933,6.483 5.2,5.35C5.5,4.617 5.217,3.9 4.35,3.2M8.15,5.15L5.2,5.35L8.15,5.15" style="fill:#c7b286;"/>
                            <path d="M9.2,9.25C6.767,7.883 3.7,6.933 0,6.4C1.733,5.4 3.167,4.317 4.3,3.15L4.35,3.2C5.217,3.9 5.5,4.617 5.2,5.35C6.933,6.483 8.267,7.783 9.2,9.25" style="fill:#dedcc3;"/>
                            <path d="M9.2,9.25C6.767,7.883 3.7,6.933 0,6.4C1.733,5.4 3.167,4.317 4.3,3.15M5.2,5.35L8.15,5.15" style="fill:none;fill-rule:nonzero;stroke:#897c5b;stroke-width:0.05px;"/>
                            <path d="M6.3,7C7.367,7.433 7.983,8.117 8.15,9.05C10.017,9.583 11.683,10.45 13.15,11.65C10.717,11.183 8.133,11.483 5.4,12.55C5.967,10.617 6.267,8.767 6.3,7" style="fill:#dedcc3;"/>
                            <path d="M13.15,11.65C11.683,10.45 10.017,9.583 8.15,9.05C7.983,8.117 7.367,7.433 6.3,7L11.2,6.7C12.633,8.1 13.283,9.75 13.15,11.65M10.05,7.6L8.15,9.05L10.05,7.6" style="fill:#c7b286;"/>
                            <path d="M6.3,7C6.267,8.767 5.967,10.617 5.4,12.55C8.133,11.483 10.717,11.183 13.15,11.65M8.15,9.05L10.05,7.6" style="fill:none;fill-rule:nonzero;stroke:#897c5b;stroke-width:0.05px;"/>
                            <path d="M18,10.3L16.1,12.35L18,10.3M12.65,11.45C14.983,10.217 17.15,9.433 19.15,9.1C21.75,9.633 23.4,10.7 24.1,12.3C21.5,11.933 18.833,11.95 16.1,12.35C15.4,11.65 14.25,11.35 12.65,11.45" style="fill:#c7b286;"/>
                            <path d="M24.1,12.3C20.567,12.967 17.183,14.333 13.95,16.4C13.817,14.6 13.367,12.95 12.6,11.45L12.65,11.45C14.25,11.35 15.4,11.65 16.1,12.35C18.833,11.95 21.5,11.933 24.1,12.3" style="fill:#dedcc3;"/>
                            <path d="M16.1,12.35L18,10.3M24.1,12.3C20.567,12.967 17.183,14.333 13.95,16.4C13.817,14.6 13.367,12.95 12.6,11.45" style="fill:none;fill-rule:nonzero;stroke:#897c5b;stroke-width:0.05px;"/>
                            <path d="M31.4,10.9L28.75,13L31.4,10.9M41.2,12.75C37.1,12.483 32.95,12.567 28.75,13C27.55,12.333 25.717,12.083 23.25,12.25C26.683,10.95 29.933,10.117 33,9.75C37.167,10.183 39.9,11.183 41.2,12.75" style="fill:#c7b286;"/>
                            <path d="M23.25,12.25C25.717,12.083 27.55,12.333 28.75,13C32.95,12.567 37.1,12.483 41.2,12.75C35.8,13.517 30.717,14.967 25.95,17.1C25.483,15.333 24.567,13.717 23.2,12.25L23.25,12.25" style="fill:#dedcc3;"/>
                            <path d="M28.75,13L31.4,10.9M23.2,12.25C24.567,13.717 25.483,15.333 25.95,17.1C30.717,14.967 35.8,13.517 41.2,12.75" style="fill:none;fill-rule:nonzero;stroke:#897c5b;stroke-width:0.05px;"/>
                            <path d="M70.05,0C70.117,1.833 70.433,3.667 71,5.5C68.333,5.333 65.833,5.9 63.5,7.2C64.933,5.4 66.533,3.917 68.3,2.75C68.5,1.717 69.083,0.8 70.05,0" style="fill:#dedcc3;"/>
                            <path d="M70.05,0C69.083,0.8 68.5,1.717 68.3,2.75C66.533,3.917 64.933,5.4 63.5,7.2C63.367,5.267 63.983,3.317 65.35,1.35C66.65,0.55 68.217,0.1 70.05,0M66.5,1.85L68.3,2.75L66.5,1.85" style="fill:#c7b286;"/>
                            <path d="M63.5,7.2C65.833,5.9 68.333,5.333 71,5.5C70.433,3.667 70.117,1.833 70.05,0M68.3,2.75L66.5,1.85" style="fill:none;fill-rule:nonzero;stroke:#897c5b;stroke-width:0.05px;"/>
                            <path d="M63.05,7.6C60.417,7.933 57.783,8.65 55.15,9.75C56.217,7.817 58.117,6.217 60.85,4.95C62.75,4.75 64.7,5.017 66.7,5.75C65.133,6.05 63.917,6.667 63.05,7.6L61.7,5.95L63.05,7.6" style="fill:#c7b286;"/>
                            <path d="M55.15,9.75C57.783,8.65 60.417,7.933 63.05,7.6C63.917,6.667 65.133,6.05 66.7,5.75C65.6,7.55 64.75,9.45 64.15,11.45C61.45,10.083 58.45,9.517 55.15,9.75" style="fill:#dedcc3;"/>
                            <path d="M63.05,7.6L61.7,5.95M55.15,9.75C58.45,9.517 61.45,10.083 64.15,11.45C64.75,9.45 65.6,7.55 66.7,5.75" style="fill:none;fill-rule:nonzero;stroke:#897c5b;stroke-width:0.05px;"/>
                            <path d="M40.45,12.8C44.15,11.833 47.833,11.233 51.5,11C52.7,10.1 54.383,9.517 56.55,9.25C55.017,11.017 53.833,12.883 53,14.85C49.267,13.383 45.083,12.7 40.45,12.8" style="fill:#dedcc3;"/>
                            <path d="M40.45,12.8C41.983,10.933 44.65,9.417 48.45,8.25C51.083,8.117 53.783,8.45 56.55,9.25C54.383,9.517 52.7,10.1 51.5,11C47.833,11.233 44.15,11.833 40.45,12.8M49.6,9.25L51.5,11L49.6,9.25" style="fill:#c7b286;"/>
                            <path d="M51.5,11L49.6,9.25M40.45,12.8C45.083,12.7 49.267,13.383 53,14.85C53.833,12.883 55.017,11.017 56.55,9.25" style="fill:none;fill-rule:nonzero;stroke:#897c5b;stroke-width:0.05px;"/>
                        </g>
                    </g>
                    <g id="shape4" transform="matrix(1,0,0,1,-0.6,3.7)">
                        <path d="M14.2,-1.85L13.75,-1L13.35,0.1C13.017,0.233 12.7,0.4 12.4,0.6L12.05,0.8L10.35,1.75C10.217,1.017 10.533,0.4 11.3,-0.1L12.05,-0.45L12.5,-0.95L14.2,-1.85M13.75,-1L12.5,-0.95L13.75,-1M11.75,0.1L12.4,0.6L11.75,0.1" style="fill:#e5c59a;"/>
                        <path d="M13.35,0.1L13.75,-1L14.2,-1.85C14.7,-1.45 15.283,-1.083 15.95,-0.75L13.35,0.1C13.35,0.733 13.467,1.367 13.7,2L10.35,1.75L12.05,0.8L12.4,0.6C12.7,0.4 13.017,0.233 13.35,0.1" style="fill:#fff5e0;"/>
                        <path d="M13.35,0.1L15.95,-0.75C15.283,-1.083 14.7,-1.45 14.2,-1.85M12.5,-0.95L13.75,-1M12.4,0.6L11.75,0.1M10.35,1.75L13.7,2C13.467,1.367 13.35,0.733 13.35,0.1L10.35,1.75Z" style="fill:none;fill-rule:nonzero;stroke:#9e8769;stroke-width:0.05px;"/>
                        <path d="M10.6,1.9L9.15,2.4L6.15,2.8L5.75,2.75C6.05,2.017 6.75,1.5 7.85,1.2C8.683,1.2 9.6,1.433 10.6,1.9M8.35,1.6L9.15,2.4L8.35,1.6" style="fill:#e5c59a;"/>
                        <path d="M9.15,2.4L10.6,1.9C10.3,2.533 10.117,3.233 10.05,4C8.817,3.333 7.517,2.933 6.15,2.8L9.15,2.4" style="fill:#fff5e0;"/>
                        <path d="M5.75,2.75L6.15,2.8C7.517,2.933 8.817,3.333 10.05,4C10.117,3.233 10.3,2.533 10.6,1.9M9.15,2.4L8.35,1.6" style="fill:none;fill-rule:nonzero;stroke:#9e8769;stroke-width:0.05px;"/>
                        <path d="M-1.45,3.6L3.8,3.2C4.3,2.9 5.083,2.717 6.15,2.65C5.583,3.35 5.2,4.067 5,4.8C2.967,4.1 0.817,3.7 -1.45,3.6" style="fill:#fff5e0;"/>
                        <path d="M6.15,2.65C5.083,2.717 4.3,2.9 3.8,3.2L-1.45,3.6C-0.883,2.9 0.267,2.367 2,2C3.3,2 4.683,2.217 6.15,2.65M2.7,2.45L3.8,3.2L2.7,2.45" style="fill:#e5c59a;"/>
                        <path d="M-1.45,3.6C0.817,3.7 2.967,4.1 5,4.8C5.2,4.067 5.583,3.35 6.15,2.65" style="fill:none;fill-rule:nonzero;stroke:#9e8769;stroke-opacity:0.53;stroke-width:0.05px;"/>
                        <path d="M3.8,3.2L2.7,2.45" style="fill:none;fill-rule:nonzero;stroke:#9e8769;stroke-width:0.05px;"/>
                        <path d="M-13.6,-0.6C-12.8,-0.633 -12.15,-0.5 -11.65,-0.2C-11.05,0.567 -10.767,1.367 -10.8,2.2C-11.433,1.5 -12.117,0.933 -12.85,0.5C-12.95,0.067 -13.2,-0.3 -13.6,-0.6M-12.1,0.05L-12.85,0.5L-12.1,0.05" style="fill:#e5c59a;"/>
                        <path d="M-13.6,-0.6C-13.2,-0.3 -12.95,0.067 -12.85,0.5C-12.117,0.933 -11.433,1.5 -10.8,2.2C-11.8,1.733 -12.867,1.583 -14,1.75C-13.767,0.95 -13.633,0.167 -13.6,-0.6" style="fill:#fff5e0;"/>
                        <path d="M-12.85,0.5L-12.1,0.05M-13.6,-0.6C-13.633,0.167 -13.767,0.95 -14,1.75C-12.867,1.583 -11.8,1.733 -10.8,2.2" style="fill:none;fill-rule:nonzero;stroke:#9e8769;stroke-width:0.05px;"/>
                        <path d="M-10.05,1.6L-10.65,2.35L-10.05,1.6M-7.3,2.9L-10.65,2.35C-11.017,1.983 -11.517,1.783 -12.15,1.75C-11.317,1.35 -10.5,1.15 -9.7,1.15C-8.567,1.55 -7.767,2.133 -7.3,2.9" style="fill:#e5c59a;"/>
                        <path d="M-12.15,1.75C-11.517,1.783 -11.017,1.983 -10.65,2.35L-7.3,2.9C-8.7,2.967 -9.967,3.333 -11.1,4C-11.333,3.2 -11.7,2.45 -12.2,1.75L-12.15,1.75" style="fill:#fff5e0;"/>
                        <path d="M-10.65,2.35L-10.05,1.6M-12.2,1.75C-11.7,2.45 -11.333,3.2 -11.1,4C-9.967,3.333 -8.7,2.967 -7.3,2.9" style="fill:none;fill-rule:nonzero;stroke:#9e8769;stroke-width:0.05px;"/>
                        <path d="M-7.85,2.85C-6.95,2.817 -6.25,2.967 -5.75,3.3L-1.1,3.6C-3.067,3.8 -4.833,4.267 -6.4,5C-6.733,4.267 -7.217,3.55 -7.85,2.85" style="fill:#fff5e0;"/>
                        <path d="M-7.85,2.85C-6.717,2.383 -5.583,2.117 -4.45,2.05C-2.883,2.35 -1.767,2.867 -1.1,3.6L-5.75,3.3C-6.25,2.967 -6.95,2.817 -7.85,2.85L-7.9,2.85L-7.85,2.85M-4.95,2.5L-5.75,3.3L-4.95,2.5" style="fill:#e5c59a;"/>
                        <path d="M-5.75,3.3L-4.95,2.5M-7.85,2.85C-7.217,3.55 -6.733,4.267 -6.4,5C-4.833,4.267 -3.067,3.8 -1.1,3.6" style="fill:none;fill-rule:nonzero;stroke:#9e8769;stroke-width:0.05px;"/>
                    </g>
                    <g id="base" transform="matrix(1,0,0,1,-0.25,-1.25)">
                        <g id="shape5">
                            <path d="M6.15,-2.1C7.917,-0.533 9.483,0.433 10.85,0.8C12.65,1.433 13.5,2.583 13.4,4.25C13.033,6.35 8.55,7.7 -0.05,8.3C-7.883,8.1 -12.333,6.95 -13.4,4.85C-13.467,4.35 -12.933,3.617 -11.8,2.65C-8.233,-0.25 -6.267,-2.383 -5.9,-3.75C-5,-7.85 -3.067,-9.183 -0.1,-7.75C2.467,-6.317 4.35,-4.617 5.55,-2.65L6.15,-2.1" style="fill:url(#_Linear1);"/>
                        </g>
                    </g>
                    <g id="shape6">
                        <path d="M-5,-5.75C-4.633,-7.283 -4.083,-6.967 -3.35,-4.8C-2.783,-2.567 -3.633,-0.55 -5.9,1.25C-5.733,2.617 -4.8,3.533 -3.1,4C-1.533,4.667 -3.117,4.85 -7.85,4.55C-12.55,3.883 -12.25,1.717 -6.95,-1.95C-5.817,-3.083 -5.167,-4.35 -5,-5.75" style="fill:#191919;fill-opacity:0.28;"/>
                        <path d="M6.45,-0.85C7.45,-0.083 8.683,0.567 10.15,1.1M-2.2,-8.1C0.233,-6.833 2.15,-5.1 3.55,-2.9" style="fill:none;fill-rule:nonzero;stroke:#fff;stroke-opacity:0.23;stroke-width:3px;"/>
                    </g>
                    <g id="shape7" transform="matrix(1,0,0,1,-0.25,-1.25)">
                        <path d="M6.15,-2.1C7.917,-0.533 9.483,0.433 10.85,0.8C12.65,1.433 13.5,2.583 13.4,4.25C13.033,6.35 8.55,7.7 -0.05,8.3C-7.883,8.1 -12.333,6.95 -13.4,4.85C-13.467,4.35 -12.933,3.617 -11.8,2.65C-8.233,-0.25 -6.267,-2.383 -5.9,-3.75C-5,-7.85 -3.067,-9.183 -0.1,-7.75C2.467,-6.317 4.35,-4.617 5.55,-2.65L6.15,-2.1" style="fill:url(#_Linear2);"/>
                    </g>
                    <g id="shape8">
                        <path d="M5.9,-3.35C7.667,-1.783 9.233,-0.817 10.6,-0.45C12.4,0.183 13.25,1.333 13.15,3C12.783,5.1 8.3,6.45 -0.3,7.05C-8.133,6.85 -12.583,5.7 -13.65,3.6C-13.717,3.1 -13.183,2.367 -12.05,1.4C-8.483,-1.5 -6.517,-3.633 -6.15,-5C-5.25,-9.1 -3.317,-10.433 -0.35,-9C2.217,-7.567 4.1,-5.867 5.3,-3.9L5.9,-3.35Z" style="fill:none;fill-rule:nonzero;stroke:#000;stroke-opacity:0.31;stroke-width:0.2px;"/>
                    </g>
                    <g id="epine7" transform="matrix(-0.1382,-0.0418,-0.0588,0.1637,8.69982,-1.80058)">
                        <g id="shape9">
                            <path d="M6.85,6C5.55,7.433 4.017,8.217 2.25,8.35L-1.9,8.45C-4.067,7.583 -5.7,6.417 -6.8,4.95L-6.05,2.95C-4.95,0.383 -2.983,-2.883 -0.15,-6.85L0.05,-7.15C3.017,-3.417 5.033,-0.35 6.1,2.05C6.633,3.317 6.783,4.117 6.55,4.45L6.85,6" style="fill:#99d720;"/>
                            <path d="M0.05,-7.15C3.017,-3.417 5.033,-0.35 6.1,2.05C6.633,3.317 6.783,4.117 6.55,4.45L6.85,6" style="fill:none;fill-rule:nonzero;stroke:#fff;stroke-width:0.05px;"/>
                        </g>
                    </g>
                    <g id="epine4" transform="matrix(0.2818,0,-0.0044,0.2818,0.20048,-2.49963)">
                        <g id="shape91" serif:id="shape9">
                            <path d="M6.85,6C5.55,7.433 4.017,8.217 2.25,8.35L-1.9,8.45C-4.067,7.583 -5.7,6.417 -6.8,4.95L-6.05,2.95C-4.95,0.383 -2.983,-2.883 -0.15,-6.85L0.05,-7.15C3.017,-3.417 5.033,-0.35 6.1,2.05C6.633,3.317 6.783,4.117 6.55,4.45L6.85,6" style="fill:#98d620;"/>
                            <path d="M0.05,-7.15C3.017,-3.417 5.033,-0.35 6.1,2.05C6.633,3.317 6.783,4.117 6.55,4.45L6.85,6" style="fill:none;fill-rule:nonzero;stroke:#fff;stroke-width:0.05px;"/>
                        </g>
                    </g>
                    <g id="epine5" transform="matrix(-0.2508,-0.1096,-0.1096,0.2508,4.80002,-5.09976)">
                        <g id="shape92" serif:id="shape9">
                            <path d="M6.85,6C5.55,7.433 4.017,8.217 2.25,8.35L-1.9,8.45C-4.067,7.583 -5.7,6.417 -6.8,4.95L-6.05,2.95C-4.95,0.383 -2.983,-2.883 -0.15,-6.85L0.05,-7.15C3.017,-3.417 5.033,-0.35 6.1,2.05C6.633,3.317 6.783,4.117 6.55,4.45L6.85,6" style="fill:#6a9517;"/>
                            <path d="M0.05,-7.15C3.017,-3.417 5.033,-0.35 6.1,2.05C6.633,3.317 6.783,4.117 6.55,4.45L6.85,6" style="fill:none;fill-rule:nonzero;stroke:#fff;stroke-width:0.05px;"/>
                        </g>
                    </g>
                    <g id="epine2" transform="matrix(0.2621,-0.0792,0.0926,0.258,-8.40003,-2.05006)">
                        <g id="shape93" serif:id="shape9">
                            <path d="M6.85,6C5.55,7.433 4.017,8.217 2.25,8.35L-1.9,8.45C-4.067,7.583 -5.7,6.417 -6.8,4.95L-6.05,2.95C-4.95,0.383 -2.983,-2.883 -0.15,-6.85L0.05,-7.15C3.017,-3.417 5.033,-0.35 6.1,2.05C6.633,3.317 6.783,4.117 6.55,4.45L6.85,6" style="fill:#6a9616;"/>
                            <path d="M0.05,-7.15C3.017,-3.417 5.033,-0.35 6.1,2.05C6.633,3.317 6.783,4.117 6.55,4.45L6.85,6" style="fill:none;fill-rule:nonzero;stroke:#fff;stroke-width:0.05px;"/>
                        </g>
                    </g>
                    <g id="epine6" transform="matrix(-0.205,-0.0667,-0.0473,0.2361,5.2004,0.400255)">
                        <g id="shape94" serif:id="shape9">
                            <path d="M6.85,6C5.55,7.433 4.017,8.217 2.25,8.35L-1.9,8.45C-4.067,7.583 -5.7,6.417 -6.8,4.95L-6.05,2.95C-4.95,0.383 -2.983,-2.883 -0.15,-6.85L0.05,-7.15C3.017,-3.417 5.033,-0.35 6.1,2.05C6.633,3.317 6.783,4.117 6.55,4.45L6.85,6" style="fill:#98d620;"/>
                            <path d="M0.05,-7.15C3.017,-3.417 5.033,-0.35 6.1,2.05C6.633,3.317 6.783,4.117 6.55,4.45L6.85,6" style="fill:none;fill-rule:nonzero;stroke:#fff;stroke-width:0.05px;"/>
                        </g>
                    </g>
                    <g id="epine3" transform="matrix(-0.2232,-0.0435,-0.0175,0.2306,-2.65008,2.60009)">
                        <g id="shape95" serif:id="shape9">
                            <path d="M6.85,6C5.55,7.433 4.017,8.217 2.25,8.35L-1.9,8.45C-4.067,7.583 -5.7,6.417 -6.8,4.95L-6.05,2.95C-4.95,0.383 -2.983,-2.883 -0.15,-6.85L0.05,-7.15C3.017,-3.417 5.033,-0.35 6.1,2.05C6.633,3.317 6.783,4.117 6.55,4.45L6.85,6" style="fill:#9ad720;"/>
                            <path d="M0.05,-7.15C3.017,-3.417 5.033,-0.35 6.1,2.05C6.633,3.317 6.783,4.117 6.55,4.45L6.85,6" style="fill:none;fill-rule:nonzero;stroke:#fff;stroke-width:0.05px;"/>
                        </g>
                    </g>
                    <g id="epine1" transform="matrix(0.2232,-0.0435,0.0175,0.2306,-8.64992,2.45009)">
                        <g id="shape96" serif:id="shape9">
                            <path d="M6.85,6C5.55,7.433 4.017,8.217 2.25,8.35L-1.9,8.45C-4.067,7.583 -5.7,6.417 -6.8,4.95L-6.05,2.95C-4.95,0.383 -2.983,-2.883 -0.15,-6.85L0.05,-7.15C3.017,-3.417 5.033,-0.35 6.1,2.05C6.633,3.317 6.783,4.117 6.55,4.45L6.85,6" style="fill:#74a318;"/>
                            <path d="M0.05,-7.15C3.017,-3.417 5.033,-0.35 6.1,2.05C6.633,3.317 6.783,4.117 6.55,4.45L6.85,6" style="fill:none;fill-rule:nonzero;stroke:#fff;stroke-width:0.05px;"/>
                        </g>
                    </g>
                    <g id="shape10">
                        <path d="M-1.65,-1.2L-1.5,-1.65C-1.2,-2.383 -0.633,-3.317 0.2,-4.45L-0.3,-0.9L-1.65,-1.2M5.95,-3.2L4.55,-3.45L5.6,-6.8L6,-3.7L5.95,-3.2M8.55,-0.8L9.1,-2.9L9.4,-1.05L9.35,-0.75L8.55,-0.8M6.35,1.9L5.3,1.85L5.55,-1.2L6.3,1.5L6.35,1.9M-8.25,-0.4L-9.75,-0.35L-9.75,-0.8L-9.1,-3.8L-8.25,-0.4M-2.4,4L-2.5,1C-1.933,2.067 -1.55,2.917 -1.35,3.55L-1.25,3.95L-2.4,4M-10.05,3.8L-9.95,3.4L-8.8,0.85L-8.9,3.85L-10.05,3.8" style="fill-opacity:0.12;"/>
                        <path d="M-0.3,-0.9L-0.4,-0.1L-1.7,-1.1L-1.65,-1.2L-0.3,-0.9M4.35,-2.8L4.55,-3.45L5.95,-3.2L5.95,-3.1L4.35,-2.8M9.35,-0.75L9.35,-0.7L8.45,-0.3L8.55,-0.8L9.35,-0.75M5.2,2.55L5.3,1.85L6.35,1.9L6.35,2L5.2,2.55M-9.75,-0.35L-8.25,-0.4L-8.1,0.3L-9.75,-0.2L-9.75,-0.35M-1.25,3.95L-1.25,4.05C-1.483,4.317 -1.867,4.517 -2.4,4.65L-2.4,4L-1.25,3.95M-8.9,3.85L-8.9,4.5C-9.433,4.367 -9.817,4.167 -10.05,3.9L-10.05,3.8L-8.9,3.85" style="fill-opacity:0.08;"/>
                        <path d="M-0.3,-0.9C0.467,-0.8 1.25,-0.917 2.05,-1.25L2.1,-0.8C1.733,-0.4 1.3,-0.183 0.8,-0.15L-0.4,-0.1L-0.3,-0.9M4.55,-3.45L4.35,-2.8L3.35,-3.25C2.883,-3.483 2.583,-3.85 2.45,-4.35L2.65,-4.7C3.217,-4.1 3.85,-3.683 4.55,-3.45M8.45,-0.3L7.9,-0.55C7.633,-0.617 7.467,-0.8 7.4,-1.1L7.55,-1.3C7.85,-1.033 8.183,-0.867 8.55,-0.8L8.45,-0.3M5.3,1.85L5.2,2.55L4.35,2.2C3.983,2.033 3.7,1.75 3.5,1.35L3.65,1C4.15,1.5 4.7,1.783 5.3,1.85M-8.1,0.3L-8.25,-0.4C-7.517,-0.567 -6.867,-0.9 -6.3,-1.4L-6.05,-1.05C-6.25,-0.583 -6.583,-0.267 -7.05,-0.1L-8.1,0.3M-2.4,4.65L-3.3,4.45C-3.7,4.35 -4.033,4.1 -4.3,3.7L-4.2,3.35C-3.6,3.75 -3,3.967 -2.4,4L-2.4,4.65M-8.9,4.5L-8.9,3.85C-8.3,3.817 -7.7,3.6 -7.1,3.2L-7,3.55L-8,4.3L-8.9,4.5" style="fill:#fbfbfb;fill-opacity:0.3;"/>
                    </g>
                </g>
                <g id="shape11">
                    <path d="M3.35,-5.8L3.85,-5.75L4.25,-6.1L4.2,-5.6L4.65,-5.2L4.1,-5.25L3.7,-4.8L3.75,-5.4L3.35,-5.8M2.35,-0.3L3.4,-1.25L3.1,0.25L4.1,1.35L2.75,1.05L1.65,2.05L1.9,0.65L0.95,-0.6L2.35,-0.3M9.15,-0.05L9.65,-0.1L9.25,0.3L9.3,0.9L8.9,0.45L8.35,0.5L8.8,0.1L8.75,-0.4L9.15,-0.05M-1.95,-11.25L-1,-11.2L-1.75,-10.65L-1.7,-9.75L-2.25,-10.5L-3.2,-10.5L-2.5,-11.05L-2.5,-11.95L-1.95,-11.25M-6,-2.65L-6.45,-2.25L-6.35,-2.8L-6.75,-3.2L-6.15,-3.1L-5.75,-3.5L-5.85,-2.95L-5.45,-2.55L-6,-2.65" style="fill:#fff;fill-opacity:0.33;"/>
                </g>
            </g>
        </g>
    </g>
    <defs>
        <linearGradient id="_Linear1" x1="0" y1="0" x2="1" y2="0" gradientUnits="userSpaceOnUse" gradientTransform="matrix(3.2768,16.8755,-16.8755,3.2768,6.51402,-9.88119)"><stop offset="0" style="stop-color:#ed1a3b;stop-opacity:0.7"/><stop offset="0.2" style="stop-color:#f78022;stop-opacity:0.7"/><stop offset="0.41" style="stop-color:#fef200;stop-opacity:0.7"/><stop offset="0.62" style="stop-color:#0fb14c;stop-opacity:0.7"/><stop offset="0.83" style="stop-color:#005baa;stop-opacity:0.7"/><stop offset="1" style="stop-color:#922791;stop-opacity:0.7"/></linearGradient>
        <linearGradient id="_Linear2" x1="0" y1="0" x2="1" y2="0" gradientUnits="userSpaceOnUse" gradientTransform="matrix(12.288,-3.2768,3.2768,12.288,-6.46726,1.70201)"><stop offset="0" style="stop-color:#5b5b5b;stop-opacity:0.13"/><stop offset="0.07" style="stop-color:#5b5b5b;stop-opacity:0.13"/><stop offset="0.51" style="stop-color:#9a9a9a;stop-opacity:0.15"/><stop offset="1" style="stop-color:#d0d0d0;stop-opacity:0.33"/></linearGradient>
    </defs>
</svg>
