<?xml version="1.0" encoding="UTF-8"?>
<svg width="53px" height="56px" version="1.1" viewBox="247.92 171.93 53.076 56.175" xmlns="http://www.w3.org/2000/svg" xmlns:xlink="http://www.w3.org/1999/xlink">
<defs>
<linearGradient id="n" x1="-819.2" x2="819.2" gradientTransform="matrix(.021149 0 0 .021622 22 -24.45)" gradientUnits="userSpaceOnUse">
<stop stop-color="#960" offset="0"/>
<stop stop-color="#7e5400" offset="1"/>
</linearGradient>
<linearGradient id="h" x1="-819.2" x2="819.2" gradientTransform="matrix(-.0018311 -.0031891 .0065155 -.0037231 1.6 -5)" gradientUnits="userSpaceOnUse">
<stop stop-color="#ccc" offset="0"/>
<stop stop-color="#e6e6e6" offset=".98824"/>
</linearGradient>
<linearGradient id="g" x1="-819.2" x2="819.2" gradientTransform="matrix(.004425 -.0077362 .0042419 .0024414 -4.45 -5.7)" gradientUnits="userSpaceOnUse">
<stop stop-color="#ccc" offset="0"/>
<stop stop-color="#e6e6e6" offset=".98824"/>
</linearGradient>
<linearGradient id="f" x1="-819.2" x2="819.2" gradientTransform="matrix(-.0029602 .0051117 -.0058136 -.0033569 .75 -2)" gradientUnits="userSpaceOnUse">
<stop stop-color="#666" offset="0"/>
<stop stop-color="#404040" offset=".98824"/>
</linearGradient>
<linearGradient id="e" x1="-819.2" x2="819.2" gradientTransform="matrix(0 .0011749 -.0014496 0 5.05 2.6)" gradientUnits="userSpaceOnUse">
<stop stop-color="#ccc" offset="0"/>
<stop stop-color="#e6e6e6" offset=".98824"/>
</linearGradient>
<linearGradient id="d" x1="-819.2" x2="819.2" gradientTransform="matrix(-.0016022 -.0016022 .0061646 -.0061646 .15 -1.15)" gradientUnits="userSpaceOnUse">
<stop stop-color="#666" offset="0"/>
<stop stop-color="#404040" offset=".98824"/>
</linearGradient>
<linearGradient id="c" x1="-819.2" x2="819.2" gradientTransform="matrix(-.011185 -.01947 .010605 -.006073 -12.55 2.55)" gradientUnits="userSpaceOnUse">
<stop stop-color="#8f7330" offset="0"/>
<stop stop-color="#665122" offset="1"/>
</linearGradient>
<linearGradient id="b" x1="-819.2" x2="819.2" gradientTransform="matrix(-.0056305 .0014801 -.0012207 -.0046234 -1.4 8.55)" gradientUnits="userSpaceOnUse">
<stop stop-color="#999" offset="0"/>
<stop stop-color="#7b7b7b" offset="1"/>
</linearGradient>
<linearGradient id="a" x1="-819.2" x2="819.2" gradientTransform="matrix(-.0063629 -.024017 .018555 -.0048981 -26.75 14.3)" gradientUnits="userSpaceOnUse">
<stop stop-color="#c0993f" offset="0"/>
<stop stop-color="#e1cea6" offset="1"/>
</linearGradient>
<linearGradient id="m" x1="-819.2" x2="819.2" gradientTransform="matrix(.0028687 -.010651 .0057983 .0015411 -28.05 10)" gradientUnits="userSpaceOnUse">
<stop stop-color="#665222" offset="0"/>
<stop stop-color="#403315" offset="1"/>
</linearGradient>
<linearGradient id="l" x1="-819.2" x2="819.2" gradientTransform="matrix(-.0031128 .0054626 -.0042725 -.0024567 -3.6 -7.2)" gradientUnits="userSpaceOnUse">
<stop stop-color="#ccc" offset="0"/>
<stop stop-color="#e6e6e6" offset=".98824"/>
</linearGradient>
<linearGradient id="k" x1="-819.2" x2="819.2" gradientTransform="matrix(-.0033112 .0057983 -.0027618 -.0016022 -4.9 -5.3)" gradientUnits="userSpaceOnUse">
<stop stop-color="#999" offset="0"/>
<stop stop-color="#7b7b7b" offset="1"/>
</linearGradient>
<linearGradient id="j" x1="-819.2" x2="819.2" gradientTransform="matrix(.00073242 -.0027161 .0038452 .0010376 -8 24.65)" gradientUnits="userSpaceOnUse">
<stop stop-color="#665222" offset="0"/>
<stop stop-color="#403315" offset="1"/>
</linearGradient>
<linearGradient id="i" x1="-819.2" x2="819.2" gradientTransform="matrix(-.0036621 -.01384 .011307 -.003006 -27.15 21.45)" gradientUnits="userSpaceOnUse">
<stop stop-color="#8d712f" offset="0"/>
<stop stop-color="#665122" offset="1"/>
</linearGradient>
<g id="o">
<path d="m27.85-39.4v-0.4l1.65-1.35 0.2 0.3-1.85 1.45 1.85-1.45 1.95 4.15-1.35 2.05-2.45-4.75m9.75 11.35-1.95 1.95-2.9-4.8-24.9 24.45-0.9 0.95q-0.9-0.5-1.4-1.15l27.05-27.15 5 5.75" fill="#6f4a00"/>
<path d="m29.7-40.85-0.2-0.3 1.7-1.35 8.3 12.55-0.15 0.15-8.15-12.3-1.5 1.25m-24.1 29.95 24.6-23.65 0.1 0.3-24.7 23.75-0.15-0.2 0.15 0.2-0.9 0.9v-0.4l0.75-0.7 0.15-0.2" fill="#960"/>
<path d="m8-6.2q0.75 0.9 0.65 1.8-0.1-0.8-0.8-1.65l0.15-0.15-1.05 1.05q-0.9-0.45-1.4-1.15-0.95-1.2-0.85-3 0 1.55 0.85 2.65 0.5 0.65 1.4 1.15l0.9-0.95 0.15 0.25m-3.25 5.75 0.35 2.9q0.4 2.75 1.2 5.1l-0.1 0.05q-0.75-2.2-1.1-4.8l-0.4-3.25h0.05-0.05l-0.05-0.05-0.85 0.65v-0.35l0.85-0.65h0.05l0.05 0.4m-12.65-7.65q2.75-4.45 6.4-7.25l1.3 3.1q0.6 1.1 1.35 2.1l0.75 1h0.05l1-1.3 0.75-0.45q1.35-0.65 1.9 0l-0.15 0.2-1.75 0.2-0.75 0.45-1 1.3-0.05-0.05-0.75-1q-0.75-0.95-1.35-2.05l-1.3-3.1q-3.55 2.7-6.25 7-2.1 3.25-3.7 7.4l-0.1-0.1q1.6-4.2 3.65-7.45m4.65 6.8-0.05 0.1h0.1l-0.35 0.55-0.6 0.95 0.45-1 0.35-0.65 0.1 0.05m-0.05 0.1-0.25 0.55 0.25-0.55" fill="#ccc"/>
<path d="m-3.2-1.2q2.95-4.1 6.05-7.4-0.15 0.5 0.15 1.4-2.85 2.95-5.8 6.8l-1.85 2.4-0.2 0.3 0.7-2 0.6-0.95 0.35-0.55m-0.35 0.55-0.6 1.3-0.5 1.35 0.5-1.35 0.6-1.3" fill="#999"/>
<path d="m2.9 20.75q-0.25 4.55-2.35 8.3-2.45 4.4-5.85 6.25l-0.7 0.35-10.6 5.45q2.65-1.5 4.75-4.5l1.05-1.7q0.85-1.55 1.4-3.25l0.6-2.45q5.45-0.45 11.7-8.45" fill="#665222"/>
<path d="m30.3-34.65 1.35-2.05-1.95-4.15 1.5-1.25 8.15 12.3-1.75 1.75-5-5.75-27.05 27.15q-0.85-1.1-0.85-2.65v-0.25-0.05l0.9-0.9 24.7-23.75-0.1-0.3 0.1-0.1" fill="url(#n)"/>
<path d="m7.85-6.05q0.7 0.85 0.8 1.65l-0.55 1.15q-1.9 1.15-5.1-3.95-0.3-0.9-0.15-1.4-3.1 3.3-6.05 7.4h-0.1l0.05-0.1 0.05-0.05 0.5-1q1.6-2.75 4-5.7l0.6-0.75 0.05 0.05 1-1.3 0.75-0.45 1.75-0.2-0.75 0.7v0.4 0.05 0.25q-0.1 1.8 0.85 3 0.5 0.7 1.4 1.15l0.9-0.9" fill="url(#h)"/>
<path d="m1.9-8.8-0.6 0.75q-2.4 2.95-4 5.7l-0.5 1-0.15-0.1 0.65-1.25q1.6-2.8 4-5.75l-0.95-1-2.2-3.6q-3 2.5-5.1 6.05-2.1 3.45-3.35 7.95l-1.15-1.5q1.6-4.15 3.7-7.4 2.7-4.3 6.25-7l1.3 3.1q0.6 1.1 1.35 2.05l0.75 1" fill="url(#g)"/>
<path d="m0.35-9.45 0.95 1q-2.4 2.95-4 5.75l-0.65 1.25v0.1l-0.35 0.65-0.45 1-0.7 2 0.2-0.3-0.2 0.7-0.3 0.9 3.8-0.9q2.7-0.9 5.15-2.55l0.35 2.9q-2.2 1.45-4.45 2.35-3.4 1.3-6.8 1.3l-1.5-3 0.75-1.6q1.45-3.1 3.3-5.75 2.15-3.2 4.9-5.8" fill="url(#f)"/>
<path d="m4.7-0.45 0.4 3.25q0.35 2.6 1.1 4.8l-0.75 0.75-1.3-5.3-0.35-2.9 0.85-0.65 0.05 0.05" fill="url(#e)"/>
<path d="m8.1-3.25-0.7 0.65-2.7 1.75h-0.05l-0.85 0.65v0.35q-2.45 1.65-5.15 2.55l-3.8 0.9 0.3-0.9 0.2-0.7 1.85-2.4q2.95-3.85 5.8-6.8 3.2 5.1 5.1 3.95" fill="url(#d)"/>
<path d="m1.7 11.4 0.05 0.2q1.4 4.9 1.15 9.15-6.25 8-11.7 8.45l0.3-2.3h0.05l4.25-3.55-4.25 1q-0.15-3.3-1.2-6.95-2.95-10.15-7.2-16.95l-2.25-3.2-2.1-2.1q-1.75-1.45-3.3-1.45l-0.05-0.15 9.7-3.2 1.85-0.65 0.35-0.05q2.15-0.5 4.75 2.25-2.05 3.25-3.65 7.45l0.1 0.1-0.1 0.3-1.4-1.75 1.4 1.75 0.1-0.3 1.15 1.5 1.7 2.75 1.5 3q1.45 3.3 2.1 6.9 3.65-0.9 6.6-2.5l0.1 0.3q-3 1.65-6.7 2.55 0.4 2.1 0.55 4.3-0.15-2.2-0.55-4.3 3.7-0.9 6.7-2.55m-6.7 2.55q-0.65-3.6-2.1-6.85l-1.5-3-1.7-2.8-1.25-1.55 1.25 1.55 1.7 2.8 1.5 3q1.45 3.25 2.1 6.85" fill="url(#c)"/>
<path d="m5.45 8.35q-1.75 1.55-3.85 2.75-2.95 1.6-6.6 2.5-0.65-3.6-2.1-6.9 3.4 0 6.8-1.3 2.25-0.9 4.45-2.35l1.3 5.3" fill="url(#b)"/>
<path d="m-16.6 41.1-0.35 0.2q-2.15 1.05-4.65 1.15-6.8 0.25-13.1-5.45-6.3-5.75-4.35-17.45 1.95-11.65 6.55-18.75 3.55-5.45 6.4-6.7l0.85-0.3 0.75-0.1q1.55 0 3.3 1.45l2.1 2.1 2.25 3.2q4.25 6.8 7.2 16.95 1.05 3.65 1.2 6.95-3.05-1.8-2.75 0.85l2.7 1.65v0.05l-0.3 2.3-0.6 2.45q-0.55 1.7-1.4 3.25l-1.05 1.7q-2.1 3-4.75 4.5m-4.3-40.15q-1.15-1.65-2.2-2.35-0.9-0.6-1.65-0.6-2.45 0-5.8 5.95-3.35 5.9-4.75 15.6-0.85 5.7 0.4 9.75 0.85 2.8 2.75 4.75 4.55 4.75 9.45 4.6 3.45-0.15 5.9-3.25 1.05-1.25 1.95-3.05l0.4-0.85q2.4-5.85 0.45-13.75-2.15-8.45-5.25-14.1l-1.65-2.7" fill="url(#a)"/>
<path d="m-34.9 29.3q-1.25-4.05-0.4-9.75 1.4-9.7 4.75-15.6 3.35-5.95 5.8-5.95 0.75 0 1.65 0.6 1.05 0.7 2.2 2.35-1.95 5-2.95 11.95l-0.1 0.5q-7.3 5.65-10.95 15.9" fill="url(#m)"/>
<path d="m-3.2-1.35-0.05 0.05-0.1-0.05v-0.1l0.15 0.1" fill="url(#l)"/>
<path d="m-10.3 0.95q1.25-4.5 3.35-7.95 2.1-3.55 5.1-6.05l2.2 3.6q-2.75 2.6-4.9 5.8-1.85 2.65-3.3 5.75l-0.75 1.6-1.7-2.75" fill="url(#k)"/>
<path d="m-8.45 24.35 4.25-1-4.25 3.55-0.05-0.05-2.7-1.65q-0.3-2.65 2.75-0.85" fill="url(#j)"/>
<path d="m-14.45 31.5-0.4 0.85q-0.9 1.8-1.95 3.05-2.45 3.1-5.9 3.25-4.9 0.15-9.45-4.6-1.9-1.95-2.75-4.75 3.65-10.25 10.95-15.9-1.2 9.3 3.25 13.95 3.05 3.15 6.25 4.15" fill="url(#i)"/>
<path d="m27.85-39.4 1.85-1.45 1.5-1.25 8.15 12.3 0.15 0.25-3.85 3.8-2.9-4.75-24.75 24.3-0.15 0.15q0.7 0.85 0.8 1.65 0.05 0.8-0.55 1.55l-0.7 0.65-2.65 1.75h-0.05l0.4 3.25q0.35 2.6 1.1 4.8l0.1 0.35-0.85 0.8q-1.75 1.5-3.75 2.65-3 1.65-6.7 2.55 0.4 2.1 0.55 4.3m-0.85 17.05-0.7 0.35-10.6 5.45-0.35 0.2q-2.15 1.05-4.65 1.15-6.8 0.25-13.1-5.45-6.3-5.75-4.35-17.45 1.95-11.65 6.55-18.75 3.55-5.45 6.4-6.7l0.85-0.3 0.7-0.25 9.7-3.2 1.85-0.65m43.2-24.25-2.35-4.85m-22.25 28.9 24.7-23.75-0.1-0.3m-24.75 23.85 0.15 0.2-0.9 0.9v0.05 0.25m0.75-1.4-1.75 0.2-0.75 0.45-1 1.3-0.05-0.05-0.6 0.75q-2.4 2.95-4 5.7l-0.5 1-0.05 0.05-0.05 0.1m5.2-7.6-0.75-1q-0.75-0.95-1.35-2.05l-1.3-3.1q-3.55 2.7-6.25 7-2.1 3.25-3.7 7.4m15.25 0.7q-2.45 1.65-5.15 2.55l-3.8 0.9 0.3-0.9 0.2-0.7 0.5-1.35 0.6-1.3 0.25-0.55m7.1 1.35 0.85-0.65 0.05 0.05m3.15-5.6-0.9 0.9q-0.9-0.45-1.4-1.15-0.95-1.2-0.85-3m-25.6 10.25 1.65 2.7q3.1 5.65 5.25 14.1 1.95 7.9-0.45 13.75m-10.8-37.7 0.75-0.1m11.55 4.3 1.4 1.75 0.1-0.3m-0.1 0.3 1.25 1.55 1.7 2.8 1.5 3q1.45 3.25 2.1 6.85" fill="none" stroke="#000" stroke-opacity=".4" stroke-width=".5"/>
<path d="m1.7 11.4 0.05 0.2q1.4 4.9 1.15 9.15-0.25 4.55-2.35 8.3-2.45 4.4-5.85 6.25m-7.7-45.6 0.35-0.05q2.15-0.5 4.75 2.25m9.5 19.2 0.1 0.3m-25.65 2 0.1-0.5q1-6.95 2.95-11.95m6.45 30.55q-3.2-1-6.25-4.15-4.45-4.65-3.25-13.95" fill="none" stroke="#000" stroke-opacity=".4" stroke-width=".5"/>
<path d="m-24.5-6.3q1.55 0 3.3 1.45l2.1 2.1 2.25 3.2q4.25 6.8 7.2 16.95 1.05 3.65 1.2 6.95l4.25-1-4.25 3.55-0.05-0.05-2.7-1.65q-0.3-2.65 2.75-0.85m-0.05 2.55-0.3 2.3-0.6 2.45q-0.55 1.7-1.4 3.25l-1.05 1.7q-2.1 3-4.75 4.5m-18.3-11.8q-1.25-4.05-0.4-9.75 1.4-9.7 4.75-15.6 3.35-5.95 5.8-5.95 0.75 0 1.65 0.6 1.05 0.7 2.2 2.35m6.45 30.55-0.4 0.85q-0.9 1.8-1.95 3.05-2.45 3.1-5.9 3.25-4.9 0.15-9.45-4.6-1.9-1.95-2.75-4.75" fill="none" stroke="#c0993f" stroke-opacity=".4" stroke-width=".5"/>
<path d="m27.8-39.4 2.5 4.75-24.7 23.75q-0.55-0.7-1.9 0l-0.8 0.45-1 1.3-0.75-1-1.3-2.05-1.4-3.15q-3.6 2.75-6.35 7.3-2.65-2.8-4.8-2.3l-0.3 0.05-1.85 0.6-9.65 3.25v0.15l-0.7 0.1-0.95 0.3q-2.75 1.2-6.35 6.75-4.55 7.05-6.55 18.75-1.9 11.7 4.4 17.35 6.3 5.7 13.05 5.55 2.45-0.15 4.7-1.25l10.9-5.6 0.7-0.4q3.4-1.8 5.85-6.2 2.05-3.75 2.35-8.3 0.25-4.25-1.15-9.15l-0.05-0.25-0.1-0.3q2.1-1.15 3.85-2.65l0.75-0.8 0.1-0.05q-0.75-2.4-1.25-5.1l-0.3-2.9-0.05-0.4 2.7-1.75 0.75-0.65 0.55-1.15q0.05-0.9-0.7-1.8l-0.15-0.25 24.9-24.45 2.9 4.75 3.85-3.8-8.3-12.55-3.4 2.7v0.4m-48.7 40.4 1.7 2.7q3.05 5.6 5.2 14.05 1.95 7.9-0.45 13.75-3.25-1-6.2-4.15-4.5-4.6-3.25-14l0.1-0.45q1-6.9 2.9-11.9" fill="none" stroke="#000" stroke-opacity=".4"/>
</g>
</defs>
<use transform="matrix(.65933 0 0 .65933 274.95 199.95)" xlink:href="#o"/>
</svg>
