<?xml version="1.0" encoding="UTF-8"?>
<svg version="1.1" viewBox="0 0 36.817 42.25" xmlns="http://www.w3.org/2000/svg" xmlns:cc="http://creativecommons.org/ns#" xmlns:dc="http://purl.org/dc/elements/1.1/" xmlns:rdf="http://www.w3.org/1999/02/22-rdf-syntax-ns#" xmlns:xlink="http://www.w3.org/1999/xlink">
<metadata>
<rdf:RDF>
<cc:Work rdf:about="">
<dc:format>image/svg+xml</dc:format>
<dc:type rdf:resource="http://purl.org/dc/dcmitype/StillImage"/>
</cc:Work>
</rdf:RDF>
</metadata>
<g transform="translate(-263.98 -381.85)">
<use transform="translate(264.25,381.85)" width="36.549999" height="42.25" xlink:href="#h"/>
<use transform="translate(273.2,382.35)" width="24.950001" height="21.85" xlink:href="#c"/>
<use transform="matrix(.1462 -.1524 .2622 .0251 260.64 420.74)" width="75.150002" height="78.5" xlink:href="#b"/>
<use transform="translate(264.75,413.2)" width="18.75" height="10.4" xlink:href="#e"/>
<use transform="translate(264.75,385.9)" width="32.049999" height="37.700001" xlink:href="#a"/>
</g>
<defs>
<g id="h" transform="translate(-264.25,-381.85)">
<path d="m295.95 391q-1.65-1.8-1.95-4.15l-0.4 1.35-1.4-0.75q-1.45-0.95-2.1-2.05l0.1 1.9q-2.15-2.55-6.2-4l-3.15-0.95 2.85 2.9q-2-0.2-3.8 0.75l1.1 0.3-3.85 1.9q-1.95 1.35-3.95 3.6l0.6-0.1 2.35-0.15-0.45 0.45q-1.45 1.65-1.9 3.45l-0.15 1.45 1.65-1.9q-0.4 4.1 0.9 6.5l0.6-2.25q1.5 3.15-0.6 5l-1.2 0.8-0.6 0.15 1.65 0.85-0.7 0.2-2.05 0.85q-2.15 1-3.65 2.25l-1.65 1.6 2.55-0.5q-4.2 3.4-5.8 6.95 2-0.55 5.4 0.7-2.3 1.7-2.95 3l1.3-0.3 2.55 0.2-1.6 2.6q4.3-0.4 8.7-3.35l-0.5 1.7q2.8-0.55 4.1-2.9l1.4 3.75q-0.45-4.75 1-6.7 1.35 1.35 1.05 2.45 2.65-1.95 2.6-7.55l0.95 1.5q1.05-1.15 0.8-3.15l-0.1-0.65 0.95 0.6-0.85-2.5q-0.5-1.5 0.2-3.75 0.4 0.45 1.85 0.5-0.4-1.15 0.6-3.2l1.65-2.7 0.5-0.1-0.05 0.05-0.15 0.35v0.05l0.15 0.3 0.1 0.1-0.3 0.9 0.4-0.85h0.15l0.35-0.15 0.15-0.3v-0.05l-0.1-0.3 1.05-1.2 0.3-0.25q0 0.65-0.55 1.4-0.05 1.65 1.05 2.3l0.65-1.15q1 1.2 0 2.8 1.2-0.2 1.5-1.55 2.65-3-0.35-7.05h-0.1l-1.35-2.95z" fill="none" stroke="#000" stroke-linecap="round" stroke-linejoin="round" stroke-opacity=".30196"/>
<path d="m273.8 391.7-0.6 0.1q2-2.25 3.95-3.6l3.85-1.9-1.1-0.3q1.8-0.95 3.8-0.75l-2.85-2.9 3.15 0.95q4.05 1.45 6.2 4l-0.1-1.9q0.65 1.1 2.1 2.05l1.4 0.75 0.4-1.35q0.3 2.35 1.95 4.15l1.3-1 1.65 3.6q-1.65 2.35-1.5 4.75l-0.5-2 0.35-0.75v-0.15l0.35-2.05q-1.1 0.3-2.05-0.4l-0.6-0.75-0.1 1.7q-1.5-1.65-1.2-3.4l-0.55 1.8-0.9-0.5q-2.7-1.65-3.9-4l0.1 1.85q-2.7-1.8-3.8-3.95l0.05 2.15-2.35-1.1 1.1 1.7-6.15 0.15q-2.45 1.35-3.45 3.05m0 3.75q0.45-1.8 1.9-3.45l0.45-0.45q0.9-0.55 2.05-0.55-3.7 2.05-4.4 4.45" fill="#c9cdb4" fill-rule="evenodd"/>
<path d="m273.8 391.7q1-1.7 3.45-3.05l6.15-0.15-1.1-1.7 2.35 1.1-0.05-2.15q1.1 2.15 3.8 3.95l-0.1-1.85q1.2 2.35 3.9 4l0.9 0.5 0.55-1.8q-0.3 1.75 1.2 3.4l0.1-1.7 0.6 0.75q0.95 0.7 2.05 0.4l-0.35 2.05-0.15 0.15-1 0.85q-2-1.75-3.9-2.55l-5.8-0.15q-1.85 1.15-3.55 1.45-0.1 1.05 1.55 1.65-2.9 0.85-3.7 3.95-0.8 2.95-3.6 4.3l1.95 0.55q-0.4 1.65-2.45 2.35-2.1 0.45-4.05 1.35l-0.45 0.2q2.25 0.1 2.2 1.8-4.5-0.3-9.55 6.05 1.6-3.55 5.8-6.95l-2.55 0.5 1.65-1.6q1.5-1.25 3.65-2.25l2.05-0.85 0.7-0.2-1.65-0.85 0.6-0.15 1.2-0.8q2.1-1.85 0.6-5l-0.6 2.25q-1.3-2.4-0.9-6.5l-1.65 1.9 0.15-1.45q0.7-2.4 4.4-4.45-1.15 0-2.05 0.55l-2.35 0.15m3.85 30.25 0.5-1.7q0.8-0.45 1.55-0.95l-2.05 2.65m-8.2 1.65 1.6-2.6h1l-2.6 2.6m-2.25-2.5q0.65-1.3 2.95-3l0.85 0.4q-1.25 0.05-3.8 2.6m9.9-25.4v-1.65q-0.85 1.95-0.75 3.55 0.3-1.5 0.75-1.9m4.1-5.65v-0.65q-0.75-0.05-1.65 0.6l1.65 0.05m6.7 1.15v-0.55q-0.95-0.2-1.45-1.2 0.35 1.3 1.45 1.75m-5.85 1.25q-1.35 0.55-1.8 2 1.05-1.1 1.8-0.55v-1.45m-2.55 8-0.7-1.35q-0.05 1.4-0.6 2.8l1.3-1.45" fill="#928565" fill-rule="evenodd"/>
<path d="m296.1 396.45q-1.45 1.35-2 2.85l0.6-1.9q-0.25-0.05-0.35 0.15l-0.5 0.1-1.65 2.7q-1 2.05-0.6 3.2-1.45-0.05-1.85-0.5-0.7 2.25-0.2 3.75l0.85 2.5-0.95-0.6 0.1 0.65q0.25 2-0.8 3.15l-0.95-1.5q0.05 5.6-2.6 7.55 0.3-1.1-1.05-2.45-1.45 1.95-1 6.7l-1.4-3.75q-1.3 2.35-4.1 2.9l2.05-2.65q-0.75 0.5-1.55 0.95-4.4 2.95-8.7 3.35l2.6-2.6h-1l-2.55-0.2-1.3 0.3q2.55-2.55 3.8-2.6l-0.85-0.4q-3.4-1.25-5.4-0.7 5.05-6.35 9.55-6.05 0.05-1.7-2.2-1.8l0.45-0.2q1.95-0.9 4.05-1.35 2.05-0.7 2.45-2.35l-1.95-0.55q2.8-1.35 3.6-4.3 0.8-3.1 3.7-3.95-1.65-0.6-1.55-1.65 1.7-0.3 3.55-1.45l5.8 0.15q1.9 0.8 3.9 2.55m-19-0.75q-0.45 0.4-0.75 1.9-0.1-1.6 0.75-3.55v1.65m10.8-4.5q-1.1-0.45-1.45-1.75 0.5 1 1.45 1.2v0.55m-6.7-1.15-1.65-0.05q0.9-0.65 1.65-0.6v0.65m0.85 2.4v1.45q-0.75-0.55-1.8 0.55 0.45-1.45 1.8-2m-2.55 8-1.3 1.45q0.55-1.4 0.6-2.8l0.7 1.35" fill="#81755c" fill-rule="evenodd"/>
<path d="m297.25 395.45v0.15l-0.35 0.75 0.5 2q-0.15-2.4 1.5-4.75l-1.65-3.6-1.3 1q-1.65-1.8-1.95-4.15l-0.4 1.35-1.4-0.75q-1.45-0.95-2.1-2.05l0.1 1.9q-2.15-2.55-6.2-4l-3.15-0.95 2.85 2.9q-2-0.2-3.8 0.75l1.1 0.3-3.85 1.9q-1.95 1.35-3.95 3.6l0.6-0.1m23.45 3.75-0.15 0.15-1 0.85q-1.45 1.35-2 2.85l0.6-1.9q-0.25-0.05-0.35 0.15l-0.5 0.1-1.65 2.7q-1 2.05-0.6 3.2-1.45-0.05-1.85-0.5-0.7 2.25-0.2 3.75l0.85 2.5-0.95-0.6 0.1 0.65q0.25 2-0.8 3.15l-0.95-1.5q0.05 5.6-2.6 7.55 0.3-1.1-1.05-2.45-1.45 1.95-1 6.7l-1.4-3.75q-1.3 2.35-4.1 2.9l0.5-1.7q-4.4 2.95-8.7 3.35l1.6-2.6-2.55-0.2-1.3 0.3q0.65-1.3 2.95-3-3.4-1.25-5.4-0.7 1.6-3.55 5.8-6.95l-2.55 0.5 1.65-1.6q1.5-1.25 3.65-2.25l2.05-0.85 0.7-0.2-1.65-0.85 0.6-0.15 1.2-0.8q2.1-1.85 0.6-5l-0.6 2.25q-1.3-2.4-0.9-6.5l-1.65 1.9 0.15-1.45q0.45-1.8 1.9-3.45l0.45-0.45-2.35 0.15" fill="none" stroke="#000" stroke-linecap="round" stroke-linejoin="round" stroke-opacity=".30196" stroke-width=".5"/>
<path d="m292.9 397.3-0.45-0.4q-0.6-0.1-1.15 0.6-0.5-0.95 0-1.35-1.1-0.45-2.25 0-0.3-1.45 0.6-1.7-1-0.65-2.05 0-0.2-0.9 0.55-1.3-0.1-0.7-1.1-0.5l0.45-0.35q-0.65-1.05-2.55-0.8 0.7-1.2 1.95-1.35 0-0.85-0.55-1.3l-1.15-0.5q1.85-1.2 3.05-0.8l2.35 2.1q-1.4 3.35 1.25 5.35 1.7 1.05 1.45 2.6l-0.05 0.65-0.35-0.95m4 2.6q-0.65-1.2-0.35-2.6 1.8-0.05 1.05-1.7l-0.8-0.55q1.05-0.95 0-1.95l1.9-0.15q3 4.05 0.35 7.05-0.3 1.35-1.5 1.55 1-1.6 0-2.8l-0.65 1.15m2.15-1.4v1.5-1.5" fill="#c9cdb4" fill-rule="evenodd"/>
<path d="m286.35 388.85q0.55 0.45 0.55 1.3-1.25 0.15-1.95 1.35 1.9-0.25 2.55 0.8l-0.45 0.35q1-0.2 1.1 0.5-0.75 0.4-0.55 1.3 1.05-0.65 2.05 0-0.9 0.25-0.6 1.7 1.15-0.45 2.25 0-0.5 0.4 0 1.35 0.55-0.7 1.15-0.6l0.45 0.4q0.1 1.35-0.7 2.25 0.1-0.9-0.55-1.4-0.15 0.85-1.1 1.15 0.3-1 0-1.65-0.95-0.8-1.9 0-0.45-0.6 0-1.05h-0.75q-0.2-0.95 0.55-1.4-0.75-0.55-1.55 0-0.4-0.75 0-1.5-0.55-0.7-1.7 0 0.35-0.95 1.1-1l-2.55-0.2q0.1-1.55 1.15-2.4h-0.75q0.65-1.35 2.2-1.25m9.5 8.75q1.1-1.45 0-2.75l0.95-1.75q1.05 1 0 1.95l0.8 0.55q0.75 1.65-1.05 1.7-0.3 1.4 0.35 2.6-1.1-0.65-1.05-2.3" fill="#928565" fill-rule="evenodd"/>
<path d="m294.15 397.95 0.15-0.35q0.15-0.15 0.35-0.15l0.35 0.15 0.15 0.35v0.05l-0.15 0.3-0.35 0.15-0.35-0.15-0.15-0.3v-0.05" fill="#4a4435" fill-rule="evenodd"/>
<path d="m290.6 389.65q0.75 0 0.6 1.1 0.7-0.25 0.8-0.7m0.95 0.65v0.6m-0.05 6 0.35 0.95 0.05-0.65q0.25-1.55-1.45-2.6-2.65-2-1.25-5.35m-5.4-1.3 1.15 0.5q-1.55-0.1-2.2 1.25h0.75q-1.05 0.85-1.15 2.4l2.55 0.2q-0.75 0.05-1.1 1 1.15-0.7 1.7 0-0.4 0.75 0 1.5 0.8-0.55 1.55 0-0.75 0.45-0.55 1.4h0.75q-0.45 0.45 0 1.05 0.95-0.8 1.9 0 0.3 0.65 0 1.65 0.95-0.3 1.1-1.15 0.65 0.5 0.55 1.4 0.8-0.9 0.7-2.25m2.95 0.3q1.1-1.45 0-2.75l0.95-1.75-1.35 0.2-0.3-1.2m-1 5.85v0.05m1 0v-0.05m1.75 1.95 0.65-1.15q1 1.2 0 2.8 1.2-0.2 1.5-1.55v-1.5m-0.35-5.55q3 4.05 0.35 7.05m-2.15-0.1q-1.1-0.65-1.05-2.3" fill="none" stroke="#000" stroke-linecap="round" stroke-linejoin="round" stroke-opacity=".30196" stroke-width=".5"/>
<path d="m293.3 397.6 0.85 0.35 0.15-0.35q0.15-0.15 0.35-0.15l0.35 0.15 0.15 0.35 0.7-0.35m-1.7 0.4 0.15 0.3 0.35 0.15 0.35-0.15 0.15-0.3q0.4 0.9 0.25 2.9m-1.25-2.9q-0.7 1.5-0.5 2.85v1" fill="none" stroke="#000" stroke-linecap="round" stroke-linejoin="round" stroke-opacity=".70196" stroke-width=".5"/>
<path d="m294.2 388.9 0.05-0.05 0.1 0.4-0.15 0.25v-0.6m3.1 2.15-0.35-0.8 0.3-0.25 0.4 0.8-0.15 0.3-0.05 0.3-0.15-0.35m-6.1-0.3 0.85-0.05 0.05 0.15-0.05 0.15 0.35 0.6 0.7 0.65 0.1-0.05 0.1-0.8 0.25 0.5 0.6 0.8 0.75 1.05 0.1-0.05v-1.5l0.25 0.4v0.05l0.45 0.65h0.1l0.25-0.1 0.45-0.1v0.05q-0.6 0.7-0.6 1.7l0.2 0.9 0.15 0.6-0.15 0.1q-1.45 1.35-2 2.85l0.6-1.9q-0.25-0.05-0.35 0.15l-0.5 0.1-1.65 2.7q-1 2.05-0.6 3.2-1.45-0.05-1.85-0.5-0.6 2-0.3 3.4l0.1 0.35 0.85 2.5-0.95-0.6 0.1 0.65q0.25 2-0.8 3.15l-0.95-1.5q0.05 5.6-2.6 7.55 0.3-1.1-1.05-2.45-1.45 1.95-1 6.7l-1.4-3.75q-0.9 1.6-2.5 2.4l-0.3-0.45q-2.5-3.5-3.65-7.8l-0.3-1.3q-0.55-2.5-0.6-5.3l0.5-0.15 0.45-0.2 0.7-0.2-1.65-0.85 0.5-0.1 0.1-0.05 1.2-0.8q2.1-1.85 0.6-5l-0.6 2.25q-0.7-1.3-0.9-3.15 0.6-2.4 1.65-4.55l0.3-0.6q0.75-1.45 1.7-2.75 1.65-2.3 3.6-3.8 4.1 0.85 3.8 2.2-1.55-0.1-2.2 1.25h0.75q-1.05 0.85-1.15 2.4l2.55 0.2q-0.75 0.05-1.1 1 1.15-0.7 1.7 0-0.4 0.75 0 1.5 0.8-0.55 1.55 0-0.75 0.45-0.55 1.4h0.75q-0.45 0.45 0 1.05 0.95-0.8 1.9 0 0.3 0.65 0 1.65 0.95-0.3 1.1-1.15 0.65 0.5 0.55 1.4 0.8-0.9 0.7-2.25l0.35 0.95 0.05-0.65q0.25-1.55-1.45-2.6-2.65-2-1.25-5.35 0.75 0 0.6 1.1m6.05 6.7 0.15 0.1v0.8l-0.2-0.85 0.05-0.05" fill="url(#p)" fill-rule="evenodd"/>
</g>
<radialGradient id="p" cx="0" cy="0" r="819.2" gradientTransform="matrix(.0205 0 0 .0287 289.85 405.75)" gradientUnits="userSpaceOnUse">
<stop stop-opacity=".50196" offset="0"/>
<stop stop-opacity="0" offset=".88627"/>
</radialGradient>
<g id="c">
<use width="24.950001" height="21.85" xlink:href="#g"/>
</g>
<g id="g">
<path d="m24.05 7.65 0.9 1.95-0.7 0.8q-9 10.1-21.2 11.45 2.05-1.85 0.55-4.95l-0.6 2.25q-1.3-2.4-0.9-6.5l-1.65 1.9 0.15-1.45q0.45-1.8 1.9-3.45l0.45-0.45-2.35 0.15-0.6 0.1q2-2.25 3.95-3.6l3.85-1.9-1.1-0.3q1.8-0.95 3.8-0.75l-2.85-2.9q1.7 0.4 3.15 0.95 4.05 1.45 6.2 4l-0.1-1.9q0.65 1.1 2.1 2.05l1.4 0.75 0.4-1.35q0.3 2.35 1.95 4.15l1.3-1" fill="url(#o)" fill-rule="evenodd"/>
</g>
<radialGradient id="o" cx="0" cy="0" r="819.2" gradientTransform="matrix(.0439 0 0 .0495 -.7 -17.75)" gradientUnits="userSpaceOnUse">
<stop stop-color="#ffee69" stop-opacity=".8" offset="0"/>
<stop stop-color="#fef18a" stop-opacity="0" offset="1"/>
</radialGradient>
<g id="b" transform="translate(37.15,38.8)">
<use transform="translate(-37.15,-38.8)" width="75.150002" height="78.5" xlink:href="#f"/>
</g>
<g id="f" transform="translate(37.15,38.8)">
<path d="m5.5-21.3-1.4-1.3 0.65-0.75 3.75 0.8-0.3 0.15-2.7 1.1" fill="url(#n)" fill-rule="evenodd"/>
<path d="m-21.65-9.35-2.2 2.1-0.2 0.1-0.3-2.1-1.6-0.55-2.05-0.7 0.05-1.5 3.85-1.25 0.25 0.35-1.3 0.9 1.2 1.25 1.25-0.1 1.05 1.5m29.25-11.9 0.05 0.15-0.1-0.1 0.05-0.05" fill="url(#m)" fill-rule="evenodd"/>
<path d="m5.5-21.3 0.5 0.5-0.2 0.85 0.7 0.4-1.8 1.75 2.85 1.15v-1.55l2.75-0.85-0.8-1.15 1.05-1-2.05-1.35-1.15-0.75 1.6-2.25 0.15 0.1 4.5-1.5-1.4-2.45 4.15-0.25 1.85-4.2 2.25 0.2 1.55 1.5 4.35 0.45 0.6 6.95-2.55 1.5-0.45 3.7 3.1 1.45 4.7-3.7 4.25 2.05 1.4 4.2-1.3 2.75-2.2 1.15-0.4-0.15v-2.3l-1.9 0.85v2.1l0.45 0.45-1 0.5-1.25 2.65 2.6 3.25 4.5-0.9 1.1 1.95-0.3 2.15-1.45-1.65-1.35 1.55 1.15 1.45-1.05 3.9 2.05 4.15-2.75 2.05-0.05 0.05-1.9-1.65-2.75 1.1v3.45l4.2 2.7-0.05 4.7-2.5 3.1h-2.35l-1.55-1.55 2.1-1.75-0.75-0.8-2.1 0.45-0.75-1.2-0.9 1.35h-1.45l-0.3-1.35 2.65-2.1-0.65-1.35-1.95 0.9-0.8-1.3-3.35 3.15-0.7 1.6 2.1-0.45 0.05 2.35 1.65 1.1-0.45 1.2 2.1 3.7-1 1.8-1.6 0.65-2.1 3.65 1 2.2h-9.45l3.05 3.05h-5.55l-2.9-1.85 0.3 0.25-2.05 2.2-1.75-3.05-4.55 1.5-0.35-1.05 1.4-0.7-5.25-1.1 1.05-1.5-0.05-0.15 2.55-1.15-1.4-1.5 1.55-1.2 2.85 2.35 1.4-2.1-1.35-1.65 0.85-1.2-0.3-0.45 2.1-1.45 4.05 0.8-1.6-5.7 1.05-0.7-1.1-5.65-2.75-2.1-2.05 1.9 2.55 1.8-1.45 3.35-1.1-0.95-2.2 3.15 2.2 1.35-1.2 2.5-2.5 0.35v1.85l0.6 0.65-1.75 1.75-0.8-1.7h-1.85v2.9l0.5 0.7-2.1 1.4-0.95-2.35-3.45 0.25-0.7 1.8-2.8 0.85-4.85-3.7 1.05-1.25-1.1-1 1-1.5-0.25-2.9-3.85-1.5-0.1 0.05-3.4 2.95-1.9-1.15-1.4-3.4 1.2-2.45-1-3.9 1.1-1.45-1.3-1.55-0.1-0.1-1.15-1.45h1.25l2.25-3-1.95-2.8-5.55 0.75 1.35-2.7-1-3.9 1.1-1.45-1.3-1.55 0.2-0.3 5.7 0.3 1.3-0.9 0.45 1.3 2-1.15 0.9 1.5 2.6-2.55 2.2-2.1 1.2-1.15-0.05-2.15-1 0.9-0.6-1.05-1.2 0.3-0.55-2.2-2.05-1.2-1.25 0.7-1.15-0.7-0.45 0.3-0.3-0.4v-3.4l-0.1-0.2 1.75-0.85 2.9 1.95 2.8-2.3 2.7 2.7 3.6-5.6-2.4-1 1.8-2.05-0.3-1.35 0.85-1-2.4-3.1 0.85-1.75-2.9-0.2 1.35-1.35 2.2 0.3 2-3.6 2.65 0.35-0.5 0.55 3.15 2.85-1.1 1.25 4.85 3.7 3.45-1.05 0.85 2.45 4.65-2.25-0.4 1.15h1l-1.65 3.7 1.7 1.15-1.15 1.4 0.95 0.95 1.4 1.3m11.95-7.5-1.95 0.85v2.1l1.95 1.9 1.65-1.9-1.65-0.65v-2.3m4.35 19.5v2.15l1.95 1.85 1.65-1.85-1.65-0.7v-2.3l-1.95 0.85m0.6-9.55v-2.25l-1.9 0.8v2.15l1.95 1.85 1.65-1.85-1.7-0.7m-2.45 17.45v0.75l-1.9 1.9-1-1.3-1.25 1.2v2.4l1.2 0.7v1.4l2.2 0.95 0.6-2-0.9-1.2 1.6-3.3h2.05l-1.4-1.05-1.2-0.45m-16.25-17.7h-1.85v2.85l2 0.75 1-1.9-1.15-1.7m17.05 13.45-0.85 1.4 3.25 1.15-2.4-2.55m3.45 3.6-0.25 2.15-1.4 1.05v0.5l1.4 3.65h3.3l0.4 0.95 3.95-2-6-1.75 1.3-1.4-1.95-1.15 0.8-1.55-1.55-0.45m-41.4 25.3h-1.85v2.85l2.05 0.75 1-1.9-1.2-1.7m11.85-13.7-1.15-1.7h-1.85v2.85l2 0.75 1-1.9m-18.45-12.45v2.85l2.05 0.75 1-1.9-1.2-1.7h-1.85m3.35-7.55v2.85l2.05 0.75 1-1.9-1.15-1.7h-1.9m9.95 31.4 1.1 2.1 2.4-1.5 0.85 1.5 2.95-1.55-1.05-1.65-2.1 0.35-0.45-3.75-0.35-0.15 0.4-1.45-3.1-0.65-2.8 3.85 0.85 3.15 1.3-0.25m21.9-7.05-0.4-1.95-3.9 2.95 1.05 1.4v1.7l2.65 3.25 3.05-0.95 0.35 0.25-0.6 2.15 1.95 1.1 2.25-2-0.9-1.5-0.45-0.9-1.95-0.45 1.3-1.2-1.75-1.6-0.05 0.1-0.35-0.2-1.9-0.5-0.3-1.4-0.05-0.25m-31.25-1.5-0.2-0.25-0.85 0.55 0.1 0.2 0.95-0.5" fill="url(#l)" fill-rule="evenodd"/>
<path d="m11.4 13.9 0.05 0.25-0.15 0.3 0.1-0.55" fill="url(#k)" fill-rule="evenodd"/>
</g>
<radialGradient id="n" cx="0" cy="0" r="819.2" gradientTransform="scale(.042)" gradientUnits="userSpaceOnUse">
<stop stop-color="#52493f" offset=".52157"/>
<stop stop-color="#747864" stop-opacity="0" offset="1"/>
</radialGradient>
<radialGradient id="m" cx="0" cy="0" r="819.2" gradientTransform="scale(.042)" gradientUnits="userSpaceOnUse">
<stop stop-color="#746136" stop-opacity=".70196" offset=".52157"/>
<stop stop-color="#878256" stop-opacity="0" offset="1"/>
</radialGradient>
<radialGradient id="l" cx="0" cy="0" r="819.2" gradientTransform="matrix(.0504 0 0 .0504 -.1 -.1)" gradientUnits="userSpaceOnUse">
<stop stop-color="#666" offset=".52157"/>
<stop stop-color="#221e00" stop-opacity="0" offset="1"/>
</radialGradient>
<radialGradient id="k" cx="0" cy="0" r="819.2" gradientTransform="scale(.042)" gradientUnits="userSpaceOnUse">
<stop stop-color="#666" offset=".52157"/>
<stop stop-color="#221e00" stop-opacity="0" offset="1"/>
</radialGradient>
<g id="e" transform="translate(-264.75,-413.2)">
<path d="m264.75 417.4q0.9-2.05 2.7-4l3.1-0.2q6.35 0 10.9 2.7l2.05 1.5q-0.65 2-0.35 5.4l-1.4-3.75q-1.3 2.35-4.1 2.9l0.5-1.7q-4.4 2.95-8.7 3.35l1.6-2.6-2.55-0.2-1.3 0.3q0.65-1.3 2.95-3-3.4-1.25-5.4-0.7" fill="url(#j)" fill-rule="evenodd"/>
</g>
<radialGradient id="j" cx="0" cy="0" r="819.2" gradientTransform="matrix(.0205 0 0 .0124 270.55 422.55)" gradientUnits="userSpaceOnUse">
<stop stop-opacity=".50196" offset="0"/>
<stop stop-opacity="0" offset=".88627"/>
</radialGradient>
<g id="a" transform="translate(-9.15,-27.8)">
<use transform="translate(9.15,27.8)" width="32.049999" height="37.700001" xlink:href="#d"/>
</g>
<g id="d" transform="translate(-9.15,-27.8)">
<path d="m40.5 38.35q-1.45 1.35-2 2.85l0.6-1.9q-0.25-0.05-0.35 0.15l-0.5 0.1-1.35 2.1-0.3 0.6q-1 2.05-0.6 3.2-1.45-0.05-1.85-0.5-0.7 2.25-0.2 3.75l0.85 2.5-0.95-0.6 0.1 0.65q0.25 2-0.8 3.15l-0.95-1.5q0.05 5.6-2.6 7.55 0.3-1.1-1.05-2.45-1.45 1.95-1 6.7l-1.4-3.75q-1.3 2.35-4.1 2.9l0.5-1.7q-4.4 2.95-8.7 3.35l1.6-2.6-2.55-0.2q-0.75 0-1.3 0.3 0.65-1.3 2.95-3-3.4-1.25-5.4-0.7 1.6-3.55 5.8-6.95l-2.55 0.5 1.65-1.6q1.5-1.25 3.65-2.25 0.95-0.45 2.05-0.85l0.7-0.2-1.65-0.85 0.6-0.15 1.2-0.8q2.1-1.85 0.6-5l-0.6 2.25q-1.3-2.4-0.9-6.5l-1.65 1.9 0.15-1.45q0.45-1.8 1.9-3.45l0.45-0.45-2.35 0.15-0.6 0.1 0.45-0.45 1.35-1.4q3.05-2.45 8.2-1.5l-0.9-1.65 2.3 1.15v-2.05q1.55 1.2 1.75 2.95-1.55-0.1-2.2 1.25h0.75q-1.05 0.85-1.15 2.4l2.55 0.2q-0.75 0.05-1.1 1 1.15-0.7 1.7 0-0.4 0.75 0 1.5 0.8-0.55 1.55 0-0.75 0.45-0.55 1.4h0.75q-0.45 0.45 0 1.05 0.95-0.8 1.9 0 0.3 0.65 0 1.65 0.95-0.3 1.1-1.15 0.65 0.5 0.55 1.4l0.3-0.4q0.45-0.8 0.4-1.85l0.35 0.95 0.05-0.65q0.2-1.2-0.8-2.1l-0.65-0.5q-2.65-2-1.25-5.35 0.75 0 0.6 1.1 0.7-0.25 0.8-0.7 0.75 0.95 1 2.4l0.55-1.55q0.1 1.6 1.4 3.15l0.2-1.95 0.3 1.2 1.35-0.2-0.95 1.75q0.55 0.65 0.55 1.35l-0.3 0.25" fill="url(#i)" fill-rule="evenodd"/>
</g>
<radialGradient id="i" cx="0" cy="0" r="819.2" gradientTransform="matrix(.021 .0106 -.0193 .0382 33.3 44.25)" gradientUnits="userSpaceOnUse">
<stop stop-opacity=".50196" offset="0"/>
<stop stop-opacity="0" offset="1"/>
</radialGradient>
</defs>
</svg>
