<?xml version="1.0" encoding="UTF-8"?>
<svg version="1.1" viewBox="0 0 14.627 10.85" xmlns="http://www.w3.org/2000/svg" xmlns:cc="http://creativecommons.org/ns#" xmlns:dc="http://purl.org/dc/elements/1.1/" xmlns:rdf="http://www.w3.org/1999/02/22-rdf-syntax-ns#" xmlns:xlink="http://www.w3.org/1999/xlink">
<metadata>
<rdf:RDF>
<cc:Work rdf:about="">
<dc:format>image/svg+xml</dc:format>
<dc:type rdf:resource="http://purl.org/dc/dcmitype/StillImage"/>
</cc:Work>
</rdf:RDF>
</metadata>
<g transform="translate(-301.45 -201.58)">
<use transform="translate(301.5,201.6)" width="14.55" height="10.8" xlink:href="#a"/>
</g>
<defs>
<g id="a" transform="translate(-301.5,-201.6)">
<path d="m314.85 201.6h0.05q2.45 4.7-0.3 6.3l-0.55-0.55-0.5-0.75q1.9-1.05 1.3-5" fill="#c96f01" fill-rule="evenodd"/>
<path d="m314.85 201.6q0.6 3.95-1.3 5l-0.95-1.15h0.1l1.2-0.75q0.65-0.95 0.95-3.1" fill="#f8bd5c" fill-rule="evenodd"/>
<path d="m314.6 207.9q2.75-1.6 0.3-6.3m-0.05 0q-0.3 2.15-0.95 3.1l-1.2 0.75h-0.1" fill="none" stroke="#000" stroke-linecap="round" stroke-linejoin="round" stroke-opacity=".6" stroke-width=".05"/>
<path d="m309.3 204.95h0.05q2.15-0.5 4.6 1.3l1.05 1.2 0.5 0.8q-1.65 2.85-7.55 2.95h-0.05q-1.25-3.45 1.4-6.25" fill="#f8bd5c" fill-rule="evenodd"/>
<path d="m315.5 208.25 0.5 0.55v0.05l-0.25 0.8q-0.9 2.55-7.75 2.75-0.5-0.65-0.1-1.2h0.05q5.9-0.1 7.55-2.95" fill="#e27c01" fill-rule="evenodd"/>
<path d="m304.7 210.7v-0.6h0.25l0.7-0.05q0.7-0.05 1.05-1.05l0.05 0.05q0.5-1.3-0.7-1.85h-0.2l-0.2-0.05q0.35-1.3 1.65-1.9l1.85-0.25 0.15-0.05q-2.65 2.8-1.4 6.25l-1.5-0.2-1.7-0.3" fill="#de7a01" fill-rule="evenodd"/>
<path d="m308 212.4-2-0.1-1.45-0.35q-0.5-0.3-0.45-0.7l0.6-0.55 1.7 0.3 1.5 0.2q-0.4 0.55 0.1 1.2" fill="#c96f01" fill-rule="evenodd"/>
<path d="m309.3 204.95h0.05q2.15-0.5 4.6 1.3l1.05 1.2 0.5 0.8 0.5 0.55v0.05l-0.25 0.8q-0.9 2.55-7.75 2.75l-2-0.1-1.45-0.35q-0.5-0.3-0.45-0.7l0.6-0.55v-0.6h0.25l0.7-0.05q0.7-0.05 1.05-1.05m0.05 0.05q0.5-1.3-0.7-1.85h-0.2l-0.2-0.05q0.35-1.3 1.65-1.9l1.85-0.25 0.15-0.05m-1.4 6.25h0.05m-0.05 0h0.05m-3.25-0.5 1.7 0.3 1.5 0.2" fill="none" stroke="#000" stroke-linecap="round" stroke-linejoin="round" stroke-opacity=".6" stroke-width=".05"/>
<path d="m307.95 211.2q5.9-0.1 7.55-2.95" fill="none" stroke="#eff2f5" stroke-linecap="round" stroke-linejoin="round" stroke-width=".05"/>
<path d="m307.9 203.6q-0.55 1.65 2.75 1.65l-0.2 0.3q-0.55 0.4-1.3 0.4-0.7 0-1.2-0.4-0.55-0.45-0.55-1t0.5-0.95" fill="#de7a01" fill-rule="evenodd"/>
<path d="m307.9 203.6 0.05-0.05q0.5-0.35 1.2-0.35 0.75 0 1.3 0.35 0.5 0.45 0.5 1l-0.3 0.7q-3.3 0-2.75-1.65m1.6-0.2-0.45 0.1-0.2 0.3 0.2 0.25 0.45 0.15 0.45-0.15 0.15-0.25-0.15-0.3-0.45-0.1" fill="#f99926" fill-rule="evenodd"/>
<path d="m309.5 203.4 0.45 0.1 0.15 0.3-0.15 0.25-0.45 0.15-0.45-0.15-0.2-0.25 0.2-0.3 0.45-0.1" fill="#fecb9a" fill-rule="evenodd"/>
<path d="m310.65 205.25 0.3-0.7q0-0.55-0.5-1-0.55-0.35-1.3-0.35-0.7 0-1.2 0.35l-0.05 0.05m2.75 1.65-0.2 0.3q-0.55 0.4-1.3 0.4-0.7 0-1.2-0.4-0.55-0.45-0.55-1t0.5-0.95" fill="none" stroke="#000" stroke-linecap="round" stroke-linejoin="round" stroke-opacity=".6" stroke-width=".05"/>
<path d="m302.35 203.6v-0.1q0.95 1.55 1.5 3l1.75 0.65h0.05l0.2 0.05h0.2q1.2 0.55 0.7 1.85l-0.05-0.05-0.3-0.05-0.9 0.2q-3.15-0.7-3.15-5.55" fill="#f8bd5c" fill-rule="evenodd"/>
<path d="m302.35 203.6q0 4.85 3.15 5.55l0.9-0.2 0.3 0.05q-0.35 1-1.05 1.05l-0.7 0.05h-0.25q-2.25-0.15-3.1-1.75v-0.05q-0.45-2.45 0.75-4.7" fill="#c96f01" fill-rule="evenodd"/>
<path d="m305.65 207.15h-0.05l-1.75-0.65q-0.55-1.45-1.5-3v0.1q-1.2 2.25-0.75 4.7v0.05q0.85 1.6 3.1 1.75m1.35-2.9h-0.1" fill="none" stroke="#000" stroke-linecap="round" stroke-linejoin="round" stroke-opacity=".6" stroke-width=".05"/>
</g>
</defs>
</svg>
