<?xml version="1.0" encoding="UTF-8"?>
<svg version="1.1" viewBox="0 0 82.15 93.18" xmlns="http://www.w3.org/2000/svg" xmlns:cc="http://creativecommons.org/ns#" xmlns:dc="http://purl.org/dc/elements/1.1/" xmlns:rdf="http://www.w3.org/1999/02/22-rdf-syntax-ns#" xmlns:xlink="http://www.w3.org/1999/xlink">
<metadata>
<rdf:RDF>
<cc:Work rdf:about="">
<dc:format>image/svg+xml</dc:format>
<dc:type rdf:resource="http://purl.org/dc/dcmitype/StillImage"/>
</cc:Work>
</rdf:RDF>
</metadata>
<g transform="translate(-233.9,-153.87)">
<use transform="translate(233.9,153.85)" width="82.150002" height="93.199997" xlink:href="#a"/>
</g>
<defs>
<g id="a" transform="translate(-233.9,-153.85)">
<path d="m246.2 157.65q10.25-2.6 19.9-3.2l1.5 5.8q-9.5 0.25-18.5 2.35l-2.9-4.95m52.75 3.7 0.75-1 0.35 5.95-4 3.1 0.35-1.35q-3.55 4.05-10.35 4.45l-0.25-1.45q-3.8 5.1-13.15 4.6l-0.3-0.95v-0.05q-4.9 5.65-13.2 2.65v-1.3q-6.45 5.05-16.2 0.1l0.1-4.25q7.95 2 15.85-0.55 6.65 1.45 12.85-1.95 6.7 0.4 13.3-3.45 4.1 0 7.55-1.75l3.1-2.05q1.95 0.4 3.25-0.75m6 13.15q5.55 11.6 9.8 49.4l-3.2 1.25-0.05-0.1-8.65 4.3v-0.1l-0.05 0.05-3.55 3.35-9.8 1.05-0.05-0.05-1.25-4.25-21.4 0.25-5.65 5.2-5.8-2.3-0.15-6.65 3.7-1.05q2.2-0.65 3.65-0.6l2.25-0.55q1.45-0.5 2.3-0.35l-0.5-8.7-0.35-9.35-0.3-8.2-2.8 0.05-2.8 0.35-2.65 0.4-2.65 0.7q-1.95 1.1-2.9 1.3-1.2-8.1-3.9-12.9 32.8-1.25 56.75-12.5m-34.3-3.35q-3.6 2.4-10.8 1.4 7.2 1 10.8-1.4m-11.55 4 0.05 0.85-0.05-0.85m9.4 30.3-2.3-0.15 2.3 0.15m-8.2-9.75v1.8-1.8m-5.3-1.7v4.6-4.6m13.95 20.65h-2.4 2.4m-10.7-41.35q-7.45 2.65-14.15 0.3 6.7 2.35 14.15-0.3m27.45-2.75 0.1 0.5-0.1-0.5m-13.6 3.15 0.25 0.95-0.25-0.95m12.3-5.35q-4.65 3-11.1 2.5 6.45 0.5 11.1-2.5m13.6 23.4 3.1-0.35-3.1 0.35q-20.75 3.1-22.1 29.3 7.95-19 22.1-29.3m-22.2 31 0.1-1.7-0.1 1.7m19.85-58.2q-3.55 2.5-8.9 2.6 5.35-0.1 8.9-2.6m4.4 49.8-5.3-1.25-4.8 9 2.65 4.2 2.75-0.4 2.1-4.3 5.9-1.65-3.3-5.6m-18.8 6.5-2.1 5.45 6.2-0.2-0.35-5.55-3.75 0.3m-18.55 5.2-0.2-1.8 0.2 1.8" fill="#8d700a" fill-rule="evenodd"/>
<path d="m266.1 154.45 3.25-0.15q4.55-0.3 8.65-0.1l1.05 6.4-8.2-0.35h-3.25l-1.5-5.8" fill="#775f09" fill-rule="evenodd"/>
<path d="m234.3 166.2q0-3.3 1.65-5.6l10.25-2.95 2.9 4.95q-5.15 1.15-10.15 2.95-0.65 1.4-0.7 4l-3.95-3.35" fill="#513e1a" fill-rule="evenodd"/>
<path d="m300.05 166.3 0.15 2.85-0.35 0.15q2.65 0.15 5.1 5.2-23.95 11.25-56.75 12.5-2.05-3.7-4.8-5.85l15.8-0.9-15.8 0.9-0.2-0.2v-0.05l-0.1-1.15v-0.1q-4.7-0.6-8.95-4.25v-8.7l0.15-0.5 3.95 3.35q2.55 1.65 4.8 2.3l-0.1 4.25q9.75 4.95 16.2-0.1v1.3l0.05 2.95-0.05-2.95q8.3 3 13.2-2.65v0.05l0.3 0.95q9.35 0.5 13.15-4.6l0.25 1.45q6.8-0.4 10.35-4.45l-0.35 1.35-0.45 1.7 0.45-1.7 4-3.1m-44.9 59.6q-0.6-14.95-3.05-26 0.95-0.2 2.9-1.3l2.65-0.7 2.65-0.4 2.8-0.35 2.8-0.05 0.3 8.2-1.1-0.1 1.1 0.1 0.35 9.35 0.5 8.7q-0.85-0.15-2.3 0.35l-2.25 0.55-0.25-2.05 0.25 2.05q-1.45-0.05-3.65 0.6l-3.7 1.05m-12.05-46.25-0.15-3.55 0.15 3.55m16.1 0.6q2.95 0.9 3.1 3.35-0.15-2.45-3.1-3.35 7.1-0.7 14.1-2.2-7 1.5-14.1 2.2m-4.2 21v-2.65 2.65m5.3-3.75v2.3-2.3m26.05-23.2-0.3-1.8 0.3 1.8 0.35 0.1q4.45-1.5 8.9-3.3-4.45 1.8-8.9 3.3l-0.35-0.1 0.05 0.2-0.05-0.2m12 0q-0.1-2.5-2.75-3.2l4.25-1.8-4.25 1.8q2.65 0.7 2.75 3.2m-9.2 3.2q-0.1-2.35-2.45-3.1l-0.3 0.1 0.3-0.1q2.35 0.75 2.45 3.1m-15.85 0.55-0.65-2.4 0.65 2.4q6.55-1.45 13.1-3.55-6.55 2.1-13.1 3.55 2.5 0.75 2.45 3.2 0.05-2.45-2.45-3.2m-8.2 36.6h1.45-1.45" fill="#795c26" fill-rule="evenodd"/>
<path d="m278 154.2q6.65 0.4 12.2 2.2 5.85 0.9 8.75 4.95-1.3 1.15-3.25 0.75l-3.1 2.05q-0.65-2.25-3.85-3.15l-9.7-0.4-1.05-6.4" fill="#413305" fill-rule="evenodd"/>
<path d="m315.3 229 0.5 4.7-0.2 0.1-0.15 0.1-1.5 0.5q-7.45 2.5-9.15 3.3l-0.55 0.15-2 0.5 13.05-9.35m-28.9 11.4-15.25 1.4-3.95 0.55q-7.15 1.45-11.1 3.8l-0.1 0.05-0.95 0.6 0.2-8.85 5.15 1.7 3.2-3 7.5-0.9 0.7-1.95 7.45-1.3 0.05 1.1 7.1 6.8m-17.3-8.65-1.35 1.4-1.35-0.3 1.05-1.5 1.65 0.4" fill="#575e04" fill-rule="evenodd"/>
<path d="m315.45 233.9-1.25 0.75-0.25-0.25 1.5-0.5m-12.6-4.55-0.05-0.05 0.05-0.05v0.1" fill="#675207" fill-rule="evenodd"/>
<path d="m314.75 223.9 0.55 5.1-13.05 9.35-15.45 2-0.4 0.05-7.1-6.8-0.05-1.1-7.45 1.3-0.7 1.95-7.5 0.9-3.2 3-5.15-1.7 0.05-5.4 5.8 2.3 5.65-5.2 21.4-0.25 1.25 4.25 0.05 0.05 9.8-1.05 3.55-3.35 0.05 0.05 8.65-4.3 0.05 0.1 3.2-1.25m0.85 9.9h0.15l-0.3 0.1 0.15-0.1m-34.35-12.95 3.75-0.3 0.35 5.55-6.2 0.2 2.1-5.45m-12.15 10.9-1.65-0.4-1.05 1.5 1.35 0.3 1.35-1.4" fill="#606705" fill-rule="evenodd"/>
<path d="m300.05 214.35 3.3 5.6-5.9 1.65-2.1 4.3-2.75 0.4-2.65-4.2 4.8-9 5.3 1.25" fill="#675b05" fill-rule="evenodd"/>
<path d="m298 191.75q-14.15 10.3-22.1 29.3 1.35-26.2 22.1-29.3" fill="#796009" fill-rule="evenodd"/>
<path d="m234.3 166.2q0-3.3 1.65-5.6l10.25-2.95q10.25-2.6 19.9-3.2l3.25-0.15q4.55-0.3 8.65-0.1 6.65 0.4 12.2 2.2 5.85 0.9 8.75 4.95m-55.85 18.4v-0.1q-4.7-0.6-8.95-4.25v-9.3l0.15 0.1 3.95 3.35q0.05-2.6 0.7-4 5-1.8 10.15-2.95 9-2.1 18.5-2.35h3.25l8.2 0.35m-44.75 5.6-0.15 0.5m4.1 2.85q2.55 1.65 4.8 2.3m49.55-7.7q-0.65-2.25-3.85-3.15l-9.7-0.4" fill="none" stroke="#000" stroke-linecap="round" stroke-linejoin="round" stroke-opacity=".6" stroke-width=".5"/>
<path d="m259.85 172.55q7.2 1 10.8-1.4m-26.55 2.45q6.7 2.35 14.15-0.3m15.05-2.45q6.45 0.5 11.1-2.5" fill="none" stroke="#d0a50f" stroke-linecap="round" stroke-linejoin="round"/>
<path d="m259.15 176-0.05-0.85m0.1 5.1-0.05-2.95v-1.3m3.15 7.6q-0.15-2.45-3.1-3.35m1.1 17.25 2.8-0.35 2.8-0.05 0.3 8.2 2.3 0.15m-8.2-7.95-2.65 0.4-2.65 0.7v2.65m-2.9-1.35q0.95-0.2 2.9-1.3v-4.6m5.3 3.5v-1.8m0 4.1v-2.3m4.8 7.7 1.1 0.1 0.35 9.35h2.4m27.1-45.25 0.35-1.35m-10.35 4.45 0.3 1.8m9.25-3.2 0.45-1.7m-10 3.1-0.25-1.45m-13.15 4.6 0.65 2.4m-0.65-2.4-0.3-0.95m3.4 6.55q0.05-2.45-2.45-3.2m-10.8 46.2 2.25-0.55q1.45-0.5 2.3-0.35l-0.5-8.7h-1.45m-2.85 7.55 0.25 2.05q-1.45-0.05-3.65 0.6l-3.7 1.05m7.35-1.65 0.2 1.8" fill="none" stroke="#000" stroke-linecap="round" stroke-linejoin="round" stroke-opacity=".30196" stroke-width=".05"/>
<path d="m299.7 160.35 0.35 5.95 0.15 2.85m-0.35 0.15q2.65 0.15 5.1 5.2 5.55 11.6 9.8 49.4l0.55 5.1 0.5 4.7m-0.05 0.1-0.3 0.1m-1.5 0.5q-7.45 2.5-9.15 3.3l-0.55 0.15-2 0.5-15.45 2-0.4 0.05-15.25 1.4-3.95 0.55q-7.15 1.45-11.1 3.8l-0.1 0.05-0.95 0.6 0.2-8.85 0.05-5.4-0.15-6.65q-0.6-14.95-3.05-26-1.2-8.1-3.9-12.9-2.05-3.7-4.8-5.85l-0.2-0.2v0.2m0-0.2v-0.05l-0.1-1.15m-0.15-3.65 0.15 3.55m-0.05-7.8-0.1 4.25m71 58.3 1.5-0.5" fill="none" stroke="#000" stroke-linecap="round" stroke-linejoin="round" stroke-width=".5"/>
<path d="m300.2 169.15-0.35 0.15-4.25 1.8q2.65 0.7 2.75 3.2m-54.95 6.85h-0.2l-0.25-0.1 0.15-0.05 0.1-0.05m16-0.7-15.8 0.9m-0.2 0-0.1-0.15m43.25-6.7 0.35 0.1q4.45-1.5 8.9-3.3m-9.2 3.4 0.3-0.1q2.35 0.75 2.45 3.1m-15.85 0.55q6.55-1.45 13.1-3.55m-13.1 3.55q-7 1.5-14.1 2.2" fill="none" stroke="#000" stroke-linecap="round" stroke-linejoin="round" stroke-opacity=".30196" stroke-width=".05"/>
<path d="m298.95 161.35 0.75-1m-56.65 11.5q7.95 2 15.85-0.55 6.65 1.45 12.85-1.95 6.7 0.4 13.3-3.45 4.1 0 7.55-1.75l3.1-2.05q1.95 0.4 3.25-0.75" fill="none" stroke="#000" stroke-linecap="round" stroke-linejoin="round" stroke-width=".5"/>
<path d="m286.4 174.5-0.05-0.2m-0.55-3.25-0.1-0.5m-13.35 4.1-0.25-0.95" fill="none" stroke="#000" stroke-linecap="round" stroke-linejoin="round" stroke-width=".05"/>
<path d="m301.1 191.4-3.1 0.35q-20.75 3.1-22.1 29.3l-0.1 1.7" fill="none" stroke="#675207" stroke-linecap="round" stroke-linejoin="round" stroke-width=".5"/>
<path d="m286.75 167.15q5.35-0.1 8.9-2.6" fill="none" stroke="#d0a50f" stroke-linecap="round" stroke-linejoin="round"/>
</g>
</defs>
</svg>
