<?xml version="1.0" encoding="UTF-8"?>
<svg version="1.1" viewBox="0 0 24.75 35.45" xmlns="http://www.w3.org/2000/svg" xmlns:cc="http://creativecommons.org/ns#" xmlns:dc="http://purl.org/dc/elements/1.1/" xmlns:rdf="http://www.w3.org/1999/02/22-rdf-syntax-ns#" xmlns:xlink="http://www.w3.org/1999/xlink">
<metadata>
<rdf:RDF>
<cc:Work rdf:about="">
<dc:format>image/svg+xml</dc:format>
<dc:type rdf:resource="http://purl.org/dc/dcmitype/StillImage"/>
</cc:Work>
</rdf:RDF>
</metadata>
<g transform="translate(-262.6 -182.75)">
<use transform="translate(262.6,182.75)" width="24.75" height="35.450001" xlink:href="#a"/>
</g>
<defs>
<g id="a" transform="translate(-262.6,-182.75)">
<path d="m270.75 194.05q-5.05 0.2-6.8-3.7 4.05-0.85 6.8 3.7" fill="#61c8d3" fill-rule="evenodd"/>
<path d="m270.75 194.05q-5.05 0.2-6.8-3.7 4.05-0.85 6.8 3.7z" fill="none" stroke="#000" stroke-linecap="round" stroke-linejoin="round" stroke-opacity=".50196" stroke-width=".2"/>
<path d="m271.1 195.55q-4.5 3.35-8.4 0.75 3.2-3.25 8.4-0.75" fill="#61c8d3" fill-rule="evenodd"/>
<path d="m271.1 195.55q-4.5 3.35-8.4 0.75 3.2-3.25 8.4-0.75z" fill="none" stroke="#000" stroke-linecap="round" stroke-linejoin="round" stroke-opacity=".50196" stroke-width=".2"/>
<path d="m272.25 192.8q-4.35-2.8-3.4-7.05 3.85 1.75 3.4 7.05" fill="#61c8d3" fill-rule="evenodd"/>
<path d="m272.25 192.8q-4.35-2.8-3.4-7.05 3.85 1.75 3.4 7.05z" fill="none" stroke="#000" stroke-linecap="round" stroke-linejoin="round" stroke-opacity=".50196" stroke-width=".2"/>
<path d="m279.9 193.15q3.55-3.9 7.35-2.25-2.55 3.5-7.35 2.25" fill="#32a7b4" fill-rule="evenodd"/>
<path d="m279.9 193.15q4.8 1.25 7.35-2.25-3.8-1.65-7.35 2.25z" fill="none" stroke="#000" stroke-linecap="round" stroke-linejoin="round" stroke-opacity=".50196" stroke-width=".2"/>
<path d="m279.15 194.5q5.6-1.35 8.1 2.45-4.4 1.75-8.1-2.45" fill="#32a7b4" fill-rule="evenodd"/>
<path d="m279.15 194.5q3.7 4.2 8.1 2.45-2.5-3.8-8.1-2.45z" fill="none" stroke="#000" stroke-linecap="round" stroke-linejoin="round" stroke-opacity=".50196" stroke-width=".2"/>
<path d="m278.65 191.6q0.65-5.35 4.75-6.2 0.05 4.35-4.75 6.2" fill="#32a7b4" fill-rule="evenodd"/>
<path d="m278.65 191.6q4.8-1.85 4.75-6.2-4.1 0.85-4.75 6.2z" fill="none" stroke="#000" stroke-linecap="round" stroke-linejoin="round" stroke-opacity=".50196" stroke-width=".2"/>
<path d="m279.65 200.25q-0.05-1.1 0.3-1.85 0.3-0.75 0.75-0.7 0.45-0.05 0.8 0.7t0.35 1.85q0 1.05-0.35 1.8l-0.15 0.3-0.25 0.3-0.4 0.15q-0.45 0-0.75-0.75-0.35-0.75-0.3-1.8" fill="#dbdbc4" fill-rule="evenodd"/>
<path d="m270.35 203 0.05 0.05-0.05-0.05" fill="#2b2b2b" fill-rule="evenodd"/>
<path d="m272.8 187.65 2.2 1.25-1.1 2.7v0.05l-2.8-0.65 1.3-2.55 0.4-0.8m-2.55 5.2 2.4 1.75-1.25 3.1-2.6-1.05 1.45-3.8m-1.9 10.7 2-0.55 0.05 0.05 0.75 2.1 0.05 0.1-1.95 1.95-0.9-3.65" fill="#567044" fill-rule="evenodd"/>
<path d="m272.8 187.65 2.8-4.7 0.2 0.15q4.1 10.15 2.9 21.6l-9.2 3.2-0.25-0.7 1.95-1.95-0.05-0.1-0.75-2.1-0.05-0.05-2 0.55-0.55-3.5 1-3.4 2.6 1.05 1.25-3.1-2.4-1.75 0.85-1.8v-0.05l2.8 0.65v-0.05l1.1-2.7-2.2-1.25m4.95 13.5q0-1.2-0.7-2-0.7-0.85-1.65-0.85t-1.6 0.85q-0.7 0.8-0.7 2t0.7 2.05q0.65 0.85 1.6 0.85t1.65-0.85 0.7-2.05" fill="#2873b0" fill-rule="evenodd"/>
<path d="m278.7 204.7q1.2-11.45-2.9-21.6 2.55 2.15 4.25 5.05l0.1 0.2 0.15 0.25h-1.2l1.1 2.5h1.3l0.95 2.9 0.05 0.1-1.4 0.65 0.7 2.75h1.15q-0.1 2.8-0.75 5.7l-0.9-0.45-0.85 2.85 0.95 0.5-0.2 0.55-2.5-1.95m0.95-4.45q-0.05 1.05 0.3 1.8 0.3 0.75 0.75 0.75l0.4-0.15 0.25-0.3 0.15-0.3q0.35-0.75 0.35-1.8 0-1.1-0.35-1.85t-0.8-0.7q-0.45-0.05-0.75 0.7-0.35 0.75-0.3 1.85" fill="#1a4971" fill-rule="evenodd"/>
<path d="m280.3 188.6 1.2 2.5h-1.3l-1.1-2.5h1.2m2.2 5.5 0.5 2.2-0.05 1.2h-1.15l-0.7-2.75 1.4-0.65m-0.3 9.1-0.8 2.9-0.95-0.5 0.85-2.85 0.9 0.45" fill="#3c4f2f" fill-rule="evenodd"/>
<path d="m269.5 207.9 9.2-3.2-1.05 6.4-1.7 6.15-0.15 0.4-0.2 0.4-0.85-0.8-0.85-0.95q-1-1.2-1.85-2.6l-1-1.8q-0.75-1.55-1.35-3.3l-0.2-0.7" fill="#edea76" fill-rule="evenodd"/>
<path d="m281.2 206.65-0.65 1.9-1.2 2.75-3.3 5.95-0.25 0.4 0.15-0.4 1.7-6.15 1.05-6.4 2.5 1.95" fill="#c9b12c" fill-rule="evenodd"/>
<path d="m277.75 201.15q0 1.2-0.7 2.05t-1.65 0.85-1.6-0.85q-0.7-0.85-0.7-2.05t0.7-2q0.65-0.85 1.6-0.85t1.65 0.85q0.7 0.8 0.7 2" fill="#edede0" fill-rule="evenodd"/>
<path d="m273.1 187.1-0.25 0.5-0.45 0.85-0.15 0.25m-1.4 2.9-0.05 0.1-1.1 2.5-0.1 0.3" fill="none" stroke="#34648b" stroke-linecap="round" stroke-linejoin="round" stroke-width=".3"/>
<path d="m272.25 188.7-0.05 0.05-0.25 0.55-0.9 1.85-0.2 0.45" fill="none" stroke="#93b8d7" stroke-linecap="round" stroke-linejoin="round" stroke-width=".3"/>
<path d="m275.6 182.9v0.05" fill="none" stroke="#000" stroke-linecap="round" stroke-linejoin="round" stroke-width=".3"/>
<path d="m269.6 194.5q-1.15 2.8-1.8 5.55m7.8-17.1-2.5 4.15" fill="none" stroke="#424228" stroke-linecap="round" stroke-linejoin="round" stroke-width=".3"/>
<path d="m267.8 200.05q0.55 4.5 1.75 8.1 2.1 6.4 6.05 9.9l0.2-0.4q3.1-4.85 4.9-9.5 2.25-6.05 2.3-11.85-1.6-8.45-7.2-13.2l-0.2-0.2" fill="none" stroke="#000" stroke-linecap="round" stroke-linejoin="round" stroke-opacity=".50196" stroke-width=".3"/>
</g>
</defs>
</svg>
