<?xml version="1.0" encoding="UTF-8"?>
<svg version="1.1" viewBox="0 0 181.12 96.668" xmlns="http://www.w3.org/2000/svg" xmlns:cc="http://creativecommons.org/ns#" xmlns:dc="http://purl.org/dc/elements/1.1/" xmlns:rdf="http://www.w3.org/1999/02/22-rdf-syntax-ns#" xmlns:xlink="http://www.w3.org/1999/xlink">
<metadata>
<rdf:RDF>
<cc:Work rdf:about="">
<dc:format>image/svg+xml</dc:format>
<dc:type rdf:resource="http://purl.org/dc/dcmitype/StillImage"/>
</cc:Work>
</rdf:RDF>
</metadata>
<g transform="translate(-184.38 -152.12)">
<use transform="translate(184.4,152.15)" width="181.10001" height="96.599998" xlink:href="#a"/>
</g>
<defs>
<g id="a" transform="translate(-184.4,-152.15)">
<path d="m190.2 214.2-2.9-3.05q-4.55-16.05-1.95-31.2 0.8-4.9 6.85-6.35 22.85-3.9 42.55 0l-4.25 5.05q-14.15-2.65-28.3 1.45 0.6 1.65-2.25 3.4l-2.4-2.1q-4.45-3.5-7.35 2.95-0.95 8.15 4.9 18.05l-6.8-4.9 1.9 16.7m8.75-36.7q2.75 1.25 3.25 2.6-0.5-1.35-3.25-2.6" fill="url(#h)" fill-rule="evenodd"/>
<path d="m234.75 173.6q5-6.2 9.15-12.7 3.5-4.1 12.7-2.45 6.35-5.45 19-6.3 16.45 5.35 23.45 12.65 10.15 3.7 16.5 7.45l-26.75-6.45q13.4 8-3.4 12.2-14.75 1-22.45-13.65l-3.9 7.8q-7.6 1.4-11.7-7.8 1.8 7.7-3.45 13.65l-9.15 14.2q-9.6-5.15-7.9-9.45l3.65-4.1 4.25-5.05" fill="url(#g)" fill-rule="evenodd"/>
<path d="m234.75 192.2 9.15-14.2q5.25-5.95 3.45-13.65 4.1 9.2 11.7 7.8l3.9-7.8q7.7 14.65 22.45 13.65 16.8-4.2 3.4-12.2l26.75 6.45q7 4.1 9.35 8.2l1.25 11.65 0.25 2.3q-12.25 7.65-32.75 5.55l-49.25-3.4q-5.75-2.25-9.65-4.35" fill="url(#f)" fill-rule="evenodd"/>
<path d="m199.95 183.5q2.85-1.75 2.25-3.4 14.15-4.1 28.3-1.45l-3.65 4.1q-5.25 5.55-11.2 10.95-9.15-4.75-15.7-10.2m128.35 29.6-1.7-16.4q23.25 8.65 26.1 13.5-12 1.9-24.4 2.9" fill="#660" fill-rule="evenodd"/>
<path d="m190.2 184.35q2.9-6.45 7.35-2.95l2.4 2.1q6.55 5.45 15.7 10.2 6.3 3.2 13.8 6.1l0.3 0.1q15.45 5.9 36.1 10.3-0.9 2.8-0.7 4.85l-27.6-4.35q-31.4-11.6-47.35-26.35" fill="url(#e)" fill-rule="evenodd"/>
<path d="m190.2 214.2-1.9-16.7 6.8 4.9q-5.85-9.9-4.9-18.05 15.95 14.75 47.35 26.35l27.6 4.35q0.35 4.15 5.1 5.4l2.35 0.15q-1.35 5.45 6.95 2.75v-4.4q26.1 5.8 54.15 0 14.8-1.5 25.1-7.7-4.45 15.9-16.35 28.7-11.75 8.3-35.1 8.8-38.35 0.4-78.55-8.3-22.2-8.8-38.6-26.25" fill="url(#d)" fill-rule="evenodd"/>
<path d="m226.85 182.75q-1.7 4.3 7.9 9.45l-5.25 7.55-0.05 0.05q-7.5-2.9-13.8-6.1 5.95-5.4 11.2-10.95" fill="#fedd5e" fill-rule="evenodd"/>
<path d="m229.5 199.75 0.25 0.15-0.3-0.1 0.05-0.05" fill="#fecc04" fill-rule="evenodd"/>
<path d="m229.75 199.9-0.25-0.15 5.25-7.55q3.9 2.1 9.65 4.35l49.25 3.4q20.5 2.1 32.75-5.55l0.2 2.3 1.7 16.4q-26.45 2.1-54.65 0 1.4 6.65-1.05 7.5l-2.35-0.15q-4.75-1.25-5.1-5.4-0.2-2.05 0.7-4.85-20.65-4.4-36.1-10.3" fill="url(#c)" fill-rule="evenodd"/>
<path d="m326.15 192.1q20.9 3.1 33.4 16.15l-0.75 3q-10.3 6.2-25.1 7.7-28.05 5.8-54.15 0v4.4q-8.3 2.7-6.95-2.75 2.45-0.85 1.05-7.5 28.2 2.1 54.65 0 12.4-1 24.4-2.9-2.85-4.85-26.1-13.5l-0.2-2.3-0.25-2.3" fill="url(#b)" fill-rule="evenodd"/>
<path d="m234.75 173.6q-19.7-3.9-42.55 0-6.05 1.45-6.85 6.35-2.6 15.15 1.95 31.2l2.9 3.05m0-29.85q2.9-6.45 7.35-2.95l2.4 2.1q2.85-1.75 2.25-3.4-0.5-1.35-3.25-2.6m116.6-5.25q-6.35-3.75-16.5-7.45-7-7.3-23.45-12.65-12.65 0.85-19 6.3-9.2-1.65-12.7 2.45-4.15 6.5-9.15 12.7l-4.25 5.05-3.65 4.1q-1.7 4.3 7.9 9.45m80.8-19.95q7 4.1 9.35 8.2l1.25 11.65q20.9 3.1 33.4 16.15l-0.75 3q-4.45 15.9-16.35 28.7-11.75 8.3-35.1 8.8-38.35 0.4-78.55-8.3-22.2-8.8-38.6-26.25m39.25-14.4 0.3 0.1q15.45 5.9 36.1 10.3-0.9 2.8-0.7 4.85 0.35 4.15 5.1 5.4l2.35 0.15q2.45-0.85 1.05-7.5 28.2 2.1 54.65 0l-1.7-16.4-0.2-2.3q-12.25 7.65-32.75 5.55l-49.25-3.4q-5.75-2.25-9.65-4.35m-19.1 1.5q6.3 3.2 13.8 6.1m-13.8-6.1q5.95-5.4 11.2-10.95m-26.9 0.75q6.55 5.45 15.7 10.2m110.75 0.7-0.25-2.3m2.15 21q12.4-1 24.4-2.9" fill="none" stroke="#000" stroke-linecap="round" stroke-linejoin="round" stroke-opacity=".41961" stroke-width=".05"/>
<path d="m229.5 199.75-0.05 0.05" fill="none" stroke="#0f0" stroke-linecap="round" stroke-linejoin="round" stroke-width=".05"/>
<path d="m339.8 180.3q0.7 0.8 0.15 2.95-2.9 5.25-7.05 6.4-0.15-1.6 0.1-2.95 3.05 0.8 6.8-6.4" fill="#c90" fill-rule="evenodd"/>
<path d="m339.8 180.3q-3.75 7.2-6.8 6.4 0.65-3.8 4.1-6.45l2.7 0.05" fill="#fc3" fill-rule="evenodd"/>
<path d="m333 186.7q-0.25 1.35-0.1 2.95 4.15-1.15 7.05-6.4 0.55-2.15-0.15-2.95m-6.8 6.4q0.65-3.8 4.1-6.45l2.7 0.05" fill="none" stroke="#000" stroke-linecap="round" stroke-linejoin="round" stroke-opacity=".41961" stroke-width=".05"/>
<path d="m338.6 187.55q0.4 0.95-0.55 2.85-3.8 4.25-7.85 4.15 0.25-1.5 0.75-2.75 2.6 1.6 7.65-4.25" fill="#c90" fill-rule="evenodd"/>
<path d="m338.6 187.55q-5.05 5.85-7.65 4.25 1.45-3.45 5.2-5.05 2.05-0.15 2.45 0.8" fill="#fc3" fill-rule="evenodd"/>
<path d="m330.95 191.8q-0.5 1.25-0.75 2.75 4.05 0.1 7.85-4.15 0.95-1.9 0.55-2.85m-7.65 4.25q1.45-3.45 5.2-5.05 2.05-0.15 2.45 0.8" fill="none" stroke="#000" stroke-linecap="round" stroke-linejoin="round" stroke-opacity=".41961" stroke-width=".05"/>
<path d="m338.6 193.35q0.15 1-1.4 2.55-5.25 3.15-9.5 2 0.65-1.4 1.6-2.45 2.25 2.2 9.3-2.1" fill="#c90" fill-rule="evenodd"/>
<path d="m338.6 193.35q-7.05 4.3-9.3 2.1 2.5-2.95 6.9-3.55 2.2 0.35 2.4 1.45" fill="#fc3" fill-rule="evenodd"/>
<path d="m329.3 195.45q-0.95 1.05-1.6 2.45 4.25 1.15 9.5-2 1.55-1.55 1.4-2.55m-9.3 2.1q2.5-2.95 6.9-3.55 2.2 0.35 2.4 1.45" fill="none" stroke="#000" stroke-linecap="round" stroke-linejoin="round" stroke-opacity=".41961" stroke-width=".05"/>
<path d="m337.55 199.3q-0.05 1.05-2 2.15-5.95 1.7-9.75-0.5 1-1.2 2.2-2 1.6 2.75 9.55 0.35" fill="#c90" fill-rule="evenodd"/>
<path d="m337.55 199.3q-7.95 2.4-9.55-0.35 3.2-2.2 7.65-1.6 2 0.9 1.9 1.95" fill="#fc3" fill-rule="evenodd"/>
<path d="m328 198.95q-1.2 0.8-2.2 2 3.8 2.2 9.75 0.5 1.95-1.1 2-2.15m-9.55-0.35q3.2-2.2 7.65-1.6 2 0.9 1.9 1.95" fill="none" stroke="#000" stroke-linecap="round" stroke-linejoin="round" stroke-opacity=".41961" stroke-width=".05"/>
<path d="m335 203q-0.1 1.05-1.85 2.2-5.35 1.85-8.65-0.25 0.9-1.15 2-2 1.3 2.65 8.5 0.05" fill="#c90" fill-rule="evenodd"/>
<path d="m335 203q-7.2 2.6-8.5-0.05 2.9-2.3 6.8-1.85 1.75 0.85 1.7 1.9" fill="#fc3" fill-rule="evenodd"/>
<path d="m326.5 202.95q-1.1 0.85-2 2 3.3 2.1 8.65 0.25 1.75-1.15 1.85-2.2m-8.5-0.05q2.9-2.3 6.8-1.85 1.75 0.85 1.7 1.9" fill="none" stroke="#000" stroke-linecap="round" stroke-linejoin="round" stroke-opacity=".41961" stroke-width=".05"/>
<path d="m331.35 184.55q-0.95 0.25-2 1.95-1.4 5.05 0.75 7.75l1.85-2.05q-2.65-0.9-0.6-7.65" fill="#c90" fill-rule="evenodd"/>
<path d="m331.35 184.55q-2.05 6.75 0.6 7.65 2.05-2.95 1.4-6.45-0.95-1.5-2-1.2" fill="#fc3" fill-rule="evenodd"/>
<path d="m331.95 192.2-1.85 2.05q-2.15-2.7-0.75-7.75 1.05-1.7 2-1.95m0.6 7.65q2.05-2.95 1.4-6.45-0.95-1.5-2-1.2" fill="none" stroke="#000" stroke-linecap="round" stroke-linejoin="round" stroke-opacity=".41961" stroke-width=".05"/>
<path d="m326.15 186.85q-0.9 0.45-1.25 2.65 0.55 6.05 3.95 8.8l1.05-2.75q-3.1-0.5-3.75-8.7" fill="#c90" fill-rule="evenodd"/>
<path d="m326.15 186.85q0.65 8.2 3.75 8.7 0.95-3.75-1.2-7.65-1.55-1.5-2.55-1.05" fill="#fc3" fill-rule="evenodd"/>
<path d="m329.9 195.55-1.05 2.75q-3.4-2.75-3.95-8.8 0.35-2.2 1.25-2.65m3.75 8.7q0.95-3.75-1.2-7.65-1.55-1.5-2.55-1.05" fill="none" stroke="#000" stroke-linecap="round" stroke-linejoin="round" stroke-opacity=".41961" stroke-width=".05"/>
<path d="m322.6 191.85q-0.75 0.7-0.6 2.8 1.8 5.4 5.55 6.95l0.45-2.8q-3.1 0.4-5.4-6.95" fill="#c90" fill-rule="evenodd"/>
<path d="m322.6 191.85q2.3 7.35 5.4 6.95 0.05-3.75-2.8-6.7-1.75-0.95-2.6-0.25" fill="#fc3" fill-rule="evenodd"/>
<path d="m328 198.8-0.45 2.8q-3.75-1.55-5.55-6.95-0.15-2.1 0.6-2.8m5.4 6.95q0.05-3.75-2.8-6.7-1.75-0.95-2.6-0.25" fill="none" stroke="#000" stroke-linecap="round" stroke-linejoin="round" stroke-opacity=".41961" stroke-width=".05"/>
<path d="m320.55 195.55q-0.75 0.7-0.7 2.75 1.5 5.15 5.05 6.55l0.55-2.75q-2.95 0.5-4.9-6.55" fill="#c90" fill-rule="evenodd"/>
<path d="m320.55 195.55q1.95 7.05 4.9 6.55 0.15-3.6-2.45-6.4-1.65-0.85-2.45-0.15" fill="#fc3" fill-rule="evenodd"/>
<path d="m325.45 202.1-0.55 2.75q-3.55-1.4-5.05-6.55-0.05-2.05 0.7-2.75m4.9 6.55q0.15-3.6-2.45-6.4-1.65-0.85-2.45-0.15" fill="none" stroke="#000" stroke-linecap="round" stroke-linejoin="round" stroke-opacity=".41961" stroke-width=".05"/>
<path d="m332.8 206.45q-0.1 1.05-1.85 2.2-5.35 1.85-8.65-0.25 0.9-1.15 2-2 1.3 2.65 8.5 0.05" fill="#c90" fill-rule="evenodd"/>
<path d="m332.8 206.45q-7.2 2.6-8.5-0.05 2.9-2.3 6.8-1.85 1.75 0.85 1.7 1.9" fill="#fc3" fill-rule="evenodd"/>
<path d="m324.3 206.4q-1.1 0.85-2 2 3.3 2.1 8.65 0.25 1.75-1.15 1.85-2.2m-8.5-0.05q2.9-2.3 6.8-1.85 1.75 0.85 1.7 1.9" fill="none" stroke="#000" stroke-linecap="round" stroke-linejoin="round" stroke-opacity=".41961" stroke-width=".05"/>
<path d="m318.3 199q-0.75 0.7-0.7 2.75 1.5 5.15 5.05 6.55l0.55-2.75q-2.95 0.5-4.9-6.55" fill="#c90" fill-rule="evenodd"/>
<path d="m318.3 199q1.95 7.05 4.9 6.55 0.15-3.6-2.45-6.4l-2.45-0.15" fill="#fc3" fill-rule="evenodd"/>
<path d="m323.2 205.55-0.55 2.75q-3.55-1.4-5.05-6.55-0.05-2.05 0.7-2.75m4.9 6.55q0.15-3.6-2.45-6.4l-2.45-0.15" fill="none" stroke="#000" stroke-linecap="round" stroke-linejoin="round" stroke-opacity=".41961" stroke-width=".05"/>
<path d="m332.05 210.25q-0.1 1.05-1.85 2.2-5.35 1.85-8.65-0.25 0.9-1.15 2-2 1.3 2.65 8.5 0.05" fill="#c90" fill-rule="evenodd"/>
<path d="m332.05 210.25q-7.2 2.6-8.5-0.05 2.9-2.3 6.8-1.85 1.75 0.85 1.7 1.9" fill="#fc3" fill-rule="evenodd"/>
<path d="m323.55 210.2q-1.1 0.85-2 2 3.3 2.1 8.65 0.25 1.75-1.15 1.85-2.2m-8.5-0.05q2.9-2.3 6.8-1.85 1.75 0.85 1.7 1.9" fill="none" stroke="#000" stroke-linecap="round" stroke-linejoin="round" stroke-opacity=".41961" stroke-width=".05"/>
<path d="m317.6 202.7q-0.75 0.7-0.7 2.75 1.5 5.15 5.05 6.55l0.55-2.75q-2.95 0.5-4.9-6.55" fill="#c90" fill-rule="evenodd"/>
<path d="m317.6 202.7q1.95 7.05 4.9 6.55 0.15-3.6-2.45-6.4l-2.45-0.15" fill="#fc3" fill-rule="evenodd"/>
<path d="m322.5 209.25-0.55 2.75q-3.55-1.4-5.05-6.55-0.05-2.05 0.7-2.75m4.9 6.55q0.15-3.6-2.45-6.4l-2.45-0.15" fill="none" stroke="#000" stroke-linecap="round" stroke-linejoin="round" stroke-opacity=".41961" stroke-width=".05"/>
<path d="m365.45 187.9q0.25 1.3-1.8 3.4-6.8 4.15-12.3 2.65 0.9-1.85 2.05-3.25 2.95 2.9 12.05-2.8" fill="#c90" fill-rule="evenodd"/>
<path d="m365.45 187.9q-9.1 5.7-12.05 2.8 3.25-3.95 9-4.7 2.8 0.5 3.05 1.9" fill="#fc3" fill-rule="evenodd"/>
<path d="m353.4 190.7q-1.15 1.4-2.05 3.25 5.5 1.5 12.3-2.65 2.05-2.1 1.8-3.4m-12.05 2.8q3.25-3.95 9-4.7 2.8 0.5 3.05 1.9" fill="none" stroke="#000" stroke-linecap="round" stroke-linejoin="round" stroke-opacity=".41961" stroke-width=".05"/>
<path d="m359.25 195.35q-0.1 1.3-2.5 2.85-7.2 2.3-11.7-0.4 1.3-1.65 2.7-2.7 1.9 3.55 11.5 0.25" fill="#c90" fill-rule="evenodd"/>
<path d="m359.25 195.35q-9.6 3.3-11.5-0.25 3.9-3 9.25-2.35 2.4 1.15 2.25 2.6" fill="#fc3" fill-rule="evenodd"/>
<path d="m347.75 195.1q-1.4 1.05-2.7 2.7 4.5 2.7 11.7 0.4 2.4-1.55 2.5-2.85m-11.5-0.25q3.9-3 9.25-2.35 2.4 1.15 2.25 2.6" fill="none" stroke="#000" stroke-linecap="round" stroke-linejoin="round" stroke-opacity=".41961" stroke-width=".05"/>
<path d="m355.35 202q-0.4 1.25-3.3 2-8.05 0.1-12.2-3.95 1.75-1.2 3.5-1.8 1.15 4.05 12 3.75" fill="#c90" fill-rule="evenodd"/>
<path d="m355.35 202q-10.85 0.3-12-3.75 4.8-1.7 10.25 0.5 2.25 1.9 1.75 3.25" fill="#fc3" fill-rule="evenodd"/>
<path d="m343.35 198.25q-1.75 0.6-3.5 1.8 4.15 4.05 12.2 3.95 2.9-0.75 3.3-2m-12-3.75q4.8-1.7 10.25 0.5 2.25 1.9 1.75 3.25" fill="none" stroke="#000" stroke-linecap="round" stroke-linejoin="round" stroke-opacity=".41961" stroke-width=".05"/>
<path d="m350.25 208.1q-0.7 1.1-3.7 1.1-7.85-2.05-10.75-7 1.9-0.75 3.8-0.85 0 4.2 10.65 6.75" fill="#c90" fill-rule="evenodd"/>
<path d="m350.25 208.1q-10.65-2.55-10.65-6.75 5.1-0.4 9.8 3.2 1.65 2.35 0.85 3.55" fill="#fc3" fill-rule="evenodd"/>
<path d="m339.6 201.35q-1.9 0.1-3.8 0.85 2.9 4.95 10.75 7 3 0 3.7-1.1m-10.65-6.75q5.1-0.4 9.8 3.2 1.65 2.35 0.85 3.55" fill="none" stroke="#000" stroke-linecap="round" stroke-linejoin="round" stroke-opacity=".41961" stroke-width=".05"/>
<path d="m344.9 210.7q-0.75 1.05-3.55 1.25-7.25-1.45-9.7-5.95 1.85-0.8 3.6-1.05-0.2 4 9.65 5.75" fill="#c90" fill-rule="evenodd"/>
<path d="m344.9 210.7q-9.85-1.75-9.65-5.75 4.85-0.65 9.05 2.45 1.4 2.1 0.6 3.3" fill="#fc3" fill-rule="evenodd"/>
<path d="m335.25 204.95q-1.75 0.25-3.6 1.05 2.45 4.5 9.7 5.95 2.8-0.2 3.55-1.25m-9.65-5.75q4.85-0.65 9.05 2.45 1.4 2.1 0.6 3.3" fill="none" stroke="#000" stroke-linecap="round" stroke-linejoin="round" stroke-opacity=".41961" stroke-width=".05"/>
<path d="m352.95 187.1q-1.3-0.4-3.6 0.95-4.95 4.75-4.25 9.3l3.45-1.1q-2.45-2.8 4.4-9.15" fill="#c90" fill-rule="evenodd"/>
<path d="m352.95 187.1q-6.85 6.35-4.4 9.15 4.3-2.05 5.85-6.5-0.1-2.25-1.45-2.65" fill="#fc3" fill-rule="evenodd"/>
<path d="m348.55 196.25-3.45 1.1q-0.7-4.55 4.25-9.3 2.3-1.35 3.6-0.95m-4.4 9.15q4.3-2.05 5.85-6.5-0.1-2.25-1.45-2.65" fill="none" stroke="#000" stroke-linecap="round" stroke-linejoin="round" stroke-opacity=".41961" stroke-width=".05"/>
<path d="m345.45 186.35q-1.4-0.1-3.2 2.15-3.4 7.3-1.35 12.7 1.75-1.1 3.05-2.45-3.25-2.65 1.5-12.4" fill="#c90" fill-rule="evenodd"/>
<path d="m345.45 186.35q-4.75 9.75-1.5 12.4 3.55-3.65 3.65-9.55-0.8-2.75-2.15-2.85" fill="#fc3" fill-rule="evenodd"/>
<path d="m343.95 198.75q-1.3 1.35-3.05 2.45-2.05-5.4 1.35-12.7 1.8-2.25 3.2-2.15m-1.5 12.4q3.55-3.65 3.65-9.55-0.8-2.75-2.15-2.85" fill="none" stroke="#000" stroke-linecap="round" stroke-linejoin="round" stroke-opacity=".41961" stroke-width=".05"/>
<path d="m338.05 189.7q-1.3 0.2-2.5 2.7-1.5 7.35 1.75 11.65 1.45-1.45 2.3-2.95-3.7-1.5-1.55-11.4" fill="#c90" fill-rule="evenodd"/>
<path d="m338.05 189.7q-2.15 9.9 1.55 11.4 2.55-4.2 1.3-9.4-1.4-2.3-2.85-2" fill="#fc3" fill-rule="evenodd"/>
<path d="m339.6 201.1q-0.85 1.5-2.3 2.95-3.25-4.3-1.75-11.65 1.2-2.5 2.5-2.7m1.55 11.4q2.55-4.2 1.3-9.4-1.4-2.3-2.85-2" fill="none" stroke="#000" stroke-linecap="round" stroke-linejoin="round" stroke-opacity=".41961" stroke-width=".05"/>
<path d="m333.25 192.6q-1.3 0.25-2.6 2.6-1.65 6.95 1.45 10.85 1.5-1.35 2.4-2.8-3.65-1.3-1.25-10.65" fill="#c90" fill-rule="evenodd"/>
<path d="m333.25 192.6q-2.4 9.35 1.25 10.65 2.6-3.95 1.5-8.85-1.35-2.1-2.75-1.8" fill="#fc3" fill-rule="evenodd"/>
<path d="m334.5 203.25q-0.9 1.45-2.4 2.8-3.1-3.9-1.45-10.85 1.3-2.35 2.6-2.6m1.25 10.65q2.6-3.95 1.5-8.85-1.35-2.1-2.75-1.8" fill="none" stroke="#000" stroke-linecap="round" stroke-linejoin="round" stroke-opacity=".41961" stroke-width=".05"/>
<path d="m340.1 213.2q-0.75 1.05-3.55 1.25-7.25-1.45-9.7-5.95 1.85-0.8 3.6-1.05-0.2 4 9.65 5.75" fill="#c90" fill-rule="evenodd"/>
<path d="m340.1 213.2q-9.85-1.75-9.65-5.75 4.85-0.65 9.05 2.45 1.4 2.1 0.6 3.3" fill="#fc3" fill-rule="evenodd"/>
<path d="m330.45 207.45q-1.75 0.25-3.6 1.05 2.45 4.5 9.7 5.95 2.8-0.2 3.55-1.25m-9.65-5.75q4.85-0.65 9.05 2.45 1.4 2.1 0.6 3.3" fill="none" stroke="#000" stroke-linecap="round" stroke-linejoin="round" stroke-opacity=".41961" stroke-width=".05"/>
<path d="m328.45 195.05q-1.3 0.25-2.6 2.6-1.65 6.95 1.45 10.85 1.5-1.35 2.4-2.8-3.65-1.3-1.25-10.65" fill="#c90" fill-rule="evenodd"/>
<path d="m328.45 195.05q-2.4 9.35 1.25 10.65 2.6-3.95 1.5-8.85-1.35-2.1-2.75-1.8" fill="#fc3" fill-rule="evenodd"/>
<path d="m329.7 205.7q-0.9 1.45-2.4 2.8-3.1-3.9-1.45-10.85 1.3-2.35 2.6-2.6m1.25 10.65q2.6-3.95 1.5-8.85-1.35-2.1-2.75-1.8" fill="none" stroke="#000" stroke-linecap="round" stroke-linejoin="round" stroke-opacity=".41961" stroke-width=".05"/>
<path d="m336.75 217q-0.75 1.05-3.55 1.25-7.25-1.45-9.7-5.95 1.85-0.8 3.6-1.05-0.2 4 9.65 5.75" fill="#c90" fill-rule="evenodd"/>
<path d="m336.75 217q-9.85-1.75-9.65-5.75 4.85-0.65 9.05 2.45 1.4 2.1 0.6 3.3" fill="#fc3" fill-rule="evenodd"/>
<path d="m327.1 211.25q-1.75 0.25-3.6 1.05 2.45 4.5 9.7 5.95 2.8-0.2 3.55-1.25m-9.65-5.75q4.85-0.65 9.05 2.45 1.4 2.1 0.6 3.3" fill="none" stroke="#000" stroke-linecap="round" stroke-linejoin="round" stroke-opacity=".41961" stroke-width=".05"/>
<path d="m325.15 198.85q-1.3 0.25-2.6 2.6-1.65 6.95 1.45 10.85 1.5-1.35 2.4-2.8-3.65-1.3-1.25-10.65" fill="#c90" fill-rule="evenodd"/>
<path d="m325.15 198.85q-2.4 9.35 1.25 10.65 2.6-3.95 1.5-8.85-1.35-2.1-2.75-1.8" fill="#fc3" fill-rule="evenodd"/>
<path d="m326.4 209.5q-0.9 1.45-2.4 2.8-3.1-3.9-1.45-10.85 1.3-2.35 2.6-2.6m1.25 10.65q2.6-3.95 1.5-8.85-1.35-2.1-2.75-1.8" fill="none" stroke="#000" stroke-linecap="round" stroke-linejoin="round" stroke-opacity=".41961" stroke-width=".05"/>
</g>
<linearGradient id="h" x1="-819.2" x2="819.2" gradientTransform="matrix(.0273 .0072 -.0079 .0299 205.95 192.1)" gradientUnits="userSpaceOnUse">
<stop stop-color="#cc0" offset="0"/>
<stop stop-color="#e8d949" offset="1"/>
</linearGradient>
<linearGradient id="g" x1="-819.2" x2="819.2" gradientTransform="matrix(.0115 .003 -.0077 .029 257.1 172.7)" gradientUnits="userSpaceOnUse">
<stop stop-color="#cc0" offset="0"/>
<stop stop-color="#e8d949" offset="1"/>
</linearGradient>
<linearGradient id="f" x1="-819.2" x2="819.2" gradientTransform="matrix(.0559 0 0 .022 280.55 182.35)" gradientUnits="userSpaceOnUse">
<stop stop-color="#a6a600" offset="0"/>
<stop stop-color="#9b7c06" offset="1"/>
</linearGradient>
<linearGradient id="e" x1="-819.2" x2="819.2" gradientTransform="matrix(.0474 .0125 -.0029 .011 228 198.5)" gradientUnits="userSpaceOnUse">
<stop stop-color="#cc0" offset="0"/>
<stop stop-color="#e8d949" offset="1"/>
</linearGradient>
<linearGradient id="d" x1="-819.2" x2="819.2" gradientTransform="matrix(.1041 0 0 .0393 273.55 216.55)" gradientUnits="userSpaceOnUse">
<stop stop-color="#a6a600" offset="0"/>
<stop stop-color="#9b7c06" offset="1"/>
</linearGradient>
<linearGradient id="c" x1="-819.2" x2="819.2" gradientTransform="matrix(.0603 0 0 .0174 278.9 206.45)" gradientUnits="userSpaceOnUse">
<stop stop-color="#947504" offset="0"/>
<stop stop-color="#7b5704" offset="1"/>
</linearGradient>
<linearGradient id="b" x1="-819.2" x2="819.2" gradientTransform="matrix(.0483 .0127 -.007 .0264 316.2 212.05)" gradientUnits="userSpaceOnUse">
<stop stop-color="#cc0" offset="0"/>
<stop stop-color="#e8d949" offset="1"/>
</linearGradient>
</defs>
</svg>
