<?xml version="1.0" encoding="UTF-8" standalone="no"?>
<!DOCTYPE svg PUBLIC "-//W3C//DTD SVG 1.1//EN" "http://www.w3.org/Graphics/SVG/1.1/DTD/svg11.dtd">
<svg width="100%" height="100%" viewBox="0 0 214 251" version="1.1" xmlns="http://www.w3.org/2000/svg" xmlns:xlink="http://www.w3.org/1999/xlink" xml:space="preserve" xmlns:serif="http://www.serif.com/" style="fill-rule:evenodd;clip-rule:evenodd;stroke-linecap:round;stroke-linejoin:round;">
    <g transform="matrix(1,0,0,1,-168.281,-74.39)">
        <g transform="matrix(2.63232,0,0,2.63232,-448.859,-327.257)">
            <g id="shape0">
                <path d="M248.8,219.85C246.867,210.75 246.65,201.6 248.15,192.4C248.717,188.967 249.717,185.133 251.15,180.9C253.05,175.2 255,171.45 257,169.65C262.833,164.317 269.833,161.083 278,159.95C286.7,158.75 294.35,160.383 300.95,164.85C303.183,166.383 304.917,168.6 306.15,171.5C306.65,172.667 307.45,175.383 308.55,179.65C310.45,187.183 310.333,192.617 308.2,195.95C304.967,201.117 299.45,203.833 291.65,204.1C287.383,204.067 284.2,204.117 282.1,204.25C278.5,204.45 275.567,205.117 273.3,206.25C269.033,208.417 265.817,211.467 263.65,215.4C262.483,217.533 261.117,220.433 259.55,224.1" style="fill:none;fill-rule:nonzero;stroke:#7c9ab2;stroke-width:0.46px;"/>
            </g>
            <g id="shape1" transform="matrix(-0.0946,0.1731,-0.1099,-0.1041,278.197,222.7)">
                <path d="M-42.95,-49.7C-36.35,-55.433 -26.533,-55.45 -13.5,-49.75C-0.4,-44.117 12.083,-34.433 23.95,-20.7C35.783,-6.967 43.567,6.767 47.3,20.5C51.033,34.233 49.583,43.967 42.95,49.7C36.317,55.433 26.467,55.467 13.4,49.8C0.367,44.133 -12.083,34.433 -23.95,20.7C-35.817,6.967 -43.617,-6.767 -47.35,-20.5C-51.05,-34.233 -49.583,-43.967 -42.95,-49.7" style="fill:#045566;"/>
                <path d="M25.9,-8.8C33.267,-0.3 38.067,8.217 40.3,16.75C42.667,25.283 41.8,31.317 37.7,34.85C33.6,38.383 27.483,38.4 19.35,34.9C11.283,31.4 3.567,25.4 -3.8,16.9C-11.167,8.4 -16,-0.117 -18.3,-8.65C-20.6,-17.183 -19.7,-23.217 -15.6,-26.75C-11.5,-30.283 -5.417,-30.3 2.65,-26.8C10.783,-23.3 18.533,-17.3 25.9,-8.8" style="fill:#159f66;"/>
            </g>
            <g id="shape11" serif:id="shape1" transform="matrix(-0.1099,0.098,-0.0526,-0.1386,270.3,230.804)">
                <path d="M-42.95,-49.7C-36.35,-55.433 -26.533,-55.45 -13.5,-49.75C-0.4,-44.117 12.083,-34.433 23.95,-20.7C35.783,-6.967 43.567,6.767 47.3,20.5C51.033,34.233 49.583,43.967 42.95,49.7C36.317,55.433 26.467,55.467 13.4,49.8C0.367,44.133 -12.083,34.433 -23.95,20.7C-35.817,6.967 -43.617,-6.767 -47.35,-20.5C-51.05,-34.233 -49.583,-43.967 -42.95,-49.7" style="fill:#045566;"/>
                <path d="M25.9,-8.8C33.267,-0.3 38.067,8.217 40.3,16.75C42.667,25.283 41.8,31.317 37.7,34.85C33.6,38.383 27.483,38.4 19.35,34.9C11.283,31.4 3.567,25.4 -3.8,16.9C-11.167,8.4 -16,-0.117 -18.3,-8.65C-20.6,-17.183 -19.7,-23.217 -15.6,-26.75C-11.5,-30.283 -5.417,-30.3 2.65,-26.8C10.783,-23.3 18.533,-17.3 25.9,-8.8" style="fill:#159f66;"/>
            </g>
            <g id="shape12" serif:id="shape1" transform="matrix(-0.0945,-0.0547,0.056,-0.1428,263.948,235.353)">
                <path d="M-42.95,-49.7C-36.35,-55.433 -26.533,-55.45 -13.5,-49.75C-0.4,-44.117 12.083,-34.433 23.95,-20.7C35.783,-6.967 43.567,6.767 47.3,20.5C51.033,34.233 49.583,43.967 42.95,49.7C36.317,55.433 26.467,55.467 13.4,49.8C0.367,44.133 -12.083,34.433 -23.95,20.7C-35.817,6.967 -43.617,-6.767 -47.35,-20.5C-51.05,-34.233 -49.583,-43.967 -42.95,-49.7" style="fill:#045566;"/>
                <path d="M25.9,-8.8C33.267,-0.3 38.067,8.217 40.3,16.75C42.667,25.283 41.8,31.317 37.7,34.85C33.6,38.383 27.483,38.4 19.35,34.9C11.283,31.4 3.567,25.4 -3.8,16.9C-11.167,8.4 -16,-0.117 -18.3,-8.65C-20.6,-17.183 -19.7,-23.217 -15.6,-26.75C-11.5,-30.283 -5.417,-30.3 2.65,-26.8C10.783,-23.3 18.533,-17.3 25.9,-8.8" style="fill:#159f66;"/>
            </g>
            <g id="shape13" serif:id="shape1" transform="matrix(-0.0791,-0.1487,0.1218,-0.1373,257.051,234.397)">
                <path d="M-42.95,-49.7C-36.35,-55.433 -26.533,-55.45 -13.5,-49.75C-0.4,-44.117 12.083,-34.433 23.95,-20.7C35.783,-6.967 43.567,6.767 47.3,20.5C51.033,34.233 49.583,43.967 42.95,49.7C36.317,55.433 26.467,55.467 13.4,49.8C0.367,44.133 -12.083,34.433 -23.95,20.7C-35.817,6.967 -43.617,-6.767 -47.35,-20.5C-51.05,-34.233 -49.583,-43.967 -42.95,-49.7" style="fill:#045566;"/>
                <path d="M25.9,-8.8C33.267,-0.3 38.067,8.217 40.3,16.75C42.667,25.283 41.8,31.317 37.7,34.85C33.6,38.383 27.483,38.4 19.35,34.9C11.283,31.4 3.567,25.4 -3.8,16.9C-11.167,8.4 -16,-0.117 -18.3,-8.65C-20.6,-17.183 -19.7,-23.217 -15.6,-26.75C-11.5,-30.283 -5.417,-30.3 2.65,-26.8C10.783,-23.3 18.533,-17.3 25.9,-8.8" style="fill:#159f66;"/>
            </g>
            <g id="shape14" serif:id="shape1" transform="matrix(-0.106,0.0106,0.0104,-0.1479,263.547,230.905)">
                <path d="M-42.95,-49.7C-36.35,-55.433 -26.533,-55.45 -13.5,-49.75C-0.4,-44.117 12.083,-34.433 23.95,-20.7C35.783,-6.967 43.567,6.767 47.3,20.5C51.033,34.233 49.583,43.967 42.95,49.7C36.317,55.433 26.467,55.467 13.4,49.8C0.367,44.133 -12.083,34.433 -23.95,20.7C-35.817,6.967 -43.617,-6.767 -47.35,-20.5C-51.05,-34.233 -49.583,-43.967 -42.95,-49.7" style="fill:#045566;"/>
                <path d="M25.9,-8.8C33.267,-0.3 38.067,8.217 40.3,16.75C42.667,25.283 41.8,31.317 37.7,34.85C33.6,38.383 27.483,38.4 19.35,34.9C11.283,31.4 3.567,25.4 -3.8,16.9C-11.167,8.4 -16,-0.117 -18.3,-8.65C-20.6,-17.183 -19.7,-23.217 -15.6,-26.75C-11.5,-30.283 -5.417,-30.3 2.65,-26.8C10.783,-23.3 18.533,-17.3 25.9,-8.8" style="fill:#159f66;"/>
            </g>
            <g id="shape15" serif:id="shape1" transform="matrix(0.1238,-0.0444,0.0112,0.1673,240.949,213.751)">
                <path d="M-42.95,-49.7C-36.35,-55.433 -26.533,-55.45 -13.5,-49.75C-0.4,-44.117 12.083,-34.433 23.95,-20.7C35.783,-6.967 43.567,6.767 47.3,20.5C51.033,34.233 49.583,43.967 42.95,49.7C36.317,55.433 26.467,55.467 13.4,49.8C0.367,44.133 -12.083,34.433 -23.95,20.7C-35.817,6.967 -43.617,-6.767 -47.35,-20.5C-51.05,-34.233 -49.583,-43.967 -42.95,-49.7" style="fill:#045566;"/>
                <path d="M25.9,-8.8C33.267,-0.3 38.067,8.217 40.3,16.75C42.667,25.283 41.8,31.317 37.7,34.85C33.6,38.383 27.483,38.4 19.35,34.9C11.283,31.4 3.567,25.4 -3.8,16.9C-11.167,8.4 -16,-0.117 -18.3,-8.65C-20.6,-17.183 -19.7,-23.217 -15.6,-26.75C-11.5,-30.283 -5.417,-30.3 2.65,-26.8C10.783,-23.3 18.533,-17.3 25.9,-8.8" style="fill:#159f66;"/>
            </g>
            <g id="shape16" serif:id="shape1" transform="matrix(0.0992,-0.1272,0.0756,0.1184,242.649,224.197)">
                <path d="M-42.95,-49.7C-36.35,-55.433 -26.533,-55.45 -13.5,-49.75C-0.4,-44.117 12.083,-34.433 23.95,-20.7C35.783,-6.967 43.567,6.767 47.3,20.5C51.033,34.233 49.583,43.967 42.95,49.7C36.317,55.433 26.467,55.467 13.4,49.8C0.367,44.133 -12.083,34.433 -23.95,20.7C-35.817,6.967 -43.617,-6.767 -47.35,-20.5C-51.05,-34.233 -49.583,-43.967 -42.95,-49.7" style="fill:#045566;"/>
                <path d="M25.9,-8.8C33.267,-0.3 38.067,8.217 40.3,16.75C42.667,25.283 41.8,31.317 37.7,34.85C33.6,38.383 27.483,38.4 19.35,34.9C11.283,31.4 3.567,25.4 -3.8,16.9C-11.167,8.4 -16,-0.117 -18.3,-8.65C-20.6,-17.183 -19.7,-23.217 -15.6,-26.75C-11.5,-30.283 -5.417,-30.3 2.65,-26.8C10.783,-23.3 18.533,-17.3 25.9,-8.8" style="fill:#159f66;"/>
            </g>
            <g id="shape17" serif:id="shape1" transform="matrix(0.0991,0.0224,-0.0332,0.1438,248.503,214.502)">
                <path d="M-42.95,-49.7C-36.35,-55.433 -26.533,-55.45 -13.5,-49.75C-0.4,-44.117 12.083,-34.433 23.95,-20.7C35.783,-6.967 43.567,6.767 47.3,20.5C51.033,34.233 49.583,43.967 42.95,49.7C36.317,55.433 26.467,55.467 13.4,49.8C0.367,44.133 -12.083,34.433 -23.95,20.7C-35.817,6.967 -43.617,-6.767 -47.35,-20.5C-51.05,-34.233 -49.583,-43.967 -42.95,-49.7" style="fill:#045566;"/>
                <path d="M25.9,-8.8C33.267,-0.3 38.067,8.217 40.3,16.75C42.667,25.283 41.8,31.317 37.7,34.85C33.6,38.383 27.483,38.4 19.35,34.9C11.283,31.4 3.567,25.4 -3.8,16.9C-11.167,8.4 -16,-0.117 -18.3,-8.65C-20.6,-17.183 -19.7,-23.217 -15.6,-26.75C-11.5,-30.283 -5.417,-30.3 2.65,-26.8C10.783,-23.3 18.533,-17.3 25.9,-8.8" style="fill:#159f66;"/>
            </g>
            <g id="shape18" serif:id="shape1" transform="matrix(0.0258,-0.1449,0.1011,0.0117,246.951,230.248)">
                <path d="M-42.95,-49.7C-36.35,-55.433 -26.533,-55.45 -13.5,-49.75C-0.4,-44.117 12.083,-34.433 23.95,-20.7C35.783,-6.967 43.567,6.767 47.3,20.5C51.033,34.233 49.583,43.967 42.95,49.7C36.317,55.433 26.467,55.467 13.4,49.8C0.367,44.133 -12.083,34.433 -23.95,20.7C-35.817,6.967 -43.617,-6.767 -47.35,-20.5C-51.05,-34.233 -49.583,-43.967 -42.95,-49.7" style="fill:#045566;"/>
                <path d="M25.9,-8.8C33.267,-0.3 38.067,8.217 40.3,16.75C42.667,25.283 41.8,31.317 37.7,34.85C33.6,38.383 27.483,38.4 19.35,34.9C11.283,31.4 3.567,25.4 -3.8,16.9C-11.167,8.4 -16,-0.117 -18.3,-8.65C-20.6,-17.183 -19.7,-23.217 -15.6,-26.75C-11.5,-30.283 -5.417,-30.3 2.65,-26.8C10.783,-23.3 18.533,-17.3 25.9,-8.8" style="fill:#159f66;"/>
            </g>
            <g id="shape19" serif:id="shape1" transform="matrix(0.0886,-0.0638,0.0313,0.1143,248.849,222.5)">
                <path d="M-42.95,-49.7C-36.35,-55.433 -26.533,-55.45 -13.5,-49.75C-0.4,-44.117 12.083,-34.433 23.95,-20.7C35.783,-6.967 43.567,6.767 47.3,20.5C51.033,34.233 49.583,43.967 42.95,49.7C36.317,55.433 26.467,55.467 13.4,49.8C0.367,44.133 -12.083,34.433 -23.95,20.7C-35.817,6.967 -43.617,-6.767 -47.35,-20.5C-51.05,-34.233 -49.583,-43.967 -42.95,-49.7" style="fill:#045566;"/>
                <path d="M25.9,-8.8C33.267,-0.3 38.067,8.217 40.3,16.75C42.667,25.283 41.8,31.317 37.7,34.85C33.6,38.383 27.483,38.4 19.35,34.9C11.283,31.4 3.567,25.4 -3.8,16.9C-11.167,8.4 -16,-0.117 -18.3,-8.65C-20.6,-17.183 -19.7,-23.217 -15.6,-26.75C-11.5,-30.283 -5.417,-30.3 2.65,-26.8C10.783,-23.3 18.533,-17.3 25.9,-8.8" style="fill:#159f66;"/>
            </g>
            <g id="shape110" serif:id="shape1" transform="matrix(0.156,0.0056,-0.0056,0.156,251.451,212.85)">
                <path d="M-42.95,-49.7C-36.35,-55.433 -26.533,-55.45 -13.5,-49.75C-0.4,-44.117 12.083,-34.433 23.95,-20.7C35.783,-6.967 43.567,6.767 47.3,20.5C51.033,34.233 49.583,43.967 42.95,49.7C36.317,55.433 26.467,55.467 13.4,49.8C0.367,44.133 -12.083,34.433 -23.95,20.7C-35.817,6.967 -43.617,-6.767 -47.35,-20.5C-51.05,-34.233 -49.583,-43.967 -42.95,-49.7" style="fill:#4b7000;"/>
                <path d="M25.9,-8.8C33.267,-0.3 38.067,8.217 40.3,16.75C42.667,25.283 41.8,31.317 37.7,34.85C33.6,38.383 27.483,38.4 19.35,34.9C11.283,31.4 3.567,25.4 -3.8,16.9C-11.167,8.4 -16,-0.117 -18.3,-8.65C-20.6,-17.183 -19.7,-23.217 -15.6,-26.75C-11.5,-30.283 -5.417,-30.3 2.65,-26.8C10.783,-23.3 18.533,-17.3 25.9,-8.8" style="fill:#70bc00;"/>
            </g>
            <g id="shape111" serif:id="shape1" transform="matrix(0.0163,-0.156,0.156,0.0163,247.653,232.902)">
                <path d="M-42.95,-49.7C-36.35,-55.433 -26.533,-55.45 -13.5,-49.75C-0.4,-44.117 12.083,-34.433 23.95,-20.7C35.783,-6.967 43.567,6.767 47.3,20.5C51.033,34.233 49.583,43.967 42.95,49.7C36.317,55.433 26.467,55.467 13.4,49.8C0.367,44.133 -12.083,34.433 -23.95,20.7C-35.817,6.967 -43.617,-6.767 -47.35,-20.5C-51.05,-34.233 -49.583,-43.967 -42.95,-49.7" style="fill:#4b7000;"/>
                <path d="M25.9,-8.8C33.267,-0.3 38.067,8.217 40.3,16.75C42.667,25.283 41.8,31.317 37.7,34.85C33.6,38.383 27.483,38.4 19.35,34.9C11.283,31.4 3.567,25.4 -3.8,16.9C-11.167,8.4 -16,-0.117 -18.3,-8.65C-20.6,-17.183 -19.7,-23.217 -15.6,-26.75C-11.5,-30.283 -5.417,-30.3 2.65,-26.8C10.783,-23.3 18.533,-17.3 25.9,-8.8" style="fill:#70bc00;"/>
            </g>
            <g id="shape112" serif:id="shape1" transform="matrix(0.0211,0.1536,-0.1536,0.0211,270.454,217.549)">
                <path d="M-42.95,-49.7C-36.35,-55.433 -26.533,-55.45 -13.5,-49.75C-0.4,-44.117 12.083,-34.433 23.95,-20.7C35.783,-6.967 43.567,6.767 47.3,20.5C51.033,34.233 49.583,43.967 42.95,49.7C36.317,55.433 26.467,55.467 13.4,49.8C0.367,44.133 -12.083,34.433 -23.95,20.7C-35.817,6.967 -43.617,-6.767 -47.35,-20.5C-51.05,-34.233 -49.583,-43.967 -42.95,-49.7" style="fill:#690;"/>
                <path d="M25.9,-8.8C33.267,-0.3 38.067,8.217 40.3,16.75C42.667,25.283 41.8,31.317 37.7,34.85C33.6,38.383 27.483,38.4 19.35,34.9C11.283,31.4 3.567,25.4 -3.8,16.9C-11.167,8.4 -16,-0.117 -18.3,-8.65C-20.6,-17.183 -19.7,-23.217 -15.6,-26.75C-11.5,-30.283 -5.417,-30.3 2.65,-26.8C10.783,-23.3 18.533,-17.3 25.9,-8.8" style="fill:#9f0;"/>
            </g>
            <g id="shape113" serif:id="shape1" transform="matrix(0.1,0.1193,-0.1193,0.1,260.801,220.2)">
                <path d="M-42.95,-49.7C-36.35,-55.433 -26.533,-55.45 -13.5,-49.75C-0.4,-44.117 12.083,-34.433 23.95,-20.7C35.783,-6.967 43.567,6.767 47.3,20.5C51.033,34.233 49.583,43.967 42.95,49.7C36.317,55.433 26.467,55.467 13.4,49.8C0.367,44.133 -12.083,34.433 -23.95,20.7C-35.817,6.967 -43.617,-6.767 -47.35,-20.5C-51.05,-34.233 -49.583,-43.967 -42.95,-49.7" style="fill:#690;"/>
                <path d="M25.9,-8.8C33.267,-0.3 38.067,8.217 40.3,16.75C42.667,25.283 41.8,31.317 37.7,34.85C33.6,38.383 27.483,38.4 19.35,34.9C11.283,31.4 3.567,25.4 -3.8,16.9C-11.167,8.4 -16,-0.117 -18.3,-8.65C-20.6,-17.183 -19.7,-23.217 -15.6,-26.75C-11.5,-30.283 -5.417,-30.3 2.65,-26.8C10.783,-23.3 18.533,-17.3 25.9,-8.8" style="fill:#9f0;"/>
            </g>
            <g id="shape114" serif:id="shape1" transform="matrix(-0.0358,0.1254,-0.1254,-0.0358,268.446,227.099)">
                <path d="M-42.95,-49.7C-36.35,-55.433 -26.533,-55.45 -13.5,-49.75C-0.4,-44.117 12.083,-34.433 23.95,-20.7C35.783,-6.967 43.567,6.767 47.3,20.5C51.033,34.233 49.583,43.967 42.95,49.7C36.317,55.433 26.467,55.467 13.4,49.8C0.367,44.133 -12.083,34.433 -23.95,20.7C-35.817,6.967 -43.617,-6.767 -47.35,-20.5C-51.05,-34.233 -49.583,-43.967 -42.95,-49.7" style="fill:#690;"/>
                <path d="M25.9,-8.8C33.267,-0.3 38.067,8.217 40.3,16.75C42.667,25.283 41.8,31.317 37.7,34.85C33.6,38.383 27.483,38.4 19.35,34.9C11.283,31.4 3.567,25.4 -3.8,16.9C-11.167,8.4 -16,-0.117 -18.3,-8.65C-20.6,-17.183 -19.7,-23.217 -15.6,-26.75C-11.5,-30.283 -5.417,-30.3 2.65,-26.8C10.783,-23.3 18.533,-17.3 25.9,-8.8" style="fill:#9f0;"/>
            </g>
            <g id="shape115" serif:id="shape1" transform="matrix(0.1141,-0.0026,0.0026,0.1141,253.948,222.502)">
                <path d="M-42.95,-49.7C-36.35,-55.433 -26.533,-55.45 -13.5,-49.75C-0.4,-44.117 12.083,-34.433 23.95,-20.7C35.783,-6.967 43.567,6.767 47.3,20.5C51.033,34.233 49.583,43.967 42.95,49.7C36.317,55.433 26.467,55.467 13.4,49.8C0.367,44.133 -12.083,34.433 -23.95,20.7C-35.817,6.967 -43.617,-6.767 -47.35,-20.5C-51.05,-34.233 -49.583,-43.967 -42.95,-49.7" style="fill:#690;"/>
                <path d="M25.9,-8.8C33.267,-0.3 38.067,8.217 40.3,16.75C42.667,25.283 41.8,31.317 37.7,34.85C33.6,38.383 27.483,38.4 19.35,34.9C11.283,31.4 3.567,25.4 -3.8,16.9C-11.167,8.4 -16,-0.117 -18.3,-8.65C-20.6,-17.183 -19.7,-23.217 -15.6,-26.75C-11.5,-30.283 -5.417,-30.3 2.65,-26.8C10.783,-23.3 18.533,-17.3 25.9,-8.8" style="fill:#9f0;"/>
            </g>
            <g id="shape116" serif:id="shape1" transform="matrix(-0.1118,0.036,-0.036,-0.1118,265.852,233.648)">
                <path d="M-42.95,-49.7C-36.35,-55.433 -26.533,-55.45 -13.5,-49.75C-0.4,-44.117 12.083,-34.433 23.95,-20.7C35.783,-6.967 43.567,6.767 47.3,20.5C51.033,34.233 49.583,43.967 42.95,49.7C36.317,55.433 26.467,55.467 13.4,49.8C0.367,44.133 -12.083,34.433 -23.95,20.7C-35.817,6.967 -43.617,-6.767 -47.35,-20.5C-51.05,-34.233 -49.583,-43.967 -42.95,-49.7" style="fill:#690;"/>
                <path d="M25.9,-8.8C33.267,-0.3 38.067,8.217 40.3,16.75C42.667,25.283 41.8,31.317 37.7,34.85C33.6,38.383 27.483,38.4 19.35,34.9C11.283,31.4 3.567,25.4 -3.8,16.9C-11.167,8.4 -16,-0.117 -18.3,-8.65C-20.6,-17.183 -19.7,-23.217 -15.6,-26.75C-11.5,-30.283 -5.417,-30.3 2.65,-26.8C10.783,-23.3 18.533,-17.3 25.9,-8.8" style="fill:#9f0;"/>
            </g>
            <g id="shape117" serif:id="shape1" transform="matrix(-0.0643,0.0837,-0.0837,-0.0643,308.601,164.246)">
                <path d="M-42.95,-49.7C-36.35,-55.433 -26.533,-55.45 -13.5,-49.75C-0.4,-44.117 12.083,-34.433 23.95,-20.7C35.783,-6.967 43.567,6.767 47.3,20.5C51.033,34.233 49.583,43.967 42.95,49.7C36.317,55.433 26.467,55.467 13.4,49.8C0.367,44.133 -12.083,34.433 -23.95,20.7C-35.817,6.967 -43.617,-6.767 -47.35,-20.5C-51.05,-34.233 -49.583,-43.967 -42.95,-49.7" style="fill:#4b7000;"/>
                <path d="M25.9,-8.8C33.267,-0.3 38.067,8.217 40.3,16.75C42.667,25.283 41.8,31.317 37.7,34.85C33.6,38.383 27.483,38.4 19.35,34.9C11.283,31.4 3.567,25.4 -3.8,16.9C-11.167,8.4 -16,-0.117 -18.3,-8.65C-20.6,-17.183 -19.7,-23.217 -15.6,-26.75C-11.5,-30.283 -5.417,-30.3 2.65,-26.8C10.783,-23.3 18.533,-17.3 25.9,-8.8" style="fill:#70bc00;"/>
            </g>
            <g id="shape118" serif:id="shape1" transform="matrix(0.0852,0.0624,-0.0624,0.0852,301.35,159.504)">
                <path d="M-42.95,-49.7C-36.35,-55.433 -26.533,-55.45 -13.5,-49.75C-0.4,-44.117 12.083,-34.433 23.95,-20.7C35.783,-6.967 43.567,6.767 47.3,20.5C51.033,34.233 49.583,43.967 42.95,49.7C36.317,55.433 26.467,55.467 13.4,49.8C0.367,44.133 -12.083,34.433 -23.95,20.7C-35.817,6.967 -43.617,-6.767 -47.35,-20.5C-51.05,-34.233 -49.583,-43.967 -42.95,-49.7" style="fill:#4b7000;"/>
                <path d="M25.9,-8.8C33.267,-0.3 38.067,8.217 40.3,16.75C42.667,25.283 41.8,31.317 37.7,34.85C33.6,38.383 27.483,38.4 19.35,34.9C11.283,31.4 3.567,25.4 -3.8,16.9C-11.167,8.4 -16,-0.117 -18.3,-8.65C-20.6,-17.183 -19.7,-23.217 -15.6,-26.75C-11.5,-30.283 -5.417,-30.3 2.65,-26.8C10.783,-23.3 18.533,-17.3 25.9,-8.8" style="fill:#70bc00;"/>
            </g>
        </g>
    </g>
</svg>
