<?xml version="1.0" encoding="UTF-8" standalone="no"?>
<!DOCTYPE svg PUBLIC "-//W3C//DTD SVG 1.1//EN" "http://www.w3.org/Graphics/SVG/1.1/DTD/svg11.dtd">
<svg width="100%" height="100%" viewBox="0 0 161 183" version="1.1" xmlns="http://www.w3.org/2000/svg" xmlns:xlink="http://www.w3.org/1999/xlink" xml:space="preserve" xmlns:serif="http://www.serif.com/" style="fill-rule:evenodd;clip-rule:evenodd;stroke-linecap:round;stroke-linejoin:round;">
    <g transform="matrix(1,0,0,1,-195.397,-108.88)">
        <g transform="matrix(4.36384,0,0,4.36384,-926.584,-672.684)">
            <g id="shape0">
                <path d="M291.35,195.3L292.4,197.95C293.1,200.017 293.567,202.067 293.8,204.1C292.367,204.967 291.15,206.567 290.15,208.9C289.55,210.367 290.717,210.633 293.65,209.7C293.117,210.467 292.667,211.283 292.3,212.15C291.7,213.25 291.25,214.4 290.95,215.6L289.4,216.85L289.3,217.05L289.2,217.05L289.05,217.15L284.7,219.2C286.633,217.767 287.9,215.667 288.5,212.9C288.733,211.7 288.85,210.367 288.85,208.9C288.85,205.233 288.067,201.567 286.5,197.9L291.35,195.3" style="fill:#65471b;"/>
                <path d="M276.55,179.8C277.25,180.567 275.9,181.35 272.5,182.15L270.9,180.95L270.45,181.95C268.383,181.35 266.5,181.333 264.8,181.9L269.9,179.3L274.15,179.2L276.55,179.8M277.25,185.6C276.35,184.5 277.867,183.55 281.8,182.75L282.6,183.35L282.95,183.7L284.35,184.95L285.9,186.6L287.85,189.05L289.4,191.45L290.2,192.8L290.3,193L290.45,193.25C290.383,193.883 288.783,194.85 285.65,196.15L284.4,193.95C282.333,190.45 279.95,187.667 277.25,185.6" style="fill:#8a6923;"/>
                <path d="M274.6,183.85L275.35,184.3L277.25,185.6C279.95,187.667 282.333,190.45 284.4,193.95L285.65,196.15L285.7,196.25L276.05,194.95L281.5,196.7C282.8,197.1 283.6,197.85 283.9,198.95C284.533,201.117 284.583,203.3 284.05,205.5L282.4,211.6L273.95,206.45C275.717,209.75 277.6,212.517 279.6,214.75C276.933,215.717 274.517,215.983 272.35,215.55C270.183,215.117 268.55,214.483 267.45,213.65L264.8,211.7L262.6,208.45L261.95,207.4L261.95,207.35L261.9,207.2C259.4,202.633 258.15,198.05 258.15,193.45C258.15,191.817 258.283,190.367 258.55,189.1L262.6,189.35L262.55,189.05C261.517,188.083 260.433,187.35 259.3,186.85C260.167,185.217 261.267,183.917 262.6,182.95C263.3,182.45 264.033,182.1 264.8,181.9C266.5,181.333 268.383,181.35 270.45,181.95L269.45,184.2L274.6,183.85" style="fill:#b99237;"/>
                <path d="M281.5,220.7L278.2,220.85L284.5,216.35L281.5,220.7" style="fill:#686017;"/>
                <path d="M284.7,219.2L282,220.55L281.5,220.7L284.5,216.35L278.2,220.85C276.767,220.617 275.183,220.083 273.45,219.25C270.217,217.617 267.333,215.1 264.8,211.7L267.45,213.65C268.55,214.483 270.183,215.117 272.35,215.55C274.517,215.983 276.933,215.717 279.6,214.75C277.6,212.517 275.717,209.75 273.95,206.45L282.4,211.6L284.05,205.5C284.583,203.3 284.533,201.117 283.9,198.95C283.6,197.85 282.8,197.1 281.5,196.7L276.05,194.95L285.7,196.25L286.5,197.9C288.067,201.567 288.85,205.233 288.85,208.9C288.85,210.367 288.733,211.7 288.5,212.9C287.9,215.667 286.633,217.767 284.7,219.2" style="fill:#9b6c28;"/>
                <path d="M276.55,179.8C277.183,180.033 277.833,180.317 278.5,180.65L281.8,182.75C277.867,183.55 276.35,184.5 277.25,185.6L275.35,184.3L274.6,183.85L274.85,183.8L272.5,182.15C275.9,181.35 277.25,180.567 276.55,179.8M258.55,189.1C259.017,188.6 259.267,187.85 259.3,186.85C260.433,187.35 261.517,188.083 262.55,189.05L262.6,189.35L258.55,189.1" style="fill:#f49302;"/>
                <path d="M272.5,182.15L274.85,183.8L274.6,183.85L269.45,184.2L270.45,181.95L270.9,180.95L272.5,182.15" style="fill:#c16100;"/>
                <path d="M290.45,193.25L290.6,193.5L291.2,194.9L291.35,195.3L286.5,197.9L285.7,196.25L285.65,196.15C288.783,194.85 290.383,193.883 290.45,193.25" style="fill:#73511e;"/>
                <path d="M293.8,204.1L293.1,205.8C292.9,206.333 292.9,207.05 293.1,207.95C293.267,208.817 293.45,209.4 293.65,209.7C290.717,210.633 289.55,210.367 290.15,208.9C291.15,206.567 292.367,204.967 293.8,204.1" style="fill:#573e17;"/>
                <path d="M282.6,183.35L282.95,183.7L284.35,184.95M287.85,189.05L289.4,191.45L290.2,192.8L290.3,193L290.6,193.5M292.4,197.95C293.1,200.017 293.567,202.067 293.8,204.1L293.1,205.8C292.9,206.333 292.9,207.05 293.1,207.95C293.267,208.817 293.45,209.4 293.65,209.7C293.117,210.467 292.667,211.283 292.3,212.15C291.7,213.25 291.25,214.4 290.95,215.6L289.4,216.85L289.3,217.05L289.05,217.15L284.7,219.2L282,220.55L281.5,220.7L278.2,220.85C276.767,220.617 275.183,220.083 273.45,219.25C270.217,217.617 267.333,215.1 264.8,211.7L262.6,208.45L261.95,207.4L261.95,207.35M261.9,207.2C259.4,202.633 258.15,198.05 258.15,193.45C258.15,191.817 258.283,190.367 258.55,189.1C259.017,188.6 259.267,187.85 259.3,186.85C260.167,185.217 261.267,183.917 262.6,182.95C263.3,182.45 264.033,182.1 264.8,181.9L269.9,179.3L274.15,179.2M289.05,217.15L289.2,217.05L289.3,217.05" style="fill:none;fill-rule:nonzero;stroke:#000;stroke-opacity:0.3;stroke-width:0.05px;"/>
                <path d="M272.95,190.65C274.317,193.45 274.967,196.4 274.9,199.5C274.833,202.633 274.083,205.017 272.65,206.65C271.217,208.283 269.517,208.7 267.55,207.9C265.617,207.067 263.95,205.25 262.55,202.45C261.183,199.65 260.533,196.683 260.6,193.55C260.667,190.45 261.417,188.083 262.85,186.45C264.317,184.817 266.017,184.417 267.95,185.25C269.917,186.05 271.583,187.85 272.95,190.65" style="fill:#c8a048;"/>
            </g>
            <g id="sprite0" transform="matrix(0,-1.0021,1.0021,0,258.6,196.95)">
                <g id="sprite1" transform="matrix(0.871,0,0,0.6319,0.7498,1.34983)">
                    <g id="shape1">
                        <path d="M3.7,0C3.7,1.033 3.333,1.9 2.6,2.6C1.9,3.333 1.033,3.7 0,3.7C-1.033,3.7 -1.917,3.333 -2.65,2.6C-3.35,1.9 -3.7,1.033 -3.7,0C-3.7,-1.033 -3.35,-1.917 -2.65,-2.65C-1.917,-3.35 -1.033,-3.7 0,-3.7C1.033,-3.7 1.9,-3.35 2.6,-2.65C3.333,-1.917 3.7,-1.033 3.7,0" style="fill:url(#_Radial1);"/>
                    </g>
                </g>
                <g id="sprite11" serif:id="sprite1" transform="matrix(0.871,0,0,0.6319,0.5498,1.34983)">
                    <g id="shape11" serif:id="shape1">
                        <path d="M3.7,0C3.7,1.033 3.333,1.9 2.6,2.6C1.9,3.333 1.033,3.7 0,3.7C-1.033,3.7 -1.917,3.333 -2.65,2.6C-3.35,1.9 -3.7,1.033 -3.7,0C-3.7,-1.033 -3.35,-1.917 -2.65,-2.65C-1.917,-3.35 -1.033,-3.7 0,-3.7C1.033,-3.7 1.9,-3.35 2.6,-2.65C3.333,-1.917 3.7,-1.033 3.7,0" style="fill:url(#_Radial2);"/>
                    </g>
                </g>
                <g id="sprite12" serif:id="sprite1" transform="matrix(0.871,0,0,0.6319,0.8998,1.94983)">
                    <g id="shape12" serif:id="shape1">
                        <path d="M3.7,0C3.7,1.033 3.333,1.9 2.6,2.6C1.9,3.333 1.033,3.7 0,3.7C-1.033,3.7 -1.917,3.333 -2.65,2.6C-3.35,1.9 -3.7,1.033 -3.7,0C-3.7,-1.033 -3.35,-1.917 -2.65,-2.65C-1.917,-3.35 -1.033,-3.7 0,-3.7C1.033,-3.7 1.9,-3.35 2.6,-2.65C3.333,-1.917 3.7,-1.033 3.7,0" style="fill:url(#_Radial3);"/>
                    </g>
                </g>
                <g id="sprite13" serif:id="sprite1" transform="matrix(0.871,0,0,0.6319,1.6498,0.84983)">
                    <g id="shape13" serif:id="shape1">
                        <path d="M3.7,0C3.7,1.033 3.333,1.9 2.6,2.6C1.9,3.333 1.033,3.7 0,3.7C-1.033,3.7 -1.917,3.333 -2.65,2.6C-3.35,1.9 -3.7,1.033 -3.7,0C-3.7,-1.033 -3.35,-1.917 -2.65,-2.65C-1.917,-3.35 -1.033,-3.7 0,-3.7C1.033,-3.7 1.9,-3.35 2.6,-2.65C3.333,-1.917 3.7,-1.033 3.7,0" style="fill:url(#_Radial4);"/>
                    </g>
                </g>
                <g id="shape2">
                    <path d="M-0.05,-1.2L1.75,-1.1C2.283,-0.833 2.617,-0.45 2.75,0.05C2.883,0.55 2.783,1.033 2.45,1.5L0.95,2.5L-0.8,2.4C-1.367,2.167 -1.717,1.8 -1.85,1.3C-1.983,0.767 -1.867,0.267 -1.5,-0.2C-1.167,-0.7 -0.683,-1.033 -0.05,-1.2" style="fill:#472d05;"/>
                    <path d="M-0.05,-1.2L1.75,-1.1C2.283,-0.833 2.617,-0.45 2.75,0.05C2.883,0.55 2.783,1.033 2.45,1.5L0.95,2.5L-0.8,2.4C-1.367,2.167 -1.717,1.8 -1.85,1.3C-1.983,0.767 -1.867,0.267 -1.5,-0.2C-1.167,-0.7 -0.683,-1.033 -0.05,-1.2Z" style="fill:none;fill-rule:nonzero;stroke:#5f3c07;stroke-opacity:0.4;stroke-width:0.25px;"/>
                    <path d="M1.45,-0.1C1.55,0.2 1.517,0.5 1.35,0.8L0.5,1.45L-0.55,1.3C-0.883,1.133 -1.083,0.9 -1.15,0.6C-1.25,0.233 -1.2,-0.1 -1,-0.4L-0.15,-0.95L0.9,-0.85L1.45,-0.1" style="fill:#86540b;"/>
                    <path d="M1.95,-0.15L1.55,0L1,-0.15L0.6,-0.55L0.55,-0.95L0.9,-1.1L1.45,-0.9L1.85,-0.55L1.95,-0.15" style="fill:#f3bb69;"/>
                </g>
            </g>
            <g id="sprite01" serif:id="sprite0" transform="matrix(0,-1.0021,1.0021,0,285,207.7)">
                <g id="sprite14" serif:id="sprite1" transform="matrix(0.871,0,0,0.6319,0.7498,1.34983)">
                    <g id="shape14" serif:id="shape1">
                        <path d="M3.7,0C3.7,1.033 3.333,1.9 2.6,2.6C1.9,3.333 1.033,3.7 0,3.7C-1.033,3.7 -1.917,3.333 -2.65,2.6C-3.35,1.9 -3.7,1.033 -3.7,0C-3.7,-1.033 -3.35,-1.917 -2.65,-2.65C-1.917,-3.35 -1.033,-3.7 0,-3.7C1.033,-3.7 1.9,-3.35 2.6,-2.65C3.333,-1.917 3.7,-1.033 3.7,0" style="fill:url(#_Radial5);"/>
                    </g>
                </g>
                <g id="sprite15" serif:id="sprite1" transform="matrix(0.871,0,0,0.6319,0.5498,1.34983)">
                    <g id="shape15" serif:id="shape1">
                        <path d="M3.7,0C3.7,1.033 3.333,1.9 2.6,2.6C1.9,3.333 1.033,3.7 0,3.7C-1.033,3.7 -1.917,3.333 -2.65,2.6C-3.35,1.9 -3.7,1.033 -3.7,0C-3.7,-1.033 -3.35,-1.917 -2.65,-2.65C-1.917,-3.35 -1.033,-3.7 0,-3.7C1.033,-3.7 1.9,-3.35 2.6,-2.65C3.333,-1.917 3.7,-1.033 3.7,0" style="fill:url(#_Radial6);"/>
                    </g>
                </g>
                <g id="sprite16" serif:id="sprite1" transform="matrix(0.871,0,0,0.6319,0.8998,1.94983)">
                    <g id="shape16" serif:id="shape1">
                        <path d="M3.7,0C3.7,1.033 3.333,1.9 2.6,2.6C1.9,3.333 1.033,3.7 0,3.7C-1.033,3.7 -1.917,3.333 -2.65,2.6C-3.35,1.9 -3.7,1.033 -3.7,0C-3.7,-1.033 -3.35,-1.917 -2.65,-2.65C-1.917,-3.35 -1.033,-3.7 0,-3.7C1.033,-3.7 1.9,-3.35 2.6,-2.65C3.333,-1.917 3.7,-1.033 3.7,0" style="fill:url(#_Radial7);"/>
                    </g>
                </g>
                <g id="sprite17" serif:id="sprite1" transform="matrix(0.871,0,0,0.6319,1.6498,0.84983)">
                    <g id="shape17" serif:id="shape1">
                        <path d="M3.7,0C3.7,1.033 3.333,1.9 2.6,2.6C1.9,3.333 1.033,3.7 0,3.7C-1.033,3.7 -1.917,3.333 -2.65,2.6C-3.35,1.9 -3.7,1.033 -3.7,0C-3.7,-1.033 -3.35,-1.917 -2.65,-2.65C-1.917,-3.35 -1.033,-3.7 0,-3.7C1.033,-3.7 1.9,-3.35 2.6,-2.65C3.333,-1.917 3.7,-1.033 3.7,0" style="fill:url(#_Radial8);"/>
                    </g>
                </g>
                <g id="shape21" serif:id="shape2">
                    <path d="M-0.05,-1.2L1.75,-1.1C2.283,-0.833 2.617,-0.45 2.75,0.05C2.883,0.55 2.783,1.033 2.45,1.5L0.95,2.5L-0.8,2.4C-1.367,2.167 -1.717,1.8 -1.85,1.3C-1.983,0.767 -1.867,0.267 -1.5,-0.2C-1.167,-0.7 -0.683,-1.033 -0.05,-1.2" style="fill:#472d05;"/>
                    <path d="M-0.05,-1.2L1.75,-1.1C2.283,-0.833 2.617,-0.45 2.75,0.05C2.883,0.55 2.783,1.033 2.45,1.5L0.95,2.5L-0.8,2.4C-1.367,2.167 -1.717,1.8 -1.85,1.3C-1.983,0.767 -1.867,0.267 -1.5,-0.2C-1.167,-0.7 -0.683,-1.033 -0.05,-1.2Z" style="fill:none;fill-rule:nonzero;stroke:#5f3c07;stroke-opacity:0.4;stroke-width:0.25px;"/>
                    <path d="M1.45,-0.1C1.55,0.2 1.517,0.5 1.35,0.8L0.5,1.45L-0.55,1.3C-0.883,1.133 -1.083,0.9 -1.15,0.6C-1.25,0.233 -1.2,-0.1 -1,-0.4L-0.15,-0.95L0.9,-0.85L1.45,-0.1" style="fill:#86540b;"/>
                    <path d="M1.95,-0.15L1.55,0L1,-0.15L0.6,-0.55L0.55,-0.95L0.9,-1.1L1.45,-0.9L1.85,-0.55L1.95,-0.15" style="fill:#f3bb69;"/>
                </g>
            </g>
            <g id="shape3">
                <path d="M268.85,181.3L273.65,179.1L275.35,179.55L270.55,181.95L269.4,185.95L268.8,194.4L268.85,181.3M268.15,202.9L268.45,198.75L268.95,205.8L268.15,202.9M272.4,218.15L274.2,219.75L271.25,218.35L270.25,210.5L272.4,218.15" style="fill:#65471b;"/>
            </g>
            <g id="sprite02" serif:id="sprite0" transform="matrix(0,-1.0021,1.0021,0,273.35,188.5)">
                <g id="sprite18" serif:id="sprite1" transform="matrix(0.871,0,0,0.6319,0.7498,1.34983)">
                    <g id="shape18" serif:id="shape1">
                        <path d="M3.7,0C3.7,1.033 3.333,1.9 2.6,2.6C1.9,3.333 1.033,3.7 0,3.7C-1.033,3.7 -1.917,3.333 -2.65,2.6C-3.35,1.9 -3.7,1.033 -3.7,0C-3.7,-1.033 -3.35,-1.917 -2.65,-2.65C-1.917,-3.35 -1.033,-3.7 0,-3.7C1.033,-3.7 1.9,-3.35 2.6,-2.65C3.333,-1.917 3.7,-1.033 3.7,0" style="fill:url(#_Radial9);"/>
                    </g>
                </g>
                <g id="sprite19" serif:id="sprite1" transform="matrix(0.871,0,0,0.6319,0.5498,1.34983)">
                    <g id="shape19" serif:id="shape1">
                        <path d="M3.7,0C3.7,1.033 3.333,1.9 2.6,2.6C1.9,3.333 1.033,3.7 0,3.7C-1.033,3.7 -1.917,3.333 -2.65,2.6C-3.35,1.9 -3.7,1.033 -3.7,0C-3.7,-1.033 -3.35,-1.917 -2.65,-2.65C-1.917,-3.35 -1.033,-3.7 0,-3.7C1.033,-3.7 1.9,-3.35 2.6,-2.65C3.333,-1.917 3.7,-1.033 3.7,0" style="fill:url(#_Radial10);"/>
                    </g>
                </g>
                <g id="sprite110" serif:id="sprite1" transform="matrix(0.871,0,0,0.6319,0.8998,1.94983)">
                    <g id="shape110" serif:id="shape1">
                        <path d="M3.7,0C3.7,1.033 3.333,1.9 2.6,2.6C1.9,3.333 1.033,3.7 0,3.7C-1.033,3.7 -1.917,3.333 -2.65,2.6C-3.35,1.9 -3.7,1.033 -3.7,0C-3.7,-1.033 -3.35,-1.917 -2.65,-2.65C-1.917,-3.35 -1.033,-3.7 0,-3.7C1.033,-3.7 1.9,-3.35 2.6,-2.65C3.333,-1.917 3.7,-1.033 3.7,0" style="fill:url(#_Radial11);"/>
                    </g>
                </g>
                <g id="sprite111" serif:id="sprite1" transform="matrix(0.871,0,0,0.6319,1.6498,0.84983)">
                    <g id="shape111" serif:id="shape1">
                        <path d="M3.7,0C3.7,1.033 3.333,1.9 2.6,2.6C1.9,3.333 1.033,3.7 0,3.7C-1.033,3.7 -1.917,3.333 -2.65,2.6C-3.35,1.9 -3.7,1.033 -3.7,0C-3.7,-1.033 -3.35,-1.917 -2.65,-2.65C-1.917,-3.35 -1.033,-3.7 0,-3.7C1.033,-3.7 1.9,-3.35 2.6,-2.65C3.333,-1.917 3.7,-1.033 3.7,0" style="fill:url(#_Radial12);"/>
                    </g>
                </g>
                <g id="shape22" serif:id="shape2">
                    <path d="M-0.05,-1.2L1.75,-1.1C2.283,-0.833 2.617,-0.45 2.75,0.05C2.883,0.55 2.783,1.033 2.45,1.5L0.95,2.5L-0.8,2.4C-1.367,2.167 -1.717,1.8 -1.85,1.3C-1.983,0.767 -1.867,0.267 -1.5,-0.2C-1.167,-0.7 -0.683,-1.033 -0.05,-1.2" style="fill:#472d05;"/>
                    <path d="M-0.05,-1.2L1.75,-1.1C2.283,-0.833 2.617,-0.45 2.75,0.05C2.883,0.55 2.783,1.033 2.45,1.5L0.95,2.5L-0.8,2.4C-1.367,2.167 -1.717,1.8 -1.85,1.3C-1.983,0.767 -1.867,0.267 -1.5,-0.2C-1.167,-0.7 -0.683,-1.033 -0.05,-1.2Z" style="fill:none;fill-rule:nonzero;stroke:#5f3c07;stroke-opacity:0.4;stroke-width:0.25px;"/>
                    <path d="M1.45,-0.1C1.55,0.2 1.517,0.5 1.35,0.8L0.5,1.45L-0.55,1.3C-0.883,1.133 -1.083,0.9 -1.15,0.6C-1.25,0.233 -1.2,-0.1 -1,-0.4L-0.15,-0.95L0.9,-0.85L1.45,-0.1" style="fill:#86540b;"/>
                    <path d="M1.95,-0.15L1.55,0L1,-0.15L0.6,-0.55L0.55,-0.95L0.9,-1.1L1.45,-0.9L1.85,-0.55L1.95,-0.15" style="fill:#f3bb69;"/>
                </g>
            </g>
            <g id="shape4">
                <path d="M283.65,189L285.5,188.45L282.85,190.2L282.05,190.7L281.35,191.45L276.05,196.8L268.95,205.15L269.85,203.45L276.05,196.8L280.8,190.4L281.4,189.6L283.65,189M263.2,209.1L265.9,207.2L264.15,210.75L263.2,209.1" style="fill:#65471b;"/>
                <path d="M280.8,190.4L279.4,187.35C280.5,188.283 281.917,188.833 283.65,189L281.4,189.6L280.8,190.4M282.85,190.2L283.9,193.1L281.35,191.45L282.05,190.7L282.85,190.2" style="fill:#c16100;"/>
                <path d="M281.85,207.4L282.1,207.9L280.05,209.7L278.9,208.15L279.2,205.4L281.85,207.4M282.9,220.15L281.3,216.75L283,212L285.55,213.2L287.1,216.5C285.4,218.8 284.183,219.883 283.45,219.75L282.9,220.15" style="fill:#855714;"/>
                <path d="M268.9,206.7L267.15,204.9L268.7,203.65L269.5,204.9L268.9,206.7" style="fill:#ff9e0a;fill-opacity:0.4;"/>
            </g>
            <g id="sprite03" serif:id="sprite0" transform="matrix(0,-1.0021,1.0021,0,272.05,217.85)">
                <g id="sprite112" serif:id="sprite1" transform="matrix(0.871,0,0,0.6319,0.7498,1.34983)">
                    <g id="shape112" serif:id="shape1">
                        <path d="M3.7,0C3.7,1.033 3.333,1.9 2.6,2.6C1.9,3.333 1.033,3.7 0,3.7C-1.033,3.7 -1.917,3.333 -2.65,2.6C-3.35,1.9 -3.7,1.033 -3.7,0C-3.7,-1.033 -3.35,-1.917 -2.65,-2.65C-1.917,-3.35 -1.033,-3.7 0,-3.7C1.033,-3.7 1.9,-3.35 2.6,-2.65C3.333,-1.917 3.7,-1.033 3.7,0" style="fill:url(#_Radial13);"/>
                    </g>
                </g>
                <g id="sprite113" serif:id="sprite1" transform="matrix(0.871,0,0,0.6319,0.5498,1.34983)">
                    <g id="shape113" serif:id="shape1">
                        <path d="M3.7,0C3.7,1.033 3.333,1.9 2.6,2.6C1.9,3.333 1.033,3.7 0,3.7C-1.033,3.7 -1.917,3.333 -2.65,2.6C-3.35,1.9 -3.7,1.033 -3.7,0C-3.7,-1.033 -3.35,-1.917 -2.65,-2.65C-1.917,-3.35 -1.033,-3.7 0,-3.7C1.033,-3.7 1.9,-3.35 2.6,-2.65C3.333,-1.917 3.7,-1.033 3.7,0" style="fill:url(#_Radial14);"/>
                    </g>
                </g>
                <g id="sprite114" serif:id="sprite1" transform="matrix(0.871,0,0,0.6319,0.8998,1.94983)">
                    <g id="shape114" serif:id="shape1">
                        <path d="M3.7,0C3.7,1.033 3.333,1.9 2.6,2.6C1.9,3.333 1.033,3.7 0,3.7C-1.033,3.7 -1.917,3.333 -2.65,2.6C-3.35,1.9 -3.7,1.033 -3.7,0C-3.7,-1.033 -3.35,-1.917 -2.65,-2.65C-1.917,-3.35 -1.033,-3.7 0,-3.7C1.033,-3.7 1.9,-3.35 2.6,-2.65C3.333,-1.917 3.7,-1.033 3.7,0" style="fill:url(#_Radial15);"/>
                    </g>
                </g>
                <g id="sprite115" serif:id="sprite1" transform="matrix(0.871,0,0,0.6319,1.6498,0.84983)">
                    <g id="shape115" serif:id="shape1">
                        <path d="M3.7,0C3.7,1.033 3.333,1.9 2.6,2.6C1.9,3.333 1.033,3.7 0,3.7C-1.033,3.7 -1.917,3.333 -2.65,2.6C-3.35,1.9 -3.7,1.033 -3.7,0C-3.7,-1.033 -3.35,-1.917 -2.65,-2.65C-1.917,-3.35 -1.033,-3.7 0,-3.7C1.033,-3.7 1.9,-3.35 2.6,-2.65C3.333,-1.917 3.7,-1.033 3.7,0" style="fill:url(#_Radial16);"/>
                    </g>
                </g>
                <g id="shape23" serif:id="shape2">
                    <path d="M-0.05,-1.2L1.75,-1.1C2.283,-0.833 2.617,-0.45 2.75,0.05C2.883,0.55 2.783,1.033 2.45,1.5L0.95,2.5L-0.8,2.4C-1.367,2.167 -1.717,1.8 -1.85,1.3C-1.983,0.767 -1.867,0.267 -1.5,-0.2C-1.167,-0.7 -0.683,-1.033 -0.05,-1.2" style="fill:#472d05;"/>
                    <path d="M-0.05,-1.2L1.75,-1.1C2.283,-0.833 2.617,-0.45 2.75,0.05C2.883,0.55 2.783,1.033 2.45,1.5L0.95,2.5L-0.8,2.4C-1.367,2.167 -1.717,1.8 -1.85,1.3C-1.983,0.767 -1.867,0.267 -1.5,-0.2C-1.167,-0.7 -0.683,-1.033 -0.05,-1.2Z" style="fill:none;fill-rule:nonzero;stroke:#5f3c07;stroke-opacity:0.4;stroke-width:0.25px;"/>
                    <path d="M1.45,-0.1C1.55,0.2 1.517,0.5 1.35,0.8L0.5,1.45L-0.55,1.3C-0.883,1.133 -1.083,0.9 -1.15,0.6C-1.25,0.233 -1.2,-0.1 -1,-0.4L-0.15,-0.95L0.9,-0.85L1.45,-0.1" style="fill:#86540b;"/>
                    <path d="M1.95,-0.15L1.55,0L1,-0.15L0.6,-0.55L0.55,-0.95L0.9,-1.1L1.45,-0.9L1.85,-0.55L1.95,-0.15" style="fill:#f3bb69;"/>
                </g>
            </g>
        </g>
    </g>
    <defs>
        <radialGradient id="_Radial1" cx="0" cy="0" r="1" gradientUnits="userSpaceOnUse" gradientTransform="matrix(3.76832,0,0,3.76832,0,0)"><stop offset="0" style="stop-color:#665b33;stop-opacity:1"/><stop offset="1" style="stop-color:#665b33;stop-opacity:0"/></radialGradient>
        <radialGradient id="_Radial2" cx="0" cy="0" r="1" gradientUnits="userSpaceOnUse" gradientTransform="matrix(3.76832,0,0,3.76832,0,0)"><stop offset="0" style="stop-color:#665b33;stop-opacity:1"/><stop offset="1" style="stop-color:#665b33;stop-opacity:0"/></radialGradient>
        <radialGradient id="_Radial3" cx="0" cy="0" r="1" gradientUnits="userSpaceOnUse" gradientTransform="matrix(3.76832,0,0,3.76832,0,0)"><stop offset="0" style="stop-color:#665b33;stop-opacity:1"/><stop offset="1" style="stop-color:#665b33;stop-opacity:0"/></radialGradient>
        <radialGradient id="_Radial4" cx="0" cy="0" r="1" gradientUnits="userSpaceOnUse" gradientTransform="matrix(3.76832,0,0,3.76832,0,0)"><stop offset="0" style="stop-color:#665b33;stop-opacity:1"/><stop offset="1" style="stop-color:#665b33;stop-opacity:0"/></radialGradient>
        <radialGradient id="_Radial5" cx="0" cy="0" r="1" gradientUnits="userSpaceOnUse" gradientTransform="matrix(3.76832,0,0,3.76832,0,0)"><stop offset="0" style="stop-color:#665b33;stop-opacity:1"/><stop offset="1" style="stop-color:#665b33;stop-opacity:0"/></radialGradient>
        <radialGradient id="_Radial6" cx="0" cy="0" r="1" gradientUnits="userSpaceOnUse" gradientTransform="matrix(3.76832,0,0,3.76832,0,0)"><stop offset="0" style="stop-color:#665b33;stop-opacity:1"/><stop offset="1" style="stop-color:#665b33;stop-opacity:0"/></radialGradient>
        <radialGradient id="_Radial7" cx="0" cy="0" r="1" gradientUnits="userSpaceOnUse" gradientTransform="matrix(3.76832,0,0,3.76832,0,0)"><stop offset="0" style="stop-color:#665b33;stop-opacity:1"/><stop offset="1" style="stop-color:#665b33;stop-opacity:0"/></radialGradient>
        <radialGradient id="_Radial8" cx="0" cy="0" r="1" gradientUnits="userSpaceOnUse" gradientTransform="matrix(3.76832,0,0,3.76832,0,0)"><stop offset="0" style="stop-color:#665b33;stop-opacity:1"/><stop offset="1" style="stop-color:#665b33;stop-opacity:0"/></radialGradient>
        <radialGradient id="_Radial9" cx="0" cy="0" r="1" gradientUnits="userSpaceOnUse" gradientTransform="matrix(3.76832,0,0,3.76832,0,0)"><stop offset="0" style="stop-color:#665b33;stop-opacity:1"/><stop offset="1" style="stop-color:#665b33;stop-opacity:0"/></radialGradient>
        <radialGradient id="_Radial10" cx="0" cy="0" r="1" gradientUnits="userSpaceOnUse" gradientTransform="matrix(3.76832,0,0,3.76832,0,0)"><stop offset="0" style="stop-color:#665b33;stop-opacity:1"/><stop offset="1" style="stop-color:#665b33;stop-opacity:0"/></radialGradient>
        <radialGradient id="_Radial11" cx="0" cy="0" r="1" gradientUnits="userSpaceOnUse" gradientTransform="matrix(3.76832,0,0,3.76832,0,0)"><stop offset="0" style="stop-color:#665b33;stop-opacity:1"/><stop offset="1" style="stop-color:#665b33;stop-opacity:0"/></radialGradient>
        <radialGradient id="_Radial12" cx="0" cy="0" r="1" gradientUnits="userSpaceOnUse" gradientTransform="matrix(3.76832,0,0,3.76832,0,0)"><stop offset="0" style="stop-color:#665b33;stop-opacity:1"/><stop offset="1" style="stop-color:#665b33;stop-opacity:0"/></radialGradient>
        <radialGradient id="_Radial13" cx="0" cy="0" r="1" gradientUnits="userSpaceOnUse" gradientTransform="matrix(3.76832,0,0,3.76832,0,0)"><stop offset="0" style="stop-color:#665b33;stop-opacity:1"/><stop offset="1" style="stop-color:#665b33;stop-opacity:0"/></radialGradient>
        <radialGradient id="_Radial14" cx="0" cy="0" r="1" gradientUnits="userSpaceOnUse" gradientTransform="matrix(3.76832,0,0,3.76832,0,0)"><stop offset="0" style="stop-color:#665b33;stop-opacity:1"/><stop offset="1" style="stop-color:#665b33;stop-opacity:0"/></radialGradient>
        <radialGradient id="_Radial15" cx="0" cy="0" r="1" gradientUnits="userSpaceOnUse" gradientTransform="matrix(3.76832,0,0,3.76832,0,0)"><stop offset="0" style="stop-color:#665b33;stop-opacity:1"/><stop offset="1" style="stop-color:#665b33;stop-opacity:0"/></radialGradient>
        <radialGradient id="_Radial16" cx="0" cy="0" r="1" gradientUnits="userSpaceOnUse" gradientTransform="matrix(3.76832,0,0,3.76832,0,0)"><stop offset="0" style="stop-color:#665b33;stop-opacity:1"/><stop offset="1" style="stop-color:#665b33;stop-opacity:0"/></radialGradient>
    </defs>
</svg>
