<?xml version="1.0" encoding="UTF-8"?>
<svg version="1.1" viewBox="0 0 50.199 42.525" xmlns="http://www.w3.org/2000/svg" xmlns:cc="http://creativecommons.org/ns#" xmlns:dc="http://purl.org/dc/elements/1.1/" xmlns:rdf="http://www.w3.org/1999/02/22-rdf-syntax-ns#" xmlns:xlink="http://www.w3.org/1999/xlink">
<metadata>
<rdf:RDF>
<cc:Work rdf:about="">
<dc:format>image/svg+xml</dc:format>
<dc:type rdf:resource="http://purl.org/dc/dcmitype/StillImage"/>
</cc:Work>
</rdf:RDF>
</metadata>
<g transform="translate(-249.9,-179.2)">
<use transform="translate(249.9,179.2)" width="50.150002" height="42.5" xlink:href="#a"/>
</g>
<defs>
<g id="a" transform="translate(-249.9,-179.2)">
<path d="m279.8 186.65-1.95-1.7-6-1.4-6.4 0.9-5.95 3.7-2.5 4.3 0.35 6 1.75-0.25h0.15l3.65-0.45 4.9-0.95 4.05-0.95-0.15 7.3-14.65-0.05-0.05-4.6-0.55 0.05-0.75 0.1 0.6-5.95q1.75-4.85 5.3-6.7 4.1-3.05 9.4-3 6.1 0.5 9.65 2.55l-0.7 0.95-0.15 0.15m-22.45 11.8-0.35 0.05 0.35-0.05" fill="#a05a14" fill-rule="evenodd"/>
<path d="m267.8 196.8q2-1 4.05-2.45l0.15-0.1 1.1-0.85v2.15l-0.65 0.15-0.6 0.15-4.05 0.95m-10.75 6.3h-0.65l0.05-4.55 0.55-0.05 0.05 4.6" fill="#713f0f" fill-rule="evenodd"/>
<path d="m273.25 185.9 0.15 1.2-0.15-1.2m2.8 1.8-2.65-0.6-1.55-0.15q-4 0.05-8.55 2.3-2.55 1.9-4.2 5.25v3.7l-1.75 0.25-0.35-6 2.5-4.3 5.95-3.7 6.4-0.9 6 1.4 1.95 1.7-1.65 1.9q-0.95-0.55-2.1-0.85l0.05-1.45-0.05 1.45m-2.95 5.7h0.05l5.05 4-2.15 2.4-1.55 5.95-5.65 1.7-3.25-3.15h7.5v-10.9m15 4.05-5.15 0.25 1.9-1.4 3.3 1.15h-0.05" fill="#59330d" fill-rule="evenodd"/>
<path d="m268.85 207.45 5.65-1.7 1.55-5.95 2.15-2.4 1.25 1 0.15 0.1 1.05 0.8 2.3-1.6 5.15-0.25h0.05q5.15 1.6 8.45 4.85-0.85 4-4.3 6.9l-0.15 0.2-2.75 1.3-4.35 1.55-5.9 1-0.5-0.15q-5.7-1.65-9.8-5.65" fill="#6b3c0e" fill-rule="evenodd"/>
<path d="m298.4 202.05q3.35 4.65 0 10.25-5.15 8.85-19.8 9.4-13.8-7.1-20.6-14.2l-0.3-3.15 5.05-0.05q1.75 1.9 4.15 3.7 4.35 3.2 10.75 6.05l7.7-0.65q2.45-0.55 4.5-1.45l0.35 1.2-0.35-1.2q6.5-2.9 8.55-9.9m-12.65 12.85-0.4-1.5 0.4 1.5" fill="#4f2d0b" fill-rule="evenodd"/>
<path d="m255.7 198.65 0.75-0.1-0.05 4.55h0.65l14.65 0.05 0.15-7.3 0.6-0.15-0.05 8.1-16.95-0.05 0.15-5.05 0.1-0.05m35.2-1.35q3.75 1.7 7.5 4.75-2.05 7-8.55 9.9l-0.2-0.65 0.2 0.65q-2.05 0.9-4.5 1.45l-7.7 0.65q-6.4-2.85-10.75-6.05l1.4-0.4 4.15 3.35 6.2 2.65 6.55-0.85v0.05l0.15 0.6-0.15-0.6 4.45-1.5-0.05-0.05q2.2-0.9 4.6-3.45 2.15-2.3 2.65-3.65l0.5-2q-3.95-3.45-8.15-4.75l1.7-0.1m-2.75 0.15h-0.05 0.05" fill="#ebdc70" fill-rule="evenodd"/>
<path d="m255.45 203.75 16.95 0.05 0.05-8.1 0.65-0.15v8.75h-10.35l-5.05 0.05-2.3-0.05 0.05-0.5v-0.05m32.7-6.3 1.05-0.05q4.2 1.3 8.15 4.75l-0.5 2q-0.5 1.35-2.65 3.65-2.4 2.55-4.6 3.45l-0.2-0.55 0.2 0.55 0.05 0.05-4.45 1.5v-0.05l-6.55 0.85-6.2-2.65-4.15-3.35 0.55-0.15q4.1 4 9.8 5.65l0.5 0.15 5.9-1 4.35-1.55 2.75-1.3 0.15-0.2q3.45-2.9 4.3-6.9-3.3-3.25-8.45-4.85m-3.1 14.8 0.15 0.5-0.15-0.5" fill="#e9aa27" fill-rule="evenodd"/>
<path d="m285.9 195.55q2.5 0.6 5 1.75l-1.7 0.1-1.05 0.05-3.3-1.15 1.05-0.75m-20.3 8.75 3.25 3.15-0.55 0.15-1.4 0.4q-2.4-1.8-4.15-3.7h2.85" fill="#b98313" fill-rule="evenodd"/>
<path d="m273.4 187.1 0.2 1.55m-0.2-1.55-0.15-1.2m2.8 1.8 0.05-1.45m-18.75 12.2 1.75-0.25h0.15l3.65-0.45 4.9-0.95q2-1 4.05-2.45m0.15-0.1 1.1-0.85m0.05 0 1.05-0.9 3.95-3.95m-2.1-0.85-0.05 0.8m-19.55 10.05-0.75 0.1-0.1 0.05-0.15 5.05m1-5.2 0.55-0.05 0.35-0.05m-1.65 0.2 0.6-5.95q1.75-4.85 5.3-6.7 4.1-3.05 9.4-3 6.1 0.5 9.65 2.55l0.1 0.05 10.4 6.2-5.25 3.75q2.5 0.6 5 1.75 3.75 1.7 7.5 4.75 3.35 4.65 0 10.25-5.15 8.85-19.8 9.4-13.8-7.1-20.6-14.2l-0.3-3.15-2.3-0.05 0.05-0.5m17.65-8.25v8.75m5.1-6.9-5.05-4m7.5-7.85-0.7 0.95-0.15 0.15-1.65 1.9m1.3 9.85-1.25-1m2.45 1.9-1.05-0.8m9.8 12.2 0.2 0.55m-4.4 1.55v-0.05l-0.15-0.5m-18.15-4.25q4.35 3.2 10.75 6.05l7.7-0.65-0.15-0.6m4.45-1.5-0.05-0.05m0.25 0.7 0.35 1.2m-0.55-1.85 0.2 0.65q6.5-2.9 8.55-9.9m-13.05 11.35q2.45-0.55 4.5-1.45m-4.5 1.45 0.4 1.5m-23-10.6q1.75 1.9 4.15 3.7" fill="none" stroke="#000" stroke-linecap="round" stroke-linejoin="round" stroke-opacity=".30196" stroke-width=".05"/>
<path d="m273.1 193.4h0.05m-0.05 10.9h-10.35l-5.05 0.05m25.25-6.65-2.3 1.6m2.3-1.6 1.9-1.4 1.05-0.75" fill="none" stroke="#000" stroke-linecap="round" stroke-linejoin="round" stroke-opacity=".30196" stroke-width=".05"/>
<path d="m281.55 203.95q-1.75 0.25-2-1.35 2-2 4.15-2.25l0.6-0.05q1.35 0.3 1.9 1.15-2.8 0.35-4.65 2.5m5.55 3.6q-1.75 0.3-2-1.3 2-2.05 4.1-2.25l0.65-0.05q1.35 0.3 1.9 1.15-2.8 0.35-4.65 2.45" fill="#a05a14" fill-rule="evenodd"/>
<path d="m279.55 202.6q2-2 4.15-2.25l0.6-0.05m1.9 1.15q-2.8 0.35-4.65 2.5m3.55 2.3q2-2.05 4.1-2.25l0.65-0.05m1.9 1.15q-2.8 0.35-4.65 2.45" fill="none" stroke="#000" stroke-linecap="round" stroke-linejoin="round" stroke-opacity=".30196" stroke-width=".05"/>
<path d="m281.55 203.95q-1.75 0.25-2-1.35m4.75-2.3q1.35 0.3 1.9 1.15m0.9 6.1q-1.75 0.3-2-1.3m4.75-2.3q1.35 0.3 1.9 1.15" fill="none" stroke="#000" stroke-linecap="round" stroke-linejoin="round" stroke-opacity=".30196" stroke-width=".05"/>
<path d="m281.25 204.25q2.45-2.45 5.1-2.75l0.75-0.1q1.7 0.4 2.4 1.45-3.45 0.45-5.8 3.05-2.15 0.4-2.45-1.65m0.9-5.6q1.7 0.35 2.4 1.4-3.45 0.45-5.8 3.1-2.15 0.35-2.45-1.65 2.45-2.5 5.1-2.8l0.75-0.05" fill="#a05a14" fill-rule="evenodd"/>
<path d="m281.25 204.25q2.45-2.45 5.1-2.75l0.75-0.1m2.4 1.45q-3.45 0.45-5.8 3.05m0.85-5.85q-3.45 0.45-5.8 3.1m-2.45-1.65q2.45-2.5 5.1-2.8l0.75-0.05" fill="none" stroke="#000" stroke-linecap="round" stroke-linejoin="round" stroke-opacity=".30196" stroke-width=".05"/>
<path d="m287.1 201.4q1.7 0.4 2.4 1.45m-5.8 3.05q-2.15 0.4-2.45-1.65m0.9-5.6q1.7 0.35 2.4 1.4m-5.8 3.1q-2.15 0.35-2.45-1.65" fill="none" stroke="#000" stroke-linecap="round" stroke-linejoin="round" stroke-opacity=".30196" stroke-width=".05"/>
<path d="m274.3 189.15q-1.7-4.85 1.15-9.7-1.65 4.3 0.45 9.05 2.85-7.35 7.05-8.2-4.25 2.25-5 9.35l-3.65-0.5" fill="#6b3c0e" fill-rule="evenodd"/>
<path d="m269.35 189.5q-1.7-4.85 1.15-9.7-1.65 4.3 0.45 9.05 2.85-7.35 7.05-8.2-4.25 2.25-5 9.35l-3.65-0.5" fill="#6b3c0e" fill-rule="evenodd"/>
<path d="m268.55 188.9q1.7-4.85-1.15-9.7 1.65 4.3-0.45 9.05-2.85-7.35-7.05-8.2 4.25 2.25 5 9.35l3.65-0.5" fill="#6b3c0e" fill-rule="evenodd"/>
<path d="m267.85 191.45q1.7-4.85-1.15-9.7 1.65 4.3-0.45 9.05-2.85-7.35-7.05-8.2 4.25 2.25 5 9.35l3.65-0.5" fill="#6b3c0e" fill-rule="evenodd"/>
<path d="m262.2 194.65q-2.4-4.55-7.95-5.7 4.35 1.7 6.4 6.45-7.35-2.85-10.75-0.3 4.5-1.65 10.25 2.55l2.05-3" fill="#6b3c0e" fill-rule="evenodd"/>
<path d="m273.4 187.1 2.65 0.6q1.15 0.3 2.1 0.85-2.5 2.8-5 4.85h-0.05q-2.65 2.1-5.3 3.4l-4.9 0.95-3.65 0.45h-0.15v-3.7q1.65-3.35 4.2-5.25 4.55-2.25 8.55-2.3l1.55 0.15" fill="#41250a" fill-rule="evenodd"/>
<path d="m274.9 194.75-1.75-1.35 1.05-0.9 3.95-3.95 1.65-1.9 0.15-0.15 0.7-0.95 0.1 0.05 1.3 0.8-0.75 0.85 8.15 4.7-0.65 0.45-7.95-4.6-5.1 5.95-0.35 0.4v0.05l-0.5 0.55" fill="#713f0f" fill-rule="evenodd"/>
<path d="m275.4 194.15 0.35-0.4 4.9 4.05 0.1-0.05 8.05-5.35 0.65-0.45-8.15-4.7 0.75-0.85 8.75 5.2-10.2 6.7-5.2-4.15" fill="#ebdc70" fill-rule="evenodd"/>
<path d="m275.75 193.75 5.1-5.95 7.95 4.6-8.05 5.35-0.1 0.05-4.9-4.05" fill="#a05a14" fill-rule="evenodd"/>
<path d="m274.9 194.75 0.5-0.55v-0.05l5.2 4.15 10.2-6.7 0.35 0.2-10.5 7.5-5.75-4.55" fill="#e9aa27" fill-rule="evenodd"/>
</g>
</defs>
</svg>
