<?xml version="1.0" encoding="UTF-8"?>
<svg version="1.1" viewBox="0 0 32.212 40.95" xmlns="http://www.w3.org/2000/svg" xmlns:cc="http://creativecommons.org/ns#" xmlns:dc="http://purl.org/dc/elements/1.1/" xmlns:rdf="http://www.w3.org/1999/02/22-rdf-syntax-ns#" xmlns:xlink="http://www.w3.org/1999/xlink">
<metadata>
<rdf:RDF>
<cc:Work rdf:about="">
<dc:format>image/svg+xml</dc:format>
<dc:type rdf:resource="http://purl.org/dc/dcmitype/StillImage"/>
</cc:Work>
</rdf:RDF>
</metadata>
<g transform="translate(-264.34 -382.5)">
<use transform="translate(264.35,382.5)" width="32.200001" height="40.950001" xlink:href="#a"/>
</g>
<defs>
<g id="a" transform="translate(-264.35,-382.5)">
<path d="m279.4 383.9 3.7-1.05 0.3 3.5-3.15 2.75-0.85-5.2m12.65 10.95 3.15 6.85-3.2-1.05-3.5-3.85 3.55-1.95m-20.45-0.95 1.95-2.6 0.95 3.8 5.75-6-0.75 7.75-3.25 1.5-0.15 0.15-3.55-1.9-0.9-2.55-0.05-0.15m5 17.05-0.7 0.3-5.35-6.25-2.55-0.95 2.8 0.45q2.55-1.2 5.05-2.45l2.65 4.4 0.25 3.4-2.15 1.1-5.8-6.45 5.8 6.45" fill="#faf0c0" fill-rule="evenodd"/>
<path d="m279.4 383.9 0.85 5.2-5.75 6-0.95-3.8 5.35-7.3 0.5-0.1m4.85 11.25 0.25-2h5.3l2.25 1.7-3.55 1.95-4.25-1.65m-18.85 8 0.4-1.1 2.35-1.25 7.7 1.25q-2.5 1.25-5.05 2.45l-2.8-0.45-2.6-0.9" fill="#fcf3d8" fill-rule="evenodd"/>
<path d="m280.25 389.1 3.15-2.75 0.35 3.65-1.95 10.7v0.05l-0.85 0.05 0.25-1.2-1.6-1.25-2.15 1.4 0.65 1.15h-1.2l5.1 7.7-2.25 5.65-2.2 1.45-0.95-4.75 2.15-1.1-0.25-3.4-2.65-4.4-7.7-1.25 1.8-0.9 1.45-5.75 0.25-0.1 0.9 2.55 3.55 1.9 0.15-0.15 3.25-1.5 0.75-7.75m14.95 12.6 1 2.15-1.35 4.5-3.2-2.45-0.35-1.2-1.05-3.1-0.3-1.15h-0.05l-5.45-3.7-0.2-1.6 4.25 1.65 3.5 3.85 3.2 1.05m-5.6 13.1-5.4 3.4 0.8-4.3q0.2 2.05 4.6 0.9m3.1-10.9-1.4 0.8 1.4-0.8m-18 12.1 0.65 0.2-1.9 2.7-4.35-3.4-0.3-0.85 5.9 1.35m-2.9-16.95-1.85 0.85 1.85-0.85" fill="#c2b585" fill-rule="evenodd"/>
<path d="m283.75 390 0.5 5.15 0.2 1.6 5.45 3.7 0.35 1.15 1.05 3.1 0.35 1.2 3.2 2.45-1.6 5.15-1.95 0.2-1.7 1.1q-4.4 1.15-4.6-0.9l-0.8 4.3-1.1 3.35-4.95 1.55-7.1-3.35-6.05-6.8q-0.75-4.9 0.3-9.3l2.7 0.4 2.55 0.95 5.35 6.25 0.7-0.3 0.95 4.75 2.2-1.45 2.25-5.65-5.1-7.7h1.2l2.85-0.1 0.85-0.05v-0.05l1.95-10.7m7.75 19.2 1.7 0.2-1.7-0.2m-7.05-12.45 0.3 3.2-4.3 4.75-2.35-3.8 2.35 3.8 4.3-4.75-0.3-3.2m-6.9 24.75 0.75-2.15-0.75-3.65 0.75 3.65-0.75 2.15m-2.2-5.3 0.3-0.7-3.1-5.25-0.95-1.25-0.8-0.15-3.4-0.65-0.4 1.25 1.8 5.2 0.3 0.85 4.35 3.4 1.9-2.7m-10.05-9.2 2.05 1.2h0.05-0.05l-2.05-1.2m6.3 2 1.85 1.05-1.85-1.05" fill="#9b8c5e" fill-rule="evenodd"/>
<path d="m265.3 403.65 0.1-0.5 2.6 0.9-2.7-0.4m6.1-9.5 0.2-0.25 0.05 0.15-0.25 0.1m18.5 6.3h0.05l0.3 1.15-0.35-1.15m-8.95 0.35-2.85 0.1-0.65-1.15 2.15-1.4 1.6 1.25-0.25 1.2" fill="#b0a579" fill-rule="evenodd"/>
<path d="m270.8 408.85 0.8 0.15 0.95 1.25 3.1 5.25-0.3 0.7-0.65-0.2-2.9-1.1-1.35-4.55 0.35-1.5" fill="#453c2c" fill-rule="evenodd"/>
<path d="m270.8 408.85-0.35 1.5 1.35 4.55 2.9 1.1-5.9-1.35-1.8-5.2 0.4-1.25 3.4 0.65" fill="#7d704c" fill-rule="evenodd"/>
<path d="m283.4 386.35-0.3-3.5-3.7 1.05m4 2.45 0.35 3.65 0.5 5.15 0.25-2h5.3l2.25 1.7 3.15 6.85 1 2.15-1.35 4.5-1.6 5.15-1.95 0.2-1.7 1.1-5.4 3.4-1.1 3.35-4.95 1.55-7.1-3.35-6.05-6.8q-0.75-4.9 0.3-9.3l0.1-0.5 0.4-1.1 2.35-1.25 1.8-0.9 1.45-5.75 0.2-0.25 1.95-2.6 5.35-7.3 0.5-0.1m4.85 11.25 0.2 1.6m-6.35 4.15 2.35 3.8 4.3-4.75-0.3-3.2m-3.5 4.05 0.25-1.2-1.6-1.25-2.15 1.4 0.65 1.15m-8.15-1 1.85-0.85" fill="none" stroke="#000" stroke-linecap="round" stroke-linejoin="round" stroke-opacity=".45098" stroke-width=".7"/>
<path d="m291.3 404.7 1.4-0.8m0.5 5.5-1.7-0.2m-13.95 6.5 0.75 3.65-0.75 2.15m-9.55-17.45-2.7-0.4m5.5 0.85 5.8 6.45 0.95 4.75m-2.2 0.5 0.3-0.7-3.1-5.25-0.95-1.25-0.8-0.15m4.55 7.35-1.9 2.7m-4.35-3.4-0.3-0.85-1.8-5.2 0.4-1.25h-0.05l-2.05-1.2m2.7-2.95 2.8 0.45m2.65 5.55-1.85-1.05m-4.2-0.8 3.4 0.65" fill="none" stroke="#000" stroke-linecap="round" stroke-linejoin="round" stroke-opacity=".2" stroke-width=".7"/>
</g>
</defs>
</svg>
