<?xml version="1.0" encoding="UTF-8"?>
<svg version="1.1" viewBox="0 0 109.82 42.68" xmlns="http://www.w3.org/2000/svg" xmlns:cc="http://creativecommons.org/ns#" xmlns:dc="http://purl.org/dc/elements/1.1/" xmlns:rdf="http://www.w3.org/1999/02/22-rdf-syntax-ns#" xmlns:xlink="http://www.w3.org/1999/xlink">
<metadata>
<rdf:RDF>
<cc:Work rdf:about="">
<dc:format>image/svg+xml</dc:format>
<dc:type rdf:resource="http://purl.org/dc/dcmitype/StillImage"/>
</cc:Work>
</rdf:RDF>
</metadata>
<g transform="translate(-220.08 -178.8)">
<use transform="matrix(1 -.0995 0 1 220.1 184.78)" width="109.75" height="41.25" xlink:href="#a"/>
</g>
<defs>
<g id="a" transform="translate(55,24.65)">
<use transform="translate(-55,-24.65)" width="109.75" height="41.25" xlink:href="#b"/>
</g>
<g id="b" transform="translate(55,24.65)">
<path d="m-19.95 15.5h-0.15l0.05-0.05 0.1 0.05m-35.05-17.1v-0.05l0.05 0.05h-0.05m17.45 9.05v0.05-0.05m12.65 2.65 0.1-0.1 0.05 0.1h-0.15m14.05-13.2 0.45-0.6-0.4 0.65-0.05-0.05m6.45-8.55v-0.05h0.05l-0.05 0.05" fill="#a97336" fill-rule="evenodd"/>
<path d="m7.9-19.25 1.6-0.9q5.15 5.75 12.85 4.85-7.5-2.25-0.9-2.3 13.1 2.35 7.75 3.75-10.25 2.35-21.3-5.4m3-4.6q-8.3 4.15-15.25 12.15h-0.05q0.5-4.8-0.15-8.95 0.35-2.45 2.35-3.95h0.75l11.3 0.45 1.05 0.3m40.6 17.3q-10-0.9-19-4.8 4.95-0.2 8.5-1.75 6.65 2.9 10.5 6.55m-30.15 16.95 0.05-0.05q1.4-3.9-3.65-6.85-18.8-9.6-4.55-11.35 12.6 0.35 12.8 9.15-0.05 5-9.65-3.95 6.75 3.7 7.55 2.4 1.7-5.95-11.6-6-6.75 0.5 6.9 8.2 7.6 4.05 15.9 5.75v0.05q-6.3 1.65-13.6 2.65l-0.1-0.05v0.05h-0.05m-76.3-12q0.35-1.9 1.7-3.65l0.2-0.3q12.8-4 13.9-9 5.65-2.4 13.3-4.65-6.8 3.55-12.45 7.9-7.6 5.8-13.2 12.95l-0.05 0.1q-2.35-1.65-3.4-3.35m38.95-20.3 2.85-2.3 5.6-0.3q-8.1 3.25-14.45 8.05l6-5.45m31.25 32.95-14.05 0.65q6.15-4.1-0.25-11.75 4.8 8.9-9.1 11.65l-10.15-0.7h-0.25l-6.2-0.8-0.05-0.1q7.25-4.55 13.95-13.1l0.05 0.05q-4.05 6.2-7.5 13.95l3.05-4.55q6.4 2.15 9.75-3.55 0.9-5.2-1.8-7.4l0.1-0.15 1.95-2.4q12.75 7.15 20.5 18.2m-47.25-16.5q-3.7 7.7 7.3 3.95 6.55-2.45 7.45-5.25t0.9-4.75-1.7-2.35q-5.7 2.9-4.3 6.5l0.05 0.15q1.95-0.15 4.4-4.25-0.75 5.85-6.5 7.45-4.5 1.6-1.3-3.65 6.4-11.95 11.45-5.9 2.2 10.85-16.35 16.6-4.15 1.35-6.95 4.4v0.05l-2.25-0.65-0.95-0.3 0.6-0.9 5.85-8.15 2.3-2.95" fill="#ddca7d" fill-rule="evenodd"/>
<path d="m7.9-19.25q11.05 7.75 21.3 5.4 5.35-1.4-7.75-3.75-6.6 0.05 0.9 2.3-7.7 0.9-12.85-4.85l1.75-0.8 1.4 0.25q17.75 2.9 28.35 7.6-3.55 1.55-8.5 1.75 9 3.9 19 4.8 1.65 1.6 2.8 3.35-0.5 1.7-2.1 3.25-3.4-2.65-9.4-3.75-7.55-0.95-16.6-4.7l-0.55-0.25q-10-4.65-22-7.55 12 2.9 22 7.55l0.55 0.25q11.15 5.2 19.75 12.5-3.2 1.45-7.6 2.75l-3.15 0.9-0.1-0.05q-8.3-1.7-15.9-5.75-13.65-7.7-6.9-8.2 13.3 0.05 11.6 6-0.8 1.3-7.55-2.4 9.6 8.95 9.65 3.95-0.2-8.8-12.8-9.15-14.25 1.75 4.55 11.35 5.05 2.95 3.65 6.85l-0.05 0.05-6.05 0.65h-0.05q-7.75-11.05-20.5-18.2l2.1-2.45 1.3-1.45q8.5-0.8 16.6 1.25-5.5-3.5-13.15-4.6l2.05-1.8 4.25-3.05m-60.95 13.7q3.7-4.7 13.9-9-1.1 5-13.9 9m27.2-13.65 9.85-2.7-6 5.45-1.95 1.95 1.95-1.95q6.35-4.8 14.45-8.05 2.65 1.1 5.35-0.1-2 1.5-2.35 3.95 0.65 4.15 0.15 8.95v0.05q-3.15 3.6-6 7.95l-0.45 0.6q-6.7 8.55-13.95 13.1l-0.1 0.1q-6.75-1-12.65-2.6v-0.05q2.8-3.05 6.95-4.4 18.55-5.75 16.35-16.6-5.05-6.05-11.45 5.9-3.2 5.25 1.3 3.65 5.75-1.6 6.5-7.45-2.45 4.1-4.4 4.25l-0.05-0.15q-1.4-3.6 4.3-6.5 1.7 0.4 1.7 2.35t-0.9 4.75-7.45 5.25q-11 3.75-7.3-3.95l8.05-9.05q-2.2-3.6-10.15 6.6-2.85 5.7-0.2 5.4l-5.85 8.15q-4.1-0.75-7.5-2.15 1.8-6.5 9.35-14.8 5.65-4.35 12.45-7.9" fill="#d2ba59" fill-rule="evenodd"/>
<path d="m-1.85-11.05 3.45-3.35q7.65 1.1 13.15 4.6-8.1-2.05-16.6-1.25m28.05 2.65q9.05 3.75 16.6 4.7 6 1.1 9.4 3.75-2.05 2.05-5.95 3.9l-0.3 0.15q-8.6-7.3-19.75-12.5m8.6 21.35q-6.25 1.5-13.45 2.45v-5h0.15q7.3-1 13.6-2.65l-0.3 5.2m-19.5 3.05-13.75 0.6-0.35-4.9 14.05-0.65h0.05v4.95m-23.45 0.4-11.05-0.85 0.2-1.25 0.25-1.85 0.2-1.55-0.2 1.55-1.3 3-0.05 0.05-5.2-0.65 0.55-4.75 6.2 0.8h0.25l10.15 0.7v4.8m-29.4-4.2-1.55-0.45-2-0.6 0.05-0.45 0.3-4.15 0.95 0.3 2.25 0.65v4.7m29.4-0.6q13.9-2.75 9.1-11.65 6.4 7.65 0.25 11.75h-1.9l-7.45-0.1m-43.35-9.95q5.6-7.15 13.2-12.95-7.55 8.3-9.35 14.8l-3.85-1.85m17.2-4.15q-2.65 0.3 0.2-5.4 7.95-10.2 10.15-6.6l-8.05 9.05-2.3 2.95m24.35 1.35 2.65-3.45q2.7 2.2 1.8 7.4-3.35 5.7-9.75 3.55l5.3-7.5" fill="#b79c33" fill-rule="evenodd"/>
<path d="m9.5-20.15-1.6 0.9-4.25 3.05-2.05 1.8-3.45 3.35-1.3 1.45-1.15-2.1 1.15 2.1-2.1 2.45-1.95 2.4-0.1 0.15-2.65 3.45-0.85-1.9 0.85 1.9-5.3 7.5-3.05 4.55q3.45-7.75 7.5-13.95l0.4-0.65q2.85-4.35 6-7.95l0.1-0.05h-0.05q6.95-8 15.25-12.15 1.6 1.55 1.75 3.15l-1.4-0.25-1.75 0.8m42.7 20.2q1.6-1.55 2.1-3.25-0.1 1.55 0.45 5 0.45 3.25-7.85 7.05l-0.95-0.35v0.8l-6.9 2.45-4.25 1.2 0.3-5.2h0.1l3.15-0.9q4.4-1.3 7.6-2.75l0.3-0.15q3.9-1.85 5.95-3.9m-30.85 15.35-6.05 0.6v-4.95l6.05-0.65v5m-19.8 1.2h-1.55l-8.15-0.2v-4.8l7.45 0.1h1.9l0.35 4.9m-20.55-2.3-0.95 1.2-0.1-0.05 1.3-3-0.25 1.85m-6.3 0.55q-6.05-0.9-12.25-2.65v-4.7q5.9 1.6 12.65 2.6h0.15l-0.55 4.75m-15.75-4.15-4.6-1.25q-3.7-1.55-5.9-2.9-3.35-2.1-3.35-3.9l-0.1-4.25h0.05q1.05 1.7 3.4 3.35l0.05-0.1 3.85 1.85q3.4 1.4 7.5 2.15l-0.6 0.9-0.3 4.15m87-3.8v-2.8 2.8l0.95 1.95-0.95-1.95v1.6-1.6m-97.5-0.35v-4.8 4.8" fill="#a28a2d" fill-rule="evenodd"/>
<path d="m9.5-20.15-1.6 0.9m1.6-0.9 1.75-0.8 1.4 0.25q-0.15-1.6-1.75-3.15-8.3 4.15-15.25 12.15h0.05l1.15 2.1 1.3-1.45 3.45-3.35 2.05-1.8 4.25-3.05m-4.25 3.05q12 2.9 22 7.55l0.55 0.25q9.05 3.75 16.6 4.7 6 1.1 9.4 3.75 1.6-1.55 2.1-3.25-1.15-1.75-2.8-3.35m-10.5-6.55q-10.6-4.7-28.35-7.6m22.45 28.4 0.1 0.05 3.15-0.9q4.4-1.3 7.6-2.75-8.6-7.3-19.75-12.5m14.8-4.7q6.65 2.9 10.5 6.55m0.7 6.6q-2.05 2.05-5.95 3.9l-0.3 0.15v5.2l-6.9 2.45-4.25 1.2q-6.25 1.5-13.45 2.45l-6.05 0.6-13.75 0.6h-1.55l-8.15-0.2-11.05-0.85 0.2-1.25-0.95 1.2h-0.15l-5.2-0.65q-6.05-0.9-12.25-2.65l-1.55-0.45-2-0.6 0.05-0.45-4.6-1.25q-3.7-1.55-5.9-2.9-3.35-2.1-3.35-3.9l-0.1-4.25v-0.05l0.05 0.05q0.35-1.9 1.7-3.65l0.2-0.3q3.7-4.7 13.9-9 5.65-2.4 13.3-4.65l9.85-2.7 2.85-2.3 5.6-0.3q2.65 1.1 5.35-0.1h0.75l11.3 0.45m37.05 33-0.95-0.35m0.95 0.35q8.3-3.8 7.85-7.05-0.55-3.45-0.45-5m-7.4 12.05-0.95-1.95m-10.75 0.85h-0.1l-0.3 5.2m-13.4-2.55h0.1q7.3-1 13.6-2.65m-13.7 2.6v0.05h-0.05v5m-20.15-3.7 0.35 4.9m13.7-5.55-14.05 0.65m-9.35-0.1 7.45 0.1h1.9m14.1-0.65v4.95m-0.05-4.95h0.05l6.05-0.65m-76.35-12h0.05q1.05 1.7 3.4 3.35l0.05-0.1q5.6-7.15 13.2-12.95 5.65-4.35 12.45-7.9m1.9 4.7 1.95-1.95 6-5.45m-7.95 7.4-8.05 9.05m-5.55 12.9v0.05q5.9 1.6 12.65 2.6l0.1-0.1q7.25-4.55 13.95-13.1l0.45-0.6q2.85-4.35 6-7.95v-0.05q0.5-4.8-0.15-8.95 0.35-2.45 2.35-3.95m-32.1 22.1 2.3-2.95m21.2 2.4 0.4-0.65m-0.4 0.65 0.85 1.9 2.65-3.45 0.1-0.15 1.95-2.4 2.1-2.45m-1.2-2.1-0.05 0.05m-17.6-4.8q6.35-4.8 14.45-8.05m-10.75 35.4h-0.25l-0.2 1.55-0.25 1.85m3.75-7.95-3.05 4.55 10.15 0.7v4.8m-10.15-5.5q3.45-7.75 7.5-13.95m-9.25 18.5-0.05 0.05m1.35-3.05-1.3 3m12.75-20.05q2.7 2.2 1.8 7.4-3.35 5.7-9.75 3.55l5.3-7.5m-14.8 11.25h-0.15m0.15 0 6.2 0.8m-19-3.4v4.7m0-4.75v0.05l-2.25-0.65-0.95-0.3-0.3 4.15m16.3-0.6-0.55 4.75m-15.45-8.3 0.6-0.9q-4.1-0.75-7.5-2.15l-3.85-1.85m-0.05 0.1v4.8m11.4-0.9 5.85-8.15m-4-8.8q-7.55 8.3-9.35 14.8m42.4-10.65q12.75 7.15 20.5 18.2" fill="none" stroke="#47301b" stroke-linecap="round" stroke-linejoin="round" stroke-opacity=".30196" stroke-width=".05"/>
<path d="m35.1 7.7v0.05h0.1l-0.1-0.05m2.3-9.95 2.35-1.95q1.8-1.85 2.1-3.95l0.05-0.75q-0.05-2.1-1.45-4l-0.6-0.7 1.15 0.5q6.65 2.9 10.5 6.55 1.65 1.6 2.8 3.35-0.1 1.55 0.45 5 0.45 3.25-7.85 7.05l-0.95-0.35v0.8l-6.9 2.45-4.25 1.2q-6.25 1.5-13.45 2.45l-6.05 0.6-13.75 0.6h-1.55l-8.15-0.2-11.05-0.85 0.2-1.25-0.95 1.2h-0.15l-5.2-0.65q-6.05-0.9-12.25-2.65l-1.55-0.45-2-0.6 0.05-0.45-4.6-1.25q-3.7-1.55-5.9-2.9-3.35-2.1-3.35-3.9l-0.1-4.25v-0.05l0.05 0.05 0.15-0.6q3.85 5.3 17.25 4.05h0.1l0.1 0.05-3.3 4.7q16.05 3 24.75-1.2h0.25l0.75 0.05q0.3 0.05 7.85-10.45t18.25-16q-14.1 12.6-17.55 26.85l8.25-0.05 2.2-0.1 6.45-0.5 8.15-1.1 3.4-0.7 1.9-0.45 1.8-0.45 1.55-0.45q6.45-1.95 10.05-4.3m-16 12.6v0.05h0.1l-0.1-0.05m-32.25-13.45 0.45-0.6-0.4 0.65-0.05-0.05" fill-opacity=".2" fill-rule="evenodd"/>
</g>
</defs>
</svg>
