<?xml version="1.0" encoding="UTF-8"?>
<svg width="234px" height="290px" version="1.1" viewBox="147.85 40.2 233.8 290" xmlns="http://www.w3.org/2000/svg" xmlns:xlink="http://www.w3.org/1999/xlink">
<defs>
<g id="b">
<path d="m75.6 2.9-6.6 4.4 4.65-9.05 1.95 4.65m-33.1 31.2 3.4 10-15.55 8.85q-1.75-5.6-4.1-11.15l16.25-7.7m-75.35 68.85 22.3-15.05 7.4 4.45-21.1 14.7q-4.45-1.7-8.6-4.1" fill="#a5babc"/>
<path d="m-111.7 33.25q-0.05-4 0.3-8 2.5-32.95 25.75-46.65 11.15-6.6 24-6.85 13.75-0.25 29.45 6.8 30.3 13.6 49.9 46.5 5 8.35 8.55 16.75l-16.35 0.7-4.55-8.45q-14.8-24.8-37.55-35-17.2-7.7-31.3-3.75-4.65 1.25-8.95 3.8l-4.45 3.05q-10.45 8.3-13.7 23.35-0.9 4.1-1.25 8.7l-0.2 3.5-19.65-4.45" fill="#93a8aa"/>
<path d="m69 7.3-0.05 0.05-6.65 4.45-24.4-40.25 14.45-7.3q7.25 8.45 13.45 18.9 4.5 7.5 7.85 15.1l-4.65 9.05m-108-69.7q59.8 39 81.5 96.5l-16.25 7.7q-3.55-8.4-8.55-16.75-19.6-32.9-49.9-46.5-15.7-7.05-29.45-6.8 5-23 22.65-34.15" fill="#6f8486"/>
<path d="m68.95 7.35-26.45 26.75q-21.7-57.5-81.5-96.5l1.45-0.9q23.15-13.65 53.45-0.05 20.7 9.25 36.45 27.6l-14.45 7.3 24.4 40.25 6.65-4.45m-122.25 28.5q3.05 6.65 7.05 13.35 4.6 7.75 9.85 14.45l-21.15 13.9q-5-7.6-8.95-16.5l-19.05 9.8q-2.05-4.85-3.45-9.7l35.7-25.3" fill="#819698"/>
<path d="m-108.45 58.15q-2.15-8.35-2.9-16.7l19.45 3.45q0.55 8.15 2.9 16.25l-19.45-3" fill="#93a8aa"/>
<path d="m-92.05 37.7 0.2-3.5q0.35-4.6 1.25-8.7 3.25-15.05 13.7-23.35l4.45-3.05q4.3-2.55 8.95-3.8 0.5 11.3 3.6 22.6l-13.8 8.5-18.35 11.3m0.15 7.2 33.85-20.9q2 5.9 4.75 11.85l-35.7 25.3q-2.35-8.1-2.9-16.25m15-42.75q-3.1 12.15 3.2 24.25-6.3-12.1-3.2-24.25" fill="#6f8486"/>
<path d="m45.9 44.1 17.9-12.4q6.7 13.15 4 28.25l-32.75 25.6q0.35-16.3-4.7-32.6l15.55-8.85m-61.75 40.05-22.65 14.65q-10.95-8.9-19.05-21.25l21.15-13.9q9.3 11.95 20.55 20.5" fill="#a5babc"/>
<path d="m26.25 41.8q2.35 5.55 4.1 11.15l-16.3-0.4q-1.75-5.05-4.15-10.05l16.35-0.7" fill="#b7ccce"/>
<path d="m69 7.3 6.6-4.4q8.85 22.55 7.35 45.15l-15.15 11.9q2.7-15.1-4-28.25l-17.9 12.4-3.4-10 26.45-26.75 0.05-0.05m-118.75 107.1 16.9-11.45q4.15 2.4 8.6 4.1l21.1-14.7q3.3 1.8 6.75 3.35 5.65 2.5 11.05 4.1-4.8 12.35-15.85 18.9-8.45 4.95-18.1 5.15l-3.9-0.15 15.4-12.95q-8.6-0.7-16.45-3.7 7.85 3 16.45 3.7l-15.4 12.95q-8.65-0.65-18.25-4.95-4.3-1.95-8.3-4.35" fill="#b7ccce"/>
<path d="m17.25 131.45q-3.75 3.4-8.25 6.05-13.85 8.15-30.2 6.6l-2-20.4 3.9 0.15q9.65-0.2 18.1-5.15 11.05-6.55 15.85-18.9 2.6-6.6 3.4-14.9l16.35 9.6-1.3 7.95q-3.95 18.2-15.85 29m-75.9-1.65q-20.9-13.85-35.7-38.7-5.05-8.45-8.6-16.9l17.4-3.35q2.7 6.45 6.55 12.9 9.7 16.35 22.95 26.35l-2.6 19.7m89-76.85q5.05 16.3 4.7 32.6l-16.65-8.05q-0.1-12.5-4.35-24.95l16.3 0.4" fill="#dbf0f2"/>
<path d="m-21.2 144.1q-11.05-1.05-23.3-6.5l-6.55-3.25 1.3-19.95q4 2.4 8.3 4.35 9.6 4.3 18.25 4.95l2 20.4m-81.75-69.9q-3.45-8.05-5.5-16.05l19.45 3q1.4 4.85 3.45 9.7l-17.4 3.35" fill="#edffff"/>
<path d="m67.8 59.95 15.15-11.9-3.6 4.5q-3.6 4.05 2.5 4.55l-47.45 37.4 1.4-4.05q0.7-2.45-0.75-4.9l32.75-25.6m-118.85 74.4q-2.55-5.75-7.6-4.55l2.6-19.7h0.05l17.5-11.3 22.65-14.65q0.4 4.55 5.3 3.75l-22.3 15.05-16.9 11.45q-4.15 1.75-6.25-4.3 2.1 6.05 6.25 4.3l-1.3 19.95m-60.3-92.9q2.2-4.55-0.35-8.2l19.65 4.45 18.35-11.3 13.8-8.5q-1.9 3.5 1.85 6.1l-33.85 20.9-19.45-3.45m129.4 43.45 0.05-0.25 0.05-0.75q0.5-0.15 1.1-2.15t-0.85-4.25l16.65 8.05q1.45 2.45 0.75 4.9l-1.4 4.05-16.35-9.6m-109.95-40q2.25-4-0.15-7.2 2.4 3.2 0.15 7.2" fill="#394e50"/>
<path d="m-38.5 98.8-17.5 11.3h-0.05q-13.25-10-22.95-26.35-3.85-6.45-6.55-12.9l19.05-9.8q3.95 8.9 8.95 16.5 8.1 12.35 19.05 21.25" fill="#93a8aa"/>
<path d="m81.85 57.1q-3.65 21.35-17.4 33.25l-47.2 41.1q11.9-10.8 15.85-29l1.3-7.95 47.45-37.4" fill="#819698"/>
<path d="m75.6 2.9-6.6 4.4-0.05 0.05m-26.45 26.75 3.4 10 17.9-12.4q6.7 13.15 4 28.25l15.15-11.9q1.5-22.6-7.35-45.15l-1.95-4.65q-3.35-7.6-7.85-15.1-6.2-10.45-13.45-18.9-15.75-18.35-36.45-27.6-30.3-13.6-53.45 0.05l-1.45 0.9q59.8 39 81.5 96.5m9.85-69.85-14.45 7.3 24.4 40.25 6.65-4.45m-42.7 34.45q2.35 5.55 4.1 11.15l15.55-8.85m37.05 3.95-3.6 4.5q-3.6 4.05 2.5 4.55-3.65 21.35-17.4 33.25l-47.2 41.1q-3.75 3.4-8.25 6.05-13.85 8.15-30.2 6.6-11.05-1.05-23.3-6.5l-6.55-3.25q-2.55-5.75-7.6-4.55-20.9-13.85-35.7-38.7-5.05-8.45-8.6-16.9-3.45-8.05-5.5-16.05-2.15-8.35-2.9-16.7 2.2-4.55-0.35-8.2-0.05-4 0.3-8 2.5-32.95 25.75-46.65 11.15-6.6 24-6.85 5-23 22.65-34.15m-53.05 100.1 0.2-3.5q0.35-4.6 1.25-8.7 3.25-15.05 13.7-23.35l4.45-3.05q4.3-2.55 8.95-3.8 14.1-3.95 31.3 3.75 22.75 10.2 37.55 35l4.55 8.45q2.4 5 4.15 10.05l16.3 0.4q5.05 16.3 4.7 32.6l32.75-25.6m-41.55-18.15q-3.55-8.4-8.55-16.75-19.6-32.9-49.9-46.5-15.7-7.05-29.45-6.8m51.1 116.15q-4.9 0.8-5.3-3.75l-22.65 14.65-17.5 11.3q2.1 6.05 6.25 4.3l16.9-11.45 22.3-15.05 7.4 4.45q3.3 1.8 6.75 3.35 5.65 2.5 11.05 4.1 2.6-6.6 3.4-14.9l0.05-0.25 0.05-0.75q0.5-0.15 1.1-2.15t-0.85-4.25q-0.1-12.5-4.35-24.95m21 33-16.65-8.05m16 17 1.4-4.05q0.7-2.45-0.75-4.9m-0.65 8.95-1.3 7.95q-3.95 18.2-15.85 29m0.8-46.55 16.35 9.6 47.45-37.4m-139.9-33.1q-3.75-2.6-1.85-6.1l-13.8 8.5-18.35 11.3q2.4 3.2 0.15 7.2l33.85-20.9q2 5.9 4.75 11.85 3.05 6.65 7.05 13.35 4.6 7.75 9.85 14.45 9.3 11.95 20.55 20.5m-76.05-39.25q0.55 8.15 2.9 16.25m32.95 48.95q-13.25-10-22.95-26.35-3.85-6.45-6.55-12.9l-17.4 3.35m46.9 35.9h0.05-0.05m17.55-11.3q-10.95-8.9-19.05-21.25-5-7.6-8.95-16.5l-19.05 9.8q-2.05-4.85-3.45-9.7m31.45 16.4 21.15-13.9m3.55 39.3q4.15 2.4 8.6 4.1l21.1-14.7m-46.6 22.05-1.3 19.95m27.85-10.65q-8.65-0.65-18.25-4.95-4.3-1.95-8.3-4.35m26.55 9.3 3.9 0.15q9.65-0.2 18.1-5.15 11.05-6.55 15.85-18.9m-73.3 30 2.6-19.7m32.85 13.6 2 20.4m-3.05-37.05q7.85 3 16.45 3.7l-15.4 12.95m-88.15-82.25 19.45 3.45m18.2-18.5q-6.3-12.1-3.2-24.25m-15.15 35.55-19.65-4.45m51.8-15.35q-3.1-11.3-3.6-22.6" fill="none" stroke="#000" stroke-opacity=".4"/>
<path d="m73.65-1.75-4.65 9.05-26.5 26.8-16.25 7.7-16.35 0.7-4.55-8.45q-14.8-24.8-37.55-35-17.2-7.7-31.3-3.75 0.5 11.3 3.6 22.6-1.9 3.5 1.85 6.1 2 5.9 4.75 11.85l-35.7 25.3-19.45-3q-2.15-8.35-2.9-16.7 2.2-4.55-0.35-8.2-0.05-4 0.3-8 2.5-32.95 25.75-46.65 11.15-6.6 24-6.85 5-23 22.65-34.15l1.45-0.9q23.15-13.65 53.45-0.05 20.7 9.25 36.45 27.6 7.25 8.45 13.45 18.9 4.5 7.5 7.85 15.1" fill-opacity=".14902"/>
<path d="m79.4-42.25q-8.75 17.9-22.15 34.45l-0.15 1.95-0.2 1.7q-0.9 6.75-3.25 9.6-2.4 2.8-4.8-0.05l-1.2-1.95q-1.45-2.9-2.2-7.75-0.95-6.15-0.3-12.2l-53.95-23.65q0.15-2.8 1.1-4.5l54.4 20.5q0.8-2.1 1.9-3.4 1.05-1.3 2.15-1.4 13.7-13.45 20.1-32.4 2.35 2.55 4.05 5.5 3.65 6.1 4.5 13.6m-59.65 63q-13.8 6.1-30.3 9.5l-7.95 1.45q6.4-9.1-0.3-20l5.25-1q6.5-1.35 12.7-3.1 9.45-2.75 17.95-6.5l2.65 19.65m-130.3-19.9q-7.45-14.5-4.25-34.25-0.15 4.15 0.65 8.35 0.7 3.7 2.15 7.15-4.3 1.75 1.45 18.75m17.35-71.4q0.6-3.35 1.75-5.75l43 17.8q-1.25 1.4-1.95 2.9l-42.8-14.95m177.25-68.4 1 6.15-18.4 13.65-0.3-6.85 17.7-12.95m-37.35 114.8q-0.9 2.55-1.4 6.2l-0.15 1.45 0.15-1.45q0.5-3.65 1.4-6.2m10.55 16.35q0.3-5-0.45-10-0.8-5.15-2.3-8l-1.15-1.7q-1.35-1.6-2.6-1.45 1.25-0.15 2.6 1.45l1.15 1.7q1.5 2.85 2.3 8 0.75 5 0.45 10" fill="#819698"/>
<path d="m66.45-111.35 31.35-23.1 11.25 3.65-24.9 27.15-7.65-3.35-10.05-4.35 10.05 4.35-22.3 24.1-4.55-3.6 4.55 3.6q3.3 2.9 5.7 6.2v0.05l-5 4.2-5 4.1q4.65 17.85-5.35 37.25l6.2 2.15q-1.1 0.1-2.15 1.4-1.1 1.3-1.9 3.4l-54.4-20.5q1.7-3.05 6-2.65 1.5-2.4 1.8-4.85v-2.35l46.2-34.2q1.75 1 3.35 2.2l9.9-9.55-0.85-5.7-3.55-1.25 11.3-8.35m17.7 42.45q2.15 3.85 2.75 8.65-3.15 9.15-7.5 18-0.85-7.5-4.5-13.6l9.25-13.05m-198.95 35.5 0.05-1.25q0.45-5.65 2.7-11.3 4.6-11.6 17-22.85l1.85-1.75 42.8 14.95q-0.9 1.75-1 3.55v0.4q-1.05 2-1.15 4.15-0.15 1.55 0.15 2.8 0.2 1.25 0.75 2.35l0.1 0.55-40.8 8.3 3.2 11.45-20.2 9.25-2.2-4.05-0.45-1.05q-1.45-3.45-2.15-7.15-0.8-4.2-0.65-8.35m23.35-42.9q3.8-8.55 13.6-5.25h0.05l33.95 18.95-2.8 2.2-1.8 1.9-43-17.8m120.55-50.4 38.25-17.65 5.75 1.85-23.1 11.65 16.35 4.85-24.9 18.1 6.8 2.45 6.9 2.45 3.55 1.25-59.25 44.5q-1.9-5.2-9.3-7.8l-3.65-1.05-1.9-0.75q-2.6-0.95-5.5-1.25l42.05-30.25q-7.15-1.65-14.75-2.3l10.9-7.15 12.65 2.65-8.8 6.8 8.8-6.8-12.65-2.65 25.2-15.95-13.4-2.95m0.85 21.55 6.05-4.7 5.45 1.95-5.45-1.95-6.05 4.7m-58.8 71.65 4.15-0.55 1.5-0.25q8.4-1.8 14.4-5.85l53.95 23.65q-12.2 10.55-28.05 17.6-8.5 3.75-17.95 6.5l-14.05-20.6-13.95-20.5m-83.2-12.45 21.9-1.4q-3.4 7.8-2.2 13.85-1.2-6.05 2.2-13.85l-21.9 1.4m129.15 47.05-24.25-17.4-7.75 3.3 7.75-3.3 24.25 17.4m-18.8-48.4 46.25 16.2-46.25-16.2" fill="#93a8aa"/>
<path d="m76.5-107 7.65 3.35 24.9-27.15 5.65 1.8-38.3 51.65-2.45-1.55-4-1.85-10.05 4.05 10.05-4.05 4 1.85-13.7 9.25q6.3 3.6 10.6 8.3-6.4 18.95-20.1 32.4l-6.2-2.15q10-19.4 5.35-37.25l5-4.1 5-4.2v-0.05q-2.4-3.3-5.7-6.2l22.3-24.1m-154.3 25.45h-0.05q18.65-11.2 43.5-16.3l1.9-0.4 61.55-28.45 13.4 2.95-25.2 15.95-10.9 7.15q7.6 0.65 14.75 2.3l-42.05 30.25-5.35-0.2-4.95 0.65-0.55 0.1q-5.85 1.25-10.35 3.9l-1.75 1.05-33.95-18.95m150.9-60.95 10.95 3.55-17.7 12.95-16.35-4.85 23.1-11.65m-124.55 100.65q0.75 1.5 2.05 2.75 2.45 2.45 6.8 4 6.25 2.2 13.75 1.6l13.95 20.5 14.05 20.6q-6.2 1.75-12.7 3.1l-5.25 1q-31.8 5.55-57.65-2.5l-3.95-1.3q-14.9-5.3-23.3-13.6-3.35-3.3-5.65-7.1l20.2-9.25-3.2-11.45 40.8-8.3 0.1-0.05m111.7-27.8q-2.5-1.5-5.35-2.8 2.85 1.3 5.35 2.8m-53.85-31q-18.2-1.6-38.85 2.4 20.65-4 38.85-2.4" fill="#a5babc"/>
<path d="m82.15-72.05 2 3.15-9.25 13.05q-1.7-2.95-4.05-5.5-4.3-4.7-10.6-8.3l13.7-9.25 2.45 1.55q2.7 1.85 4.7 4.1l1.05 1.2" fill="#b7ccce"/>
<path d="m114.7-129 1.1 7.2-33.65 49.75-1.05-1.2q-2-2.25-4.7-4.1l38.3-51.65m-67.05 132.45q-12.2 10.4-27.9 17.3l-2.65-19.65q15.85-7.05 28.05-17.6-0.65 6.05 0.3 12.2 0.75 4.85 2.2 7.75m19-122.6-18.4 13.7-6.8-2.45 24.9-18.1 0.3 6.85m-7.95 17.4 0.85 5.7-9.9 9.55q-1.6-1.2-3.35-2.2l-46.2 34.2v2.35q-0.3 2.45-1.8 4.85-4.3-0.4-6 2.65-0.95 1.7-1.1 4.5-6 4.05-14.4 5.85l-1.5 0.25-4.15 0.55q-7.5 0.6-13.75-1.6-4.35-1.55-6.8-4-1.3-1.25-2.05-2.75l-0.2-0.5q-0.55-1.1-0.75-2.35-0.3-1.25-0.15-2.8 0.1-2.15 1.15-4.15l0.15 1.95 0.6 2 0.2 0.4q0.6 1.2 1.65 2.2l0.1 0.15q2.05 2 5.7 3.35 5.3 1.8 11.65 1.35l3.4-0.45 1.3-0.25q7.15-1.45 12.15-4.95l5.95-5.95q1.25-2.05 1.5-4.1l0.1-1.7v-0.35l-0.2-0.8-0.35-1.45q-1.05-2.65-3.7-4.55l-2.3-1.3 3.65 1.05q7.4 2.6 9.3 7.8l59.25-44.5m-59.25 44.5 0.5 1.75 0.15 1-0.15-1-0.5-1.75" fill="#6f8486"/>
<path d="m-18.5 31.7q-32.65 5.1-58.9-4.25l-1.05-0.35q6.95-5.95 2-17.9 25.85 8.05 57.65 2.5 6.7 10.9 0.3 20" fill="#c0d1af"/>
<path d="m-78.45 27.1q-15.05-5.6-23.35-14.35-5.5-5.45-8.75-11.9-5.75-17-1.45-18.75l0.45 1.05 2.2 4.05q2.3 3.8 5.65 7.1 8.4 8.3 23.3 13.6l3.95 1.3q4.95 11.95-2 17.9" fill="#d2e3c1"/>
<path d="m-43.85-62.6 1.75-1.05q4.5-2.65 10.35-3.9l0.55-0.1 4.95-0.65 5.35 0.2q2.9 0.3 5.5 1.25l1.9 0.75 2.3 1.3q2.65 1.9 3.7 4.55l0.35 1.45 0.2 0.8v0.35q-3.1-2.75-6.45-4.4-5.45-2.65-11.85-2.6l-3.65 0.3-2.3 0.35-2.15 0.45-1.5 0.45q-10.7 3.5-13.3 10.8-1.1 3.2-0.65 7.2-1.05-1-1.65-2.2l-0.2-0.4-0.6-2-0.15-1.95v-0.4q0.1-1.8 1-3.55 0.7-1.5 1.95-2.9l1.8-1.9 2.8-2.2" fill="#d8311f"/>
<path d="m-6.95-57.65-0.1 1.7q-0.25 2.05-1.5 4.1l-5.95 5.95q-5 3.5-12.15 4.95l-1.3 0.25-3.4 0.45q-6.35 0.45-11.65-1.35-3.65-1.35-5.7-3.35l-0.1-0.15q-0.45-4 0.65-7.2 2.6-7.3 13.3-10.8l1.5-0.45 2.15-0.45 2.3-0.35 3.65-0.3q6.4-0.05 11.85 2.6 3.35 1.65 6.45 4.4" fill="#9c2416"/>
<path d="m109.05-130.8-11.25-3.65-31.35 23.1 10.05 4.35 7.65 3.35 24.9-27.15 5.65 1.8 1.1 7.2-33.65 49.75 2 3.15q2.15 3.85 2.75 8.65-3.15 9.15-7.5 18-8.75 17.9-22.15 34.45m-9.6 11.25q-12.2 10.4-27.9 17.3-13.8 6.1-30.3 9.5l-7.95 1.45q-32.65 5.1-58.9-4.25l-1.05-0.35q-15.05-5.6-23.35-14.35-5.5-5.45-8.75-11.9-7.45-14.5-4.25-34.25l0.05-1.25m21.55-35.9q0.6-3.35 1.75-5.75 3.8-8.55 13.6-5.25h0.05-0.05m45.4-16.7 61.55-28.45 38.25-17.65 5.75 1.85 10.95 3.55 1 6.15-18.4 13.65-18.4 13.7 6.9 2.45 11.3-8.35m-0.1-14.65 17.7-12.95m-17.7 12.95 0.3 6.85m9.75 41.8q2.7 1.85 4.7 4.1l1.05 1.2m-8.2-6.85 2.45 1.55 38.3-51.65m-54.8 52.3 10.05-4.05 4 1.85-13.7 9.25q6.3 3.6 10.6 8.3 2.35 2.55 4.05 5.5l9.25-13.05m-9.25 13.05q3.65 6.1 4.5 13.6m-62.1-65.55-10.9 7.15m14.75 2.3 8.8-6.8-12.65-2.65 25.2-15.95-13.4-2.95m19.15 21.25-6.8-2.45-5.45-1.95-6.05 4.7m28.75 3.4-3.55-1.25m3.55 1.25 0.85 5.7-9.9 9.55m4.55 3.6 22.3-24.1m-97.4 38.9 42.05-30.25m-65 35.75-33.95-18.95m69 41.4q0.15-2.8 1.1-4.5 1.7-3.05 6-2.65m-48.7-8.3-42.8-14.95m41.75 28.7-0.1 0.05-40.8 8.3 3.2 11.45-20.2 9.25m108.5 20.4-14.05-20.6-13.95-20.5m-63.5 0q-1.2-6.05 2.2-13.85l-21.9 1.4m171.95-30.7-5 4.2q2.85 1.3 5.35 2.8m-5.35-2.8-5 4.1q4.65 17.85-5.35 37.25l6.2 2.15m-65.65 15.95 7.75-3.3 24.25 17.4 2.65 19.65m25.4-37.25-53.95-23.65m55.1-48.55-46.2 34.2m44.45 23.4-46.25-16.2m1.15-9.95 59.25-44.5m-170.7 83.85q-4.3 1.75 1.45 18.75m91.75 10.85q6.7 10.9 0.3 20m84.85-157.7-16.35-4.85 23.1-11.65m-31.65 34.6 24.9-18.1" fill="none" stroke="#000" stroke-opacity=".4"/>
<path d="m57.25-7.8-0.15 1.95-0.2 1.7q-0.9 6.75-3.25 9.6-2.4 2.8-4.8-0.05l-1.2-1.95m-162.4-38.1q0.45-5.65 2.7-11.3 4.6-11.6 17-22.85l1.85-1.75m15.35-11q18.65-11.2 43.5-16.3l1.9-0.4q20.65-4 38.85-2.4 7.6 0.65 14.75 2.3m28.5 11.85 4.55 3.6q3.3 2.9 5.7 6.2v0.05m-103.75 14.05 1.75-1.05q4.5-2.65 10.35-3.9l0.55-0.1 4.95-0.65 5.35 0.2q2.9 0.3 5.5 1.25l1.9 0.75 2.3 1.3q2.65 1.9 3.7 4.55l0.35 1.45 0.2 0.8v0.35l-0.1 1.7q-0.25 2.05-1.5 4.1l-5.95 5.95q-5 3.5-12.15 4.95l-1.3 0.25-3.4 0.45q-6.35 0.45-11.65-1.35-3.65-1.35-5.7-3.35l-0.1-0.15q-1.05-1-1.65-2.2l-0.2-0.4-0.6-2-0.15-1.95q-1.05 2-1.15 4.15-0.15 1.55 0.15 2.8 0.2 1.25 0.75 2.35l0.2 0.5q0.75 1.5 2.05 2.75 2.45 2.45 6.8 4 6.25 2.2 13.75 1.6l4.15-0.55 1.5-0.25q8.4-1.8 14.4-5.85m-39.65-18.35 1.8-1.9 2.8-2.2m-6.55 7q0.7-1.5 1.95-2.9m46.75 11.2q1.5-2.4 1.8-4.85v-2.35l-0.15-1-0.5-1.75q-1.9-5.2-9.3-7.8l-3.65-1.05m-37.9 14.45v-0.4q0.1-1.8 1-3.55m-58.95 42.8q2.3 3.8 5.65 7.1 8.4 8.3 23.3 13.6l3.95 1.3q25.85 8.05 57.65 2.5l5.25-1q6.5-1.35 12.7-3.1m47.15-96.3q1.75 1 3.35 2.2m-32.55 87.6q-8.5 3.75-17.95 6.5m17.95-6.5q15.85-7.05 28.05-17.6l0.15-1.45q0.5-3.65 1.4-6.2 0.8-2.1 1.9-3.4 1.05-1.3 2.15-1.4 1.25-0.15 2.6 1.45l1.15 1.7q1.5 2.85 2.3 8 0.75 5 0.45 10m-12.1-8.7q-0.65 6.05 0.3 12.2 0.75 4.85 2.2 7.75m-157-16.25-2.2-4.05-0.45-1.05q-1.45-3.45-2.15-7.15-0.8-4.2-0.65-8.35" fill="none" stroke="#000" stroke-opacity=".4"/>
<path d="m-48.15-52.3q2.6-7.3 13.3-10.8m3.65-0.9 2.3-0.35m3.65-0.3q6.4-0.05 11.85 2.6" fill="none" stroke="#f90" stroke-width="2.5"/>
</g>
<g id="a">
<use xlink:href="#b"/>
</g>
</defs>
<use transform="translate(265.85 184.55)" xlink:href="#a"/>
</svg>
