<?xml version="1.0" encoding="UTF-8"?>
<svg version="1.1" viewBox="0 0 302.93 137.8" xmlns="http://www.w3.org/2000/svg" xmlns:cc="http://creativecommons.org/ns#" xmlns:dc="http://purl.org/dc/elements/1.1/" xmlns:rdf="http://www.w3.org/1999/02/22-rdf-syntax-ns#" xmlns:xlink="http://www.w3.org/1999/xlink">
<metadata>
<rdf:RDF>
<cc:Work rdf:about="">
<dc:format>image/svg+xml</dc:format>
<dc:type rdf:resource="http://purl.org/dc/dcmitype/StillImage"/>
</cc:Work>
</rdf:RDF>
</metadata>
<g transform="translate(-89.775 -155.98)">
<use transform="translate(121.4,190.1)" width="271.29999" height="90.099998" xlink:href="#d"/>
<use transform="translate(172.5,242.85)" width="17.200001" height="13.3" xlink:href="#a"/>
<use transform="translate(211.35,250.05)" width="17.200001" height="13.3" xlink:href="#a"/>
<use transform="translate(265.1,250.05)" width="17.200001" height="13.3" xlink:href="#a"/>
<use transform="translate(125.1,156)" width="264.89999" height="62.150002" xlink:href="#c"/>
<use transform="translate(89.8,210.45)" width="292.14999" height="83.300003" xlink:href="#b"/>
</g>
<defs>
<g id="d" transform="translate(-121.4,-190.1)">
<path d="m386.45 198.65 2.35-3.8 0.85-1.85 0.3-1q0.05 1.65 0.05 0.3l1.4 8.2 0.05 0.45q-1.05 2.55-2.65 4.95l-2.35-7.25m3.55-2.75q0-1.5-0.35-2.9 0.35 1.4 0.35 2.9m-16.35 12.95 4.85-2.95 1.4 8.95q-3.85 2.8-8.75 5.2l-1.05-9.45 3.55-1.75 1.6 0.25-1.6-0.25m-17.45 7.8-0.9-0.55 0.9 0.55m-3.65 0.25 2.75-0.8 5.8-1.85 0.5 9.85-8.2 2.6-0.85-9.8m-10.95 2.75 1.1 9.8-12.95 2.65-1.8-9.7 13.65-2.75m-216.5-26.2 0.05 0.2 0.05 0.3 0.55 2q1.3 3.45 4.95 6.7l-2.15 8.5q-4-3.8-5.5-7.95 0.8-4.85 2.05-9.75m28.7 20.8-1.9 7.05-12.25-2.75 1.9-9.1q5.3 2.5 12.25 4.8m13.1 9.2 2.2-4.8 12.95 2.85-1.8 9.65-13.45-3.05q-0.9-0.25 0.1-4.65m134.65 12.5-1.1-9.95 12.8-1.4 0.9 9.95-12.6 1.4m-9.25-9.3 0.4 10-12.95 0.75-0.95-10 13.5-0.75m-37.7 1.15h2.9l9-0.05 1.05 10-10 0.1h-2.3l-0.65-10.05m-43.25-2.15-1.25 9.95-14.9-1.85 1.5-9.85 14.65 1.75m13.9 11.2 0.8-10 5.4 0.3 9.75 0.4v10.05l-15.95-0.75" fill="#e8eb5d" fill-rule="evenodd"/>
<path d="m386.45 198.65 2.35 7.25q-3.3 4.85-8.9 8.95l-1.4-8.95q4.95-3.4 7.95-7.25m-16.35 11.95 1.05 9.45q-4.35 2.15-9.55 4.05l-0.5-9.85q4.9-1.75 9-3.65m-17.55 6.3 0.85 9.8-2.15 0.6-3.35 0.9-5.2 1.25-1.1-9.8 6.25-1.5 3.35-0.9 1.35-0.35m-24.6 5.5 1.8 9.7-15.6 2.45-0.9-9.95 14.7-2.2m-199.4-11.25 2.15-8.5q2.35 2.1 5.8 4.15 2.3 1.35 5.05 2.65l-1.9 9.1q-6.95-3.5-11.1-7.4m25.25 3.1 1.25 0.45 8.75 2.55 2.95 0.8 2.35 0.6-2.2 4.8-15-2.15 1.9-7.05m146.65 11.75 1.1 9.95-8.85 0.7-0.4-10 8.15-0.65m-45.85 1.8 0.65 10.05-12.7-0.2-1.35-0.05v-10.05l13.4 0.25m12.95 9.95-1.05-10 12.3-0.35 0.95 10-12.2 0.35m-57.45-2.15 1.25-9.95 14.7 1.2-0.8 10-15.15-1.25m-13.4-11.7-1.5 9.85-0.7-0.1-14.25-2.5 1.8-9.65 0.3 0.05 14.35 2.35" fill="#8a7231" fill-rule="evenodd"/>
<path d="m388.8 205.9q1.6-2.4 2.65-4.95 3.2 24-1.9 44.25-0.7 8.75-15.15 16l-1.1-1.3 1.1 1.3-0.05 0.05-1.05-1.35-8.85-10.6-10.8-9.15-14.15 0.9-14.25 8.35-3.1 23.65 1.15 2.45-20.2 2.6-13.85 1.1-32.2 1-10.75-0.1h-1.4q-47.1-1.1-81.55-10.4-38.8-10.5-39.7-24.85l-0.05-0.4q-4.1-20.5-0.55-41.25 1.5 4.15 5.5 7.95 4.15 3.9 11.1 7.4l12.25 2.75 15 2.15q-1 4.4-0.1 4.65l13.45 3.05 14.25 2.5 0.7 0.1 14.9 1.85 15.15 1.25 15.95 0.75 1.35 0.05 12.7 0.2h2.3l10-0.1 12.2-0.35 12.95-0.75 8.85-0.7 12.6-1.4 15.6-2.45 12.95-2.65 5.2-1.25 3.35-0.9 2.15-0.6 8.2-2.6q5.2-1.9 9.55-4.05 4.9-2.4 8.75-5.2 5.6-4.1 8.9-8.95" fill="#584943" fill-rule="evenodd"/>
<path d="m125.2 193.95-0.05-0.3-0.05-0.2 0.2 0.05-0.05 0.1-0.05 0.35" fill="#2d2522" fill-rule="evenodd"/>
<path d="m160.75 195.6v-0.05l0.2-0.05-0.2 0.1" fill="#ccc" fill-rule="evenodd"/>
<path d="m386.45 198.65 2.35 7.25m2.6-5.4-1.4-8.2q0 1.35-0.05-0.3m0.05 0.3-0.05-0.3m-16.3 16.85 1.6 0.25m-5.15 1.5 1.05 9.45m8.75-5.2-1.4-8.95m11.05 39.3q5.1-20.25 1.9-44.25m-36.15 15.15 0.9 0.55m-0.9-0.55-2.75 0.8 0.85 9.8m8.2-2.6-0.5-9.85m-8.55 2.65-1.35 0.35-3.35 0.9-6.25 1.5 1.1 9.8m-1.1-9.8-13.65 2.75 1.8 9.7m43.55 27.8 1.1 1.3 0.25 0.3m-249.45-67.55-0.05-0.3-0.05-0.2q-1.25 4.9-2.05 9.75m5.5 7.95 2.15-8.5m-5.6-9.2-0.1-1.55 0.15-1.8m28.65 24.15-1.9 7.05m15 2.15 2.2-4.8-2.35-0.6-2.95-0.8-8.75-2.55m-15.4 3.85 1.9-9.1m-17.9 35.4-0.05-0.4q-4.1-20.5-0.55-41.25m177.4 22.8 1.1 9.95m12.6-1.4-0.9-9.95-12.8 1.4-8.15 0.65 0.4 10m-36.15-35.05 3.1 2.65m6.85 23.5-9 0.05h-2.9l0.65 10.05m12.3-0.1-1.05-10 12.3-0.35 13.5-0.75m-12.55 10.75-0.95-10m-37.6 9v-8.85l-9.75-0.4m-44.95-19.8 2.25 1.3m-6.7 12.85-12.95-2.85m11.15 12.5 1.8-9.65 0.3 0.05m20.55-16.85-0.85 2.65m52.55 20.45-13.4-0.25m86.75-5.15-14.7 2.2" fill="none" stroke="#000" stroke-linecap="round" stroke-linejoin="round" stroke-opacity=".30196" stroke-width=".05"/>
<path d="m388.8 205.9q1.6-2.4 2.65-4.95l-0.05-0.45m-1.75-7.5q0.35 1.4 0.35 2.9m-18.85 24.15q4.9-2.4 8.75-5.2m8.9-8.95q-3.3 4.85-8.9 8.95m-26.5 11.85 8.2-2.6m-18.9 5.35 5.2-1.25 3.35-0.9 2.15-0.6m-23.65 5.4 12.95-2.65m31.7 31.75q14.45-7.25 15.15-16m-175.55-34.95 43.05-1.8q48.4-0.05 84.3 8.15l6.5 1.55m26.55 43.05-0.05 0.05m-3.2-41.2q-4.35 2.15-9.55 4.05m-238.55-20.9q1.5 4.15 5.5 7.95m23.35 10.15 15 2.15m-27.25-4.9q-6.95-3.5-11.1-7.4m11.1 7.4 12.25 2.75m149.65 14.65 12.6-1.4m-21.45 2.1 8.85-0.7m-46.3 1.9h2.3l10-0.1m12.2-0.35-12.2 0.35m-22.65 42.35q-47.1-1.1-81.55-10.4-38.8-10.5-39.7-24.85m199.65 30.65-20.2 2.6-13.85 1.1m3.45-42.55-12.95 0.75m-113-19.35 2.95-0.75 7.1-1.6m3.45 15.45-13.45-3.05q-0.9-0.25 0.1-4.65m27.6 10.2-14.25-2.5m75 6.7-12.7-0.2m87.2-5.55-15.6 2.45" fill="none" stroke="#000" stroke-linecap="round" stroke-linejoin="round" stroke-opacity=".30196" stroke-width=".05"/>
<path d="m297.1 213.95q0.75-0.7 0.75-1.65t-0.75-1.65q-0.7-0.7-1.75-0.7t-1.8 0.7q-0.7 0.7-0.7 1.65t0.7 1.65q0.75 0.7 1.8 0.7t1.75-0.7m10.85 10.8q-16.6-11.95-19.4-6.35-4.1 8.1 1.75 14.15-8.05-4.9-14.55 0.45l-14.7-1.9q10.45-1.8 12.95-13.2l-0.25-10.3-11.1-8.35-3-0.35 1.75-6.3 61.8 7.35 4.75 17.1q-14.5-9.1-21.1-5.9-8.2 5.45 1.1 13.6" fill-rule="evenodd"/>
<path d="m161.7 232.35 4.95-9.2 83.45 5.85v-0.4l48.75-1.5 19.1 23.6-0.75 10.25-15.35 17.7-54 1.45-1.1 0.05 0.05-0.25h-0.55q-46.6-2.5-82.95-10.25l-1.6-37.3m86.15 47.75-1.05-0.2 1.05 0.2" fill="#584943" fill-rule="evenodd"/>
<path d="m161.65 231.55 0.05 0.8 4.95-9.2 83.45 5.85v-0.4l48.75-1.5 19.1 23.6-0.75 10.25-15.35 17.7-54 1.45-1.1 0.05-0.5-0.25q-46.6-2.5-82.95-10.25l-1.6-37.3-2.1 2.2m86.65 45.35h0.55l1.05 0.2m-1.1 0.05 0.05-0.25" fill="none" stroke="#000" stroke-linecap="round" stroke-linejoin="round" stroke-opacity=".30196" stroke-width=".05"/>
</g>
<g id="a" transform="translate(8.6,6.65)">
<path d="m0-6.65q3.55 0 6.05 1.95 2.55 1.95 2.55 4.7t-2.55 4.7q-2.5 1.95-6.05 1.95t-6.1-1.95q-2.5-1.95-2.5-4.7t2.5-4.7q2.55-1.95 6.1-1.95" fill="#2d2522" fill-rule="evenodd"/>
<path d="m0-6.65q3.55 0 6.05 1.95 2.55 1.95 2.55 4.7t-2.55 4.7q-2.5 1.95-6.05 1.95t-6.1-1.95q-2.5-1.95-2.5-4.7t2.5-4.7q2.55-1.95 6.1-1.95z" fill="none" stroke="#000" stroke-linecap="round" stroke-linejoin="round" stroke-width=".05"/>
</g>
<g id="c" transform="translate(132.45,31.05)">
<path d="m-114.55-13.4q8.4-3.8 20.8-7.15l3.6-0.95q37.75-9.55 90.1-9.55 54.9 0 93.7 10.5t38.8 25.4l-0.05 0.1-0.3 1q-3.5-13.05-38.45-22.5-38.8-10.5-93.7-10.5-28.3 0-52.25 2.8l-14.6 2q-10.05 1.6-19.25 3.8l-7.6 1.9q-11.1 3-19.05 6.4-17.5 7.45-19.45 16.6l-0.2-0.05 0.05-3.35 0.1-0.5q1.8-8.75 17.75-15.95" fill="#756129" fill-rule="evenodd"/>
<path d="m30.9-5.85-4.05 4.2 4.05-4.2m69.4 24.75-3.7-13.4-17.65 5.5-7.45-11.55-24.3-4.4-14.2-1.4q-1.55 4.85-6.15 4.7-13.9-4.9-39.25-4.25l-4.45 5.9-16.8 3.7-8.8-6.6-20.3 8.7-23.5-5.6-10.35 8.25-0.2 0.05-15.8 1.75-8.45 9.5q-3.45-2.05-5.8-4.15-3.65-3.25-4.95-6.7l-0.55-2 0.05-0.35 0.05-0.1q1.95-9.15 19.45-16.6 7.95-3.4 19.05-6.4l7.6-1.9q9.2-2.2 19.25-3.8l14.6-2q23.95-2.8 52.25-2.8 54.9 0 93.7 10.5 34.95 9.45 38.45 22.5l-0.85 1.85-2.35 3.8q-3 3.85-7.95 7.25l-4.85 2.95-15.8-2.8v-0.1m-153.5-39q24.35-2.9 53.15-2.9 54.9 0 93.7 10.5 31.95 8.65 37.6 20.3-5.65-11.65-37.6-20.3-38.8-10.5-93.7-10.5-28.8 0-53.15 2.9m-18.85 2.75-10.25 2.05 10.25-2.05m-6.2 40.7 0.15-0.4 5.85-5.4 21.2-2.05 5.85 4.45 36-3.5 6.25-3.7 31.8 2.1 7.35-2.65 17.65 4.4 0.15 0.05 0.8 4.15 30.85 1.2 12.1 7.05-2.75 0.8-1.35 0.35-3.35 0.9-6.5-1.55q-35.9-8.2-84.3-8.15l-43.05 1.8q-20 1.85-37.2 5.45l-7.1 1.6-2.95 0.75-2.95-0.8-8.75-2.55 17.3-6.7 6.95 2.4m-19.8-17.25 1.25 2.4-1.25-2.4m-12.5-13.1q-18 7.1-21.25 15.9 3.25-8.8 21.25-15.9m191.5 4.7-2.25 2.65 2.25-2.65" fill="#261f1c" fill-rule="evenodd"/>
<path d="m26.85-1.65q4.6 0.15 6.15-4.7l14.2 1.4 24.3 4.4 7.45 11.55 17.65-5.5 3.7 13.4v0.1l15.8 2.8-3.55 1.75q-4.1 1.9-9 3.65l-5.8 1.85-12.1-7.05-30.85-1.2-0.8-4.15-0.15-0.05-17.65-4.4-7.35 2.65-31.8-2.1-6.25 3.7-36 3.5-5.85-4.45-21.2 2.05-5.85 5.4-0.15 0.4-6.95-2.4-17.3 6.7-1.25-0.45q-6.95-2.3-12.25-4.8l-5.05-2.65 8.45-9.5 15.8-1.75v0.05l0.2-0.1 10.35-8.25 23.5 5.6 20.3-8.7 8.8 6.6 16.8-3.7 4.45-5.9q25.35-0.65 39.25 4.25m16.25-0.65-5.55 0.75 1.65 10.25 3.6 0.95 8.9-7.9-4.45-2.75-3.45 1.6-0.7-2.9m-48.05 4.2-4.9 4.25 13.05 5.55 3.55-3.5-0.3-8.95-6.1 0.85-1.1 3.85-4.2-2.05m-28.75 8.7-3.8-3.35-4.4 1.35-0.35-5.1-0.15-0.05-2.6-0.8-0.75 11.5 12.05-3.55m-51.15-1.45-3.15-1.55-1.9 3.5 5.2 4.75 6.35-8.75-5.35-1.7-1.15 3.75m152.2 10.4 8.05-6.1-2.65-2.05-1.95 1.2-0.3-2.25-6.85-0.45-0.1 7.65 3.8 2" fill="#be9cac" fill-rule="evenodd"/>
<path d="m43.1-2.3 0.7 2.9 3.45-1.6 4.45 2.75-8.9 7.9-3.6-0.95-1.65-10.25 5.55-0.75m-48.05 4.2 4.2 2.05 1.1-3.85 6.1-0.85 0.3 8.95-3.55 3.5-13.05-5.55 4.9-4.25m-28.75 8.7-12.05 3.55 0.75-11.5 2.6 0.8 0.15 0.05 0.35 5.1 4.4-1.35 3.8 3.35m-51.15-1.45 1.15-3.75 5.35 1.7-6.35 8.75-5.2-4.75 1.9-3.5 3.15 1.55m152.2 10.4-3.8-2 0.1-7.65 6.85 0.45 0.3 2.25 1.95-1.2 2.65 2.05-8.05 6.1" fill="#b21b1b" fill-rule="evenodd"/>
<path d="m-86.15-18.45q9.2-2.2 19.25-3.8m14.6-2q23.95-2.8 52.25-2.8 54.9 0 93.7 10.5 34.95 9.45 38.45 22.5m-264.45 0.95 0.05-0.35 0.05-0.1q1.95-9.15 19.45-16.6" fill="none" stroke="#000" stroke-linecap="round" stroke-linejoin="round" stroke-opacity=".30196" stroke-width=".05"/>
<path d="m131.25 7.8q-5.65-11.65-37.6-20.3-38.8-10.5-93.7-10.5-28.8 0-53.15 2.9m-29.1 4.8 10.25-2.05m-59.75 26.25q3.25-8.8 21.25-15.9" fill="none" stroke="#b9b93e" stroke-linecap="round" stroke-linejoin="round" stroke-width=".05"/>
<path d="m26.85-1.65 4.05-4.2m69.4 24.75v0.1l15.8 2.8 4.85-2.95q4.95-3.4 7.95-7.25l2.35-3.8m-221.4-29.3q37.75-9.55 90.1-9.55 54.9 0 93.7 10.5t38.8 25.4m-0.05 0.1-0.3 1-0.85 1.85m-33.5 21.25 5.8-1.85q4.9-1.75 9-3.65l3.55-1.75m-218.6 5.85-1.25-0.45q-6.95-2.3-12.25-4.8l-5.05-2.65q-3.45-2.05-5.8-4.15-3.65-3.25-4.95-6.7l-0.55-2m-0.1-0.5 0.05-3.35 0.1-0.5q1.8-8.75 17.75-15.95m17.75 21.95v-0.05l-1.25-2.4m12.85 14.85 6.95 2.4m156.95-23 2.25-2.65" fill="none" stroke="#000" stroke-linecap="round" stroke-linejoin="round" stroke-opacity=".30196" stroke-width=".05"/>
</g>
<g id="b" transform="translate(-89.8,-210.45)">
<path d="m353.65 240.15 10.8 9.15 9.9 11.95 0.3 0.25 7.3 14.35q-1.55-1.7-3.65-3.25-6.1-4.5-11.85-4.1-2.75 13.3 4.35 14.55-7.6 3.1-13.2-5.7-3.95 11.15 4.8 14.9-13.75 0.05-25.7-9.4l-5.4 9.9q0.95-12.7-8-17.25l-1.15-2.45 3.1-23.65 14.25-8.35 14.15-0.9m12.8 28.35-3.75-3.75 3.75 3.75" fill="#333" fill-rule="evenodd"/>
<path d="m353.65 240.15 10.8 9.15 9.9 11.95 0.3 0.25 7.3 14.35q-1.55-1.7-3.65-3.25-6.1-4.5-11.85-4.1-2.75 13.3 4.35 14.55-7.6 3.1-13.2-5.7-3.95 11.15 4.8 14.9-13.75 0.05-25.7-9.4l-5.4 9.9q0.95-12.7-8-17.25l-1.15-2.45 3.1-23.65 14.25-8.35 14.15-0.9m9.05 24.6 3.75 3.75" fill="none" stroke="#000" stroke-linecap="round" stroke-linejoin="round" stroke-opacity=".30196" stroke-width=".05"/>
<path d="m118.1 223.9-10.8 9.15-9.9 11.95-0.3 0.25-7.3 14.35q1.55-1.7 3.65-3.25 6.1-4.5 11.85-4.1 2.75 13.3-4.35 14.55 7.6 3.1 13.2-5.7 3.95 11.15-4.8 14.9 13.75 0.05 25.7-9.4l5.4 9.9q-0.95-12.7 8-17.25l1.15-2.45-3.1-23.65-14.25-8.35-14.15-0.9m-12.8 28.35 3.75-3.75-3.75 3.75" fill="#333" fill-rule="evenodd"/>
<path d="m118.1 223.9-10.8 9.15-9.9 11.95-0.3 0.25-7.3 14.35q1.55-1.7 3.65-3.25 6.1-4.5 11.85-4.1 2.75 13.3-4.35 14.55 7.6 3.1 13.2-5.7 3.95 11.15-4.8 14.9 13.75 0.05 25.7-9.4l5.4 9.9q-0.95-12.7 8-17.25l1.15-2.45-3.1-23.65-14.25-8.35-14.15-0.9m-9.05 24.6-3.75 3.75" fill="none" stroke="#000" stroke-linecap="round" stroke-linejoin="round" stroke-opacity=".30196" stroke-width=".05"/>
<path d="m204.4 277.8q-3.4 5.4 0.9 10.2l-46.3-8q-20.75-41.1 12.75-68.65 16.15-2.05 36.4 0.7-7.75 7.15 1.1 12.15-38.3-3.15-38.3-3.75-13.5 25.4-3.4 51.55l36.85 5.8" fill="#b9b924" fill-rule="evenodd"/>
<path d="m213.75 216.45q12.4 0.75 28.15 5.8-15.75-5.05-28.15-5.8m33.9 35.3-0.3-5.95 0.3 5.95m-43.25 26.05 27 4.25q16.7-19.8 1.4-55.9l-23.55-1.95q-8.85-5-1.1-12.15 17.75 2.35 38.65 8.45 13.85 48-11.1 73.25l-30.4-5.75q-4.3-4.8-0.9-10.2m41.55-41.8q-0.3-5.75-3.25-13 2.95 7.25 3.25 13" fill="#dada49" fill-rule="evenodd"/>
<path d="m159.25 280.55-0.25-0.55q-1.25-0.05 0.25 0.55m50-56.35 23.55 1.95q15.3 36.1-1.4 55.9l-27-4.25m0.9 10.2 30.4 5.75q24.95-25.25 11.1-73.25-20.9-6.1-38.65-8.45m1.1 12.15q-38.3-3.15-38.3-3.75-13.5 25.4-3.4 51.55l36.85 5.8m0.9 10.2-46.3-8q-20.75-41.1 12.75-68.65 16.15-2.05 36.4 0.7" fill="none" stroke="#000" stroke-linecap="round" stroke-linejoin="round" stroke-opacity=".30196" stroke-width=".05"/>
<path d="m247.35 245.8 0.3 5.95m-5.75-29.5q-15.75-5.05-28.15-5.8m28.95 6.55q2.95 7.25 3.25 13" fill="none" stroke="#fff" stroke-linecap="round" stroke-linejoin="round" stroke-width="2"/>
<path d="m172.55 253.95-17.6-3.3-4.9-7.15q0.55-3.25 5.6-6.05 5-0.75 17.6 2.95-1.55 2-2.2 4.1-1.55 4.6 1.5 9.45" fill="#bebe34" fill-rule="evenodd"/>
<path d="m172.55 253.95q-3.05-4.85-1.5-9.45 0.65-2.1 2.2-4.1l2.95 0.9q14.95 4.65 5.85 14.5l-9.5-1.85m-1.5-9.45q4.9-0.2 11.15 3.75-6.25-3.95-11.15-3.75" fill="#dada49" fill-rule="evenodd"/>
<path d="m173.25 240.4q-12.6-3.7-17.6-2.95-5.05 2.8-5.6 6.05l4.9 7.15 17.6 3.3m0.7-13.55 2.95 0.9q14.95 4.65 5.85 14.5l-9.5-1.85" fill="none" stroke="#000" stroke-linecap="round" stroke-linejoin="round" stroke-opacity=".30196" stroke-width=".05"/>
<path d="m182.2 248.25q-6.25-3.95-11.15-3.75" fill="none" stroke="#fff" stroke-linecap="round" stroke-linejoin="round" stroke-width="2"/>
</g>
</defs>
</svg>
