<?xml version="1.0" encoding="UTF-8" standalone="no"?>
<!DOCTYPE svg PUBLIC "-//W3C//DTD SVG 1.1//EN" "http://www.w3.org/Graphics/SVG/1.1/DTD/svg11.dtd">
<svg width="100%" height="100%" viewBox="0 0 17 35" version="1.1" xmlns="http://www.w3.org/2000/svg" xmlns:xlink="http://www.w3.org/1999/xlink" xml:space="preserve" xmlns:serif="http://www.serif.com/" style="fill-rule:evenodd;clip-rule:evenodd;stroke-linecap:round;stroke-linejoin:round;">
    <g transform="matrix(1,0,0,1,-0.025,-0.025)">
        <g transform="matrix(1,0,0,1,-27.65,-22.45)">
            <path d="M38.4,51.4C38.1,50.567 37.9,49.767 37.8,49C37.6,47.667 37.583,46.25 37.75,44.75C37.983,46.283 38.517,47.7 39.35,49L40.95,51L38.4,51.4M31.8,54.45C31.633,52.717 31.617,50.9 31.75,49C31.883,47.1 32.183,45.117 32.65,43.05L33.65,43.05C33.717,45.283 33.9,47.267 34.2,49C34.5,50.967 34.933,52.617 35.5,53.95L31.8,54.45M33.15,40.95L33.55,39.55L33.6,40.95L33.15,40.95" style="fill-opacity:0.3;"/>
            <path d="M40.95,51L42.3,52.4L41,52.3L38.95,52.8L38.4,51.4L40.95,51M35.5,53.95L36.05,55.25L34.55,55.25L31.9,55.65L31.8,54.45L35.5,53.95M32.65,43.05L33.15,40.95L33.6,40.95L33.65,43.05L32.65,43.05" style="fill:#fff;fill-opacity:0.15;"/>
            <path d="M28.05,50.2L28.2,48.55L28.6,43.9L28.7,42.95L28.9,41.35L28.9,41.15L28.95,40.55L29.45,33.7C29.55,30.933 29.383,28.433 28.95,26.2C32.317,25.433 35.067,24.2 37.2,22.5C37.8,23.3 38.217,24.167 38.45,25.1L38.5,25.25L38.8,32.25L38.8,32.5L39.2,38L39.25,38.65L39.3,39.35L39.4,40.05L39.4,40.35C39.7,44.483 40.567,47.783 42,50.25L42.2,50.6L40.35,50.6C38.817,47.5 37.75,44.283 37.15,40.95C36.95,43.817 37.283,47.217 38.15,51.15L38,51.25C37.567,51.483 37.383,51.717 37.45,51.95C37.783,53.017 37.133,53.617 35.5,53.75L34.15,53.75C33.217,50.317 32.633,47.083 32.4,44.05C31.867,46.783 31.7,50.083 31.9,53.95L31.65,54C30.65,54.267 30.067,54.517 29.9,54.75L29.9,54.7L29.85,54.7C28.85,53.233 28.25,51.733 28.05,50.2" style="fill:#656d60;"/>
            <path d="M42.7,50.85L43.85,52.3L41.2,52.25L40.45,50.85L42.7,50.85M38.7,53.4L38.6,53.8C38.5,54.433 38.183,54.833 37.65,55L36.15,55.2L34.55,55.2L34.2,53.95L35.75,53.95C37.383,53.817 38.033,53.217 37.7,52.15C37.633,51.95 37.817,51.717 38.25,51.45L38.7,53.4M31.9,55.65C31.4,55.817 31.1,55.967 31,56.1L30.35,55.35L30.15,55.05C30.217,54.783 30.8,54.517 31.9,54.25L31.9,55.65M31.7,56.75C30.133,56.883 28.917,56.583 28.05,55.85L27.7,55.5L27.7,54.05L28.05,54.4C28.483,54.8 29.05,55.083 29.75,55.25C30.283,55.85 30.933,56.35 31.7,56.75" style="fill:#d1d6cf;"/>
            <path d="M41.2,52.25C39.767,52.417 38.933,52.8 38.7,53.4L38.25,51.45C38.65,51.183 39.383,50.983 40.45,50.85L41.2,52.25M34.55,55.2C33.383,55.167 32.5,55.317 31.9,55.65L31.9,54.25L34.2,53.95L34.55,55.2" style="fill:#8b8c8a;"/>
            <path d="M42,50.25L42.7,50.85L40.45,50.85C39.383,50.983 38.65,51.183 38.25,51.45C37.817,51.717 37.633,51.95 37.7,52.15C38.033,53.217 37.383,53.817 35.75,53.95L34.2,53.95L31.9,54.25C30.8,54.517 30.217,54.783 30.15,55.05L29.9,54.75C30.067,54.517 30.65,54.267 31.65,54L31.9,53.95L31.95,53.95L33.95,53.75L35.5,53.75C37.133,53.617 37.783,53.017 37.45,51.95C37.383,51.717 37.567,51.483 38,51.25L38.15,51.15L38.2,51.1C38.633,50.9 39.3,50.75 40.2,50.65L40.35,50.6L42.2,50.6L42,50.25M31,56.1L31.7,56.75C30.933,56.35 30.283,55.85 29.75,55.25C29.05,55.083 28.483,54.8 28.05,54.4L27.7,54.05L28.05,53.7L28.05,54C28.583,54.533 29.283,54.883 30.15,55.05L30.35,55.35L31,56.1" style="fill:#fdfeee;"/>
            <path d="M28.05,53.7L28.05,50.2C28.25,51.733 28.85,53.233 29.85,54.7L29.9,54.7L29.9,54.75L30.15,55.05C29.283,54.883 28.583,54.533 28.05,54L28.05,53.7M31.9,53.95C31.7,50.083 31.867,46.783 32.4,44.05C32.633,47.083 33.217,50.317 34.15,53.75L33.95,53.75L31.95,53.95L31.9,53.95M38.15,51.15C37.283,47.217 36.95,43.817 37.15,40.95C37.75,44.283 38.817,47.5 40.35,50.6L40.2,50.65C39.3,50.75 38.633,50.9 38.2,51.1L38.15,51.15" style="fill:#2c2f28;"/>
            <path d="M28.05,50.2L28.2,48.55L28.6,43.9L28.7,42.95L28.9,41.35L28.9,41.15L28.95,40.55L29.45,33.7C29.55,30.933 29.383,28.433 28.95,26.2C32.317,25.433 35.067,24.2 37.2,22.5C37.8,23.3 38.217,24.167 38.45,25.1L38.5,25.25L38.8,32.25L38.8,32.5L39.2,38L39.25,38.65L39.3,39.35L39.4,40.05L39.4,40.35C39.7,44.483 40.567,47.783 42,50.25L42.7,50.85L43.85,52.3L41.2,52.25C39.767,52.417 38.933,52.8 38.7,53.4L38.6,53.8C38.5,54.433 38.183,54.833 37.65,55L36.15,55.2L34.55,55.2C33.383,55.167 32.5,55.317 31.9,55.65C31.4,55.817 31.1,55.967 31,56.1L31.7,56.75C30.133,56.883 28.917,56.583 28.05,55.85L27.7,55.5L27.7,54.05L28.05,53.7L28.05,50.2C28.25,51.733 28.85,53.233 29.85,54.7L29.9,54.7L29.9,54.75C30.067,54.517 30.65,54.267 31.65,54L31.9,53.95L31.95,53.95L33.95,53.75L35.5,53.75C37.133,53.617 37.783,53.017 37.45,51.95C37.383,51.717 37.567,51.483 38,51.25L38.15,51.15L38.2,51.1C38.633,50.9 39.3,50.75 40.2,50.65L40.35,50.6L42.2,50.6L42,50.25M28.05,53.7L28.05,54C28.583,54.533 29.283,54.883 30.15,55.05L29.9,54.75M31,56.1L30.35,55.35L30.15,55.05" style="fill:none;fill-rule:nonzero;stroke:#000;stroke-opacity:0.3;stroke-width:0.05px;"/>
            <path d="M34.15,24.45C35.65,24.017 36.883,24.367 37.85,25.5L38.1,28.2L38.35,28.35L38.6,29.05L38.6,29.15L38.5,29.95L38.45,30L38.8,30.8C38.967,31.3 39,32 38.9,32.9L39.05,33.3L39.15,34.45L38.85,36.2L38.7,37.25L38.45,38L38.1,38.65L37.9,39.5L37.4,40.25L36.6,40.65C36.233,40.983 35.683,41.133 34.95,41.1L34.75,41.15L33.6,41.1C33.3,41 32.933,40.767 32.5,40.4L32.25,40L31.45,39.4L30.95,38.75L30.6,38.05C30.3,37.65 30.1,37.25 30,36.85L29.75,35.85L29.75,35.25C29.517,34.583 29.45,33.8 29.55,32.9L29.65,32.5L29.6,32.5L29.5,32.35L29.5,30.85L29.75,30.7L29.4,29.75L29.2,27.7C30.033,26.467 31.467,25.467 33.5,24.7L33.7,24.65L33.85,24.6L34.15,24.45M37.85,33.45L37.95,32.8L37.9,32.7C37.567,34.933 36.917,37.05 35.95,39.05C33.983,37.983 32.45,36.433 31.35,34.4L31.1,33.9L31,35C31.3,35.433 31.567,36.25 31.8,37.45C32.6,38.25 33.083,38.867 33.25,39.3L34.6,40.05C34.967,39.817 35.417,39.683 35.95,39.65L36.35,39.65L37.2,38.15L37.2,37.9L37.55,36.45L37.85,35.7L37.85,33.45" style="fill-opacity:0.3;"/>
            <path d="M38.9,28.1L38.9,28.2L38.75,29L38.75,29.05L38.25,29.4L37.85,29.4L37.6,29.25L37.25,28.6L37.25,28.5C37.65,28.667 38.017,28.667 38.35,28.5L38.5,28.4L38.9,28.1M29.95,31.55L29.9,31.55L29.55,30.9L29.5,30.75L30.1,30.9L30.3,30.9C30.767,30.933 31.25,30.783 31.75,30.45L31.8,30.75L31.6,31.2L31.2,31.55L30.7,31.65L29.95,31.55" style="fill:#e0ab47;"/>
            <path d="M38.9,28.1L38.5,28.4L38.35,28.5C38.017,28.667 37.65,28.667 37.25,28.5L37.45,27.85C37.583,27.617 37.783,27.433 38.05,27.3L38.65,27.4L38.9,28.1M29.5,30.75C29.5,30.517 29.55,30.3 29.65,30.1C29.783,29.833 30.033,29.7 30.4,29.7L31.35,29.95L31.75,30.45C31.25,30.783 30.767,30.933 30.3,30.9L30.1,30.9L29.5,30.75M38.6,27.65L38.4,27.4L38.15,27.45L38,27.7L38.05,28L38.15,28.15L38.3,27.95L38.55,27.85L38.6,27.65M30.55,30.05L30.3,29.9L30,29.95L29.8,30.25L29.9,30.4L30.2,30.45L30.45,30.5L30.6,30.35L30.55,30.05" style="fill:#f7e674;"/>
            <path d="M38.6,27.65L38.55,27.85L38.3,27.95L38.15,28.15L38.05,28L38,27.7L38.15,27.45L38.4,27.4L38.6,27.65M30.55,30.05L30.6,30.35L30.45,30.5L30.2,30.45L29.9,30.4L29.8,30.25L30,29.95L30.3,29.9L30.55,30.05" style="fill:#fefefe;"/>
            <path d="M37.85,29.4L38.25,29.4L38.75,29.05L39.1,29.85C39.267,30.35 39.3,31.05 39.2,31.95L39.35,32.35L39.4,33.5C39.433,34.1 39.333,34.683 39.1,35.25L39,36.3L38.75,37.05L38.4,37.7L38.2,38.55L37.7,39.3L36.9,39.7C36.5,40.033 35.95,40.183 35.25,40.15L35.05,40.2C34.45,40.1 33.917,39.85 33.45,39.45L32.8,39.45L32.5,39.05L33.1,39.05C32.6,38.85 32.15,38.4 31.75,37.7L31.25,37.75L30.9,37.1L31.45,37.15C31.183,36.75 30.967,36.017 30.8,34.95L30.05,34.9L30.05,34.3L30.6,34.35L30.4,32.7C30.433,32.3 30.25,32.05 29.85,31.95L29.95,31.55L30.7,31.65L31.2,31.55C31.433,32.583 31.467,33.417 31.3,34.05C31.6,34.483 31.867,35.3 32.1,36.5L33.55,38.35L34.85,39.1L35.1,39.35C35.333,39.15 35.7,38.933 36.2,38.7L36.65,38.7L37.45,37.2L37.8,37.6L38.5,35.75C38.133,35.917 37.8,36.317 37.5,36.95C37.567,36.35 37.683,35.867 37.85,35.5L38.15,34.75L38.15,32.5L38.25,31.85C37.95,31.283 37.8,30.633 37.8,29.9L37.85,29.4M38.25,31.85L38.65,32.2L38.95,32.2L39.2,31.95L38.95,32.2L38.65,32.2L38.25,31.85M38.6,35.3L38.85,33.7L38.15,34.75C38.117,35.05 38.267,35.233 38.6,35.3L38.9,35.35L39.1,35.25L38.9,35.35L38.6,35.3M37.8,37.6L38,37.75L38.4,37.7L38,37.75L37.8,37.6M36.9,39.7L37,39.05L36.9,39.7M36.65,38.7L37,39.05C37.333,38.717 37.533,38.317 37.6,37.85L36.65,38.7M35.25,40.15L35.1,39.35L35.25,40.15M31.3,34.05L30.6,34.35L31.3,34.05M32.1,36.5L31.45,37.15L32.1,36.5M33.55,38.35L33.1,39.05L33.55,38.35" style="fill:#900;"/>
            <path d="M35.05,40.2L33.9,40.15C33.567,40.05 33.2,39.817 32.8,39.45L33.45,39.45C33.917,39.85 34.45,40.1 35.05,40.2M32.5,39.05L31.7,38.45L31.25,37.75L31.75,37.7C32.15,38.4 32.6,38.85 33.1,39.05L32.5,39.05M30.9,37.1C30.6,36.7 30.4,36.3 30.3,35.9L30.05,34.9L30.8,34.95C30.967,36.017 31.183,36.75 31.45,37.15L30.9,37.1M30.05,34.3C29.817,33.633 29.75,32.85 29.85,31.95C30.25,32.05 30.433,32.3 30.4,32.7L30.6,34.35L30.05,34.3M34.85,39.1C35.25,38.867 35.7,38.733 36.2,38.7C35.7,38.933 35.333,39.15 35.1,39.35L34.85,39.1M37.45,37.2L37.5,36.95C37.8,36.317 38.133,35.917 38.5,35.75L37.8,37.6L37.45,37.2M38.15,34.75L38.85,33.7L38.6,35.3C38.267,35.233 38.117,35.05 38.15,34.75M37,39.05L36.65,38.7L37.6,37.85C37.533,38.317 37.333,38.717 37,39.05" style="fill:#c60;"/>
            <path d="M38.75,29.05L38.75,29L38.9,28.2L38.9,28.1L38.65,27.4L38.05,27.3C37.783,27.433 37.583,27.617 37.45,27.85L37.25,28.5L37.25,28.6L37.6,29.25L37.85,29.4L38.25,29.4L38.75,29.05L39.1,29.85C39.267,30.35 39.3,31.05 39.2,31.95L39.35,32.35L39.4,33.5C39.433,34.1 39.333,34.683 39.1,35.25L39,36.3L38.75,37.05L38.4,37.7L38.2,38.55L37.7,39.3L36.9,39.7C36.5,40.033 35.95,40.183 35.25,40.15L35.05,40.2L33.9,40.15C33.567,40.05 33.2,39.817 32.8,39.45L32.5,39.05L31.7,38.45L31.25,37.75L30.9,37.1C30.6,36.7 30.4,36.3 30.3,35.9L30.05,34.9L30.05,34.3C29.817,33.633 29.75,32.85 29.85,31.95L29.95,31.55L29.9,31.55L29.55,30.9L29.5,30.75C29.5,30.517 29.55,30.3 29.65,30.1C29.783,29.833 30.033,29.7 30.4,29.7L31.35,29.95L31.75,30.45L31.8,30.75L31.6,31.2L31.2,31.55C31.433,32.583 31.467,33.417 31.3,34.05C31.6,34.483 31.867,35.3 32.1,36.5L33.55,38.35L34.85,39.1C35.25,38.867 35.7,38.733 36.2,38.7L36.65,38.7L37.45,37.2L37.5,36.95C37.567,36.35 37.683,35.867 37.85,35.5L38.15,34.75L38.15,32.5L38.25,31.85C37.95,31.283 37.8,30.633 37.8,29.9L37.85,29.4M39.2,31.95L38.95,32.2L38.65,32.2L38.25,31.85M38.6,35.3L38.9,35.35L39.1,35.25M38.4,37.7L38,37.75L37.8,37.6L37.45,37.2M38.6,35.3C38.267,35.233 38.117,35.05 38.15,34.75M37,39.05L36.9,39.7M37,39.05L36.65,38.7M35.1,39.35L35.25,40.15M31.2,31.55L30.7,31.65L29.95,31.55M30.6,34.35L31.3,34.05M30.05,34.3L30.6,34.35M31.45,37.15L32.1,36.5M33.1,39.05L33.55,38.35M30.9,37.1L31.45,37.15M32.5,39.05L33.1,39.05" style="fill:none;fill-rule:nonzero;stroke:#000;stroke-opacity:0.3;stroke-width:0.05px;"/>
            <path d="M34.85,39.1L35.1,39.35" style="fill:none;fill-rule:nonzero;stroke:#000;stroke-opacity:0.4;stroke-width:0.05px;"/>
            <path d="M36.25,38.1L36.25,35C37.15,32.567 37.433,29.583 37.1,26.05C36.833,25.783 36.517,25.6 36.15,25.5L36.25,26.2C36.45,27.933 36.35,29.533 35.95,31L35.9,30.05L35.1,25.45L34.45,23.5C35.95,23.067 37.183,23.417 38.15,24.55C38.85,29.483 38.217,34 36.25,38.1" style="fill:#c7cac6;"/>
            <path d="M33.8,23.75L33.95,23.7L34.05,23.65L34.1,23.65L34.45,23.5L35.1,25.45C34.667,25.65 34.283,26.1 33.95,26.8C34.317,27.933 34.967,29.017 35.9,30.05L35.95,31C34.75,30.167 33.833,28.933 33.2,27.3L32.95,26.5C32.483,26.867 32.133,27.267 31.9,27.7C32.7,30.867 34.05,33.217 35.95,34.75L36.25,35L36.25,38.1C32.85,35.133 30.75,31.467 29.95,27.1C30.717,25.6 32,24.483 33.8,23.75" style="fill:#d1d6cf;"/>
            <path d="M33.8,23.75C32,24.483 30.717,25.6 29.95,27.1C30.75,31.467 32.85,35.133 36.25,38.1C34.283,37.033 32.75,35.483 31.65,33.45C30.55,31.383 29.75,29.267 29.25,27.1C30.05,25.7 31.567,24.583 33.8,23.75M35.9,30.05C34.967,29.017 34.317,27.933 33.95,26.8C34.283,26.1 34.667,25.65 35.1,25.45L35.9,30.05" style="fill:#fefefe;"/>
            <path d="M35.95,34.75C34.05,33.217 32.7,30.867 31.9,27.7C32.133,27.267 32.483,26.867 32.95,26.5L33.2,27.3C33.833,28.933 34.75,30.167 35.95,31C36.35,29.533 36.45,27.933 36.25,26.2L36.85,26.55C37.083,28.817 36.9,31.1 36.3,33.4L35.95,34.75M36.15,32.2L36.1,31.75C34.367,30.583 33.3,29.233 32.9,27.7L32.6,28.1C33.267,30.233 34.3,32.133 35.7,33.8L36.15,32.2" style="fill:#2c2f28;"/>
            <path d="M36.25,35L35.95,34.75L36.3,33.4C36.9,31.1 37.083,28.817 36.85,26.55L36.25,26.2L36.15,25.5C36.517,25.6 36.833,25.783 37.1,26.05C37.433,29.583 37.15,32.567 36.25,35" style="fill:#8b8c8a;"/>
            <path d="M36.15,32.2L35.7,33.8C34.3,32.133 33.267,30.233 32.6,28.1L32.9,27.7C33.3,29.233 34.367,30.583 36.1,31.75L36.15,32.2" style="fill:#656d60;"/>
            <path d="M34.45,23.5L34.1,23.65L34.05,23.65L33.95,23.7L33.8,23.75C31.567,24.583 30.05,25.7 29.25,27.1C29.75,29.267 30.55,31.383 31.65,33.45C32.75,35.483 34.283,37.033 36.25,38.1C38.217,34 38.85,29.483 38.15,24.55C37.183,23.417 35.95,23.067 34.45,23.5L34.05,23.65M36.25,35L35.95,34.75C34.05,33.217 32.7,30.867 31.9,27.7C32.133,27.267 32.483,26.867 32.95,26.5L33.2,27.3C33.833,28.933 34.75,30.167 35.95,31C36.35,29.533 36.45,27.933 36.25,26.2L36.85,26.55C37.083,28.817 36.9,31.1 36.3,33.4L35.95,34.75M36.25,26.2L36.15,25.5" style="fill:none;fill-rule:nonzero;stroke:#000;stroke-opacity:0.3;stroke-width:0.05px;"/>
            <path d="M34.3,35.2L34.3,34.8L34.55,34.6L34.8,34.65L35,34.85L35.05,35L34.95,35.2L34.75,35.35L34.45,35.35L34.3,35.2" style="fill:#fcfcfc;"/>
            <path d="M34.3,35.2L34.45,35.35L34.75,35.35L34.95,35.2L35.05,35L35.05,35.45L34.8,35.7L34.5,35.6L34.3,35.2" style="fill:#929590;"/>
            <path d="M35.05,35L35,34.85L34.8,34.65L34.55,34.6L34.3,34.8L34.3,35.2L34.45,35.35L34.75,35.35L34.95,35.2L35.05,35Z" style="fill:none;fill-rule:nonzero;stroke:#000;stroke-opacity:0.4;stroke-width:0.05px;"/>
            <path d="M37.1,34.25L37.1,33.85C37.1,33.75 37.133,33.7 37.2,33.7L37.45,33.75L37.6,34L37.6,34.15L37.55,34.3L37.45,34.45L37.2,34.4L37.1,34.25" style="fill:#fcfcfc;"/>
            <path d="M37.1,34.25L37.2,34.4L37.45,34.45L37.4,34.6L37.3,34.75L37.15,34.7L37.1,34.25" style="fill:#929590;"/>
            <path d="M37.45,34.45L37.55,34.3L37.6,34.15L37.6,34L37.45,33.75L37.2,33.7C37.133,33.7 37.1,33.75 37.1,33.85L37.1,34.25L37.2,34.4L37.45,34.45Z" style="fill:none;fill-rule:nonzero;stroke:#000;stroke-opacity:0.4;stroke-width:0.05px;"/>
            <path d="M32.25,32.3L32.25,31.9L32.5,31.7L32.75,31.75L32.95,31.95L33,32.1L32.9,32.3L32.7,32.45L32.4,32.45L32.25,32.3" style="fill:#fcfcfc;"/>
            <path d="M32.25,32.3L32.4,32.45L32.7,32.45L32.9,32.3L33,32.1L33,32.55L32.75,32.8L32.45,32.7L32.25,32.3" style="fill:#929590;"/>
            <path d="M33,32.1L32.95,31.95L32.75,31.75L32.5,31.7L32.25,31.9L32.25,32.3L32.4,32.45L32.7,32.45L32.9,32.3L33,32.1Z" style="fill:none;fill-rule:nonzero;stroke:#000;stroke-opacity:0.4;stroke-width:0.05px;"/>
            <path d="M30.7,28.4L30.7,28L30.95,27.8L31.2,27.85L31.4,28.05L31.45,28.2L31.35,28.4L31.15,28.55L30.85,28.55L30.7,28.4" style="fill:#fcfcfc;"/>
            <path d="M31.45,28.2L31.45,28.65L31.2,28.9L30.9,28.8L30.7,28.4L30.85,28.55L31.15,28.55L31.35,28.4L31.45,28.2" style="fill:#929590;"/>
            <path d="M30.7,28.4L30.7,28L30.95,27.8L31.2,27.85L31.4,28.05L31.45,28.2L31.35,28.4L31.15,28.55L30.85,28.55L30.7,28.4Z" style="fill:none;fill-rule:nonzero;stroke:#000;stroke-opacity:0.4;stroke-width:0.05px;"/>
            <path d="M37.7,30.55L37.65,30.4L37.7,30.15L37.9,29.9L38.05,30L38.15,30.25L38.1,30.35L38.15,30.45L38.1,30.6L37.9,30.75L37.75,30.7L37.7,30.55" style="fill:#fcfcfc;"/>
            <path d="M38.15,30.45L38.15,30.85L37.95,31.1L37.8,30.95L37.7,30.55L37.75,30.7L37.9,30.75L38.1,30.6L38.15,30.45" style="fill:#929590;"/>
            <path d="M37.75,30.7L37.65,30.4L37.7,30.15L37.9,29.9L38.05,30L38.15,30.25L38.1,30.35L38.15,30.45L38.1,30.6L37.9,30.75L37.75,30.7Z" style="fill:none;fill-rule:nonzero;stroke:#000;stroke-opacity:0.4;stroke-width:0.05px;"/>
            <path d="M37.65,26.15L37.6,26L37.65,25.75L37.85,25.5L38,25.6L38.1,25.85L38.05,25.95L38.1,26.05L38.05,26.2L37.85,26.35L37.7,26.3L37.65,26.15" style="fill:#fcfcfc;"/>
            <path d="M38.1,26.05L38.1,26.45L37.9,26.7L37.75,26.55L37.65,26.15L37.7,26.3L37.85,26.35L38.05,26.2L38.1,26.05" style="fill:#929590;"/>
            <path d="M37.7,26.3L37.6,26L37.65,25.75L37.85,25.5L38,25.6L38.1,25.85L38.05,25.95L38.1,26.05L38.05,26.2L37.85,26.35L37.7,26.3Z" style="fill:none;fill-rule:nonzero;stroke:#000;stroke-opacity:0.4;stroke-width:0.05px;"/>
            <path d="M34.1,24.05L34.35,23.75L34.85,23.65C35.017,23.717 35.183,23.817 35.35,23.95L35.6,24.4C35.367,24.133 35.1,23.983 34.8,23.95C34.533,23.917 34.367,24.25 34.3,24.95L34.1,24.35L34.1,24.05" style="fill:#fefefe;"/>
            <path d="M34.3,26.2L34.2,26.1L34,25.55L33.95,24.95L34,24.4L34.1,24.05L34.1,24.35L34.3,24.95L34.35,25.35L34.55,26L34.85,26.3L35.1,26.35L35.45,26.2L35.5,26.2L35.6,26.1L35.4,26.35L35.15,26.5L34.65,26.45L34.3,26.2" style="fill:#959693;"/>
            <path d="M35.85,25.1L35.7,25.95L35.7,26L35.5,26.2L35.45,26.2L35.1,26.35L34.85,26.3L34.55,26L34.35,25.35L34.3,24.95L34.9,25.45L35.45,25.55L35.75,25.3L35.85,25.1" style="fill:#9b2828;"/>
            <path d="M35.6,24.4L35.85,25.1L35.75,25.3L35.45,25.55L34.9,25.45L34.3,24.95C34.367,24.25 34.533,23.917 34.8,23.95C35.1,23.983 35.367,24.133 35.6,24.4" style="fill:#ad5756;"/>
            <path d="M35.7,26L35.55,26.7L35.2,26.95C35.067,26.95 34.767,26.7 34.3,26.2L34.65,26.45L35.15,26.5L35.4,26.35L35.6,26.1L35.7,26" style="fill-opacity:0.3;"/>
            <path d="M34.1,24.05L34.35,23.75L34.85,23.65C35.017,23.717 35.183,23.817 35.35,23.95L35.6,24.4L35.85,25.1L35.7,25.95L35.7,26L35.6,26.1L35.4,26.35L35.15,26.5L34.65,26.45L34.3,26.2L34.2,26.1L34,25.55L33.95,24.95L34,24.4L34.1,24.05M34.3,24.95C34.367,24.25 34.533,23.917 34.8,23.95C35.1,23.983 35.367,24.133 35.6,24.4M34.3,24.95L34.35,25.35L34.55,26L34.85,26.3L35.1,26.35L35.45,26.2L35.5,26.2L35.6,26.1" style="fill:none;fill-rule:nonzero;stroke:#000;stroke-opacity:0.3;stroke-width:0.05px;"/>
            <path d="M34.6,24.55L34.8,24.35C34.9,24.35 35,24.4 35.1,24.5L35.35,24.85L35.25,25.25L35.05,25.4L34.75,25.3L34.55,24.9C34.517,24.767 34.533,24.65 34.6,24.55" style="fill:#fff;"/>
        </g>
    </g>
</svg>
