<?xml version="1.0" encoding="UTF-8"?>
<svg version="1.1" viewBox="0 0 102.16 71.325" xmlns="http://www.w3.org/2000/svg" xmlns:cc="http://creativecommons.org/ns#" xmlns:dc="http://purl.org/dc/elements/1.1/" xmlns:rdf="http://www.w3.org/1999/02/22-rdf-syntax-ns#" xmlns:xlink="http://www.w3.org/1999/xlink">
<metadata>
<rdf:RDF>
<cc:Work rdf:about="">
<dc:format>image/svg+xml</dc:format>
<dc:type rdf:resource="http://purl.org/dc/dcmitype/StillImage"/>
</cc:Work>
</rdf:RDF>
</metadata>
<g transform="translate(-119.92 -63.825)">
<use transform="translate(123.85,63.85)" width="94.800003" height="48.150002" xlink:href="#e"/>
<use transform="matrix(-.8246 .1905 .1905 .8246 172.8 71.15)" width="6.8000002" height="31.450001" xlink:href="#a"/>
<use transform="matrix(.6941 .0085 -.0085 .6941 169.6 70.45)" width="6.8000002" height="31.450001" xlink:href="#a"/>
<use transform="matrix(.8438 .0816 -.0816 .8438 168 69.9)" width="6.8000002" height="31.450001" xlink:href="#a"/>
<use transform="matrix(-1,0,0,1,135.7,80.2)" width="6.8000002" height="31.450001" xlink:href="#a"/>
<use transform="matrix(-.9465 .3173 .3173 .9465 212.1 78.6)" width="6.8000002" height="31.450001" xlink:href="#a"/>
<use transform="matrix(.8159 -.0689 .0689 .8159 208.2 80.75)" width="6.8000002" height="31.450001" xlink:href="#a"/>
<use transform="translate(206.3,79.45)" width="6.8000002" height="31.450001" xlink:href="#a"/>
<use transform="matrix(-.8027 .2691 .2691 .8027 151.3 72.75)" width="6.8000002" height="31.450001" xlink:href="#a"/>
<use transform="matrix(.6919 -.0584 .0584 .6919 148 72.35)" width="6.8000002" height="31.450001" xlink:href="#a"/>
<use transform="matrix(.848 0 0 .848 146.35 71.95)" width="6.8000002" height="31.450001" xlink:href="#a"/>
<use transform="matrix(.9465 .3173 -.3173 .9465 129.9 79.35)" width="6.8000002" height="31.450001" xlink:href="#a"/>
<use transform="matrix(-.8159 -.0689 -.0689 .8159 133.8 81.5)" width="6.8000002" height="31.450001" xlink:href="#a"/>
<use transform="matrix(-.8293 .1685 .1685 .8293 195.55 72.75)" width="6.8000002" height="31.450001" xlink:href="#a"/>
<use transform="matrix(.6936 .0269 -.0269 .6936 192.35 71.95)" width="6.8000002" height="31.450001" xlink:href="#a"/>
<use transform="matrix(.8413 .104 -.104 .8413 190.75 71.35)" width="6.8000002" height="31.450001" xlink:href="#a"/>
<use transform="matrix(-.9465 .3173 .3173 .9465 151.05 102.85)" width="6.8000002" height="31.450001" xlink:href="#a"/>
<use transform="matrix(.8159 -.0689 .0689 .8159 147.15 105)" width="6.8000002" height="31.450001" xlink:href="#a"/>
<use transform="translate(145.25,103.7)" width="6.8000002" height="31.450001" xlink:href="#a"/>
<use transform="matrix(-.8027 .2691 .2691 .8027 213.05 96.25)" width="6.8000002" height="31.450001" xlink:href="#a"/>
<use transform="matrix(.6919 -.0584 .0584 .6919 209.75 95.85)" width="6.8000002" height="31.450001" xlink:href="#a"/>
<use transform="matrix(.848 0 0 .848 208.1 95.45)" width="6.8000002" height="31.450001" xlink:href="#a"/>
<use transform="matrix(.9465 .3173 -.3173 .9465 191.65 102.85)" width="6.8000002" height="31.450001" xlink:href="#a"/>
<use transform="matrix(-.8159 -.0689 -.0689 .8159 195.55 105)" width="6.8000002" height="31.450001" xlink:href="#a"/>
<use transform="matrix(-1,0,0,1,197.45,103.7)" width="6.8000002" height="31.450001" xlink:href="#a"/>
<use transform="matrix(-.8293 .1685 .1685 .8293 134.5 97)" width="6.8000002" height="31.450001" xlink:href="#a"/>
<use transform="matrix(.6936 .0269 -.0269 .6936 131.3 96.2)" width="6.8000002" height="31.450001" xlink:href="#a"/>
<use transform="matrix(.8413 .104 -.104 .8413 129.7 95.6)" width="6.8000002" height="31.450001" xlink:href="#a"/>
<use transform="matrix(.997 -.0747 .0747 .997 170.59 99.558)" width="10.65" height="10.35" xlink:href="#b"/>
<use transform="matrix(-.9994 -.0225 -.0225 .9994 171.75 99.502)" width="10.65" height="10.35" xlink:href="#b"/>
</g>
<defs>
<g id="e" transform="translate(-123.85,-63.85)">
<path d="m218.4 82.85-0.3 0.6 0.2-0.6v-0.05h0.1v0.05" fill="#e77d00" fill-rule="evenodd"/>
<path d="m218.4 82.85 0.1 0.4-0.05 0.1-0.05-0.5m0 0.6v-0.05h0.05l-0.05 0.05" fill="#dabcb4" fill-rule="evenodd"/>
<path d="m218.4 83.4v-0.55l0.05 0.5v0.05h-0.05l0.05-0.05-0.05 0.05m-0.1-0.55-0.5-0.05h0.5v0.05" fill="#81663a" fill-rule="evenodd"/>
<path d="m167.55 70.55q-2.2 0.85-4 1.8-2.65 1.4-4.4 2.95h-0.1q1.75-1.55 4.4-2.95 1.8-0.95 4.1-1.85v0.05" fill="#6f4335" fill-rule="evenodd"/>
<path d="m167.6 111.85h0.9l0.95 0.05-1.85-0.05" fill="#5c5c5c" fill-rule="evenodd"/>
<path d="m187.15 65.75h0.1l9.25 1.6 1.05 0.25-2.5 0.75q-0.8-0.65-1.85-0.65-0.9 0-1.6 0.45l-0.55 0.45q-0.55 0.55-0.75 1.25l-1.35 0.4q-2.7 1-4.8 2.1-2.4 1.25-4.1 2.7l-8.75-0.3h-0.75l-11.4 0.55q1.75-1.55 4.4-2.95 1.8-0.95 4-1.8l0.35 0.85 0.45 0.55q0.9 0.9 2.15 0.9l1.1-0.2 1.1-0.7 0.65-0.9 0.25-1.25-0.1-0.7v0.05l-0.15-0.45 13.8-2.95m29.4 18.55 0.15 0.3 0.05 0.2q0.15 0.35 0.7-0.2l0.95-1.2-0.65 1.2-0.65 1.1-1.8 2.45v-2.4l0.1-0.15 0.2-0.15 0.05-0.05 0.7-0.8 0.2-0.3m-33.85 27.05 1.05-0.6q6.1-0.95 11.45-2.65l1.3-0.45 5.1-2q9.3-4.25 12.45-9.7 3.55-3.35 4.35-7.2l0.05-0.35 0.2 2-0.25 2.25q-1.55 7.5-13.6 13-3.95 1.75-8.3 3.05l-1.3 0.35q-5.85 1.6-12.5 2.3" fill="#5e3d15" fill-rule="evenodd"/>
<path d="m197.55 67.6q3.8 0.9 7.25 2.15t6.05 2.6q2.85 1.5 4.7 3.2 2.45 3.8 1.95 7.2h-0.2q-0.85 0.35-0.5 0.7h-0.5l-1.45 1.15-0.15 0.15-0.15-0.15q-3.45-2.7-9.75-4.95-3.95-1.4-8.3-2.35-7.55-1.75-16.45-2.25 1.7-1.45 4.1-2.7 2.1-1.1 4.8-2.1l1.35-0.4q-0.15 0.4-0.15 0.9 0 1.25 0.9 2.15l0.95 0.65 1.2 0.25 1.25-0.25 0.9-0.65 0.45-0.55q0.45-0.7 0.45-1.6 0-1.25-0.9-2.15l-0.3-0.25 2.5-0.75m10.8 7.8-0.55 0.45q-0.9 0.9-0.9 2.15t0.9 2.15 2.15 0.9 2.15-0.9l0.45-0.55q0.45-0.7 0.45-1.6 0-1.25-0.9-2.15t-2.15-0.9q-0.9 0-1.6 0.45" fill="#a87726" fill-rule="evenodd"/>
<path d="m124.8 82.8q-0.4-3.75 1.95-7 1.85-1.85 4.95-3.45 2.1-1.1 4.75-2.1l0.2-0.1 1.05-0.4q13.65-4.85 32.85-4.95h0.75l4.05 0.05 11.8 0.9-13.8 2.95-0.7-1.05-0.55-0.45q-0.7-0.45-1.6-0.45-1.25 0-2.15 0.9t-0.9 2.15l0.1 0.7q-2.3 0.9-4.1 1.85-2.65 1.4-4.4 2.95-12 1.05-21.35 4.35-1.8 0.65-3.4 1.35 0.9-0.9 0.9-2.15t-0.9-2.15l-0.55-0.45q-0.7-0.45-1.6-0.45-1.25 0-2.15 0.9t-0.9 2.15q0 0.9 0.45 1.6l0.45 0.55q0.9 0.9 2.15 0.9h0.25q-2.85 1.4-4.75 3l-1.4-1.5-0.9-0.6h-0.55m21.5-9.6 0.45 0.55q0.9 0.9 2.15 0.9t2.15-0.9 0.9-2.15-0.9-2.15l-0.55-0.45q-0.7-0.45-1.6-0.45-1.25 0-2.15 0.9t-0.9 2.15q0 0.9 0.45 1.6" fill="#36220c" fill-rule="evenodd"/>
<path d="m197.55 67.6-1.05-0.25-9.25-1.6h-0.1l-11.8-0.9-4.05-0.05h-0.75q-19.2 0.1-32.85 4.95l-1.05 0.4-0.2 0.1q-2.65 1-4.75 2.1-3.1 1.6-4.95 3.45-2.35 3.25-1.95 7h-0.65l-0.15-1.05-0.05-0.25-0.05-0.45 0.05-0.15h-0.05q0.05-4.8 6.15-8.55 3.05-1.9 7.7-3.55 13.65-4.85 32.8-4.95h0.75l4.05 0.05q11.65 0.35 21.15 2.55 4.35 0.95 8.3 2.35 4.6 1.65 7.7 3.55l3 2.3q2.15 2.05 2.65 4.4l0.25 0.85 0.05 0.3 0.2 1.5-0.15 1.55-0.1-0.4v0.55l-0.95 1.2q-0.55 0.55-0.7 0.2l-0.05-0.2-0.15-0.3-0.25 0.05-0.3 0.25-0.65 0.65q-7.7 6.6-18.85 9.65l-1.3 0.3q-7 1.7-15.35 2.05h-8.45l-0.05-2.2 0.05 2.2h-0.85l-1.65-0.1-7.55-0.6q-9.45-0.95-16.5-2.6-12.85-3.05-17.8-8.55l-0.8-1.05-0.4-0.65-0.5-0.9 0.9 0.6 1.4 1.5q5.1 4.55 17.2 7.15 7.05 1.5 16.5 2.35l7.55 0.55 1.65 0.05 0.8 0.05h8.5q8.35-0.35 15.35-1.9l1.3-0.3q10.65-2.55 18.2-8.1l0.15-0.15 1.45-1.15h0.5q-0.35-0.35 0.5-0.7h0.2q0.5-3.4-1.95-7.2-1.85-1.7-4.7-3.2-2.6-1.35-6.05-2.6t-7.25-2.15m20.75 15.25-0.2 0.6 0.3-0.6v-0.05h-0.6l0.5 0.05m-44.8-13.7v-0.05l0.1 0.7-0.25 1.25-0.65 0.9-1.1 0.7-1.05 0.2q-1.3 0-2.15-0.9-0.9-0.9-0.9-2.15l0.1-0.7q0.15 0.8 0.8 1.45 0.85 0.85 2.15 0.9 1.25-0.05 2.1-0.85l0.05-0.05q0.6-0.65 0.8-1.4m16.8 0.7q0.2-0.7 0.75-1.25l0.55-0.45q-0.4 0.65-0.45 1.4v0.2q0 1.25 0.9 2.15t2.15 0.9q0.9 0 1.6-0.45l-0.45 0.55-0.9 0.65-1.25 0.25-1.2-0.25-0.95-0.65q-0.9-0.9-0.9-2.15 0-0.5 0.15-0.9m18.05 5.55q-0.45 0.7-0.45 1.6 0 1.25 0.9 2.15t2.15 0.9l1.6-0.45-0.45 0.55q-0.9 0.9-2.15 0.9t-2.15-0.9-0.9-2.15 0.9-2.15l0.55-0.45m-0.3 21.3 1.6 0.45q1.25 0 2.15-0.9t0.9-2.15q0-0.9-0.45-1.6l0.55 0.45q0.9 0.9 0.9 2.15t-0.9 2.15-2.15 0.9-2.15-0.9l-0.45-0.55m-16.75 7.25 1.6 0.45q1.25 0 2.15-0.9t0.9-2.15q0-0.9-0.45-1.6l0.55 0.45q0.9 0.9 0.9 2.15t-0.9 2.15-2.15 0.9-2.15-0.9l-0.45-0.55m-40.8-34.95 0.55 0.45q0.9 0.9 0.9 2.15t-0.9 2.15-2.15 0.9-2.15-0.9l-0.45-0.55q0.7 0.45 1.6 0.45 1.25 0 2.15-0.9t0.9-2.15q0-0.9-0.45-1.6m-20.95 11.45q0.7 0.45 1.6 0.45 1.25 0 2.15-0.9t0.9-2.15q0-0.9-0.45-1.6l0.55 0.45q0.9 0.9 0.9 2.15t-0.9 2.15l-1.9 0.9h-0.25q-1.25 0-2.15-0.9l-0.45-0.55m1 11.95q-0.45 0.7-0.45 1.6 0 1.25 0.9 2.15t2.15 0.9l1.6-0.45-0.45 0.55-0.9 0.65-1.25 0.25-1.2-0.25-0.95-0.65q-0.9-0.9-0.9-2.15t0.9-2.15l0.55-0.45m16.75 7.25q-0.45 0.7-0.45 1.6 0 1.25 0.9 2.15t2.15 0.9q0.9 0 1.6-0.45l-0.45 0.55q-0.9 0.9-2.15 0.9t-2.15-0.9-0.9-2.15 0.9-2.15l0.55-0.45" fill="#f3e4cd" fill-rule="evenodd"/>
<path d="m171.4 97.25h8.45q8.35-0.35 15.35-2.05l1.3-0.3q11.15-3.05 18.85-9.65l0.65-0.65 0.3-0.25 0.25-0.05-0.2 0.3-0.7 0.8-0.05 0.05-0.2 0.15-0.1 0.15v2.4l1.8-2.45 0.65-1.1 0.65-1.2v4.7l0.05 0.3-0.05 0.35q-0.8 3.85-4.35 7.2-3.15 5.45-12.45 9.7l-5.1 2-1.3 0.45q-5.35 1.7-11.45 2.65l-1.05 0.6-2.85 0.25-1 0.1-7.25 0.2v-0.95 0.95h-2.15l-0.95-0.05h-0.9l-11.7-1q-5.85-0.85-11.05-2.5l-2.25-0.75-0.75-0.3-2.2-0.9-1.95-0.75q-4.9-2.25-8.1-4.8-5.65-4.6-5.75-10.2v-9.1l0.1-0.05 0.05 0.25 0.15 1.05h1.2l0.5 0.9 0.4 0.65 0.8 1.05q4.95 5.5 17.8 8.55 7.05 1.65 16.5 2.6l7.55 0.6 1.65 0.1h0.85v1.3-1.3m0 1.3h-0.05q-5.25 0-8.95 1.8-1.4 0.65-2.2 1.45-1.45 1.3-1.45 2.95 0 1.6 1.45 2.95l2.2 1.4q3.7 1.85 8.95 1.85h0.25l1.55-0.05q3.75-0.25 6.65-1.55l0.45-0.25 0.65-0.35q3.1-1.7 3.1-4 0-2.35-3.1-4.05l-0.65-0.35-0.45-0.25q-2.9-1.25-6.65-1.5l-1.75-0.05m40.85-6.05q-0.7-0.45-1.6-0.45-1.25 0-2.15 0.9t-0.9 2.15q0 0.9 0.45 1.6l0.45 0.55q0.9 0.9 2.15 0.9t2.15-0.9 0.9-2.15-0.9-2.15l-0.55-0.45m-20.95 11.45 0.45 0.55q0.9 0.9 2.15 0.9t2.15-0.9 0.9-2.15-0.9-2.15l-0.55-0.45q-0.7-0.45-1.6-0.45-1.25 0-2.15 0.9t-0.9 2.15q0 0.9 0.45 1.6m-56.55-7.35q0.45-0.7 0.45-1.6 0-1.25-0.9-2.15t-2.15-0.9q-0.9 0-1.6 0.45l-0.55 0.45q-0.9 0.9-0.9 2.15t0.9 2.15l0.95 0.65 1.2 0.25 1.25-0.25 0.9-0.65 0.45-0.55m16.75 7.25q0.45-0.7 0.45-1.6 0-1.25-0.9-2.15t-2.15-0.9q-0.9 0-1.6 0.45l-0.55 0.45q-0.9 0.9-0.9 2.15t0.9 2.15 2.15 0.9 2.15-0.9l0.45-0.55" fill="#d1a02e" fill-rule="evenodd"/>
<path d="m171.6 110.95h-0.25q-5.25 0-8.95-1.85l-2.2-1.4q-1.45-1.35-1.45-2.95 0-1.65 1.45-2.95 0.8-0.8 2.2-1.45 3.7-1.8 8.95-1.8h0.05l1.75 0.05q3.75 0.25 6.65 1.5l0.45 0.25 0.65 0.35q3.1 1.7 3.1 4.05 0 2.3-3.1 4l-0.65 0.35-0.45 0.25q-2.9 1.3-6.65 1.55l-1.55 0.05" fill="#e1bb7d" fill-rule="evenodd"/>
<path d="m214.7 84.75q-7.55 5.55-18.2 8.1l-1.3 0.3q-7 1.55-15.35 1.9h-8.5l-0.8-0.05-1.65-0.05-7.55-0.55q-9.45-0.85-16.5-2.35-12.1-2.6-17.2-7.15m90.75-2.1v0.05l0.1 0.4 0.15-1.55-0.2-1.5-0.05-0.3-0.25-0.85q-0.5-2.35-2.65-4.4l-3-2.3q-3.1-1.9-7.7-3.55-3.95-1.4-8.3-2.35-9.5-2.2-21.15-2.55l-4.05-0.05h-0.75q-19.15 0.1-32.8 4.95-4.65 1.65-7.7 3.55-6.1 3.75-6.15 8.55m0 0.15 0.05 0.45m35.2-6.2 11.4-0.55h0.75l8.75 0.3m-21 0.25h0.1m12.45 36.6 7.25-0.2 1-0.1 2.85-0.25q6.65-0.7 12.5-2.3l1.3-0.35q4.35-1.3 8.3-3.05 12.05-5.5 13.6-13l0.25-2.25-0.2-2-0.05-0.3v-4.7m-3.7 1.35-0.15-0.15q-3.45-2.7-9.75-4.95-3.95-1.4-8.3-2.35-7.55-1.75-16.45-2.25m38.45 8.2-0.05 0.1v0.05l-0.05 0.05m0.05-0.1-0.05 0.05m0.05-0.05-0.05-0.5m-50.8 29h0.9l0.95 0.05h2.15m-2.15 0-1.85-0.05-11.7-1q-5.85-0.85-11.05-2.5l-2.25-0.75-0.75-0.3-2.2-0.9-1.95-0.75q-4.9-2.25-8.1-4.8-5.65-4.6-5.75-10.2v-9.1l0.1-0.05m8.45 0.4 1.9-0.9m24.75-5.7q-12 1.05-21.35 4.35-1.8 0.65-3.4 1.35m-1.9 0.9q-2.85 1.4-4.75 3" fill="none" stroke="#000" stroke-linecap="round" stroke-linejoin="round" stroke-opacity=".50196" stroke-width=".05"/>
<path d="m171.35 95.05 0.05 2.2m0 1.3v-1.3m0.2 13.7v0.95" fill="none" stroke="#000" stroke-linecap="round" stroke-linejoin="round" stroke-opacity=".50196" stroke-width=".25"/>
</g>
<g id="a">
<use width="6.8000002" height="31.450001" xlink:href="#d"/>
</g>
<g id="d">
<path d="m1.8 11 1.25 1.65v1.35l-1-0.85-0.25-2.15" fill="#815a1d" fill-rule="evenodd"/>
<path d="m1 0.55 0.55-0.2 0.1-0.05 0.05-0.05 0.35-0.1 0.1-0.05 0.05-0.05 0.3-0.05h1l0.05 0.05 0.25 0.1v0.05l0.1 0.05 0.05 0.05 0.1 0.25h-0.35l-0.15 0.05-0.4 0.2-0.15 0.05-0.05 0.05-0.3 0.2-0.1 0.1-0.1 0.05-0.3 0.25-0.3-0.2-0.25-0.25h-0.05l-0.55-0.5m2 9.85 0.65-0.9q1.45-1.9 1.65-3.35l1.5 0.25q-1.9 4.15-3.7 5.55l-0.1-1.55" fill="#e1bb7d" fill-rule="evenodd"/>
<path d="m2.15 1.5 0.85 8.9 0.1 1.55q0.4 7.75-0.4 12.8-0.65 4.05-1.65 5.05l-1.05 1.65q2.45-5.5 1.95-18.65l-0.15-1.8-0.85-10.45h0.05l0.55 0.5h0.05l0.25 0.25 0.3 0.2m-0.35 9.5 0.25 2.15 1 0.85v-1.35l-1.25-1.65" fill="#dcaf65" fill-rule="evenodd"/>
</g>
<g id="b" transform="translate(.1 .1)">
<use transform="translate(-.1 -.1)" width="10.65" height="10.35" xlink:href="#c"/>
</g>
<g id="c" transform="translate(.1 .1)">
<path d="m0.05 6.5v-5.45h0.7q2.2 0.1 4.25 0.85l1.2 0.5 0.5 0.25v0.05q-0.2 1-1.25 1.9l-0.25 0.25-0.25 0.2-1.05 0.55-0.25 0.05-0.2 0.15-0.9 0.3-1.4 0.25-1.1 0.15m0.1-6.2 0.7-0.3h0.3l0.5 0.05q1.7 0.25 3.3 0.9l0.3 0.15 1.15 0.5 1.05 0.65 0.15 0.1-0.8-0.45-0.1-0.05-1.25-0.5q-2.3-0.9-4.75-1.05h-0.55" fill="#b40101" fill-rule="evenodd"/>
<path d="m8.5 2.45 0.9 0.9 0.4 0.5 0.3 0.5v0.05l0.05 0.05 0.05 0.15q0.35 0.8 0.2 1.55l-0.25 0.75-0.05 0.05h-0.05l-0.25 0.4-0.65 0.7-0.85 0.65-0.05-0.05 0.05-0.05 0.2-0.15 0.3-0.2 0.6-0.6 0.35-0.65h0.05q0.5-1.15-0.1-2.4l-0.8-1.2-1.3-1.05-0.15-0.1-1.05-0.65-1.15-0.5-0.3-0.15q-1.6-0.65-3.3-0.9l-0.5-0.05 0.75 0.05 0.65 0.1q1.65 0.25 3.2 0.9l0.35 0.1 1.2 0.55 1 0.6 0.2 0.15m-8.5 5.15v-1.1h0.05l1.1-0.15 1.4-0.25 0.9-0.3 0.2-0.15 0.25-0.05 1.05-0.55 0.25-0.2 0.25-0.25q1.05-0.9 1.25-1.9l1.4 1 0.75 1q0.65 1.3-0.2 2.45l-1.2 0.1-2.2 0.2-5.25 0.15" fill="#5e0202" fill-rule="evenodd"/>
<path d="m0 9.35v-1.75l5.25-0.15 2.2-0.2 1.2-0.1-0.65 0.65-0.5 0.3-0.9 0.5-0.25 0.15h-0.15l-0.9 0.3-1.2 0.25-0.5 0.05-0.6 0.05h-0.3l-1.7 0.05h-0.05l-0.2-0.05h-0.65l-0.05-0.05h-0.05" fill="#160101" fill-rule="evenodd"/>
<path d="m0.05 1.05v-0.75h0.65q2.45 0.15 4.75 1.05l1.25 0.5v0.8l-0.5-0.25-1.2-0.5q-2.05-0.75-4.25-0.85h-0.7" fill="#fc0303" fill-rule="evenodd"/>
<path d="m5.8 9.7-0.65 0.15-0.65 0.1h-0.05l-0.6 0.15h-0.65l-0.25 0.05h-2.3l-0.55-0.05h-0.1v-0.75h0.05l0.05 0.05h0.65l0.2 0.05h0.05l1.7-0.05h0.3l0.6-0.05 0.5-0.05 1.2-0.25 0.9-0.3h0.15l0.25-0.15 0.9-0.5 0.5-0.3 0.65-0.65q0.85-1.15 0.2-2.45l-0.75-1-1.4-1v-0.85l0.05 0.05 0.8 0.45 1.3 1.05 0.85 1.2q0.6 1.25 0.05 2.4h-0.05l-0.9 1.25-0.6 0.4-1.05 0.55-0.2 0.15-0.25 0.05-0.9 0.3" fill="#aa0404" fill-rule="evenodd"/>
<path d="m8.5 2.45 0.9 0.9 0.4 0.5 0.3 0.5v0.05l0.05 0.05 0.05 0.15q0.35 0.8 0.2 1.55l-0.25 0.75-0.05 0.05m-0.05 0-0.25 0.4-0.65 0.7-0.85 0.65-0.4 0.2-0.15 0.1-0.3 0.15-0.25 0.05-0.25 0.15-0.2 0.05-0.9 0.3h-0.05l-0.65 0.15-0.65 0.1h-0.05l-0.6 0.15h-0.65l-0.25 0.05h-2.3l-0.55-0.05h-0.1v-3.6m0.05 0v-1.45m0-0.05v-4.7h0.1l0.7-0.3h0.3l0.75 0.05 0.65 0.1q1.65 0.25 3.2 0.9l0.35 0.1 1.2 0.55 1 0.6m-8.2 7.1-0.05-0.05h-0.05" fill="none" stroke="#000" stroke-linecap="round" stroke-linejoin="round" stroke-opacity=".50196" stroke-width=".25"/>
</g>
</defs>
</svg>
