<?xml version="1.0" encoding="UTF-8"?>
<svg version="1.1" viewBox="0 0 102.98 140.87" xmlns="http://www.w3.org/2000/svg" xmlns:cc="http://creativecommons.org/ns#" xmlns:dc="http://purl.org/dc/elements/1.1/" xmlns:rdf="http://www.w3.org/1999/02/22-rdf-syntax-ns#" xmlns:xlink="http://www.w3.org/1999/xlink">
<metadata>
<rdf:RDF>
<cc:Work rdf:about="">
<dc:format>image/svg+xml</dc:format>
<dc:type rdf:resource="http://purl.org/dc/dcmitype/StillImage"/>
</cc:Work>
</rdf:RDF>
</metadata>
<g transform="translate(-223.48 -129.54)">
<use transform="matrix(1.1411 0 0 1.1411 223.48 129.54)" width="90.25" height="123.45" xlink:href="#a"/>
</g>
<defs>
<g id="a" transform="translate(45.15,61.7)">
<use transform="translate(-45.15,-61.7)" width="90.25" height="123.45" xlink:href="#b"/>
</g>
<g id="b" transform="translate(45.15,61.7)">
<path d="m-43.65-57.1 2.15-2.85h5.4q5.6 3.2 11.05 4.55l9.15-1.65q2.85-2.05 5.75-4.15h5.4q2.75 1.15 3.15 7l0.9 8.95q0.65 6.3 1.55 12.35-1.6-5.2-2.65-12.35-0.85-5.4-1.35-11.95l-2.25 4.25q-3.75 4.1-8.15 5.1l-4.3-0.1q-6.6-0.65-14.4-4.25l-3.3-4-1.9-2.35-2.75-0.4-3.45 1.85m21.1 2.25-2.5-0.55 2.5 0.55 4.7 0.45 5.15-0.4 2.7-1.1q3.1-2.25 2.05-3.75h-2.55l-4.6 3.15-7.45 1.65" fill="url(#k)" fill-rule="evenodd"/>
<path d="m-28.2-4.05q-5.3-21.75-7.9-46.1-0.6-3.8-2.45-5.6l-1.95 2.5h-4.15v-2.55l1-1.3 3.45-1.85 2.75 0.4 1.9 2.35q1.35 1.9 1.6 5.4 1.3 22.95 6.45 42.7l-0.7 4.05m-10.35-51.7-1.35-1q-1.6 0.75-3.2 1.55 1.6-0.8 3.2-1.55l1.35 1" fill="url(#j)" fill-rule="evenodd"/>
<path d="m42.75 32.15 1.5 9.6-19.5-1 5-2 1.65-1.3q-18.75-6.75-31.85-22.05l-0.9 2.5q-1.55 17.8 2.95 32v1.4l4.95-2.2-1.75 9.95-16.05-6.95h3.3l2.4 1.25q-8.7-16.4-15.35-38.35l1.9-4.95 2.85 13 1.95-5.4 3.45 12.65v-15.2q4.25-14.25 8.55-18.3v-4.15l-11.75 8.85v-18l-4.7 7.25v-5.05l-2.9 3.8-2.8-15.2-3.15 17.6q-5.15-19.75-6.45-42.7-0.25-3.5-1.6-5.4l3.3 4q7.8 3.6 14.4 4.25l4.3 0.1q4.4-1 8.15-5.1l2.25-4.25q0.5 6.55 1.35 11.95 1.05 7.15 2.65 12.35l0.05 0.4 0.3 1.95-5.25 1.95-14.8-7.85q-3.45-5.65-8.1-8.85l0.7 3.2-4.65-6.2 4.15 9.2-0.8 1.75 3.5 2.35 13.15 17.5 19.2 19.05q6.45 18.1 28 34.25l2.45-0.2 4-3.45" fill="url(#i)" fill-rule="evenodd"/>
<path d="m-22.55-54.85 7.45-1.65 4.6-3.15h2.55q1.05 1.5-2.05 3.75l-2.7 1.1-5.15 0.4-4.7-0.45" fill="url(#h)" fill-rule="evenodd"/>
<path d="m2-25.5q1.7 10.7 4 20.65 1.5 3.75 3.3 7.35l-1-0.95-19.2-19.05-13.15-17.5 3.5 2.35h3.75q-0.95-2.05-2.05-3.8l14.8 7.85-2.95 1.05 6.65 3.1 2.35-1.05" fill="url(#g)" fill-rule="evenodd"/>
<path d="m1.7-27.15 0.3 1.65-2.35 1.05-6.65-3.1 2.95-1.05 5.75 1.45m-20.55-9.3q1.1 1.75 2.05 3.8h-3.75l-3.5-2.35-2.7-4.1 0.8-1.75-0.3-1.25 7.4 5.65" fill="#fed328" fill-rule="evenodd"/>
<path d="m1.2-30.55 0.5 3.4-5.75-1.45 5.25-1.95m-28.7 22.45 3.15-17.6 2.8 15.2 2.9-3.8v5.05l4.7-7.25v18l11.75-8.85v4.15q-4.3 4.05-8.55 18.3v15.2l-3.45-12.65-1.95 5.4-2.85-13-1.9 4.95q-4-9.65-6.6-23.1m3.45-26.9-3.5-2.35 0.8-1.75 2.7 4.1m-2.2-7.1-0.7-3.2q4.65 3.2 8.1 8.85l-7.4-5.65" fill="#c69e01" fill-rule="evenodd"/>
<path d="m9.3 2.5q9.2 18.2 27.05 31.85l6-4.5 0.4 2.3-4 3.45-2.45 0.2q-21.55-16.15-28-34.25l1 0.95m-36.05-41.6-4.15-9.2 4.65 6.2 0.3 1.25-0.8 1.75" fill="#0054a8" fill-rule="evenodd"/>
<path d="m-22 17.85q-3.45-10.6-6.2-21.9l0.7-4.05q2.6 13.45 6.6 23.1l-1.1 2.85" fill="#765f01" fill-rule="evenodd"/>
<path d="m44.25 41.75 0.35 2.1-23-1.85 3.15-1.25 19.5 1" fill="url(#f)" fill-rule="evenodd"/>
<path d="m1.6 49.9 5.2-2.1-0.25 1.3-4.95 2.2v-1.4" fill="#048" fill-rule="evenodd"/>
<path d="m29.75 38.75q-19.15-7.4-31.1-20.85l0.9-2.5q13.1 15.3 31.85 22.05l-1.65 1.3" fill="url(#e)" fill-rule="evenodd"/>
<path d="m4.8 59.05-0.4 2.2-18.95-9.15h3.3l16.05 6.95" fill="url(#d)" fill-rule="evenodd"/>
<path d="m-7.95 52.1q-8.1-16.1-14.05-34.25l1.1-2.85q6.65 21.95 15.35 38.35l-2.4-1.25" fill="url(#c)" fill-rule="evenodd"/>
<path d="m1.2-30.55 0.5 3.4 0.3 1.65q1.7 10.7 4 20.65 1.5 3.75 3.3 7.35 9.2 18.2 27.05 31.85l6-4.5 0.4 2.3 1.5 9.6 0.35 2.1-23-1.85 3.15-1.25 5-2q-19.15-7.4-31.1-20.85-1.55 17.8 2.95 32l5.2-2.1-0.25 1.3-1.75 9.95-0.4 2.2-18.95-9.15h6.6q-8.1-16.1-14.05-34.25-3.45-10.6-6.2-21.9-5.3-21.75-7.9-46.1-0.6-3.8-2.45-5.6l-1.95 2.5h-4.15v-2.55l1-1.3 2.15-2.85h5.4q5.6 3.2 11.05 4.55l9.15-1.65q2.85-2.05 5.75-4.15h5.4q2.75 1.15 3.15 7l0.9 8.95q0.65 6.3 1.55 12.35m0.05 0.4 0.3 1.95-5.25 1.95-2.95 1.05 6.65 3.1 2.35-1.05m-27.05-29.9 2.5 0.55m9.85 0.05-5.15 0.4-4.7-0.45m-20.55-0.35q1.6-0.8 3.2-1.55l1.35 1m11.05 47.65 3.15-17.6 2.8 15.2 2.9-3.8v5.05l4.7-7.25v18l11.75-8.85v4.15q-4.3 4.05-8.55 18.3v15.2l-3.45-12.65-1.95 5.4-2.85-13-1.9 4.95-1.1 2.85m3.15-54.3q1.1 1.75 2.05 3.8h-3.75l-7-4.7 0.8-1.75m0.5-3-0.7-3.2q4.65 3.2 8.1 8.85m-7.4-5.65 0.3 1.25-0.8 1.75m-1.45 35.05 0.7-4.05" fill="none" stroke="#000" stroke-linecap="round" stroke-linejoin="round" stroke-opacity=".4" stroke-width=".5"/>
<path d="m6-4.85q1.5 3.75 3.3 7.35 9.2 18.2 27.05 31.85l6-4.5 2.25 14-23-1.85 8.15-3.25q-19.15-7.4-31.1-20.85-1.55 17.8 2.95 32l5.2-2.1-2.4 13.45-18.95-9.15h6.6q-8.1-16.1-14.05-34.25-3.45-10.6-6.2-21.9-5.3-21.75-7.9-46.1-0.6-3.8-2.45-5.6l-1.95 2.5h-4.15v-2.55l3.15-4.15h5.4q5.6 3.2 11.05 4.55l9.15-1.65q2.85-2.05 5.75-4.15h5.4q2.75 1.15 3.15 7l0.9 8.95q0.65 6.3 1.55 12.35l0.05 0.4 0.3 1.95 0.5 3.4 0.3 1.65q1.7 10.7 4 20.65z" fill="none" stroke="#000" stroke-linecap="round" stroke-linejoin="round" stroke-opacity=".4"/>
</g>
<linearGradient id="k" x1="-819.2" x2="819.2" gradientTransform="matrix(.0136 .0036 -.004 .0153 -20.15 -51.85)" gradientUnits="userSpaceOnUse">
<stop stop-color="#0054a8" offset=".0078431"/>
<stop stop-color="#048" offset="1"/>
</linearGradient>
<linearGradient id="j" x1="-819.2" x2="819.2" gradientTransform="matrix(.0024 .0246 -.0077 7e-4 -36.5 -35.15)" gradientUnits="userSpaceOnUse">
<stop stop-color="#012343" offset=".0078431"/>
<stop stop-color="#001a33" offset="1"/>
</linearGradient>
<linearGradient id="i" x1="-819.2" x2="819.2" gradientTransform="matrix(.0072 .0272 -.034 .009 -1.95 -24.3)" gradientUnits="userSpaceOnUse">
<stop stop-color="#036" offset=".0078431"/>
<stop stop-color="#012343" offset="1"/>
</linearGradient>
<linearGradient id="h" x1="-819.2" x2="819.2" gradientTransform="matrix(.0055 -.0032 .0016 .0028 -12 -57.85)" gradientUnits="userSpaceOnUse">
<stop stop-color="#036" offset=".0078431"/>
<stop stop-color="#012343" offset="1"/>
</linearGradient>
<linearGradient id="g" x1="-819.2" x2="819.2" gradientTransform="matrix(.0103 .0103 -.0064 .0064 -6.65 -23.8)" gradientUnits="userSpaceOnUse">
<stop stop-color="#0054a8" offset=".0078431"/>
<stop stop-color="#048" offset="1"/>
</linearGradient>
<linearGradient id="f" x1="-819.2" x2="819.2" gradientTransform="matrix(.014 0 0 .0019 33.1 42.3)" gradientUnits="userSpaceOnUse">
<stop stop-color="#012343" offset=".0078431"/>
<stop stop-color="#001a33" offset="1"/>
</linearGradient>
<linearGradient id="e" x1="-819.2" x2="819.2" gradientTransform="matrix(.02 0 0 .0143 15 27.05)" gradientUnits="userSpaceOnUse">
<stop stop-color="#012343" offset=".0078431"/>
<stop stop-color="#001a33" offset="1"/>
</linearGradient>
<linearGradient id="d" x1="-819.2" x2="819.2" gradientTransform="matrix(.0118 0 0 .0056 -4.9 56.65)" gradientUnits="userSpaceOnUse">
<stop stop-color="#012343" offset=".0078431"/>
<stop stop-color="#001a33" offset="1"/>
</linearGradient>
<linearGradient id="c" x1="-819.2" x2="819.2" gradientTransform="matrix(.0059 .0103 -.0038 .0022 -18.2 26.9)" gradientUnits="userSpaceOnUse">
<stop stop-color="#012343" offset=".0078431"/>
<stop stop-color="#001a33" offset="1"/>
</linearGradient>
</defs>
</svg>
