<?xml version="1.0" encoding="UTF-8"?>
<svg version="1.1" viewBox="0 0 112.87 77.127" xmlns="http://www.w3.org/2000/svg" xmlns:cc="http://creativecommons.org/ns#" xmlns:dc="http://purl.org/dc/elements/1.1/" xmlns:rdf="http://www.w3.org/1999/02/22-rdf-syntax-ns#" xmlns:xlink="http://www.w3.org/1999/xlink">
<metadata>
<rdf:RDF>
<cc:Work rdf:about="">
<dc:format>image/svg+xml</dc:format>
<dc:type rdf:resource="http://purl.org/dc/dcmitype/StillImage"/>
</cc:Work>
</rdf:RDF>
</metadata>
<g transform="translate(-219.05 -174.34)">
<use transform="matrix(.4651 0 0 .4651 217.48 174.35)" width="246.05" height="167.8" xlink:href="#d"/>
</g>
<defs>
<g id="d" transform="translate(1.45)">
<use transform="translate(12.65)" width="231.95" height="131.14999" xlink:href="#h"/>
<use transform="translate(-1.45,40.1)" width="129.39999" height="127.7" xlink:href="#c"/>
</g>
<g id="h" transform="translate(-12.65)">
<path d="m239.95 44.2v0.05q-4.15 10.75-13.9 17.3-9.8 6.5-17.25 9.3-15.4 5.8-33.9 8.75l-2.45 0.4-1.3 0.15-0.65 0.1-29.8 2.3h-1.3l-1.2 0.05h-8.95l-0.85-0.05-9.3-0.3-4.5-0.25-47.9 22.8h7.2q6.1 8.4-12 10.8h8.4l32.65 13.8q-22.95-3.4-48.85-13.15-5.05-1.9-9.75-4.8-8.55-5.3-16.15-13.85l-0.2-0.2q-2.75-2.9-4.9-5.9-8.25-11.15-10-22.85-1.7-11.35 2.7-23.2 2.3-6.15 6.2-12.4-0.4 0.9 0.3 2.5 0.8 1.8 0.75 2.5l-0.05 0.15-0.05 0.5-0.05 1.3 0.05 1.3 0.1 0.75q1.3 11.35 17.95 20.35l4.6 2.3q3.9 1.85 8.5 3.55 16.4 6.2 36.4 9.15l24.1 2.25 9.3 0.3h0.2l0.65 0.05-0.65-0.05 0.65 0.05h8.95l0.8-0.05h1.7l8.7-0.7h0.15l0.45-0.05h0.35l20.15-1.55 0.65-0.1 1.3-0.15q19.95-2.95 36.35-9.15 7.45-2.8 13.15-5.85 17.15-9.3 18-21.1l0.05-1.3-0.05-1.3q-15.75-21.85-52.35-30.1-34.45-9.9 7.6-1.3 7.05 1.95 13.6 4.4 24.45 9.2 32.55 21.35 0.7 5.7 3.1 11.15m-125.35 36.65v-1.2 1.2m-101.5-12.2 2.7-23.2-2.7 23.2" fill="#bb8044" fill-rule="evenodd"/>
<path d="m174.9 79.6q18.5-2.95 33.9-8.75 7.45-2.8 17.25-9.3 9.75-6.55 13.9-17.3v-0.05 0.05q2.6 6 3.75 11.8 2.1 10.75-0.8 20.7-3.25 10.8-12.5 20.65l-0.2 0.2q-11.85 13.4-25.9 18.65-18.45 6.95-35.4 10.7 42.5-28.15 6-47.35m23.4 29.2q27.1-10.6 44.6-32.05-17.5 21.45-44.6 32.05m-6.4-24q34-8.15 51.8-28.75-17.8 20.6-51.8 28.75" fill="url(#k)" fill-rule="evenodd"/>
<path d="m235.45 41.3q-0.85 11.8-18 21.1-5.7-3.1-13.15-5.9-15.2-5.7-33.5-8.6 39.95-14.9-16.45-42.85l-9.95-0.65-9.9-0.35-5.2-0.05h-0.2l-5.2 0.05q-40.6 0.65-69.8 11.65-24.45 9.2-29.7 21.35-1.1 2.45-1.35 5l-0.1-0.75v-2.6l0.05-0.5 0.05-0.15q0.05-0.7-0.75-2.5-0.7-1.6-0.3-2.5 4.75-11.05 32.1-21.35 29.2-11 69.8-11.65l5.2-0.05h0.2l5.2 0.05 9.9 0.35 9.95 0.65q19.7 1.7 36.35 6.25-42.05-8.6-7.6 1.3 36.6 8.25 52.35 30.1v2.6" fill="#86683e" fill-rule="evenodd"/>
<path d="m174.9 79.6q36.5 19.2-6 47.35-18.05 3.9-34.4 4.2h-10.6q-10.15-0.2-20.95-1.75l-32.65-13.8h-8.4q18.1-2.4 12-10.8h-7.2l47.9-22.8 4.5 0.25 9.3 0.3 0.85 0.05h8.95l1.2-0.05h1.3l29.8-2.3 0.65-0.1 1.3-0.15 2.45-0.4" fill="url(#j)" fill-rule="evenodd"/>
<path d="m23.05 42.05q0.25-2.55 1.35-5 5.25-12.15 29.7-21.35 29.2-11 69.8-11.65l5.2-0.05h0.2l5.2 0.05 9.9 0.35 9.95 0.65q56.4 27.95 16.45 42.85-16.85-2.75-36.3-3.05l-5.2-0.05h-0.2l-5.2 0.05q-40.6 0.65-69.8 11.65-7.45 2.8-13.1 5.9-16.65-9-17.95-20.35" fill="#685231" fill-rule="evenodd"/>
<path d="m168.9 126.95q16.95-3.75 35.4-10.7 14.05-5.25 25.9-18.65l0.2-0.2q9.25-9.85 12.5-20.65m-7.45-38.05 0.05 1.3-0.05 1.3q-0.85 11.8-18 21.1-5.7 3.05-13.15 5.85-16.4 6.2-36.35 9.15l-1.3 0.15-0.65 0.1-20.15 1.55m-0.25 0h-0.1m-0.45 0.05h-0.15l-8.7 0.7h-1.7l-0.8 0.05h-8.95l-0.65-0.05h-0.2l-9.3-0.3v1.2m76.1-73.55q-16.65-4.55-36.35-6.25l-9.95-0.65-9.9-0.35-5.2-0.05h-0.2l-5.2 0.05q-40.6 0.65-69.8 11.65-27.35 10.3-32.1 21.35m0.95 5.65v2.6l0.1 0.75q1.3 11.35 17.95 20.35 5.65-3.1 13.1-5.9 29.2-11 69.8-11.65l5.2-0.05h0.2l5.2 0.05q19.45 0.3 36.3 3.05 18.3 2.9 33.5 8.6 7.45 2.8 13.15 5.9m22.5-18.2v0.05q2.6 6 3.75 11.8 2.1 10.75-0.8 20.7m-52.2-69.45q7.05 1.95 13.6 4.4 24.45 9.2 32.55 21.35 0.7 5.7 3.1 11.15m-137 85.2q10.8 1.55 20.95 1.75h10.6q16.35-0.3 34.4-4.2m-127.9-64.55 4.6 2.3q3.9 1.85 8.5 3.55 16.4 6.2 36.4 9.15l24.1 2.25m21.6 0.3h-1.3m-31.95 49.45q-22.95-3.4-48.85-13.15-5.05-1.9-9.75-4.8-8.55-5.3-16.15-13.85l-0.2-0.2q-2.75-2.9-4.9-5.9-8.25-11.15-10-22.85-1.7-11.35 2.7-23.2 2.3-6.15 6.2-12.4" fill="none" stroke="#000" stroke-linecap="round" stroke-linejoin="round" stroke-opacity=".35294" stroke-width=".05"/>
<path d="m242.9 76.75q-17.5 21.45-44.6 32.05m45.4-52.75q-17.8 20.6-51.8 28.75m-176.1-39.35-2.7 23.2" fill="none" stroke="#fff" stroke-linecap="round" stroke-linejoin="round" stroke-opacity=".35294" stroke-width=".05"/>
</g>
<linearGradient id="k" x1="-819.2" x2="819.2" gradientTransform="matrix(.1352 0 0 .0599 133.8 82.1)" gradientUnits="userSpaceOnUse">
<stop stop-color="#835a1f" offset=".36078"/>
<stop stop-color="#9c6938" offset="1"/>
</linearGradient>
<linearGradient id="j" x1="-819.2" x2="819.2" gradientTransform="matrix(.1352 0 0 .0599 133.8 82.1)" gradientUnits="userSpaceOnUse">
<stop stop-color="#674718" offset=".63529"/>
<stop stop-color="#9c6938" offset="1"/>
</linearGradient>
<g id="c" transform="translate(-3.45 .7)">
<use transform="translate(23.25,9.4)" width="109.6" height="101.8" xlink:href="#g"/>
<use transform="matrix(.2608 .3084 .1261 -.1962 20.416 85.122)" width="77.050003" height="214.35001" xlink:href="#a"/>
<use transform="matrix(.2608 .5509 .1754 -.1272 7.1258 64.203)" width="77.050003" height="214.35001" xlink:href="#a"/>
<use transform="matrix(-.3684 .0502 -.058 -.2695 68.766 105.84)" width="77.050003" height="214.35001" xlink:href="#a"/>
<use transform="matrix(-.5079 .3686 -.1813 -.2498 101.94 98.622)" width="77.050003" height="214.35001" xlink:href="#a"/>
<use transform="matrix(-.2145 -.2145 .211 -.2181 44.294 77.163)" width="190.35001" height="169.8" xlink:href="#b"/>
</g>
<g id="g" transform="translate(-23.25,-9.4)">
<path d="m72.95 31.35-0.05 0.05-0.1-0.05h0.15m-10.25-17.65 0.1 0.1h-0.05l-0.05-0.1m-19.05 75.55v0.1l-0.15-0.1h0.15" fill="#b5a179" fill-rule="evenodd"/>
<path d="m53.35 37.35 0.85 0.55 1.35 0.8-0.4 0.2-1.8-1.55m-14.25 29.8 1.8 0.3-0.7 0.3-0.15 0.05-1.15-0.6-0.95-0.55 1.15 0.5m6.9 39.7-0.15-0.1 0.05-0.05 0.1 0.15m-4.7-3.5q-2.15-1.85-4.15-4.2l1.05 1.1 3.1 3v0.1m3.35-33.35 1.35 0.55 0.1 0.25-1.45-0.8m-4.25 17.8 0.25 0.05v0.1l-0.05 0.45-1.95-1.15 1.75 0.55m-2.75 6.1 0.1-1.45h0.05l0.8 0.85q-0.45 0.2-0.95 0.6" fill="#8f7f5f" fill-rule="evenodd"/>
<path d="m82.15 22.75 0.15 0.6-0.1-0.15-0.2-0.35 0.15-0.1m-46.85 41.95 2.6 1.8 1.2 0.65-1.15-0.5-0.15-0.1-2.65-1.7 0.15-0.15m4.9 3.05q2.7 1.35 6.45 2.75h0.05l7.75 3.05-7.9-2.75-0.25-0.1-0.3-0.15 0.3 0.15-0.2 0.1-0.1-0.25-1.35-0.55-1.85-0.85-0.65-0.3-2.1-1.05 0.15-0.05m56.7-5.35-0.3-6.8 0.25 5 0.05 1.8m-51.05 44.35-0.5-0.35-4.05-3.05v-0.1l-3.1-3-1.05-1.1 0.05-0.25 1 1.15 3.25 3.05 3.85 3.25 0.55 0.4m-15.6-17.65-0.05-0.1 0.05 0.05v0.05m2.95-68.3-0.05-0.1 0.4-0.15-0.35 0.25m7.45 67.15 3 1.3h-0.15l0.15 0.1 0.4 0.3 1.95 1.5 2.85 2.05 0.35 0.25-5.9-3.45-2.7-1.6 0.05-0.45" fill="#f2e4c1" fill-rule="evenodd"/>
<path d="m82 22.85 0.2 0.35 0.1 0.15q0.5 1 0.5 2.2 0 2.5-2.3 4.25-2.2 1.7-5.7 1.75l-1.85-0.2h-0.15l0.05-0.05q-1.65-1.6-1.65-3.75 0-2.5 2.25-4.25 1.05-0.8 2.3-1.2l3.25-0.55 2.05 0.2 0.95 1.1m-18.8-8.4 0.45 1.1 0.15 1.25q0 2.05-1.5 3.5-1.45 1.5-3.5 1.5-1-1.3-1-3t1-3l0.45-0.55 1.15-0.85q1.05-0.6 2.35-0.6h0.05l0.4 0.65" fill="#fef7e0" fill-rule="evenodd"/>
<path d="m62.7 13.7 0.5 0.75-0.4-0.65-0.1-0.1m-25.1 80.2h0.05v0.05l-0.05-0.05m0.15-1.45v-0.05l0.05 0.05h-0.05m6.65 5.95-2.75-1.8 0.15-0.2 0.05-0.15 0.05 0.05 0.35 0.25 2 1.7 0.15 0.15" fill="#fff" fill-rule="evenodd"/>
<path d="m82.15 22.75-0.15 0.1-0.95-1.1-0.5-0.4-0.05-0.05q-1.15-0.9-2.55-1.3l-0.1-0.05-0.8-0.2-2.05-0.2q-1.75 0-3.25 0.55-1.25 0.4-2.3 1.2-2.25 1.75-2.25 4.25 0 2.15 1.65 3.75l0.1 0.05 0.5 0.45q1.5 1.15 3.35 1.55l0.1 0.05q15.05 11.75-10.5 9.75-3.05-0.25-6.85-2.45l-1.35-0.8-0.85-0.55-2.75-1.95-4.6-3.35-0.1-10.05q0.45 10 11.8 5l16.8-15.95q6 2.45 10.2 8.5h0.05l1.3 1.95q-5.65-6.65-4.1 0.5l0.2 0.75m-30.55 25.25q-27 8.15-16.3 16.7l-0.15 0.15-3.25-2.65q-1.7-1.6-2.8-3.25l-1.7-2.8 0.3-3.3q0.15-2.3 2.65-10.5 1.3-4.45 3.35-10.1l10.5 11.55 7.4 4.2m-14.45 51.15-0.2-0.25-2.05-2.55q-2.65-3.5-4.65-7.25v-0.05l7.35 4.85 0.05 0.05v-0.05q0.5-0.4 0.95-0.6l-0.8-0.85-0.05-0.05-1.4-1.7-0.35-0.5q-1.7-2.6 0.25-3.2l1.55-0.2h0.05l-0.05-0.05-0.55-0.35-1-0.55q-3.8-1.4-6.55-3.8l-0.05-0.05-2.15-3.5q-3.45-5.45-4.05-13.3 4.65 9.25 13.75 9.6-10.15-9.2-7.15-10.05l13.95 6.95 2.1-0.9 0.2-0.1 0.25 0.1 7.9 2.75-8.65 0.65q-23.25 5-5.4 13.6l-1.75-0.55-0.85-0.5 0.85 0.5 1.95 1.15 2.7 1.6 1.95 4.85-1 0.35q-12.9-3.1-7.05 3.7l-0.05 0.25" fill="#c06407" fill-rule="evenodd"/>
<path d="m129.8 42.3-6.4 2.8-10.95-2.75 0.9-3.85h12.9l3.55 3.8m-55.3-31.25-16.8 15.95q-11.35 5-11.8-5l0.1 10.05 4.6 3.35 2.75 1.95 1.8 1.55 0.4-0.2q3.8 2.2 6.85 2.45l-10.8 6.85-7.4-4.2-10.5-11.55q-2.05 5.65-3.35 10.1-2.5 8.2-2.65 10.5l-0.3 3.3-0.5-1.05-1.2-2.85q-1.35-4-1.1-7.9 1.25-5.35 3.6-9 0.8-1.35 1.85-2.45l2.2-2.35q1.9-1.9 3.9-3.45 2.1-1.65 4.35-2.9 2.6-1.55 5.4-2.6l8.9-7.8q-1 1.3-1 3t1 3l0.45 0.5q0.9 0.9 2.05 1.3l1.5 0.2q2.05 0 3.5-1.5 1.5-1.45 1.5-3.5l-0.15-1.25-0.45-1.1-0.5-0.75-0.35-0.4-0.05-0.05q-1.45-1.45-3.5-1.45-1.35 0-2.4 0.6l2.7-2.4 13.55 0.4 1.85 0.65m26.25 69.95 3.95-6.2h17.4v0.75l-10.4 2.15-4.9 3.3h-6.05m-77.3-15.8-0.2-3.95v-1q0.3-4.55 2.45-8l1.2 2.85 0.5 1.05 1.7 2.8q1.1 1.65 2.8 3.25l3.25 2.65 2.65 1.7 0.15 0.1 0.95 0.55 1.15 0.6 2.1 1.05 0.65 0.3 1.85 0.85 1.45 0.8-2.1 0.9-13.95-6.95q-3 0.85 7.15 10.05-9.1-0.35-13.75-9.6m8.95-38.4q-5.8-6.8-6-10.4 1.35-5.25 4.3-6.65l4.3 2.45q-4.35 7.3-3.35 8.5-0.05 1.7 0.75 6.1m13.5-4.8v-0.4 0.4m-16.2 60.05q2.75 2.4 6.55 3.8l1 0.55 0.55 0.35 0.05 0.05h-0.05l-1.55 0.2q-1.95 0.6-0.25 3.2l0.35 0.5 1.4 1.7v0.05l-0.1 1.45h-0.05l-7.35-4.85q-1.1-3.85-0.55-7" fill="#fff024" fill-rule="evenodd"/>
<path d="m128.75 49.35q0-0.85-0.6-1.45-0.55-0.55-1.4-0.55t-1.45 0.55q-0.55 0.6-0.55 1.45t0.55 1.4q0.6 0.6 1.45 0.6t1.4-0.6q0.6-0.55 0.6-1.4m-16.3-7 10.95 2.75 6.4-2.8 3.05 8.5-2.1 11.25q-7.35 3.65-17.65-0.55l-3.8-1.5 3.15-17.65m-30.15-19-0.15-0.6-0.2-0.75q-1.55-7.15 4.1-0.5 7.4 11.2 6.8 17.25l-3.1 1.85q-2.75 1.25-6.25 1.8-8.35 1.35-21.1-1.25 12.75 2.6 21.1 1.25 3.5-0.55 6.25-1.8l2.45 1.8 2.4 1.8q-5.5 3.05-13.15 4.25-9.75 1.5-23.05-0.05-9.35 12.1 11.8 27.7l-5.5-0.55-6.6-1.2-3.65-0.8 3.65 0.8 6.6 1.2 5.5 0.55 1.85 0.05 5.3-0.1q7.45-0.35 16.45-2.6l1.45 4.25-0.9 3.3q-11.5 5.05-25.4 4.35-6.9-0.35-14.3-2.1-7.75 0.45-6.8 4.75 0.4 1.85 2.55 4.5l3.2 3.5-4.3-2.5-0.1-0.05 0.1 0.05 4.3 2.5q5.1 2.05 10.6 3.2 6.35 1.3 13.3 1.45l3.1 2.75q-7.6 4-18.55 4.45l-13.55-0.5q-2.3-0.8-2.6-0.65l-0.05 0.05-0.55-0.4-3.85-3.25-3.25-3.05-1-1.15q-5.85-6.8 7.05-3.7l1-0.35-1.95-4.85 5.9 3.45-0.35-0.25-2.85-2.05-1.95-1.5-0.4-0.3v-0.1l-3-1.3v-0.1l-0.25-0.05q-17.85-8.6 5.4-13.6l8.65-0.65-7.75-3.05h-0.05q-3.75-1.4-6.45-2.75l0.7-0.3-1.8-0.3-1.2-0.65-2.6-1.8q-10.7-8.55 16.3-16.7l10.8-6.85q25.55 2 10.5-9.75l0.05-0.05 1.85 0.2q3.5-0.05 5.7-1.75 2.3-1.75 2.3-4.25 0-1.2-0.5-2.2m-46.4 1.4-3.5 2.05q-0.8-4.4-0.75-6.1-1-1.2 3.35-8.5l3.3 4.25q-4.3 0.5-4.75 4.1l-0.4 0.15 0.05 0.1 2.7 3.95m64.85 65.1 4.45-1.7 2-7.15h-0.4l4.9-3.3 10.4-2.15 1.85 14.6-5.55 3.5-17.65-3.8m19.45 1.7q0-0.65-0.6-1.15-0.6-0.45-1.45-0.45t-1.45 0.45q-0.6 0.5-0.6 1.15t0.6 1.1q0.6 0.5 1.45 0.5t1.45-0.5q0.6-0.45 0.6-1.1m1.05-5.85q0-0.8-0.6-1.4-0.55-0.55-1.35-0.55t-1.4 0.55q-0.55 0.6-0.55 1.4t0.55 1.35q0.6 0.6 1.4 0.6t1.35-0.6q0.6-0.55 0.6-1.35m-0.5-6.15q0-0.7-0.5-1.2t-1.2-0.5-1.2 0.5-0.5 1.2 0.5 1.2 1.2 0.5 1.2-0.5 0.5-1.2m4.55-20.3q-0.45 0.4-0.45 1t0.45 1q0.5 0.4 1.15 0.4t1.1-0.4q0.5-0.4 0.5-1t-0.5-1q-0.45-0.4-1.1-0.4t-1.15 0.4m2.8-5.55q-0.55-0.55-1.3-0.55t-1.3 0.55-0.55 1.3 0.55 1.3 1.3 0.55 1.3-0.55 0.55-1.3-0.55-1.3m-69.3-31.9-1.5-0.2q-1.15-0.4-2.05-1.3l-0.45-0.5q-1-1.3-1-3t1-3l1.6-1.4q1.05-0.6 2.4-0.6 2.05 0 3.5 1.45l0.05 0.05 0.35 0.4 0.05 0.1q-1.3 0-2.35 0.6l-1.15 0.85-0.45 0.55q-1 1.3-1 3t1 3m22.25-0.05-2.05-0.2-3.25 0.55q-1.25 0.4-2.3 1.2-2.25 1.75-2.25 4.25 0 2.15 1.65 3.75l-0.05 0.05q-1.85-0.4-3.35-1.55l-0.5-0.45-0.1-0.05q-1.65-1.6-1.65-3.75 0-2.5 2.25-4.25 1.05-0.8 2.3-1.2 1.5-0.55 3.25-0.55l2.05 0.2 0.8 0.2 0.1 0.05q1.4 0.4 2.55 1.3l0.05 0.05 0.5 0.4m-36.65 76.65-0.15-0.15-2-1.7-0.35-0.25-0.05-0.05-0.05 0.15-0.15 0.2 2.75 1.8" fill="#812c07" fill-rule="evenodd"/>
<path d="m128.75 49.35q0 0.85-0.6 1.4-0.55 0.6-1.4 0.6t-1.45-0.6q-0.55-0.55-0.55-1.4t0.55-1.45q0.6-0.55 1.45-0.55t1.4 0.55q0.6 0.6 0.6 1.45m-58.55 26.75q-21.15-15.6-11.8-27.7 13.3 1.55 23.05 0.05 7.65-1.2 13.15-4.25 1.4 5.25 1.95 11l0.05 0.4 0.3 6.8q0 5.4-0.75 10.4l-2.35 0.65q-9 2.25-16.45 2.6l-5.3 0.1-1.85-0.05m17.85 18.65-1.1 1.6-3.25 4.2-6.2 0.1q-6.95-0.15-13.3-1.45-5.5-1.15-10.6-3.2l-3.2-3.5q-2.15-2.65-2.55-4.5-0.95-4.3 6.8-4.75 7.4 1.75 14.3 2.1 13.9 0.7 25.4-4.35l-0.95 2.9-0.05 0.25q-2.1 5.6-5.3 10.6m-7.45 8.65-0.05 0.3q-5.85 5.25-12.9 6.85h-0.15l-6.2 0.65h-1.15q-7.6-0.3-14.15-4.35l-0.1-0.15q0.3-0.15 2.6 0.65l13.55 0.5q10.95-0.45 18.55-4.45m40.15-23.85q0 0.7-0.5 1.2t-1.2 0.5-1.2-0.5-0.5-1.2 0.5-1.2 1.2-0.5 1.2 0.5 0.5 1.2m0.5 6.15q0 0.8-0.6 1.35-0.55 0.6-1.35 0.6t-1.4-0.6q-0.55-0.55-0.55-1.35t0.55-1.4q0.6-0.55 1.4-0.55t1.35 0.55q0.6 0.6 0.6 1.4m-1.05 5.85q0 0.65-0.6 1.1-0.6 0.5-1.45 0.5t-1.45-0.5q-0.6-0.45-0.6-1.1t0.6-1.15q0.6-0.45 1.45-0.45t1.45 0.45q0.6 0.5 0.6 1.15m7.9-37.85q0.55 0.55 0.55 1.3t-0.55 1.3-1.3 0.55-1.3-0.55-0.55-1.3 0.55-1.3 1.3-0.55 1.3 0.55m-2.8 5.55q0.5-0.4 1.15-0.4t1.1 0.4q0.5 0.4 0.5 1t-0.5 1q-0.45 0.4-1.1 0.4t-1.15-0.4q-0.45-0.4-0.45-1t0.45-1" fill="#3d0200" fill-rule="evenodd"/>
<path d="m113.35 38.5-0.9 3.85-10.55 3.65-7.3-1.8-2.4-1.8q14-0.8 21.15-3.9m-19 42.5h11.45l-12.4 2.9 0.95-2.9m-56.05-64.55 7.6 5.15q-2.8 1.05-5.4 2.6-4.45 0.2-7.3-3.4l0.35-0.25q0.45-3.6 4.75-4.1" fill="#e85019" fill-rule="evenodd"/>
<path d="m112.45 42.35-3.15 17.65-12.75-4.8q-0.55-5.75-1.95-11l7.3 1.8 10.55-3.65m-76.3-15.25-0.25-2.35-2.7-3.95q2.85 3.6 7.3 3.4-2.25 1.25-4.35 2.9m64.6 62.75-12.7 4.9q3.2-5 5.3-10.6l0.05-0.25 12.4-2.9h1.4l-2 7.15-4.45 1.7" fill="#c24215" fill-rule="evenodd"/>
<path d="m128.75 49.35q0 0.85-0.6 1.4-0.55 0.6-1.4 0.6t-1.45-0.6q-0.55-0.55-0.55-1.4t0.55-1.45q0.6-0.55 1.45-0.55t1.4 0.55q0.6 0.6 0.6 1.45m1.05-7.05-3.55-3.8h-12.9l-0.9 3.85-3.15 17.65 3.8 1.5q10.3 4.2 17.65 0.55l2.1-11.25-3.05-8.5m-47.8-19.45 0.2 0.35 0.1 0.15q0.5 1 0.5 2.2 0 2.5-2.3 4.25-2.2 1.7-5.7 1.75l-1.85-0.2m-10.55 9.8q12.75 2.6 21.1 1.25 3.5-0.55 6.25-1.8l3.1-1.85q0.6-6.05-6.8-17.25l-1.3-1.95h-0.05q-4.2-6.05-10.2-8.5m6.55 10.7 0.95 1.1m-36.1-0.85 0.1 10.05 4.6 3.35 2.75 1.95 0.85 0.55 1.35 0.8q3.8 2.2 6.85 2.45m-7.95 32.4 3.65 0.8 6.6 1.2 5.5 0.55m24.4-31.9-2.4-1.8-2.45-1.8m2.45 1.8q14-0.8 21.15-3.9m-16.75 17.1 0.3 6.8-0.05-1.8-0.25-5-0.05-0.4q-0.55-5.75-1.95-11m2.3 18.2q0 5.4-0.75 10.4l-2.35 0.65 1.45 4.25-0.9 3.3h6.4l3.95-6.2h17.4v0.75l0.5-0.15m-34.55 19.35-1.1 1.6-3.25 4.2-6.2 0.1 3.1 2.75m-0.05 0.3q-5.85 5.25-12.9 6.85h-0.15l-6.2 0.65h-1.15q-7.6-0.3-14.15-4.35l-0.15-0.1-0.5-0.35-4.05-3.05q-2.15-1.85-4.15-4.2l-0.2-0.25-2.05-2.55q-2.65-3.5-4.65-7.25l-0.05-0.1q-1.1-3.85-0.55-7l-2.15-3.5q-3.45-5.45-4.05-13.3l-0.2-3.95v-1q0.3-4.55 2.45-8-1.35-4-1.1-7.9 1.25-5.35 3.6-9 0.8-1.35 1.85-2.45l2.2-2.35q1.9-1.9 3.9-3.45l-0.25-2.35-3.5 2.05q-5.8-6.8-6-10.4 1.35-5.25 4.3-6.65l4.3 2.45 3.3 4.25 7.6 5.15 8.9-7.8 0.45-0.55 1.15-0.85 2.7-2.4 13.55 0.4 1.85 0.65m13.55 83.7 12.7-4.9 4.45-1.7 2-7.15h-6.45m-7.35 2.9-0.05 0.25q-2.1 5.6-5.3 10.6m6.3-13.75-0.95 2.9m27.35-4.35q0 0.7-0.5 1.2t-1.2 0.5-1.2-0.5-0.5-1.2 0.5-1.2 1.2-0.5 1.2 0.5 0.5 1.2m0.5 6.15q0 0.8-0.6 1.35-0.55 0.6-1.35 0.6t-1.4-0.6q-0.55-0.55-0.55-1.35t0.55-1.4q0.6-0.55 1.4-0.55t1.35 0.55q0.6 0.6 0.6 1.4m-1.05 5.85q0 0.65-0.6 1.1-0.6 0.5-1.45 0.5t-1.45-0.5q-0.6-0.45-0.6-1.1t0.6-1.15q0.6-0.45 1.45-0.45t1.45 0.45q0.6 0.5 0.6 1.15m1.9-16 1.85 14.6-5.55 3.5-17.65-3.8m8.55-29.85-12.75-4.8m31.55-1.5q0.55 0.55 0.55 1.3t-0.55 1.3-1.3 0.55-1.3-0.55-0.55-1.3 0.55-1.3 1.3-0.55 1.3 0.55m-2.8 5.55q0.5-0.4 1.15-0.4t1.1 0.4q0.5 0.4 0.5 1t-0.5 1q-0.45 0.4-1.1 0.4t-1.15-0.4q-0.45-0.4-0.45-1t0.45-1m-62.6-45.55 0.5 0.75 0.45 1.1 0.15 1.25q0 2.05-1.5 3.5-1.45 1.5-3.5 1.5l-1.5-0.2q-1.15-0.4-2.05-1.3l-0.45-0.5q-1-1.3-1-3t1-3l1.6-1.4q1.05-0.6 2.4-0.6 2.05 0 3.5 1.45l0.05 0.05 0.35 0.4m18.35 8.05-0.5-0.4-0.05-0.05q-1.15-0.9-2.55-1.3l-0.1-0.05-0.8-0.2-2.05-0.2q-1.75 0-3.25 0.55-1.25 0.4-2.3 1.2-2.25 1.75-2.25 4.25 0 2.15 1.65 3.75l0.1 0.05 0.5 0.45q1.5 1.15 3.35 1.55h0.15m-27.05-9.75v0.4m-12.7-1.2 2.7 3.95m-2.35-4.2q0.45-3.6 4.75-4.1m-5.1 4.35 0.35-0.25m2.6 6.55q2.1-1.65 4.35-2.9 2.6-1.55 5.4-2.6m-18.5 34.55-0.5-1.05-1.2-2.85m9.45 12.6-3.25-2.65q-1.7-1.6-2.8-3.25l-1.7-2.8m10.55 10.5-0.15-0.1-2.65-1.7m2.8 1.8 0.95 0.55 1.15 0.6 2.1 1.05 0.65 0.3 1.85 0.85 1.35 0.55 0.3 0.15 0.25 0.1 7.9 2.75m-5.25 19.9 0.1 0.05 4.3 2.5m-16.35-9.6-1-0.55q-3.8-1.4-6.55-3.8l-0.05-0.05m7.6 4.4 0.55 0.35 0.85 0.5m4.65 2.75-2.7-1.6-1.95-1.15m4.65 2.75 5.9 3.45m44.6-20q-9 2.25-16.45 2.6l-5.3 0.1-1.85-0.05m7.3 24.55q-6.95-0.15-13.3-1.45-5.5-1.15-10.6-3.2" fill="none" stroke="#000" stroke-linecap="round" stroke-linejoin="round" stroke-opacity=".35294" stroke-width=".05"/>
</g>
<g id="a" transform="translate(-14,3.85)">
<use transform="translate(14,-3.85)" width="77.050003" height="214.35001" xlink:href="#f"/>
</g>
<g id="f" transform="translate(-14,3.85)">
<path d="m48.65 19.35-3.2 50.6 26.85-35.95-26.85 35.95-1.85 28.3 0.45-2.15-0.45 2.15 1.85-28.3 3.2-50.6m0.65-17.7q9.4-2 19.8-3.3 10.4-1.35 19.95 6.5-34.75 115.55-60.55 203.65-4.8-25.65-10.65-44.85-5.7-57.3 6.15-114.65 5.95-44.65 25.3-47.35m-5.7 96.6-17.15 83.95 17.15-83.95" fill="#ffd52b" fill-opacity=".47059" fill-rule="evenodd"/>
<path d="m72.3 34-26.85 35.95-1.85 28.3 0.45-2.15m1.4-26.15 3.2-50.6m-22.2 162.85 17.15-83.95" fill="none" stroke="#000" stroke-linecap="round" stroke-linejoin="round" stroke-opacity=".25098" stroke-width=".05"/>
<path d="m49.3 1.65q9.4-2 19.8-3.3 10.4-1.35 19.95 6.5-34.75 115.55-60.55 203.65-4.8-25.65-10.65-44.85-5.7-57.3 6.15-114.65 5.95-44.65 25.3-47.35" fill="none" stroke="#990f00" stroke-linecap="round" stroke-linejoin="round" stroke-opacity=".70196" stroke-width="4"/>
</g>
<g id="b" transform="translate(22.7,9.6)">
<use transform="translate(-22.7,-9.6)" width="190.35001" height="169.8" xlink:href="#e"/>
</g>
<g id="e" transform="translate(22.7,9.6)">
<path d="m28.95 21.1-1.5 0.1q-4.4 0-7.5-3.1t-3.1-7.5l0.1-1.55q0.5 4.7 3.95 8.15 3.4 3.4 8.05 3.9-4.65-0.5-8.05-3.9-3.45-3.45-3.95-8.15 0.45-3.3 2.85-5.75-0.2 0.9-0.25 1.9v0.05q-0.45 1.7-0.65 3.6 2.2 8.3 11.1 9.75 1.9 0.25 3.95-0.6l0.3-0.15 0.9 0.05-0.2 0.2q-2.55 2.55-6 3" fill="url(#i)" fill-rule="evenodd"/>
<path d="m21.4-2.75q3.85-3.5 9.2-3.5 5.7 0 9.7 4.05 4 4 4.05 9.7-0.05 4.5-2.6 8-3.4 2.35-6.6 2.4l-0.9-0.05h-0.35l0.05 0.15q-2.05 0.85-3.95 0.6-8.9-1.45-11.1-9.75 0.2-1.9 0.65-3.6v-0.05q0.05-1 0.25-1.9l0.05-0.45q0.5-2.95 1.55-5.6m140.3 24.1q-3.4 2.35-6.6 2.4l-0.9-0.05h-0.35l0.05 0.15q-2.05 0.85-3.95 0.6-8.9-1.45-11.1-9.75 0.2-1.9 0.65-3.6v-0.05q0.05-1 0.25-1.9l0.05-0.45q0.3-1.65 0.75-3.2l0.8-2.4q3.85-3.5 9.2-3.5 5.7 0 9.7 4.05 4 4 4.05 9.7-0.05 4.5-2.6 8" fill="#e98727" fill-rule="evenodd"/>
<path d="m17.1 5.05q-13.1 16.1-17.1 137.95m140.55-137.5-1-0.4q-20.2-6.95-48.85 87.5-5.4 17.9-11.15 39.4m-59.7-129.15q-1.45 0.55-2.75 2.2" fill="none" stroke="#000" stroke-linecap="round" stroke-linejoin="round" stroke-opacity=".34118" stroke-width="1.75"/>
<path d="m0 143q-17.3 6.5-22.7 17.2m102.25-28.2q-17.6 0.1-44 7.05" fill="none" stroke="#000" stroke-linecap="round" stroke-linejoin="round" stroke-opacity=".10196" stroke-width=".05"/>
<path d="m21.4-2.75q3.85-3.5 9.2-3.5 5.7 0 9.7 4.05 4 4 4.05 9.7-0.05 4.5-2.6 8l-1.45 1.7q-4 4-9.7 4l-1.65-0.1q-4.65-0.5-8.05-3.9-3.45-3.45-3.95-8.15l-0.05-1.55q-0.05-1.3 0.2-2.45 0.65-4.15 3.8-7.25l0.5-0.55m140.3 24.1-1.45 1.7q-4 4-9.7 4l-1.65-0.1q-4.65-0.5-8.05-3.9-3.45-3.45-3.95-8.15m2.65-9.8q-2 2.6-2.5 5.8m2.5-5.8 1.3-1.45 0.5-0.55q3.85-3.5 9.2-3.5 5.7 0 9.7 4.05 4 4 4.05 9.7-0.05 4.5-2.6 8" fill="none" stroke="#ffb945" stroke-linecap="round" stroke-linejoin="round" stroke-width="6.75"/>
</g>
<linearGradient id="i" x1="-819.2" x2="819.2" gradientTransform="matrix(.0043 -.0025 .5 .866 12.1 .7)" gradientUnits="userSpaceOnUse">
<stop stop-color="#d57311" offset="0"/>
<stop stop-color="#8d7761" offset=".87059"/>
</linearGradient>
</defs>
</svg>
