<?xml version="1.0" encoding="UTF-8"?>
<svg version="1.1" viewBox="0 0 107.57 75.876" xmlns="http://www.w3.org/2000/svg" xmlns:cc="http://creativecommons.org/ns#" xmlns:dc="http://purl.org/dc/elements/1.1/" xmlns:rdf="http://www.w3.org/1999/02/22-rdf-syntax-ns#" xmlns:xlink="http://www.w3.org/1999/xlink">
<metadata>
<rdf:RDF>
<cc:Work rdf:about="">
<dc:format>image/svg+xml</dc:format>
<dc:type rdf:resource="http://purl.org/dc/dcmitype/StillImage"/>
</cc:Work>
</rdf:RDF>
</metadata>
<g transform="translate(-221.12 -162.42)">
<use transform="matrix(.1221 -.1361 .1361 .1221 260.52 187.73)" width="98.650002" height="108.05" xlink:href="#a"/>
<use transform="matrix(.14 -.0635 .0635 .14 273.61 177.72)" width="98.650002" height="108.05" xlink:href="#a"/>
<use transform="matrix(.1177 .073 -.073 .1177 290.04 169.49)" width="98.650002" height="108.05" xlink:href="#a"/>
<use transform="matrix(.0966 .1556 -.1556 .0966 304.28 169.1)" width="98.650002" height="108.05" xlink:href="#a"/>
<use transform="matrix(.1334 .0159 -.0159 .1334 286.73 175.57)" width="98.650002" height="108.05" xlink:href="#a"/>
<use transform="matrix(-.1564 .011 -.011 -.1564 328.86 212.75)" width="98.650002" height="108.05" xlink:href="#a"/>
<use transform="matrix(-.127 .0929 -.0929 -.127 329.83 197.08)" width="98.650002" height="108.05" xlink:href="#a"/>
<use transform="matrix(-.1241 -.0444 .0444 -.1241 314.77 211.14)" width="98.650002" height="108.05" xlink:href="#a"/>
<use transform="matrix(-.0351 .1268 -.1268 -.0351 321.88 183.79)" width="98.650002" height="108.05" xlink:href="#a"/>
<use transform="matrix(-.1125 .0372 -.0372 -.1125 318.31 199.14)" width="98.650002" height="108.05" xlink:href="#a"/>
<use transform="matrix(.0325 .1121 -.1357 .0739 258.98 180.43)" width="98.650002" height="108.05" xlink:href="#a"/>
<use transform="translate(228.4,176.85)" width="88.050003" height="46.900002" xlink:href="#b"/>
<use transform="matrix(-.0365 .1071 .1247 .0826 288.32 169.1)" width="98.650002" height="108.05" xlink:href="#a"/>
<use transform="matrix(-.0976 .0469 .0865 .1275 301.3 175.95)" width="98.650002" height="108.05" xlink:href="#a"/>
<use transform="matrix(.014 .1104 .1083 .0274 287.21 179.97)" width="98.650002" height="108.05" xlink:href="#a"/>
<use transform="matrix(-.0848 .0345 .0687 .1082 307.43 178.65)" width="98.650002" height="108.05" xlink:href="#a"/>
<use transform="matrix(-.0976 .0469 .0865 .1275 292.4 182.7)" width="98.650002" height="108.05" xlink:href="#a"/>
<use transform="matrix(-.0848 .0345 .0687 .1082 298.43 185.4)" width="98.650002" height="108.05" xlink:href="#a"/>
<use transform="matrix(.0889 .054 -.0489 .1421 308.2 173.06)" width="98.650002" height="108.05" xlink:href="#a"/>
<use transform="matrix(.0847 -.0305 .0087 .1239 299.15 192.37)" width="98.650002" height="108.05" xlink:href="#a"/>
<use transform="matrix(.1147 .0226 .0034 .1547 234.26 167.33)" width="98.650002" height="108.05" xlink:href="#a"/>
<use transform="matrix(.0957 -.0634 .0642 .1436 233.06 182.48)" width="98.650002" height="108.05" xlink:href="#a"/>
<use transform="matrix(.0894 .0697 -.0362 .1114 244.44 171.94)" width="98.650002" height="108.05" xlink:href="#a"/>
<use transform="matrix(.0776 -.0583 .0571 .1176 231.99 189.42)" width="98.650002" height="108.05" xlink:href="#a"/>
<use transform="matrix(.0957 -.0634 .0642 .1436 243.96 177.98)" width="98.650002" height="108.05" xlink:href="#a"/>
<use transform="matrix(.0776 -.0583 .0571 .1176 242.94 184.82)" width="98.650002" height="108.05" xlink:href="#a"/>
<use transform="matrix(-.0019 .1078 .1524 .0296 226.67 187.23)" width="98.650002" height="108.05" xlink:href="#a"/>
<use transform="matrix(-.0741 .0603 .1042 .0719 248.78 189.04)" width="98.650002" height="108.05" xlink:href="#a"/>
<use transform="matrix(.0722 .1 -.1 .0722 293.99 197.22)" width="98.650002" height="108.05" xlink:href="#a"/>
<use transform="matrix(.0217 .1014 -.1014 .0217 298.65 207.27)" width="98.650002" height="108.05" xlink:href="#a"/>
<use transform="matrix(.1228 -.0091 .0091 .1228 266.8 204.12)" width="98.650002" height="108.05" xlink:href="#a"/>
<use transform="matrix(-.0673 .1032 -.1032 -.0673 311.35 220.84)" width="98.650002" height="108.05" xlink:href="#a"/>
<use transform="matrix(-.0021 .1237 -.1237 -.0021 302.08 212.81)" width="98.650002" height="108.05" xlink:href="#a"/>
<use transform="matrix(-.0867 .0567 -.0567 -.0867 303.79 228.99)" width="98.650002" height="108.05" xlink:href="#a"/>
<use transform="matrix(.0699 .0578 -.0578 .0699 289.62 210.17)" width="98.650002" height="108.05" xlink:href="#a"/>
<use transform="matrix(-.0859 -.0366 .0366 -.0859 293.66 236.09)" width="98.650002" height="108.05" xlink:href="#a"/>
<use transform="matrix(-.0181 -.1216 .1216 -.0181 271.93 238.03)" width="98.650002" height="108.05" xlink:href="#a"/>
<use transform="matrix(-.0804 -.0937 .0937 -.0804 284.21 237.86)" width="98.650002" height="108.05" xlink:href="#a"/>
<use transform="matrix(.0272 -.0997 .0997 .0272 272.37 226.9)" width="98.650002" height="108.05" xlink:href="#a"/>
<use transform="matrix(-.0904 .0032 -.0032 -.0904 295.34 231.68)" width="98.650002" height="108.05" xlink:href="#a"/>
<use transform="matrix(-.0719 .1199 -.1199 -.0719 258.62 202.27)" width="98.650002" height="108.05" xlink:href="#a"/>
<use transform="matrix(.1055 7e-4 -7e-4 .1055 221.23 193.82)" width="98.650002" height="108.05" xlink:href="#a"/>
<use transform="matrix(.0719 .119 -.119 .0719 243.23 182.39)" width="98.650002" height="108.05" xlink:href="#a"/>
<use transform="matrix(.1247 .0627 -.0627 .1247 230.33 188.02)" width="98.650002" height="108.05" xlink:href="#a"/>
<use transform="matrix(.0151 .1159 -.1159 .0151 247.52 194.16)" width="98.650002" height="108.05" xlink:href="#a"/>
<use transform="matrix(.093 -.0427 .0427 .093 221.45 199.19)" width="98.650002" height="108.05" xlink:href="#a"/>
<use transform="matrix(.1027 -.0946 .0946 .1027 220.08 206.52)" width="98.650002" height="108.05" xlink:href="#a"/>
<use transform="matrix(-.1009 -.0304 .0304 -.1009 253.49 225.2)" width="98.650002" height="108.05" xlink:href="#a"/>
<use transform="matrix(-.0354 -.1343 .1343 -.0354 229.19 229.89)" width="98.650002" height="108.05" xlink:href="#a"/>
<use transform="matrix(-.1017 -.0953 .0953 -.1017 243.13 228.15)" width="98.650002" height="108.05" xlink:href="#a"/>
<use transform="matrix(.0182 -.1153 .1153 .0182 228.42 217.41)" width="98.650002" height="108.05" xlink:href="#a"/>
<use transform="matrix(-.1011 .0147 -.0147 -.1011 254.74 219.98)" width="98.650002" height="108.05" xlink:href="#a"/>
<use transform="matrix(.1107 -.1131 .14 .0867 220.08 208.7)" width="98.650002" height="108.05" xlink:href="#a"/>
<use transform="matrix(.1325 -.0577 .0703 .105 232.21 200.08)" width="98.650002" height="108.05" xlink:href="#a"/>
<use transform="matrix(-.0611 -.133 .1674 -.0508 240.43 236.51)" width="98.650002" height="108.05" xlink:href="#a"/>
<use transform="matrix(-.1413 -.0858 .1096 -.1142 257.81 233.2)" width="98.650002" height="108.05" xlink:href="#a"/>
<use transform="matrix(.0096 -.1195 .1495 .0059 237.8 223.93)" width="98.650002" height="108.05" xlink:href="#a"/>
<use transform="matrix(.1167 -.0555 .0677 .0924 238.18 209.6)" width="98.650002" height="108.05" xlink:href="#a"/>
<use transform="matrix(.1729 -.0388 .0459 .1376 238.59 194.58)" width="98.650002" height="108.05" xlink:href="#a"/>
<use transform="matrix(-.1622 .0604 -.0732 -.1287 285.51 219.57)" width="98.650002" height="108.05" xlink:href="#a"/>
<use transform="matrix(-.1496 .003 -.0014 -.1195 269.91 222.85)" width="98.650002" height="108.05" xlink:href="#a"/>
<use transform="matrix(-.076 -.088 .1112 -.0621 252.14 223.74)" width="98.650002" height="108.05" xlink:href="#a"/>
<use transform="matrix(.041 .1505 -.1505 .041 319.6 191.71)" width="98.650002" height="108.05" xlink:href="#a"/>
<use transform="matrix(-.068 .17 -.17 -.068 305.33 206.88)" width="98.650002" height="108.05" xlink:href="#a"/>
<use transform="matrix(-.1098 .1078 -.1078 -.1098 296.44 220.81)" width="98.650002" height="108.05" xlink:href="#a"/>
<use transform="matrix(-.1357 -.0282 .0282 -.1357 283.82 234.17)" width="98.650002" height="108.05" xlink:href="#a"/>
<use transform="matrix(-.1443 -.1131 .1131 -.1443 270.57 239.43)" width="98.650002" height="108.05" xlink:href="#a"/>
<use transform="matrix(-.1308 .0309 -.0309 -.1308 284.88 227.34)" width="98.650002" height="108.05" xlink:href="#a"/>
<use transform="matrix(.1433 -.0641 .0641 .1433 232.47 206.83)" width="98.650002" height="108.05" xlink:href="#a"/>
<use transform="matrix(.0875 -.131 .131 .0875 236.96 221.89)" width="98.650002" height="108.05" xlink:href="#a"/>
<use transform="matrix(.1319 -9e-4 9e-4 .1319 246.24 203.52)" width="98.650002" height="108.05" xlink:href="#a"/>
<use transform="matrix(-.0106 -.1313 .1313 -.0106 248.98 231.65)" width="98.650002" height="108.05" xlink:href="#a"/>
<use transform="matrix(.093 -.0737 .0737 .093 247.08 216.01)" width="98.650002" height="108.05" xlink:href="#a"/>
<use transform="matrix(.1076 .0935 -.1139 .0883 299.94 186.22)" width="98.650002" height="108.05" xlink:href="#a"/>
<use transform="matrix(.0443 .1018 -.1241 .0363 307.52 196.01)" width="98.650002" height="108.05" xlink:href="#a"/>
<use transform="matrix(-.0676 .1159 -.1413 -.0555 325.81 208.23)" width="98.650002" height="108.05" xlink:href="#a"/>
<use transform="matrix(.018 .1281 -.1561 .0148 312.69 201.18)" width="98.650002" height="108.05" xlink:href="#a"/>
<use transform="matrix(-.0998 .0704 -.0858 -.0819 317.46 217.6)" width="98.650002" height="108.05" xlink:href="#a"/>
<use transform="matrix(.0977 .0501 -.0611 .0801 296.63 200.1)" width="98.650002" height="108.05" xlink:href="#a"/>
<use transform="matrix(-.1142 -.026 .0317 -.0937 305.98 226.39)" width="98.650002" height="108.05" xlink:href="#a"/>
<use transform="matrix(-.0431 -.1233 .1502 -.0354 278.91 231.34)" width="98.650002" height="108.05" xlink:href="#a"/>
<use transform="matrix(-.1169 -.0858 .1046 -.0959 294.37 229.41)" width="98.650002" height="108.05" xlink:href="#a"/>
<use transform="matrix(.0177 -.1068 .1302 .0145 277.6 219.89)" width="98.650002" height="108.05" xlink:href="#a"/>
<use transform="matrix(-.1134 .0157 -.0191 -.093 307.33 221.6)" width="98.650002" height="108.05" xlink:href="#a"/>
<use transform="matrix(.1048 -.0385 .047 .086 271.94 207.91)" width="98.650002" height="108.05" xlink:href="#a"/>
<use transform="matrix(.156 .0056 -.0056 .156 249.85 199.5)" width="98.650002" height="108.05" xlink:href="#a"/>
<use transform="matrix(-.0876 -.1304 .1304 -.0876 257.88 239.42)" width="98.650002" height="108.05" xlink:href="#a"/>
<use transform="matrix(.0211 .1536 -.1536 .0211 292.51 197.23)" width="98.650002" height="108.05" xlink:href="#a"/>
<use transform="matrix(.1 .1193 -.1193 .1 277.11 197.31)" width="98.650002" height="108.05" xlink:href="#a"/>
<use transform="matrix(-.0358 .1254 -.1254 -.0358 291.78 211.24)" width="98.650002" height="108.05" xlink:href="#a"/>
<use transform="matrix(.1141 -.0026 .0026 .1141 262.98 204.87)" width="98.650002" height="108.05" xlink:href="#a"/>
<use transform="matrix(-.1118 .036 -.036 -.1118 288.11 226.31)" width="98.650002" height="108.05" xlink:href="#a"/>
<use transform="matrix(.1014 -.0466 .1036 .0923 246.75 172.51)" width="98.650002" height="108.05" xlink:href="#a"/>
<use transform="matrix(.0308 -.0889 .1422 .0536 255.7 182.3)" width="98.650002" height="108.05" xlink:href="#a"/>
<use transform="matrix(.1131 -.0046 .0455 .0868 257.41 169.94)" width="98.650002" height="108.05" xlink:href="#a"/>
<use transform="matrix(.0205 -.0763 .12 .0415 259.46 187.17)" width="98.650002" height="108.05" xlink:href="#a"/>
<use transform="matrix(.0308 -.0889 .1422 .0536 261.05 173.85)" width="98.650002" height="108.05" xlink:href="#a"/>
<use transform="matrix(.0205 -.0763 .12 .0415 264.71 178.57)" width="98.650002" height="108.05" xlink:href="#a"/>
<use transform="matrix(.069 .0666 .1344 -.0622 253.99 188.57)" width="98.650002" height="108.05" xlink:href="#a"/>
<use transform="matrix(-.0165 .0757 .1257 -.0111 271.88 178.07)" width="98.650002" height="108.05" xlink:href="#a"/>
<use transform="matrix(.0325 .1121 -.1357 .0739 281.48 161.48)" width="98.650002" height="108.05" xlink:href="#a"/>
<use transform="matrix(-.1121 .0325 -.0739 -.1357 292.93 183.77)" width="98.650002" height="108.05" xlink:href="#a"/>
<use transform="matrix(-.0862 .0782 -.1257 -.0892 285.84 191.75)" width="98.650002" height="108.05" xlink:href="#a"/>
</g>
<defs>
<g id="a" transform="translate(49.35,54)">
<path d="m-42.95-49.7q9.9-8.6 29.45-0.05 19.65 8.45 37.45 29.05 17.75 20.6 23.35 41.2t-4.35 29.2-29.55 0.1q-19.55-8.5-37.35-29.1t-23.4-41.2q-5.55-20.6 4.4-29.2" fill="#045566" fill-rule="evenodd"/>
<path d="m25.9-8.8q11.05 12.75 14.4 25.55 3.55 12.8-2.6 18.1t-18.35 0.05q-12.1-5.25-23.15-18t-14.5-25.55 2.7-18.1 18.25-0.05q12.2 5.25 23.25 18" fill="#159f66" fill-rule="evenodd"/>
</g>
<g id="b" transform="translate(-228.4,-176.85)">
<path d="m229.95 193.5v-0.35l0.05-0.6q0.65-6.1 12.35-10.55 12.4-4.65 29.9-4.65t29.9 4.65q11.55 4.4 12.35 10.45v1.6q-0.35 3.4-4.1 6.25-3.05-2.3-8.25-4.3-12.4-4.65-29.9-4.65t-29.9 4.65q-5.2 2-8.25 4.3-4.05-3.1-4.15-6.8" fill="#033" fill-rule="evenodd"/>
<path d="m229.95 193.5q0.1 3.7 4.15 6.8 3.05-2.3 8.25-4.3 12.4-4.65 29.9-4.65t29.9 4.65q5.2 2 8.25 4.3 3.75-2.85 4.1-6.25v-1.6q-0.8-6.05-12.35-10.45-12.4-4.65-29.9-4.65t-29.9 4.65q-11.7 4.45-12.35 10.55l-0.05 0.6v0.35q-2.05 6.95 0 13.95 0.15 6.5 12.4 11.1 12.4 4.7 29.9 4.7t29.9-4.7q11.1-4.15 12.3-9.9l0.95-2.05q1.4-6.8-0.9-12.55l0.05-0.75-0.05-0.85m-4.1 7.85q-3.05 2.3-8.25 4.25-12.4 4.7-29.9 4.7t-29.9-4.7q-5.2-1.95-8.25-4.25" fill="none" stroke="#000" stroke-linecap="round" stroke-linejoin="round"/>
</g>
</defs>
</svg>
