<?xml version="1.0" encoding="UTF-8"?>
<svg width="161px" height="270px" version="1.1" viewBox="207.13 268.26 161.25 270.4" xmlns="http://www.w3.org/2000/svg" xmlns:xlink="http://www.w3.org/1999/xlink">
<defs>
<g id="k">
<path d="m291.1 283.35q-3.15 3.95-5.6 9.65-1.6 3.55-3.25 8.95-1.5 4.75-2 5.6" fill="none" stroke="#000" stroke-opacity=".4"/>
</g>
<g id="j">
<path d="m69 7.3 4.65-9.05 1.95 4.65-6.6 4.4m-26.5 26.8 3.4 10-15.55 8.85q-1.75-5.6-4.1-11.15l16.25-7.7m-45.65 58.25-21.1 14.7q-4.45-1.7-8.6-4.1l22.3-15.05 7.4 4.45" fill="#a5babc"/>
<path d="m-111.7 33.25q-0.05-4 0.3-8 1.5-19.9 10.6-32.8 4.55-6.45 11-11.1l0.25-0.2 3.9-2.55q11.15-6.6 24-6.85 13.75-0.25 29.45 6.8 3.75 1.65 7.3 3.65 25.4 14 42.6 42.85 5 8.35 8.55 16.75l-16.35 0.7-4.55-8.45q-14.8-24.8-37.55-35-17.2-7.7-31.3-3.75-4.65 1.25-8.95 3.8l-4.45 3.05q-10.45 8.3-13.7 23.35-0.9 4.1-1.25 8.7l-0.2 3.5-19.65-4.45" fill="#93a8aa"/>
<path d="m52.35-35.75q7.25 8.45 13.45 18.9 4.5 7.5 7.85 15.1l-4.65 9.05-0.05 0.05-6.65 4.45-24.4-40.25 14.45-7.3m-100.95-18.7q4.2-4.55 9.6-7.95l0.2 0.15q7.25 4.7 13.9 9.7 48.35 36.2 67.4 86.65l-16.25 7.7q-3.55-8.4-8.55-16.75-17.2-28.85-42.6-42.85-3.55-2-7.3-3.65-15.7-7.05-29.45-6.8 3.45-16 13.05-26.2" fill="#6f8486"/>
<path d="m52.35-35.75-14.45 7.3 24.4 40.25 6.65-4.45-26.45 26.75q-19.05-50.45-67.4-86.65-6.65-5-13.9-9.7l-0.2-0.15 1.45-0.9 0.3-0.15 1.5-0.85q5.25-2.85 10.85-4.3 18.45-4.8 40.8 5.25 20.7 9.25 36.45 27.6m-105.65 71.6q3.05 6.65 7.05 13.35 4.6 7.75 9.85 14.45l-21.15 13.9q-5-7.6-8.95-16.5l-19.05 9.8q-2.05-4.85-3.45-9.7l35.7-25.3" fill="#819698"/>
<path d="m-108.45 58.15q-2.15-8.35-2.9-16.7l19.45 3.45q0.55 8.15 2.9 16.25l-19.45-3" fill="#93a8aa"/>
<path d="m-92.05 37.7 0.2-3.5q0.35-4.6 1.25-8.7 3.25-15.05 13.7-23.35l4.45-3.05q4.3-2.55 8.95-3.8 0.5 11.3 3.6 22.6l-13.8 8.5-18.35 11.3m34-13.7q2 5.9 4.75 11.85l-35.7 25.3q-2.35-8.1-2.9-16.25l33.85-20.9m-18.85-21.85q-3.1 12.15 3.2 24.25-6.3-12.1-3.2-24.25" fill="#6f8486"/>
<path d="m45.9 44.1 17.9-12.4q6.7 13.15 4 28.25l-32.75 25.6q0.35-16.3-4.7-32.6l15.55-8.85m-82.3 19.55q9.3 11.95 20.55 20.5l-22.65 14.65q-10.95-8.9-19.05-21.25l21.15-13.9" fill="#a5babc"/>
<path d="m9.9 42.5 16.35-0.7q2.35 5.55 4.1 11.15l-16.3-0.4q-1.75-5.05-4.15-10.05" fill="#b7ccce"/>
<path d="m68.95 7.35 0.05-0.05 6.6-4.4q8.85 22.55 7.35 45.15l-15.15 11.9q2.7-15.1-4-28.25l-17.9 12.4-3.4-10 26.45-26.75m-54.3 92.45q-4.8 12.35-15.85 18.9-8.45 4.95-18.1 5.15l-3.9-0.15 15.4-12.95q-8.6-0.7-16.45-3.7 7.85 3 16.45 3.7l-15.4 12.95q-8.65-0.65-18.25-4.95-4.3-1.95-8.3-4.35l16.9-11.45q4.15 2.4 8.6 4.1l21.1-14.7q3.3 1.8 6.75 3.35 5.65 2.5 11.05 4.1" fill="#b7ccce"/>
<path d="m17.25 131.45q-3.75 3.4-8.25 6.05-13.85 8.15-30.2 6.6l-2-20.4 3.9 0.15q9.65-0.2 18.1-5.15 11.05-6.55 15.85-18.9 2.6-6.6 3.4-14.9l16.35 9.6-1.3 7.95q-3.95 18.2-15.85 29m-75.9-1.65q-20.9-13.85-35.7-38.7-5.05-8.45-8.6-16.9l17.4-3.35q2.7 6.45 6.55 12.9 9.7 16.35 22.95 26.35l-2.6 19.7m72.7-77.25 16.3 0.4q5.05 16.3 4.7 32.6l-16.65-8.05q-0.1-12.5-4.35-24.95" fill="#dbf0f2"/>
<path d="m-21.2 144.1q-11.05-1.05-23.3-6.5l-6.55-3.25 1.3-19.95q4 2.4 8.3 4.35 9.6 4.3 18.25 4.95l2 20.4m-81.75-69.9q-3.45-8.05-5.5-16.05l19.45 3q1.4 4.85 3.45 9.7l-17.4 3.35" fill="#edffff"/>
<path d="m82.95 48.05-3.6 4.5q-3.6 4.05 2.5 4.55l-47.45 37.4-16.35-9.6 0.05-0.25 0.05-0.75q0.5-0.15 1.1-2.15t-0.85-4.25l16.65 8.05 32.75-25.6 15.15-11.9m-134 86.3q-2.55-5.75-7.6-4.55l2.6-19.7h0.05l17.5-11.3 22.65-14.65q0.4 4.55 5.3 3.75l-22.3 15.05-16.9 11.45-1.3 19.95m-60.3-92.9q2.2-4.55-0.35-8.2l19.65 4.45 18.35-11.3 13.8-8.5q-1.9 3.5 1.85 6.1l-33.85 20.9q2.25-4-0.15-7.2 2.4 3.2 0.15 7.2l-19.45-3.45m146.4 44.1q1.45 2.45 0.75 4.9l-1.4 4.05 1.4-4.05q0.7-2.45-0.75-4.9m-84.8 28.85q-4.15 1.75-6.25-4.3 2.1 6.05 6.25 4.3" fill="#394e50"/>
<path d="m-85.55 70.85 19.05-9.8q3.95 8.9 8.95 16.5 8.1 12.35 19.05 21.25l-17.5 11.3h-0.05q-13.25-10-22.95-26.35-3.85-6.45-6.55-12.9" fill="#93a8aa"/>
<path d="m81.85 57.1q-3.65 21.35-17.4 33.25l-47.2 41.1q11.9-10.8 15.85-29l1.3-7.95 47.45-37.4" fill="#819698"/>
<path d="m-85.65-21.4-0.4-0.5 37.45-32.55q-9.6 10.2-13.05 26.2-12.85 0.25-24 6.85" fill="#5e7072"/>
<path d="m73.65-1.75q-3.35-7.6-7.85-15.1-6.2-10.45-13.45-18.9l-14.45 7.3 24.4 40.25 6.65-4.45 0.05-0.05m4.65-9.05 1.95 4.65q8.85 22.55 7.35 45.15l-3.6 4.5q-3.6 4.05 2.5 4.55-3.65 21.35-17.4 33.25l-47.2 41.1q-3.75 3.4-8.25 6.05-13.85 8.15-30.2 6.6-11.05-1.05-23.3-6.5l-6.55-3.25q-2.55-5.75-7.6-4.55-20.9-13.85-35.7-38.7-5.05-8.45-8.6-16.9-3.45-8.05-5.5-16.05-2.15-8.35-2.9-16.7 2.2-4.55-0.35-8.2-0.05-4 0.3-8 1.5-19.9 10.6-32.8 4.55-6.45 11-11.1l0.25-0.2 3.9-2.55m-0.4-0.5 37.45-32.55q4.2-4.55 9.6-7.95l1.45-0.9 0.3-0.15m1.5-0.85q5.25-2.85 10.85-4.3 18.45-4.8 40.8 5.25 20.7 9.25 36.45 27.6m-9.85 69.85 3.4 10 17.9-12.4q6.7 13.15 4 28.25l15.15-11.9m-7.35-45.15-6.6 4.4m-42.75 34.5q-3.55-8.4-8.55-16.75-17.2-28.85-42.6-42.85-3.55-2-7.3-3.65-15.7-7.05-29.45-6.8-12.85 0.25-24 6.85m128.15 55.5q-19.05-50.45-67.4-86.65-6.65-5-13.9-9.7l-0.2-0.15m-24.5 57.7q14.1-3.95 31.3 3.75 22.75 10.2 37.55 35l4.55 8.45q2.4 5 4.15 10.05l16.3 0.4q-1.75-5.6-4.1-11.15m-7.85 35.7q1.45 2.25 0.85 4.25t-1.1 2.15l-0.05 0.75-0.05 0.25 16.35 9.6 1.4-4.05q0.7-2.45-0.75-4.9l-16.65-8.05q-0.1-12.5-4.35-24.95m16.3 0.4q5.05 16.3 4.7 32.6l32.75-25.6m-37.45-7 15.55-8.85m-11.5 50.4-1.3 7.95q-3.95 18.2-15.85 29m0.8-46.55q-0.8 8.3-3.4 14.9-4.8 12.35-15.85 18.9-8.45 4.95-18.1 5.15l-3.9-0.15 2 20.4m35.85-44.3q-5.4-1.6-11.05-4.1-3.45-1.55-6.75-3.35l-21.1 14.7q7.85 3 16.45 3.7l-15.4 12.95q-8.65-0.65-18.25-4.95-4.3-1.95-8.3-4.35l-1.3 19.95m132.9-77.25-47.45 37.4m-126.45-56.8 0.2-3.5q0.35-4.6 1.25-8.7 3.25-15.05 13.7-23.35l4.45-3.05q4.3-2.55 8.95-3.8 0.5 11.3 3.6 22.6-1.9 3.5 1.85 6.1 2 5.9 4.75 11.85 3.05 6.65 7.05 13.35 4.6 7.75 9.85 14.45 9.3 11.95 20.55 20.5 0.4 4.55 5.3 3.75l7.4 4.45m-45.45-146.8q-9.6 10.2-13.05 26.2m-12.05 54.65q-6.3-12.1-3.2-24.25m17 15.75-13.8 8.5-18.35 11.3q2.4 3.2 0.15 7.2l33.85-20.9m-27.5 46.85 19.05-9.8q3.95 8.9 8.95 16.5l21.15-13.9m20.55 20.5-22.65 14.65-17.5 11.3q2.1 6.05 6.25 4.3l16.9-11.45 22.3-15.05m-27.95 10.9q-10.95-8.9-19.05-21.25m-53.8-36.1 19.45 3.45q0.55 8.15 2.9 16.25 1.4 4.85 3.45 9.7 2.7 6.45 6.55 12.9 9.7 16.35 22.95 26.35h0.05m-55.7-76.85 19.65 4.45m6.5 33.15-17.4 3.35m70.1 28.75q4.15 2.4 8.6 4.1m-34.4 22.75 2.6-19.7" fill="none" stroke="#000" stroke-opacity=".4"/>
<path d="m-61.65-31.25q5-23 22.65-34.15l1.45-0.9q23.15-13.65 53.45-0.05 20.7 9.25 36.45 27.6 7.25 8.45 13.45 18.9 4.5 7.5 7.85 15.1l-4.65 9.05-26.5 26.8-16.25 7.7-16.35 0.7-4.55-8.45q-14.8-24.8-37.55-35-17.2-7.7-31.3-3.75 0.5 11.3 3.6 22.6-1.9 3.5 1.85 6.1 2 5.9 4.75 11.85l-35.7 25.3-19.45-3q-2.15-8.35-2.9-16.7 2.2-4.55-0.35-8.2-0.05-4 0.3-8 2.5-32.95 25.75-46.65 11.15-6.6 24-6.85" fill-opacity=".14902"/>
</g>
<g id="i">
<use xlink:href="#j"/>
</g>
<radialGradient id="b" cx="0" cy="0" r="819.2" gradientTransform="matrix(.034851 0 0 .034851 -14.35 -11.1)" gradientUnits="userSpaceOnUse">
<stop stop-color="#ffee69" stop-opacity=".8" offset="0"/>
<stop stop-color="#fef18a" stop-opacity="0" offset="1"/>
</radialGradient>
<g id="h">
<path d="m13.65-11.1q0 11.6-8.2 19.8t-19.8 8.2-19.8-8.2-8.2-19.8 8.2-19.8 19.8-8.2 19.8 8.2 8.2 19.8" fill="url(#b)"/>
</g>
<g id="a">
<use xlink:href="#h"/>
</g>
<g id="g">
<path d="m231.8 300.05q2.95-1.65 4.85-2.65 2.7-1.4 3.65-1.4 5.15 0 26.1 11l7 3.7 1.4-2.85q4.15-7.9 8.7-13.75l-24.6-16.65 24.6 16.65q-4.55 5.85-8.7 13.75l21.3 15.95 3.3 2-0.15 0.3-4.05 9.35-4.4 10.85-3.1 7.15q-7.3-4.65-15.2-10.55l-2.7 5.05q7.85 5.8 15.05 10.4l0.6 0.4-0.05-0.45 2.3-4.85q26.6 16.9 45.2 17.5l1.6 0.2 3.45-0.4q4.1-6.1 6.55-12.9l-14.65 1.9q11.4-18.2 1.35-33.9-9.3 1.05-14.85 11.15l-17.1-10.9 17.1 10.9q5.55-10.1 14.85-11.15 7.2-0.9 16.7 3.75-2-22.35-18.35-38.7-8.6-8.65-18.9-13.25-11.9-5.4-26.1-5.4-13.9 0-25.65 5.2-10.55 4.6-19.35 13.45-4.35 4.35-7.75 9.15m78.95 94.05q10.25-4.6 18.8-13.2l4.7-5.15q-19.5 1.5-48.8-17 1.5 9.65 10.1 20.3 4.95 6.05 12.25 12.45l2.95 2.6m-27.25-100q12.15-15.55 27.15-16.45-15 0.9-27.15 16.45" fill="#5e7072"/>
<path d="m231.8 300.05 6.2 7.5-10.95 20.2h-5.7q-0.45 3.95-0.45 8.15 0 3.35 0.3 6.6h9.65 1.65l1.75-5.1q-0.85-12.05 13.85-26.5l19.35 13.5 2.15-5.25-2.15 5.25-19.35-13.5q-14.7 14.45-13.85 26.5l5.85 2.8 1.85-4.65 5.45 2.9-4.35 13.9 8.5 5.75 7.8-3.05 4.05 4.7 6.4-11.8-6.4 11.8 20.85 12.55 11.3 6.75q-8.6-10.65-10.1-20.3l-0.6-0.4q-7.2-4.6-15.05-10.4l2.7-5.05q7.9 5.9 15.2 10.55l3.1-7.15 4.4-10.85q-4.55-3.75-15-10.1l-10.6-6.2q1.85-4.5 3.8-8.45l-7-3.7q-20.95-11-26.1-11-0.95 0-3.65 1.4-1.9 1-4.85 2.65m18.7 40.05-3.1-1.65 3.1 1.65m48.75-14 0.15-0.3-3.3-2 3.15 2.3" fill="#a5babc"/>
<path d="m221.35 327.75h5.7l10.95-20.2-6.2-7.5q-8.6 12.45-10.45 27.7m52.05-17.05q-1.95 3.95-3.8 8.45l10.6 6.2q10.45 6.35 15 10.1l4.05-9.35-3.15-2.3-21.3-15.95-1.4 2.85m-10.3 68.05-3.1 6.85-4.7-2.1-2.55 3.05-2.55 3.1q13.45 8.8 30.25 9.75l10.2-14.65-13.05-3.95 6.65-8.5-20.85-12.55 4.05 4.8-10.2 2.05v10.25l5.85 1.9 4.35 1.4-4.35-1.4 0.3-0.65-0.3 0.65" fill="#85a3a5"/>
<path d="m331.2 325.85q10.05 15.7-1.35 33.9l14.65-1.9q3.7-10.2 3.7-21.95l-0.3-6.3q-9.5-4.65-16.7-3.75m1.7 45.1q-18.6-0.6-45.2-17.5l-2.3 4.85 0.05 0.45q29.3 18.5 48.8 17l-1.35-4.8" fill="#304244"/>
<path d="m234.25 337.4-1.75 5.1h-1.65l-1.75 10h4.9v-1.75 1.75 5.95h4.2v-5.25l7.3 3.85-2.05 3.85 10.8 5.6-2.45 4.85-2.45-2.75-4.85 2.1 6.6 4.85 1.65 11 2.55-3.05 4.7 2.1 3.1-6.85-5.85-1.9v-10.25l10.2-2.05-4.05-4.8-4.05-4.7-7.8 3.05-8.5-5.75 4.35-13.9-5.45-2.9-1.85 4.65-5.85-2.8m18.3 44.8 2.75 1.3-2.75-1.3" fill="#3e5353"/>
<path d="m310.75 394.1-2.95-2.6q-7.3-6.4-12.25-12.45l-11.3-6.75-6.65 8.5 13.05 3.95-10.2 14.65 4.1 0.15q14.25 0 26.2-5.45m-16.3-8.2-3.8-1.15 3.8 1.15" fill="#819698"/>
<path d="m221.35 327.75h5.7l10.95-20.2-6.2-7.5q3.4-4.8 7.75-9.15 8.8-8.85 19.35-13.45l24.6 16.65q-4.55 5.85-8.7 13.75l-1.4 2.85q-1.95 3.95-3.8 8.45l-2.15 5.25-19.35-13.5q-14.7 14.45-13.85 26.5l-1.75 5.1h-1.65-9.65q-0.3-3.25-0.3-6.6 0-4.2 0.45-8.15 1.85-15.25 10.45-27.7m2.2 52.45h-4.9l1.75-10m56.85 10.95q-7.3-4.65-15.2-10.55l-2.7 5.05-6.4 11.8-4.05-4.7-7.8 3.05-8.5-5.75 4.35-13.9 3.1 1.65m48.75-14 17.1 10.9q5.55-10.1 14.85-11.15 10.05 15.7-1.35 33.9l14.65-1.9q-2.45 6.8-6.55 12.9l-3.45 0.4-1.6-0.2q-18.6-0.6-45.2-17.5m-2.25 5.3-0.6-0.4q-7.2-4.6-15.05-10.4m25.4-12.5q-4.55-3.75-15-10.1l-10.6-6.2m-35.6 33.35v-1.75m0.25-13.35 5.85 2.8 1.85-4.65 5.45 2.9m48.7-14.65-21.3-15.95m73.1 21.75q-2-22.35-18.35-38.7-8.6-8.65-18.9-13.25-11.9-5.4-26.1-5.4-13.9 0-25.65 5.2m85.6 80.4q3.7-10.2 3.7-21.95l-0.3-6.3q-9.5-4.65-16.7-3.75m-35.1-2.05 3.15 2.3m35 49.65-4.7 5.15q-8.55 8.6-18.8 13.2m-25.3-35.35q29.3 18.5 48.8 17l-1.35-4.8m-80.15 15.6-1.65-11-6.6-4.85 4.85-2.1 2.45 2.75 2.45-4.85-10.8-5.6 2.05-3.85-7.3-3.85v5.25h-4.2v-5.95m18.75 34.05 2.55-3.05 4.7 2.1 3.1-6.85 4.35 1.4m13 19.25q-16.8-0.95-30.25-9.75l2.55-3.1m10.35-7.8 0.3-0.65m0-18.35 4.05 4.8-10.2 2.05v10.25l5.85 1.9m-7.8 4.75-2.75-1.3m43-3.15-11.3-6.75-20.85-12.55m20.85 12.55-6.65 8.5 13.05 3.95-10.2 14.65 4.1 0.15q14.25 0 26.2-5.45m-20.1-9.35 3.8 1.15m16.2-108.25q-15 0.9-27.15 16.45" fill="none" stroke="#000" stroke-opacity=".4"/>
<path d="m307.3 305.8q-0.8 1.55-1.35 3.3-1.2 3.3-1.6 6.85l8.75 1.25q10 1.8 17.8 4.85h0.05-0.05q-4 1.7-20.65 5.5l-5.15 1.2 0.55 2.3q1.45 5.5 3.95 9.95l8.5-6.55 11.1-8.3-0.2-0.25q-0.4-0.55-0.4-1.35 0-0.75 0.4-1.35 0.4-0.55 0.95-0.55t0.95 0.55q0.4 0.6 0.4 1.35v0.15l0.6-0.4 0.1-0.1-1.05-2.15-0.85-1.6q-2.7-3.75-5.6-6.5-7.75-7.4-17.2-8.15m12.15 46.15q2.25 1.55 4.5 2.35 14.15-9.35 10-24.7l-1.75-4.85q-1.9 5.7-7.45 17.2-2.9 6-5.3 10m12.75-27.2-0.2-0.55-0.1 0.1 0.3 0.45" fill="#a5babc"/>
<path d="m304.35 315.95q-0.7 6.1 0.75 12.8l5.15-1.2q16.65-3.8 20.65-5.5-7.8-3.05-17.8-4.85l-8.75-1.25m5.25 25.05q2.9 5.2 7.25 8.9l2.6 2.05q2.4-4 5.3-10 5.55-11.5 7.45-17.2v-0.7l-0.2 0.15 0.2 0.55-0.3-0.45-0.6 0.4-0.4 1.2-0.95 0.6q-0.4 0-0.75-0.35l-11.1 8.3-8.5 6.55m14.35 13.3q4.5 1.6 9.05 0.4 8.1-2.2 11.55-12.2 2.95-8.55 1-18.6l-11.6 5.7q4.15 15.35-10 24.7" fill="#85a3a5"/>
<path d="m345.55 323.9-0.8-3.35q-2.9-11.05-10-17.8l-10.25 11.2q2.9 2.75 5.6 6.5l0.85 1.6 1.05 2.15 0.2-0.15v0.7l1.75 4.85 11.6-5.7" fill="#537170"/>
<path d="m334.75 302.75-1.15-1.1q-4.75-4.1-9.55-4.95l-6.55 0.25q-6.7 1.8-10.2 8.85 9.45 0.75 17.2 8.15l10.25-11.2" fill="#3e5353"/>
<path d="m331.3 324.7v-0.15q0-0.75-0.4-1.35-0.4-0.55-0.95-0.55t-0.95 0.55q-0.4 0.6-0.4 1.35 0 0.8 0.4 1.35l0.2 0.25q0.35 0.35 0.75 0.35l0.95-0.6 0.4-1.2" fill="#f00"/>
<path d="m307.3 305.8q-0.8 1.55-1.35 3.3-1.2 3.3-1.6 6.85-0.7 6.1 0.75 12.8l0.55 2.3q1.45 5.5 3.95 9.95 2.9 5.2 7.25 8.9l2.6 2.05q2.25 1.55 4.5 2.35 4.5 1.6 9.05 0.4 8.1-2.2 11.55-12.2 2.95-8.55 1-18.6l-0.8-3.35q-2.9-11.05-10-17.8l-1.15-1.1q-4.75-4.1-9.55-4.95l-6.55 0.25q-6.7 1.8-10.2 8.85 9.45 0.75 17.2 8.15 2.9 2.75 5.6 6.5l0.85 1.6h-0.05q-7.8-3.05-17.8-4.85l-8.75-1.25m27.65 8.25 0.2-0.15v0.7l-0.2-0.55-1.05-2.15m0.95 2.25 0.1-0.1m-0.1 0.1-0.6 0.4v-0.15q0-0.75-0.4-1.35-0.4-0.55-0.95-0.55t-0.95 0.55q-0.4 0.6-0.4 1.35 0 0.8 0.4 1.35l0.2 0.25-11.1 8.3-8.5 6.55m19.6-14.85q0.35 0.35 0.75 0.35l0.95-0.6 0.4-1.2m14.25-0.8-11.6 5.7-1.75-4.85q-1.9 5.7-7.45 17.2-2.9 6-5.3 10m11.45-29.9q-4 1.7-20.65 5.5l-5.15 1.2m28.85 0.85q4.15 15.35-10 24.7m10.8-51.55-10.25 11.2" fill="none" stroke="#000" stroke-opacity=".4"/>
</g>
<filter id="f">
<feColorMatrix in="SourceGraphic" result="cxform" values="1.0 0.0 0.0 0.0 0.0 0.0 1.0 0.0 0.0 0.0 0.0 0.0 1.0 0.0 0.0 0.0 0.0 0.0 0.3984375 0.0"/>
<feComposite in2="SourceGraphic" operator="in" result="color-xform"/>
</filter>
<filter id="e">
<feColorMatrix in="SourceGraphic" result="cxform" values="1.0 0.0 0.0 0.0 0.0 0.0 1.0 0.0 0.0 0.0 0.0 0.0 1.0 0.0 0.0 0.0 0.0 0.0 0.328125 0.0"/>
<feComposite in2="SourceGraphic" operator="in" result="color-xform"/>
</filter>
<filter id="d">
<feColorMatrix in="SourceGraphic" result="cxform" values="1.0 0.0 0.0 0.0 0.0 0.0 1.0 0.0 0.0 0.0 0.0 0.0 1.0 0.0 0.0 0.0 0.0 0.0 0.25 0.0"/>
<feComposite in2="SourceGraphic" operator="in" result="color-xform"/>
</filter>
<filter id="c">
<feColorMatrix in="SourceGraphic" result="color-matrix" values="0.908780694008 -1.35788035393 1.51909959316 0.0 -0.0173632800579 0.0466225445271 1.53837251663 -0.5149949193 0.0 -0.0173632837832 -1.51548159122 1.04406452179 1.54141700268 0.0 -0.0173632819206 0.0 0.0 0.0 1.0 0.0"/>
</filter>
</defs>
<use xlink:href="#k"/>
<use transform="matrix(-.79443 0 0 .79443 279.6 422.95)" xlink:href="#i"/>
<use transform="matrix(-1.2787 .73827 .43953 .76129 279.2 410.2)" filter="url(#f)" xlink:href="#a"/>
<use xlink:href="#g"/>
<use transform="matrix(-1.2517 0 0 .44731 271.3 285.75)" filter="url(#e)" xlink:href="#a"/>
<use transform="matrix(-.92953 1.61 .88477 .51082 239.9 459.05)" filter="url(#d)" xlink:href="#a"/>
<use transform="matrix(-.67897 0 0 .61717 321.45 331.9)" filter="url(#c)" xlink:href="#a"/>
</svg>
