<?xml version="1.0" encoding="UTF-8"?>
<svg width="65px" height="43px" version="1.1" viewBox="242.7 178.8 64.5 43.358" xmlns="http://www.w3.org/2000/svg" xmlns:xlink="http://www.w3.org/1999/xlink">
<defs>
<g id="c">
<path d="m0.05 1.45-0.05-0.3 0.05-0.3v0.6" fill="#cdc098"/>
<path d="m0.05-0.8-0.05-0.3q0-0.8 1.3-1.35l0.15-0.05 0.4-0.15 0.55-0.15h0.15l1-0.15h0.3l0.4-0.05h0.25 0.45l1.45 0.2 0.55 0.1 0.7 0.25q1.35 0.55 1.35 1.35v0.1 2.2l-0.1 0.4-1.25 0.9v-2.25l-0.7 0.25-0.55 0.15-1.45 0.15h-0.45-0.25-0.4l-0.3-0.05-0.7-0.05-0.3-0.05-0.15-0.05-0.55-0.15-0.4-0.15-0.15-0.05-0.45-0.2q-0.65-0.4-0.8-0.85m1.8-1.35h-0.1l-0.3 0.15q-0.8 0.35-0.8 0.85l0.05 0.25q0.1 0.3 0.65 0.6l0.4 0.2h0.1l0.55 0.2h0.15l0.3 0.05 0.7 0.1h0.3l0.4 0.05h0.25 0.45l1.45-0.2 0.55-0.1 0.3-0.1 0.5-0.25q0.6-0.3 0.65-0.7v-0.1q0-0.6-1.15-1l-0.3-0.1-0.55-0.15-1.45-0.15h-0.45-0.25-0.4l-0.3 0.05-1 0.15h-0.15l-0.55 0.2" fill="#f5f4de"/>
<path d="m7.65 2.5-0.7 0.25-2 0.3h-0.45-0.25-0.4l-0.3-0.05-0.7-0.05v-2.25l0.7 0.05 0.3 0.05h0.4 0.25 0.45l1.45-0.15 0.55-0.15 0.7-0.25v2.25" fill="#cbc087"/>
<path d="m2.85 2.95-0.3-0.05-0.15-0.05-0.55-0.15-0.4-0.15-0.15-0.05-1.1-0.8-0.15-0.25v-0.6-1.65q0.15 0.45 0.8 0.85l0.45 0.2 0.15 0.05 0.4 0.15 0.55 0.15 0.15 0.05 0.3 0.05v2.25" fill="#a49646"/>
<path d="m1.85-0.1h-0.1l-0.4-0.2q-0.55-0.3-0.65-0.6l-0.05-0.25q0-0.5 0.8-0.85l0.3-0.15h0.1v2.05" fill="#ae976a"/>
<path d="m1.85-2.15 0.55-0.2h0.15l1-0.15v2.75l-0.7-0.1-0.3-0.05h-0.15l-0.55-0.2v-2.05" fill="#d3c7af"/>
<path d="m6.4-2.4 0.55 0.15 0.3 0.1q1.15 0.4 1.15 1v0.1q-0.05 0.4-0.65 0.7l-0.5 0.25-0.3 0.1-0.55 0.1v-2.5" fill="#53452d"/>
<path d="m3.55-2.5 0.3-0.05h0.4 0.25 0.45l1.45 0.15v2.5l-1.45 0.2h-0.45-0.25l-0.4-0.05h-0.3v-2.75" fill="#8a734a"/>
<path d="m0.05-0.8-0.05-0.3q0-0.8 1.3-1.35l0.15-0.05 0.4-0.15 0.55-0.15h0.15l1-0.15h0.3l0.4-0.05h0.25 0.45l1.45 0.2 0.55 0.1 0.7 0.25q1.35 0.55 1.35 1.35v0.1 2.2l-0.1 0.4-1.25 0.9-0.7 0.25-2 0.3h-0.45-0.25-0.4l-0.3-0.05-0.7-0.05-0.3-0.05-0.15-0.05-0.55-0.15-0.4-0.15-0.15-0.05-1.1-0.8-0.15-0.25-0.05-0.3 0.05-0.3v-1.65m0 1.65v0.6" fill="none" stroke="#000" stroke-opacity=".6" stroke-width=".5"/>
<path d="m1.7 1-0.1 0.1 0.4 0.3 0.15 0.4-0.05 0.2-0.2 0.15h-0.3l-0.15-0.1-0.05-0.1v-0.05l0.05-0.05 0.05 0.1h0.1l0.15 0.1h0.2l0.05-0.2-0.05-0.2-0.1-0.15-0.15-0.15-0.25-0.1 0.25-0.4 0.45 0.1-0.05 0.15-0.4-0.1" fill="#585143"/>
<path d="m3 1.1v1.25l0.05 0.05h0.1v0.05h-0.5v-0.05h0.15v-0.05l0.05-0.15v-0.7l-0.05-0.2v-0.05h-0.05l-0.1 0.05v-0.05l0.3-0.15h0.05" fill="#585143"/>
<path d="m3.6 1.5h-0.05l0.15-0.25 0.2-0.05 0.25 0.1 0.05 0.15-0.15 0.3 0.15 0.15 0.1 0.2-0.1 0.3q-0.15 0.2-0.45 0.2l-0.15-0.05-0.05-0.1v-0.05h0.1l0.1 0.05 0.05 0.05h0.1l0.15-0.1 0.1-0.2-0.1-0.2-0.1-0.05-0.15-0.05h-0.05v-0.05l0.15-0.05 0.1-0.1 0.05-0.15-0.05-0.15-0.15-0.05q-0.15 0-0.25 0.15" fill="#585143"/>
<path d="m5.4 2.5-0.8 0.1v-0.05l0.55-0.65 0.05-0.25-0.05-0.2-0.2-0.1-0.15 0.1-0.15 0.15 0.1-0.25 0.25-0.15 0.3 0.1 0.1 0.2-0.05 0.2-0.25 0.4-0.3 0.35 0.35-0.05 0.2-0.05 0.1-0.1-0.05 0.25" fill="#585143"/>
<path d="m7.75 0.7v0.05l-0.2 0.1q-0.1 0-0.15 0.1l-0.15 0.25-0.1 0.2 0.15-0.1 0.15-0.05 0.25 0.05 0.05 0.3-0.1 0.4-0.3 0.15-0.25-0.05-0.15-0.45 0.05-0.35 0.2-0.3 0.25-0.2 0.25-0.1h0.05m-0.6 0.8-0.05 0.2 0.1 0.3 0.2 0.05 0.15-0.05 0.05-0.25-0.05-0.3-0.2-0.1-0.1 0.05-0.1 0.1" fill="#585143"/>
</g>
<radialGradient id="a" cx="0" cy="0" r="819.2" gradientTransform="matrix(.005127 0 0 .005127 4.05 0)" gradientUnits="userSpaceOnUse">
<stop stop-color="#fff" offset="0"/>
<stop stop-color="#fff" stop-opacity="0" offset="1"/>
</radialGradient>
<g id="b">
<path d="m4.05-4.05q1.7 0 2.85 1.15 1.2 1.2 1.2 2.9t-1.2 2.85q-1.15 1.2-2.85 1.2t-2.9-1.2q-1.15-1.15-1.15-2.85t1.15-2.9q1.2-1.15 2.9-1.15" fill="url(#a)"/>
</g>
</defs>
<use transform="matrix(7.1667 0 0 7.1667 242.7 200.3)" xlink:href="#c"/>
<use transform="matrix(.70042 .90186 1.2846 -.99753 293.95 196.7)" xlink:href="#b"/>
</svg>
