<?xml version="1.0" encoding="UTF-8"?>
<svg version="1.1" viewBox="0 0 66.05 142.19" xmlns="http://www.w3.org/2000/svg" xmlns:cc="http://creativecommons.org/ns#" xmlns:dc="http://purl.org/dc/elements/1.1/" xmlns:rdf="http://www.w3.org/1999/02/22-rdf-syntax-ns#" xmlns:xlink="http://www.w3.org/1999/xlink">
<metadata>
<rdf:RDF>
<cc:Work rdf:about="">
<dc:format>image/svg+xml</dc:format>
<dc:type rdf:resource="http://purl.org/dc/dcmitype/StillImage"/>
</cc:Work>
</rdf:RDF>
</metadata>
<g transform="translate(4.775,77.275)">
<use transform="translate(-4.75,-77.25)" width="66" height="142.14999" xlink:href="#a"/>
</g>
<defs>
<g id="a" transform="translate(4.75,77.25)">
<path d="m60.8 46.25h0.25l0.2 0.2-0.65-0.2h0.2m-7.2 0h-2.8l2.8-0.25v0.25m-13 1.9q-0.2 0-0.45 0.2l0.25-0.2h0.2" fill="#555ba0" fill-rule="evenodd"/>
<path d="m32.7-77.25q4.25 4.9 5.55 10.85l0.2 0.65 1.3 29.15v0.85q0.65 17.9 2.35 31.75v0.65q1.9 29.8 14.05 45.75l4.65 3.85h-7.2v-0.25q-15.55-13.2-18.1-31.05-2.55 18.7 4.9 33.2l-0.25 0.2-0.85 1.3-0.2 1.9v0.85q-0.85 4.05-4.45 5.1l-6 0.85h-0.4q-10.25-18.95-10.45-64.9-10.65 36.6-6.8 66.6l-0.85 0.65-2.75 1.3q-10.9-11.5-12.15-26.2l0.4-4.9q0.45-9.35 2.8-30.65 2.1-20 2.55-31.1 0.65-17.25-2.15-31.05 20.9-4.7 33.85-15.35" fill="#06c" fill-rule="evenodd"/>
<path d="m50.8 46.25-10 1.9h-0.4q-7.45-14.5-4.9-33.2 2.55 17.85 18.1 31.05l-2.8 0.25m-22.55 12.1h-6.2q-7.2-0.2-11.05 1.7-3.85-30 6.8-66.6 0.2 45.95 10.45 64.9" fill="#00007d" fill-rule="evenodd"/>
<path d="m7.4 62 2.75 2.55 0.2 0.2q-10 0.85-15.1-3.6v-25.35q1.25 14.7 12.15 26.2" fill="#7bf" fill-rule="evenodd"/>
<path d="m32.7-77.25q4.25 4.9 5.55 10.85l0.2 0.65 1.3 29.15v0.85q0.65 17.9 2.35 31.75v0.65q1.9 29.8 14.05 45.75l4.65 3.85h0.25l0.2 0.2-0.65-0.2h-9.8l-10 1.9h-0.2m-0.45 0.2-0.85 1.3-0.2 1.9v0.85q-0.85 4.05-4.45 5.1l-6 0.85h-6.6q-7.2-0.2-11.05 1.7l-0.85 0.65-2.75 1.3 2.75 2.55 0.2 0.2q-10 0.85-15.1-3.6m45.15-13-0.25 0.2m-32.75 13.65q-10.9-11.5-12.15-26.2" fill="none" stroke="#0f121c" stroke-linecap="round" stroke-linejoin="round" stroke-width=".05"/>
</g>
</defs>
</svg>
