<?xml version="1.0" encoding="UTF-8"?>
<svg version="1.1" viewBox="0 0 42.65 34.85" xmlns="http://www.w3.org/2000/svg" xmlns:cc="http://creativecommons.org/ns#" xmlns:dc="http://purl.org/dc/elements/1.1/" xmlns:rdf="http://www.w3.org/1999/02/22-rdf-syntax-ns#" xmlns:xlink="http://www.w3.org/1999/xlink">
<metadata>
<rdf:RDF>
<cc:Work rdf:about="">
<dc:format>image/svg+xml</dc:format>
<dc:type rdf:resource="http://purl.org/dc/dcmitype/StillImage"/>
</cc:Work>
</rdf:RDF>
</metadata>
<g transform="translate(-253.65 -183.05)">
<use transform="translate(253.65,183.05)" width="42.650002" height="34.849998" xlink:href="#a"/>
</g>
<defs>
<g id="a" transform="translate(-253.65,-183.05)">
<path d="m285.7 184.05v-0.05l0.05 0.05q2.35 0.3 4 0.85l0.25 0.05 2 1.05 0.2 0.15 0.15 0.1 0.25 0.25 0.3 0.6 0.15 0.4q0.25 0.8-0.05 2.75l-0.15 0.85q0.15 4.35 1.45 6.65 1 1.5 1.4 3.1l0.05 0.25 0.05 0.8q-0.05 1.5-1.4 2.95l0.2 0.6 0.05 0.45 1.05 3.25-1.2 1.75-1-1.7-1 0.85-1.2 0.75 1.25 2.5-2.7 1.2-1.35-2.5-3.55 0.95-0.9 0.2-3.95 0.6 0.3 3.35-3.25 0.3-0.8-3.3-1.1 0.05-3.05-0.1-0.9 3.35-3.35-0.6 0.7-3.2q-2.25-0.45-4.3-1.25l-1.2 1.95-3.45-1.3 1.05-2.35-2.5-1.75-1.95 2.95-2.15-0.95 2.6-6.55-0.2-0.2q-1.05-0.95-1.8-2.1-0.6-3.15 1.2-4.35 1.25-1.25 0.95-3.6l-0.5-2.05-0.6-3.2-0.05-0.1 0.05-1.8q0.1-0.45 0.35-0.8 0.95-1.15 3.1-1.5l0.45-0.1h0.15l10.85-1 12 0.1 2.85 0.4z" fill="none" stroke="#382510" stroke-linecap="round" stroke-linejoin="round" stroke-opacity=".30196"/>
<path d="m255.85 206.35 3.2 1.65q9.1 4.25 21.05 5l3.95 0.15-3.95 0.6v-0.75 0.75l0.3 3.35-3.25 0.3-0.8-3.3v-0.85 0.85l-1.1 0.05-3.05-0.1-0.9 3.35-3.35-0.6 0.7-3.2q-2.25-0.45-4.3-1.25l-1.2 1.95-3.45-1.3 1.05-2.35 0.4-0.9-0.4 0.9-2.5-1.75-1.95 2.95-2.15-0.95 1.7-4.55m38.4-1.85 0.35 0.95 0.05 0.45 1.05 3.25-1.2 1.75-1-1.7-0.45-0.85 0.05-0.2 1.15-3.65m-35.2 3.5-0.8 0.9 0.8-0.9m9.6 4.8v0.8-0.8m3.7 0.35-0.15 0.9 0.15-0.9" fill="#be8910" fill-rule="evenodd"/>
<path d="m255.85 206.35 1.85-4.3q16.5 6.4 35.95 1.35l0.6 1.1-1.15 3.65-0.05 0.2 0.45 0.85-1 0.85-1.2 0.75 1.25 2.5-2.7 1.2-1.35-2.5-3.55 0.95-0.9 0.2-3.95-0.15q-11.95-0.75-21.05-5l-3.2-1.65m32.3 4.85 0.35 0.8-0.35-0.8m3.15-0.4-0.45-1.15 0.45 1.15" fill="#7a5a10" fill-rule="evenodd"/>
<path d="m294.25 204.5-0.6-1.1q-19.45 5.05-35.95-1.35l-1.85 4.3-1.7 4.55 2.15 0.95 1.95-2.95 0.8-0.9m25.9 4.95 3.55-0.95-0.35-0.8m-8.05 2.55 3.95-0.6m-3.95 0.6v-0.75m13.4-3.8-1 0.85-1.2 0.75 1.25 2.5-2.7 1.2-1.35-2.5m5-2.8 1 1.7 1.2-1.75-1.05-3.25-0.05-0.45-0.35-0.95m-1.15 3.65-0.05 0.2 0.45 0.85m-2.65 0.45 0.45 1.15m-14.95 3.3 0.8 3.3 3.25-0.3-0.3-3.35m-19.35-3.1-1.05 2.35 3.45 1.3 1.2-1.95q2.05 0.8 4.3 1.25v-0.8m-7.5-3.05-0.4 0.9-2.5-1.75m10.4 4.7-0.7 3.2 3.35 0.6 0.9-3.35 0.15-0.9m4 0.95v-0.85m-4.15 0.8 3.05 0.1 1.1-0.05" fill="none" stroke="#382510" stroke-linecap="round" stroke-linejoin="round" stroke-opacity=".30196" stroke-width=".7"/>
<path d="m275.2 184.4h0.4l-0.4 0.05v-0.05" fill="#32361d" fill-rule="evenodd"/>
<path d="m285.75 184.05h-0.05v-0.05l0.05 0.05" fill="#f1e7bf" fill-rule="evenodd"/>
<path d="m255.85 188.8v0.05h-0.05l0.05-0.05" fill="#d4c294" fill-rule="evenodd"/>
<path d="m255.75 188.75 0.1 0.05-0.05 0.05-0.05-0.1m36.75-2.2-0.05-0.15-0.1-0.15 0.25 0.25-0.1 0.05m-24.4 9.5 0.1 0.05-0.05 0.05-0.05-0.1" fill="url(#d)" fill-rule="evenodd"/>
<path d="m288.7 190.9-0.65 0.5-1.75 1.2-0.65 0.3h-0.05l-0.5 0.15-0.25 0.15-0.5 0.15-2.45 0.75-1.5 0.35-0.35 0.05h-0.1l-0.7 0.1h-0.1l-2.5 0.25h-0.8l-0.55 0.1h-0.4l-0.15-0.1-0.7-0.05-2.3-0.2-0.7-0.1-1.95-0.55-0.6-0.15-0.35-0.15h-0.1l-1-0.35-0.9-0.25-1.25-0.35-1.2-0.4-0.2-0.05-1.2-0.6q-0.3-0.25-0.75-0.4l-1.75-1.05-0.1-0.05h-0.05l-0.2-0.2h-0.1l-0.5-1.55-0.05-0.5-0.05-0.6v-0.05l0.1-0.15 0.75-0.95q0.3-0.4 1.1-0.45 0.25-0.2 0.65-0.35l3.25-0.5 0.7 0.2 0.6-0.25 9.3-0.4v0.05l0.4-0.05h0.05l4.65-0.25h0.4l0.05-0.05 3.8 0.75 0.45 0.15 0.3 0.05h0.15l2.9 1.05 0.4 0.1 0.6 0.25 0.65 0.4 0.15 0.45q0.2 0.95-0.3 2.15l-0.05 0.1-0.35 0.45-0.45 0.55-0.3 0.35" fill="url(#c)" fill-rule="evenodd"/>
<path d="m290.9 191.7q-0.9-1.25-2.2-0.8l0.3-0.35 0.45-0.55 0.35-0.45q0.9 0.45 1.7 1.6l0.45 0.7q0.4 0.85 0.6 2.2l-1 0.95 0.1-0.25v-0.05q-0.2-2-0.75-3m2.9 13.7-0.9 0.65q0.05-2.4-1.1-4.55l0.65-0.6q1.3 2.1 1.35 4.5" fill="#804b47" fill-rule="evenodd"/>
<path d="m292.55 194.05 0.05 0.6q-1.15 3.3-1.05 4.95l0.65 0.9 0.25 0.4-0.65 0.6-0.75-1.2v-0.05l-0.45-0.6q0.15-2.85 0.95-4.65l1-0.95" fill="#3c2222" fill-rule="evenodd"/>
<path d="m255.85 188.85 0.35 0.75 1.25 1.6 0.35 0.3 0.5 0.4 0.7 0.5 2.75 1.6 0.65 0.35 0.7 0.25 0.05 0.05 4.3 1.2 0.65 0.2 0.05 0.1 0.05-0.05 1.65 0.35 0.6 0.15 2.2 0.4 0.95 0.1 0.75 0.05 4.65-0.15 0.3-0.1 0.9-0.2 0.75-0.2 4.3-1.2 0.2-0.1 0.8-0.25q2-0.85 4.05-2.75l0.6-0.5q0.55 1 0.75 3v0.05l-0.1 0.25q-0.8 1.8-0.95 4.65l0.45 0.6v0.05l0.75 1.2q1.15 2.15 1.1 4.55l-4.35 2.1h-0.15l-0.75 0.3-5 1.5h-0.1l-0.85 0.25-1.6 0.4-3.65 0.35-0.8 0.05q-3.65-0.05-7.45-1.1l-0.7-0.25q-2.7-0.7-5.4-1.95l-1.05-0.4-0.15-0.15q-2.2-1.05-3.8-2.5l-0.55-0.5q-1.05-0.95-1.8-2.1-0.6-3.15 1.2-4.35 1.25-1.25 0.95-3.6l-0.5-2.05-0.6-3.2h0.05" fill="url(#b)" fill-rule="evenodd"/>
<path d="m285.7 184.05h0.05q2.35 0.3 4 0.85l0.25 0.05 2 1.05 0.2 0.15 0.15 0.1 0.1 0.15 0.05 0.15 0.1 0.45 0.05 1.4 0.1 0.1q0.1 0.8-0.6 1.85l-0.65 0.8q-0.8-1.15-1.7-1.6l0.05-0.1q0.5-1.2 0.3-2.15l-0.15-0.45-0.65-0.4-0.6-0.25-0.4-0.1-2.9-1.05h-0.15l-0.3-0.05-0.45-0.15-3.8-0.75-0.05 0.05h-0.4l-4.65 0.25h-0.45l-9.3 0.4-0.6 0.25-0.7-0.2-3.25 0.5q-0.4 0.15-0.65 0.35-0.8 0.05-1.1 0.45l-0.75 0.95-0.1 0.15v0.05l0.05 0.6 0.05 0.5 0.5 1.55h0.1l0.2 0.2h0.05l0.1 0.05 1.75 1.05q0.45 0.15 0.75 0.4l1.2 0.6 0.2 0.05 1.2 0.4 1.25 0.35 0.9 0.25 1 0.35h0.1l0.35 0.15 0.6 0.15 1.95 0.55 0.7 0.1 2.3 0.2 0.7 0.05 0.15 0.1h0.4l0.55-0.1h0.8l2.5-0.25h0.1l0.7-0.1h0.1l0.35-0.05 1.5-0.35 2.45-0.75 0.5-0.15 0.25-0.15 0.5-0.15h0.05l0.65-0.3 1.75-1.2 0.65-0.5q1.3-0.45 2.2 0.8l-0.6 0.5q-2.05 1.9-4.05 2.75l-0.8 0.25-0.2 0.1-4.3 1.2-0.75 0.2-0.9 0.2-0.3 0.1-10.5-2.05-5.35-0.3-0.05-0.05-0.7-0.25-0.65-0.35-2.75-1.6-0.7-0.5-0.5-0.4-0.35-0.3-1.25-1.6-0.35-0.75v-0.05l-0.1-0.05 0.05-1.8q0.1-0.45 0.35-0.8 0.95-1.15 3.1-1.5l0.45-0.1h0.15l0.3-0.05 0.55-0.05 10-0.9 12 0.1 2.85 0.4h0.15" fill="#fdb40b" fill-rule="evenodd"/>
<path d="m291.5 191.15 0.65-0.8q0.7-1.05 0.6-1.85l-0.1-0.1-0.05-1.4-0.1-0.45 0.1-0.05 0.3 0.6 0.15 0.4q0.25 0.8-0.05 2.75l-0.15 0.85q0.15 4.35 1.45 6.65 1.1 1.6 1.45 3.35l0.05 0.8q-0.05 1.8-2 3.5-0.05-2.4-1.35-4.5l-0.25-0.4-0.65-0.9q-0.1-1.65 1.05-4.95l-0.05-0.6q-0.2-1.35-0.6-2.2l-0.45-0.7" fill="#eba501" fill-rule="evenodd"/>
<path d="m263.15 194.65 5.35 0.3 10.5 2.05-4.65 0.15-0.75-0.05-0.95-0.1-2.2-0.4-0.6-0.15-1.65-0.35-0.1-0.05-0.65-0.2-4.3-1.2" fill="#fdd32d" fill-rule="evenodd"/>
<path d="m288.7 190.9-0.65 0.5-1.75 1.2-0.65 0.3m-0.05 0-0.5 0.15-0.25 0.15-0.5 0.15-2.45 0.75-1.5 0.35-0.35 0.05m-0.1 0-0.7 0.1m-0.1 0-2.5 0.25h-0.8l-0.55 0.1h-0.4m-0.15-0.1-0.7-0.05-2.3-0.2-0.7-0.1-1.95-0.55-0.6-0.15-0.35-0.15m-0.1 0-1-0.35-0.9-0.25-1.25-0.35-1.2-0.4-0.2-0.05-1.2-0.6q-0.3-0.25-0.75-0.4l-1.75-1.05-0.1-0.05h-0.05m-0.15-0.15-0.05-0.05m29.25 0.95 0.3-0.35 0.45-0.55 0.35-0.45" fill="none" stroke="#382510" stroke-linecap="round" stroke-linejoin="round" stroke-opacity=".30196" stroke-width=".5"/>
<path d="m285.7 184.05h-0.15l-2.85-0.4-12-0.1-10 0.9m-0.55 0.05-0.3 0.05h-0.15l-0.45 0.1q-2.15 0.35-3.1 1.5-0.25 0.35-0.35 0.8l-0.05 1.8m36.6-2.5-0.15-0.1-0.2-0.15-2-1.05-0.25-0.05q-1.65-0.55-4-0.85l-0.05-0.05v0.05m6.9 2.45 0.3 0.6 0.15 0.4q0.25 0.8-0.05 2.75l-0.15 0.85q0.15 4.35 1.45 6.65 1.1 1.6 1.45 3.35l0.05 0.8q-0.05 1.8-2 3.5l-0.9 0.65-4.35 2.1m-0.15 0-0.75 0.3-5 1.5m-0.1 0-0.85 0.25-1.6 0.4-3.65 0.35-0.8 0.05q-3.65-0.05-7.45-1.1l-0.7-0.25q-2.7-0.7-5.4-1.95l-1.05-0.4-0.15-0.15q-2.2-1.05-3.8-2.5l-0.55-0.5q-1.05-0.95-1.8-2.1-0.6-3.15 1.2-4.35 1.25-1.25 0.95-3.6l-0.5-2.05-0.6-3.2-0.05-0.1m36.6-2.5 0.25 0.25" fill="none" stroke="#382510" stroke-linecap="round" stroke-linejoin="round" stroke-opacity=".4"/>
<path d="m272.7 205.4-0.9 0.45-0.7-0.95 0.35-1.3 0.8-0.75 1 0.1 0.4 0.85-0.95 1.6m-4.2-2.95q0.5 1 0.3 1.8l-0.9 0.6-1.1-1.05v-1.25l0.9-0.75 0.8 0.65m-3.35-0.1-1.05 1.1 0.7 1.35 0.05 0.05q1.6-0.95 1.45 1.2-0.6 1-0.3 2.05 0.25 1 1.85-0.45 1.2-0.15 2.25 0.9l0.05 0.85q0.75 1.25 1.65 0l0.05-0.85q0.85-0.95 1.95-0.3l0.5 0.8q1.5 0.3 1.5-0.4l-0.3-0.75q-0.1-0.3 0.1-0.7 0.25-0.5-0.65-1.25 0.35-1.05 1.25-1.65l0.5-0.05 0.8-1.7-2.9-3.35q-2.55-1.3-4.5-1.35l-2.75 0.8-1.7 1.85-0.5 1.85" fill="#574a22" fill-opacity=".8" fill-rule="evenodd"/>
<path d="m290.55 204.05 0.15-0.3 0.7-0.5 2.3 0.05q-0.85 1-2.35 1.6l-0.4-0.1q-0.55-0.25-0.4-0.75" fill="#6b622c" fill-rule="evenodd"/>
<path d="m293.7 203.3-2.3-0.05q1.75-1.05 2.05-1.7 0.75 0 1 0.45l-0.75 1.3" fill="#ac9c46" fill-rule="evenodd"/>
<path d="m290.55 204.05q-0.15 0.5 0.4 0.75l-1.6 1.15q1-1 0.05-1.35l0.05-0.2 1.1-0.35" fill-opacity=".2" fill-rule="evenodd"/>
<path d="m291.4 203.25-0.7 0.5-0.15 0.3q-0.15 0.5 0.4 0.75l0.4 0.1q1.5-0.6 2.35-1.6m-2.3-0.05q1.75-1.05 2.05-1.7 0.75 0 1 0.45l1.15-1.15m-1.15 1.15-0.75 1.3m-4.25 1.1 1.1-0.35m-1.2 1.9-0.4 0.2m2-1.35-1.6 1.15" fill="none" stroke="#000" stroke-linecap="round" stroke-linejoin="round" stroke-opacity=".2" stroke-width=".6"/>
<path d="m292.75 194.55q0.85 2.5-0.5 5.15-8.3 9.45-14.8 0.8 7.8-0.8 15.3-5.95" fill="#65471b" fill-opacity=".2" fill-rule="evenodd"/>
<path d="m257.65 193.2q-0.75 2.35-0.85 4.8 1 8.15 4.75-0.4-2.45-0.2-3.9-4.4" fill="#65471b" fill-opacity=".2" fill-rule="evenodd"/>
<path d="m291.3 196.3q0.7 1.35-0.25 3.1-5.85 6.35-10.5 1.9 5.5-1.2 10.75-5" fill="#65471b" fill-opacity=".2" fill-rule="evenodd"/>
<path d="m257.5 194.85q-0.55 1.4-0.5 3 1.05 5.35 3.8 0.25-1.95-0.35-3.3-3.25" fill="#65471b" fill-opacity=".2" fill-rule="evenodd"/>
<path d="m262.4 200.1q7.9 2.55 15.5 2.7-5 5.15-14.35 0.2-1.55-1.5-1.15-2.9" fill-opacity=".2" fill-rule="evenodd"/>
<path d="m287.15 192.3-1.1-0.4-2.65 0.95 0.45 0.35q2.1-0.3 3.3-0.9m1 2.8-0.85-2.5q-1.45 0.65-2.6 1.9l0.9 3.55v0.05l1.65 0.4 0.9-3.4" fill="#e4daa6" fill-rule="evenodd"/>
<path d="m287.3 192.6-0.15-0.3q-1.2 0.6-3.3 0.9l0.85 1.3q1.15-1.25 2.6-1.9" fill="#f7f3dd" fill-rule="evenodd"/>
<path d="m283.4 192.85 0.15 0.6 0.25 0.15 0.4 0.55 1.35 6.25-0.45 0.1 0.85 0.4-0.35-2.8v-0.05l-0.9-3.55-0.85-1.3-0.45-0.35" fill="#716044" fill-rule="evenodd"/>
<path d="m283.55 193.45 1.55 7.05 0.45-0.1-1.35-6.25-0.4-0.55-0.25-0.15" fill-opacity=".30196" fill-rule="evenodd"/>
<path d="m285.95 200.9h0.25q1.7-0.6 2.5-1.35 0.05-2.05-0.55-4.45l-0.9 3.4-1.65-0.4 0.35 2.8" fill="#b89f65" fill-rule="evenodd"/>
<path d="m287.15 192.3-1.1-0.4-2.65 0.95 0.15 0.6m1.55 7.05 0.85 0.4h0.25q1.7-0.6 2.5-1.35 0.05-2.05-0.55-4.45l-0.85-2.5-0.15-0.3m-2.05 8.2 0.45-0.1-1.35-6.25-0.4-0.55-0.25-0.15" fill="none" stroke="#382510" stroke-linecap="round" stroke-linejoin="round" stroke-opacity=".30196" stroke-width=".7"/>
<path d="m258.6 190.5 0.7-0.5 1.75 0.7-0.35 0.35q-1.3-0.1-2.1-0.55m-0.55 2.75 0.45-2.5q0.95 0.55 1.75 1.6-0.35 1.8-0.55 3.5l-1.1 0.55-0.55-3.15" fill="#e4daa6" fill-rule="evenodd"/>
<path d="m258.5 190.75 0.1-0.25q0.8 0.45 2.1 0.55l-0.45 1.3q-0.8-1.05-1.75-1.6" fill="#f7f3dd" fill-rule="evenodd"/>
<path d="m261.05 190.7-0.1 0.6-0.2 0.1-0.25 0.6-0.8 6.05h0.3l-0.5 0.55 0.2-2.75q0.2-1.7 0.55-3.5l0.45-1.3 0.35-0.35" fill="#716044" fill-rule="evenodd"/>
<path d="m260.95 191.3-0.95 6.75h-0.3l0.8-6.05 0.25-0.6 0.2-0.1" fill-opacity=".30196" fill-rule="evenodd"/>
<path d="m259.5 198.6h-0.15q-1.05-0.4-1.6-1.05-0.1-1.95 0.3-4.3l0.55 3.15 1.1-0.55-0.2 2.75" fill="#b89f65" fill-rule="evenodd"/>
<path d="m258.6 190.5 0.7-0.5 1.75 0.7-0.1 0.6m-0.95 6.75-0.5 0.55h-0.15q-1.05-0.4-1.6-1.05-0.1-1.95 0.3-4.3l0.45-2.5 0.1-0.25m1.4 7.55h-0.3l0.8-6.05 0.25-0.6 0.2-0.1" fill="none" stroke="#382510" stroke-linecap="round" stroke-linejoin="round" stroke-opacity=".30196" stroke-width=".7"/>
</g>
<linearGradient id="d" x1="-819.2" x2="819.2" gradientTransform="matrix(.0169 -2e-4 3e-4 .0149 278.35 198.65)" gradientUnits="userSpaceOnUse">
<stop stop-color="#383f22" offset="0"/>
<stop stop-color="#3c3c00" offset=".88235"/>
</linearGradient>
<linearGradient id="c" x1="-819.2" x2="819.2" gradientTransform="matrix(0 .0066 -.0192 0 274.5 189.5)" gradientUnits="userSpaceOnUse">
<stop stop-color="#c17402" offset=".33333"/>
<stop stop-color="#8d4803" offset=".88235"/>
</linearGradient>
<linearGradient id="b" x1="-819.2" x2="819.2" gradientTransform="matrix(.0234 0 0 .0135 273.75 199.9)" gradientUnits="userSpaceOnUse">
<stop stop-color="#eba501" offset=".33333"/>
<stop stop-color="#bc7705" offset=".88235"/>
</linearGradient>
</defs>
</svg>
