<?xml version="1.0" encoding="UTF-8"?>
<svg version="1.1" viewBox="0 0 95.6 109.85" xmlns="http://www.w3.org/2000/svg" xmlns:cc="http://creativecommons.org/ns#" xmlns:dc="http://purl.org/dc/elements/1.1/" xmlns:rdf="http://www.w3.org/1999/02/22-rdf-syntax-ns#" xmlns:xlink="http://www.w3.org/1999/xlink">
<metadata>
<rdf:RDF>
<cc:Work rdf:about="">
<dc:format>image/svg+xml</dc:format>
<dc:type rdf:resource="http://purl.org/dc/dcmitype/StillImage"/>
</cc:Work>
</rdf:RDF>
</metadata>
<g transform="translate(1.9997 -75)">
<use transform="translate(-2,75)" width="95.599998" height="109.85" xlink:href="#a"/>
</g>
<defs>
<g id="a" transform="translate(2,-75)">
<path d="m73.5 94.25q-1.1 5.2-5.95 10.15-8.7 7.15-19.9 2.9-1.6 2.6-1.9 3.65-0.5 1.6-0.05 3.6l0.4 1.6q0.3 1 1.2 1.75l-0.6-1.8q6.65-2 12.15-0.9l3.65 4.45 0.2 0.05 8.85 2.35q4.25 0.8 8 4.7l0.15 0.2 0.3 0.3q2.9 4.25 6.8 5.5 2.95 5.6 4.8 7.7-1.45 3.4-4.05 6.85l2.25-2.35q-1.25 6.55-0.3 11.05 1 4.5 0.4 10.15-4.95 3.35-9.65 8.3-1.6 1.65-4.15 5.7-2.75 1.35-8.05 2-4.8-1.35-13.95 0.1l-4.35 0.6q-4.95-7-13.6-14.15-2.2-1.8-5.95-3.6-2.85-6.65-4.7-15.35l2-2.55q2.55-9.45 6.4-15.4 3.8-6 4.3-8.1-0.3-3.2-0.2-4.6 0.75-0.6 5.3-2.15l0.15-0.05v0.05l-0.15 1.85-0.05 0.3-0.05 0.05q0.65-0.7 0.75-1.45l0.1-3.15-0.05-0.55-0.7-2.75-2.25-1.9-9.5 4.3-4.4 0.2q-5.35-1-8.4-4.7-3-3.7-18.75-2.35 17.05-18.2 29.9-11.25l-0.05-0.05 0.1 0.05q2.55 1.4 4.9 3.8l5.65 7.4 0.05 0.15 1.05 1.8 3.45 1.4 2.35-3q-10.95-24.6 44.2-30.1-14.4 7.95-18.1 17.25m-23.25 36.15q-5.35 5.2-8.1 10.4-2.75 5.15-3.65 8.7-0.95 3.6-1.25 8.95l1-5.1 1.25 3.25q2 4.45 4.1 6.85 3.85 4.45 11.85 7.8l-2.6 2.2q4.05-3.1 4.25-3.05l3.4 0.5q1.15-0.6 2.65-0.3 1.45 0.25 4.35-2.2 2.9-2.5 7.05-4.9l-0.6 3.6q2.55-6.95 1.8-13.8-0.75-6.95-2.35-14.6l4.25 3.1q-5.3-5.3-10.2-6.85-4.95-1.6-9.55-2.55t-11.7-4.95l4.05 2.95" fill-rule="evenodd"/>
<path d="m73.5 94.25q-1.1 5.2-5.95 10.15-8.7 7.15-19.9 2.9-1.6 2.6-1.9 3.65-0.5 1.6-0.05 3.6l0.4 1.6q0.3 1 1.2 1.75l-0.6-1.8q6.65-2 12.15-0.9l3.65 4.45 0.2 0.05 8.85 2.35q4.25 0.8 8 4.7l0.15 0.2 0.3 0.3q2.9 4.25 6.8 5.5 2.95 5.6 4.8 7.7-1.45 3.4-4.05 6.85l2.25-2.35q-1.25 6.55-0.3 11.05 1 4.5 0.4 10.15-4.95 3.35-9.65 8.3-1.6 1.65-4.15 5.7-2.75 1.35-8.05 2-4.8-1.35-13.95 0.1l-4.35 0.6q-4.95-7-13.6-14.15-2.2-1.8-5.95-3.6-2.85-6.65-4.7-15.35l2-2.55q2.55-9.45 6.4-15.4 3.8-6 4.3-8.1-0.3-3.2-0.2-4.6 0.75-0.6 5.3-2.15l0.15-0.05v0.05l-0.15 1.85-0.05 0.3-0.05 0.05q0.65-0.7 0.75-1.45l0.1-3.15-0.05-0.55-0.7-2.75-2.25-1.9-9.5 4.3-4.4 0.2q-5.35-1-8.4-4.7-3-3.7-18.75-2.35 17.05-18.2 29.9-11.25l-0.05-0.05 0.1 0.05q2.55 1.4 4.9 3.8l5.65 7.4 0.05 0.15 1.05 1.8 3.45 1.4 2.35-3q-10.95-24.6 44.2-30.1-14.4 7.95-18.1 17.25m-23.25 36.15-4.05-2.95q7.1 4 11.7 4.95t9.55 2.55q4.9 1.55 10.2 6.85l-4.25-3.1q1.6 7.65 2.35 14.6 0.75 6.85-1.8 13.8l0.6-3.6q-4.15 2.4-7.05 4.9-2.9 2.45-4.35 2.2-1.5-0.3-2.65 0.3l-3.4-0.5q-0.2-0.05-4.25 3.05l2.6-2.2q-8-3.35-11.85-7.8-2.1-2.4-4.1-6.85l-1.25-3.25-1 5.1q0.3-5.35 1.25-8.95 0.9-3.55 3.65-8.7 2.75-5.2 8.1-10.4" fill="none" stroke="#000" stroke-linecap="round" stroke-linejoin="round" stroke-opacity=".6" stroke-width="4"/>
<path d="m43.45 116.95q0.15 1.2-0.25 2.2 0.65-0.7 0.75-1.45l0.1-3.15-0.05-0.55-0.7-2.75-4.05-3.45 5.8 2.3 4.05-5.2q-2.9 4.6-3.35 6.05-0.5 1.6-0.05 3.6l0.4 1.6q0.3 1 1.2 1.75l-0.6-1.8q6.65-2 12.15-0.9l3.65 4.45 9.05 2.4q4.5 0.85 8.45 5.2 2.9 4.25 6.8 5.5 2.95 5.6 4.8 7.7-1.45 3.4-4.05 6.85l2.25-2.35q-1.25 6.55-0.3 11.05 1 4.5 0.4 10.15-4.95 3.35-9.65 8.3-1.6 1.65-4.15 5.7-2.75 1.35-8.05 2-4.8-1.35-13.95 0.1l-4.35 0.6q-4.95-7-13.6-14.15-2.2-1.8-5.95-3.6-2.85-6.65-4.7-15.35l2-2.55q2.55-9.45 6.4-15.4 3.8-6 4.3-8.1-0.3-3.2-0.2-4.6 0.75-0.6 5.3-2.15h0.15m6.8 13.45q-5.35 5.2-8.1 10.4-2.75 5.15-3.65 8.7-0.95 3.6-1.25 8.95l1-5.1q2.5 6.9 5.35 10.1 3.85 4.45 11.85 7.8l-2.6 2.2q4.05-3.1 4.25-3.05l3.4 0.5q1.15-0.6 2.65-0.3 1.45 0.25 4.35-2.2 2.9-2.5 7.05-4.9l-0.6 3.6q2.55-6.95 1.8-13.8-0.75-6.95-2.35-14.6l4.25 3.1q-5.3-5.3-10.2-6.85-4.95-1.6-9.55-2.55t-11.7-4.95l4.05 2.95" fill="#895f38" fill-rule="evenodd"/>
<path d="m43.3 116.95 0.15-0.05v0.05h-0.15" fill="#6c322b" fill-rule="evenodd"/>
<path d="m50.25 130.4-4.05-2.95q7.1 4 11.7 4.95t9.55 2.55q4.9 1.55 10.2 6.85l-4.25-3.1q1.6 7.65 2.35 14.6 0.75 6.85-1.8 13.8l0.6-3.6q-4.15 2.4-7.05 4.9-2.9 2.45-4.35 2.2-1.5-0.3-2.65 0.3l-3.4-0.5q-0.2-0.05-4.25 3.05l2.6-2.2q-8-3.35-11.85-7.8-2.85-3.2-5.35-10.1l-1 5.1q0.3-5.35 1.25-8.95 0.9-3.55 3.65-8.7 2.75-5.2 8.1-10.4z" fill="none" stroke="#000" stroke-linecap="round" stroke-linejoin="round" stroke-opacity=".6" stroke-width=".05"/>
<path d="m73.5 94.25q-1.1 5.2-5.95 10.15-8.75 7.2-20.05 2.85-11.25-24.75 44.1-30.25-14.4 7.95-18.1 17.25m-46.35 19.6q-5.35-1-8.4-4.7-3-3.7-18.75-2.35 25.7-27.35 41.7 2.15-9.15 5.85-14.55 4.9" fill="#690" fill-rule="evenodd"/>
<path d="m66.45 81.55q-0.85 1.7-0.1 3.2 7.2-3.75 21.75-7.1-15.35 4.1-23.15 9.25 1.25 0.8 5.8 1.1l-6.75-0.35q-3.1 1.15-4.55 3.3l9.35 1.15-10.75-0.3q-2.45 1.85-4.45 4.65 3.3 1.65 10.95 1.6-6.3 1.2-11.7-0.25-2.35 3.05-3.45 6l7-0.2q-4.15 1.6-8.3 1.45l0.25-1.5q-0.7-3.35-0.45-8.95 0.25 5.3 1.4 7.2 1.9-5.35 3.1-6.75-0.3-3.9 0.1-5.05 0 3.45 0.75 4.1l4.6-4.4 0.95-4.75-0.05 3.85q3.55-2.55 6.5-3.75 0.5-3.05 1.2-3.5m-45.9 16.6-1.9-3.15 3 3.35 4.6 0.6q-0.7-1.9-2.4-4.6 1.45 0.8 4.55 5.05 2.3 0.4 5.5 2.85l-4.05-6.75 6.1 7.65 4.6 3.75-0.9 0.7q-3.55 2.45-8.1 3.5 5.4-2.3 6.6-4.6-3.6-2.7-5.7-3.05-3.2 4.2-10.85 5.35 6.5-1.4 9.45-6.15-5.65-2.4-8.4-2.3-3.05 4.2-6.5 6.7 2.75-3.1 5.15-6.6-2.1-1.05-4.45 0.05-1.6 2.25-3.6 4.15 2.35-2.9 2.7-4.2-6.1 0.25-13.7 5 6.95-4.9 12-5.9-0.35-1.65-1.35-2.35 0.45-0.15 2.1 1.95 2.15-0.9 5.55-1" fill="#360" fill-rule="evenodd"/>
<path d="m66.25 86.8q0.95 0.55 2.5 0.55 0.75-2.05 4-3.95-4.3 1.7-6.5 3.4m25.35-9.8q-14.4 7.95-18.1 17.25-1.1 5.2-5.95 10.15-8.7 7.15-19.9 2.9-1.6 2.6-1.9 3.65-0.5 1.6-0.05 3.6l0.4 1.6q0.3 1 1.2 1.75l-0.6-1.8q10.45 4.25 12.15-0.9l3.65 4.45q2.9 0.85 5.15 4.5l10.7 4.6q-1.15-4.6 1.65-1.5 2.9 4.25 6.8 5.5 2.95 5.6 4.8 7.7-1.45 3.4-4.05 6.85l2.25-2.35q-1.25 6.55-0.3 11.05 1 4.5 0.4 10.15-4.95 3.35-9.65 8.3-1.6 1.65-4.15 5.7-2.75 1.35-8.05 2-4.8-1.35-13.95 0.1l-4.35 0.6q-3.3-7-8.85-12.1-5.65-5.1-8.6-5.65l-4.65-13.75 2.3-1.65q2.15-0.35 1.95-2.3 2.75-8.6 5.1-14.2 2.8-6.6 5.35-6.85l0.5-3.1q-1.45-1 1-0.95 14.85 0.8 0.85-2.35l-0.2-0.15 0.2-3.05-0.05-2.2-0.05-0.15-1.3-3.15-2.25-1.9q-8.65 5.4-13.6 4.35t-1.75-5.8q0.4-0.4-2.55 0.4 1.8-0.95 2.25-3.65-1.8-4.55-7.5 0.75l1.55-3.45q-0.15-1.5-2.85-1.85-2.3 4.2-2.85 3.85 1.55-2.2 1.45-3.85l-3.1 0.35q2.95-1.05 1.1-2.95 0.9 0.6 1.1 1.7 3.05-0.25 5.15-1.4 0.75-0.1-0.3-1.95 1.55 1.2 2.35 2.95 4.25-0.35 2.95-3.6l3.6 4.4q2.35 0.35 2.65-2.65l-0.85-1.45 1.75 1.7q4.05 1.45 8.95 9.7l1.05 1.8 3.45 1.4 2.35-3q-2.7-8.6 0.55-10.15l0.1 1.4q1.25-5.4 4.25-6.65 0.15-0.35 0.2 0.95 2.65-5.05 5.85-5.35 0.25-0.25 0.35 0.65 3.6-3.4 5.3-3.75l2.1 0.1q6.4-4.95 25.5-7.3m-36.95 19.15q0.6 0.95 3.05 1.1-0.65-1.5 0.55-4.9-3.35 2.8-3.6 3.8m-11.4 22.95 0.2-2.2q0.15 1.2-0.2 2.2m10.55-15.75q-1.45-1.45-0.8-5-2.55 3.45-2.8 5.3l3.6-0.3m-3.55 27.05q-5.35 5.2-8.1 10.4-2.75 5.15-3.65 8.7-0.95 3.6-1.25 8.95l1-5.1q2.5 6.9 5.05 10.75 2.5 3.85 10.55 8.35l-1 1q4.05-3.1 4.25-3.05l1.6 2.8 3.05 1.2q1.35 0.4 3.35 0.05 2.05-0.4 6.6-2.2l0.3 2.7q8.1-11.15 6.85-18.2-1.2-7.1-0.5-12.85l-3.45-3.95 2.75 1.85q-5.3-5.3-10.2-6.85-4.95-1.6-9.55-2.55t-11.7-4.95l4.05 2.95m10.65-39.8q1.25 1.1 3.75 0.3-1.15-0.9-0.6-2.9-2.6 1.8-3.15 2.6" fill="#273500" fill-opacity=".4" fill-rule="evenodd"/>
<path d="m46.95 130.25-0.6-2.65 3.9 2.8q-5.35 5.2-8.1 10.4-2.75 5.15-3.65 8.7-0.85 3.05-1.1 7.35-2.9-5.1-0.55-5.05 2.65-10.8 5.15-14.45l4.95-7.1m42.85 14.7q-1.25 6.55-0.3 11.05 1 4.5 0.4 10.15-4.95 3.35-9.65 8.3-1.6 1.65-4.15 5.7-2.75 1.35-8.05 2l-9.95-0.45-7.1 1.05q13.15-4.35 15.4-2.95 2.2 1.4 4.65 0.35 2.45-1 5.1-7.6l-2.35 7.5 7.05-12.15q9.5-3.55 4.9-5.8 3.8-16.5 2.25-15.25l1.8-1.9m-53.35 16.45 0.8-3v0.05l-0.6 2.35q1.75-2.35 0.9-3.7l0.7-3.75 2.1 5.9q0.95 3.2 1.3 3.5-1.8-1.5-2.15-1l-3.05-0.35" fill="#273500" fill-opacity=".4" fill-rule="evenodd"/>
</g>
</defs>
</svg>
