<?xml version="1.0" encoding="UTF-8"?>
<svg version="1.1" viewBox="0 0 188.01 181.62" xmlns="http://www.w3.org/2000/svg" xmlns:cc="http://creativecommons.org/ns#" xmlns:dc="http://purl.org/dc/elements/1.1/" xmlns:rdf="http://www.w3.org/1999/02/22-rdf-syntax-ns#" xmlns:xlink="http://www.w3.org/1999/xlink">
<metadata>
<rdf:RDF>
<cc:Work rdf:about="">
<dc:format>image/svg+xml</dc:format>
<dc:type rdf:resource="http://purl.org/dc/dcmitype/StillImage"/>
</cc:Work>
</rdf:RDF>
</metadata>
<g transform="translate(-234.57 -56.605)">
<use transform="matrix(.7923 0 0 .8015 234.59 53.081)" width="153.05" height="168.05" xlink:href="#b"/>
<use transform="matrix(.355 -.205 .205 .355 282.84 162.55)" width="67.75" height="56.049999" xlink:href="#a"/>
<use transform="translate(260.35,82.65)" width="153.05" height="155.55" xlink:href="#c"/>
<use transform="matrix(.5377 .3104 -.3104 .5377 346.89 60.638)" width="67.75" height="56.049999" xlink:href="#a"/>
<use transform="matrix(.467 0 0 .467 390.94 122.47)" width="67.75" height="56.049999" xlink:href="#a"/>
</g>
<defs>
<g id="b" transform="translate(81.1,79.25)">
<use transform="matrix(.355 -.205 .205 .355 -27.655 -39.102)" width="67.75" height="56.049999" xlink:href="#a"/>
<use transform="translate(-81.1,-66.75)" width="153.05" height="155.55" xlink:href="#d"/>
<use transform="matrix(.3113 .1797 -.1797 .3113 9.9942 -79.252)" width="67.75" height="56.049999" xlink:href="#a"/>
<use transform="matrix(.467 0 0 .467 -3.3583 22.274)" width="67.75" height="56.049999" xlink:href="#a"/>
</g>
<g id="a" transform="translate(33.85,28)">
<use transform="translate(-33.85,-28)" width="67.75" height="56.049999" xlink:href="#e"/>
</g>
<g id="e" transform="translate(33.85,28)">
<path d="m16.65-14.05q5.6-2.2 10.5-2l2.2 0.3q-1.8 14.7-22.55 12.15-0.5-1-1.4-1.6 0.55-1.35 1.9-2.85 3.1-3.55 8.95-5.85l0.4-0.15m6.95 12.65q5 1.5 7.7 4.35 1.95 2.05 1.95 4-5.55 4.3-12.6 1.4l-14-6.3 0.7-2.05q1.65 0.9 4.5 1 5 0.3 10.85-2.05l0.9-0.35m-7 13.85q1.65 3.9 0.9 7.6-0.35 1.65-1.1 2.9-6.35 1.95-13.4-4.65v-12.3q1.7-1.05 2.8-2.55 1.95 0.15 4.05 1.3 4 2.15 6.25 6.65l0.5 1.05m-16.95 6.05q-2.55 4.7-6.65 7.45-4.15 2.7-7.45 1.9l-0.05-0.1-1-2.15q-0.95-2.95 0-6.25l0.05-0.2 12.9-11.8 3.35-0.35 0.8 2.5q0.6 4-1.9 8.85l-0.05 0.15m-33.3-5.8q-0.75-2.1 1.05-4.65l0.95-1.15q2.85-3.25 8-5.45l1-0.45q3.75-1.5 7.15-1.9l3.7-0.15q3.1 0.15 4.85 1.25-0.65 1.95 0 3.8l0.15 0.3q-4.3 2.65-8.7 4.45-8.25 3.4-17.1 3.9l-1.05 0.05m0.85-21.6 0.2-0.35q1.6-2.55 6.35-3.45l9.55 0.25 0.45 1 0.75 1.35q2.15 3.5 5.5 5.35 2.75 1.45 5.2 1.3v0.05l-1.25 1.65-9.45-1.65q-9.55-2.05-17.1-5.4l-0.2-0.1m15.5-12.35q0.6-1.8 1.8-3 0.9-0.85 2.2-1.35 3.4-1.4 7.45 0.8 3.9 2.1 6.15 6.35 2.5-4.75 6.65-7.5 4.2-2.75 7.55-1.85 2.1 0.55 3.15 2.35-2.45 7.2-8.8 10.6-4.45 3.6-5.9 8.65-1.25-0.25-2.5 0 0.95-1.35 1.35-3.3 0.85-4.15-1.35-8.65l-0.15-0.3 0.15 0.3q2.2 4.5 1.35 8.65-0.4 1.95-1.35 3.3l-2 0.6-0.9 0.45q-8.6-3.95-13.05-12.1l-1.8-4" fill="#c08585" fill-rule="evenodd"/>
<path d="m29.35-15.75q3.15 0.6 4.15 2.65 1.3 2.65-1.8 6.15-2.95 3.3-8.1 5.55l-0.9 0.35q-5.85 2.35-10.85 2.05-2.85-0.1-4.5-1 0.25-1.5-0.25-2.9l-0.3-0.7q20.75 2.55 22.55-12.15m3.9 22.7q0 1-0.5 1.95-1.5 2.85-6.55 3.8-4.6 0.85-9.6-0.25l-0.5-1.05q-2.25-4.5-6.25-6.65-2.1-1.15-4.05-1.3l0.75-1.2 0.1-0.2 14 6.3q7.05 2.9 12.6-1.4m-16.85 16q-1.2 1.8-3.2 2.65-3.45 1.35-7.45-0.8-3.9-2.1-6.1-6.3l0.05-0.15q2.5-4.85 1.9-8.85l-0.8-2.5 0.35-0.1 1.05-0.45 0.8-0.45v12.3q7.05 6.6 13.4 4.65m-31 4.85-0.9-0.3q-2.55-1.15-3.05-4.6-0.65-4.05 1.85-8.85-5.55 2.15-10.4 1.95-3.8-0.2-5.5-1.75l-0.85-1.2-0.2-0.35 1.05-0.05q8.85-0.5 17.1-3.9 4.4-1.8 8.7-4.45 0.35 0.95 1.05 1.6l-1.5 2.15q-2.95 3.25-8.25 5.55l-0.75 0.3-0.45 0.15 0.45-0.15 0.75-0.3q5.3-2.3 8.25-5.55l1.5-2.15q0.9 0.85 2.35 1.25l0.85 0.2-12.9 11.8-0.05 0.2q-0.95 3.3 0 6.25l1 2.15-0.1 0.05m-9.05-26.35q-5-1.55-7.7-4.35l-1.25-1.65q-1.3-2.25-0.2-4.35l0.2 0.1q7.55 3.35 17.1 5.4l9.45 1.65-0.35 0.55-0.55 1.4q-1.75-1.1-4.85-1.25l-3.7 0.15q-3.4 0.4-7.15 1.9l-1 0.45m6.95-13.9q-1.7-3.95-0.95-7.65l0.35-1.15 1.8 4q4.45 8.15 13.05 12.1l-2.3 1.7h-0.05q-2.45 0.15-5.2-1.3-3.35-1.85-5.5-5.35l-0.75-1.35-0.45-1m34.35-13q0.6 1.05 0.85 2.6 0.6 4-1.85 8.8l-0.4 0.15q-5.85 2.3-8.95 5.85-1.35 1.5-1.9 2.85l-1.85-0.9-0.6-0.1q1.45-5.05 5.9-8.65 6.35-3.4 8.8-10.6" fill="#c05c5c" fill-rule="evenodd"/>
<path d="m5.4-5.2q0.9 0.6 1.4 1.6l0.3 0.7q0.5 1.4 0.25 2.9l-0.7 2.05-0.1 0.2-0.75 1.2q-1.1 1.5-2.8 2.55l-0.8 0.45-1.05 0.45q-7.75-4.05-2.7-12.5l2-0.6q1.25-0.25 2.5 0l0.6 0.1 1.85 0.9" fill="#c09a00" fill-rule="evenodd"/>
<path d="m-6.05-1.75 1.25-1.65 0.05-0.05 2.3-1.7 0.9-0.45q-5.05 8.45 2.7 12.5l-0.35 0.1-3.35 0.35-0.85-0.2q-1.45-0.4-2.35-1.25-0.7-0.65-1.05-1.6l-0.15-0.3q-0.65-1.85 0-3.8l0.55-1.4 0.35-0.55" fill="#c07b00" fill-rule="evenodd"/>
<path d="m-14.45 27.85-0.15-0.05 0.1-0.05 0.05 0.1" fill="#c08d80" fill-rule="evenodd"/>
<path d="m16.65-14.05q5.6-2.2 10.5-2l2.2 0.3q3.15 0.6 4.15 2.65 1.3 2.65-1.8 6.15-2.95 3.3-8.1 5.55 5 1.5 7.7 4.35 1.95 2.05 1.95 4 0 1-0.5 1.95-1.5 2.85-6.55 3.8-4.6 0.85-9.6-0.25 1.65 3.9 0.9 7.6-0.35 1.65-1.1 2.9-1.2 1.8-3.2 2.65-3.45 1.35-7.45-0.8-3.9-2.1-6.1-6.3-2.55 4.7-6.65 7.45-4.15 2.7-7.45 1.9l-1.05-0.35q-2.55-1.15-3.05-4.6-0.65-4.05 1.85-8.85-5.55 2.15-10.4 1.95-3.8-0.2-5.5-1.75l-0.85-1.2-0.2-0.35q-0.75-2.1 1.05-4.65l0.95-1.15q2.85-3.25 8-5.45-5-1.55-7.7-4.35l-1.25-1.65q-1.3-2.25-0.2-4.35l0.2-0.35q1.6-2.55 6.35-3.45l9.55 0.25q-1.7-3.95-0.95-7.65l0.35-1.15q0.6-1.8 1.8-3 0.9-0.85 2.2-1.35 3.4-1.4 7.45 0.8 3.9 2.1 6.15 6.35 2.5-4.75 6.65-7.5 4.2-2.75 7.55-1.85 2.1 0.55 3.15 2.35 0.6 1.05 0.85 2.6 0.6 4-1.85 8.8l-0.4 0.15q-5.85 2.3-8.95 5.85-1.35 1.5-1.9 2.85 0.9 0.6 1.4 1.6l0.3 0.7q0.5 1.4 0.25 2.9l-0.7 2.05m16.95-3.45-0.9 0.35q-5.85 2.35-10.85 2.05-2.85-0.1-4.5-1m-13.4-1.75 1.25-1.65v-0.05q-2.45 0.15-5.2-1.3-3.35-1.85-5.5-5.35l-0.75-1.35-0.45-1m-6.95 13.9 1-0.45q3.75-1.5 7.15-1.9l3.7-0.15q3.1 0.15 4.85 1.25l0.55-1.4 0.35-0.55m9-4.45 0.6 0.1 1.85 0.9m-5.1-13.25 0.15 0.3q2.2 4.5 1.35 8.65-0.4 1.95-1.35 3.3 1.25-0.25 2.5 0m-4.5 0.6 2-0.6m-2.9 1.05 0.9-0.45m2.7 12.5 1.05-0.45 0.8-0.45q1.7-1.05 2.8-2.55l0.75-1.2 0.1-0.2m-11.4-5.5 2.3-1.7m-2.35 1.75 0.05-0.05h-0.05m-0.95 9.35-1.5 2.15q-2.95 3.25-8.25 5.55l-0.75 0.3-0.45 0.15m10.95-8.15q-0.7-0.65-1.05-1.6l-0.15-0.3q-0.65-1.85 0-3.8m7.75 6.8-3.35 0.35-0.85-0.2q-1.45-0.4-2.35-1.25m6.9 1-0.35 0.1 0.8 2.5q0.6 4-1.9 8.85l-0.05 0.15m6.15-15.05q1.95 0.15 4.05 1.3 4 2.15 6.25 6.65l0.5 1.05" fill="none" stroke="#260000" stroke-linecap="round" stroke-linejoin="round" stroke-opacity=".4" stroke-width=".05"/>
</g>
<g id="d" transform="translate(81.1,66.75)">
<path d="m1.45-45.85q2.9-1.2 5.85-1.25l4.85 4.25 20.5-14.9 18-9 13.95 4.1-3.75 24.4-14.15 17.55-17.55 4.05-8.75-7.5h18.8l15.55-13.1q4.8-8.2 4.1-22.1l-8.2-3.3q-20.85 9.55-33.6 24.1l-4.9-4.3q5.15 6.05 3.9 17.25l-1.05 9.65q9.35 10.75 8.1 16.15-1.3 12.95-7.6 20.1l-7.9 8.85-1.25 1.75-15.45 1.85-9.25-6.65-7.1-1.95 8.15 11.45q8 8.95 7.4 12.45l-4.05 10.75-10.8 4.05q-8.5 0.75-19.5-8.8l-12.3-12.75q-4.75-7.65-20.45-9.3-1.5 0.8-1.7 5-0.6 9.7 4.65 20.35-3.1-4.9-5.45-10.3-3.2-10.15 0-17.2h14.75l7.6-3.7q13.55 2.3 20.2 6.6-3.3-5.45-15.1-9l12.65-6.15q15.5-22.05 27.15-45.95l1.1 11.65 1.85-17.65v-0.25l2.65-5.95q2.3-2.1 4.6-3.55l-4.05 21.8 7.55-23.55m-37.55 64.25 10.65 5.75-10.65-5.75" fill="#7b5200" fill-rule="evenodd"/>
<path d="m9.65 68.65-4 8.7q-12.55 9.95-33.55 11.45-15.95-2.95-28.65-12.3-10.65-8.35-17.5-19.15-5.25-10.65-4.65-20.35 0.2-4.2 1.7-5 15.7 1.65 20.45 9.3l12.3 12.75 12.25 12.65q10.1 8.25 22.95 10.35 7.95 1.4 18.7-8.4m7.4-107.2q12.75-14.55 33.6-24.1l8.2 3.3q0.7 13.9-4.1 22.1l-15.55 13.1h-18.8v-11.45l-3.35-2.95" fill="#442e00" fill-rule="evenodd"/>
<path d="m64.6-62.65 7.35 20.5-5.75 38.45-12.25 4.9-16.95 17.5-8.45 8.7-10.4 22.7-8.5 18.55q-10.75 9.8-18.7 8.4-12.85-2.1-22.95-10.35l-12.25-12.65q11 9.55 19.5 8.8l10.8-4.05 4.05-10.75q0.6-3.5-7.4-12.45l-8.15-11.45 7.1 1.95 9.25 6.65 15.45-1.85 1.25-1.75 7.9-8.85q6.3-7.15 7.6-20.1 1.25-5.4-8.1-16.15l1.05-9.65q1.25-11.2-3.9-17.25l4.9 4.3 3.35 2.95v11.45l8.75 7.5 17.55-4.05 14.15-17.55 3.75-24.4m-121.75 88.8q4.05-0.3 5.1-2.4 11.8 3.55 15.1 9-6.65-4.3-20.2-6.6m44.9-54.5q2.35-1.75 2.95-6l-1.85 17.65-1.1-11.65m10.2-15.75q2.2 1.35 3.5-1.75l-7.55 23.55 4.05-21.8" fill="#6a4700" fill-rule="evenodd"/>
<path d="m37 57.5-9.45-2 2.15-6.3 2.15-6.25-9 9.85-4.7-2.7 10.4-22.7 8.45-8.7v38.8" fill="#2c1d00" fill-rule="evenodd"/>
<path d="m66.2-3.7q-9.85 24.6-12.8 48.3-7.55 7.85-16.4 12.9v-38.8l16.95-17.5 12.25-4.9" fill="#654400" fill-rule="evenodd"/>
<path d="m29.7 49.2-6.85 3.6 9-9.85-2.15 6.25" fill-rule="evenodd"/>
<path d="m1.45-45.85q2.9-1.2 5.85-1.25l4.85 4.25 20.5-14.9 18-9 13.95 4.1 7.35 20.5-5.75 38.45q-9.85 24.6-12.8 48.3-7.55 7.85-16.4 12.9l-9.45-2 2.15-6.3-6.85 3.6-4.7-2.7-8.5 18.55-4 8.7q-12.55 9.95-33.55 11.45-15.95-2.95-28.65-12.3-10.65-8.35-17.5-19.15-3.1-4.9-5.45-10.3-3.2-10.15 0-17.2h14.75l7.6-3.7q4.05-0.3 5.1-2.4l12.65-6.15q15.5-22.05 27.15-45.95 2.35-1.75 2.95-6m0-0.25 2.65-5.95q2.3-2.1 4.6-3.55 2.2 1.35 3.5-1.75m18.95 21.7h18.8l15.55-13.1q4.8-8.2 4.1-22.1l-8.2-3.3q-20.85 9.55-33.6 24.1l3.35 2.95v11.45m-8.25-18.7 4.9 4.3m-34.35 74.15-8.15-11.45-10.65-5.75m54.25 31.7 10.4-22.7 8.45-8.7 16.95-17.5 12.25-4.9m-36.5 52.9 2.15-6.25-9 9.85m14.15 4.7v-38.8" fill="none" stroke="#000" stroke-linecap="round" stroke-linejoin="round" stroke-opacity=".4" stroke-width=".05"/>
<path d="m14.25-60.35 3.05-1.1q2.65 10.65-3.25 19.2l-0.1-0.45-1.5 0.4q4.75-9 1.8-18.05" fill="#005200" fill-rule="evenodd"/>
<path d="m17.3-61.45q2.65 10.65-3.25 19.2m-1.6-0.05q4.75-9 1.8-18.05" fill="none" stroke="#000" stroke-linecap="round" stroke-linejoin="round" stroke-opacity=".4" stroke-width=".05"/>
</g>
<g id="c" transform="translate(-260.35,-82.65)">
<path d="m342.9 103.55q2.9-1.2 5.85-1.25l4.85 4.25 20.5-14.9 18-9 13.95 4.1-3.75 24.4-14.15 17.55-17.55 4.05-8.75-7.5h18.8l15.55-13.1q4.8-8.2 4.1-22.1l-8.2-3.3q-20.85 9.55-33.6 24.1l-4.9-4.3q5.15 6.05 3.9 17.25l-1.05 9.65q9.35 10.75 8.1 16.15-1.3 12.95-7.6 20.1l-7.9 8.85-1.25 1.75-15.45 1.85-9.25-6.65-7.1-1.95 8.15 11.45q8 8.95 7.4 12.45l-4.05 10.75-10.8 4.05q-8.5 0.75-19.5-8.8l-12.3-12.75q-4.75-7.65-20.45-9.3-1.5 0.8-1.7 5-0.6 9.7 4.65 20.35-3.1-4.9-5.45-10.3-3.2-10.15 0-17.2h14.75l7.6-3.7q13.55 2.3 20.2 6.6-3.3-5.45-15.1-9l12.65-6.15q15.5-22.05 27.15-45.95l1.1 11.65 1.85-17.65v-0.25l2.65-5.95q2.3-2.1 4.6-3.55l-4.05 21.8 7.55-23.55m-37.55 64.25 10.65 5.75-10.65-5.75" fill="#960" fill-rule="evenodd"/>
<path d="m351.1 218.05-4 8.7q-12.55 9.95-33.55 11.45-15.95-2.95-28.65-12.3-10.65-8.35-17.5-19.15-5.25-10.65-4.65-20.35 0.2-4.2 1.7-5 15.7 1.65 20.45 9.3l12.3 12.75 12.25 12.65q10.1 8.25 22.95 10.35 7.95 1.4 18.7-8.4m7.4-107.2q12.75-14.55 33.6-24.1l8.2 3.3q0.7 13.9-4.1 22.1l-15.55 13.1h-18.8v-11.45l-3.35-2.95" fill="#553900" fill-rule="evenodd"/>
<path d="m406.05 86.75 7.35 20.5-5.75 38.45-12.25 4.9-16.95 17.5-8.45 8.7-10.4 22.7-8.5 18.55q-10.75 9.8-18.7 8.4-12.85-2.1-22.95-10.35l-12.25-12.65q11 9.55 19.5 8.8l10.8-4.05 4.05-10.75q0.6-3.5-7.4-12.45l-8.15-11.45 7.1 1.95 9.25 6.65 15.45-1.85 1.25-1.75 7.9-8.85q6.3-7.15 7.6-20.1 1.25-5.4-8.1-16.15l1.05-9.65q1.25-11.2-3.9-17.25l4.9 4.3 3.35 2.95v11.45l8.75 7.5 17.55-4.05 14.15-17.55 3.75-24.4m-121.75 88.8q4.05-0.3 5.1-2.4 11.8 3.55 15.1 9-6.65-4.3-20.2-6.6m44.9-54.5q2.35-1.75 2.95-6l-1.85 17.65-1.1-11.65m10.2-15.75q2.2 1.35 3.5-1.75l-7.55 23.55 4.05-21.8" fill="#845900" fill-rule="evenodd"/>
<path d="m378.45 206.9-9.45-2 2.15-6.3 2.15-6.25-9 9.85-4.7-2.7 10.4-22.7 8.45-8.7v38.8" fill="#372500" fill-rule="evenodd"/>
<path d="m407.65 145.7q-9.85 24.6-12.8 48.3-7.55 7.85-16.4 12.9v-38.8l16.95-17.5 12.25-4.9" fill="#7d5500" fill-rule="evenodd"/>
<path d="m371.15 198.6-6.85 3.6 9-9.85-2.15 6.25" fill-rule="evenodd"/>
<path d="m342.9 103.55q2.9-1.2 5.85-1.25l4.85 4.25 20.5-14.9 18-9 13.95 4.1 7.35 20.5-5.75 38.45q-9.85 24.6-12.8 48.3-7.55 7.85-16.4 12.9l-9.45-2 2.15-6.3-6.85 3.6-4.7-2.7-8.5 18.55-4 8.7q-12.55 9.95-33.55 11.45-15.95-2.95-28.65-12.3-10.65-8.35-17.5-19.15-3.1-4.9-5.45-10.3-3.2-10.15 0-17.2h14.75l7.6-3.7q4.05-0.3 5.1-2.4l12.65-6.15q15.5-22.05 27.15-45.95 2.35-1.75 2.95-6m0-0.25 2.65-5.95q2.3-2.1 4.6-3.55 2.2 1.35 3.5-1.75m18.95 21.7h18.8l15.55-13.1q4.8-8.2 4.1-22.1l-8.2-3.3q-20.85 9.55-33.6 24.1l3.35 2.95v11.45m-8.25-18.7 4.9 4.3m-34.35 74.15-8.15-11.45-10.65-5.75m54.25 31.7 10.4-22.7 8.45-8.7 16.95-17.5 12.25-4.9m-36.5 52.9 2.15-6.25-9 9.85m14.15 4.7v-38.8" fill="none" stroke="#000" stroke-linecap="round" stroke-linejoin="round" stroke-opacity=".4" stroke-width=".05"/>
<path d="m355.7 89.05 3.05-1.1q2.65 10.65-3.25 19.2l-0.1-0.45-1.5 0.4q4.75-9 1.8-18.05" fill="#060" fill-rule="evenodd"/>
<path d="m358.75 87.95q2.65 10.65-3.25 19.2m-1.6-0.05q4.75-9 1.8-18.05" fill="none" stroke="#000" stroke-linecap="round" stroke-linejoin="round" stroke-opacity=".4" stroke-width=".05"/>
</g>
</defs>
</svg>
