<?xml version="1.0" encoding="UTF-8"?>
<svg version="1.1" viewBox="0 0 36.1 45.55" xmlns="http://www.w3.org/2000/svg" xmlns:cc="http://creativecommons.org/ns#" xmlns:dc="http://purl.org/dc/elements/1.1/" xmlns:rdf="http://www.w3.org/1999/02/22-rdf-syntax-ns#" xmlns:xlink="http://www.w3.org/1999/xlink">
<metadata>
<rdf:RDF>
<cc:Work rdf:about="">
<dc:format>image/svg+xml</dc:format>
<dc:type rdf:resource="http://purl.org/dc/dcmitype/StillImage"/>
</cc:Work>
</rdf:RDF>
</metadata>
<g transform="translate(-257.65,-177.95)">
<use transform="translate(257.65,177.95)" width="36.099998" height="45.549999" xlink:href="#a"/>
</g>
<defs>
<g id="a" transform="translate(-257.65,-177.95)">
<path d="m290.85 185.65-0.4-0.35-4.25-0.25q-0.55-0.95-1.45-1.65l1.2-3.45q-0.4-1.25-1.55-1.2l-2.35 1.35-1.45 0.8-0.45-0.1-2.15-0.5h-0.3l-2.4-0.05h-0.05q-2.35 0.25-4.6 1.35l-3.4-1.4h-0.05v0.05l-0.15 0.05q-1.15 0.45-1.5 1.6l1.45 3.8-1.25 2.65-0.95 0.1-0.7 1.6q-1.35 0.65-1.05 2 0.15 0.7 0.75 0.95l1.5 0.8 0.05 0.1-3.9 3.9q-1.45 1.45-2 3.3-0.4 1.1-0.55 2.4l0.4 0.35-0.35 0.15q-0.1 1.4 0.25 3 1.05 5.8 6.2 10.45l1.3 1.05v0.05l0.65-0.05 0.25 0.75q4.15 3 8.9 3.6h0.15q4.75 0.65 7.95-1.5 0-0.6 0.55-0.45l0.8-0.65 0.15-0.15v-0.05l0.15-0.1 0.15-0.15 4.8-4.85 0.45-0.55q0.9-1.3 1.35-2.9l0.2-0.75 0.05-0.8v-2.25l-0.25-1.4 0.05-0.05-0.05-0.1-0.15-0.7-1.2-3.4-1.9-3q0-1.25-0.6-2.25l0.45-0.05q1.15-0.55 0.65-1.8l-1.45-1.5-0.9-0.7 0.1-2.7 3.3-2.6v-0.95l-0.45-0.85m-20.3 15.35 0.6 0.35q2.9 1.3 6 0.95l1.65 2.15 1.9-0.5q2.5 2.65 3.35 5.8 0.4 0.1 0.1 0.45l0.05 0.2q0.35 1.55 0.15 2.95l-2.9-0.05q-3.25-0.5-6.05-2.45l-0.6 0.1-0.35-0.8-1.1-0.85q-2.3-2.15-3.45-4.6-0.7-1.35-1.05-2.8l1.7-0.9" fill="none" stroke="#382510" stroke-linecap="round" stroke-linejoin="round" stroke-opacity=".30196"/>
<path d="m286.25 219.95 4.95-5 0.45-0.55q0.9-1.3 1.35-2.9-0.15-0.55-1.8 0.7l-2.55 2.4q-0.1 1.5-0.7 2.9l-1.7 2.45m6.75-13.65 0.05-0.05-0.05-0.1v0.15m-1.35-4.25q-1.65-3.3-4.85-6.2-1.65-1.6-3.45-2.7l-3.6 3.95 0.55 1.65 1.9 1.6 2.25 1.55q1.95 1.45 2.95 5.1 2.35-0.5 4.25-4.95m-7.05 19.3q0-0.6 0.55-0.45l-2.2-2.3-1-1-0.2 0.15 2.85 3.6m-16.95-22.15 0.35-0.4-1.8-3.05v-0.65l0.15-0.6 0.6-0.9-1.75 1.75 2.45 3.85" fill="#aa591e" fill-rule="evenodd"/>
<path d="m285.15 220.9 0.8-0.65 0.15-0.15v-0.05l0.15-0.1 1.7-2.45q0.6-1.4 0.7-2.9l0.05-1.3-0.05-0.95-0.1-0.9-0.15-0.25 0.05-0.05v-0.2l-0.05 0.15-1.25-0.75v0.05l-3-0.2 0.05 0.2q0.35 1.55 0.15 2.95-0.2 2.1-1.7 3.6l-0.05 0.15 0.35 1.5 2.2 2.3m-6.2-18.6 0.65 0.55q3.4 3.1 4.45 6.9l4.15-0.1-0.15-0.3-0.35-1.25-5.5-7.75-1.9-1.6-1.35 3.55m-10.35-3.4 3.05 0.05 2.6 0.6-0.45-4.1-2.65-0.45-0.4-0.05-1-0.15h-1.65l-1.9 0.95 1.8 3.05 0.15 0.2 0.45-0.1m-6.8-1.5-0.35 0.4q-1.45 1.45-2 3.3l4.05 1.7 0.25-0.45 1.1-1.65q1.2-1.1 2.8-1.5l-2.45-3.85v0.05l-0.9 0.4-2.5 1.6m-2.9 6.1 0.4 0.35-0.35 0.15q1.65 1.15 4.1 1.65l0.5-0.5-0.3-0.3-0.1-0.05q-2.35-0.5-4.25-1.3m8.4 15h0.05l0.25 0.75 2-3.05 2.3-2.2-2.15 1.45-2.45 3.05m9.35 4.35q4.75 0.65 7.95-1.5l-2.85-3.6-0.85 0.5q-1.75 0.8-3.95 0.65l2.65 1.75q-2.75-0.1-2.95 2.2" fill="#ea8915" fill-rule="evenodd"/>
<path d="m259.45 201.1q-0.4 1.1-0.55 2.4 1.9 0.8 4.25 1.3 0-1.05 0.35-2l-4.05-1.7m-0.5 2.9q-0.1 1.4 0.25 3 1.05 5.8 6.2 10.45l1.3 1.05 2.15-2.9-1-0.75q-2.6-2.35-3.8-5.15l-0.75-2.3-0.25-1.75q-2.45-0.5-4.1-1.65m8.65 15.25q4.15 3 8.9 3.6h0.15q0.2-2.3 2.95-2.2l-2.65-1.75-1.1-0.1q-3.25-0.45-6.25-2.6l-2 3.05m9.35-0.35q2.2 0.15 3.95-0.65l0.85-0.5-4.8 1.15" fill="#efa74e" fill-rule="evenodd"/>
<path d="m293 211.5 0.2-0.75 0.05-0.8v-2.25q-0.65 0.2-1.25 0.75l-3.45 3 0.1 0.9 0.05 0.95-0.05 1.3 2.55-2.4q1.65-1.25 1.8-0.7m-0.15-6.05-1.2-3.4q-1.9 4.45-4.25 4.95l0.3 1.1 0.35 1.25q1.4-0.35 3.25-2.2l1.55-1.7m-8.8 4.3q0.4 0.1 0.1 0.45l3 0.2v-0.05l1.55-0.65-0.55-0.15 0.05 0.1-4.15 0.1m0.3 3.6-2.9-0.05q-3.25-0.5-6.05-2.45l-3.5 3.15-2.3 2.2q3 2.15 6.25 2.6l1.1 0.1 4.8-1.15 0.2-0.15 0.65-0.5 0.05-0.15q1.5-1.5 1.7-3.6m-9.9-3.2-1.1-0.85q-2.3-2.15-3.45-4.6-1.1-1.25-5.85 5 1.2 2.8 3.8 5.15l1 0.75 5.6-5.45" fill="#884717" fill-rule="evenodd"/>
<path d="m279.75 197.1-1.05 2.25 0.25 2.95 1.35-3.55-0.55-1.65m-5.5 2.45 0.15 0.1 2.95-0.85-0.15-3.4-3.4 0.05 0.45 4.1m8.7 19.05-0.35-1.5-0.65 0.5 1 1m-16.6-24.1-0.15 0.6v0.65l1.9-0.95-1.75-0.3m20.8 15.85 1.25 0.75 0.05-0.15 0.4-1.25h-0.15l-1.55 0.65m0.55-2.25-0.3-1.1q-1-3.65-2.95-5.1l-2.25-1.55 5.5 7.75" fill="#ef9c4b" fill-rule="evenodd"/>
<path d="m293.25 207.7-0.25-1.4v-0.15l-0.15-0.7-1.55 1.7q-1.85 1.85-3.25 2.2l0.1 0.2 0.55 0.15h0.15l-0.4 1.25v0.2l-0.05 0.05 0.15 0.25 3.45-3q0.6-0.55 1.25-0.75m-23.35-3q-0.7-1.35-1.05-2.8l-0.2-1.05q-1.25-0.5-5.2 4.2l0.1 0.1-0.5 0.5 0.25 1.75 0.75 2.3q4.75-6.25 5.85-5" fill="#743914" fill-rule="evenodd"/>
<path d="m268.65 200.85-0.05-1.95-0.45 0.1-0.15-0.2-0.35 0.4q-1.6 0.4-2.8 1.5l-1.1 1.65-0.25 0.45q-0.35 0.95-0.35 2l0.1 0.05 0.2 0.2q3.95-4.7 5.2-4.2" fill="#5e2f11" fill-rule="evenodd"/>
<path d="m275.4 210.85-0.6 0.1-0.35-0.8-5.6 5.45-2.15 2.9v0.05l0.6-0.05 2.45-3.05 2.15-1.45 3.5-3.15m1.95-12.05 3.55-3.85-0.1-2.95-1.1 1-2.5 2.4 0.15 3.4" fill="#963807" fill-rule="evenodd"/>
<path d="m280.8 192-0.05-0.3q-2.3-0.95-4.7-1.3l3.5 1.6 0.15 1 1.1-1" fill="#ba3e0a" fill-rule="evenodd"/>
<path d="m276.05 190.4h-0.4l-0.3-0.05q-5.65-0.65-8.95 2.45l-0.1 0.05-0.2 0.25-4.3 4.3 2.5-1.6 0.9-0.4v-0.05l1.75-1.75-0.6 0.9 1.75 0.3h1.65l1 0.15 0.4 0.05 2.65 0.45 3.4-0.05 2.5-2.4-0.15-1-3.5-1.6" fill="url(#b)" fill-rule="evenodd"/>
<path d="m285.15 220.9 0.8-0.65 0.15-0.15v-0.05l0.15-0.1 4.95-5 0.45-0.55q0.9-1.3 1.35-2.9l0.2-0.75 0.05-0.8v-2.25l-0.25-1.4 0.05-0.05-0.05-0.1-0.15-0.7-1.2-3.4q-1.65-3.3-4.85-6.2-1.65-1.6-3.45-2.7l-3.6 3.95-1.05 2.25 0.25 2.95 0.65 0.55q3.4 3.1 4.45 6.9m0.1 0.45 0.05 0.2q0.35 1.55 0.15 2.95l-2.9-0.05q-3.25-0.5-6.05-2.45l-0.6 0.1-0.35-0.8-1.1-0.85q-2.3-2.15-3.45-4.6-0.7-1.35-1.05-2.8l-0.2-1.05-0.05-1.95 3.05 0.05 2.6 0.6 0.15 0.1 2.95-0.85 3.55-3.85-0.1-2.95-0.05-0.3q-2.3-0.95-4.7-1.3h-0.4l-0.3-0.05q-5.65-0.65-8.95 2.45l-0.1 0.05-0.2 0.25-4.3 4.3-0.35 0.4q-1.45 1.45-2 3.3-0.4 1.1-0.55 2.4l0.4 0.35-0.35 0.15q-0.1 1.4 0.25 3 1.05 5.8 6.2 10.45l1.3 1.05v0.05l0.6-0.05h0.05l0.25 0.75q4.15 3 8.9 3.6h0.15q4.75 0.65 7.95-1.5 0-0.6 0.55-0.45z" fill="none" stroke="#382510" stroke-linecap="round" stroke-linejoin="round" stroke-opacity=".4"/>
<path d="m269.1 188.8q3.55-0.95 7.05-0.7l0.65 0.15q3.25 0.05 2 2.1l-1.4 1.05q-1.1 0.7-2 0.6l-0.95-0.25-0.1-0.1-0.1-0.05q-3.05-2.5-8.35-1.25l2.5-1.45 0.7-0.1m16.1 3.7 0.85 1.7q0.3 1.1-0.15 1.75-0.45 0.55-1.7 0.6-1.3 0-1.85-0.6l-0.9-1.4q-0.4-0.85 0.5-1.4 0.85-0.65 1.8-0.9 0.9-0.35 1.45 0.25" fill="#ffff2f" fill-opacity=".62353" fill-rule="evenodd"/>
<path d="m287.85 195.4q1.9 1.5 1.9 3.7 0 2.15-1.9 3.7-1.95 1.5-4.65 1.5-2.75 0-4.65-1.5-1.95-1.55-1.95-3.7 0-2.2 1.95-3.7 1.9-1.55 4.65-1.55 2.7 0 4.65 1.55" fill="#382510" fill-opacity=".30196" fill-rule="evenodd"/>
<path d="m280.6 180.9 1.45-0.8 2.35-1.35q1.15-0.05 1.55 1.2l-1.2 3.45-0.9-0.85h-0.05l-0.05-0.05-0.35-0.2q-1.25-0.9-2.8-1.4m5.6 4.15 4.25 0.25 0.4 0.35-5.05 0.35 0.05-0.05q0.1-0.5 0.35-0.9m5.1 1.45v0.95l-3.3 2.6-0.65-0.35 3.95-3.2m-3.4 6.25 0.9 0.7 1.45 1.5q0.5 1.25-0.65 1.8l-2.95 0.25-0.1-0.25v-0.45l1.35-3.55" fill="#a04c0d" fill-rule="evenodd"/>
<path d="m280.6 180.9q1.55 0.5 2.8 1.4 0.35 0.45 0.45 0.25l0.9 0.85q0.9 0.7 1.45 1.65-0.25 0.4-0.35 0.9l-2.2-0.9q-3.65-4.5-8.35-4.8l2.4 0.05h0.3l2.15 0.5 0.45 0.1m7.4 9.15-0.1 2.7-1.35 3.55-0.8-1.65-0.3-0.55q0.9-0.1 1.8-4.5l0.1 0.1 0.65 0.35m-2.75 8.15q-1.5 1.75-3.75 2.9l-4.35 1.2q-3.1 0.35-6-0.95l-0.6-0.35q-2-1.1-3.35-2.85-1.05-1.35-1.6-3.05l-0.3-1.3 1.4 0.4 1.45 3.2 3.3 2q0.75 1.7 2.75 1.35l0.75-0.25 0.35-0.3 7.1-2.1 2.85 0.1m-19.5-9.85 1.25-2.65 0.55 0.15-0.8 3.15-1.35 0.35q0.1-0.5 0.35-1" fill="#696316" fill-rule="evenodd"/>
<path d="m283.4 182.3 0.35 0.2 0.05 0.05h0.05q-0.1 0.2-0.45-0.25m-12.75-0.7q2.25-1.1 4.6-1.35h0.05q4.7 0.3 8.35 4.8 0.65 1.05 1.1 3.2l-0.15 1.35q-0.3 1.65-1.35 3.2l-0.05-0.05-0.25 0.1-0.3 0.05-0.65 0.3-0.25 0.25q-0.2 0.05-0.3 0.2v-0.05l-0.5 0.6-0.35 0.65v0.1l-0.1 0.35-0.05 0.05-1.8 0.85-2.45 0.5h-0.15l-0.4-0.4-0.7-0.5-1.55-0.15-0.7 0.2-0.35 0.25-0.3-0.2q-2-0.9-3.15-2.55l-0.05-0.05q0.65-1.2 0.25-2.55-0.3-1.2-1.4-1.75l-0.05-0.05-0.15-0.05 0.5-3.15q1.05-0.25 2-1.05 0.9-0.9 1.35-2.1v0.2l0.05-0.35-0.15-0.6-0.6-0.25m0.7 1.2-0.05 0.25 0.05-0.15v-0.1 0.1l-0.05 0.15 0.05-0.25m5.35 3.8-0.15-0.05h-0.65l-0.3-0.75-3.65-1.55-1.15 0.45q-1.15 0.75-1.4 2.15-0.4 1.3 0.4 2.4 0.75 1.1 2.1 1.3l2.05-0.15 0.4 0.7q0.75 0.75 1.9 0.75 2.3 0.4 3.75-0.8v-0.1q-0.05-1.6-1.15-2.7l-0.25-0.45-0.2-0.2v-0.05h-0.05q-0.65-0.7-1.55-0.95h-0.1" fill="#b8a021" fill-rule="evenodd"/>
<path d="m286.4 197.55-0.5 0.55-0.65 0.1-2.85-0.1-0.6-0.15-0.65-0.4q-0.85-0.85-0.7-2.2l0.05-0.05 4.65 1.55 0.75-0.85-2.65-3.2q1.3 0.2 2.2 1.3l0.3 0.55 0.8 1.65v0.45l-0.15 0.8m-15.85 3.45-2.6 1.35-0.55-0.15q-0.8-0.3-1.05-1.15l0.85-2.9q1.35 1.75 3.35 2.85m-5.25-7.2-1.5-0.8q-0.6-0.25-0.75-0.95-0.3-1.35 1.05-2l1.3-0.7 1.35-0.35 0.75-0.1 0.15 0.05-3.15 1.45h-0.05l0.3 1.05 4.1 1.9q-0.4 0.65-1.45 0.8l-0.7 0.05-1.4-0.4m1.75-13.5 0.15-0.05h0.05v-0.05l3.4 1.4 0.6 0.25 0.15 0.6-0.05 0.15q-0.45 1.2-1.35 2.1-0.95 0.8-2 1.05l-0.1 0.05-1.2-4.4 0.35-1.1m11.95 9.15q-0.1 1-0.9 1.7l-0.7 0.45-0.8-2.6 2.4 0.45m-15.7 2.05v0.7l0.3 0.3 0.3-0.3 0.2-0.7v-0.4l-0.1-0.5q-0.65 0.5-0.7 0.9m23.25 5.05-0.15-0.3q-0.2-0.05-0.35 0.15l-0.4 0.6-0.1 0.65q-0.05 0.35 0.05 0.4l0.35-0.2 0.4-0.55 0.2-0.75m-15.1 2.85q1.45 0.95 3.9 0.75l-0.05 0.05-0.35 0.3-0.75 0.25q-2 0.35-2.75-1.35" fill="#b87d1d" fill-rule="evenodd"/>
<path d="m273.95 190.4-2.05 0.15q-1.35-0.2-2.1-1.3-0.8-1.1-0.4-2.4 0.25-1.4 1.4-2.15l1.15-0.45 3.65 1.55 0.3 0.75q-0.55 0.05-1.1 0.55l-0.15 0.15q-0.5 0.5-0.7 1.1-0.2 0.4-0.25 0.9-0.05 0.65 0.25 1.15" fill="#bbaf2b" fill-rule="evenodd"/>
<path d="m272.35 196.1 0.35-0.25 0.7-0.2 1.55 0.15 0.7 0.5 0.4 0.4-0.05 0.05-2.45 2.6-0.65-0.1-0.05 0.05-0.65-3.05 0.15-0.15m3.55-9.55h0.65l0.15 0.05-0.4 2.05-2.35-0.3q0.2-0.6 0.7-1.1l0.15-0.15q0.55-0.5 1.1-0.55" fill="#d8ca7c" fill-rule="evenodd"/>
<path d="m267.65 188.95 0.05 0.05q1.1 0.55 1.4 1.75 0.4 1.35-0.25 2.55v0.05l-4.1-1.9-0.3-1.05h0.05l3.15-1.45m12.85 6.35 0.1-0.35v-0.1l0.35-0.65 0.5-0.6v0.05q0.1-0.15 0.3-0.2l0.25-0.25 0.65-0.3 0.3-0.05 0.25-0.1 0.05 0.05 2.65 3.2-0.75 0.85-4.65-1.55m-3.8-8.7h0.1q0.9 0.25 1.55 0.95h0.05v0.05l0.2 0.2 0.25 0.45 0.1 0.35-0.35-0.8 0.35 0.8 0.05 0.45 0.1 0.1-0.1 0.2v0.1l-2.4-0.45 0.8 2.6-1.15 0.25q-1.15 0-1.9-0.75l-0.4-0.7q-0.3-0.5-0.25-1.15 0.05-0.5 0.25-0.9l2.35 0.3 0.4-2.05m-13.4 4.9q0.05-0.4 0.7-0.9l0.1 0.5v0.4l-0.2 0.7-0.3 0.3-0.3-0.3v-0.7m12 8.7 0.05-0.05q-2.45 0.2-3.9-0.75v-0.05q-0.65-1.7 0.75-3.1l0.65 3.05 0.05-0.05 0.65 0.1 2.45-2.6q0.9 1.5-0.2 2.95l-0.4 0.45-0.1 0.05" fill="#e2b141" fill-rule="evenodd"/>
<path d="m271.4 182.45-0.05 0.35v-0.2l0.05-0.15m-3.4 3.3-0.5 3.15-0.75 0.1 0.8-3.15 0.15-0.05h0.2l0.1-0.05m0.85 7.55 0.05 0.05q1.15 1.65 3.15 2.55l0.3 0.2-0.15 0.15q-1.4 1.4-0.75 3.1v0.05l-3.3-2-1.45-3.2 0.7-0.05q1.05-0.15 1.45-0.8v-0.05m7.2 3.4h0.15l2.45-0.5 1.8-0.85q-0.15 1.35 0.7 2.2l0.65 0.4 0.6 0.15-7.1 2.1 0.1-0.05 0.4-0.45q1.1-1.45 0.2-2.95l0.05-0.05m7.2-3.9q1.05-1.55 1.35-3.2l0.15-1.35q-0.45-2.15-1.1-3.2l2.2 0.9-0.05 0.05q-0.15 1 0.15 1.85 0.4 1.1 1.3 1.75-0.9 4.4-1.8 4.5-0.9-1.1-2.2-1.3m-4.4-4.55q1.1 1.1 1.15 2.7v0.1q-1.45 1.2-3.75 0.8l1.15-0.25 0.7-0.45q0.8-0.7 0.9-1.7v-0.1l0.1-0.2-0.1-0.1-0.05-0.45-0.1-0.35" fill="#7d6d1a" fill-rule="evenodd"/>
<path d="m290.85 185.65 0.45 0.85-3.95 3.2-0.1-0.1q-0.9-0.65-1.3-1.75-0.3-0.85-0.15-1.85l5.05-0.35m-9.35 15.45-0.45 2.75-2.25 0.6-1.65-2.15 4.35-1.2m-14.5-15.4-1.45-3.8q0.35-1.15 1.5-1.6l-0.35 1.1 1.2 4.4h-0.2l-0.15 0.05-0.55-0.15m19.55 10.85-0.2 0.75-0.4 0.55-0.35 0.2q-0.1-0.05-0.05-0.4l0.1-0.65 0.4-0.6q0.15-0.2 0.35-0.15l0.15 0.3" fill="#ae6916" fill-rule="evenodd"/>
<path d="m286.65 197-0.25 0.55 0.15-0.8 0.1 0.25m-19.45-16.8h0.05v0.05l-0.05-0.05" fill="#a37201" fill-rule="evenodd"/>
<path d="m267.2 180.25v-0.05l0.05 0.05h-0.05" fill="#c90" fill-rule="evenodd"/>
<path d="m264.1 190.05 0.7-1.6 0.95-0.1q-0.25 0.5-0.35 1l-1.3 0.7" fill="#963807" fill-rule="evenodd"/>
<path d="m284.75 183.4 1.2-3.45q-0.4-1.25-1.55-1.2l-2.35 1.35-1.45 0.8q1.55 0.5 2.8 1.4l0.35 0.2 0.05 0.05h0.05l0.9 0.85q0.9 0.7 1.45 1.65l4.25 0.25 0.4 0.35 0.45 0.85v0.95l-3.3 2.6-0.1 2.7 0.9 0.7 1.45 1.5q0.5 1.25-0.65 1.8l-2.95 0.25-0.25 0.55-0.5 0.55-0.65 0.1q-1.5 1.75-3.75 2.9l-0.45 2.75-2.25 0.6-1.65-2.15q-3.1 0.35-6-0.95l-0.6-0.35-2.6 1.35-0.55-0.15q-0.8-0.3-1.05-1.15l0.85-2.9q-1.05-1.35-1.6-3.05l-0.3-1.3-1.5-0.8q-0.6-0.25-0.75-0.95-0.3-1.35 1.05-2l0.7-1.6 0.95-0.1 1.25-2.65-1.45-3.8q0.35-1.15 1.5-1.6l0.15-0.05v-0.05h0.05l3.4 1.4q2.25-1.1 4.6-1.35h0.05l2.4 0.05h0.3l2.15 0.5 0.45 0.1m-9.95 0.7 0.6 0.25 0.15 0.6-0.05 0.35v0.1l-0.05 0.15 0.05-0.25v-0.2q-0.45 1.2-1.35 2.1-0.95 0.8-2 1.05m-0.5 3.15 0.15 0.05m0.05 0.05q1.1 0.55 1.4 1.75 0.4 1.35-0.25 2.55m3.5 2.8 0.35-0.25 0.7-0.2m2.25 0.65 0.4 0.4m4.4-1.35 0.05-0.05 0.1-0.35v-0.1m2.35-2 0.25-0.1 0.05 0.05m-6.45-6.2q0.9 0.25 1.55 0.95h0.05v0.05l0.2 0.2m-2.35 4.05q-1.15 0-1.9-0.75l-0.4-0.7m5-1.8-0.35-0.8m-7.25-5.2 0.05-0.15m2.55 5.9q-0.2 0.4-0.25 0.9-0.05 0.65 0.25 1.15m3.45 1.2 0.7-0.45q0.8-0.7 0.9-1.7v-0.1l0.1-0.2-0.1-0.1-0.05-0.45m-1.55 3-1.15 0.25m9.55-5.85q-0.15 1 0.15 1.85 0.4 1.1 1.3 1.75l0.1 0.1m-1.5-3.75-0.05 0.05m0.05-0.05q0.1-0.5 0.35-0.9m0.35 11.25-0.8-1.65-0.3-0.55q-0.9-1.1-2.2-1.3m4.75-2.75-0.65-0.35m-19.45-3.9 0.1-0.05m-0.45 0.1 0.15-0.05h0.2m-0.9-0.1 0.55 0.15m-0.8 3.15 0.75-0.1m-2.1 0.45 1.35-0.35m-2.65 1.05 1.3-0.7q0.1-0.5 0.35-1m-0.45 5.45 1.4 0.4 0.7-0.05q1.05-0.15 1.45-0.8v-0.05m17.7 3.45v-0.45l1.35-3.55m-1.35 4 0.1 0.25m-6.2-1.65q-0.15 1.35 0.7 2.2l0.65 0.4 0.6 0.15 2.85 0.1m-9.95 2 0.1-0.05 0.4-0.45q1.1-1.45 0.2-2.95l0.05-0.05m-3.85-0.45q-1.4 1.4-0.75 3.1v0.05m0.9-3.3-0.15 0.15m2.75 4.25-0.75 0.25q-2 0.35-2.75-1.35m5.7 2.9 4.35-1.2m-14.3-2.95q1.35 1.75 3.35 2.85" fill="none" stroke="#382510" stroke-linecap="round" stroke-linejoin="round" stroke-opacity=".30196" stroke-width=".6"/>
<path d="m272.35 188.2q0.5-0.45 0.5-1.2 0.05-0.7-0.5-1.25-0.5-0.5-1.2-0.45-0.7-0.05-1.25 0.5-0.45 0.5-0.5 1.2 0 0.75 0.55 1.25 0.45 0.45 1.2 0.5 0.7 0 1.2-0.55m2.25-0.95q0 1.45-0.95 2.5-1.05 1-2.5 1l-1.65-0.4q-1.6 0-3.2 1.4 1.85-1.75 1.75-2.95-0.35-0.7-0.35-1.55-0.05-1.45 1-2.5 0.95-0.9 2.3-1h0.15l0.65-1.25 0.3 1.35q0.85 0.3 1.5 0.9 0.65 0.7 0.9 1.55l2.75 0.45-2.65 0.5" fill="#fcf3d8" fill-opacity=".30196" fill-rule="evenodd"/>
<path d="m272.35 188.2q-0.5 0.55-1.2 0.55-0.75-0.05-1.2-0.5-0.55-0.5-0.55-1.25 0.05-0.7 0.5-1.2 0.55-0.55 1.25-0.5 0.7-0.05 1.2 0.45 0.55 0.55 0.5 1.25 0 0.75-0.5 1.2" fill="#fcf3d8" fill-rule="evenodd"/>
<path d="m270.5 187.75 0.8 5.2 0.05-5.15q1.75-0.95 3.45-1.75l-3.35 0.15-1.15-8.25-0.1 8.4-12.55 3.85 12.85-2.45" fill="#fcf3d8" fill-rule="evenodd"/>
</g>
<linearGradient id="b" x1="-819.2" x2="819.2" gradientTransform="matrix(-.0042 -4e-4 -4e-4 .005 274.2 194.4)" gradientUnits="userSpaceOnUse">
<stop stop-color="#c16324" offset=".18824"/>
<stop stop-color="#db7735" offset="1"/>
</linearGradient>
</defs>
</svg>
