<?xml version="1.0" encoding="UTF-8" standalone="no"?>
<!DOCTYPE svg PUBLIC "-//W3C//DTD SVG 1.1//EN" "http://www.w3.org/Graphics/SVG/1.1/DTD/svg11.dtd">
<svg width="100%" height="100%" viewBox="0 0 193 202" version="1.1" xmlns="http://www.w3.org/2000/svg" xmlns:xlink="http://www.w3.org/1999/xlink" xml:space="preserve" xmlns:serif="http://www.serif.com/" style="fill-rule:evenodd;clip-rule:evenodd;stroke-linecap:round;stroke-linejoin:round;">
    <g transform="matrix(1,0,0,1,-179.058,-99.2784)">
        <g transform="matrix(5.00403,0,0,5.00403,-1102.98,-800.63)">
            <g id="shape0">
                <path d="M291.55,206.85C293.217,210.883 293.2,214.633 291.5,218.1C291,214.6 291.017,210.85 291.55,206.85" style="fill:#f49302;"/>
                <path d="M291.55,206.85C293.217,210.883 293.2,214.633 291.5,218.1C291,214.6 291.017,210.85 291.55,206.85Z" style="fill:none;fill-rule:nonzero;stroke:#000;stroke-opacity:0.3;stroke-width:0.05px;"/>
                <path d="M292.35,205.9C294.017,207.867 294.75,211.033 294.55,215.4C293.583,212.9 292.85,209.733 292.35,205.9" style="fill:#8a6923;"/>
                <path d="M292.35,205.9C294.017,207.867 294.75,211.033 294.55,215.4C293.583,212.9 292.85,209.733 292.35,205.9Z" style="fill:none;fill-rule:nonzero;stroke:#000;stroke-opacity:0.3;stroke-width:0.05px;"/>
                <path d="M258.85,204.7C258.383,208.533 257.65,211.7 256.65,214.2C256.483,209.833 257.217,206.667 258.85,204.7" style="fill:#8a6923;"/>
                <path d="M258.85,204.7C257.217,206.667 256.483,209.833 256.65,214.2C257.65,211.7 258.383,208.533 258.85,204.7Z" style="fill:none;fill-rule:nonzero;stroke:#000;stroke-opacity:0.3;stroke-width:0.05px;"/>
                <path d="M258.9,205.65C259.433,209.65 259.45,213.4 258.95,216.9C257.283,213.433 257.267,209.683 258.9,205.65" style="fill:#d27e03;"/>
                <path d="M258.9,205.65C257.267,209.683 257.283,213.433 258.95,216.9C259.45,213.4 259.433,209.65 258.9,205.65Z" style="fill:none;fill-rule:nonzero;stroke:#000;stroke-opacity:0.3;stroke-width:0.05px;"/>
                <path d="M264.65,187.15C264.183,188.383 263.367,189 262.2,189C259.967,184.333 260.783,183.717 264.65,187.15" style="fill:#615527;"/>
                <path d="M262.2,189C259.967,184.333 260.783,183.717 264.65,187.15" style="fill:none;fill-rule:nonzero;stroke:#382510;stroke-opacity:0.5;stroke-width:0.05px;"/>
                <path d="M288.8,192C289.167,193.233 288.417,193.8 286.55,193.7L284.95,191.7L282.55,189.2C281.483,188.3 280.4,187.55 279.3,186.95L281.7,184.95L281.75,185C283.65,186.1 285.383,187.583 286.95,189.45L288.8,192M267.4,185.65L267,185.8C265.3,186.367 263.733,187.333 262.3,188.7L264.2,186.5C265.8,184.967 267.617,183.9 269.65,183.3L267.4,185.65" style="fill:#92846f;"/>
                <path d="M282.55,189.2L284.95,191.7L286.55,193.7C287.45,195.133 288.167,196.633 288.7,198.2C287.133,197.3 285.533,196.867 283.9,196.9L283.55,196.35L282.2,194.55C280.433,192.383 278.367,190.883 276,190.05L274.6,189.65L277.7,187.4L282.55,189.2M260,210.15L261.15,206.95L261.5,207.8C262.133,209.233 262.95,210.6 263.95,211.9C266.05,214.433 268.483,216.083 271.25,216.85L271.25,219.45C267.783,218.517 264.767,216.483 262.2,213.35L260.25,210.5L260,210.15M263.95,192.15L264.55,191.8L264,192.15L263.95,192.15M277.2,217.05L278,216.85C279.533,216.35 280.933,215.483 282.2,214.25L283.75,212.45L284.65,211.2L284.8,210.8C285.233,211.5 285.467,213.167 285.5,215.8L284.95,216.35C282.683,218.483 280.017,219.717 276.95,220.05L277.2,217.05" style="fill:#e2dccb;"/>
                <path d="M279.3,186.95C280.4,187.55 281.483,188.3 282.55,189.2L277.7,187.4L271.15,185.05L273.65,185.15C275.45,185.383 277.133,185.917 278.7,186.75L279.3,186.95" style="fill:#e7d992;"/>
                <path d="M286.55,193.7C288.417,193.8 289.167,193.233 288.8,192C290.6,194.933 291.567,198.133 291.7,201.6L291.7,202.4C291.7,207.2 290.117,211.1 286.95,214.1C288.817,211.467 289.75,208.317 289.75,204.65C289.75,202.35 289.4,200.2 288.7,198.2C288.167,196.633 287.45,195.133 286.55,193.7" style="fill:#716044;"/>
                <path d="M281.7,184.95L279.3,186.95L278.7,186.75C277.133,185.917 275.45,185.383 273.65,185.15L271.15,185.05C269.817,185.05 268.567,185.25 267.4,185.65L269.65,183.3L270,183.2L275.6,182.9C277.733,183.167 279.767,183.85 281.7,184.95" style="fill:#a09176;"/>
                <path d="M288.7,198.2C289.4,200.2 289.75,202.35 289.75,204.65C289.75,208.317 288.817,211.467 286.95,214.1L285.5,215.8C285.467,213.167 285.233,211.5 284.8,210.8C285.6,209.067 286,207.1 286,204.9C286,202 285.3,199.333 283.9,196.9C285.533,196.867 287.133,197.3 288.7,198.2M274.35,189.6L273.15,189.35L271.4,189.25L269.6,189.8L265.65,190.9L264.55,191.8L263.95,192.15C261.483,194.583 260.25,197.717 260.25,201.55C260.25,203.45 260.55,205.25 261.15,206.95L260,210.15C258.333,207.183 257.5,203.95 257.5,200.45C257.5,195.617 259.067,191.717 262.2,188.75L262.3,188.7C263.733,187.333 265.3,186.367 267,185.8L267.4,185.65C268.567,185.25 269.817,185.05 271.15,185.05L277.7,187.4L274.6,189.65L274.35,189.6M275.65,217.25L277.2,217.05L276.95,220.05L273.65,219.95L272.2,219.7L271.25,219.45L271.25,216.85L272.3,217.05L273.15,217.15L275.65,217.25" style="fill:#d5cab3;"/>
                <path d="M269.6,189.8L271.4,189.25L273.15,189.35L274.35,189.6L274.6,189.65L276,190.05C275.1,190.45 274.217,191 273.35,191.7C272.217,192.633 270.983,193.867 269.65,195.4L269.6,189.8M283.55,196.35L283.9,196.9C285.3,199.333 286,202 286,204.9C286,207.1 285.6,209.067 284.8,210.8L284.65,211.2C284.45,210.733 284.133,210.367 283.7,210.1C282.667,209.933 281.733,210.183 280.9,210.85C278.967,212.417 278,214.417 278,216.85L277.2,217.05L275.65,217.25L274.65,215.4L275.2,215.1L273.4,210.55L272.9,210.75C273.9,207.883 274.933,205.417 276,203.35C278.167,199.383 280.683,197.05 283.55,196.35M269.65,195.4L270.2,198.8L271.35,198.6L272.6,204.45L270.3,205.15L272,211.1L272.85,210.75L272.85,210.8L272.3,217.05L271.25,216.85C268.483,216.083 266.05,214.433 263.95,211.9C262.95,210.6 262.133,209.233 261.5,207.8L262.9,204.9C264.133,202.333 265.633,199.983 267.4,197.85L269.65,195.4" style="fill:#675221;"/>
                <path d="M269.6,189.8L269.65,195.4L267.4,197.85C265.633,199.983 264.133,202.333 262.9,204.9L261.5,207.8L261.15,206.95C260.55,205.25 260.25,203.45 260.25,201.55C260.25,197.717 261.483,194.583 263.95,192.15L264,192.15L264.55,191.8L265.65,190.9L269.6,189.8M272.85,210.8L272.9,210.75L273.4,210.55L275.2,215.1L274.65,215.4L275.65,217.25L273.15,217.15L272.3,217.05L272.85,210.8" style="fill:#614d1f;"/>
                <path d="M269.65,195.4C270.983,193.867 272.217,192.633 273.35,191.7C274.217,191 275.1,190.45 276,190.05C278.367,190.883 280.433,192.383 282.2,194.55L283.55,196.35C280.683,197.05 278.167,199.383 276,203.35C274.933,205.417 273.9,207.883 272.9,210.75L272.85,210.75L272.9,210.75L272.85,210.8L272.85,210.75L272,211.1L270.3,205.15L272.6,204.45L271.35,198.6L270.2,198.8L269.65,195.4M278,216.85C278,214.417 278.967,212.417 280.9,210.85C281.733,210.183 282.667,209.933 283.7,210.1C284.133,210.367 284.45,210.733 284.65,211.2L283.75,212.45L282.2,214.25C280.933,215.483 279.533,216.35 278,216.85" style="fill:#6d5623;"/>
                <path d="M288.8,192L286.95,189.45C285.383,187.583 283.65,186.1 281.75,185M286.95,214.1C290.117,211.1 291.7,207.2 291.7,202.4L291.7,202.15M291.7,201.6C291.567,198.133 290.6,194.933 288.8,192M270,183.2L275.6,182.9C277.733,183.167 279.767,183.85 281.7,184.95M274.35,189.6L273.15,189.35L271.4,189.25L269.6,189.8L265.65,190.9L264.55,191.8L263.95,192.15C261.483,194.583 260.25,197.717 260.25,201.55C260.25,203.45 260.55,205.25 261.15,206.95L261.5,207.8C262.133,209.233 262.95,210.6 263.95,211.9C266.05,214.433 268.483,216.083 271.25,216.85L272.3,217.05L273.15,217.15L275.65,217.25L277.2,217.05L278,216.85C279.533,216.35 280.933,215.483 282.2,214.25L283.75,212.45L284.65,211.2L284.8,210.8C285.6,209.067 286,207.1 286,204.9C286,202 285.3,199.333 283.9,196.9L283.55,196.35L282.2,194.55C280.433,192.383 278.367,190.883 276,190.05L274.6,189.65M269.65,183.3C267.617,183.9 265.8,184.967 264.2,186.5L262.3,188.7L262.2,188.75C259.067,191.717 257.5,195.617 257.5,200.45C257.5,203.95 258.333,207.183 260,210.15L260.25,210.5L262.2,213.35C264.767,216.483 267.783,218.517 271.25,219.45L272.2,219.7L273.65,219.95L276.95,220.05C280.017,219.717 282.683,218.483 284.95,216.35L285.5,215.8L286.95,214.1" style="fill:none;fill-rule:nonzero;stroke:#382510;stroke-opacity:0.5;stroke-width:0.05px;"/>
                <path d="M269.6,189.8L269.65,195.4L270.2,198.8L271.35,198.6L272.6,204.45L270.3,205.15L272,211.1L272.85,210.75L272.9,210.75L273.4,210.55L275.2,215.1L274.65,215.4L275.65,217.25M272.85,210.75L272.85,210.8" style="fill:none;fill-rule:nonzero;stroke:#382510;stroke-opacity:0.3;stroke-width:0.05px;"/>
                <path d="M283.5,212.75L283.6,212.8L282.2,214.25C279.7,216.65 276.683,217.633 273.15,217.2C269.583,216.733 266.533,214.967 264,211.9C261.5,208.833 260.25,205.383 260.25,201.55C260.25,197.75 261.483,194.633 263.95,192.2C262.35,194.367 261.55,197 261.55,200.1C261.55,203.9 262.8,207.333 265.3,210.4C267.833,213.467 270.883,215.233 274.45,215.7C277.983,216.133 281,215.15 283.5,212.75" style="fill:#382510;fill-opacity:0.3;"/>
                <path d="M281.25,196.75C278.717,193.717 275.683,191.983 272.15,191.55L270.4,191.4L264.7,193.1L263,194.35C262.167,195.15 261.483,196.033 260.95,197C261.583,195.167 262.6,193.55 264,192.15L265.7,190.9L271.4,189.25L273.15,189.35C276.683,189.817 279.7,191.55 282.2,194.55C284.767,197.583 286.05,201.033 286.05,204.9C286.05,207.467 285.5,209.7 284.4,211.6C284.833,210.233 285.05,208.733 285.05,207.1C285.05,203.233 283.783,199.783 281.25,196.75" style="fill:#332e26;fill-opacity:0.7;"/>
                <path d="M281.65,194.1L282.75,190.6L282.95,195.65L281.65,194.1M268.4,218.45L269,216.2L271,215.5L269.95,216.5L269.45,219L268.4,218.45" style="fill:#382510;fill-opacity:0.8;"/>
                <path d="M275.75,201.05L272.8,215.15L272.9,209.8L275.75,201.05" style="fill:#382510;fill-opacity:0.8;"/>
                <path d="M280.15,193.2L275.5,213L276.15,205.65L280.15,193.2" style="fill:#382510;fill-opacity:0.5;"/>
                <path d="M287.75,208.75L285.75,208L285.2,206.95L285.8,204.45L284.85,200.85L285.4,200L285.7,201L286.1,201.5L288.35,201.5L288.65,201.4L288.9,201.25L291.2,202.15L289.75,207.95L287.75,208.75M289.45,202.4L285.65,202.3L287,203.15L289.45,202.4" style="fill:#f49302;"/>
                <path d="M288.9,201.25L289.6,200.95L291.25,199.5L291.25,197.75L290.85,196.75L292.1,196.95L293.15,198.55L293.8,201.1L292.85,205.95L290.25,208.75L288.65,209.05L287.75,208.75L289.75,207.95L291.2,202.15L288.9,201.25" style="fill:#8a6923;"/>
                <path d="M289.45,202.4L287,203.15L285.65,202.3L289.45,202.4" style="fill:#feb445;"/>
                <path d="M287.75,208.75L285.75,208L285.2,206.95L285.8,204.45L284.85,200.85L285.4,200L285.7,201L286.1,201.5L288.35,201.5L288.65,201.4L288.9,201.25L289.6,200.95L291.25,199.5L291.25,197.75L290.85,196.75L292.1,196.95L293.15,198.55L293.8,201.1L292.85,205.95L290.25,208.75L288.65,209.05L287.75,208.75Z" style="fill:none;fill-rule:nonzero;stroke:#31280b;stroke-opacity:0.3;stroke-width:0.3px;"/>
                <path d="M258.75,204.3L258.95,204.4L259.1,204.45L260.25,204.45L260.45,204.15L260.5,203.6L260.8,204.05L260.65,206.05L261.3,207.45L261.1,208.05L260.2,208.45L259.1,208L257.7,204.75L258.75,204.3M258.65,204.9L260,205.35L260.6,204.85L258.65,204.9" style="fill:#d27e03;"/>
                <path d="M258.75,204.3L257.7,204.75L259.1,208L260.2,208.45L259.7,208.6L258.9,208.45L257.3,206.9L256.35,204.2L256.35,202.8L256.7,201.9L257.4,201.8L257.3,202.35L257.5,203.3L258.45,204.1L258.75,204.3" style="fill:#8a6923;"/>
                <path d="M258.65,204.9L260.6,204.85L260,205.35L258.65,204.9" style="fill:#feb445;"/>
                <path d="M260.2,208.45L261.1,208.05L261.3,207.45L260.65,206.05L260.8,204.05L260.5,203.6L260.45,204.15L260.25,204.45L259.1,204.45L258.95,204.4L258.75,204.3L258.45,204.1L257.5,203.3L257.3,202.35L257.4,201.8L256.7,201.9L256.35,202.8L256.35,204.2L257.3,206.9L258.9,208.45L259.7,208.6L260.2,208.45Z" style="fill:none;fill-rule:nonzero;stroke:#31280b;stroke-opacity:0.3;stroke-width:0.3px;"/>
                <path d="M272.15,214.6L271.3,213.85C270.667,213.083 270.367,212.233 270.4,211.3C270.4,210.333 270.717,209.583 271.35,209.05C271.983,208.483 272.75,208.267 273.65,208.4C274.55,208.533 275.317,208.967 275.95,209.7L276.3,210.2L272.15,214.6" style="fill:#a08034;"/>
                <path d="M276.3,210.2C276.667,210.833 276.833,211.5 276.8,212.2C276.8,213.133 276.5,213.9 275.9,214.5C275.233,215.067 274.467,215.283 273.6,215.15C273.067,215.083 272.583,214.9 272.15,214.6L276.3,210.2" style="fill:#64431c;"/>
                <path d="M275.65,211.6C275.883,212.1 275.983,212.65 275.95,213.25C275.95,214.183 275.65,214.95 275.05,215.55C274.383,216.117 273.617,216.333 272.75,216.2C271.883,216.067 271.133,215.633 270.5,214.9C269.867,214.133 269.567,213.283 269.6,212.35C269.6,211.383 269.917,210.633 270.55,210.1C271.117,209.6 271.783,209.383 272.55,209.45L272.8,209.45L273,209.5L273.3,209.55L273.1,209.55C273.933,209.85 274.783,210.533 275.65,211.6" style="fill:#796128;"/>
                <path d="M273.3,209.55L275.2,209.55L275.65,211.6C274.783,210.533 273.933,209.85 273.1,209.55L273.3,209.55" style="fill:#d6a533;"/>
                <path d="M271.25,211.75L271.45,211.5C271.783,211.167 272.2,211.033 272.7,211.1L273.95,211.9C274.35,212.3 274.533,212.75 274.5,213.25C274.5,213.75 274.333,214.15 274,214.45C272.8,214.383 271.883,213.483 271.25,211.75" style="fill:#3e2d13;"/>
                <path d="M274,214.45L273.95,214.5C273.583,214.833 273.15,214.967 272.65,214.9C272.15,214.8 271.733,214.567 271.4,214.2C271.067,213.733 270.9,213.25 270.9,212.75C270.9,212.35 271.017,212.017 271.25,211.75C271.883,213.483 272.8,214.383 274,214.45" style="fill:#5c542e;"/>
                <path d="M265.5,199.65L261.95,194.55L262.85,193.35L264.9,193.1L267.25,193.65L269.15,195.75L265.5,199.65" style="fill:#8e7e66;"/>
                <path d="M269.4,195.6L269.6,195.25L270.7,199.25L270.4,201.9L268.6,204.05L265.5,199.65L269.15,195.75L269.2,195.8L269.4,195.6" style="fill:#716044;"/>
                <path d="M269.4,195.6L269.6,195.25L270.7,199.25L270.4,201.9L268.6,204.05L265.5,199.65L261.95,194.55L262.85,193.35L264.9,193.1L267.25,193.65L269.15,195.75L269.4,195.6L269.2,195.8L269.15,195.75" style="fill:none;fill-rule:nonzero;stroke:#000;stroke-opacity:0.3;stroke-width:0.05px;"/>
                <path d="M269.7,200.05L268.9,200.6L269.45,200.6L269,203.05L267.8,204L266.05,205L265.25,203.85L265.15,205.25L262,204.65L262,204.7L260.4,203.2L260,202.65L259.55,201.7C259.183,200.833 259.017,199.9 259.05,198.9C259.117,197.333 259.667,196.1 260.7,195.2L261.6,194.65C262.467,194.183 263.467,194.067 264.6,194.3C266.067,194.6 267.317,195.383 268.35,196.65C269.117,197.717 269.567,198.85 269.7,200.05M263,197.75L262.75,197.9C262.283,198.3 262.05,198.833 262.05,199.5C262.017,200.2 262.2,200.883 262.6,201.55C263.133,202.083 263.717,202.417 264.35,202.55C265.017,202.683 265.6,202.55 266.1,202.15L266.65,201.4L266.85,200.45C266.883,199.783 266.683,199.15 266.25,198.55C265.783,197.95 265.233,197.583 264.6,197.45C264,197.317 263.467,197.417 263,197.75" style="fill:#e2dccb;"/>
                <path d="M266.65,201.4L266.1,202.15C265.6,202.55 265.017,202.683 264.35,202.55C263.717,202.417 263.133,202.083 262.6,201.55C262.2,200.883 262.017,200.2 262.05,199.5C262.05,198.833 262.283,198.3 262.75,197.9L263,197.75L262.85,197.9L262.7,198.35C262.533,198.783 262.5,199.25 262.6,199.75C262.8,200.317 263.133,200.817 263.6,201.25L266.65,201.4" style="fill:#978b47;"/>
                <path d="M263,197.75C263.467,197.417 264,197.317 264.6,197.45C265.233,197.583 265.783,197.95 266.25,198.55C266.683,199.15 266.883,199.783 266.85,200.45L266.65,201.4L263.6,201.25C263.133,200.817 262.8,200.317 262.6,199.75C262.5,199.25 262.533,198.783 262.7,198.35L262.85,197.9L263,197.75" style="fill:#5c542e;"/>
                <path d="M262,204.7L262,204.65L265.15,205.25L265.25,203.85L266.05,205L267.8,204L269,203.05L269.45,200.6L268.9,200.6L269.7,200.05L269.7,201L269.45,202.65L268.9,203.7L268,204.65C266.9,205.583 265.617,205.883 264.15,205.55C263.35,205.417 262.633,205.133 262,204.7" style="fill:#aaa080;"/>
                <path d="M261.6,194.65L260.7,195.2C259.667,196.1 259.117,197.333 259.05,198.9C259.017,199.9 259.183,200.833 259.55,201.7M260,202.65L260.4,203.2L262,204.7C262.633,205.133 263.35,205.417 264.15,205.55C265.617,205.883 266.9,205.583 268,204.65L268.9,203.7" style="fill:none;fill-rule:nonzero;stroke:#000;stroke-opacity:0.3;stroke-width:0.05px;"/>
                <path d="M280.05,194.8L282.9,195.35L285,198.9L276.45,197.2L278.65,195.45L280.05,194.8" style="fill:#716044;"/>
                <path d="M280.05,194.8L282.9,195.35L285,198.9L276.45,197.2L278.65,195.45L280.05,194.8Z" style="fill:none;fill-rule:nonzero;stroke:#000;stroke-opacity:0.3;stroke-width:0.05px;"/>
                <path d="M282.95,203.6C283.183,203.133 283.267,202.617 283.2,202.05C283.133,201.317 282.817,200.683 282.25,200.15C281.683,199.617 281.033,199.333 280.3,199.3C279.8,199.3 279.367,199.433 279,199.7L278.55,200.05C278.15,200.517 277.983,201.117 278.05,201.85C278.117,202.45 278.333,203.017 278.7,203.55L279.55,204.05L280.95,204.5L282,204.45L282.65,203.95L282.95,203.6M277.2,206.25L276.85,205.95C275.65,204.75 274.95,203.35 274.75,201.75C274.583,200.117 275,198.733 276,197.6C277,196.467 278.283,195.933 279.85,196C281.483,196.067 282.917,196.683 284.15,197.85C284.85,198.55 285.383,199.317 285.75,200.15L286.15,204.2C285.983,204.833 285.7,205.4 285.3,205.9L283.15,207.15L281.05,207.45L280.4,207.25L280.2,206.05L279.85,207.1L277.2,206.25" style="fill:#e2dccb;"/>
                <path d="M282.95,203.6L282.65,203.95L282,204.45L278.7,203.55C278.333,203.017 278.117,202.45 278.05,201.85C277.983,201.117 278.15,200.517 278.55,200.05L279,199.7C278.733,200.067 278.633,200.533 278.7,201.1C278.8,201.7 279.033,202.267 279.4,202.8L282.65,203.7L282.95,203.6" style="fill:#978b47;"/>
                <path d="M279,199.7C279.367,199.433 279.8,199.3 280.3,199.3C281.033,199.333 281.683,199.617 282.25,200.15C282.817,200.683 283.133,201.317 283.2,202.05C283.267,202.617 283.183,203.133 282.95,203.6L282.65,203.7L279.4,202.8C279.033,202.267 278.8,201.7 278.7,201.1C278.633,200.533 278.733,200.067 279,199.7" style="fill:#5c542e;"/>
                <path d="M282,204.45L280.95,204.5L279.55,204.05L278.7,203.55L282,204.45" style="fill:#e0c585;"/>
                <path d="M285.75,200.15L286.3,202.15C286.367,202.883 286.317,203.567 286.15,204.2L285.75,200.15M285.3,205.9L285,206.25C284.033,207.383 282.767,207.917 281.2,207.85C279.7,207.783 278.367,207.25 277.2,206.25L279.85,207.1L280.2,206.05L280.4,207.25L281.05,207.45L283.15,207.15L285.3,205.9" style="fill:#aaa080;"/>
                <path d="M285.75,200.15L286.3,202.15C286.367,202.883 286.317,203.567 286.15,204.2C285.983,204.833 285.7,205.4 285.3,205.9L285,206.25C284.033,207.383 282.767,207.917 281.2,207.85C279.7,207.783 278.367,207.25 277.2,206.25" style="fill:none;fill-rule:nonzero;stroke:#000;stroke-opacity:0.3;stroke-width:0.05px;"/>
                <path d="M283.45,188.55C283.017,188.283 282.717,187.933 282.55,187.5L282.45,187.25L284.3,184.8L283.45,188.55" style="fill:#bbaf2b;"/>
                <path d="M282.45,187.25L282.35,186.85C285.417,181.983 286.467,182.75 285.5,189.15C284.633,189.117 283.95,188.917 283.45,188.55L284.3,184.8L282.45,187.25" style="fill:#696316;"/>
                <path d="M282.35,186.85C285.417,181.983 286.467,182.75 285.5,189.15" style="fill:none;fill-rule:nonzero;stroke:#382510;stroke-opacity:0.5;stroke-width:0.05px;"/>
                <path d="M272.25,184L271.8,183.75C272.7,178.483 273.833,178.567 275.2,184L273.25,184.3L272.7,182L272.25,184" style="fill:#696316;"/>
                <path d="M273.25,184.3L272.3,184L272.25,184L272.7,182L273.25,184.3" style="fill:#978e24;"/>
                <path d="M271.8,183.75C272.7,178.483 273.833,178.567 275.2,184" style="fill:none;fill-rule:nonzero;stroke:#382510;stroke-opacity:0.5;stroke-width:0.05px;"/>
            </g>
        </g>
    </g>
</svg>
