<?xml version="1.0" encoding="UTF-8"?>
<svg version="1.1" viewBox="0 0 25.5 45.3" xmlns="http://www.w3.org/2000/svg" xmlns:cc="http://creativecommons.org/ns#" xmlns:dc="http://purl.org/dc/elements/1.1/" xmlns:rdf="http://www.w3.org/1999/02/22-rdf-syntax-ns#" xmlns:xlink="http://www.w3.org/1999/xlink">
<metadata>
<rdf:RDF>
<cc:Work rdf:about="">
<dc:format>image/svg+xml</dc:format>
<dc:type rdf:resource="http://purl.org/dc/dcmitype/StillImage"/>
</cc:Work>
</rdf:RDF>
</metadata>
<g transform="translate(-387.72 -277.82)">
<use transform="translate(388.7,294.85)" width="24.5" height="28.25" xlink:href="#b"/>
<use transform="translate(387.75,277.85)" width="22.15" height="31.5" xlink:href="#a"/>
</g>
<defs>
<g id="b" transform="translate(9.35,7.65)">
<use transform="translate(-9.35,-7.65)" width="24.5" height="28.25" xlink:href="#d"/>
</g>
<g id="d" transform="translate(9.35,7.65)">
<path d="m-2.8 19.75-1.35 0.85h-0.1q-2.7-3.5-4.25-11.3l-0.75-4.75-0.1-0.8q0.3-1.8 1.3-3.6 1.6-2.95 4.35-4.85l0.3 4.1q-2.15 3.15-3.7 6.55l-1.4 3.35 1.4-3.35q1.55-3.4 3.7-6.55l0.35 7.65q0.2 5.6 0.25 11.15v1.55m2.4-26.1 1.9-0.55 0.15 0.3 1.7 4.6-3.75-4.35m-5.1 3.8-0.3 0.6-0.15 1 0.2 0.85q0.2 0.25 0.4 0.15l0.4-0.6 0.1-1.1-0.2-0.85-0.45-0.05m-1.3 2.4q-0.35-0.55-0.8-0.3l-0.65 1.3-0.1 2.05 0.55 1.55q0.35 0.55 0.8 0.25 0.4-0.35 0.6-1.3t0.1-1.95q-0.1-1.05-0.5-1.6m-0.3 8.4-0.3 0.6-0.15 1.05 0.15 0.9 0.4 0.15q0.25-0.15 0.35-0.7l0.2-0.95q-0.05-0.6-0.25-0.9-0.1-0.25-0.4-0.15" fill="#884022" fill-rule="evenodd"/>
<path d="m-6.8-0.15q0.4 0.55 0.5 1.6 0.1 1-0.1 1.95t-0.6 1.3q-0.45 0.3-0.8-0.25l-0.55-1.55 0.1-2.05 0.65-1.3q0.45-0.25 0.8 0.3m1.3-2.4 0.45 0.05 0.2 0.85-0.1 1.1-0.4 0.6q-0.2 0.1-0.4-0.15l-0.2-0.85 0.15-1 0.3-0.6m-1.6 10.8q0.3-0.1 0.4 0.15 0.2 0.3 0.25 0.9l-0.2 0.95q-0.1 0.55-0.35 0.7l-0.4-0.15-0.15-0.9 0.15-1.05 0.3-0.6" fill="#73371e" fill-rule="evenodd"/>
<path d="m3.35-2 0.05 0.25 1.7 6.45 0.15 0.9q-0.55 4.65-2.7 8.55-0.55-4.4-1.8-6.4l0.4 6.65q-2.1 3.8-3.95 5.35v-1.55q-0.05-5.55-0.25-11.15l-0.35-7.65-0.3-4.1 0.65-0.35 0.7-0.45 1.15-0.5 0.7-0.3 0.1-0.05 3.75 4.35" fill="#803b20" fill-rule="evenodd"/>
<path d="m3.4-1.75 1.7 6.45 0.15 0.9q-0.55 4.65-2.7 8.55-0.55-4.4-1.8-6.4l0.4 6.65q-2.1 3.8-3.95 5.35l-1.35 0.85h-0.1q-2.7-3.5-4.25-11.3l-0.75-4.75-0.1-0.8m10.85-10.65 0.15 0.3 1.7 4.6" fill="none" stroke="#000" stroke-linecap="round" stroke-linejoin="round" stroke-opacity=".30196" stroke-width=".05"/>
<path d="m3.35-2 0.05 0.25m-0.05-0.25-3.75-4.35m-3 5.75-0.3-4.1m-4.8 14 1.4-3.35q1.55-3.4 3.7-6.55l0.35 7.65q0.2 5.6 0.25 11.15v1.55" fill="none" stroke="#a34c28" stroke-linecap="round" stroke-linejoin="round" stroke-opacity=".2" stroke-width=".05"/>
<path d="m-1.2-6 0.7-0.3 0.1-0.05 1.9-0.55 0.15 0.3 1.7 4.6 0.05 0.25 1.7 6.45 0.15 0.9q-0.55 4.65-2.7 8.55-0.55-4.4-1.8-6.4l0.4 6.65q-2.1 3.8-3.95 5.35l-1.35 0.85q0.65-0.75 1.35-2.4l0.35-1 0.65-2.35q0.4-3.8-0.7-14.6l-0.55-5.3 0.7-0.45 1.15-0.5" fill-opacity=".2" fill-rule="evenodd"/>
<path d="m3.65-3.75q2.5 0.9 4.9 2.45 1.4 0.9 4.45 3.9l0.15 0.15 0.15 0.6q1 4.2 1.6 8.2l0.1 0.6 0.15 1.05v0.1l-1.4 0.4-1.8-3.15-4.8-8.25-3.5-6.05m-4.6-3.05 0.25 5.35 0.15 1.9-0.55-1.7-1.4-4.75 0.95-0.55 0.6-0.25" fill="#884022" fill-rule="evenodd"/>
<path d="m0-3q0.25-1.7 1.05-1.45 0.9 0.15 1.95 2.15 1.05 1.95 1.7 4.5l0.5 2.65-0.05 1.6q-0.15 1.65-1.05 1.45-0.65-0.15-1.35-1.2l-0.55-0.95q-0.9-1.6-1.5-3.6l-0.2-0.95-0.35-1.65-0.15-2.55m6.55 4.8 0.45 0.75 0.35 1.15 0.15 1.9q0 0.7-0.4 0.6-0.45-0.1-0.9-0.95l-0.45-1-0.3-1q-0.25-1.15-0.2-1.8 0.05-0.75 0.5-0.7l0.8 1.05" fill="#73371e" fill-rule="evenodd"/>
<path d="m13.15 2.75-0.15-0.15q-3.05-3-4.45-3.9-2.4-1.55-4.9-2.45l-2.15-3.85 2.15 3.85 3.5 6.05 4.8 8.25 1.8 3.15q-1.5-0.05-4-1.25l-0.6-0.35-3.4-5.9q0.45 2.75 2.5 6.85-3.1-1.65-5.9-5.15l-0.35-0.8-1.85-4.65-0.7-2-0.15-1.9-0.25-5.35q1.25-0.6 2.45-0.8 2.2-0.3 4.35 0.7 1.55 0.75 2.75 2l1.95 1.7 1.35 1.45 0.8 2.85 0.45 1.6v0.05m-13.15-5.75 0.15 2.55 0.35 1.65 0.2 0.95q0.6 2 1.5 3.6l0.55 0.95q0.7 1.05 1.35 1.2 0.9 0.2 1.05-1.45l0.05-1.6-0.5-2.65q-0.65-2.55-1.7-4.5-1.05-2-1.95-2.15-0.8-0.25-1.05 1.45m6.55 4.8-0.8-1.05q-0.45-0.05-0.5 0.7-0.05 0.65 0.2 1.8l0.3 1 0.45 1q0.45 0.85 0.9 0.95 0.4 0.1 0.4-0.6l-0.15-1.9-0.35-1.15-0.45-0.75" fill="#823c20" fill-rule="evenodd"/>
<path d="m13.15 2.75v-0.05l-0.45-1.6-0.8-2.85-1.35-1.45-1.95-1.7q-1.2-1.25-2.75-2-2.15-1-4.35-0.7m12.25 21.3 1.4-0.4v-0.1l-0.15-1.05-0.1-0.6q-0.6-4-1.6-8.2l-0.15-0.6m-13.7-2.3 0.7 2 1.85 4.65 0.35 0.8q2.8 3.5 5.9 5.15-2.05-4.1-2.5-6.85l3.4 5.9 0.6 0.35q2.5 1.2 4 1.25m-14.3-13.25-0.55-1.7-1.4-4.75" fill="none" stroke="#000" stroke-linecap="round" stroke-linejoin="round" stroke-opacity=".30196" stroke-width=".05"/>
<path d="m3.65-3.75q2.5 0.9 4.9 2.45 1.4 0.9 4.45 3.9l0.15 0.15m-11.65-10.35 2.15 3.85 3.5 6.05 4.8 8.25 1.8 3.15m-14.7-20.5 0.25 5.35 0.15 1.9" fill="none" stroke="#a34c28" stroke-linecap="round" stroke-linejoin="round" stroke-opacity=".2" stroke-width=".05"/>
<path d="m13.15 2.75 0.15 0.6q1 4.2 1.6 8.2l0.1 0.6 0.15 1.05v0.1l-1.4 0.4q-1.5-0.05-4-1.25 1.35-0.6 2.2-1.9 0.95-1.55 1.15-4.05 0.15-2-0.1-3.9l0.15 0.15" fill-opacity=".2" fill-rule="evenodd"/>
</g>
<g id="a" transform="translate(4.05,3.7)">
<use transform="translate(-4.05,-3.7)" width="22.15" height="31.5" xlink:href="#c"/>
</g>
<g id="c" transform="translate(4.05,3.7)">
<path d="m2.55 9.95-0.15-1.55 1.05 0.95-1.05-0.95 0.15 1.55q-4.15 3.35-5.7 11.45-0.65-6.45-0.9-14.55 0.95-10.35 5.85-7.9 2.6 4.4 4.7 9.15-1.7 0.35-3.05 1.25l-0.9 0.6m-0.15-1.55-0.6-9.45 0.6 9.45" fill="#6c331c" fill-rule="evenodd"/>
<path d="m2.55 9.95 0.9-0.6 2.5 2.85 3.75 5.3 0.05 0.3q0.8 2.9 1.4 6.45-0.7 0.15-1.5 0.7-2.05 1.45-4.05 2.2l-0.45 0.1-0.75 0.2-0.25 0.1-0.75 0.1-0.4-8.75-0.3-4.85v-1.15l-0.1-1.7-0.05-1.25" fill="#803b20" fill-rule="evenodd"/>
<path d="m3.45 9.35q1.35-0.9 3.05-1.25l0.7 1.8 0.15 0.35 0.5 1.35 0.15 0.35 1.7 5.55-3.75-5.3-2.5-2.85m-0.9 0.6 0.05 1.25 0.1 1.7v1.15l0.3 4.85q-2.1 3.7-3.6 7.7 1.5-4 3.6-7.7l0.4 8.75 0.1 0.05-1.85 0.05-1.1-0.5-1.15-0.65q-1.25-0.7-2.15-1.8l-0.1-0.95-0.3-2.45q1.55-8.1 5.7-11.45m-2.5 13.65 0.1-2.4q-0.1-1.25-0.5-1.95-0.35-0.65-0.8-0.3t-0.65 1.5l-0.05 2.4 0.55 1.9q0.4 0.65 0.75 0.35 0.4-0.4 0.6-1.5m1.35-7q-0.2-0.35-0.45-0.2-0.2 0.15-0.3 0.75-0.2 0.55-0.15 1.2-0.05 0.65 0.2 1.05l0.35 0.2 0.4-0.75 0.1-1.25-0.15-1m-1.9-1.8-0.5 0.7-0.35 1.15v1.1q0.1 0.4 0.35 0.25l0.5-0.6 0.3-1.2q0.2-0.7 0.05-1.1-0.1-0.4-0.35-0.3" fill="#884022" fill-rule="evenodd"/>
<path d="m1.4 16.6 0.15 1-0.1 1.25-0.4 0.75-0.35-0.2q-0.25-0.4-0.2-1.05-0.05-0.65 0.15-1.2 0.1-0.6 0.3-0.75 0.25-0.15 0.45 0.2m-1.35 7q-0.2 1.1-0.6 1.5-0.35 0.3-0.75-0.35l-0.55-1.9 0.05-2.4q0.2-1.15 0.65-1.5t0.8 0.3q0.4 0.7 0.5 1.95l-0.1 2.4m-0.55-8.8q0.25-0.1 0.35 0.3 0.15 0.4-0.05 1.1l-0.3 1.2-0.5 0.6q-0.25 0.15-0.35-0.25v-1.1l0.35-1.15 0.5-0.7" fill="#73371e" fill-rule="evenodd"/>
<path d="m6.5 8.1q-2.1-4.75-4.7-9.15m-4.95 22.45 0.3 2.45 0.1 0.95m12.45-7.3-1.7-5.55-0.15-0.35-0.5-1.35m-0.15-0.35-0.7-1.8m3.25 9.7q0.8 2.9 1.4 6.45m-14.3-2.85q-0.65-6.45-0.9-14.55 0.95-10.35 5.85-7.9" fill="none" stroke="#000" stroke-linecap="round" stroke-linejoin="round" stroke-opacity=".30196" stroke-width=".05"/>
<path d="m3.45 9.35-1.05-0.95 0.15 1.55m-0.75-11 0.6 9.45m0.2 2.8-0.05-1.25m-3.15 16.65q1.5-4 3.6-7.7l-0.3-4.85v-1.15m0.75-3.55 2.5 2.85 3.75 5.3 0.05 0.3m-5.35 9.65-0.25 0.1-0.65 0.15m-0.1-0.05 0.1 0.05m-0.1-0.05-0.4-8.75" fill="none" stroke="#a34c28" stroke-linecap="round" stroke-linejoin="round" stroke-opacity=".2" stroke-width=".05"/>
<path d="M 7.35,10.25 7.2,9.9" fill="none" stroke="#000" stroke-linecap="round" stroke-linejoin="round" stroke-opacity=".2" stroke-width="1.5"/>
<path d="m7.35 10.25 0.5 1.35 0.15 0.35 1.7 5.55 0.05 0.3q0.8 2.9 1.4 6.45-0.7 0.15-1.5 0.7-2.05 1.45-4.05 2.2l-0.45 0.1-0.75 0.2-0.25 0.1-0.55-6.3-0.55-5.3-0.35-3.05-0.1-1.7-0.05-1.25-0.15-1.55-0.6-9.45q2.6 4.4 4.7 9.15l0.7 1.8 0.15 0.35" fill-opacity=".2" fill-rule="evenodd"/>
<path d="m1.2-0.8q0.55-2.1 1.65-2.35 1.25-0.35 3.25 1.95 5.95 4.25 10.8 17.2-5.9-6.15-8.3-7.2-1.5-0.65-2.9-0.45l-0.5-1-4-8.15" fill="#66301a" fill-rule="evenodd"/>
<path d="m16.9 16 0.05 0.05h-0.05l1.2 3.3-0.85 1.15v0.05l-0.15 0.2-0.4 0.3-0.1 0.15q-4.6-3.95-7-5.15l-2.15-4.25-1-1.95-0.75-1.5 0.75 1.5 1 1.95 2.15 4.25 2.5 5.35q-0.25-0.35-0.45-0.4-0.45-0.15-0.45 0.65-0.1 0.75 0.2 2l0.6 1.65-0.6 0.35-0.2 0.15-0.6-3.4q-0.65-2.7-1.65-4.85-1.05-2.2-1.9-2.5-0.9-0.3-1.1 1.45-0.1 1.1 0.15 2.7l0.3 1.85 0.25 0.95q0.6 2.2 1.45 3.95l0.6 1.05 1.95-0.9-1.95 1v-0.1l-0.2 0.05-0.55 0.3-1.85-5.1-0.7-2.15-0.15-2-0.2-5.7-0.05-1.85 0.1-2.1 0.6-0.1q1.4-0.2 2.9 0.45 2.4 1.05 8.3 7.2v0.05-0.05m-3.3 7.9h-0.1q0.1-0.5 0.1 0" fill="#823c20" fill-rule="evenodd"/>
<path d="m16.6 21.2-0.95 1.1-1.75 1.6h-0.3q0-0.5-0.1 0h-0.05l-1-1.8-0.35-0.7-2.5-5.35q2.4 1.2 7 5.15m-11.2-1.1-0.55-1.8-1.35-5.15-0.4-1.7-0.35-1.6q1.15-1 2.35-1.4l-0.1 2.1 0.05 1.85 0.2 5.7 0.15 2" fill="#884022" fill-rule="evenodd"/>
<path d="m13.45 23.9v0.35l-0.1 0.05-1.25 0.95-0.1 0.05-0.6-1.65q-0.3-1.25-0.2-2 0-0.8 0.45-0.65 0.2 0.05 0.45 0.4l1.25 2.9-1.25-2.9 0.35 0.7 1 1.8m-2.25 1.9v0.1l-0.55 0.2-1.95 0.9-0.6-1.05q-0.85-1.75-1.45-3.95l-0.25-0.95-0.3-1.85q-0.25-1.6-0.15-2.7 0.2-1.75 1.1-1.45 0.85 0.3 1.9 2.5 1 2.15 1.65 4.85l0.6 3.4" fill="#73371e" fill-rule="evenodd"/>
<path d="m2.75 9.85q-1.05-5.35-1.55-10.65l4 8.15 0.5 1-0.6 0.1q-1.2 0.4-2.35 1.4m2.35-1.4 0.1-1.1-0.1 1.1" fill="#6c331c" fill-rule="evenodd"/>
<path d="m1.2-0.8q0.55-2.1 1.65-2.35 1.25-0.35 3.25 1.95 5.95 4.25 10.8 17.2v0.05l1.2 3.3m-10.15 8-1.85-5.1-0.7-2.15-0.55-1.8-1.35-5.15-0.4-1.7-0.35-1.6q-1.05-5.35-1.55-10.65m15.5 21.85-0.05 0.2" fill="none" stroke="#000" stroke-linecap="round" stroke-linejoin="round" stroke-opacity=".30196" stroke-width=".05"/>
<path d="m17.25 20.5v0.05l-0.6 0.7-0.05-0.05m-15.4-22 4 8.15 1.25 2.5 1 1.95 2.15 4.25q2.4 1.2 7 5.15m-11.4-13.85-0.1 1.1-0.1 2.1 0.05 1.85 0.2 5.7 0.15 2m6.7 1.3 1.25 2.9m-1.25-2.9-2.5-5.35" fill="none" stroke="#a34c28" stroke-linecap="round" stroke-linejoin="round" stroke-opacity=".2" stroke-width=".05"/>
<path d="m1.4 6.8v-1.5l-1.35-0.2 2.35-0.5q0.3 0.2 0.5 0.9l-1.5 1.3m1.85-2.6 1.1-0.7q0.95 0.15 0.65 1l-1.25 0.5-0.35-0.65-0.15-0.15" fill="#574f28" fill-rule="evenodd"/>
<path d="m2.4 4.6-0.1-0.05q0.35-0.35 0.75-0.4l0.2 0.05 0.15 0.15 0.35 0.65v0.2q-0.45 0.45-0.85 0.4v-0.1q-0.2-0.7-0.5-0.9" fill="#d1bd9f" fill-rule="evenodd"/>
<path d="m1.4 6.8q-1.15 0-1.4-0.35-0.2-0.7 0.05-1.35l1.35 0.2v1.5" fill="#85753d" fill-rule="evenodd"/>
<path d="m0.05 5.1q-0.25 0.65-0.05 1.35 0.25 0.35 1.4 0.35v-1.5l-1.35-0.2 2.35-0.5-0.1-0.05q0.35-0.35 0.75-0.4l0.2 0.05 1.1-0.7q0.95 0.15 0.65 1l-1.25 0.5v0.2q-0.45 0.45-0.85 0.4v-0.1l-1.5 1.3m1-2.2q0.3 0.2 0.5 0.9m0.85-0.5-0.35-0.65-0.15-0.15" fill="none" stroke="#000" stroke-linecap="round" stroke-linejoin="round" stroke-opacity=".2" stroke-width=".05"/>
<path d="m4.75 10.35-0.2-0.6-0.2-0.25 1.25-0.45q0.9 0.15 0.5 1l-1.35 0.3m-1.2-0.65 0.3 1-1.6 1.1 0.2-1.55q-0.35-0.35-1.35-0.45l2.45-0.1" fill="#574f28" fill-rule="evenodd"/>
<path d="m4.75 10.35v0.3l-0.9 0.15v-0.1l-0.3-1-0.05-0.05q0.3-0.2 0.7-0.25l0.15 0.1 0.2 0.25 0.2 0.6" fill="#d1bd9f" fill-rule="evenodd"/>
<path d="m2.25 11.8q-1.2-0.15-1.35-0.6-0.1-0.7 0.2-1.4 1 0.1 1.35 0.45l-0.2 1.55" fill="#85753d" fill-rule="evenodd"/>
<path d="m3.85 10.7v0.1l0.9-0.15v-0.3l-0.2-0.6-0.2-0.25-0.15-0.1q-0.4 0.05-0.7 0.25l0.05 0.05 0.3 1-1.6 1.1q-1.2-0.15-1.35-0.6-0.1-0.7 0.2-1.4l2.45-0.1m-1.3 2.1 0.2-1.55q-0.35-0.35-1.35-0.45m3.65 0.55 1.35-0.3q0.4-0.85-0.5-1l-1.25 0.45" fill="none" stroke="#000" stroke-linecap="round" stroke-linejoin="round" stroke-opacity=".2" stroke-width=".05"/>
<path d="m5 14.85q0.2 0.35 0 1.05l-1.75 0.55 0.55-1.4q-0.25-0.4-1.1-0.75l2.3 0.55m1.1 0.9-0.05-0.65-0.1-0.2 1.3-0.25q0.8 0.5 0.15 1.15l-1.3-0.05" fill="#574f28" fill-rule="evenodd"/>
<path d="m5 14.85-0.05-0.05 0.8-0.05 0.2 0.15 0.1 0.2 0.05 0.65-0.1 0.25-1-0.1q0.2-0.7 0-1.05" fill="#d1bd9f" fill-rule="evenodd"/>
<path d="m2.7 14.3q0.85 0.35 1.1 0.75l-0.55 1.4q-1.05-0.45-1.15-0.9 0.1-0.75 0.6-1.25" fill="#85753d" fill-rule="evenodd"/>
<path d="m5.95 14.9-0.2-0.15-0.8 0.05 0.05 0.05q0.2 0.35 0 1.05l1 0.1 0.1-0.25-0.05-0.65-0.1-0.2 1.3-0.25q0.8 0.5 0.15 1.15l-1.3-0.05m-3.4-1.45q0.85 0.35 1.1 0.75l-0.55 1.4 1.75-0.55m0-1.05-2.3-0.55q-0.5 0.5-0.6 1.25 0.1 0.45 1.15 0.9" fill="none" stroke="#000" stroke-linecap="round" stroke-linejoin="round" stroke-opacity=".2" stroke-width=".05"/>
<path d="m3.2-2q0.7-1.05 2.1-1.7l2.1 0.95 1.6 1.3q-1.1 0.05-1.5 0.65l1.95 0.35q0.2 0.75-0.1 1.5-1.55-1.15-2.7-1.8-2.35-1.45-3.45-1.25" fill="#b3532c" fill-rule="evenodd"/>
<path d="m3.2-2q1.1-0.2 3.45 1.25 1.15 0.65 2.7 1.8l-2.9 0.2-2.55-0.5q-0.75-0.25-1.35-0.65 0.05-1.2 0.65-2.1m3.45 1.25-0.2 2 0.2-2" fill="#a64d29" fill-rule="evenodd"/>
<path d="m9.35 1.05q0.3-0.75 0.1-1.5l-1.95-0.35q0.4-0.6 1.5-0.65l-1.6-1.3-2.1-0.95q-1.4 0.65-2.1 1.7m6.15 3.05-2.9 0.2-2.55-0.5q-0.75-0.25-1.35-0.65 0.05-1.2 0.65-2.1" fill="none" stroke="#000" stroke-linecap="round" stroke-linejoin="round" stroke-opacity=".30196" stroke-width=".05"/>
<path d="m6.45 1.25 0.2-2" fill="none" stroke="#662f19" stroke-linecap="round" stroke-linejoin="round" stroke-opacity=".30196" stroke-width=".05"/>
<path d="m3.2-2q1.1-0.2 3.45 1.25 1.15 0.65 2.7 1.8z" fill="none" stroke="#000" stroke-linecap="round" stroke-linejoin="round" stroke-opacity=".2" stroke-width=".05"/>
<path d="m-2.4 5.1-1.05-0.85 0.95-1.65q-0.7-0.05-1.4 0.7l0.15-2 0.65-2.15q1.3-0.65 2.45-0.5-0.85 0.7-1.3 3.3l-0.45 3.15" fill="#be5a30" fill-rule="evenodd"/>
<path d="m-0.65-1.35q0.95 0.15 1.75 0.8l-0.4 1.45-1.15 2.15-1.95 2.05 0.45-3.15q0.45-2.6 1.3-3.3m0.2 4.4-1.5-1.1 1.5 1.1" fill="#a64d29" fill-rule="evenodd"/>
<path d="m-2.4 5.1-1.05-0.85 0.95-1.65q-0.7-0.05-1.4 0.7l0.15-2 0.65-2.15q1.3-0.65 2.45-0.5 0.95 0.15 1.75 0.8l-0.4 1.45-1.15 2.15-1.95 2.05" fill="none" stroke="#000" stroke-linecap="round" stroke-linejoin="round" stroke-opacity=".30196" stroke-width=".05"/>
<path d="m-1.95 1.95 1.5 1.1" fill="none" stroke="#662f19" stroke-linecap="round" stroke-linejoin="round" stroke-opacity=".30196" stroke-width=".05"/>
<path d="m-2.4 5.1 0.45-3.15q0.45-2.6 1.3-3.3" fill="none" stroke="#000" stroke-linecap="round" stroke-linejoin="round" stroke-opacity=".2" stroke-width=".05"/>
<path d="m1.7-2.6 1.55 1.3q1.5 1.65 3 4.95-1 0.3-2 0l-0.65-1.9q-0.8 0.35-0.75 1.5l-1.8-1.65q-0.9-1.05-1.5-2.2 0.8-1.35 2.15-2" fill="#be5a30" fill-rule="evenodd"/>
<path d="m1.7-2.6q1.15-0.6 2.75-0.6l0.95 1.4 0.4 0.8-2.55-0.3 2.55 0.3q0.75 2 0.45 4.65-1.5-3.3-3-4.95l-1.55-1.3" fill="#a64d29" fill-rule="evenodd"/>
<path d="m5.8-1-0.4-0.8-0.95-1.4q-1.6 0-2.75 0.6m4.1 1.6q0.75 2 0.45 4.65-1 0.3-2 0l-0.65-1.9q-0.8 0.35-0.75 1.5l-1.8-1.65q-0.9-1.05-1.5-2.2 0.8-1.35 2.15-2" fill="none" stroke="#000" stroke-linecap="round" stroke-linejoin="round" stroke-opacity=".30196" stroke-width=".05"/>
<path d="m1.7-2.6 1.55 1.3 2.55 0.3m-2.55-0.3q1.5 1.65 3 4.95" fill="none" stroke="#000" stroke-linecap="round" stroke-linejoin="round" stroke-opacity=".2" stroke-width=".05"/>
</g>
</defs>
</svg>
