<?xml version="1.0" encoding="UTF-8"?>
<svg version="1.1" viewBox="0 0 202.47 330.93" xmlns="http://www.w3.org/2000/svg" xmlns:cc="http://creativecommons.org/ns#" xmlns:dc="http://purl.org/dc/elements/1.1/" xmlns:rdf="http://www.w3.org/1999/02/22-rdf-syntax-ns#" xmlns:xlink="http://www.w3.org/1999/xlink">
<metadata>
<rdf:RDF>
<cc:Work rdf:about="">
<dc:format>image/svg+xml</dc:format>
<dc:type rdf:resource="http://purl.org/dc/dcmitype/StillImage"/>
</cc:Work>
</rdf:RDF>
</metadata>
<g transform="translate(-194.2 -5.9407)">
<use transform="translate(194.2,5.95)" width="202.45" height="330.89999" xlink:href="#a"/>
</g>
<defs>
<g id="a" transform="translate(-194.2,-5.95)">
<path d="m317.15 74.15q1.9 0 3-1.3 0.95-1.1 0.95-2.45-0.15-4.15-4.7-4.15-1.85 0-3 1.35-0.95 1.15-0.95 2.5 0 1.1 0.85 2.25 1.3 1.8 3.85 1.8m-26.3-5.95q6.35-0.55 14.8-2.4 8-9 16-2.95 5.5 13.5 7.35 30.15-19.95-3.8-38.15-24.8m40.85 45.4q7.85 14.5 7.45 30.6 10.95 19.95 17.55 48.55-14.65 10.7-39.15-13.2 3.5-7.65 7.15-14.15-16.55 14.9-24.15 2.9l1.05 6.9 12.95 11q22.55 17.25 45.15 24.35 6.55 10.25 8.6 22.55 14.9 22.7 21.6 44.65-6.05 10.5-32.05-10.3 3.7-7.55 6.45-16.95-15.15 26.8-40.7 7.2 1.5 4 3.85 8.4 8.65 16.3 15.5 30.35l1.95 6.25q2 6 1.7 6.15-48.2 22-64.45-24.5 1.9-13.5 6.1-26-7.05 15.75-14.1 17.05-9.8-24.8-17.95-57.25-4.85-14.9-3.95-33.25 15.15 28.1 44.25 53.9l1.25-2.4q16.1 16.1 22.9 13.35-1.4-4-1.9-7.45-12-1.6-16.1-14.25 3.6-5.75 7.85-11.2l-1.6-6.2q-4.65 10.8-13.65 17.2-22.05-22.55-46.4-56.1-0.45-5.75 1.2-11.95-6.9-29.3-2.95-57.9 8.2 13.85 17.3 25.65 16.25 20.9 35.35 35.1l0.8 5.65-0.8-5.65q-0.95-6.9-1.65-13.8-21.7-6.05-29.65-30.3l8.65-19.5 11.5-25.75q16.8 21.35 43.1 40.3m53.95 177.5q-14-1.9-27.9 3.85-12.45 2.95-13.85-3.05l10.55-18.2-10.55 18.2-0.95 4.55q-6.85-14.05-15.5-30.35 14 2.45 27 7.6 17.1 6.75 31.2 17.4m-140-199.8q-1.6-13.7 1-28.45 11.15-9.95 27.7 2.95 2.9 2.25 9 2.6l5.25 4.9-11.5 25.75q-16.2 20.2-31.45-7.75m47.75 31.8q2.65 6.05 4.7 25.75-2.05-19.7-4.7-25.75m1.6 46.9q0.95-1.1 0.95-2.4-3.85-9.75-8.35-11.6-1.85-1.6-3.25-1.6-1.85 0-2.95 1.45-0.8 1.1-0.8 2.2t2.5 4.25q1.4 1.75 2.75 2.7l0.5 0.6q4.8 5.7 5.8 5.7 1.75 0 2.85-1.3m32.1-51.6q-4.45-9.35-8.65-9.35-1.9 0-3 1.5-0.75 1.1-0.75 2.2 0 0.65 3.2 4.8 3.55 4.6 5.45 4.6 3.75 0 3.75-3.75m-77.05 41.4 14.35-32.25-14.35 32.25m55.1 29.6q0.95 1.8 3.2 1.8 3.75 0 3.75-3.8-0.35-3.7-3.75-3.7-1.95 0-3 1.5-0.75 1.05-0.75 2.2 0 1 0.55 2m38.05-30.55q-0.85-5.55-4.5-5.55-1.85 0-2.9 1.4-0.85 1.15-0.85 2.55 0 1 0.95 2.8 1.4 2.6 3.55 2.6 3.75 0 3.75-3.8m-4.05-14.65q-7.45 8.5-14.45 21.2 7-12.7 14.45-21.2m20.2 76.2q-4.9-8.2-9.2-8.2-2.1 0-3.15 1.5-0.8 1.05-0.8 2.25 0 0.6 3.4 4.2 3.8 4.05 6 4.05 3.75 0 3.75-3.8m17.55 34.65q0.85-1.1 0.85-2.4-1.65-6.7-6.2-6.7-1.75 0-2.9 1.15-1.05 1.05-1.05 2.5 0 0.65 2.45 3.65 2.65 3.2 3.95 3.2 1.85 0 2.9-1.4m-75.3-79.85q2.45 15.15 5.95 29.9l1.35 5.55-1.35-5.55q-3.5-14.75-5.95-29.9m8.9 41.65q6.35 12.55 8.25 25.45-1.9-12.9-8.25-25.45m10.15 32.9 2.95 7.95-2.95-7.95m-6.1-63.55q-3.15 7.4-7 18.9 3.85-11.5 7-18.9m49.75 64.3q2.35-8.05 4-17.4-1.65 9.35-4 17.4m-93.85-176.75q0 1.45 1.25 2.85 1.75 2.05 5.1 2.05 3.8 0 3.8-3.85 0-1.4-1.45-2.9-1.85-1.9-4.8-1.9-2.05 0-3.15 1.5-0.75 1.1-0.75 2.25m-10.9 53.3q-1.3-7.55-4.85-7.55-3.75 0-3.75 4.4 0 1.5 0.95 3.65 1.45 3.2 3.9 3.2 1.8 0 2.85-1.3 0.9-1.1 0.9-2.4m36.95 111.75q-4.9 9.45-8.25 19.55 3.35-10.1 8.25-19.55" fill="url(#b)" fill-rule="evenodd"/>
<path d="m317.15 74.15q-2.55 0-3.85-1.8-0.85-1.15-0.85-2.25 0-1.35 0.95-2.5 1.15-1.35 3-1.35 4.55 0 4.7 4.15 0 1.35-0.95 2.45-1.1 1.3-3 1.3m9.95 44.25q0 3.75-3.75 3.75-1.9 0-5.45-4.6-3.2-4.15-3.2-4.8 0-1.1 0.75-2.2 1.1-1.5 3-1.5 4.2 0 8.65 9.35m-32.1 51.6q-1.1 1.3-2.85 1.3-1 0-5.8-5.7l-0.5-0.6q-1.35-0.95-2.75-2.7-2.5-3.15-2.5-4.25t0.8-2.2q1.1-1.45 2.95-1.45 1.4 0 3.25 1.6 4.5 1.85 8.35 11.6 0 1.3-0.95 2.4m10.15 19.4q-0.55-1-0.55-2 0-1.15 0.75-2.2 1.05-1.5 3-1.5 3.4 0 3.75 3.7 0 3.8-3.75 3.8-2.25 0-3.2-1.8m38.05-30.55q0 3.8-3.75 3.8-2.15 0-3.55-2.6-0.95-1.8-0.95-2.8 0-1.4 0.85-2.55 1.05-1.4 2.9-1.4 3.65 0 4.5 5.55m33.7 96.2q-1.05 1.4-2.9 1.4-1.3 0-3.95-3.2-2.45-3-2.45-3.65 0-1.45 1.05-2.5 1.15-1.15 2.9-1.15 4.55 0 6.2 6.7 0 1.3-0.85 2.4m-17.55-34.65q0 3.8-3.75 3.8-2.2 0-6-4.05-3.4-3.6-3.4-4.2 0-1.2 0.8-2.25 1.05-1.5 3.15-1.5 4.3 0 9.2 8.2m-88.9-146.65q0-1.15 0.75-2.25 1.1-1.5 3.15-1.5 2.95 0 4.8 1.9 1.45 1.5 1.45 2.9 0 3.85-3.8 3.85-3.35 0-5.1-2.05-1.25-1.4-1.25-2.85m-10.9 53.3q0 1.3-0.9 2.4-1.05 1.3-2.85 1.3-2.45 0-3.9-3.2-0.95-2.15-0.95-3.65 0-4.4 3.75-4.4 3.55 0 4.85 7.55" fill="#fffbd5" fill-rule="evenodd"/>
<path d="m329 93 2.7 20.6q-26.3-18.95-43.1-40.3l-5.25-4.9 7.5-0.2q18.2 21 38.15 24.8m-81.9 8.9-1.45-10.6q15.25 27.95 31.45 7.75l-8.65 19.5q7.95 24.25 29.65 30.3 0.7 6.9 1.65 13.8-19.1-14.2-35.35-35.1l4.05-9-4.05 9q-9.1-11.8-17.3-25.65m43.75-33.7-2.25 5.1 2.25-5.1" fill="#f2bb5e" fill-rule="evenodd"/>
<path d="m356.7 192.75 3 17.8q-22.6-7.1-45.15-24.35l-12.95-11-1.05-6.9q7.6 12 24.15-2.9-3.65 6.5-7.15 14.15 24.5 23.9 39.15 13.2m-39.15-13.2-3 6.65 3-6.65" fill="#f0b34a" fill-rule="evenodd"/>
<path d="m389.9 277.75q2.45 8.1 6.75 16.05-5.5-1.95-11-2.7-14.1-10.65-31.2-17.4l3.4-6.25-3.4 6.25q-13-5.15-27-7.6-2.35-4.4-3.85-8.4 25.55 19.6 40.7-7.2-2.75 9.4-6.45 16.95 26 20.8 32.05 10.3m-32.15 17.2q-7.05 2.9-12.85 7.75l-1.95-6.25 0.95-4.55q1.4 6 13.85 3.05m-11.15 13.9q-0.25 0.3 0.05 0.95 8.25 16.65-49.45 10.05-8.4-11.95-15.9-27.9-3.7-7.8-7.15-16.55 7.05-1.3 14.1-17.05-4.2 12.5-6.1 26 16.25 46.5 64.45 24.5m-94.35-123.95q-2.9-6.25-3.4-13.15 24.35 33.55 46.4 56.1 9-6.4 13.65-17.2l1.6 6.2q-4.25 5.45-7.85 11.2-2.65 4.1-4.9 8.35 2.25-4.25 4.9-8.35 4.1 12.65 16.1 14.25 0.5 3.45 1.9 7.45-6.8 2.75-22.9-13.35l-1.25 2.4q-29.1-25.8-44.25-53.9m29.9 99.45q-0.55 3.75-0.85 7.6 0.3-3.85 0.85-7.6" fill="#efa830" fill-rule="evenodd"/>
<path d="m297.2 319.85q6.95 9.85 14.45 16.95-24.4 0.55-31-6-16-50-24.45-112.65 8.15 32.45 17.95 57.25 3.45 8.75 7.15 16.55 7.5 15.95 15.9 27.9" fill="#a46b0d" fill-rule="evenodd"/>
<path d="m290.85 68.2q6.35-0.55 14.8-2.4 8-9 16-2.95 5.5 13.5 7.35 30.15l2.7 20.6q7.85 14.5 7.45 30.6 10.95 19.95 17.55 48.55l3 17.8q6.55 10.25 8.6 22.55 14.9 22.7 21.6 44.65 2.45 8.1 6.75 16.05-5.5-1.95-11-2.7-14-1.9-27.9 3.85-7.05 2.9-12.85 7.75 2 6 1.7 6.15-0.25 0.3 0.05 0.95 8.25 16.65-49.45 10.05 6.95 9.85 14.45 16.95-24.4 0.55-31-6-16-50-24.45-112.65-4.85-14.9-3.95-33.25-2.9-6.25-3.4-13.15-0.45-5.75 1.2-11.95-6.9-29.3-2.95-57.9l-1.45-10.6q-1.6-13.7 1-28.45 11.15-9.95 27.7 2.95 2.9 2.25 9 2.6l7.5-0.2m7.25 80.65q-2.05-19.7-4.7-25.75m8.2 52.1-1.05-6.9-0.8-5.65q-19.1-14.2-35.35-35.1l-14.35 32.25m64.5 26.4 3-6.65q3.5-7.65 7.15-14.15 7-12.7 14.45-21.2m-37.55 31 12.95 11q22.55 17.25 45.15 24.35m-59.95-47.9q-0.95-6.9-1.65-13.8m-29.65-30.3-4.05 9q-9.1-11.8-17.3-25.65m61.8 108.75-1.35-5.55q-3.5-14.75-5.95-29.9m-49.35 9.7q15.15 28.1 44.25 53.9l1.25-2.4q2.25-4.25 4.9-8.35 3.6-5.75 7.85-11.2l-1.6-6.2m-11.15 25.75q16.1 16.1 22.9 13.35-1.4-4-1.9-7.45-1.9-12.9-8.25-25.45m16.95 49.25q-2.35-4.4-3.85-8.4l-2.95-7.95m23.25 42.15-0.95 4.55 1.95 6.25m19.4-52.2q-2.75 9.4-6.45 16.95l-3.4 6.25q17.1 6.75 31.2 17.4m-31.2-17.4-10.55 18.2m-0.95 4.55q-6.85-14.05-15.5-30.35 14 2.45 27 7.6m13.85-40.6q-1.65 9.35-4 17.4m-56.75-45.4q3.85-11.5 7-18.9m-31.2-117.8 5.25 4.9 2.25-5.1m-13.75 30.85 11.5-25.75q16.8 21.35 43.1 40.3m-63.25 4.95 8.65-19.5m-2.95 176.35q3.45 8.75 7.15 16.55 0.3-3.85 0.85-7.6 1.9-13.5 6.1-26 3.35-10.1 8.25-19.55m-22.35 36.6q-9.8-24.8-17.95-57.25m41 101.7q-8.4-11.95-15.9-27.9" fill="none" stroke="#000" stroke-linecap="round" stroke-linejoin="round" stroke-opacity=".63137" stroke-width=".05"/>
<path d="m310.9 68.25q-8.25-7.85-11.7-7.7-0.8 0-1.6 0.75 3.95-0.35 3.3 4.75 4.6-2.25 10 2.2" fill="#737237" fill-rule="evenodd"/>
<path d="m297.6 61.3q0.8-0.75 1.6-0.75 3.45-0.15 11.7 7.7-12.35-15.15-16.65-11.75 2.85-0.35 3.35 4.8" fill="#949849" fill-rule="evenodd"/>
<path d="m297.6 61.3q-0.5-5.15-3.35-4.8l-0.75 0.8q-4.1 6-4.05 27.9l0.85-4.7 0.2-0.9 1.9-7.4q2.55-8.75 5.2-10.9" fill="#b7b66a" fill-rule="evenodd"/>
<path d="m300.9 66.05q0.65-5.1-3.3-4.75-2.65 2.15-5.2 10.9l-1.9 7.4-0.2 0.9-0.85 4.7q1.3-4.15 2.7-7.4 4-9.45 8.75-11.75" fill="#8a8a42" fill-rule="evenodd"/>
<path d="m297.6 61.3q0.8-0.75 1.6-0.75 3.45-0.15 11.7 7.7m-21.45 16.95 0.85-4.7 0.2-0.9 1.9-7.4q2.55-8.75 5.2-10.9" fill="none" stroke="#c9c894" stroke-linecap="round" stroke-linejoin="round"/>
<path d="m294.25 56.5q4.3-3.4 16.65 11.75m-21.45 16.95q-0.05-21.9 4.05-27.9l0.75-0.8" fill="none" stroke="#ebe9d8" stroke-linecap="round" stroke-linejoin="round" stroke-width=".05"/>
<path d="m310.9 68.25q-5.4-4.45-10-2.2-4.75 2.3-8.75 11.75-1.4 3.25-2.7 7.4" fill="none" stroke="#000" stroke-linecap="round" stroke-linejoin="round" stroke-opacity=".4" stroke-width=".05"/>
<path d="m301 68.55q9.6-9.05 13.65-8.6 1 0.1 2 1-4.75-0.7-3.85 5.65-5.55-3.1-11.8 1.95" fill="#737237" fill-rule="evenodd"/>
<path d="m320.5 55.3q-3.4-0.65-3.85 5.65-1-0.9-2-1-4.05-0.45-13.65 8.6 14.35-17.75 19.5-13.25" fill="#949849" fill-rule="evenodd"/>
<path d="m316.65 60.95q0.45-6.3 3.85-5.65l0.85 1.05q5 7.65 5.45 34.65l-1.1-5.85-0.3-1.2-2.4-9.15q-3.25-11-6.35-13.85" fill="#b7b66a" fill-rule="evenodd"/>
<path d="m316.65 60.95q3.1 2.85 6.35 13.85l2.4 9.15 0.3 1.2 1.1 5.85-3.35-9.4q-4.95-11.85-10.65-15-0.9-6.35 3.85-5.65" fill="#8a8a42" fill-rule="evenodd"/>
<path d="m316.65 60.95q3.1 2.85 6.35 13.85l2.4 9.15 0.3 1.2 1.1 5.85m-25.8-22.45q9.6-9.05 13.65-8.6 1 0.1 2 1" fill="none" stroke="#c9c894" stroke-linecap="round" stroke-linejoin="round"/>
<path d="m326.8 91q-0.45-27-5.45-34.65l-0.85-1.05q-5.15-4.5-19.5 13.25" fill="none" stroke="#ebe9d8" stroke-linecap="round" stroke-linejoin="round" stroke-width=".05"/>
<path d="m312.8 66.6q5.7 3.15 10.65 15l3.35 9.4m-25.8-22.45q6.25-5.05 11.8-1.95" fill="none" stroke="#000" stroke-linecap="round" stroke-linejoin="round" stroke-opacity=".4" stroke-width=".05"/>
<path d="m308.05 67.75q5.25-17.1 9.5-21.25 1-0.95 2.35-1.35-4.95 4.6-1.2 8.25-6.85 3.85-10.65 14.35" fill="#737237" fill-rule="evenodd"/>
<path d="m319.9 45.15q-1.35 0.4-2.35 1.35-4.25 4.15-9.5 21.25 6-28.55 13.1-31-3.7 3.3-1.25 8.4" fill="#949849" fill-rule="evenodd"/>
<path d="m319.9 45.15q-2.45-5.1 1.25-8.4l1.35-0.2q8.4 0.05 21.15 19.15l-3.75-3.05-0.85-0.5-6.6-4q-8.15-4.4-12.55-3" fill="#b7b66a" fill-rule="evenodd"/>
<path d="m318.7 53.4q-3.75-3.65 1.2-8.25 4.4-1.4 12.55 3l6.6 4 0.85 0.5 3.75 3.05q-4.05-2-7.65-3.1-10.25-3.2-17.3 0.8" fill="#8a8a42" fill-rule="evenodd"/>
<path d="m319.9 45.15q-1.35 0.4-2.35 1.35-4.25 4.15-9.5 21.25m35.6-12.05-3.75-3.05-0.85-0.5-6.6-4q-8.15-4.4-12.55-3" fill="none" stroke="#c9c894" stroke-linecap="round" stroke-linejoin="round"/>
<path d="m321.15 36.75q-7.1 2.45-13.1 31m35.6-12.05q-12.75-19.1-21.15-19.15l-1.35 0.2" fill="none" stroke="#ebe9d8" stroke-linecap="round" stroke-linejoin="round" stroke-width=".05"/>
<path d="m308.05 67.75q3.8-10.5 10.65-14.35 7.05-4 17.3-0.8 3.6 1.1 7.65 3.1" fill="none" stroke="#000" stroke-linecap="round" stroke-linejoin="round" stroke-opacity=".4" stroke-width=".05"/>
<path d="m307.7 73.25q2.7-29.7 7.4-40.85 1.1-2.7 2.85-5.05-5.5 12.8 0.5 12.5-8.3 14.35-10.75 33.4" fill="#737237" fill-rule="evenodd"/>
<path d="m317.45 14.65q-4.1 9.3 0.5 12.7-1.75 2.35-2.85 5.05-4.7 11.15-7.4 40.85 0.75-45.85 9.75-58.6" fill="#949849" fill-rule="evenodd"/>
<path d="m317.95 27.35q-4.6-3.4-0.5-12.7 0.8-1.2 1.7-2.1 11.45-11.2 33.65-3.35l-5.9 1.1q-0.65 0.15-1.25 0.45-4.95 1.7-9.95 3.55-12.15 5.25-17.75 13.05" fill="#b7b66a" fill-rule="evenodd"/>
<path d="m317.95 27.35q5.6-7.8 17.75-13.05 5-1.85 9.95-3.55 0.6-0.3 1.25-0.45l5.9-1.1q-5.95 2.75-11.15 6.25-14.7 9.6-23.2 24.4-6 0.3-0.5-12.5" fill="#8a8a42" fill-rule="evenodd"/>
<path d="m317.95 27.35q5.6-7.8 17.75-13.05 5-1.85 9.95-3.55 0.6-0.3 1.25-0.45l5.9-1.1m-45.1 64.05q2.7-29.7 7.4-40.85 1.1-2.7 2.85-5.05" fill="none" stroke="#c9c894" stroke-linecap="round" stroke-linejoin="round"/>
<path d="m352.8 9.2q-22.2-7.85-33.65 3.35-0.9 0.9-1.7 2.1-9 12.75-9.75 58.6" fill="none" stroke="#ebe9d8" stroke-linecap="round" stroke-linejoin="round" stroke-width=".05"/>
<path d="m318.45 39.85q8.5-14.8 23.2-24.4 5.2-3.5 11.15-6.25m-45.1 64.05q2.45-19.05 10.75-33.4" fill="none" stroke="#000" stroke-linecap="round" stroke-linejoin="round" stroke-opacity=".4" stroke-width=".05"/>
<path d="m306.85 77.55q-0.5-19.55-2.95-25.65-0.6-1.5-1.6-2.55 2.9 7-0.85 8.8 4.65 7.1 5.4 19.4" fill="#737237" fill-rule="evenodd"/>
<path d="m303.15 40.45q2.2 5.05-0.85 8.9 1 1.05 1.6 2.55 2.45 6.1 2.95 25.65 1.45-31.3-3.7-37.1" fill="#949849" fill-rule="evenodd"/>
<path d="m302.3 49.35q3.05-3.85 0.85-8.9l-1.05-0.85q-6.75-3.95-21.15 8.85l3.7-1.2 0.75-0.1 6.15-0.85q7.5-0.45 10.75 3.05" fill="#b7b66a" fill-rule="evenodd"/>
<path d="m302.3 49.35q-3.25-3.5-10.75-3.05l-6.15 0.85-0.75 0.1-3.7 1.2 6.8 0.6q8.9 1.75 13.7 9.1 3.75-1.8 0.85-8.8" fill="#8a8a42" fill-rule="evenodd"/>
<path d="m302.3 49.35q-3.25-3.5-10.75-3.05l-6.15 0.85-0.75 0.1-3.7 1.2m25.9 29.1q-0.5-19.55-2.95-25.65-0.6-1.5-1.6-2.55" fill="none" stroke="#c9c894" stroke-linecap="round" stroke-linejoin="round"/>
<path d="m280.95 48.45q14.4-12.8 21.15-8.85l1.05 0.85q5.15 5.8 3.7 37.1" fill="none" stroke="#ebe9d8" stroke-linecap="round" stroke-linejoin="round" stroke-width=".05"/>
<path d="m301.45 58.15q-4.8-7.35-13.7-9.1l-6.8-0.6m25.9 29.1q-0.75-12.3-5.4-19.4" fill="none" stroke="#000" stroke-linecap="round" stroke-linejoin="round" stroke-opacity=".4" stroke-width=".05"/>
<path d="m306.9 68.6q2.7-22.65 0.55-31.15-0.5-2.1-1.6-3.95 2.6 9.85-2.6 9.55 4.8 11.05 3.65 25.55" fill="#737237" fill-rule="evenodd"/>
<path d="m305.85 33.5q1.1 1.85 1.6 3.95 2.15 8.5-0.55 31.15 7.2-34.9 1.55-44.7 2 7.15-2.6 9.6" fill="#949849" fill-rule="evenodd"/>
<path d="m305.85 33.5q4.6-2.45 2.6-9.6l-1.2-1.65q-8.1-8.75-28.9-3.1l5 0.9 1 0.4 8.1 2.9q9.85 4.15 13.4 10.15" fill="#b7b66a" fill-rule="evenodd"/>
<path d="m303.25 43.05q5.2 0.3 2.6-9.55-3.55-6-13.4-10.15l-8.1-2.9-1-0.4-5-0.9q4.75 2.25 8.7 4.9 11.25 7.65 16.2 19" fill="#8a8a42" fill-rule="evenodd"/>
<path d="m305.85 33.5q1.1 1.85 1.6 3.95 2.15 8.5-0.55 31.15m-28.55-49.45 5 0.9 1 0.4 8.1 2.9q9.85 4.15 13.4 10.15" fill="none" stroke="#c9c894" stroke-linecap="round" stroke-linejoin="round"/>
<path d="m308.45 23.9q5.65 9.8-1.55 44.7m-28.55-49.45q20.8-5.65 28.9 3.1l1.2 1.65" fill="none" stroke="#ebe9d8" stroke-linecap="round" stroke-linejoin="round" stroke-width=".05"/>
<path d="m306.9 68.6q1.15-14.5-3.65-25.55-4.95-11.35-16.2-19-3.95-2.65-8.7-4.9" fill="none" stroke="#000" stroke-linecap="round" stroke-linejoin="round" stroke-opacity=".4" stroke-width=".05"/>
<path d="m305.65 75.6q5.8-16.55 9.45-19.75 0.85-0.85 1.95-0.9-4.3 3.65-1.75 8.3-5.65 2.35-9.65 12.35" fill="#737237" fill-rule="evenodd"/>
<path d="m317.05 54.95q-1.1 0.05-1.95 0.9-3.65 3.2-9.45 19.75 7.5-28.3 13.15-29.1-3.15 2.55-1.75 8.45" fill="#949849" fill-rule="evenodd"/>
<path d="m317.05 54.95q-1.4-5.9 1.75-8.45l1.1 0.15q6.45 2.15 14.3 25.1l-2.55-4.1-0.65-0.7-4.6-5.8q-5.8-6.6-9.35-6.2" fill="#b7b66a" fill-rule="evenodd"/>
<path d="m315.3 63.25q-2.55-4.65 1.75-8.3 3.55-0.4 9.35 6.2l4.6 5.8 0.65 0.7 2.55 4.1q-2.9-3.05-5.55-5.1-7.55-5.8-13.35-3.4" fill="#8a8a42" fill-rule="evenodd"/>
<path d="m317.05 54.95q-1.1 0.05-1.95 0.9-3.65 3.2-9.45 19.75m28.55-3.85-2.55-4.1-0.65-0.7-4.6-5.8q-5.8-6.6-9.35-6.2" fill="none" stroke="#c9c894" stroke-linecap="round" stroke-linejoin="round"/>
<path d="m318.8 46.5q-5.65 0.8-13.15 29.1m28.55-3.85q-7.85-22.95-14.3-25.1l-1.1-0.15" fill="none" stroke="#ebe9d8" stroke-linecap="round" stroke-linejoin="round" stroke-width=".05"/>
<path d="m305.65 75.6q4-10 9.65-12.35 5.8-2.4 13.35 3.4 2.65 2.05 5.55 5.1" fill="none" stroke="#000" stroke-linecap="round" stroke-linejoin="round" stroke-opacity=".4" stroke-width=".05"/>
<path d="m311.9 68.45q9.3 13.4 8.8 30.4-9-13.85-22.75-19.3-1.2 17.25-6.85 26.5-4.65-17.35-14.5-29.5-17.35 12.85-27.1 39.1 2.85-26.4 15.2-45.35 19.5-4.95 47.2-1.85m4.1 117.75q7.95 47.1 39.85 84.9 5.75 10.55 11.8 20.7-14.1 2.75-22.75 10.9-43.5-82.9-50.25-175.95 9.9 30.8 21.35 59.45m-18.8 133.65q-44-69.95-47.8-156.9 15.8 68.15 39.25 94.4 12.15 39.9 34.05 64.35l-25.5-1.85" fill-opacity=".18824" fill-rule="evenodd"/>
<path d="m270.25 73.15q14.9-7.85 21-7.7 1.55 0 3 0.75-7.15-0.35-6 4.75-8.3-2.25-18 2.2" fill="#737237" fill-rule="evenodd"/>
<path d="m300.3 61.4q-5.2-0.35-6.05 4.8-1.45-0.75-3-0.75-6.1-0.15-21 7.7 22.35-15.15 30.05-11.75" fill="#949849" fill-rule="evenodd"/>
<path d="m294.25 66.2q0.85-5.15 6.05-4.8l1.35 0.8q7.35 6 7.3 27.9l-1.5-4.7-0.45-0.9-3.4-7.4q-4.65-8.75-9.35-10.9" fill="#b7b66a" fill-rule="evenodd"/>
<path d="m294.25 66.2q4.7 2.15 9.35 10.9l3.4 7.4 0.45 0.9 1.5 4.7q-2.35-4.15-4.9-7.4-7.15-9.45-15.8-11.75-1.15-5.1 6-4.75" fill="#8a8a42" fill-rule="evenodd"/>
<path d="m294.25 66.2q4.7 2.15 9.35 10.9l3.4 7.4 0.45 0.9 1.5 4.7m-38.7-16.95q14.9-7.85 21-7.7 1.55 0 3 0.75" fill="none" stroke="#c9c894" stroke-linecap="round" stroke-linejoin="round"/>
<path d="m308.95 90.1q0.05-21.9-7.3-27.9l-1.35-0.8q-7.7-3.4-30.05 11.75" fill="none" stroke="#ebe9d8" stroke-linecap="round" stroke-linejoin="round" stroke-width=".05"/>
<path d="m288.25 70.95q8.65 2.3 15.8 11.75 2.55 3.25 4.9 7.4m-38.7-16.95q9.7-4.45 18-2.2" fill="none" stroke="#000" stroke-linecap="round" stroke-linejoin="round" stroke-opacity=".4" stroke-width=".05"/>
<path d="m288.1 73.45q-17.35-9.05-24.65-8.6-1.75 0.1-3.5 1 8.45-0.7 6.9 5.65 9.95-3.1 21.25 1.95" fill="#737237" fill-rule="evenodd"/>
<path d="m259.95 65.85q1.75-0.9 3.5-1 7.3-0.45 24.65 8.6-25.9-17.75-35.2-13.25 6.25-0.65 7.05 5.65" fill="#949849" fill-rule="evenodd"/>
<path d="m259.95 65.85q-0.8-6.3-7.05-5.65l-1.55 1.05q-9 7.65-9.8 34.65l2-5.85 0.5-1.2 4.4-9.15q5.8-11 11.5-13.85" fill="#b7b66a" fill-rule="evenodd"/>
<path d="m266.85 71.5q1.55-6.35-6.9-5.65-5.7 2.85-11.5 13.85l-4.4 9.15-0.5 1.2-2 5.85q2.95-5.25 6.1-9.4 8.9-11.85 19.2-15" fill="#8a8a42" fill-rule="evenodd"/>
<path d="m259.95 65.85q1.75-0.9 3.5-1 7.3-0.45 24.65 8.6m-46.55 22.45 2-5.85 0.5-1.2 4.4-9.15q5.8-11 11.5-13.85" fill="none" stroke="#c9c894" stroke-linecap="round" stroke-linejoin="round"/>
<path d="m252.9 60.2q9.3-4.5 35.2 13.25m-46.55 22.45q0.8-27 9.8-34.65l1.55-1.05" fill="none" stroke="#ebe9d8" stroke-linecap="round" stroke-linejoin="round" stroke-width=".05"/>
<path d="m288.1 73.45q-11.3-5.05-21.25-1.95-10.3 3.15-19.2 15-3.15 4.15-6.1 9.4" fill="none" stroke="#000" stroke-linecap="round" stroke-linejoin="round" stroke-opacity=".4" stroke-width=".05"/>
<path d="m275.45 72.65q-9.55-17.1-17.15-21.25-1.8-0.95-4.3-1.35 8.95 4.6 2.15 8.25 12.4 3.85 19.3 14.35" fill="#737237" fill-rule="evenodd"/>
<path d="m251.8 41.65q6.65 3.3 2.2 8.4 2.5 0.4 4.3 1.35 7.6 4.15 17.15 21.25-10.85-28.55-23.65-31" fill="#949849" fill-rule="evenodd"/>
<path d="m254 50.05q4.45-5.1-2.2-8.4l-2.4-0.2q-15.2 0.05-38.15 19.15l6.75-3.05 1.55-0.5q5.9-2.05 11.8-4 14.75-4.4 22.65-3" fill="#b7b66a" fill-rule="evenodd"/>
<path d="m254 50.05q-7.9-1.4-22.65 3-5.9 1.95-11.8 4l-1.55 0.5-6.75 3.05q7.25-2 13.7-3.1 18.55-3.2 31.2 0.8 6.8-3.65-2.15-8.25" fill="#8a8a42" fill-rule="evenodd"/>
<path d="m254 50.05q-7.9-1.4-22.65 3-5.9 1.95-11.8 4l-1.55 0.5-6.75 3.05m64.2 12.05q-9.55-17.1-17.15-21.25-1.8-0.95-4.3-1.35" fill="none" stroke="#c9c894" stroke-linecap="round" stroke-linejoin="round"/>
<path d="m211.25 60.6q22.95-19.1 38.15-19.15l2.4 0.2q12.8 2.45 23.65 31" fill="none" stroke="#ebe9d8" stroke-linecap="round" stroke-linejoin="round" stroke-width=".05"/>
<path d="m256.15 58.3q-12.65-4-31.2-0.8-6.45 1.1-13.7 3.1m64.2 12.05q-6.9-10.5-19.3-14.35" fill="none" stroke="#000" stroke-linecap="round" stroke-linejoin="round" stroke-opacity=".4" stroke-width=".05"/>
<path d="m276.05 78.15q-4.95-29.7-13.3-40.85-1.95-2.7-5.2-5.05 9.9 12.8-0.9 12.5 15 14.35 19.4 33.4" fill="#737237" fill-rule="evenodd"/>
<path d="m257.55 32.25q3.25 2.35 5.2 5.05 8.35 11.15 13.3 40.85-1.4-45.85-17.6-58.6 7.45 9.3-0.9 12.7" fill="#949849" fill-rule="evenodd"/>
<path d="m257.55 32.25q8.35-3.4 0.9-12.7-1.5-1.2-3.15-2.1-20.6-11.2-60.6-3.35l10.6 1.1 2.25 0.45 17.95 3.55q21.95 5.25 32.05 13.05" fill="#b7b66a" fill-rule="evenodd"/>
<path d="m256.65 44.75q10.8 0.3 0.9-12.5-10.1-7.8-32.05-13.05l-17.95-3.55-2.25-0.45-10.6-1.1q10.7 2.75 20.05 6.25 26.55 9.6 41.9 24.4" fill="#8a8a42" fill-rule="evenodd"/>
<path d="m257.55 32.25q3.25 2.35 5.2 5.05 8.35 11.15 13.3 40.85m-81.35-64.05 10.6 1.1 2.25 0.45 17.95 3.55q21.95 5.25 32.05 13.05" fill="none" stroke="#c9c894" stroke-linecap="round" stroke-linejoin="round"/>
<path d="m258.45 19.55q16.2 12.75 17.6 58.6m-81.35-64.05q40-7.85 60.6 3.35 1.65 0.9 3.15 2.1" fill="none" stroke="#ebe9d8" stroke-linecap="round" stroke-linejoin="round" stroke-width=".05"/>
<path d="m276.05 78.15q-4.4-19.05-19.4-33.4-15.35-14.8-41.9-24.4-9.35-3.5-20.05-6.25" fill="none" stroke="#000" stroke-linecap="round" stroke-linejoin="round" stroke-opacity=".4" stroke-width=".05"/>
<path d="m277.65 82.45q0.85-19.55 5.3-25.65 1.05-1.5 2.9-2.55-5.3 7 1.55 8.8-8.4 7.1-9.75 19.4" fill="#737237" fill-rule="evenodd"/>
<path d="m285.85 54.25q-1.85 1.05-2.9 2.55-4.45 6.1-5.3 25.65-2.65-31.3 6.65-37.1-4 5.05 1.55 8.9" fill="#949849" fill-rule="evenodd"/>
<path d="m285.85 54.25q-5.55-3.85-1.55-8.9 0.85-0.55 1.85-0.85 12.2-3.95 38.2 8.85l-6.65-1.2-1.4-0.1-11.1-0.85q-13.55-0.45-19.35 3.05" fill="#b7b66a" fill-rule="evenodd"/>
<path d="m287.4 63.05q-6.85-1.8-1.55-8.8 5.8-3.5 19.35-3.05l11.1 0.85 1.4 0.1 6.65 1.2-12.25 0.6q-16.1 1.75-24.7 9.1" fill="#8a8a42" fill-rule="evenodd"/>
<path d="m285.85 54.25q-1.85 1.05-2.9 2.55-4.45 6.1-5.3 25.65m46.7-29.1-6.65-1.2-1.4-0.1-11.1-0.85q-13.55-0.45-19.35 3.05" fill="none" stroke="#c9c894" stroke-linecap="round" stroke-linejoin="round"/>
<path d="m284.3 45.35q-9.3 5.8-6.65 37.1m46.7-29.1q-26-12.8-38.2-8.85-1 0.3-1.85 0.85" fill="none" stroke="#ebe9d8" stroke-linecap="round" stroke-linejoin="round" stroke-width=".05"/>
<path d="m277.65 82.45q1.35-12.3 9.75-19.4 8.6-7.35 24.7-9.1l12.25-0.6" fill="none" stroke="#000" stroke-linecap="round" stroke-linejoin="round" stroke-opacity=".4" stroke-width=".05"/>
<path d="m277.5 73.5q-4.9-22.65-0.95-31.15 0.9-2.1 2.95-3.95-4.7 9.85 4.7 9.55-8.7 11.05-6.7 25.55" fill="#737237" fill-rule="evenodd"/>
<path d="m274.8 28.8q-3.65 7.15 4.7 9.6-2.05 1.85-2.95 3.95-3.95 8.5 0.95 31.15-13-34.9-2.7-44.7" fill="#949849" fill-rule="evenodd"/>
<path d="m279.5 38.4q-8.35-2.45-4.7-9.6 0.95-0.95 2.15-1.65 14.55-8.75 52.15-3.1l-9 0.9-1.85 0.4-14.6 2.9q-17.7 4.15-24.15 10.15" fill="#b7b66a" fill-rule="evenodd"/>
<path d="m279.5 38.4q6.45-6 24.15-10.15l14.6-2.9 1.85-0.4 9-0.9q-8.55 2.25-15.7 4.9-20.3 7.65-29.2 19-9.4 0.3-4.7-9.55" fill="#8a8a42" fill-rule="evenodd"/>
<path d="m279.5 38.4q6.45-6 24.15-10.15l14.6-2.9 1.85-0.4 9-0.9m-51.6 49.45q-4.9-22.65-0.95-31.15 0.9-2.1 2.95-3.95" fill="none" stroke="#c9c894" stroke-linecap="round" stroke-linejoin="round"/>
<path d="m329.1 24.05q-37.6-5.65-52.15 3.1-1.2 0.7-2.15 1.65-10.3 9.8 2.7 44.7" fill="none" stroke="#ebe9d8" stroke-linecap="round" stroke-linejoin="round" stroke-width=".05"/>
<path d="m284.2 47.95q8.9-11.35 29.2-19 7.15-2.65 15.7-4.9m-51.6 49.45q-2-14.5 6.7-25.55" fill="none" stroke="#000" stroke-linecap="round" stroke-linejoin="round" stroke-opacity=".4" stroke-width=".05"/>
<path d="m279.8 80.5q-10.45-16.55-17-19.75-1.6-0.85-3.6-0.9 7.7 3.65 3.15 8.3 10.2 2.35 17.45 12.35" fill="#737237" fill-rule="evenodd"/>
<path d="m255.95 51.4q5.75 2.55 3.25 8.45 2 0.05 3.6 0.9 6.55 3.2 17 19.75-13.55-28.3-23.85-29.1" fill="#949849" fill-rule="evenodd"/>
<path d="m259.2 59.85q2.5-5.9-3.25-8.45l-1.85 0.15q-11.65 2.15-25.85 25.1l4.65-4.1 1.1-0.7 8.35-5.8q10.5-6.6 16.85-6.2" fill="#b7b66a" fill-rule="evenodd"/>
<path d="m259.2 59.85q-6.35-0.4-16.85 6.2l-8.35 5.8-1.1 0.7-4.65 4.1q5.25-3.05 10-5.1 13.65-5.8 24.1-3.4 4.55-4.65-3.15-8.3" fill="#8a8a42" fill-rule="evenodd"/>
<path d="m259.2 59.85q-6.35-0.4-16.85 6.2l-8.35 5.8-1.1 0.7-4.65 4.1m51.55 3.85q-10.45-16.55-17-19.75-1.6-0.85-3.6-0.9" fill="none" stroke="#c9c894" stroke-linecap="round" stroke-linejoin="round"/>
<path d="m228.25 76.65q14.2-22.95 25.85-25.1l1.85-0.15q10.3 0.8 23.85 29.1" fill="none" stroke="#ebe9d8" stroke-linecap="round" stroke-linejoin="round" stroke-width=".05"/>
<path d="m262.35 68.15q-10.45-2.4-24.1 3.4-4.75 2.05-10 5.1m51.55 3.85q-7.25-10-17.45-12.35" fill="none" stroke="#000" stroke-linecap="round" stroke-linejoin="round" stroke-opacity=".4" stroke-width=".05"/>
</g>
<linearGradient id="b" x1="-819.2" x2="819.2" gradientTransform="matrix(0 -.1042 .0916 0 321.65 190.15)" gradientUnits="userSpaceOnUse">
<stop stop-color="#fbbd4d" offset="0"/>
<stop stop-color="#ff6" offset="1"/>
</linearGradient>
</defs>
</svg>
