<?xml version="1.0" encoding="UTF-8"?>
<svg version="1.1" viewBox="0 0 102.06 97.11" xmlns="http://www.w3.org/2000/svg" xmlns:cc="http://creativecommons.org/ns#" xmlns:dc="http://purl.org/dc/elements/1.1/" xmlns:rdf="http://www.w3.org/1999/02/22-rdf-syntax-ns#" xmlns:xlink="http://www.w3.org/1999/xlink">
<metadata>
<rdf:RDF>
<cc:Work rdf:about="">
<dc:format>image/svg+xml</dc:format>
<dc:type rdf:resource="http://purl.org/dc/dcmitype/StillImage"/>
</cc:Work>
</rdf:RDF>
</metadata>
<g transform="translate(-200.29 -99.612)">
<use transform="matrix(-.9424 .2807 .2411 .9639 296.77 97.905)" width="29.950001" height="41.700001" xlink:href="#c"/>
<use transform="matrix(.9164 0 0 1 206.83 111.95)" width="96.400002" height="84.75" xlink:href="#d"/>
<use transform="matrix(.9033 -.1651 .1513 .9857 197.75 123.12)" width="29.950001" height="41.700001" xlink:href="#c"/>
<use transform="matrix(.6613 0 0 1 236.37 156.3)" width="20.799999" height="14.8" xlink:href="#b"/>
<use transform="matrix(-.3333 .0697 .2372 .9659 283.98 148.38)" width="20.799999" height="14.8" xlink:href="#b"/>
</g>
<defs>
<g id="c" transform="translate(14.95,20.8)">
<use transform="translate(-14.95,-20.8)" width="29.950001" height="41.700001" xlink:href="#h"/>
</g>
<g id="h" transform="translate(14.95,20.8)">
<path d="m-11.15-17.05 1.5-2.7q1.4-2.45 1.55 0.7 1.9 12.4 7.7 15.45 14.35 0.35 14.8 2.65-3.35 1.5 0.6 12-11 3.55-18.9-4.15-8.4-12.45-7.25-23.95" fill="#b67023" fill-rule="evenodd"/>
<path d="m15 11.05q-7 4.3-4.9 9.85l-17.5-3.5q-6.7-4.6-7.55-18.85 0.2-8.35 3.8-15.6-1.15 11.5 7.25 23.95 7.9 7.7 18.9 4.15" fill="#8b561b" fill-rule="evenodd"/>
<path d="m-11.15-17.05 1.5-2.7q1.4-2.45 1.55 0.7 1.9 12.4 7.7 15.45 14.35 0.35 14.8 2.65-3.35 1.5 0.6 12-7 4.3-4.9 9.85l-17.5-3.5q-6.7-4.6-7.55-18.85 0.2-8.35 3.8-15.6z" fill="none" stroke="#000" stroke-linecap="round" stroke-linejoin="round" stroke-opacity=".52941" stroke-width=".05"/>
</g>
<g id="d" transform="translate(48.2,42.35)">
<use transform="translate(-48.2,-42.35)" width="96.400002" height="84.75" xlink:href="#g"/>
</g>
<g id="g" transform="translate(48.2,42.35)">
<path d="m35.05-17.3 2-3.5-2 3.5m-7-16.6q10.2 2.3 9 13.1 10.4 5.45 7.6 19.2l-1.7-1.4q-5.3-12.05-9.45-1-8.05-6.75-8.05 7.3-11.6-1.75-10.4 8.05-2.85 0.55-4.5 1.65-4 2.55-1.45 8.25-1.75 0.8-2.85 1.85-0.25-4.9-5.75-7.55-5.55-2.65-7.35 0.55-1.85 3.2-4.8-3.45-3-6.7-8.3-3.85-3.05-6.3-5.45-7.25 4.25-6.3-3.2-7.2l-1.2 0.45q-0.4-5.4 3.65-7.45 2.75-1.4 7.55-1.25-5.3-7.2 9.1-6.1 10.55-10.6 17.85-4.85-0.1-10.2 7.85-7.25 6.25-4.6 11.85-1.8" fill="#fc0" fill-rule="evenodd"/>
<path d="m-37.5-21.5q-0.45-5 4.95-6.2 4.85-9.55 12.55-6.2 6.7-9 18.25-5 8.95-7.15 18.35 0.55 11.75-1.4 11.45 4.45-5.6-2.8-11.85 1.8-7.95-2.95-7.85 7.25-7.3-5.75-17.85 4.85-14.4-1.1-9.1 6.1-4.8-0.15-7.55 1.25 3.7-4.15-2.2-5.4-4.1-9.4-9.15-3.45m56.8-14.35-2.7-2.5 2.7 2.5m-51.85 8.15 2.55-0.35-2.55 0.35m27.6-8.15 3.2-3.05-3.2 3.05m-16.15 3.5 1.1-1.55-1.1 1.55" fill="#c00" fill-rule="evenodd"/>
<path d="m44.65-1.6q7.85 10.9-1.6 18.1 2.8 10.6-6.5 10.75-3.45 8.95-12.2 5.1l0.9-1.8q-7.05 4.1-8.1-5.4-5 1.85-6.6-12.15 1.65-1.1 4.5-1.65-1.2-9.8 10.4-8.05 0-14.05 8.05-7.3 4.15-11.05 9.45 1l1.7 1.4m-4.35 19.35 2.75-1.25-2.75 1.25m-6.2 9.4 2.45 0.1-2.45-0.1m-8.35 2.15-0.5 1.25 0.5-1.25" fill="#acc840" fill-rule="evenodd"/>
<path d="m-43.8 11.8q-7.4 0.5 1.5-16.1-6.2-8.9 5.3-14.8l-0.5-2.4q5.05-5.95 9.15 3.45 5.9 1.25 2.2 5.4-4.05 2.05-3.65 7.45h-0.05q-10.8 4.1-11.45 16.5l-2.5 0.5m2.5-14.8-1-1.3 1 1.3m4.85-14.55-0.55-1.55 0.55 1.55" fill="#a60000" fill-rule="evenodd"/>
<path d="m7.3 35.7q-9.4 4.45-15.05-0.8-8.15 2.95-14.15-3.45 1.05 15.85-9.5 8.75-9.4 5.35-10.9-10.35-11-6.35-1.5-18.05l2.5-0.5q0.65-12.4 11.45-16.5h0.05l1.2-0.45q7.45 0.9 3.2 7.2 2.4 0.95 5.45 7.25 5.3-2.85 8.3 3.85 2.95 6.65 4.8 3.45 1.8-3.2 7.35-0.55 5.5 2.65 5.75 7.55-4.5 4.25 1.05 12.6-1.25-0.55-2.55-1.25 1.3 0.7 2.55 1.25m-46.15-4.25-3.45-1.6 3.45 1.6m13.15-5.35q1.75 3.2 3.8 5.35-2.05-2.15-3.8-5.35m15.9 6.45 2.05 2.35-2.05-2.35m-21.6 7.65-2.35-1.75 2.35 1.75" fill="#d7ac00" fill-rule="evenodd"/>
<path d="m24.35 32.35q-5.15 8.65-17.05 3.35-5.55-8.35-1.05-12.6 1.1-1.05 2.85-1.85-2.55-5.7 1.45-8.25 1.6 14 6.6 12.15 1.05 9.5 8.1 5.4l-0.9 1.8" fill="#7a8e28" fill-rule="evenodd"/>
<path d="m37.05-20.8-2 3.5m-7-16.6q10.2 2.3 9 13.1 10.4 5.45 7.6 19.2 7.85 10.9-1.6 18.1 2.8 10.6-6.5 10.75-3.45 8.95-12.2 5.1-5.15 8.65-17.05 3.35-9.4 4.45-15.05-0.8-8.15 2.95-14.15-3.45 1.05 15.85-9.5 8.75-9.4 5.35-10.9-10.35-11-6.35-1.5-18.05-7.4 0.5 1.5-16.1-6.2-8.9 5.3-14.8l-0.5-2.4q-0.45-5 4.95-6.2 4.85-9.55 12.55-6.2 6.7-9 18.25-5 8.95-7.15 18.35 0.55 11.75-1.4 11.45 4.45m14.9 30.9 1.7 1.4m-28.05-36.75 2.7 2.5m-61.6 31.55 1 1.3m39.55-35.9-3.2 3.05m-25.05 7.8-2.55 0.35m-4.45 8.6 0.55 1.55m-4.85 28.85-2.5 0.5m23.8-45.7-1.1 1.55m-12.65 70.8 2.35 1.75m23.65-5.3-2.05-2.35m-12.1-1.1q-2.05-2.15-3.8-5.35m-16.6 3.75 3.45 1.6m43.6 3q1.3 0.7 2.55 1.25m17.05-3.35 0.9-1.8 0.5-1.25m10.8-2.05-2.45-0.1m8.95-10.65-2.75 1.25" fill="none" stroke="#000" stroke-linecap="round" stroke-linejoin="round" stroke-opacity=".54118" stroke-width=".05"/>
<path d="m3.25 28.35q-5 2.1-10.2-0.05 0.75-0.9 1.2-2.2 4.1 1.1 9-1.45 8.25 2.6 11.2-3.55 8.3 3.85 11.8-0.95 4.15-1.15 6-2.95l3.25 0.15q0.5 3.9-3 3.8-1.5 4.75-8.15 3.85l-0.5 0.25q-4.4 3.45-8.75 1.7l-1.45-0.7 1.45 0.7q-6.35 4.35-11.85 1.4l1.05-0.55-1.05 0.55" fill-opacity=".47843" fill-rule="evenodd"/>
<path d="m32.25 17.2q2.7-2.6 0.7-6.5m-17.85 16.25q4.35 1.75 8.75-1.7l0.5-0.25q6.65 0.9 8.15-3.85 3.5 0.1 3-3.8l-3.25-0.15q-1.85 1.8-6 2.95-3.5 4.8-11.8 0.95-2.95 6.15-11.2 3.55-4.9 2.55-9 1.45-0.45 1.3-1.2 2.2 5.2 2.15 10.2 0.05l1.05-0.55m10.8-0.85-1.45-0.7m-10.4 2.1q5.5 2.95 11.85-1.4m20.4-9.6q3.65-0.6 6.3-4.5m-50.75 11.8q1.55 1 3.2 1.45m-1.2 2.2q-2.85 3.25-9.85 1.1" fill="none" stroke="#000" stroke-linecap="round" stroke-linejoin="round" stroke-opacity=".52941" stroke-width=".05"/>
</g>
<g id="b" transform="translate(10.25,7.1)">
<use transform="translate(-10.25,-1)" width="20.799999" height="4.5500002" xlink:href="#f"/>
<use transform="matrix(.8115 0 0 .7971 -9.1 -6.2)" width="12.2" height="13.8" xlink:href="#a"/>
<use transform="matrix(.9342 -.2503 .229 .8547 -4.0292 -4.0706)" width="12.2" height="13.8" xlink:href="#a"/>
</g>
<g id="f" transform="translate(10.25,1)">
<path d="m10.55 3.55q-11.5-4-20.8-2.8 0.85-2.45 9.35-1.5 8.45 0.9 11.45 4.3" fill="#333" fill-rule="evenodd"/>
<path d="m-10.25 0.75q9.3-1.2 20.8 2.8" fill="none" stroke="#000" stroke-linecap="round" stroke-linejoin="round" stroke-opacity=".52941" stroke-width=".05"/>
</g>
<g id="a" transform="translate(6.1,6.9)">
<use transform="translate(-6.1,-6.9)" width="12.2" height="13.8" xlink:href="#e"/>
</g>
<g id="e" transform="translate(6.1,6.9)">
<path d="m-6.1 3.55q3.2-7.45 10.3-10 2.75-1.5 1.55 2.2-6.25 4.4-8.5 10.35-2.5 2.4-3.35-2.55" fill="#c90" fill-rule="evenodd"/>
<path d="m-6.1 3.55q3.2-7.45 10.3-10 2.75-1.5 1.55 2.2-6.25 4.4-8.5 10.35-2.5 2.4-3.35-2.55z" fill="none" stroke="#000" stroke-linecap="round" stroke-linejoin="round" stroke-opacity=".52941" stroke-width=".05"/>
</g>
</defs>
</svg>
