<?xml version="1.0" encoding="UTF-8"?>
<svg width="69px" height="77px" version="1.1" viewBox="223.7 152.1 68.5 77" xmlns="http://www.w3.org/2000/svg" xmlns:xlink="http://www.w3.org/1999/xlink">
<defs>
<linearGradient id="m" x1="-819.2" x2="819.2" gradientTransform="matrix(-.0019989 -.019775 .029007 -.0047455 268.05 191.4)" gradientUnits="userSpaceOnUse">
<stop stop-color="#20775c" offset="0"/>
<stop stop-color="#66983d" offset="1"/>
</linearGradient>
<linearGradient id="h" x1="-819.2" x2="819.2" gradientTransform="matrix(.041809 0 0 .046997 257.95 190.6)" gradientUnits="userSpaceOnUse">
<stop stop-color="#2fb093" offset="0"/>
<stop stop-color="#a7d94a" offset="1"/>
</linearGradient>
<linearGradient id="g" x1="-819.2" x2="819.2" gradientTransform="matrix(.027344 0 0 .032959 263.2 190.55)" gradientUnits="userSpaceOnUse">
<stop stop-color="#a8e38e" offset="0"/>
<stop stop-color="#e1f0b9" offset=".98431"/>
<stop stop-color="#a7d94a" offset="1"/>
</linearGradient>
<linearGradient id="f" x1="-819.2" x2="819.2" gradientTransform="matrix(.041809 0 0 .046997 257.95 190.6)" gradientUnits="userSpaceOnUse">
<stop stop-color="#49cda5" offset="0"/>
<stop stop-color="#a7d94a" offset="1"/>
</linearGradient>
<linearGradient id="e" x1="-819.2" x2="819.2" gradientTransform="matrix(.041809 0 0 .046997 257.95 190.6)" gradientUnits="userSpaceOnUse">
<stop stop-color="#49cda5" offset=".30588"/>
<stop stop-color="#a7d94a" offset="1"/>
</linearGradient>
<linearGradient id="d" x1="-819.2" x2="819.2" gradientTransform="matrix(.041809 0 0 .046997 257.95 190.6)" gradientUnits="userSpaceOnUse">
<stop stop-color="#49cda5" offset="0"/>
<stop stop-color="#a7d94a" offset=".50588"/>
</linearGradient>
<linearGradient id="c" x1="-819.2" x2="819.2" gradientTransform="matrix(.041809 0 0 .046997 257.95 190.6)" gradientUnits="userSpaceOnUse">
<stop stop-color="#49cda5" offset=".14902"/>
<stop stop-color="#a7d94a" offset=".6549"/>
</linearGradient>
<linearGradient id="b" x1="-819.2" x2="819.2" gradientTransform="matrix(.041809 0 0 .046997 257.95 190.6)" gradientUnits="userSpaceOnUse">
<stop stop-color="#49cda5" offset=".14902"/>
<stop stop-color="#a7d94a" offset=".6549"/>
<stop stop-color="#a7d94a" offset=".76078"/>
</linearGradient>
<linearGradient id="a" x1="-819.2" x2="819.2" gradientTransform="matrix(.041809 0 0 .046997 257.95 190.6)" gradientUnits="userSpaceOnUse">
<stop stop-color="#49cda5" offset=".20392"/>
<stop stop-color="#a7d94a" offset=".76078"/>
</linearGradient>
<linearGradient id="l" x1="-819.2" x2="819.2" gradientTransform="matrix(.041809 0 0 .046997 257.95 190.6)" gradientUnits="userSpaceOnUse">
<stop stop-color="#49cda5" offset="0"/>
<stop stop-color="#a7d94a" offset=".48627"/>
</linearGradient>
<linearGradient id="k" x1="-819.2" x2="819.2" gradientTransform="matrix(.041809 0 0 .046997 257.95 190.6)" gradientUnits="userSpaceOnUse">
<stop stop-color="#49cda5" offset="0"/>
<stop stop-color="#a7d94a" offset=".58431"/>
</linearGradient>
<linearGradient id="j" x1="-819.2" x2="819.2" gradientTransform="matrix(.041809 0 0 .046997 257.95 190.6)" gradientUnits="userSpaceOnUse">
<stop stop-color="#49cda5" offset="0"/>
<stop stop-color="#4fcd9f" offset=".23529"/>
<stop stop-color="#a7d94a" offset=".61961"/>
</linearGradient>
<linearGradient id="i" x1="-819.2" x2="819.2" gradientTransform="matrix(.041809 0 0 .046997 257.95 190.6)" gradientUnits="userSpaceOnUse">
<stop stop-color="#4acc9b" offset=".47843"/>
<stop stop-color="#93d98c" offset="1"/>
</linearGradient>
<g id="n">
<path d="m242.1 156.35 0.95-0.55q2.45-1.35 5.1-2.2 3.55-1.15 7.5-1.4l2.3-0.1 3.3 0.15q3.1 0.3 6.05 1.2 2.6 0.8 5.05 2.1 4.05 2.1 7.65 5.55l2.15 2.25 1.65 2q2.2 2.8 3.85 5.9l0.95 1.95 1.75 4.55 0.15 0.55q1.4 4.65 1.65 9.9l0.05 2.4v0.8q-0.05 3.25-0.5 6.3-0.7 4.3-2.2 8.25l-0.9 2.05-1.6 3.15-3.3 4.85-1.55 1.8-2.7 2.8q-3.7 3.4-7.9 5.45-3.45 1.65-7.2 2.45l-6.4 0.6h-0.7q-7.25-0.15-13.35-3.25l-3.45-2.05-1.8-1.3-2.1-1.8-2.85-2.9-1.95-2.35-2.55-3.75q-1.3-2.2-2.3-4.55-1.45-3.4-2.2-7.1l-0.6-3.5-0.05-0.2q-0.35-2.65-0.35-5.45v-0.3q0-2.7 0.3-5.2l0.05-0.65q0.6-4.4 2.5-8.45 0.85-3.9 3.05-7.4 0.2-0.4 0.55-0.65l0.05-0.05 0.2-0.5q0.65-1.3 2.75-3.65l0.55-0.7 2.35-2.4 0.5-0.5q2.65-2.4 5.55-4.1m2.7 34q0.1-6.35 2.65-11.4 1.15-2.4 2.85-4.45 2-2.45 4.3-4 2.75 1.2 4.75 3.45 2.95 3.15 4.5 7.1l0.65 1.95 0.45 1.5q1.1 4.5 0.75 9.15-0.35 5.4-2.65 9.95-2.5 5-7.05 7.9l1.3 0.85-2.15-1.1q-2.05-1.3-3.8-3.2l-1.05-1.15q-1.6-1.95-2.7-4.1-2.8-5.35-2.8-12.1v-0.35" fill="none" stroke="#0e3425" stroke-width="1.75"/>
<path d="m266.85 165.5q5.6 0.75 9.55 5.15 3.6 4 5.45 9.25 1.7 4.8 1.65 10.05-0.1 5.65-2 10.95-2.1 5.6-6.35 9.6-4.4 4-10.2 4.05-4.85 0-8.95-3.05 4.55-2.9 7.05-7.9 2.3-4.55 2.65-9.95 0.4-5.4-1.2-10.65-1.5-5.1-5.15-9.05-2.3-2.55-5.45-3.7l5.4-3.75q3.7-1.5 7.55-1" fill="url(#m)"/>
<path d="m237 168.3 0.05-0.25" fill="none" stroke="#448463" stroke-opacity=".27059" stroke-width=".5"/>
<path d="m261.25 152.25q3.1 0.3 6.05 1.2 2.6 0.8 5.05 2.1 4.05 2.1 7.65 5.55l-0.15 0.2q-2 2.85-4.4 2.75 0.35 1.9-0.35 3.55-1.8-1.4-3.7-2.3-2.8-1.3-5.9-1.6-0.8-1.65-2.4-2.05-1.85-0.45-3.8 0.55-1.5 0.8-1.45 2.1-2.9 0.8-5.45 2.55-1-1.4-0.5-3.3l0.05-0.15q0.55-1.9 1.75-3.5 0.9-1.2 2.05-2.1 1.3-0.95 2.75-1.4l3.45-0.45q0.05-2-0.7-3.7m29.25 26.05q1.4 4.65 1.65 9.9-2.2 0.25-3.3-1.8 1.25-2.1 1.65-4.45 0.35-1.8 0-3.65m-1 27.65-0.9 2.05-1.6 3.15-2.25-1.6h-0.05q1-1.35 2.5-2.35l0.4-0.25 1.9-1m-5.8 10.05-1.55 1.8-2.7 2.8q-3.7 3.4-7.9 5.45-3.45 1.65-7.2 2.45l0.45-1q0.2-0.85-0.05-1.6-0.25-0.85-1-1.65l-0.75-0.75q0.55-1.45 2.8-2.2l3.35-0.95 0.75-0.15-0.15-0.3-0.25-0.25-0.5-0.3q0.45-0.55 0.7-2.2l0.1-0.7q3.65-1.3 6.75-4.15l1.55-1.55 2.35 1.4q1.2 0.8 2.1 1.95l1.15 1.9m-26.45 13.1q-7.25-0.15-13.35-3.25-0.55-1.4 1.85-2.15l2.95-0.65q1.9-0.2 3.7 0.05 1.75 0.25 3 1.3 1.85 1.6 1.95 3.7l-0.1 1m-25.5-13.65-2.55-3.75 1.15-0.9 0.5-0.45q0.2 2.1 0.75 4.5l0.15 0.6m-4.85-8.3q-1.45-3.4-2.2-7.1l-0.6-3.5q0.4 0.2 0.85 0.5 2.25 1.5 3.4 3.85 0.7 1.4 0.25 3.05-0.4 1.75-1.6 3.1l-0.1 0.1m-3.2-16.25v-0.3q0-2.7 0.3-5.2h0.05l2.8-0.75 1.75-0.6 0.7-0.3 1.1-0.5q2.1-0.95 3.45-2.5l1.2 1.6 1.5 1.25 2.5 0.35 0.7 1.4 1.25 1.7-0.2 3.5 0.1 2.3-3.65-0.35-0.7-0.2q-0.75-0.25-1.45-0.7l-0.2 0.4q-1.15 2.4-2.9 3.3l-0.1-0.1q-1.15-1.65-2.9-2.7l-1.8-0.85-1.7-0.45-1.45-0.25-0.35-0.05m2.85-14.6q0.85-3.9 3.05-7.4 0.2-0.4 0.55-0.65l0.1-0.05q0.35-0.25 0.9-0.4l0.4-0.1-0.6 0.25q1.8-0.75 2.7-0.9l2.9-0.45 1.9-0.25-0.45 1.2q-0.75 0.3-1.45 0.7-1.2 0.7-2.2 1.7-1.55 1.55-2.1 3.5-1.45 1.55-3.35 2.35-1.5 0.7-2.35 0.5m4.4-8.35-0.7 0.25 0.7-0.25m7.45 11.2q-1.2-0.4-1.85-1.15-0.85-1-0.9-2.7-0.05-1.9 0.9-2.95 0.6-0.7 1.6-1 0.65 2.1 1.9 3.7-1.6 1.65-1.65 4.1m-8.85 7.7q-0.3 0.15-0.55 0.35-2.3 1.7-1.8 4.45-0.5-2.75 1.8-4.45 0.25-0.2 0.55-0.35-0.8-1.3-0.95-2.8 0.15 1.5 0.95 2.8l0.4-0.2-0.4 0.2 0.3 0.45q1.55 2.15 3.65 3.85l0.9 0.65-0.9-0.65q-2.1-1.7-3.65-3.85l-0.3-0.45m4.65 15 0.2-0.1q1.15-0.35 2.15-0.95l0.5-0.35q1.55-1.05 2.65-2.5l1.45-2.45q0.6 4.25 2.3 7.95l-3.4-0.15-0.2-0.05q-2.3-0.5-3.3-2.45 1 1.95 3.3 2.45l0.2 0.05q-1 0.45-1.65 3.5l-0.6 3.25-0.2 1.95-1.05-0.2q-1.85-0.55-3.5-1.75l-1-1.05 0.85-1.4q1-1.75 1.2-3.75l0.1-2m11.8 6.05 1.35 1.75q1.9 2.3 4.05 3.95l-1.35 1.15q-1.45 1.45-1.4 3.25l-1.75 0.2q-1.25 0.3-2.45 0.9l-0.65-1.9q-0.65-2.6-0.15-5.3 0.45-2.45 2.35-4m25.4-42.6 0.35-1.3q0.25-1.5-0.45-2.75-1-1.8-2.8-3.05-1.1-0.8-2.3-1.3l-2.4-0.75-1.85-0.2 1.85 0.2 2.4 0.75q1.05-1.7 1.1-3.45-0.05 1.75-1.1 3.45 1.2 0.5 2.3 1.3 1.8 1.25 2.8 3.05 0.7 1.25 0.45 2.75l-0.35 1.3m0.95-9.75q-0.45 1.75 0.75 3.5 1.45 1.95 2.15 4.15l0.2 0.85-0.2-0.85q-0.7-2.2-2.15-4.15-1.2-1.75-0.75-3.5m7.1 65.05-1.9-0.5-4.35-0.35-3.3 0.45 3.3-0.45 4.35 0.35 1.9 0.5m-2.9-8.3 0.55 1.65q0.95 2.9 0 5.7 0.95-2.8 0-5.7l-0.55-1.65m-5 13.75q-0.75-0.5-1.65-0.8-2.95-1-5.15 0.65 2.2-1.65 5.15-0.65 0.9 0.3 1.65 0.8" fill="url(#h)"/>
<path d="m243.35 177.95 0.8-1.65q1.1-2.15 2.6-4.05l0.6-0.8q2.35-2.8 5.05-4.6 2.55-1.75 5.45-2.55 2.55-0.75 5.35-0.75l2.3 0.15q3.1 0.3 5.9 1.6 1.9 0.9 3.7 2.3 2.1 1.6 3.95 3.85l1.95 2.65 1.65 2.9q1.6 3.25 2.35 6.95 0.5 2.55 0.6 5.35v1.25q0 2.55-0.35 4.95-0.45 3.2-1.5 6.1-1.35 3.6-3.65 6.75l-1.05 1.3-0.95 1.1-1.55 1.55q-3.1 2.85-6.75 4.15-3.1 1.1-6.6 1.1-3.95 0-7.4-1.4-2.3-1-4.4-2.55-2.15-1.65-4.05-3.95l-1.35-1.75q-1.5-2.1-2.55-4.45-1.7-3.7-2.3-7.95l-0.25-2.65-0.1-2.3 0.2-3.5q0.45-4.9 2.35-9.1m31.55-5.6q-4.9-4.55-11.3-4.55-4.7 0-8.55 2.45l-0.2 0.1q-2.45 1.6-4.55 4.15-1.7 2.05-2.85 4.45-2.55 5.05-2.65 11.4v0.35q0 6.75 2.8 12.1 1.1 2.15 2.7 4.1l1.05 1.15q1.75 1.9 3.8 3.2 3.8 2.35 8.45 2.35 7.8 0 13.3-6.7t5.5-16.2v-0.55l-0.3-3.95q-1.05-6.65-5.2-11.7l-2-2.15" fill="url(#g)"/>
<path d="m248.15 153.6q3.55-1.15 7.5-1.4-0.3 0.95-1.05 1.7-1.85 1.8-4.6 2.2-0.25-1.7-1.85-2.5" fill="url(#f)"/>
<path d="m255.65 152.2 2.3-0.1 3.3 0.15q0.75 1.7 0.7 3.7l-3.45 0.45q-1.45 0.45-2.75 1.4-1.15 0.9-2.05 2.1-1.2 1.6-1.75 3.5l-1.3 0.45q-2.35 0.7-3.7-1.2l1.05-1.05q1.75-1.75 2-4.4v-1.1q2.75-0.4 4.6-2.2 0.75-0.75 1.05-1.7" fill="url(#e)"/>
<path d="m242.1 156.35 0.95-0.55q2.45-1.35 5.1-2.2 1.6 0.8 1.85 2.5v1.1q-0.25 2.65-2 4.4l-1.05 1.05-3.45 2.2-0.8 0.4q-2.05 0.8-4.25 1.1l-1.9 0.25-2.9 0.45q-0.9 0.15-2.7 0.9l0.6-0.25-0.4 0.1q-0.55 0.15-0.9 0.4l-0.1 0.05 0.25-0.55q0.65-1.3 2.75-3.65l2.3-0.55 1.1-0.15q2.25-0.45 4.2-1.55 2.65-1.4 2.3-4-0.1-1-0.95-1.45" fill="url(#d)"/>
<path d="m233.15 164.05 0.55-0.7 2.35-2.4 0.5-0.5q2.65-2.4 5.55-4.1 0.85 0.45 0.95 1.45 0.35 2.6-2.3 4-1.95 1.1-4.2 1.55l-1.1 0.15-2.3 0.55" fill="url(#c)"/>
<path d="m242.7 165.25 0.8-0.4 3.45-2.2q1.35 1.9 3.7 1.2l1.3-0.45-0.05 0.15q-0.5 1.9 0.5 3.3-2.7 1.8-5.05 4.6l-0.6 0.8q-1.65-0.55-2.9-1.9-2.25-2.3-1.15-5.1" fill="url(#b)"/>
<path d="m238.45 166.35q2.2-0.3 4.25-1.1-1.1 2.8 1.15 5.1 1.25 1.35 2.9 1.9-1.5 1.9-2.6 4.05l-0.8 1.65q-1.5-0.8-2.6-2.05l-0.7-0.85q-1.25-1.6-1.9-3.7l-0.05-0.15q-0.7-2.15-0.1-3.65l0.45-1.2" fill="url(#a)"/>
<path d="m239.05 183.95-0.45-1.6-0.2-3.05v-0.15q0.05-2.45 1.65-4.1l0.7 0.85q1.1 1.25 2.6 2.05-1.9 4.2-2.35 9.1l-1.25-1.7-0.7-1.4" fill="url(#l)"/>
<path d="m290.35 177.75 0.15 0.55q0.35 1.85 0 3.65-0.4 2.35-1.65 4.45l-0.1 0.1-1.8 2.05-1.35 0.75q-0.1-2.8-0.6-5.35-0.75-3.7-2.35-6.95 1.4 2.25 4.25 1.85 1.9-0.25 3.45-1.1m-26 50.75-6.4 0.6h-0.7l0.1-1q-0.1-2.1-1.95-3.7-1.25-1.05-3-1.3-1.8-0.25-3.7-0.05l-2.95 0.65q-2.4 0.75-1.85 2.15l-3.45-2.05q0-1.1 0.7-2.15 0.8-1.15 2-1.9l1.3-0.65q1.2-0.6 2.45-0.9l1.75-0.2q-0.05-1.8 1.4-3.25l1.35-1.15q2.1 1.55 4.4 2.55-1.3 0.95-2.05 2.55l2.15 0.75 4.55 2.25 2.55 1.8 0.75 0.75q0.75 0.8 1 1.65 0.25 0.75 0.05 1.6l-0.45 1m-25.7-6-2.1-1.8-2.85-2.9-1.95-2.35-0.15-0.6q-0.55-2.4-0.75-4.5l-0.5 0.45-1.15 0.9q-1.3-2.2-2.3-4.55l0.1-0.1q1.2-1.35 1.6-3.1 0.45-1.65-0.25-3.05-1.15-2.35-3.4-3.85-0.45-0.3-0.85-0.5l-0.05-0.2q-0.35-2.65-0.35-5.45l0.35 0.05 1.45 0.25 1.7 0.45 1.8 0.85q1.75 1.05 2.9 2.7l0.1 0.1q1.75-0.9 2.9-3.3l0.2-0.4q0.7 0.45 1.45 0.7l0.7 0.2 3.65 0.35 0.25 2.65-1.45 2.45q-1.1 1.45-2.65 2.5l-0.5 0.35q-1 0.6-2.15 0.95l-0.2 0.1-0.1 2q-0.2 2-1.2 3.75l-0.85 1.4 1 1.05q1.65 1.2 3.5 1.75l1.05 0.2q-0.15 1.3-0.15 2.65 0 2.75 0.55 5.45l0.65 2.4m-6.4-49.05q0.55-1.95 2.1-3.5 1-1 2.2-1.7 0.7-0.4 1.45-0.7-0.6 1.5 0.1 3.65l0.05 0.15q-1 0.3-1.6 1-0.95 1.05-0.9 2.95 0.05 1.7 0.9 2.7 0.65 0.75 1.85 1.15v0.15l0.2 3.05 0.45 1.6-2.5-0.35-1.5-1.25-1.2-1.6q-0.9-1.4-1.4-2.9-0.75-2.15-0.2-4.35v-0.05m33.25-9.75-2.3-0.15q-2.8 0-5.35 0.75-0.05-1.3 1.45-2.1 1.95-1 3.8-0.55 1.6 0.4 2.4 2.05m19.5 20.25 0.25-0.35q1.9-1.95 1.55-4.2 0.35 2.25-1.55 4.2l-0.25 0.35m-31.25 34.75-2.5-0.6-2.6-0.1 2.6 0.1 2.5 0.6m-22.9-8.35 1.2-1.35-1.2 1.35m3.35-8.5-0.4-2.45q-0.55-2.25-1.8-4.1 1.25 1.85 1.8 4.1l0.4 2.45" fill="url(#k)"/>
<path d="m280 161.1 2.15 2.25 1.65 2q-0.7 2.45-3.4 2l-0.15-0.45q-0.65-1.85-1.7-3.5 1.05 1.65 1.7 3.5l0.15 0.45 0.55 2.75 0.1 1.15q1.45 2.2 4.15 1.35 1.4-0.4 2.45-1.35l0.95 1.95 1.75 4.55q-1.55 0.85-3.45 1.1-2.85 0.4-4.25-1.85l-1.65-2.9-1.95-2.65q-1.85-2.25-3.95-3.85 0.7-1.65 0.35-3.55 2.4 0.1 4.4-2.75l0.15-0.2m12.15 27.1 0.05 2.4v0.8q-1.2 0.5-2.3 0.4-2.85-0.2-2.95-3.25l1.8-2.05 0.1-0.1q1.1 2.05 3.3 1.8m-0.45 9.5q-0.7 4.3-2.2 8.25l-1.9 1-0.4 0.25q-0.8-2.6-2.4-4.55l-1.05-1.05q1.05-2.9 1.5-6.1 0.6 1.05 2 1.6l1.75 0.5 2.65 0.1h0.05m-4.7 13.45-3.3 4.85-1.15-1.9q-0.9-1.15-2.1-1.95l-2.35-1.4 0.95-1.1 1.05-1.3 1.35 0.15q1.65 0.35 3.25 1.05h0.05l2.25 1.6m-46.55 12.65-1.8-1.3-0.65-2.4q-0.55-2.7-0.55-5.45 0-1.35 0.15-2.65l0.2-1.95 0.6-3.25q0.65-3.05 1.65-3.5l3.4 0.15q1.05 2.35 2.55 4.45-1.9 1.55-2.35 4-0.5 2.7 0.15 5.3l0.65 1.9-1.3 0.65q-1.2 0.75-2 1.9-0.7 1.05-0.7 2.15m-16.45-38.4 0.05-0.65q0.6-4.4 2.5-8.45 0.85 0.2 2.35-0.5 1.9-0.8 3.35-2.35v0.05q-0.55 2.2 0.2 4.35 0.5 1.5 1.4 2.9-1.35 1.55-3.45 2.5l-1.1 0.5-0.7 0.3-1.75 0.6-2.8 0.75h-0.05m31.8 30.75q3.45 1.4 7.4 1.4 3.5 0 6.6-1.1l-0.1 0.7q-0.25 1.65-0.7 2.2l0.5 0.3 0.25 0.25 0.15 0.3-0.75 0.15-3.35 0.95q-2.25 0.75-2.8 2.2l-2.55-1.8-4.55-2.25-2.15-0.75q0.75-1.6 2.05-2.55m25.2-42.05v-0.2l0.05-2.65-0.05 2.65v0.2m8 23.5-0.45 1.15q-1.2 2.3-3.1 4.05 1.9-1.75 3.1-4.05l0.45-1.15m-20 21.75-1-0.35-5.15-0.3q-2.85 0.3-4.05 1.85 1.2-1.55 4.05-1.85l5.15 0.3 1 0.35" fill="url(#j)"/>
<path d="m283.8 165.35q2.2 2.8 3.85 5.9-1.05 0.95-2.45 1.35-2.7 0.85-4.15-1.35l-0.1-1.15-0.55-2.75q2.7 0.45 3.4-2m8.4 26.05q-0.05 3.25-0.5 6.3h-0.05l-2.65-0.1-1.75-0.5q-1.4-0.55-2-1.6 0.35-2.4 0.35-4.95v-1.25l1.35-0.75q0.1 3.05 2.95 3.25 1.1 0.1 2.3-0.4m-12.1 16.95q2.3-3.15 3.65-6.75l1.05 1.05q1.6 1.95 2.4 4.55-1.5 1-2.5 2.35-1.6-0.7-3.25-1.05l-1.35-0.15" fill="url(#i)"/>
<path d="m233.15 164.05 2.3-0.55 1.1-0.15q2.25-0.45 4.2-1.55 2.65-1.4 2.3-4-0.1-1-0.95-1.45m-11.15 11.6q1.8-0.75 2.7-0.9l2.9-0.45 1.9-0.25q2.2-0.3 4.25-1.1l0.8-0.4 3.45-2.2 1.05-1.05q1.75-1.75 2-4.4v-1.1q-0.25-1.7-1.85-2.5m-17.9 14.6 0.7-0.25m7.05-0.4q-0.75 0.3-1.45 0.7-1.2 0.7-2.2 1.7-1.55 1.55-2.1 3.5v0.05q-0.55 2.2 0.2 4.35 0.5 1.5 1.4 2.9l1.2 1.6 1.5 1.25 2.5 0.35-0.45-1.6-0.2-3.05v-0.15q-1.2-0.4-1.85-1.15-0.85-1-0.9-2.7-0.05-1.9 0.9-2.95 0.6-0.7 1.6-1l-0.05-0.15q-0.7-2.15-0.1-3.65l0.45-1.2m1.6 8.7q-1.6 1.65-1.65 4.1m1.65-4.1 0.7 0.85q1.1 1.25 2.6 2.05m3.4-5.7q-1.65-0.55-2.9-1.9-2.25-2.3-1.15-5.1m-3.65 18.7 0.7 1.4 1.25 1.7m-14.45-10.75q0.85 0.2 2.35-0.5 1.9-0.8 3.35-2.35m-3.65 10.6-1.75 0.6-2.8 0.75h-0.05m9.85-4.65q-1.35 1.55-3.45 2.5l-1.1 0.5-0.7 0.3q0.15 1.5 0.95 2.8l0.4-0.2m-0.4 0.2 0.3 0.45q1.55 2.15 3.65 3.85l0.9 0.65m-7.2-0.15q-0.5-2.75 1.8-4.45 0.25-0.2 0.55-0.35m-5.85 4.05 0.35 0.05 1.45 0.25 1.7 0.45 1.8 0.85q1.75 1.05 2.9 2.7l0.1 0.1q1.75-0.9 2.9-3.3l0.2-0.4q0.7 0.45 1.45 0.7l0.7 0.2 3.65 0.35m-16.8 3.7q0.4 0.2 0.85 0.5 2.25 1.5 3.4 3.85 0.7 1.4 0.25 3.05-0.4 1.75-1.6 3.1l-0.1 0.1m7.3-5.3 0.2-0.1q1.15-0.35 2.15-0.95l0.5-0.35q1.55-1.05 2.65-2.5l1.45-2.45m-3-24.15q0.65 2.1 1.9 3.7m21.9-19.1 1.85 0.2 2.4 0.75q1.05-1.7 1.1-3.45m8.15 10.6-0.2-0.85q-0.7-2.2-2.15-4.15-1.2-1.75-0.75-3.5m-6.15 1.35q1.2 0.5 2.3 1.3 1.8 1.25 2.8 3.05 0.7 1.25 0.45 2.75l-0.35 1.3m7.15-1.9q1.05 1.65 1.7 3.5l0.15 0.45q2.7 0.45 3.4-2m-8.35-1.3q2.4 0.1 4.4-2.75l0.15-0.2m0.4 6.25 0.55 2.75 0.1 1.15q1.45 2.2 4.15 1.35 1.4-0.4 2.45-1.35m-12.55-3.65q0.7-1.65 0.35-3.55m-25.45-7.95q2.75-0.4 4.6-2.2 0.75-0.75 1.05-1.7m-3.7 11.2q0.55-1.9 1.75-3.5 0.9-1.2 2.05-2.1 1.3-0.95 2.75-1.4l3.45-0.45q0.05-2-0.7-3.7m-14.3 10.4q1.35 1.9 3.7 1.2l1.3-0.45-0.05 0.15q-0.5 1.9 0.5 3.3m5.45-2.55q-0.05-1.3 1.45-2.1 1.95-1 3.8-0.55 1.6 0.4 2.4 2.05m15.55 7.55-0.05 2.65v0.2m1.65 2.9q1.4 2.25 4.25 1.85 1.9-0.25 3.45-1.1m-3.55 1.65q0.35 2.25-1.55 4.2l-0.25 0.35m3.85 2.45q1.25-2.1 1.65-4.45 0.35-1.8 0-3.65m-3.55 10.25 1.8-2.05 0.1-0.1q1.1 2.05 3.3 1.8m-6.55 1.1 1.35-0.75q0.1 3.05 2.95 3.25 1.1 0.1 2.3-0.4m-6.95 4.1q0.6 1.05 2 1.6l1.75 0.5 2.65 0.1h0.05m-6.25 5.1q1.9-1.75 3.1-4.05l0.45-1.15m-1.8 9.6q-0.8-2.6-2.4-4.55l-1.05-1.05m0.95 7.95q1-1.35 2.5-2.35l0.4-0.25 1.9-1m-4.8 3.6h0.05l2.25 1.6m-6.9-2.8 1.35 0.15q1.65 0.35 3.25 1.05m-14.9 6.9-0.1 0.7q-0.25 1.65-0.7 2.2l0.5 0.3 0.25 0.25 0.15 0.3 3.3-0.45 4.35 0.35 1.9 0.5m-16.45 2.9q0.55-1.45 2.8-2.2l3.35-0.95 0.75-0.15m-11.1 0.35q1.2-1.55 4.05-1.85l5.15 0.3 1 0.35m14.7-3.35-1.15-1.9q-0.9-1.15-2.1-1.95l-2.35-1.4m-1 8.9q0.95-2.8 0-5.7l-0.55-1.65m-32.1 6.8q1.2-0.6 2.45-0.9l1.75-0.2q-0.05-1.8 1.4-3.25l1.35-1.15m-5.4-5.7q-1.9 1.55-2.35 4-0.5 2.7 0.15 5.3l0.65 1.9-1.3 0.65q-1.2 0.75-2 1.9-0.7 1.05-0.7 2.15m8.2-5.8 2.6 0.1 2.5 0.6q0.75-1.6 2.05-2.55m-2.05 2.55 2.15 0.75 4.55 2.25 2.55 1.8 0.75 0.75q0.75 0.8 1 1.65 2.2-1.65 5.15-0.65 0.9 0.3 1.65 0.8m-27.65-0.2q-0.55-1.4 1.85-2.15l2.95-0.65q1.9-0.2 3.7 0.05 1.75 0.25 3 1.3 1.85 1.6 1.95 3.7l-0.1 1m7.5-3.2q0.25 0.75 0.05 1.6l-0.45 1m-27.8-27.7q1 1.95 3.3 2.45l0.2 0.05 3.4 0.15m-9.25-1.6-0.1 2q-0.2 2-1.2 3.75l-0.85 1.4 1 1.05q1.65 1.2 3.5 1.75l1.05 0.2 0.2-1.95 0.6-3.25q0.65-3.05 1.65-3.5m-8.05-8q1.25 1.85 1.8 4.1l0.4 2.45m-2.15 7.15-1.2 1.35q0.2 2.1 0.75 4.5l0.15 0.6m-0.9-5.1-0.5 0.45-1.15 0.9m8.4 0.3q-0.15 1.3-0.15 2.65 0 2.75 0.55 5.45l0.65 2.4" fill="none" stroke="#238156" stroke-opacity=".63137" stroke-width=".5"/>
<path d="m240.25 166.85q0.9 0.7 0.8 2.7-0.1 1.95-1.15 4-1.15 2.05-2.6 3-1.5 0.95-2.4 0.25-1-0.75-0.9-2.7 0.15-2 1.3-4.05 1.1-2.1 2.55-3.05t2.4-0.15" fill="#fff" fill-opacity=".91373"/>
<path d="m284.9 185.35-0.3-0.35v-0.05l0.3 0.4" fill="#fff" fill-opacity=".87059"/>
<path d="m242.1 165.35q-8.05 8.45-10.2 19.4l-0.45 3.05-0.3 4.2q-0.4 15.55 9.95 27.1-14.2-11.1-13.95-29.8 0.1-17.6 13-27.9 8.1-6.6 17.9-6.75l1.55-0.1q-9.95 2.8-17.5 10.8" fill="#e0f8f0" fill-opacity=".57255"/>
<path d="m285.35 194.75q0.5-8.5-1.15-12.95-2-6.85-7.3-13.35 11.3 10.05 10.55 24.7-0.6 13.75-11.45 20.7-6.8 4.35-14.8 3.6l-1.25-0.1 6.1-0.45q5.6-0.35 12.2-7.05 6.55-6.65 7.1-15.1" fill="#017878" fill-opacity=".50196"/>
</g>
</defs>
<use xlink:href="#n"/>
</svg>
