<?xml version="1.0" encoding="UTF-8"?>
<svg width="247px" height="238px" version="1.1" viewBox="156.73 278.13 247.43 238.37" xmlns="http://www.w3.org/2000/svg" xmlns:xlink="http://www.w3.org/1999/xlink">
<defs>
<g id="g">
<path d="m-18.2 12.1q6.1-17.95 6.15-30.15 8.45-8.55 33.35-14.05l2.4 15.5q-1 9.35-9.95 32.5l-1.25 1.35v0.05l-4.75 2.55q-4.5 2.25-8.5 0.4l-11.55-5.35-5.9-2.8" fill="#b07146"/>
<path d="m-18.2 12.1 5.9 2.8 11.55 5.35q4 1.85 8.5-0.4l4.75-2.55q-6.8 7.1-17.6 14.3-17.35 2.35-18.55-5.2 3.15-7.55 5.45-14.3" fill="#593a1f"/>
<path d="m12.5 17.3v-0.05l1.25-1.35q8.95-23.15 9.95-32.5l-2.4-15.5q-24.9 5.5-33.35 14.05-0.05 12.2-6.15 30.15m30.7 5.2q-6.8 7.1-17.6 14.3-17.35 2.35-18.55-5.2 3.15-7.55 5.45-14.3" fill="none" stroke="#42301e" stroke-width="1.5"/>
</g>
<g id="f">
<path d="m39.15 41.65q-6.55 2.8-12.95 1.1 2.15-8 3.5-15.6 0.15 1.45 1.15 3.45 1.85 3.7 4.3 6.6l4 4.45" fill="#9e6837"/>
<path d="m-9.6 36.75q-19.45-5.2-30.6-14.25l-11.25-57.15 8.8-8.65q28.1-0.7 66.8 8.6 6.75 1.6 19.65 5.7l6.95 18.6q2.9 25.5-5.55 48.45-3.05 2.3-6.05 3.6l-4-4.45q-2.45-2.9-4.3-6.6-1-2-1.15-3.45l0.05-0.4-0.1-0.25q-6.7-18.2-9.25-18.45l-12.35-1.2-13.45-0.95-0.8 0.05-0.15 0.15-0.25 0.2-0.3-0.05q0.3 1.55 0.3 8.85 0 5-2.2 16.9l-0.8 4.75m33.75-71.45q8.5 18.7 5.7 59.75v0.45l-0.1 1.2v0.05-0.05l0.1-1.2v-0.45q2.8-41.05-5.7-59.75m5.7 61-0.1 0.4 0.1-0.4 0.05-0.35 0.05-0.3-0.1-0.6 0.1 0.6-0.05 0.3-0.05 0.35-0.1 0.45 0.1-0.45" fill="#664222"/>
<path d="m26.2 42.75q-22.3-2.4-35.8-6l0.8-4.75q2.2-11.9 2.2-16.9 0-7.3-0.3-8.85l0.3 0.05 0.25-0.2 0.15-0.15 0.8-0.05 13.45 0.95 12.35 1.2q2.55 0.25 9.25 18.45l0.1 0.25-0.05 0.4q-1.35 7.6-3.5 15.6" fill="#9e6637"/>
<path d="m-9.6 36.75q-19.45-5.2-30.6-14.25l-11.25-57.15 8.8-8.65q28.1-0.7 66.8 8.6 6.75 1.6 19.65 5.7l6.95 18.6q2.9 25.5-5.55 48.45-3.05 2.3-6.05 3.6-6.55 2.8-12.95 1.1-22.3-2.4-35.8-6m39.35-10v-0.05l0.1-1.2v-0.45q2.8-41.05-5.7-59.75m5.6 61.45-0.05 0.4q-1.35 7.6-3.5 15.6m3.65-17.7 0.1 0.6-0.05 0.3-0.05 0.35-0.1 0.45m0-0.05 0.1-0.4" fill="none" stroke="#42301e" stroke-width="1.5"/>
<path d="m23.5 24.8q1.25-1.5 3.25-2 3.05 1.35 5.3 4.3-0.35 1.6-1.9 3-2.15-2.55-6.65-5.3"/>
</g>
<g id="e">
<path d="m-22.85 28.7-0.15-0.4q0.95-28.2 5.45-53.8l0.3-0.4q4.05-1.2 8.2-0.75 7.25 1.35 14.45 6.55 7.2 5.15 9.15 9.9-3.9 5-7.3 13.4-3.4 8.35-4.25 9.45-0.9 1.05-1.25-2.85-1.25 6.2-1.4 11.95-0.2 5.7 0.4 8.95-3.45 1.5-7.7 2.05-4.3 0.55-6.45 0.05l-2.05-0.9-2.2-1-5.2-2.2m13.8-55.35q-4.05 11.9-5.55 25.4-2.4 20.9 1.2 34.05-3.6-13.15-1.2-34.05 1.5-13.5 5.55-25.4" fill="#b07146"/>
<path d="m-17.25-25.9q8.25-12.75 12.85-18.95 4.4-0.85 8.1-0.15 17.95 3.3 19.25 42.8l0.05 4.45q-11.25 12.95-14.6 23.55 1.75 2.9 1 9.25-6.95 9.45-12.1 10.3l-1.9-0.8-1.05-0.45q-13.35-6.1-17.2-15.4l5.2 2.2 2.2 1 2.05 0.9q2.15 0.5 6.45-0.05 4.25-0.55 7.7-2.05-0.6-3.25-0.4-8.95 0.15-5.75 1.4-11.95 0.35 3.9 1.25 2.85 0.85-1.1 4.25-9.45 3.4-8.4 7.3-13.4-1.95-4.75-9.15-9.9-7.2-5.2-14.45-6.55-4.15-0.45-8.2 0.75m24.65 56.8q0.35-3.3 1-5.1-0.65 1.8-1 5.1m-3.7-75.9q-8.7 6.15-12.75 18.35 4.05-12.2 12.75-18.35m-9.35 89.1q-5.3-3.35-7.75-11.3 2.45 7.95 7.75 11.3" fill="#6e4726"/>
<path d="m-22.85 28.7-0.15-0.4q0.95-28.2 5.45-53.8l0.3-0.4q8.25-12.75 12.85-18.95 4.4-0.85 8.1-0.15 17.95 3.3 19.25 42.8l0.05 4.45q-11.25 12.95-14.6 23.55 1.75 2.9 1 9.25-6.95 9.45-12.1 10.3l-1.9-0.8-1.05-0.45q-13.35-6.1-17.2-15.4" fill="none" stroke="#42301e" stroke-width="1.5"/>
<path d="m-13.4 32.8q-3.6-13.15-1.2-34.05 1.5-13.5 5.55-25.4 4.05-12.2 12.75-18.35m-17.1 77.8q2.45 7.95 7.75 11.3m14.05-18.3q-0.65 1.8-1 5.1" fill="none" stroke="#422f1d" stroke-opacity=".50196" stroke-width="1.5"/>
<path d="m-14.75 32.2q3.1 1.4 6.95 1.45 0.4 2.3 0 3.6-3.45-0.35-6.95-2.1-0.65-1.45 0-2.95"/>
<path d="m-11.6 13.25q-2.95 1.7-5.2 4.75-2.15-1-2.95-2.1 2.3-2.6 5.75-4.35 1.6 0.3 2.4 1.7"/>
<path d="m-7.8-17.2-6.95 0.35q-0.6-2.65-0.35-4.3l7.05 0.4q0.7 1.55 0.25 3.55"/>
<path d="m-4.95-25.6q-4.55-1.45-7.35-1.45l0.05-2.5 7.05 0.4q0.7 1.55 0.25 3.55"/>
</g>
<g id="d">
<path d="m-4.9-26.95q16.4-1.7 34.55 3.2 4.8 1.25 5.9 4.4l-8.8 17.85q-8.15 8.55-15.75 15.35-2.8 2.2-8.65 3.65-8.25-0.15-12.2-3.8-4-3.7-3.95-4.55 2.25-6.25 4.4-14.9 2.65-10.4 4.5-21.2m34.55 3.2q-2.15 7.35-14.35 30.2l-12.95 11.05 12.95-11.05q12.2-22.85 14.35-30.2" fill="#b07146"/>
<path d="m11 13.85q-6.3 5.55-12.2 9.95-4.3 2.1-9.65 2.95-8 1.35-18.35-0.05-7.8-5.3-6.05-14.45l14.5-14.5q5.05-11.95 6.05-23.05 4.8-1.15 9.8-1.65-1.85 10.8-4.5 21.2-2.15 8.65-4.4 14.9-0.05 0.85 3.95 4.55 3.95 3.65 12.2 3.8 5.85-1.45 8.65-3.65m-33.7-11.65q1.1-2.25 1.95-4.45-0.85 2.2-1.95 4.45m25.05 15.3q-6.15 5.1-13.2 9.25 7.05-4.15 13.2-9.25" fill="#593a1f"/>
<path d="m29.65-23.75q4.8 1.25 5.9 4.4l-8.8 17.85q-8.15 8.55-15.75 15.35-6.3 5.55-12.2 9.95-4.3 2.1-9.65 2.95-8 1.35-18.35-0.05-7.8-5.3-6.05-14.45l14.5-14.5q-0.85 2.2-1.95 4.45" fill="none" stroke="#42301e" stroke-width="1.5"/>
<path d="m-4.9-26.95q16.4-1.7 34.55 3.2m-50.4 21.5q5.05-11.95 6.05-23.05 4.8-1.15 9.8-1.65-1.85 10.8-4.5 21.2-2.15 8.65-4.4 14.9-0.05 0.85 3.95 4.55 3.95 3.65 12.2 3.8l12.95-11.05q12.2-22.85 14.35-30.2m-40.5 50.5q7.05-4.15 13.2-9.25" fill="none" stroke="#422f1d" stroke-opacity=".50196" stroke-width="1.5"/>
<path d="m21.15-14.05q3.25-0.15 6.6-2.2 1.25 2.4 1.45 4.05-3.15 1.5-6.9 1.5-1.1-1.3-1.15-3.35"/>
<path d="m19.4 3.3q-0.65 1.85-2.3 3.1-3.3-0.1-6.5-2-0.35-1.65 0.65-3.5 2.9 1.55 8.15 2.4"/>
<path d="m12 12.1q-1.15 1.6-3 2.4-3.2-0.95-5.8-3.6 0.1-1.7 1.55-3.25 2.4 2.25 7.25 4.45"/>
<path d="m-3.2 22.6q-0.55 1.2-1.95 2.05-2.85-0.05-5.6-1.3-0.3-1.1 0.55-2.3 2.5 1 7 1.55"/>
<path d="m32.75-18.95q0.9-1.8 0.6-3.8-2.4-2.3-6-3.2-1.4 0.9-2.05 2.95 3.15 0.95 7.45 4.05"/>
</g>
<g id="c">
<path d="m-8 6.25q0.55-2.65 2.1-5.55 1.7-3.2 5.35-7.55 3.6-4.45 6.7-5.7l2.9-0.6 0.3 2.05 0.3 4.55q0 9.4-1 17.35l-0.55 3.75-0.55 2.9v0.05l-1.1-1.35-1.2-1.25-0.35-0.35-11-7.45-1.9-0.85" fill="#b0936b"/>
<path d="m4.75-24.15 1.05-1.3-0.75 0.95-0.3 0.35m10.35 11.25-0.15 4.4v0.25l-0.15 3.95v0.5l-1.05 14.35-0.5 4-0.1 0.65-3.5 10.3-0.35 0.15-2.3-3.9-0.5-0.7-0.15-0.15-0.8-1.05-5.6-5.3q-3.6-2.7-8.25-4.85h-0.05q-0.05-1.7 0.35-3.45l1.9 0.85 11 7.45 0.35 0.35 1.2 1.25 1.1 1.35 0.2 0.2 0.15 0.2 1 1.35 0.9-4.7 0.45-2.65 0.15-1.05 1.65-15.05 0.05-0.95 0.05-1 0.1-1.05 0.05-1.3 0.25-4.75 2.15 0.15 0.4 0.2m-24 22.35-1.45-0.65 0.4 0.15q0.55 0.2 1.05 0.5m-4.25-8.9 3.6-5.45-0.85 1.2-1.9 2.9-0.85 1.35m19.65 20.5 0.1 0.15 0.4 0.55-0.4-0.55-0.1-0.15m3.5-0.05-1.1-1.75 1.1 1.75m-4.45-1.15 0.65 0.8 0.15 0.25-0.15-0.25-0.65-0.8" fill="#806035"/>
<path d="m-8 6.25q-0.55-0.25-1.05-0.45l-0.15-0.1-0.4-0.15-2.55-0.95 1.45-2.5 0.5-0.85 0.85-1.45q8.05-13.7 14.5-21.45l0.15-0.15 0.95-1.15q5.65 1.7 6.4 6.25l-0.05 2.85-0.05 0.6-0.25 4.75-0.05 1.3-0.1 1.05-0.05 1-0.05 0.95-1.65 15.05-0.15 1.05-0.45 2.65-0.9 4.7-1-1.35-0.15-0.2-0.2-0.2v-0.05l0.55-2.9 0.55-3.75q1-7.95 1-17.35l-0.3-4.55-0.3-2.05-2.9 0.6q-3.1 1.25-6.7 5.7-3.65 4.35-5.35 7.55-1.55 2.9-2.1 5.55" fill="#856f51"/>
<path d="m5.8-25.45 0.1-0.2q8 0.65 9.3 8.45l-0.1 4.3-0.4-0.2-2.15-0.15 0.05-0.6 0.05-2.85q-0.75-4.55-6.4-6.25l-0.95 1.15-0.15 0.15q-6.45 7.75-14.5 21.45l-0.85 1.45-0.5 0.85-1.45 2.5 2.55 0.95 0.4 0.15 0.15 0.1q0.5 0.2 1.05 0.45-0.4 1.75-0.35 3.45l-0.55-0.25q-0.5-0.3-1.05-0.5l-0.4-0.15-0.9-0.35-3.55-1.3q-0.75 0.5-0.3-2.35l0.05-0.15 0.1-0.5 0.05-0.05v-0.05l0.15-0.35v-0.1l1.6-3.05 0.85-1.35 1.9-2.9 0.85-1.2 2.9-4.1 0.1-0.1 0.05-0.1 1.25-1.65 0.35-0.5 6.65-8.85 2.8-3.7 0.2-0.25 0.3-0.35 0.75-0.95" fill="#614928"/>
<path d="m4.75-24.15 1.05-1.3 0.1-0.2q8 0.65 9.3 8.45l-0.1 4.3-0.15 4.4v0.25l-0.15 3.95v0.5l-1.05 14.35-0.5 4-0.1 0.65-3.5 10.3-0.35 0.15-2.3-3.9-0.5-0.7-0.15-0.15-0.8-1.05-5.6-5.3q-3.6-2.7-8.25-4.85h-0.05l-0.55-0.25-1.45-0.65-0.9-0.35-3.55-1.3q-0.75 0.5-0.3-2.35l0.05-0.15 0.1-0.5 0.05-0.05v-0.05l0.15-0.35v-0.1l1.6-3.05 3.6-5.45 2.9-4.1 0.1-0.1 0.05-0.1 1.25-1.65 0.35-0.5 6.65-8.85 2.8-3.7 0.2-0.25 0.3-0.35 0.75-0.95m-13.8 31.7q-0.55-0.25-1.05-0.45l-0.15-0.1-0.4-0.15-2.55-0.95 1.45-2.5 0.5-0.85 0.85-1.45q8.05-13.7 14.5-21.45l0.15-0.15 0.95-1.15q5.65 1.7 6.4 6.25l-0.05 2.85-0.05 0.6m-4.8 30.95 0.15 0.2 1 1.35 0.9-4.7 0.45-2.65 0.15-1.05 1.65-15.05 0.05-0.95 0.05-1 0.1-1.05 0.05-1.3 0.25-4.75m-22.1 8.35-0.85 1.2-1.9 2.9-0.85 1.35m5.15 5.7 1.9 0.85 11 7.45 0.35 0.35 1.2 1.25 1.1 1.35m-17.9-8.7 0.4 0.15q0.55 0.2 1.05 0.5m15.25 11.45-0.15-0.25-0.65-0.8m3.35-0.6 1.1 1.75m-3 0.75-0.4-0.55-0.1-0.15" fill="none" stroke="#42301e" stroke-width="1.5"/>
</g>
<g id="b">
<path d="m316.4 443-3.25-3.65 0.65-0.85q6.35-8.85 0.75-7.35l-2.3 0.8q-0.85 0.35-1.8 0.8l-1.6 0.8q-3.1 1.5-5.1 3-5.2 3.8-3.8 7.1l5.95 6.85-0.1 0.1-4.8 5q-9.6 10.6-12.65 19.95l-0.7 2.3q-2.5 10.4 1.45 13.95 2.2 1.9 5.55 1.65l1-0.1 1-0.2 0.1-0.1 0.8-0.2 0.6-0.2 0.55-0.25 0.05 0.05q-4.45 2.65-7.95 3.15l-1.45 0.15q-2.1-0.1-3.75-1.05-6.35-4.35-2.85-17.65 2.25-8.55 9.3-17.1 3.7-4.7 8.8-9.3l-4.6-5.1q-2.7-3.2-1.55-5.65l5.45-5.35 0.9-0.7q2.25-1.75 4.9-3.2l0.95-0.55-0.95 0.55q-2.65 1.45-4.9 3.2l-0.9 0.7q3.05-2.55 6.75-4.45l0.6-0.3 7.6-2.9 1.3-0.4q6.05-0.55 4.8 4.7l-0.45 1.35q-0.8 2.3-2.85 5.55l-0.1 0.1 0.9-0.7-0.9 0.7 0.1-0.1 0.8-0.6 4.05-2.25 1.7-0.7-1.7 0.7 0.45-0.25q0.6-0.3 1.25-0.45l0.85-0.35 4.65-1.55 0.95-0.25 0.9-0.3 1.2-0.2 1.15-0.25 0.15-0.05q6.45-1.05 8.7 1.6 1.4 1.6 1.4 4.3l0.15 0.05q-0.05 1.45-0.65 3.55-0.7 2.3-2.3 5.6 1.6-3.3 2.3-5.6-0.8 3-2.75 6.95l0.4-1.1 0.05-0.25 0.45-1.65q0.95-4.75-1.1-7.1-1.8-2.1-6.35-1.65l-5.6 1.2-2.5 0.8-1.95 0.65-3.5 1.5-3.45 1.85-1.05 0.65h-0.1l-0.05 0.05" fill="#2b0000"/>
<path d="m309.25 452.45q-6.35-7.15-4.45-9.05 0.75-0.75 2.9-0.4 2.7 0.3 5 2.5l0.75 0.75 2.9 3.2 0.05 0.05-0.35 0.45q-2.1 1.6-3.8 2.2l-0.65 0.15-2.35 0.15" fill="#e0c7a1"/>
<path d="m339.65 451.35v0.1l-0.05 0.25-0.15 1.65-0.75 4.05q-0.85 3.65-4.95 9.15-2.8 3.7-7.05 8.25-4 4.4-7.55 7.45l-0.1 0.1-0.05-0.05-0.1-0.2-1.7-1.3q-1.35-1.35-1.15-6.85 0.25-5.45-2.15-7.15-2.35-1.75-6.45 4.75-4.15 6.35-3.9 10.1 0.1 3.7 3.3 7.9l-0.95 0.35-1.65 0.55-0.05-0.05q-11.75-11.25 16.25-37.15l0.85-0.75 3.8-2.7q4-2.5 6.8-3.6l0.1-0.1q0.95-0.35 1.75-0.55l1.05-0.25 0.95-0.05q4.3-0.1 3.9 6.1m-38.05 39.65 1.05-0.15-1.15 0.25 0.1-0.1" fill="#d4c7ad"/>
<path d="m316.4 443 0.05-0.05h0.1l-0.1 0.1-0.05-0.05" fill="#c22020"/>
<path d="m305.9 450.5-5.95-6.85q-1.4-3.3 3.8-7.1 2-1.5 5.1-3l1.6-0.8q0.95-0.45 1.8-0.8l2.3-0.8q5.6-1.5-0.75 7.35l-0.65 0.85 3.25 3.65 0.4 0.4q1.15 1.15 1.15 2.55 0 1-0.6 2.1l-0.8 1.3-0.15 0.15-0.05-0.05-2.9-3.2-0.75-0.75q-2.3-2.2-5-2.5-2.15-0.35-2.9 0.4-1.9 1.9 4.45 9.05h-0.05q-1.55-0.3-2.9-1.55l-0.4-0.4m6.25-9.95 0.9-1.1 0.1-0.1-0.1 0.1-0.9 1.1" fill="#9c8566"/>
<path d="m305.8 450.6 0.1-0.1 0.1 0.1h-0.2m3.4 1.85h0.05l-0.1 0.1 0.05-0.1m30.4-0.75 0.05-0.25v-0.1l0.1 0.05-0.15 0.3" fill="#540505"/>
<path d="m321.3 452.5-0.85 0.75q-28 25.9-16.25 37.15l0.05 0.05-1.6 0.4-1.05 0.15q-1.1-0.2-2-0.6-10.6-4.5 10.75-29.15 5.55-4.75 10-8.1l0.95-0.65m-14.45 37.05q-3.2-4.2-3.3-7.9-0.25-3.75 3.9-10.1 4.1-6.5 6.45-4.75 2.4 1.7 2.15 7.15-0.2 5.5 1.15 6.85l1.7 1.3 0.1 0.2 0.05 0.05-5.15 3.95-4.35 2.25-0.15 0.05-2.55 0.95" fill="#91866f"/>
<path d="m298.75 492.45-0.05-0.05-0.55 0.25-0.6 0.2-0.8 0.2-0.1 0.1q-4.85-2.05-5.4-11.4 2.25-14.15 17.9-29.2l0.1-0.1 2.35-0.15 0.65-0.15q1.7-0.6 3.8-2.2l0.35-0.45 0.15-0.15 0.8-1.3q1.55-1.05 4.45-1.55l0.95-0.15 4.7-0.5h2l2.45 0.35q-2.8 1.1-6.8 3.6l-3.8 2.7-0.95 0.65q-4.45 3.35-10 8.1-21.35 24.65-10.75 29.15 0.9 0.4 2 0.6l-0.1 0.1-2.65 1.25-0.1 0.1" fill="#fc0"/>
<path d="m316.55 442.95 1.05-0.65 3.45-1.85 3.5-1.5 1.95-0.65 2.5-0.8 5.6-1.2q4.55-0.45 6.35 1.65 2.05 2.35 1.1 7.1l-0.45 1.65-0.05 0.25-0.4 1.1-0.1 0.3-0.15 0.35-0.05 0.25-0.05 0.05-0.05 0.15-0.05 0.05-0.05 0.15v0.1l-0.05 0.05-0.85 1.9-0.1-0.05q0.4-6.2-3.9-6.1l-0.95 0.05-1.05 0.25q-0.8 0.2-1.75 0.55l-0.1 0.1-2.45-0.35h-2l-4.7 0.5-0.95 0.15q-2.9 0.5-4.45 1.55 0.6-1.1 0.6-2.1 0-1.4-1.15-2.55l-0.35-0.35 0.1-0.1m-19.9 50.2-1 0.2-1 0.1q-3.35 0.25-5.55-1.65-3.95-3.55-1.45-13.95l0.7-2.3q3.05-9.35 12.65-19.95l4.8-5h0.2l0.3 0.3q1.35 1.25 2.9 1.55l-0.05 0.1q-15.65 15.05-17.9 29.2 0.55 9.35 5.4 11.4" fill="#c90"/>
<path d="m305.9 450.5-5.95-6.85q-1.4-3.3 3.8-7.1 2-1.5 5.1-3l1.6-0.8q0.95-0.45 1.8-0.8l2.3-0.8q5.6-1.5-0.75 7.35l-0.65 0.85 3.25 3.65 0.05-0.05h0.1l1.05-0.65 3.45-1.85 3.5-1.5 1.95-0.65 2.5-0.8 5.6-1.2q4.55-0.45 6.35 1.65 2.05 2.35 1.1 7.1l-0.45 1.65q1.6-3.3 2.3-5.6 0.6-2.1 0.65-3.55l-0.15-0.05q0-2.7-1.4-4.3-2.25-2.65-8.7-1.6l-0.15 0.05-1.15 0.25-1.2 0.2-0.9 0.3-0.95 0.25-4.65 1.55-2.55 1.05-4.05 2.25-0.9 0.7 0.1-0.1q2.05-3.25 2.85-5.55l0.45-1.35q1.25-5.25-4.8-4.7l-1.3 0.4-7.6 2.9-0.6 0.3-0.95 0.55q-2.65 1.45-4.9 3.2l-0.9 0.7-5.45 5.35q-1.15 2.45 1.55 5.65l4.6 5.1q-5.1 4.6-8.8 9.3-7.05 8.55-9.3 17.1-3.5 13.3 2.85 17.65 1.65 0.95 3.75 1.05l1.45-0.15q3.5-0.5 7.95-3.15l-0.05-0.05-0.55 0.25-0.6 0.2-0.8 0.2-0.05 0.05m-0.05 0.05-1 0.2-1 0.1q-3.35 0.25-5.55-1.65-3.95-3.55-1.45-13.95l0.7-2.3q3.05-9.35 12.65-19.95l4.8-5 0.1-0.1 0.4 0.4q1.35 1.25 2.9 1.55h0.05m7.15-2.95 0.15-0.15 0.8-1.3q0.6-1.1 0.6-2.1 0-1.4-1.15-2.55l-0.4-0.4m23.35 8.4 0.85-1.9 0.05-0.05v-0.1l0.05-0.15 0.05-0.05 0.05-0.15 0.05-0.05 0.05-0.25 0.15-0.35 0.1-0.3 0.4-1.1 0.05-0.25m-1.95 4.65v0.1l-0.05 0.25 0.15-0.3m-0.1-0.05q0.4-6.2-3.9-6.1l-0.95 0.05-1.05 0.25q-0.8 0.2-1.75 0.55l-0.05 0.05m-0.05 0.05q-2.8 1.1-6.8 3.6l-3.8 2.7-0.95 0.65q-4.45 3.35-10 8.1-21.35 24.65-10.75 29.15 0.9 0.4 2 0.6l1.05-0.15 1.6-0.4 1.65-0.55 0.95-0.35m12.2-7.2 0.1-0.1q3.55-3.05 7.55-7.45 4.25-4.55 7.05-8.25 4.1-5.5 4.95-9.15l0.75-4.05 0.15-1.65m1.55-3.65q1.95-3.95 2.75-6.95m-19.45-6.55q-0.65 0.15-1.25 0.45l-0.45 0.25m-4.85 2.85 0.8-0.6m-2.3 12-0.35 0.45q-2.1 1.6-3.8 2.2l-0.65 0.15-2.35 0.15m3.9-13.1-0.1 0.1-0.9 1.1m6.9 41.8-5.15 3.95-4.35 2.25-0.15 0.05-2.55 0.95m-8.1 2.9 0.1-0.1 2.65-1.25 0.1-0.1m1.05-0.15-1.15 0.25m-1.35-56.55q3.05-2.55 6.75-4.45" fill="none" stroke="#42301e" stroke-width="1.5"/>
</g>
<g id="a">
<path d="m32.75-2.75-0.05 0.45v0.2 0.1l0.1 0.55-0.05-0.25 0.15 0.75 0.15 0.65q0.5 0.8 1.05 0.8 0.65 0 1-0.8l0.4-1.05v-0.75-0.2q0-0.95-0.4-1.65-0.35-0.7-1-0.7h-0.05q-0.6 0.05-1 0.7v-0.05l-0.05 0.05q-0.2 0.55-0.25 1.2m-12.7-0.3q-0.75-0.9-1.85-1h-0.25q-1.2 0-2.1 1-0.6 0.75-0.7 1.7l-0.05 0.6v0.2q0.05 1.3 0.75 2.25 0.9 0.95 2.1 0.95l0.55-0.05q0.9-0.15 1.55-0.9 0.8-0.95 0.9-2.25v-0.2l-0.1-0.65q-0.15-0.9-0.8-1.65m-21 3.05-0.15-1.35q-0.3-0.95-0.9-1.7-1-1.2-2.4-1.2-1.45 0-2.5 1.2l-0.75 1.7-0.15 1.35v0.2q0.1 1.65 0.9 2.85 1.05 1.25 2.5 1.25 1.4 0 2.4-1.25 0.95-1.2 1.05-2.85v-0.2m-19.45-16.6h70.8q-1.95 9.35 0 25.1-21.45 5.95-39.1 7.75-20.3 1.3-31.85-0.75-1.7-13.7 0.15-32.1m-6.25 30.75q-15.4-4.05-25.45-13.9v-16.85h26.2q-1.65 12.6-0.75 30.75"/>
<path d="m20.05-3.05q0.65 0.75 0.8 1.65l0.1 0.65v0.2q-0.1 1.3-0.9 2.25-0.65 0.75-1.55 0.9l-0.55 0.05q-1.2 0-2.1-0.95-0.7-0.95-0.75-2.25v-0.2l0.05-0.6q0.1-0.95 0.7-1.7 0.9-1 2.1-1h0.25q1.1 0.1 1.85 1m13-0.9q0.4-0.65 1-0.7h0.05q0.65 0 1 0.7 0.4 0.7 0.4 1.65v0.2 0.75l-0.4 1.05q-0.35 0.8-1 0.8-0.55 0-1.05-0.8l-0.15-0.65-0.15-0.75 0.05 0.25-0.1-0.55v-0.1-0.2l0.05-0.45 0.3-1.2m-34 3.95v0.2q-0.1 1.65-1.05 2.85-1 1.25-2.4 1.25-1.45 0-2.5-1.25-0.8-1.2-0.9-2.85v-0.2l0.15-1.35 0.75-1.7q1.05-1.2 2.5-1.2 1.4 0 2.4 1.2 0.6 0.75 0.9 1.7l0.15 1.35m-19.6 15.5 0.1 0.75-6.1 0.45-0.1-2.55q-0.9-18.15 0.75-30.75h5.5q-1.85 18.4-0.15 32.1" fill="#9d7437"/>
<path d="m20.05-3.05q0.65 0.75 0.8 1.65l0.1 0.65v0.2q-0.1 1.3-0.9 2.25-0.65 0.75-1.55 0.9l-0.55 0.05q-1.2 0-2.1-0.95-0.7-0.95-0.75-2.25v-0.2l0.05-0.6q0.1-0.95 0.7-1.7 0.9-1 2.1-1h0.25q1.1 0.1 1.85 1m13-0.9q0.4-0.65 1-0.7h0.05q0.65 0 1 0.7 0.4 0.7 0.4 1.65v0.2 0.75l-0.4 1.05q-0.35 0.8-1 0.8-0.55 0-1.05-0.8l-0.15-0.65-0.15-0.75 0.05 0.25-0.1-0.55v-0.1-0.2l0.05-0.45m0.3-1.2-0.3 1.2m-33.7 2.75v0.2q-0.1 1.65-1.05 2.85-1 1.25-2.4 1.25-1.45 0-2.5-1.25-0.8-1.2-0.9-2.85v-0.2l0.15-1.35 0.75-1.7q1.05-1.2 2.5-1.2 1.4 0 2.4 1.2 0.6 0.75 0.9 1.7l0.15 1.35m-19.45-16.6h70.8q-1.95 9.35 0 25.1-21.45 5.95-39.1 7.75-20.3 1.3-31.85-0.75l0.1 0.75-6.1 0.45-0.1-2.55q-15.4-4.05-25.45-13.9v-16.85h26.2q-1.65 12.6-0.75 30.75m6.25-30.75q-1.85 18.4-0.15 32.1" fill="none" stroke="#42301e" stroke-width="1.5"/>
<path d="m55.05-15.35q-3.4 2.05-9.45 1.85-6.1-0.25-7.25-0.85l-1.35-0.65q-1.2 0-3.05-2.55l-3.7-4.95q-2.45 1.3-7.3 2.95-6.3 2.05-9.25 2.05l-8.9-0.75-7.7-0.75h-0.1q-2.25 0.2-17.05 3.4-15.55 3.35-30.55 3.35-2.75 0-5.05-1.05l-1.35-0.65q-1-2.8-0.3-6.5 18.5-9.4 79.1-11.9l31.8 7.3q6.95 4.6 1.45 9.7" fill="#ebdbc3"/>
<path d="m29.7-10q-5.05-1.45-10.5-2.25 5.45 0.8 10.5 2.25m-86.7-3.95 1.35 0.65q2.3 1.05 5.05 1.05 15 0 30.55-3.35 14.8-3.2 17.05-3.4h0.1l7.7 0.75 8.9 0.75q2.95 0 9.25-2.05 4.85-1.65 7.3-2.95l3.7 4.95q1.85 2.55 3.05 2.55l1.35 0.65q1.15 0.6 7.25 0.85 6.05 0.2 9.45-1.85l-1.95 3.75q-21.85 8-33.9-0.65-22.35-3.25-51.7 4.25-19.3 3.5-21-1.5-2.55-1.8-3.5-4.45" fill="#b0936b"/>
<path d="m55.05-15.35q5.5-5.1-1.45-9.7l-31.8-7.3q-60.6 2.5-79.1 11.9-0.7 3.7 0.3 6.5 0.95 2.65 3.5 4.45 1.7 5 21 1.5 29.35-7.5 51.7-4.25 12.05 8.65 33.9 0.65l1.95-3.75" fill="none" stroke="#42301e" stroke-width="1.5"/>
<path d="m19.2-12.25q5.45 0.8 10.5 2.25" fill="none" stroke="#422f1d" stroke-opacity=".50196" stroke-width="1.5"/>
<path d="m-59.6 11.4q1.3-10.4 6.3-13.5l13.35 7.55q20.65-2.3 40.3 6.65 27.65 0.9 41.6-7.8l8.3-7.3q8.5 5.9 9.65 16.15l-1.35 0.55q-1.85 0.1-2.35 0.6l-1.1 1.65q-2.75 3.1-15.95 6.8-3.45 1.05-9.2 1.7l-6.7 0.75q-1.25 0.25-3 1l-2.35 0.55-12.2-1.9q-13.1-2-24.25-2.25l-22.95-1.2-5.6-1.05-5.7-0.8q-1.15 0.05-3.85-3.5-1.8-2.25-2.95-4.65m19.65-5.95-6.05 0.85 6.05-0.85m44.9 8.85-4.6-2.2 4.6 2.2" fill="#ebdbc3"/>
<path d="m59.9 13.15q0.35 3.45-0.05 7.4-11.9 7.45-28 11.3-53.75 2.2-86.1-6.6l-5.8-8.7 0.45-5.15q1.15 2.4 2.95 4.65 2.7 3.55 3.85 3.5l5.7 0.8 5.6 1.05 22.95 1.2q11.15 0.25 24.25 2.25l12.2 1.9 2.35-0.55q1.75-0.75 3-1l6.7-0.75q5.75-0.65 9.2-1.7 13.2-3.7 15.95-6.8l1.1-1.65q0.5-0.5 2.35-0.6l1.35-0.55" fill="#b0936b"/>
<path d="m59.9 13.15q0.35 3.45-0.05 7.4-11.9 7.45-28 11.3-53.75 2.2-86.1-6.6l-5.8-8.7 0.45-5.15q1.3-10.4 6.3-13.5l13.35 7.55q20.65-2.3 40.3 6.65 27.65 0.9 41.6-7.8l8.3-7.3q8.5 5.9 9.65 16.15m-59.55-1.05 4.6 2.2m-50.95-8 6.05-0.85" fill="none" stroke="#332720" stroke-opacity=".6" stroke-width="1.5"/>
</g>
</defs>
<use transform="matrix(1.0118 1.0118 -1.0118 1.0118 256.6 486.05)" xlink:href="#g"/>
<use transform="matrix(1.0118 1.0118 -1.0118 1.0118 278.05 417.65)" xlink:href="#f"/>
<use transform="matrix(1.0118 1.0118 -1.0118 1.0118 214.4 386.15)" xlink:href="#e"/>
<use transform="matrix(1.0118 1.0118 -1.0118 1.0118 219.2 473.8)" xlink:href="#d"/>
<use transform="matrix(1.0118 1.0118 -1.0118 1.0118 213.05 423.45)" xlink:href="#c"/>
<use xlink:href="#b"/>
<use transform="matrix(1.0118 1.0118 -1.0118 1.0118 322.2 356.8)" xlink:href="#a"/>
</svg>
