<?xml version="1.0" encoding="UTF-8"?>
<svg version="1.1" viewBox="0 0 33.3 47.936" xmlns="http://www.w3.org/2000/svg" xmlns:cc="http://creativecommons.org/ns#" xmlns:dc="http://purl.org/dc/elements/1.1/" xmlns:rdf="http://www.w3.org/1999/02/22-rdf-syntax-ns#" xmlns:xlink="http://www.w3.org/1999/xlink">
<metadata>
<rdf:RDF>
<cc:Work rdf:about="">
<dc:format>image/svg+xml</dc:format>
<dc:type rdf:resource="http://purl.org/dc/dcmitype/StillImage"/>
</cc:Work>
</rdf:RDF>
</metadata>
<g transform="translate(-258.32 -175.84)">
<use transform="translate(258.35,189.3)" width="33.25" height="34.450001" xlink:href="#b"/>
<use transform="matrix(1 0 0 .9615 265.3 175.86)" width="24.799999" height="21.6" xlink:href="#a"/>
</g>
<defs>
<g id="b" transform="translate(-258.35,-189.3)">
<path d="m280.55 198.3 0.15-0.15 0.2 0.15h-0.35" fill="#f99" fill-rule="evenodd"/>
<path d="m274.2 221.7h0.3l-0.3 0.05 0.3 0.05-0.3-0.05v-0.05m8-1.8 0.05-0.05v0.05h-0.05" fill="#5c4a23" fill-rule="evenodd"/>
<path d="m274.5 221.65v0.05h-0.3l0.3-0.05m7.7-1.75 0.05-0.05-0.05 0.05" fill="#9e7041" fill-rule="evenodd"/>
<path d="m274.15 221.75h0.05-0.05" fill="#0e96de" fill-rule="evenodd"/>
<path d="m281.25 190.4-0.05-0.15 0.1 0.15h-0.05" fill="#13a4f0" fill-rule="evenodd"/>
<path d="m282.2 219.9v-0.05h0.05l-0.05 0.05" fill="#0a6f94" fill-rule="evenodd"/>
<path d="m283.15 219.4 0.05-0.05q0.4-0.2 0.85-0.45l-0.9 0.5" fill="#0ea6de" fill-rule="evenodd"/>
<path d="m262.5 199.35 0.1-0.05-0.1 0.05m1.15 4.65 0.1-0.05-0.1 0.05" fill="#0d95c8" fill-rule="evenodd"/>
<path d="m282.1 196.85v0.2l-0.15-0.2h0.15" fill="#dbcc79" fill-rule="evenodd"/>
<path d="m266.35 191.4-0.2 0.1 0.2-0.1m8.15 30.4-0.3-0.05 0.3-0.05v0.1" fill="#c9a83a" fill-rule="evenodd"/>
<path d="m289.65 208.75h0.15l-0.1 0.35-0.05-0.35" fill="#b37233" fill-rule="evenodd"/>
<path d="m265.65 212 0.65 0.15h-0.65v-0.15m14.2-3.05 0.1-0.15 0.1-0.1-0.2 0.25m-5.35 12.7-0.3 0.05v0.05h-0.4l0.7-0.1m-3.4-0.1h-0.3l-0.15-0.1 0.45 0.1m11.2-1.7-0.05 0.05v-0.05h0.05m-16.5-5.55 0.05 0.1 0.05 0.45-0.1-0.45v-0.1" fill="#6a4e20" fill-rule="evenodd"/>
<path d="m289.7 209.1 0.1-0.35v0.35h-0.1" fill="#8a5f2b" fill-rule="evenodd"/>
<path d="m267.35 189.85 0.7-0.55h10.5q1.85 0.3 0.7 0.2l2 0.9 0.85 6.45h-0.15l-5.05-0.15-0.65 0.1-0.05 0.05q-3.3 0.6-6.3 2.9h-0.15l-1.95-3.05-3.35-3.85 2.9-1.9-1 0.45 1.45-1.45-0.45-0.1m9.65 2.2 0.7-2.75-0.7 2.75" fill="#e0f5ff" fill-rule="evenodd"/>
<path d="m291.25 210.85-0.45 1.8q-1.2 3.05-3.6 5.7l-0.4 0.4-1.65 1.45-2.05 1.25-0.8-1.6 4.85-5.4h0.05l2.35-2.9 0.25-2.45v-0.35q0.05 1.35 1.45 2.1m-32.9-6.4q0.75-5.95 4.85-10.3l1.25-1.3 3.35 3.85 1.95 3.05-1.35 1.15-3.05 3.4q-1.55 3.5-1.7 7.4l-1.35-0.5q-2.9-1.3-3.5-5.3l-0.15-0.15-0.3-1.3m4.15-5.1 0.1-0.05-0.1 0.05m7.4 0.4q3-2.3 6.3-2.9l0.05-0.05 0.65-0.1 5.05 0.15-1.25 1.3-0.15 0.15-2.85-0.15q-3.55 0.35-6.25 2.45l-0.3 0.3-1.25-1.15m13.25 19.65 0.9-0.5q-0.45 0.25-0.85 0.45l-0.05 0.05m-19.5-15.4 0.1-0.05-0.1 0.05" fill="#a6e2ff" fill-rule="evenodd"/>
<path d="m283.1 221.45-1 0.65-5.35 1.45-1.65 0.2-2.15-0.2-2.15-0.45-1.35-1.15-1.8-2.35 3 1.85 0.15 0.1h0.3l2.7 0.2h0.4l0.3 0.05v-0.1q6.75-0.6 7.7-1.8h0.05l0.05-0.05 0.8 1.6" fill="#5bcaff" fill-rule="evenodd"/>
<path d="m281.2 190.25 0.4 0.3 5.35 3.6 1.9 2.55 1.75 4.4 1 6.65-0.1 0.8-0.75-4.5q-0.9-2.55-2.7-3.95l-3.2-2.25-0.9-0.5-1.4-0.3h-0.45v-0.2l-0.85-6.45h0.05l-0.1-0.15m-15.1 30.75-2.9-2.4-1.65-1.95q-3.2-4.5-3.2-10.3v-1.9l0.3 1.3 0.15 0.15q0.6 4 3.5 5.3l1.35 0.5v1.1l0.65 3.7 1.8 4.5" fill="#28b9ff" fill-rule="evenodd"/>
<path d="m291.5 208.55-0.25 2.3q-1.4-0.75-1.45-2.1h-0.15q-0.65-3.7-0.5-4.15l-2.8-4.2-1.2-0.8h-0.15l-1.05-0.45-0.3-0.2-2.75-0.65-0.2-0.15 1.25-1.3 0.15 0.2h0.45l1.4 0.3 0.9 0.5 3.2 2.25q1.8 1.4 2.7 3.95l0.75 4.5m-20.7 14.55-4.4-1.8-0.3-0.3-1.8-4.5-0.65-3.7v-1.1q0.15-3.9 1.7-7.4l3.05-3.4 1.35-1.15h0.15l1.25 1.15-1.7 1.45q-3.65 3.65-3.8 9v0.8l0.15 2.15v0.1l0.1 0.45q0.25 1.7 0.95 3.2l0.8 1.55 1.8 2.35 1.35 1.15" fill="#00a4f2" fill-rule="evenodd"/>
<path d="m281.2 207.3q1.65-2.2 2.45-5.25l0.3-2.9 1.05 0.45h0.15l1.2 0.8 2.8 4.2q-0.15 0.45 0.5 4.15l0.05 0.35h0.1l-0.25 2.45-2.35 2.9h-0.05q-3.9-7.15-5.95-7.15" fill="#0088ca" fill-rule="evenodd"/>
<path d="m272.35 212.55 3.35-0.7 3.9-2.55 0.05-0.05 0.2-0.3 0.2-0.25 0.7-0.8 0.45-0.6q2.05 0 5.95 7.15l-4.85 5.4h-0.1l-4.55-1.6q-1.85-4.85-5.3-5.7" fill="#006595" fill-rule="evenodd"/>
<path d="m266.3 212.15 2.85 0.8h1.35l1.85-0.4q3.45 0.85 5.3 5.7l4.55 1.6v0.05q-0.95 1.2-7.7 1.8v-0.05l-0.7 0.1-2.7-0.2-0.45-0.1-3-1.85-0.8-1.55q-0.7-1.5-0.95-3.2l-0.05-0.45-0.05-0.1-0.15-2.15h0.65" fill="#004566" fill-rule="evenodd"/>
<path d="m267.35 189.85 0.7-0.55m10.5 0q1.85 0.3 0.7 0.2l2 0.9m-0.05-0.15 0.4 0.3 5.35 3.6 1.9 2.55 1.75 4.4 1 6.65-0.1 0.8-0.25 2.3-0.45 1.8q-1.2 3.05-3.6 5.7l-0.4 0.4-1.65 1.45-2.05 1.25-1 0.65-5.35 1.45-1.65 0.2-2.15-0.2-2.15-0.45-4.4-1.8-0.3-0.3-2.9-2.4-1.65-1.95q-3.2-4.5-3.2-10.3v-1.9q0.75-5.95 4.85-10.3l1.25-1.3 2.9-1.9-1 0.45-0.2 0.1 0.2-0.1 1.45-1.45m13.4 0.3 0.1 0.15h-0.05m-10.1 10.5 0.3-0.3q2.7-2.1 6.25-2.45l2.85 0.15m-9.4 2.6-1.7 1.45q-3.65 3.65-3.8 9v0.65l0.65 0.15 2.85 0.8h1.35l1.85-0.4 3.35-0.7 3.9-2.55 0.25-0.35 0.1-0.15 0.1-0.1 0.7-0.8 0.45-0.6q1.65-2.2 2.45-5.25l0.3-2.9-0.3-0.2-2.75-0.65h-0.35m3.4 0.85 1.05 0.45h0.15l1.2 0.8m-8.65-11.1-0.7 2.75m10.2 22.4h-0.05m-7.55-5.15 0.05-0.05 0.2-0.3 0.2-0.25m1.15-1.4q2.05 0 5.95 7.15m-19.5 5.15 1.8 2.35 1.35 1.15m-5.15-11.1v0.15l0.15 2.15v0.1l0.1 0.45q0.25 1.7 0.95 3.2l0.8 1.55" fill="none" stroke="#33444a" stroke-linecap="round" stroke-linejoin="round" stroke-opacity=".63137" stroke-width=".05"/>
</g>
<g id="a" transform="translate(.35 .35)">
<path d="m5.2 4.5 0.85-4.5 6 2 6-2 1.2 6.2 4.85 4.3-4.85 4.2-0.65 3.55-4.55-3.1-6.3 0.35 0.55-6.3-3.1-4.7" fill="#e0f5ff" fill-rule="evenodd"/>
<path d="m5.2 4.5 3.1 4.7-0.55 6.3 6.3-0.35 4.55 3.1-0.55 2.65-6-2.1-6 2.1-1.2-6.2-4.85-4.2 4.85-4.3 0.35-1.7" fill="#cef" fill-rule="evenodd"/>
<path d="m18.6 18.25 0.65-3.55 4.85-4.2-4.85-4.3-1.2-6.2-6 2-6-2-0.85 4.5m13.4 13.75-0.55 2.65-6-2.1-6 2.1-1.2-6.2-4.85-4.2 4.85-4.3 0.35-1.7" fill="none" stroke="#83c6e1" stroke-linecap="round" stroke-linejoin="round" stroke-opacity=".6902" stroke-width=".75"/>
</g>
</defs>
</svg>
