<?xml version="1.0" encoding="UTF-8"?>
<svg version="1.1" viewBox="0 0 278.92 305.54" xmlns="http://www.w3.org/2000/svg" xmlns:cc="http://creativecommons.org/ns#" xmlns:dc="http://purl.org/dc/elements/1.1/" xmlns:rdf="http://www.w3.org/1999/02/22-rdf-syntax-ns#" xmlns:xlink="http://www.w3.org/1999/xlink">
<metadata>
<rdf:RDF>
<cc:Work rdf:about="">
<dc:format>image/svg+xml</dc:format>
<dc:type rdf:resource="http://purl.org/dc/dcmitype/StillImage"/>
</cc:Work>
</rdf:RDF>
</metadata>
<g transform="translate(-165.63 -46.496)">
<use transform="matrix(1.0146 -.0352 .0319 .9198 162.16 62.463)" width="225.45" height="274.95001" xlink:href="#d"/>
<use transform="matrix(1.1113 0 0 1.1113 210.32 46.484)" width="210.8" height="274.95001" xlink:href="#b"/>
<use transform="matrix(1.1113 0 0 1.1113 194.04 118.04)" width="90" height="90" xlink:href="#a"/>
</g>
<defs>
<g id="d" transform="translate(112.7,137.8)">
<use transform="translate(-98.05,-137.8)" width="210.8" height="274.95001" xlink:href="#b"/>
<use transform="translate(-112.7,-73.4)" width="90" height="90" xlink:href="#a"/>
</g>
<g id="b" transform="translate(105,137.65)">
<use transform="translate(-105,-137.65)" width="210.8" height="274.95001" xlink:href="#g"/>
<use transform="translate(-105,-136.5)" width="210.05" height="273.04999" xlink:href="#c"/>
</g>
<g id="g" transform="translate(105,137.65)">
<path d="m-60.8 30.7 0.2-0.15-0.2 0.15m6.5 19.8v0.4l-0.25 1.35q-0.25 0.55-0.6 0.55l-0.6-0.55-0.25-1.35v-0.2l0.25-1.15q0.25-0.55 0.6-0.55t0.6 0.55q0.2 0.4 0.25 0.95l-1.7 0.2 1.7-0.2m-0.6 10.65-0.2 0.65q-0.2 0.55-0.45 0.55l-0.45-0.55-0.2-1.25 0.2-1.3q0.2-0.5 0.45-0.5l0.45 0.5 0.2 1.3v0.6l-1.3-0.6 1.3 0.6" fill="#3b4f6d" fill-rule="evenodd"/>
<path d="m49.95 108.6-4.85-1.75q2.65-4.15 4.85-8.8v10.55" fill="#403020" fill-rule="evenodd"/>
<path d="m81.15-33.6q2.35-1.3 4.3-0.6l2.05 0.95 1.35 1.05q0.6 10.6-0.9 17.2-0.75 3.35-2.05 5.65-1.65 1.7-2.95 1.9-1.4 0.1-2.5-1.35 1.65-1.45 2.8-3.75 2.05-6.95 1.85-17.25l-0.05-0.4-0.1-0.05q-2-1-4.25-0.5l0.45-2.85" fill="url(#ab)" fill-rule="evenodd"/>
<path d="m78.75 0q2.15-1.6 4.2-1.1l2.25 0.75 1.45 0.9q2.35 10.45 2 17.2-0.25 3.4-1.15 5.85-2.65 3.75-5.3 1.1 1.45-1.65 2.15-4.05 0.9-7.2-1.1-17.75-2.3-0.85-4.65 0-0.05-2.1 0.15-2.9" fill="url(#aa)" fill-rule="evenodd"/>
<path d="m-66.45 24.95q1.2-3.65-2.15-5.5-3.2-1.75-4.1 0.65l1.2-0.2q-1.4 3.95 5 4.8l0.05 0.25 0.2 2.8-0.2-2.8m5.65 5.75q-3.9 2.85-9.65-0.85-5.5-3.7-9.4-3.5-1.8 0.05-3.25 0.95l-1.15 2.65q-3.5-4.55-1.35-13.15 5.5-14.05 24.4-4.2 8.15 11.15 0.8 17.8l-0.4 0.3m-23.15-6.35q3.25-4.35 0-5.45 3.25 1.1 0 5.45" fill="url(#p)" fill-rule="evenodd"/>
<path d="m-66.5 24.7q-6.4-0.85-5-4.8 4.05-0.3 5 4.8" fill-rule="evenodd"/>
<path d="m-72.7 20.1q0.9-2.4 4.1-0.65 3.35 1.85 2.15 5.5l-0.05-0.25q-0.95-5.1-5-4.8l-1.2 0.2" fill="#3b3b3b" fill-rule="evenodd"/>
<path d="m86.5 48.45q2.45 20.25-4.1 39.05-14.75 14.45-32.45 21.1v-10.55q-2.2 4.65-4.85 8.8-16.85 25.7-53.45 28.85l-10.95 0.7q-3.45-11 0.9-22.05 28.2 10.5 64.55-29.75 27.75-9.55 40.35-36.15m-167.4 26.65h0.05q4-2.15 8.35 1.85 6.3 5.85 11.4 12.4 5.1 6.5 16.25 13.9 2.3 19.25-0.55 32.05-10.75-1.6-18.35-5.25-13.2-26.7-17.15-54.95m41.55 60.95q-1.8-13.1 1.8-28.8l10.05 4.6q2.95 13.75 1.65 24.7l-13.5-0.5m7.4-13.4q-0.5-1.05-1.25-1.05t-1.3 1.05q-0.5 1.05-0.5 2.55t0.5 2.55q0.55 1.05 1.3 1.05t1.25-1.05q0.55-1.05 0.55-2.55t-0.55-2.55" fill="url(#n)" fill-rule="evenodd"/>
<path d="m-19.3 136.4-6.55 0.15q1.3-10.95-1.65-24.7l-10.05-4.6q-3.6 15.7-1.8 28.8l-6.05-0.75q2.85-12.8 0.55-32.05-11.15-7.4-16.25-13.9-5.1-6.55-11.4-12.4-4.35-4-8.35-1.85h-0.05q-1.9 1-3.7 3.3l-0.35 0.05-0.3-3.45q7-7.25 15.4-1.25l1.05 0.8q10.7 14.3 23.6 24.4l8.25 5.8q4.4 2.85 9.05 5.25 4.05 2.1 8.3 3.85l1.2 0.5q-4.35 11.05-0.9 22.05m-12.65-13.75q0.55 1.05 0.55 2.55t-0.55 2.55q-0.5 1.05-1.25 1.05t-1.3-1.05q-0.5-1.05-0.5-2.55t0.5-2.55q0.55-1.05 1.3-1.05t1.25 1.05" fill="#545400" fill-rule="evenodd"/>
<path d="m6.2-122.65v5.1q2.5-3.3 3.5-6.6 21.3-10 42.35-12.65l11.8 1.15q2.75 30.6-24 48-7.7 4.05-1.95 9.3 7.85 13.45 20.7 15.95 14.65 4.2 32.7 1.6l-0.05 0.1q-5 3.65-5.5 6.7-2.9 10.05-4.6 20.4l-0.45 2.85-0.25 0.05-0.5 0.35q-3.6 2.35-7.55 3.95-7.65 3-17 3.3l-3.45-1.15q1.75 4 6.6 4.05 6.75-0.4 13.3-2.85 4.2-1.55 8.35-4l4.4-2.8 0.3-0.25 0.2 0.3q0.2 10.3-1.85 17.25-1.15 2.3-2.8 3.75l-1.65 1.1-0.35 0.2q-4.9 2.25-9.8 3.45-4.85 1.1-9.75 1.15-3.6 0.45-5 2.65l7.8 1.85q9.1 1.35 17.05-4.75v3.15q-0.2 0.8-0.15 2.9-9.2 8.2-23.5 10.1l-3.6-0.8q2.4 3.75 7.2 3.35 13.45-2.25 24.55-12.65 2 10.55 1.1 17.75-0.7 2.4-2.15 4.05l-1.75 1.45q-8.8 5.5-18.55 6.6-4.55 1.05-4.9 4.65 4.5-1.85 7.1-0.1 12.55 2.8 18.45-5.75 1.55 4.55 2.6 9l1.35 7.9q-12.6 26.6-40.35 36.15-36.35 40.25-64.55 29.75l-1.2-0.5q-4.25-1.75-8.3-3.85-4.65-2.4-9.05-5.25l-8.25-5.8q-12.9-10.1-23.6-24.4l-1.05-0.8q-8.4-6-15.4 1.25-3.25-2.8-0.85-5.35 2.4-2.75 6.95-3.35-9.5-9.15-0.7-39.95 3.9-0.2 9.4 3.5 5.75 3.7 9.65 0.85 16.9 12.9 29.3 15.5 2.45 2.25 12.05 3.35 18.65-2.95 31.7 11.65-2.65-9.15-13.3-12.6-8-8.15 19.4-26.95-5.3-1.55-8.8 0.4-6.4 3.45-9.65 6.95-0.7-1.65-0.15-3.8 7-8.2 17.25-8.4 0.75-4.25-4-4.4 4.5-35.95-6.4-79.6 7.8-1.15 8.2-8.15-20.05 6.1-27.5 0.95-7.5-5.2-10.9-10.05-28.95-6.8-43.8-26.7 15.65-10.75 37.2-2.45 8.55 4.75 12.8 4.4l23.6-13.45m21.9 148.95q-5.45-3.45-9.75-4.65 4.3 1.2 9.75 4.65m37.15-56.2q-2.4 0-2.4 1.5l0.15 0.8q0.45 0.75 2.25 0.75 2.4 0 2.4-1.55 0.15-1.5-2.4-1.5m9.65-14.25q-0.6-4.75-3.05-4.75-1.8 0-1.8 1.5l-0.3 2.4 3.6 3.3q1.55 0 1.55-2.45m-17.1 32.75q1.25 1.75 2.25 1.75 1.6 0 1.6-1.45-0.9-3.65-3.4-3.65-1.5 0-1.5 1.55 0 0.35 1.05 1.8m21.05-7.95-0.75-0.75q-0.6-0.1-1.1 0.55-0.45 0.7-0.6 1.7-0.2 1 0.05 1.75t0.8 0.8 1.05-0.65q0.5-0.65 0.65-1.6 0.15-1-0.1-1.8m-0.85 33q-0.55 0-0.95 0.7-0.35 0.75-0.35 1.75t0.35 1.7q0.4 0.75 0.95 0.75t0.9-0.75q0.4-0.7 0.4-1.7t-0.4-1.75q-0.35-0.7-0.9-0.7m-3.75 31.35q-3 0-3 3.2 0 0.75 0.9 2.25 1.2 2.1 3 2.1 3.05 0 3.05-3.05-1.25-4.5-3.95-4.5m-15 0.35q-0.15 1.4 0.2 2.95l-2.1 6.35q0 0.8 0.45 1.65 0.8 1.45 2.55 1.45 3.7 0 5.2-9.8 0.1-5.35-3.3-5.35-2.7 0-3 2.75m-20.8 36.4q0.35 0.75 1.35 0.75 1.8 0 2.8-3.45-0.15-1.75-1.7-1.75-0.7 0-1.7 1.6-0.9 1.5-0.9 2.05 0 0.5 0.15 0.8m-25.9-19.45-0.3-1.1 0.3 1.1m45.1 6.7q0.55-2.85-1.65-2.85l-4.4 3.6 0.6 1.7q0.75 1.6 1.55 1.6 3.9 0 3.9-4.05m9.7-15.55q-2.05 0-3 3-0.6 1.9-0.6 3.7 0 0.8 0.45 1.6 0.75 1.4 2.55 1.4 3.6 0 3.6-5.65 0.35-4.05-3-4.05m7.55 6.6q1.8 0 1.8-2.2 0.35-2-1.5-2t-1.85 2.75l0.15 0.75q0.35 0.7 1.4 0.7m-21.65-58.85q0.2-0.8 0.65-1.45-0.45 0.65-0.65 1.45m-112.4 46.95q-0.35-0.75-1.3-0.75-1.5 0-1.5 1.55-0.1 1.5 1.5 1.5 1.5 0 1.5-1.5l-0.2-0.8m9.6 9.85-0.2-0.8q-0.4-0.75-1.3-0.75-1.5 0-1.5 1.55-0.1 1.55 1.5 1.55 1.5 0 1.5-1.55m-4.75-7.5q-0.05-0.55-0.25-0.95-0.25-0.55-0.6-0.55t-0.6 0.55l-0.25 1.15v0.2l0.25 1.35 0.6 0.55q0.35 0 0.6-0.55l0.25-1.35v-0.4l13.75-1.7-13.75 1.7m-5.25 9.3-0.2-0.75q-0.35-0.7-1.3-0.7-1.5 0-1.5 1.45-0.1 1.55 1.5 1.55 1.5 0 1.5-1.55m4.65 1.35v-0.6l-0.2-1.3-0.45-0.5q-0.25 0-0.45 0.5l-0.2 1.3 0.2 1.25 0.45 0.55q0.25 0 0.45-0.55l0.2-0.65 18.15 8.3-18.15-8.3m-7.35 10.4q-1.5 0-1.5 1.55-0.05 1.5 1.5 1.5 1.5 0 1.5-1.5l-0.2-0.8q-0.4-0.75-1.3-0.75m-9.35-6.6q-3.6 0-3.6 1.9 0 1.7 1.5 1.7 3.95 0 3.95-2.1 0-1.5-1.85-1.5m3.95-11.55q-1.5 0-1.5 1.55-0.15 1.5 1.5 1.5 1.5 0 1.5-1.5l-0.2-0.8q-0.4-0.75-1.3-0.75m14.2 15.15q0-1.5-1.5-1.5t-1.5 1.5q-0.1 1.5 1.5 1.5 1.5 0 1.5-1.5m11.4 26.7q-0.8-1.35-2.05-1.35-1.5 0-1.5 1.65 0.6 2.6 2.65 2.6 1.5 0 1.5-1.45l-0.6-1.45m-3.05-10.9-0.1-0.15q-1.25-2-3.7-2-2.55 0-2.55 4-0.95 4.25 2.95 4.65l2.25 1.1 3.25 1q1.55 0.45 2.15 1.1l1.05 1.6 0.5 0.55q0.1 1.05 1.8 1.05 1.45 0 2.35-2.9 0.65-2.05 0.65-3.35t-2.55-3.65q-1.25-1.1-4.9-2.2l-3.15-0.8m29.9-11.9q0.65-1.15-0.15-2.7-0.85-1.55-2.65-2.55-1.85-1.1-3.55-1.05-1.75 0.1-2.4 1.25-0.7 1.1 0.2 2.6 0.75 1.55 2.6 2.65 1.8 1 3.55 0.95 1.7-0.05 2.4-1.15m-17.95 20.85q0 1.2 2.4 2.1 0.3 0.35-0.05 1.6 0 1.1 1.85 1.1 1.8 0 1.8-2.25 0-1.1-0.65-2.25-0.95-1.8-2.95-1.8-2.4 0-2.4 1.5m-6.6-3.6v-0.25l0.5 0.15-0.5 0.1m12.4-3.3q1.7-1.7 1.7-2.75-0.05-0.85-0.45-1.6-0.75-1.45-2.55-1.45-1.65 0-3.45 1.8-1.65 1.65-1.65 2.8 0.15 3 3 3 1.55 0 3.4-1.8m2.3 22.05q1.5 0 1.5-1.5 0-0.9-1.35-1.15-2.1-0.4-3.6-1.4-4.75-3.55-5.15-3.55-1.65 0-1.65 1.55 5.6 6.05 10.25 6.05" fill="url(#m)" fill-rule="evenodd"/>
<path d="m103.25-40.3 0.55 1.1q2.7 6-0.5 11.85-1.2 2.1-3.1 4.15l-12.25 8.2q1.5-6.6 0.9-17.2l-1.35-1.05q1.55-1.4 3.25-2.5 4.05-2.75 8.7-3.9l3.8-0.65" fill="url(#l)" fill-rule="evenodd"/>
<path d="m99.55-9 0.75 1.05q3.65 5.75 1.45 11.85-0.85 2.2-2.4 4.45l-10.7 9.4q0.35-6.75-2-17.2l-1.45-0.9 2.75-2.8q3.55-3.2 7.95-4.8l3.65-1.05" fill="url(#k)" fill-rule="evenodd"/>
<path d="m78.85-19.35q0.25 0.8 0.1 1.8-0.15 0.95-0.65 1.6-0.5 0.7-1.05 0.65t-0.8-0.8-0.05-1.75q0.15-1 0.6-1.7 0.5-0.65 1.1-0.55l0.75 0.75m-0.85 33q0.55 0 0.9 0.7 0.4 0.75 0.4 1.75t-0.4 1.7q-0.35 0.75-0.9 0.75t-0.95-0.75q-0.35-0.7-0.35-1.7t0.35-1.75q0.4-0.7 0.95-0.7" fill="#184b4b" fill-rule="evenodd"/>
<path d="m-67.4-111.15q-3.95-5.3-6.9-11.45 14.55-9.8 47.6 5.5 9 4.8 14.75 0 8.65-6.35 18.15-10.65v5.1l-23.6 13.45q-4.25 0.35-12.8-4.4-21.55-8.3-37.2 2.45" fill="url(#j)" fill-rule="evenodd"/>
<path d="m9.7-124.15q0.8-2.7 0.65-5.35 20.05-8.2 41.7-7.3-21.05 2.65-42.35 12.65" fill="url(#i)" fill-rule="evenodd"/>
<path d="m37.9-78.35q3 2.75 9.85 5.9 19.65 8.95 33 6.4 13.1-2.55 10.6 5.1l-0.05 0.15q-18.05 2.6-32.7-1.6-12.85-2.5-20.7-15.95" fill="url(#h)" fill-rule="evenodd"/>
<path d="m14.8-75.35q-0.4 7-8.2 8.15 10.9 43.65 6.4 79.6 4.75 0.15 4 4.4-10.25 0.2-17.25 8.4 0.65-2.8 3.25-6.35 3.35-40.4-21.3-91.55-7.4-5.85-5.3-11.75 3.4 4.85 10.9 10.05 7.45 5.15 27.5-0.95" fill="url(#z)" fill-rule="evenodd"/>
<path d="m-0.1 29q3.25-3.5 9.65-6.95 3.5-1.95 8.8-0.4-27.4 18.8-19.4 26.95-9.1-3-23.95-1.85 10.5-2.75 17.65-10.55 3.45-4 7.25-7.2" fill="url(#y)" fill-rule="evenodd"/>
<path d="m-25 46.75q14.85-1.15 23.95 1.85 10.65 3.45 13.3 12.6-13.05-14.6-31.7-11.65-9.6-1.1-12.05-3.35l3.15 0.5 3.35 0.05" fill="url(#x)" fill-rule="evenodd"/>
<path d="m-79.85 26.35q-8.8 30.8 0.7 39.95-4.55 0.6-6.95 3.35-2.4 2.55 0.85 5.35l0.8 9.2q-5.7-10.85-5.65-24.45 0-5 0.8-10.4 1.4-9.15 5.05-19.4l1.15-2.65q1.45-0.9 3.25-0.95" fill="url(#w)" fill-rule="evenodd"/>
<path d="m85.45-34.2q1.9-2.35 5.75-4.4l3.35-1.55 1.25-0.5 7.45 0.35-3.8 0.65q-4.65 1.15-8.7 3.9-1.7 1.1-3.25 2.5l-2.05-0.95" fill="url(#v)" fill-rule="evenodd"/>
<path d="m84.9-30.1-0.3 0.25-4.4 2.8q-4.15 2.45-8.35 4-6.55 2.45-13.3 2.85-4.85-0.05-6.6-4.05l3.45 1.15q9.35-0.3 17-3.3 3.95-1.6 7.55-3.95l0.5-0.35 0.25-0.05q2.25-0.5 4.25 0.5l-0.05 0.15" fill="url(#u)" fill-rule="evenodd"/>
<path d="m83.25 2.9q-11.1 10.4-24.55 12.65-4.8 0.4-7.2-3.35l3.6 0.8q14.3-1.9 23.5-10.1 2.35-0.85 4.65 0" fill="url(#t)" fill-rule="evenodd"/>
<path d="m82.95-1.1q1.55-2.55 5-4.95l3.05-1.9 1.15-0.65 7.4-0.4-3.65 1.05q-4.4 1.6-7.95 4.8l-2.75 2.8-2.25-0.75" fill="url(#s)" fill-rule="evenodd"/>
<path d="m-80.9 75.1q3.95 28.25 17.15 54.95l-5.1-2.9q-10.25-16-15.6-42.95l-0.5-5.75 0.35-0.05q1.8-2.3 3.7-3.3" fill="#bbbaa4" fill-rule="evenodd"/>
<path d="m78.75-6.95v3.8q-7.95 6.1-17.05 4.75l-7.8-1.85q1.4-2.2 5-2.65 4.9-0.05 9.75-1.15 4.9-1.2 9.8-3.45l0.3 0.55m1.7 33.1q0.4-0.05 0.65 1.55l1.45 3.85q-5.9 8.55-18.45 5.75-2.6-1.75-7.1 0.1 0.35-3.6 4.9-4.65 9.75-1.1 18.55-6.6m-5.55-70.3q0 2.45-1.55 2.45l-3.6-3.3 0.3-2.4q0-1.5 1.8-1.5 2.45 0 3.05 4.75m-9.65 14.25q2.55 0 2.4 1.5 0 1.55-2.4 1.55-1.8 0-2.25-0.75l-0.15-0.8q0-1.5 2.4-1.5m-7.45 18.5q-1.05-1.45-1.05-1.8 0-1.55 1.5-1.55 2.5 0 3.4 3.65 0 1.45-1.6 1.45-1 0-2.25-1.75m1.45 56.75q0.3-2.75 3-2.75 3.4 0 3.3 5.35-1.5 9.8-5.2 9.8-1.75 0-2.55-1.45-0.45-0.85-0.45-1.65l2.1-6.35q-0.35-1.55-0.2-2.95m15-0.35q2.7 0 3.95 4.5 0 3.05-3.05 3.05-1.8 0-3-2.1-0.9-1.5-0.9-2.25 0-3.2 3-3.2m-35.8 36.75q-0.15-0.3-0.15-0.8 0-0.55 0.9-2.05 1-1.6 1.7-1.6 1.55 0 1.7 1.75-1 3.45-2.8 3.45-1 0-1.35-0.75m36.45-21.7q-1.05 0-1.4-0.7l-0.15-0.75q0-2.75 1.85-2.75t1.5 2q0 2.2-1.8 2.2m-7.55-6.6q3.35 0 3 4.05 0 5.65-3.6 5.65-1.8 0-2.55-1.4-0.45-0.8-0.45-1.6 0-1.8 0.6-3.7 0.95-3 3-3m-9.7 15.55q0 4.05-3.9 4.05-0.8 0-1.55-1.6l-0.6-1.7 4.4-3.6q2.2 0 1.65 2.85m-116.8-20.85 0.2 0.8q0 1.5-1.5 1.5-1.6 0-1.5-1.5 0-1.55 1.5-1.55 0.95 0 1.3 0.75m9.6 9.85q0 1.55-1.5 1.55-1.6 0-1.5-1.55 0-1.55 1.5-1.55 0.9 0 1.3 0.75l0.2 0.8m-10 1.8q0 1.55-1.5 1.55-1.6 0-1.5-1.55 0-1.45 1.5-1.45 0.95 0 1.3 0.7l0.2 0.75m6.1 8.75q0 1.5-1.5 1.5-1.6 0-1.5-1.5 0-1.5 1.5-1.5t1.5 1.5m-14.2-15.15q0.9 0 1.3 0.75l0.2 0.8q0 1.5-1.5 1.5-1.65 0-1.5-1.5 0-1.55 1.5-1.55m-3.95 11.55q1.85 0 1.85 1.5 0 2.1-3.95 2.1-1.5 0-1.5-1.7 0-1.9 3.6-1.9m9.35 6.6q0.9 0 1.3 0.75l0.2 0.8q0 1.5-1.5 1.5-1.55 0-1.5-1.5 0-1.55 1.5-1.55m17.15 12.8 3.15 0.8q3.65 1.1 4.9 2.2 2.55 2.35 2.55 3.65t-0.65 3.35q-0.9 2.9-2.35 2.9-1.7 0-1.8-1.05l-0.5-0.55-1.05-1.6q-0.6-0.65-2.15-1.1l-3.25-1-2.25-1.1q-3.9-0.4-2.95-4.65 0-4 2.55-4 2.45 0 3.7 2l0.1 0.15m3.05 10.9 0.6 1.45q0 1.45-1.5 1.45-2.05 0-2.65-2.6 0-1.65 1.5-1.65 1.25 0 2.05 1.35m14.7-8.85q-1.85 1.8-3.4 1.8-2.85 0-3-3 0-1.15 1.65-2.8 1.8-1.8 3.45-1.8 1.8 0 2.55 1.45 0.4 0.75 0.45 1.6 0 1.05-1.7 2.75m-12.4 3.3 0.5-0.1-0.5-0.15v0.25m6.6 3.6q0-1.5 2.4-1.5 2 0 2.95 1.8 0.65 1.15 0.65 2.25 0 2.25-1.8 2.25-1.85 0-1.85-1.1 0.35-1.25 0.05-1.6-2.4-0.9-2.4-2.1m8.1 15.15q-4.65 0-10.25-6.05 0-1.55 1.65-1.55 0.4 0 5.15 3.55 1.5 1 3.6 1.4 1.35 0.25 1.35 1.15 0 1.5-1.5 1.5" fill="#204965" fill-rule="evenodd"/>
<path d="m-15.2 72.45q-0.7 1.1-2.4 1.15-1.75 0.05-3.55-0.95-1.85-1.1-2.6-2.65-0.9-1.5-0.2-2.6 0.65-1.15 2.4-1.25 1.7-0.05 3.55 1.05 1.8 1 2.65 2.55 0.8 1.55 0.15 2.7" fill="#132d3e" fill-rule="evenodd"/>
<path d="m14.8-75.35q-20.05 6.1-27.5 0.95-7.5-5.2-10.9-10.05m23.5 113.45q3.25-3.5 9.65-6.95 3.5-1.95 8.8-0.4 4.3 1.2 9.75 4.65m52.6-57.05 0.45-2.85m-68.9 94.8 0.3 1.1m37.4 46.3v-10.55q-2.2 4.65-4.85 8.8m-63.5 7.5q28.2 10.5 64.55-29.75 27.75-9.55 40.35-36.15m-111.5-1.7q14.85-1.15 23.95 1.85m13.3 12.6q-2.65-9.15-13.3-12.6m-65.4-23.65 0.2 2.8m-5.25-7.85-1.2 0.2m6.2 4.6q-6.4-0.85-5-4.8 4.05-0.3 5 4.8l0.05 0.25m-18.8 50.05q7-7.25 15.4-1.25l1.05 0.8q10.7 14.3 23.6 24.4l8.25 5.8q4.4 2.85 9.05 5.25 4.05 2.1 8.3 3.85l1.2 0.5m-65.85-84.4 1.15-2.65m22.3 3.4 0.2-0.15m6.3 19.95v0.4l-0.25 1.35q-0.25 0.55-0.6 0.55l-0.6-0.55-0.25-1.35v-0.2l0.25-1.15q0.25-0.55 0.6-0.55t0.6 0.55q0.2 0.4 0.25 0.95l13.75-1.7m-14.35 12.35-0.2 0.65q-0.2 0.55-0.45 0.55l-0.45-0.55-0.2-1.25 0.2-1.3q0.2-0.5 0.45-0.5l0.45 0.5 0.2 1.3v0.6l18.15 8.3m-19.25-18.75 1.7-0.2m-1.9 10.05 1.3 0.6m-29.05-42.25q3.25 1.1 0 5.45m-0.5 59.85-0.8-9.2m-4.05-25.65-11.05-4.3m10.25 14.7-14.9 3.8" fill="none" stroke="#000" stroke-linecap="round" stroke-linejoin="round" stroke-opacity=".56863" stroke-width=".05"/>
<path d="m78.8-7.7-0.05 0.75m1.7 33.1q0.4-0.05 0.65 1.55m3.8-57.8-0.3 0.25-4.4 2.8q-4.15 2.45-8.35 4-6.55 2.45-13.3 2.85-4.85-0.05-6.6-4.05l3.45 1.15q9.35-0.3 17-3.3 3.95-1.6 7.55-3.95l0.5-0.35 0.25-0.05m-2.25 23.25q-4.9 2.25-9.8 3.45-4.85 1.1-9.75 1.15-3.6 0.45-5 2.65-0.45 0.65-0.65 1.45m25.6-20.55q0.25 0.8 0.1 1.8-0.15 0.95-0.65 1.6-0.5 0.7-1.05 0.65t-0.8-0.8-0.05-1.75q0.15-1 0.6-1.7 0.5-0.65 1.1-0.55l0.75 0.75m-0.05 11.65-0.35 0.2 0.3 0.55m8.75-26.3 1.35 1.05q0.6 10.6-0.9 17.2m-0.45-18.25q1.55-1.4 3.25-2.5 4.05-2.75 8.7-3.9l3.8-0.65m-18.3 10.05q-2-1-4.25-0.5m4.4 0.95-0.05-0.4-0.15 0.1m0.15-0.1-0.1-0.05m0.5-3.95 2.05 0.95m-4.55 32.15 2.25 0.75 2.75-2.8q3.55-3.2 7.95-4.8l3.65-1.05m-19.1 0.2q1.65-1.45 2.8-3.75 2.05-6.95 1.85-17.25m-1.85 32.7q2 10.55 1.1 17.75-0.7 2.4-2.15 4.05m3-25.05 1.45 0.9q2.35 10.45 2 17.2m-10.05-14.85q-0.05-2.1 0.15-2.9m-0.75 13.65q0.55 0 0.9 0.7 0.4 0.75 0.4 1.75t-0.4 1.7q-0.35 0.75-0.9 0.75t-0.95-0.75q-0.35-0.7-0.35-1.7t0.35-1.75q0.4-0.7 0.95-0.7m0.6-10.75q-9.2 8.2-23.5 10.1l-3.6-0.8q2.4 3.75 7.2 3.35 13.45-2.25 24.55-12.65-2.3-0.85-4.65 0m1.85 23.25q-8.8 5.5-18.55 6.6-4.55 1.05-4.9 4.65" fill="none" stroke="#000" stroke-linecap="round" stroke-linejoin="round" stroke-opacity=".56863" stroke-width=".05"/>
<path d="m-25.85 136.55 0.05 0.65m-19.6-1.9v0.7" fill="none" stroke="#a8a8a8" stroke-linecap="round" stroke-linejoin="round" stroke-width=".05"/>
<path d="m-67.4-111.15q-3.95-5.3-6.9-11.45 14.55-9.8 47.6 5.5 9 4.8 14.75 0 8.65-6.35 18.15-10.65v10.2q2.5-3.3 3.5-6.6 0.8-2.7 0.65-5.35 20.05-8.2 41.7-7.3l11.8 1.15q2.75 30.6-24 48-7.7 4.05-1.95 9.3 3 2.75 9.85 5.9 19.65 8.95 33 6.4 13.1-2.55 10.6 5.1m-0.05 0.15-0.05 0.1q-5 3.65-5.5 6.7-2.9 10.05-4.6 20.4m4 74.15 1.35 7.9q2.45 20.25-4.1 39.05-14.75 14.45-32.45 21.1l-4.85-1.75q-16.85 25.7-53.45 28.85l-10.95 0.7-6.55 0.15-13.5-0.5m15.75-220.5q-2.1 5.9 5.3 11.75m21.3 91.55q-2.6 3.55-3.25 6.35-0.55 2.15 0.15 3.8-3.8 3.2-7.25 7.2-7.15 7.8-17.65 10.55l-3.35-0.05-3.15-0.5q-12.4-2.6-29.3-15.5m37.2-115.15q-28.95-6.8-43.8-26.7m6.2 123.75q-18.9-9.85-24.4 4.2-2.15 8.6 1.35 13.15-3.65 10.25-5.05 19.4-0.8 5.4-0.8 10.4-0.05 13.6 5.65 24.45m20.7 45.85q7.6 3.65 18.35 5.25l6.05 0.75m-24.4-6-5.1-2.9q-10.25-16-15.6-42.95" fill="none" stroke="#000" stroke-linecap="round" stroke-linejoin="round" stroke-opacity=".56863" stroke-width="1.5"/>
<path d="m81.15-33.6q2.35-1.3 4.3-0.6 1.9-2.35 5.75-4.4l3.35-1.55 1.25-0.5 7.45 0.35 0.55 1.1q2.7 6-0.5 11.85-1.2 2.1-3.1 4.15l-12.25 8.2q-0.75 3.35-2.05 5.65-1.65 1.7-2.95 1.9-1.4 0.1-2.5-1.35l-1.65 1.1m-0.05 0.75v6.95q2.15-1.6 4.2-1.1 1.55-2.55 5-4.95l3.05-1.9 1.15-0.65 7.4-0.4 0.75 1.05q3.65 5.75 1.45 11.85-0.85 2.2-2.4 4.45l-10.7 9.4q-0.25 3.4-1.15 5.85-2.65 3.75-5.3 1.1l-1.75 1.45m0.65 1.55 1.45 3.85q1.55 4.55 2.6 9m-103.45-113.25q24.65 51.15 21.3 91.55" fill="none" stroke="#000" stroke-linecap="round" stroke-linejoin="round" stroke-opacity=".56863" stroke-width="1.5"/>
<path d="m-60.6 30.55 0.2-0.15" fill="none" stroke="#000" stroke-linecap="round" stroke-linejoin="round" stroke-opacity=".36863" stroke-width="1.5"/>
<path d="m-60.4 30.4q7.35-6.65-0.8-17.8" fill="none" stroke="#000" stroke-linecap="round" stroke-linejoin="round" stroke-opacity=".36863" stroke-width="1.5"/>
</g>
<linearGradient id="ab" x1="-819.2" x2="819.2" gradientTransform="matrix(.0028 .0104 -.0083 .0022 83.8 -23.85)" gradientUnits="userSpaceOnUse">
<stop stop-color="#a2a2a2" offset=".015686"/>
<stop stop-color="#d3d3d3" offset=".4"/>
<stop stop-color="#727272" offset=".80392"/>
<stop stop-color="#434343" offset="1"/>
</linearGradient>
<linearGradient id="aa" x1="-819.2" x2="819.2" gradientTransform="matrix(.0033 .0123 -.0062 .0016 84.1 11.35)" gradientUnits="userSpaceOnUse">
<stop stop-color="#a2a2a2" offset=".015686"/>
<stop stop-color="#d3d3d3" offset=".4"/>
<stop stop-color="#727272" offset=".80392"/>
<stop stop-color="#434343" offset="1"/>
</linearGradient>
<radialGradient id="p" cx="0" cy="0" r="819.2" gradientTransform="matrix(.0307 0 0 .0307 -80.85 17.2)" gradientUnits="userSpaceOnUse">
<stop stop-color="#a5a5a5" offset="0"/>
<stop offset=".46275"/>
</radialGradient>
<linearGradient id="n" x1="-819.2" x2="819.2" gradientTransform="matrix(.0822 .0025 -.0017 .0559 10.3 91.9)" gradientUnits="userSpaceOnUse">
<stop stop-color="#a8a87e" offset="0"/>
<stop stop-color="#6c6c35" offset="1"/>
</linearGradient>
<linearGradient id="m" x1="-819.2" x2="819.2" gradientTransform="matrix(-.0117 .1069 -.1083 -.0119 2.9 -7.7)" gradientUnits="userSpaceOnUse">
<stop stop-color="#2a7e7e" offset="0"/>
<stop stop-color="#275e81" offset="1"/>
</linearGradient>
<linearGradient id="l" x1="-819.2" x2="819.2" gradientTransform="matrix(-.0049 .0084 -.0088 -.0051 93.85 -27.55)" gradientUnits="userSpaceOnUse">
<stop stop-color="#2a7e7e" offset="0"/>
<stop stop-color="#275e81" offset="1"/>
</linearGradient>
<linearGradient id="k" x1="-819.2" x2="819.2" gradientTransform="matrix(-.005 .0088 -.0088 -.0051 90.8 6.7)" gradientUnits="userSpaceOnUse">
<stop stop-color="#2a7e7e" offset="0"/>
<stop stop-color="#275e81" offset="1"/>
</linearGradient>
<linearGradient id="j" x1="-819.2" x2="819.2" gradientTransform="matrix(.0559 -.0039 9e-4 .0124 -15.45 -119.5)" gradientUnits="userSpaceOnUse">
<stop stop-color="#44a3a3" offset="0"/>
<stop stop-color="#6695b2" offset="1"/>
</linearGradient>
<linearGradient id="i" x1="-819.2" x2="819.2" gradientTransform="matrix(.0148 -.004 9e-4 .0034 25.25 -131.35)" gradientUnits="userSpaceOnUse">
<stop stop-color="#44a3a3" offset="0"/>
<stop stop-color="#6695b2" offset="1"/>
</linearGradient>
<linearGradient id="h" x1="-819.2" x2="819.2" gradientTransform="matrix(.0171 .0045 -.0018 .0069 61.75 -67.55)" gradientUnits="userSpaceOnUse">
<stop stop-color="#44a3a3" offset="0"/>
<stop stop-color="#6695b2" offset="1"/>
</linearGradient>
<linearGradient id="z" x1="-819.2" x2="819.2" gradientTransform="matrix(.002 .0234 -.0232 .0019 -1.9 -46)" gradientUnits="userSpaceOnUse">
<stop stop-color="#44a3a3" offset="0"/>
<stop stop-color="#6695b2" offset="1"/>
</linearGradient>
<linearGradient id="y" x1="-819.2" x2="819.2" gradientTransform="matrix(-.0114 .0114 -.0079 -.0079 -1.95 36.55)" gradientUnits="userSpaceOnUse">
<stop stop-color="#44a3a3" offset="0"/>
<stop stop-color="#6695b2" offset="1"/>
</linearGradient>
<linearGradient id="x" x1="-819.2" x2="819.2" gradientTransform="matrix(-.0044 -.0012 .0014 -.0052 -9.7 50.8)" gradientUnits="userSpaceOnUse">
<stop stop-color="#44a3a3" offset="0"/>
<stop stop-color="#6695b2" offset="1"/>
</linearGradient>
<linearGradient id="w" x1="-819.2" x2="819.2" gradientTransform="matrix(0 .0109 -.0067 0 -84.6 47.3)" gradientUnits="userSpaceOnUse">
<stop stop-color="#44a3a3" offset="0"/>
<stop stop-color="#6695b2" offset="1"/>
</linearGradient>
<linearGradient id="v" x1="-819.2" x2="819.2" gradientTransform="matrix(.0092 -.0053 .0014 .0024 95.1 -38.25)" gradientUnits="userSpaceOnUse">
<stop stop-color="#44a3a3" offset="0"/>
<stop stop-color="#6695b2" offset="1"/>
</linearGradient>
<linearGradient id="u" x1="-819.2" x2="819.2" gradientTransform="matrix(.0081 -.0022 .001 .0038 73.25 -26.5)" gradientUnits="userSpaceOnUse">
<stop stop-color="#44a3a3" offset="0"/>
<stop stop-color="#6695b2" offset="1"/>
</linearGradient>
<linearGradient id="t" x1="-819.2" x2="819.2" gradientTransform="matrix(.0075 -.0043 .0028 .0049 70.95 6.35)" gradientUnits="userSpaceOnUse">
<stop stop-color="#44a3a3" offset="0"/>
<stop stop-color="#6695b2" offset="1"/>
</linearGradient>
<linearGradient id="s" x1="-819.2" x2="819.2" gradientTransform="matrix(.0143 -.0083 .0011 .0019 97.6 -9.7)" gradientUnits="userSpaceOnUse">
<stop stop-color="#44a3a3" offset="0"/>
<stop stop-color="#6695b2" offset="1"/>
</linearGradient>
<g id="c" transform="translate(105,136.5)">
<use transform="translate(-105,-136.5)" width="210.05" height="273.04999" xlink:href="#f"/>
</g>
<g id="f" transform="translate(105,136.5)">
<path d="m81.15-33.6q2.35-1.3 4.3-0.6 1.9-2.35 5.75-4.4l3.35-1.55 1.25-0.5 7.45 0.35 0.55 1.1q2.7 6-0.5 11.85-1.2 2.1-3.1 4.15l-12.25 8.2q-0.75 3.35-2.05 5.65-1.65 1.7-2.95 1.9-1.4 0.1-2.5-1.35 1.65-1.45 2.8-3.75 2.05-6.95 1.85-17.25l-0.05-0.4-0.1-0.05-0.05 0.15-0.3 0.25-4.4 2.8q-4.15 2.45-8.35 4-6.55 2.45-13.3 2.85-4.85-0.05-6.6-4.05l3.45 1.15q9.35-0.3 17-3.3 3.95-1.6 7.55-3.95l0.5-0.35 0.25-0.05 0.45-2.85m-2.4 33.6q2.15-1.6 4.2-1.1 1.55-2.55 5-4.95l3.05-1.9 1.15-0.65 7.4-0.4 0.75 1.05q3.65 5.75 1.45 11.85-0.85 2.2-2.4 4.45l-10.7 9.4q-0.25 3.4-1.15 5.85-2.65 3.75-5.3 1.1 1.45-1.65 2.15-4.05 0.9-7.2-1.1-17.75-11.1 10.4-24.55 12.65-4.8 0.4-7.2-3.35l3.6 0.8q14.3-1.9 23.5-10.1-0.05-2.1 0.15-2.9m7.75 48.45q2.45 20.25-4.1 39.05-14.75 14.45-32.45 21.1l-4.85-1.75q-16.85 25.7-53.45 28.85-42.5 3.65-60.5-8.55-10.25-16-15.6-42.95l-0.8-9.2q7.45-7.75 16.45-0.45 20.5 27.45 49.2 39.3 28.65 11.85 65.75-29.25 27.75-9.55 40.35-36.15m-8.4-68.55 0.75 0.75q0.25 0.8 0.1 1.8-0.15 0.95-0.65 1.6-0.5 0.7-1.05 0.65t-0.8-0.8-0.05-1.75q0.15-1 0.6-1.7 0.5-0.65 1.1-0.55m9.85 5.1q1.5-6.6 0.9-17.2l-1.35-1.05q1.55-1.4 3.25-2.5 4.05-2.75 8.7-3.9l3.8-0.65-3.8 0.65q-4.65 1.15-8.7 3.9-1.7 1.1-3.25 2.5l1.35 1.05q0.6 10.6-0.9 17.2m-7.25-15.75q2.25-0.5 4.25 0.5-2-1-4.25-0.5m18.85 21.75-3.65 1.05q-4.4 1.6-7.95 4.8l-2.75 2.8-2.25-0.75 2.25 0.75 2.75-2.8q3.55-3.2 7.95-4.8l3.65-1.05m-12.05-24.25-2.05-0.95 2.05 0.95m-154 57.95q-6.4-0.85-5-4.8 4.05-0.3 5 4.8m12.2 25.8v0.4l-0.25 1.35q-0.25 0.55-0.6 0.55l-0.6-0.55-0.25-1.35v-0.2l0.25-1.15q0.25-0.55 0.6-0.55t0.6 0.55q0.2 0.4 0.25 0.95l-1.7 0.2 1.7-0.2m-0.6 10.65-0.2 0.65q-0.2 0.55-0.45 0.55l-0.45-0.55-0.2-1.25 0.2-1.3q0.2-0.5 0.45-0.5l0.45 0.5 0.2 1.3v0.6l-1.3-0.6 1.3 0.6m37.3 12.45q-1.75 0.05-3.55-0.95-1.85-1.1-2.6-2.65-0.9-1.5-0.2-2.6 0.65-1.15 2.4-1.25 1.7-0.05 3.55 1.05 1.8 1 2.65 2.55 0.8 1.55 0.15 2.7-0.7 1.1-2.4 1.15m106.25-55.85q0.35-6.75-2-17.2l-1.45-0.9 1.45 0.9q2.35 10.45 2 17.2m-9.75-3.4q0.4 0.75 0.4 1.75t-0.4 1.7q-0.35 0.75-0.9 0.75t-0.95-0.75q-0.35-0.7-0.35-1.7t0.35-1.75q0.4-0.7 0.95-0.7t0.9 0.7m-33.8 92.5q2.65-4.15 4.85-8.8v10.55-10.55q-2.2 4.65-4.85 8.8m33.5-103.95q2.35-0.85 4.65 0-2.3-0.85-4.65 0" fill="url(#r)" fill-rule="evenodd"/>
<path d="m-18.3-72.7q-7.4-5.85-5.3-11.75-36.6-8.6-50.7-38.15 14.55-9.8 47.6 5.5 9 4.8 14.75 0 8.65-6.35 18.15-10.65v10.2q4.5-5.95 4.15-11.95 24.1-9.5 53.5-6.15 2.75 30.6-24 48-11.8 6.2 7.9 15.2 19.65 8.95 33 6.4 13.35-2.6 10.5 5.35-5 3.65-5.5 6.7-2.9 10.05-4.6 20.4l-0.45 2.85-0.25 0.05-0.5 0.35q-3.6 2.35-7.55 3.95-7.65 3-17 3.3l-3.45-1.15q1.75 4 6.6 4.05 6.75-0.4 13.3-2.85 4.2-1.55 8.35-4l4.4-2.8 0.3-0.25 0.2 0.3q0.2 10.3-1.85 17.25-1.15 2.3-2.8 3.75l-1.65 1.1-0.35 0.2 0.3 0.55v6.95q-0.2 0.8-0.15 2.9-9.2 8.2-23.5 10.1l-3.6-0.8q2.4 3.75 7.2 3.35 13.45-2.25 24.55-12.65 2 10.55 1.1 17.75-0.7 2.4-2.15 4.05l-1.75 1.45q0.4-0.05 0.65 1.55 2.6 6.5 4.05 12.85l1.35 7.9q-12.6 26.6-40.35 36.15-37.1 41.1-65.75 29.25-28.7-11.85-49.2-39.3-9-7.3-16.45 0.45l0.8 9.2q-5.7-10.85-5.65-24.45 0-5 0.8-10.4 1.4-9.15 5.05-19.4-3.5-4.55-1.35-13.15 5.5-14.05 24.4-4.2 8.35 11.45 0.4 18.1 19.1 14.55 32.45 16l3.35 0.05q10.5-2.75 17.65-10.55 3.45-4 7.25-7.2 3.25-3.5 9.65-6.95 6.35-3.5 18.55 4.25-12.2-7.75-18.55-4.25-6.4 3.45-9.65 6.95-1.55-3.8 3.1-10.15 3.35-40.4-21.3-91.55m96.4 52.6q-0.6-0.1-1.1 0.55-0.45 0.7-0.6 1.7-0.2 1 0.05 1.75t0.8 0.8 1.05-0.65q0.5-0.65 0.65-1.6 0.15-1-0.1-1.8l-0.75-0.75m-24.85 21.3q0.95-3.55 5.65-4.1 4.9-0.05 9.75-1.15 4.9-1.2 9.8-3.45-4.9 2.25-9.8 3.45-4.85 1.1-9.75 1.15-4.7 0.55-5.65 4.1m-38.25-76.65q-20.2 6.25-27.7 1.05t-10.9-10.05q3.4 4.85 10.9 10.05t27.7-1.05m-85.45 105.3q-8-5.35-12.65-2.55l-1.15 2.65 1.15-2.65q4.65-2.8 12.65 2.55m83 32.45q-4.15-18.1-37.55-15.55 33.4-2.55 37.55 15.55m-84.05-42.4q-1.4 3.95 5 4.8 0.2 1.35 0.25 3.05-0.05-1.7-0.25-3.05-0.95-5.1-5-4.8l-1.5 0.25 1.5-0.25m17.2 30.6q-0.05-0.55-0.25-0.95-0.25-0.55-0.6-0.55t-0.6 0.55l-0.25 1.15v0.2l0.25 1.35 0.6 0.55q0.35 0 0.6-0.55l0.25-1.35v-0.4l13.75-1.7-13.75 1.7m-0.6 10.65v-0.6l-0.2-1.3-0.45-0.5q-0.25 0-0.45 0.5l-0.2 1.3 0.2 1.25 0.45 0.55q0.25 0 0.45-0.55l0.2-0.65 18.15 8.3-18.15-8.3m37.3 12.45q1.7-0.05 2.4-1.15 0.65-1.15-0.15-2.7-0.85-1.55-2.65-2.55-1.85-1.1-3.55-1.05-1.75 0.1-2.4 1.25-0.7 1.1 0.2 2.6 0.75 1.55 2.6 2.65 1.8 1 3.55 0.95m-66.35-49.25q3.25-4.35 0-5.45 3.25 1.1 0 5.45m162.85-10q-0.35-0.7-0.9-0.7t-0.95 0.7q-0.35 0.75-0.35 1.75t0.35 1.7q0.4 0.75 0.95 0.75t0.9-0.75q0.4-0.7 0.4-1.7t-0.4-1.75m-21.9 23.05q0.35-3.6 4.9-4.65 9.75-1.1 18.55-6.6-8.8 5.5-18.55 6.6-4.55 1.05-4.9 4.65" fill="url(#q)" fill-rule="evenodd"/>
<path d="m-18.3-72.7q-7.4-5.85-5.3-11.75-36.6-8.6-50.7-38.15 14.55-9.8 47.6 5.5 9 4.8 14.75 0 8.65-6.35 18.15-10.65v10.2q4.5-5.95 4.15-11.95 24.1-9.5 53.5-6.15 2.75 30.6-24 48-11.8 6.2 7.9 15.2 19.65 8.95 33 6.4 13.35-2.6 10.5 5.35-5 3.65-5.5 6.7-2.9 10.05-4.6 20.4m4 74.15 1.35 7.9q2.45 20.25-4.1 39.05-14.75 14.45-32.45 21.1l-4.85-1.75q-16.85 25.7-53.45 28.85-42.5 3.65-60.5-8.55-10.25-16-15.6-42.95-5.7-10.85-5.65-24.45l-14.9 3.8m185.7-94.3 0.45-2.85m-104.75-50.85q3.4 4.85 10.9 10.05t27.7-1.05m-40 122.2-3.35-0.05q-13.35-1.45-32.45-16 7.95-6.65-0.4-18.1-18.9-9.85-24.4 4.2-2.15 8.6 1.35 13.15l1.15-2.65q4.65-2.8 12.65 2.55m70.35-0.85q-3.8 3.2-7.25 7.2-7.15 7.8-17.65 10.55 33.4-2.55 37.55 15.55m-79.05-37.6q-6.4-0.85-5-4.8l-1.5 0.25m6.5 4.55q0.2 1.35 0.25 3.05m-5.25-7.85q4.05-0.3 5 4.8m12.2 25.8v0.4l-0.25 1.35q-0.25 0.55-0.6 0.55l-0.6-0.55-0.25-1.35v-0.2l0.25-1.15q0.25-0.55 0.6-0.55t0.6 0.55q0.2 0.4 0.25 0.95l13.75-1.7m-14.35 12.35-0.2 0.65q-0.2 0.55-0.45 0.55l-0.45-0.55-0.2-1.25 0.2-1.3q0.2-0.5 0.45-0.5l0.45 0.5 0.2 1.3v0.6l18.15 8.3m-19.45-8.9 1.3 0.6m-1.1-10.45 1.7-0.2m-35-1.15-11.05-4.3m16.1-15.1q-3.65 10.25-5.05 19.4-0.8 5.4-0.8 10.4m6.15-40.85q3.25 1.1 0 5.45m170.45 24.1q-12.6 26.6-40.35 36.15-37.1 41.1-65.75 29.25-28.7-11.85-49.2-39.3-9-7.3-16.45 0.45l0.8 9.2m112.55-57.9q-12.2-7.75-18.55-4.25-6.4 3.45-9.65 6.95-1.55-3.8 3.1-10.15m46.95 89.75v-10.55q-2.2 4.65-4.85 8.8" fill="none" stroke="#000" stroke-linecap="round" stroke-linejoin="round" stroke-opacity=".082353" stroke-width=".05"/>
<path d="m81.15-33.6q2.35-1.3 4.3-0.6 1.9-2.35 5.75-4.4l3.35-1.55 1.25-0.5 7.45 0.35 0.55 1.1q2.7 6-0.5 11.85-1.2 2.1-3.1 4.15l-12.25 8.2q-0.75 3.35-2.05 5.65-1.65 1.7-2.95 1.9-1.4 0.1-2.5-1.35l-1.65 1.1-0.05 0.75v6.95q2.15-1.6 4.2-1.1 1.55-2.55 5-4.95l3.05-1.9 1.15-0.65 7.4-0.4 0.75 1.05q3.65 5.75 1.45 11.85-0.85 2.2-2.4 4.45l-10.7 9.4q-0.25 3.4-1.15 5.85-2.65 3.75-5.3 1.1l-1.75 1.45q0.4-0.05 0.65 1.55 2.6 6.5 4.05 12.85m-0.25-70.65-0.3 0.25-4.4 2.8q-4.15 2.45-8.35 4-6.55 2.45-13.3 2.85-4.85-0.05-6.6-4.05l3.45 1.15q9.35-0.3 17-3.3 3.95-1.6 7.55-3.95l0.5-0.35 0.25-0.05m-2.6 10.65 0.75 0.75q0.25 0.8 0.1 1.8-0.15 0.95-0.65 1.6-0.5 0.7-1.05 0.65t-0.8-0.8-0.05-1.75q0.15-1 0.6-1.7 0.5-0.65 1.1-0.55m0.7 12.4-0.35 0.2 0.3 0.55m-0.3-0.55q-4.9 2.25-9.8 3.45-4.85 1.1-9.75 1.15-4.7 0.55-5.65 4.1m50-41.5-3.8 0.65q-4.65 1.15-8.7 3.9-1.7 1.1-3.25 2.5l1.35 1.05q0.6 10.6-0.9 17.2m-2.85-14.8-0.05-0.4-0.15 0.1m0.05-0.15q-2-1-4.25-0.5m4.35 0.55-0.1-0.05m0.5-3.95 2.05 0.95m-4.55 32.15 2.25 0.75 2.75-2.8q3.55-3.2 7.95-4.8l3.65-1.05m-19.1 0.2q1.65-1.45 2.8-3.75 2.05-6.95 1.85-17.25m-102.7 103.4q-1.75 0.05-3.55-0.95-1.85-1.1-2.6-2.65-0.9-1.5-0.2-2.6 0.65-1.15 2.4-1.25 1.7-0.05 3.55 1.05 1.8 1 2.65 2.55 0.8 1.55 0.15 2.7-0.7 1.1-2.4 1.15m100.85-70.7q2 10.55 1.1 17.75-0.7 2.4-2.15 4.05m3-25.05 1.45 0.9q2.35 10.45 2 17.2m-5.4-14.85q-11.1 10.4-24.55 12.65-4.8 0.4-7.2-3.35l3.6 0.8q14.3-1.9 23.5-10.1-0.05-2.1 0.15-2.9m0.15 14.35q0.4 0.75 0.4 1.75t-0.4 1.7q-0.35 0.75-0.9 0.75t-0.95-0.75q-0.35-0.7-0.35-1.7t0.35-1.75q0.4-0.7 0.95-0.7t0.9 0.7m1.55 11.8q-8.8 5.5-18.55 6.6-4.55 1.05-4.9 4.65m-54-18.55q3.35-40.4-21.3-91.55m101.55 75.6q-2.3-0.85-4.65 0" fill="none" stroke="#000" stroke-linecap="round" stroke-linejoin="round" stroke-opacity=".082353" stroke-width=".05"/>
</g>
<linearGradient id="r" x1="-819.2" x2="819.2" gradientTransform="matrix(.0332 .079 -.1268 .0533 4.6 14.2)" gradientUnits="userSpaceOnUse">
<stop stop-opacity="0" offset=".4"/>
<stop stop-opacity=".082353" offset="1"/>
</linearGradient>
<linearGradient id="q" x1="-819.2" x2="819.2" gradientTransform="matrix(-.0083 .1051 -.1067 -.0084 2.1 3.65)" gradientUnits="userSpaceOnUse">
<stop stop-opacity="0" offset=".4"/>
<stop stop-opacity=".082353" offset="1"/>
</linearGradient>
<g id="a" transform="translate(45,45)">
<use transform="translate(-45,-45)" width="90" height="90" xlink:href="#e"/>
</g>
<g id="e" transform="translate(45,45)">
<path d="m-6.6-43.8 6.6-0.45q18.35 0 31.3 12.95 4.6 4.6 7.6 9.9 0.2 25.75-9.55 37.4 3.6-31.5-35.95-59.8m-17.75 6.75q4.8-3.25 10.25-5 0 43.2 14.05 75.15-16.8 2.3-30.95-8.3-15-28.3 6.65-61.85" fill="#d3a800" fill-rule="evenodd"/>
<path d="m-43.45 8.6q-0.8-4.15-0.8-8.6 0-18.35 12.95-31.3 3.3-3.3 6.95-5.75-21.65 33.55-6.65 61.85-7.65-5.8-12.45-16.2m29.35-50.65q3.6-1.2 7.5-1.75 39.55 28.3 35.95 59.8-9.25 12.15-25.15 16.25l-4.25 0.85q-14.05-31.95-14.05-75.15" fill="#a82a00" fill-rule="evenodd"/>
<path d="m38.9-21.4q5.35 9.55 5.35 21.4 0 18.35-12.95 31.3-4.65 4.65-10 7.65 6.75-11.7 8.05-22.95 9.75-11.65 9.55-37.4m-33.6 65.4-5.3 0.25q-5.1 0-9.8-1-16.15-10.05-21.2-18.45 14.15 10.6 30.95 8.3 2.45 5.6 5.35 10.9" fill="#a28100" fill-rule="evenodd"/>
<path d="m21.3 38.95q-7.35 4.05-16 5.05-2.9-5.3-5.35-10.9l4.25-0.85q15.9-4.1 25.15-16.25-1.3 11.25-8.05 22.95m-31.1 4.3q-12.15-2.6-21.5-11.95-9.8-9.8-12.15-22.7 4.8 10.4 12.45 16.2 5.05 8.4 21.2 18.45" fill="#781d00" fill-rule="evenodd"/>
<path d="m-6.6-43.8q39.55 28.3 35.95 59.8-1.3 11.25-8.05 22.95m-21.35-5.85q-14.05-31.95-14.05-75.15m-16.9 66.85q5.05 8.4 21.2 18.45m-21.2-18.45q-15-28.3 6.65-61.85m24.3 70.15q2.45 5.6 5.35 10.9" fill="none" stroke="#000" stroke-linecap="round" stroke-linejoin="round" stroke-opacity=".36863" stroke-width=".05"/>
<path d="m-6.6-43.8 6.6-0.45q18.35 0 31.3 12.95 4.6 4.6 7.6 9.9 5.35 9.55 5.35 21.4 0 18.35-12.95 31.3-4.65 4.65-10 7.65-7.35 4.05-16 5.05l-5.3 0.25q-5.1 0-9.8-1-12.15-2.6-21.5-11.95-9.8-9.8-12.15-22.7-0.8-4.15-0.8-8.6 0-18.35 12.95-31.3 3.3-3.3 6.95-5.75 4.8-3.25 10.25-5 3.6-1.2 7.5-1.75z" fill="none" stroke="#000" stroke-linecap="round" stroke-linejoin="round" stroke-opacity=".36863" stroke-width="1.5"/>
<path d="m31.3-31.3q12.95 12.95 12.95 31.3t-12.95 31.3q-4.65 4.65-10 7.65-7.35 4.05-16 5.05l-5.3 0.25q-5.1 0-9.8-1-12.15-2.6-21.5-11.95-12.95-12.95-12.95-31.3t12.95-31.3q3.3-3.3 6.95-5.75 4.8-3.25 10.25-5 3.6-1.2 7.5-1.75l6.6-0.45q18.35 0 31.3 12.95" fill="url(#o)" fill-rule="evenodd"/>
</g>
<linearGradient id="o" x1="-819.2" x2="819.2" gradientTransform="matrix(.0122 .0454 -.0523 .014 .5 1.8)" gradientUnits="userSpaceOnUse">
<stop stop-opacity="0" offset="0"/>
<stop stop-opacity=".26275" offset="1"/>
</linearGradient>
</defs>
</svg>
