<?xml version="1.0" encoding="UTF-8" standalone="no"?>
<!DOCTYPE svg PUBLIC "-//W3C//DTD SVG 1.1//EN" "http://www.w3.org/Graphics/SVG/1.1/DTD/svg11.dtd">
<svg width="100%" height="100%" viewBox="0 0 39 50" version="1.1" xmlns="http://www.w3.org/2000/svg" xmlns:xlink="http://www.w3.org/1999/xlink" xml:space="preserve" xmlns:serif="http://www.serif.com/" style="fill-rule:evenodd;clip-rule:evenodd;stroke-linecap:round;stroke-linejoin:round;">
    <g transform="matrix(1,0,0,1,-255.817,-180.6)">
        <g>
            <g id="shape0">
                <path d="M286.45,194.05L286.45,194.1L286.8,194.4C287.033,194.8 287.167,195.617 287.2,196.85L287.2,197.95L287.15,198.8L286.6,203.15L285.65,207.55L285.25,207.65C284.483,207.883 283.65,208.233 282.75,208.7C283.65,208.233 284.483,207.883 285.25,207.65L285.65,207.55L285.5,208C285.967,207.633 286.333,207.433 286.6,207.4L286.9,207.45C287.133,207.617 287,208.133 286.5,209L284.4,211.9L284.3,212C284.533,212.633 285.317,213.167 286.65,213.6C286.85,213.633 287.033,213.75 287.2,213.95L287.4,214.6L287,215.15L286.25,215.3C285.983,215.267 285.767,215.15 285.6,214.95C285.433,214.783 285.367,214.583 285.4,214.35L285.45,214.15C285.317,213.55 284.8,213.033 283.9,212.6L283.8,212.55L283.55,212.85C283.45,213.317 283.567,213.767 283.9,214.2L283.95,214.25C284.183,214.483 284.267,214.767 284.2,215.1L283.7,215.85L282.75,216.05L282.15,215.85C282.55,216.217 283.2,216.55 284.1,216.85L284.65,217.2L284.9,217.85L284.5,218.4L283.75,218.6L283.1,218.25C282.933,218.05 282.867,217.85 282.9,217.65L282.95,217.4C282.817,216.833 282.3,216.333 281.4,215.9L281.1,215.8C280.9,216.4 281,216.967 281.4,217.5L281.45,217.55C281.683,217.783 281.767,218.05 281.7,218.35L281.2,219.1L280.3,219.3C279.9,219.267 279.6,219.117 279.4,218.85C279.167,218.617 279.083,218.367 279.15,218.1C279.217,217.767 279.383,217.5 279.65,217.3L279.75,217.25C280.283,216.85 280.533,216.35 280.5,215.75L280.2,215.75C279.2,215.95 278.55,216.333 278.25,216.9L278.25,217.1L277.85,217.65L277.15,217.8C276.85,217.767 276.617,217.65 276.45,217.45C276.283,217.283 276.217,217.083 276.25,216.85C276.283,216.583 276.417,216.383 276.65,216.25L277.3,216.1C279.033,215.933 280.033,215.433 280.3,214.6L280.4,214.35L280.45,214.25L280.3,214.3L279.6,214.45C279.3,214.417 279.067,214.317 278.9,214.15C278.733,213.95 278.683,213.733 278.75,213.5L279.1,212.9L279.8,212.75L281.45,212.5L282.65,210.9L279.65,212.25L280.85,211.2C281.617,210.433 282.25,209.617 282.75,208.75L282.75,208.7C283.517,207.267 283.9,205.7 283.9,204L283.9,203.75L283.3,203.05L282.55,202.65L283.35,202.75L283.85,202.8L283.9,203.05L283.9,203.75L283.9,203.05L283.85,202.8L283.35,202.75L282.55,202.65L282.2,202.65L281.7,202.6L281.65,202.8C281.35,204.4 280.583,205.817 279.35,207.05L278.9,207.5L278.8,207.55L277.15,208.65C276.017,209.217 274.783,209.5 273.45,209.5L272.05,209.4L271.4,209.25C270.667,209.083 270,208.817 269.4,208.45L268.55,207.9L268.25,207.65L268.1,207.55L267.55,207.05L266.45,205.7C265.817,204.733 265.417,203.7 265.25,202.6L265.25,202.55L265.1,202.6L264.55,202.65L264.05,202.85L263.3,203.5L263.3,203.95C263.3,205.683 263.667,207.25 264.4,208.65L264.65,209.05C265.083,209.817 265.633,210.533 266.3,211.2L267.55,212.3L264.5,210.95L264.5,210.85L264.45,210.9L264.4,210.9L264.5,211L265.5,212.3L267.6,212.75L268.25,212.9L268.65,213.5L268.45,214.15L267.8,214.45L267.05,214.3C266.817,214.167 266.683,213.983 266.65,213.75L266.65,213.55L265.9,212.9L266.25,213.45L266.7,214.35L266.75,214.6C267.017,215.433 268.017,215.933 269.75,216.1L270.45,216.25L270.8,216.85L270.65,217.45L269.95,217.8L269.25,217.65L268.85,217.1L268.8,216.9C268.5,216.333 267.85,215.95 266.85,215.75L266.55,215.75C266.517,216.35 266.767,216.85 267.3,217.25L267.4,217.3L267.9,218.1C267.967,218.367 267.9,218.617 267.7,218.85C267.467,219.117 267.167,219.267 266.8,219.3L265.9,219.1C265.6,218.9 265.417,218.65 265.35,218.35C265.283,218.05 265.367,217.783 265.6,217.55L265.7,217.5C266.067,216.967 266.15,216.4 265.95,215.8L265.7,215.9C264.767,216.333 264.233,216.833 264.1,217.4L264.15,217.65L264,218.25L263.3,218.6L262.6,218.4C262.367,218.267 262.233,218.083 262.2,217.85C262.167,217.583 262.233,217.367 262.4,217.2C262.533,217 262.717,216.883 262.95,216.85L264.7,216.05L264.65,216.05L263.7,215.85C263.4,215.65 263.217,215.4 263.15,215.1C263.083,214.767 263.167,214.483 263.4,214.25L263.5,214.2L263.9,213.15L263.35,212.65C262.517,213.083 262.033,213.583 261.9,214.15L261.95,214.35L261.8,214.95L261.1,215.3L260.4,215.15L260,214.6C259.933,214.333 260,214.117 260.2,213.95C260.333,213.75 260.517,213.633 260.75,213.6C261.883,213.2 262.617,212.733 262.95,212.2L262.7,211.9C261.767,210.833 261.067,209.867 260.6,209C260.067,208.133 259.917,207.617 260.15,207.45L260.5,207.4L261.75,207.65L260.75,203.15C260.35,200.717 260.167,198.617 260.2,196.85C260.2,195.85 260.283,195.117 260.45,194.65C260.55,194.317 260.7,194.133 260.9,194.1L260.9,194.05C261.4,193.983 262.167,194.7 263.2,196.2L264.75,198.7L264.9,198.4L265.1,198.15L265.45,197.65L265.65,197.45L265.7,197.35L265.7,197.3L265.75,196.85L265.85,196.35L266.2,195.75L266.6,195.35C267.167,194.817 267.883,194.55 268.75,194.55L269.25,194.6C270.583,193.967 272.033,193.65 273.6,193.65C275.167,193.65 276.617,193.967 277.95,194.6L278.45,194.55C279.283,194.55 280,194.817 280.6,195.35C281.167,195.883 281.467,196.533 281.5,197.3L281.5,197.35L282.55,198.8L284.1,196.2C285.167,194.633 285.95,193.917 286.45,194.05M283.6,201.3L283.4,200.65L282.55,198.8L283.4,200.65L283.6,201.3L283.75,200.4C284.083,198.933 284.45,197.65 284.85,196.55C285.45,194.85 285.983,194.033 286.45,194.1C285.983,194.033 285.45,194.85 284.85,196.55C284.45,197.65 284.083,198.933 283.75,200.4L283.6,201.3L283.85,202.8L283.6,201.3M285.5,208L285.4,208.1C284.633,208.7 283.8,209.533 282.9,210.6L282.85,210.65L282.65,210.9L282.85,210.65L282.9,210.6C283.8,209.533 284.633,208.7 285.4,208.1L285.5,208M263.7,201C263.367,199.3 262.967,197.817 262.5,196.55C261.9,194.85 261.367,194.033 260.9,194.1C261.367,194.033 261.9,194.85 262.5,196.55C262.967,197.817 263.367,199.3 263.7,201C263.933,200.167 264.283,199.4 264.75,198.7C264.283,199.4 263.933,200.167 263.7,201C263.533,201.567 263.417,202.15 263.35,202.75L264.05,202.7L264.55,202.65L264.05,202.7L263.35,202.75C263.417,202.15 263.533,201.567 263.7,201M260.5,207.4C260.767,207.433 261.15,207.667 261.65,208.1L261.95,208.35L264.15,210.6L264.4,210.9L264.15,210.6L261.95,208.35L261.65,208.1C261.15,207.667 260.767,207.433 260.5,207.4M264.4,208.65L261.85,207.65L261.75,207.65L261.85,207.65L264.4,208.65M263.35,202.75L263.35,203L263.3,203.5L263.35,203L263.35,202.75M279.85,199.7L280.45,199.25C280.883,198.817 281.1,198.283 281.1,197.65L281.05,197.05L280.45,196.05L280.25,195.9C279.85,195.567 279.383,195.4 278.85,195.4C278.217,195.4 277.683,195.617 277.25,196.05C276.817,196.483 276.6,197.017 276.6,197.65L276.65,198.2C276.75,198.6 276.95,198.95 277.25,199.25C277.683,199.683 278.217,199.9 278.85,199.9L279.4,199.85L278.85,199.9C278.217,199.9 277.683,199.683 277.25,199.25C276.95,198.95 276.75,198.6 276.65,198.2L276.6,197.65C276.6,197.017 276.817,196.483 277.25,196.05C277.683,195.617 278.217,195.4 278.85,195.4C279.383,195.4 279.85,195.567 280.25,195.9L280.45,196.05L281.05,197.05L281.1,197.65C281.1,198.283 280.883,198.817 280.45,199.25L279.85,199.7L279.3,199.3C278.9,198.9 278.7,198.433 278.7,197.9L278.8,197.3C278.433,197.367 278.083,197.483 277.75,197.65L277.75,197.9C277.75,198.433 277.95,198.9 278.35,199.3C278.65,199.6 279,199.783 279.4,199.85L279.4,199.95L278.45,200.05C277.583,200.05 276.867,199.783 276.3,199.25C275.7,198.717 275.4,198.067 275.4,197.3C275.4,196.533 275.7,195.883 276.3,195.35C274.367,196.45 272.567,196.45 270.9,195.35C271.467,195.883 271.767,196.533 271.8,197.3C271.767,198.067 271.467,198.717 270.9,199.25C270.3,199.783 269.583,200.05 268.75,200.05L267.75,199.95L268.75,200.05C269.583,200.05 270.3,199.783 270.9,199.25C271.467,198.717 271.767,198.067 271.8,197.3C271.767,196.533 271.467,195.883 270.9,195.35C272.567,196.45 274.367,196.45 276.3,195.35C275.7,195.883 275.4,196.533 275.4,197.3C275.4,198.067 275.7,198.717 276.3,199.25C276.867,199.783 277.583,200.05 278.45,200.05L279.4,199.95L279.9,199.75L279.85,199.7M263.35,212.65L262.95,212.2L263.35,212.65M281.5,197.35C281.467,198.083 281.167,198.717 280.6,199.25L279.9,199.75L280.6,199.25C281.167,198.717 281.467,198.083 281.5,197.35M267.3,199.75L267.75,199.95L267.8,199.85L268.3,199.9C268.933,199.9 269.467,199.683 269.9,199.25L270.5,198.2L270.55,197.65C270.55,197.017 270.333,196.483 269.9,196.05C269.467,195.617 268.933,195.4 268.3,195.4C267.767,195.4 267.3,195.567 266.9,195.9L266.7,196.05C266.4,196.35 266.217,196.683 266.15,197.05L266.05,197.65C266.05,198.283 266.267,198.817 266.7,199.25L267.3,199.7L266.7,199.25C266.267,198.817 266.05,198.283 266.05,197.65L266.15,197.05C266.217,196.683 266.4,196.35 266.7,196.05L266.9,195.9C267.3,195.567 267.767,195.4 268.3,195.4C268.933,195.4 269.467,195.617 269.9,196.05C270.333,196.483 270.55,197.017 270.55,197.65L270.5,198.2L269.9,199.25C269.467,199.683 268.933,199.9 268.3,199.9L267.8,199.85L268.8,199.3C269.2,198.9 269.417,198.433 269.45,197.9L269.4,197.65L268.4,197.3L266.15,197.05L268.4,197.3L268.45,197.9C268.45,198.433 268.25,198.9 267.85,199.3L267.3,199.7L267.3,199.75L266.6,199.25C266.133,198.85 265.85,198.4 265.75,197.9L265.7,197.35L265.75,197.9C265.85,198.4 266.133,198.85 266.6,199.25L267.3,199.75M276.35,195.3L276.3,195.35L276.35,195.3L277.05,194.85L277.95,194.6L277.05,194.85L276.35,195.3M276.65,198.2L277.75,197.65L276.65,198.2M281.7,202.6L281.5,202.55L280.75,202.5L280.35,202.5C275.483,202.133 270.883,202.117 266.55,202.45L266,202.5L265.35,202.55L265.25,202.55L265.35,202.55L266,202.5L266.55,202.45C270.883,202.117 275.483,202.133 280.35,202.5L280.75,202.5L281.5,202.55L281.7,202.6M281.05,197.05L278.8,197.3L281.05,197.05M270.9,195.35L270.3,194.95L269.25,194.6L270.3,194.95L270.9,195.35M270.5,198.2C270.133,197.967 269.767,197.783 269.4,197.65C269.767,197.783 270.133,197.967 270.5,198.2M265.5,212.3L265.9,212.9L265.5,212.3M264.7,216.05C265.267,215.583 265.483,215.05 265.35,214.45L265.2,214.35L263.9,213.15L265.2,214.35L265.35,214.45C265.483,215.05 265.267,215.583 264.7,216.05M283.8,212.55L284.3,212L283.8,212.55M280.8,213.45L280.75,213.55L280.75,213.6L280.45,214.25L280.75,213.6L280.8,213.45L281.45,212.5L280.8,213.45M283.55,212.85L281.85,214.35L281.75,214.45C281.583,214.95 281.717,215.417 282.15,215.85C281.717,215.417 281.583,214.95 281.75,214.45L281.85,214.35L283.55,212.85" style="fill:#fc0;"/>
                <path d="M287.15,198.8L287.2,197.95L291.15,194.25C293.45,191.717 294,189.467 292.8,187.5C291.533,185.467 288.45,183.717 283.55,182.25L283.5,182.25C275.7,180.917 267.717,180.917 259.55,182.25C258.017,182.483 257.017,182.9 256.55,183.5L256.5,183.6L256.55,183.95C256.917,184.783 258.4,186.033 261,187.7C264.267,189.8 265.883,192.683 265.85,196.35L265.75,196.85L265.7,197.3L265.7,197.35L265.65,197.45L265.45,197.65L265.1,198.15L265.1,197.9C265.633,193.7 264.15,190.483 260.65,188.25C257.883,186.45 256.317,185.1 255.95,184.2C255.817,183.9 255.783,183.65 255.85,183.45L255.9,183.45L256.05,183.1C256.583,182.367 257.717,181.867 259.45,181.6C267.683,180.267 275.75,180.267 283.65,181.6L283.7,181.6C288.833,183.133 292.05,184.983 293.35,187.15C294.75,189.35 294.183,191.85 291.65,194.65C290.35,196.083 288.85,197.467 287.15,198.8M279.4,199.85C279,199.783 278.65,199.6 278.35,199.3C277.95,198.9 277.75,198.433 277.75,197.9L277.75,197.65C278.083,197.483 278.433,197.367 278.8,197.3L278.7,197.9C278.7,198.433 278.9,198.9 279.3,199.3L279.85,199.7L279.4,199.85M268.4,197.3L269.4,197.65L269.45,197.9C269.417,198.433 269.2,198.9 268.8,199.3L267.8,199.85L267.3,199.7L267.85,199.3C268.25,198.9 268.45,198.433 268.45,197.9L268.4,197.3"/>
                <path d="M279.65,212.25L278.55,213C277.05,213.833 275.4,214.25 273.6,214.25C271.6,214.25 269.8,213.75 268.2,212.75L267.55,212.3L266.3,211.2C265.633,210.533 265.083,209.817 264.65,209.05L264.4,208.65C263.667,207.25 263.3,205.683 263.3,203.95L263.3,203.5L264.05,202.85L264.55,202.65L265.1,202.6L265.25,202.6C265.417,203.7 265.817,204.733 266.45,205.7L267.55,207.05L268.1,207.55L268.25,207.65L268.55,207.9L269.4,208.45C270,208.817 270.667,209.083 271.4,209.25L272.05,209.4L273.45,209.5C274.783,209.5 276.017,209.217 277.15,208.65L278.8,207.55L278.9,207.5L279.35,207.05C280.583,205.817 281.35,204.4 281.65,202.8L282.2,202.65L282.55,202.65L283.3,203.05L283.9,203.75L283.9,204C283.9,205.7 283.517,207.267 282.75,208.7L282.75,208.75C282.25,209.617 281.617,210.433 280.85,211.2L279.65,212.25M278.55,213L278.8,212.5C279.167,211.733 279.35,210.9 279.35,210C279.35,209.167 279.183,208.383 278.85,207.65L278.8,207.55L278.85,207.65C279.183,208.383 279.35,209.167 279.35,210C279.35,210.9 279.167,211.733 278.8,212.5L278.55,213M268.2,212.75L267.95,212.2C267.683,211.5 267.55,210.767 267.55,210C267.55,209.367 267.65,208.767 267.85,208.2L268.1,207.55L267.85,208.2C267.65,208.767 267.55,209.367 267.55,210C267.55,210.767 267.683,211.5 267.95,212.2L268.2,212.75" style="fill:#f90;"/>
                <path d="M264.45,210.95L264.4,210.9L264.45,210.9L264.45,210.95M279.85,199.7L279.9,199.75L279.4,199.95L279.4,199.85L279.85,199.7M267.75,199.95L267.3,199.75L267.3,199.7L267.8,199.85L267.75,199.95M276.3,195.35L276.35,195.3L276.3,195.35M282.2,202.65L281.65,202.8L281.7,202.6L282.2,202.65M265.1,202.6L265.25,202.55L265.25,202.6L265.1,202.6" style="fill:#fff;"/>
                <path d="M286.55,194.05L286.45,194.05M260.45,194.65L260.45,194.6C260.55,194.3 260.7,194.117 260.9,194.05" style="fill:none;fill-rule:nonzero;stroke:#3f3f3f;stroke-width:1px;"/>
                <path d="M286.8,194.4L286.55,194.05L286.45,194.05C285.95,193.917 285.167,194.633 284.1,196.2L282.55,198.8L283.4,200.65L283.6,201.3L283.85,202.8L283.35,202.75L282.55,202.65L282.2,202.65L281.7,202.6L281.65,202.8C281.35,204.4 280.583,205.817 279.35,207.05L278.9,207.5L278.8,207.55L277.15,208.65C276.017,209.217 274.783,209.5 273.45,209.5L272.05,209.4L271.4,209.25C270.667,209.083 270,208.817 269.4,208.45L268.55,207.9L268.25,207.65L268.1,207.55L267.55,207.05L266.45,205.7C265.817,204.733 265.417,203.7 265.25,202.6L265.25,202.55L265.1,202.6L265.25,202.6M265.85,196.35L266.2,195.75L266.6,195.35C267.167,194.817 267.883,194.55 268.75,194.55L269.25,194.6C270.583,193.967 272.033,193.65 273.6,193.65C275.167,193.65 276.617,193.967 277.95,194.6L278.45,194.55C279.283,194.55 280,194.817 280.6,195.35C281.167,195.883 281.467,196.533 281.5,197.3L281.5,197.35L282.55,198.8M265.1,198.15L265.45,197.65L265.65,197.45L265.7,197.35L265.7,197.3L265.75,196.85L265.85,196.35M282.75,208.7C283.65,208.233 284.483,207.883 285.25,207.65L285.65,207.55L286.6,207.4L286.9,207.45C287.133,207.617 287,208.133 286.5,209L284.4,211.9L284.3,212C284.533,212.633 285.317,213.167 286.65,213.6C286.85,213.633 287.033,213.75 287.2,213.95L287.4,214.6L287,215.15L286.25,215.3C285.983,215.267 285.767,215.15 285.6,214.95C285.433,214.783 285.367,214.583 285.4,214.35L285.45,214.15C285.317,213.55 284.8,213.033 283.9,212.6L283.8,212.55L283.55,212.85C283.45,213.317 283.567,213.767 283.9,214.2L283.95,214.25C284.183,214.483 284.267,214.767 284.2,215.1L283.7,215.85L282.75,216.05L282.15,215.85C282.55,216.217 283.2,216.55 284.1,216.85L284.65,217.2L284.9,217.85L284.5,218.4L283.75,218.6L283.1,218.25C282.933,218.05 282.867,217.85 282.9,217.65L282.95,217.4C282.817,216.833 282.3,216.333 281.4,215.9L281.1,215.8C280.9,216.4 281,216.967 281.4,217.5L281.45,217.55C281.683,217.783 281.767,218.05 281.7,218.35L281.2,219.1L280.3,219.3C279.9,219.267 279.6,219.117 279.4,218.85C279.167,218.617 279.083,218.367 279.15,218.1C279.217,217.767 279.383,217.5 279.65,217.3L279.75,217.25C280.283,216.85 280.533,216.35 280.5,215.75L280.2,215.75C279.2,215.95 278.55,216.333 278.25,216.9L278.25,217.1L277.85,217.65L277.15,217.8C276.85,217.767 276.617,217.65 276.45,217.45C276.283,217.283 276.217,217.083 276.25,216.85C276.283,216.583 276.417,216.383 276.65,216.25L277.3,216.1C279.033,215.933 280.033,215.433 280.3,214.6L280.4,214.35L280.45,214.25L280.3,214.3L279.6,214.45C279.3,214.417 279.067,214.317 278.9,214.15C278.733,213.95 278.683,213.733 278.75,213.5L279.1,212.9L279.8,212.75L281.45,212.5L282.65,210.9L279.65,212.25L278.55,213C277.05,213.833 275.4,214.25 273.6,214.25C271.6,214.25 269.8,213.75 268.2,212.75L267.55,212.3L264.5,210.95L264.5,211L265.5,212.3L267.6,212.75L268.25,212.9L268.65,213.5L268.45,214.15L267.8,214.45L267.05,214.3C266.817,214.167 266.683,213.983 266.65,213.75L266.65,213.55L265.9,212.9L266.25,213.45L266.7,214.35L266.75,214.6C267.017,215.433 268.017,215.933 269.75,216.1L270.45,216.25L270.8,216.85L270.65,217.45L269.95,217.8L269.25,217.65L268.85,217.1L268.8,216.9C268.5,216.333 267.85,215.95 266.85,215.75L266.55,215.75C266.517,216.35 266.767,216.85 267.3,217.25L267.4,217.3L267.9,218.1C267.967,218.367 267.9,218.617 267.7,218.85C267.467,219.117 267.167,219.267 266.8,219.3L265.9,219.1C265.6,218.9 265.417,218.65 265.35,218.35C265.283,218.05 265.367,217.783 265.6,217.55L265.7,217.5C266.067,216.967 266.15,216.4 265.95,215.8L265.7,215.9C264.767,216.333 264.233,216.833 264.1,217.4L264.15,217.65L264,218.25L263.3,218.6L262.6,218.4C262.367,218.267 262.233,218.083 262.2,217.85C262.167,217.583 262.233,217.367 262.4,217.2C262.533,217 262.717,216.883 262.95,216.85L264.7,216.05L264.65,216.05L263.7,215.85C263.4,215.65 263.217,215.4 263.15,215.1C263.083,214.767 263.167,214.483 263.4,214.25L263.5,214.2L263.9,213.15L263.35,212.65C262.517,213.083 262.033,213.583 261.9,214.15L261.95,214.35L261.8,214.95L261.1,215.3L260.4,215.15L260,214.6C259.933,214.333 260,214.117 260.2,213.95C260.333,213.75 260.517,213.633 260.75,213.6C261.883,213.2 262.617,212.733 262.95,212.2L262.7,211.9C261.767,210.833 261.067,209.867 260.6,209C260.067,208.133 259.917,207.617 260.15,207.45L260.5,207.4L261.75,207.65L261.85,207.65L264.4,208.65L264.65,209.05C265.083,209.817 265.633,210.533 266.3,211.2L267.55,212.3M260.45,194.6C260.483,194.3 260.6,194.117 260.8,194.05L260.9,194.05C261.4,193.983 262.167,194.7 263.2,196.2L264.75,198.7L264.9,198.4L265.1,198.15M282.65,210.9L282.85,210.65L282.9,210.6C283.8,209.533 284.633,208.7 285.4,208.1L285.5,208C285.967,207.633 286.333,207.433 286.6,207.4M263.7,201C263.933,200.167 264.283,199.4 264.75,198.7M265.1,202.6L264.55,202.65L264.05,202.85L263.3,203.5L263.3,203.95C263.3,205.683 263.667,207.25 264.4,208.65M263.7,201C263.533,201.567 263.417,202.15 263.35,202.75L264.05,202.7L264.55,202.65M263.3,203.5L263.35,203L263.35,202.75M264.4,210.9L264.15,210.6L261.95,208.35L261.65,208.1C261.15,207.667 260.767,207.433 260.5,207.4M264.45,210.9L264.5,210.95M264.45,210.9L264.4,210.9L264.5,211M262.95,212.2L263.35,212.65M279.4,199.85L278.85,199.9C278.217,199.9 277.683,199.683 277.25,199.25C276.95,198.95 276.75,198.6 276.65,198.2L276.6,197.65C276.6,197.017 276.817,196.483 277.25,196.05C277.683,195.617 278.217,195.4 278.85,195.4C279.383,195.4 279.85,195.567 280.25,195.9L280.45,196.05L281.05,197.05L281.1,197.65C281.1,198.283 280.883,198.817 280.45,199.25L279.85,199.7L279.3,199.3C278.9,198.9 278.7,198.433 278.7,197.9L278.8,197.3C278.433,197.367 278.083,197.483 277.75,197.65L276.65,198.2M279.9,199.75L280.6,199.25C281.167,198.717 281.467,198.083 281.5,197.35M276.3,195.35C274.367,196.45 272.567,196.45 270.9,195.35C271.467,195.883 271.767,196.533 271.8,197.3C271.767,198.067 271.467,198.717 270.9,199.25C270.3,199.783 269.583,200.05 268.75,200.05L267.75,199.95L267.3,199.75L266.6,199.25C266.133,198.85 265.85,198.4 265.75,197.9L265.7,197.35M276.3,195.35L276.35,195.3L277.05,194.85L277.95,194.6M276.3,195.35C275.7,195.883 275.4,196.533 275.4,197.3C275.4,198.067 275.7,198.717 276.3,199.25C276.867,199.783 277.583,200.05 278.45,200.05L279.4,199.95L279.9,199.75M279.4,199.85C279,199.783 278.65,199.6 278.35,199.3C277.95,198.9 277.75,198.433 277.75,197.9L277.75,197.65M276.35,195.3L276.3,195.35M281.65,202.8L282.2,202.65M265.25,202.55L265.35,202.55L266,202.5L266.55,202.45C270.883,202.117 275.483,202.133 280.35,202.5L280.75,202.5L281.5,202.55L281.7,202.6M282.55,202.65L283.3,203.05L283.9,203.75L283.9,203.05L283.85,202.8M278.8,197.3L281.05,197.05M279.4,199.85L279.85,199.7M269.25,194.6L270.3,194.95L270.9,195.35M267.3,199.7L266.7,199.25C266.267,198.817 266.05,198.283 266.05,197.65L266.15,197.05C266.217,196.683 266.4,196.35 266.7,196.05L266.9,195.9C267.3,195.567 267.767,195.4 268.3,195.4C268.933,195.4 269.467,195.617 269.9,196.05C270.333,196.483 270.55,197.017 270.55,197.65L270.5,198.2L269.9,199.25C269.467,199.683 268.933,199.9 268.3,199.9L267.8,199.85L267.3,199.7L267.85,199.3C268.25,198.9 268.45,198.433 268.45,197.9L268.4,197.3L269.4,197.65C269.767,197.783 270.133,197.967 270.5,198.2M266.15,197.05L268.4,197.3M269.4,197.65L269.45,197.9C269.417,198.433 269.2,198.9 268.8,199.3L267.8,199.85M263.9,213.15L265.2,214.35L265.35,214.45C265.483,215.05 265.267,215.583 264.7,216.05M265.9,212.9L265.5,212.3M282.75,208.7L282.75,208.75C282.25,209.617 281.617,210.433 280.85,211.2L279.65,212.25M283.9,203.75L283.9,204C283.9,205.7 283.517,207.267 282.75,208.7M284.3,212L283.8,212.55M280.75,213.6L280.75,213.55L280.8,213.45L281.45,212.5M280.45,214.25L280.75,213.6L280.8,213.45M282.15,215.85C281.717,215.417 281.583,214.95 281.75,214.45L281.85,214.35L283.55,212.85" style="fill:none;fill-rule:nonzero;stroke:#3f3f3f;stroke-width:0.25px;"/>
                <path d="M286.45,194.1L286.8,194.4C287.033,194.8 287.167,195.617 287.2,196.85L287.2,197.95L287.15,198.8L286.6,203.15L285.65,207.55M283.6,201.3L283.75,200.4C284.083,198.933 284.45,197.65 284.85,196.55C285.45,194.85 285.983,194.033 286.45,194.1M261.75,207.65L260.75,203.15C260.35,200.717 260.167,198.617 260.2,196.85C260.2,195.85 260.283,195.117 260.45,194.65C260.55,194.317 260.7,194.133 260.9,194.1C261.367,194.033 261.9,194.85 262.5,196.55C262.967,197.817 263.367,199.3 263.7,201" style="fill:none;fill-rule:nonzero;stroke:#3f3f3f;stroke-width:0.25px;"/>
                <path d="M278.8,207.55L278.85,207.65C279.183,208.383 279.35,209.167 279.35,210C279.35,210.9 279.167,211.733 278.8,212.5L278.55,213M268.1,207.55L267.85,208.2C267.65,208.767 267.55,209.367 267.55,210C267.55,210.767 267.683,211.5 267.95,212.2L268.2,212.75" style="fill:none;fill-rule:nonzero;stroke:#3f3f3f;stroke-width:0.05px;"/>
            </g>
            <g id="sprite0" transform="matrix(0.7513,0,0,1.0625,263.9,224.95)">
                <g id="shape1">
                    <path d="M25.35,2.4C25.317,3.067 24.067,3.633 21.6,4.1L12.7,4.8L3.75,4.1C1.25,3.633 0.017,3.067 0.05,2.4C0.017,1.733 1.25,1.167 3.75,0.7L12.7,0L21.6,0.7C24.067,1.167 25.317,1.733 25.35,2.4" style="fill-opacity:0.6;"/>
                </g>
            </g>
        </g>
    </g>
</svg>
