<?xml version="1.0" encoding="UTF-8"?>
<svg width="138px" height="151px" version="1.1" viewBox="205.9 67.7 138.1 150.5" xmlns="http://www.w3.org/2000/svg" xmlns:xlink="http://www.w3.org/1999/xlink">
<defs>
<linearGradient id="o" x1="-819.2" x2="819.2" gradientTransform="matrix(.077667 0 0 .082123 280.35 150.9)" gradientUnits="userSpaceOnUse">
<stop stop-color="#533323" offset="0"/>
<stop stop-color="#535023" offset="1"/>
</linearGradient>
<linearGradient id="h" x1="-819.2" x2="819.2" gradientTransform="matrix(-.0092468 0 0 -.003418 288.4 94.35)" gradientUnits="userSpaceOnUse">
<stop stop-color="#f00" offset="0"/>
<stop stop-color="#ffae40" offset="1"/>
</linearGradient>
<linearGradient id="g" x1="-819.2" x2="819.2" gradientTransform="matrix(-.0056152 -.02095 .014816 -.0039673 316.2 143.7)" gradientUnits="userSpaceOnUse">
<stop stop-color="#524100" offset="0"/>
<stop stop-color="#a98701" offset="1"/>
</linearGradient>
<linearGradient id="f" x1="-819.2" x2="819.2" gradientTransform="matrix(-.0029297 0 0 -.00354 256.8 87.95)" gradientUnits="userSpaceOnUse">
<stop stop-color="#f00" offset="0"/>
<stop stop-color="#ffae40" offset="1"/>
</linearGradient>
<linearGradient id="e" x1="-819.2" x2="819.2" gradientTransform="matrix(.025391 0 0 .021576 246.85 115.05)" gradientUnits="userSpaceOnUse">
<stop stop-color="#85663a" offset="0"/>
<stop stop-color="#87683b" offset="1"/>
</linearGradient>
<linearGradient id="d" x1="-819.2" x2="819.2" gradientTransform="matrix(.020203 0 0 .019073 236.95 128.25)" gradientUnits="userSpaceOnUse">
<stop stop-color="#36403a" offset="0"/>
<stop stop-color="#1b241e" offset="1"/>
</linearGradient>
<linearGradient id="c" x1="-819.2" x2="819.2" gradientTransform="matrix(.01944 0 0 .0058289 259.35 97.5)" gradientUnits="userSpaceOnUse">
<stop stop-color="#85663a" offset="0"/>
<stop stop-color="#87683b" offset="1"/>
</linearGradient>
<linearGradient id="b" x1="-819.2" x2="819.2" gradientTransform="matrix(-.027756 -.0074463 .0043182 -.016083 275.1 194.95)" gradientUnits="userSpaceOnUse">
<stop stop-color="#524100" offset="0"/>
<stop stop-color="#a98701" offset="1"/>
</linearGradient>
<linearGradient id="a" x1="-819.2" x2="819.2" gradientTransform="matrix(-.0055542 -.020706 .016281 -.004364 253.95 192.15)" gradientUnits="userSpaceOnUse">
<stop stop-color="#ffd324" offset="0"/>
<stop stop-color="#a98701" offset="1"/>
</linearGradient>
<linearGradient id="n" x1="-819.2" x2="819.2" gradientTransform="matrix(.020203 0 0 .011658 236.95 152.35)" gradientUnits="userSpaceOnUse">
<stop stop-color="#36403a" offset="0"/>
<stop stop-color="#1b241e" offset="1"/>
</linearGradient>
<linearGradient id="m" x1="-819.2" x2="819.2" gradientTransform="matrix(-.0072479 -.0072479 .0036926 -.0036926 213.65 142.25)" gradientUnits="userSpaceOnUse">
<stop stop-color="#36403a" offset="0"/>
<stop stop-color="#1b241e" offset="1"/>
</linearGradient>
<linearGradient id="l" x1="-819.2" x2="819.2" gradientTransform="matrix(.035858 0 0 .042236 300 169.65)" gradientUnits="userSpaceOnUse">
<stop stop-color="#fc0" offset="0"/>
<stop stop-color="#fff" offset="1"/>
</linearGradient>
<linearGradient id="k" x1="-819.2" x2="819.2" gradientTransform="matrix(.035858 0 0 .042236 300 169.65)" gradientUnits="userSpaceOnUse">
<stop stop-color="#ffd324" offset="0"/>
<stop stop-color="#a98701" offset="1"/>
</linearGradient>
<linearGradient id="j" x1="-819.2" x2="819.2" gradientTransform="matrix(.030334 0 0 .012634 265.9 202)" gradientUnits="userSpaceOnUse">
<stop stop-color="#fc0" offset="0"/>
<stop stop-color="#fff" offset="1"/>
</linearGradient>
<g id="s">
<path d="m260.95 89.3 1.95-2.3 1.8 1.05 3.2-3.55 8.5-0.85-3.6 1.8 2.75 2.6 4.8 1.8 0.95-2.5 3.45 2.75-0.6-2.5 8.15 1.65-1.35-3.8 8.75 4.15v-4.15l3.2 4.05 9.8 2.8-1.45-3.5 4.05 1.2 11.85-1.9 8.35 1.4q1.05 0.45 2.1 1-10.15-0.1-16.4 3.7l8.7 9.4q4.95 8 4.35 15.05l4.35 2.7q-0.15 10.6-5.7 14.4l7.4 6.7 3.7 15.45-2.35 5.7v16.4q-3.1 13.8-10.4 22.1l-3 14.75-9.05-3-8.75 4.35-4.1-2.25-2.35-3.3 3.6 1.3 1.05-0.4-3.95-2.5-0.45-2.75 3.3-2.65 2.9-0.35q3.4-1.25 3.05-6.2l-0.85-1.35 1-1.65 3.95 0.4-2.5-1.95 2.05 0.5 0.35 0.35 2.4-4.4q0.55 1.5 1.7 2.8l0.3 0.2 1 0.55-0.75-3.35 2.75 2.55v-5.85l-1.8 1.9 1.5-4.1 0.85-0.55 1.25-1.1 1.15-1.7 0.4-1q1.2-1.7 1.15-3.4l7.85-12.2-5.05 2.3 4.2-6.45-0.5-10.9-1.3 4.65-2.25-6.7 5-4.3-2.65-2.6h2.55l-6.35-2.95q-0.45-4.2-4-3.7 1.45-5.5-6.05-11.05-0.05 1.9-0.45 3.6-3.4-1.45-2.95-5.4-1.3 1.6-4.7 0.95l0.4-2.85q0.35-1.5-3-3l-0.4 1.3q-0.85 1.95-2.95 3.3-1.35 0.8-3.15 1.4l0.4-1.35q1.15-3.05-2.6-5-1.45-0.75-2.8-0.35t-2.6 2q0.65 2.4 0.9 4.7-1.3 0.8-2.8 0.45-2.1-0.5-4.5-3.05-1.35 2.8-5.9 3.55l0.9-2.3q0.1-1.7-3.35-2.35-1.35-0.85-3.4 0-2.6 1-6.3 4.7-3.35 3.35-2 6.7l2.5 4.1q-2.6 3.15-4.95 2.55-0.85 8.05 0.7 15.65 0.65 3.4 1.85 6.7l0.9 2.5q-0.95 3-2.3 5.85-2.3 4.7-5.75 9.05l-1 1.2-4.45 0.95-2.25 0.3-6.15 0.3-4.55-0.25-7.75-1.3q-3.65-5.85-9.85-3.25l-2.25-0.15 3.2-1.45-7.75-0.7-3-12.8 5.75 7.05-2.4-13.05 7.25 7.6q15.4-8.35 26.15-19.1-3.15-9.7-9.05-19.4l5.6 3.9 3.25 5.45-1.2-14.1-6.45-10.95 8.85 3.55-2.4-4.05 15.55 1.65-2.65-5.5-7-3.85h9.5l-4.2-1.25q-16-1.7-19.5 0.1-0.7-0.6-0.35-1.25l9.75-1.1 11.7 1.7 3.2-1.15 7.2 5.75-2.75-6.2-1.65-0.2-0.55-0.65q-3.35-3.25-15.15-2.3-0.25-0.6 0.2-1.2l0.3 0.05h10.65l6.55 3.45h2.55l6.45 3.95-1.7-3.35-2.15-2.8 0.25-0.2q-2.35-5.3-17.35-3.55m2.6 45.85q1.65 2.05 3.6 2.55-1.95-0.5-3.6-2.55m40.2-41.3-6-4-2.7 1.7 2.7-1.7 6 4m15.55 8.95-7.15-1.45-4.45-1.75 4.9-2.4-11.45 1.2-4.9 3.1-4.65-0.75 4.6 2.7 13.4 4.85-2.95-2.6 8.45 0.55-3.2-2.35 7.45-0.8-0.05-0.3m-32.65-9.6q2.1 3.75 8.1 3.95 4.1 0.15 3-3.6l-2.7-2-2.7 1.65h-5.7-3 3m6.6 22.6 1.9-1.9 4.15-0.95 3.25 1.2-3.25-2.4 2.75-1.3h-4.65l-3.45 2.5-0.7 2.85m24.9 4.2q-0.1 1.4-0.7 2.25 0.6-0.85 0.7-2.25m-29.1-6.75q1.85 4.75 0.6 7.5 1.25-2.75-0.6-7.5m-15.45 0.3-4.3 2.85-1.65 7.3 5.6-5.6 5.05-2.9-5.5 1.25 0.8-2.9" fill="url(#o)"/>
<path d="m335.5 89.5-8.35-1.4-11.85 1.9-4.05-1.2 1.45 3.5-9.8-2.8-3.2-4.05v4.15l-8.75-4.15 1.35 3.8-8.15-1.65 0.6 2.5-3.45-2.75-0.95 2.5-4.8-1.8-2.75-2.6 3.6-1.8-8.5 0.85-3.2 3.55-1.8-1.05-1.95 2.3-1.75 0.2 1.75-0.2q15-1.75 17.35 3.55l-0.25 0.2 2.15 2.8 1.7 3.35-6.45-3.95h-2.55l-6.55-3.45h-10.65l-0.25-0.15 0.9-0.8q1-0.65 2.85-1.35l-4.25-4.45-1.45-1.55h-3.35q15.75-7.05 36.15-2.75 7.45-7.9 24.85-13.05l-11.85 8.2-2.85 4.9h5.95l14.45 6.05q10.25-1.05 18.65 2.65m-115.4 64.8 2.4 13.05-5.75-7.05 3 12.8 7.75 0.7-3.2 1.45 2.25 0.15q-1.4 0.6-2.9 1.6l-4.35-1.15q-2.55-0.85-4.75-2l-3.2-1.95q-3.15-2.25-5.45-5.3 5.85-8.85 7.7-19.1l6.5 6.8m86.25 61.65-4.95-2.75-1.15-2.7-1.2-2.7 4.55-5.55-0.2 3.2h2.05l1.2 0.15 0.9 0.05-3.3 2.65 0.45 2.75 3.95 2.5-1.05 0.4-3.6-1.3 2.35 3.3m12.95-113.15 0.05 0.3-7.45 0.8 3.2 2.35-8.45-0.55 2.95 2.6-13.4-4.85-4.6-2.7 4.65 0.75 4.9-3.1 11.45-1.2-4.9 2.4 4.45 1.75 7.15 1.45m-26.05 13 0.7-2.85 3.45-2.5h4.65l-2.75 1.3 3.25 2.4-3.25-1.2-4.15 0.95-1.9 1.9m37.65 23 6.35 2.95h-2.55l2.65 2.6-5 4.3 2.25 6.7 1.3-4.65 0.5 10.9-4.2 6.45 5.05-2.3-7.85 12.2q-0.05-1.8-1.5-3.65l1.5-2.6 3.85-6.8q0.2-10.35-4.7-19.4l1.2-3.35 1.15-3.35m-6.3 46.9-1.5 4.1 1.8-1.9v5.85l-2.75-2.55 0.75 3.35-1-0.55-0.3-0.2q-1.15-1.3-1.7-2.8-0.8-2.25-0.4-4.95l2.05-4.2 1.3 4.5 1.75-0.65m-7.45 9.35-2.05-0.5 2.5 1.95-3.95-0.4-1 1.65-1.45-2.35q3.55-2.4 5.95-0.35m-43.55-81.5-0.8 2.9 5.5-1.25-5.05 2.9-5.6 5.6 1.65-7.3 4.3-2.85m60.65 31.25q-2.85 0.65-4.5-2.65 1.65 3.3 4.5 2.65" fill="#88683c"/>
<path d="m302.4 80.8h-5.95l2.85-4.9 11.85-8.2q-9.1 8.45-8.75 13.1m-46.7 11-0.3-0.05 0.05-0.1 0.25 0.15" fill="#533224"/>
<path d="m286.65 93.2h5.7l2.7-1.65 2.7 2q1.1 3.75-3 3.6-6-0.2-8.1-3.95" fill="url(#h)"/>
<path d="m248.7 180.2 6.15-0.3q0.05 7.65-3.15 13.2l-0.9-4.55-2.5-6.55 2.7 3.6-2.3-5.4m19.6-11.8q1.35-2.85 2.3-5.85l-0.9-2.5 5.75 4.7 3.5 0.55q-5.3 6.15-10.65 3.1m29.2-37.3 0.5-3.85v-7.4l1.9 3.6-1.25-6.8q1.35-0.4 2.8 0.35 3.75 1.95 2.6 5l-0.4 1.35q-1.3 3.65-4.25 6.3l-1.9 1.45m-14.85 11.35q-6.35-1.55-10.55-7.3l-2.5-4.1q-1.35-3.35 2-6.7 3.7-3.7 6.3-4.7l-1.2 7.8-1.65-1.7 2.5 9.05 5.1 7.65m27.1-23.8 0.4-1.3q3.35 1.5 3 3l-0.4 2.85q-0.9 4.35-3.3 5.85l0.2-2.05 1-3.75-0.9-4.6m10.65 9q0.4-1.7 0.45-3.6 7.5 5.55 6.05 11.05l-2.35 0.3 2.35-0.3q3.55-0.5 4 3.7l-1.15 3.35-1.2 3.35q-4.9 0.4-8.2-1.6l5.65-2.75 1.3-3.2-3.95 1.45q0.85-1.65 1.2-4-3.6 1.5-7.15 1.65l5.45-4.15-4.4 1.3 2.95-2.75 1.45-2.3-3.4 1.35 0.95-2.85m9 50.3q0.05 1.7-1.15 3.4l-0.4 1-3.75-3.7-1.9-4 3.2 2.95-2.4-5.25q2.45 2.05 4.9 1.95 1.45 1.85 1.5 3.65m-2.7 6.1-1.25 1.1-2.6-4.6 3.85 3.5m-14.05 13.7 0.85 1.35q0.35 4.95-3.05 6.2l-2.15-5.8v-4.85l-0.85 4.65-0.65-10.9 4.4 7 1.45 2.35m-98.1-23.9q2.2 1.15 4.75 2-3.25 4.45-2.7 10.2l-1.2-4.7 0.85-3.75-1.7 2.95v-6.7m67.75 21.85-1.45 0.3-0.95-4.3 2.4 4m1.15-0.3-1.7-3.7-0.8-7 7.95 8.6q-2.6 1.35-5.45 2.1m12.6-26.45 7.85 5.75-2 4.35-3.9-2.95-1.95-7.15m4.9 11.85-1 1.75-2.4-4.75 3.4 3m5.7 24.8-1.2-0.15v-6.2l1.2 6.35" fill="#c9ba8b"/>
<path d="m244.15 179.95 4.55 0.25 2.3 5.4-2.7-3.6 2.5 6.55 0.9 4.55-0.2 0.35q-1.7-6.15-7.35-13.5m25.55-19.9q-1.2-3.3-1.85-6.7 4.15 7.25 11.1 11.95l-3.5-0.55-5.75-4.7m27.4-32.95-0.15-3.75q-0.25-2.3-0.9-4.7 1.25-1.6 2.6-2l1.25 6.8-1.9-3.6v7.4l-0.5 3.85-1.1 0.65q0.6-2.25 0.7-4.65m-13.35-2.8q-3.05 8.55-1.1 18.15l-5.1-7.65-2.5-9.05 1.65 1.7 1.2-7.8q2.05-0.85 3.4 0 3.45 0.65 3.35 2.35l-0.9 2.3m23.05-2.35q2.1-1.35 2.95-3.3l0.9 4.6-1 3.75q-0.25-2.8-2.85-5.05m12.65 8.55 3.4-1.35-1.45 2.3-2.95 2.75 4.4-1.3-5.45 4.15-3.6-0.3q3.9-2.5 5.65-6.25m8.4 51.85-1.15 1.7-3.85-3.5 2.6 4.6-0.85 0.55-1.75 0.65-1.3-4.5-1.35-4.55q-1.75-5.15 0-8 1.4 1.9 2.8 3.05l2.4 5.25-3.2-2.95 1.9 4 3.75 3.7m-17.4 22.95-2.9 0.35-0.9-0.05-1.2-6.35v6.2h-2.05l0.2-3.2 0.1-1.3q0.7-6.55 3.1-12.55l0.65 10.9 0.85-4.65v4.85l2.15 5.8m12.9-65.9 3.95-1.45-1.3 3.2-5.65 2.75-1.5-1.1q3-0.7 4.5-3.4m-112 32.5 3.2 1.95v6.7l1.7-2.95-0.85 3.75 1.2 4.7q-4.9-5.9-5.25-14.15m72.1 23.5-1.15 0.3-2.4-4 0.95 4.3-0.9 0.1q-2.25-5.1 1-11.4l0.8 7 1.7 3.7m16.5-12.85-0.95 1.45q-3.3-6.3-2.95-15.05l1.95 7.15 3.9 2.95-0.95 1.75-3.4-3 2.4 4.75" fill="#f5f2ea"/>
<path d="m301.7 135.05-2.3-5.4q2.95-2.65 4.25-6.3 1.8-0.6 3.15-1.4 2.6 2.25 2.85 5.05l-0.2 2.05q2.4-1.5 3.3-5.85 3.4 0.65 4.7-0.95-0.45 3.95 2.95 5.4l-0.95 2.85q-1.75 3.75-5.65 6.25l3.6 0.3q3.55-0.15 7.15-1.65-0.35 2.35-1.2 4-1.5 2.7-4.5 3.4l1.5 1.1q3.3 2 8.2 1.6 4.9 9.05 4.7 19.4l-3.85 6.8-9.3-9.05 6.95 2.1 1.05-5.5q1.35-2.95-4.4-5.9l-7.8 2.35 2.95-4.85q1.45-3.6-3.6-7.2l-5.65 1.7 1.65-3.8-9.55-6.5" fill="url(#g)"/>
<path d="m254.95 85.05 4.25 4.45q-1.85 0.7-2.85 1.35-3-2.9-1.4-5.8" fill="url(#f)"/>
<path d="m226.05 117.65q4.8-2.95 10.3-4.75 15.5 23.5-15.95 29.95-7.7-1.15-14.5-3.4 8.1-14.45 20.15-21.8" fill="#57665e"/>
<path d="m243.8 98.35q3.5-1.8 19.5-0.1l4.2 1.25h-9.5l7 3.85 2.65 5.5-15.55-1.65 2.4 4.05-8.85-3.55 6.45 10.95 1.2 14.1-3.25-5.45-5.6-3.9q-3.3-5.4-7.4-10.75l-0.7 0.25q-5.5 1.8-10.3 4.75 5.1-11.1 17.75-19.3" fill="url(#e)"/>
<path d="m244.45 123.4q5.9 9.7 9.05 19.4-18.15 2.2-33.1 0.05 31.45-6.45 15.95-29.95l0.7-0.25q4.1 5.35 7.4 10.75" fill="url(#d)"/>
<path d="m255.2 92.95q11.8-0.95 15.15 2.3l0.55 0.65 1.65 0.2 2.75 6.2-7.2-5.75-3.2 1.15-11.7-1.7-9.75 1.1q0.8-1.55 7.25-3.5l4.5-0.65" fill="url(#c)"/>
<path d="m257.1 179.6 4.45-0.95 1-1.2q-0.6 7.65 5.35 15.25l2.75 3.4q8.55 9.05 24.4 8.05l8.65-3.2-0.1 1.3-4.55 5.55 1.2 2.7-9.5 1.85q-11.6-0.95-17.15-5.55l-1.7-1.3q-15.95-12.45-14.8-25.9" fill="url(#b)"/>
<path d="m236.4 178.65 7.75 1.3q5.65 7.35 7.35 13.5l0.2-0.35q3.2-5.55 3.15-13.2l2.25-0.3q-1.15 13.45 14.8 25.9l-8.65-5.35-2.1 6.3-1.3-4-5.85-4.2-12.95-6.6q-3.85-6.05-4.65-13" fill="url(#a)"/>
<path d="m253.5 142.8q-10.75 10.75-26.15 19.1l-6.95-19.05q14.95 2.15 33.1-0.05" fill="url(#n)"/>
<path d="m227.35 161.9-7.25-7.6-6.5-6.8-7.7-8.05q6.8 2.25 14.5 3.4l6.95 19.05" fill="url(#m)"/>
<path d="m319.9 191-2.4 4.4-0.35-0.35q-2.4-2.05-5.95 0.35l-4.4-7q-2.4 6-3.1 12.55l-8.65 3.2q-15.85 1-24.4-8.05 4.95 0.6 9.3 0l0.9-0.1 1.45-0.3 1.15-0.3 0.05 0.1 10.75-1.5-3.2-2q4.45-3 7.95-8l0.95-1.45 9.9-6.65q0.2-4.55-5.95-1.2l0.85-2.35q5.95-14.65-3.05-37.3l9.55 6.5-1.65 3.8 5.65-1.7q5.05 3.6 3.6 7.2l-2.95 4.85 7.8-2.35q5.75 2.95 4.4 5.9l-1.05 5.5-6.95-2.1 9.3 9.05-1.5 2.6q-2.45 0.1-4.9-1.95-1.4-1.15-2.8-3.05-1.75 2.85 0 8l1.35 4.55-2.05 4.2q-0.4 2.7 0.4 4.95" fill="url(#l)"/>
<path d="m291.05 192 3.2 2-10.75 1.5-0.05-0.1q2.85-0.75 5.45-2.1l2.15-1.3m12.85-17.3q6.15-3.35 5.95 1.2l-9.9 6.65 1-1.75 0.95-1.75 2-4.35" fill="url(#k)"/>
<path d="m290.75 212.35h-9.1q-17.3-0.75-26.5-7.2-9.35-6.1-14.1-13.5l12.95 6.6 5.85 4.2 1.3 4 2.1-6.3 8.65 5.35 1.7 1.3q5.55 4.6 17.15 5.55" fill="url(#j)"/>
<path d="m335.5 89.5q-8.4-3.7-18.65-2.65l-14.45-6.05m8.75-13.1q-17.4 5.15-24.85 13.05-20.4-4.3-36.15 2.75h3.35l1.45 1.55 4.25 4.45 1.75-0.2q15-1.75 17.35 3.55m-22.9-1.1q-0.45 0.6-0.2 1.2 11.8-0.95 15.15 2.3l0.55 0.65m-27.45 1.2q-0.35 0.65 0.35 1.25 3.5-1.8 19.5-0.1m-18.85 25.15q5.9 9.7 9.05 19.4-10.75 10.75-26.15 19.1l-7.25-7.6-6.5-6.8q-1.85 10.25-7.7 19.1 2.3 3.05 5.45 5.3l3.2 1.95q2.2 1.15 4.75 2l4.35 1.15q1.5-1 2.9-1.6 6.2-2.6 9.85 3.25l7.75 1.3 4.55 0.25 6.15-0.3 2.25-0.3 4.45-0.95 1-1.2q3.45-4.35 5.75-9.05 1.35-2.85 2.3-5.85l-0.9-2.5q-1.2-3.3-1.85-6.7-1.55-7.6-0.7-15.65-1.95-0.5-3.6-2.55m71.95-45.65q1.05 0.45 2.1 1-10.15-0.1-16.4 3.7l8.7 9.4q4.95 8 4.35 15.05l4.35 2.7q-0.15 10.6-5.7 14.4l7.4 6.7 3.7 15.45-2.35 5.7v16.4q-3.1 13.8-10.4 22.1l-3 14.75-9.05-3-8.75 4.35-4.1-2.25-4.95-2.75-1.15-2.7-9.5 1.85h-9.1q-17.3-0.75-26.5-7.2-9.35-6.1-14.1-13.5-3.85-6.05-4.65-13m58.65-87.1 2.7-1.7 6 4m7.4-26.15q-9.1 8.45-8.75 13.1m-15.75 12.4h5.7l2.7-1.65 2.7 2q1.1 3.75-3 3.6-6-0.2-8.1-3.95h-3m13.45 33.9-0.15-3.75q-1.3 0.8-2.8 0.45l2.95 3.3q-0.1 2.4-0.7 4.65l1.1-0.65m1.15-14.45q-1.35 0.4-2.6 2 0.65 2.4 0.9 4.7m6.7 0 0.4-1.35q1.15-3.05-2.6-5-1.45-0.75-2.8-0.35m-4.5 7.15q-2.1-0.5-4.5-3.05-1.35 2.8-5.9 3.55-3.05 8.55-1.1 18.15-6.35-1.55-10.55-7.3-2.6 3.15-4.95 2.55m34.55-2.65-2.3-5.4-1.9 1.45m1.9-1.45q2.95-2.65 4.25-6.3 1.8-0.6 3.15-1.4 2.1-1.35 2.95-3.3l0.4-1.3q3.35 1.5 3 3l-0.4 2.85q3.4 0.65 4.7-0.95 0.6-0.85 0.7-2.25m2.25 7.65q-3.4-1.45-2.95-5.4m9.45 12.85q1.45-5.5-6.05-11.05-0.05 1.9-0.45 3.6l-0.95 2.85q-1.75 3.75-5.65 6.25l3.6 0.3q3.55-0.15 7.15-1.65l2.35-0.3q3.55-0.5 4 3.7m-1.5 39.15q0.05 1.7-1.15 3.4l-0.4 1-1.15 1.7-1.25 1.1-0.85 0.55m-2.7 8.3-0.3-0.2q-1.15-1.3-1.7-2.8l-2.4 4.4-0.35-0.35m-4.5 2.7 0.85 1.35q0.35 4.95-3.05 6.2l-2.9 0.35m2.1-78.65q-0.25-2.8-2.85-5.05m16.55 17.45q0.85-1.65 1.2-4m-11.8-12.2q-0.9 4.35-3.3 5.85l0.2-2.05m-20-6.25q1.25-2.75-0.6-7.5m31.3 30.65q3.3 2 8.2 1.6l1.2-3.35 1.15-3.35m-74.55-47.95q1-0.65 2.85-1.35m-3.8 2.25 0.05-0.1 0.9-0.8q-3-2.9-1.4-5.8m-18.6 27.85q-5.5 1.8-10.3 4.75-12.05 7.35-20.15 21.8 6.8 2.25 14.5 3.4l6.95 19.05m9-49 0.7-0.25q4.1 5.35 7.4 10.75m-18.4-5.75q5.1-11.1 17.75-19.3m-0.35-1.25q0.8-1.55 7.25-3.5l4.5-0.65m22.7 26.7q2.05-0.85 3.4 0 3.45 0.65 3.35 2.35l-0.9 2.3m-11.65 10.85-2.5-4.1q-1.35-3.35 2-6.7 3.7-3.7 6.3-4.7m-10.05 33.7q4.15 7.25 11.1 11.95-5.3 6.15-10.65 3.1m-16.6 24.7q3.2-5.55 3.15-13.2m-38.25 6.15q-0.55-5.75 2.7-10.2m-2.7 10.2q-4.9-5.9-5.25-14.15m72.1 23.5-1.15 0.3-1.45 0.3-0.9 0.1q-4.35 0.6-9.3 0m33.05 4.85q0.7-6.55 3.1-12.55l4.4 7q3.55-2.4 5.95-0.35m-36.2-10.35q-3.25 6.3-1 11.4m-17.4-18.65q-0.6 7.65 5.35 15.25l2.75 3.4m-18.95-3-0.2 0.35q-1.7-6.15-7.35-13.5m-23.75-37.1q14.95 2.15 33.1-0.05m76.25-0.65q1.65 3.3 4.5 2.65m-4.85 26.9 3.85-6.8q0.2-10.35-4.7-19.4m-0.65 28.8q1.45 1.85 1.5 3.65m0-6.25-1.5 2.6q-2.45 0.1-4.9-1.95-1.4-1.15-2.8-3.05-1.75 2.85 0 8l1.35 4.55 1.3 4.5 1.75-0.65m-4.25-41.8-1.5-1.1q3-0.7 4.5-3.4m-19.45 35.3 0.85-2.35q5.95-14.65-3.05-37.3m-5.65 33.9 7.85 5.75m-3.95 7.85-0.95 1.45q-3.5 5-7.95 8l-2.15 1.3q-2.6 1.35-5.45 2.1m12.6-26.45q-0.35 8.75 2.95 15.05m1.95-3.2 0.95-1.75 2-4.35m-3.95 7.85 1-1.75m20.6 1.05-2.05 4.2q-0.4 2.7 0.4 4.95m-8.7 4.4 1.45 2.35m-6 7.85-1.2-0.15h-2.05l0.2-3.2-4.55 5.55 1.2 2.7m6.4-4.9 0.9 0.05m-3.85-4.7-0.1 1.3m-22.65-17.55 7.95 8.6m-75.3-45.8-7.7-8.05" fill="none" stroke="#000" stroke-opacity=".4" stroke-width=".5"/>
</g>
<radialGradient id="i" cx="0" cy="0" r="819.2" gradientTransform="scale(.040527)" gradientUnits="userSpaceOnUse">
<stop stop-color="#fff" offset="0"/>
<stop stop-color="#fff" stop-opacity="0" offset="1"/>
</radialGradient>
<g id="r">
<path d="m0-32.45q13.45 0 22.95 9.5t9.5 22.95-9.5 22.95-22.95 9.5-22.95-9.5-9.5-22.95 9.5-22.95 22.95-9.5" fill="url(#i)"/>
</g>
<g id="q">
<use xlink:href="#r"/>
</g>
<filter id="p">
<feColorMatrix in="SourceGraphic" result="cxform" values="1.0 0.0 0.0 0.0 0.0 0.0 1.0 0.0 0.0 0.0 0.0 0.0 1.0 0.0 0.0 0.0 0.0 0.0 0.66015625 0.0"/>
<feComposite in2="SourceGraphic" operator="in" result="color-xform"/>
</filter>
</defs>
<use xlink:href="#s"/>
<use transform="matrix(.44067 0 0 .44067 295.65 188.1)" filter="url(#p)" xlink:href="#q"/>
</svg>
