<?xml version="1.0" encoding="UTF-8" standalone="no"?>
<!DOCTYPE svg PUBLIC "-//W3C//DTD SVG 1.1//EN" "http://www.w3.org/Graphics/SVG/1.1/DTD/svg11.dtd">
<svg width="100%" height="100%" viewBox="0 0 278 344" version="1.1" xmlns="http://www.w3.org/2000/svg" xmlns:xlink="http://www.w3.org/1999/xlink" xml:space="preserve" xmlns:serif="http://www.serif.com/" style="fill-rule:evenodd;clip-rule:evenodd;stroke-linecap:round;stroke-linejoin:round;">
    <g transform="matrix(1,0,0,1,-144.975,17.95)">
        <g>
            <g id="shape0">
                <path d="M193.6,289.95C206.3,285.95 221.633,283.95 239.6,283.95C257.567,283.95 272.9,285.95 285.6,289.95C298.3,294.017 304.667,298.933 304.7,304.7C304.667,310.433 298.3,315.3 285.6,319.3C272.9,323.367 257.567,325.4 239.6,325.4C221.633,325.4 206.3,323.367 193.6,319.3C180.9,315.3 174.55,310.433 174.55,304.7C174.55,298.933 180.9,294.017 193.6,289.95" style="fill:#333;fill-opacity:0.74;"/>
                <path d="M364.45,-17.75C365.317,-17.417 366.067,-16.617 366.7,-15.35C364.733,1.85 355.567,21.383 339.2,43.25L337.6,43.95L364.45,-17.75" style="fill:#fc0;"/>
                <path d="M335.75,44.8C336.75,39.067 338.15,33.183 339.95,27.15L341.9,32.05L341.7,21.6C344.967,11.7 349.283,1.383 354.65,-9.35C358.783,-15.883 362.05,-18.683 364.45,-17.75L337.6,43.95L335.75,44.8" style="fill:url(#_Linear1);"/>
                <path d="M335.75,44.8C336.75,39.067 338.15,33.183 339.95,27.15L341.9,32.05L341.7,21.6C344.967,11.7 349.283,1.383 354.65,-9.35C358.783,-15.883 362.05,-18.683 364.45,-17.75C365.317,-17.417 366.067,-16.617 366.7,-15.35C364.733,1.85 355.567,21.383 339.2,43.25" style="fill:none;fill-rule:nonzero;stroke:#000;stroke-opacity:0.43;stroke-width:0.05px;"/>
                <path d="M245.4,201.2C247.6,204.567 249,208.133 249.6,211.9C249.833,213.367 249.95,214.867 249.95,216.4C247.383,216.467 245.967,217.3 245.7,218.9L245.5,218.9L245.9,214.65C246.167,210.25 246,205.767 245.4,201.2" style="fill:#dcbb76;"/>
                <path d="M190.35,158.9C194.583,159.133 198.85,159.767 203.15,160.8L211.4,175.95C216.733,176.483 221.617,177.317 226.05,178.45L223.9,180.1L210.1,178.05L179,185.95L209.45,176.55L202.5,162.9C189.067,159.4 174.35,159.883 158.35,164.35C168.783,160.017 179.45,158.2 190.35,158.9M161.6,240L163.4,238.9L161.6,240L158.2,237.15L163.4,238.9L180.4,244.65L187.95,244.65L190.8,247.75C179.267,248.483 169.533,245.9 161.6,240M209.45,176.55L211.4,175.95L209.45,176.55" style="fill:#ebd8b1;"/>
                <path d="M215.15,140.5C212.617,141.967 210.1,142.6 207.6,142.4C205.067,142.233 203.3,141.283 202.3,139.55C201.3,137.817 201.35,135.8 202.45,133.5C203.55,131.267 205.367,129.417 207.9,127.95C210.433,126.483 212.967,125.833 215.5,126C218,126.2 219.75,127.167 220.75,128.9C221.75,130.633 221.7,132.617 220.6,134.85C219.5,137.15 217.683,139.033 215.15,140.5" style="fill:#f5ecd8;"/>
                <path d="M242.2,125.95C247.7,127.583 253.2,130.467 258.7,134.6C264.9,142.767 267.9,150.467 267.7,157.7C268.6,166.433 267.667,175.167 264.9,183.9C261.1,193.867 256,203.2 249.6,211.9C249,208.133 247.6,204.567 245.4,201.2C244.667,195.8 243.333,190.267 241.4,184.6C237.1,182 231.983,179.95 226.05,178.45C239.117,162.917 244.5,145.417 242.2,125.95" style="fill:url(#_Linear2);"/>
                <path d="M226.05,178.45C231.983,179.95 237.1,182 241.4,184.6C243.333,190.267 244.667,195.8 245.4,201.2C246,205.767 246.167,210.25 245.9,214.65L213.55,237.05C205.45,241.183 196.917,243.717 187.95,244.65L187.95,238.4L177.25,230.45L176.65,210.65C193.55,201.55 209.3,191.367 223.9,180.1L226.05,178.45" style="fill:url(#_Linear3);"/>
                <path d="M176.65,210.65L177.25,230.45L163.4,238.9L158.2,237.15L157.1,236.05C148.5,227.45 144.583,216.3 145.35,202.6C155.35,210.2 165.783,212.883 176.65,210.65" style="fill:url(#_Linear4);"/>
                <path d="M177.25,230.45L187.95,238.4L187.95,244.65L180.4,244.65L163.4,238.9L177.25,230.45" style="fill:url(#_Linear5);"/>
                <path d="M242.2,125.95C244.5,145.417 239.117,162.917 226.05,178.45C221.617,177.317 216.733,176.483 211.4,175.95L203.15,160.8C198.85,159.767 194.583,159.133 190.35,158.9L187.6,150.75L175.8,144.1C189.033,132.033 203.5,124.667 219.2,122C227.533,120.6 235.033,120.733 241.7,122.4L242.2,125.95M215.15,140.5C217.683,139.033 219.5,137.15 220.6,134.85C221.7,132.617 221.75,130.633 220.75,128.9C219.75,127.167 218,126.2 215.5,126C212.967,125.833 210.433,126.483 207.9,127.95C205.367,129.417 203.55,131.267 202.45,133.5C201.35,135.8 201.3,137.817 202.3,139.55C203.3,141.283 205.067,142.233 207.6,142.4C210.1,142.6 212.617,141.967 215.15,140.5" style="fill:url(#_Linear6);"/>
                <path d="M145.35,202.6C145.483,200.133 145.783,197.6 146.25,195C148.05,184.2 152.083,173.983 158.35,164.35C174.35,159.883 189.067,159.4 202.5,162.9L209.45,176.55L179,185.95L176.65,210.65C165.783,212.883 155.35,210.2 145.35,202.6" style="fill:url(#_Linear7);"/>
                <path d="M175.8,144.1L187.6,150.75L190.35,158.9C179.45,158.2 168.783,160.017 158.35,164.35C162.083,158.617 166.617,153.083 171.95,147.75L175.8,144.1" style="fill:url(#_Linear8);"/>
                <path d="M223.9,180.1C209.3,191.367 193.55,201.55 176.65,210.65L179,185.95L210.1,178.05L223.9,180.1" style="fill:url(#_Linear9);"/>
                <path d="M187.95,244.65C196.917,243.717 205.45,241.183 213.55,237.05L245.9,214.65L245.5,218.9L245.1,221.45C230.9,235.55 215.25,244.033 198.15,246.9L190.8,247.75L187.95,244.65" style="fill:url(#_Linear10);"/>
                <path d="M249.6,211.9C256,203.2 261.1,193.867 264.9,183.9C267.667,175.167 268.6,166.433 267.7,157.7C267.9,150.467 264.9,142.767 258.7,134.6C253.2,130.467 247.7,127.583 242.2,125.95L241.7,122.4C248.833,124.133 255.033,127.633 260.3,132.9C270.433,143.033 274.05,156.717 271.15,173.95C268.55,189.25 261.483,203.4 249.95,216.4C249.95,214.867 249.833,213.367 249.6,211.9" style="fill:url(#_Linear11);"/>
                <path d="M249.95,216.4C261.483,203.4 268.55,189.25 271.15,173.95C274.05,156.717 270.433,143.033 260.3,132.9C255.033,127.633 248.833,124.133 241.7,122.4C235.033,120.733 227.533,120.6 219.2,122C203.5,124.667 189.033,132.033 175.8,144.1L171.95,147.75C166.617,153.083 162.083,158.617 158.35,164.35C152.083,173.983 148.05,184.2 146.25,195C145.783,197.6 145.483,200.133 145.35,202.6C144.583,216.3 148.5,227.45 157.1,236.05L158.2,237.15L161.6,240C169.533,245.9 179.267,248.483 190.8,247.75L198.15,246.9C215.25,244.033 230.9,235.55 245.1,221.45L245.7,218.9C245.967,217.3 247.383,216.467 249.95,216.4" style="fill:none;fill-rule:nonzero;stroke:#000;stroke-opacity:0.43;stroke-width:0.05px;"/>
                <path d="M226.05,178.45C231.983,179.95 237.1,182 241.4,184.6C243.333,190.267 244.667,195.8 245.4,201.2C247.6,204.567 249,208.133 249.6,211.9C249.833,213.367 249.95,214.867 249.95,216.4M175.8,144.1L187.6,150.75L190.35,158.9C194.583,159.133 198.85,159.767 203.15,160.8L211.4,175.95C216.733,176.483 221.617,177.317 226.05,178.45M176.65,210.65L177.25,230.45L187.95,238.4L187.95,244.65L190.8,247.75M245.9,214.65C246.167,210.25 246,205.767 245.4,201.2M158.35,164.35C168.783,160.017 179.45,158.2 190.35,158.9M163.4,238.9L161.6,240M163.4,238.9L177.25,230.45M176.65,210.65L179,185.95L209.45,176.55L211.4,175.95M245.5,218.9L245.1,221.45M245.5,218.9L245.9,214.65" style="fill:none;fill-rule:nonzero;stroke:#000;stroke-opacity:0.43;stroke-width:0.05px;"/>
                <path d="M254.6,138.35C251.467,141.917 252.133,145 256.6,147.6L259.8,147.3C260.5,154.367 259.3,158.083 256.2,158.45C252.033,153.617 249.883,148.267 249.75,142.4C250.917,139.733 252.533,138.383 254.6,138.35" style="fill:#8c6d24;fill-opacity:0.61;"/>
                <path d="M331.1,46.5C301.033,35.9 270.167,36.933 238.5,49.6C172.367,80.267 143.45,106.383 151.75,127.95C153.317,134.483 162.817,138.633 180.25,140.4L172.65,146.8C138.35,137.033 135.933,117.483 165.4,88.15C212.933,50.183 258.217,32.4 301.25,34.8C313.783,35.467 324.35,37.167 332.95,39.9L332.95,33.55C336.35,32.017 338.75,33.483 340.15,37.95L339.35,42.3L339.4,42.3L341.85,43.45L344,44.55C357,51.75 362.533,62.8 360.6,77.7C342.433,113.567 308.833,136.767 259.8,147.3L256.6,147.6C252.133,145 251.467,141.917 254.6,138.35C280.133,137.517 305.55,126.217 330.85,104.45C356.15,82.65 360.717,65.167 344.55,52L340.05,50L336.9,53.65C332.5,53.683 330.633,52.2 331.3,49.2L333.4,47.3L331.1,46.5" style="fill:#030;"/>
                <path d="M344,44.55L341.85,43.45L422.6,1.95C423.067,3.35 423.017,5.183 422.45,7.45C404.983,25.617 378.833,37.983 344,44.55" style="fill:#fc0;"/>
                <path d="M331.1,46.5L333.4,47.3L331.3,49.2L316.05,55.65L331.1,46.5" style="fill:#ffeb9b;"/>
                <path d="M341.85,43.45L339.4,42.3C345.533,36.667 352.183,31.317 359.35,26.25L356.6,34.35L366,21.7C378,13.8 391.333,6.633 406,0.2C415.733,-2.633 421.267,-2.05 422.6,1.95L341.85,43.45" style="fill:url(#_Linear12);"/>
                <path d="M339.4,42.3C345.533,36.667 352.183,31.317 359.35,26.25L356.6,34.35L366,21.7C378,13.8 391.333,6.633 406,0.2C415.733,-2.633 421.267,-2.05 422.6,1.95C423.067,3.35 423.017,5.183 422.45,7.45C404.983,25.617 378.833,37.983 344,44.55M331.1,46.5L316.05,55.65L331.3,49.2" style="fill:none;fill-rule:nonzero;stroke:#000;stroke-opacity:0.43;stroke-width:0.05px;"/>
            </g>
        </g>
    </g>
    <defs>
        <linearGradient id="_Linear1" x1="0" y1="0" x2="1" y2="0" gradientUnits="userSpaceOnUse" gradientTransform="matrix(28.672,0,0,28.672,335.764,12.7135)"><stop offset="0" style="stop-color:#ffe888;stop-opacity:1"/><stop offset="1" style="stop-color:#fff2c4;stop-opacity:1"/></linearGradient>
        <linearGradient id="_Linear2" x1="0" y1="0" x2="1" y2="0" gradientUnits="userSpaceOnUse" gradientTransform="matrix(41.943,0,0,41.943,226.078,175.512)"><stop offset="0" style="stop-color:#dcbb76;stop-opacity:1"/><stop offset="1" style="stop-color:#dba671;stop-opacity:1"/></linearGradient>
        <linearGradient id="_Linear3" x1="0" y1="0" x2="1" y2="0" gradientUnits="userSpaceOnUse" gradientTransform="matrix(69.3043,0,0,69.3043,176.648,218.759)"><stop offset="0" style="stop-color:#dcbb76;stop-opacity:1"/><stop offset="1" style="stop-color:#dba671;stop-opacity:1"/></linearGradient>
        <linearGradient id="_Linear4" x1="0" y1="0" x2="1" y2="0" gradientUnits="userSpaceOnUse" gradientTransform="matrix(31.9488,0,0,31.9488,145.276,225.248)"><stop offset="0" style="stop-color:#dcbb76;stop-opacity:1"/><stop offset="1" style="stop-color:#dba671;stop-opacity:1"/></linearGradient>
        <linearGradient id="_Linear5" x1="0" y1="0" x2="1" y2="0" gradientUnits="userSpaceOnUse" gradientTransform="matrix(24.576,0,0,24.576,163.362,239.555)"><stop offset="0" style="stop-color:#dcbb76;stop-opacity:1"/><stop offset="1" style="stop-color:#dba671;stop-opacity:1"/></linearGradient>
        <linearGradient id="_Linear6" x1="0" y1="0" x2="1" y2="0" gradientUnits="userSpaceOnUse" gradientTransform="matrix(66.8467,0,0,66.8467,175.827,153.986)"><stop offset="0" style="stop-color:#f1e4c9;stop-opacity:1"/><stop offset="1" style="stop-color:#e7c8a1;stop-opacity:1"/></linearGradient>
        <linearGradient id="_Linear7" x1="0" y1="0" x2="1" y2="0" gradientUnits="userSpaceOnUse" gradientTransform="matrix(64.0614,0,0,64.0614,145.369,190.978)"><stop offset="0" style="stop-color:#f1e4c9;stop-opacity:1"/><stop offset="1" style="stop-color:#e7c8a1;stop-opacity:1"/></linearGradient>
        <linearGradient id="_Linear8" x1="0" y1="0" x2="1" y2="0" gradientUnits="userSpaceOnUse" gradientTransform="matrix(31.9488,0,0,31.9488,158.376,155.987)"><stop offset="0" style="stop-color:#f1e4c9;stop-opacity:1"/><stop offset="1" style="stop-color:#e7c8a1;stop-opacity:1"/></linearGradient>
        <linearGradient id="_Linear9" x1="0" y1="0" x2="1" y2="0" gradientUnits="userSpaceOnUse" gradientTransform="matrix(47.1859,0,0,47.1859,176.657,197.893)"><stop offset="0" style="stop-color:#f1e4c9;stop-opacity:1"/><stop offset="1" style="stop-color:#e7c8a1;stop-opacity:1"/></linearGradient>
        <linearGradient id="_Linear10" x1="0" y1="0" x2="1" y2="0" gradientUnits="userSpaceOnUse" gradientTransform="matrix(57.9994,0,0,57.9994,187.9,235.536)"><stop offset="0" style="stop-color:#f1e4c9;stop-opacity:1"/><stop offset="1" style="stop-color:#e7c8a1;stop-opacity:1"/></linearGradient>
        <linearGradient id="_Linear11" x1="0" y1="0" x2="1" y2="0" gradientUnits="userSpaceOnUse" gradientTransform="matrix(30.4742,0,0,30.4742,241.663,176.426)"><stop offset="0" style="stop-color:#f1e4c9;stop-opacity:1"/><stop offset="1" style="stop-color:#e7c8a1;stop-opacity:1"/></linearGradient>
        <linearGradient id="_Linear12" x1="0" y1="0" x2="1" y2="0" gradientUnits="userSpaceOnUse" gradientTransform="matrix(83.2307,0,0,83.2307,339.385,20.907)"><stop offset="0" style="stop-color:#ffe888;stop-opacity:1"/><stop offset="1" style="stop-color:#fff2c4;stop-opacity:1"/></linearGradient>
    </defs>
</svg>
