<?xml version="1.0" encoding="UTF-8"?>
<svg version="1.1" viewBox="0 0 184.29 194.85" xmlns="http://www.w3.org/2000/svg" xmlns:cc="http://creativecommons.org/ns#" xmlns:dc="http://purl.org/dc/elements/1.1/" xmlns:rdf="http://www.w3.org/1999/02/22-rdf-syntax-ns#" xmlns:xlink="http://www.w3.org/1999/xlink">
<metadata>
<rdf:RDF>
<cc:Work rdf:about="">
<dc:format>image/svg+xml</dc:format>
<dc:type rdf:resource="http://purl.org/dc/dcmitype/StillImage"/>
</cc:Work>
</rdf:RDF>
</metadata>
<g transform="translate(-178.48 -132.08)">
<use transform="translate(178.5,132.1)" width="184.25" height="194.8" xlink:href="#a"/>
</g>
<defs>
<g id="a" transform="translate(-178.5,-132.1)">
<path d="m337.4 223.75 4.65 6.85v15.3q6.4-5.35 13.8-2.2 4.75 5.6 1.15 16.85l-7.05 4.75-2.2-3.2 4.8-3.25q4.15-0.65 1.8-11-8-1.6-15.15 6.3l-1.8-2.75 0.8-18.95-6.65 11.45-3.95-1.95 9.8-18.2m1.95 57.05-24.8-25.5 4.25-5.25 25.2 27.7-4.65 3.05" fill="#333" fill-rule="evenodd"/>
<path d="m325.75 165.75 13.35 20.05q11.65 21.5 19.4 44.2 7 20.65 2.45 34.1-14.15 26.15-32.6 41.1-18.25 11.35-31.4 16.75-42.4-11.4-22.6-43.25l11.65-6.7q20.4-15.65 42.25-44.4l6.7-17.6q1.25-17.75-9.2-44.25m-122.9 95.85 34.5 22.25q-35.3-2.55-34.5-22.25m27.7-43.7v22.95l-5.35 3.6-46.7-33.25 7.6-5.1 44.45 34.75-44.45-34.75v-21.2l44.45 33m108.8 62.9 4.65-3.05-25.2-27.7-4.25 5.25 24.8 25.5m-1.95-57.05-9.8 18.2 3.95 1.95 6.65-11.45-0.8 18.95 1.8 2.75q7.15-7.9 15.15-6.3 2.35 10.35-1.8 11l-4.8 3.25 2.2 3.2 7.05-4.75q3.6-11.25-1.15-16.85-7.4-3.15-13.8 2.2v-15.3l-4.65-6.85" fill="#f9c" fill-rule="evenodd"/>
<path d="m296.95 321.95q-10.95 4.5-18.3 4.85-16.25 0.75-28.05-4.15-9.1-8.95-18.95-16.8l-28.85-24.3-2.15-3.1-3.8-15.75 6-1.1q-0.8 19.7 34.5 22.25l37-14.05q32.9-21.25 52.5-61.9 0.9-9.65-1.7-19.4l-27.55-7.85-29.35 6.6q-22.95 10-37.7 30.65l-44.45-33 6-5.2q6.95-8.5 14.25-15.35 12.75-11.85 26.5-18.7 38.35-9.85 66.05-1.2 19.45 20.25 26.25 44.05-6.8-23.8-26.25-44.05-27.7-8.65-66.05 1.2-13.75 6.85-26.5 18.7-7.3 6.85-14.25 15.35l-6 5.2v21.2l-7.6 5.1 4.05-30.5 24.95-27.4 23.5-14.15 41.7-7.05q20.7 1.35 32.45 8.05l20.6 25.6q10.45 26.5 9.2 44.25l-6.7 17.6q-21.85 28.75-42.25 44.4l-11.65 6.7q-19.8 31.85 22.6 43.25m-22.6-43.25q-18.25 9.5-37 12.85-17.7-0.75-36.7-13.1 19 12.35 36.7 13.1 18.75-3.35 37-12.85" fill="#ff62b0" fill-rule="evenodd"/>
<path d="m325.75 165.75 13.35 20.05q11.65 21.5 19.4 44.2 7 20.65 2.45 34.1-14.15 26.15-32.6 41.1-18.25 11.35-31.4 16.75-10.95 4.5-18.3 4.85-16.25 0.75-28.05-4.15-9.1-8.95-18.95-16.8l-28.85-24.3-2.15-3.1-3.8-15.75 6-1.1 34.5 22.25 37-14.05q32.9-21.25 52.5-61.9 0.9-9.65-1.7-19.4l-27.55-7.85-29.35 6.6q-22.95 10-37.7 30.65v22.95l-5.35 3.6-46.7-33.25 4.05-30.5 24.95-27.4 23.5-14.15 41.7-7.05q20.7 1.35 32.45 8.05l20.6 25.6q10.45 26.5 9.2 44.25l-6.7 17.6q-21.85 28.75-42.25 44.4l-11.65 6.7m-88.25-93.8 6-5.2q6.95-8.5 14.25-15.35 12.75-11.85 26.5-18.7 38.35-9.85 66.05-1.2 19.45 20.25 26.25 44.05m-139.05 17.6-7.6 5.1m58.85 72.65q-35.3-2.55-34.5-22.25m-2.2 16.85q19 12.35 36.7 13.1 18.75-3.35 37-12.85m-88.25-72.6 44.45 34.75m-44.45-55.95v21.2" fill="none" stroke="#000" stroke-linecap="round" stroke-linejoin="round" stroke-opacity=".4" stroke-width=".05"/>
</g>
</defs>
</svg>
