<?xml version="1.0" encoding="UTF-8" standalone="no"?>
<!DOCTYPE svg PUBLIC "-//W3C//DTD SVG 1.1//EN" "http://www.w3.org/Graphics/SVG/1.1/DTD/svg11.dtd">
<svg width="100%" height="100%" viewBox="0 0 318 322" version="1.1" xmlns="http://www.w3.org/2000/svg" xmlns:xlink="http://www.w3.org/1999/xlink" xml:space="preserve" xmlns:serif="http://www.serif.com/" style="fill-rule:evenodd;clip-rule:evenodd;stroke-linecap:round;stroke-linejoin:round;">
    <g transform="matrix(1,0,0,1,-114.211,-39.4822)">
        <g transform="matrix(2.0894,0,0,2.0894,114.35,39.6)">
            <g id="sprite0">
                <g id="shape0">
                    <path d="M87.55,24.15L87.5,24.95C87.3,25.817 86.9,26.483 86.3,26.95L98.55,36.7C105.783,42.4 113.583,47.083 121.95,50.75C128.05,45.25 133.417,41.8 138.05,40.4C142.65,38.967 146.617,39.817 149.95,42.95C153.25,46.083 151.7,50.133 145.3,55.1C138.9,60.033 130.983,59.75 121.55,54.25L120,55.9C118.3,57.8 116.883,59.833 115.75,62L115.55,61.45L113.5,60.25L113.45,60.25L119.5,53.05C114.933,51.083 109.6,48.033 103.5,43.9C98.033,40.2 92,35.583 85.4,30.05L84.25,28.8L85.15,29.85L84,28.7L84.1,29L86,32.05L89.75,37.6L92.45,40.9L95.85,44.4L95.3,44.6L95.45,46.2L95.3,46.3L93.55,46.45C92.683,46.65 92.067,47.15 91.7,47.95L91.6,46.55C91.467,45.617 91.15,44.8 90.65,44.1C87.383,39.4 84.683,34.417 82.55,29.15L82.5,29.1L82.5,29.05L82.1,25.8L80.15,29.95L80.1,30C79.533,30 78.967,29.817 78.4,29.45L78.2,27.4C78.333,26.6 78.333,25.783 78.2,24.95L78.3,24.2L78.3,24.15L78.25,24.15L75.95,24.75L75.95,24.25L77.3,23.4C71.6,18.9 65.683,14.717 59.55,10.85C51.283,5.65 42.083,3.033 31.95,3C21.817,2.967 13.9,7.1 8.2,15.4C2.733,23.267 1.567,32.1 4.7,41.9L3.1,42.15L1.4,43.3C-1,34.933 -0.35,26.567 3.35,18.2C7.117,9.5 13.733,3.917 23.2,1.45C32.667,-1.017 41.883,-0.35 50.85,3.45C59.817,7.217 68.2,12.283 76,18.65L78.4,20.55C78.5,19.317 78.95,18.133 79.75,17L80.3,17.05C80.833,17.15 81.3,17.3 81.7,17.5C81.433,19.033 81.267,20.55 81.2,22.05L81.85,21.65C82.15,21.417 82.467,21.267 82.8,21.2L82.85,21.2L83.6,21.05L87.4,20.75C90.567,20.85 93.183,19.8 95.25,17.6L95.4,19.3C96.3,19 97.033,18.533 97.6,17.9L98.6,18.15C99.633,18.35 100.55,18.8 101.35,19.5C99.983,20.233 98.85,21.35 97.95,22.85L98.65,23.95L98.4,24L98.1,24.05L96.65,23.35L94.35,24.95L94.6,23.2L93.9,23C93.3,22.567 92.65,22.35 91.95,22.35L86.85,22.35C85.383,22.383 84.033,22.767 82.8,23.5L83.5,23.9L87.55,24.15M97.4,43.9L97.5,43.95L97.35,44L97.4,43.9M124.2,52C132.667,57.167 139.317,57.417 144.15,52.75C148.95,48.117 149.15,44.833 144.75,42.9C140.35,40.933 133.5,43.967 124.2,52" style="fill:#960;"/>
                    <path d="M87.55,24.15L83.5,23.9L82.8,23.5C84.033,22.767 85.383,22.383 86.85,22.35L91.95,22.35C92.65,22.35 93.3,22.567 93.9,23L85.85,23.3L85.3,23.5L85.9,23.55C86.433,23.55 86.983,23.75 87.55,24.15M82.8,21.2C82.467,21.267 82.15,21.417 81.85,21.65L81.2,22.05C81.267,20.55 81.433,19.033 81.7,17.5C83.033,18.2 83.4,19.417 82.8,21.15L82.8,21.2M75.95,24.75L78.25,24.15L78.3,24.15L78.3,24.2L78.2,24.95C78.333,25.783 78.333,26.6 78.2,27.4L76.45,26.45L75.95,24.75M80.15,29.95L82.1,25.8L82.5,29.05L80.15,29.95M95.85,44.4L92.45,40.9L89.75,37.6L86,32.05L84.1,29L84,28.7L85.15,29.85L84.25,28.8L85.4,30.05C87.167,32.083 88.333,33.583 88.9,34.55L90.9,38L93.7,41.35C94.833,42.383 96.067,43.233 97.4,43.9L97.35,44L95.85,44.4" style="fill:#6b4301;"/>
                    <path d="M116.1,65.8L116.1,66L113.8,65.6C113.4,64.067 112.433,63.083 110.9,62.65L110.7,60.45L111.7,60.8C112.133,60.9 112.6,61.133 113.1,61.5L114.3,62.75L115.65,65L116.1,65.8" style="fill:#baa21b;"/>
                    <path d="M113.45,60.25L113.5,60.25L115.55,61.45L115.75,62L116.1,63.05L116.1,65.8L115.65,65L114.3,62.75L113.1,61.5C112.6,61.133 112.133,60.9 111.7,60.8L110.7,60.45L110.65,60.1L113.45,60.25" style="fill:#a48417;"/>
                    <path d="M1.4,43.3L3.1,42.15L4.7,41.9L7.3,41.5L11.3,43.35L13.65,46.1L11.2,44.55L12.45,47.3L9.45,48.05L7.1,45.05L4.7,46.2L5.65,49.8L2.65,53.75L1.6,50.15L0.9,51.8L0.25,53.15L0,46.15L1.1,43.5L1.4,43.3M111.85,68.4L112.2,69.95C110.267,73.017 108.05,75.817 105.55,78.35L104.2,79.45L104.4,78.4L104.5,78L106.4,75.75L103.3,77.05L103,76.45L102.35,75L103.7,73.95L105.1,72.85L103.15,69.75L100.1,71.7L97.35,69.45L100.5,67.4L98.25,67.35L97.55,67.3L95.8,68.45L98.15,66.25L107.25,63.75L108.2,64.25C110.033,65.283 111.25,66.667 111.85,68.4M93.1,82.3L93,82.35C92.7,82.383 92.3,82.15 91.8,81.65L92.05,81.4L91.65,81.3L92.05,81.4L91.8,81.65L91.8,81.6L91.65,81.45L91.55,81.3L91.65,81.3L92.35,81.2L91.5,81.25L91.4,81.1L92.5,80.45L92.35,79.25C92.117,78.417 91.617,77.633 90.85,76.9L89.9,77.4L89.6,77.55L89.5,77.25L89.3,76.35C89.233,75.817 89.25,75.433 89.35,75.2L89.6,74.9L89.6,74.85L90,74.85C90.233,74.95 90.533,75.2 90.9,75.6L92.5,78.05L92.85,78.85L93.35,80.85C93.483,81.65 93.4,82.133 93.1,82.3M12.25,62.4L10,63C8.833,62.8 7.933,62.3 7.3,61.5L7.25,61.4L7.2,61.35L7.1,61.2C5.8,58.633 6.65,56.1 9.65,53.6C11.183,52.467 13.117,52.333 15.45,53.2L16.45,54.7C16.717,55.267 16.333,56.667 15.3,58.9L15.3,58.85L15.3,58.95C15,59.05 14.633,58.733 14.2,58C14.633,58.733 15,59.05 15.3,58.95L15.05,59.35L15.35,58.9L15.5,59.25L15.45,59.3L14.95,59.75L14.85,59.3L14.95,59.75L14.65,60.1L14.85,59.3L14.9,59.05L14.3,58.3L14.2,58L14.3,58.3L14.7,58.8L13.8,57.95L14.2,58L14.1,57.85L13.6,56.4L12.05,56.1L11.8,56.1L11.15,56.25C10.517,56.483 10.117,57.067 9.95,58C9.883,58.333 9.867,58.717 9.9,59.15L10.8,60L11.15,60.65L11.9,61.5L12.2,61.85L12.3,61.95L12.6,62.2L12.25,62.4L12.2,61.85L12.25,62.4M89.5,77.25L89.9,77.4L89.5,77.25M14.6,60.25L14.55,60.3L14.35,60.55L13.65,61.25L14.35,60.5L14.6,60.25M15.15,60.45L14.95,60.75L15.15,60.4L15.15,60.45L15.15,60.4L15.45,59.7L15.55,59.45L15.55,59.75L15.15,60.45" style="fill:#778134;"/>
                    <path d="M104.4,78.4L103.05,79.3C102.717,78.633 102.55,78.033 102.55,77.5C102.517,76.967 102.667,76.617 103,76.45L103.3,77.05L106.4,75.75L104.5,78L104.4,78.4M103.7,73.95L103.05,72.6L100.1,73.2L97.15,71.15L90,74.85L89.6,74.85L95.65,69.25L98.25,67.35L100.5,67.4L97.35,69.45L100.1,71.7L103.15,69.75L105.1,72.85L103.7,73.95" style="fill:#9ca844;"/>
                    <path d="M103.05,79.3L102.35,79.75L93.1,82.3C93.4,82.133 93.483,81.65 93.35,80.85L92.85,78.85L92.5,78.05L90.9,75.6C90.533,75.2 90.233,74.95 90,74.85L97.15,71.15L100.1,73.2L103.05,72.6L103.7,73.95L102.35,75L103,76.45C102.667,76.617 102.517,76.967 102.55,77.5C102.55,78.033 102.717,78.633 103.05,79.3M7.1,61.2L7.05,61.25L1.45,55.05L0.9,51.8L1.6,50.15L2.65,53.75L5.65,49.8L4.7,46.2L7.1,45.05L9.45,48.05L12.45,47.3L11.2,44.55L13.65,46.1L16.45,54.7L15.45,53.2C13.117,52.333 11.183,52.467 9.65,53.6C6.65,56.1 5.8,58.633 7.1,61.2M99.2,78.35L99.25,78.9L99.7,79.25L100.35,79.15L100.75,78.7L100.75,78.1C100.65,77.9 100.483,77.783 100.25,77.75L99.65,77.85L99.2,78.35M97.7,79.6L98.4,78.8C98.533,78.433 98.517,78.1 98.35,77.8C98.183,77.5 97.917,77.317 97.55,77.25L96.5,77.4C96.133,77.6 95.883,77.883 95.75,78.25C95.617,78.583 95.633,78.9 95.8,79.2L96.6,79.8L97.7,79.6M4.6,53.9L3.55,53.85C3.25,54.017 3.1,54.3 3.1,54.7C3.1,55.133 3.25,55.567 3.55,56L4.6,57L5.65,57.05C5.95,56.883 6.1,56.6 6.1,56.2L5.65,54.85C5.35,54.417 5,54.1 4.6,53.9M6.75,52.4C6.517,52.3 6.333,52.3 6.2,52.4C6.033,52.467 5.95,52.617 5.95,52.85L6.2,53.6L6.8,54.15L7.35,54.15L7.6,53.7L7.35,53L6.75,52.4" style="fill:#a6ba50;"/>
                    <path d="M113.8,65.6L113.95,66.35L111.85,68.4C111.25,66.667 110.033,65.283 108.2,64.25L110.45,62.55L110.9,62.65C112.433,63.083 113.4,64.067 113.8,65.6" style="fill:#484e1f;"/>
                    <path d="M97.7,79.6L96.6,79.8L95.8,79.2C95.633,78.9 95.617,78.583 95.75,78.25C95.883,77.883 96.133,77.6 96.5,77.4L97.55,77.25C97.917,77.317 98.183,77.5 98.35,77.8C98.517,78.1 98.533,78.433 98.4,78.8L97.7,79.6M99.2,78.35L99.65,77.85L100.25,77.75C100.483,77.783 100.65,77.9 100.75,78.1L100.75,78.7L100.35,79.15L99.7,79.25L99.25,78.9L99.2,78.35M6.75,52.4L7.35,53L7.6,53.7L7.35,54.15L6.8,54.15L6.2,53.6L5.95,52.85C5.95,52.617 6.033,52.467 6.2,52.4C6.333,52.3 6.517,52.3 6.75,52.4M4.6,53.9C5,54.1 5.35,54.417 5.65,54.85L6.1,56.2C6.1,56.6 5.95,56.883 5.65,57.05L4.6,57L3.55,56C3.25,55.567 3.1,55.133 3.1,54.7C3.1,54.3 3.25,54.017 3.55,53.85L4.6,53.9" style="fill:#fff;"/>
                    <path d="M91.8,81.65C84.967,88.483 78.383,93.567 72.05,96.9L75.85,92.85C82.55,88.817 88.05,84.283 92.35,79.25L92.5,80.45L91.4,81.1L91.5,81.25L91.65,81.3L91.55,81.3L91.65,81.45L91.8,81.6L91.8,81.65M14.35,60.55L14.55,60.3L14.6,60.25L14.65,60.1L14.95,59.75L15.15,60.4L14.95,60.75L15.15,60.45L15.45,61.55C26.883,84.05 39.317,96.167 52.75,97.9C54.217,98.1 53.117,98.5 49.45,99.1L49.1,99.15L48.75,99.05C44.917,98.017 41.083,96.167 37.25,93.5C31.717,89.367 27.283,84.533 23.95,79C19.617,73.267 16.417,67.117 14.35,60.55" style="fill:#69c;"/>
                    <path d="M91.5,81.25L92.35,81.2L91.65,81.3L91.5,81.25" style="fill:#666;"/>
                    <path d="M72.05,96.9C48.617,109.3 28.683,97.8 12.25,62.4L12.6,62.2L12.3,61.95L12.2,61.85L11.9,61.5L11.15,60.65L10.8,60L9.9,59.15C9.867,58.717 9.883,58.333 9.95,58C10.117,57.067 10.517,56.483 11.15,56.25L11.8,56.1L12.05,56.1L13.6,56.4L14.1,57.85L13.8,57.95L14.7,58.8L14.85,59.3L14.65,60.1L14.6,60.25L14.35,60.5L13.65,61.25L14.35,60.55C16.417,67.117 19.617,73.267 23.95,79C27.283,84.533 31.717,89.367 37.25,93.5C41.083,96.167 44.917,98.017 48.75,99.05L49.1,99.15L49.45,99.1C53.117,98.5 54.217,98.1 52.75,97.9C64.483,99.2 76.983,92.417 90.25,77.55L89.9,77.4L90.85,76.9C91.617,77.633 92.117,78.417 92.35,79.25C88.05,84.283 82.55,88.817 75.85,92.85L72.05,96.9" style="fill:#003;"/>
                    <path d="M91.8,81.65C84.967,88.483 78.383,93.567 72.05,96.9C48.617,109.3 28.683,97.8 12.25,62.4M91.5,81.25L92.35,81.2M91.65,81.3L92.05,81.4L91.8,81.65M91.65,81.3L91.5,81.25" style="fill:none;fill-rule:nonzero;stroke:#534831;stroke-opacity:0.42;stroke-width:1.5px;"/>
                    <path d="M52.75,97.9C64.483,99.2 76.983,92.417 90.25,77.55L89.9,77.4L89.5,77.25M14.85,59.3L14.95,59.75L15.15,60.4L15.15,60.45L15.45,61.55C26.883,84.05 39.317,96.167 52.75,97.9M14.7,58.8L14.85,59.3" style="fill:none;fill-rule:nonzero;stroke:#534831;stroke-opacity:0.42;stroke-width:1.5px;"/>
                    <path d="M115.75,62C116.883,59.833 118.3,57.8 120,55.9L121.55,54.25C130.983,59.75 138.9,60.033 145.3,55.1C151.7,50.133 153.25,46.083 149.95,42.95C146.617,39.817 142.65,38.967 138.05,40.4C133.417,41.8 128.05,45.25 121.95,50.75C113.583,47.083 105.783,42.4 98.55,36.7L86.3,26.95C86.9,26.483 87.3,25.817 87.5,24.95L87.55,24.15L83.5,23.9L82.8,23.5C84.033,22.767 85.383,22.383 86.85,22.35L91.95,22.35C92.65,22.35 93.3,22.567 93.9,23L94.6,23.2L94.35,24.95L96.65,23.35L98.1,24.05L98.4,24L98.65,23.95L97.95,22.85C98.85,21.35 99.983,20.233 101.35,19.5C100.55,18.8 99.633,18.35 98.6,18.15L97.6,17.9C97.033,18.533 96.3,19 95.4,19.3L95.25,17.6C93.183,19.8 90.567,20.85 87.4,20.75L83.6,21.05L82.85,21.2L82.8,21.2C82.467,21.267 82.15,21.417 81.85,21.65L81.2,22.05C81.267,20.55 81.433,19.033 81.7,17.5C81.3,17.3 80.833,17.15 80.3,17.05L79.75,17C78.95,18.133 78.5,19.317 78.4,20.55L76,18.65C68.2,12.283 59.817,7.217 50.85,3.45C41.883,-0.35 32.667,-1.017 23.2,1.45C13.733,3.917 7.117,9.5 3.35,18.2C-0.35,26.567 -1,34.933 1.4,43.3L3.1,42.15L4.7,41.9C1.567,32.1 2.733,23.267 8.2,15.4C13.9,7.1 21.817,2.967 31.95,3C42.083,3.033 51.283,5.65 59.55,10.85C65.683,14.717 71.6,18.9 77.3,23.4L75.95,24.25L75.95,24.75L78.25,24.15L78.3,24.15L78.3,24.2L78.2,24.95C78.333,25.783 78.333,26.6 78.2,27.4L78.4,29.45C78.967,29.817 79.533,30 80.1,30L80.15,29.95L82.1,25.8L82.5,29.05L82.5,29.1L82.55,29.15C84.683,34.417 87.383,39.4 90.65,44.1C91.15,44.8 91.467,45.617 91.6,46.55L91.7,47.95C92.067,47.15 92.683,46.65 93.55,46.45L95.3,46.3L95.45,46.2L95.3,44.6L95.85,44.4L92.45,40.9L89.75,37.6L86,32.05L84.1,29L84,28.7L85.15,29.85L84.25,28.8L85.4,30.05C92,35.583 98.033,40.2 103.5,43.9C109.6,48.033 114.933,51.083 119.5,53.05L113.45,60.25L113.5,60.25L115.55,61.45L115.75,62M111.85,68.4L112.2,69.95C110.267,73.017 108.05,75.817 105.55,78.35L104.2,79.45L104.4,78.4L104.5,78L106.4,75.75L103.3,77.05L103,76.45L102.35,75L103.7,73.95L105.1,72.85L103.15,69.75L100.1,71.7L97.35,69.45L100.5,67.4L98.25,67.35L95.65,69.25L89.6,74.85M103.05,79.3L102.35,79.75L93.1,82.3C93.4,82.133 93.483,81.65 93.35,80.85L92.85,78.85L92.5,78.05L90.9,75.6C90.533,75.2 90.233,74.95 90,74.85M12.25,62.4L10,63C8.833,62.8 7.933,62.3 7.3,61.5L7.25,61.4L7.2,61.35L7.1,61.2L7.05,61.25L1.45,55.05L0.9,51.8L0.25,53.15L0,46.15L1.1,43.5L1.4,43.3M116.1,65.8L115.65,65L114.3,62.75L113.1,61.5C112.6,61.133 112.133,60.9 111.7,60.8L110.7,60.45M110.9,62.65C112.433,63.083 113.4,64.067 113.8,65.6M98.25,67.35L97.55,67.3L95.8,68.45L98.15,66.25L107.25,63.75L108.2,64.25C110.033,65.283 111.25,66.667 111.85,68.4M124.2,52C133.5,43.967 140.35,40.933 144.75,42.9C149.15,44.833 148.95,48.117 144.15,52.75C139.317,57.417 132.667,57.167 124.2,52M0.9,51.8L1.6,50.15L2.65,53.75L5.65,49.8L4.7,46.2L7.1,45.05L9.45,48.05L12.45,47.3L11.2,44.55L13.65,46.1L11.3,43.35L7.3,41.5L4.7,41.9M7.1,61.2C5.8,58.633 6.65,56.1 9.65,53.6C11.183,52.467 13.117,52.333 15.45,53.2L16.45,54.7L13.65,46.1M14.2,58L14.1,57.85L14.2,58C14.633,58.733 15,59.05 15.3,58.95L15.3,58.85L15.3,58.9C16.333,56.667 16.717,55.267 16.45,54.7M14.1,57.85L13.8,57.95L14.7,58.8L14.3,58.3L14.2,58M15.35,58.9L15.05,59.35L15.3,58.95L15.3,58.9L15.35,58.9M14.1,57.85L13.6,56.4L12.05,56.1L11.8,56.1L11.15,56.25C10.517,56.483 10.117,57.067 9.95,58C9.883,58.333 9.867,58.717 9.9,59.15L10.8,60L11.15,60.65L11.9,61.5L12.2,61.85L12.25,62.4" style="fill:none;fill-rule:nonzero;stroke:#895501;stroke-width:0.1px;"/>
                </g>
                <g id="sprite1" transform="matrix(1.2574,-0.1174,0,1.2574,4.1,60.1001)">
                    <g id="sprite2" transform="matrix(0.557,-0.8379,0.38,1.0559,17.7499,43.1)">
                        <g id="shape1">
                            <path d="M14.05,8.85L14.15,8.75L14.85,8.2C16.683,6.8 18.983,5.2 21.75,3.4L22.05,3.25L22.3,3.05C24.033,1.983 25.8,0.967 27.6,0L22.95,3.5L22.9,3.5L22.8,3.6L22.7,3.65L22.65,3.75L22.45,4.05L22.35,3.95L16.75,8.1L16.55,10.05L15.25,9.4L14.05,8.9L14.05,8.85M22.3,3.05L22.25,3.2L22.35,3.15L22.3,3.05M10.65,11.7L10.65,11.65L12.55,10.05L16.55,10.05L12.75,10.7L8.45,14.55L6.05,18.85L7.9,21.25L4.3,20.4C5.167,18.667 6.083,17.05 7.05,15.55L7.9,14.15L10.3,12L10.65,11.7M14.9,16.5L17.65,16.8L19.5,16.8L26,5.6L25.85,6L24.15,10.5C22.883,13.533 21.417,16.417 19.75,19.15L11.05,16L14.9,16.5M0,30.6L0.5,29.15C1.4,26.817 2.333,24.617 3.3,22.55L4.4,22.25L7.9,21.25L4.1,23.65L1.35,29.05L4.25,28.6C4.983,29.033 5.933,28.833 7.1,28L9.75,26.7L9.75,24.65L12.75,24.65L16.55,21.1L12.15,16.8L18.35,21.15C17.083,22.617 15.317,24.117 13.05,25.65L10.9,25.6L11.05,26.9L10.95,26.95L7.75,28.75L5.95,29.7L0,30.6" style="fill:#efe1a3;"/>
                            <path d="M23,6.85C22.633,6.85 22.35,6.717 22.15,6.45C21.95,6.217 21.85,5.933 21.85,5.6L21.85,5.25L22.45,4.05L22.95,3.5C23.083,3.4 23.233,3.35 23.4,3.35L24,3.45L24.4,3.75L24.6,4.15L24.2,4.25L23.4,4.8C22.967,5.533 22.767,6.033 22.8,6.3L23,6.85M26,5.6L26.1,5.2L27.6,0C27.7,2.033 27.55,4.583 27.15,7.65L27,8.45L26.5,10.75L26.3,11.4L26.3,11.55L25.45,14L24.35,14.75L24.15,10.5L25.85,6L26,5.6M20.35,23.25L20.3,23.3L18.7,23.35L18.35,21.15L12.15,16.8L11.05,16L19.75,19.15L20.35,23.25M13.25,28.65L13.25,28.7L11,28.4L10.95,26.95L11.05,26.9L10.9,25.6L13.05,25.65L13.25,28.65" style="fill:#651b33;"/>
                            <path d="M16.55,10.05L16.75,8.1L22.35,3.95L22.45,4.05L22.65,3.75L22.95,3.5L27.6,0L26.1,5.2L26,5.6L19.5,16.8L17.65,16.8C18.317,16.567 18.867,16.233 19.3,15.8L20.15,14.7L20.75,12.95L20.85,12L20.8,10.9C20.7,10.233 20.45,9.617 20.05,9.05C19.583,8.45 19,8.167 18.3,8.2L16.75,8.1L18.3,8.2C19,8.167 19.583,8.45 20.05,9.05C20.45,9.617 20.7,10.233 20.8,10.9L20.85,12L20.75,12.95L20.15,14.7L19.3,15.8C18.867,16.233 18.317,16.567 17.65,16.8L14.9,16.5L14.45,16.35C13.817,16.017 13.417,15.617 13.25,15.15C12.85,14.183 12.85,13.25 13.25,12.35C13.75,11.617 14.35,11.2 15.05,11.1L17.8,11.25C18.267,11.817 18.55,12.35 18.65,12.85C18.783,13.683 18.483,14.333 17.75,14.8L15.9,15.3C15.333,15.067 15.05,14.667 15.05,14.1C15.05,13.167 15.467,12.633 16.3,12.5C16.7,12.433 16.867,12.617 16.8,13.05L16.55,14.45L16.8,13.05C16.867,12.617 16.7,12.433 16.3,12.5C15.467,12.633 15.05,13.167 15.05,14.1C15.05,14.667 15.333,15.067 15.9,15.3L17.75,14.8C18.483,14.333 18.783,13.683 18.65,12.85C18.55,12.35 18.267,11.817 17.8,11.25L15.05,11.1C14.35,11.2 13.75,11.617 13.25,12.35C12.85,13.25 12.85,14.183 13.25,15.15C13.417,15.617 13.817,16.017 14.45,16.35L14.9,16.5L11.05,16L12.15,16.8L16.55,21.1L12.75,24.65L9.75,24.65L9.75,26.7L7.1,28C5.933,28.833 4.983,29.033 4.25,28.6L3.65,28.05C3.35,27.65 3.233,27.183 3.3,26.65L3.45,25.95C3.683,25.317 4.067,24.8 4.6,24.4C5.833,23.4 7.25,22.917 8.85,22.95C10.517,23.283 11.75,22.75 12.55,21.35L12.85,20.4C12.883,18.1 11.733,17 9.4,17.1C8.067,17.5 7.483,18.133 7.65,19C7.75,19.4 7.967,19.717 8.3,19.95C7.967,19.717 7.75,19.4 7.65,19C7.483,18.133 8.067,17.5 9.4,17.1C11.733,17 12.883,18.1 12.85,20.4L12.55,21.35C11.75,22.75 10.517,23.283 8.85,22.95C7.25,22.917 5.833,23.4 4.6,24.4C4.067,24.8 3.683,25.317 3.45,25.95L3.3,26.65C3.233,27.183 3.35,27.65 3.65,28.05L4.25,28.6L1.35,29.05L4.1,23.65L7.9,21.25L6.05,18.85L8.45,14.55L12.75,10.7L16.55,10.05M22.45,4.05L21.85,5.25L21.85,5.6C21.85,5.933 21.95,6.217 22.15,6.45C22.35,6.717 22.633,6.85 23,6.85L23.1,6.85L23.55,6.75L23.95,6.45L24.2,6.25L24.35,6.05L24.7,4.9L24.6,4.15L24.4,3.75L24,3.45L23.4,3.35C23.233,3.35 23.083,3.4 22.95,3.5L22.45,4.05M6.2,26.1C5.967,26.733 5.567,26.983 5,26.85C4.567,25.883 4.85,25.167 5.85,24.7L6.75,24.7C7.883,25.733 8,26.833 7.1,28C8,26.833 7.883,25.733 6.75,24.7L5.85,24.7C4.85,25.167 4.567,25.883 5,26.85C5.567,26.983 5.967,26.733 6.2,26.1M9.3,20.25L10,20.1L10.75,19.3L10.65,18.9C10.417,18.367 10.083,18.283 9.65,18.65C9.95,18.483 10.217,18.617 10.45,19.05L10.5,19.45L9.95,20.05L9.3,20.25L9.1,20.25L9.3,20.25M8.3,19.95L9.1,20.25L8.35,19.85L8.3,19.95M3.3,26.65C3.233,26.25 3.283,25.833 3.45,25.4C3.683,24.767 4.067,24.267 4.6,23.9C5.7,22.967 6.95,22.5 8.35,22.5L8.85,22.5C10.35,22.633 11.4,22.167 12,21.1L12.25,20.35C12.283,18.417 11.333,17.5 9.4,17.6C8.3,17.933 7.8,18.45 7.9,19.15L8.35,19.85L7.9,19.15C7.8,18.45 8.3,17.933 9.4,17.6C11.333,17.5 12.283,18.417 12.25,20.35L12,21.1C11.4,22.167 10.35,22.633 8.85,22.5L8.35,22.5C6.95,22.5 5.7,22.967 4.6,23.9C4.067,24.267 3.683,24.767 3.45,25.4C3.283,25.833 3.233,26.25 3.3,26.65" style="fill:#f8b355;"/>
                            <path d="M14.05,8.9L15.25,9.4L16.55,10.05L14,10.05L14.05,8.9M4.4,22.25L4.3,20.4L7.9,21.25L4.4,22.25M7.75,28.75C7.383,28.95 7,29.167 6.6,29.4L6,29.7L5.95,29.7L7.75,28.75" style="fill:#9e2b4f;"/>
                            <path d="M24.35,14.75L24.45,16.55L22.1,21.5L20.35,23.25L19.75,19.15C21.417,16.417 22.883,13.533 24.15,10.5L24.35,14.75M18.7,23.35L18.85,24.45L15.35,27.3L14.7,27.75L13.25,28.65L13.05,25.65C15.317,24.117 17.083,22.617 18.35,21.15L18.7,23.35M11,28.4L11.05,29.85C9.417,30.583 7.733,31.183 6,31.65L5.95,29.7L6,29.7L6.6,29.4C7,29.167 7.383,28.95 7.75,28.75L10.95,26.95L11,28.4" style="fill:#925007;"/>
                            <path d="M9.3,20.25L9.95,20.05L10.5,19.45L10.45,19.05C10.217,18.617 9.95,18.483 9.65,18.65C10.083,18.283 10.417,18.367 10.65,18.9L10.75,19.3L10,20.1L9.3,20.25" style="fill:#f8e25e;"/>
                            <path d="M9.1,20.25L8.3,19.95L8.35,19.85L9.1,20.25" style="fill:#ec4b75;"/>
                            <path d="M6,31.65L0.2,32.6L0,30.6L5.95,29.7L6,31.65" style="fill:#f58d07;"/>
                            <path d="M22.3,3.05L22.05,3.25L21.75,3.4C18.983,5.2 16.683,6.8 14.85,8.2L14.15,8.75L14.05,8.85M22.45,4.05L22.65,3.75L22.7,3.65L22.8,3.6L22.9,3.5L22.95,3.5C23.083,3.4 23.233,3.35 23.4,3.35L24,3.45L24.4,3.75L24.6,4.15L24.7,4.9L24.35,6.05L24.2,6.25L23.95,6.45L23.55,6.75L23.1,6.85L23,6.85L22.8,6.3C22.767,6.033 22.967,5.533 23.4,4.8L24.2,4.25L24.6,4.15M27.6,0C25.8,0.967 24.033,1.983 22.3,3.05M10.65,11.7L10.65,11.65L12.55,10.05M4.3,20.4C5.167,18.667 6.083,17.05 7.05,15.55L7.9,14.15L10.3,12M22.45,4.05L21.85,5.25L21.85,5.6C21.85,5.933 21.95,6.217 22.15,6.45C22.35,6.717 22.633,6.85 23,6.85M26,5.6L26.1,5.2L27.6,0M13.25,28.65L13.25,28.7M0,30.6L0.5,29.15C1.4,26.817 2.333,24.617 3.3,22.55M11.05,16L19.75,19.15C21.417,16.417 22.883,13.533 24.15,10.5L25.85,6L26,5.6M13.05,25.65C15.317,24.117 17.083,22.617 18.35,21.15M10.95,26.95L11.05,26.9L10.9,25.6L13.05,25.65M10.95,26.95L7.75,28.75C7.383,28.95 7,29.167 6.6,29.4L6,29.7L5.95,29.7L0,30.6" style="fill:none;fill-rule:nonzero;stroke:#5a0707;stroke-opacity:0.38;stroke-width:0.5px;"/>
                            <path d="M17.65,16.8C18.317,16.567 18.867,16.233 19.3,15.8L20.15,14.7L20.75,12.95L20.85,12L20.8,10.9C20.7,10.233 20.45,9.617 20.05,9.05C19.583,8.45 19,8.167 18.3,8.2L16.75,8.1M16.55,14.45L16.8,13.05C16.867,12.617 16.7,12.433 16.3,12.5C15.467,12.633 15.05,13.167 15.05,14.1C15.05,14.667 15.333,15.067 15.9,15.3L17.75,14.8C18.483,14.333 18.783,13.683 18.65,12.85C18.55,12.35 18.267,11.817 17.8,11.25L15.05,11.1C14.35,11.2 13.75,11.617 13.25,12.35C12.85,13.25 12.85,14.183 13.25,15.15C13.417,15.617 13.817,16.017 14.45,16.35L14.9,16.5L17.65,16.8M8.3,19.95C7.967,19.717 7.75,19.4 7.65,19C7.483,18.133 8.067,17.5 9.4,17.1C11.733,17 12.883,18.1 12.85,20.4L12.55,21.35C11.75,22.75 10.517,23.283 8.85,22.95C7.25,22.917 5.833,23.4 4.6,24.4C4.067,24.8 3.683,25.317 3.45,25.95L3.3,26.65C3.233,27.183 3.35,27.65 3.65,28.05L4.25,28.6C4.983,29.033 5.933,28.833 7.1,28C8,26.833 7.883,25.733 6.75,24.7L5.85,24.7C4.85,25.167 4.567,25.883 5,26.85C5.567,26.983 5.967,26.733 6.2,26.1M9.3,20.25L9.95,20.05L10.5,19.45L10.45,19.05C10.217,18.617 9.95,18.483 9.65,18.65C10.083,18.283 10.417,18.367 10.65,18.9L10.75,19.3L10,20.1L9.3,20.25L9.1,20.25L8.3,19.95M8.35,19.85L7.9,19.15C7.8,18.45 8.3,17.933 9.4,17.6C11.333,17.5 12.283,18.417 12.25,20.35L12,21.1C11.4,22.167 10.35,22.633 8.85,22.5L8.35,22.5C6.95,22.5 5.7,22.967 4.6,23.9C4.067,24.267 3.683,24.767 3.45,25.4C3.283,25.833 3.233,26.25 3.3,26.65M8.35,19.85L9.1,20.25" style="fill:none;fill-rule:nonzero;stroke:#f58d07;stroke-width:0.1px;"/>
                            <path d="M14,10.05L14.05,8.9M26.3,11.4L26.3,11.55" style="fill:none;fill-rule:nonzero;stroke:#651b33;stroke-width:0.1px;"/>
                            <path d="M27.6,0C27.7,2.033 27.55,4.583 27.15,7.65L27,8.45L26.5,10.75L26.3,11.4M26.3,11.55L25.45,14M24.45,16.55L22.1,21.5L20.3,23.3M18.85,24.45L15.35,27.3L14.7,27.75L13.25,28.65M11.05,29.85C9.417,30.583 7.733,31.183 6,31.65L0.2,32.6L0,30.6" style="fill:none;fill-rule:nonzero;stroke:#651b33;stroke-width:0.5px;"/>
                            <path d="M25.45,14L24.35,14.75L24.45,16.55" style="fill:none;fill-rule:nonzero;stroke:#780707;stroke-width:0.1px;"/>
                            <path d="M13.25,28.7L11,28.4L11.05,29.85M13.05,25.65L13.25,28.65M11,28.4L10.95,26.95" style="fill:none;fill-rule:nonzero;stroke:#5a0707;stroke-opacity:0.38;stroke-width:0.1px;"/>
                        </g>
                    </g>
                    <g id="sprite3" transform="matrix(0.2472,1.0287,0.8412,-0.2021,5.90002,11.6)">
                        <g id="shape2">
                            <path d="M36.45,5.65L35.8,4.85C35.733,5.217 35.4,5.483 34.8,5.65L28.3,6.35L31.7,6.4L33.45,6.75C33.55,7.183 33.317,7.533 32.75,7.8C28.083,7.333 24.067,8.017 20.7,9.85C23.2,9.217 25.75,8.883 28.35,8.85L33.25,8.85C33.95,8.683 34.3,8.25 34.3,7.55L33.45,6.75L35.85,6.35L36.45,5.65M36.45,4.85L36.5,4.9C36.8,5.167 36.983,5.483 37.05,5.85C36.683,6.917 35.9,7.483 34.7,7.55C35.133,8.15 35.217,8.767 34.95,9.4C34.517,10 33.8,10.283 32.8,10.25L31,10.05C31.4,10.683 31.467,11.3 31.2,11.9C30.733,12.7 29.9,13.2 28.7,13.4C29.367,14.133 29.467,14.933 29,15.8C28.7,16.333 28.217,16.683 27.55,16.85L24.55,17.2C24.883,17.667 24.95,18.183 24.75,18.75L23,19.85L20.8,20.1C21.067,20.467 21.15,20.817 21.05,21.15C20.85,21.617 20.467,22.017 19.9,22.35C19.033,22.917 18.15,23.2 17.25,23.2L15,23.45L14.5,24.05C14.7,24.417 14.733,24.783 14.6,25.15C14.467,25.617 14.2,26.017 13.8,26.35C11.933,27.25 9.95,27.983 7.85,28.55L7.1,29.25L6.4,32.1L5.75,34L4.6,35.35L3.05,36.6L5.15,34L6.8,28.7L13.6,25.5L14.1,24.75L13.95,23.4C13.917,23.867 13.617,24.3 13.05,24.7L12.45,24.75L6.6,28.35L4.9,33.65L3.05,35.75L2.7,35.9C1.533,36.267 1.4,35.983 2.3,35.05L3.8,33.4L4.5,31.6L4.95,29.35L4.95,27.6C4.483,26.167 4.217,25.067 4.15,24.3L4.1,24C4.1,22.867 4.417,21.75 5.05,20.65L5.05,20.55L5.6,20.15L6.15,20.1L6.35,20.3L5.65,26.55L6.5,25.9L6.4,20.4L6.55,20.55L6.6,20.1L6.5,21.6C7.333,17.267 8.517,14.017 10.05,11.85L10.15,12.25L7.45,24.3L8,23.4L8.25,22.2C7.95,24.133 8.283,23.967 9.25,21.7C9.117,21.833 9.833,19.183 11.4,13.75C12.967,8.317 14.133,5.55 14.9,5.45L15.6,5.4L15.6,5.55L16.25,5.55L16.25,5.75L14.05,9.8L13.6,10.95L12.6,13.3C12.1,14.433 11.65,15.583 11.25,16.75L11.2,16.9L10.95,17.6L11.1,17.25L10.6,18.8L10.5,19.1L10.4,19.35C10.267,19.817 10.317,19.867 10.55,19.5L13.5,13.2C14.8,10.167 15.983,7.8 17.05,6.1L17.6,5.35C18.8,3.617 20.2,2.617 21.8,2.35C18.8,5.583 16.4,9.267 14.6,13.4L16.9,10.1L19.4,6.2L21.55,3.65C22.217,2.85 23.65,2.333 25.85,2.1C23.283,4.2 20.833,6.917 18.5,10.25L20.95,8.35L23.1,5.9L22.7,6.4L23.5,5.5L22.3,8.1L24.7,6.4C25.333,6.1 25.967,5.85 26.6,5.65C27.333,4.817 28.117,4.083 28.95,3.45L27.9,3.8L30.1,1.55L29.7,1.8L30.9,0.4L31.9,0.45L32.55,0.9L33,1.7L33.55,1.5L34.7,1.55L35.4,2L35.95,3.05L35.5,4.35L36.45,4.85M6.7,16.65L6.75,15.55L6.7,17.2L6.7,16.65M35.15,2.6L34.5,2.25C31.867,2.883 29.667,3.9 27.9,5.3C30.167,4.5 32.35,4.05 34.45,3.95L35.25,3.65L35.15,2.6M28.15,13.9L28.15,13.85C27.85,13.417 27.55,13.25 27.25,13.35L26.85,14.1C21.283,13.267 16.25,14.767 11.75,18.6L10.6,19.65L11.7,18.8C15.033,16.367 18.667,15.15 22.6,15.15L27.3,15.2C27.833,14.833 28.117,14.4 28.15,13.9M29.45,11.5C29.917,11.167 30.133,10.783 30.1,10.35L29.65,9.65C29.65,10.15 29.467,10.517 29.1,10.75C28.4,10.35 27.6,10.217 26.7,10.35C23.233,10.517 20.017,11.367 17.05,12.9C15.883,13.567 14.85,14.317 13.95,15.15C18.15,12.65 22.367,11.7 26.6,12.3L28.15,12.55L27.7,11.7L29.45,11.5M22.25,17.45C17.55,16.817 12.933,18.817 8.4,23.45C11.833,20.65 15.183,19.017 18.45,18.55L21.8,18.45L22.95,18.45L23.7,18L24.15,16.75L23.65,16.1L23.85,16.35C23.417,17.25 22.883,17.617 22.25,17.45M13.4,22.85L13.05,22.6L15.4,21.75L18.6,21.65L19.4,21.2L20.1,20.55L20,19.55L19.4,19C19.633,19.233 19.667,19.5 19.5,19.8C19.467,20.167 19.117,20.383 18.45,20.45C14.183,20.95 10.4,23 7.1,26.6C9.267,24.7 11.367,23.45 13.4,22.85" style="fill:#e0b04f;"/>
                            <path d="M36.45,5.65L35.85,6.35L33.45,6.75L34.3,7.55C34.3,8.25 33.95,8.683 33.25,8.85L28.35,8.85C25.75,8.883 23.2,9.217 20.7,9.85C24.067,8.017 28.083,7.333 32.75,7.8C33.317,7.533 33.55,7.183 33.45,6.75L31.7,6.4L28.3,6.35L34.8,5.65C35.4,5.483 35.733,5.217 35.8,4.85L36.45,5.65M36.5,4.9C37.4,5.2 37.9,5.683 38,6.35C37.633,7.417 36.867,8 35.7,8.1C36.133,8.7 36.2,9.317 35.9,9.95C35.467,10.55 34.75,10.833 33.75,10.8L31.95,10.6C32.35,11.233 32.417,11.85 32.15,12.45C31.683,13.25 30.867,13.75 29.7,13.95C30.333,14.65 30.417,15.433 29.95,16.3C29.65,16.867 29.167,17.233 28.5,17.4L26.95,17.75L26.9,17.85C26.733,19.05 26,19.8 24.7,20.1L23.95,20.4L22.15,20.8L22,21.7L20.9,22.9C20.033,23.433 19.15,23.717 18.25,23.75L15.95,24C16.25,24.567 16.3,25.067 16.1,25.5L15.35,26.6C13.117,27.7 10.933,28.533 8.8,29.1L8.05,29.75L8.8,33.6L7.35,33.25L7.25,33.2L7.15,33.25L6.9,33.3C5.933,33.6 5.35,34.25 5.15,35.25C4.15,35.683 3.6,36.467 3.5,37.6L3.9,38.05L5.05,39.2L5.4,39.5L5.1,39.55C2.433,39.65 0.767,38.817 0.1,37.05L0,36.15L2.3,35.05C1.4,35.983 1.533,36.267 2.7,35.9L0.1,37.05L2.7,35.9L3.05,35.75L4.9,33.65L6.6,28.35L12.45,24.75L13.05,24.7C13.617,24.3 13.917,23.867 13.95,23.4L14.1,24.75L13.6,25.5L6.8,28.7L5.15,34L3.05,36.6L4.6,35.35L5.75,34L6.4,32.1L7.1,29.25L7.85,28.55C9.95,27.983 11.933,27.25 13.8,26.35C14.2,26.017 14.467,25.617 14.6,25.15C14.733,24.783 14.7,24.417 14.5,24.05L15,23.45L17.25,23.2C18.15,23.2 19.033,22.917 19.9,22.35C20.467,22.017 20.85,21.617 21.05,21.15C21.15,20.817 21.067,20.467 20.8,20.1L23,19.85L24.75,18.75C24.95,18.183 24.883,17.667 24.55,17.2L27.55,16.85C28.217,16.683 28.7,16.333 29,15.8C29.467,14.933 29.367,14.133 28.7,13.4C29.9,13.2 30.733,12.7 31.2,11.9C31.467,11.3 31.4,10.683 31,10.05L32.8,10.25C33.8,10.283 34.517,10 34.95,9.4C35.217,8.767 35.133,8.15 34.7,7.55C35.9,7.483 36.683,6.917 37.05,5.85C36.983,5.483 36.8,5.167 36.5,4.9M32.55,0.9L32.85,1L33.55,1.5L33,1.7L32.55,0.9M35.4,2L35.7,2.1C36.467,2.533 36.85,3.017 36.85,3.55C36.883,4.017 36.75,4.45 36.45,4.85L35.5,4.35L35.95,3.05L35.4,2M26.95,17.75L27.55,16.85L26.95,17.75M35.15,2.6L35.25,3.65L34.45,3.95C32.35,4.05 30.167,4.5 27.9,5.3C29.667,3.9 31.867,2.883 34.5,2.25L35.15,2.6M29.7,1.8L30.1,1.55L27.9,3.8L28.95,3.45C28.117,4.083 27.333,4.817 26.6,5.65C25.967,5.85 25.333,6.1 24.7,6.4L23.1,7.25C25,4.483 27.2,2.667 29.7,1.8M23.1,5.9L20.95,8.35L18.5,10.25C20.833,6.917 23.283,4.2 25.85,2.1L26.35,1.9L23.1,5.9M19.4,6.2L16.9,10.1L14.6,13.4C16.4,9.267 18.8,5.583 21.8,2.35L21.9,2.3L19.4,6.2M8.25,22.2L8,23.4L7.45,24.3L10.15,12.25L10.15,12.35L9,18.35L8.85,19L8.25,22.2M6.4,20.4L6.5,25.9L5.65,26.55L6.35,20.3L6.4,20.4M29.45,11.5L27.7,11.7L28.15,12.55L26.6,12.3C22.367,11.7 18.15,12.65 13.95,15.15C14.85,14.317 15.883,13.567 17.05,12.9C20.017,11.367 23.233,10.517 26.7,10.35C27.6,10.217 28.4,10.35 29.1,10.75C29.467,10.517 29.65,10.15 29.65,9.65L30.1,10.35C30.133,10.783 29.917,11.167 29.45,11.5M28.15,13.9C28.117,14.4 27.833,14.833 27.3,15.2L22.6,15.15C18.667,15.15 15.033,16.367 11.7,18.8L10.6,19.65L11.75,18.6C16.25,14.767 21.283,13.267 26.85,14.1L27.25,13.35C27.55,13.25 27.85,13.417 28.15,13.85L28.15,13.9M22.25,17.45C22.883,17.617 23.417,17.25 23.85,16.35L23.65,16.1L24.15,16.75L23.7,18L22.95,18.45L21.8,18.45L18.45,18.55C15.183,19.017 11.833,20.65 8.4,23.45C12.933,18.817 17.55,16.817 22.25,17.45M13.4,22.85C11.367,23.45 9.267,24.7 7.1,26.6C10.4,23 14.183,20.95 18.45,20.45C19.117,20.383 19.467,20.167 19.5,19.8C19.667,19.5 19.633,19.233 19.4,19L20,19.55L20.1,20.55L19.4,21.2L18.6,21.65L15.4,21.75L13.05,22.6L13.4,22.85M5.1,39.55L5.05,39.2L5.1,39.55" style="fill:#784a00;"/>
                            <path d="M4.1,24C3.833,21.833 4,19.967 4.6,18.4C5.2,17.5 5.9,17 6.7,16.9L6.7,16.65L6.7,17.2L6.75,15.55C6.783,14.15 7.133,12.95 7.8,11.95L7.95,11.75C8.583,10.883 9.35,10.45 10.25,10.45L10.7,10.35L10.95,9.7L11.05,9.35L11.65,8L13.35,5.35C13.983,4.583 14.733,3.983 15.6,3.55L16.6,3.15L18.4,2.95C19.033,2.217 19.733,1.7 20.5,1.4L20.85,1.25C21.783,0.817 22.7,0.9 23.6,1.5C24.767,0.567 26,0.067 27.3,0L28.25,0.15L29.85,0.7L30.9,0.4L29.7,1.8C27.2,2.667 25,4.483 23.1,7.25L24.7,6.4L22.3,8.1L23.5,5.5L22.7,6.4L23.1,5.9L26.35,1.9L25.85,2.1C23.65,2.333 22.217,2.85 21.55,3.65L19.4,6.2L21.9,2.3L21.8,2.35C20.2,2.617 18.8,3.617 17.6,5.35L17.05,6.1C15.983,7.8 14.8,10.167 13.5,13.2L10.55,19.5C10.317,19.867 10.267,19.817 10.4,19.35L10.5,19.1L10.6,18.8L11.1,17.35L11.1,17.25L10.95,17.6L11.2,16.9L11.25,16.75L11.25,16.95L12.6,13.3L13.6,10.95L14.05,9.8L16.25,5.75L16.25,5.55L15.6,5.55L15.6,5.4L14.9,5.45C14.133,5.55 12.967,8.317 11.4,13.75C9.833,19.183 9.117,21.833 9.25,21.7C8.283,23.967 7.95,24.133 8.25,22.2L8.85,19L9,18.35L10.15,12.35L10.15,12.25L10.05,11.85C8.517,14.017 7.333,17.267 6.5,21.6L6.6,20.1L6.55,20.55L6.4,20.4L6.35,20.3L6.15,20.1L5.6,20.15L5.05,20.55L5.05,20.65C4.417,21.75 4.1,22.867 4.1,24M16.25,5.6L16.25,5.8C15.283,7.467 14.4,9.183 13.6,10.95C14.4,9.183 15.283,7.467 16.25,5.8L16.25,5.6M11.2,16.9L11.1,17.25L11.2,16.9" style="fill:#d7df9f;"/>
                            <path d="M11.05,9.35L11.65,8L11.05,9.35M10.6,18.8L11.1,17.25L11.1,17.35L10.6,18.8M11.25,16.75C11.65,15.583 12.1,14.433 12.6,13.3L11.25,16.95L11.25,16.75" style="fill:#d34671;"/>
                            <path d="M8.8,33.6L9.05,34.85L7.35,33.25L8.8,33.6M3.9,38.05L4.55,37.55L5.05,39.2L3.9,38.05" style="fill:#1d0813;"/>
                            <path d="M26.95,17.75L26.9,17.85C26.733,19.05 26,19.8 24.7,20.1M0.1,37.05L0,36.15L2.3,35.05L3.8,33.4L4.5,31.6L4.95,29.35L4.95,27.6C4.483,26.167 4.217,25.067 4.15,24.3L4.1,24C3.833,21.833 4,19.967 4.6,18.4C5.2,17.5 5.9,17 6.7,16.9L6.7,16.65L6.75,15.55C6.783,14.15 7.133,12.95 7.8,11.95L7.95,11.75C8.583,10.883 9.35,10.45 10.25,10.45L10.7,10.35L10.95,9.7L11.05,9.35L11.65,8L13.35,5.35C13.983,4.583 14.733,3.983 15.6,3.55L16.6,3.15L18.4,2.95C19.033,2.217 19.733,1.7 20.5,1.4L20.85,1.25C21.783,0.817 22.7,0.9 23.6,1.5C24.767,0.567 26,0.067 27.3,0L28.25,0.15L29.85,0.7L30.9,0.4L31.9,0.45L32.55,0.9L33,1.7L33.55,1.5L34.7,1.55L35.4,2M27.55,16.85L26.95,17.75M10.4,19.35L10.5,19.1L10.6,18.8L11.1,17.25L11.2,16.9L11.25,16.75C11.65,15.583 12.1,14.433 12.6,13.3L13.6,10.95C14.4,9.183 15.283,7.467 16.25,5.8L16.25,5.6M2.7,35.9L0.1,37.05M2.7,35.9L3.05,35.75" style="fill:none;fill-rule:nonzero;stroke:#784a00;stroke-width:0.1px;"/>
                            <path d="M7.35,33.25L7.15,33.25L6.9,33.3M3.9,38.05L4.55,37.55L5.05,39.2L5.1,39.55M8.8,33.6L7.35,33.25" style="fill:none;fill-rule:nonzero;stroke:#5e210b;stroke-width:0.1px;"/>
                        </g>
                    </g>
                    <g id="sprite31" serif:id="sprite3" transform="matrix(-0.605,0.7937,-0.7937,-0.605,69.9,28.8)">
                        <g id="shape21" serif:id="shape2">
                            <path d="M36.45,5.65L35.8,4.85C35.733,5.217 35.4,5.483 34.8,5.65L28.3,6.35L31.7,6.4L33.45,6.75C33.55,7.183 33.317,7.533 32.75,7.8C28.083,7.333 24.067,8.017 20.7,9.85C23.2,9.217 25.75,8.883 28.35,8.85L33.25,8.85C33.95,8.683 34.3,8.25 34.3,7.55L33.45,6.75L35.85,6.35L36.45,5.65M36.45,4.85L36.5,4.9C36.8,5.167 36.983,5.483 37.05,5.85C36.683,6.917 35.9,7.483 34.7,7.55C35.133,8.15 35.217,8.767 34.95,9.4C34.517,10 33.8,10.283 32.8,10.25L31,10.05C31.4,10.683 31.467,11.3 31.2,11.9C30.733,12.7 29.9,13.2 28.7,13.4C29.367,14.133 29.467,14.933 29,15.8C28.7,16.333 28.217,16.683 27.55,16.85L24.55,17.2C24.883,17.667 24.95,18.183 24.75,18.75L23,19.85L20.8,20.1C21.067,20.467 21.15,20.817 21.05,21.15C20.85,21.617 20.467,22.017 19.9,22.35C19.033,22.917 18.15,23.2 17.25,23.2L15,23.45L14.5,24.05C14.7,24.417 14.733,24.783 14.6,25.15C14.467,25.617 14.2,26.017 13.8,26.35C11.933,27.25 9.95,27.983 7.85,28.55L7.1,29.25L6.4,32.1L5.75,34L4.6,35.35L3.05,36.6L5.15,34L6.8,28.7L13.6,25.5L14.1,24.75L13.95,23.4C13.917,23.867 13.617,24.3 13.05,24.7L12.45,24.75L6.6,28.35L4.9,33.65L3.05,35.75L2.7,35.9C1.533,36.267 1.4,35.983 2.3,35.05L3.8,33.4L4.5,31.6L4.95,29.35L4.95,27.6C4.483,26.167 4.217,25.067 4.15,24.3L4.1,24C4.1,22.867 4.417,21.75 5.05,20.65L5.05,20.55L5.6,20.15L6.15,20.1L6.35,20.3L5.65,26.55L6.5,25.9L6.4,20.4L6.55,20.55L6.6,20.1L6.5,21.6C7.333,17.267 8.517,14.017 10.05,11.85L10.15,12.25L7.45,24.3L8,23.4L8.25,22.2C7.95,24.133 8.283,23.967 9.25,21.7C9.117,21.833 9.833,19.183 11.4,13.75C12.967,8.317 14.133,5.55 14.9,5.45L15.6,5.4L15.6,5.55L16.25,5.55L16.25,5.75L14.05,9.8L13.6,10.95L12.6,13.3C12.1,14.433 11.65,15.583 11.25,16.75L11.2,16.9L10.95,17.6L11.1,17.25L10.6,18.8L10.5,19.1L10.4,19.35C10.267,19.817 10.317,19.867 10.55,19.5L13.5,13.2C14.8,10.167 15.983,7.8 17.05,6.1L17.6,5.35C18.8,3.617 20.2,2.617 21.8,2.35C18.8,5.583 16.4,9.267 14.6,13.4L16.9,10.1L19.4,6.2L21.55,3.65C22.217,2.85 23.65,2.333 25.85,2.1C23.283,4.2 20.833,6.917 18.5,10.25L20.95,8.35L23.1,5.9L22.7,6.4L23.5,5.5L22.3,8.1L24.7,6.4C25.333,6.1 25.967,5.85 26.6,5.65C27.333,4.817 28.117,4.083 28.95,3.45L27.9,3.8L30.1,1.55L29.7,1.8L30.9,0.4L31.9,0.45L32.55,0.9L33,1.7L33.55,1.5L34.7,1.55L35.4,2L35.95,3.05L35.5,4.35L36.45,4.85M6.7,16.65L6.75,15.55L6.7,17.2L6.7,16.65M35.15,2.6L34.5,2.25C31.867,2.883 29.667,3.9 27.9,5.3C30.167,4.5 32.35,4.05 34.45,3.95L35.25,3.65L35.15,2.6M28.15,13.9L28.15,13.85C27.85,13.417 27.55,13.25 27.25,13.35L26.85,14.1C21.283,13.267 16.25,14.767 11.75,18.6L10.6,19.65L11.7,18.8C15.033,16.367 18.667,15.15 22.6,15.15L27.3,15.2C27.833,14.833 28.117,14.4 28.15,13.9M29.45,11.5C29.917,11.167 30.133,10.783 30.1,10.35L29.65,9.65C29.65,10.15 29.467,10.517 29.1,10.75C28.4,10.35 27.6,10.217 26.7,10.35C23.233,10.517 20.017,11.367 17.05,12.9C15.883,13.567 14.85,14.317 13.95,15.15C18.15,12.65 22.367,11.7 26.6,12.3L28.15,12.55L27.7,11.7L29.45,11.5M22.25,17.45C17.55,16.817 12.933,18.817 8.4,23.45C11.833,20.65 15.183,19.017 18.45,18.55L21.8,18.45L22.95,18.45L23.7,18L24.15,16.75L23.65,16.1L23.85,16.35C23.417,17.25 22.883,17.617 22.25,17.45M13.4,22.85L13.05,22.6L15.4,21.75L18.6,21.65L19.4,21.2L20.1,20.55L20,19.55L19.4,19C19.633,19.233 19.667,19.5 19.5,19.8C19.467,20.167 19.117,20.383 18.45,20.45C14.183,20.95 10.4,23 7.1,26.6C9.267,24.7 11.367,23.45 13.4,22.85" style="fill:#e0b04f;"/>
                            <path d="M36.45,5.65L35.85,6.35L33.45,6.75L34.3,7.55C34.3,8.25 33.95,8.683 33.25,8.85L28.35,8.85C25.75,8.883 23.2,9.217 20.7,9.85C24.067,8.017 28.083,7.333 32.75,7.8C33.317,7.533 33.55,7.183 33.45,6.75L31.7,6.4L28.3,6.35L34.8,5.65C35.4,5.483 35.733,5.217 35.8,4.85L36.45,5.65M36.5,4.9C37.4,5.2 37.9,5.683 38,6.35C37.633,7.417 36.867,8 35.7,8.1C36.133,8.7 36.2,9.317 35.9,9.95C35.467,10.55 34.75,10.833 33.75,10.8L31.95,10.6C32.35,11.233 32.417,11.85 32.15,12.45C31.683,13.25 30.867,13.75 29.7,13.95C30.333,14.65 30.417,15.433 29.95,16.3C29.65,16.867 29.167,17.233 28.5,17.4L26.95,17.75L26.9,17.85C26.733,19.05 26,19.8 24.7,20.1L23.95,20.4L22.15,20.8L22,21.7L20.9,22.9C20.033,23.433 19.15,23.717 18.25,23.75L15.95,24C16.25,24.567 16.3,25.067 16.1,25.5L15.35,26.6C13.117,27.7 10.933,28.533 8.8,29.1L8.05,29.75L8.8,33.6L7.35,33.25L7.25,33.2L7.15,33.25L6.9,33.3C5.933,33.6 5.35,34.25 5.15,35.25C4.15,35.683 3.6,36.467 3.5,37.6L3.9,38.05L5.05,39.2L5.4,39.5L5.1,39.55C2.433,39.65 0.767,38.817 0.1,37.05L0,36.15L2.3,35.05C1.4,35.983 1.533,36.267 2.7,35.9L0.1,37.05L2.7,35.9L3.05,35.75L4.9,33.65L6.6,28.35L12.45,24.75L13.05,24.7C13.617,24.3 13.917,23.867 13.95,23.4L14.1,24.75L13.6,25.5L6.8,28.7L5.15,34L3.05,36.6L4.6,35.35L5.75,34L6.4,32.1L7.1,29.25L7.85,28.55C9.95,27.983 11.933,27.25 13.8,26.35C14.2,26.017 14.467,25.617 14.6,25.15C14.733,24.783 14.7,24.417 14.5,24.05L15,23.45L17.25,23.2C18.15,23.2 19.033,22.917 19.9,22.35C20.467,22.017 20.85,21.617 21.05,21.15C21.15,20.817 21.067,20.467 20.8,20.1L23,19.85L24.75,18.75C24.95,18.183 24.883,17.667 24.55,17.2L27.55,16.85C28.217,16.683 28.7,16.333 29,15.8C29.467,14.933 29.367,14.133 28.7,13.4C29.9,13.2 30.733,12.7 31.2,11.9C31.467,11.3 31.4,10.683 31,10.05L32.8,10.25C33.8,10.283 34.517,10 34.95,9.4C35.217,8.767 35.133,8.15 34.7,7.55C35.9,7.483 36.683,6.917 37.05,5.85C36.983,5.483 36.8,5.167 36.5,4.9M32.55,0.9L32.85,1L33.55,1.5L33,1.7L32.55,0.9M35.4,2L35.7,2.1C36.467,2.533 36.85,3.017 36.85,3.55C36.883,4.017 36.75,4.45 36.45,4.85L35.5,4.35L35.95,3.05L35.4,2M26.95,17.75L27.55,16.85L26.95,17.75M35.15,2.6L35.25,3.65L34.45,3.95C32.35,4.05 30.167,4.5 27.9,5.3C29.667,3.9 31.867,2.883 34.5,2.25L35.15,2.6M29.7,1.8L30.1,1.55L27.9,3.8L28.95,3.45C28.117,4.083 27.333,4.817 26.6,5.65C25.967,5.85 25.333,6.1 24.7,6.4L23.1,7.25C25,4.483 27.2,2.667 29.7,1.8M23.1,5.9L20.95,8.35L18.5,10.25C20.833,6.917 23.283,4.2 25.85,2.1L26.35,1.9L23.1,5.9M19.4,6.2L16.9,10.1L14.6,13.4C16.4,9.267 18.8,5.583 21.8,2.35L21.9,2.3L19.4,6.2M8.25,22.2L8,23.4L7.45,24.3L10.15,12.25L10.15,12.35L9,18.35L8.85,19L8.25,22.2M6.4,20.4L6.5,25.9L5.65,26.55L6.35,20.3L6.4,20.4M29.45,11.5L27.7,11.7L28.15,12.55L26.6,12.3C22.367,11.7 18.15,12.65 13.95,15.15C14.85,14.317 15.883,13.567 17.05,12.9C20.017,11.367 23.233,10.517 26.7,10.35C27.6,10.217 28.4,10.35 29.1,10.75C29.467,10.517 29.65,10.15 29.65,9.65L30.1,10.35C30.133,10.783 29.917,11.167 29.45,11.5M28.15,13.9C28.117,14.4 27.833,14.833 27.3,15.2L22.6,15.15C18.667,15.15 15.033,16.367 11.7,18.8L10.6,19.65L11.75,18.6C16.25,14.767 21.283,13.267 26.85,14.1L27.25,13.35C27.55,13.25 27.85,13.417 28.15,13.85L28.15,13.9M22.25,17.45C22.883,17.617 23.417,17.25 23.85,16.35L23.65,16.1L24.15,16.75L23.7,18L22.95,18.45L21.8,18.45L18.45,18.55C15.183,19.017 11.833,20.65 8.4,23.45C12.933,18.817 17.55,16.817 22.25,17.45M13.4,22.85C11.367,23.45 9.267,24.7 7.1,26.6C10.4,23 14.183,20.95 18.45,20.45C19.117,20.383 19.467,20.167 19.5,19.8C19.667,19.5 19.633,19.233 19.4,19L20,19.55L20.1,20.55L19.4,21.2L18.6,21.65L15.4,21.75L13.05,22.6L13.4,22.85M5.1,39.55L5.05,39.2L5.1,39.55" style="fill:#784a00;"/>
                            <path d="M4.1,24C3.833,21.833 4,19.967 4.6,18.4C5.2,17.5 5.9,17 6.7,16.9L6.7,16.65L6.7,17.2L6.75,15.55C6.783,14.15 7.133,12.95 7.8,11.95L7.95,11.75C8.583,10.883 9.35,10.45 10.25,10.45L10.7,10.35L10.95,9.7L11.05,9.35L11.65,8L13.35,5.35C13.983,4.583 14.733,3.983 15.6,3.55L16.6,3.15L18.4,2.95C19.033,2.217 19.733,1.7 20.5,1.4L20.85,1.25C21.783,0.817 22.7,0.9 23.6,1.5C24.767,0.567 26,0.067 27.3,0L28.25,0.15L29.85,0.7L30.9,0.4L29.7,1.8C27.2,2.667 25,4.483 23.1,7.25L24.7,6.4L22.3,8.1L23.5,5.5L22.7,6.4L23.1,5.9L26.35,1.9L25.85,2.1C23.65,2.333 22.217,2.85 21.55,3.65L19.4,6.2L21.9,2.3L21.8,2.35C20.2,2.617 18.8,3.617 17.6,5.35L17.05,6.1C15.983,7.8 14.8,10.167 13.5,13.2L10.55,19.5C10.317,19.867 10.267,19.817 10.4,19.35L10.5,19.1L10.6,18.8L11.1,17.35L11.1,17.25L10.95,17.6L11.2,16.9L11.25,16.75L11.25,16.95L12.6,13.3L13.6,10.95L14.05,9.8L16.25,5.75L16.25,5.55L15.6,5.55L15.6,5.4L14.9,5.45C14.133,5.55 12.967,8.317 11.4,13.75C9.833,19.183 9.117,21.833 9.25,21.7C8.283,23.967 7.95,24.133 8.25,22.2L8.85,19L9,18.35L10.15,12.35L10.15,12.25L10.05,11.85C8.517,14.017 7.333,17.267 6.5,21.6L6.6,20.1L6.55,20.55L6.4,20.4L6.35,20.3L6.15,20.1L5.6,20.15L5.05,20.55L5.05,20.65C4.417,21.75 4.1,22.867 4.1,24M16.25,5.6L16.25,5.8C15.283,7.467 14.4,9.183 13.6,10.95C14.4,9.183 15.283,7.467 16.25,5.8L16.25,5.6M11.2,16.9L11.1,17.25L11.2,16.9" style="fill:#d7df9f;"/>
                            <path d="M11.05,9.35L11.65,8L11.05,9.35M10.6,18.8L11.1,17.25L11.1,17.35L10.6,18.8M11.25,16.75C11.65,15.583 12.1,14.433 12.6,13.3L11.25,16.95L11.25,16.75" style="fill:#d34671;"/>
                            <path d="M8.8,33.6L9.05,34.85L7.35,33.25L8.8,33.6M3.9,38.05L4.55,37.55L5.05,39.2L3.9,38.05" style="fill:#1d0813;"/>
                            <path d="M26.95,17.75L26.9,17.85C26.733,19.05 26,19.8 24.7,20.1M0.1,37.05L0,36.15L2.3,35.05L3.8,33.4L4.5,31.6L4.95,29.35L4.95,27.6C4.483,26.167 4.217,25.067 4.15,24.3L4.1,24C3.833,21.833 4,19.967 4.6,18.4C5.2,17.5 5.9,17 6.7,16.9L6.7,16.65L6.75,15.55C6.783,14.15 7.133,12.95 7.8,11.95L7.95,11.75C8.583,10.883 9.35,10.45 10.25,10.45L10.7,10.35L10.95,9.7L11.05,9.35L11.65,8L13.35,5.35C13.983,4.583 14.733,3.983 15.6,3.55L16.6,3.15L18.4,2.95C19.033,2.217 19.733,1.7 20.5,1.4L20.85,1.25C21.783,0.817 22.7,0.9 23.6,1.5C24.767,0.567 26,0.067 27.3,0L28.25,0.15L29.85,0.7L30.9,0.4L31.9,0.45L32.55,0.9L33,1.7L33.55,1.5L34.7,1.55L35.4,2M27.55,16.85L26.95,17.75M10.4,19.35L10.5,19.1L10.6,18.8L11.1,17.25L11.2,16.9L11.25,16.75C11.65,15.583 12.1,14.433 12.6,13.3L13.6,10.95C14.4,9.183 15.283,7.467 16.25,5.8L16.25,5.6M2.7,35.9L0.1,37.05M2.7,35.9L3.05,35.75" style="fill:none;fill-rule:nonzero;stroke:#784a00;stroke-width:0.1px;"/>
                            <path d="M7.35,33.25L7.15,33.25L6.9,33.3M3.9,38.05L4.55,37.55L5.05,39.2L5.1,39.55M8.8,33.6L7.35,33.25" style="fill:none;fill-rule:nonzero;stroke:#5e210b;stroke-width:0.1px;"/>
                        </g>
                    </g>
                    <g id="sprite4" transform="matrix(1.2071,0.3475,0.2763,-0.9599,11,46.15)">
                        <g id="shape3">
                            <path d="M26.75,4.6C26.45,4.667 26.217,4.767 26.05,4.9L25.8,5.15L25.35,5.5L25.6,5.5L26.4,5.45C26.867,5.483 27.283,5.65 27.65,5.95L27.8,6.2L28.1,6.95L28.4,7.55C27.267,7.217 26.233,7.217 25.3,7.55L26.05,7.75L25.95,7.95C25.75,7.75 25.633,8.05 25.6,8.85L25.6,12.25C25.933,16.183 25.05,19.833 22.95,23.2L20.5,26.3L20.45,26.1L20.4,26L20.15,25.55L20,24.45L19.95,24.35L19.8,24.15C21.133,22.717 22.2,21 23,19C23.867,16.733 24.217,14.55 24.05,12.45C23.983,11.283 23.767,10.167 23.4,9.1L23.15,8.45L22.15,6.4L20.9,4.85L19.9,4.05C21.167,2.05 22.617,1.433 24.25,2.2L25.35,3.2L26.75,4.6M15.25,29.85L14.7,30L15.9,31.75L14.7,31.3L13.9,30.75L13.95,33.15L13.9,33.15L13.45,32.35L12.15,30.2C11.683,31.6 11.55,33.05 11.75,34.55L10.55,34.35L9.15,34.1C8.817,31.967 9.367,30.05 10.8,28.35C12.667,28.417 14.583,27.883 16.55,26.75L17.8,25.9L17.85,25.9L17.9,26L18.1,26.35L18.15,26.45L18.75,26.45L18.45,26.8L18.15,27.05L17.9,27.45L17.9,27.65L17.95,27.7L18.1,28.15L18.1,28.25L17,28.95L15.25,29.85" style="fill:#b35f40;"/>
                            <path d="M26.4,5.45L25.6,5.5L25.35,5.5L25.8,5.15L26.05,4.9C26.217,4.767 26.45,4.667 26.75,4.6L26.4,5.45M1.15,26.45L1.85,25.5C2.483,24.867 3.067,24.517 3.6,24.45L4.55,25.55L3,27.25L1.15,26.45M11.75,34.55C11.55,33.05 11.683,31.6 12.15,30.2L13.45,32.35L12.5,33.4L11.75,34.55" style="fill:#7c340e;"/>
                            <path d="M24.25,2.2C22.617,1.433 21.167,2.05 19.9,4.05L18.8,3.35C18.1,3.583 17.683,4.217 17.55,5.25L17.5,5.75L15.95,4.95L13.55,4.55L10.5,5.05C9.933,5.25 9.367,5.533 8.8,5.9C7.867,6.433 7.05,7.083 6.35,7.85C6.55,6.817 6.883,5.883 7.35,5.05L9.05,3.9C10.017,3.3 11,2.867 12,2.6L13.6,2.3L15.45,2.3C15.517,1.2 16.167,0.417 17.4,-0.05L19.35,0.15L21.2,0.65L22.4,1.1C23,1.367 23.617,1.733 24.25,2.2M23.15,8.45L23.4,9.1C23.767,10.167 23.983,11.283 24.05,12.45C24.217,14.55 23.867,16.733 23,19C22.2,21 21.133,22.717 19.8,24.15L19.35,23.8C20.583,22.2 21.417,20.383 21.85,18.35L22.05,17.1C22.45,14.733 22.483,12.35 22.15,9.95L23.15,8.45M3.6,24.45L2.95,23.25L3.7,22.2C4.233,23.233 4.933,24.083 5.8,24.75C6.467,25.35 7.25,25.783 8.15,26.05L8.65,26.15L8.45,26.45C8.083,27.017 8.033,27.5 8.3,27.9L10.8,28.35C9.367,30.05 8.817,31.967 9.15,34.1L7.4,33.35L6.35,32.85L5.2,32.1L4.2,31.25C4.1,29.25 4.783,27.833 6.25,27C5.617,26.6 5.05,26.117 4.55,25.55L3.6,24.45M17.55,25.85L17.6,25.85L17.15,26.15L17.55,25.85" style="fill:#dca654;"/>
                            <path d="M19.9,4.05L20.9,4.85L22.15,6.4L23.15,8.45L22.15,9.95C22.483,12.35 22.45,14.733 22.05,17.1L21.85,18.35C21.417,20.383 20.583,22.2 19.35,23.8L19.15,23.5C18.717,23.1 18.483,22.65 18.45,22.15L19,21.45L20.55,18.5L21.15,16.35C21.517,15.017 21.583,13.65 21.35,12.25L20.35,9.05L20.05,8.4L20.05,8.35C20.117,8.05 20.25,7.833 20.45,7.7C20.483,7.633 20.533,7.6 20.6,7.6L20.9,7.3L20.85,7.15L20.85,6.85C20.817,6.583 20.833,6.35 20.9,6.15L19.9,6.35L19.85,6.45L19.15,7.1L18.2,6.15L17.5,5.75L17.55,5.25C17.683,4.217 18.1,3.583 18.8,3.35L19.9,4.05M17.4,-0.05C16.167,0.417 15.517,1.2 15.45,2.3L13.6,2.3L12,2.6C11,2.867 10.017,3.3 9.05,3.9L7.35,5.05C6.55,5.683 5.833,6.4 5.2,7.2L4.1,8.8L3.45,8.45L4.1,8.8L3.15,10.6L2.7,11.65C1.333,15.083 1.167,18.383 2.2,21.55L2.95,23.25L3.6,24.45C3.067,24.517 2.483,24.867 1.85,25.5L1.15,26.45L0.65,24.75C0.483,24.25 0.367,23.75 0.3,23.25L0.1,21.6L0,20L0.1,18.35L0.3,16.75C0.367,16.15 0.483,15.583 0.65,15.05L1.15,13.3L1.85,11.65L2.6,10L3.45,8.5L3.45,8.45L4.1,7.45L4.4,7.1L5.5,5.8L6.65,4.65L7.9,3.6L9.25,2.6L11,1.5C11.333,1.333 11.683,1.2 12.05,1.1C12.65,0.833 13.283,0.6 13.95,0.4L15.4,0.1L17.4,-0.05M8.65,26.15C9.917,26.483 11.15,26.483 12.35,26.15L12.65,26.05L14.3,25.45L15.15,25L15.15,25.25L15.6,25.85L15.55,25.1L15.6,25L15.75,24.6L16,24.45L16.8,23.85L16.85,23.85L16.85,24.75L16.9,24.95L17.25,25.5L17.35,25.65L17.55,25.85L17.15,26.15L17.6,25.85L18.6,25.2L18.55,25.35L17.8,25.9L16.55,26.75C14.583,27.883 12.667,28.417 10.8,28.35L8.3,27.9C8.033,27.5 8.083,27.017 8.45,26.45L8.65,26.15M4.2,31.25L3.7,30.65L2.75,29.4L2.4,28.85L3,27.25L4.55,25.55C5.05,26.117 5.617,26.6 6.25,27C4.783,27.833 4.1,29.25 4.2,31.25" style="fill:#cf8e52;"/>
                            <path d="M19.8,24.15L19.95,24.35L20,24.45L20.15,25.55L20.4,26L20.45,26.1L20.5,26.3L22.95,23.2C25.05,19.833 25.933,16.183 25.6,12.25L25.6,8.85C25.633,8.05 25.75,7.75 25.95,7.95C26.283,8.25 26.833,9.833 27.6,12.7C28.4,17.067 27.583,21.133 25.15,24.9C22.783,28.5 19.5,30.333 15.3,30.4L14.9,30L15.25,29.85L17,28.95L18.1,28.25L18.1,28.15L17.95,27.7L17.9,27.65L17.9,27.45L18.15,27.05L18.45,26.8L18.75,26.45L18.15,26.45L18.1,26.35L17.9,26L17.85,25.9L17.8,25.9L18.55,25.35L18.9,25.05L18.6,25.2L17.6,25.85L17.55,25.85L17.35,25.65L17.25,25.5L16.9,24.95L16.85,24.75L16.85,23.85L16.8,23.85L16,24.45L15.75,24.6L15.6,25L15.55,25.1L15.6,25.85L15.15,25.25L15.15,25L14.3,25.45L12.65,26.05L12.35,26.15C11.15,26.483 9.917,26.483 8.65,26.15L8.15,26.05C7.25,25.783 6.467,25.35 5.8,24.75C4.933,24.083 4.233,23.233 3.7,22.2L3.1,20.7C2.2,18.033 2.317,15.267 3.45,12.4C4.15,10.6 5.117,9.083 6.35,7.85C7.05,7.083 7.867,6.433 8.8,5.9C9.367,5.533 9.933,5.25 10.5,5.05L13.55,4.55L15.95,4.95L17.5,5.75L18.2,6.15L19.15,7.1L19.85,6.45L19.9,6.35L20.9,6.15C20.833,6.35 20.817,6.583 20.85,6.85L20.85,7.15L20.9,7.3L20.6,7.6C20.533,7.6 20.483,7.633 20.45,7.7C20.25,7.833 20.117,8.05 20.05,8.35L20.05,8.4L20.35,9.05L21.35,12.25C21.583,13.65 21.517,15.017 21.15,16.35L20.55,18.5L19,21.45L18.45,22.15C18.483,22.65 18.717,23.1 19.15,23.5L19.35,23.8L19.8,24.15M16.8,8.4L16.9,6.55C16.833,6.217 16.067,5.883 14.6,5.55L12.15,6.3C11.25,6.667 10.333,7.183 9.4,7.85L7.9,9.2L9.3,12.25C7.833,11.35 6.783,11.283 6.15,12.05C5.35,13.817 5.017,15.767 5.15,17.9C5.25,19.567 5.7,21.067 6.5,22.4L6.65,22.7L6.85,22.95L6.9,23C6.933,20.333 7.517,18.367 8.65,17.1C8.45,19.8 9.05,22.367 10.45,24.8C11.55,24.7 12.5,24.467 13.3,24.1C15.567,23.067 16.9,21.8 17.3,20.3L16.15,18.4C15.117,17.067 13.95,15.967 12.65,15.1C15.283,15.567 17.283,16.55 18.65,18.05C20.117,15.85 20.433,13.367 19.6,10.6C17.3,9.8 15.15,10.15 13.15,11.65C14.25,9.783 15.467,8.7 16.8,8.4" style="fill:#824e0f;"/>
                            <path d="M25.95,7.95L26.05,7.75L25.3,7.55C26.233,7.217 27.267,7.217 28.4,7.55L28.75,8.3L29.25,9.9L29.65,11.5L29.85,13.05L29.95,14.65L29.9,16.3L29.65,17.95L29.35,19.7L28.75,21.4L28.1,23.05L27.35,24.6L26.45,26.15L25.45,27.55L24.4,28.85L23.25,30.05L22,31.15L20.6,32.05L19.2,32.85L17.95,33.55L16.55,34.1L15.5,34.4L14.25,33.7L14.55,33.55L14.8,33.05L14.35,33.1L14.8,33.05L14.55,33.55L14.25,33.7L14.35,33.1L13.95,33.15L13.9,30.75L14.7,31.3L15.9,31.75L14.7,30L15.25,29.85L14.9,30L15.3,30.4C19.5,30.333 22.783,28.5 25.15,24.9C27.583,21.133 28.4,17.067 27.6,12.7C26.833,9.833 26.283,8.25 25.95,7.95M18.6,25.2L18.9,25.05L18.55,25.35L18.6,25.2" style="fill:#6c260d;"/>
                            <path d="M12.8,9L12.05,9.6C11.583,10.033 11.317,10.55 11.25,11.15L10.9,11.25L10.65,10.95L10.4,12.25L9.4,12.6C8.133,13.167 7.3,14.067 6.9,15.3L7.4,14.8L9.7,13.65C8.233,14.617 7.583,15.467 7.75,16.2C8.45,15.3 9.05,15 9.55,15.3C9.417,17.033 10.067,18.5 11.5,19.7C10.733,17.8 10.733,16.417 11.5,15.55L12.35,16.9L12.35,14L15.9,13.8C15.7,13.333 15.367,13.017 14.9,12.85L12.15,12.6L12.8,9M16.8,8.4C15.467,8.7 14.25,9.783 13.15,11.65C15.15,10.15 17.3,9.8 19.6,10.6C20.433,13.367 20.117,15.85 18.65,18.05C17.283,16.55 15.283,15.567 12.65,15.1C13.95,15.967 15.117,17.067 16.15,18.4L17.3,20.3C16.9,21.8 15.567,23.067 13.3,24.1C12.5,24.467 11.55,24.7 10.45,24.8C9.05,22.367 8.45,19.8 8.65,17.1C7.517,18.367 6.933,20.333 6.9,23L6.85,22.95L6.65,22.7L6.5,22.4C5.7,21.067 5.25,19.567 5.15,17.9C5.017,15.767 5.35,13.817 6.15,12.05C6.783,11.283 7.833,11.35 9.3,12.25L7.9,9.2L9.4,7.85C10.333,7.183 11.25,6.667 12.15,6.3L14.6,5.55C16.067,5.883 16.833,6.217 16.9,6.55L16.8,8.4M6.5,22.4C6.633,22.333 6.683,22.35 6.65,22.45L6.65,22.7L6.65,22.45C6.683,22.35 6.633,22.333 6.5,22.4" style="fill:#ae4913;"/>
                            <path d="M12.8,9L12.15,12.6L14.9,12.85C15.367,13.017 15.7,13.333 15.9,13.8L12.35,14L12.35,16.9L11.5,15.55C10.733,16.417 10.733,17.8 11.5,19.7C10.067,18.5 9.417,17.033 9.55,15.3C9.05,15 8.45,15.3 7.75,16.2C7.583,15.467 8.233,14.617 9.7,13.65L7.4,14.8L6.9,15.3C7.3,14.067 8.133,13.167 9.4,12.6L10.4,12.25L10.65,10.95L10.9,11.25L11.25,11.15C11.317,10.55 11.583,10.033 12.05,9.6L12.8,9" style="fill:#e6eb7a;"/>
                            <path d="M7.35,5.05C6.883,5.883 6.55,6.817 6.35,7.85C5.117,9.083 4.15,10.6 3.45,12.4C2.317,15.267 2.2,18.033 3.1,20.7L3.7,22.2L2.95,23.25L2.2,21.55C1.167,18.383 1.333,15.083 2.7,11.65L3.15,10.6L4.1,8.8L5.2,7.2C5.833,6.4 6.55,5.683 7.35,5.05" style="fill:#f1f09e;"/>
                            <path d="M26.4,5.45L25.6,5.5L25.35,5.5L25.8,5.15L26.05,4.9C26.217,4.767 26.45,4.667 26.75,4.6L25.35,3.2L24.25,2.2C23.617,1.733 23,1.367 22.4,1.1L21.2,0.65L19.35,0.15L17.4,-0.05L15.4,0.1L13.95,0.4C13.283,0.6 12.65,0.833 12.05,1.1C11.683,1.2 11.333,1.333 11,1.5L9.25,2.6L7.9,3.6L6.65,4.65L5.5,5.8L4.4,7.1L4.1,7.45L3.45,8.45L4.1,8.8M28.4,7.55L28.1,6.95L27.8,6.2L27.65,5.95C27.283,5.65 26.867,5.483 26.4,5.45L26.75,4.6M27.8,6.2L27.8,6.05L27.65,5.95M14.25,33.7L15.5,34.4L16.55,34.1L17.95,33.55L19.2,32.85L20.6,32.05L22,31.15L23.25,30.05L24.4,28.85L25.45,27.55L26.45,26.15L27.35,24.6L28.1,23.05L28.75,21.4L29.35,19.7L29.65,17.95L29.9,16.3L29.95,14.65L29.85,13.05L29.65,11.5L29.25,9.9L28.75,8.3L28.4,7.55M13.95,33.15L14.35,33.1L14.8,33.05L14.55,33.55L14.25,33.7L14.35,33.1M3.45,8.45L3.45,8.5L2.6,10L1.85,11.65L1.15,13.3L0.65,15.05C0.483,15.583 0.367,16.15 0.3,16.75L0.1,18.35L0,20L0.1,21.6L0.3,23.25C0.367,23.75 0.483,24.25 0.65,24.75L1.15,26.45L3,27.25L2.4,28.85L2.75,29.4L3.7,30.65L4.2,31.25L5.2,32.1L6.35,32.85L7.4,33.35L9.15,34.1L10.55,34.35L11.75,34.55C11.55,33.05 11.683,31.6 12.15,30.2L13.45,32.35L12.5,33.4L11.75,34.55M13.45,32.35L13.9,33.15L13.95,33.15" style="fill:none;fill-rule:nonzero;stroke:#6c260d;stroke-width:0.1px;"/>
                            <path d="M6.65,22.7L6.65,22.45C6.683,22.35 6.633,22.333 6.5,22.4" style="fill:none;fill-rule:nonzero;stroke:#7c340e;stroke-opacity:0.5;stroke-width:0.1px;"/>
                        </g>
                    </g>
                    <g id="sprite21" serif:id="sprite2" transform="matrix(1.0602,0.3191,0.9906,-0.7407,0,24.15)">
                        <g id="shape11" serif:id="shape1">
                            <path d="M14.05,8.85L14.15,8.75L14.85,8.2C16.683,6.8 18.983,5.2 21.75,3.4L22.05,3.25L22.3,3.05C24.033,1.983 25.8,0.967 27.6,0L22.95,3.5L22.9,3.5L22.8,3.6L22.7,3.65L22.65,3.75L22.45,4.05L22.35,3.95L16.75,8.1L16.55,10.05L15.25,9.4L14.05,8.9L14.05,8.85M22.3,3.05L22.25,3.2L22.35,3.15L22.3,3.05M10.65,11.7L10.65,11.65L12.55,10.05L16.55,10.05L12.75,10.7L8.45,14.55L6.05,18.85L7.9,21.25L4.3,20.4C5.167,18.667 6.083,17.05 7.05,15.55L7.9,14.15L10.3,12L10.65,11.7M14.9,16.5L17.65,16.8L19.5,16.8L26,5.6L25.85,6L24.15,10.5C22.883,13.533 21.417,16.417 19.75,19.15L11.05,16L14.9,16.5M0,30.6L0.5,29.15C1.4,26.817 2.333,24.617 3.3,22.55L4.4,22.25L7.9,21.25L4.1,23.65L1.35,29.05L4.25,28.6C4.983,29.033 5.933,28.833 7.1,28L9.75,26.7L9.75,24.65L12.75,24.65L16.55,21.1L12.15,16.8L18.35,21.15C17.083,22.617 15.317,24.117 13.05,25.65L10.9,25.6L11.05,26.9L10.95,26.95L7.75,28.75L5.95,29.7L0,30.6" style="fill:#efe1a3;"/>
                            <path d="M23,6.85C22.633,6.85 22.35,6.717 22.15,6.45C21.95,6.217 21.85,5.933 21.85,5.6L21.85,5.25L22.45,4.05L22.95,3.5C23.083,3.4 23.233,3.35 23.4,3.35L24,3.45L24.4,3.75L24.6,4.15L24.2,4.25L23.4,4.8C22.967,5.533 22.767,6.033 22.8,6.3L23,6.85M26,5.6L26.1,5.2L27.6,0C27.7,2.033 27.55,4.583 27.15,7.65L27,8.45L26.5,10.75L26.3,11.4L26.3,11.55L25.45,14L24.35,14.75L24.15,10.5L25.85,6L26,5.6M20.35,23.25L20.3,23.3L18.7,23.35L18.35,21.15L12.15,16.8L11.05,16L19.75,19.15L20.35,23.25M13.25,28.65L13.25,28.7L11,28.4L10.95,26.95L11.05,26.9L10.9,25.6L13.05,25.65L13.25,28.65" style="fill:#651b33;"/>
                            <path d="M16.55,10.05L16.75,8.1L22.35,3.95L22.45,4.05L22.65,3.75L22.95,3.5L27.6,0L26.1,5.2L26,5.6L19.5,16.8L17.65,16.8C18.317,16.567 18.867,16.233 19.3,15.8L20.15,14.7L20.75,12.95L20.85,12L20.8,10.9C20.7,10.233 20.45,9.617 20.05,9.05C19.583,8.45 19,8.167 18.3,8.2L16.75,8.1L18.3,8.2C19,8.167 19.583,8.45 20.05,9.05C20.45,9.617 20.7,10.233 20.8,10.9L20.85,12L20.75,12.95L20.15,14.7L19.3,15.8C18.867,16.233 18.317,16.567 17.65,16.8L14.9,16.5L14.45,16.35C13.817,16.017 13.417,15.617 13.25,15.15C12.85,14.183 12.85,13.25 13.25,12.35C13.75,11.617 14.35,11.2 15.05,11.1L17.8,11.25C18.267,11.817 18.55,12.35 18.65,12.85C18.783,13.683 18.483,14.333 17.75,14.8L15.9,15.3C15.333,15.067 15.05,14.667 15.05,14.1C15.05,13.167 15.467,12.633 16.3,12.5C16.7,12.433 16.867,12.617 16.8,13.05L16.55,14.45L16.8,13.05C16.867,12.617 16.7,12.433 16.3,12.5C15.467,12.633 15.05,13.167 15.05,14.1C15.05,14.667 15.333,15.067 15.9,15.3L17.75,14.8C18.483,14.333 18.783,13.683 18.65,12.85C18.55,12.35 18.267,11.817 17.8,11.25L15.05,11.1C14.35,11.2 13.75,11.617 13.25,12.35C12.85,13.25 12.85,14.183 13.25,15.15C13.417,15.617 13.817,16.017 14.45,16.35L14.9,16.5L11.05,16L12.15,16.8L16.55,21.1L12.75,24.65L9.75,24.65L9.75,26.7L7.1,28C5.933,28.833 4.983,29.033 4.25,28.6L3.65,28.05C3.35,27.65 3.233,27.183 3.3,26.65L3.45,25.95C3.683,25.317 4.067,24.8 4.6,24.4C5.833,23.4 7.25,22.917 8.85,22.95C10.517,23.283 11.75,22.75 12.55,21.35L12.85,20.4C12.883,18.1 11.733,17 9.4,17.1C8.067,17.5 7.483,18.133 7.65,19C7.75,19.4 7.967,19.717 8.3,19.95C7.967,19.717 7.75,19.4 7.65,19C7.483,18.133 8.067,17.5 9.4,17.1C11.733,17 12.883,18.1 12.85,20.4L12.55,21.35C11.75,22.75 10.517,23.283 8.85,22.95C7.25,22.917 5.833,23.4 4.6,24.4C4.067,24.8 3.683,25.317 3.45,25.95L3.3,26.65C3.233,27.183 3.35,27.65 3.65,28.05L4.25,28.6L1.35,29.05L4.1,23.65L7.9,21.25L6.05,18.85L8.45,14.55L12.75,10.7L16.55,10.05M22.45,4.05L21.85,5.25L21.85,5.6C21.85,5.933 21.95,6.217 22.15,6.45C22.35,6.717 22.633,6.85 23,6.85L23.1,6.85L23.55,6.75L23.95,6.45L24.2,6.25L24.35,6.05L24.7,4.9L24.6,4.15L24.4,3.75L24,3.45L23.4,3.35C23.233,3.35 23.083,3.4 22.95,3.5L22.45,4.05M6.2,26.1C5.967,26.733 5.567,26.983 5,26.85C4.567,25.883 4.85,25.167 5.85,24.7L6.75,24.7C7.883,25.733 8,26.833 7.1,28C8,26.833 7.883,25.733 6.75,24.7L5.85,24.7C4.85,25.167 4.567,25.883 5,26.85C5.567,26.983 5.967,26.733 6.2,26.1M9.3,20.25L10,20.1L10.75,19.3L10.65,18.9C10.417,18.367 10.083,18.283 9.65,18.65C9.95,18.483 10.217,18.617 10.45,19.05L10.5,19.45L9.95,20.05L9.3,20.25L9.1,20.25L9.3,20.25M8.3,19.95L9.1,20.25L8.35,19.85L8.3,19.95M3.3,26.65C3.233,26.25 3.283,25.833 3.45,25.4C3.683,24.767 4.067,24.267 4.6,23.9C5.7,22.967 6.95,22.5 8.35,22.5L8.85,22.5C10.35,22.633 11.4,22.167 12,21.1L12.25,20.35C12.283,18.417 11.333,17.5 9.4,17.6C8.3,17.933 7.8,18.45 7.9,19.15L8.35,19.85L7.9,19.15C7.8,18.45 8.3,17.933 9.4,17.6C11.333,17.5 12.283,18.417 12.25,20.35L12,21.1C11.4,22.167 10.35,22.633 8.85,22.5L8.35,22.5C6.95,22.5 5.7,22.967 4.6,23.9C4.067,24.267 3.683,24.767 3.45,25.4C3.283,25.833 3.233,26.25 3.3,26.65" style="fill:#f8b355;"/>
                            <path d="M14.05,8.9L15.25,9.4L16.55,10.05L14,10.05L14.05,8.9M4.4,22.25L4.3,20.4L7.9,21.25L4.4,22.25M7.75,28.75C7.383,28.95 7,29.167 6.6,29.4L6,29.7L5.95,29.7L7.75,28.75" style="fill:#9e2b4f;"/>
                            <path d="M24.35,14.75L24.45,16.55L22.1,21.5L20.35,23.25L19.75,19.15C21.417,16.417 22.883,13.533 24.15,10.5L24.35,14.75M18.7,23.35L18.85,24.45L15.35,27.3L14.7,27.75L13.25,28.65L13.05,25.65C15.317,24.117 17.083,22.617 18.35,21.15L18.7,23.35M11,28.4L11.05,29.85C9.417,30.583 7.733,31.183 6,31.65L5.95,29.7L6,29.7L6.6,29.4C7,29.167 7.383,28.95 7.75,28.75L10.95,26.95L11,28.4" style="fill:#925007;"/>
                            <path d="M9.3,20.25L9.95,20.05L10.5,19.45L10.45,19.05C10.217,18.617 9.95,18.483 9.65,18.65C10.083,18.283 10.417,18.367 10.65,18.9L10.75,19.3L10,20.1L9.3,20.25" style="fill:#f8e25e;"/>
                            <path d="M9.1,20.25L8.3,19.95L8.35,19.85L9.1,20.25" style="fill:#ec4b75;"/>
                            <path d="M6,31.65L0.2,32.6L0,30.6L5.95,29.7L6,31.65" style="fill:#f58d07;"/>
                            <path d="M22.3,3.05L22.05,3.25L21.75,3.4C18.983,5.2 16.683,6.8 14.85,8.2L14.15,8.75L14.05,8.85M22.45,4.05L22.65,3.75L22.7,3.65L22.8,3.6L22.9,3.5L22.95,3.5C23.083,3.4 23.233,3.35 23.4,3.35L24,3.45L24.4,3.75L24.6,4.15L24.7,4.9L24.35,6.05L24.2,6.25L23.95,6.45L23.55,6.75L23.1,6.85L23,6.85L22.8,6.3C22.767,6.033 22.967,5.533 23.4,4.8L24.2,4.25L24.6,4.15M27.6,0C25.8,0.967 24.033,1.983 22.3,3.05M10.65,11.7L10.65,11.65L12.55,10.05M4.3,20.4C5.167,18.667 6.083,17.05 7.05,15.55L7.9,14.15L10.3,12M22.45,4.05L21.85,5.25L21.85,5.6C21.85,5.933 21.95,6.217 22.15,6.45C22.35,6.717 22.633,6.85 23,6.85M26,5.6L26.1,5.2L27.6,0M13.25,28.65L13.25,28.7M0,30.6L0.5,29.15C1.4,26.817 2.333,24.617 3.3,22.55M11.05,16L19.75,19.15C21.417,16.417 22.883,13.533 24.15,10.5L25.85,6L26,5.6M13.05,25.65C15.317,24.117 17.083,22.617 18.35,21.15M10.95,26.95L11.05,26.9L10.9,25.6L13.05,25.65M10.95,26.95L7.75,28.75C7.383,28.95 7,29.167 6.6,29.4L6,29.7L5.95,29.7L0,30.6" style="fill:none;fill-rule:nonzero;stroke:#5a0707;stroke-opacity:0.38;stroke-width:0.5px;"/>
                            <path d="M17.65,16.8C18.317,16.567 18.867,16.233 19.3,15.8L20.15,14.7L20.75,12.95L20.85,12L20.8,10.9C20.7,10.233 20.45,9.617 20.05,9.05C19.583,8.45 19,8.167 18.3,8.2L16.75,8.1M16.55,14.45L16.8,13.05C16.867,12.617 16.7,12.433 16.3,12.5C15.467,12.633 15.05,13.167 15.05,14.1C15.05,14.667 15.333,15.067 15.9,15.3L17.75,14.8C18.483,14.333 18.783,13.683 18.65,12.85C18.55,12.35 18.267,11.817 17.8,11.25L15.05,11.1C14.35,11.2 13.75,11.617 13.25,12.35C12.85,13.25 12.85,14.183 13.25,15.15C13.417,15.617 13.817,16.017 14.45,16.35L14.9,16.5L17.65,16.8M8.3,19.95C7.967,19.717 7.75,19.4 7.65,19C7.483,18.133 8.067,17.5 9.4,17.1C11.733,17 12.883,18.1 12.85,20.4L12.55,21.35C11.75,22.75 10.517,23.283 8.85,22.95C7.25,22.917 5.833,23.4 4.6,24.4C4.067,24.8 3.683,25.317 3.45,25.95L3.3,26.65C3.233,27.183 3.35,27.65 3.65,28.05L4.25,28.6C4.983,29.033 5.933,28.833 7.1,28C8,26.833 7.883,25.733 6.75,24.7L5.85,24.7C4.85,25.167 4.567,25.883 5,26.85C5.567,26.983 5.967,26.733 6.2,26.1M9.3,20.25L9.95,20.05L10.5,19.45L10.45,19.05C10.217,18.617 9.95,18.483 9.65,18.65C10.083,18.283 10.417,18.367 10.65,18.9L10.75,19.3L10,20.1L9.3,20.25L9.1,20.25L8.3,19.95M8.35,19.85L7.9,19.15C7.8,18.45 8.3,17.933 9.4,17.6C11.333,17.5 12.283,18.417 12.25,20.35L12,21.1C11.4,22.167 10.35,22.633 8.85,22.5L8.35,22.5C6.95,22.5 5.7,22.967 4.6,23.9C4.067,24.267 3.683,24.767 3.45,25.4C3.283,25.833 3.233,26.25 3.3,26.65M8.35,19.85L9.1,20.25" style="fill:none;fill-rule:nonzero;stroke:#f58d07;stroke-width:0.1px;"/>
                            <path d="M14,10.05L14.05,8.9M26.3,11.4L26.3,11.55" style="fill:none;fill-rule:nonzero;stroke:#651b33;stroke-width:0.1px;"/>
                            <path d="M27.6,0C27.7,2.033 27.55,4.583 27.15,7.65L27,8.45L26.5,10.75L26.3,11.4M26.3,11.55L25.45,14M24.45,16.55L22.1,21.5L20.3,23.3M18.85,24.45L15.35,27.3L14.7,27.75L13.25,28.65M11.05,29.85C9.417,30.583 7.733,31.183 6,31.65L0.2,32.6L0,30.6" style="fill:none;fill-rule:nonzero;stroke:#651b33;stroke-width:0.5px;"/>
                            <path d="M25.45,14L24.35,14.75L24.45,16.55" style="fill:none;fill-rule:nonzero;stroke:#780707;stroke-width:0.1px;"/>
                            <path d="M13.25,28.7L11,28.4L11.05,29.85M13.05,25.65L13.25,28.65M11,28.4L10.95,26.95" style="fill:none;fill-rule:nonzero;stroke:#5a0707;stroke-opacity:0.38;stroke-width:0.1px;"/>
                        </g>
                    </g>
                    <g id="sprite5" transform="matrix(1,0,0,1,-21.1,43.95)">
                        <g id="shape4">
                            <path d="M40,-9.45L40,-11.45L40.1,-12.1C40.267,-12.933 40.55,-13.7 40.95,-14.4L41.45,-15.15L41.7,-15.45L42.2,-16.1L42.95,-16.8L42.2,-16.1L41.7,-15.45L41.45,-15.15L40.95,-14.4C40.55,-13.7 40.267,-12.933 40.1,-12.1L40,-11.45L40.1,-12.15C40.267,-12.983 40.55,-13.75 40.95,-14.45L41.2,-14.85L41.95,-15.8L42.45,-16.45L42.95,-16.8L43.3,-17L45.7,-18.05L49,-18.45L51.05,-18.25L51.15,-18.45L51.2,-18.25L53,-17.6L55,-16.6L56.85,-15.35L58.6,-13.35L60.6,-9.6L60.75,-9.25L60.95,-8.4L61.05,-7.55L61.1,-7.25C61.233,-6.017 61.033,-4.8 60.5,-3.6L60.3,-3.15C59.867,-2.317 59.3,-1.617 58.6,-1.05C57.8,-0.317 56.833,0.217 55.7,0.55L55.6,0.6L54.95,0.75L54.15,0.9C51.383,1.3 48.683,0.7 46.05,-0.9L45.4,-1.35L44.85,-1.75L45.4,-1.3L44.95,-1.6L44.95,-1.65L43.4,-2.95L42.1,-4.5C41.467,-5.367 40.967,-6.283 40.6,-7.25L40.05,-9.1L40,-9.45M51.05,-18.25L47.85,-13.2L47.55,-12.85L47.15,-12.75L42,-14.75L45.8,-7.9L46.05,-7.45L46.1,-6.95L44,-2.85L49.05,-4.05L54.95,0.75L49.05,-4.05L44,-2.85L46.1,-6.95L46.05,-7.45L45.8,-7.9L42,-14.75L47.15,-12.75L47.55,-12.85L47.85,-13.2L51.05,-18.25L51.2,-18.25L51.05,-18.25M51.2,-18.25L54.05,-10.7L60.95,-8.4L54.95,-5.7L54.7,-5.3L54.7,-4.8L55.6,0.6L54.7,-4.8L54.7,-5.3L54.95,-5.7L60.95,-8.4L54.05,-10.7L51.2,-18.25M41.45,-15.15L41.2,-14.85L41.45,-15.15" style="fill:#fc3;"/>
                            <path d="M54.95,0.75L49.05,-4.05L44,-2.85L46.1,-6.95L46.05,-7.45L45.8,-7.9L42,-14.75L47.15,-12.75L47.55,-12.85L47.85,-13.2L51.05,-18.25L51.15,-18.45L51.2,-18.25L54.05,-10.7L60.95,-8.4L54.95,-5.7L54.7,-5.3L54.7,-4.8L55.6,0.6L55.45,1L54.95,0.75" style="fill:none;fill-rule:nonzero;stroke:#000;stroke-width:0.75px;"/>
                            <path d="M40,-11.45L40,-9.45L40.05,-9.05L40.6,-7.2C40.967,-6.233 41.467,-5.317 42.1,-4.45L43.4,-2.95L44.95,-1.65L44.95,-1.6L45.4,-1.3L44.85,-1.75L45.4,-1.35L46.05,-0.9C48.683,0.7 51.383,1.3 54.15,0.9L54.95,0.75L55.6,0.6L55.7,0.55C56.833,0.217 57.8,-0.317 58.6,-1.05C59.3,-1.617 59.867,-2.317 60.3,-3.15L60.5,-3.6C61.033,-4.8 61.233,-6.017 61.1,-7.25L61.05,-7.55L60.95,-8.4L60.75,-9.25L60.6,-9.6L58.6,-13.35L56.85,-15.35L55,-16.6L53,-17.6L51.2,-18.25L51.05,-18.25L49,-18.45L45.7,-18.05L43.3,-17M42.95,-16.8L42.2,-16.1L41.7,-15.45L41.45,-15.15L40.95,-14.4C40.55,-13.7 40.267,-12.933 40.1,-12.1L40,-11.45M41.2,-14.85L41.45,-15.15" style="fill:none;fill-rule:nonzero;stroke:#470000;stroke-opacity:0.38;stroke-width:0.75px;"/>
                        </g>
                    </g>
                </g>
            </g>
        </g>
    </g>
</svg>
