<?xml version="1.0" encoding="UTF-8" standalone="no"?>
<!DOCTYPE svg PUBLIC "-//W3C//DTD SVG 1.1//EN" "http://www.w3.org/Graphics/SVG/1.1/DTD/svg11.dtd">
<svg width="100%" height="100%" viewBox="0 0 162 285" version="1.1" xmlns="http://www.w3.org/2000/svg" xmlns:xlink="http://www.w3.org/1999/xlink" xml:space="preserve" xmlns:serif="http://www.serif.com/" style="fill-rule:evenodd;clip-rule:evenodd;stroke-linecap:round;stroke-linejoin:round;">
    <g transform="matrix(1,0,0,1,-249.105,-90.7988)">
        <g transform="matrix(4.48633,0,0,4.48633,-1150.55,-816.032)">
            <g id="shape0">
                <path d="M338.3,236.95L338.1,237C337.4,237.467 337.117,237.85 337.25,238.15L337.4,239L337.65,239.5L338.05,240.05C338.917,240.25 339.617,240.05 340.15,239.45L340.55,239.1L340.6,238.65L340.35,237.95C339.983,237.083 339.3,236.75 338.3,236.95M337.55,243.4L337.1,242.5L336.75,241.65C336.217,240.283 336.033,238.967 336.2,237.7C336.367,236.3 336.883,235.333 337.75,234.8C339.25,235.2 340.517,236.05 341.55,237.35C342.483,238.517 343.05,239.883 343.25,241.45L343,243.4C342.767,244.033 342.183,244.417 341.25,244.55L340.4,244.5C340.1,244.467 339.783,244.267 339.45,243.9L338.95,242.9C338.917,242.667 338.933,242.45 339,242.25L339.4,241.6L339.8,241.35L340.2,241.25L340.4,241.3L340.65,241.4L341,242.15L340.8,242.85C341.267,242.85 341.567,242.533 341.7,241.9L341.2,240.85C341,240.617 340.817,240.483 340.65,240.45C340.117,240.117 339.517,240.233 338.85,240.8C338.117,241.3 337.683,242.167 337.55,243.4" style="fill:#f9c;"/>
                <path d="M337.75,234.8C338.317,234.533 338.933,234.433 339.6,234.5C340.567,234.567 341.433,234.967 342.2,235.7C342.933,236.333 343.533,237.133 344,238.1L344.35,238.9L345.1,241.4C345.367,242.467 345.383,243.55 345.15,244.65L345.05,244.95L344.05,246.5L342.8,246.8C341.767,247.067 340.817,246.833 339.95,246.1C338.983,245.333 338.183,244.433 337.55,243.4C337.683,242.167 338.117,241.3 338.85,240.8C339.517,240.233 340.117,240.117 340.65,240.45C340.817,240.483 341,240.617 341.2,240.85L341.7,241.9C341.567,242.533 341.267,242.85 340.8,242.85L341,242.15L340.65,241.4L340.4,241.3L340.2,241.25L339.8,241.35L339.4,241.6L339,242.25C338.933,242.45 338.917,242.667 338.95,242.9L339.45,243.9C339.783,244.267 340.1,244.467 340.4,244.5L341.25,244.55C342.183,244.417 342.767,244.033 343,243.4L343.25,241.45C343.05,239.883 342.483,238.517 341.55,237.35C340.517,236.05 339.25,235.2 337.75,234.8" style="fill:#f39;"/>
                <path d="M338.3,236.95C339.3,236.75 339.983,237.083 340.35,237.95L340.6,238.65L340.55,239.1L340.15,239.45C339.617,240.05 338.917,240.25 338.05,240.05L337.65,239.5L337.4,239L337.25,238.15C337.117,237.85 337.4,237.467 338.1,237L338.3,236.95" style="fill:#fcc;"/>
                <path d="M337.75,234.8C338.317,234.533 338.933,234.433 339.6,234.5C340.567,234.567 341.433,234.967 342.2,235.7C342.933,236.333 343.533,237.133 344,238.1L344.35,238.9L345.1,241.4C345.367,242.467 345.383,243.55 345.15,244.65L345.05,244.95L344.05,246.5L342.8,246.8C341.767,247.067 340.817,246.833 339.95,246.1C338.983,245.333 338.183,244.433 337.55,243.4L337.1,242.5L336.75,241.65C336.217,240.283 336.033,238.967 336.2,237.7C336.367,236.3 336.883,235.333 337.75,234.8Z" style="fill:none;fill-rule:nonzero;stroke:#000;stroke-opacity:0.6;stroke-width:1px;"/>
                <path d="M319.45,236.45L319.5,236.45L319.45,236.45" style="fill:#fbc9c6;"/>
                <path d="M319.5,236.45L319.45,236.45L319.3,236.3L317.85,236.35L317.3,237L317.05,237.5L316.85,238.2C317.25,238.967 317.833,239.383 318.6,239.45L319.15,239.6L319.55,239.35L319.95,238.65C320.383,237.883 320.233,237.15 319.5,236.45M313.9,239.8L314.35,238.95L314.75,238.1C315.55,236.867 316.483,235.917 317.55,235.25C318.75,234.517 319.833,234.333 320.8,234.7C321.467,236.1 321.6,237.617 321.2,239.25C320.8,240.717 320.033,242 318.9,243.1L317.25,244.15C316.617,244.317 315.983,244.1 315.35,243.5L314.8,242.75C314.667,242.483 314.633,242.117 314.7,241.65L315.2,240.6L315.7,240.25L316.45,240.15L316.95,240.35L317.25,240.55L317.3,240.8L317.35,241L317.05,241.8L316.35,242.05L317.6,242.15L318.15,241.15L318.15,240.45C318.083,239.85 317.617,239.433 316.75,239.2C315.917,238.967 314.967,239.167 313.9,239.8" style="fill:#f9c;"/>
                <path d="M320.8,234.7C321.4,234.967 321.867,235.383 322.2,235.95C322.733,236.783 322.95,237.717 322.85,238.75C322.783,239.75 322.533,240.717 322.1,241.65L321.65,242.45L320.2,244.55C319.5,245.417 318.633,246.083 317.6,246.55L317.3,246.65L315.45,246.85L314.4,246.05C313.567,245.417 313.183,244.533 313.25,243.4C313.283,242.2 313.5,241 313.9,239.8C314.967,239.167 315.917,238.967 316.75,239.2C317.617,239.433 318.083,239.85 318.15,240.45L318.15,241.15L317.6,242.15L316.35,242.05L317.05,241.8L317.35,241L317.3,240.8L317.25,240.55L316.95,240.35L316.45,240.15L315.7,240.25L315.2,240.6L314.7,241.65C314.633,242.117 314.667,242.483 314.8,242.75L315.35,243.5C315.983,244.1 316.617,244.317 317.25,244.15L318.9,243.1C320.033,242 320.8,240.717 321.2,239.25C321.6,237.617 321.467,236.1 320.8,234.7" style="fill:#f39;"/>
                <path d="M319.5,236.45C320.233,237.15 320.383,237.883 319.95,238.65L319.55,239.35L319.15,239.6L318.6,239.45C317.833,239.383 317.25,238.967 316.85,238.2L317.05,237.5L317.3,237L317.85,236.35L319.3,236.3L319.45,236.45L319.5,236.45" style="fill:#fcc;"/>
                <path d="M320.8,234.7C321.4,234.967 321.867,235.383 322.2,235.95C322.733,236.783 322.95,237.717 322.85,238.75C322.783,239.75 322.533,240.717 322.1,241.65L321.65,242.45L320.2,244.55C319.5,245.417 318.633,246.083 317.6,246.55L317.3,246.65L315.45,246.85L314.4,246.05C313.567,245.417 313.183,244.533 313.25,243.4C313.283,242.2 313.5,241 313.9,239.8L314.35,238.95L314.75,238.1C315.55,236.867 316.483,235.917 317.55,235.25C318.75,234.517 319.833,234.333 320.8,234.7Z" style="fill:none;fill-rule:nonzero;stroke:#000;stroke-opacity:0.6;stroke-width:1px;"/>
                <path d="M318.55,230.35C317.617,230.45 316.85,230.85 316.25,231.55C315.683,232.15 315.317,232.9 315.15,233.8L315.25,234.9C315.35,235.3 315.65,235.567 316.15,235.7L316.65,235.7L317.25,235.45L317.55,234.9L317.55,234.5L317.35,234.1L317.05,233.9L316.75,233.9L316.65,233.95L316.4,234.35L316.5,234.75C316.2,234.717 316.05,234.517 316.05,234.15L316.35,233.6L316.65,233.35C316.983,233.217 317.333,233.333 317.7,233.7C318.1,234.033 318.3,234.55 318.3,235.25L318.6,234.75L318.85,234.3C319.183,233.567 319.333,232.833 319.3,232.1C319.267,231.267 319.017,230.683 318.55,230.35M318.1,231.5L318.25,231.55L318.7,232.3L318.6,232.75L318.4,233.05L318.15,233.3C317.65,233.367 317.267,233.217 317,232.85L316.75,232.6L316.75,232.35L316.9,232C317.167,231.5 317.567,231.333 318.1,231.5" style="fill:#fc0;"/>
                <path d="M318.3,235.25C318.3,234.55 318.1,234.033 317.7,233.7C317.333,233.333 316.983,233.217 316.65,233.35L316.35,233.6L316.05,234.15C316.05,234.517 316.2,234.717 316.5,234.75L316.4,234.35L316.65,233.95L316.75,233.9L317.05,233.9L317.35,234.1L317.55,234.5L317.55,234.9L317.25,235.45L316.65,235.7L316.15,235.7C315.65,235.567 315.35,235.3 315.25,234.9L315.15,233.8C315.317,232.9 315.683,232.15 316.25,231.55C316.85,230.85 317.617,230.45 318.55,230.35L317.45,230.05C316.883,230.017 316.383,230.183 315.95,230.55L314.85,231.8L314.05,233.6C313.917,234.2 313.883,234.833 313.95,235.5L314,235.65L314.5,236.6L315.2,236.9L316.9,236.65L318.3,235.25" style="fill:#f90;"/>
                <path d="M318.1,231.5C317.567,231.333 317.167,231.5 316.9,232L316.75,232.35L316.75,232.6L317,232.85C317.267,233.217 317.65,233.367 318.15,233.3L318.4,233.05L318.6,232.75L318.7,232.3L318.25,231.55L318.1,231.5" style="fill:#ff0;"/>
                <path d="M318.55,230.35C319.017,230.683 319.267,231.267 319.3,232.1C319.333,232.833 319.183,233.567 318.85,234.3L318.6,234.75L318.3,235.25L316.9,236.65L315.2,236.9L314.5,236.6L314,235.65L313.95,235.5C313.883,234.833 313.917,234.2 314.05,233.6L314.85,231.8L315.95,230.55C316.383,230.183 316.883,230.017 317.45,230.05L318.55,230.35Z" style="fill:none;fill-rule:nonzero;stroke:#000;stroke-opacity:0.6;stroke-width:1px;"/>
                <path d="M341.05,235.2L340.9,234.7L340.8,234.15C340.667,233.383 340.7,232.667 340.9,232C341.133,231.233 341.5,230.767 342,230.6C342.767,231.033 343.367,231.667 343.8,232.5C344.133,233.233 344.283,234.033 344.25,234.9L343.9,235.95C343.733,236.25 343.4,236.383 342.9,236.35L342.45,236.2L341.95,235.75L341.85,235.15L341.9,234.8L342.2,234.5L342.45,234.4L342.65,234.4L342.75,234.5L342.85,234.55L343,235L342.8,235.4C343.067,235.467 343.25,235.317 343.35,234.95L343.25,234.35L343,234.05L341.95,234C341.517,234.167 341.217,234.567 341.05,235.2M342.05,231.85L342,231.85C341.567,232.017 341.367,232.183 341.4,232.35L341.4,232.85L341.5,233.15L341.65,233.5L342.85,233.4L343.1,233.35L343.15,233.1L343.1,232.65C343,232.15 342.65,231.883 342.05,231.85" style="fill:#fc0;"/>
                <path d="M342,230.6L343,230.7C343.533,230.867 343.967,231.2 344.3,231.7L345,233.25L345.1,233.7L345.3,235.15C345.3,235.75 345.167,236.333 344.9,236.9L344.85,237L344.15,237.75L343.45,237.75C342.85,237.75 342.367,237.5 342,237C341.567,236.467 341.25,235.867 341.05,235.2C341.217,234.567 341.517,234.167 341.95,234L343,234.05L343.25,234.35L343.35,234.95C343.25,235.317 343.067,235.467 342.8,235.4L343,235L342.85,234.55L342.75,234.5L342.65,234.4L342.45,234.4L342.2,234.5L341.9,234.8L341.85,235.15L341.95,235.75L342.45,236.2L342.9,236.35C343.4,236.383 343.733,236.25 343.9,235.95L344.25,234.9C344.283,234.033 344.133,233.233 343.8,232.5C343.367,231.667 342.767,231.033 342,230.6" style="fill:#f90;"/>
                <path d="M342.05,231.85C342.65,231.883 343,232.15 343.1,232.65L343.15,233.1L343.1,233.35L342.85,233.4L341.65,233.5L341.5,233.15L341.4,232.85L341.4,232.35C341.367,232.183 341.567,232.017 342,231.85L342.05,231.85" style="fill:#ff0;"/>
                <path d="M342,230.6L343,230.7C343.533,230.867 343.967,231.2 344.3,231.7L345,233.25L345.1,233.7L345.3,235.15C345.3,235.75 345.167,236.333 344.9,236.9L344.85,237L344.15,237.75L343.45,237.75C342.85,237.75 342.367,237.5 342,237C341.567,236.467 341.25,235.867 341.05,235.2L340.9,234.7L340.8,234.15C340.667,233.383 340.7,232.667 340.9,232C341.133,231.233 341.5,230.767 342,230.6Z" style="fill:none;fill-rule:nonzero;stroke:#000;stroke-opacity:0.6;stroke-width:1px;"/>
                <path d="M328.35,241.5L328.3,241.55L328.35,241.5" style="fill:#fbc9c6;"/>
                <path d="M328.3,241.55L328.1,241.5C327.167,241.7 326.7,241.967 326.7,242.3L326.45,243.25L326.5,243.9L326.65,244.65C327.45,245.25 328.267,245.367 329.1,245L329.7,244.85L329.95,244.4L330,243.5C330.033,242.467 329.483,241.8 328.35,241.5L328.3,241.55M324.55,247.85L324.5,246.75L324.55,245.7C324.65,244.033 325.067,242.583 325.8,241.35C326.633,239.95 327.617,239.183 328.75,239.05C330.15,240.15 331.083,241.617 331.55,243.45C331.95,245.117 331.883,246.8 331.35,248.5L330.2,250.45C329.667,250.95 328.9,251.067 327.9,250.8L327,250.35C326.7,250.15 326.467,249.8 326.3,249.3L326.25,248C326.317,247.767 326.433,247.55 326.6,247.35C326.767,247.15 327,246.983 327.3,246.85L327.9,246.8L328.3,246.85L328.5,247.05L328.65,247.25L328.75,248.15L328.15,248.8C328.683,249.033 329.15,248.85 329.55,248.25L329.55,246.95L329.15,246.25C328.75,245.683 328.067,245.517 327.1,245.75C326.1,245.95 325.25,246.65 324.55,247.85" style="fill:#f9c;"/>
                <path d="M328.75,239.05C329.483,239.017 330.167,239.2 330.8,239.6C331.8,240.133 332.533,240.95 333,242.05C333.433,243.083 333.683,244.183 333.75,245.35L333.7,246.4L333.35,249.3C333.117,250.533 332.617,251.667 331.85,252.7L331.6,252.95C331.067,253.517 330.483,253.9 329.85,254.1L328.4,253.85C327.2,253.65 326.333,252.967 325.8,251.8C325.167,250.567 324.75,249.25 324.55,247.85C325.25,246.65 326.1,245.95 327.1,245.75C328.067,245.517 328.75,245.683 329.15,246.25L329.55,246.95L329.55,248.25C329.15,248.85 328.683,249.033 328.15,248.8L328.75,248.15L328.65,247.25L328.5,247.05L328.3,246.85L327.9,246.8L327.3,246.85C327,246.983 326.767,247.15 326.6,247.35C326.433,247.55 326.317,247.767 326.25,248L326.3,249.3C326.467,249.8 326.7,250.15 327,250.35L327.9,250.8C328.9,251.067 329.667,250.95 330.2,250.45L331.35,248.5C331.883,246.8 331.95,245.117 331.55,243.45C331.083,241.617 330.15,240.15 328.75,239.05" style="fill:#f39;"/>
                <path d="M328.3,241.55L328.35,241.5C329.483,241.8 330.033,242.467 330,243.5L329.95,244.4L329.7,244.85L329.1,245C328.267,245.367 327.45,245.25 326.65,244.65L326.5,243.9L326.45,243.25L326.7,242.3C326.7,241.967 327.167,241.7 328.1,241.5L328.3,241.55" style="fill:#fcc;"/>
                <path d="M328.75,239.05C329.483,239.017 330.167,239.2 330.8,239.6C331.8,240.133 332.533,240.95 333,242.05C333.433,243.083 333.683,244.183 333.75,245.35L333.7,246.4L333.35,249.3C333.117,250.533 332.617,251.667 331.85,252.7L331.6,252.95C331.067,253.517 330.483,253.9 329.85,254.1L328.4,253.85C327.2,253.65 326.333,252.967 325.8,251.8C325.167,250.567 324.75,249.25 324.55,247.85L324.5,246.75L324.55,245.7C324.65,244.033 325.067,242.583 325.8,241.35C326.633,239.95 327.617,239.183 328.75,239.05Z" style="fill:none;fill-rule:nonzero;stroke:#000;stroke-opacity:0.6;stroke-width:1px;"/>
                <path d="M319.9,241.7L320.1,240.9L320.35,240.1C320.783,238.933 321.4,237.967 322.2,237.2C323.067,236.367 323.917,236.033 324.75,236.2C325.483,237.367 325.8,238.667 325.7,240.1C325.6,241.4 325.2,242.617 324.5,243.75L323.3,244.9C322.8,245.167 322.233,245.083 321.6,244.65L321.1,244.1L320.75,243.15L321.05,242.2L321.4,241.8C321.567,241.667 321.767,241.6 322,241.6L322.45,241.7C322.517,241.7 322.6,241.75 322.7,241.85L322.8,242.05L322.85,242.2L322.7,242.9L322.15,243.25L323.25,243.15L323.55,242.2L323.4,241.6C323.267,241.067 322.833,240.783 322.1,240.75C321.367,240.65 320.633,240.967 319.9,241.7M323.9,237.95L323.75,237.85C323.05,237.783 322.667,237.867 322.6,238.1L322.2,238.75L322.1,239.25L322.05,239.85C322.483,240.483 323.017,240.75 323.65,240.65L324.1,240.7L324.4,240.4L324.65,239.8C324.883,239.033 324.633,238.417 323.9,237.95" style="fill:#fc0;"/>
                <path d="M324.75,236.2C325.283,236.367 325.717,236.667 326.05,237.1C326.617,237.733 326.933,238.5 327,239.4C327.067,240.267 327,241.133 326.8,242L326.55,242.75L325.75,244.8C325.283,245.633 324.667,246.35 323.9,246.95L323.7,247.05C323.2,247.35 322.717,247.5 322.25,247.5L321.25,247C320.483,246.567 320.033,245.867 319.9,244.9C319.7,243.833 319.7,242.767 319.9,241.7C320.633,240.967 321.367,240.65 322.1,240.75C322.833,240.783 323.267,241.067 323.4,241.6L323.55,242.2L323.25,243.15L322.15,243.25L322.7,242.9L322.85,242.2L322.8,242.05L322.7,241.85C322.6,241.75 322.517,241.7 322.45,241.7L322,241.6C321.767,241.6 321.567,241.667 321.4,241.8L321.05,242.2L320.75,243.15L321.1,244.1L321.6,244.65C322.233,245.083 322.8,245.167 323.3,244.9L324.5,243.75C325.2,242.617 325.6,241.4 325.7,240.1C325.8,238.667 325.483,237.367 324.75,236.2" style="fill:#f90;"/>
                <path d="M323.9,237.95C324.633,238.417 324.883,239.033 324.65,239.8L324.4,240.4L324.1,240.7L323.65,240.65C323.017,240.75 322.483,240.483 322.05,239.85L322.1,239.25L322.2,238.75L322.6,238.1C322.667,237.867 323.05,237.783 323.75,237.85L323.9,237.95" style="fill:#ff0;"/>
                <path d="M324.75,236.2C325.283,236.367 325.717,236.667 326.05,237.1C326.617,237.733 326.933,238.5 327,239.4C327.067,240.267 327,241.133 326.8,242L326.55,242.75L325.75,244.8C325.283,245.633 324.667,246.35 323.9,246.95L323.7,247.05C323.2,247.35 322.717,247.5 322.25,247.5L321.25,247C320.483,246.567 320.033,245.867 319.9,244.9C319.7,243.833 319.7,242.767 319.9,241.7L320.1,240.9L320.35,240.1C320.783,238.933 321.4,237.967 322.2,237.2C323.067,236.367 323.917,236.033 324.75,236.2Z" style="fill:none;fill-rule:nonzero;stroke:#000;stroke-opacity:0.6;stroke-width:1px;"/>
            </g>
            <g id="sprite0" transform="matrix(0.7513,0,0,1.0625,319.3,260.4)">
                <g id="shape1">
                    <path d="M25.35,2.4C25.317,3.067 24.067,3.633 21.6,4.1L12.7,4.8L3.75,4.1C1.25,3.633 0.017,3.067 0.05,2.4C0.017,1.733 1.25,1.167 3.75,0.7L12.7,0L21.6,0.7C24.067,1.167 25.317,1.733 25.35,2.4" style="fill-opacity:0.6;"/>
                </g>
            </g>
            <g id="shape2">
                <path d="M347.5,225.6C347.633,226.3 347.517,226.867 347.15,227.3C346.817,227.733 346.333,227.933 345.7,227.9L345.1,227.85C344.333,227.717 343.6,227.383 342.9,226.85L342.35,226.45L341.95,226.05C341.283,225.35 340.817,224.617 340.55,223.85C340.217,222.917 340.267,222.183 340.7,221.65C340.967,221.317 341.317,221.117 341.75,221.05C341.617,222.017 341.8,222.933 342.3,223.8C342.7,224.433 343.3,224.767 344.1,224.8L347.5,225.6M316.85,226.45C316.183,226.95 315.5,227.267 314.8,227.4L314.25,227.45C313.65,227.483 313.183,227.283 312.85,226.85C312.417,226.317 312.367,225.583 312.7,224.65L312.75,224.4L312.8,224.25C313.7,224.917 314.617,224.867 315.55,224.1L317.3,221.9L318.1,220.65C318.467,220.717 318.767,220.9 319,221.2C319.4,221.733 319.45,222.467 319.15,223.4C318.883,224.167 318.433,224.9 317.8,225.6L317.4,226L316.9,226.4L316.85,226.45" style="fill:#660;"/>
                <path d="M347.5,225.6L344.1,224.8C343.3,224.767 342.7,224.433 342.3,223.8C341.8,222.933 341.617,222.017 341.75,221.05L342.8,221.1C343.567,221.233 344.333,221.583 345.1,222.15L345.1,222.2L345.55,222.55C346.35,223.25 346.917,224.017 347.25,224.85L347.35,225.1L347.5,225.6M312.8,224.25L312.85,224.25C313.15,223.45 313.667,222.733 314.4,222.1L314.8,221.7L315.4,221.3C315.9,220.967 316.433,220.75 317,220.65C317.4,220.55 317.767,220.55 318.1,220.65L317.3,221.9L315.55,224.1C314.617,224.867 313.7,224.917 312.8,224.25M345.1,223.65L344.95,223.3L344.15,222.05L343.3,222.8L343.25,223.05L343.35,223.5C343.383,223.7 343.8,223.933 344.6,224.2L344.95,223.85L345.1,223.65M315.05,223.95C315.55,223.883 315.917,223.617 316.15,223.15C316.517,222.517 316.4,222.25 315.8,222.35C315.167,222.283 314.817,222.567 314.75,223.2L315.05,223.95" style="fill:#390;"/>
                <path d="M328.55,229.25L328.75,229.3L328.55,229.25" style="fill:#f7a29d;"/>
                <path d="M328.75,229.3L328.55,229.25C327.717,229.417 327.3,229.65 327.3,229.95L327.05,230.9L327.05,231.5L327.2,232.25C327.933,232.85 328.683,232.983 329.45,232.65L330,232.5L330.2,232.1L330.3,231.25C330.333,230.25 329.817,229.6 328.75,229.3M325.3,235.2L325.2,234.15L325.25,233.15C325.35,231.583 325.75,230.2 326.45,229C327.217,227.7 328.133,227 329.2,226.9C330.467,228.033 331.3,229.483 331.7,231.25C332.033,232.85 331.967,234.45 331.5,236.05L330.45,237.9C329.95,238.367 329.25,238.45 328.35,238.15L327.55,237.7C327.25,237.467 327.017,237.117 326.85,236.65L326.85,235.4L327.2,234.8C327.3,234.6 327.5,234.45 327.8,234.35L328.3,234.3L328.65,234.4L329.05,234.8L329.1,235.65L328.6,236.25C329.067,236.517 329.483,236.35 329.85,235.75C329.95,235.25 329.933,234.85 329.8,234.55L329.45,233.85C329.117,233.283 328.5,233.1 327.6,233.3C326.7,233.467 325.933,234.1 325.3,235.2" style="fill:#f0524a;"/>
                <path d="M328.55,229.25L328.75,229.3C329.817,229.6 330.333,230.25 330.3,231.25L330.2,232.1L330,232.5L329.45,232.65C328.683,232.983 327.933,232.85 327.2,232.25L327.05,231.5L327.05,230.9L327.3,229.95C327.3,229.65 327.717,229.417 328.55,229.25" style="fill:#fbc9c6;"/>
                <path d="M325.3,235.2C325.933,234.1 326.7,233.467 327.6,233.3C328.5,233.1 329.117,233.283 329.45,233.85L329.8,234.55C329.933,234.85 329.95,235.25 329.85,235.75C329.483,236.35 329.067,236.517 328.6,236.25L329.1,235.65L329.05,234.8L328.65,234.4L328.3,234.3L327.8,234.35C327.5,234.45 327.3,234.6 327.2,234.8L326.85,235.4L326.85,236.65C327.017,237.117 327.25,237.467 327.55,237.7L328.35,238.15C329.25,238.45 329.95,238.367 330.45,237.9L331.5,236.05C331.967,234.45 332.033,232.85 331.7,231.25C331.3,229.483 330.467,228.033 329.2,226.9C329.867,226.9 330.483,227.1 331.05,227.5C331.95,228.067 332.6,228.883 333,229.95C333.4,230.983 333.633,232.067 333.7,233.2L333.65,234.15L333.35,236.9C333.117,238.067 332.65,239.133 331.95,240.1L331.7,240.35C331.233,240.883 330.7,241.217 330.1,241.35L328.75,241.1C327.683,240.867 326.9,240.183 326.4,239.05C325.833,237.85 325.467,236.567 325.3,235.2" style="fill:#b5170f;"/>
                <path d="M345.1,223.65L344.95,223.85L344.6,224.2C343.8,223.933 343.383,223.7 343.35,223.5L343.25,223.05L343.3,222.8L344.15,222.05L344.95,223.3L345.1,223.65M315.05,223.95L314.75,223.2C314.817,222.567 315.167,222.283 315.8,222.35C316.4,222.25 316.517,222.517 316.15,223.15C315.917,223.617 315.55,223.883 315.05,223.95" style="fill:#ffff80;"/>
                <path d="M340.55,229.05C340.617,229.55 340.467,230.067 340.1,230.6L338.6,230.45C338.333,229.717 338.467,229.033 339,228.4L339.95,228.2L339.35,227.95L340.05,228.15L340.55,229.05M320.3,227.95L320.45,227.75L321.2,227.65L321.65,227.75L321.85,227.9L322.25,228.7L322.15,229.15L321.1,229.8C320.5,229.033 320.233,228.417 320.3,227.95" style="fill:#82a0df;"/>
                <path d="M318.5,230.5L318.7,229.5L318.75,229.3L318.9,228.95C319.233,228.05 319.7,227.333 320.3,226.8C320.7,226.433 321.1,226.217 321.5,226.15C322.333,226.917 322.65,227.967 322.45,229.3L322.25,230.5C321.983,231.267 321.717,231.567 321.45,231.4C321.383,230.833 321.017,230.333 320.35,229.9C319.417,229.767 318.8,229.95 318.5,230.45L318.5,230.5M340.7,229.45L340.9,230L341.2,231.85C340.7,231.917 340.217,232.133 339.75,232.5C338.55,232.6 337.85,232 337.65,230.7C337.417,229.167 337.767,228.017 338.7,227.25L338.25,226.65C338.617,226.75 338.983,226.967 339.35,227.3L340.05,228.15L339.35,227.95L339.95,228.2L339,228.4C338.467,229.033 338.333,229.717 338.6,230.45L340.1,230.6C340.467,230.067 340.617,229.55 340.55,229.05L340.7,229.45M323.8,229.5L323.75,229.65L323.75,229.6L323.8,229.5M320.3,227.95C320.233,228.417 320.5,229.033 321.1,229.8L322.15,229.15L322.25,228.7L321.85,227.9L321.65,227.75L321.2,227.65L320.45,227.75L320.3,227.95" style="fill:#36c;"/>
                <path d="M323,232.4L321.9,233.8L321.45,234.15C320.883,234.517 320.35,234.617 319.85,234.45C319.183,234.217 318.75,233.617 318.55,232.65L318.5,232.4C318.367,231.8 318.367,231.167 318.5,230.5L318.5,230.45C318.8,229.95 319.417,229.767 320.35,229.9C321.017,230.333 321.383,230.833 321.45,231.4C321.717,231.567 321.983,231.267 322.25,230.5L322.45,229.3C322.65,227.967 322.333,226.917 321.5,226.15L322.35,226.2L322.7,226.35C323.133,226.65 323.45,227.183 323.65,227.95L323.8,229.25L323.8,229.5L323.75,229.6L323.75,229.65L323.65,230.55L323.5,231.15L323,232.4M341.2,231.85L341.15,232.9L341.1,233.15C340.867,234.117 340.433,234.717 339.8,234.95C339.3,235.117 338.767,235.017 338.2,234.65L337.7,234.3C337.133,233.767 336.7,233.1 336.4,232.3L336.15,231.65L336,231.05C335.767,230.117 335.75,229.25 335.95,228.45C336.183,227.483 336.633,226.9 337.3,226.7L338.25,226.65L338.7,227.25C337.767,228.017 337.417,229.167 337.65,230.7C337.85,232 338.55,232.6 339.75,232.5C340.217,232.133 340.7,231.917 341.2,231.85" style="fill:#254996;"/>
                <path d="M345.5,221.75C345.733,220.583 345.617,219.533 345.15,218.6L344,216.1C342.933,213.8 342.383,211.383 342.35,208.85C342.317,207.45 341.817,206.183 340.85,205.05C340.217,204.25 339.45,203.633 338.55,203.2C336.217,202.233 334.133,202.5 332.3,204C331.033,204.967 329.8,205.983 328.6,207.05L324.45,210.85L321.85,212.35C320.583,212.817 319.433,213.55 318.4,214.55C317.233,215.683 316.3,217.017 315.6,218.55C315.267,219.217 315.167,219.95 315.3,220.75" style="fill:none;fill-rule:nonzero;stroke:#600;stroke-width:1px;"/>
                <path d="M341.75,221.05C341.317,221.117 340.967,221.317 340.7,221.65C340.267,222.183 340.217,222.917 340.55,223.85C340.817,224.617 341.283,225.35 341.95,226.05L342.35,226.45L342.9,226.85C343.6,227.383 344.333,227.717 345.1,227.85L345.7,227.9C346.333,227.933 346.817,227.733 347.15,227.3C347.517,226.867 347.633,226.3 347.5,225.6L347.35,225.1L347.25,224.85C346.917,224.017 346.35,223.25 345.55,222.55L345.1,222.2L345.1,222.15C344.333,221.583 343.567,221.233 342.8,221.1L341.75,221.05M325.3,235.2L325.2,234.15L325.25,233.15L324.05,232.8L323,232.4L321.9,233.8L321.45,234.15C320.883,234.517 320.35,234.617 319.85,234.45C319.183,234.217 318.75,233.617 318.55,232.65L318.5,232.4C318.367,231.8 318.367,231.167 318.5,230.5L318.7,229.5L318.75,229.3L317.6,227.75L316.85,226.45C316.183,226.95 315.5,227.267 314.8,227.4L314.25,227.45C313.65,227.483 313.183,227.283 312.85,226.85C312.417,226.317 312.367,225.583 312.7,224.65L312.75,224.4L312.8,224.25L312.85,224.25C313.15,223.45 313.667,222.733 314.4,222.1L314.8,221.7L315.4,221.3C315.9,220.967 316.433,220.75 317,220.65C317.4,220.55 317.767,220.55 318.1,220.65C318.467,220.717 318.767,220.9 319,221.2C319.4,221.733 319.45,222.467 319.15,223.4C318.883,224.167 318.433,224.9 317.8,225.6L317.4,226L316.9,226.4L316.85,226.45M329.2,226.9C328.133,227 327.217,227.7 326.45,229C325.75,230.2 325.35,231.583 325.25,233.15M331.95,240.1C332.65,239.133 333.117,238.067 333.35,236.9L333.65,234.15L333.7,233.2C333.633,232.067 333.4,230.983 333,229.95C332.6,228.883 331.95,228.067 331.05,227.5C330.483,227.1 329.867,226.9 329.2,226.9M342.9,226.85L341.95,228.1L340.7,229.45L340.9,230L341.2,231.85L341.15,232.9L341.1,233.15C340.867,234.117 340.433,234.717 339.8,234.95C339.3,235.117 338.767,235.017 338.2,234.65L337.7,234.3C337.133,233.767 336.7,233.1 336.4,232.3L336.35,232.35L335.45,232.7L333.7,233.2M338.25,226.65L337.3,226.7C336.633,226.9 336.183,227.483 335.95,228.45C335.75,229.25 335.767,230.117 336,231.05L336.15,231.65L336.4,232.3M340.05,228.15L339.35,227.3C338.983,226.967 338.617,226.75 338.25,226.65M340.55,229.05L340.05,228.15M340.7,229.45L340.55,229.05M325.3,235.2C325.467,236.567 325.833,237.85 326.4,239.05C326.9,240.183 327.683,240.867 328.75,241.1L330.1,241.35C330.7,241.217 331.233,240.883 331.7,240.35M321.5,226.15L322.35,226.2L322.7,226.35C323.133,226.65 323.45,227.183 323.65,227.95L323.8,229.25L323.8,229.5L323.75,229.65L323.65,230.55L323.5,231.15L323,232.4M318.75,229.3L318.9,228.95C319.233,228.05 319.7,227.333 320.3,226.8C320.7,226.433 321.1,226.217 321.5,226.15" style="fill:none;fill-rule:nonzero;stroke:#600;stroke-width:1px;"/>
                <path d="M332.9,237.05C334.1,237.717 335,238.683 335.6,239.95C336.133,241.15 336.367,242.433 336.3,243.8L335.8,245.35C335.5,245.85 334.983,246.05 334.25,245.95L333.55,245.75L332.8,245.05L332.6,244.1L332.7,243.55C332.8,243.35 332.95,243.2 333.15,243.1L333.6,242.95L333.85,243L334.05,243.1L334.2,243.2L334.4,243.9L334.05,244.45C334.517,244.55 334.817,244.333 334.95,243.8L334.8,242.85L334.35,242.4L332.8,242.3C332.1,242.567 331.617,243.2 331.35,244.2L330.95,242.6C330.75,241.367 330.817,240.233 331.15,239.2C331.483,238.033 332.067,237.317 332.9,237.05M333,239L332.8,238.95C332.167,239.25 331.883,239.517 331.95,239.75L331.9,240.55L332.05,241L332.35,241.55L334.1,241.45L334.5,241.3L334.6,240.85L334.55,240.25C334.383,239.45 333.867,239.033 333,239" style="fill:#fc0;"/>
                <path d="M331.35,244.2C331.617,243.2 332.1,242.567 332.8,242.3L334.35,242.4L334.8,242.85L334.95,243.8C334.817,244.333 334.517,244.55 334.05,244.45L334.4,243.9L334.2,243.2L334.05,243.1L333.85,243L333.6,242.95L333.15,243.1C332.95,243.2 332.8,243.35 332.7,243.55L332.6,244.1L332.8,245.05L333.55,245.75L334.25,245.95C334.983,246.05 335.5,245.85 335.8,245.35L336.3,243.8C336.367,242.433 336.133,241.15 335.6,239.95C335,238.683 334.1,237.717 332.9,237.05L334.45,237.2C335.25,237.467 335.9,237.983 336.4,238.75L337.5,241.05L337.65,241.85L337.9,244.05C337.933,245.017 337.767,245.933 337.4,246.8L337.25,247L336.2,248.15L335.1,248.15C334.233,248.183 333.483,247.817 332.85,247.05C332.217,246.183 331.717,245.233 331.35,244.2" style="fill:#f90;"/>
                <path d="M333,239C333.867,239.033 334.383,239.45 334.55,240.25L334.6,240.85L334.5,241.3L334.1,241.45L332.35,241.55L332.05,241L331.9,240.55L331.95,239.75C331.883,239.517 332.167,239.25 332.8,238.95L333,239" style="fill:#ff0;"/>
                <path d="M332.9,237.05C332.067,237.317 331.483,238.033 331.15,239.2C330.817,240.233 330.75,241.367 330.95,242.6L331.35,244.2C331.717,245.233 332.217,246.183 332.85,247.05C333.483,247.817 334.233,248.183 335.1,248.15L336.2,248.15L337.25,247L337.4,246.8C337.767,245.933 337.933,245.017 337.9,244.05L337.65,241.85L337.5,241.05L336.4,238.75C335.9,237.983 335.25,237.467 334.45,237.2L332.9,237.05Z" style="fill:none;fill-rule:nonzero;stroke:#000;stroke-opacity:0.6;stroke-width:1px;"/>
            </g>
        </g>
    </g>
</svg>
