<?xml version="1.0" encoding="UTF-8"?>
<svg version="1.1" viewBox="0 0 15.525 33.432" xmlns="http://www.w3.org/2000/svg" xmlns:cc="http://creativecommons.org/ns#" xmlns:dc="http://purl.org/dc/elements/1.1/" xmlns:rdf="http://www.w3.org/1999/02/22-rdf-syntax-ns#" xmlns:xlink="http://www.w3.org/1999/xlink">
<metadata>
<rdf:RDF>
<cc:Work rdf:about="">
<dc:format>image/svg+xml</dc:format>
<dc:type rdf:resource="http://purl.org/dc/dcmitype/StillImage"/>
</cc:Work>
</rdf:RDF>
</metadata>
<g transform="translate(-267.18 -183.72)">
<use transform="translate(267.2,183.75)" width="15.5" height="33.400002" xlink:href="#a"/>
</g>
<defs>
<g id="a" transform="translate(-267.2,-183.75)">
<path d="m268.3 188.65-0.25-1.3 1.15-0.15 1.75 0.3-0.3 1.2-0.1-0.2-2.25 0.15m9.1-0.7 0.35 6.75 0.05 0.8-1.85 0.15-0.05-0.05-1.45-3.4h0.05l1-4.05v-0.05l1.9-0.15m-9.95 20 0.1-0.4 0.5-6.25 1.05 2.45-1.05 4.05v0.1l-0.6 0.05" fill="#bb953e" fill-rule="evenodd"/>
<path d="m274.7 186.3 0.05-0.1q0.75-2.05 1.25-2.45 1 1.15 1.3 2.55v0.05l0.05 0.1v0.05l0.05 1.45-1.9 0.15-0.8-1.8" fill="#c8a75b" fill-rule="evenodd"/>
<path d="m277.8 195.5v0.15l-1.8 0.15-0.05-0.15h-0.05l-0.3 1.1 0.3-1.1v-0.05l0.05 0.05 1.85-0.15m0.5 7.6v0.1l-1.9 0.15-0.05-0.1-0.05 0.05-1 4.05h-0.05l1.5 3.4-0.05 0.05-1.45-3.45-2.25 0.15-0.05-0.1h-0.05v-0.05l-0.05-0.3 0.05 0.2v0.05l2.25-0.15 0.1 0.2v-0.05l1.05-4.05-1.55-3.6h0.15l-0.05 0.05 1.5 3.55 1.95-0.15m-10.25-1.8v-0.05l1.05 2.5 2.25-0.15 0.1 0.25 1.05-4.05-1.5-3.6-2.2 0.15v-0.05h-0.1l-0.4 1.5 0.2-2.25 0.3 0.75 2.15-0.15 0.05 0.05h0.05l1.55 3.6h-0.1l-1 4.05h-0.05l0.2 0.5-0.2-0.5-2.25 0.15-0.05-0.2-0.05 0.05-1 4.05h-0.05v-0.1l1.05-4.05-1.05-2.45m10.95 9.5h0.1l-0.05 0.05-0.05-0.05m-3.5-22.7v0.05l-1 4.05h-0.05l-2.25 0.15-0.05-0.2h-0.05l-1 4.05h-0.05v-0.05l1.05-4.05-0.4-0.95 0.4 0.95 2.25-0.15 0.1 0.2 1.05-4.05" fill="#fdcc5b" fill-rule="evenodd"/>
<path d="m277.8 195.65 0.2 4.35 0.25 2.25 0.05 0.85-1.95 0.15-1.5-3.55 0.05-0.05 0.7-2.9 0.3-1.1h0.05l0.05 0.15 1.8-0.15m0.5 7.55q0.35 3 1.35 5.4l-0.55 2.2h-0.1l-0.7-1q-1.4-2.25-1.65-3.65-0.25 1.8 0 3.4l0.3 1.4h-0.15l-0.05-0.2-1.5-3.4h0.05l1-4.05 0.05-0.05 0.05 0.1 1.9-0.15m-9.8-7.65v-0.45l0.05-1.15 0.05-1.2-0.05-1.7-0.2-2-0.05-0.4 2.25-0.15 0.1 0.2 1.05 2.45 0.4 0.95-1.05 4.05v0.05h-0.05l-0.05-0.05-2.15 0.15-0.3-0.75m8.15 10.6v-0.1 0.1m-5.2-2.3 0.2 0.5-0.2 1.05-0.55 3.25-0.2 2.35v0.35l-1.1 0.1-1.5-3.55 1-4.05 0.05-0.05 0.05 0.2 2.25-0.15" fill="#9c8a32" fill-rule="evenodd"/>
<path d="m276.65 206.15q0.25 1.4 1.65 3.65l0.7 1-2.05 0.15-0.3-1.4q-0.25-1.6 0-3.4m-4.75-1.3 0.95 2.2 0.05 0.3-0.3 1.05-0.7 2.9h-0.05l-1.15 0.05v-0.35l0.2-2.35 0.55-3.25 0.2-1.05 0.25 0.5" fill="#7b6828" fill-rule="evenodd"/>
<path d="m276.65 206.15v-0.1 0.1" fill="#ad1c07" fill-rule="evenodd"/>
<path d="m279.65 208.6q0.75 1.8 1.85 3.25l1.1 0.9h-1.7v-0.05l-1.85-1.85 0.05-0.05 0.55-2.2m-1.9 4.65-0.2 0.3-0.05 0.45v0.2q-0.2 0.95-1.05 1.2l-0.7 0.15-0.7 0.05h-0.1l-0.35-0.7 1.1-0.05 1-4.05 0.05-0.05 0.05 0.2h0.15l0.3 1.3 0.55 0.95-0.05 0.05m-6.85 2.75-0.2 0.15-0.65 0.3-0.8-0.95-0.25-0.3q-0.75-1.05-1.15-2.2-0.5-1.3-0.65-2.7l0.1-1.15 0.15-1.2 0.6-0.05h0.05l1.5 3.55 1.1-0.1q-0.1 2.4 0.2 4.65m0.15-19.8h0.05l1-4.05h0.05l0.05 0.2 2.25-0.15 1.45 3.4v0.05l-0.3 1.1-0.7 2.9h-0.15l-2.15 0.15-1.55-3.6" fill="#cdb667" fill-rule="evenodd"/>
<path d="m280.25 212.75-2.35 0.45h-0.1l-0.55-0.95-0.3-1.3 2.05-0.15 1.9 1.9-0.65 0.05m-5.3 2.85h-1.45l-2.6 0.4q-0.3-2.25-0.2-4.65l1.15-0.05v0.05l1.55 3.65 1.2-0.1 0.35 0.7m-2.35-15.8 2.15-0.15 1.55 3.6-1.05 4.05v0.05l-0.1-0.2-2.25 0.15v-0.05l-0.05-0.2-0.2-1.65-0.05-0.75v-0.3l-0.05-1.3v-2.8l-0.2 0.55-0.4 2.35-0.3 1.2-0.2-0.5h0.05l1-4.05h0.1" fill="#776426" fill-rule="evenodd"/>
<path d="m270.95 187.5 0.85 0.2q2.15 0.5 2.9-1.4l0.8 1.8-1.05 4.05-0.1-0.2-2.25 0.15-0.4-0.95-1.05-2.45 0.3-1.2m-2.9 13.75 0.25-3.45 0.4-1.5h0.1v0.05l2.2-0.15 1.5 3.6-1.05 4.05-0.1-0.25-2.25 0.15-1.05-2.5m7.2 6.1 1.45 3.45-1 4.05-1.1 0.05-0.5-1.3-0.2-0.65-0.05-0.2v-0.15h-0.05l-0.35-1.45q-0.35-1.8-0.55-3.75h0.05l0.05 0.1 2.25-0.15" fill="#c5a94b" fill-rule="evenodd"/>
<path d="m272.55 200.8h-0.2l0.2-0.55v0.55" fill="#084382" fill-rule="evenodd"/>
<path d="m272.35 200.8h0.2v2.25l0.05 1.3v0.3l0.05 0.75 0.2 1.65-0.95-2.2-0.25-0.5 0.3-1.2 0.4-2.35m0.3 4.6v0.05-0.05" fill="#5b4d1e" fill-rule="evenodd"/>
<path d="m271.65 204.35 0.25 0.5-0.25-0.5m0.2 6.95h0.05l-0.05 0.05v-0.05m0.75-2.9 0.3-1.05v0.05l-0.3 1" fill="#d29402" fill-rule="evenodd"/>
<path d="m272.65 205.4v0.05-0.05" fill="#ded5a5" fill-rule="evenodd"/>
<path d="m271.9 211.3 0.7-2.9 0.3-1q0.2 1.95 0.55 3.75l0.35 1.45 0.05 0.15 0.05 0.2 0.2 0.65 0.5 1.3-1.2 0.1-1.55-3.65 0.05-0.05" fill="#a08734" fill-rule="evenodd"/>
<path d="m273.8 212.6h0.05v0.15l-0.05-0.15" fill="#e9350a" fill-rule="evenodd"/>
<path d="m270.05 216.45 0.65 0.6v0.05q-2.3 0.2-3.5-0.85v-5.95q0.15 1.4 0.65 2.7 0.4 1.15 1.15 2.2l0.25 0.3 0.8 0.95" fill="#fee6af" fill-rule="evenodd"/>
<path d="m270.7 217.05 0.05 0.05h-0.05v-0.05" fill="#616161" fill-rule="evenodd"/>
<path d="m282.6 212.75h0.05l0.05 0.05h-0.05l-0.1-0.05h0.05m-1.7 0h-0.65l0.65-0.05v0.05m-3.05 0.45-0.1 0.05 0.05-0.05h0.05" fill="#555ba0" fill-rule="evenodd"/>
<path d="m268.3 188.65-0.25-1.3 1.15-0.15 1.75 0.3 0.85 0.2q2.15 0.5 2.9-1.4l0.05-0.1q0.75-2.05 1.25-2.45 1 1.15 1.3 2.55v0.05l0.05 0.1m0 0.05 0.05 1.45 0.35 6.75 0.05 0.8v0.15l0.2 4.35 0.25 2.25 0.05 0.85v0.1q0.35 3 1.35 5.4 0.75 1.8 1.85 3.25l1.1 0.9m-0.05 0h-1.65m-0.65 0-2.35 0.45m-0.15 0.05-0.2 0.3-0.05 0.45v0.2q-0.2 0.95-1.05 1.2l-0.7 0.15-0.7 0.05m-0.1 0h-1.45l-2.6 0.4-0.2 0.15-0.65 0.3 0.65 0.6m0 0.05q-2.3 0.2-3.5-0.85v-5.95l0.1-1.15 0.15-1.2 0.1-0.4 0.5-6.25v-0.05l0.25-3.45 0.2-2.25v-0.45l0.05-1.15 0.05-1.2-0.05-1.7-0.2-2-0.05-0.4m-1.1 21.65q0.15 1.4 0.65 2.7 0.4 1.15 1.15 2.2l0.25 0.3 0.8 0.95m0.65 0.65v-0.05" fill="none" stroke="#795211" stroke-linecap="round" stroke-linejoin="round" stroke-width=".05"/>
<path d="m277.35 186.45v0.05m0.55 26.7h-0.05m-2.8 2.4h-0.1" fill="none" stroke="#795211" stroke-linecap="round" stroke-linejoin="round" stroke-width=".05"/>
</g>
</defs>
</svg>
