<?xml version="1.0" encoding="UTF-8" standalone="no"?>
<!DOCTYPE svg PUBLIC "-//W3C//DTD SVG 1.1//EN" "http://www.w3.org/Graphics/SVG/1.1/DTD/svg11.dtd">
<svg width="100%" height="100%" viewBox="0 0 241 314" version="1.1" xmlns="http://www.w3.org/2000/svg" xmlns:xlink="http://www.w3.org/1999/xlink" xml:space="preserve" xmlns:serif="http://www.serif.com/" style="fill-rule:evenodd;clip-rule:evenodd;stroke-linecap:round;stroke-linejoin:round;">
    <g transform="matrix(1,0,0,1,-154.85,-43.8)">
        <g>
            <g id="shape0">
                <path d="M167.25,138.95C175.95,121.25 189.517,106.533 207.95,94.8C231.65,84.4 253,81.583 272,86.35C245.467,120.917 224.333,163.333 208.6,213.6C205.033,211.5 201.283,210.367 197.35,210.2L206.85,219.05L203.8,229.65C196.433,223.25 190.317,216.25 185.45,208.65C191.883,208.617 196.7,202.183 199.9,189.35C202.133,179.183 199.8,169 192.9,158.8L204.4,144.8C199.867,136 194.033,129.833 186.9,126.3L171.9,138.95L167.25,138.95M179.8,243.05C163.233,224.75 154.95,203 154.95,177.8C154.95,170.9 155.583,164.25 156.85,157.85L163.9,161.8C158.333,176.733 159.2,187.933 166.5,195.4C165.7,197.033 165.167,199.183 164.9,201.85C164.367,208.117 166.867,215.6 172.4,224.3C174.233,227.167 176.4,230.183 178.9,233.35L188.5,242.65L179.8,243.05M207.9,141.8L222.9,124.3C221.6,117 216.767,112.333 208.4,110.3L189.9,122.8C198.5,127.833 204.5,134.167 207.9,141.8" style="fill:#cc2a2a;"/>
                <path d="M162.65,138.95L171.9,138.95L186.9,126.3C194.033,129.833 199.867,136 204.4,144.8L192.9,158.8C199.8,169 202.133,179.183 199.9,189.35C196.7,202.183 191.883,208.617 185.45,208.65L182.8,204.25C180.733,200.583 178.933,196.783 177.4,192.85C172.1,190.35 168.467,191.2 166.5,195.4C159.2,187.933 158.333,176.733 163.9,161.8L156.85,157.85C158.117,151.283 160.05,144.983 162.65,138.95M208.6,213.6C211.967,215.6 215.167,218.467 218.2,222.2L206.85,219.05L197.35,210.2C201.283,210.367 205.033,211.5 208.6,213.6M233.25,220.9C234.317,212.733 239.533,204.883 248.9,197.35C254.067,194.917 259.233,193.8 264.4,194L233.25,220.9M268.55,191.8L272.9,174.35C278.467,174.25 283.733,174.783 288.7,175.95L268.55,191.8M292.85,171.6C286.683,169.767 280.367,168.833 273.9,168.8L278.4,146.8C288.5,143.533 296.7,144.867 303,150.8C303.533,151.3 304.017,151.95 304.45,152.75L292.85,171.6M207.9,141.8C204.5,134.167 198.5,127.833 189.9,122.8L208.4,110.3C216.767,112.333 221.6,117 222.9,124.3L207.9,141.8M166.4,160.3L173.9,162.8C182.833,172.6 188.167,182.283 189.9,191.85C190.767,182.183 187.1,169.667 178.9,154.3L179.4,145.8L172.9,156.55L166.4,160.3" style="fill:#fff;"/>
                <path d="M272,86.35L275.3,82.1L272,86.35C253,81.583 231.65,84.4 207.95,94.8C189.517,106.533 175.95,121.25 167.25,138.95L162.65,138.95C167.417,127.85 174.417,117.683 183.65,108.45C190.883,101.217 198.683,95.367 207.05,90.9C220.817,83.467 236.133,79.75 253,79.75C260.767,79.75 268.2,80.533 275.3,82.1C278.767,82.867 282.15,83.817 285.45,84.95C296.283,88.683 306.3,94.433 315.5,102.2C317.833,104.167 320.1,106.25 322.3,108.45C328.6,114.75 333.867,121.483 338.1,128.65L315.75,106.9C301.65,97 287.067,90.15 272,86.35" style="fill:#d34623;"/>
                <path d="M295.95,224.35C282.983,217.383 267.633,215.217 249.9,217.85C266.767,210.65 283.117,209.983 298.95,215.85L306.45,212.85L299.45,222.1L299.45,233.35L295.95,224.35M264.4,242.35C279.967,242.65 286.467,247.15 283.9,255.85C282.867,264.183 276.55,268.55 264.95,268.95L262.35,264.1L257.9,255.85L262.1,247.2L264.4,242.35M166.4,160.3L172.9,156.55L179.4,145.8L178.9,154.3C187.1,169.667 190.767,182.183 189.9,191.85C188.167,182.283 182.833,172.6 173.9,162.8L166.4,160.3M166.5,195.4C168.467,191.2 172.1,190.35 177.4,192.85C178.933,196.783 180.733,200.583 182.8,204.25L182.1,210.25L180.8,220.85L176.6,222.6L172.4,224.3C166.867,215.6 164.367,208.117 164.9,201.85C165.167,199.183 165.7,197.033 166.5,195.4"/>
                <path d="M203.8,229.65C206.5,230.717 209.367,231.733 212.4,232.7C222.7,236 234.733,238.617 248.5,240.55L249.4,240.8C253.633,241.867 258.633,242.383 264.4,242.35L262.1,247.2C241.267,244.833 221.417,240.517 202.55,234.25C192.883,226.817 186.067,218.817 182.1,210.25L182.8,204.25L185.45,208.65C190.317,216.25 196.433,223.25 203.8,229.65M262.35,264.1L264.95,268.95L259.4,268.85C233.7,267.55 213.233,261.9 198,251.9L188.5,242.65L178.9,233.35C176.4,230.183 174.233,227.167 172.4,224.3L176.6,222.6C178.9,230.467 186.333,239 198.9,248.2C215.633,257.467 236.783,262.767 262.35,264.1" style="fill:#ccc;"/>
                <path d="M262.1,247.2L257.9,255.85L262.35,264.1C236.783,262.767 215.633,257.467 198.9,248.2C186.333,239 178.9,230.467 176.6,222.6L180.8,220.85L182.1,210.25C186.067,218.817 192.883,226.817 202.55,234.25C221.417,240.517 241.267,244.833 262.1,247.2M257.9,255.85L233.9,249.85L257.9,255.85M206.9,243.35L194.9,234.85L206.9,243.35M187.9,229.35L180.8,220.85L187.9,229.35M226.9,248.35L215.9,245.35L226.9,248.35" style="fill:#fbfbfb;"/>
                <path d="M315.75,106.9L338.1,128.65C346.733,143.25 351.05,159.633 351.05,177.8C351.05,200 344.6,219.533 331.7,236.4C326.733,225.9 318.817,215.383 307.95,204.85L307.95,184.85C302.183,180.583 295.767,177.617 288.7,175.95L292.85,171.6C297.817,173.1 302.683,175.183 307.45,177.85C307.783,165.35 306.783,156.983 304.45,152.75C312.55,142.317 316.317,127.033 315.75,106.9M212.4,232.7L233.25,220.9C232.917,223.367 232.967,225.85 233.4,228.35C235.767,234.317 240.8,238.383 248.5,240.55C234.733,238.617 222.7,236 212.4,232.7M306.35,260.25C290.717,270.65 272.933,275.85 253,275.85C231.733,275.85 212.9,269.933 196.5,258.1C192.033,254.867 187.75,251.2 183.65,247.1L179.8,243.05L188.5,242.65L198,251.9C213.233,261.9 233.7,267.55 259.4,268.85L264.95,268.95C276.55,268.55 282.867,264.183 283.9,255.85C292,259.083 301.35,254.583 311.95,242.35L318.65,250.6C314.717,254.2 310.617,257.417 306.35,260.25" style="fill:#820101;"/>
                <path d="M272,86.35C287.067,90.15 301.65,97 315.75,106.9C316.317,127.033 312.55,142.317 304.45,152.75C304.017,151.95 303.533,151.3 303,150.8C296.7,144.867 288.5,143.533 278.4,146.8L273.9,168.8C280.367,168.833 286.683,169.767 292.85,171.6L288.7,175.95C283.733,174.783 278.467,174.25 272.9,174.35L268.55,191.8L267.9,194.35L264.4,194C259.233,193.8 254.067,194.917 248.9,197.35C239.533,204.883 234.317,212.733 233.25,220.9L212.4,232.7C209.367,231.733 206.5,230.717 203.8,229.65L206.85,219.05L218.2,222.2C215.167,218.467 211.967,215.6 208.6,213.6C224.333,163.333 245.467,120.917 272,86.35" style="fill:#ba0202;"/>
                <path d="M264.4,194L267.9,194.35L268.55,191.8L288.7,175.95C295.767,177.617 302.183,180.583 307.95,184.85L307.95,204.85C318.817,215.383 326.733,225.9 331.7,236.4C328.867,240.1 325.733,243.667 322.3,247.1L318.65,250.6L311.95,242.35C301.35,254.583 292,259.083 283.9,255.85C286.467,247.15 279.967,242.65 264.4,242.35C258.633,242.383 253.633,241.867 249.4,240.8L248.5,240.55C240.8,238.383 235.767,234.317 233.4,228.35C232.967,225.85 232.917,223.367 233.25,220.9L264.4,194M304.45,152.75C306.783,156.983 307.783,165.35 307.45,177.85C302.683,175.183 297.817,173.1 292.85,171.6L304.45,152.75M295.95,224.35L299.45,233.35L299.45,222.1L306.45,212.85L298.95,215.85C283.117,209.983 266.767,210.65 249.9,217.85C267.633,215.217 282.983,217.383 295.95,224.35" style="fill:#d9d9d9;"/>
                <path d="M345.6,124.15C354.233,138.75 358.55,155.133 358.55,173.3C358.55,200.367 348.967,223.467 329.8,242.6C322.567,249.867 314.75,255.75 306.35,260.25C310.617,257.417 314.717,254.2 318.65,250.6L322.3,247.1C325.733,243.667 328.867,240.1 331.7,236.4C344.6,219.533 351.05,200 351.05,177.8C351.05,159.633 346.733,143.25 338.1,128.65L345.6,124.15" style="fill:#7c1414;"/>
                <path d="M338.1,128.65C333.867,121.483 328.6,114.75 322.3,108.45C320.1,106.25 317.833,104.167 315.5,102.2L325.05,99.5L329.8,103.95C336.1,110.25 341.367,116.983 345.6,124.15L338.1,128.65" style="fill:#f20404;"/>
                <path d="M315.5,102.2C306.3,94.433 296.283,88.683 285.45,84.95L294.75,81.1C305.717,85.133 315.817,91.267 325.05,99.5L315.5,102.2" style="fill:#fc6b3a;"/>
                <path d="M285.45,84.95C282.15,83.817 278.767,82.867 275.3,82.1C268.2,80.533 260.767,79.75 253,79.75C236.133,79.75 220.817,83.467 207.05,90.9C222.717,80.467 240.533,75.25 260.5,75.25C272.733,75.25 284.15,77.2 294.75,81.1L285.45,84.95" style="fill:#f7aa5e;"/>
                <path d="M338.1,128.65C333.867,121.483 328.6,114.75 322.3,108.45C320.1,106.25 317.833,104.167 315.5,102.2C306.3,94.433 296.283,88.683 285.45,84.95C282.15,83.817 278.767,82.867 275.3,82.1M207.05,90.9C198.683,95.367 190.883,101.217 183.65,108.45C174.417,117.683 167.417,127.85 162.65,138.95C160.05,144.983 158.117,151.283 156.85,157.85C155.583,164.25 154.95,170.9 154.95,177.8C154.95,203 163.233,224.75 179.8,243.05L183.65,247.1C187.75,251.2 192.033,254.867 196.5,258.1C212.9,269.933 231.733,275.85 253,275.85C272.933,275.85 290.717,270.65 306.35,260.25C314.75,255.75 322.567,249.867 329.8,242.6C348.967,223.467 358.55,200.367 358.55,173.3C358.55,155.133 354.233,138.75 345.6,124.15C341.367,116.983 336.1,110.25 329.8,103.95L325.05,99.5C315.817,91.267 305.717,85.133 294.75,81.1C284.15,77.2 272.733,75.25 260.5,75.25C240.533,75.25 222.717,80.467 207.05,90.9M331.7,236.4C344.6,219.533 351.05,200 351.05,177.8C351.05,159.633 346.733,143.25 338.1,128.65M331.7,236.4C328.867,240.1 325.733,243.667 322.3,247.1L318.65,250.6C314.717,254.2 310.617,257.417 306.35,260.25" style="fill:none;fill-rule:nonzero;stroke:#000;stroke-opacity:0.4;stroke-width:0.2px;"/>
                <path d="M275.3,82.1L272,86.35C245.467,120.917 224.333,163.333 208.6,213.6M275.3,82.1C268.2,80.533 260.767,79.75 253,79.75C236.133,79.75 220.817,83.467 207.05,90.9M203.8,229.65C206.5,230.717 209.367,231.733 212.4,232.7C222.7,236 234.733,238.617 248.5,240.55L249.4,240.8C253.633,241.867 258.633,242.383 264.4,242.35C279.967,242.65 286.467,247.15 283.9,255.85C282.867,264.183 276.55,268.55 264.95,268.95L262.35,264.1L257.9,255.85L262.1,247.2L264.4,242.35M233.9,249.85L257.9,255.85M188.5,242.65L198,251.9C213.233,261.9 233.7,267.55 259.4,268.85L264.95,268.95M166.5,195.4C168.467,191.2 172.1,190.35 177.4,192.85C178.933,196.783 180.733,200.583 182.8,204.25L185.45,208.65C190.317,216.25 196.433,223.25 203.8,229.65M166.5,195.4C165.7,197.033 165.167,199.183 164.9,201.85C164.367,208.117 166.867,215.6 172.4,224.3L176.6,222.6L180.8,220.85L182.1,210.25L182.8,204.25M194.9,234.85L206.9,243.35M188.5,242.65L178.9,233.35C176.4,230.183 174.233,227.167 172.4,224.3M180.8,220.85L187.9,229.35M215.9,245.35L226.9,248.35" style="fill:none;fill-rule:nonzero;stroke:#000;stroke-opacity:0.41;stroke-width:0.2px;"/>
                <path d="M350.95,166.2C352.917,160.6 355.467,157.4 358.6,156.6C362.933,162.133 366.1,169.467 368.1,178.6L353.05,191.25L347.6,181.7C348.4,175.333 349.517,170.167 350.95,166.2M370.45,195.5C370.817,200.367 370.95,205.567 370.85,211.1L361.75,216.25L359.4,202.4L370.45,195.5M370.35,223L369.2,236.5L363.1,238.2L363.4,225.9L370.35,223M368.15,245L366,259.5L376.45,258.3L371.2,273.9L370.1,275.9C367.8,279.1 364.467,280.8 360.1,281L356.55,260.7L362.6,259.9L362.9,246.7L368.15,245M366,259.5L362.6,259.9L366,259.5" style="fill:#b90202;"/>
                <path d="M353.05,191.25L368.1,178.6C369.267,183.667 370.05,189.3 370.45,195.5L359.4,202.4L353.05,191.25M370.85,211.1L370.35,223L363.4,225.9L361.75,216.25L370.85,211.1M369.2,236.5L368.15,245L362.9,246.7L363.1,238.2L369.2,236.5M371.2,273.9L395,320.65L384.85,326.95L373.9,313.1L374.65,333.3L375.2,349L365.8,351.35L358.45,298.7L357.05,341.75L350.95,357L341.7,354.3L350.55,298.15L340.3,302.6L352.4,280L360.1,281C364.467,280.8 367.8,279.1 370.1,275.9L371.2,273.9" style="fill:#fff;"/>
                <path d="M384.85,326.95L374.65,333.3L373.9,313.1L384.85,326.95M365.8,351.35L356.3,353.65L357.05,341.75L358.45,298.7L365.8,351.35M341.7,354.3L319.85,347.8L335.8,311.3L327.8,307L346.95,270.65L349.4,279.05L352.4,280L340.3,302.6L350.55,298.15L341.7,354.3M357.15,248.55L357.2,239.9L363.1,238.2L362.9,246.7L357.15,248.55M356.45,228.8C356.15,225.767 355.733,222.817 355.2,219.95L361.75,216.25L363.4,225.9L356.45,228.8M351.75,207.2C350.417,203.367 348.833,199.767 347,196.4L353.05,191.25L359.4,202.4L351.75,207.2" style="fill:#949494;"/>
                <path d="M347.6,181.7L353.05,191.25L347,196.4L346.4,195.35C346.667,190.317 347.067,185.767 347.6,181.7M346.95,270.65L344.5,262.2L356.55,260.7L356.5,260L357.15,248.55L362.9,246.7L362.6,259.9L356.55,260.7L360.1,281L352.4,280L349.4,279.05L346.95,270.65M357.2,239.9C357.133,236.067 356.883,232.367 356.45,228.8L363.4,225.9L363.1,238.2L357.2,239.9M355.2,219.95C354.3,215.45 353.15,211.2 351.75,207.2L359.4,202.4L361.75,216.25L355.2,219.95" style="fill:#680000;"/>
                <path d="M368.1,178.6C366.1,169.467 362.933,162.133 358.6,156.6C355.467,157.4 352.917,160.6 350.95,166.2M368.1,178.6C369.267,183.667 370.05,189.3 370.45,195.5C370.817,200.367 370.95,205.567 370.85,211.1L370.35,223L369.2,236.5L368.15,245L366,259.5L376.45,258.3L371.2,273.9L395,320.65L384.85,326.95L374.65,333.3L375.2,349L365.8,351.35L356.3,353.65L357.05,341.75L350.95,357L341.7,354.3L319.85,347.8L335.8,311.3L327.8,307L346.95,270.65L344.5,262.2L356.55,260.7L362.6,259.9L366,259.5M356.5,260L357.15,248.55L357.2,239.9C357.133,236.067 356.883,232.367 356.45,228.8C356.15,225.767 355.733,222.817 355.2,219.95C354.3,215.45 353.15,211.2 351.75,207.2C350.417,203.367 348.833,199.767 347,196.4L346.4,195.35C346.667,190.317 347.067,185.767 347.6,181.7M346.95,270.65L349.4,279.05L352.4,280L360.1,281C364.467,280.8 367.8,279.1 370.1,275.9L371.2,273.9M373.9,313.1L374.65,333.3" style="fill:none;fill-rule:nonzero;stroke:#000;stroke-opacity:0.4;stroke-width:0.2px;"/>
                <path d="M198.1,95.75L203.15,90.8C210.383,87 217.133,85.1 223.4,85.1L225.65,90.65C216.083,90.35 206.9,92.05 198.1,95.75" style="fill-opacity:0.4;"/>
                <path d="M229.2,48.9L230.5,55.4C229.667,57.6 228.15,59.517 225.95,61.15L223.9,55.85L226.1,54.3C227.733,52.9 228.717,51.533 229.05,50.2L229.2,48.9M221.1,88.65L215.55,71.9L219,69.25L225.85,87.7C224.617,88.4 223.033,88.717 221.1,88.65" style="fill:#ccc;"/>
                <path d="M199.6,57L199.25,56.1C198.717,54.1 199.717,52.033 202.25,49.9C204.783,47.733 208.133,46.1 212.3,45C214.9,44.267 217.35,43.9 219.65,43.9L201.95,58.95L201.9,59L201.95,58.95L202.2,59.15L201.9,59C200.833,58.467 200.067,57.8 199.6,57M225.35,44.75C227.417,45.45 228.667,46.567 229.1,48.1L229.2,48.9L229.05,50.2C228.717,51.533 227.733,52.9 226.1,54.3L223.9,55.85C221.733,57.283 219.117,58.417 216.05,59.25L215.55,59.35L225.35,44.75M222.45,66.55L228.15,85.4C227.583,86.4 226.817,87.167 225.85,87.7L219,69.25L222.45,66.55" style="fill:#e4e4e4;"/>
                <path d="M201.95,58.95L219.65,43.9L223.35,44.2C224.083,44.333 224.75,44.517 225.35,44.75L215.55,59.35C212.783,60.05 210.217,60.35 207.85,60.25L204.95,59.95L202.2,59.15L201.95,58.95" style="fill:#fff;"/>
                <path d="M199.6,57C200.067,57.8 200.833,58.467 201.9,59L202.2,59.15L204.95,59.95L207.85,60.25L210.3,65.8L201.85,64.75L199.6,57M221.55,63.65L222.45,66.55L219,69.25L215.55,71.9L213.55,65.7C215.617,65.533 217.483,65.167 219.15,64.6L221.55,63.65M228.15,85.4L228.55,86.8C227.417,90.6 225.083,91.667 221.55,90L221.1,88.65C223.033,88.717 224.617,88.4 225.85,87.7C226.817,87.167 227.583,86.4 228.15,85.4" style="fill:#616161;"/>
                <path d="M225.95,61.15C224.717,62.083 223.25,62.917 221.55,63.65L219.15,64.6C217.483,65.167 215.617,65.533 213.55,65.7L210.3,65.8L207.85,60.25C210.217,60.35 212.783,60.05 215.55,59.35L216.05,59.25C219.117,58.417 221.733,57.283 223.9,55.85L225.95,61.15" style="fill:#9d9d9d;"/>
                <path d="M219.65,43.9C217.35,43.9 214.9,44.267 212.3,45C208.133,46.1 204.783,47.733 202.25,49.9C199.717,52.033 198.717,54.1 199.25,56.1L199.6,57L201.85,64.75L210.3,65.8L213.55,65.7C215.617,65.533 217.483,65.167 219.15,64.6L221.55,63.65L222.45,66.55L228.15,85.4L228.55,86.8M201.9,59L201.95,58.95M219.65,43.9L223.35,44.2C224.083,44.333 224.75,44.517 225.35,44.75C227.417,45.45 228.667,46.567 229.1,48.1L229.2,48.9L230.5,55.4C229.667,57.6 228.15,59.517 225.95,61.15C224.717,62.083 223.25,62.917 221.55,63.65M221.55,90L221.1,88.65L215.55,71.9L213.55,65.7M201.9,59L202.2,59.15" style="fill:none;fill-rule:nonzero;stroke:#000;stroke-opacity:0.4;stroke-width:0.2px;"/>
                <path d="M199.6,57C200.067,57.8 200.833,58.467 201.9,59M215.55,59.35L216.05,59.25C219.117,58.417 221.733,57.283 223.9,55.85L226.1,54.3C227.733,52.9 228.717,51.533 229.05,50.2L229.2,48.9M202.2,59.15L204.95,59.95L207.85,60.25C210.217,60.35 212.783,60.05 215.55,59.35" style="fill:none;fill-rule:nonzero;stroke:#fff;stroke-opacity:0.51;stroke-width:0.2px;"/>
                <path d="M240.2,164.85L239.65,164.85C231.417,164.05 224.667,160.05 219.4,152.85C228.3,153.617 235.117,157.467 239.85,164.4L240.2,164.85M250.25,145.85L248.7,145.7C240.9,144.7 234.483,140.75 229.45,133.85C237.95,134.55 244.55,138.083 249.25,144.45L250.25,145.85" style="fill:#cc9;"/>
                <path d="M250.25,145.85L249.25,144.45C244.55,138.083 237.95,134.55 229.45,133.85C234.483,140.75 240.9,144.7 248.7,145.7L250.25,145.85M240.2,164.85L239.85,164.4C235.117,157.467 228.3,153.617 219.4,152.85C224.667,160.05 231.417,164.05 239.65,164.85L240.2,164.85" style="fill:none;fill-rule:nonzero;stroke:#000;stroke-opacity:0.4;stroke-width:0.2px;"/>
                <path d="M258.5,126.3L257.95,126.3C249.717,125.5 242.967,121.5 237.7,114.3C246.6,115.067 253.417,118.917 258.15,125.85L258.5,126.3M268.55,107.3L267,107.15C259.2,106.15 252.783,102.2 247.75,95.3C256.25,96 262.85,99.533 267.55,105.9L268.55,107.3" style="fill:#cc9;"/>
                <path d="M268.55,107.3L267.55,105.9C262.85,99.533 256.25,96 247.75,95.3C252.783,102.2 259.2,106.15 267,107.15L268.55,107.3M258.5,126.3L258.15,125.85C253.417,118.917 246.6,115.067 237.7,114.3C242.967,121.5 249.717,125.5 257.95,126.3L258.5,126.3" style="fill:none;fill-rule:nonzero;stroke:#000;stroke-opacity:0.4;stroke-width:0.2px;"/>
            </g>
        </g>
    </g>
</svg>
