<?xml version="1.0" encoding="UTF-8"?>
<svg width="191px" height="198px" version="1.1" viewBox="201.89 110.02 191.1 198.42" xmlns="http://www.w3.org/2000/svg" xmlns:xlink="http://www.w3.org/1999/xlink">
<defs>
<g id="q">
<path d="m6.65-5.85-1.3-0.6-8.2 0.25q-2.8 0.9-4.75 2.7l-1.9 2.15q-2.4 3.4-1.35 6.7l0.25 0.7 0.95 1.55 1 1q1.1 0.85 2.65 1.35l6.65 0.25 1.45-0.45q1.75-0.6 4-2.05 1.3-0.8 2.75-2.8 1.45-2.15 1.6-4.25l0.05-0.35-0.3-2.1q-0.85-2.75-3.55-4.05m-21.6 5.75 0.3-0.6q2.95-6.25 9.85-8.95 6.6-2.1 12.85-0.6 5.7 3.2 6.9 8.35v0.05-0.05q-0.3 5.85-7.1 10.75-4.7 3.35-10.9 3.65-9.3-0.7-11.4-5.35-1.5-3.05-0.5-7.25m31.55-4.35 0.05-0.05v0.05h-0.05m-6.35-1.65q-3.15-2.6-7.4-3.15-4.3-0.6-9.1 2.05-4.8 2.6-7.75 9.05l0.55 0.9 1.3-2.1q3-4.5 7.65-6.95 7.45-3.95 14.75 0.2" fill="#d1745e"/>
<path d="m-16.8 3.2q-0.3-4.05 2.55-8.1 3.6-5.3 10.4-7.6 6.75-2.35 12.7-0.3 5.85 1.95 7.45 7.1l0.35 1.2-0.05 0.05-1.65 2.6v-0.05q-1.2-5.15-6.9-8.35-6.25-1.5-12.85 0.6-6.9 2.7-9.85 8.95l-0.3 0.6-1.85 3.3" fill="#d68d60"/>
<path d="m-16.8 3.2 1.85-3.3q-1 4.2 0.5 7.25 2.1 4.65 11.4 5.35 6.2-0.3 10.9-3.65 6.8-4.9 7.1-10.75v0.05l1.65-2.6h0.05q0.85 4.55-2.35 9.2-3.7 5.3-10.45 7.6t-12.65 0.3q-5.95-2-7.55-7.1l-0.45-2.35m27.05-9.3q-7.3-4.15-14.75-0.2-4.65 2.45-7.65 6.95l-1.3 2.1-0.55-0.9q2.95-6.45 7.75-9.05 4.8-2.65 9.1-2.05 4.25 0.55 7.4 3.15" fill="#dd9888"/>
<path d="m-5.9 1.15q-2.2 1.9-3.75 6.45" fill="none" stroke="#57270f" stroke-opacity=".30196" stroke-width=".5"/>
<path d="m16.65-4.5-0.35-1.2q-1.6-5.15-7.45-7.1-5.95-2.05-12.7 0.3-6.8 2.3-10.4 7.6-2.85 4.05-2.55 8.1m33.45-7.65q0.85 4.55-2.35 9.2-3.7 5.3-10.45 7.6t-12.65 0.3q-5.95-2-7.55-7.1l-0.45-2.35" fill="none" stroke="#331b09" stroke-opacity=".30196" stroke-width=".5"/>
<path d="m6.65-5.85q2.7 1.3 3.55 4.05l0.3 2.1-0.05 0.35q-0.15 2.1-1.6 4.25-1.45 2-2.75 2.8-2.25 1.45-4 2.05l-1.45 0.45-6.65-0.25q-1.55-0.5-2.65-1.35l-1-1-0.95-1.55-0.25-0.7q-1.05-3.3 1.35-6.7l1.9-2.15q1.95-1.8 4.75-2.7l8.2-0.25 1.3 0.6" fill="none" stroke="#f1d6cf" stroke-opacity=".41176" stroke-width=".5"/>
</g>
<g id="n">
<path d="m1.55 0.75q-0.25 0.7-0.9 0.95l-1.35-0.1q-0.65-0.3-0.9-1t0-1.4q0.3-0.65 0.95-0.9l1.3 0.05q0.65 0.35 0.9 1.05t0 1.35" fill="#fff"/>
</g>
<g id="a">
<use xlink:href="#n"/>
</g>
<g id="m">
<path d="m10.8-2.05h-0.15q-0.55-1.95-2.45-2.65l-1.2-0.25q0.55-1.55-0.05-3.25 2.7 1.3 3.55 4.05l0.3 2.1" fill="#683631"/>
<path d="m3.65-1.1 2.7-2.6 0.65-1.25 1.2 0.25q1.9 0.7 2.45 2.65h0.15l-0.05 0.35q-0.15 2.1-1.6 4.25-1.45 2-2.75 2.8-1-4.45-2.75-6.45m-13.95 4.8-0.25-0.7q-1.05-3.3 1.35-6.7l1.9-2.15q-0.35 0.95-0.2 1.85-1.1 1-1.8 2.3-0.75 1.45-0.9 3.05l-0.1 2.35m4.7-4.9q-0.1 0.95 1.25 1.2v0.05l-0.3 0.25-0.6 0.4-0.45 0.45-1.2 1.55-0.55 0.9-0.45 0.85-0.3 1-0.15 0.8-1-1q1.55-4.55 3.75-6.45" fill="#9e5747"/>
<path d="m3.65-1.1q1.75 2 2.75 6.45-2.25 1.45-4 2.05l-1.45 0.45-6.65-0.25q-1.55-0.5-2.65-1.35l0.15-0.8 0.3-1 0.45-0.85 0.55-0.9 1.2-1.55 0.45-0.45 0.6-0.4 0.3-0.25q0.4 1.3 1.35 1.25 1.85-0.05 2.35-1.05 3.4 0.85 4.3-1.35m-4.3 1.35q1.4 4.4 1.6 7.6-0.2-3.2-1.6-7.6" fill="#b36350"/>
<path d="m-10.3 3.7 0.1-2.35q0.15-1.6 0.9-3.05 0.7-1.3 1.8-2.3 0.2 1.55 1.9 2.8-2.2 1.9-3.75 6.45l-0.95-1.55" fill="#c26c57"/>
<path d="m3.65-1.1q1.75 2 2.75 6.45m-5.45 2.5q-0.2-3.2-1.6-7.6" fill="none" stroke="#57270f" stroke-opacity=".30196" stroke-width=".5"/>
</g>
<g id="l">
<use xlink:href="#m"/>
</g>
<g id="b">
<use xlink:href="#q"/>
<use transform="matrix(.70711 .70711 -.25534 .25534 13.45 -7.8)" filter="url(#g)" xlink:href="#a"/>
<use transform="matrix(.4585 .26471 -.18056 .31273 10.85 -10.3)" filter="url(#f)" xlink:href="#a"/>
<use transform="matrix(.28821 .16638 -.15205 .26335 8.65 -11.2)" filter="url(#e)" xlink:href="#a"/>
<use transform="translate(-.3 2.35)" filter="url(#d)" xlink:href="#l"/>
</g>
<filter id="g">
<feColorMatrix in="SourceGraphic" result="cxform" values="1.0 0.0 0.0 0.0 0.0 0.0 1.0 0.0 0.0 0.0 0.0 0.0 1.0 0.0 0.0 0.0 0.0 0.0 0.55078125 0.0"/>
<feComposite in2="SourceGraphic" operator="in" result="color-xform"/>
</filter>
<filter id="f">
<feColorMatrix in="SourceGraphic" result="cxform" values="1.0 0.0 0.0 0.0 0.0 0.0 1.0 0.0 0.0 0.0 0.0 0.0 1.0 0.0 0.0 0.0 0.0 0.0 0.55078125 0.0"/>
<feComposite in2="SourceGraphic" operator="in" result="color-xform"/>
</filter>
<filter id="e">
<feColorMatrix in="SourceGraphic" result="cxform" values="1.0 0.0 0.0 0.0 0.0 0.0 1.0 0.0 0.0 0.0 0.0 0.0 1.0 0.0 0.0 0.0 0.0 0.0 0.55078125 0.0"/>
<feComposite in2="SourceGraphic" operator="in" result="color-xform"/>
</filter>
<filter id="d">
<feColorMatrix in="SourceGraphic" result="cxform" values="0.76171875 0.0 0.0 0.0 0.0 0.0 0.76171875 0.0 0.0 0.0 0.0 0.0 0.76171875 0.0 0.0 0.0 0.0 0.0 1.0 0.0"/>
<feComposite in2="SourceGraphic" operator="in" result="color-xform"/>
</filter>
<g id="k">
<path d="m-63.25 19.25q22.25-4.15 42.95 9.35 1.85 10.4 6.3 20.2 3.4 7.65 8.4 14.9l3.7 5.05q-18.9-0.3-43.15-11.3-7.7-8.45-13.55-22.4-3.15-7.5-4.65-15.8" fill="#f90"/>
<path d="m-14.1-27.1q-18.75-9.55-43.25-9.15v-0.3q1.6-4.9 3.8-9.35 20.35 13.7 45.3 6.45-3.55 6-5.85 12.35" fill="#543201"/>
<path d="m-63.25 19.25q-4.35-24.4 5.8-55.5l0.1-0.3v0.3q24.5-0.4 43.25 9.15-1.8 4.95-2.9 10.15-7.1 24.1-3.3 45.55-20.7-13.5-42.95-9.35" fill="#fc0"/>
<path d="m-53.55-45.9q11.4-23.65 38.1-34.4 26.85-0.9 44.2 5-12.55 7.8-21.75 16.7l-3.05 3.1q-7.3 7.6-12.2 16.05-24.95 7.25-45.3-6.45m51.65 114.65 5.15 6.2-28.6-5.35q-11-2.55-19.7-12.15 24.25 11 43.15 11.3" fill="#fedb4e"/>
<path d="m-57.35-36.55-0.1 0.3q-10.15 31.1-5.8 55.5m42.95 9.35q-3.8-21.45 3.3-45.55 1.1-5.2 2.9-10.15m-43.25-9.45q1.6-4.9 3.8-9.35 11.4-23.65 38.1-34.4 26.85-0.9 44.2 5-12.55 7.8-21.75 16.7m-3.05 3.1q-7.3 7.6-12.2 16.05-3.55 6-5.85 12.35m-30.95 84.55q8.7 9.6 19.7 12.15l28.6 5.35-5.15-6.2-3.7-5.05m-39.45-6.25q-7.7-8.45-13.55-22.4-3.15-7.5-4.65-15.8m49.25 29.55q-4.45-9.8-6.3-20.2" fill="none" stroke="#000" stroke-opacity=".38824" stroke-width=".5"/>
</g>
<g id="j">
<path d="m-11.45 10.75q2.55-7.2 3.95-15.25l0.8-5.5q2.8-25.65-8.75-51.2l3.05-3.1 34.35 3.9q11.05 30.95 11.5 57.95l-0.05 6.5q-1.4 10.7-4.8 20.3-23-5-40.05-13.6" fill="#a96501"/>
<path d="m28.6 24.35q-1.45 4.1-3.25 8-19.1-13.35-39.55-14.75l2.75-6.85q17.05 8.6 40.05 13.6" fill="#543201"/>
<path d="m25.35 32.35q-8.55 18.2-25.1 31.95l-25.25-6.3q-5-7.25-8.4-14.9 12.35-10.75 19.2-25.5 20.45 1.4 39.55 14.75" fill="#ca7902"/>
<path d="m-11.45 10.75q2.55-7.2 3.95-15.25l0.8-5.5q2.8-25.65-8.75-51.2l3.05-3.1 34.35 3.9q11.05 30.95 11.5 57.95l-0.05 6.5q-1.4 10.7-4.8 20.3-1.45 4.1-3.25 8-8.55 18.2-25.1 31.95l-25.25-6.3q-5-7.25-8.4-14.9 12.35-10.75 19.2-25.5l2.75-6.85" fill="none" stroke="#000" stroke-opacity=".38824" stroke-width=".5"/>
</g>
<g id="i">
<use xlink:href="#j"/>
</g>
<g id="p">
<path d="m-56.65-17.1q-6.95 46.45 16.6 73.25l12.5 3.5h8.15l5.3 11.05-14.4-0.95-10.55-5.8q-23-20.95-24.95-56.6-0.95-29.45 10.55-54.7 12.75-20.3 28.3-27.85l10.55-5.8h9.15q-41.1 18.2-50.85 61.5l-0.35 2.4" fill-opacity=".34118"/>
<path d="m-31.8-56.8q-1.5 2.2-4.45 3.95-3 1.7-5.75 1.95-2.65 0.2-3.45-1.2t0.7-3.6q1.6-2.2 4.6-3.9 2.95-1.75 5.6-2 2.75-0.25 3.55 1.15t-0.8 3.65" fill="#fff"/>
<path d="m-44.1-45.25q-0.45 1.4-1.8 2.15-1.35 0.8-2.8 0.5-1.45-0.35-2.15-1.55-0.7-1.25-0.3-2.7 0.45-1.4 1.8-2.2 1.35-0.75 2.8-0.45 1.55 0.35 2.25 1.6 0.7 1.2 0.2 2.65" fill="#fff"/>
<path d="m-48.45-35.55q-0.45 1.15-1.55 1.8-1.15 0.65-2.4 0.45-1.2-0.25-1.8-1.25-0.55-1-0.2-2.2 0.45-1.2 1.6-1.85 1.1-0.65 2.35-0.4t1.8 1.25q0.6 1 0.2 2.2" fill="#fff"/>
</g>
<g id="o">
<use transform="matrix(2.0595 -4.8625 4.5717 1.9128 -26.85 -6.9)" filter="url(#c)" xlink:href="#b"/>
<use xlink:href="#k"/>
<use transform="translate(19.4 5.7)" filter="url(#h)" xlink:href="#i"/>
<use xlink:href="#p"/>
<use transform="matrix(2.004 -4.8858 4.5717 1.9128 28.5 6.85)" xlink:href="#b"/>
</g>
<filter id="c">
<feColorMatrix in="SourceGraphic" result="cxform" values="0.8515625 0.0 0.0 0.0 0.0 0.0 0.8515625 0.0 0.0 0.0 0.0 0.0 0.8515625 0.0 0.0 0.0 0.0 0.0 1.0 0.0"/>
<feComposite in2="SourceGraphic" operator="in" result="color-xform"/>
</filter>
<filter id="h">
<feColorMatrix in="SourceGraphic" result="cxform" values="0.69140625 0.0 0.0 0.0 0.0 0.0 0.69140625 0.0 0.0 0.0 0.0 0.0 0.69140625 0.0 0.0 0.0 0.0 0.0 1.0 0.0"/>
<feComposite in2="SourceGraphic" operator="in" result="color-xform"/>
</filter>
</defs>
<use transform="translate(297.3 209.15)" xlink:href="#o"/>
</svg>
