<?xml version="1.0" encoding="UTF-8"?>
<svg version="1.1" viewBox="0 0 16.832 22.273" xmlns="http://www.w3.org/2000/svg" xmlns:cc="http://creativecommons.org/ns#" xmlns:dc="http://purl.org/dc/elements/1.1/" xmlns:rdf="http://www.w3.org/1999/02/22-rdf-syntax-ns#" xmlns:xlink="http://www.w3.org/1999/xlink">
<metadata>
<rdf:RDF>
<cc:Work rdf:about="">
<dc:format>image/svg+xml</dc:format>
<dc:type rdf:resource="http://purl.org/dc/dcmitype/StillImage"/>
</cc:Work>
</rdf:RDF>
</metadata>
<g transform="translate(-276.01 -181.21)">
<use transform="matrix(.7757 0 0 .7757 276.36 181.29)" width="21" height="28.450001" xlink:href="#f"/>
<use transform="matrix(.088 .0723 .103 -.1254 284.48 183.46)" width="8.1000004" height="8.1000004" xlink:href="#a"/>
<use transform="matrix(.7757 0 0 .7757 284.66 181.95)" width="9.8999996" height="12.2" xlink:href="#e"/>
<use transform="matrix(.0571 .0987 .1406 -.0814 290.33 184.53)" width="8.1000004" height="8.1000004" xlink:href="#a"/>
<use transform="matrix(.7757 0 0 .7757 286.52 197.69)" width="0.60000002" height="0.60000002" xlink:href="#d"/>
<use transform="matrix(-.5914 .1232 .1162 .5578 291.78 191.59)" width="8.1000004" height="8.1000004" xlink:href="#a"/>
<use transform="matrix(.7757 0 0 .7757 276.08 181.17)" width="21.299999" height="28.75" xlink:href="#c"/>
<use transform="matrix(.7757 0 0 .7757 279.38 185.13)" width="17.35" height="10.55" xlink:href="#b"/>
<use transform="matrix(-.5914 .1232 .1162 .5578 280.38 188.89)" width="8.1000004" height="8.1000004" xlink:href="#a"/>
<use transform="matrix(-.5914 .1232 .1162 .5578 281.88 193.64)" width="8.1000004" height="8.1000004" xlink:href="#a"/>
<use transform="matrix(-.5914 .1232 .1162 .5578 290.13 196.04)" width="8.1000004" height="8.1000004" xlink:href="#a"/>
</g>
<defs>
<g id="f" transform="translate(.7 13.1)">
<path d="m18.65 10.55 0.6-0.9 0.15-2q0.7 2.7-0.2 4.85-0.9 2.1-2.3 2.65-1.35 0.55-2.75-0.3-1.4-0.9-2.3-2.95l-0.25-0.6q-0.8-1.4 0.4-4l-0.05 3.2 3.65 3.5 3.05-3.45" fill="#0f1515" fill-rule="evenodd"/>
<path d="m18.65 10.55-3.05 3.45-3.65-3.5" fill="none" stroke="#000" stroke-linecap="round" stroke-linejoin="round" stroke-width=".25"/>
<path d="m6.1 1.75 0.9 4.1 5.1-2.6 1.15-0.75 1.55-1.85q0.45 2.35-2.05 4.2t-4.75 2.2-2.9-0.75q-0.65-1.15-0.05-3.25l0.2-0.6q0.2-1.5 3.1-3.7l-2.25 3" fill="#0f1515" fill-rule="evenodd"/>
<path d="m12.1 3.25-5.1 2.6-0.9-4.1" fill="none" stroke="#000" stroke-linecap="round" stroke-linejoin="round" stroke-width=".25"/>
<path d="m18.5 11.9-1.5 1.9h-1.65l-2-1.3-0.95-1.3v-0.05l0.35-0.75 0.9 1.15 2.1 1.4q2.25-0.85 2.55-2.05l0.2 0.1v0.9" fill="#304149" fill-rule="evenodd"/>
<path d="m12.25 9.25 0.55-1.15 1.8 0.35q1.2 2.5-0.95 3.1l-0.9-1.15-0.2-0.3-0.3-0.85" fill="#5f829a" fill-rule="evenodd"/>
<path d="m12.4 11.15-0.75-1.45 0.45-2.6h0.75l-0.1 0.25-0.25 0.85-0.1 0.3-0.25 0.6 0.1 0.15 0.3 0.85 0.2 0.3-0.35 0.75m5.9-0.25 0.2-0.25v0.35l-0.2-0.1" fill="#212e34" fill-rule="evenodd"/>
<path d="m13.65 11.55q2.15-0.6 0.95-3.1 1.9 0.65 3.7 2.45-0.3 1.2-2.55 2.05l-2.1-1.4" fill="#506f7e" fill-rule="evenodd"/>
<path d="m12.85 7.1 2 0.4q2.35 0.65 3.55 2l0.1 1.15-0.2 0.25q-1.8-1.8-3.7-2.45l-1.8-0.35-0.55 1.15-0.1-0.15 0.25-0.6 0.1-0.3 0.25-0.85 0.1-0.25" fill="#32464e" fill-rule="evenodd"/>
<path d="m19.5 9.4v0.3l-0.15-0.1 0.15-0.2m-0.1 0.45v0.05l-0.05 0.1-0.5 1.15-0.35 0.75v-1.25l0.65-0.8 0.05-0.05 0.2 0.05" fill="#1f2f30" fill-rule="evenodd"/>
<path d="m18.4 9.5-0.1-0.6q1.15-0.05-0.5-1.8h1.25l0.1 0.25 0.35 0.9v1.15l-0.3 0.4-0.05 0.05-0.65 0.8-0.1-1.15" fill="#172324" fill-rule="evenodd"/>
<path d="m18.35 5.2 0.15 0.5 0.55 1.4h-1.25q1.65 1.75 0.5 1.8l0.1 0.6q-1.2-1.35-3.55-2l-2-0.4 0.45-1.9-0.45 1.9h-0.75v-0.1l0.45-1.8h4.2l0.05 0.3 1.4-0.3h0.15m1.15 4.5-0.1 0.15-0.2-0.05 0.15-0.2 0.15 0.1" fill="#0f1515" fill-rule="evenodd"/>
<path d="m19.05 7.1-0.55-1.4-0.15-0.5m-5.05 0-0.45 1.9m6.2 0 0.1 0.25 0.35 0.9v1.15l-0.3 0.4-0.05 0.05-0.65 0.8m1-1v0.05l-0.1 0.15v0.05l-0.05 0.1-0.5 1.15-0.35 0.75-1.5 1.9h-1.65l-2-1.3-0.95-1.3v-0.05l-0.75-1.45 0.45-2.6v-0.1l0.45-1.8m-0.3 4.05-0.1-0.15 0.25-0.6 0.1-0.3 0.25-0.85 0.1-0.25m-0.6 2.15 0.3 0.85 0.2 0.3 0.9 1.15m4.65-0.65 0.2-0.25m-0.2 0.25q-0.3 1.2-2.55 2.05l-2.1-1.4" fill="none" stroke="#000" stroke-linecap="round" stroke-linejoin="round" stroke-width=".25"/>
<path d="m6.65 8.3 1.15-0.75 1.55-1.85q0.45 2.35-2.05 4.2t-4.75 2.2-2.9-0.75q-0.65-1.15-0.05-3.25l0.2-0.6q0.2-1.5 3.1-3.7l-2.25 3 0.9 4.1 5.1-2.6" fill="#0f1515" fill-rule="evenodd"/>
<path d="m6.65 8.3-5.1 2.6-0.9-4.1" fill="none" stroke="#000" stroke-linecap="round" stroke-linejoin="round" stroke-width=".25"/>
<path d="m0.4 8.25 0.15 0.9q2.55 0.35 5.4-0.65l0.5 1.05v0.1q-2.5 0.95-5.4 1.25l-1.2-0.7q-0.3-0.75-0.1-2l0.25-0.75 0.15-0.75 0.25 1.55" fill="#304149" fill-rule="evenodd"/>
<path d="m1.7 4.2q1 0.15 1.4 1.2 0.4 1-0.4 2-1.05 1.05-2.3 0.85l-0.25-1.55q0.4-1.3 1.2-2.3l0.35-0.2m0.4 0.3-0.2-0.1-0.2 0.1-0.1 0.2 0.1 0.2 0.2 0.1 0.2-0.1 0.1-0.2-0.1-0.2" fill="#5f829a" fill-rule="evenodd"/>
<path d="m11.6 1.5v2.4l-1.25 1q0.15-0.7-3.9 4.65l-0.5-1.05q0.5-2.8-3.55-4.7l0.75-0.5 2.2-1.8h6.25m-5.05 6.8-0.6 0.2 0.6-0.2" fill="#212e34" fill-rule="evenodd"/>
<path d="M 2.1,4.5 2.2,4.7 2.1,4.9 1.9,5 1.7,4.9 1.6,4.7 1.7,4.5 1.9,4.4 2.1,4.5" fill="#fff" fill-rule="evenodd"/>
<path d="m2.4 3.8q4.05 1.9 3.55 4.7-2.85 1-5.4 0.65l-0.15-0.9q1.25 0.2 2.3-0.85 0.8-1 0.4-2-0.4-1.05-1.4-1.2l0.7-0.4" fill="#506f7e" fill-rule="evenodd"/>
<path d="m6.45 9.55q4.05-5.35 3.9-4.65l1.25-1v-2.4m-6.25 0-2.2 1.8-0.75 0.5-0.7 0.4m4.25 4.3 0.6-0.2m-6.15-0.05 0.15 0.9q2.55 0.35 5.4-0.65m0.5 1.05v0.1q-2.5 0.95-5.4 1.25l-1.2-0.7q-0.3-0.75-0.1-2l0.25-0.75 0.15-0.75q0.4-1.3 1.2-2.3l0.35-0.2m-1.55 2.5 0.25 1.55" fill="none" stroke="#000" stroke-linecap="round" stroke-linejoin="round" stroke-width=".25"/>
<path d="m2.25 1.7-0.05-0.7q0.1-1.35 1.15-2.3l0.4-0.4 0.8-0.4h0.1l-0.3 0.45 1.1-0.35q0.95 0.55-0.05 1.35l1.05-0.2 0.35-0.25q1 3.95-1.5 4.45t-2.85-1.75l-0.2 0.1" fill="#f5eed3" fill-rule="evenodd"/>
<path d="m2.25 1.7 0.2-0.1q0.35 2.25 2.85 1.75t1.5-4.45l-0.35 0.25-1.05 0.2q1-0.8 0.05-1.35l-1.1 0.35 0.3-0.45h4.15q0 0.35-0.4 0.7h1.7l0.05 0.05 0.4 0.5q0.8 1 0.75 2.35-0.1 0.85-0.55 1.6l-0.25 0.3-0.75 0.7-1.55 0.75-1.15 0.25h-0.6l-1.35-0.25-0.25-0.1-0.3-0.15-0.05-0.05h-0.05l-0.35-0.25-0.55-0.1q-0.85-0.3-1.25-0.95l-0.15-0.5q-0.05-0.4 0.15-0.85l-0.05-0.2m1.85 2.6 0.95-0.15-0.95 0.15m-1.65-2.7-0.15 0.3 0.15-0.3" fill="#dec696" fill-rule="evenodd"/>
<path d="m8.8-2.1h0.55l0.45 0.5 0.3 0.2h-1.7q0.4-0.35 0.4-0.7" fill="#ba9a74" fill-rule="evenodd"/>
<path d="m4.25-1.95-0.5 0.25-0.4 0.4q-1.05 0.95-1.15 2.3l0.05 0.7m7.85-3.1-0.3-0.2-0.45-0.5m0.75 0.7 0.05 0.05 0.4 0.5q0.8 1 0.75 2.35-0.1 0.85-0.55 1.6l-0.25 0.3-0.75 0.7-1.55 0.75-1.15 0.25h-0.6l-1.35-0.25-0.25-0.1-0.3-0.15-0.05-0.05h-0.05l-0.35-0.25-0.55-0.1q-0.85-0.3-1.25-0.95l-0.15-0.5q-0.05-0.4 0.15-0.85l-0.05-0.2m0.05 0.2 0.15-0.3m2.6 2.55-0.95 0.15" fill="none" stroke="#423213" stroke-linecap="round" stroke-linejoin="round" stroke-opacity=".50196" stroke-width=".05"/>
<path d="m2.2 1.1q-0.45-0.5-0.35-1.15 0.1-0.8 0.85-1.3l0.5-0.2 1.05-0.05 0.35 0.05-2.4 2.65" fill="#f5eed3" fill-rule="evenodd"/>
<path d="m2.2 1.1q-0.45-0.5-0.35-1.15 0.1-0.8 0.85-1.3l0.5-0.2 1.05-0.05 0.35 0.05" fill="none" stroke="#423213" stroke-linecap="round" stroke-linejoin="round" stroke-opacity=".50196" stroke-width=".05"/>
<path d="m12.8 6.1-0.4-0.3q-1.25-1.2-1.2-2.65l0.5-0.5q0.85 0.25 3.95 0.05 3.15-0.2 3.35 1.65-1.1 2.35-6.2 1.75" fill="#f5eed3" fill-rule="evenodd"/>
<path d="m13.25 0.1 0.3-0.15h4.25l-0.55 0.8q0.95-0.45 2.3 0.45l0.4 0.55 0.35 1.4v0.4l-0.25 1-0.3 0.6-0.25 0.3-0.75 0.65v0.05l-0.15 0.1q-1.4 0.95-3.15 0.9l-1.35-0.25-0.25-0.1-0.4-0.2-0.65-0.5q5.1 0.6 6.2-1.75-0.2-1.85-3.35-1.65-3.1 0.2-3.95-0.05l-0.5 0.5v0.05q-0.45-0.55-0.35-1.25 0.15-0.75 0.85-1.2l0.5-0.25 0.45-0.05 0.1-0.1 0.5-0.25m0.35 0.4-0.35-0.05h-0.6 0.6l0.35 0.05" fill="#dec696" fill-rule="evenodd"/>
<path d="m17.8-0.05h0.55l0.45 0.5 0.35 0.25 0.4 0.5q-1.35-0.9-2.3-0.45l0.55-0.8" fill="#ba9a74" fill-rule="evenodd"/>
<path d="m18.35-0.05 0.45 0.5 0.35 0.25 0.4 0.5 0.4 0.55 0.35 1.4v0.4l-0.25 1-0.3 0.6-0.25 0.3-0.75 0.65v0.05l-0.15 0.1q-1.4 0.95-3.15 0.9l-1.35-0.25-0.25-0.1-0.4-0.2-0.65-0.5-0.4-0.3q-1.25-1.2-1.2-2.65m0 0.05q-0.45-0.55-0.35-1.25 0.15-0.75 0.85-1.2l0.5-0.25 0.45-0.05 0.1-0.1 0.5-0.25m-0.6 0.35h0.6l0.35 0.05" fill="none" stroke="#423213" stroke-linecap="round" stroke-linejoin="round" stroke-opacity=".50196" stroke-width=".05"/>
<path d="m14.05 6.2q-0.7 0.25-1.5 0-0.85-0.25-1.25-0.95l-0.2-0.5 0.2-0.8 0.15-0.3 2.6 2.55" fill="#f5eed3" fill-rule="evenodd"/>
<path d="m14.05 6.2q-0.7 0.25-1.5 0-0.85-0.25-1.25-0.95l-0.2-0.5 0.2-0.8 0.15-0.3" fill="none" stroke="#423213" stroke-linecap="round" stroke-linejoin="round" stroke-opacity=".50196" stroke-width=".05"/>
<path d="m11.55-6.05 0.45 0.5 0.35 0.25 0.4 0.5q0.8 1 0.75 2.35-0.1 0.85-0.55 1.6l-0.25 0.3-0.75 0.7q-1.45 1.05-3.3 1l-1.35-0.25-0.25-0.1-0.4-0.2-1.05-0.8q-1.3-1.25-1.2-2.75 0.1-1.35 1.15-2.3l0.4-0.4 0.8-0.4h4.8" fill="#dec696" fill-rule="evenodd"/>
<path d="m11.55-6.05 0.45 0.5 0.35 0.25 0.4 0.5q0.8 1 0.75 2.35-0.1 0.85-0.55 1.6l-0.25 0.3-0.75 0.7q-1.45 1.05-3.3 1l-1.35-0.25-0.25-0.1-0.4-0.2-1.05-0.8q-1.3-1.25-1.2-2.75 0.1-1.35 1.15-2.3l0.4-0.4 0.5-0.25" fill="none" stroke="#423213" stroke-linecap="round" stroke-linejoin="round" stroke-opacity=".50196" stroke-width=".05"/>
<path d="m7.25 0.2q-0.7 0.25-1.5 0-0.85-0.25-1.25-0.95l-0.2-0.5 0.2-0.8 0.15-0.3 2.6 2.55" fill="#f5eed3" fill-rule="evenodd"/>
<path d="m7.25 0.2q-0.7 0.25-1.5 0-0.85-0.25-1.25-0.95l-0.2-0.5 0.2-0.8 0.15-0.3" fill="none" stroke="#423213" stroke-linecap="round" stroke-linejoin="round" stroke-opacity=".50196" stroke-width=".05"/>
<path d="m6.8-5.5-2.4 2.65q-0.45-0.5-0.35-1.15 0.1-0.8 0.85-1.3l0.5-0.2 1.05-0.05 0.35 0.05" fill="#f5eed3" fill-rule="evenodd"/>
<path d="m4.4-2.85q-0.45-0.5-0.35-1.15 0.1-0.8 0.85-1.3l0.5-0.2 1.05-0.05 0.35 0.05" fill="none" stroke="#423213" stroke-linecap="round" stroke-linejoin="round" stroke-opacity=".50196" stroke-width=".05"/>
<path d="m6.5-9.05 0.3-0.15h4.8l0.45 0.6 0.35 0.3 0.4 0.55q0.8 1.25 0.75 2.8-0.1 1-0.55 1.85l-0.25 0.4-0.75 0.8q-1.45 1.25-3.3 1.2l-1.35-0.3-0.25-0.15-0.4-0.2-1.05-0.95q-1.25-1.4-1.2-3.05-0.45-0.65-0.35-1.45 0.15-0.9 0.85-1.4l0.5-0.3 0.45-0.1 0.1-0.1 0.1-0.05 0.1-0.1 0.3-0.2m0.35 0.55-0.35-0.05-0.6-0.05 0.6 0.05 0.35 0.05" fill="#dec696" fill-rule="evenodd"/>
<path d="m11.6-9.2 0.45 0.6 0.35 0.3 0.4 0.55q0.8 1.25 0.75 2.8-0.1 1-0.55 1.85l-0.25 0.4-0.75 0.8q-1.45 1.25-3.3 1.2l-1.35-0.3-0.25-0.15-0.4-0.2-1.05-0.95q-1.25-1.4-1.2-3.05-0.45-0.65-0.35-1.45 0.15-0.9 0.85-1.4l0.5-0.3 0.45-0.1 0.1-0.1 0.1-0.05 0.1-0.1 0.3-0.2m-0.6 0.45 0.6 0.05 0.35 0.05" fill="none" stroke="#423213" stroke-linecap="round" stroke-linejoin="round" stroke-opacity=".50196" stroke-width=".05"/>
<path d="m3.85-6.7q4.8 1.5 8.3-0.8 1.35 1.6 1.3 2.55l-0.25 1.1 0.2 1.4-0.55 1.6-0.25 0.3-0.75 0.7-0.7 0.45 0.05 0.9-0.55 1.6-0.25 0.3-0.75 0.7q-1.45 1.05-3.3 1l-1.35-0.25-0.25-0.1-0.4-0.2-0.35-0.25-0.55-0.1-0.8-0.4q1.8 0 3.2-1l0.75-0.7 0.25-0.3 0.55-1.6-0.05-0.9 0.7-0.45 0.75-0.7 0.25-0.3 0.55-1.6-0.2-1.4q-4.3 0.25-5.3-1.1l-0.25-0.45" fill="#544d36" fill-opacity=".32157" fill-rule="evenodd"/>
<path d="m3.85-6.7q-0.3-1.05 2.1-1.65l2.85-0.85h2.7l0.45 0.6 0.35 0.3q0.2 0.25-0.05 0.25-0.3-0.05-0.1 0.55-3.5 2.3-8.3 0.8" fill="#1a1611" fill-opacity=".55294" fill-rule="evenodd"/>
<path d="m12.8-5.35 0.3-0.15h4.8l0.45 0.5 0.35 0.25 0.4 0.5q0.8 1 0.75 2.35-0.1 0.85-0.55 1.6l-0.25 0.3-0.75 0.7q-1.45 1.05-3.3 1l-1.35-0.25-0.25-0.1-0.4-0.2-0.35-0.25-0.55-0.1q-0.85-0.3-1.25-0.95l-0.15-0.5 0.15-0.85-0.05-0.25-0.05-0.65q0.1-1.35 1.15-2.3l0.4-0.4 0.5-0.25m-0.15 6.25 0.95-0.15-0.95 0.15" fill="#dec696" fill-rule="evenodd"/>
<path d="m17.9-5.5 0.45 0.5 0.35 0.25 0.4 0.5q0.8 1 0.75 2.35-0.1 0.85-0.55 1.6l-0.25 0.3-0.75 0.7q-1.45 1.05-3.3 1l-1.35-0.25-0.25-0.1-0.4-0.2-0.35-0.25-0.55-0.1q-0.85-0.3-1.25-0.95l-0.15-0.5 0.15-0.85-0.05-0.25-0.05-0.65q0.1-1.35 1.15-2.3l0.4-0.4 0.5-0.25m0.8 6.1-0.95 0.15" fill="none" stroke="#423213" stroke-linecap="round" stroke-linejoin="round" stroke-opacity=".50196" stroke-width=".05"/>
<path d="m10.75-2.3q-0.45-0.5-0.35-1.15 0.1-0.8 0.85-1.3l0.5-0.2 1.05-0.05 0.35 0.05-2.4 2.65" fill="#f5eed3" fill-rule="evenodd"/>
<path d="m10.75-2.3q-0.45-0.5-0.35-1.15 0.1-0.8 0.85-1.3l0.5-0.2 1.05-0.05 0.35 0.05" fill="none" stroke="#423213" stroke-linecap="round" stroke-linejoin="round" stroke-opacity=".50196" stroke-width=".05"/>
<path d="m4.9-11.9 0.15-0.1 0.5-0.2 0.15-0.05 0.85-0.35 0.25-0.05 0.35-0.15 0.25-0.05 0.4-0.1 1.35-0.05 0.1-0.05 0.4-0.05 0.65 0.1q1.35 0.25 1.55 0.95v0.1l0.45 2-0.05 0.4q-0.1 0.5-0.95 1l-0.45-2.05-0.55 0.4-0.4 0.2-0.05 0.1-1.3 0.35-0.4 0.1-0.25 0.05-0.35 0.1h-0.25l-0.5 0.1-0.15 0.05h-0.45l-0.5-0.05h-0.15l-0.25-0.05-0.15-0.05-0.45-0.05-0.85-0.6-0.1-0.25q-0.2-0.7 0.85-1.5l0.15-0.05 0.15-0.15m2.3 2.15 0.25-0.05 0.35-0.05 0.25-0.05 0.4-0.1 1.25-0.4 0.5-0.25 0.2-0.15 0.35-0.25 0.1-0.05 0.45-0.8-0.05-0.1q-0.1-0.55-1.3-0.65l-0.2-0.05-0.45 0.05h-0.1l-1.3 0.1-0.4 0.1-0.25 0.05-0.35 0.1-0.25 0.1-0.9 0.35-0.15 0.05-0.45 0.25h-0.1l-0.05 0.1-0.15 0.15q-0.65 0.45-0.6 0.9l0.1 0.25 0.75 0.4h0.1l0.2 0.05h0.2l0.5 0.1 0.15-0.05h0.3l0.65-0.1" fill="#82c4cc" fill-rule="evenodd"/>
<path d="m10.45-8-1.45 0.5-0.4 0.1-0.25 0.05-0.35 0.1h-0.25l-0.65 0.1h-0.4l-0.55-0.05-0.15 0.05-0.45-2.05h0.15l0.5 0.05h0.45l0.15-0.05 3.15 0.25 0.5 0.95m-0.65-2.45-0.1 0.05-1.25 0.4-0.4 0.1-0.25 0.05-0.35 0.05-0.25 0.05-0.55-2.45 0.25-0.1 0.35-0.1 0.25-0.05 0.4-0.1 1.3-0.1h0.1l0.5 2.2" fill="#425a68" fill-rule="evenodd"/>
<path d="m7.2-9.75-0.65 0.1h-0.3l-0.15 0.05-0.5-0.1-0.45-1.85 0.45-0.25 0.15-0.05 0.9-0.35 0.55 2.45" fill="#6d91a3" fill-rule="evenodd"/>
<path d="m11.3-8.55-0.55 0.35-0.3 0.2-0.5-0.95-3.15-0.25 0.5-0.1h0.25l0.35-0.1 0.25-0.05 0.4-0.1 1.3-0.35 0.05-0.1 0.4-0.2 0.55-0.4 0.45 2.05m-5.7-1.15h-0.2l-0.2-0.05h-0.1l-0.75-0.4-0.1-0.25q-0.05-0.45 0.6-0.9l0.15-0.15 0.05-0.1h0.1l0.45 1.85" fill="#5f829a" fill-rule="evenodd"/>
<path d="m6-7.15-0.25-0.05-0.15-0.05q-0.75-0.1-1.15-0.5l-0.15-0.2-0.1-0.2-0.05-0.35-0.3-1.45 0.85 0.6 0.45 0.05 0.15 0.05 0.25 0.05 0.45 2.05m3.3-5.5 0.45-0.05 0.2 0.05q1.2 0.1 1.3 0.65l0.05 0.1-0.45 0.8-0.1 0.05-0.35 0.25-0.2 0.15-0.4 0.2-0.5-2.2m-5 4.7-0.15-0.55 0.15 0.55" fill="#344650" fill-rule="evenodd"/>
<path d="m4.9-11.9 0.15-0.1 0.5-0.2 0.15-0.05 0.85-0.35 0.25-0.05 0.35-0.15 0.25-0.05 0.4-0.1 1.35-0.05 0.1-0.05 0.4-0.05 0.65 0.1q1.35 0.25 1.55 0.95v0.1l0.45 2-0.05 0.4q-0.1 0.5-0.95 1l-0.55 0.35-0.3 0.2-1.45 0.5-0.4 0.1-0.25 0.05-0.35 0.1h-0.25l-0.65 0.1h-0.4l-0.55-0.05-0.15 0.05" fill="none" stroke="#585143" stroke-linecap="round" stroke-linejoin="round" stroke-width=".05"/>
<path d="m6-7.15-0.25-0.05-0.15-0.05q-0.75-0.1-1.15-0.5l-0.15-0.2-0.1-0.2-0.05-0.35-0.3-1.45-0.1-0.25q-0.2-0.7 0.85-1.5l0.15-0.05 0.15-0.15m-0.75 3.4 0.15 0.55" fill="none" stroke="#344650" stroke-linecap="round" stroke-linejoin="round" stroke-width=".05"/>
</g>
<g id="a" transform="translate(0,4.05)">
<path d="m4.05-4.05q1.7 0 2.85 1.15 1.2 1.2 1.2 2.9t-1.2 2.85q-1.15 1.2-2.85 1.2t-2.9-1.2q-1.15-1.15-1.15-2.85t1.15-2.9q1.2-1.15 2.9-1.15" fill="url(#g)" fill-rule="evenodd"/>
</g>
<radialGradient id="g" cx="0" cy="0" r="819.2" gradientTransform="matrix(.0051 0 0 .0051 4.05 0)" gradientUnits="userSpaceOnUse">
<stop stop-color="#fff" offset="0"/>
<stop stop-color="#fff" stop-opacity="0" offset="1"/>
</radialGradient>
<g id="e" transform="translate(-10,12.25)">
<path d="m12.95-0.8-0.95-0.85q-1.25-1.4-1.2-3.05l0.35-0.5 0.1 0.3q1.15 2.1 5.8 1.95-0.3 1.35-1 2.15h-3.1" fill="#f5eed3" fill-rule="evenodd"/>
<path d="m17.95-8.55 0.45 0.6 0.35 0.3 0.4 0.55q0.6 0.85 0.7 1.9l0.05 0.9q-0.1 1-0.55 1.85l-0.25 0.4-0.75 0.8-0.6 0.45-0.45 0.25q-1 0.55-2.2 0.5h-0.05l-1.35-0.3-0.25-0.15-0.3-0.15q-0.1-0.05-0.1-0.05l-0.1-0.1h3.1q0.7-0.8 1-2.15-4.65 0.15-5.8-1.95l-0.1-0.3-0.35 0.5q-0.45-0.65-0.35-1.45 0.15-0.9 0.85-1.4l0.5-0.3 0.45-0.1 0.1-0.1 0.1-0.05 0.1-0.1 0.3-0.2 0.3-0.15h4.8m-4.75 0.7-0.35-0.05-0.6-0.05 0.6 0.05 0.35 0.05" fill="#dec696" fill-rule="evenodd"/>
<path d="m17.95-8.55 0.45 0.6 0.35 0.3 0.4 0.55q0.6 0.85 0.7 1.9l0.05 0.9q-0.1 1-0.55 1.85l-0.25 0.4-0.75 0.8-0.6 0.45-0.45 0.25q-1 0.55-2.2 0.5h-0.05l-1.35-0.3-0.25-0.15-0.3-0.15q-0.1-0.05-0.1-0.05l-0.1-0.1-0.95-0.85q-1.25-1.4-1.2-3.05-0.45-0.65-0.35-1.45 0.15-0.9 0.85-1.4l0.5-0.3 0.45-0.1 0.1-0.1 0.1-0.05 0.1-0.1 0.3-0.2m-0.6 0.45 0.6 0.05 0.35 0.05" fill="none" stroke="#423213" stroke-linecap="round" stroke-linejoin="round" stroke-opacity=".50196" stroke-width=".05"/>
<path d="m13.65-1.15q-0.7 0.3-1.5 0-0.85-0.25-1.25-1.05l-0.2-0.6 0.2-1 0.15-0.3 2.6 2.95" fill="#f5eed3" fill-rule="evenodd"/>
<path d="m13.65-1.15q-0.7 0.3-1.5 0-0.85-0.25-1.25-1.05l-0.2-0.6 0.2-1 0.15-0.3" fill="none" stroke="#423213" stroke-linecap="round" stroke-linejoin="round" stroke-opacity=".50196" stroke-width=".05"/>
<path d="m10-7 1.5 0.55q3.3 0.95 5.1 0.75 1.75-0.2 2.75-1l0.2 0.7q-4.25 3.85-9.05 0l-0.25-0.25q-0.3-0.4-0.25-0.75" fill="#544d36" fill-opacity=".32157" fill-rule="evenodd"/>
<path d="m10-7q0.05-0.45 0.7-0.8l0.2-0.1 1.2-0.45 2.85-0.85h2.7l0.45 0.6 0.35 0.3 0.4 0.55 0.5 1.05q-1 0.8-2.75 1-1.8 0.2-5.1-0.75l-1.5-0.55" fill="#1a1611" fill-opacity=".55294" fill-rule="evenodd"/>
<path d="m13.3-12.1 0.15-0.05 0.55-0.1 0.15 0.05 0.9-0.05 0.3 0.05h0.35l0.25 0.05 0.4 0.05 1.3 0.35 0.1 0.05 0.35 0.15 0.65 0.3q1.15 0.65 1.05 1.4v0.1l-0.25 2-0.2 0.35q-0.3 0.4-1.25 0.7l0.3-2.05-0.7 0.1-0.4 0.05h-1.4l-0.4-0.05-0.25-0.05-0.35-0.05-0.3-0.1-0.5-0.1h-0.15l-0.25-0.1-0.15-0.1-0.5-0.2-0.3-0.15-0.15-0.05-0.4-0.25q-0.55-0.45-0.6-0.9l-0.05-0.3q0.1-0.75 1.4-1.05l0.15-0.05h0.2m4.05 3.05 0.45-0.05 0.25-0.1 0.4-0.05 0.1-0.05q0.6-0.25 0.7-0.6v-0.1q0.1-0.55-0.95-1.05l-0.25-0.1-0.4-0.15-0.05-0.1-1.3-0.3-0.4-0.05-0.25-0.05-0.35-0.05h-0.3l-0.95 0.05-0.15-0.05-0.5 0.15h-0.1l-0.05 0.05-0.2 0.05q-0.8 0.2-0.95 0.65l0.05 0.25 0.55 0.65 0.3 0.15 0.05 0.05h0.1l0.45 0.25 0.15 0.05 0.25 0.1 0.65 0.15 0.3 0.05 0.35 0.1 0.25 0.05 0.4 0.05 1.3-0.05 0.1 0.05" fill="#82c4cc" fill-rule="evenodd"/>
<path d="m17.1-6.55h-1.5l-0.4-0.05-0.25-0.05-0.35-0.05-0.3-0.1-0.65-0.1-0.25-0.1-0.1-0.1-0.5-0.2h-0.15l0.3-2.1 0.1 0.05 0.5 0.2 0.15 0.1 0.25 0.1h0.15q3 0.85 2.9 1.35l0.1 1.05m0.25-2.5-0.1-0.05-1.3 0.05-0.4-0.05-0.25-0.05-0.35-0.1-0.3-0.05 0.35-2.55h0.3l0.35 0.05 0.25 0.05 0.4 0.05 1.3 0.3 0.05 0.1-0.3 2.25" fill="#425a68" fill-rule="evenodd"/>
<path d="m14.65-9.3-0.65-0.15-0.25-0.1-0.15-0.05-0.45-0.25 0.25-1.85 0.5-0.15 0.15 0.05 0.95-0.05-0.35 2.55" fill="#6d91a3" fill-rule="evenodd"/>
<path d="m18.1-6.7-0.65 0.1-0.35 0.05-0.1-1.05q0.1-0.5-2.9-1.35l0.5 0.1 0.3 0.1 0.35 0.05 0.25 0.05 0.4 0.05h1.4l0.4-0.05 0.7-0.1-0.3 2.05m-4.95-3.15h-0.1l-0.05-0.05-0.3-0.15-0.55-0.65-0.05-0.25q0.15-0.45 0.95-0.65l0.2-0.05 0.05-0.05h0.1l-0.25 1.85" fill="#5f829a" fill-rule="evenodd"/>
<path d="m12.65-7.3-0.2-0.15-0.15-0.05-0.95-0.9-0.05-0.2v-0.35l0.05-0.2 0.25-1.55q0.05 0.45 0.6 0.9l0.4 0.25 0.15 0.05 0.2 0.1-0.3 2.1m5-4 0.4 0.15 0.25 0.1q1.05 0.5 0.95 1.05v0.1q-0.1 0.35-0.7 0.6l-0.1 0.05-0.4 0.05-0.25 0.1-0.45 0.05 0.3-2.25m-6.35 2.7 0.05-0.55-0.05 0.55" fill="#344650" fill-rule="evenodd"/>
<path d="m13.3-12.1 0.15-0.05 0.55-0.1 0.15 0.05 0.9-0.05 0.3 0.05h0.35l0.25 0.05 0.4 0.05 1.3 0.35 0.1 0.05 0.35 0.15 0.65 0.3q1.15 0.65 1.05 1.4v0.1l-0.25 2-0.2 0.35q-0.3 0.4-1.25 0.7l-0.65 0.1-0.35 0.05h-1.5l-0.4-0.05-0.25-0.05-0.35-0.05-0.3-0.1-0.65-0.1-0.25-0.1-0.1-0.1-0.5-0.2h-0.15" fill="none" stroke="#585143" stroke-linecap="round" stroke-linejoin="round" stroke-width=".05"/>
<path d="m12.65-7.3-0.2-0.15-0.15-0.05-0.95-0.9-0.05-0.2v-0.35l0.05-0.2 0.25-1.55-0.05-0.3q0.1-0.75 1.4-1.05l0.15-0.05h0.2m-1.95 2.95-0.05 0.55" fill="none" stroke="#344650" stroke-linecap="round" stroke-linejoin="round" stroke-width=".05"/>
</g>
<g id="d" transform="translate(-12.4,-8.05)">
<path d="m12.9 8.55-0.2 0.1-0.2-0.1-0.1-0.2 0.1-0.2 0.2-0.1 0.2 0.1 0.1 0.2-0.1 0.2" fill="#fff" fill-rule="evenodd"/>
</g>
<g id="c" transform="translate(.15 14.35)">
<path d="m12.65-12.65 1-0.5h0.15l0.25-0.1h0.15l0.5-0.05 0.15-0.05 0.95 0.05h0.25l0.35 0.05h0.25l0.4 0.05 1.3 0.35 0.1 0.05 0.4 0.15 0.6 0.3q1.15 0.65 1.1 1.4l-0.05 0.1-0.25 2-0.15 0.35-0.2 0.25 0.65 1.95 0.05 0.45v0.55l-0.2 0.95 0.05 0.15 0.1 1.2q-0.1 0.85-0.55 1.6l-0.25 0.3-0.35 0.35 0.1 0.1q0.2 0.1 0.35 0.25l0.4 0.5 0.4 0.55 0.35 1.4v0.4l-0.25 1-0.3 0.6-0.25 0.3-0.75 0.65v0.05l-0.05 0.05 0.35 0.9 0.1 0.25 0.25 0.65v-0.35q0.7 2.7-0.2 4.85-0.9 2.1-2.3 2.65-1.35 0.55-2.75-0.3-1.4-0.9-2.3-2.95l-0.25-0.6q-0.8-1.4 0.4-4v0.2l0.1-0.4v-0.1l0.2-0.85-0.7-0.5q-1.15 0.7-2.2 1.05-0.15 1.75-2.1 3.2-2.5 1.85-4.75 2.2t-2.9-0.75q-0.65-1.15-0.05-3.25l0.2-0.6q0.05-0.55 0.45-1.15 0.4-1.1 1.1-1.95l1.05-0.6 0.2-0.15-0.3-0.4-0.15-0.5q-0.05-0.4 0.15-0.85l-0.05-0.2v-0.05l-0.05-0.55v0.05q-0.45-0.55-0.35-1.25 0.15-0.75 0.85-1.2l0.5-0.25 0.45-0.05 0.1-0.1 0.5-0.25 0.2-0.15v-0.2l-0.05-0.1v-0.45 0.05l-0.35-0.75v-0.5l0.1-0.35 0.2-0.35 0.15-0.15-0.05-0.45q-0.3-0.4-0.35-0.9l-0.25-0.45v-0.15q-0.05-0.5 0.55-0.9l-0.1-0.15-0.1-0.3v-0.25l-0.35-1.5-0.1-0.25q-0.2-0.75 0.9-1.5l0.1-0.05 0.2-0.15 0.15-0.05 0.45-0.25 0.1-0.05 0.9-0.35 0.25-0.05 0.35-0.1 0.25-0.05 0.4-0.1 1.35-0.15h0.5l0.7 0.1q1.3 0.2 1.45 0.9l0.05 0.1z" fill="none" stroke="#2f4046" stroke-linecap="round" stroke-linejoin="round" stroke-width=".3"/>
</g>
<g id="b" transform="translate(-3.2,8.15)">
<path d="M 9.65,0.9 8.2,1 6.3,0.8" fill="none" stroke="#425a68" stroke-linecap="round" stroke-linejoin="round"/>
<path d="m6.3 0.8-1.2-0.5q-1.25-0.7-1.25-1.65 0-0.55 0.45-1.05" fill="none" stroke="#5f829a" stroke-linecap="round" stroke-linejoin="round"/>
<path d="m10.75 0.55-1.1 0.35z" fill="none" stroke="#233036" stroke-linecap="round" stroke-linejoin="round"/>
<path d="m9-3.65-0.4 0.1-3.35 0.4q-1.35-0.15-1.35-0.7 0-0.4 0.5-0.8" fill="none" stroke="#425a68" stroke-linecap="round" stroke-linejoin="round"/>
<path d="m10.4-4.1-1.4 0.45z" fill="none" stroke="#233036" stroke-linecap="round" stroke-linejoin="round"/>
<path d="m3.8-5.8q-0.2-0.6 0.05-1.1l0.85-0.75m3.35 5.15-0.35-0.05-0.95-0.35q-0.65-0.3-1.15-0.65l-0.6-0.45" fill="none" stroke="#425a68" stroke-linecap="round" stroke-linejoin="round"/>
<path d="m5-4-0.75-0.85-0.45-0.95" fill="none" stroke="#5f829a" stroke-linecap="round" stroke-linejoin="round"/>
<path d="m10.5-2.5q-1.4 0.15-2.45 0" fill="none" stroke="#233036" stroke-linecap="round" stroke-linejoin="round"/>
<path d="m14.45-0.95q-1.5-0.1-2.6-0.65l-0.3-0.15m8.15-1.35q0 0.9-1.35 1.5l-0.4 0.2" fill="none" stroke="#425a68" stroke-linecap="round" stroke-linejoin="round"/>
<path d="m17.95-1.4-2.85 0.45h-0.65" fill="none" stroke="#5f829a" stroke-linecap="round" stroke-linejoin="round"/>
<path d="m11.55-1.75q-0.95-0.5-1.05-1.2" fill="none" stroke="#233036" stroke-linecap="round" stroke-linejoin="round"/>
<path d="m20.05-4.75q0 0.85-1.35 1.1l-0.9 0.1m-3.5-0.65q-1.2-0.5-2.1-1.15l-0.45-0.35" fill="none" stroke="#425a68" stroke-linecap="round" stroke-linejoin="round"/>
<path d="m17.8-3.55-2.35-0.3-1.15-0.35" fill="none" stroke="#5f829a" stroke-linecap="round" stroke-linejoin="round"/>
<path d="m11.75-5.7q-0.8-0.7-0.9-1.35" fill="none" stroke="#233036" stroke-linecap="round" stroke-linejoin="round"/>
<path d="m19.25-2.15q0.05 0.65-0.6 1.45l-2 1.65m-1.75 0.7-1.85 0.25-1.15-0.2" fill="none" stroke="#425a68" stroke-linecap="round" stroke-linejoin="round"/>
<path d="m16.65 0.95-0.5 0.25-1.25 0.45" fill="none" stroke="#5f829a" stroke-linecap="round" stroke-linejoin="round"/>
<path d="m11.9 1.7q-0.4-0.15-0.55-0.45" fill="none" stroke="#233036" stroke-linecap="round" stroke-linejoin="round"/>
</g>
</defs>
</svg>
