<?xml version="1.0" encoding="UTF-8"?>
<svg version="1.1" viewBox="0 0 279.68 259.89" xmlns="http://www.w3.org/2000/svg" xmlns:cc="http://creativecommons.org/ns#" xmlns:dc="http://purl.org/dc/elements/1.1/" xmlns:rdf="http://www.w3.org/1999/02/22-rdf-syntax-ns#" xmlns:xlink="http://www.w3.org/1999/xlink">
<metadata>
<rdf:RDF>
<cc:Work rdf:about="">
<dc:format>image/svg+xml</dc:format>
<dc:type rdf:resource="http://purl.org/dc/dcmitype/StillImage"/>
</cc:Work>
</rdf:RDF>
</metadata>
<g transform="translate(-143.83 -66.557)">
<use transform="translate(143.85,66.6)" width="279.64999" height="259.85001" xlink:href="#a"/>
</g>
<defs>
<g id="a" transform="translate(-143.85,-66.6)">
<path d="m316.35 326.4 9.9-1.8q-2.7 0.9-4.5 1.8-2.7-0.9-5.4 0" fill="#e58385" fill-rule="evenodd"/>
<path d="m178 314.7q0.9-3.6 2.7-7.2l-1.8 7.2h-0.9" fill="#f7c4c4" fill-rule="evenodd"/>
<path d="m391.8 284.15 4.5 8.1 0.9 0.9h-0.9v-0.9 0.9q-2.7-4.5-4.5-9" fill="#fe1f1f" fill-rule="evenodd"/>
<path d="m263.35 313.8q5.4 0 9-2.7 3.55-2.7 3.55-7.15 0-4.5-3.55-7.2-3.6-2.7-9-2.7t-9 2.7-3.6 7.2q0 4.45 3.6 7.15t9 2.7m128.45-29.65q3.6-2.7 3.6-7.15 0-4.5-3.6-7.2t-9-2.7q-5.35 0-8.95 2.7t-3.6 7.2q0 4.45 3.6 7.15t8.95 2.7q5.4 0 9-2.7 1.8 4.5 4.5 9-1.8 0-2.7 0.9 1.8 0 2.7-0.9-11.7 7.2-28.75 14.35-0.9 0-1.8 0.9-20.65 9-39.5 16.2l-9.9 1.8q-80.85-1.8-121.25-8.1-9-1.8-16.2-3.6l1.8-7.2q-1.8 3.6-2.7 7.2-42.2-10.75-13.45-32.35h0.9q0-0.9 1.8-0.9 0.9-1.75 3.55-2.65 116.8-16.2 234.45-31.45 40.45 15.25-8.95 44.9l-4.5-8.1m-42.2 13.5q0 1.8 1.8 2.7 1.75 0.9 3.55 0.9t3.6-0.9 1.8-2.7-1.8-2.7-3.6-0.9-3.55 0.9q-1.8 0.9-1.8 2.7m-168.9 9.85q3.6 0 5.4-2.65 2.7-1.8 2.7-5.4t-2.7-6.3q-1.8-1.8-5.4-1.8t-6.3 1.8q-1.8 2.7-1.8 6.3t1.8 5.4q2.7 2.65 6.3 2.65" fill="#72d7e2" fill-rule="evenodd"/>
<path d="m263.35 313.8q-5.4 0-9-2.7t-3.6-7.15q0-4.5 3.6-7.2t9-2.7 9 2.7q3.55 2.7 3.55 7.2 0 4.45-3.55 7.15-3.6 2.7-9 2.7" fill="#16b0d1" fill-rule="evenodd"/>
<path d="m349.6 297.65q0-1.8 1.8-2.7 1.75-0.9 3.55-0.9t3.6 0.9 1.8 2.7-1.8 2.7-3.6 0.9-3.55-0.9q-1.8-0.9-1.8-2.7m42.2-13.5q-3.6 2.7-9 2.7-5.35 0-8.95-2.7t-3.6-7.15q0-4.5 3.6-7.2t8.95-2.7q5.4 0 9 2.7t3.6 7.2q0 4.45-3.6 7.15m-211.1 23.35q-3.6 0-6.3-2.65-1.8-1.8-1.8-5.4t1.8-6.3q2.7-1.8 6.3-1.8t5.4 1.8q2.7 2.7 2.7 6.3t-2.7 5.4q-1.8 2.65-5.4 2.65" fill="#b7e0e6" fill-rule="evenodd"/>
<path d="m405.25 247.35q-117.65 15.25-234.45 31.45" fill="none" stroke="#6f0" stroke-linecap="round" stroke-linejoin="round" stroke-width=".05"/>
<path d="m396.3 292.25q49.4-29.65 8.95-44.9m-234.45 31.45q-2.65 0.9-3.55 2.65-1.8 0-1.8 0.9h-0.9q-28.75 21.6 13.45 32.35m0.9 0q7.2 1.8 16.2 3.6 40.4 6.3 121.25 8.1m9.9-1.8q18.85-7.2 39.5-16.2 0.9-0.9 1.8-0.9 17.05-7.15 28.75-14.35-0.9 0.9-2.7 0.9 0.9-0.9 2.7-0.9h0.9m-0.9-0.9v0.9m-70.05 31.45q-2.7 0.9-4.5 1.8-2.7-0.9-5.4 0m-137.45-11.7h-0.9" fill="none" stroke="#b7e0e6" stroke-linecap="round" stroke-linejoin="round" stroke-width=".1"/>
<path d="m295.9 85.85q7.15-1.3 10.05-4.1 3.25-4.75 2.15-8.2-0.2-3.65-5.55-5.75-3.65-2.6-10.2 0.35-5.7-0.1-9.8 4.9-3.5 3.95-2.4 7.35 0.8 2.55 5.55 5.8l10.2-0.35" fill="#e2aa01" fill-rule="evenodd"/>
<path d="m167.05 148.6-10.85-28.6-0.85 0.25q29.75 89.4 9.25 165.35l20.4 2.1-3.3-4.6q-2.5-17.05-5.65-33.05l0.6-1.1q-2.5-2.05 3.95-11.55 2.05-2.5 3.2-4.8-4.7-36.1-16.75-84" fill="#ffecce" fill-rule="evenodd"/>
<path d="m176.65 248.95 0.25 0.85q2.05 0.35 9.65 3.6l3.95 0.65q10.75-13.7 21.95-20 23.15-7.2 45.1-15 60.85-18.95 104.55-17.55 0.4-7.65 1.1-14.45-6.7-3.55-14.1-3.1l-5.7-0.15q-24.4 0.1-59.45 8.2-5.45 0.75-10.3 3.2l-24.5 5.8q-32.55 10.15-45.45 16.95l-2.6 0.8q-9.45 5.85-17.3 13.85-1.15 2.3-3.2 4.8-6.45 9.5-3.95 11.55" fill="#694f01" fill-rule="evenodd"/>
<path d="m307.65 123.5q-9.7-25.15-11.75-37.65 1.75 14.5-0.7 39.7-3.8 48.2-11.25 66.45 35.05-8.1 59.45-8.2-14.75-14.15-35.75-60.3" fill="#885502" fill-rule="evenodd"/>
<path d="m363.2 187.05q1.75-30.6 2.65-61-15 42.3-58.2-2.55 21 46.15 35.75 60.3l5.7 0.15q7.4-0.45 14.1 3.1m-68-61.5q-14.6 34.6-56.8 44-43.05 9.65-71.35-20.95 12.05 47.9 16.75 84 7.85-8 17.3-13.85l2.6-0.8q12.9-6.8 45.45-16.95l24.5-5.8q4.85-2.45 10.3-3.2 7.45-18.25 11.25-66.45" fill="#a26502" fill-rule="evenodd"/>
<path d="m164.6 285.6 20.4 2.1m-8.95-37.65 0.6-1.1" fill="none" stroke="#3a2001" stroke-linecap="round" stroke-linejoin="round" stroke-width=".05"/>
<path d="m295.9 85.85q7.15-1.3 10.05-4.1 3.25-4.75 2.15-8.2-0.2-3.65-5.55-5.75-3.65-2.6-10.2 0.35-5.7-0.1-9.8 4.9-3.5 3.95-2.4 7.35 0.8 2.55 5.55 5.8l10.2-0.35q1.75 14.5-0.7 39.7-3.8 48.2-11.25 66.45" fill="none" stroke="#7e5801" stroke-linecap="round" stroke-linejoin="round" stroke-width=".05"/>
<path d="m365.85 126.05q-15 42.3-58.2-2.55" fill="none" stroke="#7e5801" stroke-linecap="round" stroke-linejoin="round" stroke-width=".05"/>
<path d="m155.35 120.25q29.75 89.4 9.25 165.35z" fill="none" stroke="#703803" stroke-linecap="round" stroke-linejoin="round" stroke-width=".05"/>
<path d="m144.7 111.25q-1.7 4.5 0 9.3 2.15 5.35 6.4 7.8 3.4 1.85 6.8 0.7l1.25-0.25q4.3-1.9 6.05-6.05 1.6-4.75-0.15-9.85t-5.95-7.35q-3.8-2.3-8.4-0.65-4.35 1.6-6 6.35" fill="#e2aa01" fill-rule="evenodd"/>
<path d="m144.7 111.25q-1.7 4.5 0 9.3 2.15 5.35 6.4 7.8 3.4 1.85 6.8 0.7l1.25-0.25q4.3-1.9 6.05-6.05 1.6-4.75-0.15-9.85t-5.95-7.35q-3.8-2.3-8.4-0.65-4.35 1.6-6 6.35z" fill="none" stroke="#a36501" stroke-linecap="round" stroke-linejoin="round" stroke-width=".05"/>
<path d="m240.9 185.35q2.7 9 6.3 16.2 3.55 8.95 8.05 18.85 9.9 19.75 16.2 27.85 14.35 20.65 30.5 33.2v0.9q-31.4 10.8-54.75 36.85 0.9-11.7-0.9-26.95l-10.8-80.85q-2.7-12.55-4.5-25.15l-3.6-23.35-5.35-37.75q8.95 34.15 18.85 60.2m141 93.45q-3.55-35.05-8.05-71 0-2.7 0.9-5.4-0.9-3.55-0.9-7.15v-28.75l8.95 35.05 1.8 5.35q7.2 20.7 13.5 35.05l2.7 4.5q0.9 0.9 1.8 2.7-18 17.95-20.7 29.65m0-76.4h0.9-0.9m-147.3-93.4q0.9 4.5-2.7 9-2.7 3.6-9.85 7.15-8.1 0-9.9-1.75-3.6-1.8-6.3-8.1-0.9-5.4 2.7-9.9 2.7-4.5 9-5.4 6.25-1.8 11.65 1.8 3.6 1.8 5.4 7.2" fill="#ffcf60" fill-rule="evenodd"/>
<path d="m362.15 158.4q0 16.2-0.9 29.65-0.9 4.5-0.9 8.1-13.45 20.65-44.9 28.75-32.35 7.15-60.2-4.5 27.85 11.65 60.2 4.5 31.45-8.1 44.9-28.75l-3.6 24.25q-5.35 26.95-14.35 47.6h2.7q-13.5 5.4-43.15 13.45-16.15-12.55-30.5-33.2-6.3-8.1-16.2-27.85-4.5-9.9-8.05-18.85-3.6-7.2-6.3-16.2 30.55 30.55 71.85 19.75 40.4-9.85 49.4-46.7m20.65 43.15h0.9q0 2.65 0.9 5.35l-1.8-5.35m-155.4-14.4v41.3q-0.9 13.5-3.6 26.05-4.45 22.5-10.75 39.55h-0.9q-24.25-0.9-29.65-5.4-1.8-2.7-2.7-5.4l-5.4-23.35q-0.9-5.4-0.9-10.75l-1.8-28.75q-0.9-23.35-2.65-45.8 6.25 32.3 25.15 38.6 18.85 5.4 33.2-26.05m0 33.25q-8.05 16.15-28.75 16.15-18.85-1.8-26.95-16.15 8.1 14.35 26.95 16.15 20.7 0 28.75-16.15" fill="#feb336" fill-rule="evenodd"/>
<path d="m231 186.25q-1.8 0.9-3.6 0.9 1.8 0 3.6-0.9 1.8 12.6 4.5 25.15l10.8 80.85q1.8 15.25 0.9 26.95-16.2-22.45-34.15-25.15 6.3-17.05 10.75-39.55 2.7-12.55 3.6-26.05v-65.55l3.6 23.35" fill="#ffecce" fill-rule="evenodd"/>
<path d="m360.35 196.15q0-3.6 0.9-8.1 0.9-13.45 0.9-29.65 0.9-30.55 0-72.75 3.6 41.3 11.7 80.85v28.75q0 3.6 0.9 7.15-0.9 2.7-0.9 5.4 4.5 35.95 8.05 71-6.25-9-36.8-10.8h-2.7q9-20.65 14.35-47.6l3.6-24.25" fill="#ffe8c1" fill-rule="evenodd"/>
<path d="m382.8 202.4h-0.9 0.9" fill="#694f01" fill-rule="evenodd"/>
<path d="m373.85 166.5q-8.1-39.55-11.7-80.85m20.65 115.9 1.8 5.35q7.2 20.7 13.5 35.05l2.7 4.5q0.9 0.9 1.8 2.7m-20.7-46.75h0.9m0-0.85-8.95-35.05m-139.25-57.5q-1.8-5.4-5.4-7.2-5.4-3.6-11.65-1.8-6.3 0.9-9 5.4-3.6 4.5-2.7 9.9 2.7 6.3 6.3 8.1 1.8 1.75 9.9 1.75 7.15-3.55 9.85-7.15 3.6-4.5 2.7-9" fill="none" stroke="#a36501" stroke-linecap="round" stroke-linejoin="round" stroke-width=".05"/>
<path d="m362.15 158.4q-9 36.85-49.4 46.7-41.3 10.8-71.85-19.75m-13.5 1.8q1.8 0 3.6-0.9m-59.3 34.15 1.8 28.75m53.9-62q-14.35 31.45-33.2 26.05-18.9-6.3-25.15-38.6 1.75 22.45 2.65 45.8" fill="none" stroke="#fed798" stroke-linecap="round" stroke-linejoin="round" stroke-width=".05"/>
<path d="m240.9 185.35q2.7 9 6.3 16.2 3.55 8.95 8.05 18.85 27.85 11.65 60.2 4.5 31.45-8.1 44.9-28.75m-113.15 123.05q23.35-26.05 54.75-36.85v-0.9q-16.15-12.55-30.5-33.2-6.3-8.1-16.2-27.85m-27.85-57.5v65.55q-0.9 13.5-3.6 26.05-4.45 22.5-10.75 39.55 17.95 2.7 34.15 25.15 0.9-11.7-0.9-26.95l-10.8-80.85m5.4-26.05q-9.9-26.05-18.85-60.2l5.35 37.75m-55.7 57.5q8.1 14.35 26.95 16.15 20.7 0 28.75-16.15" fill="none" stroke="#a36501" stroke-linecap="round" stroke-linejoin="round" stroke-width=".05"/>
<path d="m384.6 206.9q-0.9-2.7-0.9-5.35h-0.9m-80.85 79.9q29.65-8.05 43.15-13.45m-165.3 15.25q0.9 2.7 2.7 5.4 5.4 4.5 29.65 5.4h0.9" fill="none" stroke="#6b3c01" stroke-linecap="round" stroke-linejoin="round" stroke-width=".05"/>
<path d="m342.4 268h2.7q30.55 1.8 36.8 10.8m20.7-29.65q-18 17.95-20.7 29.65" fill="none" stroke="#5f3401" stroke-linecap="round" stroke-linejoin="round" stroke-width=".05"/>
<path d="m353.45 79.55q-2.85 3.85-2.7 9.35 0.15 5.45 3.5 8.8 3.05 3.3 7.25 2.9l1.6-0.35q3.85-0.55 6.25-3.7 2.75-4.2 2.65-9.65-0.2-5.45-3.5-8.5-2.75-3.7-7.35-3.2-4.55 0.45-7.7 4.35" fill="#ffcf60" fill-rule="evenodd"/>
<path d="m353.45 79.55q3.15-3.9 7.7-4.35 4.6-0.5 7.35 3.2 3.3 3.05 3.5 8.5 0.1 5.45-2.65 9.65-2.4 3.15-6.25 3.7l-1.6 0.35q-4.2 0.4-7.25-2.9-3.35-3.35-3.5-8.8-0.15-5.5 2.7-9.35z" fill="none" stroke="#a36501" stroke-linecap="round" stroke-linejoin="round" stroke-width=".05"/>
<path d="m266.95 275.2q2.7 10.75-1.8 20.65t-13.5 11.65q-8.95 1.8-17.05-4.45-8.1-7.2-10.8-18.9-1.75-11.65 2.7-20.65 4.5-9.85 13.5-11.65 8.1-1.8 17.05 4.45 7.2 7.2 9.9 18.9" fill="#72d7e2" fill-rule="evenodd"/>
<path d="m266.95 275.2q-2.7-11.7-9.9-18.9-8.95-6.25-17.05-4.45-9 1.8-13.5 11.65-4.45 9-2.7 20.65 2.7 11.7 10.8 18.9 8.1 6.25 17.05 4.45 9-1.75 13.5-11.65t1.8-20.65z" fill="none" stroke="#b7e0e6" stroke-linecap="round" stroke-linejoin="round" stroke-width=".05"/>
<path d="m231.05 274.9q1.7 2.65 3.55 2.25 3.15-0.7 4.55-4.1 1.95-3.45 2.1-7.8 0.15-4.3-1.55-6.95-1.15-2.8-4.3-2.1-1.85 0.4-3.8 3.95-2.05 3.45-2.2 7.75-0.15 4.35 1.65 7" fill="#fff" fill-rule="evenodd"/>
<path d="m389.1 255.4q-5.4 1.8-11.65-2.65-5.4-5.4-9-14.4t-1.8-17.05q0.9-7.2 6.3-9 4.5-2.7 10.75 1.8 5.4 5.4 9 14.35 3.6 9 1.8 16.2-0.9 8.1-5.4 10.75" fill="#72d7e2" fill-rule="evenodd"/>
<path d="m389.1 255.4q-5.4 1.8-11.65-2.65-5.4-5.4-9-14.4t-1.8-17.05q0.9-7.2 6.3-9 4.5-2.7 10.75 1.8 5.4 5.4 9 14.35 3.6 9 1.8 16.2-0.9 8.1-5.4 10.75z" fill="none" stroke="#b7e0e6" stroke-linecap="round" stroke-linejoin="round" stroke-width=".05"/>
<path d="m389 223.7q-0.5 3.2-2.35 3.6-3.15 0.7-5.75-1.75-3.2-2.35-5.05-6.2-1.9-3.85-1.4-7-0.1-3.05 3.05-3.75 1.85-0.4 5.05 1.9 3.25 2.35 5.15 6.2 1.85 3.85 1.3 7" fill="#fff" fill-rule="evenodd"/>
</g>
</defs>
</svg>
