<?xml version="1.0" encoding="UTF-8"?>
<svg version="1.1" viewBox="0 0 173.08 69.226" xmlns="http://www.w3.org/2000/svg" xmlns:cc="http://creativecommons.org/ns#" xmlns:dc="http://purl.org/dc/elements/1.1/" xmlns:rdf="http://www.w3.org/1999/02/22-rdf-syntax-ns#" xmlns:xlink="http://www.w3.org/1999/xlink">
<metadata>
<rdf:RDF>
<cc:Work rdf:about="">
<dc:format>image/svg+xml</dc:format>
<dc:type rdf:resource="http://purl.org/dc/dcmitype/StillImage"/>
</cc:Work>
</rdf:RDF>
</metadata>
<g transform="translate(-188.92 -165.85)">
<use transform="translate(188.9,165.85)" width="173.10001" height="69.25" xlink:href="#a"/>
</g>
<defs>
<g id="a" transform="translate(-188.9,-165.85)">
<path d="m241.75 173.45q6.15-2.6 12.95-5l0.75-0.15 2.3 0.7 3.8 0.95-0.05 0.05-3.55 1-1.3 0.55q0.2-0.05 0.35 0.2 11.75 0 14.25-0.3 6.45-0.55 12.65-2.85l5.25 2.05-2.3 1.05q-3.5 1.45-12 2.45l-15.25 0.5 0.05 0.15 0.2-0.1 0.25 0.45 0.05 0.8q-2.05 0.45-11.4-1.2l-7-1.3" fill="#ae8a37" fill-rule="evenodd"/>
<path d="m255.45 168.3q16-3.9 27.55 0l0.9 0.3q-6.2 2.3-12.65 2.85-2.5 0.3-14.25 0.3-0.15-0.25-0.35-0.2l1.3-0.55 3.55-1 0.15-0.05h-0.1l-3.8-0.95-2.3-0.7" fill="#8d702e" fill-rule="evenodd"/>
<path d="m261.5 170 0.05-0.05h0.1l-0.15 0.05" fill="#876b2c" fill-rule="evenodd"/>
<path d="m235.15 176.3q3.2-1.5 6.6-2.85l7 1.3q9.35 1.65 11.4 1.2l-0.05-0.8-0.25-0.45-0.2 0.1-0.05-0.15 15.25-0.5q8.5-1 12-2.45l2.3-1.05 12.1 4.85-10.1 4.15-21.05-0.35 1.05 2.45-10.05-1.2 3.6 1.05-9.4 1.75-11.6-3.15-8.55-3.9" fill="#dcc592" fill-rule="evenodd"/>
<path d="m218.25 184.65q7.6-4.3 16.9-8.35l8.55 3.9 11.6 3.15 9.4-1.75-3.6-1.05 10.05 1.2-1.05-2.45 21.05 0.35 10.1-4.15 8.2 3.65-10.25 4.45-19.75 4.35 14.6 0.2 14-3.75 5.8-3.3 3.8 1.8-0.95 1.15-1.85 1.3-0.05-0.1-0.9 0.4 0.9-0.3q-0.35 0.35-2.45 0.7-3.45 0.65-4.9 1.3 1.8 0.7 2.65 1.15l-0.2 0.1-30.7 7.95-6.45-0.35q-6.8-0.3-12.65 0.95-3.5 0.75-4.85-0.45-1.85-1.55-4.35-1.6l0.9 1.95-9.05-1.35-7.45-2q-4.95-1.4-8.05-1.85l-4.4 0.25q-0.95 0.25-1.85-1.2-0.9-1.55-2.75-6.25" fill="#eacea6" fill-rule="evenodd"/>
<path d="m317.65 182.9 3.4 1.7 1.3 0.6-3.35 4.4q-1.2 0.9-3.6 1.95-1.05 0.45-3.6 2.55l-2.6 2.1-3.4 0.9-3.35 0.55 6.25-5.25-14.6 4.85-31.15 4.75 12.35 0.8q-4.75 3.15-17.9 2.5-14.05-0.8-23.5-4.95l0.3 0.7q0.75 1.45 1.85 2.15l1.15 0.7-19.1-1.65q-9.65-1.95-16-6.85 6.8-5.5 16.15-10.75 1.85 4.7 2.75 6.25 0.9 1.45 1.85 1.2l4.4-0.25q3.1 0.45 8.05 1.85l7.45 2 9.05 1.35-0.9-1.95q2.5 0.05 4.35 1.6 1.35 1.2 4.85 0.45 5.85-1.25 12.65-0.95l6.45 0.35 30.7-7.95 0.25-0.1h-0.05q-0.85-0.45-2.65-1.15 1.45-0.65 4.9-1.3 2.1-0.35 2.45-0.7h0.05l1.85-1.3 0.95-1.15m19.2 9.95q1.3 0.75 2.55 1.35l1.25 0.75-2.9 3q-2.45 2.25-4.1 2.95l-4.05 1.25q-3.05 1.35-7.45 4-4.35 2.6-7.5 4-5.05 2.2-9.65 3.4l-14.5 3.45q-2.15 0.6-10.05-1.5-7.1-1.8-10.2-3.25l0.05-0.25 13.5-1.95 9.7-1.7-9.1 2.1 16.95-0.8 18-5.5 12.3-6.35 5.2-4.95" fill="#f9e6d2" fill-rule="evenodd"/>
<path d="m324.4 186.25 7.75 4-10.05 7.4q-19.05 7.7-25.55 9.65h-0.05l-0.3 0.15-2.55 0.8q-0.15 0-0.15 0.1l-9.7 1.7-13.5 1.95q-0.1 0.1-0.25 0.15l0.2 0.1q3.1 1.45 10.2 3.25 7.9 2.1 10.05 1.5l14.5-3.45q4.6-1.2 9.65-3.4 3.15-1.4 7.5-4 4.4-2.65 7.45-4l4.05-1.25q1.65-0.7 4.1-2.95l2.9-3 2.25 1.3 2.35 1.55-8.45 6.2-10.9 4.75 12.1-0.7 11.8-7q2.25 1.75 3.7 3.5l1.1 1.3-2.55 3.4-11.95 7.9-14.9 4.65 13.95-0.8 11.8-5.15 5.65-4.35q-0.25 3.3-4.3 6.15-24.5 12.05-57.05 15.1-56.7 6.75-97.95-11.1-16.45-7.2 1.4-23.25l3.4-3q6.35 4.9 16 6.85l19.1 1.65-1.15-0.7q-1.1-0.7-1.85-2.15l-0.3-0.7q9.45 4.15 23.5 4.95 13.15 0.65 17.9-2.5l6.8 0.45 18.55-4.2 1.8-1.4 3.35-0.55 3.4-0.9 2.6-2.1q2.55-2.1 3.6-2.55 2.4-1.05 3.6-1.95l-2.8 3.75 7.55-5.2 0.65-1.9m-87.2 17.65 0.25 0.25-0.15-0.2-0.1-0.05m83.35 12.3-5.35-2-25.7 5.45-16.55 0.8 7.35 2.35 25.75-1.7 8.45-3.65 3.45 1.1 2.6-2.35m-65-4.55 8-3.5-16.35-0.35-15.2-2.15-7.4-1.8 4.95 5.35 10.95 3.15 5.25-0.15 0.55-2.35 2.45 3.1-0.3-2.8 7.1 1.5" fill="#fefaf8" fill-rule="evenodd"/>
<path d="m309.45 179.15 11.2-4.4-3.6 4.5-3.2 1.85-5.8 3.3-14 3.75-14.6-0.2 19.75-4.35 10.25-4.45m11.6 5.45 4.3-1.9-0.95 3.55-0.65 1.9-7.55 5.2 2.8-3.75 3.35-4.4-1.3-0.6m11.1 5.65 8.35-0.9-3.65 3.5-5.2 4.95-12.3 6.35-18 5.5-16.95 0.8 9.1-2.1q0-0.1 0.15-0.1l2.55-0.8 0.3-0.15h0.05q6.5-1.95 25.55-9.65l10.05-7.4m10.75 6 7.75 0.1-0.85 4.7-11.8 7-12.1 0.7 10.9-4.75 8.45-6.2-2.35-1.55m10.6 8.3 3.95-1.75 1.1 2.55 2.95 0.6-3.85 0.9 1.3 2.85-2.35 1.8-5.65 4.35-11.8 5.15-13.95 0.8 14.9-4.65 11.95-7.9 2.55-3.4-1.1-1.3m-51.05-6.9-1.8 1.4-18.55 4.2-6.8-0.45-12.35-0.8 31.15-4.75 14.6-4.85-6.25 5.25m18.1 18.55-2.6 2.35-3.45-1.1-8.45 3.65-25.75 1.7-7.35-2.35 16.55-0.8 25.7-5.45 5.35 2m-65-4.55-7.1-1.5 0.3 2.8-2.45-3.1-0.55 2.35-5.25 0.15-10.95-3.15-4.95-5.35 7.4 1.8 15.2 2.15 16.35 0.35-8 3.5" fill="#8a714a" fill-rule="evenodd"/>
<path d="m218.25 184.65q7.6-4.3 16.9-8.35 3.2-1.5 6.6-2.85 6.15-2.6 12.95-5l0.75-0.15q16-3.9 27.55 0l0.9 0.3 5.25 2.05 12.1 4.85 8.2 3.65m4.4 1.95 3.8 1.8 3.4 1.7m3.35 1.65 7.75 4m4.7 2.6q1.3 0.75 2.55 1.35l1.25 0.75 2.25 1.3m6.9 4.8q2.25 1.75 3.7 3.5m3.1 6.95q-0.25 3.3-4.3 6.15-24.5 12.05-57.05 15.1-56.7 6.75-97.95-11.1-16.45-7.2 1.4-23.25l3.4-3q6.8-5.5 16.15-10.75z" fill="none" stroke="#000" stroke-linecap="round" stroke-linejoin="round" stroke-opacity=".4" stroke-width=".2"/>
<path d="m353.6 204.55 3.9-1.8 1.15 2.55 2.85 0.65-3.85 0.85 1.3 2.9-2.25 1.75q-0.3 3.3-4.35 6.2-24.5 12.05-57.05 15.05-56.75 6.8-97.95-11.05-16.5-7.2 1.35-23.3l3.4-2.95q6.85-5.55 16.2-10.8 7.6-4.3 16.9-8.35 3.2-1.45 6.6-2.8 6.15-2.6 12.95-5l0.7-0.15q16.05-3.9 27.65 0l0.85 0.3 5.2 2 12.1 4.85 8.3 3.7 11.1-4.45-3.65 4.55q-1.55 0.85-3.15 1.8l3.85 1.85 3.45 1.7 4.25-1.9-1 3.5 7.7 4 8.45-0.85-3.65 3.45 2.55 1.45 1.2 0.7 2.3 1.25 7.75 0.15-0.9 4.7z" fill="none" stroke="#000" stroke-linecap="round" stroke-linejoin="round" stroke-opacity=".4"/>
</g>
</defs>
</svg>
