<?xml version="1.0" encoding="UTF-8"?>
<svg version="1.1" viewBox="0 0 80.683 89.525" xmlns="http://www.w3.org/2000/svg" xmlns:cc="http://creativecommons.org/ns#" xmlns:dc="http://purl.org/dc/elements/1.1/" xmlns:rdf="http://www.w3.org/1999/02/22-rdf-syntax-ns#" xmlns:xlink="http://www.w3.org/1999/xlink">
<metadata>
<rdf:RDF>
<cc:Work rdf:about="">
<dc:format>image/svg+xml</dc:format>
<dc:type rdf:resource="http://purl.org/dc/dcmitype/StillImage"/>
</cc:Work>
</rdf:RDF>
</metadata>
<g transform="translate(-233.84 -154.33)">
<use transform="translate(233.85,154.35)" width="80.650002" height="89.5" xlink:href="#a"/>
</g>
<defs>
<g id="a" transform="translate(-233.85,-154.35)">
<path d="m246.5 207.45 0.1 0.05-0.15 0.05 0.05-0.1" fill="#fdd" fill-rule="evenodd"/>
<path d="m233.95 212.8 0.05-0.3 0.15 0.25-0.25 0.1 0.05-0.05m12.5-5.35h0.05l-0.05 0.1v-0.1m4.25 5.2 0.45 0.2-0.3 0.05-0.15-0.25m-4.45 6.6-0.05 0.15 0.05-0.15m-0.9 1.2v0.05l-0.2 0.05 0.2-0.1m-0.9-4.3q-0.05-0.05-0.25-0.15l0.25 0.1v0.05m-3.05 0.7-0.05 0.3-0.15-0.15 0.2-0.15m0.5 2.15h-0.15l-0.05-0.25 0.2 0.25" fill="#f99" fill-rule="evenodd"/>
<path d="m244.1 220.55-0.75-0.3-0.1-0.05-0.4-0.25-0.95-0.95-0.2-0.25-0.15-0.4q1.3-2.45 4.4-0.6l0.2 0.65 0.1 0.85-0.05 0.15-0.3 0.6-0.55 0.45-0.2 0.1h-1.05" fill="#ff0" fill-rule="evenodd"/>
<path d="m245.75 217.4 0.05 0.1 0.15 0.25q-3.1-1.85-4.4 0.6v-0.1l-0.2-1.1 0.05-0.3q0.1-0.4 0.35-0.75l0.6-0.3 0.1-0.1 1.35 0.1 0.4 0.2q0.2 0.1 0.25 0.15l0.65 0.4 0.05 0.05 0.6 0.8" fill="#fc0" fill-rule="evenodd"/>
<path d="m233.9 212.85 0.05-0.05-0.05 0.05" fill="#ffead5" fill-rule="evenodd"/>
<path d="m242.15 229-0.7-0.25q-1-0.5-1.5-2.2-0.3-1.55-0.05-3.2l0.35-0.1q1.6-0.7 2.25-2l0.35-1.3 0.4 0.25 0.1 0.05-1.95 4.55q-0.85 2.3 0.75 4.2m-5.95-5.9-1.05-1.1q-0.45-1.15 0.2-2.45 0.7-1.25 2.15-1.9h0.05q1.7 0.95 3.1 0.85l0.9-0.25v0.1l0.15 0.4 0.05 0.25-4.2-0.25q-2.15 2.25-1.35 4.35m-2.2-10.6q0.4-0.85 1.6-0.95 1.4-0.1 3.15 0.8-0.85-1.85-0.9-3.5 0-1.2 0.5-1.75l0.4-0.3h0.15l0.05 0.35q0.3 2.9 1.65 5.7l1.75 2.95-0.6 0.3q-0.25 0.35-0.35 0.75l-0.2 0.15-4.25-4.35h-0.05l-2.2-0.1-0.55 0.2-0.15-0.25m9.05-2.2q0.45-1.65 1.35-2.45 0.35-0.3 0.6-0.4 0.7-0.4 1.45 0v0.1q-1 2.4-1.6 5.5l-0.4 3.05-0.25-0.1-0.4-0.2q0.4-0.55 0.3-1.55l-0.1-1.25q-0.2-1.15-0.8-2.35l-0.15-0.35m5 2.55 2.65-0.2 0.15 0.25-1.1 0.45q-2.8 1.3-4 4.05l-0.6-0.8q-0.1-0.85 0.3-1.7 0.6-1.1 1.8-1.7l0.4-0.2 0.4-0.15m5.25 11.6-0.95 0.2q-1.4 0.1-3.15-0.75l-0.05-0.1q-0.9-2-2.2-3.1-0.55-0.5-1.05-0.7l0.3-0.6 0.05-0.15q1.8 0.55 3.1 2.05 1.35 2.2 3.95 3.15m-3.2 3.65q-0.2 1.05-0.9 1.3-0.9 0.4-2.25-0.7-1.15-1.05-2.05-2.75l-0.15-0.35q-0.9-1.95-0.9-3.6 0-0.9 0.25-1.45h1.05l0.2-0.05q-0.45 6.7 4.75 7.6m-11.35-15.75 0.2 0.4q0.85 1.8 2.05 2.8l0.75 0.55-0.75-0.55q-1.2-1-2.05-2.8l-0.2-0.4" fill="#cdbddb" fill-rule="evenodd"/>
<path d="m244.9 225.95q-0.45 1.6-1.4 2.45-0.65 0.6-1.35 0.6-1.6-1.9-0.75-4.2l1.95-4.55 0.75 0.3q-0.25 0.55-0.25 1.45 0 1.65 0.9 3.6l0.15 0.35m-5-2.6-2.65 0.15q-0.55-0.1-1.05-0.4-0.8-2.1 1.35-4.35l4.2 0.25h0.15l0.95 0.95-0.35 1.3q-0.65 1.3-2.25 2l-0.35 0.1m-2.4-5.7q-1.75-0.95-2.8-2.35-1-1.45-0.8-2.45l0.25-0.1 0.55-0.2 2.2 0.1h0.05l4.25 4.35 0.15 0.15 0.2 1.1-0.9 0.25q-1.4 0.1-3.1-0.85h-0.05m1.4-10.85q0.75-0.25 1.65 0.4l0.4 0.3q1.25 1.05 2.1 2.8l0.15 0.35q0.6 1.2 0.8 2.35l0.1 1.25q0.1 1-0.3 1.55l-1.35-0.1-0.1 0.1-1.75-2.95q-1.35-2.8-1.65-5.7l-0.05-0.35m7.7 0.7q0.9 0.6 1.35 2.2 0.45 1.55 0.1 3.15l-0.4 0.15-0.4 0.2q-1.2 0.6-1.8 1.7-0.4 0.85-0.3 1.7l-0.05-0.05-0.65-0.4v-0.05l0.4-3.05q0.6-3.1 1.6-5.5l0.15-0.05m4.55 5.35q0.6 0.2 1.1 0.65l0.5 0.7q0.5 1.15-0.15 2.45t-2.15 1.9q1.75 0.9 2.75 2.3 1.1 1.5 0.8 2.55l-0.7 1.05q-2.6-0.95-3.95-3.15-1.3-1.5-3.1-2.05l-0.1-0.85q0.5 0.35 1.2 0.5l3-0.3 0.1-0.05-0.1 0.05-3 0.3q-0.7-0.15-1.2-0.5l-0.2-0.65-0.15-0.25-0.05-0.1q1.2-2.75 4-4.05l1.1-0.45 0.3-0.05m-1.95 11.05q0.85 1.9 0.9 3.5v0.7q-5.2-0.9-4.75-7.6v-0.05l0.55-0.45q0.5 0.2 1.05 0.7 1.3 1.1 2.2 3.1l0.05 0.1" fill="#d7d0ea" fill-rule="evenodd"/>
<path d="m244.9 225.95q-0.45 1.6-1.4 2.45-0.65 0.6-1.35 0.6l-0.7-0.25q-1-0.5-1.5-2.2-0.3-1.55-0.05-3.2l-2.65 0.15q-0.55-0.1-1.05-0.4l-1.05-1.1q-0.45-1.15 0.2-2.45 0.7-1.25 2.15-1.9-1.75-0.95-2.8-2.35-1-1.45-0.8-2.45l0.05-0.05 0.05-0.3q0.4-0.85 1.6-0.95 1.4-0.1 3.15 0.8-0.85-1.85-0.9-3.5 0-1.2 0.5-1.75l0.4-0.3h0.15q0.75-0.25 1.65 0.4l0.4 0.3q1.25 1.05 2.1 2.8 0.45-1.65 1.35-2.45 0.35-0.3 0.6-0.4 0.7-0.4 1.45 0h0.05l0.1 0.05q0.9 0.6 1.35 2.2 0.45 1.55 0.1 3.15l2.65-0.2 0.45 0.2q0.6 0.2 1.1 0.65l0.5 0.7q0.5 1.15-0.15 2.45t-2.15 1.9q1.75 0.9 2.75 2.3 1.1 1.5 0.8 2.55l-0.7 1.05-0.95 0.2q-1.4 0.1-3.15-0.75 0.85 1.9 0.9 3.5v0.7q-0.2 1.05-0.9 1.3-0.9 0.4-2.25-0.7-1.15-1.05-2.05-2.75l-0.15-0.35q-0.9-1.95-0.9-3.6 0-0.9 0.25-1.45l-0.75-0.3-0.1-0.05-0.4-0.25-0.95-0.95-0.2-0.25-0.15-0.4m4.35 1.65q0.5 0.2 1.05 0.7 1.3 1.1 2.2 3.1l0.05 0.1m1.25-5.35-0.1 0.05-3 0.3q-0.7-0.15-1.2-0.5l0.1 0.85-0.05 0.15-0.3 0.6-0.55 0.45-0.2 0.1h-1.05m1.65-3.15 0.05 0.1 0.15 0.25 0.2 0.65m-1-1.8q-0.1-0.85 0.3-1.7 0.6-1.1 1.8-1.7l0.4-0.2 0.4-0.15m-3.6 3.3 0.65 0.4 0.05 0.05 0.6 0.8m-1.55-1.4q0.2 0.1 0.25 0.15m-0.25-0.15-0.4-0.2-1.35-0.1-0.1 0.1-0.6 0.3q-0.25 0.35-0.35 0.75l-0.05 0.3 0.2 1.1v0.1m1.5-8.05 0.15 0.35q0.6 1.2 0.8 2.35l0.1 1.25q0.1 1-0.3 1.55m-2.05 0.3-0.75-0.55q-1.2-1-2.05-2.8l-0.2-0.4m4.1 7.6-0.35 1.3q-0.65 1.3-2.25 2l-0.35 0.1m1.65-5.1-0.9 0.25q-1.4 0.1-3.1-0.85h-0.05" fill="none" stroke="#000" stroke-linecap="round" stroke-linejoin="round" stroke-opacity=".4" stroke-width=".05"/>
<path d="m285.65 188.65-0.1-0.05 0.15-0.1-0.05 0.15" fill="#fdd" fill-rule="evenodd"/>
<path d="m285.65 188.65-0.1-0.05 0.1 0.05m3.75 6.4 0.15-0.05h0.05l-0.2 0.05m1.85-5.9 0.35-0.1-0.15 0.15-0.2-0.05m-9.95 10.15-0.2-0.25 0.25 0.1-0.05 0.15m7-1.85h-0.15l0.05-0.15 0.1 0.15m1.35 0.85-0.2-0.15 0.3 0.1-0.1 0.05m2.9-2.35-0.05-0.15 0.05 0.15m0.2 1.15-0.15 0.1 0.05-0.2 0.1 0.1" fill="#f99" fill-rule="evenodd"/>
<path d="m289.75 198.25-0.6-0.2q-0.7-2.25 2.25-3l0.5 0.25 0.6 0.5 0.05 0.15 0.2 0.5-0.1 0.55-0.05 0.2-0.65 0.65-0.55 0.25h-0.05l-0.4 0.15h-1.2" fill="#ff0" fill-rule="evenodd"/>
<path d="m288.95 195.25 0.45-0.2 0.2-0.05 0.65-0.1 0.8 0.1 0.15 0.05h0.2q-2.95 0.75-2.25 3h-0.05l-0.8-0.6-0.1-0.15-0.25-0.7 0.1-0.55 0.1-0.1 0.8-0.7" fill="#fc0" fill-rule="evenodd"/>
<path d="m281.1 199.05-0.05-0.45 0.5 0.1-0.2 0.45-0.25-0.1m-0.5-6.3h0.05l0.2 0.2-0.25-0.2m3.65 3.5-0.3-0.05-0.1-0.05 0.4 0.1m5.2 1.9 0.2 0.15-0.05 0.05-0.15-0.2m3.05-2.35 0.05-0.05v0.2l-0.05-0.15" fill="#cdbddb" fill-rule="evenodd"/>
<path d="m280.65 192.75v-0.1l0.2 0.3-0.2-0.2m11.85 3.05 0.05-0.05-0.05 0.05" fill="#d7d0ea" fill-rule="evenodd"/>
<path d="m285.55 188.6 0.1 0.05q0.8 2.05 2.35 4.2l1.55 2.15-0.15 0.05-0.45 0.2q-0.1-0.6-0.75-1.15l-0.75-0.7-1.95-1-0.3-0.05q-0.7-1.25-0.65-2.3 0-0.3 0.15-0.55 0.15-0.75 0.85-0.9m4.2 2.3q0.5-1.15 1.5-1.75l0.2 0.05-0.4 0.9q-0.85 2.5 0 4.9l-0.8-0.1q-0.6-0.45-0.8-1.25-0.3-1 0-2.05 0-0.25 0.15-0.45l0.15-0.25m10.1 3.8-0.45 0.65q-0.8 0.9-2.3 1.4h-0.15q-1.8-0.7-3.2-0.55-0.65 0.05-1 0.25l-0.2-0.5v-0.2q1.35-0.7 3.05-0.6 2.05 0.55 4.25-0.45m0.25 4.1q0.5 0.7 0.25 1.3-0.35 0.75-1.75 0.9l-2.85-0.4-0.35-0.1q-1.7-0.65-2.65-1.6l-0.8-1.05 0.65-0.65 0.15-0.1q3.75 4.25 7.35 1.7m-4.25 5.25-0.5 0.35q-0.95 0.25-2.25-0.45-1.15-0.7-1.95-1.9l0.2-0.3q0.5-1.35 0.1-2.5l-0.5-1 0.4-0.15h0.05l1.55 3.9q0.8 1.85 2.9 2.05m-7.1 0.05-1.2-0.05q-1-0.4-1.4-1.6-0.3-1.15 0.15-2.35h0.05q1.6-0.5 2.35-1.4l0.4-0.65h0.05l0.3 0.1 0.15 0.2-2.55 2.3q-0.05 2.65 1.7 3.45m-7.7-5.5q0-0.5 0.5-1.05 0.7-0.9 2.3-1.4-1.6-0.6-2.55-1.55-0.8-0.75-0.8-1.35l0.1-0.45v-0.05l0.25 0.2q1.9 1.5 4.4 2.35l2.8 0.75-0.1 0.55-0.8 0.1-2.9-0.45 2.9 0.45 0.8-0.1 0.25 0.7-0.05 0.15-5.2-0.05v0.05q-0.95 0.45-1.4 1.25l-0.5-0.1m2.8-2.45 0.1 0.05 0.3 0.05-0.4-0.1" fill="#f60" fill-rule="evenodd"/>
<path d="m285.2 192.35 0.3 0.05 1.95 1 0.75 0.7q0.65 0.55 0.75 1.15l-0.8 0.7-0.1 0.1-2.8-0.75q-2.5-0.85-4.4-2.35l-0.2-0.3q0.3-0.5 1.2-0.7l0.45-0.05q1.3-0.1 2.9 0.45m4.35 2.65-1.55-2.15q-1.55-2.15-2.35-4.2l0.05-0.15q0.9-0.15 2.1 0.55l1.95 1.85-0.15 0.25q-0.15 0.2-0.15 0.45-0.3 1.05 0 2.05 0.2 0.8 0.8 1.25l-0.65 0.1h-0.05m2.05-5.95q0.5-0.3 1-0.3l0.75 0.1q1 0.35 1.35 1.6 0.4 1.15-0.05 2.4l3-0.25q1.5 0.2 2 1.05 0.3 0.5 0.2 1.05-2.2 1-4.25 0.45-1.7-0.1-3.05 0.6l-0.05 0.05-0.6-0.5 1.05-0.4q1.05-0.7 1.65-1.95l0.05-0.1-0.05 0.1q-0.6 1.25-1.65 1.95l-1.05 0.4-0.5-0.25h-0.2l-0.15-0.05q-0.85-2.4 0-4.9l0.4-0.9 0.15-0.15m5.5 7.7q1.6 0.65 2.6 1.6l0.4 0.45q-3.6 2.55-7.35-1.7l-0.1-0.1 0.1-0.55q0.35-0.2 1-0.25 1.4-0.15 3.2 0.55h0.15m-1.35 3.85q0.7 1.2 0.65 2.3l-0.55 1.15q-2.1-0.2-2.9-2.05l-1.55-3.9 0.55-0.25 0.8 1.05q0.95 0.95 2.65 1.6l0.35 0.1m-4.6 1.45q-0.55 1.1-1.5 1.7l-0.9 0.35q-1.75-0.8-1.7-3.45l2.55-2.3 0.05-0.05 0.1-0.05h1.2l0.5 1q0.4 1.15-0.1 2.5l-0.2 0.3m-4.85-1.95-3.1 0.25q-1.45-0.25-1.9-1.05l0.05-0.15 0.2-0.45q0.45-0.8 1.4-1.25v-0.05l5.2 0.05h0.15l0.8 0.6-0.4 0.65q-0.75 0.9-2.35 1.4h-0.05" fill="#fea452" fill-rule="evenodd"/>
<path d="m285.55 188.6q-0.7 0.15-0.85 0.9-0.15 0.25-0.15 0.55-0.05 1.05 0.65 2.3l0.3 0.05 1.95 1 0.75 0.7q0.65 0.55 0.75 1.15l0.45-0.2 0.2-0.05 0.65-0.1 0.8 0.1 0.15 0.05h0.2l0.5 0.25 0.6 0.5 0.05 0.15 0.2 0.5q0.35-0.2 1-0.25 1.4-0.15 3.2 0.55h0.15q1.6 0.65 2.6 1.6l0.4 0.45q0.5 0.7 0.25 1.3-0.35 0.75-1.75 0.9l-2.85-0.4q0.7 1.2 0.65 2.3l-0.55 1.15-0.5 0.35q-0.95 0.25-2.25-0.45-1.15-0.7-1.95-1.9-0.55 1.1-1.5 1.7l-0.9 0.35-1.2-0.05q-1-0.4-1.4-1.6-0.3-1.15 0.15-2.35l-3.1 0.25q-1.45-0.25-1.9-1.05l-0.2-0.25-0.05-0.45q0-0.5 0.5-1.05 0.7-0.9 2.3-1.4-1.6-0.6-2.55-1.55-0.8-0.75-0.8-1.35l0.1-0.45v-0.05h0.05v-0.1q0.3-0.5 1.2-0.7l0.45-0.05q1.3-0.1 2.9 0.45m0.5-3.85-0.15 0.1m0.15-0.1q0.9-0.15 2.1 0.55l1.95 1.85q0.5-1.15 1.5-1.75l0.35-0.1q0.5-0.3 1-0.3l0.75 0.1q1 0.35 1.35 1.6 0.4 1.15-0.05 2.4l3-0.25q1.5 0.2 2 1.05 0.3 0.5 0.2 1.05l-0.45 0.65q-0.8 0.9-2.3 1.4m-6.85-1.85q-0.6-0.45-0.8-1.25-0.3-1 0-2.05 0-0.25 0.15-0.45l0.15-0.25m-1.8 5.7-0.8 0.1-2.9-0.45-0.3-0.05-0.1-0.05m4.1 0.45 0.1-0.55 0.1-0.1 0.8-0.7m-2.65 4.85h0.05q1.6-0.5 2.35-1.4l0.4-0.65-0.8-0.6-0.1-0.15-0.25-0.7m1.8 1.65-0.6-0.2h-0.05m5.55-5.2-0.05 0.1q-0.6 1.25-1.65 1.95l-1.05 0.4m0.7 1.9-0.65 0.65 0.8 1.05q0.95 0.95 2.65 1.6l0.35 0.1m-3.1-3.6-0.05 0.2m-1.2 0.9h-0.05l-0.4 0.15 0.5 1q0.4 1.15-0.1 2.5l-0.2 0.3m0.8-4.2-0.55 0.25m1.35-1.65-0.1 0.55m-1.7 1.25h-1.2" fill="none" stroke="#000" stroke-linecap="round" stroke-linejoin="round" stroke-opacity=".4" stroke-width=".05"/>
<path d="m297.6 205.75-0.05-0.05 0.15-0.1-0.1 0.15" fill="#fdd" fill-rule="evenodd"/>
<path d="m297.6 205.75-0.05-0.05 0.05 0.05m4.3 7.3 0.15-0.05h0.1l-0.25 0.05m2.15-6.7 0.35-0.15-0.15 0.2-0.2-0.05m-11.4 11.6-0.2-0.3 0.25 0.1-0.05 0.2m8.05-2.1h-0.25l0.1-0.25 0.15 0.25m1.3 0.8 0.3 0.05-0.1 0.1-0.2-0.15m3.55-1.1 0.1-0.25 0.05 0.1-0.15 0.15m-0.05-1.45-0.1-0.15 0.1 0.15" fill="#f99" fill-rule="evenodd"/>
<path d="m302 216.65-0.35-0.15q-0.85-2.55 2.55-3.45l0.55 0.3 0.65 0.6 0.1 0.15 0.2 0.55-0.05 0.65-0.1 0.25-0.7 0.7-0.65 0.3h-0.1l-0.45 0.15h-1.35l-0.3-0.05" fill="#ff0" fill-rule="evenodd"/>
<path d="m301.4 213.3 0.5-0.25 0.25-0.05 0.7-0.1 0.95 0.1 0.15 0.05h0.25q-3.4 0.9-2.55 3.45h-0.1q-0.6-0.3-0.85-0.65l-0.15-0.25-0.3-0.8 0.15-0.6 0.05-0.1q0.3-0.55 0.95-0.8" fill="#fc0" fill-rule="evenodd"/>
<path d="m292.45 217.65-0.1-0.5 0.6 0.05-0.25 0.55-0.25-0.1m-0.6-7.2h0.05l0.25 0.2q-0.15-0.15-0.3-0.2m4.15 4-0.45-0.15 0.45 0.15m6.2 2.35-0.05 0.05-0.15-0.2 0.2 0.15m3.2-2.85 0.1-0.1v0.25l-0.1-0.15" fill="#cdbddb" fill-rule="evenodd"/>
<path d="m291.9 210.45v-0.1l0.25 0.3-0.25-0.2m13.6 3.4-0.1 0.1 0.1-0.1" fill="#d7d0ea" fill-rule="evenodd"/>
<path d="m297.55 205.7 0.05 0.05q0.95 2.35 2.7 4.8l1.75 2.45-0.15 0.05-0.5 0.25q-0.15-0.7-0.85-1.35l-0.9-0.8-2.2-1.1-0.35-0.05q-0.8-1.45-0.75-2.65 0-0.35 0.15-0.65 0.25-0.8 1.05-1m4.75 2.6q0.55-1.3 1.75-1.95l0.2 0.05-0.45 1.05q-1 2.85 0 5.55l-0.95-0.1q-0.65-0.5-0.85-1.45-0.35-1.1 0-2.35 0-0.3 0.15-0.5l0.15-0.3m11.5 4.4-0.5 0.7q-0.85 1.05-2.6 1.65h-0.15q-2.05-0.85-3.65-0.7l-1.2 0.3-0.2-0.55v-0.25q1.55-0.8 3.5-0.65 2.35 0.6 4.8-0.5m0.3 4.65q0.6 0.8 0.3 1.45-0.35 0.9-1.95 1.05l-3.3-0.45-0.35-0.15q-2-0.7-3.1-1.8l-0.85-1.2 0.85-0.85q4.3 4.9 8.4 1.95m-4.8 6-0.6 0.35q-1.1 0.3-2.55-0.5-1.3-0.8-2.25-2.1l0.2-0.4q0.6-1.5 0.15-2.85l-0.6-1.15 0.45-0.15h0.1l1.75 4.45q0.95 2.15 3.35 2.35m-8.1 0.05-1.4-0.05q-1.15-0.45-1.6-1.85-0.35-1.3 0.15-2.7h0.05q1.85-0.55 2.7-1.6l0.45-0.7h0.1l0.35 0.15 0.15 0.2-2.95 2.65q-0.05 2.95 2 3.9m-8.85-6.25q0-0.6 0.6-1.25 0.8-1 2.6-1.6-1.8-0.65-2.9-1.75-0.9-0.9-0.9-1.55l0.1-0.5v-0.05q0.15 0.05 0.3 0.2 2.2 1.75 5 2.7l3.25 0.85-0.15 0.6-0.9 0.15q-1.5 0.15-3.35-0.5 1.85 0.65 3.35 0.5l0.9-0.15 0.3 0.8-0.1 0.25-5.9-0.1v0.1q-1.1 0.5-1.6 1.35l-0.6-0.05m3.2-2.85 0.45 0.15-0.45-0.15" fill="#f60" fill-rule="evenodd"/>
<path d="m297.1 210 0.35 0.05 2.2 1.1 0.9 0.8q0.7 0.65 0.85 1.35-0.65 0.25-0.95 0.8l-0.05 0.1-3.25-0.85q-2.8-0.95-5-2.7l-0.25-0.3q0.4-0.6 1.4-0.8l0.5-0.05q1.5-0.15 3.3 0.5m4.95 3-1.75-2.45q-1.75-2.45-2.7-4.8l0.1-0.15q1-0.2 2.4 0.6 1.25 0.8 2.2 2.1l-0.15 0.3q-0.15 0.2-0.15 0.5-0.35 1.25 0 2.35 0.2 0.95 0.85 1.45l-0.7 0.1h-0.1m2.35-6.8 1.15-0.3 0.9 0.1q1.1 0.4 1.55 1.8 0.4 1.3-0.1 2.75l3.45-0.25q1.65 0.2 2.25 1.15 0.35 0.6 0.2 1.25-2.45 1.1-4.8 0.5-1.95-0.15-3.5 0.65l-0.1 0.1-0.65-0.6-0.55-0.3h-0.25l-0.15-0.05q-1-2.7 0-5.55l0.45-1.05 0.15-0.2m6.3 8.85q1.8 0.7 2.95 1.8l0.45 0.5q-4.1 2.95-8.4-1.95l-0.05-0.1 0.05-0.65 1.2-0.3q1.6-0.15 3.65 0.7h0.15m-1.55 4.35q0.8 1.4 0.75 2.65-0.15 0.85-0.6 1.3-2.4-0.2-3.35-2.35l-1.75-4.45 0.65-0.3 0.85 1.2q1.1 1.1 3.1 1.8l0.35 0.15m-5.25 1.7q-0.6 1.25-1.7 1.9l-1 0.4q-2.05-0.95-2-3.9l2.95-2.65 0.15-0.15h1.35l0.6 1.15q0.45 1.35-0.15 2.85l-0.2 0.4m-5.55-2.3-3.5 0.3q-1.7-0.3-2.2-1.15l0.05-0.2 0.25-0.55q0.5-0.85 1.6-1.35v-0.1l5.9 0.1h0.25q0.25 0.35 0.85 0.65l-0.45 0.7q-0.85 1.05-2.7 1.6h-0.05m6.4-5.45 1.2-0.45q1.2-0.8 1.9-2.25l0.05-0.1-0.05 0.1q-0.7 1.45-1.9 2.25l-1.2 0.45" fill="#fea452" fill-rule="evenodd"/>
<path d="m297.55 205.7q-0.8 0.2-1.05 1-0.15 0.3-0.15 0.65-0.05 1.2 0.75 2.65l0.35 0.05 2.2 1.1 0.9 0.8q0.7 0.65 0.85 1.35l0.5-0.25 0.25-0.05 0.7-0.1 0.95 0.1 0.15 0.05h0.25m-6.5-7.45-0.15 0.1m0.15-0.1q1-0.2 2.4 0.6 1.25 0.8 2.2 2.1 0.55-1.3 1.75-1.95l0.35-0.15 1.15-0.3 0.9 0.1q1.1 0.4 1.55 1.8 0.4 1.3-0.1 2.75l3.45-0.25q1.65 0.2 2.25 1.15 0.35 0.6 0.2 1.25l-0.5 0.7q-0.85 1.05-2.6 1.65 1.8 0.7 2.95 1.8l0.45 0.5q0.6 0.8 0.3 1.45-0.35 0.9-1.95 1.05l-3.3-0.45q0.8 1.4 0.75 2.65-0.15 0.85-0.6 1.3l-0.6 0.35q-1.1 0.3-2.55-0.5-1.3-0.8-2.25-2.1-0.6 1.25-1.7 1.9l-1 0.4-1.4-0.05q-1.15-0.45-1.6-1.85-0.35-1.3 0.15-2.7l-3.5 0.3q-1.7-0.3-2.2-1.15l-0.2-0.3-0.1-0.5q0-0.6 0.6-1.25 0.8-1 2.6-1.6-1.8-0.65-2.9-1.75-0.9-0.9-0.9-1.55l0.1-0.5v-0.05h0.05v-0.1q0.4-0.6 1.4-0.8l0.5-0.05q1.5-0.15 3.3 0.5m5.75 2.9q-0.65-0.5-0.85-1.45-0.35-1.1 0-2.35 0-0.3 0.15-0.5l0.15-0.3m-2.05 6.5-0.9 0.15q-1.5 0.15-3.35-0.5l-0.45-0.15m4.7 0.5 0.15-0.6 0.05-0.1q0.3-0.55 0.95-0.8m-3.05 5.5h0.05q1.85-0.55 2.7-1.6l0.45-0.7q-0.6-0.3-0.85-0.65l-0.15-0.25-0.3-0.8m1.75 1.85-0.35-0.15h-0.1m0.75 0.2-0.3-0.05m0.3 0.05h1.35l0.45-0.15h0.1l0.65-0.3 0.7-0.7 0.1-0.25 0.05-0.65-0.2-0.55-0.1-0.15-0.65-0.6-0.55-0.3m3.7-2.5-0.05 0.1q-0.7 1.45-1.9 2.25l-1.2 0.45m-0.85 7.75 0.2-0.4q0.6-1.5 0.15-2.85l-0.6-1.15m1.2-0.45 0.85 1.2q1.1 1.1 3.1 1.8l0.35 0.15m-3.45-4.75 1.2-0.3q1.6-0.15 3.65 0.7h0.15" fill="none" stroke="#000" stroke-linecap="round" stroke-linejoin="round" stroke-opacity=".4" stroke-width=".05"/>
<path d="m276.75 161.65 1.45 0.85q2.3 14.8 5.25 22.1 2 4.15 7.85 14.5 1.7 3.75 5.5 14.4 0.6 1.75 8.15 8 6.35 5.45 5.2 9.55-4.2 3.2-10.75 4.95l-7.55-8.4 1.05 9.85-2.2 0.15-11.35 1.75h-0.4l-5.4-20.2-5.05 0.45h-3.8q-3.85-21.8 3.2-43.6 7.95-6.65 8.85-14.35m-8.15 53.3-0.1 4.65 0.1-4.65m11.95-26.7-1.9-4.2 1.9 4.2 2.1-0.25-2.1 0.25 0.85 3.95 2.7-0.55-2.7 0.55-0.85-3.95-4.1 0.55 0.9 3.5 4.05-0.1-4.05 0.1-0.9-3.5 4.1-0.55m-11.3 1.9q3.8-1.7 7.2-1.35l-1.6-5.15 1.6 5.15q-3.4-0.35-7.2 1.35m13.5 6.15-1.35-4.1 1.35 4.1m-1.95 16.9 1.35 4.5-8.6 1.45 8.6-1.45-1.35-4.5m-9.9-18.85q3.7-2.1 6.45-2.05l2.65 7.7-2.65-7.7q-2.75-0.05-6.45 2.05m12.25 27.15-1-3.8q6.75-1.45 14.65-4.2-7.9 2.75-14.65 4.2l1 3.8" fill="#f2d117" fill-rule="evenodd"/>
<path d="m278.95 239.35q-7.65 1.15-11.5 2.45-13.15 4.45-21.35-0.85-3.8-2.55-6.55-7.1 7.85-8.65 10.75-18.6 0.3-6.55 4.95-19.9 4.95-14.55 5.8-23.55 1.35-3.9 3-6.45l-2.35-0.95 2.35-0.65-3-2.3 4.4 0.05 0.45-2.5 1.6 0.8 2.55-2.7 0.45 3.05q-1.75 0-2.65 0.65l-1.85 1.3q-0.9 0.65-1.8 3.3l1.05 0.4 0.9-1.8 0.05-0.15 3.75-0.1-0.4-1.6 2.05 0.25v-0.05l0.45-1.25 0.05-0.05-1.45-0.95 2.15-1.1-0.4 1.2q2.05 0.15 4.35 1.45-0.9 7.7-8.85 14.35-7.05 21.8-3.2 43.6h3.8l5.05-0.45 5.4 20.2m-8.6-79.05 0.15-0.1v0.05l-0.15 0.05m-17.15 60.45 1.05-3.5q-2.1-0.85-3.95-2 1.85 1.15 3.95 2h0.15q4.5 1.85 10.3 2.35-5.8-0.5-10.3-2.35h-0.15l-1.05 3.5m0 6.85-7.1 13.35 7.1-13.35m15.15-4.4 0.15-3.6-0.15 3.6" fill="#d6a70a" fill-rule="evenodd"/>
<path d="m270.5 160.15v0.05l0.15-0.1 1.45 0.95-0.05 0.05-0.45 1.25v0.05l-2.05-0.25 0.4 1.6-3.75 0.1-0.05 0.15-0.9 1.8-1.05-0.4q0.9-2.65 1.8-3.3l1.85-1.3q0.9-0.65 2.65-0.65m0 0.1v-0.05l-0.15 0.1 0.15-0.05" fill="#8d7007" fill-rule="evenodd"/>
<path d="m276.75 161.65 1.45 0.85q2.3 14.8 5.25 22.1 2 4.15 7.85 14.5 1.7 3.75 5.5 14.4 0.6 1.75 8.15 8 6.35 5.45 5.2 9.55-4.2 3.2-10.75 4.95m-6.5 1.45-2.2 0.15-11.35 1.75m-0.4 0q-7.65 1.15-11.5 2.45-13.15 4.45-21.35-0.85-3.8-2.55-6.55-7.1 7.85-8.65 10.75-18.6 0.3-6.55 4.95-19.9 4.95-14.55 5.8-23.55 1.35-3.9 3-6.45m8.35-5.15q2.05 0.15 4.35 1.45m-6.4-1.35 0.15-0.05" fill="none" stroke="#966a07" stroke-linecap="round" stroke-linejoin="round" stroke-width=".05"/>
<path d="m299.4 236-7.55-8.4m-12.5 11.75h-0.4m-14.25-19.75h3.8l0.1-4.65m-18.3 0.3q1.85 1.15 3.95 2h0.15q4.5 1.85 10.3 2.35m-10.45-2.35-1.05 3.5m15.3-1.15 5.05-0.45 8.6-1.45-1.35-4.5m-34.7 27.75 7.1-13.35m15.3-8-0.15 3.6m28.45-9.7q-7.9 2.75-14.65 4.2l1 3.8" fill="none" stroke="#785825" stroke-linecap="round" stroke-linejoin="round" stroke-width=".05"/>
<path d="m282.65 188-2.1 0.25 0.85 3.95 2.7-0.55m-2.7 0.55 1.35 4.1m-2.2-8.05-4.1 0.55 0.9 3.5 4.05-0.1m-6.55-8.55 1.6 5.15q-3.4-0.35-7.2 1.35m9.4-6.1 1.9 4.2m-0.55 11.75-2.65-7.7q-2.75-0.05-6.45 2.05" fill="none" stroke="#fbeea8" stroke-linecap="round" stroke-linejoin="round"/>
<path d="m290.45 198.5h0.1l-0.1 0.1v-0.1" fill="#fdd" fill-rule="evenodd"/>
<path d="m285.45 210.75-0.15-0.2h0.3l-0.1 0.25-0.05-0.05m4.95-12.25h0.05v0.1l-0.05-0.1m6.45 0.7 0.4-0.15-0.15 0.25-0.25-0.1m1.4 7.55 0.1 0.2-0.1-0.2m0.25 1.45 0.05 0.05-0.1 0.15 0.05-0.2m-3.6-2.4 0.1 0.05-0.25 0.05 0.15-0.1m0.25 3.75-0.05 0.1-0.2-0.1h0.25m-1.6-0.9h-0.25l0.05-0.2 0.2 0.2" fill="#f99" fill-rule="evenodd"/>
<path d="m297.75 209.15-0.7 0.3h-0.1l-0.45 0.15-1.35-0.05h-0.25l-0.4-0.2q-0.75-2.55 2.6-3.4l0.55 0.25 0.6 0.55 0.1 0.2 0.25 0.55-0.1 0.7-0.05 0.2-0.7 0.75" fill="#ff0" fill-rule="evenodd"/>
<path d="m296.7 205.9h0.1l0.3 0.05q-3.35 0.85-2.6 3.4l-0.1-0.05-0.85-0.65-0.2-0.2-0.25-0.75 0.15-0.65 0.05-0.1q0.35-0.55 1-0.85l0.45-0.2 0.25-0.05 0.7-0.1 0.05-0.05 0.95 0.2" fill="#fc0" fill-rule="evenodd"/>
<path d="m285.5 210.8-0.05-0.05 0.05 0.05" fill="#ffead5" fill-rule="evenodd"/>
<path d="m302.15 216.25-0.6 0.3q-1.05 0.3-2.55-0.5l-2.25-2.1 0.2-0.35q0.6-1.5 0.2-2.9-0.2-0.7-0.65-1.1l0.45-0.15h0.1l1.75 4.45q1 2.1 3.35 2.35m-8.1 0.05-1.4-0.1q-1.15-0.45-1.55-1.8t0.1-2.7h0.05q1.85-0.55 2.7-1.65l0.45-0.75 0.7 0.35-3.05 2.75q0 2.95 2 3.9m-8.75-5.75q-0.3-0.9 0.5-1.75 0.85-1.1 2.65-1.6-1.85-0.7-2.95-1.8-0.85-0.85-0.85-1.6v-0.45l0.1-0.1 0.25 0.25q2.25 1.75 5.1 2.7l3.15 0.85-0.15 0.65 0.25 0.75-0.05 0.2h-5.9q-1.05 0.55-1.6 1.45l-0.2 0.45h-0.3m4.7-7.7q-0.85-1.45-0.75-2.65l0.1-0.65q0.25-0.75 1.05-1.05l0.05 0.1q0.95 2.3 2.7 4.85l1.75 2.35-0.15 0.1-0.45 0.2q-0.15-0.6-0.85-1.35l-0.95-0.7q-0.85-0.65-2.15-1.15l-0.35-0.05m5.15-1.7q0.65-1.3 1.7-1.95l0.25 0.1-0.45 1q-1 2.8 0.05 5.6l-0.95-0.2q-0.65-0.45-0.9-1.4-0.3-1.1 0-2.3l0.15-0.5 0.15-0.35m11.55 4.35-0.45 0.8q-0.9 1-2.75 1.55l-0.1 0.05q-1.95-0.75-3.6-0.65l-1.2 0.25-0.25-0.55-0.1-0.2q1.65-0.8 3.6-0.7 2.4 0.55 4.85-0.55m0.25 4.7q0.65 0.85 0.3 1.5-0.3 0.85-1.95 1.05l-3.35-0.5-0.3-0.15q-1.95-0.65-3.1-1.85-0.65-0.55-0.8-1.1l0.7-0.75 0.1-0.15q4.3 4.9 8.4 1.95m-18.5-3 0.45 0.15 3.35 0.5 0.85-0.15-0.85 0.15-3.35-0.5-0.45-0.15" fill="#cdbddb" fill-rule="evenodd"/>
<path d="m301.95 212.25q0.85 1.45 0.75 2.7-0.05 0.8-0.55 1.3-2.35-0.25-3.35-2.35l-1.75-4.45 0.7-0.3q0.15 0.55 0.8 1.1 1.15 1.2 3.1 1.85l0.3 0.15m-5.2 1.7q-0.5 1.2-1.65 1.9l-1.05 0.45q-2-0.95-2-3.9l3.05-2.75 0.05-0.1 1.35 0.05q0.45 0.4 0.65 1.1 0.4 1.4-0.2 2.9l-0.2 0.35m-5.55-2.25-3.5 0.3q-1.6-0.3-2.2-1.2l0.1-0.25 0.2-0.45q0.55-0.9 1.6-1.45h6.15l0.85 0.65-0.45 0.75q-0.85 1.1-2.7 1.65h-0.05m-6.45-8.45q0.35-0.65 1.45-0.8l0.45-0.1q1.55-0.1 3.35 0.5l0.35 0.05q1.3 0.5 2.15 1.15l0.95 0.7q0.7 0.75 0.85 1.35-0.65 0.3-1 0.85l-0.05 0.1-3.15-0.85q-2.85-0.95-5.1-2.7l-0.25-0.25m5.8-4.75q1.05-0.25 2.4 0.55 1.3 0.8 2.2 2.1l-0.15 0.35-0.15 0.5q-0.3 1.2 0 2.3 0.25 0.95 0.9 1.4l-0.05 0.05-0.7 0.1-0.1-0.05-1.75-2.35q-1.75-2.55-2.7-4.85l0.1-0.1m6.7 0.55q0.6-0.35 1.15-0.35l0.9 0.15q1.15 0.45 1.55 1.8 0.4 1.3-0.1 2.75l3.45-0.3q1.75 0.3 2.25 1.25 0.4 0.55 0.25 1.15-2.45 1.1-4.85 0.55-1.95-0.1-3.6 0.7l-0.6-0.55 1.2-0.4q1.2-0.75 1.85-2.25l0.05-0.15-0.05 0.15q-0.65 1.5-1.85 2.25l-1.2 0.4-0.55-0.25-0.3-0.05h-0.1q-1.05-2.8-0.05-5.6l0.45-1 0.15-0.25m6.25 8.8q1.9 0.75 3 1.9l0.45 0.45q-4.1 2.95-8.4-1.95l-0.05-0.05 0.1-0.7 1.2-0.25q1.65-0.1 3.6 0.65l0.1-0.05" fill="#d7d0ea" fill-rule="evenodd"/>
<path d="m301.95 212.25q0.85 1.45 0.75 2.7-0.05 0.8-0.55 1.3l-0.6 0.3q-1.05 0.3-2.55-0.5l-2.25-2.1q-0.5 1.2-1.65 1.9l-1.05 0.45-1.4-0.1q-1.15-0.45-1.55-1.8t0.1-2.7l-3.5 0.3q-1.6-0.3-2.2-1.2l-0.05-0.05-0.15-0.2q-0.3-0.9 0.5-1.75 0.85-1.1 2.65-1.6-1.85-0.7-2.95-1.8-0.85-0.85-0.85-1.6v-0.45l0.1-0.1q0.35-0.65 1.45-0.8l0.45-0.1q1.55-0.1 3.35 0.5-0.85-1.45-0.75-2.65l0.1-0.65q0.25-0.75 1.05-1.05h0.15q1.05-0.25 2.4 0.55 1.3 0.8 2.2 2.1 0.65-1.3 1.7-1.95l0.4-0.15q0.6-0.35 1.15-0.35l0.9 0.15q1.15 0.45 1.55 1.8 0.4 1.3-0.1 2.75l3.45-0.3q1.75 0.3 2.25 1.25 0.4 0.55 0.25 1.15l-0.45 0.8q-0.9 1-2.75 1.55 1.9 0.75 3 1.9l0.45 0.45q0.65 0.85 0.3 1.5-0.3 0.85-1.95 1.05l-3.35-0.5-0.3-0.15q-1.95-0.65-3.1-1.85-0.65-0.55-0.8-1.1l-0.7 0.3h-0.1l-0.45 0.15-1.35-0.05h-0.25l-0.5-0.25-0.45 0.75q-0.85 1.1-2.7 1.65h-0.05m7.4-4.2 1.2-0.25q1.65-0.1 3.6 0.65l0.1-0.05m-2.75-4.45-0.05 0.15q-0.65 1.5-1.85 2.25l-1.2 0.4 0.6 0.55 0.1 0.2 0.25 0.55-0.1 0.7-0.05 0.2-0.7 0.75m-1.05-3.25h0.1l0.3 0.05 0.55 0.25m-1.9-0.5q-0.65-0.45-0.9-1.4-0.3-1.1 0-2.3l0.15-0.5 0.15-0.35m-0.4 4.75 0.25-0.05 0.7-0.1 0.05-0.05 0.95 0.2m-6.7-3.05 0.35 0.05q1.3 0.5 2.15 1.15l0.95 0.7q0.7 0.75 0.85 1.35l0.45-0.2m-1.65 1.8-0.85 0.15-3.35-0.5-0.45-0.15m8.05 2.4q0.45 0.4 0.65 1.1 0.4 1.4-0.2 2.9l-0.2 0.35m-3.5-6.9 0.05-0.1q0.35-0.55 1-0.85m0.1 3.2-0.85-0.65m-0.2-0.2-0.25-0.75 0.15-0.65m0.1 1.4 0.2 0.2" fill="none" stroke="#000" stroke-linecap="round" stroke-linejoin="round" stroke-opacity=".4" stroke-width=".05"/>
<path d="m289.7 210.15q2.35-0.9 4.35-0.8l0.9 0.1q-0.75 6.05-9.3 5l-0.55-0.65 0.8-1.2q1.25-1.45 3.65-2.4l0.15-0.05m2.9 5.2q2.05 0.65 3.15 1.8 0.8 0.85 0.8 1.65-2.3 1.75-5.2 0.55l-5.75-2.55 0.3-0.85 1.85 0.4q2.05 0.1 4.45-0.85l0.4-0.15m-2.9 5.7q0.7 1.6 0.35 3.15l-0.45 1.2q-2.6 0.8-5.5-1.95v-5.05l1.15-1.05q0.8 0.05 1.7 0.55 1.6 0.9 2.55 2.75l0.2 0.4m-6.95 2.5q-1.05 1.95-2.75 3.05-1.7 1.15-3.1 0.8v-0.05l-0.4-0.9q-0.4-1.2 0-2.55v-0.1l5.3-4.85 1.4-0.15 0.35 1.05q0.25 1.65-0.8 3.65v0.05m-13.75-2.4q-0.3-0.85 0.45-1.9l0.4-0.45q1.15-1.35 3.3-2.25l0.4-0.2q1.55-0.6 2.95-0.8l1.5-0.05q1.3 0.05 2 0.5-0.25 0.8 0 1.6l0.05 0.1-3.55 1.85q-3.4 1.4-7.05 1.6h-0.45m0.35-8.9 0.1-0.1q0.65-1.05 2.6-1.45l3.95 0.1 0.5 1q0.9 1.4 2.25 2.2 1.15 0.6 2.15 0.5v0.05l-0.5 0.65-3.9-0.65q-3.95-0.85-7.05-2.25l-0.1-0.05m6.4-5.05q0.25-0.75 0.75-1.25 0.35-0.35 0.9-0.55 1.4-0.6 3.05 0.35 1.6 0.85 2.55 2.6 1-1.95 2.75-3.1 1.7-1.15 3.1-0.75 0.85 0.2 1.3 0.95-1 3-3.65 4.35-1.8 1.5-2.4 3.6h-1.05l0.55-1.35q0.35-1.75-0.55-3.6l-0.05-0.1 0.05 0.1q0.9 1.85 0.55 3.6l-0.55 1.35q-0.4 0.05-0.8 0.25l-0.2 0.1-0.2 0.05q-3.55-1.6-5.35-4.95l-0.75-1.65" fill="#fdd" fill-rule="evenodd"/>
<path d="m294.95 209.45q1.3 0.25 1.7 1.1 0.55 1.1-0.75 2.55-1.2 1.35-3.3 2.25l-0.4 0.15q-2.4 0.95-4.45 0.85l-1.85-0.4-0.1-1.2-0.15-0.3q8.55 1.05 9.3-5m1.6 9.35-0.2 0.8q-0.6 1.15-2.7 1.55l-3.95-0.1-0.2-0.4q-0.95-1.85-2.55-2.75-0.9-0.5-1.7-0.55l0.3-0.5 0.05-0.05 5.75 2.55q2.9 1.2 5.2-0.55m-6.95 6.6q-0.45 0.7-1.3 1.05-1.4 0.6-3.05-0.3-1.6-0.85-2.5-2.6v-0.05q1.05-2 0.8-3.65l-0.35-1.05h0.15l0.45-0.2 0.3-0.2v5.05q2.9 2.75 5.5 1.95m-12.75 2-0.35-0.15q-1.05-0.45-1.25-1.9-0.3-1.65 0.75-3.65-2.3 0.9-4.3 0.8-1.55-0.05-2.25-0.7l-0.35-0.5-0.1-0.15h0.45q3.65-0.2 7.05-1.6l3.55-1.85 0.45 0.65-0.6 0.9q-1.25 1.35-3.4 2.3l-0.3 0.1-0.2 0.05 0.2-0.05 0.3-0.1q2.15-0.95 3.4-2.3l0.6-0.9q0.4 0.35 0.95 0.55l0.35 0.05-5.3 4.85v0.1q-0.4 1.35 0 2.55l0.4 0.9-0.05 0.05m-3.7-10.85q-2.05-0.65-3.2-1.8l-0.5-0.7q-0.55-0.9-0.1-1.8l0.1 0.05q3.1 1.4 7.05 2.25l3.9 0.65-0.15 0.25-0.25 0.55q-0.7-0.45-2-0.5l-1.5 0.05q-1.4 0.2-2.95 0.8l-0.4 0.2m2.85-5.75q-0.7-1.6-0.4-3.15l0.15-0.45 0.75 1.65q1.8 3.35 5.35 4.95-0.55 0.3-0.95 0.7-1 0.1-2.15-0.5-1.35-0.8-2.25-2.2l-0.5-1m14.15-5.35 0.35 1.1q0.25 1.65-0.8 3.6l-0.15 0.05q-2.4 0.95-3.65 2.4l-0.8 1.2q-0.35-0.25-0.75-0.35l-0.25-0.05q0.6-2.1 2.4-3.6 2.65-1.35 3.65-4.35" fill="#f99" fill-rule="evenodd"/>
<path d="m285.1 213.8 0.55 0.65 0.15 0.3 0.1 1.2-0.3 0.85-0.05 0.05-0.3 0.5-1.15 1.05-0.3 0.2-0.45 0.2q-3.2-1.7-1.1-5.15 0.4-0.2 0.8-0.25h1.05l0.25 0.05q0.4 0.1 0.75 0.35" fill="#ff0" fill-rule="evenodd"/>
<path d="m280.4 215.2 0.5-0.65v-0.05q0.4-0.4 0.95-0.7l0.2-0.05 0.2-0.1q-2.1 3.45 1.1 5.15h-0.15l-1.4 0.15-0.35-0.05q-0.55-0.2-0.95-0.55l-0.45-0.65-0.05-0.1q-0.25-0.8 0-1.6l0.25-0.55 0.15-0.25" fill="#fc0" fill-rule="evenodd"/>
<path d="m276.9 227.4h-0.05l0.05-0.05v0.05" fill="#ffead5" fill-rule="evenodd"/>
<path d="m289.7 210.15q2.35-0.9 4.35-0.8l0.9 0.1q1.3 0.25 1.7 1.1 0.55 1.1-0.75 2.55-1.2 1.35-3.3 2.25 2.05 0.65 3.15 1.8 0.8 0.85 0.8 1.65l-0.2 0.8q-0.6 1.15-2.7 1.55l-3.95-0.1q0.7 1.6 0.35 3.15l-0.45 1.2q-0.45 0.7-1.3 1.05-1.4 0.6-3.05-0.3-1.6-0.85-2.5-2.6-1.05 1.95-2.75 3.05-1.7 1.15-3.1 0.8h-0.05l-0.35-0.15q-1.05-0.45-1.25-1.9-0.3-1.65 0.75-3.65-2.3 0.9-4.3 0.8-1.55-0.05-2.25-0.7l-0.35-0.5-0.1-0.15q-0.3-0.85 0.45-1.9l0.4-0.45q1.15-1.35 3.3-2.25-2.05-0.65-3.2-1.8l-0.5-0.7q-0.55-0.9-0.1-1.8l0.1-0.1q0.65-1.05 2.6-1.45l3.95 0.1q-0.7-1.6-0.4-3.15l0.15-0.45q0.25-0.75 0.75-1.25 0.35-0.35 0.9-0.55 1.4-0.6 3.05 0.35 1.6 0.85 2.55 2.6 1-1.95 2.75-3.1 1.7-1.15 3.1-0.75 0.85 0.2 1.3 0.95l0.35 1.1q0.25 1.65-0.8 3.6l-0.15 0.05q-2.4 0.95-3.65 2.4l-0.8 1.2 0.55 0.65 0.15 0.3 0.1 1.2-0.3 0.85m7-1.45-0.4 0.15q-2.4 0.95-4.45 0.85l-1.85-0.4m-5.5-0.75 0.5-0.65v-0.05q-1 0.1-2.15-0.5-1.35-0.8-2.25-2.2l-0.5-1m-2.85 5.75 0.4-0.2q1.55-0.6 2.95-0.8l1.5-0.05q1.3 0.05 2 0.5l0.25-0.55 0.15-0.25m3.7-1.8 0.25 0.05q0.4 0.1 0.75 0.35m-2.1-5.45 0.05 0.1q0.9 1.85 0.55 3.6l-0.55 1.35h1.05m-1.85 0.25q0.4-0.2 0.8-0.25m-1.2 0.4 0.2-0.05 0.2-0.1m1.1 5.15 0.45-0.2 0.3-0.2 1.15-1.05 0.3-0.5 0.05-0.05m-4.7-2.3q0.4-0.4 0.95-0.7m-0.95 0.75v-0.05m-0.4 3.85-0.6 0.9q-1.25 1.35-3.4 2.3l-0.3 0.1-0.2 0.05m4.5-3.35-0.45-0.65-0.05-0.1q-0.25-0.8 0-1.6m3.2 2.8-1.4 0.15-0.35-0.05q-0.55-0.2-0.95-0.55m2.85 0.45h-0.15l0.35 1.05q0.25 1.65-0.8 3.65v0.05m2.5-6.2q0.8 0.05 1.7 0.55 1.6 0.9 2.55 2.75l0.2 0.4" fill="none" stroke="#000" stroke-linecap="round" stroke-linejoin="round" stroke-opacity=".4" stroke-width=".05"/>
<path d="m245.25 202.85h0.1l-0.1 0.1v-0.1" fill="#fdd" fill-rule="evenodd"/>
<path d="m241.25 212.75-0.15-0.2 0.25 0.05-0.1 0.15m3.95-9.85 0.05-0.05v0.1l-0.05-0.05m5.25 0.5 0.25-0.1-0.1 0.2-0.15-0.1m1.15 6.15 0.05 0.1-0.05-0.1m0.15 1.15 0.05 0.05-0.1 0.15 0.05-0.2m-3-1.85 0.1-0.1 0.1 0.05-0.2 0.05m-1.15 2.05 0.15 0.15-0.2 0.05 0.05-0.2m1.45 0.9-0.05 0.1-0.2-0.15 0.25 0.05" fill="#f99" fill-rule="evenodd"/>
<path d="m251.15 211.45-0.55 0.2-0.1 0.05-0.4 0.1h-1.05l-0.25-0.05-0.3-0.1q-0.6-2.1 2.1-2.75 0.3 0.05 0.45 0.25l0.55 0.4 0.05 0.1 0.15 0.45-0.05 0.6-0.05 0.2-0.55 0.55" fill="#ff0" fill-rule="evenodd"/>
<path d="m250.3 208.8h0.1l0.2 0.1q-2.7 0.65-2.1 2.75l-0.05-0.05-0.7-0.55-0.15-0.15-0.2-0.65 0.1-0.5 0.05-0.05 0.8-0.7 0.4-0.15 0.2-0.05 0.55-0.1h0.05l0.75 0.1" fill="#fc0" fill-rule="evenodd"/>
<path d="m254.7 217.15-0.45 0.25q-0.9 0.3-2.1-0.35-1.05-0.7-1.8-1.75l0.15-0.3q0.45-1.2 0.1-2.3-0.15-0.6-0.5-0.9l0.4-0.1 0.1-0.05 1.4 3.6q0.8 1.75 2.7 1.9m-6.55 0.05-1.1-0.05q-0.95-0.35-1.25-1.45-0.35-1.1 0.05-2.25h0.05q1.5-0.4 2.2-1.3l0.35-0.55 0.05 0.05 0.3 0.1 0.2 0.15-2.45 2.15q0.05 2.45 1.6 3.15m-7.05-4.65q-0.2-0.7 0.35-1.4 0.75-0.85 2.2-1.25-1.5-0.6-2.4-1.45-0.7-0.7-0.7-1.3v-0.35l0.1-0.1 0.2 0.15q1.85 1.4 4.1 2.25l2.55 0.65-0.1 0.5 0.2 0.65-0.05 0.2-4.75-0.1h-0.05q-0.85 0.45-1.2 1.2l-0.2 0.4-0.25-0.05m3.8-6.15q-0.7-1.15-0.65-2.15l0.15-0.55q0.2-0.6 0.8-0.8l0.05 0.05q0.8 1.9 2.2 3.9l1.4 1.9-0.1 0.1-0.4 0.15-0.7-1.05-0.7-0.6q-0.75-0.55-1.75-0.95h-0.3m4.2-1.4q0.45-1.05 1.35-1.6l0.15 0.1-0.35 0.85q-0.8 2.25 0.05 4.45l-0.75-0.1q-0.55-0.4-0.8-1.15-0.25-0.9 0.05-1.9l0.1-0.35 0.2-0.3m9.25 3.5-0.4 0.65q-0.7 0.85-2.15 1.3l-0.1-0.05q-1.6-0.6-2.95-0.45l-0.95 0.15-0.15-0.45-0.05-0.1q1.3-0.7 2.85-0.6 1.95 0.45 3.9-0.45m0.25 3.8q0.5 0.7 0.2 1.25-0.25 0.65-1.6 0.8l-2.65-0.4-0.25-0.1q-1.6-0.55-2.5-1.5l-0.65-0.9 0.55-0.55 0.1-0.15q3.45 3.9 6.8 1.55m-14.95-2.4h0.1l0.25 0.1 2.65 0.4 0.75-0.15-0.75 0.15-2.65-0.4-0.25-0.1h-0.1" fill="#cdbddb" fill-rule="evenodd"/>
<path d="m254.55 213.95q0.65 1.15 0.6 2.15 0 0.7-0.45 1.05-1.9-0.15-2.7-1.9l-1.4-3.6 0.55-0.2 0.65 0.9q0.9 0.95 2.5 1.5l0.25 0.1m-4.2 1.35-1.35 1.55-0.85 0.35q-1.55-0.7-1.6-3.15l2.45-2.15 0.05-0.1h1.05q0.35 0.3 0.5 0.9 0.35 1.1-0.1 2.3l-0.15 0.3m-4.5-1.85-2.8 0.3q-1.35-0.25-1.8-1l0.1-0.15 0.2-0.4q0.35-0.75 1.2-1.2h0.05l4.75 0.1 0.2-0.05 0.7 0.55-0.35 0.55q-0.7 0.9-2.2 1.3h-0.05m-5.2-6.75q0.3-0.5 1.15-0.65l0.4-0.05 2.7 0.4h0.3q1 0.4 1.75 0.95l0.7 0.6 0.7 1.05-0.8 0.7-0.05 0.05-2.55-0.65q-2.25-0.85-4.1-2.25l-0.2-0.15m4.7-3.85q0.8-0.2 1.95 0.5 1 0.6 1.8 1.65l-0.2 0.3-0.1 0.35q-0.3 1-0.05 1.9 0.25 0.75 0.8 1.15h-0.05l-0.55 0.1-0.1-0.05-1.4-1.9q-1.4-2-2.2-3.9l0.1-0.1m5.35 0.45 1-0.25 0.7 0.15q0.95 0.35 1.3 1.35 0.35 1.1-0.15 2.3l2.8-0.25q1.4 0.2 1.85 0.95 0.25 0.45 0.15 0.95-1.95 0.9-3.9 0.45-1.55-0.1-2.85 0.6l-0.55-0.4 0.95-0.45q1.05-0.6 1.5-1.8l0.05-0.05-0.05 0.05q-0.45 1.2-1.5 1.8l-0.95 0.45q-0.15-0.2-0.45-0.25l-0.2-0.1h-0.1q-0.85-2.2-0.05-4.45l0.35-0.85 0.1-0.2m5.1 7.15q1.5 0.55 2.4 1.45l0.4 0.4q-3.35 2.35-6.8-1.55l-0.05-0.05 0.05-0.6 0.95-0.15q1.35-0.15 2.95 0.45l0.1 0.05" fill="#d7d0ea" fill-rule="evenodd"/>
<path d="m254.55 213.95q0.65 1.15 0.6 2.15 0 0.7-0.45 1.05l-0.45 0.25q-0.9 0.3-2.1-0.35-1.05-0.7-1.8-1.75l-1.35 1.55-0.85 0.35-1.1-0.05q-0.95-0.35-1.25-1.45-0.35-1.1 0.05-2.25l-2.8 0.3q-1.35-0.25-1.8-1l-0.15-0.2q-0.2-0.7 0.35-1.4 0.75-0.85 2.2-1.25-1.5-0.6-2.4-1.45-0.7-0.7-0.7-1.3v-0.35l0.1-0.1q0.3-0.5 1.15-0.65l0.4-0.05 2.7 0.4q-0.7-1.15-0.65-2.15l0.15-0.55q0.2-0.6 0.8-0.8l0.05-0.05h0.1q0.8-0.2 1.95 0.5 1 0.6 1.8 1.65 0.45-1.05 1.35-1.6l0.25-0.1 1-0.25 0.7 0.15q0.95 0.35 1.3 1.35 0.35 1.1-0.15 2.3l2.8-0.25q1.4 0.2 1.85 0.95 0.25 0.45 0.15 0.95l-0.4 0.65q-0.7 0.85-2.15 1.3 1.5 0.55 2.4 1.45l0.4 0.4q0.5 0.7 0.2 1.25-0.25 0.65-1.6 0.8l-2.65-0.4-0.25-0.1q-1.6-0.55-2.5-1.5l-0.65-0.9-0.55 0.2-0.1 0.05-0.4 0.1h-1.05l-0.25-0.05-0.3-0.1m3.3-1.55 0.95-0.15q1.35-0.15 2.95 0.45l0.1 0.05m-2.25-3.6-0.05 0.05q-0.45 1.2-1.5 1.8l-0.95 0.45 0.55 0.4 0.05 0.1 0.15 0.45-0.05 0.6-0.05 0.2-0.55 0.55m-0.85-2.65h0.1l0.2 0.1q0.3 0.05 0.45 0.25m-1.5-0.45q-0.55-0.4-0.8-1.15-0.25-0.9 0.05-1.9l0.1-0.35 0.2-0.3m-0.75 4 0.4-0.15 0.2-0.05 0.55-0.1h0.05l0.75 0.1m-5.4-2.4h0.3q1 0.4 1.75 0.95l0.7 0.6 0.7 1.05-0.8 0.7-0.05 0.05-0.1 0.5 0.2 0.65 0.15 0.15 0.7 0.55 0.05 0.05m-1.1-1.4-0.75 0.15-2.65-0.4-0.25-0.1h-0.1m6.45 1.9q0.35 0.3 0.5 0.9 0.35 1.1-0.1 2.3l-0.15 0.3m-1.9-3.7-0.35 0.55q-0.7 0.9-2.2 1.3h-0.05" fill="none" stroke="#000" stroke-linecap="round" stroke-linejoin="round" stroke-opacity=".4" stroke-width=".05"/>
<path d="m251.4 220.15q1.7-0.65 3.2-0.6l0.65 0.1q-0.55 4.45-6.8 3.7l-0.45-0.5q0.15-0.4 0.6-0.85 0.9-1.1 2.7-1.8l0.1-0.05m2.15 3.85q1.5 0.45 2.3 1.35 0.6 0.6 0.6 1.2-1.7 1.3-3.8 0.4l-4.25-1.9 0.2-0.6 1.35 0.3q1.55 0.1 3.3-0.65l0.3-0.1m-2.15 4.2q0.5 1.2 0.3 2.3l-0.35 0.9q-1.95 0.6-4.05-1.4v-3.75l0.85-0.75 1.2 0.35q1.2 0.65 1.9 2.05l0.15 0.3m-5.15 1.85q-0.75 1.4-2 2.25-1.25 0.8-2.25 0.6l-0.05-0.05-0.3-0.65q-0.25-0.9 0-1.9l0.05-0.05 3.9-3.6 1-0.1 0.25 0.75q0.2 1.25-0.55 2.7l-0.05 0.05m-10.1-1.75q-0.2-0.65 0.35-1.45l0.25-0.35q0.9-0.95 2.45-1.65l0.3-0.1q1.15-0.45 2.15-0.6l1.15-0.05q0.95 0.05 1.45 0.4-0.2 0.6 0 1.15l0.05 0.1-2.65 1.35q-2.5 1-5.15 1.15l-0.35 0.05m0.25-6.55 0.1-0.1q0.45-0.8 1.9-1.05l2.9 0.05 0.35 0.7q0.65 1.1 1.7 1.65 0.8 0.45 1.55 0.4l-0.35 0.5-2.9-0.5q-2.9-0.6-5.15-1.65h-0.1m4.7-3.75q0.2-0.55 0.55-0.9 0.3-0.3 0.7-0.45 1-0.4 2.25 0.25 1.2 0.65 1.85 1.95 0.75-1.45 2.05-2.3 1.25-0.8 2.25-0.55 0.65 0.15 0.95 0.7-0.7 2.2-2.65 3.25-1.35 1.05-1.8 2.6h-0.75l0.4-1q0.25-1.25-0.4-2.6l-0.05-0.1 0.05 0.1q0.65 1.35 0.4 2.6l-0.4 1-0.75 0.25-0.1 0.05q-2.65-1.2-4-3.65l-0.55-1.2" fill="#fdd" fill-rule="evenodd"/>
<path d="m255.25 219.65q0.95 0.2 1.3 0.8 0.35 0.8-0.55 1.85t-2.45 1.7l-0.3 0.1q-1.75 0.75-3.3 0.65l-1.35-0.3-0.1-0.9-0.05-0.2q6.25 0.75 6.8-3.7m1.2 6.9-0.15 0.6q-0.45 0.85-2 1.15l-2.9-0.1-0.15-0.3q-0.7-1.4-1.9-2.05l-1.2-0.35 0.2-0.4 0.05-0.05 4.25 1.9q2.1 0.9 3.8-0.4m-5.1 4.85-1 0.8-2.25-0.25q-1.15-0.65-1.85-1.9l0.05-0.05q0.75-1.45 0.55-2.7l-0.25-0.75 0.1-0.05 0.35-0.1 0.25-0.15v3.75q2.1 2 4.05 1.4m-9.4 1.45-0.3-0.1q-0.75-0.35-0.9-1.35-0.2-1.25 0.55-2.7-1.7 0.65-3.15 0.6-1.15-0.1-1.65-0.55l-0.25-0.35-0.1-0.1 0.35-0.05q2.65-0.15 5.15-1.15l2.65-1.35 0.35 0.45-0.5 0.65q-0.85 1-2.5 1.7l-0.2 0.1-0.15 0.05 0.15-0.05 0.2-0.1q1.65-0.7 2.5-1.7l0.5-0.65q0.25 0.3 0.7 0.4l0.25 0.05-3.9 3.6-0.05 0.05q-0.25 1 0 1.9l0.3 0.65m-2.75-8q-1.5-0.45-2.35-1.3l-0.35-0.5q-0.4-0.7-0.1-1.3h0.1q2.25 1.05 5.15 1.65l2.9 0.5-0.1 0.15-0.2 0.45q-0.5-0.35-1.45-0.4l-1.15 0.05q-1 0.15-2.15 0.6l-0.3 0.1m2.1-4.2q-0.5-1.2-0.3-2.3l0.1-0.35 0.55 1.2q1.35 2.45 4 3.65l-0.7 0.55h-0.05q-0.75 0.05-1.55-0.4-1.05-0.55-1.7-1.65l-0.35-0.7m10.4-3.95 0.3 0.8q0.15 1.2-0.6 2.65l-0.1 0.05q-1.8 0.7-2.7 1.8-0.45 0.45-0.6 0.85l-0.55-0.25-0.2-0.05q0.45-1.55 1.8-2.6 1.95-1.05 2.65-3.25" fill="#f99" fill-rule="evenodd"/>
<path d="m248 222.85 0.45 0.5 0.05 0.2 0.1 0.9-0.2 0.6-0.05 0.05-0.2 0.4-0.85 0.75-0.25 0.15-0.35 0.1q-2.35-1.2-0.8-3.75l0.6-0.2h0.75l0.2 0.05 0.55 0.25" fill="#ff0" fill-rule="evenodd"/>
<path d="m244.55 223.9 0.35-0.5h0.05l0.7-0.55 0.1-0.05 0.15-0.05q-1.55 2.55 0.8 3.75l-0.1 0.05-1 0.1-0.25-0.05q-0.45-0.1-0.7-0.4l-0.35-0.45-0.05-0.1q-0.2-0.55 0-1.15l0.2-0.45 0.1-0.15" fill="#fc0" fill-rule="evenodd"/>
<path d="m242 232.9-0.05-0.05 0.05 0.05" fill="#ffead5" fill-rule="evenodd"/>
<path d="m251.4 220.15q1.7-0.65 3.2-0.6l0.65 0.1q0.95 0.2 1.3 0.8 0.35 0.8-0.55 1.85t-2.45 1.7q1.5 0.45 2.3 1.35 0.6 0.6 0.6 1.2l-0.15 0.6q-0.45 0.85-2 1.15l-2.9-0.1q0.5 1.2 0.3 2.3l-0.35 0.9-1 0.8-2.25-0.25q-1.15-0.65-1.85-1.9-0.75 1.4-2 2.25-1.25 0.8-2.25 0.6l-0.05-0.05-0.3-0.1q-0.75-0.35-0.9-1.35-0.2-1.25 0.55-2.7-1.7 0.65-3.15 0.6-1.15-0.1-1.65-0.55l-0.25-0.35-0.1-0.1q-0.2-0.65 0.35-1.45l0.25-0.35q0.9-0.95 2.45-1.65-1.5-0.45-2.35-1.3l-0.35-0.5q-0.4-0.7-0.1-1.3l0.1-0.1q0.45-0.8 1.9-1.05l2.9 0.05q-0.5-1.2-0.3-2.3l0.1-0.35q0.2-0.55 0.55-0.9 0.3-0.3 0.7-0.45 1-0.4 2.25 0.25 1.2 0.65 1.85 1.95 0.75-1.45 2.05-2.3 1.25-0.8 2.25-0.55 0.65 0.15 0.95 0.7l0.3 0.8q0.15 1.2-0.6 2.65l-0.1 0.05q-1.8 0.7-2.7 1.8-0.45 0.45-0.6 0.85l0.45 0.5 0.05 0.2 0.1 0.9-0.2 0.6-0.05 0.05-0.2 0.4-0.85 0.75-0.25 0.15-0.35 0.1-0.1 0.05 0.25 0.75q0.2 1.25-0.55 2.7l-0.05 0.05m7.3-6.05-0.3 0.1q-1.75 0.75-3.3 0.65l-1.35-0.3m-4.05-0.55 0.35-0.5q-0.75 0.05-1.55-0.4-1.05-0.55-1.7-1.65l-0.35-0.7m-2.1 4.2 0.3-0.1q1.15-0.45 2.15-0.6l1.15-0.05q0.95 0.05 1.45 0.4l0.2-0.45 0.1-0.15m2.7-1.35 0.2 0.05 0.55 0.25m-1.55-4 0.05 0.1q0.65 1.35 0.4 2.6l-0.4 1h0.75m-2.3 0.85h-0.05 0.05l0.7-0.55 0.1-0.05 0.75-0.25m-1.85 3.65-0.5 0.65q-0.85 1-2.5 1.7l-0.2 0.1-0.15 0.05m3.35-2.5-0.35-0.45-0.05-0.1q-0.2-0.55 0-1.15m2.35 2.05-1 0.1-0.25-0.05q-0.45-0.1-0.7-0.4m3.5-0.7 1.2 0.35q1.2 0.65 1.9 2.05l0.15 0.3" fill="none" stroke="#000" stroke-linecap="round" stroke-linejoin="round" stroke-opacity=".4" stroke-width=".05"/>
<path d="m250.4 211.7-0.1-0.05 0.15-0.1-0.05 0.15" fill="#fdd" fill-rule="evenodd"/>
<path d="m250.4 211.7-0.1-0.05 0.1 0.05m3.75 6.4 0.15-0.05h0.05l-0.2 0.05m1.85-5.9 0.35-0.1-0.15 0.15-0.2-0.05m-9.95 10.15-0.2-0.25 0.25 0.1-0.05 0.15m7-1.85h-0.15l0.05-0.15 0.1 0.15m1.35 0.85-0.2-0.15 0.3 0.1-0.1 0.05m2.85-2.5 0.05 0.15-0.05-0.15m0.25 1.3-0.15 0.1 0.05-0.2 0.1 0.1" fill="#f99" fill-rule="evenodd"/>
<path d="m254.5 221.3-0.6-0.2q-0.7-2.25 2.25-3l0.5 0.25 0.6 0.5 0.05 0.15 0.2 0.5-0.1 0.55-0.05 0.2-0.65 0.65q-0.25 0.15-0.55 0.25h-0.05l-0.4 0.15h-1.2" fill="#ff0" fill-rule="evenodd"/>
<path d="m253.7 218.3 0.45-0.2 0.2-0.05 0.65-0.1 0.8 0.1 0.15 0.05h0.2q-2.95 0.75-2.25 3h-0.05l-0.8-0.6-0.1-0.15-0.25-0.7 0.1-0.55 0.1-0.1q0.25-0.45 0.8-0.7" fill="#fc0" fill-rule="evenodd"/>
<path d="m245.85 222.1-0.05-0.45 0.5 0.1-0.2 0.45-0.25-0.1m-0.5-6.3h0.05l0.2 0.2-0.25-0.2m3.65 3.5-0.3-0.05-0.1-0.05 0.4 0.1m5.2 1.9 0.2 0.15-0.05 0.05-0.15-0.2m3.05-2.35 0.05-0.05v0.2l-0.05-0.15" fill="#cdbddb" fill-rule="evenodd"/>
<path d="m245.4 215.8v-0.1l0.2 0.3-0.2-0.2m11.85 3.05 0.05-0.05-0.05 0.05" fill="#d7d0ea" fill-rule="evenodd"/>
<path d="m250.3 211.65 0.1 0.05q0.8 2.05 2.35 4.2l1.55 2.15-0.15 0.05-0.45 0.2q-0.1-0.6-0.75-1.15l-0.75-0.7-1.95-1-0.3-0.05q-0.7-1.25-0.65-2.3 0-0.3 0.15-0.55 0.15-0.75 0.85-0.9m4.2 2.3q0.5-1.15 1.5-1.75l0.2 0.05-0.4 0.9q-0.85 2.5 0 4.9l-0.8-0.1q-0.6-0.45-0.8-1.25-0.3-1 0-2.05 0-0.25 0.15-0.45l0.15-0.25m10.1 3.8-0.45 0.65q-0.8 0.9-2.3 1.4h-0.15q-1.8-0.7-3.2-0.55l-1 0.25-0.2-0.5v-0.2q1.35-0.7 3.05-0.6 2.05 0.55 4.25-0.45m0.25 4.1q0.5 0.7 0.25 1.3-0.35 0.75-1.75 0.9l-2.85-0.4-0.35-0.1q-1.7-0.65-2.65-1.6l-0.8-1.05 0.65-0.65 0.15-0.1q3.75 4.25 7.35 1.7m-4.25 5.25-0.5 0.35q-0.95 0.25-2.25-0.45-1.15-0.7-1.95-1.9l0.2-0.3q0.5-1.35 0.1-2.5l-0.5-1 0.4-0.15h0.05l1.55 3.9q0.8 1.85 2.9 2.05m-7.1 0.05-1.2-0.05q-1-0.4-1.4-1.6-0.3-1.15 0.15-2.35h0.05q1.6-0.5 2.35-1.4l0.4-0.65h0.05l0.3 0.1 0.15 0.2-2.55 2.3q-0.05 2.65 1.7 3.45m-7.7-5.5q0-0.5 0.5-1.05 0.7-0.9 2.3-1.4-1.6-0.6-2.55-1.55-0.8-0.75-0.8-1.35l0.1-0.45v-0.05l0.25 0.2q1.9 1.5 4.4 2.35l2.8 0.75-0.1 0.55-0.8 0.1q-1.3 0.15-2.9-0.45 1.6 0.6 2.9 0.45l0.8-0.1 0.25 0.7-0.05 0.15-5.2-0.05v0.05q-0.95 0.45-1.4 1.25l-0.5-0.1m2.8-2.45 0.1 0.05 0.3 0.05-0.4-0.1" fill="#f60" fill-rule="evenodd"/>
<path d="m249.95 215.4 0.3 0.05 1.95 1 0.75 0.7q0.65 0.55 0.75 1.15-0.55 0.25-0.8 0.7l-0.1 0.1-2.8-0.75q-2.5-0.85-4.4-2.35l-0.2-0.3q0.3-0.5 1.2-0.7l0.45-0.05 2.9 0.45m4.35 2.65-1.55-2.15q-1.55-2.15-2.35-4.2l0.05-0.15q0.9-0.15 2.1 0.55 1.1 0.7 1.95 1.85l-0.15 0.25q-0.15 0.2-0.15 0.45-0.3 1.05 0 2.05 0.2 0.8 0.8 1.25l-0.65 0.1h-0.05m2.05-5.95 1-0.3 0.75 0.1q1 0.35 1.35 1.6 0.4 1.15-0.05 2.4l3-0.25q1.5 0.2 2 1.05 0.3 0.5 0.2 1.05-2.2 1-4.25 0.45-1.7-0.1-3.05 0.6l-0.05 0.05-0.6-0.5q0.5-0.05 1.05-0.4 1.05-0.7 1.65-1.95l0.05-0.1-0.05 0.1q-0.6 1.25-1.65 1.95-0.55 0.35-1.05 0.4l-0.5-0.25h-0.2l-0.15-0.05q-0.85-2.4 0-4.9l0.4-0.9 0.15-0.15m5.5 7.7q1.6 0.65 2.6 1.6l0.4 0.45q-3.6 2.55-7.35-1.7l-0.1-0.1 0.1-0.55 1-0.25q1.4-0.15 3.2 0.55h0.15m-1.35 3.85q0.7 1.2 0.65 2.3l-0.55 1.15q-2.1-0.2-2.9-2.05l-1.55-3.9q0.3-0.1 0.55-0.25l0.8 1.05q0.95 0.95 2.65 1.6l0.35 0.1m-4.6 1.45q-0.55 1.1-1.5 1.7l-0.9 0.35q-1.75-0.8-1.7-3.45l2.55-2.3 0.05-0.05 0.1-0.05h1.2l0.5 1q0.4 1.15-0.1 2.5l-0.2 0.3m-4.85-1.95-3.1 0.25q-1.45-0.25-1.9-1.05l0.05-0.15 0.2-0.45q0.45-0.8 1.4-1.25v-0.05l5.2 0.05h0.15l0.8 0.6-0.4 0.65q-0.75 0.9-2.35 1.4h-0.05" fill="#fea452" fill-rule="evenodd"/>
<path d="m250.3 211.65q-0.7 0.15-0.85 0.9-0.15 0.25-0.15 0.55-0.05 1.05 0.65 2.3l0.3 0.05 1.95 1 0.75 0.7q0.65 0.55 0.75 1.15l0.45-0.2 0.2-0.05 0.65-0.1 0.8 0.1m-5.35-6.5-0.15 0.1m0.15-0.1q0.9-0.15 2.1 0.55 1.1 0.7 1.95 1.85 0.5-1.15 1.5-1.75l0.35-0.1 1-0.3 0.75 0.1q1 0.35 1.35 1.6 0.4 1.15-0.05 2.4l3-0.25q1.5 0.2 2 1.05 0.3 0.5 0.2 1.05l-0.45 0.65q-0.8 0.9-2.3 1.4 1.6 0.65 2.6 1.6l0.4 0.45q0.5 0.7 0.25 1.3-0.35 0.75-1.75 0.9l-2.85-0.4q0.7 1.2 0.65 2.3l-0.55 1.15-0.5 0.35q-0.95 0.25-2.25-0.45-1.15-0.7-1.95-1.9-0.55 1.1-1.5 1.7l-0.9 0.35-1.2-0.05q-1-0.4-1.4-1.6-0.3-1.15 0.15-2.35l-3.1 0.25q-1.45-0.25-1.9-1.05l-0.2-0.25-0.05-0.45q0-0.5 0.5-1.05 0.7-0.9 2.3-1.4-1.6-0.6-2.55-1.55-0.8-0.75-0.8-1.35l0.1-0.45v-0.05h0.05v-0.1q0.3-0.5 1.2-0.7l0.45-0.05 2.9 0.45m5.05 2.55q-0.6-0.45-0.8-1.25-0.3-1 0-2.05 0-0.25 0.15-0.45l0.15-0.25m-1.8 5.7-0.8 0.1q-1.3 0.15-2.9-0.45l-0.3-0.05-0.1-0.05m4.1 0.45 0.1-0.55 0.1-0.1q0.25-0.45 0.8-0.7m-2.65 4.85h0.05q1.6-0.5 2.35-1.4l0.4-0.65-0.8-0.6-0.1-0.15-0.25-0.7m1.2 1.45h-0.05m0.65 0.2-0.6-0.2m2.25-3h-0.2l-0.15-0.05m3.6-2.15-0.05 0.1q-0.6 1.25-1.65 1.95-0.55 0.35-1.05 0.4l0.6 0.5m0.05 0.15 0.2 0.5 1-0.25q1.4-0.15 3.2 0.55h0.15m-4.55-0.8-0.05-0.15m-1.1-0.75 0.5 0.25m0.7 1.9-0.65 0.65 0.8 1.05q0.95 0.95 2.65 1.6l0.35 0.1m-3.1-3.6-0.05 0.2m-1.2 0.9h-0.05l-0.4 0.15 0.5 1q0.4 1.15-0.1 2.5l-0.2 0.3m0.8-4.2q-0.25 0.15-0.55 0.25m1.35-1.65-0.1 0.55m-1.7 1.25h-1.2" fill="none" stroke="#000" stroke-linecap="round" stroke-linejoin="round" stroke-opacity=".4" stroke-width=".05"/>
<path d="m264.5 219.15 0.1-0.05-0.1 0.15v-0.1" fill="#fdd" fill-rule="evenodd"/>
<path d="m259.9 230.5-0.15-0.25 0.3 0.1-0.1 0.2-0.05-0.05m4.55-11.35h0.05v0.1l-0.05-0.1m6 0.65 0.4-0.15-0.15 0.2-0.25-0.05m1.35 7 0.1 0.1-0.1-0.1m0.2 1.3 0.05 0.1-0.1 0.1 0.05-0.2m-3.25-2.1-0.25 0.05 0.15-0.15 0.1 0.1m-1.55 2.35 0.2 0.2h-0.25l0.05-0.2m1.7 1.05-0.1 0.05-0.2-0.1 0.3 0.05" fill="#f99" fill-rule="evenodd"/>
<path d="m271.3 229-0.65 0.2-0.1 0.05-0.4 0.1-1.25 0.05-0.3-0.05-0.35-0.15q-0.75-2.35 2.35-3.15l0.6 0.25 0.6 0.5 0.1 0.1 0.2 0.55-0.1 0.65-0.05 0.2-0.65 0.7" fill="#ff0" fill-rule="evenodd"/>
<path d="m270.35 225.95h0.1l0.15 0.1q-3.1 0.8-2.35 3.15l-0.1-0.05-0.75-0.6-0.2-0.2-0.2-0.7q0-0.35 0.15-0.6v-0.05q0.3-0.55 0.95-0.85l0.4-0.1 0.25-0.05 0.65-0.2 0.95 0.15" fill="#fc0" fill-rule="evenodd"/>
<path d="m259.95 230.55-0.05-0.05 0.05 0.05" fill="#ffead5" fill-rule="evenodd"/>
<path d="m275.35 235.55-0.55 0.25q-1 0.35-2.35-0.4-1.2-0.75-2.1-2l0.2-0.3q0.5-1.4 0.15-2.65l-0.55-1.1 0.4-0.1 0.1-0.05 1.6 4.2q0.85 1.95 3.1 2.15m-7.45 0.05-1.4-0.1q-1-0.4-1.4-1.65-0.35-1.2 0.1-2.55h0.05q1.7-0.5 2.55-1.45l0.35-0.7 0.1 0.05 0.35 0.15 0.2 0.1-2.8 2.5q0.05 2.8 1.9 3.65m-8.15-5.35q-0.25-0.75 0.45-1.6 0.8-0.95 2.5-1.45-1.75-0.7-2.75-1.7-0.8-0.75-0.85-1.45l0.05-0.4 0.1-0.1 0.25 0.2q2.05 1.6 4.65 2.55l3 0.75q-0.15 0.25-0.15 0.6l0.2 0.7-0.05 0.2-5.4-0.05h-0.05q-1 0.5-1.5 1.35l-0.15 0.5-0.3-0.1m4.35-7.1q-0.75-1.35-0.7-2.45l0.1-0.6q0.25-0.7 0.95-0.95l0.05 0.1q0.9 2.15 2.5 4.45l1.65 2.2-0.15 0.15-0.4 0.1q-0.1-0.55-0.8-1.15l-0.85-0.7q-0.85-0.65-2.05-1.05l-0.3-0.1m4.8-1.55q0.55-1.2 1.55-1.8l0.25 0.05-0.4 0.95q-0.95 2.6 0.05 5.15l-0.95-0.15-0.85-1.25q-0.3-1.05 0-2.2l0.15-0.45 0.2-0.3m10.65 4.05-0.45 0.7q-0.8 0.95-2.5 1.5l-0.1-0.05q-1.85-0.7-3.3-0.55l-1.1 0.2-0.2-0.55-0.1-0.1q1.5-0.8 3.3-0.7 2.2 0.55 4.45-0.45m0.3 4.3q0.55 0.8 0.25 1.4-0.3 0.85-1.85 0.95-1.35 0.15-3.05-0.45l-0.3-0.05q-1.8-0.65-2.9-1.75l-0.7-1.05 0.65-0.7 0.1-0.1q3.95 4.45 7.8 1.75m-17.15-2.75 0.1 0.05 0.25 0.05q1.7 0.6 3.1 0.5l0.85-0.15-0.85 0.15q-1.4 0.1-3.1-0.5l-0.25-0.05-0.1-0.05" fill="#cdbddb" fill-rule="evenodd"/>
<path d="m275.2 231.85q0.75 1.35 0.7 2.5-0.05 0.75-0.55 1.2-2.25-0.2-3.1-2.15l-1.6-4.2 0.65-0.2 0.7 1.05q1.1 1.1 2.9 1.75l0.3 0.05m-4.85 1.55q-0.5 1.2-1.55 1.8l-0.9 0.4q-1.85-0.85-1.9-3.65l2.8-2.5 0.1-0.05 1.25-0.05 0.55 1.1q0.35 1.25-0.15 2.65l-0.2 0.3m-5.15-2.1-3.2 0.3q-1.55-0.25-2.05-1.05l0.1-0.2 0.15-0.5q0.5-0.85 1.5-1.35h0.05l5.4 0.05h0.25l0.75 0.6-0.35 0.7q-0.85 0.95-2.55 1.45h-0.05m-5.95-7.75q0.3-0.6 1.3-0.8l0.45-0.05q1.45-0.15 3.1 0.45l0.3 0.1q1.2 0.4 2.05 1.05l0.85 0.7q0.7 0.6 0.8 1.15-0.65 0.3-0.95 0.85v0.05l-3-0.75q-2.6-0.95-4.65-2.55l-0.25-0.2m5.35-4.45q0.95-0.2 2.2 0.55t2.1 1.95l-0.2 0.3-0.15 0.45q-0.3 1.15 0 2.2l0.85 1.25-0.65 0.2-0.1-0.1-1.65-2.2q-1.6-2.3-2.5-4.45l0.1-0.15m6.25 0.55 1.1-0.3 0.75 0.15q1.1 0.35 1.5 1.6 0.35 1.25-0.15 2.6l3.2-0.25q1.65 0.2 2.15 1.1l0.15 1.1q-2.25 1-4.45 0.45-1.8-0.1-3.3 0.7l-0.6-0.5q0.55-0.1 1.1-0.4 1.15-0.75 1.7-2.15l0.05-0.05-0.05 0.05q-0.55 1.4-1.7 2.15-0.55 0.3-1.1 0.4l-0.6-0.25-0.15-0.1h-0.1q-1-2.55-0.05-5.15l0.4-0.95 0.15-0.2m5.75 8.2q1.75 0.65 2.85 1.65l0.4 0.45q-3.85 2.7-7.8-1.75l-0.05-0.1 0.1-0.65 1.1-0.2q1.45-0.15 3.3 0.55l0.1 0.05" fill="#d7d0ea" fill-rule="evenodd"/>
<path d="m275.2 231.85q0.75 1.35 0.7 2.5-0.05 0.75-0.55 1.2l-0.55 0.25q-1 0.35-2.35-0.4-1.2-0.75-2.1-2-0.5 1.2-1.55 1.8l-0.9 0.4-1.4-0.1q-1-0.4-1.4-1.65-0.35-1.2 0.1-2.55l-3.2 0.3q-1.55-0.25-2.05-1.05l-0.05-0.05-0.15-0.25q-0.25-0.75 0.45-1.6 0.8-0.95 2.5-1.45-1.75-0.7-2.75-1.7-0.8-0.75-0.85-1.45l0.05-0.4 0.1-0.1q0.3-0.6 1.3-0.8l0.45-0.05q1.45-0.15 3.1 0.45-0.75-1.35-0.7-2.45l0.1-0.6q0.25-0.7 0.95-0.95h0.05l0.1-0.05q0.95-0.2 2.2 0.55t2.1 1.95q0.55-1.2 1.55-1.8l0.4-0.15 1.1-0.3 0.75 0.15q1.1 0.35 1.5 1.6 0.35 1.25-0.15 2.6l3.2-0.25q1.65 0.2 2.15 1.1l0.15 1.1-0.45 0.7q-0.8 0.95-2.5 1.5 1.75 0.65 2.85 1.65l0.4 0.45q0.55 0.8 0.25 1.4-0.3 0.85-1.85 0.95-1.35 0.15-3.05-0.45l-0.3-0.05q-1.8-0.65-2.9-1.75l-0.7-1.05-0.65 0.2-0.1 0.05-0.4 0.1-1.25 0.05-0.3-0.05-0.35-0.15m3.85-1.75 1.1-0.2q1.45-0.15 3.3 0.55l0.1 0.05m-2.55-4.15-0.05 0.05q-0.55 1.4-1.7 2.15-0.55 0.3-1.1 0.4l0.6 0.5 0.1 0.1 0.2 0.55-0.1 0.65-0.05 0.2-0.65 0.7m-0.95-3.05h0.1l0.15 0.1 0.6 0.25m-1.8-0.5-0.85-1.25q-0.3-1.05 0-2.2l0.15-0.45 0.2-0.3m-0.15 4.4 0.65-0.2 0.95 0.15m-1.85 0.1 0.25-0.05m-0.25 0.05-0.4 0.1q-0.65 0.3-0.95 0.85v0.05q-0.15 0.25-0.15 0.6l0.2 0.7 0.2 0.2 0.75 0.6 0.1 0.05m-4.15-6.05 0.3 0.1q1.2 0.4 2.05 1.05l0.85 0.7q0.7 0.6 0.8 1.15m-1.1 1.5-0.85 0.15q-1.4 0.1-3.1-0.5l-0.25-0.05-0.1-0.05m7.45 2.15 0.55 1.1q0.35 1.25-0.15 2.65l-0.2 0.3m-2.2-4.25-0.35 0.7q-0.85 0.95-2.55 1.45h-0.05" fill="none" stroke="#000" stroke-linecap="round" stroke-linejoin="round" stroke-opacity=".4" stroke-width=".05"/>
<path d="m259.6 198.85q1.7-0.65 3.2-0.6l0.65 0.1q-0.55 4.45-6.8 3.7l-0.45-0.5q0.15-0.4 0.6-0.85 0.9-1.1 2.7-1.8l0.1-0.05m2.15 3.85q1.5 0.45 2.3 1.35 0.6 0.6 0.6 1.2-1.7 1.3-3.8 0.4l-4.25-1.9 0.2-0.6 1.35 0.3q1.55 0.1 3.3-0.65l0.3-0.1m-2.15 4.2q0.5 1.2 0.3 2.3l-0.35 0.9q-1.95 0.6-4.05-1.4v-3.75l0.85-0.75q0.55 0 1.2 0.35 1.2 0.65 1.9 2.05l0.15 0.3m-5.15 1.85q-0.75 1.4-2 2.25-1.25 0.8-2.25 0.6l-0.05-0.05-0.3-0.65q-0.25-0.9 0-1.9l0.05-0.05 3.9-3.6 1-0.1 0.25 0.75q0.2 1.25-0.55 2.7l-0.05 0.05m-10.1-1.75q-0.2-0.65 0.35-1.45l0.25-0.35q0.9-0.95 2.45-1.65l0.3-0.1q1.15-0.45 2.15-0.6l1.15-0.05 1.45 0.4q-0.2 0.6 0 1.15l0.05 0.1-2.65 1.35q-2.5 1-5.15 1.15l-0.35 0.05m0.25-6.55 0.1-0.1q0.45-0.8 1.9-1.05l2.9 0.05 0.35 0.7q0.65 1.1 1.7 1.65l1.55 0.4-0.35 0.5-2.9-0.5q-2.9-0.6-5.15-1.65h-0.1m4.7-3.75 0.55-0.9q0.3-0.3 0.7-0.45 1-0.4 2.25 0.25 1.2 0.65 1.85 1.95 0.75-1.45 2.05-2.3 1.25-0.8 2.25-0.55 0.65 0.15 0.95 0.7-0.7 2.2-2.65 3.25-1.35 1.05-1.8 2.6h-0.75l0.4-1q0.25-1.25-0.4-2.6l-0.05-0.1 0.05 0.1q0.65 1.35 0.4 2.6l-0.4 1-0.75 0.25-0.1 0.05q-2.65-1.2-4-3.65l-0.55-1.2" fill="#fdd" fill-rule="evenodd"/>
<path d="m263.45 198.35q0.95 0.2 1.3 0.8 0.35 0.8-0.55 1.85t-2.45 1.7l-0.3 0.1q-1.75 0.75-3.3 0.65l-1.35-0.3-0.1-0.9-0.05-0.2q6.25 0.75 6.8-3.7m1.2 6.9-0.15 0.6q-0.45 0.85-2 1.15l-2.9-0.1-0.15-0.3q-0.7-1.4-1.9-2.05-0.65-0.35-1.2-0.35l0.2-0.4 0.05-0.05 4.25 1.9q2.1 0.9 3.8-0.4m-5.1 4.85-1 0.8q-1 0.4-2.25-0.25-1.15-0.65-1.85-1.9l0.05-0.05q0.75-1.45 0.55-2.7l-0.25-0.75 0.1-0.05 0.35-0.1 0.25-0.15v3.75q2.1 2 4.05 1.4m-9.4 1.45-0.3-0.1q-0.75-0.35-0.9-1.35-0.2-1.25 0.55-2.7-1.7 0.65-3.15 0.6-1.15-0.1-1.65-0.55l-0.25-0.35-0.1-0.1 0.35-0.05q2.65-0.15 5.15-1.15l2.65-1.35 0.35 0.45-0.5 0.65q-0.85 1-2.5 1.7l-0.2 0.1-0.15 0.05 0.15-0.05 0.2-0.1q1.65-0.7 2.5-1.7l0.5-0.65q0.25 0.3 0.7 0.4l0.25 0.05-3.9 3.6-0.05 0.05q-0.25 1 0 1.9l0.3 0.65m-2.75-8q-1.5-0.45-2.35-1.3l-0.35-0.5q-0.4-0.7-0.1-1.3h0.1q2.25 1.05 5.15 1.65l2.9 0.5-0.1 0.15-0.2 0.45-1.45-0.4-1.15 0.05q-1 0.15-2.15 0.6l-0.3 0.1m2.1-4.2q-0.5-1.2-0.3-2.3l0.1-0.35 0.55 1.2q1.35 2.45 4 3.65l-0.7 0.55h-0.05l-1.55-0.4q-1.05-0.55-1.7-1.65l-0.35-0.7m10.4-3.95 0.3 0.8q0.15 1.2-0.6 2.65l-0.1 0.05q-1.8 0.7-2.7 1.8-0.45 0.45-0.6 0.85l-0.55-0.25-0.2-0.05q0.45-1.55 1.8-2.6 1.95-1.05 2.65-3.25" fill="#f99" fill-rule="evenodd"/>
<path d="m256.2 201.55 0.45 0.5 0.05 0.2 0.1 0.9-0.2 0.6-0.05 0.05-0.2 0.4-0.85 0.75-0.25 0.15-0.35 0.1q-2.35-1.2-0.8-3.75l0.6-0.2h0.75l0.2 0.05 0.55 0.25" fill="#ff0" fill-rule="evenodd"/>
<path d="m252.75 202.6 0.35-0.5h0.05l0.7-0.55 0.1-0.05 0.15-0.05q-1.55 2.55 0.8 3.75l-0.1 0.05-1 0.1-0.25-0.05q-0.45-0.1-0.7-0.4l-0.35-0.45-0.05-0.1q-0.2-0.55 0-1.15l0.2-0.45 0.1-0.15" fill="#fc0" fill-rule="evenodd"/>
<path d="m250.2 211.6-0.05-0.05 0.05 0.05" fill="#ffead5" fill-rule="evenodd"/>
<path d="m259.6 198.85q1.7-0.65 3.2-0.6l0.65 0.1q0.95 0.2 1.3 0.8 0.35 0.8-0.55 1.85t-2.45 1.7q1.5 0.45 2.3 1.35 0.6 0.6 0.6 1.2l-0.15 0.6q-0.45 0.85-2 1.15l-2.9-0.1q0.5 1.2 0.3 2.3l-0.35 0.9-1 0.8q-1 0.4-2.25-0.25-1.15-0.65-1.85-1.9-0.75 1.4-2 2.25-1.25 0.8-2.25 0.6l-0.05-0.05-0.3-0.1q-0.75-0.35-0.9-1.35-0.2-1.25 0.55-2.7-1.7 0.65-3.15 0.6-1.15-0.1-1.65-0.55l-0.25-0.35-0.1-0.1q-0.2-0.65 0.35-1.45l0.25-0.35q0.9-0.95 2.45-1.65-1.5-0.45-2.35-1.3l-0.35-0.5q-0.4-0.7-0.1-1.3l0.1-0.1q0.45-0.8 1.9-1.05l2.9 0.05q-0.5-1.2-0.3-2.3l0.1-0.35 0.55-0.9q0.3-0.3 0.7-0.45 1-0.4 2.25 0.25 1.2 0.65 1.85 1.95 0.75-1.45 2.05-2.3 1.25-0.8 2.25-0.55 0.65 0.15 0.95 0.7l0.3 0.8q0.15 1.2-0.6 2.65l-0.1 0.05q-1.8 0.7-2.7 1.8-0.45 0.45-0.6 0.85l0.45 0.5 0.05 0.2 0.1 0.9-0.2 0.6m5.15-1.05-0.3 0.1q-1.75 0.75-3.3 0.65l-1.35-0.3m-4.05-0.55 0.35-0.5-1.55-0.4q-1.05-0.55-1.7-1.65l-0.35-0.7m-2.1 4.2 0.3-0.1q1.15-0.45 2.15-0.6l1.15-0.05 1.45 0.4 0.2-0.45 0.1-0.15m2.7-1.35 0.2 0.05 0.55 0.25m-1.55-4 0.05 0.1q0.65 1.35 0.4 2.6l-0.4 1h0.75m-1.35 0.2 0.6-0.2m-0.85 0.3 0.1-0.05 0.15-0.05m0.8 3.75 0.35-0.1 0.25-0.15 0.85-0.75 0.2-0.4 0.05-0.05m-3.45-1.65 0.7-0.55m-0.75 0.55h0.05-0.05m-0.25 2.8-0.5 0.65q-0.85 1-2.5 1.7l-0.2 0.1-0.15 0.05m3.35-2.5-0.35-0.45-0.05-0.1q-0.2-0.55 0-1.15m2.35 2.05-1 0.1-0.25-0.05q-0.45-0.1-0.7-0.4m2.05 0.3-0.1 0.05 0.25 0.75q0.2 1.25-0.55 2.7l-0.05 0.05m1.9-4.55q0.55 0 1.2 0.35 1.2 0.65 1.9 2.05l0.15 0.3" fill="none" stroke="#000" stroke-linecap="round" stroke-linejoin="round" stroke-opacity=".4" stroke-width=".05"/>
<path d="m270.9 154.4h0.1l-0.1 0.05v-0.05" fill="#fdd" fill-rule="evenodd"/>
<path d="m266.35 165.65-0.2-0.25 0.3 0.05-0.1 0.2m4.5-11.25h0.05v0.05l-0.05-0.05m5.9 0.65 0.35-0.15-0.1 0.2-0.25-0.05m1.3 6.9 0.1 0.15-0.1-0.15m0.25 1.3 0.05 0.1-0.1 0.15 0.05-0.25m-3.45-2 0.15-0.15 0.05 0.05-0.2 0.1m0.35 3.3-0.1 0.1-0.15-0.2 0.25 0.1m-1.45-0.9-0.2 0.05 0.05-0.2 0.15 0.15" fill="#f99" fill-rule="evenodd"/>
<path d="m277.6 164.15-0.65 0.25-0.05 0.05-0.45 0.1h-1.25l-0.25-0.1-0.35-0.1q-0.7-2.35 2.35-3.15 0.35 0.1 0.55 0.3 0.35 0.15 0.55 0.45l0.1 0.15 0.2 0.55-0.05 0.6-0.05 0.25-0.65 0.65" fill="#ff0" fill-rule="evenodd"/>
<path d="m276.65 161.1 0.1 0.05 0.2 0.05q-3.05 0.8-2.35 3.15l-0.1-0.1-0.75-0.6-0.15-0.15-0.25-0.7 0.1-0.55 0.05-0.15 0.9-0.75 0.45-0.1 0.2-0.1 0.65-0.15h0.05l0.9 0.1" fill="#fc0" fill-rule="evenodd"/>
<path d="m281.6 170.65-0.5 0.25q-1 0.35-2.4-0.45-1.15-0.75-2-1.95l0.2-0.3q0.5-1.4 0.15-2.65l-0.6-1 0.45-0.1 0.05-0.05 1.6 4.1q0.85 1.95 3.05 2.15m-7.4 0h-1.3q-1-0.5-1.4-1.65-0.35-1.25 0.1-2.55h0.05q1.7-0.55 2.5-1.5l0.35-0.7 0.1 0.1 0.35 0.1 0.15 0.2-2.75 2.45q0.05 2.75 1.85 3.55m-8.05-5.25q-0.25-0.75 0.45-1.6 0.8-0.95 2.45-1.45-1.7-0.65-2.7-1.65-0.8-0.8-0.8-1.45l0.05-0.4 0.05-0.1 0.3 0.2q2 1.6 4.55 2.5l2.95 0.8-0.1 0.55 0.25 0.7-0.05 0.2-5.4-0.05-0.05 0.05q-1 0.45-1.45 1.35l-0.2 0.4-0.3-0.05m4.35-7.05q-0.8-1.3-0.7-2.4l0.1-0.65q0.25-0.65 0.95-0.9l0.05 0.05q0.9 2.2 2.45 4.5l1.65 2.15-0.15 0.15-0.45 0.1q-0.1-0.55-0.75-1.2l-0.9-0.7q-0.8-0.6-1.95-1l-0.3-0.1m4.7-1.55q0.55-1.2 1.55-1.75l0.25 0.05-0.45 0.95q-0.9 2.55 0.1 5.05l-0.9-0.1q-0.6-0.45-0.9-1.3-0.25-1.05 0.1-2.15l0.1-0.45 0.15-0.3m10.6 4-0.4 0.7q-0.85 0.95-2.5 1.5l-0.15-0.05q-1.8-0.7-3.3-0.55l-1.1 0.25-0.2-0.55-0.1-0.15q1.55-0.75 3.3-0.65 2.25 0.55 4.45-0.5m0.25 4.35q0.55 0.7 0.3 1.3-0.35 0.85-1.85 1l-3.05-0.5-0.25-0.1q-1.85-0.6-2.9-1.7l-0.7-1 0.65-0.65 0.1-0.15q3.95 4.45 7.7 1.8m-17-2.8 0.1 0.05 0.3 0.05q1.65 0.6 3.05 0.45l0.85-0.1-0.85 0.1q-1.4 0.15-3.05-0.45l-0.3-0.05-0.1-0.05" fill="#cdbddb" fill-rule="evenodd"/>
<path d="m281.45 166.95q0.75 1.35 0.7 2.5 0 0.75-0.55 1.2-2.2-0.2-3.05-2.15l-1.6-4.1 0.65-0.25 0.7 1q1.05 1.1 2.9 1.7l0.25 0.1m-4.75 1.55q-0.5 1.15-1.55 1.8l-0.95 0.35q-1.8-0.8-1.85-3.55l2.75-2.45 0.1-0.1h1.25l0.6 1q0.35 1.25-0.15 2.65l-0.2 0.3m-5.1-2.05-3.2 0.25q-1.5-0.25-2.05-1.05l0.3-0.6q0.45-0.9 1.45-1.35l0.05-0.05 5.4 0.05 0.2-0.05 0.75 0.6-0.35 0.7q-0.8 0.95-2.5 1.5h-0.05m-5.95-7.7q0.35-0.55 1.3-0.75l0.45-0.1q1.45-0.1 3.1 0.45l0.3 0.1q1.15 0.4 1.95 1l0.9 0.7q0.65 0.65 0.75 1.2l-0.9 0.75-0.05 0.15-2.95-0.8q-2.55-0.9-4.55-2.5l-0.3-0.2m5.35-4.35q0.95-0.2 2.2 0.5 1.2 0.7 2 1.9l-0.15 0.3-0.1 0.45q-0.35 1.1-0.1 2.15 0.3 0.85 0.9 1.3h-0.05l-0.65 0.15-0.05-0.05-1.65-2.15q-1.55-2.3-2.45-4.5l0.1-0.05m6.1 0.5 1.1-0.3 0.8 0.1q1.05 0.4 1.45 1.65 0.4 1.2-0.1 2.55l3.2-0.25q1.55 0.2 2.05 1.05 0.35 0.55 0.2 1.1-2.2 1.05-4.45 0.5-1.75-0.1-3.3 0.65-0.2-0.3-0.55-0.45l1.1-0.45q1.1-0.7 1.65-2.1l0.1-0.05-0.1 0.05q-0.55 1.4-1.65 2.1l-1.1 0.45q-0.2-0.2-0.55-0.3l-0.2-0.05-0.1-0.05q-1-2.5-0.1-5.05l0.45-0.95 0.1-0.2m5.8 8.1q1.7 0.65 2.75 1.65l0.4 0.5q-3.75 2.65-7.7-1.8l-0.05-0.1 0.05-0.6 1.1-0.25q1.5-0.15 3.3 0.55l0.15 0.05" fill="#d7d0ea" fill-rule="evenodd"/>
<path d="m281.45 166.95q0.75 1.35 0.7 2.5 0 0.75-0.55 1.2l-0.5 0.25q-1 0.35-2.4-0.45-1.15-0.75-2-1.95-0.5 1.15-1.55 1.8l-0.95 0.35h-1.3q-1-0.5-1.4-1.65-0.35-1.25 0.1-2.55l-3.2 0.25q-1.5-0.25-2.05-1.05l-0.2-0.25q-0.25-0.75 0.45-1.6 0.8-0.95 2.45-1.45-1.7-0.65-2.7-1.65-0.8-0.8-0.8-1.45l0.05-0.4 0.05-0.1q0.35-0.55 1.3-0.75l0.45-0.1q1.45-0.1 3.1 0.45-0.8-1.3-0.7-2.4l0.1-0.65q0.25-0.65 0.95-0.9h0.15q0.95-0.2 2.2 0.5 1.2 0.7 2 1.9 0.55-1.2 1.55-1.75l0.35-0.15 1.1-0.3 0.8 0.1q1.05 0.4 1.45 1.65 0.4 1.2-0.1 2.55l3.2-0.25q1.55 0.2 2.05 1.05 0.35 0.55 0.2 1.1l-0.4 0.7q-0.85 0.95-2.5 1.5 1.7 0.65 2.75 1.65l0.4 0.5q0.55 0.7 0.3 1.3-0.35 0.85-1.85 1l-3.05-0.5-0.25-0.1q-1.85-0.6-2.9-1.7l-0.7-1-0.65 0.25-0.05 0.05-0.45 0.1h-1.25l-0.25-0.1-0.35-0.1-0.1-0.1-0.35 0.7q-0.8 0.95-2.5 1.5h-0.05m6.75-3.8 1.1-0.25q1.5-0.15 3.3 0.55l0.15 0.05m-2.55-4.1-0.1 0.05q-0.55 1.4-1.65 2.1l-1.1 0.45q0.35 0.15 0.55 0.45l0.1 0.15 0.2 0.55-0.05 0.6-0.05 0.25-0.65 0.65m-0.95-3.05 0.1 0.05 0.2 0.05q0.35 0.1 0.55 0.3m-1.75-0.5q-0.6-0.45-0.9-1.3-0.25-1.05 0.1-2.15l0.1-0.45 0.15-0.3m-4.7 1.55 0.3 0.1q1.15 0.4 1.95 1l0.9 0.7q0.65 0.65 0.75 1.2l0.45-0.1 0.2-0.1 0.65-0.15h0.05l0.9 0.1m-3.3 1.7-0.85 0.1q-1.4 0.15-3.05-0.45l-0.3-0.05-0.1-0.05m7.4 2.2 0.6 1q0.35 1.25-0.15 2.65l-0.2 0.3m-3.25-6.25 0.05-0.15 0.9-0.75m0.1 2.9-0.75-0.6-0.15-0.15-0.25-0.7 0.1-0.55" fill="none" stroke="#000" stroke-linecap="round" stroke-linejoin="round" stroke-opacity=".4" stroke-width=".05"/>
<path d="m286.25 170.35q2.3-0.9 4.3-0.85l0.9 0.15q-0.75 6-9.2 4.95l-0.55-0.65q0.2-0.55 0.75-1.15 1.25-1.45 3.65-2.4l0.15-0.05m2.85 5.15q2.05 0.6 3.15 1.75 0.8 0.85 0.8 1.65-2.3 1.75-5.15 0.55l-5.7-2.55 0.3-0.85q0.65 0.35 1.8 0.4 2.05 0.15 4.45-0.8l0.35-0.15m-2.85 5.65q0.65 1.55 0.35 3.05l-0.45 1.2q-2.55 0.8-5.45-1.9v-5l1.15-1.05q0.8 0.05 1.65 0.55 1.65 0.85 2.55 2.7l0.2 0.45m-6.9 2.45q-1.05 1.9-2.7 3-1.7 1.1-3.05 0.8v-0.05l-0.45-0.85q-0.35-1.2 0-2.55l0.05-0.1 5.25-4.8 1.35-0.15 0.35 1q0.25 1.65-0.8 3.65v0.05m-13.55-2.35q-0.35-0.9 0.4-1.9l0.4-0.5q1.15-1.3 3.25-2.2l0.4-0.2 2.9-0.75 1.55-0.05q1.25 0.05 1.95 0.5-0.25 0.8 0 1.55l0.05 0.1q-1.75 1.1-3.55 1.8-3.35 1.4-6.95 1.6l-0.4 0.05m0.35-8.8 0.05-0.15q0.65-1.05 2.6-1.4l3.9 0.1 0.15 0.4 0.3 0.55q0.9 1.4 2.25 2.15 1.15 0.6 2.15 0.55l-0.55 0.7-3.85-0.7q-3.85-0.8-6.95-2.2h-0.05m6.3-5.05q0.25-0.75 0.7-1.2l0.9-0.55q1.4-0.6 3.05 0.3 1.6 0.85 2.5 2.6 1-1.95 2.7-3.05 1.75-1.15 3.1-0.75 0.85 0.2 1.25 0.95-1 2.9-3.55 4.3-1.8 1.45-2.4 3.55h-1.05l0.55-1.35q0.35-1.7-0.55-3.55l-0.05-0.1 0.05 0.1q0.9 1.85 0.55 3.55l-0.55 1.35-0.8 0.2-0.2 0.15-0.15 0.05q-3.5-1.6-5.35-4.9l-0.7-1.65" fill="#fdd" fill-rule="evenodd"/>
<path d="m291.45 169.65q1.25 0.25 1.7 1.05 0.5 1.1-0.75 2.5-1.2 1.35-3.3 2.3l-0.35 0.15q-2.4 0.95-4.45 0.8-1.15-0.05-1.8-0.4l-0.1-1.2-0.15-0.25q8.45 1.05 9.2-4.95m1.6 9.25-0.25 0.8q-0.6 1.15-2.65 1.55l-3.9-0.1-0.2-0.45q-0.9-1.85-2.55-2.7-0.85-0.5-1.65-0.55l0.3-0.5 0.05-0.05 5.7 2.55q2.85 1.2 5.15-0.55m-6.9 6.5-1.3 1.1q-1.4 0.55-3-0.35-1.6-0.85-2.5-2.55v-0.05q1.05-2 0.8-3.65l-0.35-1 0.6-0.2 0.3-0.2v5q2.9 2.7 5.45 1.9m-12.6 2-0.4-0.15q-1-0.45-1.2-1.85-0.3-1.65 0.75-3.6-2.3 0.85-4.25 0.75-1.55-0.05-2.25-0.7l-0.35-0.5-0.05-0.1 0.4-0.05q3.6-0.2 6.95-1.6 1.8-0.7 3.55-1.8l0.45 0.65-0.6 0.9q-1.2 1.3-3.4 2.25l-0.3 0.1-0.15 0.1 0.15-0.1 0.3-0.1q2.2-0.95 3.4-2.25l0.6-0.9q0.35 0.35 0.95 0.5l0.35 0.1-5.25 4.8-0.05 0.1q-0.35 1.35 0 2.55l0.45 0.85-0.05 0.05m-3.7-10.75q-2.05-0.65-3.15-1.8l-0.5-0.65q-0.5-0.9-0.05-1.75h0.05q3.1 1.4 6.95 2.2l3.85 0.7-0.1 0.2-0.25 0.6q-0.7-0.45-1.95-0.5l-1.55 0.05-2.9 0.75-0.4 0.2m2.85-5.65q-0.7-1.6-0.4-3.15l0.15-0.45 0.7 1.65q1.85 3.3 5.35 4.9-0.55 0.3-0.95 0.7-1 0.05-2.15-0.55-1.35-0.75-2.25-2.15l-0.3-0.55-0.15-0.4m13.95-5.3 0.35 1.05q0.25 1.65-0.75 3.6l-0.15 0.05q-2.4 0.95-3.65 2.4-0.55 0.6-0.75 1.15l-0.75-0.4h-0.25q0.6-2.1 2.4-3.55 2.55-1.4 3.55-4.3" fill="#f99" fill-rule="evenodd"/>
<path d="m281.7 173.95 0.55 0.65 0.15 0.25 0.1 1.2-0.3 0.85-0.05 0.05-0.3 0.5-1.15 1.05-0.3 0.2-0.45 0.15q-3.15-1.65-1.1-5.1l0.8-0.2h1.3l0.75 0.4" fill="#ff0" fill-rule="evenodd"/>
<path d="m277 175.35 0.55-0.7q0.4-0.4 0.95-0.7l0.15-0.05 0.2-0.15q-2.05 3.45 1.1 5.1l-0.15 0.05-1.35 0.15-0.35-0.1q-0.6-0.15-0.95-0.5l-0.45-0.65-0.05-0.1q-0.25-0.75 0-1.55l0.25-0.6 0.1-0.2" fill="#fc0" fill-rule="evenodd"/>
<path d="m273.6 187.4h-0.05l0.05-0.05v0.05" fill="#ffead5" fill-rule="evenodd"/>
<path d="m286.25 170.35q2.3-0.9 4.3-0.85l0.9 0.15q1.25 0.25 1.7 1.05 0.5 1.1-0.75 2.5-1.2 1.35-3.3 2.3 2.05 0.6 3.15 1.75 0.8 0.85 0.8 1.65l-0.25 0.8q-0.6 1.15-2.65 1.55l-3.9-0.1q0.65 1.55 0.35 3.05l-0.45 1.2-1.3 1.1q-1.4 0.55-3-0.35-1.6-0.85-2.5-2.55-1.05 1.9-2.7 3-1.7 1.1-3.05 0.8h-0.05l-0.4-0.15q-1-0.45-1.2-1.85-0.3-1.65 0.75-3.6-2.3 0.85-4.25 0.75-1.55-0.05-2.25-0.7l-0.35-0.5-0.05-0.1q-0.35-0.9 0.4-1.9l0.4-0.5q1.15-1.3 3.25-2.2-2.05-0.65-3.15-1.8l-0.5-0.65q-0.5-0.9-0.05-1.75l0.05-0.15q0.65-1.05 2.6-1.4l3.9 0.1q-0.7-1.6-0.4-3.15l0.15-0.45q0.25-0.75 0.7-1.2l0.9-0.55q1.4-0.6 3.05 0.3 1.6 0.85 2.5 2.6 1-1.95 2.7-3.05 1.75-1.15 3.1-0.75 0.85 0.2 1.25 0.95l0.35 1.05q0.25 1.65-0.75 3.6l-0.15 0.05q-2.4 0.95-3.65 2.4-0.55 0.6-0.75 1.15l0.55 0.65 0.15 0.25 0.1 1.2-0.3 0.85-0.05 0.05-0.3 0.5-1.15 1.05-0.3 0.2-0.6 0.2 0.35 1q0.25 1.65-0.8 3.65v0.05m9.75-8.1-0.35 0.15q-2.4 0.95-4.45 0.8-1.15-0.05-1.8-0.4m-5.5-0.7 0.55-0.7q-1 0.05-2.15-0.55-1.35-0.75-2.25-2.15l-0.3-0.55-0.15-0.4m-2.85 5.65 0.4-0.2 2.9-0.75 1.55-0.05q1.25 0.05 1.95 0.5l0.25-0.6 0.1-0.2m3.7-1.8h0.25l0.75 0.4m-2.1-5.4 0.05 0.1q0.9 1.85 0.55 3.55l-0.55 1.35h1.05m-3.15 1.1q0.4-0.4 0.95-0.7l0.15-0.05 0.2-0.15 0.8-0.2m-2.5 4.9-0.6 0.9q-1.2 1.3-3.4 2.25l-0.3 0.1-0.15 0.1m4.45-3.35-0.45-0.65-0.05-0.1q-0.25-0.75 0-1.55m3.15 2.75-1.35 0.15-0.35-0.1q-0.6-0.15-0.95-0.5m4.7-1q0.8 0.05 1.65 0.55 1.65 0.85 2.55 2.7l0.2 0.45" fill="none" stroke="#000" stroke-linecap="round" stroke-linejoin="round" stroke-opacity=".4" stroke-width=".05"/>
<path d="m262.45 171.05-0.05-0.1 0.15-0.05-0.1 0.15" fill="#fdd" fill-rule="evenodd"/>
<path d="m262.45 171.05-0.05-0.1 0.05 0.1m4.3 7.2 0.15-0.05h0.05l-0.2 0.05m2.1-6.65 0.35-0.15-0.15 0.25-0.2-0.1m-11.3 11.5-0.2-0.3 0.3 0.1-0.1 0.2m7.95-2.1h-0.2l0.05-0.2 0.15 0.2m1.55 0.95-0.25-0.15 0.3 0.05-0.05 0.1m3.25-2.7-0.1-0.1 0.1 0.1m0.2 1.3-0.15 0.15 0.05-0.2 0.1 0.05" fill="#f99" fill-rule="evenodd"/>
<path d="m267.1 181.85-0.3-0.05-0.35-0.15q-0.8-2.5 2.55-3.4l0.55 0.3 0.65 0.6 0.1 0.1 0.2 0.6-0.1 0.65-0.05 0.2-0.7 0.75-0.65 0.3h-0.1l-0.45 0.1h-1.35" fill="#ff0" fill-rule="evenodd"/>
<path d="m266.25 178.5 0.5-0.25 0.2-0.05 0.75-0.1 0.9 0.1 0.15 0.05h0.25q-3.35 0.9-2.55 3.4h-0.05l-0.9-0.65-0.15-0.2-0.25-0.8 0.1-0.6 0.1-0.15q0.3-0.5 0.95-0.75" fill="#fc0" fill-rule="evenodd"/>
<path d="m257.35 182.8-0.1-0.5 0.6 0.1-0.2 0.5-0.3-0.1m-0.6-7.15h0.1l0.2 0.25-0.3-0.25m4.15 4-0.45-0.15 0.45 0.15m5.9 2.15 0.25 0.15-0.1 0.05-0.15-0.2m3.4-2.65 0.1-0.1v0.2l-0.1-0.1" fill="#cdbddb" fill-rule="evenodd"/>
<path d="m256.85 175.65v-0.05l0.2 0.3-0.2-0.25m13.35 3.5 0.1-0.1-0.1 0.1" fill="#d7d0ea" fill-rule="evenodd"/>
<path d="m262.4 170.95 0.05 0.1q0.95 2.3 2.7 4.75l1.75 2.4-0.15 0.05-0.5 0.25q-0.15-0.65-0.9-1.3l-0.85-0.8-2.15-1.1-0.4-0.05q-0.8-1.45-0.7-2.6 0-0.4 0.15-0.65 0.2-0.8 1-1.05m4.7 2.6q0.6-1.3 1.75-1.95l0.2 0.1-0.45 1q-1 2.8 0 5.5l-0.9-0.1q-0.65-0.5-0.9-1.45-0.35-1.05 0-2.3 0-0.3 0.15-0.5l0.15-0.3m11.4 4.35-0.5 0.7q-0.85 1.05-2.6 1.6h-0.15q-2-0.8-3.6-0.65l-1.15 0.3-0.2-0.6v-0.2q1.5-0.8 3.45-0.65 2.3 0.6 4.75-0.5m0.3 4.6q0.6 0.8 0.3 1.45-0.35 0.9-1.95 1.05l-3.25-0.45-0.35-0.15q-1.95-0.7-3.05-1.8l-0.85-1.15 0.7-0.75 0.15-0.15q4.25 4.85 8.3 1.95m-4.75 5.95-0.6 0.35q-1.1 0.3-2.5-0.5-1.3-0.8-2.25-2.1l0.2-0.35q0.6-1.5 0.15-2.8-0.2-0.75-0.6-1.2l0.45-0.1h0.1l1.7 4.4q0.95 2.1 3.35 2.3m-8.05 0.05-1.35-0.05q-1.15-0.45-1.6-1.8-0.35-1.3 0.15-2.7h0.05q1.85-0.55 2.7-1.55l0.45-0.75h0.05l0.35 0.15 0.15 0.2-2.9 2.6q-0.05 3 1.95 3.9m-8.75-6.2q0-0.55 0.6-1.2 0.8-1.05 2.6-1.6-1.8-0.65-2.9-1.75-0.85-0.85-0.85-1.5-0.1-0.3 0.05-0.5v-0.1l0.3 0.25q2.15 1.7 5 2.65l3.15 0.85-0.1 0.6-0.9 0.15q-1.5 0.15-3.3-0.5 1.8 0.65 3.3 0.5l0.9-0.15 0.25 0.8-0.05 0.2-5.85-0.05v0.05q-1.1 0.5-1.6 1.4l-0.6-0.1m3.2-2.8 0.45 0.15-0.45-0.15" fill="#f60" fill-rule="evenodd"/>
<path d="m261.95 175.25 0.4 0.05 2.15 1.1 0.85 0.8q0.75 0.65 0.9 1.3-0.65 0.25-0.95 0.75l-0.1 0.15-3.15-0.85q-2.85-0.95-5-2.65l-0.2-0.3q0.35-0.6 1.35-0.8l0.5-0.1q1.45-0.1 3.25 0.55m4.95 2.95-1.75-2.4q-1.75-2.45-2.7-4.75l0.1-0.15q1-0.2 2.4 0.55l2.15 2.1-0.15 0.3q-0.15 0.2-0.15 0.5-0.35 1.25 0 2.3 0.25 0.95 0.9 1.45l-0.75 0.1h-0.05m2.3-6.75 1.15-0.25 0.85 0.05q1.1 0.45 1.55 1.8 0.4 1.3-0.1 2.75l3.4-0.3q1.65 0.25 2.25 1.15 0.35 0.6 0.2 1.25-2.45 1.1-4.75 0.5-1.95-0.15-3.45 0.65l-0.1 0.1-0.65-0.6 1.15-0.45q1.25-0.8 1.9-2.2l0.05-0.1-0.05 0.1q-0.65 1.4-1.9 2.2l-1.15 0.45-0.55-0.3h-0.25l-0.15-0.05q-1-2.7 0-5.5l0.45-1 0.15-0.25m6.2 8.75q1.8 0.75 2.95 1.8l0.45 0.5q-4.05 2.9-8.3-1.95l-0.1-0.05 0.1-0.65 1.15-0.3q1.6-0.15 3.6 0.65h0.15m-1.5 4.35q0.8 1.35 0.7 2.6l-0.55 1.3q-2.4-0.2-3.35-2.3l-1.7-4.4 0.65-0.3 0.85 1.15q1.1 1.1 3.05 1.8l0.35 0.15m-5.2 1.65q-0.6 1.25-1.65 1.9l-1.05 0.4q-2-0.9-1.95-3.9l2.9-2.6 0.1-0.05 0.05-0.1h1.35q0.4 0.45 0.6 1.2 0.45 1.3-0.15 2.8l-0.2 0.35m-5.5-2.25-3.45 0.3q-1.7-0.3-2.2-1.15l0.1-0.2 0.2-0.5q0.5-0.9 1.6-1.4v-0.05l5.85 0.05h0.2l0.9 0.65-0.45 0.75q-0.85 1-2.7 1.55h-0.05" fill="#fea452" fill-rule="evenodd"/>
<path d="m262.4 170.95q-0.8 0.25-1 1.05-0.15 0.25-0.15 0.65-0.1 1.15 0.7 2.6l0.4 0.05 2.15 1.1 0.85 0.8q0.75 0.65 0.9 1.3l0.5-0.25 0.2-0.05 0.75-0.1 0.9 0.1 0.15 0.05h0.25l0.55 0.3 0.65 0.6 0.1 0.1 0.2 0.6 1.15-0.3q1.6-0.15 3.6 0.65h0.15q1.8 0.75 2.95 1.8l0.45 0.5q0.6 0.8 0.3 1.45-0.35 0.9-1.95 1.05l-3.25-0.45q0.8 1.35 0.7 2.6l-0.55 1.3-0.6 0.35q-1.1 0.3-2.5-0.5-1.3-0.8-2.25-2.1-0.6 1.25-1.65 1.9l-1.05 0.4-1.35-0.05q-1.15-0.45-1.6-1.8-0.35-1.3 0.15-2.7l-3.45 0.3q-1.7-0.3-2.2-1.15l-0.2-0.3-0.1-0.5q0-0.55 0.6-1.2 0.8-1.05 2.6-1.6-1.8-0.65-2.9-1.75-0.85-0.85-0.85-1.5-0.1-0.3 0.05-0.5v-0.1h0.1v-0.05q0.35-0.6 1.35-0.8l0.5-0.1q1.45-0.1 3.25 0.55m0.6-4.35-0.15 0.05m0.15-0.05q1-0.2 2.4 0.55l2.15 2.1q0.6-1.3 1.75-1.95l0.35-0.15 1.15-0.25 0.85 0.05q1.1 0.45 1.55 1.8 0.4 1.3-0.1 2.75l3.4-0.3q1.65 0.25 2.25 1.15 0.35 0.6 0.2 1.25l-0.5 0.7q-0.85 1.05-2.6 1.6m-7.7-2.1q-0.65-0.5-0.9-1.45-0.35-1.05 0-2.3 0-0.3 0.15-0.5l0.15-0.3m-2 6.45-0.9 0.15q-1.5 0.15-3.3-0.5l-0.45-0.15m4.65 0.5 0.1-0.6 0.1-0.15q0.3-0.5 0.95-0.75m-3.05 5.45h0.05q1.85-0.55 2.7-1.55l0.45-0.75-0.9-0.65-0.15-0.2-0.25-0.8m2 1.85-0.3-0.05-0.35-0.15h-0.05m6.25-5.85-0.05 0.1q-0.65 1.4-1.9 2.2l-1.15 0.45m0.8 2.15-0.7 0.75 0.85 1.15q1.1 1.1 3.05 1.8l0.35 0.15m-3.5-4.05-0.05 0.2m-1.35 1.05h-0.1l-0.45 0.1q0.4 0.45 0.6 1.2 0.45 1.3-0.15 2.8l-0.2 0.35m0.95-4.75-0.65 0.3m1.5-1.9-0.1 0.65m-1.95 1.35h-1.35" fill="none" stroke="#000" stroke-linecap="round" stroke-linejoin="round" stroke-opacity=".4" stroke-width=".05"/>
<path d="m280.85 182q1.7-0.65 3.15-0.6l0.7 0.1q-0.55 4.4-6.8 3.65l-0.4-0.45 0.55-0.9q0.95-1.05 2.7-1.75l0.1-0.05m2.1 3.8q1.5 0.45 2.3 1.35 0.6 0.6 0.6 1.2-1.65 1.25-3.8 0.4l-4.2-1.9 0.25-0.6 1.35 0.3q1.5 0.1 3.25-0.65l0.25-0.1m-2.1 4.2q0.5 1.15 0.3 2.25l-0.35 0.9q-1.9 0.55-4.05-1.4v-3.7l0.85-0.75q0.6 0 1.25 0.35 1.2 0.65 1.85 2l0.15 0.35m-5.1 1.8q-0.75 1.4-2 2.25-1.2 0.8-2.2 0.55l-0.05-0.05-0.3-0.65q-0.25-0.85 0-1.85l0.05-0.05 3.85-3.55 1-0.1 0.25 0.75q0.2 1.2-0.55 2.65l-0.05 0.05m-10-1.75q-0.2-0.65 0.35-1.4l0.25-0.35q0.9-0.95 2.4-1.65l2.45-0.7 1.15-0.05q0.9 0.05 1.45 0.4-0.2 0.6 0 1.15l0.05 0.1-2.65 1.3q-2.45 1.05-5.1 1.2h-0.35m0.3-6.5 0.05-0.1q0.45-0.75 1.9-1l2.85 0.05 0.35 0.7q0.65 1.05 1.65 1.6l1.6 0.4-0.4 0.5-2.85-0.5q-2.85-0.6-5.1-1.6l-0.05-0.05m4.65-3.7 0.5-0.9 0.7-0.4q1-0.4 2.2 0.25t1.85 1.9q0.75-1.4 2-2.25 1.25-0.8 2.25-0.55 0.65 0.15 0.95 0.7-0.7 2.15-2.6 3.2-1.35 1.05-1.8 2.6h-0.75l0.4-1q0.25-1.25-0.4-2.6l-0.05-0.1 0.05 0.1q0.65 1.35 0.4 2.6l-0.4 1-0.6 0.15-0.15 0.1-0.1 0.05q-2.6-1.2-3.95-3.65l-0.5-1.2" fill="#fdd" fill-rule="evenodd"/>
<path d="m284.7 181.5q0.95 0.2 1.25 0.8 0.35 0.8-0.55 1.85-0.9 1-2.45 1.65l-0.25 0.1q-1.75 0.75-3.25 0.65l-1.35-0.3-0.1-0.9-0.1-0.2q6.25 0.75 6.8-3.65m1.15 6.85-0.15 0.55q-0.45 0.85-1.95 1.15l-2.9-0.05-0.15-0.35q-0.65-1.35-1.85-2-0.65-0.35-1.25-0.35l0.25-0.4v-0.05l4.2 1.9q2.15 0.85 3.8-0.4m-5.05 4.8-0.95 0.75-2.25-0.2q-1.15-0.65-1.85-1.9l0.05-0.05q0.75-1.45 0.55-2.65l-0.25-0.75 0.1-0.05 0.35-0.1 0.2-0.15v3.7q2.15 1.95 4.05 1.4m-9.3 1.45-0.3-0.1q-0.75-0.35-0.9-1.4-0.2-1.2 0.55-2.65-1.65 0.65-3.1 0.6-1.15-0.05-1.65-0.55l-0.25-0.35-0.1-0.1h0.35q2.65-0.15 5.1-1.2l2.65-1.3 0.3 0.45-0.45 0.65q-0.9 1-2.5 1.65l-0.2 0.1-0.15 0.05 0.15-0.05 0.2-0.1q1.6-0.65 2.5-1.65l0.45-0.65 0.7 0.4 0.25 0.05-3.85 3.55-0.05 0.05q-0.25 1 0 1.85l0.3 0.65v0.05m-2.75-7.95q-1.5-0.45-2.3-1.3l-0.35-0.5q-0.4-0.65-0.05-1.3l0.05 0.05q2.25 1 5.1 1.6l2.85 0.5-0.1 0.2-0.15 0.4q-0.55-0.35-1.45-0.4l-1.15 0.05-2.45 0.7m2.1-4.15q-0.5-1.2-0.25-2.3l0.1-0.35 0.5 1.2q1.35 2.45 3.95 3.65l-0.7 0.5-1.6-0.4q-1-0.55-1.65-1.6l-0.35-0.7m10.3-3.9 0.3 0.8q0.15 1.2-0.6 2.6l-0.1 0.05q-1.75 0.7-2.7 1.75l-0.55 0.9-0.55-0.3h-0.2q0.45-1.55 1.8-2.6 1.9-1.05 2.6-3.2" fill="#f99" fill-rule="evenodd"/>
<path d="m277.5 184.7 0.4 0.45 0.1 0.2 0.1 0.9-0.25 0.6v0.05l-0.25 0.4-0.85 0.75-0.2 0.15-0.35 0.1q-2.3-1.2-0.8-3.75l0.6-0.15h0.95l0.55 0.3" fill="#ff0" fill-rule="evenodd"/>
<path d="m274.05 185.7 0.4-0.5 0.7-0.5 0.1-0.05 0.15-0.1q-1.5 2.55 0.8 3.75l-0.1 0.05-1 0.1-0.25-0.05-0.7-0.4-0.3-0.45-0.05-0.1q-0.2-0.55 0-1.15l0.15-0.4 0.1-0.2" fill="#fc0" fill-rule="evenodd"/>
<path d="m271.55 194.6h-0.05v-0.05l0.05 0.05" fill="#ffead5" fill-rule="evenodd"/>
<path d="m280.85 182q1.7-0.65 3.15-0.6l0.7 0.1q0.95 0.2 1.25 0.8 0.35 0.8-0.55 1.85-0.9 1-2.45 1.65 1.5 0.45 2.3 1.35 0.6 0.6 0.6 1.2l-0.15 0.55q-0.45 0.85-1.95 1.15l-2.9-0.05q0.5 1.15 0.3 2.25l-0.35 0.9-0.95 0.75-2.25-0.2q-1.15-0.65-1.85-1.9-0.75 1.4-2 2.25-1.2 0.8-2.2 0.55h-0.05l-0.3-0.1q-0.75-0.35-0.9-1.4-0.2-1.2 0.55-2.65-1.65 0.65-3.1 0.6-1.15-0.05-1.65-0.55l-0.25-0.35-0.1-0.1q-0.2-0.65 0.35-1.4l0.25-0.35q0.9-0.95 2.4-1.65-1.5-0.45-2.3-1.3l-0.35-0.5q-0.4-0.65-0.05-1.3l0.05-0.1q0.45-0.75 1.9-1l2.85 0.05q-0.5-1.2-0.25-2.3l0.1-0.35 0.5-0.9 0.7-0.4q1-0.4 2.2 0.25t1.85 1.9q0.75-1.4 2-2.25 1.25-0.8 2.25-0.55 0.65 0.15 0.95 0.7l0.3 0.8q0.15 1.2-0.6 2.6l-0.1 0.05q-1.75 0.7-2.7 1.75l-0.55 0.9 0.4 0.45 0.1 0.2 0.1 0.9-0.25 0.6m5.1-1.05-0.25 0.1q-1.75 0.75-3.25 0.65l-1.35-0.3m-4.05-0.55 0.4-0.5-1.6-0.4q-1-0.55-1.65-1.6l-0.35-0.7m-2.1 4.15 2.45-0.7 1.15-0.05q0.9 0.05 1.45 0.4l0.15-0.4 0.1-0.2m2.7-1.3h0.2l0.55 0.3m-1.55-4 0.05 0.1q0.65 1.35 0.4 2.6l-0.4 1h0.75m-1.35 0.15 0.6-0.15m-0.85 0.3 0.1-0.05 0.15-0.1m0.8 3.75 0.35-0.1 0.2-0.15 0.85-0.75 0.25-0.4v-0.05m-3.4-1.65 0.7-0.5m-1 3.3-0.45 0.65q-0.9 1-2.5 1.65l-0.2 0.1-0.15 0.05m3.3-2.45-0.3-0.45-0.05-0.1q-0.2-0.55 0-1.15m2.3 2.05-1 0.1-0.25-0.05-0.7-0.4m2.05 0.3-0.1 0.05 0.25 0.75q0.2 1.2-0.55 2.65l-0.05 0.05m1.85-4.5q0.6 0 1.25 0.35 1.2 0.65 1.85 2l0.15 0.35" fill="none" stroke="#000" stroke-linecap="round" stroke-linejoin="round" stroke-opacity=".4" stroke-width=".05"/>
</g>
</defs>
</svg>
