<?xml version="1.0" encoding="UTF-8"?>
<svg version="1.1" viewBox="0 0 32.95 38.55" xmlns="http://www.w3.org/2000/svg" xmlns:cc="http://creativecommons.org/ns#" xmlns:dc="http://purl.org/dc/elements/1.1/" xmlns:rdf="http://www.w3.org/1999/02/22-rdf-syntax-ns#" xmlns:xlink="http://www.w3.org/1999/xlink">
<metadata>
<rdf:RDF>
<cc:Work rdf:about="">
<dc:format>image/svg+xml</dc:format>
<dc:type rdf:resource="http://purl.org/dc/dcmitype/StillImage"/>
</cc:Work>
</rdf:RDF>
</metadata>
<g transform="translate(-259,-180.7)">
<use transform="translate(259,180.7)" width="32.950001" height="38.549999" xlink:href="#a"/>
</g>
<defs>
<g id="a" transform="translate(-259,-180.7)">
<path d="m268.85 188.45 1.65 2.5" fill="none" stroke="#0f4a11" stroke-linecap="round" stroke-linejoin="round" stroke-width=".5"/>
<path d="m281.7 186.1-0.15 1-7.25 2.4 0.25 6.55-0.7 0.25-0.25-1.4-0.2-1.4-0.45-2.6h-1.35l-1.5 3.4-0.7 1.8-1.15-0.4 2.75-5.95q-3.65-0.5-6.5-1.55l0.35-1.45 0.3 0.85q3.1 1.2 7.55 1.2 4.5-0.8 9-2.7" fill="#9b6305" fill-rule="evenodd"/>
<path d="m278.05 183.65 1.85 2q-3.2 1.35-6.6 1.8l-6.85-0.5 0.4-0.85 3.45-0.15q4.2-0.5 7.75-2.3m1.75 4.6-0.2 1-2.25 2.05-0.1 3.4-0.9 0.6-0.45 0.25-0.3-5.5 4.2-1.8m-13.1 6.9-0.7-0.25 1.5-3.75-1.8-1.05 0.2-0.6 3 1-1.85 4.85-0.35-0.2m6.7-1.65h-1.6l-0.95-0.9 0.95 0.9h1.6l0.2 1.4-1.8-1.4-1.7 0.8 1.7-0.8 1.8 1.4 0.25 1.4-2.6 1.1h-0.1l-2.9-1.7 1.15 0.4 0.7-1.8 1.5-3.4h1.35l0.45 2.6" fill="#583803" fill-rule="evenodd"/>
<path d="m270.05 197.8 1.1-0.4h0.1l-1.2 0.4m3.9 0.9 0.45 0.25-3.95 1.45-0.2-0.1 0.2 0.1-4.35 1.95-1.1 0.2 5.25-2.25 3.7-1.6" fill="#a1664c" fill-rule="evenodd"/>
<path d="m266 194.9-0.3-0.15q-0.85-0.55-0.7-1.2l0.7-3.45 1.8 1.05-1.5 3.75" fill="#13a21a" fill-rule="evenodd"/>
<path d="m274.35 202.9 0.1 0.05q0.7 1 0.8 2.05l-2.8 2.4q0.1-4.6-7.5-4.5l0.05-0.35 1.1-0.2q5.4-0.8 8.25 0.55" fill="#0c610c" fill-rule="evenodd"/>
<path d="m276.35 195.3-0.45 2.2 1.85 9.3q-2.95 1.65-6.2 2.35l-3.85 0.25 4.75-2 2.8-2.4q-0.1-1.05-0.8-2.05l-0.1-0.05-3.9-2.5 3.95-1.45-0.45-0.25-2.7-1.3 2.6-1.1 0.7-0.25 1.35-0.5 0.45-0.25" fill="#0a4b0a" fill-rule="evenodd"/>
<path d="m269 183.5 0.15-0.15 8-0.45 0.9 0.75q-3.55 1.8-7.75 2.3l-1.3-2.45m10.6 5.75-0.7 3.8-1.65 1.65 0.1-3.4 2.25-2.05" fill="#0d6c0d" fill-rule="evenodd"/>
<path d="m267.55 198.9 2.1-0.95 0.4-0.15 1.2-0.4 2.7 1.3-3.7 1.6-2.7-1.4m2.9 1.5 3.9 2.5q-2.85-1.35-8.25-0.55l4.35-1.95" fill="#118c11" fill-rule="evenodd"/>
<path d="m266.85 186.1q0.7-1.35 2.15-2.6l1.3 2.45-3.45 0.15m10.9 20.7-0.25 1.4-0.75 1.55q-5.2 2.85-11.15 2.85l-1.8-0.05q-3.8-0.85-4.65-2.85l-0.1-0.65 0.05-0.5q0.15-0.9 1.1-1.8 0.85 2.05 4.6 2.9l2.9-0.25 3.85-0.25q3.25-0.7 6.2-2.35" fill="#0a4b0d" fill-rule="evenodd"/>
<path d="m278.05 183.65-0.9-0.75-8 0.45-0.15 0.15q-1.45 1.25-2.15 2.6l-0.4 0.85 6.85 0.5q3.4-0.45 6.6-1.8l-1.85-2m-13.2 3.1-0.05-0.05q0.85-2.15 3-4.1l8.05-0.8 2.7 0.15q2.5 1.6 3.15 4.15-4.5 1.9-9 2.7-4.45 0-7.55-1.2l-0.3-0.85m16.7 0.35-0.05 0.25q-0.35 0.1-1.7 0.9l-4.2 1.8 0.3 5.5-1.35 0.5-0.25-6.55 7.25-2.4m-15.65 2.4q-0.7-0.15-1.5-0.8l0.1-0.5q2.85 1.05 6.5 1.55l-2.75 5.95-1.2-0.35 1.85-4.85-3-1" fill="#fdf0d7" fill-rule="evenodd"/>
<path d="m260.2 206.75q0.85-2.3 3.05-3.8 0.45-1.65 1.55-3.15 0.4-0.85 1.1-1.6l0.3-0.8 0.5-2.25 0.35 0.2 1.2 0.35 2.9 1.7-1.1 0.4-0.4 0.15-2.1 0.95 2.7 1.4-5.25 2.25-0.05 0.35q7.6-0.1 7.5 4.5l-4.75 2-2.9 0.25q-3.75-0.85-4.6-2.9" fill="#469823" fill-rule="evenodd"/>
<path d="m269 183.5 0.15-0.15 8-0.45 0.9 0.75 1.85 2q-3.2 1.35-6.6 1.8l-6.85-0.5 0.4-0.85q0.7-1.35 2.15-2.6m-4.15 3.25-0.05-0.05q0.85-2.15 3-4.1l8.05-0.8 2.7 0.15q2.5 1.6 3.15 4.15l-0.15 1-0.05 0.25q-0.35 0.1-1.7 0.9l-0.2 1-0.7 3.8-1.65 1.65-0.9 0.6-0.45 2.2 1.85 9.3-0.25 1.4-0.75 1.55q-5.2 2.85-11.15 2.85l-1.8-0.05q-3.8-0.85-4.65-2.85l-0.1-0.65 0.05-0.5q0.15-0.9 1.1-1.8 0.85-2.3 3.05-3.8 0.45-1.65 1.55-3.15 0.4-0.85 1.1-1.6l0.3-0.8 0.5-2.25-0.7-0.25-0.3-0.15q-0.85-0.55-0.7-1.2l0.7-3.45 0.2-0.6q-0.7-0.15-1.5-0.8l0.1-0.5 0.35-1.45 0.3 0.85q3.1 1.2 7.55 1.2 4.5-0.8 9-2.7m-1.9 2.15-4.2 1.8 0.3 5.5 0.45-0.25m-5.5-2.7 0.95 0.9h1.6l-0.45-2.6h-1.35l-1.5 3.4 1.7-0.8 1.8 1.4-0.2-1.4m-6.35 1.85 1.85-4.85-3-1m2.35 6.2 1.15 0.4 0.7-1.8m-3.4 0.85 0.35 0.2 1.2 0.35m2.9 1.7-2.9-1.7m3 1.7 2.6-1.1-0.25-1.4m0.35 3.8-2.7-1.3-1.2 0.4m0.2 2.5 0.2 0.1 3.9 2.5 0.1 0.05m-6.75 6.45 3.85-0.25q3.25-0.7 6.2-2.35m-6.5-9.4h-0.1m2.7-1.1 0.7-0.25m-4.1 4.35-4.35 1.95m-5.9 4.4q0.85 2.05 4.6 2.9l2.9-0.25m2.55-9.1-2.7-1.4m8.35-3.35-1.35 0.5" fill="none" stroke="#48230e" stroke-linecap="round" stroke-linejoin="round" stroke-width=".1"/>
<path d="m269 183.5 1.3 2.45m-2.75 12.95 2.1-0.95 0.4-0.15 1.1-0.4m-0.7 3 3.95-1.45-0.45-0.25-3.7 1.6m-5.25 2.25 5.25-2.25" fill="none" stroke="#0f4a11" stroke-linecap="round" stroke-linejoin="round" stroke-width=".5"/>
<path d="m279.5 182.55 0.95 2.6h1.45q3.25-0.7 5.95-2.1 1.3 1.25 2.15 2.65-3.3 1.5-7 1.9l-2.7-0.05q-1.85-0.25-3.05-1.3 0.55-1.8 1.75-3.55l0.5-0.15m10.9 6.4v1.4l-1.85 2.5 0.6 4.3-0.85 0.75-0.3 0.3-0.8-4.05 0.05-1.35-0.25-1.65 3.4-2.2m-11.45 8.8-0.65-0.3v-0.05l0.65-4.65-1.95-1.35v-0.8q1.6 0.85 3.1 1.25l-0.15 1.3v1.05l-0.55 3.8-0.45-0.25m3.15-0.6 0.9 0.1 1.45-0.1 0.85 1.7 0.45-1 0.35 1.3-2.3 1.35h-0.05l-3.15-2.05 1.15 0.5 0.35-1.8" fill="#583803" fill-rule="evenodd"/>
<path d="m291.9 186.2v1.3l-5.25 2.5-0.4-1.1q2.85-1 5.65-2.7m-13.6 11.25-0.05-0.05h0.05v0.05m-2.9-8.55v-1.85l0.55 1.15q2.1 1 4.65 1.35l-0.25 1.05q-2.7-0.65-4.95-1.7m5.7 0.7 2.5 0.1 2.3-0.65-0.15 1.35q-0.3 0.1-0.25 0.2l-0.15 0.75-0.65 0.95-1.9 0.05h-0.15l-0.65-0.75-0.35-0.4 0.05-0.05-0.2-0.35-0.4-1.2m0.9 2-0.3-0.45 0.3 0.45m-1.1 5.5 0.65 1.7 0.45-1.65h0.1l-0.35 1.8-1.15-0.5 0.3-1.35m5.35-0.45h0.1l0.4 2.2-0.65 0.3-0.35-1.3 0.5-1.2" fill="#9b6305" fill-rule="evenodd"/>
<path d="m285.35 191.35 0.15-0.75q-0.05-0.1 0.25-0.2l-0.4 0.95m-4.65 5.3 0.1 0.1h-0.05l-0.05-0.1" fill="#fec416" fill-rule="evenodd"/>
<path d="m287.95 207.35 0.05 0.05h-0.1l0.05-0.05m-4.2-6.85h0.05l-0.95 0.55 0.9-0.55" fill="#a1664c" fill-rule="evenodd"/>
<path d="m287.9 207.4h0.1q0.85 1.3 1.05 2.55l-2.2 2.9q-0.75-5.55-8.05-5.5v-0.4l4.6-2.8 0.25 0.15-3.85 2.45q5.1-0.95 8.1 0.65" fill="#0f7b14" fill-rule="evenodd"/>
<path d="m278.25 197.4-0.35-0.2q-0.9-0.65-0.9-1.4v-4.4l1.95 1.35-0.65 4.65h-0.05m9.7 9.95-0.05 0.05q-3-1.6-8.1-0.65l3.85-2.45 4.25 3.05h0.05m-1.2-4.85 0.4-0.05-3.5 1.85-0.25-0.15q1.7-0.8 3.35-1.65-1.65 0.85-3.35 1.65l-2.85-1.75q0.65-0.45 1.4-0.85l0.9-0.5 0.95-0.55 2.95 2" fill="#13a21a" fill-rule="evenodd"/>
<path d="m286.85 182.1 1 0.95q-2.7 1.4-5.95 2.1h-1.45l-0.95-2.6 7.35-0.45m3.55 8.25v4.75l-1.25 2.05-0.6-4.3 1.85-2.5" fill="#118c16" fill-rule="evenodd"/>
<path d="m288.3 197.9v2.75l3.55 11.5q-2.5 2-5.5 2.85l-3.55 0.35 4.05-2.5 2.2-2.9q-0.2-1.25-1.05-2.55l-0.05-0.05h-0.05l-4.25-3.05 3.5-1.85-0.4 0.05-2.95-2 2.3-1.35 0.65-0.3 1.25-0.65 0.3-0.3" fill="#0d6c11" fill-rule="evenodd"/>
<path d="m291.85 212.15v1.7l-0.45 1.85q-4.35 3.5-10.05 3.5l-1.75-0.1q-3.7-0.95-4.95-3.4-0.75-1.8 0.4-3.6 1.3 2.5 5 3.5l2.75-0.25 3.55-0.35q3-0.85 5.5-2.85" fill="#0a4b0d" fill-rule="evenodd"/>
<path d="m280.6 189.55 0.4-1.55 0.1 1.6 0.4 1.2 0.2 0.35-0.05 0.05 0.35 0.4 0.65 0.75h0.15l0.4 2.2-0.2 2.7-0.9-0.1h-0.1l-0.45 1.65-0.65-1.7-0.15-0.35h0.05l-0.1-0.1q-0.65-1.1-0.75-2.45v-1.05l0.15-1.3 0.25-1.25 0.25-1.05m1.55 4.05-0.3-0.15-0.15 0.15-0.1 0.4 0.1 0.4 0.1 0.15 0.4 0.05q0.3 0 0.25-0.4l-0.3-0.6m4.2 3.05h-0.1l0.05-0.1 0.1-0.1v0.15l-0.05 0.05m-15.3-1.25-0.8-0.15-0.55 1.35-0.4-1.7q-0.55-1.1-0.35-2.3l0.1-0.45q0.35-1.75 1.3-3.6-0.4 1.75 0.8 3.15h0.15l0.15 1.65-0.4 2.05m2.65-0.6v0.15l-0.1-0.05 0.1-0.1m-3-2.2-0.25-0.15-0.1 0.1-0.05 0.3q-0.1 0.15-0.05 0.3l0.1 0.15h0.3l0.25-0.2-0.2-0.5" fill="#fef7e0" fill-rule="evenodd"/>
<path d="m282.15 193.6 0.3 0.6q0.05 0.4-0.25 0.4l-0.4-0.05-0.1-0.15-0.1-0.4 0.1-0.4 0.15-0.15 0.3 0.15m3.4-0.15 0.25 0.5-0.25 0.55q-0.15 0.2-0.4 0.2l-0.1 0.05-0.2-0.05-0.35-0.2-0.2-0.55 0.2-0.5v-0.05l0.55-0.2h0.1l0.4 0.25m-14.85-0.85 0.2 0.5-0.25 0.2h-0.3l-0.1-0.15q-0.05-0.15 0.05-0.3l0.05-0.3 0.1-0.1 0.25 0.15m2.2-0.25 0.05 0.05q0.15 0 0.3 0.2l0.1 0.4-0.15 0.35-0.3 0.15h-0.15l-0.35-0.15-0.15-0.45q0-0.25 0.2-0.35 0.15-0.2 0.45-0.2" fill="#855e05" fill-rule="evenodd"/>
<path d="m286.25 188.9 0.4 1.1 0.35 1.15 0.25 1.65-0.05 1.35q-0.15 1.3-0.8 2.3l-0.1 0.1-0.05 0.1-0.5 1.2-0.45 1-0.85-1.7-1.45 0.1 0.2-2.7-0.4-2.2 1.9-0.05 0.65-0.95 0.4-0.95 0.15-1.35-0.05-0.95 0.4 0.8m-0.7 4.55-0.4-0.25h-0.1l-0.55 0.2v0.05l-0.2 0.5 0.2 0.55 0.35 0.2 0.2 0.05 0.1-0.05q0.25 0 0.4-0.2l0.25-0.55-0.25-0.5m-14.25-1.75 1.4 0.05q1.15-1.1 1.1-2.8 0.65 1.65 0.7 3.2v0.45q-0.15 1.25-0.8 2.2l-0.1 0.1v0.05h-0.05l-0.9 1.7-0.5-1.3-1.1 0.05 0.4-2.05-0.15-1.65m1.6 0.65q-0.3 0-0.45 0.2-0.2 0.1-0.2 0.35l0.15 0.45 0.35 0.15h0.15l0.3-0.15 0.15-0.35-0.1-0.4q-0.15-0.2-0.3-0.2l-0.05-0.05" fill="#fce7b8" fill-rule="evenodd"/>
<path d="m287.85 183.05-1-0.95-7.35 0.45-0.5 0.15q-1.2 1.75-1.75 3.55 1.2 1.05 3.05 1.3l2.7 0.05q3.7-0.4 7-1.9-0.85-1.4-2.15-2.65m4.05 4.45v0.4l-1.5 1.05-3.4 2.2-0.35-1.15 5.25-2.5m-14.9 3.1-1.6-1.05v-0.65q2.25 1.05 4.95 1.7l-0.25 1.25q-1.5-0.4-3.1-1.25m-1.6-3.55v-0.05q0.5-2.65 2.15-5.3 3.85-0.95 7.75-0.95l2.65 0.1q2.85 2.2 3.95 5.35-2.8 1.7-5.65 2.7l-0.4-0.8 0.05 0.95-2.3 0.65-2.5-0.1-0.1-1.6-0.4 1.55q-2.55-0.35-4.65-1.35l-0.55-1.15m4 10.95 0.55-3.8q0.1 1.35 0.75 2.45l0.05 0.1 0.15 0.35-0.3 1.35-1.2-0.45m7.8-3.85 0.8 4.05-1.25 0.65-0.4-2.2 0.05-0.05v-0.15q0.65-1 0.8-2.3" fill="#fdf0d7" fill-rule="evenodd"/>
<path d="m264.35 206.05q-0.9 0.55-1.6 0.25t-0.7-0.6q0-0.35 0.5-0.55l1.2-0.2 1.15 0.2q0.5 0.2 0.5 0.55 0 0.3-0.1 0.05-0.1-0.3-0.95 0.3m15.75 3.95 1.65 0.3q0.7 0.3 0.7 0.75t-0.7 0.55l-1.65 0.3-1.65-0.05q-0.7-0.35-0.7-0.8t0.7-0.75l1.65-0.3" fill="#aef4ae" fill-rule="evenodd"/>
<path d="m275.05 212.1q0.45-2.8 2.15-4.7 0.2-1.85 0.85-3.8l0.75-2 0.15-1.05v-2.8l0.45 0.25 1.2 0.45 3.15 2.05-0.9 0.55-0.9 0.5q-0.75 0.4-1.4 0.85l2.85 1.75-4.6 2.8v0.4q7.3-0.05 8.05 5.5l-4.05 2.5-2.75 0.25q-3.7-1-5-3.5m5.05-2.1-1.65 0.3q-0.7 0.3-0.7 0.75t0.7 0.8l1.65 0.05 1.65-0.3q0.7-0.1 0.7-0.55t-0.7-0.75l-1.65-0.3" fill="#469823" fill-rule="evenodd"/>
<path d="m287.85 183.05-1-0.95m1 0.95q1.3 1.25 2.15 2.65-3.3 1.5-7 1.9l-2.7-0.05q-1.85-0.25-3.05-1.3m14.65-0.05v1.7l-1.5 1.05v6.15l-1.25 2.05-0.85 0.75v2.75l3.55 11.5v1.7l-0.45 1.85q-4.35 3.5-10.05 3.5l-1.75-0.1q-3.7-0.95-4.95-3.4-0.75-1.8 0.4-3.6 0.45-2.8 2.15-4.7 0.2-1.85 0.85-3.8l0.75-2 0.15-1.05v-2.8l-0.65-0.3-0.05-0.05-0.35-0.2q-0.9-0.65-0.9-1.4v-5.2l-1.6-1.05v-2.55q0.5-2.65 2.15-5.3 3.85-0.95 7.75-0.95l2.65 0.1q2.85 2.2 3.95 5.35-2.8 1.7-5.65 2.7l0.4 1.1 0.35 1.15 3.4-2.2m-9.8 0.6 0.4-1.55 0.1 1.6 2.5 0.1 2.3-0.65-0.05-0.95 0.4 0.8m-5.15 0.7 0.4 1.2 0.2 0.35 0.3 0.45 0.65 0.75h0.15l1.9-0.05 0.65-0.95 0.4-0.95 0.15-1.35m-3.75 4.55 0.3 0.6q0.05 0.4-0.25 0.4l-0.4-0.05-0.1-0.15-0.1-0.4 0.1-0.4 0.15-0.15 0.3 0.15m3.4-0.15 0.25 0.5-0.25 0.55q-0.15 0.2-0.4 0.2l-0.1 0.05-0.2-0.05-0.35-0.2-0.2-0.55 0.2-0.5v-0.05l0.55-0.2h0.1l0.4 0.25m-5.6 0.75v-1.05l0.15-1.3q-1.5-0.4-3.1-1.25m3.1 1.25 0.25-1.25 0.25-1.05q-2.55-0.35-4.65-1.35l-0.55-1.15m4 10.95 0.55-3.8q0.1 1.35 0.75 2.45l0.05 0.1 0.15 0.35 0.65 1.7 0.45-1.65h0.1l0.9 0.1m-4.05 0.5 0.45 0.25 1.2 0.45 1.15 0.5 0.35-1.8m3.65 0.7-0.45 1-0.85-1.7-1.45 0.1m4-6.1 0.25 1.65-0.05 1.35 0.8 4.05 0.3-0.3m-2.05-1.25-0.5 1.2 0.35 1.3 0.65-0.3 1.25-0.65m-1.6-1.75-0.1 0.1-0.05 0.1m0.15-0.2q0.65-1 0.8-2.3m-16.15 1.25-0.8-0.15-0.55 1.35-0.4-1.7q-0.55-1.1-0.35-2.3l0.1-0.45q0.35-1.75 1.3-3.6-0.4 1.75 0.8 3.15h0.15l1.4 0.05q1.15-1.1 1.1-2.8 0.65 1.65 0.7 3.2v0.45q-0.15 1.25-0.8 2.2m-0.1 0.1v0.05h-0.05l-0.9 1.7-0.5-1.3-1.1 0.05m-0.35-2.8 0.2 0.5-0.25 0.2h-0.3l-0.1-0.15q-0.05-0.15 0.05-0.3l0.05-0.3 0.1-0.1 0.25 0.15m2.2-0.25 0.05 0.05q0.15 0 0.3 0.2l0.1 0.4-0.15 0.35-0.3 0.15h-0.15l-0.35-0.15-0.15-0.45q0-0.25 0.2-0.35 0.15-0.2 0.45-0.2m0.7 2.55 0.1-0.1m14.3 12.6-0.05-0.05h-0.05l-4.25-3.05-3.85 2.45m3 8.6 3.55-0.35q3-0.85 5.5-2.85m-8.2-7.85 3.5-1.85-0.4 0.05-2.95-2 2.3-1.35m-2.7 5 0.25 0.15m0.1-3.8h0.05l-0.95 0.55m0.9-0.55-3.15-2.05m-0.05 3.95 2.85 1.75m-8.35 7.95q1.3 2.5 5 3.5l2.75-0.25" fill="none" stroke="#48230e" stroke-linecap="round" stroke-linejoin="round" stroke-width=".1"/>
<path d="m286.75 202.5q-1.65 0.85-3.35 1.65l-4.6 2.8m4.05-5.9 0.9-0.55m-0.9 0.55-0.9 0.5q-0.75 0.4-1.4 0.85" fill="none" stroke="#105013" stroke-linecap="round" stroke-linejoin="round" stroke-width=".5"/>
</g>
</defs>
</svg>
